v -1.4090410229681589 1.6494815981805098 0.5
v -0.63095897703184112 1.6494815981805098 0.5
v -1.02 1.4090410229681589 1.1294815981805097
v -1.02 1.4090410229681589 -0.12948159818050964
v -1.6494815981805098 1.02 0.11095897703184116
v -1.6494815981805098 1.02 0.8890410229681589
v -1.02 1.76 0.5
v -1.2486725758374611 1.6186725758374612 0.87000000000000011
v -0.79132742416253887 1.6186725758374612 0.87000000000000011
v -1.02 1.02 1.24
v -1.2486725758374611 1.6186725758374612 0.12999999999999995
v -0.79132742416253887 1.6186725758374612 0.12999999999999995
v -1.02 1.02 -0.23999999999999999
v -1.6186725758374612 1.3900000000000001 0.27132742416253885
v -1.6186725758374612 0.64999999999999991 0.27132742416253885
v -1.3900000000000001 0.79132742416253887 -0.098672575837461141
v -1.3900000000000001 1.2486725758374611 -0.098672575837461141
v -1.6186725758374612 1.3900000000000001 0.72867257583746115
v -1.6186725758374612 0.64999999999999991 0.72867257583746115
v -1.3900000000000001 0.79132742416253887 1.0986725758374611
v -1.3900000000000001 1.2486725758374611 1.0986725758374611
v -1.76 1.02 0.5
v -1.2222172313953772 1.731834384760099 0.5
v -0.81778276860462296 1.731834384760099 0.5
v -1.3410775377689941 1.6583746755079778 0.69232001562573831
v -1.1388603063736171 1.5333975533947326 1.0195143691343607
v -1.1402202876061753 1.7237818220584136 0.69452051148407945
v -0.69892246223100596 1.6583746755079778 0.69232001562573831
v -0.90113969362638291 1.5333975533947326 1.0195143691343607
v -0.8997797123938247 1.7237818220584136 0.69452051148407945
v -1.02 1.6494815981805098 0.8890410229681589
v -1.02 1.2222172313953772 1.211834384760099
v -1.3410775377689941 1.6583746755079778 0.30767998437426175
v -1.1388603063736171 1.5333975533947326 -0.019514369134360665
v -1.1402202876061753 1.7237818220584136 0.30547948851592055
v -0.69892246223100596 1.6583746755079778 0.30767998437426175
v -0.90113969362638291 1.5333975533947326 -0.019514369134360665
v -0.8997797123938247 1.7237818220584136 0.30547948851592055
v -1.02 1.6494815981805098 0.11095897703184104
v -1.02 1.2222172313953772 -0.21183438476009897
v -0.50660244660526754 1.5395143691343609 0.38113969362638284
v -0.58503891330356983 1.5292613105743342 0.18525920090974518
v -0.82767998437426171 1.3410775377689941 -0.13837467550797777
v -0.70525920090974514 1.4549610866964302 -0.0092613105743342139
v -0.82547948851592057 1.1402202876061753 -0.20378182205841366
v -0.50660244660526754 1.5395143691343609 0.61886030637361711
v -0.58503891330356983 1.5292613105743342 0.81474079909025487
v -0.82767998437426171 1.3410775377689941 1.1383746755079778
v -0.70525920090974514 1.4549610866964302 1.0092613105743342
v -0.82547948851592057 1.1402202876061753 1.2037818220584136
v -1.5333975533947326 1.5395143691343609 0.38113969362638284
v -1.6583746755079778 1.2123200156257383 0.17892246223100583
v -1.4549610866964302 1.5292613105743342 0.18525920090974518
v -1.5333975533947326 0.50048563086563924 0.38113969362638284
v -1.6583746755079778 0.82767998437426171 0.17892246223100583
v -1.4549610866964302 0.5107386894256658 0.18525920090974518
v -1.5395143691343607 0.90113969362638291 -0.013397553394732364
v -1.2145205114840796 0.8997797123938247 -0.20378182205841366
v -1.5292613105743342 0.70525920090974514 0.065038913303569867
v -1.2123200156257383 1.3410775377689941 -0.13837467550797777
v -1.5395143691343607 1.1388603063736171 -0.013397553394732364
v -1.3347407990902549 1.4549610866964302 -0.0092613105743342139
v -1.2145205114840796 1.1402202876061753 -0.20378182205841366
v -1.5292613105743342 1.3347407990902549 0.065038913303569867
v -1.4090410229681589 1.02 -0.12948159818050953
v -1.5333975533947326 1.5395143691343609 0.61886030637361711
v -1.6583746755079778 1.2123200156257383 0.82107753776899417
v -1.4549610866964302 1.5292613105743342 0.81474079909025487
v -1.6494815981805095 1.4090410229681589 0.5
v -1.5333975533947326 0.50048563086563924 0.61886030637361711
v -1.6583746755079778 0.82767998437426171 0.82107753776899417
v -1.4549610866964302 0.5107386894256658 0.81474079909025487
v -1.6494815981805095 0.63095897703184112 0.5
v -1.5395143691343607 0.90113969362638291 1.0133975533947324
v -1.2145205114840796 0.8997797123938247 1.2037818220584136
v -1.5292613105743342 0.70525920090974514 0.93496108669643019
v -1.2123200156257383 1.3410775377689941 1.1383746755079778
v -1.5395143691343607 1.1388603063736171 1.0133975533947324
v -1.3347407990902549 1.4549610866964302 1.0092613105743342
v -1.2145205114840796 1.1402202876061753 1.2037818220584136
v -1.5292613105743342 1.3347407990902549 0.93496108669643019
v -1.4090410229681589 1.02 1.1294815981805095
v -1.731834384760099 1.02 0.29778276860462294
v -1.731834384760099 1.02 0.70221723139537706
v -1.7237818220584136 1.2145205114840796 0.37977971239382463
v -1.7237818220584136 0.82547948851592057 0.37977971239382463
v -1.7237818220584136 1.2145205114840796 0.62022028760617531
v -1.7237818220584136 0.82547948851592057 0.62022028760617531
v -1.3184829579768498 1.6971321317124084 0.5
v -1.1220846591744489 1.7529247726480777 0.5
v -0.72151704202315037 1.6971321317124084 0.5
v -0.91791534082555104 1.7529247726480777 0.5
v -1.3784868151248943 1.6600477085388232 0.59708828032162953
v -1.2975285399338752 1.6444944912205688 0.7838741621869354
v -1.2850893071800684 1.7039854044523961 0.59742497480052781
v -1.0800038571480446 1.4755750954465237 1.0800438513907789
v -1.1954438807594263 1.5814027021208106 0.94905061046114247
v -1.0808594243067282 1.750889372040402 0.59847261706403754
v -1.196620928436499 1.6793448278993921 0.78577866533481822
v -1.1828866003302365 1.7351305220778048 0.5982664328526478
v -1.2429315705289916 1.6980206896414995 0.69542123548770851
v -0.6615131848751058 1.6600477085388232 0.59708828032162953
v -0.74247146006612486 1.6444944912205688 0.7838741621869354
v -0.75491069281993162 1.7039854044523961 0.59742497480052781
v -0.95999614285195545 1.4755750954465237 1.0800438513907789
v -0.84455611924057383 1.5814027021208106 0.94905061046114247
v -1.02 1.5401512025609523 1.02634848387204
v -0.95914057569327194 1.750889372040402 0.59847261706403754
v -0.84337907156350111 1.6793448278993921 0.78577866533481822
v -0.85711339966976363 1.7351305220778048 0.5982664328526478
v -1.02 1.7332573349660407 0.69713947883957983
v -0.79706842947100831 1.6980206896414995 0.69542123548770851
v -1.1357615041297708 1.6417316351420828 0.88425128239885575
v -0.9042384958702292 1.6417316351420828 0.88425128239885575
v -1.0800449701987553 1.5973512343254939 0.9589772911339508
v -1.0809194492236505 1.6956070447699014 0.79570921825936991
v -0.9599550298012447 1.5973512343254939 0.9589772911339508
v -0.95908055077634946 1.6956070447699014 0.79570921825936991
v -1.02 1.3184829579768498 1.1771321317124084
v -1.02 1.1220846591744489 1.2329247726480776
v -1.3784868151248943 1.6600477085388232 0.40291171967837047
v -1.2975285399338752 1.6444944912205688 0.21612583781306466
v -1.2850893071800684 1.7039854044523961 0.40257502519947219
v -1.0800038571480446 1.4755750954465237 -0.080043851390778853
v -1.1954438807594263 1.5814027021208106 0.050949389538857526
v -1.0808594243067282 1.750889372040402 0.40152738293596246
v -1.196620928436499 1.6793448278993921 0.21422133466518184
v -1.1828866003302365 1.7351305220778048 0.4017335671473522
v -1.2429315705289916 1.6980206896414995 0.30457876451229154
v -0.6615131848751058 1.6600477085388232 0.40291171967837047
v -0.74247146006612486 1.6444944912205688 0.21612583781306466
v -0.75491069281993162 1.7039854044523961 0.40257502519947219
v -0.95999614285195545 1.4755750954465237 -0.080043851390778853
v -0.84455611924057383 1.5814027021208106 0.050949389538857526
v -1.02 1.5401512025609523 -0.026348483872040029
v -0.95914057569327194 1.750889372040402 0.40152738293596246
v -0.84337907156350111 1.6793448278993921 0.21422133466518184
v -0.85711339966976363 1.7351305220778048 0.4017335671473522
v -1.02 1.7332573349660407 0.30286052116042017
v -0.79706842947100831 1.6980206896414995 0.30457876451229154
v -1.1357615041297708 1.6417316351420828 0.11574871760114425
v -0.9042384958702292 1.6417316351420828 0.11574871760114425
v -1.0800449701987553 1.5973512343254939 0.041022708866049196
v -1.0809194492236505 1.6956070447699014 0.20429078174063015
v -0.9599550298012447 1.5973512343254939 0.041022708866049196
v -0.95908055077634946 1.6956070447699014 0.20429078174063015
v -1.02 1.3184829579768498 -0.17713213171240827
v -1.02 1.1220846591744489 -0.23292477264807776
v -0.56442490455347638 1.6000438513907786 0.43999614285195537
v -0.59727377223957556 1.6065604296518683 0.34236307941964395
v -0.68404703019273538 1.5808722108353546 0.15336191035845376
v -0.49674098192195493 1.4651107067055837 0.2249064544994635
v -0.63807000116221491 1.5997542567888519 0.24384676905614588
v -0.5409151985271542 1.5397092865900965 0.28095660149245116
v -0.92291171967837049 1.3784868151248943 -0.14004770853882331
v -0.73612583781306462 1.2975285399338752 -0.12449449122056866
v -0.86236307941964396 1.4427262277604245 -0.086560429651868165
v -0.92257502519947221 1.2850893071800684 -0.18398540445239608
v -0.74490645449946347 1.5432590180780452 0.054889293294416164
v -0.67336191035845372 1.3559529698072645 -0.060872210835354545
v -0.80095660149245118 1.4990848014728457 -0.019709286590096409
v -0.64010217348946852 1.4984675659303215 0.082451883293329087
v -0.7638467690561459 1.4019299988377854 -0.07975425678885173
v -0.92152738293596248 1.0808594243067282 -0.23088937204040194
v -0.92173356714735222 1.1828866003302365 -0.21513052207780492
v -0.82457876451229151 1.2429315705289918 -0.17802068964149964
v -0.54153243406967855 1.437548116706671 0.12010217348946856
v -0.6024518832933291 1.3998978265105315 0.021532434069678585
v -0.56442490455347638 1.6000438513907786 0.56000385714804457
v -0.59727377223957556 1.6065604296518683 0.65763692058035605
v -0.49984879743904786 1.5463484838720403 0.5
v -0.68404703019273538 1.5808722108353546 0.84663808964154619
v -0.49674098192195493 1.4651107067055837 0.77509354550053655
v -0.63807000116221491 1.5997542567888519 0.75615323094385412
v -0.5409151985271542 1.5397092865900965 0.71904339850754884
v -0.92291171967837049 1.3784868151248943 1.1400477085388232
v -0.73612583781306462 1.2975285399338752 1.1244944912205685
v -0.86236307941964396 1.4427262277604245 1.0865604296518683
v -0.92257502519947221 1.2850893071800684 1.1839854044523961
v -0.74490645449946347 1.5432590180780452 0.94511070670558384
v -0.67336191035845372 1.3559529698072645 1.0608722108353545
v -0.80095660149245118 1.4990848014728457 1.0197092865900963
v -0.64010217348946852 1.4984675659303215 0.91754811670667091
v -0.7638467690561459 1.4019299988377854 1.0797542567888518
v -0.92152738293596248 1.0808594243067282 1.2308893720404019
v -0.92173356714735222 1.1828866003302365 1.2151305220778048
v -0.82457876451229151 1.2429315705289918 1.1780206896414995
v -0.54153243406967855 1.437548116706671 0.8798978265105315
v -0.6024518832933291 1.3998978265105315 0.97846756593032147
v -1.4755750954465237 1.6000438513907786 0.43999614285195537
v -1.5814027021208106 1.4690506104611425 0.32455611924057381
v -1.4427262277604245 1.6065604296518683 0.34236307941964395
v -1.6600477085388232 1.1170882803216295 0.14151318487510578
v -1.6444944912205686 1.3038741621869354 0.22247146006612484
v -1.3559529698072645 1.5808722108353546 0.15336191035845376
v -1.5432590180780452 1.4651107067055837 0.2249064544994635
v -1.4019299988377851 1.5997542567888519 0.24384676905614588
v -1.4990848014728457 1.5397092865900965 0.28095660149245116
v -1.5814027021208106 0.57094938953885754 0.32455611924057381
v -1.6600477085388232 0.92291171967837049 0.14151318487510578
v -1.6444944912205686 0.73612583781306462 0.22247146006612484
v -1.5432590180780452 0.57488929329441629 0.2249064544994635
v -1.4990848014728457 0.5002907134099035 0.28095660149245116
v -1.3038741621869354 0.74247146006612486 -0.12449449122056866
v -1.6000438513907786 0.95999614285195545 0.044424904553476363
v -1.4690506104611425 0.84455611924057383 -0.061402702120810448
v -1.6065604296518683 0.86236307941964396 0.0772737722395756
v -1.3666380896415462 0.68404703019273538 -0.060872210835354545
v -1.1184726170640376 0.95914057569327194 -0.23088937204040194
v -1.3057786653348182 0.843379071563501 -0.15934482789939219
v -1.1182664328526479 0.85711339966976363 -0.21513052207780492
v -1.2154212354877085 0.7970684294710082 -0.17802068964149964
v -1.5808722108353546 0.67336191035845372 0.16404703019273537
v -1.465110706705584 0.74490645449946347 -0.023259018078045091
v -1.5997542567888519 0.7638467690561459 0.11807000116221478
v -1.4984675659303215 0.6024518832933291 0.12010217348946856
v -1.5397092865900963 0.80095660149245118 0.020915198527154288
v -1.437548116706671 0.64010217348946852 0.021532434069678585
v -1.1170882803216295 1.3784868151248943 -0.14004770853882331
v -1.3038741621869354 1.2975285399338752 -0.12449449122056866
v -1.1776369205803561 1.4427262277604245 -0.086560429651868165
v -1.1174249748005278 1.2850893071800684 -0.18398540445239608
v -1.6000438513907786 1.0800038571480446 0.044424904553476363
v -1.4690506104611425 1.1954438807594263 -0.061402702120810448
v -1.6065604296518683 1.1776369205803561 0.0772737722395756
v -1.5463484838720403 1.02 -0.020151202560952153
v -1.2950935455005366 1.5432590180780452 0.054889293294416164
v -1.3666380896415462 1.3559529698072645 -0.060872210835354545
v -1.2390433985075489 1.4990848014728457 -0.019709286590096409
v -1.3998978265105315 1.4984675659303215 0.082451883293329087
v -1.2761532309438541 1.4019299988377854 -0.07975425678885173
v -1.1184726170640376 1.0808594243067282 -0.23088937204040194
v -1.3057786653348182 1.196620928436499 -0.15934482789939219
v -1.1182664328526479 1.1828866003302365 -0.21513052207780492
v -1.21713947883958 1.02 -0.21325733496604071
v -1.2154212354877085 1.2429315705289918 -0.17802068964149964
v -1.5808722108353546 1.3666380896415462 0.16404703019273537
v -1.465110706705584 1.2950935455005366 -0.023259018078045091
v -1.5997542567888519 1.2761532309438541 0.11807000116221478
v -1.4984675659303215 1.437548116706671 0.12010217348946856
v -1.5397092865900963 1.2390433985075489 0.020915198527154288
v -1.437548116706671 1.3998978265105315 0.021532434069678585
v -1.4042512823988558 0.9042384958702292 -0.12173163514208274
v -1.4042512823988558 1.1357615041297708 -0.12173163514208274
v -1.4789772911339507 0.9599550298012447 -0.077351234325493734
v -1.3157092182593699 0.95908055077634946 -0.1756070447699013
v -1.4789772911339507 1.0800449701987553 -0.077351234325493734
v -1.3157092182593699 1.0809194492236505 -0.1756070447699013
v -1.4755750954465237 1.6000438513907786 0.56000385714804457
v -1.5814027021208106 1.4690506104611425 0.67544388075942619
v -1.4427262277604245 1.6065604296518683 0.65763692058035605
v -1.5401512025609523 1.5463484838720403 0.5
v -1.6600477085388232 1.1170882803216295 0.85848681512489422
v -1.6444944912205686 1.3038741621869354 0.77752853993387516
v -1.3559529698072645 1.5808722108353546 0.84663808964154619
v -1.5432590180780452 1.4651107067055837 0.77509354550053655
v -1.4019299988377851 1.5997542567888519 0.75615323094385412
v -1.4990848014728457 1.5397092865900965 0.71904339850754884
v -1.6417316351420828 1.4042512823988558 0.38423849587022918
v -1.6417316351420828 1.4042512823988558 0.61576150412977082
v -1.5973512343254939 1.4789772911339507 0.43995502980124468
v -1.5973512343254939 1.4789772911339507 0.56004497019875532
v -1.5814027021208106 0.57094938953885754 0.67544388075942619
v -1.5401512025609523 0.49365151612795988 0.5
v -1.6600477085388232 0.92291171967837049 0.85848681512489422
v -1.6444944912205686 0.73612583781306462 0.77752853993387516
v -1.5432590180780452 0.57488929329441629 0.77509354550053655
v -1.4990848014728457 0.5002907134099035 0.71904339850754884
v -1.6417316351420828 0.63574871760114426 0.38423849587022918
v -1.6417316351420828 0.63574871760114426 0.61576150412977082
v -1.5973512343254939 0.56102270886604921 0.43995502980124468
v -1.5973512343254939 0.56102270886604921 0.56004497019875532
v -1.3038741621869354 0.74247146006612486 1.1244944912205685
v -1.6000438513907786 0.95999614285195545 0.95557509544652364
v -1.4690506104611425 0.84455611924057383 1.0614027021208106
v -1.6065604296518683 0.86236307941964396 0.92272622776042446
v -1.3666380896415462 0.68404703019273538 1.0608722108353545
v -1.1184726170640376 0.95914057569327194 1.2308893720404019
v -1.3057786653348182 0.843379071563501 1.1593448278993921
v -1.1182664328526479 0.85711339966976363 1.2151305220778048
v -1.2154212354877085 0.7970684294710082 1.1780206896414995
v -1.5808722108353546 0.67336191035845372 0.83595296980726463
v -1.465110706705584 0.74490645449946347 1.0232590180780452
v -1.5997542567888519 0.7638467690561459 0.88192999883778522
v -1.4984675659303215 0.6024518832933291 0.8798978265105315
v -1.5397092865900963 0.80095660149245118 0.97908480147284571
v -1.437548116706671 0.64010217348946852 0.97846756593032147
v -1.1170882803216295 1.3784868151248943 1.1400477085388232
v -1.3038741621869354 1.2975285399338752 1.1244944912205685
v -1.1776369205803561 1.4427262277604245 1.0865604296518683
v -1.1174249748005278 1.2850893071800684 1.1839854044523961
v -1.6000438513907786 1.0800038571480446 0.95557509544652364
v -1.4690506104611425 1.1954438807594263 1.0614027021208106
v -1.6065604296518683 1.1776369205803561 0.92272622776042446
v -1.5463484838720403 1.02 1.0201512025609523
v -1.2950935455005366 1.5432590180780452 0.94511070670558384
v -1.3666380896415462 1.3559529698072645 1.0608722108353545
v -1.2390433985075489 1.4990848014728457 1.0197092865900963
v -1.3998978265105315 1.4984675659303215 0.91754811670667091
v -1.2761532309438541 1.4019299988377854 1.0797542567888518
v -1.1184726170640376 1.0808594243067282 1.2308893720404019
v -1.3057786653348182 1.196620928436499 1.1593448278993921
v -1.1182664328526479 1.1828866003302365 1.2151305220778048
v -1.21713947883958 1.02 1.2132573349660407
v -1.2154212354877085 1.2429315705289918 1.1780206896414995
v -1.5808722108353546 1.3666380896415462 0.83595296980726463
v -1.465110706705584 1.2950935455005366 1.0232590180780452
v -1.5997542567888519 1.2761532309438541 0.88192999883778522
v -1.4984675659303215 1.437548116706671 0.8798978265105315
v -1.5397092865900963 1.2390433985075489 0.97908480147284571
v -1.437548116706671 1.3998978265105315 0.97846756593032147
v -1.4042512823988558 0.9042384958702292 1.1217316351420827
v -1.4042512823988558 1.1357615041297708 1.1217316351420827
v -1.4789772911339507 0.9599550298012447 1.0773512343254938
v -1.3157092182593699 0.95908055077634946 1.1756070447699014
v -1.4789772911339507 1.0800449701987553 1.0773512343254938
v -1.3157092182593699 1.0809194492236505 1.1756070447699014
v -1.6971321317124084 1.02 0.20151704202315035
v -1.7529247726480777 1.02 0.39791534082555102
v -1.7039854044523961 1.1174249748005278 0.2349106928199316
v -1.7039854044523961 0.92257502519947221 0.2349106928199316
v -1.6971321317124084 1.02 0.79848295797684965
v -1.7529247726480777 1.02 0.60208465917444898
v -1.7039854044523961 1.1174249748005278 0.7650893071800684
v -1.7039854044523961 0.92257502519947221 0.7650893071800684
v -1.6793448278993921 1.3057786653348182 0.32337907156350104
v -1.750889372040402 1.1184726170640376 0.43914057569327192
v -1.6980206896414995 1.2154212354877085 0.27706842947100824
v -1.6956070447699014 1.3157092182593699 0.43908055077634944
v -1.7351305220778048 1.1182664328526479 0.33711339966976361
v -1.6793448278993921 0.7342213346651818 0.32337907156350104
v -1.750889372040402 0.92152738293596248 0.43914057569327192
v -1.6980206896414995 0.82457876451229151 0.27706842947100824
v -1.6956070447699014 0.72429078174063011 0.43908055077634944
v -1.7351305220778048 0.92173356714735222 0.33711339966976361
v -1.6793448278993921 1.3057786653348182 0.67662092843649901
v -1.750889372040402 1.1184726170640376 0.56085942430672808
v -1.6980206896414995 1.2154212354877085 0.72293157052899182
v -1.6956070447699014 1.3157092182593699 0.56091944922365056
v -1.7351305220778048 1.1182664328526479 0.66288660033023639
v -1.7332573349660407 1.21713947883958 0.5
v -1.6793448278993921 0.7342213346651818 0.67662092843649901
v -1.750889372040402 0.92152738293596248 0.56085942430672808
v -1.6980206896414995 0.82457876451229151 0.72293157052899182
v -1.6956070447699014 0.72429078174063011 0.56091944922365056
v -1.7351305220778048 0.92173356714735222 0.66288660033023639
v -1.7332573349660407 0.82286052116042008 0.5
v 0.59095897703184108 -1.6094815981805097 0.5
v 1.3690410229681589 -1.6094815981805097 0.5
v 0.97999999999999998 -1.3690410229681589 1.1294815981805097
v 0.97999999999999998 -1.3690410229681589 -0.12948159818050964
v 1.6094815981805097 -0.97999999999999998 0.11095897703184116
v 1.6094815981805097 -0.97999999999999998 0.8890410229681589
v 0.97999999999999998 -1.72 0.5
v 0.75132742416253884 -1.5786725758374611 0.87000000000000011
v 1.208672575837461 -1.5786725758374611 0.87000000000000011
v 0.97999999999999998 -0.97999999999999998 1.24
v 0.75132742416253884 -1.5786725758374611 0.12999999999999995
v 1.208672575837461 -1.5786725758374611 0.12999999999999995
v 0.97999999999999998 -0.97999999999999998 -0.23999999999999999
v 1.5786725758374611 -0.60999999999999988 0.27132742416253885
v 1.5786725758374611 -1.3500000000000001 0.27132742416253885
v 1.3500000000000001 -1.208672575837461 -0.098672575837461141
v 1.3500000000000001 -0.75132742416253884 -0.098672575837461141
v 1.5786725758374611 -0.60999999999999988 0.72867257583746115
v 1.5786725758374611 -1.3500000000000001 0.72867257583746115
v 1.3500000000000001 -1.208672575837461 1.0986725758374611
v 1.3500000000000001 -0.75132742416253884 1.0986725758374611
v 1.72 -0.97999999999999998 0.5
v 0.77778276860462292 -1.691834384760099 0.5
v 1.1822172313953772 -1.691834384760099 0.5
v 0.65892246223100592 -1.6183746755079778 0.69232001562573831
v 0.86113969362638287 -1.4933975533947326 1.0195143691343607
v 0.85977971239382467 -1.6837818220584135 0.69452051148407945
v 1.301077537768994 -1.6183746755079778 0.69232001562573831
v 1.0988603063736171 -1.4933975533947326 1.0195143691343607
v 1.1002202876061753 -1.6837818220584135 0.69452051148407945
v 0.97999999999999998 -1.6094815981805097 0.8890410229681589
v 0.97999999999999998 -1.1822172313953772 1.211834384760099
v 0.65892246223100592 -1.6183746755079778 0.30767998437426175
v 0.86113969362638287 -1.4933975533947326 -0.019514369134360665
v 0.85977971239382467 -1.6837818220584135 0.30547948851592055
v 1.301077537768994 -1.6183746755079778 0.30767998437426175
v 1.0988603063736171 -1.4933975533947326 -0.019514369134360665
v 1.1002202876061753 -1.6837818220584135 0.30547948851592055
v 0.97999999999999998 -1.6094815981805097 0.11095897703184104
v 0.97999999999999998 -1.1822172313953772 -0.21183438476009897
v 1.4933975533947326 -0.46048563086563921 0.38113969362638284
v 1.6183746755079778 -0.78767998437426168 0.17892246223100583
v 1.4149610866964302 -0.47073868942566577 0.18525920090974518
v 1.4933975533947326 -1.4995143691343609 0.38113969362638284
v 1.6183746755079778 -1.1723200156257383 0.17892246223100583
v 1.4149610866964302 -1.4892613105743342 0.18525920090974518
v 1.1723200156257383 -1.301077537768994 -0.13837467550797777
v 1.4995143691343606 -1.0988603063736171 -0.013397553394732364
v 1.2947407990902549 -1.4149610866964302 -0.0092613105743342139
v 1.1745205114840795 -1.1002202876061753 -0.20378182205841366
v 1.4892613105743342 -1.2947407990902549 0.065038913303569867
v 1.4995143691343606 -0.86113969362638287 -0.013397553394732364
v 1.1745205114840795 -0.85977971239382467 -0.20378182205841366
v 1.4892613105743342 -0.66525920090974511 0.065038913303569867
v 1.3690410229681589 -0.97999999999999998 -0.12948159818050953
v 1.4933975533947326 -0.46048563086563921 0.61886030637361711
v 1.6183746755079778 -0.78767998437426168 0.82107753776899417
v 1.4149610866964302 -0.47073868942566577 0.81474079909025487
v 1.6094815981805095 -0.59095897703184108 0.5
v 1.4933975533947326 -1.4995143691343609 0.61886030637361711
v 1.6183746755079778 -1.1723200156257383 0.82107753776899417
v 1.4149610866964302 -1.4892613105743342 0.81474079909025487
v 1.6094815981805095 -1.3690410229681589 0.5
v 1.1723200156257383 -1.301077537768994 1.1383746755079778
v 1.4995143691343606 -1.0988603063736171 1.0133975533947324
v 1.2947407990902549 -1.4149610866964302 1.0092613105743342
v 1.1745205114840795 -1.1002202876061753 1.2037818220584136
v 1.4892613105743342 -1.2947407990902549 0.93496108669643019
v 1.4995143691343606 -0.86113969362638287 1.0133975533947324
v 1.1745205114840795 -0.85977971239382467 1.2037818220584136
v 1.4892613105743342 -0.66525920090974511 0.93496108669643019
v 1.3690410229681589 -0.97999999999999998 1.1294815981805095
v 1.691834384760099 -0.97999999999999998 0.29778276860462294
v 1.691834384760099 -0.97999999999999998 0.70221723139537706
v 1.6837818220584135 -0.78547948851592053 0.37977971239382463
v 1.6837818220584135 -1.1745205114840795 0.37977971239382463
v 1.6837818220584135 -0.78547948851592053 0.62022028760617531
v 1.6837818220584135 -1.1745205114840795 0.62022028760617531
v 0.46660244660526751 -1.4995143691343609 0.38113969362638284
v 0.54503891330356979 -1.4892613105743342 0.18525920090974518
v 0.78767998437426168 -1.301077537768994 -0.13837467550797777
v 0.66525920090974511 -1.4149610866964302 -0.0092613105743342139
v 0.78547948851592053 -1.1002202876061753 -0.20378182205841366
v 0.46660244660526751 -1.4995143691343609 0.61886030637361711
v 0.54503891330356979 -1.4892613105743342 0.81474079909025487
v 0.78767998437426168 -1.301077537768994 1.1383746755079778
v 0.66525920090974511 -1.4149610866964302 1.0092613105743342
v 0.78547948851592053 -1.1002202876061753 1.2037818220584136
v 0.68151704202315033 -1.6571321317124084 0.5
v 0.877915340825551 -1.7129247726480776 0.5
v 1.2784829579768497 -1.6571321317124084 0.5
v 1.0820846591744488 -1.7129247726480776 0.5
v 0.62151318487510576 -1.6200477085388232 0.59708828032162953
v 0.70247146006612482 -1.6044944912205688 0.7838741621869354
v 0.71491069281993158 -1.6639854044523961 0.59742497480052781
v 0.91999614285195541 -1.4355750954465236 1.0800438513907789
v 0.8045561192405738 -1.5414027021208105 0.94905061046114247
v 0.9191405756932719 -1.7108893720404019 0.59847261706403754
v 0.80337907156350108 -1.6393448278993921 0.78577866533481822
v 0.8171133996697636 -1.6951305220778048 0.5982664328526478
v 0.75706842947100828 -1.6580206896414995 0.69542123548770851
v 1.3384868151248943 -1.6200477085388232 0.59708828032162953
v 1.2575285399338751 -1.6044944912205688 0.7838741621869354
v 1.2450893071800684 -1.6639854044523961 0.59742497480052781
v 1.0400038571480446 -1.4355750954465236 1.0800438513907789
v 1.1554438807594263 -1.5414027021208105 0.94905061046114247
v 0.97999999999999998 -1.5001512025609522 1.02634848387204
v 1.0408594243067282 -1.7108893720404019 0.59847261706403754
v 1.156620928436499 -1.6393448278993921 0.78577866533481822
v 1.1428866003302365 -1.6951305220778048 0.5982664328526478
v 0.97999999999999998 -1.6932573349660407 0.69713947883957983
v 1.2029315705289916 -1.6580206896414995 0.69542123548770851
v 0.86423849587022916 -1.6017316351420827 0.88425128239885575
v 1.0957615041297708 -1.6017316351420827 0.88425128239885575
v 0.91995502980124466 -1.5573512343254938 0.9589772911339508
v 0.91908055077634943 -1.6556070447699014 0.79570921825936991
v 1.0400449701987553 -1.5573512343254938 0.9589772911339508
v 1.0409194492236504 -1.6556070447699014 0.79570921825936991
v 0.97999999999999998 -1.2784829579768497 1.1771321317124084
v 0.97999999999999998 -1.0820846591744488 1.2329247726480776
v 0.62151318487510576 -1.6200477085388232 0.40291171967837047
v 0.70247146006612482 -1.6044944912205688 0.21612583781306466
v 0.71491069281993158 -1.6639854044523961 0.40257502519947219
v 0.91999614285195541 -1.4355750954465236 -0.080043851390778853
v 0.8045561192405738 -1.5414027021208105 0.050949389538857526
v 0.9191405756932719 -1.7108893720404019 0.40152738293596246
v 0.80337907156350108 -1.6393448278993921 0.21422133466518184
v 0.8171133996697636 -1.6951305220778048 0.4017335671473522
v 0.75706842947100828 -1.6580206896414995 0.30457876451229154
v 1.3384868151248943 -1.6200477085388232 0.40291171967837047
v 1.2575285399338751 -1.6044944912205688 0.21612583781306466
v 1.2450893071800684 -1.6639854044523961 0.40257502519947219
v 1.0400038571480446 -1.4355750954465236 -0.080043851390778853
v 1.1554438807594263 -1.5414027021208105 0.050949389538857526
v 0.97999999999999998 -1.5001512025609522 -0.026348483872040029
v 1.0408594243067282 -1.7108893720404019 0.40152738293596246
v 1.156620928436499 -1.6393448278993921 0.21422133466518184
v 1.1428866003302365 -1.6951305220778048 0.4017335671473522
v 0.97999999999999998 -1.6932573349660407 0.30286052116042017
v 1.2029315705289916 -1.6580206896414995 0.30457876451229154
v 0.86423849587022916 -1.6017316351420827 0.11574871760114425
v 1.0957615041297708 -1.6017316351420827 0.11574871760114425
v 0.91995502980124466 -1.5573512343254938 0.041022708866049196
v 0.91908055077634943 -1.6556070447699014 0.20429078174063015
v 1.0400449701987553 -1.5573512343254938 0.041022708866049196
v 1.0409194492236504 -1.6556070447699014 0.20429078174063015
v 0.97999999999999998 -1.2784829579768497 -0.17713213171240827
v 0.97999999999999998 -1.0820846591744488 -0.23292477264807776
v 1.5414027021208105 -0.53094938953885751 0.32455611924057381
v 1.6200477085388232 -0.88291171967837045 0.14151318487510578
v 1.6044944912205685 -0.69612583781306459 0.22247146006612484
v 1.5032590180780452 -0.53488929329441626 0.2249064544994635
v 1.4590848014728457 -0.46029071340990346 0.28095660149245116
v 1.4355750954465236 -1.5600438513907786 0.43999614285195537
v 1.5414027021208105 -1.4290506104611425 0.32455611924057381
v 1.4027262277604244 -1.5665604296518683 0.34236307941964395
v 1.6200477085388232 -1.0770882803216295 0.14151318487510578
v 1.6044944912205685 -1.2638741621869354 0.22247146006612484
v 1.3159529698072645 -1.5408722108353545 0.15336191035845376
v 1.5032590180780452 -1.4251107067055837 0.2249064544994635
v 1.3619299988377851 -1.5597542567888518 0.24384676905614588
v 1.4590848014728457 -1.4997092865900965 0.28095660149245116
v 1.0770882803216295 -1.3384868151248943 -0.14004770853882331
v 1.2638741621869354 -1.2575285399338751 -0.12449449122056866
v 1.137636920580356 -1.4027262277604244 -0.086560429651868165
v 1.0774249748005278 -1.2450893071800684 -0.18398540445239608
v 1.5600438513907786 -1.0400038571480446 0.044424904553476363
v 1.4290506104611425 -1.1554438807594263 -0.061402702120810448
v 1.5665604296518683 -1.137636920580356 0.0772737722395756
v 1.2550935455005365 -1.5032590180780452 0.054889293294416164
v 1.3266380896415462 -1.3159529698072645 -0.060872210835354545
v 1.1990433985075488 -1.4590848014728457 -0.019709286590096409
v 1.3598978265105315 -1.4584675659303215 0.082451883293329087
v 1.2361532309438541 -1.3619299988377853 -0.07975425678885173
v 1.0784726170640375 -1.0408594243067282 -0.23088937204040194
v 1.2657786653348182 -1.156620928436499 -0.15934482789939219
v 1.0782664328526479 -1.1428866003302365 -0.21513052207780492
v 1.1754212354877085 -1.2029315705289918 -0.17802068964149964
v 1.5408722108353545 -1.3266380896415462 0.16404703019273537
v 1.4251107067055839 -1.2550935455005365 -0.023259018078045091
v 1.5597542567888518 -1.2361532309438541 0.11807000116221478
v 1.4584675659303215 -1.397548116706671 0.12010217348946856
v 1.4997092865900963 -1.1990433985075488 0.020915198527154288
v 1.397548116706671 -1.3598978265105315 0.021532434069678585
v 1.2638741621869354 -0.70247146006612482 -0.12449449122056866
v 1.5600438513907786 -0.91999614285195541 0.044424904553476363
v 1.4290506104611425 -0.8045561192405738 -0.061402702120810448
v 1.5665604296518683 -0.82236307941964393 0.0772737722395756
v 1.5063484838720402 -0.97999999999999998 -0.020151202560952153
v 1.3266380896415462 -0.64404703019273535 -0.060872210835354545
v 1.0784726170640375 -0.9191405756932719 -0.23088937204040194
v 1.2657786653348182 -0.80337907156350097 -0.15934482789939219
v 1.0782664328526479 -0.8171133996697636 -0.21513052207780492
v 1.1771394788395799 -0.97999999999999998 -0.21325733496604071
v 1.1754212354877085 -0.75706842947100816 -0.17802068964149964
v 1.5408722108353545 -0.63336191035845368 0.16404703019273537
v 1.4251107067055839 -0.70490645449946343 -0.023259018078045091
v 1.5597542567888518 -0.72384676905614587 0.11807000116221478
v 1.4584675659303215 -0.56245188329332907 0.12010217348946856
v 1.4997092865900963 -0.76095660149245115 0.020915198527154288
v 1.397548116706671 -0.60010217348946848 0.021532434069678585
v 1.3642512823988557 -1.0957615041297708 -0.12173163514208274
v 1.3642512823988557 -0.86423849587022916 -0.12173163514208274
v 1.4389772911339507 -1.0400449701987553 -0.077351234325493734
v 1.2757092182593699 -1.0409194492236504 -0.1756070447699013
v 1.4389772911339507 -0.91995502980124466 -0.077351234325493734
v 1.2757092182593699 -0.91908055077634943 -0.1756070447699013
v 1.5414027021208105 -0.53094938953885751 0.67544388075942619
v 1.5001512025609522 -0.45365151612795984 0.5
v 1.6200477085388232 -0.88291171967837045 0.85848681512489422
v 1.6044944912205685 -0.69612583781306459 0.77752853993387516
v 1.5032590180780452 -0.53488929329441626 0.77509354550053655
v 1.4590848014728457 -0.46029071340990346 0.71904339850754884
v 1.6017316351420827 -0.59574871760114423 0.38423849587022918
v 1.6017316351420827 -0.59574871760114423 0.61576150412977082
v 1.5573512343254938 -0.52102270886604918 0.43995502980124468
v 1.5573512343254938 -0.52102270886604918 0.56004497019875532
v 1.4355750954465236 -1.5600438513907786 0.56000385714804457
v 1.5414027021208105 -1.4290506104611425 0.67544388075942619
v 1.4027262277604244 -1.5665604296518683 0.65763692058035605
v 1.5001512025609522 -1.5063484838720402 0.5
v 1.6200477085388232 -1.0770882803216295 0.85848681512489422
v 1.6044944912205685 -1.2638741621869354 0.77752853993387516
v 1.3159529698072645 -1.5408722108353545 0.84663808964154619
v 1.5032590180780452 -1.4251107067055837 0.77509354550053655
v 1.3619299988377851 -1.5597542567888518 0.75615323094385412
v 1.4590848014728457 -1.4997092865900965 0.71904339850754884
v 1.6017316351420827 -1.3642512823988557 0.38423849587022918
v 1.6017316351420827 -1.3642512823988557 0.61576150412977082
v 1.5573512343254938 -1.4389772911339507 0.43995502980124468
v 1.5573512343254938 -1.4389772911339507 0.56004497019875532
v 1.0770882803216295 -1.3384868151248943 1.1400477085388232
v 1.2638741621869354 -1.2575285399338751 1.1244944912205685
v 1.137636920580356 -1.4027262277604244 1.0865604296518683
v 1.0774249748005278 -1.2450893071800684 1.1839854044523961
v 1.5600438513907786 -1.0400038571480446 0.95557509544652364
v 1.4290506104611425 -1.1554438807594263 1.0614027021208106
v 1.5665604296518683 -1.137636920580356 0.92272622776042446
v 1.2550935455005365 -1.5032590180780452 0.94511070670558384
v 1.3266380896415462 -1.3159529698072645 1.0608722108353545
v 1.1990433985075488 -1.4590848014728457 1.0197092865900963
v 1.3598978265105315 -1.4584675659303215 0.91754811670667091
v 1.2361532309438541 -1.3619299988377853 1.0797542567888518
v 1.0784726170640375 -1.0408594243067282 1.2308893720404019
v 1.2657786653348182 -1.156620928436499 1.1593448278993921
v 1.0782664328526479 -1.1428866003302365 1.2151305220778048
v 1.1754212354877085 -1.2029315705289918 1.1780206896414995
v 1.5408722108353545 -1.3266380896415462 0.83595296980726463
v 1.4251107067055839 -1.2550935455005365 1.0232590180780452
v 1.5597542567888518 -1.2361532309438541 0.88192999883778522
v 1.4584675659303215 -1.397548116706671 0.8798978265105315
v 1.4997092865900963 -1.1990433985075488 0.97908480147284571
v 1.397548116706671 -1.3598978265105315 0.97846756593032147
v 1.2638741621869354 -0.70247146006612482 1.1244944912205685
v 1.5600438513907786 -0.91999614285195541 0.95557509544652364
v 1.4290506104611425 -0.8045561192405738 1.0614027021208106
v 1.5665604296518683 -0.82236307941964393 0.92272622776042446
v 1.5063484838720402 -0.97999999999999998 1.0201512025609523
v 1.3266380896415462 -0.64404703019273535 1.0608722108353545
v 1.0784726170640375 -0.9191405756932719 1.2308893720404019
v 1.2657786653348182 -0.80337907156350097 1.1593448278993921
v 1.0782664328526479 -0.8171133996697636 1.2151305220778048
v 1.1771394788395799 -0.97999999999999998 1.2132573349660407
v 1.1754212354877085 -0.75706842947100816 1.1780206896414995
v 1.5408722108353545 -0.63336191035845368 0.83595296980726463
v 1.4251107067055839 -0.70490645449946343 1.0232590180780452
v 1.5597542567888518 -0.72384676905614587 0.88192999883778522
v 1.4584675659303215 -0.56245188329332907 0.8798978265105315
v 1.4997092865900963 -0.76095660149245115 0.97908480147284571
v 1.397548116706671 -0.60010217348946848 0.97846756593032147
v 1.3642512823988557 -1.0957615041297708 1.1217316351420827
v 1.3642512823988557 -0.86423849587022916 1.1217316351420827
v 1.4389772911339507 -1.0400449701987553 1.0773512343254938
v 1.2757092182593699 -1.0409194492236504 1.1756070447699014
v 1.4389772911339507 -0.91995502980124466 1.0773512343254938
v 1.2757092182593699 -0.91908055077634943 1.1756070447699014
v 1.6571321317124084 -0.97999999999999998 0.20151704202315035
v 1.7129247726480776 -0.97999999999999998 0.39791534082555102
v 1.6639854044523961 -0.88257502519947217 0.2349106928199316
v 1.6639854044523961 -1.0774249748005278 0.2349106928199316
v 1.6571321317124084 -0.97999999999999998 0.79848295797684965
v 1.7129247726480776 -0.97999999999999998 0.60208465917444898
v 1.6639854044523961 -0.88257502519947217 0.7650893071800684
v 1.6639854044523961 -1.0774249748005278 0.7650893071800684
v 1.6393448278993921 -0.69422133466518177 0.32337907156350104
v 1.7108893720404019 -0.88152738293596244 0.43914057569327192
v 1.6580206896414995 -0.78457876451229147 0.27706842947100824
v 1.6556070447699014 -0.68429078174063007 0.43908055077634944
v 1.6951305220778048 -0.88173356714735218 0.33711339966976361
v 1.6393448278993921 -1.2657786653348182 0.32337907156350104
v 1.7108893720404019 -1.0784726170640375 0.43914057569327192
v 1.6580206896414995 -1.1754212354877085 0.27706842947100824
v 1.6556070447699014 -1.2757092182593699 0.43908055077634944
v 1.6951305220778048 -1.0782664328526479 0.33711339966976361
v 1.6393448278993921 -0.69422133466518177 0.67662092843649901
v 1.7108893720404019 -0.88152738293596244 0.56085942430672808
v 1.6580206896414995 -0.78457876451229147 0.72293157052899182
v 1.6556070447699014 -0.68429078174063007 0.56091944922365056
v 1.6951305220778048 -0.88173356714735218 0.66288660033023639
v 1.6932573349660407 -0.78286052116042004 0.5
v 1.6393448278993921 -1.2657786653348182 0.67662092843649901
v 1.7108893720404019 -1.0784726170640375 0.56085942430672808
v 1.6580206896414995 -1.1754212354877085 0.72293157052899182
v 1.6556070447699014 -1.2757092182593699 0.56091944922365056
v 1.6951305220778048 -1.0782664328526479 0.66288660033023639
v 1.6932573349660407 -1.1771394788395799 0.5
v 0.52442490455347635 -1.5600438513907786 0.43999614285195537
v 0.55727377223957553 -1.5665604296518683 0.34236307941964395
v 0.64404703019273535 -1.5408722108353545 0.15336191035845376
v 0.45674098192195489 -1.4251107067055837 0.2249064544994635
v 0.59807000116221487 -1.5597542567888518 0.24384676905614588
v 0.50091519852715416 -1.4997092865900965 0.28095660149245116
v 0.88291171967837045 -1.3384868151248943 -0.14004770853882331
v 0.69612583781306459 -1.2575285399338751 -0.12449449122056866
v 0.82236307941964393 -1.4027262277604244 -0.086560429651868165
v 0.88257502519947217 -1.2450893071800684 -0.18398540445239608
v 0.70490645449946343 -1.5032590180780452 0.054889293294416164
v 0.63336191035845368 -1.3159529698072645 -0.060872210835354545
v 0.76095660149245115 -1.4590848014728457 -0.019709286590096409
v 0.60010217348946848 -1.4584675659303215 0.082451883293329087
v 0.72384676905614587 -1.3619299988377853 -0.07975425678885173
v 0.88152738293596244 -1.0408594243067282 -0.23088937204040194
v 0.88173356714735218 -1.1428866003302365 -0.21513052207780492
v 0.78457876451229147 -1.2029315705289918 -0.17802068964149964
v 0.50153243406967851 -1.397548116706671 0.12010217348946856
v 0.56245188329332907 -1.3598978265105315 0.021532434069678585
v 0.52442490455347635 -1.5600438513907786 0.56000385714804457
v 0.55727377223957553 -1.5665604296518683 0.65763692058035605
v 0.45984879743904783 -1.5063484838720402 0.5
v 0.64404703019273535 -1.5408722108353545 0.84663808964154619
v 0.45674098192195489 -1.4251107067055837 0.77509354550053655
v 0.59807000116221487 -1.5597542567888518 0.75615323094385412
v 0.50091519852715416 -1.4997092865900965 0.71904339850754884
v 0.88291171967837045 -1.3384868151248943 1.1400477085388232
v 0.69612583781306459 -1.2575285399338751 1.1244944912205685
v 0.82236307941964393 -1.4027262277604244 1.0865604296518683
v 0.88257502519947217 -1.2450893071800684 1.1839854044523961
v 0.70490645449946343 -1.5032590180780452 0.94511070670558384
v 0.63336191035845368 -1.3159529698072645 1.0608722108353545
v 0.76095660149245115 -1.4590848014728457 1.0197092865900963
v 0.60010217348946848 -1.4584675659303215 0.91754811670667091
v 0.72384676905614587 -1.3619299988377853 1.0797542567888518
v 0.88152738293596244 -1.0408594243067282 1.2308893720404019
v 0.88173356714735218 -1.1428866003302365 1.2151305220778048
v 0.78457876451229147 -1.2029315705289918 1.1780206896414995
v 0.50153243406967851 -1.397548116706671 0.8798978265105315
v 0.56245188329332907 -1.3598978265105315 0.97846756593032147
f 22 343 323
f 325 265 322
f 322 84 325
f 273 281 279
f 283 275 286
f 22 323 337
f 369 638 625
f 58 235 209
f 271 54 264
f 325 84 346
f 346 323 343
f 346 84 323
f 276 274 265
f 199 54 271
f 203 54 199
f 13 209 232
f 232 209 235
f 98 90 100
f 190 1 121
f 192 190 121
f 571 573 409
f 450 573 571
f 459 457 451
f 354 455 445
f 445 455 458
f 451 457 371
f 479 383 477
f 120 301 10
f 292 274 295
f 295 314 316
f 293 313 21
f 293 316 313
f 300 290 298
f 10 301 278
f 315 279 75
f 75 279 281
f 280 278 75
f 286 275 74
f 74 276 286
f 274 276 74
f 275 314 74
f 295 274 74
f 74 314 295
f 324 322 253
f 84 322 324
f 273 279 20
f 20 277 273
f 275 283 20
f 20 283 277
f 312 279 315
f 312 314 275
f 275 20 312
f 312 20 279
f 76 283 286
f 277 283 287
f 287 76 285
f 283 76 287
f 224 244 247
f 17 244 224
f 152 42 154
f 511 521 394
f 22 337 327
f 327 337 341
f 271 264 272
f 272 264 70
f 263 70 268
f 263 272 70
f 267 72 285
f 267 263 268
f 19 263 267
f 15 331 201
f 55 201 333
f 333 201 331
f 269 331 15
f 15 199 269
f 269 199 271
f 202 199 15
f 203 199 202
f 202 216 56
f 218 216 59
f 380 658 469
f 469 658 656
f 386 489 493
f 382 474 491
f 491 386 493
f 667 664 656
f 210 212 204
f 58 212 210
f 204 208 16
f 16 210 204
f 243 210 16
f 23 100 90
f 100 23 95
f 339 329 341
f 328 330 85
f 341 329 85
f 85 327 341
f 330 327 85
f 85 326 328
f 329 326 85
f 1 190 249
f 249 66 251
f 239 237 64
f 225 52 239
f 417 609 607
f 611 417 608
f 608 417 623
f 580 411 590
f 589 571 409
f 375 573 450
f 450 459 375
f 375 459 451
f 457 459 377
f 458 455 377
f 377 455 457
f 450 571 356
f 462 460 378
f 456 459 450
f 450 356 456
f 456 356 461
f 456 377 459
f 689 682 686
f 689 686 434
f 448 446 441
f 676 654 674
f 674 654 348
f 348 436 440
f 440 674 348
f 675 674 440
f 457 455 439
f 439 371 457
f 439 455 354
f 394 521 512
f 512 510 394
f 531 529 520
f 481 517 359
f 359 489 481
f 415 596 600
f 353 602 583
f 557 602 353
f 569 353 583
f 503 508 509
f 503 477 383
f 383 508 503
f 507 502 509
f 507 529 526
f 583 602 605
f 594 411 580
f 594 414 593
f 298 290 26
f 26 97 298
f 119 291 32
f 32 179 119
f 185 120 10
f 265 274 6
f 253 322 6
f 6 322 265
f 274 292 6
f 6 292 253
f 315 317 82
f 82 316 314
f 82 312 315
f 314 312 82
f 82 317 313
f 313 316 82
f 307 293 21
f 310 293 307
f 78 293 310
f 316 293 78
f 78 292 295
f 295 316 78
f 304 317 315
f 304 278 301
f 315 75 304
f 304 75 278
f 285 76 282
f 282 267 285
f 19 267 282
f 434 686 694
f 55 333 321
f 320 330 328
f 83 330 320
f 328 52 320
f 246 210 243
f 246 235 58
f 58 210 246
f 63 232 235
f 64 242 238
f 17 224 238
f 626 420 624
f 624 420 627
f 627 420 641
f 641 625 638
f 641 420 625
f 17 238 228
f 228 238 242
f 559 615 612
f 612 614 558
f 636 420 626
f 625 420 636
f 546 390 499
f 632 422 634
f 634 636 626
f 422 636 634
f 401 545 547
f 401 548 546
f 319 330 83
f 319 327 330
f 22 327 319
f 432 678 680
f 426 654 676
f 348 654 468
f 380 470 468
f 468 436 348
f 468 470 436
f 15 201 213
f 213 202 15
f 216 202 213
f 213 59 216
f 493 385 486
f 486 491 493
f 382 491 486
f 479 371 485
f 371 439 485
f 484 385 493
f 484 489 359
f 493 489 484
f 488 472 490
f 490 386 488
f 386 491 488
f 488 491 474
f 656 664 358
f 358 469 656
f 664 472 358
f 474 469 358
f 472 488 358
f 358 488 474
f 660 471 662
f 664 667 429
f 429 667 673
f 673 665 429
f 429 665 668
f 672 667 427
f 427 658 659
f 659 657 427
f 656 658 427
f 427 667 656
f 247 245 226
f 226 245 57
f 207 57 217
f 218 59 214
f 214 59 217
f 214 208 218
f 214 16 208
f 243 16 206
f 206 245 243
f 57 245 206
f 16 214 206
f 217 57 206
f 206 214 217
f 525 511 394
f 495 524 387
f 397 525 524
f 58 209 211
f 663 494 660
f 387 494 663
f 128 23 90
f 121 1 89
f 89 95 23
f 79 300 298
f 251 66 258
f 1 249 93
f 93 249 251
f 93 89 1
f 95 89 93
f 259 261 191
f 259 326 329
f 329 339 69
f 69 259 329
f 261 259 69
f 69 339 260
f 191 261 51
f 190 192 51
f 194 52 328
f 328 326 194
f 237 239 194
f 194 239 52
f 261 69 262
f 262 69 260
f 230 242 240
f 237 196 240
f 64 237 240
f 240 242 64
f 240 53 230
f 196 53 240
f 178 184 182
f 182 184 49
f 610 417 607
f 623 417 610
f 610 621 623
f 414 621 610
f 611 608 601
f 601 608 368
f 368 606 601
f 603 368 619
f 368 608 619
f 619 608 623
f 619 622 603
f 613 368 603
f 613 606 368
f 617 606 613
f 603 616 613
f 563 556 564
f 388 556 563
f 298 97 296
f 296 79 298
f 299 79 296
f 178 105 176
f 176 105 3
f 119 179 176
f 176 3 119
f 109 114 9
f 140 132 36
f 36 131 140
f 138 132 140
f 28 174 170
f 104 28 102
f 102 91 104
f 2 91 102
f 28 170 102
f 117 114 31
f 580 590 587
f 600 596 587
f 374 446 448
f 448 447 374
f 374 445 458
f 447 445 374
f 444 460 462
f 462 373 444
f 688 693 432
f 688 685 434
f 434 694 688
f 691 435 692
f 692 684 691
f 582 594 593
f 411 594 582
f 413 590 588
f 413 589 600
f 600 587 413
f 413 587 590
f 479 477 438
f 451 371 438
f 438 371 479
f 588 590 581
f 581 590 411
f 581 376 588
f 586 413 588
f 589 413 586
f 571 589 586
f 586 356 571
f 464 378 461
f 462 378 464
f 463 378 460
f 460 446 463
f 463 374 458
f 446 374 463
f 687 689 434
f 434 685 687
f 687 444 373
f 685 444 687
f 692 682 433
f 682 689 433
f 433 684 692
f 432 680 679
f 679 680 675
f 676 674 431
f 431 674 675
f 675 680 431
f 448 441 372
f 441 679 372
f 675 440 372
f 372 679 675
f 442 447 448
f 442 440 436
f 448 372 442
f 442 372 440
f 476 470 380
f 380 469 476
f 476 469 474
f 476 474 382
f 436 470 370
f 447 442 370
f 370 442 436
f 359 517 506
f 506 517 520
f 520 529 393
f 509 508 393
f 393 507 509
f 529 507 393
f 393 506 520
f 508 506 393
f 387 524 513
f 513 494 387
f 510 494 513
f 524 525 513
f 394 510 513
f 513 525 394
f 519 512 521
f 384 512 519
f 519 481 384
f 517 481 519
f 480 512 384
f 384 482 480
f 510 512 480
f 480 482 471
f 489 386 492
f 492 482 384
f 492 386 490
f 490 482 492
f 384 481 492
f 492 481 489
f 521 511 518
f 511 363 518
f 526 529 398
f 529 531 398
f 576 366 566
f 566 366 572
f 598 415 600
f 600 589 598
f 409 572 598
f 598 589 409
f 646 630 421
f 421 629 646
f 644 630 646
f 642 558 644
f 576 410 651
f 362 507 526
f 502 507 362
f 577 502 575
f 575 410 577
f 502 362 575
f 575 362 637
f 580 587 367
f 367 587 596
f 584 367 596
f 618 367 584
f 419 621 618
f 623 621 419
f 419 619 623
f 622 619 419
f 592 621 414
f 414 594 592
f 592 594 580
f 618 621 592
f 580 367 592
f 592 367 618
f 96 26 290
f 107 26 96
f 96 105 107
f 3 105 96
f 97 26 115
f 115 26 107
f 115 117 31
f 107 117 115
f 50 187 186
f 186 187 179
f 179 32 186
f 186 32 120
f 120 185 186
f 21 313 302
f 313 317 302
f 288 96 290
f 3 96 288
f 288 291 119
f 119 3 288
f 67 308 254
f 254 338 67
f 67 324 253
f 67 338 324
f 253 292 294
f 310 308 294
f 294 78 310
f 292 78 294
f 294 67 253
f 308 67 294
f 260 18 250
f 250 262 260
f 66 262 250
f 250 258 66
f 291 305 303
f 303 32 291
f 301 120 303
f 120 32 303
f 336 338 254
f 260 339 336
f 336 18 260
f 254 18 336
f 324 338 340
f 84 324 340
f 323 84 340
f 340 337 323
f 284 282 76
f 286 276 284
f 284 76 286
f 55 321 200
f 200 207 55
f 318 321 83
f 83 320 318
f 5 200 318
f 318 200 321
f 193 320 52
f 193 52 225
f 5 318 193
f 193 318 320
f 247 244 65
f 65 245 247
f 65 246 243
f 243 245 65
f 232 63 234
f 233 244 17
f 64 238 241
f 241 239 64
f 225 239 241
f 241 238 224
f 547 545 535
f 627 641 639
f 639 392 627
f 230 227 62
f 62 242 230
f 62 228 242
f 231 228 62
f 13 232 148
f 232 234 148
f 564 556 403
f 615 559 405
f 46 170 175
f 175 174 47
f 175 170 174
f 416 616 603
f 603 622 416
f 416 605 602
f 622 605 416
f 604 602 557
f 614 616 604
f 604 416 602
f 616 416 604
f 418 615 617
f 418 616 614
f 612 615 418
f 418 614 612
f 617 613 418
f 418 613 616
f 404 558 614
f 404 604 557
f 614 604 404
f 404 644 558
f 557 630 404
f 630 644 404
f 369 625 633
f 625 636 633
f 633 636 422
f 422 647 633
f 646 629 643
f 643 633 647
f 643 629 369
f 369 633 643
f 546 499 543
f 543 401 546
f 545 401 543
f 496 563 561
f 388 563 496
f 165 158 166
f 166 158 43
f 43 156 166
f 544 537 548
f 544 401 547
f 548 401 544
f 400 542 539
f 539 554 400
f 539 542 532
f 550 554 539
f 547 535 399
f 552 554 402
f 402 554 550
f 325 346 344
f 272 263 270
f 270 263 19
f 271 272 73
f 73 269 271
f 272 270 73
f 73 270 345
f 659 658 655
f 655 468 654
f 655 426 659
f 654 426 655
f 655 658 380
f 380 468 655
f 331 269 334
f 345 347 334
f 269 73 334
f 334 73 345
f 332 347 343
f 332 343 22
f 22 319 332
f 215 201 55
f 215 213 201
f 55 207 215
f 59 213 215
f 217 59 215
f 215 207 217
f 382 486 473
f 483 486 385
f 385 485 483
f 483 485 439
f 483 473 486
f 483 439 354
f 354 473 483
f 487 383 479
f 385 484 487
f 479 485 487
f 487 485 385
f 381 662 471
f 490 472 381
f 381 482 490
f 471 482 381
f 664 429 666
f 662 381 666
f 668 662 666
f 666 429 668
f 666 472 664
f 666 381 472
f 57 207 205
f 205 226 57
f 205 200 5
f 207 200 205
f 511 525 523
f 523 363 511
f 523 397 552
f 525 397 523
f 360 495 669
f 428 663 660
f 660 662 428
f 428 662 668
f 23 128 123
f 123 89 23
f 121 89 123
f 128 129 123
f 311 79 299
f 299 309 311
f 14 196 237
f 191 196 14
f 237 194 14
f 14 259 191
f 326 259 14
f 14 194 326
f 252 249 190
f 261 262 252
f 190 51 252
f 252 51 261
f 66 249 252
f 252 262 66
f 198 53 196
f 198 51 192
f 192 197 198
f 198 197 53
f 198 196 191
f 191 51 198
f 230 53 195
f 53 197 195
f 195 197 122
f 195 227 230
f 195 122 11
f 11 227 195
f 139 146 144
f 144 146 39
f 33 129 122
f 122 197 33
f 121 123 33
f 33 123 129
f 33 192 121
f 33 197 192
f 181 184 177
f 49 184 181
f 9 114 106
f 114 117 106
f 47 183 188
f 189 183 49
f 49 181 189
f 593 414 591
f 414 610 591
f 591 467 593
f 591 610 607
f 607 357 591
f 357 467 591
f 41 154 150
f 299 296 255
f 48 187 177
f 177 184 48
f 179 187 48
f 48 176 179
f 48 184 178
f 178 176 48
f 110 108 30
f 30 108 111
f 111 108 98
f 7 90 98
f 98 108 7
f 103 174 28
f 103 109 9
f 30 109 112
f 104 110 112
f 112 110 30
f 112 28 104
f 112 103 28
f 109 103 112
f 130 36 132
f 132 91 130
f 130 91 2
f 150 36 130
f 153 36 150
f 150 154 153
f 154 42 153
f 131 36 153
f 169 170 46
f 46 171 169
f 2 102 169
f 169 102 170
f 355 444 685
f 355 441 446
f 355 446 460
f 460 444 355
f 690 691 467
f 690 467 357
f 573 375 567
f 477 503 501
f 579 581 411
f 411 582 579
f 579 466 350
f 582 466 579
f 350 443 452
f 376 581 452
f 452 579 350
f 581 579 452
f 356 586 453
f 461 356 453
f 588 376 453
f 453 586 588
f 453 464 461
f 376 464 453
f 465 456 461
f 465 463 458
f 458 377 465
f 377 456 465
f 461 378 465
f 378 463 465
f 373 443 683
f 683 687 373
f 689 687 683
f 683 433 689
f 677 679 441
f 685 688 677
f 677 688 432
f 432 679 677
f 677 355 685
f 441 355 677
f 354 445 437
f 437 473 354
f 437 445 447
f 447 370 437
f 359 506 478
f 478 484 359
f 478 508 383
f 478 506 508
f 383 487 478
f 478 487 484
f 396 531 520
f 396 519 521
f 521 518 396
f 396 518 531
f 520 517 396
f 517 519 396
f 660 494 351
f 351 471 660
f 351 494 510
f 351 480 471
f 510 480 351
f 531 518 527
f 527 518 363
f 527 398 531
f 576 566 578
f 578 410 576
f 577 410 578
f 408 597 570
f 570 650 408
f 631 569 408
f 408 650 631
f 596 415 599
f 415 597 599
f 599 584 596
f 595 597 415
f 415 598 595
f 570 597 595
f 595 598 572
f 595 366 570
f 572 366 595
f 628 421 630
f 557 353 628
f 628 630 557
f 631 421 628
f 628 569 631
f 353 569 628
f 652 421 631
f 631 650 652
f 652 650 425
f 629 421 652
f 642 644 424
f 424 644 646
f 646 643 424
f 424 643 647
f 425 651 653
f 648 650 570
f 576 651 648
f 648 651 425
f 425 650 648
f 648 366 576
f 570 366 648
f 640 651 410
f 410 575 640
f 640 575 637
f 640 653 651
f 627 392 504
f 504 392 516
f 504 624 627
f 516 392 528
f 526 398 528
f 637 362 505
f 505 639 637
f 392 639 505
f 505 362 526
f 526 528 505
f 505 528 392
f 620 605 622
f 622 419 620
f 620 419 618
f 618 584 620
f 289 302 305
f 21 302 289
f 254 308 306
f 306 18 254
f 317 304 80
f 80 303 305
f 80 302 317
f 305 302 80
f 80 304 301
f 301 303 80
f 87 339 341
f 87 340 338
f 87 336 339
f 338 336 87
f 341 337 87
f 337 340 87
f 71 276 265
f 71 284 276
f 71 265 325
f 325 344 71
f 220 233 17
f 17 228 220
f 220 228 231
f 231 60 220
f 248 63 235
f 248 233 63
f 235 246 248
f 244 233 248
f 248 65 244
f 246 65 248
f 63 233 236
f 222 234 236
f 236 234 63
f 236 60 222
f 236 220 60
f 233 220 236
f 61 224 247
f 61 241 224
f 247 226 61
f 225 241 61
f 389 634 626
f 389 535 545
f 125 227 11
f 145 143 39
f 145 134 37
f 37 134 161
f 161 157 37
f 140 131 137
f 137 131 12
f 38 138 140
f 38 146 139
f 140 137 38
f 38 137 146
f 43 157 163
f 163 156 43
f 163 161 44
f 157 161 163
f 37 157 133
f 155 157 43
f 43 158 155
f 4 133 155
f 155 133 157
f 44 168 160
f 160 163 44
f 156 163 160
f 162 42 167
f 162 168 44
f 165 148 40
f 40 148 234
f 40 234 222
f 40 158 165
f 400 538 540
f 164 148 165
f 13 148 164
f 552 397 541
f 541 554 552
f 400 554 541
f 541 538 400
f 365 559 612
f 612 558 365
f 365 558 642
f 642 562 365
f 632 561 635
f 635 422 632
f 635 647 422
f 173 175 47
f 388 496 500
f 500 496 499
f 361 561 632
f 361 496 561
f 361 543 499
f 499 496 361
f 165 166 45
f 364 539 532
f 550 539 364
f 532 537 364
f 537 544 364
f 553 399 536
f 553 402 550
f 552 402 549
f 549 523 552
f 363 523 549
f 342 270 19
f 345 270 342
f 88 347 345
f 88 344 346
f 88 346 343
f 343 347 88
f 345 342 88
f 88 342 344
f 347 332 86
f 86 334 347
f 86 333 331
f 331 334 86
f 475 370 470
f 382 473 475
f 475 437 370
f 473 437 475
f 475 476 382
f 470 476 475
f 387 663 670
f 670 495 387
f 670 669 495
f 668 665 661
f 661 428 668
f 663 428 671
f 430 670 671
f 671 670 663
f 428 661 671
f 300 79 297
f 79 311 297
f 297 289 300
f 297 311 307
f 297 307 21
f 21 289 297
f 81 308 310
f 81 311 309
f 81 306 308
f 309 306 81
f 310 307 81
f 307 311 81
f 11 122 127
f 122 129 127
f 35 129 128
f 139 144 35
f 35 127 129
f 144 127 35
f 180 106 182
f 180 182 49
f 49 183 180
f 9 106 180
f 29 106 117
f 107 105 29
f 29 117 107
f 182 106 29
f 178 182 29
f 29 105 178
f 149 41 150
f 150 130 149
f 149 130 2
f 171 41 149
f 2 169 149
f 149 169 171
f 251 258 257
f 8 296 97
f 8 255 296
f 108 110 92
f 92 7 108
f 114 109 118
f 118 111 116
f 31 114 118
f 118 116 31
f 118 109 30
f 30 111 118
f 90 7 126
f 126 128 90
f 139 35 126
f 126 35 128
f 174 103 172
f 172 183 47
f 47 174 172
f 172 180 183
f 172 103 9
f 9 180 172
f 379 691 684
f 684 466 379
f 467 691 379
f 593 467 379
f 379 582 593
f 379 466 582
f 574 566 572
f 574 572 409
f 409 573 574
f 573 567 574
f 449 375 451
f 449 567 375
f 451 438 449
f 565 567 449
f 391 503 509
f 391 501 503
f 509 502 391
f 391 502 577
f 454 464 376
f 376 452 454
f 462 464 454
f 454 452 443
f 454 373 462
f 454 443 373
f 681 443 350
f 681 683 443
f 433 683 681
f 684 433 681
f 681 466 684
f 350 466 681
f 515 527 363
f 363 549 515
f 530 395 516
f 398 527 530
f 530 515 395
f 527 515 530
f 516 528 530
f 530 528 398
f 407 578 566
f 566 574 407
f 407 567 565
f 407 574 567
f 565 501 568
f 577 578 568
f 568 391 577
f 501 391 568
f 568 407 565
f 578 407 568
f 584 599 412
f 412 620 584
f 583 605 412
f 605 620 412
f 585 569 583
f 585 599 597
f 585 408 569
f 597 408 585
f 583 412 585
f 585 412 599
f 642 424 645
f 645 424 647
f 645 562 642
f 647 635 645
f 629 652 649
f 649 653 638
f 649 652 425
f 425 653 649
f 649 638 369
f 369 629 649
f 423 639 641
f 653 640 423
f 423 641 638
f 638 653 423
f 637 639 423
f 423 640 637
f 624 504 352
f 300 289 77
f 290 300 77
f 77 288 290
f 77 289 305
f 77 305 291
f 291 288 77
f 256 250 18
f 18 306 256
f 256 306 309
f 258 250 256
f 282 284 266
f 284 71 266
f 19 282 266
f 266 342 19
f 266 71 344
f 344 342 266
f 225 61 223
f 223 193 225
f 5 193 223
f 223 61 226
f 223 205 5
f 226 205 223
f 34 125 143
f 143 125 141
f 39 143 141
f 141 144 39
f 141 127 144
f 141 125 11
f 11 127 141
f 12 134 142
f 142 137 12
f 146 137 142
f 134 145 142
f 39 146 142
f 142 145 39
f 151 153 42
f 42 162 151
f 131 153 151
f 12 131 151
f 44 161 159
f 159 162 44
f 159 161 134
f 159 151 162
f 159 134 12
f 12 151 159
f 158 40 147
f 4 155 147
f 147 155 158
f 147 40 222
f 522 397 524
f 522 541 397
f 524 495 522
f 538 541 522
f 360 538 522
f 522 495 360
f 559 365 555
f 555 560 559
f 403 560 555
f 555 365 562
f 555 562 564
f 564 403 555
f 543 361 498
f 545 543 498
f 498 389 545
f 498 361 632
f 632 634 498
f 634 389 498
f 550 364 534
f 534 553 550
f 399 553 534
f 534 364 544
f 534 544 547
f 547 399 534
f 536 395 551
f 551 549 402
f 395 515 551
f 551 515 549
f 551 553 536
f 402 553 551
f 335 321 333
f 333 86 335
f 335 86 332
f 83 321 335
f 335 319 83
f 335 332 319
f 25 93 251
f 251 257 25
f 95 93 25
f 299 255 68
f 255 257 68
f 68 309 299
f 68 257 258
f 258 256 68
f 68 256 309
f 113 8 97
f 97 115 113
f 31 116 113
f 113 115 31
f 138 92 24
f 132 138 24
f 24 91 132
f 24 92 110
f 104 91 24
f 24 110 104
f 7 92 136
f 136 126 7
f 139 126 136
f 136 92 138
f 136 38 139
f 138 38 136
f 477 501 349
f 349 438 477
f 349 501 565
f 565 449 349
f 349 449 438
f 406 563 564
f 406 645 635
f 561 563 406
f 406 635 561
f 564 562 406
f 562 645 406
f 536 399 533
f 533 399 535
f 626 624 497
f 624 352 497
f 497 389 626
f 535 389 497
f 497 533 535
f 352 533 497
f 514 504 516
f 514 352 504
f 516 395 514
f 514 395 536
f 536 533 514
f 514 533 352
f 124 133 4
f 227 125 229
f 125 34 229
f 229 62 227
f 231 62 229
f 100 95 101
f 95 25 101
f 99 113 116
f 8 113 99
f 219 124 4
f 222 60 219
f 219 147 222
f 4 147 219
f 135 34 143
f 135 124 34
f 143 145 135
f 133 124 135
f 135 145 37
f 37 133 135
f 34 124 221
f 221 229 34
f 231 229 221
f 124 219 221
f 221 60 231
f 221 219 60
f 116 111 27
f 100 101 27
f 98 100 27
f 27 111 98
f 27 99 116
f 101 99 27
f 8 99 94
f 255 8 94
f 94 101 25
f 94 99 101
f 94 257 255
f 94 25 257
f 167 42 390
f 390 546 167
f 693 72 432
f 285 72 693
f 692 281 682
f 682 281 273
f 277 686 682
f 273 277 682
f 75 281 692
f 692 435 75
f 432 72 267
f 267 678 432
f 202 657 659
f 202 659 203
f 218 673 667
f 672 216 667
f 667 216 218
f 185 357 607
f 10 357 185
f 694 686 277
f 277 287 694
f 499 390 42
f 42 152 499
f 678 267 680
f 680 267 268
f 426 264 54
f 676 264 426
f 203 659 426
f 426 54 203
f 665 673 218
f 218 208 665
f 427 216 672
f 56 216 427
f 657 202 427
f 427 202 56
f 50 417 187
f 187 417 611
f 601 187 611
f 177 187 601
f 285 693 688
f 688 287 285
f 688 694 287
f 691 75 435
f 280 75 691
f 431 264 676
f 70 264 431
f 431 680 268
f 268 70 431
f 186 417 50
f 609 417 186
f 186 185 607
f 607 609 186
f 556 171 403
f 403 171 46
f 166 156 532
f 532 542 166
f 669 209 13
f 13 360 669
f 177 601 181
f 181 601 606
f 615 405 188
f 188 405 47
f 615 188 189
f 617 615 189
f 189 188 183
f 189 181 606
f 189 606 617
f 41 171 556
f 41 556 388
f 280 691 690
f 690 278 280
f 690 357 10
f 10 278 690
f 160 168 548
f 548 537 160
f 532 156 160
f 160 537 532
f 167 546 162
f 546 548 162
f 548 168 162
f 164 540 538
f 165 540 164
f 164 360 13
f 164 538 360
f 47 405 173
f 173 405 559
f 560 173 559
f 175 173 560
f 560 403 46
f 46 175 560
f 500 41 388
f 154 41 500
f 500 499 152
f 500 152 154
f 45 540 165
f 400 540 45
f 45 166 542
f 45 542 400
f 58 211 670
f 670 430 58
f 209 669 670
f 670 211 209
f 661 665 208
f 661 208 204
f 58 430 671
f 671 212 58
f 671 661 204
f 204 212 671
