v -2 -2 0.060000000000000026
v -2 -1.8999999999999999 0.046000000000000013
v -2 -1.8 0.032000000000000056
v -2 -1.7 0.018000000000000016
v -2 -1.6000000000000001 0.0040000000000000313
v -2 -1.2999999999999998 -0.038000000000000006
v -2 -1.1000000000000001 -0.065999999999999975
v -2 -0.79999999999999982 -0.10800000000000001
v -2 -0.69999999999999996 -0.122
v -2 -0.59999999999999987 -0.13600000000000001
v -2 -0.5 -0.14999999999999999
v -2 -0.29999999999999982 -0.17800000000000002
v -2 -0.19999999999999996 -0.192
v -2 -0.099999999999999867 -0.20600000000000002
v -2 0 -0.22
v -2 0.20000000000000018 -0.24800000000000003
v -2 0.30000000000000027 -0.26200000000000007
v -2 0.40000000000000036 -0.27600000000000008
v -2 0.5 -0.29000000000000004
v -2 0.90000000000000036 -0.34600000000000009
v -2 1 -0.35999999999999999
v -2 1.4000000000000004 -0.41600000000000004
v -2 1.5 -0.43000000000000005
v -2 1.9000000000000004 -0.4860000000000001
v -2 2 -0.5
v -1.8999999999999999 -2 0.071000000000000035
v -1.8999999999999999 -1.8999999999999999 0.057000000000000023
v -1.8999999999999999 -1.8 0.043000000000000066
v -1.8999999999999999 -1.7 0.029000000000000026
v -1.8999999999999999 -1.6000000000000001 0.015000000000000041
v -1.8999999999999999 -1.2999999999999998 -0.026999999999999996
v -1.8999999999999999 -1.1000000000000001 -0.054999999999999966
v -1.8999999999999999 -0.79999999999999982 -0.097000000000000003
v -1.8999999999999999 -0.69999999999999996 -0.11099999999999999
v -1.8999999999999999 -0.59999999999999987 -0.125
v -1.8999999999999999 -0.5 -0.13899999999999998
v -1.8999999999999999 -0.29999999999999982 -0.16700000000000001
v -1.8999999999999999 -0.19999999999999996 -0.18099999999999999
v -1.8999999999999999 -0.099999999999999867 -0.19500000000000001
v -1.8999999999999999 0 -0.20899999999999999
v -1.8999999999999999 0.20000000000000018 -0.23700000000000002
v -1.8999999999999999 0.30000000000000027 -0.25100000000000006
v -1.8999999999999999 0.40000000000000036 -0.26500000000000007
v -1.8999999999999999 0.5 -0.27900000000000003
v -1.8999999999999999 0.90000000000000036 -0.33500000000000008
v -1.8999999999999999 1 -0.34899999999999998
v -1.8999999999999999 1.4000000000000004 -0.40500000000000003
v -1.8999999999999999 1.5 -0.41900000000000004
v -1.8999999999999999 1.9000000000000004 -0.47500000000000009
v -1.8999999999999999 2 -0.48899999999999999
v -1.8 -2 0.082000000000000017
v -1.8 -1.8999999999999999 0.068000000000000005
v -1.8 -1.8 0.054000000000000048
v -1.8 -1.7 0.040000000000000008
v -1.8 -1.6000000000000001 0.026000000000000023
v -1.8 -1.2999999999999998 -0.016000000000000014
v -1.8 -1.1000000000000001 -0.043999999999999984
v -1.8 -0.79999999999999982 -0.086000000000000021
v -1.8 -0.69999999999999996 -0.10000000000000001
v -1.8 -0.59999999999999987 -0.11400000000000002
v -1.8 -0.5 -0.128
v -1.8 -0.29999999999999982 -0.15600000000000003
v -1.8 -0.19999999999999996 -0.17000000000000001
v -1.8 -0.099999999999999867 -0.18400000000000002
v -1.8 0 -0.19800000000000001
v -1.8 0.30000000000000027 -0.24000000000000005
v -1.8 0.40000000000000036 -0.25400000000000006
v -1.8 0.5 -0.26800000000000002
v -1.8 0.90000000000000036 -0.32400000000000007
v -1.8 1 -0.33800000000000002
v -1.8 1.4000000000000004 -0.39400000000000007
v -1.8 1.5 -0.40800000000000003
v -1.8 1.9000000000000004 -0.46400000000000008
v -1.8 2 -0.47800000000000004
v -1.7 -2 0.093000000000000027
v -1.7 -1.8999999999999999 0.079000000000000015
v -1.7 -1.8 0.065000000000000058
v -1.7 -1.7 0.051000000000000018
v -1.7 -1.6000000000000001 0.037000000000000033
v -1.7 -1.2999999999999998 -0.0050000000000000044
v -1.7 -1.1000000000000001 -0.032999999999999974
v -1.7 -0.79999999999999982 -0.075000000000000011
v -1.7 -0.69999999999999996 -0.088999999999999996
v -1.7 -0.59999999999999987 -0.10300000000000001
v -1.7 -0.5 -0.11699999999999999
v -1.7 -0.29999999999999982 -0.14500000000000002
v -1.7 -0.19999999999999996 -0.159
v -1.7 -0.099999999999999867 -0.17300000000000001
v -1.7 0 -0.187
v -1.7 0.40000000000000036 -0.24300000000000005
v -1.7 0.5 -0.25700000000000001
v -1.7 0.90000000000000036 -0.31300000000000006
v -1.7 1 -0.32700000000000001
v -1.7 1.4000000000000004 -0.38300000000000006
v -1.7 1.5 -0.39700000000000002
v -1.7 1.9000000000000004 -0.45300000000000007
v -1.7 2 -0.46700000000000003
v -1.6000000000000001 -2 0.10400000000000001
v -1.6000000000000001 -1.8999999999999999 0.089999999999999997
v -1.6000000000000001 -1.8 0.07600000000000004
v -1.6000000000000001 -1.7 0.062
v -1.6000000000000001 -1.6000000000000001 0.048000000000000015
v -1.6000000000000001 -1.2999999999999998 0.0059999999999999776
v -1.6000000000000001 -1.1000000000000001 -0.021999999999999992
v -1.6000000000000001 -0.79999999999999982 -0.064000000000000029
v -1.6000000000000001 -0.69999999999999996 -0.078000000000000014
v -1.6000000000000001 -0.59999999999999987 -0.092000000000000026
v -1.6000000000000001 -0.5 -0.10600000000000001
v -1.6000000000000001 -0.29999999999999982 -0.13400000000000004
v -1.6000000000000001 -0.19999999999999996 -0.14800000000000002
v -1.6000000000000001 -0.099999999999999867 -0.16200000000000003
v -1.6000000000000001 0 -0.17600000000000002
v -1.6000000000000001 0.40000000000000036 -0.23200000000000007
v -1.6000000000000001 0.5 -0.24600000000000002
v -1.6000000000000001 0.60000000000000009 -0.26000000000000001
v -1.6000000000000001 0.90000000000000036 -0.30200000000000005
v -1.6000000000000001 1 -0.31600000000000006
v -1.6000000000000001 1.4000000000000004 -0.37200000000000011
v -1.6000000000000001 1.5 -0.38600000000000001
v -1.6000000000000001 1.9000000000000004 -0.44200000000000006
v -1.6000000000000001 2 -0.45600000000000007
v -1.5 0.60000000000000009 -0.24900000000000003
v -1.5 0.70000000000000018 -0.26300000000000001
v -1.3999999999999999 0.60000000000000009 -0.23800000000000002
v -1.3999999999999999 0.70000000000000018 -0.252
v -1.2999999999999998 -2 0.13700000000000004
v -1.2999999999999998 -1.8999999999999999 0.12300000000000003
v -1.2999999999999998 -1.8 0.10900000000000007
v -1.2999999999999998 -1.7 0.095000000000000029
v -1.2999999999999998 -1.6000000000000001 0.081000000000000044
v -1.2999999999999998 -0.5 -0.072999999999999982
v -1.2999999999999998 -0.29999999999999982 -0.10100000000000001
v -1.2999999999999998 -0.19999999999999996 -0.11499999999999999
v -1.2999999999999998 -0.099999999999999867 -0.129
v -1.2999999999999998 0 -0.14299999999999999
v -1.2999999999999998 0.40000000000000036 -0.19900000000000004
v -1.2999999999999998 0.5 -0.21299999999999999
v -1.2999999999999998 0.70000000000000018 -0.24100000000000002
v -1.2999999999999998 0.80000000000000027 -0.255
v -1.2999999999999998 0.90000000000000036 -0.26900000000000002
v -1.2999999999999998 1 -0.28300000000000003
v -1.2999999999999998 1.4000000000000004 -0.33900000000000008
v -1.2999999999999998 1.5 -0.35299999999999998
v -1.2999999999999998 1.9000000000000004 -0.40900000000000003
v -1.2999999999999998 2 -0.42300000000000004
v -1.2 -2 0.14800000000000002
v -1.2 -1.8999999999999999 0.13400000000000001
v -1.2 -1.8 0.12000000000000005
v -1.2 -1.7 0.10600000000000001
v -1.2 -1.6000000000000001 0.092000000000000026
v -1.2 -0.29999999999999982 -0.090000000000000024
v -1.2 -0.19999999999999996 -0.10400000000000001
v -1.2 -0.099999999999999867 -0.11800000000000002
v -1.2 0 -0.13200000000000001
v -1.2 0.40000000000000036 -0.18800000000000006
v -1.2 0.5 -0.20200000000000001
v -1.2 0.80000000000000027 -0.24400000000000005
v -1.2 0.90000000000000036 -0.25800000000000006
v -1.2 1 -0.27200000000000002
v -1.2 1.5 -0.34200000000000003
v -1.2 1.9000000000000004 -0.39800000000000008
v -1.2 2 -0.41200000000000003
v -1.1000000000000001 -2 0.15900000000000003
v -1.1000000000000001 -1.8999999999999999 0.14500000000000002
v -1.1000000000000001 -1.8 0.13100000000000006
v -1.1000000000000001 -1.7 0.11700000000000001
v -1.1000000000000001 -0.29999999999999982 -0.079000000000000029
v -1.1000000000000001 -0.19999999999999996 -0.093000000000000013
v -1.1000000000000001 -0.099999999999999867 -0.10700000000000003
v -1.1000000000000001 0 -0.12100000000000001
v -1.1000000000000001 0.10000000000000009 -0.13500000000000004
v -1.1000000000000001 0.40000000000000036 -0.17700000000000007
v -1.1000000000000001 0.5 -0.191
v -1.1000000000000001 0.90000000000000036 -0.24700000000000005
v -1.1000000000000001 1 -0.26100000000000001
v -1.1000000000000001 1.4000000000000004 -0.31700000000000006
v -1.1000000000000001 1.5 -0.33100000000000002
v -1.1000000000000001 1.9000000000000004 -0.38700000000000007
v -1.1000000000000001 2 -0.40100000000000002
v -1 -1.7 0.128
v -1 0.10000000000000009 -0.12400000000000001
v -1 0.20000000000000018 -0.13800000000000004
v -0.89999999999999991 0.10000000000000009 -0.113
v -0.89999999999999991 0.20000000000000018 -0.12700000000000003
v -0.79999999999999982 -2 0.19200000000000006
v -0.79999999999999982 -1.8999999999999999 0.17800000000000005
v -0.79999999999999982 -1.8 0.16400000000000009
v -0.79999999999999982 -1.7 0.15000000000000002
v -0.79999999999999982 -1.6000000000000001 0.13600000000000007
v -0.79999999999999982 -0.099999999999999867 -0.073999999999999996
v -0.79999999999999982 0 -0.087999999999999981
v -0.79999999999999982 0.20000000000000018 -0.11600000000000001
v -0.79999999999999982 0.30000000000000027 -0.13000000000000003
v -0.79999999999999982 0.40000000000000036 -0.14400000000000004
v -0.79999999999999982 0.5 -0.15799999999999997
v -0.79999999999999982 0.90000000000000036 -0.21400000000000002
v -0.79999999999999982 1 -0.22799999999999998
v -0.79999999999999982 1.4000000000000004 -0.28400000000000003
v -0.79999999999999982 1.5 -0.29799999999999999
v -0.79999999999999982 1.9000000000000004 -0.35400000000000004
v -0.79999999999999982 2 -0.36799999999999999
v -0.69999999999999996 -2 0.20300000000000001
v -0.69999999999999996 -1.8999999999999999 0.189
v -0.69999999999999996 -1.8 0.17500000000000004
v -0.69999999999999996 -1.7 0.16100000000000003
v -0.69999999999999996 -1.6000000000000001 0.14700000000000002
v -0.69999999999999996 0 -0.076999999999999999
v -0.69999999999999996 0.20000000000000018 -0.10500000000000002
v -0.69999999999999996 0.30000000000000027 -0.11900000000000005
v -0.69999999999999996 0.40000000000000036 -0.13300000000000006
v -0.69999999999999996 0.5 -0.14700000000000002
v -0.69999999999999996 0.90000000000000036 -0.20300000000000007
v -0.69999999999999996 1 -0.21700000000000003
v -0.69999999999999996 1.4000000000000004 -0.27300000000000008
v -0.69999999999999996 1.5 -0.28700000000000003
v -0.69999999999999996 1.9000000000000004 -0.34300000000000008
v -0.69999999999999996 2 -0.35700000000000004
v -0.59999999999999987 -2 0.21400000000000002
v -0.59999999999999987 -1.8999999999999999 0.20000000000000001
v -0.59999999999999987 -1.8 0.18600000000000005
v -0.59999999999999987 -1.7 0.17200000000000004
v -0.59999999999999987 -1.6000000000000001 0.15800000000000003
v -0.59999999999999987 0.20000000000000018 -0.094000000000000014
v -0.59999999999999987 0.30000000000000027 -0.10800000000000004
v -0.59999999999999987 0.40000000000000036 -0.12200000000000005
v -0.59999999999999987 0.5 -0.13600000000000001
v -0.59999999999999987 0.90000000000000036 -0.19200000000000006
v -0.59999999999999987 1 -0.20600000000000002
v -0.59999999999999987 1.4000000000000004 -0.26200000000000007
v -0.59999999999999987 1.5 -0.27600000000000002
v -0.59999999999999987 1.9000000000000004 -0.33200000000000007
v -0.59999999999999987 2 -0.34600000000000003
v -0.5 -2 0.22500000000000003
v -0.5 -1.8999999999999999 0.21100000000000002
v -0.5 -1.8 0.19700000000000006
v -0.5 -1.7 0.18300000000000002
v -0.5 -1.6000000000000001 0.16900000000000004
v -0.5 0.30000000000000027 -0.097000000000000045
v -0.5 0.40000000000000036 -0.11100000000000006
v -0.5 0.5 -0.125
v -0.5 0.90000000000000036 -0.18100000000000005
v -0.5 1 -0.19500000000000001
v -0.5 1.4000000000000004 -0.25100000000000006
v -0.5 1.5 -0.26500000000000001
v -0.5 1.9000000000000004 -0.32100000000000006
v -0.5 2 -0.33500000000000002
v -0.29999999999999982 -2 0.24700000000000005
v -0.29999999999999982 -1.8999999999999999 0.23300000000000004
v -0.29999999999999982 -1.8 0.21900000000000008
v -0.29999999999999982 -1.7 0.20500000000000004
v -0.29999999999999982 -1.6000000000000001 0.19100000000000006
v -0.29999999999999982 -1.2999999999999998 0.14900000000000002
v -0.29999999999999982 0.40000000000000036 -0.089000000000000037
v -0.29999999999999982 0.5 -0.10299999999999998
v -0.29999999999999982 0.90000000000000036 -0.15900000000000003
v -0.29999999999999982 1 -0.17299999999999999
v -0.29999999999999982 1.4000000000000004 -0.22900000000000004
v -0.29999999999999982 1.5 -0.24299999999999999
v -0.29999999999999982 1.6000000000000001 -0.25700000000000001
v -0.29999999999999982 1.9000000000000004 -0.29900000000000004
v -0.29999999999999982 2 -0.313
v -0.19999999999999996 -2 0.25800000000000001
v -0.19999999999999996 -1.8999999999999999 0.24400000000000002
v -0.19999999999999996 -1.8 0.23000000000000007
v -0.19999999999999996 -1.7 0.21600000000000003
v -0.19999999999999996 -1.6000000000000001 0.20200000000000004
v -0.19999999999999996 -1.2999999999999998 0.16
v -0.19999999999999996 -1.1000000000000001 0.13200000000000003
v -0.19999999999999996 0.40000000000000036 -0.078000000000000055
v -0.19999999999999996 0.5 -0.091999999999999998
v -0.19999999999999996 0.90000000000000036 -0.14800000000000005
v -0.19999999999999996 1 -0.16200000000000001
v -0.19999999999999996 1.4000000000000004 -0.21800000000000005
v -0.19999999999999996 1.5 -0.23200000000000001
v -0.19999999999999996 1.6000000000000001 -0.24600000000000002
v -0.19999999999999996 1.7000000000000002 -0.26000000000000006
v -0.19999999999999996 1.9000000000000004 -0.28800000000000009
v -0.19999999999999996 2 -0.30200000000000005
v -0.099999999999999867 -2 0.26900000000000002
v -0.099999999999999867 -1.8999999999999999 0.255
v -0.099999999999999867 -1.8 0.24100000000000008
v -0.099999999999999867 -1.7 0.22700000000000004
v -0.099999999999999867 -1.6000000000000001 0.21300000000000005
v -0.099999999999999867 -1.2999999999999998 0.17100000000000001
v -0.099999999999999867 -1.1000000000000001 0.14300000000000004
v -0.099999999999999867 0.5 -0.080999999999999989
v -0.099999999999999867 0.90000000000000036 -0.13700000000000004
v -0.099999999999999867 1 -0.151
v -0.099999999999999867 1.4000000000000004 -0.20700000000000005
v -0.099999999999999867 1.5 -0.221
v -0.099999999999999867 1.7000000000000002 -0.24900000000000003
v -0.099999999999999867 1.8000000000000003 -0.26300000000000007
v -0.099999999999999867 1.9000000000000004 -0.27700000000000008
v -0.099999999999999867 2 -0.29100000000000004
v 0 -2 0.28000000000000003
v 0 -1.8999999999999999 0.26600000000000001
v 0 -1.8 0.25200000000000006
v 0 -1.7 0.23800000000000002
v 0 -1.6000000000000001 0.22400000000000003
v 0 -1.2999999999999998 0.182
v 0 -1.1000000000000001 0.15400000000000003
v 0 0.90000000000000036 -0.12600000000000006
v 0 1 -0.14000000000000001
v 0 1.4000000000000004 -0.19600000000000006
v 0 1.5 -0.21000000000000002
v 0 1.8000000000000003 -0.25200000000000006
v 0 1.9000000000000004 -0.26600000000000007
v 0 2 -0.28000000000000003
v 0.10000000000000009 -1.8 0.26300000000000007
v 0.10000000000000009 -1.7 0.24900000000000003
v 0.20000000000000018 -1.7 0.26000000000000001
v 0.20000000000000018 -1.6000000000000001 0.24600000000000005
v 0.40000000000000036 -2 0.32400000000000007
v 0.40000000000000036 -1.8999999999999999 0.31000000000000005
v 0.40000000000000036 -1.8 0.2960000000000001
v 0.40000000000000036 -1.7 0.28200000000000003
v 0.40000000000000036 -1.6000000000000001 0.26800000000000007
v 0.40000000000000036 -1.2999999999999998 0.22600000000000003
v 0.40000000000000036 -1.1000000000000001 0.19800000000000006
v 0.40000000000000036 -0.79999999999999982 0.15600000000000003
v 0.40000000000000036 -0.69999999999999996 0.14200000000000004
v 0.40000000000000036 -0.59999999999999987 0.12800000000000003
v 0.40000000000000036 -0.5 0.11400000000000005
v 0.40000000000000036 0.90000000000000036 -0.082000000000000017
v 0.40000000000000036 1 -0.095999999999999974
v 0.40000000000000036 1.4000000000000004 -0.15200000000000002
v 0.40000000000000036 1.5 -0.16599999999999998
v 0.40000000000000036 1.9000000000000004 -0.22200000000000003
v 0.40000000000000036 2 -0.23599999999999999
v 0.5 -2 0.33500000000000002
v 0.5 -1.8999999999999999 0.32100000000000001
v 0.5 -1.8 0.30700000000000005
v 0.5 -1.7 0.29300000000000004
v 0.5 -1.6000000000000001 0.27900000000000003
v 0.5 -1.2999999999999998 0.23699999999999999
v 0.5 -1.2 0.223
v 0.5 -1.1000000000000001 0.20900000000000002
v 0.5 -0.79999999999999982 0.16699999999999998
v 0.5 -0.69999999999999996 0.153
v 0.5 -0.59999999999999987 0.13899999999999998
v 0.5 -0.5 0.125
v 0.5 -0.29999999999999982 0.096999999999999975
v 0.5 1 -0.08500000000000002
v 0.5 1.3000000000000003 -0.12700000000000006
v 0.5 1.4000000000000004 -0.14100000000000007
v 0.5 1.5 -0.15500000000000003
v 0.5 1.9000000000000004 -0.21100000000000008
v 0.5 2 -0.22500000000000003
v 0.60000000000000009 -1.2 0.23400000000000004
v 0.60000000000000009 -1.1000000000000001 0.22000000000000003
v 0.60000000000000009 -0.69999999999999996 0.16400000000000003
v 0.60000000000000009 -0.59999999999999987 0.15000000000000002
v 0.60000000000000009 -0.5 0.13600000000000001
v 0.60000000000000009 -0.39999999999999991 0.12200000000000001
v 0.60000000000000009 -0.29999999999999982 0.108
v 0.60000000000000009 -0.19999999999999996 0.094000000000000014
v 0.60000000000000009 1.3000000000000003 -0.11600000000000003
v 0.60000000000000009 1.4000000000000004 -0.13000000000000006
v 0.70000000000000018 -0.29999999999999982 0.11900000000000001
v 0.70000000000000018 1.4000000000000004 -0.11900000000000004
v 0.70000000000000018 1.5 -0.13300000000000001
v 0.80000000000000027 -0.29999999999999982 0.13
v 0.80000000000000027 -0.19999999999999996 0.11600000000000003
v 0.80000000000000027 1.5 -0.12199999999999998
v 0.90000000000000036 -2 0.37900000000000006
v 0.90000000000000036 -1.8999999999999999 0.36500000000000005
v 0.90000000000000036 -1.8 0.35100000000000009
v 0.90000000000000036 -1.7 0.33700000000000008
v 0.90000000000000036 -1.6000000000000001 0.32300000000000006
v 0.90000000000000036 -1.2999999999999998 0.28100000000000003
v 0.90000000000000036 -1.2 0.26700000000000007
v 0.90000000000000036 -1.1000000000000001 0.25300000000000006
v 0.90000000000000036 -0.79999999999999982 0.21100000000000002
v 0.90000000000000036 -0.69999999999999996 0.19700000000000006
v 0.90000000000000036 -0.59999999999999987 0.18300000000000005
v 0.90000000000000036 -0.5 0.16900000000000004
v 0.90000000000000036 -0.29999999999999982 0.14100000000000001
v 0.90000000000000036 -0.19999999999999996 0.12700000000000006
v 0.90000000000000036 -0.099999999999999867 0.11300000000000003
v 0.90000000000000036 0 0.099000000000000046
v 0.90000000000000036 0.20000000000000018 0.071000000000000021
v 0.90000000000000036 1.4000000000000004 -0.097000000000000017
v 0.90000000000000036 1.5 -0.11099999999999997
v 0.90000000000000036 1.6000000000000001 -0.12499999999999999
v 0.90000000000000036 1.7000000000000002 -0.13900000000000001
v 0.90000000000000036 1.9000000000000004 -0.16700000000000004
v 0.90000000000000036 2 -0.18099999999999999
v 1 -2 0.39000000000000001
v 1 -1.8999999999999999 0.376
v 1 -1.8 0.36200000000000004
v 1 -1.7 0.34800000000000003
v 1 -1.6000000000000001 0.33400000000000002
v 1 -1.2999999999999998 0.29199999999999998
v 1 -1.2 0.27800000000000002
v 1 -1.1000000000000001 0.26400000000000001
v 1 -0.79999999999999982 0.22199999999999998
v 1 -0.69999999999999996 0.20800000000000002
v 1 -0.59999999999999987 0.19400000000000001
v 1 -0.5 0.17999999999999999
v 1 -0.29999999999999982 0.15199999999999997
v 1 -0.19999999999999996 0.13800000000000001
v 1 -0.099999999999999867 0.12399999999999999
v 1 0 0.11
v 1 0.20000000000000018 0.081999999999999976
v 1 0.30000000000000027 0.067999999999999949
v 1 1.4000000000000004 -0.086000000000000063
v 1 1.5 -0.10000000000000002
v 1 1.6000000000000001 -0.11400000000000003
v 1 1.7000000000000002 -0.12800000000000006
v 1 1.9000000000000004 -0.15600000000000008
v 1 2 -0.17000000000000004
v 1.1000000000000001 -1.8999999999999999 0.38700000000000001
v 1.1000000000000001 -1.8 0.37300000000000005
v 1.1000000000000001 -1.7 0.35900000000000004
v 1.1000000000000001 -1.6000000000000001 0.34500000000000003
v 1.1000000000000001 -1.2999999999999998 0.30299999999999999
v 1.1000000000000001 -0.89999999999999991 0.247
v 1.1000000000000001 -0.79999999999999982 0.23299999999999998
v 1.1000000000000001 -0.59999999999999987 0.20500000000000002
v 1.1000000000000001 -0.5 0.191
v 1.1000000000000001 -0.29999999999999982 0.16299999999999998
v 1.1000000000000001 -0.19999999999999996 0.14900000000000002
v 1.1000000000000001 -0.099999999999999867 0.13499999999999998
v 1.1000000000000001 0 0.12100000000000001
v 1.1000000000000001 0.20000000000000018 0.092999999999999985
v 1.1000000000000001 0.30000000000000027 0.078999999999999959
v 1.1000000000000001 0.40000000000000036 0.064999999999999947
v 1.1000000000000001 1.4000000000000004 -0.075000000000000053
v 1.1000000000000001 1.5 -0.08900000000000001
v 1.1000000000000001 1.7000000000000002 -0.11700000000000003
v 1.1000000000000001 1.8000000000000003 -0.13100000000000006
v 1.1000000000000001 1.9000000000000004 -0.14500000000000007
v 1.1000000000000001 2 -0.15900000000000003
v 1.2000000000000002 -1.8 0.38400000000000012
v 1.2000000000000002 -1.7 0.37000000000000005
v 1.2000000000000002 -1.6000000000000001 0.35600000000000009
v 1.2000000000000002 -1.2999999999999998 0.31400000000000006
v 1.2000000000000002 -1.2 0.30000000000000004
v 1.2000000000000002 -0.89999999999999991 0.25800000000000001
v 1.2000000000000002 -0.79999999999999982 0.24400000000000002
v 1.2000000000000002 -0.69999999999999996 0.23000000000000004
v 1.2000000000000002 -0.5 0.20200000000000004
v 1.2000000000000002 -0.29999999999999982 0.17400000000000002
v 1.2000000000000002 -0.19999999999999996 0.16000000000000003
v 1.2000000000000002 -0.099999999999999867 0.14600000000000002
v 1.2000000000000002 0 0.13200000000000003
v 1.2000000000000002 0.30000000000000027 0.089999999999999997
v 1.2000000000000002 0.40000000000000036 0.075999999999999984
v 1.2000000000000002 0.5 0.062000000000000027
v 1.2000000000000002 1.4000000000000004 -0.064000000000000029
v 1.2000000000000002 1.5 -0.077999999999999986
v 1.2000000000000002 1.8000000000000003 -0.12000000000000002
v 1.2000000000000002 1.9000000000000004 -0.13400000000000004
v 1.2000000000000002 2 -0.14799999999999999
v 1.3000000000000003 -0.79999999999999982 0.255
v 1.3000000000000003 -0.69999999999999996 0.24100000000000005
v 1.4000000000000004 -2 0.43400000000000005
v 1.4000000000000004 -1.8999999999999999 0.42000000000000004
v 1.4000000000000004 -1.8 0.40600000000000014
v 1.4000000000000004 -1.7 0.39200000000000007
v 1.4000000000000004 -1.6000000000000001 0.37800000000000011
v 1.4000000000000004 -1.2999999999999998 0.33600000000000008
v 1.4000000000000004 -1.2 0.32200000000000006
v 1.4000000000000004 -1.1000000000000001 0.30800000000000005
v 1.4000000000000004 -0.79999999999999982 0.26600000000000001
v 1.4000000000000004 -0.69999999999999996 0.25200000000000006
v 1.4000000000000004 -0.59999999999999987 0.23800000000000004
v 1.4000000000000004 -0.5 0.22400000000000006
v 1.4000000000000004 -0.29999999999999982 0.19600000000000004
v 1.4000000000000004 -0.19999999999999996 0.18200000000000005
v 1.4000000000000004 -0.099999999999999867 0.16800000000000004
v 1.4000000000000004 0 0.15400000000000005
v 1.4000000000000004 0.40000000000000036 0.098000000000000004
v 1.4000000000000004 0.5 0.084000000000000047
v 1.4000000000000004 0.90000000000000036 0.027999999999999997
v 1.4000000000000004 1 0.01400000000000004
v 1.4000000000000004 1.4000000000000004 -0.04200000000000001
v 1.4000000000000004 1.5 -0.055999999999999966
v 1.4000000000000004 1.9000000000000004 -0.11200000000000002
v 1.4000000000000004 2 -0.12599999999999997
v 1.5 -2 0.44500000000000006
v 1.5 -1.8999999999999999 0.43100000000000005
v 1.5 -1.8 0.41700000000000004
v 1.5 -1.7 0.40300000000000002
v 1.5 -1.6000000000000001 0.38900000000000001
v 1.5 -1.2999999999999998 0.34699999999999998
v 1.5 -1.2 0.33300000000000002
v 1.5 -1.1000000000000001 0.31900000000000006
v 1.5 -0.79999999999999982 0.27700000000000002
v 1.5 -0.69999999999999996 0.26300000000000001
v 1.5 -0.59999999999999987 0.249
v 1.5 -0.5 0.23500000000000001
v 1.5 -0.29999999999999982 0.20699999999999999
v 1.5 -0.19999999999999996 0.193
v 1.5 -0.099999999999999867 0.17899999999999999
v 1.5 0 0.16500000000000001
v 1.5 0.40000000000000036 0.10899999999999996
v 1.5 0.5 0.095000000000000001
v 1.5 0.90000000000000036 0.038999999999999951
v 1.5 1 0.024999999999999994
v 1.5 1.4000000000000004 -0.031000000000000055
v 1.5 1.5 -0.045000000000000012
v 1.5 1.9000000000000004 -0.10100000000000006
v 1.5 2 -0.11500000000000002
v 1.6000000000000001 -0.59999999999999987 0.26000000000000001
v 1.6000000000000001 -0.5 0.24600000000000002
v 1.7000000000000002 -0.5 0.25700000000000001
v 1.8000000000000003 -0.29999999999999982 0.24000000000000002
v 1.9000000000000004 -2 0.4890000000000001
v 1.9000000000000004 -1.8999999999999999 0.47500000000000009
v 1.9000000000000004 -1.8 0.46100000000000008
v 1.9000000000000004 -1.7 0.44700000000000006
v 1.9000000000000004 -1.6000000000000001 0.43300000000000005
v 1.9000000000000004 -1.2999999999999998 0.39100000000000001
v 1.9000000000000004 -1.2 0.37700000000000006
v 1.9000000000000004 -1.1000000000000001 0.3630000000000001
v 1.9000000000000004 -0.79999999999999982 0.32100000000000006
v 1.9000000000000004 -0.69999999999999996 0.30700000000000005
v 1.9000000000000004 -0.59999999999999987 0.29300000000000004
v 1.9000000000000004 -0.5 0.27900000000000003
v 1.9000000000000004 -0.29999999999999982 0.251
v 1.9000000000000004 -0.19999999999999996 0.23700000000000004
v 1.9000000000000004 -0.099999999999999867 0.22300000000000003
v 1.9000000000000004 0 0.20900000000000005
v 1.9000000000000004 0.40000000000000036 0.153
v 1.9000000000000004 0.5 0.13900000000000004
v 1.9000000000000004 0.90000000000000036 0.08299999999999999
v 1.9000000000000004 1 0.069000000000000034
v 1.9000000000000004 1.4000000000000004 0.012999999999999984
v 1.9000000000000004 1.5 -0.00099999999999997313
v 1.9000000000000004 1.9000000000000004 -0.057000000000000023
v 1.9000000000000004 2 -0.07099999999999998
v 2 -2 0.5
v 2 -1.8999999999999999 0.48599999999999999
v 2 -1.8 0.47200000000000009
v 2 -1.7 0.45800000000000002
v 2 -1.6000000000000001 0.44400000000000006
v 2 -1.2999999999999998 0.40200000000000002
v 2 -1.2 0.38800000000000001
v 2 -1.1000000000000001 0.374
v 2 -0.79999999999999982 0.33199999999999996
v 2 -0.69999999999999996 0.318
v 2 -0.59999999999999987 0.30399999999999999
v 2 -0.5 0.29000000000000004
v 2 -0.29999999999999982 0.26200000000000001
v 2 -0.19999999999999996 0.248
v 2 -0.099999999999999867 0.23399999999999999
v 2 0 0.22
v 2 0.40000000000000036 0.16399999999999995
v 2 0.5 0.14999999999999999
v 2 0.90000000000000036 0.093999999999999945
v 2 1 0.079999999999999988
v 2 1.4000000000000004 0.023999999999999938
v 2 1.5 0.0099999999999999811
v 2 1.9000000000000004 -0.046000000000000069
v 2 2 -0.060000000000000026
v -2 -2 -0.90000000000000002
v -2 2 -0.90000000000000002
v 2 -2 -0.90000000000000002
v 2 2 -0.90000000000000002
v -1.02 -1.3480117784833934 -0.18545556584642803
v -1.2363118960624633 -1.5463118960624631 0.059999999999999942
v -0.80368810393753676 -1.5463118960624631 0.059999999999999942
v -1.02 -0.97999999999999998 -0.28999999999999998
v -1.3700000000000001 -1.1963118960624632 -0.15631189606246315
v -1.3700000000000001 -0.76368810393753672 -0.15631189606246315
v -1.1324354249480162 -1.4656463342923145 -0.08143251134331414
v -0.90756457505198385 -1.4656463342923145 -0.08143251134331414
v -1.02 -1.575455565846428 0.041988221516606417
v -1.02 -1.1712865702388702 -0.2633568504487423
v -0.60855032339526871 -1.4617336721649106 0.11227221707678597
v -0.83807566089457186 -1.2837219951868863 -0.19386793629133031
v -0.72227221707678602 -1.3914496766047311 -0.071733672164910722
v -0.83599411075830321 -1.0937218936815172 -0.25573956140660753
v -1.2019243391054282 -1.2837219951868863 -0.19386793629133031
v -1.511432511343314 -1.0924354249480162 -0.075646334292314377
v -1.3177277829232139 -1.3914496766047311 -0.071733672164910722
v -1.2040058892416967 -1.0937218936815172 -0.25573956140660753
v -1.5017336721649106 -1.2777277829232139 -0.0014496766047312204
v -1.2019243391054282 -0.67627800481311362 -0.19386793629133031
v -1.511432511343314 -0.86756457505198381 -0.075646334292314377
v -1.3177277829232139 -0.56855032339526879 -0.071733672164910722
v -1.2040058892416967 -0.86627810631848279 -0.25573956140660753
v -1.3880117784833936 -0.97999999999999998 -0.18545556584642792
v -1.0767604054103124 -1.4109494146115764 -0.13869012969397992
v -1.1859604277454032 -1.5110566101142799 -0.014777604490269935
v -0.96323959458968755 -1.4109494146115764 -0.13869012969397992
v -0.85403957225459681 -1.5110566101142799 -0.014777604490269935
v -1.02 -1.4720349213414412 -0.087897214473551366
v -1.1295041255281617 -1.5681245197289972 0.046519057190271607
v -0.91049587447183844 -1.5681245197289972 0.046519057190271607
v -1.0767992961339576 -1.5261430594970886 -0.02416770782941291
v -0.96320070386604228 -1.5261430594970886 -0.02416770782941291
v -1.02 -1.262348744032155 -0.23053039486308885
v -1.02 -1.0765665694893436 -0.2833072173698033
v -1.02 -0.88343343051065637 -0.2833072173698033
v -0.7022066501823172 -1.5105547940334434 0.08209910439313195
v -0.92815973483089098 -1.3191091494424674 -0.19545053510429239
v -0.75147038712046654 -1.2425269972347468 -0.18073803223567303
v -0.87088399404560923 -1.3798761613949959 -0.14485446048149692
v -0.92784124005355473 -1.2307601554406054 -0.23701322042794221
v -0.75977637587787084 -1.4749747468305832 -0.011050668505282024
v -0.69209910439313194 -1.2977933498176828 -0.12055479403344355
v -0.81279678519556198 -1.4331883257175568 -0.081616892720361489
v -0.66063719113868646 -1.4326044542584122 0.015022051763959932
v -0.77769288964770555 -1.3412851340357428 -0.13841618885431922
v -0.92685022710158604 -1.0375697256955536 -0.28138183841659642
v -0.74966883008868557 -1.1470738512237153 -0.21370456693185752
v -0.92704526622046834 -1.1340819192313047 -0.26647481818170732
v -0.83514207453865408 -1.1908812153652624 -0.23137092263385101
v -0.5673955457415879 -1.37497794823604 0.050637191138686477
v -0.62502205176395997 -1.3393628088613134 -0.042604454258412139
v -1.1118402651691091 -1.3191091494424674 -0.19545053510429239
v -1.2885296128795334 -1.2425269972347468 -0.18073803223567303
v -1.1691160059543908 -1.3798761613949959 -0.14485446048149692
v -1.1121587599464453 -1.2307601554406054 -0.23701322042794221
v -1.44477760449027 -1.1459604277454032 -0.12105661011428009
v -1.2802236241221292 -1.4749747468305832 -0.011050668505282024
v -1.3479008956068681 -1.2977933498176828 -0.12055479403344355
v -1.2272032148044381 -1.4331883257175568 -0.081616892720361489
v -1.3793628088613135 -1.4326044542584122 0.015022051763959932
v -1.2623071103522945 -1.3412851340357428 -0.13841618885431922
v -1.1131497728984139 -1.0375697256955536 -0.28138183841659642
v -1.2903311699113145 -1.1470738512237153 -0.21370456693185752
v -1.1129547337795318 -1.1340819192313047 -0.26647481818170732
v -1.2048579254613458 -1.1908812153652624 -0.23137092263385101
v -1.441050668505282 -1.2402236241221292 -0.084974746830583203
v -1.5116168927203615 -1.187203214804438 -0.043188325717556764
v -1.4149779482360401 -1.3393628088613134 -0.042604454258412139
v -1.2885296128795334 -0.71747300276525316 -0.18073803223567303
v -1.44477760449027 -0.81403957225459678 -0.12105661011428009
v -1.5178972144735514 -0.97999999999999998 -0.082034921341441247
v -1.3479008956068681 -0.66220665018231717 -0.12055479403344355
v -1.2623071103522945 -0.61871486596425718 -0.13841618885431922
v -1.1131497728984139 -0.92243027430444635 -0.28138183841659642
v -1.2903311699113145 -0.81292614877628477 -0.21370456693185752
v -1.1129547337795318 -0.82591808076869533 -0.26647481818170732
v -1.2064832907941971 -0.97999999999999998 -0.26470288442733575
v -1.2048579254613458 -0.76911878463473748 -0.23137092263385101
v -1.441050668505282 -0.7197763758778708 -0.084974746830583203
v -1.3834809428097286 -1.0895041255281617 -0.17812451972899718
v -1.3834809428097286 -0.8704958744718384 -0.17812451972899718
v -1.4541677078294128 -1.0367992961339578 -0.13614305949708866
v -1.2997249361912959 -1.0376265060223722 -0.22908774505260937
v -1.4541677078294128 -0.92320070386604225 -0.13614305949708866
v -1.2997249361912959 -0.92237349397762791 -0.22908774505260937
v 0.97999999999999998 1.02 -0.10999999999999999
v 1.3300000000000001 0.80368810393753676 0.023688103937536842
v 0.97999999999999998 1.2112865702388702 -0.083356850448742303
v 1.1640058892416967 0.90627810631848282 -0.075739561406607536
v 1.1640058892416967 1.1337218936815172 -0.075739561406607536
v 1.3480117784833936 1.02 -0.0054555658464279233
v 0.97999999999999998 1.1165665694893436 -0.10330721736980331
v 1.2485296128795333 0.7574730027652532 -0.00073803223567303622
v 1.0731497728984138 0.96243027430444639 -0.10138183841659643
v 1.2503311699113144 0.85292614877628481 -0.033704566931857527
v 1.0731497728984138 1.0775697256955536 -0.10138183841659643
v 1.2503311699113144 1.1870738512237153 -0.033704566931857527
v 1.0729547337795318 1.1740819192313048 -0.086474818181707325
v 1.1664832907941971 1.02 -0.084702884427335756
v 1.1648579254613458 1.2308812153652624 -0.051370922633851013
v 1.3434809428097285 0.91049587447183844 0.0018754802710028162
v 1.2597249361912959 0.96237349397762795 -0.049087745052609377
v 1.2597249361912959 1.0776265060223722 -0.049087745052609377
v 0.88704526622046831 1.1740819192313048 -0.086474818181707325
v -0.5303348468554101 -1.3977833898882548 0.13735284143026061
v -0.5 -1.3645428531617747 0.13603599944264849
v -1.5095308774039358 -1.2825467207781902 0.013508144394513701
v -1.5172049225236706 -1.2648694334942439 0.010189179211590382
v -0.67325113059707675 -1.5224463725661268 0.13908486779357931
v -0.69999999999999996 -1.536961658616929 0.13817463220637005
v -0.75273468320274617 -1.5655781582512138 0.13638012700286789
v -0.5441197107642709 0.099472533623766429 -0.073779322891397103
v -0.59999999999999987 0.052566452140073279 -0.07335930329961024
v -1.5378847423275206 -1.203437638673033 -0.00068605224180265162
v -0.5 0.1359295426345638 -0.074030135968838937
v -0.44109909889890708 -1.2999999999999996 0.13347909912112021
v 0.87794782702188578 0.20000000000000018 0.068574260972407416
v 0.90000000000000036 0.2271225844334131 0.067202838179322211
v -1.5514811515071922 -1.1505856849438716 -0.0095809307736491097
v -1.5565530826218388 -1.1185312607324041 -0.014626462585865696
v -1.5581897056521226 -1.1000000000000001 -0.017400867621733453
v -1.4999361824479625 -1.2999999999999996 0.017007019930724107
v -1.4892281120054125 -1.3194785706286862 0.020911907567420684
v 0.85302859766648509 1.1951053765817061 -0.073481606978125502
v -0.29999999999999982 -1.1453854142933997 0.12735395800107596
v 0.88741030472245763 1.2184191537657232 -0.072963548007730888
v 0.90000000000000036 1.224035298077446 -0.072364941730842416
v -0.32506635753606539 0.2804807481869801 -0.075024604075144427
v 1.3206965268646842 0.7609655590801121 0.038741439683899578
v 1.2899466189958755 0.71891956821226277 0.041245388539829522
v 0.95925340109891954 0.30000000000000027 0.063517874120881099
v -0.29999999999999982 0.30119358620722081 -0.075167102069010908
v 1.3425021302741538 0.79596136249633076 0.036240643580670626
v -1.563313069672158 -1.0419888436582485 -0.02608599955178257
v -1.5631027765794261 -1.0305166128149017 -0.027668979629650634
v 1 0.35011538183406088 0.060983846543231468
v -0.25858190848757084 -1.1000000000000001 0.12555599006636722
v 1.3521521436141266 0.81860424045922464 0.034132142133262468
v -0.19999999999999996 -1.0358066948592124 0.12301293728028975
v 0.97999999999999998 1.2543983003298236 -0.067815762046175315
v 1 1.2566674489757252 -0.065933442856601535
v -1.5534745811359454 -0.94024276719646449 -0.039248216517448968
v -0.19999999999999996 0.38382560799354914 -0.075735585119096893
v 1.3701228748560839 0.88595775239433983 0.026679430898961673
v 0.93562150593444837 1.239925715876963 -0.070671234569985503
v -1.5446326318610188 -0.8998470452580789 -0.043931003168581027
v -1.5314201509122549 -0.85600456716358919 -0.048615577197445567
v 1.0405589751759532 0.40000000000000036 0.058461487269354809
v -0.55085071265598617 -1.4198134956217088 0.13818031099488079
v 1.1000000000000001 0.47310817923470916 0.054764854907140732
v -1.511556845422618 -0.8036597160681469 -0.053758892746947402
v -1.5099049020538255 -0.79999999999999982 -0.054089539225920837
v -0.099999999999999867 -0.92622797542502489 0.1186719165595035
v -0.59599661040889018 -1.4647062435554896 0.13949924695279065
v -0.18042599992497424 0.4000000000000003 -0.075846859991747229
v -1.4378125968786126 -1.3964804986284951 0.037347884151341916
v -1.4603433179929266 -1.3674001492832759 0.030798255920436717
v -1.5006737093821196 -0.77954921168181357 -0.055937218396579266
v 1.0722133668539675 1.2641276516010977 -0.059034400870217239
v 1.099186137789651 1.25913304773779 -0.055368151526428995
v 1.1000000000000001 1.2589443228390109 -0.055252205197461532
v -0.12647965282903517 0.4445769572852451 -0.076153535831128175
v -0.099999999999999853 0.4657676002585715 -0.076207464036200004
v -1.3269626451344834 -1.5038610504171135 0.064574656093602731
v -1.3521184412110783 -1.4836926272621236 0.058983939283478691
v 1.061055224791706 1.2635946180087911 -0.060187171794143103
v 0 -0.81664925599083749 0.11433089583871726
v 1.1218645492529868 0.5 0.05340510041782854
v -0.057223475389642814 0.5 -0.076294582292860721
v -1.397170358582396 -1.4425632023782158 0.048270108888886651
v -0 0.54579373621338467 -0.076411123069873854
v 1.1921922416458233 0.58649799622127241 0.049031427110062427
v 1.2000000000000002 0.59707466463258563 0.048409546951438037
v 0.015193877129434043 -0.79999999999999982 0.11367132648423772
v 0.094656217448282759 -0.71292618504616945 0.11022184982577482
v 1.2000000000000002 1.2256686032149513 -0.039593604450093169
v 1.1772075135738296 1.2385039149129311 -0.043897721594689139
v 1.1644433762728665 1.244000675733361 -0.046071323212655245
v -1.4866608522984586 -0.75404589561862778 -0.057966268366222554
v 0.015614914117764866 0.55828974861449454 -0.076442924253075098
v -1.4513911865436071 -0.69999999999999996 -0.0616530305197968
v -1.4583608323156065 -0.70907810629226187 -0.061148756673800035
v 0.10590436171182376 -0.69999999999999996 0.10964947978830061
v -1.4277520384827438 -0.66920952573842474 -0.063363390629722363
v -1.2999999999999998 -1.5211644592992117 0.069963024301889665
v 0.19292264454906563 -0.59999999999999987 0.10522149090039722
v 1.277567053911435 1.1702411491979916 -0.02330138495746097
v 0.10086882475764782 0.62651515904996236 -0.076616551543653474
v 1.2501356098826901 1.1974353438863963 -0.030126031056999566
v 1.2575783296768928 1.1915528422807435 -0.028483781654845879
v 0.27994092738630738 -0.5 0.10079350201249382
v -1.3957310417979076 -0.63256501827980605 -0.064971312038597004
v -1.3600601091279736 -0.59999999999999987 -0.065606612004077094
v -1.3368004271961758 -0.57876556875312934 -0.066020867366141212
v 0.22058502390570212 0.72030909957792177 -0.076578921311281828
v -1.2999999999999998 -0.54647696752898123 -0.0664932245459426
v -1.2477021006520672 -1.5523319778385309 0.080079245825666931
v -1.221076448272538 -1.56407058334216 0.084651472357923183
v -1.2 -1.5717083542704842 0.088039169597867797
v 0.40000000000000036 -0.36203006000675697 0.094684208400946018
v -1.2906467591174398 -1.5271669472063309 0.071832229105967982
v -1.0938242729523591 -1.6031754797317197 0.10412389713768129
v -1.0632118186208299 -1.6081735969059039 0.10819100351853528
v 1.3715003908471508 0.90000000000000036 0.024865042993186533
v 0.40000000000000036 0.86087518601708846 -0.076522526042392333
v 1.3748224223379921 0.93386442629393807 0.020489446776027823
v 0.4539774930607911 -0.29999999999999982 0.091937524236686996
v 0.4063767909465773 -0.35470195522387588 0.094359720735466127
v 1.3693860314224235 1 0.010632463456466585
v -1.2484346962756523 -0.50149040144043056 -0.067119160388661461
v -1.2645556052674236 -0.5153781457394786 -0.066948176175889593
v -1.2731800322869646 -0.52294519607115675 -0.066837476101604162
v -1.2467046366298944 -0.5 -0.067137510029288389
v -1.1000000000000001 -1.6015994605550525 0.10322392447770735
v -1.1062675835152966 -1.6000000000000001 0.10231056581331739
v -1.1592163689092339 -1.586487696020509 0.094594476862855534
v -1.2 -0.45976516886070135 -0.067632876359501812
v 0.5 -0.2471116810874226 0.089595635352239161
v 1.3692402098420298 1.0017739699053729 0.010368067295871078
v 1.3624862325600591 1.0324272882507299 0.0053336652265043253
v 0.44993791705566177 0.90000000000000036 -0.076506829123877254
v 1.3458721805240297 1.0717111677397166 -0.0019936236259170937
v 0.5 0.93922209411760615 -0.07649109317646488
v 1.3225933412932047 1.1165665573749983 -0.010834050490247254
v 0.54099577589803283 -0.19999999999999993 0.087509535348783599
v 0.60000000000000009 -0.13219330216808775 0.084507062303532304
v 0.51608524688837243 0.95182438771498079 -0.076486037122376366
v 0.58280830776015347 1 -0.075891086146383152
v -1.1000000000000001 -0.37361776671274144 -0.068693512660216199
v 0.6000000000000002 1.0124128043445397 -0.075737792608235557
v 0.62801405873527461 -0.099999999999999867 0.083081546460880201
v -1.0112106695524514 -1.6112106695524515 0.11433632008657357
v -1 -1.6118654169658684 0.11566115837522158
v 0.71503234157251627 0 0.07865355757297679
v -1.0145444147157203 -0.29999999999999982 -0.069599885618729249
v -0.90630696405611544 -1.6063069640561156 0.12518920892168353
v 0.71966812994404361 0.0053273728466901836 0.078417662095308191
v -0.8592377976155724 -1.5998037534241238 0.12945636774166444
v -0.86065819797871912 -1.5999999999999999 0.12932759822234094
v -0.95640997540820427 -1.6132293393765131 0.12064701021780938
v -0.96956460112779008 -1.6136429645596724 0.11925790891429723
v -0.84719264059047572 -1.5970214959587354 0.13039181896927066
v -0.79999999999999982 -1.5818104849958445 0.13345346789941825
v -0.8984643037586334 -0.19999999999999996 -0.070831073413449672
v -0.63327130758733829 -1.4945946802903061 0.13958341140603564
v -0.79999999999999971 -0.11531414448970263 -0.071856019771441598
v -0.80627900775509764 -0.12058476233054664 -0.071808824126784201
v -0.59999999999999987 -1.4679163315126333 0.13950828641176866
v -0.76056960419200148 -1.5691013808770202 0.13601153686166267
v -0.77315924003554193 -1.5731592400355423 0.13519477720106632
v -0.78175590890533353 -0.099999999999999867 -0.07199314997958671
v -0.69999999999999984 -0.031373846174814778 -0.072607661535525933
v -0.66262361844710027 -0 -0.072888598029181031
f 41 66 42
f 69 70 45
f 45 70 46
f 71 72 47
f 47 72 48
f 73 74 49
f 49 74 50
f 114 115 91
f 116 117 92
f 92 117 93
f 118 119 94
f 94 119 95
f 120 121 96
f 96 121 97
f 138 157 139
f 158 159 140
f 140 159 141
f 142 160 143
f 161 162 144
f 144 162 145
f 165 166 148
f 148 166 149
f 170 171 154
f 172 173 155
f 155 173 156
f 165 180 166
f 204 205 187
f 187 205 188
f 205 206 188
f 188 206 189
f 210 211 194
f 194 211 195
f 235 236 220
f 220 236 221
f 236 237 221
f 221 237 222
f 223 238 224
f 239 240 225
f 225 240 226
f 262 263 247
f 247 263 248
f 275 276 259
f 279 280 262
f 262 280 263
f 280 281 263
f 263 281 264
f 296 297 280
f 280 297 281
f 291 306 292
f 309 311 310
f 311 312 310
f 332 333 315
f 315 333 316
f 333 334 316
f 316 334 317
f 335 349 336
f 349 350 336
f 336 350 337
f 338 351 339
f 352 353 340
f 340 353 341
f 353 354 341
f 344 358 345
f 354 359 355
f 362 363 359
f 377 378 362
f 362 378 363
f 378 379 363
f 383 384 364
f 404 405 381
f 422 423 401
f 401 423 402
f 423 424 402
f 402 424 403
f 426 427 405
f 412 434 413
f 434 435 413
f 414 436 415
f 437 438 416
f 439 440 417
f 417 440 418
f 440 441 418
f 419 442 420
f 443 444 421
f 422 445 423
f 445 446 423
f 423 446 424
f 425 447 426
f 448 449 427
f 430 452 431
f 439 455 440
f 455 456 440
f 440 456 441
f 482 483 458
f 458 483 459
f 483 484 459
f 459 484 460
f 484 485 460
f 460 485 461
f 486 487 462
f 462 487 463
f 487 488 463
f 463 488 464
f 489 490 465
f 465 490 466
f 505 507 506
f 521 522 508
f 534 535 510
f 510 535 511
f 535 536 511
f 511 536 512
f 536 537 512
f 512 537 513
f 538 539 514
f 514 539 515
f 539 540 515
f 515 540 516
f 541 542 517
f 517 542 518
f 543 544 519
f 519 544 520
f 545 546 521
f 521 546 522
f 381 679 678
f 405 697 692
f 268 700 698
f 427 711 709
f 704 716 269
f 724 730 286
f 342 779 768
f 766 782 324
f 356 787 786
f 790 796 167
f 189 811 804
f 807 812 190
f 813 814 207
f 617 628 627
f 627 628 579
f 627 629 619
f 579 629 627
f 608 610 599
f 599 606 603
f 611 612 605
f 597 605 602
f 571 611 605
f 571 605 597
f 592 593 589
f 567 592 589
f 567 589 585
f 565 627 619
f 617 627 565
f 565 619 614
f 614 624 565
f 607 609 574
f 609 610 574
f 574 610 608
f 595 609 607
f 570 609 595
f 595 607 564
f 595 625 570
f 601 610 609
f 594 601 570
f 601 609 570
f 597 602 563
f 563 602 588
f 588 591 563
f 588 593 591
f 569 593 592
f 591 593 569
f 598 601 594
f 605 612 573
f 573 612 603
f 603 606 573
f 602 605 573
f 568 593 588
f 589 593 568
f 594 616 613
f 570 616 594
f 570 625 616
f 617 643 576
f 576 628 617
f 641 643 617
f 624 641 565
f 565 641 617
f 633 640 566
f 657 659 653
f 566 642 636
f 564 623 595
f 623 625 595
f 578 625 623
f 623 638 578
f 596 637 635
f 635 638 623
f 596 635 564
f 564 635 623
f 656 663 650
f 585 589 587
f 587 589 568
f 572 610 601
f 572 601 598
f 599 610 572
f 572 606 599
f 648 656 654
f 662 663 656
f 648 662 656
f 619 629 577
f 586 592 567
f 577 629 621
f 577 621 618
f 613 616 575
f 642 646 636
f 631 642 566
f 566 640 631
f 647 657 653
f 655 657 647
f 653 659 649
f 649 665 653
f 630 633 566
f 566 636 630
f 630 634 633
f 651 659 657
f 651 661 659
f 658 661 651
f 651 664 658
f 655 660 657
f 663 664 660
f 650 660 655
f 650 663 660
f 657 660 651
f 660 664 651
f 587 600 598
f 600 606 572
f 598 600 572
f 568 600 587
f 561 613 585
f 594 613 561
f 561 598 594
f 587 598 561
f 585 587 561
f 618 620 577
f 586 620 618
f 567 620 586
f 590 592 586
f 569 592 590
f 614 626 624
f 575 626 614
f 616 626 575
f 624 626 578
f 578 626 625
f 625 626 616
f 584 646 642
f 584 643 641
f 630 639 580
f 636 639 630
f 624 644 641
f 638 646 644
f 578 644 624
f 638 644 578
f 641 644 584
f 644 646 584
f 631 645 642
f 642 645 584
f 584 645 643
f 581 645 631
f 573 606 604
f 604 606 600
f 573 604 602
f 568 604 600
f 602 604 588
f 588 604 568
f 620 622 577
f 577 622 619
f 619 622 614
f 614 622 575
f 562 590 586
f 586 618 562
f 636 646 583
f 583 639 636
f 583 646 638
f 637 639 583
f 635 637 583
f 583 638 635
f 643 645 632
f 576 643 632
f 632 645 581
f 575 615 613
f 575 622 615
f 613 615 585
f 615 622 620
f 585 615 567
f 615 620 567
f 652 663 662
f 652 664 663
f 599 654 608
f 654 656 608
f 603 654 599
f 653 665 637
f 596 653 637
f 608 656 650
f 608 650 574
f 607 655 647
f 607 647 564
f 637 665 639
f 579 669 668
f 690 694 648
f 571 715 710
f 640 743 740
f 658 751 750
f 581 708 707
f 758 759 562
f 780 781 652
f 738 739 661
f 772 773 582
f 771 772 582
f 2 1 26
f 2 26 27
f 229 213 228
f 214 213 229
f 405 404 425
f 405 425 426
f 574 650 655
f 574 655 607
f 215 214 229
f 215 229 230
f 596 647 653
f 564 647 596
f 231 215 230
f 216 215 231
f 727 428 406
f 702 727 406
f 720 428 727
f 721 428 720
f 722 428 721
f 670 597 671
f 672 671 597
f 216 231 232
f 217 216 232
f 558 560 559
f 558 559 557
f 579 683 684
f 668 683 579
f 407 406 428
f 407 428 429
f 219 218 233
f 219 233 234
f 2 27 28
f 3 2 28
f 648 654 690
f 691 690 654
f 408 407 429
f 430 408 429
f 694 699 648
f 219 234 235
f 220 219 235
f 409 408 430
f 431 409 430
f 4 3 28
f 4 28 29
f 699 705 662
f 699 662 648
f 410 409 431
f 410 431 432
f 5 4 29
f 5 29 30
f 611 571 710
f 666 611 710
f 411 410 432
f 411 432 433
f 809 222 237
f 666 710 237
f 715 237 710
f 809 237 715
f 667 666 237
f 6 5 30
f 6 30 31
f 621 629 717
f 718 717 629
f 458 459 434
f 458 434 412
f 7 6 31
f 7 31 32
f 676 238 223
f 676 223 673
f 674 673 223
f 725 618 621
f 725 621 726
f 717 731 621
f 414 435 436
f 460 461 436
f 460 436 435
f 33 7 32
f 8 7 33
f 225 224 238
f 225 238 239
f 731 726 621
f 437 415 436
f 416 415 437
f 9 8 33
f 9 33 34
f 227 226 240
f 227 240 241
f 631 640 740
f 719 631 740
f 467 468 442
f 467 442 419
f 10 9 34
f 10 34 35
f 227 241 242
f 228 227 242
f 727 702 649
f 701 649 702
f 421 420 442
f 421 442 443
f 11 10 35
f 11 35 36
f 649 659 727
f 720 727 659
f 229 228 242
f 229 242 243
f 701 706 649
f 470 471 445
f 422 444 445
f 470 445 444
f 12 11 36
f 12 36 37
f 230 229 243
f 230 243 244
f 425 424 446
f 447 425 446
f 12 37 38
f 13 12 38
f 231 230 244
f 231 244 245
f 649 688 665
f 687 665 688
f 706 688 649
f 426 447 448
f 427 426 448
f 14 13 38
f 14 38 39
f 232 231 245
f 232 245 246
f 745 742 640
f 640 742 743
f 247 248 234
f 247 234 233
f 15 14 39
f 15 39 40
f 582 755 633
f 753 633 754
f 755 754 633
f 722 450 428
f 739 450 722
f 738 450 739
f 737 450 738
f 248 249 235
f 248 235 234
f 16 15 40
f 16 40 41
f 748 751 658
f 429 428 450
f 429 450 451
f 249 250 236
f 249 236 235
f 569 763 764
f 590 763 569
f 17 16 41
f 17 41 42
f 430 429 451
f 452 430 451
f 250 251 237
f 250 237 236
f 18 17 42
f 18 42 43
f 763 590 775
f 776 775 590
f 777 776 590
f 432 431 452
f 432 452 453
f 251 252 667
f 677 667 252
f 251 667 237
f 19 18 43
f 19 43 44
f 433 432 453
f 433 453 454
f 713 712 631
f 581 631 712
f 719 713 631
f 45 19 44
f 20 19 45
f 712 708 581
f 459 460 435
f 459 435 434
f 689 253 239
f 689 239 238
f 693 253 689
f 676 689 238
f 579 684 629
f 684 718 629
f 21 20 45
f 21 45 46
f 461 462 437
f 461 437 436
f 253 254 240
f 253 240 239
f 22 21 46
f 22 46 47
f 562 760 590
f 777 590 760
f 759 760 562
f 241 240 255
f 254 255 240
f 468 469 443
f 468 443 442
f 680 675 628
f 23 22 47
f 23 47 48
f 469 470 444
f 469 444 443
f 255 256 242
f 255 242 241
f 24 23 48
f 24 48 49
f 746 762 618
f 562 618 762
f 725 746 618
f 471 472 446
f 471 446 445
f 256 257 243
f 256 243 242
f 675 579 628
f 669 579 675
f 25 24 49
f 25 49 50
f 257 258 244
f 257 244 243
f 472 473 447
f 448 447 473
f 472 447 446
f 762 758 562
f 26 51 52
f 27 26 52
f 245 244 259
f 245 259 260
f 258 259 244
f 449 448 474
f 473 474 448
f 687 685 665
f 703 696 632
f 28 27 52
f 28 52 53
f 260 261 246
f 260 246 245
f 29 28 53
f 29 53 54
f 799 591 800
f 797 800 591
f 801 797 591
f 686 677 252
f 30 29 54
f 30 54 55
f 576 632 696
f 695 576 696
f 249 248 263
f 249 263 264
f 474 691 734
f 474 694 690
f 474 475 699
f 474 690 691
f 705 699 475
f 765 705 475
f 474 699 694
f 474 734 449
f 563 591 799
f 803 563 799
f 31 30 55
f 31 55 56
f 250 249 264
f 250 264 265
f 707 632 581
f 703 632 707
f 57 31 56
f 32 31 57
f 250 265 266
f 251 250 266
f 662 765 767
f 705 765 662
f 33 32 57
f 33 57 58
f 252 251 266
f 252 266 267
f 33 58 59
f 34 33 59
f 569 794 802
f 793 794 569
f 764 793 569
f 750 477 450
f 750 450 737
f 751 477 750
f 785 477 748
f 783 477 785
f 476 477 783
f 476 783 781
f 780 476 781
f 770 476 780
f 751 748 477
f 686 252 267
f 686 267 268
f 698 686 268
f 35 34 59
f 35 59 60
f 801 591 802
f 569 802 591
f 451 450 478
f 477 478 450
f 253 269 270
f 254 253 270
f 35 60 61
f 36 35 61
f 478 479 452
f 453 452 479
f 478 452 451
f 662 770 652
f 652 770 780
f 767 770 662
f 255 254 270
f 255 270 271
f 37 36 61
f 37 61 62
f 670 571 597
f 806 571 670
f 479 480 454
f 479 454 453
f 256 255 271
f 256 271 272
f 38 37 62
f 38 62 63
f 715 571 809
f 806 809 571
f 456 455 465
f 456 465 466
f 38 63 64
f 39 38 64
f 257 256 272
f 257 272 273
f 652 783 664
f 783 785 664
f 458 457 481
f 458 481 482
f 628 576 681
f 680 628 681
f 40 39 64
f 40 64 65
f 258 257 273
f 258 273 274
f 781 783 652
f 462 461 485
f 462 485 486
f 41 40 65
f 66 41 65
f 258 274 275
f 259 258 275
f 681 576 682
f 695 682 576
f 465 464 488
f 465 488 489
f 260 259 276
f 260 276 277
f 42 66 67
f 43 42 67
f 640 633 745
f 753 745 633
f 467 466 490
f 467 490 491
f 261 260 277
f 261 277 278
f 44 43 67
f 44 67 68
f 659 661 721
f 720 659 721
f 468 467 491
f 468 491 492
f 265 264 281
f 265 281 282
f 721 661 722
f 739 722 661
f 45 44 68
f 45 68 69
f 469 468 492
f 469 492 493
f 266 265 282
f 266 282 283
f 47 46 70
f 47 70 71
f 470 469 493
f 470 493 494
f 284 266 283
f 267 266 284
f 49 48 72
f 49 72 73
f 470 494 495
f 471 470 495
f 268 267 284
f 268 284 285
f 52 51 75
f 52 75 76
f 612 795 798
f 792 795 612
f 787 792 612
f 786 787 612
f 779 786 612
f 768 779 612
f 769 768 612
f 472 471 495
f 472 495 496
f 53 52 76
f 53 76 77
f 714 700 285
f 700 268 285
f 658 737 661
f 661 737 738
f 750 737 658
f 497 472 496
f 473 472 497
f 54 53 77
f 54 77 78
f 658 664 748
f 785 748 664
f 723 286 270
f 716 723 270
f 716 270 269
f 724 286 723
f 474 473 497
f 474 497 498
f 55 54 78
f 55 78 79
f 499 474 498
f 475 474 499
f 271 270 286
f 271 286 287
f 563 804 811
f 810 563 811
f 803 804 563
f 56 55 79
f 56 79 80
f 476 475 499
f 476 499 500
f 272 271 287
f 272 287 288
f 597 563 810
f 672 597 810
f 57 56 80
f 57 80 81
f 501 476 500
f 477 476 501
f 273 272 288
f 273 288 289
f 58 57 81
f 58 81 82
f 478 477 501
f 478 501 502
f 273 289 290
f 274 273 290
f 59 58 82
f 59 82 83
f 479 478 502
f 479 502 503
f 275 274 290
f 291 275 290
f 612 611 736
f 744 612 736
f 747 612 744
f 752 612 747
f 761 612 752
f 769 612 761
f 59 83 84
f 60 59 84
f 292 276 291
f 276 275 291
f 480 479 503
f 480 503 504
f 277 276 292
f 277 292 293
f 61 60 84
f 61 84 85
f 509 510 482
f 509 482 481
f 654 603 733
f 691 654 734
f 734 654 733
f 277 293 294
f 278 277 294
f 62 61 85
f 62 85 86
f 510 511 483
f 510 483 482
f 63 62 86
f 63 86 87
f 280 279 295
f 280 295 296
f 511 512 484
f 511 484 483
f 64 63 87
f 64 87 88
f 281 297 298
f 282 281 298
f 512 513 485
f 512 485 484
f 64 88 89
f 65 64 89
f 283 282 298
f 283 298 299
f 513 514 486
f 513 486 485
f 678 603 798
f 679 603 678
f 692 603 679
f 697 603 692
f 709 603 697
f 711 603 709
f 729 603 711
f 733 603 729
f 612 798 603
f 300 283 299
f 284 283 300
f 66 65 89
f 90 66 89
f 67 66 90
f 515 516 487
f 516 488 487
f 514 515 487
f 514 487 486
f 285 284 300
f 285 300 301
f 67 90 91
f 68 67 91
f 516 517 489
f 516 489 488
f 69 68 91
f 69 91 92
f 714 285 301
f 728 714 301
f 517 518 490
f 517 490 489
f 69 92 93
f 70 69 93
f 518 519 505
f 491 490 505
f 518 505 490
f 732 287 286
f 732 302 287
f 732 286 730
f 71 70 93
f 71 93 94
f 492 491 505
f 492 505 506
f 288 287 302
f 288 302 303
f 611 735 736
f 728 735 611
f 714 728 611
f 700 714 611
f 698 700 611
f 686 698 611
f 677 686 611
f 667 677 611
f 666 667 611
f 72 71 94
f 72 94 95
f 493 492 506
f 508 493 506
f 289 288 303
f 289 303 304
f 508 494 493
f 522 494 508
f 73 72 95
f 73 95 96
f 290 289 304
f 290 304 305
f 74 73 96
f 74 96 97
f 522 523 495
f 522 495 494
f 813 812 634
f 633 634 808
f 807 634 812
f 814 813 634
f 808 634 807
f 674 814 634
f 673 674 634
f 291 290 305
f 306 291 305
f 524 496 495
f 523 524 495
f 76 75 98
f 76 98 99
f 749 741 580
f 630 580 741
f 292 306 307
f 293 292 307
f 77 76 99
f 77 99 100
f 524 525 497
f 524 497 496
f 294 293 307
f 294 307 308
f 526 498 497
f 525 526 497
f 78 77 100
f 78 100 101
f 730 724 630
f 723 630 724
f 732 730 630
f 741 732 630
f 313 314 296
f 313 296 295
f 79 78 101
f 79 101 102
f 526 527 499
f 526 499 498
f 689 676 630
f 673 630 676
f 634 630 673
f 314 315 309
f 297 296 309
f 314 309 296
f 527 528 500
f 527 500 499
f 80 79 102
f 80 102 103
f 298 297 309
f 298 309 310
f 528 529 501
f 528 501 500
f 81 80 103
f 81 103 104
f 299 298 310
f 299 310 312
f 693 689 630
f 704 693 630
f 716 704 630
f 723 716 630
f 529 530 502
f 529 502 501
f 82 81 104
f 82 104 105
f 312 318 300
f 312 300 299
f 317 318 312
f 773 757 582
f 755 582 757
f 530 531 503
f 530 503 502
f 82 105 106
f 83 82 106
f 318 319 301
f 318 301 300
f 531 532 504
f 531 504 503
f 84 83 106
f 84 106 107
f 735 728 301
f 319 320 735
f 319 735 301
f 519 520 507
f 519 507 505
f 85 84 107
f 85 107 108
f 521 508 507
f 508 506 507
f 86 85 108
f 86 108 109
f 521 507 520
f 86 109 110
f 87 86 110
f 790 778 633
f 796 790 633
f 774 633 778
f 771 633 774
f 582 633 771
f 805 796 633
f 805 633 808
f 756 324 302
f 766 324 756
f 749 756 302
f 741 749 302
f 732 741 302
f 510 509 533
f 510 533 534
f 88 87 110
f 88 110 111
f 514 513 537
f 514 537 538
f 324 325 303
f 324 303 302
f 685 791 665
f 789 665 791
f 788 665 789
f 639 665 788
f 89 88 111
f 89 111 112
f 517 516 540
f 517 540 541
f 325 326 304
f 325 304 303
f 756 749 639
f 580 639 749
f 113 89 112
f 90 89 113
f 518 542 543
f 519 518 543
f 327 305 304
f 326 327 304
f 91 90 113
f 91 113 114
f 521 520 544
f 521 544 545
f 327 328 306
f 328 307 306
f 327 306 305
f 766 756 639
f 782 766 639
f 784 782 639
f 788 784 639
f 92 91 115
f 92 115 116
f 522 546 547
f 523 522 547
f 329 308 307
f 328 329 307
f 94 93 117
f 94 117 118
f 524 523 547
f 524 547 548
f 315 316 311
f 315 311 309
f 96 95 119
f 96 119 120
f 549 524 548
f 525 524 549
f 320 321 744
f 320 744 736
f 320 736 735
f 126 127 99
f 126 99 98
f 526 525 549
f 526 549 550
f 312 311 317
f 316 317 311
f 127 128 100
f 127 100 99
f 527 526 550
f 527 550 551
f 321 322 747
f 321 747 744
f 128 129 101
f 128 101 100
f 528 527 551
f 528 551 552
f 322 323 752
f 322 752 747
f 129 130 102
f 129 102 101
f 529 528 552
f 529 552 553
f 530 529 553
f 530 553 554
f 761 752 323
f 531 530 554
f 531 554 555
f 314 313 330
f 314 330 331
f 532 531 555
f 532 555 556
f 726 731 102
f 718 684 103
f 683 103 684
f 718 103 102
f 717 718 102
f 731 717 102
f 130 725 726
f 130 726 102
f 746 725 130
f 315 314 331
f 315 331 332
f 335 317 334
f 318 317 335
f 318 335 336
f 319 318 336
f 319 336 337
f 719 106 105
f 740 106 719
f 743 106 740
f 742 106 743
f 713 719 105
f 320 319 337
f 320 337 338
f 321 320 338
f 321 338 339
f 742 745 107
f 742 107 106
f 753 107 745
f 754 107 753
f 322 321 339
f 322 339 340
f 755 131 108
f 754 755 108
f 754 108 107
f 757 131 755
f 322 340 341
f 323 322 341
f 131 132 109
f 131 109 108
f 26 1 557
f 51 26 557
f 75 51 557
f 98 75 557
f 126 98 557
f 146 126 557
f 163 146 557
f 185 163 557
f 202 185 557
f 218 202 557
f 233 218 557
f 247 233 557
f 559 262 247
f 559 279 262
f 559 295 279
f 559 313 295
f 559 330 313
f 559 365 330
f 559 388 365
f 559 457 388
f 559 481 457
f 559 509 481
f 559 247 557
f 533 509 559
f 761 323 341
f 769 341 342
f 768 769 342
f 761 341 769
f 132 133 110
f 132 110 109
f 134 111 110
f 133 134 110
f 784 343 325
f 782 325 324
f 784 325 782
f 135 112 111
f 134 135 111
f 344 325 343
f 326 325 344
f 326 344 345
f 135 136 113
f 135 113 112
f 327 326 345
f 327 345 346
f 137 114 113
f 136 137 113
f 347 327 346
f 328 327 347
f 124 122 114
f 138 124 137
f 137 124 114
f 329 328 347
f 329 347 348
f 115 114 122
f 123 115 122
f 366 331 330
f 365 366 330
f 125 140 123
f 116 115 123
f 140 116 123
f 125 139 140
f 534 533 559
f 535 534 559
f 536 535 559
f 537 536 559
f 538 537 559
f 539 538 559
f 540 539 559
f 541 540 559
f 542 541 559
f 543 542 559
f 544 543 559
f 545 544 559
f 546 545 559
f 547 546 559
f 548 547 559
f 549 548 559
f 560 550 549
f 560 551 550
f 560 552 551
f 560 553 552
f 560 554 553
f 560 555 554
f 560 549 559
f 556 555 560
f 366 367 332
f 366 332 331
f 140 141 117
f 140 117 116
f 367 368 333
f 367 333 332
f 141 142 118
f 141 118 117
f 369 334 333
f 368 369 333
f 142 143 119
f 142 119 118
f 369 370 335
f 369 335 334
f 143 144 120
f 143 120 119
f 370 371 349
f 370 349 335
f 144 145 121
f 144 121 120
f 338 337 350
f 373 338 350
f 372 373 350
f 373 374 351
f 373 351 338
f 123 122 124
f 123 124 125
f 125 124 138
f 139 125 138
f 340 339 351
f 340 351 352
f 342 341 354
f 342 354 355
f 127 126 146
f 127 146 147
f 127 147 148
f 128 127 148
f 779 342 355
f 786 779 355
f 786 355 356
f 504 532 560
f 532 556 560
f 480 504 560
f 454 480 560
f 433 454 560
f 411 433 560
f 387 411 560
f 348 387 560
f 329 348 560
f 308 329 560
f 294 308 560
f 278 294 560
f 261 278 560
f 558 246 261
f 558 232 246
f 558 217 232
f 558 201 217
f 558 179 201
f 558 162 179
f 558 145 162
f 558 121 145
f 558 97 121
f 558 74 97
f 558 50 74
f 558 261 560
f 25 50 558
f 129 128 148
f 129 148 149
f 791 344 343
f 791 357 344
f 791 343 789
f 129 149 150
f 130 129 150
f 344 357 358
f 360 358 357
f 346 345 358
f 346 358 361
f 778 132 131
f 778 151 132
f 778 131 774
f 385 386 347
f 361 385 347
f 361 347 346
f 133 132 151
f 133 151 152
f 386 387 348
f 386 348 347
f 134 133 152
f 134 152 153
f 371 372 350
f 371 350 349
f 135 134 153
f 135 153 154
f 374 375 352
f 374 352 351
f 171 135 154
f 136 135 171
f 172 155 171
f 136 171 155
f 375 376 353
f 375 353 352
f 137 136 155
f 137 155 156
f 24 25 558
f 23 24 558
f 22 23 558
f 21 22 558
f 20 21 558
f 19 20 558
f 557 18 19
f 557 17 18
f 557 16 17
f 557 15 16
f 557 14 15
f 557 13 14
f 557 12 13
f 557 11 12
f 557 10 11
f 557 9 10
f 557 8 9
f 557 7 8
f 557 6 7
f 557 5 6
f 557 4 5
f 557 3 4
f 557 2 3
f 557 19 558
f 1 2 557
f 376 377 362
f 376 362 353
f 138 137 156
f 157 138 156
f 362 359 354
f 362 354 353
f 140 139 157
f 140 157 158
f 356 355 359
f 356 359 363
f 142 141 159
f 142 159 176
f 175 176 159
f 792 787 356
f 363 792 356
f 379 792 363
f 669 103 668
f 675 103 669
f 680 103 675
f 104 103 680
f 681 104 680
f 682 104 681
f 683 668 103
f 176 177 160
f 176 160 142
f 144 143 160
f 144 160 161
f 357 791 685
f 360 685 687
f 360 357 685
f 360 687 382
f 688 382 687
f 147 146 163
f 147 163 164
f 358 360 361
f 364 361 360
f 148 147 164
f 148 164 165
f 379 380 795
f 379 795 792
f 695 104 682
f 696 104 695
f 703 104 696
f 105 104 703
f 105 703 707
f 105 707 708
f 712 105 708
f 713 105 712
f 382 383 364
f 382 364 360
f 790 167 151
f 790 151 778
f 381 405 679
f 692 679 405
f 385 361 364
f 385 364 384
f 152 151 167
f 152 167 168
f 253 704 269
f 693 704 253
f 153 152 168
f 153 168 169
f 678 798 380
f 795 380 798
f 678 380 381
f 405 427 697
f 709 697 427
f 154 153 169
f 154 169 170
f 427 449 711
f 729 711 449
f 366 365 388
f 366 388 389
f 157 156 173
f 174 157 173
f 158 157 174
f 367 366 389
f 367 389 390
f 733 449 734
f 729 449 733
f 367 390 391
f 368 367 391
f 159 158 174
f 159 174 175
f 369 368 391
f 369 391 392
f 178 160 177
f 161 160 178
f 759 150 760
f 130 150 759
f 758 130 759
f 762 130 758
f 746 130 762
f 370 369 392
f 370 392 393
f 162 161 178
f 162 178 179
f 186 164 163
f 185 186 163
f 770 767 476
f 475 476 767
f 765 475 767
f 371 370 393
f 371 393 394
f 186 187 165
f 186 165 164
f 372 371 394
f 372 394 395
f 187 188 180
f 187 180 165
f 396 372 395
f 373 372 396
f 772 131 773
f 757 773 131
f 771 131 772
f 774 131 771
f 796 168 167
f 805 168 796
f 374 373 396
f 374 396 397
f 776 149 166
f 776 166 775
f 150 149 776
f 375 374 397
f 375 397 398
f 805 808 190
f 805 190 169
f 805 169 168
f 807 190 808
f 150 776 777
f 760 150 777
f 375 398 399
f 376 375 399
f 190 191 170
f 190 170 169
f 343 784 788
f 789 343 788
f 377 376 399
f 377 399 400
f 191 183 181
f 191 181 170
f 192 183 191
f 793 180 794
f 166 180 793
f 378 377 400
f 378 400 401
f 171 170 181
f 182 171 181
f 379 378 401
f 379 401 402
f 764 166 793
f 763 166 764
f 775 166 763
f 184 194 182
f 172 171 182
f 194 172 182
f 184 193 194
f 380 379 402
f 380 402 403
f 180 797 801
f 802 180 801
f 794 180 802
f 194 195 173
f 194 173 172
f 404 380 403
f 381 380 404
f 195 196 174
f 195 174 173
f 803 189 804
f 799 189 803
f 800 189 799
f 197 175 174
f 196 197 174
f 701 406 382
f 701 382 706
f 702 406 701
f 688 706 382
f 197 198 176
f 197 176 175
f 383 382 406
f 383 406 407
f 189 206 810
f 672 810 206
f 811 189 810
f 671 672 206
f 198 199 177
f 198 177 176
f 384 383 407
f 384 407 408
f 199 200 178
f 199 178 177
f 385 384 408
f 385 408 409
f 200 201 179
f 200 179 178
f 386 385 409
f 386 409 410
f 182 181 183
f 182 183 184
f 387 386 410
f 387 410 411
f 800 188 189
f 797 188 800
f 180 188 797
f 457 458 412
f 389 388 412
f 457 412 388
f 184 183 192
f 193 184 192
f 389 412 413
f 390 389 413
f 186 185 202
f 186 202 203
f 435 414 413
f 391 390 413
f 391 413 414
f 186 203 204
f 187 186 204
f 392 391 414
f 392 414 415
f 813 207 191
f 812 191 190
f 813 191 812
f 393 392 415
f 393 415 416
f 394 393 416
f 394 416 438
f 208 191 207
f 192 191 208
f 193 192 208
f 193 208 209
f 438 395 394
f 464 395 438
f 463 464 438
f 462 463 438
f 462 438 437
f 194 193 209
f 194 209 210
f 212 195 211
f 196 195 212
f 439 417 395
f 465 455 439
f 396 395 417
f 464 465 439
f 396 417 418
f 464 439 395
f 397 396 418
f 397 418 441
f 398 397 419
f 441 419 397
f 467 419 441
f 467 441 456
f 466 467 456
f 197 196 212
f 197 212 213
f 399 398 419
f 399 419 420
f 198 197 213
f 198 213 214
f 400 399 420
f 400 420 421
f 198 214 215
f 199 198 215
f 401 400 421
f 444 422 421
f 401 421 422
f 200 199 215
f 200 215 216
f 404 403 424
f 404 424 425
f 201 200 216
f 201 216 217
f 203 202 218
f 203 218 219
f 204 203 219
f 204 219 220
f 204 220 221
f 205 204 221
f 206 205 221
f 206 221 222
f 670 206 222
f 671 206 670
f 806 670 222
f 809 806 222
f 674 223 208
f 674 208 207
f 674 207 814
f 209 208 223
f 209 223 224
f 209 224 225
f 210 209 225
f 211 210 225
f 211 225 226
f 212 211 226
f 212 226 227
f 213 212 227
f 213 227 228
