v -2 -2 0.060000000000000026
v -2 -1.8999999999999999 0.046000000000000013
v -2 -1.8 0.032000000000000056
v -2 -1.7 0.018000000000000016
v -2 -1.6000000000000001 0.0040000000000000313
v -2 -1.2999999999999998 -0.038000000000000006
v -2 -1.1000000000000001 -0.065999999999999975
v -2 -0.79999999999999982 -0.10800000000000001
v -2 -0.69999999999999996 -0.122
v -2 -0.59999999999999987 -0.13600000000000001
v -2 -0.5 -0.14999999999999999
v -2 -0.29999999999999982 -0.17800000000000002
v -2 -0.19999999999999996 -0.192
v -2 -0.099999999999999867 -0.20600000000000002
v -2 0 -0.22
v -2 0.20000000000000018 -0.24800000000000003
v -2 0.30000000000000027 -0.26200000000000007
v -2 0.40000000000000036 -0.27600000000000008
v -2 0.5 -0.29000000000000004
v -2 0.90000000000000036 -0.34600000000000009
v -2 1 -0.35999999999999999
v -2 1.4000000000000004 -0.41600000000000004
v -2 1.5 -0.43000000000000005
v -2 1.9000000000000004 -0.4860000000000001
v -2 2 -0.5
v -1.8999999999999999 -2 0.071000000000000035
v -1.8999999999999999 -1.8999999999999999 0.057000000000000023
v -1.8999999999999999 -1.8 0.043000000000000066
v -1.8999999999999999 -1.7 0.029000000000000026
v -1.8999999999999999 -1.6000000000000001 0.015000000000000041
v -1.8999999999999999 -1.2999999999999998 -0.026999999999999996
v -1.8999999999999999 -1.1000000000000001 -0.054999999999999966
v -1.8999999999999999 -0.79999999999999982 -0.097000000000000003
v -1.8999999999999999 -0.69999999999999996 -0.11099999999999999
v -1.8999999999999999 -0.59999999999999987 -0.125
v -1.8999999999999999 -0.5 -0.13899999999999998
v -1.8999999999999999 -0.29999999999999982 -0.16700000000000001
v -1.8999999999999999 -0.19999999999999996 -0.18099999999999999
v -1.8999999999999999 -0.099999999999999867 -0.19500000000000001
v -1.8999999999999999 0 -0.20899999999999999
v -1.8999999999999999 0.20000000000000018 -0.23700000000000002
v -1.8999999999999999 0.30000000000000027 -0.25100000000000006
v -1.8999999999999999 0.40000000000000036 -0.26500000000000007
v -1.8999999999999999 0.5 -0.27900000000000003
v -1.8999999999999999 0.90000000000000036 -0.33500000000000008
v -1.8999999999999999 1 -0.34899999999999998
v -1.8999999999999999 1.4000000000000004 -0.40500000000000003
v -1.8999999999999999 1.5 -0.41900000000000004
v -1.8999999999999999 1.9000000000000004 -0.47500000000000009
v -1.8999999999999999 2 -0.48899999999999999
v -1.8 -2 0.082000000000000017
v -1.8 -1.8999999999999999 0.068000000000000005
v -1.8 -1.8 0.054000000000000048
v -1.8 -1.7 0.040000000000000008
v -1.8 -1.6000000000000001 0.026000000000000023
v -1.8 -1.2999999999999998 -0.016000000000000014
v -1.8 -1.1000000000000001 -0.043999999999999984
v -1.8 -0.79999999999999982 -0.086000000000000021
v -1.8 -0.69999999999999996 -0.10000000000000001
v -1.8 -0.59999999999999987 -0.11400000000000002
v -1.8 -0.5 -0.128
v -1.8 -0.29999999999999982 -0.15600000000000003
v -1.8 -0.19999999999999996 -0.17000000000000001
v -1.8 -0.099999999999999867 -0.18400000000000002
v -1.8 0 -0.19800000000000001
v -1.8 0.30000000000000027 -0.24000000000000005
v -1.8 0.40000000000000036 -0.25400000000000006
v -1.8 0.5 -0.26800000000000002
v -1.8 0.90000000000000036 -0.32400000000000007
v -1.8 1 -0.33800000000000002
v -1.8 1.4000000000000004 -0.39400000000000007
v -1.8 1.5 -0.40800000000000003
v -1.8 1.9000000000000004 -0.46400000000000008
v -1.8 2 -0.47800000000000004
v -1.7 -2 0.093000000000000027
v -1.7 -1.8999999999999999 0.079000000000000015
v -1.7 -1.8 0.065000000000000058
v -1.7 -1.7 0.051000000000000018
v -1.7 -1.6000000000000001 0.037000000000000033
v -1.7 -1.2999999999999998 -0.0050000000000000044
v -1.7 -1.1000000000000001 -0.032999999999999974
v -1.7 -0.79999999999999982 -0.075000000000000011
v -1.7 -0.69999999999999996 -0.088999999999999996
v -1.7 -0.59999999999999987 -0.10300000000000001
v -1.7 -0.5 -0.11699999999999999
v -1.7 -0.29999999999999982 -0.14500000000000002
v -1.7 -0.19999999999999996 -0.159
v -1.7 -0.099999999999999867 -0.17300000000000001
v -1.7 0 -0.187
v -1.7 0.40000000000000036 -0.24300000000000005
v -1.7 0.5 -0.25700000000000001
v -1.7 0.90000000000000036 -0.31300000000000006
v -1.7 1 -0.32700000000000001
v -1.7 1.4000000000000004 -0.38300000000000006
v -1.7 1.5 -0.39700000000000002
v -1.7 1.9000000000000004 -0.45300000000000007
v -1.7 2 -0.46700000000000003
v -1.6000000000000001 -2 0.10400000000000001
v -1.6000000000000001 -1.8999999999999999 0.089999999999999997
v -1.6000000000000001 -1.8 0.07600000000000004
v -1.6000000000000001 -1.7 0.062
v -1.6000000000000001 -1.6000000000000001 0.048000000000000015
v -1.6000000000000001 -1.2999999999999998 0.0059999999999999776
v -1.6000000000000001 -1.1000000000000001 -0.021999999999999992
v -1.6000000000000001 -0.79999999999999982 -0.064000000000000029
v -1.6000000000000001 -0.69999999999999996 -0.078000000000000014
v -1.6000000000000001 -0.59999999999999987 -0.092000000000000026
v -1.6000000000000001 -0.5 -0.10600000000000001
v -1.6000000000000001 -0.29999999999999982 -0.13400000000000004
v -1.6000000000000001 -0.19999999999999996 -0.14800000000000002
v -1.6000000000000001 -0.099999999999999867 -0.16200000000000003
v -1.6000000000000001 0 -0.17600000000000002
v -1.6000000000000001 0.40000000000000036 -0.23200000000000007
v -1.6000000000000001 0.5 -0.24600000000000002
v -1.6000000000000001 0.60000000000000009 -0.26000000000000001
v -1.6000000000000001 0.90000000000000036 -0.30200000000000005
v -1.6000000000000001 1 -0.31600000000000006
v -1.6000000000000001 1.4000000000000004 -0.37200000000000011
v -1.6000000000000001 1.5 -0.38600000000000001
v -1.6000000000000001 1.9000000000000004 -0.44200000000000006
v -1.6000000000000001 2 -0.45600000000000007
v -1.5 0.60000000000000009 -0.24900000000000003
v -1.5 0.70000000000000018 -0.26300000000000001
v -1.3999999999999999 0.60000000000000009 -0.23800000000000002
v -1.3999999999999999 0.70000000000000018 -0.252
v -1.2999999999999998 -2 0.13700000000000004
v -1.2999999999999998 -1.8999999999999999 0.12300000000000003
v -1.2999999999999998 -1.8 0.10900000000000007
v -1.2999999999999998 -1.7 0.095000000000000029
v -1.2999999999999998 -1.6000000000000001 0.081000000000000044
v -1.2999999999999998 -0.5 -0.072999999999999982
v -1.2999999999999998 -0.29999999999999982 -0.10100000000000001
v -1.2999999999999998 -0.19999999999999996 -0.11499999999999999
v -1.2999999999999998 -0.099999999999999867 -0.129
v -1.2999999999999998 0 -0.14299999999999999
v -1.2999999999999998 0.40000000000000036 -0.19900000000000004
v -1.2999999999999998 0.5 -0.21299999999999999
v -1.2999999999999998 0.70000000000000018 -0.24100000000000002
v -1.2999999999999998 0.80000000000000027 -0.255
v -1.2999999999999998 0.90000000000000036 -0.26900000000000002
v -1.2999999999999998 1 -0.28300000000000003
v -1.2999999999999998 1.4000000000000004 -0.33900000000000008
v -1.2999999999999998 1.5 -0.35299999999999998
v -1.2999999999999998 1.9000000000000004 -0.40900000000000003
v -1.2999999999999998 2 -0.42300000000000004
v -1.2 -2 0.14800000000000002
v -1.2 -1.8999999999999999 0.13400000000000001
v -1.2 -1.8 0.12000000000000005
v -1.2 -1.7 0.10600000000000001
v -1.2 -1.6000000000000001 0.092000000000000026
v -1.2 -0.29999999999999982 -0.090000000000000024
v -1.2 -0.19999999999999996 -0.10400000000000001
v -1.2 -0.099999999999999867 -0.11800000000000002
v -1.2 0 -0.13200000000000001
v -1.2 0.40000000000000036 -0.18800000000000006
v -1.2 0.5 -0.20200000000000001
v -1.2 0.80000000000000027 -0.24400000000000005
v -1.2 0.90000000000000036 -0.25800000000000006
v -1.2 1 -0.27200000000000002
v -1.2 1.5 -0.34200000000000003
v -1.2 1.9000000000000004 -0.39800000000000008
v -1.2 2 -0.41200000000000003
v -1.1000000000000001 -2 0.15900000000000003
v -1.1000000000000001 -1.8999999999999999 0.14500000000000002
v -1.1000000000000001 -1.8 0.13100000000000006
v -1.1000000000000001 -1.7 0.11700000000000001
v -1.1000000000000001 -0.29999999999999982 -0.079000000000000029
v -1.1000000000000001 -0.19999999999999996 -0.093000000000000013
v -1.1000000000000001 -0.099999999999999867 -0.10700000000000003
v -1.1000000000000001 0 -0.12100000000000001
v -1.1000000000000001 0.10000000000000009 -0.13500000000000004
v -1.1000000000000001 0.40000000000000036 -0.17700000000000007
v -1.1000000000000001 0.5 -0.191
v -1.1000000000000001 0.90000000000000036 -0.24700000000000005
v -1.1000000000000001 1 -0.26100000000000001
v -1.1000000000000001 1.4000000000000004 -0.31700000000000006
v -1.1000000000000001 1.5 -0.33100000000000002
v -1.1000000000000001 1.9000000000000004 -0.38700000000000007
v -1.1000000000000001 2 -0.40100000000000002
v -1 -1.7 0.128
v -1 0.10000000000000009 -0.12400000000000001
v -1 0.20000000000000018 -0.13800000000000004
v -0.89999999999999991 0.10000000000000009 -0.113
v -0.89999999999999991 0.20000000000000018 -0.12700000000000003
v -0.79999999999999982 -2 0.19200000000000006
v -0.79999999999999982 -1.8999999999999999 0.17800000000000005
v -0.79999999999999982 -1.8 0.16400000000000009
v -0.79999999999999982 -1.7 0.15000000000000002
v -0.79999999999999982 -1.6000000000000001 0.13600000000000007
v -0.79999999999999982 -0.099999999999999867 -0.073999999999999996
v -0.79999999999999982 0 -0.087999999999999981
v -0.79999999999999982 0.20000000000000018 -0.11600000000000001
v -0.79999999999999982 0.30000000000000027 -0.13000000000000003
v -0.79999999999999982 0.40000000000000036 -0.14400000000000004
v -0.79999999999999982 0.5 -0.15799999999999997
v -0.79999999999999982 0.90000000000000036 -0.21400000000000002
v -0.79999999999999982 1 -0.22799999999999998
v -0.79999999999999982 1.4000000000000004 -0.28400000000000003
v -0.79999999999999982 1.5 -0.29799999999999999
v -0.79999999999999982 1.9000000000000004 -0.35400000000000004
v -0.79999999999999982 2 -0.36799999999999999
v -0.69999999999999996 -2 0.20300000000000001
v -0.69999999999999996 -1.8999999999999999 0.189
v -0.69999999999999996 -1.8 0.17500000000000004
v -0.69999999999999996 -1.7 0.16100000000000003
v -0.69999999999999996 -1.6000000000000001 0.14700000000000002
v -0.69999999999999996 0 -0.076999999999999999
v -0.69999999999999996 0.20000000000000018 -0.10500000000000002
v -0.69999999999999996 0.30000000000000027 -0.11900000000000005
v -0.69999999999999996 0.90000000000000036 -0.20300000000000007
v -0.69999999999999996 1 -0.21700000000000003
v -0.69999999999999996 1.4000000000000004 -0.27300000000000008
v -0.69999999999999996 1.5 -0.28700000000000003
v -0.69999999999999996 1.9000000000000004 -0.34300000000000008
v -0.69999999999999996 2 -0.35700000000000004
v -0.59999999999999987 -2 0.21400000000000002
v -0.59999999999999987 -1.8999999999999999 0.20000000000000001
v -0.59999999999999987 -1.8 0.18600000000000005
v -0.59999999999999987 -1.7 0.17200000000000004
v -0.59999999999999987 -1.6000000000000001 0.15800000000000003
v -0.59999999999999987 0.90000000000000036 -0.19200000000000006
v -0.59999999999999987 1 -0.20600000000000002
v -0.59999999999999987 1.4000000000000004 -0.26200000000000007
v -0.59999999999999987 1.5 -0.27600000000000002
v -0.59999999999999987 1.9000000000000004 -0.33200000000000007
v -0.59999999999999987 2 -0.34600000000000003
v -0.5 -2 0.22500000000000003
v -0.5 -1.8999999999999999 0.21100000000000002
v -0.5 -1.8 0.19700000000000006
v -0.5 -1.7 0.18300000000000002
v -0.5 -1.6000000000000001 0.16900000000000004
v -0.5 0.90000000000000036 -0.18100000000000005
v -0.5 1 -0.19500000000000001
v -0.5 1.4000000000000004 -0.25100000000000006
v -0.5 1.5 -0.26500000000000001
v -0.5 1.9000000000000004 -0.32100000000000006
v -0.5 2 -0.33500000000000002
v -0.29999999999999982 -2 0.24700000000000005
v -0.29999999999999982 -1.8999999999999999 0.23300000000000004
v -0.29999999999999982 -1.8 0.21900000000000008
v -0.29999999999999982 -1.7 0.20500000000000004
v -0.29999999999999982 -1.6000000000000001 0.19100000000000006
v -0.29999999999999982 -1.2999999999999998 0.14900000000000002
v -0.29999999999999982 0.90000000000000036 -0.15900000000000003
v -0.29999999999999982 1 -0.17299999999999999
v -0.29999999999999982 1.4000000000000004 -0.22900000000000004
v -0.29999999999999982 1.5 -0.24299999999999999
v -0.29999999999999982 1.6000000000000001 -0.25700000000000001
v -0.29999999999999982 1.9000000000000004 -0.29900000000000004
v -0.29999999999999982 2 -0.313
v -0.19999999999999996 -2 0.25800000000000001
v -0.19999999999999996 -1.8999999999999999 0.24400000000000002
v -0.19999999999999996 -1.8 0.23000000000000007
v -0.19999999999999996 -1.7 0.21600000000000003
v -0.19999999999999996 -1.6000000000000001 0.20200000000000004
v -0.19999999999999996 -1.2999999999999998 0.16
v -0.19999999999999996 -1.1000000000000001 0.13200000000000003
v -0.19999999999999996 0.90000000000000036 -0.14800000000000005
v -0.19999999999999996 1 -0.16200000000000001
v -0.19999999999999996 1.4000000000000004 -0.21800000000000005
v -0.19999999999999996 1.5 -0.23200000000000001
v -0.19999999999999996 1.6000000000000001 -0.24600000000000002
v -0.19999999999999996 1.7000000000000002 -0.26000000000000006
v -0.19999999999999996 1.9000000000000004 -0.28800000000000009
v -0.19999999999999996 2 -0.30200000000000005
v -0.099999999999999867 -2 0.26900000000000002
v -0.099999999999999867 -1.8999999999999999 0.255
v -0.099999999999999867 -1.8 0.24100000000000008
v -0.099999999999999867 -1.7 0.22700000000000004
v -0.099999999999999867 -1.6000000000000001 0.21300000000000005
v -0.099999999999999867 -1.2999999999999998 0.17100000000000001
v -0.099999999999999867 -1.1000000000000001 0.14300000000000004
v -0.099999999999999867 0.90000000000000036 -0.13700000000000004
v -0.099999999999999867 1 -0.151
v -0.099999999999999867 1.4000000000000004 -0.20700000000000005
v -0.099999999999999867 1.5 -0.221
v -0.099999999999999867 1.7000000000000002 -0.24900000000000003
v -0.099999999999999867 1.8000000000000003 -0.26300000000000007
v -0.099999999999999867 1.9000000000000004 -0.27700000000000008
v -0.099999999999999867 2 -0.29100000000000004
v 0 -2 0.28000000000000003
v 0 -1.8999999999999999 0.26600000000000001
v 0 -1.8 0.25200000000000006
v 0 -1.7 0.23800000000000002
v 0 -1.6000000000000001 0.22400000000000003
v 0 -1.2999999999999998 0.182
v 0 -1.1000000000000001 0.15400000000000003
v 0 0.90000000000000036 -0.12600000000000006
v 0 1 -0.14000000000000001
v 0 1.4000000000000004 -0.19600000000000006
v 0 1.5 -0.21000000000000002
v 0 1.8000000000000003 -0.25200000000000006
v 0 1.9000000000000004 -0.26600000000000007
v 0 2 -0.28000000000000003
v 0.10000000000000009 -1.8 0.26300000000000007
v 0.10000000000000009 -1.7 0.24900000000000003
v 0.20000000000000018 -1.7 0.26000000000000001
v 0.20000000000000018 -1.6000000000000001 0.24600000000000005
v 0.40000000000000036 -2 0.32400000000000007
v 0.40000000000000036 -1.8999999999999999 0.31000000000000005
v 0.40000000000000036 -1.8 0.2960000000000001
v 0.40000000000000036 -1.7 0.28200000000000003
v 0.40000000000000036 -1.6000000000000001 0.26800000000000007
v 0.40000000000000036 0.90000000000000036 -0.082000000000000017
v 0.40000000000000036 1 -0.095999999999999974
v 0.40000000000000036 1.4000000000000004 -0.15200000000000002
v 0.40000000000000036 1.5 -0.16599999999999998
v 0.40000000000000036 1.9000000000000004 -0.22200000000000003
v 0.40000000000000036 2 -0.23599999999999999
v 0.5 -2 0.33500000000000002
v 0.5 -1.8999999999999999 0.32100000000000001
v 0.5 -1.8 0.30700000000000005
v 0.5 -1.7 0.29300000000000004
v 0.5 -1.6000000000000001 0.27900000000000003
v 0.5 1 -0.08500000000000002
v 0.5 1.3000000000000003 -0.12700000000000006
v 0.5 1.4000000000000004 -0.14100000000000007
v 0.5 1.5 -0.15500000000000003
v 0.5 1.9000000000000004 -0.21100000000000008
v 0.5 2 -0.22500000000000003
v 0.60000000000000009 1.3000000000000003 -0.11600000000000003
v 0.60000000000000009 1.4000000000000004 -0.13000000000000006
v 0.70000000000000018 1.4000000000000004 -0.11900000000000004
v 0.70000000000000018 1.5 -0.13300000000000001
v 0.80000000000000027 1.5 -0.12199999999999998
v 0.90000000000000036 -2 0.37900000000000006
v 0.90000000000000036 -1.8999999999999999 0.36500000000000005
v 0.90000000000000036 -1.8 0.35100000000000009
v 0.90000000000000036 -1.7 0.33700000000000008
v 0.90000000000000036 0 0.099000000000000046
v 0.90000000000000036 0.20000000000000018 0.071000000000000021
v 0.90000000000000036 1.4000000000000004 -0.097000000000000017
v 0.90000000000000036 1.5 -0.11099999999999997
v 0.90000000000000036 1.6000000000000001 -0.12499999999999999
v 0.90000000000000036 1.7000000000000002 -0.13900000000000001
v 0.90000000000000036 1.9000000000000004 -0.16700000000000004
v 0.90000000000000036 2 -0.18099999999999999
v 1 -2 0.39000000000000001
v 1 -1.8999999999999999 0.376
v 1 -1.8 0.36200000000000004
v 1 -0.099999999999999867 0.12399999999999999
v 1 0 0.11
v 1 0.20000000000000018 0.081999999999999976
v 1 0.30000000000000027 0.067999999999999949
v 1 1.4000000000000004 -0.086000000000000063
v 1 1.5 -0.10000000000000002
v 1 1.6000000000000001 -0.11400000000000003
v 1 1.7000000000000002 -0.12800000000000006
v 1 1.9000000000000004 -0.15600000000000008
v 1 2 -0.17000000000000004
v 1.1000000000000001 -1.8999999999999999 0.38700000000000001
v 1.1000000000000001 -1.8 0.37300000000000005
v 1.1000000000000001 -0.19999999999999996 0.14900000000000002
v 1.1000000000000001 -0.099999999999999867 0.13499999999999998
v 1.1000000000000001 0 0.12100000000000001
v 1.1000000000000001 0.20000000000000018 0.092999999999999985
v 1.1000000000000001 0.30000000000000027 0.078999999999999959
v 1.1000000000000001 0.40000000000000036 0.064999999999999947
v 1.1000000000000001 1.4000000000000004 -0.075000000000000053
v 1.1000000000000001 1.5 -0.08900000000000001
v 1.1000000000000001 1.7000000000000002 -0.11700000000000003
v 1.1000000000000001 1.8000000000000003 -0.13100000000000006
v 1.1000000000000001 1.9000000000000004 -0.14500000000000007
v 1.1000000000000001 2 -0.15900000000000003
v 1.2000000000000002 -1.8 0.38400000000000012
v 1.2000000000000002 -1.7 0.37000000000000005
v 1.2000000000000002 -0.29999999999999982 0.17400000000000002
v 1.2000000000000002 -0.19999999999999996 0.16000000000000003
v 1.2000000000000002 -0.099999999999999867 0.14600000000000002
v 1.2000000000000002 0 0.13200000000000003
v 1.2000000000000002 0.30000000000000027 0.089999999999999997
v 1.2000000000000002 0.40000000000000036 0.075999999999999984
v 1.2000000000000002 0.5 0.062000000000000027
v 1.2000000000000002 1.4000000000000004 -0.064000000000000029
v 1.2000000000000002 1.5 -0.077999999999999986
v 1.2000000000000002 1.8000000000000003 -0.12000000000000002
v 1.2000000000000002 1.9000000000000004 -0.13400000000000004
v 1.2000000000000002 2 -0.14799999999999999
v 1.4000000000000004 -2 0.43400000000000005
v 1.4000000000000004 -1.8999999999999999 0.42000000000000004
v 1.4000000000000004 -1.8 0.40600000000000014
v 1.4000000000000004 -1.7 0.39200000000000007
v 1.4000000000000004 -1.6000000000000001 0.37800000000000011
v 1.4000000000000004 -0.29999999999999982 0.19600000000000004
v 1.4000000000000004 -0.19999999999999996 0.18200000000000005
v 1.4000000000000004 -0.099999999999999867 0.16800000000000004
v 1.4000000000000004 0 0.15400000000000005
v 1.4000000000000004 0.40000000000000036 0.098000000000000004
v 1.4000000000000004 0.5 0.084000000000000047
v 1.4000000000000004 0.90000000000000036 0.027999999999999997
v 1.4000000000000004 1 0.01400000000000004
v 1.4000000000000004 1.4000000000000004 -0.04200000000000001
v 1.4000000000000004 1.5 -0.055999999999999966
v 1.4000000000000004 1.9000000000000004 -0.11200000000000002
v 1.4000000000000004 2 -0.12599999999999997
v 1.5 -2 0.44500000000000006
v 1.5 -1.8999999999999999 0.43100000000000005
v 1.5 -1.8 0.41700000000000004
v 1.5 -1.7 0.40300000000000002
v 1.5 -1.6000000000000001 0.38900000000000001
v 1.5 -0.5 0.23500000000000001
v 1.5 -0.29999999999999982 0.20699999999999999
v 1.5 -0.19999999999999996 0.193
v 1.5 -0.099999999999999867 0.17899999999999999
v 1.5 0 0.16500000000000001
v 1.5 0.40000000000000036 0.10899999999999996
v 1.5 0.5 0.095000000000000001
v 1.5 0.90000000000000036 0.038999999999999951
v 1.5 1 0.024999999999999994
v 1.5 1.4000000000000004 -0.031000000000000055
v 1.5 1.5 -0.045000000000000012
v 1.5 1.9000000000000004 -0.10100000000000006
v 1.5 2 -0.11500000000000002
v 1.6000000000000001 -0.59999999999999987 0.26000000000000001
v 1.6000000000000001 -0.5 0.24600000000000002
v 1.7000000000000002 -0.5 0.25700000000000001
v 1.8000000000000003 -0.29999999999999982 0.24000000000000002
v 1.9000000000000004 -2 0.4890000000000001
v 1.9000000000000004 -1.8999999999999999 0.47500000000000009
v 1.9000000000000004 -1.8 0.46100000000000008
v 1.9000000000000004 -1.7 0.44700000000000006
v 1.9000000000000004 -1.6000000000000001 0.43300000000000005
v 1.9000000000000004 -1.2999999999999998 0.39100000000000001
v 1.9000000000000004 -1.2 0.37700000000000006
v 1.9000000000000004 -1.1000000000000001 0.3630000000000001
v 1.9000000000000004 -0.79999999999999982 0.32100000000000006
v 1.9000000000000004 -0.69999999999999996 0.30700000000000005
v 1.9000000000000004 -0.59999999999999987 0.29300000000000004
v 1.9000000000000004 -0.5 0.27900000000000003
v 1.9000000000000004 -0.29999999999999982 0.251
v 1.9000000000000004 -0.19999999999999996 0.23700000000000004
v 1.9000000000000004 -0.099999999999999867 0.22300000000000003
v 1.9000000000000004 0 0.20900000000000005
v 1.9000000000000004 0.40000000000000036 0.153
v 1.9000000000000004 0.5 0.13900000000000004
v 1.9000000000000004 0.90000000000000036 0.08299999999999999
v 1.9000000000000004 1 0.069000000000000034
v 1.9000000000000004 1.4000000000000004 0.012999999999999984
v 1.9000000000000004 1.5 -0.00099999999999997313
v 1.9000000000000004 1.9000000000000004 -0.057000000000000023
v 1.9000000000000004 2 -0.07099999999999998
v 2 -2 0.5
v 2 -1.8999999999999999 0.48599999999999999
v 2 -1.8 0.47200000000000009
v 2 -1.7 0.45800000000000002
v 2 -1.6000000000000001 0.44400000000000006
v 2 -1.2999999999999998 0.40200000000000002
v 2 -1.2 0.38800000000000001
v 2 -1.1000000000000001 0.374
v 2 -0.79999999999999982 0.33199999999999996
v 2 -0.69999999999999996 0.318
v 2 -0.59999999999999987 0.30399999999999999
v 2 -0.5 0.29000000000000004
v 2 -0.29999999999999982 0.26200000000000001
v 2 -0.19999999999999996 0.248
v 2 -0.099999999999999867 0.23399999999999999
v 2 0 0.22
v 2 0.40000000000000036 0.16399999999999995
v 2 0.5 0.14999999999999999
v 2 0.90000000000000036 0.093999999999999945
v 2 1 0.079999999999999988
v 2 1.4000000000000004 0.023999999999999938
v 2 1.5 0.0099999999999999811
v 2 1.9000000000000004 -0.046000000000000069
v 2 2 -0.060000000000000026
v -2 -2 -0.90000000000000002
v -2 2 -0.90000000000000002
v 2 -2 -0.90000000000000002
v 2 2 -0.90000000000000002
v -1.02 -1.3480117784833934 -0.18545556584642803
v -1.2363118960624633 -1.5463118960624631 0.059999999999999942
v -0.80368810393753676 -1.5463118960624631 0.059999999999999942
v -1.02 -0.97999999999999998 -0.28999999999999998
v -1.3700000000000001 -1.1963118960624632 -0.15631189606246315
v -1.3700000000000001 -0.76368810393753672 -0.15631189606246315
v -1.1324354249480162 -1.4656463342923145 -0.08143251134331414
v -0.90756457505198385 -1.4656463342923145 -0.08143251134331414
v -1.02 -1.575455565846428 0.041988221516606417
v -1.02 -1.1712865702388702 -0.2633568504487423
v -0.60855032339526871 -1.4617336721649106 0.11227221707678597
v -0.83807566089457186 -1.2837219951868863 -0.19386793629133031
v -0.72227221707678602 -1.3914496766047311 -0.071733672164910722
v -0.83599411075830321 -1.0937218936815172 -0.25573956140660753
v -1.2019243391054282 -1.2837219951868863 -0.19386793629133031
v -1.511432511343314 -1.0924354249480162 -0.075646334292314377
v -1.3177277829232139 -1.3914496766047311 -0.071733672164910722
v -1.2040058892416967 -1.0937218936815172 -0.25573956140660753
v -1.5017336721649106 -1.2777277829232139 -0.0014496766047312204
v -1.2019243391054282 -0.67627800481311362 -0.19386793629133031
v -1.511432511343314 -0.86756457505198381 -0.075646334292314377
v -1.3177277829232139 -0.56855032339526879 -0.071733672164910722
v -1.2040058892416967 -0.86627810631848279 -0.25573956140660753
v -1.3880117784833936 -0.97999999999999998 -0.18545556584642792
v -1.0767604054103124 -1.4109494146115764 -0.13869012969397992
v -1.1859604277454032 -1.5110566101142799 -0.014777604490269935
v -0.96323959458968755 -1.4109494146115764 -0.13869012969397992
v -0.85403957225459681 -1.5110566101142799 -0.014777604490269935
v -1.02 -1.4720349213414412 -0.087897214473551366
v -1.1295041255281617 -1.5681245197289972 0.046519057190271607
v -0.91049587447183844 -1.5681245197289972 0.046519057190271607
v -1.0767992961339576 -1.5261430594970886 -0.02416770782941291
v -0.96320070386604228 -1.5261430594970886 -0.02416770782941291
v -1.02 -1.262348744032155 -0.23053039486308885
v -1.02 -1.0765665694893436 -0.2833072173698033
v -1.02 -0.88343343051065637 -0.2833072173698033
v -0.7022066501823172 -1.5105547940334434 0.08209910439313195
v -0.92815973483089098 -1.3191091494424674 -0.19545053510429239
v -0.75147038712046654 -1.2425269972347468 -0.18073803223567303
v -0.87088399404560923 -1.3798761613949959 -0.14485446048149692
v -0.92784124005355473 -1.2307601554406054 -0.23701322042794221
v -0.75977637587787084 -1.4749747468305832 -0.011050668505282024
v -0.69209910439313194 -1.2977933498176828 -0.12055479403344355
v -0.81279678519556198 -1.4331883257175568 -0.081616892720361489
v -0.66063719113868646 -1.4326044542584122 0.015022051763959932
v -0.77769288964770555 -1.3412851340357428 -0.13841618885431922
v -0.92685022710158604 -1.0375697256955536 -0.28138183841659642
v -0.74966883008868557 -1.1470738512237153 -0.21370456693185752
v -0.92704526622046834 -1.1340819192313047 -0.26647481818170732
v -0.83514207453865408 -1.1908812153652624 -0.23137092263385101
v -0.5673955457415879 -1.37497794823604 0.050637191138686477
v -0.62502205176395997 -1.3393628088613134 -0.042604454258412139
v -1.1118402651691091 -1.3191091494424674 -0.19545053510429239
v -1.2885296128795334 -1.2425269972347468 -0.18073803223567303
v -1.1691160059543908 -1.3798761613949959 -0.14485446048149692
v -1.1121587599464453 -1.2307601554406054 -0.23701322042794221
v -1.44477760449027 -1.1459604277454032 -0.12105661011428009
v -1.2802236241221292 -1.4749747468305832 -0.011050668505282024
v -1.3479008956068681 -1.2977933498176828 -0.12055479403344355
v -1.2272032148044381 -1.4331883257175568 -0.081616892720361489
v -1.3793628088613135 -1.4326044542584122 0.015022051763959932
v -1.2623071103522945 -1.3412851340357428 -0.13841618885431922
v -1.1131497728984139 -1.0375697256955536 -0.28138183841659642
v -1.2903311699113145 -1.1470738512237153 -0.21370456693185752
v -1.1129547337795318 -1.1340819192313047 -0.26647481818170732
v -1.2048579254613458 -1.1908812153652624 -0.23137092263385101
v -1.441050668505282 -1.2402236241221292 -0.084974746830583203
v -1.5116168927203615 -1.187203214804438 -0.043188325717556764
v -1.4149779482360401 -1.3393628088613134 -0.042604454258412139
v -1.2885296128795334 -0.71747300276525316 -0.18073803223567303
v -1.44477760449027 -0.81403957225459678 -0.12105661011428009
v -1.5178972144735514 -0.97999999999999998 -0.082034921341441247
v -1.3479008956068681 -0.66220665018231717 -0.12055479403344355
v -1.2623071103522945 -0.61871486596425718 -0.13841618885431922
v -1.1131497728984139 -0.92243027430444635 -0.28138183841659642
v -1.2903311699113145 -0.81292614877628477 -0.21370456693185752
v -1.1129547337795318 -0.82591808076869533 -0.26647481818170732
v -1.2064832907941971 -0.97999999999999998 -0.26470288442733575
v -1.2048579254613458 -0.76911878463473748 -0.23137092263385101
v -1.441050668505282 -0.7197763758778708 -0.084974746830583203
v -1.3834809428097286 -1.0895041255281617 -0.17812451972899718
v -1.3834809428097286 -0.8704958744718384 -0.17812451972899718
v -1.4541677078294128 -1.0367992961339578 -0.13614305949708866
v -1.2997249361912959 -1.0376265060223722 -0.22908774505260937
v -1.4541677078294128 -0.92320070386604225 -0.13614305949708866
v -1.2997249361912959 -0.92237349397762791 -0.22908774505260937
v 0.97999999999999998 1.02 -0.10999999999999999
v 1.3300000000000001 0.80368810393753676 0.023688103937536842
v 0.97999999999999998 1.2112865702388702 -0.083356850448742303
v 1.1640058892416967 0.90627810631848282 -0.075739561406607536
v 1.1640058892416967 1.1337218936815172 -0.075739561406607536
v 1.3480117784833936 1.02 -0.0054555658464279233
v 0.97999999999999998 1.1165665694893436 -0.10330721736980331
v 1.2485296128795333 0.7574730027652532 -0.00073803223567303622
v 1.0731497728984138 0.96243027430444639 -0.10138183841659643
v 1.2503311699113144 0.85292614877628481 -0.033704566931857527
v 1.0731497728984138 1.0775697256955536 -0.10138183841659643
v 1.2503311699113144 1.1870738512237153 -0.033704566931857527
v 1.0729547337795318 1.1740819192313048 -0.086474818181707325
v 1.1664832907941971 1.02 -0.084702884427335756
v 1.1648579254613458 1.2308812153652624 -0.051370922633851013
v 1.3434809428097285 0.91049587447183844 0.0018754802710028162
v 1.2597249361912959 0.96237349397762795 -0.049087745052609377
v 1.2597249361912959 1.0776265060223722 -0.049087745052609377
v 0.88704526622046831 1.1740819192313048 -0.086474818181707325
v -0.5303348468554101 -1.3977833898882548 0.13735284143026061
v -0.5 -1.3645428531617747 0.13603599944264849
v -1.5095308774039358 -1.2825467207781902 0.013508144394513701
v -1.5172049225236706 -1.2648694334942439 0.010189179211590382
v -0.67325113059707675 -1.5224463725661268 0.13908486779357931
v -0.69999999999999996 -1.536961658616929 0.13817463220637005
v -0.75273468320274617 -1.5655781582512138 0.13638012700286789
v -0.59999999999999987 0.052566452140073279 -0.07335930329961024
v -1.5378847423275206 -1.203437638673033 -0.00068605224180265162
v -0.44109909889890708 -1.2999999999999996 0.13347909912112021
v 0.87794782702188578 0.20000000000000018 0.068574260972407416
v 0.90000000000000036 0.2271225844334131 0.067202838179322211
v -1.5514811515071922 -1.1505856849438716 -0.0095809307736491097
v -1.5565530826218388 -1.1185312607324041 -0.014626462585865696
v -1.5581897056521226 -1.1000000000000001 -0.017400867621733453
v -1.4999361824479625 -1.2999999999999996 0.017007019930724107
v -1.4892281120054125 -1.3194785706286862 0.020911907567420684
v 0.85302859766648509 1.1951053765817061 -0.073481606978125502
v -0.29999999999999982 -1.1453854142933997 0.12735395800107596
v 0.88741030472245763 1.2184191537657232 -0.072963548007730888
v 0.90000000000000036 1.224035298077446 -0.072364941730842416
v 1.3206965268646842 0.7609655590801121 0.038741439683899578
v 1.2899466189958755 0.71891956821226277 0.041245388539829522
v 0.95925340109891954 0.30000000000000027 0.063517874120881099
v 1.3425021302741538 0.79596136249633076 0.036240643580670626
v -1.563313069672158 -1.0419888436582485 -0.02608599955178257
v -1.5631027765794261 -1.0305166128149017 -0.027668979629650634
v 1 0.35011538183406088 0.060983846543231468
v -0.25858190848757084 -1.1000000000000001 0.12555599006636722
v 1.3521521436141266 0.81860424045922464 0.034132142133262468
v -0.19999999999999996 -1.0358066948592124 0.12301293728028975
v 0.97999999999999998 1.2543983003298236 -0.067815762046175315
v 1 1.2566674489757252 -0.065933442856601535
v -1.5534745811359454 -0.94024276719646449 -0.039248216517448968
v 1.3701228748560839 0.88595775239433983 0.026679430898961673
v 0.93562150593444837 1.239925715876963 -0.070671234569985503
v -1.5446326318610188 -0.8998470452580789 -0.043931003168581027
v -1.5314201509122549 -0.85600456716358919 -0.048615577197445567
v 1.0405589751759532 0.40000000000000036 0.058461487269354809
v -0.55085071265598617 -1.4198134956217088 0.13818031099488079
v 1.1000000000000001 0.47310817923470916 0.054764854907140732
v -1.511556845422618 -0.8036597160681469 -0.053758892746947402
v -1.5099049020538255 -0.79999999999999982 -0.054089539225920837
v -0.099999999999999867 -0.92622797542502489 0.1186719165595035
v -0.59599661040889018 -1.4647062435554896 0.13949924695279065
v -1.4378125968786126 -1.3964804986284951 0.037347884151341916
v -1.4603433179929266 -1.3674001492832759 0.030798255920436717
v -1.5006737093821196 -0.77954921168181357 -0.055937218396579266
v 1.0722133668539675 1.2641276516010977 -0.059034400870217239
v 1.099186137789651 1.25913304773779 -0.055368151526428995
v 1.1000000000000001 1.2589443228390109 -0.055252205197461532
v -1.3269626451344834 -1.5038610504171135 0.064574656093602731
v -1.3521184412110783 -1.4836926272621236 0.058983939283478691
v 1.061055224791706 1.2635946180087911 -0.060187171794143103
v 1.1218645492529868 0.5 0.05340510041782854
v -1.397170358582396 -1.4425632023782158 0.048270108888886651
v -0 0.54579373621338467 -0.076411123069873854
v 1.1921922416458233 0.58649799622127241 0.049031427110062427
v 1.2000000000000002 0.59707466463258563 0.048409546951438037
v 1.2000000000000002 1.2256686032149513 -0.039593604450093169
v 1.1772075135738296 1.2385039149129311 -0.043897721594689139
v 1.1644433762728665 1.244000675733361 -0.046071323212655245
v -1.4866608522984586 -0.75404589561862778 -0.057966268366222554
v 0.015614914117764866 0.55828974861449454 -0.076442924253075098
v -1.4513911865436071 -0.69999999999999996 -0.0616530305197968
v -1.4583608323156065 -0.70907810629226187 -0.061148756673800035
v -1.4277520384827438 -0.66920952573842474 -0.063363390629722363
v -1.2999999999999998 -1.5211644592992117 0.069963024301889665
v 1.277567053911435 1.1702411491979916 -0.02330138495746097
v 0.10086882475764782 0.62651515904996236 -0.076616551543653474
v 1.2501356098826901 1.1974353438863963 -0.030126031056999566
v 1.2575783296768928 1.1915528422807435 -0.028483781654845879
v -1.3957310417979076 -0.63256501827980605 -0.064971312038597004
v -1.3600601091279736 -0.59999999999999987 -0.065606612004077094
v -1.3368004271961758 -0.57876556875312934 -0.066020867366141212
v 0.22058502390570212 0.72030909957792177 -0.076578921311281828
v -1.2999999999999998 -0.54647696752898123 -0.0664932245459426
v -1.2477021006520672 -1.5523319778385309 0.080079245825666931
v -1.221076448272538 -1.56407058334216 0.084651472357923183
v -1.2 -1.5717083542704842 0.088039169597867797
v -1.2906467591174398 -1.5271669472063309 0.071832229105967982
v -1.0938242729523591 -1.6031754797317197 0.10412389713768129
v -1.0632118186208299 -1.6081735969059039 0.10819100351853528
v 1.3715003908471508 0.90000000000000036 0.024865042993186533
v 0.40000000000000036 0.86087518601708846 -0.076522526042392333
v 1.3748224223379921 0.93386442629393807 0.020489446776027823
v 1.3693860314224235 1 0.010632463456466585
v -1.2484346962756523 -0.50149040144043056 -0.067119160388661461
v -1.2645556052674236 -0.5153781457394786 -0.066948176175889593
v -1.2731800322869646 -0.52294519607115675 -0.066837476101604162
v -1.2467046366298944 -0.5 -0.067137510029288389
v -1.1000000000000001 -1.6015994605550525 0.10322392447770735
v -1.1062675835152966 -1.6000000000000001 0.10231056581331739
v -1.1592163689092339 -1.586487696020509 0.094594476862855534
v -1.2 -0.45976516886070135 -0.067632876359501812
v 1.3692402098420298 1.0017739699053729 0.010368067295871078
v 1.3624862325600591 1.0324272882507299 0.0053336652265043253
v 0.44993791705566177 0.90000000000000036 -0.076506829123877254
v 1.3458721805240297 1.0717111677397166 -0.0019936236259170937
v 0.5 0.93922209411760615 -0.07649109317646488
v 1.3225933412932047 1.1165665573749983 -0.010834050490247254
v 0.51608524688837243 0.95182438771498079 -0.076486037122376366
v 0.58280830776015347 1 -0.075891086146383152
v -1.1000000000000001 -0.37361776671274144 -0.068693512660216199
v 0.6000000000000002 1.0124128043445397 -0.075737792608235557
v -1.0112106695524514 -1.6112106695524515 0.11433632008657357
v -1 -1.6118654169658684 0.11566115837522158
v -1.0145444147157203 -0.29999999999999982 -0.069599885618729249
v -0.90630696405611544 -1.6063069640561156 0.12518920892168353
v -0.8592377976155724 -1.5998037534241238 0.12945636774166444
v -0.86065819797871912 -1.5999999999999999 0.12932759822234094
v -0.95640997540820427 -1.6132293393765131 0.12064701021780938
v -0.96956460112779008 -1.6136429645596724 0.11925790891429723
v -0.84719264059047572 -1.5970214959587354 0.13039181896927066
v -0.79999999999999982 -1.5818104849958445 0.13345346789941825
v -0.8984643037586334 -0.19999999999999996 -0.070831073413449672
v -0.63327130758733829 -1.4945946802903061 0.13958341140603564
v -0.79999999999999971 -0.11531414448970263 -0.071856019771441598
v -0.80627900775509764 -0.12058476233054664 -0.071808824126784201
v -0.59999999999999987 -1.4679163315126333 0.13950828641176866
v -0.76056960419200148 -1.5691013808770202 0.13601153686166267
v -0.77315924003554193 -1.5731592400355423 0.13519477720106632
v -0.78175590890533353 -0.099999999999999867 -0.07199314997958671
v -0.69999999999999984 -0.031373846174814778 -0.072607661535525933
v -0.66262361844710027 -0 -0.072888598029181031
v 1.02 -1.3880117784833934 -0.13545556584642798
v 1.615455565846428 -1.02 0.091988221516606516
v 0.80368810393753676 -1.5863118960624631 0.10999999999999999
v 1.2363118960624633 -1.5863118960624631 0.10999999999999999
v 1.02 -1.02 -0.23999999999999994
v 1.5863118960624631 -0.66999999999999993 0.24368810393753682
v 1.5863118960624631 -1.3700000000000001 0.24368810393753682
v 1.3700000000000001 -1.2363118960624633 -0.10631189606246311
v 1.3700000000000001 -0.80368810393753676 -0.10631189606246311
v 0.71627800481311366 -1.6238679362913304 0.27807566089457197
v 0.90756457505198385 -1.5056463342923145 -0.031432511343314096
v 0.90627810631848282 -1.6857395614066075 0.27599411075830327
v 1.3237219951868864 -1.6238679362913304 0.27807566089457197
v 1.1324354249480162 -1.5056463342923145 -0.031432511343314096
v 1.1337218936815172 -1.6857395614066075 0.27599411075830327
v 1.02 -1.615455565846428 0.091988221516606461
v 1.02 -1.2112865702388702 -0.21335685044874225
v 1.6238679362913304 -0.83807566089457186 0.15627800481311366
v 1.4314496766047313 -0.53826632783508932 0.16227221707678602
v 1.5056463342923145 -1.5114325113433142 0.34756457505198379
v 1.6238679362913304 -1.2019243391054282 0.15627800481311366
v 1.4314496766047313 -1.5017336721649106 0.16227221707678602
v 1.2019243391054282 -1.3237219951868864 -0.14386793629133027
v 1.511432511343314 -1.1324354249480162 -0.025646334292314332
v 1.3177277829232139 -1.4314496766047311 -0.021733672164910678
v 1.2040058892416967 -1.1337218936815172 -0.20573956140660749
v 1.5017336721649106 -1.3177277829232139 0.048550323395268824
v 1.511432511343314 -0.90756457505198385 -0.025646334292314332
v 1.2040058892416967 -0.90627810631848282 -0.20573956140660749
v 1.5017336721649106 -0.72227221707678602 0.048550323395268824
v 1.3880117784833936 -1.02 -0.13545556584642787
v 1.6933568504487422 -1.02 0.26871342976112983
v 1.6857395614066075 -1.2040058892416967 0.34627810631848277
v 0.60855032339526871 -1.5017336721649106 0.16227221707678602
v 0.83807566089457186 -1.3237219951868864 -0.14386793629133027
v 0.72227221707678602 -1.4314496766047311 -0.021733672164910678
v 0.83599411075830321 -1.1337218936815172 -0.20573956140660749
v 0.7574730027652532 -1.6107380322356732 0.1914703871204666
v 0.96323959458968755 -1.4509494146115764 -0.08869012969397988
v 0.85403957225459681 -1.55105661011428 0.035222395509730109
v 0.85292614877628481 -1.6437045669318575 0.18966883008868557
v 0.80911878463473763 -1.6613709226338509 0.27514207453865419
v 1.3591091494424674 -1.6254505351042923 0.36815973483089104
v 1.2825269972347468 -1.6107380322356732 0.1914703871204666
v 1.2707601554406054 -1.6670132204279422 0.36784124005355479
v 1.0767604054103124 -1.4509494146115764 -0.08869012969397988
v 1.1859604277454032 -1.55105661011428 0.035222395509730109
v 1.02 -1.5120349213414412 -0.037897214473551322
v 1.1870738512237153 -1.6437045669318575 0.18966883008868557
v 1.02 -1.6947028844273357 0.27351670920580284
v 1.2308812153652624 -1.6613709226338509 0.27514207453865419
v 0.91049587447183844 -1.6081245197289973 0.096519057190271651
v 1.1295041255281617 -1.6081245197289973 0.096519057190271651
v 0.96320070386604228 -1.5661430594970887 0.025832292170587134
v 0.96237349397762795 -1.6590877450526094 0.18027506380870423
v 1.0767992961339576 -1.5661430594970887 0.025832292170587134
v 1.0776265060223722 -1.6590877450526094 0.18027506380870423
v 1.02 -1.3023487440321551 -0.18053039486308881
v 1.02 -1.1165665694893436 -0.23330721736980325
v 1.02 -0.92343343051065641 -0.23330721736980325
v 1.6254505351042923 -0.92815973483089098 0.12089085055753251
v 1.610738032235673 -0.75147038712046654 0.19747300276525326
v 1.5149747468305832 -0.59894933149471807 0.19977637587787089
v 1.55105661011428 -1.44477760449027 0.29403957225459687
v 1.419876161394996 -1.5748544604814971 0.31088399404560918
v 1.6254505351042923 -1.1118402651691091 0.12089085055753251
v 1.610738032235673 -1.2885296128795334 0.19747300276525326
v 1.3377933498176828 -1.5505547940334434 0.13209910439313199
v 1.5149747468305832 -1.441050668505282 0.19977637587787089
v 1.3812851340357426 -1.5684161888543193 0.21769288964770558
v 1.4731883257175569 -1.5116168927203617 0.25279678519556192
v 1.1118402651691091 -1.3591091494424674 -0.14545053510429234
v 1.2885296128795334 -1.2825269972347468 -0.13073803223567299
v 1.1691160059543908 -1.419876161394996 -0.094854460481496872
v 1.1121587599464453 -1.2707601554406054 -0.18701322042794216
v 1.5686901296939799 -1.0767604054103126 0.029050585388423644
v 1.44477760449027 -1.1859604277454032 -0.07105661011428005
v 1.5748544604814971 -1.1691160059543908 0.060123838605003976
v 1.2802236241221292 -1.5149747468305832 0.03894933149471802
v 1.3479008956068681 -1.3377933498176828 -0.070554794033443502
v 1.2272032148044381 -1.4731883257175569 -0.031616892720361445
v 1.3793628088613135 -1.4726044542584122 0.065022051763959976
v 1.2623071103522945 -1.3812851340357428 -0.088416188854319178
v 1.1131497728984139 -1.0775697256955536 -0.23138183841659637
v 1.2903311699113145 -1.1870738512237153 -0.16370456693185748
v 1.1129547337795318 -1.1740819192313048 -0.21647481818170727
v 1.2048579254613458 -1.2308812153652624 -0.18137092263385096
v 1.5505547940334434 -1.3479008956068681 0.14220665018231726
v 1.441050668505282 -1.2802236241221292 -0.034974746830583159
v 1.5684161888543193 -1.2623071103522945 0.09871486596425727
v 1.4726044542584122 -1.4149779482360401 0.10063719113868652
v 1.5116168927203615 -1.2272032148044381 0.0068116742824432808
v 1.4149779482360401 -1.3793628088613135 0.0073955457415879056
v 1.2885296128795334 -0.7574730027652532 -0.13073803223567299
v 1.5686901296939799 -0.96323959458968755 0.029050585388423644
v 1.44477760449027 -0.85403957225459681 -0.07105661011428005
v 1.5748544604814971 -0.87088399404560923 0.060123838605003976
v 1.5178972144735514 -1.02 -0.032034921341441203
v 1.3479008956068681 -0.7022066501823172 -0.070554794033443502
v 1.3793628088613135 -0.5673955457415879 0.065022051763959976
v 1.1131497728984139 -0.96243027430444639 -0.23138183841659637
v 1.2903311699113145 -0.85292614877628481 -0.16370456693185748
v 1.1129547337795318 -0.86591808076869536 -0.21647481818170727
v 1.2064832907941971 -1.02 -0.21470288442733571
v 1.2048579254613458 -0.80911878463473752 -0.18137092263385096
v 1.5505547940334434 -0.69209910439313194 0.14220665018231726
v 1.441050668505282 -0.75977637587787084 -0.034974746830583159
v 1.5684161888543193 -0.77769288964770555 0.09871486596425727
v 1.4726044542584122 -0.62502205176395997 0.10063719113868652
v 1.5116168927203615 -0.81279678519556198 0.0068116742824432808
v 1.4149779482360401 -0.66063719113868657 0.0073955457415879056
v 1.3834809428097286 -1.1295041255281617 -0.12812451972899713
v 1.3834809428097286 -0.91049587447183844 -0.12812451972899713
v 1.4541677078294128 -1.0767992961339579 -0.086143059497088614
v 1.2997249361912959 -1.0776265060223722 -0.17908774505260933
v 1.4541677078294128 -0.96320070386604228 -0.086143059497088614
v 1.2997249361912959 -0.96237349397762795 -0.17908774505260933
v 1.6081245197289973 -1.3834809428097286 0.35049587447183839
v 1.660530394863089 -1.02 0.17765125596784498
v 1.6670132204279422 -0.92784124005355473 0.20923984455939476
v 1.6670132204279422 -1.1121587599464453 0.20923984455939476
v 1.6613709226338509 -0.83514207453865408 0.24911878463473755
v 1.6964748181817073 -0.92704526622046834 0.30591808076869531
v 1.6437045669318575 -1.2903311699113145 0.29292614877628476
v 1.6613709226338509 -1.2048579254613458 0.24911878463473755
v 1.6964748181817073 -1.1129547337795318 0.30591808076869531
v 0.7022066501823172 -1.5505547940334434 0.13209910439313199
v 0.52502525316941684 -1.441050668505282 0.19977637587787089
v 0.65871486596425732 -1.5684161888543193 0.21769288964770558
v 0.56681167428244317 -1.5116168927203617 0.25279678519556192
v 0.92815973483089098 -1.3591091494424674 -0.14545053510429234
v 0.75147038712046654 -1.2825269972347468 -0.13073803223567299
v 0.87088399404560923 -1.419876161394996 -0.094854460481496872
v 0.92784124005355473 -1.2707601554406054 -0.18701322042794216
v 0.75977637587787084 -1.5149747468305832 0.03894933149471802
v 0.69209910439313194 -1.3377933498176828 -0.070554794033443502
v 0.81279678519556198 -1.4731883257175569 -0.031616892720361445
v 0.66063719113868646 -1.4726044542584122 0.065022051763959976
v 0.77769288964770555 -1.3812851340357428 -0.088416188854319178
v 0.92685022710158604 -1.0775697256955536 -0.23138183841659637
v 0.74966883008868557 -1.1870738512237153 -0.16370456693185748
v 0.92704526622046834 -1.1740819192313048 -0.21647481818170727
v 0.83514207453865408 -1.2308812153652624 -0.18137092263385096
v 0.5673955457415879 -1.4149779482360401 0.10063719113868652
v 0.62502205176395997 -1.3793628088613135 0.0073955457415879056
v 1.5622585355138898 -1.4517499035667889 0.37509342540587837
v 1.5903453966226389 -1.4134167451932766 0.37281633795554897
v 0.8489763144737793 -0.027102295799798611 0.097181716004087537
v 0.81364160017477993 0 0.0895005760192258
v 0.90000000000000047 -0.066238285586666654 0.10827335998213337
v -0.7378678847776734 0.4401401018544594 -0.14278508158516839
v -0.72695481128979889 0.40000000000000036 -0.13596502924187795
v -0.73855776074835056 0.46144223925164951 -0.1458432671775495
v 1.5371235464541035 -1.4816369089613861 0.37651275736454548
v 1.6094871013637664 -1.3843230645724622 0.37084881019015903
v 0.8101822188902843 0.0026534012434151991 0.088748567903853146
v 0.80645510674197962 0.0055121563777459871 0.087938359848733327
v 0.75236262986044078 0.045539252890019616 0.076384393880045753
v -0.73980646514488302 0.5 -0.15137871116593715
v 1.5913612612873242 -0.66687932066942379 0.26841284363532503
v 1.5729035492219459 -0.64156046164588765 0.26283785504483831
v -0.0076221067429713641 -0.63807213868157953 -0.042565945587999365
v -0.007537959733811871 -0.64211921836461971 -0.039823902802217384
v 0.71480832870356958 0.049745604777261039 0.045363023300840431
v 0.70330691077312291 0.051033846324230574 0.035862387240104598
v 0.7018898441615119 0.050983646197644943 0.034830118809037351
v -0.0072698364843938879 -0.63517549785333072 -0.044218366677751392
v 1.0309244692918373 -0.1690755307081625 0.13707226592124488
v 1.0695434583537717 -0.19999999999999998 0.14564978041891491
v 1.4835720234577046 -0.54591842912332844 0.23962150265761351
v 1.4651708833889194 -0.53028154320194976 0.23540821322105412
v 1 -1.7082188744005142 0.34915064241607202
v 1 -0.1443125106444286 0.13020375149022001
v 0.69250537490753128 0.050651197785813978 0.027993960738675341
v -0.0066729714915132032 -0.63026760834170348 -0.047018127026392388
v 1.5 -0.56215318956579852 0.2437014465392118
v 1.535127674356666 -0.59686771308689746 0.25242552401139889
v 0.9750817673569141 -1.7077164801407299 0.34633930162896276
v 0.9476186894659191 -1.7046180254596077 0.34288457940559625
v 0.92197090704545948 -1.7 0.33941679977500055
v 1.1940680320169184 -0.29999999999999988 0.17334748352186102
v 1.1881926654093971 -0.29500931663975499 0.17200249752459937
v 1.1560102010371909 -0.26923894679351495 0.16485457466518311
v 1.1419888022316149 -0.25801119776838505 0.16174033593305157
v -0.0061057714943637117 -0.62560364756295217 -0.049678735506886687
v 0.68371851339168976 0.050339919856624712 0.021593132664227351
v 0.90000000000000036 -1.6960440163424941 0.33644616228794927
v 1.5377751928532144 -0.59999999999999987 0.25315527121385356
v 0.95932036433878043 -0.11173796184432816 0.12116855473547178
v 0.9440169549418177 -0.099999999999999853 0.11784186504359995
v -0.0053193486242734183 -0.61913706533437873 -0.05336766951240865
v 0.67174187674064112 0.049915642923538776 0.012868698806326368
v -0.0019348192182954533 -0.43438464708824559 -0.13401162065320862
v -0.0019501133702370407 -0.43545490776479273 -0.13363980919350057
v -0.0020163628016308505 -0.49307297291591107 -0.11328717004697782
v 0.51262324239566281 0.056057101022511463 -0.079170397216396349
v 0.54489092851695708 0.053834318402676842 -0.064065513828304901
v 1.6887342957570506 -1.1933948997240693 0.35283605849464528
v 1.6863547785900483 -1.2041759310891071 0.35408365599738034
v 0.66758324947913616 0.049768321962590657 0.0098393284129706764
v -0.0050426116327164016 -0.61686151794168143 -0.054665780919854474
v 1.1479804312684396 -1.7 0.3642778474395284
v 1.7022128331215838 -1.1130298082988099 0.34306758480520771
v -0.004194647150195829 -0.60988889257474665 -0.058643392881579291
v 0.65501741800204194 0.049323172577491088 0.00068569298212210663
v 0.47221602934196272 0.058840580772317491 -0.098085488894170139
v -0.001598618485317343 -0.41085784904759332 -0.14218489405607113
v -0.0014267646151715717 -0.39883178575020128 -0.14636278103924127
v 0.45421692105750128 0.056811899922471605 -0.10535484932870071
v 1.6981211119029793 -0.92702372659204091 0.31657664403221353
v 1.7006110719521199 -0.94988718933415073 0.32005142442151435
v 1.0828122527787913 -1.7089878020592764 0.35836764009396577
v 1.0716376483920957 -1.7096632121210962 0.35723299102008405
v -0.0059133761057352388 -0.72025413320308862 0.01311532655082809
v -0.0070525233123922924 -0.66546645195210574 -0.02400530805232556
v 1.7030579473285248 -1.1000000000000001 0.34133637420613783
v 1.70542264716026 -1.0635415128054024 0.33649230298038502
v -0.70959833846935472 0.33616000225592924 -0.12511821754745914
v -0.70127144609665493 0.3055323052700466 -0.11991438180843858
v -0.69999999999999996 0.30243501569914777 -0.1193409021978807
v 1.706370790885742 -1.02 0.33050078699743168
v 0.54714683058618063 0.053972377180523966 -0.06284935854533856
v -0.0061730204386687042 -0.52488358967561144 -0.10043229593330756
v -0.0020987116934580749 -0.49370318335594354 -0.11303249796900665
v -0.0051176440950671106 -0.57023023193122235 -0.078139728619128823
v 0.58654514646735378 0.056383511694737119 -0.041609753044485553
v -0.74278813495064955 0.59206863635668194 -0.16459630393450694
v -0.69999999999999984 0.66466471264580018 -0.17005305977041205
v 1.6812335324187981 -1.2201891314834838 0.35576216697375557
v -0.21654266448760137 0.070493988523235074 -0.18579773194543359
v -0.14517912783197809 0.072280637582238585 -0.19102663901273398
v -0.012216796034705536 0.27481985697613093 -0.16740840378467298
v -0.0051277713926904224 0.25216442440352688 -0.17175151797481839
v -0.0077672168332876693 0.21246321905664114 -0.17819557940409478
v -0.0086635082890980254 0.19898165562271977 -0.18038382588607954
v 1.6536084884448794 -1.2963790179709493 0.36338999624486967
v 1.6518736192212109 -1.2999999999999998 0.36370609811433319
v -0.59999999999999987 0.066123666794887154 -0.075257313351284189
v -0.6035418695408743 0.072485259426594076 -0.07653754196921933
v -0.65170825170348723 0.18629746381668902 -0.09776955262172006
v -0.65750729230672689 0.20000000000000015 -0.10032580215373998
v -0.004421835423659857 -0.60012723226854203 -0.063442259096360393
v 1.6609425241418514 -0.79999999999999982 0.29470367765560368
v 1.6744261141753827 -0.83559854222039731 0.30117066847014773
v 1.6944023421675307 -0.90946754640326799 0.31370971413488596
v -0.027807618636401008 0.12437418812574462 -0.19139491262434721
v -0.020160821798296199 0.14155987276698589 -0.18910928040143915
v -0.13891747365207291 0.072437403615322402 -0.1914854392534269
v -0.074061139131688977 0.074061139131688977 -0.19623755443473237
v -0.011132021902511601 0.16185152049647916 -0.18641056662455932
v -0.67225695409384201 0.23485193295881235 -0.10682753556455636
v -0.68018914940654962 0.25417505320828093 -0.11040531388387979
v -0.69900041919390943 0.30000000000000027 -0.1188900461113301
v -0.010372767678117128 -0.82801560198240154 0.11478117983294335
v 0 -0.84198968601290791 0.11787855604180712
v -0.59485595138422376 0.056884381893618656 -0.073397968117371218
v -0.5877684489758731 0.056711838861592902 -0.077168478791819387
v 0.39397984980985007 0.059017730699354842 -0.12609472278469538
v 0.37502640990237607 0.059711789693422279 -0.13262047075176872
v -0.0021303645667975564 -0.39360877625981078 -0.14788002506963288
v -0.002360227630991476 -0.34521992785602501 -0.15982788955001939
v 1.6307614335183556 -0.7317020012041745 0.28182203785560356
v 1.6114924940482698 -0.70000000000000007 0.27526417434530964
v -0.0074846154721675898 -0.64468482918862613 -0.038085608723014482
v 1.6458976781430334 -0.76027952613833416 0.28748787825510053
v 1.6411393192477306 -0.74980901588759308 0.2854985873415134
v -0.68689655172413744 0.68689655172413744 -0.17172413793103442
v -0.6952430472678125 0.67273555059767431 -0.17065971228313379
v -0.0024021522270281028 -0.33639431279202825 -0.16200705388682643
v -0.0025981732403943122 -0.29512960968281965 -0.17219587004665957
v 0.33454495435164749 0.061194186474960825 -0.14655840378946303
v 0.31435246132534622 0.056624678402132297 -0.15220836991907907
v 0.0051513488015657504 -0.25257643412164821 -0.18003647004621934
v -0.61719964703894858 0.7137662165282922 -0.16781923148824529
v -0.60911441017524903 0.71527634704429766 -0.1671412737054791
v -0.59999999999999987 0.71697870272948849 -0.1663770183821284
v 0.010188670862563925 -0.088454251381008153 -0.1970671417717435
v 0.00048288635989009068 -0.036939202765824276 -0.19803598799226352
v 0.14143925812565036 0.056071873218837505 -0.18527525996581765
v 0.093287416098842113 0.063200697098533321 -0.18969500205954823
v 0.012103258456649368 -0.098616240137318151 -0.19687602471635524
v 0.1635220415598117 0.052802542965844176 -0.18324833423707063
v -0.0059664160648563889 -0.72062665964652006 0.013412268623254949
v -0.0070329205399182028 -0.72811725966925045 0.019383050922578582
v -0.0094247151166407164 -0.74491604198071282 0.032773416416811939
v -0.0088929220318961222 -0.74118099033693541 0.029796194275187354
v -0.0074076298427635653 -0.73074903251037993 0.021480845845278231
v -0.0082540790786566932 -0.73669407335538306 0.026219657761331165
v 1.6257736281311335 -1.354475344542504 0.36846164733037523
v -0.097311098941385843 0.58500015033920361 -0.092604241931040956
v -0.016720421739628968 0.54777703185390925 -0.078528030850906483
v -0.007406340445819443 0.54240209620656088 -0.076750990917958672
v -0.099999999999999867 0.58624209650686587 -0.093073893510961209
v 0.043427846920009672 0.05313872256933394 -0.19424433124660362
v 0.064938412658793757 0.058662283347475482 -0.19228348731564832
v 0.086516353616293229 0.06420314497767432 -0.19031650164531155
v -0.0079802415690087333 0.0079802415690087333 -0.19888079033723954
v 0.88064186691938584 -1.6925584771270086 0.33382879215891376
v 0.8417973771819619 -1.6815674035325443 0.3280171479845721
v -0.0055655659378798751 0.54133982884928211 -0.076399788292066284
v 0.18637120368419499 0.060665449326641439 -0.17941147697789378
v -0.47369481865175478 0.72073147166259122 -0.15300883608445581
v -0.42866263971042051 0.70828332299790264 -0.14631255558785264
v -0.0090237511891044803 0.31847437448312993 -0.15531878085016398
v 0.27140408151636308 0.057980693865533353 -0.16133727985073723
v 1.2726373942064677 -1.6666279606868368 0.37331802785886864
v 1.267427434991232 -1.6684894380493156 0.3730055391759397
v -0.0083539747089110845 -0.81593637720336321 0.10095093253162737
v -0.0098157761267207086 -0.82468290454786053 0.11096536958490903
v 1.3619671013700207 -1.6244622118062317 0.37724109080357476
v 1.3536840526121445 -1.6288034293376912 0.37693772589461272
v -0.010140871865850805 -0.82662807899990154 0.11319251943997387
v -0.21988211343525818 0.069162614841290632 -0.18551254479512258
v -0.0072003424231127681 0.34340356707090797 -0.14841492402939685
v -0.30491291456171121 0.066853828999908063 -0.16903604651768456
v -0.0031424824035861539 0.39888162323019449 -0.13305090631925368
v -0.29999999999999982 0.67271738538708692 -0.12718043395419215
v -0.26818319275748942 0.6639223335840978 -0.12244927790509753
v -0.58674816057572676 0.056844083812310604 -0.077615883374428124
v 1.1806768161839669 -1.6944650980123588 0.36709956350196665
v -0.0051662228492699944 0.53721796673054689 -0.078447151428554407
v -0.005059467238653536 0.53611607735293376 -0.078994469030945494
v -0.47366330570483278 0.062168485132968868 -0.12363113662538908
v -0.4636175061345213 0.062028828157793245 -0.1274203213239487
v -0.0064982311252979649 0.51914810316701654 -0.0862795865731186
v 1.1743193717855671 -1.6963280644324579 0.36666105991695652
v -0.0029778566742684597 -0.1477416419196991 -0.19418871506556221
v -0.49129297254909132 0.062413573234477417 -0.11698138581367774
v -0.48442085869465634 0.062318036923280321 -0.11957348497728637
v -0.0052319670938227132 0.53789655293593241 -0.078110092026319466
v 1.3839503651045959 -1.6100978195032307 0.37764823489195792
v 1.1738970783308991 -1.6964256528379951 0.36662827001371828
v -0.49966413493554002 0.062529949358589076 -0.11382385910792589
v -0.49993878873815223 0.062533767603122514 -0.11372026217878395
v -0.50490148290312231 0.062667947036812499 -0.11181834121925134
v -0.50829686016105025 0.062759749953230012 -0.11051708449100953
v -0.0093244621534959316 -0.75156564537496884 0.039156847882571059
v -0.0093133893766122675 -0.75230008326528042 0.03986188751586859
v -0.0094029706181003002 -0.74635831647081385 0.034157959195758016
v -0.0089849341642253677 -0.77408594202333991 0.060775696664983787
v -0.0090756940634441029 -0.76806599692669719 0.054996719382632578
v -0.0054768612638271914 0.54042425413129902 -0.076854561856125783
v -0.49302230263028768 0.062437614427667626 -0.11632909815488414
v 0.78988128099635679 -1.6640927533579772 0.31985992637971611
v 1.398855718632692 -1.6000000000000001 0.37787412904959622
v -0.57204953022264204 0.057952442621380947 -0.083780250195996539
v -0.53737988195346664 0.060566727703966761 -0.098320137544146632
v 0.73535285624326086 -1.6394072356955802 0.31040582718413989
v -0.58268397901984792 0.057150545796924988 -0.079320335104832537
v -0.53320228317640384 0.060881741980405628 -0.10007215461489001
v 0.012232623482395837 -0.8584693483133724 0.12153129734693567
v -0.0085919292461893726 -0.80015326966090394 0.085799595024638131
v -0.0085525800594832765 -0.80276323227222457 0.088305085423050503
v 0.01610854006595424 -0.86369094256040646 0.12268867136571186
v -0.0088596385519320153 -0.78239658045891591 0.068753674860800251
v -0.57156937137070463 0.72228886996467212 -0.16399307264583163
v -0.51807180157306953 0.062022664785299067 -0.10641763283629255
v -0.53198536611802927 0.060973504322144795 -0.10058250986289924
v -0.5 0.72115004465863164 -0.15596100625220843
v -0.51536736318070797 0.062226594542273521 -0.10755183037010227
v 1.2000000000000002 -0.30503876198444785 0.17470542667782274
v 1.4754249650002562 -1.5430687285025151 0.37832636814038034
v 1.5000000000000002 -1.5200519241090231 0.37780726937526327
v 1.5073558972256793 -1.5131624426664183 0.37765189066812327
v 1.4000000000000004 -1.5992247921737508 0.37789147090432523
v 1.4426383941416263 -1.5703388749670133 0.37853766585096077
v 0.37479627445923036 -1.2999999999999998 0.2232275901905153
v 0.40000000000000036 -1.3293557727275049 0.23010980818185073
v -0.49297753945823064 0.72103830194491947 -0.1551728916126941
v 0.33595019857935327 -1.2547544440189831 0.21262014400638651
v 0.3190821650262981 -1.2351075803621632 0.20801409940359564
v 0.23162224577028781 -1.1289379260212373 0.18352975667770491
v 0.21230538339602376 -1.1054887321656657 0.17812201467675584
v 0.20785177806511557 -1.1000000000000001 0.17686369558716272
v 1.4000000000000006 -0.47492376469580833 0.22048932705741325
v 1.2244346602305252 -0.32579417358201734 0.18029899692684023
v -0.0083185396856109272 0.4377771441801574 -0.11939276643707807
v -0.0084995950213619491 0.42968365573487061 -0.12268633876254295
v -0.0081266198725663263 0.44635629365871565 -0.11590155872242931
v -0.0073254899606639895 0.48216819424843571 -0.10132822788963004
v -0.0071836531664197659 0.48850854566956503 -0.098748078907454795
v -0.19999999999999996 0.63242996807929008 -0.11054019553110062
v -0.0085555220842255079 0.42718361874238281 -0.12370370632991018
v 0.066298173022607335 -0.92554587408752365 0.13686922140474012
v -0.36300429459859079 0.065276511675376861 -0.15777962519233174
v -0.36943188056626114 0.066307260260347264 -0.15618257859329338
v -0.0066676646207179001 0.51157413120017292 -0.089361746340501716
v 1.4295214232027265 -0.5 0.22724735655229994
v -0.42612547045114019 0.063234115448592601 -0.13907576876462235
v -0.42280393002974914 0.063414163576322014 -0.14007801541088979
v -0.40728501356354169 0.064255385268563073 -0.14476071681105721
v 0.62899487886968575 -1.5733744748281493 0.28946186315160632
v 0.59284582681169884 -1.5424979590884709 0.28116275522167283
v -0.45728425648133186 0.061545115654723564 -0.12967386939305151
v 0.55982310266710222 -1.5115771933514042 0.27320134836257787
v 0.66258856777249531 -1.5965003657802572 0.29639479366421051
v -0.38304127608846911 0.065569546467216258 -0.15207605893993706
v 0.70568831665089937 -1.6243415326645825 0.30503352940464051
v -0.3770079336292228 0.065896591113953545 -0.15389656884751485
v -0.37123254972778297 0.066209652804148866 -0.15563924194847945
v 0.66800620549809342 -1.6000000000000001 0.29748068260479027
v 0.5 -1.4454595639112198 0.25736433894757077
v 0.49378110891569321 -1.4385863273536117 0.25571800781023191
v 0.58915124340316449 0.05654300202138636 -0.040204807945295351
v 0.74732211145245286 0.046103827212133859 0.072220721953564146
v 0.71985287447090807 0.049180579361927559 0.049530021988918337
f 41 66 42
f 69 70 45
f 45 70 46
f 71 72 47
f 47 72 48
f 73 74 49
f 49 74 50
f 114 115 91
f 116 117 92
f 92 117 93
f 118 119 94
f 94 119 95
f 120 121 96
f 96 121 97
f 138 157 139
f 158 159 140
f 140 159 141
f 142 160 143
f 161 162 144
f 144 162 145
f 165 166 148
f 148 166 149
f 170 171 154
f 172 173 155
f 155 173 156
f 165 180 166
f 204 205 187
f 187 205 188
f 205 206 188
f 188 206 189
f 229 230 218
f 218 230 219
f 230 231 219
f 219 231 220
f 251 252 238
f 238 252 239
f 262 263 248
f 266 267 251
f 251 267 252
f 267 268 252
f 252 268 253
f 282 283 267
f 267 283 268
f 277 292 278
f 295 297 296
f 297 298 296
f 312 313 301
f 301 313 302
f 313 314 302
f 302 314 303
f 316 322 317
f 333 334 325
f 343 344 331
f 354 355 341
f 341 355 342
f 357 358 344
f 351 365 352
f 365 366 352
f 353 369 354
f 369 370 354
f 354 370 355
f 356 371 357
f 372 373 358
f 361 376 362
f 397 398 380
f 380 398 381
f 398 399 381
f 381 399 382
f 399 400 382
f 382 400 383
f 414 416 415
f 430 431 417
f 443 444 419
f 419 444 420
f 444 445 420
f 420 445 421
f 445 446 421
f 421 446 422
f 447 448 423
f 423 448 424
f 448 449 424
f 424 449 425
f 450 451 426
f 426 451 427
f 452 453 428
f 428 453 429
f 454 455 430
f 430 455 431
f 331 586 585
f 344 602 598
f 257 605 603
f 358 615 613
f 659 672 304
f 678 682 167
f 189 696 689
f 692 697 190
f 698 699 207
f 526 537 536
f 536 537 488
f 536 538 528
f 488 538 536
f 517 519 508
f 508 515 512
f 520 521 514
f 506 514 511
f 480 520 514
f 480 514 506
f 501 502 498
f 476 501 498
f 476 498 494
f 474 536 528
f 526 536 474
f 474 528 523
f 523 533 474
f 516 518 483
f 518 519 483
f 483 519 517
f 504 518 516
f 479 518 504
f 504 516 473
f 504 534 479
f 510 519 518
f 503 510 479
f 510 518 479
f 506 511 472
f 472 511 497
f 497 500 472
f 497 502 500
f 478 502 501
f 500 502 478
f 507 510 503
f 514 521 482
f 482 521 512
f 512 515 482
f 511 514 482
f 477 502 497
f 498 502 477
f 503 525 522
f 479 525 503
f 479 534 525
f 526 552 485
f 485 537 526
f 550 552 526
f 533 550 474
f 474 550 526
f 542 549 475
f 566 568 562
f 475 551 545
f 473 532 504
f 532 534 504
f 487 534 532
f 532 547 487
f 505 546 544
f 544 547 532
f 505 544 473
f 473 544 532
f 565 572 559
f 494 498 496
f 496 498 477
f 481 519 510
f 481 510 507
f 508 519 481
f 481 515 508
f 557 565 563
f 571 572 565
f 557 571 565
f 528 538 486
f 495 501 476
f 486 538 530
f 486 530 527
f 522 525 484
f 551 555 545
f 540 551 475
f 475 549 540
f 556 566 562
f 564 566 556
f 562 568 558
f 558 574 562
f 539 542 475
f 475 545 539
f 539 543 542
f 560 568 566
f 560 570 568
f 567 570 560
f 560 573 567
f 564 569 566
f 572 573 569
f 559 569 564
f 559 572 569
f 566 569 560
f 569 573 560
f 496 509 507
f 509 515 481
f 507 509 481
f 477 509 496
f 470 522 494
f 503 522 470
f 470 507 503
f 496 507 470
f 494 496 470
f 527 529 486
f 495 529 527
f 476 529 495
f 499 501 495
f 478 501 499
f 523 535 533
f 484 535 523
f 525 535 484
f 533 535 487
f 487 535 534
f 534 535 525
f 493 555 551
f 493 552 550
f 539 548 489
f 545 548 539
f 533 553 550
f 547 555 553
f 487 553 533
f 547 553 487
f 550 553 493
f 553 555 493
f 540 554 551
f 551 554 493
f 493 554 552
f 490 554 540
f 482 515 513
f 513 515 509
f 482 513 511
f 477 513 509
f 511 513 497
f 497 513 477
f 529 531 486
f 486 531 528
f 528 531 523
f 523 531 484
f 471 499 495
f 495 527 471
f 545 555 492
f 492 548 545
f 492 555 547
f 546 548 492
f 544 546 492
f 492 547 544
f 552 554 541
f 485 552 541
f 541 554 490
f 484 524 522
f 484 531 524
f 522 524 494
f 524 531 529
f 494 524 476
f 524 529 476
f 561 572 571
f 561 573 572
f 488 578 577
f 596 599 557
f 480 619 614
f 549 640 637
f 567 646 645
f 490 612 611
f 652 653 471
f 670 671 561
f 635 636 570
f 663 664 491
f 662 663 491
f 345 628 359
f 607 628 345
f 359 628 623
f 623 624 359
f 624 625 359
f 506 580 579
f 506 581 580
f 590 591 488
f 577 590 488
f 563 596 557
f 563 597 596
f 599 604 557
f 604 609 571
f 557 604 571
f 480 614 520
f 520 614 575
f 231 694 220
f 575 614 231
f 614 619 231
f 619 694 231
f 231 576 575
f 538 620 530
f 538 621 620
f 530 626 527
f 530 627 626
f 620 630 530
f 530 630 627
f 549 637 540
f 540 637 622
f 558 628 607
f 558 607 606
f 568 628 558
f 623 628 568
f 606 610 558
f 558 595 574
f 574 595 594
f 558 610 595
f 549 641 639
f 639 640 549
f 491 649 542
f 542 648 647
f 542 649 648
f 359 625 374
f 625 636 374
f 374 636 635
f 374 635 634
f 643 646 567
f 656 657 478
f 499 656 478
f 499 666 656
f 499 667 666
f 499 668 667
f 243 576 242
f 243 584 576
f 242 576 231
f 540 617 616
f 540 616 490
f 540 622 617
f 490 616 612
f 488 591 538
f 591 621 538
f 471 654 499
f 654 668 499
f 653 654 471
f 537 587 583
f 642 655 527
f 527 655 471
f 626 642 527
f 537 583 488
f 488 583 578
f 471 655 652
f 574 594 592
f 541 608 601
f 500 685 684
f 683 685 500
f 500 686 683
f 243 593 584
f 541 601 485
f 485 601 600
f 597 633 389
f 389 599 596
f 390 604 389
f 596 597 389
f 390 609 604
f 390 658 609
f 389 604 599
f 389 633 373
f 500 684 472
f 684 688 472
f 490 611 541
f 541 611 608
f 658 660 571
f 609 658 571
f 681 687 478
f 680 681 478
f 657 680 478
f 374 645 392
f 634 645 374
f 645 646 392
f 643 675 392
f 392 675 673
f 392 673 391
f 391 673 671
f 391 671 670
f 391 670 661
f 392 646 643
f 256 593 243
f 257 593 256
f 257 603 593
f 500 687 686
f 478 687 500
f 571 661 561
f 661 670 561
f 660 661 571
f 506 579 480
f 579 691 480
f 480 694 619
f 691 694 480
f 561 673 573
f 673 675 573
f 485 588 537
f 537 588 587
f 671 673 561
f 485 589 588
f 485 600 589
f 542 641 549
f 542 647 641
f 570 624 568
f 568 624 623
f 570 625 624
f 570 636 625
f 272 618 605
f 272 605 257
f 567 634 570
f 634 635 570
f 567 645 634
f 573 643 567
f 573 675 643
f 689 696 472
f 472 696 695
f 688 689 472
f 472 695 506
f 506 695 581
f 563 633 597
f 632 633 563
f 287 618 272
f 273 631 288
f 605 618 520
f 603 605 520
f 593 603 520
f 584 593 520
f 576 584 520
f 575 576 520
f 543 698 697
f 543 693 542
f 543 697 692
f 543 699 698
f 692 693 543
f 582 699 543
f 491 664 651
f 491 651 649
f 429 430 416
f 542 678 669
f 542 682 678
f 542 669 665
f 542 665 662
f 542 662 491
f 542 690 682
f 542 693 690
f 288 650 304
f 650 659 304
f 644 650 288
f 638 644 288
f 631 638 288
f 592 679 574
f 574 679 677
f 574 677 676
f 627 630 102
f 103 621 591
f 103 591 590
f 102 621 103
f 620 621 102
f 102 630 620
f 626 627 130
f 130 627 102
f 130 642 626
f 105 622 106
f 622 637 106
f 637 640 106
f 106 640 639
f 617 622 105
f 639 641 107
f 106 639 107
f 641 647 107
f 647 648 107
f 108 649 131
f 648 649 108
f 107 648 108
f 649 651 131
f 305 674 315
f 304 672 305
f 672 674 305
f 315 679 316
f 316 679 321
f 677 679 315
f 131 669 132
f 132 669 151
f 665 669 131
f 577 578 103
f 578 583 103
f 583 587 103
f 103 587 104
f 587 588 104
f 588 589 104
f 103 590 577
f 321 679 592
f 592 594 323
f 321 592 323
f 323 594 332
f 594 595 332
f 589 600 104
f 600 601 104
f 601 608 104
f 104 608 105
f 608 611 105
f 611 612 105
f 612 616 105
f 616 617 105
f 151 678 167
f 669 678 151
f 344 586 331
f 344 598 586
f 331 585 330
f 358 602 344
f 358 613 602
f 373 615 358
f 373 629 615
f 373 633 632
f 373 632 629
f 150 654 653
f 150 653 130
f 130 653 652
f 652 655 130
f 130 655 642
f 391 661 660
f 391 660 390
f 390 660 658
f 131 664 663
f 651 664 131
f 131 663 662
f 662 665 131
f 167 682 168
f 682 690 168
f 166 667 149
f 666 667 166
f 149 667 150
f 690 693 190
f 169 690 190
f 168 690 169
f 190 693 692
f 667 668 150
f 150 668 654
f 674 676 315
f 676 677 315
f 180 681 680
f 180 680 166
f 166 680 657
f 166 657 656
f 656 666 166
f 683 686 180
f 686 687 180
f 180 687 681
f 189 689 688
f 189 688 684
f 684 685 189
f 332 606 345
f 332 610 606
f 606 607 345
f 595 610 332
f 206 695 189
f 581 695 206
f 695 696 189
f 580 581 206
f 189 685 188
f 188 685 683
f 188 683 180
f 191 698 207
f 190 697 191
f 697 698 191
f 220 579 206
f 579 580 206
f 220 691 579
f 220 694 691
f 207 582 208
f 207 699 582
f 330 855 848
f 866 874 512
f 874 884 512
f 879 886 329
f 884 890 512
f 895 896 563
f 890 900 512
f 900 903 512
f 546 930 929
f 991 999 631
f 520 1008 1007
f 520 1011 1008
f 489 1023 1022
f 638 1029 1020
f 582 955 937
f 1034 1035 539
f 999 1041 631
f 539 1042 1032
f 1027 1042 539
f 539 1046 1045
f 1045 1048 539
f 539 1049 1046
f 539 1059 1056
f 880 1060 367
f 1035 1059 539
f 287 1050 954
f 521 982 913
f 1024 1086 644
f 521 983 982
f 521 986 983
f 548 1096 1090
f 521 987 986
f 985 987 521
f 548 1098 1096
f 548 1099 1098
f 1036 1038 521
f 1085 1099 548
f 521 1052 1051
f 1051 1054 521
f 521 1040 1037
f 521 1037 1036
f 914 963 512
f 512 963 862
f 837 844 843
f 817 823 706
f 706 823 766
f 835 844 735
f 735 844 837
f 837 843 733
f 827 829 733
f 775 797 723
f 831 842 840
f 701 775 765
f 766 787 706
f 766 789 787
f 720 789 766
f 775 777 765
f 765 777 720
f 777 789 720
f 723 777 775
f 779 788 707
f 835 838 831
f 735 838 835
f 793 804 801
f 724 792 779
f 779 792 788
f 707 811 784
f 779 782 724
f 724 782 780
f 707 784 772
f 784 786 772
f 772 786 722
f 772 779 707
f 722 782 772
f 772 782 779
f 746 780 713
f 752 755 715
f 746 755 752
f 713 755 746
f 715 755 753
f 715 756 752
f 727 815 797
f 730 815 812
f 709 741 737
f 739 753 710
f 715 753 751
f 751 753 739
f 702 751 739
f 795 815 727
f 812 815 795
f 819 822 821
f 794 797 775
f 701 794 775
f 727 797 794
f 794 796 727
f 760 796 794
f 760 794 701
f 763 817 706
f 712 750 744
f 712 744 742
f 743 750 712
f 712 769 743
f 823 824 766
f 766 824 720
f 777 791 789
f 723 791 777
f 728 804 802
f 801 804 728
f 728 802 800
f 800 803 728
f 783 803 800
f 704 800 759
f 783 800 704
f 730 814 811
f 811 814 784
f 776 811 707
f 707 788 776
f 776 791 723
f 788 791 776
f 811 813 730
f 813 815 730
f 797 815 813
f 797 813 723
f 723 813 776
f 776 813 811
f 713 780 773
f 773 782 722
f 780 782 773
f 722 786 774
f 774 786 785
f 746 752 703
f 752 756 748
f 703 752 748
f 703 748 743
f 748 750 743
f 714 750 748
f 748 756 714
f 774 785 716
f 757 774 716
f 737 828 709
f 733 829 828
f 710 836 739
f 836 838 735
f 737 740 702
f 740 751 702
f 737 741 740
f 740 741 711
f 754 756 715
f 751 754 715
f 740 754 751
f 711 754 740
f 705 805 761
f 805 807 761
f 701 818 760
f 818 819 760
f 765 818 701
f 764 769 712
f 742 764 712
f 763 770 719
f 719 770 764
f 769 770 721
f 764 770 769
f 732 824 823
f 720 820 765
f 720 824 820
f 765 820 818
f 788 792 726
f 726 791 788
f 726 792 790
f 789 791 726
f 726 790 787
f 787 789 726
f 812 816 730
f 730 816 814
f 801 816 812
f 814 816 803
f 728 816 801
f 803 816 728
f 725 814 803
f 785 786 725
f 783 785 725
f 725 803 783
f 725 786 784
f 784 814 725
f 771 773 722
f 722 774 771
f 771 774 757
f 734 842 831
f 831 838 734
f 778 780 746
f 703 778 746
f 724 780 778
f 714 756 749
f 749 756 754
f 749 754 711
f 716 833 757
f 757 833 830
f 833 842 734
f 830 833 734
f 704 839 758
f 758 783 704
f 758 785 783
f 716 785 758
f 826 837 733
f 733 828 826
f 826 828 737
f 702 826 737
f 735 837 834
f 834 836 735
f 739 836 834
f 834 837 826
f 739 834 702
f 702 834 826
f 832 838 836
f 734 838 832
f 734 832 830
f 832 836 710
f 717 796 760
f 717 807 796
f 761 807 717
f 717 821 761
f 760 819 717
f 819 821 717
f 768 790 721
f 721 770 768
f 768 770 763
f 787 790 768
f 706 787 768
f 706 768 763
f 732 825 824
f 824 825 820
f 757 830 700
f 700 771 757
f 721 790 781
f 790 792 781
f 781 792 724
f 778 781 724
f 736 842 841
f 841 842 833
f 736 841 839
f 716 841 833
f 839 841 758
f 758 841 716
f 718 808 762
f 762 808 805
f 762 805 705
f 807 809 796
f 796 809 727
f 727 809 795
f 710 753 747
f 747 755 713
f 753 755 747
f 767 769 721
f 721 781 767
f 743 769 767
f 767 781 778
f 743 767 703
f 767 778 703
f 708 798 793
f 801 812 708
f 793 801 708
f 708 812 795
f 806 810 798
f 795 809 806
f 795 806 708
f 708 806 798
f 808 810 729
f 729 809 807
f 805 808 729
f 729 807 805
f 729 810 806
f 806 809 729
f 799 810 808
f 710 747 738
f 738 832 710
f 830 832 738
f 700 830 738
f 745 747 713
f 713 773 745
f 738 745 700
f 738 747 745
f 745 773 771
f 745 771 700
f 731 822 819
f 731 819 818
f 818 820 731
f 820 825 731
f 846 854 817
f 859 860 705
f 822 910 909
f 744 1006 1005
f 742 1010 1009
f 909 944 822
f 1009 1030 742
f 741 1043 998
f 732 928 898
f 829 1094 1092
f 709 1097 1047
f 719 1063 853
f 736 969 968
f 800 995 994
f 1053 1083 843
f 733 1072 1071
f 881 882 718
f 831 923 922
f 827 1070 1069
f 229 239 240
f 228 239 229
f 109 131 132
f 108 131 109
f 16 15 40
f 41 16 40
f 817 763 846
f 845 846 763
f 360 359 374
f 375 360 374
f 2 1 26
f 27 2 26
f 763 719 845
f 853 845 719
f 230 240 241
f 229 240 230
f 211 222 223
f 212 211 223
f 718 762 870
f 869 870 762
f 869 762 875
f 876 875 762
f 17 16 41
f 42 17 41
f 344 343 356
f 357 344 356
f 361 360 375
f 376 361 375
f 860 887 762
f 876 762 887
f 860 762 705
f 213 212 223
f 224 213 223
f 898 897 732
f 231 241 242
f 230 241 231
f 505 556 562
f 473 556 505
f 26 1 466
f 51 26 466
f 75 51 466
f 98 75 466
f 126 98 466
f 146 126 466
f 163 146 466
f 185 163 466
f 202 185 466
f 216 202 466
f 227 216 466
f 238 227 466
f 468 238 466
f 251 238 468
f 266 251 468
f 281 266 468
f 299 281 468
f 310 299 468
f 326 310 468
f 338 326 468
f 379 338 468
f 396 379 468
f 418 396 468
f 442 418 468
f 897 902 825
f 897 825 732
f 18 17 42
f 43 18 42
f 213 224 225
f 214 213 225
f 110 132 133
f 109 132 110
f 825 915 916
f 902 915 825
f 363 362 376
f 377 363 376
f 214 225 226
f 215 214 226
f 111 110 134
f 133 134 110
f 731 910 822
f 920 910 731
f 19 18 43
f 44 19 43
f 731 825 916
f 920 731 916
f 468 467 469
f 466 467 468
f 112 111 135
f 134 135 111
f 364 363 377
f 378 364 377
f 346 345 359
f 360 346 359
f 305 315 316
f 306 305 316
f 317 306 316
f 19 44 45
f 20 19 45
f 217 216 227
f 228 217 227
f 113 135 136
f 112 135 113
f 366 381 382
f 365 381 366
f 307 306 317
f 318 307 317
f 2 27 28
f 3 2 28
f 874 866 835
f 861 835 866
f 884 874 835
f 890 884 835
f 900 890 835
f 903 900 835
f 941 903 835
f 21 20 45
f 46 21 45
f 114 113 137
f 136 137 113
f 347 346 360
f 361 347 360
f 924 941 831
f 835 831 941
f 922 924 831
f 22 21 46
f 47 22 46
f 307 318 319
f 308 307 319
f 217 228 229
f 218 217 229
f 938 937 956
f 955 956 937
f 23 22 47
f 48 23 47
f 348 347 361
f 362 348 361
f 122 114 124
f 138 124 137
f 137 124 114
f 368 384 385
f 367 384 368
f 4 3 28
f 29 4 28
f 309 308 319
f 320 309 319
f 233 244 245
f 232 244 233
f 349 348 362
f 363 349 362
f 115 114 122
f 123 115 122
f 24 23 48
f 49 24 48
f 5 4 29
f 30 5 29
f 311 310 327
f 326 327 310
f 370 386 387
f 369 386 370
f 350 349 363
f 364 350 363
f 123 125 140
f 139 140 125
f 115 123 116
f 116 123 140
f 234 245 246
f 233 245 234
f 6 5 30
f 31 6 30
f 963 914 835
f 862 963 835
f 913 835 914
f 982 835 913
f 983 835 982
f 986 835 983
f 987 835 986
f 985 835 987
f 984 835 985
f 844 835 984
f 861 862 835
f 25 24 49
f 50 25 49
f 365 380 381
f 351 380 365
f 821 942 964
f 943 942 821
f 235 246 247
f 234 246 235
f 7 6 31
f 32 7 31
f 988 936 823
f 935 823 936
f 817 988 823
f 371 387 388
f 372 371 388
f 370 387 371
f 7 32 33
f 8 7 33
f 821 822 944
f 943 821 944
f 711 741 998
f 997 711 998
f 26 51 52
f 27 26 52
f 9 8 33
f 34 9 33
f 802 804 1004
f 1000 802 1004
f 443 442 468
f 444 443 468
f 445 444 468
f 446 445 468
f 447 446 468
f 448 447 468
f 449 448 468
f 450 449 468
f 451 450 468
f 452 451 468
f 453 452 468
f 454 453 468
f 455 454 468
f 456 455 468
f 457 456 468
f 458 457 468
f 469 458 468
f 459 458 469
f 460 459 469
f 461 460 469
f 462 461 469
f 463 462 469
f 464 463 469
f 465 464 469
f 236 235 248
f 247 248 235
f 249 236 248
f 10 9 34
f 35 10 34
f 373 372 389
f 388 389 372
f 932 931 1001
f 1002 931 1003
f 1001 931 1002
f 221 232 233
f 222 221 233
f 312 327 328
f 311 327 312
f 28 27 52
f 53 28 52
f 11 10 35
f 36 11 35
f 997 886 711
f 878 711 879
f 886 879 711
f 117 140 141
f 116 140 117
f 804 971 1004
f 970 971 804
f 237 249 250
f 236 249 237
f 223 222 233
f 234 223 233
f 313 328 329
f 312 328 313
f 29 28 53
f 54 29 53
f 118 141 142
f 117 141 118
f 369 385 386
f 368 385 369
f 353 368 369
f 1016 1002 1003
f 1017 1016 1003
f 1013 1017 1003
f 1015 1017 1013
f 30 29 54
f 55 30 54
f 119 142 143
f 118 142 119
f 1010 742 744
f 1010 744 1005
f 12 11 36
f 37 12 36
f 1019 1006 744
f 240 239 252
f 253 240 252
f 120 143 144
f 119 143 120
f 224 223 234
f 235 224 234
f 704 759 996
f 996 759 993
f 121 144 145
f 120 144 121
f 31 30 55
f 56 31 55
f 356 355 370
f 371 356 370
f 945 973 948
f 966 948 973
f 1025 1019 750
f 744 750 1019
f 123 122 124
f 125 123 124
f 241 240 253
f 254 241 253
f 12 37 38
f 13 12 38
f 761 821 964
f 965 761 964
f 125 124 138
f 139 125 138
f 225 224 235
f 236 225 235
f 31 56 57
f 32 31 57
f 750 714 1025
f 1031 1025 714
f 127 126 146
f 147 127 146
f 357 371 372
f 358 357 372
f 241 254 255
f 242 241 255
f 127 147 148
f 128 127 148
f 14 13 38
f 39 14 38
f 33 32 57
f 58 33 57
f 1036 1037 844
f 844 1037 1040
f 1039 844 1040
f 1038 1036 844
f 984 1038 844
f 226 225 236
f 237 226 236
f 243 242 255
f 256 243 255
f 714 901 1031
f 911 901 714
f 33 58 59
f 34 33 59
f 228 238 239
f 227 238 228
f 1047 1043 741
f 1047 741 709
f 15 14 39
f 40 15 39
f 35 34 59
f 60 35 59
f 961 962 705
f 859 705 962
f 375 374 393
f 392 393 374
f 35 60 61
f 36 35 61
f 376 393 394
f 377 376 394
f 375 393 376
f 413 441 469
f 395 413 469
f 465 469 441
f 378 395 469
f 364 378 469
f 350 364 469
f 337 350 469
f 320 337 469
f 309 320 469
f 294 309 469
f 280 294 469
f 265 280 469
f 250 265 469
f 467 250 469
f 237 250 467
f 226 237 467
f 215 226 467
f 201 215 467
f 179 201 467
f 162 179 467
f 145 162 467
f 121 145 467
f 97 121 467
f 74 97 467
f 50 74 467
f 25 50 467
f 37 36 61
f 62 37 61
f 378 394 395
f 377 394 378
f 1054 1051 1053
f 1051 1052 1053
f 1039 1054 1053
f 1050 1053 1052
f 844 1039 1053
f 843 844 1053
f 1007 1050 1052
f 954 1050 1007
f 1008 954 1007
f 1011 954 1008
f 953 954 1011
f 129 128 148
f 149 129 148
f 245 244 258
f 259 245 258
f 705 761 961
f 965 961 761
f 129 149 150
f 130 129 150
f 38 37 62
f 63 38 62
f 1061 1062 719
f 719 1062 1063
f 316 321 322
f 323 322 321
f 719 764 1061
f 1065 1061 764
f 38 63 64
f 39 38 64
f 318 317 322
f 324 318 322
f 246 245 259
f 260 246 259
f 319 335 336
f 324 335 319
f 318 324 319
f 764 1064 1065
f 1044 1064 764
f 1030 1044 764
f 742 1030 764
f 854 988 817
f 380 379 396
f 397 380 396
f 133 132 151
f 152 133 151
f 928 732 823
f 928 823 935
f 40 39 64
f 65 40 64
f 320 336 337
f 319 336 320
f 804 958 970
f 957 958 804
f 247 246 260
f 261 247 260
f 134 133 152
f 153 134 152
f 41 40 65
f 66 41 65
f 135 134 153
f 154 135 153
f 247 261 262
f 248 247 262
f 135 154 171
f 136 135 171
f 155 136 171
f 172 155 171
f 249 248 263
f 264 249 263
f 137 136 155
f 156 137 155
f 42 66 67
f 43 42 67
f 1076 1078 989
f 989 1078 1079
f 1080 989 1079
f 1077 1076 992
f 992 1076 989
f 1082 1077 992
f 1015 1082 1081
f 1081 1082 992
f 1017 1015 1081
f 250 249 264
f 265 250 264
f 714 749 912
f 911 714 912
f 44 43 67
f 68 44 67
f 877 871 749
f 871 912 749
f 254 253 268
f 269 254 268
f 45 44 68
f 69 45 68
f 1086 1024 990
f 1021 990 1024
f 1080 1086 989
f 989 1086 990
f 804 908 957
f 905 908 804
f 793 905 804
f 1074 401 402
f 1074 402 384
f 1087 401 1074
f 749 711 878
f 877 749 878
f 24 25 467
f 23 24 467
f 22 23 467
f 21 22 467
f 20 21 467
f 19 20 467
f 466 19 467
f 18 19 466
f 17 18 466
f 16 17 466
f 15 16 466
f 14 15 466
f 13 14 466
f 12 13 466
f 11 12 466
f 10 11 466
f 9 10 466
f 8 9 466
f 7 8 466
f 6 7 466
f 5 6 466
f 4 5 466
f 3 4 466
f 2 3 466
f 1 2 466
f 828 829 1092
f 1091 828 1092
f 138 137 156
f 157 138 156
f 996 977 704
f 976 704 977
f 839 704 976
f 255 254 269
f 270 255 269
f 947 948 966
f 967 947 966
f 140 139 157
f 158 140 157
f 709 828 1095
f 1091 1095 828
f 47 46 70
f 71 47 70
f 142 141 159
f 176 142 159
f 175 176 159
f 976 980 839
f 839 980 1026
f 385 384 402
f 403 385 402
f 160 176 177
f 142 176 160
f 255 270 271
f 256 255 271
f 144 143 160
f 161 144 160
f 927 926 1012
f 967 927 929
f 929 927 1012
f 930 967 929
f 947 967 930
f 49 48 72
f 73 49 72
f 147 146 163
f 164 147 163
f 385 403 404
f 386 385 404
f 322 323 324
f 325 324 323
f 1095 1100 709
f 1097 709 1100
f 257 256 271
f 272 257 271
f 148 147 164
f 165 148 164
f 972 839 1026
f 969 839 972
f 736 839 969
f 325 332 333
f 323 332 325
f 52 51 75
f 76 52 75
f 324 325 335
f 334 335 325
f 926 858 1012
f 1014 1012 858
f 852 1014 858
f 850 1014 852
f 1084 1014 850
f 387 386 404
f 405 387 404
f 152 151 167
f 168 152 167
f 153 152 168
f 169 153 168
f 53 52 76
f 77 53 76
f 154 153 169
f 170 154 169
f 387 405 406
f 388 387 406
f 327 326 338
f 339 327 338
f 54 53 77
f 78 54 77
f 851 917 1085
f 917 1089 1090
f 1096 917 1090
f 1098 917 1096
f 1099 917 1098
f 1085 917 1099
f 850 851 1084
f 1084 851 1085
f 157 156 173
f 174 157 173
f 158 157 174
f 389 388 406
f 407 389 406
f 960 959 736
f 842 736 959
f 968 960 736
f 328 327 339
f 340 328 339
f 55 54 78
f 79 55 78
f 917 918 1089
f 1088 918 1093
f 1089 918 1088
f 159 158 174
f 175 159 174
f 389 407 408
f 390 389 408
f 800 802 981
f 1000 981 802
f 978 800 981
f 160 177 178
f 161 160 178
f 56 55 79
f 80 56 79
f 933 932 1001
f 1068 933 1001
f 162 161 178
f 179 162 178
f 391 390 408
f 409 391 408
f 800 979 995
f 978 979 800
f 164 163 186
f 185 186 163
f 259 258 273
f 274 259 273
f 165 186 187
f 164 186 165
f 57 56 80
f 81 57 80
f 949 934 1058
f 1068 1058 934
f 1055 949 1058
f 933 1068 934
f 180 187 188
f 165 187 180
f 391 409 410
f 392 391 410
f 945 946 974
f 973 945 974
f 170 190 191
f 169 190 170
f 260 259 274
f 275 260 274
f 759 800 994
f 993 759 994
f 183 181 191
f 170 191 181
f 192 183 191
f 58 57 81
f 82 58 81
f 946 949 1055
f 975 946 1055
f 974 946 975
f 182 171 181
f 171 170 181
f 393 392 410
f 411 393 410
f 733 843 1072
f 1083 1073 843
f 1072 843 1073
f 260 275 276
f 261 260 276
f 182 184 194
f 193 194 184
f 171 182 172
f 172 182 194
f 1071 1070 733
f 827 733 1070
f 59 58 82
f 83 59 82
f 889 341 342
f 849 889 342
f 849 342 330
f 1074 1075 718
f 1087 1074 718
f 870 1087 718
f 394 393 411
f 412 394 411
f 173 194 195
f 172 194 173
f 262 261 276
f 277 262 276
f 718 880 881
f 1060 880 718
f 1075 1060 718
f 330 342 343
f 331 330 343
f 59 83 84
f 60 59 84
f 174 195 196
f 173 195 174
f 263 277 278
f 262 277 263
f 175 174 197
f 196 197 174
f 395 394 412
f 413 395 412
f 808 872 888
f 867 872 808
f 868 867 808
f 883 868 808
f 882 883 808
f 718 882 808
f 264 263 278
f 279 264 278
f 176 197 198
f 175 197 176
f 793 798 921
f 896 793 921
f 895 793 896
f 905 793 895
f 61 60 84
f 85 61 84
f 333 332 345
f 346 333 345
f 177 198 199
f 176 198 177
f 397 418 419
f 396 418 397
f 334 333 346
f 347 334 346
f 264 279 280
f 265 264 280
f 1021 1020 991
f 991 1020 1029
f 1041 991 1029
f 990 1021 991
f 999 991 1041
f 178 199 200
f 177 199 178
f 62 61 85
f 86 62 85
f 921 798 925
f 1103 925 798
f 335 334 347
f 348 335 347
f 398 419 420
f 397 419 398
f 179 200 201
f 178 200 179
f 63 62 86
f 87 63 86
f 336 335 348
f 349 336 348
f 267 266 281
f 282 267 281
f 182 181 183
f 184 182 183
f 399 420 421
f 398 420 399
f 798 810 864
f 865 798 864
f 873 798 865
f 885 798 873
f 891 798 885
f 899 798 891
f 904 798 899
f 1103 798 904
f 337 336 349
f 350 337 349
f 64 63 87
f 88 64 87
f 338 379 351
f 351 379 380
f 339 338 351
f 268 283 284
f 269 268 284
f 193 184 192
f 184 183 192
f 939 1046 1049
f 1057 939 1049
f 938 1046 939
f 1045 1046 938
f 1048 1045 938
f 1018 1048 938
f 956 1018 938
f 400 421 422
f 399 421 400
f 339 351 352
f 340 339 352
f 64 88 89
f 65 64 89
f 894 923 840
f 831 840 923
f 893 894 840
f 186 185 202
f 203 186 202
f 270 269 284
f 285 270 284
f 186 203 204
f 187 186 204
f 270 285 286
f 271 270 286
f 191 207 208
f 192 191 208
f 940 939 1033
f 1034 939 1035
f 1059 1035 939
f 1033 939 1034
f 950 940 1033
f 1056 1059 939
f 1057 1056 939
f 66 65 89
f 90 66 89
f 67 66 90
f 193 192 208
f 209 193 208
f 959 907 842
f 906 842 907
f 272 271 286
f 287 272 286
f 67 90 91
f 68 67 91
f 917 194 193
f 918 193 209
f 919 918 209
f 917 193 918
f 851 194 917
f 69 68 91
f 92 69 91
f 952 951 1093
f 1023 1093 951
f 919 952 1093
f 918 919 1093
f 1022 1023 951
f 1028 1022 951
f 927 210 196
f 926 196 195
f 927 196 926
f 858 926 195
f 69 92 93
f 70 69 93
f 197 196 210
f 211 197 210
f 840 842 906
f 892 840 906
f 893 840 892
f 962 427 428
f 962 428 414
f 859 962 414
f 860 859 414
f 887 860 414
f 198 197 211
f 212 198 211
f 71 70 93
f 94 71 93
f 198 212 213
f 199 198 213
f 951 950 1028
f 950 1027 1028
f 1042 1027 950
f 1032 1042 950
f 1033 1032 950
f 200 199 213
f 214 200 213
f 876 414 415
f 875 876 415
f 875 415 401
f 887 414 876
f 343 342 355
f 356 343 355
f 1067 1102 827
f 829 827 1102
f 1066 1067 827
f 1069 1066 827
f 274 273 288
f 289 274 288
f 201 200 214
f 215 201 214
f 1102 1101 829
f 1094 829 1101
f 72 71 94
f 95 72 94
f 203 202 216
f 217 203 216
f 402 401 415
f 417 402 415
f 799 808 888
f 889 799 888
f 849 799 889
f 847 799 849
f 204 203 217
f 218 204 217
f 275 274 289
f 290 275 289
f 204 218 219
f 205 204 219
f 799 855 856
f 848 855 799
f 847 848 799
f 403 402 417
f 431 403 417
f 206 205 219
f 220 206 219
f 73 72 95
f 96 73 95
f 810 799 864
f 863 864 799
f 1105 863 799
f 1104 1105 799
f 211 210 221
f 222 211 221
f 276 275 290
f 291 276 290
f 799 856 1104
f 857 1104 856
f 74 73 96
f 97 74 96
f 847 330 848
f 849 330 847
f 404 431 432
f 403 431 404
f 277 276 291
f 292 277 291
f 850 194 851
f 852 194 850
f 405 404 433
f 432 433 404
f 856 585 857
f 330 585 856
f 855 330 856
f 76 75 98
f 99 76 98
f 195 194 852
f 858 195 852
f 278 292 293
f 279 278 293
f 586 598 865
f 864 586 865
f 863 586 864
f 77 76 99
f 100 77 99
f 861 512 862
f 866 512 861
f 406 433 434
f 405 433 406
f 867 868 354
f 353 354 868
f 280 279 293
f 294 280 293
f 407 406 435
f 434 435 406
f 878 328 340
f 877 340 871
f 878 340 877
f 879 328 878
f 329 328 879
f 78 77 100
f 101 78 100
f 354 341 867
f 872 867 341
f 282 299 300
f 281 299 282
f 598 602 873
f 865 598 873
f 79 78 101
f 102 79 101
f 408 435 436
f 407 435 408
f 882 368 883
f 881 368 882
f 367 368 881
f 880 367 881
f 295 300 301
f 282 300 295
f 283 282 295
f 602 613 885
f 873 602 885
f 409 436 437
f 408 436 409
f 888 341 889
f 872 341 888
f 80 79 102
f 103 80 102
f 613 615 891
f 885 613 891
f 284 283 295
f 296 284 295
f 517 508 894
f 893 517 894
f 892 517 893
f 410 437 438
f 409 437 410
f 615 629 899
f 891 615 899
f 81 80 103
f 104 81 103
f 285 284 296
f 298 285 296
f 352 366 901
f 911 352 901
f 912 352 911
f 340 352 912
f 871 340 912
f 411 438 439
f 410 438 411
f 629 632 904
f 899 629 904
f 82 81 104
f 105 82 104
f 905 565 908
f 563 565 905
f 895 563 905
f 286 285 298
f 1066 286 298
f 1067 1066 298
f 303 1067 298
f 517 892 906
f 907 517 906
f 412 439 440
f 411 439 412
f 512 521 913
f 914 512 913
f 82 105 106
f 83 82 106
f 413 440 441
f 412 440 413
f 84 83 106
f 107 84 106
f 416 428 429
f 414 428 416
f 902 424 425
f 897 424 902
f 898 424 897
f 928 424 898
f 423 424 928
f 935 423 928
f 936 423 935
f 915 902 425
f 85 84 107
f 108 85 107
f 415 416 417
f 417 416 430
f 508 512 924
f 922 508 924
f 923 508 922
f 894 508 923
f 86 85 108
f 109 86 108
f 563 896 921
f 925 563 921
f 86 109 110
f 87 86 110
f 368 353 883
f 868 883 353
f 419 418 442
f 443 419 442
f 88 87 110
f 111 88 110
f 562 574 931
f 932 562 931
f 933 562 932
f 934 562 933
f 423 422 446
f 447 423 446
f 208 582 938
f 937 938 582
f 939 208 938
f 940 208 939
f 289 304 305
f 288 304 289
f 89 88 111
f 112 89 111
f 426 425 449
f 450 426 449
f 290 305 306
f 289 305 290
f 909 426 944
f 943 944 426
f 910 426 909
f 425 426 910
f 920 425 910
f 916 425 920
f 915 425 916
f 942 943 426
f 89 112 113
f 90 89 113
f 427 451 452
f 428 427 452
f 291 290 307
f 306 307 290
f 946 562 949
f 934 949 562
f 945 562 946
f 947 505 948
f 948 562 945
f 948 505 562
f 546 505 930
f 930 505 947
f 91 90 113
f 114 91 113
f 430 429 453
f 454 430 453
f 209 208 951
f 950 951 208
f 952 209 951
f 940 950 208
f 292 307 308
f 293 292 308
f 291 307 292
f 618 287 954
f 953 618 954
f 92 91 115
f 116 92 115
f 431 455 456
f 432 431 456
f 919 209 952
f 294 293 309
f 308 309 293
f 957 908 559
f 565 559 908
f 958 957 559
f 94 93 117
f 118 94 117
f 517 907 959
f 960 517 959
f 433 432 456
f 457 433 456
f 297 301 302
f 295 301 297
f 96 95 119
f 120 96 119
f 961 427 962
f 942 426 427
f 965 427 961
f 964 427 965
f 942 427 964
f 433 457 458
f 434 433 458
f 99 126 127
f 98 126 99
f 435 434 458
f 459 435 458
f 210 927 967
f 966 210 967
f 973 210 966
f 221 210 973
f 974 221 973
f 975 221 974
f 298 297 303
f 302 303 297
f 970 559 971
f 958 559 970
f 100 127 128
f 99 127 100
f 436 435 459
f 460 436 459
f 483 960 968
f 969 483 968
f 517 960 483
f 972 483 969
f 101 128 129
f 100 128 101
f 978 981 556
f 564 556 981
f 979 978 556
f 437 436 460
f 461 437 460
f 976 516 980
f 977 516 976
f 102 129 130
f 101 129 102
f 438 437 461
f 462 438 461
f 631 273 989
f 992 989 273
f 990 631 989
f 991 631 990
f 439 438 462
f 463 439 462
f 440 439 463
f 464 440 463
f 300 299 310
f 311 300 310
f 996 556 473
f 993 556 996
f 977 996 473
f 994 556 993
f 995 556 994
f 979 556 995
f 516 977 473
f 441 440 464
f 465 441 464
f 1012 1014 546
f 548 546 1014
f 929 1012 546
f 301 300 311
f 312 301 311
f 1003 574 1013
f 931 574 1003
f 618 953 1011
f 520 618 1011
f 582 543 1018
f 956 582 1018
f 955 582 956
f 1000 1004 564
f 559 564 971
f 971 564 1004
f 981 1000 564
f 516 483 972
f 1026 516 972
f 980 516 1026
f 644 638 1024
f 1021 1024 638
f 1020 1021 638
f 1028 1027 489
f 539 489 1027
f 1022 1028 489
f 539 1032 1033
f 1034 539 1033
f 1025 366 1019
f 1006 1019 366
f 382 1006 366
f 1005 1006 382
f 1010 1005 382
f 1009 1010 382
f 1030 1009 382
f 383 1030 382
f 1044 1030 383
f 1031 366 1025
f 901 366 1031
f 638 631 1029
f 1041 1029 631
f 543 539 1048
f 1018 543 1048
f 221 975 1055
f 232 221 1055
f 1058 232 1055
f 539 1056 1057
f 1049 539 1057
f 1044 383 1064
f 244 232 1002
f 1001 1002 232
f 1016 244 1002
f 1068 1001 232
f 1058 1068 232
f 1072 287 286
f 1070 286 1069
f 1071 286 1070
f 1072 286 1071
f 1073 287 1072
f 1066 1069 286
f 1075 384 367
f 1074 384 1075
f 1060 1075 367
f 244 1016 1017
f 258 244 1017
f 1081 258 1017
f 287 1073 1083
f 1053 287 1083
f 1050 287 1053
f 1064 383 1065
f 1065 400 1061
f 1062 1061 400
f 383 400 1065
f 574 676 1013
f 1015 676 1082
f 1013 676 1015
f 548 1014 1084
f 1085 548 1084
f 870 401 1087
f 869 401 870
f 875 401 869
f 1089 548 1090
f 1088 548 1089
f 650 644 1079
f 1080 644 1086
f 1079 644 1080
f 1088 1093 489
f 1023 489 1093
f 548 1088 489
f 659 650 1078
f 1079 1078 650
f 672 659 1076
f 1078 1076 659
f 674 672 1077
f 1076 1077 672
f 984 521 1038
f 985 521 984
f 676 674 1082
f 1077 1082 674
f 273 258 1081
f 992 273 1081
f 303 314 1101
f 1102 303 1101
f 1067 303 1102
f 521 520 1007
f 1052 521 1007
f 1097 1100 313
f 314 313 1100
f 1047 1097 313
f 1043 1047 313
f 998 1043 313
f 329 998 313
f 997 998 329
f 886 997 329
f 1039 521 1054
f 1040 521 1039
f 1095 314 1100
f 1091 314 1095
f 1092 314 1091
f 1094 314 1092
f 1101 314 1094
f 632 925 1103
f 563 925 632
f 904 632 1103
f 512 903 941
f 924 512 941
f 423 936 988
f 422 423 988
f 854 422 988
f 846 422 854
f 845 422 846
f 853 422 845
f 400 422 853
f 1063 400 853
f 1062 400 1063
f 1104 585 1105
f 857 585 1104
f 585 586 863
f 1105 585 863
