v -2 -2 -0.099999999999999978
v -2 -1.8999999999999999 -0.11399999999999999
v -2 -1.8 -0.12799999999999995
v -2 -1.7 -0.14199999999999999
v -2 -1.6000000000000001 -0.15599999999999997
v -2 -1.2999999999999998 -0.19800000000000001
v -2 -1.1000000000000001 -0.22599999999999998
v -2 -0.79999999999999982 -0.26800000000000002
v -2 -0.69999999999999996 -0.28200000000000003
v -2 -0.59999999999999987 -0.29600000000000004
v -2 -0.5 -0.31
v -2 -0.29999999999999982 -0.33800000000000002
v -2 -0.19999999999999996 -0.35199999999999998
v -2 -0.099999999999999867 -0.36600000000000005
v -2 0 -0.38
v -2 0.40000000000000036 -0.43600000000000005
v -2 0.5 -0.45000000000000001
v -2 0.80000000000000027 -0.49200000000000005
v -2 0.90000000000000036 -0.50600000000000001
v -2 1 -0.52000000000000002
v -2 1.4000000000000004 -0.57600000000000007
v -2 1.5 -0.59000000000000008
v -2 1.9000000000000004 -0.64600000000000013
v -2 2 -0.66000000000000003
v -1.8999999999999999 -2 -0.080999999999999961
v -1.8999999999999999 -1.8999999999999999 -0.094999999999999973
v -1.8999999999999999 -1.8 -0.10899999999999993
v -1.8999999999999999 -1.7 -0.12299999999999997
v -1.8999999999999999 -1.6000000000000001 -0.13699999999999996
v -1.8999999999999999 -1.2999999999999998 -0.17899999999999999
v -1.8999999999999999 -1.1000000000000001 -0.20699999999999996
v -1.8999999999999999 -0.79999999999999982 -0.249
v -1.8999999999999999 -0.69999999999999996 -0.26300000000000001
v -1.8999999999999999 -0.59999999999999987 -0.27700000000000002
v -1.8999999999999999 -0.5 -0.29099999999999998
v -1.8999999999999999 -0.29999999999999982 -0.31900000000000001
v -1.8999999999999999 -0.19999999999999996 -0.33299999999999996
v -1.8999999999999999 -0.099999999999999867 -0.34700000000000003
v -1.8999999999999999 0 -0.36099999999999999
v -1.8999999999999999 0.40000000000000036 -0.41700000000000004
v -1.8999999999999999 0.5 -0.43099999999999999
v -1.8999999999999999 0.90000000000000036 -0.48700000000000004
v -1.8999999999999999 1 -0.501
v -1.8999999999999999 1.1000000000000001 -0.51500000000000001
v -1.8999999999999999 1.4000000000000004 -0.55700000000000005
v -1.8999999999999999 1.5 -0.57099999999999995
v -1.8999999999999999 1.9000000000000004 -0.627
v -1.8999999999999999 2 -0.64100000000000001
v -1.8 -2 -0.062
v -1.8 -1.8999999999999999 -0.076000000000000012
v -1.8 -1.8 -0.089999999999999969
v -1.8 -1.7 -0.10400000000000001
v -1.8 -1.6000000000000001 -0.11799999999999999
v -1.8 -1.2999999999999998 -0.16000000000000003
v -1.8 -1.1000000000000001 -0.188
v -1.8 -0.79999999999999982 -0.23000000000000004
v -1.8 -0.69999999999999996 -0.24400000000000002
v -1.8 -0.59999999999999987 -0.25800000000000001
v -1.8 -0.5 -0.27200000000000002
v -1.8 -0.29999999999999982 -0.30000000000000004
v -1.8 -0.19999999999999996 -0.31400000000000006
v -1.8 -0.099999999999999867 -0.32800000000000007
v -1.8 0 -0.34200000000000003
v -1.8 0.40000000000000036 -0.39800000000000008
v -1.8 0.5 -0.41200000000000003
v -1.8 0.90000000000000036 -0.46800000000000008
v -1.8 1 -0.48200000000000004
v -1.8 1.1000000000000001 -0.49600000000000005
v -1.8 1.2000000000000002 -0.51000000000000001
v -1.8 1.4000000000000004 -0.53800000000000003
v -1.8 1.5 -0.55200000000000005
v -1.8 1.9000000000000004 -0.6080000000000001
v -1.8 2 -0.62200000000000011
v -1.7 -2 -0.042999999999999983
v -1.7 -1.8999999999999999 -0.056999999999999995
v -1.7 -1.8 -0.070999999999999952
v -1.7 -1.7 -0.084999999999999992
v -1.7 -1.6000000000000001 -0.098999999999999977
v -1.7 -1.2999999999999998 -0.14100000000000001
v -1.7 -1.1000000000000001 -0.16899999999999998
v -1.7 -0.79999999999999982 -0.21100000000000002
v -1.7 -0.69999999999999996 -0.22500000000000001
v -1.7 -0.59999999999999987 -0.23900000000000002
v -1.7 -0.5 -0.253
v -1.7 -0.29999999999999982 -0.28100000000000003
v -1.7 -0.19999999999999996 -0.29500000000000004
v -1.7 -0.099999999999999867 -0.30900000000000005
v -1.7 0 -0.32300000000000001
v -1.7 0.40000000000000036 -0.37900000000000006
v -1.7 0.5 -0.39300000000000002
v -1.7 0.90000000000000036 -0.44900000000000007
v -1.7 1 -0.46300000000000002
v -1.7 1.2000000000000002 -0.49100000000000005
v -1.7 1.3000000000000003 -0.50500000000000012
v -1.7 1.4000000000000004 -0.51900000000000013
v -1.7 1.5 -0.53300000000000003
v -1.7 1.9000000000000004 -0.58900000000000008
v -1.7 2 -0.60299999999999998
v -1.6000000000000001 -2 -0.024000000000000021
v -1.6000000000000001 -1.8999999999999999 -0.038000000000000034
v -1.6000000000000001 -1.8 -0.051999999999999991
v -1.6000000000000001 -1.7 -0.066000000000000031
v -1.6000000000000001 -1.6000000000000001 -0.080000000000000016
v -1.6000000000000001 -1.2999999999999998 -0.12200000000000005
v -1.6000000000000001 -1.1000000000000001 -0.15000000000000002
v -1.6000000000000001 -0.79999999999999982 -0.19200000000000006
v -1.6000000000000001 -0.69999999999999996 -0.20600000000000004
v -1.6000000000000001 -0.59999999999999987 -0.22000000000000006
v -1.6000000000000001 -0.5 -0.23400000000000004
v -1.6000000000000001 -0.29999999999999982 -0.26200000000000007
v -1.6000000000000001 -0.19999999999999996 -0.27600000000000002
v -1.6000000000000001 -0.099999999999999867 -0.29000000000000009
v -1.6000000000000001 0 -0.30400000000000005
v -1.6000000000000001 0.40000000000000036 -0.3600000000000001
v -1.6000000000000001 0.5 -0.37400000000000005
v -1.6000000000000001 0.90000000000000036 -0.4300000000000001
v -1.6000000000000001 1 -0.44400000000000006
v -1.6000000000000001 1.3000000000000003 -0.4860000000000001
v -1.6000000000000001 1.4000000000000004 -0.50000000000000011
v -1.6000000000000001 1.5 -0.51400000000000001
v -1.6000000000000001 1.9000000000000004 -0.57000000000000006
v -1.6000000000000001 2 -0.58400000000000007
v -1.5 -2 -0.0050000000000000044
v -1.5 -1.8999999999999999 -0.019000000000000017
v -1.5 -1.8 -0.032999999999999974
v -1.5 -1.7 -0.047000000000000014
v -1.5 -1.6000000000000001 -0.060999999999999999
v -1.5 -1.2999999999999998 -0.10300000000000004
v -1.5 -1.1000000000000001 -0.13100000000000001
v -1.5 -0.79999999999999982 -0.17300000000000004
v -1.5 -0.69999999999999996 -0.18700000000000003
v -1.5 -0.59999999999999987 -0.20100000000000004
v -1.5 -0.5 -0.21500000000000002
v -1.5 -0.29999999999999982 -0.24300000000000005
v -1.5 -0.19999999999999996 -0.25700000000000001
v -1.5 -0.099999999999999867 -0.27100000000000007
v -1.5 0 -0.28500000000000003
v -1.5 0.40000000000000036 -0.34100000000000008
v -1.5 0.5 -0.35500000000000004
v -1.5 0.90000000000000036 -0.41100000000000009
v -1.5 1 -0.42500000000000004
v -1.5 1.4000000000000004 -0.48100000000000009
v -1.5 1.5 -0.49500000000000005
v -1.5 1.6000000000000001 -0.50900000000000012
v -1.5 1.9000000000000004 -0.55100000000000016
v -1.5 2 -0.56500000000000006
v -1.3999999999999999 -2 0.014000000000000068
v -1.3999999999999999 -1.8999999999999999 5.5511151231257827e-17
v -1.3999999999999999 -1.8 -0.013999999999999901
v -1.3999999999999999 -1.7 -0.027999999999999942
v -1.3999999999999999 -1.6000000000000001 -0.041999999999999926
v -1.3999999999999999 -0.79999999999999982 -0.15399999999999997
v -1.3999999999999999 -0.69999999999999996 -0.16799999999999995
v -1.3999999999999999 -0.59999999999999987 -0.18199999999999997
v -1.3999999999999999 -0.5 -0.19599999999999995
v -1.3999999999999999 -0.29999999999999982 -0.22399999999999998
v -1.3999999999999999 -0.19999999999999996 -0.23799999999999996
v -1.3999999999999999 -0.099999999999999867 -0.252
v -1.3999999999999999 0 -0.26599999999999996
v -1.3999999999999999 0.40000000000000036 -0.32200000000000001
v -1.3999999999999999 0.5 -0.33599999999999997
v -1.3999999999999999 0.90000000000000036 -0.39200000000000002
v -1.3999999999999999 1 -0.40599999999999997
v -1.3999999999999999 1.4000000000000004 -0.46200000000000002
v -1.3999999999999999 1.5 -0.47599999999999998
v -1.3999999999999999 1.6000000000000001 -0.48999999999999999
v -1.3999999999999999 1.9000000000000004 -0.53200000000000003
v -1.3999999999999999 2 -0.54600000000000004
v -1.2999999999999998 -2 0.033000000000000057
v -1.2999999999999998 -1.8999999999999999 0.019000000000000045
v -1.2999999999999998 -1.8 0.0050000000000000877
v -1.2999999999999998 -1.7 -0.0089999999999999525
v -1.2999999999999998 -1.6000000000000001 -0.022999999999999937
v -1.2999999999999998 -0.69999999999999996 -0.14899999999999997
v -1.2999999999999998 -0.59999999999999987 -0.16299999999999998
v -1.2999999999999998 -0.5 -0.17699999999999996
v -1.2999999999999998 -0.29999999999999982 -0.20499999999999999
v -1.2999999999999998 -0.19999999999999996 -0.21899999999999997
v -1.2999999999999998 -0.099999999999999867 -0.23299999999999998
v -1.2999999999999998 0 -0.24699999999999997
v -1.2999999999999998 0.10000000000000009 -0.26100000000000001
v -1.2999999999999998 0.40000000000000036 -0.30300000000000005
v -1.2999999999999998 0.5 -0.31699999999999995
v -1.2999999999999998 0.90000000000000036 -0.373
v -1.2999999999999998 1 -0.38700000000000001
v -1.2999999999999998 1.4000000000000004 -0.44300000000000006
v -1.2999999999999998 1.5 -0.45699999999999996
v -1.2999999999999998 1.9000000000000004 -0.51300000000000001
v -1.2999999999999998 2 -0.52700000000000002
v -1.2 -2 0.052000000000000046
v -1.2 -1.8999999999999999 0.038000000000000034
v -1.2 -1.8 0.024000000000000077
v -1.2 -1.7 0.010000000000000037
v -1.2 -1.6000000000000001 -0.003999999999999948
v -1.2 -0.59999999999999987 -0.14399999999999999
v -1.2 -0.5 -0.15799999999999997
v -1.2 -0.29999999999999982 -0.186
v -1.2 -0.19999999999999996 -0.19999999999999998
v -1.2 -0.099999999999999867 -0.214
v -1.2 0 -0.22799999999999998
v -1.2 0.10000000000000009 -0.24199999999999999
v -1.2 0.40000000000000036 -0.28400000000000003
v -1.2 0.5 -0.29799999999999999
v -1.2 1 -0.36799999999999999
v -1.2 1.4000000000000004 -0.42400000000000004
v -1.2 1.5 -0.438
v -1.2 2 -0.50800000000000001
v -1.1000000000000001 -2 0.071000000000000008
v -1.1000000000000001 -1.8999999999999999 0.056999999999999995
v -1.1000000000000001 -1.8 0.043000000000000038
v -1.1000000000000001 -1.7 0.028999999999999998
v -1.1000000000000001 -0.5 -0.13900000000000001
v -1.1000000000000001 -0.29999999999999982 -0.16700000000000004
v -1.1000000000000001 -0.19999999999999996 -0.18100000000000002
v -1.1000000000000001 -0.099999999999999867 -0.19500000000000003
v -1.1000000000000001 0 -0.20900000000000002
v -1.1000000000000001 0.40000000000000036 -0.26500000000000007
v -1.1000000000000001 0.5 -0.27900000000000003
v -1.1000000000000001 0.90000000000000036 -0.33500000000000008
v -1.1000000000000001 1 -0.34900000000000003
v -1.1000000000000001 1.4000000000000004 -0.40500000000000008
v -1.1000000000000001 1.5 -0.41900000000000004
v -1.1000000000000001 1.9000000000000004 -0.47500000000000009
v -1.1000000000000001 2 -0.48900000000000005
v -0.79999999999999982 -2 0.12800000000000006
v -0.79999999999999982 -1.8999999999999999 0.11400000000000005
v -0.79999999999999982 -1.8 0.10000000000000009
v -0.79999999999999982 -1.7 0.086000000000000049
v -0.79999999999999982 -0.19999999999999996 -0.12399999999999997
v -0.79999999999999982 -0.099999999999999867 -0.13799999999999998
v -0.79999999999999982 0 -0.15199999999999997
v -0.79999999999999982 0.40000000000000036 -0.20800000000000002
v -0.79999999999999982 0.5 -0.22199999999999998
v -0.79999999999999982 0.80000000000000027 -0.26400000000000001
v -0.79999999999999982 0.90000000000000036 -0.27800000000000002
v -0.79999999999999982 1 -0.29199999999999998
v -0.79999999999999982 1.4000000000000004 -0.34800000000000003
v -0.79999999999999982 1.5 -0.36199999999999999
v -0.79999999999999982 1.9000000000000004 -0.41800000000000004
v -0.79999999999999982 2 -0.432
v -0.69999999999999996 -2 0.14700000000000005
v -0.69999999999999996 -1.8999999999999999 0.13300000000000003
v -0.69999999999999996 -1.8 0.11900000000000008
v -0.69999999999999996 -1.7 0.10500000000000004
v -0.69999999999999996 -0.099999999999999867 -0.11899999999999999
v -0.69999999999999996 0 -0.13299999999999998
v -0.69999999999999996 0.40000000000000036 -0.18900000000000003
v -0.69999999999999996 0.5 -0.20299999999999999
v -0.69999999999999996 0.80000000000000027 -0.24500000000000002
v -0.69999999999999996 0.90000000000000036 -0.25900000000000001
v -0.69999999999999996 1 -0.27300000000000002
v -0.69999999999999996 1.4000000000000004 -0.32900000000000007
v -0.69999999999999996 1.5 -0.34299999999999997
v -0.69999999999999996 1.9000000000000004 -0.39900000000000002
v -0.69999999999999996 2 -0.41300000000000003
v -0.59999999999999987 -2 0.16600000000000004
v -0.59999999999999987 -1.8999999999999999 0.15200000000000002
v -0.59999999999999987 -1.8 0.13800000000000007
v -0.59999999999999987 -1.7 0.12400000000000004
v -0.59999999999999987 -1.6000000000000001 0.11000000000000006
v -0.59999999999999987 0 -0.11399999999999998
v -0.59999999999999987 0.10000000000000009 -0.128
v -0.59999999999999987 0.40000000000000036 -0.17000000000000004
v -0.59999999999999987 0.5 -0.184
v -0.59999999999999987 0.90000000000000036 -0.24000000000000005
v -0.59999999999999987 1 -0.254
v -0.59999999999999987 1.1000000000000001 -0.26800000000000002
v -0.59999999999999987 1.4000000000000004 -0.31000000000000005
v -0.59999999999999987 1.5 -0.32400000000000001
v -0.59999999999999987 1.9000000000000004 -0.38000000000000006
v -0.59999999999999987 2 -0.39400000000000002
v -0.5 -2 0.18500000000000003
v -0.5 -1.8999999999999999 0.17100000000000001
v -0.5 -1.8 0.15700000000000006
v -0.5 -1.7 0.14300000000000002
v -0.5 -1.6000000000000001 0.12900000000000003
v -0.5 0.10000000000000009 -0.10900000000000001
v -0.5 0.40000000000000036 -0.15100000000000005
v -0.5 0.5 -0.16500000000000001
v -0.5 0.90000000000000036 -0.22100000000000006
v -0.5 1 -0.23500000000000001
v -0.5 1.1000000000000001 -0.24900000000000003
v -0.5 1.2000000000000002 -0.26300000000000001
v -0.5 1.4000000000000004 -0.29100000000000004
v -0.5 1.5 -0.30500000000000005
v -0.5 1.9000000000000004 -0.3610000000000001
v -0.5 2 -0.375
v -0.29999999999999982 -2 0.22300000000000006
v -0.29999999999999982 -1.8999999999999999 0.20900000000000005
v -0.29999999999999982 -1.8 0.19500000000000009
v -0.29999999999999982 -1.7 0.18100000000000005
v -0.29999999999999982 -1.6000000000000001 0.16700000000000007
v -0.29999999999999982 -1.2999999999999998 0.12500000000000003
v -0.29999999999999982 0.40000000000000036 -0.11300000000000002
v -0.29999999999999982 0.5 -0.12699999999999997
v -0.29999999999999982 0.60000000000000009 -0.14099999999999999
v -0.29999999999999982 0.90000000000000036 -0.18300000000000002
v -0.29999999999999982 1 -0.19699999999999998
v -0.29999999999999982 1.3000000000000003 -0.23900000000000002
v -0.29999999999999982 1.4000000000000004 -0.253
v -0.29999999999999982 1.5 -0.26700000000000002
v -0.29999999999999982 1.9000000000000004 -0.32300000000000006
v -0.29999999999999982 2 -0.33699999999999997
v -0.19999999999999996 -2 0.24200000000000005
v -0.19999999999999996 -1.8999999999999999 0.22800000000000004
v -0.19999999999999996 -1.8 0.21400000000000008
v -0.19999999999999996 -1.7 0.20000000000000001
v -0.19999999999999996 -1.6000000000000001 0.18600000000000005
v -0.19999999999999996 -1.2999999999999998 0.14400000000000002
v -0.19999999999999996 -1.2 0.13
v -0.19999999999999996 0.40000000000000036 -0.094000000000000056
v -0.19999999999999996 0.5 -0.108
v -0.19999999999999996 0.60000000000000009 -0.12200000000000001
v -0.19999999999999996 0.70000000000000018 -0.13600000000000001
v -0.19999999999999996 0.90000000000000036 -0.16400000000000003
v -0.19999999999999996 1 -0.17799999999999999
v -0.19999999999999996 1.4000000000000004 -0.23400000000000004
v -0.19999999999999996 1.5 -0.248
v -0.19999999999999996 1.9000000000000004 -0.30400000000000005
v -0.19999999999999996 2 -0.318
v -0.099999999999999867 -2 0.26100000000000007
v -0.099999999999999867 -1.8999999999999999 0.24700000000000005
v -0.099999999999999867 -1.8 0.2330000000000001
v -0.099999999999999867 -1.7 0.21900000000000003
v -0.099999999999999867 -1.6000000000000001 0.20500000000000007
v -0.099999999999999867 -1.2999999999999998 0.16300000000000003
v -0.099999999999999867 -1.2 0.14900000000000002
v -0.099999999999999867 -1.1000000000000001 0.13500000000000006
v -0.099999999999999867 0.5 -0.088999999999999982
v -0.099999999999999867 0.70000000000000018 -0.11700000000000001
v -0.099999999999999867 0.80000000000000027 -0.13100000000000001
v -0.099999999999999867 0.90000000000000036 -0.14500000000000002
v -0.099999999999999867 1 -0.15899999999999997
v -0.099999999999999867 1.4000000000000004 -0.21500000000000002
v -0.099999999999999867 1.5 -0.22899999999999998
v -0.099999999999999867 1.9000000000000004 -0.28500000000000003
v -0.099999999999999867 2 -0.29899999999999999
v 0 -2 0.28000000000000003
v 0 -1.8999999999999999 0.26600000000000001
v 0 -1.8 0.25200000000000006
v 0 -1.7 0.23800000000000002
v 0 -1.6000000000000001 0.22400000000000003
v 0 -1.2999999999999998 0.182
v 0 -1.2 0.16800000000000001
v 0 -1.1000000000000001 0.15400000000000003
v 0 -1 0.14000000000000001
v 0 0.80000000000000027 -0.11200000000000004
v 0 0.90000000000000036 -0.12600000000000006
v 0 1 -0.14000000000000001
v 0 1.4000000000000004 -0.19600000000000006
v 0 1.5 -0.21000000000000002
v 0 1.9000000000000004 -0.26600000000000007
v 0 2 -0.28000000000000003
v 0.10000000000000009 -1.7 0.25700000000000001
v 0.10000000000000009 -1.6000000000000001 0.24300000000000005
v 0.40000000000000036 -2 0.35600000000000009
v 0.40000000000000036 -1.8999999999999999 0.34200000000000008
v 0.40000000000000036 -1.8 0.32800000000000012
v 0.40000000000000036 -1.7 0.31400000000000006
v 0.40000000000000036 -1.6000000000000001 0.3000000000000001
v 0.40000000000000036 -1.2999999999999998 0.25800000000000006
v 0.40000000000000036 -1.1000000000000001 0.23000000000000009
v 0.40000000000000036 -0.79999999999999982 0.18800000000000006
v 0.40000000000000036 -0.69999999999999996 0.17400000000000007
v 0.40000000000000036 -0.59999999999999987 0.16000000000000006
v 0.40000000000000036 1 -0.063999999999999946
v 0.40000000000000036 1.4000000000000004 -0.12
v 0.40000000000000036 1.5 -0.13399999999999995
v 0.40000000000000036 1.9000000000000004 -0.19
v 0.40000000000000036 2 -0.20399999999999996
v 0.5 -2 0.375
v 0.5 -1.8999999999999999 0.36099999999999999
v 0.5 -1.8 0.34700000000000009
v 0.5 -1.7 0.33300000000000002
v 0.5 -1.6000000000000001 0.31900000000000006
v 0.5 -1.2999999999999998 0.27700000000000002
v 0.5 -1.2 0.26300000000000001
v 0.5 -1.1000000000000001 0.24900000000000003
v 0.5 -1 0.23500000000000001
v 0.5 -0.79999999999999982 0.20699999999999999
v 0.5 -0.69999999999999996 0.193
v 0.5 -0.59999999999999987 0.17899999999999999
v 0.5 -0.5 0.16500000000000001
v 0.5 1.4000000000000004 -0.10100000000000006
v 0.5 1.5 -0.11500000000000002
v 0.5 1.9000000000000004 -0.17100000000000007
v 0.5 2 -0.18500000000000003
v 0.60000000000000009 -1.1000000000000001 0.26800000000000002
v 0.60000000000000009 -1 0.254
v 0.70000000000000018 -0.79999999999999982 0.24500000000000002
v 0.80000000000000027 -0.79999999999999982 0.26400000000000001
v 0.80000000000000027 -0.69999999999999996 0.25000000000000006
v 0.90000000000000036 -2 0.45100000000000007
v 0.90000000000000036 -1.8999999999999999 0.43700000000000006
v 0.90000000000000036 -1.8 0.42300000000000015
v 0.90000000000000036 -1.7 0.40900000000000009
v 0.90000000000000036 -1.6000000000000001 0.39500000000000013
v 0.90000000000000036 -1.2999999999999998 0.35300000000000009
v 0.90000000000000036 -1.2 0.33900000000000008
v 0.90000000000000036 -1.1000000000000001 0.32500000000000007
v 0.90000000000000036 -0.79999999999999982 0.28300000000000003
v 0.90000000000000036 -0.69999999999999996 0.26900000000000007
v 0.90000000000000036 -0.59999999999999987 0.25500000000000006
v 0.90000000000000036 -0.5 0.24100000000000008
v 0.90000000000000036 -0.29999999999999982 0.21300000000000005
v 0.90000000000000036 -0.19999999999999996 0.19900000000000007
v 0.90000000000000036 -0.099999999999999867 0.18500000000000005
v 0.90000000000000036 1.5 -0.038999999999999951
v 0.90000000000000036 1.9000000000000004 -0.095000000000000001
v 0.90000000000000036 2 -0.10899999999999996
v 1 -2 0.47000000000000003
v 1 -1.8999999999999999 0.45600000000000002
v 1 -1.8 0.44200000000000006
v 1 -1.7 0.42800000000000005
v 1 -1.6000000000000001 0.41400000000000003
v 1 -1.2999999999999998 0.372
v 1 -1.2 0.35799999999999998
v 1 -1.1000000000000001 0.34400000000000003
v 1 -0.79999999999999982 0.30199999999999999
v 1 -0.69999999999999996 0.28800000000000003
v 1 -0.59999999999999987 0.27400000000000002
v 1 -0.5 0.26000000000000001
v 1 -0.29999999999999982 0.23199999999999998
v 1 -0.19999999999999996 0.218
v 1 -0.099999999999999867 0.20399999999999999
v 1 0 0.19
v 1 1.5 -0.020000000000000018
v 1 1.9000000000000004 -0.076000000000000068
v 1 2 -0.090000000000000024
v 1.1000000000000001 -2 0.48900000000000005
v 1.1000000000000001 -0.29999999999999982 0.251
v 1.1000000000000001 -0.19999999999999996 0.23700000000000002
v 1.2000000000000002 -2 0.50800000000000001
v 1.2000000000000002 -1.8999999999999999 0.49400000000000005
v 1.2000000000000002 -0.19999999999999996 0.25600000000000001
v 1.2000000000000002 -0.099999999999999867 0.24200000000000002
v 1.3000000000000003 -2 0.52700000000000014
v 1.3000000000000003 -1.8999999999999999 0.51300000000000012
v 1.3000000000000003 -1.8 0.49900000000000011
v 1.3000000000000003 -0.099999999999999867 0.26100000000000001
v 1.3000000000000003 0 0.24700000000000005
v 1.4000000000000004 -2 0.54600000000000004
v 1.4000000000000004 -1.8999999999999999 0.53200000000000003
v 1.4000000000000004 -1.8 0.51800000000000013
v 1.4000000000000004 -1.7 0.50400000000000011
v 1.4000000000000004 -1.6000000000000001 0.4900000000000001
v 1.4000000000000004 -1.2999999999999998 0.44800000000000006
v 1.4000000000000004 -1.2 0.43400000000000005
v 1.4000000000000004 -1.1000000000000001 0.4200000000000001
v 1.4000000000000004 -0.79999999999999982 0.37800000000000006
v 1.4000000000000004 -0.69999999999999996 0.3640000000000001
v 1.4000000000000004 -0.59999999999999987 0.35000000000000009
v 1.4000000000000004 -0.5 0.33600000000000008
v 1.4000000000000004 -0.29999999999999982 0.30800000000000005
v 1.4000000000000004 -0.19999999999999996 0.29400000000000004
v 1.4000000000000004 -0.099999999999999867 0.28000000000000003
v 1.4000000000000004 0 0.26600000000000007
v 1.4000000000000004 0.40000000000000036 0.21000000000000002
v 1.4000000000000004 1.4000000000000004 0.070000000000000007
v 1.4000000000000004 1.5 0.05600000000000005
v 1.4000000000000004 1.9000000000000004 0
v 1.4000000000000004 2 -0.013999999999999957
v 1.5 -2 0.56500000000000006
v 1.5 -1.8999999999999999 0.55100000000000005
v 1.5 -1.8 0.53700000000000014
v 1.5 -1.7 0.52300000000000002
v 1.5 -1.6000000000000001 0.50900000000000012
v 1.5 -1.5 0.49500000000000005
v 1.5 -1.3999999999999999 0.48100000000000004
v 1.5 -1.2999999999999998 0.46700000000000003
v 1.5 -1.2 0.45300000000000007
v 1.5 -1.1000000000000001 0.43900000000000006
v 1.5 -0.79999999999999982 0.39700000000000002
v 1.5 -0.69999999999999996 0.38300000000000001
v 1.5 -0.59999999999999987 0.36899999999999999
v 1.5 -0.5 0.35500000000000004
v 1.5 -0.29999999999999982 0.32700000000000001
v 1.5 -0.19999999999999996 0.31300000000000006
v 1.5 -0.099999999999999867 0.29899999999999999
v 1.5 0 0.28500000000000003
v 1.5 0.40000000000000036 0.22899999999999998
v 1.5 0.5 0.21500000000000002
v 1.5 1.4000000000000004 0.088999999999999968
v 1.5 1.5 0.075000000000000011
v 1.5 1.9000000000000004 0.018999999999999961
v 1.5 2 0.0050000000000000044
v 1.6000000000000001 -1.8999999999999999 0.57000000000000006
v 1.6000000000000001 -1.8 0.55600000000000005
v 1.6000000000000001 -1.7 0.54200000000000004
v 1.6000000000000001 -1.6000000000000001 0.52800000000000002
v 1.6000000000000001 -1.5 0.51400000000000001
v 1.6000000000000001 -1.3999999999999999 0.5
v 1.6000000000000001 -1.2999999999999998 0.48600000000000004
v 1.7000000000000002 -1.8999999999999999 0.58900000000000008
v 1.7000000000000002 -1.8 0.57500000000000018
v 1.7000000000000002 -1.7 0.56100000000000005
v 1.7000000000000002 -1.6000000000000001 0.54700000000000015
v 1.7000000000000002 -1.2999999999999998 0.50500000000000012
v 1.7000000000000002 -1.2 0.4910000000000001
v 1.8000000000000003 -1.8999999999999999 0.6080000000000001
v 1.8000000000000003 -1.8 0.59400000000000008
v 1.8000000000000003 -1.7 0.58000000000000007
v 1.8000000000000003 -1.6000000000000001 0.56600000000000006
v 1.8000000000000003 -1.2999999999999998 0.52400000000000002
v 1.8000000000000003 -1.2 0.51000000000000012
v 1.9000000000000004 -2 0.64100000000000013
v 1.9000000000000004 -1.8999999999999999 0.62700000000000011
v 1.9000000000000004 -1.8 0.61300000000000021
v 1.9000000000000004 -1.7 0.59900000000000009
v 1.9000000000000004 -1.6000000000000001 0.58500000000000019
v 1.9000000000000004 -1.2999999999999998 0.54300000000000015
v 1.9000000000000004 -1.2 0.52900000000000014
v 1.9000000000000004 -1.1000000000000001 0.51500000000000012
v 1.9000000000000004 -0.79999999999999982 0.47300000000000009
v 1.9000000000000004 -0.69999999999999996 0.45900000000000007
v 1.9000000000000004 -0.59999999999999987 0.44500000000000006
v 1.9000000000000004 -0.5 0.43100000000000011
v 1.9000000000000004 -0.29999999999999982 0.40300000000000008
v 1.9000000000000004 -0.19999999999999996 0.38900000000000012
v 1.9000000000000004 -0.099999999999999867 0.37500000000000006
v 1.9000000000000004 0 0.3610000000000001
v 1.9000000000000004 0.40000000000000036 0.30500000000000005
v 1.9000000000000004 0.5 0.29100000000000009
v 1.9000000000000004 0.90000000000000036 0.23500000000000004
v 1.9000000000000004 1 0.22100000000000009
v 1.9000000000000004 1.4000000000000004 0.16500000000000004
v 1.9000000000000004 1.5 0.15100000000000008
v 1.9000000000000004 1.9000000000000004 0.095000000000000029
v 1.9000000000000004 2 0.081000000000000072
v 2 -2 0.66000000000000003
v 2 -1.8999999999999999 0.64600000000000002
v 2 -1.8 0.63200000000000012
v 2 -1.7 0.61799999999999999
v 2 -1.6000000000000001 0.60400000000000009
v 2 -1.2999999999999998 0.56200000000000006
v 2 -1.1000000000000001 0.53400000000000003
v 2 -0.79999999999999982 0.49199999999999999
v 2 -0.69999999999999996 0.47799999999999998
v 2 -0.59999999999999987 0.46399999999999997
v 2 -0.5 0.45000000000000001
v 2 -0.29999999999999982 0.42199999999999999
v 2 -0.19999999999999996 0.40800000000000003
v 2 -0.099999999999999867 0.39399999999999996
v 2 0 0.38
v 2 0.40000000000000036 0.32399999999999995
v 2 0.5 0.31
v 2 0.90000000000000036 0.25399999999999995
v 2 1 0.23999999999999999
v 2 1.4000000000000004 0.18399999999999994
v 2 1.5 0.16999999999999998
v 2 1.9000000000000004 0.11399999999999993
v 2 2 0.099999999999999978
v -2 -2 -0.90000000000000002
v -2 2 -0.90000000000000002
v 2 -2 -0.90000000000000002
v 2 2 -0.90000000000000002
v -0.97999999999999998 -1.4090410229681589 -0.17948159818050963
v -0.75132742416253884 -1.6186725758374612 0.07999999999999996
v -0.97999999999999998 -1.02 -0.28999999999999998
v -1.3500000000000001 -1.2486725758374611 -0.14867257583746113
v -1.3500000000000001 -0.79132742416253887 -0.14867257583746113
v -1.0988603063736171 -1.5333975533947326 -0.069514369134360654
v -0.86113969362638287 -1.5333975533947326 -0.069514369134360654
v -0.97999999999999998 -1.2222172313953772 -0.26183438476009896
v -0.78767998437426168 -1.3410775377689941 -0.18837467550797776
v -0.66525920090974511 -1.4549610866964302 -0.059261310574334203
v -0.78547948851592053 -1.1402202876061753 -0.25378182205841365
v -1.1723200156257383 -1.3410775377689941 -0.18837467550797776
v -1.2947407990902549 -1.4549610866964302 -0.059261310574334203
v -1.1745205114840795 -1.1402202876061753 -0.25378182205841365
v -1.1745205114840795 -0.8997797123938247 -0.25378182205841365
v -1.3690410229681589 -1.02 -0.17948159818050952
v -1.0400038571480446 -1.4755750954465237 -0.13004385139077884
v -1.1554438807594263 -1.5814027021208106 0.00094938953885753685
v -0.91999614285195541 -1.4755750954465237 -0.13004385139077884
v -0.8045561192405738 -1.5814027021208106 0.00094938953885753685
v -0.97999999999999998 -1.5401512025609523 -0.076348483872040018
v -1.0400449701987553 -1.5973512343254939 -0.0089772911339507933
v -0.91995502980124466 -1.5973512343254939 -0.0089772911339507933
v -0.97999999999999998 -1.3184829579768498 -0.22713213171240826
v -0.97999999999999998 -1.1220846591744489 -0.28292477264807775
v -0.97999999999999998 -0.91791534082555104 -0.28292477264807775
v -0.88291171967837045 -1.3784868151248943 -0.1900477085388233
v -0.69612583781306459 -1.2975285399338752 -0.17449449122056865
v -0.82236307941964393 -1.4427262277604245 -0.13656042965186815
v -0.88257502519947217 -1.2850893071800684 -0.23398540445239607
v -0.70490645449946343 -1.5432590180780452 0.0048892932944161749
v -0.63336191035845368 -1.3559529698072645 -0.11087221083535453
v -0.76095660149245115 -1.4990848014728457 -0.069709286590096398
v -0.60010217348946848 -1.4984675659303215 0.032451883293329098
v -0.72384676905614587 -1.4019299988377854 -0.12975425678885172
v -0.88152738293596244 -1.0808594243067282 -0.28088937204040193
v -0.69422133466518177 -1.196620928436499 -0.20934482789939218
v -0.88173356714735218 -1.1828866003302365 -0.26513052207780491
v -0.78457876451229147 -1.2429315705289918 -0.22802068964149963
v -0.50153243406967851 -1.437548116706671 0.070102173489468567
v -0.56245188329332907 -1.3998978265105315 -0.028467565930321403
v -1.0770882803216295 -1.3784868151248943 -0.1900477085388233
v -1.2638741621869354 -1.2975285399338752 -0.17449449122056865
v -1.137636920580356 -1.4427262277604245 -0.13656042965186815
v -1.0774249748005278 -1.2850893071800684 -0.23398540445239607
v -1.4290506104611425 -1.1954438807594263 -0.11140270212081044
v -1.3266380896415462 -1.3559529698072645 -0.11087221083535453
v -1.1990433985075488 -1.4990848014728457 -0.069709286590096398
v -1.2361532309438541 -1.4019299988377854 -0.12975425678885172
v -1.0784726170640375 -1.0808594243067282 -0.28088937204040193
v -1.2657786653348182 -1.196620928436499 -0.20934482789939218
v -1.0782664328526479 -1.1828866003302365 -0.26513052207780491
v -1.1754212354877085 -1.2429315705289918 -0.22802068964149963
v -1.2638741621869354 -0.74247146006612486 -0.17449449122056865
v -1.0784726170640375 -0.95914057569327194 -0.28088937204040193
v -1.2657786653348182 -0.843379071563501 -0.20934482789939218
v -1.0782664328526479 -0.85711339966976363 -0.26513052207780491
v -1.1771394788395799 -1.02 -0.2632573349660407
v -1.1754212354877085 -0.7970684294710082 -0.22802068964149963
v -1.3642512823988557 -1.1357615041297708 -0.17173163514208273
v -1.3642512823988557 -0.9042384958702292 -0.17173163514208273
v -1.4389772911339507 -1.0800449701987553 -0.12735123432549372
v -1.2757092182593699 -1.0809194492236505 -0.22560704476990129
v -1.2757092182593699 -0.95908055077634946 -0.22560704476990129
v 1.02 1.3690410229681589 -0.079481598180509594
v 1.6494815981805098 0.97999999999999998 0.1609589770318412
v 1.02 0.97999999999999998 -0.18999999999999995
v 1.3900000000000001 0.75132742416253884 -0.048672575837461096
v 1.3900000000000001 1.208672575837461 -0.048672575837461096
v 1.02 1.1822172313953772 -0.16183438476009893
v 1.5395143691343607 0.86113969362638287 0.03660244660526768
v 1.2145205114840796 0.85977971239382467 -0.15378182205841362
v 1.5292613105743342 0.66525920090974511 0.11503891330356991
v 1.2123200156257383 1.301077537768994 -0.088374675507977729
v 1.5395143691343607 1.0988603063736171 0.03660244660526768
v 1.3347407990902549 1.4149610866964302 0.040738689425665831
v 1.2145205114840796 1.1002202876061753 -0.15378182205841362
v 1.4090410229681589 0.97999999999999998 -0.079481598180509483
v 0.82767998437426171 1.301077537768994 -0.088374675507977729
v 0.95999614285195545 1.4355750954465236 -0.030043851390778809
v 1.0800038571480446 1.4355750954465236 -0.030043851390778809
v 1.02 1.2784829579768497 -0.12713213171240823
v 1.02 1.0820846591744488 -0.18292477264807772
v 1.6600477085388232 0.88291171967837045 0.19151318487510582
v 1.3038741621869354 0.70247146006612482 -0.074494491220568615
v 1.6000438513907786 0.91999614285195541 0.094424904553476408
v 1.4690506104611425 0.8045561192405738 -0.011402702120810404
v 1.6065604296518683 0.82236307941964393 0.12727377223957564
v 1.3666380896415462 0.64404703019273535 -0.010872210835354501
v 1.1184726170640376 0.9191405756932719 -0.1808893720404019
v 1.3057786653348182 0.80337907156350097 -0.10934482789939215
v 1.2154212354877085 0.75706842947100816 -0.1280206896414996
v 1.465110706705584 0.70490645449946343 0.026740981921954954
v 1.5997542567888519 0.72384676905614587 0.16807000116221482
v 1.4984675659303215 0.56245188329332907 0.1701021734894686
v 1.5397092865900963 0.76095660149245115 0.070915198527154333
v 1.437548116706671 0.60010217348946848 0.07153243406967863
v 1.1170882803216295 1.3384868151248943 -0.090047708538823268
v 1.3038741621869354 1.2575285399338751 -0.074494491220568615
v 1.1776369205803561 1.4027262277604244 -0.03656042965186812
v 1.1174249748005278 1.2450893071800684 -0.13398540445239604
v 1.6000438513907786 1.0400038571480446 0.094424904553476408
v 1.4690506104611425 1.1554438807594263 -0.011402702120810404
v 1.6065604296518683 1.137636920580356 0.12727377223957564
v 1.5463484838720403 0.97999999999999998 0.029848797439047892
v 1.3666380896415462 1.3159529698072645 -0.010872210835354501
v 1.2390433985075489 1.4590848014728457 0.030290713409903636
v 1.2761532309438541 1.3619299988377853 -0.029754256788851685
v 1.1184726170640376 1.0408594243067282 -0.1808893720404019
v 1.3057786653348182 1.156620928436499 -0.10934482789939215
v 1.1182664328526479 1.1428866003302365 -0.16513052207780488
v 1.21713947883958 0.97999999999999998 -0.16325733496604067
v 1.2154212354877085 1.2029315705289918 -0.1280206896414996
v 1.465110706705584 1.2550935455005365 0.026740981921954954
v 1.5397092865900963 1.1990433985075488 0.070915198527154333
v 1.437548116706671 1.3598978265105315 0.07153243406967863
v 1.4042512823988558 0.86423849587022916 -0.071731635142082695
v 1.4042512823988558 1.0957615041297708 -0.071731635142082695
v 1.4789772911339507 0.91995502980124466 -0.02735123432549369
v 1.3157092182593699 0.91908055077634943 -0.12560704476990125
v 1.4789772911339507 1.0400449701987553 -0.02735123432549369
v 1.3157092182593699 1.0409194492236504 -0.12560704476990125
v 0.92291171967837049 1.3384868151248943 -0.090047708538823268
v 0.73612583781306462 1.2575285399338751 -0.074494491220568615
v 0.86236307941964396 1.4027262277604244 -0.03656042965186812
v 0.92257502519947221 1.2450893071800684 -0.13398540445239604
v 0.92152738293596248 1.0408594243067282 -0.1808893720404019
v 0.92173356714735222 1.1428866003302365 -0.16513052207780488
v 0.82457876451229151 1.2029315705289918 -0.1280206896414996
v -0.33544751711213061 -1.3 0.11826497174869519
v -1.3999999999999999 -1.3112986464009495 -0.082418189503867048
v -1.4005106354943602 -1.3102972256347407 -0.082655409155064724
v -0.29999999999999982 -1.2645524828878689 0.12003734760430172
v -1.4047468698439365 -1.2999999999999998 -0.084901905270347883
v -0.79999999999999982 -1.6298962119881075 0.076185469678335116
v -0.86106722751048204 -1.6410839885997881 0.066148985176978758
v -0.75367533152930921 -1.6214093350888525 0.083798993921870651
v 1.0522716424802099 1.4654204845602932 -0.0052272557672011456
v 1 1.4551975724402193 -0.013727660141630724
v -0.86414009968312189 -1.6416321730007142 0.065641885280306858
v -1.4104842389899404 -1.2860538913169157 -0.087944460623720411
v -0.37760317989120978 0.19924228731850849 -0.099638524403921042
v -0.7487508285956318 -1.6200343877254402 0.084542156848391614
v -0.29999999999999982 0.27684546720971842 -0.095758365409360544
v -1.4278330142773183 -1.226239823766144 -0.099614697385430273
v 1.6165864351416417 1.1443480652777622 0.14694269353802519
v 1.6042824108450513 1.1706102247122216 0.14092822660084869
v -0.23544751711213074 -1.2 0.12326497174869515
v -0.19999999999999996 -1.1645524828878691 0.12503734760430169
v 1.6284990491383777 1.1128019765206814 0.15362254262339636
v -1.4364159191122736 -1.1895294149718654 -0.10638490653527077
v -1.4347617144936888 -1.1989678836882944 -0.10474922203743964
v 1.1151117054731532 1.4700661683899567 0.0060619604653051459
v 1.1491780943525023 1.4692714781094731 0.012645830991649199
v -1.4425572159695166 -1.1000000000000001 -0.12008587103420813
v 1.4999999999999998 0.53574140583380081 0.20999620318326792
v 1.4727131514893363 0.50816066860146714 0.20867300517876852
v 1.5158459540446718 0.55175802624091475 0.21076460759475957
v -0.19999999999999996 0.37684546720971823 -0.090758365409360567
v -0.13544751711213088 -1.1000000000000001 0.12826497174869514
v -0.56050068609412684 -1.5206144218603586 0.10639088870256611
v -0.59999999999999987 -1.5474872231358079 0.10264821123901315
v -0.64118623571332556 -1.5755076978773563 0.098745692917298081
v -1.4436168375250171 -1.084552562730519 -0.12244984034748059
v -1.4434040205954803 -1.0760996216336969 -0.12359281688442368
v -1.4389772911339507 -1.043246078499692 -0.12735123432549372
v -0.099999999999999867 -1.064552482887869 0.13003734760430172
v -0.64733343067248161 -1.5788411036382275 0.098044402681580364
v -0.17684546720971786 0.40000000000000036 -0.089600638769846447
v -0.70123345492725064 -1.6010219105907324 0.090908711046524954
v -0.099999999999999867 0.47684546720971832 -0.085758365409360549
v -1.4279307069088583 -0.96943926220296928 -0.13558533760426736
v -1.4218170919772068 -0.94716019658635808 -0.13754281995357914
v 1.2386310234937539 1.4598633845207452 0.030959020630908881
v 1.2397272359585583 1.4596237471367601 0.031200850232979634
v 1.2354765976040734 1.4603064323084372 0.030297653021592721
v -0.035447517112130823 -1 0.13326497174869514
v -1.3999999999999999 -0.88757807983169756 -0.14173906882356233
v 1.3645524828878695 0.40000000000000036 0.20326497174869515
v 0 -0.9645524828878691 0.13503734760430169
v -0.69875018162954716 -1.6000000000000003 0.091237465490386083
v -0.70000000000000007 -1.60051432221755 0.09107200511045703
v 1.4000000000000004 0.4354475171121312 0.20503734760430167
v -0.07684546720971823 0.5 -0.08460063876984647
v -1.3247757726881755 -1.4388744539134464 -0.050264973262870834
v -1.3060134593393768 -1.4624880377937499 -0.043394231983356589
v -1.3 -1.4684649555860501 -0.041414906217952949
v 1.4000000000000004 1.3918041098794345 0.071147424616879243
v -0 0.57684546720971819 -0.080758365409360558
v 1.3277744217085181 1.4304758236917448 0.052010524807774204
v 1.3855747078601626 1.4000000000000004 0.067259194493430846
v -1.3650818299306096 -1.3797775927564129 -0.066196684700917982
v 1.4982036396100897 1.3168055144631288 0.10030591950107909
v 1.4449535821031343 1.3644746558280572 0.083514728783667544
v 1.3460046602747247 1.4224821625054083 0.056593382701440514
v -1.3955461974347392 -0.87541481881034766 -0.14259570287915174
v -1.3577988133103991 -0.79999999999999982 -0.14598177452897582
v 1.5 1.3151237228767072 0.10088267879726101
v 1.5247497296872794 1.2919524887590603 0.10882910021431459
v 1.4645524828878691 0.5 0.20826497174869513
v 0.16455248288786933 -0.79999999999999982 0.14326497174869518
v -1.3 -0.72488112788969805 -0.14551664209544227
v -1.348571455009433 -0.78476739259662043 -0.14636114148826537
v -1.3523102568915202 -0.78989960688083583 -0.14635300384607178
v -1.3552158276698572 -0.79483949951526345 -0.14621347732513598
v -1.2000000000000002 -1.55219441481919 -0.010692781925313369
v -1.2357393568949744 -1.5280056036706406 -0.020869693296155439
v 1.6554945689915164 1 0.17454396810838813
v 1.6583929447948285 0.97999999999999998 0.17789465951101746
v 1.6533035729554475 1.0151187850351557 0.17201104895661323
v 1.4323902830046908 1.3734012104506352 0.079877984307802311
v -1.2795513362482323 -1.4887893604433995 -0.034684243425088204
v 1.5758005907704837 0.62899773020236582 0.21134243001806072
v 0.26455248288786926 -0.69999999999999996 0.14826497174869516
v 0.28877848729694172 -0.67577399559092743 0.14947627196914876
v -1.29258818853936 -0.71574272132964167 -0.14538777483632856
v -1.276845467209718 -0.69999999999999984 -0.14460063876984644
v 1.5794396783644398 0.63424726411546706 0.21129892191307817
v 1.582075844321202 0.6391298555355247 0.21111623064605492
v 1.5752070777680174 1.2209822399810499 0.12835183117857629
v -1.2 -0.62315453279028166 -0.14075836540936054
v 1.5302696459869811 1.2855050315348717 0.11078052832264441
v 0.36455248288786934 -0.59999999999999987 0.15326497174869516
v -1.1000000000000001 -1.6034393908624553 0.015481514720743756
v 0.40000000000000036 -0.56455248288786886 0.15503734760430171
v -1.1089620261921251 -1.5999999999999999 0.013297215023496217
v 0.32315453279028211 0.90000000000000036 -0.064600638769846438
v 0.40000000000000036 0.97684546720971865 -0.060758365409360533
v -1.1586673571027644 -1.5801688267888758 0.0010768379009174305
v -1.1560225751780095 -1.5818078946183818 0.0018088159627516673
v -1.1542338203756326 -1.5826258714375854 0.0022631961298918038
v 0.46455248288786916 -0.5 0.15826497174869514
v 0.5 -0.46455248288786916 0.16003734760430169
v 0.42315453279028181 1 -0.059600638769846476
v -1.1768454672097182 -0.59999999999999987 -0.13960063876984644
v 0.5 1.0768454672097183 -0.055758365409360564
v 1.6165499817127513 0.71344018219519123 0.20726287101809601
v -1.1000000000000001 -0.52315453279028179 -0.13575836540936057
v 1.6342808683568539 0.76144364534229481 0.20391125463988102
v 1.6440091510141597 0.79729588909628557 0.20074031421921035
v 0.75575690342114665 1.3314622715011963 -0.042810906360149642
v 0.70741181146064014 1.2842572786703583 -0.045387774836328554
v -1.0646971830772074 -1.6169876871227227 0.024085811412511784
v -1.0768454672097185 -0.5 -0.13460063876984646
v 0.66455248288786928 -0.29999999999999982 0.16826497174869515
v 1.6600279405915399 0.88178649627364747 0.19195519923408197
v 1.6601966994582169 0.88291057796124295 0.19182989198248723
v 1.6598953126996041 0.90000000000000036 0.18938010941292474
v 1.6602083268483394 0.88333222387189936 0.19177307075911862
v -0.96683769897227267 -1.638054237329577 0.045628430421409016
v -0.99902465667558482 -1.632964606475257 0.038800360138174887
v 0.76455248288786926 -0.19999999999999998 0.17326497174869515
v 1.64228908441947 1.0661128470224355 0.16277912745655831
v 0.77655820361681427 1.3498121371120886 -0.041427640508497683
v -0.86434584077525622 -1.6416461307222168 0.065604748553811668
v 0.86455248288786923 -0.099999999999999867 0.17826497174869516
v -0.87684546720971812 -0.29999999999999982 -0.12460063876984645
v 0.90000000000000036 -0.064552482887868787 0.18003734760430171
v -0.79999999999999982 -0.22315453279028155 -0.12075836540936054
v 0.8510863967313913 1.4000000000000001 -0.034293584621035711
v 0.84233570471596009 1.3944327648798487 -0.035176803187146402
v 0.973394343734309 1.4499942294229415 -0.018054266809693117
v 0.95154268305618628 1.443880044691497 -0.0213500964761342
v 0.90000000000000036 1.4224935401784999 -0.028149095624989948
v 0.8645211125631409 1.4077723549142911 -0.032829118301004004
v 0.85950075348664756 1.4053532569034248 -0.033444312804016448
v -0.77684546720971814 -0.19999999999999993 -0.11960063876984646
v 0.9645524828878691 0 0.18326497174869513
v -0.69999999999999996 -0.12315453279028168 -0.11575836540936055
v 1 0.035447517112130865 0.18503734760430168
v -0.67684546720971817 -0.099999999999999881 -0.11460063876984646
v -0.59999999999999987 -0.023154532790281623 -0.11075836540936054
v -0.52728684851066376 -1.491839331398533 0.10867300517876852
v -0.5 -1.4645524828878693 0.11003734760430171
v -0.57684546720971819 -0 -0.10960063876984645
v -0.5 0.076845467209718243 -0.10575836540936055
f 18 42 19
f 42 43 19
f 19 43 20
f 45 46 21
f 21 46 22
f 47 48 23
f 23 48 24
f 56 57 32
f 32 57 33
f 57 58 33
f 33 58 34
f 58 59 34
f 34 59 35
f 60 61 36
f 36 61 37
f 61 62 37
f 37 62 38
f 68 69 44
f 70 71 45
f 45 71 46
f 82 83 57
f 57 83 58
f 83 84 58
f 58 84 59
f 68 93 69
f 93 94 69
f 95 96 70
f 70 96 71
f 97 98 72
f 72 98 73
f 110 111 85
f 85 111 86
f 111 112 86
f 86 112 87
f 93 118 94
f 121 122 97
f 97 122 98
f 142 143 119
f 119 143 120
f 143 144 120
f 145 146 121
f 121 146 122
f 156 157 134
f 134 157 135
f 157 158 135
f 135 158 136
f 165 166 143
f 143 166 144
f 167 168 145
f 145 168 146
f 178 179 157
f 157 179 158
f 179 180 158
f 158 180 159
f 180 181 159
f 182 183 160
f 160 183 161
f 184 185 162
f 162 185 163
f 186 187 164
f 164 187 165
f 200 201 180
f 180 201 181
f 202 203 182
f 182 203 183
f 184 204 185
f 205 206 186
f 186 206 187
f 188 207 189
f 249 250 234
f 234 250 235
f 250 251 235
f 235 251 236
f 252 253 237
f 237 253 238
f 254 255 239
f 239 255 240
f 258 259 243
f 243 259 244
f 261 262 246
f 249 265 250
f 265 266 250
f 250 266 251
f 268 269 252
f 252 269 253
f 270 271 254
f 254 271 255
f 274 275 258
f 258 275 259
f 261 277 262
f 282 283 267
f 284 285 268
f 268 285 269
f 286 287 270
f 270 287 271
f 306 307 290
f 290 307 291
f 307 308 291
f 291 308 292
f 309 310 293
f 311 312 294
f 294 312 295
f 313 314 296
f 299 317 300
f 317 318 300
f 300 318 301
f 319 320 302
f 302 320 303
f 327 328 310
f 340 341 323
f 323 341 324
f 341 342 324
f 324 342 325
f 343 344 326
f 326 344 327
f 344 345 327
f 327 345 328
f 345 346 328
f 330 347 331
f 340 354 341
f 354 355 341
f 341 355 342
f 372 373 357
f 357 373 358
f 376 377 361
f 377 388 378
f 391 392 390
f 412 413 394
f 394 413 395
f 413 414 395
f 395 414 396
f 414 415 396
f 396 415 397
f 417 418 399
f 399 418 400
f 421 422 403
f 403 422 404
f 433 434 430
f 431 435 432
f 437 438 433
f 433 438 434
f 438 439 434
f 440 441 436
f 443 444 438
f 438 444 439
f 465 466 444
f 444 466 445
f 466 467 445
f 445 467 446
f 467 468 446
f 470 471 447
f 448 472 449
f 473 474 450
f 450 474 451
f 475 476 452
f 452 476 453
f 477 478 454
f 454 478 455
f 478 479 455
f 455 479 456
f 487 488 464
f 464 488 465
f 488 489 465
f 465 489 466
f 489 490 466
f 466 490 467
f 490 491 467
f 467 491 468
f 492 493 469
f 469 493 470
f 494 495 487
f 487 495 488
f 495 496 488
f 488 496 489
f 496 497 489
f 489 497 490
f 492 498 493
f 498 499 493
f 500 501 494
f 494 501 495
f 501 502 495
f 495 502 496
f 502 503 496
f 496 503 497
f 504 505 498
f 507 508 500
f 500 508 501
f 508 509 501
f 501 509 502
f 509 510 502
f 502 510 503
f 511 512 504
f 504 512 505
f 293 689 686
f 310 705 704
f 328 723 716
f 715 725 311
f 346 736 733
f 458 739 735
f 727 740 329
f 365 781 779
f 383 789 788
f 784 790 366
f 777 791 195
f 794 800 212
f 407 814 812
f 815 823 229
f 426 826 824
f 825 827 245
f 828 831 261
f 596 597 590
f 646 665 623
f 578 579 577
f 584 591 588
f 568 605 600
f 569 605 603
f 601 609 568
f 607 609 570
f 599 607 560
f 599 609 607
f 568 609 599
f 560 603 599
f 603 605 599
f 599 605 568
f 598 601 568
f 568 600 598
f 600 605 604
f 604 605 569
f 628 668 646
f 628 676 668
f 646 668 665
f 565 591 584
f 566 597 588
f 588 591 566
f 590 597 566
f 563 579 576
f 577 579 563
f 575 577 563
f 559 611 606
f 582 611 559
f 562 578 577
f 600 604 562
f 574 578 562
f 562 604 574
f 666 674 625
f 585 591 565
f 563 585 575
f 580 601 598
f 580 598 557
f 587 590 566
f 558 587 576
f 632 664 662
f 663 664 632
f 625 670 662
f 673 676 647
f 647 676 628
f 628 648 647
f 565 595 586
f 593 595 584
f 584 595 565
f 606 614 570
f 611 614 606
f 573 600 562
f 598 600 573
f 557 598 573
f 562 577 573
f 573 575 557
f 573 577 575
f 655 666 625
f 625 662 655
f 655 664 630
f 662 664 655
f 630 669 655
f 655 669 666
f 676 678 668
f 666 678 674
f 645 653 649
f 583 585 565
f 565 586 583
f 575 583 557
f 575 585 583
f 557 583 580
f 583 586 580
f 563 589 585
f 576 589 563
f 587 589 576
f 566 589 587
f 566 591 589
f 589 591 585
f 670 672 662
f 662 672 632
f 659 670 625
f 625 674 659
f 592 594 567
f 594 595 567
f 586 595 594
f 581 592 559
f 559 606 581
f 581 594 592
f 621 654 637
f 621 637 636
f 636 679 621
f 623 665 639
f 654 657 630
f 657 669 630
f 616 618 602
f 607 616 560
f 560 616 602
f 611 613 571
f 571 614 611
f 667 669 657
f 665 667 639
f 666 669 633
f 633 678 666
f 668 678 633
f 633 669 667
f 665 668 633
f 633 667 665
f 634 676 673
f 674 678 634
f 634 678 676
f 641 645 624
f 645 649 624
f 624 647 641
f 624 673 647
f 660 671 631
f 631 671 659
f 659 671 670
f 606 608 581
f 570 608 606
f 608 609 601
f 570 609 608
f 656 664 663
f 654 656 637
f 630 664 656
f 630 656 654
f 639 684 683
f 682 685 684
f 571 620 614
f 626 684 639
f 639 667 626
f 626 667 657
f 682 684 626
f 634 677 674
f 674 677 659
f 659 677 631
f 622 642 640
f 622 658 642
f 658 660 631
f 629 653 651
f 649 653 629
f 673 675 634
f 675 677 634
f 624 649 643
f 643 673 624
f 643 675 673
f 627 675 643
f 564 601 580
f 564 608 601
f 581 608 564
f 564 594 581
f 580 586 564
f 586 594 564
f 680 685 635
f 635 685 682
f 635 682 679
f 636 681 679
f 679 681 635
f 572 618 616
f 572 620 617
f 607 619 616
f 614 620 619
f 570 619 607
f 614 619 570
f 616 619 572
f 619 620 572
f 613 615 571
f 617 620 612
f 561 617 612
f 561 612 610
f 612 615 610
f 612 620 571
f 571 615 612
f 626 657 638
f 638 654 621
f 638 657 654
f 638 682 626
f 621 679 638
f 679 682 638
f 631 677 661
f 631 661 658
f 658 661 642
f 661 677 675
f 642 661 627
f 661 675 627
f 629 652 649
f 649 652 643
f 643 652 627
f 650 652 629
f 627 644 642
f 627 652 644
f 642 644 640
f 644 652 650
f 584 645 641
f 588 645 584
f 588 653 645
f 597 653 588
f 592 646 623
f 592 623 559
f 628 646 592
f 567 628 592
f 595 628 567
f 595 648 628
f 651 653 597
f 596 651 597
f 623 639 559
f 559 639 582
f 683 684 613
f 611 683 613
f 639 683 582
f 582 683 611
f 613 684 615
f 684 685 615
f 693 699 558
f 702 703 660
f 699 726 558
f 707 708 602
f 750 767 672
f 618 722 721
f 618 721 720
f 803 805 640
f 802 803 640
f 818 819 636
f 741 742 569
f 821 822 681
f 785 786 574
f 786 787 574
f 759 760 561
f 760 761 561
f 730 732 663
f 663 731 730
f 2 1 25
f 2 25 26
f 452 421 420
f 451 452 420
f 800 813 213
f 800 213 212
f 593 584 641
f 593 641 647
f 452 453 422
f 452 422 421
f 648 595 593
f 648 593 647
f 813 815 229
f 813 229 214
f 813 214 213
f 453 454 431
f 423 422 431
f 453 431 422
f 685 680 615
f 610 615 680
f 229 230 215
f 229 215 214
f 554 556 555
f 554 555 553
f 424 423 431
f 424 431 432
f 692 691 558
f 558 691 693
f 230 231 216
f 230 216 215
f 2 26 27
f 3 2 27
f 696 692 576
f 558 576 692
f 425 424 432
f 425 432 436
f 231 232 217
f 231 217 216
f 706 702 660
f 436 426 425
f 441 426 436
f 4 3 27
f 4 27 28
f 232 233 218
f 232 218 217
f 651 712 714
f 713 712 651
f 5 4 28
f 5 28 29
f 441 735 826
f 457 458 735
f 441 826 426
f 457 735 441
f 719 718 590
f 717 590 718
f 234 235 219
f 234 219 218
f 233 234 218
f 6 5 29
f 6 29 30
f 590 587 724
f 719 590 724
f 236 220 219
f 235 236 219
f 460 461 428
f 460 428 427
f 7 6 30
f 7 30 31
f 236 237 221
f 236 221 220
f 461 462 429
f 461 429 428
f 724 587 737
f 738 737 587
f 726 738 587
f 558 726 587
f 32 7 31
f 8 7 32
f 237 238 222
f 237 222 221
f 454 455 435
f 454 435 431
f 746 731 663
f 746 663 632
f 9 8 32
f 9 32 33
f 749 750 672
f 440 436 435
f 432 435 436
f 238 239 223
f 238 223 222
f 10 9 33
f 10 33 34
f 455 456 440
f 455 440 435
f 239 240 224
f 239 224 223
f 754 749 670
f 672 670 749
f 755 754 670
f 11 10 34
f 11 34 35
f 437 442 443
f 438 437 443
f 226 225 241
f 226 241 242
f 711 602 618
f 707 602 711
f 720 711 618
f 12 11 35
f 12 35 36
f 441 440 456
f 441 456 457
f 226 242 243
f 227 226 243
f 622 764 766
f 765 764 622
f 12 36 37
f 13 12 37
f 714 769 651
f 228 227 243
f 228 243 244
f 443 442 463
f 443 463 464
f 14 13 37
f 14 37 38
f 671 660 703
f 776 671 703
f 825 245 230
f 823 825 230
f 823 230 229
f 444 443 464
f 444 464 465
f 15 14 38
f 15 38 39
f 776 778 671
f 231 230 245
f 231 245 246
f 670 671 778
f 755 670 778
f 447 446 468
f 447 468 469
f 447 469 470
f 16 15 39
f 16 39 40
f 751 746 632
f 247 231 246
f 232 231 247
f 472 448 471
f 448 447 471
f 17 16 40
f 17 40 41
f 450 449 472
f 450 472 473
f 233 232 247
f 233 247 248
f 744 632 672
f 747 632 744
f 751 632 747
f 767 744 672
f 18 17 41
f 42 18 41
f 637 656 709
f 710 709 656
f 249 233 248
f 234 233 249
f 452 451 474
f 452 474 475
f 20 43 44
f 21 20 44
f 21 44 45
f 656 663 732
f 710 656 732
f 237 236 251
f 237 251 252
f 454 453 476
f 454 476 477
f 797 798 680
f 23 22 46
f 23 46 47
f 239 238 253
f 239 253 254
f 457 456 479
f 457 479 480
f 752 617 753
f 617 561 753
f 761 753 561
f 25 49 50
f 26 25 50
f 242 241 256
f 242 256 257
f 481 457 480
f 458 457 481
f 752 734 617
f 734 729 617
f 27 26 50
f 27 50 51
f 243 242 257
f 243 257 258
f 739 458 481
f 756 739 481
f 756 481 482
f 772 758 610
f 561 610 759
f 758 759 610
f 28 27 51
f 28 51 52
f 737 244 259
f 737 259 260
f 738 244 737
f 460 459 483
f 460 483 484
f 622 640 804
f 805 804 640
f 765 622 804
f 29 28 52
f 29 52 53
f 828 261 246
f 827 246 245
f 828 246 827
f 706 660 658
f 706 658 809
f 461 460 484
f 461 484 485
f 30 29 53
f 30 53 54
f 247 246 262
f 247 262 263
f 688 687 603
f 687 748 603
f 462 461 485
f 462 485 486
f 55 30 54
f 31 30 55
f 248 247 263
f 248 263 264
f 622 766 658
f 766 809 658
f 32 31 55
f 32 55 56
f 708 701 602
f 494 487 463
f 506 500 494
f 464 463 487
f 506 507 500
f 506 494 463
f 249 248 264
f 265 249 264
f 629 651 769
f 774 629 769
f 36 35 59
f 36 59 60
f 469 468 491
f 469 491 492
f 251 266 267
f 252 251 267
f 252 267 268
f 680 635 797
f 810 797 635
f 39 38 62
f 39 62 63
f 471 470 493
f 471 493 499
f 560 602 701
f 697 560 701
f 270 253 269
f 254 253 270
f 40 39 63
f 40 63 64
f 257 256 272
f 257 272 273
f 636 637 695
f 694 695 637
f 818 636 695
f 499 472 471
f 513 472 499
f 513 499 505
f 498 505 499
f 512 513 505
f 41 40 64
f 41 64 65
f 257 273 274
f 258 257 274
f 603 560 688
f 690 688 560
f 697 690 560
f 513 514 473
f 513 473 472
f 42 41 65
f 42 65 66
f 709 694 637
f 260 259 275
f 260 275 276
f 514 515 474
f 514 474 473
f 741 569 603
f 741 603 748
f 43 42 66
f 43 66 67
f 516 475 474
f 515 516 474
f 717 260 276
f 830 829 276
f 718 260 717
f 829 717 276
f 636 820 681
f 681 820 821
f 819 820 636
f 43 67 68
f 44 43 68
f 516 517 476
f 516 476 475
f 45 44 69
f 45 69 70
f 742 743 569
f 743 768 569
f 263 262 277
f 263 277 278
f 517 518 477
f 517 477 476
f 47 46 71
f 47 71 72
f 263 278 279
f 264 263 279
f 681 816 817
f 822 816 681
f 518 519 478
f 518 478 477
f 810 635 817
f 635 681 817
f 48 47 72
f 48 72 73
f 265 264 279
f 265 279 280
f 519 520 479
f 519 479 478
f 265 280 281
f 266 265 281
f 50 49 74
f 50 74 75
f 782 780 578
f 578 780 799
f 574 782 578
f 787 782 574
f 521 480 479
f 520 521 479
f 267 266 281
f 267 281 282
f 51 50 75
f 51 75 76
f 618 572 722
f 728 722 572
f 268 267 283
f 268 283 284
f 521 522 481
f 521 481 480
f 604 569 768
f 763 604 768
f 52 51 76
f 52 76 77
f 270 269 285
f 270 285 286
f 728 572 729
f 617 729 572
f 523 482 481
f 522 523 481
f 53 52 77
f 53 77 78
f 288 289 273
f 288 273 272
f 54 53 78
f 54 78 79
f 763 762 604
f 785 574 604
f 785 604 762
f 289 290 274
f 289 274 273
f 774 775 629
f 650 629 775
f 55 54 79
f 55 79 80
f 290 291 275
f 290 275 274
f 579 578 807
f 806 579 807
f 56 55 80
f 56 80 81
f 291 292 276
f 291 276 275
f 793 795 650
f 57 56 81
f 57 81 82
f 799 807 578
f 292 293 686
f 292 686 830
f 292 830 276
f 775 793 650
f 60 59 84
f 60 84 85
f 523 769 714
f 523 775 774
f 712 482 714
f 523 774 769
f 523 793 775
f 523 795 793
f 524 796 795
f 523 524 795
f 524 802 796
f 524 803 802
f 524 804 805
f 524 805 803
f 523 714 482
f 717 829 596
f 590 717 596
f 61 60 85
f 61 85 86
f 700 294 278
f 698 278 277
f 700 278 698
f 832 698 277
f 576 579 811
f 696 576 811
f 526 527 484
f 526 484 483
f 62 61 86
f 62 86 87
f 294 295 279
f 294 279 278
f 806 811 579
f 527 528 485
f 527 485 484
f 62 87 88
f 63 62 88
f 640 644 802
f 796 802 644
f 280 279 296
f 280 296 297
f 295 296 279
f 644 650 796
f 795 796 650
f 528 529 486
f 528 486 485
f 64 63 88
f 64 88 89
f 297 298 281
f 297 281 280
f 64 89 90
f 65 64 90
f 298 299 282
f 298 282 281
f 498 492 491
f 491 490 497
f 498 491 497
f 299 283 282
f 300 283 299
f 66 65 90
f 66 90 91
f 284 283 300
f 66 91 92
f 67 66 92
f 300 301 285
f 300 285 284
f 68 67 92
f 93 68 92
f 301 302 286
f 301 286 285
f 70 69 94
f 70 94 95
f 302 303 287
f 302 287 286
f 526 703 702
f 526 702 706
f 776 703 526
f 483 755 778
f 776 526 778
f 483 778 526
f 754 755 483
f 525 526 706
f 809 525 706
f 766 525 809
f 764 525 766
f 72 71 96
f 72 96 97
f 288 304 305
f 289 288 305
f 498 497 503
f 498 503 504
f 75 74 99
f 75 99 100
f 290 289 305
f 290 305 306
f 76 75 100
f 76 100 101
f 524 525 765
f 764 765 525
f 524 765 804
f 293 292 308
f 293 308 309
f 77 76 101
f 77 101 102
f 504 503 510
f 504 510 511
f 715 311 294
f 715 294 700
f 78 77 102
f 78 102 103
f 507 506 530
f 507 530 531
f 296 295 312
f 296 312 313
f 814 824 651
f 739 756 651
f 713 651 756
f 735 739 651
f 826 735 651
f 824 826 651
f 812 814 651
f 808 812 651
f 801 808 651
f 789 801 651
f 789 651 788
f 779 651 771
f 788 651 781
f 781 651 779
f 79 78 103
f 79 103 104
f 297 296 314
f 297 314 315
f 508 507 531
f 508 531 532
f 80 79 104
f 80 104 105
f 298 297 315
f 298 315 316
f 509 508 532
f 509 532 533
f 81 80 105
f 81 105 106
f 299 298 316
f 317 299 316
f 510 509 533
f 510 533 534
f 81 106 107
f 82 81 107
f 302 301 318
f 302 318 319
f 511 510 534
f 511 534 535
f 83 82 107
f 83 107 108
f 305 304 321
f 305 321 322
f 512 511 535
f 536 512 535
f 513 512 536
f 84 83 108
f 84 108 109
f 305 322 323
f 306 305 323
f 514 513 536
f 514 536 537
f 307 306 323
f 307 323 324
f 85 84 109
f 85 109 110
f 829 830 596
f 651 596 771
f 770 771 596
f 757 770 596
f 736 757 596
f 733 736 596
f 723 733 596
f 716 723 596
f 705 716 596
f 704 705 596
f 689 704 596
f 686 689 596
f 830 686 596
f 515 514 537
f 515 537 538
f 308 307 324
f 308 324 325
f 88 87 112
f 88 112 113
f 515 538 539
f 516 515 539
f 326 308 325
f 309 308 326
f 114 88 113
f 89 88 114
f 517 516 539
f 517 539 540
f 310 309 326
f 310 326 327
f 90 89 114
f 90 114 115
f 518 517 540
f 518 540 541
f 116 90 115
f 91 90 116
f 727 329 312
f 725 312 311
f 727 312 725
f 313 312 329
f 330 313 329
f 519 518 541
f 519 541 542
f 92 91 116
f 92 116 117
f 314 313 330
f 331 314 330
f 519 542 543
f 520 519 543
f 93 92 117
f 118 93 117
f 315 314 331
f 315 331 332
f 521 520 543
f 521 543 544
f 95 94 118
f 95 118 119
f 316 315 332
f 316 332 333
f 545 521 544
f 522 521 545
f 96 95 119
f 96 119 120
f 317 316 333
f 317 333 334
f 523 522 545
f 523 545 546
f 97 96 120
f 97 120 121
f 317 334 335
f 318 317 335
f 524 523 546
f 524 546 547
f 100 99 123
f 100 123 124
f 319 318 335
f 319 335 336
f 525 524 547
f 525 547 548
f 101 100 124
f 101 124 125
f 319 336 337
f 320 319 337
f 526 525 548
f 526 548 549
f 102 101 125
f 102 125 126
f 322 321 338
f 322 338 339
f 103 102 126
f 103 126 127
f 527 526 549
f 527 549 550
f 323 322 339
f 323 339 340
f 791 777 610
f 777 773 610
f 772 610 773
f 827 610 828
f 794 791 610
f 800 794 610
f 813 800 610
f 815 813 610
f 823 815 610
f 825 610 827
f 823 610 825
f 828 610 831
f 832 610 698
f 831 610 832
f 104 103 127
f 104 127 128
f 528 527 550
f 528 550 551
f 343 325 342
f 326 325 343
f 105 104 128
f 105 128 129
f 529 528 551
f 529 551 552
f 745 330 329
f 745 347 330
f 745 329 740
f 130 105 129
f 106 105 130
f 331 347 348
f 332 331 348
f 107 106 130
f 107 130 131
f 333 332 348
f 333 348 349
f 108 107 131
f 108 131 132
f 334 333 349
f 334 349 350
f 108 132 133
f 109 108 133
f 740 680 745
f 740 727 680
f 727 725 680
f 725 715 680
f 715 700 680
f 700 610 680
f 698 610 700
f 783 745 680
f 784 783 680
f 790 784 680
f 792 790 680
f 798 792 680
f 335 334 350
f 335 350 351
f 110 109 133
f 110 133 134
f 352 335 351
f 336 335 352
f 111 110 134
f 111 134 135
f 337 336 352
f 337 352 353
f 111 135 136
f 112 111 136
f 113 112 136
f 113 136 137
f 356 357 339
f 356 339 338
f 114 113 137
f 114 137 138
f 357 358 340
f 357 340 339
f 115 114 138
f 115 138 139
f 358 359 354
f 358 354 340
f 25 1 553
f 49 25 553
f 74 49 553
f 99 74 553
f 123 99 553
f 147 123 553
f 169 147 553
f 190 169 553
f 208 190 553
f 225 208 553
f 241 225 553
f 256 241 553
f 272 256 553
f 555 288 272
f 555 304 288
f 555 321 304
f 555 338 321
f 555 356 338
f 555 371 356
f 555 393 371
f 555 411 393
f 555 430 411
f 555 433 430
f 555 437 433
f 555 442 437
f 555 463 442
f 555 506 463
f 555 272 553
f 530 506 555
f 116 115 139
f 116 139 140
f 343 342 355
f 361 343 355
f 360 361 355
f 117 116 140
f 117 140 141
f 361 362 344
f 362 345 344
f 361 344 343
f 118 117 141
f 142 118 141
f 119 118 142
f 362 757 346
f 757 736 346
f 362 363 757
f 362 346 345
f 121 120 144
f 121 144 145
f 124 123 147
f 124 147 148
f 783 348 347
f 745 783 347
f 125 124 148
f 125 148 149
f 783 784 366
f 783 366 349
f 783 349 348
f 126 125 149
f 126 149 150
f 366 367 350
f 366 350 349
f 127 126 150
f 127 150 151
f 368 351 350
f 367 368 350
f 532 531 555
f 531 530 555
f 533 532 555
f 534 533 555
f 535 534 555
f 536 535 555
f 537 536 555
f 538 537 555
f 539 538 555
f 540 539 555
f 541 540 555
f 542 541 555
f 543 542 555
f 544 543 555
f 545 544 555
f 556 546 545
f 556 547 546
f 556 548 547
f 556 549 548
f 556 550 549
f 556 551 550
f 556 545 555
f 552 551 556
f 368 369 352
f 368 352 351
f 687 127 151
f 128 127 687
f 128 687 688
f 690 128 688
f 370 353 352
f 369 370 352
f 359 360 355
f 359 355 354
f 363 364 770
f 363 770 757
f 729 734 130
f 734 152 130
f 728 729 130
f 129 728 130
f 722 728 129
f 721 722 129
f 720 721 129
f 711 720 129
f 131 130 152
f 131 152 153
f 779 364 365
f 771 364 779
f 770 364 771
f 131 153 154
f 132 131 154
f 357 356 371
f 357 371 372
f 133 132 154
f 133 154 155
f 529 552 556
f 486 529 556
f 462 486 556
f 429 462 556
f 410 429 556
f 387 410 556
f 370 387 556
f 353 370 556
f 337 353 556
f 320 337 556
f 303 320 556
f 287 303 556
f 271 287 556
f 255 271 556
f 554 240 255
f 554 224 240
f 554 207 224
f 554 189 207
f 554 168 189
f 554 146 168
f 554 122 146
f 554 98 122
f 554 73 98
f 554 48 73
f 554 255 556
f 24 48 554
f 358 373 374
f 359 358 374
f 134 133 155
f 134 155 156
f 360 359 374
f 360 374 375
f 136 158 159
f 137 136 159
f 376 360 375
f 361 360 376
f 138 137 159
f 138 159 160
f 362 361 377
f 362 377 378
f 139 138 160
f 139 160 161
f 362 378 379
f 363 362 379
f 363 379 380
f 140 139 161
f 140 161 162
f 364 363 380
f 364 380 381
f 141 140 162
f 141 162 163
f 365 364 381
f 365 381 382
f 142 141 163
f 142 163 164
f 781 365 382
f 788 781 382
f 788 382 383
f 143 142 164
f 143 164 165
f 792 367 366
f 792 384 367
f 792 366 790
f 23 24 554
f 22 23 554
f 21 22 554
f 20 21 554
f 19 20 554
f 18 19 554
f 17 18 554
f 553 16 17
f 553 15 16
f 553 14 15
f 553 13 14
f 553 12 13
f 553 11 12
f 553 10 11
f 553 9 10
f 553 8 9
f 553 7 8
f 553 6 7
f 553 5 6
f 553 4 5
f 553 3 4
f 553 2 3
f 553 17 554
f 1 2 553
f 145 144 166
f 145 166 167
f 368 367 384
f 368 384 385
f 148 147 169
f 148 169 170
f 386 368 385
f 369 368 386
f 149 148 170
f 149 170 171
f 370 369 386
f 370 386 387
f 150 149 171
f 150 171 172
f 394 372 371
f 393 394 371
f 151 150 172
f 151 172 173
f 394 395 373
f 394 373 372
f 427 694 709
f 695 694 427
f 710 427 709
f 460 427 710
f 460 710 732
f 460 732 730
f 460 730 731
f 460 731 746
f 751 460 746
f 747 460 751
f 459 460 747
f 395 396 374
f 395 374 373
f 743 742 151
f 743 151 173
f 741 151 742
f 748 151 741
f 687 151 748
f 397 375 374
f 396 397 374
f 128 690 697
f 701 128 697
f 708 128 701
f 707 128 708
f 129 128 707
f 711 129 707
f 397 398 376
f 397 376 375
f 758 174 153
f 759 153 152
f 760 759 152
f 758 153 759
f 761 760 152
f 753 761 152
f 388 377 376
f 399 400 388
f 398 399 388
f 398 388 376
f 293 310 704
f 689 293 704
f 154 153 174
f 154 174 175
f 379 378 388
f 379 388 389
f 310 328 705
f 716 705 328
f 391 390 389
f 390 379 389
f 154 175 176
f 155 154 176
f 380 379 390
f 156 155 176
f 156 176 177
f 328 346 723
f 733 723 346
f 390 381 380
f 392 381 390
f 157 156 177
f 157 177 178
f 747 744 459
f 392 382 381
f 403 382 392
f 402 403 392
f 160 159 181
f 160 181 182
f 403 404 383
f 403 383 382
f 152 734 752
f 753 152 752
f 162 161 183
f 162 183 184
f 801 789 383
f 404 405 801
f 404 801 383
f 482 712 713
f 756 482 713
f 164 163 185
f 164 185 186
f 188 166 187
f 166 165 187
f 167 166 188
f 763 173 194
f 763 194 762
f 768 173 763
f 743 173 768
f 168 167 188
f 168 188 189
f 792 798 384
f 810 384 797
f 817 384 810
f 816 384 817
f 798 797 384
f 170 169 190
f 170 190 191
f 750 749 483
f 754 483 749
f 767 750 483
f 459 767 483
f 744 767 459
f 170 191 192
f 171 170 192
f 816 822 408
f 816 408 385
f 816 385 384
f 821 408 822
f 820 408 821
f 172 171 192
f 172 192 193
f 408 409 386
f 408 386 385
f 174 758 772
f 773 174 772
f 172 193 194
f 173 172 194
f 409 410 387
f 409 387 386
f 782 193 211
f 782 211 780
f 194 193 782
f 777 195 175
f 773 777 175
f 773 175 174
f 400 401 391
f 400 391 389
f 400 389 388
f 176 175 195
f 176 195 196
f 405 406 808
f 405 808 801
f 194 782 787
f 786 194 787
f 785 194 786
f 762 194 785
f 177 176 196
f 177 196 197
f 392 391 401
f 392 401 402
f 178 177 197
f 178 197 198
f 812 406 407
f 808 406 812
f 179 178 198
f 179 198 199
f 394 393 411
f 394 411 412
f 806 807 211
f 799 211 807
f 780 211 799
f 228 811 806
f 228 696 811
f 228 692 696
f 228 806 211
f 691 692 228
f 180 179 199
f 180 199 200
f 398 397 415
f 398 415 416
f 202 181 201
f 182 181 202
f 399 398 416
f 399 416 417
f 693 228 244
f 726 244 738
f 699 244 726
f 693 244 699
f 691 228 693
f 184 183 203
f 184 203 219
f 218 219 203
f 419 400 418
f 401 400 419
f 219 220 204
f 219 204 184
f 402 401 419
f 402 419 420
f 818 427 408
f 818 408 819
f 695 427 818
f 820 819 408
f 186 185 204
f 186 204 205
f 403 402 420
f 403 420 421
f 188 187 206
f 188 206 223
f 222 223 206
f 260 718 719
f 724 260 719
f 737 260 724
f 405 404 422
f 405 422 423
f 223 224 207
f 223 207 188
f 406 405 423
f 406 423 424
f 277 261 832
f 831 832 261
f 191 190 208
f 191 208 209
f 407 406 424
f 407 424 425
f 192 191 209
f 192 209 210
f 192 210 211
f 193 192 211
f 814 407 425
f 824 814 425
f 824 425 426
f 409 408 427
f 409 427 428
f 794 212 196
f 791 196 195
f 794 196 791
f 410 409 428
f 410 428 429
f 197 196 212
f 197 212 213
f 412 411 430
f 412 430 434
f 198 197 213
f 198 213 214
f 434 413 412
f 439 413 434
f 199 198 214
f 199 214 215
f 439 414 413
f 445 414 439
f 444 445 439
f 200 199 215
f 200 215 216
f 445 446 415
f 445 415 414
f 201 200 216
f 217 201 216
f 202 201 217
f 446 447 416
f 446 416 415
f 202 217 218
f 203 202 218
f 447 448 417
f 447 417 416
f 205 204 220
f 205 220 221
f 448 449 418
f 448 418 417
f 206 205 221
f 206 221 222
f 449 450 419
f 449 419 418
f 226 209 208
f 225 226 208
f 450 451 420
f 450 420 419
f 226 227 210
f 226 210 209
f 227 228 211
f 227 211 210
