v -2 -2 -0.099999999999999978
v -2 -1.8999999999999999 -0.10999999999999999
v -2 -1.8 -0.11999999999999997
v -2 -1.7 -0.12999999999999998
v -2 -1.6000000000000001 -0.13999999999999996
v -2 -1.5 -0.14999999999999997
v -2 -1.3999999999999999 -0.16
v -2 -1.2999999999999998 -0.17000000000000001
v -2 -1.1000000000000001 -0.18999999999999997
v -2 -0.79999999999999982 -0.22
v -2 -0.69999999999999996 -0.22999999999999998
v -2 -0.59999999999999987 -0.23999999999999999
v -2 -0.5 -0.25
v -2 -0.29999999999999982 -0.27000000000000002
v -2 -0.19999999999999996 -0.27999999999999997
v -2 -0.099999999999999867 -0.28999999999999998
v -2 0 -0.29999999999999999
v -2 0.40000000000000036 -0.34000000000000002
v -2 0.5 -0.34999999999999998
v -2 0.90000000000000036 -0.39000000000000001
v -2 1 -0.40000000000000002
v -2 1.4000000000000004 -0.44000000000000006
v -2 1.5 -0.45000000000000001
v -2 1.9000000000000004 -0.49000000000000005
v -2 2 -0.5
v -1.8999999999999999 -2 -0.084999999999999964
v -1.8999999999999999 -1.8999999999999999 -0.094999999999999973
v -1.8999999999999999 -1.8 -0.10499999999999995
v -1.8999999999999999 -1.7 -0.11499999999999996
v -1.8999999999999999 -1.6000000000000001 -0.12499999999999994
v -1.8999999999999999 -1.5 -0.13499999999999995
v -1.8999999999999999 -1.3999999999999999 -0.14499999999999999
v -1.8999999999999999 -1.2999999999999998 -0.155
v -1.8999999999999999 -1.1000000000000001 -0.17499999999999996
v -1.8999999999999999 -0.79999999999999982 -0.20499999999999999
v -1.8999999999999999 -0.69999999999999996 -0.21499999999999997
v -1.8999999999999999 -0.59999999999999987 -0.22499999999999998
v -1.8999999999999999 -0.5 -0.23499999999999999
v -1.8999999999999999 -0.29999999999999982 -0.255
v -1.8999999999999999 -0.19999999999999996 -0.26499999999999996
v -1.8999999999999999 -0.099999999999999867 -0.27499999999999997
v -1.8999999999999999 0 -0.28499999999999998
v -1.8999999999999999 0.40000000000000036 -0.32500000000000001
v -1.8999999999999999 0.5 -0.33499999999999996
v -1.8999999999999999 0.90000000000000036 -0.375
v -1.8999999999999999 1 -0.38500000000000001
v -1.8999999999999999 1.4000000000000004 -0.42500000000000004
v -1.8999999999999999 1.5 -0.435
v -1.8999999999999999 1.9000000000000004 -0.47500000000000003
v -1.8999999999999999 2 -0.48499999999999999
v -1.8 -2 -0.070000000000000007
v -1.8 -1.8999999999999999 -0.080000000000000016
v -1.8 -1.8 -0.089999999999999997
v -1.8 -1.7 -0.10000000000000001
v -1.8 -1.6000000000000001 -0.10999999999999999
v -1.8 -1.5 -0.12
v -1.8 -1.3999999999999999 -0.13000000000000003
v -1.8 -1.2999999999999998 -0.14000000000000004
v -1.8 -1.1000000000000001 -0.16
v -1.8 -0.79999999999999982 -0.19000000000000003
v -1.8 -0.69999999999999996 -0.20000000000000001
v -1.8 -0.59999999999999987 -0.21000000000000002
v -1.8 -0.5 -0.22000000000000003
v -1.8 -0.29999999999999982 -0.24000000000000005
v -1.8 -0.19999999999999996 -0.25
v -1.8 -0.099999999999999867 -0.26000000000000001
v -1.8 0 -0.27000000000000002
v -1.8 0.40000000000000036 -0.31000000000000005
v -1.8 0.5 -0.32000000000000001
v -1.8 0.90000000000000036 -0.36000000000000004
v -1.8 1 -0.37
v -1.8 1.4000000000000004 -0.41000000000000003
v -1.8 1.5 -0.42000000000000004
v -1.8 1.9000000000000004 -0.46000000000000008
v -1.8 2 -0.47000000000000003
v -1.7 -2 -0.054999999999999993
v -1.7 -1.8999999999999999 -0.065000000000000002
v -1.7 -1.8 -0.074999999999999983
v -1.7 -1.7 -0.084999999999999992
v -1.7 -1.6000000000000001 -0.094999999999999973
v -1.7 -1.5 -0.10499999999999998
v -1.7 -1.3999999999999999 -0.11500000000000002
v -1.7 -1.2999999999999998 -0.12500000000000003
v -1.7 -1.1000000000000001 -0.14499999999999999
v -1.7 -0.79999999999999982 -0.17500000000000002
v -1.7 -0.69999999999999996 -0.185
v -1.7 -0.59999999999999987 -0.19500000000000001
v -1.7 -0.5 -0.20500000000000002
v -1.7 -0.29999999999999982 -0.22500000000000003
v -1.7 -0.19999999999999996 -0.23500000000000001
v -1.7 -0.099999999999999867 -0.24500000000000002
v -1.7 0 -0.255
v -1.7 0.40000000000000036 -0.29500000000000004
v -1.7 0.5 -0.30499999999999999
v -1.7 0.90000000000000036 -0.34500000000000003
v -1.7 1 -0.35499999999999998
v -1.7 1.4000000000000004 -0.39500000000000002
v -1.7 1.5 -0.40500000000000003
v -1.7 1.9000000000000004 -0.44500000000000006
v -1.7 2 -0.45500000000000002
v -1.6000000000000001 -2 -0.03999999999999998
v -1.6000000000000001 -1.8999999999999999 -0.049999999999999989
v -1.6000000000000001 -1.8 -0.05999999999999997
v -1.6000000000000001 -1.7 -0.069999999999999979
v -1.6000000000000001 -1.6000000000000001 -0.07999999999999996
v -1.6000000000000001 -1.5 -0.089999999999999969
v -1.6000000000000001 -1.3999999999999999 -0.10000000000000001
v -1.6000000000000001 -1.2999999999999998 -0.11000000000000001
v -1.6000000000000001 -1.1000000000000001 -0.12999999999999998
v -1.6000000000000001 -0.79999999999999982 -0.16
v -1.6000000000000001 -0.69999999999999996 -0.16999999999999998
v -1.6000000000000001 -0.59999999999999987 -0.17999999999999999
v -1.6000000000000001 -0.5 -0.19
v -1.6000000000000001 -0.29999999999999982 -0.21000000000000002
v -1.6000000000000001 -0.19999999999999996 -0.22
v -1.6000000000000001 -0.099999999999999867 -0.23000000000000001
v -1.6000000000000001 0 -0.23999999999999999
v -1.6000000000000001 0.40000000000000036 -0.28000000000000003
v -1.6000000000000001 0.5 -0.28999999999999998
v -1.6000000000000001 0.90000000000000036 -0.33000000000000002
v -1.6000000000000001 1 -0.33999999999999997
v -1.6000000000000001 1.4000000000000004 -0.38
v -1.6000000000000001 1.5 -0.39000000000000001
v -1.6000000000000001 1.9000000000000004 -0.43000000000000005
v -1.6000000000000001 2 -0.44
v -1.5 -2 -0.024999999999999967
v -1.5 -1.8999999999999999 -0.034999999999999976
v -1.5 -1.8 -0.044999999999999957
v -1.5 -1.7 -0.054999999999999966
v -1.5 -1.6000000000000001 -0.064999999999999947
v -1.5 -1.5 -0.074999999999999956
v -1.5 -1.3999999999999999 -0.084999999999999992
v -1.5 -1.2999999999999998 -0.095000000000000001
v -1.5 -1.1000000000000001 -0.11499999999999996
v -1.5 -0.79999999999999982 -0.14499999999999999
v -1.5 -0.69999999999999996 -0.15499999999999997
v -1.5 -0.59999999999999987 -0.16499999999999998
v -1.5 -0.29999999999999982 -0.19500000000000001
v -1.5 -0.19999999999999996 -0.20499999999999999
v -1.5 -0.099999999999999867 -0.215
v -1.5 0 -0.22499999999999998
v -1.5 0.30000000000000027 -0.255
v -1.5 0.40000000000000036 -0.26500000000000001
v -1.5 0.5 -0.27499999999999997
v -1.5 0.90000000000000036 -0.315
v -1.5 1 -0.32499999999999996
v -1.5 1.4000000000000004 -0.36499999999999999
v -1.5 1.9000000000000004 -0.41500000000000004
v -1.5 2 -0.42499999999999999
v -1.3999999999999999 -2 -0.0099999999999999811
v -1.3999999999999999 -1.8999999999999999 -0.01999999999999999
v -1.3999999999999999 -1.8 -0.029999999999999971
v -1.3999999999999999 -1.7 -0.03999999999999998
v -1.3999999999999999 -1.6000000000000001 -0.049999999999999961
v -1.3999999999999999 -1.5 -0.05999999999999997
v -1.3999999999999999 -1.3999999999999999 -0.070000000000000007
v -1.3999999999999999 -1.2999999999999998 -0.080000000000000016
v -1.3999999999999999 -0.79999999999999982 -0.13
v -1.3999999999999999 -0.69999999999999996 -0.14000000000000001
v -1.3999999999999999 -0.59999999999999987 -0.14999999999999999
v -1.3999999999999999 -0.5 -0.15999999999999998
v -1.3999999999999999 -0.19999999999999996 -0.19
v -1.3999999999999999 -0.099999999999999867 -0.20000000000000001
v -1.3999999999999999 0 -0.20999999999999999
v -1.3999999999999999 0.30000000000000027 -0.24000000000000002
v -1.3999999999999999 0.40000000000000036 -0.25
v -1.3999999999999999 0.5 -0.26000000000000001
v -1.3999999999999999 0.90000000000000036 -0.30000000000000004
v -1.3999999999999999 1 -0.31
v -1.3999999999999999 1.4000000000000004 -0.35000000000000003
v -1.3999999999999999 1.5 -0.35999999999999999
v -1.3999999999999999 2 -0.41000000000000003
v -1.2999999999999998 -2 0.0050000000000000322
v -1.2999999999999998 -1.8999999999999999 -0.0049999999999999767
v -1.2999999999999998 -1.8 -0.014999999999999958
v -1.2999999999999998 -1.7 -0.024999999999999967
v -1.2999999999999998 -1.6000000000000001 -0.034999999999999948
v -1.2999999999999998 -1.5 -0.044999999999999957
v -1.2999999999999998 -1.3999999999999999 -0.054999999999999993
v -1.2999999999999998 -0.69999999999999996 -0.12499999999999999
v -1.2999999999999998 -0.59999999999999987 -0.13499999999999998
v -1.2999999999999998 -0.5 -0.14499999999999996
v -1.2999999999999998 -0.29999999999999982 -0.16499999999999998
v -1.2999999999999998 -0.19999999999999996 -0.17499999999999999
v -1.2999999999999998 -0.099999999999999867 -0.185
v -1.2999999999999998 0 -0.19499999999999998
v -1.2999999999999998 0.40000000000000036 -0.23500000000000001
v -1.2999999999999998 0.5 -0.245
v -1.2999999999999998 0.90000000000000036 -0.28500000000000003
v -1.2999999999999998 1 -0.29499999999999998
v -1.2999999999999998 1.4000000000000004 -0.33500000000000002
v -1.2999999999999998 1.5 -0.34499999999999997
v -1.2999999999999998 1.9000000000000004 -0.38500000000000001
v -1.2999999999999998 2 -0.39500000000000002
v -1.2 -0.59999999999999987 -0.12
v -1.2 -0.5 -0.13
v -1.2 -0.29999999999999982 -0.15000000000000002
v -1.2 -0.19999999999999996 -0.16
v -1.2 0.40000000000000036 -0.22000000000000003
v -1.2 0.5 -0.22999999999999998
v -1.2 0.90000000000000036 -0.27000000000000002
v -1.2 1 -0.28000000000000003
v -1.2 1.4000000000000004 -0.32000000000000006
v -1.2 1.9000000000000004 -0.37000000000000005
v -1.2 2 -0.38
v -1.1000000000000001 -2 0.035000000000000003
v -1.1000000000000001 -1.8999999999999999 0.024999999999999994
v -1.1000000000000001 -1.8 0.015000000000000013
v -1.1000000000000001 -1.7 0.0050000000000000044
v -1.1000000000000001 -1.6000000000000001 -0.0049999999999999767
v -1.1000000000000001 -0.5 -0.115
v -1.1000000000000001 -0.39999999999999991 -0.125
v -1.1000000000000001 -0.29999999999999982 -0.13500000000000001
v -1.1000000000000001 -0.19999999999999996 -0.14500000000000002
v -1.1000000000000001 -0.099999999999999867 -0.15500000000000003
v -1.1000000000000001 0 -0.16500000000000001
v -1.1000000000000001 0.40000000000000036 -0.20500000000000004
v -1.1000000000000001 0.5 -0.21500000000000002
v -1.1000000000000001 0.90000000000000036 -0.25500000000000006
v -1.1000000000000001 1 -0.26500000000000001
v -1.1000000000000001 1.4000000000000004 -0.30500000000000005
v -1.1000000000000001 1.5 -0.31500000000000006
v -1.1000000000000001 1.9000000000000004 -0.35500000000000009
v -1.1000000000000001 2 -0.36499999999999999
v -1 -0.39999999999999991 -0.11
v -1 -0.29999999999999982 -0.12000000000000001
v -1 -0.19999999999999996 -0.13
v -0.79999999999999982 -2 0.080000000000000043
v -0.79999999999999982 -1.8999999999999999 0.070000000000000034
v -0.79999999999999982 -1.8 0.060000000000000053
v -0.79999999999999982 -1.7 0.050000000000000044
v -0.79999999999999982 -1.6000000000000001 0.040000000000000063
v -0.79999999999999982 -0.19999999999999996 -0.099999999999999978
v -0.79999999999999982 -0.099999999999999867 -0.10999999999999999
v -0.79999999999999982 0 -0.11999999999999997
v -0.79999999999999982 0.10000000000000009 -0.12999999999999998
v -0.79999999999999982 0.40000000000000036 -0.16
v -0.79999999999999982 0.5 -0.16999999999999998
v -0.79999999999999982 0.90000000000000036 -0.21000000000000002
v -0.79999999999999982 1 -0.21999999999999997
v -0.79999999999999982 1.4000000000000004 -0.26000000000000001
v -0.79999999999999982 1.5 -0.27000000000000002
v -0.79999999999999982 1.9000000000000004 -0.31000000000000005
v -0.79999999999999982 2 -0.31999999999999995
v -0.69999999999999996 -2 0.095000000000000015
v -0.69999999999999996 -1.8999999999999999 0.085000000000000006
v -0.69999999999999996 -1.8 0.075000000000000025
v -0.69999999999999996 -1.7 0.065000000000000016
v -0.69999999999999996 -1.6000000000000001 0.055000000000000035
v -0.69999999999999996 -1.5 0.045000000000000026
v -0.69999999999999996 -0.099999999999999867 -0.095000000000000001
v -0.69999999999999996 0 -0.105
v -0.69999999999999996 0.10000000000000009 -0.115
v -0.69999999999999996 0.20000000000000018 -0.125
v -0.69999999999999996 0.90000000000000036 -0.19500000000000003
v -0.69999999999999996 1 -0.20500000000000002
v -0.69999999999999996 1.4000000000000004 -0.24500000000000005
v -0.69999999999999996 1.5 -0.255
v -0.69999999999999996 1.9000000000000004 -0.29500000000000004
v -0.69999999999999996 2 -0.30499999999999999
v -0.59999999999999987 -2 0.11000000000000003
v -0.59999999999999987 -1.8999999999999999 0.10000000000000002
v -0.59999999999999987 -1.8 0.090000000000000038
v -0.59999999999999987 -1.7 0.080000000000000029
v -0.59999999999999987 -1.6000000000000001 0.070000000000000048
v -0.59999999999999987 -1.5 0.060000000000000039
v -0.59999999999999987 0 -0.089999999999999983
v -0.59999999999999987 0.90000000000000036 -0.18000000000000002
v -0.59999999999999987 1 -0.19
v -0.59999999999999987 1.4000000000000004 -0.23000000000000004
v -0.59999999999999987 1.5 -0.23999999999999999
v -0.59999999999999987 1.9000000000000004 -0.28000000000000003
v -0.59999999999999987 2 -0.28999999999999998
v -0.5 -2 0.125
v -0.5 -1.8999999999999999 0.115
v -0.5 -1.8 0.10500000000000002
v -0.5 -1.7 0.095000000000000015
v -0.5 -1.6000000000000001 0.085000000000000034
v -0.5 -1.5 0.075000000000000025
v -0.5 -1.3999999999999999 0.064999999999999988
v -0.5 0.90000000000000036 -0.16500000000000004
v -0.5 1 -0.17499999999999999
v -0.5 1.4000000000000004 -0.21500000000000002
v -0.5 1.5 -0.22500000000000003
v -0.5 1.9000000000000004 -0.26500000000000007
v -0.5 2 -0.27500000000000002
v -0.39999999999999991 -1.8999999999999999 0.13
v -0.39999999999999991 -1.8 0.12000000000000004
v -0.39999999999999991 -1.7 0.11000000000000003
v -0.29999999999999982 -2 0.15500000000000003
v -0.29999999999999982 -1.8999999999999999 0.14500000000000002
v -0.29999999999999982 -1.8 0.13500000000000006
v -0.29999999999999982 -1.7 0.12500000000000006
v -0.29999999999999982 -1.6000000000000001 0.11500000000000006
v -0.29999999999999982 -1.5 0.10500000000000005
v -0.29999999999999982 -1.3999999999999999 0.095000000000000015
v -0.29999999999999982 -1.2999999999999998 0.085000000000000006
v -0.29999999999999982 0.90000000000000036 -0.13500000000000001
v -0.29999999999999982 1 -0.14499999999999996
v -0.29999999999999982 1.4000000000000004 -0.185
v -0.29999999999999982 1.5 -0.19500000000000001
v -0.29999999999999982 1.9000000000000004 -0.23500000000000004
v -0.29999999999999982 2 -0.245
v -0.19999999999999996 -2 0.17000000000000001
v -0.19999999999999996 -1.8999999999999999 0.16
v -0.19999999999999996 -1.8 0.15000000000000002
v -0.19999999999999996 -1.7 0.14000000000000001
v -0.19999999999999996 -1.6000000000000001 0.13000000000000003
v -0.19999999999999996 -1.5 0.12000000000000002
v -0.19999999999999996 -1.3999999999999999 0.10999999999999999
v -0.19999999999999996 -1.2999999999999998 0.099999999999999978
v -0.19999999999999996 -1.1000000000000001 0.080000000000000016
v -0.19999999999999996 0.90000000000000036 -0.12000000000000002
v -0.19999999999999996 1 -0.13
v -0.19999999999999996 1.4000000000000004 -0.17000000000000004
v -0.19999999999999996 1.5 -0.18000000000000002
v -0.19999999999999996 1.9000000000000004 -0.22000000000000006
v -0.19999999999999996 2 -0.23000000000000001
v -0.099999999999999867 -2 0.18500000000000003
v -0.099999999999999867 -1.8999999999999999 0.17500000000000002
v -0.099999999999999867 -1.8 0.16500000000000004
v -0.099999999999999867 -1.7 0.15500000000000003
v -0.099999999999999867 -1.6000000000000001 0.14500000000000005
v -0.099999999999999867 -1.5 0.13500000000000004
v -0.099999999999999867 -1.3999999999999999 0.125
v -0.099999999999999867 -1.2999999999999998 0.11499999999999999
v -0.099999999999999867 -1.1000000000000001 0.095000000000000029
v -0.099999999999999867 0.90000000000000036 -0.10500000000000001
v -0.099999999999999867 1 -0.11499999999999999
v -0.099999999999999867 1.4000000000000004 -0.15500000000000003
v -0.099999999999999867 1.5 -0.16500000000000001
v -0.099999999999999867 1.9000000000000004 -0.20500000000000004
v -0.099999999999999867 2 -0.215
v 0 -2 0.20000000000000001
v 0 -1.8999999999999999 0.19
v 0 -1.8 0.18000000000000002
v 0 -1.7 0.17000000000000001
v 0 -1.6000000000000001 0.16000000000000003
v 0 -1.5 0.15000000000000002
v 0 -1.3999999999999999 0.13999999999999999
v 0 -1.2999999999999998 0.12999999999999998
v 0 -1.1000000000000001 0.11000000000000001
v 0 0.90000000000000036 -0.090000000000000038
v 0 1 -0.10000000000000001
v 0 1.4000000000000004 -0.14000000000000004
v 0 1.5 -0.15000000000000002
v 0 1.9000000000000004 -0.19000000000000006
v 0 2 -0.20000000000000001
v 0.40000000000000036 -2 0.26000000000000006
v 0.40000000000000036 -1.8999999999999999 0.25000000000000006
v 0.40000000000000036 -1.8 0.24000000000000007
v 0.40000000000000036 -1.7 0.23000000000000007
v 0.40000000000000036 -1.6000000000000001 0.22000000000000008
v 0.40000000000000036 -1.5 0.21000000000000008
v 0.40000000000000036 -1.3999999999999999 0.20000000000000004
v 0.40000000000000036 -1.2999999999999998 0.19000000000000003
v 0.40000000000000036 1 -0.039999999999999952
v 0.40000000000000036 1.4000000000000004 -0.079999999999999988
v 0.40000000000000036 1.5 -0.089999999999999969
v 0.40000000000000036 1.9000000000000004 -0.13
v 0.40000000000000036 2 -0.13999999999999996
v 0.5 -2 0.27500000000000002
v 0.5 -1.8999999999999999 0.26500000000000001
v 0.5 -1.8 0.255
v 0.5 -1.7 0.245
v 0.5 -1.6000000000000001 0.23500000000000004
v 0.5 -1.5 0.22500000000000003
v 0.5 1.4000000000000004 -0.065000000000000044
v 0.5 1.5 -0.075000000000000025
v 0.5 1.9000000000000004 -0.11500000000000006
v 0.5 2 -0.125
v 0.60000000000000009 2 -0.11
v 0.80000000000000027 -1.7 0.29000000000000004
v 0.80000000000000027 1.4000000000000004 -0.020000000000000004
v 0.80000000000000027 1.5 -0.029999999999999985
v 0.80000000000000027 1.9000000000000004 -0.070000000000000021
v 0.80000000000000027 2 -0.079999999999999974
v 0.90000000000000036 -2 0.33500000000000008
v 0.90000000000000036 -1.8999999999999999 0.32500000000000007
v 0.90000000000000036 -1.8 0.31500000000000006
v 0.90000000000000036 -1.7 0.30500000000000005
v 0.90000000000000036 0 0.13500000000000004
v 0.90000000000000036 1.5 -0.014999999999999986
v 0.90000000000000036 1.9000000000000004 -0.055000000000000021
v 0.90000000000000036 2 -0.064999999999999974
v 1 -2 0.34999999999999998
v 1 -1.8999999999999999 0.33999999999999997
v 1 -1.8 0.33000000000000002
v 1 -1.7 0.32000000000000001
v 1 -0.099999999999999867 0.15999999999999998
v 1 0 0.14999999999999999
v 1 1.5 -2.7755575615628914e-17
v 1 1.9000000000000004 -0.040000000000000063
v 1 2 -0.050000000000000017
v 1.4000000000000004 -2 0.41000000000000003
v 1.4000000000000004 -1.8999999999999999 0.40000000000000002
v 1.4000000000000004 -1.8 0.39000000000000007
v 1.4000000000000004 -1.7 0.38000000000000006
v 1.4000000000000004 -1.6000000000000001 0.37000000000000011
v 1.4000000000000004 -0.29999999999999982 0.24000000000000005
v 1.4000000000000004 -0.19999999999999996 0.23000000000000004
v 1.4000000000000004 -0.099999999999999867 0.22000000000000003
v 1.4000000000000004 0 0.21000000000000005
v 1.4000000000000004 0.40000000000000036 0.17000000000000001
v 1.4000000000000004 0.5 0.16000000000000003
v 1.4000000000000004 1.4000000000000004 0.070000000000000007
v 1.4000000000000004 1.5 0.060000000000000026
v 1.4000000000000004 1.9000000000000004 0.01999999999999999
v 1.4000000000000004 2 0.010000000000000037
v 1.5 -2 0.42499999999999999
v 1.5 -1.8999999999999999 0.41499999999999998
v 1.5 -1.8 0.40500000000000003
v 1.5 -1.7 0.39500000000000002
v 1.5 -1.6000000000000001 0.38500000000000001
v 1.5 -0.5 0.27499999999999997
v 1.5 -0.29999999999999982 0.25499999999999995
v 1.5 -0.19999999999999996 0.24499999999999997
v 1.5 -0.099999999999999867 0.23499999999999996
v 1.5 0 0.22499999999999998
v 1.5 0.40000000000000036 0.18499999999999994
v 1.5 0.5 0.17499999999999999
v 1.5 1.4000000000000004 0.084999999999999937
v 1.5 1.5 0.074999999999999956
v 1.5 1.9000000000000004 0.03499999999999992
v 1.5 2 0.024999999999999967
v 1.6000000000000001 -0.19999999999999996 0.26000000000000001
v 1.6000000000000001 -0.099999999999999867 0.24999999999999997
v 1.7000000000000002 -0.099999999999999867 0.26500000000000001
v 1.7000000000000002 0 0.255
v 1.9000000000000004 -2 0.48500000000000004
v 1.9000000000000004 -1.8999999999999999 0.47500000000000003
v 1.9000000000000004 -1.8 0.46500000000000008
v 1.9000000000000004 -1.7 0.45500000000000007
v 1.9000000000000004 -1.6000000000000001 0.44500000000000006
v 1.9000000000000004 -1.5 0.43500000000000005
v 1.9000000000000004 -1.2999999999999998 0.41500000000000004
v 1.9000000000000004 -1.2 0.40500000000000003
v 1.9000000000000004 -1.1000000000000001 0.39500000000000002
v 1.9000000000000004 -0.79999999999999982 0.36499999999999999
v 1.9000000000000004 -0.69999999999999996 0.35500000000000004
v 1.9000000000000004 -0.59999999999999987 0.34500000000000003
v 1.9000000000000004 -0.5 0.33500000000000002
v 1.9000000000000004 -0.29999999999999982 0.315
v 1.9000000000000004 -0.19999999999999996 0.30500000000000005
v 1.9000000000000004 -0.099999999999999867 0.29500000000000004
v 1.9000000000000004 0 0.28500000000000003
v 1.9000000000000004 0.40000000000000036 0.245
v 1.9000000000000004 0.5 0.23500000000000004
v 1.9000000000000004 0.90000000000000036 0.19500000000000001
v 1.9000000000000004 1 0.18500000000000003
v 1.9000000000000004 1.4000000000000004 0.14499999999999999
v 1.9000000000000004 1.5 0.13500000000000001
v 1.9000000000000004 1.9000000000000004 0.094999999999999973
v 1.9000000000000004 2 0.08500000000000002
v 2 -2 0.5
v 2 -1.8999999999999999 0.48999999999999999
v 2 -1.8 0.47999999999999998
v 2 -1.7 0.46999999999999997
v 2 -1.6000000000000001 0.46000000000000002
v 2 -1.5 0.45000000000000001
v 2 -1.3999999999999999 0.43999999999999995
v 2 -1.2999999999999998 0.42999999999999994
v 2 -1.2 0.41999999999999998
v 2 -1.1000000000000001 0.41000000000000003
v 2 -0.79999999999999982 0.38
v 2 -0.69999999999999996 0.37
v 2 -0.59999999999999987 0.35999999999999999
v 2 -0.5 0.34999999999999998
v 2 -0.29999999999999982 0.32999999999999996
v 2 -0.19999999999999996 0.32000000000000001
v 2 -0.099999999999999867 0.31
v 2 0 0.29999999999999999
v 2 0.40000000000000036 0.25999999999999995
v 2 0.5 0.25
v 2 0.90000000000000036 0.20999999999999996
v 2 1 0.19999999999999998
v 2 1.4000000000000004 0.15999999999999995
v 2 1.5 0.14999999999999997
v 2 1.9000000000000004 0.10999999999999993
v 2 2 0.099999999999999978
v -2 -2 -0.90000000000000002
v -2 2 -0.90000000000000002
v 2 -2 -0.90000000000000002
v 2 2 -0.90000000000000002
v -1 -1.3680117784833934 -0.14545556584642799
v -1 -1 -0.24999999999999994
v -1.3500000000000001 -1.2163118960624633 -0.11631189606246312
v -1.1124354249480162 -1.4856463342923145 -0.041432511343314105
v -0.88756457505198383 -1.4856463342923145 -0.041432511343314105
v -1 -1.1912865702388702 -0.22335685044874226
v -0.81807566089457184 -1.3037219951868864 -0.15386793629133028
v -0.702272217076786 -1.4114496766047311 -0.031733672164910687
v -0.81599411075830319 -1.1137218936815172 -0.21573956140660749
v -1.1819243391054282 -1.3037219951868864 -0.15386793629133028
v -1.1840058892416967 -1.1137218936815172 -0.21573956140660749
v -1.1840058892416967 -0.88627810631848281 -0.21573956140660749
v -1.3680117784833936 -1 -0.14545556584642788
v -1.0567604054103124 -1.4309494146115764 -0.098690129693979889
v -0.94323959458968754 -1.4309494146115764 -0.098690129693979889
v -0.83403957225459679 -1.53105661011428 0.0252223955097301
v -1 -1.4920349213414412 -0.047897214473551331
v -1 -1.282348744032155 -0.19053039486308881
v -1 -1.0965665694893436 -0.24330721736980326
v -1 -0.90343343051065639 -0.24330721736980326
v -0.90815973483089096 -1.3391091494424674 -0.15545053510429235
v -0.73147038712046653 -1.2625269972347468 -0.14073803223567299
v -0.85088399404560922 -1.3998761613949959 -0.10485446048149688
v -0.90784124005355471 -1.2507601554406054 -0.19701322042794217
v -0.73977637587787082 -1.4949747468305832 0.028949331494718011
v -0.67209910439313192 -1.3177933498176828 -0.080554794033443511
v -0.79279678519556196 -1.4531883257175569 -0.041616892720361454
v -0.75769288964770554 -1.3612851340357428 -0.098416188854319187
v -0.90685022710158603 -1.0575697256955536 -0.24138183841659638
v -0.72966883008868555 -1.1670738512237153 -0.17370456693185748
v -0.90704526622046833 -1.1540819192313048 -0.22647481818170728
v -0.81514207453865406 -1.2108812153652624 -0.19137092263385097
v -0.60502205176395996 -1.3593628088613134 -0.0026044542584121033
v -1.091840265169109 -1.3391091494424674 -0.15545053510429235
v -1.2685296128795334 -1.2625269972347468 -0.14073803223567299
v -1.1491160059543908 -1.3998761613949959 -0.10485446048149688
v -1.0921587599464453 -1.2507601554406054 -0.19701322042794217
v -1.3279008956068681 -1.3177933498176828 -0.080554794033443511
v -1.207203214804438 -1.4531883257175569 -0.041616892720361454
v -1.2423071103522945 -1.3612851340357428 -0.098416188854319187
v -1.0931497728984139 -1.0575697256955536 -0.24138183841659638
v -1.2703311699113145 -1.1670738512237153 -0.17370456693185748
v -1.0929547337795318 -1.1540819192313048 -0.22647481818170728
v -1.1848579254613458 -1.2108812153652624 -0.19137092263385097
v -1.2685296128795334 -0.73747300276525318 -0.14073803223567299
v -1.0931497728984139 -0.94243027430444637 -0.24138183841659638
v -1.2703311699113145 -0.83292614877628479 -0.17370456693185748
v -1.0929547337795318 -0.84591808076869535 -0.22647481818170728
v -1.1864832907941971 -1 -0.22470288442733571
v -1.1848579254613458 -0.7891187846347375 -0.19137092263385097
v -1.3634809428097285 -1.1095041255281617 -0.13812451972899714
v -1.3634809428097285 -0.89049587447183842 -0.13812451972899714
v -1.2797249361912959 -1.0576265060223722 -0.18908774505260934
v -1.2797249361912959 -0.94237349397762793 -0.18908774505260934
v 1 1.3680117784833934 -0.045455565846427959
v 1 1 -0.14999999999999991
v 1.3500000000000001 0.78368810393753674 -0.016311896062463083
v 1.3500000000000001 1.2163118960624633 -0.016311896062463083
v 1 1.1912865702388702 -0.12335685044874223
v 1.491432511343314 0.88756457505198383 0.064353665707685692
v 1.1840058892416967 0.88627810631848281 -0.11573956140660746
v 1.4817336721649106 0.702272217076786 0.13855032339526885
v 1.1819243391054282 1.3037219951868864 -0.053867936291330243
v 1.491432511343314 1.1124354249480162 0.064353665707685692
v 1.1840058892416967 1.1137218936815172 -0.11573956140660746
v 1.3680117784833936 1 -0.045455565846427848
v 0.81807566089457184 1.3037219951868864 -0.053867936291330243
v 1.0567604054103124 1.4309494146115764 0.0013098703060201444
v 1 1.282348744032155 -0.090530394863088781
v 1 1.0965665694893436 -0.14330721736980323
v 1.2685296128795334 0.73747300276525318 -0.040738032235672961
v 1.5486901296939799 0.94323959458968754 0.11905058538842367
v 1.42477760449027 0.83403957225459679 0.018943389885719975
v 1.3279008956068681 0.68220665018231719 0.019445205966556522
v 1.0931497728984139 0.94243027430444637 -0.14138183841659635
v 1.2703311699113145 0.83292614877628479 -0.073704566931857451
v 1.1848579254613458 0.7891187846347375 -0.091370922633850937
v 1.4210506685052819 0.73977637587787082 0.055025253169416866
v 1.4916168927203615 0.79279678519556196 0.096811674282443305
v 1.39497794823604 0.64063719113868656 0.09739554574158793
v 1.091840265169109 1.3391091494424674 -0.05545053510429232
v 1.2685296128795334 1.2625269972347468 -0.040738032235672961
v 1.1491160059543908 1.3998761613949959 -0.0048544604814968473
v 1.0921587599464453 1.2507601554406054 -0.097013220427942137
v 1.5486901296939799 1.0567604054103126 0.11905058538842367
v 1.42477760449027 1.1659604277454032 0.018943389885719975
v 1.4978972144735514 1 0.057965078658558822
v 1.3279008956068681 1.3177933498176828 0.019445205966556522
v 1.2423071103522945 1.3612851340357428 0.0015838111456808468
v 1.0931497728984139 1.0575697256955536 -0.14138183841659635
v 1.2703311699113145 1.1670738512237153 -0.073704566931857451
v 1.0929547337795318 1.1540819192313048 -0.12647481818170725
v 1.1864832907941971 1 -0.12470288442733568
v 1.1848579254613458 1.2108812153652624 -0.091370922633850937
v 1.4210506685052819 1.2602236241221292 0.055025253169416866
v 1.4916168927203615 1.207203214804438 0.096811674282443305
v 1.3634809428097285 0.89049587447183842 -0.038124519728997108
v 1.3634809428097285 1.1095041255281617 -0.038124519728997108
v 1.4341677078294128 0.94320070386604227 0.0038569405029114101
v 1.2797249361912959 0.94237349397762793 -0.089087745052609302
v 1.4341677078294128 1.0567992961339578 0.0038569405029114101
v 1.2797249361912959 1.0576265060223722 -0.089087745052609302
v 0.90815973483089096 1.3391091494424674 -0.05545053510429232
v 0.73147038712046653 1.2625269972347468 -0.040738032235672961
v 0.90784124005355471 1.2507601554406054 -0.097013220427942137
v 0.90685022710158603 1.0575697256955536 -0.14138183841659635
v 0.90704526622046833 1.1540819192313048 -0.12647481818170725
v 0.81514207453865406 1.2108812153652624 -0.091370922633850937
v 1 -1.3680117784833934 -0.095455565846428003
v 1.595455565846428 -1 0.1319882215166065
v 0.78368810393753674 -1.5663118960624631 0.14999999999999997
v 1.2163118960624633 -1.5663118960624631 0.14999999999999997
v 1 -1 -0.19999999999999996
v 1.5663118960624631 -0.64999999999999991 0.2836881039375368
v 1.5663118960624631 -1.3500000000000001 0.2836881039375368
v 1.3500000000000001 -1.2163118960624633 -0.066311896062463127
v 1.3500000000000001 -0.78368810393753674 -0.066311896062463127
v 0.88756457505198383 -1.4856463342923145 0.0085674886566858843
v 1.3037219951868864 -1.6038679362913304 0.31807566089457195
v 1.1124354249480162 -1.4856463342923145 0.0085674886566858843
v 1.1137218936815172 -1.6657395614066075 0.31599411075830325
v 1 -1.595455565846428 0.13198822151660644
v 1 -1.1912865702388702 -0.17335685044874227
v 1.6038679362913304 -0.81807566089457184 0.19627800481311364
v 1.4114496766047313 -0.5182663278350893 0.202272217076786
v 1.6038679362913304 -1.1819243391054282 0.19627800481311364
v 1.4114496766047313 -1.4817336721649106 0.202272217076786
v 1.1819243391054282 -1.3037219951868864 -0.10386793629133029
v 1.491432511343314 -1.1124354249480162 0.014353665707685648
v 1.2977277829232139 -1.4114496766047311 0.018266327835089302
v 1.1840058892416967 -1.1137218936815172 -0.16573956140660751
v 1.4817336721649106 -1.2977277829232139 0.088550323395268804
v 1.491432511343314 -0.88756457505198383 0.014353665707685648
v 1.1840058892416967 -0.88627810631848281 -0.16573956140660751
v 1.4817336721649106 -0.702272217076786 0.088550323395268804
v 1.3680117784833936 -1 -0.095455565846427892
v 1.6733568504487422 -1 0.30871342976112981
v 0.58855032339526869 -1.4817336721649106 0.202272217076786
v 0.81807566089457184 -1.3037219951868864 -0.10386793629133029
v 0.702272217076786 -1.4114496766047311 0.018266327835089302
v 0.81599411075830319 -1.1137218936815172 -0.16573956140660751
v 0.73747300276525318 -1.5907380322356732 0.23147038712046658
v 0.94323959458968754 -1.4309494146115764 -0.0486901296939799
v 0.83403957225459679 -1.53105661011428 0.075222395509730089
v 0.83292614877628479 -1.6237045669318575 0.22966883008868555
v 1.2625269972347468 -1.5907380322356732 0.23147038712046658
v 1.0567604054103124 -1.4309494146115764 -0.0486901296939799
v 1.1659604277454032 -1.53105661011428 0.075222395509730089
v 1 -1.4920349213414412 0.0021027855264486583
v 1.1670738512237153 -1.6237045669318575 0.22966883008868555
v 1 -1.6747028844273357 0.31351670920580288
v 1.2108812153652624 -1.6413709226338509 0.31514207453865417
v 0.89049587447183842 -1.5881245197289973 0.13651905719027163
v 1.1095041255281617 -1.5881245197289973 0.13651905719027163
v 0.94320070386604227 -1.5461430594970886 0.065832292170587114
v 0.94237349397762793 -1.6390877450526093 0.22027506380870421
v 1.0567992961339576 -1.5461430594970886 0.065832292170587114
v 1.0576265060223722 -1.6390877450526093 0.22027506380870421
v 1 -1.282348744032155 -0.14053039486308883
v 1 -1.0965665694893436 -0.19330721736980327
v 1.6054505351042923 -0.90815973483089096 0.16089085055753249
v 1.590738032235673 -0.73147038712046653 0.23747300276525324
v 1.4949747468305832 -0.57894933149471806 0.23977637587787087
v 1.53105661011428 -1.42477760449027 0.33403957225459679
v 1.3998761613949959 -1.5548544604814971 0.35088399404560922
v 1.6054505351042923 -1.091840265169109 0.16089085055753249
v 1.590738032235673 -1.2685296128795334 0.23747300276525324
v 1.3177933498176828 -1.5305547940334434 0.17209910439313197
v 1.4949747468305832 -1.4210506685052819 0.23977637587787087
v 1.3612851340357426 -1.5484161888543193 0.25769288964770554
v 1.4531883257175569 -1.4916168927203617 0.29279678519556196
v 1.091840265169109 -1.3391091494424674 -0.10545053510429236
v 1.2685296128795334 -1.2625269972347468 -0.090738032235673005
v 1.1491160059543908 -1.3998761613949959 -0.054854460481496892
v 1.0921587599464453 -1.2507601554406054 -0.14701322042794218
v 1.5486901296939799 -1.0567604054103126 0.069050585388423624
v 1.42477760449027 -1.1659604277454032 -0.03105661011428007
v 1.5548544604814971 -1.1491160059543908 0.10012383860500396
v 1.2602236241221292 -1.4949747468305832 0.078949331494718
v 1.3279008956068681 -1.3177933498176828 -0.030554794033443522
v 1.207203214804438 -1.4531883257175569 0.0083831072796385353
v 1.3593628088613134 -1.4526044542584122 0.10502205176395996
v 1.2423071103522945 -1.3612851340357428 -0.048416188854319198
v 1.0931497728984139 -1.0575697256955536 -0.19138183841659639
v 1.2703311699113145 -1.1670738512237153 -0.1237045669318575
v 1.0929547337795318 -1.1540819192313048 -0.17647481818170729
v 1.1848579254613458 -1.2108812153652624 -0.14137092263385098
v 1.5305547940334434 -1.3279008956068681 0.18220665018231724
v 1.4210506685052819 -1.2602236241221292 0.0050252531694168212
v 1.5484161888543193 -1.2423071103522945 0.13871486596425725
v 1.4526044542584122 -1.39497794823604 0.1406371911386865
v 1.4916168927203615 -1.207203214804438 0.046811674282443261
v 1.39497794823604 -1.3593628088613134 0.047395545741587886
v 1.2685296128795334 -0.73747300276525318 -0.090738032235673005
v 1.5486901296939799 -0.94323959458968754 0.069050585388423624
v 1.42477760449027 -0.83403957225459679 -0.03105661011428007
v 1.5548544604814971 -0.85088399404560922 0.10012383860500396
v 1.4978972144735514 -1 0.0079650786585587774
v 1.3279008956068681 -0.68220665018231719 -0.030554794033443522
v 1.0931497728984139 -0.94243027430444637 -0.19138183841659639
v 1.2703311699113145 -0.83292614877628479 -0.1237045669318575
v 1.0929547337795318 -0.84591808076869535 -0.17647481818170729
v 1.1864832907941971 -1 -0.17470288442733573
v 1.1848579254613458 -0.7891187846347375 -0.14137092263385098
v 1.5305547940334434 -0.67209910439313192 0.18220665018231724
v 1.4210506685052819 -0.73977637587787082 0.0050252531694168212
v 1.5484161888543193 -0.75769288964770554 0.13871486596425725
v 1.4526044542584122 -0.60502205176395996 0.1406371911386865
v 1.4916168927203615 -0.79279678519556196 0.046811674282443261
v 1.39497794823604 -0.64063719113868656 0.047395545741587886
v 1.3634809428097285 -1.1095041255281617 -0.088124519728997153
v 1.3634809428097285 -0.89049587447183842 -0.088124519728997153
v 1.4341677078294128 -1.0567992961339578 -0.046143059497088634
v 1.2797249361912959 -1.0576265060223722 -0.13908774505260935
v 1.4341677078294128 -0.94320070386604227 -0.046143059497088634
v 1.2797249361912959 -0.94237349397762793 -0.13908774505260935
v 1.6405303948630889 -1 0.21765125596784496
v 1.6470132204279422 -0.90784124005355471 0.24923984455939474
v 1.6470132204279422 -1.0921587599464453 0.24923984455939474
v 1.6413709226338509 -0.81514207453865406 0.2891187846347375
v 1.6237045669318575 -1.2703311699113145 0.33292614877628479
v 1.6413709226338509 -1.1848579254613458 0.2891187846347375
v 1.6764748181817073 -1.0929547337795318 0.34591808076869535
v 0.68220665018231719 -1.5305547940334434 0.17209910439313197
v 0.90815973483089096 -1.3391091494424674 -0.10545053510429236
v 0.73147038712046653 -1.2625269972347468 -0.090738032235673005
v 0.85088399404560922 -1.3998761613949959 -0.054854460481496892
v 0.90784124005355471 -1.2507601554406054 -0.14701322042794218
v 0.73977637587787082 -1.4949747468305832 0.078949331494718
v 0.67209910439313192 -1.3177933498176828 -0.030554794033443522
v 0.79279678519556196 -1.4531883257175569 0.0083831072796385353
v 0.64063719113868645 -1.4526044542584122 0.10502205176395996
v 0.75769288964770554 -1.3612851340357428 -0.048416188854319198
v 0.90685022710158603 -1.0575697256955536 -0.19138183841659639
v 0.90704526622046833 -1.1540819192313048 -0.17647481818170729
v 0.81514207453865406 -1.2108812153652624 -0.14137092263385098
v 0.54739554574158789 -1.39497794823604 0.1406371911386865
v 0.60502205176395996 -1.3593628088613134 0.047395545741587886
v 0.0099330707036855443 -0.76427382780103903 0.047395545741587886
v 0.013299503169845142 -0.74104125392750841 0.028311623488278162
v 0.76355518809379752 0.0092144309964439872 0.065824407734475801
v 0.010053754781415909 -0.77215925224972359 0.05516028611254211
v -0.43426647142119462 0.014474096855404022 -0.13237071923033725
v -0.49695870852935198 0.01600933113465362 -0.10948708241967409
v -0.51461490646334962 0.016441703650930627 -0.1030422969148638
v 0.016992290362592935 0.49759754134390094 -0.096899547010679918
v 0.01766199110082161 0.51339461901345862 -0.090738032235673005
v 0.01342683678005256 0.54448344689433281 -0.076640209752693658
v 0.015516783976823221 0.46279290750165197 -0.11047479618926584
v 0.01323520168296255 0.40897434250957082 -0.13146626627663552
v -0.40960942540778261 0.013870284581174301 -0.14137092263385098
v -0.37647219031391049 0.019266950512697903 -0.1509516358764792
v 0.092967040288626193 0.02127417686762419 -0.19346767154799521
v 0.06043465288130747 0.013829605528355366 -0.19575355952735543
v 4.3125322284526659e-16 4.3125322284526659e-16 -0.19999999999999993
v 0.014643063419527017 -0.063240611609967023 -0.19722118553492041
v -1.688703415273635e-16 -1.688703415273635e-16 -0.19999999999999993
v 0.021235616673651307 -0.091712597827422068 -0.19597011655983573
v 0.028337070324878932 -0.12238242826908863 -0.19462247354527312
v 0.12265227950873864 0.028067219085228912 -0.19138183841659639
v 0.16181020909729754 0.011090710503330008 -0.18794881660665216
v 0.74171555422293745 0.012625202874416094 0.047395545741587893
v 0.65716746819211402 0.011473222767563067 -0.014091465404181193
v 0.63053499723294015 0.015159248191610748 -0.030554794033443522
v 0.58550389634658273 0.014099304002356372 -0.054751981434139306
v 0.55945703199069063 0.013486211673301418 -0.068748105126753001
v 0.54418330815115401 0.01312669803687381 -0.076955347472091942
v 0.51369253705997364 0.017364073054306518 -0.090738032235673005
v 0.51298148613760364 0.017335914836150376 -0.091014628417900034
v 0.45233946044361845 0.014934439308588749 -0.11460415240524226
v 0.015257565270600007 -0.4570606752413563 -0.12413477483077362
v 0.014330280375347892 -0.42307474075968182 -0.1365046114086558
v 0.021635515833374169 0.14351384429741995 -0.18914852661229284
v 0.024116897326048926 0.12660260126791861 -0.19138183841659639
v 0.017938944762004989 0.18455612838289451 -0.18336852508548146
v 0.017945146553773335 0.16866464514774088 -0.18582709244398701
v 0.18105019978014175 0.013590433357931286 -0.18458415792704905
v 0.016817639187471929 -0.51423897092680837 -0.10332363092027606
v 0.015422253586643394 -0.46309666951626149 -0.12193785825618687
v 0.017924274864860715 0.22214630122938653 -0.17755295893640552
v 0.017921555230422201 0.22911509778041422 -0.17647481818170729
v 0.22742150694726204 0.01961514606357443 -0.17647481818170729
v 0.012809289592665597 -0.54386589970694588 -0.090738032235673005
v 0.013950881520124631 -0.59121673076242587 -0.066478794524963622
v 0.013009996668699422 0.25633057785828628 -0.17175134239844073
v 0.25717273904753168 0.018086813243989929 -0.1704978342154857
v 0.014681976223455906 -0.62154100071416563 -0.050942769987167465
v 0.014904945565517445 -0.63078929985903343 -0.046204591535511028
v 0.28085767438170323 0.016870108541510671 -0.16573956140660751
v 0.012441886281234681 0.25947853929207115 -0.17120498717866894
v 0.015385139543951891 0.28234264337926207 -0.16573956140660748
v 0.76292016171391386 0.0093136052834803494 0.065288555641628471
v 0.011519876925653375 -0.65721412235020427 -0.030554794033443525
v -0.16181886897245912 0.011099370378491569 -0.19138183841659639
v -0.1332062259915964 0.017513272602371146 -0.19338466107125549
v -0.18053561528549567 0.01412979709323242 -0.18895406441228282
v -0.22560902431011426 0.021427628700722193 -0.1831075327082364
v -0.10541623791813289 0.019749110281722982 -0.19510154190238135
v -0.099396652092399881 0.020233414800590981 -0.19547343524354427
v -0.074315234479415904 0.022251335009927709 -0.19702297909377406
v 0.01819589755884278 0.11476246704818639 -0.19239742249186112
v -0.54353693030931582 0.012480320195035607 -0.090738032235672991
v 0.43376796821471975 0.01500780081108713 -0.12152575558457637
v 0.43573049851902085 0.015000048382254402 -0.12079431969206084
v 0.3764415361031721 0.019297604723436265 -0.14137092263385098
v 0.41083752197278817 0.015098381146179868 -0.13007194280827883
v 0.019099286303264747 0.37663985452334364 -0.14137092263385101
v 0.31044091457927986 0.012713131656065928 -0.15941781013972831
v 0.33875509212789068 0.015537861714495478 -0.15167571975871214
v 0.016931284436883891 0.32159719116000857 -0.15559525402518012
v 0.35555791684625754 0.017214175425780454 -0.14708123745730578
v 0.017162043461486622 0.32745585369449381 -0.15408123649208244
v 0.013340180320608842 -0.40907932114721712 -0.14137092263385095
v -0.26295620140028614 0.015919548389449714 -0.17647481818170729
v -0.22659240347088394 0.021282596818369394 -0.18293288836419469
v 0.017031580570222693 -0.26406823358105913 -0.17647481818170729
v 0.015250936277588448 -0.20891277587586504 -0.18473564594797184
v 0.013818331092992488 -0.16453782968696004 -0.19138183841659637
v 0.019428117515154185 -0.27829966540805978 -0.17396844999293462
v 0.014683899180188559 -0.39763441847825082 -0.14455056737194152
v 0.016889358758553713 -0.37884978206805459 -0.14976935096899055
v 0.01070133840451748 0.06749389482153223 -0.1955287858486745
v 0.016856961293736632 -0.3380921245926426 -0.15989490346978297
v 0.016838260872217799 -0.31456604379543179 -0.16573956140660751
v 0.018250200692443774 -0.29479431476163626 -0.17022579252790426
v 0.016869401198117261 -0.35374215661321584 -0.15600691699855376
v -0.28420180718681537 0.015689146693519434 -0.17192667622419547
v -0.31310350014153127 0.015375717218317349 -0.16573956140660748
v -0.37527534864938344 0.019193456960591323 -0.15123093477563954
v -0.31844666205329963 0.015703820726087208 -0.16449266360531622
v 1.1034812677452646 -1.6704160142744418 0.33256379158923388
v 1.1222043126255685 -1.6679957776551833 0.33513022465935366
v 1.5000000000000002 -0.56521765140629143 0.28152176514062915
v 1.5121069812864767 -0.57717972385015481 0.28453401957798696
v 1.4413512897512906 -1.5241860661871125 0.36862130008140481
v 1.405007313470813 -1.5538365394258571 0.36613475096320769
v -1.4014560207821909 -1.181664006259125 -0.092052002491416138
v -1.4085334416282709 -1.1509990033764439 -0.096180115906596239
v -1.3999999999999997 -1.1858547876125389 -0.091414521238746091
v 0.13762514320013691 0.70587112559030041 -0.049943341079009509
v -1.4143625286660095 -1.1000000000000001 -0.10215437929990143
v 1.4800243696319793 -1.4914644475473915 0.37115010019953604
v 1.5014046603233162 0.71862102105116565 0.15334859694338088
v 1.5000000000000002 0.71608731785417845 0.15339126821458215
v 1.5255026447791997 0.77185423868884817 0.15163997284799513
v 1.2250580743459283 -1.6433767447545649 0.34809638562734568
v 1.1929310038221872 -1.6524647634727221 0.34418612692060035
v -1.4179152172696403 -1.0689173318361884 -0.10579554940682717
v -1.4177359769151561 -1.0426915546296274 -0.10839124107431065
v 0.29520501203510485 -1.1571067298106097 0.15999142478632669
v 0.29871809963477969 -1.1613215270541433 0.16093986765063129
v 1.5531209495217484 0.8518865836860815 0.14777948405965408
v 1.5523266663481317 0.84856207511429693 0.14799279244079006
v 0.24760581976946577 -1.1000000000000003 0.14714087296541989
v -1.3999999999999997 -0.92694117482367333 -0.11730588251763263
v -1.4090345564036399 -0.96477919765675779 -0.11487726369487022
v 1.594880925358747 -0.68965769681609401 0.30819790848542145
v 1.569693198983855 -0.64791023986832053 0.30024500383441027
v 1.5542696361249062 0.85964598403730974 0.14717584701500491
v 1.5584947313155266 0.90000000000000036 0.14377420969732893
v -1.3165424208267726 -1.3530496734512518 -0.062176395778890711
v -1.2999999999999998 -1.3726757776613259 -0.057732422233867424
v 1.6803627247810842 -1.0714842755955125 0.35920283627671379
v 1.6825547841949375 -1 0.35238321762924057
v 0.22351580355696515 -1.0710982060514174 0.14063719113868653
v 0.21433236687760568 -1.0593638147389024 0.13808623650553112
v 1.5630608783651438 0.96068173963813652 0.13839095779095792
v 1.5621509196547421 0.93492036887851326 0.14083060106035997
v -1.3520105039754051 -1.2999999999999998 -0.0728015755963108
v -1.3500458469128158 -1.3041070172313958 -0.072096175313782818
v -1.3384190080047151 -1.3243117078164428 -0.068331680419062998
v 1.6762213345222952 -0.91460227389216298 0.34289342756756058
v 1.5597728904357306 1 0.13396593356535957
v 1.571298468653062 -1.3815538101564437 0.37385015131360366
v 1.5847243528682438 -1.3613795241223619 0.37384660534247272
v -1.3824502431161327 -1.2363672492514304 -0.083730811542276851
v 1.5557420587768389 1.0482012988008278 0.12854117893644304
v 0.40000000000000041 -1.2828336335324082 0.18828336335324086
v 1.5364808099981924 -1.4281537333692191 0.37328749483665075
v 1.5536428740744825 1.0598213697750534 0.12706429413366704
v 1.5498760499648625 1.0745281700858491 0.12502859048614443
v 1.5 -1.470717863201968 0.37207178632019683
v 1.4988235790619848 -1.4720904569998066 0.3720325825592784
v -1.397322817302165 -0.91572874827794959 -0.11802554776752981
v 0.3317540176098368 0.90000000000000036 -0.040236897358524516
v 1.5019472969341956 1.1977141663112862 0.1055206779090007
v 1.5296147905743989 1.1345184451858887 0.11599037406757093
v 1.2822473148121383 -1.6213622527831684 0.35447332250013758
v 1.3195589983694735 -1.6045762052370787 0.35839147027912893
v -1.3827901869341175 -0.87271140641133615 -0.12014738739898402
v -1.3534593729141151 -0.81109626919855449 -0.12190927901726183
v -1.3475440617601113 -0.79999999999999982 -0.12213160926401671
v 0.38034907891579739 0.94859506130596083 -0.037807144293226493
v 0.40000000000000036 0.96824598239016391 -0.036824598239016348
v 0.49953938410176929 -1.4004606158982305 0.21497696920508844
v 0.5 -1.4009959154513798 0.21509959154513797
v 1.4999999999999998 1.2014399626358823 0.10485600373641174
v -1.3416119454470583 -0.7888722067507431 -0.12235457114198442
v -1.3301081277299462 -0.77240418935262956 -0.122275800224229
v -1.2999999999999998 -0.73479567729817075 -0.1215204322701829
v 0.49914303218170036 -1.3999999999999999 0.21487145482725503
v 1.6162480456366153 -1.2999999999999998 0.37243720684549225
v 1.3854274301110701 -1.5668848214085298 0.36450259665751356
v 1.3275562495095539 -1.6000000000000001 0.35913343742643311
v 1.6291600153332246 -1.2736625496062428 0.37174025726060794
v 1.5572303539785133 -0.63073775481176186 0.29665832857795316
v -1.2026353195116346 -1.4618127227362483 -0.034214025653120338
v -1.2113792263330034 -1.4564795220427285 -0.03605893174567764
v -1.2263828264868408 -1.4443450790855299 -0.039522916064473147
v 0.46047545032354392 -1.3550629073604541 0.20457760828457699
v 0.4554309743099656 -1.3492005266516818 0.20323469881166301
v -1.275835252438809 -1.3999999999999999 -0.051375287865821337
v 1.6521379565173444 -1.2119388620966873 0.36901457968727036
v 1.5313333756694743 -0.59999999999999987 0.28970000635042115
v -1.2804784842458408 -1.3958363118142012 -0.052488141455456008
v 0.43459599655052555 -1.3243398888594722 0.19762338836852603
v 0.45181552879928727 -1.3449988775689292 0.202272217076786
v 0.41430838678213949 -1.2999999999999998 0.19214625801732088
v 1.4682919187940322 -0.53388908522891121 0.27363269634199594
v 1.6716245904158247 -1.1340919745172324 0.3641528860140969
v 1.6610484275025557 -1.1841699121908138 0.3675742553444647
v 0.40780381053708042 -1.2921961894629197 0.19039019052685405
v -1.2877901352190564 -0.71954415282889295 -0.12121410499996918
v -1.2682459823901635 -0.69999999999999996 -0.12023689735852451
v 1.6775947900779158 -1.1000000000000001 0.36163921851168729
v 0.4317540176098365 1 -0.03523689735852454
v 1.6007423504851015 -0.69999999999999996 0.31011135257276518
v 1.6177416247999865 -0.72999469328379463 0.31566071304837745
v 1.6788231791809178 -1.092985459052114 0.36112202278234901
v 0.5 1.0682459823901636 -0.031824598239016358
v -1.1000000000000001 -1.5117723222105588 -0.013822767778944098
v 1.6752807880557608 -0.9070775257314464 0.34199987078150873
v 1.6289730584934825 -0.7551588108592282 0.31986183985994515
v -1.1300870488758867 -1.5006218610438857 -0.019450871226994376
v -1.1312495313549369 -1.5 -0.019687429703240476
v 0.58974156282789558 -1.5 0.23846123442418435
v 1.6456705904296289 -0.79999999999999982 0.32685058856444427
v 1.6514401495236777 -0.81549413958808104 0.32926543638735972
v 0.57365652968096426 -1.4852603471128221 0.23457451416342684
v -1.1682459823901632 -0.59999999999999976 -0.11523689735852451
v 1.6733723173408188 -0.89892281356889692 0.34089812895801241
v 0.53765667356986946 -1.4447581924645574 0.22512432028193616
v -1.1000000000000001 -0.53175401760983665 -0.11182459823901635
v -0.59773337299168372 0.85226834536316642 -0.17488684048506919
v -0.59999999999999987 0.85271747053749325 -0.17527174705374932
v -0.6070846115224946 0.85412126453333093 -0.17647481818170729
v -1.0824150333770055 -1.518289428233679 -0.010533312183182902
v -1.0400260851231935 -1.530164565387869 -0.0029874562296920717
v 0.65408223565573365 -1.5550017263536404 0.25361250798372414
v -1.0682459823901636 -0.5 -0.11023689735852453
v 0.96485326069945621 -0.10637412650359487 0.15536540175527791
v 0.9571529784535725 -0.099999999999999853 0.15357294676803585
v 0.90158172555252691 -0.053999323058074769 0.1406371911386865
v 0.64210635397368498 -1.5470233578298911 0.25101828887904187
v 0.63014391125984937 -1.5370230254593804 0.24822388923491548
v -1.0617905661277121 -0.49354458373754856 -0.10991412654540195
v -0.54386713245714435 0.84159491538035835 -0.16573956140660751
v -0.52391508334902592 0.8359503020912189 -0.16218229271147577
v -0.9406803882849174 -1.5434025589915594 0.013238197656418347
v -0.80471393393116375 0.5576772809203272 -0.17647481818170729
v -0.80772358987272952 0.57442460261909123 -0.17860099874281854
v -0.94627808163592975 -1.5432114882829402 0.012379436582904598
v -0.80125058783257452 0.54646788505173682 -0.17483437668005988
v 1.4289605878714078 0.61963476481658997 0.15238061169905215
v 1.473329553241967 0.67421441074678568 0.15357799191161647
v 0.80000000000000027 -1.6328662080732956 0.28328662080732958
v 1.4896341025962687 0.69738948254445277 0.15370616713499502
v 0.72805470950799922 -1.6000000000000001 0.26920820642619991
v 0.76533194491192236 -1.6180505970427312 0.27660485144106151
v -0.79999999999999982 -1.5222660155038956 0.032226601550389603
v -0.83184421839056133 -1.5325937614788967 0.028482743389305502
v 0.72025832790712052 -1.5962247913198517 0.26766122831805328
v -0.57103941212859222 -1.3803652351834099 0.052380611699052157
v -0.59182916311086375 -1.3999999999999997 0.051225625533370407
v -0.59999999999999998 -1.4077169015064062 0.050771690150640633
v -0.63674855347039416 -1.4424238686728899 0.048730103846729864
v 0.90000000000000036 0.090674176945182539 0.12593258230548179
v 0.81907877780311034 0.0097529547482926183 0.12188652119563728
v 1 0.19067417694518218 0.13093258230548177
v 1.169890996376119 0.36056517332130117 0.13942713212428773
v -0.88941000371886414 -1.5387089969964836 0.020459399141818789
v -0.8364873069517359 -1.5335308618270407 0.027879990139943703
v 0.7122098647809435 1.2804558471711069 -0.021214104999969185
v -0.69999999999999984 -1.4808068524976838 0.043080685249768394
v -0.67824852398653301 -1.4686788569376861 0.045130607095788651
v -0.73296263787810789 -1.4991858685048733 0.039974191168771184
v -0.89016332763471129 -0.32191734524454779 -0.10133276462075191
v -0.86824598239016337 -0.29999999999999982 -0.10023689735852451
v 0.74462170740929712 1.3120569719901654 -0.019512441087621971
v 0.80000000000000038 1.3558644986489399 -0.015586449864893954
v 0.77836751377786206 1.341575931644442 -0.017402466097764909
v -0.79999999999999982 -0.23175401760983635 -0.096824598239016346
v 1.2093258230548183 0.40000000000000036 0.14139887345822269
v 1.3093258230548179 0.5 0.14639887345822267
v 1.4000000000000004 0.59067417694518254 0.15093258230548176
v 0.90000000000000047 -1.6620565498371682 0.30120565498371688
v 0.8953880013097455 -1.6614113045134267 0.30044933064780449
v 0.87441667932314715 -1.6563941682630245 0.29680191872477452
v 0.85086515698258514 -1.6491348430174151 0.29254325784912927
v -0.24172768114765555 -1.0510535042024733 0.068846198248098997
v -0.22638782097917634 -1.035713644033994 0.069613191256522974
v -0.80780064079846936 0.57485335483050959 -0.17865543160282138
v -0.79999999999999982 0.54242025779049319 -0.17424202577904929
v 0.8049560062242096 -1.6349841884531118 0.28424181977894264
v 0.87022831351577745 -0.029771686484222838 0.13351141567578889
v 0.90000000000000047 -0.052777080585667858 0.14027770805856682
v -0.82480466444045719 0.66947275971757203 -0.19066797563782578
v -0.82215653703101543 0.65473717449244961 -0.18879719800389727
v 0.85699234079824316 -0.019543889384309978 0.13050324005816746
v 0.84396648755501169 -0.0094784573327219047 0.12754281886652394
v 0.86620169347729625 -0.026660207363578232 0.13259627475795224
v 0.83170024865384207 0 0.1247550372980763
v -0.29067417694518233 -1.1000000000000001 0.066398873458222665
v -0.29999999999999982 -1.1093258230548178 0.065932582305481796
v -0.49067417694518206 -1.2999999999999998 0.056398873458222677
v -0.5 -1.3093258230548179 0.05593258230548178
v -0.82581515310397247 0.67509565451000497 -0.19138183841659637
v -0.82247690100201143 0.69124749340078007 -0.19249628449037973
v -0.82276507681563282 0.68985318009798979 -0.19240007953214391
v -0.8241338934519683 0.68323028131568553 -0.19194311214936383
v 0.857466474913961 1.3928924421428266 -0.010669272977188525
v 0.87523268378196706 1.4000000000000006 -0.0087150974327049966
v 0.84630213666206855 1.3864477231268699 -0.011699451813376706
v -0.73486018158712996 -1.5 0.03977097276193052
v -0.7457441243658679 -1.5046697003948817 0.038605351384608029
v 0.90000000000000036 1.4099084241491502 -0.0059908424149149727
v -0.80296643925219502 0.78564714484787435 -0.19900968037261668
v -0.80190829333917024 0.79076689068734118 -0.19936293306960967
v -0.79999999999999993 0.79999999999999949 -0.19999999999999993
v -0.099999999999999867 -0.90932582305481768 0.075932582305481791
v 0.0093258230548179874 -0.79999999999999982 0.081398873458222679
v -0 -0.80932582305481782 0.080932582305481782
v 0.010462453362717273 -0.79886336969210059 0.081455704973617662
v -0.19999999999999996 -1.0093258230548177 0.070932582305481773
v 0.99773076751397305 -1.6753603206712657 0.31719564719422255
v 0.97799490389571186 -1.6729684885419023 0.31399608443854704
v 0.93328647899714023 -1.6667135210028596 0.30666432394985704
v 1 -1.6754222551618543 0.31754222551618549
v 0.096030128570955775 -0.90819984356929429 0.1052245036425728
v 0.15585136921304232 -0.98463809550084935 0.12184151493204129
v 1 -0.13546783441414575 0.16354678344141454
v -0.76824598239016351 -0.19999999999999996 -0.095236897358524517
v -0.64555588843355605 -1.4493201546181489 0.048098632196781475
v -0.69999999999999996 -0.13175401760983646 -0.091824598239016342
v 0.9712141530466758 -0.11163953512138951 0.15684607646914031
v 0.01135199012542106 -0.79999999999999971 0.081702798518813138
v -0.69999999999999984 0.2825785015805572 -0.13325785015805569
v -0.70698449570370292 0.29593156301091328 -0.13564083065664678
v 0.16717095939473881 -0.99910201628857254 0.12498584553806807
v -0.73648600779661788 0.36211973186192703 -0.14668487435568536
v -0.73682716707632079 0.36303472806319098 -0.14682754786776722
v -0.72377934686604728 0.32804020603943895 -0.14137092263385098
v -0.75060978773700582 0.40000000000000036 -0.15259146816055089
v 0.94593031438197084 1.4279658639835382 -0.00090703924105820833
v 0.96269874511451869 1.4309494146115764 0.0013098703060201444
v 0.94155222640143699 1.4265318273432013 -0.0014203487741045896
v 1 1.4369560245131761 0.0063043975486823762
v -0.092987126409344562 0.64706116833381211 -0.07865418579478288
v -0 0.59126968175581474 -0.059126968175581475
v 0.014389888441201556 0.58263587083136503 -0.056105103816956277
v -0.78689349220580862 0.5 -0.16803402383087132
v -0.78204935879571558 0.48432157587250163 -0.16573956140660751
v -0.76403341040738515 0.43600243194700511 -0.15820525475580829
v -0.78065996428415452 0.4805951912311634 -0.16515851376573951
v -0.15052948489697995 0.68158609501126022 -0.090738032235673005
v -0.099999999999999867 0.65126883296347116 -0.080126883296347096
v 1.0027412504347899 -1.6754970725066167 0.31796089481588019
v -0.70000000000000007 0.85586095087152403 -0.19058609508715241
v -0.69693763748806736 0.85580361321936638 -0.19012100694514675
v -0.70199509513368741 0.85589830571450909 -0.19088909484150404
v -0.79608613364981062 0.52975271719618311 -0.17238819176708994
v -0.69304073775176178 0.85573065024365658 -0.18952917568712996
v -0.70523955422879847 0.85595905282276608 -0.19138183841659639
v 1.0779582721913217 -0.19999999999999998 0.18169374082869827
v -0.62111593190805547 0.85438397770476093 -0.17860578755668441
v 1.050754381199998 -0.17748120951522242 0.17536127813152194
v -0.60936922766809731 0.85416404017643643 -0.17682178816785823
v -0.79999999999999982 0.79999999999999982 -0.19999999999999996
v -0.79999999999999971 0.79999999999999993 -0.19999999999999998
v -0.79999999999999971 0.79999999999999971 -0.19999999999999993
v -0.55501217309828665 0.84380327092472784 -0.16763215305721579
v -0.5540438700730691 0.84361140465674167 -0.16746772097663454
v 1.071206703173337 1.4451419195265154 0.016166813523348991
v 1.0445179495877759 1.4441247366011152 0.012265218778054849
v -0.71478422617353654 0.85032262090030364 -0.19224989601606085
v -0.70764428929464118 0.85453898039192133 -0.19160054143338834
v -0.78977410564502426 0.80603871539135352 -0.19906998738588899
v 1.1976778393870895 -0.29999999999999988 0.20965167590806341
v 1.1663622078150009 -0.27317885904535882 0.20227221707678603
v 1.2842112201186828 1.4000000000000004 0.052631683017802369
v 1.2848294373141187 1.3997746178701227 0.052746953810105503
v 1.218347682715337 1.4240117299402908 0.040350979413271468
v -0.66824598239016342 -0.099999999999999853 -0.090236897358524512
v 1.1851548391294526 -0.28927432920163554 0.20670065878958147
v 1.1793866538647355 -0.28433400699605216 0.20534139877931554
v 1.185250129785407 1.4330398885815421 0.034483530609656816
v -0.63897402565383377 -0.070728043263670271 -0.088773299521708052
v -0.59999999999999987 -0.031754017609836378 -0.086824598239016337
v -0.59999999999999987 0.091397033414192794 -0.099139703341419277
v -0.55549768193834592 0.012748300451817577 -0.084599482335933646
v -0.575374772988404 0.04431816287412383 -0.090738032235672977
v -0.60701832832532199 0.10481477654727922 -0.1015342269035262
v -0.62146072015292864 0.13242595328163681 -0.10646170335110297
v -0.63729734837512308 0.16270265162487699 -0.11186486741875618
v -0.6568062206172105 0.20000000000000018 -0.11852093309258159
v -0.6512946542195448 0.18946290644197877 -0.1166404887771296
v 1.1314933584484514 1.4410831838036713 0.025615685386900584
v 1.2077523170230962 -0.30862856570839664 0.21202570412430408
v 1.2202348792570938 -0.31931960224018202 0.21496719211258228
v 1.2253137739597744 -0.32366956243181322 0.21616402233714749
v -0.17380061454072879 0.6925880429762753 -0.095328896478736838
v -0.56824598239016355 -0 -0.085236897358524522
v 1.3048255074661741 1.3894185783813096 0.056781968281795173
v -0.19999999999999998 0.7049743894902144 -0.10049743894902144
v -0.21914630528059489 0.71402623431442913 -0.10427456922353213
v 1.372553859023774 1.3454659958445976 0.071336479269106357
v -0.29999999999999982 0.75225163014608609 -0.12022516301460859
v -0.31240105854091205 0.75811450843634864 -0.12267160962477167
v -0.38086724487270857 0.79048343211632965 -0.13617842994253926
v -0.52069055754146498 0.83503805487661442 -0.1616073891188812
v -0.5 0.82918451094108259 -0.15791845109410826
v -0.40718803420476063 0.80292717503136901 -0.14137092263385098
v 1.4000000000000004 -1.557173476472026 0.36571734764720265
v 1.4000000000000001 -0.47438734800109755 0.25743873480010981
v 1.4904426837283729 1.2179582881415714 0.10177057374509878
v 1.4956764994441905 1.2097121897407219 0.10338025594255634
v 1.3255156696458295 -0.40949025430996433 0.23977637587787087
v -0.4906121088017506 0.82652859248742017 -0.15624467556900459
v 1.4000000000000001 1.322108116061562 0.077789188393843842
v 1.4061526726937204 1.3168719194957585 0.079235708954482148
v 1.445976530790434 1.2756286542132522 0.089333614197239869
v 1.467126407498238 -0.53287359250176225 0.27335632037491187
v 1.429396404742133 -0.5 0.26440946071131999
v 1.5986999935897683 -1.3357939927950935 0.3733843983179746
f 70 71 45
f 45 71 46
f 72 73 47
f 47 73 48
f 89 90 64
f 64 90 65
f 91 92 66
f 66 92 67
f 158 159 135
f 135 159 136
f 159 160 136
f 136 160 137
f 160 161 137
f 138 162 139
f 143 167 144
f 170 171 147
f 148 172 149
f 158 180 159
f 180 181 159
f 159 181 160
f 187 188 166
f 195 196 181
f 181 196 182
f 197 198 183
f 183 198 184
f 199 200 187
f 187 200 188
f 189 202 190
f 204 205 193
f 193 205 194
f 195 211 196
f 211 212 196
f 213 214 197
f 197 214 198
f 217 218 199
f 199 218 200
f 219 220 201
f 221 222 203
f 223 224 204
f 204 224 205
f 211 225 212
f 226 227 213
f 213 227 214
f 251 252 234
f 234 252 235
f 253 254 236
f 255 256 239
f 239 256 240
f 257 258 241
f 241 258 242
f 259 260 243
f 243 260 244
f 274 275 261
f 261 275 262
f 281 282 268
f 268 282 269
f 283 284 270
f 270 284 271
f 274 287 275
f 287 288 275
f 275 288 276
f 291 292 287
f 287 292 288
f 293 294 289
f 305 306 291
f 291 306 292
f 307 308 293
f 293 308 294
f 313 314 298
f 298 314 299
f 315 316 300
f 300 316 301
f 343 344 328
f 328 344 329
f 363 364 350
f 350 364 351
f 365 366 352
f 352 366 353
f 370 371 360
f 360 371 361
f 370 372 371
f 387 388 379
f 379 388 380
f 413 414 398
f 398 414 399
f 416 417 400
f 400 417 401
f 420 421 404
f 404 421 405
f 416 426 417
f 417 427 418
f 428 429 427
f 456 457 431
f 431 457 432
f 458 459 433
f 433 459 434
f 460 461 435
f 462 463 436
f 436 463 437
f 463 464 437
f 437 464 438
f 465 466 439
f 439 466 440
f 902 906 356
f 356 906 862
f 878 910 357
f 927 934 211
f 989 990 382
f 381 1021 980
f 976 1026 233
f 1028 1077 251
f 1082 1096 267
f 405 979 978
f 415 1117 1116
f 1015 1030 1017
f 502 508 490
f 508 515 490
f 506 512 510
f 488 501 498
f 487 522 519
f 519 526 487
f 526 535 487
f 495 527 525
f 513 515 493
f 511 512 507
f 509 511 500
f 502 521 518
f 490 521 502
f 490 527 521
f 497 538 536
f 503 527 490
f 525 527 503
f 486 525 503
f 503 513 486
f 503 515 513
f 490 515 503
f 560 584 545
f 545 561 560
f 514 516 506
f 508 516 515
f 515 516 493
f 554 591 590
f 566 578 575
f 575 586 582
f 549 578 576
f 575 578 549
f 549 586 575
f 502 518 485
f 485 518 498
f 581 584 560
f 557 583 581
f 555 558 541
f 541 560 555
f 557 581 541
f 541 581 560
f 558 564 562
f 562 564 546
f 558 562 541
f 541 562 557
f 492 512 511
f 492 517 510
f 510 512 492
f 492 511 509
f 489 511 507
f 500 511 489
f 518 521 494
f 525 533 495
f 507 512 491
f 491 516 508
f 491 512 506
f 506 516 491
f 559 574 540
f 540 574 554
f 574 576 554
f 549 576 574
f 582 586 550
f 550 586 584
f 550 584 581
f 581 583 550
f 499 501 489
f 498 501 499
f 498 499 485
f 489 507 499
f 519 528 526
f 494 528 519
f 521 528 494
f 526 528 495
f 495 528 527
f 527 528 521
f 536 538 531
f 530 533 525
f 504 530 486
f 486 530 525
f 495 537 526
f 533 537 495
f 526 537 535
f 533 538 537
f 535 537 497
f 537 538 497
f 505 507 491
f 499 507 505
f 499 505 485
f 491 508 505
f 505 508 502
f 485 505 502
f 548 580 570
f 577 586 549
f 574 577 549
f 584 586 577
f 559 577 574
f 545 577 559
f 545 584 577
f 544 583 557
f 522 524 519
f 519 524 494
f 531 538 496
f 496 538 533
f 530 532 496
f 496 533 530
f 572 573 566
f 566 575 542
f 575 582 542
f 542 582 570
f 542 572 566
f 582 585 570
f 570 585 548
f 550 585 582
f 583 585 550
f 543 591 554
f 554 576 543
f 589 592 591
f 589 591 543
f 553 589 543
f 576 578 568
f 543 576 568
f 543 568 553
f 562 563 557
f 557 563 544
f 546 563 562
f 494 520 518
f 494 524 520
f 518 520 498
f 520 524 523
f 498 520 488
f 520 523 488
f 496 534 531
f 531 534 529
f 532 534 496
f 570 580 579
f 570 579 542
f 542 579 572
f 571 583 544
f 548 585 571
f 571 585 583
f 551 592 589
f 588 592 551
f 547 573 567
f 568 578 547
f 566 573 547
f 547 578 566
f 548 571 569
f 556 571 544
f 569 571 556
f 551 589 587
f 539 587 553
f 587 589 553
f 547 567 565
f 539 565 552
f 565 567 552
f 565 568 547
f 553 565 539
f 553 568 565
f 628 713 595
f 713 716 708
f 595 713 708
f 710 717 623
f 628 639 602
f 626 629 595
f 595 708 626
f 635 642 640
f 605 642 635
f 706 707 703
f 610 703 650
f 610 706 703
f 618 686 684
f 602 715 628
f 628 715 713
f 714 717 710
f 639 641 633
f 633 641 604
f 631 633 604
f 602 639 633
f 637 639 628
f 629 640 637
f 595 637 628
f 629 637 595
f 640 642 606
f 606 641 639
f 637 640 606
f 606 639 637
f 708 716 622
f 716 721 622
f 638 641 606
f 606 642 638
f 634 642 605
f 638 642 634
f 596 638 634
f 623 720 710
f 600 695 669
f 679 682 660
f 650 703 701
f 599 705 651
f 651 672 599
f 651 706 610
f 705 706 651
f 651 674 672
f 610 674 651
f 690 694 683
f 609 692 647
f 695 698 669
f 668 684 597
f 624 716 713
f 713 715 624
f 624 722 716
f 715 717 624
f 714 722 624
f 624 717 714
f 627 633 631
f 602 633 627
f 632 638 596
f 596 663 632
f 604 641 632
f 632 641 638
f 632 665 604
f 663 665 632
f 652 663 596
f 605 636 634
f 625 720 719
f 643 712 709
f 719 720 712
f 607 719 712
f 607 712 643
f 709 712 623
f 712 720 623
f 664 673 600
f 664 677 673
f 614 667 665
f 614 665 663
f 614 677 664
f 664 667 614
f 660 662 650
f 662 676 674
f 650 662 610
f 662 674 610
f 674 676 616
f 616 677 675
f 673 677 616
f 616 676 673
f 616 675 672
f 672 674 616
f 661 695 600
f 600 673 661
f 673 676 661
f 703 707 621
f 701 703 621
f 594 660 650
f 594 679 660
f 650 701 594
f 672 675 653
f 599 672 653
f 653 675 611
f 611 655 653
f 599 653 648
f 653 655 648
f 692 694 619
f 619 694 690
f 601 683 678
f 680 690 601
f 601 690 683
f 678 685 601
f 668 687 684
f 684 687 618
f 711 715 602
f 627 711 602
f 709 711 627
f 711 717 715
f 623 717 711
f 623 711 709
f 611 675 666
f 611 666 652
f 675 677 666
f 652 666 663
f 666 677 614
f 663 666 614
f 596 634 630
f 630 652 596
f 634 636 630
f 630 636 603
f 718 719 644
f 644 719 607
f 597 718 644
f 644 668 597
f 643 709 593
f 627 631 593
f 593 709 627
f 593 656 643
f 631 656 593
f 631 658 656
f 665 667 658
f 604 665 658
f 604 658 631
f 682 699 697
f 661 697 695
f 696 699 680
f 685 696 601
f 601 696 680
f 689 692 619
f 647 692 689
f 647 689 598
f 680 699 617
f 617 682 679
f 617 699 682
f 618 700 685
f 687 700 618
f 698 700 687
f 685 700 696
f 678 688 685
f 685 688 618
f 630 654 652
f 603 654 630
f 649 654 603
f 652 654 611
f 654 655 611
f 649 655 654
f 644 670 668
f 607 670 644
f 658 667 612
f 656 658 612
f 660 682 613
f 682 697 613
f 613 697 661
f 661 676 613
f 613 676 662
f 613 662 660
f 598 689 646
f 620 699 696
f 696 700 620
f 697 699 620
f 620 700 698
f 620 698 695
f 695 697 620
f 615 687 668
f 668 670 615
f 615 698 687
f 670 671 615
f 669 698 615
f 615 671 669
f 643 659 607
f 659 670 607
f 659 671 670
f 656 659 643
f 612 659 656
f 612 671 659
f 657 667 664
f 612 667 657
f 657 664 600
f 600 669 657
f 669 671 657
f 657 671 612
f 645 679 594
f 594 701 645
f 619 691 689
f 689 691 646
f 701 702 645
f 621 702 701
f 646 691 608
f 645 702 608
f 619 693 691
f 690 693 619
f 680 693 690
f 617 693 680
f 608 704 646
f 702 704 608
f 679 681 617
f 681 693 617
f 645 681 679
f 691 693 681
f 608 681 645
f 608 691 681
f 716 722 721
f 755 756 514
f 618 773 770
f 694 776 746
f 530 782 779
f 560 788 754
f 804 805 516
f 625 809 808
f 723 724 517
f 517 726 723
f 534 729 529
f 728 729 534
f 727 728 534
f 588 731 730
f 588 732 731
f 733 734 592
f 730 733 592
f 588 730 592
f 534 735 727
f 534 736 735
f 740 741 486
f 513 740 486
f 540 738 737
f 540 739 738
f 540 745 559
f 744 745 540
f 737 744 540
f 513 742 740
f 513 743 742
f 746 747 683
f 694 746 683
f 747 748 683
f 723 726 722
f 748 749 678
f 683 748 678
f 749 750 678
f 751 752 678
f 750 751 678
f 560 753 555
f 560 754 753
f 684 745 744
f 684 761 745
f 514 763 755
f 506 762 514
f 762 763 514
f 555 752 751
f 555 753 752
f 686 761 684
f 686 766 761
f 506 768 767
f 510 768 506
f 506 767 762
f 555 750 749
f 555 751 750
f 686 770 766
f 618 770 686
f 555 747 558
f 555 748 747
f 555 749 748
f 510 771 768
f 510 772 771
f 558 725 564
f 558 776 725
f 746 776 558
f 558 747 746
f 724 777 510
f 517 724 510
f 510 777 772
f 725 776 694
f 590 764 759
f 591 764 590
f 759 760 590
f 530 779 778
f 778 780 530
f 591 765 764
f 591 769 765
f 591 774 769
f 530 780 532
f 780 781 532
f 504 782 530
f 504 783 782
f 504 784 783
f 758 785 554
f 757 758 554
f 710 771 714
f 768 771 710
f 767 768 710
f 590 757 554
f 590 760 757
f 772 777 714
f 771 772 714
f 714 724 723
f 714 723 722
f 714 777 724
f 688 788 787
f 678 752 688
f 754 788 688
f 753 754 688
f 752 753 688
f 688 790 789
f 787 790 688
f 618 792 773
f 688 792 618
f 688 793 792
f 688 795 793
f 789 795 688
f 762 767 720
f 720 767 710
f 720 763 762
f 755 763 720
f 720 756 755
f 720 797 756
f 718 800 719
f 718 801 800
f 761 766 559
f 745 761 559
f 766 770 559
f 770 773 559
f 773 792 559
f 559 792 545
f 513 802 743
f 801 802 513
f 800 801 513
f 513 803 800
f 493 803 513
f 718 802 801
f 514 804 516
f 797 804 514
f 756 797 514
f 787 788 561
f 561 788 560
f 561 790 787
f 597 744 737
f 684 744 597
f 737 738 597
f 807 808 493
f 516 807 493
f 808 809 493
f 493 809 803
f 793 795 545
f 792 793 545
f 738 739 597
f 545 789 561
f 789 790 561
f 545 795 789
f 516 810 807
f 805 810 516
f 597 802 718
f 743 802 597
f 742 743 597
f 554 785 540
f 540 806 739
f 785 806 540
f 486 741 504
f 741 784 504
f 740 742 597
f 597 741 740
f 729 786 529
f 719 800 625
f 800 803 625
f 803 809 625
f 625 804 797
f 625 805 804
f 625 797 720
f 625 810 805
f 807 810 625
f 625 808 807
f 591 775 774
f 591 794 775
f 591 796 794
f 812 814 532
f 532 814 534
f 811 812 532
f 798 811 532
f 532 799 798
f 781 799 532
f 734 791 591
f 592 734 591
f 791 796 591
f 534 814 813
f 534 813 736
f 815 816 605
f 649 820 819
f 841 842 598
f 900 901 622
f 854 855 522
f 949 951 546
f 984 985 517
f 965 966 500
f 721 850 849
f 1024 1033 721
f 536 875 874
f 523 893 892
f 523 892 891
f 692 1029 935
f 692 995 993
f 834 835 721
f 580 1110 1109
f 622 895 894
f 864 865 569
f 556 852 851
f 1069 1071 806
f 1067 1068 552
f 635 1020 1019
f 707 913 847
f 609 1079 1073
f 1078 1079 609
f 609 1094 1093
f 609 1093 1092
f 2 1 26
f 2 26 27
f 315 314 329
f 315 329 330
f 315 330 331
f 316 315 331
f 317 316 331
f 317 331 332
f 482 484 483
f 482 483 481
f 317 332 333
f 318 317 333
f 655 649 819
f 826 655 819
f 831 830 636
f 2 27 28
f 3 2 28
f 320 319 334
f 320 334 335
f 605 831 636
f 816 831 605
f 4 3 28
f 4 28 29
f 321 320 335
f 321 335 336
f 621 707 847
f 848 621 847
f 5 4 29
f 5 29 30
f 321 336 337
f 322 321 337
f 848 856 621
f 6 5 30
f 6 30 31
f 323 322 337
f 323 337 338
f 599 858 859
f 648 858 599
f 863 858 648
f 7 6 31
f 7 31 32
f 324 323 338
f 324 338 339
f 867 866 648
f 863 648 866
f 8 7 32
f 8 32 33
f 324 339 340
f 325 324 340
f 648 655 867
f 826 867 655
f 9 8 33
f 9 33 34
f 326 325 340
f 326 340 341
f 872 873 603
f 35 9 34
f 10 9 35
f 830 603 636
f 872 603 830
f 327 326 341
f 327 341 342
f 11 10 35
f 11 35 36
f 649 603 888
f 873 888 603
f 887 649 888
f 1014 327 342
f 1016 1014 342
f 12 11 36
f 12 36 37
f 842 890 598
f 13 12 37
f 13 37 38
f 343 1050 1042
f 343 1042 1043
f 328 1050 343
f 598 898 647
f 898 818 647
f 890 898 598
f 14 13 38
f 14 38 39
f 330 329 344
f 330 344 345
f 647 817 903
f 818 817 647
f 14 39 40
f 15 14 40
f 331 330 345
f 331 345 346
f 598 646 841
f 911 841 646
f 912 911 646
f 16 15 40
f 16 40 41
f 347 331 346
f 332 331 347
f 621 856 702
f 702 856 916
f 17 16 41
f 17 41 42
f 333 332 347
f 333 347 348
f 646 704 917
f 912 646 917
f 18 17 42
f 18 42 43
f 921 917 704
f 922 921 704
f 349 350 335
f 349 335 334
f 925 922 704
f 19 18 43
f 19 43 44
f 350 351 336
f 350 336 335
f 704 702 925
f 916 925 702
f 45 19 44
f 20 19 45
f 351 352 337
f 351 337 336
f 765 929 930
f 928 929 765
f 769 928 765
f 21 20 45
f 21 45 46
f 353 338 337
f 352 353 337
f 22 21 46
f 22 46 47
f 353 354 339
f 353 339 338
f 936 937 692
f 935 936 692
f 23 22 47
f 23 47 48
f 354 355 340
f 354 340 339
f 775 794 942
f 941 775 942
f 24 23 48
f 24 48 49
f 945 944 799
f 798 799 944
f 355 356 341
f 355 341 340
f 25 24 49
f 25 49 50
f 944 947 798
f 811 798 947
f 26 51 52
f 27 26 52
f 564 949 546
f 948 949 564
f 838 342 341
f 838 341 834
f 835 834 341
f 356 862 835
f 356 835 341
f 28 27 52
f 28 52 53
f 959 958 517
f 957 517 958
f 960 959 517
f 29 28 53
f 29 53 54
f 30 29 54
f 30 54 55
f 963 964 725
f 961 963 725
f 962 961 725
f 31 30 55
f 31 55 56
f 509 968 969
f 970 968 509
f 32 31 56
f 32 56 57
f 1016 342 1023
f 1030 1016 1023
f 1015 1016 1030
f 1024 1023 342
f 1033 1024 342
f 850 1033 342
f 849 850 342
f 838 849 342
f 932 946 501
f 33 32 57
f 33 57 58
f 59 33 58
f 34 33 59
f 824 869 343
f 1043 1044 824
f 1043 824 343
f 564 725 964
f 977 564 964
f 978 564 977
f 979 564 978
f 948 564 979
f 35 34 59
f 35 59 60
f 501 931 932
f 488 931 501
f 35 60 61
f 36 35 61
f 869 877 357
f 869 357 344
f 869 344 343
f 878 357 877
f 37 36 61
f 37 61 62
f 860 853 487
f 522 487 853
f 854 522 853
f 357 358 345
f 357 345 344
f 37 62 63
f 38 37 63
f 821 823 487
f 823 860 487
f 359 346 345
f 358 359 345
f 39 38 63
f 39 63 64
f 359 360 347
f 359 347 346
f 40 39 64
f 40 64 65
f 361 348 347
f 360 361 347
f 40 65 66
f 41 40 66
f 984 517 997
f 998 997 517
f 999 998 517
f 1000 999 517
f 957 1000 517
f 487 535 821
f 822 821 535
f 350 349 362
f 350 362 363
f 42 41 66
f 42 66 67
f 973 967 588
f 351 364 365
f 352 351 365
f 43 42 67
f 43 67 68
f 970 509 1008
f 1009 1008 509
f 44 43 68
f 44 68 69
f 354 353 366
f 354 366 367
f 500 954 509
f 509 954 1009
f 955 954 500
f 45 44 69
f 45 69 70
f 358 357 914
f 358 914 368
f 910 914 357
f 47 46 71
f 47 71 72
f 359 358 368
f 359 368 369
f 49 48 73
f 49 73 74
f 370 359 369
f 360 359 370
f 726 517 1018
f 985 1018 517
f 1014 726 1018
f 1016 726 1014
f 1015 726 1016
f 1017 726 1015
f 50 49 74
f 50 74 75
f 966 955 500
f 379 363 362
f 378 379 362
f 1023 1024 722
f 721 722 1024
f 52 51 76
f 52 76 77
f 379 380 364
f 379 364 363
f 517 492 960
f 1027 960 492
f 53 52 77
f 53 77 78
f 373 365 364
f 380 381 373
f 380 373 364
f 54 53 78
f 54 78 79
f 722 726 1023
f 1030 1023 726
f 1017 1030 726
f 969 1027 492
f 509 969 492
f 952 366 365
f 373 953 952
f 373 952 365
f 950 953 373
f 55 54 79
f 55 79 80
f 1033 850 721
f 56 55 80
f 56 80 81
f 489 501 946
f 943 489 946
f 57 56 81
f 57 81 82
f 943 965 489
f 500 489 965
f 973 975 374
f 973 374 368
f 974 374 975
f 967 973 368
f 914 967 368
f 58 57 82
f 58 82 83
f 374 375 369
f 374 369 368
f 1043 1042 732
f 1044 1043 732
f 59 58 83
f 59 83 84
f 855 845 522
f 375 376 370
f 375 370 369
f 60 59 84
f 60 84 85
f 731 732 1042
f 1050 731 1042
f 1049 731 1050
f 376 377 372
f 376 372 370
f 61 60 85
f 61 85 86
f 488 915 931
f 918 915 488
f 1006 383 375
f 1006 375 374
f 1010 383 1006
f 61 86 87
f 62 61 87
f 63 62 87
f 63 87 88
f 376 375 383
f 376 383 384
f 757 760 1054
f 760 1052 1054
f 1053 1052 760
f 64 63 88
f 64 88 89
f 377 376 384
f 377 384 385
f 760 759 1056
f 1053 760 1056
f 66 65 90
f 66 90 91
f 758 757 1057
f 1054 1057 757
f 379 378 386
f 379 386 387
f 1059 1056 759
f 68 67 92
f 68 92 93
f 380 388 389
f 381 380 389
f 764 765 930
f 1061 764 930
f 68 93 94
f 69 68 94
f 759 764 1059
f 1061 1059 764
f 961 382 391
f 963 961 391
f 70 69 94
f 70 94 95
f 1065 928 769
f 384 383 392
f 384 392 393
f 70 95 96
f 71 70 96
f 891 919 488
f 918 488 919
f 891 488 523
f 385 384 393
f 385 393 394
f 72 71 96
f 72 96 97
f 774 775 941
f 1066 774 941
f 395 396 387
f 395 387 386
f 769 774 1065
f 1066 1065 774
f 73 72 97
f 73 97 98
f 74 73 98
f 74 98 99
f 396 397 388
f 396 388 387
f 497 839 840
f 536 839 497
f 868 839 536
f 75 74 99
f 75 99 100
f 874 868 536
f 397 398 389
f 397 389 388
f 77 76 101
f 77 101 102
f 402 403 391
f 402 391 390
f 692 609 1060
f 1025 692 1060
f 1029 692 1025
f 78 77 102
f 78 102 103
f 876 875 531
f 536 531 875
f 882 876 531
f 79 78 103
f 79 103 104
f 403 964 963
f 403 404 964
f 964 404 977
f 403 963 391
f 609 1058 1060
f 1073 1058 609
f 80 79 104
f 80 104 105
f 407 408 393
f 407 393 392
f 1074 1076 573
f 1075 1074 573
f 81 80 105
f 81 105 106
f 694 993 994
f 692 993 694
f 408 409 394
f 408 394 393
f 82 81 106
f 82 106 107
f 83 82 107
f 83 107 108
f 725 694 994
f 996 725 994
f 962 725 996
f 402 390 1060
f 1025 1060 390
f 402 1060 1058
f 401 402 1058
f 84 83 108
f 84 108 109
f 1076 1080 567
f 1076 567 573
f 85 84 109
f 85 109 110
f 827 546 828
f 951 828 546
f 85 110 111
f 86 85 111
f 1079 1078 401
f 1073 1079 401
f 1072 401 1078
f 1058 1073 401
f 400 401 1072
f 692 989 995
f 990 989 692
f 937 990 692
f 87 86 111
f 87 111 112
f 88 87 112
f 88 112 113
f 899 896 524
f 893 523 524
f 893 524 896
f 89 88 113
f 89 113 114
f 1085 1084 786
f 89 114 115
f 90 89 115
f 888 398 399
f 873 398 888
f 872 398 873
f 830 398 872
f 831 398 830
f 816 398 831
f 389 398 816
f 389 816 815
f 1051 389 815
f 1022 389 1051
f 524 522 845
f 846 524 845
f 899 524 846
f 91 90 115
f 91 115 116
f 840 833 497
f 978 404 405
f 977 404 978
f 92 91 116
f 92 116 117
f 832 535 833
f 497 833 535
f 118 92 117
f 93 92 118
f 94 93 118
f 94 118 119
f 862 721 835
f 906 721 862
f 902 721 906
f 900 721 902
f 622 721 900
f 120 94 119
f 95 94 120
f 1074 406 407
f 1076 1074 407
f 1080 1076 407
f 1091 1080 407
f 392 1067 1091
f 392 1068 1067
f 392 1091 407
f 1041 1068 392
f 832 825 535
f 825 822 535
f 96 95 120
f 96 120 121
f 531 529 883
f 882 531 883
f 396 395 410
f 396 410 411
f 97 96 121
f 97 121 122
f 907 884 529
f 883 529 884
f 397 396 411
f 397 411 412
f 98 97 122
f 98 122 123
f 580 548 870
f 871 870 548
f 398 397 412
f 398 412 413
f 99 98 123
f 99 123 124
f 100 99 124
f 100 124 125
f 838 834 721
f 849 838 721
f 730 731 1049
f 1095 730 1049
f 102 101 126
f 102 126 127
f 820 399 414
f 867 826 414
f 820 414 819
f 1107 399 820
f 826 819 414
f 866 867 414
f 1097 1075 573
f 572 1097 573
f 103 102 127
f 103 127 128
f 1108 416 400
f 415 416 1108
f 415 1108 1117
f 733 1098 1099
f 1095 1098 733
f 730 1095 733
f 104 103 128
f 104 128 129
f 401 417 418
f 402 401 418
f 1100 1097 572
f 105 104 129
f 105 129 130
f 403 402 418
f 403 418 419
f 733 1101 1102
f 1099 1101 733
f 106 105 130
f 106 130 131
f 1080 1091 567
f 420 403 419
f 404 403 420
f 107 106 131
f 107 131 132
f 1102 1103 734
f 733 1102 734
f 108 107 132
f 108 132 133
f 544 563 837
f 836 544 837
f 109 108 133
f 109 133 134
f 979 405 421
f 949 948 421
f 948 979 421
f 951 949 421
f 828 951 421
f 563 546 827
f 829 563 827
f 791 734 1103
f 1106 791 1103
f 407 406 422
f 407 422 423
f 135 109 134
f 110 109 135
f 829 837 563
f 111 110 135
f 111 135 136
f 408 407 423
f 408 423 424
f 112 111 136
f 112 136 137
f 409 408 424
f 409 424 425
f 879 880 622
f 622 880 926
f 885 879 622
f 894 885 622
f 113 112 137
f 113 137 161
f 430 431 411
f 430 411 410
f 870 881 580
f 580 881 1110
f 161 183 138
f 114 113 138
f 161 138 113
f 182 183 161
f 431 432 412
f 431 412 411
f 901 895 622
f 115 114 138
f 115 138 139
f 432 433 413
f 432 413 412
f 115 139 140
f 116 115 140
f 433 434 414
f 433 414 413
f 572 579 1114
f 1113 572 1114
f 1100 572 1113
f 117 116 140
f 117 140 141
f 1106 1112 791
f 579 580 1109
f 1115 579 1109
f 142 117 141
f 118 117 142
f 166 143 142
f 118 142 143
f 435 858 863
f 435 1118 859
f 866 414 863
f 435 436 1118
f 436 886 1118
f 435 859 858
f 434 435 863
f 434 863 414
f 119 118 143
f 119 143 144
f 1104 796 1105
f 1112 1105 796
f 791 1112 796
f 794 796 1104
f 942 794 1104
f 120 119 144
f 120 144 145
f 442 443 416
f 442 416 415
f 1115 1114 579
f 121 120 145
f 121 145 146
f 443 444 426
f 443 426 416
f 1087 1086 728
f 729 728 1086
f 417 426 427
f 428 427 426
f 122 121 146
f 122 146 147
f 1091 552 567
f 1067 552 1091
f 419 418 427
f 419 427 429
f 123 122 147
f 123 147 171
f 551 974 975
f 1007 974 551
f 171 193 148
f 124 123 148
f 171 148 123
f 192 193 171
f 429 447 420
f 429 420 419
f 446 447 429
f 1083 1085 729
f 786 729 1085
f 1086 1083 729
f 125 124 148
f 125 148 149
f 448 421 420
f 447 448 420
f 588 551 973
f 975 973 551
f 127 126 150
f 127 150 151
f 1090 1088 728
f 1087 728 1088
f 128 127 151
f 128 151 152
f 548 569 865
f 871 548 865
f 129 128 152
f 129 152 153
f 448 449 829
f 449 837 829
f 449 836 837
f 828 421 827
f 448 829 827
f 449 843 836
f 448 827 421
f 844 843 449
f 1036 1032 735
f 727 735 1032
f 130 129 153
f 130 153 154
f 861 864 569
f 131 130 154
f 131 154 155
f 131 155 156
f 132 131 156
f 1089 1090 727
f 728 727 1090
f 1031 1089 727
f 1032 1031 727
f 870 451 422
f 870 422 881
f 450 864 861
f 450 865 864
f 450 871 865
f 450 451 871
f 870 871 451
f 450 861 857
f 133 132 156
f 133 156 157
f 836 843 544
f 556 544 843
f 451 452 423
f 451 423 422
f 991 992 780
f 781 780 992
f 452 453 424
f 452 424 423
f 823 821 133
f 823 133 157
f 134 133 821
f 134 821 822
f 825 134 822
f 569 556 857
f 861 569 857
f 851 857 556
f 453 454 425
f 453 425 424
f 992 986 781
f 840 839 135
f 135 839 158
f 134 840 135
f 833 840 134
f 832 833 134
f 825 832 134
f 843 844 556
f 556 844 852
f 415 818 898
f 817 818 415
f 442 415 898
f 441 442 898
f 1001 991 778
f 780 778 991
f 444 445 428
f 444 428 426
f 183 184 162
f 183 162 138
f 986 945 781
f 799 781 945
f 140 139 162
f 140 162 163
f 539 552 1039
f 1038 539 1039
f 449 450 851
f 449 851 852
f 450 857 851
f 449 852 844
f 140 163 164
f 141 140 164
f 785 758 1070
f 1057 1070 758
f 165 141 164
f 142 141 165
f 551 587 1007
f 1005 1007 587
f 142 165 166
f 187 166 165
f 806 785 1069
f 1070 1069 785
f 143 166 167
f 188 167 166
f 904 905 437
f 436 437 897
f 436 897 889
f 905 897 437
f 438 909 904
f 438 904 437
f 436 889 886
f 587 539 1040
f 1038 1040 539
f 145 144 167
f 145 167 168
f 146 145 168
f 146 168 169
f 739 1062 597
f 1063 1062 739
f 147 146 169
f 147 169 170
f 438 439 848
f 438 848 847
f 438 847 913
f 439 856 848
f 916 856 439
f 925 439 922
f 916 439 925
f 921 922 439
f 438 913 909
f 193 194 172
f 193 172 148
f 1005 587 1006
f 1010 1006 587
f 1040 1010 587
f 151 150 173
f 151 173 174
f 739 806 1063
f 1071 1063 806
f 921 440 917
f 912 917 440
f 911 912 440
f 439 440 921
f 152 151 174
f 152 174 175
f 153 152 175
f 153 175 176
f 1039 552 1041
f 1068 1041 552
f 782 783 1002
f 1003 782 1002
f 154 153 176
f 154 176 177
f 841 911 441
f 842 841 441
f 890 842 441
f 898 890 441
f 440 441 911
f 640 629 982
f 981 640 982
f 155 154 177
f 155 177 178
f 445 446 429
f 445 429 428
f 779 782 1003
f 1004 779 1003
f 156 155 178
f 156 178 179
f 431 430 455
f 431 455 456
f 778 779 1004
f 1001 778 1004
f 160 181 182
f 161 160 182
f 933 956 626
f 433 432 457
f 433 457 458
f 1011 1002 783
f 163 162 184
f 163 184 185
f 938 933 708
f 626 708 933
f 435 434 459
f 435 459 460
f 164 163 185
f 164 185 186
f 436 435 461
f 436 461 462
f 165 164 186
f 187 165 186
f 439 438 464
f 439 464 465
f 168 167 188
f 168 188 189
f 741 597 1062
f 1064 741 1062
f 440 466 467
f 441 440 467
f 169 168 189
f 169 189 190
f 982 629 983
f 988 983 629
f 442 441 467
f 442 467 468
f 170 169 190
f 170 190 191
f 626 952 953
f 956 952 626
f 443 442 468
f 443 468 469
f 171 170 191
f 171 191 192
f 444 443 469
f 444 469 470
f 206 207 174
f 206 174 173
f 444 470 471
f 445 444 471
f 175 174 208
f 207 208 174
f 446 445 471
f 446 471 472
f 208 209 176
f 208 176 175
f 473 446 472
f 447 446 473
f 209 210 177
f 209 177 176
f 1064 1013 741
f 1012 784 1013
f 741 1013 784
f 448 447 473
f 448 473 474
f 953 950 629
f 988 629 950
f 953 629 626
f 210 918 919
f 178 177 919
f 210 919 177
f 915 918 210
f 449 448 474
f 449 474 475
f 783 784 1012
f 1011 783 1012
f 908 195 181
f 924 195 908
f 908 181 180
f 450 449 475
f 450 475 476
f 635 1022 1051
f 1019 1022 635
f 183 182 196
f 183 196 197
f 451 450 476
f 451 476 477
f 1051 605 635
f 815 605 1051
f 185 184 198
f 185 198 215
f 214 215 198
f 452 451 477
f 452 477 478
f 215 216 186
f 215 186 185
f 453 452 478
f 453 478 479
f 1108 1111 647
f 1117 1108 647
f 1116 1117 647
f 903 1116 647
f 216 217 199
f 187 186 199
f 216 199 186
f 454 453 479
f 454 479 480
f 189 188 200
f 189 200 201
f 980 1021 640
f 635 640 1020
f 1021 1020 640
f 981 980 640
f 189 201 202
f 220 202 201
f 820 649 1107
f 887 1107 649
f 191 190 202
f 191 202 203
f 192 191 203
f 192 203 222
f 222 223 204
f 193 192 204
f 222 204 192
f 197 196 212
f 197 212 213
f 201 200 218
f 201 218 219
f 203 202 220
f 203 220 221
f 972 529 976
f 971 529 972
f 976 529 1026
f 1077 529 1081
f 1026 529 1028
f 1028 529 1077
f 229 207 206
f 228 229 206
f 26 1 481
f 51 26 481
f 76 51 481
f 101 76 481
f 126 101 481
f 150 126 481
f 173 150 481
f 206 173 481
f 228 206 481
f 245 228 481
f 261 245 481
f 274 261 481
f 290 274 481
f 483 304 290
f 483 319 304
f 483 334 319
f 483 349 334
f 483 362 349
f 483 378 362
f 483 386 378
f 483 395 386
f 483 410 395
f 483 430 410
f 483 290 481
f 455 430 483
f 1118 886 705
f 705 886 889
f 229 230 208
f 229 208 207
f 705 599 1118
f 859 1118 599
f 230 231 209
f 230 209 208
f 940 529 971
f 231 232 210
f 231 210 209
f 707 706 904
f 905 904 706
f 213 212 225
f 213 225 226
f 889 897 705
f 706 705 897
f 905 706 897
f 215 214 227
f 234 215 227
f 233 234 227
f 234 235 216
f 234 216 215
f 236 237 217
f 236 217 216
f 235 236 216
f 237 238 218
f 237 218 217
f 456 455 483
f 457 456 483
f 458 457 483
f 459 458 483
f 460 459 483
f 461 460 483
f 462 461 483
f 463 462 483
f 464 463 483
f 465 464 483
f 466 465 483
f 467 466 483
f 468 467 483
f 469 468 483
f 470 469 483
f 471 470 483
f 472 471 483
f 473 472 483
f 484 474 473
f 484 475 474
f 484 476 475
f 484 477 476
f 484 478 477
f 484 479 478
f 484 473 483
f 480 479 484
f 924 908 529
f 927 924 529
f 907 529 908
f 934 927 529
f 934 529 940
f 904 909 707
f 707 909 913
f 938 708 939
f 622 939 708
f 920 939 622
f 923 920 622
f 869 824 588
f 877 869 588
f 926 923 622
f 910 878 588
f 878 877 588
f 914 910 588
f 967 914 588
f 732 588 824
f 1044 732 824
f 454 480 484
f 425 454 484
f 409 425 484
f 394 409 484
f 385 394 484
f 377 385 484
f 372 377 484
f 371 372 484
f 361 371 484
f 348 361 484
f 333 348 484
f 318 333 484
f 303 318 484
f 286 303 484
f 482 273 286
f 482 260 273
f 482 244 260
f 482 224 244
f 482 205 224
f 482 194 205
f 482 172 194
f 482 149 172
f 482 125 149
f 482 100 125
f 482 75 100
f 482 50 75
f 482 286 484
f 25 50 482
f 1013 239 219
f 1012 1013 219
f 1011 1012 219
f 1002 1011 219
f 1003 1002 219
f 1004 1003 219
f 1001 1004 219
f 1001 219 218
f 991 1001 218
f 992 991 218
f 986 992 218
f 945 986 218
f 944 945 218
f 238 947 944
f 238 987 947
f 238 944 218
f 529 786 1081
f 1082 1081 786
f 1096 1082 786
f 1084 1096 786
f 609 647 1111
f 1094 609 1111
f 240 220 219
f 239 240 219
f 1078 609 1072
f 1092 1072 609
f 240 241 221
f 240 221 220
f 241 242 222
f 241 222 221
f 1055 1045 812
f 812 1045 1046
f 242 243 223
f 242 223 222
f 987 1055 811
f 812 811 1055
f 947 987 811
f 243 244 224
f 243 224 223
f 1035 1034 813
f 736 813 1034
f 1034 1036 736
f 735 736 1036
f 1046 1048 812
f 814 812 1048
f 211 940 225
f 971 226 225
f 972 226 971
f 940 971 225
f 934 940 211
f 24 25 482
f 23 24 482
f 22 23 482
f 21 22 482
f 20 21 482
f 19 20 482
f 18 19 482
f 481 17 18
f 481 16 17
f 481 15 16
f 481 14 15
f 481 13 14
f 481 12 13
f 481 11 12
f 481 10 11
f 481 9 10
f 481 8 9
f 481 7 8
f 481 6 7
f 481 5 6
f 481 4 5
f 481 3 4
f 481 2 3
f 481 18 482
f 1 2 481
f 1048 1047 814
f 813 814 1047
f 972 233 227
f 972 227 226
f 976 233 972
f 1037 1035 813
f 1047 1037 813
f 229 228 245
f 229 245 246
f 229 246 247
f 230 229 247
f 156 179 845
f 846 845 179
f 855 156 845
f 157 156 855
f 854 157 855
f 853 157 854
f 231 230 247
f 231 247 248
f 860 157 853
f 823 157 860
f 231 248 249
f 232 231 249
f 1009 232 249
f 1008 1009 249
f 1008 249 250
f 954 232 1009
f 158 839 868
f 158 868 874
f 875 158 874
f 876 158 875
f 354 367 880
f 879 354 880
f 1028 251 234
f 1026 1028 234
f 1026 234 233
f 236 235 252
f 236 252 253
f 180 158 883
f 882 883 158
f 884 180 883
f 876 882 158
f 355 354 879
f 885 355 879
f 1032 236 254
f 1032 254 1031
f 1036 236 1032
f 237 236 1036
f 237 1036 1034
f 237 1034 1035
f 1037 237 1035
f 891 892 178
f 919 891 178
f 893 178 892
f 896 178 893
f 179 178 896
f 355 885 894
f 895 355 894
f 901 355 895
f 900 355 901
f 356 355 900
f 902 356 900
f 179 896 899
f 846 179 899
f 180 884 907
f 908 180 907
f 938 939 366
f 920 366 939
f 367 366 920
f 933 938 366
f 956 933 366
f 952 956 366
f 367 920 923
f 926 367 923
f 880 367 926
f 211 195 924
f 927 211 924
f 943 946 210
f 932 210 946
f 931 210 932
f 915 210 931
f 232 965 943
f 232 966 965
f 232 943 210
f 955 966 232
f 954 955 232
f 373 381 982
f 981 982 381
f 983 373 982
f 980 981 381
f 1062 239 1013
f 1069 255 239
f 1069 239 1071
f 1070 255 1069
f 1057 255 1070
f 1054 255 1057
f 1052 255 1054
f 1063 1071 239
f 1062 1063 239
f 1064 1062 1013
f 373 983 988
f 950 373 988
f 241 240 256
f 241 256 257
f 243 242 258
f 243 258 259
f 246 245 261
f 246 261 262
f 994 382 996
f 993 382 994
f 995 382 993
f 989 382 995
f 247 246 262
f 247 262 263
f 247 263 264
f 248 247 264
f 962 996 961
f 382 961 996
f 249 248 264
f 249 264 265
f 374 974 1007
f 1005 374 1007
f 1006 374 1005
f 250 249 265
f 250 265 266
f 381 389 1020
f 1019 1020 389
f 1021 381 1020
f 1022 1019 389
f 1082 267 252
f 1081 252 251
f 1077 1081 251
f 1082 252 1081
f 256 255 268
f 256 268 269
f 1029 1025 390
f 935 1029 390
f 936 935 390
f 270 256 269
f 257 256 270
f 258 257 270
f 258 270 271
f 250 968 970
f 1008 250 970
f 272 258 271
f 259 258 272
f 390 391 936
f 937 936 391
f 937 391 382
f 990 937 382
f 259 272 273
f 260 259 273
f 262 275 276
f 263 262 276
f 1039 392 383
f 1038 383 1040
f 1039 383 1038
f 1041 392 1039
f 1010 1040 383
f 264 263 276
f 264 276 277
f 265 264 277
f 265 277 278
f 265 278 279
f 266 265 279
f 1047 237 1037
f 1048 237 1047
f 238 237 1048
f 1046 238 1048
f 1045 238 1046
f 959 266 279
f 958 279 280
f 959 279 958
f 1055 238 1045
f 987 238 1055
f 270 269 282
f 270 282 283
f 272 271 284
f 272 284 285
f 273 272 285
f 273 285 286
f 400 1072 1092
f 400 1092 1093
f 400 1093 1094
f 1111 400 1094
f 1108 400 1111
f 290 291 287
f 290 287 274
f 277 276 288
f 277 288 289
f 969 250 266
f 969 266 1027
f 968 250 969
f 960 1027 266
f 959 960 266
f 278 277 289
f 278 289 294
f 294 295 279
f 294 279 278
f 252 267 1083
f 253 252 1083
f 1086 253 1083
f 1087 253 1086
f 1088 253 1087
f 295 296 280
f 295 280 279
f 254 253 1088
f 1090 254 1088
f 1089 254 1090
f 296 297 999
f 1000 280 999
f 296 999 280
f 1031 254 1089
f 298 299 282
f 298 282 281
f 299 300 283
f 299 283 282
f 300 301 284
f 300 284 283
f 301 302 285
f 301 285 284
f 255 1059 268
f 1061 268 1059
f 1056 1059 255
f 1053 1056 255
f 1052 1053 255
f 930 268 1061
f 929 268 930
f 302 303 286
f 302 286 285
f 288 292 293
f 289 288 293
f 957 280 1000
f 958 280 957
f 999 297 998
f 406 1074 1075
f 406 1075 1097
f 1100 406 1097
f 1113 406 1100
f 1085 267 1096
f 1085 1096 1084
f 1083 267 1085
f 1106 1103 298
f 1102 298 1103
f 1101 298 1102
f 281 1106 298
f 1112 1106 281
f 1105 1112 281
f 290 304 305
f 291 290 305
f 293 292 306
f 293 306 307
f 295 294 308
f 295 308 309
f 268 1065 281
f 1066 281 1065
f 941 281 1066
f 942 281 941
f 1104 281 942
f 1105 281 1104
f 928 1065 268
f 929 928 268
f 295 309 310
f 296 295 310
f 297 296 310
f 297 310 311
f 887 399 1107
f 888 399 887
f 998 297 311
f 998 311 312
f 997 998 312
f 985 312 1018
f 984 312 985
f 997 312 984
f 1101 313 298
f 1099 313 1101
f 1098 313 1099
f 300 299 314
f 300 314 315
f 903 415 1116
f 817 415 903
f 302 301 316
f 302 316 317
f 303 302 317
f 303 317 318
f 422 1115 1109
f 422 1109 1110
f 422 1110 881
f 1114 1115 422
f 406 1114 422
f 1113 1114 406
f 305 304 319
f 305 319 320
f 305 320 321
f 306 305 321
f 307 306 321
f 307 321 322
f 308 307 322
f 308 322 323
f 308 323 324
f 309 308 324
f 310 309 324
f 310 324 325
f 311 310 325
f 311 325 326
f 312 311 326
f 312 326 327
f 1014 1018 327
f 1018 312 327
f 1098 328 313
f 1095 328 1098
f 1049 328 1095
f 1050 328 1049
f 314 313 328
f 314 328 329
