v 1.0024141919305753 -6.2230475749438785 3.7000000000000002
v 1.0024141919305753 -11.326952425056119 3.7000000000000002
v 2.5796075282879762 -10.352193336357399 6.2519524250561203
v 2.5796075282879762 -7.1978066636425977 6.2519524250561203
v 2.5796075282879762 -10.352193336357399 1.1480475749438801
v 2.5796075282879762 -7.1978066636425977 1.1480475749438801
v 0.02765510323185616 -8.7749999999999986 2.1228066636425993
v 0.02765510323185616 -8.7749999999999986 5.2771933363574011
v 2.5796075282879762 -5.7749999999999986 3.7000000000000002
v 2.5796075282879762 -11.774999999999999 3.7000000000000002
v 1.6525565451631339 -11.202050983124842 5.2000000000000011
v 1.6525565451631339 -6.3479490168751562 5.2000000000000011
v 2.5796075282879762 -8.7749999999999986 6.7000000000000002
v 1.6525565451631339 -11.202050983124842 2.1999999999999997
v 1.6525565451631339 -6.3479490168751562 2.1999999999999997
v 2.5796075282879762 -8.7749999999999986 0.70000000000000018
v 0.15255654516313388 -7.2749999999999986 2.7729490168751578
v 0.15255654516313388 -10.274999999999999 2.7729490168751578
v 1.0796075282879758 -9.7020509831248418 1.2729490168751578
v 1.0796075282879758 -7.8479490168751562 1.2729490168751578
v 0.15255654516313388 -7.2749999999999986 4.6270509831248425
v 0.15255654516313388 -10.274999999999999 4.6270509831248425
v 1.0796075282879758 -9.7020509831248418 6.1270509831248425
v 1.0796075282879758 -7.8479490168751562 6.1270509831248425
v -0.42039247171202376 -8.7749999999999986 3.7000000000000002
v 1.759807941549961 -5.8891849266482463 3.7000000000000002
v 1.759807941549961 -11.660815073351751 3.7000000000000002
v 1.2779418346298921 -11.363005441248557 4.4796757390232633
v 2.0977414213679069 -10.856341432681347 5.8061393343284893
v 2.0922279839386166 -11.62816954888546 4.4885966681787011
v 2.5796075282879762 -11.326952425056119 5.2771933363574011
v 1.2779418346298921 -6.1869945587514401 4.4796757390232633
v 2.0977414213679069 -6.6936585673186508 5.8061393343284893
v 2.0922279839386166 -5.9218304511145377 4.4885966681787011
v 2.5796075282879762 -6.2230475749438785 5.2771933363574011
v 2.5796075282879762 -9.5947995867380129 6.5858150733517533
v 2.5796075282879762 -7.9552004132619833 6.5858150733517533
v 1.2779418346298921 -11.363005441248557 2.920324260976737
v 2.0977414213679069 -10.856341432681347 1.5938606656715111
v 2.0922279839386166 -11.62816954888546 2.9114033318212997
v 2.5796075282879762 -11.326952425056119 2.1228066636425993
v 1.2779418346298921 -6.1869945587514401 2.920324260976737
v 2.0977414213679069 -6.6936585673186508 1.5938606656715111
v 2.0922279839386166 -5.9218304511145377 2.9114033318212997
v 2.5796075282879762 -6.2230475749438785 2.1228066636425993
v 2.5796075282879762 -9.5947995867380129 0.81418492664824749
v 2.5796075282879762 -7.9552004132619833 0.81418492664824749
v 0.49826609560662849 -6.6688606656715095 3.2181338930799308
v -0.0083979129605822322 -7.9953242609767354 2.3983343063419156
v 0.8162517714105566 -6.7104271192932377 2.4240237874719401
v 0.49826609560662849 -10.881139334328488 3.2181338930799308
v -0.0083979129605822322 -9.5546757390232617 2.3983343063419156
v 0.8162517714105566 -10.83957288070676 2.4240237874719401
v 1.7999317892647129 -10.076665693658082 1.1119945587514417
v 0.47346819395948714 -9.2568661069200679 1.6186585673186529
v 1.3036313157599162 -10.538355756877419 1.6354271192932397
v 1.7910108601092758 -9.2623795443493577 0.84683045111453925
v 0.51503464758121575 -10.05097621252806 1.9366442431225808
v 1.7999317892647129 -7.473334306341914 1.1119945587514417
v 0.47346819395948714 -8.2931338930799292 1.6186585673186529
v 1.3036313157599162 -7.0116442431225794 1.6354271192932397
v 1.7910108601092758 -8.2876204556506394 0.84683045111453925
v 0.51503464758121575 -7.4990237874719385 1.9366442431225808
v 1.0024141919305751 -8.7749999999999986 1.1480475749438805
v 0.49826609560662849 -6.6688606656715095 4.1818661069200695
v -0.0083979129605822322 -7.9953242609767354 5.0016656936580848
v 0.8162517714105566 -6.7104271192932377 4.9759762125280602
v 0.027655103231856604 -7.1978066636425977 3.7000000000000002
v 0.49826609560662849 -10.881139334328488 4.1818661069200695
v -0.0083979129605822322 -9.5546757390232617 5.0016656936580848
v 0.8162517714105566 -10.83957288070676 4.9759762125280602
v 0.027655103231856604 -10.3521933363574 3.7000000000000002
v 1.7999317892647129 -10.076665693658082 6.2880054412485586
v 0.47346819395948714 -9.2568661069200679 5.7813414326813479
v 1.3036313157599162 -10.538355756877419 5.7645728807067602
v 1.7910108601092758 -9.2623795443493577 6.5531695488854611
v 0.51503464758121575 -10.05097621252806 5.4633557568774194
v 1.7999317892647129 -7.473334306341914 6.2880054412485586
v 0.47346819395948714 -8.2931338930799292 5.7813414326813479
v 1.3036313157599162 -7.0116442431225794 5.7645728807067602
v 1.7910108601092758 -8.2876204556506394 6.5531695488854611
v 0.51503464758121575 -7.4990237874719385 5.4633557568774194
v 1.0024141919305751 -8.7749999999999986 6.2519524250561194
v -0.30620754506377645 -8.7749999999999986 2.8802004132619849
v -0.30620754506377645 -8.7749999999999986 4.5197995867380154
v -0.27356202059748469 -7.9864033318212977 3.2126204556506406
v -0.27356202059748469 -9.5635966681786986 3.2126204556506406
v -0.27356202059748469 -7.9864033318212977 4.1873795443493602
v -0.27356202059748469 -9.5635966681786986 4.1873795443493602
v 1.3695414824358831 -6.0298697363010465 3.7000000000000002
v 2.1657508019050749 -5.8036833541294133 3.7000000000000002
v 1.3695414824358831 -11.520130263698951 3.7000000000000002
v 2.1657508019050749 -11.746316645870584 3.7000000000000002
v 1.1262826021059726 -11.369788007589822 4.0936011364390383
v 1.4544918258533472 -11.306734423867169 4.8508411980551438
v 1.5049211478282394 -11.547913801834037 4.0949661140561942
v 2.3363486479580655 -10.621926062621041 6.0515291272599141
v 1.8683485522362484 -11.050956900489771 5.5204754478154427
v 2.3328801324498896 -11.738065021785411 4.0992133124217744
v 1.8635767373291967 -11.448019572565101 4.8585621567627761
v 1.9192564458680992 -11.674177792207317 4.0983774304837075
v 1.6758308910082802 -11.523732525573646 4.4922482519771965
v 2.5796075282879762 -10.883721091463318 5.8338452048866491
v 2.5796075282879762 -11.666583790402866 4.4992141034037019
v 2.1103041331672836 -11.295533655981416 5.2577754691845504
v 2.3361819734281575 -11.115613112130379 5.5607187478403413
v 2.3326367881920955 -11.513947478796895 4.8988211551055532
v 1.1262826021059726 -6.1802119924101744 4.0936011364390383
v 1.4544918258533472 -6.2432655761328277 4.8508411980551438
v 1.5049211478282394 -6.0020861981659603 4.0949661140561942
v 2.3363486479580655 -6.9280739373789562 6.0515291272599141
v 1.8683485522362484 -6.4990430995102262 5.5204754478154427
v 2.3328801324498896 -5.8119349782145857 4.0992133124217744
v 1.8635767373291967 -6.1019804274348948 4.8585621567627761
v 1.9192564458680992 -5.8758222077926812 4.0983774304837075
v 1.6758308910082802 -6.0262674744263514 4.4922482519771965
v 2.5796075282879762 -6.6662789085366789 5.8338452048866491
v 2.5796075282879762 -5.8834162095971312 4.4992141034037019
v 2.1103041331672836 -6.2544663440185824 5.2577754691845504
v 2.3361819734281575 -6.4343868878696187 5.5607187478403413
v 2.3326367881920955 -6.0360525212031018 4.8988211551055532
v 2.5796075282879762 -9.9850660458520917 6.4451302636989523
v 2.5796075282879762 -9.1888567263829 6.6713166458705864
v 2.5796075282879762 -7.5649339541479055 6.4451302636989523
v 2.5796075282879762 -8.3611432736170972 6.6713166458705864
v 1.1262826021059726 -11.369788007589822 3.3063988635609616
v 1.4544918258533472 -11.306734423867169 2.5491588019448566
v 1.5049211478282394 -11.547913801834037 3.3050338859438062
v 2.3363486479580655 -10.621926062621041 1.3484708727400863
v 1.8683485522362484 -11.050956900489771 1.8795245521845576
v 2.3328801324498896 -11.738065021785411 3.3007866875782264
v 1.8635767373291967 -11.448019572565101 2.5414378432372238
v 1.9192564458680992 -11.674177792207317 3.3016225695162928
v 1.6758308910082802 -11.523732525573646 2.9077517480228039
v 2.5796075282879762 -10.883721091463318 1.5661547951133512
v 2.5796075282879762 -11.666583790402866 2.900785896596298
v 2.1103041331672836 -11.295533655981416 2.1422245308154499
v 2.3361819734281575 -11.115613112130379 1.8392812521596591
v 2.3326367881920955 -11.513947478796895 2.5011788448944468
v 1.1262826021059726 -6.1802119924101744 3.3063988635609616
v 1.4544918258533472 -6.2432655761328277 2.5491588019448566
v 1.5049211478282394 -6.0020861981659603 3.3050338859438062
v 2.3363486479580655 -6.9280739373789562 1.3484708727400863
v 1.8683485522362484 -6.4990430995102262 1.8795245521845576
v 2.3328801324498896 -5.8119349782145857 3.3007866875782264
v 1.8635767373291967 -6.1019804274348948 2.5414378432372238
v 1.9192564458680992 -5.8758222077926812 3.3016225695162928
v 1.6758308910082802 -6.0262674744263514 2.9077517480228039
v 2.5796075282879762 -6.6662789085366789 1.5661547951133512
v 2.5796075282879762 -5.8834162095971312 2.900785896596298
v 2.1103041331672836 -6.2544663440185824 2.1422245308154499
v 2.3361819734281575 -6.4343868878696187 1.8392812521596591
v 2.3326367881920955 -6.0360525212031018 2.5011788448944468
v 2.5796075282879762 -9.9850660458520917 0.9548697363010481
v 2.5796075282879762 -9.1888567263829 0.72868335412941443
v 2.5796075282879762 -7.5649339541479055 0.9548697363010481
v 2.5796075282879762 -8.3611432736170972 0.72868335412941443
v 0.73268146566693448 -6.4234708727400847 3.4567411196700895
v 0.30365062779820429 -6.954524552184556 2.9887410239482723
v 0.86585255088085034 -6.3970523122221543 3.0609314030526109
v -0.01518047930184796 -8.3813988635609604 2.2466750738179968
v 0.047873104420805834 -7.624158801944855 2.5748842975653714
v 1.2176360290693358 -6.501193739856669 2.2947104473991371
v 0.45828718472833385 -6.9704971349773617 2.5847558966194466
v 1.0312426681347933 -6.4246449049100587 2.6615409556330238
v 0.63737184664130409 -6.6680704597698774 2.811986222266694
v 0.73268146566693448 -11.126529127259912 3.4567411196700895
v 0.30365062779820429 -10.595475447815442 2.9887410239482723
v 0.86585255088085034 -11.152947687777843 3.0609314030526109
v -0.01518047930184796 -9.1686011364390367 2.2466750738179968
v 0.047873104420805834 -9.9258411980551422 2.5748842975653714
v 1.2176360290693358 -11.048806260143328 2.2947104473991371
v 0.45828718472833385 -10.579502865022636 2.5847558966194466
v 1.0312426681347933 -11.125355095089938 2.6615409556330238
v 0.63737184664130409 -10.88192954023012 2.811986222266694
v 2.1860063918489376 -10.228324926182003 1.105211992410176
v 1.4287663302328326 -9.9001157024346274 1.1682655761328298
v 1.940538931340587 -10.488754977407124 1.3220523122221559
v 2.1846414142317823 -9.849686380459735 0.92708619816596194
v 0.22807840102806232 -9.0182588803299097 1.8530739373789584
v 0.75913208047253367 -9.486258976051726 1.4240430995102282
v 0.20165984051013197 -9.4140685969473878 1.9862450225928743
v 1.4643634249074229 -10.896320343559641 1.8954971349773628
v 1.1743179756871129 -10.136971499218639 1.4261937398566706
v 1.6915937505546701 -10.71723568164667 1.5930704597698795
v 1.0394812045966324 -10.714733375393195 2.0072373647026858
v 1.5411484839209999 -10.323364860153182 1.3496449049100607
v 2.180394215866202 -9.0217273958380861 0.73693497821458687
v 1.4210453715251998 -9.4910307909587779 1.0269804274348964
v 2.1812300978042689 -9.4353510824198761 0.80082220779268276
v 1.7873592763107795 -9.6787766372796948 0.95126747442635295
v 0.3058012681446467 -10.180289552600861 2.3380285007813599
v 0.77510466326533889 -9.890244103380553 1.5786796564403578
v 0.22925243319803679 -9.8134590443669758 2.151635139846817
v 0.63987415289478111 -10.467762635297312 2.1598736763086563
v 0.47267798805785555 -9.6630137777333047 1.7577643183533282
v 0.88684489299066183 -10.315126323691342 1.7602666246068051
v 2.1860063918489376 -7.3216750738179952 1.105211992410176
v 1.4287663302328326 -7.6498842975653698 1.1682655761328298
v 1.940538931340587 -7.0612450225928729 1.3220523122221559
v 2.1846414142317823 -7.7003136195402622 0.92708619816596194
v 0.22807840102806232 -8.5317411196700874 1.8530739373789584
v 0.75913208047253367 -8.0637410239482712 1.4240430995102282
v 0.20165984051013197 -8.1359314030526093 1.9862450225928743
v 0.44576232340132727 -8.7749999999999986 1.5912789085366805
v 1.4643634249074229 -6.6536796564403566 1.8954971349773628
v 1.1743179756871129 -7.4130285007813583 1.4261937398566706
v 1.6915937505546701 -6.8327643183533269 1.5930704597698795
v 1.0394812045966324 -6.8352666246068035 2.0072373647026858
v 1.5411484839209999 -7.2266351398468149 1.3496449049100607
v 2.180394215866202 -8.528272604161911 0.73693497821458687
v 1.4210453715251998 -8.0589692090412193 1.0269804274348964
v 2.1812300978042689 -8.1146489175801211 0.80082220779268276
v 1.7803934248842739 -8.7749999999999986 0.80841620959713234
v 1.7873592763107795 -7.8712233627203023 0.95126747442635295
v 0.3058012681446467 -7.3697104473991351 2.3380285007813599
v 0.77510466326533889 -7.659755896619445 1.5786796564403578
v 0.22925243319803679 -7.7365409556330222 2.151635139846817
v 0.63987415289478111 -7.0822373647026842 2.1598736763086563
v 0.47267798805785555 -7.8869862222666924 1.7577643183533282
v 0.88684489299066183 -7.2348736763086547 1.7602666246068051
v 1.0218320591034256 -9.2443033951206921 1.179466344018584
v 1.0218320591034256 -8.3056966048793051 1.179466344018584
v 0.71888878044763516 -9.0184255548598173 1.3593868878696203
v 1.3807863731824228 -9.0219707400958793 0.96105252120310292
v 0.71888878044763516 -8.5315744451401798 1.3593868878696203
v 1.3807863731824228 -8.5280292599041179 0.96105252120310292
v 0.73268146566693448 -6.4234708727400847 3.9432588803299109
v 0.30365062779820429 -6.954524552184556 4.4112589760517285
v 0.86585255088085034 -6.3970523122221543 4.3390685969473894
v 0.47088643682465658 -6.6411547951133496 3.7000000000000002
v -0.01518047930184796 -8.3813988635609604 5.1533249261820036
v 0.047873104420805834 -7.624158801944855 4.825115702434629
v 1.2176360290693358 -6.501193739856669 5.1052895526008637
v 0.45828718472833385 -6.9704971349773617 4.8152441033805538
v 1.0312426681347933 -6.4246449049100587 4.7384590443669765
v 0.63737184664130409 -6.6680704597698774 4.5880137777333063
v 0.059073872306560027 -7.2172245308154483 3.2306966048793075
v 0.059073872306560027 -7.2172245308154483 4.1693033951206928
v 0.23899441615759631 -6.9142812521596575 3.4565744451401814
v 0.23899441615759631 -6.9142812521596575 3.9434255548598189
v 0.73268146566693448 -11.126529127259912 3.9432588803299109
v 0.30365062779820429 -10.595475447815442 4.4112589760517285
v 0.86585255088085034 -11.152947687777843 4.3390685969473894
v 0.47088643682465658 -10.908845204886648 3.7000000000000002
v -0.01518047930184796 -9.1686011364390367 5.1533249261820036
v 0.047873104420805834 -9.9258411980551422 4.825115702434629
v 1.2176360290693358 -11.048806260143328 5.1052895526008637
v 0.45828718472833385 -10.579502865022636 4.8152441033805538
v 1.0312426681347933 -11.125355095089938 4.7384590443669765
v 0.63737184664130409 -10.88192954023012 4.5880137777333063
v 0.059073872306560027 -10.332775469184549 3.2306966048793075
v 0.059073872306560027 -10.332775469184549 4.1693033951206928
v 0.23899441615759631 -10.63571874784034 3.4565744451401814
v 0.23899441615759631 -10.63571874784034 3.9434255548598189
v 2.1860063918489376 -10.228324926182003 6.2947880075898244
v 1.4287663302328326 -9.9001157024346274 6.2317344238671701
v 1.940538931340587 -10.488754977407124 6.0779476877778444
v 2.1846414142317823 -9.849686380459735 6.4729138018340384
v 0.22807840102806232 -9.0182588803299097 5.5469260626210417
v 0.75913208047253367 -9.486258976051726 5.9759569004897717
v 0.20165984051013197 -9.4140685969473878 5.4137549774071259
v 1.4643634249074229 -10.896320343559641 5.5045028650226371
v 1.1743179756871129 -10.136971499218639 5.9738062601433297
v 1.6915937505546701 -10.71723568164667 5.8069295402301204
v 1.0394812045966324 -10.714733375393195 5.3927626352973146
v 1.5411484839209999 -10.323364860153182 6.0503550950899392
v 2.180394215866202 -9.0217273958380861 6.6630650217854139
v 1.4210453715251998 -9.4910307909587779 6.373019572565104
v 2.1812300978042689 -9.4353510824198761 6.5991777922073176
v 1.7873592763107795 -9.6787766372796948 6.4487325255736474
v 0.3058012681446467 -10.180289552600861 5.0619714992186404
v 0.77510466326533889 -9.890244103380553 5.821320343559643
v 0.22925243319803679 -9.8134590443669758 5.2483648601531829
v 0.63987415289478111 -10.467762635297312 5.240126323691344
v 0.47267798805785555 -9.6630137777333047 5.6422356816466719
v 0.88684489299066183 -10.315126323691342 5.6397333753931953
v 2.1860063918489376 -7.3216750738179952 6.2947880075898244
v 1.4287663302328326 -7.6498842975653698 6.2317344238671701
v 1.940538931340587 -7.0612450225928729 6.0779476877778444
v 2.1846414142317823 -7.7003136195402622 6.4729138018340384
v 0.22807840102806232 -8.5317411196700874 5.5469260626210417
v 0.75913208047253367 -8.0637410239482712 5.9759569004897717
v 0.20165984051013197 -8.1359314030526093 5.4137549774071259
v 0.44576232340132727 -8.7749999999999986 5.8087210914633198
v 1.4643634249074229 -6.6536796564403566 5.5045028650226371
v 1.1743179756871129 -7.4130285007813583 5.9738062601433297
v 1.6915937505546701 -6.8327643183533269 5.8069295402301204
v 1.0394812045966324 -6.8352666246068035 5.3927626352973146
v 1.5411484839209999 -7.2266351398468149 6.0503550950899392
v 2.180394215866202 -8.528272604161911 6.6630650217854139
v 1.4210453715251998 -8.0589692090412193 6.373019572565104
v 2.1812300978042689 -8.1146489175801211 6.5991777922073176
v 1.7803934248842739 -8.7749999999999986 6.5915837904028685
v 1.7873592763107795 -7.8712233627203023 6.4487325255736474
v 0.3058012681446467 -7.3697104473991351 5.0619714992186404
v 0.77510466326533889 -7.659755896619445 5.821320343559643
v 0.22925243319803679 -7.7365409556330222 5.2483648601531829
v 0.63987415289478111 -7.0822373647026842 5.240126323691344
v 0.47267798805785555 -7.8869862222666924 5.6422356816466719
v 0.88684489299066183 -7.2348736763086547 5.6397333753931953
v 1.0218320591034256 -9.2443033951206921 6.2205336559814164
v 1.0218320591034256 -8.3056966048793051 6.2205336559814164
v 0.71888878044763516 -9.0184255548598173 6.0406131121303801
v 1.3807863731824228 -9.0219707400958793 6.4389474787968979
v 0.71888878044763516 -8.5315744451401798 6.0406131121303801
v 1.3807863731824228 -8.5280292599041179 6.4389474787968979
v -0.16552273541097584 -8.7749999999999986 2.4899339541479071
v -0.39170911758260951 -8.7749999999999986 3.2861432736170988
v -0.193306273546062 -8.3800338859438046 2.6253136195402633
v -0.193306273546062 -9.1699661140561926 2.6253136195402633
v -0.16552273541097584 -8.7749999999999986 4.9100660458520933
v -0.39170911758260951 -8.7749999999999986 4.1138567263829016
v -0.193306273546062 -8.3800338859438046 4.7746863804597375
v -0.193306273546062 -9.1699661140561926 4.7746863804597375
v -0.093412044277127571 -7.6164378432372217 2.9839692090412209
v -0.38345749349743707 -8.3757866875782252 3.4532726041619131
v -0.16912499728567099 -7.9827517480228014 2.7962233627203039
v -0.15933995050892102 -7.5761788448944447 3.4530292599041195
v -0.31957026391934118 -8.3766225695162913 3.0396489175801227
v -0.093412044277127571 -9.9335621567627754 2.9839692090412209
v -0.38345749349743707 -9.174213312421772 3.4532726041619131
v -0.16912499728567099 -9.5672482519771957 2.7962233627203039
v -0.15933995050892102 -9.9738211551055524 3.4530292599041195
v -0.31957026391934118 -9.1733774304837059 3.0396489175801227
v -0.093412044277127571 -7.6164378432372217 4.4160307909587795
v -0.38345749349743707 -8.3757866875782252 3.9467273958380873
v -0.16912499728567099 -7.9827517480228014 4.6037766372796964
v -0.15933995050892102 -7.5761788448944447 3.9469707400958809
v -0.31957026391934118 -8.3766225695162913 4.3603510824198777
v -0.3119762621148916 -7.975785896596296 3.7000000000000002
v -0.093412044277127571 -9.9335621567627754 4.4160307909587795
v -0.38345749349743707 -9.174213312421772 3.9467273958380873
v -0.16912499728567099 -9.5672482519771957 4.6037766372796964
v -0.15933995050892102 -9.9738211551055524 3.9469707400958809
v -0.31957026391934118 -9.1733774304837059 4.3603510824198777
v -0.3119762621148916 -9.5742141034037012 3.7000000000000002
v 9.3160159212213287 -6.2230475749438785 3.7000000000000002
v 9.3160159212213287 -11.326952425056119 3.7000000000000002
v 7.7388225848639287 -10.352193336357399 6.2519524250561203
v 7.7388225848639287 -7.1978066636425977 6.2519524250561203
v 7.7388225848639287 -10.352193336357399 1.1480475749438801
v 7.7388225848639287 -7.1978066636425977 1.1480475749438801
v 10.290775009920049 -8.7749999999999986 2.1228066636425993
v 10.290775009920049 -8.7749999999999986 5.2771933363574011
v 7.7388225848639287 -5.7749999999999986 3.7000000000000002
v 7.7388225848639287 -11.774999999999999 3.7000000000000002
v 8.665873567988772 -11.202050983124842 5.2000000000000011
v 8.665873567988772 -6.3479490168751562 5.2000000000000011
v 7.7388225848639287 -8.7749999999999986 6.7000000000000002
v 8.665873567988772 -11.202050983124842 2.1999999999999997
v 8.665873567988772 -6.3479490168751562 2.1999999999999997
v 7.7388225848639287 -8.7749999999999986 0.70000000000000018
v 10.165873567988772 -7.2749999999999986 2.7729490168751578
v 10.165873567988772 -10.274999999999999 2.7729490168751578
v 9.2388225848639287 -9.7020509831248418 1.2729490168751578
v 9.2388225848639287 -7.8479490168751562 1.2729490168751578
v 10.165873567988772 -7.2749999999999986 4.6270509831248425
v 10.165873567988772 -10.274999999999999 4.6270509831248425
v 9.2388225848639287 -9.7020509831248418 6.1270509831248425
v 9.2388225848639287 -7.8479490168751562 6.1270509831248425
v 10.738822584863929 -8.7749999999999986 3.7000000000000002
v 8.5586221716019431 -5.8891849266482463 3.7000000000000002
v 8.5586221716019431 -11.660815073351751 3.7000000000000002
v 9.0404882785220124 -11.363005441248557 4.4796757390232633
v 8.2206886917839981 -10.856341432681347 5.8061393343284893
v 8.2262021292132879 -11.62816954888546 4.4885966681787011
v 7.7388225848639287 -11.326952425056119 5.2771933363574011
v 9.0404882785220124 -6.1869945587514401 4.4796757390232633
v 8.2206886917839981 -6.6936585673186508 5.8061393343284893
v 8.2262021292132879 -5.9218304511145377 4.4885966681787011
v 7.7388225848639287 -6.2230475749438785 5.2771933363574011
v 7.7388225848639287 -9.5947995867380129 6.5858150733517533
v 7.7388225848639287 -7.9552004132619833 6.5858150733517533
v 9.0404882785220124 -11.363005441248557 2.920324260976737
v 8.2206886917839981 -10.856341432681347 1.5938606656715111
v 8.2262021292132879 -11.62816954888546 2.9114033318212997
v 7.7388225848639287 -11.326952425056119 2.1228066636425993
v 9.0404882785220124 -6.1869945587514401 2.920324260976737
v 8.2206886917839981 -6.6936585673186508 1.5938606656715111
v 8.2262021292132879 -5.9218304511145377 2.9114033318212997
v 7.7388225848639287 -6.2230475749438785 2.1228066636425993
v 7.7388225848639287 -9.5947995867380129 0.81418492664824749
v 7.7388225848639287 -7.9552004132619833 0.81418492664824749
v 9.8201640175452773 -6.6688606656715095 3.2181338930799308
v 10.326828026112487 -7.9953242609767354 2.3983343063419156
v 9.5021783417413488 -6.7104271192932377 2.4240237874719401
v 9.8201640175452773 -10.881139334328488 3.2181338930799308
v 10.326828026112487 -9.5546757390232617 2.3983343063419156
v 9.5021783417413488 -10.83957288070676 2.4240237874719401
v 8.5184983238871919 -10.076665693658082 1.1119945587514417
v 9.8449619191924178 -9.2568661069200679 1.6186585673186529
v 9.0147987973919896 -10.538355756877419 1.6354271192932397
v 8.5274192530426287 -9.2623795443493577 0.84683045111453925
v 9.8033954655706896 -10.05097621252806 1.9366442431225808
v 8.5184983238871919 -7.473334306341914 1.1119945587514417
v 9.8449619191924178 -8.2931338930799292 1.6186585673186529
v 9.0147987973919896 -7.0116442431225794 1.6354271192932397
v 8.5274192530426287 -8.2876204556506394 0.84683045111453925
v 9.8033954655706896 -7.4990237874719385 1.9366442431225808
v 9.3160159212213305 -8.7749999999999986 1.1480475749438805
v 9.8201640175452773 -6.6688606656715095 4.1818661069200695
v 10.326828026112487 -7.9953242609767354 5.0016656936580848
v 9.5021783417413488 -6.7104271192932377 4.9759762125280602
v 10.290775009920049 -7.1978066636425977 3.7000000000000002
v 9.8201640175452773 -10.881139334328488 4.1818661069200695
v 10.326828026112487 -9.5546757390232617 5.0016656936580848
v 9.5021783417413488 -10.83957288070676 4.9759762125280602
v 10.290775009920049 -10.3521933363574 3.7000000000000002
v 8.5184983238871919 -10.076665693658082 6.2880054412485586
v 9.8449619191924178 -9.2568661069200679 5.7813414326813479
v 9.0147987973919896 -10.538355756877419 5.7645728807067602
v 8.5274192530426287 -9.2623795443493577 6.5531695488854611
v 9.8033954655706896 -10.05097621252806 5.4633557568774194
v 8.5184983238871919 -7.473334306341914 6.2880054412485586
v 9.8449619191924178 -8.2931338930799292 5.7813414326813479
v 9.0147987973919896 -7.0116442431225794 5.7645728807067602
v 8.5274192530426287 -8.2876204556506394 6.5531695488854611
v 9.8033954655706896 -7.4990237874719385 5.4633557568774194
v 9.3160159212213305 -8.7749999999999986 6.2519524250561194
v 10.624637658215681 -8.7749999999999986 2.8802004132619849
v 10.624637658215681 -8.7749999999999986 4.5197995867380154
v 10.59199213374939 -7.9864033318212977 3.2126204556506406
v 10.59199213374939 -9.5635966681786986 3.2126204556506406
v 10.59199213374939 -7.9864033318212977 4.1873795443493602
v 10.59199213374939 -9.5635966681786986 4.1873795443493602
v 8.9488886307160218 -6.0298697363010465 3.7000000000000002
v 8.1526793112468301 -5.8036833541294133 3.7000000000000002
v 8.9488886307160218 -11.520130263698951 3.7000000000000002
v 8.1526793112468301 -11.746316645870584 3.7000000000000002
v 9.192147511045933 -11.369788007589822 4.0936011364390383
v 8.8639382872985575 -11.306734423867169 4.8508411980551438
v 8.8135089653236651 -11.547913801834037 4.0949661140561942
v 7.982081465193839 -10.621926062621041 6.0515291272599141
v 8.4500815609156561 -11.050956900489771 5.5204754478154427
v 7.7388225848639287 -10.883721091463318 5.8338452048866491
v 7.9855499807020154 -11.738065021785411 4.0992133124217744
v 8.454853375822708 -11.448019572565101 4.8585621567627761
v 8.3991736672838062 -11.674177792207317 4.0983774304837075
v 7.7388225848639287 -11.666583790402866 4.4992141034037019
v 8.642599222143625 -11.523732525573646 4.4922482519771965
v 8.2081259799846222 -11.295533655981416 5.2577754691845504
v 7.9822481397237475 -11.115613112130379 5.5607187478403413
v 7.9857933249598094 -11.513947478796895 4.8988211551055532
v 9.192147511045933 -6.1802119924101744 4.0936011364390383
v 8.8639382872985575 -6.2432655761328277 4.8508411980551438
v 8.8135089653236651 -6.0020861981659603 4.0949661140561942
v 7.982081465193839 -6.9280739373789562 6.0515291272599141
v 8.4500815609156561 -6.4990430995102262 5.5204754478154427
v 7.7388225848639287 -6.6662789085366789 5.8338452048866491
v 7.9855499807020154 -5.8119349782145857 4.0992133124217744
v 8.454853375822708 -6.1019804274348948 4.8585621567627761
v 8.3991736672838062 -5.8758222077926812 4.0983774304837075
v 7.7388225848639287 -5.8834162095971312 4.4992141034037019
v 8.642599222143625 -6.0262674744263514 4.4922482519771965
v 8.2081259799846222 -6.2544663440185824 5.2577754691845504
v 7.9822481397237475 -6.4343868878696187 5.5607187478403413
v 7.9857933249598094 -6.0360525212031018 4.8988211551055532
v 7.7388225848639287 -9.9850660458520917 6.4451302636989523
v 7.7388225848639287 -9.1888567263829 6.6713166458705864
v 7.7388225848639287 -7.5649339541479055 6.4451302636989523
v 7.7388225848639287 -8.3611432736170972 6.6713166458705864
v 9.192147511045933 -11.369788007589822 3.3063988635609616
v 8.8639382872985575 -11.306734423867169 2.5491588019448566
v 8.8135089653236651 -11.547913801834037 3.3050338859438062
v 7.982081465193839 -10.621926062621041 1.3484708727400863
v 8.4500815609156561 -11.050956900489771 1.8795245521845576
v 7.7388225848639287 -10.883721091463318 1.5661547951133512
v 7.9855499807020154 -11.738065021785411 3.3007866875782264
v 8.454853375822708 -11.448019572565101 2.5414378432372238
v 8.3991736672838062 -11.674177792207317 3.3016225695162928
v 7.7388225848639287 -11.666583790402866 2.900785896596298
v 8.642599222143625 -11.523732525573646 2.9077517480228039
v 8.2081259799846222 -11.295533655981416 2.1422245308154499
v 7.9822481397237475 -11.115613112130379 1.8392812521596591
v 7.9857933249598094 -11.513947478796895 2.5011788448944468
v 9.192147511045933 -6.1802119924101744 3.3063988635609616
v 8.8639382872985575 -6.2432655761328277 2.5491588019448566
v 8.8135089653236651 -6.0020861981659603 3.3050338859438062
v 7.982081465193839 -6.9280739373789562 1.3484708727400863
v 8.4500815609156561 -6.4990430995102262 1.8795245521845576
v 7.7388225848639287 -6.6662789085366789 1.5661547951133512
v 7.9855499807020154 -5.8119349782145857 3.3007866875782264
v 8.454853375822708 -6.1019804274348948 2.5414378432372238
v 8.3991736672838062 -5.8758222077926812 3.3016225695162928
v 7.7388225848639287 -5.8834162095971312 2.900785896596298
v 8.642599222143625 -6.0262674744263514 2.9077517480228039
v 8.2081259799846222 -6.2544663440185824 2.1422245308154499
v 7.9822481397237475 -6.4343868878696187 1.8392812521596591
v 7.9857933249598094 -6.0360525212031018 2.5011788448944468
v 7.7388225848639287 -9.9850660458520917 0.9548697363010481
v 7.7388225848639287 -9.1888567263829 0.72868335412941443
v 7.7388225848639287 -7.5649339541479055 0.9548697363010481
v 7.7388225848639287 -8.3611432736170972 0.72868335412941443
v 9.5857486474849711 -6.4234708727400847 3.4567411196700895
v 10.014779485353701 -6.954524552184556 2.9887410239482723
v 9.4525775622710544 -6.3970523122221543 3.0609314030526109
v 10.333610592453752 -8.3813988635609604 2.2466750738179968
v 10.2705570087311 -7.624158801944855 2.5748842975653714
v 9.100794084082569 -6.501193739856669 2.2947104473991371
v 9.8601429284235707 -6.9704971349773617 2.5847558966194466
v 9.2871874450171124 -6.4246449049100587 2.6615409556330238
v 9.6810582665106004 -6.6680704597698774 2.811986222266694
v 9.5857486474849711 -11.126529127259912 3.4567411196700895
v 10.014779485353701 -10.595475447815442 2.9887410239482723
v 9.4525775622710544 -11.152947687777843 3.0609314030526109
v 10.333610592453752 -9.1686011364390367 2.2466750738179968
v 10.2705570087311 -9.9258411980551422 2.5748842975653714
v 9.100794084082569 -11.048806260143328 2.2947104473991371
v 9.8601429284235707 -10.579502865022636 2.5847558966194466
v 9.2871874450171124 -11.125355095089938 2.6615409556330238
v 9.6810582665106004 -10.88192954023012 2.811986222266694
v 8.1324237213029669 -10.228324926182003 1.105211992410176
v 8.8896637829190723 -9.9001157024346274 1.1682655761328298
v 8.377891181811318 -10.488754977407124 1.3220523122221559
v 8.1337886989201227 -9.849686380459735 0.92708619816596194
v 10.090351712123843 -9.0182588803299097 1.8530739373789584
v 9.5592980326793722 -9.486258976051726 1.4240430995102282
v 10.116770272641773 -9.4140685969473878 1.9862450225928743
v 8.8540666882444814 -10.896320343559641 1.8954971349773628
v 9.1441121374647913 -10.136971499218639 1.4261937398566706
v 8.6268363625972349 -10.71723568164667 1.5930704597698795
v 9.2789489085552717 -10.714733375393195 2.0072373647026858
v 8.7772816292309059 -10.323364860153182 1.3496449049100607
v 8.1380358972857021 -9.0217273958380861 0.73693497821458687
v 8.8973847416267056 -9.4910307909587779 1.0269804274348964
v 8.137200015347636 -9.4353510824198761 0.80082220779268276
v 8.5310708368411259 -9.6787766372796948 0.95126747442635295
v 10.012628845007258 -10.180289552600861 2.3380285007813599
v 9.5433254498865665 -9.890244103380553 1.5786796564403578
v 10.089177679953869 -9.8134590443669758 2.151635139846817
v 9.6785559602571247 -10.467762635297312 2.1598736763086563
v 9.8457521250940498 -9.6630137777333047 1.7577643183533282
v 9.4315852201612422 -10.315126323691342 1.7602666246068051
v 8.1324237213029669 -7.3216750738179952 1.105211992410176
v 8.8896637829190723 -7.6498842975653698 1.1682655761328298
v 8.377891181811318 -7.0612450225928729 1.3220523122221559
v 8.1337886989201227 -7.7003136195402622 0.92708619816596194
v 10.090351712123843 -8.5317411196700874 1.8530739373789584
v 9.5592980326793722 -8.0637410239482712 1.4240430995102282
v 10.116770272641773 -8.1359314030526093 1.9862450225928743
v 9.8726677897505777 -8.7749999999999986 1.5912789085366805
v 8.8540666882444814 -6.6536796564403566 1.8954971349773628
v 9.1441121374647913 -7.4130285007813583 1.4261937398566706
v 8.6268363625972349 -6.8327643183533269 1.5930704597698795
v 9.2789489085552717 -6.8352666246068035 2.0072373647026858
v 8.7772816292309059 -7.2266351398468149 1.3496449049100607
v 8.1380358972857021 -8.528272604161911 0.73693497821458687
v 8.8973847416267056 -8.0589692090412193 1.0269804274348964
v 8.137200015347636 -8.1146489175801211 0.80082220779268276
v 8.5380366882676313 -8.7749999999999986 0.80841620959713234
v 8.5310708368411259 -7.8712233627203023 0.95126747442635295
v 10.012628845007258 -7.3697104473991351 2.3380285007813599
v 9.5433254498865665 -7.659755896619445 1.5786796564403578
v 10.089177679953869 -7.7365409556330222 2.151635139846817
v 9.6785559602571247 -7.0822373647026842 2.1598736763086563
v 9.8457521250940498 -7.8869862222666924 1.7577643183533282
v 9.4315852201612422 -7.2348736763086547 1.7602666246068051
v 9.2965980540484789 -9.2443033951206921 1.179466344018584
v 9.2965980540484789 -8.3056966048793051 1.179466344018584
v 9.5995413327042698 -9.0184255548598173 1.3593868878696203
v 8.9376437399694826 -9.0219707400958793 0.96105252120310292
v 9.5995413327042698 -8.5315744451401798 1.3593868878696203
v 8.9376437399694826 -8.5280292599041179 0.96105252120310292
v 9.5857486474849711 -6.4234708727400847 3.9432588803299109
v 10.014779485353701 -6.954524552184556 4.4112589760517285
v 9.4525775622710544 -6.3970523122221543 4.3390685969473894
v 9.8475436763272484 -6.6411547951133496 3.7000000000000002
v 10.333610592453752 -8.3813988635609604 5.1533249261820036
v 10.2705570087311 -7.624158801944855 4.825115702434629
v 9.100794084082569 -6.501193739856669 5.1052895526008637
v 9.8601429284235707 -6.9704971349773617 4.8152441033805538
v 9.2871874450171124 -6.4246449049100587 4.7384590443669765
v 9.6810582665106004 -6.6680704597698774 4.5880137777333063
v 10.259356240845346 -7.2172245308154483 3.2306966048793075
v 10.259356240845346 -7.2172245308154483 4.1693033951206928
v 10.07943569699431 -6.9142812521596575 3.4565744451401814
v 10.07943569699431 -6.9142812521596575 3.9434255548598189
v 9.5857486474849711 -11.126529127259912 3.9432588803299109
v 10.014779485353701 -10.595475447815442 4.4112589760517285
v 9.4525775622710544 -11.152947687777843 4.3390685969473894
v 9.8475436763272484 -10.908845204886648 3.7000000000000002
v 10.333610592453752 -9.1686011364390367 5.1533249261820036
v 10.2705570087311 -9.9258411980551422 4.825115702434629
v 9.100794084082569 -11.048806260143328 5.1052895526008637
v 9.8601429284235707 -10.579502865022636 4.8152441033805538
v 9.2871874450171124 -11.125355095089938 4.7384590443669765
v 9.6810582665106004 -10.88192954023012 4.5880137777333063
v 10.259356240845346 -10.332775469184549 3.2306966048793075
v 10.259356240845346 -10.332775469184549 4.1693033951206928
v 10.07943569699431 -10.63571874784034 3.4565744451401814
v 10.07943569699431 -10.63571874784034 3.9434255548598189
v 8.1324237213029669 -10.228324926182003 6.2947880075898244
v 8.8896637829190723 -9.9001157024346274 6.2317344238671701
v 8.377891181811318 -10.488754977407124 6.0779476877778444
v 8.1337886989201227 -9.849686380459735 6.4729138018340384
v 10.090351712123843 -9.0182588803299097 5.5469260626210417
v 9.5592980326793722 -9.486258976051726 5.9759569004897717
v 10.116770272641773 -9.4140685969473878 5.4137549774071259
v 8.8540666882444814 -10.896320343559641 5.5045028650226371
v 9.1441121374647913 -10.136971499218639 5.9738062601433297
v 8.6268363625972349 -10.71723568164667 5.8069295402301204
v 9.2789489085552717 -10.714733375393195 5.3927626352973146
v 8.7772816292309059 -10.323364860153182 6.0503550950899392
v 8.1380358972857021 -9.0217273958380861 6.6630650217854139
v 8.8973847416267056 -9.4910307909587779 6.373019572565104
v 8.137200015347636 -9.4353510824198761 6.5991777922073176
v 8.5310708368411259 -9.6787766372796948 6.4487325255736474
v 10.012628845007258 -10.180289552600861 5.0619714992186404
v 9.5433254498865665 -9.890244103380553 5.821320343559643
v 10.089177679953869 -9.8134590443669758 5.2483648601531829
v 9.6785559602571247 -10.467762635297312 5.240126323691344
v 9.8457521250940498 -9.6630137777333047 5.6422356816466719
v 9.4315852201612422 -10.315126323691342 5.6397333753931953
v 8.1324237213029669 -7.3216750738179952 6.2947880075898244
v 8.8896637829190723 -7.6498842975653698 6.2317344238671701
v 8.377891181811318 -7.0612450225928729 6.0779476877778444
v 8.1337886989201227 -7.7003136195402622 6.4729138018340384
v 10.090351712123843 -8.5317411196700874 5.5469260626210417
v 9.5592980326793722 -8.0637410239482712 5.9759569004897717
v 10.116770272641773 -8.1359314030526093 5.4137549774071259
v 9.8726677897505777 -8.7749999999999986 5.8087210914633198
v 8.8540666882444814 -6.6536796564403566 5.5045028650226371
v 9.1441121374647913 -7.4130285007813583 5.9738062601433297
v 8.6268363625972349 -6.8327643183533269 5.8069295402301204
v 9.2789489085552717 -6.8352666246068035 5.3927626352973146
v 8.7772816292309059 -7.2266351398468149 6.0503550950899392
v 8.1380358972857021 -8.528272604161911 6.6630650217854139
v 8.8973847416267056 -8.0589692090412193 6.373019572565104
v 8.137200015347636 -8.1146489175801211 6.5991777922073176
v 8.5380366882676313 -8.7749999999999986 6.5915837904028685
v 8.5310708368411259 -7.8712233627203023 6.4487325255736474
v 10.012628845007258 -7.3697104473991351 5.0619714992186404
v 9.5433254498865665 -7.659755896619445 5.821320343559643
v 10.089177679953869 -7.7365409556330222 5.2483648601531829
v 9.6785559602571247 -7.0822373647026842 5.240126323691344
v 9.8457521250940498 -7.8869862222666924 5.6422356816466719
v 9.4315852201612422 -7.2348736763086547 5.6397333753931953
v 9.2965980540484789 -9.2443033951206921 6.2205336559814164
v 9.2965980540484789 -8.3056966048793051 6.2205336559814164
v 9.5995413327042698 -9.0184255548598173 6.0406131121303801
v 8.9376437399694826 -9.0219707400958793 6.4389474787968979
v 9.5995413327042698 -8.5315744451401798 6.0406131121303801
v 8.9376437399694826 -8.5280292599041179 6.4389474787968979
v 10.483952848562881 -8.7749999999999986 2.4899339541479071
v 10.710139230734514 -8.7749999999999986 3.2861432736170988
v 10.511736386697967 -8.3800338859438046 2.6253136195402633
v 10.511736386697967 -9.1699661140561926 2.6253136195402633
v 10.483952848562881 -8.7749999999999986 4.9100660458520933
v 10.710139230734514 -8.7749999999999986 4.1138567263829016
v 10.511736386697967 -8.3800338859438046 4.7746863804597375
v 10.511736386697967 -9.1699661140561926 4.7746863804597375
v 10.411842157429032 -7.6164378432372217 2.9839692090412209
v 10.701887606649342 -8.3757866875782252 3.4532726041619131
v 10.487555110437576 -7.9827517480228014 2.7962233627203039
v 10.477770063660826 -7.5761788448944447 3.4530292599041195
v 10.638000377071247 -8.3766225695162913 3.0396489175801227
v 10.411842157429032 -9.9335621567627754 2.9839692090412209
v 10.701887606649342 -9.174213312421772 3.4532726041619131
v 10.487555110437576 -9.5672482519771957 2.7962233627203039
v 10.477770063660826 -9.9738211551055524 3.4530292599041195
v 10.638000377071247 -9.1733774304837059 3.0396489175801227
v 10.411842157429032 -7.6164378432372217 4.4160307909587795
v 10.701887606649342 -8.3757866875782252 3.9467273958380873
v 10.487555110437576 -7.9827517480228014 4.6037766372796964
v 10.477770063660826 -7.5761788448944447 3.9469707400958809
v 10.638000377071247 -8.3766225695162913 4.3603510824198777
v 10.630406375266796 -7.975785896596296 3.7000000000000002
v 10.411842157429032 -9.9335621567627754 4.4160307909587795
v 10.701887606649342 -9.174213312421772 3.9467273958380873
v 10.487555110437576 -9.5672482519771957 4.6037766372796964
v 10.477770063660826 -9.9738211551055524 3.9469707400958809
v 10.638000377071247 -9.1733774304837059 4.3603510824198777
v 10.630406375266796 -9.5742141034037012 3.7000000000000002
f 193 184 197
f 222 225 189
f 64 225 222
f 189 225 57
f 57 225 214
f 310 320 318
f 25 309 322
f 49 310 318
f 275 277 77
f 77 272 275
f 74 260 262
f 261 304 74
f 285 260 74
f 74 304 285
f 254 168 51
f 94 242 2
f 614 603 612
f 411 599 597
f 613 599 411
f 640 644 420
f 11 263 248
f 248 95 11
f 673 670 650
f 650 670 362
f 622 411 597
f 641 411 622
f 664 650 362
f 667 650 664
f 19 184 193
f 19 222 189
f 214 211 188
f 188 57 214
f 188 211 16
f 16 155 188
f 214 225 227
f 227 225 64
f 522 376 515
f 84 309 320
f 84 310 308
f 320 310 84
f 308 7 170
f 25 322 333
f 537 535 480
f 545 537 380
f 380 537 480
f 343 535 493
f 480 535 343
f 528 394 526
f 528 527 394
f 206 209 163
f 163 15 206
f 310 49 161
f 161 7 308
f 308 310 161
f 467 376 522
f 522 520 467
f 99 104 30
f 30 104 107
f 262 70 274
f 272 77 274
f 262 260 246
f 246 70 262
f 273 77 277
f 273 23 261
f 267 73 257
f 269 23 257
f 25 333 313
f 313 333 336
f 245 255 254
f 254 51 245
f 243 255 69
f 69 251 243
f 69 245 242
f 255 245 69
f 253 332 335
f 253 255 243
f 22 253 243
f 332 253 22
f 252 168 254
f 254 255 72
f 335 324 72
f 72 253 335
f 255 253 72
f 72 252 254
f 324 252 72
f 243 251 249
f 275 272 249
f 249 71 275
f 251 71 249
f 249 22 243
f 272 22 249
f 244 242 94
f 244 69 242
f 251 69 244
f 83 304 302
f 302 305 83
f 302 304 261
f 269 305 302
f 302 23 269
f 261 23 302
f 278 124 4
f 4 111 278
f 271 73 259
f 259 270 271
f 269 257 271
f 271 257 73
f 602 604 595
f 259 73 256
f 259 256 122
f 122 256 3
f 82 301 299
f 33 111 117
f 33 112 288
f 370 450 448
f 448 617 370
f 103 29 106
f 266 75 277
f 263 75 266
f 266 277 275
f 248 263 266
f 275 71 266
f 266 71 248
f 265 75 263
f 267 75 265
f 136 131 40
f 40 139 136
f 167 51 169
f 169 126 167
f 167 126 2
f 167 245 51
f 167 2 242
f 242 245 167
f 128 27 92
f 92 126 128
f 2 126 92
f 94 2 92
f 375 463 465
f 465 463 429
f 612 603 408
f 587 588 408
f 422 652 673
f 673 650 422
f 422 650 667
f 426 670 673
f 407 652 583
f 583 599 407
f 597 599 583
f 612 609 414
f 414 614 612
f 586 609 612
f 612 408 586
f 586 408 588
f 360 601 610
f 601 614 610
f 610 414 613
f 614 414 610
f 601 604 412
f 412 614 601
f 412 604 602
f 603 614 412
f 602 600 412
f 412 600 603
f 620 361 640
f 641 420 639
f 639 606 360
f 30 102 101
f 101 99 30
f 263 11 98
f 98 265 263
f 29 265 98
f 106 29 98
f 619 622 597
f 493 535 538
f 538 384 493
f 563 397 542
f 542 561 563
f 654 664 362
f 646 654 362
f 224 55 205
f 64 222 224
f 177 19 189
f 184 19 177
f 222 19 181
f 181 224 222
f 55 224 181
f 181 19 193
f 226 224 205
f 64 224 226
f 212 227 223
f 223 226 203
f 223 227 64
f 64 226 223
f 172 53 186
f 186 183 172
f 41 139 137
f 190 188 155
f 155 46 190
f 57 188 190
f 56 197 184
f 186 197 56
f 56 183 186
f 376 468 466
f 466 515 376
f 393 520 522
f 524 515 391
f 521 393 524
f 522 515 524
f 524 393 522
f 391 528 514
f 514 528 526
f 514 524 391
f 521 524 514
f 392 542 517
f 561 542 392
f 519 392 517
f 533 392 519
f 530 533 395
f 311 84 308
f 311 170 52
f 308 170 311
f 180 170 7
f 205 55 180
f 175 173 53
f 169 51 175
f 175 51 168
f 168 173 175
f 195 197 186
f 173 192 195
f 186 53 195
f 53 173 195
f 336 333 89
f 334 336 89
f 89 332 334
f 335 332 89
f 337 324 335
f 337 333 322
f 337 322 87
f 87 324 337
f 335 89 337
f 337 89 333
f 535 537 396
f 396 538 535
f 552 538 396
f 153 45 151
f 481 543 545
f 545 380 481
f 481 380 489
f 482 380 480
f 489 380 482
f 492 527 383
f 44 150 153
f 141 15 163
f 144 206 15
f 15 151 144
f 43 208 144
f 208 206 144
f 547 537 545
f 547 396 537
f 545 543 398
f 544 547 398
f 398 547 545
f 554 544 558
f 544 398 558
f 474 476 378
f 470 476 474
f 10 99 93
f 93 131 10
f 93 101 27
f 99 101 93
f 100 102 30
f 30 107 100
f 95 102 100
f 100 11 95
f 105 31 106
f 105 107 31
f 106 98 105
f 105 100 107
f 105 98 11
f 11 100 105
f 8 246 260
f 246 8 312
f 334 70 315
f 70 246 315
f 315 336 334
f 246 312 315
f 276 74 262
f 77 273 276
f 261 74 276
f 276 273 261
f 262 274 276
f 276 274 77
f 23 273 264
f 264 257 23
f 264 273 277
f 267 257 264
f 264 75 267
f 277 75 264
f 314 66 328
f 332 22 247
f 247 70 334
f 334 332 247
f 247 22 272
f 272 274 247
f 247 274 70
f 168 252 18
f 18 173 168
f 18 192 173
f 28 244 94
f 28 102 95
f 307 305 294
f 83 305 307
f 81 307 294
f 292 307 81
f 294 305 76
f 76 271 270
f 76 268 294
f 270 268 76
f 76 305 269
f 269 271 76
f 36 270 259
f 259 122 36
f 410 595 604
f 258 265 29
f 267 265 258
f 258 73 267
f 258 256 73
f 289 299 301
f 121 118 34
f 446 573 369
f 358 566 572
f 572 633 358
f 663 576 358
f 358 576 566
f 121 34 114
f 119 35 121
f 121 114 119
f 35 119 120
f 120 33 117
f 120 119 112
f 112 33 120
f 163 209 50
f 164 166 50
f 159 166 164
f 164 17 159
f 319 331 329
f 317 309 25
f 320 309 317
f 29 103 97
f 97 258 29
f 3 256 97
f 256 258 97
f 133 40 131
f 133 27 128
f 131 93 133
f 133 93 27
f 139 40 132
f 132 137 139
f 174 172 127
f 53 172 174
f 169 175 174
f 174 175 53
f 127 132 134
f 134 132 40
f 134 133 128
f 40 133 134
f 603 600 585
f 587 408 585
f 585 408 603
f 366 434 436
f 602 595 366
f 595 434 366
f 472 476 377
f 377 476 470
f 375 465 473
f 473 377 470
f 581 588 587
f 581 406 588
f 652 422 649
f 649 583 652
f 669 426 671
f 671 652 407
f 673 652 671
f 671 426 673
f 407 584 671
f 671 584 669
f 611 414 609
f 407 599 611
f 611 599 613
f 613 414 611
f 611 584 407
f 609 584 611
f 590 669 359
f 669 584 359
f 359 584 609
f 609 586 359
f 613 411 598
f 598 610 613
f 360 610 598
f 598 639 360
f 598 411 641
f 641 639 598
f 636 633 572
f 642 420 644
f 642 639 420
f 606 639 642
f 642 413 606
f 96 92 27
f 27 101 96
f 94 92 96
f 96 101 102
f 96 28 94
f 102 28 96
f 622 619 416
f 637 620 416
f 357 544 554
f 563 561 401
f 384 538 550
f 550 538 552
f 657 646 421
f 654 646 657
f 184 177 187
f 187 56 184
f 16 211 157
f 211 213 157
f 157 213 47
f 156 47 201
f 47 213 201
f 201 213 215
f 214 227 62
f 215 213 62
f 62 227 212
f 212 215 62
f 62 211 214
f 62 213 211
f 219 50 209
f 164 50 219
f 204 161 49
f 14 183 130
f 127 172 14
f 14 172 183
f 130 137 14
f 137 132 14
f 14 132 127
f 176 154 5
f 41 137 138
f 138 39 135
f 138 137 130
f 130 39 138
f 183 56 185
f 178 39 185
f 185 187 178
f 56 187 185
f 130 183 185
f 185 39 130
f 129 39 178
f 129 176 5
f 178 176 129
f 135 39 129
f 592 406 582
f 375 473 464
f 464 473 470
f 523 509 520
f 520 393 523
f 507 519 517
f 395 533 531
f 533 519 531
f 561 392 518
f 518 392 533
f 533 530 518
f 323 311 52
f 87 322 325
f 325 323 87
f 311 323 325
f 84 311 325
f 325 322 309
f 309 84 325
f 52 170 182
f 182 194 52
f 170 180 182
f 182 180 55
f 192 194 58
f 58 195 192
f 197 195 58
f 193 197 58
f 152 151 45
f 152 149 43
f 43 144 152
f 152 144 151
f 488 481 489
f 488 382 490
f 489 382 488
f 486 381 490
f 483 381 486
f 43 149 143
f 525 492 353
f 525 353 548
f 548 551 525
f 527 492 525
f 394 527 525
f 525 551 394
f 526 394 562
f 394 551 562
f 562 551 564
f 564 401 562
f 150 44 145
f 148 141 42
f 146 141 148
f 146 44 153
f 148 44 146
f 153 151 146
f 146 151 15
f 15 141 146
f 199 215 212
f 209 206 61
f 61 206 208
f 487 381 485
f 485 479 487
f 485 381 483
f 499 555 553
f 499 653 655
f 553 556 501
f 503 496 501
f 385 496 503
f 500 502 387
f 387 502 503
f 503 501 387
f 387 501 556
f 487 479 379
f 379 479 477
f 477 495 497
f 503 502 497
f 495 385 497
f 497 385 503
f 497 379 477
f 502 379 497
f 349 456 449
f 449 623 349
f 452 349 446
f 456 349 452
f 450 370 457
f 457 456 372
f 457 370 449
f 449 456 457
f 467 474 475
f 376 467 475
f 475 468 376
f 475 474 378
f 85 312 314
f 85 313 336
f 336 315 85
f 85 315 312
f 66 298 233
f 233 328 66
f 82 299 296
f 296 298 82
f 296 233 298
f 21 233 296
f 232 66 314
f 314 312 232
f 232 312 8
f 329 331 88
f 192 18 171
f 52 194 171
f 171 194 192
f 171 323 52
f 250 95 248
f 250 28 95
f 244 28 250
f 248 71 250
f 250 71 251
f 251 244 250
f 291 81 294
f 294 268 291
f 13 125 291
f 291 268 13
f 293 291 125
f 81 291 293
f 24 292 279
f 297 301 82
f 283 24 297
f 285 304 306
f 306 304 83
f 303 307 292
f 292 24 303
f 303 24 283
f 283 306 303
f 83 307 303
f 303 306 83
f 280 278 111
f 288 290 280
f 280 33 288
f 111 33 280
f 13 268 123
f 123 268 270
f 270 36 123
f 594 604 601
f 594 410 604
f 594 601 360
f 360 606 594
f 606 413 608
f 608 594 606
f 410 594 608
f 459 340 593
f 595 410 593
f 340 434 593
f 593 434 595
f 288 112 286
f 234 109 236
f 289 286 234
f 80 290 288
f 80 289 301
f 288 286 80
f 80 286 289
f 21 296 235
f 235 296 299
f 299 289 67
f 236 237 67
f 67 234 236
f 289 234 67
f 67 235 299
f 237 235 67
f 113 34 118
f 230 237 236
f 65 237 230
f 110 108 32
f 236 109 32
f 32 230 236
f 108 230 32
f 572 566 574
f 566 402 574
f 664 654 668
f 567 369 573
f 573 574 567
f 567 402 565
f 567 574 402
f 445 567 565
f 369 567 445
f 627 624 417
f 417 624 638
f 625 370 617
f 625 417 623
f 449 370 625
f 625 623 449
f 625 617 627
f 627 417 625
f 621 619 569
f 621 635 637
f 637 416 621
f 621 416 619
f 570 665 663
f 633 635 570
f 663 358 570
f 570 358 633
f 631 642 644
f 605 413 631
f 413 642 631
f 68 241 240
f 68 319 329
f 329 239 68
f 68 239 241
f 318 320 86
f 331 319 86
f 320 317 86
f 86 317 331
f 86 316 318
f 319 316 86
f 238 159 17
f 17 316 238
f 238 316 319
f 240 159 238
f 238 68 240
f 319 68 238
f 38 126 169
f 169 174 38
f 38 174 127
f 127 134 38
f 128 126 38
f 38 134 128
f 506 463 375
f 591 592 582
f 472 377 469
f 348 585 600
f 365 581 587
f 582 406 579
f 406 581 579
f 651 422 667
f 651 649 422
f 667 665 651
f 569 649 651
f 345 619 597
f 597 583 345
f 569 619 345
f 583 649 345
f 345 649 569
f 590 359 580
f 580 592 590
f 406 592 580
f 580 359 586
f 588 406 580
f 580 586 588
f 638 624 634
f 634 620 637
f 361 620 634
f 634 624 361
f 419 635 633
f 633 636 419
f 637 635 419
f 419 636 638
f 419 634 637
f 638 634 419
f 638 636 626
f 626 417 638
f 623 417 626
f 622 416 643
f 640 420 643
f 643 620 640
f 643 416 620
f 643 420 641
f 641 622 643
f 563 401 560
f 560 401 564
f 564 549 560
f 560 549 357
f 564 551 399
f 399 550 552
f 552 549 399
f 399 549 564
f 399 551 548
f 548 550 399
f 400 558 556
f 555 557 400
f 400 556 553
f 553 555 400
f 554 558 400
f 400 557 554
f 517 542 539
f 539 542 397
f 647 657 421
f 655 657 647
f 548 353 494
f 494 550 548
f 384 550 494
f 198 6 156
f 156 201 198
f 198 143 6
f 216 17 164
f 164 219 216
f 216 219 63
f 205 180 202
f 202 180 7
f 7 161 202
f 161 204 202
f 178 187 54
f 54 176 178
f 54 187 177
f 516 491 383
f 383 527 516
f 527 528 516
f 516 528 391
f 672 669 590
f 672 426 669
f 362 670 659
f 659 646 362
f 351 467 520
f 520 509 351
f 509 464 351
f 351 474 467
f 470 474 351
f 351 464 470
f 509 523 390
f 523 532 390
f 510 512 390
f 390 532 510
f 356 530 521
f 521 514 356
f 356 518 530
f 356 514 526
f 196 182 55
f 196 181 193
f 55 181 196
f 193 58 196
f 194 182 196
f 196 58 194
f 484 488 490
f 484 381 487
f 490 381 484
f 559 401 561
f 559 562 401
f 561 518 559
f 526 562 559
f 559 356 526
f 518 356 559
f 148 42 142
f 165 141 163
f 165 42 141
f 163 50 165
f 165 50 166
f 209 61 221
f 221 61 207
f 207 217 221
f 221 219 209
f 63 219 221
f 221 217 63
f 60 202 204
f 203 226 60
f 60 226 205
f 205 202 60
f 63 217 220
f 220 60 204
f 220 217 203
f 203 60 220
f 207 199 20
f 20 217 207
f 203 217 20
f 20 223 203
f 212 223 20
f 20 199 212
f 386 499 655
f 655 647 386
f 386 647 498
f 555 499 386
f 575 653 354
f 354 496 575
f 653 499 354
f 354 499 553
f 354 501 496
f 553 501 354
f 575 496 577
f 496 385 577
f 546 387 556
f 500 387 546
f 543 500 546
f 556 558 546
f 546 398 543
f 546 558 398
f 371 452 455
f 446 369 455
f 455 452 446
f 456 452 458
f 372 456 458
f 458 452 371
f 371 454 458
f 328 233 326
f 329 88 326
f 326 88 328
f 326 239 329
f 326 233 21
f 21 239 326
f 285 306 79
f 79 306 283
f 327 88 331
f 331 317 327
f 25 313 327
f 327 317 25
f 321 18 252
f 321 171 18
f 321 252 324
f 323 171 321
f 321 324 87
f 87 323 321
f 37 293 125
f 124 278 281
f 281 37 124
f 293 37 281
f 301 297 287
f 279 290 287
f 287 24 279
f 287 297 24
f 287 80 301
f 290 80 287
f 596 373 459
f 459 593 596
f 410 608 596
f 596 593 410
f 12 286 112
f 12 234 286
f 109 234 12
f 12 114 109
f 12 119 114
f 112 119 12
f 21 235 229
f 229 239 21
f 229 237 65
f 229 235 237
f 65 241 229
f 241 239 229
f 34 113 115
f 9 145 91
f 91 113 9
f 91 115 113
f 109 114 116
f 116 32 109
f 110 32 116
f 116 114 34
f 116 115 110
f 34 115 116
f 240 241 231
f 231 241 65
f 160 165 166
f 42 165 160
f 404 636 572
f 572 574 404
f 404 574 573
f 404 626 636
f 575 577 405
f 666 576 663
f 666 405 576
f 667 664 425
f 664 668 425
f 425 665 667
f 668 666 425
f 663 665 425
f 425 666 663
f 655 653 423
f 423 657 655
f 654 657 423
f 423 668 654
f 565 495 338
f 338 495 477
f 338 445 565
f 665 570 403
f 569 651 403
f 403 651 665
f 403 570 635
f 403 621 569
f 635 621 403
f 630 462 628
f 605 631 628
f 350 460 605
f 350 628 462
f 605 628 350
f 616 624 627
f 361 624 616
f 341 461 615
f 448 341 615
f 615 617 448
f 418 631 644
f 418 632 630
f 630 628 418
f 418 628 631
f 511 506 375
f 375 464 511
f 511 464 509
f 509 390 511
f 512 506 511
f 511 390 512
f 388 506 512
f 388 591 582
f 364 465 429
f 471 469 377
f 471 473 465
f 377 473 471
f 465 364 471
f 443 366 436
f 581 365 431
f 431 579 581
f 587 585 432
f 432 365 587
f 585 348 432
f 463 506 504
f 582 579 504
f 504 388 582
f 506 388 504
f 571 573 446
f 623 626 571
f 571 404 573
f 626 404 571
f 446 349 571
f 571 349 623
f 552 396 536
f 536 549 552
f 357 549 536
f 544 357 536
f 536 547 544
f 396 547 536
f 540 397 563
f 563 560 540
f 540 560 357
f 540 357 554
f 554 557 540
f 540 557 397
f 498 539 541
f 541 557 555
f 555 386 541
f 541 386 498
f 397 557 541
f 541 539 397
f 498 647 645
f 645 647 421
f 59 201 215
f 59 198 201
f 215 199 59
f 143 198 200
f 200 208 43
f 43 143 200
f 198 59 200
f 17 216 162
f 162 316 17
f 162 49 318
f 318 316 162
f 218 204 49
f 49 162 218
f 218 162 216
f 218 216 63
f 63 220 218
f 218 220 204
f 176 54 179
f 154 176 179
f 46 154 179
f 179 190 46
f 466 342 513
f 515 466 513
f 391 515 513
f 513 516 391
f 513 342 491
f 491 516 513
f 670 426 674
f 426 672 674
f 674 672 661
f 674 659 670
f 592 591 409
f 661 672 409
f 589 661 409
f 409 591 589
f 590 592 409
f 409 672 590
f 421 646 662
f 646 659 662
f 521 530 534
f 534 532 523
f 534 393 521
f 534 523 393
f 534 530 395
f 395 532 534
f 510 532 529
f 529 355 510
f 395 531 529
f 529 532 395
f 487 379 478
f 478 484 487
f 478 502 500
f 478 379 502
f 451 454 371
f 479 485 363
f 282 232 8
f 285 79 282
f 282 260 285
f 282 8 260
f 284 282 79
f 232 282 284
f 284 298 66
f 66 232 284
f 313 85 330
f 330 327 313
f 330 85 314
f 88 327 330
f 314 328 330
f 328 88 330
f 374 462 630
f 78 281 278
f 78 290 279
f 278 280 78
f 78 280 290
f 607 608 413
f 607 596 608
f 607 413 605
f 373 596 607
f 460 373 607
f 605 460 607
f 90 108 110
f 90 1 108
f 147 91 145
f 147 145 44
f 147 44 148
f 148 142 147
f 228 231 65
f 65 230 228
f 228 230 108
f 108 1 228
f 42 160 140
f 140 142 42
f 1 90 140
f 140 90 142
f 158 228 1
f 231 228 158
f 1 140 158
f 158 140 160
f 578 405 577
f 576 405 578
f 578 402 566
f 566 576 578
f 656 423 653
f 668 423 656
f 656 666 668
f 656 653 575
f 575 405 656
f 405 666 656
f 629 616 632
f 629 418 644
f 632 418 629
f 629 644 640
f 640 361 629
f 361 616 629
f 632 616 415
f 415 616 627
f 627 617 415
f 617 615 415
f 630 632 618
f 618 615 461
f 461 374 618
f 618 374 630
f 632 415 618
f 618 415 615
f 589 591 505
f 591 388 505
f 505 355 589
f 510 355 505
f 505 512 510
f 505 388 512
f 430 347 469
f 469 471 430
f 430 471 364
f 437 347 430
f 430 439 437
f 430 364 439
f 442 368 444
f 442 443 368
f 429 431 433
f 433 364 429
f 439 364 433
f 433 431 365
f 339 431 429
f 429 463 339
f 579 431 339
f 339 504 579
f 463 504 339
f 517 539 344
f 344 507 517
f 344 539 498
f 344 645 507
f 498 645 344
f 210 61 208
f 208 200 210
f 207 61 210
f 210 200 59
f 210 199 207
f 210 59 199
f 57 190 191
f 190 179 191
f 189 57 191
f 191 179 54
f 191 177 189
f 191 54 177
f 507 645 648
f 648 645 421
f 421 662 648
f 660 648 662
f 543 481 352
f 352 500 543
f 352 478 500
f 481 488 352
f 488 484 352
f 484 478 352
f 369 445 447
f 447 455 369
f 428 485 483
f 428 363 485
f 483 346 428
f 346 451 428
f 300 284 79
f 283 297 300
f 300 79 283
f 300 297 82
f 82 298 300
f 298 284 300
f 279 292 295
f 295 78 279
f 281 78 295
f 292 81 295
f 81 293 295
f 293 281 295
f 142 90 26
f 26 147 142
f 91 147 26
f 115 91 26
f 110 115 26
f 26 90 110
f 240 231 48
f 231 158 48
f 48 159 240
f 166 159 48
f 48 160 166
f 48 158 160
f 565 402 568
f 402 578 568
f 568 495 565
f 568 578 577
f 568 385 495
f 568 577 385
f 435 442 348
f 435 348 600
f 366 443 435
f 443 442 435
f 435 600 602
f 602 366 435
f 439 433 441
f 365 432 441
f 441 433 365
f 658 661 589
f 589 355 658
f 424 674 661
f 424 660 662
f 659 674 424
f 424 662 659
f 424 658 660
f 661 658 424
f 445 338 427
f 427 447 445
f 363 447 427
f 479 363 427
f 477 479 427
f 427 338 477
f 371 455 453
f 455 447 453
f 453 451 371
f 453 447 363
f 453 428 451
f 363 428 453
f 438 441 432
f 438 442 444
f 438 432 348
f 348 442 438
f 444 440 367
f 439 441 367
f 367 440 437
f 437 439 367
f 367 438 444
f 441 438 367
f 355 529 508
f 508 658 355
f 508 529 531
f 660 658 508
f 389 508 531
f 519 507 389
f 389 531 519
f 660 508 389
f 507 648 389
f 648 660 389
f 111 341 448
f 4 341 111
f 450 111 448
f 117 111 450
f 472 136 476
f 136 139 476
f 41 378 476
f 476 139 41
f 3 340 122
f 122 340 459
f 461 341 4
f 4 124 461
f 493 384 47
f 47 156 493
f 382 45 153
f 153 490 382
f 493 156 6
f 6 343 493
f 492 46 155
f 383 46 492
f 16 353 492
f 492 155 16
f 36 122 459
f 459 373 36
f 97 340 3
f 97 434 340
f 97 103 436
f 436 434 97
f 129 466 468
f 468 135 129
f 491 46 383
f 491 154 46
f 45 382 152
f 152 382 489
f 152 482 149
f 489 482 152
f 486 490 153
f 153 150 486
f 143 482 480
f 149 482 143
f 343 6 143
f 480 343 143
f 9 346 145
f 145 346 483
f 145 486 150
f 483 486 145
f 117 450 457
f 457 120 117
f 372 35 457
f 35 120 457
f 475 378 41
f 41 138 475
f 475 135 468
f 475 138 135
f 123 36 373
f 123 373 460
f 469 131 136
f 469 136 472
f 440 107 104
f 440 444 107
f 104 99 440
f 99 437 440
f 107 444 368
f 31 107 368
f 494 353 16
f 16 157 494
f 494 47 384
f 494 157 47
f 466 129 342
f 342 129 5
f 154 491 342
f 5 154 342
f 458 118 121
f 458 454 118
f 121 35 458
f 458 35 372
f 350 123 460
f 13 123 350
f 350 125 13
f 350 462 125
f 347 437 99
f 347 99 10
f 131 469 347
f 10 131 347
f 436 103 443
f 443 103 106
f 31 368 443
f 106 31 443
f 451 346 9
f 9 113 451
f 118 454 451
f 451 113 118
f 125 462 374
f 374 37 125
f 374 461 124
f 124 37 374
