v -1.5771933363574009 -3.2980475749438796 3.7000000000000002
v -1.5771933363574009 -8.4019524250561197 3.7000000000000002
v 0 -7.4271933363574005 6.2519524250561203
v 0 -4.2728066636425988 6.2519524250561203
v 0 -7.4271933363574005 1.1480475749438801
v 0 -4.2728066636425988 1.1480475749438801
v -2.5519524250561201 -5.8499999999999996 2.1228066636425993
v -2.5519524250561201 -5.8499999999999996 5.2771933363574011
v 0 -2.8499999999999996 3.7000000000000002
v 0 -8.8499999999999996 3.7000000000000002
v -0.92705098312484235 -8.2770509831248411 5.2000000000000011
v -0.92705098312484235 -3.4229490168751573 5.2000000000000011
v 0 -5.8499999999999996 6.7000000000000002
v -0.92705098312484235 -8.2770509831248411 2.1999999999999997
v -0.92705098312484235 -3.4229490168751573 2.1999999999999997
v 0 -5.8499999999999996 0.70000000000000018
v -2.4270509831248424 -4.3499999999999996 2.7729490168751578
v -2.4270509831248424 -7.3499999999999996 2.7729490168751578
v -1.5000000000000004 -6.777050983124842 1.2729490168751578
v -1.5000000000000004 -4.9229490168751573 1.2729490168751578
v -2.4270509831248424 -4.3499999999999996 4.6270509831248425
v -2.4270509831248424 -7.3499999999999996 4.6270509831248425
v -1.5000000000000004 -6.777050983124842 6.1270509831248425
v -1.5000000000000004 -4.9229490168751573 6.1270509831248425
v -3 -5.8499999999999996 3.7000000000000002
v -0.81979958673801523 -2.964184926648247 3.7000000000000002
v -0.81979958673801523 -8.7358150733517519 3.7000000000000002
v -1.3016656936580842 -8.4380054412485581 4.4796757390232633
v -0.48186610692006943 -7.9313414326813474 5.8061393343284893
v -0.48737954434935943 -8.7031695488854606 4.4885966681787011
v 0 -8.4019524250561197 5.2771933363574011
v -1.3016656936580842 -3.2619945587514412 4.4796757390232633
v -0.48186610692006943 -3.7686585673186519 5.8061393343284893
v -0.48737954434935943 -2.9968304511145387 4.4885966681787011
v 0 -3.2980475749438796 5.2771933363574011
v 0 -6.6697995867380149 6.5858150733517533
v 0 -5.0302004132619844 6.5858150733517533
v -1.3016656936580842 -8.4380054412485581 2.920324260976737
v -0.48186610692006943 -7.9313414326813474 1.5938606656715111
v -0.48737954434935943 -8.7031695488854606 2.9114033318212997
v 0 -8.4019524250561197 2.1228066636425993
v -1.3016656936580842 -3.2619945587514412 2.920324260976737
v -0.48186610692006943 -3.7686585673186519 1.5938606656715111
v -0.48737954434935943 -2.9968304511145387 2.9114033318212997
v 0 -3.2980475749438796 2.1228066636425993
v 0 -6.6697995867380149 0.81418492664824749
v 0 -5.0302004132619844 0.81418492664824749
v -2.0813414326813477 -3.7438606656715101 3.2181338930799308
v -2.5880054412485585 -5.0703242609767365 2.3983343063419156
v -1.7633557568774196 -3.7854271192932392 2.4240237874719401
v -2.0813414326813477 -7.9561393343284887 3.2181338930799308
v -2.5880054412485585 -6.6296757390232628 2.3983343063419156
v -1.7633557568774196 -7.9145728807067606 2.4240237874719401
v -0.77967573902326337 -7.1516656936580842 1.1119945587514417
v -2.1061393343284891 -6.331866106920069 1.6186585673186529
v -1.27597621252806 -7.6133557568774188 1.6354271192932397
v -0.78859666817870055 -6.3373795443493588 0.84683045111453925
v -2.0645728807067605 -7.1259762125280597 1.9366442431225808
v -0.77967573902326337 -4.548334306341915 1.1119945587514417
v -2.1061393343284891 -5.3681338930799303 1.6186585673186529
v -1.27597621252806 -4.0866442431225805 1.6354271192932397
v -0.78859666817870055 -5.3626204556506405 0.84683045111453925
v -2.0645728807067605 -4.5740237874719396 1.9366442431225808
v -1.5771933363574011 -5.8499999999999996 1.1480475749438805
v -2.0813414326813477 -3.7438606656715101 4.1818661069200695
v -2.5880054412485585 -5.0703242609767365 5.0016656936580848
v -1.7633557568774196 -3.7854271192932392 4.9759762125280602
v -2.5519524250561196 -4.2728066636425988 3.7000000000000002
v -2.0813414326813477 -7.9561393343284887 4.1818661069200695
v -2.5880054412485585 -6.6296757390232628 5.0016656936580848
v -1.7633557568774196 -7.9145728807067606 4.9759762125280602
v -2.5519524250561196 -7.4271933363574005 3.7000000000000002
v -0.77967573902326337 -7.1516656936580842 6.2880054412485586
v -2.1061393343284891 -6.331866106920069 5.7813414326813479
v -1.27597621252806 -7.6133557568774188 5.7645728807067602
v -0.78859666817870055 -6.3373795443493588 6.5531695488854611
v -2.0645728807067605 -7.1259762125280597 5.4633557568774194
v -0.77967573902326337 -4.548334306341915 6.2880054412485586
v -2.1061393343284891 -5.3681338930799303 5.7813414326813479
v -1.27597621252806 -4.0866442431225805 5.7645728807067602
v -0.78859666817870055 -5.3626204556506405 6.5531695488854611
v -2.0645728807067605 -4.5740237874719396 5.4633557568774194
v -1.5771933363574011 -5.8499999999999996 6.2519524250561194
v -2.8858150733517527 -5.8499999999999996 2.8802004132619849
v -2.8858150733517527 -5.8499999999999996 4.5197995867380154
v -2.8531695488854609 -5.0614033318212988 3.2126204556506406
v -2.8531695488854609 -6.6385966681787005 3.2126204556506406
v -2.8531695488854609 -5.0614033318212988 4.1873795443493602
v -2.8531695488854609 -6.6385966681787005 4.1873795443493602
v -1.2100660458520931 -3.1048697363010476 3.7000000000000002
v -0.41385672638290116 -2.8786833541294139 3.7000000000000002
v -1.2100660458520931 -8.5951302636989517 3.7000000000000002
v -0.41385672638290116 -8.8213166458705849 3.7000000000000002
v -1.4533249261820036 -8.4447880075898247 4.0936011364390383
v -1.125115702434629 -8.3817344238671705 4.8508411980551438
v -1.0746863804597369 -8.6229138018340379 4.0949661140561942
v -0.24325888032991053 -7.6969260626210421 6.0515291272599141
v -0.71125897605172783 -8.125956900489772 5.5204754478154427
v -0.24672739583808684 -8.8130650217854125 4.0992133124217744
v -0.71603079095877953 -8.5230195725651043 4.8585621567627761
v -0.66035108241987717 -8.7491777922073162 4.0983774304837075
v -0.90377663727969604 -8.5987325255736469 4.4922482519771965
v 0 -7.9587210914633193 5.8338452048866491
v 0 -8.741583790402867 4.4992141034037019
v -0.46930339512069263 -8.370533655981415 5.2577754691845504
v -0.24342555485981887 -8.1906131121303787 5.5607187478403413
v -0.24697074009588049 -8.5889474787968965 4.8988211551055532
v -1.4533249261820036 -3.2552119924101754 4.0936011364390383
v -1.125115702434629 -3.3182655761328288 4.8508411980551438
v -1.0746863804597369 -3.0770861981659614 4.0949661140561942
v -0.24325888032991053 -4.0030739373789572 6.0515291272599141
v -0.71125897605172783 -3.5740430995102277 5.5204754478154427
v -0.24672739583808684 -2.8869349782145863 4.0992133124217744
v -0.71603079095877953 -3.1769804274348958 4.8585621567627761
v -0.66035108241987717 -2.9508222077926822 4.0983774304837075
v -0.90377663727969604 -3.1012674744263524 4.4922482519771965
v 0 -3.74127890853668 5.8338452048866491
v 0 -2.9584162095971318 4.4992141034037019
v -0.46930339512069263 -3.3294663440185834 5.2577754691845504
v -0.24342555485981887 -3.5093868878696197 5.5607187478403413
v -0.24697074009588049 -3.1110525212031024 4.8988211551055532
v 0 -7.0600660458520927 6.4451302636989523
v 0 -6.263856726382901 6.6713166458705864
v 0 -4.6399339541479065 6.4451302636989523
v 0 -5.4361432736170983 6.6713166458705864
v -1.4533249261820036 -8.4447880075898247 3.3063988635609616
v -1.125115702434629 -8.3817344238671705 2.5491588019448566
v -1.0746863804597369 -8.6229138018340379 3.3050338859438062
v -0.24325888032991053 -7.6969260626210421 1.3484708727400863
v -0.71125897605172783 -8.125956900489772 1.8795245521845576
v -0.24672739583808684 -8.8130650217854125 3.3007866875782264
v -0.71603079095877953 -8.5230195725651043 2.5414378432372238
v -0.66035108241987717 -8.7491777922073162 3.3016225695162928
v -0.90377663727969604 -8.5987325255736469 2.9077517480228039
v 0 -7.9587210914633193 1.5661547951133512
v 0 -8.741583790402867 2.900785896596298
v -0.46930339512069263 -8.370533655981415 2.1422245308154499
v -0.24342555485981887 -8.1906131121303787 1.8392812521596591
v -0.24697074009588049 -8.5889474787968965 2.5011788448944468
v -1.4533249261820036 -3.2552119924101754 3.3063988635609616
v -1.125115702434629 -3.3182655761328288 2.5491588019448566
v -1.0746863804597369 -3.0770861981659614 3.3050338859438062
v -0.24325888032991053 -4.0030739373789572 1.3484708727400863
v -0.71125897605172783 -3.5740430995102277 1.8795245521845576
v -0.24672739583808684 -2.8869349782145863 3.3007866875782264
v -0.71603079095877953 -3.1769804274348958 2.5414378432372238
v -0.66035108241987717 -2.9508222077926822 3.3016225695162928
v -0.90377663727969604 -3.1012674744263524 2.9077517480228039
v 0 -3.74127890853668 1.5661547951133512
v 0 -2.9584162095971318 2.900785896596298
v -0.46930339512069263 -3.3294663440185834 2.1422245308154499
v -0.24342555485981887 -3.5093868878696197 1.8392812521596591
v -0.24697074009588049 -3.1110525212031024 2.5011788448944468
v 0 -7.0600660458520927 0.9548697363010481
v 0 -6.263856726382901 0.72868335412941443
v 0 -4.6399339541479065 0.9548697363010481
v 0 -5.4361432736170983 0.72868335412941443
v -1.8469260626210418 -3.4984708727400857 3.4567411196700895
v -2.275956900489772 -4.0295245521845571 2.9887410239482723
v -1.7137549774071259 -3.4720523122221554 3.0609314030526109
v -2.5947880075898242 -5.4563988635609615 2.2466750738179968
v -2.5317344238671704 -4.699158801944856 2.5748842975653714
v -1.3619714992186405 -3.5761937398566701 2.2947104473991371
v -2.1213203435596424 -4.0454971349773627 2.5847558966194466
v -1.548364860153183 -3.4996449049100598 2.6615409556330238
v -1.9422356816466722 -3.7430704597698785 2.811986222266694
v -1.8469260626210418 -8.2015291272599136 3.4567411196700895
v -2.275956900489772 -7.6704754478154422 2.9887410239482723
v -1.7137549774071259 -8.2279476877778439 3.0609314030526109
v -2.5947880075898242 -6.2436011364390378 2.2466750738179968
v -2.5317344238671704 -7.0008411980551433 2.5748842975653714
v -1.3619714992186405 -8.1238062601433292 2.2947104473991371
v -2.1213203435596424 -7.6545028650226365 2.5847558966194466
v -1.548364860153183 -8.2003550950899395 2.6615409556330238
v -1.9422356816466722 -7.9569295402301208 2.811986222266694
v -0.3936011364390386 -7.303324926182003 1.105211992410176
v -1.1508411980551436 -6.9751157024346284 1.1682655761328298
v -0.63906859694738938 -7.5637549774071253 1.3220523122221559
v -0.39496611405619386 -6.9246863804597361 0.92708619816596194
v -2.3515291272599139 -6.0932588803299099 1.8530739373789584
v -1.8204754478154426 -6.5612589760517279 1.4240430995102282
v -2.3779476877778443 -6.4890685969473889 1.9862450225928743
v -1.1152441033805534 -7.9713203435596416 1.8954971349773628
v -1.4052895526008633 -7.2119714992186399 1.4261937398566706
v -0.88801377773330603 -7.7922356816466714 1.5930704597698795
v -1.5401263236913438 -7.7897333753931948 2.0072373647026858
v -1.0384590443669763 -7.3983648601531833 1.3496449049100607
v -0.39921331242177405 -6.0967273958380863 0.73693497821458687
v -1.1585621567627764 -6.566030790958779 1.0269804274348964
v -0.39837743048370738 -6.5103510824198771 0.80082220779268276
v -0.79224825197719684 -6.7537766372796959 0.95126747442635295
v -2.2738062601433295 -7.2552895526008632 2.3380285007813599
v -1.8045028650226373 -6.9652441033805532 1.5786796564403578
v -2.3503550950899395 -6.888459044366976 2.151635139846817
v -1.9397333753931951 -7.5427626352973141 2.1598736763086563
v -2.1069295402301207 -6.7380137777333058 1.7577643183533282
v -1.6927626352973144 -7.3901263236913435 1.7602666246068051
v -0.3936011364390386 -4.3966750738179963 1.105211992410176
v -1.1508411980551436 -4.7248842975653709 1.1682655761328298
v -0.63906859694738938 -4.136245022592874 1.3220523122221559
v -0.39496611405619386 -4.7753136195402632 0.92708619816596194
v -2.3515291272599139 -5.6067411196700894 1.8530739373789584
v -1.8204754478154426 -5.1387410239482714 1.4240430995102282
v -2.3779476877778443 -5.2109314030526104 1.9862450225928743
v -2.133845204886649 -5.8499999999999996 1.5912789085366805
v -1.1152441033805534 -3.7286796564403573 1.8954971349773628
v -1.4052895526008633 -4.4880285007813594 1.4261937398566706
v -0.88801377773330603 -3.9077643183533279 1.5930704597698795
v -1.5401263236913438 -3.9102666246068045 2.0072373647026858
v -1.0384590443669763 -4.301635139846816 1.3496449049100607
v -0.39921331242177405 -5.603272604161913 0.73693497821458687
v -1.1585621567627764 -5.1339692090412203 1.0269804274348964
v -0.39837743048370738 -5.1896489175801221 0.80082220779268276
v -0.79921410340370236 -5.8499999999999996 0.80841620959713234
v -0.79224825197719684 -4.9462233627203034 0.95126747442635295
v -2.2738062601433295 -4.4447104473991361 2.3380285007813599
v -1.8045028650226373 -4.7347558966194461 1.5786796564403578
v -2.3503550950899395 -4.8115409556330233 2.151635139846817
v -1.9397333753931951 -4.1572373647026852 2.1598736763086563
v -2.1069295402301207 -4.9619862222666935 1.7577643183533282
v -1.6927626352973144 -4.3098736763086558 1.7602666246068051
v -1.5577754691845507 -6.3193033951206923 1.179466344018584
v -1.5577754691845507 -5.380696604879307 1.179466344018584
v -1.8607187478403411 -6.0934255548598184 1.3593868878696203
v -1.1988211551055534 -6.0969707400958804 0.96105252120310292
v -1.8607187478403411 -5.6065744451401809 1.3593868878696203
v -1.1988211551055534 -5.6030292599041189 0.96105252120310292
v -1.8469260626210418 -3.4984708727400857 3.9432588803299109
v -2.275956900489772 -4.0295245521845571 4.4112589760517285
v -1.7137549774071259 -3.4720523122221554 4.3390685969473894
v -2.1087210914633197 -3.7161547951133507 3.7000000000000002
v -2.5947880075898242 -5.4563988635609615 5.1533249261820036
v -2.5317344238671704 -4.699158801944856 4.825115702434629
v -1.3619714992186405 -3.5761937398566701 5.1052895526008637
v -2.1213203435596424 -4.0454971349773627 4.8152441033805538
v -1.548364860153183 -3.4996449049100598 4.7384590443669765
v -1.9422356816466722 -3.7430704597698785 4.5880137777333063
v -2.5205336559814162 -4.2922245308154494 3.2306966048793075
v -2.5205336559814162 -4.2922245308154494 4.1693033951206928
v -2.3406131121303799 -3.9892812521596586 3.4565744451401814
v -2.3406131121303799 -3.9892812521596586 3.9434255548598189
v -1.8469260626210418 -8.2015291272599136 3.9432588803299109
v -2.275956900489772 -7.6704754478154422 4.4112589760517285
v -1.7137549774071259 -8.2279476877778439 4.3390685969473894
v -2.1087210914633197 -7.9838452048866486 3.7000000000000002
v -2.5947880075898242 -6.2436011364390378 5.1533249261820036
v -2.5317344238671704 -7.0008411980551433 4.825115702434629
v -1.3619714992186405 -8.1238062601433292 5.1052895526008637
v -2.1213203435596424 -7.6545028650226365 4.8152441033805538
v -1.548364860153183 -8.2003550950899395 4.7384590443669765
v -1.9422356816466722 -7.9569295402301208 4.5880137777333063
v -2.5205336559814162 -7.4077754691845499 3.2306966048793075
v -2.5205336559814162 -7.4077754691845499 4.1693033951206928
v -2.3406131121303799 -7.7107187478403407 3.4565744451401814
v -2.3406131121303799 -7.7107187478403407 3.9434255548598189
v -0.3936011364390386 -7.303324926182003 6.2947880075898244
v -1.1508411980551436 -6.9751157024346284 6.2317344238671701
v -0.63906859694738938 -7.5637549774071253 6.0779476877778444
v -0.39496611405619386 -6.9246863804597361 6.4729138018340384
v -2.3515291272599139 -6.0932588803299099 5.5469260626210417
v -1.8204754478154426 -6.5612589760517279 5.9759569004897717
v -2.3779476877778443 -6.4890685969473889 5.4137549774071259
v -1.1152441033805534 -7.9713203435596416 5.5045028650226371
v -1.4052895526008633 -7.2119714992186399 5.9738062601433297
v -0.88801377773330603 -7.7922356816466714 5.8069295402301204
v -1.5401263236913438 -7.7897333753931948 5.3927626352973146
v -1.0384590443669763 -7.3983648601531833 6.0503550950899392
v -0.39921331242177405 -6.0967273958380863 6.6630650217854139
v -1.1585621567627764 -6.566030790958779 6.373019572565104
v -0.39837743048370738 -6.5103510824198771 6.5991777922073176
v -0.79224825197719684 -6.7537766372796959 6.4487325255736474
v -2.2738062601433295 -7.2552895526008632 5.0619714992186404
v -1.8045028650226373 -6.9652441033805532 5.821320343559643
v -2.3503550950899395 -6.888459044366976 5.2483648601531829
v -1.9397333753931951 -7.5427626352973141 5.240126323691344
v -2.1069295402301207 -6.7380137777333058 5.6422356816466719
v -1.6927626352973144 -7.3901263236913435 5.6397333753931953
v -0.3936011364390386 -4.3966750738179963 6.2947880075898244
v -1.1508411980551436 -4.7248842975653709 6.2317344238671701
v -0.63906859694738938 -4.136245022592874 6.0779476877778444
v -0.39496611405619386 -4.7753136195402632 6.4729138018340384
v -2.3515291272599139 -5.6067411196700894 5.5469260626210417
v -1.8204754478154426 -5.1387410239482714 5.9759569004897717
v -2.3779476877778443 -5.2109314030526104 5.4137549774071259
v -2.133845204886649 -5.8499999999999996 5.8087210914633198
v -1.1152441033805534 -3.7286796564403573 5.5045028650226371
v -1.4052895526008633 -4.4880285007813594 5.9738062601433297
v -0.88801377773330603 -3.9077643183533279 5.8069295402301204
v -1.5401263236913438 -3.9102666246068045 5.3927626352973146
v -1.0384590443669763 -4.301635139846816 6.0503550950899392
v -0.39921331242177405 -5.603272604161913 6.6630650217854139
v -1.1585621567627764 -5.1339692090412203 6.373019572565104
v -0.39837743048370738 -5.1896489175801221 6.5991777922073176
v -0.79921410340370236 -5.8499999999999996 6.5915837904028685
v -0.79224825197719684 -4.9462233627203034 6.4487325255736474
v -2.2738062601433295 -4.4447104473991361 5.0619714992186404
v -1.8045028650226373 -4.7347558966194461 5.821320343559643
v -2.3503550950899395 -4.8115409556330233 5.2483648601531829
v -1.9397333753931951 -4.1572373647026852 5.240126323691344
v -2.1069295402301207 -4.9619862222666935 5.6422356816466719
v -1.6927626352973144 -4.3098736763086558 5.6397333753931953
v -1.5577754691845507 -6.3193033951206923 6.2205336559814164
v -1.5577754691845507 -5.380696604879307 6.2205336559814164
v -1.8607187478403411 -6.0934255548598184 6.0406131121303801
v -1.1988211551055534 -6.0969707400958804 6.4389474787968979
v -1.8607187478403411 -5.6065744451401809 6.0406131121303801
v -1.1988211551055534 -5.6030292599041189 6.4389474787968979
v -2.7451302636989521 -5.8499999999999996 2.4899339541479071
v -2.9713166458705857 -5.8499999999999996 3.2861432736170988
v -2.7729138018340382 -5.4550338859438057 2.6253136195402633
v -2.7729138018340382 -6.2449661140561936 2.6253136195402633
v -2.7451302636989521 -5.8499999999999996 4.9100660458520933
v -2.9713166458705857 -5.8499999999999996 4.1138567263829016
v -2.7729138018340382 -5.4550338859438057 4.7746863804597375
v -2.7729138018340382 -6.2449661140561936 4.7746863804597375
v -2.6730195725651038 -4.6914378432372228 2.9839692090412209
v -2.9630650217854133 -5.4507866875782254 3.4532726041619131
v -2.7487325255736472 -5.0577517480228025 2.7962233627203039
v -2.7389474787968973 -4.6511788448944458 3.4530292599041195
v -2.8991777922073174 -5.4516225695162923 3.0396489175801227
v -2.6730195725651038 -7.0085621567627765 2.9839692090412209
v -2.9630650217854133 -6.2492133124217739 3.4532726041619131
v -2.7487325255736472 -6.6422482519771968 2.7962233627203039
v -2.7389474787968973 -7.0488211551055535 3.4530292599041195
v -2.8991777922073174 -6.248377430483707 3.0396489175801227
v -2.6730195725651038 -4.6914378432372228 4.4160307909587795
v -2.9630650217854133 -5.4507866875782254 3.9467273958380873
v -2.7487325255736472 -5.0577517480228025 4.6037766372796964
v -2.7389474787968973 -4.6511788448944458 3.9469707400958809
v -2.8991777922073174 -5.4516225695162923 4.3603510824198777
v -2.8915837904028678 -5.0507858965962971 3.7000000000000002
v -2.6730195725651038 -7.0085621567627765 4.4160307909587795
v -2.9630650217854133 -6.2492133124217739 3.9467273958380873
v -2.7487325255736472 -6.6422482519771968 4.6037766372796964
v -2.7389474787968973 -7.0488211551055535 3.9469707400958809
v -2.8991777922073174 -6.248377430483707 4.3603510824198777
v -2.8915837904028678 -6.6492141034037022 3.7000000000000002
v 6.643441948496366 -3.2980475749438796 3.7000000000000002
v 6.643441948496366 -8.4019524250561197 3.7000000000000002
v 5.0662486121389652 -7.4271933363574005 6.2519524250561203
v 5.0662486121389652 -4.2728066636425988 6.2519524250561203
v 5.0662486121389652 -7.4271933363574005 1.1480475749438801
v 5.0662486121389652 -4.2728066636425988 1.1480475749438801
v 7.6182010371950852 -5.8499999999999996 2.1228066636425993
v 7.6182010371950852 -5.8499999999999996 5.2771933363574011
v 5.0662486121389652 -2.8499999999999996 3.7000000000000002
v 5.0662486121389652 -8.8499999999999996 3.7000000000000002
v 5.9932995952638075 -8.2770509831248411 5.2000000000000011
v 5.9932995952638075 -3.4229490168751573 5.2000000000000011
v 5.0662486121389652 -5.8499999999999996 6.7000000000000002
v 5.9932995952638075 -8.2770509831248411 2.1999999999999997
v 5.9932995952638075 -3.4229490168751573 2.1999999999999997
v 5.0662486121389652 -5.8499999999999996 0.70000000000000018
v 7.4932995952638075 -4.3499999999999996 2.7729490168751578
v 7.4932995952638075 -7.3499999999999996 2.7729490168751578
v 6.5662486121389652 -6.777050983124842 1.2729490168751578
v 6.5662486121389652 -4.9229490168751573 1.2729490168751578
v 7.4932995952638075 -4.3499999999999996 4.6270509831248425
v 7.4932995952638075 -7.3499999999999996 4.6270509831248425
v 6.5662486121389652 -6.777050983124842 6.1270509831248425
v 6.5662486121389652 -4.9229490168751573 6.1270509831248425
v 8.0662486121389652 -5.8499999999999996 3.7000000000000002
v 5.8860481988769804 -2.964184926648247 3.7000000000000002
v 5.8860481988769804 -8.7358150733517519 3.7000000000000002
v 6.3679143057970489 -8.4380054412485581 4.4796757390232633
v 5.5481147190590345 -7.9313414326813474 5.8061393343284893
v 5.5536281564883243 -8.7031695488854606 4.4885966681787011
v 5.0662486121389652 -8.4019524250561197 5.2771933363574011
v 6.3679143057970489 -3.2619945587514412 4.4796757390232633
v 5.5481147190590345 -3.7686585673186519 5.8061393343284893
v 5.5536281564883243 -2.9968304511145387 4.4885966681787011
v 5.0662486121389652 -3.2980475749438796 5.2771933363574011
v 5.0662486121389652 -6.6697995867380149 6.5858150733517533
v 5.0662486121389652 -5.0302004132619844 6.5858150733517533
v 6.3679143057970489 -8.4380054412485581 2.920324260976737
v 5.5481147190590345 -7.9313414326813474 1.5938606656715111
v 5.5536281564883243 -8.7031695488854606 2.9114033318212997
v 5.0662486121389652 -8.4019524250561197 2.1228066636425993
v 6.3679143057970489 -3.2619945587514412 2.920324260976737
v 5.5481147190590345 -3.7686585673186519 1.5938606656715111
v 5.5536281564883243 -2.9968304511145387 2.9114033318212997
v 5.0662486121389652 -3.2980475749438796 2.1228066636425993
v 5.0662486121389652 -6.6697995867380149 0.81418492664824749
v 5.0662486121389652 -5.0302004132619844 0.81418492664824749
v 7.1475900448203129 -3.7438606656715101 3.2181338930799308
v 7.6542540533875236 -5.0703242609767365 2.3983343063419156
v 6.8296043690163852 -3.7854271192932392 2.4240237874719401
v 7.1475900448203129 -7.9561393343284887 3.2181338930799308
v 7.6542540533875236 -6.6296757390232628 2.3983343063419156
v 6.8296043690163852 -7.9145728807067606 2.4240237874719401
v 5.8459243511622283 -7.1516656936580842 1.1119945587514417
v 7.1723879464674543 -6.331866106920069 1.6186585673186529
v 6.3422248246670252 -7.6133557568774188 1.6354271192932397
v 5.854845280317666 -6.3373795443493588 0.84683045111453925
v 7.1308214928457261 -7.1259762125280597 1.9366442431225808
v 5.8459243511622283 -4.548334306341915 1.1119945587514417
v 7.1723879464674543 -5.3681338930799303 1.6186585673186529
v 6.3422248246670252 -4.0866442431225805 1.6354271192932397
v 5.854845280317666 -5.3626204556506405 0.84683045111453925
v 7.1308214928457261 -4.5740237874719396 1.9366442431225808
v 6.643441948496366 -5.8499999999999996 1.1480475749438805
v 7.1475900448203129 -3.7438606656715101 4.1818661069200695
v 7.6542540533875236 -5.0703242609767365 5.0016656936580848
v 6.8296043690163852 -3.7854271192932392 4.9759762125280602
v 7.6182010371950852 -4.2728066636425988 3.7000000000000002
v 7.1475900448203129 -7.9561393343284887 4.1818661069200695
v 7.6542540533875236 -6.6296757390232628 5.0016656936580848
v 6.8296043690163852 -7.9145728807067606 4.9759762125280602
v 7.6182010371950852 -7.4271933363574005 3.7000000000000002
v 5.8459243511622283 -7.1516656936580842 6.2880054412485586
v 7.1723879464674543 -6.331866106920069 5.7813414326813479
v 6.3422248246670252 -7.6133557568774188 5.7645728807067602
v 5.854845280317666 -6.3373795443493588 6.5531695488854611
v 7.1308214928457261 -7.1259762125280597 5.4633557568774194
v 5.8459243511622283 -4.548334306341915 6.2880054412485586
v 7.1723879464674543 -5.3681338930799303 5.7813414326813479
v 6.3422248246670252 -4.0866442431225805 5.7645728807067602
v 5.854845280317666 -5.3626204556506405 6.5531695488854611
v 7.1308214928457261 -4.5740237874719396 5.4633557568774194
v 6.643441948496366 -5.8499999999999996 6.2519524250561194
v 7.9520636854907174 -5.8499999999999996 2.8802004132619849
v 7.9520636854907174 -5.8499999999999996 4.5197995867380154
v 7.9194181610244261 -5.0614033318212988 3.2126204556506406
v 7.9194181610244261 -6.6385966681787005 3.2126204556506406
v 7.9194181610244261 -5.0614033318212988 4.1873795443493602
v 7.9194181610244261 -6.6385966681787005 4.1873795443493602
v 6.2763146579910583 -3.1048697363010476 3.7000000000000002
v 5.4801053385218665 -2.8786833541294139 3.7000000000000002
v 6.2763146579910583 -8.5951302636989517 3.7000000000000002
v 5.4801053385218665 -8.8213166458705849 3.7000000000000002
v 6.5195735383209685 -8.4447880075898247 4.0936011364390383
v 6.1913643145735939 -8.3817344238671705 4.8508411980551438
v 6.1409349925987016 -8.6229138018340379 4.0949661140561942
v 5.3095074924688754 -7.6969260626210421 6.0515291272599141
v 5.7775075881906925 -8.125956900489772 5.5204754478154427
v 5.0662486121389652 -7.9587210914633193 5.8338452048866491
v 5.3129760079770518 -8.8130650217854125 4.0992133124217744
v 5.7822794030977445 -8.5230195725651043 4.8585621567627761
v 5.7265996945588427 -8.7491777922073162 4.0983774304837075
v 5.0662486121389652 -8.741583790402867 4.4992141034037019
v 5.9700252494186614 -8.5987325255736469 4.4922482519771965
v 5.5355520072596578 -8.370533655981415 5.2577754691845504
v 5.3096741669987839 -8.1906131121303787 5.5607187478403413
v 5.3132193522348459 -8.5889474787968965 4.8988211551055532
v 6.5195735383209685 -3.2552119924101754 4.0936011364390383
v 6.1913643145735939 -3.3182655761328288 4.8508411980551438
v 6.1409349925987016 -3.0770861981659614 4.0949661140561942
v 5.3095074924688754 -4.0030739373789572 6.0515291272599141
v 5.7775075881906925 -3.5740430995102277 5.5204754478154427
v 5.0662486121389652 -3.74127890853668 5.8338452048866491
v 5.3129760079770518 -2.8869349782145863 4.0992133124217744
v 5.7822794030977445 -3.1769804274348958 4.8585621567627761
v 5.7265996945588427 -2.9508222077926822 4.0983774304837075
v 5.0662486121389652 -2.9584162095971318 4.4992141034037019
v 5.9700252494186614 -3.1012674744263524 4.4922482519771965
v 5.5355520072596578 -3.3294663440185834 5.2577754691845504
v 5.3096741669987839 -3.5093868878696197 5.5607187478403413
v 5.3132193522348459 -3.1110525212031024 4.8988211551055532
v 5.0662486121389652 -7.0600660458520927 6.4451302636989523
v 5.0662486121389652 -6.263856726382901 6.6713166458705864
v 5.0662486121389652 -4.6399339541479065 6.4451302636989523
v 5.0662486121389652 -5.4361432736170983 6.6713166458705864
v 6.5195735383209685 -8.4447880075898247 3.3063988635609616
v 6.1913643145735939 -8.3817344238671705 2.5491588019448566
v 6.1409349925987016 -8.6229138018340379 3.3050338859438062
v 5.3095074924688754 -7.6969260626210421 1.3484708727400863
v 5.7775075881906925 -8.125956900489772 1.8795245521845576
v 5.0662486121389652 -7.9587210914633193 1.5661547951133512
v 5.3129760079770518 -8.8130650217854125 3.3007866875782264
v 5.7822794030977445 -8.5230195725651043 2.5414378432372238
v 5.7265996945588427 -8.7491777922073162 3.3016225695162928
v 5.0662486121389652 -8.741583790402867 2.900785896596298
v 5.9700252494186614 -8.5987325255736469 2.9077517480228039
v 5.5355520072596578 -8.370533655981415 2.1422245308154499
v 5.3096741669987839 -8.1906131121303787 1.8392812521596591
v 5.3132193522348459 -8.5889474787968965 2.5011788448944468
v 6.5195735383209685 -3.2552119924101754 3.3063988635609616
v 6.1913643145735939 -3.3182655761328288 2.5491588019448566
v 6.1409349925987016 -3.0770861981659614 3.3050338859438062
v 5.3095074924688754 -4.0030739373789572 1.3484708727400863
v 5.7775075881906925 -3.5740430995102277 1.8795245521845576
v 5.0662486121389652 -3.74127890853668 1.5661547951133512
v 5.3129760079770518 -2.8869349782145863 3.3007866875782264
v 5.7822794030977445 -3.1769804274348958 2.5414378432372238
v 5.7265996945588427 -2.9508222077926822 3.3016225695162928
v 5.0662486121389652 -2.9584162095971318 2.900785896596298
v 5.9700252494186614 -3.1012674744263524 2.9077517480228039
v 5.5355520072596578 -3.3294663440185834 2.1422245308154499
v 5.3096741669987839 -3.5093868878696197 1.8392812521596591
v 5.3132193522348459 -3.1110525212031024 2.5011788448944468
v 5.0662486121389652 -7.0600660458520927 0.9548697363010481
v 5.0662486121389652 -6.263856726382901 0.72868335412941443
v 5.0662486121389652 -4.6399339541479065 0.9548697363010481
v 5.0662486121389652 -5.4361432736170983 0.72868335412941443
v 6.9131746747600067 -3.4984708727400857 3.4567411196700895
v 7.3422055126287376 -4.0295245521845571 2.9887410239482723
v 6.7800035895460908 -3.4720523122221554 3.0609314030526109
v 7.6610366197287894 -5.4563988635609615 2.2466750738179968
v 7.597983036006136 -4.699158801944856 2.5748842975653714
v 6.4282201113576054 -3.5761937398566701 2.2947104473991371
v 7.1875689556986071 -4.0454971349773627 2.5847558966194466
v 6.6146134722921479 -3.4996449049100598 2.6615409556330238
v 7.0084842937856369 -3.7430704597698785 2.811986222266694
v 6.9131746747600067 -8.2015291272599136 3.4567411196700895
v 7.3422055126287376 -7.6704754478154422 2.9887410239482723
v 6.7800035895460908 -8.2279476877778439 3.0609314030526109
v 7.6610366197287894 -6.2436011364390378 2.2466750738179968
v 7.597983036006136 -7.0008411980551433 2.5748842975653714
v 6.4282201113576054 -8.1238062601433292 2.2947104473991371
v 7.1875689556986071 -7.6545028650226365 2.5847558966194466
v 6.6146134722921479 -8.2003550950899395 2.6615409556330238
v 7.0084842937856369 -7.9569295402301208 2.811986222266694
v 5.4598497485780033 -7.303324926182003 1.105211992410176
v 6.2170898101941088 -6.9751157024346284 1.1682655761328298
v 5.7053172090863544 -7.5637549774071253 1.3220523122221559
v 5.4612147261951591 -6.9246863804597361 0.92708619816596194
v 7.4177777393988791 -6.0932588803299099 1.8530739373789584
v 6.8867240599544077 -6.5612589760517279 1.4240430995102282
v 7.4441962999168094 -6.4890685969473889 1.9862450225928743
v 6.1814927155195187 -7.9713203435596416 1.8954971349773628
v 6.4715381647398287 -7.2119714992186399 1.4261937398566706
v 5.9542623898722713 -7.7922356816466714 1.5930704597698795
v 6.606374935830309 -7.7897333753931948 2.0072373647026858
v 6.1047076565059415 -7.3983648601531833 1.3496449049100607
v 5.4654619245607394 -6.0967273958380863 0.73693497821458687
v 6.224810768901742 -6.566030790958779 1.0269804274348964
v 5.4646260426226725 -6.5103510824198771 0.80082220779268276
v 5.8584968641161623 -6.7537766372796959 0.95126747442635295
v 7.3400548722822947 -7.2552895526008632 2.3380285007813599
v 6.8707514771616029 -6.9652441033805532 1.5786796564403578
v 7.4166037072289051 -6.888459044366976 2.151635139846817
v 7.0059819875321603 -7.5427626352973141 2.1598736763086563
v 7.1731781523690863 -6.7380137777333058 1.7577643183533282
v 6.7590112474362796 -7.3901263236913435 1.7602666246068051
v 5.4598497485780033 -4.3966750738179963 1.105211992410176
v 6.2170898101941088 -4.7248842975653709 1.1682655761328298
v 5.7053172090863544 -4.136245022592874 1.3220523122221559
v 5.4612147261951591 -4.7753136195402632 0.92708619816596194
v 7.4177777393988791 -5.6067411196700894 1.8530739373789584
v 6.8867240599544077 -5.1387410239482714 1.4240430995102282
v 7.4441962999168094 -5.2109314030526104 1.9862450225928743
v 7.2000938170256141 -5.8499999999999996 1.5912789085366805
v 6.1814927155195187 -3.7286796564403573 1.8954971349773628
v 6.4715381647398287 -4.4880285007813594 1.4261937398566706
v 5.9542623898722713 -3.9077643183533279 1.5930704597698795
v 6.606374935830309 -3.9102666246068045 2.0072373647026858
v 6.1047076565059415 -4.301635139846816 1.3496449049100607
v 5.4654619245607394 -5.603272604161913 0.73693497821458687
v 6.224810768901742 -5.1339692090412203 1.0269804274348964
v 5.4646260426226725 -5.1896489175801221 0.80082220779268276
v 5.8654627155426677 -5.8499999999999996 0.80841620959713234
v 5.8584968641161623 -4.9462233627203034 0.95126747442635295
v 7.3400548722822947 -4.4447104473991361 2.3380285007813599
v 6.8707514771616029 -4.7347558966194461 1.5786796564403578
v 7.4166037072289051 -4.8115409556330233 2.151635139846817
v 7.0059819875321603 -4.1572373647026852 2.1598736763086563
v 7.1731781523690863 -4.9619862222666935 1.7577643183533282
v 6.7590112474362796 -4.3098736763086558 1.7602666246068051
v 6.6240240813235154 -6.3193033951206923 1.179466344018584
v 6.6240240813235154 -5.380696604879307 1.179466344018584
v 6.9269673599793062 -6.0934255548598184 1.3593868878696203
v 6.265069767244519 -6.0969707400958804 0.96105252120310292
v 6.9269673599793062 -5.6065744451401809 1.3593868878696203
v 6.265069767244519 -5.6030292599041189 0.96105252120310292
v 6.9131746747600067 -3.4984708727400857 3.9432588803299109
v 7.3422055126287376 -4.0295245521845571 4.4112589760517285
v 6.7800035895460908 -3.4720523122221554 4.3390685969473894
v 7.1749697036022848 -3.7161547951133507 3.7000000000000002
v 7.6610366197287894 -5.4563988635609615 5.1533249261820036
v 7.597983036006136 -4.699158801944856 4.825115702434629
v 6.4282201113576054 -3.5761937398566701 5.1052895526008637
v 7.1875689556986071 -4.0454971349773627 4.8152441033805538
v 6.6146134722921479 -3.4996449049100598 4.7384590443669765
v 7.0084842937856369 -3.7430704597698785 4.5880137777333063
v 7.5867822681203814 -4.2922245308154494 3.2306966048793075
v 7.5867822681203814 -4.2922245308154494 4.1693033951206928
v 7.4068617242693451 -3.9892812521596586 3.4565744451401814
v 7.4068617242693451 -3.9892812521596586 3.9434255548598189
v 6.9131746747600067 -8.2015291272599136 3.9432588803299109
v 7.3422055126287376 -7.6704754478154422 4.4112589760517285
v 6.7800035895460908 -8.2279476877778439 4.3390685969473894
v 7.1749697036022848 -7.9838452048866486 3.7000000000000002
v 7.6610366197287894 -6.2436011364390378 5.1533249261820036
v 7.597983036006136 -7.0008411980551433 4.825115702434629
v 6.4282201113576054 -8.1238062601433292 5.1052895526008637
v 7.1875689556986071 -7.6545028650226365 4.8152441033805538
v 6.6146134722921479 -8.2003550950899395 4.7384590443669765
v 7.0084842937856369 -7.9569295402301208 4.5880137777333063
v 7.5867822681203814 -7.4077754691845499 3.2306966048793075
v 7.5867822681203814 -7.4077754691845499 4.1693033951206928
v 7.4068617242693451 -7.7107187478403407 3.4565744451401814
v 7.4068617242693451 -7.7107187478403407 3.9434255548598189
v 5.4598497485780033 -7.303324926182003 6.2947880075898244
v 6.2170898101941088 -6.9751157024346284 6.2317344238671701
v 5.7053172090863544 -7.5637549774071253 6.0779476877778444
v 5.4612147261951591 -6.9246863804597361 6.4729138018340384
v 7.4177777393988791 -6.0932588803299099 5.5469260626210417
v 6.8867240599544077 -6.5612589760517279 5.9759569004897717
v 7.4441962999168094 -6.4890685969473889 5.4137549774071259
v 6.1814927155195187 -7.9713203435596416 5.5045028650226371
v 6.4715381647398287 -7.2119714992186399 5.9738062601433297
v 5.9542623898722713 -7.7922356816466714 5.8069295402301204
v 6.606374935830309 -7.7897333753931948 5.3927626352973146
v 6.1047076565059415 -7.3983648601531833 6.0503550950899392
v 5.4654619245607394 -6.0967273958380863 6.6630650217854139
v 6.224810768901742 -6.566030790958779 6.373019572565104
v 5.4646260426226725 -6.5103510824198771 6.5991777922073176
v 5.8584968641161623 -6.7537766372796959 6.4487325255736474
v 7.3400548722822947 -7.2552895526008632 5.0619714992186404
v 6.8707514771616029 -6.9652441033805532 5.821320343559643
v 7.4166037072289051 -6.888459044366976 5.2483648601531829
v 7.0059819875321603 -7.5427626352973141 5.240126323691344
v 7.1731781523690863 -6.7380137777333058 5.6422356816466719
v 6.7590112474362796 -7.3901263236913435 5.6397333753931953
v 5.4598497485780033 -4.3966750738179963 6.2947880075898244
v 6.2170898101941088 -4.7248842975653709 6.2317344238671701
v 5.7053172090863544 -4.136245022592874 6.0779476877778444
v 5.4612147261951591 -4.7753136195402632 6.4729138018340384
v 7.4177777393988791 -5.6067411196700894 5.5469260626210417
v 6.8867240599544077 -5.1387410239482714 5.9759569004897717
v 7.4441962999168094 -5.2109314030526104 5.4137549774071259
v 7.2000938170256141 -5.8499999999999996 5.8087210914633198
v 6.1814927155195187 -3.7286796564403573 5.5045028650226371
v 6.4715381647398287 -4.4880285007813594 5.9738062601433297
v 5.9542623898722713 -3.9077643183533279 5.8069295402301204
v 6.606374935830309 -3.9102666246068045 5.3927626352973146
v 6.1047076565059415 -4.301635139846816 6.0503550950899392
v 5.4654619245607394 -5.603272604161913 6.6630650217854139
v 6.224810768901742 -5.1339692090412203 6.373019572565104
v 5.4646260426226725 -5.1896489175801221 6.5991777922073176
v 5.8654627155426677 -5.8499999999999996 6.5915837904028685
v 5.8584968641161623 -4.9462233627203034 6.4487325255736474
v 7.3400548722822947 -4.4447104473991361 5.0619714992186404
v 6.8707514771616029 -4.7347558966194461 5.821320343559643
v 7.4166037072289051 -4.8115409556330233 5.2483648601531829
v 7.0059819875321603 -4.1572373647026852 5.240126323691344
v 7.1731781523690863 -4.9619862222666935 5.6422356816466719
v 6.7590112474362796 -4.3098736763086558 5.6397333753931953
v 6.6240240813235154 -6.3193033951206923 6.2205336559814164
v 6.6240240813235154 -5.380696604879307 6.2205336559814164
v 6.9269673599793062 -6.0934255548598184 6.0406131121303801
v 6.265069767244519 -6.0969707400958804 6.4389474787968979
v 6.9269673599793062 -5.6065744451401809 6.0406131121303801
v 6.265069767244519 -5.6030292599041189 6.4389474787968979
v 7.8113788758379172 -5.8499999999999996 2.4899339541479071
v 8.0375652580095505 -5.8499999999999996 3.2861432736170988
v 7.8391624139730034 -5.4550338859438057 2.6253136195402633
v 7.8391624139730034 -6.2449661140561936 2.6253136195402633
v 7.8113788758379172 -5.8499999999999996 4.9100660458520933
v 8.0375652580095505 -5.8499999999999996 4.1138567263829016
v 7.8391624139730034 -5.4550338859438057 4.7746863804597375
v 7.8391624139730034 -6.2449661140561936 4.7746863804597375
v 7.739268184704069 -4.6914378432372228 2.9839692090412209
v 8.029313633924378 -5.4507866875782254 3.4532726041619131
v 7.8149811377126124 -5.0577517480228025 2.7962233627203039
v 7.805196090935862 -4.6511788448944458 3.4530292599041195
v 7.9654264043462826 -5.4516225695162923 3.0396489175801227
v 7.739268184704069 -7.0085621567627765 2.9839692090412209
v 8.029313633924378 -6.2492133124217739 3.4532726041619131
v 7.8149811377126124 -6.6422482519771968 2.7962233627203039
v 7.805196090935862 -7.0488211551055535 3.4530292599041195
v 7.9654264043462826 -6.248377430483707 3.0396489175801227
v 7.739268184704069 -4.6914378432372228 4.4160307909587795
v 8.029313633924378 -5.4507866875782254 3.9467273958380873
v 7.8149811377126124 -5.0577517480228025 4.6037766372796964
v 7.805196090935862 -4.6511788448944458 3.9469707400958809
v 7.9654264043462826 -5.4516225695162923 4.3603510824198777
v 7.9578324025418326 -5.0507858965962971 3.7000000000000002
v 7.739268184704069 -7.0085621567627765 4.4160307909587795
v 8.029313633924378 -6.2492133124217739 3.9467273958380873
v 7.8149811377126124 -6.6422482519771968 4.6037766372796964
v 7.805196090935862 -7.0488211551055535 3.9469707400958809
v 7.9654264043462826 -6.248377430483707 4.3603510824198777
v 7.9578324025418326 -6.6492141034037022 3.7000000000000002
f 252 324 321
f 192 195 173
f 197 184 56
f 189 225 57
f 57 225 214
f 388 591 582
f 178 129 39
f 138 130 39
f 129 135 39
f 39 135 138
f 275 277 77
f 77 272 275
f 74 260 262
f 261 304 74
f 285 260 74
f 74 304 285
f 321 324 87
f 87 322 325
f 334 336 89
f 89 332 334
f 335 332 89
f 254 245 255
f 11 263 248
f 248 95 11
f 601 412 614
f 411 599 597
f 613 599 411
f 640 644 420
f 10 93 131
f 137 130 138
f 138 41 137
f 137 41 139
f 64 225 222
f 222 225 189
f 189 19 222
f 222 19 181
f 18 252 321
f 18 192 173
f 188 211 16
f 214 211 188
f 188 57 214
f 188 190 57
f 190 188 155
f 155 188 16
f 179 190 46
f 190 155 46
f 187 54 178
f 187 56 184
f 179 54 191
f 189 57 191
f 191 190 179
f 57 190 191
f 177 19 189
f 189 191 177
f 177 191 54
f 184 19 177
f 177 187 184
f 54 187 177
f 540 563 560
f 214 225 227
f 227 225 64
f 145 91 9
f 161 7 308
f 394 526 528
f 528 527 394
f 562 394 551
f 526 394 562
f 528 526 514
f 514 526 356
f 525 527 492
f 492 353 525
f 551 394 525
f 525 394 527
f 515 524 522
f 466 513 515
f 516 513 491
f 516 527 528
f 660 662 424
f 648 662 660
f 441 433 365
f 530 533 395
f 395 534 530
f 522 524 393
f 532 529 510
f 532 534 395
f 395 529 532
f 176 54 179
f 178 54 176
f 176 129 178
f 176 5 129
f 179 46 154
f 154 176 179
f 5 176 154
f 491 513 342
f 342 513 466
f 178 39 185
f 185 187 178
f 56 187 185
f 185 39 130
f 262 70 274
f 272 77 274
f 262 260 246
f 246 70 262
f 273 77 277
f 273 23 261
f 269 23 257
f 327 317 25
f 331 317 327
f 243 251 249
f 275 272 249
f 249 71 275
f 251 71 249
f 244 242 94
f 83 304 302
f 302 305 83
f 302 304 261
f 269 305 302
f 302 23 269
f 261 23 302
f 278 124 4
f 4 111 278
f 602 412 604
f 604 412 601
f 82 301 299
f 163 165 141
f 163 206 209
f 318 320 86
f 331 319 86
f 86 317 331
f 320 317 86
f 325 322 309
f 309 84 325
f 309 322 25
f 25 317 309
f 309 317 320
f 320 84 309
f 253 332 335
f 253 255 243
f 243 249 22
f 22 249 272
f 22 253 243
f 332 253 22
f 335 89 337
f 324 335 337
f 337 87 324
f 322 87 337
f 69 245 242
f 69 255 245
f 243 255 69
f 69 251 243
f 242 244 69
f 69 244 251
f 72 335 324
f 254 255 72
f 72 252 254
f 324 252 72
f 72 253 335
f 255 253 72
f 266 75 277
f 263 75 266
f 266 277 275
f 248 263 266
f 275 71 266
f 266 71 248
f 265 75 263
f 265 29 258
f 265 258 267
f 267 75 265
f 99 93 10
f 95 102 100
f 100 11 95
f 650 670 362
f 673 650 422
f 670 650 673
f 582 591 592
f 611 599 613
f 360 601 610
f 601 614 610
f 624 361 634
f 624 417 627
f 623 417 626
f 634 419 638
f 638 624 634
f 626 417 638
f 417 624 638
f 622 411 597
f 641 411 622
f 620 361 640
f 634 361 620
f 637 419 634
f 634 620 637
f 637 620 416
f 637 635 419
f 641 420 639
f 639 606 360
f 422 650 667
f 362 646 654
f 288 33 112
f 112 33 120
f 130 137 14
f 587 365 581
f 612 614 603
f 603 614 412
f 439 433 441
f 64 222 224
f 224 222 181
f 171 194 192
f 171 18 321
f 192 18 171
f 193 184 197
f 181 19 193
f 193 19 184
f 195 192 58
f 192 194 58
f 197 195 58
f 58 193 197
f 168 18 173
f 252 18 168
f 254 252 168
f 383 516 491
f 527 516 383
f 492 527 383
f 226 224 205
f 64 224 226
f 212 227 223
f 223 226 203
f 223 227 64
f 64 226 223
f 212 223 20
f 20 223 203
f 16 211 157
f 211 213 157
f 157 213 47
f 397 563 540
f 44 145 150
f 15 146 151
f 141 146 15
f 15 163 141
f 206 163 15
f 209 206 61
f 318 49 310
f 49 161 310
f 310 320 318
f 310 161 308
f 308 84 310
f 310 84 320
f 318 86 316
f 316 86 319
f 238 316 319
f 17 316 238
f 528 514 391
f 391 516 528
f 513 516 391
f 391 514 524
f 524 515 391
f 391 515 513
f 524 514 521
f 521 393 524
f 534 393 521
f 521 530 534
f 521 514 356
f 356 530 521
f 648 660 389
f 389 660 508
f 591 589 409
f 409 592 591
f 508 660 658
f 658 660 424
f 510 529 355
f 355 529 508
f 355 658 589
f 508 658 355
f 376 468 466
f 376 515 522
f 466 515 376
f 470 474 351
f 476 474 470
f 469 472 377
f 472 476 377
f 377 476 470
f 432 585 348
f 441 365 432
f 432 587 585
f 365 587 432
f 563 561 401
f 401 560 563
f 542 561 563
f 563 397 542
f 542 397 539
f 356 526 559
f 526 562 559
f 562 401 559
f 559 401 561
f 390 512 511
f 390 532 510
f 510 512 390
f 334 70 315
f 70 246 315
f 315 336 334
f 276 74 262
f 77 273 276
f 261 74 276
f 276 273 261
f 262 274 276
f 276 274 77
f 23 273 264
f 264 257 23
f 264 273 277
f 267 257 264
f 264 75 267
f 277 75 264
f 329 319 331
f 313 327 25
f 331 327 88
f 326 329 88
f 88 329 331
f 8 246 260
f 28 244 94
f 28 102 95
f 94 96 28
f 96 102 28
f 307 305 294
f 83 305 307
f 81 307 294
f 292 307 81
f 67 299 289
f 289 299 301
f 434 436 366
f 594 604 601
f 594 601 360
f 360 606 594
f 11 100 105
f 263 11 98
f 98 265 263
f 29 265 98
f 11 105 98
f 106 29 98
f 98 105 106
f 258 29 97
f 13 268 123
f 36 259 122
f 256 97 3
f 258 97 256
f 3 122 256
f 256 122 259
f 294 305 76
f 76 305 269
f 76 268 294
f 350 460 605
f 82 299 296
f 235 299 67
f 21 296 235
f 235 296 299
f 332 22 247
f 247 70 334
f 334 332 247
f 247 22 272
f 272 274 247
f 247 274 70
f 333 89 336
f 333 337 89
f 336 313 333
f 322 337 333
f 25 322 333
f 333 313 25
f 101 102 96
f 96 27 101
f 93 99 101
f 101 27 93
f 30 100 102
f 102 101 30
f 30 99 104
f 30 101 99
f 422 667 651
f 403 635 621
f 635 637 621
f 621 637 416
f 597 599 583
f 583 345 597
f 659 662 646
f 670 674 659
f 424 662 659
f 659 674 424
f 659 646 362
f 362 670 659
f 426 673 671
f 672 674 426
f 670 673 426
f 426 674 670
f 582 592 406
f 414 614 612
f 414 611 613
f 613 610 414
f 414 610 614
f 613 411 598
f 598 610 613
f 360 610 598
f 598 639 360
f 598 411 641
f 641 639 598
f 446 455 452
f 627 417 625
f 417 623 625
f 625 623 449
f 626 638 636
f 636 638 419
f 643 622 416
f 643 620 640
f 416 620 643
f 640 420 643
f 643 420 641
f 641 622 643
f 570 635 403
f 642 420 644
f 642 639 420
f 606 639 642
f 644 631 642
f 507 645 648
f 507 389 519
f 648 389 507
f 664 667 650
f 664 654 668
f 664 650 362
f 362 654 664
f 461 615 341
f 452 455 371
f 113 91 115
f 9 91 113
f 497 502 379
f 51 245 254
f 254 168 51
f 132 137 139
f 132 14 137
f 183 185 130
f 130 14 183
f 56 185 183
f 600 412 602
f 600 603 412
f 348 585 600
f 585 603 600
f 465 429 364
f 433 439 364
f 364 429 433
f 437 439 367
f 367 439 441
f 323 171 321
f 321 87 323
f 323 87 325
f 181 193 196
f 196 58 194
f 193 58 196
f 60 226 205
f 203 226 60
f 143 200 43
f 43 149 143
f 198 6 156
f 198 143 6
f 200 143 198
f 535 493 343
f 540 560 357
f 62 211 214
f 62 213 211
f 214 227 62
f 62 227 212
f 151 146 153
f 153 146 44
f 44 150 153
f 144 15 151
f 206 15 144
f 217 20 203
f 208 61 206
f 43 200 208
f 208 200 210
f 210 61 208
f 208 144 43
f 206 144 208
f 381 490 486
f 484 490 381
f 488 490 484
f 484 352 488
f 48 166 159
f 17 238 159
f 508 529 531
f 531 389 508
f 519 389 531
f 531 529 395
f 531 533 519
f 395 533 531
f 672 409 661
f 661 409 589
f 661 674 672
f 589 658 661
f 424 674 661
f 661 658 424
f 510 355 505
f 388 512 505
f 505 512 510
f 505 355 589
f 591 388 505
f 505 589 591
f 468 376 475
f 467 351 474
f 474 475 467
f 467 475 376
f 467 376 522
f 473 377 470
f 473 375 465
f 511 375 464
f 470 351 464
f 464 473 470
f 375 473 464
f 506 512 388
f 511 512 506
f 506 375 511
f 581 365 431
f 431 365 433
f 433 429 431
f 431 429 339
f 438 432 348
f 441 432 438
f 438 367 441
f 444 367 438
f 533 530 518
f 518 559 561
f 518 530 356
f 356 559 518
f 534 532 523
f 523 393 534
f 532 390 523
f 319 329 68
f 68 238 319
f 239 326 21
f 239 329 326
f 241 68 239
f 239 68 329
f 85 313 336
f 336 315 85
f 326 88 328
f 314 66 328
f 330 88 327
f 330 85 314
f 314 328 330
f 330 328 88
f 327 313 330
f 313 85 330
f 21 326 233
f 233 296 21
f 326 328 233
f 233 328 66
f 232 66 314
f 284 66 232
f 282 260 285
f 282 8 260
f 284 232 282
f 282 232 8
f 250 95 248
f 250 28 95
f 244 28 250
f 248 71 250
f 250 71 251
f 251 244 250
f 291 81 294
f 294 268 291
f 13 125 291
f 291 268 13
f 293 291 125
f 81 291 293
f 24 292 279
f 297 301 82
f 283 24 297
f 303 307 292
f 292 24 303
f 303 24 283
f 83 307 303
f 288 112 286
f 280 278 111
f 288 290 280
f 280 33 288
f 111 33 280
f 80 290 288
f 80 289 301
f 288 286 80
f 80 286 289
f 443 366 436
f 602 604 595
f 595 366 602
f 434 366 595
f 608 594 606
f 107 105 100
f 107 30 104
f 100 30 107
f 103 29 106
f 103 97 29
f 267 258 73
f 258 256 73
f 73 257 267
f 73 256 259
f 268 76 270
f 270 259 36
f 36 123 270
f 270 123 268
f 616 624 627
f 627 415 616
f 361 624 616
f 618 615 461
f 618 415 615
f 82 296 298
f 298 66 284
f 298 233 66
f 296 233 298
f 160 166 48
f 165 166 160
f 141 165 42
f 165 160 42
f 42 160 140
f 115 91 26
f 121 118 34
f 115 116 34
f 118 113 34
f 34 113 115
f 34 114 121
f 116 114 34
f 65 231 241
f 422 651 649
f 345 583 649
f 403 621 569
f 569 651 403
f 345 649 569
f 569 649 651
f 619 621 416
f 416 622 619
f 345 569 619
f 619 569 621
f 597 345 619
f 619 622 597
f 599 611 407
f 407 583 599
f 408 586 612
f 612 603 408
f 585 587 408
f 408 603 585
f 612 586 609
f 609 414 612
f 611 414 609
f 359 609 586
f 579 406 581
f 581 431 579
f 579 431 339
f 582 406 579
f 581 406 588
f 586 408 588
f 588 587 581
f 588 408 587
f 449 623 349
f 452 456 349
f 349 456 449
f 349 446 452
f 455 446 369
f 571 623 626
f 571 349 623
f 446 349 571
f 449 456 457
f 457 456 372
f 635 570 633
f 419 635 633
f 633 636 419
f 633 570 358
f 358 570 663
f 663 576 358
f 517 542 539
f 517 507 519
f 499 653 655
f 354 653 499
f 575 653 354
f 575 405 656
f 656 653 575
f 577 405 575
f 577 385 568
f 458 456 452
f 372 456 458
f 452 371 458
f 503 502 497
f 497 385 503
f 427 363 447
f 455 369 447
f 479 363 427
f 485 363 479
f 497 379 477
f 379 479 477
f 427 338 477
f 477 479 427
f 567 402 565
f 565 402 568
f 574 402 567
f 133 131 93
f 93 27 133
f 172 183 14
f 465 364 471
f 469 377 471
f 471 473 465
f 377 473 471
f 437 347 430
f 430 439 437
f 430 364 439
f 430 347 469
f 469 471 430
f 430 471 364
f 437 367 440
f 440 367 444
f 311 323 325
f 311 84 308
f 325 84 311
f 194 171 52
f 171 323 52
f 323 311 52
f 181 196 55
f 55 224 181
f 205 224 55
f 55 180 205
f 202 60 205
f 205 180 202
f 202 180 7
f 7 161 202
f 162 218 49
f 162 316 17
f 162 49 318
f 318 316 162
f 210 200 59
f 200 198 59
f 535 343 480
f 551 399 564
f 564 562 551
f 560 401 564
f 564 401 562
f 545 398 547
f 538 384 493
f 538 493 535
f 428 363 485
f 428 346 451
f 207 61 210
f 20 217 207
f 63 217 220
f 220 218 63
f 203 60 220
f 220 217 203
f 478 352 484
f 478 379 502
f 151 153 45
f 221 217 63
f 63 219 221
f 221 219 209
f 221 207 217
f 209 61 221
f 61 207 221
f 50 166 165
f 209 219 50
f 50 163 209
f 165 163 50
f 164 159 166
f 166 50 164
f 164 50 219
f 17 159 164
f 474 476 378
f 378 475 474
f 504 506 388
f 504 388 582
f 582 579 504
f 504 579 339
f 375 506 463
f 465 375 463
f 463 504 339
f 506 504 463
f 463 429 465
f 339 429 463
f 522 393 520
f 393 523 520
f 520 467 522
f 351 467 520
f 509 390 511
f 509 523 390
f 511 464 509
f 509 520 523
f 509 464 351
f 351 520 509
f 238 68 240
f 240 231 48
f 241 231 240
f 240 68 241
f 48 159 240
f 240 159 238
f 312 85 315
f 312 315 246
f 246 8 312
f 314 85 312
f 312 232 314
f 8 232 312
f 306 303 283
f 83 303 306
f 285 304 306
f 306 304 83
f 37 293 125
f 124 278 281
f 281 37 124
f 293 37 281
f 300 297 82
f 82 298 300
f 300 298 284
f 283 297 300
f 301 297 287
f 279 290 287
f 287 24 279
f 287 297 24
f 287 80 301
f 290 80 287
f 442 438 348
f 444 438 442
f 410 595 604
f 604 594 410
f 594 608 410
f 413 631 605
f 413 642 631
f 606 642 413
f 413 608 606
f 106 105 31
f 105 107 31
f 460 373 607
f 605 460 607
f 607 413 605
f 608 413 607
f 269 257 271
f 257 73 271
f 271 73 259
f 271 76 269
f 259 270 271
f 271 270 76
f 374 618 461
f 418 631 644
f 142 42 140
f 115 26 110
f 110 116 115
f 108 32 110
f 110 32 116
f 121 114 119
f 119 112 120
f 120 35 119
f 119 35 121
f 12 286 112
f 112 119 12
f 12 119 114
f 140 160 158
f 158 1 140
f 158 160 48
f 48 231 158
f 230 32 108
f 231 65 228
f 228 158 231
f 1 158 228
f 65 230 228
f 108 1 228
f 228 230 108
f 241 239 229
f 229 65 241
f 229 239 21
f 21 235 229
f 652 673 422
f 422 649 652
f 671 673 652
f 652 649 583
f 652 407 671
f 583 407 652
f 590 409 672
f 592 409 590
f 669 426 671
f 672 426 669
f 669 590 672
f 359 590 669
f 609 359 584
f 584 407 611
f 611 609 584
f 359 669 584
f 671 407 584
f 584 669 671
f 445 369 567
f 567 565 445
f 445 565 338
f 445 447 369
f 445 338 427
f 427 447 445
f 448 341 615
f 358 576 566
f 402 574 566
f 578 576 405
f 578 577 568
f 405 577 578
f 568 402 578
f 402 566 578
f 578 566 576
f 425 664 668
f 667 664 425
f 541 498 539
f 539 397 541
f 386 555 499
f 499 655 386
f 498 541 386
f 386 541 555
f 499 555 553
f 556 501 553
f 553 400 556
f 553 555 400
f 553 354 499
f 501 354 553
f 392 518 561
f 561 542 392
f 542 517 392
f 533 518 392
f 519 533 392
f 392 517 519
f 645 507 344
f 539 498 344
f 344 498 645
f 507 517 344
f 344 517 539
f 645 498 647
f 498 386 647
f 647 386 655
f 668 654 423
f 423 656 668
f 423 655 653
f 653 656 423
f 495 385 497
f 497 477 495
f 495 477 338
f 568 385 495
f 495 565 568
f 338 565 495
f 496 354 501
f 501 503 496
f 496 503 385
f 575 354 496
f 496 577 575
f 385 577 496
f 454 458 371
f 454 371 451
f 387 501 556
f 387 503 501
f 502 503 387
f 556 546 387
f 453 371 455
f 455 447 453
f 451 371 453
f 453 447 363
f 453 428 451
f 363 428 453
f 487 381 485
f 485 479 487
f 484 381 487
f 487 479 379
f 487 478 484
f 379 478 487
f 573 574 567
f 567 369 573
f 573 369 446
f 446 571 573
f 136 131 40
f 131 133 40
f 40 139 136
f 40 132 139
f 173 195 53
f 186 195 197
f 183 172 186
f 197 56 186
f 56 183 186
f 186 53 195
f 172 53 186
f 194 52 182
f 182 196 194
f 180 55 182
f 182 55 196
f 218 162 216
f 63 218 216
f 216 219 63
f 216 164 219
f 216 162 17
f 17 164 216
f 201 59 198
f 201 198 156
f 156 47 201
f 47 213 201
f 212 20 199
f 20 207 199
f 210 59 199
f 199 207 210
f 560 564 549
f 549 357 560
f 536 357 549
f 549 564 399
f 544 547 398
f 544 357 536
f 536 547 544
f 535 480 537
f 545 547 537
f 543 398 545
f 543 546 398
f 550 494 384
f 384 538 550
f 396 538 535
f 396 547 536
f 535 537 396
f 396 537 547
f 483 428 485
f 483 381 486
f 485 381 483
f 346 428 483
f 204 202 161
f 218 220 204
f 204 161 49
f 49 218 204
f 60 202 204
f 204 220 60
f 500 478 502
f 502 387 500
f 500 387 546
f 546 543 500
f 352 478 500
f 500 543 352
f 490 488 382
f 151 45 152
f 152 149 43
f 43 144 152
f 152 144 151
f 78 281 278
f 78 290 279
f 278 280 78
f 78 280 290
f 284 282 79
f 79 300 284
f 283 300 79
f 79 306 283
f 79 282 285
f 285 306 79
f 435 442 348
f 348 600 435
f 366 443 435
f 443 442 435
f 602 366 435
f 435 600 602
f 444 442 368
f 368 442 443
f 596 410 608
f 596 607 373
f 608 607 596
f 631 418 628
f 605 631 628
f 462 350 628
f 628 350 605
f 629 418 644
f 629 644 640
f 640 361 629
f 361 616 629
f 44 146 148
f 42 142 148
f 148 146 141
f 141 42 148
f 147 145 44
f 44 148 147
f 147 148 142
f 147 142 26
f 91 145 147
f 147 26 91
f 90 1 108
f 108 110 90
f 90 110 26
f 26 142 90
f 140 1 90
f 90 142 140
f 109 12 114
f 109 114 116
f 116 32 109
f 237 235 67
f 237 230 65
f 237 229 235
f 65 229 237
f 32 230 236
f 236 109 32
f 236 237 67
f 230 237 236
f 580 406 592
f 592 590 580
f 580 590 359
f 580 359 586
f 586 588 580
f 580 588 406
f 370 625 449
f 449 457 370
f 120 33 117
f 117 33 111
f 627 625 617
f 617 448 615
f 617 415 627
f 615 415 617
f 625 370 617
f 617 370 448
f 572 566 574
f 636 633 572
f 572 633 358
f 358 566 572
f 666 425 668
f 663 425 666
f 576 663 666
f 668 656 666
f 405 576 666
f 666 656 405
f 665 651 667
f 667 425 665
f 665 425 663
f 403 651 665
f 665 570 403
f 665 663 570
f 557 541 397
f 557 397 540
f 400 555 557
f 555 541 557
f 645 647 421
f 646 662 421
f 421 662 648
f 648 645 421
f 404 571 626
f 404 573 571
f 626 636 404
f 574 573 404
f 636 572 404
f 404 572 574
f 132 40 134
f 134 40 133
f 128 133 27
f 128 134 133
f 94 242 2
f 7 180 170
f 180 182 170
f 170 182 52
f 170 52 311
f 308 7 170
f 170 311 308
f 213 62 215
f 215 201 213
f 215 62 212
f 59 201 215
f 212 199 215
f 215 199 59
f 480 482 380
f 545 537 380
f 380 537 480
f 540 357 554
f 357 544 554
f 554 557 540
f 400 557 554
f 548 399 551
f 548 550 399
f 494 550 548
f 551 525 548
f 353 494 548
f 548 525 353
f 538 396 552
f 552 549 399
f 536 549 552
f 552 396 536
f 399 550 552
f 552 550 538
f 489 382 488
f 489 380 482
f 279 292 295
f 295 78 279
f 281 78 295
f 292 81 295
f 81 293 295
f 293 281 295
f 410 596 593
f 595 410 593
f 593 340 434
f 434 595 593
f 340 593 459
f 459 593 596
f 459 596 373
f 630 374 462
f 462 628 630
f 618 374 630
f 630 628 418
f 632 616 415
f 632 629 616
f 415 618 632
f 418 629 632
f 618 630 632
f 632 630 418
f 67 289 234
f 234 236 67
f 109 236 234
f 289 286 234
f 286 12 234
f 12 109 234
f 450 370 457
f 448 370 450
f 657 654 646
f 646 421 657
f 657 421 647
f 657 423 654
f 657 647 655
f 655 423 657
f 132 134 127
f 14 132 127
f 127 172 14
f 242 245 167
f 167 2 242
f 245 51 167
f 51 169 167
f 126 2 167
f 167 169 126
f 92 128 27
f 92 27 96
f 126 128 92
f 92 2 126
f 92 96 94
f 94 2 92
f 175 169 51
f 175 168 173
f 175 51 168
f 173 53 175
f 174 53 172
f 172 127 174
f 174 175 53
f 169 175 174
f 481 543 545
f 545 380 481
f 352 543 481
f 481 488 352
f 481 489 488
f 380 489 481
f 556 400 558
f 400 554 558
f 558 546 556
f 558 554 544
f 398 546 558
f 558 544 398
f 126 169 38
f 169 174 38
f 38 174 127
f 38 127 134
f 38 128 126
f 134 128 38
f 135 129 466
f 466 468 135
f 16 353 155
f 155 353 492
f 472 131 136
f 469 131 472
f 5 154 342
f 342 154 491
f 466 129 342
f 129 5 342
f 347 131 469
f 10 131 347
f 347 99 10
f 437 99 347
f 491 154 383
f 383 154 46
f 383 155 492
f 383 46 155
f 476 472 136
f 136 139 476
f 97 340 3
f 434 340 97
f 350 123 460
f 13 123 350
f 350 462 125
f 350 125 13
f 124 461 341
f 4 124 341
f 343 493 156
f 156 6 343
f 156 493 384
f 384 47 156
f 486 490 153
f 153 150 486
f 346 113 451
f 9 113 346
f 475 135 468
f 138 135 475
f 434 97 103
f 103 436 434
f 106 443 103
f 103 443 436
f 460 123 373
f 373 123 36
f 457 35 120
f 372 35 457
f 458 35 372
f 121 35 458
f 440 99 437
f 104 99 440
f 444 107 440
f 440 107 104
f 480 343 6
f 6 143 480
f 494 353 16
f 16 157 494
f 47 384 494
f 494 157 47
f 378 476 139
f 139 41 378
f 138 475 378
f 378 41 138
f 374 461 124
f 124 37 374
f 125 462 374
f 374 37 125
f 448 111 4
f 4 341 448
f 121 458 454
f 454 118 121
f 454 113 118
f 451 113 454
f 482 480 143
f 482 143 149
f 483 150 145
f 486 150 483
f 9 346 483
f 483 145 9
f 382 153 490
f 382 45 153
f 368 107 444
f 368 31 107
f 368 443 106
f 106 31 368
f 489 482 149
f 149 152 489
f 45 382 489
f 489 152 45
f 3 340 459
f 459 122 3
f 459 373 36
f 36 122 459
f 450 457 120
f 120 117 450
f 111 448 450
f 450 117 111
