v 10.710502909015059 -4.7605475749438799 3.7000000000000002
v 9.133309572657657 -5.7353066636425991 6.2519524250561203
v 9.133309572657657 -5.7353066636425991 1.1480475749438801
v 9.133309572657657 -4.3125 3.7000000000000002
v 10.060360555782498 -4.8854490168751576 5.2000000000000011
v 9.133309572657657 -7.3125 6.7000000000000002
v 10.060360555782498 -4.8854490168751576 2.1999999999999997
v 9.133309572657657 -7.3125 0.70000000000000018
v 10.633309572657657 -6.3854490168751576 1.2729490168751578
v 10.633309572657657 -6.3854490168751576 6.1270509831248425
v 9.9531091593956731 -4.4266849266482478 3.7000000000000002
v 10.434975266315741 -4.7244945587514415 4.4796757390232633
v 9.6151756795777263 -5.2311585673186523 5.8061393343284893
v 9.6206891170070161 -4.4593304511145391 4.4885966681787011
v 9.133309572657657 -4.7605475749438799 5.2771933363574011
v 9.133309572657657 -8.1322995867380143 6.5858150733517533
v 9.133309572657657 -6.4927004132619848 6.5858150733517533
v 10.434975266315741 -4.7244945587514415 2.920324260976737
v 9.6151756795777263 -5.2311585673186523 1.5938606656715111
v 9.6206891170070161 -4.4593304511145391 2.9114033318212997
v 9.133309572657657 -4.7605475749438799 2.1228066636425993
v 9.133309572657657 -8.1322995867380143 0.81418492664824749
v 9.133309572657657 -6.4927004132619848 0.81418492664824749
v 11.214651005339004 -5.2063606656715109 3.2181338930799308
v 10.896665329535077 -5.2479271192932391 2.4240237874719401
v 9.9129853116809201 -6.0108343063419154 1.1119945587514417
v 10.409285785185716 -5.5491442431225808 1.6354271192932397
v 9.921906240836357 -6.8251204556506408 0.84683045111453925
v 11.214651005339004 -5.2063606656715109 4.1818661069200695
v 10.896665329535077 -5.2479271192932391 4.9759762125280602
v 9.9129853116809201 -6.0108343063419154 6.2880054412485586
v 10.409285785185716 -5.5491442431225808 5.7645728807067602
v 9.921906240836357 -6.8251204556506408 6.5531695488854611
v 10.34337561850975 -4.5673697363010479 3.7000000000000002
v 9.5471662990405584 -4.3411833541294147 3.7000000000000002
v 10.586634498839661 -4.7177119924101758 4.0936011364390383
v 10.258425275092286 -4.7807655761328292 4.8508411980551438
v 10.207995953117393 -4.5395861981659618 4.0949661140561942
v 9.3765684529875681 -5.4655739373789576 6.0515291272599141
v 9.8445685487093844 -5.0365430995102276 5.5204754478154427
v 9.133309572657657 -5.2037789085366803 5.8338452048866491
v 9.3800369684957445 -4.3494349782145871 4.0992133124217744
v 9.8493403636164363 -4.6394804274348962 4.8585621567627761
v 9.7936606550775345 -4.4133222077926826 4.0983774304837075
v 9.133309572657657 -4.4209162095971326 4.4992141034037019
v 10.037086209937353 -4.5637674744263528 4.4922482519771965
v 9.6026129677783487 -4.7919663440185838 5.2577754691845504
v 9.3767351275174757 -4.9718868878696201 5.5607187478403413
v 9.3802803127535377 -4.5735525212031032 4.8988211551055532
v 9.133309572657657 -8.5225660458520931 6.4451302636989523
v 9.133309572657657 -7.7263567263829014 6.6713166458705864
v 9.133309572657657 -6.1024339541479069 6.4451302636989523
v 9.133309572657657 -6.8986432736170986 6.6713166458705864
v 10.586634498839661 -4.7177119924101758 3.3063988635609616
v 10.258425275092286 -4.7807655761328292 2.5491588019448566
v 10.207995953117393 -4.5395861981659618 3.3050338859438062
v 9.3765684529875681 -5.4655739373789576 1.3484708727400863
v 9.8445685487093844 -5.0365430995102276 1.8795245521845576
v 9.133309572657657 -5.2037789085366803 1.5661547951133512
v 9.3800369684957445 -4.3494349782145871 3.3007866875782264
v 9.8493403636164363 -4.6394804274348962 2.5414378432372238
v 9.7936606550775345 -4.4133222077926826 3.3016225695162928
v 9.133309572657657 -4.4209162095971326 2.900785896596298
v 10.037086209937353 -4.5637674744263528 2.9077517480228039
v 9.6026129677783487 -4.7919663440185838 2.1422245308154499
v 9.3767351275174757 -4.9718868878696201 1.8392812521596591
v 9.3802803127535377 -4.5735525212031032 2.5011788448944468
v 9.133309572657657 -8.5225660458520931 0.9548697363010481
v 9.133309572657657 -7.7263567263829014 0.72868335412941443
v 9.133309572657657 -6.1024339541479069 0.9548697363010481
v 9.133309572657657 -6.8986432736170986 0.72868335412941443
v 10.980235635278699 -4.9609708727400861 3.4567411196700895
v 10.847064550064783 -4.9345523122221557 3.0609314030526109
v 10.495281071876297 -5.0386937398566705 2.2947104473991371
v 10.681674432810841 -4.9621449049100601 2.6615409556330238
v 11.075545254304329 -5.2055704597698789 2.811986222266694
v 9.5325228850794304 -7.5592273958380867 0.73693497821458687
v 9.5316870031413643 -7.9728510824198775 0.80082220779268276
v 9.5269107090966951 -5.8591750738179966 1.105211992410176
v 10.284150770712801 -6.1873842975653712 1.1682655761328298
v 9.7723781696050462 -5.5987450225928743 1.3220523122221559
v 9.5282756867138509 -6.2378136195402636 0.92708619816596194
v 10.24855367603821 -5.1911796564403581 1.8954971349773628
v 10.53859912525852 -5.9505285007813598 1.4261937398566706
v 10.021323350390963 -5.3702643183533283 1.5930704597698795
v 10.673435896349002 -5.3727666246068049 2.0072373647026858
v 10.171768617024632 -5.7641351398468164 1.3496449049100607
v 9.5325228850794304 -7.0657726041619133 0.73693497821458687
v 10.291871729420434 -6.5964692090412207 1.0269804274348964
v 9.5316870031413643 -6.6521489175801225 0.80082220779268276
v 9.9325236760613596 -7.3125 0.80841620959713234
v 9.9255578246348541 -6.4087233627203037 0.95126747442635295
v 11.073042948050851 -5.6197373647026856 2.1598736763086563
v 10.826072207954972 -5.7723736763086562 1.7602666246068051
v 10.980235635278699 -4.9609708727400861 3.9432588803299109
v 10.847064550064783 -4.9345523122221557 4.3390685969473894
v 11.242030664120977 -5.178654795113351 3.7000000000000002
v 10.495281071876297 -5.0386937398566705 5.1052895526008637
v 10.681674432810841 -4.9621449049100601 4.7384590443669765
v 11.075545254304329 -5.2055704597698789 4.5880137777333063
v 9.5325228850794304 -7.5592273958380867 6.6630650217854139
v 9.5316870031413643 -7.9728510824198775 6.5991777922073176
v 9.5269107090966951 -5.8591750738179966 6.2947880075898244
v 10.284150770712801 -6.1873842975653712 6.2317344238671701
v 9.7723781696050462 -5.5987450225928743 6.0779476877778444
v 9.5282756867138509 -6.2378136195402636 6.4729138018340384
v 10.24855367603821 -5.1911796564403581 5.5045028650226371
v 10.53859912525852 -5.9505285007813598 5.9738062601433297
v 10.021323350390963 -5.3702643183533283 5.8069295402301204
v 10.673435896349002 -5.3727666246068049 5.3927626352973146
v 10.171768617024632 -5.7641351398468164 6.0503550950899392
v 9.5325228850794304 -7.0657726041619133 6.6630650217854139
v 10.291871729420434 -6.5964692090412207 6.373019572565104
v 9.5316870031413643 -6.6521489175801225 6.5991777922073176
v 9.9325236760613596 -7.3125 6.5915837904028685
v 9.9255578246348541 -6.4087233627203037 6.4487325255736474
v 11.073042948050851 -5.6197373647026856 5.240126323691344
v 10.826072207954972 -5.7723736763086562 5.6397333753931953
v 1.4672431878618184 -4.7605475749438799 3.7000000000000002
v 1.4672431878618184 -9.8644524250561201 3.7000000000000002
v 3.0444365242192193 -8.8896933363574 6.2519524250561203
v 3.0444365242192193 -5.7353066636425991 6.2519524250561203
v 3.0444365242192193 -8.8896933363574 1.1480475749438801
v 3.0444365242192193 -5.7353066636425991 1.1480475749438801
v 0.49248409916309921 -7.3125 2.1228066636425993
v 0.49248409916309921 -7.3125 5.2771933363574011
v 3.0444365242192193 -4.3125 3.7000000000000002
v 3.0444365242192193 -10.3125 3.7000000000000002
v 2.1173855410943769 -9.7395509831248432 5.2000000000000011
v 2.1173855410943769 -4.8854490168751576 5.2000000000000011
v 3.0444365242192193 -7.3125 6.7000000000000002
v 2.1173855410943769 -9.7395509831248432 2.1999999999999997
v 2.1173855410943769 -4.8854490168751576 2.1999999999999997
v 3.0444365242192193 -7.3125 0.70000000000000018
v 0.61738554109437693 -5.8125 2.7729490168751578
v 0.61738554109437693 -8.8125 2.7729490168751578
v 1.5444365242192188 -8.2395509831248432 1.2729490168751578
v 1.5444365242192188 -6.3854490168751576 1.2729490168751578
v 0.61738554109437693 -5.8125 4.6270509831248425
v 0.61738554109437693 -8.8125 4.6270509831248425
v 1.5444365242192188 -8.2395509831248432 6.1270509831248425
v 1.5444365242192188 -6.3854490168751576 6.1270509831248425
v 0.044436524219219287 -7.3125 3.7000000000000002
v 2.2246369374812041 -4.4266849266482478 3.7000000000000002
v 2.2246369374812041 -10.198315073351752 3.7000000000000002
v 1.7427708305611351 -9.9005054412485585 4.4796757390232633
v 2.5625704172991499 -9.3938414326813486 5.8061393343284893
v 2.5570569798698597 -10.165669548885461 4.4885966681787011
v 3.0444365242192193 -9.8644524250561201 5.2771933363574011
v 1.7427708305611351 -4.7244945587514415 4.4796757390232633
v 2.5625704172991499 -5.2311585673186523 5.8061393343284893
v 2.5570569798698597 -4.4593304511145391 4.4885966681787011
v 3.0444365242192193 -4.7605475749438799 5.2771933363574011
v 3.0444365242192193 -8.1322995867380143 6.5858150733517533
v 3.0444365242192193 -6.4927004132619848 6.5858150733517533
v 1.7427708305611351 -9.9005054412485585 2.920324260976737
v 2.5625704172991499 -9.3938414326813486 1.5938606656715111
v 2.5570569798698597 -10.165669548885461 2.9114033318212997
v 3.0444365242192193 -9.8644524250561201 2.1228066636425993
v 1.7427708305611351 -4.7244945587514415 2.920324260976737
v 2.5625704172991499 -5.2311585673186523 1.5938606656715111
v 2.5570569798698597 -4.4593304511145391 2.9114033318212997
v 3.0444365242192193 -4.7605475749438799 2.1228066636425993
v 3.0444365242192193 -8.1322995867380143 0.81418492664824749
v 3.0444365242192193 -6.4927004132619848 0.81418492664824749
v 0.96309509153787154 -5.2063606656715109 3.2181338930799308
v 0.45643108297066082 -6.5328242609767369 2.3983343063419156
v 1.2810807673417997 -5.2479271192932391 2.4240237874719401
v 0.96309509153787154 -9.4186393343284891 3.2181338930799308
v 0.45643108297066082 -8.0921757390232631 2.3983343063419156
v 1.2810807673417997 -9.3770728807067609 2.4240237874719401
v 2.2647607851959561 -8.6141656936580837 1.1119945587514417
v 0.93829718989073019 -7.7943661069200694 1.6186585673186529
v 1.7684603116911592 -9.0758557568774201 1.6354271192932397
v 2.2558398560405188 -7.7998795443493592 0.84683045111453925
v 0.9798636435124588 -8.5884762125280609 1.9366442431225808
v 2.2647607851959561 -6.0108343063419154 1.1119945587514417
v 0.93829718989073019 -6.8306338930799306 1.6186585673186529
v 1.7684603116911592 -5.5491442431225808 1.6354271192932397
v 2.2558398560405188 -6.8251204556506408 0.84683045111453925
v 0.9798636435124588 -6.03652378747194 1.9366442431225808
v 1.4672431878618182 -7.3125 1.1480475749438805
v 0.96309509153787154 -5.2063606656715109 4.1818661069200695
v 0.45643108297066082 -6.5328242609767369 5.0016656936580848
v 1.2810807673417997 -5.2479271192932391 4.9759762125280602
v 0.49248409916309965 -5.7353066636425991 3.7000000000000002
v 0.96309509153787154 -9.4186393343284891 4.1818661069200695
v 0.45643108297066082 -8.0921757390232631 5.0016656936580848
v 1.2810807673417997 -9.3770728807067609 4.9759762125280602
v 0.49248409916309965 -8.8896933363574018 3.7000000000000002
v 2.2647607851959561 -8.6141656936580837 6.2880054412485586
v 0.93829718989073019 -7.7943661069200694 5.7813414326813479
v 1.7684603116911592 -9.0758557568774201 5.7645728807067602
v 2.2558398560405188 -7.7998795443493592 6.5531695488854611
v 0.9798636435124588 -8.5884762125280609 5.4633557568774194
v 2.2647607851959561 -6.0108343063419154 6.2880054412485586
v 0.93829718989073019 -6.8306338930799306 5.7813414326813479
v 1.7684603116911592 -5.5491442431225808 5.7645728807067602
v 2.2558398560405188 -6.8251204556506408 6.5531695488854611
v 0.9798636435124588 -6.03652378747194 5.4633557568774194
v 1.4672431878618182 -7.3125 6.2519524250561194
v 0.1586214508674666 -7.3125 2.8802004132619849
v 0.1586214508674666 -7.3125 4.5197995867380154
v 0.19126697533375836 -6.5239033318212991 3.2126204556506406
v 0.19126697533375836 -8.1010966681787 3.2126204556506406
v 0.19126697533375836 -6.5239033318212991 4.1873795443493602
v 0.19126697533375836 -8.1010966681787 4.1873795443493602
v 1.8343704783671262 -4.5673697363010479 3.7000000000000002
v 2.6305797978363179 -4.3411833541294147 3.7000000000000002
v 1.8343704783671262 -10.057630263698952 3.7000000000000002
v 2.6305797978363179 -10.283816645870585 3.7000000000000002
v 1.5911115980372157 -9.9072880075898233 4.0936011364390383
v 1.9193208217845903 -9.8442344238671708 4.8508411980551438
v 1.9697501437594824 -10.085413801834038 4.0949661140561942
v 2.8011776438893086 -9.1594260626210424 6.0515291272599141
v 2.3331775481674915 -9.5884569004897724 5.5204754478154427
v 2.7977091283811326 -10.275565021785413 4.0992133124217744
v 2.32840573326044 -9.9855195725651029 4.8585621567627761
v 2.3840854417993422 -10.211677792207318 4.0983774304837075
v 2.140659886939523 -10.061232525573647 4.4922482519771965
v 3.0444365242192193 -9.4212210914633197 5.8338452048866491
v 3.0444365242192193 -10.204083790402867 4.4992141034037019
v 2.5751331290985267 -9.8330336559814171 5.2577754691845504
v 2.8010109693594005 -9.6531131121303808 5.5607187478403413
v 2.7974657841233386 -10.051447478796897 4.8988211551055532
v 1.5911115980372157 -4.7177119924101758 4.0936011364390383
v 1.9193208217845903 -4.7807655761328292 4.8508411980551438
v 1.9697501437594824 -4.5395861981659618 4.0949661140561942
v 2.8011776438893086 -5.4655739373789576 6.0515291272599141
v 2.3331775481674915 -5.0365430995102276 5.5204754478154427
v 2.7977091283811326 -4.3494349782145871 4.0992133124217744
v 2.32840573326044 -4.6394804274348962 4.8585621567627761
v 2.3840854417993422 -4.4133222077926826 4.0983774304837075
v 2.140659886939523 -4.5637674744263528 4.4922482519771965
v 3.0444365242192193 -5.2037789085366803 5.8338452048866491
v 3.0444365242192193 -4.4209162095971326 4.4992141034037019
v 2.5751331290985267 -4.7919663440185838 5.2577754691845504
v 2.8010109693594005 -4.9718868878696201 5.5607187478403413
v 2.7974657841233386 -4.5735525212031032 4.8988211551055532
v 3.0444365242192193 -8.5225660458520931 6.4451302636989523
v 3.0444365242192193 -7.7263567263829014 6.6713166458705864
v 3.0444365242192193 -6.1024339541479069 6.4451302636989523
v 3.0444365242192193 -6.8986432736170986 6.6713166458705864
v 1.5911115980372157 -9.9072880075898233 3.3063988635609616
v 1.9193208217845903 -9.8442344238671708 2.5491588019448566
v 1.9697501437594824 -10.085413801834038 3.3050338859438062
v 2.8011776438893086 -9.1594260626210424 1.3484708727400863
v 2.3331775481674915 -9.5884569004897724 1.8795245521845576
v 2.7977091283811326 -10.275565021785413 3.3007866875782264
v 2.32840573326044 -9.9855195725651029 2.5414378432372238
v 2.3840854417993422 -10.211677792207318 3.3016225695162928
v 2.140659886939523 -10.061232525573647 2.9077517480228039
v 3.0444365242192193 -9.4212210914633197 1.5661547951133512
v 3.0444365242192193 -10.204083790402867 2.900785896596298
v 2.5751331290985267 -9.8330336559814171 2.1422245308154499
v 2.8010109693594005 -9.6531131121303808 1.8392812521596591
v 2.7974657841233386 -10.051447478796897 2.5011788448944468
v 1.5911115980372157 -4.7177119924101758 3.3063988635609616
v 1.9193208217845903 -4.7807655761328292 2.5491588019448566
v 1.9697501437594824 -4.5395861981659618 3.3050338859438062
v 2.8011776438893086 -5.4655739373789576 1.3484708727400863
v 2.3331775481674915 -5.0365430995102276 1.8795245521845576
v 2.7977091283811326 -4.3494349782145871 3.3007866875782264
v 2.32840573326044 -4.6394804274348962 2.5414378432372238
v 2.3840854417993422 -4.4133222077926826 3.3016225695162928
v 2.140659886939523 -4.5637674744263528 2.9077517480228039
v 3.0444365242192193 -5.2037789085366803 1.5661547951133512
v 3.0444365242192193 -4.4209162095971326 2.900785896596298
v 2.5751331290985267 -4.7919663440185838 2.1422245308154499
v 2.8010109693594005 -4.9718868878696201 1.8392812521596591
v 2.7974657841233386 -4.5735525212031032 2.5011788448944468
v 3.0444365242192193 -8.5225660458520931 0.9548697363010481
v 3.0444365242192193 -7.7263567263829014 0.72868335412941443
v 3.0444365242192193 -6.1024339541479069 0.9548697363010481
v 3.0444365242192193 -6.8986432736170986 0.72868335412941443
v 1.1975104615981775 -4.9609708727400861 3.4567411196700895
v 0.76847962372944734 -5.4920245521845574 2.9887410239482723
v 1.3306815468120934 -4.9345523122221557 3.0609314030526109
v 0.44964851662939509 -6.9188988635609618 2.2466750738179968
v 0.51270210035204888 -6.1616588019448564 2.5748842975653714
v 1.6824650250005788 -5.0386937398566705 2.2947104473991371
v 0.9231161806595769 -5.5079971349773631 2.5847558966194466
v 1.4960716640660363 -4.9621449049100601 2.6615409556330238
v 1.1022008425725471 -5.2055704597698789 2.811986222266694
v 1.1975104615981775 -9.6640291272599139 3.4567411196700895
v 0.76847962372944734 -9.1329754478154435 2.9887410239482723
v 1.3306815468120934 -9.6904476877778443 3.0609314030526109
v 0.44964851662939509 -7.7061011364390382 2.2466750738179968
v 0.51270210035204888 -8.4633411980551436 2.5748842975653714
v 1.6824650250005788 -9.5863062601433295 2.2947104473991371
v 0.9231161806595769 -9.1170028650226378 2.5847558966194466
v 1.4960716640660363 -9.6628550950899399 2.6615409556330238
v 1.1022008425725471 -9.4194295402301211 2.811986222266694
v 2.6508353877801807 -8.7658249261820043 1.105211992410176
v 1.8935953261640757 -8.4376157024346288 1.1682655761328298
v 2.40536792727183 -9.0262549774071257 1.3220523122221559
v 2.6494704101630253 -8.3871863804597364 0.92708619816596194
v 0.69290739695930537 -7.5557588803299103 1.8530739373789584
v 1.2239610764037767 -8.0237589760517274 1.4240430995102282
v 0.66648883644137502 -7.9515685969473893 1.9862450225928743
v 1.9291924208386659 -9.4338203435596419 1.8954971349773628
v 1.639146971618356 -8.6744714992186402 1.4261937398566706
v 2.1564227464859131 -9.2547356816466717 1.5930704597698795
v 1.5043102005278755 -9.252233375393196 2.0072373647026858
v 2.005977479852243 -8.8608648601531836 1.3496449049100607
v 2.645223211797445 -7.5592273958380867 0.73693497821458687
v 1.8858743674564429 -8.0285307909587793 1.0269804274348964
v 2.646059093735512 -7.9728510824198775 0.80082220779268276
v 2.2521882722420226 -8.2162766372796963 0.95126747442635295
v 0.77063026407588975 -8.7177895526008626 2.3380285007813599
v 1.2399336591965819 -8.4277441033805545 1.5786796564403578
v 0.69408142912927984 -8.3509590443669772 2.151635139846817
v 1.1047031488260242 -9.0052626352973135 2.1598736763086563
v 0.9375069839890986 -8.2005137777333061 1.7577643183533282
v 1.3516738889219049 -8.8526263236913429 1.7602666246068051
v 2.6508353877801807 -5.8591750738179966 1.105211992410176
v 1.8935953261640757 -6.1873842975653712 1.1682655761328298
v 2.40536792727183 -5.5987450225928743 1.3220523122221559
v 2.6494704101630253 -6.2378136195402636 0.92708619816596194
v 0.69290739695930537 -7.0692411196700897 1.8530739373789584
v 1.2239610764037767 -6.6012410239482717 1.4240430995102282
v 0.66648883644137502 -6.6734314030526107 1.9862450225928743
v 0.91059131933257031 -7.3125 1.5912789085366805
v 1.9291924208386659 -5.1911796564403581 1.8954971349773628
v 1.639146971618356 -5.9505285007813598 1.4261937398566706
v 2.1564227464859131 -5.3702643183533283 1.5930704597698795
v 1.5043102005278755 -5.3727666246068049 2.0072373647026858
v 2.005977479852243 -5.7641351398468164 1.3496449049100607
v 2.645223211797445 -7.0657726041619133 0.73693497821458687
v 1.8858743674564429 -6.5964692090412207 1.0269804274348964
v 2.646059093735512 -6.6521489175801225 0.80082220779268276
v 2.2452224208155167 -7.3125 0.80841620959713234
v 2.2521882722420226 -6.4087233627203037 0.95126747442635295
v 0.77063026407588975 -5.9072104473991365 2.3380285007813599
v 1.2399336591965819 -6.1972558966194464 1.5786796564403578
v 0.69408142912927984 -6.2740409556330237 2.151635139846817
v 1.1047031488260242 -5.6197373647026856 2.1598736763086563
v 0.9375069839890986 -6.4244862222666939 1.7577643183533282
v 1.3516738889219049 -5.7723736763086562 1.7602666246068051
v 1.4866610550346686 -7.7818033951206926 1.179466344018584
v 1.4866610550346686 -6.8431966048793074 1.179466344018584
v 1.1837177763788782 -7.5559255548598188 1.3593868878696203
v 1.8456153691136659 -7.5594707400958807 0.96105252120310292
v 1.1837177763788782 -7.0690744451401812 1.3593868878696203
v 1.8456153691136659 -7.0655292599041193 0.96105252120310292
v 1.1975104615981775 -4.9609708727400861 3.9432588803299109
v 0.76847962372944734 -5.4920245521845574 4.4112589760517285
v 1.3306815468120934 -4.9345523122221557 4.3390685969473894
v 0.93571543275589963 -5.178654795113351 3.7000000000000002
v 0.44964851662939509 -6.9188988635609618 5.1533249261820036
v 0.51270210035204888 -6.1616588019448564 4.825115702434629
v 1.6824650250005788 -5.0386937398566705 5.1052895526008637
v 0.9231161806595769 -5.5079971349773631 4.8152441033805538
v 1.4960716640660363 -4.9621449049100601 4.7384590443669765
v 1.1022008425725471 -5.2055704597698789 4.5880137777333063
v 0.52390286823780308 -5.7547245308154498 3.2306966048793075
v 0.52390286823780308 -5.7547245308154498 4.1693033951206928
v 0.70382341208883936 -5.4517812521596589 3.4565744451401814
v 0.70382341208883936 -5.4517812521596589 3.9434255548598189
v 1.1975104615981775 -9.6640291272599139 3.9432588803299109
v 0.76847962372944734 -9.1329754478154435 4.4112589760517285
v 1.3306815468120934 -9.6904476877778443 4.3390685969473894
v 0.93571543275589963 -9.446345204886649 3.7000000000000002
v 0.44964851662939509 -7.7061011364390382 5.1533249261820036
v 0.51270210035204888 -8.4633411980551436 4.825115702434629
v 1.6824650250005788 -9.5863062601433295 5.1052895526008637
v 0.9231161806595769 -9.1170028650226378 4.8152441033805538
v 1.4960716640660363 -9.6628550950899399 4.7384590443669765
v 1.1022008425725471 -9.4194295402301211 4.5880137777333063
v 0.52390286823780308 -8.8702754691845502 3.2306966048793075
v 0.52390286823780308 -8.8702754691845502 4.1693033951206928
v 0.70382341208883936 -9.1732187478403411 3.4565744451401814
v 0.70382341208883936 -9.1732187478403411 3.9434255548598189
v 2.6508353877801807 -8.7658249261820043 6.2947880075898244
v 1.8935953261640757 -8.4376157024346288 6.2317344238671701
v 2.40536792727183 -9.0262549774071257 6.0779476877778444
v 2.6494704101630253 -8.3871863804597364 6.4729138018340384
v 0.69290739695930537 -7.5557588803299103 5.5469260626210417
v 1.2239610764037767 -8.0237589760517274 5.9759569004897717
v 0.66648883644137502 -7.9515685969473893 5.4137549774071259
v 1.9291924208386659 -9.4338203435596419 5.5045028650226371
v 1.639146971618356 -8.6744714992186402 5.9738062601433297
v 2.1564227464859131 -9.2547356816466717 5.8069295402301204
v 1.5043102005278755 -9.252233375393196 5.3927626352973146
v 2.005977479852243 -8.8608648601531836 6.0503550950899392
v 2.645223211797445 -7.5592273958380867 6.6630650217854139
v 1.8858743674564429 -8.0285307909587793 6.373019572565104
v 2.646059093735512 -7.9728510824198775 6.5991777922073176
v 2.2521882722420226 -8.2162766372796963 6.4487325255736474
v 0.77063026407588975 -8.7177895526008626 5.0619714992186404
v 1.2399336591965819 -8.4277441033805545 5.821320343559643
v 0.69408142912927984 -8.3509590443669772 5.2483648601531829
v 1.1047031488260242 -9.0052626352973135 5.240126323691344
v 0.9375069839890986 -8.2005137777333061 5.6422356816466719
v 1.3516738889219049 -8.8526263236913429 5.6397333753931953
v 2.6508353877801807 -5.8591750738179966 6.2947880075898244
v 1.8935953261640757 -6.1873842975653712 6.2317344238671701
v 2.40536792727183 -5.5987450225928743 6.0779476877778444
v 2.6494704101630253 -6.2378136195402636 6.4729138018340384
v 0.69290739695930537 -7.0692411196700897 5.5469260626210417
v 1.2239610764037767 -6.6012410239482717 5.9759569004897717
v 0.66648883644137502 -6.6734314030526107 5.4137549774071259
v 0.91059131933257031 -7.3125 5.8087210914633198
v 1.9291924208386659 -5.1911796564403581 5.5045028650226371
v 1.639146971618356 -5.9505285007813598 5.9738062601433297
v 2.1564227464859131 -5.3702643183533283 5.8069295402301204
v 1.5043102005278755 -5.3727666246068049 5.3927626352973146
v 2.005977479852243 -5.7641351398468164 6.0503550950899392
v 2.645223211797445 -7.0657726041619133 6.6630650217854139
v 1.8858743674564429 -6.5964692090412207 6.373019572565104
v 2.646059093735512 -6.6521489175801225 6.5991777922073176
v 2.2452224208155167 -7.3125 6.5915837904028685
v 2.2521882722420226 -6.4087233627203037 6.4487325255736474
v 0.77063026407588975 -5.9072104473991365 5.0619714992186404
v 1.2399336591965819 -6.1972558966194464 5.821320343559643
v 0.69408142912927984 -6.2740409556330237 5.2483648601531829
v 1.1047031488260242 -5.6197373647026856 5.240126323691344
v 0.9375069839890986 -6.4244862222666939 5.6422356816466719
v 1.3516738889219049 -5.7723736763086562 5.6397333753931953
v 1.4866610550346686 -7.7818033951206926 6.2205336559814164
v 1.4866610550346686 -6.8431966048793074 6.2205336559814164
v 1.1837177763788782 -7.5559255548598188 6.0406131121303801
v 1.8456153691136659 -7.5594707400958807 6.4389474787968979
v 1.1837177763788782 -7.0690744451401812 6.0406131121303801
v 1.8456153691136659 -7.0655292599041193 6.4389474787968979
v 0.29930626052026721 -7.3125 2.4899339541479071
v 0.073119878348633538 -7.3125 3.2861432736170988
v 0.27152272238518105 -6.917533885943806 2.6253136195402633
v 0.27152272238518105 -7.707466114056194 2.6253136195402633
v 0.29930626052026721 -7.3125 4.9100660458520933
v 0.073119878348633538 -7.3125 4.1138567263829016
v 0.27152272238518105 -6.917533885943806 4.7746863804597375
v 0.27152272238518105 -7.707466114056194 4.7746863804597375
v 0.37141695165411548 -6.1539378432372231 2.9839692090412209
v 0.081371502433805976 -6.9132866875782257 3.4532726041619131
v 0.29570399864557206 -6.5202517480228028 2.7962233627203039
v 0.30548904542232203 -6.1136788448944461 3.4530292599041195
v 0.14525873201190187 -6.9141225695162927 3.0396489175801227
v 0.37141695165411548 -8.4710621567627769 2.9839692090412209
v 0.081371502433805976 -7.7117133124217743 3.4532726041619131
v 0.29570399864557206 -8.1047482519771972 2.7962233627203039
v 0.30548904542232203 -8.5113211551055539 3.4530292599041195
v 0.14525873201190187 -7.7108774304837073 3.0396489175801227
v 0.37141695165411548 -6.1539378432372231 4.4160307909587795
v 0.081371502433805976 -6.9132866875782257 3.9467273958380873
v 0.29570399864557206 -6.5202517480228028 4.6037766372796964
v 0.30548904542232203 -6.1136788448944461 3.9469707400958809
v 0.14525873201190187 -6.9141225695162927 4.3603510824198777
v 0.15285273381635145 -6.5132858965962974 3.7000000000000002
v 0.37141695165411548 -8.4710621567627769 4.4160307909587795
v 0.081371502433805976 -7.7117133124217743 3.9467273958380873
v 0.29570399864557206 -8.1047482519771972 4.6037766372796964
v 0.30548904542232203 -8.5113211551055539 3.9469707400958809
v 0.14525873201190187 -7.7108774304837073 4.3603510824198777
v 0.15285273381635145 -8.1117141034037026 3.7000000000000002
v 9.8154553724482199 -7.7340892895535482 0.81678687490829838
v 9.680656915231701 -7.9068175496481379 0.81838629305811761
v 11.10596573575312 -5.7296526585798446 5.298996592515488
v 11.134620482710561 -5.6727254535944684 5.2072881755520015
v 10.040094143508064 -7.4462413061554154 0.85528749832818995
v 10.073097862802928 -7.3993796253471649 0.86211077099153688
v 9.926437481057329 -7.5918788598682196 0.8304362699838741
v 11.20089316349673 -5.5410642496184606 4.9409788465658639
v 8.502107194545184 -9.1594260626210424 6.0515291272599141
v 11.22747012946242 -5.4882648865089143 4.8274393036085135
v 10.652281612382533 -6.5357620397922105 6.1577483882356043
v 10.523275658920708 -6.7394847026026738 6.2846311366262828
v 7.9299160520455709 -9.662630667034211 1.8520496700799358
v 7.9409495431774131 -9.6531131121303808 1.8392812521596591
v 10.873771952264995 -6.1576766999767498 5.845781632332244
v 10.91039938879066 -6.0930202322902502 5.7767719078860837
v 7.6713053688657018 -9.8644524250561201 2.1228066636425993
v 10.040094143508064 -7.4462413061554154 6.5447125016718104
v 10.073097862802928 -7.3993796253471649 6.5378892290084645
v 9.926437481057329 -7.5918788598682196 6.5695637300161263
v 10.804771338191841 -6.279479818003967 5.9548978730585471
v 8.7854163366457136 -8.8896933363574 6.2519524250561203
v 7.1118983480516418 -10.275565021785413 3.3007866875782264
v 11.328308341160797 -5.2802741444306998 3.6094311596189477
v 11.328308341160797 -5.2802741444306998 3.7905688403810531
v 11.01571824962511 -5.9071064428403526 5.5497699663594089
v 11.317794210661296 -5.3039936427720438 4.0870099202722505
v 7.0594547084639947 -10.3125 3.7000000000000002
v 9.1431632335416246 -8.5191885781000831 0.9541765893367975
v 9.2618890669369858 -8.3944869355877341 0.91554180199660229
v 9.3611955326328271 -8.2793631438511799 0.87932624821126948
v 9.133309572657657 -8.5295382017822234 0.95853839850104283
v 9.1374886031825433 -8.525148828756496 0.95646598392153148
v 9.3611955326328271 -8.2793631438511799 6.5206737517887321
v 9.5307820550079061 -8.0827652350802417 6.5656826987913073
v 8.8388347648318426 -8.8388347648318479 1.1212864237631937
v 8.7854163366457136 -8.8896933363574 1.1480475749438801
v 7.1118983480516418 -10.275565021785413 4.0992133124217744
v 9.5929396547000874 -8.0107073029842226 6.5757813612129405
v 10.523275658920708 -6.7394847026026738 1.1153688633737169
v 10.393370153781815 -6.9446279127450268 1.013502469024721
v 10.329533515018177 -7.0352689754351569 0.96530570199167587
v 10.315206910366566 -7.0556111910579347 0.95634028797849213
v 9.6626306670342075 -7.9299160520455754 6.5799800320161363
v 9.680656915231701 -7.9068175496481379 6.5816137069418827
v 10.713341259826727 -6.4393383195390141 6.089318562632176
v 10.652281612382533 -6.5357620397922105 1.2422516117643958
v 7.2133938982622743 -10.204083790402867 2.900785896596298
v 7.4462413061554127 -10.040094143508066 2.4782061183341302
v 7.4301208086544825 -10.051447478796897 2.5011788448944468
v 10.713341259826727 -6.4393383195390141 1.3106814373678242
v 10.721607625003402 -6.4262843024152732 6.077742317100487
v 9.1374886031825433 -8.525148828756496 6.4435340160784689
v 9.133309572657657 -8.5295382017822234 6.4414616014989576
v 9.1431632335416246 -8.5191885781000831 6.4458234106632029
v 11.234580510286508 -5.47413898592783 4.7898045543425587
v 10.329533515018177 -7.0352689754351569 6.434694298008325
v 10.393370153781815 -6.9446279127450268 6.3864975309752809
v 8.502107194545184 -9.1594260626210424 1.3484708727400863
v 11.303356144652668 -5.336565397779272 4.2864226801617988
v 11.280997890038948 -5.3819234903251028 4.4791961843836212
v 10.289793943486796 -7.0916948315613153 6.4551186914161161
v 11.299866164043038 -5.3444386678785323 4.3187366116750256
v 10.315206910366566 -7.0556111910579347 6.4436597120215087
v 8.209776839623645 -9.4212210914633197 1.566154795113351
v 9.5307820550079061 -8.0827652350802417 0.83431730120869263
v 9.5929396547000874 -8.0107073029842226 0.82421863878706059
v 9.6626306670342075 -7.9299160520455754 0.82001996798386378
v 10.289793943486796 -7.0916948315613153 0.94488130858388497
v 11.01571824962511 -5.9071064428403526 1.850230033640591
v 10.91039938879066 -6.0930202322902502 1.6232280921139173
v 8.3944869355877305 -9.2618890669369893 1.4336693915060092
v 10.873771952264995 -6.1576766999767498 1.5542183676677561
v 7.9409495431774131 -9.6531131121303808 5.5607187478403404
v 10.804771338191841 -6.279479818003967 1.4451021269414537
v 11.234580510286508 -5.47413898592783 2.6101954456574412
v 11.22747012946242 -5.4882648865089143 2.5725606963914873
v 10.721607625003402 -6.4262843024152732 1.3222576828995134
v 11.280997890038948 -5.3819234903251028 2.92080381561638
v 8.209776839623645 -9.4212210914633197 5.8338452048866491
v 9.8154553724482199 -7.7340892895535482 6.5832131250917021
v 7.2133938982622743 -10.204083790402867 4.4992141034037019
v 7.4301208086544825 -10.051447478796897 4.898821155105554
v 7.4462413061554127 -10.040094143508066 4.9217938816658702
v 9.2618890669369858 -8.3944869355877341 6.4844581980033977
v 7.9299160520455709 -9.662630667034211 5.5479503299200648
v 11.20089316349673 -5.5410642496184606 2.4590211534341364
v 11.134620482710561 -5.6727254535944684 2.1927118244479988
v 7.6713053688657018 -9.8644524250561201 5.2771933363574011
v 11.024015804354436 -5.892459210324974 1.8718505223666599
v 11.10596573575312 -5.7296526585798446 2.1010034074845132
v 11.303356144652668 -5.336565397779272 3.1135773198382015
v 11.317794210661296 -5.3039936427720438 3.3129900797277494
v 11.299866164043038 -5.3444386678785323 3.0812633883249751
v 8.8388347648318426 -8.8388347648318479 6.2787135762368065
v 8.3944869355877305 -9.2618890669369893 5.9663306084939913
v 11.024015804354436 -5.892459210324974 5.52814947763334
f 303 305 296
f 157 303 296
f 170 441 429
f 361 367 140
f 361 369 367
f 193 395 384
f 193 384 381
f 273 308 306
f 273 306 134
f 164 308 273
f 297 309 308
f 272 297 164
f 297 308 164
f 175 343 332
f 308 309 175
f 175 332 306
f 306 308 175
f 172 305 295
f 295 309 172
f 296 305 172
f 172 309 297
f 307 309 295
f 175 309 307
f 307 343 175
f 137 307 295
f 156 246 244
f 287 292 156
f 244 287 156
f 158 254 249
f 157 296 247
f 143 435 427
f 440 451 143
f 427 440 143
f 57 79 3
f 28 91 88
f 71 88 8
f 165 319 274
f 57 59 19
f 274 316 124
f 274 319 316
f 255 256 159
f 132 255 250
f 191 389 375
f 375 385 191
f 375 389 387
f 243 409 131
f 35 60 4
f 143 451 431
f 415 419 200
f 405 419 415
f 363 373 372
f 190 453 442
f 372 373 190
f 300 314 312
f 300 312 170
f 370 442 439
f 286 372 370
f 190 442 370
f 370 372 190
f 136 291 286
f 286 370 136
f 370 439 136
f 371 373 361
f 190 373 371
f 371 453 190
f 140 371 361
f 361 373 187
f 187 363 360
f 187 373 363
f 187 369 361
f 360 362 187
f 362 369 187
f 368 369 362
f 383 385 193
f 381 383 193
f 367 369 189
f 189 369 368
f 393 395 195
f 384 395 393
f 384 393 189
f 189 393 367
f 193 385 382
f 382 395 193
f 382 385 375
f 216 381 129
f 129 223 216
f 147 383 216
f 216 383 381
f 216 224 147
f 223 224 216
f 16 102 51
f 112 115 33
f 235 238 151
f 95 97 72
f 34 56 11
f 244 246 210
f 249 251 158
f 299 314 173
f 173 314 300
f 134 329 275
f 306 329 134
f 306 332 329
f 172 297 294
f 123 294 272
f 294 297 272
f 294 296 172
f 247 294 123
f 247 296 294
f 156 252 246
f 158 252 250
f 246 252 251
f 251 252 158
f 291 293 286
f 171 293 291
f 287 293 292
f 292 293 171
f 132 250 245
f 250 252 245
f 245 252 156
f 156 292 245
f 248 303 157
f 248 255 132
f 157 256 248
f 248 256 255
f 253 256 157
f 247 253 157
f 439 442 205
f 205 441 439
f 453 455 442
f 440 455 451
f 442 455 205
f 205 455 440
f 435 438 427
f 204 438 435
f 436 438 204
f 428 438 436
f 135 334 280
f 334 336 280
f 57 81 79
f 19 85 81
f 19 81 57
f 321 335 138
f 330 341 138
f 138 341 321
f 317 330 138
f 138 325 317
f 138 335 325
f 325 339 179
f 335 339 325
f 325 328 317
f 179 328 325
f 316 319 177
f 317 328 177
f 255 257 250
f 158 257 254
f 250 257 158
f 159 257 255
f 241 388 154
f 386 388 241
f 409 412 386
f 131 386 241
f 131 409 386
f 194 389 388
f 387 389 194
f 386 412 194
f 194 388 386
f 240 377 374
f 388 389 377
f 374 377 191
f 377 389 191
f 154 377 240
f 154 388 377
f 412 423 194
f 194 423 387
f 20 63 60
f 20 67 63
f 263 268 162
f 268 271 162
f 59 66 19
f 143 445 435
f 431 445 143
f 350 402 184
f 200 418 415
f 415 418 401
f 198 419 405
f 405 408 198
f 198 408 406
f 198 406 404
f 404 407 198
f 407 419 198
f 290 292 171
f 245 292 290
f 245 290 132
f 301 303 248
f 132 301 248
f 290 301 132
f 174 305 303
f 174 303 301
f 291 313 171
f 285 287 244
f 360 363 285
f 298 323 173
f 173 300 298
f 170 429 288
f 288 300 170
f 288 429 426
f 298 300 288
f 136 439 289
f 289 441 170
f 439 441 289
f 170 312 289
f 367 390 140
f 140 390 365
f 367 393 390
f 390 393 195
f 450 453 371
f 365 452 450
f 365 450 140
f 140 450 371
f 381 384 366
f 129 381 366
f 366 384 189
f 189 368 366
f 146 368 362
f 374 376 215
f 376 385 383
f 191 376 374
f 191 385 376
f 215 376 147
f 376 383 147
f 375 387 141
f 141 382 375
f 147 221 215
f 147 224 221
f 149 224 223
f 223 225 149
f 218 223 129
f 218 225 223
f 51 102 101
f 101 115 112
f 51 101 6
f 101 112 6
f 6 112 53
f 155 411 243
f 243 411 409
f 52 103 2
f 2 103 39
f 104 113 10
f 121 374 215
f 240 374 121
f 127 263 209
f 152 239 236
f 151 238 230
f 404 406 230
f 230 406 151
f 47 49 15
f 15 48 47
f 12 46 37
f 37 99 12
f 35 44 11
f 98 99 37
f 107 110 98
f 5 98 37
f 5 107 98
f 98 110 30
f 30 99 98
f 29 97 95
f 58 85 19
f 83 85 58
f 19 66 58
f 1 95 72
f 36 95 1
f 34 36 1
f 219 220 214
f 214 220 146
f 145 214 210
f 145 219 214
f 210 246 145
f 246 251 145
f 182 343 340
f 340 343 307
f 299 340 137
f 137 340 307
f 182 344 341
f 341 344 321
f 275 331 165
f 329 331 275
f 165 331 319
f 441 443 429
f 205 443 441
f 440 443 205
f 427 443 440
f 426 428 279
f 321 338 335
f 427 438 202
f 202 443 427
f 202 428 426
f 202 438 428
f 426 429 202
f 429 443 202
f 280 436 434
f 280 434 135
f 434 436 204
f 435 449 204
f 445 449 435
f 206 449 445
f 88 90 28
f 82 90 23
f 23 90 71
f 71 90 88
f 3 79 70
f 79 82 70
f 70 82 23
f 86 94 27
f 27 85 83
f 83 86 27
f 343 345 332
f 330 345 341
f 182 345 343
f 341 345 182
f 124 316 261
f 74 86 83
f 25 86 74
f 93 94 86
f 25 93 86
f 72 97 24
f 412 425 423
f 397 408 405
f 60 62 20
f 56 62 11
f 11 62 35
f 35 62 60
f 258 260 160
f 327 339 337
f 179 339 327
f 162 265 263
f 144 265 260
f 263 265 209
f 209 265 144
f 260 266 160
f 265 266 260
f 162 266 265
f 161 270 267
f 161 267 261
f 269 271 163
f 163 270 269
f 21 67 65
f 65 66 21
f 58 66 65
f 445 448 206
f 431 448 445
f 203 448 431
f 184 416 351
f 402 416 184
f 416 418 200
f 402 418 416
f 430 433 364
f 126 430 364
f 203 433 430
f 350 430 126
f 192 422 403
f 192 403 378
f 378 380 192
f 364 378 126
f 364 380 378
f 401 424 421
f 422 424 403
f 229 235 151
f 122 396 242
f 229 396 122
f 352 407 404
f 185 407 352
f 352 354 185
f 348 354 150
f 417 419 407
f 200 419 417
f 185 417 407
f 302 305 174
f 295 302 137
f 295 305 302
f 312 314 176
f 171 304 290
f 171 313 304
f 290 304 301
f 301 304 174
f 286 293 169
f 169 372 286
f 169 293 287
f 169 287 285
f 363 372 169
f 285 363 169
f 120 244 210
f 120 285 244
f 120 360 285
f 289 312 310
f 310 312 176
f 176 313 310
f 310 313 291
f 136 310 291
f 289 310 136
f 433 454 452
f 203 454 433
f 451 454 431
f 431 454 203
f 188 452 365
f 188 380 364
f 364 433 188
f 433 452 188
f 366 368 213
f 213 368 146
f 129 366 213
f 213 218 129
f 146 220 213
f 213 220 218
f 195 395 391
f 391 395 382
f 141 391 382
f 222 225 148
f 148 220 219
f 218 220 148
f 148 225 218
f 217 222 148
f 148 219 217
f 110 118 117
f 110 117 30
f 199 412 409
f 409 411 199
f 411 413 199
f 199 425 412
f 242 399 155
f 399 411 155
f 396 399 242
f 399 413 411
f 13 48 41
f 13 41 39
f 17 106 52
f 103 106 31
f 52 106 103
f 10 108 104
f 152 236 231
f 209 231 127
f 230 238 237
f 153 239 237
f 237 238 153
f 43 49 47
f 37 46 43
f 37 43 5
f 43 47 5
f 11 38 34
f 11 44 38
f 34 38 36
f 44 46 38
f 36 38 12
f 38 46 12
f 14 46 44
f 14 49 43
f 43 46 14
f 95 96 29
f 36 96 95
f 12 96 36
f 12 99 96
f 211 251 249
f 145 251 211
f 211 249 128
f 128 217 211
f 217 219 211
f 211 219 145
f 173 342 299
f 299 342 340
f 323 342 173
f 340 342 182
f 323 344 342
f 342 344 182
f 331 333 319
f 319 333 177
f 317 333 330
f 177 333 317
f 428 436 167
f 279 428 167
f 167 436 280
f 280 336 167
f 320 323 298
f 337 339 181
f 181 338 336
f 181 336 334
f 334 337 181
f 181 339 335
f 335 338 181
f 186 359 358
f 135 434 356
f 186 358 356
f 282 334 135
f 282 337 334
f 204 437 434
f 204 449 437
f 434 437 356
f 356 437 186
f 26 82 79
f 79 81 26
f 80 84 9
f 27 94 84
f 9 89 80
f 24 76 73
f 24 73 72
f 401 421 142
f 142 415 401
f 405 415 142
f 397 405 142
f 410 413 397
f 199 413 410
f 410 425 199
f 421 425 410
f 142 421 410
f 142 410 397
f 397 413 196
f 196 413 399
f 196 399 396
f 196 408 397
f 258 276 119
f 276 346 119
f 160 266 259
f 133 281 259
f 179 327 324
f 324 327 281
f 133 324 281
f 261 318 161
f 316 318 261
f 177 318 316
f 177 328 318
f 133 269 262
f 262 324 133
f 262 270 161
f 269 270 262
f 206 448 446
f 206 446 444
f 351 446 184
f 444 446 351
f 387 423 420
f 387 420 141
f 401 418 197
f 197 424 401
f 197 418 402
f 403 424 197
f 201 425 421
f 421 424 201
f 423 425 201
f 201 424 422
f 420 423 201
f 201 422 420
f 406 408 398
f 229 398 396
f 398 408 196
f 396 398 196
f 151 406 398
f 151 398 229
f 130 404 230
f 352 404 130
f 230 237 130
f 137 311 299
f 302 311 137
f 311 314 299
f 176 314 311
f 210 214 212
f 210 212 120
f 212 214 146
f 146 362 212
f 212 362 360
f 212 360 120
f 451 455 207
f 207 454 451
f 207 455 453
f 452 454 207
f 207 453 450
f 450 452 207
f 390 392 365
f 365 392 188
f 188 392 380
f 195 392 390
f 380 394 192
f 391 394 195
f 195 394 392
f 392 394 380
f 47 48 40
f 40 48 13
f 5 47 40
f 40 107 5
f 17 114 106
f 53 114 17
f 112 114 53
f 33 114 112
f 113 116 33
f 106 116 31
f 33 116 114
f 114 116 106
f 104 116 113
f 31 116 104
f 32 110 107
f 32 118 110
f 108 118 32
f 144 233 209
f 209 233 231
f 228 233 144
f 231 233 152
f 14 44 42
f 42 44 35
f 4 42 35
f 30 100 99
f 99 100 96
f 96 100 29
f 332 345 180
f 180 333 331
f 329 332 180
f 180 331 329
f 180 345 330
f 330 333 180
f 69 78 22
f 178 344 323
f 178 323 320
f 321 344 178
f 178 338 321
f 125 298 288
f 288 426 125
f 125 426 279
f 279 320 125
f 125 320 298
f 336 338 322
f 279 322 320
f 167 336 322
f 167 322 279
f 322 338 178
f 320 322 178
f 351 416 414
f 414 416 200
f 200 417 414
f 437 447 186
f 437 449 447
f 444 447 206
f 447 449 206
f 81 87 26
f 84 87 27
f 26 87 80
f 80 87 84
f 85 87 81
f 27 87 85
f 26 92 82
f 28 92 89
f 80 92 26
f 89 92 80
f 90 92 28
f 82 92 90
f 56 64 62
f 62 64 20
f 58 65 7
f 74 83 7
f 7 83 58
f 55 74 7
f 55 75 74
f 74 75 25
f 75 76 25
f 73 76 75
f 150 228 226
f 226 348 150
f 119 346 226
f 346 348 226
f 208 228 144
f 144 260 208
f 119 226 208
f 226 228 208
f 208 258 119
f 208 260 258
f 358 359 349
f 276 349 346
f 166 349 276
f 166 358 349
f 168 337 282
f 327 337 168
f 281 327 168
f 259 266 264
f 162 271 264
f 264 266 162
f 264 271 269
f 264 269 133
f 259 264 133
f 326 328 179
f 318 328 326
f 324 326 179
f 318 326 161
f 161 326 262
f 262 326 324
f 350 432 430
f 446 448 432
f 432 448 203
f 430 432 203
f 184 432 350
f 184 446 432
f 141 420 379
f 379 391 141
f 379 422 192
f 420 422 379
f 192 394 379
f 379 394 391
f 197 402 400
f 400 402 350
f 126 400 350
f 400 403 197
f 378 400 126
f 378 403 400
f 227 352 130
f 150 354 227
f 227 354 352
f 313 315 304
f 302 315 311
f 174 315 302
f 304 315 174
f 176 315 313
f 311 315 176
f 32 111 108
f 104 111 31
f 108 111 104
f 42 45 14
f 45 49 14
f 77 78 69
f 88 91 77
f 8 77 69
f 8 88 77
f 354 355 185
f 348 355 354
f 61 67 20
f 20 64 61
f 61 64 55
f 65 67 61
f 7 65 61
f 7 61 55
f 55 64 18
f 18 75 55
f 18 64 56
f 73 75 18
f 356 358 277
f 277 358 166
f 135 356 277
f 277 282 135
f 168 283 281
f 259 283 160
f 281 283 259
f 227 234 150
f 150 234 228
f 233 234 152
f 228 234 233
f 109 111 32
f 107 109 32
f 40 109 107
f 13 109 40
f 183 348 346
f 183 355 348
f 346 349 183
f 349 359 183
f 183 359 347
f 347 355 183
f 18 56 54
f 54 56 34
f 1 54 34
f 54 73 18
f 1 72 54
f 72 73 54
f 168 284 283
f 282 284 168
f 277 284 282
f 166 284 277
f 232 239 152
f 152 234 232
f 232 234 227
f 237 239 232
f 130 237 232
f 130 232 227
f 103 105 39
f 105 111 109
f 31 105 103
f 31 111 105
f 39 105 13
f 105 109 13
f 357 447 444
f 347 359 357
f 357 359 186
f 186 447 357
f 414 417 353
f 353 355 347
f 353 417 185
f 185 355 353
f 276 278 166
f 278 284 166
f 258 278 276
f 283 284 278
f 160 278 258
f 160 283 278
f 139 444 351
f 347 357 139
f 357 444 139
f 351 414 139
f 139 353 347
f 139 414 353
f 459 463 117
f 97 480 479
f 471 481 118
f 68 488 487
f 484 488 68
f 490 494 102
f 466 501 10
f 9 506 502
f 50 509 508
f 508 510 50
f 29 515 482
f 511 516 100
f 78 522 521
f 525 526 94
f 76 534 531
f 543 546 93
f 24 548 547
f 8 134 275
f 8 275 71
f 23 71 275
f 23 275 165
f 51 131 241
f 6 131 51
f 63 268 263
f 63 263 60
f 67 271 268
f 67 268 63
f 163 271 67
f 163 67 21
f 242 155 17
f 242 17 52
f 235 41 48
f 235 48 238
f 153 15 49
f 153 49 239
f 153 238 48
f 153 48 15
f 154 51 241
f 16 51 154
f 66 59 267
f 270 66 267
f 21 66 163
f 270 163 66
f 243 131 6
f 243 6 53
f 243 53 17
f 243 17 155
f 240 50 16
f 240 16 154
f 550 50 240
f 477 240 121
f 550 509 50
f 550 240 477
f 4 60 263
f 4 263 127
f 3 70 124
f 274 124 70
f 274 70 23
f 274 23 165
f 59 57 261
f 267 59 261
f 57 3 261
f 124 261 3
f 229 41 235
f 39 41 229
f 52 122 242
f 2 122 52
f 2 39 229
f 2 229 122
f 272 164 22
f 272 22 68
f 492 123 272
f 491 492 272
f 491 272 68
f 491 68 487
f 8 69 134
f 273 134 69
f 69 22 164
f 273 69 164
f 4 127 231
f 4 231 42
f 45 42 231
f 236 45 231
f 45 236 239
f 49 45 239
f 78 77 457
f 456 457 77
f 459 117 458
f 460 91 461
f 462 91 460
f 121 215 464
f 477 121 464
f 30 117 463
f 465 30 463
f 466 113 467
f 10 113 466
f 468 256 469
f 472 256 468
f 159 256 472
f 470 471 108
f 118 108 471
f 473 115 475
f 474 115 473
f 108 10 476
f 470 108 476
f 128 249 478
f 483 128 478
f 480 29 482
f 97 29 480
f 485 22 486
f 68 22 485
f 484 68 485
f 493 128 483
f 217 128 493
f 102 16 490
f 489 490 16
f 89 495 496
f 497 89 496
f 28 89 497
f 498 28 497
f 504 505 159
f 504 159 472
f 257 159 505
f 102 494 499
f 500 102 499
f 254 478 249
f 503 478 254
f 89 9 502
f 495 89 502
f 10 501 507
f 476 10 507
f 505 254 257
f 503 254 505
f 514 247 123
f 514 123 492
f 100 30 465
f 511 100 465
f 113 512 513
f 467 113 513
f 256 253 469
f 520 469 253
f 517 115 474
f 100 516 518
f 29 100 518
f 515 29 518
f 512 33 519
f 113 33 512
f 521 22 78
f 486 22 521
f 539 493 478
f 478 493 483
f 538 537 493
f 504 539 478
f 505 504 478
f 538 493 539
f 505 478 503
f 33 115 517
f 519 33 517
f 520 253 247
f 520 247 514
f 527 520 514
f 78 457 523
f 522 78 523
f 28 498 524
f 91 28 524
f 84 94 526
f 528 84 526
f 461 91 524
f 221 224 529
f 535 221 529
f 9 84 530
f 528 530 84
f 25 76 532
f 531 532 76
f 9 530 533
f 506 9 533
f 77 91 462
f 456 77 462
f 536 475 101
f 115 101 475
f 538 225 222
f 538 222 537
f 101 102 500
f 536 101 500
f 222 217 493
f 537 222 493
f 16 50 540
f 510 540 50
f 489 16 540
f 544 224 149
f 541 529 224
f 541 224 544
f 543 93 542
f 532 542 25
f 93 25 542
f 541 544 539
f 468 539 504
f 541 539 468
f 468 504 472
f 149 225 538
f 539 149 538
f 544 149 539
f 93 546 94
f 545 94 546
f 525 94 545
f 24 97 479
f 548 24 479
f 24 547 549
f 76 24 549
f 534 76 549
f 215 221 535
f 464 215 535
f 464 535 551
f 118 481 552
f 458 118 552
f 117 118 458
f 551 541 468
f 551 529 541
f 469 527 468
f 551 468 527
f 520 527 469
f 535 529 551
f 514 551 527
f 464 551 514
f 491 550 514
f 464 514 550
f 492 491 514
f 464 550 477
f 550 491 485
f 540 550 485
f 487 484 485
f 487 485 491
f 488 484 487
f 509 550 540
f 510 509 540
f 508 509 510
f 499 489 540
f 499 540 485
f 486 521 523
f 499 485 523
f 490 489 499
f 494 490 499
f 522 523 521
f 486 523 485
f 460 499 523
f 462 460 523
f 475 500 499
f 473 499 460
f 462 523 457
f 475 499 473
f 536 500 475
f 456 462 457
f 496 460 461
f 473 460 496
f 513 474 473
f 524 496 461
f 513 473 496
f 517 474 513
f 512 517 513
f 519 517 512
f 497 496 524
f 498 497 524
f 507 513 496
f 502 533 496
f 502 496 495
f 507 496 533
f 466 513 507
f 467 513 466
f 501 466 507
f 506 533 502
f 507 545 552
f 533 530 545
f 526 545 530
f 507 533 545
f 471 476 552
f 481 471 552
f 470 476 471
f 525 545 526
f 528 526 530
f 507 552 476
f 463 458 552
f 518 516 552
f 518 552 545
f 542 534 545
f 542 545 546
f 463 552 516
f 511 463 516
f 459 458 463
f 465 463 511
f 542 546 543
f 549 545 534
f 518 545 549
f 531 534 542
f 532 531 542
f 482 515 518
f 480 482 518
f 549 480 518
f 479 480 549
f 548 479 549
f 547 548 549
