v 7.2414314801857484 -7.6855475749438789 3.7000000000000002
v 5.6642381438283476 -8.6603066636425972 6.2519524250561203
v 5.6642381438283476 -8.6603066636425972 1.1480475749438801
v 5.6642381438283476 -7.2374999999999989 3.7000000000000002
v 6.5912891269531899 -7.8104490168751566 5.2000000000000011
v 5.6642381438283476 -10.237499999999999 6.7000000000000002
v 6.5912891269531899 -7.8104490168751566 2.1999999999999997
v 5.6642381438283476 -10.237499999999999 0.70000000000000018
v 8.091289126953189 -8.7374999999999989 2.7729490168751578
v 7.1642381438283476 -9.3104490168751575 1.2729490168751578
v 8.091289126953189 -8.7374999999999989 4.6270509831248425
v 7.1642381438283476 -9.3104490168751575 6.1270509831248425
v 6.4840377305663628 -7.3516849266482467 3.7000000000000002
v 6.9659038374864313 -7.6494945587514405 4.4796757390232633
v 6.1461042507484169 -8.1561585673186521 5.8061393343284893
v 6.1516176881777067 -7.384330451114538 4.4885966681787011
v 5.6642381438283476 -7.6855475749438789 5.2771933363574011
v 5.6642381438283476 -11.057299586738015 6.5858150733517533
v 5.6642381438283476 -9.4177004132619828 6.5858150733517533
v 6.9659038374864313 -7.6494945587514405 2.920324260976737
v 6.1461042507484169 -8.1561585673186521 1.5938606656715111
v 6.1516176881777067 -7.384330451114538 2.9114033318212997
v 5.6642381438283476 -7.6855475749438789 2.1228066636425993
v 5.6642381438283476 -11.057299586738015 0.81418492664824749
v 5.6642381438283476 -9.4177004132619828 0.81418492664824749
v 7.7455795765096953 -8.1313606656715098 3.2181338930799308
v 7.4275939007057676 -8.172927119293238 2.4240237874719401
v 6.4439138828516107 -8.9358343063419152 1.1119945587514417
v 7.7703774781568367 -9.7556338930799296 1.6186585673186529
v 6.9402143563564076 -8.4741442431225789 1.6354271192932397
v 6.4528348120070484 -9.7501204556506398 0.84683045111453925
v 7.7288110245351085 -8.9615237874719398 1.9366442431225808
v 7.7455795765096953 -8.1313606656715098 4.1818661069200695
v 7.4275939007057676 -8.172927119293238 4.9759762125280602
v 8.2161905688844676 -8.6603066636425972 3.7000000000000002
v 6.4439138828516107 -8.9358343063419152 6.2880054412485586
v 7.7703774781568367 -9.7556338930799296 5.7813414326813479
v 6.9402143563564076 -8.4741442431225789 5.7645728807067602
v 6.4528348120070484 -9.7501204556506398 6.5531695488854611
v 7.7288110245351085 -8.9615237874719398 5.4633557568774194
v 6.8743041896804407 -7.4923697363010469 3.7000000000000002
v 6.0780948702112489 -7.2661833541294136 3.7000000000000002
v 7.1175630700103509 -7.6427119924101747 4.0936011364390383
v 6.7893538462629763 -7.7057655761328281 4.8508411980551438
v 6.738924524288084 -7.4645861981659607 4.0949661140561942
v 5.9074970241582578 -8.3905739373789565 6.0515291272599141
v 6.3754971198800749 -7.9615430995102265 5.5204754478154427
v 5.6642381438283476 -8.1287789085366793 5.8338452048866491
v 5.9109655396664342 -7.2744349782145861 4.0992133124217744
v 6.3802689347871269 -7.5644804274348951 4.8585621567627761
v 6.3245892262482251 -7.3383222077926815 4.0983774304837075
v 5.6642381438283476 -7.3459162095971315 4.4992141034037019
v 6.5680147811080438 -7.4887674744263517 4.4922482519771965
v 6.1335415389490402 -7.7169663440185827 5.2577754691845504
v 5.9076636986881663 -7.896886887869619 5.5607187478403413
v 5.9112088839242283 -7.4985525212031021 4.8988211551055532
v 5.6642381438283476 -10.6513567263829 6.6713166458705864
v 5.6642381438283476 -9.0274339541479058 6.4451302636989523
v 5.6642381438283476 -9.8236432736170975 6.6713166458705864
v 7.1175630700103509 -7.6427119924101747 3.3063988635609616
v 6.7893538462629763 -7.7057655761328281 2.5491588019448566
v 6.738924524288084 -7.4645861981659607 3.3050338859438062
v 5.9074970241582578 -8.3905739373789565 1.3484708727400863
v 6.3754971198800749 -7.9615430995102265 1.8795245521845576
v 5.6642381438283476 -8.1287789085366793 1.5661547951133512
v 5.9109655396664342 -7.2744349782145861 3.3007866875782264
v 6.3802689347871269 -7.5644804274348951 2.5414378432372238
v 6.3245892262482251 -7.3383222077926815 3.3016225695162928
v 5.6642381438283476 -7.3459162095971315 2.900785896596298
v 6.5680147811080438 -7.4887674744263517 2.9077517480228039
v 6.1335415389490402 -7.7169663440185827 2.1422245308154499
v 5.9076636986881663 -7.896886887869619 1.8392812521596591
v 5.9112088839242283 -7.4985525212031021 2.5011788448944468
v 5.6642381438283476 -10.6513567263829 0.72868335412941443
v 5.6642381438283476 -9.0274339541479058 0.9548697363010481
v 5.6642381438283476 -9.8236432736170975 0.72868335412941443
v 7.5111642064493891 -7.885970872740085 3.4567411196700895
v 7.94019504431812 -8.4170245521845573 2.9887410239482723
v 7.3779931212354732 -7.8595523122221547 3.0609314030526109
v 8.1959725676955184 -9.0866588019448553 2.5748842975653714
v 7.0262096430469878 -7.9636937398566694 2.2947104473991371
v 7.7855584873879895 -8.4329971349773629 2.5847558966194466
v 7.2126030039815303 -7.887144904910059 2.6615409556330238
v 7.6064738254750193 -8.1305704597698778 2.811986222266694
v 6.0634514562501218 -10.484227395838086 0.73693497821458687
v 6.0626155743120549 -10.897851082419876 0.80082220779268276
v 6.0578392802673857 -8.7841750738179947 1.105211992410176
v 6.8150793418834912 -9.1123842975653702 1.1682655761328298
v 6.3033067407757368 -8.5237450225928733 1.3220523122221559
v 6.0592042578845415 -9.1628136195402625 0.92708619816596194
v 7.4847135916437901 -9.5262410239482715 1.4240430995102282
v 6.7794822472089011 -8.116179656440357 1.8954971349773628
v 7.0695276964292111 -8.8755285007813587 1.4261937398566706
v 6.5522519215616537 -8.2952643183533272 1.5930704597698795
v 7.2043644675196914 -8.2977666246068047 2.0072373647026858
v 6.7026971881953239 -8.6891351398468153 1.3496449049100607
v 6.0634514562501218 -9.9907726041619114 0.73693497821458687
v 6.8228003005911244 -9.5214692090412196 1.0269804274348964
v 6.0626155743120549 -9.5771489175801214 0.80082220779268276
v 6.4634522472320501 -10.237499999999999 0.80841620959713234
v 6.4564863958055447 -9.3337233627203027 0.95126747442635295
v 7.9380444039716771 -8.8322104473991363 2.3380285007813599
v 7.4687410088509854 -9.1222558966194462 1.5786796564403578
v 8.0145932389182875 -9.1990409556330235 2.151635139846817
v 7.6039715192215427 -8.5447373647026836 2.1598736763086563
v 7.7711676840584687 -9.3494862222666928 1.7577643183533282
v 7.357000779125662 -8.697373676308656 1.7602666246068051
v 7.2220136130128978 -9.7681966048793072 1.179466344018584
v 6.8630592989339014 -9.9905292599041182 0.96105252120310292
v 7.5111642064493891 -7.885970872740085 3.9432588803299109
v 7.94019504431812 -8.4170245521845573 4.4112589760517285
v 7.3779931212354732 -7.8595523122221547 4.3390685969473894
v 7.7729592352916672 -8.10365479511335 3.7000000000000002
v 8.1959725676955184 -9.0866588019448553 4.825115702434629
v 7.0262096430469878 -7.9636937398566694 5.1052895526008637
v 7.7855584873879895 -8.4329971349773629 4.8152441033805538
v 7.2126030039815303 -7.887144904910059 4.7384590443669765
v 7.6064738254750193 -8.1305704597698778 4.5880137777333063
v 8.1847717998097629 -8.6797245308154487 3.2306966048793075
v 8.1847717998097629 -8.6797245308154487 4.1693033951206928
v 8.0048512559587266 -8.3767812521596579 3.4565744451401814
v 8.0048512559587266 -8.3767812521596579 3.9434255548598189
v 6.0634514562501218 -10.484227395838086 6.6630650217854139
v 6.0626155743120549 -10.897851082419876 6.5991777922073176
v 6.0578392802673857 -8.7841750738179947 6.2947880075898244
v 6.8150793418834912 -9.1123842975653702 6.2317344238671701
v 6.3033067407757368 -8.5237450225928733 6.0779476877778444
v 6.0592042578845415 -9.1628136195402625 6.4729138018340384
v 7.4847135916437901 -9.5262410239482715 5.9759569004897717
v 6.7794822472089011 -8.116179656440357 5.5045028650226371
v 7.0695276964292111 -8.8755285007813587 5.9738062601433297
v 6.5522519215616537 -8.2952643183533272 5.8069295402301204
v 7.2043644675196914 -8.2977666246068047 5.3927626352973146
v 6.7026971881953239 -8.6891351398468153 6.0503550950899392
v 6.0634514562501218 -9.9907726041619114 6.6630650217854139
v 6.8228003005911244 -9.5214692090412196 6.373019572565104
v 6.0626155743120549 -9.5771489175801214 6.5991777922073176
v 6.4634522472320501 -10.237499999999999 6.5915837904028685
v 6.4564863958055447 -9.3337233627203027 6.4487325255736474
v 7.9380444039716771 -8.8322104473991363 5.0619714992186404
v 7.4687410088509854 -9.1222558966194462 5.821320343559643
v 8.0145932389182875 -9.1990409556330235 5.2483648601531829
v 7.6039715192215427 -8.5447373647026836 5.240126323691344
v 7.7711676840584687 -9.3494862222666928 5.6422356816466719
v 7.357000779125662 -8.697373676308656 5.6397333753931953
v 7.2220136130128978 -9.7681966048793072 6.2205336559814164
v 6.8630592989339014 -9.9905292599041182 6.4389474787968979
v 8.3372577163934523 -9.0789378432372221 2.9839692090412209
v 8.4031856226252444 -9.0386788448944451 3.4530292599041195
v 8.3372577163934523 -9.0789378432372221 4.4160307909587795
v 8.4031856226252444 -9.0386788448944451 3.9469707400958809
v -1.5771933363574009 -7.6855475749438789 3.7000000000000002
v 0 -11.814693336357401 6.2519524250561203
v 0 -8.6603066636425972 6.2519524250561203
v 0 -11.814693336357401 1.1480475749438801
v 0 -8.6603066636425972 1.1480475749438801
v -2.5519524250561201 -10.237499999999999 2.1228066636425993
v -2.5519524250561201 -10.237499999999999 5.2771933363574011
v 0 -7.2374999999999989 3.7000000000000002
v -0.92705098312484235 -7.8104490168751566 5.2000000000000011
v 0 -10.237499999999999 6.7000000000000002
v -0.92705098312484235 -7.8104490168751566 2.1999999999999997
v 0 -10.237499999999999 0.70000000000000018
v -2.4270509831248424 -8.7374999999999989 2.7729490168751578
v -2.4270509831248424 -11.737499999999999 2.7729490168751578
v -1.5000000000000004 -11.16455098312484 1.2729490168751578
v -1.5000000000000004 -9.3104490168751575 1.2729490168751578
v -2.4270509831248424 -8.7374999999999989 4.6270509831248425
v -2.4270509831248424 -11.737499999999999 4.6270509831248425
v -1.5000000000000004 -11.16455098312484 6.1270509831248425
v -1.5000000000000004 -9.3104490168751575 6.1270509831248425
v -3 -10.237499999999999 3.7000000000000002
v -0.81979958673801523 -7.3516849266482467 3.7000000000000002
v -0.48186610692006943 -12.318841432681346 5.8061393343284893
v -1.3016656936580842 -7.6494945587514405 4.4796757390232633
v -0.48186610692006943 -8.1561585673186521 5.8061393343284893
v -0.48737954434935943 -7.384330451114538 4.4885966681787011
v 0 -7.6855475749438789 5.2771933363574011
v 0 -11.057299586738015 6.5858150733517533
v 0 -9.4177004132619828 6.5858150733517533
v -0.48186610692006943 -12.318841432681346 1.5938606656715111
v -1.3016656936580842 -7.6494945587514405 2.920324260976737
v -0.48186610692006943 -8.1561585673186521 1.5938606656715111
v -0.48737954434935943 -7.384330451114538 2.9114033318212997
v 0 -7.6855475749438789 2.1228066636425993
v 0 -11.057299586738015 0.81418492664824749
v 0 -9.4177004132619828 0.81418492664824749
v -2.0813414326813477 -8.1313606656715098 3.2181338930799308
v -2.5880054412485585 -9.4578242609767358 2.3983343063419156
v -1.7633557568774196 -8.172927119293238 2.4240237874719401
v -2.5880054412485585 -11.017175739023262 2.3983343063419156
v -1.7633557568774196 -12.30207288070676 2.4240237874719401
v -0.77967573902326337 -11.539165693658083 1.1119945587514417
v -2.1061393343284891 -10.719366106920068 1.6186585673186529
v -1.27597621252806 -12.000855756877419 1.6354271192932397
v -0.78859666817870055 -10.724879544349358 0.84683045111453925
v -2.0645728807067605 -11.513476212528058 1.9366442431225808
v -0.77967573902326337 -8.9358343063419152 1.1119945587514417
v -2.1061393343284891 -9.7556338930799296 1.6186585673186529
v -1.27597621252806 -8.4741442431225789 1.6354271192932397
v -0.78859666817870055 -9.7501204556506398 0.84683045111453925
v -2.0645728807067605 -8.9615237874719398 1.9366442431225808
v -1.5771933363574011 -10.237499999999999 1.1480475749438805
v -2.0813414326813477 -8.1313606656715098 4.1818661069200695
v -2.5880054412485585 -9.4578242609767358 5.0016656936580848
v -1.7633557568774196 -8.172927119293238 4.9759762125280602
v -2.5519524250561196 -8.6603066636425972 3.7000000000000002
v -2.5880054412485585 -11.017175739023262 5.0016656936580848
v -1.7633557568774196 -12.30207288070676 4.9759762125280602
v -2.5519524250561196 -11.814693336357401 3.7000000000000002
v -0.77967573902326337 -11.539165693658083 6.2880054412485586
v -2.1061393343284891 -10.719366106920068 5.7813414326813479
v -1.27597621252806 -12.000855756877419 5.7645728807067602
v -0.78859666817870055 -10.724879544349358 6.5531695488854611
v -2.0645728807067605 -11.513476212528058 5.4633557568774194
v -0.77967573902326337 -8.9358343063419152 6.2880054412485586
v -2.1061393343284891 -9.7556338930799296 5.7813414326813479
v -1.27597621252806 -8.4741442431225789 5.7645728807067602
v -0.78859666817870055 -9.7501204556506398 6.5531695488854611
v -2.0645728807067605 -8.9615237874719398 5.4633557568774194
v -1.5771933363574011 -10.237499999999999 6.2519524250561194
v -2.8858150733517527 -10.237499999999999 2.8802004132619849
v -2.8858150733517527 -10.237499999999999 4.5197995867380154
v -2.8531695488854609 -9.4489033318212989 3.2126204556506406
v -2.8531695488854609 -11.026096668178699 3.2126204556506406
v -2.8531695488854609 -9.4489033318212989 4.1873795443493602
v -2.8531695488854609 -11.026096668178699 4.1873795443493602
v -1.2100660458520931 -7.4923697363010469 3.7000000000000002
v -0.41385672638290116 -7.2661833541294136 3.7000000000000002
v -0.24325888032991053 -12.084426062621041 6.0515291272599141
v 0 -12.346221091463319 5.8338452048866491
v -1.4533249261820036 -7.6427119924101747 4.0936011364390383
v -1.125115702434629 -7.7057655761328281 4.8508411980551438
v -1.0746863804597369 -7.4645861981659607 4.0949661140561942
v -0.24325888032991053 -8.3905739373789565 6.0515291272599141
v -0.71125897605172783 -7.9615430995102265 5.5204754478154427
v -0.24672739583808684 -7.2744349782145861 4.0992133124217744
v -0.71603079095877953 -7.5644804274348951 4.8585621567627761
v -0.66035108241987717 -7.3383222077926815 4.0983774304837075
v -0.90377663727969604 -7.4887674744263517 4.4922482519771965
v 0 -8.1287789085366793 5.8338452048866491
v 0 -7.3459162095971315 4.4992141034037019
v -0.46930339512069263 -7.7169663440185827 5.2577754691845504
v -0.24342555485981887 -7.896886887869619 5.5607187478403413
v -0.24697074009588049 -7.4985525212031021 4.8988211551055532
v 0 -11.447566045852092 6.4451302636989523
v 0 -10.6513567263829 6.6713166458705864
v 0 -9.0274339541479058 6.4451302636989523
v 0 -9.8236432736170975 6.6713166458705864
v -0.24325888032991053 -12.084426062621041 1.3484708727400863
v 0 -12.346221091463319 1.5661547951133512
v -1.4533249261820036 -7.6427119924101747 3.3063988635609616
v -1.125115702434629 -7.7057655761328281 2.5491588019448566
v -1.0746863804597369 -7.4645861981659607 3.3050338859438062
v -0.24325888032991053 -8.3905739373789565 1.3484708727400863
v -0.71125897605172783 -7.9615430995102265 1.8795245521845576
v -0.24672739583808684 -7.2744349782145861 3.3007866875782264
v -0.71603079095877953 -7.5644804274348951 2.5414378432372238
v -0.66035108241987717 -7.3383222077926815 3.3016225695162928
v -0.90377663727969604 -7.4887674744263517 2.9077517480228039
v 0 -8.1287789085366793 1.5661547951133512
v 0 -7.3459162095971315 2.900785896596298
v -0.46930339512069263 -7.7169663440185827 2.1422245308154499
v -0.24342555485981887 -7.896886887869619 1.8392812521596591
v -0.24697074009588049 -7.4985525212031021 2.5011788448944468
v 0 -11.447566045852092 0.9548697363010481
v 0 -10.6513567263829 0.72868335412941443
v 0 -9.0274339541479058 0.9548697363010481
v 0 -9.8236432736170975 0.72868335412941443
v -1.8469260626210418 -7.885970872740085 3.4567411196700895
v -2.275956900489772 -8.4170245521845573 2.9887410239482723
v -1.7137549774071259 -7.8595523122221547 3.0609314030526109
v -2.5947880075898242 -9.8438988635609608 2.2466750738179968
v -2.5317344238671704 -9.0866588019448553 2.5748842975653714
v -1.3619714992186405 -7.9636937398566694 2.2947104473991371
v -2.1213203435596424 -8.4329971349773629 2.5847558966194466
v -1.548364860153183 -7.887144904910059 2.6615409556330238
v -1.9422356816466722 -8.1305704597698778 2.811986222266694
v -2.275956900489772 -12.057975447815441 2.9887410239482723
v -2.5947880075898242 -10.631101136439037 2.2466750738179968
v -2.5317344238671704 -11.388341198055143 2.5748842975653714
v -2.1213203435596424 -12.042002865022635 2.5847558966194466
v -1.9422356816466722 -12.34442954023012 2.811986222266694
v -0.3936011364390386 -11.690824926182003 1.105211992410176
v -1.1508411980551436 -11.362615702434628 1.1682655761328298
v -0.63906859694738938 -11.951254977407125 1.3220523122221559
v -0.39496611405619386 -11.312186380459735 0.92708619816596194
v -2.3515291272599139 -10.48075888032991 1.8530739373789584
v -1.8204754478154426 -10.948758976051726 1.4240430995102282
v -2.3779476877778443 -10.876568596947388 1.9862450225928743
v -1.1152441033805534 -12.358820343559641 1.8954971349773628
v -1.4052895526008633 -11.599471499218639 1.4261937398566706
v -0.88801377773330603 -12.179735681646671 1.5930704597698795
v -1.5401263236913438 -12.177233375393193 2.0072373647026858
v -1.0384590443669763 -11.785864860153183 1.3496449049100607
v -0.39921331242177405 -10.484227395838086 0.73693497821458687
v -1.1585621567627764 -10.953530790958778 1.0269804274348964
v -0.39837743048370738 -10.897851082419876 0.80082220779268276
v -0.79224825197719684 -11.141276637279695 0.95126747442635295
v -2.2738062601433295 -11.642789552600862 2.3380285007813599
v -1.8045028650226373 -11.352744103380552 1.5786796564403578
v -2.3503550950899395 -11.275959044366974 2.151635139846817
v -1.9397333753931951 -11.930262635297314 2.1598736763086563
v -2.1069295402301207 -11.125513777733305 1.7577643183533282
v -1.6927626352973144 -11.777626323691342 1.7602666246068051
v -0.3936011364390386 -8.7841750738179947 1.105211992410176
v -1.1508411980551436 -9.1123842975653702 1.1682655761328298
v -0.63906859694738938 -8.5237450225928733 1.3220523122221559
v -0.39496611405619386 -9.1628136195402625 0.92708619816596194
v -2.3515291272599139 -9.9942411196700878 1.8530739373789584
v -1.8204754478154426 -9.5262410239482715 1.4240430995102282
v -2.3779476877778443 -9.5984314030526097 1.9862450225928743
v -2.133845204886649 -10.237499999999999 1.5912789085366805
v -1.1152441033805534 -8.116179656440357 1.8954971349773628
v -1.4052895526008633 -8.8755285007813587 1.4261937398566706
v -0.88801377773330603 -8.2952643183533272 1.5930704597698795
v -1.5401263236913438 -8.2977666246068047 2.0072373647026858
v -1.0384590443669763 -8.6891351398468153 1.3496449049100607
v -0.39921331242177405 -9.9907726041619114 0.73693497821458687
v -1.1585621567627764 -9.5214692090412196 1.0269804274348964
v -0.39837743048370738 -9.5771489175801214 0.80082220779268276
v -0.79921410340370236 -10.237499999999999 0.80841620959713234
v -0.79224825197719684 -9.3337233627203027 0.95126747442635295
v -2.2738062601433295 -8.8322104473991363 2.3380285007813599
v -1.8045028650226373 -9.1222558966194462 1.5786796564403578
v -2.3503550950899395 -9.1990409556330235 2.151635139846817
v -1.9397333753931951 -8.5447373647026836 2.1598736763086563
v -2.1069295402301207 -9.3494862222666928 1.7577643183533282
v -1.6927626352973144 -8.697373676308656 1.7602666246068051
v -1.5577754691845507 -10.706803395120691 1.179466344018584
v -1.5577754691845507 -9.7681966048793072 1.179466344018584
v -1.8607187478403411 -10.480925554859818 1.3593868878696203
v -1.1988211551055534 -10.48447074009588 0.96105252120310292
v -1.8607187478403411 -9.9940744451401802 1.3593868878696203
v -1.1988211551055534 -9.9905292599041182 0.96105252120310292
v -1.8469260626210418 -7.885970872740085 3.9432588803299109
v -2.275956900489772 -8.4170245521845573 4.4112589760517285
v -1.7137549774071259 -7.8595523122221547 4.3390685969473894
v -2.1087210914633197 -8.10365479511335 3.7000000000000002
v -2.5947880075898242 -9.8438988635609608 5.1533249261820036
v -2.5317344238671704 -9.0866588019448553 4.825115702434629
v -1.3619714992186405 -7.9636937398566694 5.1052895526008637
v -2.1213203435596424 -8.4329971349773629 4.8152441033805538
v -1.548364860153183 -7.887144904910059 4.7384590443669765
v -1.9422356816466722 -8.1305704597698778 4.5880137777333063
v -2.5205336559814162 -8.6797245308154487 3.2306966048793075
v -2.5205336559814162 -8.6797245308154487 4.1693033951206928
v -2.3406131121303799 -8.3767812521596579 3.4565744451401814
v -2.3406131121303799 -8.3767812521596579 3.9434255548598189
v -2.275956900489772 -12.057975447815441 4.4112589760517285
v -2.5947880075898242 -10.631101136439037 5.1533249261820036
v -2.5317344238671704 -11.388341198055143 4.825115702434629
v -2.1213203435596424 -12.042002865022635 4.8152441033805538
v -1.9422356816466722 -12.34442954023012 4.5880137777333063
v -2.5205336559814162 -11.795275469184549 3.2306966048793075
v -2.5205336559814162 -11.795275469184549 4.1693033951206928
v -2.3406131121303799 -12.09821874784034 3.4565744451401814
v -2.3406131121303799 -12.09821874784034 3.9434255548598189
v -0.3936011364390386 -11.690824926182003 6.2947880075898244
v -1.1508411980551436 -11.362615702434628 6.2317344238671701
v -0.63906859694738938 -11.951254977407125 6.0779476877778444
v -0.39496611405619386 -11.312186380459735 6.4729138018340384
v -2.3515291272599139 -10.48075888032991 5.5469260626210417
v -1.8204754478154426 -10.948758976051726 5.9759569004897717
v -2.3779476877778443 -10.876568596947388 5.4137549774071259
v -1.1152441033805534 -12.358820343559641 5.5045028650226371
v -1.4052895526008633 -11.599471499218639 5.9738062601433297
v -0.88801377773330603 -12.179735681646671 5.8069295402301204
v -1.5401263236913438 -12.177233375393193 5.3927626352973146
v -1.0384590443669763 -11.785864860153183 6.0503550950899392
v -0.39921331242177405 -10.484227395838086 6.6630650217854139
v -1.1585621567627764 -10.953530790958778 6.373019572565104
v -0.39837743048370738 -10.897851082419876 6.5991777922073176
v -0.79224825197719684 -11.141276637279695 6.4487325255736474
v -2.2738062601433295 -11.642789552600862 5.0619714992186404
v -1.8045028650226373 -11.352744103380552 5.821320343559643
v -2.3503550950899395 -11.275959044366974 5.2483648601531829
v -1.9397333753931951 -11.930262635297314 5.240126323691344
v -2.1069295402301207 -11.125513777733305 5.6422356816466719
v -1.6927626352973144 -11.777626323691342 5.6397333753931953
v -0.3936011364390386 -8.7841750738179947 6.2947880075898244
v -1.1508411980551436 -9.1123842975653702 6.2317344238671701
v -0.63906859694738938 -8.5237450225928733 6.0779476877778444
v -0.39496611405619386 -9.1628136195402625 6.4729138018340384
v -2.3515291272599139 -9.9942411196700878 5.5469260626210417
v -1.8204754478154426 -9.5262410239482715 5.9759569004897717
v -2.3779476877778443 -9.5984314030526097 5.4137549774071259
v -2.133845204886649 -10.237499999999999 5.8087210914633198
v -1.1152441033805534 -8.116179656440357 5.5045028650226371
v -1.4052895526008633 -8.8755285007813587 5.9738062601433297
v -0.88801377773330603 -8.2952643183533272 5.8069295402301204
v -1.5401263236913438 -8.2977666246068047 5.3927626352973146
v -1.0384590443669763 -8.6891351398468153 6.0503550950899392
v -0.39921331242177405 -9.9907726041619114 6.6630650217854139
v -1.1585621567627764 -9.5214692090412196 6.373019572565104
v -0.39837743048370738 -9.5771489175801214 6.5991777922073176
v -0.79921410340370236 -10.237499999999999 6.5915837904028685
v -0.79224825197719684 -9.3337233627203027 6.4487325255736474
v -2.2738062601433295 -8.8322104473991363 5.0619714992186404
v -1.8045028650226373 -9.1222558966194462 5.821320343559643
v -2.3503550950899395 -9.1990409556330235 5.2483648601531829
v -1.9397333753931951 -8.5447373647026836 5.240126323691344
v -2.1069295402301207 -9.3494862222666928 5.6422356816466719
v -1.6927626352973144 -8.697373676308656 5.6397333753931953
v -1.5577754691845507 -10.706803395120691 6.2205336559814164
v -1.5577754691845507 -9.7681966048793072 6.2205336559814164
v -1.8607187478403411 -10.480925554859818 6.0406131121303801
v -1.1988211551055534 -10.48447074009588 6.4389474787968979
v -1.8607187478403411 -9.9940744451401802 6.0406131121303801
v -1.1988211551055534 -9.9905292599041182 6.4389474787968979
v -2.7451302636989521 -10.237499999999999 2.4899339541479071
v -2.9713166458705857 -10.237499999999999 3.2861432736170988
v -2.7729138018340382 -9.842533885943805 2.6253136195402633
v -2.7729138018340382 -10.632466114056193 2.6253136195402633
v -2.7451302636989521 -10.237499999999999 4.9100660458520933
v -2.9713166458705857 -10.237499999999999 4.1138567263829016
v -2.7729138018340382 -9.842533885943805 4.7746863804597375
v -2.7729138018340382 -10.632466114056193 4.7746863804597375
v -2.6730195725651038 -9.0789378432372221 2.9839692090412209
v -2.9630650217854133 -9.8382866875782256 3.4532726041619131
v -2.7487325255736472 -9.4452517480228018 2.7962233627203039
v -2.7389474787968973 -9.0386788448944451 3.4530292599041195
v -2.8991777922073174 -9.8391225695162916 3.0396489175801227
v -2.6730195725651038 -11.396062156762776 2.9839692090412209
v -2.9630650217854133 -10.636713312421772 3.4532726041619131
v -2.7487325255736472 -11.029748251977196 2.7962233627203039
v -2.7389474787968973 -11.436321155105553 3.4530292599041195
v -2.8991777922073174 -10.635877430483706 3.0396489175801227
v -2.6730195725651038 -9.0789378432372221 4.4160307909587795
v -2.9630650217854133 -9.8382866875782256 3.9467273958380873
v -2.7487325255736472 -9.4452517480228018 4.6037766372796964
v -2.7389474787968973 -9.0386788448944451 3.9469707400958809
v -2.8991777922073174 -9.8391225695162916 4.3603510824198777
v -2.8915837904028678 -9.4382858965962964 3.7000000000000002
v -2.6730195725651038 -11.396062156762776 4.4160307909587795
v -2.9630650217854133 -10.636713312421772 3.9467273958380873
v -2.7487325255736472 -11.029748251977196 4.6037766372796964
v -2.7389474787968973 -11.436321155105553 3.9469707400958809
v -2.8991777922073174 -10.635877430483706 4.3603510824198777
v -2.8915837904028678 -11.036714103403702 3.7000000000000002
v -2.1095773239943916 -12.316911891436195 3.2441011777710416
v -2.1627733588815783 -12.307681503769201 3.6432593534272053
v -0.82690508226229442 -12.469190133034685 5.5159030839308416
v -0.73095613677967031 -12.47626775245339 5.5523972527440213
v -0.32254453781326653 -12.492081976027924 1.757846164751061
v -0.15737194723548759 -12.496136735536769 1.742728049353891
v -1.2427809345278398 -12.437642440026119 2.1018560625911284
v -1.4124123714731747 -12.416720397799944 2.2133183600176887
v 6.3042242640480941 -10.790753782651406 0.82930873616507228
v 6.4262843024152696 -10.721607625003402 0.84137120329082149
v 6.4367833349625476 -10.714959185966219 0.84230025064636793
v 8.3780094560521192 -9.276102638533045 4.5170831148643451
v 8.3337272671561191 -9.314300717368047 4.6846052732671364
v -1.8341309306920288 -12.364706374559761 2.6734182856060307
v -1.7041795805172602 -12.380734344873904 2.4894003129240589
v -1.9388187621279995 -12.346541312629483 2.8106810751473841
v -1.5840258205721296 -12.395553897690736 2.3662493416729378
v 6.9446279127450232 -10.393370153781818 6.3986355106371171
v 6.8630592989339023 -10.445022908816998 6.4389474787968988
v 7.2022549436759862 -10.211928727333499 6.2713138340417993
v 6.8315332410557987 -10.464986564795916 6.4509893613750373
v 5.8924592103249704 -11.024015804354439 6.5757345652585473
v 6.0623693033271389 -10.927762925575447 6.5900624967108703
v 5.7352691587809526 -11.103138627130967 6.5655108203539827
v 6.0877499381382734 -10.913384973550086 0.81042268048869226
v 8.3337272671561191 -9.314300717368047 2.715394726732864
v 8.3780094560521192 -9.276102638533045 2.8829168851356557
v 6.4532784754062931 -10.704513753479349 0.84522526185650837
v 6.8315332410557987 -10.464986564795916 0.94901063862496393
v 6.4262843024152696 -10.721607625003402 6.5586287967091783
v 6.4367833349625476 -10.714959185966219 6.5576997493536338
v 6.3042242640480941 -10.790753782651406 6.5706912638349282
v 7.7721109605249428 -9.7857829691892988 5.7830545048493462
v 7.605576554160316 -9.915747695512179 5.9554434220488686
v -1.9407357878090898 -12.346208677119307 2.8136204580495341
v -1.9512854802651545 -12.344378131828787 2.8384089589464256
v 7.7883501388810972 -9.7731097900136721 1.635827447345473
v 7.926289014420087 -9.6654612349789932 1.8295092208179566
v -2.0982059121234795 -12.318885018570805 4.2017442356690688
v -1.9512854802651545 -12.344378131828787 4.5615910410535747
v -1.4124123714731747 -12.416720397799944 5.1866816399823117
v -1.2427809345278398 -12.437642440026119 5.298143937408871
v -1.2252142541195057 -12.439809083402462 5.3077745416484046
v -1.5840258205721296 -12.395553897690736 5.0337506583270635
v -1.2252142541195057 -12.439809083402462 2.0922254583515958
v -2.1627733588815783 -12.307681503769201 3.7567406465727951
v 6.0877499381382734 -10.913384973550086 6.5895773195113074
v 8.023857725423893 -9.5815960222919454 1.9707935901120603
v 7.92991605204557 -9.6626306670342093 1.8346636820776963
v -2.1095773239943916 -12.316911891436195 4.1558988222289583
v 7.5237146599113256 -9.9796333448178718 1.3613826983364818
v 7.605576554160316 -9.915747695512179 1.4445565779511325
v -2.0982059121234795 -12.318885018570805 3.1982557643309315
v 7.7721109605249428 -9.7857829691892988 1.616945495150655
v 8.0400573204615391 -9.5676221555123142 1.9990033273948971
v -1.0577892446860802 -12.452159094045959 5.4115389508361567
v -1.0577892446860802 -12.452159094045959 1.988461049163843
v 5.6642381438283476 -11.138892635431921 0.84359791425305297
v 5.7352691587809526 -11.103138627130967 0.83448917964601721
v 5.8924592103249704 -11.024015804354439 0.82426543474145386
v 6.0623693033271389 -10.927762925575447 0.80993750328913039
v 7.2392941151755261 -10.185842799598916 1.1515059041767854
v 7.4462413061554118 -10.040094143508066 1.3027487197656755
v 7.514858360155964 -9.9865448689831453 1.353389285645441
v 8.4162527766767958 -9.2411662635256846 4.315768113279308
v 8.450489755635088 -9.2085699498134552 4.0465340735596005
v 8.450489755635088 -9.2085699498134552 3.3534659264404008
v 8.4162527766767958 -9.2411662635256846 3.0842318867206933
v 8.3944869355877287 -9.2618890669369893 4.4314744172798193
v 8.3944869355877287 -9.2618890669369893 2.9685255827201806
v 8.463387743778279 -9.1962900442679274 3.5504383381245677
v -1.9407357878090898 -12.346208677119307 4.5863795419504667
v -0.61334592909272534 -12.484943202564654 1.8216970519787146
v -0.67250618900142412 -12.480579279623768 1.8312655465584999
v 8.463387743778279 -9.1962900442679274 3.8495616618754331
v -1.9388187621279995 -12.346541312629483 4.5893189248526163
v -0.73095613677967031 -12.47626775245339 1.8476027472559795
v -1.8341309306920288 -12.364706374559761 4.7265817143939692
v -1.7041795805172602 -12.380734344873904 4.9105996870759414
v 8.2147165081008531 -9.4169601041314976 2.3593783411576261
v -0.82690508226229442 -12.469190133034685 1.8840969160691572
v 8.2424247371994888 -9.3930588213386859 2.4291408847059293
v 6.4532784754062931 -10.704513753479349 6.5547747381434931
v 7.5237146599113256 -9.9796333448178718 6.0386173016635185
v -0.67250618900142412 -12.480579279623768 5.5687344534415013
v -0.61334592909272534 -12.484943202564654 5.5783029480212853
v 8.023857725423893 -9.5815960222919454 5.4292064098879402
v 7.92991605204557 -9.6626306670342093 5.565336317922303
v 7.926289014420087 -9.6654612349789932 5.5704907791820437
v 8.2147165081008531 -9.4169601041314976 5.0406216588423751
v 8.0400573204615391 -9.5676221555123142 5.4009966726051033
v 7.7883501388810972 -9.7731097900136721 5.7641725526545278
v 7.514858360155964 -9.9865448689831453 6.0466107143545598
v -0.32254453781326653 -12.492081976027924 5.6421538352489389
v 7.2392941151755261 -10.185842799598916 6.2484940958232151
v -0.15737194723548759 -12.496136735536769 5.6572719506461091
v 7.4462413061554118 -10.040094143508066 6.0972512802343237
v 5.6642381438283476 -11.138892635431921 6.5564020857469476
v 6.8630592989339023 -10.445022908816998 0.96105252120310303
v 7.2022549436759862 -10.211928727333499 1.1286861659582013
v 6.9446279127450232 -10.393370153781818 1.0013644893628841
v 8.2424247371994888 -9.3930588213386859 4.9708591152940711
v -2.2962127484012872e-15 -12.5 1.7472782694625415
v -2.2962127484012872e-15 -12.5 5.6527217305374595
v 1.9406642421816453 -12.346221091463319 1.566154795113351
v 1.8341309306920244 -12.364706374559761 1.5879270832028936
v 0.61334592909272079 -12.484943202564653 1.7295441114430021
v 1.225214254119501 -12.439809083402462 1.6763843605243862
v 5.3444386678785278 -11.299866164043042 0.90162629384581661
v 0.61334592909272079 -12.484943202564653 5.6704558885569982
v 5.0112330735830994 -11.447566045852092 0.9548697363010481
v 1.225214254119501 -12.439809083402462 5.7236156394756144
v 4.7835429045636246 -11.548494156391083 1.0079768595154288
v 4.0737180434585216 -11.814693336357401 1.1480475749438801
v 4.2111231674027447 -11.769300814787764 1.1241625916311397
v 2.4386290252016032 -12.259816005040381 1.4943085182427627
v 1.8341309306920244 -12.364706374559761 5.8120729167971072
v 3.0372522487907974 -12.125390664931802 1.3825331517256785
v 3.1852793009112914 -12.08442606262104 1.348470872740086
v 1.9406642421816453 -12.346221091463319 5.8338452048866483
v 3.6285584656807757 -11.961754196652612 1.2573202724225856
v 2.4386290252016032 -12.259816005040381 5.9056914817572368
v 4.7835429045636246 -11.548494156391083 6.3920231404845715
v 4.0737180434585216 -11.814693336357401 6.2519524250561203
v 4.2111231674027447 -11.769300814787764 6.2758374083688615
v 3.0372522487907974 -12.125390664931802 6.0174668482743225
v 5.0112330735830994 -11.447566045852092 6.4451302636989523
v 5.3444386678785278 -11.299866164043042 6.4983737061541849
v 3.1852793009112914 -12.08442606262104 6.0515291272599132
v 3.6285584656807757 -11.961754196652612 6.1426797275774154
f 363 365 212
f 351 365 363
f 413 423 421
f 421 423 224
f 425 428 225
f 225 428 426
f 426 428 414
f 301 305 197
f 333 335 322
f 8 85 74
f 250 251 181
f 74 86 24
f 85 86 74
f 361 370 368
f 215 380 376
f 267 298 296
f 267 296 163
f 186 298 267
f 287 299 298
f 266 287 186
f 287 298 186
f 196 333 322
f 298 299 196
f 196 322 296
f 296 298 196
f 193 295 285
f 285 299 193
f 193 299 287
f 297 299 285
f 196 299 297
f 297 333 196
f 330 333 297
f 166 297 285
f 166 330 297
f 224 423 420
f 351 363 158
f 225 440 425
f 195 295 293
f 294 305 195
f 281 302 300
f 300 302 197
f 355 357 210
f 165 300 282
f 281 300 165
f 413 421 189
f 424 426 281
f 165 424 281
f 355 424 165
f 225 426 424
f 222 423 413
f 414 428 222
f 166 301 289
f 289 330 166
f 194 304 290
f 197 304 301
f 289 304 194
f 301 304 289
f 290 304 302
f 302 304 197
f 292 305 301
f 285 295 292
f 285 292 166
f 292 301 166
f 292 295 195
f 195 305 292
f 194 332 289
f 289 332 330
f 194 290 288
f 187 309 268
f 63 65 21
f 21 94 89
f 21 89 63
f 326 328 312
f 189 326 312
f 310 312 199
f 312 328 199
f 94 96 89
f 81 92 7
f 28 96 88
f 89 96 28
f 102 104 32
f 80 104 102
f 102 105 82
f 32 107 105
f 32 105 102
f 371 373 247
f 161 371 247
f 247 373 179
f 373 374 362
f 179 362 246
f 179 373 362
f 397 408 214
f 214 374 373
f 371 397 214
f 214 373 371
f 360 370 211
f 211 374 360
f 211 370 361
f 362 374 211
f 360 374 372
f 372 374 214
f 214 408 372
f 360 372 170
f 368 370 213
f 213 380 369
f 42 66 4
f 42 68 66
f 364 376 170
f 364 407 212
f 365 379 212
f 376 379 215
f 212 379 364
f 364 379 376
f 376 380 367
f 367 370 360
f 170 367 360
f 170 376 367
f 213 370 367
f 367 380 213
f 361 368 174
f 163 319 269
f 296 319 163
f 296 322 319
f 286 295 193
f 293 295 286
f 181 293 286
f 181 286 250
f 193 287 284
f 155 284 266
f 284 287 266
f 284 286 193
f 250 284 155
f 250 286 284
f 420 434 224
f 417 433 223
f 223 433 416
f 208 365 351
f 158 415 351
f 415 417 223
f 195 293 291
f 291 294 195
f 300 303 282
f 303 305 294
f 197 305 303
f 197 303 300
f 191 426 414
f 290 302 191
f 281 426 191
f 191 302 281
f 350 354 353
f 357 358 210
f 279 355 165
f 279 357 355
f 165 282 279
f 282 283 279
f 234 240 239
f 420 423 412
f 412 423 222
f 172 420 412
f 412 425 172
f 412 428 425
f 222 428 412
f 203 333 330
f 330 332 203
f 203 335 333
f 332 334 203
f 203 334 331
f 331 335 203
f 157 310 288
f 313 332 194
f 288 313 194
f 313 334 332
f 310 313 288
f 199 334 313
f 199 313 310
f 76 97 8
f 8 97 85
f 320 335 331
f 307 320 167
f 320 331 167
f 202 328 326
f 202 326 324
f 331 334 311
f 311 334 199
f 167 331 311
f 199 328 311
f 104 106 32
f 88 96 93
f 150 151 120
f 30 94 92
f 30 96 94
f 30 107 93
f 93 96 30
f 7 92 64
f 64 94 21
f 92 94 64
f 3 87 75
f 87 89 28
f 63 87 3
f 63 89 87
f 67 73 22
f 22 73 69
f 22 69 66
f 66 68 22
f 9 148 80
f 9 102 82
f 80 102 9
f 82 105 27
f 81 95 92
f 105 107 95
f 95 107 30
f 92 95 30
f 27 95 81
f 27 105 95
f 35 151 149
f 120 151 35
f 394 397 371
f 249 396 394
f 249 394 161
f 161 394 371
f 211 361 359
f 359 362 211
f 246 359 153
f 246 362 359
f 353 354 209
f 366 368 213
f 213 369 366
f 174 231 230
f 230 361 174
f 153 359 230
f 359 361 230
f 159 257 229
f 257 262 184
f 262 265 184
f 65 72 21
f 21 72 64
f 405 407 364
f 372 408 405
f 372 405 170
f 170 405 364
f 129 141 12
f 37 144 129
f 129 144 141
f 141 144 40
f 138 147 39
f 39 139 137
f 135 138 39
f 39 137 135
f 39 147 136
f 136 139 39
f 40 144 142
f 15 48 46
f 143 145 40
f 40 145 141
f 269 321 187
f 319 321 269
f 187 321 309
f 425 440 436
f 425 436 172
f 172 436 416
f 226 434 430
f 430 433 226
f 416 433 430
f 430 434 420
f 172 430 420
f 416 430 172
f 405 408 221
f 221 407 405
f 219 397 394
f 394 396 219
f 375 377 352
f 352 377 208
f 208 377 365
f 215 377 375
f 377 379 365
f 215 379 377
f 369 380 378
f 353 378 375
f 209 378 353
f 369 378 209
f 378 380 215
f 375 378 215
f 192 303 294
f 192 283 282
f 282 303 192
f 352 435 169
f 353 375 169
f 169 375 352
f 350 353 169
f 355 427 424
f 438 440 427
f 427 440 225
f 424 427 225
f 210 427 355
f 210 438 427
f 356 438 210
f 210 358 356
f 356 358 350
f 435 438 356
f 169 435 356
f 169 356 350
f 164 324 274
f 324 326 274
f 274 326 189
f 189 421 274
f 229 239 237
f 229 237 159
f 177 245 242
f 239 240 177
f 177 242 237
f 237 239 177
f 238 245 177
f 177 240 238
f 288 290 280
f 157 288 280
f 280 290 191
f 191 414 280
f 222 413 411
f 411 414 222
f 280 414 411
f 280 411 157
f 273 312 310
f 273 310 157
f 189 312 273
f 273 413 189
f 411 413 273
f 157 411 273
f 97 100 85
f 31 100 97
f 156 306 255
f 306 309 198
f 268 306 156
f 268 309 306
f 167 315 307
f 91 106 29
f 93 107 103
f 103 106 91
f 103 107 32
f 32 106 103
f 10 98 88
f 88 93 10
f 93 103 10
f 10 103 91
f 91 108 10
f 10 108 98
f 31 101 98
f 88 101 28
f 98 101 88
f 11 150 120
f 9 82 78
f 33 122 113
f 35 122 120
f 13 68 42
f 33 113 110
f 123 138 135
f 57 123 6
f 123 135 6
f 173 239 229
f 234 239 173
f 270 339 336
f 252 254 182
f 184 259 257
f 173 259 254
f 257 259 229
f 229 259 173
f 254 260 182
f 259 260 254
f 184 260 259
f 183 261 255
f 183 264 261
f 263 265 185
f 185 264 263
f 23 73 71
f 71 72 23
f 64 72 71
f 71 73 67
f 7 71 67
f 64 71 7
f 431 433 417
f 226 433 431
f 432 434 226
f 343 345 337
f 180 396 249
f 248 384 180
f 384 396 180
f 137 139 128
f 19 137 128
f 135 137 59
f 59 137 19
f 6 135 59
f 136 147 146
f 136 146 12
f 12 146 129
f 15 55 48
f 34 118 117
f 34 117 115
f 12 141 131
f 141 145 131
f 201 335 320
f 322 335 201
f 319 322 201
f 201 321 319
f 227 440 438
f 227 438 435
f 436 440 227
f 408 410 221
f 397 410 408
f 219 410 397
f 395 410 219
f 384 398 396
f 396 398 219
f 219 398 395
f 216 398 384
f 274 419 164
f 164 419 346
f 274 421 419
f 419 421 224
f 160 238 233
f 238 240 233
f 324 327 202
f 327 329 202
f 346 348 271
f 164 346 271
f 306 308 255
f 255 308 183
f 308 316 183
f 198 308 306
f 315 329 200
f 325 329 315
f 311 328 325
f 311 325 167
f 167 325 315
f 325 328 202
f 202 329 325
f 108 109 98
f 98 109 31
f 31 109 100
f 99 101 31
f 97 99 31
f 25 99 76
f 76 99 97
f 116 118 34
f 34 143 116
f 114 150 11
f 130 133 115
f 133 145 143
f 133 143 34
f 115 133 34
f 4 49 42
f 49 52 16
f 35 149 119
f 119 149 148
f 119 148 9
f 78 119 9
f 61 81 7
f 7 67 61
f 81 83 27
f 61 83 81
f 20 83 61
f 62 68 13
f 41 62 13
f 18 124 57
f 57 124 123
f 228 234 173
f 173 254 228
f 228 254 252
f 232 234 228
f 336 339 204
f 337 345 204
f 252 272 270
f 182 272 252
f 258 265 263
f 258 263 162
f 184 265 258
f 258 260 184
f 162 263 256
f 183 316 256
f 256 264 183
f 263 264 256
f 340 417 415
f 340 415 158
f 168 343 337
f 429 431 341
f 168 429 341
f 226 431 429
f 429 432 226
f 348 349 339
f 204 349 337
f 339 349 204
f 422 434 432
f 419 422 346
f 224 434 422
f 224 422 419
f 175 240 234
f 175 234 232
f 233 240 175
f 175 344 233
f 336 338 232
f 338 345 344
f 338 344 175
f 232 338 175
f 204 338 336
f 204 345 338
f 206 345 343
f 344 345 206
f 168 399 343
f 341 399 168
f 218 393 391
f 381 384 248
f 154 381 248
f 216 384 381
f 235 381 154
f 19 128 58
f 46 127 15
f 127 132 15
f 320 323 201
f 309 323 198
f 321 323 309
f 201 323 321
f 198 323 307
f 307 323 320
f 435 437 227
f 352 437 435
f 208 437 352
f 223 418 415
f 415 418 351
f 351 418 208
f 418 437 208
f 233 342 160
f 233 344 342
f 342 344 206
f 235 241 176
f 241 244 176
f 176 244 236
f 236 391 176
f 178 245 243
f 243 244 178
f 236 244 243
f 243 245 238
f 160 243 238
f 236 243 160
f 162 275 253
f 253 258 162
f 182 260 253
f 253 260 258
f 190 327 276
f 276 327 324
f 276 324 164
f 271 276 164
f 200 318 315
f 198 318 308
f 308 318 316
f 316 318 200
f 307 318 198
f 315 318 307
f 87 90 75
f 90 101 99
f 28 90 87
f 28 101 90
f 75 90 25
f 90 99 25
f 111 116 11
f 11 120 111
f 33 118 111
f 111 118 116
f 120 122 111
f 111 122 33
f 140 142 114
f 140 143 40
f 40 142 140
f 116 143 140
f 116 140 11
f 11 140 114
f 38 145 133
f 131 145 38
f 130 132 38
f 38 133 130
f 42 51 13
f 49 51 42
f 16 51 49
f 16 53 51
f 27 84 82
f 82 84 78
f 78 84 26
f 83 84 27
f 110 113 77
f 77 113 26
f 26 121 78
f 78 121 119
f 113 121 26
f 119 121 35
f 113 122 121
f 121 122 35
f 5 130 115
f 14 117 112
f 14 112 43
f 117 118 112
f 43 112 110
f 112 118 33
f 110 112 33
f 68 70 22
f 62 70 68
f 22 70 67
f 20 70 62
f 67 70 61
f 61 70 20
f 252 270 152
f 270 336 152
f 152 336 232
f 152 232 228
f 228 252 152
f 182 277 272
f 253 277 182
f 275 277 253
f 190 277 275
f 270 272 188
f 271 348 188
f 188 348 339
f 188 339 270
f 256 316 314
f 314 316 200
f 162 314 275
f 256 314 162
f 340 387 205
f 341 431 205
f 205 431 417
f 205 417 340
f 363 385 158
f 217 387 385
f 158 385 340
f 385 387 340
f 406 410 395
f 221 410 406
f 337 349 347
f 347 432 429
f 337 347 168
f 347 429 168
f 207 349 348
f 422 432 207
f 207 432 347
f 347 349 207
f 207 348 346
f 346 422 207
f 206 392 342
f 383 393 216
f 381 383 216
f 391 393 383
f 235 383 381
f 176 383 235
f 176 391 383
f 2 125 46
f 125 127 46
f 58 125 2
f 58 128 125
f 38 134 131
f 127 134 132
f 132 134 38
f 437 439 227
f 418 439 437
f 227 439 436
f 223 439 418
f 416 439 223
f 436 439 416
f 13 45 41
f 13 51 45
f 41 45 43
f 51 53 45
f 45 53 14
f 43 45 14
f 20 62 60
f 60 62 41
f 26 84 79
f 26 79 77
f 79 84 83
f 77 79 60
f 79 83 20
f 60 79 20
f 47 130 5
f 47 132 130
f 15 132 47
f 47 55 15
f 52 56 16
f 5 115 44
f 44 117 14
f 115 117 44
f 14 53 44
f 271 278 276
f 188 278 271
f 272 278 188
f 276 278 190
f 190 278 277
f 277 278 272
f 200 329 317
f 200 317 314
f 317 329 327
f 314 317 275
f 275 317 190
f 317 327 190
f 341 401 399
f 205 401 341
f 387 401 205
f 363 388 385
f 212 388 363
f 212 407 388
f 385 388 217
f 218 391 389
f 389 392 218
f 389 391 236
f 342 392 389
f 160 389 236
f 342 389 160
f 392 404 218
f 217 403 387
f 387 403 401
f 171 406 395
f 128 139 36
f 125 128 36
f 36 127 125
f 36 134 127
f 41 43 1
f 43 110 1
f 1 110 77
f 1 60 41
f 1 77 60
f 5 54 47
f 54 55 47
f 17 55 54
f 54 56 17
f 388 409 217
f 406 409 221
f 221 409 407
f 407 409 388
f 390 393 218
f 218 404 390
f 390 404 400
f 390 400 171
f 399 401 220
f 401 403 220
f 400 404 220
f 220 403 400
f 399 402 343
f 402 404 392
f 343 402 206
f 206 402 392
f 220 402 399
f 220 404 402
f 386 406 171
f 217 409 386
f 386 409 406
f 171 400 386
f 386 403 217
f 400 403 386
f 131 134 126
f 126 134 36
f 12 131 126
f 126 136 12
f 126 139 136
f 36 139 126
f 44 50 5
f 50 54 5
f 50 56 54
f 44 53 50
f 50 53 16
f 16 56 50
f 382 390 171
f 171 395 382
f 216 393 382
f 382 393 390
f 382 398 216
f 395 398 382
f 441 442 357
f 192 457 455
f 475 476 283
f 29 478 477
f 456 475 283
f 486 490 358
f 124 487 472
f 477 494 29
f 24 499 498
f 465 501 86
f 149 511 507
f 480 512 354
f 512 516 354
f 506 515 151
f 466 522 80
f 473 532 37
f 37 532 529
f 18 538 464
f 114 542 453
f 163 74 267
f 8 74 163
f 269 76 8
f 269 8 163
f 25 76 269
f 25 269 187
f 268 75 25
f 268 25 187
f 74 186 267
f 24 186 74
f 261 65 63
f 261 63 255
f 63 3 255
f 156 255 3
f 3 75 268
f 156 3 268
f 69 262 257
f 69 257 66
f 262 69 265
f 73 265 69
f 73 23 265
f 185 265 23
f 57 161 247
f 6 161 57
f 179 18 57
f 179 57 247
f 4 66 257
f 4 257 159
f 72 65 261
f 264 72 261
f 23 72 185
f 264 185 72
f 46 48 241
f 235 46 241
f 2 46 235
f 2 235 154
f 249 161 6
f 249 6 59
f 19 180 249
f 19 249 59
f 17 178 244
f 55 17 244
f 241 48 244
f 55 244 48
f 237 49 4
f 237 4 159
f 52 49 242
f 237 242 49
f 248 58 2
f 248 2 154
f 248 180 19
f 248 19 58
f 56 242 245
f 52 242 56
f 245 178 17
f 245 17 56
f 368 366 443
f 444 368 443
f 181 251 446
f 445 181 446
f 294 291 447
f 448 294 447
f 450 85 451
f 449 85 450
f 86 85 449
f 452 114 453
f 150 114 452
f 283 192 454
f 455 454 192
f 456 283 454
f 458 147 459
f 460 147 458
f 147 138 459
f 461 459 138
f 124 18 462
f 464 462 18
f 463 124 462
f 457 294 448
f 192 294 457
f 465 86 449
f 80 148 467
f 466 80 467
f 468 100 469
f 123 124 472
f 470 123 472
f 471 123 470
f 473 37 474
f 85 100 468
f 451 85 468
f 354 350 480
f 479 480 350
f 482 481 483
f 484 483 481
f 518 483 484
f 485 483 518
f 448 447 485
f 457 448 485
f 519 518 484
f 454 485 518
f 457 485 454
f 455 457 454
f 358 357 442
f 486 358 442
f 487 124 463
f 489 478 106
f 29 106 478
f 488 489 106
f 350 358 490
f 479 350 490
f 91 29 492
f 491 91 492
f 357 279 441
f 493 441 279
f 279 283 476
f 493 279 476
f 106 104 495
f 488 106 495
f 443 366 496
f 526 483 485
f 496 483 526
f 513 526 485
f 443 496 526
f 444 443 526
f 525 444 526
f 497 521 513
f 517 513 521
f 514 513 517
f 497 513 485
f 492 29 494
f 366 482 483
f 496 366 483
f 500 86 501
f 24 86 500
f 499 24 500
f 503 108 504
f 502 108 503
f 108 91 491
f 504 108 491
f 151 150 506
f 505 506 150
f 148 149 507
f 508 148 507
f 150 452 509
f 505 150 509
f 148 508 510
f 467 148 510
f 513 181 445
f 514 181 513
f 511 151 515
f 149 151 511
f 293 181 514
f 517 293 514
f 209 354 518
f 516 518 354
f 519 209 518
f 495 104 520
f 517 521 293
f 291 293 521
f 104 80 522
f 520 104 522
f 461 138 523
f 474 129 524
f 37 129 474
f 485 291 497
f 447 291 485
f 144 37 529
f 528 144 529
f 527 144 528
f 366 369 482
f 481 482 369
f 530 142 531
f 142 144 531
f 527 531 144
f 497 291 521
f 484 209 519
f 526 513 543
f 445 446 543
f 544 526 543
f 534 526 544
f 534 544 536
f 445 543 513
f 174 368 525
f 444 525 368
f 369 209 484
f 481 369 484
f 138 123 523
f 471 523 123
f 524 146 533
f 129 146 524
f 174 525 526
f 534 174 526
f 146 147 535
f 460 535 147
f 174 534 536
f 231 174 536
f 146 535 537
f 533 146 537
f 100 109 539
f 469 100 539
f 541 109 540
f 539 109 541
f 109 108 502
f 540 109 502
f 114 142 542
f 530 542 142
f 446 251 543
f 547 543 251
f 548 547 251
f 546 548 251
f 546 251 545
f 547 550 544
f 547 544 543
f 551 186 24
f 551 24 549
f 266 186 551
f 498 549 24
f 552 550 547
f 548 552 547
f 554 155 266
f 553 266 551
f 555 554 266
f 555 266 553
f 546 557 552
f 546 552 548
f 250 556 545
f 558 556 250
f 250 545 251
f 558 250 559
f 546 560 557
f 545 560 546
f 556 562 560
f 556 560 545
f 561 155 554
f 559 155 561
f 250 155 559
f 562 556 566
f 558 566 556
f 246 153 564
f 246 564 565
f 246 565 563
f 567 246 563
f 567 18 179
f 568 18 567
f 538 18 568
f 246 567 179
f 558 559 566
f 569 566 559
f 570 569 559
f 570 559 561
f 153 230 569
f 570 153 569
f 564 153 570
f 554 555 565
f 554 564 570
f 554 565 564
f 554 570 561
f 566 569 230
f 562 566 230
f 560 562 230
f 560 230 231
f 553 563 565
f 553 565 555
f 550 231 544
f 231 536 544
f 552 231 550
f 557 560 231
f 557 231 552
f 567 563 553
f 567 553 551
f 567 551 549
f 568 567 549
f 538 568 498
f 498 500 462
f 498 499 500
f 498 568 549
f 538 498 462
f 464 538 462
f 493 476 454
f 456 454 476
f 441 493 454
f 475 456 476
f 442 441 454
f 518 442 454
f 486 442 518
f 490 486 518
f 479 490 518
f 480 479 518
f 516 480 518
f 512 480 516
f 449 472 462
f 487 463 462
f 449 462 500
f 465 500 501
f 487 462 472
f 449 500 465
f 470 472 449
f 450 470 449
f 458 523 470
f 471 470 523
f 458 470 450
f 468 541 450
f 451 468 450
f 469 541 468
f 458 450 541
f 461 523 458
f 459 461 458
f 539 541 469
f 537 458 541
f 502 503 541
f 537 541 503
f 535 458 537
f 460 458 535
f 540 502 541
f 491 503 504
f 492 503 491
f 489 537 503
f 529 474 537
f 478 489 503
f 478 503 492
f 528 537 489
f 529 537 528
f 473 474 529
f 532 473 529
f 494 478 492
f 477 478 494
f 524 537 474
f 533 537 524
f 530 531 528
f 527 528 531
f 509 528 489
f 466 510 489
f 488 495 489
f 509 489 510
f 520 522 466
f 520 466 489
f 467 510 466
f 520 489 495
f 453 528 509
f 530 528 453
f 452 453 509
f 530 453 542
f 506 505 509
f 515 506 509
f 511 515 509
f 510 511 509
f 507 511 510
f 508 507 510
