v -1.4672431878618175 -4.7605475749438799 3.7000000000000002
v -1.4672431878618175 -9.8644524250561201 3.7000000000000002
v -3.0444365242192184 -8.8896933363574 6.2519524250561203
v -3.0444365242192184 -5.7353066636425991 6.2519524250561203
v -3.0444365242192184 -8.8896933363574 1.1480475749438801
v -3.0444365242192184 -5.7353066636425991 1.1480475749438801
v -0.49248409916309832 -7.3125 2.1228066636425993
v -0.49248409916309832 -7.3125 5.2771933363574011
v -3.0444365242192184 -4.3125 3.7000000000000002
v -3.0444365242192184 -10.3125 3.7000000000000002
v -2.117385541094376 -9.7395509831248432 5.2000000000000011
v -2.117385541094376 -4.8854490168751576 5.2000000000000011
v -3.0444365242192184 -7.3125 6.7000000000000002
v -2.117385541094376 -9.7395509831248432 2.1999999999999997
v -2.117385541094376 -4.8854490168751576 2.1999999999999997
v -3.0444365242192184 -7.3125 0.70000000000000018
v -0.61738554109437604 -5.8125 2.7729490168751578
v -0.61738554109437604 -8.8125 2.7729490168751578
v -1.544436524219218 -8.2395509831248432 1.2729490168751578
v -1.544436524219218 -6.3854490168751576 1.2729490168751578
v -0.61738554109437604 -5.8125 4.6270509831248425
v -0.61738554109437604 -8.8125 4.6270509831248425
v -1.544436524219218 -8.2395509831248432 6.1270509831248425
v -1.544436524219218 -6.3854490168751576 6.1270509831248425
v -0.044436524219218398 -7.3125 3.7000000000000002
v -2.2246369374812032 -4.4266849266482478 3.7000000000000002
v -2.2246369374812032 -10.198315073351752 3.7000000000000002
v -1.7427708305611342 -9.9005054412485585 4.4796757390232633
v -2.562570417299149 -9.3938414326813486 5.8061393343284893
v -2.5570569798698588 -10.165669548885461 4.4885966681787011
v -3.0444365242192184 -9.8644524250561201 5.2771933363574011
v -1.7427708305611342 -4.7244945587514415 4.4796757390232633
v -2.562570417299149 -5.2311585673186523 5.8061393343284893
v -2.5570569798698588 -4.4593304511145391 4.4885966681787011
v -3.0444365242192184 -4.7605475749438799 5.2771933363574011
v -3.0444365242192184 -8.1322995867380143 6.5858150733517533
v -3.0444365242192184 -6.4927004132619848 6.5858150733517533
v -1.7427708305611342 -9.9005054412485585 2.920324260976737
v -2.562570417299149 -9.3938414326813486 1.5938606656715111
v -2.5570569798698588 -10.165669548885461 2.9114033318212997
v -3.0444365242192184 -9.8644524250561201 2.1228066636425993
v -1.7427708305611342 -4.7244945587514415 2.920324260976737
v -2.562570417299149 -5.2311585673186523 1.5938606656715111
v -2.5570569798698588 -4.4593304511145391 2.9114033318212997
v -3.0444365242192184 -4.7605475749438799 2.1228066636425993
v -3.0444365242192184 -8.1322995867380143 0.81418492664824749
v -3.0444365242192184 -6.4927004132619848 0.81418492664824749
v -0.96309509153787065 -5.2063606656715109 3.2181338930799308
v -0.45643108297065993 -6.5328242609767369 2.3983343063419156
v -1.2810807673417988 -5.2479271192932391 2.4240237874719401
v -0.96309509153787065 -9.4186393343284891 3.2181338930799308
v -0.45643108297065993 -8.0921757390232631 2.3983343063419156
v -1.2810807673417988 -9.3770728807067609 2.4240237874719401
v -2.2647607851959553 -8.6141656936580837 1.1119945587514417
v -0.9382971898907293 -7.7943661069200694 1.6186585673186529
v -1.7684603116911584 -9.0758557568774201 1.6354271192932397
v -2.255839856040518 -7.7998795443493592 0.84683045111453925
v -0.97986364351245792 -8.5884762125280609 1.9366442431225808
v -2.2647607851959553 -6.0108343063419154 1.1119945587514417
v -0.9382971898907293 -6.8306338930799306 1.6186585673186529
v -1.7684603116911584 -5.5491442431225808 1.6354271192932397
v -2.255839856040518 -6.8251204556506408 0.84683045111453925
v -0.97986364351245792 -6.03652378747194 1.9366442431225808
v -1.4672431878618173 -7.3125 1.1480475749438805
v -0.96309509153787065 -5.2063606656715109 4.1818661069200695
v -0.45643108297065993 -6.5328242609767369 5.0016656936580848
v -1.2810807673417988 -5.2479271192932391 4.9759762125280602
v -0.49248409916309877 -5.7353066636425991 3.7000000000000002
v -0.96309509153787065 -9.4186393343284891 4.1818661069200695
v -0.45643108297065993 -8.0921757390232631 5.0016656936580848
v -1.2810807673417988 -9.3770728807067609 4.9759762125280602
v -0.49248409916309877 -8.8896933363574018 3.7000000000000002
v -2.2647607851959553 -8.6141656936580837 6.2880054412485586
v -0.9382971898907293 -7.7943661069200694 5.7813414326813479
v -1.7684603116911584 -9.0758557568774201 5.7645728807067602
v -2.255839856040518 -7.7998795443493592 6.5531695488854611
v -0.97986364351245792 -8.5884762125280609 5.4633557568774194
v -2.2647607851959553 -6.0108343063419154 6.2880054412485586
v -0.9382971898907293 -6.8306338930799306 5.7813414326813479
v -1.7684603116911584 -5.5491442431225808 5.7645728807067602
v -2.255839856040518 -6.8251204556506408 6.5531695488854611
v -0.97986364351245792 -6.03652378747194 5.4633557568774194
v -1.4672431878618173 -7.3125 6.2519524250561194
v -0.15862145086746571 -7.3125 2.8802004132619849
v -0.15862145086746571 -7.3125 4.5197995867380154
v -0.19126697533375747 -6.5239033318212991 3.2126204556506406
v -0.19126697533375747 -8.1010966681787 3.2126204556506406
v -0.19126697533375747 -6.5239033318212991 4.1873795443493602
v -0.19126697533375747 -8.1010966681787 4.1873795443493602
v -1.8343704783671253 -4.5673697363010479 3.7000000000000002
v -2.630579797836317 -4.3411833541294147 3.7000000000000002
v -1.8343704783671253 -10.057630263698952 3.7000000000000002
v -2.630579797836317 -10.283816645870585 3.7000000000000002
v -1.5911115980372148 -9.9072880075898233 4.0936011364390383
v -1.9193208217845894 -9.8442344238671708 4.8508411980551438
v -1.9697501437594815 -10.085413801834038 4.0949661140561942
v -2.8011776438893077 -9.1594260626210424 6.0515291272599141
v -2.3331775481674906 -9.5884569004897724 5.5204754478154427
v -3.0444365242192184 -9.4212210914633197 5.8338452048866491
v -2.7977091283811317 -10.275565021785413 4.0992133124217744
v -2.3284057332604391 -9.9855195725651029 4.8585621567627761
v -2.3840854417993413 -10.211677792207318 4.0983774304837075
v -3.0444365242192184 -10.204083790402867 4.4992141034037019
v -2.1406598869395221 -10.061232525573647 4.4922482519771965
v -2.5751331290985258 -9.8330336559814171 5.2577754691845504
v -2.8010109693593996 -9.6531131121303808 5.5607187478403413
v -2.7974657841233377 -10.051447478796897 4.8988211551055532
v -1.5911115980372148 -4.7177119924101758 4.0936011364390383
v -1.9193208217845894 -4.7807655761328292 4.8508411980551438
v -1.9697501437594815 -4.5395861981659618 4.0949661140561942
v -2.8011776438893077 -5.4655739373789576 6.0515291272599141
v -2.3331775481674906 -5.0365430995102276 5.5204754478154427
v -3.0444365242192184 -5.2037789085366803 5.8338452048866491
v -2.7977091283811317 -4.3494349782145871 4.0992133124217744
v -2.3284057332604391 -4.6394804274348962 4.8585621567627761
v -2.3840854417993413 -4.4133222077926826 4.0983774304837075
v -3.0444365242192184 -4.4209162095971326 4.4992141034037019
v -2.1406598869395221 -4.5637674744263528 4.4922482519771965
v -2.5751331290985258 -4.7919663440185838 5.2577754691845504
v -2.8010109693593996 -4.9718868878696201 5.5607187478403413
v -2.7974657841233377 -4.5735525212031032 4.8988211551055532
v -3.0444365242192184 -8.5225660458520931 6.4451302636989523
v -3.0444365242192184 -7.7263567263829014 6.6713166458705864
v -3.0444365242192184 -6.1024339541479069 6.4451302636989523
v -3.0444365242192184 -6.8986432736170986 6.6713166458705864
v -1.5911115980372148 -9.9072880075898233 3.3063988635609616
v -1.9193208217845894 -9.8442344238671708 2.5491588019448566
v -1.9697501437594815 -10.085413801834038 3.3050338859438062
v -2.8011776438893077 -9.1594260626210424 1.3484708727400863
v -2.3331775481674906 -9.5884569004897724 1.8795245521845576
v -3.0444365242192184 -9.4212210914633197 1.5661547951133512
v -2.7977091283811317 -10.275565021785413 3.3007866875782264
v -2.3284057332604391 -9.9855195725651029 2.5414378432372238
v -2.3840854417993413 -10.211677792207318 3.3016225695162928
v -3.0444365242192184 -10.204083790402867 2.900785896596298
v -2.1406598869395221 -10.061232525573647 2.9077517480228039
v -2.5751331290985258 -9.8330336559814171 2.1422245308154499
v -2.8010109693593996 -9.6531131121303808 1.8392812521596591
v -2.7974657841233377 -10.051447478796897 2.5011788448944468
v -1.5911115980372148 -4.7177119924101758 3.3063988635609616
v -1.9193208217845894 -4.7807655761328292 2.5491588019448566
v -1.9697501437594815 -4.5395861981659618 3.3050338859438062
v -2.8011776438893077 -5.4655739373789576 1.3484708727400863
v -2.3331775481674906 -5.0365430995102276 1.8795245521845576
v -3.0444365242192184 -5.2037789085366803 1.5661547951133512
v -2.7977091283811317 -4.3494349782145871 3.3007866875782264
v -2.3284057332604391 -4.6394804274348962 2.5414378432372238
v -2.3840854417993413 -4.4133222077926826 3.3016225695162928
v -3.0444365242192184 -4.4209162095971326 2.900785896596298
v -2.1406598869395221 -4.5637674744263528 2.9077517480228039
v -2.5751331290985258 -4.7919663440185838 2.1422245308154499
v -2.8010109693593996 -4.9718868878696201 1.8392812521596591
v -2.7974657841233377 -4.5735525212031032 2.5011788448944468
v -3.0444365242192184 -8.5225660458520931 0.9548697363010481
v -3.0444365242192184 -7.7263567263829014 0.72868335412941443
v -3.0444365242192184 -6.1024339541479069 0.9548697363010481
v -3.0444365242192184 -6.8986432736170986 0.72868335412941443
v -1.1975104615981766 -4.9609708727400861 3.4567411196700895
v -0.76847962372944645 -5.4920245521845574 2.9887410239482723
v -1.3306815468120925 -4.9345523122221557 3.0609314030526109
v -0.4496485166293942 -6.9188988635609618 2.2466750738179968
v -0.512702100352048 -6.1616588019448564 2.5748842975653714
v -1.6824650250005779 -5.0386937398566705 2.2947104473991371
v -0.92311618065957601 -5.5079971349773631 2.5847558966194466
v -1.4960716640660354 -4.9621449049100601 2.6615409556330238
v -1.1022008425725462 -5.2055704597698789 2.811986222266694
v -1.1975104615981766 -9.6640291272599139 3.4567411196700895
v -0.76847962372944645 -9.1329754478154435 2.9887410239482723
v -1.3306815468120925 -9.6904476877778443 3.0609314030526109
v -0.4496485166293942 -7.7061011364390382 2.2466750738179968
v -0.512702100352048 -8.4633411980551436 2.5748842975653714
v -1.6824650250005779 -9.5863062601433295 2.2947104473991371
v -0.92311618065957601 -9.1170028650226378 2.5847558966194466
v -1.4960716640660354 -9.6628550950899399 2.6615409556330238
v -1.1022008425725462 -9.4194295402301211 2.811986222266694
v -2.6508353877801798 -8.7658249261820043 1.105211992410176
v -1.8935953261640748 -8.4376157024346288 1.1682655761328298
v -2.4053679272718291 -9.0262549774071257 1.3220523122221559
v -2.6494704101630244 -8.3871863804597364 0.92708619816596194
v -0.69290739695930448 -7.5557588803299103 1.8530739373789584
v -1.2239610764037758 -8.0237589760517274 1.4240430995102282
v -0.66648883644137413 -7.9515685969473893 1.9862450225928743
v -1.929192420838665 -9.4338203435596419 1.8954971349773628
v -1.6391469716183551 -8.6744714992186402 1.4261937398566706
v -2.1564227464859123 -9.2547356816466717 1.5930704597698795
v -1.5043102005278746 -9.252233375393196 2.0072373647026858
v -2.0059774798522421 -8.8608648601531836 1.3496449049100607
v -2.6452232117974441 -7.5592273958380867 0.73693497821458687
v -1.885874367456442 -8.0285307909587793 1.0269804274348964
v -2.6460590937355111 -7.9728510824198775 0.80082220779268276
v -2.2521882722420217 -8.2162766372796963 0.95126747442635295
v -0.77063026407588886 -8.7177895526008626 2.3380285007813599
v -1.2399336591965811 -8.4277441033805545 1.5786796564403578
v -0.69408142912927895 -8.3509590443669772 2.151635139846817
v -1.1047031488260233 -9.0052626352973135 2.1598736763086563
v -0.93750698398909771 -8.2005137777333061 1.7577643183533282
v -1.351673888921904 -8.8526263236913429 1.7602666246068051
v -2.6508353877801798 -5.8591750738179966 1.105211992410176
v -1.8935953261640748 -6.1873842975653712 1.1682655761328298
v -2.4053679272718291 -5.5987450225928743 1.3220523122221559
v -2.6494704101630244 -6.2378136195402636 0.92708619816596194
v -0.69290739695930448 -7.0692411196700897 1.8530739373789584
v -1.2239610764037758 -6.6012410239482717 1.4240430995102282
v -0.66648883644137413 -6.6734314030526107 1.9862450225928743
v -0.91059131933256943 -7.3125 1.5912789085366805
v -1.929192420838665 -5.1911796564403581 1.8954971349773628
v -1.6391469716183551 -5.9505285007813598 1.4261937398566706
v -2.1564227464859123 -5.3702643183533283 1.5930704597698795
v -1.5043102005278746 -5.3727666246068049 2.0072373647026858
v -2.0059774798522421 -5.7641351398468164 1.3496449049100607
v -2.6452232117974441 -7.0657726041619133 0.73693497821458687
v -1.885874367456442 -6.5964692090412207 1.0269804274348964
v -2.6460590937355111 -6.6521489175801225 0.80082220779268276
v -2.2452224208155158 -7.3125 0.80841620959713234
v -2.2521882722420217 -6.4087233627203037 0.95126747442635295
v -0.77063026407588886 -5.9072104473991365 2.3380285007813599
v -1.2399336591965811 -6.1972558966194464 1.5786796564403578
v -0.69408142912927895 -6.2740409556330237 2.151635139846817
v -1.1047031488260233 -5.6197373647026856 2.1598736763086563
v -0.93750698398909771 -6.4244862222666939 1.7577643183533282
v -1.351673888921904 -5.7723736763086562 1.7602666246068051
v -1.4866610550346677 -7.7818033951206926 1.179466344018584
v -1.4866610550346677 -6.8431966048793074 1.179466344018584
v -1.1837177763788773 -7.5559255548598188 1.3593868878696203
v -1.845615369113665 -7.5594707400958807 0.96105252120310292
v -1.1837177763788773 -7.0690744451401812 1.3593868878696203
v -1.845615369113665 -7.0655292599041193 0.96105252120310292
v -1.1975104615981766 -4.9609708727400861 3.9432588803299109
v -0.76847962372944645 -5.4920245521845574 4.4112589760517285
v -1.3306815468120925 -4.9345523122221557 4.3390685969473894
v -0.93571543275589875 -5.178654795113351 3.7000000000000002
v -0.4496485166293942 -6.9188988635609618 5.1533249261820036
v -0.512702100352048 -6.1616588019448564 4.825115702434629
v -1.6824650250005779 -5.0386937398566705 5.1052895526008637
v -0.92311618065957601 -5.5079971349773631 4.8152441033805538
v -1.4960716640660354 -4.9621449049100601 4.7384590443669765
v -1.1022008425725462 -5.2055704597698789 4.5880137777333063
v -0.52390286823780219 -5.7547245308154498 3.2306966048793075
v -0.52390286823780219 -5.7547245308154498 4.1693033951206928
v -0.70382341208883847 -5.4517812521596589 3.4565744451401814
v -0.70382341208883847 -5.4517812521596589 3.9434255548598189
v -1.1975104615981766 -9.6640291272599139 3.9432588803299109
v -0.76847962372944645 -9.1329754478154435 4.4112589760517285
v -1.3306815468120925 -9.6904476877778443 4.3390685969473894
v -0.93571543275589875 -9.446345204886649 3.7000000000000002
v -0.4496485166293942 -7.7061011364390382 5.1533249261820036
v -0.512702100352048 -8.4633411980551436 4.825115702434629
v -1.6824650250005779 -9.5863062601433295 5.1052895526008637
v -0.92311618065957601 -9.1170028650226378 4.8152441033805538
v -1.4960716640660354 -9.6628550950899399 4.7384590443669765
v -1.1022008425725462 -9.4194295402301211 4.5880137777333063
v -0.52390286823780219 -8.8702754691845502 3.2306966048793075
v -0.52390286823780219 -8.8702754691845502 4.1693033951206928
v -0.70382341208883847 -9.1732187478403411 3.4565744451401814
v -0.70382341208883847 -9.1732187478403411 3.9434255548598189
v -2.6508353877801798 -8.7658249261820043 6.2947880075898244
v -1.8935953261640748 -8.4376157024346288 6.2317344238671701
v -2.4053679272718291 -9.0262549774071257 6.0779476877778444
v -2.6494704101630244 -8.3871863804597364 6.4729138018340384
v -0.69290739695930448 -7.5557588803299103 5.5469260626210417
v -1.2239610764037758 -8.0237589760517274 5.9759569004897717
v -0.66648883644137413 -7.9515685969473893 5.4137549774071259
v -1.929192420838665 -9.4338203435596419 5.5045028650226371
v -1.6391469716183551 -8.6744714992186402 5.9738062601433297
v -2.1564227464859123 -9.2547356816466717 5.8069295402301204
v -1.5043102005278746 -9.252233375393196 5.3927626352973146
v -2.0059774798522421 -8.8608648601531836 6.0503550950899392
v -2.6452232117974441 -7.5592273958380867 6.6630650217854139
v -1.885874367456442 -8.0285307909587793 6.373019572565104
v -2.6460590937355111 -7.9728510824198775 6.5991777922073176
v -2.2521882722420217 -8.2162766372796963 6.4487325255736474
v -0.77063026407588886 -8.7177895526008626 5.0619714992186404
v -1.2399336591965811 -8.4277441033805545 5.821320343559643
v -0.69408142912927895 -8.3509590443669772 5.2483648601531829
v -1.1047031488260233 -9.0052626352973135 5.240126323691344
v -0.93750698398909771 -8.2005137777333061 5.6422356816466719
v -1.351673888921904 -8.8526263236913429 5.6397333753931953
v -2.6508353877801798 -5.8591750738179966 6.2947880075898244
v -1.8935953261640748 -6.1873842975653712 6.2317344238671701
v -2.4053679272718291 -5.5987450225928743 6.0779476877778444
v -2.6494704101630244 -6.2378136195402636 6.4729138018340384
v -0.69290739695930448 -7.0692411196700897 5.5469260626210417
v -1.2239610764037758 -6.6012410239482717 5.9759569004897717
v -0.66648883644137413 -6.6734314030526107 5.4137549774071259
v -0.91059131933256943 -7.3125 5.8087210914633198
v -1.929192420838665 -5.1911796564403581 5.5045028650226371
v -1.6391469716183551 -5.9505285007813598 5.9738062601433297
v -2.1564227464859123 -5.3702643183533283 5.8069295402301204
v -1.5043102005278746 -5.3727666246068049 5.3927626352973146
v -2.0059774798522421 -5.7641351398468164 6.0503550950899392
v -2.6452232117974441 -7.0657726041619133 6.6630650217854139
v -1.885874367456442 -6.5964692090412207 6.373019572565104
v -2.6460590937355111 -6.6521489175801225 6.5991777922073176
v -2.2452224208155158 -7.3125 6.5915837904028685
v -2.2521882722420217 -6.4087233627203037 6.4487325255736474
v -0.77063026407588886 -5.9072104473991365 5.0619714992186404
v -1.2399336591965811 -6.1972558966194464 5.821320343559643
v -0.69408142912927895 -6.2740409556330237 5.2483648601531829
v -1.1047031488260233 -5.6197373647026856 5.240126323691344
v -0.93750698398909771 -6.4244862222666939 5.6422356816466719
v -1.351673888921904 -5.7723736763086562 5.6397333753931953
v -1.4866610550346677 -7.7818033951206926 6.2205336559814164
v -1.4866610550346677 -6.8431966048793074 6.2205336559814164
v -1.1837177763788773 -7.5559255548598188 6.0406131121303801
v -1.845615369113665 -7.5594707400958807 6.4389474787968979
v -1.1837177763788773 -7.0690744451401812 6.0406131121303801
v -1.845615369113665 -7.0655292599041193 6.4389474787968979
v -0.29930626052026632 -7.3125 2.4899339541479071
v -0.07311987834863265 -7.3125 3.2861432736170988
v -0.27152272238518016 -6.917533885943806 2.6253136195402633
v -0.27152272238518016 -7.707466114056194 2.6253136195402633
v -0.29930626052026632 -7.3125 4.9100660458520933
v -0.07311987834863265 -7.3125 4.1138567263829016
v -0.27152272238518016 -6.917533885943806 4.7746863804597375
v -0.27152272238518016 -7.707466114056194 4.7746863804597375
v -0.37141695165411459 -6.1539378432372231 2.9839692090412209
v -0.081371502433805087 -6.9132866875782257 3.4532726041619131
v -0.29570399864557118 -6.5202517480228028 2.7962233627203039
v -0.30548904542232114 -6.1136788448944461 3.4530292599041195
v -0.14525873201190098 -6.9141225695162927 3.0396489175801227
v -0.37141695165411459 -8.4710621567627769 2.9839692090412209
v -0.081371502433805087 -7.7117133124217743 3.4532726041619131
v -0.29570399864557118 -8.1047482519771972 2.7962233627203039
v -0.30548904542232114 -8.5113211551055539 3.4530292599041195
v -0.14525873201190098 -7.7108774304837073 3.0396489175801227
v -0.37141695165411459 -6.1539378432372231 4.4160307909587795
v -0.081371502433805087 -6.9132866875782257 3.9467273958380873
v -0.29570399864557118 -6.5202517480228028 4.6037766372796964
v -0.30548904542232114 -6.1136788448944461 3.9469707400958809
v -0.14525873201190098 -6.9141225695162927 4.3603510824198777
v -0.15285273381635056 -6.5132858965962974 3.7000000000000002
v -0.37141695165411459 -8.4710621567627769 4.4160307909587795
v -0.081371502433805087 -7.7117133124217743 3.9467273958380873
v -0.29570399864557118 -8.1047482519771972 4.6037766372796964
v -0.30548904542232114 -8.5113211551055539 3.9469707400958809
v -0.14525873201190098 -7.7108774304837073 4.3603510824198777
v -0.15285273381635056 -8.1117141034037026 3.7000000000000002
v -10.710502909015059 -4.7605475749438799 3.7000000000000002
v -9.133309572657657 -5.7353066636425991 6.2519524250561203
v -9.133309572657657 -5.7353066636425991 1.1480475749438801
v -9.133309572657657 -4.3125 3.7000000000000002
v -10.060360555782498 -4.8854490168751576 5.2000000000000011
v -9.133309572657657 -7.3125 6.7000000000000002
v -10.060360555782498 -4.8854490168751576 2.1999999999999997
v -9.133309572657657 -7.3125 0.70000000000000018
v -10.633309572657657 -6.3854490168751576 1.2729490168751578
v -10.633309572657657 -6.3854490168751576 6.1270509831248425
v -9.9531091593956731 -4.4266849266482478 3.7000000000000002
v -10.434975266315741 -4.7244945587514415 4.4796757390232633
v -9.6151756795777263 -5.2311585673186523 5.8061393343284893
v -9.6206891170070161 -4.4593304511145391 4.4885966681787011
v -9.133309572657657 -4.7605475749438799 5.2771933363574011
v -9.133309572657657 -8.1322995867380143 6.5858150733517533
v -9.133309572657657 -6.4927004132619848 6.5858150733517533
v -10.434975266315741 -4.7244945587514415 2.920324260976737
v -9.6151756795777263 -5.2311585673186523 1.5938606656715111
v -9.6206891170070161 -4.4593304511145391 2.9114033318212997
v -9.133309572657657 -4.7605475749438799 2.1228066636425993
v -9.133309572657657 -8.1322995867380143 0.81418492664824749
v -9.133309572657657 -6.4927004132619848 0.81418492664824749
v -11.214651005339004 -5.2063606656715109 3.2181338930799308
v -10.896665329535077 -5.2479271192932391 2.4240237874719401
v -9.9129853116809201 -6.0108343063419154 1.1119945587514417
v -10.409285785185716 -5.5491442431225808 1.6354271192932397
v -9.921906240836357 -6.8251204556506408 0.84683045111453925
v -11.214651005339004 -5.2063606656715109 4.1818661069200695
v -10.896665329535077 -5.2479271192932391 4.9759762125280602
v -9.9129853116809201 -6.0108343063419154 6.2880054412485586
v -10.409285785185716 -5.5491442431225808 5.7645728807067602
v -9.921906240836357 -6.8251204556506408 6.5531695488854611
v -10.34337561850975 -4.5673697363010479 3.7000000000000002
v -9.5471662990405584 -4.3411833541294147 3.7000000000000002
v -10.586634498839661 -4.7177119924101758 4.0936011364390383
v -10.258425275092286 -4.7807655761328292 4.8508411980551438
v -10.207995953117393 -4.5395861981659618 4.0949661140561942
v -9.3765684529875681 -5.4655739373789576 6.0515291272599141
v -9.8445685487093844 -5.0365430995102276 5.5204754478154427
v -9.3800369684957445 -4.3494349782145871 4.0992133124217744
v -9.8493403636164363 -4.6394804274348962 4.8585621567627761
v -9.7936606550775345 -4.4133222077926826 4.0983774304837075
v -10.037086209937353 -4.5637674744263528 4.4922482519771965
v -9.133309572657657 -5.2037789085366803 5.8338452048866491
v -9.133309572657657 -4.4209162095971326 4.4992141034037019
v -9.6026129677783487 -4.7919663440185838 5.2577754691845504
v -9.3767351275174757 -4.9718868878696201 5.5607187478403413
v -9.3802803127535377 -4.5735525212031032 4.8988211551055532
v -9.133309572657657 -8.5225660458520931 6.4451302636989523
v -9.133309572657657 -7.7263567263829014 6.6713166458705864
v -9.133309572657657 -6.1024339541479069 6.4451302636989523
v -9.133309572657657 -6.8986432736170986 6.6713166458705864
v -10.586634498839661 -4.7177119924101758 3.3063988635609616
v -10.258425275092286 -4.7807655761328292 2.5491588019448566
v -10.207995953117393 -4.5395861981659618 3.3050338859438062
v -9.3765684529875681 -5.4655739373789576 1.3484708727400863
v -9.8445685487093844 -5.0365430995102276 1.8795245521845576
v -9.3800369684957445 -4.3494349782145871 3.3007866875782264
v -9.8493403636164363 -4.6394804274348962 2.5414378432372238
v -9.7936606550775345 -4.4133222077926826 3.3016225695162928
v -10.037086209937353 -4.5637674744263528 2.9077517480228039
v -9.133309572657657 -5.2037789085366803 1.5661547951133512
v -9.133309572657657 -4.4209162095971326 2.900785896596298
v -9.6026129677783487 -4.7919663440185838 2.1422245308154499
v -9.3767351275174757 -4.9718868878696201 1.8392812521596591
v -9.3802803127535377 -4.5735525212031032 2.5011788448944468
v -9.133309572657657 -8.5225660458520931 0.9548697363010481
v -9.133309572657657 -7.7263567263829014 0.72868335412941443
v -9.133309572657657 -6.1024339541479069 0.9548697363010481
v -9.133309572657657 -6.8986432736170986 0.72868335412941443
v -10.980235635278699 -4.9609708727400861 3.4567411196700895
v -10.847064550064783 -4.9345523122221557 3.0609314030526109
v -10.495281071876297 -5.0386937398566705 2.2947104473991371
v -10.681674432810841 -4.9621449049100601 2.6615409556330238
v -11.075545254304329 -5.2055704597698789 2.811986222266694
v -9.5325228850794304 -7.5592273958380867 0.73693497821458687
v -9.5316870031413643 -7.9728510824198775 0.80082220779268276
v -9.5269107090966951 -5.8591750738179966 1.105211992410176
v -10.284150770712801 -6.1873842975653712 1.1682655761328298
v -9.7723781696050462 -5.5987450225928743 1.3220523122221559
v -9.5282756867138509 -6.2378136195402636 0.92708619816596194
v -10.24855367603821 -5.1911796564403581 1.8954971349773628
v -10.53859912525852 -5.9505285007813598 1.4261937398566706
v -10.021323350390963 -5.3702643183533283 1.5930704597698795
v -10.673435896349002 -5.3727666246068049 2.0072373647026858
v -10.171768617024632 -5.7641351398468164 1.3496449049100607
v -9.5325228850794304 -7.0657726041619133 0.73693497821458687
v -10.291871729420434 -6.5964692090412207 1.0269804274348964
v -9.5316870031413643 -6.6521489175801225 0.80082220779268276
v -9.9325236760613596 -7.3125 0.80841620959713234
v -9.9255578246348541 -6.4087233627203037 0.95126747442635295
v -11.073042948050851 -5.6197373647026856 2.1598736763086563
v -10.826072207954972 -5.7723736763086562 1.7602666246068051
v -10.980235635278699 -4.9609708727400861 3.9432588803299109
v -10.847064550064783 -4.9345523122221557 4.3390685969473894
v -11.242030664120977 -5.178654795113351 3.7000000000000002
v -10.495281071876297 -5.0386937398566705 5.1052895526008637
v -10.681674432810841 -4.9621449049100601 4.7384590443669765
v -11.075545254304329 -5.2055704597698789 4.5880137777333063
v -9.5325228850794304 -7.5592273958380867 6.6630650217854139
v -9.5316870031413643 -7.9728510824198775 6.5991777922073176
v -9.5269107090966951 -5.8591750738179966 6.2947880075898244
v -10.284150770712801 -6.1873842975653712 6.2317344238671701
v -9.7723781696050462 -5.5987450225928743 6.0779476877778444
v -9.5282756867138509 -6.2378136195402636 6.4729138018340384
v -10.24855367603821 -5.1911796564403581 5.5045028650226371
v -10.53859912525852 -5.9505285007813598 5.9738062601433297
v -10.021323350390963 -5.3702643183533283 5.8069295402301204
v -10.673435896349002 -5.3727666246068049 5.3927626352973146
v -10.171768617024632 -5.7641351398468164 6.0503550950899392
v -9.5325228850794304 -7.0657726041619133 6.6630650217854139
v -10.291871729420434 -6.5964692090412207 6.373019572565104
v -9.5316870031413643 -6.6521489175801225 6.5991777922073176
v -9.9325236760613596 -7.3125 6.5915837904028685
v -9.9255578246348541 -6.4087233627203037 6.4487325255736474
v -11.073042948050851 -5.6197373647026856 5.240126323691344
v -10.826072207954972 -5.7723736763086562 5.6397333753931953
v -9.5929396547000874 -8.0107073029842226 0.82421863878706036
v -9.5307820550079079 -8.0827652350802417 0.83431730120869263
v -10.289793943486798 -7.0916948315613135 6.4551186914161152
v -10.315206910366566 -7.0556111910579338 6.4436597120215078
v -7.6713053688657009 -9.8644524250561201 2.1228066636425993
v -8.7854163366457136 -8.8896933363574 1.1480475749438801
v -9.2618890669369893 -8.3944869355877305 0.91554180199660129
v -9.1431632335416246 -8.5191885781000831 0.95417658933679739
v -9.3611955326328271 -8.2793631438511799 0.87932624821126948
v -11.024015804354436 -5.8924592103249704 1.871850522366665
v -11.01571824962511 -5.9071064428403526 1.8502300336405912
v -11.10596573575312 -5.7296526585798446 2.1010034074845128
v -7.11189834805164 -10.275565021785413 3.3007866875782264
v -11.134620482710563 -5.6727254535944684 2.1927118244479993
v -7.0594547084639947 -10.3125 3.7000000000000006
v -10.91039938879066 -6.0930202322902485 1.6232280921139175
v -8.8388347648318462 -8.8388347648318426 1.1212864237631917
v -9.133309572657657 -8.5295382017822234 0.95853839850104305
v -7.11189834805164 -10.275565021785413 4.0992133124217744
v -11.200893163496731 -5.5410642496184606 2.4590211534341386
v -10.073097862802927 -7.399379625347164 0.86211077099153643
v -10.040094143508062 -7.4462413061554154 0.8552874983281894
v -9.926437481057329 -7.5918788598682179 0.83043626998387388
v -10.652281612382534 -6.5357620397922087 6.1577483882356043
v -10.713341259826725 -6.4393383195390133 6.089318562632176
v -7.4462413061554145 -10.040094143508064 2.4782061183341266
v -7.4301208086544825 -10.051447478796897 2.5011788448944468
v -7.2133938982622725 -10.204083790402867 2.900785896596298
v -9.6806569152317028 -7.9068175496481379 0.81838629305811761
v -9.6626306670342146 -7.9299160520455665 0.82001996798386323
v -10.721607625003402 -6.4262843024152705 6.0777423171004861
v -10.80477133819184 -6.2794798180039679 5.9548978730585498
v -10.873771952264997 -6.1576766999767516 5.8457816323322458
v -9.8154553724482199 -7.7340892895535482 0.81678687490829838
v -8.5021071945451858 -9.1594260626210424 1.3484708727400863
v -10.329533515018175 -7.0352689754351587 6.4346942980083259
v -7.940949543177414 -9.6531131121303808 1.8392812521596591
v -10.523275658920708 -6.7394847026026738 6.2846311366262837
v -10.39337015378182 -6.9446279127450241 6.3864975309752774
v -8.209776839623645 -9.4212210914633197 1.5661547951133512
v -11.01571824962511 -5.9071064428403526 5.5497699663594098
v -10.91039938879066 -6.0930202322902485 5.7767719078860829
v -8.3944869355877341 -9.2618890669369858 1.4336693915060064
v -10.315206910366566 -7.0556111910579338 0.95634028797849235
v -10.289793943486798 -7.0916948315613135 0.94488130858388519
v -9.1374886031825433 -8.525148828756496 0.95646598392153148
v -10.329533515018175 -7.0352689754351587 0.96530570199167576
v -7.940949543177414 -9.6531131121303808 5.5607187478403413
v -11.134620482710563 -5.6727254535944684 5.2072881755520015
v -11.10596573575312 -5.7296526585798446 5.298996592515488
v -11.303356144652669 -5.3365653977792737 3.1135773198382011
v -11.299866164043046 -5.3444386678785225 3.0812633883250156
v -11.303356144652669 -5.3365653977792737 4.2864226801617997
v -11.299866164043046 -5.3444386678785225 4.3187366116749857
v -11.328308341160797 -5.2802741444307015 3.6094311596189468
v -11.317794210661296 -5.3039936427720447 3.3129900797277507
v -11.317794210661296 -5.3039936427720447 4.0870099202722505
v -11.328308341160797 -5.2802741444307015 3.7905688403810536
v -10.80477133819184 -6.2794798180039679 1.4451021269414515
v -10.721607625003402 -6.4262843024152705 1.322257682899515
v -10.713341259826725 -6.4393383195390133 1.3106814373678235
v -8.209776839623645 -9.4212210914633197 5.8338452048866491
v -10.523275658920708 -6.7394847026026738 1.1153688633737169
v -10.652281612382534 -6.5357620397922087 1.2422516117643965
v -11.22747012946242 -5.4882648865089143 2.5725606963914873
v -7.2133938982622725 -10.204083790402867 4.4992141034037019
v -7.4301208086544825 -10.051447478796897 4.8988211551055532
v -10.873771952264997 -6.1576766999767516 1.5542183676677561
v -11.280997890038948 -5.3819234903251028 4.4791961843836212
v -11.234580510286508 -5.47413898592783 2.6101954456574412
v -9.6806569152317028 -7.9068175496481379 6.5816137069418827
v -9.6626306670342146 -7.9299160520455665 6.5799800320161372
v -9.5929396547000874 -8.0107073029842226 6.5757813612129405
v -7.9299160520455745 -9.6626306670342075 5.5479503299200692
v -11.280997890038948 -5.3819234903251028 2.9208038156163805
v -11.234580510286508 -5.47413898592783 4.7898045543425587
v -11.22747012946242 -5.4882648865089143 4.8274393036085135
v -11.200893163496731 -5.5410642496184606 4.9409788465658622
v -7.6713053688657009 -9.8644524250561201 5.2771933363574011
v -9.926437481057329 -7.5918788598682179 6.5695637300161271
v -9.8154553724482199 -7.7340892895535482 6.583213125091703
v -7.4462413061554145 -10.040094143508064 4.9217938816658728
v -9.1374886031825433 -8.525148828756496 6.4435340160784689
v -9.1431632335416246 -8.5191885781000831 6.4458234106632029
v -9.5307820550079079 -8.0827652350802417 6.5656826987913082
v -9.2618890669369893 -8.3944869355877305 6.4844581980033995
v -9.3611955326328271 -8.2793631438511799 6.5206737517887312
v -11.024015804354436 -5.8924592103249704 5.5281494776333346
v -9.133309572657657 -8.5295382017822234 6.4414616014989576
v -8.8388347648318462 -8.8388347648318426 6.2787135762368091
v -7.9299160520455745 -9.6626306670342075 1.8520496700799309
v -8.7854163366457136 -8.8896933363574 6.2519524250561203
v -10.040094143508062 -7.4462413061554154 6.5447125016718113
v -10.073097862802927 -7.399379625347164 6.5378892290084645
v -8.5021071945451858 -9.1594260626210424 6.0515291272599141
v -8.3944869355877341 -9.2618890669369858 5.966330608493994
v -10.39337015378182 -6.9446279127450241 1.0135024690247232
f 39 138 131
f 39 131 129
f 25 327 313
f 129 178 39
f 57 225 189
f 214 225 57
f 55 205 180
f 180 182 55
f 55 196 181
f 182 196 55
f 105 106 31
f 284 300 79
f 298 300 284
f 71 266 248
f 248 250 71
f 250 251 71
f 275 277 266
f 71 275 266
f 260 285 74
f 292 303 24
f 269 305 76
f 76 305 294
f 83 305 302
f 23 302 269
f 302 305 269
f 85 336 313
f 317 327 25
f 132 135 40
f 406 415 414
f 406 414 345
f 359 415 406
f 54 178 176
f 5 176 129
f 176 178 129
f 189 191 57
f 143 198 6
f 62 214 211
f 157 211 16
f 360 419 407
f 143 145 43
f 407 416 340
f 407 419 416
f 222 225 64
f 189 225 222
f 189 222 19
f 19 222 181
f 19 184 177
f 177 189 19
f 177 191 189
f 54 191 177
f 178 185 39
f 309 325 84
f 309 317 25
f 84 320 309
f 309 320 317
f 168 173 18
f 180 205 202
f 181 196 193
f 193 197 184
f 181 193 19
f 19 193 184
f 52 194 182
f 194 196 182
f 308 310 84
f 310 320 84
f 31 107 105
f 105 107 101
f 390 449 343
f 91 146 9
f 82 300 298
f 82 301 297
f 297 300 82
f 248 266 263
f 254 255 245
f 243 255 253
f 253 335 332
f 243 251 69
f 69 255 243
f 242 245 69
f 245 255 69
f 242 244 94
f 244 251 250
f 94 244 28
f 244 250 28
f 69 244 242
f 69 251 244
f 14 172 127
f 14 183 172
f 76 271 269
f 73 271 259
f 259 270 36
f 259 271 270
f 270 271 76
f 36 270 123
f 291 294 81
f 74 262 260
f 74 276 262
f 260 262 246
f 246 262 70
f 77 277 275
f 273 277 77
f 77 276 273
f 77 275 272
f 71 251 249
f 249 275 71
f 249 251 243
f 272 275 249
f 23 269 257
f 269 271 257
f 257 271 73
f 24 303 283
f 283 297 24
f 79 300 283
f 283 300 297
f 83 306 303
f 79 306 285
f 283 306 79
f 303 306 283
f 292 307 303
f 305 307 294
f 81 307 292
f 294 307 81
f 303 307 83
f 83 307 305
f 261 302 23
f 23 273 261
f 261 276 74
f 273 276 261
f 302 304 83
f 304 306 83
f 285 306 304
f 285 304 74
f 74 304 261
f 261 304 302
f 382 385 350
f 228 231 158
f 90 142 26
f 8 260 246
f 252 254 168
f 321 324 252
f 18 321 252
f 18 252 168
f 324 337 335
f 72 255 254
f 324 335 72
f 72 335 253
f 253 255 72
f 72 254 252
f 252 324 72
f 70 315 246
f 315 336 85
f 22 249 243
f 22 272 249
f 243 253 22
f 253 332 22
f 100 102 30
f 30 103 100
f 30 107 103
f 102 104 30
f 101 107 30
f 30 104 101
f 345 425 408
f 414 425 345
f 414 428 425
f 176 179 54
f 179 191 54
f 62 227 214
f 225 227 64
f 214 227 225
f 143 200 198
f 43 208 200
f 43 200 143
f 417 426 346
f 346 421 417
f 421 431 364
f 421 424 417
f 364 424 421
f 416 419 363
f 417 424 363
f 64 224 222
f 224 226 205
f 64 226 224
f 55 224 205
f 181 224 55
f 222 224 181
f 178 187 185
f 54 187 178
f 177 187 54
f 184 187 177
f 311 325 323
f 84 311 308
f 84 325 311
f 311 323 52
f 180 202 7
f 173 195 192
f 173 192 18
f 195 197 58
f 58 196 194
f 58 197 193
f 193 196 58
f 192 195 58
f 58 194 192
f 50 166 164
f 162 218 216
f 216 218 63
f 17 316 162
f 17 216 164
f 162 216 17
f 164 166 159
f 17 164 159
f 49 218 162
f 204 218 49
f 388 439 353
f 438 439 388
f 449 452 438
f 343 438 388
f 343 449 438
f 40 134 132
f 10 132 93
f 93 100 10
f 132 134 93
f 93 134 27
f 93 102 100
f 27 102 93
f 40 136 134
f 44 149 146
f 44 153 149
f 396 401 357
f 401 404 357
f 145 152 43
f 369 455 445
f 445 448 369
f 369 448 446
f 369 446 444
f 444 447 369
f 447 455 369
f 82 298 296
f 66 298 284
f 99 106 29
f 11 105 101
f 248 263 11
f 96 104 102
f 96 102 27
f 28 96 94
f 28 104 96
f 168 254 51
f 51 254 245
f 186 197 195
f 183 186 172
f 130 138 39
f 130 183 14
f 39 185 130
f 130 185 183
f 133 136 40
f 127 133 14
f 127 136 133
f 123 270 268
f 268 294 291
f 76 294 268
f 268 270 76
f 123 268 13
f 268 291 13
f 13 291 125
f 354 451 390
f 390 451 449
f 124 278 4
f 4 278 111
f 279 292 24
f 272 274 77
f 262 274 70
f 262 276 274
f 274 276 77
f 264 277 273
f 264 273 23
f 257 264 23
f 122 259 36
f 341 396 372
f 351 386 383
f 350 385 377
f 444 446 377
f 377 446 350
f 119 121 35
f 35 120 119
f 32 118 109
f 109 236 32
f 91 116 26
f 234 236 109
f 286 289 234
f 12 234 109
f 12 286 234
f 234 289 67
f 67 236 234
f 65 231 228
f 144 208 43
f 206 208 144
f 43 152 144
f 1 228 158
f 108 228 1
f 90 108 1
f 282 285 260
f 8 282 260
f 79 285 282
f 282 284 79
f 85 314 312
f 312 315 85
f 246 312 8
f 246 315 312
f 25 322 309
f 322 325 309
f 335 337 89
f 332 335 89
f 323 325 87
f 87 337 324
f 87 324 321
f 321 323 87
f 87 325 322
f 322 337 87
f 247 272 22
f 70 274 247
f 247 274 272
f 22 332 247
f 408 427 360
f 425 427 408
f 360 427 419
f 211 213 62
f 201 213 47
f 47 213 157
f 157 213 211
f 6 198 156
f 198 201 156
f 156 201 47
f 59 201 198
f 198 200 59
f 212 227 62
f 202 205 60
f 205 226 60
f 60 204 202
f 20 223 212
f 223 227 212
f 64 227 223
f 223 226 64
f 209 221 61
f 61 208 206
f 206 209 61
f 340 416 394
f 184 197 56
f 56 187 184
f 185 187 56
f 56 197 186
f 183 185 56
f 56 186 183
f 161 310 308
f 161 308 7
f 49 310 161
f 161 204 49
f 202 204 161
f 7 202 161
f 170 311 52
f 52 182 170
f 308 311 170
f 7 308 170
f 170 182 180
f 170 180 7
f 18 192 171
f 171 321 18
f 171 194 52
f 192 194 171
f 171 323 321
f 52 323 171
f 163 209 206
f 50 209 163
f 219 221 209
f 216 219 164
f 50 219 209
f 164 219 50
f 63 221 219
f 63 219 216
f 48 240 159
f 231 240 48
f 158 231 48
f 159 166 48
f 316 318 162
f 162 318 49
f 49 318 310
f 318 320 310
f 94 96 92
f 92 96 27
f 441 448 445
f 146 148 44
f 142 148 26
f 26 148 91
f 91 148 146
f 391 393 355
f 423 431 430
f 364 431 423
f 357 398 396
f 348 398 393
f 396 398 372
f 372 398 348
f 393 399 355
f 398 399 393
f 357 399 398
f 356 403 400
f 356 400 394
f 402 404 358
f 358 403 402
f 45 153 151
f 151 152 45
f 144 152 151
f 376 382 350
f 339 440 389
f 376 440 339
f 435 447 444
f 367 447 435
f 435 436 367
f 433 436 349
f 454 455 447
f 367 454 447
f 235 296 21
f 299 301 82
f 296 299 82
f 289 301 299
f 235 299 296
f 67 299 235
f 289 299 67
f 66 284 232
f 232 284 282
f 232 282 8
f 232 314 66
f 312 314 232
f 8 312 232
f 88 330 327
f 85 330 314
f 313 330 85
f 327 330 313
f 326 328 88
f 314 328 66
f 314 330 328
f 328 330 88
f 317 320 86
f 86 320 318
f 86 318 316
f 316 319 86
f 97 99 29
f 11 101 95
f 101 104 95
f 95 104 28
f 95 248 11
f 95 250 248
f 28 250 95
f 98 105 11
f 98 106 105
f 29 106 98
f 11 263 98
f 168 175 173
f 51 175 168
f 41 138 137
f 137 138 130
f 14 137 130
f 133 137 14
f 370 452 449
f 449 451 370
f 451 453 370
f 389 443 354
f 443 451 354
f 440 443 389
f 443 453 451
f 33 120 113
f 33 113 111
f 37 281 124
f 278 281 78
f 124 281 278
f 297 301 287
f 24 297 287
f 24 287 279
f 263 266 75
f 266 277 75
f 75 277 264
f 351 383 378
f 372 378 341
f 377 385 384
f 352 386 384
f 384 385 352
f 115 121 119
f 109 118 115
f 109 115 12
f 115 119 12
f 26 110 90
f 26 116 110
f 90 110 108
f 116 118 110
f 108 110 32
f 110 118 32
f 34 118 116
f 34 121 115
f 115 118 34
f 228 230 65
f 108 230 228
f 32 230 108
f 32 236 230
f 231 241 240
f 65 241 231
f 333 337 322
f 313 336 333
f 313 333 25
f 25 333 322
f 333 336 89
f 89 337 333
f 89 334 332
f 70 334 315
f 334 336 315
f 89 336 334
f 247 334 70
f 332 334 247
f 427 429 419
f 419 429 363
f 417 429 426
f 363 429 417
f 46 179 154
f 154 176 5
f 154 179 176
f 20 212 199
f 62 215 212
f 213 215 62
f 201 215 213
f 59 215 201
f 199 215 59
f 212 215 199
f 60 220 204
f 218 220 63
f 204 220 218
f 203 223 20
f 203 220 60
f 60 226 203
f 203 226 223
f 208 210 200
f 61 210 208
f 200 210 59
f 59 210 199
f 48 166 160
f 48 160 158
f 441 445 347
f 450 453 441
f 370 453 450
f 347 450 441
f 441 453 368
f 368 453 443
f 368 443 440
f 368 448 441
f 391 409 338
f 409 432 338
f 355 399 392
f 344 411 392
f 364 423 420
f 420 423 411
f 344 420 411
f 394 418 356
f 416 418 394
f 363 418 416
f 363 424 418
f 344 402 395
f 395 420 344
f 395 403 356
f 402 403 395
f 446 448 442
f 376 442 440
f 442 448 368
f 440 442 368
f 350 446 442
f 350 442 376
f 342 444 377
f 435 444 342
f 377 384 342
f 233 326 21
f 233 328 326
f 66 328 233
f 21 296 233
f 296 298 233
f 233 298 66
f 327 331 88
f 317 331 327
f 86 331 317
f 319 331 86
f 238 319 316
f 238 316 17
f 159 238 17
f 159 240 238
f 97 256 3
f 73 259 256
f 3 256 122
f 256 259 122
f 172 174 127
f 137 139 41
f 133 139 137
f 135 139 40
f 40 139 133
f 119 120 112
f 112 120 33
f 12 119 112
f 112 286 12
f 37 293 281
f 125 293 37
f 291 293 125
f 81 293 291
f 292 295 81
f 281 295 78
f 81 295 293
f 293 295 281
f 279 295 292
f 78 295 279
f 80 289 286
f 80 301 289
f 287 301 80
f 264 267 75
f 73 267 257
f 257 267 264
f 348 380 372
f 372 380 378
f 375 380 348
f 378 380 351
f 34 116 114
f 114 116 91
f 9 114 91
f 67 237 236
f 236 237 230
f 235 237 67
f 230 237 65
f 229 241 65
f 229 235 21
f 229 237 235
f 65 237 229
f 240 241 68
f 238 240 68
f 68 319 238
f 365 429 427
f 425 428 365
f 365 427 425
f 426 429 365
f 155 190 46
f 46 190 179
f 57 191 190
f 190 191 179
f 20 217 203
f 217 220 203
f 217 221 63
f 63 220 217
f 61 221 207
f 207 210 61
f 199 210 207
f 207 221 217
f 199 207 20
f 207 217 20
f 142 150 148
f 148 150 44
f 144 151 15
f 163 206 15
f 15 206 144
f 141 163 15
f 141 165 163
f 163 165 50
f 165 166 50
f 160 166 165
f 349 375 373
f 373 433 349
f 338 432 373
f 432 433 373
f 371 375 348
f 348 393 371
f 338 373 371
f 373 375 371
f 371 391 338
f 371 393 391
f 409 434 432
f 361 434 409
f 423 430 362
f 411 423 362
f 392 399 397
f 357 404 397
f 397 399 357
f 397 404 402
f 397 402 344
f 392 397 344
f 422 424 364
f 418 424 422
f 420 422 364
f 418 422 356
f 356 422 395
f 395 422 420
f 374 435 342
f 349 436 374
f 374 436 435
f 38 136 127
f 127 174 38
f 186 195 53
f 53 175 174
f 53 195 173
f 173 175 53
f 172 186 53
f 53 174 172
f 80 290 287
f 279 290 78
f 287 290 279
f 75 267 265
f 75 265 263
f 263 265 98
f 98 265 29
f 256 258 73
f 258 267 73
f 97 258 256
f 265 267 258
f 29 258 97
f 29 265 258
f 114 117 34
f 117 121 34
f 21 326 239
f 21 239 229
f 239 241 229
f 68 241 239
f 188 214 57
f 57 190 188
f 188 190 155
f 211 214 188
f 16 188 155
f 16 211 188
f 436 437 367
f 433 437 436
f 147 153 44
f 44 150 147
f 147 150 141
f 151 153 147
f 15 151 147
f 15 147 141
f 141 150 42
f 42 165 141
f 42 150 142
f 160 165 42
f 362 412 411
f 392 412 355
f 411 412 392
f 374 381 349
f 349 381 375
f 380 381 351
f 375 381 380
f 128 136 38
f 134 136 128
f 27 134 128
f 27 128 92
f 2 242 94
f 2 94 92
f 51 245 167
f 167 245 242
f 167 242 2
f 288 290 80
f 286 288 80
f 112 288 286
f 33 288 112
f 68 329 319
f 239 329 68
f 329 331 319
f 326 329 239
f 88 329 326
f 88 331 329
f 366 433 432
f 366 437 433
f 432 434 366
f 42 142 140
f 140 142 90
f 1 140 90
f 140 160 42
f 1 158 140
f 158 160 140
f 362 413 412
f 379 386 351
f 351 381 379
f 379 381 374
f 384 386 379
f 342 384 379
f 342 379 374
f 126 128 38
f 126 167 2
f 92 128 126
f 92 126 2
f 278 280 111
f 280 290 288
f 78 280 278
f 78 290 280
f 111 280 33
f 280 288 33
f 409 410 361
f 410 413 361
f 391 410 409
f 412 413 410
f 355 410 391
f 355 412 410
f 38 174 169
f 38 169 126
f 174 175 169
f 126 169 167
f 169 175 51
f 167 169 51
f 415 457 456
f 467 469 430
f 431 471 466
f 347 480 479
f 473 501 405
f 405 501 463
f 504 505 454
f 510 513 434
f 346 519 516
f 506 511 361
f 366 512 508
f 525 530 413
f 387 539 538
f 524 531 437
f 528 540 439
f 538 544 387
f 157 345 408
f 16 345 157
f 360 157 408
f 47 157 360
f 13 343 388
f 13 388 123
f 396 146 401
f 149 401 146
f 401 149 404
f 153 404 149
f 153 45 404
f 358 404 45
f 389 354 37
f 389 37 124
f 113 120 385
f 382 113 385
f 35 121 386
f 352 35 386
f 120 35 385
f 352 385 35
f 36 123 388
f 36 388 353
f 403 152 145
f 403 145 400
f 403 358 45
f 403 45 152
f 13 125 343
f 390 343 125
f 125 37 354
f 390 125 354
f 122 36 353
f 387 122 353
f 341 146 396
f 9 146 341
f 6 156 340
f 407 340 156
f 407 156 47
f 407 47 360
f 400 145 143
f 400 143 394
f 340 394 143
f 340 143 6
f 111 113 382
f 111 382 376
f 124 339 389
f 4 339 124
f 339 111 376
f 4 111 339
f 46 154 359
f 405 359 154
f 406 345 16
f 406 16 155
f 406 155 46
f 406 46 359
f 114 341 378
f 9 341 114
f 383 117 114
f 383 114 378
f 121 117 383
f 121 383 386
f 458 370 459
f 452 370 458
f 138 41 460
f 546 492 138
f 546 138 460
f 154 5 461
f 472 154 461
f 405 154 472
f 473 405 472
f 359 405 462
f 463 462 405
f 464 359 462
f 465 431 466
f 467 431 465
f 430 431 467
f 10 468 132
f 470 468 10
f 457 415 359
f 457 359 464
f 474 10 100
f 470 10 474
f 475 430 469
f 482 481 41
f 460 41 481
f 482 41 139
f 477 428 478
f 476 428 477
f 135 132 468
f 483 135 468
f 415 456 485
f 484 415 485
f 135 482 139
f 483 482 135
f 486 347 487
f 480 347 486
f 490 461 5
f 129 490 5
f 487 445 488
f 347 445 487
f 489 478 414
f 428 414 478
f 370 450 491
f 459 370 491
f 131 138 492
f 495 131 492
f 414 415 484
f 489 414 484
f 450 493 494
f 491 450 494
f 497 455 496
f 450 347 479
f 493 450 479
f 445 455 497
f 488 445 497
f 495 490 129
f 498 490 495
f 131 495 129
f 365 428 500
f 499 365 500
f 365 499 502
f 426 365 502
f 99 503 106
f 517 503 99
f 509 513 507
f 510 507 513
f 511 507 510
f 506 507 511
f 512 513 509
f 508 512 509
f 515 346 516
f 514 346 515
f 510 361 511
f 434 361 510
f 346 426 519
f 518 519 426
f 362 430 475
f 520 362 475
f 522 521 103
f 522 103 107
f 421 346 514
f 523 421 514
f 366 434 513
f 512 366 513
f 103 474 100
f 521 474 103
f 523 471 421
f 431 421 471
f 437 366 509
f 508 509 366
f 524 437 509
f 413 362 520
f 525 413 520
f 439 526 527
f 528 439 527
f 529 106 503
f 534 106 529
f 31 106 534
f 465 507 530
f 543 524 509
f 543 509 507
f 465 543 507
f 525 475 530
f 520 475 525
f 533 524 543
f 531 524 533
f 532 531 533
f 465 530 475
f 505 533 543
f 504 533 505
f 467 465 475
f 469 467 475
f 507 413 530
f 361 413 507
f 506 361 507
f 438 452 535
f 536 438 535
f 439 438 526
f 536 526 438
f 504 454 533
f 522 107 31
f 522 31 537
f 534 537 31
f 532 533 367
f 454 367 533
f 367 437 532
f 531 532 437
f 387 353 541
f 542 541 353
f 539 387 541
f 545 387 544
f 122 387 545
f 547 122 545
f 3 122 547
f 353 439 540
f 542 353 540
f 548 452 549
f 535 452 548
f 517 97 550
f 99 97 517
f 551 517 550
f 486 487 543
f 514 465 471
f 497 496 543
f 486 543 465
f 523 514 471
f 515 465 514
f 497 543 487
f 497 487 488
f 486 465 515
f 466 471 465
f 500 428 476
f 550 97 3
f 547 550 3
f 426 502 552
f 518 426 552
f 549 452 458
f 454 505 455
f 455 505 543
f 496 455 543
f 479 480 486
f 494 479 486
f 552 486 515
f 552 515 519
f 518 552 519
f 494 486 552
f 493 479 494
f 516 519 515
f 458 491 494
f 477 548 494
f 477 494 552
f 502 500 552
f 499 500 502
f 549 458 494
f 459 491 458
f 549 494 548
f 476 477 552
f 476 552 500
f 527 548 477
f 527 535 548
f 485 477 478
f 527 477 485
f 484 485 478
f 489 484 478
f 526 535 527
f 536 535 526
f 541 527 485
f 457 485 456
f 462 541 485
f 540 528 527
f 542 540 527
f 542 527 541
f 464 462 485
f 464 485 457
f 473 462 463
f 472 545 541
f 472 541 462
f 544 539 541
f 544 541 545
f 538 539 544
f 472 462 473
f 501 473 463
f 490 551 550
f 490 550 545
f 490 498 551
f 547 545 550
f 490 545 472
f 490 472 461
f 546 551 498
f 503 517 551
f 492 546 498
f 492 498 495
f 529 551 546
f 503 551 529
f 481 529 546
f 481 546 460
f 537 534 529
f 537 529 481
f 474 522 537
f 468 474 537
f 468 537 481
f 468 481 482
f 521 522 474
f 468 482 483
f 470 474 468
