v -9.3160159212213287 -6.2230475749438785 3.7000000000000002
v -7.7388225848639287 -7.1978066636425977 6.2519524250561203
v -7.7388225848639287 -7.1978066636425977 1.1480475749438801
v -7.7388225848639287 -5.7749999999999986 3.7000000000000002
v -8.665873567988772 -6.3479490168751562 5.2000000000000011
v -7.7388225848639287 -8.7749999999999986 6.7000000000000002
v -8.665873567988772 -6.3479490168751562 2.1999999999999997
v -7.7388225848639287 -8.7749999999999986 0.70000000000000018
v -9.2388225848639287 -7.8479490168751562 1.2729490168751578
v -9.2388225848639287 -7.8479490168751562 6.1270509831248425
v -8.5586221716019431 -5.8891849266482463 3.7000000000000002
v -9.0404882785220124 -6.1869945587514401 4.4796757390232633
v -8.2206886917839981 -6.6936585673186508 5.8061393343284893
v -8.2262021292132879 -5.9218304511145377 4.4885966681787011
v -7.7388225848639287 -6.2230475749438785 5.2771933363574011
v -7.7388225848639287 -9.5947995867380129 6.5858150733517533
v -7.7388225848639287 -7.9552004132619833 6.5858150733517533
v -9.0404882785220124 -6.1869945587514401 2.920324260976737
v -8.2206886917839981 -6.6936585673186508 1.5938606656715111
v -8.2262021292132879 -5.9218304511145377 2.9114033318212997
v -7.7388225848639287 -6.2230475749438785 2.1228066636425993
v -7.7388225848639287 -9.5947995867380129 0.81418492664824749
v -7.7388225848639287 -7.9552004132619833 0.81418492664824749
v -9.8201640175452773 -6.6688606656715095 3.2181338930799308
v -9.5021783417413488 -6.7104271192932377 2.4240237874719401
v -8.5184983238871919 -7.473334306341914 1.1119945587514417
v -9.0147987973919896 -7.0116442431225794 1.6354271192932397
v -8.5274192530426287 -8.2876204556506394 0.84683045111453925
v -9.8033954655706896 -7.4990237874719385 1.9366442431225808
v -9.8201640175452773 -6.6688606656715095 4.1818661069200695
v -9.5021783417413488 -6.7104271192932377 4.9759762125280602
v -8.5184983238871919 -7.473334306341914 6.2880054412485586
v -9.0147987973919896 -7.0116442431225794 5.7645728807067602
v -8.5274192530426287 -8.2876204556506394 6.5531695488854611
v -9.8033954655706896 -7.4990237874719385 5.4633557568774194
v -8.9488886307160218 -6.0298697363010465 3.7000000000000002
v -8.1526793112468301 -5.8036833541294133 3.7000000000000002
v -9.192147511045933 -6.1802119924101744 4.0936011364390383
v -8.8639382872985575 -6.2432655761328277 4.8508411980551438
v -8.8135089653236651 -6.0020861981659603 4.0949661140561942
v -7.982081465193839 -6.9280739373789562 6.0515291272599141
v -8.4500815609156561 -6.4990430995102262 5.5204754478154427
v -7.9855499807020154 -5.8119349782145857 4.0992133124217744
v -8.454853375822708 -6.1019804274348948 4.8585621567627761
v -8.3991736672838062 -5.8758222077926812 4.0983774304837075
v -8.642599222143625 -6.0262674744263514 4.4922482519771965
v -7.7388225848639287 -6.6662789085366789 5.8338452048866491
v -7.7388225848639287 -5.8834162095971312 4.4992141034037019
v -8.2081259799846222 -6.2544663440185824 5.2577754691845504
v -7.9822481397237475 -6.4343868878696187 5.5607187478403413
v -7.9857933249598094 -6.0360525212031018 4.8988211551055532
v -7.7388225848639287 -9.1888567263829 6.6713166458705864
v -7.7388225848639287 -7.5649339541479055 6.4451302636989523
v -7.7388225848639287 -8.3611432736170972 6.6713166458705864
v -9.192147511045933 -6.1802119924101744 3.3063988635609616
v -8.8639382872985575 -6.2432655761328277 2.5491588019448566
v -8.8135089653236651 -6.0020861981659603 3.3050338859438062
v -7.982081465193839 -6.9280739373789562 1.3484708727400863
v -8.4500815609156561 -6.4990430995102262 1.8795245521845576
v -7.9855499807020154 -5.8119349782145857 3.3007866875782264
v -8.454853375822708 -6.1019804274348948 2.5414378432372238
v -8.3991736672838062 -5.8758222077926812 3.3016225695162928
v -8.642599222143625 -6.0262674744263514 2.9077517480228039
v -7.7388225848639287 -6.6662789085366789 1.5661547951133512
v -7.7388225848639287 -5.8834162095971312 2.900785896596298
v -8.2081259799846222 -6.2544663440185824 2.1422245308154499
v -7.9822481397237475 -6.4343868878696187 1.8392812521596591
v -7.9857933249598094 -6.0360525212031018 2.5011788448944468
v -7.7388225848639287 -9.1888567263829 0.72868335412941443
v -7.7388225848639287 -7.5649339541479055 0.9548697363010481
v -7.7388225848639287 -8.3611432736170972 0.72868335412941443
v -9.5857486474849711 -6.4234708727400847 3.4567411196700895
v -10.014779485353701 -6.954524552184556 2.9887410239482723
v -9.4525775622710544 -6.3970523122221543 3.0609314030526109
v -9.100794084082569 -6.501193739856669 2.2947104473991371
v -9.8601429284235707 -6.9704971349773617 2.5847558966194466
v -9.2871874450171124 -6.4246449049100587 2.6615409556330238
v -9.6810582665106004 -6.6680704597698774 2.811986222266694
v -8.1380358972857021 -9.0217273958380861 0.73693497821458687
v -8.137200015347636 -9.4353510824198761 0.80082220779268276
v -8.1324237213029669 -7.3216750738179952 1.105211992410176
v -8.8896637829190723 -7.6498842975653698 1.1682655761328298
v -8.377891181811318 -7.0612450225928729 1.3220523122221559
v -8.1337886989201227 -7.7003136195402622 0.92708619816596194
v -8.8540666882444814 -6.6536796564403566 1.8954971349773628
v -9.1441121374647913 -7.4130285007813583 1.4261937398566706
v -8.6268363625972349 -6.8327643183533269 1.5930704597698795
v -9.2789489085552717 -6.8352666246068035 2.0072373647026858
v -8.7772816292309059 -7.2266351398468149 1.3496449049100607
v -8.1380358972857021 -8.528272604161911 0.73693497821458687
v -8.8973847416267056 -8.0589692090412193 1.0269804274348964
v -8.137200015347636 -8.1146489175801211 0.80082220779268276
v -8.5380366882676313 -8.7749999999999986 0.80841620959713234
v -8.5310708368411259 -7.8712233627203023 0.95126747442635295
v -10.012628845007258 -7.3697104473991351 2.3380285007813599
v -9.5433254498865665 -7.659755896619445 1.5786796564403578
v -9.6785559602571247 -7.0822373647026842 2.1598736763086563
v -9.4315852201612422 -7.2348736763086547 1.7602666246068051
v -9.2965980540484789 -8.3056966048793051 1.179466344018584
v -8.9376437399694826 -8.5280292599041179 0.96105252120310292
v -9.5857486474849711 -6.4234708727400847 3.9432588803299109
v -10.014779485353701 -6.954524552184556 4.4112589760517285
v -9.4525775622710544 -6.3970523122221543 4.3390685969473894
v -9.8475436763272484 -6.6411547951133496 3.7000000000000002
v -9.100794084082569 -6.501193739856669 5.1052895526008637
v -9.8601429284235707 -6.9704971349773617 4.8152441033805538
v -9.2871874450171124 -6.4246449049100587 4.7384590443669765
v -9.6810582665106004 -6.6680704597698774 4.5880137777333063
v -10.07943569699431 -6.9142812521596575 3.4565744451401814
v -10.07943569699431 -6.9142812521596575 3.9434255548598189
v -8.1380358972857021 -9.0217273958380861 6.6630650217854139
v -8.137200015347636 -9.4353510824198761 6.5991777922073176
v -8.1324237213029669 -7.3216750738179952 6.2947880075898244
v -8.8896637829190723 -7.6498842975653698 6.2317344238671701
v -8.377891181811318 -7.0612450225928729 6.0779476877778444
v -8.1337886989201227 -7.7003136195402622 6.4729138018340384
v -8.8540666882444814 -6.6536796564403566 5.5045028650226371
v -9.1441121374647913 -7.4130285007813583 5.9738062601433297
v -8.6268363625972349 -6.8327643183533269 5.8069295402301204
v -9.2789489085552717 -6.8352666246068035 5.3927626352973146
v -8.7772816292309059 -7.2266351398468149 6.0503550950899392
v -8.1380358972857021 -8.528272604161911 6.6630650217854139
v -8.8973847416267056 -8.0589692090412193 6.373019572565104
v -8.137200015347636 -8.1146489175801211 6.5991777922073176
v -8.5380366882676313 -8.7749999999999986 6.5915837904028685
v -8.5310708368411259 -7.8712233627203023 6.4487325255736474
v -10.012628845007258 -7.3697104473991351 5.0619714992186404
v -9.5433254498865665 -7.659755896619445 5.821320343559643
v -9.6785559602571247 -7.0822373647026842 5.240126323691344
v -9.4315852201612422 -7.2348736763086547 5.6397333753931953
v -9.2965980540484789 -8.3056966048793051 6.2205336559814164
v -8.9376437399694826 -8.5280292599041179 6.4389474787968979
v -1.0024141919305753 -6.2230475749438785 3.7000000000000002
v -1.0024141919305753 -11.326952425056119 3.7000000000000002
v -2.5796075282879762 -10.352193336357399 6.2519524250561203
v -2.5796075282879762 -7.1978066636425977 6.2519524250561203
v -2.5796075282879762 -10.352193336357399 1.1480475749438801
v -2.5796075282879762 -7.1978066636425977 1.1480475749438801
v -0.02765510323185616 -8.7749999999999986 2.1228066636425993
v -0.02765510323185616 -8.7749999999999986 5.2771933363574011
v -2.5796075282879762 -5.7749999999999986 3.7000000000000002
v -2.5796075282879762 -11.774999999999999 3.7000000000000002
v -1.6525565451631339 -11.202050983124842 5.2000000000000011
v -1.6525565451631339 -6.3479490168751562 5.2000000000000011
v -2.5796075282879762 -8.7749999999999986 6.7000000000000002
v -1.6525565451631339 -11.202050983124842 2.1999999999999997
v -1.6525565451631339 -6.3479490168751562 2.1999999999999997
v -2.5796075282879762 -8.7749999999999986 0.70000000000000018
v -0.15255654516313388 -7.2749999999999986 2.7729490168751578
v -0.15255654516313388 -10.274999999999999 2.7729490168751578
v -1.0796075282879758 -9.7020509831248418 1.2729490168751578
v -1.0796075282879758 -7.8479490168751562 1.2729490168751578
v -0.15255654516313388 -7.2749999999999986 4.6270509831248425
v -0.15255654516313388 -10.274999999999999 4.6270509831248425
v -1.0796075282879758 -9.7020509831248418 6.1270509831248425
v -1.0796075282879758 -7.8479490168751562 6.1270509831248425
v 0.42039247171202376 -8.7749999999999986 3.7000000000000002
v -1.759807941549961 -5.8891849266482463 3.7000000000000002
v -1.759807941549961 -11.660815073351751 3.7000000000000002
v -1.2779418346298921 -11.363005441248557 4.4796757390232633
v -2.0977414213679069 -10.856341432681347 5.8061393343284893
v -2.0922279839386166 -11.62816954888546 4.4885966681787011
v -2.5796075282879762 -11.326952425056119 5.2771933363574011
v -1.2779418346298921 -6.1869945587514401 4.4796757390232633
v -2.0977414213679069 -6.6936585673186508 5.8061393343284893
v -2.0922279839386166 -5.9218304511145377 4.4885966681787011
v -2.5796075282879762 -6.2230475749438785 5.2771933363574011
v -2.5796075282879762 -9.5947995867380129 6.5858150733517533
v -2.5796075282879762 -7.9552004132619833 6.5858150733517533
v -1.2779418346298921 -11.363005441248557 2.920324260976737
v -2.0977414213679069 -10.856341432681347 1.5938606656715111
v -2.0922279839386166 -11.62816954888546 2.9114033318212997
v -2.5796075282879762 -11.326952425056119 2.1228066636425993
v -1.2779418346298921 -6.1869945587514401 2.920324260976737
v -2.0977414213679069 -6.6936585673186508 1.5938606656715111
v -2.0922279839386166 -5.9218304511145377 2.9114033318212997
v -2.5796075282879762 -6.2230475749438785 2.1228066636425993
v -2.5796075282879762 -9.5947995867380129 0.81418492664824749
v -2.5796075282879762 -7.9552004132619833 0.81418492664824749
v -0.49826609560662849 -6.6688606656715095 3.2181338930799308
v 0.0083979129605822322 -7.9953242609767354 2.3983343063419156
v -0.8162517714105566 -6.7104271192932377 2.4240237874719401
v -0.49826609560662849 -10.881139334328488 3.2181338930799308
v 0.0083979129605822322 -9.5546757390232617 2.3983343063419156
v -0.8162517714105566 -10.83957288070676 2.4240237874719401
v -1.7999317892647129 -10.076665693658082 1.1119945587514417
v -0.47346819395948714 -9.2568661069200679 1.6186585673186529
v -1.3036313157599162 -10.538355756877419 1.6354271192932397
v -1.7910108601092758 -9.2623795443493577 0.84683045111453925
v -0.51503464758121575 -10.05097621252806 1.9366442431225808
v -1.7999317892647129 -7.473334306341914 1.1119945587514417
v -0.47346819395948714 -8.2931338930799292 1.6186585673186529
v -1.3036313157599162 -7.0116442431225794 1.6354271192932397
v -1.7910108601092758 -8.2876204556506394 0.84683045111453925
v -0.51503464758121575 -7.4990237874719385 1.9366442431225808
v -1.0024141919305751 -8.7749999999999986 1.1480475749438805
v -0.49826609560662849 -6.6688606656715095 4.1818661069200695
v 0.0083979129605822322 -7.9953242609767354 5.0016656936580848
v -0.8162517714105566 -6.7104271192932377 4.9759762125280602
v -0.027655103231856604 -7.1978066636425977 3.7000000000000002
v -0.49826609560662849 -10.881139334328488 4.1818661069200695
v 0.0083979129605822322 -9.5546757390232617 5.0016656936580848
v -0.8162517714105566 -10.83957288070676 4.9759762125280602
v -0.027655103231856604 -10.3521933363574 3.7000000000000002
v -1.7999317892647129 -10.076665693658082 6.2880054412485586
v -0.47346819395948714 -9.2568661069200679 5.7813414326813479
v -1.3036313157599162 -10.538355756877419 5.7645728807067602
v -1.7910108601092758 -9.2623795443493577 6.5531695488854611
v -0.51503464758121575 -10.05097621252806 5.4633557568774194
v -1.7999317892647129 -7.473334306341914 6.2880054412485586
v -0.47346819395948714 -8.2931338930799292 5.7813414326813479
v -1.3036313157599162 -7.0116442431225794 5.7645728807067602
v -1.7910108601092758 -8.2876204556506394 6.5531695488854611
v -0.51503464758121575 -7.4990237874719385 5.4633557568774194
v -1.0024141919305751 -8.7749999999999986 6.2519524250561194
v 0.30620754506377645 -8.7749999999999986 2.8802004132619849
v 0.30620754506377645 -8.7749999999999986 4.5197995867380154
v 0.27356202059748469 -7.9864033318212977 3.2126204556506406
v 0.27356202059748469 -9.5635966681786986 3.2126204556506406
v 0.27356202059748469 -7.9864033318212977 4.1873795443493602
v 0.27356202059748469 -9.5635966681786986 4.1873795443493602
v -1.3695414824358831 -6.0298697363010465 3.7000000000000002
v -2.1657508019050749 -5.8036833541294133 3.7000000000000002
v -1.3695414824358831 -11.520130263698951 3.7000000000000002
v -2.1657508019050749 -11.746316645870584 3.7000000000000002
v -1.1262826021059726 -11.369788007589822 4.0936011364390383
v -1.4544918258533472 -11.306734423867169 4.8508411980551438
v -1.5049211478282394 -11.547913801834037 4.0949661140561942
v -2.3363486479580655 -10.621926062621041 6.0515291272599141
v -1.8683485522362484 -11.050956900489771 5.5204754478154427
v -2.5796075282879762 -10.883721091463318 5.8338452048866491
v -2.3328801324498896 -11.738065021785411 4.0992133124217744
v -1.8635767373291967 -11.448019572565101 4.8585621567627761
v -1.9192564458680992 -11.674177792207317 4.0983774304837075
v -2.5796075282879762 -11.666583790402866 4.4992141034037019
v -1.6758308910082802 -11.523732525573646 4.4922482519771965
v -2.1103041331672836 -11.295533655981416 5.2577754691845504
v -2.3361819734281575 -11.115613112130379 5.5607187478403413
v -2.3326367881920955 -11.513947478796895 4.8988211551055532
v -1.1262826021059726 -6.1802119924101744 4.0936011364390383
v -1.4544918258533472 -6.2432655761328277 4.8508411980551438
v -1.5049211478282394 -6.0020861981659603 4.0949661140561942
v -2.3363486479580655 -6.9280739373789562 6.0515291272599141
v -1.8683485522362484 -6.4990430995102262 5.5204754478154427
v -2.5796075282879762 -6.6662789085366789 5.8338452048866491
v -2.3328801324498896 -5.8119349782145857 4.0992133124217744
v -1.8635767373291967 -6.1019804274348948 4.8585621567627761
v -1.9192564458680992 -5.8758222077926812 4.0983774304837075
v -2.5796075282879762 -5.8834162095971312 4.4992141034037019
v -1.6758308910082802 -6.0262674744263514 4.4922482519771965
v -2.1103041331672836 -6.2544663440185824 5.2577754691845504
v -2.3361819734281575 -6.4343868878696187 5.5607187478403413
v -2.3326367881920955 -6.0360525212031018 4.8988211551055532
v -2.5796075282879762 -9.9850660458520917 6.4451302636989523
v -2.5796075282879762 -9.1888567263829 6.6713166458705864
v -2.5796075282879762 -7.5649339541479055 6.4451302636989523
v -2.5796075282879762 -8.3611432736170972 6.6713166458705864
v -1.1262826021059726 -11.369788007589822 3.3063988635609616
v -1.4544918258533472 -11.306734423867169 2.5491588019448566
v -1.5049211478282394 -11.547913801834037 3.3050338859438062
v -2.3363486479580655 -10.621926062621041 1.3484708727400863
v -1.8683485522362484 -11.050956900489771 1.8795245521845576
v -2.5796075282879762 -10.883721091463318 1.5661547951133512
v -2.3328801324498896 -11.738065021785411 3.3007866875782264
v -1.8635767373291967 -11.448019572565101 2.5414378432372238
v -1.9192564458680992 -11.674177792207317 3.3016225695162928
v -2.5796075282879762 -11.666583790402866 2.900785896596298
v -1.6758308910082802 -11.523732525573646 2.9077517480228039
v -2.1103041331672836 -11.295533655981416 2.1422245308154499
v -2.3361819734281575 -11.115613112130379 1.8392812521596591
v -2.3326367881920955 -11.513947478796895 2.5011788448944468
v -1.1262826021059726 -6.1802119924101744 3.3063988635609616
v -1.4544918258533472 -6.2432655761328277 2.5491588019448566
v -1.5049211478282394 -6.0020861981659603 3.3050338859438062
v -2.3363486479580655 -6.9280739373789562 1.3484708727400863
v -1.8683485522362484 -6.4990430995102262 1.8795245521845576
v -2.5796075282879762 -6.6662789085366789 1.5661547951133512
v -2.3328801324498896 -5.8119349782145857 3.3007866875782264
v -1.8635767373291967 -6.1019804274348948 2.5414378432372238
v -1.9192564458680992 -5.8758222077926812 3.3016225695162928
v -2.5796075282879762 -5.8834162095971312 2.900785896596298
v -1.6758308910082802 -6.0262674744263514 2.9077517480228039
v -2.1103041331672836 -6.2544663440185824 2.1422245308154499
v -2.3361819734281575 -6.4343868878696187 1.8392812521596591
v -2.3326367881920955 -6.0360525212031018 2.5011788448944468
v -2.5796075282879762 -9.9850660458520917 0.9548697363010481
v -2.5796075282879762 -9.1888567263829 0.72868335412941443
v -2.5796075282879762 -7.5649339541479055 0.9548697363010481
v -2.5796075282879762 -8.3611432736170972 0.72868335412941443
v -0.73268146566693448 -6.4234708727400847 3.4567411196700895
v -0.30365062779820429 -6.954524552184556 2.9887410239482723
v -0.86585255088085034 -6.3970523122221543 3.0609314030526109
v 0.01518047930184796 -8.3813988635609604 2.2466750738179968
v -0.047873104420805834 -7.624158801944855 2.5748842975653714
v -1.2176360290693358 -6.501193739856669 2.2947104473991371
v -0.45828718472833385 -6.9704971349773617 2.5847558966194466
v -1.0312426681347933 -6.4246449049100587 2.6615409556330238
v -0.63737184664130409 -6.6680704597698774 2.811986222266694
v -0.73268146566693448 -11.126529127259912 3.4567411196700895
v -0.30365062779820429 -10.595475447815442 2.9887410239482723
v -0.86585255088085034 -11.152947687777843 3.0609314030526109
v 0.01518047930184796 -9.1686011364390367 2.2466750738179968
v -0.047873104420805834 -9.9258411980551422 2.5748842975653714
v -1.2176360290693358 -11.048806260143328 2.2947104473991371
v -0.45828718472833385 -10.579502865022636 2.5847558966194466
v -1.0312426681347933 -11.125355095089938 2.6615409556330238
v -0.63737184664130409 -10.88192954023012 2.811986222266694
v -2.1860063918489376 -10.228324926182003 1.105211992410176
v -1.4287663302328326 -9.9001157024346274 1.1682655761328298
v -1.940538931340587 -10.488754977407124 1.3220523122221559
v -2.1846414142317823 -9.849686380459735 0.92708619816596194
v -0.22807840102806232 -9.0182588803299097 1.8530739373789584
v -0.75913208047253367 -9.486258976051726 1.4240430995102282
v -0.20165984051013197 -9.4140685969473878 1.9862450225928743
v -1.4643634249074229 -10.896320343559641 1.8954971349773628
v -1.1743179756871129 -10.136971499218639 1.4261937398566706
v -1.6915937505546701 -10.71723568164667 1.5930704597698795
v -1.0394812045966324 -10.714733375393195 2.0072373647026858
v -1.5411484839209999 -10.323364860153182 1.3496449049100607
v -2.180394215866202 -9.0217273958380861 0.73693497821458687
v -1.4210453715251998 -9.4910307909587779 1.0269804274348964
v -2.1812300978042689 -9.4353510824198761 0.80082220779268276
v -1.7873592763107795 -9.6787766372796948 0.95126747442635295
v -0.3058012681446467 -10.180289552600861 2.3380285007813599
v -0.77510466326533889 -9.890244103380553 1.5786796564403578
v -0.22925243319803679 -9.8134590443669758 2.151635139846817
v -0.63987415289478111 -10.467762635297312 2.1598736763086563
v -0.47267798805785555 -9.6630137777333047 1.7577643183533282
v -0.88684489299066183 -10.315126323691342 1.7602666246068051
v -2.1860063918489376 -7.3216750738179952 1.105211992410176
v -1.4287663302328326 -7.6498842975653698 1.1682655761328298
v -1.940538931340587 -7.0612450225928729 1.3220523122221559
v -2.1846414142317823 -7.7003136195402622 0.92708619816596194
v -0.22807840102806232 -8.5317411196700874 1.8530739373789584
v -0.75913208047253367 -8.0637410239482712 1.4240430995102282
v -0.20165984051013197 -8.1359314030526093 1.9862450225928743
v -0.44576232340132727 -8.7749999999999986 1.5912789085366805
v -1.4643634249074229 -6.6536796564403566 1.8954971349773628
v -1.1743179756871129 -7.4130285007813583 1.4261937398566706
v -1.6915937505546701 -6.8327643183533269 1.5930704597698795
v -1.0394812045966324 -6.8352666246068035 2.0072373647026858
v -1.5411484839209999 -7.2266351398468149 1.3496449049100607
v -2.180394215866202 -8.528272604161911 0.73693497821458687
v -1.4210453715251998 -8.0589692090412193 1.0269804274348964
v -2.1812300978042689 -8.1146489175801211 0.80082220779268276
v -1.7803934248842739 -8.7749999999999986 0.80841620959713234
v -1.7873592763107795 -7.8712233627203023 0.95126747442635295
v -0.3058012681446467 -7.3697104473991351 2.3380285007813599
v -0.77510466326533889 -7.659755896619445 1.5786796564403578
v -0.22925243319803679 -7.7365409556330222 2.151635139846817
v -0.63987415289478111 -7.0822373647026842 2.1598736763086563
v -0.47267798805785555 -7.8869862222666924 1.7577643183533282
v -0.88684489299066183 -7.2348736763086547 1.7602666246068051
v -1.0218320591034256 -9.2443033951206921 1.179466344018584
v -1.0218320591034256 -8.3056966048793051 1.179466344018584
v -0.71888878044763516 -9.0184255548598173 1.3593868878696203
v -1.3807863731824228 -9.0219707400958793 0.96105252120310292
v -0.71888878044763516 -8.5315744451401798 1.3593868878696203
v -1.3807863731824228 -8.5280292599041179 0.96105252120310292
v -0.73268146566693448 -6.4234708727400847 3.9432588803299109
v -0.30365062779820429 -6.954524552184556 4.4112589760517285
v -0.86585255088085034 -6.3970523122221543 4.3390685969473894
v -0.47088643682465658 -6.6411547951133496 3.7000000000000002
v 0.01518047930184796 -8.3813988635609604 5.1533249261820036
v -0.047873104420805834 -7.624158801944855 4.825115702434629
v -1.2176360290693358 -6.501193739856669 5.1052895526008637
v -0.45828718472833385 -6.9704971349773617 4.8152441033805538
v -1.0312426681347933 -6.4246449049100587 4.7384590443669765
v -0.63737184664130409 -6.6680704597698774 4.5880137777333063
v -0.059073872306560027 -7.2172245308154483 3.2306966048793075
v -0.059073872306560027 -7.2172245308154483 4.1693033951206928
v -0.23899441615759631 -6.9142812521596575 3.4565744451401814
v -0.23899441615759631 -6.9142812521596575 3.9434255548598189
v -0.73268146566693448 -11.126529127259912 3.9432588803299109
v -0.30365062779820429 -10.595475447815442 4.4112589760517285
v -0.86585255088085034 -11.152947687777843 4.3390685969473894
v -0.47088643682465658 -10.908845204886648 3.7000000000000002
v 0.01518047930184796 -9.1686011364390367 5.1533249261820036
v -0.047873104420805834 -9.9258411980551422 4.825115702434629
v -1.2176360290693358 -11.048806260143328 5.1052895526008637
v -0.45828718472833385 -10.579502865022636 4.8152441033805538
v -1.0312426681347933 -11.125355095089938 4.7384590443669765
v -0.63737184664130409 -10.88192954023012 4.5880137777333063
v -0.059073872306560027 -10.332775469184549 3.2306966048793075
v -0.059073872306560027 -10.332775469184549 4.1693033951206928
v -0.23899441615759631 -10.63571874784034 3.4565744451401814
v -0.23899441615759631 -10.63571874784034 3.9434255548598189
v -2.1860063918489376 -10.228324926182003 6.2947880075898244
v -1.4287663302328326 -9.9001157024346274 6.2317344238671701
v -1.940538931340587 -10.488754977407124 6.0779476877778444
v -2.1846414142317823 -9.849686380459735 6.4729138018340384
v -0.22807840102806232 -9.0182588803299097 5.5469260626210417
v -0.75913208047253367 -9.486258976051726 5.9759569004897717
v -0.20165984051013197 -9.4140685969473878 5.4137549774071259
v -1.4643634249074229 -10.896320343559641 5.5045028650226371
v -1.1743179756871129 -10.136971499218639 5.9738062601433297
v -1.6915937505546701 -10.71723568164667 5.8069295402301204
v -1.0394812045966324 -10.714733375393195 5.3927626352973146
v -1.5411484839209999 -10.323364860153182 6.0503550950899392
v -2.180394215866202 -9.0217273958380861 6.6630650217854139
v -1.4210453715251998 -9.4910307909587779 6.373019572565104
v -2.1812300978042689 -9.4353510824198761 6.5991777922073176
v -1.7873592763107795 -9.6787766372796948 6.4487325255736474
v -0.3058012681446467 -10.180289552600861 5.0619714992186404
v -0.77510466326533889 -9.890244103380553 5.821320343559643
v -0.22925243319803679 -9.8134590443669758 5.2483648601531829
v -0.63987415289478111 -10.467762635297312 5.240126323691344
v -0.47267798805785555 -9.6630137777333047 5.6422356816466719
v -0.88684489299066183 -10.315126323691342 5.6397333753931953
v -2.1860063918489376 -7.3216750738179952 6.2947880075898244
v -1.4287663302328326 -7.6498842975653698 6.2317344238671701
v -1.940538931340587 -7.0612450225928729 6.0779476877778444
v -2.1846414142317823 -7.7003136195402622 6.4729138018340384
v -0.22807840102806232 -8.5317411196700874 5.5469260626210417
v -0.75913208047253367 -8.0637410239482712 5.9759569004897717
v -0.20165984051013197 -8.1359314030526093 5.4137549774071259
v -0.44576232340132727 -8.7749999999999986 5.8087210914633198
v -1.4643634249074229 -6.6536796564403566 5.5045028650226371
v -1.1743179756871129 -7.4130285007813583 5.9738062601433297
v -1.6915937505546701 -6.8327643183533269 5.8069295402301204
v -1.0394812045966324 -6.8352666246068035 5.3927626352973146
v -1.5411484839209999 -7.2266351398468149 6.0503550950899392
v -2.180394215866202 -8.528272604161911 6.6630650217854139
v -1.4210453715251998 -8.0589692090412193 6.373019572565104
v -2.1812300978042689 -8.1146489175801211 6.5991777922073176
v -1.7803934248842739 -8.7749999999999986 6.5915837904028685
v -1.7873592763107795 -7.8712233627203023 6.4487325255736474
v -0.3058012681446467 -7.3697104473991351 5.0619714992186404
v -0.77510466326533889 -7.659755896619445 5.821320343559643
v -0.22925243319803679 -7.7365409556330222 5.2483648601531829
v -0.63987415289478111 -7.0822373647026842 5.240126323691344
v -0.47267798805785555 -7.8869862222666924 5.6422356816466719
v -0.88684489299066183 -7.2348736763086547 5.6397333753931953
v -1.0218320591034256 -9.2443033951206921 6.2205336559814164
v -1.0218320591034256 -8.3056966048793051 6.2205336559814164
v -0.71888878044763516 -9.0184255548598173 6.0406131121303801
v -1.3807863731824228 -9.0219707400958793 6.4389474787968979
v -0.71888878044763516 -8.5315744451401798 6.0406131121303801
v -1.3807863731824228 -8.5280292599041179 6.4389474787968979
v 0.16552273541097584 -8.7749999999999986 2.4899339541479071
v 0.39170911758260951 -8.7749999999999986 3.2861432736170988
v 0.193306273546062 -8.3800338859438046 2.6253136195402633
v 0.193306273546062 -9.1699661140561926 2.6253136195402633
v 0.16552273541097584 -8.7749999999999986 4.9100660458520933
v 0.39170911758260951 -8.7749999999999986 4.1138567263829016
v 0.193306273546062 -8.3800338859438046 4.7746863804597375
v 0.193306273546062 -9.1699661140561926 4.7746863804597375
v 0.093412044277127571 -7.6164378432372217 2.9839692090412209
v 0.38345749349743707 -8.3757866875782252 3.4532726041619131
v 0.16912499728567099 -7.9827517480228014 2.7962233627203039
v 0.15933995050892102 -7.5761788448944447 3.4530292599041195
v 0.31957026391934118 -8.3766225695162913 3.0396489175801227
v 0.093412044277127571 -9.9335621567627754 2.9839692090412209
v 0.38345749349743707 -9.174213312421772 3.4532726041619131
v 0.16912499728567099 -9.5672482519771957 2.7962233627203039
v 0.15933995050892102 -9.9738211551055524 3.4530292599041195
v 0.31957026391934118 -9.1733774304837059 3.0396489175801227
v 0.093412044277127571 -7.6164378432372217 4.4160307909587795
v 0.38345749349743707 -8.3757866875782252 3.9467273958380873
v 0.16912499728567099 -7.9827517480228014 4.6037766372796964
v 0.15933995050892102 -7.5761788448944447 3.9469707400958809
v 0.31957026391934118 -8.3766225695162913 4.3603510824198777
v 0.3119762621148916 -7.975785896596296 3.7000000000000002
v 0.093412044277127571 -9.9335621567627754 4.4160307909587795
v 0.38345749349743707 -9.174213312421772 3.9467273958380873
v 0.16912499728567099 -9.5672482519771957 4.6037766372796964
v 0.15933995050892102 -9.9738211551055524 3.9469707400958809
v 0.31957026391934118 -9.1733774304837059 4.3603510824198777
v 0.3119762621148916 -9.5742141034037012 3.7000000000000002
v -8.5302456821433932 -9.1326359953590881 0.83660433456118388
v -8.761089621835902 -8.9128542942355633 0.89361484892983944
v -8.4464998836576157 -9.212368623721213 0.82399261730922602
v -10.232835396255076 -7.1725697546518736 4.1360083029109678
v -10.251844516116726 -7.1455788782768916 3.7448410516900417
v -8.9376437399694826 -8.7350524527414866 0.96105252120310303
v -8.8388347648318479 -8.8388347648318426 0.92331085109406918
v -7.0030945012407928 -10.352193336357399 6.2519524250561203
v -6.9446279127450268 -10.393370153781817 6.2213562358014016
v -5.3444386678785305 -11.299866164043038 5.3135313143367577
v -5.2833330421491036 -11.326952425056119 5.277193336357402
v -9.8273896811920878 -7.7187968861586835 1.8353122794230836
v -9.7514366738239247 -7.8161216707486281 1.7019145799256861
v -6.5836986912609072 -10.621926062621039 6.0515291272599141
v -9.0592038581746994 -8.6073738677977474 1.0211286630624583
v -8.1367980532232878 -9.4841730255411676 6.5842998578738579
v -8.1699393785922307 -9.4555851216750639 6.5866724682179116
v -9.9219846005710313 -7.5975846989014624 2.025857578285875
v -9.3220866631923123 -8.3247011921743539 1.1946042419099439
v -9.5003931693711721 -8.1179943988273919 1.3692019821805583
v -5.7104866134769159 -11.115613112130379 5.5607187478403413
v -6.1401140131467837 -10.883721091463318 5.8338452048866491
v -6.4262843024152723 -10.721607625003401 5.9686433918674346
v -9.6626306670342146 -7.9299160520455665 1.5737571297666662
v -9.5587674906832003 -8.050322337774773 1.4291794753023663
v -9.2985150285703337 -8.3520272674313532 1.176364614086657
v -9.2618890669369893 -8.3944869355877305 1.1523025942298353
v -9.5516403215994163 -8.0585847074354344 1.4204327298591446
v -10.251844516116726 -7.1455788782768916 3.6551589483099591
v -6.5836986912609072 -10.621926062621039 1.348470872740086
v -8.3944869355877341 -9.2618890669369858 0.82195776308084645
v -8.2527992879073704 -9.3841096723535724 0.81445177534341173
v -8.8388347648318479 -8.8388347648318426 6.4766891489059315
v -8.9376437399694826 -8.7350524527414866 6.4389474787968988
v -8.761089621835902 -8.9128542942355633 6.5063851510701616
v -10.163797342711135 -7.270596258873856 4.6240857259024297
v -10.162830465837407 -7.2719691185516604 4.6289241708757878
v -9.0592038581746994 -8.6073738677977474 6.3788713369375429
v -10.226352323112685 -7.1817750112334391 4.2019536037308827
v -6.4262843024152723 -10.721607625003401 1.431356608132565
v -6.1401140131467837 -10.883721091463318 1.566154795113351
v -8.5302456821433932 -9.1326359953590881 6.5633956654388159
v -8.2527992879073704 -9.3841096723535724 6.5855482246565886
v -7.5167532968762298 -9.9850660458520917 0.95486973630104821
v -7.7388225848639287 -9.8117614725325932 0.8923962125328001
v -8.4464998836576157 -9.212368623721213 6.5760073826907748
v -10.226352323112685 -7.1817750112334391 3.1980463962691177
v -10.163797342711135 -7.270596258873856 2.7759142740975706
v -8.3944869355877341 -9.2618890669369858 6.5780422369191536
v -10.162830465837407 -7.2719691185516604 2.7710758291242126
v -5.3444386678785305 -11.299866164043038 2.0864686856632426
v -5.2833330421491036 -11.326952425056119 2.1228066636425993
v -7.9299160520455745 -9.6626306670342075 6.5481410414625172
v -7.890996870587994 -9.6930034943511654 6.5423159737097452
v -10.040094143508062 -7.4462413061554162 2.3196898827710855
v -10.031024255268342 -7.4578632938787814 2.2932364102586926
v -10.060637741934434 -7.4170716376247752 2.3821151385887087
v -7.7388225848639287 -9.8117614725325932 6.5076037874672004
v -5.7104866134769159 -11.115613112130379 1.8392812521596591
v -9.9219846005710313 -7.5975846989014624 5.374142421714124
v -10.031024255268342 -7.4578632938787814 5.1067635897413073
v -10.156705156048581 -7.2806663902018967 2.7469283463084517
v -10.040094143508062 -7.4462413061554162 5.0803101172289145
v -10.060637741934434 -7.4170716376247752 5.0178848614112921
v -5.8924592103249722 -11.024015804354438 1.7313963491955235
v -10.156705156048581 -7.2806663902018967 4.6530716536915495
v -7.890996870587994 -9.6930034943511654 0.8576840262902552
v -9.5587674906832003 -8.050322337774773 5.9708205246976336
v -9.5516403215994163 -8.0585847074354344 5.9795672701408558
v -4.2920989158255836 -11.738065021785413 3.3007866875782264
v -10.232835396255076 -7.1725697546518736 3.263991697089033
v -8.1367980532232878 -9.4841730255411676 0.81570014212614239
v -7.9299160520455745 -9.6626306670342075 0.85185895853748295
v -9.5003931693711721 -8.1179943988273919 6.0307980178194418
v -4.4774070400327117 -11.666583790402866 2.900785896596298
v -9.3220866631923123 -8.3247011921743539 6.2053957580900558
v -8.1699393785922307 -9.4555851216750639 0.81332753178208905
v -4.4774070400327117 -11.666583790402866 4.4992141034037019
v -9.2985150285703337 -8.3520272674313532 6.2236353859133438
v -9.2618890669369893 -8.3944869355877305 6.2476974057701655
v -4.7835429045636291 -11.548494156391081 4.8083767789655898
v -4.8614789604203628 -11.513947478796894 4.8988211551055532
v -9.7514366738239247 -7.8161216707486281 5.6980854200743147
v -9.6626306670342146 -7.9299160520455665 5.8262428702333349
v -9.8273896811920878 -7.7187968861586835 5.5646877205769165
v -4.2920989158255836 -11.738065021785413 4.0992133124217744
v -4.8614789604203628 -11.513947478796894 2.5011788448944463
v -4.7835429045636291 -11.548494156391081 2.5916232210344097
v -6.9446279127450268 -10.393370153781817 1.1786437641985994
v -7.0030945012407928 -10.352193336357399 1.1480475749438801
v -7.4462413061554154 -10.040094143508064 6.4161751594483913
v -7.4462413061554154 -10.040094143508064 0.98382484055160979
v -7.5167532968762298 -9.9850660458520917 6.4451302636989531
v -4.2111231674027501 -11.76930081478776 3.7615998903116803
v -4.1938714875358949 -11.774999999999999 3.7000000000000006
v -4.2111231674027501 -11.76930081478776 3.6384001096883205
v -5.8924592103249722 -11.024015804354438 5.6686036508044761
f 407 409 398
f 206 394 392
f 206 408 394
f 435 439 215
f 445 468 465
f 445 465 157
f 392 417 206
f 417 436 206
f 157 459 445
f 459 462 445
f 79 93 90
f 79 90 8
f 69 79 8
f 310 317 171
f 275 332 330
f 175 340 332
f 175 332 275
f 138 330 288
f 275 330 138
f 321 323 189
f 189 323 322
f 85 88 75
f 7 85 75
f 171 317 262
f 262 317 315
f 2 113 53
f 41 113 2
f 397 399 390
f 35 130 129
f 41 47 13
f 42 119 13
f 165 245 243
f 243 412 165
f 258 260 170
f 224 260 258
f 203 407 398
f 382 383 203
f 447 468 217
f 217 468 445
f 445 462 217
f 465 468 221
f 202 447 378
f 378 394 202
f 392 394 378
f 209 407 404
f 209 409 407
f 404 407 381
f 381 407 203
f 203 383 381
f 396 405 155
f 396 409 405
f 209 408 405
f 405 409 209
f 396 399 207
f 207 409 396
f 207 399 397
f 398 409 207
f 207 397 395
f 395 398 207
f 156 435 415
f 434 436 215
f 155 434 401
f 414 417 392
f 330 333 288
f 288 333 179
f 337 358 192
f 356 358 337
f 449 459 157
f 441 449 157
f 91 100 99
f 69 80 79
f 22 80 69
f 171 263 261
f 261 310 171
f 315 317 188
f 186 319 310
f 188 319 316
f 310 319 317
f 317 319 188
f 186 323 309
f 309 323 321
f 309 319 186
f 316 319 309
f 187 337 312
f 187 356 337
f 325 328 190
f 330 332 191
f 191 333 330
f 191 347 333
f 66 68 21
f 338 340 276
f 276 340 175
f 175 284 276
f 275 277 175
f 277 284 175
f 287 322 178
f 65 68 20
f 7 75 56
f 59 85 7
f 7 66 59
f 19 87 59
f 59 87 85
f 340 342 332
f 332 342 191
f 193 340 338
f 339 342 193
f 193 342 340
f 339 353 349
f 193 353 339
f 269 271 173
f 265 271 269
f 34 132 125
f 123 132 34
f 390 399 205
f 129 130 120
f 14 51 48
f 241 368 164
f 361 367 153
f 367 428 153
f 153 458 371
f 153 371 361
f 44 51 14
f 15 51 49
f 49 51 44
f 49 50 15
f 47 50 13
f 42 50 49
f 13 50 42
f 75 88 25
f 76 78 25
f 73 78 76
f 380 398 395
f 380 382 203
f 203 398 380
f 229 231 161
f 161 397 390
f 161 390 229
f 267 271 172
f 172 271 265
f 260 268 170
f 265 268 172
f 376 383 382
f 201 383 376
f 444 447 217
f 378 447 444
f 221 466 464
f 202 466 447
f 466 468 447
f 221 468 466
f 379 466 202
f 464 466 379
f 404 406 209
f 394 406 202
f 394 408 406
f 406 408 209
f 202 406 379
f 379 406 404
f 385 464 154
f 154 464 379
f 379 404 154
f 154 404 381
f 393 408 206
f 405 408 393
f 155 405 393
f 393 434 155
f 206 436 393
f 393 436 434
f 367 431 428
f 215 439 437
f 215 437 434
f 434 437 401
f 401 437 208
f 211 417 414
f 211 432 415
f 339 349 152
f 196 358 356
f 333 345 179
f 333 347 345
f 216 452 441
f 441 452 449
f 8 90 71
f 90 92 71
f 71 92 23
f 23 84 70
f 23 92 84
f 92 94 84
f 93 100 28
f 28 94 92
f 28 100 91
f 91 94 28
f 90 93 28
f 28 92 90
f 88 97 25
f 25 97 76
f 377 387 201
f 302 312 139
f 139 440 302
f 170 268 259
f 259 268 265
f 315 318 304
f 188 318 315
f 313 356 187
f 187 328 313
f 313 328 325
f 21 67 66
f 19 67 64
f 59 67 19
f 66 67 59
f 276 284 283
f 177 285 283
f 283 284 177
f 176 285 281
f 176 281 278
f 19 64 58
f 148 320 287
f 148 343 320
f 343 346 320
f 320 322 287
f 189 322 320
f 320 346 189
f 189 357 321
f 346 357 189
f 346 359 357
f 357 359 196
f 60 65 20
f 18 63 56
f 56 63 61
f 20 68 61
f 61 63 20
f 61 68 66
f 61 66 7
f 56 61 7
f 82 94 91
f 27 88 85
f 85 87 27
f 280 282 176
f 274 282 280
f 278 280 176
f 348 351 296
f 296 298 291
f 370 448 149
f 291 370 149
f 149 348 296
f 149 296 291
f 291 298 180
f 295 297 182
f 297 298 182
f 182 298 296
f 296 351 182
f 174 282 274
f 174 274 272
f 290 292 272
f 292 298 297
f 180 292 290
f 180 298 292
f 272 292 174
f 292 297 174
f 144 251 244
f 244 418 144
f 241 247 144
f 247 251 144
f 165 252 245
f 167 252 251
f 244 252 165
f 251 252 244
f 269 270 262
f 262 270 171
f 171 270 263
f 173 270 269
f 35 129 127
f 34 125 122
f 122 125 111
f 54 122 6
f 6 122 111
f 54 124 122
f 122 124 34
f 10 123 114
f 128 130 35
f 131 132 123
f 10 131 123
f 41 115 113
f 119 121 115
f 13 119 115
f 13 115 41
f 6 111 52
f 111 112 52
f 52 112 16
f 389 399 396
f 205 399 389
f 389 396 155
f 155 401 389
f 208 403 401
f 401 403 389
f 389 403 205
f 135 388 254
f 388 390 205
f 229 388 135
f 229 390 388
f 117 119 42
f 39 107 105
f 105 120 117
f 33 121 119
f 120 130 33
f 33 119 117
f 117 120 33
f 127 129 106
f 31 129 120
f 107 108 31
f 105 107 31
f 31 120 105
f 106 129 31
f 31 108 106
f 14 48 43
f 103 108 107
f 30 108 103
f 12 40 38
f 12 107 39
f 103 107 12
f 38 103 12
f 361 369 367
f 197 369 361
f 370 451 448
f 164 368 362
f 368 369 362
f 360 362 197
f 362 369 197
f 240 362 360
f 164 362 240
f 212 422 419
f 419 433 212
f 412 420 165
f 418 420 212
f 165 420 244
f 244 420 418
f 412 422 420
f 420 422 212
f 364 416 414
f 430 432 416
f 416 432 211
f 414 416 211
f 365 460 458
f 428 430 365
f 365 458 153
f 153 428 365
f 437 439 426
f 208 426 400
f 208 437 426
f 170 301 258
f 386 387 377
f 264 267 172
f 380 395 143
f 376 382 160
f 374 377 201
f 201 376 374
f 217 462 446
f 217 446 444
f 446 462 460
f 444 446 364
f 140 414 392
f 140 392 378
f 364 414 140
f 378 444 140
f 140 444 364
f 375 385 154
f 375 387 385
f 201 387 375
f 154 381 375
f 375 383 201
f 381 383 375
f 429 433 419
f 415 432 429
f 415 429 156
f 156 429 419
f 214 430 428
f 428 431 214
f 214 432 430
f 431 433 214
f 429 432 214
f 214 433 429
f 421 433 431
f 212 433 421
f 212 421 418
f 211 438 417
f 215 438 435
f 435 438 415
f 415 438 211
f 436 438 215
f 417 438 436
f 355 358 196
f 196 359 355
f 355 359 344
f 152 355 344
f 194 359 346
f 345 347 194
f 194 347 344
f 344 359 194
f 194 346 343
f 343 345 194
f 336 352 350
f 192 352 336
f 195 353 351
f 350 352 195
f 195 352 349
f 349 353 195
f 348 350 195
f 195 351 348
f 448 450 294
f 294 350 348
f 294 348 149
f 149 448 294
f 289 343 148
f 289 345 343
f 179 345 289
f 70 81 3
f 70 84 81
f 3 81 58
f 178 311 286
f 178 322 311
f 322 323 311
f 311 323 186
f 385 467 464
f 464 467 221
f 157 465 454
f 157 454 441
f 262 315 146
f 146 315 304
f 146 304 259
f 146 269 262
f 265 269 146
f 259 265 146
f 304 318 185
f 318 327 185
f 305 307 185
f 185 327 305
f 151 325 316
f 151 316 309
f 313 325 151
f 309 321 151
f 283 285 279
f 176 282 279
f 279 285 176
f 196 356 354
f 354 357 196
f 354 356 313
f 321 357 354
f 321 354 151
f 151 354 313
f 57 63 18
f 75 77 56
f 56 77 18
f 25 77 75
f 25 78 77
f 27 98 88
f 86 98 27
f 96 98 86
f 88 98 97
f 97 98 29
f 29 98 96
f 9 86 82
f 9 96 86
f 91 99 9
f 82 91 9
f 291 372 370
f 180 372 291
f 182 351 341
f 182 341 295
f 295 341 338
f 351 353 341
f 338 341 193
f 341 353 193
f 247 250 166
f 164 250 241
f 241 250 247
f 247 253 251
f 251 253 167
f 166 253 247
f 249 253 166
f 17 124 54
f 113 116 53
f 53 116 17
f 116 124 17
f 118 130 128
f 114 121 118
f 114 118 10
f 118 128 10
f 33 130 118
f 118 121 33
f 254 391 168
f 388 391 254
f 205 403 391
f 205 391 388
f 5 117 42
f 105 117 5
f 39 105 5
f 5 44 39
f 5 49 44
f 42 49 5
f 102 108 30
f 106 108 102
f 30 110 102
f 43 45 14
f 4 60 37
f 37 43 4
f 37 45 43
f 44 46 39
f 39 46 12
f 12 46 40
f 14 46 44
f 40 46 45
f 45 46 14
f 109 110 104
f 104 110 30
f 77 78 74
f 18 77 74
f 199 431 367
f 367 369 199
f 199 369 368
f 421 431 199
f 220 462 459
f 460 462 220
f 458 460 220
f 458 461 371
f 220 461 458
f 218 450 448
f 448 451 218
f 218 452 450
f 449 452 218
f 133 360 290
f 133 290 272
f 240 360 133
f 198 460 365
f 364 446 198
f 446 460 198
f 365 430 198
f 198 416 364
f 198 430 416
f 423 425 257
f 400 426 423
f 255 400 145
f 145 423 257
f 400 423 145
f 419 422 411
f 156 419 411
f 256 410 136
f 136 410 243
f 410 412 243
f 426 439 213
f 213 427 425
f 213 425 423
f 423 426 213
f 170 306 301
f 259 306 170
f 304 306 259
f 185 306 304
f 306 307 301
f 185 307 306
f 301 307 183
f 183 386 377
f 159 260 224
f 172 266 264
f 266 268 260
f 172 268 266
f 159 266 260
f 231 238 161
f 226 376 160
f 374 376 226
f 227 382 380
f 160 382 227
f 227 380 143
f 258 301 299
f 299 377 374
f 183 377 299
f 299 301 183
f 366 368 241
f 418 421 366
f 199 368 366
f 366 421 199
f 144 366 241
f 144 418 366
f 331 347 191
f 344 347 331
f 152 344 331
f 331 339 152
f 331 342 339
f 191 342 331
f 192 358 335
f 335 358 355
f 335 355 152
f 152 349 335
f 349 352 335
f 335 352 192
f 336 350 181
f 294 450 181
f 181 350 294
f 192 336 334
f 334 337 192
f 312 337 334
f 312 334 139
f 84 94 26
f 81 84 26
f 26 94 82
f 81 83 58
f 83 87 19
f 58 83 19
f 26 83 81
f 76 97 95
f 95 97 29
f 137 308 261
f 308 310 261
f 186 310 308
f 308 311 186
f 286 308 137
f 286 311 308
f 221 469 465
f 467 469 221
f 456 469 467
f 465 469 454
f 204 387 386
f 456 467 204
f 384 456 204
f 204 386 384
f 385 387 204
f 204 467 385
f 441 457 216
f 454 457 441
f 302 314 312
f 312 314 187
f 314 328 187
f 190 328 326
f 326 328 314
f 305 327 324
f 305 324 150
f 150 324 303
f 324 326 303
f 324 327 190
f 190 326 324
f 325 329 316
f 318 329 327
f 316 329 188
f 188 329 318
f 190 329 325
f 327 329 190
f 273 282 174
f 279 282 273
f 273 297 295
f 174 297 273
f 361 373 197
f 371 373 361
f 246 249 166
f 274 280 158
f 257 425 169
f 32 116 113
f 32 121 114
f 113 115 32
f 115 121 32
f 402 403 208
f 391 403 402
f 400 402 208
f 391 402 168
f 168 402 255
f 255 402 400
f 38 40 36
f 1 38 36
f 60 62 37
f 20 62 60
f 20 63 62
f 62 63 57
f 101 104 30
f 30 103 101
f 101 103 38
f 1 101 38
f 18 74 55
f 55 57 18
f 36 55 1
f 36 57 55
f 72 101 1
f 72 104 101
f 55 72 1
f 55 74 72
f 218 463 449
f 451 463 218
f 449 463 459
f 461 463 451
f 459 463 220
f 220 463 461
f 411 427 424
f 213 439 424
f 424 427 213
f 424 439 435
f 424 435 156
f 411 424 156
f 210 427 411
f 411 422 210
f 210 422 412
f 210 412 410
f 425 427 413
f 256 413 410
f 169 413 256
f 169 425 413
f 413 427 210
f 410 413 210
f 384 386 300
f 300 386 183
f 150 384 300
f 300 305 150
f 300 307 305
f 183 307 300
f 142 264 225
f 264 266 225
f 225 266 159
f 225 232 142
f 225 234 232
f 159 234 225
f 163 239 237
f 237 238 163
f 226 228 224
f 224 228 159
f 228 234 159
f 160 228 226
f 134 226 224
f 224 258 134
f 134 374 226
f 299 374 134
f 258 299 134
f 181 450 442
f 450 452 442
f 440 442 216
f 442 452 216
f 87 89 27
f 83 89 87
f 27 89 86
f 26 89 83
f 86 89 82
f 82 89 26
f 216 443 440
f 216 457 443
f 443 457 455
f 440 443 302
f 303 326 184
f 184 455 303
f 184 314 302
f 184 326 314
f 302 443 184
f 443 455 184
f 147 338 276
f 295 338 147
f 273 295 147
f 276 283 147
f 147 283 279
f 147 279 273
f 197 363 360
f 197 373 363
f 360 363 290
f 363 373 372
f 290 363 180
f 363 372 180
f 200 461 451
f 372 373 200
f 200 451 370
f 370 372 200
f 371 461 200
f 200 373 371
f 240 242 164
f 242 250 164
f 223 280 278
f 158 280 223
f 223 278 141
f 141 246 223
f 123 126 114
f 114 126 32
f 32 126 116
f 34 126 123
f 124 126 34
f 116 126 124
f 11 57 36
f 11 62 57
f 37 62 11
f 11 45 37
f 40 45 11
f 36 40 11
f 24 109 104
f 24 104 72
f 73 109 24
f 24 78 73
f 74 78 24
f 72 74 24
f 230 237 143
f 143 395 230
f 161 238 230
f 230 238 237
f 395 397 230
f 230 397 161
f 228 236 234
f 227 236 160
f 160 236 228
f 293 440 139
f 293 442 440
f 181 442 293
f 293 336 181
f 139 334 293
f 334 336 293
f 303 455 453
f 453 456 384
f 150 453 384
f 303 453 150
f 219 469 456
f 455 457 219
f 454 469 219
f 219 457 454
f 219 456 453
f 453 455 219
f 222 240 133
f 222 242 240
f 158 242 222
f 222 274 158
f 272 274 222
f 133 272 222
f 166 250 248
f 248 250 242
f 166 248 246
f 158 248 242
f 246 248 223
f 223 248 158
f 233 236 227
f 237 239 233
f 143 233 227
f 143 237 233
f 162 239 235
f 234 236 162
f 162 235 232
f 232 234 162
f 233 239 162
f 162 236 233
f 475 484 100
f 112 486 485
f 99 495 488
f 132 507 503
f 102 508 505
f 73 517 516
f 526 531 95
f 127 535 533
f 514 536 22
f 543 545 131
f 541 546 80
f 545 548 131
f 563 565 564
f 41 136 243
f 2 136 41
f 47 41 243
f 47 243 245
f 136 2 256
f 53 256 2
f 70 288 179
f 70 179 23
f 21 68 177
f 285 177 68
f 70 3 288
f 138 288 3
f 178 22 69
f 178 69 287
f 8 148 287
f 69 8 287
f 562 254 168
f 562 168 16
f 527 562 16
f 513 22 178
f 513 178 286
f 514 22 513
f 67 21 177
f 284 67 177
f 64 67 277
f 284 277 67
f 68 281 285
f 65 281 68
f 64 277 275
f 64 275 58
f 3 58 138
f 275 138 58
f 60 4 141
f 278 60 141
f 278 281 65
f 278 65 60
f 50 47 245
f 50 245 252
f 50 252 167
f 50 167 15
f 52 16 168
f 255 52 168
f 71 289 148
f 71 148 8
f 71 23 179
f 71 179 289
f 48 51 253
f 249 48 253
f 51 15 253
f 167 253 15
f 6 52 255
f 6 255 145
f 54 6 145
f 257 54 145
f 43 246 141
f 43 141 4
f 246 48 249
f 43 48 246
f 169 54 257
f 17 54 169
f 53 169 256
f 17 169 53
f 471 93 470
f 472 470 79
f 93 79 470
f 473 110 474
f 93 471 476
f 475 93 476
f 100 93 475
f 478 135 477
f 483 135 478
f 229 135 483
f 479 480 238
f 163 238 480
f 490 479 238
f 481 96 482
f 29 96 481
f 487 29 481
f 489 99 488
f 491 231 229
f 483 492 229
f 491 229 492
f 493 96 494
f 482 96 493
f 100 496 99
f 495 99 496
f 484 496 100
f 497 494 9
f 96 9 494
f 532 474 498
f 524 532 498
f 473 474 532
f 535 508 532
f 473 532 508
f 533 535 532
f 505 508 535
f 506 505 535
f 540 516 524
f 531 524 516
f 540 524 498
f 517 531 516
f 526 524 531
f 519 531 517
f 509 499 261
f 510 261 263
f 509 261 510
f 79 80 501
f 500 79 501
f 472 79 500
f 9 99 489
f 497 9 489
f 125 132 503
f 502 125 503
f 504 125 502
f 106 102 505
f 506 106 505
f 511 125 504
f 102 110 473
f 508 102 473
f 486 112 512
f 111 125 511
f 515 111 511
f 518 512 111
f 112 111 512
f 515 518 111
f 73 76 517
f 519 517 76
f 520 270 521
f 173 521 270
f 528 270 520
f 112 485 522
f 16 112 522
f 523 16 522
f 524 95 525
f 526 95 524
f 527 16 523
f 29 487 525
f 95 29 525
f 529 35 530
f 35 127 530
f 528 263 270
f 534 510 263
f 534 263 528
f 76 95 531
f 519 76 531
f 532 127 533
f 530 127 532
f 10 128 537
f 538 10 537
f 267 264 539
f 544 267 539
f 22 536 542
f 80 22 542
f 541 80 542
f 131 10 543
f 538 543 10
f 501 80 546
f 547 235 239
f 550 547 239
f 551 550 239
f 132 131 549
f 548 549 131
f 507 132 549
f 506 535 106
f 127 106 535
f 128 552 553
f 537 128 553
f 529 530 532
f 553 532 493
f 553 529 532
f 524 493 532
f 487 493 524
f 525 487 524
f 481 493 487
f 482 493 481
f 554 529 553
f 552 554 553
f 128 35 554
f 552 128 554
f 555 235 547
f 232 235 555
f 109 73 540
f 516 540 73
f 498 109 540
f 480 551 163
f 239 163 551
f 554 35 529
f 110 109 498
f 474 110 498
f 267 544 271
f 557 271 544
f 556 271 557
f 137 261 499
f 558 559 137
f 558 137 499
f 556 173 271
f 521 173 556
f 561 513 286
f 559 286 137
f 561 286 559
f 496 549 493
f 543 537 553
f 549 543 553
f 494 489 493
f 497 489 494
f 549 553 493
f 496 493 489
f 545 543 549
f 548 545 549
f 488 496 489
f 495 496 488
f 538 537 543
f 254 560 477
f 562 560 254
f 254 477 135
f 142 232 555
f 563 142 555
f 564 142 563
f 264 142 539
f 565 539 142
f 564 565 142
f 490 238 231
f 566 490 231
f 566 231 491
f 476 549 496
f 502 549 476
f 484 475 476
f 484 476 496
f 507 549 502
f 507 502 503
f 518 502 476
f 470 500 476
f 511 504 502
f 518 476 500
f 470 476 471
f 472 500 470
f 511 502 518
f 515 511 518
f 542 500 501
f 518 500 542
f 522 512 518
f 541 542 501
f 522 518 542
f 485 512 522
f 486 512 485
f 546 541 501
f 527 523 522
f 542 560 522
f 561 560 542
f 536 514 542
f 561 542 514
f 527 522 560
f 562 527 560
f 513 561 514
f 558 478 560
f 558 560 561
f 477 560 478
f 559 558 561
f 483 478 558
f 483 558 499
f 509 483 499
f 492 483 509
f 534 566 492
f 534 492 509
f 491 492 566
f 534 509 510
f 528 490 566
f 528 566 534
f 479 490 528
f 520 479 528
f 551 480 479
f 556 557 551
f 551 479 520
f 556 551 520
f 551 557 550
f 556 520 521
f 555 550 557
f 539 555 557
f 547 550 555
f 539 557 544
f 565 555 539
f 563 555 565
