v 4.6216298605766202 -4.7605475749438799 3.7000000000000002
v 4.6216298605766202 -9.8644524250561201 3.7000000000000002
v 3.0444365242192193 -8.8896933363574 6.2519524250561203
v 3.0444365242192193 -5.7353066636425991 6.2519524250561203
v 3.0444365242192193 -8.8896933363574 1.1480475749438801
v 3.0444365242192193 -5.7353066636425991 1.1480475749438801
v 5.5963889492753394 -7.3125 2.1228066636425993
v 5.5963889492753394 -7.3125 5.2771933363574011
v 3.0444365242192193 -4.3125 3.7000000000000002
v 3.0444365242192193 -10.3125 3.7000000000000002
v 3.9714875073440616 -9.7395509831248432 5.2000000000000011
v 3.9714875073440616 -4.8854490168751576 5.2000000000000011
v 3.0444365242192193 -7.3125 6.7000000000000002
v 3.9714875073440616 -9.7395509831248432 2.1999999999999997
v 3.9714875073440616 -4.8854490168751576 2.1999999999999997
v 3.0444365242192193 -7.3125 0.70000000000000018
v 5.4714875073440616 -5.8125 2.7729490168751578
v 5.4714875073440616 -8.8125 2.7729490168751578
v 4.5444365242192202 -8.2395509831248432 1.2729490168751578
v 4.5444365242192202 -6.3854490168751576 1.2729490168751578
v 5.4714875073440616 -5.8125 4.6270509831248425
v 5.4714875073440616 -8.8125 4.6270509831248425
v 4.5444365242192202 -8.2395509831248432 6.1270509831248425
v 4.5444365242192202 -6.3854490168751576 6.1270509831248425
v 6.0444365242192193 -7.3125 3.7000000000000002
v 3.8642361109572345 -4.4266849266482478 3.7000000000000002
v 3.8642361109572345 -10.198315073351752 3.7000000000000002
v 4.3461022178773039 -9.9005054412485585 4.4796757390232633
v 3.5263026311392887 -9.3938414326813486 5.8061393343284893
v 3.5318160685685789 -10.165669548885461 4.4885966681787011
v 3.0444365242192193 -9.8644524250561201 5.2771933363574011
v 4.3461022178773039 -4.7244945587514415 4.4796757390232633
v 3.5263026311392887 -5.2311585673186523 5.8061393343284893
v 3.5318160685685789 -4.4593304511145391 4.4885966681787011
v 3.0444365242192193 -4.7605475749438799 5.2771933363574011
v 3.0444365242192193 -8.1322995867380143 6.5858150733517533
v 3.0444365242192193 -6.4927004132619848 6.5858150733517533
v 4.3461022178773039 -9.9005054412485585 2.920324260976737
v 3.5263026311392887 -9.3938414326813486 1.5938606656715111
v 3.5318160685685789 -10.165669548885461 2.9114033318212997
v 3.0444365242192193 -9.8644524250561201 2.1228066636425993
v 4.3461022178773039 -4.7244945587514415 2.920324260976737
v 3.5263026311392887 -5.2311585673186523 1.5938606656715111
v 3.5318160685685789 -4.4593304511145391 2.9114033318212997
v 3.0444365242192193 -4.7605475749438799 2.1228066636425993
v 3.0444365242192193 -8.1322995867380143 0.81418492664824749
v 3.0444365242192193 -6.4927004132619848 0.81418492664824749
v 5.125777956900567 -5.2063606656715109 3.2181338930799308
v 5.6324419654677778 -6.5328242609767369 2.3983343063419156
v 4.8077922810966385 -5.2479271192932391 2.4240237874719401
v 5.125777956900567 -9.4186393343284891 3.2181338930799308
v 5.6324419654677778 -8.0921757390232631 2.3983343063419156
v 4.8077922810966385 -9.3770728807067609 2.4240237874719401
v 3.8241122632424824 -8.6141656936580837 1.1119945587514417
v 5.1505758585477084 -7.7943661069200694 1.6186585673186529
v 4.3204127367472793 -9.0758557568774201 1.6354271192932397
v 3.8330331923979197 -7.7998795443493592 0.84683045111453925
v 5.1090094049259793 -8.5884762125280609 1.9366442431225808
v 3.8241122632424824 -6.0108343063419154 1.1119945587514417
v 5.1505758585477084 -6.8306338930799306 1.6186585673186529
v 4.3204127367472793 -5.5491442431225808 1.6354271192932397
v 3.8330331923979197 -6.8251204556506408 0.84683045111453925
v 5.1090094049259793 -6.03652378747194 1.9366442431225808
v 4.6216298605766202 -7.3125 1.1480475749438805
v 5.125777956900567 -5.2063606656715109 4.1818661069200695
v 5.6324419654677778 -6.5328242609767369 5.0016656936580848
v 4.8077922810966385 -5.2479271192932391 4.9759762125280602
v 5.5963889492753385 -5.7353066636425991 3.7000000000000002
v 5.125777956900567 -9.4186393343284891 4.1818661069200695
v 5.6324419654677778 -8.0921757390232631 5.0016656936580848
v 4.8077922810966385 -9.3770728807067609 4.9759762125280602
v 5.5963889492753385 -8.8896933363574018 3.7000000000000002
v 3.8241122632424824 -8.6141656936580837 6.2880054412485586
v 5.1505758585477084 -7.7943661069200694 5.7813414326813479
v 4.3204127367472793 -9.0758557568774201 5.7645728807067602
v 3.8330331923979197 -7.7998795443493592 6.5531695488854611
v 5.1090094049259793 -8.5884762125280609 5.4633557568774194
v 3.8241122632424824 -6.0108343063419154 6.2880054412485586
v 5.1505758585477084 -6.8306338930799306 5.7813414326813479
v 4.3204127367472793 -5.5491442431225808 5.7645728807067602
v 3.8330331923979197 -6.8251204556506408 6.5531695488854611
v 5.1090094049259793 -6.03652378747194 5.4633557568774194
v 4.6216298605766202 -7.3125 6.2519524250561194
v 5.9302515975709724 -7.3125 2.8802004132619849
v 5.9302515975709724 -7.3125 4.5197995867380154
v 5.8976060731046802 -6.5239033318212991 3.2126204556506406
v 5.8976060731046802 -8.1010966681787 3.2126204556506406
v 5.8976060731046802 -6.5239033318212991 4.1873795443493602
v 5.8976060731046802 -8.1010966681787 4.1873795443493602
v 4.2545025700713124 -4.5673697363010479 3.7000000000000002
v 3.4582932506021207 -4.3411833541294147 3.7000000000000002
v 4.2545025700713124 -10.057630263698952 3.7000000000000002
v 3.4582932506021207 -10.283816645870585 3.7000000000000002
v 4.4977614504012227 -9.9072880075898233 4.0936011364390383
v 4.1695522266538481 -9.8442344238671708 4.8508411980551438
v 4.1191229046789566 -10.085413801834038 4.0949661140561942
v 3.28769540454913 -9.1594260626210424 6.0515291272599141
v 3.7556955002709471 -9.5884569004897724 5.5204754478154427
v 3.0444365242192193 -9.4212210914633197 5.8338452048866491
v 3.291163920057306 -10.275565021785413 4.0992133124217744
v 3.7604673151779986 -9.9855195725651029 4.8585621567627761
v 3.7047876066390963 -10.211677792207318 4.0983774304837075
v 3.0444365242192193 -10.204083790402867 4.4992141034037019
v 3.9482131614989155 -10.061232525573647 4.4922482519771965
v 3.5137399193399119 -9.8330336559814171 5.2577754691845504
v 3.287862079079038 -9.6531131121303808 5.5607187478403413
v 3.2914072643151 -10.051447478796897 4.8988211551055532
v 4.4977614504012227 -4.7177119924101758 4.0936011364390383
v 4.1695522266538481 -4.7807655761328292 4.8508411980551438
v 4.1191229046789566 -4.5395861981659618 4.0949661140561942
v 3.28769540454913 -5.4655739373789576 6.0515291272599141
v 3.7556955002709471 -5.0365430995102276 5.5204754478154427
v 3.0444365242192193 -5.2037789085366803 5.8338452048866491
v 3.291163920057306 -4.3494349782145871 4.0992133124217744
v 3.7604673151779986 -4.6394804274348962 4.8585621567627761
v 3.7047876066390963 -4.4133222077926826 4.0983774304837075
v 3.0444365242192193 -4.4209162095971326 4.4992141034037019
v 3.9482131614989155 -4.5637674744263528 4.4922482519771965
v 3.5137399193399119 -4.7919663440185838 5.2577754691845504
v 3.287862079079038 -4.9718868878696201 5.5607187478403413
v 3.2914072643151 -4.5735525212031032 4.8988211551055532
v 3.0444365242192193 -8.5225660458520931 6.4451302636989523
v 3.0444365242192193 -7.7263567263829014 6.6713166458705864
v 3.0444365242192193 -6.1024339541479069 6.4451302636989523
v 3.0444365242192193 -6.8986432736170986 6.6713166458705864
v 4.4977614504012227 -9.9072880075898233 3.3063988635609616
v 4.1695522266538481 -9.8442344238671708 2.5491588019448566
v 4.1191229046789566 -10.085413801834038 3.3050338859438062
v 3.28769540454913 -9.1594260626210424 1.3484708727400863
v 3.7556955002709471 -9.5884569004897724 1.8795245521845576
v 3.0444365242192193 -9.4212210914633197 1.5661547951133512
v 3.291163920057306 -10.275565021785413 3.3007866875782264
v 3.7604673151779986 -9.9855195725651029 2.5414378432372238
v 3.7047876066390963 -10.211677792207318 3.3016225695162928
v 3.0444365242192193 -10.204083790402867 2.900785896596298
v 3.9482131614989155 -10.061232525573647 2.9077517480228039
v 3.5137399193399119 -9.8330336559814171 2.1422245308154499
v 3.287862079079038 -9.6531131121303808 1.8392812521596591
v 3.2914072643151 -10.051447478796897 2.5011788448944468
v 4.4977614504012227 -4.7177119924101758 3.3063988635609616
v 4.1695522266538481 -4.7807655761328292 2.5491588019448566
v 4.1191229046789566 -4.5395861981659618 3.3050338859438062
v 3.28769540454913 -5.4655739373789576 1.3484708727400863
v 3.7556955002709471 -5.0365430995102276 1.8795245521845576
v 3.0444365242192193 -5.2037789085366803 1.5661547951133512
v 3.291163920057306 -4.3494349782145871 3.3007866875782264
v 3.7604673151779986 -4.6394804274348962 2.5414378432372238
v 3.7047876066390963 -4.4133222077926826 3.3016225695162928
v 3.0444365242192193 -4.4209162095971326 2.900785896596298
v 3.9482131614989155 -4.5637674744263528 2.9077517480228039
v 3.5137399193399119 -4.7919663440185838 2.1422245308154499
v 3.287862079079038 -4.9718868878696201 1.8392812521596591
v 3.2914072643151 -4.5735525212031032 2.5011788448944468
v 3.0444365242192193 -8.5225660458520931 0.9548697363010481
v 3.0444365242192193 -7.7263567263829014 0.72868335412941443
v 3.0444365242192193 -6.1024339541479069 0.9548697363010481
v 3.0444365242192193 -6.8986432736170986 0.72868335412941443
v 4.8913625868402608 -4.9609708727400861 3.4567411196700895
v 5.3203934247089908 -5.4920245521845574 2.9887410239482723
v 4.758191501626345 -4.9345523122221557 3.0609314030526109
v 5.6392245318090435 -6.9188988635609618 2.2466750738179968
v 5.5761709480863892 -6.1616588019448564 2.5748842975653714
v 4.4064080234378595 -5.0386937398566705 2.2947104473991371
v 5.1657568677788621 -5.5079971349773631 2.5847558966194466
v 4.592801384372402 -4.9621449049100601 2.6615409556330238
v 4.9866722058658919 -5.2055704597698789 2.811986222266694
v 4.8913625868402608 -9.6640291272599139 3.4567411196700895
v 5.3203934247089908 -9.1329754478154435 2.9887410239482723
v 4.758191501626345 -9.6904476877778443 3.0609314030526109
v 5.6392245318090435 -7.7061011364390382 2.2466750738179968
v 5.5761709480863892 -8.4633411980551436 2.5748842975653714
v 4.4064080234378595 -9.5863062601433295 2.2947104473991371
v 5.1657568677788621 -9.1170028650226378 2.5847558966194466
v 4.592801384372402 -9.6628550950899399 2.6615409556330238
v 4.9866722058658919 -9.4194295402301211 2.811986222266694
v 3.4380376606582579 -8.7658249261820043 1.105211992410176
v 4.1952777222743629 -8.4376157024346288 1.1682655761328298
v 3.6835051211666086 -9.0262549774071257 1.3220523122221559
v 3.4394026382754133 -8.3871863804597364 0.92708619816596194
v 5.3959656514791332 -7.5557588803299103 1.8530739373789584
v 4.8649119720346619 -8.0237589760517274 1.4240430995102282
v 5.4223842119970636 -7.9515685969473893 1.9862450225928743
v 4.1596806275997729 -9.4338203435596419 1.8954971349773628
v 4.4497260768200828 -8.6744714992186402 1.4261937398566706
v 3.9324503019525254 -9.2547356816466717 1.5930704597698795
v 4.5845628479105631 -9.252233375393196 2.0072373647026858
v 4.0828955685861956 -8.8608648601531836 1.3496449049100607
v 3.4436498366409936 -7.5592273958380867 0.73693497821458687
v 4.2029986809819952 -8.0285307909587793 1.0269804274348964
v 3.4428139547029266 -7.9728510824198775 0.80082220779268276
v 3.836684776196416 -8.2162766372796963 0.95126747442635295
v 5.3182427843625488 -8.7177895526008626 2.3380285007813599
v 4.8489393892418562 -8.4277441033805545 1.5786796564403578
v 5.3947916193091583 -8.3509590443669772 2.151635139846817
v 4.9841698996124144 -9.0052626352973135 2.1598736763086563
v 5.1513660644493395 -8.2005137777333061 1.7577643183533282
v 4.7371991595165337 -8.8526263236913429 1.7602666246068051
v 3.4380376606582579 -5.8591750738179966 1.105211992410176
v 4.1952777222743629 -6.1873842975653712 1.1682655761328298
v 3.6835051211666086 -5.5987450225928743 1.3220523122221559
v 3.4394026382754133 -6.2378136195402636 0.92708619816596194
v 5.3959656514791332 -7.0692411196700897 1.8530739373789584
v 4.8649119720346619 -6.6012410239482717 1.4240430995102282
v 5.4223842119970636 -6.6734314030526107 1.9862450225928743
v 5.1782817291058683 -7.3125 1.5912789085366805
v 4.1596806275997729 -5.1911796564403581 1.8954971349773628
v 4.4497260768200828 -5.9505285007813598 1.4261937398566706
v 3.9324503019525254 -5.3702643183533283 1.5930704597698795
v 4.5845628479105631 -5.3727666246068049 2.0072373647026858
v 4.0828955685861956 -5.7641351398468164 1.3496449049100607
v 3.4436498366409936 -7.0657726041619133 0.73693497821458687
v 4.2029986809819952 -6.5964692090412207 1.0269804274348964
v 3.4428139547029266 -6.6521489175801225 0.80082220779268276
v 3.8436506276229219 -7.3125 0.80841620959713234
v 3.836684776196416 -6.4087233627203037 0.95126747442635295
v 5.3182427843625488 -5.9072104473991365 2.3380285007813599
v 4.8489393892418562 -6.1972558966194464 1.5786796564403578
v 5.3947916193091583 -6.2740409556330237 2.151635139846817
v 4.9841698996124144 -5.6197373647026856 2.1598736763086563
v 5.1513660644493395 -6.4244862222666939 1.7577643183533282
v 4.7371991595165337 -5.7723736763086562 1.7602666246068051
v 4.6022119934037704 -7.7818033951206926 1.179466344018584
v 4.6022119934037704 -6.8431966048793074 1.179466344018584
v 4.9051552720595604 -7.5559255548598188 1.3593868878696203
v 4.2432576793247723 -7.5594707400958807 0.96105252120310292
v 4.9051552720595604 -7.0690744451401812 1.3593868878696203
v 4.2432576793247723 -7.0655292599041193 0.96105252120310292
v 4.8913625868402608 -4.9609708727400861 3.9432588803299109
v 5.3203934247089908 -5.4920245521845574 4.4112589760517285
v 4.758191501626345 -4.9345523122221557 4.3390685969473894
v 5.1531576156825389 -5.178654795113351 3.7000000000000002
v 5.6392245318090435 -6.9188988635609618 5.1533249261820036
v 5.5761709480863892 -6.1616588019448564 4.825115702434629
v 4.4064080234378595 -5.0386937398566705 5.1052895526008637
v 5.1657568677788621 -5.5079971349773631 4.8152441033805538
v 4.592801384372402 -4.9621449049100601 4.7384590443669765
v 4.9866722058658919 -5.2055704597698789 4.5880137777333063
v 5.5649701802006355 -5.7547245308154498 3.2306966048793075
v 5.5649701802006355 -5.7547245308154498 4.1693033951206928
v 5.3850496363495992 -5.4517812521596589 3.4565744451401814
v 5.3850496363495992 -5.4517812521596589 3.9434255548598189
v 4.8913625868402608 -9.6640291272599139 3.9432588803299109
v 5.3203934247089908 -9.1329754478154435 4.4112589760517285
v 4.758191501626345 -9.6904476877778443 4.3390685969473894
v 5.1531576156825389 -9.446345204886649 3.7000000000000002
v 5.6392245318090435 -7.7061011364390382 5.1533249261820036
v 5.5761709480863892 -8.4633411980551436 4.825115702434629
v 4.4064080234378595 -9.5863062601433295 5.1052895526008637
v 5.1657568677788621 -9.1170028650226378 4.8152441033805538
v 4.592801384372402 -9.6628550950899399 4.7384590443669765
v 4.9866722058658919 -9.4194295402301211 4.5880137777333063
v 5.5649701802006355 -8.8702754691845502 3.2306966048793075
v 5.5649701802006355 -8.8702754691845502 4.1693033951206928
v 5.3850496363495992 -9.1732187478403411 3.4565744451401814
v 5.3850496363495992 -9.1732187478403411 3.9434255548598189
v 3.4380376606582579 -8.7658249261820043 6.2947880075898244
v 4.1952777222743629 -8.4376157024346288 6.2317344238671701
v 3.6835051211666086 -9.0262549774071257 6.0779476877778444
v 3.4394026382754133 -8.3871863804597364 6.4729138018340384
v 5.3959656514791332 -7.5557588803299103 5.5469260626210417
v 4.8649119720346619 -8.0237589760517274 5.9759569004897717
v 5.4223842119970636 -7.9515685969473893 5.4137549774071259
v 4.1596806275997729 -9.4338203435596419 5.5045028650226371
v 4.4497260768200828 -8.6744714992186402 5.9738062601433297
v 3.9324503019525254 -9.2547356816466717 5.8069295402301204
v 4.5845628479105631 -9.252233375393196 5.3927626352973146
v 4.0828955685861956 -8.8608648601531836 6.0503550950899392
v 3.4436498366409936 -7.5592273958380867 6.6630650217854139
v 4.2029986809819952 -8.0285307909587793 6.373019572565104
v 3.4428139547029266 -7.9728510824198775 6.5991777922073176
v 3.836684776196416 -8.2162766372796963 6.4487325255736474
v 5.3182427843625488 -8.7177895526008626 5.0619714992186404
v 4.8489393892418562 -8.4277441033805545 5.821320343559643
v 5.3947916193091583 -8.3509590443669772 5.2483648601531829
v 4.9841698996124144 -9.0052626352973135 5.240126323691344
v 5.1513660644493395 -8.2005137777333061 5.6422356816466719
v 4.7371991595165337 -8.8526263236913429 5.6397333753931953
v 3.4380376606582579 -5.8591750738179966 6.2947880075898244
v 4.1952777222743629 -6.1873842975653712 6.2317344238671701
v 3.6835051211666086 -5.5987450225928743 6.0779476877778444
v 3.4394026382754133 -6.2378136195402636 6.4729138018340384
v 5.3959656514791332 -7.0692411196700897 5.5469260626210417
v 4.8649119720346619 -6.6012410239482717 5.9759569004897717
v 5.4223842119970636 -6.6734314030526107 5.4137549774071259
v 5.1782817291058683 -7.3125 5.8087210914633198
v 4.1596806275997729 -5.1911796564403581 5.5045028650226371
v 4.4497260768200828 -5.9505285007813598 5.9738062601433297
v 3.9324503019525254 -5.3702643183533283 5.8069295402301204
v 4.5845628479105631 -5.3727666246068049 5.3927626352973146
v 4.0828955685861956 -5.7641351398468164 6.0503550950899392
v 3.4436498366409936 -7.0657726041619133 6.6630650217854139
v 4.2029986809819952 -6.5964692090412207 6.373019572565104
v 3.4428139547029266 -6.6521489175801225 6.5991777922073176
v 3.8436506276229219 -7.3125 6.5915837904028685
v 3.836684776196416 -6.4087233627203037 6.4487325255736474
v 5.3182427843625488 -5.9072104473991365 5.0619714992186404
v 4.8489393892418562 -6.1972558966194464 5.821320343559643
v 5.3947916193091583 -6.2740409556330237 5.2483648601531829
v 4.9841698996124144 -5.6197373647026856 5.240126323691344
v 5.1513660644493395 -6.4244862222666939 5.6422356816466719
v 4.7371991595165337 -5.7723736763086562 5.6397333753931953
v 4.6022119934037704 -7.7818033951206926 6.2205336559814164
v 4.6022119934037704 -6.8431966048793074 6.2205336559814164
v 4.9051552720595604 -7.5559255548598188 6.0406131121303801
v 4.2432576793247723 -7.5594707400958807 6.4389474787968979
v 4.9051552720595604 -7.0690744451401812 6.0406131121303801
v 4.2432576793247723 -7.0655292599041193 6.4389474787968979
v 5.7895667879181714 -7.3125 2.4899339541479071
v 6.0157531700898055 -7.3125 3.2861432736170988
v 5.8173503260532575 -6.917533885943806 2.6253136195402633
v 5.8173503260532575 -7.707466114056194 2.6253136195402633
v 5.7895667879181714 -7.3125 4.9100660458520933
v 6.0157531700898055 -7.3125 4.1138567263829016
v 5.8173503260532575 -6.917533885943806 4.7746863804597375
v 5.8173503260532575 -7.707466114056194 4.7746863804597375
v 5.7174560967843231 -6.1539378432372231 2.9839692090412209
v 6.007501546004633 -6.9132866875782257 3.4532726041619131
v 5.7931690497928665 -6.5202517480228028 2.7962233627203039
v 5.783384003016117 -6.1136788448944461 3.4530292599041195
v 5.9436143164265367 -6.9141225695162927 3.0396489175801227
v 5.7174560967843231 -8.4710621567627769 2.9839692090412209
v 6.007501546004633 -7.7117133124217743 3.4532726041619131
v 5.7931690497928665 -8.1047482519771972 2.7962233627203039
v 5.783384003016117 -8.5113211551055539 3.4530292599041195
v 5.9436143164265367 -7.7108774304837073 3.0396489175801227
v 5.7174560967843231 -6.1539378432372231 4.4160307909587795
v 6.007501546004633 -6.9132866875782257 3.9467273958380873
v 5.7931690497928665 -6.5202517480228028 4.6037766372796964
v 5.783384003016117 -6.1136788448944461 3.9469707400958809
v 5.9436143164265367 -6.9141225695162927 4.3603510824198777
v 5.9360203146220876 -6.5132858965962974 3.7000000000000002
v 5.7174560967843231 -8.4710621567627769 4.4160307909587795
v 6.007501546004633 -7.7117133124217743 3.9467273958380873
v 5.7931690497928665 -8.1047482519771972 4.6037766372796964
v 5.783384003016117 -8.5113211551055539 3.9469707400958809
v 5.9436143164265367 -7.7108774304837073 4.3603510824198777
v 5.9360203146220876 -8.1117141034037026 3.7000000000000002
v -4.6216298605766193 -4.7605475749438799 3.7000000000000002
v -4.6216298605766193 -9.8644524250561201 3.7000000000000002
v -3.0444365242192184 -8.8896933363574 6.2519524250561203
v -3.0444365242192184 -5.7353066636425991 6.2519524250561203
v -3.0444365242192184 -8.8896933363574 1.1480475749438801
v -3.0444365242192184 -5.7353066636425991 1.1480475749438801
v -5.5963889492753385 -7.3125 2.1228066636425993
v -5.5963889492753385 -7.3125 5.2771933363574011
v -3.0444365242192184 -4.3125 3.7000000000000002
v -3.0444365242192184 -10.3125 3.7000000000000002
v -3.9714875073440608 -9.7395509831248432 5.2000000000000011
v -3.9714875073440608 -4.8854490168751576 5.2000000000000011
v -3.0444365242192184 -7.3125 6.7000000000000002
v -3.9714875073440608 -9.7395509831248432 2.1999999999999997
v -3.9714875073440608 -4.8854490168751576 2.1999999999999997
v -3.0444365242192184 -7.3125 0.70000000000000018
v -5.4714875073440608 -5.8125 2.7729490168751578
v -5.4714875073440608 -8.8125 2.7729490168751578
v -4.5444365242192184 -8.2395509831248432 1.2729490168751578
v -4.5444365242192184 -6.3854490168751576 1.2729490168751578
v -5.4714875073440608 -5.8125 4.6270509831248425
v -5.4714875073440608 -8.8125 4.6270509831248425
v -4.5444365242192184 -8.2395509831248432 6.1270509831248425
v -4.5444365242192184 -6.3854490168751576 6.1270509831248425
v -6.0444365242192184 -7.3125 3.7000000000000002
v -3.8642361109572336 -4.4266849266482478 3.7000000000000002
v -3.8642361109572336 -10.198315073351752 3.7000000000000002
v -4.3461022178773021 -9.9005054412485585 4.4796757390232633
v -3.5263026311392878 -9.3938414326813486 5.8061393343284893
v -3.531816068568578 -10.165669548885461 4.4885966681787011
v -3.0444365242192184 -9.8644524250561201 5.2771933363574011
v -4.3461022178773021 -4.7244945587514415 4.4796757390232633
v -3.5263026311392878 -5.2311585673186523 5.8061393343284893
v -3.531816068568578 -4.4593304511145391 4.4885966681787011
v -3.0444365242192184 -4.7605475749438799 5.2771933363574011
v -3.0444365242192184 -8.1322995867380143 6.5858150733517533
v -3.0444365242192184 -6.4927004132619848 6.5858150733517533
v -4.3461022178773021 -9.9005054412485585 2.920324260976737
v -3.5263026311392878 -9.3938414326813486 1.5938606656715111
v -3.531816068568578 -10.165669548885461 2.9114033318212997
v -3.0444365242192184 -9.8644524250561201 2.1228066636425993
v -4.3461022178773021 -4.7244945587514415 2.920324260976737
v -3.5263026311392878 -5.2311585673186523 1.5938606656715111
v -3.531816068568578 -4.4593304511145391 2.9114033318212997
v -3.0444365242192184 -4.7605475749438799 2.1228066636425993
v -3.0444365242192184 -8.1322995867380143 0.81418492664824749
v -3.0444365242192184 -6.4927004132619848 0.81418492664824749
v -5.1257779569005661 -5.2063606656715109 3.2181338930799308
v -5.6324419654677769 -6.5328242609767369 2.3983343063419156
v -4.8077922810966385 -5.2479271192932391 2.4240237874719401
v -5.1257779569005661 -9.4186393343284891 3.2181338930799308
v -5.6324419654677769 -8.0921757390232631 2.3983343063419156
v -4.8077922810966385 -9.3770728807067609 2.4240237874719401
v -3.8241122632424815 -8.6141656936580837 1.1119945587514417
v -5.1505758585477075 -7.7943661069200694 1.6186585673186529
v -4.3204127367472784 -9.0758557568774201 1.6354271192932397
v -3.8330331923979188 -7.7998795443493592 0.84683045111453925
v -5.1090094049259793 -8.5884762125280609 1.9366442431225808
v -3.8241122632424815 -6.0108343063419154 1.1119945587514417
v -5.1505758585477075 -6.8306338930799306 1.6186585673186529
v -4.3204127367472784 -5.5491442431225808 1.6354271192932397
v -3.8330331923979188 -6.8251204556506408 0.84683045111453925
v -5.1090094049259793 -6.03652378747194 1.9366442431225808
v -4.6216298605766193 -7.3125 1.1480475749438805
v -5.1257779569005661 -5.2063606656715109 4.1818661069200695
v -5.6324419654677769 -6.5328242609767369 5.0016656936580848
v -4.8077922810966385 -5.2479271192932391 4.9759762125280602
v -5.5963889492753385 -5.7353066636425991 3.7000000000000002
v -5.1257779569005661 -9.4186393343284891 4.1818661069200695
v -5.6324419654677769 -8.0921757390232631 5.0016656936580848
v -4.8077922810966385 -9.3770728807067609 4.9759762125280602
v -5.5963889492753385 -8.8896933363574018 3.7000000000000002
v -3.8241122632424815 -8.6141656936580837 6.2880054412485586
v -5.1505758585477075 -7.7943661069200694 5.7813414326813479
v -4.3204127367472784 -9.0758557568774201 5.7645728807067602
v -3.8330331923979188 -7.7998795443493592 6.5531695488854611
v -5.1090094049259793 -8.5884762125280609 5.4633557568774194
v -3.8241122632424815 -6.0108343063419154 6.2880054412485586
v -5.1505758585477075 -6.8306338930799306 5.7813414326813479
v -4.3204127367472784 -5.5491442431225808 5.7645728807067602
v -3.8330331923979188 -6.8251204556506408 6.5531695488854611
v -5.1090094049259793 -6.03652378747194 5.4633557568774194
v -4.6216298605766193 -7.3125 6.2519524250561194
v -5.9302515975709706 -7.3125 2.8802004132619849
v -5.9302515975709706 -7.3125 4.5197995867380154
v -5.8976060731046793 -6.5239033318212991 3.2126204556506406
v -5.8976060731046793 -8.1010966681787 3.2126204556506406
v -5.8976060731046793 -6.5239033318212991 4.1873795443493602
v -5.8976060731046793 -8.1010966681787 4.1873795443493602
v -4.2545025700713115 -4.5673697363010479 3.7000000000000002
v -3.4582932506021198 -4.3411833541294147 3.7000000000000002
v -4.2545025700713115 -10.057630263698952 3.7000000000000002
v -3.4582932506021198 -10.283816645870585 3.7000000000000002
v -4.4977614504012218 -9.9072880075898233 4.0936011364390383
v -4.1695522266538472 -9.8442344238671708 4.8508411980551438
v -4.1191229046789548 -10.085413801834038 4.0949661140561942
v -3.2876954045491291 -9.1594260626210424 6.0515291272599141
v -3.7556955002709462 -9.5884569004897724 5.5204754478154427
v -3.2911639200573051 -10.275565021785413 4.0992133124217744
v -3.7604673151779977 -9.9855195725651029 4.8585621567627761
v -3.7047876066390955 -10.211677792207318 4.0983774304837075
v -3.9482131614989147 -10.061232525573647 4.4922482519771965
v -3.0444365242192184 -9.4212210914633197 5.8338452048866491
v -3.0444365242192184 -10.204083790402867 4.4992141034037019
v -3.513739919339911 -9.8330336559814171 5.2577754691845504
v -3.2878620790790372 -9.6531131121303808 5.5607187478403413
v -3.2914072643150991 -10.051447478796897 4.8988211551055532
v -4.4977614504012218 -4.7177119924101758 4.0936011364390383
v -4.1695522266538472 -4.7807655761328292 4.8508411980551438
v -4.1191229046789548 -4.5395861981659618 4.0949661140561942
v -3.2876954045491291 -5.4655739373789576 6.0515291272599141
v -3.7556955002709462 -5.0365430995102276 5.5204754478154427
v -3.2911639200573051 -4.3494349782145871 4.0992133124217744
v -3.7604673151779977 -4.6394804274348962 4.8585621567627761
v -3.7047876066390955 -4.4133222077926826 4.0983774304837075
v -3.9482131614989147 -4.5637674744263528 4.4922482519771965
v -3.0444365242192184 -5.2037789085366803 5.8338452048866491
v -3.0444365242192184 -4.4209162095971326 4.4992141034037019
v -3.513739919339911 -4.7919663440185838 5.2577754691845504
v -3.2878620790790372 -4.9718868878696201 5.5607187478403413
v -3.2914072643150991 -4.5735525212031032 4.8988211551055532
v -3.0444365242192184 -8.5225660458520931 6.4451302636989523
v -3.0444365242192184 -7.7263567263829014 6.6713166458705864
v -3.0444365242192184 -6.1024339541479069 6.4451302636989523
v -3.0444365242192184 -6.8986432736170986 6.6713166458705864
v -4.4977614504012218 -9.9072880075898233 3.3063988635609616
v -4.1695522266538472 -9.8442344238671708 2.5491588019448566
v -4.1191229046789548 -10.085413801834038 3.3050338859438062
v -3.2876954045491291 -9.1594260626210424 1.3484708727400863
v -3.7556955002709462 -9.5884569004897724 1.8795245521845576
v -3.2911639200573051 -10.275565021785413 3.3007866875782264
v -3.7604673151779977 -9.9855195725651029 2.5414378432372238
v -3.7047876066390955 -10.211677792207318 3.3016225695162928
v -3.9482131614989147 -10.061232525573647 2.9077517480228039
v -3.0444365242192184 -9.4212210914633197 1.5661547951133512
v -3.0444365242192184 -10.204083790402867 2.900785896596298
v -3.513739919339911 -9.8330336559814171 2.1422245308154499
v -3.2878620790790372 -9.6531131121303808 1.8392812521596591
v -3.2914072643150991 -10.051447478796897 2.5011788448944468
v -4.4977614504012218 -4.7177119924101758 3.3063988635609616
v -4.1695522266538472 -4.7807655761328292 2.5491588019448566
v -4.1191229046789548 -4.5395861981659618 3.3050338859438062
v -3.2876954045491291 -5.4655739373789576 1.3484708727400863
v -3.7556955002709462 -5.0365430995102276 1.8795245521845576
v -3.2911639200573051 -4.3494349782145871 3.3007866875782264
v -3.7604673151779977 -4.6394804274348962 2.5414378432372238
v -3.7047876066390955 -4.4133222077926826 3.3016225695162928
v -3.9482131614989147 -4.5637674744263528 2.9077517480228039
v -3.0444365242192184 -5.2037789085366803 1.5661547951133512
v -3.0444365242192184 -4.4209162095971326 2.900785896596298
v -3.513739919339911 -4.7919663440185838 2.1422245308154499
v -3.2878620790790372 -4.9718868878696201 1.8392812521596591
v -3.2914072643150991 -4.5735525212031032 2.5011788448944468
v -3.0444365242192184 -8.5225660458520931 0.9548697363010481
v -3.0444365242192184 -7.7263567263829014 0.72868335412941443
v -3.0444365242192184 -6.1024339541479069 0.9548697363010481
v -3.0444365242192184 -6.8986432736170986 0.72868335412941443
v -4.8913625868402599 -4.9609708727400861 3.4567411196700895
v -5.3203934247089908 -5.4920245521845574 2.9887410239482723
v -4.7581915016263441 -4.9345523122221557 3.0609314030526109
v -5.6392245318090426 -6.9188988635609618 2.2466750738179968
v -5.5761709480863892 -6.1616588019448564 2.5748842975653714
v -4.4064080234378586 -5.0386937398566705 2.2947104473991371
v -5.1657568677788603 -5.5079971349773631 2.5847558966194466
v -4.5928013843724012 -4.9621449049100601 2.6615409556330238
v -4.9866722058658901 -5.2055704597698789 2.811986222266694
v -4.8913625868402599 -9.6640291272599139 3.4567411196700895
v -5.3203934247089908 -9.1329754478154435 2.9887410239482723
v -4.7581915016263441 -9.6904476877778443 3.0609314030526109
v -5.6392245318090426 -7.7061011364390382 2.2466750738179968
v -5.5761709480863892 -8.4633411980551436 2.5748842975653714
v -4.4064080234378586 -9.5863062601433295 2.2947104473991371
v -5.1657568677788603 -9.1170028650226378 2.5847558966194466
v -4.5928013843724012 -9.6628550950899399 2.6615409556330238
v -4.9866722058658901 -9.4194295402301211 2.811986222266694
v -3.438037660658257 -8.7658249261820043 1.105211992410176
v -4.195277722274362 -8.4376157024346288 1.1682655761328298
v -3.6835051211666077 -9.0262549774071257 1.3220523122221559
v -3.4394026382754124 -8.3871863804597364 0.92708619816596194
v -5.3959656514791323 -7.5557588803299103 1.8530739373789584
v -4.864911972034661 -8.0237589760517274 1.4240430995102282
v -5.4223842119970627 -7.9515685969473893 1.9862450225928743
v -4.159680627599772 -9.4338203435596419 1.8954971349773628
v -4.4497260768200819 -8.6744714992186402 1.4261937398566706
v -3.9324503019525245 -9.2547356816466717 1.5930704597698795
v -4.5845628479105622 -9.252233375393196 2.0072373647026858
v -4.0828955685861947 -8.8608648601531836 1.3496449049100607
v -3.4436498366409927 -7.5592273958380867 0.73693497821458687
v -4.2029986809819952 -8.0285307909587793 1.0269804274348964
v -3.4428139547029257 -7.9728510824198775 0.80082220779268276
v -3.8366847761964151 -8.2162766372796963 0.95126747442635295
v -5.3182427843625479 -8.7177895526008626 2.3380285007813599
v -4.8489393892418562 -8.4277441033805545 1.5786796564403578
v -5.3947916193091583 -8.3509590443669772 2.151635139846817
v -4.9841698996124135 -9.0052626352973135 2.1598736763086563
v -5.1513660644493395 -8.2005137777333061 1.7577643183533282
v -4.7371991595165328 -8.8526263236913429 1.7602666246068051
v -3.438037660658257 -5.8591750738179966 1.105211992410176
v -4.195277722274362 -6.1873842975653712 1.1682655761328298
v -3.6835051211666077 -5.5987450225928743 1.3220523122221559
v -3.4394026382754124 -6.2378136195402636 0.92708619816596194
v -5.3959656514791323 -7.0692411196700897 1.8530739373789584
v -4.864911972034661 -6.6012410239482717 1.4240430995102282
v -5.4223842119970627 -6.6734314030526107 1.9862450225928743
v -5.1782817291058674 -7.3125 1.5912789085366805
v -4.159680627599772 -5.1911796564403581 1.8954971349773628
v -4.4497260768200819 -5.9505285007813598 1.4261937398566706
v -3.9324503019525245 -5.3702643183533283 1.5930704597698795
v -4.5845628479105622 -5.3727666246068049 2.0072373647026858
v -4.0828955685861947 -5.7641351398468164 1.3496449049100607
v -3.4436498366409927 -7.0657726041619133 0.73693497821458687
v -4.2029986809819952 -6.5964692090412207 1.0269804274348964
v -3.4428139547029257 -6.6521489175801225 0.80082220779268276
v -3.843650627622921 -7.3125 0.80841620959713234
v -3.8366847761964151 -6.4087233627203037 0.95126747442635295
v -5.3182427843625479 -5.9072104473991365 2.3380285007813599
v -4.8489393892418562 -6.1972558966194464 1.5786796564403578
v -5.3947916193091583 -6.2740409556330237 2.151635139846817
v -4.9841698996124135 -5.6197373647026856 2.1598736763086563
v -5.1513660644493395 -6.4244862222666939 1.7577643183533282
v -4.7371991595165328 -5.7723736763086562 1.7602666246068051
v -4.6022119934037686 -7.7818033951206926 1.179466344018584
v -4.6022119934037686 -6.8431966048793074 1.179466344018584
v -4.9051552720595595 -7.5559255548598188 1.3593868878696203
v -4.2432576793247723 -7.5594707400958807 0.96105252120310292
v -4.9051552720595595 -7.0690744451401812 1.3593868878696203
v -4.2432576793247723 -7.0655292599041193 0.96105252120310292
v -4.8913625868402599 -4.9609708727400861 3.9432588803299109
v -5.3203934247089908 -5.4920245521845574 4.4112589760517285
v -4.7581915016263441 -4.9345523122221557 4.3390685969473894
v -5.1531576156825381 -5.178654795113351 3.7000000000000002
v -5.6392245318090426 -6.9188988635609618 5.1533249261820036
v -5.5761709480863892 -6.1616588019448564 4.825115702434629
v -4.4064080234378586 -5.0386937398566705 5.1052895526008637
v -5.1657568677788603 -5.5079971349773631 4.8152441033805538
v -4.5928013843724012 -4.9621449049100601 4.7384590443669765
v -4.9866722058658901 -5.2055704597698789 4.5880137777333063
v -5.5649701802006346 -5.7547245308154498 3.2306966048793075
v -5.5649701802006346 -5.7547245308154498 4.1693033951206928
v -5.3850496363495983 -5.4517812521596589 3.4565744451401814
v -5.3850496363495983 -5.4517812521596589 3.9434255548598189
v -4.8913625868402599 -9.6640291272599139 3.9432588803299109
v -5.3203934247089908 -9.1329754478154435 4.4112589760517285
v -4.7581915016263441 -9.6904476877778443 4.3390685969473894
v -5.1531576156825381 -9.446345204886649 3.7000000000000002
v -5.6392245318090426 -7.7061011364390382 5.1533249261820036
v -5.5761709480863892 -8.4633411980551436 4.825115702434629
v -4.4064080234378586 -9.5863062601433295 5.1052895526008637
v -5.1657568677788603 -9.1170028650226378 4.8152441033805538
v -4.5928013843724012 -9.6628550950899399 4.7384590443669765
v -4.9866722058658901 -9.4194295402301211 4.5880137777333063
v -5.5649701802006346 -8.8702754691845502 3.2306966048793075
v -5.5649701802006346 -8.8702754691845502 4.1693033951206928
v -5.3850496363495983 -9.1732187478403411 3.4565744451401814
v -5.3850496363495983 -9.1732187478403411 3.9434255548598189
v -3.438037660658257 -8.7658249261820043 6.2947880075898244
v -4.195277722274362 -8.4376157024346288 6.2317344238671701
v -3.6835051211666077 -9.0262549774071257 6.0779476877778444
v -3.4394026382754124 -8.3871863804597364 6.4729138018340384
v -5.3959656514791323 -7.5557588803299103 5.5469260626210417
v -4.864911972034661 -8.0237589760517274 5.9759569004897717
v -5.4223842119970627 -7.9515685969473893 5.4137549774071259
v -4.159680627599772 -9.4338203435596419 5.5045028650226371
v -4.4497260768200819 -8.6744714992186402 5.9738062601433297
v -3.9324503019525245 -9.2547356816466717 5.8069295402301204
v -4.5845628479105622 -9.252233375393196 5.3927626352973146
v -4.0828955685861947 -8.8608648601531836 6.0503550950899392
v -3.4436498366409927 -7.5592273958380867 6.6630650217854139
v -4.2029986809819952 -8.0285307909587793 6.373019572565104
v -3.4428139547029257 -7.9728510824198775 6.5991777922073176
v -3.8366847761964151 -8.2162766372796963 6.4487325255736474
v -5.3182427843625479 -8.7177895526008626 5.0619714992186404
v -4.8489393892418562 -8.4277441033805545 5.821320343559643
v -5.3947916193091583 -8.3509590443669772 5.2483648601531829
v -4.9841698996124135 -9.0052626352973135 5.240126323691344
v -5.1513660644493395 -8.2005137777333061 5.6422356816466719
v -4.7371991595165328 -8.8526263236913429 5.6397333753931953
v -3.438037660658257 -5.8591750738179966 6.2947880075898244
v -4.195277722274362 -6.1873842975653712 6.2317344238671701
v -3.6835051211666077 -5.5987450225928743 6.0779476877778444
v -3.4394026382754124 -6.2378136195402636 6.4729138018340384
v -5.3959656514791323 -7.0692411196700897 5.5469260626210417
v -4.864911972034661 -6.6012410239482717 5.9759569004897717
v -5.4223842119970627 -6.6734314030526107 5.4137549774071259
v -5.1782817291058674 -7.3125 5.8087210914633198
v -4.159680627599772 -5.1911796564403581 5.5045028650226371
v -4.4497260768200819 -5.9505285007813598 5.9738062601433297
v -3.9324503019525245 -5.3702643183533283 5.8069295402301204
v -4.5845628479105622 -5.3727666246068049 5.3927626352973146
v -4.0828955685861947 -5.7641351398468164 6.0503550950899392
v -3.4436498366409927 -7.0657726041619133 6.6630650217854139
v -4.2029986809819952 -6.5964692090412207 6.373019572565104
v -3.4428139547029257 -6.6521489175801225 6.5991777922073176
v -3.843650627622921 -7.3125 6.5915837904028685
v -3.8366847761964151 -6.4087233627203037 6.4487325255736474
v -5.3182427843625479 -5.9072104473991365 5.0619714992186404
v -4.8489393892418562 -6.1972558966194464 5.821320343559643
v -5.3947916193091583 -6.2740409556330237 5.2483648601531829
v -4.9841698996124135 -5.6197373647026856 5.240126323691344
v -5.1513660644493395 -6.4244862222666939 5.6422356816466719
v -4.7371991595165328 -5.7723736763086562 5.6397333753931953
v -4.6022119934037686 -7.7818033951206926 6.2205336559814164
v -4.6022119934037686 -6.8431966048793074 6.2205336559814164
v -4.9051552720595595 -7.5559255548598188 6.0406131121303801
v -4.2432576793247723 -7.5594707400958807 6.4389474787968979
v -4.9051552720595595 -7.0690744451401812 6.0406131121303801
v -4.2432576793247723 -7.0655292599041193 6.4389474787968979
v -5.7895667879181705 -7.3125 2.4899339541479071
v -6.0157531700898037 -7.3125 3.2861432736170988
v -5.8173503260532566 -6.917533885943806 2.6253136195402633
v -5.8173503260532566 -7.707466114056194 2.6253136195402633
v -5.7895667879181705 -7.3125 4.9100660458520933
v -6.0157531700898037 -7.3125 4.1138567263829016
v -5.8173503260532566 -6.917533885943806 4.7746863804597375
v -5.8173503260532566 -7.707466114056194 4.7746863804597375
v -5.7174560967843222 -6.1539378432372231 2.9839692090412209
v -6.0075015460046313 -6.9132866875782257 3.4532726041619131
v -5.7931690497928656 -6.5202517480228028 2.7962233627203039
v -5.7833840030161152 -6.1136788448944461 3.4530292599041195
v -5.9436143164265358 -6.9141225695162927 3.0396489175801227
v -5.7174560967843222 -8.4710621567627769 2.9839692090412209
v -6.0075015460046313 -7.7117133124217743 3.4532726041619131
v -5.7931690497928656 -8.1047482519771972 2.7962233627203039
v -5.7833840030161152 -8.5113211551055539 3.4530292599041195
v -5.9436143164265358 -7.7108774304837073 3.0396489175801227
v -5.7174560967843222 -6.1539378432372231 4.4160307909587795
v -6.0075015460046313 -6.9132866875782257 3.9467273958380873
v -5.7931690497928656 -6.5202517480228028 4.6037766372796964
v -5.7833840030161152 -6.1136788448944461 3.9469707400958809
v -5.9436143164265358 -6.9141225695162927 4.3603510824198777
v -5.9360203146220858 -6.5132858965962974 3.7000000000000002
v -5.7174560967843222 -8.4710621567627769 4.4160307909587795
v -6.0075015460046313 -7.7117133124217743 3.9467273958380873
v -5.7931690497928656 -8.1047482519771972 4.6037766372796964
v -5.7833840030161152 -8.5113211551055539 3.9469707400958809
v -5.9436143164265358 -7.7108774304837073 4.3603510824198777
v -5.9360203146220858 -8.1117141034037026 3.7000000000000002
f 40 139 133
f 243 255 253
f 135 139 40
f 31 107 105
f 105 106 31
f 268 291 13
f 69 255 243
f 243 251 69
f 522 524 515
f 376 522 515
f 645 648 421
f 52 182 170
f 173 195 192
f 53 195 173
f 168 173 18
f 173 192 18
f 184 187 177
f 192 195 58
f 195 197 58
f 186 195 53
f 186 197 195
f 324 337 335
f 84 320 309
f 309 325 84
f 87 337 324
f 323 325 87
f 311 325 323
f 311 323 52
f 170 311 52
f 84 325 311
f 170 182 180
f 55 205 180
f 180 182 55
f 130 183 14
f 133 139 137
f 133 137 14
f 14 137 130
f 137 138 130
f 41 138 137
f 137 139 41
f 130 185 183
f 98 106 105
f 389 660 648
f 659 670 362
f 412 603 600
f 292 303 24
f 249 251 243
f 243 253 22
f 22 272 249
f 22 249 243
f 13 291 125
f 98 105 11
f 71 266 248
f 71 251 249
f 492 527 525
f 492 525 353
f 383 527 492
f 516 528 527
f 491 516 383
f 516 527 383
f 394 562 551
f 527 528 394
f 394 551 525
f 525 527 394
f 391 524 514
f 514 528 391
f 515 524 391
f 391 528 516
f 526 528 514
f 394 528 526
f 526 562 394
f 356 526 514
f 375 465 463
f 506 511 375
f 463 506 375
f 377 473 468
f 5 176 129
f 154 176 5
f 376 515 466
f 421 647 645
f 362 670 650
f 384 538 493
f 143 145 43
f 43 208 200
f 43 200 143
f 493 535 343
f 493 538 535
f 52 194 182
f 58 194 192
f 321 323 87
f 87 324 321
f 222 225 64
f 189 225 222
f 57 225 189
f 57 190 188
f 58 197 193
f 193 197 184
f 72 255 254
f 324 335 72
f 253 255 72
f 72 335 253
f 16 188 155
f 188 190 155
f 322 325 309
f 322 337 87
f 87 325 322
f 25 322 309
f 84 311 308
f 308 311 170
f 208 210 200
f 59 210 199
f 200 210 59
f 474 475 378
f 351 474 469
f 172 186 53
f 183 186 172
f 14 183 172
f 39 185 130
f 130 138 39
f 39 138 131
f 39 131 129
f 56 197 186
f 185 187 56
f 184 197 56
f 56 187 184
f 56 186 183
f 183 185 56
f 410 608 594
f 594 604 410
f 269 305 76
f 459 593 340
f 29 106 98
f 99 106 29
f 266 277 75
f 75 277 264
f 462 628 350
f 91 146 9
f 601 604 594
f 412 604 601
f 594 608 606
f 606 642 639
f 418 631 628
f 582 592 591
f 409 672 661
f 591 592 409
f 519 533 531
f 519 531 389
f 589 661 658
f 505 591 589
f 409 661 589
f 589 591 409
f 355 510 505
f 505 589 355
f 589 658 355
f 426 672 669
f 669 671 426
f 658 661 424
f 424 660 658
f 672 674 661
f 659 674 670
f 670 674 426
f 426 674 672
f 661 674 424
f 424 674 659
f 603 612 408
f 590 592 580
f 409 592 590
f 590 672 409
f 669 672 590
f 359 590 580
f 359 669 590
f 580 588 586
f 586 588 408
f 408 612 586
f 580 586 359
f 580 592 406
f 406 582 579
f 406 592 582
f 406 588 580
f 579 581 406
f 581 588 406
f 410 595 593
f 410 604 595
f 435 600 348
f 463 465 429
f 468 470 377
f 24 303 283
f 283 306 79
f 303 306 283
f 79 300 283
f 247 272 22
f 279 292 24
f 279 295 292
f 292 307 303
f 454 457 370
f 299 301 82
f 296 299 82
f 12 234 109
f 12 286 234
f 108 230 228
f 17 216 164
f 164 166 159
f 17 164 159
f 314 328 66
f 232 314 66
f 309 317 25
f 309 320 317
f 314 330 328
f 86 320 318
f 317 320 86
f 86 331 317
f 86 318 316
f 159 240 238
f 238 316 17
f 159 238 17
f 168 175 173
f 173 175 53
f 518 533 392
f 392 533 519
f 353 548 494
f 525 548 353
f 525 551 548
f 391 516 513
f 342 513 491
f 513 516 491
f 513 515 391
f 466 513 342
f 466 515 513
f 375 471 465
f 377 471 469
f 465 471 470
f 470 471 377
f 510 512 505
f 390 512 510
f 506 512 511
f 511 512 390
f 351 469 464
f 469 471 464
f 464 471 375
f 375 511 464
f 467 522 376
f 467 474 351
f 376 475 467
f 467 475 474
f 177 187 54
f 178 187 185
f 176 178 129
f 129 178 39
f 178 185 39
f 54 187 178
f 54 178 176
f 472 475 376
f 466 472 376
f 362 654 646
f 646 659 362
f 654 668 423
f 421 657 647
f 646 657 421
f 654 657 646
f 423 657 654
f 655 657 423
f 647 657 655
f 652 671 407
f 553 555 499
f 157 211 16
f 16 211 188
f 144 208 43
f 540 554 357
f 549 560 357
f 357 560 540
f 536 549 357
f 357 544 536
f 357 554 544
f 488 490 382
f 544 547 536
f 398 547 544
f 535 538 396
f 536 547 396
f 52 323 171
f 171 323 321
f 171 321 18
f 18 192 171
f 192 194 171
f 171 194 52
f 18 252 168
f 18 321 252
f 321 324 252
f 252 254 168
f 252 324 72
f 72 254 252
f 222 224 181
f 181 224 55
f 55 224 205
f 64 224 222
f 177 189 19
f 189 222 19
f 19 222 181
f 19 184 177
f 19 193 184
f 181 193 19
f 199 210 207
f 224 226 205
f 64 226 224
f 55 196 181
f 181 196 193
f 182 196 55
f 193 196 58
f 194 196 182
f 58 196 194
f 155 190 46
f 216 218 63
f 204 220 218
f 218 220 63
f 198 200 59
f 143 198 6
f 143 200 198
f 6 198 156
f 156 201 47
f 59 201 198
f 198 201 156
f 378 476 474
f 474 476 469
f 469 476 377
f 377 476 473
f 460 607 373
f 605 607 460
f 628 631 605
f 350 605 460
f 350 628 605
f 459 596 593
f 607 608 596
f 593 596 410
f 596 608 410
f 373 596 459
f 373 607 596
f 631 642 413
f 413 608 607
f 606 608 413
f 413 642 606
f 605 631 413
f 413 607 605
f 76 271 269
f 73 271 259
f 268 270 76
f 259 270 36
f 259 271 270
f 270 271 76
f 123 268 13
f 123 270 268
f 36 270 123
f 258 267 73
f 264 267 75
f 269 271 257
f 257 271 73
f 257 267 264
f 73 267 257
f 256 258 73
f 73 259 256
f 122 259 36
f 256 259 122
f 3 256 122
f 97 99 29
f 29 258 97
f 97 258 256
f 97 256 3
f 263 266 75
f 248 266 263
f 248 263 11
f 11 263 98
f 482 487 381
f 487 490 381
f 382 489 488
f 488 489 481
f 145 152 43
f 43 152 144
f 603 614 612
f 412 614 603
f 601 614 412
f 417 638 624
f 624 627 417
f 417 627 625
f 417 625 623
f 639 642 420
f 634 638 419
f 624 638 634
f 624 634 361
f 361 634 620
f 628 630 418
f 374 630 462
f 462 630 628
f 630 632 418
f 509 511 390
f 464 511 509
f 464 509 351
f 520 522 467
f 351 520 467
f 509 520 351
f 393 524 522
f 393 522 520
f 510 532 390
f 504 506 463
f 579 582 504
f 517 542 392
f 392 519 517
f 389 648 507
f 507 519 389
f 507 648 645
f 517 519 507
f 355 658 508
f 508 660 389
f 658 660 508
f 389 531 508
f 586 609 359
f 586 612 609
f 659 662 424
f 648 662 421
f 660 662 648
f 424 662 660
f 421 662 646
f 646 662 659
f 587 588 581
f 408 588 587
f 340 593 434
f 593 595 434
f 434 595 366
f 366 440 434
f 600 602 412
f 602 604 412
f 595 604 602
f 595 602 366
f 366 602 435
f 435 602 600
f 348 442 435
f 437 442 348
f 367 439 438
f 437 439 367
f 436 441 367
f 367 438 436
f 438 439 433
f 364 433 429
f 364 438 433
f 429 465 364
f 465 470 364
f 285 306 304
f 79 306 285
f 273 276 261
f 77 276 273
f 273 277 77
f 264 277 273
f 74 304 261
f 285 304 74
f 260 285 74
f 261 276 74
f 74 276 262
f 74 262 260
f 261 304 302
f 302 305 269
f 283 300 297
f 82 301 297
f 297 300 82
f 283 297 24
f 77 275 272
f 77 277 275
f 275 277 266
f 272 275 249
f 71 275 266
f 249 275 71
f 247 274 272
f 272 274 77
f 262 276 274
f 274 276 77
f 335 337 89
f 291 293 125
f 293 295 281
f 281 295 78
f 78 295 279
f 292 295 81
f 81 307 292
f 81 295 293
f 81 293 291
f 268 294 291
f 305 307 294
f 76 294 268
f 76 305 294
f 291 294 81
f 294 307 81
f 83 307 305
f 304 306 83
f 302 304 83
f 83 305 302
f 83 306 303
f 303 307 83
f 346 482 428
f 428 450 346
f 370 457 449
f 449 625 370
f 623 625 449
f 119 121 35
f 35 120 119
f 289 299 67
f 234 289 67
f 289 301 299
f 286 289 234
f 235 299 296
f 67 299 235
f 235 296 21
f 229 235 21
f 238 319 316
f 316 319 86
f 319 331 86
f 32 118 109
f 32 230 108
f 91 116 26
f 67 236 234
f 32 236 230
f 234 236 109
f 109 236 32
f 50 166 164
f 216 219 164
f 219 221 209
f 63 221 219
f 63 219 216
f 164 219 50
f 50 219 209
f 209 221 61
f 61 210 208
f 61 221 207
f 207 210 61
f 232 282 8
f 79 285 282
f 8 282 260
f 282 285 260
f 66 284 232
f 232 284 282
f 284 300 79
f 282 284 79
f 328 330 88
f 327 330 313
f 317 331 327
f 327 331 88
f 88 330 327
f 25 327 313
f 317 327 25
f 132 135 40
f 10 132 93
f 93 102 100
f 93 100 10
f 133 136 40
f 250 251 71
f 248 250 71
f 105 107 101
f 11 105 101
f 30 107 103
f 102 104 30
f 30 103 100
f 100 102 30
f 30 104 101
f 101 107 30
f 127 133 14
f 127 136 133
f 38 136 127
f 14 172 127
f 38 169 126
f 168 254 51
f 51 175 168
f 169 175 51
f 401 562 559
f 559 562 526
f 518 559 356
f 356 559 526
f 401 563 560
f 560 563 540
f 494 550 384
f 548 550 494
f 384 550 538
f 176 179 54
f 154 179 176
f 46 179 154
f 46 190 179
f 177 191 189
f 54 191 177
f 179 191 54
f 189 191 57
f 57 191 190
f 190 191 179
f 653 655 423
f 499 655 653
f 664 668 654
f 362 664 654
f 650 664 362
f 645 647 498
f 540 557 554
f 670 673 650
f 426 673 670
f 671 673 426
f 652 673 671
f 419 637 634
f 634 637 620
f 623 626 417
f 626 638 417
f 573 574 404
f 354 553 499
f 354 653 575
f 499 653 354
f 211 214 188
f 214 225 57
f 188 214 57
f 62 214 211
f 206 208 144
f 61 208 206
f 206 209 61
f 562 564 551
f 549 564 560
f 401 564 562
f 560 564 401
f 400 555 553
f 553 556 400
f 400 557 555
f 554 557 400
f 545 547 398
f 207 221 217
f 217 220 203
f 217 221 63
f 63 220 217
f 203 220 60
f 60 226 203
f 60 220 204
f 205 226 60
f 20 212 199
f 199 207 20
f 207 217 20
f 20 217 203
f 223 226 64
f 203 226 223
f 203 223 20
f 20 223 212
f 316 318 162
f 162 218 216
f 17 316 162
f 162 216 17
f 318 320 310
f 161 310 308
f 310 320 84
f 308 310 84
f 170 180 7
f 7 308 170
f 161 308 7
f 201 213 47
f 47 213 157
f 157 213 211
f 211 213 62
f 62 215 212
f 213 215 62
f 201 215 213
f 59 215 201
f 199 215 59
f 212 215 199
f 98 265 29
f 263 265 98
f 29 265 258
f 75 265 263
f 265 267 258
f 75 267 265
f 26 148 91
f 91 148 146
f 147 150 141
f 483 490 488
f 381 490 483
f 482 484 428
f 381 484 482
f 45 153 151
f 151 152 45
f 144 152 151
f 151 153 147
f 612 614 414
f 609 612 414
f 610 614 601
f 598 613 610
f 610 613 414
f 414 614 610
f 616 624 361
f 616 627 624
f 415 627 616
f 616 632 415
f 640 643 420
f 620 643 640
f 620 640 361
f 521 524 393
f 514 521 356
f 514 524 521
f 531 533 395
f 390 523 509
f 390 532 523
f 509 523 520
f 520 523 393
f 505 512 388
f 388 591 505
f 388 512 506
f 388 506 504
f 582 591 388
f 504 582 388
f 339 463 429
f 339 504 463
f 339 579 504
f 508 531 529
f 529 531 395
f 395 532 529
f 529 532 510
f 355 529 510
f 508 529 355
f 407 611 599
f 414 611 609
f 611 613 599
f 414 613 611
f 359 609 584
f 584 669 359
f 584 611 407
f 609 611 584
f 407 671 584
f 584 671 669
f 600 603 585
f 348 600 585
f 585 603 408
f 408 587 585
f 435 443 366
f 442 443 435
f 366 443 440
f 368 443 442
f 365 587 581
f 433 439 365
f 430 470 468
f 364 470 430
f 430 468 347
f 347 436 430
f 436 438 430
f 430 438 364
f 257 264 23
f 23 273 261
f 264 273 23
f 23 269 257
f 261 302 23
f 23 302 269
f 24 287 279
f 24 297 287
f 297 301 287
f 89 337 333
f 333 337 322
f 313 333 25
f 25 333 322
f 332 335 89
f 253 335 332
f 253 332 22
f 22 332 247
f 125 293 37
f 37 281 124
f 37 293 281
f 278 281 78
f 124 278 4
f 124 281 278
f 4 278 111
f 115 121 119
f 109 118 115
f 109 115 12
f 115 119 12
f 229 237 235
f 235 237 67
f 67 237 236
f 236 237 230
f 66 328 233
f 21 296 233
f 329 331 319
f 88 331 329
f 34 118 116
f 34 121 115
f 115 118 34
f 90 110 108
f 116 118 110
f 108 110 32
f 110 118 32
f 26 116 110
f 26 110 90
f 140 160 42
f 141 150 42
f 231 240 48
f 48 166 160
f 159 166 48
f 48 240 159
f 228 231 158
f 158 160 140
f 158 231 48
f 48 160 158
f 82 300 298
f 298 300 284
f 82 298 296
f 66 298 284
f 296 298 233
f 233 298 66
f 96 104 102
f 92 126 2
f 92 128 126
f 126 128 38
f 128 136 38
f 95 250 248
f 101 104 95
f 95 248 11
f 11 101 95
f 53 174 172
f 53 175 174
f 174 175 169
f 38 174 169
f 172 174 127
f 127 174 38
f 167 242 2
f 167 169 51
f 126 169 167
f 126 167 2
f 392 561 518
f 518 561 559
f 542 561 392
f 559 561 401
f 542 563 561
f 561 563 401
f 550 552 538
f 538 552 396
f 536 552 549
f 396 552 536
f 656 668 666
f 653 656 575
f 656 666 405
f 575 656 405
f 423 668 656
f 423 656 653
f 666 668 425
f 425 668 664
f 647 655 386
f 498 647 386
f 386 655 499
f 499 555 386
f 539 542 517
f 650 673 422
f 422 673 652
f 403 651 569
f 416 643 620
f 620 637 416
f 622 643 416
f 404 626 571
f 571 573 404
f 571 626 623
f 405 577 575
f 405 578 577
f 15 206 144
f 15 147 141
f 15 151 147
f 144 151 15
f 400 558 554
f 556 558 400
f 554 558 544
f 546 558 556
f 544 558 398
f 398 558 546
f 537 547 545
f 396 537 535
f 396 547 537
f 214 227 225
f 223 227 212
f 212 227 62
f 62 227 214
f 225 227 64
f 64 227 223
f 162 318 49
f 49 318 310
f 49 310 161
f 49 218 162
f 204 218 49
f 161 204 49
f 60 204 202
f 202 204 161
f 7 202 161
f 202 205 60
f 180 205 202
f 180 202 7
f 90 142 26
f 142 148 26
f 140 142 90
f 142 150 148
f 42 142 140
f 42 150 142
f 44 149 146
f 146 148 44
f 44 153 149
f 148 150 44
f 147 153 44
f 44 150 147
f 352 488 481
f 483 488 352
f 448 454 370
f 617 627 415
f 615 617 415
f 625 627 617
f 448 617 615
f 370 625 617
f 370 617 448
f 618 632 630
f 615 618 461
f 461 618 374
f 618 630 374
f 415 632 618
f 415 618 615
f 360 601 594
f 598 610 360
f 360 610 601
f 606 639 360
f 594 606 360
f 360 639 598
f 639 641 598
f 420 641 639
f 420 643 641
f 641 643 622
f 418 632 629
f 629 632 616
f 361 629 616
f 361 640 629
f 356 530 518
f 521 530 356
f 530 533 518
f 395 533 530
f 429 433 431
f 429 431 339
f 431 433 365
f 365 581 431
f 431 581 579
f 431 579 339
f 437 444 442
f 367 444 437
f 441 444 367
f 442 444 368
f 348 585 432
f 432 437 348
f 585 587 432
f 432 587 365
f 432 439 437
f 365 439 432
f 8 312 232
f 312 314 232
f 313 336 333
f 333 336 89
f 260 262 246
f 8 260 246
f 246 312 8
f 246 315 312
f 89 334 332
f 89 336 334
f 334 336 315
f 332 334 247
f 33 120 113
f 33 113 111
f 279 290 78
f 287 290 279
f 65 237 229
f 65 231 228
f 228 230 65
f 230 237 65
f 231 241 240
f 229 241 65
f 65 241 231
f 233 326 21
f 233 328 326
f 326 328 88
f 88 329 326
f 34 116 114
f 114 116 91
f 9 114 91
f 42 165 141
f 160 165 42
f 165 166 50
f 160 166 165
f 90 108 1
f 108 228 1
f 1 140 90
f 1 158 140
f 1 228 158
f 244 251 250
f 69 251 244
f 69 244 242
f 27 128 92
f 27 102 93
f 96 102 27
f 92 96 27
f 254 255 245
f 167 245 242
f 245 255 69
f 242 245 69
f 51 254 245
f 51 245 167
f 551 564 399
f 399 552 550
f 548 551 399
f 399 550 548
f 399 564 549
f 549 552 399
f 663 666 425
f 397 563 542
f 397 542 539
f 540 563 397
f 397 557 540
f 344 517 507
f 507 645 344
f 344 645 498
f 498 539 344
f 344 539 517
f 498 541 539
f 555 557 541
f 386 555 541
f 386 541 498
f 541 557 397
f 539 541 397
f 633 635 419
f 635 637 419
f 570 633 358
f 358 663 570
f 403 635 570
f 570 635 633
f 419 638 636
f 419 636 633
f 636 638 626
f 404 636 626
f 566 578 576
f 405 666 576
f 576 578 405
f 576 666 663
f 566 576 358
f 576 663 358
f 650 667 664
f 422 667 650
f 651 667 422
f 664 667 425
f 422 652 649
f 649 651 422
f 569 651 649
f 597 622 619
f 619 622 416
f 456 458 451
f 449 457 456
f 372 458 456
f 456 457 372
f 371 458 455
f 371 455 450
f 451 458 371
f 446 573 571
f 354 575 496
f 575 577 496
f 543 545 398
f 398 546 543
f 481 545 543
f 543 546 500
f 481 543 352
f 352 543 500
f 380 489 486
f 537 545 380
f 481 489 380
f 380 545 481
f 428 484 363
f 567 574 573
f 352 500 478
f 478 483 352
f 483 485 381
f 381 485 484
f 478 485 483
f 379 485 478
f 448 615 341
f 341 615 461
f 598 641 411
f 411 613 598
f 411 622 597
f 411 641 622
f 597 599 411
f 599 613 411
f 418 644 631
f 629 644 418
f 631 644 642
f 640 644 629
f 642 644 420
f 420 644 640
f 532 534 523
f 521 534 530
f 393 534 521
f 523 534 393
f 395 534 532
f 530 534 395
f 85 330 314
f 85 314 312
f 313 330 85
f 85 336 313
f 312 315 85
f 315 336 85
f 262 274 70
f 246 262 70
f 70 274 247
f 247 334 70
f 70 315 246
f 70 334 315
f 112 288 286
f 33 288 112
f 112 286 12
f 12 119 112
f 119 120 112
f 112 120 33
f 78 280 278
f 78 290 280
f 278 280 111
f 280 290 288
f 111 280 33
f 280 288 33
f 287 301 80
f 80 290 287
f 288 290 80
f 80 301 289
f 80 289 286
f 286 288 80
f 68 329 319
f 240 241 68
f 238 240 68
f 68 319 238
f 21 239 229
f 21 326 239
f 326 329 239
f 239 241 229
f 239 329 68
f 68 241 239
f 114 117 34
f 117 121 34
f 141 165 163
f 163 209 206
f 50 209 163
f 163 165 50
f 141 163 15
f 163 206 15
f 28 104 96
f 244 250 28
f 95 104 28
f 28 250 95
f 132 134 93
f 93 134 27
f 27 134 128
f 40 134 132
f 40 136 134
f 134 136 128
f 403 665 651
f 570 665 403
f 663 665 570
f 425 665 663
f 665 667 651
f 425 667 665
f 633 636 572
f 358 633 572
f 358 572 566
f 572 574 566
f 404 574 572
f 572 636 404
f 583 599 597
f 649 652 583
f 583 652 407
f 407 599 583
f 619 621 569
f 621 637 635
f 569 621 403
f 621 635 403
f 416 637 621
f 416 621 619
f 450 452 371
f 447 452 363
f 428 452 450
f 363 452 428
f 371 453 451
f 451 453 446
f 447 453 452
f 452 453 371
f 349 623 449
f 571 623 349
f 446 571 349
f 349 456 451
f 449 456 349
f 349 451 446
f 501 556 553
f 501 553 354
f 496 501 354
f 496 503 501
f 380 486 480
f 480 537 380
f 343 535 480
f 535 537 480
f 427 447 363
f 28 96 94
f 94 96 92
f 2 94 92
f 94 244 28
f 2 242 94
f 242 244 94
f 597 619 345
f 569 649 345
f 345 619 569
f 345 649 583
f 583 597 345
f 369 573 446
f 446 453 369
f 567 573 369
f 369 453 447
f 500 502 478
f 478 502 379
f 496 577 385
f 385 503 496
f 479 485 379
f 484 485 479
f 363 484 479
f 363 479 427
f 500 546 387
f 387 502 500
f 546 556 387
f 387 503 502
f 387 556 501
f 501 503 387
f 477 479 379
f 427 479 477
f 402 567 565
f 402 574 567
f 566 574 402
f 402 578 566
f 577 578 568
f 495 568 565
f 385 577 568
f 385 568 495
f 568 578 402
f 565 568 402
f 445 447 427
f 565 567 445
f 369 447 445
f 445 567 369
f 502 503 497
f 477 497 495
f 497 503 385
f 495 497 385
f 379 502 497
f 379 497 477
f 495 565 338
f 427 477 338
f 477 495 338
f 338 565 445
f 338 445 427
f 157 353 494
f 16 353 157
f 384 157 494
f 47 157 384
f 493 156 47
f 493 47 384
f 138 41 475
f 378 475 41
f 350 125 462
f 13 125 350
f 491 154 5
f 491 5 342
f 129 466 342
f 129 342 5
f 343 6 156
f 343 156 493
f 16 155 353
f 492 353 155
f 482 146 487
f 149 487 146
f 153 490 487
f 153 487 149
f 382 490 153
f 382 153 45
f 454 113 120
f 454 120 457
f 372 35 121
f 372 121 458
f 372 457 120
f 372 120 35
f 131 138 475
f 131 475 472
f 131 472 466
f 131 466 129
f 383 46 154
f 383 154 491
f 383 492 155
f 383 155 46
f 139 476 378
f 139 378 41
f 473 476 139
f 473 139 135
f 123 13 350
f 460 123 350
f 373 123 460
f 36 123 373
f 459 340 3
f 459 3 122
f 122 36 373
f 459 122 373
f 489 152 145
f 489 145 486
f 489 382 45
f 489 45 152
f 97 3 340
f 97 340 434
f 97 434 440
f 97 440 99
f 346 146 482
f 9 146 346
f 135 132 473
f 468 473 132
f 132 10 347
f 468 132 347
f 436 100 441
f 103 441 100
f 10 100 347
f 436 347 100
f 368 31 106
f 368 106 443
f 440 443 106
f 440 106 99
f 374 37 461
f 124 461 37
f 374 462 125
f 374 125 37
f 111 113 454
f 111 454 448
f 107 444 441
f 107 441 103
f 107 31 368
f 107 368 444
f 114 346 450
f 9 346 114
f 341 111 448
f 4 111 341
f 124 341 461
f 4 341 124
f 455 117 114
f 455 114 450
f 121 117 455
f 121 455 458
f 486 145 143
f 486 143 480
f 343 480 143
f 343 143 6
