v -2 -2 -0.099999999999999978
v -2 -1.8999999999999999 -0.10999999999999999
v -2 -1.8 -0.11999999999999997
v -2 -1.7 -0.12999999999999998
v -2 -1.6000000000000001 -0.13999999999999996
v -2 -1.5 -0.14999999999999997
v -2 -1.3999999999999999 -0.16
v -2 -1.2999999999999998 -0.17000000000000001
v -2 -1.1000000000000001 -0.18999999999999997
v -2 -0.79999999999999982 -0.22
v -2 -0.69999999999999996 -0.22999999999999998
v -2 -0.59999999999999987 -0.23999999999999999
v -2 -0.5 -0.25
v -2 -0.29999999999999982 -0.27000000000000002
v -2 -0.19999999999999996 -0.27999999999999997
v -2 -0.099999999999999867 -0.28999999999999998
v -2 0 -0.29999999999999999
v -2 0.40000000000000036 -0.34000000000000002
v -2 0.5 -0.34999999999999998
v -2 0.90000000000000036 -0.39000000000000001
v -2 1 -0.40000000000000002
v -2 1.4000000000000004 -0.44000000000000006
v -2 1.5 -0.45000000000000001
v -2 1.9000000000000004 -0.49000000000000005
v -2 2 -0.5
v -1.8999999999999999 -2 -0.084999999999999964
v -1.8999999999999999 -1.8999999999999999 -0.094999999999999973
v -1.8999999999999999 -1.8 -0.10499999999999995
v -1.8999999999999999 -1.7 -0.11499999999999996
v -1.8999999999999999 -1.6000000000000001 -0.12499999999999994
v -1.8999999999999999 -1.5 -0.13499999999999995
v -1.8999999999999999 -1.3999999999999999 -0.14499999999999999
v -1.8999999999999999 -1.2999999999999998 -0.155
v -1.8999999999999999 -1.1000000000000001 -0.17499999999999996
v -1.8999999999999999 -0.79999999999999982 -0.20499999999999999
v -1.8999999999999999 -0.69999999999999996 -0.21499999999999997
v -1.8999999999999999 -0.59999999999999987 -0.22499999999999998
v -1.8999999999999999 -0.5 -0.23499999999999999
v -1.8999999999999999 -0.29999999999999982 -0.255
v -1.8999999999999999 -0.19999999999999996 -0.26499999999999996
v -1.8999999999999999 -0.099999999999999867 -0.27499999999999997
v -1.8999999999999999 0 -0.28499999999999998
v -1.8999999999999999 0.40000000000000036 -0.32500000000000001
v -1.8999999999999999 0.5 -0.33499999999999996
v -1.8999999999999999 0.90000000000000036 -0.375
v -1.8999999999999999 1 -0.38500000000000001
v -1.8999999999999999 1.4000000000000004 -0.42500000000000004
v -1.8999999999999999 1.5 -0.435
v -1.8999999999999999 1.9000000000000004 -0.47500000000000003
v -1.8999999999999999 2 -0.48499999999999999
v -1.8 -2 -0.070000000000000007
v -1.8 -1.8999999999999999 -0.080000000000000016
v -1.8 -1.8 -0.089999999999999997
v -1.8 -1.7 -0.10000000000000001
v -1.8 -1.6000000000000001 -0.10999999999999999
v -1.8 -1.5 -0.12
v -1.8 -1.3999999999999999 -0.13000000000000003
v -1.8 -1.2999999999999998 -0.14000000000000004
v -1.8 -1.1000000000000001 -0.16
v -1.8 -0.79999999999999982 -0.19000000000000003
v -1.8 -0.69999999999999996 -0.20000000000000001
v -1.8 -0.59999999999999987 -0.21000000000000002
v -1.8 -0.5 -0.22000000000000003
v -1.8 -0.29999999999999982 -0.24000000000000005
v -1.8 -0.19999999999999996 -0.25
v -1.8 -0.099999999999999867 -0.26000000000000001
v -1.8 0 -0.27000000000000002
v -1.8 0.40000000000000036 -0.31000000000000005
v -1.8 0.5 -0.32000000000000001
v -1.8 0.90000000000000036 -0.36000000000000004
v -1.8 1 -0.37
v -1.8 1.4000000000000004 -0.41000000000000003
v -1.8 1.5 -0.42000000000000004
v -1.8 1.9000000000000004 -0.46000000000000008
v -1.8 2 -0.47000000000000003
v -1.7 -2 -0.054999999999999993
v -1.7 -1.8999999999999999 -0.065000000000000002
v -1.7 -1.8 -0.074999999999999983
v -1.7 -1.7 -0.084999999999999992
v -1.7 -1.6000000000000001 -0.094999999999999973
v -1.7 -1.5 -0.10499999999999998
v -1.7 -1.3999999999999999 -0.11500000000000002
v -1.7 -1.2999999999999998 -0.12500000000000003
v -1.7 -1.1000000000000001 -0.14499999999999999
v -1.7 -0.79999999999999982 -0.17500000000000002
v -1.7 -0.69999999999999996 -0.185
v -1.7 -0.59999999999999987 -0.19500000000000001
v -1.7 -0.5 -0.20500000000000002
v -1.7 -0.29999999999999982 -0.22500000000000003
v -1.7 -0.19999999999999996 -0.23500000000000001
v -1.7 -0.099999999999999867 -0.24500000000000002
v -1.7 0 -0.255
v -1.7 0.40000000000000036 -0.29500000000000004
v -1.7 0.5 -0.30499999999999999
v -1.7 0.90000000000000036 -0.34500000000000003
v -1.7 1 -0.35499999999999998
v -1.7 1.4000000000000004 -0.39500000000000002
v -1.7 1.5 -0.40500000000000003
v -1.7 1.9000000000000004 -0.44500000000000006
v -1.7 2 -0.45500000000000002
v -1.6000000000000001 -2 -0.03999999999999998
v -1.6000000000000001 -1.8999999999999999 -0.049999999999999989
v -1.6000000000000001 -1.8 -0.05999999999999997
v -1.6000000000000001 -1.7 -0.069999999999999979
v -1.6000000000000001 -1.6000000000000001 -0.07999999999999996
v -1.6000000000000001 -1.5 -0.089999999999999969
v -1.6000000000000001 -1.3999999999999999 -0.10000000000000001
v -1.6000000000000001 -1.2999999999999998 -0.11000000000000001
v -1.6000000000000001 -1.1000000000000001 -0.12999999999999998
v -1.6000000000000001 -0.79999999999999982 -0.16
v -1.6000000000000001 -0.69999999999999996 -0.16999999999999998
v -1.6000000000000001 -0.59999999999999987 -0.17999999999999999
v -1.6000000000000001 -0.5 -0.19
v -1.6000000000000001 -0.29999999999999982 -0.21000000000000002
v -1.6000000000000001 -0.19999999999999996 -0.22
v -1.6000000000000001 -0.099999999999999867 -0.23000000000000001
v -1.6000000000000001 0 -0.23999999999999999
v -1.6000000000000001 0.40000000000000036 -0.28000000000000003
v -1.6000000000000001 0.5 -0.28999999999999998
v -1.6000000000000001 0.90000000000000036 -0.33000000000000002
v -1.6000000000000001 1 -0.33999999999999997
v -1.6000000000000001 1.4000000000000004 -0.38
v -1.6000000000000001 1.5 -0.39000000000000001
v -1.6000000000000001 1.9000000000000004 -0.43000000000000005
v -1.6000000000000001 2 -0.44
v -1.5 -2 -0.024999999999999967
v -1.5 -1.8999999999999999 -0.034999999999999976
v -1.5 -1.8 -0.044999999999999957
v -1.5 -1.7 -0.054999999999999966
v -1.5 -1.6000000000000001 -0.064999999999999947
v -1.5 -1.5 -0.074999999999999956
v -1.5 -1.3999999999999999 -0.084999999999999992
v -1.5 -1.2999999999999998 -0.095000000000000001
v -1.5 -1.1000000000000001 -0.11499999999999996
v -1.5 -0.79999999999999982 -0.14499999999999999
v -1.5 -0.69999999999999996 -0.15499999999999997
v -1.5 -0.59999999999999987 -0.16499999999999998
v -1.5 -0.29999999999999982 -0.19500000000000001
v -1.5 -0.19999999999999996 -0.20499999999999999
v -1.5 -0.099999999999999867 -0.215
v -1.5 0 -0.22499999999999998
v -1.5 0.30000000000000027 -0.255
v -1.5 0.40000000000000036 -0.26500000000000001
v -1.5 0.5 -0.27499999999999997
v -1.5 0.90000000000000036 -0.315
v -1.5 1 -0.32499999999999996
v -1.5 1.4000000000000004 -0.36499999999999999
v -1.5 1.9000000000000004 -0.41500000000000004
v -1.5 2 -0.42499999999999999
v -1.3999999999999999 -2 -0.0099999999999999811
v -1.3999999999999999 -1.8999999999999999 -0.01999999999999999
v -1.3999999999999999 -1.8 -0.029999999999999971
v -1.3999999999999999 -1.7 -0.03999999999999998
v -1.3999999999999999 -1.6000000000000001 -0.049999999999999961
v -1.3999999999999999 -1.5 -0.05999999999999997
v -1.3999999999999999 -1.3999999999999999 -0.070000000000000007
v -1.3999999999999999 -1.2999999999999998 -0.080000000000000016
v -1.3999999999999999 -0.79999999999999982 -0.13
v -1.3999999999999999 -0.69999999999999996 -0.14000000000000001
v -1.3999999999999999 -0.59999999999999987 -0.14999999999999999
v -1.3999999999999999 -0.5 -0.15999999999999998
v -1.3999999999999999 -0.19999999999999996 -0.19
v -1.3999999999999999 -0.099999999999999867 -0.20000000000000001
v -1.3999999999999999 0 -0.20999999999999999
v -1.3999999999999999 0.30000000000000027 -0.24000000000000002
v -1.3999999999999999 0.40000000000000036 -0.25
v -1.3999999999999999 0.5 -0.26000000000000001
v -1.3999999999999999 0.90000000000000036 -0.30000000000000004
v -1.3999999999999999 1 -0.31
v -1.3999999999999999 1.4000000000000004 -0.35000000000000003
v -1.3999999999999999 1.5 -0.35999999999999999
v -1.3999999999999999 2 -0.41000000000000003
v -1.2999999999999998 -2 0.0050000000000000322
v -1.2999999999999998 -1.8999999999999999 -0.0049999999999999767
v -1.2999999999999998 -1.8 -0.014999999999999958
v -1.2999999999999998 -1.7 -0.024999999999999967
v -1.2999999999999998 -1.6000000000000001 -0.034999999999999948
v -1.2999999999999998 -1.5 -0.044999999999999957
v -1.2999999999999998 -1.3999999999999999 -0.054999999999999993
v -1.2999999999999998 -0.69999999999999996 -0.12499999999999999
v -1.2999999999999998 -0.59999999999999987 -0.13499999999999998
v -1.2999999999999998 -0.5 -0.14499999999999996
v -1.2999999999999998 -0.29999999999999982 -0.16499999999999998
v -1.2999999999999998 -0.19999999999999996 -0.17499999999999999
v -1.2999999999999998 -0.099999999999999867 -0.185
v -1.2999999999999998 0 -0.19499999999999998
v -1.2999999999999998 0.40000000000000036 -0.23500000000000001
v -1.2999999999999998 0.5 -0.245
v -1.2999999999999998 0.90000000000000036 -0.28500000000000003
v -1.2999999999999998 1 -0.29499999999999998
v -1.2999999999999998 1.4000000000000004 -0.33500000000000002
v -1.2999999999999998 1.5 -0.34499999999999997
v -1.2999999999999998 1.9000000000000004 -0.38500000000000001
v -1.2999999999999998 2 -0.39500000000000002
v -1.2 -0.59999999999999987 -0.12
v -1.2 -0.5 -0.13
v -1.2 -0.29999999999999982 -0.15000000000000002
v -1.2 -0.19999999999999996 -0.16
v -1.2 0.40000000000000036 -0.22000000000000003
v -1.2 0.5 -0.22999999999999998
v -1.2 0.90000000000000036 -0.27000000000000002
v -1.2 1 -0.28000000000000003
v -1.2 1.4000000000000004 -0.32000000000000006
v -1.2 1.9000000000000004 -0.37000000000000005
v -1.2 2 -0.38
v -1.1000000000000001 -2 0.035000000000000003
v -1.1000000000000001 -1.8999999999999999 0.024999999999999994
v -1.1000000000000001 -1.8 0.015000000000000013
v -1.1000000000000001 -1.7 0.0050000000000000044
v -1.1000000000000001 -1.6000000000000001 -0.0049999999999999767
v -1.1000000000000001 -0.5 -0.115
v -1.1000000000000001 -0.39999999999999991 -0.125
v -1.1000000000000001 -0.29999999999999982 -0.13500000000000001
v -1.1000000000000001 -0.19999999999999996 -0.14500000000000002
v -1.1000000000000001 -0.099999999999999867 -0.15500000000000003
v -1.1000000000000001 0 -0.16500000000000001
v -1.1000000000000001 0.40000000000000036 -0.20500000000000004
v -1.1000000000000001 0.5 -0.21500000000000002
v -1.1000000000000001 0.90000000000000036 -0.25500000000000006
v -1.1000000000000001 1 -0.26500000000000001
v -1.1000000000000001 1.4000000000000004 -0.30500000000000005
v -1.1000000000000001 1.5 -0.31500000000000006
v -1.1000000000000001 1.9000000000000004 -0.35500000000000009
v -1.1000000000000001 2 -0.36499999999999999
v -1 -0.39999999999999991 -0.11
v -1 -0.29999999999999982 -0.12000000000000001
v -1 -0.19999999999999996 -0.13
v -0.79999999999999982 -2 0.080000000000000043
v -0.79999999999999982 -1.8999999999999999 0.070000000000000034
v -0.79999999999999982 -1.8 0.060000000000000053
v -0.79999999999999982 -1.7 0.050000000000000044
v -0.79999999999999982 -1.6000000000000001 0.040000000000000063
v -0.79999999999999982 -0.19999999999999996 -0.099999999999999978
v -0.79999999999999982 -0.099999999999999867 -0.10999999999999999
v -0.79999999999999982 0 -0.11999999999999997
v -0.79999999999999982 0.10000000000000009 -0.12999999999999998
v -0.79999999999999982 0.40000000000000036 -0.16
v -0.79999999999999982 0.5 -0.16999999999999998
v -0.79999999999999982 0.90000000000000036 -0.21000000000000002
v -0.79999999999999982 1 -0.21999999999999997
v -0.79999999999999982 1.4000000000000004 -0.26000000000000001
v -0.79999999999999982 1.5 -0.27000000000000002
v -0.79999999999999982 1.9000000000000004 -0.31000000000000005
v -0.79999999999999982 2 -0.31999999999999995
v -0.69999999999999996 -2 0.095000000000000015
v -0.69999999999999996 -1.8999999999999999 0.085000000000000006
v -0.69999999999999996 -1.8 0.075000000000000025
v -0.69999999999999996 -1.7 0.065000000000000016
v -0.69999999999999996 -1.6000000000000001 0.055000000000000035
v -0.69999999999999996 -1.5 0.045000000000000026
v -0.69999999999999996 -0.099999999999999867 -0.095000000000000001
v -0.69999999999999996 0 -0.105
v -0.69999999999999996 0.10000000000000009 -0.115
v -0.69999999999999996 0.20000000000000018 -0.125
v -0.69999999999999996 0.30000000000000027 -0.13500000000000001
v -0.69999999999999996 0.40000000000000036 -0.14500000000000002
v -0.69999999999999996 0.5 -0.155
v -0.69999999999999996 0.90000000000000036 -0.19500000000000003
v -0.69999999999999996 1 -0.20500000000000002
v -0.69999999999999996 1.4000000000000004 -0.24500000000000005
v -0.69999999999999996 1.5 -0.255
v -0.69999999999999996 1.9000000000000004 -0.29500000000000004
v -0.69999999999999996 2 -0.30499999999999999
v -0.59999999999999987 -2 0.11000000000000003
v -0.59999999999999987 -1.8999999999999999 0.10000000000000002
v -0.59999999999999987 -1.8 0.090000000000000038
v -0.59999999999999987 -1.7 0.080000000000000029
v -0.59999999999999987 -1.6000000000000001 0.070000000000000048
v -0.59999999999999987 -1.5 0.060000000000000039
v -0.59999999999999987 0 -0.089999999999999983
v -0.59999999999999987 0.20000000000000018 -0.11
v -0.59999999999999987 0.30000000000000027 -0.12000000000000001
v -0.59999999999999987 0.40000000000000036 -0.13
v -0.59999999999999987 0.5 -0.13999999999999999
v -0.59999999999999987 0.90000000000000036 -0.18000000000000002
v -0.59999999999999987 1 -0.19
v -0.59999999999999987 1.4000000000000004 -0.23000000000000004
v -0.59999999999999987 1.5 -0.23999999999999999
v -0.59999999999999987 1.9000000000000004 -0.28000000000000003
v -0.59999999999999987 2 -0.28999999999999998
v -0.5 -2 0.125
v -0.5 -1.8999999999999999 0.115
v -0.5 -1.8 0.10500000000000002
v -0.5 -1.7 0.095000000000000015
v -0.5 -1.6000000000000001 0.085000000000000034
v -0.5 -1.5 0.075000000000000025
v -0.5 -1.3999999999999999 0.064999999999999988
v -0.5 0.40000000000000036 -0.11500000000000003
v -0.5 0.5 -0.125
v -0.5 0.90000000000000036 -0.16500000000000004
v -0.5 1 -0.17499999999999999
v -0.5 1.4000000000000004 -0.21500000000000002
v -0.5 1.5 -0.22500000000000003
v -0.5 1.9000000000000004 -0.26500000000000007
v -0.5 2 -0.27500000000000002
v -0.39999999999999991 -1.8999999999999999 0.13
v -0.39999999999999991 -1.8 0.12000000000000004
v -0.39999999999999991 -1.7 0.11000000000000003
v -0.29999999999999982 -2 0.15500000000000003
v -0.29999999999999982 -1.8999999999999999 0.14500000000000002
v -0.29999999999999982 -1.8 0.13500000000000006
v -0.29999999999999982 -1.7 0.12500000000000006
v -0.29999999999999982 -1.6000000000000001 0.11500000000000006
v -0.29999999999999982 -1.5 0.10500000000000005
v -0.29999999999999982 -1.3999999999999999 0.095000000000000015
v -0.29999999999999982 -1.2999999999999998 0.085000000000000006
v -0.29999999999999982 0.30000000000000027 -0.074999999999999997
v -0.29999999999999982 0.40000000000000036 -0.085000000000000006
v -0.29999999999999982 0.5 -0.094999999999999973
v -0.29999999999999982 0.90000000000000036 -0.13500000000000001
v -0.29999999999999982 1 -0.14499999999999996
v -0.29999999999999982 1.4000000000000004 -0.185
v -0.29999999999999982 1.5 -0.19500000000000001
v -0.29999999999999982 1.9000000000000004 -0.23500000000000004
v -0.29999999999999982 2 -0.245
v -0.19999999999999996 -2 0.17000000000000001
v -0.19999999999999996 -1.8999999999999999 0.16
v -0.19999999999999996 -1.8 0.15000000000000002
v -0.19999999999999996 -1.7 0.14000000000000001
v -0.19999999999999996 -1.6000000000000001 0.13000000000000003
v -0.19999999999999996 -1.5 0.12000000000000002
v -0.19999999999999996 -1.3999999999999999 0.10999999999999999
v -0.19999999999999996 -1.2999999999999998 0.099999999999999978
v -0.19999999999999996 -1.1000000000000001 0.080000000000000016
v -0.19999999999999996 0.40000000000000036 -0.070000000000000034
v -0.19999999999999996 0.5 -0.079999999999999988
v -0.19999999999999996 0.90000000000000036 -0.12000000000000002
v -0.19999999999999996 1 -0.13
v -0.19999999999999996 1.4000000000000004 -0.17000000000000004
v -0.19999999999999996 1.5 -0.18000000000000002
v -0.19999999999999996 1.9000000000000004 -0.22000000000000006
v -0.19999999999999996 2 -0.23000000000000001
v -0.099999999999999867 -2 0.18500000000000003
v -0.099999999999999867 -1.8999999999999999 0.17500000000000002
v -0.099999999999999867 -1.8 0.16500000000000004
v -0.099999999999999867 -1.7 0.15500000000000003
v -0.099999999999999867 -1.6000000000000001 0.14500000000000005
v -0.099999999999999867 -1.5 0.13500000000000004
v -0.099999999999999867 -1.3999999999999999 0.125
v -0.099999999999999867 -1.2999999999999998 0.11499999999999999
v -0.099999999999999867 -1.1000000000000001 0.095000000000000029
v -0.099999999999999867 0.5 -0.064999999999999974
v -0.099999999999999867 0.90000000000000036 -0.10500000000000001
v -0.099999999999999867 1 -0.11499999999999999
v -0.099999999999999867 1.4000000000000004 -0.15500000000000003
v -0.099999999999999867 1.5 -0.16500000000000001
v -0.099999999999999867 1.9000000000000004 -0.20500000000000004
v -0.099999999999999867 2 -0.215
v 0 -2 0.20000000000000001
v 0 -1.8999999999999999 0.19
v 0 -1.8 0.18000000000000002
v 0 -1.7 0.17000000000000001
v 0 -1.6000000000000001 0.16000000000000003
v 0 -1.5 0.15000000000000002
v 0 -1.3999999999999999 0.13999999999999999
v 0 -1.2999999999999998 0.12999999999999998
v 0 -1.1000000000000001 0.11000000000000001
v 0 0.90000000000000036 -0.090000000000000038
v 0 1 -0.10000000000000001
v 0 1.4000000000000004 -0.14000000000000004
v 0 1.5 -0.15000000000000002
v 0 1.9000000000000004 -0.19000000000000006
v 0 2 -0.20000000000000001
v 0.30000000000000027 -0.79999999999999982 0.12500000000000003
v 0.30000000000000027 -0.69999999999999996 0.11500000000000003
v 0.40000000000000036 -2 0.26000000000000006
v 0.40000000000000036 -1.8999999999999999 0.25000000000000006
v 0.40000000000000036 -1.8 0.24000000000000007
v 0.40000000000000036 -1.7 0.23000000000000007
v 0.40000000000000036 -1.6000000000000001 0.22000000000000008
v 0.40000000000000036 -1.5 0.21000000000000008
v 0.40000000000000036 -1.3999999999999999 0.20000000000000004
v 0.40000000000000036 -1.2999999999999998 0.19000000000000003
v 0.40000000000000036 -1.2 0.18000000000000005
v 0.40000000000000036 -1.1000000000000001 0.17000000000000007
v 0.40000000000000036 -0.79999999999999982 0.14000000000000004
v 0.40000000000000036 -0.69999999999999996 0.13000000000000006
v 0.40000000000000036 -0.59999999999999987 0.12000000000000005
v 0.40000000000000036 -0.5 0.11000000000000006
v 0.40000000000000036 1 -0.039999999999999952
v 0.40000000000000036 1.4000000000000004 -0.079999999999999988
v 0.40000000000000036 1.5 -0.089999999999999969
v 0.40000000000000036 1.9000000000000004 -0.13
v 0.40000000000000036 2 -0.13999999999999996
v 0.5 -2 0.27500000000000002
v 0.5 -1.8999999999999999 0.26500000000000001
v 0.5 -1.8 0.255
v 0.5 -1.7 0.245
v 0.5 -1.6000000000000001 0.23500000000000004
v 0.5 -1.5 0.22500000000000003
v 0.5 -1.3999999999999999 0.21499999999999997
v 0.5 -1.2999999999999998 0.20499999999999996
v 0.5 -1.2 0.19500000000000001
v 0.5 -1.1000000000000001 0.185
v 0.5 -0.79999999999999982 0.15499999999999997
v 0.5 -0.69999999999999996 0.14499999999999999
v 0.5 -0.59999999999999987 0.13499999999999998
v 0.5 -0.5 0.125
v 0.5 1.4000000000000004 -0.065000000000000044
v 0.5 1.5 -0.075000000000000025
v 0.5 1.9000000000000004 -0.11500000000000006
v 0.5 2 -0.125
v 0.60000000000000009 2 -0.11
v 0.80000000000000027 -1.7 0.29000000000000004
v 0.80000000000000027 -1.6000000000000001 0.28000000000000008
v 0.80000000000000027 -1.5 0.27000000000000007
v 0.80000000000000027 -1.2999999999999998 0.25
v 0.80000000000000027 -1.2 0.24000000000000005
v 0.80000000000000027 -0.79999999999999982 0.20000000000000001
v 0.80000000000000027 -0.69999999999999996 0.19000000000000003
v 0.80000000000000027 -0.29999999999999982 0.15000000000000002
v 0.80000000000000027 -0.19999999999999996 0.14000000000000004
v 0.80000000000000027 -0.099999999999999867 0.13000000000000003
v 0.80000000000000027 1.4000000000000004 -0.020000000000000004
v 0.80000000000000027 1.5 -0.029999999999999985
v 0.80000000000000027 1.9000000000000004 -0.070000000000000021
v 0.80000000000000027 2 -0.079999999999999974
v 0.90000000000000036 -2 0.33500000000000008
v 0.90000000000000036 -1.8999999999999999 0.32500000000000007
v 0.90000000000000036 -1.8 0.31500000000000006
v 0.90000000000000036 -1.7 0.30500000000000005
v 0.90000000000000036 -1.6000000000000001 0.29500000000000004
v 0.90000000000000036 -1.5 0.28500000000000003
v 0.90000000000000036 -1.3999999999999999 0.27500000000000002
v 0.90000000000000036 -1.2999999999999998 0.26500000000000001
v 0.90000000000000036 -1.2 0.255
v 0.90000000000000036 -1.1000000000000001 0.24500000000000005
v 0.90000000000000036 -0.79999999999999982 0.21500000000000002
v 0.90000000000000036 -0.69999999999999996 0.20500000000000002
v 0.90000000000000036 -0.59999999999999987 0.19500000000000003
v 0.90000000000000036 -0.5 0.18500000000000005
v 0.90000000000000036 -0.29999999999999982 0.16500000000000004
v 0.90000000000000036 -0.19999999999999996 0.15500000000000003
v 0.90000000000000036 -0.099999999999999867 0.14500000000000002
v 0.90000000000000036 0 0.13500000000000004
v 0.90000000000000036 1.5 -0.014999999999999986
v 0.90000000000000036 1.9000000000000004 -0.055000000000000021
v 0.90000000000000036 2 -0.064999999999999974
v 1 -2 0.34999999999999998
v 1 -1.8999999999999999 0.33999999999999997
v 1 -1.8 0.33000000000000002
v 1 -1.7 0.32000000000000001
v 1 -1.6000000000000001 0.31000000000000005
v 1 -1.5 0.30000000000000004
v 1 -1.3999999999999999 0.28999999999999998
v 1 -1.2999999999999998 0.27999999999999997
v 1 -1.2 0.27000000000000002
v 1 -1.1000000000000001 0.26000000000000001
v 1 -0.79999999999999982 0.22999999999999998
v 1 -0.69999999999999996 0.21999999999999997
v 1 -0.59999999999999987 0.20999999999999999
v 1 -0.5 0.20000000000000001
v 1 -0.29999999999999982 0.17999999999999999
v 1 -0.19999999999999996 0.16999999999999998
v 1 -0.099999999999999867 0.15999999999999998
v 1 0 0.14999999999999999
v 1 1.5 -2.7755575615628914e-17
v 1 1.9000000000000004 -0.040000000000000063
v 1 2 -0.050000000000000017
v 1.2000000000000002 -0.69999999999999996 0.25
v 1.2000000000000002 -0.59999999999999987 0.24000000000000002
v 1.3000000000000003 -0.59999999999999987 0.255
v 1.3000000000000003 -0.5 0.24500000000000005
v 1.4000000000000004 -2 0.41000000000000003
v 1.4000000000000004 -1.8999999999999999 0.40000000000000002
v 1.4000000000000004 -1.8 0.39000000000000007
v 1.4000000000000004 -1.7 0.38000000000000006
v 1.4000000000000004 -1.6000000000000001 0.37000000000000011
v 1.4000000000000004 -1.5 0.3600000000000001
v 1.4000000000000004 -1.3999999999999999 0.35000000000000003
v 1.4000000000000004 -1.2999999999999998 0.34000000000000002
v 1.4000000000000004 -1.2 0.33000000000000007
v 1.4000000000000004 -1.1000000000000001 0.32000000000000006
v 1.4000000000000004 -0.79999999999999982 0.29000000000000004
v 1.4000000000000004 -0.69999999999999996 0.28000000000000003
v 1.4000000000000004 -0.59999999999999987 0.27000000000000002
v 1.4000000000000004 -0.5 0.26000000000000006
v 1.4000000000000004 -0.29999999999999982 0.24000000000000005
v 1.4000000000000004 -0.19999999999999996 0.23000000000000004
v 1.4000000000000004 -0.099999999999999867 0.22000000000000003
v 1.4000000000000004 0 0.21000000000000005
v 1.4000000000000004 0.40000000000000036 0.17000000000000001
v 1.4000000000000004 0.5 0.16000000000000003
v 1.4000000000000004 1.4000000000000004 0.070000000000000007
v 1.4000000000000004 1.5 0.060000000000000026
v 1.4000000000000004 1.9000000000000004 0.01999999999999999
v 1.4000000000000004 2 0.010000000000000037
v 1.5 -2 0.42499999999999999
v 1.5 -1.8999999999999999 0.41499999999999998
v 1.5 -1.8 0.40500000000000003
v 1.5 -1.7 0.39500000000000002
v 1.5 -1.6000000000000001 0.38500000000000001
v 1.5 -1.3999999999999999 0.36499999999999999
v 1.5 -1.2999999999999998 0.35499999999999998
v 1.5 -1.2 0.34499999999999997
v 1.5 -1.1000000000000001 0.33499999999999996
v 1.5 -0.79999999999999982 0.30499999999999994
v 1.5 -0.69999999999999996 0.29499999999999998
v 1.5 -0.59999999999999987 0.28499999999999998
v 1.5 -0.5 0.27499999999999997
v 1.5 -0.29999999999999982 0.25499999999999995
v 1.5 -0.19999999999999996 0.24499999999999997
v 1.5 -0.099999999999999867 0.23499999999999996
v 1.5 0 0.22499999999999998
v 1.5 0.40000000000000036 0.18499999999999994
v 1.5 0.5 0.17499999999999999
v 1.5 1.4000000000000004 0.084999999999999937
v 1.5 1.5 0.074999999999999956
v 1.5 1.9000000000000004 0.03499999999999992
v 1.5 2 0.024999999999999967
v 1.6000000000000001 -0.19999999999999996 0.26000000000000001
v 1.6000000000000001 -0.099999999999999867 0.24999999999999997
v 1.7000000000000002 -0.099999999999999867 0.26500000000000001
v 1.7000000000000002 0 0.255
v 1.9000000000000004 -2 0.48500000000000004
v 1.9000000000000004 -1.8999999999999999 0.47500000000000003
v 1.9000000000000004 -1.8 0.46500000000000008
v 1.9000000000000004 -1.7 0.45500000000000007
v 1.9000000000000004 -1.6000000000000001 0.44500000000000006
v 1.9000000000000004 -1.5 0.43500000000000005
v 1.9000000000000004 -1.2999999999999998 0.41500000000000004
v 1.9000000000000004 -1.2 0.40500000000000003
v 1.9000000000000004 -1.1000000000000001 0.39500000000000002
v 1.9000000000000004 -0.79999999999999982 0.36499999999999999
v 1.9000000000000004 -0.69999999999999996 0.35500000000000004
v 1.9000000000000004 -0.59999999999999987 0.34500000000000003
v 1.9000000000000004 -0.5 0.33500000000000002
v 1.9000000000000004 -0.29999999999999982 0.315
v 1.9000000000000004 -0.19999999999999996 0.30500000000000005
v 1.9000000000000004 -0.099999999999999867 0.29500000000000004
v 1.9000000000000004 0 0.28500000000000003
v 1.9000000000000004 0.40000000000000036 0.245
v 1.9000000000000004 0.5 0.23500000000000004
v 1.9000000000000004 0.90000000000000036 0.19500000000000001
v 1.9000000000000004 1 0.18500000000000003
v 1.9000000000000004 1.4000000000000004 0.14499999999999999
v 1.9000000000000004 1.5 0.13500000000000001
v 1.9000000000000004 1.9000000000000004 0.094999999999999973
v 1.9000000000000004 2 0.08500000000000002
v 2 -2 0.5
v 2 -1.8999999999999999 0.48999999999999999
v 2 -1.8 0.47999999999999998
v 2 -1.7 0.46999999999999997
v 2 -1.6000000000000001 0.46000000000000002
v 2 -1.5 0.45000000000000001
v 2 -1.3999999999999999 0.43999999999999995
v 2 -1.2999999999999998 0.42999999999999994
v 2 -1.2 0.41999999999999998
v 2 -1.1000000000000001 0.41000000000000003
v 2 -0.79999999999999982 0.38
v 2 -0.69999999999999996 0.37
v 2 -0.59999999999999987 0.35999999999999999
v 2 -0.5 0.34999999999999998
v 2 -0.29999999999999982 0.32999999999999996
v 2 -0.19999999999999996 0.32000000000000001
v 2 -0.099999999999999867 0.31
v 2 0 0.29999999999999999
v 2 0.40000000000000036 0.25999999999999995
v 2 0.5 0.25
v 2 0.90000000000000036 0.20999999999999996
v 2 1 0.19999999999999998
v 2 1.4000000000000004 0.15999999999999995
v 2 1.5 0.14999999999999997
v 2 1.9000000000000004 0.10999999999999993
v 2 2 0.099999999999999978
v -2 -2 -0.90000000000000002
v -2 2 -0.90000000000000002
v 2 -2 -0.90000000000000002
v 2 2 -0.90000000000000002
v -1 -1.3680117784833934 -0.14545556584642799
v -1 -1 -0.24999999999999994
v -1.3500000000000001 -1.2163118960624633 -0.11631189606246312
v -1.1124354249480162 -1.4856463342923145 -0.041432511343314105
v -0.88756457505198383 -1.4856463342923145 -0.041432511343314105
v -1 -1.1912865702388702 -0.22335685044874226
v -0.81807566089457184 -1.3037219951868864 -0.15386793629133028
v -0.702272217076786 -1.4114496766047311 -0.031733672164910687
v -0.81599411075830319 -1.1137218936815172 -0.21573956140660749
v -1.1819243391054282 -1.3037219951868864 -0.15386793629133028
v -1.1840058892416967 -1.1137218936815172 -0.21573956140660749
v -1.1840058892416967 -0.88627810631848281 -0.21573956140660749
v -1.3680117784833936 -1 -0.14545556584642788
v -1.0567604054103124 -1.4309494146115764 -0.098690129693979889
v -0.94323959458968754 -1.4309494146115764 -0.098690129693979889
v -0.83403957225459679 -1.53105661011428 0.0252223955097301
v -1 -1.4920349213414412 -0.047897214473551331
v -1 -1.282348744032155 -0.19053039486308881
v -1 -1.0965665694893436 -0.24330721736980326
v -1 -0.90343343051065639 -0.24330721736980326
v -0.90815973483089096 -1.3391091494424674 -0.15545053510429235
v -0.73147038712046653 -1.2625269972347468 -0.14073803223567299
v -0.85088399404560922 -1.3998761613949959 -0.10485446048149688
v -0.90784124005355471 -1.2507601554406054 -0.19701322042794217
v -0.73977637587787082 -1.4949747468305832 0.028949331494718011
v -0.67209910439313192 -1.3177933498176828 -0.080554794033443511
v -0.79279678519556196 -1.4531883257175569 -0.041616892720361454
v -0.75769288964770554 -1.3612851340357428 -0.098416188854319187
v -0.90685022710158603 -1.0575697256955536 -0.24138183841659638
v -0.72966883008868555 -1.1670738512237153 -0.17370456693185748
v -0.90704526622046833 -1.1540819192313048 -0.22647481818170728
v -0.81514207453865406 -1.2108812153652624 -0.19137092263385097
v -0.60502205176395996 -1.3593628088613134 -0.0026044542584121033
v -1.091840265169109 -1.3391091494424674 -0.15545053510429235
v -1.2685296128795334 -1.2625269972347468 -0.14073803223567299
v -1.1491160059543908 -1.3998761613949959 -0.10485446048149688
v -1.0921587599464453 -1.2507601554406054 -0.19701322042794217
v -1.3279008956068681 -1.3177933498176828 -0.080554794033443511
v -1.207203214804438 -1.4531883257175569 -0.041616892720361454
v -1.2423071103522945 -1.3612851340357428 -0.098416188854319187
v -1.0931497728984139 -1.0575697256955536 -0.24138183841659638
v -1.2703311699113145 -1.1670738512237153 -0.17370456693185748
v -1.0929547337795318 -1.1540819192313048 -0.22647481818170728
v -1.1848579254613458 -1.2108812153652624 -0.19137092263385097
v -1.2685296128795334 -0.73747300276525318 -0.14073803223567299
v -1.0931497728984139 -0.94243027430444637 -0.24138183841659638
v -1.2703311699113145 -0.83292614877628479 -0.17370456693185748
v -1.0929547337795318 -0.84591808076869535 -0.22647481818170728
v -1.1864832907941971 -1 -0.22470288442733571
v -1.1848579254613458 -0.7891187846347375 -0.19137092263385097
v -1.3634809428097285 -1.1095041255281617 -0.13812451972899714
v -1.3634809428097285 -0.89049587447183842 -0.13812451972899714
v -1.2797249361912959 -1.0576265060223722 -0.18908774505260934
v -1.2797249361912959 -0.94237349397762793 -0.18908774505260934
v 0 0.096566569489343598 -0.19330721736980327
v 0.32790089560686808 -0.31779334981768276 -0.030554794033443522
v 0.093149772898413932 -0.057569725695553617 -0.19138183841659639
v 0.27033116991131445 -0.16707385122371524 -0.1237045669318575
v 0.18485792546134591 -0.21088121536526247 -0.14137092263385098
v 0.39497794823604004 -0.3593628088613135 0.047395545741587886
v -0.093149772898413932 0.057569725695553617 -0.19138183841659639
v -0.092954733779531715 0.15408191923130468 -0.17647481818170729
v -0.69999999999999984 -1.4808068524976838 0.043080685249768394
v -0.67824852398653301 -1.4686788569376861 0.045130607095788651
v -1.4085334416282709 -1.1509990033764439 -0.096180115906596239
v -1.4014560207821909 -1.181664006259125 -0.092052002491416138
v -1.3999999999999997 -1.1858547876125389 -0.091414521238746091
v -1.4143625286660095 -1.1000000000000001 -0.10215437929990143
v 0.40000000000000041 -0.40932582305481752 0.10093258230548181
v -0.66824598239016342 -0.099999999999999881 -0.090236897358524526
v -0.69999999999999996 -0.13175401760983643 -0.091824598239016342
v -0.59999999999999987 -0.031754017609836337 -0.086824598239016337
v -1.4177359769151561 -1.0426915546296274 -0.10839124107431065
v -1.4179152172696403 -1.0689173318361884 -0.10579554940682717
v -1.0824150333770055 -1.518289428233679 -0.010533312183182902
v -1.0400260851231935 -1.530164565387869 -0.0029874562296920717
v -0.59182916311086375 -1.3999999999999997 0.051225625533370407
v -0.59999999999999998 -1.4077169015064062 0.050771690150640633
v 0.42896058787140773 -0.38036523518341014 0.10238061169905216
v -0.5 -1.3093258230548177 0.055932582305481773
v -0.57103941212859222 -1.3803652351834099 0.052380611699052157
v -1.4090345564036399 -0.96477919765675779 -0.11487726369487022
v -1.3999999999999997 -0.92694117482367333 -0.11730588251763263
v -0.56824598239016355 -0 -0.085236897358524535
v -1.3824502431161327 -1.2363672492514304 -0.083730811542276851
v -0.5 0.068245982390163537 -0.081824598239016347
v -1.3165424208267726 -1.3530496734512518 -0.062176395778890711
v -1.2999999999999998 -1.3726757776613259 -0.057732422233867424
v -0.49067417694518206 -1.2999999999999998 0.056398873458222677
v -1.3384190080047151 -1.3243117078164428 -0.068331680419062998
v -1.3500458469128158 -1.3041070172313958 -0.072096175313782818
v -1.3520105039754051 -1.2999999999999998 -0.0728015755963108
v -0.73486018158712996 -1.5 0.03977097276193052
v -0.7457441243658679 -1.5046697003948817 0.038605351384608029
v -0.73296263787810789 -1.4991858685048733 0.039974191168771184
v -0.29999999999999982 -1.1093258230548178 0.06593258230548181
v -1.2999999999999998 -0.73479567729817075 -0.1215204322701829
v -1.3301081277299462 -0.77240418935262956 -0.122275800224229
v -1.2877901352190564 -0.71954415282889295 -0.12121410499996918
v -1.397322817302165 -0.91572874827794959 -0.11802554776752981
v -0.29999999999999982 0.26824598239016373 -0.071824598239016338
v -0.29067417694518233 -1.1000000000000001 0.066398873458222665
v -1.3534593729141151 -0.81109626919855449 -0.12190927901726183
v -1.3475440617601113 -0.79999999999999982 -0.12213160926401671
v -1.3827901869341175 -0.87271140641133615 -0.12014738739898402
v -0.19999999999999996 -1.0093258230548179 0.070932582305481787
v -1.3416119454470583 -0.7888722067507431 -0.12235457114198442
v -1.2026353195116346 -1.4618127227362483 -0.034214025653120338
v -1.2113792263330034 -1.4564795220427285 -0.03605893174567764
v -1.2263828264868408 -1.4443450790855299 -0.039522916064473147
v -1.275835252438809 -1.3999999999999999 -0.051375287865821337
v -0.099999999999999867 -0.90932582305481768 0.075932582305481791
v -1.1312495313549369 -1.5 -0.019687429703240476
v -1.1300870488758867 -1.5006218610438857 -0.019450871226994376
v -1.2804784842458408 -1.3958363118142012 -0.052488141455456008
v -1.1000000000000001 -1.5117723222105588 -0.013822767778944098
v -1.2682459823901635 -0.70000000000000007 -0.12023689735852454
v 0 -0.80932582305481782 0.080932582305481782
v 0.0093258230548179787 -0.79999999999999982 0.081398873458222679
v -1.1682459823901634 -0.59999999999999987 -0.11523689735852451
v 0.018665603514291695 -0.79066021954052612 0.081865862481196386
v -1.1000000000000001 -0.53175401760983654 -0.11182459823901635
v 0.10932582305481785 -0.69999999999999996 0.086398873458222669
v -0.8364873069517359 -1.5335308618270407 0.027879990139943703
v -0.83184421839056133 -1.5325937614788967 0.028482743389305502
v -1.0682459823901636 -0.5 -0.11023689735852452
v -0.88941000371886414 -1.5387089969964836 0.020459399141818789
v -0.9406803882849174 -1.5434025589915594 0.013238197656418347
v -0.63674855347039416 -1.4424238686728899 0.048730103846729864
v -0.94627808163592975 -1.5432114882829402 0.012379436582904598
v 0.20932582305481795 -0.59999999999999987 0.091398873458222701
v -0.96338208043644491 -0.3951360980462813 -0.1049937022608386
v -0.79999999999999982 -1.5222660155038956 0.032226601550389603
v -0.86824598239016337 -0.29999999999999982 -0.10023689735852452
v 0.30932582305481782 -0.5 0.096398873458222678
v -0.79999999999999982 -0.2317540176098363 -0.096824598239016346
v -0.76824598239016351 -0.19999999999999998 -0.095236897358524517
v -0.64555588843355605 -1.4493201546181489 0.048098632196781475
v 0 0 -0.19999999999999996
v 0.18400588924169678 -0.11372189368151724 -0.16573956140660751
v 0.26852961287953347 -0.26252699723474676 -0.090738032235673005
v -0.26852961287953347 0.26252699723474676 -0.090738032235673005
v -0.18485792546134591 0.21088121536526247 -0.14137092263385098
v 1 1.3680117784833934 -0.045455565846427959
v 1 1 -0.14999999999999991
v 1.3500000000000001 0.78368810393753674 -0.016311896062463083
v 1.3500000000000001 1.2163118960624633 -0.016311896062463083
v 1 1.1912865702388702 -0.12335685044874223
v 1.491432511343314 0.88756457505198383 0.064353665707685692
v 1.1840058892416967 0.88627810631848281 -0.11573956140660746
v 1.4817336721649106 0.702272217076786 0.13855032339526885
v 1.1819243391054282 1.3037219951868864 -0.053867936291330243
v 1.491432511343314 1.1124354249480162 0.064353665707685692
v 1.1840058892416967 1.1137218936815172 -0.11573956140660746
v 1.3680117784833936 1 -0.045455565846427848
v 0.81807566089457184 1.3037219951868864 -0.053867936291330243
v 1.0567604054103124 1.4309494146115764 0.0013098703060201444
v 1 1.282348744032155 -0.090530394863088781
v 1 1.0965665694893436 -0.14330721736980323
v 1.2685296128795334 0.73747300276525318 -0.040738032235672961
v 1.5486901296939799 0.94323959458968754 0.11905058538842367
v 1.42477760449027 0.83403957225459679 0.018943389885719975
v 1.3279008956068681 0.68220665018231719 0.019445205966556522
v 1.0931497728984139 0.94243027430444637 -0.14138183841659635
v 1.2703311699113145 0.83292614877628479 -0.073704566931857451
v 1.1848579254613458 0.7891187846347375 -0.091370922633850937
v 1.4210506685052819 0.73977637587787082 0.055025253169416866
v 1.4916168927203615 0.79279678519556196 0.096811674282443305
v 1.39497794823604 0.64063719113868656 0.09739554574158793
v 1.091840265169109 1.3391091494424674 -0.05545053510429232
v 1.2685296128795334 1.2625269972347468 -0.040738032235672961
v 1.1491160059543908 1.3998761613949959 -0.0048544604814968473
v 1.0921587599464453 1.2507601554406054 -0.097013220427942137
v 1.5486901296939799 1.0567604054103126 0.11905058538842367
v 1.42477760449027 1.1659604277454032 0.018943389885719975
v 1.4978972144735514 1 0.057965078658558822
v 1.3279008956068681 1.3177933498176828 0.019445205966556522
v 1.2423071103522945 1.3612851340357428 0.0015838111456808468
v 1.0931497728984139 1.0575697256955536 -0.14138183841659635
v 1.2703311699113145 1.1670738512237153 -0.073704566931857451
v 1.0929547337795318 1.1540819192313048 -0.12647481818170725
v 1.1864832907941971 1 -0.12470288442733568
v 1.1848579254613458 1.2108812153652624 -0.091370922633850937
v 1.4210506685052819 1.2602236241221292 0.055025253169416866
v 1.4916168927203615 1.207203214804438 0.096811674282443305
v 1.3634809428097285 0.89049587447183842 -0.038124519728997108
v 1.3634809428097285 1.1095041255281617 -0.038124519728997108
v 1.4341677078294128 0.94320070386604227 0.0038569405029114101
v 1.2797249361912959 0.94237349397762793 -0.089087745052609302
v 1.4341677078294128 1.0567992961339578 0.0038569405029114101
v 1.2797249361912959 1.0576265060223722 -0.089087745052609302
v 0.90815973483089096 1.3391091494424674 -0.05545053510429232
v 0.73147038712046653 1.2625269972347468 -0.040738032235672961
v 0.90784124005355471 1.2507601554406054 -0.097013220427942137
v 0.90685022710158603 1.0575697256955536 -0.14138183841659635
v 0.90704526622046833 1.1540819192313048 -0.12647481818170725
v 0.81514207453865406 1.2108812153652624 -0.091370922633850937
v 1.071206703173337 1.4451419195265154 0.016166813523348991
v 1.1314933584484514 1.4410831838036713 0.025615685386900584
v 0.72093407212996918 -0.088391750924848717 0.11697928591198026
v 0.72781332683313305 -0.081512496221684716 0.11732324864713845
v 0.80932582305481793 0 0.12139887345822269
v 0.80000000000000027 -0.0093258230548175849 0.1209325823054818
v 0.70932582305481795 -0.099999999999999881 0.11639887345822271
v 1.5255026447791997 0.77185423868884817 0.15163997284799513
v 1.5014046603233162 0.71862102105116565 0.15334859694338088
v 0.90000000000000024 0.090674176945182511 0.12593258230548179
v 1.5531209495217484 0.8518865836860815 0.14777948405965408
v 1.5523266663481317 0.84856207511429693 0.14799279244079006
v 1.5542696361249062 0.85964598403730974 0.14717584701500491
v 1.5584947313155266 0.90000000000000036 0.14377420969732893
v 0.80000000000000038 1.3558644986489399 -0.015586449864893954
v 0.857466474913961 1.3928924421428266 -0.010669272977188525
v 0.84630213666206855 1.3864477231268699 -0.011699451813376706
v -0.28779013521905655 0.280455847171107 -0.071214104999969177
v -0.28779013521905655 0.280455847171107 -0.071214104999969177
v -0.28779013521905661 0.280455847171107 -0.071214104999969177
v 0.94155222640143699 1.4265318273432013 -0.0014203487741045896
v 0.94593031438197084 1.4279658639835382 -0.00090703924105820833
v 1.5000000000000002 0.71608731785417845 0.15339126821458215
v -0.26824598239016328 0.30000000000000027 -0.070236897358524522
v 0.87523268378196706 1.4000000000000006 -0.0087150974327049966
v 1.5597728904357306 1 0.13396593356535957
v -0.21867053028465305 0.34957545210551044 -0.067758124753249008
v -0.23236269634947573 0.33588328604068779 -0.068442733056490151
v 0.90000000000000036 1.4099084241491502 -0.0059908424149149727
v -0.25648917564908724 0.31175680674107636 -0.069649057021470728
v 0.42896058787140801 -0.38036523518340987 0.10238061169905217
v -0.19999999999999996 0.3682459823901636 -0.066824598239016361
v 1.5621509196547421 0.93492036887851326 0.14083060106035997
v 1.5630608783651438 0.96068173963813652 0.13839095779095792
v 0.96269874511451869 1.4309494146115764 0.0013098703060201444
v 1 0.19067417694518213 0.13093258230548177
v -0.17543574857557068 0.3928102338145929 -0.065596385667794896
v -0.17174109501785878 0.39650488737230472 -0.065411652989909294
v 1 1.4369560245131761 0.0063043975486823762
v 1.0445179495877759 1.4441247366011152 0.012265218778054849
v -0.1682459823901632 0.40000000000000036 -0.065236897358524518
v 1.5019472969341956 1.1977141663112862 0.1055206779090007
v 1.4999999999999998 1.2014399626358823 0.10485600373641174
v 1.5296147905743989 1.1345184451858887 0.11599037406757093
v 1.5536428740744825 1.0598213697750534 0.12706429413366704
v 1.5557420587768389 1.0482012988008278 0.12854117893644304
v 1.5498760499648625 1.0745281700858491 0.12502859048614443
v -0.11045372510722969 0.45779225728293388 -0.062347284494377833
v -0.099999999999999867 0.46824598239016363 -0.061824598239016343
v -0.068245982390163537 0.5 -0.060236897358524527
v -0 0.56824598239016355 -0.056824598239016352
v -0.094755600209514984 0.47349038218064854 -0.061562378249492102
v 0.33175401760983686 0.90000000000000036 -0.040236897358524516
v 1.2093258230548183 0.40000000000000036 0.14139887345822269
v 0.40000000000000036 0.96824598239016391 -0.036824598239016341
v 1.0186656035142916 0.20933978045947363 0.13186586248119633
v 1.185250129785407 1.4330398885815421 0.034483530609656816
v 1.218347682715337 1.4240117299402908 0.040350979413271468
v 0.47468517265306448 -0.33464065040175339 0.10466684093813501
v 0.5 -0.30932582305481782 0.10593258230548178
v 1.4000000000000001 1.322108116061562 0.077789188393843842
v 1.372553859023774 1.3454659958445976 0.071336479269106357
v 1.2848294373141187 1.3997746178701227 0.052746953810105503
v 1.3048255074661741 1.3894185783813096 0.056781968281795173
v 1.2842112201186828 1.4000000000000004 0.052631683017802369
v 1.473329553241967 0.67421441074678568 0.15357799191161647
v 1.4289605878714078 0.61963476481658997 0.15238061169905215
v 0.43175401760983645 1 -0.035236897358524533
v 1.4896341025962687 0.69738948254445277 0.15370616713499502
v 0.5 1.0682459823901636 -0.031824598239016358
v 0.50932582305481799 -0.29999999999999982 0.10639887345822267
v 1.4956764994441905 1.2097121897407219 0.10338025594255634
v 0.56962920279428608 -0.23969662026053179 0.10941404244519609
v 0.58903791887354517 -0.22028790418127267 0.11038447824915905
v 0.74462170740929712 1.3120569719901654 -0.019512441087621971
v 0.7122098647809435 1.2804558471711069 -0.021214104999969185
v 1.4061526726937204 1.3168719194957585 0.079235708954482148
v 1.3093258230548181 0.5 0.14639887345822267
v 0.60932582305481786 -0.19999999999999993 0.11139887345822268
v 0.77836751377786206 1.341575931644442 -0.017402466097764909
v 1.4000000000000004 0.59067417694518254 0.15093258230548179
v 0.64656822572335004 -0.16275759733146788 0.11326099359164929
v 0.6915094229627764 -0.11781640009204145 0.1155080534536206
v 1.4904426837283729 1.2179582881415714 0.10177057374509878
v 0.64244017928428676 -0.16688564377053111 0.11305459126969612
v 1.445976530790434 1.2756286542132522 0.089333614197239869
v 0.64058317254499209 -0.16874265050982568 0.11296174093273141
f 70 71 45
f 45 71 46
f 72 73 47
f 47 73 48
f 89 90 64
f 64 90 65
f 91 92 66
f 66 92 67
f 158 159 135
f 135 159 136
f 159 160 136
f 136 160 137
f 160 161 137
f 138 162 139
f 143 167 144
f 170 171 147
f 148 172 149
f 158 180 159
f 180 181 159
f 159 181 160
f 187 188 166
f 195 196 181
f 181 196 182
f 197 198 183
f 183 198 184
f 199 200 187
f 187 200 188
f 189 202 190
f 204 205 193
f 193 205 194
f 195 211 196
f 211 212 196
f 213 214 197
f 197 214 198
f 217 218 199
f 199 218 200
f 219 220 201
f 221 222 203
f 223 224 204
f 204 224 205
f 211 225 212
f 226 227 213
f 213 227 214
f 251 252 234
f 234 252 235
f 253 254 236
f 258 259 239
f 239 259 240
f 260 261 241
f 241 261 242
f 262 263 243
f 243 263 244
f 253 271 254
f 272 273 255
f 255 273 256
f 281 282 264
f 264 282 265
f 272 288 273
f 288 289 273
f 273 289 274
f 290 291 275
f 275 291 276
f 292 293 277
f 277 293 278
f 281 296 282
f 296 297 282
f 282 297 283
f 300 301 296
f 296 301 297
f 302 303 298
f 317 318 300
f 300 318 301
f 319 320 302
f 302 320 303
f 307 325 308
f 325 326 308
f 308 326 309
f 327 328 310
f 310 328 311
f 329 330 312
f 312 330 313
f 325 342 326
f 358 359 343
f 343 359 344
f 376 377 364
f 364 377 365
f 377 378 365
f 386 387 367
f 367 387 368
f 388 389 369
f 369 389 370
f 390 391 371
f 371 391 372
f 392 393 373
f 373 393 374
f 393 394 374
f 374 394 375
f 397 398 378
f 378 398 379
f 401 402 383
f 383 402 384
f 401 403 402
f 421 422 404
f 404 422 405
f 425 426 407
f 428 429 409
f 409 429 410
f 429 430 410
f 432 433 411
f 411 433 412
f 434 435 413
f 440 441 419
f 419 441 420
f 442 443 421
f 421 443 422
f 444 445 423
f 446 447 425
f 426 448 427
f 460 462 461
f 462 463 461
f 491 492 467
f 467 492 468
f 469 493 470
f 494 495 471
f 471 495 472
f 497 498 474
f 474 498 475
f 499 500 476
f 476 500 477
f 501 502 478
f 478 502 479
f 505 506 482
f 482 506 483
f 501 511 502
f 502 512 503
f 513 514 512
f 541 542 516
f 516 542 517
f 543 544 518
f 518 544 519
f 545 546 520
f 547 548 521
f 521 548 522
f 548 549 522
f 522 549 523
f 550 551 524
f 524 551 525
f 251 640 639
f 324 675 671
f 691 695 211
f 638 704 379
f 705 706 233
f 618 622 580
f 610 618 580
f 587 606 603
f 607 609 604
f 603 605 583
f 605 609 608
f 596 597 592
f 570 603 583
f 587 603 570
f 576 597 591
f 592 597 576
f 571 610 588
f 618 623 622
f 591 597 595
f 598 600 578
f 588 600 598
f 588 598 571
f 574 596 592
f 585 596 574
f 580 612 610
f 610 612 588
f 572 607 604
f 611 622 620
f 611 620 572
f 604 611 572
f 580 622 611
f 604 609 579
f 579 605 603
f 579 609 605
f 603 606 579
f 594 596 585
f 577 597 596
f 577 596 594
f 577 602 595
f 595 597 577
f 570 590 587
f 590 592 576
f 576 593 590
f 590 593 587
f 615 618 610
f 589 615 571
f 571 615 610
f 617 619 581
f 581 623 618
f 581 618 615
f 615 617 581
f 573 586 583
f 605 608 573
f 583 605 573
f 584 586 574
f 583 586 584
f 583 584 570
f 574 592 584
f 584 592 590
f 584 590 570
f 588 612 575
f 575 600 588
f 575 606 587
f 575 612 606
f 593 600 575
f 587 593 575
f 606 613 579
f 611 613 580
f 604 613 611
f 579 613 604
f 580 613 612
f 612 613 606
f 576 601 593
f 599 601 591
f 591 601 576
f 600 601 578
f 593 601 600
f 620 622 582
f 622 623 582
f 616 619 614
f 581 619 616
f 616 623 581
f 621 623 616
f 582 623 621
f 589 708 624
f 571 708 589
f 578 709 598
f 598 709 626
f 598 708 571
f 626 708 598
f 599 710 627
f 591 710 599
f 614 712 711
f 619 712 614
f 602 629 625
f 602 625 595
f 601 709 578
f 628 709 601
f 599 627 601
f 627 628 601
f 624 630 589
f 589 630 615
f 631 712 619
f 617 631 619
f 630 631 615
f 615 631 617
f 608 678 677
f 608 679 678
f 585 696 693
f 607 660 659
f 672 674 621
f 644 645 586
f 573 644 586
f 225 701 226
f 701 703 226
f 695 701 225
f 211 695 225
f 635 636 572
f 636 654 572
f 703 705 233
f 227 703 233
f 226 703 227
f 620 635 572
f 634 635 620
f 620 643 637
f 620 637 634
f 662 664 594
f 594 663 662
f 632 633 594
f 594 664 632
f 666 667 614
f 614 668 666
f 642 643 620
f 582 642 620
f 249 663 232
f 662 663 249
f 250 662 249
f 663 702 232
f 234 640 251
f 234 706 640
f 233 706 234
f 608 677 573
f 677 682 573
f 682 683 573
f 573 685 644
f 683 685 573
f 614 667 616
f 667 676 616
f 582 651 642
f 607 656 609
f 656 657 609
f 657 684 609
f 609 679 608
f 609 684 680
f 609 680 679
f 693 694 585
f 639 641 252
f 251 639 252
f 646 650 602
f 602 647 646
f 602 698 647
f 607 659 656
f 616 673 672
f 616 672 621
f 616 676 673
f 621 652 582
f 621 669 652
f 582 652 651
f 645 699 586
f 586 699 574
f 574 699 697
f 286 647 269
f 287 646 286
f 646 647 286
f 574 697 696
f 574 696 585
f 270 655 271
f 271 288 272
f 271 655 288
f 653 655 270
f 621 674 669
f 572 661 607
f 607 661 660
f 654 661 572
f 585 702 594
f 594 702 663
f 694 702 585
f 577 698 602
f 577 707 698
f 306 658 305
f 287 658 649
f 305 658 287
f 633 707 577
f 594 633 577
f 307 308 288
f 288 670 307
f 655 670 288
f 692 700 629
f 700 704 629
f 690 692 629
f 602 690 629
f 629 704 638
f 638 648 629
f 306 665 658
f 688 690 602
f 687 688 602
f 681 687 602
f 675 681 602
f 671 675 602
f 665 671 602
f 658 665 602
f 649 658 602
f 602 650 649
f 323 665 306
f 324 665 323
f 324 671 665
f 614 689 686
f 614 691 689
f 614 686 668
f 614 695 691
f 614 701 695
f 655 711 670
f 653 711 655
f 641 711 653
f 639 711 641
f 640 711 639
f 706 711 640
f 705 711 706
f 614 711 705
f 614 705 703
f 614 703 701
f 341 675 324
f 341 681 675
f 357 681 341
f 357 687 681
f 364 688 687
f 364 687 357
f 365 692 364
f 364 692 690
f 364 690 688
f 378 700 365
f 365 700 692
f 379 704 378
f 378 704 700
f 133 636 635
f 157 636 133
f 133 635 134
f 134 635 634
f 634 637 134
f 651 652 135
f 135 652 158
f 134 651 135
f 642 651 134
f 134 643 642
f 637 643 134
f 398 638 379
f 398 648 638
f 210 683 682
f 177 682 178
f 210 682 177
f 210 685 683
f 269 633 250
f 250 633 632
f 269 707 633
f 698 707 269
f 647 698 269
f 181 686 195
f 686 689 195
f 180 686 181
f 649 650 287
f 287 650 646
f 179 657 656
f 179 656 156
f 656 659 156
f 156 659 157
f 659 660 157
f 660 661 157
f 157 661 654
f 157 654 636
f 652 669 158
f 669 674 158
f 158 674 672
f 672 673 158
f 158 667 180
f 158 676 667
f 180 667 666
f 673 676 158
f 677 678 178
f 178 682 677
f 678 679 178
f 679 680 178
f 178 680 179
f 680 684 179
f 179 684 657
f 666 668 180
f 668 686 180
f 195 689 211
f 689 691 211
f 697 699 210
f 210 699 645
f 210 645 644
f 644 685 210
f 696 697 232
f 693 696 232
f 232 697 210
f 232 694 693
f 232 702 694
f 632 664 250
f 250 664 662
f 413 770 769
f 769 773 413
f 784 790 307
f 307 796 794
f 648 797 629
f 793 798 325
f 790 796 307
f 798 803 325
f 803 804 325
f 804 807 325
f 814 815 342
f 342 818 816
f 815 818 342
f 398 826 825
f 821 834 380
f 411 840 839
f 411 839 837
f 848 851 412
f 851 853 412
f 773 849 413
f 412 853 845
f 413 772 770
f 711 786 670
f 719 751 733
f 732 738 736
f 719 735 734
f 728 765 764
f 733 751 748
f 733 748 714
f 714 748 728
f 748 750 728
f 723 750 748
f 748 751 723
f 728 750 717
f 717 765 728
f 723 760 749
f 751 760 723
f 729 732 715
f 732 736 715
f 715 734 729
f 715 755 734
f 719 758 751
f 734 758 719
f 755 758 734
f 758 760 751
f 736 738 720
f 723 752 750
f 749 752 723
f 721 741 739
f 727 739 713
f 749 760 756
f 731 755 715
f 715 736 731
f 724 760 758
f 724 759 756
f 756 760 724
f 724 758 755
f 762 766 725
f 763 766 765
f 763 765 717
f 727 763 717
f 725 766 763
f 750 752 742
f 727 742 739
f 717 750 742
f 717 742 727
f 742 752 721
f 739 742 721
f 739 741 726
f 713 739 726
f 736 737 731
f 720 737 736
f 731 757 755
f 755 757 724
f 757 759 724
f 721 747 741
f 740 752 749
f 721 752 740
f 740 747 721
f 746 747 740
f 713 761 727
f 761 763 727
f 725 763 761
f 749 756 716
f 740 749 716
f 716 753 746
f 716 746 740
f 718 757 731
f 731 737 718
f 745 759 757
f 743 745 730
f 722 759 745
f 722 745 743
f 745 757 718
f 730 745 718
f 744 753 716
f 722 754 744
f 744 754 753
f 716 756 744
f 744 759 722
f 756 759 744
f 629 732 625
f 629 738 732
f 625 732 710
f 710 732 729
f 709 733 626
f 719 733 709
f 626 733 714
f 626 714 708
f 729 734 710
f 710 734 627
f 627 734 628
f 734 735 628
f 628 719 709
f 628 735 719
f 765 766 712
f 631 765 712
f 712 762 711
f 712 766 762
f 708 714 624
f 714 728 624
f 764 765 631
f 630 764 631
f 728 764 624
f 624 764 630
f 799 800 730
f 785 786 711
f 811 813 743
f 743 812 811
f 832 835 720
f 841 842 762
f 767 806 726
f 828 830 746
f 838 850 754
f 753 852 843
f 413 412 433
f 434 413 433
f 70 95 96
f 71 70 96
f 270 641 653
f 252 641 270
f 183 182 196
f 197 183 196
f 591 595 710
f 595 625 710
f 304 321 322
f 305 304 322
f 185 184 198
f 215 185 198
f 214 215 198
f 223 242 243
f 222 242 223
f 2 1 26
f 27 2 26
f 473 472 495
f 496 473 495
f 186 215 216
f 185 215 186
f 224 243 244
f 223 243 224
f 222 241 242
f 221 241 222
f 72 71 96
f 97 72 96
f 199 216 217
f 186 216 199
f 187 186 199
f 568 567 569
f 566 567 568
f 306 305 322
f 323 306 322
f 189 188 200
f 201 189 200
f 2 27 28
f 3 2 28
f 474 473 496
f 497 474 496
f 189 201 202
f 220 202 201
f 4 3 28
f 29 4 28
f 73 72 97
f 98 73 97
f 191 190 202
f 203 191 202
f 5 4 29
f 30 5 29
f 476 475 498
f 499 476 498
f 400 414 415
f 399 414 400
f 229 228 245
f 246 229 245
f 192 191 203
f 222 192 203
f 74 73 98
f 99 74 98
f 401 415 416
f 400 415 401
f 791 436 415
f 791 415 414
f 795 436 791
f 310 309 326
f 327 310 326
f 204 222 223
f 192 222 204
f 193 192 204
f 478 477 500
f 501 478 500
f 6 5 30
f 31 6 30
f 403 416 417
f 401 416 403
f 75 74 99
f 100 75 99
f 229 246 247
f 230 229 247
f 197 196 212
f 213 197 212
f 312 311 328
f 329 312 328
f 416 415 436
f 437 416 436
f 201 200 218
f 219 201 218
f 479 502 503
f 480 479 503
f 7 6 31
f 32 7 31
f 203 202 220
f 221 203 220
f 77 76 101
f 102 77 101
f 231 230 247
f 248 231 247
f 207 206 229
f 228 229 206
f 314 313 330
f 331 314 330
f 417 416 437
f 438 417 437
f 208 229 230
f 207 229 208
f 481 480 503
f 504 481 503
f 8 7 32
f 33 8 32
f 405 422 423
f 406 405 423
f 424 406 423
f 78 77 102
f 103 78 102
f 231 248 249
f 232 231 249
f 209 230 231
f 208 230 209
f 315 314 331
f 332 315 331
f 419 418 439
f 440 419 439
f 408 407 426
f 427 408 426
f 9 8 33
f 34 9 33
f 481 504 505
f 482 481 505
f 210 231 232
f 209 231 210
f 79 78 103
f 104 79 103
f 420 441 442
f 421 420 442
f 213 212 225
f 226 213 225
f 317 316 333
f 334 317 333
f 9 34 35
f 10 9 35
f 215 214 227
f 234 215 227
f 233 234 227
f 80 79 104
f 105 80 104
f 423 422 443
f 444 423 443
f 216 234 235
f 215 234 216
f 317 334 335
f 318 317 335
f 11 10 35
f 36 11 35
f 217 236 237
f 216 236 217
f 235 236 216
f 81 80 105
f 106 81 105
f 12 11 36
f 37 12 36
f 218 237 238
f 217 237 218
f 319 318 335
f 336 319 335
f 236 235 252
f 253 236 252
f 219 238 239
f 218 238 219
f 485 484 507
f 508 485 507
f 220 219 240
f 239 240 219
f 425 424 445
f 423 445 424
f 446 425 445
f 426 447 448
f 425 447 426
f 82 81 106
f 107 82 106
f 221 240 241
f 220 240 221
f 320 319 336
f 337 320 336
f 236 254 255
f 237 236 255
f 256 237 255
f 413 435 772
f 771 772 435
f 486 485 508
f 509 486 508
f 13 12 37
f 38 13 37
f 776 771 435
f 83 82 107
f 108 83 107
f 427 448 449
f 428 427 449
f 238 237 256
f 257 238 256
f 320 337 338
f 321 320 338
f 14 13 38
f 39 14 38
f 487 486 509
f 510 487 509
f 779 534 780
f 777 534 779
f 778 534 777
f 774 533 534
f 774 534 778
f 775 533 774
f 506 533 775
f 789 506 775
f 429 428 449
f 450 429 449
f 84 83 108
f 109 84 108
f 238 257 258
f 239 238 258
f 322 321 338
f 339 322 338
f 14 39 40
f 15 14 40
f 489 515 516
f 488 515 489
f 783 414 781
f 782 414 783
f 791 414 782
f 85 84 109
f 110 85 109
f 430 429 450
f 451 430 450
f 323 322 339
f 340 323 339
f 16 15 40
f 41 16 40
f 241 240 259
f 260 241 259
f 490 516 517
f 489 516 490
f 430 451 452
f 431 430 452
f 85 110 111
f 86 85 111
f 785 670 786
f 307 670 785
f 784 307 785
f 243 242 261
f 262 243 261
f 324 323 340
f 341 324 340
f 17 16 41
f 42 17 41
f 491 517 518
f 490 517 491
f 800 534 535
f 800 535 792
f 799 534 800
f 780 534 799
f 432 431 452
f 453 432 452
f 87 86 111
f 112 87 111
f 325 307 794
f 793 325 794
f 246 245 264
f 265 246 264
f 492 518 519
f 491 518 492
f 435 456 776
f 802 776 456
f 18 17 42
f 43 18 42
f 88 87 112
f 113 88 112
f 325 807 814
f 342 325 814
f 433 432 453
f 454 433 453
f 327 326 342
f 343 327 342
f 247 246 265
f 266 247 265
f 493 520 521
f 494 493 521
f 492 520 493
f 519 520 492
f 787 436 795
f 788 436 787
f 801 436 788
f 457 436 801
f 805 457 801
f 19 18 43
f 44 19 43
f 89 88 113
f 114 89 113
f 434 433 454
f 455 434 454
f 328 327 343
f 344 328 343
f 817 819 358
f 19 44 45
f 20 19 45
f 89 114 115
f 90 89 115
f 247 266 267
f 248 247 267
f 820 481 482
f 822 456 481
f 822 481 820
f 802 456 822
f 495 522 523
f 496 495 523
f 521 522 495
f 494 521 495
f 435 434 455
f 456 435 455
f 819 380 359
f 821 380 819
f 358 819 359
f 329 328 344
f 345 329 344
f 21 20 45
f 46 21 45
f 797 398 825
f 648 398 797
f 91 90 115
f 116 91 115
f 249 248 267
f 268 249 267
f 497 523 524
f 496 523 497
f 22 21 46
f 47 22 46
f 329 345 346
f 330 329 346
f 829 484 831
f 830 484 829
f 828 484 830
f 827 484 828
f 250 249 268
f 269 250 268
f 92 91 116
f 117 92 116
f 23 22 47
f 48 23 47
f 498 524 525
f 497 524 498
f 24 23 48
f 49 24 48
f 331 330 346
f 347 331 346
f 768 485 457
f 823 485 768
f 824 485 823
f 831 485 824
f 484 485 831
f 767 768 457
f 806 767 457
f 805 806 457
f 253 252 270
f 271 253 270
f 92 117 118
f 93 92 118
f 25 24 49
f 50 25 49
f 482 483 844
f 820 482 844
f 499 498 526
f 525 526 498
f 255 254 271
f 272 255 271
f 411 412 845
f 840 411 845
f 331 347 348
f 332 331 348
f 26 51 52
f 27 26 52
f 847 844 483
f 94 93 118
f 119 94 118
f 257 256 273
f 274 257 273
f 500 526 527
f 499 526 500
f 28 27 52
f 53 28 52
f 334 333 349
f 350 334 349
f 399 841 414
f 414 841 846
f 781 414 846
f 842 841 399
f 836 842 399
f 437 436 457
f 458 437 457
f 94 119 120
f 95 94 120
f 258 257 274
f 275 258 274
f 501 527 528
f 500 527 501
f 832 833 506
f 847 506 833
f 835 832 506
f 789 835 506
f 483 506 847
f 29 28 53
f 54 29 53
f 335 334 350
f 351 335 350
f 412 413 849
f 848 412 849
f 438 437 458
f 459 438 458
f 96 95 120
f 121 96 120
f 259 258 275
f 276 259 275
f 511 528 529
f 501 528 511
f 30 29 54
f 55 30 54
f 843 852 507
f 852 850 507
f 838 507 850
f 809 507 838
f 484 843 507
f 827 843 484
f 502 511 512
f 513 512 511
f 440 464 465
f 439 464 440
f 335 351 352
f 336 335 352
f 259 276 277
f 260 259 277
f 726 741 768
f 767 726 768
f 97 96 121
f 122 97 121
f 737 720 775
f 774 737 775
f 31 30 55
f 56 31 55
f 504 503 512
f 514 504 512
f 774 778 737
f 441 465 466
f 440 465 441
f 337 336 352
f 353 337 352
f 725 761 783
f 782 783 761
f 261 260 277
f 278 261 277
f 98 97 122
f 123 98 122
f 761 713 787
f 788 787 713
f 32 31 56
f 57 32 56
f 505 514 532
f 531 532 514
f 504 514 505
f 782 761 791
f 795 791 761
f 787 795 761
f 442 466 467
f 441 466 442
f 338 337 353
f 354 338 353
f 713 726 801
f 788 713 801
f 261 278 279
f 262 261 279
f 99 98 123
f 124 99 123
f 33 32 57
f 58 33 57
f 805 801 726
f 806 805 726
f 506 505 533
f 532 533 505
f 443 467 468
f 442 467 443
f 338 354 355
f 339 338 355
f 730 792 743
f 743 792 812
f 800 792 730
f 262 279 280
f 263 262 280
f 100 99 124
f 125 100 124
f 779 780 730
f 730 780 799
f 33 58 59
f 34 33 59
f 340 339 355
f 356 340 355
f 743 813 722
f 810 722 813
f 444 468 469
f 443 468 444
f 741 747 824
f 823 741 824
f 102 101 126
f 127 102 126
f 823 768 741
f 265 282 283
f 266 265 283
f 341 340 356
f 357 341 356
f 720 738 832
f 833 832 738
f 35 34 59
f 60 35 59
f 103 102 127
f 128 103 127
f 754 722 808
f 810 808 722
f 445 469 470
f 444 469 445
f 808 809 754
f 754 809 838
f 267 266 283
f 284 267 283
f 775 720 789
f 835 789 720
f 35 60 61
f 36 35 61
f 810 535 536
f 808 536 507
f 809 808 507
f 810 536 808
f 813 535 810
f 811 535 813
f 812 535 811
f 792 535 812
f 746 753 843
f 827 746 843
f 828 746 827
f 446 470 471
f 445 470 446
f 104 103 128
f 129 104 128
f 718 737 778
f 777 718 778
f 268 267 284
f 285 268 284
f 508 536 537
f 507 536 508
f 725 781 846
f 783 781 725
f 37 36 61
f 62 37 61
f 105 104 129
f 130 105 129
f 777 779 718
f 730 718 779
f 447 471 472
f 446 471 447
f 762 725 841
f 846 841 725
f 817 358 343
f 817 343 342
f 816 817 342
f 268 285 286
f 269 268 286
f 829 831 747
f 824 747 831
f 509 537 538
f 508 537 509
f 37 62 63
f 38 37 63
f 747 746 830
f 829 747 830
f 106 105 130
f 131 106 130
f 448 472 473
f 447 472 448
f 754 850 753
f 850 852 753
f 345 344 359
f 360 345 359
f 39 38 63
f 64 39 63
f 510 538 539
f 509 538 510
f 449 473 474
f 448 473 449
f 844 847 738
f 833 738 847
f 820 844 738
f 822 820 738
f 629 822 738
f 107 106 131
f 132 107 131
f 40 39 64
f 65 40 64
f 346 345 360
f 361 346 360
f 460 474 475
f 449 474 460
f 450 449 460
f 513 529 530
f 511 529 513
f 40 65 66
f 41 40 66
f 108 107 132
f 133 108 132
f 451 460 461
f 450 460 451
f 346 361 362
f 347 346 362
f 42 41 66
f 67 42 66
f 514 530 531
f 513 530 514
f 275 274 289
f 290 275 289
f 109 108 133
f 134 109 133
f 452 451 461
f 463 452 461
f 348 347 362
f 363 348 362
f 43 42 67
f 68 43 67
f 516 515 540
f 541 516 540
f 277 276 291
f 292 277 291
f 109 134 135
f 110 109 135
f 453 463 478
f 477 478 463
f 452 463 453
f 350 366 367
f 349 366 350
f 44 43 68
f 69 44 68
f 518 517 542
f 543 518 542
f 279 278 293
f 294 279 293
f 111 110 135
f 136 111 135
f 280 279 294
f 295 280 294
f 351 367 368
f 350 367 351
f 629 802 822
f 776 802 629
f 771 776 629
f 772 771 629
f 770 772 629
f 769 770 629
f 773 769 629
f 849 773 629
f 848 849 629
f 851 848 629
f 853 851 629
f 845 853 629
f 840 845 629
f 839 840 629
f 837 839 629
f 826 837 629
f 825 826 629
f 797 825 629
f 454 478 479
f 453 478 454
f 520 519 544
f 545 520 544
f 45 44 69
f 70 45 69
f 112 111 136
f 137 112 136
f 455 479 480
f 454 479 455
f 352 368 369
f 351 368 352
f 281 299 296
f 296 299 300
f 521 520 546
f 547 521 546
f 456 480 481
f 455 480 456
f 113 112 137
f 161 113 137
f 47 46 71
f 72 47 71
f 353 352 370
f 369 370 352
f 284 283 297
f 298 284 297
f 524 523 549
f 550 524 549
f 49 48 73
f 74 49 73
f 138 161 183
f 182 183 161
f 113 161 138
f 114 113 138
f 50 49 74
f 75 50 74
f 354 370 371
f 353 370 354
f 285 284 298
f 303 285 298
f 525 551 552
f 526 525 552
f 52 51 76
f 77 52 76
f 115 114 138
f 139 115 138
f 286 303 304
f 285 303 286
f 355 371 372
f 354 371 355
f 53 52 77
f 78 53 77
f 527 526 552
f 553 527 552
f 287 304 305
f 286 304 287
f 115 139 140
f 116 115 140
f 54 53 78
f 79 54 78
f 356 372 373
f 355 372 356
f 55 54 79
f 80 55 79
f 528 527 553
f 554 528 553
f 56 55 80
f 81 56 80
f 117 116 140
f 141 117 140
f 458 485 486
f 457 485 458
f 357 374 375
f 356 374 357
f 373 374 356
f 819 711 762
f 817 711 819
f 816 711 817
f 818 711 816
f 815 711 818
f 814 711 815
f 807 711 814
f 804 711 807
f 803 711 804
f 798 711 803
f 793 711 798
f 794 711 793
f 796 711 794
f 790 711 796
f 784 711 790
f 785 711 784
f 821 819 762
f 834 821 762
f 836 834 762
f 842 836 762
f 57 56 81
f 82 57 81
f 529 528 554
f 555 529 554
f 289 308 309
f 288 308 289
f 166 143 142
f 117 141 142
f 118 117 142
f 143 118 142
f 459 486 487
f 458 486 459
f 529 555 556
f 530 529 556
f 290 289 310
f 309 310 289
f 364 375 376
f 357 375 364
f 58 57 82
f 83 58 82
f 119 118 143
f 144 119 143
f 291 310 311
f 290 310 291
f 531 530 556
f 557 531 556
f 59 58 83
f 84 59 83
f 120 119 144
f 145 120 144
f 462 475 476
f 460 475 462
f 531 557 558
f 532 531 558
f 292 311 312
f 291 311 292
f 121 120 145
f 146 121 145
f 60 59 84
f 85 60 84
f 293 312 313
f 292 312 293
f 533 532 558
f 559 533 558
f 122 121 146
f 147 122 146
f 61 60 85
f 86 61 85
f 294 313 314
f 293 313 294
f 360 380 381
f 359 380 360
f 534 533 559
f 560 534 559
f 61 86 87
f 62 61 87
f 123 122 147
f 171 123 147
f 295 314 315
f 294 314 295
f 361 360 382
f 381 382 360
f 63 62 87
f 88 63 87
f 535 534 560
f 561 535 560
f 463 462 476
f 477 463 476
f 148 171 193
f 192 193 171
f 123 171 148
f 124 123 148
f 297 301 302
f 298 297 302
f 362 382 383
f 361 382 362
f 64 63 88
f 89 64 88
f 536 535 561
f 562 536 561
f 465 464 488
f 489 465 488
f 125 124 148
f 149 125 148
f 66 65 90
f 91 66 90
f 363 362 384
f 383 384 362
f 466 465 489
f 490 466 489
f 537 536 562
f 563 537 562
f 68 67 92
f 93 68 92
f 127 126 150
f 151 127 150
f 299 316 317
f 300 299 317
f 538 537 563
f 564 538 563
f 467 466 490
f 491 467 490
f 128 127 151
f 152 128 151
f 68 93 94
f 69 68 94
f 539 538 564
f 565 539 564
f 302 301 318
f 319 302 318
f 129 128 152
f 153 129 152
f 469 468 492
f 493 469 492
f 130 129 153
f 154 130 153
f 70 69 94
f 95 70 94
f 131 130 154
f 155 131 154
f 304 303 320
f 321 304 320
f 131 155 156
f 132 131 156
f 471 470 493
f 494 471 493
f 133 132 156
f 157 133 156
f 367 366 385
f 386 367 385
f 368 387 388
f 369 368 388
f 26 1 566
f 51 26 566
f 76 51 566
f 101 76 566
f 126 101 566
f 150 126 566
f 173 150 566
f 206 173 566
f 228 206 566
f 245 228 566
f 264 245 566
f 281 264 566
f 299 281 566
f 568 299 566
f 316 299 568
f 333 316 568
f 349 333 568
f 366 349 568
f 385 366 568
f 418 385 568
f 439 418 568
f 464 439 568
f 488 464 568
f 515 488 568
f 540 515 568
f 371 370 389
f 390 371 389
f 162 183 184
f 138 183 162
f 372 391 392
f 373 372 392
f 140 139 162
f 163 140 162
f 376 375 394
f 395 376 394
f 140 163 164
f 141 140 164
f 377 376 395
f 396 377 395
f 141 164 165
f 142 141 165
f 378 377 396
f 397 378 396
f 142 165 166
f 187 166 165
f 143 166 167
f 188 167 166
f 145 144 167
f 168 145 167
f 146 145 168
f 169 146 168
f 541 540 568
f 542 541 568
f 543 542 568
f 544 543 568
f 545 544 568
f 546 545 568
f 547 546 568
f 548 547 568
f 549 548 568
f 550 549 568
f 551 550 568
f 552 551 568
f 553 552 568
f 554 553 568
f 555 554 568
f 556 555 568
f 557 556 568
f 558 557 568
f 569 558 568
f 559 558 569
f 560 559 569
f 561 560 569
f 562 561 569
f 563 562 569
f 564 563 569
f 565 564 569
f 147 146 169
f 170 147 169
f 172 193 194
f 148 193 172
f 151 150 173
f 174 151 173
f 836 399 381
f 836 381 380
f 834 836 380
f 152 151 174
f 175 152 174
f 382 381 399
f 400 382 399
f 153 152 175
f 176 153 175
f 382 400 401
f 383 382 401
f 154 153 176
f 177 154 176
f 386 385 419
f 418 419 385
f 155 154 177
f 178 155 177
f 387 419 420
f 386 419 387
f 156 155 178
f 179 156 178
f 388 387 404
f 420 404 387
f 421 404 420
f 160 181 182
f 161 160 182
f 389 388 405
f 404 405 388
f 539 565 569
f 510 539 569
f 487 510 569
f 459 487 569
f 438 459 569
f 417 438 569
f 403 417 569
f 402 403 569
f 384 402 569
f 363 384 569
f 348 363 569
f 332 348 569
f 315 332 569
f 295 315 569
f 567 295 569
f 280 295 567
f 263 280 567
f 244 263 567
f 224 244 567
f 205 224 567
f 194 205 567
f 172 194 567
f 149 172 567
f 125 149 567
f 100 125 567
f 75 100 567
f 50 75 567
f 25 50 567
f 163 162 184
f 185 163 184
f 390 405 406
f 389 405 390
f 164 163 185
f 186 164 185
f 424 391 406
f 391 390 406
f 165 164 186
f 187 165 186
f 424 407 391
f 392 391 407
f 425 407 424
f 168 167 188
f 189 168 188
f 393 407 408
f 392 407 393
f 169 168 189
f 190 169 189
f 394 393 408
f 427 394 408
f 170 169 190
f 191 170 190
f 395 394 409
f 427 409 394
f 428 409 427
f 171 170 191
f 192 171 191
f 396 395 410
f 409 410 395
f 174 206 207
f 173 206 174
f 397 396 410
f 430 397 410
f 175 174 208
f 207 208 174
f 398 430 431
f 397 430 398
f 176 208 209
f 175 208 176
f 24 25 567
f 23 24 567
f 22 23 567
f 21 22 567
f 20 21 567
f 19 20 567
f 18 19 567
f 566 18 567
f 17 18 566
f 16 17 566
f 15 16 566
f 14 15 566
f 13 14 566
f 12 13 566
f 11 12 566
f 10 11 566
f 9 10 566
f 8 9 566
f 7 8 566
f 6 7 566
f 5 6 566
f 4 5 566
f 3 4 566
f 2 3 566
f 1 2 566
f 411 431 432
f 398 431 411
f 837 398 411
f 826 398 837
f 177 209 210
f 176 209 177
