# https://github.com/mikedh/trimesh
v -1.99578192 -1.99468512 -0.89260772
v -1.99128844 -2.00012941 -0.83214351
v -1.99693372 -1.99440594 -0.64747408
v -1.99914004 -1.99481482 -0.22952844
v -1.99609472 -1.99433072 -0.10061584
v -1.99808623 -1.89116545 -0.88748863
v -2.00261475 -1.96829672 -0.76581326
v -2.00161578 -1.90943987 -0.56223336
v -2.00199796 -1.76533849 -0.23737000
v -1.99921300 -1.81714876 -0.13140652
v -2.00252368 -1.74490042 -0.82038340
v -2.00031497 -1.51366300 -0.68257061
v -2.00025560 -1.64992649 -0.35780027
v -1.86298706 -1.71885128 -0.11234787
v -1.99845053 -1.53203256 -0.89264789
v -1.99059798 -1.50049992 -0.17180854
v -2.00051285 -1.19630064 -0.36442798
v -2.00100114 -1.36934109 -0.22422768
v -1.98935749 -1.31065847 -0.89774617
v -2.00110294 -1.24854256 -0.83158597
v -1.99477841 -1.26928784 -0.20276295
v -1.99169208 -1.21921445 -0.89887968
v -2.00008513 -1.10001506 -0.61386528
v -1.99967219 -1.12044020 -0.88884464
v -1.98891880 -1.09539063 -0.90084872
v -1.99810912 -0.94879169 -0.25211297
v -2.00093748 -0.87687637 -0.85310653
v -1.98958303 -1.03072597 -0.89888152
v -2.00011374 -0.82327874 -0.60182091
v -1.99294044 -0.80188204 -0.89910713
v -2.00137378 -0.78573213 -0.34954065
v -1.99188782 -0.63960911 -0.29166821
v -2.00034429 -0.42789585 -0.57861158
v -2.00156166 -0.57113662 -0.35613885
v -2.00139643 -0.58670450 -0.82665858
v -1.99601986 -0.45240341 -0.89149657
v -1.98795130 -0.41864764 -0.32087907
v -2.00160577 -0.32011330 -0.82855078
v -1.99328567 -0.06244431 -0.89813074
v -2.00096966 -0.10044397 -0.45235670
v -1.99306561 -0.18089810 -0.35581532
v -2.00081469 -0.05421872 -0.78397372
v -1.99439575 0.06646388 -0.39020464
v -2.00083329 0.20785635 -0.62368676
v -1.99818017 0.21620839 -0.89510569
v -1.99888422 0.37193577 -0.43582198
v -2.00162198 0.39089595 -0.84547177
v -2.00125529 0.47741054 -0.58346805
v -1.98853184 0.42882650 -0.89867487
v -2.00097443 0.59875422 -0.85539350
v -1.98114492 0.55376368 -0.89933488
v -1.99793054 0.68944507 -0.48562217
v -2.00182368 0.77694147 -0.65666494
v -1.99348714 0.78861051 -0.89890334
v -2.00150468 1.01398354 -0.83188179
v -2.00117375 1.16101854 -0.62232771
v -1.99498011 0.98441200 -0.51916459
v -1.99071051 0.95737701 -0.90039924
v -1.99884297 1.00744932 -0.89431158
v -1.99753978 1.20777660 -0.89150610
v -1.99394299 1.27562933 -0.55925235
v -2.00238730 1.51556068 -0.72838822
v -1.99439790 1.43094151 -0.89732352
v -1.99839832 1.55313234 -0.60218683
v -1.99406959 1.78398709 -0.89937690
v -2.00368907 1.83205371 -0.81178811
v -1.99630167 1.89135318 -0.64557359
v -1.87389065 1.80600028 -0.60726353
v -1.99953844 1.98818522 -0.69167140
v -1.99727871 1.98236923 -0.88874718
v -1.99511434 1.99800425 -0.79447320
v -1.94529130 -2.00164122 -0.53855070
v -1.92631675 -2.00075431 -0.10389780
v -1.93860628 -1.96123691 -0.09116950
v -1.89351537 -1.75277157 -0.90122357
v -1.93831255 -1.52686019 -0.90069529
v -1.89339306 -1.33388085 -0.90131053
v -1.90617706 -1.42380590 -0.16038383
v -1.98789074 -1.14921702 -0.90202317
v -1.90728428 -1.13348557 -0.20243949
v -1.90303900 -0.82097055 -0.24559101
v -1.87783839 -0.92299468 -0.90137526
v -1.87431182 -0.73000814 -0.90089515
v -1.94125416 -0.35831876 -0.90122625
v -1.91671612 -0.42578354 -0.30242517
v -1.90708687 -0.02788703 -0.35626981
v -1.90224077 -0.09571312 -0.90196809
v -1.88591005 0.16196363 -0.90115687
v -1.92058040 0.35531716 -0.41372755
v -1.87678112 0.66000311 -0.44811371
v -1.89410617 0.67424314 -0.90160921
v -1.94148971 1.02494674 -0.50990584
v -1.95454528 1.05089109 -0.90117457
v -1.97580458 1.06945663 -0.90145102
v -1.89244129 1.28585606 -0.53819880
v -1.90097739 1.53338986 -0.57503983
v -1.88781680 1.54181533 -0.90146717
v -1.80675139 1.75932293 -0.90087393
v -1.87667217 2.00409036 -0.68315658
v -1.91959526 -1.99794311 -0.89258268
v -1.88549282 -2.00121422 -0.23036495
v -1.92413570 -1.91537697 -0.90236428
v -1.83869554 -1.13095457 -0.90091702
v -1.90242841 -0.49170120 -0.90082404
v -1.86774053 0.90319603 -0.90076318
v -1.94623400 1.27291255 -0.90188399
v -1.89422013 1.92684798 -0.90296122
v -1.92933561 1.98586993 -0.64425519
v -1.79059233 1.99432879 -0.89765474
v -1.70883192 2.00247722 -0.78844932
v -1.79712726 -2.00249059 -0.82505622
v -1.83848550 0.37009876 -0.90101477
v -1.76648416 -2.00032658 -0.43475985
v -1.75812806 1.23118286 -0.90008786
v -1.87178065 -1.99550111 -0.07806922
v -1.82060041 -1.90659649 -0.07737990
v -1.73230244 0.93450194 -0.45979178
v -1.77590300 -1.48511774 -0.90026614
v -1.66579797 1.93618636 -0.58580986
v -1.67086865 -1.92018278 -0.90106711
v -1.80754079 -2.00013454 -0.06836404
v -1.62722196 -0.60431036 -0.22453487
v -1.73706831 -0.30198378 -0.28760558
v -1.67372979 1.40368681 -0.51453581
v -1.81835510 -1.98571606 -0.06568179
v -1.67784800 -1.36767788 -0.12716762
v -1.71282436 -1.00164921 -0.18484339
v -1.67470135 0.35453682 -0.36785215
v -1.65187825 -1.60938306 -0.89994940
v -1.67894270 -0.97609205 -0.89997628
v -1.70038833 -0.42234402 -0.89997938
v -1.72181215 -0.15759958 -0.90007356
v -1.70419051 0.03906511 -0.32915154
v -1.62822057 0.07342522 -0.89989105
v -1.65584852 0.75461834 -0.89995792
v -1.73852517 1.99893789 -0.61253920
v -1.63407351 -1.99864848 -0.89262137
v -1.68074979 0.52383738 -0.90001324
v -1.65114035 -2.00159426 -0.14419417
v -1.76774194 -1.98376627 -0.05590025
v -1.70935048 -1.94364972 -0.05025215
v -1.63550343 -1.84165819 -0.05191167
v -1.50653328 -0.84630312 -0.16730712
v -1.66986658 1.60874968 -0.54255882
v -1.68884041 -1.99137659 -0.04299996
v -1.60924472 -1.15716476 -0.89996698
v -1.61768927 0.61442136 -0.39339375
v -1.65756609 -0.68509532 -0.90026203
v -1.57415082 1.01022272 -0.89993957
v -1.56682100 1.94354777 -0.90211400
v -1.60041453 -2.00042601 -0.67573991
v -1.51230587 -0.51694543 -0.89985713
v -1.55303218 0.28704809 -0.89993188
v -1.60039319 1.13151305 -0.46256852
v -1.55702390 1.79712587 -0.54718736
v -1.56812312 -1.99983461 -0.39880425
v -1.46438243 -1.77079708 -0.90043756
v -1.53400077 -0.16075848 -0.26905733
v -1.56042709 1.72228460 -0.90013251
v -1.51179435 -1.53770180 -0.07197004
v -1.54675247 -1.31529457 -0.89988640
v -1.57517411 1.46775155 -0.89999995
v -1.57662632 1.99611478 -0.58135143
v -1.53374995 2.00148015 -0.65601554
v -1.52865304 -1.99023325 -0.01376796
v -1.50481035 0.17130702 -0.30995387
v -1.49626495 -0.81725232 -0.89997253
v -1.53861167 -0.22436432 -0.89990213
v -1.43665029 0.86170988 -0.39365065
v -1.45380165 0.55089306 -0.89990964
v -1.46288957 1.26201205 -0.89992830
v -1.46655108 1.35330098 -0.46820661
v -1.38178636 1.73302822 -0.50519907
v -1.51275422 -1.07905753 -0.13595612
v -1.42971386 -0.37312662 -0.21948132
v -1.41623797 1.99636345 -0.89583340
v -1.40993370 2.00202923 -0.83674213
v -1.44315995 -1.86020322 -0.01235569
v -1.38322915 0.95402234 -0.89995512
v -1.30915858 -1.93250568 -0.90246543
v -1.34763409 -2.00061340 -0.14738266
v -1.36653198 -1.32421274 -0.89990428
v -1.37076618 -1.00957812 -0.89995751
v -1.34112658 -0.67163203 -0.89995524
v -1.36194672 0.01746659 -0.89995900
v -1.35109104 -0.05862103 -0.24855509
v -1.36308624 0.38039254 -0.31227809
v -1.34000136 -2.00096364 -0.78715584
v -1.28789880 -0.53488928 -0.16934845
v -1.38010134 -0.23272007 -0.89996043
v -1.33311393 1.56546896 -0.89985713
v -1.34808685 -1.99982448 -0.48552298
v -1.41523208 -1.99134309 0.00978463
v -1.45039751 -1.13055498 -0.11921053
v -1.41921438 -0.96273274 -0.14274083
v -1.37325908 0.32257794 -0.89997199
v -1.29378368 2.00111132 -0.72051301
v -1.41061510 -1.56706376 -0.89992049
v -1.30688931 0.59361874 -0.33145937
v -1.28835394 1.91961556 -0.51253101
v -1.32219400 -1.66824372 -0.01729169
v -1.22105755 1.45491366 -0.43573707
v -1.33733572 1.99642902 -0.54236552
v -1.24433579 -1.99454315 -0.89572295
v -1.36323704 -1.38955946 -0.06577898
v -1.35331918 -1.26255418 -0.13453460
v -1.31252195 -1.04057504 -0.20545016
v -1.28105976 0.18476998 -0.26929188
v -1.22792138 0.65194862 -0.89998469
v -1.26316644 1.13427894 -0.39882865
v -1.33656599 -0.77879671 -0.15323774
v -1.30305375 -0.39104066 -0.89998010
v -1.22642304 1.84827142 -0.90077445
v -1.30705191 1.97695522 -0.89933231
v -1.31178297 -0.88063545 -0.19021757
v -1.22108127 1.32816212 -0.89996555
v -1.24154152 2.00252347 -0.56422916
v -1.25612523 -2.00198455 0.00467685
v -1.30636241 -1.99090071 0.03045860
v -1.26879896 -1.89584155 0.02564980
v -1.19344010 -1.48403127 -0.89993551
v -1.22249784 -1.18432916 -0.22716415
v -1.18308594 -0.88235654 -0.89999577
v -1.17189636 -1.71883531 -0.90016833
v -1.14857401 -1.40982182 -0.15119363
v -1.14373233 -1.13773574 -0.89999160
v -1.15949001 -0.24772366 -0.18545981
v -1.21928550 -0.14470380 -0.89999410
v -1.18530394 0.43848472 -0.89999714
v -1.17240454 0.83808272 -0.89999655
v -1.17971374 -2.00008364 -0.26057053
v -1.15021350 0.21066861 -0.89999708
v -1.20417847 -1.54725273 -0.01746847
v -1.14618291 0.43974154 -0.27931940
v -1.18661048 -1.97875686 0.05131120
v -1.05623414 -1.76609940 0.04749213
v -1.12983360 -1.30630017 -0.89997664
v -1.06016137 -0.60418303 -0.18932794
v -1.12077643 -0.62705548 -0.89999810
v -1.15362717 0.85090690 -0.33832747
v -1.13960983 1.09052675 -0.89999595
v -1.11736407 1.69005327 -0.89994040
v -1.13358070 -1.99989350 -0.48228583
v -1.16246714 -0.86543364 -0.24711367
v -1.12412001 -0.55136400 -0.14132748
v -1.07606282 0.01477550 -0.20647623
v -1.12317003 1.71947770 -0.45412880
v -1.07776787 -0.38249866 -0.90000084
v -1.01656629 0.01881825 -0.90000209
v -1.03763069 1.17762499 -0.36203417
v -1.09606816 -2.00090785 -0.74316761
v -1.01484825 1.93533449 -0.46259659
v -1.06824805 -2.00128276 -0.03623625
v -1.05357410 -1.53345294 -0.07120085
v -1.03126635 -0.36097477 -0.14468224
v -1.06114890 0.68388097 -0.29729509
v -0.99990632 1.98238354 -0.89956447
v -1.07705726 2.00079565 -0.83625594
v -1.10368480 1.99753313 -0.49475589
v -1.05974974 -1.94138665 0.07203802
v -1.08742429 -1.05012740 -0.27972126
v -1.01535453 -1.27680511 -0.24028681
v -0.91662885 0.23238622 -0.20640355
v -0.97960355 1.48893325 -0.89992085
v -1.04849245 2.00163894 -0.56400362
v -0.97024633 -1.99933500 0.08313946
v -0.89063932 -1.64867492 -0.89994743
v -1.01060082 -1.63755233 0.03527742
v -0.89352741 1.59186094 -0.39269689
v -0.97266735 -1.99987609 -0.30496877
v -0.96542157 0.63769822 -0.90000197
v -0.94910242 1.21858292 -0.89999714
v -0.96779289 -1.99926002 -0.88701340
v -0.91972698 -1.43703408 -0.89995977
v -0.93815412 -0.22509817 -0.90000227
v -0.91979219 -1.90789575 -0.90132508
v -0.96283390 -1.08792020 -0.28290912
v -0.93871714 -1.11922980 -0.90000293
v -0.93882610 -0.82140357 -0.27461782
v -0.86041518 -0.82450075 -0.90000203
v -0.92413069 0.90693348 -0.30246881
v -0.86716099 1.81861405 -0.41896313
v -0.95305993 -1.43149669 -0.16390517
v -0.90723397 -0.62525959 -0.90000102
v -0.92560615 0.56745409 -0.25471195
v -0.95836307 0.93575006 -0.90000352
v -0.90591397 1.41107099 -0.36970806
v -0.87678231 -2.00024671 -0.65648487
v -0.85635896 -1.57068164 -0.01893863
v -0.94112207 0.29096936 -0.90000191
v -0.79195471 1.90445690 -0.90132907
v -0.85488846 -1.90767760 0.10640474
v -0.89889254 1.70806675 -0.90017113
v -0.84844293 -2.00022085 -0.12885347
v -0.82713588 2.00098257 -0.57235810
v -0.86226459 1.99871473 -0.45089871
v -0.84812500 -0.42617841 -0.90000090
v -0.84709497 -0.07152311 -0.15051775
v -0.78761359 1.19711964 -0.31724816
v -0.83947279 -1.67297382 0.07358731
v -0.76516982 -0.48311297 -0.23345455
v -0.82291331 -0.25037293 -0.12661030
v -0.76286657 2.00082593 -0.82726249
v -0.74597158 -1.32780708 -0.17701927
v -0.78442492 -1.35043223 -0.89998343
v -0.82304986 -1.15193839 -0.26027968
v -0.73163249 0.25650357 -0.90000054
v -0.81873442 0.80925517 -0.90000167
v -0.75073202 1.28757684 -0.89997902
v -0.72824140 -1.99982614 -0.33271977
v -0.77656718 -0.93892850 -0.27636218
v -0.74702175 -0.28819276 -0.17283001
v -0.75356628 -0.06866638 -0.90000060
v -0.79124905 0.51153927 -0.90000072
v -0.73167159 0.99788075 -0.90000185
v -0.72835978 1.53628557 -0.89989081
v -0.71576853 -2.00109179 0.00071304
v -0.75269152 -1.11449803 -0.90000221
v -0.70926418 0.74390619 -0.23981807
v -0.72377528 -2.00157387 -0.81203696
v -0.77335669 -1.99339337 0.13055949
v -0.79421945 0.56614887 -0.23128156
v -0.75988372 -1.77706225 -0.90019455
v -0.77531649 -1.47010488 -0.09965715
v -0.77524574 1.96031337 -0.41990292
v -0.63189681 -0.58086912 -0.90000018
v -0.70044513 0.90649896 -0.25953224
v -0.63294466 1.69571357 -0.90005085
v -0.75573100 1.99192672 -0.89925173
v -0.67262270 -1.93588049 -0.90115431
v -0.64051803 -1.55953128 -0.89993945
v -0.66308327 -0.28178686 -0.90000024
v -0.66046025 -1.99780733 -0.89212301
v -0.58962251 0.08415820 -0.90000006
v -0.67178704 -1.58378155 0.08321677
v -0.69120939 -0.57846333 -0.26239928
v -0.71097352 0.30836545 -0.18264103
v -0.63763596 0.64837222 -0.90000048
v -0.66451486 1.44562416 -0.32868504
v -0.58178248 1.71790438 -0.35097259
v -0.67482753 1.99614697 -0.40997398
v -0.57780893 -0.98446197 -0.23089701
v -0.60983528 -0.66893465 -0.27045140
v -0.58343412 2.00031691 -0.59318700
v -0.61573787 -1.99992390 -0.47776216
v -0.60389365 -1.89453299 0.15203810
v -0.54001869 -1.76195009 -0.90024838
v -0.62484969 -1.44492669 -0.03408456
v -0.54033639 -0.88558931 -0.90000078
v -0.51912107 1.93447189 -0.36758029
v -0.53075476 -1.69480736 0.13700150
v -0.63522156 -0.06439276 -0.11744389
v -0.64036967 0.02081694 -0.12475742
v -0.56005170 1.14709180 -0.26698029
v -0.55353631 -0.79508535 -0.25896540
v -0.55951835 0.33891635 -0.22073623
v -0.53341468 0.51722674 -0.23873734
v -0.55675908 -1.99783714 0.16820546
v -0.52740629 -1.35686566 -0.89997479
v -0.49466188 -1.08533270 -0.16847269
v -0.53052755 -0.15044748 -0.19172123
v -0.45972295 -0.47512101 -0.89999995
v -0.56569787 0.88002973 -0.90000167
v -0.52230020 1.32821601 -0.89996692
v -0.47559090 -2.00226910 0.15205850
v -0.37586840 -1.12316967 -0.08131078
v -0.52531310 -1.11759008 -0.89999887
v -0.46005996 0.07547351 -0.18516213
v -0.48733337 0.47683911 -0.90000000
v -0.45367660 1.88063126 -0.90156445
v -0.49719234 1.99345474 -0.89902535
v -0.43361409 2.00093107 -0.43188828
v -0.50497110 -2.00140245 -0.83420119
v -0.47744800 -0.21374510 -0.89999995
v -0.44732358 -2.00015385 -0.63410005
v -0.49732341 -1.46135540 0.10615765
v -0.43800123 -0.31494556 -0.24849349
v -0.45925482 0.30365043 -0.90000000
v -0.45840277 0.63651501 -0.22671065
v -0.46070852 1.52032285 -0.30042285
v -0.40369113 1.99365549 -0.35827029
v -0.51675733 -0.00619088 -0.14453417
v -0.50383212 0.79006808 -0.21052839
v -0.44743128 -1.92514653 -0.90162399
v -0.40691157 0.92751913 -0.20687553
v -0.48283608 1.05765383 -0.90000185
v -0.46535863 -1.99988217 -0.34503332
v -0.47165997 -2.00003607 -0.15803756
v -0.46010770 -1.93479533 0.18523154
v -0.33704709 -1.23554225 0.04361207
v -0.40380766 0.76634078 -0.90000138
v -0.45332058 2.00089460 -0.82810852
v -0.36035220 -2.00044961 0.02537289
v -0.41446127 -1.99428995 -0.89713880
v -0.39808418 -0.73651261 -0.90000024
v -0.31580992 1.35463505 -0.24969719
v -0.35843431 1.57878082 -0.89988658
v -0.37082602 -1.51720424 0.14226100
v -0.42841424 -1.98704476 0.19737727
v -0.35887303 -1.57979174 -0.89991543
v -0.28534769 -1.22846032 -0.89999524
v -0.36161186 2.00035553 -0.68974748
v -0.33763217 -1.03782029 -0.90000078
v -0.37212236 -0.50931339 -0.25779489
v -0.24267917 -2.00092382 -0.79438481
v -0.25953357 -0.09772916 -0.89999995
v -0.25964298 -1.22043980 0.11524869
v -0.27662949 -0.86613769 -0.15771350
v -0.33087976 -0.70618347 -0.22484469
v -0.34948711 -0.05219249 -0.20813027
v -0.23521207 -1.75332994 -0.90012553
v -0.26239748 -1.79498739 0.20207067
v -0.30869438 0.15885263 -0.90000000
v -0.25690206 0.73891513 -0.15584841
v -0.28156792 1.34558706 -0.89993879
v -0.21759696 -1.99987967 -0.31049424
v -0.29173522 -1.95986695 -0.90169522
v -0.26585801 -0.40859410 -0.89999995
v -0.21752305 0.35836958 -0.23093441
v -0.18713467 0.98195987 -0.90000054
v -0.29905914 1.15285246 -0.89998373
v -0.19299175 1.14078240 -0.19642033
v -0.22085039 1.81236105 -0.90116343
v -0.23788856 0.34069305 -0.89999995
v -0.26713015 1.72181206 -0.29175296
v -0.22765447 1.91707330 -0.31052816
v -0.28458525 1.99089437 -0.89919129
v -0.19610165 2.00073915 -0.46199277
v -0.18280725 -0.02322228 -0.23087406
v -0.25758963 0.16440170 -0.23510513
v -0.29631590 -1.99197466 0.22196305
v -0.17193942 -0.81864853 -0.90000072
v -0.23147036 0.54570876 -0.90000018
v -0.28441481 -1.99727340 -0.88989618
v -0.17890458 0.78189473 -0.90000084
v -0.08932021 0.89186161 -0.14153390
v -0.24399503 -1.41717489 -0.89995947
v -0.19011308 -1.33730144 0.15159324
v -0.12263125 -0.42127990 -0.22897901
v -0.19490628 -0.27238185 -0.24884573
v -0.26565571 0.63912665 -0.18845531
v -0.18136759 2.00119619 -0.85870120
v -0.14909764 -2.00186117 0.22108919
v -0.11505272 -1.58832271 0.20030357
v -0.16196643 1.99918251 -0.32204646
v -0.07146129 -2.00010128 -0.64788666
v -0.14968591 -0.51542753 -0.89999995
v -0.15504877 -1.99629898 -0.89729223
v -0.18971269 -2.00134964 -0.87721613
v -0.09993971 -2.00004692 -0.02052215
v -0.18130596 -1.99480648 0.24236633
v -0.06375686 -0.91854532 0.01614279
v -0.08413486 1.61328452 -0.89987829
v -0.10378140 1.64884238 -0.25058046
v -0.00791515 2.00072365 -0.73743752
v -0.04521044 -0.96569486 -0.90000173
v 0.03138882 0.18416743 -0.90000000
v -0.06162949 0.50102704 -0.16788503
v -0.03645186 -1.95047874 -0.90161022
v -0.07769114 -0.55401565 -0.18702116
v -0.01569504 -0.20581188 -0.90000000
v -0.08588460 1.99423914 -0.89856842
v -0.09532122 -1.94468946 0.25675884
v -0.05915545 -1.51834173 -0.89993414
v -0.04410124 1.12446134 -0.89999649
v -0.00574918 -1.79666002 -0.90037033
v -0.07300648 -0.74986903 -0.10487198
v -0.03618415 1.88027196 -0.26901215
v 0.03295101 -1.22664029 -0.89998844
v -0.02979660 -0.64334364 -0.90000018
v 0.02225383 -0.01702205 -0.90000000
v 0.00031365 0.10736679 -0.23358899
v -0.09469329 -2.00152500 -0.86724415
v -0.06060727 -1.03494997 0.13175900
v 0.03446581 0.43476014 -0.90000006
v -0.00340443 0.74745231 -0.90000126
v -0.02392826 1.47125523 -0.21059003
v -0.03729212 0.68055301 -0.10215843
v 0.03589670 -1.99991746 -0.42473492
v 0.01591396 1.31648033 -0.89996132
v -0.06836502 -1.99265344 0.26573300
v 0.10767371 -1.87402732 0.28388381
v 0.01996275 0.26643883 -0.21189013
v 0.06843155 -1.35893590 0.20333876
v 0.07298504 1.85662704 -0.90111843
v 0.08325981 2.00068479 -0.43597606
v 0.13022649 -1.68623299 0.26080969
v 0.06026237 -1.14081110 0.17233117
v 0.14714002 -0.38165538 -0.90000000
v 0.15757875 -1.99734003 -0.88995233
v -0.01553534 -2.00186236 -0.85318187
v 0.03013187 -0.10547439 -0.23734587
v 0.12776126 -2.00050516 0.08095618
v 0.11544212 -1.99990888 -0.20198296
v 0.02157479 -1.99859030 0.27734029
v 0.10513249 0.78900104 -0.08957618
v 0.18773877 1.99351864 -0.24520385
v 0.02936850 -0.83195428 0.02250998
v 0.03946261 -0.55647847 -0.14256191
v 0.03866281 0.46311288 -0.15200458
v 0.02672405 0.59431647 -0.09670501
v 0.10216072 -1.98451252 0.29699424
v 0.03585548 -0.96902360 0.14217150
v 0.06217784 -0.31664274 -0.21600768
v 0.21786233 0.99238448 -0.09680109
v 0.10983075 1.20674448 -0.14806883
v 0.11295089 1.56450122 -0.89994612
v 0.12235456 -2.00176663 -0.82085302
v 0.14741712 1.99800830 -0.88340863
v 0.22030578 -2.00204534 0.27512080
v 0.08419521 -0.88692928 0.03111981
v 0.14205647 -0.76708580 -0.09139690
v 0.16361568 -0.67673204 -0.90000048
v 0.16907086 -0.53772261 -0.18845697
v 0.17709000 1.55808013 -0.18450190
v 0.18173095 -2.00021214 -0.65052697
v 0.21617950 -1.65347905 -0.90000871
v 0.19729899 -1.35582412 -0.89995727
v 0.11268644 -1.03986604 0.15869434
v 0.18466638 0.52504467 -0.16822769
v 0.15860225 0.72928088 -0.07708419
v 0.26871417 1.89014154 -0.21216082
v 0.22805737 -1.91790147 -0.90123317
v 0.21582220 1.06528990 -0.89999875
v 0.26412436 -0.99645961 -0.90000203
v 0.29114322 0.36624401 -0.21749705
v 0.22800302 0.80716233 -0.90000096
v 0.24115294 1.42447798 -0.89993861
v 0.27281864 -1.07339568 0.02725687
v 0.32290362 -0.43588702 -0.23412500
v 0.28944006 -0.13993245 -0.23025319
v 0.28092499 -1.99993963 -0.46403149
v 0.26723708 -1.42980821 0.25242385
v 0.23173545 -0.11268970 -0.89999995
v 0.23837238 0.07867675 -0.89999995
v 0.24714005 0.11211108 -0.22588266
v 0.27012110 0.58217334 -0.90000018
v 0.27907252 1.30113249 -0.12909315
v 0.26808300 2.00003271 -0.55803248
v 0.21188660 0.36380552 -0.90000000
v 0.29309285 1.93302589 -0.90162972
v 0.32291978 2.00145536 -0.82465950
v 0.29637195 -1.99997396 -0.06891000
v 0.31169508 -0.78860144 -0.15676707
v 0.41256712 0.85028963 -0.12343109
v 0.26779927 -1.98772271 0.32784218
v 0.29437689 -1.27594550 0.23203701
v 0.36533476 -1.00145073 -0.08557869
v 0.33855662 1.72307615 -0.90003702
v 0.31854929 -2.00113351 -0.81034568
v 0.33712935 0.92144446 -0.06775446
v 0.34592677 -2.00041182 0.15393660
v 0.32376331 -1.21984423 0.12506108
v 0.38251443 0.33065133 -0.89999995
v 0.40052016 1.27348952 -0.89997867
v 0.45806591 2.00129109 -0.31597924
v 0.48044152 -1.66430790 0.32501611
v 0.55060212 -1.62602479 -0.89991400
v 0.34679253 -1.99617071 -0.89695355
v 0.47049977 -1.99994404 -0.26100975
v 0.37558062 -1.16849978 -0.89999220
v 0.36795975 -0.73698107 -0.90000066
v 0.42604144 1.72939878 -0.16097171
v 0.39361895 -1.92244239 0.34585887
v 0.47997804 -0.57695718 -0.90000006
v 0.46306537 -0.28993867 -0.90000000
v 0.37335108 -0.01301495 -0.19449691
v 0.48461623 0.64385896 -0.90000036
v 0.48138772 1.98434382 -0.90033653
v 0.47241996 -1.37971945 -0.89997020
v 0.52735971 -0.82922233 -0.20610218
v 0.42569788 0.16655361 -0.20672300
v 0.44722201 1.03709428 -0.90000036
v 0.46240099 1.38702266 -0.10623943
v 0.49305616 -2.00025005 -0.70778230
v 0.45149086 -1.92044980 -0.90185812
v 0.51274006 -0.42977940 -0.23532106
v 0.46169080 -0.11645355 -0.90000006
v 0.42142312 1.10275595 -0.07326347
v 0.45797394 0.12081053 -0.90000000
v 0.44211446 0.68351905 -0.18356281
v 0.49092521 0.84671919 -0.90000144
v 0.49559401 2.00004320 -0.58885881
v 0.54436053 1.99801879 -0.18533003
v 0.52538933 -2.00103660 0.24918217
v 0.43846308 -1.41663225 0.24427390
v 0.53525366 -2.00001449 0.01700602
v 0.47328694 -1.99229832 0.36695874
v 0.48246653 -1.30957134 0.04858372
v 0.55852966 -0.95014073 -0.90000191
v 0.59632911 1.52054315 -0.89992180
v 0.51310612 -1.99997671 -0.46160859
v 0.58410691 -1.48146899 0.13574036
v 0.51618491 1.79886656 -0.90032789
v 0.54045762 -0.07291747 -0.15930416
v 0.60119001 0.01502146 -0.11501425
v 0.63907049 0.46005105 -0.20504311
v 0.52091430 -1.53406627 0.31155858
v 0.60614492 -1.20106037 -0.89999363
v 0.63242148 -0.35732408 -0.21225494
v 0.52498181 -2.00096614 -0.87500337
v 0.53886203 -1.19540740 -0.07453353
v 0.65398644 0.44512181 -0.90000030
v 0.62145929 1.63627474 -0.11092494
v 0.62234156 1.91224198 -0.14824875
v 0.66524903 2.00123601 -0.81616750
v 0.67336355 0.71469729 -0.20171203
v 0.72413878 -1.99438507 -0.89709839
v 0.67070786 -1.99994428 -0.11470694
v 0.66815035 -1.85013933 -0.90108475
v 0.63769220 -1.11769183 -0.15618516
v 0.64226632 1.16339331 -0.89999607
v 0.56222103 1.13221793 -0.05749302
v 0.63448922 0.03327986 -0.90000036
v 0.66641675 0.28937017 -0.17584836
v 0.69037233 0.92101579 -0.17423320
v 0.66710530 -2.00014253 -0.66123035
v 0.63289468 -1.98293943 0.39736596
v 0.62226502 -1.57787175 0.26547554
v 0.63435118 -1.40935953 0.00954131
v 0.73348801 1.86810951 -0.90139380
v 0.64331244 -0.45191471 -0.90000036
v 0.77002077 -0.27803710 -0.15069862
v 0.74329017 -0.10698951 -0.90000084
v 0.76632498 0.72991853 -0.90000138
v 0.73224138 1.17259746 -0.10624377
v 0.69236944 1.99152665 -0.89860913
v 0.68397258 -1.99994559 -0.42735854
v 0.77339487 -1.82744796 0.40516761
v 0.64214580 -1.62014372 0.34228841
v 0.68451296 -0.72987981 -0.23762499
v 0.69280200 1.99996142 -0.50672862
v 0.76094256 -1.32076127 -0.11504780
v 0.74265002 -0.69598718 -0.90000126
v 0.75665115 2.00148683 -0.20239958
v 0.74337326 -2.00073595 -0.82189759
v 0.69695334 -2.00186868 0.36730954
v 0.69194268 0.26760684 -0.90000042
v 0.73053966 1.44808464 -0.06390335
v 0.86209200 -0.69561390 -0.22917050
v 0.75110499 1.32423787 -0.04634327
v 0.76153134 -1.99994714 -0.27120125
v 0.80040024 -0.97175802 -0.90000346
v 0.83330022 0.23988979 -0.10043400
v 0.79588418 2.00064807 -0.71259335
v 0.76132570 -1.99996455 0.07289209
v 0.81180356 -2.00049324 0.26088163
v 0.77140109 -0.99880160 -0.21995143
v 0.81033228 -0.41104575 -0.90000084
v 0.76709007 0.99001830 -0.90000155
v 0.81671540 -1.99997849 -0.51772156
v 0.75906227 -0.07358624 -0.05655932
v 0.74299250 1.99509983 -0.13975437
v 0.76884638 -1.99449749 0.42343515
v 0.75033550 -1.58282955 0.13954255
v 0.83351140 -1.42926164 -0.89994517
v 0.81778912 0.08120419 -0.02726637
v 0.82968984 1.68778687 -0.90002170
v 0.81945287 -1.52207358 0.02702070
v 0.86593698 -1.96407874 -0.90206268
v 0.83259730 -0.02052717 0.03502278
v 0.83242987 1.36948066 -0.89996901
v 0.87289779 1.86205154 -0.09403222
v 0.92514877 -1.70458562 -0.89999083
v 0.82293872 -1.69820089 0.39180207
v 0.93567936 -0.28702592 -0.90000048
v 0.89108608 0.45163398 -0.90000084
v 0.81116454 -1.66667123 0.29045901
v 0.92231677 -1.14525319 -0.21586788
v 0.95962106 -0.28179662 -0.06226944
v 0.91135667 0.15054511 -0.90000108
v 1.03726087 -0.69618676 -0.19722363
v 0.90196208 0.63830369 -0.18297182
v 0.93682109 -2.00159628 0.42811751
v 0.97893314 0.54533039 -0.14646453
v 0.94817303 1.06728881 -0.90000209
v 0.95028381 1.99742632 -0.88969168
v 0.90071140 0.95312958 -0.19009592
v 0.93556426 -1.99993939 -0.12431942
v 0.87874727 -1.40458531 -0.09753745
v 0.91322206 0.05155017 0.07098648
v 0.92812924 1.60596471 -0.04823259
v 0.96376936 2.00101261 -0.26052540
v 0.94978092 1.99781208 -0.10463883
v 0.91735850 -1.97995753 0.45316598
v 0.94431268 -1.61816890 0.13066399
v 1.01097588 0.86971812 -0.18785538
v 0.97456340 2.00000458 -0.49469498
v 0.94544045 -1.99990923 0.05382437
v 0.96015881 -1.26204325 -0.89997962
v 0.92225616 1.12979572 -0.16651410
v 0.91259633 1.32398968 -0.09307456
v 1.01686077 1.86583357 -0.90096137
v 0.96002130 -2.00126083 -0.80092099
v 0.96110789 -0.93495567 -0.23857474
v 1.04772650 -0.22962807 0.04291732
v 1.00919919 1.46032910 -0.01465191
v 0.98276315 -2.00011809 -0.54980823
v 0.97670357 -1.69215960 0.31222069
v 1.11179612 -0.60007462 -0.14365844
v 0.93533693 -0.00593163 0.14813748
v 0.99690555 -1.99995859 -0.30096131
v 1.05331968 -0.56671257 -0.90000036
v 1.02245353 0.74418049 -0.89999965
v 0.98331849 1.48153620 -0.89994225
v 1.03126357 -2.00046987 0.31052169
v 1.06674228 -0.97560353 -0.90000167
v 0.99640505 -0.81131644 -0.90000251
v 0.98649184 -1.29717125 -0.16787563
v 1.08932195 -0.12411289 0.21408790
v 1.11214123 2.00240998 -0.86089662
v 1.13892327 -1.93488355 -0.90130266
v 1.06318937 -0.09120120 -0.89999947
v 1.06849144 0.57388114 -0.89999846
v 1.14899932 1.71729760 -0.89999929
v 1.23198186 1.88211064 -0.02852488
v 1.07750587 2.00020890 -0.69435766
v 1.02744625 -1.99940414 -0.88453820
v 1.10749183 -1.85075326 0.47246939
v 1.06795804 -1.71728988 0.44142088
v 1.09441833 -1.52930338 0.02254043
v 1.04866604 -1.40490372 -0.09917715
v 1.02317898 0.05954467 0.18253049
v 1.12475644 0.36569874 0.00233711
v 1.17063914 0.34330909 -0.89999476
v 1.09101592 1.39924495 -0.04917367
v 1.09754769 0.20281725 0.11155153
v 1.09163688 1.08723562 -0.17557302
v 1.16370557 -0.03884901 0.22761110
v 1.09170215 1.23039537 -0.14094290
v 1.19068549 1.56921547 0.00699405
v 1.12049649 -1.99995823 -0.42367110
v 1.11821483 -1.99990935 0.00731605
v 1.21290563 -1.99992640 0.18647868
v 1.18560038 -1.10511238 -0.89999118
v 1.19427274 -0.24979952 0.19122784
v 1.13764177 1.08963661 -0.89999494
v 1.17300092 -2.00012405 -0.58189770
v 1.05756824 -1.99195201 0.48032534
v 1.17192732 -1.15791179 -0.18848714
v 1.16081677 1.30892449 -0.89997873
v 1.19384180 -2.00165493 0.42401883
v 1.13990293 -1.61427970 0.16049896
v 1.16612993 0.58874719 -0.08944813
v 1.22080313 0.79599898 -0.13485728
v 1.14710592 -1.99995930 -0.18768690
v 1.21020768 -1.66276903 0.35566494
v 1.16400288 -1.48231478 -0.89991870
v 1.13338028 -0.94945635 -0.22203669
v 1.21010290 -0.71717922 -0.89998457
v 1.21916018 -0.31525317 -0.89998522
v 1.18397067 2.00135212 -0.13730600
v 1.22150360 -1.75026305 -0.90006807
v 1.21667681 0.13116436 -0.89998647
v 1.23744653 1.52324884 -0.89992282
v 1.17791794 1.99180727 -0.05639601
v 1.18797754 -1.99317129 0.50231502
v 1.21772669 -1.99775906 -0.89223191
v 1.21273790 0.22707187 0.19647738
v 1.22074888 -2.00092692 -0.74420145
v 1.24702750 0.88641720 -0.89998647
v 1.21974622 -1.37981839 -0.07334079
v 1.27241228 0.59206681 -0.89997801
v 1.24059056 1.25323575 -0.09787017
v 1.32193743 -1.32341362 -0.89995685
v 1.27092181 -0.56684874 -0.04629817
v 1.40427600 -0.47744161 0.16659685
v 1.31360422 1.99971275 -0.43656325
v 1.32334135 -1.64026124 0.47912595
v 1.27241765 1.45220285 0.03618365
v 1.30291365 1.98240094 -0.89972052
v 1.35506843 -1.95343251 0.53339902
v 1.31436048 -2.00161357 -0.83980039
v 1.31687294 -1.99992616 -0.06940047
v 1.34689210 -1.06387831 -0.13332087
v 1.28465281 -0.83920489 -0.15668528
v 1.40544508 -0.81255798 -0.89995023
v 1.29411529 0.41453945 0.10729397
v 1.39603458 2.00011258 -0.67175487
v 1.27500604 -1.99993164 -0.31711340
v 1.29618846 -1.50581272 0.09189982
v 1.36131297 -0.07375718 -0.89996663
v 1.26604627 1.05632358 -0.14153521
v 1.38078926 1.15022891 -0.89995971
v 1.30957089 1.36637049 -0.00545692
v 1.35298668 1.84467297 -0.90084842
v 1.29919837 -0.23112990 0.28095088
v 1.40290533 0.21689885 0.23672120
v 1.30336843 0.56923418 -0.00748948
v 1.26504026 0.92479758 -0.14435270
v 1.40422354 -0.55660714 -0.89996174
v 1.43792699 -1.57182450 -0.89995083
v 1.34640954 -1.31149585 -0.04805795
v 1.34220932 -0.71382136 -0.08595144
v 1.34706448 2.00163107 -0.83891019
v 1.41250287 -1.99983771 -0.47463131
v 1.46492372 -2.00057537 0.33910558
v 1.57724272 -1.82149107 0.55547848
v 1.35819743 -1.58681531 0.32263568
v 1.47773562 0.31425117 -0.89991948
v 1.41454850 1.36660545 -0.89993307
v 1.38367639 -0.35652785 0.31048247
v 1.43045877 0.46723621 0.20041706
v 1.38865612 0.72417085 -0.03667996
v 1.46576677 -0.06429271 0.28763932
v 1.42226229 1.02536183 -0.06511084
v 1.38283942 -1.99901659 0.53408012
v 1.46027325 -1.07133306 -0.89994761
v 1.44743346 0.86724119 -0.04015631
v 1.38843404 1.16435390 -0.06177319
v 1.40509413 1.99910479 -0.01580055
v 1.43189679 -1.39009411 0.08334658
v 1.46863113 -0.83235325 -0.03168336
v 1.43609415 -0.29117211 -0.89992633
v 1.64512227 -0.27580927 0.35160780
v 1.43657516 0.53288745 -0.89993176
v 1.52446376 1.85560255 0.03076410
v 1.49007080 -1.98770232 -0.89780369
v 1.45109342 -1.99989362 -0.25827184
v 1.50549100 -1.99989326 0.04834934
v 1.48752592 -1.86545308 -0.90133175
v 1.48012660 -1.46443732 0.25846541
v 1.42581831 -0.61394073 0.03940714
v 1.47611807 0.63123386 0.09238889
v 1.53971587 2.00030427 -0.24013397
v 1.48103688 1.56808715 0.06199788
v 1.50033699 -1.25558842 0.05677923
v 1.50303648 0.14410805 -0.89993843
v 1.50151454 0.99290876 -0.89993390
v 1.46120570 1.62451260 -0.89994833
v 1.44765876 1.99910717 -0.89570621
v 1.47252391 1.31322305 0.07332423
v 1.48031674 -1.51231260 0.41196489
v 1.61747978 0.54307889 0.23166941
v 1.51968525 -2.00004251 -0.62310246
v 1.54228602 -1.54945416 0.51118097
v 1.52738999 -1.02374304 0.00592791
v 1.50651453 -0.48338194 0.34863314
v 1.64163028 -0.02274273 -0.89997634
v 1.55076252 0.79941516 -0.89993349
v 1.57466803 1.85481315 -0.90077969
v 1.52268587 1.15944200 0.04359282
v 1.61058937 1.18443101 0.13881724
v 1.57554684 2.00000601 -0.49302345
v 1.59870933 -1.99982710 -0.13081600
v 1.75934242 2.00088387 -0.73066512
v 1.60123513 -2.00123365 -0.80847618
v 1.55544875 -1.99576230 0.57344970
v 1.53603767 -1.46572907 0.49135056
v 1.66054569 -1.36201377 -0.89987585
v 1.59676073 -0.92165948 -0.89998379
v 1.68551515 -0.25359886 -0.90009424
v 1.61406492 1.26960735 -0.89986643
v 1.66311227 2.00084667 -0.07629721
v 1.57019971 -0.70683185 0.15103182
v 1.57933841 0.83048551 0.09659496
v 1.67000995 1.99115806 0.03706712
v 1.62083636 -1.99986989 -0.34003305
v 1.72687100 -2.00201995 0.57586774
v 1.58924733 -1.31403477 0.24955464
v 1.57502626 1.01049690 0.06758846
v 1.74985014 -1.69798739 -0.90040430
v 1.68328963 0.28188996 0.28055573
v 1.75963341 1.54024642 -0.90023604
v 1.66254066 -1.99994643 0.15523601
v 1.59268223 -1.37841887 0.40675962
v 1.63112627 -0.93980462 0.15957016
v 1.60878180 -0.63634078 0.33317688
v 1.66975199 -0.53630544 0.39331889
v 1.62770878 0.43047356 -0.89998665
v 1.79003011 1.46620982 0.13561539
v 1.75581203 -2.00050290 -0.68184844
v 1.62803648 -1.16608013 0.19790278
v 1.73866199 -0.61100386 -0.90012672
v 1.72342704 0.02048390 0.32475674
v 1.69680808 0.63249319 -0.89995798
v 1.69321559 1.71494894 0.08179727
v 1.74290441 -1.99849148 -0.89277473
v 1.77536569 -1.33745475 0.52547404
v 1.62028251 -0.61919139 0.38960773
v 1.65099798 -0.44668351 -0.89999971
v 1.73452626 1.99075704 -0.89936283
v 1.76962589 0.19230704 -0.90032211
v 1.62795804 0.74402254 0.20059416
v 1.85826765 2.00148778 -0.45518514
v 1.77723752 -2.00075323 0.41945925
v 1.81078242 -1.96042080 -0.90199539
v 1.67355762 -1.23586519 0.48353201
v 1.66737602 -1.22573872 0.41893876
v 1.67910574 -1.12100090 -0.90002063
v 1.67203270 -0.80210118 0.32841659
v 1.78975235 -2.00024207 -0.48747301
v 1.83099280 0.50890772 0.27738541
v 1.74211584 0.87458747 -0.90035507
v 1.66424392 0.99549024 0.17486072
v 1.76527236 1.10231047 -0.90016380
v 1.69368420 -1.98932309 0.60018501
v 1.70211826 -1.01790024 0.36472970
v 1.69702385 -0.81003232 0.42970133
v 1.78920613 -2.00022275 -0.19237377
v 1.77585243 -0.83698748 -0.90015748
v 1.88805471 1.22328405 0.18947457
v 1.82146250 0.78516953 0.23714571
v 1.82356714 -1.90347428 0.61570141
v 1.72336887 -1.05106164 0.47045559
v 1.79286168 -0.98098142 0.47938082
v 1.84560548 -1.08440263 -0.90054390
v 1.80200027 -0.71814800 0.44436640
v 1.89183281 0.98612325 0.22347112
v 1.85378383 -2.00306244 -0.83966282
v 1.89021204 1.83245878 0.10537933
v 1.87359832 -2.00172348 0.20026949
v 1.82238076 -1.99665029 0.62368885
v 1.88511012 2.00254803 -0.03146583
v 1.89801369 -0.06645794 -0.90199086
v 1.88233505 -2.00160224 -0.02961227
v 1.91172133 -0.38193584 0.41850364
v 1.92358528 -0.10900531 0.38275549
v 1.86899160 0.40008204 -0.90118274
v 1.89496289 1.88872032 -0.90233859
v 1.91211496 -0.37359095 -0.90123328
v 1.90748511 0.10180082 0.35001993
v 1.90044521 -1.32680995 -0.90167901
v 1.85662792 1.99571734 0.07381293
v 1.94483159 -1.62778122 0.59887257
v 1.93127368 -0.63221167 0.45929819
v 1.92058526 0.87473588 -0.90211597
v 1.94338237 -2.00164254 -0.59713516
v 1.94675694 -2.00147779 -0.39750028
v 1.94152032 -1.00803847 0.51269516
v 1.92739867 1.20655816 -0.90174249
v 1.94073687 -0.72938610 -0.90114239
v 1.92341803 2.00067024 -0.89356276
v 1.93682633 0.62619745 -0.90213480
v 1.94322930 1.45910125 -0.90198168
v 1.93528233 -1.99355955 0.64716825
v 1.96626805 -1.77315695 -0.90213063
v 1.95653127 0.33321195 0.32660654
v 1.96284257 -1.07356985 -0.90139285
v 1.96678565 0.73290711 0.27354899
v 1.97891448 -1.99868901 -0.89214173
v 1.95940576 0.55388897 0.29662770
v 1.97025464 2.00226073 -0.73500779
v 1.98002361 -1.99946208 -0.76909295
v 1.98560892 -2.00279541 0.58703980
v 1.98621629 -1.36543579 -0.90149620
v 1.96625875 0.26220917 -0.90217766
v 1.97306190 1.99818807 0.09414023
v 1.98752151 -1.51952321 -0.89787206
v 1.99249266 -1.99839420 -0.15648995
v 1.99374567 -1.99870880 0.13765486
v 1.98248719 -1.47982581 0.58352342
v 1.99261556 -1.07015688 0.52570269
v 1.99643563 -0.83886019 0.49006105
v 1.99275683 -0.10086800 -0.89652595
v 1.98624609 0.06548642 -0.89893004
v 1.99356948 0.51784175 -0.89630416
v 1.99668239 1.08883159 0.21956001
v 1.99277018 1.36526995 0.18586896
v 1.98948954 1.52896195 0.16474570
v 1.99215649 1.74943214 0.13253529
v 1.99328254 1.99755960 -0.42421144
v 1.99836252 -1.98752208 -0.52628687
v 1.99899803 -1.99261124 0.38182706
v 1.99795709 -1.96264441 0.64634273
v 1.99942683 -1.24150742 -0.88509503
v 1.99734150 -1.31425537 0.55815539
v 1.99851475 -0.71059347 -0.89124450
v 1.99742649 -0.48166147 -0.89233431
v 1.99435304 -0.55878317 0.45310155
v 2.00022374 -0.38212877 0.40514952
v 1.99353216 -0.18157006 0.40195143
v 1.99547683 0.09311001 0.36253849
v 1.99698363 0.23563151 0.33538881
v 1.99838947 0.47499149 0.30593133
v 1.99831627 0.65952640 0.28305507
v 1.99539207 0.66792052 -0.89262017
v 1.99465285 0.90377538 -0.89685961
v 1.99539958 0.84065096 0.25898436
v 1.99450706 1.11855559 -0.89735511
v 1.99745439 1.29355984 -0.88607928
v 1.99285053 1.24144559 0.20419276
v 1.99945615 1.89637141 -0.88299462
v 1.99890266 1.92535715 0.09421938
v 1.99397288 1.98528962 -0.89689872
v 1.99559139 1.99826770 0.04597233
v 1.99886249 -1.95466120 -0.89614615
v 2.00147150 -1.84439940 -0.88946995
v 1.99792586 -1.77474744 0.62199625
v 1.99820064 -1.62215204 -0.89807352
v 1.99806402 -1.58159299 0.59553990
v 2.00018380 -1.10707296 -0.88925275
v 1.99864994 -0.95336313 -0.89507952
v 1.99887012 -0.35691320 -0.89138320
v 1.99171434 -0.26089281 -0.90073088
v 1.99940704 0.28594540 -0.88611761
v 1.99756478 1.48275476 -0.89278409
v 1.99417387 1.63371663 -0.89912113
v 1.99974857 1.99669056 -0.84410557
v 2.00067590 1.99012547 -0.75522193
v 1.99905370 1.99194508 -0.65309426
v 1.99889122 1.99312167 -0.08978438
v 2.00154994 -1.95926971 -0.36064443
v 2.00147413 -1.94895990 -0.03455132
v 2.00415264 -1.97458596 0.55610916
v 2.00251554 -1.90568156 -0.74234852
v 2.00042532 -1.70059831 0.34312716
v 2.00042651 -1.75462682 -0.66985997
v 2.00006638 -1.73599512 -0.27217528
v 2.00027869 -1.79469175 -0.04126523
v 2.00325249 -1.80265386 0.56319431
v 2.00144730 -1.73747976 -0.89171687
v 1.99983214 -1.52413769 0.07720177
v 2.00090419 -1.53739614 -0.75084636
v 1.99985467 -1.51889284 -0.46160295
v 2.00255762 -1.50206871 0.53996042
v 1.99999486 -1.38980670 0.28625617
v 2.00024675 -1.29935021 -0.65575299
v 1.99993144 -1.42797310 -0.21254507
v 2.00008188 -1.42157466 -0.89319810
v 1.99992989 -1.24028755 -0.39574563
v 2.00306187 -1.12188442 0.46758971
v 2.00196121 -1.35077269 -0.87821290
v 1.99993323 -1.21121145 -0.15851444
v 1.99982785 -1.25470663 0.07021479
v 2.00007997 -1.09083260 0.27101800
v 2.00136851 -0.98935856 -0.79027459
v 1.99990998 -0.96256597 -0.07160804
v 1.99992905 -0.97907014 -0.33234489
v 2.00014506 -0.98344142 -0.58780143
v 2.00036059 -0.80721302 0.11870280
v 2.00182293 -0.72386510 0.32326850
v 1.99983857 -0.73234565 -0.47517452
v 1.99984418 -0.68074806 -0.08800029
v 2.00157641 -0.58639603 -0.77877298
v 1.99997674 -0.46798040 -0.52140465
v 1.99989222 -0.50031846 -0.26300096
v 1.99991356 -0.38228676 -0.06317802
v 2.00046097 -0.45442433 0.17498832
v 2.00112127 -0.35406601 -0.78232106
v 1.99992250 -0.22842498 -0.34537050
v 2.00019668 -0.25429193 0.15990865
v 2.00150202 -0.15029722 0.31850520
v 2.00022326 -0.16093056 -0.71491495
v 2.00201629 -0.29007161 -0.88535109
v 1.99992274 -0.08987502 -0.12716557
v 1.99967848 -0.23992152 -0.89421084
v 1.99785672 -0.19997225 -0.89871743
v 2.00175093 -0.18160835 -0.87576410
v 1.99997769 0.03671034 -0.52098259
v 2.00002049 0.04622101 0.04683143
v 2.00111674 0.02013024 -0.84492424
v 1.99991880 0.13735237 -0.31680906
v 2.00020550 0.26473223 -0.65031442
v 2.00225983 0.10257604 0.27587104
v 2.00139521 0.14108874 -0.87231836
v 1.99983667 0.28108071 -0.19830717
v 1.99999271 0.27167444 0.02515315
v 2.00238083 0.48233925 0.18384776
v 1.99991081 0.48570805 -0.37090036
v 1.99994252 0.52613871 -0.07608364
v 2.00145922 0.46765398 -0.78775909
v 2.00036500 0.57815157 -0.66069373
v 1.99994109 0.68266766 -0.40223953
v 2.00209163 0.68422334 -0.83468708
v 2.00123070 0.76307159 0.11935008
v 1.99993215 0.87350516 -0.53490451
v 1.99988817 0.81793444 -0.22120823
v 2.00102125 0.87457936 -0.84253660
v 2.00017391 0.99326508 -0.03488193
v 2.00235842 1.06793063 0.16558661
v 2.00109003 1.03488975 -0.82365802
v 1.99990676 1.06501000 -0.30950192
v 2.00003265 1.16033440 -0.54465112
v 2.00051628 1.30206328 0.04725053
v 2.00119828 1.20294361 -0.77525684
v 1.99985955 1.27621548 -0.19033877
v 1.99993549 1.39227836 -0.53257081
v 2.00138162 1.37189000 0.14266220
v 2.00146268 1.41681211 -0.80937603
v 2.00014601 1.61201339 -0.08425917
v 1.99991987 1.49505644 -0.25198486
v 2.00006507 1.64413600 -0.64136639
v 2.00213335 1.67560678 0.10124370
v 2.00116084 1.61981075 -0.85420713
v 2.00005577 1.70815973 -0.33824503
v 2.00203989 1.78159385 -0.81870606
v 2.00097762 1.88843756 -0.51673886
v 2.00104831 1.94477301 -0.30422091
v 2.00188850 1.88718157 -0.06811926
f 271 229 209
f 203 163 119
f 434 405 394
f 68 96 144
f 105 91 54
f 411 384 347
f 116 74 115
f 515 506 538
f 951 916 950
f 346 321 358
f 963 929 928
f 190 168 185
f 815 869 917
f 72 3 2
f 201 178 220
f 1001 1088 1000
f 172 154 210
f 439 404 409
f 557 533 487
f 462 423 427
f 224 157 198
f 695 648 669
f 179 135 149
f 723 681 701
f 1000 983 999
f 602 548 529
f 406 374 334
f 431 365 443
f 265 197 217
f 663 639 682
f 1077 1074 1078
f 832 842 843
f 25 79 24
f 485 423 462
f 816 800 763
f 970 926 954
f 136 108 119
f 515 454 477
f 330 273 276
f 464 400 437
f 654 618 637
f 670 623 700
f 385 327 383
f 121 115 73
f 558 517 518
f 691 616 678
f 331 267 274
f 750 708 703
f 281 240 256
f 1084 960 1079
f 930 908 906
f 967 930 879
f 353 298 352
f 55 50 48
f 519 511 503
f 565 489 566
f 975 974 1059
f 730 691 728
f 326 349 280
f 306 277 262
f 19 15 12
f 756 684 716
f 855 867 891
f 636 601 608
f 712 660 664
f 949 937 862
f 976 942 975
f 358 321 317
f 116 125 140
f 814 791 751
f 496 436 478
f 960 1084 961
f 1079 1075 1081
f 863 875 922
f 246 186 227
f 663 604 639
f 311 277 306
f 677 627 606
f 37 32 85
f 175 123 122
f 719 685 739
f 414 441 458
f 653 584 605
f 599 561 525
f 938 863 922
f 987 941 887
f 414 383 379
f 124 95 154
f 590 525 562
f 1017 1013 1025
f 400 347 331
f 713 666 624
f 909 843 895
f 103 77 79
f 284 280 239
f 112 88 49
f 806 790 809
f 461 418 406
f 959 871 902
f 986 1090 1002
f 902 843 909
f 1083 1087 1088
f 77 22 79
f 975 938 974
f 923 862 850
f 1014 1020 1023
f 932 901 874
f 226 237 182
f 378 307 369
f 1040 1045 1047
f 1060 1054 1063
f 34 33 31
f 803 759 788
f 822 827 812
f 811 752 756
f 328 397 316
f 575 516 550
f 847 835 773
f 152 167 148
f 876 816 840
f 390 366 348
f 460 408 467
f 260 235 266
f 629 685 719
f 671 624 614
f 283 254 289
f 512 511 548
f 885 943 846
f 21 18 16
f 459 490 448
f 84 104 36
f 132 84 87
f 61 56 57
f 823 855 767
f 904 897 913
f 980 931 981
f 993 939 932
f 563 522 515
f 513 525 456
f 347 330 323
f 911 817 877
f 971 917 970
f 126 78 14
f 358 317 365
f 755 801 741
f 1036 1035 1040
f 288 243 251
f 64 62 61
f 42 39 38
f 438 398 444
f 958 909 979
f 537 540 475
f 73 4 101
f 918 917 972
f 657 596 661
f 684 683 635
f 925 798 904
f 402 442 392
f 543 494 560
f 952 925 991
f 996 947 919
f 842 810 806
f 865 820 845
f 982 958 1071
f 965 904 936
f 11 15 6
f 132 104 84
f 411 417 384
f 1048 995 915
f 470 432 447
f 961 1084 984
f 752 684 756
f 837 775 827
f 795 711 717
f 117 92 90
f 301 238 279
f 315 286 272
f 438 407 398
f 519 503 488
f 774 780 819
f 633 620 659
f 616 581 607
f 193 165 218
f 550 490 559
f 276 273 180
f 1053 1050 1054
f 11 6 7
f 905 889 888
f 261 244 207
f 1002 962 914
f 680 633 659
f 1048 1047 995
f 37 40 33
f 422 354 385
f 202 172 210
f 55 54 50
f 854 885 825
f 656 664 558
f 453 480 415
f 325 252 282
f 833 822 799
f 1051 1046 1053
f 907 890 851
f 913 897 859
f 311 306 342
f 927 977 934
f 434 394 417
f 535 534 471
f 673 615 675
f 1078 1080 1083
f 482 502 546
f 116 115 125
f 1038 1037 1041
f 388 387 416
f 149 135 105
f 468 425 454
f 504 439 499
f 674 637 647
f 666 649 624
f 919 870 876
f 698 651 694
f 293 264 242
f 268 233 236
f 895 861 856
f 799 747 769
f 926 908 930
f 74 73 115
f 745 675 744
f 281 256 285
f 258 177 197
f 686 659 655
f 550 516 508
f 250 202 210
f 725 754 671
f 964 886 912
f 911 877 871
f 531 472 492
f 195 194 207
f 954 926 930
f 451 431 443
f 547 553 529
f 1025 1013 1024
f 275 248 228
f 741 676 705
f 31 29 17
f 954 930 953
f 525 518 469
f 221 224 198
f 918 815 917
f 908 899 906
f 809 804 824
f 390 348 376
f 262 283 304
f 843 861 895
f 624 649 566
f 610 608 576
f 126 14 160
f 80 21 78
f 152 148 83
f 844 846 779
f 238 211 215
f 1013 1009 1019
f 1017 1016 1007
f 270 231 243
f 1060 1053 1054
f 969 1035 968
f 212 184 152
f 848 807 859
f 1076 1072 980
f 129 120 75
f 170 196 153
f 525 469 456
f 245 211 238
f 650 582 612
f 250 210 240
f 564 588 618
f 921 881 852
f 96 64 61
f 456 469 401
f 749 640 695
f 527 568 537
f 524 476 465
f 970 917 926
f 256 199 234
f 596 595 652
f 419 430 472
f 510 493 552
f 371 291 329
f 220 193 219
f 332 362 326
f 258 257 214
f 192 151 188
f 119 68 155
f 1006 963 944
f 508 491 490
f 300 289 268
f 148 130 83
f 767 696 766
f 1035 1027 968
f 1073 1067 1074
f 235 218 253
f 74 10 5
f 521 478 501
f 247 202 269
f 812 781 822
f 561 570 518
f 795 771 711
f 41 37 85
f 8 3 4
f 332 326 297
f 730 692 691
f 498 452 474
f 682 639 697
f 72 4 3
f 943 933 846
f 1054 1052 1056
f 792 862 821
f 626 616 691
f 823 766 794
f 861 806 809
f 1014 949 1020
f 613 551 545
f 158 175 186
f 952 879 925
f 148 167 130
f 989 904 965
f 979 903 940
f 846 831 795
f 300 292 351
f 32 34 31
f 158 123 175
f 572 536 567
f 1070 1066 1068
f 885 846 844
f 574 515 538
f 834 788 863
f 393 416 450
f 121 101 139
f 77 15 19
f 81 26 80
f 990 1012 937
f 417 394 384
f 319 322 357
f 823 813 855
f 92 61 57
f 738 698 694
f 676 625 650
f 505 436 496
f 455 462 442
f 646 609 679
f 785 770 726
f 703 634 649
f 573 582 527
f 826 770 832
f 879 836 798
f 104 83 30
f 467 408 366
f 740 722 762
f 622 634 565
f 655 593 619
f 291 242 213
f 728 691 678
f 744 724 789
f 480 465 415
f 214 213 150
f 1059 1058 1061
f 743 721 686
f 238 215 244
f 598 547 557
f 940 903 942
f 101 4 72
f 432 403 349
f 615 572 596
f 1045 994 995
f 738 694 760
f 339 340 269
f 416 375 446
f 1032 1026 1031
f 538 506 505
f 599 656 570
f 477 422 506
f 838 868 880
f 539 455 486
f 673 607 597
f 1006 987 988
f 460 409 408
f 350 325 282
f 427 423 370
f 866 822 833
f 1067 1064 1063
f 653 635 584
f 827 822 860
f 310 345 387
f 77 118 76
f 354 299 327
f 829 894 840
f 385 383 414
f 625 667 603
f 865 845 900
f 962 1001 885
f 859 797 886
f 285 234 263
f 318 305 278
f 377 301 336
f 541 549 485
f 184 167 152
f 191 216 171
f 454 425 396
f 914 857 924
f 697 641 692
f 907 923 850
f 509 462 455
f 364 386 309
f 1018 1014 1023
f 1026 1017 1025
f 1004 950 1003
f 134 132 88
f 458 441 419
f 349 403 367
f 658 662 591
f 593 620 589
f 285 256 234
f 52 46 89
f 1085 998 983
f 915 921 852
f 580 614 578
f 388 310 387
f 399 358 365
f 392 371 303
f 261 222 262
f 352 298 302
f 784 737 741
f 409 342 408
f 1000 999 943
f 809 790 745
f 404 343 355
f 850 792 765
f 881 791 814
f 1011 965 1005
f 716 684 663
f 1084 1081 1090
f 475 424 433
f 973 1043 1055
f 815 802 838
f 250 240 281
f 831 841 771
f 627 693 621
f 763 725 714
f 236 220 260
f 315 338 308
f 694 636 608
f 441 379 419
f 805 729 787
f 291 328 293
f 629 564 618
f 570 558 518
f 830 801 755
f 810 783 806
f 874 791 881
f 1003 963 1008
f 989 965 1011
f 65 63 62
f 369 307 314
f 222 207 206
f 788 729 805
f 118 129 76
f 293 316 264
f 1064 1060 1063
f 1039 1032 1034
f 497 556 486
f 925 904 989
f 1001 943 885
f 198 129 182
f 767 766 823
f 819 780 796
f 647 646 689
f 720 665 629
f 99 71 69
f 952 991 1016
f 955 1048 915
f 280 278 223
f 312 238 301
f 926 917 908
f 677 693 627
f 187 128 166
f 789 724 778
f 770 731 697
f 290 232 229
f 327 281 319
f 847 773 818
f 319 281 285
f 97 114 106
f 1007 1004 1010
f 346 292 321
f 391 433 369
f 258 214 177
f 659 620 593
f 260 220 235
f 302 238 312
f 88 132 87
f 769 719 798
f 356 322 337
f 336 301 279
f 151 113 72
f 971 970 1039
f 762 722 721
f 279 244 261
f 290 307 249
f 540 457 475
f 298 227 255
f 605 522 563
f 610 660 608
f 464 411 400
f 643 656 599
f 1072 1069 978
f 44 42 40
f 966 946 923
f 159 97 98
f 731 682 697
f 908 869 899
f 973 922 918
f 171 114 162
f 1010 1004 1009
f 106 93 60
f 429 377 440
f 25 103 79
f 1019 1015 1021
f 160 142 178
f 927 894 896
f 43 44 40
f 1080 981 997
f 8 7 3
f 645 606 583
f 772 757 807
f 481 451 443
f 792 753 748
f 585 510 552
f 191 162 159
f 580 534 535
f 757 674 742
f 176 214 150
f 1003 950 963
f 81 32 26
f 901 851 777
f 987 887 937
f 87 84 39
f 351 346 389
f 517 523 466
f 649 622 566
f 1029 1021 1030
f 235 219 218
f 547 586 553
f 1081 1077 1082
f 169 117 147
f 484 487 533
f 60 59 55
f 531 577 600
f 213 242 191
f 147 117 90
f 1061 1058 1057
f 651 617 636
f 183 130 167
f 830 853 801
f 432 456 403
f 974 922 973
f 146 161 118
f 323 276 267
f 949 1014 990
f 564 482 546
f 555 528 591
f 139 156 181
f 844 768 825
f 344 392 303
f 408 342 360
f 815 787 802
f 487 444 482
f 446 473 491
f 1011 1005 1007
f 349 318 280
f 948 984 986
f 271 209 230
f 1075 1077 1081
f 592 575 617
f 920 998 864
f 269 202 287
f 23 27 20
f 32 31 26
f 699 668 665
f 961 871 960
f 697 639 641
f 216 179 171
f 209 229 170
f 826 731 770
f 581 545 520
f 925 879 798
f 153 185 134
f 203 119 200
f 537 554 540
f 305 274 278
f 759 723 729
f 147 90 128
f 976 975 1059
f 606 627 542
f 14 116 142
f 376 351 398
f 476 435 420
f 319 285 322
f 1004 951 950
f 803 824 778
f 20 24 22
f 407 390 376
f 243 192 188
f 468 445 426
f 481 443 495
f 297 284 248
f 1065 977 978
f 217 197 164
f 708 707 643
f 580 578 534
f 569 541 509
f 796 760 835
f 771 841 786
f 1060 1057 1053
f 351 292 346
f 742 734 797
f 850 862 792
f 474 452 407
f 939 923 907
f 852 814 839
f 457 406 413
f 764 730 728
f 853 829 784
f 1071 1066 1070
f 267 276 224
f 112 134 88
f 304 283 324
f 668 619 630
f 308 314 271
f 1033 1028 1029
f 348 335 376
f 364 309 316
f 783 687 790
f 852 881 814
f 273 204 180
f 18 17 13
f 207 222 261
f 716 682 731
f 329 291 257
f 396 422 477
f 1008 1012 990
f 495 443 493
f 1007 964 1004
f 841 830 786
f 531 492 530
f 80 26 21
f 904 798 897
f 86 43 41
f 574 579 613
f 986 984 1090
f 637 588 585
f 839 814 782
f 714 667 625
f 8 11 7
f 482 463 502
f 233 201 236
f 154 117 169
f 449 434 448
f 295 303 258
f 555 612 573
f 210 169 240
f 93 105 58
f 188 137 204
f 955 1049 1048
f 407 376 398
f 178 165 193
f 536 472 531
f 906 888 879
f 519 529 511
f 295 258 265
f 767 855 868
f 96 61 95
f 1032 1022 1026
f 466 459 411
f 991 1011 1016
f 872 847 910
f 271 290 229
f 484 444 487
f 50 49 47
f 986 1002 914
f 113 101 72
f 253 181 231
f 549 507 485
f 248 284 239
f 174 143 127
f 950 929 963
f 370 328 291
f 334 374 313
f 529 589 602
f 375 387 345
f 161 129 118
f 486 455 428
f 502 495 510
f 416 393 388
f 402 392 344
f 274 267 221
f 530 514 571
f 138 112 91
f 389 399 431
f 49 45 47
f 825 752 811
f 340 339 380
f 286 241 272
f 131 83 104
f 687 607 673
f 562 525 513
f 577 530 631
f 674 706 742
f 17 29 23
f 192 156 151
f 1009 1003 1008
f 1042 1039 1038
f 850 765 808
f 670 700 766
f 57 56 53
f 604 574 639
f 526 472 536
f 976 1059 1066
f 759 727 723
f 473 449 448
f 639 574 641
f 1018 1021 1015
f 386 315 309
f 676 650 612
f 956 915 883
f 775 740 793
f 638 580 603
f 1078 1074 1076
f 978 977 927
f 646 585 587
f 489 447 461
f 717 711 645
f 858 796 835
f 415 386 364
f 885 844 825
f 77 76 15
f 68 67 64
f 1075 1071 1070
f 1050 1041 1044
f 740 762 793
f 20 19 12
f 857 817 911
f 935 931 864
f 1032 1031 1034
f 466 523 459
f 601 559 608
f 975 942 938
f 253 231 270
f 220 178 193
f 212 239 184
f 334 313 307
f 287 250 299
f 720 747 699
f 322 263 337
f 999 933 943
f 594 549 541
f 9 8 4
f 546 502 510
f 287 202 250
f 183 146 130
f 696 670 766
f 526 536 572
f 576 608 559
f 579 538 505
f 919 883 870
f 695 669 740
f 906 899 905
f 587 543 560
f 1086 1078 1083
f 690 748 656
f 141 140 145
f 545 521 520
f 780 732 796
f 784 761 737
f 960 871 959
f 888 866 849
f 505 496 551
f 1015 1008 1014
f 410 361 377
f 276 180 224
f 626 545 616
f 1040 1047 1049
f 1058 1055 1051
f 999 983 985
f 1042 1038 1046
f 199 147 187
f 977 957 934
f 1088 1087 1000
f 575 601 636
f 576 559 523
f 631 571 648
f 69 71 66
f 294 270 310
f 1074 1072 1076
f 696 652 670
f 918 875 815
f 1034 1028 1033
f 234 199 187
f 239 223 184
f 611 548 602
f 1047 1045 995
f 379 319 357
f 948 986 914
f 1085 997 998
f 632 645 583
f 487 482 564
f 177 176 110
f 942 893 938
f 933 920 882
f 565 562 513
f 1041 1036 1044
f 463 412 451
f 56 55 53
f 953 967 1022
f 1035 1033 1027
f 430 429 472
f 846 933 882
f 598 557 630
f 809 824 856
f 436 414 478
f 997 981 935
f 406 418 374
f 998 935 864
f 775 749 740
f 544 512 548
f 97 106 63
f 849 769 836
f 375 345 320
f 903 884 834
f 668 655 619
f 476 537 475
f 755 741 705
f 195 143 174
f 376 335 351
f 259 203 252
f 170 153 138
f 601 550 559
f 464 466 411
f 89 46 43
f 1054 1044 1052
f 914 885 854
f 715 755 705
f 331 347 323
f 515 477 506
f 771 786 693
f 574 538 579
f 564 546 588
f 460 439 409
f 1063 1062 1065
f 109 107 70
f 594 591 549
f 35 36 30
f 752 768 683
f 157 120 129
f 507 528 480
f 844 779 768
f 711 677 645
f 415 421 386
f 1017 1007 1013
f 796 738 760
f 953 930 967
f 708 643 634
f 901 907 851
f 38 39 36
f 748 664 656
f 1046 1038 1041
f 223 226 183
f 558 576 523
f 85 32 81
f 734 689 733
f 980 1072 978
f 776 672 749
f 221 267 224
f 535 471 457
f 252 247 282
f 173 172 202
f 835 760 773
f 701 661 710
f 303 329 257
f 92 57 90
f 774 734 733
f 747 743 699
f 1054 1056 996
f 179 170 135
f 892 872 928
f 57 53 52
f 218 165 181
f 121 73 101
f 360 304 366
f 164 110 163
f 229 196 170
f 827 775 793
f 361 301 377
f 672 640 749
f 569 594 541
f 587 560 609
f 549 528 507
f 869 880 899
f 361 312 301
f 629 618 654
f 440 377 404
f 937 887 862
f 413 406 334
f 524 527 476
f 421 420 386
f 94 93 59
f 795 831 771
f 371 370 291
f 873 827 860
f 496 478 521
f 781 721 743
f 317 294 310
f 993 992 939
f 1000 1087 983
f 288 251 273
f 898 867 873
f 904 913 936
f 1066 1059 1061
f 360 342 304
f 1068 1064 1067
f 889 873 860
f 321 266 317
f 786 715 693
f 330 333 273
f 1012 988 937
f 720 699 665
f 1026 1028 1031
f 1027 992 993
f 145 140 121
f 59 58 54
f 408 360 366
f 792 821 753
f 442 427 392
f 290 249 232
f 359 331 305
f 373 320 333
f 405 373 394
f 119 108 68
f 1002 1089 962
f 565 513 489
f 171 149 114
f 503 511 498
f 198 157 129
f 899 898 905
f 286 271 230
f 383 327 319
f 957 996 919
f 1075 1070 1077
f 527 537 476
f 278 274 237
f 934 957 919
f 211 122 143
f 160 14 142
f 446 405 473
f 641 613 626
f 641 574 613
f 936 859 945
f 523 490 459
f 521 501 520
f 357 322 356
f 447 432 395
f 890 808 851
f 893 863 938
f 122 85 81
f 309 272 264
f 1067 1063 1069
f 995 921 915
f 494 450 416
f 135 91 105
f 444 398 412
f 972 971 1043
f 706 674 647
f 762 721 781
f 467 366 452
f 804 789 824
f 443 365 393
f 33 38 35
f 339 269 287
f 754 782 713
f 772 719 757
f 800 828 754
f 173 144 172
f 840 816 763
f 405 449 473
f 667 671 638
f 365 317 393
f 521 545 551
f 582 568 527
f 215 195 207
f 1013 1010 1009
f 742 706 734
f 518 517 464
f 296 295 265
f 389 346 358
f 640 577 631
f 1080 1076 981
f 272 241 216
f 21 17 18
f 14 74 116
f 834 803 788
f 761 763 704
f 1016 1011 1007
f 884 803 834
f 560 494 532
f 784 829 761
f 132 168 131
f 663 653 605
f 133 123 158
f 944 910 941
f 1016 1017 1022
f 1055 1043 1051
f 571 544 548
f 420 435 391
f 507 480 453
f 389 358 399
f 1040 994 1045
f 1013 1019 1024
f 600 577 640
f 455 442 402
f 688 717 645
f 396 380 354
f 446 375 405
f 52 53 48
f 90 57 52
f 728 678 687
f 579 505 551
f 552 493 543
f 828 782 754
f 964 951 1004
f 973 918 972
f 781 743 799
f 266 253 317
f 998 997 935
f 949 990 937
f 247 173 202
f 671 713 624
f 864 896 853
f 423 397 370
f 506 436 505
f 237 221 182
f 363 391 338
f 974 1055 1059
f 827 793 812
f 890 850 808
f 166 158 186
f 151 111 137
f 1059 1055 1058
f 1036 1040 1044
f 811 854 825
f 95 92 117
f 108 99 69
f 313 275 249
f 648 611 669
f 892 835 872
f 425 340 380
f 257 213 214
f 95 61 92
f 999 985 933
f 263 208 246
f 760 694 718
f 1033 1030 1027
f 769 720 719
f 401 359 367
f 604 563 574
f 176 150 109
f 732 738 796
f 309 315 272
f 114 105 93
f 180 204 137
f 884 824 803
f 255 227 189
f 876 870 816
f 430 356 368
f 277 261 262
f 875 805 815
f 323 330 276
f 768 717 688
f 845 819 858
f 798 719 772
f 338 369 314
f 318 278 280
f 63 106 60
f 967 952 1016
f 350 340 426
f 568 554 537
f 498 511 512
f 830 755 715
f 595 623 652
f 296 265 259
f 628 560 592
f 817 731 826
f 903 834 893
f 728 687 783
f 870 800 816
f 790 687 745
f 141 116 140
f 266 235 253
f 772 807 848
f 264 216 191
f 326 284 297
f 27 30 28
f 928 872 944
f 244 215 207
f 411 459 417
f 548 511 529
f 1088 1086 1083
f 770 785 832
f 1037 1033 1036
f 840 763 761
f 929 892 928
f 734 706 689
f 166 133 158
f 99 110 71
f 263 234 208
f 865 797 820
f 1046 1041 1053
f 1043 971 1042
f 270 243 288
f 769 747 720
f 62 56 61
f 586 619 593
f 463 451 481
f 370 397 328
f 761 704 676
f 879 849 836
f 1022 1017 1026
f 249 275 228
f 910 847 878
f 656 558 570
f 130 146 103
f 607 581 526
f 945 886 964
f 994 969 921
f 133 86 123
f 248 239 212
f 1068 1073 1070
f 343 311 355
f 296 325 341
f 964 912 951
f 995 994 921
f 597 526 572
f 785 764 810
f 296 252 325
f 180 120 157
f 201 220 236
f 1085 1080 997
f 470 456 432
f 735 707 777
f 853 896 829
f 970 954 1032
f 664 660 610
f 181 165 139
f 878 847 818
f 110 109 71
f 778 724 727
f 786 830 715
f 382 352 361
f 169 199 240
f 492 472 429
f 118 77 146
f 188 204 251
f 16 9 10
f 992 966 939
f 510 495 493
f 339 299 354
f 29 27 23
f 155 144 173
f 802 767 838
f 962 1088 1001
f 381 372 341
f 208 187 166
f 813 837 867
f 736 696 767
f 409 355 342
f 616 545 581
f 690 656 643
f 923 949 862
f 165 145 139
f 465 476 420
f 476 433 435
f 132 131 104
f 317 388 393
f 887 941 878
f 650 625 582
f 407 452 390
f 692 641 626
f 292 266 321
f 206 194 205
f 465 420 421
f 958 979 1071
f 497 486 445
f 429 410 377
f 357 430 419
f 704 714 625
f 177 110 164
f 662 612 591
f 1041 1037 1036
f 910 878 941
f 513 456 470
f 793 762 781
f 699 743 686
f 16 13 9
f 219 193 218
f 444 412 482
f 858 835 892
f 238 244 279
f 493 450 494
f 900 845 858
f 905 888 906
f 754 713 671
f 267 331 323
f 243 188 251
f 984 911 961
f 752 683 684
f 189 122 211
f 877 817 826
f 231 181 192
f 600 640 672
f 1031 1028 1034
f 863 788 875
f 1081 1082 1086
f 737 761 676
f 88 87 39
f 526 483 472
f 780 746 732
f 35 27 29
f 733 746 774
f 1069 1065 978
f 1020 949 946
f 227 175 189
f 654 637 674
f 903 893 942
f 207 194 206
f 627 621 569
f 166 128 133
f 751 703 666
f 794 700 776
f 760 718 758
f 414 379 441
f 387 375 416
f 338 314 308
f 938 922 974
f 1073 1068 1067
f 1058 1051 1057
f 709 669 633
f 306 262 304
f 770 697 726
f 501 500 520
f 194 126 205
f 556 583 539
f 136 110 99
f 471 461 406
f 382 361 410
f 734 774 820
f 336 279 343
f 603 580 554
f 75 6 15
f 213 159 150
f 777 707 750
f 765 792 748
f 973 1055 974
f 155 68 144
f 797 734 820
f 596 572 567
f 1037 1034 1033
f 788 805 875
f 48 50 47
f 349 367 318
f 634 643 590
f 573 527 524
f 348 289 335
f 637 585 647
f 1014 1008 990
f 66 70 65
f 849 866 833
f 944 941 987
f 893 834 863
f 797 807 742
f 296 259 252
f 381 350 426
f 252 200 247
f 632 583 556
f 395 349 326
f 794 776 813
f 437 359 401
f 28 25 24
f 302 312 352
f 357 356 430
f 646 587 609
f 667 638 603
f 382 353 352
f 946 949 923
f 542 509 455
f 525 561 518
f 979 909 903
f 291 293 242
f 1026 1025 1028
f 702 679 642
f 595 531 600
f 763 714 704
f 359 305 318
f 196 185 153
f 135 138 91
f 909 895 903
f 241 179 216
f 328 316 293
f 44 45 42
f 948 911 984
f 468 426 425
f 744 644 724
f 223 183 167
f 976 940 942
f 23 12 17
f 146 77 103
f 839 782 828
f 782 814 751
f 934 919 876
f 757 739 674
f 427 370 371
f 825 768 752
f 48 44 46
f 966 1023 946
f 621 594 569
f 584 497 522
f 222 206 225
f 110 176 109
f 709 633 680
f 514 499 512
f 418 362 374
f 739 685 674
f 568 603 554
f 864 853 830
f 776 749 775
f 412 351 389
f 883 828 800
f 1089 1086 1088
f 500 458 483
f 310 270 288
f 102 100 6
f 332 297 275
f 375 373 405
f 954 953 1022
f 433 424 369
f 631 530 571
f 705 662 658
f 921 874 881
f 1023 1020 946
f 195 174 194
f 150 98 107
f 445 428 381
f 751 791 703
f 344 303 295
f 14 10 74
f 678 607 687
f 702 651 698
f 1053 1041 1050
f 983 998 920
f 666 703 649
f 681 657 661
f 916 865 900
f 388 317 310
f 894 876 840
f 1066 1061 1068
f 683 688 632
f 74 5 73
f 420 391 386
f 120 137 100
f 131 152 83
f 423 453 397
f 181 156 192
f 1008 988 1012
f 90 52 89
f 812 793 781
f 354 327 385
f 378 334 307
f 1030 1021 1018
f 341 350 381
f 142 145 165
f 861 809 856
f 136 99 108
f 735 765 690
f 871 843 902
f 578 566 534
f 528 524 480
f 104 30 36
f 130 103 82
f 968 1027 993
f 123 86 85
f 253 218 181
f 384 333 330
f 405 434 449
f 135 170 138
f 103 25 28
f 660 718 608
f 580 535 554
f 862 887 821
f 643 599 590
f 818 758 712
f 849 833 769
f 553 586 593
f 31 33 29
f 185 168 134
f 665 557 629
f 375 320 373
f 947 956 883
f 440 404 439
f 114 149 105
f 501 458 500
f 205 126 160
f 804 744 789
f 345 288 320
f 740 709 722
f 343 279 311
f 93 94 60
f 107 98 65
f 316 309 264
f 713 751 666
f 1083 1085 1087
f 337 263 353
f 584 522 605
f 368 337 353
f 868 855 891
f 156 101 113
f 912 916 951
f 350 282 340
f 463 481 495
f 556 497 584
f 655 659 593
f 669 611 633
f 125 115 121
f 724 657 727
f 512 499 498
f 970 1032 1039
f 231 192 243
f 922 875 918
f 48 47 44
f 516 479 446
f 280 223 239
f 971 1039 1042
f 826 871 877
f 962 885 914
f 191 171 162
f 368 353 382
f 268 254 233
f 35 30 27
f 254 225 233
f 1082 1077 1078
f 801 853 784
f 807 757 742
f 194 174 126
f 212 152 190
f 857 811 817
f 431 399 365
f 618 588 637
f 593 589 553
f 802 736 767
f 871 826 843
f 1001 1000 943
f 749 695 740
f 629 654 685
f 313 332 275
f 23 20 12
f 445 486 428
f 41 40 37
f 766 700 794
f 590 599 525
f 42 38 33
f 513 470 489
f 799 743 747
f 264 191 242
f 187 147 128
f 729 710 787
f 707 735 690
f 120 102 75
f 723 701 710
f 474 407 438
f 314 307 290
f 905 898 889
f 879 888 849
f 899 891 898
f 222 225 262
f 178 142 165
f 839 915 852
f 426 340 425
f 705 676 662
f 179 209 170
f 686 655 668
f 927 876 894
f 889 860 866
f 1029 1030 1033
f 339 287 299
f 1044 1040 1049
f 1052 955 956
f 1019 1009 1015
f 709 680 722
f 624 566 578
f 662 676 612
f 581 520 526
f 890 907 850
f 746 679 702
f 75 102 6
f 66 65 62
f 153 112 138
f 53 55 48
f 475 457 424
f 1087 1085 983
f 416 446 479
f 412 431 451
f 422 385 436
f 532 479 516
f 1008 1006 988
f 485 507 453
f 902 909 958
f 506 422 436
f 1084 1079 1081
f 152 131 168
f 870 883 800
f 813 776 775
f 911 871 961
f 1008 963 1006
f 127 80 126
f 614 624 578
f 710 736 802
f 302 245 238
f 1063 1054 1062
f 105 54 58
f 765 748 690
f 967 1016 1022
f 625 603 568
f 457 471 406
f 7 6 2
f 503 498 474
f 228 248 212
f 492 504 530
f 670 652 623
f 72 2 111
f 203 217 164
f 257 291 213
f 384 394 333
f 200 119 155
f 50 51 49
f 836 769 798
f 424 413 378
f 842 806 861
f 1018 1015 1014
f 524 465 480
f 236 260 292
f 249 228 185
f 1082 1078 1086
f 156 113 151
f 891 867 898
f 27 24 20
f 26 17 21
f 851 808 777
f 726 730 764
f 82 103 28
f 980 927 931
f 111 2 100
f 348 304 324
f 588 510 585
f 394 373 333
f 1028 1024 1029
f 613 579 551
f 320 273 333
f 386 363 315
f 27 28 24
f 897 848 859
f 210 154 169
f 229 232 196
f 6 1 2
f 83 82 30
f 715 705 658
f 697 692 726
f 979 1066 1071
f 13 8 9
f 583 542 539
f 368 382 410
f 294 253 270
f 779 846 795
f 300 236 292
f 733 679 746
f 437 400 359
f 605 604 663
f 499 467 498
f 959 982 1079
f 220 219 235
f 982 1071 1079
f 313 374 332
f 1062 996 957
f 688 645 632
f 94 59 60
f 123 85 122
f 226 182 183
f 872 835 847
f 461 447 418
f 491 448 490
f 944 872 910
f 846 882 831
f 882 841 831
f 896 894 829
f 140 125 121
f 356 337 368
f 678 616 607
f 1002 1090 1089
f 536 531 567
f 174 127 126
f 459 448 417
f 867 837 873
f 230 209 179
f 341 295 296
f 817 716 731
f 813 775 837
f 246 208 186
f 412 389 431
f 695 631 648
f 605 563 604
f 91 51 54
f 283 225 254
f 880 891 899
f 779 795 717
f 633 611 602
f 151 72 111
f 516 446 508
f 228 212 190
f 811 756 716
f 886 797 865
f 679 609 642
f 468 454 522
f 51 112 49
f 443 450 493
f 681 661 701
f 815 838 869
f 972 917 971
f 644 675 615
f 255 189 245
f 172 124 154
f 342 306 304
f 203 164 163
f 543 493 494
f 822 781 799
f 1024 1019 1021
f 397 415 364
f 628 592 617
f 1068 1060 1064
f 1061 1060 1068
f 592 532 575
f 991 925 989
f 163 110 136
f 700 672 776
f 499 460 467
f 232 185 196
f 988 987 937
f 1062 1054 996
f 759 729 788
f 897 798 848
f 262 225 283
f 43 40 41
f 800 754 725
f 868 891 880
f 887 878 818
f 710 661 696
f 932 939 907
f 232 249 185
f 200 155 173
f 98 97 65
f 764 728 783
f 551 496 521
f 1061 1057 1060
f 700 623 672
f 1032 954 1022
f 413 334 378
f 265 217 259
f 992 1027 966
f 965 936 945
f 233 225 205
f 89 43 86
f 396 354 422
f 522 454 515
f 826 832 843
f 630 619 598
f 665 668 630
f 179 241 230
f 82 28 30
f 584 635 556
f 547 533 557
f 787 710 802
f 226 278 237
f 154 95 117
f 89 86 133
f 882 920 841
f 900 858 892
f 722 680 659
f 282 247 269
f 809 745 804
f 324 283 289
f 789 778 824
f 345 310 288
f 311 279 277
f 172 144 124
f 647 585 646
f 355 311 342
f 1077 1073 1074
f 634 590 565
f 225 206 205
f 299 250 281
f 71 70 66
f 77 19 22
f 453 415 397
f 476 475 433
f 753 712 664
f 93 58 59
f 1078 1076 1080
f 183 161 146
f 587 552 543
f 37 33 34
f 214 176 177
f 298 246 227
f 1036 1033 1035
f 171 179 149
f 806 783 790
f 980 978 927
f 991 989 1011
f 609 560 642
f 435 433 391
f 380 339 354
f 278 226 223
f 91 112 51
f 127 81 80
f 857 854 811
f 341 372 295
f 613 545 626
f 649 634 622
f 596 567 595
f 823 794 813
f 450 443 393
f 302 255 245
f 630 557 665
f 963 928 944
f 746 702 732
f 693 715 658
f 895 884 903
f 753 821 712
f 948 924 911
f 392 427 371
f 642 560 628
f 623 595 600
f 684 635 653
f 519 488 547
f 211 195 215
f 109 150 107
f 264 272 216
f 692 626 691
f 1038 1034 1037
f 508 446 491
f 497 468 522
f 224 180 157
f 597 572 615
f 859 807 797
f 748 753 664
f 707 690 643
f 268 236 300
f 642 628 651
f 811 716 817
f 494 479 532
f 67 66 64
f 1050 1044 1054
f 12 15 11
f 898 873 889
f 64 66 62
f 888 889 866
f 55 59 54
f 981 1076 980
f 366 304 348
f 383 319 379
f 750 707 708
f 779 717 768
f 326 280 284
f 488 438 484
f 803 778 759
f 12 11 8
f 432 349 395
f 819 796 858
f 1077 1070 1073
f 18 13 16
f 483 419 472
f 950 916 929
f 136 119 163
f 17 12 13
f 841 920 864
f 307 313 249
f 956 955 915
f 369 424 378
f 883 915 839
f 921 932 874
f 359 400 331
f 391 363 386
f 686 721 659
f 20 22 19
f 644 615 596
f 1007 1005 964
f 142 141 145
f 914 924 948
f 182 161 183
f 966 923 939
f 874 901 777
f 683 768 688
f 555 573 524
f 52 48 46
f 723 727 681
f 268 289 254
f 282 269 340
f 916 900 929
f 800 725 763
f 203 200 252
f 782 751 713
f 38 36 35
f 930 906 879
f 474 438 488
f 237 274 221
f 184 223 167
f 455 402 428
f 292 260 266
f 417 448 434
f 785 726 764
f 741 737 676
f 791 750 703
f 745 744 804
f 1030 1018 1027
f 438 444 484
f 721 722 659
f 467 452 498
f 436 385 414
f 874 777 791
f 1069 1063 1065
f 188 151 137
f 13 12 8
f 635 683 632
f 130 82 83
f 128 89 133
f 456 401 403
f 927 934 876
f 530 504 514
f 883 839 828
f 84 36 39
f 984 1084 1090
f 602 589 620
f 205 201 233
f 821 887 818
f 40 42 33
f 305 331 274
f 134 168 132
f 1027 1018 966
f 1052 1044 955
f 1044 1049 955
f 732 698 738
f 517 466 464
f 687 673 745
f 591 612 555
f 10 9 4
f 1051 1042 1046
f 1004 1003 1009
f 352 312 361
f 627 569 542
f 403 401 367
f 160 178 201
f 265 258 197
f 381 428 372
f 960 959 1079
f 504 499 514
f 805 787 815
f 208 166 186
f 585 552 587
f 565 590 562
f 520 500 483
f 1083 1080 1085
f 785 810 832
f 597 607 526
f 492 440 439
f 932 907 901
f 912 865 916
f 79 22 24
f 33 35 29
f 598 586 547
f 985 920 933
f 571 611 648
f 610 576 558
f 428 402 372
f 699 686 668
f 1079 1071 1075
f 477 454 396
f 145 121 139
f 439 460 499
f 744 675 644
f 429 368 410
f 391 369 338
f 571 548 611
f 488 484 533
f 200 173 247
f 324 289 348
f 959 902 982
f 411 347 400
f 712 758 718
f 843 842 861
f 164 197 177
f 629 557 564
f 685 654 674
f 771 693 677
f 931 896 864
f 463 495 502
f 62 63 60
f 661 652 696
f 245 189 211
f 563 515 574
f 969 932 921
f 374 362 332
f 767 868 838
f 205 160 201
f 658 594 621
f 560 532 592
f 575 532 516
f 485 453 423
f 471 534 461
f 684 653 663
f 404 355 409
f 589 529 553
f 733 689 679
f 425 380 396
f 657 681 727
f 273 251 204
f 1018 1023 966
f 489 470 447
f 1065 1062 977
f 234 187 208
f 965 945 1005
f 676 704 625
f 617 575 636
f 279 261 277
f 1081 1086 1089
f 967 879 952
f 347 384 330
f 107 65 70
f 10 4 5
f 832 810 842
f 773 758 818
f 1056 1052 956
f 314 290 271
f 557 487 564
f 1049 1047 1048
f 633 602 620
f 726 692 730
f 142 116 141
f 71 109 70
f 46 44 43
f 671 614 638
f 227 186 175
f 542 569 509
f 982 902 958
f 303 257 258
f 501 478 458
f 397 364 316
f 419 379 357
f 1029 1024 1021
f 1040 1035 994
f 182 129 161
f 256 240 199
f 1067 1069 1072
f 644 596 657
f 335 289 300
f 2 1 100
f 635 632 556
f 640 631 695
f 856 824 884
f 539 542 455
f 588 546 510
f 111 100 137
f 855 813 867
f 47 45 44
f 919 947 883
f 341 325 350
f 363 338 315
f 159 162 97
f 596 652 661
f 299 281 327
f 317 253 294
f 689 646 679
f 353 263 298
f 829 840 761
f 275 297 248
f 725 667 714
f 716 663 682
f 322 285 263
f 644 657 724
f 582 625 568
f 556 539 486
f 547 488 533
f 189 175 122
f 945 859 886
f 126 80 78
f 540 554 457
f 153 134 112
f 372 344 295
f 778 727 759
f 931 927 896
f 518 464 469
f 886 865 912
f 550 508 490
f 628 617 651
f 962 1089 1088
f 211 143 195
f 122 81 143
f 774 746 780
f 732 702 698
f 555 524 528
f 1051 1053 1057
f 599 570 561
f 669 709 740
f 503 474 488
f 108 67 68
f 482 412 463
f 401 469 437
f 845 774 819
f 144 96 124
f 760 758 773
f 612 582 573
f 90 89 128
f 447 395 362
f 838 880 869
f 693 658 621
f 977 1062 957
f 520 483 526
f 169 147 199
f 367 359 318
f 798 772 848
f 14 16 10
f 703 708 634
f 418 447 362
f 712 718 660
f 1039 1034 1038
f 159 213 191
f 492 439 504
f 866 860 822
f 68 64 96
f 1056 956 996
f 509 485 462
f 88 39 45
f 221 198 182
f 372 402 344
f 514 544 571
f 150 159 98
f 821 818 712
f 180 137 120
f 638 614 580
f 228 190 185
f 458 419 483
f 914 854 857
f 947 996 956
f 777 808 735
f 979 976 1066
f 298 263 246
f 124 96 95
f 478 414 458
f 139 101 156
f 833 799 769
f 50 54 51
f 469 464 437
f 567 531 595
f 362 395 326
f 719 739 757
f 791 777 750
f 108 69 67
f 120 100 102
f 49 88 45
f 936 913 859
f 702 642 651
f 534 489 461
f 841 864 830
f 303 371 329
f 1015 1009 1008
f 259 217 203
f 924 857 911
f 62 55 56
f 491 473 448
f 377 336 343
f 969 968 932
f 917 869 908
f 993 932 968
f 509 541 485
f 398 351 412
f 3 7 2
f 445 381 426
f 583 606 542
f 929 900 892
f 820 774 845
f 566 489 534
f 720 629 719
f 1043 1042 1051
f 442 462 427
f 1028 1025 1024
f 985 983 920
f 37 34 32
f 729 723 710
f 808 765 735
f 598 619 586
f 664 610 558
f 651 636 694
f 1005 945 964
f 519 547 529
f 622 565 566
f 696 736 710
f 1006 944 987
f 377 343 404
f 162 114 97
f 298 255 302
f 190 152 168
f 523 559 490
f 78 21 16
f 711 771 677
f 416 479 494
f 645 677 606
f 31 17 26
f 895 856 884
f 97 63 65
f 623 600 672
f 1035 969 994
f 315 308 286
f 725 671 667
f 554 535 457
f 308 271 286
f 430 368 429
f 979 940 976
f 935 981 931
f 517 558 523
f 497 445 468
f 69 66 67
f 658 591 594
f 591 528 549
f 514 512 544
f 801 784 741
f 335 300 351
f 492 429 440
f 424 457 413
f 575 550 601
f 452 366 390
f 1090 1081 1089
f 415 465 421
f 1074 1067 1072
f 745 673 675
f 286 230 241
f 973 972 1043
f 694 608 718
f 320 288 273
f 837 827 873
f 62 60 55
f 1013 1007 1010
f 100 1 6
f 45 39 42
f 78 16 14
f 129 75 76
f 114 93 106
f 76 75 15
f 143 81 127
f 706 647 689
f 73 5 4
f 673 597 615
f 764 783 810
f 86 41 85
f 531 530 577

