# https://github.com/mikedh/trimesh
v -1.98292483 -1.99914536 -0.88314721
v -2.00375665 -1.98780152 -0.78256974
v -1.99748052 -1.99954578 -0.40006346
v -2.00089468 -1.99223730 -0.10605488
v -2.00513233 -1.83307048 -0.21936006
v -2.00108350 -1.89159688 -0.88959542
v -2.00374807 -1.82549342 -0.68535510
v -1.99545992 -1.75437197 -0.12315166
v -2.00246776 -1.56179615 -0.36797965
v -1.99725832 -1.62791356 -0.89799449
v -2.00273694 -1.51741680 -0.75966010
v -1.99877513 -1.33118334 -0.17724708
v -1.99813236 -1.19185701 -0.89686296
v -2.00257672 -1.07826861 -0.79276172
v -2.00247015 -1.11833754 -0.50244123
v -2.00431527 -1.03026595 -0.25771234
v -1.91532231 -1.02999958 -0.90286550
v -1.99908269 -0.84932169 -0.21569759
v -2.00276316 -0.74413022 -0.39716128
v -1.99400056 -0.68608090 -0.89937857
v -2.00287546 -0.64899996 -0.75836066
v -2.00221194 -0.51537397 -0.52314172
v -2.00005258 -0.49674226 -0.25669329
v -2.00388397 -0.34455622 -0.34127418
v -2.00042070 -0.38925331 -0.89240244
v -2.00224198 -0.26358220 -0.65836838
v -1.99996794 -0.19729589 -0.28738302
v -1.99446333 -0.04160872 -0.90189419
v -2.00149120 0.13489494 -0.63229576
v -2.00307454 0.01879636 -0.35133028
v -2.00362719 0.10884279 -0.85037002
v -1.99623240 0.09399742 -0.31087450
v -1.90094722 0.28430656 -0.31117863
v -2.00349248 0.16940150 -0.34297556
v -1.99793590 0.30482665 -0.33879730
v -2.00398029 0.36266312 -0.39864952
v -2.00085558 0.40507934 -0.88422922
v -2.00381149 0.63621095 -0.62332848
v -2.00007571 0.67703882 -0.36939231
v -1.99095954 0.62955752 -0.90232072
v -2.00313152 0.75449434 -0.84434864
v -2.00436057 0.84713140 -0.46881250
v -1.99912585 1.11560372 -0.89239982
v -2.00094951 1.01146868 -0.41233483
v -2.00329603 1.17425779 -0.62718353
v -2.00087846 1.31551698 -0.43551579
v -2.00295723 1.40379778 -0.84725121
v -1.99282611 1.71667591 -0.90097461
v -2.00608195 1.55723027 -0.56305012
v -1.99720133 1.57627240 -0.45673332
v -2.00181902 1.77621141 -0.80323390
v -2.00325097 1.83120123 -0.50498370
v -2.00021471 1.99715844 -0.60901729
v -1.99742592 2.00017086 -0.86794702
v -1.99327434 1.98503200 -0.49540466
v -1.95808149 -2.00502452 -0.67272237
v -1.89471568 -2.00761327 -0.12269471
v -1.86601604 -1.98401507 -0.07819999
v -1.91489543 -1.67279431 -0.90419475
v -1.88776399 -1.31457016 -0.14885764
v -1.87496091 -1.40706393 -0.90271387
v -1.85274292 -0.82972192 -0.19300361
v -1.91109229 -0.40721216 -0.24426976
v -1.91682137 -0.29424617 -0.90652159
v -1.96784092 -0.10593491 -0.28288448
v -1.89567925 0.31884376 -0.90427158
v -1.79818572 0.54684750 -0.32225073
v -1.84711791 0.82497946 -0.90210471
v -1.93692518 0.93006471 -0.38039434
v -1.91850365 1.21737162 -0.90422652
v -1.83401979 1.53960351 -0.42723963
v -1.72696115 1.80044952 -0.90246448
v -1.86118568 1.87748447 -0.46335277
v -1.91961862 1.98563829 -0.90450743
v -1.80741228 2.00398961 -0.71824047
v -1.85183240 -1.99353405 -0.90139971
v -1.93938328 -1.97429081 -0.88719890
v -1.99530114 -1.98386141 -0.65406463
v -1.99408616 -1.98392042 -0.29695630
v -1.88549138 -1.99711021 -0.47971166
v -1.98029316 -1.99168798 -0.11503684
v -1.99270190 -1.92212543 -0.88457820
v -1.99744500 -1.71624836 -0.32528246
v -1.98896326 -1.73756906 -0.12855202
v -1.95548607 -1.90213260 -0.90936277
v -1.99690879 -1.75836786 -0.78754893
v -1.71976603 -1.75177130 -0.07970185
v -1.97194804 -1.75626823 -0.89286492
v -1.99564303 -1.44640669 -0.85397050
v -1.99875296 -1.36681017 -0.64144078
v -1.99890436 -1.09537527 -0.33110199
v -1.99479259 -1.19938919 -0.19600399
v -1.98312439 -1.06887385 -0.89465222
v -1.99850048 -1.01289603 -0.69551471
v -1.99873174 -0.63240224 -0.56798318
v -1.99567522 -0.66478666 -0.25136409
v -1.99342526 -0.71434018 -0.85431490
v -1.97089661 -0.50926001 -0.89425877
v -1.90579463 -0.66111052 -0.90281853
v -1.99834717 -0.35857508 -0.30869237
v -1.99719156 -0.22283746 -0.70078400
v -1.85047425 -0.29066387 -0.25077790
v -1.99901093 0.07983011 -0.39913479
v -1.99523438 -0.20988193 -0.28947357
v -1.97740162 0.19966689 -0.89203003
v -1.99391450 0.08094743 -0.31988591
v -1.99683536 0.14750573 -0.74968955
v -1.99854888 0.53171352 -0.49551708
v -1.90938533 0.19309733 -0.30784583
v -1.99596156 0.64873049 -0.37777347
v -1.99888457 0.55920557 -0.75613234
v -1.99377430 0.70474235 -0.87075231
v -1.86268974 0.55329338 -0.33753857
v -1.99876107 0.89351276 -0.77376816
v -1.97638858 1.11323813 -0.89147875
v -1.99558033 0.85767535 -0.40727795
v -1.99874629 1.19530252 -0.55530444
v -1.99513043 1.27609530 -0.44647450
v -1.95630611 1.04198209 -0.40240607
v -1.99658860 1.31417564 -0.75948683
v -1.73913015 1.21486405 -0.37915638
v -1.80705465 1.32872311 -0.40669176
v -1.98155821 1.64676050 -0.89758858
v -1.99793757 1.72358910 -0.69680515
v -1.99562324 1.74484912 -0.49425063
v -1.93629659 1.97855416 -0.89391825
v -1.97819079 1.99457375 -0.67131320
v -1.99206580 1.97673622 -0.52528069
v -1.84576596 2.00146547 -0.47784567
v -1.93561710 -1.99598249 -0.74362371
v -1.71534098 -1.98520836 -0.06558114
v -1.78866650 -1.70452222 -0.09884864
v -1.87240876 -1.41558119 -0.89883796
v -1.89343394 -1.37392303 -0.14859710
v -1.83227433 -0.83095288 -0.19372717
v -1.84342409 -0.16531609 -0.89858684
v -1.70367671 0.15963659 -0.90228078
v -1.86584450 0.91174415 -0.37324843
v -1.84182502 1.43571189 -0.89883039
v -1.86275543 1.80361954 -0.46341390
v -1.70030082 1.79479376 -0.89860323
v -1.85384275 1.99746338 -0.49810979
v -1.75709988 -2.00188669 -0.36542672
v -1.79606093 -1.99677154 -0.15142884
v -1.78477098 -1.88257131 -0.89916543
v -1.85850431 -0.83524274 -0.89889470
v -1.74714340 0.33475444 -0.89852926
v -1.81564988 0.88094834 -0.89814380
v -1.66196168 1.99951163 -0.67728964
v -1.77703477 -2.00241872 -0.78633264
v -1.63172270 1.99393002 -0.88301149
v -1.71774746 -1.99869498 -0.76017622
v -1.57638300 -1.89132234 -0.90186444
v -1.52474941 -1.99247786 -0.88459859
v -1.60324479 -1.21919545 -0.90192894
v -1.66363920 -1.06502011 -0.14133571
v -1.69598461 -0.09419742 -0.24312327
v -1.72930456 0.84867469 -0.34245828
v -1.65783084 -0.11302858 -0.23941902
v -1.54238761 -1.42507431 -0.89792565
v -1.55443598 -0.77404981 -0.90197996
v -1.59898282 -0.31870463 -0.90199224
v -1.65307499 0.17896501 -0.26399328
v -1.45183517 -1.54860481 -0.90161333
v -1.60965611 -0.55669328 -0.89822278
v -1.60423292 -0.37179666 -0.20148872
v -1.56428672 -0.94639977 -0.89814934
v -1.50899638 0.77298382 -0.30553860
v -1.47602237 1.03280905 -0.89807114
v -1.57867540 1.35385767 -0.90204832
v -1.45180381 -2.00035402 -0.02135640
v -1.49079658 1.76950232 -0.39841697
v -1.53937710 -0.71415141 -0.15736331
v -1.38632990 0.49165741 -0.90201936
v -1.56328631 0.57502833 -0.89828185
v -1.50279261 0.89700714 -0.90195147
v -1.47044350 1.43680409 -0.36620707
v -1.50111772 1.80429474 -0.40727517
v -1.50238944 2.00130096 -0.89475438
v -1.56976963 -1.99904808 -0.89454493
v -1.55693210 -1.99836346 -0.42910716
v -1.51402737 -1.42238053 -0.08161319
v -1.55006100 -1.33325734 -0.10252504
v -1.39400340 1.05643407 -0.31659583
v -1.64541150 2.00077930 -0.45840112
v -1.53699208 -2.00261506 -0.78453550
v -1.53885306 0.38862232 -0.27156181
v -1.28644360 2.00327865 -0.55402658
v -1.59551836 -0.77612674 -0.16357516
v -1.64537395 1.99662057 -0.46185896
v -1.56176139 -0.46773955 -0.18935982
v -1.45604313 -0.18072003 -0.89805410
v -1.50000394 1.11569181 -0.33462930
v -1.37874855 0.08360440 -0.90188596
v -1.57433892 1.93838635 -0.42562750
v -1.46223916 0.63332436 -0.28065941
v -1.18316783 1.57533959 -0.89795307
v -1.37612594 -0.08346715 -0.19612383
v -1.31426347 -2.00192758 -0.23123040
v -1.26386787 0.00335104 -0.19181235
v -1.37558223 0.35327557 -0.23952680
v -1.38265015 1.51915220 -0.35741103
v -1.37104870 1.90065733 -0.90267918
v -1.47003687 1.99748770 -0.46952859
v -1.53336812 1.98571578 -0.43740797
v -1.20886792 -1.99867043 -0.79748759
v -1.44638039 -1.89158877 -0.89731428
v -1.35564328 -1.79694911 -0.02547443
v -1.27589131 0.85238639 -0.27443576
v -1.39069058 2.00011030 -0.41252712
v -1.40700186 -1.99712142 -0.10066226
v -1.19871534 -0.71534484 -0.89805493
v -1.36163236 1.99792853 -0.82553503
v -1.31837286 -1.82874152 -0.00943166
v -1.27021791 0.24187234 -0.89808938
v -1.10200501 -1.57865759 -0.01091962
v -1.18927778 -1.11963459 -0.89811555
v -1.41769529 -1.03800919 -0.10867790
v -1.39995457 -0.87552079 -0.12734124
v -1.40288843 -0.88675764 -0.12108969
v -1.25462712 -0.63797006 -0.90190366
v -1.25849963 -0.46796574 -0.14381712
v -1.24381448 1.93815771 -0.37720320
v -1.20547057 -1.99846038 -0.46345890
v -1.37824238 -1.12108609 -0.13047427
v -1.42224563 1.98347918 -0.41733843
v -1.18640865 -1.05284842 -0.90196494
v -1.25408615 -0.48933024 -0.13701490
v -1.18383564 -1.98665473 0.01398822
v -1.32325114 -1.32138899 -0.07244446
v -1.29286970 -1.19017323 -0.14243731
v -1.30093254 -0.92981431 -0.18193218
v -1.08795847 0.58716473 -0.89812038
v -1.27105297 1.57881490 -0.90184829
v -1.13372577 1.99773351 -0.67803386
v -1.29301299 -1.37850627 -0.06868694
v -1.13511575 -0.19901099 -0.90188024
v -1.33545745 1.98722974 -0.89338455
v -0.99642039 -2.00265333 -0.72244993
v -1.18423821 -1.25668278 -0.17925689
v -1.24347426 -1.02441451 -0.19200512
v -1.28112627 -0.86354878 -0.16477609
v -1.11260248 1.29425875 -0.29428861
v -1.26822020 1.98187128 -0.39460290
v -1.20187844 0.32121310 -0.21404022
v -1.13271631 1.17938725 -0.90175394
v -1.17216719 1.89893762 -0.89789710
v -1.10349549 -1.87358996 -0.89709750
v -1.24088801 -0.67891654 -0.11743082
v -1.17247273 0.15387437 -0.18919507
v -1.11648406 0.75903932 -0.24491643
v -1.13722516 0.84480265 -0.90182749
v -1.07722844 -2.00095185 -0.89166454
v -1.15695692 -1.83500453 -0.90352199
v -1.11157609 -0.24236659 -0.89803812
v -0.96800030 1.07724002 -0.89795927
v -1.11186398 -0.80027970 -0.21344047
v -1.13726367 -0.58353015 -0.12885929
v -1.21001793 1.99945727 -0.38285360
v -1.09979380 -1.99752435 -0.09236128
v -1.15787793 -0.68095457 -0.15034207
v -1.07174970 0.57895300 -0.21532213
v -1.11825372 1.99732080 -0.44633040
v -1.06528581 -1.41076871 -0.10102870
v -1.07901515 1.71704713 -0.33155412
v -1.09894336 1.99300471 -0.88158116
v -0.98810340 -1.91028329 0.03915633
v -0.92600496 -1.54058334 -0.89808640
v -1.04066993 -0.17523002 -0.13625536
v -1.08490611 1.27806333 -0.29245663
v -0.97427453 1.99581805 -0.89939842
v -1.13025023 -1.50784132 -0.01910537
v -0.97986282 -1.45481583 -0.90193698
v -1.12353350 -1.08371034 -0.23899950
v -0.80470497 1.73974648 -0.90210614
v -0.94009865 -2.00219342 -0.17212914
v -1.07267166 -1.42123863 -0.10630504
v -1.05016340 -0.79958430 -0.21669296
v -0.98961450 0.92759470 -0.23896781
v -1.08201171 1.90879336 -0.35435504
v -0.93733902 -1.76372358 0.03954782
v -0.88655741 0.24424157 -0.90184120
v -0.96946741 1.58474079 -0.30601371
v -1.10252596 2.00810257 -0.83676997
v -1.10722674 -1.20764276 -0.19581306
v -0.95506902 0.53271434 -0.20120709
v -0.85377497 1.34527198 -0.90181861
v -0.95831693 2.00391856 -0.58468148
v -1.04225911 -1.02903428 -0.24006006
v -0.97428406 2.00026432 -0.34794525
v -0.93185038 -1.99967035 0.05833259
v -0.83100409 0.05826608 -0.13192788
v -1.03309811 1.99225703 -0.36350775
v -0.74519737 -1.99663993 -0.87902919
v -0.87555183 -0.41372429 -0.90183190
v -0.91093935 -0.32960406 -0.10353208
v -0.75246311 -1.99859258 -0.61165122
v -0.84485395 -0.54252287 -0.89799437
v -0.83663906 0.65436116 -0.90198371
v -0.89847548 -0.47970251 -0.16234666
v -0.84299536 0.13080943 -0.13690155
v -0.86404438 1.86592546 -0.31253949
v -0.91497339 -1.21904739 -0.19589232
v -0.88048066 -1.16689577 -0.22408250
v -0.95319552 -0.94430837 -0.25189793
v -0.90638412 1.16995588 -0.25085596
v -0.77385140 -1.11276021 -0.89808330
v -0.79400165 -0.78381472 -0.90186820
v -0.67947120 -0.21361172 -0.89808569
v -0.75466717 1.77134553 -0.89780131
v -0.85957689 -1.53050419 0.01081325
v -0.64786489 -0.23500353 -0.15802344
v -0.81459184 0.16420994 -0.89800391
v -0.67875404 -1.99820110 -0.12354876
v -0.84310187 -1.39109155 -0.11025885
v -0.74929006 0.46105788 -0.16715487
v -0.84831674 -0.26444275 -0.10446276
v -0.80544866 -1.09591153 -0.90193370
v -0.89789094 -1.53998384 0.01979553
v -0.73948849 0.84050456 -0.19947285
v -0.89451988 1.98380152 -0.33776054
v -0.71963013 1.99647275 -0.38691545
v -0.73635138 -1.86154136 -0.90230760
v -0.74783070 -1.01092419 -0.21208324
v -0.78242577 -0.80286458 -0.23615285
v -0.56331135 -0.40068861 -0.21598935
v -0.63440521 -0.47665363 -0.21533737
v -0.82630248 0.70057968 -0.19049481
v -0.82416345 1.55632142 -0.27746514
v -0.68421401 1.99237457 -0.87826619
v -0.71514637 -1.78773066 -0.89822004
v -0.77099610 0.97149828 -0.90185634
v -0.73514939 1.11618355 -0.22362514
v -0.65377594 1.25603202 -0.89805094
v -0.82568086 -1.99584862 0.05235947
v -0.77389110 -1.38723501 -0.07382764
v -0.71938426 0.63028130 -0.89817521
v -0.65152062 1.99519363 -0.89802280
v -0.69923724 0.86222259 -0.18832438
v -0.67603011 1.29202012 -0.22868516
v -0.72285331 -1.67772433 0.05549045
v -0.62570156 -0.73270431 -0.23412186
v -0.69631339 1.99826208 -0.30723364
v -0.52406908 -2.00218495 -0.56984827
v -0.68098993 -1.45730194 0.03715583
v -0.57046116 -1.51439902 -0.90183291
v -0.63707388 -0.20573602 -0.14555829
v -0.61458428 -0.12170457 -0.90196786
v -0.63183005 1.99754706 -0.71365652
v -0.72897626 2.01056138 -0.84863279
v -0.33508275 2.00292459 -0.70285198
v -0.70529754 2.00367990 -0.41459921
v -0.56039293 -2.00193318 -0.09727923
v -0.72581429 0.45263276 -0.17451953
v -0.68528963 1.96473208 -0.30443824
v -0.52602978 -1.71153971 0.09569576
v -0.64452822 -1.06587419 -0.18157857
v -0.55992867 -0.53271529 -0.90187690
v -0.63690055 -1.12948176 -0.14359272
v -0.71930105 -0.13031137 -0.09391530
v -0.63147003 0.66174081 -0.20214031
v -0.59422190 0.38875607 -0.90188066
v -0.38818557 -2.00575336 0.10460397
v -0.65635789 -1.99718782 0.10220058
v -0.43100319 -1.89931687 0.12226916
v -0.64219273 -1.31903270 -0.06138987
v -0.67267133 0.20567134 -0.11977419
v -0.53919948 1.83813087 -0.26562332
v -0.67133446 -1.47850856 0.03780176
v -0.65929640 0.18512985 -0.12194327
v -0.40690569 -1.11221870 -0.90188012
v -0.53113813 0.54681799 -0.19327434
v -0.49057693 0.96521584 -0.16728273
v -0.36150194 1.56350676 -0.89830646
v -0.54597015 1.65502039 -0.24518381
v -0.43176437 -1.40775665 -0.89800868
v -0.41321609 -0.86490485 -0.89813087
v -0.53269882 -0.71531492 -0.21127898
v -0.36099357 -0.46312792 -0.89809421
v -0.42890565 0.17460910 -0.17476152
v -0.47026027 1.43184272 -0.90197364
v -0.50958623 1.47613362 -0.22623361
v -0.53511996 1.90780464 -0.26757694
v -0.24520455 -1.99461469 0.14147840
v -0.58723868 -0.00631612 -0.08799799
v -0.50359816 0.22212384 -0.16376463
v -0.34400872 1.08278874 -0.90191076
v -0.43403925 -2.00044319 -0.89738188
v -0.34316675 1.89693013 -0.89527694
v -0.32490338 -1.57908007 0.10794568
v -0.46698854 -1.13088473 -0.05075904
v -0.61383236 -0.01881855 -0.09430053
v -0.46934728 0.11030838 -0.89814470
v -0.34738577 0.48014281 -0.89810434
v -0.29215870 0.28640703 -0.20136118
v -0.40576396 0.79090873 -0.90200386
v -0.34562064 -1.99717256 -0.80215440
v -0.36097706 0.82379285 -0.89813564
v -0.35146532 1.45824984 -0.19674214
v -0.40866528 -1.20664367 0.04478987
v -0.38501714 -1.19828042 0.06251355
v -0.44701553 1.90775028 -0.90401069
v -0.49381662 -1.99483439 0.12619552
v -0.28721489 -0.95887187 -0.04458979
v -0.41762487 0.97788647 -0.16242409
v -0.01319146 -1.89135643 -0.90285042
v -0.14399157 -1.44579216 -0.90195516
v -0.47118915 0.02687681 -0.12183322
v -0.33599938 0.17767200 -0.90195451
v -0.46161337 0.75427893 -0.16134224
v -0.45217682 1.98798314 -0.27140826
v -0.31855775 -1.99825653 -0.45449508
v -0.32899595 -0.74805778 -0.15531798
v -0.21932965 -0.76216265 -0.90200755
v -0.46396310 0.78927282 -0.16559606
v -0.37511383 1.24149982 -0.18224465
v -0.29927392 2.00228349 -0.28006280
v -0.20157918 -0.64888829 -0.14808366
v -0.25811861 -0.48288175 -0.20118356
v -0.43312488 -0.41947147 -0.21591838
v -0.12683843 -0.19902640 -0.89801571
v -0.42305026 0.00742013 -0.14778754
v -0.38494600 1.99422256 -0.25596322
v -0.37216164 -0.12286161 -0.18442370
v -0.33346690 0.48587916 -0.19373054
v -0.07043295 1.68195525 -0.90231577
v -0.25484414 -0.28487588 -0.21486375
v -0.27601625 -0.25327430 -0.90189651
v -0.27122418 1.10073570 -0.14840544
v -0.33248324 1.99368659 -0.88174811
v -0.31057672 -1.87065503 -0.89902231
v -0.23267926 0.49581686 -0.16568989
v -0.20419122 1.99903432 -0.71140120
v -0.20446595 2.00036326 -0.89740786
v -0.22715832 -1.98512384 -0.89278910
v 0.09353321 -1.66636333 0.18272134
v -0.14496915 1.18631712 -0.89813510
v -0.32041551 -1.98777052 0.15285250
v -0.16223703 0.55943159 -0.14386297
v -0.15059445 -1.99784204 -0.08194548
v -0.21225714 0.71576062 -0.10266889
v -0.09183099 1.71030274 -0.18251673
v 0.02797594 -1.22013935 0.12888874
v -0.18013407 -0.83817780 -0.04221396
v -0.24601019 -0.42650850 -0.19998047
v -0.28503401 0.02085519 -0.17060452
v -0.06609958 -2.00194463 -0.22987973
v -0.14078345 -1.58134660 -0.89822939
v -0.25587473 -1.20492270 0.07936491
v -0.14693735 1.72243038 -0.19599136
v 0.05650107 -2.00242838 -0.72368983
v -0.14355494 1.95451537 -0.22021796
v -0.15381325 -0.20585638 -0.19687909
v -0.17391163 0.13490528 -0.19054434
v -0.19276537 0.72722307 -0.10708660
v -0.02956974 0.85550049 -0.09084590
v -0.22210125 -0.00039741 -0.19553458
v -0.10849671 -0.76538369 -0.89816240
v -0.02488706 0.31700847 -0.89803663
v -0.08613371 1.31889573 -0.90202037
v -0.11507846 0.49657801 -0.90185491
v -0.10370798 1.36932460 -0.15442001
v -0.06531704 1.99847356 -0.33446107
v 0.06446835 0.85991970 -0.07289879
v -0.02385906 -1.89040443 -0.89895580
v -0.11135524 -2.00069603 0.18235765
v -0.09471636 -0.91900834 0.07254091
v 0.04991893 0.90133933 -0.90198461
v 0.09660297 2.00230900 -0.36031860
v 0.06359487 1.99802319 -0.18971101
v -0.06303413 -0.87881228 0.07782028
v -0.06749743 -1.99855777 -0.62988630
v 0.04335799 -1.09540531 -0.89806703
v 0.09424937 0.85068551 -0.89812729
v 0.03277559 1.99633709 -0.87941906
v -0.02070612 -1.06734553 0.10107109
v 0.05552803 -1.91168531 0.19541309
v -0.01640242 -0.39800056 -0.14892473
v 0.09353444 -1.49798450 0.16217124
v 0.04242508 -0.97812619 -0.90193215
v 0.02178519 -0.30128367 -0.90184054
v -0.00608842 0.21701184 -0.18888949
v 0.02249995 1.22193483 -0.11661096
v 0.07420598 1.49256817 -0.89833388
v 0.22612811 2.00249926 -0.69908688
v -0.05564462 1.96140328 -0.90541813
v 0.00775463 -2.00088927 -0.89255157
v 0.00450694 -0.19729754 -0.19791077
v 0.06552260 0.09022615 -0.90183989
v 0.13787340 0.06509060 -0.19851517
v 0.22888831 -1.99814555 -0.32915378
v 0.00380227 -0.57384884 -0.07926037
v 0.00702213 0.56468699 -0.06727175
v -0.00525860 0.61129335 -0.07462960
v 0.16646435 -1.50268158 -0.89793012
v 0.18463561 -0.63762423 -0.89807979
v -0.00302891 -0.39452913 -0.15866714
v 0.04945966 0.30783847 -0.15681380
v 0.02060268 1.99476543 -0.20770805
v 0.01513569 -0.72404781 0.01885041
v 0.24478516 -0.53527297 -0.90193913
v 0.02444984 -0.61809858 -0.06993764
v 0.12362029 -0.09430796 -0.19319897
v 0.25663764 1.99972001 -0.89393083
v 0.35136630 -2.00253328 0.05188816
v 0.22998946 -1.99837109 -0.79427639
v 0.03027290 -0.79800754 0.05223431
v 0.30780657 1.99852077 -0.69715056
v 0.07706401 -0.33417793 -0.16548889
v 0.03764764 0.41957358 -0.13898961
v 0.20012211 1.07070497 -0.07850767
v 0.37051271 1.44446877 -0.90196094
v 0.19774895 1.45133236 -0.11746550
v 0.36009039 1.80074731 -0.89813742
v 0.29006525 1.91959396 -0.90187279
v 0.27748189 -0.99072739 0.01332723
v 0.21666009 1.83716217 -0.14871580
v 0.19334484 -2.00187441 0.21898670
v 0.05315296 -0.85175570 0.09453705
v 0.11855252 -0.78720554 -0.00060708
v 0.23034092 -0.73264688 -0.10529892
v 0.13256787 -0.56761184 -0.11929917
v 0.29849993 -0.60080844 -0.16909871
v 0.22545369 0.33928761 -0.18354787
v 0.32344635 0.47076467 -0.90192989
v 0.20530327 0.58181677 -0.11846906
v 0.17394227 0.75952259 -0.05642304
v 0.25889968 1.85684505 -0.14845221
v 0.34406092 -1.99527046 -0.88402871
v 0.28053175 -1.68434748 -0.90180466
v 0.25144308 -0.30223213 -0.20007265
v 0.23028537 0.57755706 -0.13880173
v 0.26971175 1.50344125 -0.10796173
v 0.12624795 -1.93462190 0.21556493
v 0.28044959 -1.38342425 -0.90177569
v 0.18735181 -1.01988920 0.11796400
v 0.25247331 0.16700891 -0.17954457
v 0.21659984 0.78115312 -0.04779943
v 0.41243493 -1.99846348 0.08692110
v 0.23078657 -1.07829496 0.14148047
v 0.42624064 0.07658708 -0.89815030
v 0.45766636 1.99803940 -0.37025482
v 0.38887294 0.58436624 -0.89809290
v 0.38223003 -1.99609157 0.23325786
v 0.40646308 -2.00138530 -0.89420298
v 0.29503470 -1.31000659 0.17272736
v 0.32235586 -0.85876593 -0.07890170
v 0.38135346 -0.59961545 -0.17680607
v 0.48945831 -2.00184676 -0.33130417
v 0.38014849 -1.85694179 -0.89798645
v 0.39759438 -0.93799594 -0.90186832
v 0.32057541 -0.31470171 -0.19452931
v 0.46558725 1.13415245 -0.89806179
v 0.45938527 1.97855845 -0.13258250
v 0.38885524 -0.23750061 -0.19416353
v 0.39920916 0.95723847 -0.90187875
v 0.32725604 1.14635185 -0.06336628
v 0.31008991 -1.92334815 0.24265390
v 0.40109818 -0.01835662 -0.90198866
v 0.37648930 -1.08339348 -0.89800272
v 0.45723291 -0.27910696 -0.89811084
v 0.32261481 -0.00332513 -0.16711045
v 0.42772843 -1.99976822 0.24537608
v 0.57489466 -1.29548201 0.03132794
v 0.44668420 -0.26010316 -0.18336311
v 0.45283019 0.01420945 -0.11081719
v 0.40545111 0.16898004 -0.16940870
v 0.51579465 0.95884958 -0.09096387
v 0.54794394 1.34316078 -0.05422295
v 0.58226346 -1.76860460 0.26174512
v 0.65531676 -1.91371759 -0.90274731
v 0.56632387 -1.48214420 0.23402324
v 0.47861512 -1.35063204 0.16286765
v 0.56193839 -0.72912430 -0.89811811
v 0.46184417 0.43451122 -0.18191529
v 0.62733560 0.65613416 -0.16298564
v 0.35414024 1.99472276 -0.14589820
v 0.54560839 -0.31840846 -0.90190211
v 0.65363382 0.97701195 -0.11356032
v 0.45218756 1.03832212 -0.03958704
v 0.47265165 1.05782035 -0.03445656
v 0.44658752 1.98515240 -0.89406345
v 0.57782738 2.00183240 -0.24778980
v 0.52669006 -1.45894214 -0.89811108
v 0.52142035 1.31994573 -0.05190315
v 0.84019225 -2.00208112 -0.60261563
v 0.61017316 -1.51944574 -0.90202091
v 0.62065857 -0.23125783 -0.14590311
v 0.58366184 0.30910448 -0.14528093
v 0.59511690 1.74289957 -0.08666721
v 0.55142169 1.95112363 -0.10786254
v 0.55655449 -1.99829599 -0.69023481
v 0.51672884 0.70076219 -0.16027660
v 0.57513653 1.99941579 -0.12325006
v 0.63381695 -1.84674474 0.28353020
v 0.63574128 -1.05586072 -0.13131256
v 0.56621854 -1.99803325 -0.32452739
v 0.90410333 -1.73662039 -0.89843843
v 0.64048826 -1.06602540 -0.13423359
v 0.71660965 -0.62934047 -0.90197549
v 0.61937325 -0.67222580 -0.19327689
v 0.65719186 -0.75556278 -0.19779739
v 0.64552336 0.58138129 -0.90183708
v 0.71911042 1.75176421 -0.90193573
v 0.56332134 1.72665945 -0.08594844
v 0.55386799 0.02766165 -0.08571318
v 0.90251987 0.64154187 -0.13919722
v 0.61955177 -1.56608936 0.24494320
v 0.73610800 -0.24952430 -0.10162303
v 0.65309839 0.23864791 -0.11682958
v 0.82833659 2.00212708 -0.62016562
v 0.69185327 1.99879542 -0.81974557
v 0.84876065 -2.00198683 -0.04182228
v 0.68802916 -1.42035564 0.03374876
v 0.63907259 0.16056392 -0.08411859
v 0.68010502 1.99730292 -0.90004263
v 0.66652279 -2.00104865 0.29312274
v 0.82274758 -1.07871166 -0.90176246
v 0.83014863 -0.17054595 -0.90190849
v 0.77441781 0.96650198 -0.89803806
v 0.71417355 1.03145483 -0.90191618
v 0.79434418 0.34843478 -0.89802161
v 0.72918164 0.22148851 -0.90186909
v 0.77752416 1.05496589 -0.12650124
v 0.71094208 2.00493732 -0.84261224
v 0.79296296 -0.29973032 -0.89804319
v 0.65758466 0.01332596 -0.01109646
v 0.96090453 -1.99827203 -0.39396295
v 0.75123166 -1.56281539 0.15883983
v 0.78994106 -0.62926837 -0.19422675
v 0.78062790 0.79089490 -0.16148398
v 0.72084569 1.98707047 -0.88897851
v 0.81701778 -2.00069007 -0.89509699
v 0.87159841 -1.96989306 -0.89397726
v 0.71109163 1.26526180 -0.03376881
v 0.81912272 1.41387442 -0.89817581
v 0.79324829 1.37150064 -0.90199289
v 0.92391746 1.57745794 -0.01699499
v 0.75318610 -1.94313821 0.30255109
v 0.84893655 -0.24807761 -0.05871217
v 0.89690112 0.22617320 0.01353914
v 0.70025729 1.26897636 -0.02188455
v 0.88752197 -1.99678823 0.30429697
v 0.89025097 -0.60376972 -0.89813736
v 1.05356490 1.64069727 -0.89812419
v 0.90373146 -1.99799248 0.02600054
v 0.81761955 -1.63391575 0.28057417
v 0.89858924 -1.08369454 -0.18203274
v 0.81784039 -0.56645746 -0.17070189
v 0.79742174 0.08952397 0.04373681
v 0.78661739 1.92723576 -0.07233085
v 0.86642276 -1.99745699 -0.77546129
v 0.79886000 -1.51646682 0.09927790
v 0.92768918 0.74311522 -0.13954401
v 1.08320426 1.99842945 -0.62877939
v 1.01208155 -0.92119744 -0.89796177
v 0.91922807 -1.37943014 -0.89808962
v 0.83141797 -0.07417848 0.06286507
v 0.84578823 1.89466301 -0.06474259
v 0.86658131 2.00214377 -0.08255210
v 0.94906526 -1.60066267 -0.90206805
v 1.02359246 2.00223723 -0.31399832
v 1.02588134 -2.00085172 0.33931103
v 0.78731899 -0.00302463 0.07114140
v 1.07744609 0.46941129 -0.90187237
v 0.95569925 -1.92298123 0.34050738
v 0.93303286 -0.85194555 -0.19255476
v 0.82252972 0.00653947 0.11428469
v 0.85129719 1.99481193 -0.09409216
v 1.00277149 -0.22931995 0.06441307
v 0.89090185 -1.66159054 0.28777897
v 0.88217937 -1.27215126 -0.13821092
v 1.03206288 0.59948472 -0.08257892
v 0.92082488 1.43187860 -0.01235821
v 1.00238131 0.04726979 -0.89801559
v 1.16883396 0.50254229 0.03083678
v 0.88828008 1.31530729 -0.05288338
v 0.88480507 1.39630750 -0.00676680
v 0.93596577 1.99349085 -0.88238111
v 0.97905033 1.99841634 -0.22944282
v 0.89045911 -1.29755816 -0.11696799
v 0.91245507 -1.09005192 -0.19002352
v 1.06195711 -0.39953047 -0.01431621
v 0.90876811 0.10237939 0.11142619
v 0.98590266 0.74596051 -0.90182314
v 0.96223008 1.25078157 -0.10487395
v 1.17145037 0.96784428 -0.90183333
v 1.00876181 1.04030231 -0.15400835
v 1.12104415 1.58970717 0.00636951
v 1.10415017 1.83552590 -0.01510812
v 1.06571626 -1.75121089 0.33731901
v 0.94024162 -1.58666524 0.11774979
v 1.01288097 -1.43635079 -0.05334098
v 1.12170302 0.01076475 0.17001359
v 1.01621722 0.20294062 0.13196994
v 1.09818255 0.59647456 -0.06417155
v 1.10487699 0.70525173 -0.89802173
v 0.92225098 1.99123255 -0.90135333
v 1.22672128 -2.00187477 0.10484784
v 0.93743156 -1.60585996 0.17030486
v 1.07526218 -0.64933043 -0.13393181
v 1.05860733 -0.17904326 0.17752373
v 0.92061185 -0.03066361 0.13300369
v 1.01168649 1.11893097 -0.13043411
v 1.06031417 -1.85319921 0.34090653
v 1.14295625 1.38658730 -0.90187726
v 1.05186056 1.99437037 -0.04226205
v 1.26374518 -2.00212177 -0.65371511
v 1.14871215 -1.89792928 -0.90374312
v 1.06301724 -1.45974287 -0.01088160
v 1.15012824 -1.18635538 -0.90175465
v 1.06038367 -0.64229276 -0.12971676
v 1.22952579 -0.49038273 -0.90193001
v 1.26677751 1.85436312 -0.90261564
v 1.31272232 -0.77867588 -0.90186236
v 1.11136102 -0.33764943 -0.89804265
v 1.17219984 -0.17864611 -0.90178374
v 1.19325398 -0.36515675 0.12655770
v 1.06959700 -0.19278200 0.16817835
v 1.05314301 2.00658003 -0.85649839
v 1.06174671 -1.66961118 0.31489282
v 1.17396056 1.13047782 -0.89799604
v 1.20431637 2.00573555 -0.08598508
v 1.06129216 -1.27148351 -0.13330433
v 1.12419652 -1.28059592 -0.13396705
v 1.18177842 0.21900234 -0.90184984
v 1.13147949 1.34648243 -0.02886063
v 1.27791249 -1.54851088 0.19147664
v 1.10158967 -1.08735612 -0.17406710
v 1.17390882 0.13530049 0.16053487
v 1.10815751 1.42908767 0.02304832
v 1.17780649 1.88345161 -0.01551804
v 1.26687776 -1.99811038 -0.03018482
v 1.14516972 -1.57036098 0.11830037
v 1.09444081 -1.00060621 -0.19685407
v 1.18907570 -0.53369563 -0.02830712
v 1.23262512 -1.99737092 -0.81082377
v 1.25058018 -0.15805408 0.20198205
v 1.12350165 -1.99726161 0.30037611
v 1.20487677 -1.98137149 0.36867514
v 1.09997641 -1.66971990 0.30555406
v 1.26711248 -1.27333262 -0.89793745
v 1.16473173 1.36323753 -0.02987874
v 1.20715784 -0.87017634 -0.14804706
v 1.21767222 0.41123149 0.13110651
v 1.15807079 0.94178751 -0.12035310
v 1.17786967 1.99737373 -0.85052809
v 1.16672396 2.00089804 -0.89855531
v 1.32000362 -1.89266452 -0.89923123
v 1.38092505 -0.55581690 -0.89816162
v 1.21958422 0.90530268 -0.11170118
v 1.17358481 1.21456531 -0.09659034
v 1.21932827 1.93377844 -0.89661709
v 1.23521458 1.99322430 -0.02950635
v 1.31663298 -1.49810025 -0.90191946
v 1.42117595 0.22951243 0.19269554
v 1.42066931 0.45317290 -0.89803091
v 1.24683367 1.41492740 0.03429314
v 1.33304190 -1.99759301 0.28698608
v 1.18792378 1.14439407 -0.10235025
v 1.34037243 1.57973686 0.04510558
v 1.31767057 2.00246397 -0.71940717
v 1.32352828 -1.99826130 -0.45307160
v 1.29843115 -1.37178644 -0.00533494
v 1.59783505 -0.39214799 0.28206798
v 1.49291026 -2.00058385 -0.89911488
v 1.37097668 -1.56784996 0.36192453
v 1.30463230 0.62356660 0.04125027
v 1.26725983 -1.88899704 0.38316473
v 1.28472411 -1.62413451 0.34072482
v 1.26441382 -1.14143607 -0.13493179
v 1.24492191 -0.89707788 -0.15011499
v 1.46574067 -0.05289629 -0.89799735
v 1.20578062 1.06086031 -0.12094854
v 1.33643197 -1.55261811 0.23354354
v 1.29915081 -1.11743864 -0.11236100
v 1.24949085 -0.39835205 0.14105411
v 1.52264844 0.09954903 -0.90197429
v 1.24543725 1.99053613 -0.88698951
v 1.39529942 1.99850527 -0.13671527
v 1.26815926 -1.42898628 0.01122484
v 1.26598906 -0.73178795 -0.08229455
v 1.32964467 0.39729301 0.15492512
v 1.36695193 1.06729082 -0.02627497
v 1.46037327 -1.63134381 -0.89842728
v 1.66930531 -1.67131075 0.41973492
v 1.33304368 1.26999477 0.00643303
v 1.34790765 1.35879794 0.06620082
v 1.43091141 2.00104085 0.00701243
v 1.51323425 -1.81299075 0.40717932
v 1.41869389 0.62090555 0.14657485
v 1.68215727 1.70730225 -0.89810893
v 1.33514332 -1.98256930 -0.89507720
v 1.34153019 -1.30338189 -0.03265514
v 1.46525370 0.50303677 -0.90194682
v 1.38134586 0.83077017 -0.00225449
v 1.48815929 1.39736084 -0.89822457
v 1.35677659 -0.76642394 -0.06206439
v 1.38473259 -0.43684673 0.24658695
v 1.38786041 0.80876843 0.00083320
v 1.35489916 1.21023491 -0.01954701
v 1.47109877 1.54109899 0.06503690
v 1.54271161 1.87061683 0.04690195
v 1.38752424 -0.89219591 -0.06515791
v 1.46423196 -0.88387116 -0.89809242
v 1.41710030 -0.68950098 0.04836121
v 1.37795352 -0.44866225 0.25054487
v 1.46407806 2.00048176 -0.89431164
v 1.69673180 -1.99796661 -0.71877489
v 1.38608741 -1.43975207 0.11208506
v 1.39316486 -0.94362256 -0.07824236
v 1.43257140 -0.61151933 0.10809424
v 1.42947518 0.98612550 -0.00495298
v 1.38872897 1.97333923 -0.89273677
v 1.71479272 -2.00151547 0.39798212
v 1.50023650 -0.34919686 0.25835234
v 1.59838854 -0.25700168 -0.90209303
v 1.52601098 1.30357626 -0.90195760
v 1.53807949 1.86139217 0.04281208
v 1.51437532 1.99864999 -0.73894456
v 1.54590272 -1.86048731 -0.90304056
v 1.45383512 -1.09470972 -0.02689404
v 1.57385241 0.79371944 -0.90193329
v 1.59573149 2.00224892 -0.30650065
v 1.55954718 -2.00179192 -0.11809490
v 1.50654100 -1.38575467 0.23292192
v 1.70140826 -1.02883812 -0.90194837
v 1.43993925 -1.08931282 -0.03147252
v 1.46749734 -0.59089814 0.20247478
v 1.50721954 0.08488295 0.21621778
v 1.66289495 1.32114008 0.12014345
v 1.47732996 -1.99018201 0.42282986
v 1.64206552 -1.13462099 -0.89817652
v 1.62854909 1.99445716 -0.88119886
v 1.60405313 0.62303523 0.18026387
v 1.48104595 0.68946842 0.14219285
v 1.55803262 1.00390855 -0.89804718
v 1.57672214 -1.99813911 -0.33162493
v 1.49301766 -1.48166725 0.35785183
v 1.52696549 -1.24240914 0.12115624
v 1.45793723 1.28877953 0.08506625
v 1.76907944 -2.00329861 -0.45916367
v 1.70424949 -1.99821552 0.09741612
v 1.46798514 1.14839450 0.04791852
v 1.68638967 2.00303713 -0.70664844
v 1.48596071 -1.28834942 0.08116731
v 1.47495817 -0.81488585 0.01488822
v 1.66744446 -1.97836658 -0.89580855
v 1.65610908 -1.97412666 0.44278919
v 1.52188944 -1.41303894 0.27948486
v 1.50759112 1.17816416 0.10726490
v 1.61470555 1.91770664 -0.90391180
v 1.80547916 1.99742380 -0.36779586
v 1.59524666 -0.87412271 0.17263001
v 1.78206634 0.25891552 -0.89914683
v 1.70808147 0.44598946 0.20969006
v 1.83218502 -1.63565394 -0.89855036
v 1.55866264 -1.00769987 0.07534445
v 1.62229883 1.25521794 0.11552429
v 1.78294109 1.74154869 0.09656056
v 1.71924542 1.99623433 0.03831583
v 1.57812773 -0.66266045 0.30261573
v 1.53472923 1.10221103 0.10877299
v 1.79703831 -1.58676871 -0.90269944
v 1.58795046 -1.35870310 0.37391179
v 1.58774744 -1.20236989 0.17640409
v 1.58940076 -0.82074481 0.16597314
v 1.59613656 -0.68468567 0.29685446
v 1.55947827 0.91492799 0.14174395
v 1.72915350 1.58812765 -0.90160510
v 1.76640116 -0.53763955 -0.90264669
v 1.84308742 -0.40668515 0.31504032
v 1.75361990 0.74757567 0.18729463
v 1.57025145 0.89306632 0.14180895
v 1.82938491 -1.59942123 0.43202734
v 1.83711289 0.82872609 0.19625619
v 1.70192229 -1.98677095 0.45646068
v 1.63221263 -1.30506155 0.37148782
v 1.62627374 -1.16300663 0.25754615
v 1.83412432 1.03693715 0.17012931
v 1.64819490 -0.92950472 0.24576637
v 1.82892858 -0.74934131 -0.89783010
v 1.86083280 0.37890008 -0.90335659
v 1.80952381 0.33978382 0.23949408
v 1.86487376 -2.00287994 0.12115211
v 1.78934180 -0.42137190 -0.89885751
v 1.82202112 0.06962556 0.26431715
v 1.81277453 -0.73201021 0.34413203
v 1.80438923 1.55366257 0.11350245
v 1.67203068 -1.13003847 0.36243406
v 1.66519677 -0.87207022 0.33391276
v 1.83049821 -0.86584666 0.36640474
v 1.82336496 -0.09863022 0.28536266
v 1.85054575 0.69624773 -0.89917645
v 1.67104982 -1.15082195 0.34053689
v 1.89023577 1.20492068 -0.89632556
v 1.84023534 1.99648849 -0.90072003
v 1.85508870 -1.25693991 0.40769630
v 1.70335292 -0.94839385 0.34561276
v 1.84830235 1.15451041 -0.90282265
v 1.78326212 1.99961153 0.06656545
v 1.86536383 -1.11340233 0.38822570
v 1.86597454 -0.03898584 -0.90310690
v 1.90106033 -1.99341508 -0.28635219
v 1.84679698 -1.99477920 0.37423557
v 1.87515973 1.85160008 0.09344077
v 1.86178516 1.99656025 -0.77665827
v 1.86179935 2.00433913 -0.08992311
v 1.91501068 1.77205268 -0.90460232
v 1.89479338 1.41581527 0.14728175
v 1.89755594 1.98553887 -0.89025477
v 1.89062535 -1.99425658 0.49030253
v 1.91274964 0.86188594 -0.90304980
v 1.91242014 2.00317517 -0.75244579
v 1.93593286 -1.92721197 -0.90716008
v 1.96027123 -1.18221911 -0.90553418
v 1.95289086 1.83696357 -0.89353291
v 1.97488665 -1.34183725 -0.89449200
v 1.98527502 1.09154323 0.19006277
v 1.98284196 -1.99610075 -0.47874090
v 1.98107027 -1.78760084 0.47904321
v 1.99088274 -1.38466629 0.43778064
v 1.99014651 -1.42158231 0.42213359
v 1.98112952 -0.86096367 0.37742704
v 1.97625445 -0.33729508 -0.89684734
v 1.99457764 -0.39258867 0.33923921
v 1.97962128 -0.26565180 0.31777542
v 1.99188768 1.13024858 -0.88272533
v 1.99287461 1.99594918 0.09845350
v 1.98885893 -2.00155827 0.24678722
v 1.99339293 -1.96843335 -0.05800610
v 1.97106587 -1.95305833 0.48299303
v 1.97230040 -1.81172618 -0.89600495
v 2.00010227 -0.82246568 -0.90006718
v 1.98024606 -0.18984700 0.31771281
v 1.99044215 0.24146280 0.27418020
v 1.98350595 0.18422023 -0.89557591
v 2.00034486 0.65584603 0.23208572
v 1.98065947 0.60500571 0.23083846
v 1.98325609 0.61902038 -0.89453248
v 1.99503516 1.55467084 -0.87488911
v 1.99734878 1.98111645 -0.18398123
v 1.98946868 -2.00085768 -0.88503161
v 1.97733008 -1.99696526 -0.76653394
v 1.99701868 -1.97621545 0.13342911
v 1.97727512 -1.95856449 -0.89181242
v 1.99656295 -0.88524040 -0.88192073
v 1.99520277 -0.46463623 0.31183600
v 1.99015879 0.16746626 0.26443818
v 1.99629306 -0.00313037 0.29843023
v 1.99199676 0.74395636 -0.90008811
v 1.98212789 1.03180400 0.19022295
v 1.98463606 1.48156384 0.14281521
v 2.00232791 1.84965650 0.11298413
v 1.99367832 1.95401255 -0.87840745
v 2.00108611 1.99890152 -0.22497517
v 1.99718284 -1.97683188 -0.20292324
v 1.99801909 -0.91616794 0.39028713
v 2.00042259 -0.42978618 -0.90018389
v 1.98845016 0.03770337 -0.89952657
v 2.00027381 0.41875181 -0.89803157
v 1.99740647 1.51829270 0.14442299
v 1.98584579 1.79730764 0.11207251
v 1.99132084 1.97332040 0.08084826
v 1.99669789 1.98074451 -0.59060732
v 1.99945318 1.99628821 -0.75378612
v 1.99556064 -2.00030765 -0.50181517
v 2.00200378 -1.99079284 -0.03662732
v 1.99701940 -1.78424629 -0.77641115
v 1.99570798 -1.91330096 -0.90245870
v 1.99820339 -1.89326617 -0.46186456
v 1.99863361 -1.77098319 -0.24736533
v 1.99819182 -1.80683121 0.25970316
v 1.99824714 -1.41003951 -0.52980104
v 1.99830018 -1.46308836 -0.11928125
v 1.99871277 -1.35383209 0.26169514
v 1.99760484 -1.25113538 -0.76209405
v 2.00072013 -1.31599500 -0.89744196
v 1.99812817 -1.12699708 -0.03056865
v 2.00188934 -1.12782266 0.40662497
v 1.99814450 -0.99586758 -0.50009376
v 1.99766957 -0.93916544 0.27133485
v 1.99815797 -0.68568322 -0.36978716
v 1.99825584 -0.69800913 0.09915707
v 1.99708127 -0.48227177 -0.79765258
v 1.99336349 -0.62552607 0.36300698
v 1.99820291 -0.34296660 -0.15519725
v 1.99803006 -0.24252240 -0.60221765
v 1.99831175 -0.03717470 0.18168674
v 1.99819945 -0.05037933 -0.13982126
v 1.99745225 0.18830702 -0.73609391
v 1.99818109 0.32519076 -0.39207992
v 1.99855565 0.28254816 -0.08188652
v 1.99713968 0.37474898 0.16583134
v 1.99816536 0.65052358 -0.13407152
v 1.99815976 0.71977011 -0.47584421
v 1.99817835 0.79930714 -0.76323757
v 1.99718665 0.85021177 0.07929013
v 1.99782859 1.14077095 -0.19402999
v 1.99805449 1.08054665 -0.51171595
v 1.99775969 1.05501202 -0.89403406
v 1.99606024 1.26035241 0.11299181
v 1.99974679 1.34295145 -0.79644969
v 1.99832105 1.42887977 -0.54268304
v 1.99695121 1.63741199 0.07681007
v 1.99843024 1.75248066 -0.19781193
v 1.99991547 1.79839936 -0.77026287
v 1.99976360 1.79315177 -0.89436236
v 2.00016772 1.99507919 -0.57324580
v 1.99569320 -1.99967298 0.48779723
v 2.00048291 -1.57522055 -0.89867136
v 2.00243949 -1.53461834 0.45178118
v 2.00129985 -1.12769392 -0.89616236
v 2.00543069 -1.01749882 -0.89076111
v 1.99715637 1.45511118 -0.90106812
v 1.99980437 1.98745981 -0.89628598
v 2.00261806 -1.91315087 -0.38207612
v 2.00282060 -1.83167001 -0.80526385
v 2.00435649 -1.93872282 0.37187329
v 2.00219034 -1.70919451 0.01014972
v 2.00555002 -1.51921007 0.34394288
v 2.00220846 -1.53221246 -0.46984515
v 2.00217270 -1.26265993 0.08171485
v 2.00203465 -1.10546222 -0.71954850
v 2.00186466 -0.99046263 -0.24732049
v 2.00252234 -0.74945870 0.28582373
v 2.00197231 -0.56546905 -0.55582807
v 2.00197624 -0.63695559 0.01339186
v 2.00210666 -0.18294239 0.02187078
v 2.00188958 -0.21695910 -0.35396356
v 2.00452720 -0.19846546 0.27735355
v 2.00172686 -0.07270643 -0.77196280
v 2.00506257 0.25203660 0.15497657
v 2.00204109 0.23530165 -0.26349263
v 2.00204801 0.41827444 -0.62143484
v 2.00205170 0.62656144 -0.14023202
v 2.00250696 0.59328249 -0.80223325
v 2.00199710 0.75588861 -0.63166294
v 2.00177370 0.98415211 -0.38287604
v 2.00284683 0.91631559 -0.81482640
v 2.00180303 0.89163688 0.00911521
v 2.00362121 1.14872542 0.09926007
v 2.00194131 1.25973550 -0.48649446
v 2.00173246 1.32346872 -0.16038041
v 2.00439190 1.46195677 -0.77955732
v 2.00386666 1.66090408 0.01460970
v 2.00238382 1.61561826 -0.49956116
v 2.00288295 1.86601320 -0.35422066
v 2.00389885 1.86596910 -0.79277173
f 340 329 243
f 323 253 254
f 1021 1019 1020
f 223 195 172
f 511 462 513
f 594 577 591
f 406 487 388
f 39 42 38
f 121 46 69
f 311 341 216
f 67 39 33
f 669 554 542
f 895 866 881
f 166 63 173
f 499 528 452
f 891 854 890
f 527 532 494
f 626 574 644
f 686 688 624
f 652 529 592
f 1038 1037 1040
f 721 700 647
f 430 330 389
f 239 186 253
f 942 853 965
f 46 49 45
f 655 747 820
f 1027 1024 934
f 837 697 757
f 51 48 47
f 257 274 232
f 609 649 712
f 245 200 187
f 1044 1041 1039
f 854 804 828
f 252 174 176
f 1034 1032 1035
f 213 149 151
f 668 627 658
f 230 182 272
f 85 76 6
f 119 118 122
f 775 810 850
f 342 357 304
f 176 174 68
f 354 380 370
f 860 831 910
f 941 896 928
f 984 979 982
f 970 943 915
f 924 902 888
f 804 776 828
f 92 91 96
f 387 468 396
f 786 912 921
f 681 564 653
f 317 222 292
f 269 228 296
f 979 981 975
f 615 627 650
f 888 899 868
f 69 44 39
f 864 821 755
f 949 994 989
f 184 251 168
f 960 959 903
f 849 843 759
f 382 283 368
f 446 408 424
f 14 20 13
f 281 291 364
f 1042 1041 1044
f 478 413 492
f 826 764 728
f 552 548 601
f 733 628 646
f 335 314 260
f 401 345 356
f 671 629 692
f 789 824 723
f 389 374 514
f 415 361 320
f 701 630 588
f 282 194 174
f 325 278 289
f 919 1042 962
f 677 642 579
f 679 514 645
f 998 995 994
f 711 661 618
f 1024 1022 978
f 869 796 791
f 612 542 508
f 293 244 263
f 688 751 607
f 267 208 216
f 536 546 476
f 649 565 601
f 763 809 737
f 1009 914 956
f 892 890 898
f 546 570 479
f 134 92 135
f 146 93 133
f 347 300 327
f 459 393 421
f 989 993 990
f 1043 1039 1040
f 745 641 768
f 450 382 368
f 792 753 645
f 503 509 552
f 416 405 333
f 617 563 505
f 1009 966 914
f 799 777 719
f 776 724 764
f 692 629 614
f 787 784 851
f 279 262 328
f 731 678 727
f 136 146 165
f 331 248 294
f 885 825 842
f 968 842 967
f 863 813 844
f 187 159 109
f 302 265 329
f 282 348 237
f 661 709 571
f 617 505 613
f 222 191 159
f 757 675 773
f 971 969 920
f 623 559 525
f 464 441 493
f 944 848 809
f 744 776 804
f 146 98 93
f 698 616 625
f 999 1000 996
f 532 524 510
f 136 105 98
f 259 188 210
f 100 96 95
f 66 28 37
f 750 716 644
f 580 568 527
f 767 721 691
f 953 1002 952
f 176 68 70
f 226 178 205
f 432 372 454
f 299 174 252
f 447 466 363
f 247 141 197
f 942 965 1006
f 961 960 883
f 408 367 385
f 169 139 148
f 83 78 86
f 524 482 510
f 225 236 183
f 113 109 110
f 727 678 677
f 58 8 4
f 555 602 531
f 878 866 895
f 386 367 408
f 772 735 701
f 119 116 118
f 91 83 90
f 664 640 606
f 246 332 252
f 369 341 311
f 724 710 764
f 1024 1014 934
f 191 189 135
f 730 830 738
f 932 945 905
f 922 1012 1021
f 315 311 277
f 958 980 1026
f 923 982 976
f 478 445 413
f 512 468 460
f 181 206 152
f 784 760 746
f 915 943 766
f 157 65 63
f 816 799 738
f 142 127 149
f 522 478 492
f 712 744 782
f 265 172 202
f 584 495 550
f 561 496 574
f 889 802 819
f 182 87 214
f 122 184 138
f 376 331 448
f 908 824 789
f 615 566 627
f 619 578 559
f 1041 1036 1039
f 631 593 624
f 412 397 297
f 272 182 214
f 728 764 710
f 839 770 775
f 882 805 833
f 978 864 916
f 355 321 322
f 819 732 754
f 1026 1023 1025
f 569 580 511
f 703 670 664
f 102 100 104
f 148 112 147
f 903 871 817
f 872 888 816
f 302 329 375
f 468 525 461
f 815 885 930
f 611 720 625
f 44 42 39
f 331 268 248
f 709 633 571
f 532 510 494
f 129 185 75
f 7 2 3
f 343 302 383
f 775 734 781
f 147 112 105
f 576 498 537
f 406 545 487
f 329 265 243
f 874 836 800
f 777 812 736
f 1026 1025 1028
f 671 705 570
f 483 399 429
f 571 633 545
f 638 605 585
f 406 323 346
f 573 546 536
f 932 905 849
f 312 257 258
f 330 235 266
f 225 240 236
f 152 154 77
f 119 138 116
f 1022 1018 1011
f 237 221 162
f 822 794 771
f 61 164 59
f 682 599 602
f 242 218 241
f 243 193 209
f 60 18 12
f 707 723 660
f 127 124 126
f 237 295 221
f 444 401 471
f 643 739 646
f 607 567 575
f 586 545 633
f 440 412 314
f 140 128 142
f 372 386 454
f 279 209 262
f 793 749 634
f 387 396 332
f 845 808 762
f 504 486 434
f 706 637 604
f 153 76 85
f 468 387 460
f 494 456 527
f 508 475 582
f 305 274 257
f 364 291 363
f 796 676 791
f 55 53 52
f 373 410 441
f 356 281 364
f 576 537 589
f 759 733 646
f 88 82 77
f 75 74 54
f 665 623 603
f 1010 930 1019
f 938 919 876
f 955 907 911
f 616 515 504
f 818 687 706
f 900 823 818
f 987 988 983
f 1033 1034 1036
f 153 253 180
f 760 704 746
f 774 751 688
f 219 183 189
f 1008 909 897
f 964 1006 963
f 732 802 689
f 577 583 470
f 674 686 635
f 787 727 760
f 921 912 1010
f 14 13 11
f 982 979 976
f 482 395 425
f 102 106 109
f 934 916 827
f 276 239 344
f 322 293 263
f 64 99 20
f 996 997 992
f 676 650 695
f 977 918 969
f 963 906 964
f 36 38 29
f 981 947 977
f 485 504 434
f 966 1016 897
f 147 105 136
f 1012 921 1021
f 530 571 406
f 287 332 246
f 899 895 881
f 333 320 251
f 359 303 336
f 723 707 789
f 962 1046 954
f 978 1022 1011
f 561 421 496
f 554 528 499
f 987 983 984
f 52 53 51
f 501 551 480
f 901 789 803
f 138 110 116
f 642 581 579
f 761 731 788
f 215 147 192
f 695 650 668
f 597 592 491
f 624 568 635
f 495 465 550
f 496 458 473
f 811 858 822
f 418 357 342
f 856 830 783
f 324 289 303
f 116 117 118
f 417 351 352
f 264 272 319
f 994 993 989
f 395 457 380
f 923 875 902
f 679 632 514
f 243 306 340
f 791 676 695
f 61 10 13
f 272 214 281
f 322 263 235
f 960 903 883
f 449 390 400
f 519 471 443
f 646 597 539
f 741 692 734
f 603 623 525
f 1046 1044 1048
f 1010 912 815
f 419 418 342
f 380 392 370
f 279 243 209
f 966 1049 1016
f 350 271 288
f 563 558 518
f 956 1046 1048
f 654 589 673
f 290 259 223
f 273 164 227
f 473 376 448
f 647 700 653
f 398 337 394
f 467 400 404
f 494 439 455
f 719 670 703
f 282 237 194
f 1024 978 1013
f 117 114 120
f 386 316 367
f 838 809 763
f 355 283 321
f 1044 1039 1043
f 736 701 640
f 928 896 940
f 24 22 19
f 989 990 987
f 34 36 29
f 143 3 150
f 326 305 257
f 770 741 775
f 903 817 778
f 987 984 948
f 927 872 887
f 491 472 412
f 963 889 906
f 126 141 151
f 438 356 403
f 3 56 150
f 783 745 836
f 863 844 841
f 167 146 160
f 665 726 623
f 666 617 663
f 161 155 17
f 765 892 986
f 1041 938 1036
f 271 203 179
f 255 192 212
f 780 754 680
f 651 594 591
f 133 88 145
f 234 246 170
f 646 628 597
f 660 594 651
f 68 66 40
f 697 622 675
f 881 866 858
f 492 500 520
f 378 327 325
f 606 640 588
f 898 865 786
f 133 89 88
f 547 520 564
f 740 739 643
f 448 331 431
f 168 113 138
f 333 251 270
f 457 427 326
f 953 1005 1002
f 262 201 250
f 155 61 17
f 54 74 48
f 1024 1013 1014
f 434 402 338
f 572 564 540
f 892 898 980
f 400 369 366
f 876 835 884
f 396 362 299
f 607 696 610
f 172 73 71
f 792 645 797
f 259 210 223
f 583 469 470
f 1039 1036 1038
f 1022 1017 1018
f 958 892 980
f 862 854 891
f 936 884 893
f 216 208 132
f 611 762 720
f 806 683 782
f 852 870 714
f 19 15 16
f 599 516 521
f 780 680 655
f 952 1002 998
f 888 902 899
f 798 811 772
f 553 474 543
f 313 215 255
f 763 737 628
f 945 843 905
f 310 247 197
f 537 454 503
f 281 171 291
f 990 988 987
f 185 129 73
f 174 194 137
f 393 309 421
f 357 366 315
f 964 906 861
f 417 423 470
f 241 231 285
f 39 38 36
f 938 936 1033
f 238 141 247
f 480 535 407
f 885 699 825
f 304 315 277
f 730 738 703
f 575 532 593
f 1000 997 996
f 290 302 343
f 58 57 171
f 548 547 596
f 521 516 507
f 806 804 854
f 789 707 690
f 908 901 929
f 75 54 53
f 378 325 324
f 974 969 971
f 738 799 719
f 765 807 862
f 839 775 850
f 287 246 234
f 864 915 821
f 180 150 76
f 948 924 872
f 700 710 653
f 298 212 307
f 499 452 463
f 739 759 646
f 86 78 82
f 443 471 401
f 714 706 604
f 475 389 514
f 985 925 947
f 411 322 463
f 523 521 497
f 553 484 437
f 288 284 188
f 133 93 89
f 840 854 828
f 490 482 524
f 888 868 816
f 629 573 614
f 786 832 877
f 303 285 264
f 25 20 21
f 309 255 298
f 369 311 315
f 755 709 661
f 73 50 71
f 1040 1001 1045
f 901 908 789
f 454 446 453
f 540 564 520
f 404 366 357
f 639 643 544
f 572 436 595
f 860 761 831
f 403 364 363
f 896 894 940
f 865 767 786
f 158 69 67
f 1012 922 921
f 669 659 554
f 351 434 338
f 566 565 609
f 492 444 500
f 559 481 489
f 919 938 1042
f 141 123 139
f 438 403 363
f 743 752 686
f 669 732 659
f 662 762 611
f 773 716 750
f 480 407 371
f 308 227 221
f 275 381 287
f 203 234 72
f 809 793 737
f 627 566 609
f 300 261 278
f 261 249 242
f 72 170 70
f 566 503 565
f 585 557 581
f 947 882 918
f 936 893 950
f 184 168 138
f 173 63 62
f 390 341 369
f 393 313 309
f 630 602 555
f 707 660 651
f 262 250 301
f 880 873 874
f 778 717 726
f 60 8 87
f 26 22 24
f 921 1010 1019
f 220 156 218
f 897 852 808
f 991 937 925
f 738 719 703
f 320 361 286
f 830 730 783
f 673 615 676
f 300 296 249
f 808 714 748
f 573 608 546
f 515 426 486
f 540 443 572
f 149 126 151
f 638 585 642
f 22 21 19
f 620 543 622
f 204 149 235
f 293 280 244
f 350 338 271
f 520 519 540
f 342 305 326
f 722 636 620
f 145 77 154
f 58 4 57
f 149 127 126
f 379 309 298
f 342 304 305
f 146 133 160
f 650 627 668
f 841 844 801
f 813 751 774
f 444 391 401
f 711 618 715
f 432 454 498
f 488 419 427
f 920 944 809
f 202 193 243
f 955 917 941
f 729 724 776
f 1000 1003 997
f 477 384 365
f 930 885 968
f 985 947 981
f 939 998 994
f 159 191 102
f 520 500 519
f 63 18 62
f 1026 1028 1029
f 427 342 326
f 453 478 509
f 795 778 726
f 853 780 655
f 1027 1025 1024
f 954 860 962
f 275 234 203
f 814 753 792
f 911 792 917
f 925 773 886
f 737 634 652
f 659 689 590
f 205 178 190
f 169 148 175
f 813 800 751
f 623 619 559
f 758 801 743
f 503 453 509
f 756 695 694
f 600 551 501
f 664 670 640
f 373 306 339
f 790 849 740
f 460 387 381
f 967 842 943
f 722 620 697
f 694 702 765
f 434 486 426
f 562 555 490
f 229 211 131
f 70 68 43
f 227 155 161
f 755 661 711
f 571 545 406
f 310 266 247
f 980 1021 1023
f 321 280 293
f 1003 928 997
f 536 516 573
f 275 287 234
f 179 203 72
f 38 37 29
f 5 9 7
f 956 824 908
f 783 730 745
f 902 875 878
f 724 681 710
f 791 695 756
f 103 104 100
f 527 456 511
f 5 7 3
f 762 808 748
f 835 756 884
f 220 173 156
f 815 663 699
f 384 539 440
f 663 617 613
f 35 34 32
f 394 313 393
f 9 11 7
f 365 335 267
f 376 268 331
f 790 770 839
f 133 145 160
f 773 675 716
f 622 626 675
f 413 324 359
f 494 510 439
f 301 269 360
f 827 711 715
f 244 204 263
f 730 684 745
f 747 679 753
f 165 146 167
f 409 348 362
f 935 926 1031
f 422 392 380
f 1001 1040 951
f 744 667 729
f 547 522 520
f 153 85 59
f 266 238 247
f 277 216 236
f 1034 1030 1032
f 828 776 840
f 127 125 124
f 218 182 230
f 640 701 588
f 183 132 134
f 473 448 495
f 264 230 272
f 267 229 208
f 548 522 547
f 754 669 680
f 911 834 792
f 573 516 614
f 721 728 700
f 950 935 1031
f 672 614 599
f 225 183 219
f 1007 1003 1004
f 749 848 857
f 462 416 382
f 304 277 240
f 790 705 770
f 349 330 430
f 727 677 704
f 592 506 491
f 295 308 221
f 794 781 725
f 352 351 288
f 514 374 484
f 1005 999 1002
f 847 811 798
f 390 369 400
f 308 318 227
f 878 850 866
f 47 48 43
f 643 539 544
f 887 872 816
f 1049 1008 1016
f 1030 1027 1032
f 456 415 405
f 760 727 704
f 976 979 975
f 641 610 696
f 357 315 304
f 264 231 230
f 742 657 598
f 909 1015 900
f 429 399 340
f 875 849 790
f 604 512 515
f 896 837 894
f 33 32 65
f 260 224 211
f 999 1004 1000
f 1019 930 968
f 850 810 846
f 712 649 667
f 111 105 112
f 845 762 824
f 514 484 553
f 635 568 580
f 658 627 609
f 284 179 188
f 705 790 740
f 290 188 259
f 517 470 442
f 108 107 111
f 161 17 99
f 72 70 48
f 373 339 410
f 418 404 357
f 941 792 896
f 871 715 713
f 603 525 556
f 500 444 471
f 379 298 377
f 450 368 452
f 465 529 550
f 914 897 845
f 972 974 971
f 201 198 250
f 183 134 135
f 181 152 80
f 73 52 50
f 109 106 110
f 557 533 483
f 919 831 876
f 840 776 764
f 479 477 390
f 163 33 157
f 172 71 202
f 707 651 690
f 868 799 816
f 787 760 784
f 521 502 497
f 84 83 91
f 964 942 1006
f 472 397 412
f 925 882 947
f 29 31 26
f 706 621 637
f 287 387 332
f 122 118 125
f 351 338 350
f 688 607 631
f 343 288 290
f 859 863 841
f 131 81 84
f 335 260 229
f 897 909 852
f 321 293 322
f 202 71 121
f 482 490 395
f 940 894 937
f 814 779 753
f 339 328 372
f 587 530 535
f 797 645 722
f 863 874 813
f 365 267 341
f 594 583 577
f 320 286 251
f 965 907 955
f 873 836 874
f 902 878 895
f 71 46 121
f 196 67 201
f 21 14 19
f 409 428 348
f 655 542 612
f 827 916 864
f 249 261 300
f 169 175 233
f 552 509 548
f 280 283 178
f 747 779 814
f 193 158 209
f 488 531 497
f 981 974 975
f 542 499 463
f 349 235 330
f 332 299 252
f 801 813 774
f 729 648 724
f 998 999 995
f 433 322 349
f 340 306 373
f 192 136 165
f 182 60 87
f 752 688 686
f 35 36 34
f 107 101 105
f 1030 1029 1027
f 129 55 73
f 420 327 378
f 853 655 820
f 952 873 880
f 824 914 845
f 122 125 140
f 206 294 154
f 101 98 105
f 62 18 60
f 661 571 587
f 493 432 498
f 929 901 860
f 606 567 610
f 158 67 196
f 926 1026 1031
f 559 578 501
f 590 528 554
f 690 638 761
f 821 766 709
f 873 939 856
f 405 320 333
f 788 787 851
f 213 238 266
f 95 91 94
f 735 602 630
f 883 795 823
f 337 233 313
f 820 814 834
f 774 688 752
f 95 94 97
f 523 602 599
f 306 243 279
f 428 414 358
f 713 600 619
f 589 615 673
f 805 742 833
f 595 563 617
f 871 827 715
f 429 373 464
f 415 320 405
f 812 798 736
f 391 359 336
f 276 199 239
f 21 20 14
f 751 696 607
f 936 950 1033
f 714 604 698
f 334 197 256
f 454 386 446
f 516 536 507
f 905 843 849
f 754 732 669
f 506 529 435
f 918 833 857
f 199 143 186
f 212 167 217
f 366 369 315
f 171 143 199
f 67 33 163
f 696 751 800
f 375 329 340
f 394 337 313
f 651 638 690
f 575 490 524
f 439 482 425
f 80 152 130
f 923 902 924
f 480 371 414
f 456 494 455
f 986 958 1026
f 164 153 59
f 575 567 490
f 8 5 4
f 27 30 24
f 1018 967 943
f 952 998 939
f 601 596 648
f 427 419 342
f 652 634 529
f 228 166 173
f 407 530 406
f 542 463 508
f 121 69 158
f 461 489 409
f 78 77 82
f 843 838 733
f 709 766 633
f 693 692 614
f 747 655 679
f 621 603 556
f 424 327 420
f 1029 1030 1034
f 490 531 488
f 590 569 513
f 660 662 583
f 704 576 654
f 297 206 224
f 238 151 141
f 186 180 253
f 318 273 227
f 570 544 477
f 210 188 185
f 995 999 996
f 246 252 176
f 882 750 805
f 821 709 755
f 667 648 729
f 858 866 822
f 1016 1008 897
f 63 27 23
f 67 163 201
f 648 596 681
f 451 447 344
f 448 431 465
f 811 822 771
f 170 176 70
f 286 245 251
f 290 223 302
f 612 632 679
f 248 207 154
f 1031 1026 1029
f 551 587 535
f 1036 1035 1038
f 902 895 899
f 416 333 382
f 160 207 248
f 871 934 827
f 142 128 127
f 677 579 704
f 375 340 399
f 208 131 132
f 286 292 245
f 590 513 528
f 381 387 287
f 103 100 101
f 164 254 153
f 580 569 635
f 456 405 416
f 534 466 518
f 892 862 891
f 615 589 566
f 317 312 258
f 837 797 722
f 533 557 585
f 76 1 6
f 767 691 786
f 876 869 835
f 799 868 812
f 426 381 275
f 41 40 37
f 251 187 168
f 575 524 532
f 735 630 701
f 632 582 514
f 735 682 602
f 767 728 721
f 867 847 812
f 323 254 273
f 519 443 540
f 827 755 711
f 28 25 26
f 991 940 937
f 187 109 113
f 771 725 735
f 248 154 294
f 1036 1034 1035
f 886 750 882
f 1043 1040 1045
f 452 368 411
f 890 854 879
f 699 613 708
f 867 858 847
f 840 764 826
f 861 819 754
f 581 538 579
f 185 188 75
f 805 656 742
f 157 63 166
f 539 597 491
f 1018 943 970
f 341 267 216
f 124 120 123
f 277 236 240
f 411 355 322
f 544 539 384
f 50 46 71
f 505 549 613
f 843 733 759
f 156 60 182
f 143 150 186
f 421 309 379
f 367 301 385
f 705 639 570
f 528 513 450
f 94 91 90
f 600 618 551
f 567 562 490
f 462 456 416
f 980 898 922
f 589 537 566
f 937 855 925
f 736 798 701
f 841 801 758
f 823 795 687
f 449 400 467
f 437 398 474
f 346 323 273
f 674 635 569
f 251 245 187
f 217 167 160
f 636 553 620
f 947 918 977
f 451 344 388
f 178 122 140
f 192 147 136
f 885 815 699
f 851 784 869
f 1028 1025 1027
f 401 391 345
f 25 64 20
f 702 658 718
f 215 175 147
f 159 102 109
f 726 619 623
f 705 643 639
f 263 204 235
f 624 593 568
f 877 832 815
f 423 417 343
f 314 297 224
f 460 381 426
f 749 793 848
f 402 426 275
f 70 43 48
f 974 977 969
f 875 790 839
f 450 462 382
f 543 474 459
f 490 457 395
f 51 47 49
f 548 509 522
f 924 982 923
f 55 52 73
f 655 612 679
f 695 668 694
f 950 893 935
f 128 125 127
f 436 534 558
f 307 212 217
f 1023 1020 1022
f 598 584 550
f 1037 961 951
f 423 383 442
f 720 748 698
f 269 198 228
f 1029 1028 1027
f 769 663 832
f 500 471 519
f 325 289 324
f 278 242 241
f 241 218 231
f 645 514 636
f 868 899 881
f 1009 1048 1049
f 921 1019 1021
f 688 631 624
f 138 113 110
f 378 324 413
f 955 911 917
f 137 64 28
f 442 375 399
f 992 988 990
f 231 218 230
f 31 37 28
f 425 395 361
f 588 555 562
f 680 542 655
f 587 571 530
f 124 123 126
f 906 889 819
f 671 570 608
f 858 811 847
f 647 572 595
f 631 607 575
f 413 359 391
f 1015 1045 1001
f 268 160 248
f 538 493 526
f 256 197 169
f 773 750 886
f 705 740 643
f 1006 1007 1004
f 64 25 28
f 110 106 108
f 785 749 857
f 882 833 918
f 894 855 937
f 426 512 460
f 591 517 605
f 868 867 812
f 489 481 428
f 30 29 26
f 452 528 450
f 316 262 301
f 992 997 991
f 273 254 164
f 994 995 993
f 853 820 907
f 75 53 129
f 443 401 356
f 144 80 79
f 221 227 161
f 611 485 583
f 667 601 648
f 578 600 501
f 558 534 518
f 59 6 10
f 684 664 641
f 339 279 328
f 395 380 354
f 56 1 150
f 926 765 986
f 526 493 498
f 87 58 171
f 983 981 979
f 157 166 198
f 806 782 804
f 443 356 436
f 822 846 794
f 114 112 115
f 938 884 936
f 802 859 841
f 458 377 473
f 1045 1015 1008
f 361 395 354
f 205 190 204
f 311 216 277
f 664 606 641
f 874 800 813
f 502 507 404
f 190 149 204
f 723 662 660
f 608 573 629
f 267 335 229
f 258 257 219
f 110 108 116
f 959 934 871
f 1003 941 928
f 531 523 497
f 224 206 181
f 873 856 836
f 477 365 390
f 884 756 893
f 605 533 585
f 422 312 392
f 922 786 921
f 134 84 92
f 660 583 594
f 988 925 985
f 406 388 323
f 479 390 449
f 517 533 605
f 162 221 161
f 368 283 355
f 209 196 262
f 502 521 507
f 687 795 665
f 345 336 319
f 685 603 621
f 973 972 931
f 579 526 576
f 501 480 414
f 801 752 743
f 647 653 572
f 397 435 294
f 360 269 296
f 683 609 712
f 870 900 818
f 969 918 933
f 622 541 626
f 400 366 404
f 489 428 409
f 1007 941 1003
f 274 240 225
f 822 866 846
f 284 271 179
f 356 345 281
f 694 668 702
f 316 386 372
f 716 626 644
f 779 747 753
f 654 576 589
f 1011 970 864
f 250 198 269
f 201 163 198
f 962 1042 1046
f 7 10 6
f 459 421 541
f 900 1001 913
f 728 710 700
f 675 626 716
f 609 565 649
f 829 718 806
f 108 111 114
f 956 914 824
f 314 224 260
f 65 32 27
f 108 114 117
f 129 53 55
f 210 195 223
f 991 925 988
f 68 40 43
f 788 727 787
f 965 1007 1006
f 618 661 587
f 810 781 794
f 389 330 310
f 831 788 851
f 417 469 351
f 276 171 199
f 26 31 28
f 323 388 253
f 619 600 578
f 595 436 558
f 953 889 963
f 45 41 38
f 62 60 156
f 879 854 840
f 59 85 6
f 1010 815 930
f 892 891 890
f 7 6 2
f 186 150 180
f 56 2 1
f 338 275 271
f 125 118 124
f 90 86 89
f 241 285 289
f 45 38 42
f 1005 1006 999
f 442 483 533
f 983 985 981
f 219 232 225
f 382 333 283
f 799 812 777
f 966 897 914
f 160 145 207
f 890 865 898
f 597 628 592
f 553 437 474
f 476 479 449
f 849 759 740
f 596 564 681
f 103 101 107
f 298 255 212
f 861 780 853
f 228 198 166
f 371 346 318
f 190 178 142
f 913 823 900
f 1004 1003 1000
f 508 433 475
f 412 297 314
f 704 579 576
f 265 202 243
f 497 502 418
f 856 887 830
f 69 39 67
f 997 940 991
f 983 988 985
f 885 842 968
f 19 16 18
f 581 464 538
f 1032 960 961
f 757 697 675
f 429 340 373
f 389 310 374
f 561 541 421
f 511 456 462
f 507 467 404
f 951 961 913
f 285 231 264
f 742 598 785
f 495 448 465
f 538 526 579
f 683 658 609
f 762 748 720
f 963 1005 953
f 734 692 693
f 373 441 464
f 938 1033 1036
f 207 145 154
f 880 874 863
f 972 957 931
f 334 256 398
f 808 852 714
f 934 1014 916
f 656 560 657
f 512 621 556
f 80 78 79
f 826 728 767
f 144 79 81
f 305 304 274
f 551 535 480
f 980 1023 1026
f 678 642 677
f 45 43 41
f 326 257 312
f 786 691 769
f 118 117 124
f 756 765 893
f 559 501 481
f 556 468 512
f 137 162 64
f 721 647 691
f 596 547 564
f 796 746 673
f 211 181 144
f 926 893 765
f 606 588 562
f 94 93 97
f 60 12 8
f 689 674 569
f 508 463 433
f 41 43 40
f 135 92 96
f 181 80 144
f 549 451 586
f 446 424 453
f 563 518 505
f 377 307 376
f 923 973 932
f 316 301 367
f 106 103 108
f 969 946 944
f 969 933 946
f 965 853 907
f 187 200 159
f 339 372 410
f 777 670 719
f 232 274 225
f 174 137 66
f 566 537 503
f 353 344 447
f 831 761 788
f 570 639 544
f 720 698 625
f 827 864 755
f 199 186 239
f 1048 1044 1047
f 557 483 464
f 437 334 398
f 802 841 758
f 283 270 177
f 66 137 28
f 374 334 437
f 280 178 244
f 1040 1037 951
f 638 651 605
f 583 485 469
f 945 931 843
f 923 976 973
f 737 793 634
f 964 861 942
f 193 121 158
f 582 475 514
f 861 754 780
f 931 957 904
f 723 824 662
f 992 991 988
f 555 531 490
f 784 746 796
f 687 665 685
f 837 757 894
f 222 189 191
f 307 217 268
f 973 945 932
f 22 26 21
f 598 550 529
f 1014 1013 916
f 543 459 541
f 549 447 451
f 771 794 725
f 801 774 752
f 371 407 346
f 833 742 785
f 919 910 831
f 541 561 626
f 12 16 9
f 244 226 204
f 297 294 206
f 835 791 756
f 1017 967 1018
f 374 310 334
f 591 605 651
f 904 920 809
f 732 689 659
f 188 179 75
f 507 536 476
f 365 384 335
f 844 813 801
f 94 90 89
f 989 987 948
f 1027 934 959
f 434 426 402
f 876 884 938
f 11 13 10
f 483 429 464
f 490 427 457
f 488 497 419
f 683 712 782
f 148 147 175
f 446 386 408
f 106 104 103
f 761 638 731
f 943 842 766
f 137 194 162
f 178 140 142
f 470 423 442
f 513 569 511
f 798 772 701
f 270 184 177
f 46 44 69
f 613 586 708
f 872 924 888
f 108 103 107
f 291 276 353
f 33 65 157
f 952 939 873
f 469 485 351
f 625 616 485
f 132 84 134
f 970 915 864
f 331 294 435
f 742 656 657
f 484 374 437
f 953 952 889
f 674 743 686
f 889 880 859
f 710 681 653
f 30 26 24
f 538 464 493
f 338 402 275
f 52 51 49
f 570 477 479
f 413 391 444
f 758 743 674
f 394 393 459
f 491 506 472
f 831 851 876
f 155 164 61
f 944 946 848
f 392 317 292
f 380 457 422
f 275 203 271
f 505 447 549
f 1013 978 916
f 173 62 156
f 955 941 1007
f 478 453 445
f 620 553 543
f 289 278 241
f 876 851 869
f 475 433 430
f 1048 1047 1049
f 407 535 530
f 475 430 389
f 861 906 819
f 53 54 51
f 745 684 641
f 586 451 545
f 348 295 237
f 227 164 155
f 684 730 703
f 897 808 845
f 643 646 539
f 131 144 81
f 398 256 337
f 969 944 920
f 14 11 15
f 950 1031 1033
f 1032 1027 959
f 708 633 766
f 363 291 353
f 456 455 415
f 476 449 467
f 717 619 726
f 676 615 650
f 57 4 3
f 178 177 122
f 222 219 189
f 130 152 77
f 1033 1031 1029
f 383 302 375
f 474 394 459
f 490 488 427
f 949 887 856
f 781 693 725
f 672 599 682
f 65 27 63
f 666 663 769
f 879 826 865
f 658 683 718
f 452 411 463
f 283 333 270
f 613 549 586
f 63 23 18
f 748 714 698
f 1033 1029 1034
f 904 838 843
f 525 559 489
f 610 567 607
f 210 185 195
f 663 613 699
f 1038 1035 1037
f 170 246 176
f 150 1 76
f 12 9 8
f 54 48 51
f 671 692 741
f 4 5 3
f 591 577 517
f 216 132 183
f 772 771 735
f 453 424 420
f 197 141 139
f 672 693 614
f 656 574 560
f 980 922 1021
f 912 877 815
f 515 512 426
f 514 553 636
f 968 1017 1020
f 288 271 284
f 235 149 213
f 691 666 769
f 233 175 215
f 954 1046 956
f 244 178 226
f 209 158 196
f 662 824 762
f 588 630 555
f 397 294 297
f 631 575 593
f 324 303 359
f 202 121 193
f 470 469 417
f 1049 1045 1008
f 959 871 903
f 1006 1004 999
f 759 739 740
f 17 13 20
f 420 445 453
f 848 793 809
f 472 506 397
f 296 300 347
f 436 356 438
f 595 558 563
f 47 43 45
f 879 840 826
f 601 548 596
f 880 863 859
f 865 826 767
f 546 479 476
f 310 197 334
f 190 142 149
f 724 648 681
f 1008 1015 909
f 52 49 50
f 361 354 286
f 795 726 665
f 433 349 430
f 973 975 972
f 348 358 295
f 345 319 281
f 46 45 44
f 417 352 343
f 57 3 143
f 318 346 273
f 922 898 786
f 496 379 458
f 465 431 435
f 414 308 358
f 644 574 656
f 33 39 35
f 353 276 344
f 702 718 807
f 517 442 533
f 185 73 195
f 274 304 240
f 477 544 384
f 997 928 940
f 829 806 854
f 122 138 119
f 557 464 581
f 604 637 512
f 292 222 200
f 18 16 12
f 86 82 88
f 29 37 31
f 19 14 15
f 124 117 120
f 670 777 736
f 698 604 616
f 226 205 204
f 628 737 652
f 904 809 838
f 431 331 435
f 75 179 74
f 927 989 948
f 923 932 875
f 218 156 182
f 1049 1047 1045
f 328 262 316
f 929 954 956
f 319 272 281
f 466 438 363
f 786 877 912
f 975 974 972
f 257 232 219
f 445 378 413
f 965 955 1007
f 825 699 708
f 11 10 7
f 32 30 27
f 6 1 2
f 34 30 32
f 686 624 635
f 66 37 40
f 918 857 933
f 344 239 388
f 197 139 169
f 842 708 766
f 101 95 98
f 309 313 255
f 169 233 256
f 498 454 537
f 577 470 517
f 33 35 32
f 281 214 171
f 120 114 115
f 9 5 8
f 522 492 520
f 561 574 626
f 883 778 795
f 421 379 496
f 878 839 850
f 659 590 554
f 347 327 424
f 715 618 600
f 168 187 113
f 836 745 768
f 560 473 495
f 299 282 174
f 301 250 269
f 611 625 485
f 717 713 619
f 195 73 172
f 909 900 870
f 321 283 280
f 1046 1042 1044
f 107 105 111
f 749 598 634
f 34 29 30
f 994 949 939
f 330 266 310
f 592 529 506
f 830 816 738
f 598 529 634
f 725 693 672
f 662 611 583
f 645 636 722
f 962 860 910
f 422 326 312
f 803 690 761
f 927 948 872
f 451 388 487
f 377 376 473
f 372 328 316
f 702 668 658
f 343 352 288
f 584 560 495
f 1017 968 967
f 391 336 345
f 283 177 178
f 608 570 546
f 249 173 220
f 868 881 867
f 1047 1043 1045
f 666 595 617
f 829 854 862
f 503 454 453
f 474 398 394
f 837 722 697
f 177 184 122
f 258 222 317
f 343 383 423
f 290 288 188
f 439 425 415
f 313 233 215
f 354 292 286
f 568 593 532
f 565 552 601
f 98 97 93
f 303 289 285
f 820 747 814
f 810 775 781
f 1009 1049 966
f 995 996 992
f 132 131 84
f 228 173 249
f 509 478 522
f 396 409 362
f 823 687 818
f 298 307 377
f 867 881 858
f 278 261 242
f 956 1048 1009
f 653 564 572
f 50 49 46
f 228 249 296
f 191 135 102
f 114 111 112
f 466 447 505
f 803 761 860
f 74 72 48
f 485 434 351
f 360 296 347
f 1047 1044 1043
f 896 792 797
f 817 713 717
f 411 368 355
f 385 360 347
f 385 301 360
f 211 224 181
f 628 652 592
f 239 253 388
f 93 94 89
f 836 768 800
f 61 59 10
f 262 196 201
f 786 769 832
f 162 99 64
f 713 715 600
f 689 758 674
f 565 503 552
f 1025 1022 1024
f 785 598 749
f 952 880 889
f 254 253 153
f 933 857 946
f 657 584 598
f 481 414 428
f 16 15 9
f 929 860 954
f 782 744 804
f 746 654 673
f 925 855 773
f 1035 1032 961
f 518 466 505
f 669 542 680
f 731 727 788
f 220 218 242
f 568 532 527
f 1037 1035 961
f 87 8 58
f 746 704 654
f 441 410 432
f 148 115 112
f 370 392 292
f 708 586 633
f 102 104 106
f 497 418 419
f 572 443 436
f 869 791 835
f 102 96 100
f 136 98 146
f 162 161 99
f 929 956 908
f 817 871 713
f 214 87 171
f 341 390 365
f 802 732 819
f 949 927 887
f 802 758 689
f 687 685 621
f 89 86 88
f 96 91 95
f 229 260 211
f 44 45 42
f 866 850 846
f 292 200 245
f 513 462 450
f 441 432 493
f 463 322 433
f 163 157 198
f 1039 1038 1040
f 270 251 184
f 526 498 576
f 765 702 807
f 130 77 78
f 741 705 671
f 580 527 511
f 165 167 212
f 606 562 567
f 291 171 276
f 384 440 314
f 861 853 942
f 392 312 317
f 689 569 590
f 222 258 219
f 234 170 72
f 302 223 265
f 385 347 408
f 962 910 919
f 95 97 98
f 492 413 444
f 560 584 657
f 706 687 621
f 80 130 78
f 1032 959 960
f 642 585 581
f 501 414 481
f 887 816 830
f 855 757 773
f 932 849 875
f 556 525 468
f 957 971 920
f 192 165 212
f 834 814 792
f 351 350 288
f 1020 1017 1022
f 120 115 123
f 90 83 86
f 410 372 432
f 84 79 83
f 322 235 349
f 931 904 843
f 857 833 785
f 765 862 892
f 807 829 862
f 978 1011 864
f 733 763 628
f 744 729 776
f 362 348 282
f 403 356 364
f 948 984 924
f 924 984 982
f 23 24 19
f 1015 1001 900
f 455 439 415
f 415 425 361
f 153 180 76
f 750 644 656
f 756 694 765
f 208 229 131
f 770 705 741
f 554 499 542
f 442 399 483
f 691 595 666
f 491 412 440
f 649 601 667
f 618 587 551
f 889 859 802
f 949 989 927
f 141 126 123
f 925 886 882
f 131 211 144
f 189 183 135
f 836 856 783
f 909 870 852
f 805 750 656
f 174 66 68
f 612 582 632
f 371 318 308
f 256 233 337
f 995 992 993
f 875 839 878
f 39 36 35
f 894 757 855
f 1021 1020 1023
f 442 383 375
f 506 435 397
f 84 81 79
f 83 79 78
f 145 88 77
f 734 693 781
f 678 638 642
f 1002 999 998
f 718 683 806
f 901 803 860
f 17 61 13
f 778 817 717
f 396 299 332
f 485 616 504
f 984 983 979
f 890 879 865
f 237 162 194
f 300 278 327
f 913 883 823
f 796 673 676
f 384 314 335
f 993 992 990
f 703 664 684
f 599 614 516
f 327 278 325
f 504 515 486
f 242 249 220
f 957 920 904
f 697 620 622
f 102 135 96
f 23 19 18
f 1019 968 1020
f 741 734 775
f 896 797 837
f 370 292 354
f 972 971 957
f 408 347 424
f 647 595 691
f 870 818 714
f 543 541 622
f 461 409 396
f 560 496 473
f 502 404 418
f 447 363 353
f 445 420 378
f 981 977 974
f 223 172 265
f 869 784 796
f 235 213 266
f 407 406 346
f 99 17 20
f 139 115 148
f 56 3 2
f 612 508 582
f 15 11 9
f 714 818 706
f 907 834 911
f 507 476 467
f 510 482 439
f 27 24 23
f 539 491 440
f 832 663 815
f 41 37 38
f 534 436 466
f 116 108 117
f 200 222 159
f 529 465 435
f 468 461 396
f 725 672 682
f 915 766 821
f 975 973 976
f 768 641 696
f 939 949 856
f 92 84 91
f 768 696 800
f 26 25 21
f 574 496 560
f 638 678 731
f 171 57 143
f 213 151 238
f 362 282 299
f 926 986 1026
f 1001 951 913
f 306 279 339
f 825 708 842
f 812 847 798
f 179 72 74
f 139 123 115
f 963 1006 1005
f 307 268 376
f 206 154 152
f 941 917 792
f 670 736 640
f 414 371 308
f 616 604 515
f 1018 970 1011
f 436 438 466
f 935 893 926
f 319 336 264
f 986 892 958
f 215 192 255
f 428 358 348
f 451 487 545
f 973 931 945
f 789 690 803
f 525 489 461
f 457 326 422
f 679 645 753
f 946 857 848
f 637 621 512
f 846 810 794
f 1042 938 1041
f 531 602 523
f 140 125 128
f 671 608 629
f 712 667 744
f 358 308 295
f 379 377 458
f 641 606 610
f 217 160 268
f 523 599 521
f 236 216 183
f 961 883 913
f 811 771 772
f 685 665 603
f 907 820 834
f 100 95 101
f 883 903 778
f 1023 1022 1025
f 838 763 733
f 735 725 682
f 807 718 829
f 303 264 336
f 45 49 47

