v -2 -2 -0.17999999999999999
v -2 -1.8999999999999999 -0.19400000000000001
v -2 -1.8 -0.20799999999999996
v -2 -1.7 -0.222
v -2 -1.6000000000000001 -0.23599999999999999
v -2 -1.2999999999999998 -0.27800000000000002
v -2 -1.2 -0.29200000000000004
v -2 -1.1000000000000001 -0.30599999999999999
v -2 -0.79999999999999982 -0.34800000000000003
v -2 -0.69999999999999996 -0.36199999999999999
v -2 -0.59999999999999987 -0.376
v -2 -0.5 -0.39000000000000001
v -2 -0.29999999999999982 -0.41800000000000004
v -2 -0.19999999999999996 -0.43200000000000005
v -2 -0.099999999999999867 -0.44600000000000006
v -2 0 -0.46000000000000002
v -2 0.20000000000000018 -0.48800000000000004
v -2 0.30000000000000027 -0.50200000000000011
v -2 0.40000000000000036 -0.51600000000000013
v -2 0.5 -0.53000000000000003
v -2 0.90000000000000036 -0.58600000000000008
v -2 1 -0.60000000000000009
v -2 1.4000000000000004 -0.65600000000000014
v -2 1.5 -0.67000000000000004
v -2 1.9000000000000004 -0.72600000000000009
v -2 2 -0.73999999999999999
v -1.8999999999999999 -2 -0.15699999999999997
v -1.8999999999999999 -1.8999999999999999 -0.17099999999999999
v -1.8999999999999999 -1.8 -0.18499999999999994
v -1.8999999999999999 -1.7 -0.19899999999999998
v -1.8999999999999999 -1.6000000000000001 -0.21299999999999997
v -1.8999999999999999 -1.2999999999999998 -0.255
v -1.8999999999999999 -1.2 -0.26900000000000002
v -1.8999999999999999 -1.1000000000000001 -0.28299999999999997
v -1.8999999999999999 -0.79999999999999982 -0.32500000000000001
v -1.8999999999999999 -0.69999999999999996 -0.33899999999999997
v -1.8999999999999999 -0.59999999999999987 -0.35299999999999998
v -1.8999999999999999 -0.5 -0.36699999999999999
v -1.8999999999999999 -0.29999999999999982 -0.39500000000000002
v -1.8999999999999999 -0.19999999999999996 -0.40900000000000003
v -1.8999999999999999 -0.099999999999999867 -0.42300000000000004
v -1.8999999999999999 0 -0.437
v -1.8999999999999999 0.30000000000000027 -0.47900000000000004
v -1.8999999999999999 0.40000000000000036 -0.49300000000000005
v -1.8999999999999999 0.5 -0.50700000000000001
v -1.8999999999999999 0.60000000000000009 -0.52100000000000002
v -1.8999999999999999 0.90000000000000036 -0.56300000000000006
v -1.8999999999999999 1 -0.57699999999999996
v -1.8999999999999999 1.4000000000000004 -0.63300000000000001
v -1.8999999999999999 1.5 -0.64700000000000002
v -1.8999999999999999 1.9000000000000004 -0.70300000000000007
v -1.8999999999999999 2 -0.71700000000000008
v -1.8 -2 -0.13400000000000001
v -1.8 -1.8999999999999999 -0.14800000000000002
v -1.8 -1.8 -0.16199999999999998
v -1.8 -1.7 -0.17600000000000002
v -1.8 -1.6000000000000001 -0.19
v -1.8 -1.2999999999999998 -0.23200000000000004
v -1.8 -1.2 -0.24600000000000002
v -1.8 -1.1000000000000001 -0.26000000000000001
v -1.8 -0.79999999999999982 -0.30200000000000005
v -1.8 -0.69999999999999996 -0.31600000000000006
v -1.8 -0.59999999999999987 -0.33000000000000007
v -1.8 -0.5 -0.34400000000000003
v -1.8 -0.29999999999999982 -0.37200000000000005
v -1.8 -0.19999999999999996 -0.38600000000000001
v -1.8 -0.099999999999999867 -0.40000000000000008
v -1.8 0 -0.41400000000000003
v -1.8 0.40000000000000036 -0.47000000000000008
v -1.8 0.5 -0.48400000000000004
v -1.8 0.60000000000000009 -0.49800000000000005
v -1.8 0.70000000000000018 -0.51200000000000001
v -1.8 0.90000000000000036 -0.54000000000000004
v -1.8 1 -0.55400000000000005
v -1.8 1.4000000000000004 -0.6100000000000001
v -1.8 1.5 -0.62400000000000011
v -1.8 1.9000000000000004 -0.68000000000000016
v -1.8 2 -0.69400000000000006
v -1.7 -2 -0.11099999999999999
v -1.7 -1.8999999999999999 -0.125
v -1.7 -1.8 -0.13899999999999996
v -1.7 -1.7 -0.153
v -1.7 -1.6000000000000001 -0.16699999999999998
v -1.7 -1.2999999999999998 -0.20900000000000002
v -1.7 -1.1000000000000001 -0.23699999999999999
v -1.7 -0.79999999999999982 -0.27900000000000003
v -1.7 -0.69999999999999996 -0.29300000000000004
v -1.7 -0.59999999999999987 -0.30700000000000005
v -1.7 -0.5 -0.32100000000000001
v -1.7 -0.29999999999999982 -0.34900000000000003
v -1.7 -0.19999999999999996 -0.36299999999999999
v -1.7 -0.099999999999999867 -0.37700000000000006
v -1.7 0 -0.39100000000000001
v -1.7 0.40000000000000036 -0.44700000000000006
v -1.7 0.5 -0.46100000000000002
v -1.7 0.70000000000000018 -0.48900000000000005
v -1.7 0.80000000000000027 -0.50300000000000011
v -1.7 0.90000000000000036 -0.51700000000000013
v -1.7 1 -0.53100000000000003
v -1.7 1.4000000000000004 -0.58700000000000008
v -1.7 1.5 -0.60099999999999998
v -1.7 1.9000000000000004 -0.65700000000000003
v -1.7 2 -0.67100000000000004
v -1.6000000000000001 -2 -0.088000000000000023
v -1.6000000000000001 -1.8999999999999999 -0.10200000000000004
v -1.6000000000000001 -1.8 -0.11599999999999999
v -1.6000000000000001 -1.7 -0.13000000000000003
v -1.6000000000000001 -1.6000000000000001 -0.14400000000000002
v -1.6000000000000001 -1.2999999999999998 -0.18600000000000005
v -1.6000000000000001 -1.1000000000000001 -0.21400000000000002
v -1.6000000000000001 -0.79999999999999982 -0.25600000000000006
v -1.6000000000000001 -0.69999999999999996 -0.27000000000000002
v -1.6000000000000001 -0.59999999999999987 -0.28400000000000003
v -1.6000000000000001 -0.5 -0.29800000000000004
v -1.6000000000000001 -0.29999999999999982 -0.32600000000000007
v -1.6000000000000001 -0.19999999999999996 -0.34000000000000008
v -1.6000000000000001 -0.099999999999999867 -0.35400000000000009
v -1.6000000000000001 0 -0.36800000000000005
v -1.6000000000000001 0.40000000000000036 -0.4240000000000001
v -1.6000000000000001 0.5 -0.43800000000000006
v -1.6000000000000001 0.80000000000000027 -0.48000000000000009
v -1.6000000000000001 0.90000000000000036 -0.49400000000000011
v -1.6000000000000001 1 -0.50800000000000001
v -1.6000000000000001 1.1000000000000001 -0.52200000000000002
v -1.6000000000000001 1.4000000000000004 -0.56400000000000006
v -1.6000000000000001 1.5 -0.57800000000000007
v -1.6000000000000001 1.9000000000000004 -0.63400000000000012
v -1.6000000000000001 2 -0.64800000000000013
v -1.5 -0.69999999999999996 -0.24700000000000003
v -1.5 -0.59999999999999987 -0.26100000000000001
v -1.5 1 -0.48500000000000004
v -1.5 1.1000000000000001 -0.49900000000000005
v -1.5 1.2000000000000002 -0.51300000000000012
v -1.5 1.4000000000000004 -0.54100000000000015
v -1.5 1.5 -0.55500000000000005
v -1.5 1.9000000000000004 -0.6110000000000001
v -1.5 2 -0.625
v -1.3999999999999999 -0.59999999999999987 -0.23800000000000002
v -1.3999999999999999 -0.5 -0.252
v -1.3999999999999999 1.2000000000000002 -0.49000000000000005
v -1.3999999999999999 1.3000000000000003 -0.504
v -1.3999999999999999 1.4000000000000004 -0.51800000000000002
v -1.3999999999999999 1.5 -0.53200000000000003
v -1.3999999999999999 1.9000000000000004 -0.58800000000000008
v -1.3999999999999999 2 -0.60200000000000009
v -1.2999999999999998 -2 -0.018999999999999961
v -1.2999999999999998 -1.8999999999999999 -0.032999999999999974
v -1.2999999999999998 -1.8 -0.046999999999999931
v -1.2999999999999998 -1.7 -0.060999999999999971
v -1.2999999999999998 -1.6000000000000001 -0.074999999999999956
v -1.2999999999999998 -1.2999999999999998 -0.11699999999999999
v -1.2999999999999998 -0.79999999999999982 -0.187
v -1.2999999999999998 -0.69999999999999996 -0.20099999999999998
v -1.2999999999999998 -0.59999999999999987 -0.215
v -1.2999999999999998 -0.5 -0.22899999999999998
v -1.2999999999999998 -0.29999999999999982 -0.25700000000000001
v -1.2999999999999998 -0.19999999999999996 -0.27100000000000002
v -1.2999999999999998 -0.099999999999999867 -0.28500000000000003
v -1.2999999999999998 0 -0.29899999999999999
v -1.2999999999999998 0.40000000000000036 -0.35500000000000004
v -1.2999999999999998 0.5 -0.36899999999999999
v -1.2999999999999998 0.90000000000000036 -0.42500000000000004
v -1.2999999999999998 1 -0.439
v -1.2999999999999998 1.3000000000000003 -0.48100000000000004
v -1.2999999999999998 1.4000000000000004 -0.49500000000000005
v -1.2999999999999998 1.5 -0.50900000000000001
v -1.2999999999999998 1.9000000000000004 -0.56500000000000006
v -1.2999999999999998 2 -0.57899999999999996
v -1.2 -0.19999999999999996 -0.24800000000000003
v -1.2 -0.099999999999999867 -0.26200000000000007
v -1.2 1.5 -0.48600000000000004
v -1.2 1.6000000000000001 -0.5
v -1.2 1.9000000000000004 -0.54200000000000004
v -1.2 2 -0.55600000000000005
v -1.1000000000000001 -2 0.026999999999999968
v -1.1000000000000001 -1.8999999999999999 0.012999999999999956
v -1.1000000000000001 -1.8 -0.0010000000000000009
v -1.1000000000000001 -1.7 -0.015000000000000041
v -1.1000000000000001 -1.6000000000000001 -0.029000000000000026
v -1.1000000000000001 -0.59999999999999987 -0.16900000000000007
v -1.1000000000000001 -0.5 -0.18300000000000005
v -1.1000000000000001 -0.29999999999999982 -0.21100000000000008
v -1.1000000000000001 -0.19999999999999996 -0.22500000000000006
v -1.1000000000000001 -0.099999999999999867 -0.23900000000000007
v -1.1000000000000001 0 -0.25300000000000006
v -1.1000000000000001 0.10000000000000009 -0.26700000000000007
v -1.1000000000000001 0.40000000000000036 -0.30900000000000011
v -1.1000000000000001 0.5 -0.32300000000000006
v -1.1000000000000001 0.90000000000000036 -0.37900000000000011
v -1.1000000000000001 1 -0.39300000000000007
v -1.1000000000000001 1.4000000000000004 -0.44900000000000012
v -1.1000000000000001 1.5 -0.46300000000000008
v -1.1000000000000001 1.6000000000000001 -0.47700000000000009
v -1.1000000000000001 1.9000000000000004 -0.51900000000000013
v -1.1000000000000001 2 -0.53300000000000014
v -1 -2 0.050000000000000017
v -1 -1.8999999999999999 0.036000000000000004
v -1 -1.8 0.022000000000000047
v -1 -1.7 0.0080000000000000071
v -1 -1.6000000000000001 -0.0059999999999999776
v -1 -0.5 -0.16
v -1 -0.29999999999999982 -0.18800000000000003
v -1 -0.19999999999999996 -0.20200000000000001
v -1 -0.099999999999999867 -0.21600000000000003
v -1 0 -0.23000000000000001
v -1 0.10000000000000009 -0.24400000000000002
v -1 0.20000000000000018 -0.25800000000000006
v -1 0.30000000000000027 -0.27200000000000008
v -1 1 -0.37
v -1 1.4000000000000004 -0.42600000000000005
v -1 1.5 -0.44000000000000006
v -1 2 -0.51000000000000001
v -0.89999999999999991 0.20000000000000018 -0.23500000000000001
v -0.89999999999999991 0.30000000000000027 -0.24900000000000003
v -0.89999999999999991 0.40000000000000036 -0.26300000000000007
v -0.79999999999999982 -2 0.096000000000000058
v -0.79999999999999982 -1.8999999999999999 0.082000000000000045
v -0.79999999999999982 -1.8 0.068000000000000088
v -0.79999999999999982 -1.7 0.054000000000000048
v -0.79999999999999982 -1.6000000000000001 0.040000000000000063
v -0.79999999999999982 -0.29999999999999982 -0.14199999999999999
v -0.79999999999999982 -0.19999999999999996 -0.15599999999999997
v -0.79999999999999982 -0.099999999999999867 -0.16999999999999998
v -0.79999999999999982 0 -0.18399999999999997
v -0.79999999999999982 0.40000000000000036 -0.24000000000000002
v -0.79999999999999982 0.5 -0.254
v -0.79999999999999982 0.60000000000000009 -0.26800000000000002
v -0.79999999999999982 0.90000000000000036 -0.31000000000000005
v -0.79999999999999982 1 -0.32399999999999995
v -0.79999999999999982 1.4000000000000004 -0.38
v -0.79999999999999982 1.5 -0.39400000000000002
v -0.79999999999999982 1.9000000000000004 -0.45000000000000007
v -0.79999999999999982 2 -0.46399999999999997
v -0.69999999999999996 -2 0.11900000000000002
v -0.69999999999999996 -1.8999999999999999 0.10500000000000001
v -0.69999999999999996 -1.8 0.091000000000000053
v -0.69999999999999996 -1.7 0.077000000000000013
v -0.69999999999999996 -1.6000000000000001 0.063000000000000028
v -0.69999999999999996 -0.099999999999999867 -0.14700000000000002
v -0.69999999999999996 0 -0.161
v -0.69999999999999996 0.90000000000000036 -0.28700000000000003
v -0.69999999999999996 1 -0.30100000000000005
v -0.69999999999999996 1.4000000000000004 -0.3570000000000001
v -0.69999999999999996 1.5 -0.371
v -0.69999999999999996 1.9000000000000004 -0.42700000000000005
v -0.69999999999999996 2 -0.44100000000000006
v -0.59999999999999987 -2 0.14200000000000004
v -0.59999999999999987 -1.8999999999999999 0.12800000000000003
v -0.59999999999999987 -1.8 0.11400000000000007
v -0.59999999999999987 -1.7 0.10000000000000003
v -0.59999999999999987 -1.6000000000000001 0.086000000000000049
v -0.59999999999999987 0 -0.13799999999999998
v -0.59999999999999987 0.90000000000000036 -0.26400000000000001
v -0.59999999999999987 1 -0.27800000000000002
v -0.59999999999999987 1.4000000000000004 -0.33400000000000007
v -0.59999999999999987 1.5 -0.34799999999999998
v -0.59999999999999987 1.9000000000000004 -0.40400000000000003
v -0.59999999999999987 2 -0.41800000000000004
v -0.5 -2 0.16500000000000004
v -0.5 -1.8999999999999999 0.15100000000000002
v -0.5 -1.8 0.13700000000000007
v -0.5 -1.7 0.12300000000000001
v -0.5 -1.6000000000000001 0.10900000000000003
v -0.5 0.90000000000000036 -0.24100000000000005
v -0.5 1 -0.255
v -0.5 1.4000000000000004 -0.31100000000000005
v -0.5 1.5 -0.32500000000000001
v -0.5 1.9000000000000004 -0.38100000000000006
v -0.5 2 -0.39500000000000002
v -0.39999999999999991 -1.7 0.14600000000000002
v -0.39999999999999991 -1.6000000000000001 0.13200000000000006
v -0.39999999999999991 -1.5 0.11800000000000004
v -0.39999999999999991 -1.3999999999999999 0.10400000000000002
v -0.29999999999999982 -2 0.21100000000000008
v -0.29999999999999982 -1.8999999999999999 0.19700000000000006
v -0.29999999999999982 -1.8 0.18300000000000011
v -0.29999999999999982 -1.7 0.16900000000000004
v -0.29999999999999982 -1.6000000000000001 0.15500000000000008
v -0.29999999999999982 -1.5 0.14100000000000007
v -0.29999999999999982 -1.3999999999999999 0.12700000000000006
v -0.29999999999999982 -1.2999999999999998 0.11300000000000003
v -0.29999999999999982 0.90000000000000036 -0.19500000000000001
v -0.29999999999999982 1 -0.20899999999999996
v -0.29999999999999982 1.4000000000000004 -0.26500000000000001
v -0.29999999999999982 1.5 -0.27899999999999997
v -0.29999999999999982 1.9000000000000004 -0.33500000000000002
v -0.29999999999999982 2 -0.34899999999999998
v -0.19999999999999996 -2 0.23400000000000004
v -0.19999999999999996 -1.8999999999999999 0.22000000000000003
v -0.19999999999999996 -1.8 0.20600000000000007
v -0.19999999999999996 -1.7 0.19200000000000003
v -0.19999999999999996 -1.6000000000000001 0.17800000000000005
v -0.19999999999999996 -1.2999999999999998 0.13600000000000001
v -0.19999999999999996 0.90000000000000036 -0.17200000000000004
v -0.19999999999999996 1 -0.186
v -0.19999999999999996 1.4000000000000004 -0.24200000000000005
v -0.19999999999999996 1.5 -0.25600000000000001
v -0.19999999999999996 1.9000000000000004 -0.31200000000000006
v -0.19999999999999996 2 -0.32600000000000001
v -0.099999999999999867 -2 0.25700000000000006
v -0.099999999999999867 -1.8999999999999999 0.24300000000000005
v -0.099999999999999867 -1.8 0.22900000000000009
v -0.099999999999999867 -1.7 0.21500000000000005
v -0.099999999999999867 -1.6000000000000001 0.20100000000000007
v -0.099999999999999867 -1.2999999999999998 0.15900000000000003
v -0.099999999999999867 -1.1000000000000001 0.13100000000000006
v -0.099999999999999867 0.90000000000000036 -0.14900000000000002
v -0.099999999999999867 1 -0.16299999999999998
v -0.099999999999999867 1.4000000000000004 -0.21900000000000003
v -0.099999999999999867 1.5 -0.23299999999999998
v -0.099999999999999867 1.9000000000000004 -0.28900000000000003
v -0.099999999999999867 2 -0.30299999999999999
v 0 -2 0.28000000000000003
v 0 -1.8999999999999999 0.26600000000000001
v 0 -1.8 0.25200000000000006
v 0 -1.7 0.23800000000000002
v 0 -1.6000000000000001 0.22400000000000003
v 0 -1.2999999999999998 0.182
v 0 -1.1000000000000001 0.15400000000000003
v 0 0.90000000000000036 -0.12600000000000006
v 0 1 -0.14000000000000001
v 0 1.4000000000000004 -0.19600000000000006
v 0 1.5 -0.21000000000000002
v 0 1.9000000000000004 -0.26600000000000007
v 0 2 -0.28000000000000003
v 0.10000000000000009 -1.7 0.26100000000000001
v 0.10000000000000009 -1.6000000000000001 0.24700000000000005
v 0.30000000000000027 -1.2999999999999998 0.25100000000000006
v 0.40000000000000036 -2 0.37200000000000011
v 0.40000000000000036 -1.8999999999999999 0.3580000000000001
v 0.40000000000000036 -1.8 0.34400000000000014
v 0.40000000000000036 -1.7 0.33000000000000007
v 0.40000000000000036 -1.6000000000000001 0.31600000000000011
v 0.40000000000000036 1.4000000000000004 -0.10399999999999998
v 0.40000000000000036 1.5 -0.11799999999999994
v 0.40000000000000036 1.7000000000000002 -0.14599999999999996
v 0.40000000000000036 1.9000000000000004 -0.17399999999999999
v 0.40000000000000036 2 -0.18799999999999994
v 0.5 -2 0.39500000000000002
v 0.5 -1.8999999999999999 0.38100000000000001
v 0.5 -1.8 0.36700000000000005
v 0.5 -1.7 0.35300000000000004
v 0.5 -1.6000000000000001 0.33900000000000002
v 0.5 1.4000000000000004 -0.081000000000000058
v 0.5 1.5 -0.095000000000000015
v 0.5 1.7000000000000002 -0.12300000000000004
v 0.5 1.8000000000000003 -0.13700000000000007
v 0.5 1.9000000000000004 -0.15100000000000008
v 0.5 2 -0.16500000000000004
v 0.60000000000000009 -1.8 0.39000000000000012
v 0.60000000000000009 -1.7 0.37600000000000006
v 0.60000000000000009 -1.6000000000000001 0.3620000000000001
v 0.60000000000000009 1.4000000000000004 -0.058000000000000024
v 0.60000000000000009 1.5 -0.071999999999999981
v 0.60000000000000009 1.8000000000000003 -0.11400000000000002
v 0.60000000000000009 1.9000000000000004 -0.12800000000000003
v 0.60000000000000009 2 -0.14199999999999999
v 0.90000000000000036 -2 0.4870000000000001
v 0.90000000000000036 -1.8999999999999999 0.47300000000000009
v 0.90000000000000036 -1.8 0.45900000000000019
v 0.90000000000000036 1.5 -0.0029999999999999194
v 0.90000000000000036 1.9000000000000004 -0.058999999999999969
v 0.90000000000000036 2 -0.072999999999999926
v 1 -2 0.51000000000000001
v 1 -1.8999999999999999 0.496
v 1 -1.8 0.4820000000000001
v 1 1.9000000000000004 -0.03600000000000006
v 1 2 -0.050000000000000017
v 1.1000000000000001 -2 0.53300000000000014
v 1.1000000000000001 -1.8999999999999999 0.51900000000000013
v 1.1000000000000001 -1.8 0.50500000000000012
v 1.1000000000000001 0 0.25300000000000006
v 1.1000000000000001 1.9000000000000004 -0.013000000000000012
v 1.1000000000000001 2 -0.026999999999999968
v 1.2000000000000002 -2 0.55600000000000005
v 1.2000000000000002 -1.8999999999999999 0.54200000000000004
v 1.2000000000000002 -1.8 0.52800000000000014
v 1.3000000000000003 -2 0.57900000000000018
v 1.3000000000000003 -1.8999999999999999 0.56500000000000017
v 1.3000000000000003 -1.8 0.55100000000000016
v 1.4000000000000004 -2 0.60200000000000009
v 1.4000000000000004 -1.8999999999999999 0.58800000000000008
v 1.4000000000000004 -1.8 0.57400000000000018
v 1.4000000000000004 -1.7 0.56000000000000016
v 1.4000000000000004 -1.6000000000000001 0.54600000000000015
v 1.4000000000000004 -0.29999999999999982 0.3640000000000001
v 1.4000000000000004 -0.19999999999999996 0.35000000000000009
v 1.4000000000000004 -0.099999999999999867 0.33600000000000008
v 1.4000000000000004 0 0.32200000000000012
v 1.4000000000000004 1.5 0.1120000000000001
v 1.4000000000000004 1.9000000000000004 0.05600000000000005
v 1.4000000000000004 2 0.042000000000000093
v 1.5 -2 0.625
v 1.5 -1.8999999999999999 0.61099999999999999
v 1.5 -1.8 0.59700000000000009
v 1.5 -1.7 0.58300000000000007
v 1.5 -1.6000000000000001 0.56900000000000006
v 1.5 -0.29999999999999982 0.38700000000000001
v 1.5 -0.19999999999999996 0.373
v 1.5 -0.099999999999999867 0.35899999999999999
v 1.5 0 0.34500000000000003
v 1.5 0.40000000000000036 0.28899999999999998
v 1.5 1.5 0.13500000000000001
v 1.5 1.9000000000000004 0.078999999999999959
v 1.5 2 0.065000000000000002
v 1.6000000000000001 -2 0.64800000000000013
v 1.6000000000000001 -1.8999999999999999 0.63400000000000012
v 1.6000000000000001 -1.8 0.62000000000000011
v 1.7000000000000002 -2 0.67100000000000004
v 1.7000000000000002 -1.8999999999999999 0.65700000000000003
v 1.7000000000000002 -1.8 0.64300000000000013
v 1.7000000000000002 -1.2 0.55900000000000005
v 1.7000000000000002 -0.79999999999999982 0.50300000000000011
v 1.7000000000000002 -0.69999999999999996 0.4890000000000001
v 1.8000000000000003 -2 0.69400000000000017
v 1.8000000000000003 -1.8999999999999999 0.68000000000000016
v 1.8000000000000003 -1.8 0.66600000000000015
v 1.8000000000000003 -1.2 0.58200000000000007
v 1.8000000000000003 -1.1000000000000001 0.56800000000000006
v 1.8000000000000003 -0.79999999999999982 0.52600000000000002
v 1.8000000000000003 -0.69999999999999996 0.51200000000000012
v 1.9000000000000004 -2 0.71700000000000008
v 1.9000000000000004 -1.8999999999999999 0.70300000000000007
v 1.9000000000000004 -1.8 0.68900000000000017
v 1.9000000000000004 -1.7 0.67500000000000016
v 1.9000000000000004 -1.6000000000000001 0.66100000000000014
v 1.9000000000000004 -1.2999999999999998 0.61900000000000011
v 1.9000000000000004 -1.2 0.60500000000000009
v 1.9000000000000004 -1.1000000000000001 0.59100000000000019
v 1.9000000000000004 -0.79999999999999982 0.54900000000000015
v 1.9000000000000004 -0.69999999999999996 0.53500000000000014
v 1.9000000000000004 -0.59999999999999987 0.52100000000000013
v 1.9000000000000004 -0.5 0.50700000000000012
v 1.9000000000000004 -0.29999999999999982 0.47900000000000009
v 1.9000000000000004 -0.19999999999999996 0.46500000000000008
v 1.9000000000000004 -0.099999999999999867 0.45100000000000007
v 1.9000000000000004 0 0.43700000000000011
v 1.9000000000000004 0.40000000000000036 0.38100000000000006
v 1.9000000000000004 0.5 0.3670000000000001
v 1.9000000000000004 0.90000000000000036 0.31100000000000005
v 1.9000000000000004 1 0.2970000000000001
v 1.9000000000000004 1.4000000000000004 0.24100000000000005
v 1.9000000000000004 1.5 0.22700000000000009
v 1.9000000000000004 1.9000000000000004 0.17100000000000004
v 1.9000000000000004 2 0.15700000000000008
v 2 -2 0.73999999999999999
v 2 -1.8999999999999999 0.72599999999999998
v 2 -1.8 0.71200000000000008
v 2 -1.7 0.69800000000000006
v 2 -1.6000000000000001 0.68400000000000005
v 2 -1.2999999999999998 0.64200000000000002
v 2 -1.2 0.628
v 2 -1.1000000000000001 0.6140000000000001
v 2 -0.79999999999999982 0.57200000000000006
v 2 -0.69999999999999996 0.55800000000000005
v 2 -0.59999999999999987 0.54400000000000004
v 2 -0.5 0.53000000000000003
v 2 -0.29999999999999982 0.502
v 2 -0.19999999999999996 0.48799999999999999
v 2 -0.099999999999999867 0.47399999999999998
v 2 0 0.46000000000000002
v 2 0.40000000000000036 0.40399999999999997
v 2 0.5 0.39000000000000001
v 2 0.90000000000000036 0.33399999999999996
v 2 1 0.32000000000000001
v 2 1.4000000000000004 0.26399999999999996
v 2 1.5 0.25
v 2 1.9000000000000004 0.19399999999999995
v 2 2 0.17999999999999999
v -2 -2 -0.90000000000000002
v -2 2 -0.90000000000000002
v 2 -2 -0.90000000000000002
v 2 2 -0.90000000000000002
v -0.97999999999999998 -1.4090410229681589 -0.13948159818050965
v -0.97999999999999998 -1.02 -0.25
v -0.86113969362638287 -1.5333975533947326 -0.029514369134360674
v -0.97999999999999998 -1.2222172313953772 -0.22183438476009898
v -0.78767998437426168 -1.3410775377689941 -0.14837467550797778
v -0.66525920090974511 -1.4549610866964302 -0.019261310574334223
v -0.78547948851592053 -1.1402202876061753 -0.21378182205841367
v -1.1723200156257383 -1.3410775377689941 -0.14837467550797778
v -1.1745205114840795 -1.1402202876061753 -0.21378182205841367
v -1.1745205114840795 -0.8997797123938247 -0.21378182205841367
v -1.0400038571480446 -1.4755750954465237 -0.090043851390778862
v -0.91999614285195541 -1.4755750954465237 -0.090043851390778862
v -0.97999999999999998 -1.5401512025609523 -0.036348483872040038
v -0.97999999999999998 -1.3184829579768498 -0.18713213171240828
v -0.97999999999999998 -1.1220846591744489 -0.24292477264807777
v -0.88291171967837045 -1.3784868151248943 -0.15004770853882332
v -0.69612583781306459 -1.2975285399338752 -0.13449449122056867
v -0.82236307941964393 -1.4427262277604245 -0.096560429651868174
v -0.88257502519947217 -1.2850893071800684 -0.19398540445239609
v -0.70490645449946343 -1.5432590180780452 0.044889293294416155
v -0.63336191035845368 -1.3559529698072645 -0.070872210835354554
v -0.76095660149245115 -1.4990848014728457 -0.029709286590096418
v -0.72384676905614587 -1.4019299988377854 -0.089754256788851738
v -0.88152738293596244 -1.0808594243067282 -0.24088937204040195
v -0.88173356714735218 -1.1828866003302365 -0.22513052207780493
v -0.78457876451229147 -1.2429315705289918 -0.18802068964149965
v -0.56245188329332907 -1.3998978265105315 0.011532434069678577
v -1.0770882803216295 -1.3784868151248943 -0.15004770853882332
v -1.2638741621869354 -1.2975285399338752 -0.13449449122056867
v -1.137636920580356 -1.4427262277604245 -0.096560429651868174
v -1.0774249748005278 -1.2850893071800684 -0.19398540445239609
v -1.2361532309438541 -1.4019299988377854 -0.089754256788851738
v -1.0784726170640375 -1.0808594243067282 -0.24088937204040195
v -1.2657786653348182 -1.196620928436499 -0.1693448278993922
v -1.0782664328526479 -1.1828866003302365 -0.22513052207780493
v -1.1754212354877085 -1.2429315705289918 -0.18802068964149965
v -1.0784726170640375 -0.95914057569327194 -0.24088937204040195
v -1.0782664328526479 -0.85711339966976363 -0.22513052207780493
v -1.1771394788395799 -1.02 -0.22325733496604072
v -1.1754212354877085 -0.7970684294710082 -0.18802068964149965
v -1.2757092182593699 -1.0809194492236505 -0.18560704476990131
v -1.2757092182593699 -0.95908055077634946 -0.18560704476990131
v 1.02 1.3690410229681589 -0.11948159818050963
v 1.6494815981805098 0.97999999999999998 0.12095897703184116
v 1.02 0.97999999999999998 -0.22999999999999998
v 1.6186725758374612 0.60999999999999988 0.28132742416253886
v 1.3900000000000001 0.75132742416253884 -0.088672575837461132
v 1.3900000000000001 1.208672575837461 -0.088672575837461132
v 0.90113969362638291 1.4933975533947326 -0.0095143691343606562
v 1.1388603063736171 1.4933975533947326 -0.0095143691343606562
v 1.02 1.1822172313953772 -0.20183438476009896
v 1.6583746755079778 1.1723200156257383 0.18892246223100584
v 1.6583746755079778 0.78767998437426168 0.18892246223100584
v 1.4549610866964302 0.47073868942566577 0.19525920090974519
v 1.5395143691343607 0.86113969362638287 -0.0033975533947323555
v 1.2145205114840796 0.85977971239382467 -0.19378182205841366
v 1.5292613105743342 0.66525920090974511 0.075038913303569876
v 1.2123200156257383 1.301077537768994 -0.12837467550797776
v 1.5395143691343607 1.0988603063736171 -0.0033975533947323555
v 1.3347407990902549 1.4149610866964302 0.00073868942566579499
v 1.2145205114840796 1.1002202876061753 -0.19378182205841366
v 1.5292613105743342 1.2947407990902549 0.075038913303569876
v 1.4090410229681589 0.97999999999999998 -0.11948159818050952
v 0.82767998437426171 1.301077537768994 -0.12837467550797776
v 0.82547948851592057 1.1002202876061753 -0.19378182205841366
v 0.95999614285195545 1.4355750954465236 -0.070043851390778844
v 1.0800038571480446 1.4355750954465236 -0.070043851390778844
v 1.02 1.5001512025609522 -0.016348483872040021
v 1.02 1.2784829579768497 -0.16713213171240826
v 1.02 1.0820846591744488 -0.22292477264807775
v 1.6600477085388232 1.0770882803216295 0.15151318487510579
v 1.6600477085388232 0.88291171967837045 0.15151318487510579
v 1.6444944912205686 0.69612583781306459 0.23247146006612485
v 1.5432590180780452 0.53488929329441626 0.23490645449946351
v 1.3038741621869354 0.70247146006612482 -0.11449449122056865
v 1.6000438513907786 0.91999614285195541 0.054424904553476372
v 1.4690506104611425 0.8045561192405738 -0.05140270212081044
v 1.6065604296518683 0.82236307941964393 0.087273772239575609
v 1.3666380896415462 0.64404703019273535 -0.050872210835354537
v 1.1184726170640376 0.9191405756932719 -0.22088937204040193
v 1.3057786653348182 0.80337907156350097 -0.14934482789939219
v 1.1182664328526479 0.8171133996697636 -0.20513052207780491
v 1.2154212354877085 0.75706842947100816 -0.16802068964149963
v 1.5808722108353546 0.63336191035845368 0.17404703019273537
v 1.465110706705584 0.70490645449946343 -0.013259018078045082
v 1.5997542567888519 0.72384676905614587 0.12807000116221479
v 1.4984675659303215 0.56245188329332907 0.13010217348946856
v 1.5397092865900963 0.76095660149245115 0.030915198527154297
v 1.437548116706671 0.60010217348946848 0.031532434069678594
v 1.1170882803216295 1.3384868151248943 -0.1300477085388233
v 1.3038741621869354 1.2575285399338751 -0.11449449122056865
v 1.1776369205803561 1.4027262277604244 -0.076560429651868156
v 1.1174249748005278 1.2450893071800684 -0.17398540445239608
v 1.6000438513907786 1.0400038571480446 0.054424904553476372
v 1.4690506104611425 1.1554438807594263 -0.05140270212081044
v 1.6065604296518683 1.137636920580356 0.087273772239575609
v 1.5463484838720403 0.97999999999999998 -0.010151202560952144
v 1.2950935455005366 1.5032590180780452 0.064889293294416173
v 1.3666380896415462 1.3159529698072645 -0.050872210835354537
v 1.2390433985075489 1.4590848014728457 -0.0097092865900963998
v 1.3998978265105315 1.4584675659303215 0.092451883293329096
v 1.2761532309438541 1.3619299988377853 -0.069754256788851721
v 1.1184726170640376 1.0408594243067282 -0.22088937204040193
v 1.3057786653348182 1.156620928436499 -0.14934482789939219
v 1.1182664328526479 1.1428866003302365 -0.20513052207780491
v 1.21713947883958 0.97999999999999998 -0.2032573349660407
v 1.2154212354877085 1.2029315705289918 -0.16802068964149963
v 1.5808722108353546 1.3266380896415462 0.17404703019273537
v 1.465110706705584 1.2550935455005365 -0.013259018078045082
v 1.5997542567888519 1.2361532309438541 0.12807000116221479
v 1.4984675659303215 1.397548116706671 0.13010217348946856
v 1.5397092865900963 1.1990433985075488 0.030915198527154297
v 1.437548116706671 1.3598978265105315 0.031532434069678594
v 1.4042512823988558 0.86423849587022916 -0.11173163514208273
v 1.4042512823988558 1.0957615041297708 -0.11173163514208273
v 1.4789772911339507 0.91995502980124466 -0.067351234325493725
v 1.3157092182593699 0.91908055077634943 -0.16560704476990129
v 1.4789772911339507 1.0400449701987553 -0.067351234325493725
v 1.3157092182593699 1.0409194492236504 -0.16560704476990129
v 1.6971321317124084 0.97999999999999998 0.21151704202315036
v 1.7039854044523961 0.88257502519947217 0.24491069281993161
v 0.92291171967837049 1.3384868151248943 -0.1300477085388233
v 0.73612583781306462 1.2575285399338751 -0.11449449122056865
v 0.86236307941964396 1.4027262277604244 -0.076560429651868156
v 0.92257502519947221 1.2450893071800684 -0.17398540445239608
v 0.67336191035845372 1.3159529698072645 -0.050872210835354537
v 0.7638467690561459 1.3619299988377853 -0.069754256788851721
v 0.92152738293596248 1.0408594243067282 -0.22088937204040193
v 0.92173356714735222 1.1428866003302365 -0.20513052207780491
v 0.82457876451229151 1.2029315705289918 -0.16802068964149963
v 1.1000000000000001 1.5413752057300938 0.037207471197786911
v -0.69796183628928199 -1.5475510281708287 0.056125921597381175
v -0.60753473390562673 -1.5016441076804021 0.070497186276962137
v -1.2999999999999998 -1.2872834045693671 -0.11878032336028858
v -1.3056602015428591 -1.2738248838610553 -0.12196636261430988
v -1.3187297906917386 -1.2293465236496322 -0.13119933854815138
v -1.2867396616822229 -1.3188131189262993 -0.11131628553722936
v -1.2395058599868045 -1.4002264660583257 -0.089054642548799481
v -0.19999999999999996 -1.1359274880632386 0.11302984832885342
v -0.19905872173767047 -1.1350744043746628 0.11312691061278862
v -0.16152434152656311 -1.1000000000000001 0.11684940144889051
v 1.2842401307325393 1.5208910198960581 0.082450487283035917
v -1.3312665240716939 -1.156147205886658 -0.14433069171235746
v -1.2374614851527395 -1.4031141774287017 -0.088180156745111787
v -0.099999999999999867 -1.0425079188346646 0.1229511086368531
v 1.2027934622458176 1.5385894451490807 0.061239973995666767
v -1.3336037174573536 -1.1167787137962077 -0.15037983508372224
v -1.332528239384547 -1.1000000000000001 -0.15248149505844583
v 1.4000000000000004 0.37200193097460521 0.26991972966355543
v -1.329072609947858 -1.0460881455698543 -0.15923435990822776
v 0 -0.94906184572145136 0.1328686584010032
v -1.168628683144699 -1.4711703202066859 -0.062820752294344778
v -1.2344800071899076 -1.4063105554964008 -0.087046923884182628
v 1.3878667342182955 1.481028064758565 0.11186541980400891
v 1.4000000000000004 1.474554922560787 0.11556231084148991
v 1.3414455936671934 1.5 0.098532486543454464
v -1.3175297050756936 -0.98637758024089872 -0.1649389709336837
v -1.3043144623273151 -0.94136275324109164 -0.16820154088152967
v -1.2999999999999998 -0.93167872067487301 -0.16856497910551776
v 0.68516491759033971 1.3525891072177167 -0.031774543964702223
v 0.65881557900694931 1.3249677237603692 -0.033967898154853342
v 1.3103699525497221 1.5127003568604203 0.089607039125977284
v 0.85838202485125559 1.4787530335442394 -0.0095975589804047131
v 0.80810341767756622 1.4525254875311553 -0.01748978218852152
v 1.4293665004810054 0.40000000000000036 0.27275429511063126
v 1.5 0.46734209261049636 0.27957210703453056
v 1.5000000000000002 1.4085121900682154 0.14780829339044987
v 1.4891295388508594 1.4172330073933217 0.14408717290063267
v 0.10838872186558585 0.7156365551489603 -0.075259711691769704
v 1.4146696542932173 1.466728607705357 0.12003201540869002
v -1.2946518272968934 -1.2999999999999998 -0.11576992027828555
v 0.72873695426927743 1.3937099776211777 -0.027509897385031051
v 1.5314360146389101 0.5 0.28223028336694933
v 1.5074875492283752 0.47448073414739622 0.28029483354189083
v 0.79506191869001364 1.4436523215431645 -0.019247083717339918
v 1.5623292144864536 0.5329195113938402 0.28472698773674665
v 0.27309107841476526 0.90000000000000036 -0.063189051964604045
v 0.73709029689838423 1.4000000000000001 -0.026469231713371649
v -1.0912343300138794 -1.5259055503402332 -0.03735711885555959
v -1.1000000000000001 -1.520285423289768 -0.040160040739432488
v -1.1061557333510057 -1.5163386623945696 -0.042128405935491602
v 1.5791453450412281 1.3311590829845787 0.17684115774164147
v 1.5822914350140334 1.3275152184216252 0.17807489947420013
v 1.5878229811489442 1.3197810948737638 0.18042993238193022
v -1.069928877518864 -1.5350414387785398 -0.031177840400343174
v 1.5099257272997435 1.4000000000000004 0.15128291727894094
v -1.2251545573972251 -0.79999999999999982 -0.16978554820136185
v -1.2556091940504319 -0.83816694074351228 -0.17144674292750764
v -1.2669999582446334 -0.85760842991759867 -0.17134481020780185
v -1.2611596602221153 -0.84623377371736086 -0.17159399353065602
v 0.36242676894834869 1 -0.056641843141879825
v 1.5070690349993754 1.4028410633286466 0.1502281291838459
v 0.40000000000000036 1.0420584772191659 -0.053888186810683136
v -1.2071757043649469 -0.77746819881211648 -0.16880486417024149
v 1.0946687537540603 1.5414498581144334 0.035970833227413158
v 1.1938622670696153 1.5400608710111516 0.058979799484450313
v 0.89630879126592811 1.4974960605818812 -0.0034984264902999168
v 0.40446147979868058 1.0470525392474914 -0.053561215140952273
v 0.5 1.1514408921479735 -0.046201724900716293
v 1.6145827604836187 0.60132536904062084 0.28716848324554534
v 1.6198881156852281 0.60924875505940013 0.28727944089928648
v 1.6254433141745097 0.61939870533951613 0.28713614351260502
v 0.90923302367231573 1.5021979493643496 -0.001184117466376337
v 0.90319144980348109 1.5 -0.0022659665451993309
v 0.90000000000000036 1.4988389374657651 -0.0028374512452070686
v 1.6626691327955214 0.69513262898383188 0.2850953324852335
v -1.1400303726298406 -0.69999999999999996 -0.16420698570486339
v -1.0999999999999999 -0.6538153914013618 -0.16146584520380938
v 1.6917890797898394 0.77428092633793799 0.28071215866435179
v 1.6951724477370389 0.78480156179869875 0.2800174443277012
v -1.0018026101112083 -1.560920802192411 -0.01188568801864032
v -1 -1.5613202947479048 -0.011415158735293321
v 0.60000000000000009 1.2607039963707669 -0.038498559491907343
v 1.6992942026787972 0.80550172890340499 0.27806742456964662
v 1.1962919717237415 1.5398014672598139 0.059574948080086607
v 1.6985573541006296 1.0887182619646047 0.23824763476810012
v -1.0533556689905399 -0.59999999999999976 -0.15827180386782422
v -1 -0.53844147513606588 -0.15461819348095079
v 1 1.5277174765316062 0.016119553285575117
v 0.99244655111790214 1.5263991654804399 0.014566823589855926
v 1.0599143280911236 1.538174384637907 0.028435881611651437
v 1.6709511471268794 1.1733037816973209 0.22005623440155736
v -0.9449775119142193 -1.5735143206430968 0.0029471771497631468
v -0.90280736919350191 -1.5787054849931066 0.013373072984529498
v 1.6517609919896019 1.2159440870078451 0.20967285597651017
v -0.96668096535123949 -0.5 -0.15233662203078507
v 1.6302585995689005 1.2550536412694122 0.1992519681231294
v -0.80968804317454934 -1.5770488101234328 0.03455858348713424
v -0.80165571636589039 -1.5759266077048912 0.036248910314530022
v -0.79999999999999982 -1.575528190500133 0.036573946670018669
v 1.7116781926726252 0.88236718656906399 0.27015457819503486
v 1.7125497209125391 0.90000000000000036 0.26788643580988397
v 1.7134932000266494 0.97999999999999998 0.25690343600612936
v 1.7132988573031327 0.91515657394069916 0.26593681682802262
v 1.7112320418181186 1 0.25358336961816735
v -0.79999999999999982 -0.3076936426054741 -0.14092289003523359
v -0.70000000000000007 -1.5483272001708848 0.055765808023923877
v -0.71048371461596405 -1.5523196006334667 0.053913489727013597
v 1.7034074428823793 1.0692087701446094 0.24209448404270192
v 1.7019642950019123 1.0774094870427136 0.24061445966445996
v -0.77094174548136274 -1.5685358645323664 0.042278419573817894
v 1 -0.0093587155689610398 0.23131022017965452
v -0.793331558072638 -0.29999999999999982 -0.14046625835670679
v -0.70665685443333748 -0.19999999999999996 -0.13453107651966764
v -0.69999999999999984 -0.19231972634017852 -0.134075238312375
v 1.0098161314270711 0 0.23225771022822636
v 1.1000000000000001 0.085981446066930506 0.24096259755062979
v -0.60073858107570277 -1.4980426255281727 0.07155609392653256
v -0.59999999999999987 -1.4975103502323746 0.071651449032532469
v -0.61998215079403685 -0.099999999999999867 -0.12859589468262847
v -0.59999999999999987 -0.077314971429639487 -0.12717590399985043
v -0.61074214127232285 -0.089339439151512282 -0.12796317101142254
v -0.52012461645513874 -1.4260575160674196 0.08001939046475684
v -0.5 -1.407818507770096 0.082094591087813459
v -0.59963648353523813 -1.4972483738019271 0.071698381119165017
v -0.38103486328491981 -1.2999999999999998 0.094361981444468418
v -0.29999999999999982 -1.2265578279655243 0.10271809591517346
v 1.3690410229681589 -1.6094815981805097 0.54000000000000004
v 0.97999999999999998 -1.3690410229681589 -0.089481598180509603
v 1.6094815981805097 -0.97999999999999998 0.15095897703184119
v 0.75132742416253884 -1.5786725758374611 0.16999999999999998
v 1.208672575837461 -1.5786725758374611 0.16999999999999998
v 0.97999999999999998 -0.97999999999999998 -0.19999999999999996
v 1.5786725758374611 -0.60999999999999988 0.31132742416253889
v 1.5786725758374611 -1.3500000000000001 0.31132742416253889
v 1.3500000000000001 -1.208672575837461 -0.058672575837461105
v 1.3500000000000001 -0.75132742416253884 -0.058672575837461105
v 0.65892246223100592 -1.6183746755079778 0.34767998437426179
v 0.86113969362638287 -1.4933975533947326 0.02048563086563937
v 0.85977971239382467 -1.6837818220584135 0.34547948851592059
v 1.301077537768994 -1.6183746755079778 0.34767998437426179
v 1.0988603063736171 -1.4933975533947326 0.02048563086563937
v 1.1002202876061753 -1.6837818220584135 0.34547948851592059
v 0.97999999999999998 -1.6094815981805097 0.15095897703184108
v 0.97999999999999998 -1.1822172313953772 -0.17183438476009893
v 1.6183746755079778 -0.78767998437426168 0.21892246223100587
v 1.4149610866964302 -0.47073868942566577 0.22525920090974522
v 1.4933975533947326 -1.4995143691343609 0.42113969362638287
v 1.6183746755079778 -1.1723200156257383 0.21892246223100587
v 1.4149610866964302 -1.4892613105743342 0.22525920090974522
v 1.1723200156257383 -1.301077537768994 -0.098374675507977738
v 1.4995143691343606 -1.0988603063736171 0.026602446605267671
v 1.2947407990902549 -1.4149610866964302 0.030738689425665822
v 1.1745205114840795 -1.1002202876061753 -0.16378182205841363
v 1.4892613105743342 -1.2947407990902549 0.1050389133035699
v 1.4995143691343606 -0.86113969362638287 0.026602446605267671
v 1.1745205114840795 -0.85977971239382467 -0.16378182205841363
v 1.4892613105743342 -0.66525920090974511 0.1050389133035699
v 1.3690410229681589 -0.97999999999999998 -0.089481598180509492
v 1.6094815981805095 -1.3690410229681589 0.54000000000000004
v 1.691834384760099 -0.97999999999999998 0.33778276860462297
v 1.6837818220584135 -0.78547948851592053 0.41977971239382467
v 1.6837818220584135 -1.1745205114840795 0.41977971239382467
v 0.54503891330356979 -1.4892613105743342 0.22525920090974522
v 0.78767998437426168 -1.301077537768994 -0.098374675507977738
v 0.66525920090974511 -1.4149610866964302 0.030738689425665822
v 0.70247146006612482 -1.6044944912205688 0.25612583781306469
v 0.91999614285195541 -1.4355750954465236 -0.040043851390778817
v 0.8045561192405738 -1.5414027021208105 0.090949389538857561
v 0.9191405756932719 -1.7108893720404019 0.4415273829359625
v 0.80337907156350108 -1.6393448278993921 0.25422133466518188
v 0.75706842947100828 -1.6580206896414995 0.34457876451229158
v 1.3384868151248943 -1.6200477085388232 0.44291171967837051
v 1.2575285399338751 -1.6044944912205688 0.25612583781306469
v 1.2450893071800684 -1.6639854044523961 0.44257502519947223
v 1.0400038571480446 -1.4355750954465236 -0.040043851390778817
v 1.1554438807594263 -1.5414027021208105 0.090949389538857561
v 0.97999999999999998 -1.5001512025609522 0.013651516127960006
v 1.0408594243067282 -1.7108893720404019 0.4415273829359625
v 1.156620928436499 -1.6393448278993921 0.25422133466518188
v 1.1428866003302365 -1.6951305220778048 0.44173356714735224
v 0.97999999999999998 -1.6932573349660407 0.34286052116042021
v 1.2029315705289916 -1.6580206896414995 0.34457876451229158
v 0.86423849587022916 -1.6017316351420827 0.15574871760114428
v 1.0957615041297708 -1.6017316351420827 0.15574871760114428
v 0.91995502980124466 -1.5573512343254938 0.081022708866049231
v 0.91908055077634943 -1.6556070447699014 0.24429078174063018
v 1.0400449701987553 -1.5573512343254938 0.081022708866049231
v 1.0409194492236504 -1.6556070447699014 0.24429078174063018
v 0.97999999999999998 -1.2784829579768497 -0.13713213171240823
v 0.97999999999999998 -1.0820846591744488 -0.19292477264807772
v 1.5414027021208105 -0.53094938953885751 0.36455611924057385
v 1.6200477085388232 -0.88291171967837045 0.18151318487510582
v 1.6044944912205685 -0.69612583781306459 0.26247146006612487
v 1.5032590180780452 -0.53488929329441626 0.26490645449946354
v 1.4590848014728457 -0.46029071340990346 0.3209566014924512
v 1.4355750954465236 -1.5600438513907786 0.47999614285195541
v 1.5414027021208105 -1.4290506104611425 0.36455611924057385
v 1.4027262277604244 -1.5665604296518683 0.38236307941964398
v 1.6200477085388232 -1.0770882803216295 0.18151318487510582
v 1.6044944912205685 -1.2638741621869354 0.26247146006612487
v 1.3159529698072645 -1.5408722108353545 0.19336191035845379
v 1.5032590180780452 -1.4251107067055837 0.26490645449946354
v 1.3619299988377851 -1.5597542567888518 0.28384676905614592
v 1.4590848014728457 -1.4997092865900965 0.3209566014924512
v 1.0770882803216295 -1.3384868151248943 -0.10004770853882328
v 1.2638741621869354 -1.2575285399338751 -0.084494491220568624
v 1.137636920580356 -1.4027262277604244 -0.046560429651868129
v 1.0774249748005278 -1.2450893071800684 -0.14398540445239605
v 1.5600438513907786 -1.0400038571480446 0.084424904553476399
v 1.4290506104611425 -1.1554438807594263 -0.021402702120810413
v 1.5665604296518683 -1.137636920580356 0.11727377223957564
v 1.2550935455005365 -1.5032590180780452 0.094889293294416199
v 1.3266380896415462 -1.3159529698072645 -0.02087221083535451
v 1.1990433985075488 -1.4590848014728457 0.020290713409903627
v 1.3598978265105315 -1.4584675659303215 0.12245188329332912
v 1.2361532309438541 -1.3619299988377853 -0.039754256788851694
v 1.0784726170640375 -1.0408594243067282 -0.19088937204040191
v 1.2657786653348182 -1.156620928436499 -0.11934482789939216
v 1.0782664328526479 -1.1428866003302365 -0.17513052207780488
v 1.1754212354877085 -1.2029315705289918 -0.13802068964149961
v 1.5408722108353545 -1.3266380896415462 0.2040470301927354
v 1.4251107067055839 -1.2550935455005365 0.016740981921954945
v 1.5597542567888518 -1.2361532309438541 0.15807000116221481
v 1.4584675659303215 -1.397548116706671 0.16010217348946859
v 1.4997092865900963 -1.1990433985075488 0.060915198527154324
v 1.397548116706671 -1.3598978265105315 0.061532434069678621
v 1.2638741621869354 -0.70247146006612482 -0.084494491220568624
v 1.5600438513907786 -0.91999614285195541 0.084424904553476399
v 1.4290506104611425 -0.8045561192405738 -0.021402702120810413
v 1.5665604296518683 -0.82236307941964393 0.11727377223957564
v 1.5063484838720402 -0.97999999999999998 0.019848797439047883
v 1.3266380896415462 -0.64404703019273535 -0.02087221083535451
v 1.0784726170640375 -0.9191405756932719 -0.19088937204040191
v 1.2657786653348182 -0.80337907156350097 -0.11934482789939216
v 1.1771394788395799 -0.97999999999999998 -0.17325733496604068
v 1.1754212354877085 -0.75706842947100816 -0.13802068964149961
v 1.5408722108353545 -0.63336191035845368 0.2040470301927354
v 1.4251107067055839 -0.70490645449946343 0.016740981921954945
v 1.5597542567888518 -0.72384676905614587 0.15807000116221481
v 1.4584675659303215 -0.56245188329332907 0.16010217348946859
v 1.4997092865900963 -0.76095660149245115 0.060915198527154324
v 1.397548116706671 -0.60010217348946848 0.061532434069678621
v 1.3642512823988557 -1.0957615041297708 -0.081731635142082704
v 1.3642512823988557 -0.86423849587022916 -0.081731635142082704
v 1.4389772911339507 -1.0400449701987553 -0.037351234325493698
v 1.2757092182593699 -1.0409194492236504 -0.13560704476990126
v 1.4389772911339507 -0.91995502980124466 -0.037351234325493698
v 1.2757092182593699 -0.91908055077634943 -0.13560704476990126
v 1.6017316351420827 -0.59574871760114423 0.42423849587022922
v 1.5001512025609522 -1.5063484838720402 0.54000000000000004
v 1.6017316351420827 -1.3642512823988557 0.42423849587022922
v 1.5573512343254938 -1.4389772911339507 0.47995502980124471
v 1.6571321317124084 -0.97999999999999998 0.24151704202315039
v 1.7129247726480776 -0.97999999999999998 0.43791534082555106
v 1.6639854044523961 -0.88257502519947217 0.27491069281993163
v 1.6639854044523961 -1.0774249748005278 0.27491069281993163
v 1.6393448278993921 -0.69422133466518177 0.36337907156350108
v 1.7108893720404019 -0.88152738293596244 0.47914057569327195
v 1.6580206896414995 -0.78457876451229147 0.31706842947100827
v 1.6951305220778048 -0.88173356714735218 0.37711339966976365
v 1.6393448278993921 -1.2657786653348182 0.36337907156350108
v 1.7108893720404019 -1.0784726170640375 0.47914057569327195
v 1.6580206896414995 -1.1754212354877085 0.31706842947100827
v 1.6556070447699014 -1.2757092182593699 0.47908055077634948
v 1.6951305220778048 -1.0782664328526479 0.37711339966976365
v 1.6932573349660407 -1.1771394788395799 0.54000000000000004
v 0.64404703019273535 -1.5408722108353545 0.19336191035845379
v 0.59807000116221487 -1.5597542567888518 0.28384676905614592
v 0.50091519852715416 -1.4997092865900965 0.3209566014924512
v 0.88291171967837045 -1.3384868151248943 -0.10004770853882328
v 0.69612583781306459 -1.2575285399338751 -0.084494491220568624
v 0.82236307941964393 -1.4027262277604244 -0.046560429651868129
v 0.88257502519947217 -1.2450893071800684 -0.14398540445239605
v 0.70490645449946343 -1.5032590180780452 0.094889293294416199
v 0.63336191035845368 -1.3159529698072645 -0.02087221083535451
v 0.76095660149245115 -1.4590848014728457 0.020290713409903627
v 0.60010217348946848 -1.4584675659303215 0.12245188329332912
v 0.72384676905614587 -1.3619299988377853 -0.039754256788851694
v 0.88152738293596244 -1.0408594243067282 -0.19088937204040191
v 0.88173356714735218 -1.1428866003302365 -0.17513052207780488
v 0.78457876451229147 -1.2029315705289918 -0.13802068964149961
v 0.50153243406967851 -1.397548116706671 0.16010217348946859
v 0.56245188329332907 -1.3598978265105315 0.061532434069678621
v -0.021297927532761496 0.6594149245930393 -0.097216612775560665
v -0.099999999999999867 0.69780523255564253 -0.12069273255778992
v -0.74084813658037152 0.45915186341962855 -0.23467633229223347
v -0.72499835092555409 0.40000000000000041 -0.22274962071287752
v 1.1685196726432456 -1.6929823204362286 0.50577704956901859
v 1.1334967811829166 -1.7 0.49870425967207094
v 1.1105086846782255 -1.7046062186279998 0.49406186808391189
v 1.6080493748385922 -1.368155860263373 0.56139317664974864
v 1.6253813612678374 -1.3368688990515574 0.56099935895882069
v 1.6436023143429273 -1.2999999999999998 0.56002853229887328
v -0.74836754366455394 0.48721451048166958 -0.24033456651028115
v -0.74891240550186045 0.5 -0.24224985326542792
v -0.014890665450221297 0.65628950798284502 -0.095305384171149199
v -0 0.64902594789502077 -0.090863632705302913
v 1.2004018564381547 -1.6837795645812086 0.51182156602214479
v 0.3324267669896982 -1.2999999999999998 0.25845815640763059
v 0.40000000000000036 -1.3811211278179867 0.28535695789451826
v 1.4992651368670071 -1.50545186125092 0.55559424205454044
v 1.4848809782018004 -1.519045754514343 0.55418903061842217
v 0.25462913352995215 -1.2066045609085658 0.22748933923908826
v 1.5911847531936696 -1.3935874286127927 0.56107473324033497
v 1.557351234325494 -1.4389772911339507 0.55964760465361674
v 1.5 -1.5046699121129361 0.55565378769581109
v 1.5163233145545809 -1.4873006889583995 0.55697645880172952
v -0.74369585834451046 0.65571440623475619 -0.26285006429210334
v -0.74347482648902552 0.6565251735109745 -0.26291273438401236
v -0.7476027444242539 0.63731729364453482 -0.26117305232781329
v -0.74671704525000171 0.64463238607555284 -0.26199345445807781
v -0.75212106001328782 0.60000000000000009 -0.25698784380305623
v 0.31769062320213393 -1.2823093767978662 0.25259215608819208
v 1.6844147509468064 -1.2 0.55541539271776541
v 1.6836396331062919 -1.2023189492020647 0.5555617685027362
v 0.18576879841167837 -1.1215159439124904 0.1997390557824347
v 0.16896901510143675 -1.1000000000000001 0.1928628734733305
v 0.21595911745362242 -1.1601815147243868 0.21209600907574733
v 0.50699043344999595 -1.5069155796562259 0.32757598084537071
v 0.5 -1.5001124886758543 0.32501574841461961
v 0.4995778886601146 -1.4997016898506275 0.32486115097091423
v 0.30000000000000027 -1.2610719245992812 0.24555006944389945
v 1.6556070447699014 -1.2757092182593699 0.55938891085338915
v 1.7108893720404021 -0.88152738293596256 0.51691838918032729
v 1.7024286146298917 -0.83418195265932771 0.50834405473718103
v 0.044238425931825726 -0.94025410856881808 0.14181041316395446
v 0.072466684602646408 -0.97640681477297431 0.1533642915268251
v 0.029948538536263624 -0.9210761125045156 0.13583881961397282
v 1.093002014073913 -1.7069979859260873 0.49037018126665227
v 1.0582383137204558 -1.7117474145036391 0.48303945018621436
v 1.0203924072484147 -1.7139532751250131 0.4746437121846373
v 1 -1.7135136411916734 0.46989190976683431
v 0.034045543573756352 0.63241877528092205 -0.080708153517365142
v -0.38323680672324217 0.80158961273994256 -0.20036701132993767
v -0.31890918601454699 0.7813087797858641 -0.18273234195336679
v -0.29999999999999982 0.77506245706368038 -0.17750874398891522
v 1.6899803024368509 -0.78376627067504034 0.4984227474549815
v 1.6709523896729657 -0.72904761032703447 0.48638571507056699
v 1.6608513493370556 -0.69999999999999984 0.47999581034752292
v 1.656484638961047 -0.68744262994749195 0.47723343515368971
v 1.7 -1.1394082968951043 0.55051716156531472
v 1.6968150105030835 -1.1572311336509196 0.55227981112683799
v 1.6921575717404895 -1.1768355117599532 0.55395321314670598
v 0.48814794309864568 -1.486942031161588 0.3204459112753108
v -0.5 0.81911629452941626 -0.22967628123411826
v -0.48436473460295909 0.81676937069479327 -0.22575160085595164
v 1.6939886292657413 -0.79999999999999993 0.50161738473112061
v 1.7000000000000002 -0.82434605997409693 0.50640844839637378
v 1.7070423700459094 -1.1000000000000003 0.54661974511055922
v 1.5857164837537459 -0.5687830228232954 0.44434441445862299
v 1.5504680922963556 -0.52530691208123759 0.43015062891953509
v -0.56911371068902583 -0 -0.13089615345847594
v -0.55453991746608722 -0.026428162067794279 -0.12384423832770884
v 1.6552497796824224 -0.68450894632960058 0.47653870181310126
v 1.651143146110291 -0.67695454422221857 0.47453655979647763
v 0.62007220708210575 -1.6000000000000001 0.36661660762888437
v 0.031481893320752338 -0.82892783653795477 0.040293634470775552
v 0.035455548203796344 -0.80199039501340608 0.017511508384649835
v 0.87944792126689209 -0.026961264574124073 0.094488458459935254
v 0.82408502870197009 -0.026639085484767535 0.03859391054949058
v 0.031429371907624362 -0.83442074818971157 0.045699876034477699
v 0.80826435974867994 -0.02918158346852268 0.025239596500098677
v 1.6067142030413555 -0.59999999999999976 0.45354426669951176
v 1.6035949184030163 -0.59459714521521867 0.45207043156282445
v 0.80445178210420853 -1.6873052120697392 0.42124663957373149
v 0.73273824526579823 -1.6614630615904913 0.40113462503380248
v 0.85664195084162975 -1.7 0.43502764869357491
v 0.82384308217664159 -1.6933405115725559 0.4265515805207854
v 0.64792927909178144 -1.618866317148929 0.37566501859195983
v 0.68145969238323878 -1.636734596598872 0.38587857277198706
v 0.63136870732020056 -0.030398139329752539 -0.089841798728124492
v 0.61437760359456395 -0.030158176886349836 -0.098968550613837608
v 0.69134587289759941 -0.031245186551211498 -0.05762513300279401
v 0.036813798830819255 -0.6438528434192855 -0.085963088559514428
v 0.037836631989345497 -0.68475442745946535 -0.064160225411876562
v 1.3818015021873249 -1.6000000000000001 0.54181434550308483
v 1.3693076358896599 -1.6092834930350848 0.54024044527953374
v 1.4000000000000004 -1.5864777144506061 0.54410688002308505
v 1.4355750954465236 -1.5600438513907786 0.54858841114740953
v 0.57057603865634632 -1.5643411675510961 0.35024025234811318
v 0.031482844216396522 -0.90004979553619557 0.11097699011668478
v 0.03090491844381001 -0.88927031088466302 0.099683993091502776
v 0.031066044988338929 -0.87241901498190821 0.08309858591813582
v 0.90888312270679894 -0.027132559930193371 0.12420632905723333
v 0.89618127365901368 -0.027058642727356474 0.11138250289388525
v 0.031710965410027374 -0.90430471722696504 0.11543460748426561
v 0.035643291648979426 -0.59704599376978995 -0.11091379306713203
v 0.040569439677780164 -0.56083326244303044 -0.12712753844566022
v 0.036637052851366717 -0.63678503331547698 -0.089730632043782718
v 0.59123402623395571 -0.029831324113145249 -0.11140009665868782
v 0.56790849143519428 -0.033494210685616303 -0.12185414792808608
v 1.5270428260302247 -0.5 0.42121984998695167
v 0.60000000000000009 -1.5858037918104591 0.36001253085346435
v 1.5015689736273095 -0.47247994811213401 0.41150805666997997
v 0.88208301507593689 -1.7051655584398582 0.4416022716490457
v 0.90000000000000036 -1.7083257934444485 0.44616561108222286
v 0.034331220844401773 -0.75014516265828624 -0.020176644115085237
v 0.033803042767693268 -0.72578969813718908 -0.037881501811269244
v 0.77163138372783224 -0.028882105656934227 -0.0013965515867674413
v 1.4999999999999998 -0.47103751502437047 0.41094525210341193
v 1.488492118679769 -0.46045776499069879 0.40681727439504478
v 0.61154289573191301 -1.594223488637327 0.36384615442756579
v 0.71097731272295939 -0.028386253274148461 -0.045498641912097994
v 0.033594771137833102 -0.71618583058664398 -0.044862896404179342
v 0.74584199093426551 -0.028671275095103345 -0.020148238185444978
v 0.061587256051408329 -0.13774478531935738 -0.2314582256505282
v 0.05365993221440301 -0.15574459138885194 -0.22997837535950161
v 0.054237592543694195 -0.10149066246454137 -0.23375550654494409
v -0.034023688241000404 -0.017734443063449713 -0.23697372346237011
v -0.059481760968553413 -0.02235005544588721 -0.23590771596194718
v -0.076626262616364585 -0.025458396558084333 -0.23518982315273232
v -0.19999999999999996 0.74202918573524512 -0.14988408600293432
v 0.92601617090221688 -1.7119186454957962 0.45265232967692137
v 0.91554164436755947 -1.7110670609494123 0.45012396673745647
v 0.033860588898049465 0.62481611127158876 -0.084642618698601457
v -0.20359033210888958 -0.026972084156834438 -0.22327551455248063
v -0.1883156840514969 -0.025488214019668144 -0.22525688955155801
v 0.030784007440437255 0.19546891130481109 -0.22277845494008552
v 0.030089582228308688 0.14942162359907432 -0.22980375004747847
v -0.14014020267210681 -0.02080816130134118 -0.23150604789648263
v 0.98367356083311519 -0.024924369060054425 0.22973433066002416
v 1 -0.037956821927747013 0.23531395506988459
v 0.033468564203411724 0.60870171986569077 -0.092981999713662195
v 0.03340400894135493 0.60604814019501663 -0.094355257404267312
v 1.0313571371092416 -0.062987412325612779 0.24603037926071139
v 1.0344336550038844 -0.065566344996115619 0.2470990289503496
v 1.005647705444827 -0.042465058798503777 0.23724408048410076
v 0.042222347440708553 -0.042222347440708553 -0.23751110610237158
v 0.048452639198673063 -0.072954878607274037 -0.2355637067136532
v -0.72484848484848474 0.72484848484848474 -0.26819393939393937
v 0.0097907716820769888 -0.0097907716820769888 -0.23880836913271686
v 0.033378527753532908 0.60500072190818943 -0.094897308292568067
v 0.033131852799518975 0.59486101179965511 -0.10014472371443628
v 0.031059946642703354 0.21376642068971724 -0.21998685939637577
v 0.031648625251188209 0.25280165843407248 -0.21403137149676657
v -0.23147232631884618 -0.029680706864038117 -0.21965875781645283
v -0.24783883584901328 -0.026685802666129015 -0.21682624610776857
v -0.57859364554546877 0.017190943424658173 -0.13548327055491
v -0.57988096513898146 0.020119034861018504 -0.13618928686250834
v -0.57406529128970551 0.0089792116990200493 -0.13329210663449509
v 0.033044558494372572 0.59127273121458779 -0.10200169976981928
v 0.032855117971157005 0.58348567396796569 -0.10603159055067134
v 0.032754223381833647 0.57933834619669622 -0.10817787988967185
v 0.025559786583165441 0.054414295796470155 -0.23558174759216977
v 0.030715064308284197 0.075404507061287623 -0.23452688587381204
v 0.032623645267942196 0.57397086076765935 -0.11095561470807407
v 0.032514817698614591 0.56949744347562226 -0.11327065908660416
v 0.032427169692918291 0.56589462383426858 -0.1151351592691426
v 0.032314021266484846 0.56124359532649759 -0.11754211947392053
v 1.7108893720404021 -1.0784726170640375 0.54449072195825776
v 1.719095845774459 -0.98977259012368446 0.53396020714544146
v 0.032258312087468842 0.55895363878078974 -0.11872719805750268
v -0.13789137422535 -0.021440667145415686 -0.23166612232685441
v -0.10607201272516227 -0.023527361860142901 -0.23349623260418026
v 0.041207316390518993 0.1181247249802467 -0.23237998406734267
v 0.032143191169685857 0.55422152992760576 -0.12117611826413235
v -0.54898962168403365 -0.026353549548362984 -0.12669175524294074
v 0.072920147155798559 -0.046437198759357777 -0.2354235899846292
v 0.031011097673747521 -0.91096471465544726 0.12353721302573512
v 0.031455684249984857 -0.90673399319053605 0.11839008383325203
v 0.030209905609496324 -0.91858892250362723 0.13281288458917853
v 1.719492902874272 -0.97999999999999998 0.53268336766108271
v 0.032126344708131215 0.55352904682894177 -0.12153448615161801
v -0.54773944557579923 -0.026336743454988636 -0.12733314405445731
v 0.12524264697970802 -0.053621151988078 -0.23186554795175682
v 0.14323984820053115 -0.056092193170234568 -0.230641699729037
v 1.3677178342651404 -1.6101778437072696 0.54000000000000004
v 1.2864025424930285 -1.6522375593046323 0.5271858430760451
v -0.27052701729999951 -0.026637257420059568 -0.21182959764887946
v 0.036601359279477483 0.27813943981077732 -0.20929858814659769
v 0.036214481479653775 0.28873858244795875 -0.20677853115896203
v 1.2733469546817098 -1.658186177332915 0.52501586440340142
v 1.3689794423980377 -1.6095028936794198 0.54019567686666747
v 0.035432110161663498 0.31017290925191826 -0.20168229584195624
v -0.30131218637386431 -0.026571387283609475 -0.20504973880731153
v 0.03247365611067559 0.42992593766064163 -0.16867702826835787
v -0.5208080493135322 -0.028328329238572959 -0.13806502997298772
v 0.031445837876080754 0.40979864389278109 -0.17595201890786175
v 0.034271196221252034 0.47966447193711492 -0.15042412610609951
v -0.40497925628151693 -0.026626450264816651 -0.18031626984943772
v -0.38870622713706304 -0.029646578879637269 -0.18495208930747381
v -0.36521842965333445 -0.028820098300407888 -0.19035348186500758
v 0.035492061953856159 0.38286074406284415 -0.18361785658285373
v 0.035465879138515462 0.35111570214226723 -0.19150715997239046
v -0.53289675288049165 -0.028505949240318865 -0.13365539484831088
v -0.53962625993643121 -0.027522456154675457 -0.130788958669914
v 0.03466135050783288 0.49046017114963175 -0.14646235191299783
v 0.035443414139531941 0.32387828228509286 -0.19827622549572674
v -0.32417017432339018 -0.02737570634049976 -0.19979318096802079
v 0.034709178487310734 0.49178358729074395 -0.14597668851951298
v -0.54173924498102244 -0.027213651042480923 -0.12988893185875519
v 0.040013625073431966 -0.28470256930542304 -0.21134613567293245
v 0.038212370647374178 -0.2993654038302585 -0.20887136993780403
v 0.040550688804843249 -0.31419011028541161 -0.20552152028520604
v 0.2944061206697654 -0.036813257479402499 -0.20754179052559216
v 0.31893504080813717 -0.035805758282117697 -0.2027376767651731
v 0.03592681121506739 0.52547589090574309 -0.13361238525944336
v 0.26388862097259425 -0.038066731186136966 -0.21351879804984178
v 0.26305193605745497 -0.038101097125429348 -0.21368266704575684
v 0.043313627722421345 -0.25783940546046302 -0.21588005012910721
v 1.718541580476606 -0.96423660938820155 0.53025768882396762
v 0.19158532481683252 -0.032253283446066851 -0.22636486373029011
v 0.043333615777908084 -0.20266565714867377 -0.22441712272672407
v 0.047860873317338438 -0.18209455127315352 -0.22685528381400577
v 0.043330693649256277 -0.2107317139432511 -0.22316905612732116
v 0.21160495817561661 -0.033891406253053591 -0.22281225470908569
v 0.043318160198577989 -0.24532824854166579 -0.21781591017422083
v -0.17106993760949263 0.7324726397303033 -0.14189225521242577
v 0.98342034109971532 -0.024949383683913442 0.22930806772968021
v 0.042064445205395651 -0.37344398434666959 -0.19040296302327195
v 0.041873802476474355 -0.3659815417462125 -0.19230699660008535
v 0.34588776152073791 -0.031146962430483087 -0.19692713205694728
v 0.36633122191464695 -0.032370672855562818 -0.19133745580282477
v 0.90991180959309903 -0.026976065813319516 0.12540335825014801
v 0.043131723106609447 -0.41522108291009091 -0.17974358476531063
v 0.41416706753867755 -0.035234044410804556 -0.17825811966166047
v 0.42261319115354218 -0.035739614863158173 -0.17594877008484133
v 0.91169393467295035 -0.026704951158078576 0.12747712411070061
v 0.9148757240824944 -0.026220905594402495 0.13117960623587863
v 0.92084048349887038 -0.025313486855364841 0.13812048518087561
v -0.65332565591099945 0.79018464269967859 -0.26089075083748486
v -0.69999999999999996 0.74754759438514229 -0.2656566632139199
v 0.03610654071132282 -0.45445934672802318 -0.16795957859353836
v 0.4500922688992034 -0.031739462882503046 -0.16703384830503981
v 0.92425060347545751 -0.025310968801831306 0.14279111349639398
v 0.92126464223215443 -0.025248959595161904 0.13861405654154191
v 0.93625328432882648 -0.025560227468296906 0.15958164674523537
v 0.93512925092353749 -0.025536884760856134 0.15800923800631481
v -0.64158118463956426 0.80091322601032999 -0.25969152410854596
v 0.93847168290747829 -0.025606296765494682 0.16268496137544827
v 0.49438546732943345 -0.031985873558116183 -0.15020055581960756
v 0.95820627390932367 -0.026016123361440782 0.1902916527818741
v 1.308467463937186 -0.29999999999999988 0.34294751670555279
v 0.93085537678153019 -0.025448129575052814 0.1520305215212725
v 1.4000000000000001 -0.38158385961951025 0.37542174034673154
v 0.92957276055018834 -0.025421493591365769 0.15023627149155477
v 0.92489822955330758 -0.025324417998265458 0.14369707669959825
v 1.2194678235222705 -0.22067373545932828 0.31137192237442818
v 1.194805249808266 -0.19999999999999996 0.30280520745590117
v -0.75289985802953818 0.59356781665877245 -0.25626646167902195
v 0.97955197570308516 -0.025048806467027354 0.22321901162258631
v 0.97669626532882226 -0.025122202499735086 0.21872393969643261
v 1.075511018910692 -0.099999999999999881 0.26136753434945914
v 0.97973991480234557 -0.025043976150759716 0.22351483986081597
v 1.0711234709802531 -0.096322078697832228 0.25984348934315471
v 0.96034667528755724 -0.025881961147222521 0.19353371983488973
v 0.95895586655663323 -0.025969138244374666 0.19142706114487509
v -0.69999999999999996 0.30670542353896935 -0.20393875929545571
v -0.70483686491676656 0.32475674481023287 -0.20757842320428893
v -0.74920398341546912 0.50684203976672493 -0.24327480175289945
v 0.97494749968524597 -0.025167148395345083 0.2159712700207165
v 0.97118358355433931 -0.025263886675929405 0.21004662378035568
v 0.96952881400201074 -0.025306416731246228 0.20744191000196843
v 0.96949435507656367 -0.025308576646570786 0.20738971505011961
v 0.96406857300792637 -0.025648669371046075 0.19917128019932093
v -0.69082797898281612 0.27247517296611579 -0.19703695938130394
v -0.59999999999999987 0.065881077155143547 -0.14722335080172008
v -0.59999999999999987 0.80669656838525938 -0.25093751957393629
v -0.52656762412888947 0.8169099515475815 -0.23547794676630598
v -0.50514827468224588 0.81988907377250064 -0.23096857350506667
f 17 43 18
f 44 45 19
f 19 45 20
f 47 48 21
f 21 48 22
f 49 50 23
f 23 50 24
f 51 52 25
f 25 52 26
f 58 59 32
f 32 59 33
f 59 60 33
f 33 60 34
f 61 62 35
f 35 62 36
f 63 64 37
f 37 64 38
f 65 66 39
f 39 66 40
f 66 67 40
f 40 67 41
f 71 72 46
f 73 74 47
f 47 74 48
f 77 78 51
f 51 78 52
f 71 96 72
f 96 97 72
f 98 99 73
f 73 99 74
f 100 101 75
f 75 101 76
f 102 103 77
f 77 103 78
f 111 112 86
f 86 112 87
f 113 114 88
f 88 114 89
f 115 116 90
f 90 116 91
f 116 117 91
f 91 117 92
f 96 121 97
f 125 126 100
f 100 126 101
f 111 129 112
f 112 130 113
f 122 131 123
f 132 133 124
f 134 135 125
f 125 135 126
f 136 137 127
f 127 137 128
f 138 139 130
f 132 140 133
f 140 141 133
f 142 143 134
f 134 143 135
f 144 145 136
f 136 145 137
f 140 164 141
f 165 166 142
f 142 166 143
f 167 168 144
f 144 168 145
f 156 169 157
f 157 170 158
f 171 172 166
f 173 174 167
f 167 174 168
f 183 184 169
f 184 185 170
f 192 193 171
f 171 193 172
f 189 209 190
f 210 211 191
f 191 211 192
f 194 212 195
f 225 226 215
f 241 242 228
f 228 242 229
f 243 244 230
f 230 244 231
f 245 246 232
f 232 246 233
f 261 262 249
f 249 262 250
f 264 265 253
f 253 265 254
f 266 267 255
f 255 267 256
f 268 269 257
f 257 269 258
f 261 270 262
f 270 271 262
f 262 271 263
f 278 279 271
f 280 281 273
f 290 291 276
f 276 291 277
f 291 292 277
f 277 292 278
f 280 293 281
f 315 326 316
f 326 327 316
f 316 327 317
f 341 342 331
f 331 342 332
f 342 343 332
f 332 343 333
f 346 347 336
f 340 350 341
f 350 351 341
f 341 351 342
f 342 352 343
f 346 355 347
f 370 371 365
f 365 371 366
f 376 377 370
f 370 377 371
f 379 380 376
f 376 380 377
f 382 383 379
f 379 383 380
f 407 408 394
f 394 408 395
f 410 411 407
f 407 411 408
f 416 417 410
f 410 417 411
f 420 421 413
f 413 421 414
f 423 424 416
f 416 424 417
f 428 429 418
f 418 429 419
f 430 431 420
f 420 431 421
f 306 618 614
f 402 639 638
f 681 690 180
f 691 699 201
f 709 716 221
f 361 678 677
f 372 720 719
f 718 723 239
f 281 730 729
f 476 495 491
f 554 556 548
f 504 509 481
f 502 509 507
f 481 509 502
f 485 486 476
f 476 491 485
f 530 562 560
f 553 555 529
f 529 556 554
f 554 590 529
f 548 552 520
f 520 554 548
f 479 500 494
f 479 495 493
f 507 509 482
f 510 511 483
f 596 603 537
f 481 503 501
f 501 504 481
f 546 559 557
f 530 560 557
f 557 559 530
f 521 588 568
f 588 591 568
f 536 591 588
f 589 591 536
f 577 588 521
f 553 576 518
f 547 560 527
f 557 560 547
f 587 590 554
f 520 587 554
f 536 590 587
f 587 589 536
f 552 562 558
f 552 558 520
f 558 562 530
f 495 496 491
f 479 496 495
f 494 496 479
f 490 496 494
f 502 505 481
f 481 505 503
f 482 514 507
f 488 497 475
f 508 509 504
f 482 509 508
f 485 491 489
f 483 512 510
f 483 515 512
f 512 515 514
f 512 514 482
f 602 603 538
f 596 600 599
f 537 600 596
f 597 600 537
f 595 597 537
f 484 486 485
f 501 503 484
f 533 575 572
f 572 586 533
f 577 592 588
f 588 592 536
f 536 592 590
f 534 592 577
f 577 580 534
f 534 578 576
f 534 580 578
f 578 580 566
f 546 557 519
f 519 557 547
f 568 591 532
f 532 585 568
f 569 585 532
f 545 593 517
f 517 549 545
f 549 551 545
f 530 561 558
f 559 561 530
f 551 561 559
f 488 508 477
f 477 508 504
f 478 492 489
f 478 496 490
f 491 496 478
f 489 491 478
f 482 508 506
f 506 512 482
f 506 508 488
f 510 512 506
f 475 510 506
f 475 506 488
f 598 603 602
f 537 603 598
f 537 598 595
f 485 489 474
f 474 501 484
f 484 485 474
f 564 577 521
f 521 572 564
f 572 575 564
f 564 580 577
f 582 586 572
f 568 585 582
f 568 582 521
f 521 582 572
f 576 579 534
f 579 592 534
f 553 579 576
f 590 592 579
f 529 579 553
f 529 590 579
f 543 602 601
f 576 578 543
f 543 601 518
f 518 576 543
f 573 575 533
f 571 573 533
f 517 593 544
f 583 585 569
f 532 591 570
f 570 591 589
f 551 559 526
f 545 551 526
f 526 559 546
f 545 594 593
f 526 594 545
f 550 589 587
f 558 561 550
f 550 587 520
f 520 558 550
f 488 498 497
f 477 498 488
f 492 498 477
f 490 499 478
f 478 499 492
f 498 499 480
f 492 499 498
f 524 578 566
f 598 602 524
f 524 602 543
f 543 578 524
f 487 492 477
f 489 492 487
f 474 489 487
f 477 504 487
f 487 504 501
f 487 501 474
f 574 586 584
f 533 586 574
f 533 574 571
f 539 541 522
f 522 597 539
f 539 597 595
f 539 595 516
f 523 541 540
f 516 563 540
f 516 540 539
f 540 541 539
f 525 569 544
f 525 583 569
f 584 586 535
f 535 585 583
f 535 586 582
f 582 585 535
f 581 584 535
f 535 583 581
f 517 567 549
f 567 570 549
f 532 570 567
f 567 569 532
f 544 567 517
f 544 569 567
f 528 589 550
f 570 589 528
f 549 570 528
f 550 561 528
f 528 551 549
f 528 561 551
f 542 598 524
f 595 598 542
f 516 595 542
f 524 566 542
f 542 566 563
f 542 563 516
f 566 580 531
f 563 566 531
f 531 580 564
f 564 575 531
f 565 575 573
f 563 565 540
f 531 575 565
f 531 565 563
f 565 573 523
f 540 565 523
f 605 606 493
f 611 617 505
f 617 626 505
f 633 634 599
f 515 631 630
f 522 670 636
f 581 656 655
f 673 674 519
f 674 675 519
f 581 657 656
f 502 611 505
f 610 611 502
f 505 626 503
f 503 626 625
f 514 616 507
f 514 620 616
f 636 637 597
f 522 636 597
f 515 630 514
f 514 630 623
f 514 621 620
f 514 623 621
f 600 633 599
f 600 645 633
f 597 648 600
f 637 648 597
f 223 718 239
f 222 718 223
f 717 718 222
f 600 651 645
f 648 651 600
f 503 654 484
f 484 654 653
f 484 653 652
f 652 658 484
f 484 658 486
f 692 694 367
f 373 668 604
f 373 694 668
f 367 694 373
f 604 668 523
f 523 669 604
f 676 677 522
f 522 678 670
f 677 678 522
f 659 665 584
f 655 659 584
f 581 655 584
f 615 619 571
f 571 635 615
f 573 669 523
f 573 688 669
f 619 688 573
f 571 619 573
f 692 693 541
f 541 694 692
f 541 676 522
f 541 693 676
f 622 720 389
f 389 720 372
f 523 694 541
f 668 694 523
f 251 605 238
f 251 606 605
f 605 710 238
f 251 721 606
f 251 722 721
f 646 649 547
f 547 647 646
f 240 724 252
f 239 725 240
f 723 725 239
f 240 725 724
f 547 673 519
f 649 673 547
f 669 688 373
f 373 688 619
f 391 619 615
f 604 669 373
f 373 619 391
f 615 635 391
f 391 635 390
f 390 635 629
f 519 675 546
f 675 679 546
f 679 682 546
f 546 682 526
f 682 683 526
f 687 704 594
f 594 707 593
f 593 707 706
f 705 707 594
f 704 705 594
f 697 701 476
f 526 687 594
f 683 687 526
f 476 701 495
f 701 702 495
f 696 697 476
f 486 696 476
f 640 641 584
f 584 665 640
f 625 654 503
f 574 629 571
f 629 635 571
f 627 629 574
f 684 685 486
f 685 696 486
f 574 643 628
f 574 628 627
f 658 684 486
f 507 608 502
f 507 609 608
f 584 643 574
f 641 643 584
f 507 616 609
f 263 728 251
f 726 728 263
f 251 728 722
f 263 727 726
f 703 714 495
f 702 703 495
f 495 714 493
f 593 712 544
f 712 713 544
f 493 714 711
f 689 695 525
f 502 608 607
f 502 644 610
f 607 644 502
f 544 689 525
f 544 713 689
f 401 622 389
f 402 622 401
f 402 638 622
f 660 661 513
f 513 667 660
f 513 661 483
f 661 663 483
f 708 712 593
f 706 708 593
f 483 663 662
f 483 662 515
f 695 698 525
f 281 729 273
f 272 727 263
f 273 727 272
f 273 729 727
f 515 662 632
f 515 632 631
f 493 710 605
f 493 711 710
f 583 657 581
f 583 700 657
f 479 728 500
f 722 728 479
f 721 722 479
f 525 698 583
f 698 700 583
f 493 606 479
f 606 721 479
f 500 728 726
f 726 727 500
f 612 613 500
f 500 730 612
f 729 730 500
f 727 729 500
f 646 647 402
f 439 646 438
f 402 647 639
f 438 646 402
f 293 730 281
f 612 730 293
f 599 642 596
f 599 650 642
f 599 664 650
f 599 666 664
f 599 671 666
f 439 674 673
f 439 649 646
f 439 675 674
f 439 679 675
f 439 682 679
f 440 682 439
f 440 687 683
f 440 683 682
f 440 704 687
f 440 705 704
f 439 673 649
f 513 717 716
f 513 716 709
f 513 680 667
f 513 709 699
f 513 699 691
f 513 691 690
f 513 690 681
f 513 681 680
f 513 718 717
f 403 665 659
f 640 665 403
f 403 659 443
f 443 659 442
f 599 672 671
f 599 686 672
f 634 686 599
f 305 612 293
f 306 613 305
f 306 614 613
f 305 613 612
f 715 719 547
f 638 639 547
f 639 647 547
f 622 638 547
f 547 720 622
f 719 720 547
f 689 713 441
f 441 713 712
f 441 712 708
f 441 695 689
f 442 698 695
f 442 695 441
f 442 700 698
f 442 659 655
f 657 700 442
f 656 657 442
f 655 656 442
f 109 616 110
f 616 620 110
f 620 621 110
f 609 616 109
f 608 609 109
f 151 608 109
f 607 608 151
f 706 707 440
f 440 707 705
f 441 706 440
f 441 708 706
f 111 632 152
f 630 631 111
f 110 630 111
f 631 632 111
f 623 630 110
f 621 623 110
f 319 618 306
f 319 624 618
f 642 650 320
f 320 650 321
f 650 664 321
f 322 666 334
f 321 666 322
f 664 666 321
f 625 626 150
f 150 626 617
f 150 617 611
f 150 611 610
f 150 610 151
f 610 644 151
f 179 625 150
f 179 654 625
f 653 654 179
f 152 667 153
f 660 667 152
f 667 680 153
f 680 681 180
f 154 680 180
f 153 680 154
f 671 672 334
f 334 672 344
f 666 671 334
f 181 691 201
f 690 691 181
f 180 690 181
f 672 686 344
f 344 686 353
f 390 629 627
f 627 628 390
f 202 709 221
f 699 709 202
f 201 699 202
f 353 686 634
f 353 634 633
f 633 645 353
f 645 651 353
f 403 643 641
f 403 641 640
f 390 643 403
f 628 643 390
f 151 644 607
f 353 651 354
f 354 651 648
f 354 648 637
f 354 637 636
f 354 636 361
f 636 670 361
f 670 678 361
f 632 662 152
f 662 663 152
f 152 663 661
f 152 661 660
f 200 685 684
f 200 658 179
f 200 684 658
f 179 658 652
f 652 653 179
f 200 697 696
f 220 697 200
f 200 696 685
f 220 701 697
f 220 702 701
f 220 703 702
f 238 714 220
f 711 714 238
f 220 714 703
f 710 711 238
f 221 716 222
f 716 717 222
f 361 676 362
f 362 693 367
f 361 677 676
f 676 693 362
f 367 693 692
f 307 889 888
f 225 891 890
f 903 917 328
f 917 926 328
f 414 943 942
f 494 979 978
f 562 1003 966
f 1022 1023 601
f 1025 1026 715
f 1019 1027 596
f 1027 1028 596
f 1037 1045 596
f 956 1044 252
f 1045 1046 596
f 1046 1047 596
f 1047 1050 596
f 1050 1051 596
f 1051 1052 596
f 1052 1053 596
f 1053 1056 596
f 1056 1060 596
f 724 1061 957
f 1060 1067 596
f 1041 1073 511
f 538 1078 1075
f 603 1091 1083
f 603 1094 1091
f 1099 1100 529
f 725 1095 1068
f 1096 1104 498
f 988 1118 560
f 499 1119 1114
f 1118 1122 560
f 385 982 980
f 1122 1123 560
f 1123 1124 560
f 932 1065 624
f 560 1132 1131
f 1131 1134 560
f 560 1138 1132
f 560 1140 1138
f 560 1141 1140
f 1129 1141 560
f 547 1146 1145
f 1145 1148 547
f 547 1148 1113
f 527 1159 1158
f 1150 1159 527
f 825 828 806
f 769 887 881
f 880 882 769
f 876 882 880
f 858 864 764
f 804 827 825
f 858 869 866
f 764 869 858
f 766 869 867
f 766 870 866
f 866 869 766
f 758 828 825
f 825 827 758
f 871 881 767
f 876 880 742
f 734 878 871
f 878 881 871
f 769 881 878
f 878 880 769
f 794 821 736
f 821 837 736
f 794 823 821
f 769 882 879
f 879 887 769
f 768 882 876
f 881 886 767
f 868 870 766
f 801 856 855
f 861 863 765
f 863 864 765
f 770 774 734
f 734 871 770
f 813 835 755
f 755 815 813
f 867 869 860
f 857 860 764
f 860 869 764
f 764 859 857
f 764 864 859
f 859 864 863
f 801 855 738
f 738 806 801
f 738 825 806
f 804 825 738
f 797 863 861
f 844 846 761
f 767 872 871
f 767 873 872
f 770 872 741
f 871 872 770
f 742 880 772
f 772 880 878
f 772 878 734
f 748 884 877
f 748 823 794
f 794 884 748
f 842 846 836
f 761 846 842
f 865 867 804
f 766 867 865
f 865 868 766
f 855 868 865
f 855 865 738
f 738 865 804
f 774 775 743
f 741 775 770
f 770 775 774
f 806 808 801
f 744 778 776
f 744 786 778
f 755 829 815
f 758 829 826
f 815 829 827
f 827 829 758
f 815 827 752
f 752 867 860
f 752 827 804
f 804 867 752
f 859 863 749
f 749 863 797
f 841 844 761
f 837 839 760
f 839 852 760
f 821 839 837
f 740 848 833
f 740 836 831
f 740 842 836
f 833 842 740
f 838 852 848
f 831 838 740
f 838 848 740
f 838 840 760
f 760 852 838
f 848 852 762
f 774 787 734
f 734 787 772
f 883 884 794
f 877 885 768
f 884 885 877
f 875 882 768
f 879 882 875
f 768 885 875
f 842 845 761
f 834 845 759
f 759 845 833
f 833 845 842
f 765 864 862
f 862 864 858
f 763 868 855
f 855 856 763
f 802 808 807
f 776 802 744
f 802 807 744
f 751 856 801
f 801 808 751
f 854 856 751
f 751 808 802
f 753 828 819
f 807 808 753
f 806 828 753
f 753 808 806
f 778 786 784
f 857 859 796
f 733 857 796
f 796 859 749
f 749 834 796
f 803 860 857
f 803 857 733
f 752 860 803
f 803 815 752
f 813 815 803
f 733 813 803
f 832 835 813
f 733 832 813
f 759 835 832
f 832 834 759
f 796 834 832
f 796 832 733
f 798 844 841
f 795 799 798
f 841 843 797
f 797 843 749
f 749 843 834
f 761 843 841
f 843 845 834
f 761 845 843
f 821 823 757
f 757 839 821
f 762 851 848
f 759 851 835
f 833 851 759
f 848 851 833
f 835 849 755
f 835 851 849
f 849 851 762
f 762 852 850
f 850 852 839
f 822 850 757
f 757 850 839
f 753 819 805
f 805 807 753
f 739 822 810
f 817 826 739
f 810 817 739
f 735 788 783
f 747 792 788
f 788 792 783
f 800 854 751
f 751 802 800
f 731 800 776
f 800 802 776
f 750 844 798
f 737 841 797
f 798 841 737
f 795 798 737
f 797 861 737
f 737 853 795
f 737 861 853
f 847 849 762
f 762 850 847
f 847 850 822
f 739 847 822
f 744 807 777
f 777 807 805
f 777 805 735
f 735 783 777
f 777 786 744
f 783 786 777
f 747 789 787
f 772 789 742
f 787 789 772
f 771 876 742
f 805 819 816
f 805 816 735
f 828 830 819
f 817 830 826
f 758 830 828
f 826 830 758
f 739 826 814
f 826 829 814
f 814 829 755
f 814 847 739
f 755 849 814
f 814 849 847
f 788 791 747
f 747 791 789
f 780 788 735
f 735 816 780
f 745 791 780
f 780 791 788
f 743 790 774
f 774 790 787
f 787 790 747
f 790 792 747
f 746 786 783
f 783 792 746
f 784 786 746
f 782 784 746
f 874 876 771
f 768 876 874
f 874 877 768
f 742 789 781
f 742 781 771
f 789 791 781
f 781 791 745
f 812 823 748
f 810 820 817
f 773 785 743
f 785 790 743
f 782 785 773
f 785 792 790
f 746 785 782
f 746 792 785
f 779 781 745
f 771 781 779
f 754 812 809
f 754 820 810
f 793 877 874
f 809 812 793
f 748 877 793
f 793 812 748
f 819 830 756
f 816 819 756
f 756 830 817
f 817 820 756
f 756 820 818
f 756 818 816
f 780 818 745
f 816 818 780
f 822 824 810
f 810 824 754
f 754 824 812
f 757 824 822
f 823 824 757
f 812 824 823
f 771 779 732
f 732 874 771
f 779 809 732
f 793 874 732
f 732 809 793
f 779 811 809
f 818 820 811
f 809 811 754
f 811 820 754
f 745 811 779
f 745 818 811
f 854 906 905
f 928 929 862
f 853 968 954
f 881 987 986
f 881 986 985
f 1054 1055 866
f 973 974 741
f 920 922 767
f 870 947 946
f 773 1018 1017
f 1071 1077 731
f 731 1077 981
f 775 970 969
f 782 935 934
f 902 1076 778
f 895 896 763
f 883 1108 1107
f 991 993 875
f 836 1009 1007
f 873 948 925
f 217 235 236
f 218 217 236
f 298 297 310
f 311 298 310
f 420 419 429
f 430 420 429
f 4 3 29
f 30 4 29
f 298 311 312
f 299 298 312
f 219 218 236
f 237 219 236
f 5 4 30
f 31 5 30
f 301 300 313
f 314 301 313
f 894 893 784
f 892 784 893
f 2 1 27
f 28 2 27
f 219 237 238
f 220 219 238
f 778 784 892
f 902 778 892
f 302 301 314
f 315 302 314
f 208 207 213
f 214 208 213
f 6 5 31
f 32 6 31
f 854 910 911
f 905 910 854
f 129 152 153
f 111 152 129
f 208 214 215
f 215 214 225
f 7 6 32
f 33 7 32
f 925 924 873
f 923 873 924
f 423 422 446
f 447 423 446
f 210 229 230
f 209 229 210
f 224 223 239
f 240 224 239
f 112 129 130
f 138 130 129
f 211 230 231
f 210 230 211
f 765 943 944
f 942 943 765
f 941 942 765
f 8 7 33
f 34 8 33
f 302 315 316
f 303 302 316
f 472 471 473
f 470 471 472
f 424 423 447
f 448 424 447
f 952 951 765
f 862 952 765
f 941 765 951
f 929 952 862
f 1149 1147 372
f 372 388 389
f 1147 388 372
f 1030 1149 372
f 217 216 234
f 235 217 234
f 795 853 955
f 954 955 853
f 114 113 130
f 139 114 130
f 8 34 35
f 9 8 35
f 853 861 959
f 958 959 861
f 2 28 29
f 3 2 29
f 304 303 316
f 317 304 316
f 10 9 35
f 36 10 35
f 959 967 853
f 853 967 968
f 425 424 448
f 449 425 448
f 368 367 373
f 374 368 373
f 115 139 156
f 155 156 139
f 114 139 115
f 11 10 36
f 37 11 36
f 800 731 980
f 981 980 731
f 982 800 980
f 983 800 982
f 304 317 318
f 305 304 318
f 230 229 242
f 243 230 242
f 983 906 854
f 983 854 800
f 426 425 449
f 450 426 449
f 369 375 376
f 370 369 376
f 795 996 998
f 955 996 795
f 116 156 157
f 115 156 116
f 12 11 37
f 38 12 37
f 799 795 1005
f 1004 1005 795
f 998 1004 795
f 306 305 318
f 319 306 318
f 232 231 244
f 245 232 244
f 1010 1011 736
f 794 736 1011
f 1012 1010 736
f 427 426 450
f 451 427 450
f 13 12 38
f 39 13 38
f 117 116 158
f 157 158 116
f 1014 912 1015
f 915 1015 912
f 1013 912 1014
f 235 234 247
f 248 235 247
f 427 451 452
f 428 427 452
f 1032 1033 736
f 1012 736 1033
f 13 39 40
f 14 13 40
f 118 117 159
f 158 159 117
f 236 235 248
f 249 236 248
f 913 1013 1034
f 1035 1034 1013
f 912 1013 913
f 429 428 452
f 453 429 452
f 15 14 40
f 41 15 40
f 119 159 160
f 118 159 119
f 965 987 887
f 881 887 987
f 961 965 887
f 236 249 250
f 237 236 250
f 430 429 453
f 454 430 453
f 1008 1002 879
f 1001 879 1002
f 16 15 41
f 42 16 41
f 120 119 161
f 160 161 119
f 962 961 879
f 887 879 961
f 1001 962 879
f 238 237 250
f 251 238 250
f 431 430 454
f 455 431 454
f 17 16 42
f 43 17 42
f 308 307 320
f 321 308 320
f 866 870 945
f 946 945 870
f 953 866 945
f 1054 866 953
f 19 18 43
f 44 19 43
f 121 161 162
f 122 121 162
f 120 161 121
f 20 45 46
f 21 20 46
f 47 21 46
f 431 455 456
f 432 431 456
f 23 22 48
f 49 23 48
f 309 308 321
f 322 309 321
f 930 886 985
f 881 985 886
f 990 930 985
f 1064 930 990
f 1063 930 1064
f 1065 930 1063
f 932 930 1065
f 25 24 50
f 51 25 50
f 131 162 163
f 122 162 131
f 858 866 1055
f 1066 858 1055
f 433 432 456
f 457 433 456
f 374 391 392
f 373 391 374
f 310 309 322
f 323 310 322
f 27 53 54
f 28 27 54
f 930 931 886
f 921 920 886
f 767 886 920
f 931 921 886
f 124 123 131
f 132 124 131
f 731 776 1071
f 1072 1071 776
f 29 28 54
f 55 29 54
f 776 778 1072
f 1076 1072 778
f 434 433 457
f 458 434 457
f 376 375 378
f 379 376 378
f 861 944 958
f 765 944 861
f 310 323 324
f 311 310 324
f 378 381 382
f 379 378 382
f 975 831 977
f 1007 977 831
f 836 1007 831
f 125 124 133
f 134 125 133
f 30 29 55
f 56 30 55
f 435 434 458
f 459 435 458
f 382 381 393
f 394 382 393
f 312 311 324
f 325 312 324
f 1027 1019 901
f 937 901 1019
f 1028 1027 901
f 1036 1028 901
f 900 1036 901
f 31 30 56
f 57 31 56
f 435 459 460
f 436 435 460
f 383 382 394
f 395 383 394
f 868 919 870
f 927 919 868
f 242 241 253
f 254 242 253
f 919 918 870
f 870 918 947
f 136 143 144
f 166 144 143
f 135 143 136
f 127 135 136
f 126 135 127
f 167 144 166
f 384 383 395
f 396 384 395
f 743 971 999
f 972 971 743
f 773 743 999
f 314 329 330
f 313 329 314
f 32 31 57
f 58 32 57
f 999 1000 773
f 773 1000 1018
f 138 153 154
f 129 153 138
f 242 254 255
f 243 242 255
f 775 741 974
f 970 775 974
f 437 436 460
f 461 437 460
f 743 775 969
f 972 743 969
f 385 384 396
f 397 385 396
f 315 330 331
f 314 330 315
f 35 34 60
f 61 35 60
f 773 936 782
f 935 782 936
f 1017 936 773
f 140 132 163
f 164 140 163
f 131 163 132
f 244 243 255
f 256 244 255
f 960 973 741
f 1006 960 741
f 437 461 462
f 438 437 462
f 37 36 62
f 63 37 62
f 831 976 994
f 975 976 831
f 326 331 332
f 315 331 326
f 244 256 257
f 245 244 257
f 134 133 141
f 142 134 141
f 39 38 64
f 65 39 64
f 439 438 462
f 463 439 462
f 245 257 258
f 246 245 258
f 42 41 67
f 68 42 67
f 318 317 327
f 328 318 327
f 904 328 327
f 904 327 333
f 903 328 904
f 248 247 259
f 260 248 259
f 138 154 155
f 139 138 155
f 43 42 68
f 69 43 68
f 44 43 69
f 440 439 463
f 464 440 463
f 248 260 261
f 249 248 261
f 141 164 165
f 142 141 165
f 45 44 69
f 70 45 69
f 441 440 464
f 465 441 464
f 251 250 262
f 263 251 262
f 147 175 176
f 146 175 147
f 46 45 70
f 71 46 70
f 1047 1046 900
f 1045 900 1046
f 1050 1047 900
f 1037 900 1045
f 1036 900 1037
f 1051 1050 888
f 888 1050 900
f 1052 1051 888
f 1053 1052 888
f 1056 1053 888
f 1060 1056 888
f 1067 1060 888
f 1101 1067 889
f 889 1067 888
f 1112 1101 889
f 442 441 465
f 466 442 465
f 47 46 72
f 73 47 72
f 148 147 177
f 176 177 147
f 1006 741 872
f 1006 872 997
f 984 997 872
f 49 48 74
f 75 49 74
f 443 442 466
f 467 443 466
f 872 873 923
f 984 872 923
f 387 386 398
f 399 387 398
f 149 177 178
f 148 177 149
f 854 911 856
f 909 856 911
f 50 49 75
f 76 50 75
f 444 443 467
f 468 444 467
f 862 858 1105
f 1066 1105 858
f 387 399 400
f 388 387 400
f 150 178 179
f 149 178 150
f 51 50 76
f 77 51 76
f 1035 1048 1034
f 1048 1125 1126
f 1034 1048 1126
f 445 444 468
f 469 445 468
f 389 388 400
f 401 389 400
f 1032 736 1062
f 1069 1062 736
f 323 322 335
f 334 335 322
f 1105 928 862
f 255 254 265
f 266 255 265
f 324 336 337
f 323 336 324
f 335 336 323
f 763 856 908
f 909 908 856
f 54 53 79
f 80 54 79
f 325 324 338
f 337 338 324
f 736 837 1106
f 1070 736 1106
f 1069 736 1070
f 257 256 267
f 268 257 267
f 327 332 333
f 326 332 327
f 1048 1049 1125
f 1059 1125 1049
f 1133 1125 1059
f 55 54 80
f 81 55 80
f 155 180 181
f 154 180 155
f 391 390 403
f 404 391 403
f 868 897 927
f 896 897 868
f 763 896 868
f 156 181 182
f 155 181 156
f 260 274 275
f 259 274 260
f 915 914 1058
f 1015 915 1058
f 156 182 169
f 169 182 183
f 157 169 170
f 184 170 169
f 883 794 1011
f 1108 883 1011
f 56 55 81
f 82 56 81
f 908 895 763
f 185 159 170
f 159 158 170
f 261 275 276
f 260 275 261
f 330 329 339
f 340 330 339
f 914 1057 1058
f 916 1057 914
f 1144 1057 916
f 392 391 404
f 405 392 404
f 160 159 186
f 185 186 159
f 187 160 186
f 57 56 82
f 83 57 82
f 933 894 784
f 782 933 784
f 934 933 782
f 331 330 340
f 341 331 340
f 270 276 277
f 261 276 270
f 1096 1097 883
f 884 883 1097
f 1104 1096 883
f 1111 1104 883
f 394 393 406
f 407 394 406
f 58 57 83
f 84 58 83
f 899 898 1021
f 1020 898 1040
f 1021 898 1020
f 1154 899 1021
f 263 271 272
f 279 272 271
f 59 58 84
f 85 59 84
f 60 59 85
f 1144 1154 1024
f 1021 1024 1154
f 1057 1144 1024
f 1107 1109 883
f 883 1109 1111
f 396 395 408
f 411 396 408
f 425 396 411
f 417 425 411
f 424 425 417
f 61 60 85
f 86 61 85
f 979 1008 875
f 879 875 1008
f 978 979 875
f 993 978 875
f 397 425 426
f 396 425 397
f 62 61 86
f 87 62 86
f 62 87 88
f 63 62 88
f 27 1 470
f 53 27 470
f 79 53 470
f 104 79 470
f 146 104 470
f 175 146 470
f 196 175 470
f 216 196 470
f 234 216 470
f 247 234 470
f 259 247 470
f 472 259 470
f 274 259 472
f 288 274 472
f 300 288 472
f 313 300 472
f 329 313 472
f 339 329 472
f 358 339 472
f 364 358 472
f 369 364 472
f 375 369 472
f 378 375 472
f 381 378 472
f 393 381 472
f 406 393 472
f 409 406 472
f 415 409 472
f 422 415 472
f 446 422 472
f 1044 956 1089
f 1090 956 1095
f 1068 1095 956
f 1089 956 1090
f 1042 1044 1089
f 1061 1068 956
f 957 1061 956
f 64 63 88
f 89 64 88
f 922 907 767
f 161 187 188
f 160 187 161
f 162 188 189
f 161 188 162
f 918 919 412
f 927 427 418
f 927 418 412
f 428 418 427
f 419 412 418
f 897 427 927
f 919 927 412
f 163 189 190
f 162 189 163
f 904 948 767
f 873 767 948
f 903 904 767
f 917 903 767
f 926 917 767
f 907 926 767
f 65 64 89
f 90 65 89
f 164 190 191
f 165 164 191
f 163 190 164
f 66 65 90
f 91 66 90
f 171 191 192
f 165 191 171
f 166 165 171
f 167 166 172
f 173 167 172
f 265 282 283
f 264 282 265
f 844 988 989
f 1118 988 844
f 1122 1118 844
f 1123 1122 844
f 1124 1123 844
f 1130 1124 844
f 172 193 194
f 173 172 194
f 266 283 284
f 265 283 266
f 846 844 964
f 963 964 844
f 989 963 844
f 174 173 194
f 195 174 194
f 67 66 91
f 92 67 91
f 836 846 964
f 966 836 964
f 1003 836 966
f 1009 836 1003
f 335 334 344
f 345 335 344
f 267 284 285
f 266 284 267
f 67 92 93
f 68 67 93
f 1092 1088 938
f 1087 938 1088
f 950 1092 938
f 1120 840 1121
f 1128 1121 840
f 967 414 421
f 431 432 421
f 967 421 432
f 959 414 967
f 958 414 959
f 944 414 958
f 943 414 944
f 1074 949 1164
f 950 949 1074
f 1075 950 1074
f 1078 950 1075
f 1092 950 1078
f 268 285 286
f 267 285 268
f 69 68 93
f 94 69 93
f 760 840 1120
f 1117 760 1120
f 1116 760 1117
f 269 286 287
f 268 286 269
f 1106 837 1110
f 1103 1110 837
f 1102 1103 837
f 447 446 472
f 448 447 472
f 449 448 472
f 450 449 472
f 451 450 472
f 452 451 472
f 453 452 472
f 454 453 472
f 455 454 472
f 456 455 472
f 457 456 472
f 458 457 472
f 459 458 472
f 460 459 472
f 461 460 472
f 462 461 472
f 473 462 472
f 463 462 473
f 464 463 473
f 465 464 473
f 466 465 473
f 467 466 473
f 468 467 473
f 469 468 473
f 69 94 95
f 70 69 95
f 175 196 197
f 176 175 197
f 996 433 434
f 996 434 398
f 998 996 398
f 1004 998 398
f 1022 1038 1133
f 1162 1038 1163
f 1133 1038 1162
f 1023 1022 1133
f 1059 1023 1133
f 336 335 345
f 346 336 345
f 271 270 277
f 278 271 277
f 177 176 197
f 198 177 197
f 837 760 1116
f 1100 837 1116
f 1099 837 1100
f 1102 837 1099
f 71 70 95
f 96 71 95
f 337 336 347
f 348 337 347
f 1039 1074 1164
f 1038 1039 1163
f 1163 1039 1164
f 399 434 435
f 398 434 399
f 338 337 348
f 349 338 348
f 73 72 97
f 98 73 97
f 939 938 1087
f 939 1087 1082
f 1080 939 1082
f 178 177 198
f 199 178 198
f 273 272 279
f 280 273 279
f 1135 1128 840
f 838 1135 840
f 340 339 359
f 358 359 339
f 400 435 436
f 399 435 400
f 179 178 199
f 200 179 199
f 75 74 99
f 100 75 99
f 350 359 360
f 340 359 350
f 401 400 437
f 436 437 400
f 1091 1094 1112
f 1083 1091 1112
f 1101 1112 1094
f 1080 1112 1016
f 1080 1083 1112
f 940 1080 1016
f 939 1080 940
f 77 76 101
f 102 77 101
f 838 831 995
f 994 995 831
f 1135 838 995
f 274 288 289
f 275 274 289
f 973 352 351
f 342 351 352
f 974 973 351
f 960 352 973
f 970 974 351
f 969 970 351
f 972 969 351
f 971 972 351
f 1127 992 885
f 885 992 991
f 885 991 875
f 402 437 438
f 401 437 402
f 182 181 201
f 202 182 201
f 80 79 104
f 105 80 104
f 183 182 202
f 203 183 202
f 276 275 289
f 290 276 289
f 1161 1043 1081
f 1042 1081 1043
f 1089 1081 1042
f 1160 1084 1085
f 1084 1161 1081
f 1160 1161 1084
f 184 183 203
f 204 184 203
f 81 80 105
f 106 81 105
f 1097 1098 884
f 884 1098 1115
f 185 184 204
f 205 185 204
f 280 279 293
f 292 293 279
f 278 292 279
f 186 185 205
f 206 186 205
f 404 443 444
f 403 443 404
f 82 81 106
f 107 82 106
f 891 1153 1041
f 1073 1041 1153
f 1079 1073 1153
f 1093 1079 1153
f 890 891 1040
f 1040 891 1041
f 898 890 1040
f 83 82 107
f 108 83 107
f 405 444 445
f 404 444 405
f 1115 1114 884
f 884 1114 1119
f 1127 884 1119
f 885 884 1127
f 84 83 108
f 109 84 108
f 1152 1093 1153
f 1160 1093 1152
f 1086 1093 1160
f 1085 1086 1160
f 407 406 409
f 410 407 409
f 85 84 109
f 110 85 109
f 86 85 110
f 111 86 110
f 88 87 112
f 113 88 112
f 844 750 1130
f 1129 1130 750
f 1141 1129 750
f 1140 1141 750
f 1138 1140 750
f 1132 1138 750
f 1131 1132 750
f 1134 1131 750
f 1136 1134 750
f 1151 1136 750
f 283 282 294
f 295 283 294
f 445 469 473
f 405 445 473
f 392 405 473
f 374 392 473
f 368 374 473
f 363 368 473
f 357 363 473
f 349 357 473
f 338 349 473
f 325 338 473
f 312 325 473
f 299 312 473
f 287 299 473
f 269 287 473
f 258 269 473
f 246 258 473
f 233 246 473
f 212 233 473
f 471 212 473
f 195 212 471
f 174 195 471
f 168 174 471
f 145 168 471
f 137 145 471
f 128 137 471
f 103 128 471
f 78 103 471
f 52 78 471
f 26 52 471
f 90 89 114
f 115 90 114
f 186 206 207
f 207 206 213
f 750 1150 1151
f 1159 1150 750
f 1158 1159 750
f 1157 1158 750
f 284 283 295
f 296 284 295
f 187 186 208
f 207 208 186
f 215 187 208
f 93 92 117
f 118 93 117
f 750 1156 1157
f 1155 1156 750
f 188 187 215
f 226 188 215
f 285 284 296
f 297 285 296
f 189 227 228
f 188 227 189
f 226 227 188
f 93 118 119
f 94 93 119
f 209 228 229
f 189 228 209
f 286 285 297
f 298 286 297
f 345 344 353
f 354 345 353
f 750 798 1029
f 1155 750 1029
f 1031 1155 1029
f 1026 1155 1031
f 1146 1155 1026
f 1145 1146 1026
f 1148 1145 1026
f 1113 1148 1026
f 1025 1113 1026
f 95 94 119
f 120 95 119
f 191 190 209
f 210 191 209
f 346 345 354
f 355 346 354
f 287 286 298
f 299 287 298
f 1029 798 1030
f 1149 1030 798
f 96 95 120
f 121 96 120
f 194 193 232
f 211 232 193
f 231 232 211
f 192 211 193
f 1143 1147 798
f 1149 798 1147
f 1142 1143 798
f 799 1142 798
f 289 288 300
f 301 289 300
f 348 347 355
f 356 348 355
f 98 97 121
f 122 98 121
f 212 232 233
f 194 232 212
f 1137 1142 799
f 1139 1137 799
f 1005 1139 799
f 289 301 302
f 290 289 302
f 349 348 356
f 357 349 356
f 99 98 122
f 123 99 122
f 197 216 217
f 196 216 197
f 291 290 302
f 303 291 302
f 971 351 350
f 971 350 360
f 999 971 360
f 1000 999 360
f 99 123 124
f 100 99 124
f 125 100 124
f 292 291 303
f 304 292 303
f 102 101 126
f 127 102 126
f 292 304 305
f 293 292 305
f 410 409 415
f 416 410 415
f 103 102 127
f 128 103 127
f 105 146 147
f 104 146 105
f 25 26 471
f 24 25 471
f 23 24 471
f 22 23 471
f 21 22 471
f 470 21 471
f 20 21 470
f 19 20 470
f 18 19 470
f 17 18 470
f 16 17 470
f 15 16 470
f 14 15 470
f 13 14 470
f 12 13 470
f 11 12 470
f 10 11 470
f 9 10 470
f 8 9 470
f 7 8 470
f 6 7 470
f 5 6 470
f 4 5 470
f 3 4 470
f 2 3 470
f 1 2 470
f 106 147 148
f 105 147 106
f 107 148 149
f 106 148 107
f 198 217 218
f 197 217 198
f 108 149 150
f 107 149 108
f 199 218 219
f 198 218 199
f 295 294 307
f 308 295 307
f 200 219 220
f 199 219 200
f 109 150 151
f 108 150 109
f 203 202 222
f 221 222 202
f 296 295 308
f 309 296 308
f 204 222 223
f 203 222 204
f 296 309 310
f 297 296 310
f 205 223 224
f 204 223 205
f 416 415 422
f 423 416 422
f 213 206 224
f 225 213 224
f 205 224 206
f 214 213 225
f 355 361 362
f 356 355 362
f 354 361 355
f 357 362 363
f 356 362 357
f 359 358 364
f 365 359 364
f 360 359 365
f 366 360 365
f 363 362 367
f 368 363 367
f 365 364 369
f 370 365 369
f 893 380 384
f 380 383 384
f 377 380 893
f 371 377 893
f 371 893 894
f 933 371 894
f 366 371 933
f 896 427 897
f 895 427 896
f 426 427 895
f 908 426 895
f 909 426 908
f 397 426 909
f 911 397 909
f 910 397 911
f 226 890 898
f 899 226 898
f 225 890 226
f 320 888 900
f 901 320 900
f 307 888 320
f 920 319 318
f 922 318 907
f 920 318 922
f 921 319 920
f 328 907 318
f 926 907 328
f 914 227 916
f 915 227 914
f 912 227 915
f 913 227 912
f 930 624 931
f 932 624 930
f 366 933 934
f 935 366 934
f 936 366 935
f 624 319 931
f 921 931 319
f 642 320 901
f 937 642 901
f 264 938 282
f 939 282 938
f 940 282 939
f 950 938 264
f 949 950 264
f 412 945 946
f 947 412 946
f 918 412 947
f 333 925 948
f 924 925 343
f 343 925 333
f 904 333 948
f 941 414 942
f 413 414 941
f 951 413 941
f 412 419 945
f 953 945 419
f 252 724 957
f 956 252 957
f 966 964 560
f 963 560 964
f 562 966 560
f 961 500 965
f 962 500 961
f 975 977 548
f 552 548 977
f 976 975 548
f 997 984 352
f 343 352 984
f 923 343 984
f 924 343 923
f 500 613 965
f 985 613 990
f 986 613 985
f 987 613 986
f 965 613 987
f 560 963 989
f 988 560 989
f 994 548 995
f 976 548 994
f 991 490 993
f 978 993 490
f 992 490 991
f 494 978 490
f 967 432 433
f 955 433 996
f 954 433 955
f 968 433 954
f 967 433 968
f 494 962 1001
f 1002 494 1001
f 500 962 494
f 1006 997 352
f 960 1006 352
f 1009 1003 552
f 562 552 1003
f 1007 1009 552
f 977 1007 552
f 494 1002 1008
f 979 494 1008
f 1017 360 366
f 1017 366 936
f 1018 360 1017
f 1000 360 1018
f 294 282 940
f 1016 294 940
f 596 642 1019
f 937 1019 642
f 1021 510 1024
f 1020 510 1021
f 511 510 1020
f 1029 719 1031
f 372 719 1029
f 1030 372 1029
f 719 715 1031
f 1026 1031 715
f 596 1028 1036
f 1037 596 1036
f 601 602 1039
f 1038 601 1039
f 1022 601 1038
f 511 1020 1040
f 1041 511 1040
f 1042 252 1044
f 1043 252 1042
f 518 601 1049
f 1048 518 1049
f 1035 518 1048
f 1035 475 518
f 1013 475 1035
f 1014 475 1013
f 601 1023 1059
f 1049 601 1059
f 1057 1024 475
f 510 475 1024
f 1058 1057 475
f 1015 1058 475
f 1014 1015 475
f 1032 518 475
f 1033 1032 475
f 1062 518 1032
f 497 1033 475
f 724 725 1068
f 1061 724 1068
f 951 952 413
f 1069 1070 518
f 553 518 1070
f 1062 1069 518
f 497 1010 1012
f 1033 497 1012
f 602 538 1039
f 1074 538 1075
f 1039 538 1074
f 483 511 1079
f 511 1073 1079
f 1084 1081 718
f 513 1084 718
f 1080 603 1083
f 1082 603 1080
f 538 1082 1087
f 1088 538 1087
f 603 1082 538
f 1085 513 1086
f 1084 513 1085
f 723 1081 1089
f 1090 723 1089
f 718 1081 723
f 1093 1086 483
f 513 483 1086
f 1079 1093 483
f 538 1088 1092
f 1078 538 1092
f 725 723 1090
f 1095 725 1090
f 498 480 1096
f 1097 480 1098
f 1096 480 1097
f 603 1067 1101
f 1094 603 1101
f 596 1067 603
f 529 555 1099
f 1102 555 1103
f 1099 555 1102
f 420 1105 419
f 1066 419 1105
f 1055 419 1066
f 1054 419 1055
f 953 419 1054
f 928 1105 420
f 929 928 420
f 952 929 420
f 413 952 420
f 497 498 1109
f 1107 497 1109
f 1108 497 1107
f 1011 497 1108
f 1010 497 1011
f 553 1070 1106
f 1110 553 1106
f 555 553 1110
f 1103 555 1110
f 498 1104 1111
f 1109 498 1111
f 294 1016 1112
f 307 294 1112
f 889 307 1112
f 715 547 1113
f 1025 715 1113
f 480 499 1114
f 1115 480 1114
f 1098 480 1115
f 529 1100 1116
f 1117 529 1116
f 613 614 990
f 1064 990 614
f 556 1117 1120
f 1121 556 1120
f 529 1117 556
f 614 618 1064
f 1063 1064 618
f 618 624 1063
f 1065 1063 624
f 992 1127 499
f 1119 499 1127
f 992 499 490
f 556 1121 1128
f 548 556 995
f 1135 556 1128
f 995 556 1135
f 560 1124 1130
f 1129 560 1130
f 527 560 1134
f 1136 527 1134
f 1139 386 1137
f 1142 387 1143
f 1137 386 387
f 1137 387 1142
f 1143 387 388
f 1143 388 1147
f 527 1136 1151
f 1150 527 1151
f 224 240 1152
f 225 224 1152
f 225 1152 1153
f 891 225 1153
f 547 527 1146
f 1155 1146 527
f 1156 1155 527
f 226 899 1154
f 1144 227 226
f 1144 226 1154
f 916 227 1144
f 1157 527 1158
f 1156 527 1157
f 228 227 1034
f 913 1034 227
f 1126 228 1034
f 241 228 1126
f 385 980 981
f 384 385 981
f 1077 384 981
f 1071 384 1077
f 1072 384 1071
f 1076 384 1072
f 902 384 1076
f 892 384 902
f 893 384 892
f 1161 240 252
f 1160 240 1161
f 1152 240 1160
f 1125 241 1126
f 1133 241 1125
f 253 241 1133
f 1162 253 1133
f 910 905 397
f 906 983 397
f 385 397 983
f 982 385 983
f 905 906 397
f 398 386 1139
f 1005 398 1139
f 1004 398 1005
f 1161 252 1043
f 253 1162 1163
f 264 253 1163
f 1164 264 1163
f 949 264 1164
