v -2 -2 -0.17999999999999999
v -2 -1.8999999999999999 -0.19400000000000001
v -2 -1.8 -0.20799999999999996
v -2 -1.7 -0.222
v -2 -1.6000000000000001 -0.23599999999999999
v -2 -1.2999999999999998 -0.27800000000000002
v -2 -1.2 -0.29200000000000004
v -2 -1.1000000000000001 -0.30599999999999999
v -2 -0.79999999999999982 -0.34800000000000003
v -2 -0.69999999999999996 -0.36199999999999999
v -2 -0.59999999999999987 -0.376
v -2 -0.5 -0.39000000000000001
v -2 -0.29999999999999982 -0.41800000000000004
v -2 -0.19999999999999996 -0.43200000000000005
v -2 -0.099999999999999867 -0.44600000000000006
v -2 0 -0.46000000000000002
v -2 0.20000000000000018 -0.48800000000000004
v -2 0.30000000000000027 -0.50200000000000011
v -2 0.40000000000000036 -0.51600000000000013
v -2 0.5 -0.53000000000000003
v -2 0.90000000000000036 -0.58600000000000008
v -2 1 -0.60000000000000009
v -2 1.4000000000000004 -0.65600000000000014
v -2 1.5 -0.67000000000000004
v -2 1.9000000000000004 -0.72600000000000009
v -2 2 -0.73999999999999999
v -1.8999999999999999 -2 -0.15699999999999997
v -1.8999999999999999 -1.8999999999999999 -0.17099999999999999
v -1.8999999999999999 -1.8 -0.18499999999999994
v -1.8999999999999999 -1.7 -0.19899999999999998
v -1.8999999999999999 -1.6000000000000001 -0.21299999999999997
v -1.8999999999999999 -1.2999999999999998 -0.255
v -1.8999999999999999 -1.2 -0.26900000000000002
v -1.8999999999999999 -1.1000000000000001 -0.28299999999999997
v -1.8999999999999999 -0.79999999999999982 -0.32500000000000001
v -1.8999999999999999 -0.69999999999999996 -0.33899999999999997
v -1.8999999999999999 -0.59999999999999987 -0.35299999999999998
v -1.8999999999999999 -0.5 -0.36699999999999999
v -1.8999999999999999 -0.29999999999999982 -0.39500000000000002
v -1.8999999999999999 -0.19999999999999996 -0.40900000000000003
v -1.8999999999999999 -0.099999999999999867 -0.42300000000000004
v -1.8999999999999999 0 -0.437
v -1.8999999999999999 0.30000000000000027 -0.47900000000000004
v -1.8999999999999999 0.40000000000000036 -0.49300000000000005
v -1.8999999999999999 0.5 -0.50700000000000001
v -1.8999999999999999 0.60000000000000009 -0.52100000000000002
v -1.8999999999999999 0.90000000000000036 -0.56300000000000006
v -1.8999999999999999 1 -0.57699999999999996
v -1.8999999999999999 1.4000000000000004 -0.63300000000000001
v -1.8999999999999999 1.5 -0.64700000000000002
v -1.8999999999999999 1.9000000000000004 -0.70300000000000007
v -1.8999999999999999 2 -0.71700000000000008
v -1.8 -2 -0.13400000000000001
v -1.8 -1.8999999999999999 -0.14800000000000002
v -1.8 -1.8 -0.16199999999999998
v -1.8 -1.7 -0.17600000000000002
v -1.8 -1.6000000000000001 -0.19
v -1.8 -1.2999999999999998 -0.23200000000000004
v -1.8 -1.2 -0.24600000000000002
v -1.8 -1.1000000000000001 -0.26000000000000001
v -1.8 -0.79999999999999982 -0.30200000000000005
v -1.8 -0.69999999999999996 -0.31600000000000006
v -1.8 -0.59999999999999987 -0.33000000000000007
v -1.8 -0.5 -0.34400000000000003
v -1.8 -0.29999999999999982 -0.37200000000000005
v -1.8 -0.19999999999999996 -0.38600000000000001
v -1.8 -0.099999999999999867 -0.40000000000000008
v -1.8 0 -0.41400000000000003
v -1.8 0.40000000000000036 -0.47000000000000008
v -1.8 0.5 -0.48400000000000004
v -1.8 0.60000000000000009 -0.49800000000000005
v -1.8 0.70000000000000018 -0.51200000000000001
v -1.8 0.90000000000000036 -0.54000000000000004
v -1.8 1 -0.55400000000000005
v -1.8 1.4000000000000004 -0.6100000000000001
v -1.8 1.5 -0.62400000000000011
v -1.8 1.9000000000000004 -0.68000000000000016
v -1.8 2 -0.69400000000000006
v -1.7 -2 -0.11099999999999999
v -1.7 -1.8999999999999999 -0.125
v -1.7 -1.8 -0.13899999999999996
v -1.7 -1.7 -0.153
v -1.7 -1.6000000000000001 -0.16699999999999998
v -1.7 -1.2999999999999998 -0.20900000000000002
v -1.7 -1.1000000000000001 -0.23699999999999999
v -1.7 -0.79999999999999982 -0.27900000000000003
v -1.7 -0.69999999999999996 -0.29300000000000004
v -1.7 -0.59999999999999987 -0.30700000000000005
v -1.7 -0.5 -0.32100000000000001
v -1.7 -0.29999999999999982 -0.34900000000000003
v -1.7 -0.19999999999999996 -0.36299999999999999
v -1.7 -0.099999999999999867 -0.37700000000000006
v -1.7 0 -0.39100000000000001
v -1.7 0.40000000000000036 -0.44700000000000006
v -1.7 0.5 -0.46100000000000002
v -1.7 0.70000000000000018 -0.48900000000000005
v -1.7 0.80000000000000027 -0.50300000000000011
v -1.7 0.90000000000000036 -0.51700000000000013
v -1.7 1 -0.53100000000000003
v -1.7 1.4000000000000004 -0.58700000000000008
v -1.7 1.5 -0.60099999999999998
v -1.7 1.9000000000000004 -0.65700000000000003
v -1.7 2 -0.67100000000000004
v -1.6000000000000001 -2 -0.088000000000000023
v -1.6000000000000001 -1.8999999999999999 -0.10200000000000004
v -1.6000000000000001 -1.8 -0.11599999999999999
v -1.6000000000000001 -1.7 -0.13000000000000003
v -1.6000000000000001 -1.6000000000000001 -0.14400000000000002
v -1.6000000000000001 -1.2999999999999998 -0.18600000000000005
v -1.6000000000000001 -1.1000000000000001 -0.21400000000000002
v -1.6000000000000001 -0.79999999999999982 -0.25600000000000006
v -1.6000000000000001 -0.69999999999999996 -0.27000000000000002
v -1.6000000000000001 -0.59999999999999987 -0.28400000000000003
v -1.6000000000000001 -0.5 -0.29800000000000004
v -1.6000000000000001 -0.29999999999999982 -0.32600000000000007
v -1.6000000000000001 -0.19999999999999996 -0.34000000000000008
v -1.6000000000000001 -0.099999999999999867 -0.35400000000000009
v -1.6000000000000001 0 -0.36800000000000005
v -1.6000000000000001 0.40000000000000036 -0.4240000000000001
v -1.6000000000000001 0.5 -0.43800000000000006
v -1.6000000000000001 0.80000000000000027 -0.48000000000000009
v -1.6000000000000001 0.90000000000000036 -0.49400000000000011
v -1.6000000000000001 1 -0.50800000000000001
v -1.6000000000000001 1.1000000000000001 -0.52200000000000002
v -1.6000000000000001 1.4000000000000004 -0.56400000000000006
v -1.6000000000000001 1.5 -0.57800000000000007
v -1.6000000000000001 1.9000000000000004 -0.63400000000000012
v -1.6000000000000001 2 -0.64800000000000013
v -1.5 -0.69999999999999996 -0.24700000000000003
v -1.5 -0.59999999999999987 -0.26100000000000001
v -1.5 1 -0.48500000000000004
v -1.5 1.1000000000000001 -0.49900000000000005
v -1.5 1.2000000000000002 -0.51300000000000012
v -1.5 1.4000000000000004 -0.54100000000000015
v -1.5 1.5 -0.55500000000000005
v -1.5 1.9000000000000004 -0.6110000000000001
v -1.5 2 -0.625
v -1.3999999999999999 -0.59999999999999987 -0.23800000000000002
v -1.3999999999999999 -0.5 -0.252
v -1.3999999999999999 1.2000000000000002 -0.49000000000000005
v -1.3999999999999999 1.3000000000000003 -0.504
v -1.3999999999999999 1.4000000000000004 -0.51800000000000002
v -1.3999999999999999 1.5 -0.53200000000000003
v -1.3999999999999999 1.9000000000000004 -0.58800000000000008
v -1.3999999999999999 2 -0.60200000000000009
v -1.2999999999999998 -2 -0.018999999999999961
v -1.2999999999999998 -1.8999999999999999 -0.032999999999999974
v -1.2999999999999998 -1.8 -0.046999999999999931
v -1.2999999999999998 -1.7 -0.060999999999999971
v -1.2999999999999998 -1.6000000000000001 -0.074999999999999956
v -1.2999999999999998 -1.2999999999999998 -0.11699999999999999
v -1.2999999999999998 -0.79999999999999982 -0.187
v -1.2999999999999998 -0.69999999999999996 -0.20099999999999998
v -1.2999999999999998 -0.59999999999999987 -0.215
v -1.2999999999999998 -0.5 -0.22899999999999998
v -1.2999999999999998 -0.29999999999999982 -0.25700000000000001
v -1.2999999999999998 -0.19999999999999996 -0.27100000000000002
v -1.2999999999999998 -0.099999999999999867 -0.28500000000000003
v -1.2999999999999998 0 -0.29899999999999999
v -1.2999999999999998 0.40000000000000036 -0.35500000000000004
v -1.2999999999999998 0.5 -0.36899999999999999
v -1.2999999999999998 0.90000000000000036 -0.42500000000000004
v -1.2999999999999998 1 -0.439
v -1.2999999999999998 1.3000000000000003 -0.48100000000000004
v -1.2999999999999998 1.4000000000000004 -0.49500000000000005
v -1.2999999999999998 1.5 -0.50900000000000001
v -1.2999999999999998 1.9000000000000004 -0.56500000000000006
v -1.2999999999999998 2 -0.57899999999999996
v -1.2 -0.19999999999999996 -0.24800000000000003
v -1.2 -0.099999999999999867 -0.26200000000000007
v -1.2 1.5 -0.48600000000000004
v -1.2 1.6000000000000001 -0.5
v -1.2 1.9000000000000004 -0.54200000000000004
v -1.2 2 -0.55600000000000005
v -1.1000000000000001 -2 0.026999999999999968
v -1.1000000000000001 -1.8999999999999999 0.012999999999999956
v -1.1000000000000001 -1.8 -0.0010000000000000009
v -1.1000000000000001 -1.7 -0.015000000000000041
v -1.1000000000000001 -1.6000000000000001 -0.029000000000000026
v -1.1000000000000001 -0.59999999999999987 -0.16900000000000007
v -1.1000000000000001 -0.5 -0.18300000000000005
v -1.1000000000000001 -0.29999999999999982 -0.21100000000000008
v -1.1000000000000001 -0.19999999999999996 -0.22500000000000006
v -1.1000000000000001 -0.099999999999999867 -0.23900000000000007
v -1.1000000000000001 0 -0.25300000000000006
v -1.1000000000000001 0.10000000000000009 -0.26700000000000007
v -1.1000000000000001 0.40000000000000036 -0.30900000000000011
v -1.1000000000000001 0.5 -0.32300000000000006
v -1.1000000000000001 0.90000000000000036 -0.37900000000000011
v -1.1000000000000001 1 -0.39300000000000007
v -1.1000000000000001 1.4000000000000004 -0.44900000000000012
v -1.1000000000000001 1.5 -0.46300000000000008
v -1.1000000000000001 1.6000000000000001 -0.47700000000000009
v -1.1000000000000001 1.9000000000000004 -0.51900000000000013
v -1.1000000000000001 2 -0.53300000000000014
v -1 -2 0.050000000000000017
v -1 -1.8999999999999999 0.036000000000000004
v -1 -1.8 0.022000000000000047
v -1 -1.7 0.0080000000000000071
v -1 -1.6000000000000001 -0.0059999999999999776
v -1 -0.5 -0.16
v -1 -0.29999999999999982 -0.18800000000000003
v -1 -0.19999999999999996 -0.20200000000000001
v -1 -0.099999999999999867 -0.21600000000000003
v -1 0 -0.23000000000000001
v -1 0.10000000000000009 -0.24400000000000002
v -1 0.20000000000000018 -0.25800000000000006
v -1 0.30000000000000027 -0.27200000000000008
v -1 1 -0.37
v -1 1.4000000000000004 -0.42600000000000005
v -1 1.5 -0.44000000000000006
v -1 2 -0.51000000000000001
v -0.89999999999999991 0.20000000000000018 -0.23500000000000001
v -0.89999999999999991 0.30000000000000027 -0.24900000000000003
v -0.89999999999999991 0.40000000000000036 -0.26300000000000007
v -0.79999999999999982 -2 0.096000000000000058
v -0.79999999999999982 -1.8999999999999999 0.082000000000000045
v -0.79999999999999982 -1.8 0.068000000000000088
v -0.79999999999999982 -1.7 0.054000000000000048
v -0.79999999999999982 -1.6000000000000001 0.040000000000000063
v -0.79999999999999982 -0.29999999999999982 -0.14199999999999999
v -0.79999999999999982 -0.19999999999999996 -0.15599999999999997
v -0.79999999999999982 -0.099999999999999867 -0.16999999999999998
v -0.79999999999999982 0 -0.18399999999999997
v -0.79999999999999982 0.40000000000000036 -0.24000000000000002
v -0.79999999999999982 0.5 -0.254
v -0.79999999999999982 0.60000000000000009 -0.26800000000000002
v -0.79999999999999982 0.90000000000000036 -0.31000000000000005
v -0.79999999999999982 1 -0.32399999999999995
v -0.79999999999999982 1.4000000000000004 -0.38
v -0.79999999999999982 1.5 -0.39400000000000002
v -0.79999999999999982 1.9000000000000004 -0.45000000000000007
v -0.79999999999999982 2 -0.46399999999999997
v -0.69999999999999996 -2 0.11900000000000002
v -0.69999999999999996 -1.8999999999999999 0.10500000000000001
v -0.69999999999999996 -1.8 0.091000000000000053
v -0.69999999999999996 -1.7 0.077000000000000013
v -0.69999999999999996 -1.6000000000000001 0.063000000000000028
v -0.69999999999999996 -0.099999999999999867 -0.14700000000000002
v -0.69999999999999996 0 -0.161
v -0.69999999999999996 0.40000000000000036 -0.21700000000000005
v -0.69999999999999996 0.5 -0.23100000000000001
v -0.69999999999999996 0.60000000000000009 -0.24500000000000002
v -0.69999999999999996 0.70000000000000018 -0.25900000000000001
v -0.69999999999999996 0.90000000000000036 -0.28700000000000003
v -0.69999999999999996 1 -0.30100000000000005
v -0.69999999999999996 1.4000000000000004 -0.3570000000000001
v -0.69999999999999996 1.5 -0.371
v -0.69999999999999996 1.9000000000000004 -0.42700000000000005
v -0.69999999999999996 2 -0.44100000000000006
v -0.59999999999999987 -2 0.14200000000000004
v -0.59999999999999987 -1.8999999999999999 0.12800000000000003
v -0.59999999999999987 -1.8 0.11400000000000007
v -0.59999999999999987 -1.7 0.10000000000000003
v -0.59999999999999987 -1.6000000000000001 0.086000000000000049
v -0.59999999999999987 0 -0.13799999999999998
v -0.59999999999999987 0.40000000000000036 -0.19400000000000003
v -0.59999999999999987 0.5 -0.20799999999999999
v -0.59999999999999987 0.70000000000000018 -0.23600000000000002
v -0.59999999999999987 0.80000000000000027 -0.25
v -0.59999999999999987 0.90000000000000036 -0.26400000000000001
v -0.59999999999999987 1 -0.27800000000000002
v -0.59999999999999987 1.4000000000000004 -0.33400000000000007
v -0.59999999999999987 1.5 -0.34799999999999998
v -0.59999999999999987 1.9000000000000004 -0.40400000000000003
v -0.59999999999999987 2 -0.41800000000000004
v -0.5 -2 0.16500000000000004
v -0.5 -1.8999999999999999 0.15100000000000002
v -0.5 -1.8 0.13700000000000007
v -0.5 -1.7 0.12300000000000001
v -0.5 -1.6000000000000001 0.10900000000000003
v -0.5 0.10000000000000009 -0.12900000000000003
v -0.5 0.20000000000000018 -0.14300000000000004
v -0.5 0.40000000000000036 -0.17100000000000007
v -0.5 0.5 -0.185
v -0.5 0.80000000000000027 -0.22700000000000004
v -0.5 0.90000000000000036 -0.24100000000000005
v -0.5 1 -0.255
v -0.5 1.4000000000000004 -0.31100000000000005
v -0.5 1.5 -0.32500000000000001
v -0.5 1.9000000000000004 -0.38100000000000006
v -0.5 2 -0.39500000000000002
v -0.39999999999999991 -1.7 0.14600000000000002
v -0.39999999999999991 -1.6000000000000001 0.13200000000000006
v -0.39999999999999991 -1.5 0.11800000000000004
v -0.39999999999999991 -1.3999999999999999 0.10400000000000002
v -0.39999999999999991 0.20000000000000018 -0.12000000000000001
v -0.39999999999999991 0.30000000000000027 -0.13400000000000004
v -0.29999999999999982 -2 0.21100000000000008
v -0.29999999999999982 -1.8999999999999999 0.19700000000000006
v -0.29999999999999982 -1.8 0.18300000000000011
v -0.29999999999999982 -1.7 0.16900000000000004
v -0.29999999999999982 -1.6000000000000001 0.15500000000000008
v -0.29999999999999982 -1.5 0.14100000000000007
v -0.29999999999999982 -1.3999999999999999 0.12700000000000006
v -0.29999999999999982 -1.2999999999999998 0.11300000000000003
v -0.29999999999999982 0.30000000000000027 -0.11100000000000002
v -0.29999999999999982 0.40000000000000036 -0.12500000000000003
v -0.29999999999999982 0.5 -0.13899999999999996
v -0.29999999999999982 0.90000000000000036 -0.19500000000000001
v -0.29999999999999982 1 -0.20899999999999996
v -0.29999999999999982 1.4000000000000004 -0.26500000000000001
v -0.29999999999999982 1.5 -0.27899999999999997
v -0.29999999999999982 1.9000000000000004 -0.33500000000000002
v -0.29999999999999982 2 -0.34899999999999998
v -0.19999999999999996 -2 0.23400000000000004
v -0.19999999999999996 -1.8999999999999999 0.22000000000000003
v -0.19999999999999996 -1.8 0.20600000000000007
v -0.19999999999999996 -1.7 0.19200000000000003
v -0.19999999999999996 -1.6000000000000001 0.17800000000000005
v -0.19999999999999996 -1.2999999999999998 0.13600000000000001
v -0.19999999999999996 0.40000000000000036 -0.10200000000000005
v -0.19999999999999996 0.5 -0.11599999999999999
v -0.19999999999999996 0.90000000000000036 -0.17200000000000004
v -0.19999999999999996 1 -0.186
v -0.19999999999999996 1.4000000000000004 -0.24200000000000005
v -0.19999999999999996 1.5 -0.25600000000000001
v -0.19999999999999996 1.9000000000000004 -0.31200000000000006
v -0.19999999999999996 2 -0.32600000000000001
v -0.099999999999999867 -2 0.25700000000000006
v -0.099999999999999867 -1.8999999999999999 0.24300000000000005
v -0.099999999999999867 -1.8 0.22900000000000009
v -0.099999999999999867 -1.7 0.21500000000000005
v -0.099999999999999867 -1.6000000000000001 0.20100000000000007
v -0.099999999999999867 -1.2999999999999998 0.15900000000000003
v -0.099999999999999867 -1.1000000000000001 0.13100000000000006
v -0.099999999999999867 0.5 -0.092999999999999972
v -0.099999999999999867 0.90000000000000036 -0.14900000000000002
v -0.099999999999999867 1 -0.16299999999999998
v -0.099999999999999867 1.4000000000000004 -0.21900000000000003
v -0.099999999999999867 1.5 -0.23299999999999998
v -0.099999999999999867 1.9000000000000004 -0.28900000000000003
v -0.099999999999999867 2 -0.30299999999999999
v 0 -2 0.28000000000000003
v 0 -1.8999999999999999 0.26600000000000001
v 0 -1.8 0.25200000000000006
v 0 -1.7 0.23800000000000002
v 0 -1.6000000000000001 0.22400000000000003
v 0 -1.2999999999999998 0.182
v 0 -1.1000000000000001 0.15400000000000003
v 0 0.90000000000000036 -0.12600000000000006
v 0 1 -0.14000000000000001
v 0 1.4000000000000004 -0.19600000000000006
v 0 1.5 -0.21000000000000002
v 0 1.9000000000000004 -0.26600000000000007
v 0 2 -0.28000000000000003
v 0.10000000000000009 -1.7 0.26100000000000001
v 0.10000000000000009 -1.6000000000000001 0.24700000000000005
v 0.30000000000000027 -1.2999999999999998 0.25100000000000006
v 0.30000000000000027 -1.2 0.23700000000000007
v 0.40000000000000036 -2 0.37200000000000011
v 0.40000000000000036 -1.8999999999999999 0.3580000000000001
v 0.40000000000000036 -1.8 0.34400000000000014
v 0.40000000000000036 -1.7 0.33000000000000007
v 0.40000000000000036 -1.6000000000000001 0.31600000000000011
v 0.40000000000000036 -1.2999999999999998 0.27400000000000008
v 0.40000000000000036 -1.2 0.26000000000000012
v 0.40000000000000036 -1.1000000000000001 0.24600000000000011
v 0.40000000000000036 -0.79999999999999982 0.20400000000000007
v 0.40000000000000036 -0.69999999999999996 0.19000000000000009
v 0.40000000000000036 -0.59999999999999987 0.17600000000000007
v 0.40000000000000036 1.4000000000000004 -0.10399999999999998
v 0.40000000000000036 1.5 -0.11799999999999994
v 0.40000000000000036 1.7000000000000002 -0.14599999999999996
v 0.40000000000000036 1.9000000000000004 -0.17399999999999999
v 0.40000000000000036 2 -0.18799999999999994
v 0.5 -2 0.39500000000000002
v 0.5 -1.8999999999999999 0.38100000000000001
v 0.5 -1.8 0.36700000000000005
v 0.5 -1.7 0.35300000000000004
v 0.5 -1.6000000000000001 0.33900000000000002
v 0.5 -1.2999999999999998 0.29699999999999999
v 0.5 -1.2 0.28300000000000003
v 0.5 -1.1000000000000001 0.26900000000000002
v 0.5 -0.79999999999999982 0.22699999999999998
v 0.5 -0.69999999999999996 0.21300000000000002
v 0.5 -0.59999999999999987 0.19900000000000001
v 0.5 -0.5 0.185
v 0.5 1.4000000000000004 -0.081000000000000058
v 0.5 1.5 -0.095000000000000015
v 0.5 1.7000000000000002 -0.12300000000000004
v 0.5 1.8000000000000003 -0.13700000000000007
v 0.5 1.9000000000000004 -0.15100000000000008
v 0.5 2 -0.16500000000000004
v 0.60000000000000009 -1.8 0.39000000000000012
v 0.60000000000000009 -1.7 0.37600000000000006
v 0.60000000000000009 -1.6000000000000001 0.3620000000000001
v 0.60000000000000009 -1.2999999999999998 0.32000000000000006
v 0.60000000000000009 -1.2 0.30600000000000005
v 0.60000000000000009 -0.5 0.20800000000000005
v 0.60000000000000009 1.4000000000000004 -0.058000000000000024
v 0.60000000000000009 1.5 -0.071999999999999981
v 0.60000000000000009 1.8000000000000003 -0.11400000000000002
v 0.60000000000000009 1.9000000000000004 -0.12800000000000003
v 0.60000000000000009 2 -0.14199999999999999
v 0.70000000000000018 -0.59999999999999987 0.24500000000000005
v 0.70000000000000018 -0.5 0.23100000000000007
v 0.80000000000000027 -0.5 0.25400000000000011
v 0.90000000000000036 -2 0.4870000000000001
v 0.90000000000000036 -1.8999999999999999 0.47300000000000009
v 0.90000000000000036 -1.8 0.45900000000000019
v 0.90000000000000036 -1.7 0.44500000000000012
v 0.90000000000000036 -1.6000000000000001 0.43100000000000016
v 0.90000000000000036 -1.2999999999999998 0.38900000000000012
v 0.90000000000000036 -1.1000000000000001 0.3610000000000001
v 0.90000000000000036 -0.79999999999999982 0.31900000000000006
v 0.90000000000000036 -0.69999999999999996 0.3050000000000001
v 0.90000000000000036 -0.59999999999999987 0.29100000000000009
v 0.90000000000000036 -0.5 0.27700000000000014
v 0.90000000000000036 -0.39999999999999991 0.26300000000000012
v 0.90000000000000036 -0.29999999999999982 0.24900000000000008
v 0.90000000000000036 -0.19999999999999996 0.2350000000000001
v 0.90000000000000036 1.5 -0.0029999999999999194
v 0.90000000000000036 1.9000000000000004 -0.058999999999999969
v 0.90000000000000036 2 -0.072999999999999926
v 1 -2 0.51000000000000001
v 1 -1.8999999999999999 0.496
v 1 -1.8 0.4820000000000001
v 1 -1.7 0.46800000000000003
v 1 -1.6000000000000001 0.45400000000000007
v 1 -1.2999999999999998 0.41200000000000003
v 1 -1.2 0.39800000000000002
v 1 -1.1000000000000001 0.38400000000000001
v 1 -0.79999999999999982 0.34199999999999997
v 1 -0.69999999999999996 0.32800000000000001
v 1 -0.59999999999999987 0.314
v 1 -0.5 0.30000000000000004
v 1 -0.29999999999999982 0.27200000000000002
v 1 -0.19999999999999996 0.25800000000000001
v 1 -0.099999999999999867 0.24399999999999999
v 1 1.9000000000000004 -0.03600000000000006
v 1 2 -0.050000000000000017
v 1.1000000000000001 -2 0.53300000000000014
v 1.1000000000000001 -1.8999999999999999 0.51900000000000013
v 1.1000000000000001 -1.8 0.50500000000000012
v 1.1000000000000001 -1.7 0.4910000000000001
v 1.1000000000000001 -1.6000000000000001 0.47700000000000009
v 1.1000000000000001 -1.1000000000000001 0.40700000000000008
v 1.1000000000000001 -0.79999999999999982 0.36500000000000005
v 1.1000000000000001 -0.69999999999999996 0.35100000000000009
v 1.1000000000000001 -0.59999999999999987 0.33700000000000008
v 1.1000000000000001 -0.5 0.32300000000000006
v 1.1000000000000001 0 0.25300000000000006
v 1.1000000000000001 1.9000000000000004 -0.013000000000000012
v 1.1000000000000001 2 -0.026999999999999968
v 1.2000000000000002 -2 0.55600000000000005
v 1.2000000000000002 -1.8999999999999999 0.54200000000000004
v 1.2000000000000002 -1.8 0.52800000000000014
v 1.3000000000000003 -2 0.57900000000000018
v 1.3000000000000003 -1.8999999999999999 0.56500000000000017
v 1.3000000000000003 -1.8 0.55100000000000016
v 1.4000000000000004 -2 0.60200000000000009
v 1.4000000000000004 -1.8999999999999999 0.58800000000000008
v 1.4000000000000004 -1.8 0.57400000000000018
v 1.4000000000000004 -1.7 0.56000000000000016
v 1.4000000000000004 -1.6000000000000001 0.54600000000000015
v 1.4000000000000004 -1.2999999999999998 0.50400000000000011
v 1.4000000000000004 -1.2 0.4900000000000001
v 1.4000000000000004 -1.1000000000000001 0.47600000000000015
v 1.4000000000000004 -0.79999999999999982 0.43400000000000011
v 1.4000000000000004 -0.69999999999999996 0.42000000000000015
v 1.4000000000000004 -0.59999999999999987 0.40600000000000014
v 1.4000000000000004 -0.5 0.39200000000000013
v 1.4000000000000004 -0.29999999999999982 0.3640000000000001
v 1.4000000000000004 -0.19999999999999996 0.35000000000000009
v 1.4000000000000004 -0.099999999999999867 0.33600000000000008
v 1.4000000000000004 0 0.32200000000000012
v 1.4000000000000004 1.5 0.1120000000000001
v 1.4000000000000004 1.9000000000000004 0.05600000000000005
v 1.4000000000000004 2 0.042000000000000093
v 1.5 -2 0.625
v 1.5 -1.8999999999999999 0.61099999999999999
v 1.5 -1.8 0.59700000000000009
v 1.5 -1.7 0.58300000000000007
v 1.5 -1.6000000000000001 0.56900000000000006
v 1.5 -1.2999999999999998 0.52700000000000002
v 1.5 -1.2 0.51300000000000001
v 1.5 -1.1000000000000001 0.49900000000000005
v 1.5 -1 0.48500000000000004
v 1.5 -0.79999999999999982 0.45700000000000002
v 1.5 -0.69999999999999996 0.44300000000000006
v 1.5 -0.59999999999999987 0.42900000000000005
v 1.5 -0.5 0.41500000000000004
v 1.5 -0.29999999999999982 0.38700000000000001
v 1.5 -0.19999999999999996 0.373
v 1.5 -0.099999999999999867 0.35899999999999999
v 1.5 0 0.34500000000000003
v 1.5 0.40000000000000036 0.28899999999999998
v 1.5 1.5 0.13500000000000001
v 1.5 1.9000000000000004 0.078999999999999959
v 1.5 2 0.065000000000000002
v 1.6000000000000001 -2 0.64800000000000013
v 1.6000000000000001 -1.8999999999999999 0.63400000000000012
v 1.6000000000000001 -1.8 0.62000000000000011
v 1.6000000000000001 -1.2 0.53600000000000003
v 1.6000000000000001 -1.1000000000000001 0.52200000000000002
v 1.6000000000000001 -1 0.50800000000000001
v 1.6000000000000001 -0.89999999999999991 0.49400000000000005
v 1.6000000000000001 -0.79999999999999982 0.48000000000000004
v 1.7000000000000002 -2 0.67100000000000004
v 1.7000000000000002 -1.8999999999999999 0.65700000000000003
v 1.7000000000000002 -1.8 0.64300000000000013
v 1.7000000000000002 -1.2 0.55900000000000005
v 1.7000000000000002 -1.1000000000000001 0.54500000000000015
v 1.7000000000000002 -0.89999999999999991 0.51700000000000013
v 1.7000000000000002 -0.79999999999999982 0.50300000000000011
v 1.7000000000000002 -0.69999999999999996 0.4890000000000001
v 1.8000000000000003 -2 0.69400000000000017
v 1.8000000000000003 -1.8999999999999999 0.68000000000000016
v 1.8000000000000003 -1.8 0.66600000000000015
v 1.8000000000000003 -1.2 0.58200000000000007
v 1.8000000000000003 -1.1000000000000001 0.56800000000000006
v 1.8000000000000003 -0.79999999999999982 0.52600000000000002
v 1.8000000000000003 -0.69999999999999996 0.51200000000000012
v 1.9000000000000004 -2 0.71700000000000008
v 1.9000000000000004 -1.8999999999999999 0.70300000000000007
v 1.9000000000000004 -1.8 0.68900000000000017
v 1.9000000000000004 -1.7 0.67500000000000016
v 1.9000000000000004 -1.6000000000000001 0.66100000000000014
v 1.9000000000000004 -1.2999999999999998 0.61900000000000011
v 1.9000000000000004 -1.2 0.60500000000000009
v 1.9000000000000004 -1.1000000000000001 0.59100000000000019
v 1.9000000000000004 -0.79999999999999982 0.54900000000000015
v 1.9000000000000004 -0.69999999999999996 0.53500000000000014
v 1.9000000000000004 -0.59999999999999987 0.52100000000000013
v 1.9000000000000004 -0.5 0.50700000000000012
v 1.9000000000000004 -0.29999999999999982 0.47900000000000009
v 1.9000000000000004 -0.19999999999999996 0.46500000000000008
v 1.9000000000000004 -0.099999999999999867 0.45100000000000007
v 1.9000000000000004 0 0.43700000000000011
v 1.9000000000000004 0.40000000000000036 0.38100000000000006
v 1.9000000000000004 0.5 0.3670000000000001
v 1.9000000000000004 0.90000000000000036 0.31100000000000005
v 1.9000000000000004 1 0.2970000000000001
v 1.9000000000000004 1.4000000000000004 0.24100000000000005
v 1.9000000000000004 1.5 0.22700000000000009
v 1.9000000000000004 1.9000000000000004 0.17100000000000004
v 1.9000000000000004 2 0.15700000000000008
v 2 -2 0.73999999999999999
v 2 -1.8999999999999999 0.72599999999999998
v 2 -1.8 0.71200000000000008
v 2 -1.7 0.69800000000000006
v 2 -1.6000000000000001 0.68400000000000005
v 2 -1.2999999999999998 0.64200000000000002
v 2 -1.2 0.628
v 2 -1.1000000000000001 0.6140000000000001
v 2 -0.79999999999999982 0.57200000000000006
v 2 -0.69999999999999996 0.55800000000000005
v 2 -0.59999999999999987 0.54400000000000004
v 2 -0.5 0.53000000000000003
v 2 -0.29999999999999982 0.502
v 2 -0.19999999999999996 0.48799999999999999
v 2 -0.099999999999999867 0.47399999999999998
v 2 0 0.46000000000000002
v 2 0.40000000000000036 0.40399999999999997
v 2 0.5 0.39000000000000001
v 2 0.90000000000000036 0.33399999999999996
v 2 1 0.32000000000000001
v 2 1.4000000000000004 0.26399999999999996
v 2 1.5 0.25
v 2 1.9000000000000004 0.19399999999999995
v 2 2 0.17999999999999999
v -2 -2 -0.90000000000000002
v -2 2 -0.90000000000000002
v 2 -2 -0.90000000000000002
v 2 2 -0.90000000000000002
v -0.97999999999999998 -1.4090410229681589 -0.13948159818050965
v -0.97999999999999998 -1.02 -0.25
v -0.86113969362638287 -1.5333975533947326 -0.029514369134360674
v -0.97999999999999998 -1.2222172313953772 -0.22183438476009898
v -0.78767998437426168 -1.3410775377689941 -0.14837467550797778
v -0.66525920090974511 -1.4549610866964302 -0.019261310574334223
v -0.78547948851592053 -1.1402202876061753 -0.21378182205841367
v -1.1723200156257383 -1.3410775377689941 -0.14837467550797778
v -1.1745205114840795 -1.1402202876061753 -0.21378182205841367
v -1.1745205114840795 -0.8997797123938247 -0.21378182205841367
v -1.0400038571480446 -1.4755750954465237 -0.090043851390778862
v -0.91999614285195541 -1.4755750954465237 -0.090043851390778862
v -0.97999999999999998 -1.5401512025609523 -0.036348483872040038
v -0.97999999999999998 -1.3184829579768498 -0.18713213171240828
v -0.97999999999999998 -1.1220846591744489 -0.24292477264807777
v -0.88291171967837045 -1.3784868151248943 -0.15004770853882332
v -0.69612583781306459 -1.2975285399338752 -0.13449449122056867
v -0.82236307941964393 -1.4427262277604245 -0.096560429651868174
v -0.88257502519947217 -1.2850893071800684 -0.19398540445239609
v -0.70490645449946343 -1.5432590180780452 0.044889293294416155
v -0.63336191035845368 -1.3559529698072645 -0.070872210835354554
v -0.76095660149245115 -1.4990848014728457 -0.029709286590096418
v -0.72384676905614587 -1.4019299988377854 -0.089754256788851738
v -0.88152738293596244 -1.0808594243067282 -0.24088937204040195
v -0.88173356714735218 -1.1828866003302365 -0.22513052207780493
v -0.78457876451229147 -1.2429315705289918 -0.18802068964149965
v -0.56245188329332907 -1.3998978265105315 0.011532434069678577
v -1.0770882803216295 -1.3784868151248943 -0.15004770853882332
v -1.2638741621869354 -1.2975285399338752 -0.13449449122056867
v -1.137636920580356 -1.4427262277604245 -0.096560429651868174
v -1.0774249748005278 -1.2850893071800684 -0.19398540445239609
v -1.2361532309438541 -1.4019299988377854 -0.089754256788851738
v -1.0784726170640375 -1.0808594243067282 -0.24088937204040195
v -1.2657786653348182 -1.196620928436499 -0.1693448278993922
v -1.0782664328526479 -1.1828866003302365 -0.22513052207780493
v -1.1754212354877085 -1.2429315705289918 -0.18802068964149965
v -1.0784726170640375 -0.95914057569327194 -0.24088937204040195
v -1.0782664328526479 -0.85711339966976363 -0.22513052207780493
v -1.1771394788395799 -1.02 -0.22325733496604072
v -1.1754212354877085 -0.7970684294710082 -0.18802068964149965
v -1.2757092182593699 -1.0809194492236505 -0.18560704476990131
v -1.2757092182593699 -0.95908055077634946 -0.18560704476990131
v 1.02 1.3690410229681589 -0.11948159818050963
v 1.6494815981805098 0.97999999999999998 0.12095897703184116
v 1.02 0.97999999999999998 -0.22999999999999998
v 1.6186725758374612 0.60999999999999988 0.28132742416253886
v 1.3900000000000001 0.75132742416253884 -0.088672575837461132
v 1.3900000000000001 1.208672575837461 -0.088672575837461132
v 0.90113969362638291 1.4933975533947326 -0.0095143691343606562
v 1.1388603063736171 1.4933975533947326 -0.0095143691343606562
v 1.02 1.1822172313953772 -0.20183438476009896
v 1.6583746755079778 1.1723200156257383 0.18892246223100584
v 1.6583746755079778 0.78767998437426168 0.18892246223100584
v 1.4549610866964302 0.47073868942566577 0.19525920090974519
v 1.5395143691343607 0.86113969362638287 -0.0033975533947323555
v 1.2145205114840796 0.85977971239382467 -0.19378182205841366
v 1.5292613105743342 0.66525920090974511 0.075038913303569876
v 1.2123200156257383 1.301077537768994 -0.12837467550797776
v 1.5395143691343607 1.0988603063736171 -0.0033975533947323555
v 1.3347407990902549 1.4149610866964302 0.00073868942566579499
v 1.2145205114840796 1.1002202876061753 -0.19378182205841366
v 1.5292613105743342 1.2947407990902549 0.075038913303569876
v 1.4090410229681589 0.97999999999999998 -0.11948159818050952
v 0.82767998437426171 1.301077537768994 -0.12837467550797776
v 0.82547948851592057 1.1002202876061753 -0.19378182205841366
v 0.95999614285195545 1.4355750954465236 -0.070043851390778844
v 1.0800038571480446 1.4355750954465236 -0.070043851390778844
v 1.02 1.5001512025609522 -0.016348483872040021
v 1.02 1.2784829579768497 -0.16713213171240826
v 1.02 1.0820846591744488 -0.22292477264807775
v 1.6600477085388232 1.0770882803216295 0.15151318487510579
v 1.6600477085388232 0.88291171967837045 0.15151318487510579
v 1.6444944912205686 0.69612583781306459 0.23247146006612485
v 1.5432590180780452 0.53488929329441626 0.23490645449946351
v 1.3038741621869354 0.70247146006612482 -0.11449449122056865
v 1.6000438513907786 0.91999614285195541 0.054424904553476372
v 1.4690506104611425 0.8045561192405738 -0.05140270212081044
v 1.6065604296518683 0.82236307941964393 0.087273772239575609
v 1.3666380896415462 0.64404703019273535 -0.050872210835354537
v 1.1184726170640376 0.9191405756932719 -0.22088937204040193
v 1.3057786653348182 0.80337907156350097 -0.14934482789939219
v 1.1182664328526479 0.8171133996697636 -0.20513052207780491
v 1.2154212354877085 0.75706842947100816 -0.16802068964149963
v 1.5808722108353546 0.63336191035845368 0.17404703019273537
v 1.465110706705584 0.70490645449946343 -0.013259018078045082
v 1.5997542567888519 0.72384676905614587 0.12807000116221479
v 1.4984675659303215 0.56245188329332907 0.13010217348946856
v 1.5397092865900963 0.76095660149245115 0.030915198527154297
v 1.437548116706671 0.60010217348946848 0.031532434069678594
v 1.1170882803216295 1.3384868151248943 -0.1300477085388233
v 1.3038741621869354 1.2575285399338751 -0.11449449122056865
v 1.1776369205803561 1.4027262277604244 -0.076560429651868156
v 1.1174249748005278 1.2450893071800684 -0.17398540445239608
v 1.6000438513907786 1.0400038571480446 0.054424904553476372
v 1.4690506104611425 1.1554438807594263 -0.05140270212081044
v 1.6065604296518683 1.137636920580356 0.087273772239575609
v 1.5463484838720403 0.97999999999999998 -0.010151202560952144
v 1.2950935455005366 1.5032590180780452 0.064889293294416173
v 1.3666380896415462 1.3159529698072645 -0.050872210835354537
v 1.2390433985075489 1.4590848014728457 -0.0097092865900963998
v 1.3998978265105315 1.4584675659303215 0.092451883293329096
v 1.2761532309438541 1.3619299988377853 -0.069754256788851721
v 1.1184726170640376 1.0408594243067282 -0.22088937204040193
v 1.3057786653348182 1.156620928436499 -0.14934482789939219
v 1.1182664328526479 1.1428866003302365 -0.20513052207780491
v 1.21713947883958 0.97999999999999998 -0.2032573349660407
v 1.2154212354877085 1.2029315705289918 -0.16802068964149963
v 1.5808722108353546 1.3266380896415462 0.17404703019273537
v 1.465110706705584 1.2550935455005365 -0.013259018078045082
v 1.5997542567888519 1.2361532309438541 0.12807000116221479
v 1.4984675659303215 1.397548116706671 0.13010217348946856
v 1.5397092865900963 1.1990433985075488 0.030915198527154297
v 1.437548116706671 1.3598978265105315 0.031532434069678594
v 1.4042512823988558 0.86423849587022916 -0.11173163514208273
v 1.4042512823988558 1.0957615041297708 -0.11173163514208273
v 1.4789772911339507 0.91995502980124466 -0.067351234325493725
v 1.3157092182593699 0.91908055077634943 -0.16560704476990129
v 1.4789772911339507 1.0400449701987553 -0.067351234325493725
v 1.3157092182593699 1.0409194492236504 -0.16560704476990129
v 1.6971321317124084 0.97999999999999998 0.21151704202315036
v 1.7039854044523961 0.88257502519947217 0.24491069281993161
v 0.92291171967837049 1.3384868151248943 -0.1300477085388233
v 0.73612583781306462 1.2575285399338751 -0.11449449122056865
v 0.86236307941964396 1.4027262277604244 -0.076560429651868156
v 0.92257502519947221 1.2450893071800684 -0.17398540445239608
v 0.67336191035845372 1.3159529698072645 -0.050872210835354537
v 0.7638467690561459 1.3619299988377853 -0.069754256788851721
v 0.92152738293596248 1.0408594243067282 -0.22088937204040193
v 0.92173356714735222 1.1428866003302365 -0.20513052207780491
v 0.82457876451229151 1.2029315705289918 -0.16802068964149963
v 1.1000000000000001 1.5413752057300938 0.037207471197786911
v -0.69796183628928199 -1.5475510281708287 0.056125921597381175
v -0.60753473390562673 -1.5016441076804021 0.070497186276962137
v -0.2629230647867371 0.30000000000000027 -0.10247230490094959
v -0.29999999999999982 0.25849706316500204 -0.10518958884310024
v -0.19999999999999996 0.37043440802988237 -0.097860817124183527
v -1.2999999999999998 -1.2872834045693671 -0.11878032336028858
v -1.3056602015428591 -1.2738248838610553 -0.12196636261430988
v -1.3187297906917386 -1.2293465236496322 -0.13119933854815138
v -1.2867396616822229 -1.3188131189262993 -0.11131628553722936
v -1.2395058599868045 -1.4002264660583257 -0.089054642548799481
v -0.19999999999999996 -1.1359274880632386 0.11302984832885342
v -0.19905872173767047 -1.1350744043746628 0.11312691061278862
v -0.16152434152656311 -1.1000000000000001 0.11684940144889051
v 1.2842401307325393 1.5208910198960581 0.082450487283035917
v -1.3312665240716939 -1.156147205886658 -0.14433069171235746
v -1.2374614851527395 -1.4031141774287017 -0.088180156745111787
v -0.099999999999999867 -1.0425079188346646 0.1229511086368531
v 1.2027934622458176 1.5385894451490807 0.061239973995666767
v -0.17358737425315332 0.40000000000000036 -0.095925096078225316
v -1.3336037174573536 -1.1167787137962077 -0.15037983508372224
v -1.332528239384547 -1.1000000000000001 -0.15248149505844583
v -0.099999999999999881 0.48237175289476308 -0.090532045405266798
v 1.4000000000000004 0.37200193097460521 0.26991972966355543
v -1.329072609947858 -1.0460881455698543 -0.15923435990822776
v 0 -0.94906184572145136 0.1328686584010032
v -1.168628683144699 -1.4711703202066859 -0.062820752294344778
v -1.2344800071899076 -1.4063105554964008 -0.087046923884182628
v 1.3878667342182955 1.481028064758565 0.11186541980400891
v 1.4000000000000004 1.474554922560787 0.11556231084148991
v -0.084251683719569911 0.5 -0.089377887255501082
v 1.3414455936671934 1.5 0.098532486543454464
v -0 0.59430909775964325 -0.083203273686350068
v -1.3175297050756936 -0.98637758024089872 -0.1649389709336837
v -1.3043144623273151 -0.94136275324109164 -0.16820154088152967
v -1.2999999999999998 -0.93167872067487301 -0.16856497910551776
v 0.68516491759033971 1.3525891072177167 -0.031774543964702223
v 0.65881557900694931 1.3249677237603692 -0.033967898154853342
v 1.3103699525497221 1.5127003568604203 0.089607039125977284
v 0.85838202485125559 1.4787530335442394 -0.0095975589804047131
v 0.80810341767756622 1.4525254875311553 -0.01748978218852152
v 1.4293665004810054 0.40000000000000036 0.27275429511063126
v 1.5 0.46734209261049636 0.27957210703453056
v 0.15951643633099216 -0.79999999999999982 0.14868878035612818
v 1.5000000000000002 1.4085121900682154 0.14780829339044987
v 1.4891295388508594 1.4172330073933217 0.14408717290063267
v 0.10838872186558585 0.7156365551489603 -0.075259711691769704
v 1.4146696542932173 1.466728607705357 0.12003201540869002
v -1.2946518272968934 -1.2999999999999998 -0.11576992027828555
v 0.72873695426927743 1.3937099776211777 -0.027509897385031051
v 0.25023125904410642 -0.71523056044298106 0.15768546804216182
v 0.26653002895017702 -0.69999999999999996 0.15930190665854072
v 1.5314360146389101 0.5 0.28223028336694933
v 1.5074875492283752 0.47448073414739622 0.28029483354189083
v 0.79506191869001364 1.4436523215431645 -0.019247083717339918
v 1.5623292144864536 0.5329195113938402 0.28472698773674665
v 0.27309107841476526 0.90000000000000036 -0.063189051964604045
v 0.73709029689838423 1.4000000000000001 -0.026469231713371649
v 0.37354362156936216 -0.59999999999999987 0.16991503296095328
v -1.0912343300138794 -1.5259055503402332 -0.03735711885555959
v -1.1000000000000001 -1.520285423289768 -0.040160040739432488
v -1.1061557333510057 -1.5163386623945696 -0.042128405935491602
v 1.5791453450412281 1.3311590829845787 0.17684115774164147
v 1.5822914350140334 1.3275152184216252 0.17807489947420013
v 1.5878229811489442 1.3197810948737638 0.18042993238193022
v -1.069928877518864 -1.5350414387785398 -0.031177840400343174
v 0.40000000000000036 -0.5752775532685972 0.17253885745760369
v 1.5099257272997435 1.4000000000000004 0.15128291727894094
v -1.2251545573972251 -0.79999999999999982 -0.16978554820136185
v -1.2556091940504319 -0.83816694074351228 -0.17144674292750764
v -1.2669999582446334 -0.85760842991759867 -0.17134481020780185
v -1.2611596602221153 -0.84623377371736086 -0.17159399353065602
v 0.36242676894834869 1 -0.056641843141879825
v 1.5070690349993754 1.4028410633286466 0.1502281291838459
v 0.40000000000000036 1.0420584772191659 -0.053888186810683136
v -1.2071757043649469 -0.77746819881211648 -0.16880486417024149
v 0.48055721418854708 -0.5 0.18052815926336585
v 1.0946687537540603 1.5414498581144334 0.035970833227413158
v 1.1938622670696153 1.5400608710111516 0.058979799484450313
v 0.5 -0.48183148015538418 0.18245640722175377
v 0.89630879126592811 1.4974960605818812 -0.0034984264902999168
v 0.40446147979868058 1.0470525392474914 -0.053561215140952273
v 0.5 1.1514408921479735 -0.046201724900716293
v 1.6145827604836187 0.60132536904062084 0.28716848324554534
v 1.6198881156852281 0.60924875505940013 0.28727944089928648
v 1.6254433141745097 0.61939870533951613 0.28713614351260502
v 0.90923302367231573 1.5021979493643496 -0.001184117466376337
v 0.90319144980348109 1.5 -0.0022659665451993309
v 0.90000000000000036 1.4988389374657651 -0.0028374512452070686
v 0.53648068031092311 -0.44774171695984133 0.18607439684589008
v 1.6626691327955214 0.69513262898383188 0.2850953324852335
v 0.60000000000000009 -0.38769026309973126 0.19227663683396243
v -1.1400303726298406 -0.69999999999999996 -0.16420698570486339
v -1.0999999999999999 -0.6538153914013618 -0.16146584520380938
v 1.6917890797898394 0.77428092633793799 0.28071215866435179
v 1.6951724477370389 0.78480156179869875 0.2800174443277012
v -1.0018026101112083 -1.560920802192411 -0.01188568801864032
v -1 -1.5613202947479048 -0.011415158735293321
v 0.60000000000000009 1.2607039963707669 -0.038498559491907343
v 0.69275422154518518 -0.29999999999999982 0.20133347095539258
v 1.6992942026787972 0.80550172890340499 0.27806742456964662
v 1.1962919717237415 1.5398014672598139 0.059574948080086607
v 1.6985573541006296 1.0887182619646047 0.23824763476810012
v -1.0533556689905399 -0.59999999999999976 -0.15827180386782422
v -1 -0.53844147513606588 -0.15461819348095079
v 0.79852904564360783 -0.19999999999999993 0.2116616804980298
v 1 1.5277174765316062 0.016119553285575117
v 0.99244655111790214 1.5263991654804399 0.014566823589855926
v 1.0599143280911236 1.538174384637907 0.028435881611651437
v 1.6709511471268794 1.1733037816973209 0.22005623440155736
v -0.9449775119142193 -1.5735143206430968 0.0029471771497631468
v -0.90280736919350191 -1.5787054849931066 0.013373072984529498
v 1.6517609919896019 1.2159440870078451 0.20967285597651017
v -0.96668096535123949 -0.5 -0.15233662203078507
v 1.6302585995689005 1.2550536412694122 0.1992519681231294
v 0.82709470662399909 -0.17299389412946603 0.21445092770164506
v 0.90000000000000036 -0.10406889803761389 0.22156964572526605
v -0.80968804317454934 -1.5770488101234328 0.03455858348713424
v -0.80165571636589039 -1.5759266077048912 0.036248910314530022
v -0.79999999999999982 -1.575528190500133 0.036573946670018669
v 1.7116781926726252 0.88236718656906399 0.27015457819503486
v 1.7125497209125391 0.90000000000000036 0.26788643580988397
v 1.7134932000266494 0.97999999999999998 0.25690343600612936
v 1.7132988573031327 0.91515657394069916 0.26593681682802262
v 1.7112320418181186 1 0.25358336961816735
v -0.79999999999999982 -0.3076936426054741 -0.14092289003523359
v 0.9043038697420307 -0.099999999999999867 0.22198989004066708
v -0.70000000000000007 -1.5483272001708848 0.055765808023923877
v -0.71048371461596405 -1.5523196006334667 0.053913489727013597
v 1.7034074428823793 1.0692087701446094 0.24209448404270192
v 1.7019642950019123 1.0774094870427136 0.24061445966445996
v -0.77094174548136274 -1.5685358645323664 0.042278419573817894
v 0.97877628561218732 -0.02959343917144152 0.22926162717480492
v 1 -0.0093587155689610398 0.23131022017965452
v -0.793331558072638 -0.29999999999999982 -0.14046625835670679
v -0.70665685443333748 -0.19999999999999996 -0.13453107651966764
v -0.69999999999999984 -0.19231972634017852 -0.134075238312375
v 1.0098161314270711 0 0.23225771022822636
v 1.1000000000000001 0.085981446066930506 0.24096259755062979
v -0.60073858107570277 -1.4980426255281727 0.07155609392653256
v -0.59999999999999987 -1.4975103502323746 0.071651449032532469
v -0.61998215079403685 -0.099999999999999867 -0.12859589468262847
v -0.59999999999999987 -0.077314971429639487 -0.12717590399985043
v -0.61074214127232285 -0.089339439151512282 -0.12796317101142254
v -0.52012461645513874 -1.4260575160674196 0.08001939046475684
v -0.5 -1.407818507770096 0.082094591087813459
v -0.59963648353523813 -1.4972483738019271 0.071698381119165017
v -0.53093013638748854 -0 -0.12211393136912237
v -0.5 0.034622373435240855 -0.11984713228093373
v -0.44159444585390467 0.1000000000000001 -0.1155667225463981
v -0.39999999999999991 0.14655971830012146 -0.11251836056201699
v -0.38103486328491981 -1.2999999999999998 0.094361981444468418
v -0.29999999999999982 -1.2265578279655243 0.10271809591517346
v -0.35225875532032092 0.20000000000000018 -0.10901951372367384
f 17 43 18
f 44 45 19
f 19 45 20
f 47 48 21
f 21 48 22
f 49 50 23
f 23 50 24
f 51 52 25
f 25 52 26
f 58 59 32
f 32 59 33
f 59 60 33
f 33 60 34
f 61 62 35
f 35 62 36
f 63 64 37
f 37 64 38
f 65 66 39
f 39 66 40
f 66 67 40
f 40 67 41
f 71 72 46
f 73 74 47
f 47 74 48
f 77 78 51
f 51 78 52
f 71 96 72
f 96 97 72
f 98 99 73
f 73 99 74
f 100 101 75
f 75 101 76
f 102 103 77
f 77 103 78
f 111 112 86
f 86 112 87
f 113 114 88
f 88 114 89
f 115 116 90
f 90 116 91
f 116 117 91
f 91 117 92
f 96 121 97
f 125 126 100
f 100 126 101
f 111 129 112
f 112 130 113
f 122 131 123
f 132 133 124
f 134 135 125
f 125 135 126
f 136 137 127
f 127 137 128
f 138 139 130
f 132 140 133
f 140 141 133
f 142 143 134
f 134 143 135
f 144 145 136
f 136 145 137
f 140 164 141
f 165 166 142
f 142 166 143
f 167 168 144
f 144 168 145
f 156 169 157
f 157 170 158
f 171 172 166
f 173 174 167
f 167 174 168
f 183 184 169
f 184 185 170
f 192 193 171
f 171 193 172
f 189 209 190
f 210 211 191
f 191 211 192
f 194 212 195
f 225 226 215
f 241 242 225
f 225 242 226
f 243 244 227
f 245 246 228
f 228 246 229
f 247 248 230
f 230 248 231
f 249 250 232
f 232 250 233
f 269 270 253
f 253 270 254
f 274 275 257
f 257 275 258
f 259 276 260
f 277 278 261
f 261 278 262
f 279 280 263
f 263 280 264
f 281 282 265
f 265 282 266
f 269 283 270
f 283 284 270
f 270 284 271
f 287 288 273
f 293 294 284
f 295 296 286
f 308 309 291
f 291 309 292
f 309 310 292
f 292 310 293
f 295 311 296
f 312 313 298
f 298 313 299
f 336 347 337
f 347 348 337
f 337 348 338
f 356 357 349
f 349 357 350
f 357 358 350
f 369 370 353
f 353 370 354
f 370 371 354
f 354 371 355
f 375 376 359
f 359 376 360
f 377 378 361
f 381 382 364
f 368 385 369
f 385 386 369
f 369 386 370
f 370 387 371
f 388 389 372
f 372 389 373
f 377 390 378
f 381 393 382
f 396 398 397
f 409 410 398
f 410 428 411
f 428 429 411
f 411 429 412
f 434 435 417
f 417 435 418
f 418 436 419
f 436 437 419
f 419 437 420
f 422 438 423
f 441 442 426
f 426 442 427
f 447 448 434
f 434 448 435
f 450 451 447
f 447 451 448
f 453 454 450
f 450 454 451
f 493 494 472
f 472 494 473
f 477 496 478
f 497 498 479
f 501 502 493
f 493 502 494
f 503 504 495
f 495 504 496
f 497 505 498
f 506 507 499
f 509 510 501
f 501 510 502
f 503 512 504
f 513 514 506
f 506 514 507
f 516 517 509
f 509 517 510
f 521 522 511
f 511 522 512
f 523 524 513
f 513 524 514
f 297 701 700
f 326 714 710
f 702 716 312
f 719 727 327
f 488 739 738
f 361 763 755
f 378 776 773
f 790 800 180
f 801 810 201
f 822 831 221
f 413 785 784
f 443 835 834
f 833 838 239
f 839 844 256
f 845 846 272
f 296 849 848
f 847 850 287
f 569 588 584
f 647 649 641
f 597 602 574
f 595 602 600
f 574 602 595
f 578 579 569
f 569 584 578
f 623 655 653
f 646 648 622
f 622 649 647
f 647 683 622
f 641 645 613
f 613 647 641
f 572 593 587
f 572 588 586
f 600 602 575
f 603 604 576
f 689 696 630
f 574 596 594
f 594 597 574
f 639 652 650
f 623 653 650
f 650 652 623
f 614 681 661
f 681 684 661
f 629 684 681
f 682 684 629
f 670 681 614
f 646 669 611
f 640 653 620
f 650 653 640
f 680 683 647
f 613 680 647
f 629 683 680
f 680 682 629
f 645 655 651
f 645 651 613
f 651 655 623
f 588 589 584
f 572 589 588
f 587 589 572
f 583 589 587
f 595 598 574
f 574 598 596
f 575 607 600
f 581 590 568
f 601 602 597
f 575 602 601
f 578 584 582
f 576 605 603
f 576 608 605
f 605 608 607
f 605 607 575
f 695 696 631
f 689 693 692
f 630 693 689
f 690 693 630
f 688 690 630
f 577 579 578
f 594 596 577
f 626 668 665
f 665 679 626
f 670 685 681
f 681 685 629
f 629 685 683
f 627 685 670
f 670 673 627
f 627 671 669
f 627 673 671
f 671 673 659
f 639 650 612
f 612 650 640
f 661 684 625
f 625 678 661
f 662 678 625
f 638 686 610
f 610 642 638
f 642 644 638
f 623 654 651
f 652 654 623
f 644 654 652
f 581 601 570
f 570 601 597
f 571 585 582
f 571 589 583
f 584 589 571
f 582 584 571
f 575 601 599
f 599 605 575
f 599 601 581
f 603 605 599
f 568 603 599
f 568 599 581
f 691 696 695
f 630 696 691
f 630 691 688
f 578 582 567
f 567 594 577
f 577 578 567
f 657 670 614
f 614 665 657
f 665 668 657
f 657 673 670
f 675 679 665
f 661 678 675
f 661 675 614
f 614 675 665
f 669 672 627
f 672 685 627
f 646 672 669
f 683 685 672
f 622 672 646
f 622 683 672
f 636 695 694
f 669 671 636
f 636 694 611
f 611 669 636
f 666 668 626
f 664 666 626
f 610 686 637
f 676 678 662
f 625 684 663
f 663 684 682
f 644 652 619
f 638 644 619
f 619 652 639
f 638 687 686
f 619 687 638
f 643 682 680
f 651 654 643
f 643 680 613
f 613 651 643
f 581 591 590
f 570 591 581
f 585 591 570
f 583 592 571
f 571 592 585
f 591 592 573
f 585 592 591
f 617 671 659
f 691 695 617
f 617 695 636
f 636 671 617
f 580 585 570
f 582 585 580
f 567 582 580
f 570 597 580
f 580 597 594
f 580 594 567
f 667 679 677
f 626 679 667
f 626 667 664
f 632 634 615
f 615 690 632
f 632 690 688
f 632 688 609
f 616 634 633
f 609 656 633
f 609 633 632
f 633 634 632
f 618 662 637
f 618 676 662
f 677 679 628
f 628 678 676
f 628 679 675
f 675 678 628
f 674 677 628
f 628 676 674
f 610 660 642
f 660 663 642
f 625 663 660
f 660 662 625
f 637 660 610
f 637 662 660
f 621 682 643
f 663 682 621
f 642 663 621
f 643 654 621
f 621 644 642
f 621 654 644
f 635 691 617
f 688 691 635
f 609 688 635
f 617 659 635
f 635 659 656
f 635 656 609
f 659 673 624
f 656 659 624
f 624 673 657
f 657 668 624
f 658 668 666
f 656 658 633
f 624 668 658
f 624 658 656
f 658 666 616
f 633 658 616
f 653 655 593
f 587 645 641
f 587 641 583
f 593 655 587
f 587 655 645
f 603 694 604
f 694 695 604
f 611 694 568
f 568 694 603
f 590 611 568
f 590 646 611
f 604 695 631
f 604 631 576
f 631 696 606
f 576 631 606
f 573 622 591
f 622 648 591
f 591 646 590
f 591 648 646
f 592 622 573
f 592 649 622
f 698 699 586
f 707 713 598
f 713 724 598
f 733 734 692
f 608 731 730
f 615 777 736
f 674 760 759
f 780 781 612
f 781 782 612
f 674 761 760
f 2 1 27
f 2 27 28
f 208 207 213
f 208 213 214
f 421 420 437
f 457 421 437
f 456 457 437
f 225 215 214
f 208 214 215
f 649 592 583
f 649 583 641
f 457 458 422
f 457 422 421
f 595 707 598
f 706 707 595
f 229 230 210
f 229 210 209
f 458 459 438
f 458 438 422
f 724 596 598
f 723 596 724
f 230 231 211
f 230 211 210
f 424 423 438
f 424 438 439
f 564 566 565
f 564 565 563
f 712 600 607
f 712 607 717
f 217 216 234
f 217 234 235
f 425 424 439
f 425 439 440
f 2 28 29
f 3 2 29
f 690 736 737
f 615 736 690
f 217 235 236
f 218 217 236
f 730 607 608
f 721 607 730
f 426 425 440
f 426 440 441
f 4 3 29
f 4 29 30
f 219 218 236
f 219 236 237
f 717 607 718
f 721 718 607
f 5 4 30
f 5 30 31
f 428 427 442
f 464 428 442
f 463 464 442
f 219 237 238
f 220 219 238
f 692 693 733
f 746 733 693
f 6 5 31
f 6 31 32
f 464 465 429
f 464 429 428
f 693 690 751
f 737 751 690
f 833 239 223
f 833 223 222
f 832 833 222
f 7 6 32
f 7 32 33
f 465 466 430
f 465 430 429
f 746 693 754
f 751 754 693
f 224 223 239
f 224 239 240
f 8 7 33
f 8 33 34
f 466 467 443
f 466 443 430
f 577 596 758
f 757 577 758
f 756 577 757
f 241 224 240
f 225 224 241
f 35 8 34
f 9 8 35
f 756 762 577
f 579 577 762
f 431 803 805
f 444 774 697
f 444 805 774
f 431 805 444
f 10 9 35
f 10 35 36
f 227 226 242
f 227 242 243
f 616 697 774
f 775 697 616
f 228 227 244
f 228 244 245
f 432 431 444
f 432 444 445
f 11 10 36
f 11 36 37
f 230 229 246
f 230 246 247
f 783 784 615
f 785 777 615
f 784 785 615
f 433 446 447
f 434 433 447
f 12 11 37
f 12 37 38
f 232 231 248
f 232 248 249
f 455 456 437
f 455 437 436
f 13 12 38
f 13 38 39
f 677 764 770
f 759 764 677
f 759 677 674
f 235 234 251
f 235 251 252
f 711 715 664
f 13 39 40
f 14 13 40
f 460 439 438
f 459 460 438
f 735 711 664
f 236 235 252
f 236 252 253
f 15 14 40
f 15 40 41
f 616 666 775
f 798 775 666
f 460 461 440
f 460 440 439
f 236 253 254
f 237 236 254
f 715 798 666
f 664 715 666
f 462 441 440
f 461 462 440
f 16 15 41
f 16 41 42
f 238 237 254
f 238 254 255
f 634 803 804
f 805 803 634
f 17 16 42
f 43 17 42
f 462 463 442
f 462 442 441
f 615 634 783
f 804 783 634
f 19 18 43
f 19 43 44
f 467 720 835
f 467 835 443
f 634 616 805
f 774 805 616
f 698 238 255
f 698 255 699
f 824 238 698
f 836 699 255
f 837 836 255
f 20 45 46
f 21 20 46
f 21 46 47
f 640 749 752
f 750 749 640
f 839 256 240
f 840 240 239
f 838 840 239
f 839 240 840
f 23 22 48
f 23 48 49
f 780 612 640
f 780 640 752
f 444 775 798
f 444 798 715
f 469 715 711
f 444 697 775
f 444 715 469
f 735 469 711
f 468 469 735
f 468 735 728
f 25 24 50
f 25 50 51
f 782 639 612
f 787 639 782
f 241 240 256
f 241 256 257
f 787 791 639
f 469 470 445
f 469 445 444
f 27 53 54
f 28 27 54
f 242 241 257
f 242 257 258
f 639 791 619
f 619 791 792
f 243 242 258
f 259 243 258
f 797 817 687
f 29 28 54
f 29 54 55
f 447 446 449
f 447 449 450
f 244 243 259
f 260 244 259
f 686 687 820
f 819 686 820
f 449 452 453
f 450 449 453
f 818 820 687
f 817 818 687
f 30 29 55
f 30 55 56
f 453 452 471
f 453 471 472
f 808 814 569
f 245 244 260
f 245 260 261
f 31 30 56
f 31 56 57
f 454 453 472
f 454 472 473
f 687 619 797
f 792 797 619
f 246 245 261
f 246 261 262
f 588 569 814
f 815 588 814
f 455 454 473
f 455 473 474
f 32 31 57
f 32 57 58
f 569 807 808
f 579 807 569
f 263 246 262
f 247 246 263
f 456 455 474
f 456 474 475
f 35 34 60
f 35 60 61
f 677 741 742
f 770 741 677
f 248 247 263
f 248 263 264
f 723 758 596
f 457 456 475
f 457 475 476
f 37 36 62
f 37 62 63
f 265 248 264
f 249 248 265
f 458 457 476
f 458 476 477
f 664 667 728
f 735 664 728
f 725 728 667
f 39 38 64
f 39 64 65
f 249 265 266
f 250 249 266
f 459 458 477
f 459 477 478
f 793 794 579
f 794 807 579
f 42 41 67
f 42 67 68
f 252 251 267
f 252 267 268
f 744 726 667
f 725 667 726
f 459 478 479
f 460 459 479
f 460 479 480
f 43 42 68
f 69 43 68
f 44 43 69
f 252 268 269
f 253 252 269
f 762 793 579
f 460 480 481
f 461 460 481
f 595 600 704
f 705 704 600
f 45 44 69
f 45 69 70
f 255 254 270
f 255 270 271
f 744 667 677
f 744 677 742
f 462 461 481
f 462 481 482
f 46 45 70
f 46 70 71
f 712 705 600
f 463 462 482
f 463 482 483
f 47 46 72
f 47 72 73
f 843 255 271
f 843 271 841
f 837 255 843
f 842 841 271
f 588 816 828
f 815 816 588
f 586 588 828
f 464 463 483
f 464 483 484
f 49 48 74
f 49 74 75
f 273 256 272
f 257 256 273
f 257 273 274
f 686 826 637
f 637 826 827
f 465 464 484
f 465 484 485
f 828 825 586
f 259 258 275
f 276 259 275
f 50 49 75
f 50 75 76
f 799 806 618
f 465 485 486
f 466 465 486
f 261 260 276
f 261 276 277
f 51 50 76
f 51 76 77
f 467 466 486
f 467 486 487
f 704 703 595
f 706 595 745
f 703 745 595
f 263 262 278
f 263 278 279
f 54 53 79
f 54 79 80
f 618 637 799
f 827 799 637
f 720 467 487
f 720 487 488
f 720 488 738
f 265 264 280
f 265 280 281
f 55 54 80
f 55 80 81
f 606 765 766
f 772 765 606
f 469 468 489
f 469 489 490
f 289 290 268
f 289 268 267
f 56 55 81
f 56 81 82
f 576 606 766
f 768 576 766
f 290 291 269
f 290 269 268
f 470 469 490
f 470 490 491
f 57 56 82
f 57 82 83
f 821 826 686
f 819 821 686
f 291 292 283
f 291 283 269
f 472 471 492
f 472 492 493
f 58 57 83
f 58 83 84
f 768 767 576
f 608 576 767
f 271 284 285
f 294 285 284
f 806 809 618
f 59 58 84
f 85 59 84
f 60 59 85
f 474 473 494
f 502 474 494
f 518 474 502
f 518 502 510
f 517 518 510
f 296 848 286
f 842 271 285
f 842 285 286
f 848 842 286
f 767 732 608
f 731 608 732
f 61 60 85
f 61 85 86
f 518 519 475
f 518 475 474
f 698 586 824
f 825 824 586
f 847 287 273
f 846 847 273
f 846 273 272
f 62 61 86
f 62 86 87
f 519 520 476
f 519 476 475
f 761 674 676
f 811 761 676
f 62 87 88
f 63 62 88
f 274 273 288
f 274 288 298
f 297 298 288
f 593 572 843
f 837 843 572
f 836 837 572
f 64 63 88
f 64 88 89
f 298 299 275
f 298 275 274
f 618 809 676
f 809 811 676
f 503 495 476
f 496 477 495
f 520 511 503
f 477 476 495
f 520 521 511
f 512 503 511
f 520 503 476
f 65 64 89
f 65 89 90
f 299 300 276
f 277 276 300
f 299 276 275
f 572 586 699
f 836 572 699
f 479 478 496
f 479 496 497
f 843 841 593
f 66 65 90
f 66 90 91
f 300 301 278
f 300 278 277
f 480 479 498
f 480 498 499
f 301 302 279
f 301 279 278
f 67 66 91
f 67 91 92
f 481 480 499
f 481 499 507
f 302 303 280
f 302 280 279
f 67 92 93
f 68 67 93
f 507 482 481
f 525 482 507
f 525 507 514
f 524 525 514
f 841 842 593
f 653 593 709
f 708 709 593
f 849 708 593
f 848 849 593
f 842 848 593
f 303 304 281
f 303 281 280
f 69 68 93
f 69 93 94
f 525 526 483
f 525 483 482
f 304 305 282
f 304 282 281
f 69 94 95
f 70 69 95
f 526 527 484
f 526 484 483
f 284 283 292
f 284 292 293
f 71 70 95
f 96 71 95
f 527 528 485
f 527 485 484
f 73 72 97
f 73 97 98
f 286 285 294
f 286 294 295
f 528 529 486
f 528 486 485
f 75 74 99
f 75 99 100
f 701 297 288
f 850 701 288
f 850 288 287
f 530 487 486
f 529 530 486
f 77 76 101
f 77 101 102
f 289 306 307
f 290 289 307
f 530 531 488
f 530 488 487
f 80 79 104
f 80 104 105
f 291 290 307
f 291 307 308
f 749 750 488
f 531 532 749
f 739 488 750
f 531 749 488
f 81 80 105
f 81 105 106
f 311 295 294
f 294 293 310
f 311 294 310
f 536 537 490
f 536 490 489
f 82 81 106
f 82 106 107
f 849 296 311
f 849 311 708
f 83 82 107
f 83 107 108
f 537 538 491
f 537 491 490
f 702 312 298
f 700 702 298
f 700 298 297
f 84 83 108
f 84 108 109
f 493 492 500
f 493 500 501
f 300 299 313
f 300 313 314
f 689 692 743
f 729 689 743
f 727 689 729
f 719 689 727
f 716 689 719
f 702 689 716
f 700 689 702
f 701 689 700
f 850 689 701
f 850 847 689
f 847 846 689
f 846 845 689
f 845 844 689
f 844 839 689
f 839 840 689
f 85 84 109
f 85 109 110
f 497 496 504
f 505 497 504
f 86 85 110
f 86 110 111
f 753 743 692
f 769 753 692
f 771 769 692
f 778 771 692
f 88 87 112
f 88 112 113
f 301 300 314
f 301 314 315
f 498 505 506
f 499 498 506
f 90 89 114
f 90 114 115
f 302 301 315
f 302 315 316
f 93 92 117
f 93 117 118
f 303 302 316
f 303 316 317
f 119 93 118
f 94 93 119
f 304 303 317
f 304 317 318
f 95 94 119
f 95 119 120
f 305 304 318
f 305 318 319
f 96 95 120
f 121 96 120
f 307 306 320
f 307 320 321
f 98 97 121
f 98 121 122
f 307 321 322
f 308 307 322
f 99 98 122
f 99 122 123
f 532 781 780
f 532 752 749
f 532 782 781
f 532 787 782
f 532 791 787
f 532 533 791
f 533 797 792
f 533 792 791
f 533 817 797
f 533 818 817
f 532 780 752
f 309 308 322
f 309 322 323
f 99 123 124
f 100 99 124
f 100 124 125
f 832 831 606
f 606 831 822
f 772 606 789
f 810 606 822
f 801 606 810
f 800 606 801
f 790 606 800
f 789 606 790
f 833 832 606
f 833 606 696
f 838 833 696
f 840 838 696
f 689 840 696
f 489 770 764
f 741 770 489
f 536 489 764
f 535 536 764
f 310 309 323
f 310 323 324
f 102 101 126
f 102 126 127
f 325 310 324
f 311 310 325
f 501 500 508
f 501 508 509
f 103 102 127
f 103 127 128
f 779 778 692
f 795 779 692
f 734 795 692
f 146 147 105
f 146 105 104
f 505 504 512
f 513 505 512
f 506 505 513
f 708 311 325
f 709 325 326
f 709 326 710
f 708 325 709
f 147 148 106
f 147 106 105
f 719 327 313
f 716 719 313
f 716 313 312
f 148 149 107
f 148 107 106
f 314 313 327
f 314 327 328
f 149 150 108
f 149 108 107
f 315 314 328
f 315 328 329
f 150 151 109
f 150 109 108
f 830 834 640
f 738 739 640
f 640 739 750
f 720 738 640
f 835 720 640
f 834 835 640
f 829 830 640
f 799 827 534
f 534 827 826
f 534 826 821
f 806 799 534
f 535 809 806
f 535 806 534
f 811 809 535
f 764 759 535
f 761 811 535
f 760 761 535
f 759 760 535
f 316 315 329
f 316 329 330
f 316 330 331
f 317 316 331
f 509 508 515
f 509 515 516
f 712 110 109
f 717 110 712
f 718 110 717
f 705 712 109
f 704 705 109
f 151 704 109
f 703 704 151
f 318 317 331
f 318 331 332
f 513 512 522
f 513 522 523
f 709 710 653
f 710 714 653
f 722 653 714
f 740 653 722
f 747 653 740
f 318 332 333
f 319 318 333
f 819 820 533
f 818 533 820
f 819 533 534
f 821 819 534
f 321 320 334
f 321 334 335
f 732 152 111
f 730 731 111
f 730 111 110
f 732 111 731
f 721 730 110
f 718 721 110
f 322 321 335
f 322 335 336
f 152 153 129
f 152 129 111
f 516 515 539
f 516 539 540
f 112 129 130
f 138 130 129
f 773 776 653
f 653 776 786
f 620 653 786
f 763 773 653
f 755 763 653
f 748 755 653
f 747 748 653
f 322 336 337
f 323 322 337
f 517 516 540
f 517 540 541
f 114 113 130
f 114 130 139
f 324 323 337
f 324 337 338
f 518 517 541
f 518 541 542
f 812 813 640
f 813 823 640
f 640 823 829
f 139 156 115
f 139 115 114
f 155 156 139
f 339 324 338
f 325 324 339
f 519 518 542
f 519 542 543
f 156 157 116
f 156 116 115
f 326 325 339
f 326 339 340
f 520 519 543
f 520 543 544
f 158 117 116
f 157 158 116
f 520 544 545
f 521 520 545
f 786 788 620
f 640 620 812
f 802 812 620
f 796 802 620
f 788 796 620
f 159 118 117
f 158 159 117
f 714 326 340
f 714 340 722
f 522 521 545
f 522 545 546
f 159 160 119
f 159 119 118
f 523 522 546
f 523 546 547
f 328 327 729
f 328 729 341
f 727 729 327
f 161 120 119
f 160 161 119
f 524 523 547
f 524 547 548
f 329 328 341
f 329 341 342
f 161 162 121
f 162 122 121
f 161 121 120
f 524 548 549
f 525 524 549
f 330 329 342
f 330 342 343
f 162 163 131
f 162 131 122
f 526 525 549
f 526 549 550
f 331 330 343
f 331 343 344
f 124 123 131
f 124 131 132
f 527 526 550
f 527 550 551
f 345 331 344
f 332 331 345
f 125 124 133
f 125 133 134
f 528 527 551
f 528 551 552
f 333 332 345
f 333 345 346
f 528 552 553
f 529 528 553
f 143 144 136
f 127 126 135
f 166 167 144
f 127 135 136
f 143 136 135
f 166 144 143
f 351 352 335
f 351 335 334
f 153 154 138
f 153 138 129
f 530 529 553
f 530 553 554
f 352 353 336
f 352 336 335
f 163 140 132
f 163 164 140
f 163 132 131
f 555 530 554
f 531 530 555
f 353 354 347
f 353 347 336
f 134 133 141
f 134 141 142
f 532 531 555
f 532 555 556
f 355 356 349
f 339 338 348
f 349 339 348
f 355 349 348
f 138 154 155
f 139 138 155
f 533 532 556
f 533 556 557
f 350 340 339
f 358 340 350
f 349 350 339
f 141 164 165
f 142 141 165
f 534 533 557
f 534 557 558
f 358 740 722
f 358 359 740
f 358 722 340
f 175 176 147
f 175 147 146
f 535 534 558
f 535 558 559
f 148 147 177
f 176 177 147
f 536 535 559
f 536 559 560
f 177 178 149
f 177 149 148
f 743 753 341
f 729 743 341
f 537 536 560
f 537 560 561
f 178 179 150
f 178 150 149
f 538 537 561
f 538 561 562
f 753 342 341
f 769 342 753
f 771 362 343
f 771 343 342
f 769 771 342
f 363 344 343
f 362 363 343
f 723 724 150
f 713 150 724
f 707 150 713
f 706 150 707
f 151 150 706
f 745 151 706
f 179 723 150
f 758 723 179
f 757 758 179
f 364 365 345
f 364 345 344
f 363 364 344
f 772 153 152
f 765 772 152
f 789 153 772
f 366 346 345
f 365 366 345
f 789 790 180
f 789 180 154
f 789 154 153
f 354 355 348
f 354 348 347
f 180 181 155
f 180 155 154
f 359 360 748
f 359 748 747
f 359 747 740
f 181 182 156
f 181 156 155
f 182 183 169
f 182 169 156
f 755 360 361
f 748 360 755
f 157 169 170
f 184 170 169
f 159 158 170
f 159 170 185
f 352 351 367
f 352 367 368
f 160 159 186
f 160 186 187
f 185 186 159
f 353 352 368
f 353 368 369
f 27 1 563
f 53 27 563
f 79 53 563
f 104 79 563
f 146 104 563
f 175 146 563
f 196 175 563
f 216 196 563
f 234 216 563
f 251 234 563
f 267 251 563
f 565 289 267
f 565 306 289
f 565 320 306
f 565 334 320
f 565 351 334
f 565 367 351
f 565 399 367
f 565 416 399
f 565 433 416
f 565 446 433
f 565 449 446
f 565 452 449
f 565 471 452
f 565 492 471
f 565 500 492
f 565 508 500
f 565 515 508
f 565 267 563
f 539 515 565
f 187 188 161
f 187 161 160
f 372 355 371
f 356 355 372
f 188 189 162
f 188 162 161
f 357 356 372
f 357 372 373
f 189 190 163
f 189 163 162
f 357 373 374
f 358 357 374
f 190 191 164
f 165 164 191
f 190 164 163
f 359 358 374
f 359 374 375
f 191 192 171
f 166 165 171
f 191 171 165
f 361 360 376
f 361 376 377
f 167 166 172
f 167 172 173
f 194 172 193
f 173 172 194
f 778 779 362
f 362 779 379
f 771 778 362
f 174 173 194
f 174 194 195
f 363 362 379
f 363 379 380
f 540 539 565
f 541 540 565
f 542 541 565
f 543 542 565
f 544 543 565
f 545 544 565
f 546 545 565
f 547 546 565
f 548 547 565
f 549 548 565
f 550 549 565
f 551 550 565
f 552 551 565
f 553 552 565
f 554 553 565
f 555 554 565
f 566 556 555
f 566 557 556
f 566 558 557
f 566 559 558
f 566 560 559
f 566 561 560
f 566 555 565
f 562 561 566
f 175 196 197
f 176 175 197
f 364 363 380
f 364 380 381
f 177 176 197
f 177 197 198
f 365 364 382
f 365 382 383
f 366 365 383
f 366 383 384
f 178 177 198
f 178 198 199
f 400 368 367
f 399 400 367
f 179 178 199
f 179 199 200
f 400 401 385
f 400 385 368
f 801 201 181
f 800 801 181
f 800 181 180
f 402 403 387
f 370 386 387
f 402 387 386
f 182 181 201
f 182 201 202
f 372 371 387
f 372 387 388
f 183 182 202
f 183 202 203
f 374 373 389
f 404 405 389
f 405 374 389
f 404 389 388
f 184 183 203
f 184 203 204
f 405 406 375
f 405 375 374
f 185 184 204
f 185 204 205
f 407 376 375
f 406 407 375
f 186 185 205
f 186 205 206
f 538 562 566
f 491 538 566
f 470 491 566
f 445 470 566
f 432 445 566
f 415 432 566
f 395 415 566
f 384 395 566
f 366 384 566
f 346 366 566
f 333 346 566
f 319 333 566
f 305 319 566
f 282 305 566
f 266 282 566
f 250 266 566
f 233 250 566
f 212 233 566
f 564 195 212
f 564 174 195
f 564 168 174
f 564 145 168
f 564 137 145
f 564 128 137
f 564 103 128
f 564 78 103
f 564 52 78
f 564 212 566
f 26 52 564
f 213 207 206
f 186 206 207
f 407 408 396
f 377 376 396
f 407 396 376
f 396 397 390
f 396 390 377
f 187 186 208
f 208 186 207
f 187 208 215
f 215 188 187
f 226 188 215
f 786 378 390
f 776 378 786
f 788 786 390
f 227 228 189
f 227 189 188
f 226 227 188
f 779 795 379
f 379 795 391
f 228 229 209
f 228 209 189
f 380 379 391
f 380 391 392
f 191 190 209
f 191 209 210
f 381 380 392
f 393 381 392
f 232 194 193
f 193 192 211
f 232 193 211
f 231 232 211
f 383 382 393
f 383 393 394
f 232 233 212
f 232 212 194
f 384 383 394
f 384 394 395
f 216 217 197
f 216 197 196
f 401 402 386
f 401 386 385
f 25 26 564
f 24 25 564
f 23 24 564
f 22 23 564
f 21 22 564
f 563 20 21
f 563 19 20
f 563 18 19
f 563 17 18
f 563 16 17
f 563 15 16
f 563 14 15
f 563 13 14
f 563 12 13
f 563 11 12
f 563 10 11
f 563 9 10
f 563 8 9
f 563 7 8
f 563 6 7
f 563 21 564
f 563 3 4
f 563 2 3
f 563 4 5
f 563 5 6
f 1 2 563
f 217 218 198
f 217 198 197
f 404 388 387
f 403 404 387
f 218 219 199
f 218 199 198
f 788 390 397
f 788 397 796
f 411 796 397
f 219 220 200
f 219 200 199
f 728 725 468
f 726 468 725
f 822 221 202
f 810 822 202
f 810 202 201
f 795 734 391
f 733 391 734
f 746 391 733
f 754 391 746
f 203 202 222
f 221 222 202
f 744 742 489
f 741 489 742
f 468 744 489
f 726 744 468
f 222 223 204
f 222 204 203
f 703 151 745
f 223 224 205
f 223 205 204
f 754 392 391
f 751 392 754
f 737 392 751
f 736 392 737
f 413 392 736
f 413 736 777
f 785 413 777
f 224 213 206
f 225 214 213
f 224 225 213
f 224 206 205
f 767 152 732
f 768 152 767
f 766 152 768
f 765 152 766
f 413 414 393
f 414 394 393
f 413 393 392
f 361 378 773
f 763 361 773
f 414 415 395
f 414 395 394
f 408 409 398
f 408 398 396
f 410 397 398
f 411 397 410
f 793 200 794
f 762 179 200
f 762 200 793
f 756 179 762
f 757 179 756
f 411 412 802
f 411 802 796
f 400 399 416
f 400 416 417
f 812 802 412
f 813 812 412
f 401 400 417
f 401 417 418
f 401 418 419
f 402 401 419
f 808 807 200
f 220 808 200
f 794 200 807
f 814 808 220
f 815 814 220
f 816 815 220
f 403 402 419
f 403 419 420
f 404 403 420
f 404 420 421
f 828 220 238
f 828 238 825
f 816 220 828
f 824 825 238
f 404 421 422
f 405 404 422
f 405 422 423
f 424 405 423
f 406 405 424
f 829 430 830
f 823 430 829
f 407 406 424
f 407 424 425
f 222 221 831
f 832 222 831
f 408 407 425
f 408 425 426
f 430 443 834
f 830 430 834
f 408 426 427
f 409 408 427
f 272 256 845
f 844 845 256
f 428 410 427
f 410 409 427
f 823 412 429
f 823 429 430
f 813 412 823
f 414 413 783
f 804 431 414
f 784 783 413
f 804 414 783
f 803 431 804
f 415 414 431
f 415 431 432
f 417 416 433
f 417 433 434
f 418 435 436
f 448 436 435
f 451 436 448
f 455 436 451
f 454 455 451
