v -2 -2 -0.099999999999999978
v -2 -1.8999999999999999 -0.11399999999999999
v -2 -1.8 -0.12799999999999995
v -2 -1.7 -0.14199999999999999
v -2 -1.6000000000000001 -0.15599999999999997
v -2 -1.2999999999999998 -0.19800000000000001
v -2 -1.1000000000000001 -0.22599999999999998
v -2 -0.79999999999999982 -0.26800000000000002
v -2 -0.69999999999999996 -0.28200000000000003
v -2 -0.59999999999999987 -0.29600000000000004
v -2 -0.5 -0.31
v -2 -0.29999999999999982 -0.33800000000000002
v -2 -0.19999999999999996 -0.35199999999999998
v -2 -0.099999999999999867 -0.36600000000000005
v -2 0 -0.38
v -2 0.40000000000000036 -0.43600000000000005
v -2 0.5 -0.45000000000000001
v -2 0.80000000000000027 -0.49200000000000005
v -2 0.90000000000000036 -0.50600000000000001
v -2 1 -0.52000000000000002
v -2 1.4000000000000004 -0.57600000000000007
v -2 1.5 -0.59000000000000008
v -2 1.9000000000000004 -0.64600000000000013
v -2 2 -0.66000000000000003
v -1.8999999999999999 -2 -0.080999999999999961
v -1.8999999999999999 -1.8999999999999999 -0.094999999999999973
v -1.8999999999999999 -1.8 -0.10899999999999993
v -1.8999999999999999 -1.7 -0.12299999999999997
v -1.8999999999999999 -1.6000000000000001 -0.13699999999999996
v -1.8999999999999999 -1.2999999999999998 -0.17899999999999999
v -1.8999999999999999 -1.1000000000000001 -0.20699999999999996
v -1.8999999999999999 -0.79999999999999982 -0.249
v -1.8999999999999999 -0.69999999999999996 -0.26300000000000001
v -1.8999999999999999 -0.59999999999999987 -0.27700000000000002
v -1.8999999999999999 -0.5 -0.29099999999999998
v -1.8999999999999999 -0.29999999999999982 -0.31900000000000001
v -1.8999999999999999 -0.19999999999999996 -0.33299999999999996
v -1.8999999999999999 -0.099999999999999867 -0.34700000000000003
v -1.8999999999999999 0 -0.36099999999999999
v -1.8999999999999999 0.40000000000000036 -0.41700000000000004
v -1.8999999999999999 0.5 -0.43099999999999999
v -1.8999999999999999 0.90000000000000036 -0.48700000000000004
v -1.8999999999999999 1 -0.501
v -1.8999999999999999 1.1000000000000001 -0.51500000000000001
v -1.8999999999999999 1.4000000000000004 -0.55700000000000005
v -1.8999999999999999 1.5 -0.57099999999999995
v -1.8999999999999999 1.9000000000000004 -0.627
v -1.8999999999999999 2 -0.64100000000000001
v -1.8 -2 -0.062
v -1.8 -1.8999999999999999 -0.076000000000000012
v -1.8 -1.8 -0.089999999999999969
v -1.8 -1.7 -0.10400000000000001
v -1.8 -1.6000000000000001 -0.11799999999999999
v -1.8 -1.2999999999999998 -0.16000000000000003
v -1.8 -1.1000000000000001 -0.188
v -1.8 -0.79999999999999982 -0.23000000000000004
v -1.8 -0.69999999999999996 -0.24400000000000002
v -1.8 -0.59999999999999987 -0.25800000000000001
v -1.8 -0.5 -0.27200000000000002
v -1.8 -0.29999999999999982 -0.30000000000000004
v -1.8 -0.19999999999999996 -0.31400000000000006
v -1.8 -0.099999999999999867 -0.32800000000000007
v -1.8 0 -0.34200000000000003
v -1.8 0.40000000000000036 -0.39800000000000008
v -1.8 0.5 -0.41200000000000003
v -1.8 0.90000000000000036 -0.46800000000000008
v -1.8 1 -0.48200000000000004
v -1.8 1.1000000000000001 -0.49600000000000005
v -1.8 1.2000000000000002 -0.51000000000000001
v -1.8 1.4000000000000004 -0.53800000000000003
v -1.8 1.5 -0.55200000000000005
v -1.8 1.9000000000000004 -0.6080000000000001
v -1.8 2 -0.62200000000000011
v -1.7 -2 -0.042999999999999983
v -1.7 -1.8999999999999999 -0.056999999999999995
v -1.7 -1.8 -0.070999999999999952
v -1.7 -1.7 -0.084999999999999992
v -1.7 -1.6000000000000001 -0.098999999999999977
v -1.7 -1.2999999999999998 -0.14100000000000001
v -1.7 -1.1000000000000001 -0.16899999999999998
v -1.7 -0.79999999999999982 -0.21100000000000002
v -1.7 -0.69999999999999996 -0.22500000000000001
v -1.7 -0.59999999999999987 -0.23900000000000002
v -1.7 -0.5 -0.253
v -1.7 -0.29999999999999982 -0.28100000000000003
v -1.7 -0.19999999999999996 -0.29500000000000004
v -1.7 -0.099999999999999867 -0.30900000000000005
v -1.7 0 -0.32300000000000001
v -1.7 0.40000000000000036 -0.37900000000000006
v -1.7 0.5 -0.39300000000000002
v -1.7 0.90000000000000036 -0.44900000000000007
v -1.7 1 -0.46300000000000002
v -1.7 1.2000000000000002 -0.49100000000000005
v -1.7 1.3000000000000003 -0.50500000000000012
v -1.7 1.4000000000000004 -0.51900000000000013
v -1.7 1.5 -0.53300000000000003
v -1.7 1.9000000000000004 -0.58900000000000008
v -1.7 2 -0.60299999999999998
v -1.6000000000000001 -2 -0.024000000000000021
v -1.6000000000000001 -1.8999999999999999 -0.038000000000000034
v -1.6000000000000001 -1.8 -0.051999999999999991
v -1.6000000000000001 -1.7 -0.066000000000000031
v -1.6000000000000001 -1.6000000000000001 -0.080000000000000016
v -1.6000000000000001 -1.2999999999999998 -0.12200000000000005
v -1.6000000000000001 -1.1000000000000001 -0.15000000000000002
v -1.6000000000000001 -0.79999999999999982 -0.19200000000000006
v -1.6000000000000001 -0.69999999999999996 -0.20600000000000004
v -1.6000000000000001 -0.59999999999999987 -0.22000000000000006
v -1.6000000000000001 -0.5 -0.23400000000000004
v -1.6000000000000001 -0.29999999999999982 -0.26200000000000007
v -1.6000000000000001 -0.19999999999999996 -0.27600000000000002
v -1.6000000000000001 -0.099999999999999867 -0.29000000000000009
v -1.6000000000000001 0 -0.30400000000000005
v -1.6000000000000001 0.40000000000000036 -0.3600000000000001
v -1.6000000000000001 0.5 -0.37400000000000005
v -1.6000000000000001 0.90000000000000036 -0.4300000000000001
v -1.6000000000000001 1 -0.44400000000000006
v -1.6000000000000001 1.3000000000000003 -0.4860000000000001
v -1.6000000000000001 1.4000000000000004 -0.50000000000000011
v -1.6000000000000001 1.5 -0.51400000000000001
v -1.6000000000000001 1.9000000000000004 -0.57000000000000006
v -1.6000000000000001 2 -0.58400000000000007
v -1.5 -2 -0.0050000000000000044
v -1.5 -1.8999999999999999 -0.019000000000000017
v -1.5 -1.8 -0.032999999999999974
v -1.5 -1.7 -0.047000000000000014
v -1.5 -1.6000000000000001 -0.060999999999999999
v -1.5 -1.2999999999999998 -0.10300000000000004
v -1.5 -0.79999999999999982 -0.17300000000000004
v -1.5 -0.69999999999999996 -0.18700000000000003
v -1.5 -0.59999999999999987 -0.20100000000000004
v -1.5 -0.5 -0.21500000000000002
v -1.5 -0.29999999999999982 -0.24300000000000005
v -1.5 -0.19999999999999996 -0.25700000000000001
v -1.5 -0.099999999999999867 -0.27100000000000007
v -1.5 0 -0.28500000000000003
v -1.5 0.40000000000000036 -0.34100000000000008
v -1.5 0.5 -0.35500000000000004
v -1.5 0.90000000000000036 -0.41100000000000009
v -1.5 1 -0.42500000000000004
v -1.5 1.4000000000000004 -0.48100000000000009
v -1.5 1.5 -0.49500000000000005
v -1.5 1.6000000000000001 -0.50900000000000012
v -1.5 1.9000000000000004 -0.55100000000000016
v -1.5 2 -0.56500000000000006
v -1.3999999999999999 -2 0.014000000000000068
v -1.3999999999999999 -1.8999999999999999 5.5511151231257827e-17
v -1.3999999999999999 -1.8 -0.013999999999999901
v -1.3999999999999999 -1.7 -0.027999999999999942
v -1.3999999999999999 -1.6000000000000001 -0.041999999999999926
v -1.3999999999999999 -0.59999999999999987 -0.18199999999999997
v -1.3999999999999999 -0.5 -0.19599999999999995
v -1.3999999999999999 -0.29999999999999982 -0.22399999999999998
v -1.3999999999999999 -0.19999999999999996 -0.23799999999999996
v -1.3999999999999999 -0.099999999999999867 -0.252
v -1.3999999999999999 0 -0.26599999999999996
v -1.3999999999999999 0.40000000000000036 -0.32200000000000001
v -1.3999999999999999 0.5 -0.33599999999999997
v -1.3999999999999999 0.90000000000000036 -0.39200000000000002
v -1.3999999999999999 1 -0.40599999999999997
v -1.3999999999999999 1.4000000000000004 -0.46200000000000002
v -1.3999999999999999 1.5 -0.47599999999999998
v -1.3999999999999999 1.6000000000000001 -0.48999999999999999
v -1.3999999999999999 1.9000000000000004 -0.53200000000000003
v -1.3999999999999999 2 -0.54600000000000004
v -1.2999999999999998 -2 0.033000000000000057
v -1.2999999999999998 -1.8999999999999999 0.019000000000000045
v -1.2999999999999998 -1.8 0.0050000000000000877
v -1.2999999999999998 -1.7 -0.0089999999999999525
v -1.2999999999999998 -1.6000000000000001 -0.022999999999999937
v -1.2999999999999998 -0.5 -0.17699999999999996
v -1.2999999999999998 -0.29999999999999982 -0.20499999999999999
v -1.2999999999999998 -0.19999999999999996 -0.21899999999999997
v -1.2999999999999998 -0.099999999999999867 -0.23299999999999998
v -1.2999999999999998 0 -0.24699999999999997
v -1.2999999999999998 0.10000000000000009 -0.26100000000000001
v -1.2999999999999998 0.40000000000000036 -0.30300000000000005
v -1.2999999999999998 0.5 -0.31699999999999995
v -1.2999999999999998 0.90000000000000036 -0.373
v -1.2999999999999998 1 -0.38700000000000001
v -1.2999999999999998 1.4000000000000004 -0.44300000000000006
v -1.2999999999999998 1.5 -0.45699999999999996
v -1.2999999999999998 1.9000000000000004 -0.51300000000000001
v -1.2999999999999998 2 -0.52700000000000002
v -1.2 -2 0.052000000000000046
v -1.2 -1.8999999999999999 0.038000000000000034
v -1.2 -1.8 0.024000000000000077
v -1.2 -1.7 0.010000000000000037
v -1.2 -1.6000000000000001 -0.003999999999999948
v -1.2 -0.29999999999999982 -0.186
v -1.2 -0.19999999999999996 -0.19999999999999998
v -1.2 -0.099999999999999867 -0.214
v -1.2 0 -0.22799999999999998
v -1.2 0.10000000000000009 -0.24199999999999999
v -1.2 0.40000000000000036 -0.28400000000000003
v -1.2 0.5 -0.29799999999999999
v -1.2 1 -0.36799999999999999
v -1.2 1.4000000000000004 -0.42400000000000004
v -1.2 1.5 -0.438
v -1.2 2 -0.50800000000000001
v -1.1000000000000001 -2 0.071000000000000008
v -1.1000000000000001 -1.8999999999999999 0.056999999999999995
v -1.1000000000000001 -1.8 0.043000000000000038
v -1.1000000000000001 -1.7 0.028999999999999998
v -1.1000000000000001 -1.6000000000000001 0.015000000000000013
v -1.1000000000000001 -0.29999999999999982 -0.16700000000000004
v -1.1000000000000001 -0.19999999999999996 -0.18100000000000002
v -1.1000000000000001 -0.099999999999999867 -0.19500000000000003
v -1.1000000000000001 0 -0.20900000000000002
v -1.1000000000000001 0.40000000000000036 -0.26500000000000007
v -1.1000000000000001 0.5 -0.27900000000000003
v -1.1000000000000001 0.90000000000000036 -0.33500000000000008
v -1.1000000000000001 1 -0.34900000000000003
v -1.1000000000000001 1.4000000000000004 -0.40500000000000008
v -1.1000000000000001 1.5 -0.41900000000000004
v -1.1000000000000001 1.9000000000000004 -0.47500000000000009
v -1.1000000000000001 2 -0.48900000000000005
v -0.79999999999999982 -2 0.12800000000000006
v -0.79999999999999982 -1.8999999999999999 0.11400000000000005
v -0.79999999999999982 -1.8 0.10000000000000009
v -0.79999999999999982 -1.7 0.086000000000000049
v -0.79999999999999982 -1.6000000000000001 0.072000000000000064
v -0.79999999999999982 0 -0.15199999999999997
v -0.79999999999999982 0.40000000000000036 -0.20800000000000002
v -0.79999999999999982 0.5 -0.22199999999999998
v -0.79999999999999982 0.80000000000000027 -0.26400000000000001
v -0.79999999999999982 0.90000000000000036 -0.27800000000000002
v -0.79999999999999982 1 -0.29199999999999998
v -0.79999999999999982 1.4000000000000004 -0.34800000000000003
v -0.79999999999999982 1.5 -0.36199999999999999
v -0.79999999999999982 1.9000000000000004 -0.41800000000000004
v -0.79999999999999982 2 -0.432
v -0.69999999999999996 -2 0.14700000000000005
v -0.69999999999999996 -1.8999999999999999 0.13300000000000003
v -0.69999999999999996 -1.8 0.11900000000000008
v -0.69999999999999996 -1.7 0.10500000000000004
v -0.69999999999999996 -1.6000000000000001 0.091000000000000053
v -0.69999999999999996 0.40000000000000036 -0.18900000000000003
v -0.69999999999999996 0.5 -0.20299999999999999
v -0.69999999999999996 0.80000000000000027 -0.24500000000000002
v -0.69999999999999996 0.90000000000000036 -0.25900000000000001
v -0.69999999999999996 1 -0.27300000000000002
v -0.69999999999999996 1.4000000000000004 -0.32900000000000007
v -0.69999999999999996 1.5 -0.34299999999999997
v -0.69999999999999996 1.9000000000000004 -0.39900000000000002
v -0.69999999999999996 2 -0.41300000000000003
v -0.59999999999999987 -2 0.16600000000000004
v -0.59999999999999987 -1.8999999999999999 0.15200000000000002
v -0.59999999999999987 -1.8 0.13800000000000007
v -0.59999999999999987 -1.7 0.12400000000000004
v -0.59999999999999987 -1.6000000000000001 0.11000000000000006
v -0.59999999999999987 0.90000000000000036 -0.24000000000000005
v -0.59999999999999987 1 -0.254
v -0.59999999999999987 1.1000000000000001 -0.26800000000000002
v -0.59999999999999987 1.4000000000000004 -0.31000000000000005
v -0.59999999999999987 1.5 -0.32400000000000001
v -0.59999999999999987 1.9000000000000004 -0.38000000000000006
v -0.59999999999999987 2 -0.39400000000000002
v -0.5 -2 0.18500000000000003
v -0.5 -1.8999999999999999 0.17100000000000001
v -0.5 -1.8 0.15700000000000006
v -0.5 -1.7 0.14300000000000002
v -0.5 -1.6000000000000001 0.12900000000000003
v -0.5 0.90000000000000036 -0.22100000000000006
v -0.5 1 -0.23500000000000001
v -0.5 1.1000000000000001 -0.24900000000000003
v -0.5 1.2000000000000002 -0.26300000000000001
v -0.5 1.4000000000000004 -0.29100000000000004
v -0.5 1.5 -0.30500000000000005
v -0.5 1.9000000000000004 -0.3610000000000001
v -0.5 2 -0.375
v -0.29999999999999982 -2 0.22300000000000006
v -0.29999999999999982 -1.8999999999999999 0.20900000000000005
v -0.29999999999999982 -1.8 0.19500000000000009
v -0.29999999999999982 -1.7 0.18100000000000005
v -0.29999999999999982 -1.6000000000000001 0.16700000000000007
v -0.29999999999999982 -1.2999999999999998 0.12500000000000003
v -0.29999999999999982 -1.2 0.11100000000000004
v -0.29999999999999982 0.90000000000000036 -0.18300000000000002
v -0.29999999999999982 1 -0.19699999999999998
v -0.29999999999999982 1.3000000000000003 -0.23900000000000002
v -0.29999999999999982 1.4000000000000004 -0.253
v -0.29999999999999982 1.5 -0.26700000000000002
v -0.29999999999999982 1.9000000000000004 -0.32300000000000006
v -0.29999999999999982 2 -0.33699999999999997
v -0.19999999999999996 -2 0.24200000000000005
v -0.19999999999999996 -1.8999999999999999 0.22800000000000004
v -0.19999999999999996 -1.8 0.21400000000000008
v -0.19999999999999996 -1.7 0.20000000000000001
v -0.19999999999999996 -1.6000000000000001 0.18600000000000005
v -0.19999999999999996 -1.2999999999999998 0.14400000000000002
v -0.19999999999999996 -1.2 0.13
v -0.19999999999999996 -1.1000000000000001 0.11600000000000003
v -0.19999999999999996 0.70000000000000018 -0.13600000000000001
v -0.19999999999999996 0.90000000000000036 -0.16400000000000003
v -0.19999999999999996 1 -0.17799999999999999
v -0.19999999999999996 1.4000000000000004 -0.23400000000000004
v -0.19999999999999996 1.5 -0.248
v -0.19999999999999996 1.9000000000000004 -0.30400000000000005
v -0.19999999999999996 2 -0.318
v -0.099999999999999867 -2 0.26100000000000007
v -0.099999999999999867 -1.8999999999999999 0.24700000000000005
v -0.099999999999999867 -1.8 0.2330000000000001
v -0.099999999999999867 -1.7 0.21900000000000003
v -0.099999999999999867 -1.6000000000000001 0.20500000000000007
v -0.099999999999999867 -1.2999999999999998 0.16300000000000003
v -0.099999999999999867 -1.2 0.14900000000000002
v -0.099999999999999867 -1.1000000000000001 0.13500000000000006
v -0.099999999999999867 -1 0.12100000000000004
v -0.099999999999999867 0.70000000000000018 -0.11700000000000001
v -0.099999999999999867 0.80000000000000027 -0.13100000000000001
v -0.099999999999999867 0.90000000000000036 -0.14500000000000002
v -0.099999999999999867 1 -0.15899999999999997
v -0.099999999999999867 1.4000000000000004 -0.21500000000000002
v -0.099999999999999867 1.5 -0.22899999999999998
v -0.099999999999999867 1.9000000000000004 -0.28500000000000003
v -0.099999999999999867 2 -0.29899999999999999
v 0 -2 0.28000000000000003
v 0 -1.8999999999999999 0.26600000000000001
v 0 -1.8 0.25200000000000006
v 0 -1.7 0.23800000000000002
v 0 -1.6000000000000001 0.22400000000000003
v 0 -1.2999999999999998 0.182
v 0 -1.2 0.16800000000000001
v 0 -1.1000000000000001 0.15400000000000003
v 0 -1 0.14000000000000001
v 0 0.80000000000000027 -0.11200000000000004
v 0 0.90000000000000036 -0.12600000000000006
v 0 1 -0.14000000000000001
v 0 1.4000000000000004 -0.19600000000000006
v 0 1.5 -0.21000000000000002
v 0 1.9000000000000004 -0.26600000000000007
v 0 2 -0.28000000000000003
v 0.10000000000000009 -1.7 0.25700000000000001
v 0.10000000000000009 -1.6000000000000001 0.24300000000000005
v 0.40000000000000036 -2 0.35600000000000009
v 0.40000000000000036 -1.8999999999999999 0.34200000000000008
v 0.40000000000000036 -1.8 0.32800000000000012
v 0.40000000000000036 -1.7 0.31400000000000006
v 0.40000000000000036 -1.6000000000000001 0.3000000000000001
v 0.40000000000000036 1.4000000000000004 -0.12
v 0.40000000000000036 1.5 -0.13399999999999995
v 0.40000000000000036 1.9000000000000004 -0.19
v 0.40000000000000036 2 -0.20399999999999996
v 0.5 -2 0.375
v 0.5 -1.8999999999999999 0.36099999999999999
v 0.5 -1.8 0.34700000000000009
v 0.5 -1.7 0.33300000000000002
v 0.5 -1.6000000000000001 0.31900000000000006
v 0.5 1.4000000000000004 -0.10100000000000006
v 0.5 1.5 -0.11500000000000002
v 0.5 1.9000000000000004 -0.17100000000000007
v 0.5 2 -0.18500000000000003
v 0.90000000000000036 -2 0.45100000000000007
v 0.90000000000000036 -1.8999999999999999 0.43700000000000006
v 0.90000000000000036 -1.8 0.42300000000000015
v 0.90000000000000036 1.5 -0.038999999999999951
v 0.90000000000000036 1.9000000000000004 -0.095000000000000001
v 0.90000000000000036 2 -0.10899999999999996
v 1 -2 0.47000000000000003
v 1 -1.8999999999999999 0.45600000000000002
v 1 -1.8 0.44200000000000006
v 1 0 0.19
v 1 1.5 -0.020000000000000018
v 1 1.9000000000000004 -0.076000000000000068
v 1 2 -0.090000000000000024
v 1.1000000000000001 -2 0.48900000000000005
v 1.2000000000000002 -2 0.50800000000000001
v 1.2000000000000002 -1.8999999999999999 0.49400000000000005
v 1.2000000000000002 -0.19999999999999996 0.25600000000000001
v 1.2000000000000002 -0.099999999999999867 0.24200000000000002
v 1.3000000000000003 -2 0.52700000000000014
v 1.3000000000000003 -1.8999999999999999 0.51300000000000012
v 1.3000000000000003 -1.8 0.49900000000000011
v 1.3000000000000003 -0.099999999999999867 0.26100000000000001
v 1.3000000000000003 0 0.24700000000000005
v 1.4000000000000004 -2 0.54600000000000004
v 1.4000000000000004 -1.8999999999999999 0.53200000000000003
v 1.4000000000000004 -1.8 0.51800000000000013
v 1.4000000000000004 -0.29999999999999982 0.30800000000000005
v 1.4000000000000004 -0.19999999999999996 0.29400000000000004
v 1.4000000000000004 -0.099999999999999867 0.28000000000000003
v 1.4000000000000004 0 0.26600000000000007
v 1.4000000000000004 0.40000000000000036 0.21000000000000002
v 1.4000000000000004 0.5 0.19600000000000006
v 1.4000000000000004 1.4000000000000004 0.070000000000000007
v 1.4000000000000004 1.5 0.05600000000000005
v 1.4000000000000004 1.9000000000000004 0
v 1.4000000000000004 2 -0.013999999999999957
v 1.5 -2 0.56500000000000006
v 1.5 -1.8999999999999999 0.55100000000000005
v 1.5 -1.8 0.53700000000000014
v 1.5 -1.7 0.52300000000000002
v 1.5 -0.29999999999999982 0.32700000000000001
v 1.5 -0.19999999999999996 0.31300000000000006
v 1.5 -0.099999999999999867 0.29899999999999999
v 1.5 0 0.28500000000000003
v 1.5 0.40000000000000036 0.22899999999999998
v 1.5 0.5 0.21500000000000002
v 1.5 1.4000000000000004 0.088999999999999968
v 1.5 1.5 0.075000000000000011
v 1.5 1.9000000000000004 0.018999999999999961
v 1.5 2 0.0050000000000000044
v 1.6000000000000001 -1.8999999999999999 0.57000000000000006
v 1.6000000000000001 -1.8 0.55600000000000005
v 1.6000000000000001 -1.7 0.54200000000000004
v 1.6000000000000001 -1.6000000000000001 0.52800000000000002
v 1.7000000000000002 -1.8999999999999999 0.58900000000000008
v 1.7000000000000002 -1.8 0.57500000000000018
v 1.7000000000000002 -1.7 0.56100000000000005
v 1.7000000000000002 -1.6000000000000001 0.54700000000000015
v 1.8000000000000003 -1.8999999999999999 0.6080000000000001
v 1.8000000000000003 -1.8 0.59400000000000008
v 1.8000000000000003 -1.7 0.58000000000000007
v 1.8000000000000003 -1.6000000000000001 0.56600000000000006
v 1.8000000000000003 -1.2999999999999998 0.52400000000000002
v 1.8000000000000003 -1.2 0.51000000000000012
v 1.9000000000000004 -2 0.64100000000000013
v 1.9000000000000004 -1.8999999999999999 0.62700000000000011
v 1.9000000000000004 -1.8 0.61300000000000021
v 1.9000000000000004 -1.7 0.59900000000000009
v 1.9000000000000004 -1.6000000000000001 0.58500000000000019
v 1.9000000000000004 -1.2999999999999998 0.54300000000000015
v 1.9000000000000004 -1.2 0.52900000000000014
v 1.9000000000000004 -1.1000000000000001 0.51500000000000012
v 1.9000000000000004 -0.79999999999999982 0.47300000000000009
v 1.9000000000000004 -0.69999999999999996 0.45900000000000007
v 1.9000000000000004 -0.59999999999999987 0.44500000000000006
v 1.9000000000000004 -0.5 0.43100000000000011
v 1.9000000000000004 -0.29999999999999982 0.40300000000000008
v 1.9000000000000004 -0.19999999999999996 0.38900000000000012
v 1.9000000000000004 -0.099999999999999867 0.37500000000000006
v 1.9000000000000004 0 0.3610000000000001
v 1.9000000000000004 0.40000000000000036 0.30500000000000005
v 1.9000000000000004 0.5 0.29100000000000009
v 1.9000000000000004 0.90000000000000036 0.23500000000000004
v 1.9000000000000004 1 0.22100000000000009
v 1.9000000000000004 1.4000000000000004 0.16500000000000004
v 1.9000000000000004 1.5 0.15100000000000008
v 1.9000000000000004 1.9000000000000004 0.095000000000000029
v 1.9000000000000004 2 0.081000000000000072
v 2 -2 0.66000000000000003
v 2 -1.8999999999999999 0.64600000000000002
v 2 -1.8 0.63200000000000012
v 2 -1.7 0.61799999999999999
v 2 -1.6000000000000001 0.60400000000000009
v 2 -1.2999999999999998 0.56200000000000006
v 2 -1.1000000000000001 0.53400000000000003
v 2 -0.79999999999999982 0.49199999999999999
v 2 -0.69999999999999996 0.47799999999999998
v 2 -0.59999999999999987 0.46399999999999997
v 2 -0.5 0.45000000000000001
v 2 -0.29999999999999982 0.42199999999999999
v 2 -0.19999999999999996 0.40800000000000003
v 2 -0.099999999999999867 0.39399999999999996
v 2 0 0.38
v 2 0.40000000000000036 0.32399999999999995
v 2 0.5 0.31
v 2 0.90000000000000036 0.25399999999999995
v 2 1 0.23999999999999999
v 2 1.4000000000000004 0.18399999999999994
v 2 1.5 0.16999999999999998
v 2 1.9000000000000004 0.11399999999999993
v 2 2 0.099999999999999978
v -2 -2 -0.90000000000000002
v -2 2 -0.90000000000000002
v 2 -2 -0.90000000000000002
v 2 2 -0.90000000000000002
v -1.0600000000000001 -1.3290410229681588 -0.21948159818050966
v -0.83132742416253891 -1.5386725758374611 0.039999999999999925
v -1.0600000000000001 -0.93999999999999995 -0.33000000000000002
v -1.4300000000000002 -1.168672575837461 -0.18867257583746117
v -1.4300000000000002 -0.7113274241625388 -0.18867257583746117
v -1.1788603063736172 -1.4533975533947325 -0.10951436913436069
v -0.94113969362638294 -1.4533975533947325 -0.10951436913436069
v -1.0600000000000001 -1.1422172313953771 -0.30183438476009899
v -0.86767998437426175 -1.261077537768994 -0.2283746755079778
v -0.74525920090974518 -1.3749610866964301 -0.099261310574334238
v -0.8654794885159206 -1.0602202876061753 -0.29378182205841369
v -1.2523200156257384 -1.261077537768994 -0.2283746755079778
v -1.3747407990902549 -1.3749610866964301 -0.099261310574334238
v -1.2545205114840796 -1.0602202876061753 -0.29378182205841369
v -1.2523200156257384 -0.61892246223100578 -0.2283746755079778
v -1.2545205114840796 -0.81977971239382463 -0.29378182205841369
v -1.449041022968159 -0.93999999999999995 -0.21948159818050955
v -1.1200038571480446 -1.3955750954465236 -0.17004385139077888
v -1.2354438807594263 -1.5014027021208105 -0.039050610461142499
v -0.99999614285195548 -1.3955750954465236 -0.17004385139077888
v -0.88455611924057387 -1.5014027021208105 -0.039050610461142499
v -1.0600000000000001 -1.4601512025609522 -0.11634848387204005
v -0.94423849587022923 -1.5617316351420827 0.025748717601144222
v -1.1200449701987554 -1.5173512343254938 -0.048977291133950829
v -0.99995502980124473 -1.5173512343254938 -0.048977291133950829
v -1.0600000000000001 -1.2384829579768497 -0.26713213171240829
v -1.0600000000000001 -1.0420846591744488 -0.32292477264807778
v -1.0600000000000001 -0.83791534082555097 -0.32292477264807778
v -0.72404703019273542 -1.5008722108353545 0.063361910358453732
v -0.96291171967837053 -1.2984868151248943 -0.23004770853882334
v -0.77612583781306466 -1.2175285399338751 -0.21449449122056868
v -0.902363079419644 -1.3627262277604244 -0.17656042965186819
v -0.96257502519947225 -1.2050893071800683 -0.27398540445239611
v -0.7849064544994635 -1.4632590180780451 -0.035110706705583861
v -0.71336191035845375 -1.2759529698072645 -0.15087221083535457
v -0.84095660149245122 -1.4190848014728457 -0.10970928659009643
v -0.68010217348946855 -1.4184675659303214 -0.0075481167066709376
v -0.80384676905614594 -1.3219299988377853 -0.16975425678885175
v -0.96152738293596252 -1.0008594243067281 -0.32088937204040197
v -0.77422133466518184 -1.116620928436499 -0.24934482789939222
v -0.96173356714735225 -1.1028866003302364 -0.30513052207780494
v -0.86457876451229154 -1.1629315705289918 -0.26802068964149967
v -0.58153243406967858 -1.357548116706671 0.030102173489468531
v -0.64245188329332914 -1.3198978265105314 -0.068467565930321439
v -1.1570882803216296 -1.2984868151248943 -0.23004770853882334
v -1.3438741621869355 -1.2175285399338751 -0.21449449122056868
v -1.2176369205803561 -1.3627262277604244 -0.17656042965186819
v -1.1574249748005279 -1.2050893071800683 -0.27398540445239611
v -1.5090506104611425 -1.1154438807594262 -0.15140270212081047
v -1.4066380896415462 -1.2759529698072645 -0.15087221083535457
v -1.2790433985075489 -1.4190848014728457 -0.10970928659009643
v -1.3161532309438542 -1.3219299988377853 -0.16975425678885175
v -1.1584726170640376 -1.0008594243067281 -0.32088937204040197
v -1.3457786653348183 -1.116620928436499 -0.24934482789939222
v -1.158266432852648 -1.1028866003302364 -0.30513052207780494
v -1.2554212354877086 -1.1629315705289918 -0.26802068964149967
v -1.3438741621869355 -0.66247146006612478 -0.21449449122056868
v -1.1584726170640376 -0.87914057569327186 -0.32088937204040197
v -1.3457786653348183 -0.76337907156350093 -0.24934482789939222
v -1.158266432852648 -0.77711339966976356 -0.30513052207780494
v -1.25713947883958 -0.93999999999999995 -0.30325733496604074
v -1.2554212354877086 -0.71706842947100813 -0.26802068964149967
v -1.4442512823988558 -1.0557615041297708 -0.21173163514208276
v -1.4442512823988558 -0.82423849587022913 -0.21173163514208276
v -1.5189772911339507 -1.0000449701987553 -0.16735123432549376
v -1.35570921825937 -1.0009194492236504 -0.26560704476990132
v -1.5189772911339507 -0.87995502980124463 -0.16735123432549376
v -1.35570921825937 -0.87908055077634939 -0.26560704476990132
v 0.93999999999999995 1.449041022968159 -0.039481598180509669
v 0.93999999999999995 1.0600000000000001 -0.15000000000000002
v 1.3100000000000001 0.83132742416253891 -0.0086725758374611717
v 1.3100000000000001 1.2886725758374611 -0.0086725758374611717
v 0.93999999999999995 1.2622172313953772 -0.121834384760099
v 1.4595143691343606 0.94113969362638294 0.076602446605267605
v 1.1345205114840795 0.93977971239382474 -0.1137818220584137
v 1.4492613105743342 0.74525920090974518 0.15503891330356984
v 1.1323200156257383 1.3810775377689941 -0.048374675507977805
v 1.4595143691343606 1.1788603063736172 0.076602446605267605
v 1.1345205114840795 1.1802202876061754 -0.1137818220584137
v 1.3290410229681588 1.0600000000000001 -0.039481598180509558
v 0.93999999999999995 1.3584829579768498 -0.087132131712408301
v 0.93999999999999995 1.1620846591744489 -0.14292477264807779
v 1.2238741621869353 0.78247146006612489 -0.03449449122056869
v 1.5200438513907786 0.99999614285195548 0.13442490455347633
v 1.3890506104611424 0.88455611924057387 0.02859729787918952
v 1.2866380896415461 0.72404703019273542 0.029127789164645423
v 1.0384726170640375 0.99914057569327197 -0.14088937204040197
v 1.2257786653348182 0.88337907156350104 -0.069344827899392225
v 1.3851107067055839 0.7849064544994635 0.066740981921954878
v 1.4597092865900962 0.84095660149245122 0.11091519852715426
v 1.357548116706671 0.68010217348946855 0.11153243406967855
v 1.0370882803216295 1.4184868151248944 -0.050047708538823343
v 1.2238741621869353 1.3375285399338752 -0.03449449122056869
v 1.0374249748005278 1.3250893071800685 -0.093985404452396115
v 1.3890506104611424 1.2354438807594263 0.02859729787918952
v 1.4663484838720402 1.0600000000000001 0.069848797439047816
v 1.2866380896415461 1.3959529698072646 0.029127789164645423
v 1.1961532309438541 1.4419299988377854 0.010245743211148239
v 1.0384726170640375 1.1208594243067282 -0.14088937204040197
v 1.2257786653348182 1.2366209284364991 -0.069344827899392225
v 1.0382664328526479 1.2228866003302366 -0.12513052207780495
v 1.1371394788395799 1.0600000000000001 -0.12325733496604074
v 1.1354212354877085 1.2829315705289919 -0.088020689641499672
v 1.3851107067055839 1.3350935455005366 0.066740981921954878
v 1.3242512823988557 0.94423849587022923 -0.03173163514208277
v 1.3242512823988557 1.1757615041297709 -0.03173163514208277
v 1.3989772911339506 0.99995502980124473 0.012648765674506235
v 1.2357092182593699 0.9990805507763495 -0.08560704476990133
v 1.3989772911339506 1.1200449701987554 0.012648765674506235
v 1.2357092182593699 1.1209194492236505 -0.08560704476990133
v 0.84291171967837042 1.4184868151248944 -0.050047708538823343
v 0.84257502519947214 1.3250893071800685 -0.093985404452396115
v 0.84173356714735215 1.2228866003302366 -0.12513052207780495
v 0.74457876451229144 1.2829315705289919 -0.088020689641499672
v -1.057866051639248 -1.5676289283544511 0.018473500158166057
v -1.0630843873606304 -1.5668037679668005 0.017366493916832343
v -0.48750356823929181 -1.2999999999999998 0.089374322034534548
v -0.5 -1.3128954311399224 0.08880536035958915
v 0.90000000000000024 0.13616504568451809 0.15193689360416754
v -1.5011639242362975 -1.217532791212758 -0.1147665548351104
v -1.5000000000000002 -1.2198153937999163 -0.11422584486801174
v -1.5027640677112484 -1.2136432428427111 -0.11561511886715764
v 1 0.24113783865762931 0.15624070258793188
v 1 1.4751636544890565 -0.016522911628467932
v -1.2867024311827426 -1.4817820645911539 -0.037023972881959556
v -1.2446460692898147 -1.5078459260988097 -0.025384323511231474
v -1.5055474678721625 -1.2040468026048305 -0.1174874665310346
v 0.90000000000000047 1.4537200706850757 -0.032520809895910552
v 0.92698549261262375 1.463471898230819 -0.028758822155916165
v 0.95928142741545408 1.4704208467015063 -0.023595447329274637
v -1.5254820119654346 -1.1255827797702918 -0.13225999310559175
v -0.29999999999999982 -1.106509618183797 0.097911346545731651
v -1.3950554632773475 -1.3885255409171298 -0.070666962294297794
v -1.3473675943631771 -1.4359236284577901 -0.054970534944913024
v -1.529965700339438 -1.1000000000000001 -0.13669348306449322
v 1.0293263701943252 0.27192254852824654 0.15750285354296728
v -0.73231389298151761 -1.5098745522085402 0.072242797642707288
v -0.79999999999999993 -1.5369568688998474 0.06317396164597866
v -0.81967725191267715 -1.5448300587077384 0.060537530355674753
v -1.5302413194659317 -1.0984273877162265 -0.13696601641825532
v -0.29369179684343794 -1.1000000000000001 0.098198558599746813
v 1.1114457036316208 1.4770079231220976 0.0043935744529142512
v 1.0988164525607689 1.4792692732857711 0.0016774277265380938
v -0.19999999999999998 -1.0033167117057349 0.1024643396388029
v -1.5358644561750778 -1.0164518454847997 -0.14951098830539289
v 1.0947028481308179 1.4796133074705051 0.00084767809898465276
v 1.1891848421382718 1.4601734775776236 0.021520833145404362
v -1.5350898385056537 -0.98568456796391446 -0.15367122980112621
v 1.0147819950830881 1.4768854280421455 -0.013955380860113612
v 0.75155254357052492 1.3787927214565272 -0.050235997725514098
v 0.76679862461798809 1.3885877917117717 -0.048710552162230338
v 1.151336510006991 0.40000000000000036 0.16275393690132825
v -0.099999999999999881 -0.90012380522767232 0.10701733273187417
v -1.5203800501202562 -0.87859216684060937 -0.16586930616516338
v -1.5183402486634345 -0.87254933100810816 -0.16632774090491745
v -1.5 -0.82246241574387913 -0.16985526179585694
v -1.5210984270073824 -0.8818455045743846 -0.16555033049098883
v 0.78581110568782431 1.4000000000000001 -0.046695889919313442
v 0.83340793181825612 1.4285699110844019 -0.041652280506347637
v -1.3999999999999999 -1.3823025219066793 -0.072477646933064827
v -1.4288673662914151 -1.3459710758502459 -0.083048848976334383
v -1.4558299320752419 -1.3064384816056605 -0.093706299669503459
v -1.4591129848624167 -1.2999999999999998 -0.095231467123859173
v 1.4386807018691714 0.70993501373141943 0.17395843143274387
v 1.458997049698382 0.73924218322548152 0.1737155337911252
v 1.246599289216471 0.5 0.16685386495112947
v -1.4917749718034958 -0.79999999999999993 -0.17143724464266427
v -0.55756387112874295 -1.3722972628389585 0.086184481282993025
v -0.59999999999999976 -1.4151904433796934 0.084126662073157124
v -0.61705335232020175 -1.4324274661560719 0.083299708321011745
v 1.2777644040863796 1.4234965912716293 0.043485713998383961
v -0.63199421292478997 -1.4453716077173773 0.082273124624722735
v 1.2094463154346422 1.4539623591805433 0.026240069647305957
v -0.67924385013339361 -1.4775172321722641 0.07779608097877222
v -1.4405004798794088 -0.69999999999999996 -0.17569509117708768
v -1.4429306368537258 -0.70333585109075447 -0.17568980184950225
v -1.4591932787812889 -0.73098470606728916 -0.1749088641190244
v -1.4864265765052473 -0.78539362104522159 -0.17246594258966597
v -0.046264041829225062 0.6351386602915855 -0.097709580388374753
v -0 0.67832246318188472 -0.094965144845463867
v 1.4000000000000001 0.6618587458566606 0.17333977558006758
v 1.3957046963700594 0.65652011036305147 0.17327107685948406
v -1.4220043539010605 -0.6746105610988572 -0.17573534868736149
v -1.3999999999999999 -0.64748025252218822 -0.17535276464689364
v -1.3253807198781404 -1.4556041503228199 -0.048037755731651866
v -1.2999999999999998 -1.4727821158287659 -0.040810503783972739
v 1.4000000000000004 1.3310556095275319 0.079652214666145596
v 1.392587059638682 1.3397141857250812 0.077031555329838186
v 1.3810564852179184 1.3505093597649731 0.073329421824308239
v 1.3154991071695179 1.4000000000000004 0.05394483036220836
v 1.3054318598740928 1.4075999762175833 0.050968056705615945
v -1.3827831193909446 -0.62625266793817391 -0.17505341917293507
v -1.3558963947127332 -0.59999999999999987 -0.17362031499541933
v 0.14633662411637416 0.81491606118181881 -0.086284289983343559
v -1.2999999999999998 -0.54601443518850035 -0.17055797907360989
v -1.3172730759359483 -0.56228751643598684 -0.17156163212679201
v 0.23748947868268278 0.90000000000000036 -0.080876999050290319
v 1.4728147838408507 0.76483478675470562 0.17275793878410289
v -1.2162019398883106 -1.5208530964845635 -0.01815893507094005
v -1.2 -1.5270709765499968 -0.014210063283000429
v 1.4960084343076465 0.81852249444035197 0.16964845329680361
v 1.4999999999999998 0.83075196942457663 0.16869472428055929
v 0.84938282639388485 1.4354283924509388 -0.039577237928293325
v 1.5 1.1652299504907357 0.12186780693129697
v 0.34462233575585571 1 -0.074521756206387416
v 0.40000000000000036 1.0516906444549694 -0.071236690223695665
v 1.4881989872986183 1.1954502799475692 0.11539476839407781
v -1.2511579386181997 -0.5 -0.16772000833745793
v 1.4596582926463084 1.2528336834798079 0.10193835991562551
v -1.2 -0.45180376125972438 -0.16474747342363855
v 0.5 1.1450326897732401 -0.065304576568253642
v 1.4478037062037252 1.2716971306209279 0.09704510589177788
v -1.1000000000000001 -1.5578228775046055 0.0090952028506447562
v 1.4171576742523369 1.3110148399212105 0.085717880518974526
v -1.1542768980706128 -1.5446183052017726 -0.0030660479051682495
v 1.5220083268219031 0.89818172081980263 0.16343614118138924
v 1.5223854182103982 0.90000000000000047 0.16325322945997561
v -1.1000000000000001 -0.35759308733094836 -0.15893696777366725
v -0.69999999999999996 -1.4909556797753529 0.075733795168549473
v -0.71870497786448517 -1.5030661080852408 0.073875309337681591
v 1.5252681175491503 0.92172483407735961 0.16075946556350823
v 1.5232701485072904 0.90426603928917559 0.16282408271590068
v -1.0411021399395606 -1.5682164304714792 0.021740893677490609
v 1.5308088069315753 1 0.15085367331699931
v 1.5307660789285007 0.99336944179853326 0.15177383314462045
v 0.67475541565996977 1.3081529690547022 -0.054937886692264064
v 0.74750864570873332 1.375655091182699 -0.050565070080918553
v -1.0388677684500069 -0.29999999999999982 -0.15538487600550135
v 1.530893642338961 1.0131648114992109 0.14902671843451307
v -0.93418385234001888 -1.5679457465885169 0.042017472577788789
v -0.95233011130243717 -1.5696806278759843 0.038812566755174749
v 1.5200438513907786 1.1027387657912258 0.13442490455347633
v 1.5179763286996348 1.1176934281121238 0.13193842251723328
v 1.5162019637626061 1.1237395551201499 0.13075483539807423
v -0.9327226833659108 -0.19999999999999996 -0.14921730983952305
v -0.84194357424868871 -1.5510469341165087 0.057177291669060402
v -0.82657759828181432 -0.099999999999999867 -0.14304974367354473
v -0.79999999999999982 -0.074961065544619634 -0.14150545082375321
v -0.72043251319771806 -0 -0.13688217750756643
v -0.69999999999999996 0.019249608384156416 -0.13569494517378189
v 1.449041022968159 -1.6894815981805098 0.46000000000000002
v 1.0600000000000001 -1.449041022968159 -0.16948159818050962
v 1.6894815981805098 -1.0600000000000001 0.070958977031841175
v 0.83132742416253891 -1.6586725758374612 0.089999999999999969
v 1.2886725758374611 -1.6586725758374612 0.089999999999999969
v 1.0600000000000001 -1.0600000000000001 -0.27999999999999997
v 1.6586725758374612 -0.68999999999999995 0.2313274241625389
v 1.6586725758374612 -1.4300000000000002 0.2313274241625389
v 1.4300000000000002 -1.2886725758374611 -0.13867257583746112
v 1.4300000000000002 -0.83132742416253891 -0.13867257583746112
v 1.8 -1.0600000000000001 0.46000000000000002
v 1.2622172313953772 -1.771834384760099 0.46000000000000002
v 0.73892246223100599 -1.6983746755079778 0.26767998437426177
v 0.94113969362638294 -1.5733975533947326 -0.059514369134360645
v 0.93977971239382474 -1.7637818220584136 0.26547948851592063
v 1.3810775377689941 -1.6983746755079778 0.26767998437426177
v 1.1788603063736172 -1.5733975533947326 -0.059514369134360645
v 1.1802202876061754 -1.7637818220584136 0.26547948851592063
v 1.0600000000000001 -1.6894815981805098 0.070958977031841064
v 1.0600000000000001 -1.2622172313953772 -0.25183438476009895
v 1.5733975533947326 -0.54048563086563928 0.34113969362638286
v 1.6983746755079778 -0.86767998437426175 0.13892246223100585
v 1.4949610866964302 -0.55073868942566584 0.1452592009097452
v 1.5733975533947326 -1.5795143691343609 0.34113969362638286
v 1.6983746755079778 -1.2523200156257384 0.13892246223100585
v 1.4949610866964302 -1.5692613105743343 0.1452592009097452
v 1.2523200156257384 -1.3810775377689941 -0.17837467550797775
v 1.5795143691343607 -1.1788603063736172 -0.053397553394732344
v 1.3747407990902549 -1.4949610866964302 -0.049261310574334194
v 1.2545205114840796 -1.1802202876061754 -0.24378182205841364
v 1.5692613105743343 -1.3747407990902549 0.025038913303569887
v 1.5795143691343607 -0.94113969362638294 -0.053397553394732344
v 1.2545205114840796 -0.93977971239382474 -0.24378182205841364
v 1.5692613105743343 -0.74525920090974518 0.025038913303569887
v 1.449041022968159 -1.0600000000000001 -0.16948159818050951
v 1.6894815981805096 -1.449041022968159 0.46000000000000002
v 1.771834384760099 -1.0600000000000001 0.25778276860462296
v 1.7637818220584136 -0.8654794885159206 0.33977971239382465
v 1.7637818220584136 -1.2545205114840796 0.33977971239382465
v 0.62503891330356987 -1.5692613105743343 0.1452592009097452
v 0.86767998437426175 -1.3810775377689941 -0.17837467550797775
v 0.74525920090974518 -1.4949610866964302 -0.049261310574334194
v 0.8654794885159206 -1.1802202876061754 -0.24378182205841364
v 1.3584829579768498 -1.7371321317124084 0.46000000000000002
v 1.1620846591744489 -1.7929247726480777 0.46000000000000002
v 0.70151318487510583 -1.7000477085388233 0.36291171967837055
v 0.78247146006612489 -1.6844944912205688 0.17612583781306468
v 0.79491069281993165 -1.7439854044523961 0.36257502519947221
v 0.99999614285195548 -1.5155750954465237 -0.12004385139077883
v 0.88455611924057387 -1.6214027021208106 0.010949389538857546
v 0.99914057569327197 -1.790889372040402 0.36152738293596243
v 0.88337907156350115 -1.7193448278993921 0.17422133466518186
v 0.89711339966976367 -1.7751305220778049 0.36173356714735222
v 0.83706842947100835 -1.7380206896414996 0.26457876451229156
v 1.4184868151248944 -1.7000477085388233 0.36291171967837055
v 1.3375285399338752 -1.6844944912205688 0.17612583781306468
v 1.3250893071800685 -1.7439854044523961 0.36257502519947221
v 1.1200038571480446 -1.5155750954465237 -0.12004385139077883
v 1.2354438807594263 -1.6214027021208106 0.010949389538857546
v 1.0600000000000001 -1.5801512025609523 -0.066348483872040009
v 1.1208594243067282 -1.790889372040402 0.36152738293596243
v 1.2366209284364991 -1.7193448278993921 0.17422133466518186
v 1.2228866003302366 -1.7751305220778049 0.36173356714735222
v 1.0600000000000001 -1.7732573349660408 0.26286052116042014
v 1.2829315705289916 -1.7380206896414996 0.26457876451229156
v 0.94423849587022923 -1.6817316351420828 0.075748717601144266
v 1.1757615041297709 -1.6817316351420828 0.075748717601144266
v 0.99995502980124473 -1.6373512343254939 0.0010227088660492156
v 0.9990805507763495 -1.7356070447699015 0.16429078174063017
v 1.1200449701987554 -1.6373512343254939 0.0010227088660492156
v 1.1209194492236505 -1.7356070447699015 0.16429078174063017
v 1.0600000000000001 -1.3584829579768498 -0.21713213171240825
v 1.0600000000000001 -1.1620846591744489 -0.27292477264807774
v 1.0600000000000001 -0.95791534082555108 -0.27292477264807774
v 1.6214027021208106 -0.61094938953885758 0.28455611924057378
v 1.7000477085388233 -0.96291171967837053 0.1015131848751058
v 1.6844944912205686 -0.77612583781306466 0.18247146006612486
v 1.5832590180780453 -0.61488929329441633 0.18490645449946352
v 1.5390848014728458 -0.54029071340990353 0.24095660149245121
v 1.5155750954465237 -1.6400438513907787 0.39999614285195539
v 1.6214027021208106 -1.5090506104611425 0.28455611924057378
v 1.4827262277604245 -1.6465604296518683 0.30236307941964402
v 1.7000477085388233 -1.1570882803216296 0.1015131848751058
v 1.6844944912205686 -1.3438741621869355 0.18247146006612486
v 1.3959529698072646 -1.6208722108353546 0.11336191035845378
v 1.5832590180780453 -1.5051107067055838 0.18490645449946352
v 1.4419299988377852 -1.6397542567888519 0.2038467690561459
v 1.5390848014728458 -1.5797092865900966 0.24095660149245121
v 1.1570882803216296 -1.4184868151248944 -0.18004770853882329
v 1.3438741621869355 -1.3375285399338752 -0.16449449122056864
v 1.2176369205803561 -1.4827262277604245 -0.12656042965186814
v 1.1574249748005279 -1.3250893071800685 -0.22398540445239606
v 1.6400438513907787 -1.1200038571480446 0.0044249045534763831
v 1.5090506104611425 -1.2354438807594263 -0.10140270212081043
v 1.6465604296518683 -1.2176369205803561 0.03727377223957562
v 1.3350935455005366 -1.5832590180780453 0.014889293294416184
v 1.4066380896415462 -1.3959529698072646 -0.10087221083535453
v 1.2790433985075489 -1.5390848014728458 -0.059709286590096389
v 1.4398978265105316 -1.5384675659303215 0.042451883293329107
v 1.3161532309438542 -1.4419299988377854 -0.11975425678885171
v 1.1584726170640376 -1.1208594243067282 -0.27088937204040192
v 1.3457786653348183 -1.2366209284364991 -0.19934482789939217
v 1.158266432852648 -1.2228866003302366 -0.2551305220778049
v 1.2554212354877086 -1.2829315705289919 -0.21802068964149962
v 1.6208722108353546 -1.4066380896415462 0.12404703019273539
v 1.505110706705584 -1.3350935455005366 -0.063259018078045071
v 1.6397542567888519 -1.3161532309438542 0.078070001162214797
v 1.5384675659303215 -1.4775481167066711 0.080102173489468576
v 1.5797092865900964 -1.2790433985075489 -0.019084801472845692
v 1.4775481167066711 -1.4398978265105316 -0.018467565930321395
v 1.3438741621869355 -0.78247146006612489 -0.16449449122056864
v 1.6400438513907787 -0.99999614285195548 0.0044249045534763831
v 1.5090506104611425 -0.88455611924057387 -0.10140270212081043
v 1.6465604296518683 -0.902363079419644 0.03727377223957562
v 1.5863484838720403 -1.0600000000000001 -0.060151202560952133
v 1.4066380896415462 -0.72404703019273542 -0.10087221083535453
v 1.4398978265105316 -0.58153243406967858 0.042451883293329107
v 1.1584726170640376 -0.99914057569327197 -0.27088937204040192
v 1.3457786653348183 -0.88337907156350104 -0.19934482789939217
v 1.158266432852648 -0.89711339966976367 -0.2551305220778049
v 1.25713947883958 -1.0600000000000001 -0.25325733496604069
v 1.2554212354877086 -0.83706842947100824 -0.21802068964149962
v 1.6208722108353546 -0.71336191035845375 0.12404703019273539
v 1.505110706705584 -0.7849064544994635 -0.063259018078045071
v 1.6397542567888519 -0.80384676905614594 0.078070001162214797
v 1.5384675659303215 -0.64245188329332914 0.080102173489468576
v 1.5797092865900964 -0.84095660149245122 -0.019084801472845692
v 1.4775481167066711 -0.68010217348946855 -0.018467565930321395
v 1.4442512823988558 -1.1757615041297709 -0.16173163514208272
v 1.4442512823988558 -0.94423849587022923 -0.16173163514208272
v 1.5189772911339507 -1.1200449701987554 -0.11735123432549371
v 1.35570921825937 -1.1209194492236505 -0.21560704476990128
v 1.5189772911339507 -0.99995502980124473 -0.11735123432549371
v 1.35570921825937 -0.9990805507763495 -0.21560704476990128
v 1.6817316351420828 -0.6757487176011443 0.34423849587022914
v 1.5801512025609523 -1.5863484838720403 0.46000000000000002
v 1.6817316351420828 -1.4442512823988558 0.34423849587022914
v 1.6373512343254939 -1.5189772911339507 0.3999550298012447
v 1.6373512343254939 -1.5189772911339507 0.5200449701987554
v 1.7371321317124084 -1.0600000000000001 0.16151704202315037
v 1.7929247726480777 -1.0600000000000001 0.3579153408255511
v 1.7439854044523961 -0.96257502519947225 0.19491069281993162
v 1.7439854044523961 -1.1574249748005279 0.19491069281993162
v 1.7193448278993921 -0.77422133466518184 0.28337907156350106
v 1.790889372040402 -0.96152738293596252 0.39914057569327188
v 1.7380206896414996 -0.86457876451229154 0.23706842947100826
v 1.7356070447699015 -0.76429078174063014 0.39908055077634952
v 1.7751305220778049 -0.96173356714735225 0.29711339966976363
v 1.7193448278993921 -1.3457786653348183 0.28337907156350106
v 1.790889372040402 -1.1584726170640376 0.39914057569327188
v 1.7380206896414996 -1.2554212354877086 0.23706842947100826
v 1.7356070447699015 -1.35570921825937 0.39908055077634952
v 1.7751305220778049 -1.158266432852648 0.29711339966976363
v 1.7732573349660408 -1.25713947883958 0.46000000000000002
v 0.6372737722395756 -1.6465604296518683 0.30236307941964402
v 0.72404703019273542 -1.6208722108353546 0.11336191035845378
v 0.53674098192195496 -1.5051107067055838 0.18490645449946352
v 0.67807000116221494 -1.6397542567888519 0.2038467690561459
v 0.58091519852715423 -1.5797092865900966 0.24095660149245121
v 0.96291171967837053 -1.4184868151248944 -0.18004770853882329
v 0.77612583781306466 -1.3375285399338752 -0.16449449122056864
v 0.902363079419644 -1.4827262277604245 -0.12656042965186814
v 0.96257502519947225 -1.3250893071800685 -0.22398540445239606
v 0.7849064544994635 -1.5832590180780453 0.014889293294416184
v 0.71336191035845375 -1.3959529698072646 -0.10087221083535453
v 0.84095660149245122 -1.5390848014728458 -0.059709286590096389
v 0.68010217348946855 -1.5384675659303215 0.042451883293329107
v 0.80384676905614594 -1.4419299988377854 -0.11975425678885171
v 0.96152738293596252 -1.1208594243067282 -0.27088937204040192
v 0.77422133466518184 -1.2366209284364991 -0.19934482789939217
v 0.96173356714735225 -1.2228866003302366 -0.2551305220778049
v 0.86457876451229154 -1.2829315705289919 -0.21802068964149962
v 0.58153243406967858 -1.4775481167066711 0.080102173489468576
v 0.64245188329332914 -1.4398978265105316 -0.018467565930321395
v 0.30726867835416183 -1.2999999999999998 0.24038104888729073
v 0.7845108635095781 -1.7418510805610998 0.39291621534537391
v 0.70776171783622799 -1.7039095142886209 0.37302205838929026
v -0.21238472186464902 0.68761527813535106 -0.13661923609323248
v -0.19999999999999996 0.68373351661906445 -0.133722692326669
v 1.7146008101199235 -0.72178604877898478 0.4268242007518433
v 1.702068826525408 -0.69999999999999984 0.42139307703982748
v 0.87591638635115698 -1.7733540881704095 0.41469368575057725
v 0.82004703340125573 -1.7551194642892984 0.40152566134674045
v -0 -0.91371097840347748 0.12791953697648686
v 0.93843323669368783 -1.7872231546410098 0.42851355662154211
v 0.91743516735946018 -1.7825648326405401 0.42387175836797314
v 0.96840887832979228 -1.7924066785078907 0.43493462187376525
v 1 -1.7949118293720965 0.44128765611209353
v 1.7356070447699015 -0.76429078174063014 0.43676604794996948
v 1.749246752433292 -0.79999999999999971 0.44435688296232556
v 0.90000000000000024 -1.7786969235294843 0.42001756929412798
v 1.6366901915925458 -0.60143415488734053 0.3951719180868114
v 1.6353743663539644 -0.59999999999999987 0.39472112960725325
v 1.6294549957747029 -0.59354831173828126 0.39269321284055292
v 0.10289086979454316 -1.0471132670653076 0.16614512265010628
v 0.14443788751943096 -1.1000000000000001 0.1814431986286919
v 0.12411294589113311 -1.0741276313277934 0.1739593281052064
v 1.1992319533687987 -0.19999999999999998 0.25585407114007175
v 1.1996402105462465 -0.20035978945375352 0.25598201052731229
v 1.6401559183342145 -0.605745127723891 0.39643394236484553
v 0.5 -1.5207950037450155 0.30791130052430221
v 1.4238163901576459 -1.7 0.50852511412995272
v 1.4000000000000004 -1.7126879235059269 0.50577630929082995
v 0.40000000000000036 -1.4073705112098265 0.27303187156937581
v -0.0425224801439383 -0.51888022197687234 -0.1317485585022885
v -0.041517084924497016 -0.56207931168350622 -0.11051173550295758
v -0.041378046918898695 -0.56805339546700717 -0.10757485510212125
v 1.6864436068564785 -0.67283655892761984 0.41462140355259769
v 1.4334210444320006 -1.6948832246227388 0.50963364988926352
v 1.5 -1.6506303582992465 0.51608825016189452
v -0.040561173153650952 -0.60315223260246165 -0.090320144486922327
v -0.044776567405203242 -0.63781449204360763 -0.070546671724808233
v -0.046260226729766298 -0.8178427233702088 0.074090073519699512
v -0.046194382360820768 -0.82221006499781324 0.078282598143265741
v -0.046986516502751187 -0.76966919524536537 0.027844846997710962
v 0.70053892129556938 -1.7 0.37110239504615816
v -0.047003385821732732 -0.76855028287370319 0.02677072272033448
v 1.5125863512596958 -1.6422646199808231 0.51730845353665744
v 1.5155750954465237 -1.6400438513907787 0.51756540732954859
v 1.5584253224596221 -1.5999999999999999 0.52010081126732821
v 1.5180067724993791 -1.6380218993271682 0.51774435268068564
v -0.047077282198277608 -0.76364886568979062 0.022065500645642586
v 0.62183867189841879 -1.6434984051004564 0.34823912437476351
v 0.57337225066129283 -1.6000000000000001 0.33294072762564569
v 1.6000000000000001 -1.5581207886814685 0.52213691041540566
v 1.576675812940135 -1.5828316871237575 0.52116484065595181
v -0.059710603130027726 0.32144243005285672 -0.20626049740276914
v -0.059447017394422721 0.32060005057730701 -0.20642198406792209
v 0.21977280830524409 0.092854793492117296 -0.20416675847201557
v 0.16662003956650442 0.094532993616379873 -0.21546466634635913
v 0.25121707636352653 0.09186199902787906 -0.19748310958356705
v -0.46550929761647342 0.72666233079935771 -0.19017949285904004
v -0.43226172846245209 0.72410819445355457 -0.18350487563136356
v -0.055734349906115914 0.37580477833451503 -0.19120546232067634
v 0.68878337144511514 -1.6921802511686441 0.3677740757381821
v 0.69905929381898646 -1.6991991156432311 0.3707091420156598
v 1.7770363507008078 -1.2229636492991924 0.5088518175350405
v 1.7691602659304086 -1.2560070768089824 0.51198144128003531
v 1.7544056986558041 -1.2999999999999996 0.51533708274460277
v -0.047163203884541656 -0.75794983078149947 0.016594588081222696
v 0.84716762420269986 0.080705425216041723 0.14966308906826717
v 0.84185090556823139 0.081272741833143342 0.14362783717947733
v 0.56900067022081158 -1.5960765253122586 0.33156084088567045
v 0.55179557273272595 -1.5795438692728045 0.32597730051741064
v -0.047220164991318189 -0.75417170036938408 0.012967689584498574
v 0.83281190189397769 0.082237242183641715 0.13336724831849275
v 0.90000000000000024 0.041303311441679376 0.16521753639816494
v 0.57703913689792741 0.09517214893817269 -0.073352525239725838
v 0.53877327132926489 0.092830319163846417 -0.09398162754141702
v 0.53393704972961731 0.0925343476088068 -0.096588831341727327
v -0.037268399448733593 -0.47867110156954401 -0.14799732176777888
v 0.83038504599108753 0.082496198087776806 0.13061241254877887
v -0.04723557549675704 -0.75314954854405225 0.011986452698966104
v 1.7963737184729367 -1.0208051789882726 0.48422373156821619
v 1.7979204380730238 -1.0600000000000001 0.49000488323387459
v -0.29999999999999982 0.71394761741227519 -0.15695266643771852
v -0.2952282361612249 0.71358104217792517 -0.15599471077554225
v 0.28551975465059853 0.090778955560343835 -0.19019189017342697
v 0.31981330923391599 0.098539496782784369 -0.18059637259134795
v -0.052501610895527136 0.42000198462421934 -0.17896554788992891
v -0.049035601381918176 0.46738840739861853 -0.16584241616671455
v 1.790889372040402 -0.96152738293596252 0.47488281429871121
v 1.5350781525842105 -0.5 0.36166484899100004
v 0.58682031306028548 0.095770746388525368 -0.068079499772104077
v 0.63820398136756962 0.090138396800295451 -0.036179910197200703
v 0.65129455154183968 0.088703492093028913 -0.028053129264328163
v 1.5753047759174492 -0.53855568496087913 0.37470570331883846
v 1.0636931836166257 -1.7994471321031895 0.45402430338160549
v 1.0553094219841956 -1.7992978226182017 0.45241048534354544
v 1.4999999999999998 -0.46637892798402153 0.350293049917763
v 1.0966062750410646 -1.7974629124442689 0.46000000000000002
v 0.030404968838506869 0.071679690335942042 -0.23174097140161801
v 0.018188159190742677 0.060948060692077852 -0.23284279681109701
v -0.59999999999999976 0.6745315087613819 -0.20843441122659345
v -0.58441329828014821 0.68649795745459719 -0.2071482407168718
v -0.11207816201911876 0.15433722134579955 -0.23018800590256719
v -0.08342285590920262 0.18550751508365154 -0.22718785841170966
v 0.0016464911100191589 0.046417339443871893 -0.23433467813952913
v -0.63330656340031077 0.64896091087347063 -0.21118277456834497
v -0.046420758268002807 -0.82356456023785052 0.079833443042739857
v 0.73067132397033641 0.087992637768578338 0.032100986036030614
v 0.75130745777309016 0.085681242330703178 0.049147266603021246
v -0.043884808148738276 -0.68070396375569164 -0.041487504200393266
v -0.043057300262130373 -0.72050324347933281 -0.014522053457513555
v -0.044641298075912349 -0.64432031750050611 -0.066138739794433118
v 0.76193664060648048 0.084490697389278113 0.057927401220661416
v -0.046685663592981187 -0.82514959199414628 0.081648243377282104
v -0.64216216216216193 0.64216216216216193 -0.21191351351351348
v -0.13231943471850688 0.13231943471850688 -0.23230722261125969
v -0.023940724707027065 0.023940724707027065 -0.23664237101171889
v -0.046753572078347141 -0.82555591491663105 0.082113467479404068
v -0.04708418170036003 -0.82753408107795734 0.084378391571363495
v 0.7067769653975251 0.090668977819677449 0.012363280122044452
v -0.04763978643094513 -0.83085848062333201 0.08818470105578527
v -0.048247973453300071 -0.83449750050440918 0.092351238711168598
v 1.2818277681224661 -1.7631479616649484 0.49038799057636145
v 1.3450650390116272 -1.7398858485441298 0.49914637620838737
v -0.049028632259655383 -0.8391684862575497 0.097699337557624541
v -0.050030293994354089 -0.84516181862522943 0.10456147236513587
v -0.050067249348304609 -0.84538293690430344 0.10481464428124618
v 1.3857584007633348 -1.7202749810121576 0.50413259348673567
v -0.16542006454979055 0.13149073126696875 -0.22988189273877702
v -0.07616610867192225 0.20181658830495702 -0.22501881225157419
v -0.065794367933376563 0.22512640930414224 -0.22191869264050532
v -0.064768200060257589 0.24056150821713818 -0.21941336000152781
v -0.050148226698829561 -0.84586745593816304 0.10536939992020891
v -0.050153125615827521 -0.8486853667621761 0.10928685747969744
v 0.35257167055722638 0.097339913202265635 -0.16931753292668375
v -0.051689102332020599 0.52456300984992821 -0.14398715626494676
v -0.052556328823226042 0.48579647719347446 -0.15976284804169627
v 1.795575789826716 -1.1000000000000003 0.49515940006707609
v 1.7943250242460094 -1.1213382213332175 0.4979091055933923
v -0.25182553915341804 0.12932749402946631 -0.22355084164487427
v -0.19335404617415511 0.13079137940855076 -0.2278351304736396
v -0.061921632134172712 0.28337814538990042 -0.21246362037207439
v -0.53889779170509233 0.10844103297271961 -0.15774274520844719
v -0.53488693682882904 0.10838527396061043 -0.15925560337557557
v -0.048201434881564975 0.60872628512179616 -0.10916165295858189
v -0.048846800528584443 0.60111520470703528 -0.11242943347480192
v 1.2518022829952136 -1.7727072184562302 0.48602144435296285
v 1.1701312762811114 -1.790569855710934 0.47300472229294194
v 1.7737727250244355 -0.86574458494940065 0.45822105964755888
v -0.54275147144630709 0.10849460693188404 -0.15628917208006085
v -0.048663313023019163 0.61501108522925463 -0.10609445314856804
v -0.048132817531841107 0.60953551965265163 -0.10881421203181757
v -0.022587105957722453 0.016756170418021261 -0.2365072507224803
v -0.049147347990112389 0.59757071654175065 -0.11395124230289234
v -0.049641621490892761 0.59174153214264469 -0.11645397439437169
v -0.050381478380931148 0.58301607501380137 -0.12020020715594516
v 0.46405444107014476 0.097348261050665783 -0.129301702375897
v 0.43666025392659963 0.094260660155282464 -0.14036548492613191
v -0.086873368746426274 0.64827607086723693 -0.10726458998323417
v -0.099999999999999867 0.65239037013010948 -0.11033465181821531
v -0.13624827875879633 0.66375172124120374 -0.11881241393793984
v -0.53300216112311483 0.10835907175817719 -0.15996652371738834
v 0.075955675917434975 0.0833763654533307 -0.2275886943945378
v 0.11667931909400107 0.077347277723235505 -0.22385076885770525
v -0.010114134898067407 -0.049446176268832978 -0.2352621797169914
v 0.051936539166878404 0.077208644748477828 -0.22977821275012417
v 1.7711088530415875 -0.85723572245798663 0.4565236832220198
v -0.52493017417109855 0.10846737922363402 -0.16290958977706022
v -0.52662319724792406 0.10827039123122377 -0.162372611171091
v -0.52987880161842471 0.10831565073053692 -0.1611446266608563
v -0.64924330739384051 0.62488033592633385 -0.21083947543451645
v -0.014342529944933017 -0.063219800020703432 -0.23450872039265322
v 1.773075410641531 -0.86291080380703855 0.45769184055487627
v -0.033548967098156877 -0.12578307427260882 -0.23108631803903718
v 0.12982471588191327 0.081870901979399294 -0.22164337889671243
v -0.032398498364241177 -0.14061959808953386 -0.22908345128190213
v -0.049799335230598457 0.62673665914556587 -0.10027026323175728
v -0.54999690073116803 0.1085953330842117 -0.15355626171403813
v -0.27816035418682872 0.11882831281606303 -0.22130186255549028
v -0.68847233112127182 0.5291402897505062 -0.2048893834781125
v 1.7346489076267244 -1.3576479456938659 0.51965400484621893
v 1.7356070447699017 -1.35570921825937 0.51956462906259315
v -0.050229195414549246 0.63117350670626138 -0.098066444211053941
v -0.050215303946336783 0.63103012444115714 -0.09813766337257461
v -0.57247921094297693 0.10892349117783366 -0.14506894560861242
v -0.57129095740273983 0.10889136363142257 -0.14552433621667529
v -0.55261639874580948 0.10863174941589765 -0.15256821076542862
v -0.027385446737818661 -0.20526825620451652 -0.22035616112757536
v -0.026172298616500653 -0.22091309770675535 -0.2182441749674659
v 1.6402014539124821 -1.5141782012240959 0.52362322441474507
v 1.6368576018108039 -1.5186700445309309 0.52361675057838308
v 1.685283551902194 -1.4464464876818151 0.52270638313687112
v -0.33204448458875258 0.11736523219469895 -0.21086068394742066
v -0.37460758290445484 0.11620954416806807 -0.20261319237036052
v -0.68772744531123142 0.5 -0.20066821460913398
v -0.68526933855627614 0.40383768611033077 -0.18673845038113879
v 1.7 -1.4199744990746885 0.5217964298704566
v 1.6335558660480676 -1.522569899129409 0.52353540042725011
v -0.036372239174576083 -0.32506886160237303 -0.19611286035108388
v -0.036388196832337974 -0.32170958905013591 -0.19694231041097976
v -0.036118338378429593 -0.37851793214974672 -0.18291555823358455
v -0.68517123939695246 0.40000000000000036 -0.18618253548542099
v -0.68439555240652028 0.36965475331626546 -0.181786820421516
v -0.036595139934814024 -0.27814565915544076 -0.20769883692038424
v -0.42346999091983079 0.11488281509686964 -0.19314507763039065
v -0.42843862005370709 0.11369782096345225 -0.19202509771562853
v 1.7365469070562858 -1.3532486268488713 0.51939872009953636
v 1.790889372040402 -1.1584726170640376 0.50245514707664174
v -0.60762894138726609 0.10627300521835772 -0.13032771959415065
v -0.60683278047273581 0.1063330401972544 -0.13066161654973543
v -0.58404372270254901 0.10805146241233514 -0.14021897721796006
v -0.58381309500814638 0.10806885302836988 -0.14031569872692792
v 1.157518705210743 -1.7926993392332733 0.47090646148269949
v -0.597603770905349 0.10702895905549427 -0.13453211325633482
v -0.48638523138784345 0.11055675460406544 -0.1745401992937459
v -0.5789166226133351 0.10843807438993847 -0.14236919971635623
v -0.050227948512809456 0.63140423709107285 -0.09793990341018402
v -0.57456019576285833 0.10876657330172879 -0.14419621437640126
v -0.57843580201162825 0.1084743309483172 -0.1425708480667868
v -0.63003220983991703 0.16763261606859978 -0.14317468611918821
v -0.037206909797037814 -0.4251926839742794 -0.16688769812090337
v -0.49527918052513831 0.11007464730229131 -0.17185652558695608
v -0.675135475882783 0.32875326279029415 -0.17430119720836992
v -0.66125851476549413 0.26745912637434671 -0.16308339549785242
v -0.036586343938198852 -0.38176646207850146 -0.18197408530348
v -0.01048231303637953 -0.90012022392433777 0.12402519187249518
v -0.049487330237567635 -0.84954859813943717 0.10953421099438336
v 0.95200767415822396 0 0.18088145809006256
v 1 -0.038772380287255041 0.19542813324021571
v 1.7863395595970779 -1.1839328468467247 0.50515511488198628
v -0.65407278892796217 0.23571998291126184 -0.15727462750388946
v 0.91148318917705262 0.032739208093711905 0.16859831681052032
v 0.33611361379655524 -1.3349077018594975 0.25074866488167519
v 0.21516302625361439 -1.1885351416534926 0.2072758948196757
v 0.1913630602881991 -1.159732785071828 0.19872157136481378
v 1.3127030885531978 -0.29999999999999982 0.2914135868251076
v 1.4000000000000004 -0.37693314366242847 0.31877064011274003
v 1.1400988305057789 -0.15195641625330031 0.23789267607156003
v 1.0757873479523337 -0.099999999999999867 0.21839959611094337
v 1.1444933268774229 -0.15550667312257724 0.23922466634387116
v 1.2393630931220045 -0.2353668267158775 0.26843034343340366
v -0.047280566460347125 -0.75016537675685524 0.0091217320598256588
v 1.1955436915680457 -0.19674960350510362 0.2546982458886432
v 1.482927743016879 -0.4500158204877856 0.344758486041497
v -0.57788918894324015 0.68985241209294246 -0.20637828359222762
v -0.5 0.71784787615033485 -0.19549870266104688
v -0.54660535558360313 0.70593739695436886 -0.20268625313449626
v -0.48016853573778623 0.72291601133700745 -0.19244026337736042
v 0.83020862567016962 0.08251502289054187 0.13041214972724488
v 0.78642265236995756 0.084882225916070503 0.082885416653711907
v 0.81150489129563663 0.084510791341355807 0.10918068047485598
v 0.77328866972274934 0.085076722718103653 0.069116249564840401
f 18 42 19
f 42 43 19
f 19 43 20
f 45 46 21
f 21 46 22
f 47 48 23
f 23 48 24
f 56 57 32
f 32 57 33
f 57 58 33
f 33 58 34
f 58 59 34
f 34 59 35
f 60 61 36
f 36 61 37
f 61 62 37
f 37 62 38
f 68 69 44
f 70 71 45
f 45 71 46
f 82 83 57
f 57 83 58
f 83 84 58
f 58 84 59
f 68 93 69
f 93 94 69
f 95 96 70
f 70 96 71
f 97 98 72
f 72 98 73
f 110 111 85
f 85 111 86
f 111 112 86
f 86 112 87
f 93 118 94
f 121 122 97
f 97 122 98
f 141 142 119
f 119 142 120
f 142 143 120
f 144 145 121
f 121 145 122
f 153 154 133
f 133 154 134
f 154 155 134
f 134 155 135
f 162 163 142
f 142 163 143
f 164 165 144
f 144 165 145
f 173 174 154
f 154 174 155
f 174 175 155
f 155 175 156
f 175 176 156
f 177 178 157
f 157 178 158
f 179 180 159
f 159 180 160
f 181 182 161
f 161 182 162
f 193 194 175
f 175 194 176
f 195 196 177
f 177 196 178
f 179 197 180
f 198 199 181
f 181 199 182
f 183 200 184
f 240 241 226
f 226 241 227
f 241 242 227
f 227 242 228
f 243 244 229
f 229 244 230
f 245 246 231
f 231 246 232
f 249 250 235
f 235 250 236
f 240 252 241
f 252 253 241
f 241 253 242
f 255 256 243
f 243 256 244
f 257 258 245
f 245 258 246
f 261 262 249
f 249 262 250
f 266 267 254
f 268 269 255
f 255 269 256
f 270 271 257
f 257 271 258
f 288 289 274
f 274 289 275
f 289 290 275
f 275 290 276
f 291 292 277
f 277 292 278
f 292 293 278
f 281 297 282
f 297 298 282
f 282 298 283
f 299 300 284
f 284 300 285
f 307 308 292
f 292 308 293
f 308 309 293
f 320 321 303
f 303 321 304
f 321 322 304
f 304 322 305
f 323 324 306
f 306 324 307
f 324 325 307
f 307 325 308
f 325 326 308
f 308 326 309
f 310 327 311
f 320 334 321
f 334 335 321
f 321 335 322
f 346 347 337
f 337 347 338
f 361 362 355
f 355 362 356
f 368 369 367
f 372 373 368
f 368 373 369
f 373 374 369
f 375 376 371
f 378 379 373
f 373 379 374
f 392 393 379
f 394 395 380
f 380 395 381
f 395 396 381
f 381 396 382
f 404 405 391
f 391 405 392
f 405 406 392
f 392 406 393
f 406 407 393
f 408 409 404
f 404 409 405
f 409 410 405
f 405 410 406
f 410 411 406
f 406 411 407
f 412 413 408
f 408 413 409
f 413 414 409
f 409 414 410
f 414 415 410
f 410 415 411
f 419 420 412
f 412 420 413
f 420 421 413
f 413 421 414
f 421 422 414
f 414 422 415
f 423 424 416
f 416 424 417
f 293 612 609
f 624 635 129
f 663 676 171
f 686 696 206
f 706 707 223
f 475 493 489
f 489 504 475
f 490 493 475
f 489 493 491
f 489 491 470
f 538 567 550
f 555 567 538
f 555 570 567
f 499 506 503
f 522 531 472
f 472 531 517
f 485 533 531
f 531 533 517
f 480 520 515
f 481 520 518
f 516 524 480
f 522 524 482
f 523 524 516
f 482 524 523
f 472 518 514
f 518 520 514
f 514 520 480
f 514 522 472
f 514 524 522
f 480 524 514
f 511 512 505
f 567 569 550
f 554 559 557
f 557 559 544
f 544 558 557
f 482 534 522
f 531 534 485
f 522 534 531
f 496 526 471
f 496 528 526
f 526 528 484
f 474 492 490
f 487 492 474
f 492 493 490
f 513 516 480
f 480 515 513
f 486 515 474
f 513 515 486
f 469 513 486
f 474 490 486
f 488 490 475
f 486 490 488
f 486 488 469
f 494 516 513
f 494 513 469
f 495 509 507
f 495 507 471
f 507 509 479
f 543 570 555
f 478 506 504
f 505 512 478
f 478 512 503
f 503 506 478
f 569 571 562
f 562 571 545
f 579 580 549
f 537 579 549
f 560 562 545
f 549 562 560
f 549 560 537
f 551 554 539
f 554 557 539
f 539 556 551
f 556 576 543
f 543 576 570
f 485 535 533
f 534 536 485
f 527 536 484
f 528 530 484
f 525 530 483
f 527 530 525
f 484 530 527
f 504 506 500
f 475 504 500
f 475 500 488
f 515 520 519
f 519 520 481
f 515 519 474
f 474 519 487
f 495 523 476
f 476 523 516
f 476 516 494
f 476 509 495
f 501 509 476
f 494 501 476
f 471 526 521
f 471 521 495
f 521 523 495
f 482 523 521
f 470 502 489
f 497 502 470
f 497 505 502
f 502 504 489
f 478 504 502
f 502 505 478
f 541 569 562
f 541 562 549
f 550 569 541
f 541 581 550
f 580 581 541
f 549 580 541
f 576 578 570
f 561 566 545
f 545 571 561
f 539 573 556
f 573 576 556
f 574 577 563
f 532 535 485
f 485 536 532
f 532 536 527
f 580 582 581
f 477 506 499
f 500 506 477
f 479 510 508
f 477 510 501
f 509 510 479
f 501 510 509
f 508 510 499
f 499 510 477
f 529 534 482
f 521 529 482
f 529 536 534
f 526 529 521
f 484 529 526
f 484 536 529
f 548 577 574
f 574 578 548
f 575 577 548
f 548 578 576
f 573 575 548
f 548 576 573
f 547 571 569
f 570 578 547
f 567 570 547
f 547 569 567
f 561 571 568
f 568 571 547
f 547 578 568
f 568 578 574
f 542 575 553
f 553 575 573
f 553 573 539
f 539 557 553
f 553 558 542
f 557 558 553
f 563 572 540
f 540 574 563
f 561 568 540
f 568 574 540
f 564 577 575
f 564 575 542
f 563 577 546
f 546 577 564
f 498 500 477
f 488 498 469
f 488 500 498
f 477 501 498
f 469 498 494
f 498 501 494
f 565 566 561
f 540 572 565
f 540 565 561
f 552 564 542
f 473 532 527
f 473 527 525
f 538 550 496
f 471 538 496
f 632 633 544
f 537 598 597
f 579 671 627
f 633 666 544
f 605 688 497
f 656 657 572
f 491 699 698
f 470 704 607
f 622 625 535
f 535 623 622
f 644 645 473
f 492 584 493
f 493 584 583
f 593 594 487
f 206 696 207
f 696 703 207
f 601 602 481
f 207 703 208
f 703 705 208
f 470 606 497
f 470 607 606
f 497 606 605
f 610 611 545
f 566 610 545
f 209 705 223
f 208 705 209
f 705 706 223
f 363 591 587
f 566 615 610
f 579 619 580
f 580 619 618
f 579 626 619
f 579 627 626
f 611 614 560
f 545 611 560
f 511 637 636
f 511 638 637
f 505 640 511
f 511 640 638
f 505 642 640
f 497 642 505
f 533 616 613
f 533 625 616
f 535 625 533
f 602 653 519
f 481 602 519
f 519 654 593
f 519 593 487
f 653 654 519
f 566 641 615
f 560 592 537
f 592 598 537
f 560 617 592
f 614 617 560
f 537 596 579
f 596 671 579
f 537 597 596
f 544 669 558
f 666 669 544
f 237 606 222
f 237 688 605
f 605 606 237
f 687 688 237
f 572 682 655
f 655 656 572
f 223 708 224
f 224 708 238
f 707 708 223
f 563 682 572
f 680 682 563
f 497 687 642
f 497 688 687
f 525 661 660
f 525 664 661
f 580 695 582
f 618 695 580
f 384 620 376
f 376 620 604
f 376 604 591
f 376 591 363
f 383 384 376
f 675 677 546
f 546 702 672
f 672 675 546
f 546 677 563
f 677 680 563
f 564 702 546
f 701 702 564
f 588 589 518
f 589 631 518
f 518 631 630
f 639 641 566
f 565 639 566
f 251 687 237
f 637 638 251
f 640 642 251
f 642 687 251
f 638 640 251
f 385 634 384
f 384 634 620
f 517 599 595
f 565 659 639
f 517 595 472
f 472 595 590
f 472 588 518
f 472 590 588
f 572 657 565
f 657 658 565
f 658 659 565
f 385 650 634
f 649 650 385
f 491 698 470
f 698 704 470
f 558 685 542
f 685 690 542
f 684 685 558
f 583 691 493
f 493 691 491
f 669 670 558
f 670 684 558
f 691 699 491
f 542 690 689
f 542 689 552
f 594 667 487
f 263 637 251
f 636 637 263
f 586 636 263
f 697 700 552
f 481 628 601
f 481 629 628
f 552 700 564
f 700 701 564
f 518 630 629
f 518 629 481
f 552 693 692
f 692 697 552
f 689 693 552
f 559 650 649
f 559 649 632
f 559 632 544
f 399 649 385
f 632 649 399
f 399 633 632
f 399 666 633
f 399 669 666
f 399 670 669
f 517 608 603
f 517 603 599
f 532 635 624
f 532 623 535
f 532 624 623
f 532 646 635
f 533 608 517
f 533 613 608
f 525 660 652
f 525 651 473
f 525 652 651
f 473 645 532
f 645 646 532
f 492 681 584
f 492 683 681
f 277 586 276
f 585 586 277
f 276 586 263
f 473 651 643
f 643 644 473
f 487 668 492
f 667 668 487
f 668 683 492
f 634 650 559
f 620 634 559
f 604 620 559
f 267 282 268
f 278 585 277
f 278 600 585
f 436 684 670
f 436 685 684
f 436 670 435
f 435 670 399
f 612 621 511
f 609 612 511
f 600 609 511
f 585 600 511
f 511 586 585
f 511 636 586
f 672 702 438
f 438 702 437
f 400 672 438
f 437 702 701
f 437 700 697
f 437 701 700
f 437 697 692
f 437 693 436
f 436 693 689
f 689 690 436
f 692 693 437
f 436 690 685
f 525 676 663
f 663 664 525
f 525 678 676
f 525 686 678
f 525 696 686
f 525 703 696
f 525 705 703
f 525 706 705
f 525 707 706
f 525 708 707
f 106 624 129
f 623 624 106
f 622 623 106
f 106 625 622
f 616 625 106
f 613 616 105
f 105 616 106
f 608 613 105
f 603 608 105
f 582 695 694
f 326 621 309
f 310 648 327
f 647 648 310
f 662 665 328
f 328 665 329
f 665 673 329
f 628 629 127
f 150 628 127
f 127 629 128
f 629 630 128
f 630 631 128
f 330 674 341
f 329 673 330
f 673 674 330
f 131 652 151
f 130 651 131
f 643 651 130
f 651 652 131
f 150 654 653
f 170 654 150
f 150 653 602
f 150 602 601
f 601 628 150
f 152 664 171
f 661 664 152
f 151 661 152
f 171 664 663
f 341 679 350
f 674 679 341
f 104 589 588
f 128 589 104
f 588 590 104
f 590 595 104
f 104 595 105
f 595 599 105
f 599 603 105
f 364 598 592
f 357 598 364
f 597 598 357
f 596 597 357
f 293 600 278
f 293 609 600
f 171 678 172
f 172 678 190
f 676 678 171
f 364 614 611
f 364 611 387
f 387 611 610
f 610 615 387
f 615 641 387
f 387 641 639
f 639 659 387
f 387 659 658
f 387 658 386
f 364 617 614
f 592 617 364
f 309 612 293
f 309 621 612
f 128 631 589
f 635 646 129
f 129 646 130
f 130 646 645
f 130 645 644
f 130 644 643
f 694 695 350
f 350 695 618
f 618 619 350
f 619 626 350
f 679 694 350
f 386 658 657
f 386 657 656
f 386 656 655
f 350 626 351
f 351 627 357
f 626 627 351
f 627 671 357
f 357 671 596
f 652 660 151
f 660 661 151
f 189 668 667
f 189 667 170
f 170 667 594
f 170 594 593
f 593 654 170
f 190 686 206
f 678 686 190
f 400 675 672
f 400 677 675
f 400 680 677
f 400 682 680
f 655 682 400
f 386 655 400
f 205 683 189
f 681 683 205
f 189 683 668
f 205 699 691
f 205 691 583
f 583 584 205
f 584 681 205
f 698 699 222
f 222 699 205
f 222 704 698
f 607 704 222
f 606 607 222
f 886 887 294
f 894 899 356
f 906 907 370
f 923 925 512
f 925 930 512
f 930 948 512
f 587 950 949
f 948 953 512
f 949 955 587
f 953 961 512
f 511 988 922
f 511 995 988
f 511 999 995
f 511 1000 999
f 511 1002 1000
f 511 1003 1002
f 511 1006 1003
f 511 1007 1006
f 511 1008 1007
f 483 1025 1024
f 483 1043 1025
f 507 1046 1034
f 483 1051 1043
f 1031 1059 483
f 1064 1065 647
f 1059 1068 483
f 310 1042 1041
f 525 1093 1092
f 525 1095 1091
f 1092 1095 525
f 1017 1018 582
f 525 1097 1093
f 647 1098 1064
f 1066 1099 525
f 525 1100 1097
f 1099 1100 525
f 1109 1110 363
f 621 1108 1015
f 1117 1118 380
f 875 882 881
f 845 860 857
f 845 857 716
f 716 857 792
f 873 882 750
f 750 882 875
f 875 881 748
f 865 867 748
f 801 823 736
f 711 848 784
f 791 848 711
f 711 801 791
f 723 762 761
f 723 761 759
f 752 765 720
f 709 763 752
f 763 765 752
f 765 771 720
f 720 771 753
f 753 771 769
f 765 773 771
f 792 813 716
f 792 815 813
f 733 815 792
f 801 803 791
f 791 803 733
f 803 815 733
f 736 803 801
f 873 876 869
f 750 876 873
f 819 830 827
f 737 818 805
f 717 837 810
f 805 808 737
f 737 808 806
f 717 810 798
f 810 812 798
f 798 812 735
f 798 805 717
f 735 808 798
f 798 808 805
f 767 806 725
f 775 778 727
f 767 778 775
f 725 778 767
f 727 778 776
f 727 779 775
f 740 841 823
f 743 841 838
f 721 762 755
f 758 776 722
f 727 776 774
f 774 776 758
f 712 774 758
f 719 853 849
f 853 856 849
f 849 856 745
f 820 823 801
f 711 820 801
f 740 823 820
f 820 822 740
f 784 822 820
f 784 820 711
f 709 788 763
f 789 845 716
f 724 773 765
f 724 765 763
f 764 773 724
f 724 795 764
f 857 860 747
f 747 859 857
f 857 859 792
f 792 859 733
f 736 817 803
f 803 817 815
f 869 880 878
f 741 830 828
f 827 830 741
f 741 828 826
f 826 829 741
f 809 829 826
f 714 826 782
f 809 826 714
f 743 840 837
f 837 840 810
f 802 837 717
f 802 817 736
f 837 839 743
f 839 841 743
f 823 841 839
f 823 839 736
f 736 839 802
f 802 839 837
f 725 806 799
f 799 808 735
f 806 808 799
f 735 812 800
f 800 812 811
f 767 775 713
f 775 779 770
f 713 775 770
f 713 770 764
f 770 773 764
f 771 773 726
f 726 773 770
f 770 779 726
f 769 771 726
f 800 811 728
f 780 800 728
f 755 866 721
f 748 867 866
f 722 874 758
f 874 876 750
f 755 760 712
f 760 774 712
f 755 762 760
f 760 762 723
f 777 779 727
f 774 777 727
f 760 777 774
f 723 777 760
f 831 833 785
f 821 841 740
f 838 841 821
f 785 854 852
f 746 856 853
f 854 856 746
f 746 855 852
f 852 854 746
f 745 850 848
f 745 856 850
f 850 856 854
f 848 850 784
f 788 844 732
f 732 790 788
f 788 790 763
f 790 795 724
f 763 790 724
f 789 796 732
f 732 796 790
f 795 796 734
f 790 796 795
f 744 860 845
f 849 858 719
f 747 861 859
f 858 861 747
f 745 861 849
f 849 861 858
f 739 818 816
f 815 817 739
f 739 816 813
f 813 815 739
f 838 842 743
f 743 842 840
f 827 842 838
f 840 842 829
f 741 842 827
f 829 842 741
f 738 840 829
f 811 812 738
f 809 811 738
f 738 829 809
f 738 812 810
f 810 840 738
f 814 817 802
f 814 818 739
f 739 817 814
f 805 818 814
f 805 814 717
f 717 814 802
f 797 799 735
f 735 800 797
f 797 800 780
f 749 880 869
f 869 876 749
f 804 806 767
f 713 804 767
f 737 806 804
f 726 772 769
f 726 779 772
f 769 772 759
f 772 779 777
f 759 772 723
f 772 777 723
f 728 871 780
f 780 871 868
f 871 880 749
f 868 871 749
f 714 877 781
f 781 809 714
f 781 811 809
f 728 811 781
f 864 875 748
f 748 866 864
f 864 866 755
f 712 864 755
f 866 867 863
f 721 866 863
f 750 875 872
f 872 874 750
f 758 874 872
f 872 875 864
f 758 872 712
f 712 872 864
f 870 876 874
f 749 876 870
f 749 870 868
f 870 874 722
f 721 863 754
f 786 787 731
f 833 835 822
f 822 835 740
f 821 835 832
f 740 835 821
f 832 836 824
f 718 824 819
f 821 832 718
f 718 832 824
f 827 838 718
f 819 827 718
f 718 838 821
f 852 855 843
f 730 854 785
f 785 833 730
f 784 850 730
f 850 854 730
f 730 822 784
f 730 833 822
f 844 846 732
f 789 846 845
f 732 846 789
f 845 846 744
f 844 847 846
f 846 847 744
f 794 816 734
f 734 796 794
f 794 796 789
f 813 816 794
f 716 813 794
f 716 794 789
f 860 862 747
f 747 862 858
f 848 851 745
f 851 861 745
f 791 851 848
f 859 861 851
f 733 851 791
f 733 859 851
f 780 868 710
f 710 797 780
f 734 816 807
f 816 818 807
f 807 818 737
f 804 807 737
f 751 880 879
f 879 880 871
f 751 879 877
f 728 879 871
f 877 879 781
f 781 879 728
f 756 762 721
f 754 756 721
f 761 762 756
f 729 787 783
f 783 787 786
f 742 833 831
f 742 835 833
f 832 835 742
f 742 836 832
f 722 776 768
f 768 778 725
f 776 778 768
f 793 795 734
f 734 807 793
f 764 795 793
f 793 807 804
f 764 793 713
f 793 804 713
f 785 852 715
f 715 852 843
f 715 843 783
f 715 831 785
f 786 831 715
f 783 786 715
f 731 834 786
f 786 834 831
f 831 834 742
f 834 836 742
f 722 768 757
f 757 870 722
f 868 870 757
f 710 868 757
f 766 768 725
f 725 799 766
f 757 766 710
f 757 768 766
f 766 799 797
f 766 797 710
f 825 836 834
f 884 891 756
f 720 1028 1004
f 970 1030 853
f 902 975 729
f 1053 1055 877
f 847 1072 1071
f 847 1079 1072
f 979 1094 753
f 753 1094 1029
f 943 944 754
f 1044 1047 826
f 903 905 748
f 824 973 972
f 865 1116 1115
f 1130 1132 834
f 1131 1133 825
f 5 4 28
f 29 5 28
f 431 430 453
f 454 431 453
f 358 357 364
f 365 358 364
f 305 322 323
f 306 305 323
f 210 223 224
f 209 223 210
f 431 454 455
f 432 431 455
f 756 754 885
f 884 756 885
f 2 1 25
f 26 2 25
f 761 756 891
f 890 761 891
f 6 5 29
f 30 6 29
f 107 106 129
f 130 107 129
f 729 783 902
f 901 902 783
f 900 901 783
f 203 219 220
f 202 219 203
f 359 358 365
f 366 359 365
f 433 432 455
f 456 433 455
f 783 843 900
f 908 900 843
f 204 220 221
f 203 220 204
f 211 224 225
f 210 224 211
f 108 107 130
f 131 108 130
f 913 914 869
f 869 914 915
f 205 221 222
f 204 221 205
f 7 6 30
f 31 7 30
f 919 920 869
f 873 869 920
f 915 919 869
f 433 456 457
f 434 433 457
f 369 361 367
f 361 360 367
f 108 131 132
f 109 108 132
f 828 937 938
f 939 937 828
f 830 939 828
f 467 466 468
f 465 466 467
f 212 226 227
f 211 226 212
f 225 226 211
f 435 434 457
f 458 435 457
f 936 935 940
f 941 940 935
f 942 941 935
f 2 26 27
f 3 2 27
f 7 31 32
f 8 7 32
f 963 962 719
f 311 327 328
f 312 311 328
f 4 3 27
f 28 4 27
f 362 361 369
f 374 362 369
f 939 830 966
f 967 966 830
f 110 109 132
f 133 110 132
f 213 212 228
f 227 228 212
f 436 435 458
f 459 436 458
f 942 968 964
f 965 964 968
f 969 965 968
f 941 942 964
f 9 8 32
f 33 9 32
f 313 312 328
f 329 313 328
f 719 962 853
f 853 962 970
f 214 228 229
f 213 228 214
f 111 110 133
f 134 111 133
f 709 918 926
f 917 918 709
f 10 9 33
f 34 10 33
f 437 436 459
f 460 437 459
f 769 759 977
f 976 769 977
f 215 229 230
f 214 229 215
f 976 979 769
f 753 769 979
f 314 313 329
f 330 314 329
f 11 10 34
f 35 11 34
f 782 981 986
f 980 981 782
f 111 134 135
f 112 111 135
f 216 230 231
f 215 230 216
f 438 437 460
f 461 438 460
f 983 984 985
f 982 984 983
f 987 984 982
f 12 11 35
f 36 12 35
f 315 314 330
f 331 315 330
f 759 896 977
f 895 896 759
f 217 231 232
f 216 231 217
f 714 782 998
f 986 998 782
f 113 112 135
f 136 113 135
f 12 36 37
f 13 12 37
f 987 996 997
f 984 987 997
f 439 438 461
f 462 439 461
f 219 218 233
f 234 219 233
f 315 331 332
f 316 315 332
f 894 761 899
f 890 899 761
f 893 761 894
f 14 13 37
f 38 14 37
f 759 761 893
f 895 759 893
f 440 439 462
f 463 440 462
f 219 234 235
f 220 219 235
f 752 1004 1005
f 720 1004 752
f 114 113 136
f 137 114 136
f 15 14 38
f 39 15 38
f 317 316 332
f 333 317 332
f 709 752 911
f 1009 911 752
f 910 709 911
f 917 709 910
f 221 220 235
f 236 221 235
f 441 440 463
f 464 441 463
f 1005 1009 752
f 16 15 39
f 40 16 39
f 115 114 137
f 138 115 137
f 967 830 1016
f 1039 1016 830
f 1038 1039 830
f 819 1038 830
f 221 236 237
f 222 221 237
f 319 336 337
f 318 336 319
f 17 16 40
f 41 17 40
f 116 115 138
f 139 116 138
f 18 17 41
f 42 18 41
f 320 337 338
f 319 337 320
f 20 43 44
f 21 20 44
f 45 21 44
f 117 116 139
f 140 117 139
f 334 338 339
f 320 338 334
f 23 22 46
f 47 23 46
f 225 224 238
f 239 225 238
f 118 117 140
f 141 118 140
f 119 118 141
f 1018 1017 887
f 969 1018 965
f 886 1018 887
f 965 1018 886
f 1042 887 1017
f 1037 1041 1042
f 1037 1042 1017
f 1040 1041 1037
f 1036 1040 1037
f 1035 1040 1036
f 1027 1040 1035
f 1026 1040 1027
f 1033 1040 1026
f 25 49 50
f 26 25 50
f 323 322 335
f 883 323 335
f 1114 883 335
f 912 1114 335
f 340 912 335
f 363 371 376
f 1120 371 363
f 1110 1120 363
f 1020 1019 719
f 963 719 1019
f 121 120 143
f 144 121 143
f 1029 720 753
f 1028 720 1029
f 225 239 240
f 226 225 240
f 124 123 146
f 147 124 146
f 788 926 927
f 709 926 788
f 27 26 50
f 51 27 50
f 125 124 147
f 148 125 147
f 1048 898 855
f 897 855 898
f 229 228 242
f 243 229 242
f 126 125 148
f 149 126 148
f 897 888 855
f 28 27 51
f 52 28 51
f 127 126 149
f 150 127 149
f 231 230 244
f 245 231 244
f 328 327 662
f 648 662 327
f 1046 1053 714
f 877 714 1053
f 1034 1046 714
f 998 1034 714
f 29 28 52
f 53 29 52
f 997 996 1010
f 1022 1010 996
f 1052 1022 996
f 365 387 388
f 364 387 365
f 853 1030 746
f 746 1030 1054
f 234 233 247
f 248 234 247
f 855 746 1048
f 1054 1048 746
f 30 29 53
f 54 30 53
f 1052 1061 1021
f 1060 1021 1061
f 1022 1052 1021
f 366 388 389
f 365 388 366
f 844 788 927
f 929 844 927
f 744 1062 860
f 860 1062 1063
f 235 234 248
f 249 235 248
f 744 847 1071
f 1073 744 1071
f 30 54 55
f 31 30 55
f 1055 1057 877
f 877 1057 1069
f 1117 380 381
f 1122 381 370
f 907 1122 370
f 1117 381 1122
f 237 236 250
f 251 237 250
f 1076 1074 1060
f 1075 1074 1077
f 1076 1077 1074
f 1061 1076 1060
f 25 1 465
f 49 25 465
f 74 49 465
f 99 74 465
f 123 99 465
f 146 123 465
f 166 146 465
f 185 166 465
f 201 185 465
f 218 201 465
f 233 218 465
f 247 233 465
f 259 247 465
f 467 259 465
f 272 259 467
f 286 272 467
f 301 286 467
f 318 301 467
f 336 318 467
f 345 336 467
f 354 345 467
f 360 354 467
f 367 360 467
f 368 367 467
f 372 368 467
f 377 372 467
f 390 377 467
f 418 390 467
f 442 418 467
f 1078 1062 744
f 1073 1078 744
f 1121 1124 371
f 371 370 375
f 1124 370 371
f 906 370 1124
f 331 330 342
f 341 342 330
f 844 928 934
f 929 928 844
f 32 31 55
f 56 32 55
f 132 131 151
f 152 132 151
f 375 381 382
f 370 381 375
f 1075 1077 1083
f 1086 1075 1083
f 1084 1086 1083
f 1087 1086 1084
f 36 35 59
f 60 36 59
f 332 342 343
f 331 342 332
f 877 1070 1085
f 1069 1070 877
f 751 877 1085
f 133 132 152
f 153 133 152
f 39 38 62
f 63 39 62
f 933 847 844
f 1079 847 933
f 934 933 844
f 333 332 344
f 343 344 332
f 372 377 378
f 373 372 378
f 1102 959 878
f 869 878 913
f 913 878 959
f 135 155 156
f 136 135 156
f 40 39 63
f 64 40 63
f 1089 1020 858
f 719 858 1020
f 335 339 340
f 334 339 335
f 952 951 867
f 863 867 951
f 376 375 382
f 383 376 382
f 951 932 863
f 931 863 932
f 137 136 156
f 157 137 156
f 41 40 64
f 65 41 64
f 944 924 754
f 885 754 924
f 42 41 65
f 66 42 65
f 242 253 254
f 243 242 254
f 255 243 254
f 1100 1099 1101
f 1066 1101 1099
f 1097 1100 1101
f 1093 1097 1101
f 1092 1093 1101
f 1095 1092 1101
f 1091 1095 1101
f 1090 1091 1101
f 1067 1101 1066
f 444 443 467
f 445 444 467
f 442 467 443
f 446 445 467
f 447 446 467
f 448 447 467
f 449 448 467
f 450 449 467
f 451 450 467
f 452 451 467
f 453 452 467
f 454 453 467
f 455 454 467
f 456 455 467
f 457 456 467
f 468 457 467
f 458 457 468
f 459 458 468
f 460 459 468
f 461 460 468
f 462 461 468
f 463 462 468
f 464 463 468
f 43 42 66
f 67 43 66
f 943 754 863
f 943 863 931
f 138 137 157
f 158 138 157
f 378 377 390
f 391 378 390
f 139 138 158
f 159 139 158
f 843 855 889
f 888 889 855
f 916 843 889
f 244 256 257
f 245 244 257
f 140 139 159
f 160 140 159
f 43 67 68
f 44 43 68
f 1087 1084 1104
f 1105 1087 1104
f 1096 1087 1105
f 1103 1096 1105
f 141 140 160
f 161 141 160
f 337 336 345
f 346 337 345
f 1085 1081 751
f 1080 751 1081
f 379 378 391
f 392 379 391
f 916 908 843
f 142 141 161
f 162 142 161
f 45 44 69
f 70 45 69
f 862 860 1088
f 1063 1088 860
f 338 347 348
f 339 338 348
f 248 247 259
f 260 248 259
f 858 862 1111
f 1089 858 1111
f 47 46 71
f 72 47 71
f 144 143 163
f 164 144 163
f 1082 1106 751
f 880 751 1106
f 1080 1082 751
f 248 260 261
f 249 248 261
f 340 339 348
f 349 340 348
f 1105 1112 1103
f 1050 1049 1112
f 1103 1112 1049
f 48 47 72
f 73 48 72
f 147 146 166
f 167 147 166
f 945 1111 862
f 946 945 862
f 251 250 262
f 263 251 262
f 148 147 167
f 168 148 167
f 1088 947 862
f 946 862 947
f 50 49 74
f 75 50 74
f 1106 1102 878
f 880 1106 878
f 149 148 168
f 169 149 168
f 51 50 75
f 76 51 75
f 52 51 76
f 77 52 76
f 383 382 396
f 397 383 396
f 53 52 77
f 78 53 77
f 1112 1101 1050
f 1067 1068 1101
f 1059 1101 1068
f 1031 1101 1059
f 1024 1101 1031
f 1025 1101 1024
f 1043 1101 1025
f 1051 1101 1043
f 1050 1101 1051
f 383 397 398
f 384 383 398
f 54 53 78
f 79 54 78
f 920 993 873
f 991 873 993
f 385 384 398
f 399 385 398
f 992 1123 873
f 882 873 1123
f 991 992 873
f 441 464 468
f 403 441 468
f 389 403 468
f 366 389 468
f 359 366 468
f 353 359 468
f 344 353 468
f 333 344 468
f 317 333 468
f 300 317 468
f 285 300 468
f 271 285 468
f 258 271 468
f 246 258 468
f 466 246 468
f 232 246 466
f 217 232 466
f 200 217 466
f 184 200 466
f 165 184 466
f 145 165 466
f 122 145 466
f 98 122 466
f 73 98 466
f 48 73 466
f 24 48 466
f 252 264 265
f 253 252 265
f 150 149 169
f 170 150 169
f 55 54 79
f 80 55 79
f 153 152 171
f 172 153 171
f 254 253 265
f 266 254 265
f 925 923 882
f 921 882 923
f 930 925 882
f 881 882 921
f 948 930 882
f 953 948 882
f 961 953 882
f 1123 961 882
f 342 341 350
f 351 342 350
f 56 55 80
f 81 56 80
f 255 254 267
f 268 255 267
f 154 153 172
f 173 154 172
f 157 156 176
f 177 157 176
f 57 56 81
f 82 57 81
f 342 351 352
f 343 342 352
f 257 256 269
f 270 257 269
f 60 59 84
f 85 60 84
f 387 386 400
f 401 387 400
f 260 272 273
f 259 272 260
f 61 60 85
f 86 61 85
f 922 988 881
f 881 1008 1014
f 1007 1008 881
f 1006 1007 881
f 1003 1006 881
f 1002 1003 881
f 1000 1002 881
f 999 1000 881
f 995 999 881
f 988 995 881
f 921 922 881
f 388 387 401
f 402 388 401
f 826 828 1056
f 938 1056 828
f 261 273 274
f 260 273 261
f 1023 936 1129
f 940 1129 936
f 23 24 466
f 22 23 466
f 21 22 466
f 20 21 466
f 19 20 466
f 18 19 466
f 17 18 466
f 465 17 466
f 16 17 465
f 15 16 465
f 14 15 465
f 13 14 465
f 12 13 465
f 11 12 465
f 10 11 465
f 9 10 465
f 8 9 465
f 7 8 465
f 6 7 465
f 5 6 465
f 4 5 465
f 3 4 465
f 2 3 465
f 1 2 465
f 62 61 86
f 87 62 86
f 1044 826 1045
f 1056 1045 826
f 389 388 402
f 403 389 402
f 159 158 178
f 179 159 178
f 1013 1023 1128
f 1127 1023 1129
f 1128 1023 1127
f 1012 1013 1128
f 262 274 275
f 261 274 262
f 344 343 352
f 353 344 352
f 983 985 1011
f 1126 983 1011
f 62 87 88
f 63 62 88
f 161 160 180
f 181 161 180
f 782 826 1047
f 980 782 1047
f 263 275 276
f 262 275 263
f 1011 1012 1126
f 1128 1126 1012
f 346 345 355
f 354 355 345
f 163 182 183
f 164 163 183
f 162 182 163
f 881 1014 1107
f 1108 1107 1014
f 1015 1108 1014
f 418 408 390
f 404 390 408
f 391 390 404
f 412 408 418
f 419 412 418
f 347 355 356
f 346 355 347
f 64 63 88
f 89 64 88
f 892 903 881
f 748 881 903
f 1107 892 881
f 165 164 183
f 184 165 183
f 64 89 90
f 65 64 90
f 1125 729 978
f 971 978 729
f 975 971 729
f 66 65 90
f 91 66 90
f 819 824 957
f 958 819 957
f 1038 819 958
f 66 91 92
f 67 66 92
f 924 348 347
f 891 884 347
f 891 347 356
f 885 347 884
f 924 347 885
f 890 891 356
f 899 890 356
f 167 166 185
f 186 167 185
f 1089 417 424
f 1089 424 425
f 1111 417 1089
f 945 417 1111
f 1020 1089 425
f 1019 1020 425
f 1032 1058 1040
f 1040 1058 1065
f 1064 1040 1065
f 1033 1032 1040
f 1098 1040 1064
f 167 186 187
f 168 167 187
f 68 92 93
f 67 92 68
f 824 956 957
f 972 956 824
f 169 168 187
f 188 169 187
f 70 69 94
f 95 70 94
f 904 1116 748
f 865 748 1116
f 905 904 748
f 169 188 189
f 170 169 189
f 265 279 280
f 264 279 265
f 173 172 190
f 191 173 190
f 72 71 96
f 97 72 96
f 731 787 1119
f 1120 731 1119
f 1110 731 1120
f 1109 731 1110
f 1113 731 1109
f 266 280 281
f 265 280 266
f 174 173 191
f 192 174 191
f 267 266 281
f 282 267 281
f 1119 787 1121
f 1124 1121 787
f 175 174 192
f 193 175 192
f 75 74 99
f 100 75 99
f 176 194 195
f 177 176 195
f 787 1117 1122
f 1118 1117 787
f 1125 1118 787
f 729 1125 787
f 76 75 100
f 101 76 100
f 179 178 196
f 212 179 196
f 211 212 196
f 269 282 283
f 268 282 269
f 787 906 1124
f 907 906 787
f 1122 907 787
f 197 212 213
f 179 212 197
f 971 429 430
f 971 430 394
f 978 971 394
f 973 824 974
f 1001 974 824
f 836 1001 824
f 181 180 197
f 198 181 197
f 77 76 101
f 102 77 101
f 867 865 1114
f 883 1114 865
f 1115 883 865
f 183 182 199
f 216 183 199
f 215 216 199
f 270 283 284
f 269 283 270
f 200 216 217
f 183 216 200
f 867 909 952
f 912 909 867
f 1114 912 867
f 395 430 431
f 394 430 395
f 186 185 201
f 202 186 201
f 78 77 102
f 103 78 102
f 187 186 202
f 203 187 202
f 271 284 285
f 270 284 271
f 834 1113 1130
f 955 1130 1113
f 731 1113 834
f 960 1130 955
f 954 960 955
f 950 954 955
f 949 950 955
f 352 357 358
f 351 357 352
f 396 431 432
f 395 431 396
f 187 203 204
f 188 187 204
f 836 825 1001
f 989 1001 825
f 990 989 825
f 79 78 103
f 104 79 103
f 990 825 994
f 1133 994 825
f 353 358 359
f 352 358 353
f 397 396 433
f 432 433 396
f 825 834 1132
f 1131 825 1132
f 189 188 204
f 205 189 204
f 80 79 104
f 105 80 104
f 191 190 206
f 207 191 206
f 398 433 434
f 397 433 398
f 192 191 207
f 208 192 207
f 272 286 287
f 273 272 287
f 193 192 208
f 209 193 208
f 81 80 105
f 106 81 105
f 399 398 435
f 434 435 398
f 194 193 209
f 210 194 209
f 195 194 210
f 274 273 287
f 288 274 287
f 195 210 211
f 196 195 211
f 81 106 107
f 82 81 107
f 355 354 360
f 361 355 360
f 277 276 290
f 291 277 290
f 198 197 213
f 214 198 213
f 83 82 107
f 108 83 107
f 199 198 214
f 215 199 214
f 84 83 108
f 109 84 108
f 202 201 219
f 218 219 201
f 965 294 295
f 965 295 279
f 886 294 965
f 964 965 279
f 85 84 109
f 110 85 109
f 1116 324 323
f 1115 323 883
f 1116 323 1115
f 904 324 1116
f 325 324 904
f 280 279 295
f 296 280 295
f 88 87 112
f 113 88 112
f 888 427 889
f 897 426 427
f 897 427 888
f 898 426 897
f 401 438 439
f 400 438 401
f 281 280 296
f 297 281 296
f 903 326 325
f 903 892 326
f 905 903 325
f 904 905 325
f 402 439 440
f 401 439 402
f 403 440 441
f 402 440 403
f 362 895 356
f 893 356 895
f 894 356 893
f 896 895 362
f 284 283 298
f 299 284 298
f 340 349 909
f 912 340 909
f 88 113 114
f 89 88 114
f 287 286 301
f 302 287 301
f 287 302 303
f 288 287 303
f 900 428 901
f 908 428 900
f 916 428 908
f 889 428 916
f 427 428 889
f 90 89 114
f 115 90 114
f 379 393 910
f 911 379 910
f 289 288 303
f 304 289 303
f 90 115 116
f 91 90 116
f 917 393 918
f 910 393 917
f 290 289 304
f 305 290 304
f 921 512 922
f 511 922 512
f 923 512 921
f 92 91 116
f 117 92 116
f 93 92 117
f 118 93 117
f 393 407 929
f 928 929 407
f 927 393 929
f 926 393 927
f 918 393 926
f 290 305 306
f 291 290 306
f 416 415 422
f 423 416 422
f 931 932 348
f 349 348 932
f 943 931 348
f 944 943 348
f 924 944 348
f 95 94 118
f 119 95 118
f 292 291 306
f 307 292 306
f 407 933 934
f 928 407 934
f 419 418 442
f 443 419 442
f 416 417 945
f 946 416 945
f 947 416 946
f 420 419 443
f 444 420 443
f 96 95 119
f 120 96 119
f 349 932 951
f 952 349 951
f 909 349 952
f 421 420 444
f 445 421 444
f 587 591 954
f 950 587 954
f 294 310 311
f 1042 310 294
f 1042 294 887
f 913 499 914
f 503 914 499
f 959 499 913
f 97 96 120
f 121 97 120
f 957 551 958
f 956 551 957
f 422 421 445
f 446 422 445
f 591 604 960
f 954 591 960
f 295 294 311
f 312 295 311
f 100 99 123
f 124 100 123
f 901 428 429
f 975 429 971
f 902 429 975
f 901 429 902
f 423 422 446
f 447 423 446
f 296 295 312
f 313 296 312
f 973 974 551
f 554 551 974
f 972 973 551
f 956 972 551
f 101 100 124
f 125 101 124
f 915 503 919
f 914 503 915
f 424 423 447
f 448 424 447
f 425 424 448
f 503 512 992
f 991 503 992
f 993 503 991
f 297 296 313
f 314 297 313
f 559 989 990
f 994 559 990
f 102 101 125
f 126 102 125
f 554 974 1001
f 559 554 989
f 989 554 1001
f 426 425 448
f 449 426 448
f 920 503 993
f 919 503 920
f 297 314 315
f 298 297 315
f 103 102 126
f 127 103 126
f 427 426 449
f 450 427 449
f 299 298 315
f 316 299 315
f 550 581 1013
f 1012 550 1013
f 1011 550 1012
f 985 550 1011
f 984 550 985
f 997 550 984
f 997 496 550
f 1010 496 997
f 104 103 127
f 128 104 127
f 427 450 451
f 428 427 451
f 511 621 1008
f 1014 1008 621
f 1015 1014 621
f 299 316 317
f 300 299 317
f 496 1010 1022
f 528 496 1021
f 1021 496 1022
f 429 428 451
f 452 429 451
f 302 301 318
f 319 302 318
f 581 935 936
f 1023 581 936
f 1013 581 1023
f 430 429 452
f 453 430 452
f 665 1027 673
f 1026 1027 665
f 303 302 319
f 320 303 319
f 662 1026 665
f 1033 1026 662
f 1032 1033 662
f 1031 483 1024
f 998 538 471
f 986 538 998
f 1034 998 471
f 981 538 986
f 507 1034 471
f 673 1035 674
f 1027 1035 673
f 1044 1045 538
f 555 538 1045
f 1047 1044 538
f 980 1047 538
f 981 980 538
f 679 1037 694
f 1036 1037 679
f 483 1049 1050
f 1051 483 1050
f 674 1036 679
f 1035 1036 674
f 555 1045 1056
f 543 555 937
f 938 555 1056
f 937 555 938
f 1055 507 1057
f 1053 507 1055
f 1046 507 1053
f 662 648 1032
f 1058 1032 648
f 525 483 1066
f 1067 483 1068
f 1066 483 1067
f 543 937 939
f 966 543 939
f 507 479 1070
f 1069 507 1070
f 1057 507 1069
f 648 647 1058
f 1065 1058 647
f 1079 933 411
f 407 411 933
f 1072 1079 411
f 1071 1072 411
f 1073 1071 411
f 1078 1073 411
f 1016 1039 543
f 556 543 1039
f 1080 508 1082
f 1081 508 1080
f 1062 1078 415
f 411 415 1078
f 1062 415 416
f 1063 1062 416
f 1088 1063 416
f 947 1088 416
f 479 508 1081
f 1085 479 1081
f 1070 479 1085
f 543 966 967
f 1016 543 967
f 581 582 968
f 942 581 968
f 935 581 942
f 1021 1060 528
f 528 1060 1074
f 708 525 1091
f 1090 708 1091
f 1075 1086 528
f 530 528 1086
f 1074 1075 528
f 969 582 1018
f 968 582 969
f 1087 1096 530
f 483 530 1096
f 1086 1087 530
f 508 499 959
f 1102 508 959
f 1106 508 1102
f 1082 508 1106
f 1038 958 551
f 1039 1038 556
f 556 1038 551
f 694 1037 582
f 1017 582 1037
f 483 1096 1103
f 1049 483 1103
f 326 892 621
f 621 892 1107
f 1108 621 1107
f 647 310 1040
f 1041 1040 310
f 1098 647 1040
f 587 955 1113
f 363 587 1113
f 1109 363 1113
f 374 1029 1094
f 979 374 1094
f 1028 1029 374
f 1004 1028 374
f 1005 1004 374
f 379 1005 374
f 1009 1005 379
f 911 1009 379
f 976 374 979
f 976 362 374
f 896 362 977
f 977 362 976
f 1119 371 1120
f 1121 371 1119
f 1084 238 1104
f 1083 238 1084
f 238 708 1104
f 1105 1104 708
f 1112 1105 708
f 1101 1112 708
f 1090 1101 708
f 1077 239 238
f 1076 239 1077
f 1083 1077 238
f 1061 239 1076
f 240 239 1061
f 252 240 982
f 1052 240 1061
f 996 240 1052
f 987 240 996
f 982 240 987
f 394 380 1118
f 1125 394 1118
f 978 394 1125
f 252 983 1126
f 982 983 252
f 1128 252 1126
f 264 252 1128
f 1127 264 1128
f 940 264 1129
f 1127 1129 264
f 941 264 940
f 279 264 941
f 964 279 941
f 426 898 1048
f 1054 426 1048
f 1030 426 1054
f 970 426 1030
f 425 426 970
f 962 425 970
f 963 425 962
f 1019 425 963
f 604 559 994
f 1133 604 994
f 1131 604 1133
f 1132 604 1131
f 1130 604 1132
f 960 604 1130
f 512 961 1123
f 992 512 1123
