# https://github.com/mikedh/trimesh
v -1.99695952 -1.99388636 -0.89509906
v -1.99480254 -1.99732984 -0.79891457
v -1.99358780 -1.99837161 -0.56520148
v -1.99726374 -1.99544395 -0.29280632
v -1.99519832 -1.99712003 -0.03989784
v -1.98746068 -1.99313391 0.06164557
v -2.00165064 -1.93996168 -0.65255888
v -2.00060732 -1.85383213 -0.38820927
v -2.00221593 -1.94012524 -0.19343168
v -2.00226624 -1.95278979 -0.00828660
v -2.00286967 -1.89523161 -0.82342758
v -1.99378497 -1.78939856 0.02912315
v -1.99444706 -1.76237548 -0.89818682
v -2.00112350 -1.75796486 -0.09164035
v -2.00006086 -1.72101749 -0.59348728
v -2.00168855 -1.65804613 -0.79547592
v -2.00139815 -1.44086588 -0.15458589
v -1.99871738 -1.55814315 -0.89057907
v -1.99722511 -1.41508365 -0.03263069
v -2.00004036 -1.46655501 -0.50226840
v -2.00104673 -1.33195699 -0.76704468
v -1.99744637 -1.40384830 -0.89321252
v -2.00028450 -1.20886571 -0.28382500
v -1.99997289 -1.15731604 -0.50326951
v -1.99490625 -1.12137533 -0.89688804
v -1.99947221 -1.12544847 -0.08069614
v -2.00096423 -0.99382783 -0.77293535
v -1.99990446 -0.87149093 -0.48553832
v -2.00109322 -0.91885973 -0.14158607
v -1.98990757 -0.84531695 -0.10139767
v -1.99879200 -0.83281604 -0.88604631
v -2.00142128 -0.71525271 -0.79347446
v -2.00073368 -0.71394719 -0.24317101
v -1.99993784 -0.61313445 -0.50658058
v -1.99150545 -0.48478802 -0.15387791
v -1.99738962 -0.49018183 -0.89426806
v -2.00051171 -0.49188688 -0.69783642
v -2.00063068 -0.48572115 -0.23146368
v -2.00234754 -0.37104236 -0.84906836
v -2.00017960 -0.33040344 -0.42177527
v -1.99990732 -0.29305360 -0.63270631
v -2.00176270 -0.22469746 -0.26685919
v -2.00138027 -0.03551073 -0.82107248
v -1.99408395 -0.09083135 -0.89706644
v -1.99801309 -0.12435425 -0.20755394
v -2.00077326 -0.02756042 -0.36999198
v -2.00013215 -0.08672295 -0.61165323
v -1.99991424 0.11673798 -0.64618804
v -1.99953181 0.26075523 -0.26899787
v -2.00017626 0.26705270 -0.53057118
v -1.99749119 0.27219533 -0.89313104
v -2.00218184 0.38468199 -0.78145756
v -2.00007636 0.53211730 -0.56406244
v -1.98003752 0.42765646 -0.27653333
v -2.00102026 0.45614647 -0.32613309
v -1.99119312 0.63326704 -0.30938291
v -1.99876625 0.60109662 -0.89189287
v -2.00132091 0.68790673 -0.40270259
v -2.00146873 0.81984758 -0.79713186
v -2.00040752 0.78463577 -0.55867364
v -1.99815375 0.88709568 -0.89342996
v -2.00064475 1.03351425 -0.48059701
v -1.99821336 0.86179721 -0.34394222
v -1.99320371 1.09974491 -0.37778865
v -2.00093610 1.09108090 -0.78599229
v -1.97730667 1.08763146 -0.90058925
v -2.00051195 1.16017257 -0.88174596
v -2.00023563 1.18835067 -0.59151532
v -2.00093705 1.41805076 -0.78143390
v -1.99145443 1.29445552 -0.89810654
v -2.00079949 1.26918875 -0.41914397
v -1.99420530 1.37419926 -0.41463890
v -2.00097282 1.36268448 -0.46613132
v -2.00059969 1.46294784 -0.57720335
v -1.99688441 1.57411873 -0.89488240
v -1.99951036 1.54954743 -0.44884875
v -2.00181229 1.79864287 -0.66191765
v -1.98661143 1.62407040 -0.44509863
v -2.00321061 1.66412520 -0.85702159
v -1.99998982 1.73148870 -0.47264793
v -1.99509770 1.74171471 -0.89926775
v -1.99859554 1.87528896 -0.89108582
v -1.99906642 1.91070079 -0.50059589
v -2.00060374 1.99561357 -0.69461294
v -1.97790653 1.99871182 -0.88753488
v -1.99942333 1.99320816 -0.52006437
v -1.94667549 -2.00347329 -0.75365963
v -1.91354746 -2.00114764 -0.32564854
v -1.89324123 -1.91825307 -0.90324386
v -1.90302152 -1.45631183 -0.00460277
v -1.94461329 -1.40012778 -0.90142795
v -1.91324753 -1.13285435 -0.05083086
v -1.90299911 -1.15149862 -0.90300884
v -1.90877087 -0.70523874 -0.90175559
v -1.87123174 -0.47256552 -0.90093072
v -1.95660812 -0.23596516 -0.18079512
v -1.77649290 -0.22989347 -0.90078392
v -1.93835229 0.04597863 -0.90313055
v -1.93530244 0.06605711 -0.22121178
v -1.86775882 0.26864945 -0.24254931
v -1.92249496 0.49990152 -0.90107413
v -1.92448051 0.79537796 -0.90095582
v -1.84846539 0.64424812 -0.29262330
v -1.97366602 0.98226725 -0.35207563
v -1.93292923 1.24539792 -0.90137847
v -1.95720644 1.36245250 -0.40421995
v -1.90337450 1.47307300 -0.90099718
v -1.88890214 1.73472809 -0.90107562
v -1.91053910 1.84336161 -0.46631955
v -1.91136677 2.00324701 -0.62789740
v -1.87122686 -1.99855352 -0.89668205
v -1.82713980 -2.00099183 -0.59179982
v -1.92607195 -2.00229646 -0.07487365
v -1.93877358 -2.00373579 0.04111741
v -1.88724167 -1.98404551 0.07174540
v -1.84032924 -1.71736122 -0.90125652
v -1.84309239 -1.65966452 0.03103515
v -1.76260180 -0.90034033 -0.90055432
v -1.75933332 -0.80187992 -0.08025230
v -1.89543004 -0.53693152 -0.13174116
v -1.82691998 0.19893902 -0.90076288
v -1.90055174 1.00519704 -0.90076794
v -1.91448254 1.15974938 -0.37106701
v -1.94827230 1.50325917 -0.42330899
v -1.86650080 1.99838804 -0.48931327
v -1.84203727 0.95667755 -0.33585485
v -1.91775078 1.92929172 -0.90309443
v -1.74385292 2.00138854 -0.78730091
v -1.78767843 -0.19536085 -0.16908774
v -1.77641768 1.48602926 -0.40350341
v -1.74233300 1.79454826 -0.44218125
v -1.77371366 1.99388169 -0.89750125
v -1.74297578 -1.99997700 -0.41512941
v -1.80194397 -1.51633299 -0.90025475
v -1.77666182 1.22062611 -0.36610647
v -1.73357076 -2.00246836 -0.85095926
v -1.73021025 -1.99865557 0.07854825
v -1.67782409 -1.90856553 0.08411113
v -1.66450817 -1.23071087 -0.89990880
v -1.72697289 0.84917211 -0.90012332
v -1.71578664 1.90515994 -0.90198173
v -1.74079508 -2.00103248 -0.10336079
v -1.68796928 -0.65981419 -0.90002151
v -1.69027955 0.32496231 -0.90010085
v -1.77152032 1.15435850 -0.90024235
v -1.61990971 0.13352065 -0.19693445
v -1.66305072 -0.40714973 -0.12592932
v -1.66647274 0.56323843 -0.90010109
v -1.61141629 -1.73175920 0.06533574
v -1.68993802 0.45368134 -0.24942001
v -1.67596967 1.46243071 -0.90012308
v -1.62118299 0.90506744 -0.30514320
v -1.66150076 1.70889854 -0.90024712
v -1.57073052 1.93770622 -0.44252237
v -1.59056062 1.61805140 -0.40157168
v -1.46428365 2.00215387 -0.52586242
v -1.55075509 -1.41922975 0.02799152
v -1.63293893 -1.14527840 -0.01898954
v -1.59510405 -0.39133728 -0.89995881
v -1.59700198 -1.87431515 -0.90170290
v -1.63013370 -0.01134319 -0.90007403
v -1.58147235 -1.57210816 -0.89986446
v -1.52471728 -0.90654344 -0.89988907
v -1.55100603 1.11008977 -0.89994629
v -1.55430419 1.29364216 -0.89986249
v -1.52581198 -2.00064398 -0.76665255
v -1.56539924 -0.65011022 -0.08045060
v -1.54810030 0.64865505 -0.26109099
v -1.46327765 1.99625968 -0.44724905
v -1.51062424 -1.99983240 -0.54132195
v -1.58271594 1.29997861 -0.35616922
v -1.51695175 -1.99981225 -0.22621626
v -1.49247820 -2.00176144 0.05229784
v -1.51500005 -0.20040415 -0.13856173
v -1.52804787 0.17828190 -0.89982869
v -1.45833046 1.99851393 -0.88922413
v -1.46315689 0.70938610 -0.89996775
v -1.46704883 1.07850348 -0.31242054
v -1.39731485 1.40423714 -0.35039168
v -1.43115277 1.69749021 -0.89994975
v -1.51769955 -1.98807836 0.11043508
v -1.44065435 -1.08363886 -0.89992001
v -1.52751643 -0.83389229 -0.05421258
v -1.48230679 1.90219521 -0.90106877
v -1.49361426 -1.99300052 -0.89678272
v -1.54947788 -1.15079797 -0.01382494
v -1.46823032 0.97192024 -0.89997347
v -1.45566542 -1.31641657 -0.89993151
v -1.55618269 -0.98759247 -0.03978020
v -1.37987477 -0.07578216 -0.89986666
v -1.41723210 0.44816648 -0.89994498
v -1.37815578 0.49288975 -0.22067039
v -1.40019447 -1.80860055 -0.90026047
v -1.45651407 -0.98369391 -0.12987310
v -1.40664548 -0.63992364 -0.89993884
v -1.47018487 -1.12674428 -0.10206352
v -1.37201089 0.00793957 -0.15209421
v -1.40773244 1.70445227 -0.39325862
v -1.35586686 -1.44925798 -0.89991840
v -1.44893748 -1.37483538 0.02651140
v -1.46474619 -1.25139941 -0.05246890
v -1.32456452 -0.41018417 -0.08757385
v -1.39107747 2.00136851 -0.74245985
v -1.39534969 0.82034790 -0.26840006
v -1.22601301 -2.00094832 -0.01841572
v -1.26800043 -1.65212262 0.09202198
v -1.34074969 -0.84881050 -0.19416832
v -1.44881005 -0.67630733 -0.06474622
v -1.36353798 -0.36301717 -0.89993241
v -1.37644500 1.42559766 -0.89990970
v -1.34398086 0.11779740 -0.89991470
v -1.29998810 -1.95066477 -0.90183975
v -1.40205354 -0.70570738 -0.10263641
v -1.33325429 1.23380851 -0.89994981
v -1.34966011 -1.89575935 0.11818231
v -1.33629388 -1.35497774 -0.08329710
v -1.25878234 0.22085398 -0.16941618
v -1.22017855 -1.99986792 -0.55609997
v -1.24972875 -1.54611481 0.06900527
v -1.36407859 -1.20380557 -0.15640054
v -1.25671465 1.98381638 -0.89869644
v -1.31878109 -1.99897397 0.12132565
v -1.29480309 -1.65224565 -0.89986875
v -1.26580638 -1.17783893 -0.89998480
v -1.33037920 -0.54922604 -0.07221882
v -1.31034429 -1.05894674 -0.21945848
v -1.26309926 1.08382785 -0.29071014
v -1.25346131 1.61216079 -0.89996030
v -1.28799755 1.02888786 -0.89998688
v -1.14531202 1.88557409 -0.38848757
v -1.24685175 -1.99776841 -0.89450087
v -1.19648261 1.87963938 -0.90104975
v -1.15297289 -2.00206149 -0.81242087
v -1.27344818 -1.99996234 -0.30696838
v -1.23354203 -0.90420438 -0.89998629
v -1.21059043 -0.56491112 -0.13076913
v -1.16412789 -0.69416020 -0.89999386
v -1.17025013 -0.20995221 -0.09912349
v -1.25798280 0.53746318 -0.89998295
v -1.23337466 1.65618371 -0.36744510
v -1.09720428 2.00091075 -0.81083467
v -1.20529277 2.00067281 -0.59477510
v -1.19994731 -1.96849800 0.14516623
v -1.20704169 0.75186407 -0.89999648
v -1.13026185 0.84493815 -0.24261544
v -1.13344843 1.35480224 -0.89997419
v -1.20294363 -0.71928240 -0.21171094
v -1.17487151 0.26528000 -0.89999332
v -1.19427819 1.99356722 -0.41314068
v -1.12879474 -1.78027678 0.12588952
v -1.21773917 -1.50367332 -0.00625953
v -1.16929502 -1.76963807 -0.90020015
v -1.19609875 -0.87670983 -0.25832873
v -1.06454367 1.25355362 -0.29261636
v -1.17706377 -1.26760674 -0.20707979
v -1.15625698 -0.28628443 -0.89998080
v -1.07270832 1.13923513 -0.89999761
v -1.10603840 -1.99979008 -0.36529802
v -1.13004632 -1.44491304 -0.09848979
v -1.15708298 -1.07625241 -0.26851322
v -1.09527404 0.04903813 -0.12730487
v -1.09968478 1.52475225 -0.33449622
v -1.09249408 -1.52696813 -0.89993545
v -1.04586262 -0.47665169 -0.90000059
v -1.07765860 -0.09287203 -0.89999320
v -1.00276370 0.33934384 -0.15765350
v -1.01628155 -1.89621783 -0.90101024
v -1.08709044 0.55147123 -0.89999940
v -1.10283691 0.61386239 -0.20725935
v -1.05515463 0.88416814 -0.90000292
v -1.07949586 -2.00015748 -0.15371055
v -1.06952293 -1.99612690 0.15853561
v -1.08142192 -1.30145902 -0.89998456
v -1.00127692 -1.11128099 -0.90000369
v -1.05379350 -0.33556964 -0.07357633
v -1.04231710 -1.55889428 0.02486748
v -1.01372344 -0.92885793 -0.28478771
v -1.00636990 1.49021207 -0.89994528
v -0.96222938 1.99929785 -0.40244257
v -0.95000512 -0.35715119 -0.13582373
v -0.96510053 -2.00162340 -0.76879396
v -1.01353879 -1.16444070 -0.26253482
v -1.03906960 -0.94449521 -0.90000018
v -1.01485331 -0.16788539 -0.08749363
v -1.03475935 0.19283467 -0.90000381
v -0.97857685 -1.91502143 0.16242162
v -1.06670279 -1.61468948 0.10660754
v -1.01543481 -0.75933568 -0.26423975
v -0.98152716 -0.55757999 -0.21390334
v -0.95499206 1.69030832 -0.90006246
v -1.01032407 1.98827743 -0.89947917
v -0.93284012 2.00056504 -0.58665129
v -0.87807901 -1.99740756 -0.89106353
v -0.84636010 -2.00036944 -0.07054862
v -0.89483196 1.66822099 -0.33198874
v -0.91733343 1.92970919 -0.90153428
v -0.92631752 0.04225870 -0.90000083
v -0.99900789 -1.43227852 -0.12309132
v -0.98939902 -1.30541319 -0.20747837
v -0.88184113 -0.69389484 -0.90000173
v -0.91427774 -0.29246850 -0.90000238
v -0.90226264 1.00022780 -0.23931108
v -0.90518809 1.00781297 -0.90000226
v -0.95389146 -1.99993409 -0.52067914
v -0.89065260 -1.64158393 -0.90007999
v -0.91849346 0.35409235 -0.90000214
v -0.92180211 0.65149390 -0.19220903
v -0.86600602 -2.00006164 0.16803786
v -0.88675267 -1.29243303 -0.89999571
v -0.80682588 0.05197468 -0.09528296
v -0.94227893 1.41329645 -0.30153750
v -0.89463557 -1.99993254 -0.30813058
v -0.83583451 -1.47789682 -0.89997306
v -0.78823931 -1.71131862 0.15367805
v -0.89199210 0.61279767 -0.90000101
v -0.82932241 1.28357839 -0.89997991
v -0.88679803 -1.60190678 0.11997794
v -0.86460043 -0.86753631 -0.90000190
v -0.85296542 2.00106382 -0.82637151
v -0.83173687 1.84452247 -0.34850585
v -0.72097296 -2.00208486 -0.78699084
v -0.85674477 -1.51323379 -0.00557334
v -0.80004067 -0.11286131 -0.90000125
v -0.76994408 0.78761446 -0.19498529
v -0.83205510 -1.35952837 -0.14503991
v -0.75517709 -0.76287375 -0.26562845
v -0.77230591 0.78427600 -0.90000161
v -0.78675050 -1.17409635 -0.21820577
v -0.77627946 -1.00032813 -0.25549506
v -0.80311275 -0.59989975 -0.25323147
v -0.75286735 -0.08588896 -0.08013770
v -0.74007333 0.13733291 -0.90000095
v -0.73135186 -2.00002910 -0.61653992
v -0.75041170 -1.05523289 -0.90000250
v -0.76593436 -0.44117043 -0.90000161
v -0.73426420 1.40411448 -0.27741521
v -0.63470990 1.98885655 -0.35089817
v -0.60170562 1.99121856 -0.89844205
v -0.77145124 2.00122999 -0.47329416
v -0.68288333 -1.99986983 -0.42830001
v -0.80478699 -1.94673539 0.18576550
v -0.76708955 1.51329087 -0.89989861
v -0.70833636 -1.93314780 -0.90114435
v -0.78037656 -0.41274692 -0.21370577
v -0.68276001 0.37298839 -0.90000035
v -0.74944312 1.10495626 -0.90000018
v -0.71750093 -1.45843745 0.00423528
v -0.72104598 0.47016149 -0.15222778
v -0.70748956 1.74094152 -0.90008011
v -0.67895419 2.00031661 -0.66350599
v -0.70513506 -1.54766250 0.13622303
v -0.66405154 -0.21638437 -0.90000083
v -0.59282369 0.55699944 -0.90000012
v -0.71787763 -1.98601426 0.19898366
v -0.64403112 -0.78889085 -0.90000089
v -0.67032958 -0.57472419 -0.90000071
v -0.72346229 0.31704526 -0.12342795
v -0.65290678 -2.00176407 0.15477543
v -0.60998619 -1.34990669 -0.89997925
v -0.58708657 -0.13833112 -0.16812434
v -0.55734915 0.90322076 -0.18774823
v -0.61292160 -1.90471316 0.20095789
v -0.56261385 -1.81237877 -0.90049078
v -0.57313127 -1.58329070 -0.89995291
v -0.62555993 -1.22679056 -0.11677682
v -0.63515718 1.13300001 -0.22850516
v -0.58864082 -1.99990726 -0.25144201
v -0.52632458 -2.00003517 -0.03534630
v -0.59647847 -0.39143847 -0.23412665
v -0.46482206 -0.02552552 -0.90000012
v -0.55798311 -1.15154041 -0.89999612
v -0.60467721 0.78951596 -0.90000071
v -0.57937897 1.39804231 -0.89996996
v -0.53618319 1.66233944 -0.29185101
v -0.51017392 1.87432670 -0.31624060
v -0.54566885 1.87289166 -0.90135123
v -0.50637782 -1.99913538 -0.88972898
v -0.49218989 0.27354150 -0.90000000
v -0.62330348 0.14842128 -0.09590886
v -0.59732921 0.63703763 -0.17114817
v -0.54292900 1.11334263 -0.89999839
v -0.54755283 2.00102948 -0.82367178
v -0.55790234 -1.34977979 0.04000755
v -0.50176705 -0.97807945 -0.16398571
v -0.50641657 -0.97171498 -0.90000184
v -0.57485379 -0.53149731 -0.24991054
v -0.52126748 1.60531246 -0.89998224
v -0.56525774 2.00069760 -0.44110196
v -0.47637195 -0.61211973 -0.23780752
v -0.46119920 0.18058287 -0.15360296
v -0.55450208 -1.99446953 0.21607853
v -0.51430381 -1.64296938 0.17413063
v -0.54187066 -0.81859128 -0.22467721
v -0.43978790 1.35546362 -0.23819431
v -0.54395122 -1.42201067 0.13703231
v -0.51085205 -0.56869596 -0.90000018
v -0.51144553 -0.33297823 -0.90000012
v -0.57026500 0.05533751 -0.08808175
v -0.38240243 2.00016975 -0.62883981
v -0.34698881 -2.00073446 -0.74617275
v -0.37561292 0.30998706 -0.18137503
v -0.47070450 -1.99992371 -0.52807762
v -0.42013494 1.08359348 -0.19794363
v -0.35806740 -2.00138605 0.20706461
v -0.45017142 0.68961715 -0.15578004
v -0.35030488 -1.33762480 0.15035508
v -0.33801550 -1.06887502 0.00148096
v -0.30230666 0.40895092 -0.17942638
v -0.40981222 0.88427757 -0.90000000
v -0.34668300 -1.79536033 0.21368341
v -0.37784485 -0.72590856 -0.90000059
v -0.38950817 -0.32016542 -0.23138190
v -0.42707715 -1.99111677 0.23131754
v -0.41001437 -0.11426736 -0.19922373
v -0.28614379 0.63009690 -0.90000012
v -0.32890717 -2.00048781 0.07715207
v -0.38161994 -1.67437423 -0.90005752
v -0.36694995 -0.76914171 -0.17654674
v -0.36742843 -0.23478074 -0.90000000
v -0.22193242 0.86282765 -0.14498999
v -0.36352129 -1.99989498 -0.32703613
v -0.31519774 -1.91753996 -0.90190377
v -0.36417428 -1.54633678 0.17671716
v -0.36221183 -1.40508462 -0.89996078
v -0.34095807 -1.19978375 0.12768816
v -0.34552936 0.06404861 -0.16393309
v -0.31954754 -1.19214351 -0.89999201
v -0.35843334 -0.47549580 -0.90000000
v -0.31811605 1.16504072 -0.89998718
v -0.22879962 1.98341512 -0.30371188
v -0.34787626 1.99845289 -0.88928725
v -0.30200533 2.00094484 -0.40076407
v -0.33985192 1.44147228 -0.89994635
v -0.20830511 -0.40007092 -0.20644293
v -0.24734635 1.75573825 -0.90009811
v -0.16855305 -0.74685959 -0.08658697
v -0.26107929 0.42720937 -0.90000006
v -0.21425024 0.53133409 -0.14241225
v -0.18879791 -1.99086595 -0.89750441
v -0.19218267 -1.99990965 -0.14951414
v -0.29317970 -1.97840227 0.24549455
v -0.24241711 -1.04086561 -0.90000089
v -0.23880986 -0.00021077 -0.90000000
v -0.20248558 0.25683170 -0.90000000
v -0.22142179 1.47906529 -0.23153115
v -0.21330554 1.78271460 -0.27258163
v -0.26831431 1.97323512 -0.90092625
v -0.15839996 -0.55898625 -0.15802190
v -0.19885596 -2.00200749 0.19885055
v -0.21173067 -0.84692232 -0.90000065
v -0.19647136 0.64405083 -0.11248096
v -0.21608733 0.93509387 -0.89999940
v -0.18269637 1.18879890 -0.18656457
v -0.07118906 2.00011109 -0.52840605
v -0.14677232 -1.99994470 -0.46183934
v -0.17397899 -1.36702354 0.17254897
v -0.13888186 -0.22070303 -0.20987075
v -0.22546426 -0.12106157 -0.21340056
v -0.14810007 1.54953813 -0.89996060
v -0.16028544 -1.71630336 -0.90017708
v -0.21176399 -1.54301847 -0.89991661
v -0.12382171 -0.85783813 0.02509478
v -0.21019963 -0.54014895 -0.90000000
v -0.18379212 -0.32692673 -0.89999994
v -0.20489704 2.00130366 -0.83865376
v -0.14445373 -1.86063684 0.24551813
v -0.11280681 -1.34317017 -0.89996203
v -0.11974565 -1.14311457 0.14781047
v -0.09647899 -0.16978424 -0.90000000
v -0.19091492 0.06546842 -0.19199835
v -0.16772596 -1.63963545 0.21105331
v -0.09672151 1.38344084 -0.89997663
v -0.10576222 -2.00105823 -0.85533937
v 0.00928600 -1.48862089 0.20934560
v -0.03787140 -1.99668408 0.26663763
v -0.07627543 1.88780712 -0.90078976
v -0.03664579 -1.91221655 -0.90199467
v -0.09500855 -0.92147387 0.11423002
v -0.01385006 1.99864649 -0.89187708
v -0.03781709 2.00021767 -0.30976560
v -0.01931391 -2.00013364 -0.65949388
v 0.00978532 -2.00189496 0.16944636
v -0.01930214 -0.90673418 -0.90000143
v -0.03409103 0.58779519 -0.90000018
v -0.06640194 1.14076530 -0.89999743
v -0.03546502 -0.61512449 -0.90000012
v -0.02102392 0.12568318 -0.19022653
v 0.03234052 1.10346400 -0.15089273
v -0.04738510 0.75151836 -0.10951965
v -0.03470018 0.87959265 -0.90000059
v -0.03591070 1.40114128 -0.20016467
v 0.06970336 -1.73517061 0.25067223
v 0.00814029 -1.52361334 -0.89988198
v 0.00449744 -0.03285737 -0.90000000
v -0.01299307 0.17709272 -0.90000000
v 0.00357532 -0.95514757 0.13530668
v -0.02696512 0.37753384 -0.14503496
v -0.01913880 0.54582339 -0.08561601
v 0.02022359 1.62172507 -0.22488379
v 0.05777001 1.84552144 -0.25089753
v 0.05431947 2.00091838 -0.72020676
v 0.05998849 -1.93852890 0.27964506
v 0.01503900 -0.37077056 -0.89999994
v 0.03279496 0.34277009 -0.90000000
v 0.06296145 1.68454646 -0.90000530
v 0.05678220 -1.09791315 -0.89999785
v -0.00000994 -0.32559343 -0.16746501
v 0.17040101 -1.99342240 -0.89796158
v 0.07390508 -0.09239803 -0.20021904
v 0.10537700 -2.00004888 -0.08534648
v 0.08882753 -1.34224845 -0.89995535
v -0.01198998 -0.75531177 0.03762653
v -0.00222337 -0.84209029 0.11189141
v -0.00685328 -0.58477999 -0.07447921
v 0.15263701 -0.56772799 -0.90000006
v 0.11933251 -2.00071300 -0.80678709
v 0.10545912 -1.84502900 -0.90091850
v 0.16798758 -1.24677820 0.19386520
v 0.07904441 1.99251913 -0.27144598
v 0.13311727 -1.99991144 -0.40742638
v 0.14735890 -0.21691509 -0.90000000
v 0.12681778 0.39763462 -0.15497643
v 0.08266639 0.63872098 -0.08141584
v 0.18202937 0.81347226 -0.09279239
v 0.04773865 -0.81004290 0.04244862
v 0.10454815 -0.75331912 -0.04350454
v 0.09201683 -0.59839564 -0.11222630
v 0.13983227 -0.48243123 -0.16594987
v 0.13411552 0.68994354 -0.90000035
v 0.15488575 1.17252921 -0.89999493
v 0.14469474 -1.60974885 -0.90003302
v 0.16166117 1.96229338 -0.90085908
v 0.11667438 -0.99331702 0.14975966
v 0.19248762 -0.28614140 -0.20346627
v 0.22139696 0.06646209 -0.17472625
v 0.22893844 1.45810055 -0.89995422
v 0.23193172 1.32714450 -0.16036651
v 0.19190206 -1.02904511 0.10901193
v 0.22819044 0.15884488 -0.90000000
v 0.16872214 0.50438689 -0.90000006
v 0.26480634 1.57212364 -0.19107399
v 0.22094292 2.00087880 -0.31523897
v 0.15875908 -0.78058288 -0.90000089
v 0.34707271 -2.00030101 0.05212657
v 0.25648811 -0.96567787 -0.00924242
v 0.16947175 -0.02361209 -0.90000000
v 0.23889626 0.23780297 -0.17700112
v 0.19300603 0.87831210 -0.90000053
v 0.24026979 1.78211235 -0.90024229
v 0.32571965 1.06904494 -0.11371671
v 0.32358750 1.83522653 -0.22042856
v 0.20489120 -1.99876464 0.29549918
v 0.25327101 -1.21804357 -0.89999523
v 0.28550386 -0.92620827 -0.90000179
v 0.33961727 2.00190782 -0.82917239
v 0.35133459 -1.87974788 0.30318342
v 0.35584181 -1.47924722 -0.89994337
v 0.33166235 -0.79053090 -0.13908609
v 0.32582589 -0.44182635 -0.89999994
v 0.32525461 1.98760175 -0.24297296
v 0.32043030 -1.73430730 -0.90012546
v 0.31760814 -1.62344290 0.26211039
v 0.35512068 -2.00006033 -0.59695389
v 0.32111140 -1.99993158 -0.26338395
v 0.28066320 -1.20497371 0.19746243
v 0.31036603 -0.15517112 -0.19886296
v 0.39586129 0.70107352 -0.12348487
v 0.33396526 -1.95778359 -0.90202340
v 0.28822090 0.33866262 -0.90000000
v 0.32427894 2.00000714 -0.52626308
v 0.38558822 -2.00118543 -0.81314524
v 0.39127281 0.86273967 -0.07946677
v 0.37689259 -0.71749163 -0.90000030
v 0.34450339 0.61976241 -0.90000012
v 0.34483402 1.99747347 -0.89537891
v 0.34187137 -2.00218404 0.29278178
v 0.30273437 -1.98974098 0.31316383
v 0.37202706 -0.61889529 -0.19533057
v 0.37978124 1.07231020 -0.89999952
v 0.35006281 1.31916832 -0.89997729
v 0.45593452 0.43664139 -0.15728140
v 0.51239311 1.70186400 -0.90009983
v 0.41302412 1.91760945 -0.90123661
v 0.37015169 -1.22725851 0.12512491
v 0.42102738 -1.01050849 -0.08841347
v 0.44831233 -0.44623898 -0.21596604
v 0.44623043 -0.07000158 -0.90000000
v 0.41598277 0.04619082 -0.12388176
v 0.50094756 0.23636310 -0.13277865
v 0.48085260 0.86655187 -0.90000101
v 0.51224794 -1.99992622 -0.34218918
v 0.39520826 -1.44564403 0.24645770
v 0.51255443 -0.91566712 -0.90000125
v 0.49417519 -0.10780735 -0.15379394
v 0.47766685 0.38148355 -0.90000000
v 0.46187761 2.00044607 -0.69312277
v 0.57208579 2.00073122 -0.31395536
v 0.39085822 -1.99211908 0.32121421
v 0.46750104 -1.25720180 -0.89999273
v 0.46518903 -1.07786150 -0.90000161
v 0.47379326 1.36884307 -0.13954107
v 0.58882945 -1.99810494 -0.89101692
v 0.47499167 -1.21033109 -0.00004401
v 0.44201373 -0.23849774 -0.90000000
v 0.45753717 0.14504766 -0.90000000
v 0.55686461 -1.99996103 -0.05694063
v 0.47371607 -1.41152907 0.23938847
v 0.53752541 -0.67239071 -0.90000012
v 0.58953326 -0.37928053 -0.20200210
v 0.49034321 -1.99062026 0.33044277
v 0.58829432 -1.85857893 0.32665936
v 0.54570108 -1.63600434 0.28971965
v 0.55229562 -1.69221700 -0.89998736
v 0.51577698 -1.40147460 0.15629385
v 0.51792624 0.64990281 -0.90000018
v 0.57434755 1.14203989 -0.09617437
v 0.54024296 1.44125795 -0.89996561
v 0.61792152 1.99306749 -0.21195822
v 0.61100202 -0.48441362 -0.90000006
v 0.56842279 1.99297642 -0.89752795
v 0.59247988 -2.00113762 0.23616044
v 0.57741003 -0.66800044 -0.21972931
v 0.59899323 0.64708363 -0.14447016
v 0.58306348 1.18033706 -0.89999881
v 0.57128381 1.78197836 -0.18612062
v 0.58034723 -1.94480146 -0.90092256
v 0.57320773 1.57114052 -0.15707277
v 0.52971347 1.95153927 -0.90202989
v 0.56504207 -0.94611866 -0.17411966
v 0.74783372 2.00144815 -0.84104075
v 0.55496573 -1.52251364 0.27192397
v 0.62387472 -1.18107600 -0.11160225
v 0.67545169 -1.14737106 -0.90000006
v 0.65513062 -0.86394907 -0.21224872
v 0.59542852 0.00210699 -0.06700654
v 0.66088390 -1.99997915 -0.57747789
v 0.60511833 0.10773014 -0.05458144
v 0.70552879 1.99998044 -0.62887104
v 0.63530683 -2.00160409 -0.81561627
v 0.66464930 -1.55703677 -0.89991530
v 0.61522811 -1.38779474 0.02597744
v 0.62188726 -1.35321141 -0.89997174
v 0.62088703 -0.21616579 -0.90000012
v 0.66102170 0.44816726 -0.90000018
v 0.67754018 0.90290271 -0.11451670
v 0.75632548 1.12891959 -0.07699878
v 0.82260417 -1.99109591 0.36755452
v 0.69234144 -1.55999626 0.16606661
v 0.65652417 0.01992699 -0.90000012
v 0.73313879 1.31435429 -0.89998748
v 0.69334834 0.24379157 -0.90000018
v 0.79180025 -1.99993289 -0.39879214
v 0.75539385 1.90983915 -0.90135100
v 0.75967746 1.90279340 -0.18114049
v 0.71627282 -1.62468780 0.28530363
v 0.70773023 -0.32010489 -0.16349230
v 0.69356685 0.68557119 -0.90000018
v 0.71608596 -0.94758744 -0.90000077
v 0.73576932 0.56763350 -0.12491701
v 0.75643068 1.35632121 -0.10648444
v 0.76227348 1.59855627 -0.89999201
v 0.78249585 -1.09179605 -0.20064966
v 0.80465995 -0.21885013 -0.08208157
v 0.79032718 0.28125983 -0.03202367
v 0.75959407 0.84114443 -0.89999988
v 0.82248264 0.98491096 -0.89999886
v 0.76340955 -1.99996007 -0.00198932
v 0.82229458 -1.86290837 0.35305423
v 0.82209747 -1.72922994 0.33276529
v 0.75701856 -0.72911642 -0.22723309
v 0.78270649 -0.07764603 -0.90000018
v 0.75899642 0.02619659 0.06220600
v 0.86659955 0.14633518 -0.90000077
v 0.82787441 1.70304703 -0.14730298
v 0.76189881 -1.90227152 -0.90102037
v 0.73573213 -0.71230743 -0.90000030
v 0.82409101 -0.29279664 -0.90000059
v 0.76067143 1.99249696 -0.89880933
v 0.85482084 -0.09903470 0.03492508
v 0.77361172 0.10337623 0.05165965
v 0.90768843 0.85391843 -0.11692984
v 0.82937693 1.53534280 -0.12367955
v 0.91226374 2.00008320 -0.47072255
v 0.77675521 -1.48469997 0.00020384
v 0.78220802 -1.30968464 -0.12914643
v 0.80778699 -1.26160634 -0.89999755
v 0.85185825 -1.51576496 -0.89997264
v 0.93869393 -0.54171892 -0.90000053
v 0.89238232 1.15304052 -0.89999064
v 0.97115391 -2.00035597 -0.66444977
v 0.86627691 -1.99920131 -0.88647958
v 0.85108935 -0.50185367 -0.17928565
v 0.87712621 0.53064578 -0.08037101
v 0.84547036 0.53068536 -0.90000101
v 0.79860657 -2.00255454 -0.84890833
v 0.92644673 -2.00114132 0.28614617
v 0.89372378 -1.75431515 -0.90012332
v 0.89967548 -0.75764949 -0.90000119
v 0.88516330 1.09263395 -0.09873891
v 0.90983843 -1.69544376 0.32575930
v 0.96616142 1.87491893 -0.90113624
v 1.02429043 -1.99991585 -0.27724879
v 0.87254756 -1.64760626 0.19639025
v 0.90895223 -1.05404610 -0.90000274
v 0.92651194 -0.97350366 -0.23537540
v 0.86914902 0.03960674 0.09124215
v 0.98582744 -0.78568230 -0.21843888
v 0.92497443 0.33831929 -0.90000065
v 1.00403421 2.00119852 -0.26642950
v 0.88997423 -1.26687545 -0.18056863
v 0.97021162 -1.99998189 0.00737608
v 0.99285673 0.33677529 0.05993719
v 0.94048815 1.99795126 -0.89107611
v 0.94188630 -1.58689190 0.05943039
v 0.89730000 -1.44557930 -0.07892734
v 1.02710729 -0.04258592 -0.89999982
v 0.97358894 0.71922540 -0.90000137
v 1.00903796 1.52604818 -0.89986285
v 1.06475406 -1.18785591 -0.21426775
v 0.95624434 -0.09987844 0.11606272
v 0.96117597 1.32816326 -0.89993694
v 0.92449575 1.99807428 -0.18381660
v 1.05070107 0.55800711 -0.01515525
v 0.97803169 1.28887045 -0.07333831
v 1.07313280 -1.99713255 -0.88840910
v 1.05099910 -1.35132743 -0.15227973
v 0.99760794 -1.30027253 -0.89999422
v 1.03675895 -0.84507988 -0.90000190
v 0.99989849 0.20120519 0.08297262
v 1.11518567 0.47864252 -0.90000179
v 0.98886108 1.94387912 -0.16130140
v 1.06722253 -1.92980648 -0.90118983
v 1.15644615 -0.64755262 -0.13409849
v 1.05085164 1.43778597 -0.08555311
v 1.05946474 -1.55907131 -0.89997246
v 1.08160572 -0.44406567 -0.06418969
v 1.07192200 -0.30393594 0.03653288
v 1.04947083 0.87796795 -0.90000083
v 1.00617253 1.64725613 -0.11997120
v 1.05876260 1.73591398 -0.90031161
v 1.08659523 2.00034498 -0.70707377
v 1.03877979 -1.93000401 0.38708601
v 1.02189480 -1.67265142 0.21700872
v 1.13076966 1.76609658 -0.12275921
v 1.06840043 -1.49702419 -0.04609678
v 1.09491496 -0.32713768 -0.90000101
v 1.08865135 -0.10196305 0.13497839
v 1.14649051 -1.77123619 0.37437440
v 1.10041218 -1.07258315 -0.90000024
v 1.17105585 0.86057114 -0.06094724
v 1.07945626 1.14203059 -0.08819699
v 1.10472196 1.98996233 -0.89873632
v 1.12016015 2.00287079 -0.84880998
v 1.16811448 -2.00012720 0.08345600
v 1.19827514 -2.00253011 0.30668489
v 1.17653625 -1.99666310 0.39984668
v 1.11472671 -1.78825928 -0.90029188
v 1.16236799 -1.04174490 -0.22235798
v 1.13821965 1.04814338 -0.89999743
v 1.10580151 1.99341964 -0.16249812
v 1.10665887 0.30727332 -0.89999928
v 1.18956726 1.34408449 -0.89995047
v 1.25099676 -1.62533546 0.21224667
v 1.11309617 -1.60668398 0.08891175
v 1.17584031 -0.62586834 -0.89999904
v 1.22023218 0.27099173 0.09666579
v 1.15151744 -2.00302447 -0.84998973
v 1.14696222 -1.69970013 0.35053767
v 1.23163062 2.00000166 -0.43523478
v 1.19542389 -1.34318639 -0.89997633
v 1.15534406 -0.27350267 0.15606216
v 1.21967583 0.65897643 -0.89999124
v 1.19898408 -0.89698888 -0.89999511
v 1.18107658 1.24618875 -0.04688427
v 1.28219371 1.43347990 -0.05955294
v 1.31113904 -1.99985684 -0.50013526
v 1.27210026 0.23980909 -0.89998772
v 1.20614713 0.61944406 0.03954386
v 1.19384306 1.04406320 -0.07232394
v 1.33693486 1.87987970 -0.90109839
v 1.21377235 -0.87548486 -0.19455848
v 1.25496345 1.94230770 -0.13208285
v 1.27747302 -1.55896796 -0.89991709
v 1.29551177 -0.24752478 0.17757300
v 1.26832133 -0.07132141 -0.89998659
v 1.28155404 1.99633431 -0.88417544
v 1.39821630 -2.00171257 -0.79487809
v 1.31412535 -1.89372874 0.41129030
v 1.25283330 -1.46737111 -0.02221154
v 1.24746769 -1.28893907 -0.14363771
v 1.33213132 0.48638987 0.07881457
v 1.32605987 1.58127343 -0.89992174
v 1.29514664 1.99749588 -0.14201897
v 1.32339840 2.00167226 -0.21878212
v 1.31338828 -1.99988378 -0.18063324
v 1.38114529 -1.78046716 -0.90020134
v 1.29953747 -1.13408793 -0.89997520
v 1.27843218 -0.53298318 0.00587270
v 1.33744054 -0.46960832 0.13555356
v 1.41834801 2.00021266 -0.62546684
v 1.53446298 -1.67352415 0.40337206
v 1.27300613 -0.32114086 -0.89999350
v 1.33028477 0.85749506 -0.89998098
v 1.39322560 1.12254190 -0.89995851
v 1.31559925 -1.13885284 -0.16065758
v 1.39168995 -0.75020484 -0.89996489
v 1.35878687 -1.62644411 0.37149934
v 1.35661667 -0.49011330 -0.89997699
v 1.36174076 0.04119944 0.14406521
v 1.37010770 1.60997152 -0.07474396
v 1.41928332 -1.99845267 -0.88994541
v 1.38915878 0.45391350 -0.89996906
v 1.43577414 -1.99993969 0.12908780
v 1.38041120 -0.84390370 -0.11160756
v 1.41205781 -0.46808539 0.21973614
v 1.36875480 0.79069614 0.03831405
v 1.34193569 1.03174340 -0.00666340
v 1.38881700 1.35358440 -0.89993801
v 1.35701328 -1.95772494 -0.90137245
v 1.37415784 -1.36448527 -0.03318205
v 1.38451200 -0.98556412 -0.13325406
v 1.39450555 -1.47560168 0.08356999
v 1.37441950 -0.69608218 -0.04678065
v 1.46983414 1.79154848 -0.08896454
v 1.39832597 1.98939942 -0.89989253
v 1.48207848 -0.30009221 -0.89997455
v 1.40827375 1.15415024 -0.00692610
v 1.46384733 -0.11021970 0.17642320
v 1.42563455 0.08220752 -0.89996501
v 1.43010049 0.63947021 -0.89993062
v 1.42791360 -1.40480829 -0.89989944
v 1.49988716 2.00044202 -0.31416773
v 1.48184948 -2.00204802 0.33842064
v 1.48580795 -1.99532653 0.43905566
v 1.43371015 -1.18303878 -0.07760092
v 1.48644071 -1.01195795 -0.89994361
v 1.53564434 0.24315559 0.13477676
v 1.50585597 0.61227559 0.08010285
v 1.50845235 1.70156764 -0.90006902
v 1.52886789 -1.42754758 0.21644720
v 1.52365809 -0.10113243 -0.89997586
v 1.52974897 0.92522608 0.03892858
v 1.50479751 2.00218391 -0.84590413
v 1.51448267 1.99890732 -0.12928278
v 1.53502553 -2.00011087 -0.63455554
v 1.60365074 -1.99984599 -0.37699320
v 1.58883791 -1.99985278 -0.04139251
v 1.55481248 -1.60433138 -0.89981731
v 1.48980194 -0.85822190 -0.02956139
v 1.52189713 1.92192744 -0.10033881
v 1.58718079 -1.92076100 0.44584073
v 1.51435047 -1.30042584 0.05359734
v 1.47846299 -0.72453559 0.02318848
v 1.60028320 -0.45653547 0.24051199
v 1.51737171 0.85160815 -0.89995750
v 1.58398848 -1.30892570 -0.89984485
v 1.55829173 -0.60174189 -0.89991995
v 1.51931458 0.22953360 -0.89992621
v 1.59430724 1.99232101 -0.89915665
v 1.56121581 -1.14624138 0.03700353
v 1.54342621 -0.65767960 0.17997474
v 1.60768633 0.07301267 0.16670669
v 1.57236247 1.22357415 0.00151564
v 1.59525435 1.50723158 -0.03564732
v 1.57987194 -1.85927201 -0.90129813
v 1.53234582 -1.49402750 0.37531395
v 1.66860013 -0.84452064 -0.89996322
v 1.63686090 0.46623652 -0.89995219
v 1.55708378 -1.01099015 0.01326011
v 1.73777752 -0.18241680 0.21664757
v 1.57803231 1.43521260 -0.89987209
v 1.67297929 2.00048732 -0.72656061
v 1.58232825 -0.82595018 0.09946214
v 1.69339281 0.41656905 0.12789004
v 1.63627046 -1.99713326 0.43892930
v 1.63156252 -1.26509989 0.23680846
v 1.69189566 -1.08081091 -0.90010377
v 1.61180668 -0.68570793 0.27096538
v 1.73975473 0.00774073 -0.90011396
v 1.63398903 0.65854644 -0.89998676
v 1.63727444 -1.33123768 0.35724891
v 1.65702837 -0.45631525 -0.90001901
v 1.64986484 1.08677827 -0.89998337
v 1.64929789 1.87683581 -0.90130188
v 1.73162680 -1.39014603 0.38601635
v 1.77376752 -0.27517196 -0.90025177
v 1.73576229 0.26917934 -0.90003916
v 1.69359272 -1.99753893 -0.88883193
v 1.66958230 -1.02938522 0.21473546
v 1.80483287 0.81259107 0.08530540
v 1.71827310 2.00008129 -0.44390499
v 1.73017269 -2.00153769 -0.71515586
v 1.64314144 -0.78327442 0.25645594
v 1.70601373 1.06916260 0.03806069
v 1.71682423 2.00110482 -0.15993432
v 1.79457777 -2.00022090 -0.19478189
v 1.71584587 -2.00106479 0.26102061
v 1.71806233 -1.51853801 -0.90005507
v 1.77526002 -0.67222837 0.29038970
v 1.73225074 1.33008932 -0.90007152
v 1.76344746 1.83736657 -0.06228110
v 1.82014637 0.87395572 -0.90092399
v 1.76859777 1.35875069 0.00450304
v 1.81804567 -1.77088881 -0.90179964
v 1.72954529 -0.84547392 0.30960471
v 1.80369203 1.67867946 -0.90056851
v 1.75304776 2.00248574 -0.86063703
v 1.73464089 1.98985767 -0.08907852
v 1.74448388 -1.99675227 0.47078810
v 1.69694858 -1.18467946 0.34974391
v 1.70249920 -0.96057803 0.31535003
v 1.79779201 -0.40857568 0.25537319
v 1.83282667 -1.23638327 -0.90076306
v 1.83147591 -0.54390716 -0.90039077
v 1.86286610 0.10296326 0.19186326
v 1.82216924 0.62616038 -0.90083518
v 1.91468876 -1.31847967 0.39723087
v 1.84826034 -1.82483042 0.46074052
v 1.85825317 -0.95703275 -0.90086379
v 1.88770502 -2.00173999 0.11920101
v 1.90958672 -2.00318814 0.42145337
v 1.90860658 1.66822814 -0.02185682
v 1.85485309 1.99671005 -0.89512940
v 1.87249618 0.28792428 0.16706870
v 1.90422087 -1.60130168 0.43473900
v 1.92910021 0.27672272 -0.90118983
v 1.92045491 0.47433697 0.14642883
v 1.89822333 1.08255338 -0.90112712
v 1.90161519 1.21704435 0.04044362
v 1.88711386 1.92089605 -0.90234085
v 1.90766757 2.00215792 -0.49922892
v 1.89141386 -2.00309194 -0.85152080
v 1.90758245 -0.90529300 0.33827556
v 1.93202310 -0.23167230 0.24675257
v 1.93731647 2.00247978 -0.74488374
v 1.90458792 -1.45675422 -0.90238490
v 1.94544642 1.41844069 -0.90121802
v 1.88846438 2.00068139 -0.08469597
v 1.93218344 -2.00165356 -0.61475231
v 1.93397146 2.00203919 -0.20768570
v 1.93995696 -1.98103464 -0.90126266
v 1.94464331 -2.00115598 -0.30640065
v 1.92168944 -1.99456752 0.49020390
v 1.96628695 -0.98378677 -0.90128978
v 1.94329553 -0.65599359 -0.90127202
v 1.95778280 -0.53005318 0.29092420
v 1.94156294 -0.11285330 -0.90120997
v 1.93994921 1.43761217 0.01412416
v 1.94456213 1.96245312 -0.05823862
v 1.94750994 0.56301664 -0.90278574
v 1.95268553 1.02702831 0.07365867
v 1.99035876 -1.64848638 -0.89741459
v 1.96550112 -0.36853060 -0.90128180
v 1.96930771 -1.13816214 0.37858788
v 1.99943262 -0.47789637 0.27587894
v 1.99759739 -0.18830282 -0.88446601
v 1.99554258 1.15970563 -0.88996997
v 1.96701591 2.00039267 -0.89457878
v 1.99322050 1.99669217 -0.45247289
v 1.99383526 -1.99806953 -0.73914941
v 1.99694281 -1.26758815 0.37754867
v 1.98704081 -1.05239249 0.36613519
v 1.99150985 0.68554150 0.12275911
v 1.98910289 0.92228543 0.08780447
v 1.98858922 1.74352645 -0.89912268
v 1.98975521 -1.99920250 -0.86961587
v 1.99501663 -1.99784387 0.01243678
v 1.98446207 -1.65706468 0.45262880
v 1.98872071 -1.59317232 0.44250880
v 1.99235099 -1.39092172 -0.89916613
v 1.98962121 -1.52802528 0.43240447
v 1.99539643 -1.15102959 0.37606035
v 1.99374442 -0.95439542 0.35196475
v 2.00003450 -0.66748003 -0.88272949
v 1.99369150 -0.07422880 0.22815611
v 1.99272244 0.11869567 0.20062318
v 1.99787074 0.22081851 -0.89386656
v 1.98817997 0.22866391 0.18594756
v 1.98734944 0.31021612 0.17652098
v 1.99283080 0.38093602 0.16469795
v 1.99663287 0.44825201 0.15079927
v 1.99875789 0.57759445 0.12653170
v 1.99353581 0.63862883 -0.89811536
v 1.98858624 1.00370585 -0.90039994
v 1.99098878 1.17302441 0.05256953
v 1.99131542 1.33459210 0.03007645
v 1.99973398 1.36383771 -0.89211186
v 1.99629407 1.45040118 -0.00261707
v 1.99324613 1.63118981 -0.01227136
v 1.99679702 1.95465826 -0.89645173
v 1.99420278 1.99910473 -0.85504307
v 1.99874120 1.98849987 -0.08221537
v 1.99816041 -1.99242223 -0.40892800
v 1.99692326 -1.99882711 0.38706479
v 1.99880259 -1.99062956 0.49680898
v 1.99841862 -1.86164380 0.47729201
v 1.99847978 -1.85993052 -0.89857044
v 1.99394517 -1.71038307 0.45808471
v 1.99744790 -1.44018126 0.41687129
v 1.99827378 -1.19684804 -0.89225330
v 1.99872487 -1.05316938 -0.89188930
v 2.00034767 -0.92927284 -0.88894596
v 1.99935561 -0.79719526 -0.89194097
v 1.99764829 -0.82864866 0.32955650
v 1.99456566 -0.56789046 -0.89669349
v 1.99760144 -0.42826630 -0.89510151
v 1.99795418 -0.24726125 0.24362103
v 1.99849611 0.00067698 -0.89571073
v 1.99959295 0.44602775 -0.88781568
v 1.99085658 0.81687450 0.10597991
v 1.99407046 0.83493399 -0.89818051
v 2.00056737 1.51699673 -0.88667931
v 2.00004833 1.85219430 -0.05625087
v 1.99802869 1.99496602 -0.66501721
v 1.99831598 1.99529242 -0.21378697
v 2.00229054 -1.95461143 -0.79817065
v 2.00162273 -1.93888677 -0.59907897
v 2.00129919 -1.90884615 -0.22745872
v 2.00052064 -1.86914457 0.05887763
v 2.00185864 -1.88515366 0.30553622
v 2.00119346 -1.75187612 -0.76321902
v 1.99991255 -1.64262701 -0.35383185
v 2.00256269 -1.74653233 0.42146687
v 2.00022726 -1.67363442 -0.53730436
v 2.00005405 -1.72749759 -0.09618201
v 2.00006359 -1.56646980 0.22602845
v 1.99986928 -1.54140151 -0.13307834
v 2.00125842 -1.58455540 0.42965198
v 2.00141483 -1.50268663 -0.85285564
v 2.00219303 -1.51161111 0.37358794
v 2.00021511 -1.41335917 -0.67473110
v 1.99996989 -1.36312325 0.08541315
v 1.99991184 -1.36901719 -0.13969227
v 1.99993818 -1.30051792 -0.36537178
v 2.00152200 -1.22257090 0.27284978
v 2.00152140 -1.27786202 -0.84039827
v 2.00130384 -1.08679242 -0.80343064
v 1.99990242 -1.14330406 -0.21133593
v 1.99997025 -1.13439102 -0.51206335
v 2.00011342 -1.10844935 0.07613884
v 1.99988406 -0.87389437 -0.34026145
v 1.99994116 -0.97128392 -0.08099939
v 2.00123887 -0.81462029 0.20419919
v 1.99998634 -0.90477724 -0.58630534
v 2.00246208 -1.00209082 0.33872608
v 2.00065523 -0.75781322 -0.71020540
v 2.00306433 -0.90965433 0.31288151
v 2.00001471 -0.76558126 -0.03779518
v 1.99990433 -0.62631475 -0.44655051
v 1.99993019 -0.63504098 -0.20360344
v 2.00148957 -0.58378135 -0.80909624
v 2.00207000 -0.41205204 0.17777141
v 2.00007420 -0.49206496 -0.62510993
v 2.00002020 -0.55853251 0.02961006
v 2.00143950 -0.39250200 -0.79949596
v 1.99989360 -0.40954650 -0.27121811
v 2.00014513 -0.37300485 -0.01523994
v 1.99984425 -0.33919225 -0.48064168
v 2.00157922 -0.30186009 -0.88724782
v 1.99992638 -0.16496950 -0.56753941
v 1.99985807 -0.16994874 -0.21047520
v 2.00025421 -0.14209401 0.01314856
v 2.00188713 -0.02992345 0.16420109
v 2.00198954 -0.09719057 -0.81319662
v 2.00019758 0.06495263 -0.63996144
v 1.99983900 0.10119929 -0.34916916
v 2.00014429 0.11998474 -0.06607018
v 2.00225561 0.15200483 -0.82419815
v 2.00060063 0.33416539 -0.71283539
v 2.00147860 0.34427237 0.11943024
v 1.99991970 0.32709896 -0.37156366
v 2.00004285 0.42005437 -0.13477523
v 2.00002902 0.51133256 -0.56106379
v 1.99982267 0.64565181 -0.37289857
v 2.00097733 0.58963745 -0.01178863
v 2.00115078 0.58596652 -0.82160171
v 2.00065701 0.78424226 -0.74817171
v 2.00020008 0.75610947 -0.18145179
v 2.00194829 0.77794730 0.07566416
v 2.00092142 0.94879769 -0.03679689
v 1.99987798 0.90577041 -0.31513750
v 2.00011115 0.97019338 -0.57562121
v 2.00024777 0.91298365 -0.89106925
v 2.00134735 0.99107825 -0.86267742
v 1.99999445 1.13492774 -0.22076938
v 1.99977510 1.09538066 -0.44992822
v 1.99986797 1.05925106 0.05983335
v 2.00244241 1.13043749 -0.77609398
v 2.00209134 1.22347771 0.00437645
v 1.99995857 1.29452931 -0.61406191
v 2.00078779 1.28477680 -0.10951210
v 2.00112241 1.43048524 -0.75914546
v 1.99978071 1.34146022 -0.42253175
v 1.99995153 1.44041025 -0.27017607
v 2.00162988 1.63072108 -0.09572903
v 1.99976938 1.62208306 -0.52979543
v 2.00019174 1.73982929 -0.36301666
v 2.00107294 1.71590733 -0.80510273
v 2.00238483 1.89881419 -0.23927272
v 2.00120502 1.90265082 -0.60171278
v 2.00344699 1.96525263 -0.81552472
f 630 678 620
f 1009 977 926
f 249 169 230
f 447 376 338
f 852 835 820
f 789 764 763
f 192 150 146
f 528 507 514
f 1020 994 967
f 833 813 897
f 358 294 368
f 1087 964 1080
f 745 715 714
f 584 607 614
f 837 766 809
f 420 361 405
f 1005 974 945
f 252 212 193
f 279 242 249
f 428 397 419
f 182 188 139
f 709 683 597
f 374 336 394
f 545 538 584
f 556 492 502
f 376 349 296
f 824 810 864
f 497 408 487
f 95 36 44
f 585 545 603
f 520 455 481
f 913 898 856
f 466 410 441
f 1014 991 935
f 801 788 851
f 205 172 234
f 619 676 608
f 737 679 663
f 784 815 854
f 605 539 569
f 404 368 416
f 336 302 366
f 342 278 290
f 1048 1050 1054
f 1047 1045 1043
f 930 884 859
f 341 286 308
f 434 448 507
f 194 186 196
f 612 592 562
f 466 441 475
f 117 90 12
f 315 306 268
f 892 787 888
f 710 685 715
f 99 45 96
f 798 733 823
f 898 848 856
f 518 474 562
f 513 496 533
f 840 763 807
f 400 377 439
f 793 844 794
f 517 477 460
f 700 743 703
f 734 660 724
f 712 723 664
f 411 442 385
f 779 750 817
f 241 221 176
f 609 586 670
f 606 544 564
f 34 32 28
f 330 289 288
f 727 687 686
f 1075 1070 1072
f 531 561 517
f 1011 1077 983
f 442 427 385
f 279 230 320
f 240 179 262
f 328 299 325
f 908 850 901
f 20 21 15
f 878 861 893
f 925 885 801
f 166 136 185
f 479 476 447
f 1010 963 1079
f 904 865 848
f 539 587 546
f 934 912 946
f 468 456 518
f 1061 1058 1060
f 332 285 306
f 530 490 485
f 719 662 710
f 744 739 775
f 696 711 754
f 596 630 555
f 895 891 832
f 47 43 41
f 147 120 119
f 550 524 572
f 938 895 908
f 616 550 572
f 471 466 492
f 688 619 677
f 527 514 526
f 848 796 783
f 581 547 589
f 371 359 334
f 154 169 125
f 730 708 694
f 141 153 108
f 862 837 809
f 532 505 476
f 532 476 479
f 1013 949 922
f 477 508 439
f 992 1013 1099
f 166 185 231
f 59 57 52
f 618 709 597
f 292 241 242
f 324 307 348
f 629 632 662
f 786 780 752
f 241 176 203
f 911 893 889
f 244 268 239
f 617 624 580
f 468 425 406
f 146 129 174
f 518 562 592
f 668 742 748
f 531 517 493
f 976 1063 1070
f 558 585 629
f 177 239 191
f 986 985 1089
f 1065 1064 1068
f 69 75 70
f 741 630 638
f 789 745 764
f 827 817 842
f 997 941 904
f 63 58 56
f 282 255 299
f 834 833 875
f 783 757 735
f 346 327 303
f 523 522 567
f 854 878 899
f 444 443 378
f 1032 1033 1038
f 961 1030 1035
f 396 411 355
f 924 874 915
f 761 673 708
f 871 792 839
f 1038 1039 1041
f 659 623 581
f 733 707 781
f 380 324 348
f 1084 984 957
f 307 245 269
f 203 128 156
f 816 750 778
f 672 635 679
f 499 491 537
f 220 201 216
f 91 18 22
f 1063 1052 1062
f 573 593 554
f 325 298 322
f 885 866 801
f 328 282 299
f 642 557 599
f 319 291 241
f 537 488 550
f 26 29 23
f 517 460 493
f 973 1045 1047
f 988 1089 1095
f 332 297 285
f 863 842 894
f 229 177 187
f 589 588 637
f 959 935 931
f 640 697 613
f 179 171 178
f 981 980 1070
f 100 99 146
f 330 326 386
f 125 110 86
f 12 6 115
f 1004 973 1047
f 1002 1037 1001
f 663 656 692
f 50 52 48
f 24 21 20
f 1073 1076 1077
f 649 671 587
f 154 198 230
f 63 62 58
f 176 184 141
f 598 577 576
f 690 639 695
f 667 652 702
f 879 841 829
f 235 274 224
f 467 461 424
f 384 365 407
f 953 1005 945
f 1077 1076 983
f 279 292 242
f 302 245 307
f 188 199 139
f 255 259 299
f 250 215 243
f 822 789 763
f 428 411 396
f 1018 967 993
f 80 78 109
f 189 186 194
f 548 529 490
f 367 340 402
f 1099 1095 1097
f 10 9 5
f 264 300 237
f 213 183 207
f 1056 1050 1049
f 277 253 260
f 693 659 589
f 897 875 833
f 275 236 280
f 462 407 425
f 760 731 782
f 504 539 495
f 424 359 371
f 509 507 534
f 583 582 549
f 843 786 800
f 942 896 846
f 128 85 110
f 26 17 19
f 946 912 899
f 545 584 603
f 126 123 104
f 190 159 97
f 719 710 726
f 354 308 358
f 349 342 290
f 733 781 814
f 107 105 70
f 768 700 748
f 459 472 429
f 362 341 354
f 67 66 61
f 716 677 671
f 680 637 672
f 1083 1077 1011
f 813 755 754
f 631 612 655
f 111 1 13
f 266 217 261
f 430 480 432
f 617 650 624
f 813 754 795
f 338 376 296
f 560 519 551
f 999 1028 1030
f 276 298 259
f 699 646 645
f 711 667 702
f 266 261 310
f 634 629 662
f 1083 1011 984
f 224 188 182
f 220 196 201
f 752 701 713
f 518 456 474
f 1055 1059 956
f 6 10 5
f 125 83 109
f 153 151 108
f 621 576 544
f 1088 1084 957
f 690 691 725
f 306 248 268
f 899 878 905
f 226 196 220
f 916 887 868
f 305 267 252
f 1064 1055 956
f 328 325 365
f 1097 1094 1096
f 552 475 482
f 788 742 756
f 1048 1042 1041
f 1063 1062 1067
f 949 901 922
f 480 454 432
f 1074 1071 1073
f 985 951 1087
f 431 338 382
f 167 119 183
f 870 854 912
f 574 529 548
f 513 533 525
f 19 14 12
f 469 503 464
f 1028 968 998
f 749 770 727
f 884 906 839
f 484 444 437
f 208 167 183
f 878 893 905
f 910 881 885
f 769 741 683
f 342 373 316
f 793 850 844
f 225 167 208
f 286 243 272
f 265 190 211
f 123 64 104
f 863 827 842
f 262 179 254
f 488 420 489
f 882 857 826
f 989 948 988
f 521 469 494
f 398 360 426
f 551 627 625
f 1026 1025 1027
f 138 117 115
f 951 929 890
f 308 272 205
f 92 19 90
f 597 570 542
f 430 337 375
f 765 698 688
f 269 192 266
f 1014 935 959
f 352 335 301
f 870 828 854
f 137 114 113
f 505 536 472
f 535 487 509
f 553 511 506
f 995 994 996
f 872 843 800
f 922 864 903
f 555 479 501
f 435 387 376
f 559 515 503
f 257 270 229
f 643 619 604
f 941 932 888
f 689 738 666
f 228 246 210
f 113 4 88
f 62 59 60
f 380 408 405
f 384 328 365
f 675 691 602
f 279 249 230
f 988 986 1089
f 142 88 133
f 1055 1051 1006
f 72 73 71
f 273 313 263
f 918 909 943
f 547 487 535
f 785 746 716
f 959 1099 1100
f 631 648 614
f 474 423 471
f 374 295 336
f 749 797 770
f 55 53 50
f 401 348 390
f 69 67 65
f 1080 1079 1075
f 28 27 24
f 139 93 118
f 926 887 916
f 995 943 994
f 445 394 453
f 654 674 744
f 1095 1091 1094
f 114 5 113
f 670 634 705
f 868 812 830
f 717 730 694
f 964 1079 1080
f 174 129 147
f 459 433 435
f 655 612 669
f 121 98 51
f 734 682 660
f 243 222 272
f 396 355 356
f 608 658 593
f 570 555 501
f 723 693 664
f 557 493 511
f 849 821 869
f 718 721 661
f 420 405 451
f 1014 1100 1101
f 991 1101 990
f 605 649 587
f 37 32 34
f 965 937 906
f 415 437 378
f 469 464 419
f 327 353 315
f 882 914 857
f 263 223 199
f 331 280 360
f 921 897 920
f 193 160 162
f 236 213 247
f 312 304 340
f 706 672 720
f 807 763 768
f 664 589 637
f 136 87 111
f 273 199 224
f 180 210 151
f 404 358 368
f 182 139 163
f 128 132 85
f 198 155 179
f 683 741 638
f 459 429 433
f 876 860 852
f 64 62 63
f 1035 1026 1032
f 693 589 664
f 433 429 373
f 657 694 644
f 852 822 840
f 823 814 849
f 32 27 28
f 478 462 425
f 202 167 225
f 773 797 749
f 515 543 486
f 1076 1009 983
f 471 423 410
f 370 323 332
f 423 406 392
f 390 379 398
f 864 863 903
f 821 835 860
f 258 205 234
f 54 49 100
f 947 886 879
f 243 215 222
f 910 889 876
f 460 422 417
f 1036 1029 970
f 1050 1041 1049
f 845 787 892
f 393 326 329
f 388 350 339
f 258 218 304
f 263 305 252
f 107 165 145
f 154 109 131
f 229 244 177
f 642 640 557
f 2 1 111
f 76 72 124
f 626 568 561
f 1066 1060 1065
f 526 545 558
f 539 494 495
f 672 637 635
f 792 818 762
f 838 874 890
f 183 189 194
f 770 783 735
f 97 95 44
f 540 504 484
f 927 874 924
f 414 360 369
f 931 935 872
f 984 902 928
f 312 258 304
f 662 632 685
f 551 500 541
f 978 915 976
f 440 421 455
f 57 101 51
f 71 73 68
f 162 160 116
f 39 44 36
f 792 740 780
f 972 917 961
f 494 546 521
f 857 806 808
f 15 21 16
f 1096 1092 1098
f 236 225 213
f 542 454 480
f 534 507 528
f 766 729 747
f 728 704 698
f 607 631 614
f 1027 1025 1022
f 381 327 346
f 221 184 176
f 898 904 848
f 337 388 339
f 660 627 601
f 109 78 130
f 425 395 406
f 1091 1085 1094
f 142 137 113
f 454 399 432
f 849 814 821
f 361 324 380
f 819 811 725
f 616 572 646
f 62 60 58
f 357 310 379
f 593 633 600
f 92 30 26
f 654 625 674
f 96 45 35
f 577 552 576
f 1025 1018 1022
f 960 932 966
f 657 644 615
f 397 356 335
f 519 430 500
f 489 420 451
f 719 726 790
f 331 284 275
f 557 553 599
f 240 262 295
f 734 724 774
f 318 334 274
f 1053 1051 1055
f 891 872 800
f 310 331 398
f 573 543 515
f 716 671 673
f 584 614 603
f 1081 1074 1082
f 370 352 323
f 158 92 157
f 341 308 354
f 463 411 428
f 613 675 626
f 150 100 146
f 392 314 410
f 268 248 239
f 613 626 561
f 1007 934 946
f 980 927 924
f 240 198 179
f 103 54 100
f 206 215 250
f 37 39 32
f 571 516 508
f 412 389 434
f 557 561 531
f 921 875 897
f 973 933 962
f 940 931 891
f 861 873 893
f 747 720 771
f 277 260 282
f 473 439 508
f 699 645 681
f 348 357 390
f 492 466 502
f 437 444 378
f 698 704 658
f 1092 987 1012
f 154 131 155
f 935 907 872
f 7 11 2
f 306 285 248
f 842 838 890
f 742 647 756
f 78 80 76
f 620 583 575
f 972 961 1035
f 555 620 575
f 675 602 626
f 247 213 207
f 91 134 116
f 418 393 384
f 281 218 233
f 1026 1019 1025
f 580 579 530
f 135 152 178
f 996 943 995
f 90 117 157
f 721 689 650
f 241 291 221
f 89 111 13
f 483 442 450
f 359 364 313
f 868 887 858
f 590 657 615
f 117 12 115
f 238 202 275
f 788 756 834
f 1032 1027 1033
f 403 361 420
f 718 762 721
f 750 681 693
f 53 59 52
f 457 412 434
f 660 616 646
f 586 578 622
f 66 67 70
f 399 382 350
f 1088 1082 1084
f 1100 1098 1101
f 992 1015 940
f 378 345 353
f 775 827 863
f 1062 1061 1067
f 528 527 558
f 701 718 661
f 860 835 852
f 1046 1044 1037
f 129 99 96
f 463 450 411
f 42 40 38
f 416 368 440
f 222 181 173
f 275 202 225
f 906 937 900
f 9 4 5
f 904 888 865
f 464 486 463
f 674 627 682
f 276 251 219
f 1064 1060 1055
f 582 661 617
f 146 99 129
f 735 697 687
f 632 603 641
f 314 286 341
f 60 59 53
f 17 20 15
f 148 101 102
f 11 1 2
f 999 917 971
f 619 608 559
f 1052 1043 1054
f 757 732 697
f 537 491 488
f 1078 1074 1081
f 838 791 874
f 28 24 23
f 1097 1096 1100
f 356 300 335
f 479 447 465
f 345 332 306
f 48 43 47
f 560 597 542
f 406 395 392
f 1017 1016 1021
f 572 524 523
f 692 656 609
f 17 23 20
f 112 87 136
f 862 809 828
f 145 140 122
f 119 158 189
f 600 599 553
f 263 252 223
f 769 800 741
f 853 823 849
f 990 965 930
f 832 769 794
f 350 292 339
f 713 653 678
f 871 804 818
f 393 329 384
f 103 63 56
f 554 553 506
f 877 856 836
f 382 338 319
f 624 666 590
f 156 128 110
f 192 146 217
f 1067 1061 1066
f 465 431 382
f 351 383 347
f 737 663 736
f 440 368 421
f 820 805 790
f 148 144 101
f 954 933 917
f 548 490 530
f 16 13 11
f 683 638 597
f 953 945 914
f 46 48 47
f 1085 1080 1081
f 275 225 236
f 1048 1043 1042
f 495 443 444
f 733 692 707
f 1094 1093 1096
f 1086 1081 1082
f 229 187 164
f 759 772 738
f 851 788 834
f 223 193 162
f 449 404 416
f 533 538 525
f 43 39 37
f 421 402 455
f 496 468 518
f 453 403 420
f 242 241 203
f 14 10 12
f 68 65 62
f 1039 1031 1037
f 807 748 801
f 212 231 185
f 562 474 492
f 160 111 89
f 645 567 623
f 147 119 167
f 377 321 293
f 527 526 558
f 534 528 578
f 1041 1039 1044
f 783 796 757
f 215 181 222
f 766 747 809
f 1080 1075 1078
f 482 416 440
f 890 874 927
f 149 117 138
f 252 193 223
f 1096 1093 1090
f 594 588 566
f 665 657 590
f 917 910 885
f 908 844 850
f 105 66 70
f 671 677 643
f 880 868 830
f 914 867 857
f 579 590 548
f 295 262 311
f 222 173 205
f 490 484 452
f 670 622 634
f 751 699 681
f 369 386 412
f 289 236 247
f 355 318 300
f 605 587 539
f 780 740 701
f 152 103 168
f 806 773 765
f 796 732 757
f 506 511 467
f 395 351 392
f 703 648 655
f 486 543 483
f 1032 1038 1040
f 906 871 839
f 94 118 31
f 186 158 200
f 35 33 30
f 590 615 574
f 994 920 967
f 175 190 161
f 967 920 942
f 72 64 123
f 535 509 566
f 748 669 668
f 272 222 205
f 739 682 734
f 1049 1041 1044
f 901 824 864
f 499 445 491
f 102 57 61
f 171 135 178
f 651 649 605
f 694 708 644
f 480 430 519
f 1090 1082 1088
f 985 929 951
f 975 934 1007
f 7 2 3
f 829 785 777
f 125 156 110
f 4 8 3
f 242 203 156
f 87 3 2
f 461 460 417
f 728 749 704
f 963 982 1079
f 14 8 9
f 126 104 103
f 1052 1054 1057
f 385 371 334
f 1031 1021 1029
f 346 303 316
f 568 602 508
f 233 166 231
f 971 969 1028
f 639 571 602
f 787 690 767
f 876 840 881
f 597 638 570
f 510 440 520
f 837 791 766
f 877 913 856
f 549 582 536
f 764 745 714
f 348 266 357
f 192 204 168
f 59 61 57
f 984 1011 902
f 187 177 140
f 1086 1082 1090
f 257 229 214
f 700 703 655
f 252 267 212
f 410 423 392
f 1046 1002 1003
f 355 334 318
f 933 905 917
f 464 463 428
f 726 715 745
f 961 999 1030
f 912 854 899
f 71 68 62
f 945 944 867
f 1080 1078 1081
f 1049 1046 1053
f 436 384 407
f 475 441 449
f 124 72 106
f 891 800 832
f 344 289 330
f 209 159 190
f 374 320 295
f 1070 1063 1067
f 556 552 577
f 38 34 33
f 351 347 322
f 190 256 209
f 1056 1054 1050
f 619 559 604
f 679 635 663
f 116 89 13
f 1013 989 1095
f 722 731 760
f 881 840 866
f 114 6 5
f 301 256 265
f 517 508 477
f 990 930 958
f 620 628 583
f 765 773 728
f 557 613 561
f 793 782 850
f 120 30 119
f 524 489 523
f 768 743 700
f 873 853 849
f 704 686 633
f 973 962 1045
f 1012 987 937
f 365 347 383
f 355 385 334
f 1026 1023 1020
f 1070 1067 1072
f 805 719 790
f 819 725 732
f 106 72 123
f 774 779 817
f 1008 947 926
f 804 803 759
f 522 497 487
f 768 763 743
f 747 771 784
f 290 228 232
f 1060 1058 1053
f 339 279 337
f 797 856 831
f 647 696 755
f 502 475 552
f 998 918 996
f 12 10 6
f 513 478 496
f 246 214 210
f 42 46 40
f 175 161 121
f 15 11 7
f 174 147 202
f 997 904 952
f 905 893 911
f 850 824 901
f 32 36 31
f 424 364 359
f 623 567 581
f 69 70 67
f 618 560 551
f 368 367 421
f 737 736 798
f 871 883 804
f 375 374 446
f 477 439 422
f 563 516 571
f 21 25 22
f 532 583 549
f 792 762 718
f 245 192 269
f 384 329 328
f 432 388 337
f 743 764 714
f 1026 1020 1019
f 127 108 82
f 687 697 640
f 1059 953 956
f 652 606 591
f 195 235 163
f 560 542 519
f 876 852 840
f 110 84 86
f 481 400 473
f 483 506 442
f 367 312 340
f 950 926 916
f 98 97 44
f 76 74 73
f 56 58 55
f 536 580 530
f 14 17 8
f 526 512 525
f 440 455 520
f 394 403 453
f 758 705 719
f 742 668 647
f 135 126 152
f 1093 1086 1090
f 107 145 105
f 964 890 1010
f 408 380 401
f 1033 1027 1022
f 94 31 36
f 218 166 233
f 903 863 894
f 192 168 150
f 1051 1005 1006
f 424 371 427
f 325 347 365
f 611 610 647
f 902 880 855
f 502 466 475
f 799 737 798
f 405 361 380
f 688 676 619
f 865 819 796
f 496 478 468
f 1037 1031 1036
f 95 94 36
f 250 243 286
f 917 885 925
f 761 716 673
f 842 817 816
f 373 429 381
f 454 465 399
f 40 41 34
f 260 226 255
f 1068 1064 1008
f 470 426 414
f 232 180 184
f 259 216 251
f 392 351 314
f 800 753 741
f 794 709 760
f 934 870 912
f 1000 970 913
f 143 163 118
f 10 14 9
f 988 948 986
f 308 294 358
f 744 775 810
f 189 158 186
f 19 17 14
f 685 641 684
f 825 780 786
f 274 309 273
f 304 218 281
f 330 288 326
f 708 651 644
f 627 541 601
f 697 732 675
f 829 841 785
f 254 227 302
f 335 300 264
f 418 384 436
f 749 727 704
f 271 258 312
f 8 7 3
f 237 283 235
f 859 884 780
f 30 33 29
f 656 594 609
f 652 636 690
f 1085 1086 1093
f 455 400 481
f 316 303 257
f 1096 1090 1092
f 72 71 64
f 445 374 394
f 503 486 464
f 1099 1013 1095
f 516 473 508
f 485 452 429
f 197 146 174
f 197 174 202
f 126 103 152
f 709 769 683
f 345 378 332
f 326 277 329
f 239 248 191
f 776 787 845
f 722 709 618
f 375 320 374
f 128 176 132
f 33 28 29
f 319 338 291
f 40 34 38
f 651 605 595
f 429 452 409
f 446 374 445
f 574 540 529
f 418 389 393
f 709 722 760
f 488 489 524
f 400 321 377
f 557 531 493
f 883 902 855
f 695 602 691
f 628 582 583
f 573 554 543
f 214 229 164
f 929 894 890
f 777 716 761
f 248 265 211
f 419 464 428
f 930 906 884
f 65 61 59
f 17 15 8
f 610 576 621
f 442 467 427
f 962 972 1045
f 363 377 343
f 353 345 315
f 1089 1080 1085
f 343 377 293
f 1068 1008 977
f 228 210 180
f 266 192 217
f 201 186 200
f 900 883 871
f 447 435 376
f 235 224 182
f 115 6 114
f 851 875 909
f 784 771 815
f 966 932 941
f 301 335 264
f 513 525 512
f 538 533 565
f 803 772 759
f 237 235 195
f 46 42 45
f 880 830 855
f 838 816 791
f 948 903 929
f 890 927 963
f 943 909 921
f 908 895 844
f 964 1010 1079
f 572 523 567
f 213 208 183
f 800 786 753
f 144 121 101
f 717 694 665
f 806 797 773
f 969 925 968
f 687 640 642
f 1056 1049 1058
f 972 1035 1045
f 798 736 733
f 217 146 197
f 411 385 355
f 743 714 703
f 862 828 870
f 523 498 522
f 81 75 79
f 300 283 237
f 873 869 889
f 407 365 383
f 980 924 979
f 562 556 611
f 258 234 218
f 731 722 654
f 324 302 307
f 173 142 172
f 765 728 698
f 739 674 682
f 26 23 17
f 148 191 144
f 554 506 483
f 458 414 412
f 806 836 797
f 967 942 993
f 655 648 631
f 521 503 469
f 1092 957 987
f 1003 944 945
f 620 653 628
f 980 979 1070
f 280 289 344
f 519 542 480
f 83 77 80
f 310 261 284
f 127 141 108
f 232 228 180
f 521 559 503
f 380 348 401
f 216 201 200
f 211 190 175
f 938 908 949
f 53 52 50
f 692 609 670
f 77 79 69
f 612 562 611
f 767 725 811
f 1085 1081 1086
f 408 401 470
f 820 789 822
f 31 118 25
f 486 450 463
f 90 19 12
f 33 34 28
f 1082 1074 1077
f 11 13 1
f 992 940 938
f 340 304 333
f 400 333 321
f 674 625 627
f 762 689 721
f 129 96 120
f 43 51 44
f 278 246 228
f 965 1012 937
f 884 839 780
f 99 49 45
f 889 869 860
f 43 44 39
f 930 965 906
f 996 918 943
f 154 155 198
f 859 825 843
f 724 660 646
f 494 469 443
f 1060 1053 1055
f 850 782 824
f 297 323 265
f 910 876 881
f 115 114 137
f 321 281 293
f 1029 1021 952
f 415 353 372
f 35 38 33
f 181 137 173
f 159 95 97
f 1071 1066 1069
f 138 137 181
f 369 344 330
f 1073 1071 1069
f 762 804 759
f 578 528 558
f 969 968 1028
f 1017 960 1016
f 998 925 918
f 125 109 154
f 796 819 732
f 498 438 497
f 871 818 792
f 485 490 452
f 556 577 598
f 249 242 156
f 445 453 491
f 1098 965 990
f 923 930 859
f 505 472 459
f 58 53 55
f 650 689 624
f 414 369 412
f 630 713 678
f 885 881 866
f 986 929 985
f 288 247 253
f 911 910 917
f 468 478 425
f 939 846 892
f 495 494 443
f 913 936 898
f 318 283 300
f 1045 1035 1043
f 169 156 125
f 15 7 8
f 95 143 94
f 936 952 904
f 667 606 652
f 676 658 608
f 322 276 317
f 897 813 847
f 705 634 662
f 601 537 550
f 86 84 77
f 940 895 938
f 907 923 859
f 387 433 373
f 135 123 126
f 1010 890 963
f 453 420 488
f 471 410 466
f 458 412 457
f 1052 1057 1062
f 322 298 276
f 1037 1036 1000
f 1038 1034 1039
f 45 42 35
f 808 806 765
f 431 447 338
f 660 601 616
f 505 435 476
f 425 383 395
f 926 879 887
f 118 93 25
f 387 373 342
f 549 536 505
f 638 596 570
f 928 902 883
f 608 573 559
f 501 465 454
f 362 354 391
f 712 680 706
f 207 183 194
f 771 799 815
f 528 514 527
f 370 397 352
f 581 522 547
f 632 641 685
f 1082 1077 1084
f 533 496 518
f 84 85 82
f 544 482 510
f 197 238 261
f 861 799 853
f 451 405 438
f 729 706 747
f 578 558 634
f 727 735 687
f 336 311 254
f 163 139 118
f 972 954 917
f 1061 1056 1058
f 901 864 922
f 945 867 914
f 935 958 923
f 955 946 1004
f 574 595 569
f 1069 1065 1068
f 1072 1067 1066
f 320 230 295
f 434 389 448
f 413 362 391
f 752 780 701
f 290 278 228
f 373 381 346
f 116 13 18
f 626 602 568
f 294 271 312
f 999 971 1028
f 618 625 654
f 472 485 429
f 802 765 746
f 329 282 328
f 171 130 135
f 105 122 66
f 681 623 659
f 313 364 305
f 813 795 847
f 915 837 862
f 234 172 218
f 974 1046 1003
f 909 875 921
f 608 593 573
f 175 121 144
f 1084 1083 984
f 804 855 803
f 255 220 216
f 958 930 923
f 452 415 409
f 138 181 215
f 750 723 778
f 992 1099 1015
f 430 432 337
f 702 690 776
f 666 717 665
f 713 701 653
f 288 277 326
f 516 481 473
f 731 654 744
f 187 140 164
f 833 755 813
f 270 268 244
f 915 862 870
f 627 551 541
f 929 903 894
f 905 911 917
f 575 532 479
f 317 287 314
f 1089 1091 1095
f 337 279 320
f 584 565 607
f 562 492 556
f 645 572 567
f 781 758 821
f 129 120 147
f 180 153 184
f 28 23 29
f 280 236 289
f 112 3 87
f 334 359 309
f 622 578 634
f 399 350 388
f 985 1087 1089
f 568 508 517
f 361 302 324
f 746 688 677
f 867 836 806
f 302 227 245
f 587 604 521
f 716 746 677
f 398 331 360
f 158 157 200
f 133 88 112
f 314 362 410
f 1033 1022 1034
f 920 847 896
f 979 978 1070
f 291 232 221
f 1037 1000 1001
f 776 690 787
f 610 598 576
f 449 441 404
f 533 518 565
f 815 799 878
f 696 667 711
f 773 749 728
f 372 353 327
f 785 826 802
f 777 785 716
f 781 707 758
f 570 596 555
f 87 2 111
f 219 157 206
f 1017 993 960
f 119 189 183
f 842 816 838
f 1006 1005 953
f 428 396 397
f 412 386 389
f 1089 1087 1080
f 24 27 21
f 108 151 107
f 584 538 565
f 336 295 311
f 403 366 361
f 265 256 190
f 902 916 880
f 1018 1017 1022
f 143 118 94
f 318 274 283
f 487 457 509
f 210 214 165
f 120 35 30
f 983 916 902
f 529 540 484
f 1007 1052 1063
f 1015 1099 959
f 883 855 804
f 801 748 788
f 836 856 797
f 512 462 478
f 1024 1017 1021
f 544 510 564
f 1032 1026 1027
f 504 444 484
f 935 923 907
f 500 430 446
f 940 891 895
f 1099 1097 1100
f 472 530 485
f 630 620 555
f 214 164 165
f 342 316 278
f 618 551 625
f 574 569 540
f 1034 1031 1039
f 646 572 645
f 666 665 590
f 251 216 219
f 611 556 610
f 1076 1069 1009
f 659 581 589
f 1087 951 964
f 567 522 581
f 970 936 913
f 1009 926 950
f 159 143 95
f 710 715 726
f 172 133 170
f 894 842 890
f 394 336 366
f 383 351 395
f 509 457 507
f 473 400 439
f 891 931 872
f 1013 922 989
f 206 157 149
f 918 801 851
f 1000 913 944
f 179 178 227
f 276 259 251
f 1041 1042 1038
f 771 737 799
f 83 80 109
f 653 582 628
f 145 122 105
f 618 597 560
f 1014 1101 991
f 856 848 831
f 476 435 447
f 177 191 148
f 438 408 497
f 271 205 258
f 667 621 606
f 367 402 421
f 364 417 363
f 778 723 712
f 992 949 1013
f 782 731 744
f 681 659 693
f 85 127 82
f 587 643 604
f 112 136 166
f 1024 1021 1031
f 46 41 40
f 80 77 74
f 165 164 145
f 402 340 333
f 235 182 163
f 104 64 63
f 785 802 746
f 872 907 843
f 817 750 816
f 305 363 343
f 409 415 372
f 892 888 932
f 139 199 162
f 21 18 16
f 219 216 200
f 839 792 780
f 381 372 327
f 848 865 796
f 987 957 937
f 307 266 348
f 1020 967 1019
f 983 950 916
f 1059 1055 1006
f 1022 1017 1024
f 301 264 256
f 313 305 263
f 323 301 265
f 756 647 755
f 729 712 706
f 539 546 494
f 1066 1061 1060
f 139 134 91
f 867 919 877
f 868 858 812
f 732 725 691
f 812 777 730
f 178 152 204
f 545 525 538
f 475 449 482
f 886 826 841
f 720 672 679
f 695 639 602
f 435 505 459
f 993 939 960
f 1029 952 970
f 455 402 400
f 673 671 649
f 267 293 231
f 589 547 535
f 797 831 770
f 467 493 461
f 678 653 620
f 191 211 175
f 583 532 575
f 982 1070 1075
f 177 148 140
f 866 807 801
f 515 486 503
f 1049 1044 1046
f 238 197 202
f 772 730 717
f 886 914 882
f 402 333 400
f 391 354 358
f 244 239 177
f 690 636 639
f 565 592 607
f 1074 1073 1077
f 698 658 676
f 874 837 915
f 81 108 75
f 827 774 817
f 591 563 636
f 397 335 352
f 108 81 82
f 1046 1037 1002
f 585 603 632
f 67 61 65
f 858 879 829
f 209 237 195
f 631 607 592
f 715 685 684
f 541 537 601
f 961 917 999
f 802 808 765
f 179 130 171
f 971 917 925
f 426 360 414
f 389 326 393
f 647 610 621
f 77 82 79
f 775 774 827
f 168 103 150
f 293 233 231
f 814 781 821
f 378 370 332
f 1019 967 1018
f 296 290 232
f 255 216 259
f 548 590 574
f 424 417 364
f 71 62 64
f 895 832 844
f 955 1004 1043
f 305 343 267
f 190 97 161
f 443 469 419
f 879 886 841
f 844 832 794
f 145 164 140
f 1035 1030 1026
f 500 499 541
f 207 226 253
f 477 422 460
f 68 69 65
f 74 77 69
f 996 994 1020
f 991 958 935
f 488 491 453
f 493 460 461
f 360 280 344
f 39 36 32
f 790 726 789
f 327 315 270
f 360 344 369
f 962 954 972
f 401 426 470
f 315 268 270
f 867 877 836
f 1051 974 1005
f 1008 956 947
f 588 594 635
f 205 173 172
f 591 564 563
f 744 674 739
f 956 953 947
f 1052 955 1043
f 410 413 441
f 864 775 863
f 510 520 564
f 31 25 27
f 467 424 427
f 700 655 669
f 824 782 744
f 299 259 298
f 559 573 515
f 959 1100 1014
f 758 719 805
f 227 204 245
f 721 650 661
f 555 575 479
f 1072 1066 1071
f 186 201 196
f 98 44 51
f 774 724 751
f 936 904 898
f 750 693 723
f 959 931 940
f 104 63 103
f 21 22 18
f 191 175 144
f 303 270 257
f 1023 996 1020
f 316 257 246
f 180 151 153
f 953 914 886
f 937 957 928
f 812 858 777
f 1021 1016 997
f 218 170 166
f 1004 933 973
f 390 398 426
f 529 484 490
f 209 264 237
f 852 820 822
f 748 742 788
f 976 975 1063
f 513 512 478
f 230 198 240
f 746 765 688
f 60 53 58
f 774 751 779
f 520 481 563
f 96 35 120
f 951 890 964
f 946 899 933
f 435 433 387
f 1064 956 1008
f 624 579 580
f 203 176 128
f 506 467 442
f 373 346 316
f 648 641 614
f 210 165 151
f 727 686 704
f 978 976 1070
f 703 684 648
f 962 933 954
f 419 397 370
f 417 422 363
f 1059 1006 953
f 1095 1094 1097
f 1061 1057 1056
f 1079 982 1075
f 736 663 692
f 253 247 207
f 413 391 404
f 643 677 619
f 169 154 230
f 766 712 729
f 351 322 317
f 887 879 858
f 918 851 909
f 831 783 770
f 705 662 719
f 1057 1054 1056
f 835 805 820
f 606 564 591
f 54 55 49
f 900 928 883
f 390 357 379
f 441 413 404
f 714 715 684
f 142 113 88
f 794 769 709
f 399 465 382
f 500 446 499
f 452 484 415
f 791 778 766
f 982 963 927
f 907 859 843
f 977 1008 926
f 671 643 587
f 46 47 41
f 366 302 361
f 202 147 167
f 124 78 76
f 195 163 143
f 688 698 676
f 924 915 978
f 474 456 423
f 448 389 418
f 869 821 860
f 663 594 656
f 1069 1066 1065
f 73 74 68
f 49 46 45
f 795 754 702
f 523 489 498
f 874 791 837
f 993 942 939
f 270 244 229
f 848 783 831
f 770 735 727
f 681 645 623
f 960 939 932
f 553 557 511
f 294 205 271
f 125 86 83
f 714 684 703
f 275 280 331
f 564 520 563
f 315 345 306
f 122 102 61
f 1018 993 1017
f 701 661 653
f 155 131 130
f 970 952 936
f 317 276 287
f 124 106 130
f 487 470 458
f 925 801 918
f 763 764 743
f 846 776 845
f 26 19 92
f 971 925 969
f 946 955 1007
f 279 339 292
f 357 266 310
f 1003 1002 944
f 30 29 26
f 91 116 18
f 942 846 939
f 408 470 487
f 922 903 948
f 738 772 717
f 84 82 77
f 287 276 219
f 720 679 737
f 843 825 786
f 795 702 776
f 131 109 130
f 325 299 298
f 269 266 307
f 1058 1049 1053
f 130 78 124
f 556 502 552
f 443 419 370
f 101 121 51
f 916 868 880
f 803 855 830
f 88 3 112
f 570 501 454
f 507 448 514
f 984 928 957
f 858 829 777
f 828 784 854
f 948 929 986
f 824 744 810
f 600 553 554
f 944 919 867
f 347 325 322
f 512 436 462
f 1028 1023 1030
f 755 696 754
f 93 91 25
f 1089 1085 1091
f 161 98 121
f 1092 1090 1088
f 52 51 43
f 779 681 750
f 323 352 301
f 1101 1098 990
f 975 915 934
f 707 670 705
f 830 812 772
f 113 5 4
f 974 1003 945
f 160 185 111
f 391 358 404
f 151 165 107
f 133 112 170
f 702 652 690
f 812 730 772
f 224 199 188
f 289 247 288
f 736 692 733
f 1030 1023 1026
f 66 122 61
f 915 870 934
f 1069 977 1009
f 638 630 596
f 349 290 296
f 504 495 444
f 285 297 265
f 947 953 886
f 84 110 85
f 255 226 220
f 661 650 617
f 550 488 524
f 921 920 994
f 896 847 846
f 136 111 185
f 1084 1077 1083
f 847 795 846
f 904 941 888
f 526 525 545
f 130 106 135
f 283 274 235
f 738 717 666
f 367 294 312
f 759 689 762
f 140 148 102
f 669 612 611
f 732 691 675
f 273 263 199
f 193 212 160
f 668 611 647
f 474 471 492
f 448 418 436
f 108 107 75
f 470 414 458
f 157 92 90
f 1073 1069 1076
f 149 138 215
f 793 760 782
f 579 548 530
f 937 928 900
f 989 988 1095
f 1028 998 1023
f 820 790 789
f 618 654 722
f 1060 1064 1065
f 689 666 624
f 621 544 606
f 514 436 512
f 253 226 260
f 309 313 273
f 1015 959 940
f 451 498 489
f 696 621 667
f 767 690 725
f 989 922 948
f 991 990 958
f 673 649 651
f 338 296 291
f 707 705 758
f 708 673 651
f 586 622 670
f 834 756 833
f 200 157 219
f 208 213 225
f 522 487 547
f 303 327 270
f 822 763 840
f 751 681 779
f 248 211 191
f 832 800 769
f 314 341 362
f 343 293 267
f 350 382 319
f 631 592 612
f 665 694 657
f 76 73 72
f 150 103 100
f 1053 1046 1051
f 589 535 588
f 351 317 314
f 933 899 905
f 359 313 309
f 975 1007 1063
f 712 664 680
f 1016 960 966
f 1098 1012 965
f 1043 1035 1040
f 170 112 166
f 692 670 707
f 658 633 593
f 407 383 425
f 809 747 784
f 1042 1040 1038
f 1011 983 902
f 886 882 826
f 91 22 25
f 634 558 629
f 450 442 411
f 893 873 889
f 759 738 689
f 866 840 807
f 541 499 537
f 833 756 755
f 487 458 457
f 396 356 397
f 1043 1040 1042
f 514 512 526
f 119 92 158
f 1036 1031 1029
f 176 141 132
f 663 635 594
f 594 566 609
f 336 254 302
f 522 498 497
f 100 49 99
f 415 378 353
f 704 633 658
f 976 915 975
f 569 539 504
f 816 778 791
f 947 879 926
f 1094 1085 1093
f 41 37 34
f 278 316 246
f 734 774 775
f 1048 1041 1050
f 132 141 127
f 741 753 630
f 968 925 998
f 897 847 920
f 486 483 450
f 310 284 331
f 80 74 76
f 212 185 160
f 410 362 413
f 381 409 372
f 789 726 745
f 132 127 85
f 778 712 766
f 641 648 684
f 983 1009 950
f 82 81 79
f 1062 1057 1061
f 700 669 748
f 875 851 834
f 865 811 819
f 1098 1092 1012
f 582 617 536
f 386 326 389
f 617 580 536
f 256 264 209
f 209 195 159
f 799 798 823
f 823 733 814
f 536 530 472
f 287 219 206
f 542 570 454
f 23 24 20
f 230 240 295
f 1002 1001 944
f 942 920 896
f 637 588 635
f 652 591 636
f 204 152 168
f 982 927 981
f 859 780 825
f 246 257 214
f 432 399 388
f 952 1021 997
f 561 568 517
f 549 505 532
f 308 205 294
f 333 304 281
f 807 768 748
f 314 250 286
f 465 447 431
f 587 521 546
f 379 310 398
f 949 908 901
f 771 720 737
f 826 857 808
f 207 194 226
f 468 406 456
f 223 162 199
f 604 559 521
f 644 651 595
f 821 758 805
f 314 287 250
f 245 204 192
f 227 178 204
f 636 563 571
f 906 900 871
f 448 436 514
f 281 233 293
f 401 390 426
f 107 70 75
f 422 439 377
f 697 675 613
f 752 713 753
f 462 436 407
f 846 845 892
f 1025 1019 1018
f 552 544 576
f 1044 1039 1037
f 629 585 632
f 799 823 853
f 558 545 585
f 438 405 408
f 509 534 566
f 519 500 551
f 62 65 59
f 1075 1072 1074
f 1072 1071 1074
f 682 627 660
f 787 767 811
f 456 406 423
f 288 253 277
f 368 294 367
f 194 196 226
f 775 739 734
f 102 101 57
f 1022 1024 1031
f 249 156 169
f 864 810 775
f 332 323 297
f 706 680 672
f 1054 1043 1048
f 50 48 46
f 160 89 116
f 803 830 772
f 1007 955 1052
f 911 889 910
f 350 319 292
f 730 761 708
f 386 369 330
f 615 595 574
f 79 75 69
f 1004 1047 1043
f 387 342 349
f 93 139 91
f 482 440 510
f 565 518 592
f 162 116 134
f 818 804 762
f 221 232 184
f 633 642 599
f 443 370 378
f 563 481 516
f 998 996 1023
f 291 296 232
f 873 849 869
f 376 387 349
f 640 613 557
f 828 809 784
f 981 927 980
f 552 482 544
f 261 238 284
f 724 699 751
f 792 718 740
f 777 761 730
f 267 231 212
f 826 808 802
f 566 534 586
f 172 142 133
f 511 493 467
f 686 642 633
f 641 603 614
f 979 924 978
f 179 227 254
f 184 153 141
f 669 611 668
f 137 142 173
f 274 273 224
f 821 805 835
f 499 446 445
f 282 260 255
f 262 254 311
f 49 50 46
f 385 427 371
f 1001 1000 944
f 601 550 616
f 1069 1068 977
f 135 106 123
f 285 265 248
f 52 43 48
f 1016 966 997
f 1034 1022 1031
f 982 981 1070
f 161 97 98
f 451 438 498
f 615 644 595
f 724 646 699
f 939 892 932
f 333 281 321
f 122 140 102
f 841 826 785
f 9 8 4
f 997 966 941
f 944 913 919
f 861 853 873
f 429 409 381
f 1096 1098 1100
f 55 50 49
f 857 867 806
f 571 508 602
f 1092 1088 957
f 690 695 691
f 286 272 308
f 1075 1074 1078
f 195 143 159
f 292 319 241
f 422 377 363
f 217 197 261
f 994 943 921
f 888 787 811
f 356 355 300
f 919 913 877
f 1004 946 933
f 889 860 876
f 206 149 215
f 364 363 305
f 27 25 21
f 461 417 424
f 284 238 275
f 1051 1046 974
f 74 69 68
f 740 718 701
f 865 888 811
f 172 170 218
f 119 30 92
f 334 309 274
f 337 320 375
f 41 43 37
f 16 18 13
f 449 416 482
f 610 556 598
f 609 566 586
f 710 662 685
f 56 55 54
f 430 375 446
f 799 861 878
f 162 134 139
f 501 479 465
f 534 578 586
f 86 77 83
f 624 590 579
f 138 115 137
f 696 647 621
f 595 605 569
f 543 554 483
f 735 757 697
f 103 56 54
f 42 38 35
f 754 711 702
f 992 938 949
f 287 206 250
f 4 3 88
f 664 637 680
f 593 600 554
f 633 599 600
f 1000 1036 970
f 794 760 793
f 747 706 720
f 484 437 415
f 1040 1035 1032
f 753 713 630
f 155 130 179
f 540 569 504
f 394 366 403
f 16 11 15
f 636 571 639
f 854 815 878
f 507 457 434
f 157 117 149
f 329 277 282
f 588 535 566
f 786 752 753
f 686 687 642
f 1033 1034 1038
f 653 661 582
f 32 31 27
f 57 51 52
f 846 795 776

