# https://github.com/mikedh/trimesh
v -1.99279238 -1.99837108 -0.89204129
v -1.99884583 -1.99777038 -0.83238909
v -1.99195554 -1.99898798 -0.57172492
v -1.99371268 -1.99721773 -0.28673971
v -1.99555399 -1.97518117 -0.10365831
v -2.00098588 -1.87306805 -0.66573200
v -2.00155761 -1.87089021 -0.19810362
v -1.99508836 -1.93050094 -0.89842567
v -2.00121619 -1.93332107 -0.46293235
v -1.99600889 -1.73982580 -0.13770583
v -2.00204517 -1.84446831 -0.84805146
v -1.99170853 -1.72187800 -0.89878395
v -2.00031854 -1.68511326 -0.40217218
v -2.00084855 -1.60137744 -0.79182938
v -2.00010993 -1.58988995 -0.58424649
v -2.00166322 -1.62608821 -0.21375872
v -2.00050546 -1.43997378 -0.34353709
v -1.99735405 -1.51284535 -0.17163387
v -1.99341346 -1.36803503 -0.89777055
v -2.00017502 -1.37150044 -0.62818184
v -2.00108101 -1.24594874 -0.83146080
v -2.00128700 -1.26549263 -0.23617722
v -1.98356964 -1.35787303 -0.18690978
v -2.00008990 -1.17912395 -0.47003505
v -1.99240066 -1.08162428 -0.22826663
v -1.99379708 -1.02738900 -0.89755586
v -2.00075127 -0.96267886 -0.74002764
v -2.00050880 -0.96828688 -0.35374930
v -2.00023963 -0.64038770 -0.66602406
v -1.99494697 -0.80012463 -0.26907420
v -1.99705912 -0.81412313 -0.89561680
v -2.00085856 -0.66943182 -0.40312153
v -2.00345756 -0.67815892 -0.84868821
v -1.99681594 -0.57254369 -0.89540216
v -1.99960114 -0.45671685 -0.32917422
v -2.00127794 -0.37409471 -0.78734741
v -2.00027062 -0.28434104 -0.60413793
v -1.98518779 -0.25141339 -0.89844909
v -1.99491789 -0.18234156 -0.35662743
v -2.00122477 -0.01646228 -0.84026071
v -2.00088217 -0.09592317 -0.45346343
v -2.00036194 0.03792851 -0.64893624
v -1.99396183 0.11380752 -0.89873233
v -1.99400284 0.07133709 -0.39058751
v -2.00085427 0.16861456 -0.49530446
v -2.00119139 0.40304654 -0.82391527
v -1.99530651 0.30285834 -0.42344439
v -1.99199487 0.39766549 -0.89845595
v -2.00079920 0.38459503 -0.56143936
v -1.99722578 0.52473872 -0.46046716
v -2.00151922 0.70948510 -0.52889159
v -1.99643089 0.66099327 -0.89266893
v -2.00119449 0.78706472 -0.84040639
v -2.00081159 0.82010608 -0.70069876
v -1.97687866 0.86335533 -0.89992508
v -1.98847081 0.78584378 -0.48855507
v -2.00019600 0.91945164 -0.52981403
v -1.99147321 1.11880248 -0.89895704
v -2.00120975 1.02880805 -0.81626138
v -2.00108887 1.13539784 -0.64087930
v -1.99378397 1.06233363 -0.52886984
v -1.99557258 1.19450276 -0.54847744
v -1.99919464 1.34541493 -0.88765767
v -2.00014760 1.34870439 -0.58643314
v -2.00188662 1.43488054 -0.75104192
v -1.98223235 1.54464178 -0.59398463
v -1.99496032 1.62430339 -0.89874956
v -2.00266530 1.82572513 -0.81201139
v -2.00189425 1.71982842 -0.67825112
v -1.99445750 1.80602436 -0.63299569
v -1.99505069 1.89175778 -0.90020808
v -2.00139643 1.94939380 -0.66586038
v -1.99379207 1.99998670 -0.78326353
v -1.99609782 1.99925046 -0.88550451
v -1.98462536 1.99896031 -0.66377184
v -1.86765064 -2.00197513 -0.75789460
v -1.93991329 -1.99693532 -0.09666577
v -1.88166334 -1.92714031 -0.08496116
v -1.85964038 -1.76775701 -0.10499427
v -1.87066771 -1.77473683 -0.90152243
v -1.96128465 -1.61045332 -0.14521475
v -1.86275233 -1.50944550 -0.90112874
v -1.93835069 -1.28675861 -0.90264663
v -1.86040284 -1.20566667 -0.18373904
v -1.95590569 -0.95985253 -0.90277228
v -1.86302473 -0.77154825 -0.24484901
v -1.92066528 -0.68504484 -0.90092352
v -1.93814613 -0.59428694 -0.28340226
v -1.96209981 -0.35589575 -0.32166353
v -1.90207602 -0.37867636 -0.90163419
v -1.93802335 -0.08227799 -0.35455319
v -1.84279253 0.05147742 -0.90090802
v -1.85606171 0.20313387 -0.38014004
v -1.93911864 0.30638002 -0.90222683
v -1.91737177 0.37901967 -0.41561252
v -1.91320993 0.62398534 -0.44965485
v -1.95530583 0.70648127 -0.90176281
v -1.95405056 0.98182612 -0.50712356
v -1.88020159 1.09332614 -0.90135273
v -1.89391829 1.17247372 -0.52309671
v -1.96532585 1.29641919 -0.55309555
v -1.85477640 1.30375354 -0.90096059
v -1.85609318 1.57373505 -0.90158608
v -1.85166349 1.84667807 -0.90181407
v -1.92274405 1.93403249 -0.63366315
v -1.73892714 2.00264459 -0.70962158
v -1.89825107 -1.99998231 -0.89369377
v -1.84048654 -2.00073583 -0.57971570
v -1.90331103 -2.00230200 -0.36141264
v -1.88456179 -2.00316269 -0.14430632
v -1.95148041 -1.95804293 -0.90291932
v -1.83811261 0.90753679 -0.47594702
v -1.86499454 1.72224980 -0.59427538
v -1.92322852 2.00071268 -0.89562270
v -1.81744875 -1.51828940 -0.13240398
v -1.79307307 -1.04684348 -0.90055260
v -1.79308964 -0.98111035 -0.20274389
v -1.80960371 -0.38170758 -0.29019079
v -1.74577584 -0.06746120 -0.32217380
v -1.86716761 -0.15993319 -0.90123406
v -1.86070372 0.59221571 -0.90072277
v -1.78816749 1.99783950 -0.62596294
v -1.83437397 1.48541467 -0.55586174
v -1.76643063 -1.91924460 -0.90181073
v -1.76316120 -0.83968879 -0.90025785
v -1.75594689 0.47631233 -0.40011155
v -1.72156204 0.91546624 -0.90004870
v -1.74294509 -1.24958027 -0.90020403
v -1.71946468 0.28484427 -0.90004805
v -1.64576580 -2.00009425 -0.25077899
v -1.71952202 0.71168535 -0.42636487
v -1.71165623 -0.43294647 -0.90017584
v -1.61525311 -1.99652953 -0.89766088
v -1.63063075 -0.17698761 -0.89998075
v -1.66665317 0.59983628 -0.89991656
v -1.64319576 1.86876397 -0.57265940
v -1.62957813 1.99060421 -0.89906654
v -1.73395123 -1.99493666 -0.05296863
v -1.57628299 -1.64053256 -0.89995423
v -1.57841148 0.25320612 -0.33542246
v -1.66726460 1.20823507 -0.90000430
v -1.61207296 1.65162544 -0.53763500
v -1.56070317 -2.00128992 -0.77159032
v -1.64863004 -2.00143523 -0.06657227
v -1.50529577 -0.44097869 -0.22426715
v -1.67336489 1.21731429 -0.48835224
v -1.51201727 -1.40862698 -0.08970790
v -1.58148720 -0.61929603 -0.21376864
v -1.57524111 -0.62254916 -0.89992556
v -1.63693501 1.65269117 -0.89996299
v -1.56554963 -0.84598492 -0.17881505
v -1.62477817 1.45825284 -0.51291343
v -1.54849602 -1.89471860 -0.02760949
v -1.63853444 -1.98387988 -0.03297150
v -1.59953572 -1.46131141 -0.89993170
v -1.57517673 1.46776860 -0.89980939
v -1.53635658 1.88249760 -0.90134629
v -1.47829332 2.00105696 -0.83411947
v -1.55288710 -1.99984736 -0.47609064
v -1.52390935 -1.90449030 -0.90144029
v -1.57000686 -1.64174909 -0.06841864
v -1.54705753 -0.15982586 -0.27167314
v -1.52596773 0.54377185 -0.36611500
v -1.50890459 1.14428787 -0.44697949
v -1.55331446 -1.09294386 -0.14150070
v -1.47741212 -1.02413119 -0.89992145
v -1.55751802 0.03298591 -0.89995286
v -1.50854792 0.87994902 -0.40984636
v -1.44076397 -0.77133686 -0.89992830
v -1.47172930 0.82438212 -0.89995125
v -1.47839882 1.04419761 -0.89992830
v -1.45380475 0.55089300 -0.89996210
v -1.46289291 1.26201158 -0.89990941
v -1.52397730 -1.99213726 -0.01200684
v -1.53505232 -1.25720317 -0.89993259
v -1.47845651 0.30999189 -0.89993110
v -1.22684385 -1.71151085 0.00713260
v -1.31538798 -2.00160642 -0.02531261
v -1.41929139 -0.40522106 -0.89994839
v -1.41670717 0.71863501 -0.36982712
v -1.33107199 1.58526962 -0.89982530
v -1.41499855 1.99201660 -0.54882708
v -1.36199071 2.00142079 -0.60542253
v -1.38205792 -1.99974592 -0.38061866
v -1.33518793 -1.46086938 -0.89990887
v -1.40233888 1.45502203 -0.47019285
v -1.38120343 -0.67529063 -0.16758971
v -1.36194600 0.01746826 -0.89995578
v -1.35601939 1.74277334 -0.50142527
v -1.35351087 -1.99813266 -0.89193305
v -1.38990213 -1.99987824 -0.60793480
v -1.38009753 -0.23271988 -0.89997092
v -1.35181715 0.09795632 -0.27060044
v -1.32610835 0.32269632 -0.29717559
v -1.33855297 -0.16774022 -0.23084018
v -1.44307353 -1.16860498 -0.11347648
v -1.42289855 -0.94557590 -0.13951231
v -1.33995153 -1.99450083 0.02198551
v -1.39193954 -1.31653584 -0.08866439
v -1.28565420 -0.59048123 -0.89996770
v -1.20329155 -2.00011678 -0.18703619
v -1.24620630 -1.71169717 -0.90006933
v -1.29168274 -1.21178926 -0.89996144
v -1.30832280 -1.19615407 -0.18331441
v -1.38847698 -1.05633862 -0.16221404
v -1.22792103 0.65194850 -0.89999768
v -1.29032089 1.00830965 -0.38634178
v -1.20320489 1.35195260 -0.41790861
v -1.27463664 -1.93626077 0.03122718
v -1.27546765 -0.91299446 -0.21462698
v -1.31205727 0.53735470 -0.32453102
v -1.22808542 1.94068604 -0.50359365
v -1.31735911 1.99302082 -0.89929226
v -1.18600585 1.25179689 -0.89997139
v -1.16897895 -2.00114794 -0.73605063
v -1.19554235 -1.92645795 -0.90094229
v -1.18308558 -0.88235636 -0.89998522
v -1.29694225 -0.72543282 -0.14916980
v -1.20373894 1.02221947 -0.89999160
v -1.26498105 -1.49716873 -0.03644269
v -1.20410527 -1.34082003 -0.17282605
v -1.16841974 -0.41313513 -0.16346212
v -1.21928527 -0.14470371 -0.89998916
v -1.18530394 0.43848478 -0.89999774
v -1.17240407 0.83808284 -0.89999941
v -1.23274197 1.85035830 -0.90106156
v -1.12364914 -0.67504035 -0.19562296
v -1.19826581 -0.36491430 -0.89999184
v -1.06122555 0.13562735 -0.22063950
v -1.15021350 0.21066861 -0.89999267
v -1.14155819 0.72947817 -0.31902817
v -1.25002624 1.99920969 -0.52511224
v -0.98078193 2.00107484 -0.61985668
v -1.12164356 1.60529678 -0.43788513
v -1.17246463 -1.99633152 0.05063063
v -1.09007479 -1.40936274 -0.89995953
v -1.15836491 -0.08648617 -0.20796721
v -1.03770758 1.66672545 -0.89995202
v -1.13027169 -1.99985177 -0.47007850
v -1.10680379 -1.50013823 -0.09354241
v -1.06831743 1.77374535 -0.45115495
v -0.98320355 1.99336987 -0.89850250
v -1.10993816 -1.10753305 -0.89999291
v -1.07436635 0.41961651 -0.26284179
v -1.10297825 1.04112213 -0.35533476
v -1.06339838 2.00096183 -0.82166752
v -1.14469852 -2.00021489 -0.88838026
v -1.13901712 -1.09995795 -0.26595020
v -1.08570089 -0.70334284 -0.89999607
v -1.15788438 -0.57448677 -0.14178726
v -1.01656629 0.01881825 -0.90000114
v -1.03309216 1.99877887 -0.48443332
v -1.06065227 -1.92043586 0.06933707
v -1.03074099 -0.77244068 -0.25306077
v -1.05534245 -0.47315330 -0.89999953
v -0.94986464 -1.69560738 -0.90007332
v -0.98156943 1.38768547 -0.89991233
v -1.07026054 -1.61797995 0.01963901
v -1.04098346 -1.36869271 -0.19784574
v -0.97312750 -1.09442611 -0.28289613
v -1.07136454 -0.91808177 -0.27657336
v -0.92192294 1.90473847 -0.90187922
v -0.94403161 1.95407229 -0.45169049
v -1.01986410 -1.99417574 0.08372978
v -1.00789727 -1.24983765 -0.25113119
v -1.02366390 1.38966541 -0.38907575
v -0.97064091 -1.99987228 -0.31967419
v -0.96851255 -2.00093622 -0.07439519
v -0.97535147 -0.18990583 -0.15820561
v -0.88218494 0.61743980 -0.90000185
v -0.93796779 1.12836616 -0.89999363
v -0.99611379 -2.00140591 -0.82006231
v -0.93815448 -0.22509810 -0.90000179
v -0.94459059 1.11421745 -0.33547020
v -0.96924080 -1.55900330 -0.05223490
v -0.90988876 -1.11110152 -0.90000179
v -0.94918038 -0.82712049 -0.89999959
v -1.00392272 -0.39932816 -0.13630262
v -0.91353335 0.80947893 -0.28688007
v -0.95880105 -1.97407014 -0.90057179
v -0.90723397 -0.62525959 -0.90000155
v -0.89567627 -0.41061525 -0.16893005
v -0.88854863 0.87250249 -0.90000281
v -0.87294449 -1.99819620 -0.89254048
v -0.84592320 -2.00241561 0.07377245
v -0.83160652 -0.79561437 -0.27725300
v -0.94112207 0.29096936 -0.90000120
v -0.86535581 -1.63620479 0.05721693
v -0.91500797 -1.47000511 -0.89997497
v -0.86786302 -2.00004322 -0.57241234
v -0.85735406 0.58015012 -0.24438310
v -0.75864591 -1.82960184 -0.90051851
v -0.75887515 -0.46214035 -0.22860105
v -0.84812500 -0.42617841 -0.90000114
v -0.78228839 1.26025264 -0.32511169
v -0.81310691 1.58559816 -0.37653559
v -0.87931462 -1.99121864 0.11136875
v -0.88793774 -1.41447801 -0.16671972
v -0.79694416 -0.09073360 -0.13778917
v -0.82328411 0.25849520 -0.19219439
v -0.72415628 -1.86881525 0.12544559
v -0.80947347 -1.30623765 -0.89999065
v -0.86439188 -1.16925586 -0.26377293
v -0.88850476 -0.31455430 -0.13053868
v -0.81658919 1.80591636 -0.40766603
v -0.85186388 1.99943118 -0.44996464
v -0.73163249 0.25650357 -0.90000066
v -0.73678406 1.65242462 -0.89994576
v -0.75950475 -2.00173457 -0.82333210
v -0.82863631 -1.56680162 -0.01908846
v -0.75073202 1.28757327 -0.89996269
v -0.70505227 -1.99984426 -0.45366695
v -0.74777694 -2.00007195 -0.12355780
v -0.77165015 -0.82188104 -0.90000126
v -0.75356628 -0.06866638 -0.90000066
v -0.78354998 0.42589765 -0.90000084
v -0.73167159 0.99788063 -0.90000281
v -0.63181497 -1.59584267 -0.89999106
v -0.78973629 -1.29728467 -0.20749710
v -0.75402172 -1.96112056 -0.90127441
v -0.69565453 1.01272171 -0.27400884
v -0.73759742 -0.95599199 -0.27141064
v -0.73748453 -1.99104674 0.13844895
v -0.63189681 -0.58086912 -0.90000030
v -0.71807124 0.80970066 -0.25016421
v -0.66516699 -1.99976976 -0.29065889
v -0.73724152 -1.44522936 -0.10254736
v -0.61809732 -1.00507910 -0.23802769
v -0.63437994 -1.08259333 -0.90000090
v -0.64690556 2.00074940 -0.58206567
v -0.62280794 -1.39203353 -0.89998856
v -0.62568762 -0.15884888 -0.16366722
v -0.66308327 -0.28178686 -0.90000030
v -0.72035392 0.45871751 -0.21423584
v -0.74251105 2.00091319 -0.84245136
v -0.58962251 0.08415820 -0.90000012
v -0.65705134 1.44915562 -0.32778016
v -0.58119525 -2.00124199 -0.75683978
v -0.58667441 -0.68336053 -0.26869124
v -0.68337454 -0.11449599 -0.11994549
v -0.63763596 0.64837222 -0.90000090
v -0.58628775 1.92877464 -0.38008994
v -0.61362596 1.99924927 -0.41565356
v -0.64419903 -1.63798304 0.10703098
v -0.63394369 -1.33170147 -0.12163050
v -0.65044595 -1.54951246 0.05794430
v -0.66456832 0.17619984 -0.15405737
v -0.62068303 0.67402403 -0.23540498
v -0.61257090 1.78437834 -0.36591935
v -0.64484073 1.99152045 -0.89687642
v -0.56936748 -1.99754639 0.16214939
v -0.54033639 -0.88558931 -0.90000048
v -0.58327450 1.94566612 -0.90288380
v -0.58138122 -1.99977393 -0.89246580
v -0.40144189 -1.74059327 0.16766259
v -0.51453342 0.17241542 -0.19465393
v -0.54809095 0.45490788 -0.23538592
v -0.53467532 -2.00262422 0.08190001
v -0.52302797 -1.93562467 -0.90083590
v -0.47456499 -1.06661905 -0.16602956
v -0.54784222 -0.43207197 -0.25496727
v -0.49580337 1.57694142 -0.31504404
v -0.45972295 -0.47512101 -0.90000000
v -0.47313287 -0.21468047 -0.22454740
v -0.56569787 0.88002973 -0.90000078
v -0.52229877 1.32821255 -0.89991668
v -0.50429090 -1.38310010 0.01553631
v -0.60007782 0.01047115 -0.11792498
v -0.47329404 0.39024453 -0.90000000
v -0.47744800 -0.21374510 -0.90000000
v -0.50580968 1.22606521 -0.26770994
v -0.51373042 -1.47694952 0.10485925
v -0.44516851 -1.21794243 -0.89999702
v -0.48201175 1.72635751 -0.90019342
v -0.49487908 1.99290280 -0.37459859
v -0.50225164 0.99144106 -0.23360541
v -0.41048129 0.54098373 -0.23228182
v -0.48283602 1.05765383 -0.89999375
v -0.42341300 -1.99978907 -0.35683954
v -0.43235322 -2.00008399 -0.09630830
v -0.33632396 -1.49402101 0.14565514
v -0.40380766 0.76634078 -0.90000102
v -0.43385579 2.00076823 -0.82819179
v -0.38101633 -1.99990542 -0.60389110
v -0.41265072 -0.03343306 -0.18891710
v -0.40930958 0.79044240 -0.19092274
v -0.44625367 -1.76772053 -0.90025493
v -0.38295017 -0.69167535 -0.24040046
v -0.39808418 -0.73651261 -0.90000012
v -0.40251948 1.36294429 -0.26734111
v -0.37108456 -1.46078677 -0.89998069
v -0.26246087 1.81240325 -0.30340057
v -0.38922648 1.99181252 -0.89703628
v -0.38314758 -1.99725063 -0.88471982
v -0.37390514 -1.18879301 -0.03498069
v -0.35741328 0.24253284 -0.23404388
v -0.33763217 -1.03782029 -0.90000030
v -0.30733194 -0.38583816 -0.25510046
v -0.32101794 1.91292768 -0.90199670
v -0.33422889 2.00114637 -0.41890940
v -0.27981930 -0.02170698 -0.90000000
v -0.22001232 1.02684562 -0.18525314
v -0.26401533 1.24386280 -0.22438304
v -0.40331902 -1.97977800 0.20194349
v -0.29372855 -1.91045113 -0.90100047
v -0.23338883 -1.68693764 -0.90006563
v -0.31968190 -1.28769160 0.11749106
v -0.26627486 -0.74810634 -0.19506208
v -0.29653053 1.60593264 -0.89986113
v -0.25386815 -1.99906690 0.21916750
v -0.29069357 -1.20369203 0.06038903
v -0.30869435 0.15885263 -0.89999995
v -0.28156831 1.34558706 -0.89993164
v -0.25047280 1.60508351 -0.27234971
v -0.26982181 -2.00046761 -0.01705411
v -0.25602143 -0.95317532 -0.10461060
v -0.26585801 -0.40859409 -0.90000000
v -0.22006391 0.62993525 -0.17573683
v -0.18713467 0.98195987 -0.89999995
v -0.29905917 1.15285246 -0.89998242
v -0.24160732 -2.00149043 -0.72999617
v -0.24155848 -1.26229353 -0.89999315
v -0.23788856 0.34069305 -0.90000000
v -0.16604014 2.00019579 -0.66497722
v -0.31543391 1.99917178 -0.34718788
v -0.16888829 -1.99984414 -0.26936719
v -0.27127509 0.05394267 -0.22153371
v -0.18648438 1.96159439 -0.30866322
v -0.29849501 -1.94570584 0.21715935
v -0.17193942 -0.81864856 -0.90000024
v -0.23147036 0.54570876 -0.90000030
v -0.23924731 -0.17375087 -0.90000000
v -0.21071883 -0.08763007 -0.23739330
v -0.17890458 0.78189473 -0.90000120
v -0.14080890 -1.31150426 0.15748972
v -0.15516563 -1.99989529 -0.46833122
v -0.08029504 -0.94451792 0.02393482
v -0.13796209 0.26522266 -0.23153183
v -0.09668361 -1.50985188 -0.89997885
v -0.15808748 -1.06851478 -0.89999995
v -0.06844115 -1.99832232 -0.89279786
v -0.09895355 -2.00304515 0.17946822
v -0.07747378 0.44058930 -0.19199641
v -0.14968591 -0.51542753 -0.90000000
v -0.08586763 0.67721193 -0.11352637
v -0.21231379 1.99919920 -0.32689810
v -0.10254917 -1.92828817 0.25172275
v -0.09161866 -0.77905477 -0.09927860
v -0.08414698 1.61326842 -0.90009484
v -0.14356394 2.00105958 -0.84927162
v -0.06813257 -2.00198192 -0.80238935
v -0.13743308 -1.09791930 0.12056264
v -0.12273921 -0.47271987 -0.22113119
v 0.03138882 0.18416743 -0.89999995
v -0.07327727 1.47188466 -0.22005942
v -0.02064744 1.99027400 -0.89789662
v -0.01569502 -0.20581188 -0.90000000
v -0.09663062 0.88277989 -0.14129047
v -0.02887088 1.85116558 -0.90148803
v -0.09246943 2.00111561 -0.41582245
v 0.03574793 -2.00019343 0.01896424
v -0.08187471 -1.62828667 0.21236885
v -0.04410124 1.12446110 -0.89999214
v 0.01979291 -1.93913205 -0.90107944
v -0.03759277 -0.57797008 -0.16142253
v -0.08947122 -0.21327909 -0.24237507
v -0.03960398 -1.26978953 -0.89999643
v -0.02979662 -0.64334364 -0.90000012
v 0.02225385 -0.01702205 -0.90000000
v -0.08212173 0.04250785 -0.23808326
v 0.01728072 1.17535322 -0.16126169
v 0.03446581 0.43476014 -0.90000006
v -0.00340443 0.74745231 -0.90000108
v -0.01178185 1.77056079 -0.24989611
v -0.07888398 1.99814253 -0.29897761
v 0.11612534 0.80236571 -0.08963057
v 0.01591378 1.31647961 -0.89996299
v 0.08218158 -2.00008137 -0.60838780
v -0.01205740 -1.99823565 0.26659864
v 0.00830728 -1.11419065 0.15848161
v 0.09877818 -1.99988503 -0.41897076
v 0.11992100 -1.80682118 -0.90024599
v 0.05153510 -0.26092657 -0.22425774
v -0.01282530 -0.97595043 0.12941782
v 0.06090494 -0.39385199 -0.90000000
v 0.07386297 -1.99995632 -0.17780766
v 0.10701668 -1.56516249 0.23937841
v 0.02811021 -0.91388644 -0.90000048
v 0.05844546 0.11345722 -0.23241815
v 0.02404117 -0.73861582 -0.05269468
v 0.13973296 -0.11597709 -0.23764472
v 0.09867095 1.38951080 -0.17583205
v 0.18113183 2.00020676 -0.26703551
v 0.08214374 -1.15447653 -0.89999810
v 0.02510286 -0.91629959 0.09989525
v 0.06556297 1.98861008 -0.26572424
v 0.12041866 2.00013762 -0.57314250
v 0.09377156 -1.86651606 0.27999801
v 0.11840286 -1.63104195 -0.89995071
v 0.13869138 -1.29087938 0.20819610
v 0.03320435 -0.49903819 -0.16549633
v 0.07131541 0.32173966 -0.20012511
v 0.10212357 2.00097923 -0.81198880
v 0.08622825 -1.99499590 0.29331702
v 0.11844736 -1.07145501 0.17140707
v 0.03960924 0.53337603 -0.12209012
v 0.26064016 1.01371937 -0.09149369
v 0.11295114 1.56451266 -0.89994445
v 0.04058781 0.63726281 -0.08163293
v 0.09034172 -0.94577182 0.08232495
v 0.12618957 -0.77767892 -0.07563381
v 0.15864947 -0.76865165 -0.90000054
v 0.13979328 -0.57024425 -0.17219366
v 0.17274030 -0.42850268 -0.21547663
v 0.25186635 1.72141509 -0.19307238
v 0.19730010 -1.35582675 -0.89998051
v 0.16858147 -0.58481258 -0.90000006
v 0.21299351 0.63449698 -0.13917616
v 0.15840977 0.73262494 -0.07678137
v 0.21582221 1.06528990 -0.89999661
v 0.14972619 -2.00230880 0.27387670
v 0.20498422 -1.04742445 -0.90000072
v 0.23337509 -0.36945883 -0.89999995
v 0.22800302 0.80716233 -0.90000090
v 0.25787707 1.39238660 -0.89990619
v 0.16614390 -2.00197060 -0.85129079
v 0.19219525 1.20597820 -0.13217649
v 0.37815647 1.92535381 -0.19606289
v 0.38583489 2.00028305 -0.44393155
v 0.29612367 -1.99991853 -0.31597125
v 0.24238713 -1.91682727 0.31615111
v 0.23173546 -0.11268971 -0.89999995
v 0.23460463 -0.02807368 -0.22541571
v 0.23837238 0.07867675 -0.89999995
v 0.21836837 0.20992850 -0.22667555
v 0.27012110 0.58217334 -0.90000024
v 0.28620498 -1.99826248 -0.88895717
v 0.21188660 0.36380552 -0.90000000
v 0.34626049 1.36214106 -0.12491956
v 0.30472046 1.88730984 -0.90189317
v 0.25474855 1.99458318 -0.89819357
v 0.31704315 -1.99987574 -0.12656827
v 0.18717024 -1.99762757 0.31212372
v 0.23587383 -1.00004680 -0.00242737
v 0.34059241 -0.81589503 -0.15743780
v 0.31340469 -0.37030325 -0.23669350
v 0.27126896 0.44481324 -0.20559135
v 0.30389254 -1.98902662 0.33423305
v 0.33773145 -1.75442846 0.31020323
v 0.43704144 -1.56155891 0.30300015
v 0.28393403 -1.16687370 0.11028927
v 0.41989373 2.00109129 -0.76217005
v 0.32546538 -2.00014634 0.09491889
v 0.30151762 1.69969778 -0.90003767
v 0.34499931 -2.00191409 0.29284278
v 0.32326463 -0.94549460 -0.90000138
v 0.39679463 -2.00106294 -0.80042580
v 0.39257569 -1.94056685 -0.90210506
v 0.41550501 -1.60049529 -0.89989748
v 0.38343246 -0.67849396 -0.20818384
v 0.36781092 -2.00001378 -0.55978837
v 0.38829247 -1.38854570 0.26474154
v 0.37269886 -0.19504177 -0.22792466
v 0.38251443 0.33065133 -0.89999995
v 0.42175905 1.24024253 -0.89997819
v 0.36233418 0.10720154 -0.21063362
v 0.43853135 -1.21097727 -0.89999309
v 0.37572862 -0.99410863 -0.09484404
v 0.36795975 -0.73698107 -0.90000042
v 0.42716496 0.39729475 -0.21868262
v 0.40760027 0.60495995 -0.19434957
v 0.31996210 0.89958851 -0.06782549
v 0.42217906 1.18212931 -0.08461124
v 0.47997804 -0.57695718 -0.90000000
v 0.46306537 -0.28993867 -0.89999995
v 0.41439150 -0.01420663 -0.18216671
v 0.48461626 0.64385896 -0.90000036
v 0.42207198 0.90196364 -0.10547010
v 0.41260992 1.55404000 -0.13917513
v 0.36453922 -1.80541546 -0.90049121
v 0.38238893 -1.38975019 -0.89996478
v 0.37354933 -1.31745399 0.18792728
v 0.44722201 1.03709440 -0.90000120
v 0.39718716 1.99177652 -0.20474556
v 0.46169092 -0.11645354 -0.89999995
v 0.55276035 2.00085931 -0.24878181
v 0.41216113 -1.96611578 0.35552004
v 0.45797394 0.12081053 -0.90000000
v 0.42977573 -1.16053278 -0.02769251
v 0.49092521 0.84671919 -0.90000173
v 0.48830901 1.05985324 -0.06106273
v 0.52851267 1.68972640 -0.89990041
v 0.54106720 -1.99989397 -0.13505043
v 0.50818841 -1.33860220 0.05413295
v 0.57289217 -0.11234112 -0.16068937
v 0.60415535 0.35452204 -0.19940510
v 0.56968109 1.44469814 -0.89993682
v 0.56589617 1.71420460 -0.13246678
v 0.52726005 1.99821859 -0.89590552
v 0.51269479 -0.88182564 -0.90000078
v 0.60460923 -0.68728940 -0.23485823
v 0.51366420 -1.99994452 -0.43802896
v 0.48113079 -1.99872310 0.36170843
v 0.62935303 -1.81065781 -0.90067598
v 0.57957630 -0.36012584 -0.22145046
v 0.63066177 0.19282185 -0.16233744
v 0.58810754 -2.00095553 0.24396372
v 0.53219576 -1.96283467 0.37817928
v 0.58489550 0.84403019 -0.17224781
v 0.61766974 1.42283969 -0.08092675
v 0.59692673 -1.99416740 -0.89869127
v 0.60297490 -1.12386788 -0.89999488
v 0.57375707 -1.00320626 -0.17334083
v 0.57559870 0.41207694 -0.90000018
v 0.57622336 -2.00033100 -0.66097066
v 0.57094429 -1.39593465 -0.89994660
v 0.57513068 -1.50254376 0.17862521
v 0.59744112 -1.21685679 -0.09503920
v 0.56706677 1.90691238 -0.90138057
v 0.61598532 -1.80201847 0.37036589
v 0.66326849 0.68431561 -0.20329085
v 0.64226626 1.16339378 -0.89999899
v 0.59697331 1.99459105 -0.16885358
v 0.57249449 -1.57315953 0.32215542
v 0.63448922 0.03327986 -0.90000018
v 0.61782835 0.00507997 -0.10375163
v 0.72670023 1.99997239 -0.53743091
v 0.70046876 1.09298008 -0.12653444
v 0.73230313 -1.61702914 0.23137199
v 0.64839040 -1.38855739 -0.01697182
v 0.64331244 -0.45191471 -0.90000030
v 0.67001723 -0.16085141 -0.90000024
v 0.76632498 0.72991853 -0.90000132
v 0.69103329 -2.00091107 -0.83528259
v 0.73120932 -1.99996550 -0.49734509
v 0.67620991 -1.99220891 0.40513447
v 0.79245578 1.60266380 -0.89997956
v 0.70987229 -1.99991794 -0.18001078
v 0.75474135 -1.55531557 -0.89998928
v 0.74265002 -0.69598718 -0.90000149
v 0.65797667 1.24012332 -0.05019938
v 0.86512159 2.00140362 -0.83085266
v 0.73941748 0.11857753 -0.09259821
v 0.69194268 0.26760684 -0.90000042
v 0.73177765 -1.66390545 0.36320680
v 0.79377125 0.43182426 -0.90000108
v 0.76328842 1.79903536 -0.90078381
v 0.81385635 1.93818836 -0.11497281
v 0.71417318 -2.00013847 0.08778360
v 0.80040024 -0.97175802 -0.90000465
v 0.82748090 1.73957043 -0.08616942
v 0.72934191 -1.53825350 0.08624190
v 0.75813506 -1.17029447 -0.17929634
v 0.77393530 -0.54549424 -0.22085702
v 0.81033228 -0.41104576 -0.90000060
v 0.79316525 -0.35774523 -0.17135782
v 0.76709007 0.99001830 -0.90000197
v 0.79608665 -1.93779547 0.42578662
v 0.82776080 -0.22386469 -0.10163411
v 0.75298457 -0.02417279 -0.03003924
v 0.83333586 -1.35050602 -0.89997545
v 0.81656359 -0.05312769 -0.90000084
v 0.80708758 1.98154621 -0.89856121
v 0.77868251 -1.38388677 -0.08365219
v 0.87298314 0.68785565 -0.19324933
v 0.90008317 2.00123673 -0.19359188
v 0.83281730 -2.00126023 0.33886525
v 0.92476074 -1.88507087 -0.90142521
v 0.95208488 -1.80079276 0.43459314
v 0.92378257 -1.02614207 -0.23308475
v 0.83243011 1.36948090 -0.89998266
v 0.82608937 1.39038985 -0.04191435
v 0.93017368 -1.99191232 -0.89789024
v 0.90856252 -1.99993582 -0.29417223
v 0.89032076 -0.21899217 -0.90000126
v 0.82220642 0.89430277 -0.19243479
v 0.89152299 1.99611859 -0.11461060
v 0.90219252 -1.99998970 0.06577513
v 0.87250893 0.13529890 -0.02426564
v 0.91135667 0.15054511 -0.90000078
v 0.98924343 -1.47552509 -0.04448246
v 1.00612764 -0.22978410 0.00702965
v 0.86185239 -1.68165655 0.31093142
v 0.97696595 0.57688187 -0.15475452
v 0.91946165 1.15833383 -0.90000459
v 0.89723538 1.28059595 -0.10956406
v 0.97278641 1.54660063 -0.03086030
v 0.92210214 -1.61857636 -0.90006122
v 0.95446490 -0.81514470 -0.23251037
v 0.88683669 -0.00772966 0.09720418
v 0.99774788 0.54583364 -0.90000149
v 0.93004636 1.12236528 -0.16826466
v 1.01552211 0.40899800 -0.08574776
v 0.90015690 -1.99358828 0.44883853
v 0.92685316 -1.26994748 -0.17665686
v 0.97593252 -1.99997671 -0.56939003
v 0.94363598 -1.62439413 0.14159829
v 0.90895168 -1.20282538 -0.89999249
v 1.01747839 -0.13153064 0.11403857
v 1.00141655 0.13645168 0.07908811
v 0.97688429 0.97624402 -0.90000251
v 1.08878235 1.94360857 -0.90172997
v 0.98486255 2.00003724 -0.60621062
v 1.01306645 -0.63826648 -0.18923379
v 0.97967581 -2.00084228 -0.78294495
v 0.96077071 -1.71437950 0.41588450
v 1.05813591 -2.00033648 0.27328315
v 1.05331980 -0.56671260 -0.90000102
v 1.17060195 -0.54380071 -0.08980702
v 1.02245353 0.74418049 -0.90000078
v 1.00360237 0.99942141 -0.18835357
v 1.03455971 1.35644417 -0.08208128
v 1.03370587 1.48393886 -0.89994445
v 1.06674228 -0.97560353 -0.90000120
v 0.99640505 -0.81131644 -0.90000448
v 0.98103802 -0.35506004 -0.90000114
v 1.04171012 1.99606233 -0.89610305
v 1.08291922 -1.67002995 0.26913822
v 1.06287257 -1.40489812 -0.89992520
v 0.96692179 -0.02604045 0.17819055
v 1.06381152 1.46284704 -0.00850926
v 0.98829351 -1.99063821 0.46779364
v 1.06318943 -0.09120123 -0.90000108
v 1.02016400 0.05539234 0.18362616
v 1.03697251 1.78539233 -0.90012917
v 1.02592347 -2.00171108 0.45394343
v 1.09257220 0.34273915 -0.89999762
v 1.11581944 0.02612408 0.20958123
v 1.13039563 1.87302094 -0.04626132
v 1.16072832 1.99420290 -0.06044235
v 1.12049888 -1.99992723 -0.42367297
v 1.12957333 -1.99988539 -0.01080746
v 1.17026482 -1.25375862 -0.89996603
v 1.11522625 -0.13328059 0.22828113
v 1.13764177 1.08963649 -0.89999339
v 1.14965390 -1.96439202 -0.90188882
v 1.13323949 -1.20148523 -0.18733998
v 1.09550361 0.86696665 -0.17824262
v 1.10890750 1.28262549 -0.89998576
v 1.06435732 -1.98273535 0.48002282
v 1.12772856 -1.70678801 0.44923115
v 1.18530427 -1.54393024 -0.89986202
v 1.11327444 -1.34295834 -0.12992996
v 1.08447014 1.20032733 -0.15243305
v 1.20798634 1.99987130 -0.44455546
v 1.17054461 2.00042205 -0.16652964
v 1.23976551 -1.99991424 -0.24149966
v 1.14541398 -1.56364531 0.07639945
v 1.21010266 -0.71717916 -0.89998844
v 1.21916006 -0.31525320 -0.89999047
v 1.24007343 0.34897994 0.11581276
v 1.16685639 2.00172167 -0.84102276
v 1.25242530 -2.00156219 -0.80137321
v 1.20803808 -1.77411551 -0.90042445
v 1.19262586 -1.03597898 -0.20290011
v 1.21667717 0.13116415 -0.89999100
v 1.18221031 -2.00021834 -0.61722252
v 1.22751735 -2.00110013 0.45642668
v 1.17443476 -1.98513741 0.50042299
v 1.23715840 0.26129727 0.19699402
v 1.24709545 0.79968851 -0.12814429
v 1.26777731 1.64359288 -0.89989623
v 1.25612007 -0.85521642 -0.17090601
v 1.22963904 0.92016440 -0.89998069
v 1.20650624 1.02988558 -0.16103022
v 1.20826970 1.31940751 -0.07511894
v 1.28863786 -1.62937577 0.34525260
v 1.24152528 -1.44925268 -0.00434419
v 1.30310176 -0.46000380 0.06570264
v 1.21728633 0.68703895 -0.89998737
v 1.26454161 1.39816790 -0.89995155
v 1.22000061 -1.67536719 0.44745964
v 1.26447867 -1.05318732 -0.89996675
v 1.36510907 -0.41242796 0.20361133
v 1.24840043 -0.13591118 0.25762138
v 1.28491197 0.42513226 -0.89997563
v 1.24357699 0.65608065 -0.08346978
v 1.22677003 1.48860161 0.02313880
v 1.33170174 -1.99999256 0.18965758
v 1.30233835 -1.54326076 0.14596005
v 1.33994995 1.71570139 0.01457311
v 1.32684420 -1.99928172 -0.89332405
v 1.32831774 -0.86358602 -0.89994177
v 1.40599797 0.15825664 0.24531922
v 1.29625057 0.51732622 0.02286827
v 1.33407806 2.00022154 -0.69790003
v 1.31324623 -1.67796667 0.48498914
v 1.28008710 -1.25650097 -0.11390489
v 1.36131619 -0.07375715 -0.89997455
v 1.38804887 1.18433504 -0.89991584
v 1.37931762 -0.35873291 0.30792940
v 1.31471716 1.13378601 -0.11091000
v 1.42335675 1.78589110 -0.90040383
v 1.43464564 -1.68388636 -0.89990923
v 1.33222245 -0.57060137 -0.89996549
v 1.47545038 1.87951713 0.01820778
v 1.37382637 -1.96305544 -0.90100136
v 1.35054158 1.40643506 0.04551257
v 1.38946591 -1.99985011 -0.50980976
v 1.43004690 -1.99636645 0.54272792
v 1.39090834 -1.74789638 0.50961056
v 1.39969538 -1.36351056 -0.89989141
v 1.37916706 -0.65920351 -0.02969357
v 1.42139123 0.71811562 -0.89993098
v 1.34180425 1.28549187 -0.03943219
v 1.34196661 1.98340588 -0.89942744
v 1.40632103 -2.00265117 0.41082689
v 1.37962054 -1.91021020 0.53094831
v 1.34658752 -1.03242357 -0.13844927
v 1.38018523 -0.81262318 -0.09645166
v 1.41179071 0.98503225 -0.07526714
v 1.48813806 -1.99985165 -0.19149046
v 1.47751604 -1.99974627 0.00352735
v 1.39551078 -1.59216006 0.47781310
v 1.39603780 -1.31772102 -0.00747223
v 1.52838670 -1.20836176 -0.89988860
v 1.56262444 0.39598637 0.24161959
v 1.42540453 2.00148015 -0.83906320
v 1.48159371 2.00002341 -0.27784872
v 1.41157697 2.00176005 -0.06792888
v 1.43009864 -0.43037907 -0.89995101
v 1.45594130 -0.34781886 0.32698467
v 1.43657647 0.53288459 -0.89994827
v 1.41008960 0.75342100 -0.03474864
v 1.59438966 1.99910812 0.01204845
v 1.45115159 1.99986415 -0.49310115
v 1.46425162 -1.39068420 0.12136664
v 1.54378556 -0.70542223 -0.89988407
v 1.43160556 0.46899622 0.20075218
v 1.49808286 0.65140586 0.10003206
v 1.44686983 1.49293761 0.06591164
v 1.44946275 1.42479591 -0.89990321
v 1.46967803 -1.49445338 0.30694187
v 1.41369806 -1.14619214 -0.07524125
v 1.47918807 -0.25395253 -0.89992854
v 1.43830572 1.16929822 -0.02779499
v 1.70430504 -1.78932602 -0.90045413
v 1.49815796 -0.07604695 0.29533705
v 1.54365538 0.14848136 -0.89992443
v 1.44283973 0.97548049 -0.89989683
v 1.53781305 -1.99994261 0.25559726
v 1.48943375 -1.00400348 -0.03138639
v 1.49416874 -0.95790220 -0.89986589
v 1.51509093 1.27401643 0.08866274
v 1.55048559 -2.00058014 -0.70711401
v 1.49353932 -0.65038068 0.08556261
v 1.53626023 -1.99826784 -0.89540043
v 1.64632462 -1.72725100 0.55486342
v 1.53238307 -1.17499198 0.05128410
v 1.49035285 -0.79849602 -0.00291420
v 1.56395624 -0.03013886 -0.89995000
v 1.55129956 -0.53338298 0.36051780
v 1.55536781 -1.56661696 0.51625869
v 1.63553999 0.34414940 -0.89998415
v 1.56169198 0.85734515 0.06678200
v 1.69612919 1.70403342 0.08369595
v 1.70777331 -1.47467871 -0.89990315
v 1.60806165 1.10479431 -0.89985016
v 1.57690798 1.55552785 -0.89989224
v 1.67083345 1.94736581 -0.90183285
v 1.56400965 1.99862723 -0.89317688
v 1.69923375 -2.00151582 0.44821677
v 1.59746145 -1.36587436 0.39342982
v 1.56311785 -1.44616432 0.49523231
v 1.60560690 -1.27186407 0.23384732
v 1.60491083 -0.65226756 0.29739881
v 1.62542818 1.27143102 0.13092525
v 1.65130578 -2.00002689 -0.38011023
v 1.58175550 -0.91507674 0.07613409
v 1.57719444 -0.75475253 0.13020747
v 1.62661324 -0.33952278 0.35699722
v 1.56144653 1.07693498 0.05756302
v 1.71187232 2.00154071 -0.81988653
v 1.66207634 2.00062804 -0.19200516
v 1.58130191 -1.95377571 0.57585767
v 1.70673440 0.90895932 -0.90003011
v 1.65164994 -0.57128208 0.39439204
v 1.61210297 0.68755477 0.20745856
v 1.67593573 1.38397460 -0.89991280
v 1.66483842 1.43097727 0.11613994
v 1.68690000 1.78402071 -0.90064302
v 1.63896869 -1.08731497 0.18835203
v 1.69645856 -1.02852721 -0.90003243
v 1.70084403 0.65418177 -0.90001318
v 1.81644033 1.91648297 0.07917552
v 1.71234904 2.00014620 -0.63678291
v 1.61028026 -2.00241799 -0.86079517
v 1.62283467 -0.51857107 -0.90005204
v 1.75348304 -0.18104009 0.35875061
v 1.68804477 0.15505062 0.29909700
v 1.67465173 -0.87090619 0.28467155
v 1.65392290 1.09394150 0.15918575
v 1.74981831 2.00006752 -0.44681460
v 1.71708606 -2.00021119 -0.05056721
v 1.83067225 -2.00266738 0.55278114
v 1.75177692 -1.99522097 0.60940978
v 1.67307971 -1.25697936 0.49243882
v 1.71156286 -1.23987056 -0.90034166
v 1.77455960 -0.82355178 -0.90050706
v 1.65787791 -0.69897489 0.40453440
v 1.82385574 0.57057284 0.26767424
v 1.78238474 -1.37218864 0.53202143
v 1.74345170 -0.35488364 -0.90021083
v 1.65151785 0.94783335 0.17064436
v 1.72971402 -2.00112719 -0.80456075
v 1.73772178 -2.00005562 0.18386647
v 1.69364522 -1.11772252 0.38941133
v 1.77458082 -0.05419679 -0.90010062
v 1.82734440 -1.90415914 0.61654863
v 1.72680102 0.85953217 0.20832886
v 1.72857366 -1.99430985 -0.89901790
v 1.85018550 -2.00134833 -0.20483479
v 1.80166684 1.62562506 -0.90058461
v 1.86481891 -2.00077171 -0.51615241
v 1.72158979 -1.05945338 0.47280264
v 1.70948694 -0.86431719 0.44030514
v 1.85676525 0.99571316 0.21476635
v 1.76000009 1.18790822 -0.90050623
v 1.76353226 -0.84163938 0.45346406
v 1.87283872 -0.57218830 -0.90103385
v 1.88884674 -1.08184112 0.51287016
v 1.92728661 1.23844330 0.19434466
v 1.86387335 -1.95919986 -0.90320447
v 1.86676298 -1.62455113 0.58329806
v 1.86821817 -0.72273318 0.45776326
v 1.82762013 -0.49483352 0.41730255
v 1.88216232 1.08823912 -0.90221938
v 1.90219186 -2.00191970 0.34167832
v 1.86212729 0.17643290 -0.90059659
v 1.88829194 0.30149191 0.31869215
v 1.85439633 0.47496640 -0.90081450
v 1.89872251 0.78430407 -0.90171561
v 1.86961768 1.99215536 -0.89796117
v 1.88314710 2.00271111 -0.13677426
v 1.89182041 -2.00213177 -0.77372125
v 1.89297448 -2.00147827 0.05757025
v 1.92134641 -0.07277865 0.37751880
v 1.92159782 -1.21314241 -0.90254816
v 1.91621171 1.69103413 0.12926169
v 1.94149385 -1.58414216 -0.90147647
v 1.91092108 -0.32434941 -0.90153292
v 1.92695068 1.42600207 -0.90170380
v 1.90382396 -1.99997635 -0.89254597
v 1.91697799 -0.93550922 -0.90219888
v 1.89584993 1.99793558 0.07349995
v 1.92770837 2.00129323 -0.56041977
v 1.94348727 -0.36549295 0.42260936
v 1.92499755 1.73922448 -0.90224716
v 1.90756391 2.00214558 -0.34557524
v 1.92584131 -1.99279399 0.64496490
v 1.94330571 1.95580821 -0.90283438
v 1.95668541 0.18208711 -0.90148678
v 1.98600457 1.39013164 0.18136628
v 1.96690403 -0.51747241 0.44828150
v 1.96245871 0.64780753 0.28504288
v 1.95940672 2.00157337 -0.78341082
v 1.98192607 -1.16553504 0.54077074
v 1.98402844 2.00116401 0.07293327
v 1.98632823 -1.98434896 -0.89207420
v 1.99123274 -2.00004346 0.63287804
v 1.96762930 -1.91875143 -0.90343317
v 1.97632120 -1.46357376 0.58109465
v 1.97108529 -1.25509800 0.55215034
v 1.99157749 -0.76630561 -0.89870992
v 1.98794542 -0.77294580 0.48545233
v 1.97203444 -0.08471669 -0.90171906
v 1.96901308 0.54774551 -0.90243330
v 1.98458884 -2.00017066 -0.65762976
v 1.98637615 -2.00085218 -0.35640624
v 1.99372278 -1.99676366 -0.18757342
v 1.99308620 -1.99836225 0.22990610
v 1.99194763 -1.82160480 0.63348398
v 1.99243592 0.88795142 0.25355625
v 1.98857675 1.03291147 0.23283956
v 1.99501310 1.79708963 -0.89508852
v 1.99312185 1.99652104 -0.21620934
v 1.99964569 -1.98860521 -0.82291421
v 1.99704514 -1.98884840 0.00151869
v 1.99421559 -1.81203134 -0.89914885
v 1.99245880 -1.33794887 -0.89529380
v 1.99419759 -0.94015289 0.50962946
v 1.99759863 -0.44940839 0.43385011
v 1.99679349 -0.55350376 -0.89584687
v 1.99430655 -0.34491912 -0.89754453
v 1.99368809 -0.23103055 0.40823877
v 1.99287079 0.00119950 0.37711099
v 1.99013124 0.22226213 0.34624034
v 1.99220179 0.42029100 0.31705082
v 1.99295161 0.67895906 -0.89699831
v 1.99637388 0.79517286 -0.89248869
v 1.99466573 1.04024737 -0.89789125
v 1.99517344 1.32075482 -0.89652213
v 1.99803041 1.65910082 -0.89340415
v 1.99388252 1.89224677 0.11347107
v 1.98610304 2.00003533 -0.89026752
v 1.99847828 1.99361758 -0.76547894
v 1.99851237 1.98825007 -0.47922894
v 1.99442147 -1.99971683 -0.48645976
v 1.99499808 -1.99895461 0.51290324
v 1.99929713 -1.94075949 0.64687535
v 2.00177930 -1.88288767 -0.88030401
v 1.99341999 -1.72738583 0.62096891
v 1.99906348 -1.59119685 -0.89233604
v 1.99838517 -1.27093465 0.54763523
v 1.99553273 -1.06724752 -0.89734927
v 1.99945019 -0.89059956 -0.88796756
v 1.99311398 -0.64346261 0.46710864
v 1.99723707 -0.17493321 -0.89131698
v 1.99982153 -0.07181595 -0.89324072
v 1.99569641 0.00012891 -0.89668932
v 2.00058780 0.15660827 -0.88322595
v 1.99393867 0.32651858 -0.89854321
v 1.99494980 0.47682368 -0.89960608
v 1.99922274 0.64402478 0.28197259
v 1.99430285 0.75623791 0.27191845
v 1.99612342 1.18182736 0.20646016
v 1.99911199 1.47518401 -0.88543376
v 1.99844514 1.62505763 0.14523959
v 1.99312197 1.75668793 0.13257454
v 2.00126313 1.95362573 -0.89412025
v 2.00116120 -1.96124608 -0.52812895
v 2.00160132 -1.91401358 -0.13797884
v 2.00092576 -1.88682694 0.26869860
v 2.00199626 -1.91360230 0.52385810
v 2.00175236 -1.81846900 -0.80142680
v 2.00148319 -1.87636192 0.07056196
v 2.00033186 -1.81765230 -0.57996574
v 2.00004564 -1.71910651 -0.37131676
v 2.00205301 -1.77691932 0.60222116
v 2.00020884 -1.73033042 -0.12431079
v 2.00002669 -1.65323276 0.13050623
v 2.00031541 -1.59677715 0.39638803
v 2.00076400 -1.56548877 -0.76712575
v 1.99989615 -1.50573380 -0.45778528
v 2.00089334 -1.62049932 0.58162347
v 1.99990068 -1.50824923 -0.14633164
v 2.00155757 -1.40003092 0.49898824
v 2.00027738 -1.40555270 -0.71790609
v 1.99991272 -1.39350135 -0.01934508
v 1.99986552 -1.41674287 0.21475200
v 2.00115393 -1.38532383 -0.85078385
v 1.99995456 -1.31086005 -0.30969927
v 2.00002323 -1.22859265 -0.56916442
v 1.99993096 -1.18069966 0.06764233
v 2.00109349 -1.20358105 -0.82475433
v 1.99995981 -1.12268115 -0.13178088
v 2.00118755 -1.10192115 0.42599598
v 2.00018440 -1.15072049 0.25656489
v 1.99997781 -1.17156566 -0.39698088
v 2.00074170 -1.00358779 -0.76682964
v 1.99994336 -1.02654351 -0.30608565
v 1.99996267 -1.05329217 0.51785144
v 2.00000976 -0.97941108 0.24432036
v 1.99994157 -0.96942158 -0.07096371
v 1.99995850 -0.95754535 -0.47206351
v 2.00018130 -0.82425634 -0.61627778
v 1.99995373 -0.83792777 -0.21923235
v 1.99995826 -0.75119994 0.16243036
v 2.00200067 -0.86389537 0.45599994
v 1.99989675 -0.78119213 -0.42359704
v 2.00071321 -0.80201871 0.33483103
v 1.99993573 -0.70684398 -0.06344207
v 2.00159262 -0.72333352 -0.81171718
v 1.99995087 -0.55630460 -0.26394191
v 2.00009809 -0.59542310 -0.63856295
v 2.00151549 -0.61407215 0.37870726
v 1.99991713 -0.50971306 -0.45706668
v 2.00003086 -0.44924125 0.04224195
v 2.00228046 -0.42969972 -0.83315149
v 2.00129352 -0.41037693 0.31661838
v 1.99994050 -0.37133705 -0.07842987
v 2.00034986 -0.36249071 -0.65350822
v 1.99993978 -0.26432765 -0.25153513
v 1.99992822 -0.21230635 -0.44208822
v 2.00029372 -0.18476091 0.17440182
v 2.00011347 -0.16716204 -0.64271948
v 2.00163637 -0.17704033 0.34155306
v 1.99997197 -0.11406724 -0.05660998
v 2.00162731 -0.10534982 -0.79041746
v 1.99994682 -0.06599636 -0.28472608
v 1.99986754 0.04590594 -0.50970837
v 2.00018142 0.06231116 0.10520642
v 1.99995349 0.11753641 -0.11377167
v 2.00139604 0.11449145 0.29657832
v 2.00026272 0.17124390 -0.68728426
v 2.00190745 0.03433441 -0.84994110
v 1.99994097 0.19366001 -0.29874948
v 2.00116084 0.42673044 0.23786843
v 1.99996887 0.37561773 -0.04431214
v 2.00067375 0.36287736 -0.78581127
v 1.99996923 0.34243463 -0.50723299
v 1.99993120 0.42086988 -0.32907650
v 2.00124572 0.44362252 -0.86878410
v 1.99993346 0.59744762 -0.47381171
v 1.99938439 0.54081272 -0.88545516
v 2.00047313 0.59780972 0.08609751
v 2.00083314 0.61553835 -0.80269542
v 1.99993883 0.56737893 -0.20365977
v 1.99992476 0.80144971 -0.10404644
v 2.00027655 0.73725753 -0.64769396
v 1.99990855 0.79004698 -0.28060949
v 2.00235663 0.78026228 0.23175146
v 2.00066028 0.86527579 0.09591522
v 2.00173221 0.76971440 -0.85169193
v 1.99994431 0.93809204 -0.45847693
v 2.00138710 0.89089732 -0.82996556
v 2.00026677 1.01051788 -0.63985529
v 2.00223480 1.05277853 0.19136627
v 2.00104414 1.14107041 -0.82455215
v 1.99991737 1.09483950 -0.23547588
v 2.00027476 1.12251906 0.00260099
v 1.99993346 1.13732808 -0.46544215
v 2.00006912 1.28639941 -0.63496497
v 1.99997078 1.27556591 -0.10437906
v 1.99987469 1.31257658 -0.41587430
v 2.00184224 1.44083016 0.11703435
v 2.00128113 1.37305682 -0.81542095
v 1.99988852 1.46416526 -0.24657801
v 2.00068842 1.58340960 -0.72015431
v 2.00066970 1.46110122 -0.01833720
v 1.99987887 1.51071935 -0.48090330
v 2.00024412 1.66456847 -0.08932786
v 1.99996064 1.67247276 -0.34845513
v 2.00185381 1.77738004 0.09676030
v 2.00027703 1.75517135 -0.49849296
v 2.00084303 1.85730820 -0.28250149
v 2.00255118 1.84165959 -0.82045504
v 2.00219343 1.90155392 -0.64514664
v 2.00133107 1.90787869 -0.09985031
v 2.00181793 1.94567542 0.06044114
f 372 367 346
f 270 224 206
f 551 594 589
f 360 345 395
f 765 711 738
f 1020 975 951
f 846 769 803
f 656 704 709
f 1109 1106 991
f 146 100 112
f 313 268 267
f 872 811 855
f 248 204 221
f 192 134 188
f 983 920 941
f 979 1001 961
f 762 713 725
f 1125 1121 1119
f 954 926 925
f 721 687 672
f 797 847 782
f 780 748 718
f 64 60 62
f 618 568 589
f 401 370 336
f 651 598 610
f 901 817 930
f 310 275 288
f 1110 1112 1115
f 265 248 221
f 152 164 186
f 825 730 796
f 649 607 593
f 1099 1101 1110
f 755 737 788
f 1026 971 978
f 781 687 778
f 296 337 362
f 953 939 922
f 383 350 330
f 163 131 126
f 94 92 43
f 515 474 455
f 864 833 814
f 509 506 518
f 104 103 67
f 464 537 441
f 659 656 709
f 559 499 516
f 331 318 289
f 749 715 708
f 1019 1018 1124
f 571 518 547
f 648 651 729
f 1100 1097 1104
f 624 617 562
f 793 725 702
f 194 193 229
f 187 148 151
f 574 523 575
f 895 800 862
f 264 235 178
f 324 352 314
f 381 372 344
f 191 159 143
f 1095 1013 967
f 1014 955 988
f 979 961 940
f 162 118 145
f 136 142 189
f 397 422 373
f 308 257 238
f 975 948 951
f 355 301 351
f 301 253 297
f 821 795 750
f 176 167 129
f 334 291 300
f 825 874 820
f 232 183 182
f 666 627 586
f 285 268 313
f 330 350 335
f 904 855 878
f 612 567 556
f 600 556 569
f 1040 1039 1044
f 1023 971 1026
f 339 286 322
f 723 675 662
f 281 277 249
f 947 889 926
f 222 145 187
f 182 122 136
f 457 417 432
f 936 906 894
f 1130 1129 976
f 60 54 57
f 929 839 854
f 96 95 126
f 878 829 817
f 1016 1108 1116
f 216 247 190
f 667 649 678
f 928 906 936
f 818 752 786
f 1041 1003 980
f 913 942 879
f 360 328 345
f 986 1077 1084
f 1005 980 938
f 260 248 265
f 597 565 525
f 112 56 96
f 467 422 440
f 388 339 328
f 662 632 625
f 184 159 191
f 530 486 481
f 884 823 804
f 498 447 479
f 292 280 256
f 168 131 180
f 668 736 673
f 680 662 625
f 938 857 898
f 62 60 61
f 191 143 215
f 1078 1073 1080
f 846 850 870
f 646 614 577
f 1002 972 1029
f 512 522 488
f 1088 1082 1089
f 571 547 570
f 536 538 472
f 527 471 507
f 1049 1043 1051
f 79 78 153
f 849 827 865
f 987 986 1084
f 1060 1056 1065
f 114 104 74
f 862 841 906
f 410 415 442
f 609 578 518
f 608 549 587
f 696 635 634
f 1062 1057 1064
f 1090 1085 1011
f 558 537 464
f 281 314 277
f 938 940 857
f 405 394 359
f 1000 909 950
f 49 42 45
f 151 148 86
f 132 90 120
f 301 297 323
f 1032 1031 1040
f 569 512 517
f 498 462 447
f 177 161 153
f 207 180 231
f 468 430 444
f 898 857 816
f 5 7 4
f 293 227 254
f 986 930 937
f 476 458 445
f 317 283 271
f 987 930 986
f 435 407 381
f 35 32 30
f 986 937 985
f 504 498 479
f 780 768 748
f 889 838 871
f 418 377 443
f 20 21 14
f 80 111 8
f 871 877 926
f 831 778 798
f 551 505 562
f 867 892 917
f 1086 1079 1009
f 931 854 884
f 300 244 229
f 458 402 386
f 573 507 591
f 334 347 356
f 725 637 647
f 60 63 59
f 25 22 23
f 881 913 859
f 360 388 328
f 449 477 413
f 239 191 215
f 495 437 484
f 466 433 398
f 916 900 891
f 346 288 344
f 1116 1108 1111
f 534 532 469
f 853 787 801
f 245 231 279
f 665 596 684
f 531 543 548
f 80 124 111
f 1071 1064 1073
f 775 734 791
f 967 931 932
f 483 453 501
f 675 655 632
f 663 619 599
f 380 379 426
f 852 866 900
f 258 220 177
f 301 323 351
f 349 305 296
f 976 997 949
f 1081 1076 1085
f 768 681 748
f 1020 951 995
f 529 552 497
f 123 101 100
f 1006 1005 944
f 727 756 680
f 356 385 427
f 1000 950 960
f 1118 1115 1121
f 689 601 670
f 57 54 51
f 273 228 223
f 1085 1076 1079
f 300 291 244
f 167 92 129
f 739 685 713
f 340 304 332
f 819 826 745
f 714 773 733
f 497 503 424
f 522 516 494
f 185 202 139
f 777 761 684
f 892 872 904
f 632 655 575
f 645 550 620
f 767 780 718
f 478 421 451
f 1014 1088 1096
f 91 89 119
f 654 601 689
f 741 706 669
f 1045 1038 1041
f 790 858 840
f 461 415 426
f 810 809 842
f 1112 1105 1107
f 1045 1041 980
f 829 760 817
f 1092 1087 1091
f 697 681 652
f 70 69 66
f 179 200 149
f 239 184 191
f 289 318 256
f 18 17 16
f 1061 1053 1058
f 522 494 488
f 513 511 545
f 657 590 622
f 969 998 1021
f 526 441 537
f 1018 939 953
f 524 577 536
f 733 661 698
f 520 473 463
f 42 37 41
f 630 652 664
f 912 936 894
f 1107 1100 1106
f 626 595 660
f 930 890 937
f 942 927 918
f 900 866 891
f 974 922 917
f 816 857 802
f 579 539 610
f 864 814 853
f 973 1015 1102
f 333 363 324
f 500 480 435
f 76 2 1
f 693 679 700
f 170 135 127
f 1062 1054 1057
f 461 426 486
f 1110 1105 1112
f 1091 1085 1090
f 491 483 546
f 67 63 65
f 511 490 510
f 802 794 742
f 567 581 516
f 178 144 130
f 110 77 4
f 402 458 471
f 748 681 697
f 910 904 878
f 216 190 160
f 724 690 720
f 482 464 406
f 333 324 294
f 198 174 178
f 353 374 308
f 1104 1097 989
f 544 510 551
f 679 660 690
f 761 738 684
f 120 38 92
f 396 356 427
f 738 665 684
f 465 448 490
f 447 410 479
f 1105 1094 1100
f 1084 1077 1075
f 683 629 645
f 66 101 123
f 606 566 576
f 591 578 628
f 1098 1094 1101
f 733 719 661
f 922 880 867
f 587 531 548
f 1087 1080 1081
f 981 921 1052
f 976 949 934
f 1061 1047 1053
f 579 515 539
f 153 78 154
f 138 110 144
f 505 500 562
f 797 782 736
f 648 528 598
f 1008 941 966
f 920 828 888
f 962 924 1002
f 493 497 460
f 210 197 205
f 542 530 593
f 100 62 61
f 630 594 617
f 544 511 510
f 757 696 705
f 701 633 657
f 891 882 907
f 49 45 47
f 507 458 476
f 407 411 367
f 433 364 398
f 424 456 450
f 960 999 1024
f 708 640 655
f 583 590 524
f 199 196 147
f 54 59 53
f 828 783 749
f 372 346 344
f 631 640 574
f 493 528 584
f 701 657 685
f 873 933 861
f 1050 1043 1045
f 52 97 48
f 853 801 848
f 445 418 506
f 477 463 413
f 563 533 491
f 519 476 509
f 617 582 562
f 30 32 28
f 430 397 352
f 269 222 278
f 367 327 346
f 85 31 87
f 91 44 39
f 518 502 547
f 759 726 758
f 11 12 8
f 129 92 94
f 612 661 616
f 1105 1100 1107
f 49 46 42
f 53 52 46
f 1054 1044 1046
f 690 682 699
f 959 943 923
f 84 23 115
f 821 828 795
f 848 801 808
f 595 576 563
f 332 293 364
f 976 1129 1126
f 326 312 379
f 643 606 626
f 641 573 591
f 825 885 945
f 446 425 428
f 135 121 127
f 633 691 646
f 215 143 190
f 873 818 786
f 392 362 414
f 400 424 330
f 6 2 3
f 274 208 245
f 980 940 938
f 618 589 594
f 439 391 422
f 24 20 17
f 227 218 210
f 1088 1084 1082
f 226 181 157
f 181 214 173
f 41 37 35
f 832 790 771
f 408 388 360
f 300 229 299
f 366 378 311
f 1048 1040 1044
f 149 169 125
f 687 610 672
f 991 932 927
f 872 836 811
f 352 397 329
f 996 1020 995
f 102 99 58
f 588 625 585
f 1121 1113 1119
f 380 326 379
f 599 540 541
f 410 351 358
f 623 586 584
f 1070 1058 1068
f 672 628 686
f 476 519 572
f 790 735 739
f 393 399 353
f 682 660 659
f 380 313 326
f 526 451 441
f 677 666 623
f 1052 957 1004
f 531 498 543
f 828 899 843
f 857 794 802
f 239 215 272
f 1085 1086 1011
f 813 732 747
f 888 821 835
f 121 129 94
f 995 933 873
f 1118 1114 1115
f 893 826 819
f 472 423 431
f 1029 1024 1032
f 706 683 645
f 1085 1079 1086
f 637 597 592
f 776 727 691
f 1102 1096 1103
f 889 871 926
f 317 341 283
f 705 634 673
f 804 776 770
f 47 50 49
f 581 559 516
f 297 264 285
f 493 496 528
f 972 1000 1029
f 658 620 636
f 369 307 316
f 213 157 137
f 591 572 578
f 483 514 546
f 920 899 828
f 1032 1023 1031
f 805 792 836
f 856 880 922
f 393 353 350
f 61 57 98
f 582 617 594
f 939 856 922
f 812 747 799
f 449 409 459
f 1020 1127 975
f 110 109 130
f 937 889 947
f 834 815 849
f 277 276 217
f 142 123 152
f 985 947 982
f 601 560 613
f 287 230 224
f 149 125 87
f 262 238 226
f 964 944 899
f 232 233 183
f 810 709 763
f 503 456 424
f 1066 1061 1058
f 116 83 26
f 474 414 455
f 390 371 403
f 968 935 977
f 382 431 369
f 908 835 851
f 815 788 768
f 944 883 899
f 806 793 702
f 399 409 374
f 917 910 901
f 787 669 801
f 857 940 837
f 46 40 42
f 1035 962 1002
f 252 212 263
f 1064 1060 1067
f 137 157 104
f 1000 960 1024
f 519 509 518
f 768 743 681
f 817 890 930
f 666 703 627
f 287 307 251
f 268 178 201
f 200 169 149
f 886 873 786
f 1023 999 971
f 538 454 472
f 256 280 216
f 842 809 834
f 724 700 690
f 604 668 611
f 650 661 612
f 958 976 934
f 173 141 156
f 312 290 338
f 1022 978 970
f 1036 1034 1042
f 602 561 615
f 624 629 617
f 103 102 63
f 831 844 867
f 394 338 354
f 982 947 954
f 122 75 105
f 642 599 552
f 510 505 551
f 128 155 82
f 1007 925 965
f 146 112 164
f 914 912 868
f 724 720 728
f 425 375 428
f 836 792 811
f 394 354 359
f 70 66 113
f 911 887 847
f 856 831 880
f 37 36 29
f 345 319 327
f 479 410 442
f 668 673 611
f 157 150 104
f 820 746 730
f 521 504 479
f 545 511 568
f 797 736 754
f 197 165 196
f 588 532 534
f 207 168 180
f 465 453 408
f 848 875 909
f 927 876 858
f 921 897 902
f 655 631 575
f 835 821 750
f 1049 1042 1043
f 923 943 911
f 586 627 529
f 1046 1042 1051
f 158 137 106
f 151 117 165
f 226 238 181
f 876 804 840
f 843 816 773
f 202 160 139
f 226 157 213
f 859 879 832
f 158 213 137
f 430 440 397
f 263 241 305
f 464 441 405
f 597 525 592
f 172 135 170
f 265 221 259
f 953 922 1016
f 228 200 179
f 1074 1067 1072
f 437 395 411
f 69 65 66
f 329 331 302
f 1052 1004 1047
f 991 927 942
f 610 539 573
f 34 87 31
f 352 329 314
f 958 994 1130
f 270 206 225
f 837 911 847
f 819 745 746
f 346 310 288
f 914 845 905
f 292 359 320
f 648 598 651
f 1107 1106 1109
f 204 196 199
f 742 754 668
f 816 802 733
f 103 63 67
f 736 782 673
f 214 219 173
f 206 224 172
f 160 190 133
f 866 846 870
f 406 387 318
f 229 269 299
f 845 753 782
f 298 275 310
f 353 308 262
f 267 201 239
f 176 188 167
f 536 564 538
f 263 212 241
f 1038 1033 1041
f 302 236 276
f 760 724 728
f 306 330 233
f 842 834 849
f 1053 1047 1048
f 473 434 419
f 618 594 630
f 829 830 751
f 908 941 903
f 983 964 920
f 108 3 76
f 1016 922 974
f 294 281 255
f 766 712 744
f 28 27 24
f 715 714 650
f 588 585 532
f 799 753 845
f 491 546 563
f 703 752 642
f 499 482 406
f 729 781 796
f 635 615 634
f 723 716 675
f 454 401 412
f 792 766 765
f 272 247 284
f 919 900 916
f 529 627 552
f 572 518 578
f 1004 1037 1047
f 865 827 833
f 259 275 298
f 700 679 690
f 23 22 18
f 1066 1058 1070
f 218 197 210
f 470 427 433
f 466 453 483
f 104 71 74
f 984 983 941
f 386 418 445
f 802 742 733
f 200 217 169
f 366 311 308
f 125 116 85
f 175 185 155
f 448 408 416
f 347 299 368
f 385 364 433
f 1111 1103 1099
f 776 756 727
f 673 634 611
f 141 127 99
f 828 843 783
f 403 471 455
f 479 442 461
f 586 529 493
f 201 130 184
f 745 786 703
f 759 758 800
f 237 222 269
f 456 459 399
f 851 835 789
f 460 497 424
f 446 460 400
f 565 622 583
f 458 386 445
f 48 43 46
f 1031 1030 1036
f 364 293 361
f 44 41 39
f 281 249 255
f 877 852 900
f 243 236 203
f 996 886 946
f 535 489 533
f 948 942 913
f 340 299 304
f 163 126 140
f 566 533 576
f 331 391 318
f 464 405 406
f 480 452 435
f 439 406 391
f 10 7 5
f 270 287 224
f 373 391 331
f 510 490 495
f 554 508 459
f 721 712 766
f 1058 1054 1062
f 960 895 999
f 757 705 753
f 336 370 315
f 92 134 120
f 16 7 10
f 1119 1113 1117
f 488 440 430
f 1075 1070 1068
f 1120 1114 1118
f 1019 939 1018
f 922 867 917
f 386 348 377
f 205 197 196
f 283 219 271
f 945 934 825
f 947 926 954
f 569 556 512
f 627 642 552
f 543 504 521
f 1028 1021 1027
f 262 308 238
f 1012 952 931
f 856 781 831
f 118 89 88
f 705 696 634
f 104 150 103
f 996 995 956
f 827 849 815
f 684 606 693
f 760 700 724
f 189 142 186
f 1043 1042 1034
f 378 317 311
f 685 657 622
f 139 80 82
f 305 241 296
f 644 588 614
f 1108 1102 1103
f 656 654 704
f 485 444 457
f 729 651 687
f 550 549 620
f 164 168 207
f 402 403 376
f 927 932 876
f 413 378 366
f 893 819 874
f 742 688 719
f 620 608 636
f 539 492 527
f 859 832 762
f 540 554 459
f 291 231 244
f 1081 1074 1076
f 391 406 318
f 401 432 370
f 620 549 608
f 982 1066 1070
f 584 528 623
f 857 837 794
f 1097 1090 1093
f 1030 1022 1028
f 807 779 841
f 529 497 493
f 949 946 893
f 398 339 388
f 818 806 752
f 336 315 307
f 772 767 718
f 182 183 106
f 820 819 746
f 1013 931 967
f 681 664 652
f 27 26 21
f 438 470 489
f 878 830 829
f 1052 921 957
f 964 1006 944
f 109 3 108
f 1031 1023 1026
f 81 18 10
f 75 73 72
f 931 929 854
f 351 323 285
f 1035 1029 1032
f 1123 1121 1125
f 81 10 79
f 747 731 799
f 790 764 735
f 41 45 42
f 623 528 648
f 551 582 594
f 897 863 864
f 553 542 593
f 93 44 91
f 123 100 146
f 280 247 216
f 348 291 334
f 709 704 763
f 996 1127 1020
f 829 751 760
f 350 262 242
f 313 267 326
f 132 87 90
f 734 699 774
f 626 576 595
f 82 80 12
f 1113 1112 1107
f 249 217 200
f 613 568 618
f 1026 1022 1030
f 264 253 235
f 808 669 759
f 1028 1022 1021
f 1000 1024 1029
f 574 569 517
f 957 963 1004
f 86 25 117
f 214 271 219
f 974 917 973
f 825 820 730
f 187 151 197
f 953 1016 1116
f 1057 1060 1064
f 1017 992 942
f 432 417 370
f 95 47 93
f 465 408 448
f 993 942 948
f 719 688 661
f 490 437 495
f 1004 963 962
f 528 515 598
f 910 878 901
f 473 536 472
f 1036 1030 1028
f 507 471 458
f 172 176 135
f 495 484 505
f 827 815 768
f 487 498 549
f 80 8 12
f 624 550 645
f 737 743 788
f 560 513 545
f 804 823 776
f 357 356 396
f 349 296 362
f 556 522 512
f 1046 1039 1042
f 141 99 102
f 261 248 260
f 1100 1094 1097
f 309 284 354
f 205 196 204
f 289 256 236
f 255 249 200
f 1026 978 1022
f 508 525 477
f 110 4 109
f 337 295 371
f 209 198 235
f 413 420 378
f 138 77 110
f 799 757 753
f 515 455 492
f 752 806 717
f 344 288 301
f 202 216 160
f 715 650 640
f 878 817 901
f 551 589 544
f 410 358 415
f 217 243 166
f 60 59 54
f 707 678 732
f 163 194 211
f 766 744 765
f 476 445 509
f 629 652 617
f 178 130 201
f 534 469 454
f 203 185 175
f 555 543 521
f 988 930 987
f 491 466 483
f 151 86 117
f 37 40 36
f 902 848 924
f 956 873 886
f 1021 998 968
f 143 76 133
f 252 263 306
f 755 670 737
f 117 25 84
f 664 618 630
f 674 635 696
f 119 89 118
f 84 115 147
f 1113 1109 1117
f 224 176 172
f 978 912 970
f 1111 1099 1110
f 1074 1072 1076
f 811 761 824
f 398 361 339
f 236 256 202
f 1106 990 991
f 554 525 508
f 193 195 237
f 1057 1051 1060
f 412 401 336
f 520 524 473
f 420 419 378
f 280 284 247
f 890 784 838
f 24 21 20
f 1044 1039 1046
f 542 486 530
f 1039 1031 1036
f 909 896 950
f 1101 1094 1105
f 774 846 866
f 999 895 928
f 1053 1054 1058
f 506 418 443
f 988 1084 1088
f 134 132 120
f 489 491 533
f 287 251 230
f 86 30 25
f 327 298 310
f 351 285 358
f 88 30 86
f 1041 1033 1003
f 1104 989 990
f 574 517 523
f 917 892 910
f 173 171 141
f 105 113 136
f 916 891 915
f 283 270 225
f 1013 1012 931
f 676 621 665
f 621 609 571
f 1011 1010 952
f 524 536 473
f 11 8 6
f 122 106 75
f 619 592 540
f 960 950 895
f 153 154 174
f 131 112 96
f 357 334 356
f 348 334 357
f 444 430 389
f 919 915 921
f 469 432 401
f 1126 1123 1125
f 329 302 276
f 745 703 666
f 348 357 377
f 826 786 745
f 903 920 888
f 634 557 611
f 106 137 114
f 824 785 830
f 1035 1032 1037
f 395 367 411
f 884 932 931
f 295 274 321
f 756 789 723
f 975 1119 993
f 776 839 756
f 850 810 842
f 646 680 644
f 686 628 692
f 519 518 572
f 670 613 653
f 590 577 524
f 918 927 858
f 368 299 340
f 7 13 9
f 619 540 599
f 319 265 298
f 288 258 177
f 516 499 439
f 946 886 893
f 306 233 252
f 100 98 112
f 36 33 29
f 189 186 208
f 1034 1027 1033
f 627 703 642
f 279 231 291
f 113 123 142
f 228 255 200
f 98 56 112
f 435 381 462
f 764 770 710
f 1060 1051 1055
f 811 824 855
f 981 925 921
f 459 409 399
f 584 586 493
f 790 840 764
f 772 741 787
f 596 621 570
f 9 3 4
f 970 969 1021
f 615 557 634
f 68 67 65
f 955 917 901
f 689 670 755
f 1079 1069 1008
f 122 105 136
f 130 109 108
f 613 545 568
f 419 434 382
f 508 477 449
f 598 579 610
f 784 760 728
f 1039 1036 1042
f 335 242 246
f 390 337 371
f 518 506 502
f 839 789 756
f 59 58 53
f 958 1130 976
f 268 201 267
f 1050 1005 1006
f 834 809 788
f 691 727 646
f 929 908 839
f 1103 1096 1099
f 84 25 23
f 515 492 539
f 892 904 910
f 428 342 392
f 680 723 662
f 546 514 560
f 852 791 774
f 501 465 490
f 365 382 341
f 25 24 22
f 562 500 550
f 616 559 581
f 124 107 111
f 115 23 81
f 221 199 220
f 91 39 89
f 1056 1050 1063
f 864 863 833
f 963 902 962
f 771 739 713
f 315 273 251
f 101 62 100
f 264 178 268
f 1053 1048 1044
f 143 108 76
f 492 471 527
f 693 751 785
f 787 741 669
f 827 768 780
f 552 599 541
f 193 162 195
f 220 147 177
f 596 566 606
f 731 757 799
f 555 553 607
f 311 317 271
f 994 885 1019
f 399 374 353
f 395 345 367
f 885 796 856
f 535 502 489
f 884 854 823
f 152 123 146
f 1010 966 952
f 1115 1113 1121
f 702 647 663
f 686 692 744
f 183 158 106
f 1094 1092 1091
f 221 220 240
f 606 643 693
f 418 386 377
f 208 207 245
f 868 799 845
f 670 653 695
f 341 369 316
f 329 276 314
f 100 61 98
f 771 790 739
f 1012 1011 952
f 1119 1117 1017
f 577 564 536
f 915 907 897
f 14 19 12
f 923 911 837
f 1033 1027 1025
f 895 862 928
f 747 732 674
f 949 893 934
f 502 438 489
f 894 813 812
f 455 390 403
f 653 613 618
f 948 881 860
f 241 189 234
f 610 573 641
f 257 214 181
f 726 694 667
f 854 839 776
f 324 281 294
f 246 242 213
f 180 131 163
f 161 115 79
f 242 262 226
f 500 487 550
f 1079 1076 1069
f 672 610 641
f 475 493 460
f 777 693 785
f 762 832 771
f 1098 1092 1094
f 427 385 433
f 215 190 247
f 140 119 162
f 29 33 27
f 424 383 330
f 267 239 290
f 763 689 755
f 992 991 942
f 764 710 701
f 98 57 56
f 251 273 223
f 903 888 835
f 940 961 837
f 661 639 616
f 135 129 121
f 35 37 32
f 543 498 504
f 665 621 596
f 306 263 343
f 1021 977 1025
f 175 155 128
f 292 320 280
f 1095 1093 1013
f 171 170 127
f 935 905 943
f 468 488 430
f 1122 1118 1123
f 773 714 783
f 1003 979 940
f 286 261 260
f 241 234 296
f 106 114 73
f 325 291 348
f 925 919 921
f 1120 1116 1114
f 28 29 27
f 491 470 466
f 450 383 424
f 381 344 355
f 350 353 262
f 738 711 665
f 521 479 461
f 1027 1021 1025
f 608 587 603
f 698 661 650
f 463 473 419
f 473 431 434
f 1129 1122 1126
f 53 46 49
f 657 633 590
f 808 759 800
f 6 8 2
f 452 437 411
f 730 677 648
f 463 419 420
f 39 41 35
f 447 429 410
f 908 903 835
f 510 495 505
f 971 928 936
f 361 293 339
f 1021 968 977
f 496 493 475
f 762 771 713
f 710 691 633
f 46 43 40
f 1024 1023 1032
f 1016 974 1108
f 671 622 597
f 1124 1122 1129
f 512 488 468
f 955 901 988
f 555 521 553
f 450 393 383
f 933 860 861
f 559 482 499
f 915 897 921
f 126 93 140
f 756 723 680
f 650 612 600
f 1003 1025 979
f 892 844 872
f 825 796 885
f 83 82 19
f 376 321 325
f 645 629 624
f 879 790 832
f 1063 964 983
f 653 618 664
f 735 764 701
f 1022 970 1021
f 475 446 428
f 83 19 26
f 778 721 766
f 899 883 843
f 1003 940 980
f 800 758 807
f 38 34 36
f 321 279 325
f 750 708 716
f 867 844 892
f 375 400 343
f 116 166 128
f 1083 1082 1078
f 860 881 793
f 286 260 322
f 341 270 283
f 692 676 711
f 1110 1101 1105
f 838 822 871
f 325 279 291
f 656 605 654
f 332 304 282
f 704 654 689
f 290 309 338
f 119 118 162
f 320 284 280
f 801 669 808
f 469 457 432
f 779 732 813
f 614 588 564
f 475 460 446
f 355 429 447
f 515 579 598
f 783 714 749
f 1060 1055 1056
f 982 1007 1066
f 1072 1067 1065
f 558 611 537
f 181 150 157
f 540 459 456
f 873 861 818
f 604 580 559
f 640 650 600
f 883 898 816
f 583 524 520
f 7 9 4
f 682 659 709
f 728 734 775
f 948 913 881
f 1033 1025 1003
f 513 501 490
f 601 613 670
f 695 653 664
f 941 920 903
f 400 330 343
f 1115 1112 1113
f 814 787 853
f 376 325 386
f 120 90 38
f 234 189 208
f 556 567 522
f 182 189 212
f 679 693 643
f 155 139 82
f 970 912 969
f 1043 1038 1045
f 389 352 324
f 981 1052 1059
f 500 435 487
f 570 547 535
f 182 136 189
f 1086 1009 1010
f 712 672 686
f 385 332 364
f 1119 1017 993
f 522 567 516
f 1031 1026 1030
f 652 630 617
f 770 691 710
f 582 551 562
f 907 865 863
f 428 392 474
f 908 851 839
f 322 260 303
f 958 885 994
f 603 555 607
f 217 166 169
f 881 859 793
f 851 789 839
f 1089 1087 1092
f 528 496 474
f 166 175 128
f 674 638 635
f 20 15 17
f 798 805 844
f 969 912 914
f 789 835 750
f 546 560 601
f 435 462 487
f 1025 977 1001
f 891 870 869
f 1075 1071 1078
f 962 1035 1037
f 729 687 781
f 933 951 860
f 759 740 726
f 728 775 784
f 397 373 329
f 65 60 64
f 906 813 894
f 740 669 722
f 82 12 19
f 636 607 667
f 513 490 511
f 212 189 241
f 1068 1058 1062
f 417 363 370
f 1094 1090 1097
f 784 775 838
f 452 411 407
f 740 722 726
f 577 614 564
f 79 10 78
f 770 776 691
f 436 384 421
f 312 267 290
f 333 294 273
f 436 379 384
f 431 423 369
f 605 563 546
f 882 865 907
f 429 404 410
f 68 71 67
f 713 671 637
f 187 145 148
f 628 578 609
f 443 377 438
f 750 795 708
f 440 422 397
f 89 35 88
f 514 483 501
f 269 278 304
f 293 286 339
f 164 112 168
f 878 855 830
f 30 28 25
f 553 461 542
f 876 884 804
f 1080 1074 1081
f 25 28 24
f 975 993 948
f 716 708 655
f 1059 1047 1061
f 14 11 6
f 962 902 924
f 290 239 272
f 660 595 659
f 442 415 461
f 161 147 115
f 46 52 48
f 78 5 77
f 61 60 57
f 438 427 470
f 419 382 378
f 124 133 107
f 1037 1032 1040
f 988 901 930
f 127 97 55
f 18 16 10
f 809 755 788
f 568 511 544
f 492 455 471
f 800 807 862
f 264 268 285
f 369 336 307
f 695 664 681
f 1106 1100 1104
f 958 945 885
f 106 122 182
f 50 47 95
f 692 628 676
f 585 575 532
f 525 520 477
f 688 668 604
f 702 725 647
f 199 147 220
f 1080 1073 1074
f 371 376 403
f 781 778 831
f 591 507 572
f 421 394 441
f 1079 1008 1009
f 32 29 28
f 588 534 564
f 1114 1110 1115
f 528 474 515
f 379 312 384
f 188 134 167
f 882 842 849
f 229 193 237
f 421 338 394
f 811 765 761
f 925 877 919
f 887 845 847
f 737 695 743
f 732 678 674
f 68 65 69
f 1077 1070 1075
f 541 540 456
f 774 699 769
f 1035 1002 1029
f 97 52 55
f 1094 1091 1090
f 58 55 53
f 308 311 257
f 744 692 711
f 956 995 873
f 127 121 97
f 66 64 101
f 165 117 84
f 245 207 231
f 723 750 716
f 1128 1119 1127
f 219 171 173
f 24 27 21
f 1083 1078 1080
f 675 716 655
f 96 50 95
f 163 140 194
f 1093 1012 1013
f 965 925 981
f 347 300 299
f 486 426 481
f 852 774 866
f 774 769 846
f 342 305 349
f 871 822 877
f 1124 1116 1122
f 201 184 239
f 1010 1009 966
f 301 177 253
f 296 234 266
f 334 300 347
f 140 93 119
f 902 864 853
f 377 357 396
f 277 217 249
f 612 616 567
f 233 158 183
f 40 43 38
f 9 6 3
f 273 255 228
f 181 173 156
f 278 227 282
f 514 513 560
f 997 996 946
f 845 782 847
f 1056 1055 1050
f 944 938 883
f 137 104 114
f 309 290 272
f 258 240 220
f 506 443 502
f 643 626 660
f 993 1017 942
f 102 58 63
f 196 165 147
f 637 671 597
f 919 916 915
f 777 684 693
f 426 379 436
f 1091 1081 1085
f 1005 938 944
f 914 905 935
f 722 694 726
f 315 333 273
f 208 164 207
f 375 342 428
f 669 740 759
f 322 303 328
f 775 791 822
f 600 612 556
f 517 468 485
f 16 17 13
f 404 355 351
f 409 366 374
f 257 181 238
f 834 788 815
f 714 733 698
f 222 195 145
f 316 307 287
f 902 897 864
f 1047 1037 1040
f 128 82 83
f 1001 959 961
f 957 921 963
f 328 303 319
f 996 1128 1127
f 885 856 939
f 943 905 911
f 713 685 671
f 170 206 172
f 181 156 150
f 1126 1125 1128
f 1083 1080 1087
f 51 49 50
f 337 296 295
f 358 285 313
f 1072 1065 1069
f 1106 1104 990
f 763 755 809
f 632 575 585
f 803 709 810
f 730 729 796
f 446 400 425
f 671 685 622
f 866 870 891
f 355 344 301
f 669 658 694
f 972 909 1000
f 1018 953 1116
f 484 437 452
f 448 416 437
f 560 545 613
f 54 53 49
f 472 454 423
f 359 354 320
f 961 959 923
f 661 688 639
f 994 1124 1130
f 573 527 507
f 115 81 79
f 459 508 449
f 1086 1010 1011
f 550 487 549
f 259 221 240
f 179 132 134
f 222 250 278
f 788 743 768
f 1108 1103 1111
f 861 860 806
f 481 436 478
f 625 632 585
f 45 41 44
f 304 278 282
f 733 742 719
f 793 762 725
f 633 646 577
f 454 469 401
f 121 94 48
f 452 407 435
f 186 164 208
f 549 498 531
f 907 863 897
f 1053 1044 1054
f 587 549 531
f 539 527 573
f 328 319 345
f 415 380 426
f 621 571 570
f 423 412 369
f 1038 1034 1033
f 520 463 477
f 251 223 188
f 1118 1121 1123
f 850 842 869
f 868 845 914
f 906 841 813
f 530 481 561
f 232 182 212
f 505 480 500
f 570 535 566
f 1015 917 955
f 1007 954 925
f 1040 1031 1039
f 296 266 295
f 675 632 662
f 488 494 440
f 860 793 806
f 490 448 437
f 798 766 805
f 1054 1046 1051
f 378 365 317
f 566 535 533
f 977 935 959
f 90 87 34
f 132 149 87
f 376 386 402
f 224 230 176
f 742 668 688
f 474 392 414
f 725 713 637
f 810 763 809
f 688 604 639
f 659 595 656
f 978 936 912
f 833 827 780
f 160 133 124
f 838 775 822
f 56 51 50
f 890 889 937
f 561 481 478
f 36 34 33
f 443 438 502
f 1122 1120 1118
f 315 370 333
f 645 620 669
f 518 571 609
f 425 400 375
f 615 561 557
f 877 900 919
f 325 348 386
f 457 444 417
f 231 211 244
f 219 170 171
f 552 541 503
f 138 78 77
f 1113 1107 1109
f 168 112 131
f 646 644 614
f 13 6 9
f 184 130 159
f 1055 1051 1043
f 254 227 210
f 160 124 139
f 225 206 170
f 144 110 130
f 343 330 306
f 10 5 78
f 1002 924 972
f 794 754 742
f 33 34 31
f 833 767 814
f 934 893 874
f 718 748 697
f 997 1128 996
f 145 118 148
f 854 776 823
f 769 682 709
f 341 316 270
f 259 240 275
f 1018 1116 1124
f 812 868 912
f 338 309 354
f 1050 1045 1005
f 793 859 762
f 223 228 192
f 938 898 883
f 1116 1111 1114
f 478 451 526
f 1116 1120 1122
f 295 266 274
f 822 852 877
f 1065 1056 1063
f 156 141 102
f 769 709 803
f 542 461 486
f 833 780 767
f 409 413 366
f 730 666 677
f 635 602 615
f 1096 1088 1089
f 1099 1098 1101
f 141 171 127
f 210 205 204
f 1034 1038 1043
f 187 197 218
f 706 645 669
f 1111 1110 1114
f 481 426 436
f 230 188 176
f 817 784 890
f 503 541 456
f 118 88 86
f 244 194 229
f 99 127 55
f 254 261 286
f 559 580 482
f 63 58 59
f 53 55 52
f 161 79 153
f 1028 1027 1034
f 230 251 188
f 21 26 19
f 593 602 635
f 667 678 707
f 1096 1089 1098
f 318 387 292
f 913 879 859
f 607 636 603
f 1068 1062 1071
f 676 665 711
f 453 388 408
f 412 336 369
f 130 108 159
f 210 204 248
f 752 717 642
f 874 819 820
f 973 1102 1108
f 891 907 915
f 1109 991 992
f 1084 1075 1082
f 1089 1083 1087
f 603 548 555
f 277 314 276
f 604 558 580
f 870 850 869
f 16 13 7
f 669 620 658
f 796 781 856
f 243 276 236
f 624 562 550
f 302 289 236
f 745 666 746
f 697 652 629
f 639 559 616
f 1078 1071 1073
f 104 67 71
f 604 611 558
f 754 736 668
f 27 31 26
f 731 674 696
f 994 1019 1124
f 339 322 328
f 623 666 586
f 608 603 636
f 387 359 292
f 640 600 574
f 87 125 85
f 880 831 867
f 470 433 466
f 8 1 2
f 73 74 68
f 751 700 760
f 449 413 409
f 473 472 431
f 274 279 321
f 94 43 48
f 416 408 360
f 159 108 143
f 288 275 258
f 929 952 908
f 111 107 1
f 663 647 619
f 1099 1096 1098
f 139 124 80
f 434 431 382
f 276 243 217
f 396 427 438
f 655 640 631
f 51 54 49
f 623 648 677
f 439 499 406
f 332 282 293
f 959 935 943
f 1091 1087 1081
f 643 660 679
f 747 674 731
f 794 837 797
f 619 647 592
f 242 226 213
f 272 215 247
f 414 390 455
f 1117 1109 992
f 1127 1119 975
f 638 593 635
f 105 70 113
f 252 232 212
f 753 705 673
f 266 208 274
f 891 869 882
f 779 707 732
f 97 121 48
f 557 526 537
f 1071 1062 1064
f 714 698 650
f 996 956 886
f 288 177 301
f 818 861 806
f 303 260 265
f 1007 1059 1066
f 514 501 513
f 1059 1052 1047
f 749 714 715
f 274 245 279
f 989 1095 967
f 905 887 911
f 324 314 281
f 883 816 843
f 37 29 32
f 557 478 526
f 430 352 389
f 812 799 868
f 15 14 6
f 540 592 554
f 595 563 605
f 17 15 13
f 330 335 233
f 307 315 251
f 830 785 751
f 382 365 378
f 105 72 70
f 741 718 706
f 1014 1096 1102
f 1125 1119 1128
f 90 34 38
f 180 211 231
f 973 917 1015
f 1069 984 1008
f 125 166 116
f 203 175 166
f 88 35 30
f 407 372 381
f 496 428 474
f 478 436 421
f 209 235 253
f 293 254 286
f 565 583 520
f 965 981 1059
f 253 264 297
f 219 225 170
f 924 909 972
f 70 72 69
f 258 275 240
f 377 396 438
f 687 721 778
f 517 512 468
f 924 848 909
f 789 750 723
f 209 153 198
f 233 246 158
f 331 289 302
f 437 416 395
f 794 797 754
f 858 876 840
f 739 735 685
f 47 45 44
f 795 749 708
f 761 777 824
f 99 55 58
f 203 236 185
f 695 681 743
f 64 62 101
f 726 667 707
f 875 808 800
f 460 424 400
f 718 697 683
f 765 738 761
f 192 228 179
f 846 803 850
f 976 1126 997
f 13 15 6
f 375 343 342
f 663 599 642
f 720 690 699
f 429 355 404
f 362 337 390
f 720 699 734
f 848 808 875
f 728 720 734
f 576 533 563
f 986 985 1077
f 109 4 3
f 1097 1095 989
f 166 243 203
f 1063 1050 1006
f 735 701 685
f 951 948 860
f 128 83 116
f 167 134 92
f 405 359 387
f 135 176 129
f 252 233 232
f 24 17 22
f 597 622 565
f 875 800 896
f 905 845 887
f 143 133 190
f 591 628 641
f 335 350 242
f 1082 1075 1078
f 152 146 164
f 392 349 362
f 1097 1093 1095
f 371 295 321
f 712 686 744
f 596 570 566
f 932 884 876
f 484 452 480
f 193 140 162
f 229 237 269
f 406 405 387
f 1036 1028 1034
f 607 553 593
f 574 600 569
f 548 543 555
f 250 222 218
f 658 636 694
f 174 154 144
f 718 683 706
f 642 717 663
f 414 362 390
f 778 766 798
f 995 951 933
f 410 404 351
f 278 250 227
f 1055 1043 1050
f 746 666 730
f 169 166 125
f 356 368 385
f 22 17 18
f 772 718 741
f 1073 1064 1067
f 453 465 501
f 952 966 908
f 382 369 341
f 85 26 31
f 234 208 266
f 1024 999 1023
f 611 557 537
f 651 610 687
f 326 267 312
f 920 964 899
f 261 210 248
f 381 355 462
f 694 636 667
f 1008 984 941
f 942 918 879
f 118 86 148
f 998 914 968
f 1019 885 939
f 261 254 210
f 1007 965 1059
f 244 211 194
f 358 380 415
f 370 363 333
f 950 896 895
f 751 693 700
f 989 967 932
f 451 421 441
f 862 807 841
f 580 558 482
f 726 707 758
f 469 532 457
f 494 516 467
f 626 606 576
f 1063 1006 964
f 494 467 440
f 1057 1054 1051
f 997 946 949
f 485 468 444
f 72 68 69
f 701 710 633
f 142 152 186
f 1093 1090 1012
f 721 672 712
f 1126 1128 997
f 319 298 327
f 1065 1063 1069
f 587 548 603
f 817 760 784
f 198 153 174
f 204 199 221
f 699 682 769
f 367 345 327
f 316 287 270
f 1082 1083 1089
f 1045 980 1005
f 343 263 342
f 656 595 605
f 988 1088 1014
f 356 347 368
f 73 114 74
f 680 625 644
f 42 40 37
f 56 50 96
f 628 609 676
f 374 366 308
f 985 1070 1077
f 547 502 535
f 384 338 421
f 546 601 605
f 1051 1042 1049
f 954 1007 982
f 89 39 35
f 185 139 155
f 667 607 649
f 850 803 810
f 23 18 81
f 76 1 107
f 968 914 935
f 471 403 402
f 76 107 133
f 888 828 821
f 931 952 929
f 1075 1068 1071
f 309 272 284
f 1090 1011 1012
f 840 804 764
f 837 847 797
f 813 747 812
f 368 332 385
f 697 629 683
f 365 341 317
f 966 941 908
f 150 156 102
f 327 310 346
f 804 770 764
f 422 391 373
f 893 886 826
f 177 153 209
f 154 138 144
f 74 71 68
f 806 702 717
f 273 294 255
f 879 918 858
f 384 312 338
f 704 689 763
f 926 877 925
f 999 928 971
f 894 812 912
f 1067 1060 1065
f 590 633 577
f 822 791 852
f 863 865 833
f 1047 1040 1048
f 676 609 621
f 561 478 557
f 85 116 26
f 855 824 830
f 690 660 682
f 869 842 882
f 538 564 454
f 982 1070 985
f 616 581 567
f 516 439 467
f 862 906 928
f 342 349 392
f 106 73 75
f 565 520 525
f 5 4 77
f 670 695 737
f 505 484 480
f 147 161 177
f 20 14 15
f 422 467 439
f 909 875 896
f 934 874 825
f 622 590 583
f 250 218 227
f 323 297 285
f 758 707 779
f 195 162 145
f 886 786 826
f 40 38 36
f 92 38 43
f 444 389 363
f 904 872 855
f 639 604 559
f 521 461 553
f 373 331 329
f 708 715 640
f 257 271 214
f 417 444 363
f 990 989 932
f 265 259 298
f 882 849 865
f 649 593 638
f 974 973 1108
f 669 694 722
f 318 292 256
f 988 987 1084
f 678 649 638
f 753 673 782
f 841 779 813
f 56 57 51
f 1073 1067 1074
f 76 3 2
f 644 625 588
f 223 192 188
f 1025 1001 979
f 150 102 103
f 783 843 773
f 879 858 790
f 1015 1014 1102
f 568 544 589
f 730 648 729
f 844 836 872
f 211 180 163
f 282 227 293
f 257 311 271
f 363 389 324
f 795 828 749
f 466 398 453
f 364 361 398
f 75 72 105
f 605 601 654
f 407 367 372
f 896 800 895
f 246 213 158
f 416 360 395
f 532 523 457
f 222 187 218
f 489 470 491
f 371 321 376
f 786 752 703
f 731 696 757
f 509 445 506
f 814 772 787
f 523 485 457
f 805 766 792
f 991 990 932
f 398 388 453
f 179 149 132
f 65 63 60
f 1089 1092 1098
f 256 216 202
f 684 596 606
f 358 313 380
f 320 354 284
f 552 503 497
f 575 523 532
f 1126 1122 1123
f 450 456 393
f 558 464 482
f 844 805 836
f 593 530 602
f 194 140 193
f 462 355 447
f 131 96 126
f 816 733 773
f 831 798 844
f 235 198 178
f 631 574 575
f 1001 977 959
f 126 95 93
f 299 269 304
f 192 179 134
f 303 265 319
f 985 937 947
f 811 792 765
f 1004 962 1037
f 744 711 765
f 963 921 902
f 142 136 113
f 890 838 889
f 1009 1008 966
f 1069 983 984
f 14 12 11
f 1069 1063 983
f 177 209 253
f 727 680 646
f 151 165 197
f 1017 1117 992
f 72 73 68
f 564 534 454
f 572 507 476
f 236 202 185
f 33 31 27
f 1015 955 1014
f 969 914 998
f 496 475 428
f 961 923 837
f 791 734 774
f 21 19 14
f 647 637 592
f 592 525 554
f 174 144 178
f 423 454 412
f 47 44 93
f 814 767 772
f 902 853 848
f 342 263 305
f 824 777 785
f 602 530 561
f 1076 1072 1069
f 487 462 498
f 413 463 420
f 165 84 147
f 1066 1059 1061
f 971 936 978
f 678 638 674
f 233 335 246
f 283 225 219
f 717 702 663
f 222 237 195
f 1130 1124 1129
f 958 934 945
f 93 91 119
f 368 340 332
f 66 65 64
f 456 399 393
f 405 441 394
f 807 758 779
f 113 66 123
f 111 1 8
f 672 641 628
f 383 393 350
f 78 138 154
f 523 517 485

