# https://github.com/mikedh/trimesh
v -1.96720546 -1.99928256 -0.87673063
v -1.97853678 -1.99672790 -0.75483210
v -1.98614829 -2.00089939 -0.58124805
v -2.00030916 -1.97732039 -0.33845154
v -1.98622554 -1.98343762 -0.18209601
v -2.00200289 -1.91626592 -0.73916364
v -2.00137084 -1.91215535 -0.50654686
v -2.00012296 -1.86842020 -0.89422596
v -2.00137489 -1.74941846 -0.32672719
v -1.99973147 -1.84406992 -0.21437407
v -2.00054305 -1.70800038 -0.74055827
v -2.00033658 -1.71535082 -0.89301253
v -1.99749177 -1.60719677 -0.24012702
v -2.00031798 -1.60416074 -0.50315375
v -1.99364512 -1.56413646 -0.89872075
v -2.00010150 -1.47885628 -0.67611677
v -2.00137489 -1.35873552 -0.83614141
v -2.00155728 -1.49727615 -0.34264646
v -1.99205940 -1.33817669 -0.27243758
v -1.99396055 -1.29137178 -0.89750308
v -2.00040000 -1.33177646 -0.45361925
v -2.00025242 -1.24238493 -0.67593522
v -2.00125211 -1.06433346 -0.38271273
v -2.00010126 -1.13294669 -0.53782625
v -1.99425023 -1.08994402 -0.30685232
v -2.00084918 -1.00532915 -0.79630989
v -1.99334257 -1.05087383 -0.89927310
v -2.00110739 -1.03974457 -0.87159199
v -2.00002187 -0.89775743 -0.59501565
v -1.98906320 -0.93880941 -0.89855171
v -1.99910729 -0.81371339 -0.88586832
v -1.99737494 -0.78543718 -0.35777456
v -2.00165146 -0.69913601 -0.47697884
v -2.00083631 -0.65287765 -0.76153005
v -1.99905699 -0.66257458 -0.89452542
v -1.99811881 -0.45935548 -0.40538094
v -2.00234049 -0.48546219 -0.85451514
v -2.00122183 -0.43819449 -0.53877873
v -2.00147336 -0.32287382 -0.79013360
v -1.99671715 -0.34654709 -0.89482785
v -1.99482172 -0.18628653 -0.43471894
v -2.00074714 -0.19540141 -0.55577529
v -1.99039882 -0.07971445 -0.89810342
v -2.00111073 -0.00048487 -0.81686545
v -2.00091379 0.11030976 -0.57451773
v -1.99821275 0.04262183 -0.47387610
v -2.00121897 0.34929792 -0.76907105
v -1.99904626 0.22373260 -0.87957299
v -1.99405616 0.24130074 -0.49477226
v -2.00078195 0.32646082 -0.53880740
v -1.98884123 0.48407046 -0.89929075
v -2.00093644 0.50612591 -0.62124694
v -1.99147838 0.45195852 -0.52300341
v -2.00226610 0.69739423 -0.81577391
v -1.99741500 0.64323173 -0.55525590
v -2.00151508 0.72903804 -0.61101056
v -1.99780672 0.77145819 -0.89396942
v -2.00136154 0.94468574 -0.75591660
v -1.99129146 0.91827957 -0.58736587
v -2.00106066 0.98180608 -0.63566501
v -1.98747843 1.01603298 -0.90004433
v -2.00165551 1.08881430 -0.86751974
v -2.00160950 1.31096308 -0.73419363
v -1.99376052 1.25160078 -0.89941210
v -1.98695820 1.17379681 -0.62430096
v -2.00175779 1.31005673 -0.86696405
v -1.99904054 1.43035702 -0.67609412
v -1.98539393 1.43947880 -0.90073199
v -1.99892705 1.56159334 -0.89438111
v -1.96211927 1.38410441 -0.64282537
v -2.00274604 1.68459992 -0.79574085
v -1.99537247 1.71789269 -0.70071543
v -2.00014537 1.77935080 -0.89021177
v -1.99559944 1.90239648 -0.90048385
v -2.00040501 1.92838196 -0.74104298
v -2.00433414 1.92327670 -0.86262656
v -1.99720805 1.99179344 -0.88841451
v -1.98059266 1.99495153 -0.73470921
v -1.98623555 2.00144557 -0.79770381
v -1.95220082 -2.00253518 -0.31719360
v -1.95090096 -1.88333173 -0.90239829
v -1.96056073 -1.95595165 -0.17478926
v -1.97561281 -1.75194235 -0.90159208
v -1.95309656 -1.72536441 -0.20633780
v -1.94435542 -1.64171441 -0.90188963
v -1.95109361 -1.46659442 -0.24181782
v -1.94124144 -1.20879419 -0.90242154
v -1.86227506 -1.16786899 -0.26385281
v -1.82110565 -0.94628765 -0.28589509
v -1.93942230 -1.00409879 -0.90161759
v -1.97495454 -0.76121800 -0.90086353
v -1.95117848 -0.62213119 -0.90089924
v -1.96958082 -0.57718425 -0.37110496
v -1.93471115 -0.37718352 -0.90099312
v -1.91641968 -0.37415780 -0.38720382
v -1.91481393 -0.18345163 -0.90202678
v -1.94577115 0.08869390 -0.45840488
v -1.92246597 0.23489295 -0.90136350
v -1.95481198 0.56660412 -0.52699352
v -1.85451262 0.64098821 -0.90091086
v -1.83055847 0.70120190 -0.51880444
v -1.91175144 0.96672050 -0.57307208
v -1.86972492 1.28296141 -0.90090764
v -1.92081111 1.60165338 -0.90092487
v -1.90682905 1.62983469 -0.66544653
v -1.94973867 1.79459719 -0.90191115
v -1.92658680 1.88513164 -0.70450962
v -1.81936448 -1.45555838 -0.90090091
v -1.88648003 -0.88609977 -0.90080661
v -1.88928216 -0.74281903 -0.32980070
v -1.87525123 -0.08485899 -0.41807521
v -1.92116278 0.36348430 -0.49136246
v -1.86349218 0.87754111 -0.90084053
v -1.81790965 1.99874310 -0.89544643
v -1.79086619 -2.00036080 -0.44975332
v -1.79673963 -1.78356214 -0.90066773
v -1.77238148 -1.39166327 -0.21251910
v -1.82390087 -0.71980329 -0.90039105
v -1.82186740 0.06495158 -0.90054250
v -1.81111997 0.39859484 -0.90045721
v -1.87705653 1.95988230 -0.90331472
v -1.80018275 2.00351076 -0.80428690
v -1.82684701 -2.00228520 -0.75412214
v -1.82477801 -1.95430358 -0.14425976
v -1.76195293 -1.70818456 -0.16587760
v -1.81819742 1.13230757 -0.57564700
v -1.85909789 1.37697236 -0.61993969
v -1.79062717 1.99570946 -0.69206668
v -1.87937801 -1.99659653 -0.89820606
v -1.89250629 -1.99857016 -0.15786562
v -1.73668700 -1.10264571 -0.90017659
v -1.78679674 -0.55658762 -0.33272887
v -1.81947868 -0.28242695 -0.37854842
v -1.77915590 0.06835527 -0.41851929
v -1.76526433 0.28849516 -0.44636366
v -1.76375311 1.80354122 -0.90053017
v -1.77547472 -2.00051113 -0.14869250
v -1.73876517 -0.32428110 -0.90023631
v -1.77698582 1.87243442 -0.66966278
v -1.63023572 -1.93566175 -0.90213574
v -1.68147367 -0.10261008 -0.90010477
v -1.67062943 1.12496917 -0.89997131
v -1.76539069 1.60079972 -0.63015938
v -1.68467849 -0.58138620 -0.89996702
v -1.67598420 -0.10224109 -0.37118188
v -1.67180603 1.22803835 -0.55649222
v -1.70700138 -1.99739321 -0.89481533
v -1.66225856 -1.29412778 -0.89993507
v -1.69540053 -0.90583040 -0.89999581
v -1.61035746 -0.41128788 -0.31292713
v -1.65555280 1.41591780 -0.57913757
v -1.66432684 1.57296161 -0.89995534
v -1.69087236 0.94629590 -0.52139635
v -1.60096639 -1.59187408 -0.89989073
v -1.62735193 -1.22308155 -0.20308735
v -1.64169472 -0.65949734 -0.28528768
v -1.62698298 0.53194008 -0.44877655
v -1.58201712 -1.50292428 -0.15338028
v -1.63361400 1.76075868 -0.62212557
v -1.66658490 -2.00232072 -0.84947682
v -1.71088653 -1.99780937 -0.11694007
v -1.58128517 -0.88460441 -0.23980363
v -1.59788280 0.70805441 -0.90002055
v -1.58737200 0.76321213 -0.47203649
v -1.53940754 2.00186471 -0.76707155
v -1.50579160 -2.00007089 -0.31988064
v -1.60268169 -1.92177566 -0.09794251
v -1.56914204 0.49297563 -0.89995456
v -1.56835883 0.96173767 -0.89996464
v -1.53036373 1.39365975 -0.89990760
v -1.58223122 0.07381238 -0.37432901
v -1.45130747 1.73500041 -0.89992220
v -1.59949880 1.99372916 -0.64981652
v -1.49849909 -2.00020297 -0.76252062
v -1.45235115 -0.80602296 -0.89996303
v -1.55978518 1.93834357 -0.62787700
v -1.47890811 -2.00190933 -0.09144987
v -1.54917138 -0.24040146 -0.89992041
v -1.42249935 0.00937248 -0.89994258
v -1.43266480 0.32522694 -0.89993358
v -1.48213475 0.29160611 -0.38176898
v -1.59554010 -1.98709460 -0.09001335
v -1.40819042 -1.68950291 -0.89997984
v -1.50435989 -0.99546434 -0.89997382
v -1.49134248 1.52742855 -0.55702866
v -1.49454074 -1.99167140 -0.89679248
v -1.44679397 0.96552328 -0.46801961
v -1.54029053 1.99948792 -0.88826097
v -1.45825153 -1.78078612 -0.08563569
v -1.49816280 -0.48316296 -0.89994646
v -1.41761606 -0.33695777 -0.27893463
v -1.48330932 1.32206456 -0.52632458
v -1.47379630 1.94289188 -0.90187139
v -1.36103421 -1.43048700 -0.89988107
v -1.42822366 -1.19839169 -0.89991892
v -1.36009603 0.86567823 -0.89997197
v -1.44571012 -1.16572173 -0.16904134
v -1.48586267 -0.09722060 -0.32817558
v -1.40161901 -1.43034824 -0.12146558
v -1.39925366 1.13147168 -0.48025919
v -1.43688267 1.75678806 -0.57632894
v -1.49997740 -1.98950275 -0.06629520
v -1.37167435 -0.78670885 -0.20507298
v -1.36853331 0.09323914 -0.32785011
v -1.39037829 0.52720450 -0.39363561
v -1.43549197 2.00007681 -0.62941945
v -1.37951463 -0.58141311 -0.23582400
v -1.38947659 0.71518682 -0.41973928
v -1.35550373 1.17514173 -0.89994568
v -1.37677544 -1.98577817 -0.03936023
v -1.27921443 1.99526576 -0.89804894
v -1.22875052 -1.74550803 -0.03807605
v -1.33294218 -0.58542161 -0.89998407
v -1.26502126 -2.00045248 -0.19270959
v -1.35285836 -0.98556431 -0.17382722
v -1.25046008 1.99106626 -0.56796760
v -1.31064873 -2.00118740 -0.82336468
v -1.28226643 -0.36769376 -0.89998407
v -1.32552128 1.43331460 -0.89993144
v -1.26599103 1.85675363 -0.55018098
v -1.16140526 2.00151877 -0.61527128
v -1.23214798 -1.99984666 -0.48497004
v -1.19025856 -1.93010052 -0.90119196
v -1.31029528 1.30663792 -0.48430825
v -1.17593699 2.00103621 -0.82508326
v -1.29177409 -1.33195515 -0.11358472
v -1.21504598 -0.95782788 -0.89999253
v -1.31088906 -0.17234075 -0.27740256
v -1.28762060 0.58674870 -0.89996547
v -1.22833555 1.67376022 -0.51687360
v -1.07431977 1.89046888 -0.90149064
v -1.10232049 -1.99920841 -0.89238126
v -1.26987224 0.33123402 -0.33844358
v -1.32515436 -1.16484101 -0.14617363
v -1.20662206 -0.36792887 -0.22591706
v -1.13354879 -1.72476419 -0.90012372
v -1.21363228 -1.23004486 -0.89996839
v -1.18701928 -0.07208734 -0.26296470
v -1.21343844 0.92700688 -0.40888903
v -1.26298528 1.47592477 -0.49720085
v -1.21529060 -1.95473917 -0.00364455
v -1.16615706 -1.19649168 -0.19815142
v -1.22596353 -1.03688290 -0.20291623
v -1.14306086 0.42486672 -0.89999223
v -1.16852265 -2.00180848 -0.06920288
v -1.24329310 -0.88111087 -0.18453789
v -1.19329958 -0.59833549 -0.19025852
v -1.19237381 0.57723902 -0.35505978
v -1.13461237 0.68827252 -0.89999289
v -1.17374759 -0.70940195 -0.89999778
v -1.17672234 -0.14361860 -0.89999563
v -1.14439266 1.64450483 -0.90007973
v -1.18974584 -1.45690020 -0.07367100
v -1.18633359 0.15385528 -0.89997918
v -1.11400574 1.17159132 -0.42024366
v -1.14344626 -1.35981043 -0.14261334
v -1.14565986 -0.71040474 -0.16870684
v -1.08179467 0.11330728 -0.26469884
v -1.13293546 1.94356279 -0.53080720
v -1.17545872 -1.99731990 0.00167634
v -1.08559733 -1.61562260 -0.02312142
v -1.06215911 -0.46759403 -0.90000088
v -1.07727616 0.92995600 -0.89999843
v -1.09511786 1.19542364 -0.89998300
v -1.07450443 1.41001658 -0.89995725
v -1.12593835 1.41669874 -0.45733300
v -1.04519504 0.28732858 -0.28061116
v -1.01990014 -1.54074331 -0.89997262
v -1.10967320 0.75403897 -0.36078293
v -1.03963953 -2.00065776 -0.72651047
v -1.02940434 -1.99995871 -0.30362088
v -1.00308877 -0.01646377 -0.89999927
v -0.99988788 0.25617550 -0.89999813
v -0.97683292 1.01942317 -0.36739219
v -1.02502673 -1.98681112 0.04094296
v -0.95282047 -0.27145839 -0.18082522
v -1.01109975 1.54392962 -0.44876591
v -0.98624354 -1.43894358 -0.11450981
v -0.96376031 0.57658200 -0.30232141
v -1.04313128 -0.97815587 -0.24467377
v -0.98466652 -0.71589642 -0.21197650
v -0.96700924 -0.06744966 -0.21290664
v -0.96338373 -1.56407829 -0.00700639
v -0.98010140 -1.16348727 -0.89999790
v -0.99678808 -0.44793997 -0.16578396
v -0.96326440 1.80098276 -0.47347299
v -0.91014641 -1.99992009 -0.54133040
v -0.97280436 -1.89752598 0.04358944
v -0.81478613 -1.82202669 -0.90042127
v -0.93930667 -0.81212087 -0.90000183
v -0.91449659 1.05979316 -0.89999861
v -0.91771489 1.37095956 -0.40304188
v -0.97785073 1.99702672 -0.51750047
v -0.84247058 2.00126223 -0.60924465
v -0.90892714 -1.70645185 0.03043459
v -0.98499268 -0.53433515 -0.15957517
v -0.75063037 0.37066130 -0.90000106
v -0.89437395 0.75490145 -0.90000076
v -0.89207166 1.99495010 -0.89857382
v -0.85437303 -2.00062557 -0.07336701
v -0.90103143 -1.95755680 -0.90106249
v -0.95056086 -1.13868000 -0.23829374
v -0.87637334 1.61919193 -0.89997584
v -0.87383943 -1.51624020 -0.04415814
v -0.85195129 -1.39368911 -0.89997614
v -0.82093614 -0.48005578 -0.90000064
v -0.87153428 0.57797239 -0.89999927
v -0.67673396 2.00149278 -0.80147386
v -0.88989108 -2.00230225 0.03984830
v -0.96400600 -1.29114588 -0.19876618
v -0.85210698 -0.26824733 -0.90000117
v -0.86695390 1.62164239 -0.42648429
v -0.86339264 1.93772010 -0.46854368
v -0.93634575 -1.98789616 0.06272313
v -0.85965674 -0.91280927 -0.24776918
v -0.85337883 0.10968850 -0.21146270
v -0.82529169 0.89138572 -0.31458513
v -0.85377853 1.22471039 -0.36783249
v -0.76611035 1.85622482 -0.90104634
v -0.78340911 1.31031017 -0.89995564
v -0.84781807 -0.36848920 -0.14849555
v -0.79083943 0.31938110 -0.22631789
v -0.88567167 1.99878005 -0.48685378
v -0.80682271 -2.00186129 -0.79933716
v -0.79784077 -1.24666901 -0.18772583
v -0.82507699 -1.99572368 0.08734027
v -0.77549195 -1.16236313 -0.89999778
v -0.73664980 -0.45529558 -0.20615864
v -0.78629869 0.00904996 -0.90000106
v -0.81757813 -1.90858694 0.08093418
v -0.67053007 -1.59167715 -0.90001435
v -0.80076509 -1.38805791 -0.12542895
v -0.67601406 -0.99045141 -0.22028611
v -0.69778930 -1.99985428 -0.28336886
v -0.60213720 -1.72924300 0.10428496
v -0.75905430 -0.14507118 -0.15350660
v -0.78656118 0.55194191 -0.25851340
v -0.69445729 1.10048978 -0.89999605
v -0.63440447 1.79376702 -0.39656902
v -0.73328172 -1.99729331 -0.89356530
v -0.71930324 -0.84039469 -0.90000052
v -0.65512788 1.10683791 -0.30559913
v -0.73262691 1.43643503 -0.36964721
v -0.64744901 1.99528531 -0.43081099
v -0.52426641 -2.00185342 0.09945335
v -0.71975850 0.76191298 -0.27283937
v -0.70742678 -1.56684526 0.05266231
v -0.58933555 -1.92839010 0.13664680
v -0.59730529 -0.67119597 -0.90000022
v -0.65749233 0.87069086 -0.90000159
v -0.66396367 1.58052008 -0.37401125
v -0.66115003 -1.42756851 -0.03187194
v -0.63854944 -0.32629435 -0.90000028
v -0.69184064 0.07809423 -0.16919797
v -0.72925251 -1.98922082 0.10789003
v -0.54086720 -1.24192973 -0.89999432
v -0.63775211 -0.63828861 -0.24460008
v -0.57238292 -0.15377741 -0.16501161
v -0.71705847 0.39829807 -0.22530530
v -0.60385280 1.51912526 -0.89990891
v -0.62545072 -1.99993749 -0.56833339
v -0.61537974 -1.95915146 -0.90089131
v -0.56002086 0.48417090 -0.90000028
v -0.64602857 0.48321162 -0.25080479
v -0.66242462 0.63731949 -0.26375864
v -0.61542516 0.93581502 -0.27234001
v -0.61110794 1.28543548 -0.32052136
v -0.51833587 1.99850873 -0.89392186
v -0.60941839 -1.21698459 -0.13110968
v -0.48510807 -1.01744069 -0.90000070
v -0.65982562 -0.15157606 -0.13516835
v -0.60842853 0.14576615 -0.17707489
v -0.63832533 1.92506675 -0.41377453
v -0.54528027 -1.99379523 0.15174642
v -0.59576916 -0.76940219 -0.23956213
v -0.54263186 -0.06126397 -0.90000016
v -0.54238521 2.00099377 -0.48704798
v -0.57634770 -1.40755506 -0.89998609
v -0.52931874 0.70685677 -0.90000088
v -0.52846729 0.18344907 -0.90000022
v -0.57258486 0.72093342 -0.25552795
v -0.50322931 -1.99955197 -0.89093656
v -0.49845278 -2.00175830 -0.79932750
v -0.54436737 -2.00017460 -0.06366647
v -0.50523030 -1.75803800 -0.90014780
v -0.56331854 -1.49760600 0.07960427
v -0.46779703 -0.44196698 -0.89999992
v -0.51635819 -0.25876916 -0.21088578
v -0.51240789 0.28708814 -0.23529587
v -0.40287869 1.03167919 -0.90000225
v -0.49140918 1.29928796 -0.89997239
v -0.53498953 1.40836684 -0.32026071
v -0.40004700 1.91977481 -0.90179450
v -0.39292460 -1.99986263 -0.29310722
v -0.41392057 1.72930030 -0.90010441
v -0.54500841 1.65846090 -0.35757042
v -0.45197033 -1.25574889 -0.00965521
v -0.46413320 0.85995297 -0.22795810
v -0.45393234 -0.96020069 -0.16774524
v -0.48174714 -0.43862103 -0.24012209
v -0.56520896 -0.00923284 -0.13095385
v -0.43301355 1.86857061 -0.36038513
v -0.49474286 0.52627395 -0.25836033
v -0.39058470 -2.00001605 -0.61060227
v -0.37303375 1.23366348 -0.25852979
v -0.41530626 -1.32182022 0.07982126
v -0.44973230 -0.02040698 -0.16757170
v -0.44978797 1.05415503 -0.25095502
v -0.28593364 1.49615542 -0.89989103
v -0.37198972 -1.04463317 -0.09501362
v -0.40808087 0.10848836 -0.21591938
v -0.43127864 1.57348303 -0.31957424
v -0.28650140 -1.46485587 -0.89996553
v -0.29070672 -0.66516058 -0.20413407
v -0.39871597 0.62297849 -0.23946830
v -0.29958700 2.00074438 -0.71996755
v -0.38024109 -1.94112821 -0.90089429
v -0.41756027 -1.93827017 0.17683009
v -0.30485397 -1.40039464 0.12625437
v -0.40162783 1.99714259 -0.37790961
v -0.29281428 -1.70449837 0.17136740
v -0.32713615 -0.51608506 -0.23493297
v -0.25025698 0.32588814 -0.89999992
v -0.23734694 -2.00065001 -0.00714082
v -0.37745475 -0.15646311 -0.89999998
v -0.27804714 0.75661437 -0.17622604
v -0.33173703 -0.90838953 -0.90000076
v -0.29809066 -0.64863776 -0.90000010
v -0.30614387 -0.25131925 -0.23749403
v -0.33550911 -0.10544190 -0.21381517
v -0.33329081 0.09527708 -0.89999998
v -0.33089303 0.41446761 -0.25057763
v -0.30506652 1.46710960 -0.27563027
v -0.27215483 1.74670390 -0.30703843
v -0.35979193 2.00164799 -0.42917580
v -0.31107824 -1.99911650 0.19296052
v -0.22517657 0.59521316 -0.90000022
v -0.26381110 -1.72273846 -0.90008701
v -0.23682662 -1.24244424 -0.89999229
v -0.31095903 0.80513291 -0.90000106
v -0.24171754 0.93531529 -0.18636390
v -0.27141785 1.26650946 -0.89997674
v -0.18891721 -0.75900041 -0.14083709
v -0.20644470 -0.35025829 -0.89999998
v -0.25189763 -0.01511301 -0.22091440
v -0.26024082 0.25065730 -0.24776632
v -0.26566415 1.94489030 -0.33201090
v -0.31129890 -1.99820347 -0.89311422
v -0.19717252 -2.00107272 -0.76436890
v -0.16182821 -1.99989374 -0.43099359
v -0.26243883 0.51665942 -0.23060898
v -0.18429851 1.99185495 -0.89785100
v -0.20916744 -1.95659347 0.22762209
v -0.15925222 -1.10471274 0.11629313
v -0.16367840 -1.01753439 -0.90000016
v -0.19141876 0.66107903 -0.17377242
v -0.14219003 0.00943230 -0.89999998
v -0.20979961 0.08233319 -0.23787180
v -0.15732484 2.00150756 -0.37386662
v -0.18401741 -1.03423478 0.03089502
v -0.17021199 -0.26919393 -0.23936384
v -0.19718947 1.29322664 -0.22644108
v -0.12121674 -0.75868844 -0.90000016
v -0.12840413 0.93992762 -0.90000034
v -0.11599108 1.87437229 -0.90145672
v -0.23584323 -2.00073512 -0.89013827
v -0.15259104 -2.00027247 0.23326043
v -0.16976401 -1.97464474 -0.90063871
v -0.09022828 1.17683141 -0.18552797
v -0.19734197 1.99657397 -0.33452079
v -0.05866482 -1.43719299 0.18770643
v -0.05078348 -1.99992700 -0.20390192
v -0.05194550 -1.66758879 -0.90002955
v -0.05923345 -0.80310025 -0.04800292
v -0.14647477 0.34703915 -0.23384599
v -0.11577549 1.63308637 -0.25530208
v -0.04378185 -1.87446626 -0.90057636
v -0.00001345 -1.12405892 0.15848901
v -0.06929987 1.41052060 -0.21347504
v -0.06118109 2.00038843 -0.54755295
v -0.05097311 -1.76533337 0.23582461
v -0.07091080 -0.36724901 -0.21703374
v -0.09942358 0.44992093 -0.20514441
v -0.01615632 1.27136485 -0.89997304
v -0.03185108 1.56010811 -0.89993680
v -0.13388791 -1.99937816 -0.89328516
v -0.06024896 0.18144364 -0.23735884
v -0.02232926 -0.05988276 -0.23936642
v 0.00359199 0.25517611 -0.89999992
v -0.03331443 0.55395184 -0.14956478
v -0.03918792 0.83418719 -0.12526321
v -0.03385710 0.71908484 -0.90000040
v -0.10291257 1.82909421 -0.27910323
v 0.01657509 2.00120620 -0.82850397
v 0.03137927 -1.99991544 -0.46491305
v 0.04446224 -2.00238498 0.24706853
v -0.03397357 -1.98019453 0.26847675
v 0.00287358 -0.61320348 -0.90000004
v -0.01458617 0.48024378 -0.90000004
v -0.01518973 0.69974099 -0.10253081
v 0.03551539 -2.00033458 0.08460610
v -0.02975858 -0.93922766 0.08944593
v -0.01180623 -0.30761689 -0.89999998
v 0.00733582 1.92203383 -0.26567203
v -0.01333640 -1.19276806 -0.89999688
v 0.04762358 1.04273514 -0.13489013
v -0.01056153 -2.00125833 -0.78530837
v 0.02987220 -1.42749890 -0.89997590
v 0.02284364 0.30768124 -0.20792802
v 0.03266834 1.99271039 -0.27513356
v -0.02795165 -1.99840804 -0.89277501
v 0.15932204 -1.94675239 -0.90090943
v 0.15158644 2.00085024 -0.36279089
v 0.00107267 -0.98768165 0.13948678
v 0.10733311 -0.95798816 -0.90000046
v 0.01020565 -0.56798499 -0.13537625
v 0.07496721 1.07630007 -0.89999426
v 0.06797252 -0.29876925 -0.21445704
v 0.14790539 0.03662885 -0.89999998
v 0.10535776 1.66825990 -0.20934882
v 0.21702521 -1.89097412 0.31584292
v 0.20605253 -1.32510253 0.23434495
v 0.10421015 -0.14657738 -0.89999998
v 0.09614324 1.18193774 -0.14335113
v 0.12665693 1.84854416 -0.90131570
v 0.03973915 -0.76801746 -0.01221324
v 0.05740298 0.47000889 -0.16314488
v 0.26520988 0.46436910 -0.89999998
v 0.14122825 1.38790123 -0.16185676
v 0.14080454 1.99421934 -0.89783616
v 0.21421848 -1.99896951 -0.89122648
v 0.03964821 -0.91462799 0.11533798
v 0.08546687 -0.48383850 -0.17097100
v 0.15332605 0.19310139 -0.23375093
v 0.14286092 0.84558730 -0.90000100
v 0.18912505 -0.44266972 -0.89999998
v 0.04046100 0.61816720 -0.09434029
v 0.19323541 1.53959934 -0.89998383
v 0.26570572 -2.00147648 -0.81922359
v 0.10100435 -1.02263929 0.16431657
v 0.20572440 -0.98612143 0.03626263
v 0.23684407 -0.86845328 -0.06440247
v 0.09387685 -0.66475307 -0.10234830
v 0.13454372 0.58552573 -0.14501656
v 0.12123538 0.83457355 -0.08814056
v 0.24039067 -1.99992033 -0.08989093
v 0.11883920 -1.99720927 0.30318021
v 0.20013619 -1.67595025 -0.90009529
v 0.23635359 -0.23914757 -0.22790863
v 0.22121949 0.06533135 -0.23132536
v 0.23401299 0.41015182 -0.21821024
v 0.13623515 0.74222211 -0.07763700
v 0.19871643 -2.00006648 -0.59994311
v 0.21302355 -1.57319613 0.26928564
v 0.18796174 -1.25607790 -0.89998651
v 0.19939279 -1.08248039 0.13644000
v 0.22272214 1.85848717 -0.20815248
v 0.28297346 2.00052409 -0.70105762
v 0.24824191 -0.73259302 -0.90000052
v 0.25559767 0.22272499 -0.89999998
v 0.23051814 0.95581619 -0.07968070
v 0.41021665 1.93274526 -0.90135801
v 0.16131126 1.99794869 -0.24933318
v 0.28093451 -2.00084253 0.17283508
v 0.28279526 -0.48987265 -0.20682918
v 0.30708503 -0.66232996 -0.17378499
v 0.32207305 0.80188219 -0.13267853
v 0.32477949 0.91221575 -0.90000159
v 0.27612695 1.15807216 -0.09836358
v 0.33669484 -0.32082839 -0.89999998
v 0.29567781 1.21868340 -0.89998979
v 0.34961807 1.96175317 -0.19244734
v 0.24371633 -1.99896165 0.32763844
v 0.29177335 -1.26152845 0.24122057
v 0.31264564 1.64877288 -0.15898620
v 0.34023849 -1.99990113 -0.38663424
v 0.33454522 -1.50477989 -0.89994711
v 0.39161491 -0.88015075 -0.90000100
v 0.29207678 0.92552964 -0.06512258
v 0.34887773 1.38569097 -0.11374327
v 0.38804307 -1.17382516 -0.89999027
v 0.45069555 1.59370260 -0.89984787
v 0.27967454 1.99878601 -0.22215328
v 0.33256360 -0.02793472 -0.20381500
v 0.46990067 -2.00158699 0.33353525
v 0.45744262 -1.36875041 0.18244454
v 0.34596189 0.62226753 -0.19896982
v 0.40045429 -0.85326006 -0.13996894
v 0.40831328 -0.01088469 -0.89999998
v 0.46214277 1.99815587 -0.89155752
v 0.48045588 -1.86552961 0.37324327
v 0.49639896 -1.64660152 0.34525042
v 0.38583983 -0.20888003 -0.21559555
v 0.38879449 1.12674562 -0.06765913
v 0.43030892 1.34168343 -0.89993346
v 0.43181147 1.77021341 -0.14839334
v 0.59096537 1.99993686 -0.56721843
v 0.38904933 2.00115232 -0.29910863
v 0.34477205 -1.99390276 0.35768896
v 0.51007891 -0.59623616 -0.90000040
v 0.49680910 0.30713395 -0.22633525
v 0.50354335 0.70579444 -0.90000082
v 0.44270971 -1.96005436 -0.90105385
v 0.42084270 1.99846582 -0.18743392
v 0.56650750 -2.00007470 -0.63256235
v 0.39505460 -1.19888808 0.06086478
v 0.47930253 -1.09600975 -0.06253376
v 0.44751576 0.45466928 -0.23341087
v 0.50327305 -1.80580707 -0.90038473
v 0.54948021 0.16646494 -0.19316814
v 0.49311585 1.54752044 -0.10330154
v 0.54278866 -1.99984546 -0.02559681
v 0.42550626 -1.99597796 0.37480604
v 0.58380125 1.09245471 -0.89999557
v 0.57589439 -1.38398142 -0.89995558
v 0.56219039 -0.23102204 -0.18355248
v 0.56832121 0.48939471 -0.90000016
v 0.55025325 0.63673757 -0.22630183
v 0.43496724 1.05871193 -0.06484021
v 0.49793602 1.30355744 -0.06742462
v 0.49798984 -1.50517626 0.32325306
v 0.51957098 -0.43803622 -0.21623701
v 0.56118447 -0.27883526 -0.90000010
v 0.59600756 -0.03409095 -0.11360633
v 0.52759276 0.23831086 -0.90000004
v 0.68783233 1.79615836 -0.90069575
v 0.52039570 -2.00179096 -0.82567990
v 0.60760156 0.84973244 -0.20329044
v 0.56650922 -1.99996324 -0.38210902
v 0.55366427 -0.61007329 -0.21371890
v 0.55793086 1.00698082 -0.14365023
v 0.67684660 2.00080041 -0.25609336
v 0.60762832 -0.95489587 -0.90000171
v 0.53565744 -0.80867948 -0.18505894
v 0.60902605 -0.02906266 -0.90000034
v 0.48612440 -1.99311324 0.39100596
v 0.59978009 -1.63185092 -0.90007532
v 0.55379001 1.22045581 -0.04463969
v 0.55333973 1.99544052 -0.15375160
v 0.57809461 -1.99187966 0.41140234
v 0.54279340 -1.26377251 0.00286916
v 0.63472278 1.18566982 -0.09800994
v 0.66110862 1.45372538 -0.05126056
v 0.60657025 1.84059100 -0.11732087
v 0.62022052 2.00120143 -0.84482003
v 0.66805572 -2.00010534 0.14773306
v 0.64424694 -1.03848560 -0.14976901
v 0.63769931 -1.41171511 0.05030732
v 0.62551884 0.03870983 -0.12526495
v 0.71632118 1.98937706 -0.89857287
v 0.65697265 -1.99673327 -0.89517737
v 0.60256005 -1.55177220 0.26739021
v 0.66768230 0.51038472 -0.22839045
v 0.68865237 -2.00207873 -0.84880919
v 0.71734495 -1.88763888 -0.90112121
v 0.65244050 -1.62201138 0.36982515
v 0.73912061 -0.53500899 -0.90000135
v 0.70576627 1.46687023 -0.89993585
v 0.72343440 -0.84037592 -0.20123105
v 0.76162393 0.38921408 -0.90000058
v 0.72876883 -1.99993320 -0.30967922
v 0.67735688 -1.52472945 0.14363917
v 0.70969868 -1.22193219 -0.10412241
v 0.73544956 -0.61464732 -0.20629284
v 0.69811574 -0.13434702 -0.10397223
v 0.72231711 1.66266469 -0.06657759
v 0.83464069 -2.00064572 0.24481738
v 0.73340160 -1.95119663 0.44391998
v 0.79568154 -1.64281769 0.28217398
v 0.77258242 -1.35342510 -0.06086175
v 0.78489292 0.14938877 -0.90000100
v 0.83782531 0.88837008 -0.90000237
v 0.69977791 1.36526815 -0.03521191
v 0.72949094 -1.99909289 0.43779063
v 0.81740738 0.27631692 -0.14152624
v 0.77776176 0.42486755 -0.19832859
v 0.78397138 0.63263093 -0.90000094
v 0.73815197 1.93496565 -0.09970420
v 0.73106623 1.99770431 -0.11881894
v 0.76321108 -1.74876495 0.42079499
v 0.79665799 -1.51560398 -0.89986766
v 0.76921356 -1.19520362 -0.89998073
v 0.81760056 -0.40806912 -0.15367674
v 0.77817757 -0.26613893 -0.90000076
v 0.75769312 1.32289116 -0.08540137
v 0.87950928 1.99997048 -0.56678802
v 0.88674188 -1.99993463 -0.07326809
v 0.83959813 -0.90703096 -0.90000243
v 0.76531530 -0.01871534 -0.01728572
v 0.91622753 0.85210876 -0.22924986
v 0.93741316 1.32226602 -0.89995111
v 0.81591792 0.09443931 -0.05528566
v 0.84021760 -1.48046585 0.01643633
v 0.82776893 -1.11231305 -0.17105228
v 0.81025059 1.12278430 -0.18559442
v 0.91796846 -2.00087340 -0.79712898
v 0.85467214 -0.08535414 0.02152484
v 0.84549386 1.00173513 -0.21674228
v 0.83516610 1.53201131 -0.02234670
v 0.87032367 2.00167589 -0.10824283
v 0.89488006 -1.98765667 -0.89841527
v 0.84715719 -1.69868441 0.42473000
v 0.87917752 -1.57593949 0.11863459
v 0.84780801 1.46887152 -0.01617176
v 0.93632532 -1.99990221 -0.45833973
v 0.96818436 -0.30795455 -0.04720309
v 0.91180945 -0.13047716 -0.90000177
v 0.89161939 0.63051413 -0.21379406
v 0.88279081 1.27098052 -0.15261628
v 0.84367634 -1.26321967 -0.12810018
v 0.88549543 1.09867899 -0.89999360
v 0.90403552 1.43154888 -0.05941639
v 0.89943308 1.66083900 -0.90004963
v 0.94841493 1.92134909 -0.90201367
v 0.86083234 2.00165872 -0.83423180
v 0.98457105 -1.85361977 0.48807722
v 0.90496845 -1.00045421 -0.19679833
v 0.92573268 0.04646437 0.07151590
v 0.96270157 1.82412676 -0.03308664
v 0.92582167 -2.00308557 0.46066722
v 0.95051718 -1.69821878 0.38464981
v 1.05857474 -0.34919592 -0.90000040
v 0.87061132 -1.99122949 0.47889640
v 1.01570845 -1.75796898 -0.90048361
v 0.99509276 -0.56235548 -0.90000147
v 0.93115384 -0.03873341 0.13600264
v 1.06638742 0.55660341 -0.15095121
v 0.96512163 -0.82020541 -0.19603149
v 0.99724788 -0.73988600 -0.90000177
v 0.96873224 0.15280874 -0.89999766
v 0.94702191 -1.38671013 -0.07357514
v 1.01934607 -1.27040001 -0.89998770
v 0.97669715 -0.65896194 -0.17068798
v 1.07917459 0.39557044 -0.07423578
v 1.01730008 0.50873612 -0.89999986
v 0.99120332 -1.99752315 0.50316065
v 0.98194588 1.14583878 -0.20715221
v 1.12804914 2.00011162 -0.24599246
v 1.07626892 -1.99994941 -0.23834479
v 0.95734907 -1.21127661 -0.16036927
v 0.99509949 1.62799458 0.00154120
v 1.03147954 1.99347500 -0.04336142
v 1.01462013 -2.00086244 0.36312606
v 1.03787661 -1.71894951 0.47640621
v 0.99644256 -1.64451261 0.21796899
v 1.10580850 -0.55941119 -0.09622136
v 1.18115098 -2.00032874 -0.67182398
v 1.05902982 -1.54771240 -0.90002525
v 1.06880862 1.29375069 -0.15526772
v 1.22096593 1.99803810 -0.89124823
v 1.05377031 -1.53634210 0.06030773
v 1.15439279 -0.26395294 0.14635625
v 1.08771104 1.55365269 -0.89989651
v 1.17586709 1.85940413 -0.90068979
v 1.13237477 2.00090007 -0.68619478
v 1.12934507 -1.27254065 -0.11841852
v 1.02452183 -0.00482883 0.23441032
v 1.08268041 1.45119719 -0.05325651
v 1.00872732 1.53216760 0.01438071
v 1.12977786 -1.99955328 -0.88999564
v 1.10708154 -1.68521531 0.37028327
v 1.12296922 -0.98324736 -0.18162645
v 1.12613238 -0.01692818 -0.89999366
v 1.19635213 0.77762369 -0.89999617
v 1.15750600 1.12863151 -0.89998919
v 1.10446853 2.00208001 -0.07979003
v 1.25211257 -2.00144358 0.50245740
v 1.11764432 0.26683108 0.04337326
v 1.26684386 0.18163605 -0.89996237
v 1.08287758 -1.09562423 -0.18212186
v 1.12561692 -0.99826320 -0.89999241
v 1.15022749 -0.15392475 0.28353136
v 1.22320051 0.27175460 0.15171335
v 1.10616494 1.60988001 0.02949078
v 1.13098479 -1.99995680 0.12873872
v 1.16909672 -1.61275645 0.21207752
v 1.08746362 -1.39673622 -0.06142262
v 1.22825284 0.19943161 0.25175636
v 1.16806418 0.81559471 -0.19485906
v 1.21894307 1.53273467 0.06078192
v 1.21135408 -1.99994226 -0.39898205
v 1.31137723 -1.94730027 -0.90143312
v 1.18415523 -0.74947299 -0.13182350
v 1.24844331 -1.98573704 0.56334137
v 1.23888833 -1.89006599 0.55235802
v 1.20160527 -1.43898304 0.00789195
v 1.20646388 -0.72967266 -0.89999098
v 1.19183422 -0.04357216 0.28221759
v 1.19064266 1.92511753 0.00612307
v 1.22169191 -1.99993237 -0.02024991
v 1.24385745 -0.48627970 0.02599202
v 1.19750399 -1.15037503 -0.14464684
v 1.15641660 1.12190227 -0.20152672
v 1.23772652 1.99741272 -0.00253822
v 1.30185658 1.99984507 -0.37426663
v 1.31055386 -1.19891991 -0.89995105
v 1.28565270 -0.48380389 -0.89997709
v 1.23793072 0.47137360 -0.89998854
v 1.19340772 1.32960348 -0.11856315
v 1.32375605 1.38816480 -0.01950246
v 1.28894848 1.40859835 -0.89987690
v 1.29837615 -2.00005241 0.28946989
v 1.27838392 -1.50038667 -0.89993126
v 1.21974821 -1.68808444 0.51541477
v 1.36175937 -0.13537993 -0.89995778
v 1.22876436 1.00502531 -0.19797317
v 1.26695914 1.19076423 -0.15145349
v 1.33359880 1.80336813 0.05492175
v 1.36333174 0.11922772 0.29784783
v 1.30057091 0.49955283 0.00214122
v 1.31022329 1.62840382 -0.89997852
v 1.31210620 -1.62535437 0.41919410
v 1.30016047 -0.86943014 -0.11417219
v 1.32879157 -0.68893080 -0.04127407
v 1.49123425 2.00089244 -0.10550300
v 1.41128880 -1.99993737 -0.17576591
v 1.33382339 -1.54381724 0.22195826
v 1.28885729 -1.01980563 -0.12950555
v 1.30937702 0.81620137 -0.14800700
v 1.36741883 1.60123126 0.09132037
v 1.32516832 -1.43376334 0.06985512
v 1.30444986 -1.26289089 -0.05993226
v 1.36663932 -0.88861843 -0.89995319
v 1.36657829 -0.38087228 0.29467663
v 1.36385722 -0.16940674 0.33814495
v 1.38453240 1.24569373 -0.89992834
v 1.44798488 -1.81604286 -0.90034390
v 1.38126320 1.02776245 -0.12989581
v 1.35949916 -2.00140842 -0.80274052
v 1.37518925 0.70073382 -0.07237406
v 1.43756432 0.99664680 -0.89994980
v 1.45266730 -1.99986776 0.10950459
v 1.36131281 -1.62127944 0.53868138
v 1.37716574 -1.15575488 -0.05511169
v 1.43941338 -0.41424297 0.38300603
v 1.58841593 2.00175480 -0.84615857
v 1.45239062 1.99999909 -0.67414791
v 1.52898318 -1.59841653 0.57622688
v 1.44903655 -1.40955218 -0.89993621
v 1.46657068 -0.67179062 -0.89992762
v 1.40714020 0.39677165 -0.89999617
v 1.44717187 0.64543794 -0.89996166
v 1.45921273 -1.99885996 -0.89278800
v 1.39642770 1.21456735 -0.08184486
v 1.49050064 1.83289008 -0.90100068
v 1.46257848 -1.27962239 0.07021108
v 1.42295880 -0.96442093 -0.04948728
v 1.47092373 -0.57618065 0.16615384
v 1.52717001 -2.00000222 -0.55287404
v 1.45327491 -1.54129608 0.48632287
v 1.47200126 -0.69624107 0.06966440
v 1.53175957 0.50050156 0.27827882
v 1.52773756 0.57749216 0.16599836
v 1.51691598 -2.00084921 0.50201988
v 1.46858675 -1.48149319 0.30364081
v 1.47290809 -1.39223595 0.17803254
v 1.47450156 -0.36353558 0.38972627
v 1.59244151 -0.36438307 -0.89988727
v 1.45855731 0.64169036 0.02303412
v 1.44766421 0.91868321 -0.08991019
v 1.53489537 1.99848346 0.06841365
v 1.45597119 -0.83085157 -0.00442104
v 1.58705444 0.04874216 -0.89988781
v 1.52589912 0.39740644 0.29571473
v 1.47838397 1.29631702 0.02933915
v 1.44783778 1.45712869 0.12474006
v 1.58152611 1.91349415 0.09705080
v 1.50743157 1.99173812 -0.89957691
v 1.49714012 -1.07342203 0.02177042
v 1.55621464 -1.05588265 -0.89997531
v 1.60511369 1.60940902 -0.89993954
v 1.63086814 -1.82769187 0.63200908
v 1.64272279 -1.68387349 -0.89994127
v 1.52951760 0.82353346 -0.00068794
v 1.51957089 1.04742412 -0.02898219
v 1.56194562 1.39759628 -0.89988763
v 1.55008072 -0.56235282 0.33837205
v 1.57488853 1.71869425 0.12172016
v 1.58386285 1.99983410 -0.40363128
v 1.54978663 -1.99289687 0.63406425
v 1.55073149 -1.45584651 0.55899989
v 1.59943683 0.21877359 0.33722039
v 1.68291766 0.29361568 -0.90011299
v 1.64919872 1.46634845 0.17484669
v 1.59879143 -2.00137504 -0.80510176
v 1.62506444 -1.99994310 0.21527677
v 1.69422013 -0.23265200 0.42227330
v 1.66698677 0.02536152 0.37983748
v 1.72679169 -1.95733138 -0.90160192
v 1.56892378 -1.40245970 0.41361442
v 1.58713896 -0.91793080 0.12738131
v 1.66461212 0.82967285 -0.89995462
v 1.60877962 1.29440491 0.18687352
v 1.74637122 -2.00004049 -0.28597651
v 1.73353440 -1.29156466 -0.90009672
v 1.59106869 -1.10799243 0.14552675
v 1.66361744 -0.83417459 -0.89993346
v 1.61017770 1.20274417 0.13133780
v 1.61647839 -1.24660983 0.27613675
v 1.62892038 -0.61812188 0.45891165
v 1.69841427 0.52167122 -0.90008253
v 1.65020627 0.80712251 0.17199908
v 1.71334440 1.23774473 -0.89999206
v 1.62764782 -0.76360460 0.26029264
v 1.62745280 -0.52322956 0.44841962
v 1.65445466 0.99783544 0.13847255
v 1.66996927 -1.99996431 -0.08079480
v 1.74787445 -0.65362637 -0.90025402
v 1.70012850 -2.00040479 0.43189582
v 1.67101211 -1.21884926 0.46366408
v 1.64566500 -0.70626559 0.38190877
v 1.82576353 0.63057963 0.33383068
v 1.65036840 -1.30409117 0.56032967
v 1.72235066 2.00146918 0.02874564
v 1.70037264 -1.97809072 0.66950249
v 1.67278046 -1.00176497 0.28958082
v 1.66435534 0.67764447 0.28440990
v 1.79081220 -2.00208803 0.64355599
v 1.83004255 -1.37253006 0.61504328
v 1.84767479 -1.06284429 -0.90069140
v 1.78464229 1.75497345 0.16530881
v 1.79849524 2.00056247 -0.64661104
v 1.80864925 2.00099091 -0.30779222
v 1.69867033 -1.08395721 0.41136976
v 1.70275361 -0.88798477 0.44519364
v 1.69779880 -0.80791809 0.49594721
v 1.71477611 -1.07845475 0.54340183
v 1.70366556 1.06909088 0.23747520
v 1.80422790 1.24163954 0.24188132
v 1.82462520 -1.99874218 -0.89343495
v 1.84645695 -1.08616843 0.57887148
v 1.80566985 -0.70018159 0.51417219
v 1.86809082 -0.43491026 0.49197351
v 1.88402147 0.39881114 0.37899750
v 1.71226365 0.83511130 0.27405854
v 1.87460083 1.86030821 -0.90172959
v 1.79365296 1.99160318 -0.89896107
v 1.79370386 -0.08040069 -0.90031255
v 1.93400974 0.05407129 -0.90123207
v 1.84002490 -2.00097509 0.14042283
v 1.86436660 -1.60703595 0.65527248
v 1.89302380 -0.04346688 0.44341644
v 1.79749746 0.95558206 0.28103688
v 1.84008605 1.44962053 -0.90121008
v 1.83199853 -1.59247955 -0.90057207
v 1.88322944 0.83231143 -0.90090985
v 1.75441331 1.99467759 0.12276661
v 1.85336549 -1.99250932 0.70283615
v 1.85901374 -0.31148024 -0.90163559
v 1.92316634 2.00310258 -0.03483596
v 1.88420434 -2.00201913 -0.81049896
v 1.89107413 -2.00073393 -0.55442215
v 1.90272505 -1.87417348 0.70371484
v 1.86085255 1.97848348 0.15375476
v 1.82950730 2.00004439 0.13551774
v 1.92072708 -2.00298997 0.46161272
v 1.94041998 -1.82025250 -0.90207095
v 1.93598361 1.48947875 0.23863355
v 1.94674212 0.90016262 0.32571473
v 1.94145483 -0.60117852 -0.90158314
v 1.96064813 0.38289861 -0.90102024
v 1.91386504 1.21092026 -0.90294308
v 1.94915063 1.88270406 0.18714047
v 1.93709034 0.17587740 0.42295059
v 1.93520839 1.00349168 0.30756091
v 1.93460769 -0.90876444 0.57466047
v 1.95190305 1.18141012 0.28584062
v 1.90733535 2.00230555 -0.84649152
v 1.89490456 1.99916510 0.15500028
v 1.95213205 -0.69582023 0.54884761
v 1.95885069 -2.00128241 -0.25619534
v 1.94761223 -0.89801909 -0.90222818
v 1.96525032 1.71583943 -0.90268207
v 1.94456167 1.99425225 -0.89993233
v 1.96098918 -2.00178536 -0.05688957
v 1.95083482 -1.41754456 -0.90188921
v 1.98314161 -0.22848075 0.48792368
v 1.96268410 2.00287585 -0.68679298
v 1.97673518 -1.99053832 -0.89696056
v 1.97402746 -1.97333117 0.72917806
v 1.97060866 0.70424448 -0.90109361
v 1.98922951 1.36411719 -0.89586664
v 1.97644658 1.99521450 0.17288680
v 1.99287409 1.99676875 -0.86814178
v 1.99443001 -1.99872096 0.56234222
v 1.99259824 -1.56923266 0.67686688
v 1.99437530 -1.40406151 0.65462249
v 1.99419803 -0.92926605 -0.89649523
v 1.99257833 -1.03783746 0.60261356
v 1.99331874 -0.60965623 0.54298651
v 1.99226577 -0.35457094 -0.89902038
v 1.98711092 0.34345953 0.40854313
v 1.98697919 0.79395286 0.34263566
v 1.99764914 1.84656123 0.19435700
v 1.99444825 1.99866824 -0.50677986
v 1.99254782 1.99821715 -0.21172998
v 1.99934406 -1.98979362 -0.16591271
v 1.99380691 -1.99778147 0.11189915
v 1.99441964 -1.71043797 0.69657611
v 1.98379952 -1.19675710 -0.90157748
v 1.98993356 -1.12212237 0.61704164
v 1.99536890 -0.85733922 0.56736934
v 1.99351019 0.06371228 0.44701933
v 1.99216229 0.48670058 0.38918861
v 1.99107034 0.98915104 -0.89917786
v 1.99917037 1.10634057 0.29549771
v 1.99100644 1.16692774 -0.89770485
v 1.99410600 1.35707180 0.26536548
v 2.00112779 -1.97573443 -0.84164930
v 1.99844558 -1.99408253 -0.62151951
v 1.99434144 -1.99842497 0.30415373
v 1.99940676 -1.89615091 -0.89335651
v 1.99595494 -1.86606868 0.71987002
v 1.99864478 -1.71816762 -0.89592630
v 1.99650783 -1.55564984 -0.89702452
v 1.99858291 -1.38227792 -0.89395399
v 1.99792141 -1.26281239 0.62707435
v 1.99538071 -0.95047750 0.59051465
v 1.99624450 -0.72802700 0.55451392
v 1.99909300 -0.67321413 -0.89203334
v 1.99396379 -0.48224746 -0.89809758
v 1.99628860 -0.50410201 0.52743810
v 1.99807829 -0.40276672 0.50623154
v 1.99590356 -0.19245453 -0.89769400
v 2.00013394 -0.03260565 -0.88452370
v 2.00010366 0.11431597 -0.87644494
v 1.99798245 0.29349111 -0.89537442
v 1.99932200 0.26046852 0.40826341
v 1.99825592 0.43749515 -0.89364172
v 1.99825270 0.55532752 -0.89390273
v 1.99684698 0.64803748 0.36787122
v 1.99923784 0.77116827 -0.89354546
v 1.99710328 0.84783153 -0.89088798
v 1.99719126 1.57599155 0.23398467
v 1.99872286 1.55759029 -0.89567137
v 1.99900419 1.67864363 -0.89484043
v 2.00025744 1.80464606 -0.89167190
v 1.99649770 1.93969063 -0.89720631
v 1.99587793 1.99899225 -0.72956736
v 2.00039393 1.97376398 -0.67796839
v 2.00051136 1.98761253 0.10935947
v 2.00213665 -1.87206610 -0.73557491
v 2.00123126 -1.85746368 -0.45238832
v 2.00142688 -1.94381042 0.39544889
v 2.00182492 -1.94687565 0.62728595
v 2.00124175 -1.91022869 0.06270116
v 2.00024147 -1.73949702 -0.10480587
v 2.00014288 -1.75817986 0.14958473
v 2.00024957 -1.74150344 0.41326290
v 2.00180478 -1.67643614 0.64854228
v 1.99985702 -1.58296033 -0.32569186
v 2.00081474 -1.63282593 -0.74377877
v 1.99984927 -1.48936935 0.09216175
v 2.00043816 -1.53864785 0.46865877
v 2.00108463 -1.40869995 -0.75143153
v 1.99993653 -1.41694601 -0.49909545
v 1.99991233 -1.35077198 -0.16338416
v 2.00207312 -1.35139831 0.54530954
v 1.99992187 -1.27639599 -0.34139234
v 1.99995501 -1.28150447 0.27217125
v 2.00010628 -1.19783791 -0.62920678
v 2.00162155 -1.23447498 -0.87411833
v 1.99992735 -1.17533996 -0.01059945
v 2.00052125 -1.10090293 0.41767531
v 1.99992198 -0.96808882 -0.39977775
v 2.00003774 -1.14829316 -0.88913263
v 1.99990148 -0.99122240 0.06983709
v 1.99995679 -1.05740370 -0.21935568
v 2.00295348 -1.01647379 0.57932066
v 2.00121970 -0.89601066 -0.81370807
v 2.00004525 -0.89564677 -0.61906374
v 2.00210363 -0.83694001 0.48618683
v 1.99995739 -0.85243495 -0.17144515
v 2.00008828 -0.83842846 0.25363609
v 1.99991114 -0.64491825 -0.00316660
v 2.00001294 -0.63138177 -0.51765752
v 1.99994797 -0.56964173 -0.29928870
v 2.00097568 -0.54664515 -0.76935918
v 2.00027556 -0.57397379 0.29484957
v 2.00328440 -0.57963391 0.51594608
v 2.00012989 -0.37096920 -0.62558687
v 1.99992806 -0.39213602 -0.12934779
v 1.99994010 -0.37990421 0.08908855
v 2.00103981 -0.33144825 0.30169594
v 2.00107283 -0.33342463 -0.84608019
v 1.99993450 -0.13691420 -0.43243364
v 1.99995298 -0.23131471 -0.22482166
v 1.99996001 -0.13716114 0.08928958
v 2.00068326 -0.14460330 -0.76025040
v 2.00149948 -0.14132101 0.37793439
v 1.99994785 -0.01280810 -0.15183700
v 2.00011761 0.11292796 -0.60060740
v 1.99997742 0.14100097 0.07896962
v 2.00111181 0.12437884 0.35905215
v 1.99993784 0.15774335 -0.29483152
v 2.00288100 0.25048534 -0.85096545
v 1.99988861 0.37582259 -0.35582150
v 1.99992437 0.34237615 -0.02961756
v 2.00046677 0.34776722 -0.68373740
v 2.00025315 0.42354296 0.18302063
v 2.00185639 0.43221591 0.35774719
v 2.00154466 0.51208643 -0.79148424
v 1.99990661 0.61647276 -0.46427128
v 1.99991936 0.50397764 -0.17688376
v 1.99994130 0.69374166 -0.03031085
v 2.00142581 0.69990717 0.23773106
v 2.00150234 0.70957754 -0.80882896
v 1.99989373 0.83364634 -0.26245261
v 2.00069696 0.66959993 -0.88898296
v 1.99995143 0.83826033 -0.53582872
v 2.00106186 0.99316220 0.13722011
v 2.00123507 0.94791154 -0.79656631
v 1.99992544 1.01650111 -0.08351594
v 2.00046176 0.90357475 -0.89332313
v 1.99988706 1.14164714 -0.35224957
v 2.00103325 0.95729248 -0.88750750
v 2.00010616 1.08839766 -0.61499966
v 2.00123615 1.11764459 -0.83330477
v 2.00088365 1.25821440 0.15241584
v 1.99976451 1.43393103 -0.17449752
v 2.00088531 1.34938125 -0.79848093
v 1.99989254 1.47209732 -0.49890191
v 2.00066263 1.54195039 0.05450460
v 2.00325520 1.50163059 0.21483234
v 2.00093455 1.60384111 -0.73915548
v 2.00045890 1.83148937 -0.51983870
v 2.00027437 1.77238802 -0.28323258
v 2.00172467 1.83621077 0.02119403
v 2.00145788 1.94957785 -0.30896426
v 2.00267095 1.95403103 -0.84546436
f 474 410 460
f 699 666 643
f 45 44 42
f 552 537 544
f 537 500 490
f 931 926 927
f 791 706 746
f 660 625 617
f 862 813 847
f 338 291 320
f 28 20 26
f 850 855 812
f 150 132 156
f 1125 1035 1036
f 72 71 67
f 1108 1110 1115
f 411 372 407
f 535 464 517
f 1039 984 978
f 662 648 586
f 111 41 95
f 418 348 374
f 141 96 119
f 110 89 156
f 720 674 667
f 1034 963 958
f 157 101 135
f 347 304 283
f 286 230 277
f 295 212 288
f 321 285 296
f 890 899 856
f 774 759 780
f 917 853 852
f 543 526 542
f 14 11 9
f 857 825 835
f 56 58 54
f 963 921 958
f 755 750 715
f 202 182 177
f 336 321 371
f 65 63 60
f 1002 970 966
f 972 920 908
f 177 137 166
f 420 447 470
f 558 494 480
f 592 521 591
f 85 83 12
f 969 950 955
f 668 640 674
f 9 11 7
f 520 529 580
f 1038 973 936
f 553 495 507
f 580 594 620
f 509 475 487
f 299 319 231
f 184 131 149
f 206 173 176
f 281 246 280
f 42 39 38
f 638 619 642
f 1088 1082 1087
f 1077 1076 1081
f 264 263 209
f 938 949 858
f 238 228 235
f 109 30 31
f 55 52 53
f 80 4 3
f 9 7 4
f 313 286 339
f 653 608 601
f 701 654 651
f 825 772 835
f 879 837 795
f 566 543 542
f 489 457 423
f 507 486 511
f 708 676 727
f 752 706 791
f 1076 1071 1078
f 204 198 228
f 409 391 360
f 344 294 323
f 924 899 910
f 982 962 944
f 733 664 728
f 128 78 107
f 537 490 527
f 528 489 499
f 790 739 816
f 274 239 269
f 1084 1083 1088
f 764 842 798
f 1019 1072 1080
f 71 69 63
f 326 314 309
f 351 343 392
f 1009 979 1012
f 516 482 414
f 898 865 875
f 142 169 113
f 254 179 180
f 145 133 150
f 995 1040 978
f 789 719 808
f 407 358 430
f 348 330 355
f 897 870 823
f 1039 1130 984
f 253 226 199
f 335 330 348
f 421 418 453
f 925 916 924
f 1107 1032 1033
f 280 246 243
f 665 616 683
f 849 829 885
f 230 201 185
f 973 944 936
f 88 19 117
f 830 810 859
f 416 368 308
f 767 743 802
f 1124 1119 1123
f 401 354 371
f 387 428 349
f 384 334 394
f 171 134 145
f 32 25 89
f 543 516 526
f 393 395 319
f 616 622 664
f 505 439 455
f 672 677 602
f 573 496 564
f 38 34 33
f 624 616 665
f 1056 1052 1055
f 167 182 202
f 156 132 110
f 1031 1106 993
f 901 883 841
f 1041 1128 996
f 728 717 762
f 241 260 275
f 1011 940 998
f 699 643 704
f 1109 1102 1030
f 1105 1104 1108
f 441 426 491
f 573 547 496
f 102 59 101
f 969 955 954
f 274 269 317
f 170 209 142
f 128 107 139
f 443 410 474
f 346 337 365
f 83 116 81
f 923 879 815
f 90 131 87
f 794 742 789
f 1053 1047 1051
f 942 887 933
f 657 688 633
f 1099 1092 1096
f 967 965 1006
f 413 385 331
f 1112 1107 1033
f 558 590 530
f 66 68 64
f 700 632 679
f 6 8 1
f 954 947 921
f 1108 1103 1110
f 865 844 875
f 140 129 81
f 1083 1079 1075
f 125 86 84
f 763 730 769
f 868 845 750
f 6 3 7
f 643 673 704
f 1105 1108 1113
f 1005 1033 946
f 535 492 464
f 19 18 13
f 983 954 963
f 490 456 483
f 321 296 328
f 991 960 949
f 1015 957 976
f 872 784 880
f 267 258 316
f 932 926 931
f 388 328 400
f 218 213 190
f 610 601 550
f 953 915 948
f 1109 1030 981
f 1008 1006 1119
f 680 668 716
f 976 945 895
f 893 866 865
f 762 717 770
f 1045 1044 1049
f 227 237 195
f 889 843 782
f 692 624 689
f 1072 1069 1064
f 1003 1090 1094
f 364 337 359
f 998 975 997
f 771 732 688
f 727 676 675
f 91 109 31
f 607 606 641
f 362 382 340
f 296 257 281
f 333 325 369
f 884 866 893
f 303 265 252
f 745 703 669
f 135 97 134
f 584 593 616
f 439 356 370
f 23 24 21
f 244 254 180
f 75 76 71
f 98 43 48
f 156 162 203
f 212 241 288
f 455 439 370
f 671 635 625
f 265 264 219
f 1045 985 1044
f 293 221 216
f 595 571 538
f 982 1007 962
f 216 220 259
f 627 531 651
f 423 380 363
f 386 347 335
f 373 313 339
f 1002 1069 1072
f 1007 946 962
f 605 654 696
f 1014 1012 957
f 105 70 127
f 266 240 224
f 431 376 380
f 761 745 721
f 442 390 391
f 458 445 488
f 127 70 126
f 44 43 39
f 230 185 240
f 707 684 635
f 722 797 725
f 893 865 898
f 1118 1112 1005
f 698 628 690
f 179 178 141
f 919 986 987
f 857 835 905
f 996 1128 1129
f 750 714 650
f 715 650 645
f 63 62 58
f 601 551 534
f 846 821 856
f 1046 1044 998
f 223 140 183
f 1129 1127 1126
f 66 64 62
f 1063 1053 1057
f 931 913 919
f 117 86 125
f 554 521 592
f 664 630 659
f 889 930 843
f 325 332 369
f 325 302 310
f 733 728 783
f 255 239 274
f 273 254 244
f 996 995 923
f 444 463 428
f 374 355 345
f 778 718 757
f 977 942 933
f 558 530 494
f 6 2 3
f 330 314 326
f 380 329 297
f 240 185 224
f 541 526 532
f 290 227 250
f 414 333 399
f 988 972 960
f 261 212 295
f 13 9 10
f 453 436 467
f 476 433 479
f 1078 1020 1021
f 216 221 206
f 784 736 767
f 1071 1061 1070
f 416 452 368
f 473 477 438
f 334 287 361
f 1120 1115 1122
f 872 785 784
f 266 224 255
f 600 559 536
f 563 510 504
f 952 885 951
f 565 518 533
f 553 507 539
f 910 899 890
f 159 143 185
f 360 391 320
f 534 487 488
f 246 203 215
f 484 464 390
f 92 91 35
f 419 335 421
f 560 589 519
f 764 798 735
f 422 357 375
f 264 209 219
f 470 447 504
f 957 889 873
f 159 139 143
f 741 699 704
f 858 805 863
f 712 709 749
f 315 280 302
f 322 267 316
f 197 155 199
f 800 844 865
f 906 875 874
f 1087 1082 1077
f 840 897 823
f 1115 1110 1117
f 944 903 876
f 1121 982 1035
f 1106 1100 1105
f 351 312 343
f 429 388 400
f 505 508 439
f 445 411 407
f 896 891 869
f 1041 950 983
f 290 284 227
f 280 242 302
f 318 255 274
f 498 463 444
f 293 259 313
f 377 294 344
f 778 757 788
f 614 568 571
f 258 282 316
f 817 786 776
f 1003 964 942
f 714 713 626
f 291 298 263
f 632 597 598
f 437 363 379
f 101 112 135
f 591 521 599
f 642 619 631
f 30 27 28
f 181 135 171
f 659 694 717
f 934 882 888
f 988 1070 1066
f 1027 1026 939
f 406 352 386
f 1034 1124 994
f 894 849 952
f 463 455 427
f 452 465 393
f 833 812 804
f 875 844 828
f 783 728 762
f 431 425 376
f 1052 1042 1014
f 438 477 417
f 631 567 628
f 112 49 97
f 522 471 554
f 163 100 113
f 534 488 550
f 258 204 238
f 63 69 66
f 596 575 611
f 1086 1081 1089
f 576 495 553
f 1044 985 1011
f 549 565 622
f 432 403 389
f 896 846 899
f 685 673 642
f 557 520 575
f 58 57 54
f 832 775 790
f 744 761 721
f 672 602 614
f 315 302 333
f 108 116 85
f 563 513 510
f 126 102 153
f 978 968 922
f 339 312 351
f 588 542 607
f 980 948 918
f 1073 1065 1077
f 866 800 865
f 203 162 215
f 184 195 131
f 485 484 409
f 896 869 846
f 557 504 520
f 481 453 497
f 983 963 994
f 349 290 306
f 1015 1014 957
f 144 149 118
f 30 90 27
f 983 950 969
f 1065 1059 1061
f 905 835 900
f 1044 1011 998
f 434 433 476
f 1122 1117 1121
f 1100 1093 1098
f 840 823 787
f 927 910 913
f 1047 997 1043
f 772 824 835
f 456 426 415
f 704 673 685
f 134 97 111
f 191 145 150
f 1129 1126 995
f 106 104 73
f 478 419 471
f 175 227 184
f 1086 1089 1092
f 217 174 186
f 883 939 863
f 424 384 394
f 230 240 266
f 933 932 970
f 977 1023 1090
f 465 395 393
f 864 809 882
f 32 23 25
f 832 816 907
f 215 234 243
f 719 699 741
f 28 27 20
f 756 731 777
f 557 575 596
f 1093 1088 1091
f 923 922 879
f 520 476 479
f 324 232 340
f 375 315 333
f 978 984 968
f 253 261 283
f 578 515 559
f 549 488 518
f 275 245 300
f 1018 966 989
f 912 864 934
f 1018 989 1069
f 782 760 701
f 860 819 830
f 99 55 53
f 546 495 576
f 208 205 248
f 944 876 871
f 384 300 334
f 666 596 611
f 1116 1112 1114
f 376 387 353
f 662 693 648
f 881 833 838
f 862 847 891
f 404 361 383
f 183 116 154
f 718 726 757
f 83 8 12
f 347 352 304
f 877 904 911
f 54 51 47
f 758 749 799
f 513 558 480
f 854 802 886
f 533 516 543
f 502 460 454
f 661 605 705
f 532 514 540
f 552 544 567
f 996 1129 995
f 263 249 196
f 352 332 304
f 591 599 613
f 175 149 144
f 288 275 314
f 775 743 667
f 286 277 312
f 851 862 891
f 742 679 719
f 197 199 226
f 302 242 310
f 169 163 113
f 635 623 589
f 726 752 772
f 521 573 599
f 425 387 376
f 628 618 690
f 958 929 967
f 291 350 298
f 56 54 52
f 659 634 647
f 980 918 985
f 1124 1123 1128
f 1048 1044 1046
f 663 641 670
f 625 635 589
f 575 580 611
f 1119 1113 1120
f 532 502 514
f 333 302 325
f 746 733 783
f 548 477 473
f 940 886 907
f 600 633 578
f 989 1001 1069
f 643 611 620
f 108 85 15
f 1061 1055 1062
f 903 892 831
f 581 577 555
f 808 774 820
f 821 822 786
f 705 696 747
f 864 852 778
f 612 546 576
f 678 666 719
f 433 462 479
f 518 565 549
f 867 878 921
f 955 914 947
f 94 92 40
f 487 446 458
f 97 46 41
f 1092 1089 1026
f 210 177 245
f 1033 981 946
f 940 909 886
f 895 873 839
f 619 579 567
f 1059 1057 1051
f 313 259 286
f 345 309 300
f 614 602 568
f 1028 964 1003
f 1064 1060 1067
f 334 300 271
f 63 58 60
f 728 664 659
f 179 141 119
f 835 824 877
f 1081 1078 1085
f 719 741 774
f 491 500 545
f 162 89 155
f 737 698 690
f 806 690 779
f 562 525 530
f 1038 936 974
f 19 21 18
f 143 105 127
f 301 232 223
f 913 890 881
f 911 925 926
f 1051 1047 1043
f 1024 1085 991
f 272 311 251
f 149 109 118
f 656 592 680
f 767 720 743
f 947 861 867
f 943 928 935
f 629 576 605
f 544 551 587
f 870 895 796
f 113 100 57
f 904 851 891
f 315 281 280
f 951 930 979
f 95 36 93
f 377 308 294
f 330 288 314
f 833 850 812
f 809 788 825
f 23 21 19
f 135 112 97
f 824 752 848
f 242 234 226
f 559 515 498
f 956 909 940
f 475 432 446
f 189 125 167
f 610 584 624
f 331 268 305
f 585 564 612
f 579 545 552
f 630 566 634
f 408 398 441
f 216 176 220
f 511 486 468
f 218 190 178
f 575 520 580
f 829 747 760
f 880 784 854
f 356 378 305
f 1042 1012 1014
f 953 872 915
f 562 582 525
f 199 189 212
f 786 751 776
f 148 87 131
f 525 538 485
f 658 691 614
f 14 16 11
f 95 41 36
f 179 218 178
f 440 437 379
f 251 262 218
f 880 854 918
f 831 842 764
f 194 183 154
f 725 729 657
f 62 61 57
f 270 222 217
f 1051 1052 1056
f 83 81 8
f 1093 1091 1095
f 547 497 496
f 586 606 556
f 398 381 415
f 750 845 754
f 903 946 892
f 475 446 487
f 620 594 638
f 565 533 566
f 801 691 753
f 268 236 194
f 395 409 360
f 824 848 877
f 562 626 582
f 647 588 607
f 660 735 671
f 496 501 564
f 989 931 1001
f 461 429 422
f 395 360 319
f 758 712 749
f 618 587 608
f 247 203 257
f 231 252 172
f 355 330 326
f 732 748 681
f 831 764 765
f 970 932 966
f 178 138 141
f 1062 1055 1016
f 734 768 810
f 849 781 747
f 191 150 207
f 258 238 282
f 932 900 926
f 913 838 919
f 513 480 459
f 372 354 401
f 770 756 792
f 751 693 703
f 961 883 901
f 1095 1091 1086
f 694 659 647
f 307 297 249
f 1010 952 951
f 832 790 816
f 566 588 634
f 54 47 52
f 556 540 574
f 777 731 751
f 126 65 102
f 523 536 503
f 420 377 344
f 941 953 999
f 444 428 387
f 612 564 546
f 385 362 289
f 654 627 651
f 589 570 523
f 619 567 631
f 185 192 224
f 598 513 583
f 1017 919 987
f 582 658 595
f 1053 1048 1047
f 725 787 729
f 483 451 475
f 36 33 32
f 933 887 905
f 1104 1098 1097
f 891 847 869
f 79 77 76
f 821 786 817
f 93 32 110
f 241 210 260
f 1105 1098 1104
f 76 77 74
f 650 714 626
f 235 191 207
f 283 295 347
f 21 22 16
f 959 912 993
f 538 484 485
f 533 543 566
f 1112 1116 1005
f 445 407 430
f 915 872 880
f 29 26 24
f 276 285 321
f 604 632 598
f 754 811 753
f 107 72 105
f 874 830 859
f 742 766 700
f 150 95 132
f 518 482 533
f 985 956 1011
f 792 756 822
f 1037 1036 973
f 365 337 364
f 144 118 92
f 468 448 417
f 441 398 426
f 187 153 164
f 459 416 435
f 1060 1054 1053
f 858 908 840
f 929 893 928
f 200 187 239
f 229 180 168
f 452 393 368
f 1002 1018 1069
f 1128 1127 1129
f 746 683 733
f 253 199 261
f 494 452 416
f 11 8 6
f 275 260 245
f 236 183 194
f 871 876 801
f 914 923 815
f 301 340 232
f 890 855 850
f 1113 1108 1115
f 255 200 239
f 686 645 597
f 438 385 413
f 120 98 51
f 526 474 502
f 781 705 747
f 622 565 630
f 568 535 517
f 780 800 866
f 300 245 271
f 454 406 419
f 193 172 136
f 883 769 841
f 577 548 508
f 914 950 923
f 618 608 653
f 756 740 731
f 667 646 687
f 1023 1079 1084
f 935 917 912
f 545 500 552
f 505 555 508
f 343 292 318
f 84 82 124
f 687 661 705
f 39 40 37
f 564 501 546
f 387 306 353
f 187 164 208
f 637 655 609
f 657 600 623
f 697 665 706
f 689 624 665
f 51 98 48
f 130 5 80
f 666 611 643
f 1127 1122 1126
f 297 244 249
f 1076 1065 1071
f 282 238 276
f 237 194 195
f 1082 1075 1077
f 71 73 69
f 726 718 689
f 1094 1088 1093
f 1002 1072 1019
f 937 936 845
f 644 572 596
f 303 320 265
f 881 850 833
f 836 868 750
f 398 346 381
f 705 605 696
f 980 953 948
f 1069 1017 1064
f 430 358 388
f 1028 1003 1094
f 428 427 349
f 976 957 945
f 262 213 218
f 342 274 317
f 504 447 493
f 530 525 465
f 946 981 901
f 174 115 123
f 47 48 44
f 943 935 912
f 916 896 899
f 326 309 345
f 172 152 136
f 908 897 840
f 810 773 853
f 47 51 48
f 325 278 332
f 763 722 707
f 296 281 328
f 516 474 526
f 342 317 366
f 856 821 817
f 946 901 892
f 1104 1097 1103
f 11 15 12
f 925 911 904
f 22 17 16
f 198 145 191
f 814 783 813
f 656 680 702
f 918 854 909
f 296 247 257
f 814 813 862
f 32 33 23
f 785 716 784
f 603 651 531
f 900 911 926
f 879 922 837
f 128 139 173
f 234 197 226
f 368 393 319
f 757 726 772
f 189 167 202
f 742 719 789
f 324 270 232
f 867 808 878
f 690 618 708
f 1102 1029 1030
f 777 751 786
f 712 685 709
f 7 11 6
f 941 872 953
f 1073 1068 1065
f 796 748 732
f 269 248 279
f 82 5 130
f 1088 1083 1082
f 222 174 217
f 1001 1017 1069
f 764 735 672
f 166 115 174
f 602 677 617
f 1087 1077 1086
f 1092 1026 1096
f 1125 1122 1121
f 816 781 849
f 49 50 45
f 401 371 358
f 229 168 163
f 1120 1113 1115
f 988 920 972
f 289 362 301
f 1004 992 1101
f 798 769 735
f 79 75 78
f 247 207 203
f 1016 1055 1015
f 555 577 508
f 779 690 708
f 572 504 557
f 594 579 619
f 719 666 699
f 547 521 497
f 975 940 894
f 189 210 241
f 815 795 738
f 291 263 264
f 248 233 267
f 479 469 529
f 1106 1101 1100
f 759 704 712
f 181 204 233
f 627 539 531
f 193 231 172
f 304 278 283
f 872 838 785
f 815 738 766
f 36 38 33
f 526 502 532
f 25 23 19
f 927 913 931
f 119 96 43
f 331 289 268
f 375 357 315
f 383 340 382
f 457 444 425
f 520 479 529
f 450 394 404
f 37 35 34
f 346 317 279
f 15 85 12
f 921 878 884
f 958 884 929
f 407 401 358
f 482 461 422
f 109 131 90
f 876 826 801
f 369 397 410
f 866 820 780
f 69 68 66
f 925 904 916
f 584 549 593
f 219 209 170
f 807 806 828
f 419 386 335
f 1121 1007 982
f 1017 1058 1064
f 413 331 378
f 124 82 130
f 727 675 734
f 21 24 22
f 997 952 1010
f 421 335 418
f 385 417 362
f 722 725 657
f 724 782 701
f 791 746 814
f 482 516 533
f 422 375 414
f 1098 1095 1097
f 59 56 55
f 1103 1099 1102
f 62 57 58
f 772 752 824
f 587 551 608
f 327 305 284
f 834 792 822
f 372 322 354
f 480 494 416
f 968 937 836
f 917 852 912
f 137 80 115
f 1127 1120 1122
f 50 47 45
f 414 375 333
f 318 274 342
f 1090 1084 1088
f 464 440 390
f 27 87 20
f 80 3 115
f 732 682 688
f 1123 1120 1128
f 323 293 313
f 417 382 362
f 952 849 885
f 344 313 373
f 405 342 408
f 376 353 311
f 1098 1093 1095
f 694 647 663
f 115 3 2
f 276 235 285
f 580 529 569
f 339 351 396
f 150 156 207
f 449 466 486
f 617 625 528
f 951 885 930
f 1012 979 957
f 409 442 391
f 590 650 562
f 578 581 515
f 1128 1120 1127
f 21 16 14
f 529 469 524
f 1006 1111 1119
f 551 509 534
f 697 706 752
f 990 1019 1080
f 652 662 586
f 544 527 551
f 350 379 298
f 347 295 335
f 251 218 179
f 335 295 330
f 570 600 536
f 836 750 755
f 1024 991 949
f 281 257 246
f 6 1 2
f 443 399 410
f 964 888 942
f 34 31 26
f 818 762 792
f 1081 1085 1089
f 134 111 145
f 470 459 420
f 460 397 454
f 1045 980 985
f 185 151 192
f 607 541 606
f 432 389 446
f 514 454 478
f 713 753 691
f 59 55 101
f 581 615 577
f 768 718 773
f 1083 1075 1082
f 292 255 318
f 554 471 481
f 730 671 735
f 451 415 432
f 349 341 290
f 1097 1092 1099
f 404 394 361
f 489 519 457
f 176 159 201
f 605 627 654
f 378 331 305
f 500 456 490
f 738 686 632
f 678 639 644
f 986 941 999
f 523 503 457
f 669 703 662
f 344 323 313
f 141 138 96
f 312 277 292
f 577 609 548
f 1060 1063 1067
f 389 359 372
f 884 893 929
f 512 511 468
f 580 569 594
f 995 1126 1040
f 617 528 602
f 357 281 315
f 886 832 907
f 605 553 539
f 960 972 908
f 682 615 633
f 88 117 155
f 847 834 869
f 717 694 740
f 133 95 150
f 507 449 486
f 739 705 781
f 308 368 299
f 406 386 419
f 453 467 497
f 269 208 248
f 1004 934 992
f 990 933 970
f 748 724 681
f 561 545 579
f 1030 961 981
f 33 29 23
f 10 4 5
f 803 827 724
f 742 700 679
f 294 225 221
f 216 259 293
f 600 578 559
f 860 830 874
f 1003 977 1090
f 703 693 662
f 360 303 319
f 646 585 612
f 160 123 147
f 885 843 930
f 1006 993 1111
f 446 411 458
f 680 591 668
f 1023 1084 1090
f 446 389 411
f 793 737 690
f 521 481 497
f 288 241 275
f 991 1021 960
f 813 818 847
f 107 78 75
f 688 682 633
f 1111 1105 1113
f 458 411 445
f 115 2 123
f 168 180 120
f 39 43 40
f 224 200 255
f 589 523 519
f 546 472 495
f 449 383 448
f 196 163 169
f 1048 1046 1047
f 913 910 890
f 744 702 716
f 902 859 853
f 155 117 158
f 345 384 424
f 53 52 50
f 297 329 273
f 136 104 106
f 206 221 165
f 794 815 766
f 423 457 431
f 1068 1059 1065
f 37 40 35
f 675 610 649
f 311 306 262
f 702 680 716
f 506 491 545
f 1095 1086 1092
f 920 895 870
f 105 67 70
f 621 592 656
f 501 424 472
f 1043 997 1010
f 433 405 462
f 86 13 84
f 1080 1079 1023
f 719 774 808
f 997 971 952
f 464 437 440
f 245 214 271
f 527 483 509
f 250 227 175
f 592 522 554
f 724 655 681
f 204 171 198
f 106 73 74
f 604 583 572
f 334 271 287
f 420 435 377
f 59 60 56
f 722 684 707
f 172 170 152
f 495 449 507
f 239 208 269
f 18 21 14
f 1053 1049 1048
f 751 703 745
f 294 308 225
f 941 838 872
f 1121 1117 1118
f 214 166 222
f 1008 1119 1124
f 356 305 327
f 779 708 727
f 591 613 636
f 755 715 686
f 1059 1051 1056
f 979 930 889
f 130 80 137
f 455 370 427
f 79 114 77
f 667 585 646
f 163 168 100
f 363 297 307
f 971 894 952
f 1022 1080 1023
f 886 802 832
f 1063 1059 1068
f 181 171 204
f 621 652 586
f 1074 1064 1067
f 81 129 1
f 676 601 610
f 560 519 489
f 290 250 262
f 883 863 769
f 927 924 910
f 780 758 800
f 574 586 556
f 756 786 822
f 1099 1096 1027
f 121 106 74
f 133 111 95
f 479 462 469
f 731 693 751
f 82 10 5
f 849 747 829
f 223 232 186
f 784 767 854
f 714 754 713
f 211 193 188
f 107 75 72
f 609 603 548
f 38 39 34
f 598 583 604
f 1061 1062 1066
f 655 603 609
f 67 63 65
f 994 963 1034
f 653 601 676
f 550 488 549
f 193 136 114
f 761 776 745
f 1055 1052 1015
f 1002 966 1018
f 1059 1056 1061
f 897 920 870
f 220 201 230
f 56 52 55
f 696 654 701
f 984 1038 974
f 682 681 615
f 750 754 714
f 1016 1015 976
f 807 749 793
f 417 448 382
f 893 898 928
f 826 903 831
f 254 251 179
f 939 938 863
f 1117 1112 1118
f 768 734 718
f 797 787 725
f 657 633 600
f 103 61 64
f 639 632 604
f 1036 1035 973
f 447 402 434
f 206 165 173
f 990 970 1019
f 687 612 661
f 181 157 135
f 220 176 201
f 109 90 30
f 955 950 914
f 379 363 298
f 400 328 357
f 477 512 468
f 949 960 858
f 515 455 463
f 815 879 795
f 137 124 130
f 484 517 464
f 41 42 36
f 670 641 648
f 647 607 663
f 477 468 417
f 567 544 587
f 235 207 247
f 828 806 819
f 935 902 917
f 915 880 918
f 170 142 103
f 49 45 46
f 672 735 677
f 29 34 26
f 1110 1103 1107
f 854 767 802
f 80 5 4
f 75 71 72
f 638 594 619
f 521 547 573
f 892 901 842
f 1094 1090 1088
f 390 338 391
f 986 999 1050
f 597 645 558
f 1097 1095 1092
f 644 596 666
f 595 614 571
f 738 632 700
f 985 918 956
f 675 649 692
f 114 74 77
f 917 902 853
f 961 939 883
f 427 370 349
f 540 478 522
f 603 531 512
f 337 279 322
f 639 572 644
f 392 343 367
f 530 465 452
f 345 300 384
f 98 119 43
f 623 600 570
f 947 867 921
f 1052 1014 1015
f 510 513 459
f 1125 1036 1037
f 367 318 342
f 34 35 31
f 259 220 286
f 217 186 232
f 1028 1094 1101
f 839 873 803
f 1011 956 940
f 924 916 899
f 346 279 337
f 1123 1119 1120
f 1058 1050 1054
f 836 937 868
f 135 134 171
f 1010 951 1009
f 353 306 311
f 237 268 194
f 271 214 222
f 691 658 713
f 493 434 476
f 445 429 461
f 284 305 268
f 359 322 372
f 632 686 597
f 961 1027 939
f 579 552 567
f 146 127 126
f 320 291 264
f 623 570 589
f 467 436 424
f 508 413 439
f 1020 988 960
f 1040 1125 1130
f 65 59 102
f 842 901 841
f 462 405 469
f 642 631 695
f 235 247 285
f 110 32 89
f 721 745 669
f 148 154 108
f 1050 1045 1049
f 864 778 809
f 512 531 511
f 227 195 184
f 919 941 986
f 1039 1040 1130
f 524 506 569
f 811 801 753
f 405 408 441
f 415 403 432
f 663 607 641
f 993 1106 1111
f 408 366 398
f 536 559 498
f 989 966 931
f 853 773 852
f 861 808 867
f 709 695 737
f 153 102 101
f 994 1124 1128
f 190 144 178
f 285 247 296
f 256 226 253
f 205 157 181
f 437 423 363
f 898 875 906
f 590 562 530
f 164 157 208
f 693 670 648
f 438 417 385
f 100 51 57
f 822 821 846
f 454 397 406
f 552 500 537
f 390 379 350
f 1096 1026 1027
f 494 530 452
f 53 49 112
f 634 588 647
f 224 192 200
f 420 402 447
f 983 969 954
f 192 146 200
f 540 541 532
f 778 788 809
f 1001 931 1017
f 636 613 585
f 396 351 412
f 270 217 232
f 626 658 582
f 153 101 164
f 286 220 230
f 125 84 124
f 845 871 811
f 621 574 592
f 645 590 558
f 320 264 265
f 336 282 276
f 568 602 535
f 658 614 595
f 894 816 849
f 734 675 692
f 926 925 927
f 738 795 686
f 178 144 138
f 243 234 242
f 362 340 301
f 863 805 769
f 827 782 724
f 643 620 638
f 239 187 208
f 392 367 405
f 816 739 781
f 695 628 698
f 370 356 327
f 338 350 291
f 974 937 968
f 934 888 964
f 649 624 692
f 208 157 205
f 981 961 901
f 238 204 228
f 48 43 44
f 516 414 443
f 1061 1066 1070
f 114 136 121
f 90 87 27
f 175 184 149
f 496 424 501
f 804 761 744
f 252 265 219
f 63 66 62
f 139 159 176
f 1034 958 1008
f 310 242 256
f 586 641 606
f 215 197 234
f 681 655 637
f 182 161 177
f 640 636 585
f 148 108 87
f 668 674 723
f 800 807 844
f 871 801 811
f 231 303 252
f 851 814 862
f 739 687 705
f 735 769 730
f 656 652 621
f 909 854 886
f 729 771 688
f 817 776 812
f 284 268 237
f 1085 1078 991
f 1030 1029 961
f 730 707 671
f 556 541 540
f 998 940 975
f 756 777 786
f 760 696 701
f 484 390 442
f 338 390 350
f 908 920 897
f 855 817 812
f 1032 1109 981
f 678 644 666
f 249 229 196
f 1110 1112 1117
f 945 873 895
f 691 711 614
f 615 637 577
f 161 137 177
f 368 319 299
f 1110 1107 1112
f 89 88 155
f 52 47 50
f 788 772 825
f 563 504 572
f 766 738 700
f 544 537 527
f 389 372 411
f 828 860 875
f 207 156 203
f 920 976 895
f 298 307 249
f 953 980 1013
f 138 144 94
f 92 35 40
f 593 549 622
f 881 890 850
f 994 1128 1041
f 252 219 172
f 816 894 907
f 472 394 450
f 528 499 492
f 287 222 270
f 209 196 169
f 669 662 652
f 932 931 966
f 261 199 212
f 278 253 283
f 730 763 707
f 1042 1010 1009
f 542 526 541
f 383 382 448
f 677 660 617
f 774 780 820
f 436 345 424
f 506 441 491
f 586 574 621
f 1038 1037 973
f 736 720 767
f 471 421 481
f 433 392 405
f 794 766 742
f 638 642 673
f 527 509 551
f 84 10 82
f 76 74 73
f 512 477 548
f 734 692 718
f 674 640 585
f 796 895 839
f 702 669 656
f 945 957 873
f 492 499 437
f 1075 1074 1067
f 349 370 341
f 139 107 105
f 123 129 147
f 874 859 902
f 332 278 304
f 295 288 330
f 86 19 13
f 343 318 367
f 779 727 819
f 1041 996 950
f 1066 1062 1000
f 93 36 32
f 1122 1115 1117
f 260 210 245
f 967 943 965
f 807 793 806
f 584 550 549
f 1130 1037 1038
f 228 198 191
f 1073 1067 1068
f 848 851 904
f 146 126 153
f 864 882 934
f 390 440 379
f 936 944 871
f 525 485 465
f 283 261 295
f 117 19 86
f 800 799 807
f 491 426 500
f 173 165 128
f 790 687 739
f 1075 1073 1077
f 299 231 211
f 1089 1085 1024
f 957 979 889
f 899 846 856
f 167 161 182
f 250 175 213
f 1102 1099 1029
f 833 785 838
f 605 539 627
f 419 421 471
f 592 591 680
f 830 727 734
f 814 746 783
f 835 877 900
f 803 724 748
f 453 418 436
f 770 740 756
f 29 24 23
f 796 839 803
f 89 25 88
f 875 860 874
f 1079 1072 1074
f 747 696 760
f 723 674 720
f 794 789 808
f 312 292 343
f 1057 1053 1051
f 1024 949 939
f 655 701 651
f 744 721 702
f 456 415 451
f 216 206 176
f 576 553 605
f 891 896 916
f 410 397 460
f 490 483 527
f 457 425 431
f 366 317 346
f 1101 1094 1100
f 1125 1037 1130
f 1118 1005 1007
f 954 921 963
f 314 275 309
f 289 301 223
f 929 928 943
f 386 352 347
f 950 996 923
f 188 114 122
f 801 765 691
f 740 710 731
f 933 905 932
f 11 12 8
f 1071 1070 1078
f 1054 1050 1049
f 151 146 192
f 363 380 297
f 329 272 273
f 472 424 394
f 737 695 698
f 948 915 918
f 26 31 28
f 174 123 160
f 762 770 792
f 377 416 308
f 820 866 884
f 613 599 585
f 310 256 278
f 515 505 455
f 372 401 407
f 45 47 44
f 615 581 633
f 947 914 861
f 1031 1004 1101
f 503 536 498
f 524 469 506
f 185 143 151
f 363 307 298
f 1086 1077 1081
f 635 684 623
f 100 120 51
f 572 557 596
f 988 1000 920
f 519 523 457
f 426 398 415
f 630 634 659
f 108 154 116
f 791 851 848
f 812 761 804
f 965 943 959
f 97 41 111
f 356 413 378
f 309 275 300
f 582 538 525
f 540 514 478
f 830 734 810
f 279 248 267
f 804 744 716
f 769 805 763
f 122 114 79
f 1046 997 1047
f 1033 1032 981
f 784 716 736
f 319 303 231
f 151 127 146
f 939 949 938
f 1122 1125 1126
f 125 124 167
f 451 432 475
f 759 712 758
f 620 611 580
f 189 158 125
f 449 450 404
f 795 837 755
f 445 430 429
f 1003 942 977
f 225 211 165
f 128 122 78
f 412 351 392
f 402 396 434
f 1062 1016 1000
f 167 124 161
f 888 825 887
f 877 911 900
f 18 14 9
f 585 573 564
f 414 399 443
f 499 489 423
f 713 658 626
f 1102 1109 1107
f 689 665 697
f 1116 1114 1005
f 449 448 466
f 248 205 233
f 329 311 272
f 683 664 733
f 660 671 625
f 574 522 592
f 667 687 775
f 812 776 761
f 1009 951 979
f 818 792 834
f 594 569 561
f 70 65 126
f 743 720 667
f 694 663 710
f 873 827 803
f 236 223 183
f 861 914 815
f 46 42 41
f 137 115 166
f 804 716 785
f 24 26 22
f 776 751 745
f 325 310 278
f 123 1 129
f 488 461 518
f 832 802 775
f 469 405 441
f 108 15 20
f 554 481 521
f 199 155 158
f 726 689 697
f 75 79 76
f 381 365 403
f 122 79 78
f 1130 1038 984
f 724 701 655
f 354 322 316
f 607 542 541
f 140 147 129
f 118 109 91
f 497 467 496
f 510 470 504
f 870 796 823
f 46 45 42
f 847 818 834
f 598 597 513
f 788 757 772
f 683 616 664
f 841 798 842
f 180 179 119
f 354 336 371
f 913 881 838
f 510 459 470
f 344 373 402
f 806 779 819
f 1060 1053 1063
f 116 140 81
f 221 225 165
f 190 175 144
f 1007 1005 946
f 928 906 935
f 1076 1077 1065
f 1099 1027 1029
f 671 707 635
f 367 342 405
f 765 764 672
f 228 191 235
f 189 202 210
f 840 787 797
f 44 39 42
f 679 632 639
f 111 133 145
f 439 413 356
f 430 388 429
f 759 758 780
f 331 385 289
f 197 162 155
f 787 823 771
f 1066 1000 988
f 195 148 131
f 249 244 229
f 529 524 569
f 588 566 542
f 33 34 29
f 369 332 352
f 625 589 560
f 17 15 11
f 53 50 49
f 771 796 732
f 583 513 563
f 773 718 778
f 308 299 225
f 992 1028 1101
f 17 20 15
f 246 215 243
f 709 642 695
f 1064 1058 1060
f 927 925 924
f 1067 1063 1068
f 410 399 369
f 493 476 520
f 322 279 267
f 152 170 103
f 173 139 176
f 1111 1106 1105
f 503 498 444
f 710 670 731
f 284 237 227
f 1078 1070 1020
f 773 778 852
f 199 158 189
f 1112 1033 1114
f 904 891 916
f 400 357 422
f 434 396 412
f 704 685 712
f 499 423 437
f 294 221 293
f 993 912 1031
f 94 144 92
f 691 765 711
f 464 492 437
f 922 836 837
f 793 690 806
f 502 454 514
f 434 412 433
f 710 663 670
f 1125 1121 1035
f 819 727 830
f 321 328 358
f 905 900 932
f 61 113 57
f 7 3 4
f 223 186 140
f 752 726 697
f 546 501 472
f 1094 1093 1100
f 962 946 903
f 1119 1111 1113
f 679 639 678
f 787 771 729
f 26 20 17
f 515 555 505
f 732 681 682
f 922 968 836
f 361 287 324
f 1063 1057 1059
f 823 796 771
f 571 568 517
f 1054 1049 1053
f 209 263 196
f 650 626 562
f 65 60 59
f 1006 959 993
f 679 678 719
f 383 324 340
f 774 741 759
f 391 338 320
f 278 256 253
f 211 231 193
f 601 534 550
f 581 555 515
f 387 349 306
f 973 982 944
f 496 467 424
f 1075 1067 1073
f 561 506 545
f 827 889 782
f 42 38 36
f 88 25 19
f 450 449 495
f 209 169 142
f 138 94 96
f 420 344 402
f 132 93 110
f 637 609 577
f 1000 1016 920
f 1103 1102 1107
f 257 203 246
f 418 335 348
f 210 202 177
f 586 648 641
f 39 37 34
f 500 426 456
f 708 653 676
f 858 840 797
f 481 421 453
f 195 194 148
f 594 561 579
f 540 522 574
f 937 845 868
f 215 162 197
f 371 321 358
f 482 422 414
f 591 640 668
f 855 856 817
f 402 373 339
f 73 104 69
f 118 91 92
f 488 445 461
f 1025 1024 939
f 294 293 323
f 628 587 618
f 70 67 65
f 1023 977 933
f 888 809 825
f 754 845 811
f 1056 1055 1061
f 339 286 312
f 84 13 10
f 1076 1078 1081
f 1049 1044 1048
f 468 466 448
f 834 822 846
f 238 235 276
f 435 416 377
f 548 473 508
f 160 147 186
f 87 108 20
f 380 376 329
f 415 381 403
f 328 281 357
f 403 364 389
f 465 485 395
f 716 723 736
f 149 131 109
f 297 273 244
f 194 154 148
f 921 884 958
f 936 871 845
f 796 803 748
f 1008 967 1006
f 143 127 151
f 71 76 73
f 708 618 653
f 656 669 652
f 887 825 857
f 495 472 450
f 142 113 103
f 423 431 380
f 801 826 765
f 272 251 254
f 1042 1009 1012
f 329 376 311
f 878 820 884
f 938 858 863
f 256 242 226
f 355 326 345
f 906 874 902
f 18 9 13
f 599 573 585
f 813 762 818
f 591 636 640
f 16 17 11
f 602 528 535
f 245 177 214
f 715 750 650
f 999 953 1013
f 205 181 233
f 60 58 56
f 96 40 43
f 1020 1070 988
f 1022 990 1080
f 570 536 523
f 121 136 106
f 1121 1118 1007
f 729 688 657
f 1008 958 967
f 535 528 492
f 456 451 483
f 267 233 258
f 706 665 683
f 655 651 603
f 1013 980 1045
f 114 121 74
f 336 276 321
f 200 146 187
f 1114 1033 1005
f 348 355 374
f 935 906 902
f 214 177 166
f 565 566 630
f 631 628 695
f 436 374 345
f 364 359 389
f 152 104 136
f 944 962 903
f 731 670 693
f 1031 912 1004
f 861 815 794
f 487 458 488
f 165 188 122
f 522 478 471
f 918 909 956
f 212 189 241
f 518 461 482
f 711 672 614
f 841 769 798
f 394 334 361
f 805 722 763
f 354 316 336
f 1006 965 959
f 1072 1064 1074
f 128 165 122
f 997 975 971
f 412 392 433
f 508 473 413
f 858 797 805
f 186 147 140
f 582 595 538
f 702 721 669
f 222 166 174
f 406 397 352
f 716 668 723
f 290 327 284
f 436 418 374
f 999 1013 1050
f 873 889 827
f 639 604 572
f 681 637 615
f 802 743 775
f 139 105 143
f 96 94 40
f 287 271 222
f 608 551 601
f 975 894 971
f 853 859 810
f 1084 1079 1083
f 101 55 99
f 800 758 799
f 395 485 409
f 258 233 204
f 213 175 190
f 706 683 746
f 995 978 922
f 10 9 4
f 168 120 100
f 684 657 623
f 625 560 528
f 898 906 928
f 1126 1125 1040
f 795 755 686
f 201 159 185
f 369 352 397
f 358 328 388
f 158 117 125
f 775 687 790
f 1031 1101 1106
f 486 466 468
f 409 484 442
f 123 2 1
f 478 454 419
f 91 31 35
f 740 694 710
f 633 581 578
f 919 838 941
f 152 103 104
f 1023 933 1022
f 741 704 759
f 1058 1054 1060
f 810 768 773
f 686 715 645
f 298 249 263
f 548 603 512
f 550 584 610
f 262 250 213
f 287 270 324
f 311 262 251
f 664 622 630
f 877 848 904
f 606 541 556
f 831 892 842
f 1091 1088 1087
f 987 1050 1058
f 1100 1098 1105
f 1008 1124 1034
f 1040 1039 978
f 95 93 132
f 366 346 398
f 365 364 403
f 359 337 322
f 612 576 629
f 402 339 396
f 188 193 114
f 104 68 69
f 567 587 628
f 1046 998 997
f 992 934 964
f 31 30 28
f 280 243 242
f 399 333 369
f 861 794 808
f 984 974 968
f 1089 1025 1026
f 317 269 279
f 507 511 531
f 882 809 888
f 463 427 428
f 728 659 717
f 513 597 558
f 1051 1043 1052
f 890 856 855
f 469 441 506
f 799 749 807
f 783 762 813
f 661 612 629
f 885 829 843
f 869 834 846
f 829 760 843
f 1029 1027 961
f 955 947 954
f 539 507 531
f 196 229 163
f 848 752 791
f 174 160 186
f 770 717 740
f 1103 1097 1099
f 1091 1087 1086
f 571 484 538
f 571 517 484
f 833 804 785
f 1016 976 920
f 408 342 366
f 837 836 755
f 828 819 860
f 219 170 172
f 991 1078 1021
f 844 807 828
f 120 119 98
f 826 831 765
f 1013 1045 1050
f 1079 1074 1075
f 303 360 320
f 782 843 760
f 793 749 737
f 509 487 534
f 429 400 422
f 940 907 894
f 1080 1072 1079
f 229 244 180
f 1025 939 1026
f 171 145 198
f 97 49 46
f 692 689 718
f 361 324 383
f 876 903 826
f 1108 1104 1103
f 480 416 459
f 1107 1109 1032
f 483 475 509
f 516 443 474
f 852 864 912
f 156 89 162
f 805 797 722
f 1017 931 919
f 967 929 943
f 277 230 266
f 67 71 63
f 104 103 68
f 225 299 211
f 649 610 624
f 273 272 254
f 268 289 236
f 425 444 387
f 736 723 720
f 583 563 572
f 146 153 187
f 62 64 61
f 103 64 68
f 306 290 262
f 404 383 449
f 502 474 460
f 569 506 561
f 677 735 660
f 754 753 713
f 316 282 336
f 674 585 667
f 942 888 887
f 661 629 605
f 54 57 51
f 1019 970 1002
f 791 814 851
f 960 908 858
f 498 515 463
f 987 986 1050
f 105 72 67
f 85 116 83
f 1022 933 990
f 381 346 365
f 685 642 709
f 370 327 341
f 675 676 610
f 164 101 157
f 1028 992 964
f 103 113 61
f 180 119 120
f 81 1 8
f 983 994 1041
f 341 327 290
f 236 289 223
f 528 560 489
f 101 99 112
f 643 638 673
f 1035 982 973
f 99 53 112
f 165 211 188
f 912 934 1004
f 1017 987 1058
f 646 612 687
f 1052 1043 1042
f 878 808 820
f 1043 1010 1042
f 711 765 672
f 183 140 116
f 473 438 413
f 593 622 616
f 887 857 905
f 1021 1020 960
f 459 435 420
f 974 936 937
f 503 444 457
f 447 434 493
f 645 650 590
f 959 943 912
f 292 266 255
f 684 722 657
f 624 584 616
f 749 709 737
f 1065 1061 1071
f 1025 1089 1024
f 22 26 17
f 277 266 292
f 161 124 137
f 504 493 520
f 923 995 922

