# https://github.com/mikedh/trimesh
v -1.99946393 -1.98470708 -0.90011248
v -1.99898995 -2.00005754 -0.78730819
v -2.00025643 -2.00101837 -0.40652326
v -1.99359025 -2.00471136 -0.16098988
v -2.00190509 -1.98745367 -0.10544557
v -2.00199569 -1.69505366 -0.52734724
v -2.00722469 -1.87455186 -0.18604093
v -2.00316204 -1.71609482 -0.83766327
v -1.99150909 -1.81147632 -0.90148673
v -1.98837651 -1.81067130 -0.11346945
v -2.00118626 -1.67647740 -0.13475048
v -2.00286521 -1.50480660 -0.20535690
v -1.99542178 -1.39680835 -0.15866010
v -1.99459375 -1.34545549 -0.89602265
v -2.00374640 -1.22435721 -0.76119712
v -2.00318588 -1.14976415 -0.34603867
v -1.99869717 -1.00930979 -0.88902191
v -1.99651588 -0.68597546 -0.23154685
v -2.00249542 -0.80696737 -0.77764342
v -1.99954618 -0.64270445 -0.89696840
v -2.00394786 -0.56106771 -0.34161672
v -2.00248445 -0.22418598 -0.63798795
v -2.00482119 -0.24995517 -0.85247872
v -1.98764123 -0.08160606 -0.90115771
v -1.99963726 -0.11975243 -0.29123235
v -2.00303043 0.02534309 -0.86651823
v -2.00324167 0.12468741 -0.43242604
v -1.99922622 0.32949803 -0.33275417
v -1.99405874 0.30387929 -0.89987883
v -2.00199212 0.45350626 -0.83512822
v -2.00238718 0.66070143 -0.55534140
v -1.99174226 0.55699888 -0.90103659
v -1.99931110 0.67869094 -0.36879924
v -1.99882306 0.91441909 -0.89980629
v -2.00430859 0.83570615 -0.83355001
v -1.99959577 0.88290134 -0.38909248
v -2.00310386 1.09973267 -0.47498232
v -2.00338257 1.53971747 -0.65783915
v -1.99315322 1.24979261 -0.42183257
v -1.99855031 1.45307139 -0.89948288
v -1.99949540 1.86329690 -0.48794490
v -1.93308724 1.88791052 -0.90398690
v -2.00205244 1.93147293 -0.89368210
v -2.00007022 2.00119534 -0.67432753
v -1.99667729 2.00182501 -0.89408002
v -1.98311842 1.99713436 -0.49444595
v -1.71126629 -2.00224432 -0.68357399
v -1.77919985 -2.00424155 -0.25848388
v -1.88408197 -1.99966499 -0.08530580
v -1.85235859 -1.48825344 -0.90354780
v -1.80025424 -1.49094364 -0.11825677
v -1.67745710 -1.08561334 -0.14022373
v -1.91429282 -1.00608191 -0.90264288
v -1.83728136 -0.45707722 -0.90278891
v -1.96319998 -0.27685592 -0.26217631
v -1.87739266 0.05625254 -0.90201941
v -1.84700943 0.03129480 -0.27753085
v -1.80367888 0.42129389 -0.31012088
v -1.80723620 0.54437402 -0.90220181
v -1.67689122 0.91367892 -0.34071470
v -1.79359604 1.58333364 -0.90183023
v -1.86738897 1.73109952 -0.45024544
v -1.73939634 2.00335041 -0.71220836
v -1.88954545 -2.00037929 -0.90008918
v -1.97022928 -1.97710046 -0.89641622
v -1.97910775 -1.99626836 -0.80447159
v -1.98005165 -1.99543663 -0.52594540
v -1.95838858 -1.99847826 -0.20415016
v -1.97690667 -1.96890577 -0.10639216
v -1.99605716 -1.88897451 -0.81532953
v -1.99742807 -1.83956107 -0.42295432
v -1.97938288 -1.73087176 -0.89447543
v -1.99109043 -1.79198190 -0.13274414
v -1.75356747 -1.76684281 -0.08442274
v -1.71656371 -1.90550443 -0.90385548
v -1.99871028 -1.49928555 -0.36613855
v -1.99811710 -1.62944159 -0.79086450
v -1.98497833 -1.51165828 -0.15152294
v -1.98451031 -1.43614027 -0.89357606
v -1.99632920 -1.37484488 -0.80566207
v -1.99790634 -1.04630747 -0.31773243
v -1.99260748 -1.05818018 -0.20591483
v -1.99896062 -1.08270231 -0.59658251
v -1.99409021 -1.11343249 -0.88274494
v -1.99785770 -0.86662396 -0.80518654
v -1.97608007 -0.72341135 -0.89338038
v -1.84593285 -0.69287526 -0.20505552
v -1.99967159 -0.58455941 -0.39013446
v -1.99838103 -0.55853648 -0.73243532
v -1.99377621 -0.57967576 -0.25307669
v -1.99478806 -0.22015556 -0.86913470
v -1.99844111 -0.23659066 -0.60080639
v -1.99289287 -0.27311667 -0.28076733
v -1.99647845 -0.16206085 -0.35291362
v -1.98075284 -0.08059784 -0.29549998
v -1.99893154 0.22848633 -0.57256386
v -1.99611867 0.07590241 -0.87553987
v -1.98366321 0.00265995 -0.30345461
v -1.99667705 0.06314293 -0.34177494
v -1.98158468 0.08331249 -0.31071303
v -1.98572482 0.20413939 -0.32333357
v -1.99599899 0.36624185 -0.36688197
v -1.96847535 0.38493929 -0.89650044
v -1.99816764 0.40170101 -0.76473067
v -1.98372544 0.31100849 -0.33228058
v -1.98775185 0.38557288 -0.34246299
v -1.98858083 0.45693341 -0.34801230
v -1.99566043 0.77432850 -0.87971136
v -1.98536647 0.54676322 -0.35727242
v -1.99717749 0.81604889 -0.47488740
v -1.99944724 0.80235008 -0.71928969
v -1.98716868 0.71372500 -0.37405011
v -1.93590892 0.80221907 -0.36403609
v -1.81346358 0.82888952 -0.35801176
v -1.98502863 0.96088019 -0.39847434
v -1.99897207 1.30883375 -0.65387771
v -1.99573673 1.18814925 -0.86055115
v -1.98534835 1.38731793 -0.44204629
v -1.82287479 1.18185190 -0.90212164
v -1.75414671 1.39220301 -0.40000156
v -1.99523915 1.53995136 -0.88065604
v -1.99809063 1.82743207 -0.74163655
v -1.99678625 1.76251522 -0.57095483
v -1.95014347 1.81609121 -0.47805646
v -1.98237027 1.88716165 -0.89328882
v -1.95274044 1.99459044 -0.51576716
v -1.98127283 1.99643126 -0.75351373
v -1.97437466 1.99801365 -0.87867359
v -1.81465281 2.00023023 -0.89367989
v -1.80243112 2.00137774 -0.47986621
v -1.80466665 -1.99791416 -0.63975951
v -1.86570717 -1.99848815 -0.44111383
v -1.80280007 -1.70812651 -0.10144905
v -1.87449850 -1.55926665 -0.89940557
v -1.83540441 -1.36743709 -0.14013846
v -1.88149501 -0.91806003 -0.19373362
v -1.90195919 -0.43230356 -0.24408672
v -1.89984489 -0.46034088 -0.89728675
v -1.91844309 -0.12946994 -0.89624468
v -1.85641683 -0.00950166 -0.27936048
v -1.88524390 0.32813159 -0.31790227
v -1.84890915 0.59642908 -0.33912665
v -1.91337658 1.19806174 -0.40852097
v -1.92301942 1.48030797 -0.43761608
v -1.69443525 1.94383207 -0.44147024
v -1.76182939 -1.99689445 -0.84225068
v -1.82714797 -1.21257320 -0.89837489
v -1.77299715 -0.83760410 -0.89867249
v -1.74307824 0.02933002 -0.89811138
v -1.68399800 0.37344680 -0.89836243
v -1.86678744 0.94919637 -0.89775208
v -1.82572282 1.62553206 -0.89777568
v -1.74475695 1.99607602 -0.88522825
v -1.82304610 1.99909297 -0.72313330
v -1.69787992 -1.99207028 -0.07224696
v -1.68610395 -1.98233363 -0.89443878
v -1.77739585 -1.85829720 -0.89980939
v -1.76148368 1.99722258 -0.52272913
v -1.60820354 1.81975714 -0.42483247
v -1.65278889 -0.44996895 -0.20448251
v -1.58750154 -1.10585108 -0.90194789
v -1.61843027 1.37171165 -0.38170365
v -1.81143321 1.99002591 -0.47981909
v -1.70388855 -0.39782219 -0.89842341
v -1.45932437 1.90135494 -0.90215931
v -1.77370311 -1.97330579 -0.06566766
v -1.72096313 0.19086197 -0.27871508
v -1.55639983 -0.11565873 -0.90190432
v -1.56291033 -0.73561409 -0.16185761
v -1.34101249 -0.48194545 -0.15014387
v -1.54003633 -2.00001070 -0.89674214
v -1.64498056 -1.99750504 -0.16283352
v -1.58429755 -1.85588798 -0.05426784
v -1.59813858 -1.10059109 -0.13350837
v -1.57333733 -0.20108217 -0.21791262
v -1.58914865 0.89419869 -0.89805743
v -1.43141855 -2.00269183 -0.27834255
v -1.38741971 -2.00065013 -0.01347826
v -1.62636162 -1.39061424 -0.89861700
v -1.55268456 1.00751022 -0.33555615
v -1.54805327 1.38422683 -0.89826426
v -1.45719017 1.99894682 -0.72571072
v -1.47736574 -1.38999185 -0.08450957
v -1.61144806 -0.23495435 -0.21633248
v -1.52409006 1.04010693 -0.90182796
v -1.44156898 1.47391656 -0.90213874
v -1.46993817 -1.86215695 -0.03267353
v -1.47308434 -0.60175010 -0.90192280
v -1.54023684 0.38964388 -0.27178556
v -1.54809202 -1.99861988 -0.41962803
v -1.52940715 -0.90735277 -0.89810232
v -1.50322939 -0.64313793 -0.89807883
v -1.39464344 1.06688729 -0.31400204
v -1.55973424 1.91906396 -0.89699248
v -1.67843927 1.97809831 -0.45856184
v -1.48903526 -1.16168138 -0.89791951
v -1.38941146 -1.41834411 -0.06476509
v -1.49949206 0.36790035 -0.90202061
v -1.55583383 0.66199401 -0.30117381
v -1.48807825 -1.99744424 -0.77544585
v -1.48899056 -0.08218732 -0.89800975
v -1.40121211 0.06774134 -0.21511212
v -1.46504081 1.77318159 -0.39491701
v -1.48697675 0.61158893 -0.89823082
v -1.32551719 1.99976603 -0.89621696
v -1.55162860 2.00071398 -0.44348884
v -1.51976777 -1.81461021 -0.89884976
v -1.50908447 1.97940937 -0.43044094
v -1.41997112 -1.58340260 -0.90199021
v -1.39967919 -0.34793148 -0.89808205
v -1.39554573 0.10368917 -0.22176157
v -1.40494944 -1.44981369 -0.89792094
v -1.40494586 1.99699465 -0.51858035
v -1.31761564 0.40676013 -0.23624513
v -1.31447769 0.73928836 -0.26903335
v -1.11061085 -0.32163226 -0.90188727
v -1.36455072 -1.99852869 -0.20492500
v -1.26475943 -0.19625598 -0.17144624
v -1.37005664 1.62270466 -0.36977053
v -1.24778665 1.68217841 -0.89863381
v -1.04711391 -0.74509155 -0.90191290
v -1.26071156 0.19862303 -0.89802710
v -1.15333093 0.77971378 -0.90191892
v -1.26059962 1.47851089 -0.33513400
v -1.27604331 -2.00225564 -0.75130383
v -1.22713543 -1.98095175 -0.89354036
v -1.27085067 -1.76521286 -0.89861378
v -1.40262211 -1.10863003 -0.11591808
v -1.19712318 -0.44156614 -0.13808522
v -1.21902443 0.73341468 -0.25810221
v -1.27060033 1.31622079 -0.32432226
v -1.29594625 1.98445502 -0.39940298
v -1.30295981 1.99776712 -0.39954430
v -1.28238035 2.00188557 -0.51112506
v -1.25766505 -1.77759096 -0.01342945
v -1.38124908 -1.19449833 -0.09538219
v -1.37287403 -0.83536806 -0.12256290
v -1.38859321 -0.85864159 -0.12691090
v -1.25031329 1.21882072 -0.89812807
v -1.33108903 -1.32529643 -0.08223497
v -1.21385730 -1.15781107 -0.90170643
v -1.27446724 -0.88063648 -0.89808575
v -1.27721478 1.06030277 -0.29958675
v -1.19640447 -1.89461299 -0.90281090
v -1.20291782 -1.99848315 -0.59333375
v -1.29873944 -1.99680647 -0.01285809
v -1.30022300 -1.08216413 -0.16458437
v -1.32137729 -1.00613525 -0.17277559
v -1.20378936 -0.55069063 -0.89809284
v -1.08988381 0.56884995 -0.89807144
v -1.36106611 1.99653784 -0.87322691
v -1.04254843 2.00430242 -0.79929957
v -1.23106123 -1.22558972 -0.17401100
v -1.21752299 0.47203234 -0.23171150
v -1.16027642 0.46329096 -0.90188900
v -1.13800813 0.14249698 -0.90184275
v -1.04759527 1.30646232 -0.90203426
v -1.21131338 1.87137190 -0.36997649
v -1.12890948 1.91457859 -0.89445505
v -1.16980065 -1.53058931 -0.89808497
v -1.26323355 -0.81362670 -0.16111353
v -1.22887422 -0.83034405 -0.19016214
v -1.10865654 0.27733222 -0.19551483
v -1.09496451 -1.99855181 -0.27344942
v -0.96864618 -1.54982110 -0.90189085
v -1.21502424 -1.44166967 -0.04173575
v -1.09911765 -0.21921976 -0.89802000
v -1.06788529 0.91715888 -0.89811132
v -1.04743684 -2.00278124 -0.15468519
v -1.17868055 -1.47143528 -0.03914986
v -1.12425245 -1.20959785 -0.89786861
v -1.27089966 -0.68423980 -0.12603160
v -1.09986652 1.61265198 -0.32816616
v -1.08017791 -1.99940630 -0.89549968
v -1.01013208 -1.72209414 0.02353518
v -1.18267859 -1.27712807 -0.15833702
v -1.11355377 -1.00415787 -0.24361076
v -1.07453204 1.99463240 -0.87793270
v -1.02049686 1.19285766 -0.27043876
v -0.96592129 1.99869815 -0.75540975
v -1.04019619 -1.99721202 -0.84391794
v -1.07613183 -1.99678263 0.00737618
v -1.11389638 -1.35934385 -0.14247705
v -1.19522227 -0.61486005 -0.11809824
v -1.05738867 1.74181405 -0.33050683
v -0.93424536 1.91166798 -0.32782075
v -1.00560940 1.99876300 -0.52778229
v -1.04288078 -0.63013240 -0.17292984
v -1.06848444 -0.65356457 -0.17801831
v -1.00933767 1.77539054 -0.90302691
v -1.08076740 -0.49421174 -0.11787586
v -0.97184361 -0.06293970 -0.14088827
v -1.02347399 1.13822535 -0.26936010
v -0.87971533 -2.00469777 -0.82966087
v -1.10549391 -0.93028000 -0.22842245
v -0.93665482 0.04253799 -0.14149836
v -0.96417059 -1.77849051 0.03084603
v -0.99423839 -1.14432522 -0.22816781
v -0.98813726 -0.79632306 -0.89801309
v -1.01495791 -1.41775998 -0.09362491
v -0.98117710 0.53233537 -0.19850473
v -1.04435195 1.99627939 -0.35784558
v -0.87958236 -2.00004658 0.06541332
v -1.03386951 2.00194732 -0.44625128
v -0.98530806 -1.15435913 -0.23303201
v -0.89054824 -0.32758436 -0.10323418
v -1.01848806 1.93439547 -0.34865696
v -0.94587720 1.99382797 -0.35488135
v -0.86728228 -2.00181386 -0.50692881
v -0.74660576 1.99955717 -0.89405391
v -0.93116690 -1.87858650 -0.89841423
v -0.92156268 -0.73817408 -0.23228583
v -0.86634440 -0.77940860 -0.23273164
v -0.84485264 -0.54252195 -0.89807848
v -0.93975837 -1.99728664 -0.00535643
v -0.93466629 -1.53847143 0.01171589
v -0.93179042 0.58590690 -0.20046370
v -0.88929088 1.39755181 -0.27504573
v -0.92473228 -1.53867122 0.00331495
v -0.91404034 -1.99801454 -0.46237970
v -0.86565829 -1.53968820 -0.89803538
v -0.67947216 -0.21361206 -0.89810655
v -0.87040413 0.78925303 -0.20746938
v -0.79972352 1.58445385 -0.89844892
v -0.88564439 -1.46943017 -0.06242976
v -0.79669435 -0.42924869 -0.18468401
v -0.75237120 -0.05228817 -0.90193084
v -0.84044958 0.17381004 -0.89808271
v -0.77148987 -1.99182531 -0.88592664
v -0.82132042 0.96965507 -0.22214276
v -0.87035395 1.22655788 -0.89811710
v -0.91669251 -1.32529774 -0.17029497
v -0.84041692 -1.15166917 -0.89801935
v -0.71388764 -1.99688241 -0.75037316
v -0.53628893 -1.78487655 -0.90231398
v -0.82826150 -1.04612741 -0.90185908
v -0.75124265 0.48103211 -0.90194831
v -0.67758752 1.60908178 -0.26429366
v -0.87138034 -0.93119022 -0.24469746
v -0.72981740 1.87837163 -0.29815737
v -0.71033622 0.27428171 -0.13190160
v -0.57668127 0.98812381 -0.89805952
v -0.69274534 -1.99245748 -0.90022841
v -0.67549283 -1.99800750 -0.25965457
v -0.74592514 -0.15232709 -0.10503351
v -0.77099408 0.97149638 -0.90189407
v -0.69568444 1.44786743 -0.24721706
v -0.68510611 2.00364390 -0.55070803
v -0.81192703 -1.99700936 -0.04818651
v -0.84746553 -1.27091512 -0.17063292
v -0.50541307 -1.33401218 -0.90198353
v -0.56006766 -0.27180429 -0.18124114
v -0.78055687 0.11856518 -0.13311586
v -0.80708773 0.40135369 -0.16392123
v -0.59917493 0.66845122 -0.89807055
v -0.69782574 1.99591270 -0.87658641
v -0.44055454 -1.86273893 0.12311756
v -0.78455956 -1.23828998 -0.17307994
v -0.65519441 1.33008090 -0.90191809
v -0.72987927 2.00085441 -0.31423900
v -0.77538169 -1.98309430 0.07634531
v -0.77057774 -1.41522583 -0.04938399
v -0.52793349 -0.69928482 -0.21753237
v -0.72221829 -0.91267696 -0.89799974
v -0.56312371 -1.53091249 0.07080901
v -0.59690441 -0.96941647 -0.18398473
v -0.61985363 -0.61344811 -0.23538933
v -0.53268416 -2.00185868 0.00677366
v -0.63541354 1.00262228 -0.19378929
v -0.66902472 -1.82554432 0.08099522
v -0.75796134 -1.58591351 0.04252194
v -0.68760545 -1.03194889 -0.20199633
v -0.64904733 1.98640338 -0.30149225
v -0.69735045 -1.47601184 0.03063033
v -0.58402533 -0.84676203 -0.90187106
v -0.55992789 -0.53271600 -0.90192011
v -0.74970014 0.69529394 -0.20343435
v -0.60680516 1.88321820 -0.89526829
v -0.66083587 -1.45290681 0.04316077
v -0.67623455 -1.37778362 -0.04205553
v -0.48319824 -1.11653486 -0.06988257
v -0.66547419 0.59469328 -0.19043796
v -0.61143691 1.28799287 -0.22259844
v -0.59400351 -1.85682353 -0.89783606
v -0.59600092 0.06423825 -0.89805761
v -0.58329327 0.76342467 -0.18090947
v -0.41581089 1.39962617 -0.89804235
v -0.46825073 1.63190452 -0.90199545
v -0.52210165 -1.99795279 -0.00941081
v -0.64580972 -1.28038665 -0.89808426
v -0.53915418 0.17213497 -0.90186623
v -0.62557406 0.40657583 -0.18336942
v -0.52739633 1.99590603 -0.39440558
v -0.54781390 -0.74384048 -0.22124738
v -0.65082539 0.20256344 -0.13019000
v -0.58206559 0.80615321 -0.18612478
v -0.57690699 -1.99832651 -0.53513483
v -0.52326925 -1.60756799 -0.89830014
v -0.51013351 -1.51539155 0.07335808
v -0.39860190 -0.81166950 -0.89806387
v -0.36099411 -0.46312677 -0.89813462
v -0.48032303 1.02294591 -0.17709332
v -0.33244629 -2.00197562 -0.26162705
v -0.39788873 -1.98304733 0.13372612
v -0.51856602 -0.19959432 -0.18026710
v -0.55044062 0.00230432 -0.09199357
v -0.52873982 0.26853821 -0.16619850
v -0.34191285 1.14296845 -0.90183452
v -0.51507540 1.89621035 -0.90451315
v -0.47697438 1.99806205 -0.65772614
v -0.34738419 0.48014084 -0.89808265
v -0.52079238 0.56697604 -0.19917941
v -0.44396983 -2.00357529 -0.69521228
v -0.50031752 -1.12239548 -0.08485540
v -0.43029056 -0.43718874 -0.21885962
v -0.44810964 0.16765872 -0.16947221
v -0.49298669 2.00476852 -0.79352555
v -0.50108821 -1.32855060 0.05318781
v -0.45844261 -0.85221657 -0.17599354
v -0.28554771 0.92000071 -0.13128785
v -0.46950693 -1.98826083 0.12710844
v -0.29893408 -1.97804436 -0.89459804
v -0.26693589 -0.19877751 -0.90197167
v -0.50574953 0.03067342 -0.11615027
v -0.41409333 -1.34604409 -0.89810726
v -0.33732770 0.69661788 -0.90180889
v -0.34167398 1.33522419 -0.18274379
v -0.39864294 1.99581376 -0.25808591
v -0.37150810 1.99678389 -0.88135019
v -0.34851108 2.00392762 -0.33073765
v -0.37908859 -1.99806758 -0.25681389
v -0.37847970 1.87963286 -0.24692063
v -0.22374914 -1.03823986 0.07154909
v -0.39436684 -1.11535027 -0.89813140
v -0.26807500 -0.15975143 -0.89809761
v -0.24139599 1.62988475 -0.20108268
v -0.27742795 1.73962656 -0.21353871
v -0.27202655 0.34416578 -0.18995059
v -0.18507222 -1.91877076 -0.90348038
v -0.37605126 -1.69419941 0.11169506
v -0.27806983 0.02800894 -0.17349536
v -0.28627200 -1.99883827 -0.52624336
v -0.26413144 -0.25460457 -0.21311495
v -0.13214409 0.15701005 -0.89811537
v -0.32744993 0.29949031 -0.20205282
v -0.19157071 0.38103375 -0.90197692
v -0.28926293 0.54199174 -0.17825932
v -0.32042177 0.81960777 -0.13666299
v -0.30202393 1.21853570 -0.16881389
v 0.06954723 1.91186443 -0.90267632
v -0.00573860 -2.00011953 -0.89386639
v -0.26421608 -1.35134300 0.09381783
v -0.21063949 -1.03916970 0.06718471
v -0.18707087 -0.82724169 -0.90196261
v -0.29403556 -0.84061670 -0.11561796
v -0.30494625 -0.00813809 -0.18029712
v -0.17643968 0.56459895 -0.13713116
v -0.13681277 1.78672496 -0.89849434
v -0.03937016 -1.21700218 0.11803397
v -0.19047820 -0.63767466 -0.14168637
v -0.20381556 -1.74846336 -0.89858577
v -0.22848705 -0.44689996 -0.20025055
v -0.12085980 1.99995867 -0.89665488
v -0.19294261 -1.99647244 -0.77845535
v -0.14253759 -0.60235136 -0.14135623
v -0.14145337 0.92702631 -0.89797882
v -0.25114174 1.99354807 -0.25283473
v 0.10367198 2.00184647 -0.68050954
v -0.25659824 -1.84993478 0.14508453
v -0.12462332 -1.99130413 0.18081171
v -0.27544765 -1.99868819 -0.01285161
v -0.08786479 -1.63163766 -0.90209440
v -0.06239818 -1.08034607 -0.89802036
v 0.00096839 1.99874559 -0.45766819
v -0.15427207 -1.99814555 -0.31120074
v -0.17418140 -0.88015577 -0.02376359
v -0.10849744 -0.76538360 -0.89810768
v -0.13669885 0.66981152 -0.08923219
v 0.11254345 -2.00212463 -0.60382137
v -0.06451339 -1.99212190 0.16475053
v -0.13981184 -1.52819928 -0.89813730
v -0.15003854 0.67319706 -0.09899883
v -0.02996568 0.92481473 -0.09789315
v -0.11244484 -1.92235288 -0.89891401
v -0.06581201 -1.65674397 0.15427120
v -0.05234412 -0.03721660 -0.19526077
v 0.16578691 1.98149482 -0.89394525
v -0.12724314 -0.37016907 -0.18338019
v -0.09351260 1.99816791 -0.72014311
v -0.09467838 -1.99923047 -0.00707636
v -0.05760823 -1.07352832 0.09625401
v 0.00594201 -1.99823054 -0.56550929
v 0.02872739 1.89540139 -0.18275254
v -0.03012220 -2.00361344 0.12108504
v 0.04181199 0.88637987 -0.90187142
v -0.04897155 1.87367598 -0.19629601
v 0.01290509 -1.24150517 -0.90187881
v 0.01439846 -0.23830133 -0.89810583
v -0.09647715 0.17314873 -0.20149731
v -0.09595766 0.52247933 -0.13348260
v -0.00248964 1.37571755 -0.13593281
v 0.01820396 1.48252562 -0.14753326
v -0.11209872 2.00323454 -0.28940359
v 0.01198850 0.76991716 -0.07215613
v 0.12978703 1.28842226 -0.90185687
v 0.00038389 1.27551440 -0.89802066
v 0.21446999 -2.00286135 -0.13061510
v 0.02855889 -1.38180562 -0.89806494
v 0.07472435 -1.72910234 0.18630883
v 0.11478680 -0.40121431 -0.90189728
v -0.07130265 1.99501220 -0.21403849
v 0.01449866 0.35610661 -0.14515292
v -0.01744234 -0.21458719 -0.19855811
v 0.06552273 0.09022567 -0.90194038
v 0.25162523 1.65257183 -0.90209207
v 0.07018309 -1.86935779 0.19446045
v 0.03787310 -1.31379726 0.13538681
v 0.10397447 -1.99862942 -0.26705379
v 0.05148807 0.43717286 -0.89818082
v 0.23672189 -1.83437606 -0.89843837
v 0.01234392 -0.60995036 -0.05127566
v 0.03302336 0.32983163 -0.16367261
v 0.18463557 -0.63762313 -0.89801380
v 0.06548325 -0.35453595 -0.15980046
v 0.13695996 0.00379596 -0.20228866
v 0.07773290 1.98158113 -0.19110483
v 0.16552368 -1.99390468 -0.88673970
v 0.01369562 -0.84027761 0.07876459
v 0.02080877 -0.67944148 -0.02777971
v 0.04019228 -0.41321828 -0.15629077
v 0.01400286 0.56019137 -0.06699599
v 0.03456565 0.56567720 -0.08122815
v 0.26643393 1.19273654 -0.07713978
v 0.14700007 -0.83895030 -0.90183267
v 0.00780702 -0.79257846 0.07579048
v 0.27451355 -1.99778029 -0.75505028
v 0.22219949 -0.84926614 -0.04253019
v 0.19144883 -0.88384762 0.00973212
v 0.26144450 0.83692065 -0.04389626
v 0.20573342 0.89986554 -0.89804569
v 0.25776607 1.20545450 -0.08355844
v 0.15271116 1.99975983 -0.26052978
v 0.10898615 1.99708143 -0.18364348
v 0.08759008 -1.99728641 0.13364952
v 0.26915533 -1.12913021 0.15428175
v 0.39871590 -0.76728165 -0.14404963
v 0.17578537 -0.55984424 -0.14790546
v 0.19966089 0.21608910 -0.17945367
v 0.32344677 0.47076562 -0.90197268
v 0.32076131 0.72325448 -0.11559634
v 0.37141534 0.75065127 -0.11302270
v 0.34347816 -1.89944145 -0.90257880
v 0.30323922 -1.52157995 -0.90193370
v 0.10313452 2.00358549 -0.22671774
v 0.13994337 -2.00441786 0.22296381
v 0.29027279 -1.99661192 -0.06642695
v 0.21204372 -1.23045757 -0.89802376
v 0.20726195 -1.07564738 0.13454772
v 0.23642773 -0.29734547 -0.20000340
v 0.19185594 0.32712666 -0.18243881
v 0.18432615 0.76672319 -0.05506740
v 0.45291214 1.81793037 -0.11125487
v 0.34031825 -1.12938502 -0.90188089
v 0.28176944 1.60311631 -0.89817331
v 0.31089323 -1.35096451 0.18003316
v 0.23219380 -0.20131431 -0.19109573
v 0.36353900 0.26611939 -0.89811877
v 0.32320031 1.99716822 -0.76229909
v 0.37314798 -1.59875354 0.21435548
v 0.24880486 -0.01121288 -0.89813814
v 0.38887354 0.58436552 -0.89808557
v 0.46135261 2.00265089 -0.29637188
v 0.24896314 -1.99177476 0.20165228
v 0.27479560 1.78839198 -0.13903013
v 0.28928860 -1.99454412 0.24236714
v 0.45085697 1.17949883 -0.89799747
v 0.50113459 1.83570376 -0.89870152
v 0.23223949 2.00228015 -0.17623605
v 0.35264923 -1.99817487 -0.39590583
v 0.29898610 -1.56443533 -0.89810351
v 0.45712005 -1.58060547 0.22961327
v 0.37941678 0.04575652 -0.15943921
v 0.61897742 0.45116708 -0.16637105
v 0.39920713 0.95724073 -0.90187201
v 0.35129475 2.00048367 -0.89644751
v 0.43146112 -0.21681377 -0.90200976
v 0.30663421 1.97788874 -0.14813365
v 0.32192253 -0.95834735 -0.89802173
v 0.38828351 -1.16672358 0.06736002
v 0.45723407 -0.27910585 -0.89812622
v 0.31519200 1.99357596 -0.17526701
v 0.49248671 -0.71192932 -0.90192107
v 0.37135898 -0.15848423 -0.18551448
v 0.36294298 -0.02749499 -0.14881307
v 0.48017602 1.37945000 -0.06798289
v 0.53892695 -1.99831339 -0.59508428
v 0.66301828 -0.74507704 -0.19222746
v 0.42232799 -1.88520512 0.24850794
v 0.42781725 -0.54585717 -0.19856331
v 0.65992223 0.69857112 -0.15934965
v 0.52603926 -0.57497257 -0.89810619
v 0.53820424 0.56472960 -0.17385835
v 0.63825988 1.50099340 -0.05189937
v 0.59164803 1.99808804 -0.48431376
v 0.53919767 -2.00100085 -0.89659039
v 0.52383100 -1.99869415 0.06075345
v 0.44315367 -1.99202618 0.23984992
v 0.52386742 -0.95188334 -0.13333797
v 0.45823227 0.18885717 -0.14984316
v 0.32968487 2.00031034 -0.16262220
v 0.47600587 -1.97995397 -0.89410994
v 0.40077995 -1.28184393 0.17658916
v 0.53622626 -1.31958130 0.08677939
v 0.46397393 -1.08965835 -0.04403717
v 0.57980757 1.38480667 -0.90190581
v 0.63975411 -2.00182685 -0.13127431
v 0.54945289 -1.48234829 -0.89813277
v 0.54353928 -2.00524315 0.23486569
v 0.56877421 -1.16094550 -0.89803008
v 0.60045575 0.10164515 -0.90193567
v 0.54630815 0.02572021 -0.89810154
v 0.66241180 0.98963026 -0.12289224
v 0.43217056 1.99900070 -0.13830292
v 0.72535860 -1.84688505 -0.89909235
v 0.65909301 -1.31092605 -0.90193364
v 0.69017898 -0.45178915 -0.17362222
v 0.65322195 1.98037592 -0.10519218
v 0.58558326 -1.42978546 0.13957908
v 0.56679361 -0.79797974 -0.18261171
v 0.62326859 -0.40129555 -0.18430685
v 0.49890273 -1.99945327 0.27603897
v 0.77018242 -1.65650543 -0.90237311
v 0.75540846 -1.31156215 -0.06772673
v 0.64552288 0.58138129 -0.90189031
v 0.47099178 1.96973840 -0.89572350
v 0.71010660 1.99791256 -0.21036438
v 0.79860555 2.00178495 -0.50257942
v 0.62929588 -0.20036532 -0.13469125
v 0.63328378 0.21951035 -0.11720463
v 0.59783642 -0.88327738 -0.89805207
v 0.62722187 -1.99789616 -0.25161280
v 0.80806135 -1.81372508 0.30191609
v 0.55832915 -1.46833226 0.21672161
v 0.76035302 -0.27674470 -0.10199522
v 0.60350191 0.01447827 -0.04001262
v 0.66010260 1.97486797 -0.90280655
v 0.82313227 -1.99774751 -0.73124752
v 0.51852178 1.11269585 -0.03653930
v 0.60564493 1.71656052 -0.08196184
v 0.82880299 -2.00201735 -0.65698246
v 0.57256316 1.14706639 -0.02810572
v 0.67860000 1.54303792 -0.89808420
v 0.66673480 1.99332825 -0.77262596
v 0.65036379 0.16858819 -0.08655545
v 1.02578734 -0.15159599 -0.90186200
v 0.73078882 0.76880077 -0.89808575
v 0.56626826 1.97974721 -0.89304504
v 0.93244808 1.99909059 -0.06055364
v 0.63525402 -1.29342964 -0.02557871
v 0.77972900 -0.76621949 -0.20327253
v 0.64775239 0.00225249 -0.03423345
v 0.71332334 1.03736237 -0.90189192
v 0.66397523 2.00439230 -0.84592459
v 0.89253252 -1.91524550 -0.90367958
v 0.65295880 -1.55435416 0.24788206
v 0.74239211 -0.98943981 -0.90186361
v 0.79023420 0.32598535 -0.89802257
v 0.76587593 1.31696633 -0.03151728
v 0.69692509 1.96496550 -0.89682141
v 0.73937540 -1.97781059 0.30198738
v 0.68323552 -1.60473844 0.25738543
v 0.79296165 -0.29973081 -0.89811531
v 0.84395122 0.55105737 -0.12790450
v 0.73408835 1.17124525 -0.07239122
v 0.80735617 -0.12628807 -0.00991022
v 0.70847993 -1.97794458 0.30541876
v 0.83139132 1.66303864 -0.90202329
v 0.65307098 1.97917071 -0.88830063
v 0.83499341 -1.99812421 -0.07775773
v 0.85901975 -1.99632451 0.27433961
v 0.90279852 1.65197316 -0.03205854
v 0.79580378 2.00130716 -0.89532259
v 0.84608196 -1.58295521 0.14323581
v 0.74174385 -1.45465371 0.03374157
v 0.89025067 -0.60377013 -0.89800951
v 0.81971305 -1.08805588 -0.16875607
v 0.82941197 -0.14508535 0.00654704
v 1.02862554 0.37349132 0.01710654
v 0.83453905 1.35603705 -0.02084365
v 0.86466800 -1.55922970 0.11642851
v 0.87156676 0.25385204 -0.02038037
v 1.24168788 -2.00305435 0.26643172
v 0.87414520 -1.65641507 0.29595691
v 0.85807221 -0.97866574 -0.89799962
v 0.86319869 -1.46156904 -0.89813528
v 0.79298632 -1.29223409 -0.10435408
v 0.84367846 -1.02569773 -0.19312781
v 0.98811757 -0.58134403 -0.90186075
v 0.87129300 -1.99970027 0.32808470
v 0.80406647 -1.97721979 -0.89253030
v 0.84010761 -0.00238108 0.12541604
v 0.84409254 0.04151002 0.09576869
v 0.98611413 0.40101669 -0.90179441
v 0.95521950 1.99768153 -0.74159572
v 0.95519089 0.86923197 -0.15826683
v 0.89329963 1.26221863 -0.08839106
v 1.10220050 1.43587271 -0.89817229
v 1.11562478 1.87401381 -0.01651443
v 0.87454854 -1.44225821 -0.03019251
v 1.00223814 0.87468055 -0.90188221
v 0.88514416 1.07747308 -0.89809141
v 0.93708013 -1.99818214 -0.41971282
v 0.89613252 -1.67716011 0.29596451
v 0.90167170 -1.18360564 -0.16992446
v 0.96550845 -0.61168533 -0.15708994
v 1.14554631 2.00268832 -0.69772241
v 1.12015366 -2.00196275 -0.15175133
v 1.03775929 -0.43952452 -0.06144602
v 1.00238280 0.04726798 -0.89801255
v 1.10117828 -1.99872180 0.10414299
v 1.01648228 0.60656944 -0.10153954
v 0.98930090 1.71444002 -0.89821223
v 1.23983668 1.99465815 -0.87642190
v 1.05473446 1.90593449 -0.90217516
v 1.12853276 2.00229517 -0.16935727
v 1.06198787 -1.88342020 0.35210687
v 1.14711927 -1.08906504 -0.90183166
v 1.07803844 0.64871726 -0.89796773
v 0.95467650 1.19841245 -0.10998128
v 0.97961413 -1.96979412 0.33957275
v 1.00263398 -0.13816921 0.14615643
v 0.99963563 -1.37824103 -0.09683809
v 1.04585647 0.03188107 0.15838664
v 1.14266442 1.99846521 -0.33228746
v 1.08611130 -1.61294910 0.19585573
v 1.06376707 -1.43425092 -0.03235922
v 1.07322895 -1.27734336 -0.89801774
v 1.02513730 -1.28360715 -0.13194275
v 1.08626603 -1.01508507 -0.18649415
v 1.00793659 0.20600960 0.13018649
v 1.03454458 1.42258540 0.00027378
v 1.01526551 -1.64088627 0.21704654
v 1.22510563 -0.42979655 0.09955811
v 1.18484675 -0.01206976 0.17733951
v 1.04257702 -1.99359211 -0.88456187
v 1.10282146 -1.95311638 -0.89837906
v 1.00032638 1.45087901 -0.00872776
v 0.97550326 1.98707191 -0.05625398
v 1.03922974 -1.53557536 0.04297161
v 1.09960829 -1.05443784 -0.19085190
v 1.07734810 -0.41277942 -0.89802716
v 1.09189903 -0.48308178 -0.04599108
v 1.01236569 1.13326958 -0.14058619
v 1.29415952 1.35067478 -0.90195653
v 1.20766865 -0.38965646 0.10916581
v 1.20648395 0.50125042 0.04855701
v 1.14128815 0.82849911 -0.10621403
v 1.16304182 1.29502395 -0.06300167
v 1.25278996 -1.99983045 -0.90051106
v 1.20184707 -1.76921317 -0.89823702
v 1.07568203 -1.25588902 -0.14930459
v 1.12560522 -0.84436184 -0.89797691
v 1.18669783 -0.76530328 -0.12710293
v 1.33672666 -0.41351649 0.24151310
v 1.27368366 0.14881865 -0.90186045
v 1.31985115 0.62391475 -0.90183357
v 1.21468305 -2.00230023 -0.71455917
v 1.30985342 -1.99840614 -0.52170155
v 1.09300755 -1.67547878 0.32414797
v 1.06106769 0.21719668 0.13410863
v 1.22432386 1.99753204 -0.89846930
v 1.07976507 1.09511701 -0.13101272
v 1.14259743 1.56808976 0.01888142
v 1.28806650 -1.99807259 -0.23214426
v 1.20852338 -1.99348661 0.34532421
v 1.20368253 -1.64877328 0.34418547
v 1.29571818 -0.70727485 -0.90198884
v 1.22052347 1.99680534 -0.06186100
v 1.20349883 -1.78304144 0.35687503
v 1.22923099 -1.51941046 -0.90190748
v 1.14582287 -0.92909637 -0.18214237
v 1.17909204 1.02133325 -0.13093343
v 1.22371792 1.26655618 -0.04591597
v 1.10501098 1.98587361 -0.03658674
v 1.49145185 -1.98970541 0.42280107
v 1.23318325 -0.72771704 -0.10869683
v 1.16900705 -1.34475019 -0.09131064
v 1.26941287 0.83586005 -0.08222194
v 1.33897685 1.51517454 0.04642930
v 1.19953906 -1.59863981 0.19571533
v 1.23692512 -1.45114824 0.01341162
v 1.42771458 0.26278755 -0.89805505
v 1.34713446 0.52458892 0.15046160
v 1.21507620 1.03565279 -0.89806578
v 1.27129244 1.39607183 0.03656423
v 1.51878272 -1.80106362 -0.90223620
v 1.35041367 -0.63201540 -0.89818588
v 1.28911113 -1.99686131 -0.80819300
v 1.29692875 -0.11178214 -0.89800534
v 1.41765629 -1.97678014 -0.89630983
v 1.54915701 -1.67341253 0.40257066
v 1.25171792 -1.47241410 0.06179539
v 1.32216858 -0.40901937 0.22304551
v 1.37249624 -1.36389443 -0.89823535
v 1.24392747 -1.20778957 -0.12530477
v 1.47478055 -0.25749521 0.24905169
v 1.28837441 0.44888094 0.14543149
v 1.29281436 1.39488450 0.05565168
v 1.37848519 1.82470027 0.02373937
v 1.53255688 2.00549069 -0.82606194
v 1.30675696 -1.22626540 -0.07738474
v 1.40774630 1.99923984 -0.70416484
v 1.32940649 -0.95530960 -0.10619871
v 1.43592917 -0.61817768 0.10574763
v 1.45462369 0.21422610 0.19885242
v 1.43731033 0.98521796 -0.90184603
v 1.31050812 -0.98688516 -0.12802012
v 1.37859546 0.73266617 0.04562016
v 1.40213369 0.70577327 -0.89804009
v 1.22195493 1.98655287 -0.01895757
v 1.32917022 -1.65542909 0.36116105
v 1.29590343 0.96937886 -0.06887285
v 1.52265476 -0.40474324 -0.89813045
v 1.38855552 1.18453196 0.01068491
v 1.45921933 1.80180970 -0.89799264
v 1.35754179 -1.55256626 0.29155433
v 1.40373467 -1.48469481 0.18707606
v 1.34870504 1.21943906 -0.02036819
v 1.44122516 1.39843980 -0.89814440
v 1.71733188 1.72680131 0.08806976
v 1.54592263 1.78313724 -0.90198306
v 1.37767171 -0.76175823 -0.01623910
v 1.35578405 1.98905912 -0.00034778
v 1.39632808 -1.29588142 -0.00421326
v 1.43892096 -1.13613703 -0.03534021
v 1.60078143 -0.84741729 -0.89860258
v 1.56004952 -0.29640099 0.26173085
v 1.41804933 1.04786149 -0.01453516
v 1.75714945 -2.00194212 -0.50004724
v 1.39547180 -1.36373815 0.06709510
v 1.55885588 0.36738667 0.19522065
v 1.81569647 2.00297824 -0.34569341
v 1.53246402 -1.99871954 0.19376945
v 1.56889938 -0.21828998 -0.90177939
v 1.53999971 0.03538299 0.22576362
v 1.73066734 -1.64245876 -0.89854011
v 1.42215918 -1.55155238 0.35645637
v 1.45058297 0.82794908 0.03859283
v 1.70931529 1.99867955 -0.20037537
v 1.69612574 -1.20751866 -0.90238151
v 1.46752690 -1.14905241 0.01455849
v 1.48249983 0.95358792 0.05529646
v 1.40050589 -1.97876677 0.40445372
v 1.46578990 -0.87206879 -0.01788118
v 1.78559827 -2.00198921 0.00874373
v 1.56653594 -1.83525654 0.41606146
v 1.48833608 -1.47312447 0.36859744
v 1.51271032 -1.37337765 0.24006390
v 1.52263783 -0.68490883 0.17623984
v 1.63141381 1.16719845 -0.89811054
v 1.62741779 0.34337291 -0.90198031
v 1.76389312 1.99395600 0.05091659
v 1.74752354 1.99770537 0.06292792
v 1.74975585 1.99416033 -0.89994559
v 1.50397407 0.73310200 0.13966772
v 1.64869510 2.00430408 -0.00298727
v 1.71538185 -1.99749955 -0.63639936
v 1.55825328 -1.59557375 0.39066431
v 1.49624418 1.19920782 0.08864755
v 1.46345364 1.24675432 0.09544207
v 1.57323908 -0.80183181 0.14433504
v 1.57076632 -1.28587004 0.20475123
v 1.57754432 -0.86444124 0.14714540
v 1.82051932 0.46346984 0.23005922
v 1.80743252 0.34160075 -0.89838884
v 1.52566837 0.77331689 0.15259748
v 1.78640830 -0.14818427 -0.89808056
v 1.54828118 1.05234602 0.12317183
v 1.66956161 -2.00072702 -0.89866409
v 1.73488616 -1.99271723 0.43484628
v 1.60591196 -1.33433929 0.36197313
v 1.60104763 -0.68236374 0.30782246
v 1.73143827 1.29470960 0.12823866
v 1.64414810 1.12955252 0.13464287
v 1.78515409 -1.99792155 -0.26303120
v 1.61127089 -1.12449094 0.21505193
v 1.62529432 -1.05063089 0.18097268
v 1.86597132 -0.97875014 -0.89753852
v 1.81105958 -0.58570209 -0.90541205
v 1.58450710 -0.62894642 0.29595217
v 1.59220432 1.02486185 0.13168805
v 1.69695448 1.99377743 -0.87819288
v 1.73466944 1.99901048 -0.54156778
v 1.62174462 -1.28738042 0.37220132
v 1.75789498 1.21896986 -0.90201781
v 1.73308622 1.90934649 0.06656251
v 1.80257057 0.95842627 0.17305587
v 1.82766949 -1.53126987 0.42534545
v 1.78385126 -0.48826499 0.31551626
v 1.76455461 0.81898776 -0.90227649
v 1.79280209 1.61109689 -0.89846197
v 1.83277904 -1.99625882 -0.83231500
v 1.76990270 0.78452054 -0.89840857
v 1.66712152 -0.85812726 0.32683256
v 1.80386197 -0.95155772 0.36508962
v 1.84828912 -0.64782691 0.34721261
v 1.68049072 -1.00622019 0.35243782
v 1.81306361 1.65697924 0.10263370
v 1.87503957 -2.00481769 0.36851927
v 1.78953527 -1.97981938 -0.89502636
v 1.89683782 -1.59683558 0.44677606
v 1.81050407 -1.01887127 0.37747562
v 1.87560879 -0.00148439 0.28391835
v 1.69781863 -1.11399933 0.36226070
v 1.86462890 -0.07959863 0.28454521
v 1.92163693 -0.00816470 -0.90323684
v 1.87775086 -1.94641026 -0.90334931
v 1.87801765 0.64012471 0.21590922
v 1.88667070 1.16373125 0.17190076
v 1.89983331 1.01397160 -0.89772955
v 1.83971106 -1.99824902 0.37410083
v 1.92185937 -1.66850432 -0.90452049
v 1.90213620 -0.47940242 -0.89432541
v 1.90391361 -1.99790141 0.48728665
v 1.90002977 1.99879948 -0.80008892
v 1.93948363 0.43219337 -0.90272597
v 1.95281385 -1.99673447 0.10859732
v 1.93975042 0.22802505 0.26506000
v 1.94618641 -1.90197500 -0.89484558
v 1.96085738 0.92639295 -0.90216717
v 1.94110357 1.29065743 -0.90284095
v 1.96180617 1.67300025 -0.90384016
v 1.92385863 1.88156882 0.09801139
v 1.97076236 -1.00413683 0.39069828
v 1.96339678 -1.88157448 0.47737383
v 1.97050523 -1.53003558 -0.89617083
v 1.99380242 0.13332823 -0.88360390
v 1.94911789 1.87848321 -0.89588318
v 1.99668657 -1.97059950 -0.54758540
v 1.99804222 -1.44545385 -0.89979133
v 1.99528550 -0.91957906 -0.90049503
v 1.97506188 -0.29882450 0.32077205
v 1.97515105 -0.27177538 -0.88695959
v 1.99812411 -0.33276778 0.33431840
v 1.96684145 1.35704115 -0.89662120
v 1.97238313 1.60747674 -0.89396188
v 1.99418067 -1.44662663 0.42932713
v 1.99212610 -1.09854093 -0.88439188
v 1.98113381 -0.70562535 0.36190906
v 1.99173140 -0.04175806 0.27908724
v 1.99095963 0.10846466 0.28753352
v 1.99608480 0.99512831 -0.88131109
v 1.97971200 0.92822305 0.19963678
v 1.98528944 1.99663630 -0.61259237
v 1.98935412 -1.99897012 -0.89426849
v 2.00005197 -1.99873086 -0.62560651
v 1.99254798 -2.00068220 0.30992314
v 1.99175381 -1.95896813 -0.87236658
v 1.99755572 -1.96944186 -0.24873339
v 1.99389159 -1.97741171 0.33455458
v 1.99250494 -1.98375710 0.49400285
v 1.98793267 -0.62429365 -0.88998899
v 2.00020455 0.69399742 0.22918234
v 1.98508595 0.72700015 0.21920949
v 1.98652767 0.60229108 -0.89565876
v 1.98344552 1.63987568 0.12218345
v 1.99089192 1.97572437 -0.86559096
v 1.98420667 1.99626485 -0.25678361
v 1.99632620 -1.97886261 0.06535483
v 1.98988460 -1.97945460 0.47637990
v 1.99432110 -1.72118088 -0.87939111
v 1.99989211 -1.38294705 0.43051779
v 1.99251841 -1.04875818 0.40311825
v 1.99411737 0.38442538 0.24596536
v 1.98606192 1.23401037 0.16734741
v 1.99853610 1.20306901 0.17625785
v 1.99686467 1.81295053 0.12071776
v 1.99489509 1.78001157 0.08572730
v 1.97917544 1.98197094 0.09184277
v 1.99721514 2.00020519 -0.46995286
v 1.99159824 2.00055662 -0.09289886
v 1.99870895 1.98454872 0.09778107
v 2.00127016 -1.99941513 -0.17690276
v 1.99746298 -1.97760376 -0.08430733
v 1.99896192 -1.75448939 -0.74659405
v 1.99844598 -1.77841767 -0.38830415
v 1.99797069 -1.73103973 0.09356800
v 1.99936377 -1.65625175 0.37519472
v 1.99541174 -1.78056654 0.47726538
v 1.99806487 -1.39338836 -0.13495051
v 1.99871479 -1.41772458 -0.56280986
v 1.99749075 -1.22159275 -0.78119323
v 1.99854850 -1.20003911 0.21608294
v 1.99862777 -1.15245536 -0.48949913
v 1.99807977 -1.03971406 -0.13615740
v 1.99846040 -0.89461138 -0.57492540
v 1.99878346 -0.76085573 0.14661620
v 1.99778949 -0.72521737 -0.12645685
v 1.99590837 -0.83428120 0.30123645
v 1.99800967 -0.66812414 -0.77013764
v 1.99811350 -0.55373743 -0.44800446
v 1.99743425 -0.66248881 0.36326629
v 1.99631702 -0.56756928 -0.90336255
v 1.99667655 -0.36631685 0.08823012
v 1.99650752 -0.53692621 0.28198263
v 1.99814629 -0.22927383 -0.75251535
v 1.99812399 -0.28230098 -0.19135405
v 1.99835049 -0.15277138 -0.51035396
v 1.99840414 0.00949198 -0.07360584
v 1.99853229 0.10842359 -0.33291501
v 1.99937200 0.15886078 -0.77178654
v 1.99745404 0.11928702 0.17285218
v 1.99853026 0.40108493 -0.49272800
v 2.00011026 0.30672953 0.26947200
v 1.99806653 0.49523560 -0.06597120
v 1.99794172 0.42706862 -0.76209900
v 1.99811541 0.83145598 -0.00548004
v 1.99823104 0.72978893 -0.80816475
v 1.99806117 0.60788760 -0.89898071
v 1.99803649 0.80259839 -0.45115459
v 1.99637031 1.10802356 0.09159199
v 1.99815415 1.07121912 -0.50914672
v 1.99816619 1.20909742 -0.81361422
v 1.99799358 1.41006843 -0.25656487
v 1.99501370 1.47926477 -0.83825556
v 1.99797117 1.45053390 -0.65934578
v 1.99748432 1.43527273 0.07993129
v 2.00082933 1.24447015 -0.89145127
v 2.00131344 1.43818453 0.14970857
v 1.99569904 1.43958703 -0.89960876
v 1.99748897 1.79450027 -0.84266630
v 2.00151454 1.57476440 -0.87356887
v 1.99815439 1.84209815 -0.55965975
v 1.99824797 1.84278670 -0.13874222
v 2.00176047 1.77956978 -0.89458207
v 1.99882721 1.97823087 -0.90010581
v 1.99885951 2.00202290 -0.80927703
v 1.99932693 -0.34295853 -0.88936946
v 1.99871587 -0.16422748 -0.90466151
v 2.00301634 -0.09649419 0.29078054
v 2.00017022 0.01578698 -0.89648906
v 1.99554502 0.14786217 -0.90050701
v 2.00025736 0.32774350 -0.89240834
v 2.00140022 0.80653134 -0.89367751
v 1.99980937 0.97288636 -0.89262292
v 1.99862753 1.59043280 0.15251624
v 2.00182818 -1.66140732 0.02655203
v 2.00513982 -1.94887742 0.30577990
v 2.00785159 -1.96520087 -0.82175270
v 2.00337409 -1.69564375 -0.74317965
v 2.00234066 -1.79821941 -0.38912595
v 2.00412582 -1.73558268 0.35609969
v 2.00200581 -1.41918048 -0.26789874
v 2.00245201 -1.23033329 0.24514678
v 2.00299870 -1.23484286 -0.72304640
v 2.00185846 -0.92361441 -0.17381335
v 2.00233888 -0.81202957 -0.76020345
v 2.00329899 -0.66755956 0.25091591
v 2.00137817 -0.54926143 0.01695288
v 2.00188326 -0.46535652 -0.35328022
v 2.00222193 -0.12331946 -0.07614683
v 2.00273870 -0.11059178 -0.73937092
v 2.00233673 0.00849855 -0.52619681
v 1.99990426 -0.09375631 -0.90293089
v 2.00634490 0.09449274 0.22917632
v 2.00229966 0.31602088 -0.13398608
v 2.00340437 0.15145788 -0.82620165
v 2.00263511 0.55727223 -0.75380323
v 2.00180565 0.82186345 -0.36411080
v 2.00203132 1.01313737 -0.74700305
v 2.00217294 1.02109984 -0.01833594
v 2.00189828 1.40768853 -0.39195863
v 2.00318002 1.40800122 -0.82534263
v 2.00236474 1.84264294 -0.04990591
v 2.00236045 1.82280818 -0.60558132
f 406 306 352
f 324 331 387
f 233 206 145
f 271 260 321
f 863 842 866
f 182 153 251
f 82 78 76
f 779 853 775
f 989 1048 1052
f 968 954 1033
f 80 79 84
f 371 370 297
f 88 89 92
f 120 39 60
f 517 485 452
f 977 830 1046
f 971 929 958
f 473 508 557
f 547 537 529
f 767 650 759
f 931 930 895
f 851 840 858
f 357 275 303
f 602 560 550
f 338 273 340
f 291 326 289
f 464 334 442
f 672 601 685
f 208 195 158
f 348 252 304
f 748 627 636
f 420 386 478
f 114 112 115
f 434 364 390
f 835 805 817
f 447 445 412
f 554 468 503
f 256 168 198
f 433 379 365
f 611 520 527
f 875 792 877
f 43 42 40
f 980 1075 1037
f 559 530 513
f 547 629 608
f 1015 1009 1012
f 211 175 167
f 26 29 24
f 76 77 80
f 763 739 813
f 93 90 88
f 341 296 406
f 1067 1062 1041
f 181 151 176
f 677 662 615
f 178 177 269
f 232 213 287
f 275 178 303
f 548 512 486
f 417 463 310
f 211 167 189
f 756 691 721
f 109 107 102
f 412 377 396
f 62 39 120
f 75 64 9
f 516 480 469
f 650 605 759
f 953 1017 964
f 663 646 585
f 452 440 399
f 12 6 11
f 924 785 909
f 408 495 426
f 1054 1053 1056
f 620 586 549
f 1070 1068 1044
f 354 353 263
f 818 757 688
f 806 882 906
f 534 497 454
f 163 126 158
f 507 403 479
f 456 405 424
f 936 846 971
f 112 109 110
f 995 994 990
f 986 991 985
f 484 527 520
f 298 276 300
f 673 609 654
f 1040 944 1061
f 555 494 575
f 75 171 64
f 1002 912 973
f 155 132 68
f 832 752 763
f 987 986 984
f 56 54 24
f 1030 1028 931
f 558 565 491
f 621 567 570
f 153 125 152
f 165 42 129
f 612 628 643
f 467 432 373
f 887 872 835
f 53 14 17
f 239 181 176
f 764 743 859
f 794 707 711
f 7 3 4
f 296 214 202
f 755 675 731
f 470 421 368
f 869 838 828
f 600 609 673
f 199 189 142
f 54 53 20
f 966 1027 975
f 428 437 493
f 592 534 510
f 939 902 867
f 417 310 348
f 1070 1045 1028
f 962 923 888
f 831 754 724
f 406 352 441
f 118 110 116
f 489 410 429
f 135 82 136
f 568 635 657
f 388 408 359
f 622 602 550
f 1072 1069 1070
f 415 313 363
f 130 46 145
f 155 69 133
f 318 293 231
f 689 651 674
f 14 50 9
f 963 919 874
f 786 817 781
f 340 273 307
f 21 19 16
f 982 863 977
f 90 81 88
f 1017 1015 974
f 69 71 73
f 852 824 822
f 1066 1068 1069
f 877 823 923
f 317 263 254
f 448 483 482
f 456 416 445
f 246 217 155
f 772 600 757
f 349 264 315
f 792 719 799
f 690 633 613
f 640 588 619
f 575 509 555
f 969 927 960
f 142 109 112
f 190 132 172
f 746 624 700
f 533 504 539
f 334 422 329
f 204 150 222
f 1015 1013 1010
f 505 495 408
f 632 664 552
f 104 108 111
f 1067 1041 1042
f 933 966 908
f 1043 1042 926
f 110 102 96
f 550 560 522
f 890 814 803
f 548 566 594
f 561 483 541
f 677 615 515
f 776 726 801
f 878 852 876
f 1058 1054 1056
f 141 140 101
f 556 579 518
f 224 120 193
f 1068 1043 1019
f 259 194 220
f 965 875 937
f 834 791 787
f 1009 1010 1007
f 765 844 655
f 71 67 70
f 228 240 183
f 773 603 741
f 415 363 488
f 70 67 66
f 378 324 387
f 1065 1040 1061
f 661 675 638
f 1061 1058 1059
f 758 782 753
f 755 718 675
f 512 438 486
f 702 675 661
f 790 791 827
f 13 16 12
f 257 346 223
f 841 807 865
f 83 85 89
f 970 960 921
f 437 347 427
f 697 714 608
f 47 2 64
f 887 854 871
f 660 697 629
f 339 305 277
f 382 341 407
f 320 245 264
f 323 301 341
f 158 126 154
f 893 812 892
f 842 725 866
f 608 614 537
f 708 603 773
f 668 648 595
f 590 523 601
f 877 799 823
f 319 297 270
f 787 732 761
f 1070 1044 1045
f 841 915 845
f 566 486 524
f 953 964 918
f 717 650 767
f 416 424 395
f 550 522 532
f 1047 983 1051
f 335 343 244
f 1016 965 937
f 831 724 771
f 88 83 89
f 382 407 438
f 938 901 946
f 655 586 620
f 207 156 226
f 987 969 960
f 1033 1026 1024
f 826 735 776
f 436 449 383
f 566 524 597
f 653 678 669
f 675 718 638
f 713 671 683
f 538 521 535
f 243 180 231
f 466 342 355
f 982 1074 981
f 1024 1026 1022
f 567 519 444
f 730 680 670
f 479 413 451
f 8 1 2
f 771 724 682
f 282 246 235
f 157 72 156
f 374 319 325
f 874 913 951
f 495 549 446
f 582 593 525
f 752 687 644
f 122 121 125
f 1019 1043 926
f 185 223 59
f 463 450 409
f 770 702 691
f 71 68 67
f 444 385 435
f 819 792 875
f 674 551 600
f 290 165 205
f 936 888 846
f 89 85 86
f 1073 1030 1032
f 974 928 918
f 952 945 920
f 683 628 684
f 862 809 833
f 515 615 505
f 39 36 60
f 228 253 240
f 884 878 876
f 704 653 669
f 559 599 547
f 998 1001 996
f 863 866 658
f 983 839 956
f 839 759 879
f 833 809 820
f 52 18 13
f 577 458 564
f 345 353 395
f 797 751 762
f 486 488 524
f 894 858 857
f 319 371 297
f 373 308 287
f 645 594 644
f 406 296 306
f 367 312 326
f 548 486 566
f 1014 874 951
f 317 254 230
f 383 402 330
f 951 1040 1065
f 384 321 311
f 850 922 796
f 199 114 180
f 974 1015 1012
f 855 692 717
f 321 227 311
f 1050 956 1049
f 15 17 14
f 703 620 634
f 556 490 544
f 11 7 10
f 967 925 892
f 808 741 783
f 900 816 895
f 530 465 462
f 30 32 29
f 1036 932 864
f 201 149 164
f 968 978 979
f 267 249 314
f 243 230 180
f 1005 1004 997
f 302 304 233
f 1031 946 1025
f 603 562 501
f 828 782 758
f 780 664 632
f 805 787 761
f 199 142 114
f 574 502 496
f 140 98 100
f 403 309 413
f 707 652 576
f 971 958 985
f 482 500 447
f 589 558 537
f 752 644 763
f 46 41 145
f 899 837 915
f 981 980 842
f 682 724 646
f 1057 1038 1062
f 58 33 28
f 972 989 1052
f 949 999 934
f 359 346 257
f 971 846 929
f 381 350 362
f 635 487 577
f 901 829 860
f 663 682 646
f 1055 1050 940
f 223 198 59
f 590 498 523
f 306 284 288
f 975 1021 953
f 177 48 47
f 526 496 467
f 250 204 222
f 792 799 877
f 413 309 294
f 429 378 458
f 934 993 947
f 139 91 138
f 972 911 989
f 706 622 668
f 956 839 955
f 523 477 473
f 562 493 501
f 575 494 507
f 490 475 471
f 122 116 121
f 1033 967 1031
f 116 111 117
f 170 237 284
f 480 490 471
f 351 335 265
f 113 58 60
f 540 466 571
f 129 43 45
f 444 435 498
f 266 197 275
f 975 953 897
f 607 573 598
f 622 550 561
f 60 58 215
f 923 836 888
f 189 167 141
f 679 641 606
f 852 822 818
f 290 186 165
f 634 620 549
f 351 265 336
f 424 345 395
f 284 261 288
f 677 754 662
f 25 21 18
f 737 695 760
f 387 331 342
f 265 209 241
f 453 418 414
f 473 434 481
f 116 117 121
f 242 191 196
f 1006 943 962
f 660 599 630
f 885 774 843
f 1029 976 1071
f 750 761 714
f 1071 1069 1072
f 284 237 261
f 502 541 483
f 119 59 34
f 379 316 365
f 627 574 591
f 939 958 902
f 747 668 681
f 974 1012 950
f 857 776 801
f 658 623 562
f 330 230 293
f 703 765 620
f 475 492 442
f 1009 1015 1010
f 577 564 652
f 438 441 486
f 391 327 337
f 92 89 91
f 127 122 125
f 450 515 388
f 679 712 641
f 728 667 719
f 929 910 958
f 342 268 355
f 291 229 292
f 141 107 109
f 281 226 200
f 891 848 838
f 481 434 425
f 710 766 703
f 138 86 148
f 587 543 493
f 129 42 43
f 403 368 309
f 464 422 334
f 263 211 189
f 557 508 580
f 984 959 927
f 181 152 151
f 934 999 993
f 179 196 147
f 833 778 862
f 19 17 15
f 783 729 772
f 721 691 639
f 6 2 3
f 273 231 219
f 1029 919 976
f 650 616 479
f 782 788 705
f 398 384 461
f 299 314 249
f 758 706 747
f 169 174 136
f 337 223 346
f 27 26 22
f 719 751 799
f 576 540 571
f 328 222 267
f 604 653 704
f 701 645 687
f 912 907 894
f 414 358 372
f 304 234 233
f 293 230 243
f 214 215 58
f 564 506 576
f 101 99 102
f 366 363 298
f 743 687 752
f 628 612 589
f 804 760 846
f 1010 1008 1007
f 291 272 229
f 568 489 487
f 455 419 465
f 385 322 435
f 979 933 862
f 1022 952 1018
f 872 827 834
f 737 694 695
f 607 556 573
f 460 366 381
f 480 471 404
f 700 624 611
f 1037 1075 1036
f 496 502 436
f 153 194 259
f 561 532 483
f 1025 945 1023
f 135 78 82
f 993 990 987
f 478 457 531
f 749 709 732
f 650 479 605
f 455 414 419
f 630 599 559
f 314 299 364
f 16 15 6
f 53 50 14
f 1063 1060 1062
f 2 1 64
f 279 193 215
f 808 783 824
f 873 832 813
f 1003 941 889
f 791 749 732
f 322 267 314
f 676 581 631
f 462 419 394
f 696 709 684
f 814 718 755
f 865 807 756
f 294 274 343
f 251 153 259
f 994 991 990
f 31 30 27
f 706 668 747
f 1043 1067 1042
f 609 548 594
f 474 489 568
f 979 862 968
f 286 203 285
f 776 735 693
f 586 510 514
f 95 94 99
f 375 351 336
f 238 228 174
f 676 699 726
f 725 716 637
f 645 644 687
f 234 252 63
f 388 359 257
f 474 410 489
f 83 76 80
f 935 988 960
f 146 156 65
f 930 900 895
f 555 470 494
f 350 300 362
f 483 532 482
f 213 182 287
f 126 122 127
f 398 321 384
f 1029 1074 977
f 830 808 870
f 319 270 283
f 476 453 414
f 607 606 556
f 914 881 887
f 643 569 565
f 163 124 126
f 167 175 140
f 172 132 155
f 608 537 547
f 639 661 582
f 414 380 358
f 209 75 50
f 373 287 393
f 16 19 15
f 149 97 139
f 553 472 497
f 261 237 247
f 1031 967 938
f 656 571 667
f 521 546 524
f 972 912 911
f 186 185 119
f 565 569 517
f 430 468 348
f 308 307 232
f 726 699 785
f 723 722 825
f 857 826 776
f 232 258 159
f 902 910 800
f 55 18 87
f 233 145 286
f 881 868 847
f 448 396 402
f 141 106 107
f 49 5 4
f 154 127 128
f 862 734 849
f 489 429 487
f 160 169 137
f 837 803 744
f 401 322 314
f 222 150 201
f 229 160 175
f 793 733 815
f 756 770 691
f 621 570 590
f 94 88 92
f 206 234 63
f 151 150 176
f 777 698 655
f 973 1054 1058
f 811 736 802
f 513 462 443
f 320 334 245
f 624 520 611
f 583 525 560
f 545 433 459
f 941 940 850
f 262 277 248
f 1004 1007 998
f 1013 1016 1011
f 579 536 492
f 538 535 545
f 13 12 11
f 766 861 765
f 368 303 269
f 468 585 463
f 300 276 266
f 74 10 49
f 830 708 773
f 360 348 304
f 255 256 198
f 609 600 548
f 153 128 125
f 828 838 782
f 892 825 938
f 943 877 923
f 632 552 553
f 133 69 73
f 247 236 276
f 501 420 533
f 384 311 329
f 245 281 200
f 560 525 522
f 873 851 886
f 505 408 388
f 760 695 624
f 57 87 184
f 463 409 310
f 446 423 391
f 794 711 728
f 937 877 943
f 475 442 431
f 856 853 779
f 168 54 56
f 389 349 361
f 366 298 350
f 38 35 31
f 808 824 870
f 1023 952 1022
f 290 257 186
f 245 200 190
f 761 732 714
f 133 73 78
f 870 824 878
f 252 310 205
f 432 340 373
f 539 531 551
f 377 354 317
f 183 135 174
f 847 790 827
f 817 805 750
f 768 798 647
f 966 978 1027
f 876 793 874
f 200 226 156
f 411 328 385
f 368 403 494
f 57 55 87
f 782 705 753
f 667 672 719
f 821 769 790
f 147 134 179
f 337 256 255
f 968 849 893
f 485 440 452
f 271 196 212
f 954 893 925
f 601 588 640
f 569 516 485
f 50 75 9
f 960 927 921
f 481 398 461
f 846 760 800
f 470 368 494
f 278 251 259
f 1075 1035 1036
f 307 258 232
f 136 90 137
f 854 817 786
f 110 111 116
f 784 748 778
f 381 379 433
f 485 469 440
f 987 984 969
f 140 137 95
f 898 880 856
f 490 518 475
f 900 766 816
f 1057 1055 941
f 409 290 310
f 874 793 815
f 1031 1025 1026
f 631 575 618
f 419 414 372
f 492 464 442
f 894 801 911
f 348 468 417
f 491 517 452
f 586 698 592
f 235 246 173
f 230 199 180
f 467 373 393
f 15 8 6
f 488 363 460
f 218 175 211
f 218 229 175
f 912 894 911
f 399 374 418
f 753 706 758
f 796 759 664
f 841 744 807
f 581 575 631
f 995 990 993
f 487 429 458
f 804 737 760
f 208 159 195
f 6 8 2
f 698 666 592
f 920 860 903
f 807 744 770
f 617 580 520
f 712 647 596
f 178 49 177
f 358 325 332
f 115 112 110
f 169 136 137
f 220 181 239
f 942 949 899
f 48 3 47
f 696 684 659
f 410 280 356
f 685 601 640
f 225 171 274
f 1057 1003 1038
f 219 162 159
f 136 174 135
f 399 371 374
f 515 505 388
f 536 464 492
f 858 802 826
f 680 606 607
f 619 557 617
f 634 549 584
f 38 34 35
f 612 565 558
f 535 521 433
f 401 314 400
f 458 378 387
f 313 295 298
f 668 622 648
f 613 545 665
f 627 591 636
f 534 563 497
f 1048 983 1047
f 836 804 888
f 1062 1038 1039
f 600 551 548
f 30 29 26
f 890 803 837
f 829 707 794
f 547 529 530
f 200 146 131
f 823 797 836
f 649 595 574
f 47 3 2
f 917 955 879
f 570 567 444
f 1040 913 944
f 229 169 160
f 359 408 346
f 38 40 34
f 360 302 286
f 376 221 216
f 738 633 736
f 968 1034 978
f 511 503 428
f 905 904 890
f 839 717 767
f 232 159 208
f 913 806 944
f 197 187 275
f 1030 931 932
f 228 183 174
f 362 300 316
f 820 784 778
f 504 478 539
f 898 881 914
f 720 679 680
f 28 27 25
f 643 671 569
f 911 785 924
f 666 625 563
f 312 289 326
f 762 685 694
f 798 800 745
f 279 323 369
f 176 204 250
f 469 370 440
f 393 287 280
f 678 657 669
f 425 390 398
f 453 491 452
f 117 111 108
f 739 686 738
f 999 997 993
f 715 630 638
f 905 890 899
f 749 683 709
f 785 692 909
f 940 922 850
f 880 843 853
f 448 482 447
f 972 1052 1054
f 908 789 809
f 806 764 882
f 352 288 313
f 823 751 797
f 249 192 242
f 416 456 424
f 848 788 838
f 267 201 210
f 897 841 865
f 220 152 181
f 532 522 500
f 477 400 473
f 390 364 333
f 580 508 520
f 70 65 72
f 305 253 277
f 1058 1056 1059
f 823 799 751
f 36 37 31
f 893 849 812
f 160 137 175
f 144 118 124
f 519 411 444
f 676 631 618
f 499 456 445
f 716 663 637
f 1022 1020 1017
f 843 927 885
f 1062 1064 1041
f 989 911 961
f 189 141 142
f 156 72 65
f 310 290 205
f 140 100 101
f 280 182 278
f 118 123 124
f 73 71 76
f 443 367 405
f 720 774 679
f 996 948 992
f 355 250 328
f 183 173 133
f 369 386 420
f 27 30 26
f 779 730 642
f 383 293 318
f 773 741 808
f 47 64 171
f 423 454 376
f 126 124 123
f 209 244 75
f 1012 1009 1004
f 404 471 389
f 511 428 493
f 889 850 777
f 94 92 96
f 471 431 389
f 786 781 715
f 714 696 608
f 334 329 281
f 170 87 52
f 1027 1024 1021
f 769 713 742
f 1028 1045 931
f 77 70 72
f 420 478 504
f 552 451 439
f 1042 1041 916
f 394 339 367
f 859 832 873
f 891 865 848
f 537 558 528
f 223 337 255
f 383 330 293
f 197 52 51
f 411 355 328
f 812 734 704
f 1051 956 1050
f 919 884 874
f 926 861 900
f 159 162 144
f 753 622 706
f 212 134 207
f 992 948 936
f 673 654 688
f 705 602 622
f 1014 1065 1066
f 255 198 223
f 269 177 309
f 332 283 305
f 353 292 263
f 25 22 21
f 468 463 417
f 433 521 381
f 385 328 322
f 604 568 653
f 52 13 51
f 131 66 67
f 623 587 562
f 843 774 720
f 884 870 878
f 467 496 432
f 662 634 584
f 439 451 343
f 765 703 766
f 757 600 673
f 598 516 569
f 661 638 582
f 469 404 370
f 862 896 809
f 437 428 286
f 500 522 447
f 658 725 572
f 383 318 338
f 336 265 241
f 598 573 516
f 257 223 185
f 522 525 499
f 644 626 763
f 653 657 678
f 525 559 513
f 248 253 228
f 992 936 971
f 724 754 677
f 573 544 480
f 641 596 579
f 443 405 456
f 370 361 297
f 177 47 225
f 721 639 583
f 862 778 734
f 821 779 769
f 982 981 863
f 153 152 194
f 308 340 307
f 212 179 134
f 892 812 723
f 244 171 75
f 258 219 159
f 212 207 227
f 158 154 182
f 265 244 209
f 110 96 104
f 1064 1039 916
f 239 176 268
f 779 642 769
f 1062 1039 1064
f 159 124 163
f 935 880 898
f 775 720 680
f 608 659 614
f 947 935 898
f 217 264 245
f 568 487 635
f 883 897 891
f 22 26 23
f 648 561 541
f 683 684 709
f 659 628 589
f 423 376 327
f 1066 1061 1063
f 1017 1020 1015
f 667 567 621
f 820 809 784
f 579 492 518
f 434 390 425
f 885 867 768
f 724 677 646
f 725 637 572
f 860 829 794
f 1034 1033 1024
f 364 299 333
f 1074 1029 1072
f 64 1 9
f 904 887 871
f 479 403 413
f 260 212 227
f 497 472 351
f 277 253 248
f 437 286 347
f 486 352 415
f 331 239 268
f 10 7 5
f 753 705 622
f 869 795 789
f 681 649 627
f 864 932 831
f 885 768 774
f 54 161 53
f 134 72 157
f 347 279 369
f 619 588 557
f 148 147 196
f 323 215 301
f 408 426 337
f 838 788 782
f 741 729 783
f 651 603 533
f 780 632 625
f 726 581 676
f 943 923 962
f 836 762 804
f 82 76 81
f 983 855 839
f 324 239 331
f 1049 955 940
f 944 806 906
f 279 215 323
f 460 363 366
f 483 448 402
f 930 1019 900
f 832 763 813
f 989 961 1048
f 739 738 811
f 435 322 401
f 186 119 61
f 1018 952 965
f 412 392 377
f 651 539 551
f 625 553 563
f 693 665 581
f 953 918 897
f 526 474 542
f 593 559 525
f 988 987 960
f 305 283 253
f 965 903 875
f 908 883 789
f 365 275 357
f 210 164 192
f 933 908 896
f 564 458 506
f 155 133 173
f 521 460 381
f 286 285 347
f 25 55 57
f 164 138 148
f 978 1034 1024
f 649 574 627
f 57 184 202
f 1059 1056 1060
f 143 115 118
f 819 728 792
f 861 916 844
f 701 743 764
f 404 361 370
f 597 546 686
f 765 655 620
f 336 241 221
f 296 170 306
f 623 610 587
f 774 712 679
f 494 403 507
f 718 786 715
f 699 676 618
f 807 770 756
f 772 757 822
f 735 736 690
f 750 714 697
f 975 897 883
f 571 466 519
f 229 272 169
f 295 247 298
f 654 609 645
f 618 575 507
f 459 509 581
f 642 670 598
f 1060 1057 1062
f 658 562 708
f 591 542 604
f 843 720 775
f 316 266 275
f 491 453 528
f 126 123 122
f 138 91 86
f 23 24 20
f 636 591 604
f 660 629 599
f 746 745 800
f 869 828 795
f 1054 1047 1053
f 669 635 577
f 345 291 292
f 254 189 230
f 1061 1059 1060
f 1029 830 919
f 630 559 593
f 164 139 138
f 542 474 604
f 286 145 203
f 535 433 545
f 789 883 869
f 900 861 766
f 295 261 247
f 994 996 992
f 39 37 36
f 973 972 1054
f 803 755 731
f 419 372 394
f 347 285 279
f 967 892 938
f 674 600 729
f 866 725 658
f 884 876 874
f 963 1014 1066
f 1065 1061 1066
f 695 617 624
f 259 220 324
f 1075 1072 1032
f 332 325 283
f 554 511 543
f 834 805 835
f 382 323 341
f 663 468 637
f 642 598 569
f 445 392 412
f 80 77 79
f 963 1066 1071
f 140 95 98
f 514 510 423
f 39 38 37
f 304 252 234
f 856 779 821
f 653 568 657
f 520 461 484
f 90 82 81
f 44 45 43
f 330 317 230
f 1000 948 996
f 51 10 74
f 732 709 696
f 775 730 779
f 586 592 510
f 905 914 904
f 484 461 422
f 748 681 627
f 443 462 367
f 462 394 367
f 256 216 168
f 187 166 178
f 377 317 330
f 869 891 838
f 203 62 120
f 509 357 470
f 978 966 933
f 476 414 455
f 85 83 84
f 1055 940 941
f 948 888 936
f 357 421 470
f 825 707 829
f 509 575 581
f 556 518 490
f 702 661 691
f 152 121 117
f 633 546 538
f 898 914 905
f 208 158 213
f 247 276 298
f 917 879 796
f 623 572 610
f 671 643 683
f 646 677 515
f 554 572 468
f 272 262 238
f 1023 945 952
f 51 187 197
f 884 830 870
f 287 182 280
f 469 480 404
f 399 418 452
f 896 908 809
f 258 273 219
f 841 845 744
f 529 528 476
f 1005 997 949
f 472 552 439
f 63 45 44
f 161 50 53
f 809 789 681
f 411 385 444
f 878 824 852
f 335 244 265
f 374 325 380
f 369 323 386
f 311 226 329
f 1072 1029 1071
f 506 387 466
f 904 914 887
f 180 114 143
f 804 762 737
f 813 739 811
f 710 634 662
f 353 345 292
f 373 340 308
f 850 796 780
f 835 872 834
f 213 158 182
f 788 721 705
f 435 401 498
f 667 621 672
f 745 746 700
f 552 605 451
f 190 131 132
f 591 574 526
f 493 437 501
f 1073 1070 1028
f 514 423 446
f 214 58 202
f 447 396 448
f 830 773 808
f 944 906 1002
f 36 33 113
f 842 810 716
f 681 595 649
f 985 958 939
f 1022 1018 1020
f 976 919 963
f 441 407 406
f 686 546 633
f 735 690 693
f 217 172 155
f 727 850 780
f 165 61 42
f 751 672 685
f 951 913 1040
f 757 673 688
f 46 44 41
f 722 652 707
f 1024 1022 1017
f 871 814 890
f 597 524 546
f 168 188 54
f 202 170 296
f 104 96 97
f 444 498 570
f 344 397 320
f 441 352 486
f 719 672 751
f 395 353 354
f 860 819 903
f 323 382 386
f 344 320 264
f 63 205 129
f 457 438 512
f 1011 937 1006
f 321 260 227
f 240 270 183
f 629 547 599
f 479 451 605
f 192 191 242
f 712 768 647
f 27 22 25
f 356 259 378
f 407 441 438
f 655 698 586
f 166 49 178
f 638 630 593
f 308 232 287
f 337 327 256
f 249 242 299
f 740 688 701
f 1045 930 931
f 923 823 836
f 491 565 517
f 394 372 339
f 979 978 933
f 938 825 901
f 396 377 330
f 624 617 520
f 148 84 147
f 544 490 480
f 306 288 352
f 795 828 758
f 906 907 912
f 127 125 128
f 574 496 526
f 994 992 991
f 342 331 268
f 576 656 711
f 437 427 501
f 658 708 863
f 60 36 113
f 699 618 692
f 978 1024 1027
f 152 117 151
f 576 506 540
f 882 873 907
f 718 715 638
f 750 697 660
f 278 259 356
f 1026 1023 1022
f 309 225 294
f 262 248 238
f 716 771 682
f 83 80 84
f 242 196 271
f 431 397 344
f 809 681 784
f 1069 1068 1070
f 466 355 411
f 550 532 561
f 142 141 109
f 530 529 465
f 367 339 312
f 977 1074 982
f 113 33 58
f 846 800 910
f 794 728 819
f 450 388 409
f 792 728 719
f 692 618 616
f 34 32 30
f 71 70 77
f 1006 1000 1001
f 77 72 79
f 301 296 341
f 957 909 855
f 26 24 23
f 651 533 539
f 289 312 262
f 590 570 498
f 378 259 324
f 1000 962 948
f 528 453 476
f 204 176 150
f 247 237 236
f 212 196 179
f 420 427 369
f 1001 1000 996
f 986 959 984
f 96 92 91
f 300 266 316
f 694 619 695
f 615 662 584
f 384 329 422
f 1075 1032 1035
f 1060 1056 1057
f 922 940 917
f 858 826 857
f 816 766 710
f 1051 983 956
f 467 393 474
f 886 851 858
f 361 282 297
f 626 594 566
f 376 454 375
f 584 495 505
f 776 693 726
f 209 50 161
f 221 161 188
f 1036 1035 932
f 578 572 554
f 778 636 734
f 947 988 935
f 894 857 801
f 839 767 759
f 137 90 93
f 865 756 848
f 573 556 544
f 506 458 387
f 898 856 868
f 996 994 995
f 848 756 788
f 881 872 887
f 872 881 827
f 867 800 798
f 148 86 84
f 572 637 468
f 389 344 349
f 961 909 957
f 907 873 886
f 59 56 29
f 292 218 211
f 217 245 190
f 54 20 24
f 633 690 736
f 311 227 226
f 186 61 165
f 728 711 656
f 397 334 320
f 522 499 447
f 614 659 589
f 801 726 785
f 814 854 786
f 418 374 380
f 365 316 275
f 927 959 885
f 789 795 681
f 1013 1011 1008
f 566 597 626
f 644 594 626
f 48 4 3
f 151 108 103
f 558 589 612
f 333 271 321
f 935 960 970
f 429 356 378
f 53 17 20
f 348 310 252
f 499 525 443
f 1061 1060 1063
f 571 519 567
f 105 102 106
f 843 775 853
f 867 798 768
f 837 744 845
f 998 996 995
f 207 157 156
f 621 590 672
f 937 875 877
f 466 387 342
f 618 507 616
f 826 802 735
f 154 128 153
f 885 939 867
f 1033 1031 1026
f 252 205 63
f 532 500 482
f 963 874 1014
f 986 985 939
f 1063 1062 1067
f 579 596 536
f 528 558 491
f 404 389 361
f 947 993 988
f 945 860 920
f 880 921 843
f 118 115 110
f 824 783 822
f 603 501 533
f 1048 957 983
f 136 82 90
f 714 732 696
f 44 38 41
f 31 35 30
f 95 93 94
f 51 74 187
f 1013 1018 1016
f 119 34 40
f 633 538 613
f 8 14 9
f 955 839 879
f 881 847 827
f 814 786 718
f 195 159 163
f 442 334 397
f 925 893 892
f 731 675 702
f 793 740 733
f 61 119 40
f 686 633 738
f 559 547 530
f 70 66 65
f 368 269 309
f 307 273 258
f 663 585 468
f 552 472 553
f 889 941 850
f 741 689 729
f 1053 1047 1051
f 711 707 576
f 1006 962 1000
f 144 162 143
f 693 581 726
f 446 391 337
f 781 660 715
f 175 137 140
f 481 425 398
f 981 1074 980
f 806 733 764
f 23 20 22
f 693 690 665
f 647 745 700
f 238 174 169
f 603 689 741
f 890 904 871
f 708 562 603
f 769 742 790
f 554 503 511
f 254 263 189
f 134 79 72
f 702 744 731
f 1056 1055 1057
f 318 231 273
f 531 457 512
f 595 541 502
f 345 326 291
f 324 220 239
f 1039 889 916
f 698 727 666
f 656 576 571
f 651 551 674
f 551 531 512
f 613 538 545
f 787 791 732
f 141 101 105
f 474 393 410
f 449 483 402
f 1035 1032 932
f 371 319 374
f 854 835 817
f 802 736 735
f 241 209 161
f 949 905 899
f 582 638 593
f 499 443 456
f 166 74 49
f 131 146 66
f 155 68 69
f 291 289 272
f 716 682 663
f 231 180 162
f 729 689 674
f 215 214 301
f 822 757 818
f 874 815 913
f 743 752 832
f 37 38 31
f 641 579 556
f 202 184 170
f 68 132 67
f 85 84 86
f 733 701 764
f 466 411 519
f 742 749 790
f 525 513 443
f 610 572 578
f 886 858 894
f 487 458 577
f 193 120 60
f 907 886 894
f 266 236 197
f 343 274 244
f 271 212 260
f 549 586 514
f 783 772 822
f 151 103 150
f 748 636 778
f 1021 1024 1017
f 733 740 701
f 946 860 945
f 186 257 185
f 671 713 642
f 705 583 602
f 997 995 993
f 216 188 168
f 1072 1073 1032
f 5 7 4
f 608 696 659
f 432 436 338
f 372 358 305
f 358 332 305
f 428 348 360
f 795 758 747
f 51 13 11
f 942 1004 1005
f 150 103 149
f 285 203 224
f 694 640 619
f 873 813 851
f 961 924 909
f 461 384 422
f 1045 1044 930
f 1053 1051 1055
f 349 315 361
f 780 625 727
f 990 991 986
f 1039 1038 889
f 508 481 520
f 683 643 628
f 882 859 873
f 1002 906 912
f 777 727 698
f 400 364 434
f 57 28 25
f 191 148 196
f 123 118 116
f 99 94 96
f 1016 1018 965
f 812 704 723
f 725 842 716
f 299 271 333
f 465 419 462
f 762 694 737
f 366 350 381
f 639 582 583
f 146 65 66
f 22 19 21
f 1008 1006 1001
f 717 616 650
f 933 896 862
f 1010 1013 1008
f 880 853 856
f 227 207 226
f 506 466 540
f 664 605 552
f 502 483 449
f 123 116 122
f 529 537 528
f 947 898 905
f 798 745 647
f 946 901 860
f 898 868 881
f 377 392 354
f 195 163 158
f 992 971 985
f 681 668 595
f 327 376 216
f 281 329 226
f 319 283 325
f 381 362 379
f 523 401 477
f 602 583 560
f 954 925 967
f 1068 1019 1044
f 743 832 859
f 756 721 788
f 164 148 192
f 928 915 841
f 270 240 283
f 811 802 840
f 454 497 351
f 392 416 395
f 685 640 694
f 465 476 455
f 701 687 743
f 206 130 145
f 932 931 831
f 352 313 415
f 970 921 880
f 780 796 664
f 585 646 450
f 188 161 54
f 143 114 115
f 986 939 959
f 302 233 286
f 851 811 840
f 270 297 235
f 934 947 905
f 976 963 1071
f 233 234 206
f 59 29 32
f 301 214 296
f 973 912 972
f 968 1033 1034
f 964 1017 974
f 847 821 790
f 658 572 623
f 105 101 102
f 831 895 754
f 942 899 915
f 980 1074 1075
f 968 893 954
f 671 642 569
f 102 99 96
f 459 433 365
f 940 955 917
f 502 449 436
f 18 16 13
f 888 804 846
f 183 133 135
f 139 97 91
f 825 829 901
f 393 280 410
f 459 365 357
f 727 625 666
f 670 607 598
f 1038 1003 889
f 883 891 869
f 236 52 197
f 58 57 202
f 170 284 306
f 104 97 103
f 803 814 755
f 516 573 480
f 646 515 450
f 1031 938 946
f 390 333 321
f 236 266 276
f 950 928 974
f 11 6 7
f 1072 1070 1073
f 230 189 199
f 1016 937 1011
f 697 608 629
f 1073 1028 1030
f 288 295 313
f 721 583 705
f 145 62 203
f 1042 916 926
f 478 386 457
f 834 827 791
f 132 131 67
f 413 294 343
f 201 164 210
f 96 91 97
f 472 335 351
f 322 328 267
f 176 250 268
f 610 578 587
f 949 934 905
f 275 187 178
f 410 356 429
f 107 106 102
f 723 669 722
f 590 601 672
f 647 611 536
f 793 688 740
f 338 318 273
f 498 401 523
f 407 341 406
f 294 225 274
f 501 427 420
f 769 642 713
f 975 883 966
f 150 149 201
f 103 97 149
f 125 121 152
f 190 200 131
f 700 611 647
f 8 9 1
f 18 21 16
f 439 343 335
f 911 801 785
f 1006 937 943
f 625 632 553
f 285 224 279
f 237 52 236
f 891 897 865
f 831 931 895
f 927 843 921
f 510 534 454
f 616 507 479
f 309 177 225
f 669 577 722
f 361 315 282
f 282 264 217
f 442 397 431
f 830 884 919
f 235 173 183
f 617 557 580
f 1054 1052 1047
f 952 920 903
f 609 594 645
f 796 879 759
f 957 855 983
f 454 351 375
f 51 11 10
f 950 942 915
f 147 79 134
f 1025 946 945
f 684 628 659
f 49 4 48
f 1066 1063 1068
f 546 521 538
f 185 59 119
f 109 102 110
f 203 120 224
f 217 190 172
f 810 864 771
f 516 469 485
f 730 670 642
f 895 816 754
f 159 144 124
f 816 710 754
f 533 420 504
f 62 41 39
f 588 473 557
f 860 794 819
f 41 38 39
f 987 990 986
f 282 315 264
f 280 278 356
f 652 564 576
f 596 647 536
f 578 554 543
f 328 250 222
f 459 357 509
f 1015 1020 1013
f 543 511 493
f 219 231 162
f 426 446 337
f 314 364 400
f 1052 1048 1047
f 457 386 438
f 36 31 33
f 690 613 665
f 87 18 52
f 903 819 875
f 84 79 147
f 944 1002 1058
f 760 624 746
f 400 434 473
f 691 661 639
f 303 368 421
f 447 499 445
f 231 293 243
f 892 723 825
f 950 1004 942
f 844 777 655
f 657 635 669
f 615 584 505
f 899 890 837
f 1068 1063 1067
f 42 61 40
f 1020 1018 1013
f 358 380 325
f 145 41 62
f 101 100 99
f 876 852 818
f 811 738 736
f 854 887 835
f 151 117 108
f 220 194 152
f 149 139 164
f 290 388 257
f 681 795 747
f 595 648 541
f 536 527 464
f 964 974 918
f 729 600 772
f 1041 1064 916
f 193 60 215
f 399 370 371
f 1055 1051 1050
f 1048 961 957
f 763 626 739
f 784 681 748
f 510 454 423
f 863 830 977
f 1044 1019 930
f 545 581 665
f 339 277 312
f 592 563 534
f 1068 1067 1043
f 436 383 338
f 503 468 430
f 141 167 140
f 1021 1017 953
f 833 820 778
f 198 168 59
f 248 228 238
f 137 93 95
f 110 104 111
f 902 958 910
f 760 746 800
f 612 643 565
f 503 430 428
f 524 488 521
f 606 641 556
f 868 856 821
f 666 563 592
f 7 6 3
f 734 636 604
f 818 793 876
f 704 669 723
f 58 28 57
f 863 981 842
f 844 889 777
f 22 20 19
f 360 304 302
f 1049 956 955
f 100 98 99
f 459 581 545
f 98 95 99
f 980 1037 810
f 536 611 527
f 861 844 765
f 246 282 217
f 1032 1030 932
f 744 702 770
f 1007 1008 1001
f 858 840 802
f 664 759 605
f 997 998 995
f 1008 1011 1006
f 418 380 414
f 961 911 924
f 834 787 805
f 379 362 316
f 846 910 929
f 191 192 148
f 803 731 744
f 297 282 235
f 33 31 28
f 991 992 985
f 93 88 94
f 169 272 238
f 354 392 395
f 451 413 343
f 89 86 91
f 574 595 502
f 10 5 49
f 988 993 987
f 1026 1025 1023
f 619 617 695
f 74 166 187
f 244 274 171
f 654 645 688
f 722 577 652
f 864 831 771
f 200 156 146
f 754 710 662
f 513 530 462
f 134 157 207
f 688 645 701
f 935 970 880
f 584 549 495
f 453 452 418
f 777 850 727
f 76 71 77
f 350 298 300
f 430 348 428
f 56 24 29
f 334 281 245
f 386 382 438
f 69 68 71
f 78 73 76
f 1046 830 1029
f 626 597 739
f 1050 1049 940
f 825 722 707
f 1046 1029 977
f 402 396 330
f 184 87 170
f 915 837 845
f 512 548 551
f 764 859 882
f 88 81 83
f 312 277 262
f 449 402 383
f 692 616 717
f 928 950 915
f 670 680 607
f 473 481 508
f 270 235 183
f 715 660 630
f 447 412 396
f 143 118 144
f 774 768 712
f 539 478 531
f 751 685 762
f 815 733 806
f 173 246 155
f 604 474 568
f 918 928 841
f 1002 973 1058
f 526 467 474
f 734 604 704
f 603 651 689
f 909 692 855
f 781 750 660
f 177 49 48
f 221 241 161
f 836 797 762
f 268 250 355
f 1037 864 810
f 813 811 851
f 141 105 106
f 35 34 30
f 372 305 339
f 408 337 346
f 997 1004 998
f 180 143 162
f 409 388 290
f 730 775 680
f 232 208 213
f 299 242 271
f 578 543 587
f 360 286 428
f 680 679 606
f 445 416 392
f 205 165 129
f 902 800 867
f 1037 1036 864
f 1074 1072 1075
f 569 485 517
f 962 888 948
f 922 917 796
f 1007 1001 998
f 728 656 667
f 944 1058 1061
f 16 6 12
f 15 14 8
f 59 168 56
f 31 27 28
f 742 683 749
f 496 436 432
f 289 262 272
f 1053 1055 1056
f 375 336 221
f 790 749 791
f 571 567 667
f 1012 1004 950
f 588 523 473
f 267 210 249
f 178 269 303
f 529 476 465
f 583 582 525
f 810 771 716
f 292 229 218
f 699 692 785
f 292 211 263
f 225 47 171
f 472 439 335
f 614 589 537
f 713 683 742
f 648 622 561
f 597 686 739
f 389 431 344
f 182 154 153
f 427 347 369
f 1014 951 1065
f 405 367 326
f 154 126 127
f 19 20 17
f 44 43 38
f 481 461 520
f 509 470 555
f 968 862 849
f 440 370 399
f 210 192 249
f 391 423 327
f 405 326 345
f 349 344 264
f 966 883 908
f 495 446 426
f 712 596 641
f 916 889 844
f 471 475 431
f 327 216 256
f 464 527 422
f 942 1005 949
f 969 984 927
f 926 916 861
f 918 841 897
f 591 526 542
f 224 193 279
f 952 903 965
f 601 523 588
f 849 734 812
f 182 251 278
f 354 263 317
f 55 25 18
f 805 761 750
f 1071 1066 1069
f 1057 941 1003
f 216 221 188
f 949 997 999
f 855 717 839
f 871 854 814
f 882 907 906
f 585 450 463
f 390 321 398
f 954 967 1033
f 424 405 345
f 130 44 46
f 432 338 340
f 104 103 108
f 975 1027 1021
f 142 112 114
f 222 201 267
f 38 43 40
f 549 514 446
f 170 52 237
f 486 415 488
f 81 76 83
f 1009 1007 1004
f 363 313 298
f 818 688 793
f 484 422 527
f 376 375 221
f 401 400 477
f 206 63 130
f 587 493 562
f 288 261 295
f 421 357 303
f 63 129 45
f 980 810 842
f 59 32 34
f 563 553 497
f 1019 926 900
f 518 492 475
f 488 460 521
f 913 815 806
f 710 703 634
f 817 750 781
f 863 708 830
f 253 283 240
f 868 821 847
f 959 939 885
f 135 133 78
f 130 63 44

