v -2 -2 -0.17999999999999999
v -2 -1.8999999999999999 -0.19400000000000001
v -2 -1.8 -0.20799999999999996
v -2 -1.7 -0.222
v -2 -1.6000000000000001 -0.23599999999999999
v -2 -1.2999999999999998 -0.27800000000000002
v -2 -1.2 -0.29200000000000004
v -2 -1.1000000000000001 -0.30599999999999999
v -2 -0.79999999999999982 -0.34800000000000003
v -2 -0.69999999999999996 -0.36199999999999999
v -2 -0.59999999999999987 -0.376
v -2 -0.5 -0.39000000000000001
v -2 -0.29999999999999982 -0.41800000000000004
v -2 -0.19999999999999996 -0.43200000000000005
v -2 -0.099999999999999867 -0.44600000000000006
v -2 0 -0.46000000000000002
v -2 0.20000000000000018 -0.48800000000000004
v -2 0.30000000000000027 -0.50200000000000011
v -2 0.40000000000000036 -0.51600000000000013
v -2 0.5 -0.53000000000000003
v -2 0.90000000000000036 -0.58600000000000008
v -2 1 -0.60000000000000009
v -2 1.4000000000000004 -0.65600000000000014
v -2 1.5 -0.67000000000000004
v -2 1.9000000000000004 -0.72600000000000009
v -2 2 -0.73999999999999999
v -1.8999999999999999 -2 -0.15699999999999997
v -1.8999999999999999 -1.8999999999999999 -0.17099999999999999
v -1.8999999999999999 -1.8 -0.18499999999999994
v -1.8999999999999999 -1.7 -0.19899999999999998
v -1.8999999999999999 -1.6000000000000001 -0.21299999999999997
v -1.8999999999999999 -1.2999999999999998 -0.255
v -1.8999999999999999 -1.2 -0.26900000000000002
v -1.8999999999999999 -1.1000000000000001 -0.28299999999999997
v -1.8999999999999999 -0.79999999999999982 -0.32500000000000001
v -1.8999999999999999 -0.69999999999999996 -0.33899999999999997
v -1.8999999999999999 -0.59999999999999987 -0.35299999999999998
v -1.8999999999999999 -0.5 -0.36699999999999999
v -1.8999999999999999 -0.29999999999999982 -0.39500000000000002
v -1.8999999999999999 -0.19999999999999996 -0.40900000000000003
v -1.8999999999999999 -0.099999999999999867 -0.42300000000000004
v -1.8999999999999999 0 -0.437
v -1.8999999999999999 0.30000000000000027 -0.47900000000000004
v -1.8999999999999999 0.40000000000000036 -0.49300000000000005
v -1.8999999999999999 0.5 -0.50700000000000001
v -1.8999999999999999 0.60000000000000009 -0.52100000000000002
v -1.8999999999999999 0.90000000000000036 -0.56300000000000006
v -1.8999999999999999 1 -0.57699999999999996
v -1.8999999999999999 1.4000000000000004 -0.63300000000000001
v -1.8999999999999999 1.5 -0.64700000000000002
v -1.8999999999999999 1.9000000000000004 -0.70300000000000007
v -1.8999999999999999 2 -0.71700000000000008
v -1.8 -2 -0.13400000000000001
v -1.8 -1.8999999999999999 -0.14800000000000002
v -1.8 -1.8 -0.16199999999999998
v -1.8 -1.7 -0.17600000000000002
v -1.8 -1.6000000000000001 -0.19
v -1.8 -1.2999999999999998 -0.23200000000000004
v -1.8 -1.2 -0.24600000000000002
v -1.8 -1.1000000000000001 -0.26000000000000001
v -1.8 -0.79999999999999982 -0.30200000000000005
v -1.8 -0.69999999999999996 -0.31600000000000006
v -1.8 -0.59999999999999987 -0.33000000000000007
v -1.8 -0.5 -0.34400000000000003
v -1.8 -0.29999999999999982 -0.37200000000000005
v -1.8 -0.19999999999999996 -0.38600000000000001
v -1.8 -0.099999999999999867 -0.40000000000000008
v -1.8 0 -0.41400000000000003
v -1.8 0.40000000000000036 -0.47000000000000008
v -1.8 0.5 -0.48400000000000004
v -1.8 0.60000000000000009 -0.49800000000000005
v -1.8 0.70000000000000018 -0.51200000000000001
v -1.8 0.90000000000000036 -0.54000000000000004
v -1.8 1 -0.55400000000000005
v -1.8 1.4000000000000004 -0.6100000000000001
v -1.8 1.5 -0.62400000000000011
v -1.8 1.9000000000000004 -0.68000000000000016
v -1.8 2 -0.69400000000000006
v -1.7 -2 -0.11099999999999999
v -1.7 -1.8999999999999999 -0.125
v -1.7 -1.8 -0.13899999999999996
v -1.7 -1.7 -0.153
v -1.7 -1.6000000000000001 -0.16699999999999998
v -1.7 -1.2999999999999998 -0.20900000000000002
v -1.7 -1.1000000000000001 -0.23699999999999999
v -1.7 -0.79999999999999982 -0.27900000000000003
v -1.7 -0.69999999999999996 -0.29300000000000004
v -1.7 -0.59999999999999987 -0.30700000000000005
v -1.7 -0.5 -0.32100000000000001
v -1.7 -0.29999999999999982 -0.34900000000000003
v -1.7 -0.19999999999999996 -0.36299999999999999
v -1.7 -0.099999999999999867 -0.37700000000000006
v -1.7 0 -0.39100000000000001
v -1.7 0.40000000000000036 -0.44700000000000006
v -1.7 0.5 -0.46100000000000002
v -1.7 0.70000000000000018 -0.48900000000000005
v -1.7 0.80000000000000027 -0.50300000000000011
v -1.7 0.90000000000000036 -0.51700000000000013
v -1.7 1 -0.53100000000000003
v -1.7 1.4000000000000004 -0.58700000000000008
v -1.7 1.5 -0.60099999999999998
v -1.7 1.9000000000000004 -0.65700000000000003
v -1.7 2 -0.67100000000000004
v -1.6000000000000001 -2 -0.088000000000000023
v -1.6000000000000001 -1.8999999999999999 -0.10200000000000004
v -1.6000000000000001 -1.8 -0.11599999999999999
v -1.6000000000000001 -1.7 -0.13000000000000003
v -1.6000000000000001 -1.6000000000000001 -0.14400000000000002
v -1.6000000000000001 -1.2999999999999998 -0.18600000000000005
v -1.6000000000000001 -1.1000000000000001 -0.21400000000000002
v -1.6000000000000001 -0.79999999999999982 -0.25600000000000006
v -1.6000000000000001 -0.69999999999999996 -0.27000000000000002
v -1.6000000000000001 -0.59999999999999987 -0.28400000000000003
v -1.6000000000000001 -0.5 -0.29800000000000004
v -1.6000000000000001 -0.29999999999999982 -0.32600000000000007
v -1.6000000000000001 -0.19999999999999996 -0.34000000000000008
v -1.6000000000000001 -0.099999999999999867 -0.35400000000000009
v -1.6000000000000001 0 -0.36800000000000005
v -1.6000000000000001 0.40000000000000036 -0.4240000000000001
v -1.6000000000000001 0.5 -0.43800000000000006
v -1.6000000000000001 0.80000000000000027 -0.48000000000000009
v -1.6000000000000001 0.90000000000000036 -0.49400000000000011
v -1.6000000000000001 1 -0.50800000000000001
v -1.6000000000000001 1.1000000000000001 -0.52200000000000002
v -1.6000000000000001 1.4000000000000004 -0.56400000000000006
v -1.6000000000000001 1.5 -0.57800000000000007
v -1.6000000000000001 1.9000000000000004 -0.63400000000000012
v -1.6000000000000001 2 -0.64800000000000013
v -1.5 -0.69999999999999996 -0.24700000000000003
v -1.5 -0.59999999999999987 -0.26100000000000001
v -1.5 1 -0.48500000000000004
v -1.5 1.1000000000000001 -0.49900000000000005
v -1.5 1.2000000000000002 -0.51300000000000012
v -1.5 1.4000000000000004 -0.54100000000000015
v -1.5 1.5 -0.55500000000000005
v -1.5 1.9000000000000004 -0.6110000000000001
v -1.5 2 -0.625
v -1.3999999999999999 -0.59999999999999987 -0.23800000000000002
v -1.3999999999999999 -0.5 -0.252
v -1.3999999999999999 1.2000000000000002 -0.49000000000000005
v -1.3999999999999999 1.3000000000000003 -0.504
v -1.3999999999999999 1.4000000000000004 -0.51800000000000002
v -1.3999999999999999 1.5 -0.53200000000000003
v -1.3999999999999999 1.9000000000000004 -0.58800000000000008
v -1.3999999999999999 2 -0.60200000000000009
v -1.2999999999999998 -2 -0.018999999999999961
v -1.2999999999999998 -1.8999999999999999 -0.032999999999999974
v -1.2999999999999998 -1.8 -0.046999999999999931
v -1.2999999999999998 -1.7 -0.060999999999999971
v -1.2999999999999998 -1.6000000000000001 -0.074999999999999956
v -1.2999999999999998 -0.59999999999999987 -0.215
v -1.2999999999999998 -0.5 -0.22899999999999998
v -1.2999999999999998 -0.29999999999999982 -0.25700000000000001
v -1.2999999999999998 -0.19999999999999996 -0.27100000000000002
v -1.2999999999999998 -0.099999999999999867 -0.28500000000000003
v -1.2999999999999998 0 -0.29899999999999999
v -1.2999999999999998 0.40000000000000036 -0.35500000000000004
v -1.2999999999999998 0.5 -0.36899999999999999
v -1.2999999999999998 0.90000000000000036 -0.42500000000000004
v -1.2999999999999998 1 -0.439
v -1.2999999999999998 1.3000000000000003 -0.48100000000000004
v -1.2999999999999998 1.4000000000000004 -0.49500000000000005
v -1.2999999999999998 1.5 -0.50900000000000001
v -1.2999999999999998 1.9000000000000004 -0.56500000000000006
v -1.2999999999999998 2 -0.57899999999999996
v -1.2 -0.19999999999999996 -0.24800000000000003
v -1.2 -0.099999999999999867 -0.26200000000000007
v -1.2 1.5 -0.48600000000000004
v -1.2 1.6000000000000001 -0.5
v -1.2 1.9000000000000004 -0.54200000000000004
v -1.2 2 -0.55600000000000005
v -1.1000000000000001 -2 0.026999999999999968
v -1.1000000000000001 -1.8999999999999999 0.012999999999999956
v -1.1000000000000001 -1.8 -0.0010000000000000009
v -1.1000000000000001 -1.7 -0.015000000000000041
v -1.1000000000000001 -1.6000000000000001 -0.029000000000000026
v -1.1000000000000001 -0.29999999999999982 -0.21100000000000008
v -1.1000000000000001 -0.19999999999999996 -0.22500000000000006
v -1.1000000000000001 -0.099999999999999867 -0.23900000000000007
v -1.1000000000000001 0 -0.25300000000000006
v -1.1000000000000001 0.10000000000000009 -0.26700000000000007
v -1.1000000000000001 0.40000000000000036 -0.30900000000000011
v -1.1000000000000001 0.5 -0.32300000000000006
v -1.1000000000000001 0.90000000000000036 -0.37900000000000011
v -1.1000000000000001 1 -0.39300000000000007
v -1.1000000000000001 1.4000000000000004 -0.44900000000000012
v -1.1000000000000001 1.5 -0.46300000000000008
v -1.1000000000000001 1.6000000000000001 -0.47700000000000009
v -1.1000000000000001 1.9000000000000004 -0.51900000000000013
v -1.1000000000000001 2 -0.53300000000000014
v -1 -2 0.050000000000000017
v -1 -1.8999999999999999 0.036000000000000004
v -1 -1.8 0.022000000000000047
v -1 -1.7 0.0080000000000000071
v -1 -1.6000000000000001 -0.0059999999999999776
v -1 -0.29999999999999982 -0.18800000000000003
v -1 -0.19999999999999996 -0.20200000000000001
v -1 -0.099999999999999867 -0.21600000000000003
v -1 0 -0.23000000000000001
v -1 0.10000000000000009 -0.24400000000000002
v -1 0.20000000000000018 -0.25800000000000006
v -1 0.30000000000000027 -0.27200000000000008
v -1 1 -0.37
v -1 1.4000000000000004 -0.42600000000000005
v -1 1.5 -0.44000000000000006
v -1 2 -0.51000000000000001
v -0.89999999999999991 0.20000000000000018 -0.23500000000000001
v -0.89999999999999991 0.30000000000000027 -0.24900000000000003
v -0.89999999999999991 0.40000000000000036 -0.26300000000000007
v -0.79999999999999982 -2 0.096000000000000058
v -0.79999999999999982 -1.8999999999999999 0.082000000000000045
v -0.79999999999999982 -1.8 0.068000000000000088
v -0.79999999999999982 -1.7 0.054000000000000048
v -0.79999999999999982 -1.6000000000000001 0.040000000000000063
v -0.79999999999999982 -0.099999999999999867 -0.16999999999999998
v -0.79999999999999982 0 -0.18399999999999997
v -0.79999999999999982 0.40000000000000036 -0.24000000000000002
v -0.79999999999999982 0.5 -0.254
v -0.79999999999999982 0.60000000000000009 -0.26800000000000002
v -0.79999999999999982 0.90000000000000036 -0.31000000000000005
v -0.79999999999999982 1 -0.32399999999999995
v -0.79999999999999982 1.4000000000000004 -0.38
v -0.79999999999999982 1.5 -0.39400000000000002
v -0.79999999999999982 1.9000000000000004 -0.45000000000000007
v -0.79999999999999982 2 -0.46399999999999997
v -0.69999999999999996 -2 0.11900000000000002
v -0.69999999999999996 -1.8999999999999999 0.10500000000000001
v -0.69999999999999996 -1.8 0.091000000000000053
v -0.69999999999999996 -1.7 0.077000000000000013
v -0.69999999999999996 -1.6000000000000001 0.063000000000000028
v -0.69999999999999996 0 -0.161
v -0.69999999999999996 0.40000000000000036 -0.21700000000000005
v -0.69999999999999996 0.5 -0.23100000000000001
v -0.69999999999999996 0.60000000000000009 -0.24500000000000002
v -0.69999999999999996 0.70000000000000018 -0.25900000000000001
v -0.69999999999999996 0.90000000000000036 -0.28700000000000003
v -0.69999999999999996 1 -0.30100000000000005
v -0.69999999999999996 1.4000000000000004 -0.3570000000000001
v -0.69999999999999996 1.5 -0.371
v -0.69999999999999996 1.9000000000000004 -0.42700000000000005
v -0.69999999999999996 2 -0.44100000000000006
v -0.59999999999999987 -2 0.14200000000000004
v -0.59999999999999987 -1.8999999999999999 0.12800000000000003
v -0.59999999999999987 -1.8 0.11400000000000007
v -0.59999999999999987 -1.7 0.10000000000000003
v -0.59999999999999987 -1.6000000000000001 0.086000000000000049
v -0.59999999999999987 0.70000000000000018 -0.23600000000000002
v -0.59999999999999987 0.80000000000000027 -0.25
v -0.59999999999999987 0.90000000000000036 -0.26400000000000001
v -0.59999999999999987 1 -0.27800000000000002
v -0.59999999999999987 1.4000000000000004 -0.33400000000000007
v -0.59999999999999987 1.5 -0.34799999999999998
v -0.59999999999999987 1.9000000000000004 -0.40400000000000003
v -0.59999999999999987 2 -0.41800000000000004
v -0.5 -2 0.16500000000000004
v -0.5 -1.8999999999999999 0.15100000000000002
v -0.5 -1.8 0.13700000000000007
v -0.5 -1.7 0.12300000000000001
v -0.5 -1.6000000000000001 0.10900000000000003
v -0.5 -1.2999999999999998 0.06699999999999999
v -0.5 0.80000000000000027 -0.22700000000000004
v -0.5 0.90000000000000036 -0.24100000000000005
v -0.5 1 -0.255
v -0.5 1.4000000000000004 -0.31100000000000005
v -0.5 1.5 -0.32500000000000001
v -0.5 1.9000000000000004 -0.38100000000000006
v -0.5 2 -0.39500000000000002
v -0.39999999999999991 -1.7 0.14600000000000002
v -0.39999999999999991 -1.6000000000000001 0.13200000000000006
v -0.39999999999999991 -1.5 0.11800000000000004
v -0.39999999999999991 -1.3999999999999999 0.10400000000000002
v -0.29999999999999982 -2 0.21100000000000008
v -0.29999999999999982 -1.8999999999999999 0.19700000000000006
v -0.29999999999999982 -1.8 0.18300000000000011
v -0.29999999999999982 -1.7 0.16900000000000004
v -0.29999999999999982 -1.6000000000000001 0.15500000000000008
v -0.29999999999999982 -1.5 0.14100000000000007
v -0.29999999999999982 -1.3999999999999999 0.12700000000000006
v -0.29999999999999982 -1.2999999999999998 0.11300000000000003
v -0.29999999999999982 -1.1000000000000001 0.085000000000000062
v -0.29999999999999982 0.90000000000000036 -0.19500000000000001
v -0.29999999999999982 1 -0.20899999999999996
v -0.29999999999999982 1.4000000000000004 -0.26500000000000001
v -0.29999999999999982 1.5 -0.27899999999999997
v -0.29999999999999982 1.9000000000000004 -0.33500000000000002
v -0.29999999999999982 2 -0.34899999999999998
v -0.19999999999999996 -2 0.23400000000000004
v -0.19999999999999996 -1.8999999999999999 0.22000000000000003
v -0.19999999999999996 -1.8 0.20600000000000007
v -0.19999999999999996 -1.7 0.19200000000000003
v -0.19999999999999996 -1.6000000000000001 0.17800000000000005
v -0.19999999999999996 -1.2999999999999998 0.13600000000000001
v -0.19999999999999996 -1.1000000000000001 0.10800000000000004
v -0.19999999999999996 0.90000000000000036 -0.17200000000000004
v -0.19999999999999996 1 -0.186
v -0.19999999999999996 1.4000000000000004 -0.24200000000000005
v -0.19999999999999996 1.5 -0.25600000000000001
v -0.19999999999999996 1.9000000000000004 -0.31200000000000006
v -0.19999999999999996 2 -0.32600000000000001
v -0.099999999999999867 -2 0.25700000000000006
v -0.099999999999999867 -1.8999999999999999 0.24300000000000005
v -0.099999999999999867 -1.8 0.22900000000000009
v -0.099999999999999867 -1.7 0.21500000000000005
v -0.099999999999999867 -1.6000000000000001 0.20100000000000007
v -0.099999999999999867 -1.2999999999999998 0.15900000000000003
v -0.099999999999999867 -1.1000000000000001 0.13100000000000006
v -0.099999999999999867 0.90000000000000036 -0.14900000000000002
v -0.099999999999999867 1 -0.16299999999999998
v -0.099999999999999867 1.4000000000000004 -0.21900000000000003
v -0.099999999999999867 1.5 -0.23299999999999998
v -0.099999999999999867 1.9000000000000004 -0.28900000000000003
v -0.099999999999999867 2 -0.30299999999999999
v 0 -2 0.28000000000000003
v 0 -1.8999999999999999 0.26600000000000001
v 0 -1.8 0.25200000000000006
v 0 -1.7 0.23800000000000002
v 0 -1.6000000000000001 0.22400000000000003
v 0 -1.2999999999999998 0.182
v 0 -1.1000000000000001 0.15400000000000003
v 0 0.90000000000000036 -0.12600000000000006
v 0 1 -0.14000000000000001
v 0 1.4000000000000004 -0.19600000000000006
v 0 1.5 -0.21000000000000002
v 0 1.9000000000000004 -0.26600000000000007
v 0 2 -0.28000000000000003
v 0.10000000000000009 -1.7 0.26100000000000001
v 0.10000000000000009 -1.6000000000000001 0.24700000000000005
v 0.30000000000000027 -1.2999999999999998 0.25100000000000006
v 0.40000000000000036 -2 0.37200000000000011
v 0.40000000000000036 -1.8999999999999999 0.3580000000000001
v 0.40000000000000036 -1.8 0.34400000000000014
v 0.40000000000000036 -1.7 0.33000000000000007
v 0.40000000000000036 -1.6000000000000001 0.31600000000000011
v 0.40000000000000036 1.4000000000000004 -0.10399999999999998
v 0.40000000000000036 1.5 -0.11799999999999994
v 0.40000000000000036 1.7000000000000002 -0.14599999999999996
v 0.40000000000000036 1.9000000000000004 -0.17399999999999999
v 0.40000000000000036 2 -0.18799999999999994
v 0.5 -2 0.39500000000000002
v 0.5 -1.8999999999999999 0.38100000000000001
v 0.5 -1.8 0.36700000000000005
v 0.5 -1.7 0.35300000000000004
v 0.5 -1.6000000000000001 0.33900000000000002
v 0.5 1.4000000000000004 -0.081000000000000058
v 0.5 1.5 -0.095000000000000015
v 0.5 1.7000000000000002 -0.12300000000000004
v 0.5 1.8000000000000003 -0.13700000000000007
v 0.5 1.9000000000000004 -0.15100000000000008
v 0.5 2 -0.16500000000000004
v 0.60000000000000009 -1.8 0.39000000000000012
v 0.60000000000000009 -1.7 0.37600000000000006
v 0.60000000000000009 1.4000000000000004 -0.058000000000000024
v 0.60000000000000009 1.5 -0.071999999999999981
v 0.60000000000000009 1.8000000000000003 -0.11400000000000002
v 0.60000000000000009 1.9000000000000004 -0.12800000000000003
v 0.60000000000000009 2 -0.14199999999999999
v 0.90000000000000036 -2 0.4870000000000001
v 0.90000000000000036 -1.8999999999999999 0.47300000000000009
v 0.90000000000000036 -1.8 0.45900000000000019
v 0.90000000000000036 1.5 -0.0029999999999999194
v 0.90000000000000036 1.9000000000000004 -0.058999999999999969
v 0.90000000000000036 2 -0.072999999999999926
v 1 -2 0.51000000000000001
v 1 -1.8999999999999999 0.496
v 1 -1.8 0.4820000000000001
v 1 0 0.23000000000000001
v 1 1.9000000000000004 -0.03600000000000006
v 1 2 -0.050000000000000017
v 1.1000000000000001 -2 0.53300000000000014
v 1.1000000000000001 -1.8999999999999999 0.51900000000000013
v 1.1000000000000001 -1.8 0.50500000000000012
v 1.1000000000000001 0 0.25300000000000006
v 1.1000000000000001 1.9000000000000004 -0.013000000000000012
v 1.1000000000000001 2 -0.026999999999999968
v 1.2000000000000002 -2 0.55600000000000005
v 1.2000000000000002 -1.8999999999999999 0.54200000000000004
v 1.2000000000000002 -1.8 0.52800000000000014
v 1.3000000000000003 -2 0.57900000000000018
v 1.3000000000000003 -1.8999999999999999 0.56500000000000017
v 1.3000000000000003 -1.8 0.55100000000000016
v 1.4000000000000004 -2 0.60200000000000009
v 1.4000000000000004 -1.8999999999999999 0.58800000000000008
v 1.4000000000000004 -1.8 0.57400000000000018
v 1.4000000000000004 -0.29999999999999982 0.3640000000000001
v 1.4000000000000004 -0.19999999999999996 0.35000000000000009
v 1.4000000000000004 -0.099999999999999867 0.33600000000000008
v 1.4000000000000004 0 0.32200000000000012
v 1.4000000000000004 0.40000000000000036 0.26600000000000007
v 1.4000000000000004 0.5 0.25200000000000011
v 1.4000000000000004 1.5 0.1120000000000001
v 1.4000000000000004 1.9000000000000004 0.05600000000000005
v 1.4000000000000004 2 0.042000000000000093
v 1.5 -2 0.625
v 1.5 -1.8999999999999999 0.61099999999999999
v 1.5 -1.8 0.59700000000000009
v 1.5 -1.7 0.58300000000000007
v 1.5 -0.29999999999999982 0.38700000000000001
v 1.5 -0.19999999999999996 0.373
v 1.5 -0.099999999999999867 0.35899999999999999
v 1.5 0 0.34500000000000003
v 1.5 0.40000000000000036 0.28899999999999998
v 1.5 0.5 0.27500000000000002
v 1.5 1.4000000000000004 0.14899999999999997
v 1.5 1.5 0.13500000000000001
v 1.5 1.9000000000000004 0.078999999999999959
v 1.5 2 0.065000000000000002
v 1.6000000000000001 -2 0.64800000000000013
v 1.6000000000000001 -1.8999999999999999 0.63400000000000012
v 1.6000000000000001 -1.8 0.62000000000000011
v 1.7000000000000002 -2 0.67100000000000004
v 1.7000000000000002 -1.8999999999999999 0.65700000000000003
v 1.7000000000000002 -1.8 0.64300000000000013
v 1.8000000000000003 -2 0.69400000000000017
v 1.8000000000000003 -1.8999999999999999 0.68000000000000016
v 1.8000000000000003 -1.8 0.66600000000000015
v 1.8000000000000003 -1.2 0.58200000000000007
v 1.8000000000000003 -1.1000000000000001 0.56800000000000006
v 1.8000000000000003 -0.79999999999999982 0.52600000000000002
v 1.8000000000000003 -0.69999999999999996 0.51200000000000012
v 1.9000000000000004 -2 0.71700000000000008
v 1.9000000000000004 -1.8999999999999999 0.70300000000000007
v 1.9000000000000004 -1.8 0.68900000000000017
v 1.9000000000000004 -1.7 0.67500000000000016
v 1.9000000000000004 -1.6000000000000001 0.66100000000000014
v 1.9000000000000004 -1.2999999999999998 0.61900000000000011
v 1.9000000000000004 -1.2 0.60500000000000009
v 1.9000000000000004 -1.1000000000000001 0.59100000000000019
v 1.9000000000000004 -0.79999999999999982 0.54900000000000015
v 1.9000000000000004 -0.69999999999999996 0.53500000000000014
v 1.9000000000000004 -0.59999999999999987 0.52100000000000013
v 1.9000000000000004 -0.5 0.50700000000000012
v 1.9000000000000004 -0.29999999999999982 0.47900000000000009
v 1.9000000000000004 -0.19999999999999996 0.46500000000000008
v 1.9000000000000004 -0.099999999999999867 0.45100000000000007
v 1.9000000000000004 0 0.43700000000000011
v 1.9000000000000004 0.40000000000000036 0.38100000000000006
v 1.9000000000000004 0.5 0.3670000000000001
v 1.9000000000000004 0.90000000000000036 0.31100000000000005
v 1.9000000000000004 1 0.2970000000000001
v 1.9000000000000004 1.4000000000000004 0.24100000000000005
v 1.9000000000000004 1.5 0.22700000000000009
v 1.9000000000000004 1.9000000000000004 0.17100000000000004
v 1.9000000000000004 2 0.15700000000000008
v 2 -2 0.73999999999999999
v 2 -1.8999999999999999 0.72599999999999998
v 2 -1.8 0.71200000000000008
v 2 -1.7 0.69800000000000006
v 2 -1.6000000000000001 0.68400000000000005
v 2 -1.2999999999999998 0.64200000000000002
v 2 -1.2 0.628
v 2 -1.1000000000000001 0.6140000000000001
v 2 -0.79999999999999982 0.57200000000000006
v 2 -0.69999999999999996 0.55800000000000005
v 2 -0.59999999999999987 0.54400000000000004
v 2 -0.5 0.53000000000000003
v 2 -0.29999999999999982 0.502
v 2 -0.19999999999999996 0.48799999999999999
v 2 -0.099999999999999867 0.47399999999999998
v 2 0 0.46000000000000002
v 2 0.40000000000000036 0.40399999999999997
v 2 0.5 0.39000000000000001
v 2 0.90000000000000036 0.33399999999999996
v 2 1 0.32000000000000001
v 2 1.4000000000000004 0.26399999999999996
v 2 1.5 0.25
v 2 1.9000000000000004 0.19399999999999995
v 2 2 0.17999999999999999
v -2 -2 -0.90000000000000002
v -2 2 -0.90000000000000002
v 2 -2 -0.90000000000000002
v 2 2 -0.90000000000000002
v -1.0600000000000001 -1.3290410229681588 -0.21948159818050966
v -1.0600000000000001 -0.93999999999999995 -0.33000000000000002
v -1.4300000000000002 -1.168672575837461 -0.18867257583746117
v -1.1788603063736172 -1.4533975533947325 -0.10951436913436069
v -0.94113969362638294 -1.4533975533947325 -0.10951436913436069
v -1.0600000000000001 -1.1422172313953771 -0.30183438476009899
v -0.86767998437426175 -1.261077537768994 -0.2283746755079778
v -0.74525920090974518 -1.3749610866964301 -0.099261310574334238
v -0.8654794885159206 -1.0602202876061753 -0.29378182205841369
v -1.2523200156257384 -1.261077537768994 -0.2283746755079778
v -1.2545205114840796 -1.0602202876061753 -0.29378182205841369
v -1.2523200156257384 -0.61892246223100578 -0.2283746755079778
v -1.2545205114840796 -0.81977971239382463 -0.29378182205841369
v -1.449041022968159 -0.93999999999999995 -0.21948159818050955
v -1.1200038571480446 -1.3955750954465236 -0.17004385139077888
v -0.99999614285195548 -1.3955750954465236 -0.17004385139077888
v -0.88455611924057387 -1.5014027021208105 -0.039050610461142499
v -1.0600000000000001 -1.4601512025609522 -0.11634848387204005
v -1.1200449701987554 -1.5173512343254938 -0.048977291133950829
v -0.99995502980124473 -1.5173512343254938 -0.048977291133950829
v -1.0600000000000001 -1.2384829579768497 -0.26713213171240829
v -1.0600000000000001 -1.0420846591744488 -0.32292477264807778
v -1.0600000000000001 -0.83791534082555097 -0.32292477264807778
v -0.96291171967837053 -1.2984868151248943 -0.23004770853882334
v -0.77612583781306466 -1.2175285399338751 -0.21449449122056868
v -0.902363079419644 -1.3627262277604244 -0.17656042965186819
v -0.96257502519947225 -1.2050893071800683 -0.27398540445239611
v -0.7849064544994635 -1.4632590180780451 -0.035110706705583861
v -0.71336191035845375 -1.2759529698072645 -0.15087221083535457
v -0.84095660149245122 -1.4190848014728457 -0.10970928659009643
v -0.68010217348946855 -1.4184675659303214 -0.0075481167066709376
v -0.80384676905614594 -1.3219299988377853 -0.16975425678885175
v -0.96152738293596252 -1.0008594243067281 -0.32088937204040197
v -0.77422133466518184 -1.116620928436499 -0.24934482789939222
v -0.96173356714735225 -1.1028866003302364 -0.30513052207780494
v -0.86457876451229154 -1.1629315705289918 -0.26802068964149967
v -0.58153243406967858 -1.357548116706671 0.030102173489468531
v -0.64245188329332914 -1.3198978265105314 -0.068467565930321439
v -1.1570882803216296 -1.2984868151248943 -0.23004770853882334
v -1.3438741621869355 -1.2175285399338751 -0.21449449122056868
v -1.2176369205803561 -1.3627262277604244 -0.17656042965186819
v -1.1574249748005279 -1.2050893071800683 -0.27398540445239611
v -1.4066380896415462 -1.2759529698072645 -0.15087221083535457
v -1.2790433985075489 -1.4190848014728457 -0.10970928659009643
v -1.3161532309438542 -1.3219299988377853 -0.16975425678885175
v -1.1584726170640376 -1.0008594243067281 -0.32088937204040197
v -1.3457786653348183 -1.116620928436499 -0.24934482789939222
v -1.158266432852648 -1.1028866003302364 -0.30513052207780494
v -1.2554212354877086 -1.1629315705289918 -0.26802068964149967
v -1.1584726170640376 -0.87914057569327186 -0.32088937204040197
v -1.3457786653348183 -0.76337907156350093 -0.24934482789939222
v -1.158266432852648 -0.77711339966976356 -0.30513052207780494
v -1.25713947883958 -0.93999999999999995 -0.30325733496604074
v -1.2554212354877086 -0.71706842947100813 -0.26802068964149967
v -1.4442512823988558 -1.0557615041297708 -0.21173163514208276
v -1.35570921825937 -1.0009194492236504 -0.26560704476990132
v -1.35570921825937 -0.87908055077634939 -0.26560704476990132
v 0.93999999999999995 1.449041022968159 -0.039481598180509669
v 1.5694815981805097 1.0600000000000001 0.20095897703184112
v 0.93999999999999995 1.0600000000000001 -0.15000000000000002
v 1.3100000000000001 0.83132742416253891 -0.0086725758374611717
v 1.3100000000000001 1.2886725758374611 -0.0086725758374611717
v 0.93999999999999995 1.2622172313953772 -0.121834384760099
v 1.4595143691343606 0.94113969362638294 0.076602446605267605
v 1.1345205114840795 0.93977971239382474 -0.1137818220584137
v 1.4492613105743342 0.74525920090974518 0.15503891330356984
v 1.1323200156257383 1.3810775377689941 -0.048374675507977805
v 1.4595143691343606 1.1788603063736172 0.076602446605267605
v 1.1345205114840795 1.1802202876061754 -0.1137818220584137
v 1.3290410229681588 1.0600000000000001 -0.039481598180509558
v 0.74767998437426164 1.3810775377689941 -0.048374675507977805
v 1.0000038571480445 1.5155750954465237 0.009956148609221116
v 0.93999999999999995 1.3584829579768498 -0.087132131712408301
v 0.93999999999999995 1.1620846591744489 -0.14292477264807779
v 1.2238741621869353 0.78247146006612489 -0.03449449122056869
v 1.5200438513907786 0.99999614285195548 0.13442490455347633
v 1.3890506104611424 0.88455611924057387 0.02859729787918952
v 1.5265604296518682 0.902363079419644 0.16727377223957557
v 1.2866380896415461 0.72404703019273542 0.029127789164645423
v 1.0384726170640375 0.99914057569327197 -0.14088937204040197
v 1.2257786653348182 0.88337907156350104 -0.069344827899392225
v 1.3851107067055839 0.7849064544994635 0.066740981921954878
v 1.5197542567888518 0.80384676905614594 0.20807000116221475
v 1.4184675659303214 0.64245188329332914 0.21010217348946852
v 1.4597092865900962 0.84095660149245122 0.11091519852715426
v 1.357548116706671 0.68010217348946855 0.11153243406967855
v 1.0370882803216295 1.4184868151248944 -0.050047708538823343
v 1.2238741621869353 1.3375285399338752 -0.03449449122056869
v 1.097636920580356 1.4827262277604245 0.0034395703481318041
v 1.0374249748005278 1.3250893071800685 -0.093985404452396115
v 1.5200438513907786 1.1200038571480446 0.13442490455347633
v 1.3890506104611424 1.2354438807594263 0.02859729787918952
v 1.5265604296518682 1.2176369205803561 0.16727377223957557
v 1.4663484838720402 1.0600000000000001 0.069848797439047816
v 1.2866380896415461 1.3959529698072646 0.029127789164645423
v 1.1961532309438541 1.4419299988377854 0.010245743211148239
v 1.0384726170640375 1.1208594243067282 -0.14088937204040197
v 1.2257786653348182 1.2366209284364991 -0.069344827899392225
v 1.0382664328526479 1.2228866003302366 -0.12513052207780495
v 1.1371394788395799 1.0600000000000001 -0.12325733496604074
v 1.1354212354877085 1.2829315705289919 -0.088020689641499672
v 1.3851107067055839 1.3350935455005366 0.066740981921954878
v 1.4597092865900962 1.2790433985075489 0.11091519852715426
v 1.3242512823988557 0.94423849587022923 -0.03173163514208277
v 1.3242512823988557 1.1757615041297709 -0.03173163514208277
v 1.3989772911339506 0.99995502980124473 0.012648765674506235
v 1.2357092182593699 0.9990805507763495 -0.08560704476990133
v 1.3989772911339506 1.1200449701987554 0.012648765674506235
v 1.2357092182593699 1.1209194492236505 -0.08560704476990133
v 0.84291171967837042 1.4184868151248944 -0.050047708538823343
v 0.84257502519947214 1.3250893071800685 -0.093985404452396115
v 0.84173356714735215 1.2228866003302366 -0.12513052207780495
v 0.74457876451229144 1.2829315705289919 -0.088020689641499672
v 1.1396112332391424 1.5212500525075994 0.049135576293938873
v 1.1677054418982862 1.5164072774638691 0.056275232791664159
v 1 0.2030691012503901 0.20157032582494541
v 0.76380082623221357 1.4283242570792423 -0.024291205957684775
v 0.72662348508914343 1.4011507832824319 -0.029037708089037492
v 0.90601376775297648 1.5000000000000002 -0.0016168334168154181
v 0.90000000000000036 1.4984336380721457 -0.002780709330100353
v -1.4151977818384769 -1.270662789096324 -0.14760269934936432
v -1.4112184039743561 -1.2787915141618786 -0.14554942093143891
v -1.4003675080309226 -1.2954166441926909 -0.14072619666013547
v 0.80699059954492258 1.4565975249397267 -0.018315815596229506
v -0.3030691012503901 -1.1000000000000001 0.084294106712410291
v 0.99383841558627661 1.5222103391395776 0.015473388105302755
v 0.9658115737901497 1.5155750954465237 0.009956148609221116
v 1 1.5228952838334093 0.016794660263322703
v 1.4803010408982664 0.69566021139862844 0.2430768098107933
v 1.431415327712158 0.63448442896254809 0.24039770531903962
v -0.29999999999999982 -1.0969308987496098 0.084570325824945419
v -1.4503804684940782 -1.1812683980734475 -0.16820993202335535
v 1.4954302609882206 0.71672522032905484 0.24360742918122311
v 1.1000000000000001 0.30306910125039016 0.21057032582494545
v -1.4674808586592158 -1.1000000000000001 -0.18352059749161964
v -1.4593900159705455 -1.148882821029638 -0.17481610872907616
v 1.5430100386619965 1.1990156431649166 0.18703011884917092
v 1.5338822252054154 1.2225379381845061 0.18163760045141475
v 1.079514398192295 1.5251021072016306 0.034774016575999531
v 1.1000000000000001 1.5237890320864118 0.039669535507902386
v -1.4707616269183694 -1.0801784296366939 -0.18705019404208784
v -1.4652898394469736 -0.92604930278918274 -0.20736976068231838
v -1.4698574270170885 -0.95787227705373335 -0.2039650894264077
v 1.0084061111554554 1.5238297384874531 0.018597242177511301
v -0.56858467228784204 -1.365515571037452 0.060397705319039624
v -0.59982341791972227 -1.3961061562770756 0.057495475757254423
v -0.19999999999999998 -0.99693089874961005 0.093570325824945413
v -1.4737251925121906 -1.033785432602508 -0.19422683371345273
v 1.1969308987496101 0.40000000000000036 0.21929410671241037
v -0.59999999999999987 -1.3962528414781938 0.057475397806947173
v -0.64821185031523942 -1.4363020069918722 0.051993555406357063
v -0.70000000000000007 -1.4699292347324255 0.044790092862539557
v -0.71154259309281009 -1.47742410390638 0.043184578135546867
v -0.099999999999999881 -0.89693089874960996 0.10257032582494542
v -1.4453101986079491 -0.84983105800138914 -0.21344499755963384
v 1.29693089874961 0.5 0.22829410671241032
v 0.66200038782991999 1.3403228510118046 -0.03538510994077107
v 0.72540090235110122 1.4000000000000004 -0.029157792459246771
v -1.4249439783570894 -0.79999999999999982 -0.21573711502213064
v -1.4346350401250432 -0.81829533130095944 -0.21540471284662563
v -1.4387899323620648 -0.8276212005935728 -0.2150547163601747
v -1.3418660690753348 -0.6637109419269005 -0.21570966401756092
v -1.3379996121700799 -0.65967714898819529 -0.21538510994077109
v -1.3439467713036455 -0.66631855926796857 -0.21582315910232283
v -1.2999999999999998 -1.4162721315757749 -0.10072190157939148
v 1.2553729135864844 1.4929990245636173 0.079715906685984994
v 1.253429025386541 1.4937737224016965 0.079160354702666899
v 1.2298472758092833 1.4999999999999998 0.072864873436135236
v -1.3142185292838882 -1.4028664148902661 -0.10586896365065701
v -1.2888333374340049 -1.4268004437305375 -0.096679605487545853
v -0 0.67832246318188472 -0.094965144845463867
v -1.3560382994468556 -1.358032343395684 -0.12176428079738102
v -1.3971226902267087 -1.2999999999999998 -0.139338218752143
v 1.4000000000000004 0.60306910125039048 0.2375703258249455
v -1.2097126920839434 -1.4795725234395727 -0.071093765897766836
v -1.2664347369945126 -1.4428905360162887 -0.089275314466457492
v -1.3908052989806379 -0.73555108157139482 -0.21690806734555149
v -1.366743322263118 -0.69999999999999996 -0.21635096412051716
v 1.3566823842708262 1.4393613087652819 0.11052636515515056
v 1.3579175797085197 1.4384929765211056 0.11093202662000475
v 1.4000000000000004 1.401149799743564 0.12583902803590116
v -0.84497475376302777 -1.5291169357821477 0.019732177644004281
v -0.82158338664625874 -1.5228428217117427 0.024233816111004496
v -1.2999999999999998 -0.62167753681811511 -0.21196514484546386
v -0.79999999999999982 -1.5146234523386586 0.028047283327412239
v -0.73923756232664706 -1.4914839456693998 0.038783113058587108
v 1.4999999999999998 0.72491407837036048 0.24351202902814953
v 1.5 1.2827462707271047 0.16541552209820537
v -1.2783224631818846 -0.59999999999999987 -0.21001416653183347
v 1.4907367798555684 1.2982194439313191 0.16111873721639605
v -1.1153767576691198 -1.5214041236335727 -0.043540076955197432
v -1.1000000000000001 -1.5243474970315667 -0.039591350415580699
v 0.22167753681811558 0.90000000000000036 -0.075014166531833473
v 0.89631969227877339 1.4974750553442937 -0.0034929785240832476
v -1.1226456470776962 -1.5194227752871901 -0.045489310287663565
v -1.1313642038501892 -1.5157868767284841 -0.048003604143555749
v 0.8687468477527942 1.486124058527442 -0.0082455932106992418
v 1.4377664182421259 1.3676365649319298 0.13921715710521884
v 1.4012957214740442 1.4000000000000004 0.12629801593903014
v 1.4517323277957395 1.3521077145074767 0.14460335536197336
v 0.32167753681811528 1 -0.066014166531833507
v 1.5052437287679077 0.73431070920131625 0.24340255832843455
v 0.40000000000000036 1.0783224631818851 -0.058965144845463849
v -1.1783224631818847 -0.5 -0.20101416653183352
v 1.5498783150963222 0.8366495968457206 0.23934106891375331
v 1.5341014985256578 0.79495725591957811 0.2415493288321604
v -1.1000000000000001 -0.42167753681811537 -0.1939651448454639
v -1 -1.5403592733763256 -0.014349701727314394
v -1.0246307878684993 -1.5387744483297032 -0.020236658443596341
v 1.5596385039453384 1.1444746981995055 0.19849039815949712
v 0.5 1.1783224631818847 -0.049965144845463876
v 1.5616651638643777 0.87886489251914335 0.23614190273612684
v 1.5657828310432012 0.90000000000000024 0.23413005113993626
v 1.524940400294601 1.2410861214999733 0.17698423505776201
v -1 -0.32167753681811523 -0.18496514484546389
v 1.5778119559230528 0.96429349078535309 0.22789566115235269
v 1.5774714891283448 0.95999538918710958 0.22841908801332397
v -0.92355996173529198 -1.5408290844855317 0.0032972806288573114
v 1.5775925833892974 1 0.22284629417953841
v 1.5779319241130485 0.98235292031547394 0.2253949337018348
v 0.53367086399063224 1.211993327172517 -0.046934767086306971
v 0.59999999999999998 1.2783224631818848 -0.040965144845463854
v -0.9685277402200102 -1.5423843009897105 -0.0068275781120428428
v 1.5764388262924263 1.0600000000000001 0.21418093004725805
v -0.97832246318188454 -0.29999999999999982 -0.18301416653183347
v 1.5724252182971166 1.0870478923037807 0.20947109528580754
v -0.87832246318188478 -0.19999999999999996 -0.17401416653183349
v -0.79999999999999982 -0.12167753681811506 -0.16696514484546385
v -0.77832246318188469 -0.099999999999999867 -0.16501416653183348
v 0.90000000000000047 0.10306910125039044 0.19257032582494543
v -0.69999999999999996 -0.021677536818115208 -0.15796514484546387
v -0.67832246318188472 -0 -0.1560141665318335
v -0.59999999999999987 0.078322463181884891 -0.14896514484546386
v -0.50306910125038984 -1.2999999999999996 0.066294106712410331
v -0.5 -1.2969308987496098 0.066570325824945403
v 1.449041022968159 -1.6894815981805098 0.46000000000000002
v 1.0600000000000001 -1.449041022968159 -0.16948159818050962
v 1.6894815981805098 -1.0600000000000001 0.070958977031841175
v 1.0600000000000001 -1.8 0.46000000000000002
v 0.83132742416253891 -1.6586725758374612 0.089999999999999969
v 1.2886725758374611 -1.6586725758374612 0.089999999999999969
v 1.0600000000000001 -1.0600000000000001 -0.27999999999999997
v 1.6586725758374612 -0.68999999999999995 0.2313274241625389
v 1.6586725758374612 -1.4300000000000002 0.2313274241625389
v 1.4300000000000002 -1.2886725758374611 -0.13867257583746112
v 1.4300000000000002 -0.83132742416253891 -0.13867257583746112
v 1.8 -1.0600000000000001 0.46000000000000002
v 1.2622172313953772 -1.771834384760099 0.46000000000000002
v 0.73892246223100599 -1.6983746755079778 0.26767998437426177
v 0.94113969362638294 -1.5733975533947326 -0.059514369134360645
v 0.93977971239382474 -1.7637818220584136 0.26547948851592063
v 1.3810775377689941 -1.6983746755079778 0.26767998437426177
v 1.1788603063736172 -1.5733975533947326 -0.059514369134360645
v 1.1802202876061754 -1.7637818220584136 0.26547948851592063
v 1.0600000000000001 -1.6894815981805098 0.070958977031841064
v 1.0600000000000001 -1.2622172313953772 -0.25183438476009895
v 1.5733975533947326 -0.54048563086563928 0.34113969362638286
v 1.6983746755079778 -0.86767998437426175 0.13892246223100585
v 1.4949610866964302 -0.55073868942566584 0.1452592009097452
v 1.5733975533947326 -1.5795143691343609 0.34113969362638286
v 1.6983746755079778 -1.2523200156257384 0.13892246223100585
v 1.4949610866964302 -1.5692613105743343 0.1452592009097452
v 1.2523200156257384 -1.3810775377689941 -0.17837467550797775
v 1.5795143691343607 -1.1788603063736172 -0.053397553394732344
v 1.3747407990902549 -1.4949610866964302 -0.049261310574334194
v 1.2545205114840796 -1.1802202876061754 -0.24378182205841364
v 1.5692613105743343 -1.3747407990902549 0.025038913303569887
v 1.5795143691343607 -0.94113969362638294 -0.053397553394732344
v 1.2545205114840796 -0.93977971239382474 -0.24378182205841364
v 1.5692613105743343 -0.74525920090974518 0.025038913303569887
v 1.449041022968159 -1.0600000000000001 -0.16948159818050951
v 1.6894815981805096 -0.67095897703184115 0.46000000000000002
v 1.5733975533947326 -1.5795143691343609 0.57886030637361718
v 1.6894815981805096 -1.449041022968159 0.46000000000000002
v 1.771834384760099 -1.0600000000000001 0.25778276860462296
v 1.7637818220584136 -0.8654794885159206 0.33977971239382465
v 1.7637818220584136 -1.2545205114840796 0.33977971239382465
v 1.7637818220584136 -1.2545205114840796 0.58022028760617539
v 0.54660244660526758 -1.5795143691343609 0.34113969362638286
v 0.62503891330356987 -1.5692613105743343 0.1452592009097452
v 0.86767998437426175 -1.3810775377689941 -0.17837467550797775
v 0.74525920090974518 -1.4949610866964302 -0.049261310574334194
v 0.8654794885159206 -1.1802202876061754 -0.24378182205841364
v 0.95791534082555108 -1.7929247726480777 0.46000000000000002
v 1.3584829579768498 -1.7371321317124084 0.46000000000000002
v 1.1620846591744489 -1.7929247726480777 0.46000000000000002
v 1.4184868151248944 -1.7000477085388233 0.55708828032162949
v 0.70151318487510583 -1.7000477085388233 0.36291171967837055
v 0.78247146006612489 -1.6844944912205688 0.17612583781306468
v 0.79491069281993165 -1.7439854044523961 0.36257502519947221
v 0.99999614285195548 -1.5155750954465237 -0.12004385139077883
v 0.88455611924057387 -1.6214027021208106 0.010949389538857546
v 0.99914057569327197 -1.790889372040402 0.36152738293596243
v 0.88337907156350115 -1.7193448278993921 0.17422133466518186
v 0.89711339966976367 -1.7751305220778049 0.36173356714735222
v 0.83706842947100835 -1.7380206896414996 0.26457876451229156
v 1.4184868151248944 -1.7000477085388233 0.36291171967837055
v 1.3375285399338752 -1.6844944912205688 0.17612583781306468
v 1.3250893071800685 -1.7439854044523961 0.36257502519947221
v 1.1200038571480446 -1.5155750954465237 -0.12004385139077883
v 1.2354438807594263 -1.6214027021208106 0.010949389538857546
v 1.0600000000000001 -1.5801512025609523 -0.066348483872040009
v 1.1208594243067282 -1.790889372040402 0.36152738293596243
v 1.2366209284364991 -1.7193448278993921 0.17422133466518186
v 1.2228866003302366 -1.7751305220778049 0.36173356714735222
v 1.0600000000000001 -1.7732573349660408 0.26286052116042014
v 1.2829315705289916 -1.7380206896414996 0.26457876451229156
v 0.94423849587022923 -1.6817316351420828 0.075748717601144266
v 1.1757615041297709 -1.6817316351420828 0.075748717601144266
v 0.99995502980124473 -1.6373512343254939 0.0010227088660492156
v 0.9990805507763495 -1.7356070447699015 0.16429078174063017
v 1.1200449701987554 -1.6373512343254939 0.0010227088660492156
v 1.1209194492236505 -1.7356070447699015 0.16429078174063017
v 1.0600000000000001 -1.3584829579768498 -0.21713213171240825
v 1.0600000000000001 -1.1620846591744489 -0.27292477264807774
v 1.0600000000000001 -0.95791534082555108 -0.27292477264807774
v 1.6214027021208106 -0.61094938953885758 0.28455611924057378
v 1.7000477085388233 -0.96291171967837053 0.1015131848751058
v 1.6844944912205686 -0.77612583781306466 0.18247146006612486
v 1.5832590180780453 -0.61488929329441633 0.18490645449946352
v 1.5390848014728458 -0.54029071340990353 0.24095660149245121
v 1.5155750954465237 -1.6400438513907787 0.39999614285195539
v 1.6214027021208106 -1.5090506104611425 0.28455611924057378
v 1.4827262277604245 -1.6465604296518683 0.30236307941964402
v 1.7000477085388233 -1.1570882803216296 0.1015131848751058
v 1.6844944912205686 -1.3438741621869355 0.18247146006612486
v 1.3959529698072646 -1.6208722108353546 0.11336191035845378
v 1.5832590180780453 -1.5051107067055838 0.18490645449946352
v 1.4419299988377852 -1.6397542567888519 0.2038467690561459
v 1.5390848014728458 -1.5797092865900966 0.24095660149245121
v 1.1570882803216296 -1.4184868151248944 -0.18004770853882329
v 1.3438741621869355 -1.3375285399338752 -0.16449449122056864
v 1.2176369205803561 -1.4827262277604245 -0.12656042965186814
v 1.1574249748005279 -1.3250893071800685 -0.22398540445239606
v 1.6400438513907787 -1.1200038571480446 0.0044249045534763831
v 1.5090506104611425 -1.2354438807594263 -0.10140270212081043
v 1.6465604296518683 -1.2176369205803561 0.03727377223957562
v 1.3350935455005366 -1.5832590180780453 0.014889293294416184
v 1.4066380896415462 -1.3959529698072646 -0.10087221083535453
v 1.2790433985075489 -1.5390848014728458 -0.059709286590096389
v 1.4398978265105316 -1.5384675659303215 0.042451883293329107
v 1.3161532309438542 -1.4419299988377854 -0.11975425678885171
v 1.1584726170640376 -1.1208594243067282 -0.27088937204040192
v 1.3457786653348183 -1.2366209284364991 -0.19934482789939217
v 1.158266432852648 -1.2228866003302366 -0.2551305220778049
v 1.2554212354877086 -1.2829315705289919 -0.21802068964149962
v 1.6208722108353546 -1.4066380896415462 0.12404703019273539
v 1.505110706705584 -1.3350935455005366 -0.063259018078045071
v 1.6397542567888519 -1.3161532309438542 0.078070001162214797
v 1.5384675659303215 -1.4775481167066711 0.080102173489468576
v 1.5797092865900964 -1.2790433985075489 -0.019084801472845692
v 1.4775481167066711 -1.4398978265105316 -0.018467565930321395
v 1.3438741621869355 -0.78247146006612489 -0.16449449122056864
v 1.6400438513907787 -0.99999614285195548 0.0044249045534763831
v 1.5090506104611425 -0.88455611924057387 -0.10140270212081043
v 1.6465604296518683 -0.902363079419644 0.03727377223957562
v 1.5863484838720403 -1.0600000000000001 -0.060151202560952133
v 1.4066380896415462 -0.72404703019273542 -0.10087221083535453
v 1.4398978265105316 -0.58153243406967858 0.042451883293329107
v 1.1584726170640376 -0.99914057569327197 -0.27088937204040192
v 1.3457786653348183 -0.88337907156350104 -0.19934482789939217
v 1.158266432852648 -0.89711339966976367 -0.2551305220778049
v 1.25713947883958 -1.0600000000000001 -0.25325733496604069
v 1.2554212354877086 -0.83706842947100824 -0.21802068964149962
v 1.6208722108353546 -0.71336191035845375 0.12404703019273539
v 1.505110706705584 -0.7849064544994635 -0.063259018078045071
v 1.6397542567888519 -0.80384676905614594 0.078070001162214797
v 1.5384675659303215 -0.64245188329332914 0.080102173489468576
v 1.5797092865900964 -0.84095660149245122 -0.019084801472845692
v 1.4775481167066711 -0.68010217348946855 -0.018467565930321395
v 1.4442512823988558 -1.1757615041297709 -0.16173163514208272
v 1.4442512823988558 -0.94423849587022923 -0.16173163514208272
v 1.5189772911339507 -1.1200449701987554 -0.11735123432549371
v 1.35570921825937 -1.1209194492236505 -0.21560704476990128
v 1.5189772911339507 -0.99995502980124473 -0.11735123432549371
v 1.35570921825937 -0.9990805507763495 -0.21560704476990128
v 1.6817316351420828 -0.6757487176011443 0.34423849587022914
v 1.6373512343254939 -0.60102270886604925 0.3999550298012447
v 1.5155750954465237 -1.6400438513907787 0.52000385714804465
v 1.5801512025609523 -1.5863484838720403 0.46000000000000002
v 1.6817316351420828 -1.4442512823988558 0.34423849587022914
v 1.6817316351420828 -1.4442512823988558 0.5757615041297709
v 1.6373512343254939 -1.5189772911339507 0.3999550298012447
v 1.6373512343254939 -1.5189772911339507 0.5200449701987554
v 1.7371321317124084 -1.0600000000000001 0.16151704202315037
v 1.7929247726480777 -1.0600000000000001 0.3579153408255511
v 1.7439854044523961 -0.96257502519947225 0.19491069281993162
v 1.7439854044523961 -1.1574249748005279 0.19491069281993162
v 1.7193448278993921 -0.77422133466518184 0.28337907156350106
v 1.790889372040402 -0.96152738293596252 0.39914057569327188
v 1.7380206896414996 -0.86457876451229154 0.23706842947100826
v 1.7356070447699015 -0.76429078174063014 0.39908055077634952
v 1.7751305220778049 -0.96173356714735225 0.29711339966976363
v 1.7193448278993921 -1.3457786653348183 0.28337907156350106
v 1.790889372040402 -1.1584726170640376 0.39914057569327188
v 1.7380206896414996 -1.2554212354877086 0.23706842947100826
v 1.7356070447699015 -1.35570921825937 0.39908055077634952
v 1.7751305220778049 -1.158266432852648 0.29711339966976363
v 1.790889372040402 -0.96152738293596252 0.52085942430672816
v 1.7732573349660408 -0.86286052116042011 0.46000000000000002
v 1.790889372040402 -1.1584726170640376 0.52085942430672816
v 1.7356070447699015 -1.35570921825937 0.52091944922365052
v 1.7732573349660408 -1.25713947883958 0.46000000000000002
v 0.6372737722395756 -1.6465604296518683 0.30236307941964402
v 0.72404703019273542 -1.6208722108353546 0.11336191035845378
v 0.53674098192195496 -1.5051107067055838 0.18490645449946352
v 0.67807000116221494 -1.6397542567888519 0.2038467690561459
v 0.58091519852715423 -1.5797092865900966 0.24095660149245121
v 0.96291171967837053 -1.4184868151248944 -0.18004770853882329
v 0.77612583781306466 -1.3375285399338752 -0.16449449122056864
v 0.902363079419644 -1.4827262277604245 -0.12656042965186814
v 0.96257502519947225 -1.3250893071800685 -0.22398540445239606
v 0.7849064544994635 -1.5832590180780453 0.014889293294416184
v 0.71336191035845375 -1.3959529698072646 -0.10087221083535453
v 0.84095660149245122 -1.5390848014728458 -0.059709286590096389
v 0.68010217348946855 -1.5384675659303215 0.042451883293329107
v 0.80384676905614594 -1.4419299988377854 -0.11975425678885171
v 0.96152738293596252 -1.1208594243067282 -0.27088937204040192
v 0.77422133466518184 -1.2366209284364991 -0.19934482789939217
v 0.96173356714735225 -1.2228866003302366 -0.2551305220778049
v 0.86457876451229154 -1.2829315705289919 -0.21802068964149962
v 0.58153243406967858 -1.4775481167066711 0.080102173489468576
v 0.64245188329332914 -1.4398978265105316 -0.018467565930321395
v 1.4999999999999998 -0.45964301637004079 0.40935002229180573
v 1.7870610735803303 -0.96157747128002502 0.54564489290267948
v 1.7820896328036351 -0.93034800945150942 0.54012933686804732
v 0.30088657513546585 -1.2991134248645342 0.25107979176219197
v 0.30160566814513001 -1.2999999999999998 0.2513693036733799
v 0.19548574639670796 -1.1691639569078163 0.20864467563833713
v 0.30000000000000027 -1.2980203597668871 0.2507228503673643
v 1.7928257635473024 -1.0552099428339818 0.56007931761263696
v 0.56782591850364206 -1.6000000000000001 0.35459996125583776
v 0.58470401765971258 -1.6152959823402875 0.36062336158937419
v 0.77463100169903487 -1.7398234679459628 0.42174041590321287
v 0.72951374852016082 -1.7173530085756221 0.40821758336022412
v 0.17269349343081383 -1.1410632182144427 0.19946835403910917
v 0.1411656655544222 -1.1000000000000001 0.18646810307751713
v -0.42009375638559804 0.68124678956848239 -0.19199611450827506
v -0.38675539182430496 0.68201294877208229 -0.18443555294768166
v -0.29999999999999982 0.68400670109865247 -0.16476093815381132
v 1 -1.7947847587576145 0.48126986622606605
v 1.0049317631841264 -1.7950682368158739 0.48244385868657147
v 0.86313023596138672 -1.7722825338549011 0.44663950901080518
v 0.84613074023395107 -1.7666731569083118 0.44194431222097247
v 1.0129206510759707 -0.028173495257796242 0.23691603908356476
v 1 -0.018003416639917395 0.23252047832958844
v 1.0458820165955851 -0.054117983404414885 0.24812938149360264
v -0.43497633313899042 0.67542328845829969 -0.19460381700612975
v -0.5 0.64805349887969332 -0.20572748984315706
v -0.49327800381934928 0.65261004519011501 -0.20481934720506642
v 1.7889856079045721 -1.1000000000000001 0.56546668981805159
v 1.7877156978741977 -1.1122843021258026 0.56689441280867781
v -0 -0.91371097840347737 0.12791953697648684
v 0.092852736156051136 -1.0370751334268153 0.16654664799564595
v 0.1124502589607157 -1.0625998019369811 0.174627531832142
v 0.87162009643795935 0.079752921388584641 0.18296349628133776
v 0.86987907082618476 0.079897064602719031 0.1801811840756814
v -0.041378046918898695 -0.56805339546700717 -0.10757485510212125
v -0.041517084924497016 -0.56207931168350622 -0.11051173550295758
v -0.0425224801439383 -0.51888022197687234 -0.1317485585022885
v 0.5 -1.5280514861964689 0.32892720806750569
v 1.7422580850738332 -0.78170343131686904 0.51015783995134334
v 1.7356352848278407 -0.76436471517215931 0.50620717563450579
v 1.7479418410270069 -0.79999999999999982 0.51402662343621164
v 0.87390446865417315 0.079563793353191373 0.18661412419654388
v 0.40000000000000036 -1.4131756971709895 0.28984459760393866
v -0.044776567405203242 -0.63781449204360763 -0.070546671724808233
v -0.040561173153650952 -0.60315223260246165 -0.090320144486922327
v 0.8685458667558279 0.080007443403868478 0.17805060659738514
v 0.8685081404836752 0.080010566842196221 0.17799031669310436
v 1.7028723971871755 -0.69999999999999996 0.48966065135305042
v 1.7173655940663066 -0.72738040708716334 0.49682734362745351
v 1.7356070447699015 -0.76429078174063014 0.50619032974076561
v 0.86743145031968261 0.080099708311348175 0.17626967102038898
v 0.61413779494084941 -1.6419707004668422 0.37112759090175335
v 0.69758919487800508 -1.7 0.39844551482194118
v 0.69096830381573704 -1.6964011280887545 0.39641886781004521
v 0.64933927847503858 -1.6678024610577262 0.3828403785973406
v 0.86382402232123601 0.080398374949528409 0.17050468348475298
v -0.04619438236082074 -0.82221006499781313 0.078282598143265728
v -0.048473716071236732 -0.83584820652818625 0.093897745103915867
v 0.85579999677971119 0.079784314142718887 0.1594620922659136
v -0.059710603130027726 0.32144243005285672 -0.20626049740276914
v -0.059447017394422721 0.32060005057730701 -0.20642198406792209
v 0.16662003956650442 0.094532993616379873 -0.21546466634635913
v 0.21977280830524409 0.092854793492117296 -0.20416675847201557
v 0.25121707636352653 0.09186199902787906 -0.19748310958356705
v -0.055734349906115914 0.37580477833451503 -0.19120546232067634
v -0.048739876078636224 -0.8374407455381836 0.095721140954904319
v -0.049065112155728681 -0.839386759686924 0.097949252230360107
v 0.53267346911346447 -1.5655853916425579 0.34169685272605499
v 0.53083359987167522 -1.5634718273340154 0.34097778379724747
v 0.55550722158902055 -1.588836031313773 0.35020370534940304
v 0.546279574548726 -1.5798410880126574 0.34682205446797904
v 0.78642265236995768 0.084882225916070503 0.082885416653711921
v 0.81150489129563663 0.084510791341355807 0.10918068047485598
v 0.83038504599108753 0.082496198087776834 0.13061241254877884
v 0.83020862567016962 0.08251502289054187 0.13041214972724488
v -0.047280566460347125 -0.75016537675685535 0.0091217320598256588
v -0.043057300262130373 -0.72050324347933281 -0.014522053457513555
v -0.047235575496757033 -0.75314954854405225 0.011986452698966095
v 0.77328866972274923 0.08507672271810364 0.069116249564840401
v 0.76193664060648048 0.084490697389278113 0.057927401220661416
v -0.049485633125801509 -0.84190290046970384 0.10083013655094662
v 0.28551975465059853 0.090778955560343835 -0.19019189017342697
v -0.26642548141378836 0.68477828743048874 -0.15714682096543975
v -0.052501610895527136 0.42000198462421934 -0.17896554788992891
v -0.049035601381918176 0.46738840739861853 -0.16584241616671455
v 0.31981330923391599 0.098539496782784369 -0.18059637259134795
v 0.90000000000000024 -1.780537309996379 0.45627522339949322
v -0.04626022672976627 -0.81784272337020891 0.074090073519699512
v 0.8762966392132775 0.079365740463667539 0.19043702335414037
v 0.90000000000000036 0.060708395621561176 0.19850082461298155
v -0.050030293994354089 -0.84516181862522943 0.10456147236513587
v -0.050050499250849242 -0.84528271454603277 0.10469989353975725
v 0.95191156420057965 -1.7911677118766303 0.4697031394288616
v 0.96314723940022262 -1.7926664597585975 0.47249716942825487
v -0.037268399448733593 -0.47867110156954401 -0.14799732176777888
v 0.53393704972961731 0.0925343476088068 -0.096588831341727327
v 0.53877327132926489 0.092830319163846417 -0.09398162754141702
v 0.57703913689792741 0.09517214893817269 -0.073352525239725838
v -0.050148226698829561 -0.84586745593816293 0.10536939992020891
v -0.050150336845731155 -0.8470812355953411 0.10705679550882961
v 0.91425235626726964 -1.7837282718466281 0.46000000000000002
v -0.52739736674062165 0.62948202591507052 -0.20942887797845286
v 0.030404968838506869 0.071679690335942042 -0.23174097140161801
v 0.018188159190742677 0.060948060692077852 -0.23284279681109701
v -0.11207816201911876 0.15433722134579955 -0.23018800590256719
v -0.08342285590920262 0.18550751508365154 -0.22718785841170966
v 0.0016464911100191589 0.046417339443871893 -0.23433467813952913
v -0.56986749924433411 0.58875992433884838 -0.21349591423363565
v 1.793014274625607 -1.0600000000000001 0.56079328316388966
v 0.875536009824607 0.079428714588865107 0.18922147062604383
v 0.65129455154183968 0.088703492093028913 -0.028053129264328163
v 0.63820398136756962 0.090138396800295451 -0.036179910197200703
v 0.58682031306028548 0.095770746388525368 -0.068079499772104077
v 1.0408452890953765 -1.7971325485458727 0.49099297328835895
v -0.57951219512195107 0.57951219512195107 -0.21441951219512193
v -0.13231943471850688 0.13231943471850688 -0.23230722261125969
v -0.023940724707027065 0.023940724707027065 -0.23664237101171889
v -0.52662319724792417 0.10827039123122378 -0.162372611171091
v -0.54275147144630709 0.10849460693188401 -0.15628917208006082
v -0.050381478380931155 0.58301607501380137 -0.12020020715594515
v -0.048132817531841079 0.60953551965265163 -0.10881421203181757
v -0.52493017417109855 0.10846737922363403 -0.16290958977706022
v -0.048663313023019114 0.61501108522925452 -0.10609445314856802
v -0.043884808148738276 -0.68070396375569164 -0.041487504200393266
v -0.044641298075912349 -0.64432031750050611 -0.066138739794433118
v 0.75130745777309016 0.085681242330703178 0.049147266603021246
v 0.73067132397033641 0.087992637768578338 0.032100986036030614
v 1.5484015418609136 -1.6000000000000003 0.58013235462801027
v 1.5 -1.6413283678273978 0.57478597149583577
v 1.4000000000000004 -1.7079426884029176 0.56111197637640864
v 1.4157751513580477 -1.7 0.56362828481235105
v 1.4159093385988692 -1.699932437577472 0.56364968913858604
v 1.375740850871997 -1.7201570157377453 0.55724237790384368
v 0.7067769653975251 0.090668977819677449 0.012363280122044452
v 1.7264458975734436 -1.3501149467151863 0.58609864898201813
v 1.689273104762324 -1.4245074586079391 0.58796385830044606
v 1.7459245897635711 -1.2999999999999996 0.58356265564562126
v -0.051689102332020599 0.52456300984992821 -0.14398715626494676
v -0.052556328823226042 0.48579647719347446 -0.15976284804169627
v 0.35257167055722638 0.097339913202265635 -0.16931753292668375
v -0.19999999999999996 0.66888879153559533 -0.13964443081498332
v 1.4271350427725999 -1.692846986348302 0.56523963792646037
v 1.4972458821584493 -1.6436800118209443 0.57448175455137573
v -0.065794367933376563 0.22512640930414224 -0.22191869264050532
v -0.064768200060257589 0.24056150821713818 -0.21941336000152781
v -0.07616610867192225 0.20181658830495702 -0.22501881225157419
v -0.16542006454979055 0.13149073126696875 -0.22988189273877702
v 1.6281887763442708 -1.5132743967615823 0.58634183410580387
v 1.576995854855614 -1.5742326472253254 0.58310161722833687
v 1.679193437211852 -1.4426825898077984 0.58819005313181782
v 1.6693527007365285 -1.457547500174234 0.58800777119379433
v 1.5720786386660126 -1.579521861378173 0.58271114748612718
v 1.56590279447658 -1.5850562982555609 0.58206552448539195
v 1.3189395125254388 -1.7467094358780437 0.54789540890377708
v 1.327813638888613 -1.7434262985209579 0.54947681873731513
v -0.099999999999999881 0.6449680075883748 -0.11329552106237245
v -0.078397918137018838 0.63980062025782947 -0.10760360800761046
v -0.12238254674794448 0.65032208823783622 -0.11919307810532431
v 0.46405444107014476 0.097348261050665783 -0.129301702375897
v 0.43666025392659963 0.094260660155282464 -0.14036548492613191
v -0.061921632134172712 0.28337814538990042 -0.21246362037207439
v -0.25182553915341804 0.12932749402946631 -0.22355084164487427
v -0.19335404617415511 0.13079137940855076 -0.2278351304736396
v 1.7640112911722654 -1.2525742675891454 0.58108299443210154
v 1.7829516406766932 -1.1583687620945868 0.57225050404888156
v 1.7928758139461749 -1.0623686204505545 0.56109304407069782
v -0.022587105957722453 0.016756170418021261 -0.2365072507224803
v -0.010114134898067407 -0.049446176268832978 -0.2352621797169914
v -0.58726467423092998 0.55770841328895393 -0.21315005293356745
v -0.014342529944933017 -0.063219800020703432 -0.23450872039265322
v 0.051936539166878404 0.077208644748477828 -0.22977821275012417
v 0.075955675917434975 0.0833763654533307 -0.2275886943945378
v 0.11667931909400107 0.077347277723235505 -0.22385076885770525
v 1.2333713220837368 -1.7742518409658685 0.53207066181448115
v 1.7628885407505255 -1.2563550010702909 0.58135406452246163
v 1.7635248515787083 -1.2545294963173372 0.58124484534753018
v 1.2029277010761759 -1.7809716785883116 0.52600940624988424
v 1.6879886103924733 -0.67188169422963595 0.482300817582418
v 1.675137551525544 -0.65171550702203429 0.47652180783395992
v -0.27816035418682872 0.11882831281606303 -0.22130186255549028
v -0.59999999999999976 0.52189041742756015 -0.21106465843985842
v -0.62130429881675753 0.46197225744599185 -0.20757610477029309
v -0.60778328296869855 0.5 -0.20979015508280069
v -0.033548967098156877 -0.12578307427260882 -0.23108631803903718
v -0.032398498364241177 -0.14061959808953386 -0.22908345128190213
v 0.12982471588191327 0.081870901979399294 -0.22164337889671243
v 1.6373512343254939 -0.60102270886604925 0.46073396313611059
v 1.6364829258208289 -0.59999999999999987 0.46039107293879072
v 1.5423041918264242 -0.5 0.42472996412007757
v -0.027385446737818661 -0.20526825620451652 -0.22035616112757536
v -0.026172298616500653 -0.22091309770675535 -0.2182441749674659
v 1.5789031926443213 -0.53491439531432305 0.43803574965219916
v 1.5952789477948235 -0.55146923769915013 0.44411985127069048
v -0.33204448458875258 0.11736523219469895 -0.21086068394742066
v -0.37460758290445484 0.11620954416806807 -0.20261319237036052
v -0.61987113629939539 0.4000000000000003 -0.19857036134886102
v -0.61853093451843177 0.34204751464451572 -0.19014876698947153
v -0.036372239174576083 -0.32506886160237303 -0.19611286035108388
v -0.036388196832337974 -0.32170958905013591 -0.19694231041097976
v -0.036118338378429593 -0.37851793214974672 -0.18291555823358455
v 1.7679268855080705 -0.86433382115554047 0.52762991862863196
v -0.42346999091983079 0.11488281509686964 -0.19314507763039065
v -0.42843862005370709 0.11369782096345225 -0.19202509771562853
v -0.61762525461076212 0.3028844555205073 -0.18445763233334631
v -0.036595139934814024 -0.27814565915544076 -0.20769883692038424
v -0.0095309817923236086 -0.90104811499171134 0.12395461028660516
v -0.049484541736578277 -0.84796581104739122 0.10733376894722176
v -0.037206909797037814 -0.4251926839742794 -0.16688769812090337
v -0.049957128106140274 0.62836533507574444 -0.0994612863750165
v -0.49527918052513836 0.11007464730229133 -0.17185652558695608
v -0.48638523138784345 0.11055675460406544 -0.1745401992937459
v -0.59999999999999987 0.2185234057281748 -0.16859327680194447
v -0.5976158697803069 0.2071120682685666 -0.16644733960706992
v -0.036586343938198852 -0.38176646207850146 -0.18197408530348
v -0.59026080952035598 0.1719080035036557 -0.1598271066801937
v -0.56559338770330692 0.10881215586458375 -0.14767340795287345
v -0.56452195120450754 0.10879726072562859 -0.14807754410533336
v -0.56945660082482774 0.10886586235705698 -0.14621623891969837
v -0.56108252363065692 0.10874944571121009 -0.14937486506454842
v -0.56023424582312986 0.10873765293036888 -0.1496948277779106
v -0.55747688393684103 0.1086993200114401 -0.15073487973144495
v -0.55678866517974024 0.10868975237581258 -0.15099446961927976
v -0.049022588208998241 0.61871938223382728 -0.1042525112379441
v -0.048879138866361901 0.61723875460251298 -0.10498795127545534
v -0.54505751634419608 0.10852666562993031 -0.15541935281081162
v -0.54413840681815162 0.10851388814463768 -0.15576603260747812
v -0.55395929855461512 0.10865041844507245 -0.15206168110876866
v -0.55207350317274806 0.108624202067074 -0.15277298606319986
v 0.97712742710063583 0 0.22473930823314625
v -0.55452883033386202 0.10865833609114924 -0.1518468588750419
v -0.048714582758239547 0.61554027124867028 -0.10583160205911207
v -0.54308138655845695 0.1084991934206254 -0.15616473108499296
v 1.0854082364656252 -1.796196398632016 0.50111139019557616
v 1.1398840950589408 -1.7918286711501374 0.51302935582457576
v -0.54999690073116803 0.1085953330842117 -0.15355626171403813
v -0.049799335230598457 0.62673665914556587 -0.10027026323175728
v -0.54636883535083036 0.10854489562194591 -0.15492473514697191
v -0.049227838494815407 0.62083789486644669 -0.10320022842418999
v 1.3382518656493787 -0.30533994312028517 0.35054552113619702
v 1.3321030235914106 -0.29999999999999982 0.34838369542602449
v 0.30332204171884253 -1.3021161297817849 0.25206032776478371
v 1.4000000000000004 -0.36424588930626128 0.37299442450287668
v -0.57101558433886701 0.11358998621947548 -0.14723618246866599
v 1.2169549420583015 -0.19999999999999996 0.30789963667340936
v 1.1325431123683751 -0.12669280411271538 0.27822190842050637
v 1.1018068605251923 -0.099999999999999867 0.26741557792079423
v 1.078905282634578 -0.080111194571635652 0.25936378224598194
v -0.52057792391599944 0.63410462703036252 -0.20850757028493061
f 17 43 18
f 44 45 19
f 19 45 20
f 47 48 21
f 21 48 22
f 49 50 23
f 23 50 24
f 51 52 25
f 25 52 26
f 58 59 32
f 32 59 33
f 59 60 33
f 33 60 34
f 61 62 35
f 35 62 36
f 63 64 37
f 37 64 38
f 65 66 39
f 39 66 40
f 66 67 40
f 40 67 41
f 71 72 46
f 73 74 47
f 47 74 48
f 77 78 51
f 51 78 52
f 71 96 72
f 96 97 72
f 98 99 73
f 73 99 74
f 100 101 75
f 75 101 76
f 102 103 77
f 77 103 78
f 111 112 86
f 86 112 87
f 113 114 88
f 88 114 89
f 115 116 90
f 90 116 91
f 116 117 91
f 91 117 92
f 96 121 97
f 125 126 100
f 100 126 101
f 111 129 112
f 112 130 113
f 122 131 123
f 132 133 124
f 134 135 125
f 125 135 126
f 136 137 127
f 127 137 128
f 138 139 130
f 132 140 133
f 140 141 133
f 142 143 134
f 134 143 135
f 144 145 136
f 136 145 137
f 140 161 141
f 162 163 142
f 142 163 143
f 164 165 144
f 144 165 145
f 153 166 154
f 154 167 155
f 168 169 163
f 170 171 164
f 164 171 165
f 178 179 166
f 179 180 167
f 187 188 168
f 168 188 169
f 184 203 185
f 204 205 186
f 186 205 187
f 189 206 190
f 217 218 209
f 232 233 217
f 217 233 218
f 234 235 219
f 236 237 220
f 220 237 221
f 238 239 222
f 222 239 223
f 240 241 224
f 224 241 225
f 257 258 244
f 244 258 245
f 247 261 248
f 262 263 249
f 249 263 250
f 264 265 251
f 251 265 252
f 266 267 253
f 253 267 254
f 257 268 258
f 268 269 258
f 258 269 259
f 276 277 269
f 278 279 271
f 289 290 274
f 274 290 275
f 290 291 275
f 275 291 276
f 278 292 279
f 315 326 316
f 326 327 316
f 316 327 317
f 341 342 331
f 331 342 332
f 342 343 332
f 332 343 333
f 346 347 336
f 340 350 341
f 350 351 341
f 341 351 342
f 346 354 347
f 370 371 364
f 364 371 365
f 376 377 370
f 370 377 371
f 379 380 376
f 376 380 377
f 382 383 379
f 379 383 380
f 408 409 394
f 394 409 395
f 411 412 408
f 408 412 409
f 414 415 411
f 411 415 412
f 421 422 414
f 414 422 415
f 426 427 416
f 416 427 417
f 428 429 418
f 418 429 419
f 360 591 590
f 280 602 596
f 655 660 151
f 686 696 196
f 699 700 215
f 702 703 231
f 260 706 705
f 476 491 488
f 488 501 476
f 489 491 476
f 531 568 545
f 551 568 531
f 551 571 568
f 496 503 500
f 518 526 474
f 481 516 512
f 513 520 481
f 518 520 482
f 519 520 513
f 482 520 519
f 474 514 511
f 514 516 511
f 511 516 481
f 511 518 474
f 511 520 518
f 481 520 511
f 508 509 502
f 568 570 545
f 550 557 553
f 537 557 555
f 553 557 537
f 537 556 553
f 482 527 518
f 526 527 485
f 518 527 526
f 494 521 473
f 494 523 521
f 521 523 484
f 475 490 489
f 490 491 489
f 510 513 481
f 481 512 510
f 486 512 475
f 510 512 486
f 472 510 486
f 475 489 486
f 487 489 476
f 486 489 487
f 486 487 472
f 492 513 510
f 492 510 472
f 493 506 504
f 493 504 473
f 504 506 480
f 536 571 551
f 479 503 501
f 502 509 479
f 479 509 500
f 500 503 479
f 570 572 561
f 561 572 538
f 538 567 560
f 542 582 581
f 581 582 544
f 529 581 544
f 558 561 538
f 544 561 558
f 544 558 529
f 538 560 558
f 546 550 532
f 550 553 532
f 532 552 546
f 552 578 536
f 536 578 571
f 527 528 485
f 522 528 484
f 523 525 484
f 484 525 522
f 501 503 497
f 476 501 497
f 476 497 487
f 512 516 515
f 512 515 475
f 493 519 477
f 477 519 513
f 477 513 492
f 477 506 493
f 498 506 477
f 492 498 477
f 473 521 517
f 473 517 493
f 517 519 493
f 482 519 517
f 499 501 488
f 479 501 499
f 499 502 479
f 534 570 561
f 534 561 544
f 545 570 534
f 534 583 545
f 582 583 534
f 544 582 534
f 578 580 571
f 559 567 538
f 538 572 559
f 529 558 543
f 558 560 543
f 532 575 552
f 575 578 552
f 576 579 563
f 554 556 537
f 563 574 573
f 582 584 583
f 542 584 582
f 478 503 496
f 497 503 478
f 480 507 505
f 478 507 498
f 506 507 480
f 498 507 506
f 505 507 496
f 496 507 478
f 524 527 482
f 517 524 482
f 524 528 527
f 521 524 517
f 484 524 521
f 484 528 524
f 541 579 576
f 576 580 541
f 577 579 541
f 541 580 578
f 575 577 541
f 541 578 575
f 540 572 570
f 571 580 540
f 568 571 540
f 540 570 568
f 559 572 569
f 569 572 540
f 540 580 569
f 569 580 576
f 535 577 548
f 548 577 575
f 548 575 532
f 532 553 548
f 548 556 535
f 553 556 548
f 563 573 533
f 533 576 563
f 559 569 533
f 569 576 533
f 565 579 577
f 565 577 535
f 564 574 539
f 562 564 539
f 539 574 563
f 563 579 539
f 539 579 565
f 539 565 562
f 495 497 478
f 487 495 472
f 487 497 495
f 478 498 495
f 472 495 492
f 495 498 492
f 566 567 559
f 533 573 566
f 533 566 559
f 535 556 549
f 549 556 554
f 547 565 535
f 535 549 547
f 530 562 547
f 562 565 547
f 531 545 494
f 473 531 494
f 588 589 542
f 555 601 600
f 613 614 485
f 508 617 616
f 641 647 515
f 581 668 595
f 673 677 554
f 592 593 514
f 593 594 514
f 597 598 543
f 490 667 666
f 567 586 560
f 560 586 585
f 196 696 197
f 696 698 197
f 581 588 542
f 581 595 588
f 198 698 215
f 197 698 198
f 698 699 215
f 600 604 537
f 555 600 537
f 608 609 564
f 502 622 508
f 508 622 621
f 508 621 617
f 502 624 623
f 502 623 622
f 542 629 628
f 589 629 542
f 483 634 525
f 525 634 633
f 633 635 525
f 525 635 522
f 515 640 636
f 636 641 515
f 587 701 366
f 516 640 515
f 516 643 640
f 515 647 475
f 475 647 646
f 360 598 361
f 361 597 367
f 590 598 360
f 361 598 597
f 597 599 367
f 653 654 499
f 488 653 499
f 654 656 499
f 656 657 499
f 499 657 502
f 502 657 624
f 230 656 214
f 230 657 656
f 624 657 230
f 623 624 230
f 638 639 567
f 567 639 586
f 216 702 231
f 215 700 216
f 700 702 216
f 543 598 529
f 529 598 590
f 590 591 529
f 591 665 529
f 529 668 581
f 665 668 529
f 658 673 537
f 537 673 554
f 604 658 537
f 554 677 676
f 574 671 573
f 573 671 669
f 562 608 564
f 562 681 608
f 609 685 564
f 661 671 574
f 564 685 574
f 659 661 574
f 574 685 659
f 485 626 613
f 528 632 626
f 528 626 485
f 522 631 528
f 631 632 528
f 573 670 652
f 573 652 651
f 669 670 573
f 474 607 603
f 372 587 366
f 372 605 587
f 695 697 530
f 246 623 230
f 622 623 246
f 621 622 246
f 474 592 514
f 474 603 592
f 599 615 367
f 610 611 373
f 367 615 610
f 367 610 373
f 562 697 681
f 530 697 562
f 231 704 232
f 703 704 231
f 566 637 567
f 637 638 567
f 488 694 689
f 491 694 488
f 488 689 653
f 566 650 637
f 526 606 474
f 526 612 606
f 606 607 474
f 566 651 650
f 573 651 566
f 676 683 549
f 554 676 549
f 614 619 526
f 485 614 526
f 683 684 549
f 684 688 549
f 526 619 612
f 530 691 690
f 690 695 530
f 388 605 387
f 388 620 605
f 387 605 372
f 679 694 491
f 491 680 679
f 687 691 547
f 547 691 530
f 373 611 585
f 585 586 373
f 586 639 391
f 373 586 391
f 391 639 390
f 549 687 547
f 549 688 687
f 543 599 597
f 543 615 599
f 514 644 516
f 516 644 643
f 594 644 514
f 389 627 388
f 388 627 620
f 585 611 560
f 560 611 610
f 259 621 246
f 260 616 259
f 260 705 616
f 616 617 259
f 617 621 259
f 490 666 662
f 560 615 543
f 610 615 560
f 630 631 522
f 522 648 630
f 389 645 627
f 475 667 490
f 646 667 475
f 635 649 522
f 522 649 648
f 663 680 491
f 490 663 491
f 662 663 490
f 596 706 279
f 280 596 279
f 279 706 260
f 618 625 508
f 602 618 508
f 596 602 508
f 508 706 596
f 705 706 508
f 616 705 508
f 587 605 555
f 627 645 555
f 555 645 601
f 620 627 555
f 605 620 555
f 555 701 587
f 402 645 389
f 600 601 402
f 402 604 600
f 601 645 402
f 402 658 604
f 628 693 542
f 542 693 692
f 293 602 280
f 293 618 602
f 108 643 109
f 636 640 150
f 643 644 109
f 640 643 108
f 150 640 108
f 306 618 293
f 306 625 618
f 603 607 110
f 110 607 606
f 109 603 110
f 592 603 109
f 109 593 592
f 109 594 593
f 109 644 594
f 438 677 437
f 676 677 438
f 438 683 676
f 437 673 658
f 437 677 673
f 437 658 402
f 438 684 683
f 110 619 614
f 110 614 111
f 111 614 613
f 626 632 111
f 111 632 631
f 111 631 630
f 613 626 111
f 612 619 110
f 606 612 110
f 111 630 129
f 630 648 129
f 648 649 129
f 659 685 403
f 403 685 440
f 440 685 609
f 440 609 608
f 439 697 695
f 681 697 439
f 440 681 439
f 608 681 440
f 439 695 690
f 319 625 306
f 307 642 320
f 439 687 438
f 687 688 438
f 690 691 439
f 439 691 687
f 438 688 684
f 138 634 151
f 633 634 138
f 138 635 633
f 634 655 151
f 138 649 635
f 129 649 138
f 483 696 686
f 483 678 675
f 483 655 634
f 483 660 655
f 483 675 660
f 483 686 678
f 483 698 696
f 483 699 698
f 483 700 699
f 483 702 700
f 483 703 702
f 483 704 703
f 642 664 320
f 320 664 321
f 664 672 321
f 322 674 334
f 672 674 322
f 321 672 322
f 150 667 646
f 646 647 150
f 150 647 641
f 150 641 636
f 666 667 176
f 176 667 150
f 662 666 176
f 176 663 662
f 151 660 152
f 660 675 152
f 153 678 177
f 152 675 153
f 675 678 153
f 674 682 334
f 334 682 344
f 177 686 196
f 678 686 177
f 682 692 344
f 344 693 352
f 692 693 344
f 628 629 352
f 352 693 628
f 353 589 588
f 353 629 589
f 588 595 353
f 595 668 353
f 360 668 665
f 353 668 360
f 360 665 591
f 352 629 353
f 390 639 638
f 390 638 637
f 637 650 390
f 650 651 390
f 651 652 390
f 403 661 659
f 403 671 661
f 403 670 669
f 669 671 403
f 404 670 403
f 390 670 404
f 652 670 390
f 195 680 176
f 176 680 663
f 679 680 195
f 653 689 214
f 689 694 195
f 195 694 679
f 214 689 195
f 214 654 653
f 214 656 654
f 328 899 898
f 898 901 328
f 365 913 912
f 922 923 417
f 555 928 927
f 927 936 555
f 555 940 928
f 555 941 940
f 555 945 941
f 508 952 951
f 508 960 952
f 508 961 960
f 508 975 961
f 555 968 953
f 983 984 701
f 508 985 975
f 508 986 985
f 936 1004 555
f 504 1062 1061
f 625 1101 994
f 483 1111 1110
f 1032 1033 584
f 483 1114 1113
f 483 1116 1115
f 483 1113 1111
f 483 1115 1114
f 483 1120 1119
f 483 1122 1121
f 366 1123 917
f 1121 1124 483
f 1013 1126 483
f 483 1124 1116
f 483 1129 1122
f 1103 1130 642
f 483 1131 1129
f 1119 1131 483
f 483 1126 1120
f 1112 1137 704
f 887 894 893
f 718 870 861
f 758 850 707
f 852 868 865
f 852 865 715
f 715 865 797
f 885 894 753
f 753 894 887
f 887 893 751
f 877 879 751
f 806 828 735
f 710 774 764
f 757 774 710
f 709 856 789
f 796 856 709
f 709 806 796
f 722 767 766
f 722 766 764
f 710 764 755
f 764 766 755
f 756 770 719
f 756 758 707
f 707 768 756
f 768 770 756
f 770 776 719
f 719 776 757
f 757 776 774
f 770 778 776
f 797 818 715
f 797 820 818
f 732 820 797
f 806 808 796
f 796 808 732
f 808 820 732
f 735 808 806
f 885 888 881
f 753 888 885
f 824 835 832
f 736 823 810
f 716 842 815
f 810 813 736
f 736 813 811
f 716 815 803
f 815 817 803
f 803 817 734
f 803 810 716
f 734 813 803
f 803 813 810
f 772 811 724
f 780 783 726
f 772 783 780
f 724 783 772
f 726 783 781
f 726 784 780
f 739 846 828
f 742 846 843
f 720 767 760
f 763 781 721
f 726 781 779
f 779 781 763
f 711 779 763
f 870 871 861
f 718 861 857
f 861 864 857
f 857 864 746
f 825 828 806
f 709 825 806
f 739 828 825
f 825 827 739
f 789 827 825
f 789 825 709
f 707 850 793
f 707 793 768
f 794 852 715
f 723 778 770
f 723 770 768
f 769 778 723
f 723 800 769
f 865 868 748
f 748 867 865
f 865 867 797
f 797 867 732
f 735 822 808
f 808 822 820
f 881 892 890
f 740 835 833
f 832 835 740
f 740 833 831
f 831 834 740
f 814 834 831
f 713 831 787
f 814 831 713
f 742 845 842
f 842 845 815
f 807 842 716
f 807 822 735
f 842 844 742
f 844 846 742
f 828 846 844
f 828 844 735
f 735 844 807
f 807 844 842
f 724 811 804
f 804 813 734
f 811 813 804
f 734 817 805
f 805 817 816
f 772 780 712
f 780 784 775
f 712 780 775
f 712 775 769
f 775 778 769
f 776 778 725
f 725 778 775
f 775 784 725
f 774 776 725
f 805 816 727
f 785 805 727
f 760 878 720
f 751 879 878
f 721 886 763
f 886 888 753
f 760 765 711
f 765 779 711
f 760 767 765
f 765 767 722
f 782 784 726
f 779 782 726
f 765 782 779
f 722 782 765
f 836 838 790
f 826 846 739
f 843 846 826
f 790 862 860
f 861 871 747
f 747 864 861
f 747 871 863
f 862 864 747
f 747 863 860
f 860 862 747
f 746 858 856
f 746 864 858
f 858 864 862
f 856 858 789
f 850 851 793
f 793 851 731
f 731 795 793
f 793 795 768
f 795 800 723
f 768 795 723
f 794 801 731
f 731 801 795
f 800 801 733
f 795 801 800
f 745 873 868
f 745 868 852
f 745 855 853
f 853 873 745
f 744 851 850
f 744 855 851
f 866 872 718
f 857 866 718
f 748 869 867
f 866 869 748
f 746 869 857
f 857 869 866
f 738 823 821
f 820 822 738
f 738 821 818
f 818 820 738
f 843 847 742
f 742 847 845
f 832 847 843
f 845 847 834
f 740 847 832
f 834 847 740
f 737 845 834
f 816 817 737
f 814 816 737
f 737 834 814
f 737 817 815
f 815 845 737
f 819 822 807
f 819 823 738
f 738 822 819
f 810 823 819
f 810 819 716
f 716 819 807
f 802 804 734
f 734 805 802
f 802 805 785
f 752 892 881
f 881 888 752
f 809 811 772
f 712 809 772
f 736 811 809
f 725 777 774
f 725 784 777
f 774 777 764
f 777 784 782
f 764 777 722
f 777 782 722
f 727 883 785
f 785 883 880
f 883 892 752
f 880 883 752
f 713 889 786
f 786 814 713
f 786 816 814
f 727 816 786
f 876 887 751
f 751 878 876
f 876 878 760
f 711 876 760
f 878 879 875
f 875 879 750
f 720 878 875
f 753 887 884
f 884 886 753
f 763 886 884
f 884 887 876
f 763 884 711
f 711 884 876
f 882 888 886
f 752 888 882
f 752 882 880
f 882 886 721
f 720 875 759
f 791 792 730
f 838 840 827
f 827 840 739
f 826 840 837
f 739 840 826
f 837 841 829
f 717 829 824
f 826 837 717
f 717 837 829
f 832 843 717
f 824 832 717
f 717 843 826
f 848 863 743
f 743 849 848
f 860 863 848
f 729 862 790
f 790 838 729
f 789 858 729
f 858 862 729
f 729 827 789
f 729 838 827
f 851 854 731
f 794 854 852
f 731 854 794
f 852 854 745
f 851 855 854
f 854 855 745
f 799 821 733
f 733 801 799
f 799 801 794
f 818 821 799
f 715 818 799
f 715 799 794
f 868 874 748
f 748 874 866
f 873 874 868
f 866 874 872
f 872 874 749
f 749 874 873
f 856 859 746
f 859 869 746
f 796 859 856
f 867 869 859
f 732 859 796
f 732 867 859
f 785 880 708
f 708 802 785
f 733 821 812
f 821 823 812
f 812 823 736
f 809 812 736
f 754 892 891
f 891 892 883
f 754 891 889
f 727 891 883
f 889 891 786
f 786 891 727
f 761 767 720
f 759 761 720
f 766 767 761
f 728 792 788
f 788 792 791
f 788 849 728
f 848 849 788
f 741 838 836
f 741 840 838
f 837 840 741
f 741 841 837
f 721 781 773
f 773 783 724
f 781 783 773
f 798 800 733
f 733 812 798
f 769 800 798
f 798 812 809
f 769 798 712
f 798 809 712
f 790 860 714
f 714 860 848
f 714 848 788
f 714 836 790
f 791 836 714
f 788 791 714
f 730 839 791
f 791 839 836
f 836 839 741
f 839 841 741
f 721 773 762
f 762 882 721
f 880 882 762
f 708 880 762
f 771 773 724
f 724 804 771
f 762 771 708
f 762 773 771
f 771 804 802
f 771 802 708
f 830 841 839
f 896 897 870
f 870 902 896
f 905 915 761
f 1026 1036 758
f 1072 1073 743
f 987 988 755
f 1064 1078 889
f 1069 1070 749
f 749 1070 1058
f 853 1045 1044
f 744 1046 1043
f 744 1047 1046
f 1008 1127 710
f 750 965 964
f 759 949 948
f 831 1066 1065
f 925 926 751
f 962 965 750
f 1006 1007 829
f 750 963 962
f 839 969 967
f 966 973 830
f 120 119 158
f 157 158 119
f 211 227 228
f 212 211 228
f 8 7 33
f 34 8 33
f 121 158 159
f 122 121 159
f 120 158 121
f 131 159 160
f 122 159 131
f 213 212 228
f 229 213 228
f 761 759 906
f 905 761 906
f 194 212 213
f 193 212 194
f 766 761 915
f 914 766 915
f 308 307 320
f 321 308 320
f 8 34 35
f 9 8 35
f 931 930 881
f 929 881 930
f 2 1 27
f 28 2 27
f 411 410 413
f 414 411 413
f 213 229 230
f 214 213 230
f 939 938 881
f 885 881 938
f 929 939 881
f 195 213 214
f 194 213 195
f 10 9 35
f 36 10 35
f 124 123 131
f 132 124 131
f 833 835 958
f 957 833 958
f 956 833 957
f 199 215 216
f 198 215 199
f 309 308 321
f 322 309 321
f 362 361 367
f 368 362 367
f 954 909 955
f 910 909 954
f 959 910 954
f 125 124 133
f 134 125 133
f 207 200 216
f 217 207 216
f 199 216 200
f 208 207 217
f 958 835 976
f 980 976 835
f 11 10 36
f 37 11 36
f 310 309 322
f 323 310 322
f 470 469 471
f 468 469 470
f 364 363 369
f 370 364 369
f 911 959 978
f 977 911 978
f 910 959 911
f 979 977 978
f 414 413 420
f 421 414 420
f 202 201 207
f 208 202 207
f 12 11 37
f 38 12 37
f 787 998 1001
f 997 998 787
f 310 323 324
f 311 310 324
f 2 28 29
f 3 2 29
f 996 999 1000
f 1002 999 996
f 13 12 38
f 39 13 38
f 418 417 427
f 428 418 427
f 202 208 209
f 209 208 217
f 870 718 902
f 1003 902 718
f 13 39 40
f 14 13 40
f 4 3 29
f 30 4 29
f 136 143 144
f 163 144 143
f 135 143 136
f 127 135 136
f 126 135 127
f 164 144 163
f 216 231 232
f 217 216 232
f 710 755 912
f 988 912 755
f 913 710 912
f 1008 710 913
f 204 221 222
f 203 221 204
f 713 787 1011
f 1001 1011 787
f 15 14 40
f 41 15 40
f 312 311 324
f 325 312 324
f 5 4 30
f 31 5 30
f 1002 1009 1010
f 999 1002 1010
f 219 218 233
f 234 219 233
f 421 420 444
f 445 421 444
f 205 222 223
f 204 222 205
f 755 766 995
f 981 995 766
f 914 981 766
f 16 15 41
f 42 16 41
f 314 329 330
f 313 329 314
f 6 5 31
f 32 6 31
f 758 1025 1026
f 1024 1025 758
f 1027 1024 758
f 220 219 235
f 236 220 235
f 422 421 445
f 446 422 445
f 211 210 226
f 227 211 226
f 17 16 42
f 43 17 42
f 980 835 1034
f 1054 1034 835
f 1053 1054 835
f 824 1053 835
f 7 6 32
f 33 7 32
f 315 330 331
f 314 330 315
f 222 221 237
f 238 222 237
f 423 422 446
f 447 423 446
f 19 18 43
f 44 19 43
f 140 132 160
f 161 140 160
f 131 160 132
f 224 223 239
f 240 224 239
f 1033 1032 1035
f 977 979 1033
f 977 1033 1035
f 1052 1035 1032
f 1014 1050 1052
f 1014 1052 1032
f 1051 1050 1014
f 1015 1051 1014
f 326 331 332
f 315 331 326
f 20 45 46
f 21 20 46
f 47 21 46
f 1036 850 758
f 1037 850 1036
f 424 423 447
f 448 424 447
f 756 1048 1049
f 719 1048 756
f 227 226 242
f 243 227 242
f 134 133 141
f 142 134 141
f 758 756 1027
f 1049 1027 756
f 23 22 48
f 49 23 48
f 1058 872 749
f 1059 872 1058
f 25 24 50
f 51 25 50
f 318 317 327
f 328 318 327
f 1135 328 327
f 937 1135 327
f 937 327 333
f 899 328 1135
f 718 872 1060
f 1003 718 1060
f 228 227 243
f 244 228 243
f 425 424 448
f 449 425 448
f 1062 1064 713
f 889 713 1064
f 1061 1062 713
f 1011 1061 713
f 27 53 54
f 28 27 54
f 138 151 152
f 139 138 152
f 1010 1009 1041
f 1057 1041 1009
f 1063 1057 1009
f 228 244 245
f 229 228 245
f 425 449 450
f 426 425 450
f 29 28 54
f 55 29 54
f 141 161 162
f 142 141 162
f 922 1060 872
f 923 922 872
f 1059 923 872
f 1068 1048 719
f 427 426 450
f 451 427 450
f 918 1141 372
f 1140 386 387
f 1140 387 372
f 1141 1140 372
f 1068 719 1071
f 757 1071 719
f 147 172 173
f 146 172 147
f 230 229 245
f 246 230 245
f 428 427 451
f 452 428 451
f 1077 1076 1056
f 1074 1056 1076
f 1075 1077 1056
f 1063 1075 1056
f 1057 1063 1056
f 30 29 55
f 56 30 55
f 148 147 174
f 173 174 147
f 995 987 755
f 31 30 56
f 57 31 56
f 429 428 452
f 453 429 452
f 749 873 1031
f 1029 1031 873
f 1069 749 1031
f 32 31 57
f 58 32 57
f 149 174 175
f 148 174 149
f 35 34 60
f 61 35 60
f 1078 1079 889
f 889 1079 1084
f 429 453 454
f 430 429 454
f 368 367 373
f 374 368 373
f 150 175 176
f 149 175 150
f 1090 1091 1088
f 1089 1088 1091
f 1076 1090 1074
f 1074 1090 1088
f 37 36 62
f 63 37 62
f 431 430 454
f 455 431 454
f 871 870 897
f 1095 871 897
f 369 375 376
f 370 369 376
f 432 431 455
f 456 432 455
f 863 871 933
f 934 863 933
f 944 863 934
f 433 432 456
f 457 433 456
f 39 38 64
f 65 39 64
f 889 1085 1099
f 1084 1085 889
f 754 889 1099
f 235 234 247
f 248 235 247
f 323 322 335
f 334 335 322
f 1091 1098 1096
f 1097 1096 1098
f 1089 1091 1096
f 42 41 67
f 68 42 67
f 433 457 458
f 434 433 458
f 236 235 248
f 249 236 248
f 1102 989 890
f 881 890 931
f 931 890 989
f 324 336 337
f 323 336 324
f 335 336 323
f 942 1072 743
f 943 942 743
f 43 42 68
f 69 43 68
f 44 43 69
f 435 434 458
f 459 435 458
f 743 863 943
f 944 943 863
f 237 236 249
f 250 237 249
f 325 324 338
f 337 338 324
f 1095 935 871
f 933 871 935
f 45 44 69
f 70 45 69
f 435 459 460
f 436 435 460
f 849 1082 1087
f 1081 1082 849
f 46 45 70
f 71 46 70
f 327 332 333
f 326 332 327
f 849 743 1081
f 1073 1081 743
f 237 250 251
f 238 237 251
f 437 436 460
f 461 437 460
f 47 46 72
f 73 47 72
f 166 177 178
f 153 177 166
f 1098 1106 1097
f 1105 1106 1107
f 1104 1105 1107
f 1097 1106 1105
f 239 238 251
f 252 239 251
f 154 166 167
f 179 167 166
f 1099 1093 754
f 1092 754 1093
f 49 48 74
f 75 49 74
f 438 437 461
f 462 438 461
f 728 849 1086
f 1087 1086 849
f 239 252 253
f 240 239 253
f 156 155 167
f 180 156 167
f 853 855 1045
f 1042 1045 855
f 50 49 75
f 76 50 75
f 439 438 462
f 463 439 462
f 1094 1108 754
f 892 754 1108
f 1092 1094 754
f 240 253 254
f 241 240 254
f 157 156 181
f 180 181 156
f 182 157 181
f 1107 1109 1104
f 1012 1016 1109
f 1104 1109 1016
f 51 50 76
f 77 51 76
f 873 853 1030
f 1029 873 1030
f 440 439 463
f 464 440 463
f 1044 1030 853
f 243 242 255
f 256 243 255
f 158 182 183
f 157 182 158
f 54 53 79
f 80 54 79
f 441 440 464
f 465 441 464
f 1037 1023 850
f 744 850 1022
f 1047 744 1022
f 1023 1022 850
f 855 744 1043
f 1042 855 1043
f 55 54 80
f 81 55 80
f 330 329 339
f 340 330 339
f 243 256 257
f 244 243 257
f 159 183 184
f 158 183 159
f 875 750 903
f 964 903 750
f 904 875 903
f 946 875 904
f 374 391 392
f 373 391 374
f 442 441 465
f 466 442 465
f 1127 757 710
f 1128 757 1127
f 1128 1071 757
f 56 55 81
f 82 56 81
f 160 184 185
f 159 184 160
f 948 947 759
f 906 759 947
f 246 245 258
f 259 246 258
f 331 330 340
f 341 331 340
f 759 875 949
f 946 949 875
f 376 375 378
f 379 376 378
f 443 442 466
f 467 443 466
f 1108 1102 890
f 892 1108 890
f 57 56 82
f 83 57 82
f 161 185 186
f 162 161 186
f 160 185 161
f 58 57 83
f 84 58 83
f 168 186 187
f 162 186 168
f 163 162 168
f 378 381 382
f 379 378 382
f 164 163 169
f 170 164 169
f 169 188 189
f 170 169 189
f 59 58 84
f 85 59 84
f 60 59 85
f 171 170 189
f 190 171 189
f 61 60 85
f 86 61 85
f 172 191 192
f 173 172 192
f 62 61 86
f 87 62 86
f 174 173 192
f 193 174 192
f 382 381 393
f 394 382 393
f 249 248 261
f 262 249 261
f 175 174 193
f 194 175 193
f 62 87 88
f 63 62 88
f 335 334 344
f 345 335 344
f 383 382 394
f 395 383 394
f 176 175 194
f 195 176 194
f 251 250 263
f 264 251 263
f 336 335 345
f 346 336 345
f 337 336 347
f 348 337 347
f 64 63 88
f 89 64 88
f 338 337 348
f 349 338 348
f 1137 1124 1121
f 1109 1013 1012
f 1137 1121 1122
f 1116 1124 1137
f 1115 1116 1137
f 1114 1115 1137
f 1113 1114 1137
f 1111 1113 1137
f 1110 1111 1137
f 1112 1110 1137
f 1109 1137 1122
f 1109 1122 1129
f 1109 1129 1131
f 1109 1131 1119
f 1109 1119 1120
f 1109 1120 1126
f 1109 1126 1013
f 253 252 265
f 266 253 265
f 178 177 196
f 197 178 196
f 65 64 89
f 90 65 89
f 938 1019 885
f 1018 885 1019
f 256 272 273
f 255 272 256
f 971 970 885
f 894 885 970
f 1018 971 885
f 66 65 90
f 91 66 90
f 972 982 894
f 893 894 982
f 970 972 894
f 257 273 274
f 256 273 257
f 67 66 91
f 92 67 91
f 268 274 275
f 257 274 268
f 67 92 93
f 68 67 93
f 259 269 270
f 277 270 269
f 982 951 893
f 893 986 993
f 985 986 893
f 975 985 893
f 961 975 893
f 960 961 893
f 952 960 893
f 951 952 893
f 69 68 93
f 94 69 93
f 831 833 1080
f 956 1080 833
f 260 259 271
f 270 271 259
f 279 260 271
f 1055 955 919
f 919 955 909
f 69 94 95
f 70 69 95
f 27 1 468
f 53 27 468
f 79 53 468
f 104 79 468
f 146 104 468
f 172 146 468
f 191 172 468
f 210 191 468
f 226 210 468
f 242 226 468
f 255 242 468
f 470 255 468
f 272 255 470
f 287 272 470
f 300 287 470
f 313 300 470
f 329 313 470
f 339 329 470
f 357 339 470
f 363 357 470
f 369 363 470
f 375 369 470
f 378 375 470
f 381 378 470
f 393 381 470
f 407 393 470
f 410 407 470
f 413 410 470
f 420 413 470
f 444 420 470
f 71 95 96
f 70 95 71
f 921 1038 1039
f 1055 921 1039
f 919 921 1055
f 73 72 97
f 98 73 97
f 340 339 358
f 357 358 339
f 1066 831 1067
f 1080 1067 831
f 787 831 1065
f 997 787 1065
f 75 74 99
f 100 75 99
f 179 178 197
f 198 179 197
f 996 1000 1040
f 1142 996 1040
f 77 76 101
f 102 77 101
f 350 358 359
f 340 358 350
f 1040 1038 1142
f 921 920 1038
f 1142 1038 920
f 385 384 397
f 398 385 397
f 180 179 198
f 199 180 198
f 80 79 104
f 105 80 104
f 893 993 1100
f 1101 1100 993
f 994 1101 993
f 181 180 199
f 200 181 199
f 181 200 201
f 201 200 207
f 1100 924 893
f 893 924 925
f 751 893 925
f 181 201 202
f 182 181 202
f 209 182 202
f 183 182 209
f 218 183 209
f 262 261 281
f 910 281 261
f 909 910 261
f 911 281 910
f 919 909 261
f 921 919 261
f 920 921 261
f 895 1136 728
f 1083 895 728
f 1086 1083 728
f 1133 728 1136
f 184 219 220
f 183 219 184
f 218 219 183
f 385 398 399
f 386 385 399
f 824 829 991
f 990 824 991
f 1053 824 990
f 203 220 221
f 184 220 203
f 81 80 105
f 106 81 105
f 263 281 282
f 262 281 263
f 82 81 106
f 107 82 106
f 387 386 399
f 400 387 399
f 1015 1017 1051
f 1125 1051 1017
f 1118 1051 1125
f 1117 1051 1118
f 1132 1051 1117
f 1130 1051 1132
f 1103 1051 1130
f 264 282 283
f 263 282 264
f 991 829 992
f 1007 992 829
f 83 82 107
f 108 83 107
f 908 907 751
f 877 751 907
f 926 908 751
f 387 400 401
f 388 387 401
f 445 444 470
f 446 445 470
f 447 446 470
f 448 447 470
f 449 448 470
f 450 449 470
f 451 450 470
f 452 451 470
f 453 452 470
f 454 453 470
f 455 454 470
f 456 455 470
f 457 456 470
f 458 457 470
f 459 458 470
f 460 459 470
f 471 460 470
f 461 460 471
f 462 461 471
f 463 462 471
f 464 463 471
f 465 464 471
f 466 465 471
f 467 466 471
f 265 283 284
f 264 283 265
f 266 284 285
f 265 284 266
f 186 185 203
f 204 186 203
f 84 83 108
f 109 84 108
f 189 188 224
f 205 224 188
f 223 224 205
f 187 205 188
f 389 388 401
f 402 389 401
f 206 224 225
f 189 224 206
f 267 285 286
f 266 285 267
f 950 730 1123
f 917 1123 730
f 984 950 1123
f 945 950 984
f 941 945 984
f 940 941 984
f 928 940 984
f 927 928 984
f 936 927 984
f 1004 936 984
f 983 1004 984
f 916 917 730
f 792 916 730
f 192 210 211
f 191 210 192
f 85 84 109
f 110 85 109
f 916 792 918
f 1141 918 792
f 345 344 352
f 353 345 352
f 269 268 275
f 276 269 275
f 193 211 212
f 192 211 193
f 792 728 1133
f 1134 792 1133
f 1138 792 1134
f 1139 792 1138
f 86 85 110
f 111 86 110
f 346 345 353
f 354 346 353
f 792 1140 1141
f 1139 1140 792
f 271 270 277
f 278 271 277
f 348 347 354
f 355 348 354
f 829 841 1028
f 1005 829 1028
f 1006 829 1005
f 88 87 112
f 113 88 112
f 349 348 355
f 356 349 355
f 907 900 877
f 391 390 404
f 405 391 404
f 272 287 288
f 273 272 288
f 90 89 114
f 115 90 114
f 879 877 1135
f 899 1135 877
f 898 899 877
f 901 898 877
f 900 901 877
f 947 351 350
f 915 905 350
f 915 350 359
f 906 350 905
f 947 350 906
f 914 915 359
f 981 914 359
f 392 391 405
f 406 392 405
f 937 932 879
f 963 879 932
f 1135 937 879
f 750 879 963
f 274 273 288
f 289 274 288
f 93 92 117
f 118 93 117
f 839 968 969
f 953 968 839
f 950 953 730
f 730 953 839
f 394 393 407
f 408 394 407
f 841 830 1028
f 1021 1028 830
f 1020 1021 830
f 278 277 292
f 291 292 277
f 276 291 277
f 830 974 1020
f 973 974 830
f 93 118 119
f 94 93 119
f 830 839 967
f 966 830 967
f 280 279 292
f 293 280 292
f 95 94 119
f 120 95 119
f 443 467 471
f 406 443 471
f 392 406 471
f 374 392 471
f 368 374 471
f 362 368 471
f 356 362 471
f 349 356 471
f 338 349 471
f 325 338 471
f 312 325 471
f 299 312 471
f 286 299 471
f 267 286 471
f 254 267 471
f 241 254 471
f 225 241 471
f 206 225 471
f 469 206 471
f 190 206 469
f 171 190 469
f 165 171 469
f 145 165 469
f 137 145 469
f 128 137 469
f 103 128 469
f 78 103 469
f 52 78 469
f 26 52 469
f 396 395 409
f 412 396 409
f 423 396 412
f 415 423 412
f 422 423 415
f 96 95 120
f 121 96 120
f 98 97 121
f 122 98 121
f 99 98 122
f 123 99 122
f 282 281 294
f 295 282 294
f 99 123 124
f 100 99 124
f 125 100 124
f 25 26 469
f 24 25 469
f 23 24 469
f 22 23 469
f 21 22 469
f 468 21 469
f 20 21 468
f 19 20 468
f 18 19 468
f 17 18 468
f 16 17 468
f 15 16 468
f 14 15 468
f 13 14 468
f 12 13 468
f 11 12 468
f 10 11 468
f 9 10 468
f 8 9 468
f 7 8 468
f 6 7 468
f 5 6 468
f 4 5 468
f 3 4 468
f 2 3 468
f 1 2 468
f 1059 416 417
f 416 425 426
f 1058 425 416
f 1070 425 1058
f 1069 425 1070
f 1031 425 1069
f 1059 1058 416
f 923 1059 417
f 354 360 361
f 355 354 361
f 353 360 354
f 283 282 295
f 296 283 295
f 356 361 362
f 355 361 356
f 102 101 126
f 127 102 126
f 358 357 363
f 364 358 363
f 284 283 296
f 297 284 296
f 359 358 364
f 365 359 364
f 103 102 127
f 128 103 127
f 285 284 297
f 298 285 297
f 1136 397 384
f 895 397 1136
f 105 146 147
f 104 146 105
f 286 285 298
f 299 286 298
f 907 319 318
f 907 318 900
f 908 319 907
f 328 900 318
f 901 900 328
f 106 147 148
f 105 147 106
f 903 342 904
f 343 342 903
f 372 366 916
f 917 916 366
f 918 372 916
f 1073 1072 419
f 419 429 430
f 942 419 1072
f 1073 419 430
f 1081 1073 430
f 1082 1081 430
f 288 287 300
f 301 288 300
f 319 908 926
f 925 319 926
f 924 319 925
f 107 148 149
f 106 148 107
f 333 343 932
f 937 333 932
f 288 301 302
f 289 288 302
f 108 149 150
f 107 149 108
f 418 419 934
f 933 418 934
f 935 418 933
f 1083 431 432
f 1083 432 397
f 895 1083 397
f 949 946 351
f 946 904 351
f 342 351 904
f 948 949 351
f 947 948 351
f 290 289 302
f 303 290 302
f 398 432 433
f 397 432 398
f 419 942 943
f 944 419 943
f 934 419 944
f 291 290 303
f 304 291 303
f 950 555 953
f 945 555 950
f 399 433 434
f 398 433 399
f 291 304 305
f 292 291 305
f 343 903 964
f 965 343 964
f 962 343 965
f 963 343 962
f 932 343 963
f 400 399 435
f 434 435 399
f 293 292 305
f 306 293 305
f 401 435 436
f 400 435 401
f 974 973 557
f 555 557 973
f 966 555 973
f 967 555 966
f 969 555 967
f 968 555 969
f 402 401 437
f 436 437 401
f 509 970 971
f 972 970 509
f 295 294 307
f 308 295 307
f 296 295 308
f 309 296 308
f 509 951 982
f 972 509 982
f 508 951 509
f 296 309 310
f 297 296 310
f 298 297 310
f 311 298 310
f 365 988 359
f 987 359 988
f 995 359 987
f 981 359 995
f 912 988 365
f 298 311 312
f 299 298 312
f 496 930 931
f 989 496 931
f 500 930 496
f 112 129 130
f 138 130 129
f 546 990 991
f 992 546 991
f 301 300 313
f 314 301 313
f 114 113 130
f 139 114 130
f 994 993 625
f 508 625 986
f 993 986 625
f 404 440 441
f 403 440 404
f 701 555 1004
f 983 701 1004
f 302 301 314
f 315 302 314
f 546 992 1007
f 550 546 1005
f 1006 546 1007
f 1005 546 1006
f 115 139 153
f 152 153 139
f 114 139 115
f 929 500 939
f 930 500 929
f 405 441 442
f 404 441 405
f 302 315 316
f 303 302 316
f 542 692 1014
f 1015 692 1017
f 1014 692 1015
f 116 153 154
f 115 153 116
f 1012 483 1016
f 1013 483 1012
f 406 442 443
f 405 442 406
f 1020 557 1021
f 974 557 1020
f 304 303 316
f 317 304 316
f 500 971 1018
f 1019 500 1018
f 509 971 500
f 117 116 155
f 154 155 116
f 408 407 410
f 411 408 410
f 423 424 1022
f 396 423 1022
f 1023 396 1022
f 304 317 318
f 305 304 318
f 1028 1021 550
f 557 550 1021
f 1005 1028 550
f 118 117 156
f 155 156 117
f 938 500 1019
f 939 500 938
f 306 305 318
f 319 306 318
f 119 156 157
f 118 156 119
f 1029 425 1031
f 424 425 1029
f 1030 424 1029
f 1044 424 1030
f 1045 424 1044
f 1042 424 1045
f 1043 424 1042
f 1046 424 1043
f 1047 424 1046
f 1022 424 1047
f 545 583 1039
f 1038 545 1039
f 1040 545 1038
f 1000 545 1040
f 999 545 1000
f 1010 545 999
f 1010 494 545
f 1041 494 1010
f 1057 1056 494
f 523 494 1056
f 1041 1057 494
f 583 955 1055
f 1039 583 1055
f 954 955 583
f 281 911 977
f 294 281 977
f 1035 294 977
f 1011 473 1061
f 504 1061 473
f 1011 531 473
f 1001 531 1011
f 998 531 1001
f 1066 1067 531
f 551 531 1067
f 1065 1066 531
f 997 1065 531
f 998 997 531
f 1067 1080 551
f 536 551 957
f 956 551 1080
f 957 551 956
f 1078 504 1079
f 1064 504 1078
f 1062 504 1064
f 1082 430 431
f 1086 431 1083
f 1087 431 1086
f 1082 431 1087
f 504 480 1085
f 1084 504 1085
f 1079 504 1084
f 536 957 958
f 976 536 958
f 552 536 1054
f 1054 536 1034
f 1092 505 1094
f 1093 505 1092
f 1052 294 1035
f 307 294 1052
f 1050 307 1052
f 319 924 625
f 625 924 1100
f 1101 625 1100
f 1085 480 1099
f 1093 1099 480
f 505 1093 480
f 536 976 980
f 1034 536 980
f 642 307 1050
f 1051 642 1050
f 1103 642 1051
f 1060 922 417
f 1003 1060 417
f 902 1003 417
f 896 902 417
f 418 896 417
f 897 896 418
f 1095 897 418
f 935 1095 418
f 959 583 978
f 584 978 583
f 954 583 959
f 523 1056 1074
f 1088 523 1074
f 1089 1096 523
f 525 523 1096
f 1088 1089 523
f 979 584 1033
f 978 584 979
f 584 542 1014
f 1032 584 1014
f 1104 483 1105
f 1016 483 1104
f 525 1096 1097
f 1105 525 1097
f 483 525 1105
f 704 483 1110
f 1112 704 1110
f 1053 990 546
f 1054 1053 552
f 552 1053 546
f 1102 505 989
f 496 989 505
f 1108 505 1102
f 1094 505 1108
f 672 1118 674
f 1117 1118 672
f 366 701 1123
f 984 1123 701
f 682 1017 692
f 1125 1017 682
f 1068 1071 377
f 365 371 1008
f 1127 1008 371
f 913 365 1008
f 1128 1127 371
f 377 1128 371
f 1071 1128 377
f 1049 1048 380
f 380 1068 377
f 1048 1068 380
f 383 1027 1049
f 383 1049 380
f 1024 1027 383
f 642 1132 664
f 1130 1132 642
f 664 1117 672
f 1132 1117 664
f 674 1125 682
f 1118 1125 674
f 1133 384 1134
f 1136 384 1133
f 1134 384 385
f 1134 385 1138
f 1139 386 1140
f 1138 385 386
f 1138 386 1139
f 232 704 1106
f 1098 232 1106
f 1091 232 1098
f 1090 232 1091
f 1076 233 232
f 1076 232 1090
f 1077 233 1076
f 1075 234 233
f 247 234 1075
f 1075 233 1077
f 1109 704 1137
f 1107 704 1109
f 1106 704 1107
f 261 247 920
f 1063 247 1075
f 1009 247 1063
f 1002 247 1009
f 996 247 1002
f 1142 247 996
f 920 247 1142
f 1025 383 395
f 1024 383 1025
f 396 1025 395
f 1026 396 1036
f 1037 1036 396
f 1023 1037 396
f 1025 396 1026
