v -1.3290410229681588 1.5694815981805097 0.54000000000000004
v -0.55095897703184105 1.5694815981805097 0.54000000000000004
v -0.93999999999999995 1.3290410229681588 1.1694815981805098
v -0.93999999999999995 1.3290410229681588 -0.089481598180509603
v -1.5694815981805097 0.93999999999999995 0.15095897703184119
v -1.5694815981805097 0.93999999999999995 0.92904102296815894
v -0.93999999999999995 1.6799999999999999 0.54000000000000004
v -1.168672575837461 1.5386725758374611 0.91000000000000014
v -0.7113274241625388 1.5386725758374611 0.91000000000000014
v -0.93999999999999995 0.93999999999999995 1.28
v -1.168672575837461 1.5386725758374611 0.16999999999999998
v -0.7113274241625388 1.5386725758374611 0.16999999999999998
v -0.93999999999999995 0.93999999999999995 -0.19999999999999996
v -1.5386725758374611 1.3100000000000001 0.31132742416253889
v -1.5386725758374611 0.56999999999999984 0.31132742416253889
v -1.3100000000000001 0.7113274241625388 -0.058672575837461105
v -1.3100000000000001 1.168672575837461 -0.058672575837461105
v -1.5386725758374611 1.3100000000000001 0.76867257583746118
v -1.5386725758374611 0.56999999999999984 0.76867257583746118
v -1.3100000000000001 0.7113274241625388 1.1386725758374612
v -1.3100000000000001 1.168672575837461 1.1386725758374612
v -1.6799999999999999 0.93999999999999995 0.54000000000000004
v -1.1422172313953771 1.6518343847600989 0.54000000000000004
v -0.73778276860462289 1.6518343847600989 0.54000000000000004
v -1.261077537768994 1.5783746755079777 0.73232001562573834
v -1.0588603063736171 1.4533975533947325 1.0595143691343607
v -1.0602202876061753 1.6437818220584135 0.73452051148407949
v -0.61892246223100589 1.5783746755079777 0.73232001562573834
v -0.82113969362638284 1.4533975533947325 1.0595143691343607
v -0.81977971239382463 1.6437818220584135 0.73452051148407949
v -0.93999999999999995 1.5694815981805097 0.92904102296815894
v -0.93999999999999995 1.1422172313953771 1.251834384760099
v -1.261077537768994 1.5783746755079777 0.34767998437426179
v -1.0588603063736171 1.4533975533947325 0.02048563086563937
v -1.0602202876061753 1.6437818220584135 0.34547948851592059
v -0.61892246223100589 1.5783746755079777 0.34767998437426179
v -0.82113969362638284 1.4533975533947325 0.02048563086563937
v -0.81977971239382463 1.6437818220584135 0.34547948851592059
v -0.93999999999999995 1.5694815981805097 0.15095897703184108
v -0.93999999999999995 1.1422172313953771 -0.17183438476009893
v -0.42660244660526747 1.4595143691343608 0.42113969362638287
v -0.50503891330356976 1.4492613105743342 0.22525920090974522
v -0.74767998437426164 1.261077537768994 -0.098374675507977738
v -0.62525920090974507 1.3749610866964301 0.030738689425665822
v -0.42660244660526747 1.4595143691343608 0.65886030637361714
v -0.50503891330356976 1.4492613105743342 0.85474079909025491
v -0.74767998437426164 1.261077537768994 1.1783746755079778
v -0.62525920090974507 1.3749610866964301 1.0492613105743342
v -0.7454794885159205 1.0602202876061753 1.2437818220584136
v -1.4533975533947325 1.4595143691343608 0.42113969362638287
v -1.5783746755079777 1.1323200156257383 0.21892246223100587
v -1.3749610866964301 1.4492613105743342 0.22525920090974522
v -1.4533975533947325 0.42048563086563917 0.42113969362638287
v -1.5783746755079777 0.74767998437426164 0.21892246223100587
v -1.3749610866964301 0.43073868942566573 0.22525920090974522
v -1.4595143691343606 0.82113969362638284 0.026602446605267671
v -1.1345205114840795 0.81977971239382463 -0.16378182205841363
v -1.4492613105743342 0.62525920090974507 0.1050389133035699
v -1.1323200156257383 1.261077537768994 -0.098374675507977738
v -1.4595143691343606 1.0588603063736171 0.026602446605267671
v -1.2547407990902548 1.3749610866964301 0.030738689425665822
v -1.1345205114840795 1.0602202876061753 -0.16378182205841363
v -1.4492613105743342 1.2547407990902548 0.1050389133035699
v -1.3290410229681588 0.93999999999999995 -0.089481598180509492
v -1.4533975533947325 1.4595143691343608 0.65886030637361714
v -1.5783746755079777 1.1323200156257383 0.86107753776899421
v -1.3749610866964301 1.4492613105743342 0.85474079909025491
v -1.5694815981805095 1.3290410229681588 0.54000000000000004
v -1.4533975533947325 0.42048563086563917 0.65886030637361714
v -1.5783746755079777 0.74767998437426164 0.86107753776899421
v -1.3749610866964301 0.43073868942566573 0.85474079909025491
v -1.5694815981805095 0.55095897703184105 0.54000000000000004
v -1.4595143691343606 0.82113969362638284 1.0533975533947324
v -1.1345205114840795 0.81977971239382463 1.2437818220584136
v -1.4492613105743342 0.62525920090974507 0.97496108669643022
v -1.1323200156257383 1.261077537768994 1.1783746755079778
v -1.4595143691343606 1.0588603063736171 1.0533975533947324
v -1.2547407990902548 1.3749610866964301 1.0492613105743342
v -1.1345205114840795 1.0602202876061753 1.2437818220584136
v -1.4492613105743342 1.2547407990902548 0.97496108669643022
v -1.3290410229681588 0.93999999999999995 1.1694815981805096
v -1.6518343847600989 0.93999999999999995 0.33778276860462297
v -1.6518343847600989 0.93999999999999995 0.7422172313953771
v -1.6437818220584135 1.1345205114840795 0.41977971239382467
v -1.6437818220584135 0.7454794885159205 0.41977971239382467
v -1.6437818220584135 1.1345205114840795 0.66022028760617535
v -1.6437818220584135 0.7454794885159205 0.66022028760617535
v -1.2384829579768497 1.6171321317124083 0.54000000000000004
v -1.0420846591744488 1.6729247726480776 0.54000000000000004
v -0.6415170420231503 1.6171321317124083 0.54000000000000004
v -0.83791534082555097 1.6729247726480776 0.54000000000000004
v -1.2984868151248943 1.5800477085388231 0.63708828032162956
v -1.2175285399338751 1.5644944912205687 0.82387416218693543
v -1.2050893071800683 1.623985404452396 0.63742497480052784
v -1.0000038571480445 1.3955750954465236 1.1200438513907789
v -1.1154438807594262 1.5014027021208105 0.98905061046114251
v -1.0008594243067281 1.6708893720404019 0.63847261706403757
v -1.116620928436499 1.599344827899392 0.82577866533481825
v -1.1028866003302364 1.6551305220778048 0.63826643285264784
v -1.1629315705289915 1.6180206896414995 0.73542123548770855
v -0.58151318487510573 1.5800477085388231 0.63708828032162956
v -0.66247146006612478 1.5644944912205687 0.82387416218693543
v -0.67491069281993155 1.623985404452396 0.63742497480052784
v -0.87999614285195538 1.3955750954465236 1.1200438513907789
v -0.76455611924057376 1.5014027021208105 0.98905061046114251
v -0.93999999999999995 1.4601512025609522 1.0663484838720401
v -0.87914057569327186 1.6708893720404019 0.63847261706403757
v -0.76337907156350104 1.599344827899392 0.82577866533481825
v -0.77711339966976356 1.6551305220778048 0.63826643285264784
v -0.93999999999999995 1.6532573349660407 0.73713947883957986
v -0.71706842947100824 1.6180206896414995 0.73542123548770855
v -1.0557615041297708 1.5617316351420827 0.92425128239885579
v -0.82423849587022913 1.5617316351420827 0.92425128239885579
v -1.0000449701987553 1.5173512343254938 0.99897729113395084
v -1.0009194492236504 1.6156070447699014 0.83570921825936995
v -0.87995502980124463 1.5173512343254938 0.99897729113395084
v -0.87908055077634939 1.6156070447699014 0.83570921825936995
v -0.93999999999999995 0.83791534082555097 1.2729247726480777
v -0.93999999999999995 1.2384829579768497 1.2171321317124084
v -0.93999999999999995 1.0420846591744488 1.2729247726480777
v -1.2984868151248943 1.5800477085388231 0.44291171967837051
v -1.2175285399338751 1.5644944912205687 0.25612583781306469
v -1.2050893071800683 1.623985404452396 0.44257502519947223
v -1.0000038571480445 1.3955750954465236 -0.040043851390778817
v -1.1154438807594262 1.5014027021208105 0.090949389538857561
v -1.0008594243067281 1.6708893720404019 0.4415273829359625
v -1.116620928436499 1.599344827899392 0.25422133466518188
v -1.1028866003302364 1.6551305220778048 0.44173356714735224
v -1.1629315705289915 1.6180206896414995 0.34457876451229158
v -0.58151318487510573 1.5800477085388231 0.44291171967837051
v -0.66247146006612478 1.5644944912205687 0.25612583781306469
v -0.67491069281993155 1.623985404452396 0.44257502519947223
v -0.87999614285195538 1.3955750954465236 -0.040043851390778817
v -0.76455611924057376 1.5014027021208105 0.090949389538857561
v -0.93999999999999995 1.4601512025609522 0.013651516127960006
v -0.87914057569327186 1.6708893720404019 0.4415273829359625
v -0.76337907156350104 1.599344827899392 0.25422133466518188
v -0.77711339966976356 1.6551305220778048 0.44173356714735224
v -0.93999999999999995 1.6532573349660407 0.34286052116042021
v -0.71706842947100824 1.6180206896414995 0.34457876451229158
v -1.0557615041297708 1.5617316351420827 0.15574871760114428
v -0.82423849587022913 1.5617316351420827 0.15574871760114428
v -1.0000449701987553 1.5173512343254938 0.081022708866049231
v -1.0009194492236504 1.6156070447699014 0.24429078174063018
v -0.87995502980124463 1.5173512343254938 0.081022708866049231
v -0.87908055077634939 1.6156070447699014 0.24429078174063018
v -0.93999999999999995 1.2384829579768497 -0.13713213171240823
v -0.93999999999999995 1.0420846591744488 -0.19292477264807772
v -0.48442490455347631 1.5200438513907786 0.47999614285195541
v -0.51727377223957549 1.5265604296518682 0.38236307941964398
v -0.60404703019273531 1.5008722108353545 0.19336191035845379
v -0.55807000116221483 1.5197542567888518 0.28384676905614592
v -0.46091519852715412 1.4597092865900965 0.3209566014924512
v -0.84291171967837042 1.2984868151248943 -0.10004770853882328
v -0.65612583781306455 1.2175285399338751 -0.084494491220568624
v -0.78236307941964389 1.3627262277604244 -0.046560429651868129
v -0.84257502519947214 1.2050893071800683 -0.14398540445239605
v -0.6649064544994634 1.4632590180780451 0.094889293294416199
v -0.59336191035845365 1.2759529698072645 -0.02087221083535451
v -0.72095660149245111 1.4190848014728457 0.020290713409903627
v -0.56010217348946845 1.4184675659303214 0.12245188329332912
v -0.68384676905614583 1.3219299988377853 -0.039754256788851694
v -0.84152738293596241 1.0008594243067281 -0.19088937204040191
v -0.84173356714735215 1.1028866003302364 -0.17513052207780488
v -0.74457876451229144 1.1629315705289918 -0.13802068964149961
v -0.46153243406967853 1.357548116706671 0.16010217348946859
v -0.52245188329332903 1.3198978265105314 0.061532434069678621
v -0.48442490455347631 1.5200438513907786 0.60000385714804461
v -0.51727377223957549 1.5265604296518682 0.69763692058035609
v -0.41984879743904779 1.4663484838720402 0.54000000000000004
v -0.60404703019273531 1.5008722108353545 0.88663808964154622
v -0.41674098192195486 1.3851107067055837 0.81509354550053659
v -0.55807000116221483 1.5197542567888518 0.79615323094385415
v -0.46091519852715412 1.4597092865900965 0.75904339850754887
v -0.84291171967837042 1.2984868151248943 1.1800477085388232
v -0.65612583781306455 1.2175285399338751 1.1644944912205686
v -0.78236307941964389 1.3627262277604244 1.1265604296518683
v -0.84257502519947214 1.2050893071800683 1.2239854044523961
v -0.6649064544994634 1.4632590180780451 0.98511070670558387
v -0.59336191035845365 1.2759529698072645 1.1008722108353546
v -0.72095660149245111 1.4190848014728457 1.0597092865900963
v -0.56010217348946845 1.4184675659303214 0.95754811670667095
v -0.68384676905614583 1.3219299988377853 1.1197542567888519
v -0.84152738293596241 1.0008594243067281 1.270889372040402
v -0.65422133466518173 1.116620928436499 1.1993448278993921
v -0.84173356714735215 1.1028866003302364 1.2551305220778048
v -0.74457876451229144 1.1629315705289918 1.2180206896414996
v -0.46153243406967853 1.357548116706671 0.91989782651053154
v -0.52245188329332903 1.3198978265105314 1.0184675659303215
v -1.3955750954465236 1.5200438513907786 0.47999614285195541
v -1.5014027021208105 1.3890506104611424 0.36455611924057385
v -1.3627262277604244 1.5265604296518682 0.38236307941964398
v -1.5800477085388231 1.0370882803216295 0.18151318487510582
v -1.5644944912205685 1.2238741621869353 0.26247146006612487
v -1.2759529698072645 1.5008722108353545 0.19336191035845379
v -1.4632590180780451 1.3851107067055837 0.26490645449946354
v -1.3219299988377851 1.5197542567888518 0.28384676905614592
v -1.4190848014728457 1.4597092865900965 0.3209566014924512
v -1.5014027021208105 0.49094938953885747 0.36455611924057385
v -1.5800477085388231 0.84291171967837042 0.18151318487510582
v -1.5644944912205685 0.65612583781306455 0.26247146006612487
v -1.4632590180780451 0.49488929329441617 0.26490645449946354
v -1.4190848014728457 0.42029071340990343 0.3209566014924512
v -1.2238741621869353 0.66247146006612478 -0.084494491220568624
v -1.5200438513907786 0.87999614285195538 0.084424904553476399
v -1.3890506104611424 0.76455611924057376 -0.021402702120810413
v -1.5265604296518682 0.78236307941964389 0.11727377223957564
v -1.2866380896415461 0.60404703019273531 -0.02087221083535451
v -1.0384726170640375 0.87914057569327186 -0.19088937204040191
v -1.2257786653348182 0.76337907156350093 -0.11934482789939216
v -1.1354212354877085 0.71706842947100813 -0.13802068964149961
v -1.5008722108353545 0.59336191035845365 0.2040470301927354
v -1.3851107067055839 0.6649064544994634 0.016740981921954945
v -1.5197542567888518 0.68384676905614583 0.15807000116221481
v -1.4184675659303214 0.52245188329332903 0.16010217348946859
v -1.4597092865900962 0.72095660149245111 0.060915198527154324
v -1.357548116706671 0.56010217348946845 0.061532434069678621
v -1.0370882803216295 1.2984868151248943 -0.10004770853882328
v -1.2238741621869353 1.2175285399338751 -0.084494491220568624
v -1.097636920580356 1.3627262277604244 -0.046560429651868129
v -1.0374249748005278 1.2050893071800683 -0.14398540445239605
v -1.5200438513907786 1.0000038571480445 0.084424904553476399
v -1.3890506104611424 1.1154438807594262 -0.021402702120810413
v -1.5265604296518682 1.097636920580356 0.11727377223957564
v -1.4663484838720402 0.93999999999999995 0.019848797439047883
v -1.2150935455005365 1.4632590180780451 0.094889293294416199
v -1.2866380896415461 1.2759529698072645 -0.02087221083535451
v -1.1590433985075488 1.4190848014728457 0.020290713409903627
v -1.3198978265105314 1.4184675659303214 0.12245188329332912
v -1.1961532309438541 1.3219299988377853 -0.039754256788851694
v -1.0384726170640375 1.0008594243067281 -0.19088937204040191
v -1.2257786653348182 1.116620928436499 -0.11934482789939216
v -1.0382664328526479 1.1028866003302364 -0.17513052207780488
v -1.1371394788395799 0.93999999999999995 -0.17325733496604068
v -1.1354212354877085 1.1629315705289918 -0.13802068964149961
v -1.5008722108353545 1.2866380896415461 0.2040470301927354
v -1.3851107067055839 1.2150935455005365 0.016740981921954945
v -1.5197542567888518 1.1961532309438541 0.15807000116221481
v -1.4184675659303214 1.357548116706671 0.16010217348946859
v -1.4597092865900962 1.1590433985075488 0.060915198527154324
v -1.357548116706671 1.3198978265105314 0.061532434069678621
v -1.3242512823988557 0.82423849587022913 -0.081731635142082704
v -1.3242512823988557 1.0557615041297708 -0.081731635142082704
v -1.3989772911339506 0.87995502980124463 -0.037351234325493698
v -1.2357092182593699 0.87908055077634939 -0.13560704476990126
v -1.3989772911339506 1.0000449701987553 -0.037351234325493698
v -1.2357092182593699 1.0009194492236504 -0.13560704476990126
v -1.3955750954465236 1.5200438513907786 0.60000385714804461
v -1.5014027021208105 1.3890506104611424 0.71544388075942622
v -1.3627262277604244 1.5265604296518682 0.69763692058035609
v -1.4601512025609522 1.4663484838720402 0.54000000000000004
v -1.5800477085388231 1.0370882803216295 0.89848681512489426
v -1.5644944912205685 1.2238741621869353 0.8175285399338752
v -1.2759529698072645 1.5008722108353545 0.88663808964154622
v -1.4632590180780451 1.3851107067055837 0.81509354550053659
v -1.3219299988377851 1.5197542567888518 0.79615323094385415
v -1.4190848014728457 1.4597092865900965 0.75904339850754887
v -1.5617316351420827 1.3242512823988557 0.42423849587022922
v -1.5617316351420827 1.3242512823988557 0.65576150412977086
v -1.5173512343254938 1.3989772911339506 0.47995502980124471
v -1.5173512343254938 1.3989772911339506 0.60004497019875536
v -1.5014027021208105 0.49094938953885747 0.71544388075942622
v -1.4601512025609522 0.41365151612795981 0.54000000000000004
v -1.5800477085388231 0.84291171967837042 0.89848681512489426
v -1.5644944912205685 0.65612583781306455 0.8175285399338752
v -1.4632590180780451 0.49488929329441617 0.81509354550053659
v -1.4190848014728457 0.42029071340990343 0.75904339850754887
v -1.5617316351420827 0.55574871760114419 0.42423849587022922
v -1.5617316351420827 0.55574871760114419 0.65576150412977086
v -1.5173512343254938 0.48102270886604914 0.47995502980124471
v -1.5173512343254938 0.48102270886604914 0.60004497019875536
v -1.2238741621869353 0.66247146006612478 1.1644944912205686
v -1.5200438513907786 0.87999614285195538 0.99557509544652367
v -1.3890506104611424 0.76455611924057376 1.1014027021208106
v -1.5265604296518682 0.78236307941964389 0.96272622776042449
v -1.2866380896415461 0.60404703019273531 1.1008722108353546
v -1.3198978265105314 0.46153243406967853 0.95754811670667095
v -1.0384726170640375 0.87914057569327186 1.270889372040402
v -1.2257786653348182 0.76337907156350093 1.1993448278993921
v -1.0382664328526479 0.77711339966976356 1.2551305220778048
v -1.1354212354877085 0.71706842947100813 1.2180206896414996
v -1.5008722108353545 0.59336191035845365 0.87595296980726467
v -1.3851107067055839 0.6649064544994634 1.0632590180780452
v -1.5197542567888518 0.68384676905614583 0.92192999883778526
v -1.4184675659303214 0.52245188329332903 0.91989782651053154
v -1.4597092865900962 0.72095660149245111 1.0190848014728457
v -1.357548116706671 0.56010217348946845 1.0184675659303215
v -1.0370882803216295 1.2984868151248943 1.1800477085388232
v -1.2238741621869353 1.2175285399338751 1.1644944912205686
v -1.097636920580356 1.3627262277604244 1.1265604296518683
v -1.0374249748005278 1.2050893071800683 1.2239854044523961
v -1.5200438513907786 1.0000038571480445 0.99557509544652367
v -1.3890506104611424 1.1154438807594262 1.1014027021208106
v -1.5265604296518682 1.097636920580356 0.96272622776042449
v -1.4663484838720402 0.93999999999999995 1.0601512025609523
v -1.2150935455005365 1.4632590180780451 0.98511070670558387
v -1.2866380896415461 1.2759529698072645 1.1008722108353546
v -1.1590433985075488 1.4190848014728457 1.0597092865900963
v -1.3198978265105314 1.4184675659303214 0.95754811670667095
v -1.1961532309438541 1.3219299988377853 1.1197542567888519
v -1.0384726170640375 1.0008594243067281 1.270889372040402
v -1.2257786653348182 1.116620928436499 1.1993448278993921
v -1.0382664328526479 1.1028866003302364 1.2551305220778048
v -1.1371394788395799 0.93999999999999995 1.2532573349660407
v -1.1354212354877085 1.1629315705289918 1.2180206896414996
v -1.5008722108353545 1.2866380896415461 0.87595296980726467
v -1.3851107067055839 1.2150935455005365 1.0632590180780452
v -1.5197542567888518 1.1961532309438541 0.92192999883778526
v -1.4184675659303214 1.357548116706671 0.91989782651053154
v -1.4597092865900962 1.1590433985075488 1.0190848014728457
v -1.357548116706671 1.3198978265105314 1.0184675659303215
v -1.3242512823988557 0.82423849587022913 1.1617316351420828
v -1.3242512823988557 1.0557615041297708 1.1617316351420828
v -1.3989772911339506 0.87995502980124463 1.1173512343254939
v -1.2357092182593699 0.87908055077634939 1.2156070447699014
v -1.3989772911339506 1.0000449701987553 1.1173512343254939
v -1.2357092182593699 1.0009194492236504 1.2156070447699014
v -1.6171321317124083 0.93999999999999995 0.24151704202315039
v -1.6729247726480776 0.93999999999999995 0.43791534082555106
v -1.623985404452396 1.0374249748005278 0.27491069281993163
v -1.623985404452396 0.84257502519947214 0.27491069281993163
v -1.6171321317124083 0.93999999999999995 0.83848295797684969
v -1.6729247726480776 0.93999999999999995 0.64208465917444901
v -1.623985404452396 1.0374249748005278 0.80508930718006844
v -1.623985404452396 0.84257502519947214 0.80508930718006844
v -1.599344827899392 1.2257786653348182 0.36337907156350108
v -1.6708893720404019 1.0384726170640375 0.47914057569327195
v -1.6180206896414995 1.1354212354877085 0.31706842947100827
v -1.6156070447699014 1.2357092182593699 0.47908055077634948
v -1.6551305220778048 1.0382664328526479 0.37711339966976365
v -1.599344827899392 0.65422133466518173 0.36337907156350108
v -1.6708893720404019 0.84152738293596241 0.47914057569327195
v -1.6180206896414995 0.74457876451229144 0.31706842947100827
v -1.6156070447699014 0.64429078174063004 0.47908055077634948
v -1.6551305220778048 0.84173356714735215 0.37711339966976365
v -1.599344827899392 1.2257786653348182 0.71662092843649905
v -1.6708893720404019 1.0384726170640375 0.60085942430672812
v -1.6180206896414995 1.1354212354877085 0.76293157052899185
v -1.6156070447699014 1.2357092182593699 0.60091944922365059
v -1.6551305220778048 1.0382664328526479 0.70288660033023642
v -1.6532573349660407 1.1371394788395799 0.54000000000000004
v -1.599344827899392 0.65422133466518173 0.71662092843649905
v -1.6708893720404019 0.84152738293596241 0.60085942430672812
v -1.6180206896414995 0.74457876451229144 0.76293157052899185
v -1.6156070447699014 0.64429078174063004 0.60091944922365059
v -1.6551305220778048 0.84173356714735215 0.70288660033023642
v -1.6532573349660407 0.74286052116042001 0.54000000000000004
v 0.67095897703184115 -1.6894815981805098 0.46000000000000002
v 1.449041022968159 -1.6894815981805098 0.46000000000000002
v 1.0600000000000001 -1.449041022968159 1.0894815981805097
v 1.0600000000000001 -1.449041022968159 -0.16948159818050962
v 1.6894815981805098 -1.0600000000000001 0.070958977031841175
v 1.6894815981805098 -1.0600000000000001 0.84904102296815886
v 1.0600000000000001 -1.8 0.46000000000000002
v 0.83132742416253891 -1.6586725758374612 0.83000000000000007
v 1.2886725758374611 -1.6586725758374612 0.83000000000000007
v 1.0600000000000001 -1.0600000000000001 1.2
v 0.83132742416253891 -1.6586725758374612 0.089999999999999969
v 1.2886725758374611 -1.6586725758374612 0.089999999999999969
v 1.0600000000000001 -1.0600000000000001 -0.27999999999999997
v 1.6586725758374612 -0.68999999999999995 0.2313274241625389
v 1.6586725758374612 -1.4300000000000002 0.2313274241625389
v 1.4300000000000002 -1.2886725758374611 -0.13867257583746112
v 1.4300000000000002 -0.83132742416253891 -0.13867257583746112
v 1.6586725758374612 -0.68999999999999995 0.68867257583746111
v 1.6586725758374612 -1.4300000000000002 0.68867257583746111
v 1.4300000000000002 -1.2886725758374611 1.0586725758374611
v 1.4300000000000002 -0.83132742416253891 1.0586725758374611
v 1.8 -1.0600000000000001 0.46000000000000002
v 0.85778276860462299 -1.771834384760099 0.46000000000000002
v 1.2622172313953772 -1.771834384760099 0.46000000000000002
v 0.73892246223100599 -1.6983746755079778 0.65232001562573827
v 0.94113969362638294 -1.5733975533947326 0.97951436913436063
v 0.93977971239382474 -1.7637818220584136 0.65452051148407941
v 1.3810775377689941 -1.6983746755079778 0.65232001562573827
v 1.1788603063736172 -1.5733975533947326 0.97951436913436063
v 1.1802202876061754 -1.7637818220584136 0.65452051148407941
v 1.0600000000000001 -1.6894815981805098 0.84904102296815898
v 1.0600000000000001 -1.2622172313953772 1.1718343847600989
v 0.73892246223100599 -1.6983746755079778 0.26767998437426177
v 0.94113969362638294 -1.5733975533947326 -0.059514369134360645
v 0.93977971239382474 -1.7637818220584136 0.26547948851592063
v 1.3810775377689941 -1.6983746755079778 0.26767998437426177
v 1.1788603063736172 -1.5733975533947326 -0.059514369134360645
v 1.1802202876061754 -1.7637818220584136 0.26547948851592063
v 1.0600000000000001 -1.6894815981805098 0.070958977031841064
v 1.0600000000000001 -1.2622172313953772 -0.25183438476009895
v 1.5733975533947326 -0.54048563086563928 0.34113969362638286
v 1.6983746755079778 -0.86767998437426175 0.13892246223100585
v 1.4949610866964302 -0.55073868942566584 0.1452592009097452
v 1.5733975533947326 -1.5795143691343609 0.34113969362638286
v 1.6983746755079778 -1.2523200156257384 0.13892246223100585
v 1.4949610866964302 -1.5692613105743343 0.1452592009097452
v 1.2523200156257384 -1.3810775377689941 -0.17837467550797775
v 1.5795143691343607 -1.1788603063736172 -0.053397553394732344
v 1.3747407990902549 -1.4949610866964302 -0.049261310574334194
v 1.2545205114840796 -1.1802202876061754 -0.24378182205841364
v 1.5692613105743343 -1.3747407990902549 0.025038913303569887
v 1.5795143691343607 -0.94113969362638294 -0.053397553394732344
v 1.2545205114840796 -0.93977971239382474 -0.24378182205841364
v 1.5692613105743343 -0.74525920090974518 0.025038913303569887
v 1.449041022968159 -1.0600000000000001 -0.16948159818050951
v 1.5733975533947326 -0.54048563086563928 0.57886030637361718
v 1.6983746755079778 -0.86767998437426175 0.78107753776899425
v 1.4949610866964302 -0.55073868942566584 0.77474079909025484
v 1.6894815981805096 -0.67095897703184115 0.46000000000000002
v 1.5733975533947326 -1.5795143691343609 0.57886030637361718
v 1.6983746755079778 -1.2523200156257384 0.78107753776899425
v 1.4949610866964302 -1.5692613105743343 0.77474079909025484
v 1.6894815981805096 -1.449041022968159 0.46000000000000002
v 1.2523200156257384 -1.3810775377689941 1.0983746755079777
v 1.5795143691343607 -1.1788603063736172 0.97339755339473233
v 1.3747407990902549 -1.4949610866964302 0.96926131057433418
v 1.2545205114840796 -1.1802202876061754 1.1637818220584137
v 1.5692613105743343 -1.3747407990902549 0.89496108669643015
v 1.5795143691343607 -0.94113969362638294 0.97339755339473233
v 1.2545205114840796 -0.93977971239382474 1.1637818220584137
v 1.5692613105743343 -0.74525920090974518 0.89496108669643015
v 1.449041022968159 -1.0600000000000001 1.0894815981805095
v 1.771834384760099 -1.0600000000000001 0.25778276860462296
v 1.771834384760099 -1.0600000000000001 0.66221723139537714
v 1.7637818220584136 -0.8654794885159206 0.33977971239382465
v 1.7637818220584136 -1.2545205114840796 0.33977971239382465
v 1.7637818220584136 -0.8654794885159206 0.58022028760617539
v 1.7637818220584136 -1.2545205114840796 0.58022028760617539
v 0.54660244660526758 -1.5795143691343609 0.34113969362638286
v 0.62503891330356987 -1.5692613105743343 0.1452592009097452
v 0.86767998437426175 -1.3810775377689941 -0.17837467550797775
v 0.74525920090974518 -1.4949610866964302 -0.049261310574334194
v 0.8654794885159206 -1.1802202876061754 -0.24378182205841364
v 0.54660244660526758 -1.5795143691343609 0.57886030637361718
v 0.62503891330356987 -1.5692613105743343 0.77474079909025484
v 0.86767998437426175 -1.3810775377689941 1.0983746755079777
v 0.74525920090974518 -1.4949610866964302 0.96926131057433418
v 0.7615170420231504 -1.7371321317124084 0.46000000000000002
v 0.95791534082555108 -1.7929247726480777 0.46000000000000002
v 1.3584829579768498 -1.7371321317124084 0.46000000000000002
v 1.1620846591744489 -1.7929247726480777 0.46000000000000002
v 0.70151318487510583 -1.7000477085388233 0.55708828032162949
v 0.78247146006612489 -1.6844944912205688 0.74387416218693536
v 0.79491069281993165 -1.7439854044523961 0.55742497480052777
v 0.99999614285195548 -1.5155750954465237 1.0400438513907788
v 0.88455611924057387 -1.6214027021208106 0.90905061046114244
v 0.99914057569327197 -1.790889372040402 0.55847261706403761
v 0.88337907156350115 -1.7193448278993921 0.74577866533481818
v 0.89711339966976367 -1.7751305220778049 0.55826643285264788
v 0.83706842947100835 -1.7380206896414996 0.65542123548770848
v 1.4184868151248944 -1.7000477085388233 0.55708828032162949
v 1.3375285399338752 -1.6844944912205688 0.74387416218693536
v 1.3250893071800685 -1.7439854044523961 0.55742497480052777
v 1.1200038571480446 -1.5155750954465237 1.0400438513907788
v 1.2354438807594263 -1.6214027021208106 0.90905061046114244
v 1.0600000000000001 -1.5801512025609523 0.98634848387203999
v 1.1208594243067282 -1.790889372040402 0.55847261706403761
v 1.2366209284364991 -1.7193448278993921 0.74577866533481818
v 1.2228866003302366 -1.7751305220778049 0.55826643285264788
v 1.0600000000000001 -1.7732573349660408 0.6571394788395799
v 1.2829315705289916 -1.7380206896414996 0.65542123548770848
v 0.94423849587022923 -1.6817316351420828 0.84425128239885572
v 1.1757615041297709 -1.6817316351420828 0.84425128239885572
v 0.99995502980124473 -1.6373512343254939 0.91897729113395088
v 0.9990805507763495 -1.7356070447699015 0.75570921825936987
v 1.1200449701987554 -1.6373512343254939 0.91897729113395088
v 1.1209194492236505 -1.7356070447699015 0.75570921825936987
v 1.0600000000000001 -1.3584829579768498 1.1371321317124083
v 1.0600000000000001 -1.1620846591744489 1.1929247726480778
v 0.70151318487510583 -1.7000477085388233 0.36291171967837055
v 0.78247146006612489 -1.6844944912205688 0.17612583781306468
v 0.79491069281993165 -1.7439854044523961 0.36257502519947221
v 0.99999614285195548 -1.5155750954465237 -0.12004385139077883
v 0.88455611924057387 -1.6214027021208106 0.010949389538857546
v 0.99914057569327197 -1.790889372040402 0.36152738293596243
v 0.88337907156350115 -1.7193448278993921 0.17422133466518186
v 0.89711339966976367 -1.7751305220778049 0.36173356714735222
v 0.83706842947100835 -1.7380206896414996 0.26457876451229156
v 1.4184868151248944 -1.7000477085388233 0.36291171967837055
v 1.3375285399338752 -1.6844944912205688 0.17612583781306468
v 1.3250893071800685 -1.7439854044523961 0.36257502519947221
v 1.1200038571480446 -1.5155750954465237 -0.12004385139077883
v 1.2354438807594263 -1.6214027021208106 0.010949389538857546
v 1.0600000000000001 -1.5801512025609523 -0.066348483872040009
v 1.1208594243067282 -1.790889372040402 0.36152738293596243
v 1.2366209284364991 -1.7193448278993921 0.17422133466518186
v 1.2228866003302366 -1.7751305220778049 0.36173356714735222
v 1.0600000000000001 -1.7732573349660408 0.26286052116042014
v 1.2829315705289916 -1.7380206896414996 0.26457876451229156
v 0.94423849587022923 -1.6817316351420828 0.075748717601144266
v 1.1757615041297709 -1.6817316351420828 0.075748717601144266
v 0.99995502980124473 -1.6373512343254939 0.0010227088660492156
v 0.9990805507763495 -1.7356070447699015 0.16429078174063017
v 1.1200449701987554 -1.6373512343254939 0.0010227088660492156
v 1.1209194492236505 -1.7356070447699015 0.16429078174063017
v 1.0600000000000001 -1.3584829579768498 -0.21713213171240825
v 1.0600000000000001 -1.1620846591744489 -0.27292477264807774
v 1.0600000000000001 -0.95791534082555108 -0.27292477264807774
v 1.6214027021208106 -0.61094938953885758 0.28455611924057378
v 1.7000477085388233 -0.96291171967837053 0.1015131848751058
v 1.6844944912205686 -0.77612583781306466 0.18247146006612486
v 1.5832590180780453 -0.61488929329441633 0.18490645449946352
v 1.5390848014728458 -0.54029071340990353 0.24095660149245121
v 1.5155750954465237 -1.6400438513907787 0.39999614285195539
v 1.6214027021208106 -1.5090506104611425 0.28455611924057378
v 1.4827262277604245 -1.6465604296518683 0.30236307941964402
v 1.7000477085388233 -1.1570882803216296 0.1015131848751058
v 1.6844944912205686 -1.3438741621869355 0.18247146006612486
v 1.3959529698072646 -1.6208722108353546 0.11336191035845378
v 1.5832590180780453 -1.5051107067055838 0.18490645449946352
v 1.4419299988377852 -1.6397542567888519 0.2038467690561459
v 1.5390848014728458 -1.5797092865900966 0.24095660149245121
v 1.1570882803216296 -1.4184868151248944 -0.18004770853882329
v 1.3438741621869355 -1.3375285399338752 -0.16449449122056864
v 1.2176369205803561 -1.4827262277604245 -0.12656042965186814
v 1.1574249748005279 -1.3250893071800685 -0.22398540445239606
v 1.6400438513907787 -1.1200038571480446 0.0044249045534763831
v 1.5090506104611425 -1.2354438807594263 -0.10140270212081043
v 1.6465604296518683 -1.2176369205803561 0.03727377223957562
v 1.3350935455005366 -1.5832590180780453 0.014889293294416184
v 1.4066380896415462 -1.3959529698072646 -0.10087221083535453
v 1.2790433985075489 -1.5390848014728458 -0.059709286590096389
v 1.4398978265105316 -1.5384675659303215 0.042451883293329107
v 1.3161532309438542 -1.4419299988377854 -0.11975425678885171
v 1.1584726170640376 -1.1208594243067282 -0.27088937204040192
v 1.3457786653348183 -1.2366209284364991 -0.19934482789939217
v 1.158266432852648 -1.2228866003302366 -0.2551305220778049
v 1.2554212354877086 -1.2829315705289919 -0.21802068964149962
v 1.6208722108353546 -1.4066380896415462 0.12404703019273539
v 1.505110706705584 -1.3350935455005366 -0.063259018078045071
v 1.6397542567888519 -1.3161532309438542 0.078070001162214797
v 1.5384675659303215 -1.4775481167066711 0.080102173489468576
v 1.5797092865900964 -1.2790433985075489 -0.019084801472845692
v 1.4775481167066711 -1.4398978265105316 -0.018467565930321395
v 1.3438741621869355 -0.78247146006612489 -0.16449449122056864
v 1.6400438513907787 -0.99999614285195548 0.0044249045534763831
v 1.5090506104611425 -0.88455611924057387 -0.10140270212081043
v 1.6465604296518683 -0.902363079419644 0.03727377223957562
v 1.5863484838720403 -1.0600000000000001 -0.060151202560952133
v 1.4066380896415462 -0.72404703019273542 -0.10087221083535453
v 1.4398978265105316 -0.58153243406967858 0.042451883293329107
v 1.1584726170640376 -0.99914057569327197 -0.27088937204040192
v 1.3457786653348183 -0.88337907156350104 -0.19934482789939217
v 1.158266432852648 -0.89711339966976367 -0.2551305220778049
v 1.25713947883958 -1.0600000000000001 -0.25325733496604069
v 1.2554212354877086 -0.83706842947100824 -0.21802068964149962
v 1.6208722108353546 -0.71336191035845375 0.12404703019273539
v 1.505110706705584 -0.7849064544994635 -0.063259018078045071
v 1.6397542567888519 -0.80384676905614594 0.078070001162214797
v 1.5384675659303215 -0.64245188329332914 0.080102173489468576
v 1.5797092865900964 -0.84095660149245122 -0.019084801472845692
v 1.4775481167066711 -0.68010217348946855 -0.018467565930321395
v 1.4442512823988558 -1.1757615041297709 -0.16173163514208272
v 1.4442512823988558 -0.94423849587022923 -0.16173163514208272
v 1.5189772911339507 -1.1200449701987554 -0.11735123432549371
v 1.35570921825937 -1.1209194492236505 -0.21560704476990128
v 1.5189772911339507 -0.99995502980124473 -0.11735123432549371
v 1.35570921825937 -0.9990805507763495 -0.21560704476990128
v 1.6214027021208106 -0.61094938953885758 0.63544388075942626
v 1.5801512025609523 -0.53365151612795991 0.46000000000000002
v 1.7000477085388233 -0.96291171967837053 0.8184868151248943
v 1.6844944912205686 -0.77612583781306466 0.73752853993387513
v 1.5832590180780453 -0.61488929329441633 0.73509354550053652
v 1.5390848014728458 -0.54029071340990353 0.6790433985075488
v 1.6817316351420828 -0.6757487176011443 0.34423849587022914
v 1.6817316351420828 -0.6757487176011443 0.5757615041297709
v 1.6373512343254939 -0.60102270886604925 0.3999550298012447
v 1.6373512343254939 -0.60102270886604925 0.5200449701987554
v 1.5155750954465237 -1.6400438513907787 0.52000385714804465
v 1.6214027021208106 -1.5090506104611425 0.63544388075942626
v 1.4827262277604245 -1.6465604296518683 0.61763692058035602
v 1.5801512025609523 -1.5863484838720403 0.46000000000000002
v 1.7000477085388233 -1.1570882803216296 0.8184868151248943
v 1.6844944912205686 -1.3438741621869355 0.73752853993387513
v 1.3959529698072646 -1.6208722108353546 0.80663808964154626
v 1.5832590180780453 -1.5051107067055838 0.73509354550053652
v 1.4419299988377852 -1.6397542567888519 0.71615323094385408
v 1.5390848014728458 -1.5797092865900966 0.6790433985075488
v 1.6817316351420828 -1.4442512823988558 0.34423849587022914
v 1.6817316351420828 -1.4442512823988558 0.5757615041297709
v 1.6373512343254939 -1.5189772911339507 0.3999550298012447
v 1.6373512343254939 -1.5189772911339507 0.5200449701987554
v 1.1570882803216296 -1.4184868151248944 1.1000477085388234
v 1.3438741621869355 -1.3375285399338752 1.0844944912205687
v 1.2176369205803561 -1.4827262277604245 1.0465604296518682
v 1.1574249748005279 -1.3250893071800685 1.143985404452396
v 1.6400438513907787 -1.1200038571480446 0.9155750954465236
v 1.5090506104611425 -1.2354438807594263 1.0214027021208105
v 1.6465604296518683 -1.2176369205803561 0.88272622776042442
v 1.3350935455005366 -1.5832590180780453 0.90511070670558391
v 1.4066380896415462 -1.3959529698072646 1.0208722108353545
v 1.2790433985075489 -1.5390848014728458 0.97970928659009648
v 1.4398978265105316 -1.5384675659303215 0.87754811670667099
v 1.3161532309438542 -1.4419299988377854 1.0397542567888518
v 1.1584726170640376 -1.1208594243067282 1.1908893720404019
v 1.3457786653348183 -1.2366209284364991 1.1193448278993923
v 1.158266432852648 -1.2228866003302366 1.175130522077805
v 1.2554212354877086 -1.2829315705289919 1.1380206896414997
v 1.6208722108353546 -1.4066380896415462 0.79595296980726471
v 1.505110706705584 -1.3350935455005366 0.98325901807804517
v 1.6397542567888519 -1.3161532309438542 0.8419299988377853
v 1.5384675659303215 -1.4775481167066711 0.83989782651053146
v 1.5797092865900964 -1.2790433985075489 0.93908480147284568
v 1.4775481167066711 -1.4398978265105316 0.93846756593032143
v 1.3438741621869355 -0.78247146006612489 1.0844944912205687
v 1.6400438513907787 -0.99999614285195548 0.9155750954465236
v 1.5090506104611425 -0.88455611924057387 1.0214027021208105
v 1.6465604296518683 -0.902363079419644 0.88272622776042442
v 1.5863484838720403 -1.0600000000000001 0.98015120256095223
v 1.4066380896415462 -0.72404703019273542 1.0208722108353545
v 1.1584726170640376 -0.99914057569327197 1.1908893720404019
v 1.3457786653348183 -0.88337907156350104 1.1193448278993923
v 1.25713947883958 -1.0600000000000001 1.1732573349660407
v 1.2554212354877086 -0.83706842947100824 1.1380206896414997
v 1.6208722108353546 -0.71336191035845375 0.79595296980726471
v 1.505110706705584 -0.7849064544994635 0.98325901807804517
v 1.6397542567888519 -0.80384676905614594 0.8419299988377853
v 1.5384675659303215 -0.64245188329332914 0.83989782651053146
v 1.5797092865900964 -0.84095660149245122 0.93908480147284568
v 1.4775481167066711 -0.68010217348946855 0.93846756593032143
v 1.4442512823988558 -1.1757615041297709 1.0817316351420827
v 1.4442512823988558 -0.94423849587022923 1.0817316351420827
v 1.5189772911339507 -1.1200449701987554 1.0373512343254938
v 1.35570921825937 -1.1209194492236505 1.1356070447699014
v 1.5189772911339507 -0.99995502980124473 1.0373512343254938
v 1.35570921825937 -0.9990805507763495 1.1356070447699014
v 1.7371321317124084 -1.0600000000000001 0.16151704202315037
v 1.7929247726480777 -1.0600000000000001 0.3579153408255511
v 1.7439854044523961 -0.96257502519947225 0.19491069281993162
v 1.7439854044523961 -1.1574249748005279 0.19491069281993162
v 1.7371321317124084 -1.0600000000000001 0.75848295797684973
v 1.7929247726480777 -1.0600000000000001 0.56208465917444894
v 1.7439854044523961 -0.96257502519947225 0.72508930718006837
v 1.7439854044523961 -1.1574249748005279 0.72508930718006837
v 1.7193448278993921 -0.77422133466518184 0.28337907156350106
v 1.790889372040402 -0.96152738293596252 0.39914057569327188
v 1.7380206896414996 -0.86457876451229154 0.23706842947100826
v 1.7356070447699015 -0.76429078174063014 0.39908055077634952
v 1.7751305220778049 -0.96173356714735225 0.29711339966976363
v 1.7193448278993921 -1.3457786653348183 0.28337907156350106
v 1.790889372040402 -1.1584726170640376 0.39914057569327188
v 1.7380206896414996 -1.2554212354877086 0.23706842947100826
v 1.7356070447699015 -1.35570921825937 0.39908055077634952
v 1.7751305220778049 -1.158266432852648 0.29711339966976363
v 1.7193448278993921 -0.77422133466518184 0.63662092843649898
v 1.790889372040402 -0.96152738293596252 0.52085942430672816
v 1.7380206896414996 -0.86457876451229154 0.68293157052899178
v 1.7356070447699015 -0.76429078174063014 0.52091944922365052
v 1.7751305220778049 -0.96173356714735225 0.62288660033023646
v 1.7732573349660408 -0.86286052116042011 0.46000000000000002
v 1.7193448278993921 -1.3457786653348183 0.63662092843649898
v 1.790889372040402 -1.1584726170640376 0.52085942430672816
v 1.7380206896414996 -1.2554212354877086 0.68293157052899178
v 1.7356070447699015 -1.35570921825937 0.52091944922365052
v 1.7751305220778049 -1.158266432852648 0.62288660033023646
v 1.7732573349660408 -1.25713947883958 0.46000000000000002
v 0.60442490455347642 -1.6400438513907787 0.39999614285195539
v 0.6372737722395756 -1.6465604296518683 0.30236307941964402
v 0.72404703019273542 -1.6208722108353546 0.11336191035845378
v 0.53674098192195496 -1.5051107067055838 0.18490645449946352
v 0.67807000116221494 -1.6397542567888519 0.2038467690561459
v 0.58091519852715423 -1.5797092865900966 0.24095660149245121
v 0.96291171967837053 -1.4184868151248944 -0.18004770853882329
v 0.77612583781306466 -1.3375285399338752 -0.16449449122056864
v 0.902363079419644 -1.4827262277604245 -0.12656042965186814
v 0.96257502519947225 -1.3250893071800685 -0.22398540445239606
v 0.7849064544994635 -1.5832590180780453 0.014889293294416184
v 0.71336191035845375 -1.3959529698072646 -0.10087221083535453
v 0.84095660149245122 -1.5390848014728458 -0.059709286590096389
v 0.68010217348946855 -1.5384675659303215 0.042451883293329107
v 0.80384676905614594 -1.4419299988377854 -0.11975425678885171
v 0.96152738293596252 -1.1208594243067282 -0.27088937204040192
v 0.77422133466518184 -1.2366209284364991 -0.19934482789939217
v 0.96173356714735225 -1.2228866003302366 -0.2551305220778049
v 0.86457876451229154 -1.2829315705289919 -0.21802068964149962
v 0.58153243406967858 -1.4775481167066711 0.080102173489468576
v 0.64245188329332914 -1.4398978265105316 -0.018467565930321395
v 0.60442490455347642 -1.6400438513907787 0.52000385714804465
v 0.6372737722395756 -1.6465604296518683 0.61763692058035602
v 0.5398487974390479 -1.5863484838720403 0.46000000000000002
v 0.72404703019273542 -1.6208722108353546 0.80663808964154626
v 0.67807000116221494 -1.6397542567888519 0.71615323094385408
v 0.58091519852715423 -1.5797092865900966 0.6790433985075488
v 0.96291171967837053 -1.4184868151248944 1.1000477085388234
v 0.77612583781306466 -1.3375285399338752 1.0844944912205687
v 0.902363079419644 -1.4827262277604245 1.0465604296518682
v 0.96257502519947225 -1.3250893071800685 1.143985404452396
v 0.7849064544994635 -1.5832590180780453 0.90511070670558391
v 0.71336191035845375 -1.3959529698072646 1.0208722108353545
v 0.84095660149245122 -1.5390848014728458 0.97970928659009648
v 0.68010217348946855 -1.5384675659303215 0.87754811670667099
v 0.80384676905614594 -1.4419299988377854 1.0397542567888518
v 0.96152738293596252 -1.1208594243067282 1.1908893720404019
v 0.96173356714735225 -1.2228866003302366 1.175130522077805
v 0.86457876451229154 -1.2829315705289919 1.1380206896414997
v 0.58153243406967858 -1.4775481167066711 0.83989782651053146
v 0.64245188329332914 -1.4398978265105316 0.93846756593032143
f 434 694 688
f 434 687 689
f 689 687 683
f 673 674 667
f 315 304 317
f 301 304 278
f 10 301 278
f 278 118 10
f 317 304 79
f 79 304 301
f 610 608 592
f 643 629 369
f 369 633 643
f 566 448 349
f 637 640 576
f 576 362 637
f 637 362 505
f 678 688 432
f 683 687 373
f 685 678 355
f 688 678 685
f 434 688 685
f 685 687 434
f 357 466 592
f 592 608 357
f 434 689 686
f 686 694 434
f 433 689 683
f 674 665 429
f 429 667 674
f 13 209 231
f 673 667 427
f 657 427 659
f 432 688 693
f 214 201 54
f 344 346 87
f 87 342 344
f 324 340 83
f 536 514 395
f 472 482 354
f 354 482 438
f 441 372 439
f 279 315 312
f 304 315 74
f 280 278 74
f 74 278 304
f 74 315 279
f 81 316 314
f 81 315 317
f 314 312 81
f 81 312 315
f 86 336 339
f 337 340 86
f 405 615 560
f 560 615 612
f 604 616 613
f 77 316 293
f 416 604 622
f 416 616 604
f 598 596 571
f 573 596 599
f 599 596 415
f 415 596 598
f 497 624 352
f 352 624 504
f 504 514 352
f 440 445 355
f 355 678 440
f 474 475 382
f 382 472 474
f 354 444 436
f 436 472 354
f 370 474 436
f 436 474 472
f 375 450 448
f 458 450 375
f 599 590 409
f 409 574 575
f 409 573 599
f 575 573 409
f 575 574 568
f 448 566 568
f 568 375 448
f 574 375 568
f 371 478 437
f 437 450 371
f 349 448 437
f 448 450 437
f 349 437 476
f 476 437 478
f 484 478 371
f 371 438 484
f 484 438 482
f 486 478 484
f 505 362 526
f 526 528 505
f 505 528 392
f 516 514 504
f 504 392 516
f 516 392 528
f 395 514 516
f 649 652 425
f 369 629 649
f 629 652 649
f 679 678 432
f 432 680 679
f 372 440 679
f 679 440 678
f 443 373 687
f 687 685 443
f 443 685 355
f 414 610 592
f 621 610 414
f 601 590 599
f 599 415 601
f 601 415 597
f 681 433 683
f 684 433 681
f 689 433 682
f 682 686 689
f 668 665 661
f 668 429 665
f 148 164 163
f 40 164 148
f 148 13 231
f 543 532 540
f 285 282 266
f 277 287 285
f 266 71 285
f 265 284 70
f 282 284 265
f 70 344 265
f 265 344 342
f 271 69 262
f 231 209 234
f 234 209 57
f 341 86 339
f 337 86 341
f 207 214 54
f 263 69 271
f 345 342 87
f 270 263 271
f 53 263 270
f 323 340 337
f 323 83 340
f 323 337 22
f 346 83 323
f 531 396 518
f 550 363 523
f 518 396 521
f 521 396 519
f 523 363 511
f 511 525 523
f 394 525 511
f 511 363 518
f 511 521 394
f 518 521 511
f 480 384 519
f 488 386 491
f 491 480 488
f 384 480 491
f 491 386 489
f 492 386 488
f 399 536 554
f 402 551 554
f 468 475 380
f 471 381 489
f 489 386 487
f 487 471 489
f 358 471 487
f 371 450 456
f 456 438 371
f 456 450 458
f 435 370 441
f 441 439 435
f 283 287 276
f 314 316 295
f 295 316 77
f 77 292 295
f 294 292 77
f 253 308 306
f 604 613 368
f 602 609 368
f 607 613 617
f 602 368 607
f 607 368 613
f 622 604 619
f 604 368 619
f 619 368 609
f 417 609 611
f 608 610 417
f 128 123 23
f 23 123 88
f 309 255 306
f 249 255 257
f 169 28 173
f 173 174 169
f 46 174 173
f 172 174 46
f 99 100 27
f 313 293 316
f 313 81 317
f 316 81 313
f 606 416 622
f 616 416 605
f 605 614 616
f 404 614 605
f 621 618 419
f 622 619 419
f 600 585 597
f 600 415 598
f 597 415 600
f 647 643 633
f 406 565 563
f 625 633 369
f 633 625 636
f 636 625 420
f 514 536 533
f 533 352 514
f 533 536 399
f 399 535 533
f 533 535 497
f 497 352 533
f 444 374 446
f 441 370 446
f 446 436 444
f 370 436 446
f 447 374 445
f 447 372 441
f 441 446 447
f 447 446 374
f 447 440 372
f 445 440 447
f 501 566 349
f 349 476 501
f 502 362 576
f 651 425 648
f 567 573 575
f 383 478 486
f 383 476 478
f 486 477 383
f 383 477 508
f 640 637 423
f 639 423 637
f 639 637 505
f 505 392 639
f 395 516 530
f 530 516 528
f 648 425 650
f 425 652 650
f 650 571 648
f 676 439 372
f 372 679 676
f 676 679 680
f 355 445 459
f 459 443 355
f 592 466 594
f 594 414 592
f 690 691 466
f 692 433 684
f 684 691 692
f 692 682 433
f 670 672 661
f 211 210 57
f 541 543 400
f 400 543 540
f 541 400 539
f 539 400 542
f 542 522 539
f 360 495 539
f 539 522 360
f 129 128 35
f 123 128 129
f 19 265 342
f 282 265 19
f 266 282 19
f 19 262 266
f 267 262 69
f 266 262 267
f 267 71 266
f 318 82 320
f 320 82 330
f 200 207 54
f 200 318 5
f 56 207 205
f 205 200 5
f 207 200 205
f 201 214 212
f 271 262 269
f 342 345 269
f 269 19 342
f 262 19 269
f 201 212 15
f 72 345 334
f 72 270 271
f 271 269 72
f 72 269 345
f 319 332 22
f 319 330 82
f 334 345 347
f 347 345 87
f 335 319 82
f 332 319 335
f 165 164 157
f 157 164 40
f 43 155 165
f 165 157 43
f 43 157 154
f 43 154 156
f 158 44 160
f 156 37 160
f 402 550 553
f 553 550 523
f 363 550 515
f 395 530 515
f 552 550 402
f 402 554 552
f 552 554 536
f 552 536 395
f 395 515 552
f 552 515 550
f 519 384 512
f 394 521 512
f 512 521 519
f 513 525 394
f 524 525 513
f 488 480 359
f 483 492 488
f 488 359 483
f 483 359 477
f 483 477 486
f 486 484 385
f 385 483 486
f 492 483 385
f 385 484 482
f 524 513 387
f 387 513 493
f 658 468 380
f 658 659 427
f 381 471 666
f 429 668 666
f 473 468 358
f 358 487 473
f 475 468 473
f 382 475 473
f 386 492 490
f 490 487 386
f 490 473 487
f 382 473 490
f 457 374 444
f 348 435 439
f 274 312 314
f 287 283 75
f 75 285 287
f 75 284 282
f 282 285 75
f 324 83 322
f 264 6 322
f 308 294 310
f 310 294 77
f 77 293 310
f 310 293 307
f 252 6 292
f 292 294 252
f 324 322 252
f 252 322 6
f 324 252 66
f 308 253 66
f 66 294 308
f 66 252 294
f 41 153 150
f 544 498 546
f 399 554 534
f 534 554 551
f 643 647 424
f 560 612 365
f 365 642 563
f 418 612 615
f 418 614 612
f 616 614 418
f 418 615 617
f 617 613 418
f 418 613 616
f 623 417 610
f 609 417 623
f 623 610 621
f 623 619 609
f 621 419 623
f 623 419 619
f 25 256 93
f 93 100 25
f 306 308 80
f 80 309 306
f 308 310 80
f 80 310 307
f 300 298 78
f 336 253 18
f 18 253 306
f 306 255 18
f 255 249 18
f 339 336 259
f 259 249 261
f 336 18 259
f 259 18 249
f 65 249 257
f 261 249 65
f 257 256 250
f 92 248 250
f 250 25 92
f 256 25 250
f 250 65 257
f 248 65 250
f 1 248 92
f 92 88 1
f 190 248 1
f 46 173 171
f 138 91 24
f 24 91 109
f 170 168 45
f 169 174 45
f 45 168 169
f 35 128 126
f 126 139 35
f 132 140 138
f 138 24 132
f 146 139 38
f 138 140 38
f 23 99 89
f 7 126 89
f 89 128 23
f 89 126 128
f 23 88 94
f 94 99 23
f 94 88 92
f 100 99 94
f 92 25 94
f 94 25 100
f 317 79 302
f 302 313 317
f 180 189 48
f 303 79 301
f 186 187 178
f 178 187 47
f 404 605 558
f 558 630 404
f 353 628 558
f 558 628 630
f 603 605 416
f 416 606 603
f 353 558 603
f 603 558 605
f 620 606 622
f 622 419 620
f 620 419 618
f 618 585 620
f 597 585 367
f 367 585 618
f 595 594 583
f 414 594 595
f 586 600 598
f 563 642 645
f 645 647 635
f 645 406 563
f 635 406 645
f 642 424 645
f 645 424 647
f 557 565 564
f 565 406 564
f 564 388 557
f 634 498 632
f 422 647 633
f 633 636 422
f 635 647 422
f 636 634 422
f 632 635 422
f 422 634 632
f 626 420 624
f 626 636 420
f 626 634 636
f 626 624 497
f 566 501 569
f 569 501 391
f 391 501 503
f 503 501 476
f 503 383 508
f 476 383 503
f 509 502 391
f 391 503 509
f 508 393 509
f 509 503 508
f 640 651 410
f 576 640 410
f 648 571 366
f 596 573 366
f 366 571 596
f 573 567 366
f 577 567 579
f 579 410 577
f 577 410 651
f 577 651 648
f 648 366 577
f 577 366 567
f 407 567 575
f 575 568 407
f 407 568 566
f 579 567 407
f 566 569 407
f 407 569 579
f 369 649 638
f 638 625 369
f 423 639 641
f 641 638 423
f 420 625 641
f 625 638 641
f 529 531 398
f 398 530 528
f 398 526 529
f 528 526 398
f 630 628 421
f 421 652 629
f 631 650 652
f 652 421 631
f 631 421 628
f 598 571 408
f 571 650 408
f 408 586 598
f 650 631 408
f 431 676 680
f 572 409 590
f 574 409 572
f 379 691 684
f 583 594 379
f 466 691 379
f 379 594 466
f 279 272 281
f 281 74 279
f 280 74 281
f 247 234 245
f 210 242 245
f 57 210 245
f 245 234 57
f 58 217 215
f 58 212 214
f 215 212 58
f 127 141 11
f 127 129 35
f 123 129 33
f 62 234 247
f 231 234 62
f 193 318 320
f 5 318 193
f 191 196 14
f 261 260 68
f 339 259 68
f 68 259 261
f 251 248 190
f 251 260 261
f 261 65 251
f 251 65 248
f 222 205 5
f 5 193 222
f 268 72 334
f 270 72 268
f 215 55 202
f 202 212 215
f 202 15 212
f 330 319 327
f 341 84 327
f 327 84 330
f 337 341 327
f 22 337 327
f 327 319 22
f 332 347 343
f 22 332 343
f 343 323 22
f 346 323 343
f 87 346 343
f 343 347 87
f 321 200 54
f 318 200 321
f 82 318 321
f 321 335 82
f 162 43 156
f 162 44 159
f 159 155 162
f 155 43 162
f 156 160 162
f 162 160 44
f 156 154 133
f 154 4 133
f 133 37 156
f 135 37 133
f 221 235 59
f 158 160 134
f 134 160 37
f 145 37 135
f 135 143 145
f 145 134 37
f 142 134 145
f 137 142 146
f 146 38 137
f 137 38 140
f 555 551 402
f 402 553 555
f 540 551 555
f 555 553 542
f 555 400 540
f 542 400 555
f 542 553 397
f 397 525 524
f 524 522 397
f 397 522 542
f 523 525 397
f 397 553 523
f 527 515 530
f 527 398 531
f 530 398 527
f 527 531 518
f 518 363 527
f 363 515 527
f 394 512 510
f 510 513 394
f 493 513 510
f 661 672 428
f 428 668 661
f 517 480 519
f 517 359 480
f 519 396 517
f 485 385 482
f 492 385 485
f 482 472 485
f 485 490 492
f 485 472 382
f 382 490 485
f 663 387 493
f 493 660 663
f 663 428 672
f 660 428 663
f 494 669 360
f 360 522 494
f 494 522 524
f 524 387 494
f 656 427 667
f 656 658 427
f 468 658 656
f 358 468 656
f 659 658 655
f 655 426 659
f 654 426 655
f 655 658 380
f 667 429 664
f 429 666 664
f 664 666 471
f 664 656 667
f 664 471 358
f 358 656 664
f 662 666 668
f 668 428 662
f 662 428 660
f 381 666 662
f 377 456 458
f 445 374 462
f 374 457 462
f 462 459 445
f 378 459 462
f 454 457 444
f 454 444 354
f 354 438 454
f 438 456 454
f 456 377 454
f 454 377 457
f 677 426 654
f 435 348 467
f 467 655 380
f 467 348 654
f 654 655 467
f 283 274 286
f 284 75 286
f 286 75 283
f 276 272 20
f 20 283 276
f 20 274 283
f 20 272 279
f 279 312 20
f 312 274 20
f 325 83 346
f 325 322 83
f 346 344 325
f 264 322 325
f 325 344 70
f 70 264 325
f 324 66 338
f 336 86 338
f 338 253 336
f 338 66 253
f 338 340 324
f 338 86 340
f 152 42 151
f 153 42 152
f 152 150 153
f 101 28 169
f 169 168 101
f 149 150 130
f 149 168 170
f 149 170 41
f 41 150 149
f 499 390 500
f 161 44 158
f 161 158 151
f 151 42 161
f 548 546 535
f 548 535 399
f 548 534 545
f 399 534 548
f 545 537 549
f 532 537 364
f 545 534 364
f 364 537 545
f 364 551 540
f 540 532 364
f 364 534 551
f 643 424 646
f 630 421 646
f 629 643 646
f 646 421 629
f 644 424 642
f 404 630 644
f 630 646 644
f 644 646 424
f 559 365 612
f 559 614 404
f 612 614 559
f 642 365 559
f 404 644 559
f 559 644 642
f 98 100 93
f 27 100 98
f 8 98 93
f 112 98 8
f 31 114 116
f 31 112 114
f 311 80 307
f 309 80 311
f 93 256 254
f 254 8 93
f 30 108 111
f 111 109 30
f 102 108 9
f 9 171 102
f 28 111 102
f 102 111 108
f 102 173 28
f 102 171 173
f 136 91 138
f 138 38 136
f 136 38 139
f 139 126 136
f 7 91 136
f 136 126 7
f 107 91 7
f 109 91 107
f 30 109 107
f 107 110 30
f 403 565 557
f 97 89 99
f 27 110 97
f 97 99 27
f 110 107 97
f 7 89 97
f 97 107 7
f 305 302 79
f 305 303 291
f 79 303 305
f 305 289 302
f 47 187 176
f 49 187 186
f 186 184 49
f 120 184 186
f 120 303 301
f 10 184 120
f 120 301 10
f 291 303 32
f 186 178 32
f 32 120 186
f 303 120 32
f 290 298 300
f 298 290 26
f 26 290 95
f 621 414 593
f 414 595 593
f 593 595 581
f 593 618 621
f 593 367 618
f 581 367 593
f 606 620 412
f 600 586 412
f 585 600 412
f 412 620 585
f 562 406 635
f 562 564 406
f 562 635 632
f 498 634 389
f 389 546 498
f 389 626 497
f 634 626 389
f 497 535 389
f 535 546 389
f 578 569 391
f 578 502 576
f 391 502 578
f 576 410 578
f 579 569 578
f 578 410 579
f 507 393 529
f 507 509 393
f 502 509 507
f 529 526 507
f 507 526 362
f 362 502 507
f 640 423 653
f 423 638 653
f 653 651 640
f 653 638 649
f 653 649 425
f 425 651 653
f 624 420 627
f 420 641 627
f 504 624 627
f 627 641 639
f 627 392 504
f 627 639 392
f 586 408 570
f 570 408 631
f 570 628 353
f 570 631 628
f 676 431 675
f 439 676 675
f 675 348 439
f 431 677 675
f 654 348 675
f 675 677 654
f 356 460 455
f 455 377 458
f 449 375 574
f 574 572 449
f 449 572 356
f 356 455 449
f 458 375 449
f 449 455 458
f 587 572 590
f 356 572 587
f 590 601 413
f 413 587 590
f 589 587 413
f 465 379 684
f 583 379 465
f 684 681 465
f 208 217 213
f 217 58 213
f 35 139 144
f 144 127 35
f 144 139 146
f 141 127 144
f 190 1 121
f 123 33 121
f 121 88 123
f 121 1 88
f 196 191 198
f 129 127 122
f 122 33 129
f 122 127 11
f 11 195 122
f 11 141 125
f 141 143 125
f 135 133 124
f 124 133 4
f 247 245 64
f 64 245 242
f 229 241 239
f 61 228 230
f 61 241 229
f 320 330 328
f 330 84 328
f 258 191 14
f 260 191 258
f 258 68 260
f 50 191 260
f 50 251 190
f 260 251 50
f 50 198 191
f 60 246 225
f 225 222 60
f 205 222 225
f 56 205 225
f 201 15 331
f 15 268 331
f 331 268 334
f 53 270 199
f 270 268 199
f 199 268 15
f 15 202 199
f 40 221 147
f 147 157 40
f 154 157 147
f 147 4 154
f 231 62 233
f 233 221 40
f 233 62 235
f 235 221 233
f 233 148 231
f 40 148 233
f 151 158 12
f 158 134 12
f 12 134 142
f 142 137 12
f 146 142 39
f 142 145 39
f 39 145 143
f 39 144 146
f 39 143 141
f 141 144 39
f 351 660 493
f 493 510 351
f 529 393 520
f 520 531 529
f 396 531 520
f 520 517 396
f 672 430 671
f 671 663 672
f 430 669 671
f 387 663 671
f 669 494 671
f 671 494 387
f 464 460 378
f 378 462 464
f 464 462 457
f 464 455 460
f 457 377 464
f 377 455 464
f 380 475 469
f 469 467 380
f 475 474 469
f 435 467 469
f 469 474 370
f 370 435 469
f 284 286 275
f 275 264 70
f 70 284 275
f 130 150 36
f 150 152 36
f 36 132 130
f 140 132 36
f 130 132 90
f 90 132 24
f 496 500 388
f 499 500 496
f 388 564 496
f 564 562 496
f 166 161 42
f 159 44 167
f 44 161 167
f 544 546 401
f 546 548 401
f 401 548 545
f 545 549 401
f 112 31 115
f 115 98 112
f 115 110 27
f 27 98 115
f 113 31 116
f 116 105 113
f 9 108 113
f 113 105 9
f 300 78 297
f 78 311 297
f 297 289 300
f 297 311 307
f 67 254 256
f 67 256 257
f 257 255 67
f 255 309 67
f 299 311 78
f 309 311 299
f 299 67 309
f 254 67 299
f 29 105 116
f 181 105 29
f 29 177 181
f 179 171 9
f 9 105 179
f 179 105 181
f 179 181 48
f 183 177 47
f 183 176 180
f 47 176 183
f 183 180 48
f 48 181 183
f 181 177 183
f 175 178 47
f 47 177 175
f 563 565 556
f 565 403 556
f 556 365 563
f 560 365 556
f 556 561 560
f 556 403 561
f 313 302 21
f 293 313 21
f 302 289 21
f 307 293 21
f 289 297 21
f 21 297 307
f 185 176 187
f 95 290 288
f 112 8 96
f 114 112 96
f 96 26 114
f 298 26 96
f 606 412 584
f 353 603 584
f 584 603 606
f 584 412 586
f 584 570 353
f 586 570 584
f 452 460 356
f 356 587 452
f 452 587 589
f 411 595 583
f 581 595 411
f 589 413 591
f 591 582 589
f 591 411 582
f 581 411 591
f 683 373 442
f 442 681 683
f 216 207 56
f 216 213 58
f 214 207 216
f 216 58 214
f 204 208 16
f 208 213 16
f 16 210 204
f 16 242 210
f 192 121 33
f 190 121 192
f 192 50 190
f 198 50 192
f 226 125 228
f 226 61 229
f 228 61 226
f 229 195 226
f 226 195 11
f 11 125 226
f 218 124 4
f 218 221 59
f 4 147 218
f 218 147 221
f 228 125 34
f 34 125 143
f 34 143 135
f 135 124 34
f 247 64 243
f 243 64 246
f 219 230 59
f 59 235 219
f 14 196 236
f 196 239 236
f 51 193 320
f 320 328 51
f 326 258 14
f 326 328 84
f 244 64 242
f 56 225 244
f 246 64 244
f 244 225 246
f 85 331 334
f 334 347 85
f 85 347 332
f 332 335 85
f 333 321 54
f 54 201 333
f 201 331 333
f 331 85 333
f 335 321 333
f 333 85 335
f 203 199 202
f 53 199 203
f 489 381 481
f 384 491 481
f 481 491 489
f 506 393 508
f 506 520 393
f 508 477 506
f 517 520 506
f 477 359 506
f 359 517 506
f 314 295 73
f 73 275 286
f 73 274 314
f 73 286 274
f 131 152 151
f 131 36 152
f 151 12 131
f 131 12 137
f 131 137 140
f 140 36 131
f 2 101 168
f 2 149 130
f 168 149 2
f 2 90 101
f 130 90 2
f 101 90 103
f 109 111 103
f 28 101 103
f 103 111 28
f 103 24 109
f 103 90 24
f 632 498 361
f 361 562 632
f 361 496 562
f 361 498 544
f 544 499 361
f 499 496 361
f 547 390 499
f 547 499 544
f 544 401 547
f 547 401 549
f 110 115 117
f 117 113 108
f 30 110 117
f 117 108 30
f 117 115 31
f 31 113 117
f 296 78 298
f 296 299 78
f 298 96 296
f 254 299 296
f 8 254 296
f 296 96 8
f 106 29 116
f 116 114 106
f 114 26 106
f 106 26 95
f 48 189 182
f 182 179 48
f 189 188 182
f 171 179 182
f 182 188 46
f 46 171 182
f 76 290 300
f 76 288 290
f 300 289 76
f 289 305 76
f 291 288 76
f 76 305 291
f 178 175 119
f 119 288 291
f 291 32 119
f 119 32 178
f 589 582 376
f 376 452 589
f 580 411 583
f 582 411 580
f 583 465 580
f 581 591 588
f 588 601 597
f 588 413 601
f 588 591 413
f 597 367 588
f 588 367 581
f 242 16 206
f 56 244 206
f 206 244 242
f 206 16 213
f 206 216 56
f 213 216 206
f 197 192 33
f 33 122 197
f 197 122 195
f 198 192 197
f 59 230 220
f 220 218 59
f 230 228 220
f 124 218 220
f 228 34 220
f 220 34 124
f 223 246 60
f 223 243 246
f 17 243 223
f 223 237 17
f 230 219 227
f 227 61 230
f 241 61 227
f 227 237 241
f 227 219 17
f 17 237 227
f 232 219 235
f 232 62 247
f 235 62 232
f 247 243 232
f 232 243 17
f 17 219 232
f 240 223 60
f 237 223 240
f 194 51 328
f 328 326 194
f 194 326 14
f 14 236 194
f 329 84 341
f 329 326 84
f 329 341 339
f 258 326 329
f 339 68 329
f 68 258 329
f 470 481 381
f 381 662 470
f 470 662 660
f 660 351 470
f 384 481 479
f 479 512 384
f 479 470 351
f 481 470 479
f 479 510 512
f 479 351 510
f 273 73 295
f 273 295 292
f 292 6 273
f 275 73 273
f 273 6 264
f 264 275 273
f 538 547 549
f 104 175 177
f 104 106 95
f 177 29 104
f 29 106 104
f 453 442 373
f 681 442 350
f 350 465 681
f 350 580 465
f 52 195 229
f 52 197 195
f 229 239 52
f 198 197 52
f 196 198 52
f 52 239 196
f 63 236 239
f 63 239 241
f 241 237 63
f 237 240 63
f 193 51 224
f 224 222 193
f 60 222 224
f 224 240 60
f 3 119 175
f 95 288 3
f 288 119 3
f 175 104 3
f 3 104 95
f 461 453 373
f 373 443 461
f 443 459 461
f 461 459 378
f 376 453 463
f 460 452 463
f 452 376 463
f 378 460 463
f 463 461 378
f 453 461 463
f 442 453 451
f 451 350 442
f 451 453 376
f 451 376 582
f 582 580 451
f 580 350 451
f 238 63 240
f 240 224 238
f 236 63 238
f 238 224 51
f 238 194 236
f 51 194 238
f 118 466 357
f 10 118 357
f 277 688 287
f 287 688 694
f 287 686 276
f 694 686 287
f 208 204 661
f 661 665 208
f 541 164 543
f 543 164 165
f 13 148 495
f 360 13 495
f 285 688 277
f 285 693 688
f 285 71 432
f 432 693 285
f 155 543 165
f 532 543 155
f 669 13 360
f 209 13 669
f 57 209 669
f 669 430 57
f 172 405 560
f 46 405 172
f 561 172 560
f 174 172 561
f 10 357 184
f 184 357 608
f 690 466 118
f 118 278 690
f 280 691 690
f 690 278 280
f 276 686 272
f 686 682 272
f 661 204 670
f 204 210 670
f 57 430 211
f 211 430 672
f 211 670 210
f 672 670 211
f 217 208 665
f 217 665 674
f 217 674 673
f 673 215 217
f 539 164 541
f 163 164 539
f 539 495 148
f 539 148 163
f 432 71 267
f 267 680 432
f 55 215 673
f 673 427 55
f 388 170 557
f 41 170 388
f 532 155 537
f 537 155 159
f 188 405 46
f 615 405 188
f 617 615 188
f 188 189 617
f 617 189 180
f 180 607 617
f 680 267 431
f 431 267 69
f 281 272 682
f 682 692 281
f 281 691 280
f 281 692 691
f 202 55 427
f 202 427 657
f 53 426 677
f 677 263 53
f 677 431 69
f 69 263 677
f 500 390 42
f 500 42 153
f 41 388 500
f 500 153 41
f 174 561 403
f 403 45 174
f 557 170 403
f 170 45 403
f 607 180 176
f 602 607 176
f 611 187 49
f 49 417 611
f 49 184 608
f 608 417 49
f 167 537 159
f 167 549 537
f 185 187 611
f 611 609 185
f 602 176 185
f 185 609 602
f 203 202 657
f 657 659 203
f 203 426 53
f 659 426 203
f 42 390 547
f 547 166 42
f 549 167 538
f 538 167 161
f 166 547 538
f 161 166 538
