# https://github.com/mikedh/trimesh
v -1.99168270 -1.99395426 -0.89855439
v -1.99920409 -1.99312504 -0.79657853
v -1.98859327 -1.99925514 -0.62489409
v -1.98753350 -1.99870606 -0.43873019
v -1.99882286 -1.99757381 -0.27868215
v -1.98229473 -1.99999936 -0.19411721
v -2.00244396 -1.94446667 -0.71883691
v -2.00125807 -1.96481677 -0.54337204
v -2.00216978 -1.90424092 -0.34165237
v -1.99627369 -1.94129701 -0.18800349
v -1.99972957 -1.86040886 -0.88118828
v -2.00023692 -1.77130588 -0.59517140
v -1.99847191 -1.71187385 -0.22451929
v -2.00181096 -1.58992584 -0.81202079
v -2.00098436 -1.59541710 -0.40788678
v -1.99213331 -1.67987903 -0.89885069
v -2.00007909 -1.47752817 -0.62887049
v -1.99830502 -1.39894255 -0.89335162
v -2.00100415 -1.30064710 -0.39348794
v -1.99859732 -1.35003396 -0.27736498
v -2.00105041 -1.21138449 -0.76453031
v -2.00029557 -1.11178108 -0.50786371
v -2.00003880 -1.04129519 -0.89128543
v -1.99497502 -0.99436303 -0.32175646
v -2.00089353 -0.82950826 -0.74011529
v -2.00090259 -0.90173431 -0.42412845
v -1.99781697 -0.69526704 -0.89278079
v -1.99293225 -0.66590418 -0.36950759
v -2.00062840 -0.65956249 -0.45130078
v -2.00021952 -0.59443735 -0.62973160
v -2.00140994 -0.52661808 -0.83434147
v -1.97914975 -0.50782687 -0.89872653
v -2.00123852 -0.22636208 -0.55251808
v -1.99874228 -0.39120954 -0.42348052
v -1.99705880 -0.27591175 -0.89502407
v -2.00188177 -0.22809204 -0.79334617
v -1.99648016 -0.12853577 -0.44843725
v -1.99169605 0.02339594 -0.89771337
v -2.00160425 -0.01019793 -0.52739812
v -2.00050180 0.11725758 -0.73096026
v -1.95804184 -0.05743738 -0.44063593
v -1.99612492 0.11976610 -0.47838265
v -2.00156992 0.12460951 -0.86206377
v -2.00128286 0.14199979 -0.51786203
v -2.00130384 0.29459928 -0.55019934
v -1.98913949 0.28754894 -0.90035463
v -2.00127953 0.42546598 -0.85409845
v -1.99645584 0.28137682 -0.50155587
v -2.00110381 0.51329671 -0.71117801
v -1.99251097 0.50995974 -0.89883054
v -1.99682515 0.46455620 -0.53274608
v -2.00127690 0.66032324 -0.60540581
v -2.00214117 0.72694556 -0.80653656
v -1.98819273 0.69129185 -0.55399019
v -1.99713772 0.84653239 -0.88903398
v -1.99773043 0.88550464 -0.59340037
v -2.00251477 1.07190351 -0.81034840
v -2.00190585 0.95867149 -0.64725501
v -1.99393790 1.05278329 -0.60703058
v -1.99706166 1.15356449 -0.89526529
v -1.99952882 1.26993398 -0.65604062
v -2.00211685 1.40565900 -0.74698312
v -1.99276441 1.41156809 -0.89938504
v -2.00249475 1.48926918 -0.85533691
v -1.99803632 1.57478980 -0.68538023
v -2.00250834 1.73381619 -0.75921691
v -1.99188440 1.62147872 -0.89873195
v -2.00058477 1.77748088 -0.88859338
v -1.99387877 1.83258824 -0.71696997
v -1.95473164 1.78656654 -0.90210128
v -2.00401705 1.94825081 -0.80619062
v -1.99765008 1.95962242 -0.89514799
v -1.99441402 1.98517374 -0.73726816
v -1.99483555 2.00113897 -0.81834019
v -1.94966310 -2.00262375 -0.75829411
v -1.88794725 -2.00132461 -0.39026559
v -1.94872230 -1.96773644 -0.17028759
v -1.93364137 -1.75713606 -0.19772748
v -1.88217490 -1.86687382 -0.90187461
v -1.89985626 -1.55797346 -0.90125663
v -1.79427677 -1.52079161 -0.19950440
v -1.93194716 -1.28332301 -0.26368753
v -1.76487368 -1.37612065 -0.90032137
v -1.94339126 -1.12517698 -0.90082336
v -1.87251275 -1.06931176 -0.27958921
v -1.94614666 -0.91758402 -0.90101928
v -1.92118066 -0.74607067 -0.90101791
v -1.94244831 -0.50317991 -0.37435285
v -1.95326512 -0.34090316 -0.90153003
v -1.87698405 -0.32401118 -0.38537446
v -1.93809884 -0.17648830 -0.90207691
v -1.91152566 0.40314208 -0.49480948
v -1.85098379 0.15253074 -0.90104825
v -1.85973995 0.54116790 -0.90140272
v -1.89414351 0.80868475 -0.90082563
v -1.92578452 0.86801283 -0.56347150
v -1.95078700 1.02843694 -0.90121759
v -1.95438068 1.17540793 -0.90106178
v -1.96643274 1.22407762 -0.62238843
v -1.96101516 1.30321173 -0.90149981
v -1.96003502 1.41836588 -0.64817829
v -1.96031087 1.71335499 -0.68862653
v -1.82334178 -1.99123593 -0.14204914
v -1.89205187 -0.77177210 -0.32517759
v -1.69470649 0.65719698 -0.48166755
v -1.82733195 1.46168975 -0.90062982
v -1.82935517 1.48837153 -0.62901223
v -1.89742988 1.95751266 -0.90326250
v -1.94128078 2.00070958 -0.89188409
v -1.82590883 2.00395588 -0.79534829
v -1.89601939 1.99932818 -0.71902389
v -1.75730269 -1.99851425 -0.89522404
v -1.83757418 -0.53486429 -0.90062053
v -1.85449260 0.03950168 -0.43144751
v -1.83716600 1.21437339 -0.59227163
v -1.89606255 1.93069319 -0.70388449
v -1.78215342 -2.00155898 -0.74705858
v -1.79576283 -2.00206407 -0.17365672
v -1.78543454 1.84998588 -0.90096296
v -1.76399785 -0.52667092 -0.33186010
v -1.82406276 1.14718334 -0.90030039
v -1.80459779 1.70402138 -0.65316523
v -1.76363438 -0.19729845 -0.90011454
v -1.68806892 -0.21634676 -0.35799808
v -1.77337139 -1.91653772 -0.13769986
v -1.74174624 0.86508231 -0.52154893
v -1.78952342 1.99919919 -0.89759315
v -1.67603403 -0.90391507 -0.25885884
v -1.79585581 -0.87539132 -0.90029342
v -1.67542880 0.42591242 -0.90010614
v -1.67399245 0.40862171 -0.44214705
v -1.65676325 1.02545587 -0.52468926
v -1.67345195 -2.00007947 -0.52254809
v -1.74874979 -1.70621737 -0.16306678
v -1.65491777 -1.27757569 -0.20175073
v -1.60443073 -1.11580082 -0.89997155
v -1.59161788 -0.66147955 -0.27352825
v -1.66462152 -0.61256855 -0.90005768
v -1.69271200 0.11271865 -0.40520082
v -1.71620946 1.99713735 -0.67565758
v -1.63942175 -1.78345462 -0.90046740
v -1.62016433 0.97562711 -0.89993317
v -1.64189761 1.65034489 -0.90002615
v -1.60759633 -2.00031586 -0.25281281
v -1.65300291 0.70982127 -0.89998973
v -1.66695827 1.31121795 -0.56706197
v -1.51182561 -1.63183816 -0.89993084
v -1.55536204 0.06455554 -0.90001268
v -1.60184854 1.92409853 -0.63629598
v -1.58604341 -0.43940607 -0.89993430
v -1.49309235 -1.88418277 -0.07799195
v -1.51525515 -0.83325686 -0.89996452
v -1.63195460 1.68347387 -0.61099023
v -1.68463176 -1.99839004 -0.11185393
v -1.57019239 1.40759091 -0.90000982
v -1.52261584 -1.94345136 -0.90172804
v -1.54488593 -1.63819762 -0.12588479
v -1.52788013 1.22512130 -0.89994056
v -1.48855727 1.14842944 -0.50320805
v -1.45813554 2.00278024 -0.72471780
v -1.45252007 -1.43120690 -0.13356698
v -1.51023453 -1.36241754 -0.89993221
v -1.52695828 1.54629914 -0.56786186
v -1.52930038 1.99899821 -0.89181132
v -1.51534837 -2.00089856 -0.74368191
v -1.46494120 -2.00139197 -0.10565416
v -1.54916709 -0.24040363 -0.89994097
v -1.51415425 0.04405774 -0.35449997
v -1.43857496 0.30981283 -0.89992083
v -1.49575382 0.85398237 -0.46363044
v -1.51371210 -1.99070771 -0.07021580
v -1.48103505 -1.11902525 -0.18406638
v -1.41980320 1.94196157 -0.90120340
v -1.49465805 -0.39702359 -0.28828362
v -1.48797398 0.30830715 -0.38545469
v -1.50358551 -1.99994012 -0.54305542
v -1.41139465 0.52214358 -0.89991779
v -1.45498233 0.58591477 -0.41670883
v -1.45611327 0.74544851 -0.89994336
v -1.48320358 1.99639325 -0.62878180
v -1.45838421 -0.14627092 -0.31500224
v -1.49104577 1.36830453 -0.53458709
v -1.44596046 1.86098341 -0.59250802
v -1.34813815 1.76470045 -0.90017278
v -1.30398911 1.17277841 -0.89995748
v -1.44032770 -1.99891492 -0.89557946
v -1.39512330 -0.96954300 -0.89997179
v -1.27556746 -0.61040046 -0.20756354
v -1.36591416 -0.09384200 -0.89998955
v -1.35144442 -1.20113851 -0.89996797
v -1.38429206 -0.91986610 -0.18926363
v -1.35505324 0.44524632 -0.37402172
v -1.34765189 1.73662953 -0.55299074
v -1.30457597 -1.99984141 -0.39442704
v -1.29903071 -1.87941869 -0.90141702
v -1.33294063 -0.58542167 -0.89998133
v -1.30119353 0.84768764 -0.89998133
v -1.30339258 -2.00001605 -0.62644900
v -1.26795452 -0.31222859 -0.24790025
v -1.25311988 0.24524973 -0.32256836
v -1.33904772 1.39559488 -0.50340695
v -1.33391231 -1.99001916 -0.02968404
v -1.28226548 -0.36769373 -0.89998860
v -1.32009106 0.76647262 -0.41094387
v -1.31837063 1.48016195 -0.89993770
v -1.28915780 -2.00131949 -0.85152764
v -1.27834707 -1.44237192 -0.89989561
v -1.05993765 1.99822406 -0.89088452
v -1.27770572 -1.67338486 -0.05947306
v -1.30056100 1.01486818 -0.44122369
v -1.25558191 -2.00047441 -0.17484257
v -1.32506567 -1.15659400 -0.14856700
v -1.28847700 -0.85929008 -0.17783631
v -1.26095670 -0.03715998 -0.28484440
v -1.19128411 0.18668215 -0.89997119
v -1.24205010 -1.99371548 -0.89635385
v -1.18531900 -0.79361482 -0.89999837
v -1.22790521 1.65769832 -0.51454259
v -1.19925814 1.89025359 -0.53910572
v -1.12602799 -1.86461588 0.00352022
v -1.26445883 1.22371797 -0.46216310
v -1.27722042 1.99095826 -0.57250679
v -1.23209637 2.00080494 -0.58221645
v -1.13521092 -1.72639461 -0.90006924
v -1.27142661 -1.39130839 -0.09911968
v -1.23832136 -1.19561358 -0.17478496
v -1.06105810 0.34867315 -0.89999027
v -1.20007425 2.00206498 -0.75634450
v -1.11812799 -2.00157900 -0.01380946
v -1.23446541 -0.91560479 -0.19269847
v -1.13719540 0.50987188 -0.33294765
v -1.12899356 0.69250475 -0.35663972
v -1.17672270 -0.14361854 -0.89999784
v -1.11861890 0.88919834 -0.38176349
v -1.18656295 1.39733271 -0.46856666
v -1.06496852 1.72978310 -0.90004475
v -1.19848388 -1.99306353 0.00270051
v -1.16231614 -1.26560380 -0.89997745
v -1.09800511 1.08654682 -0.40464858
v -1.18785697 -1.39258214 -0.11066835
v -1.15672510 -1.05420210 -0.89999575
v -1.12122398 -0.67450039 -0.16529722
v -1.07252055 0.67739598 -0.89999813
v -1.06215899 -0.46759403 -0.89999986
v -1.01608234 0.13703729 -0.25286076
v -1.07727616 0.92995600 -0.90000094
v -1.05580359 1.18813865 -0.89998538
v -1.07450407 1.41001574 -0.89995021
v -1.06493800 -0.77734132 -0.20829398
v -1.09950536 -0.51605855 -0.17999210
v -1.11032920 1.58943502 -0.47801561
v -1.15328877 1.92061500 -0.90091664
v -1.10638230 -2.00141807 -0.82733727
v -1.08671337 -1.45940741 -0.89996452
v -1.10613673 -1.55772014 -0.03711091
v -1.10175353 -1.05483182 -0.23576472
v -1.01395708 1.99595527 -0.51529384
v -1.07335454 -1.99998816 -0.26664359
v -0.93158000 -2.00024446 -0.15187288
v -1.09612411 -1.26390590 -0.19761521
v -1.02395289 0.02182443 -0.89999587
v -0.97323733 1.44682567 -0.42648462
v -1.06522983 2.00112967 -0.58846248
v -1.03903692 -0.23188315 -0.20647354
v -1.03301507 -2.00010558 -0.60744137
v -0.97626608 -1.99984856 -0.43979407
v -0.98211270 -1.44648154 -0.10850925
v -1.01953094 1.23315994 -0.40714354
v -1.00788992 -1.99916216 -0.89175147
v -1.05839210 -1.99050029 0.03586074
v -0.93124359 -1.96240945 -0.90131576
v -0.99215394 1.77866248 -0.47693071
v -0.94595557 2.00165204 -0.84412450
v -0.98010140 -1.16348733 -0.89999802
v -0.87373155 -2.00080951 -0.74029887
v -0.92978495 -0.90418883 -0.90000183
v -0.94066685 -1.56147547 -0.01089577
v -0.94882923 -0.72005271 -0.90000135
v -0.93745237 -0.33050716 -0.16895840
v -0.94608479 0.67783622 -0.31254581
v -0.97085052 -1.29104324 -0.19762237
v -0.92724138 -1.18256165 -0.22697843
v -0.89156836 -0.96508809 -0.24781103
v -0.89203148 0.41187875 -0.26269156
v -0.84114461 0.50235663 -0.90000040
v -0.90921669 0.93063347 -0.33940840
v -0.91611128 1.96222596 -0.48285351
v -0.91772943 1.63433878 -0.44000173
v -0.75763922 -1.69422908 0.06334825
v -0.85195082 -1.39368816 -0.89997358
v -0.82093614 -0.48005578 -0.90000034
v -0.84957426 -0.10007315 -0.18112967
v -0.82420831 1.13160996 -0.34800947
v -0.86339789 1.57977323 -0.89996565
v -0.97839957 1.96531634 -0.90091843
v -0.94163149 -1.98014708 0.06014135
v -0.80900710 -1.84671791 -0.90056229
v -0.91904502 -1.63772627 -0.89998782
v -0.83605319 -0.67456331 -0.23179421
v -0.82811146 -0.48451251 -0.19256125
v -0.85424762 -0.39293075 -0.15456747
v -0.85210698 -0.26824733 -0.90000088
v -0.73837893 0.82733158 -0.90000153
v -0.78341042 1.31031017 -0.89995206
v -0.80023067 2.00086908 -0.65912313
v -0.88248973 1.99892120 -0.49822111
v -0.84502190 -1.86909862 0.06905008
v -0.87258487 -1.36649616 -0.15427076
v -0.86460059 1.00471310 -0.89999885
v -0.81719285 -1.99877329 -0.89398474
v -0.80327075 -2.00172206 0.06217062
v -0.83417087 -1.98957379 0.08688999
v -0.78927564 -1.58246489 0.03693771
v -0.76667398 -1.28575905 -0.16442064
v -0.77549195 -1.16236307 -0.89999849
v -0.78629869 0.00904996 -0.90000058
v -0.81799644 1.28584413 -0.36818898
v -0.77876204 1.78582887 -0.42876068
v -0.70182883 1.86649923 -0.90137673
v -0.82689934 1.98456768 -0.89996213
v -0.76439904 0.19459961 -0.20237916
v -0.69935291 -1.99985870 -0.31022207
v -0.71135920 -1.58133193 -0.89998854
v -0.81183248 0.69147710 -0.28362191
v -0.79442167 -1.49244102 -0.04313896
v -0.69050484 -1.01603015 -0.21878201
v -0.71804475 1.99441246 -0.44712926
v -0.73865008 0.89471702 -0.29514474
v -0.69445740 1.10048942 -0.89998961
v -0.69787841 -2.00175162 -0.80445755
v -0.71837705 -2.00040956 -0.07389561
v -0.71930330 -0.84039469 -0.90000076
v -0.61570268 0.34134875 -0.90000064
v -0.67124092 1.66311972 -0.90005893
v -0.72855275 2.00107126 -0.85028637
v -0.67757534 -1.99994488 -0.56128616
v -0.72510969 -0.76329764 -0.24735028
v -0.72385471 -1.38433047 -0.09885351
v -0.67387717 -0.18231012 -0.14121351
v -0.68934136 1.36321346 -0.34943766
v -0.68555915 1.62358109 -0.38509390
v -0.53718894 1.90694885 -0.38860965
v -0.71863019 -1.96951469 -0.90089775
v -0.67196965 -1.13480391 -0.18540659
v -0.59730529 -0.67119597 -0.90000022
v -0.73903947 0.46750186 -0.23817045
v -0.73063516 -1.98779781 0.11080044
v -0.63854944 -0.32629434 -0.90000022
v -0.54086714 -1.24192943 -0.89999223
v -0.62138014 0.62503116 -0.26207093
v -0.65242886 0.77218024 -0.26147372
v -0.61171191 -2.00240274 0.07485640
v -0.62110042 -1.43500109 -0.00008919
v -0.64413243 -0.85462763 -0.23662513
v -0.60443973 -0.24828018 -0.18615677
v -0.66781425 -0.03521829 -0.14764274
v -0.63333320 0.53775958 -0.90000046
v -0.55064010 2.00078587 -0.51530570
v -0.64177405 -1.99878128 -0.89313955
v -0.62855958 -1.24299188 -0.12700432
v -0.48510807 -1.01744064 -0.90000040
v -0.64857119 0.16573001 -0.17434236
v -0.56788277 0.35794989 -0.24068677
v -0.61415099 1.00844411 -0.28247926
v -0.61005383 -1.99742814 0.13264711
v -0.60985010 -0.41588125 -0.22465608
v -0.57422441 -0.13780116 -0.90000022
v -0.54890095 1.21227114 -0.29596985
v -0.61648696 1.99022107 -0.89846850
v -0.55876594 -1.83331831 0.12875984
v -0.57634794 -1.40755447 -0.89997453
v -0.59355157 -0.62300463 -0.24577059
v -0.52931874 0.70685677 -0.90000088
v -0.51975369 0.09936098 -0.90000016
v -0.53538751 2.00087766 -0.83205683
v -0.54837429 -1.96524008 -0.90057707
v -0.50302398 -1.76503964 -0.90020174
v -0.54990213 -1.44516905 0.06869422
v -0.46779703 -0.44196697 -0.89999998
v -0.40287864 1.03167896 -0.90000028
v -0.45657068 1.38166777 -0.89996631
v -0.54026090 1.54140810 -0.34016774
v -0.52449881 -2.00098069 -0.76214582
v -0.46455526 -1.99983557 -0.38526586
v -0.50429010 -1.30655416 -0.01146017
v -0.48076450 0.12545009 -0.20299899
v -0.52961844 -0.01502382 -0.14309990
v -0.49881392 -2.00023277 -0.06731900
v -0.46065526 -1.95942016 0.16982601
v -0.48245811 -1.50091882 0.09915532
v -0.47731011 0.45907925 -0.25666348
v -0.43714558 -0.99100848 -0.14921782
v -0.47878438 -0.42781727 -0.24016400
v -0.35983705 0.60437677 -0.23528110
v -0.42589926 1.76321344 -0.90043861
v -0.37486827 -2.00002618 -0.57746667
v -0.39491730 -0.81613036 -0.19332018
v -0.50342452 -0.70536502 -0.23611135
v -0.41820782 -0.11840609 -0.19865934
v -0.38775193 0.98314933 -0.22620330
v -0.43636864 1.74981264 -0.34499729
v -0.41956215 -2.00008746 -0.89152647
v -0.37547242 -0.26225067 -0.23324685
v -0.44164866 0.81535272 -0.21775622
v -0.46029805 1.99491648 -0.38671682
v -0.39109384 -1.99902447 0.18067745
v -0.36736649 -1.45870073 -0.89997388
v -0.43195307 -1.10767819 -0.09474230
v -0.37774365 0.42914579 -0.90000004
v -0.37214511 -0.55106159 -0.23617180
v -0.43693280 1.31543033 -0.28469909
v -0.33665209 1.56631057 -0.29677836
v -0.32632231 -1.99997969 -0.23498856
v -0.32863235 -2.00132855 0.04173511
v -0.36306178 1.99427013 -0.89988608
v -0.32590144 -1.96189304 -0.90090812
v -0.37745475 -0.15646311 -0.89999998
v -0.30507808 -1.64278443 0.15983077
v -0.31321942 -1.25821461 0.10250266
v -0.24236705 2.00062351 -0.69699705
v -0.28563356 -1.08856686 -0.00792809
v -0.33173703 -0.90838953 -0.90000046
v -0.29809066 -0.64863776 -0.90000016
v -0.33329081 0.09527711 -0.89999998
v -0.31623840 0.21924679 -0.24514869
v -0.26981466 1.99828343 -0.88036347
v -0.25803693 2.00121836 -0.41728253
v -0.25817173 1.16646652 -0.22261392
v -0.25206044 -2.00119956 -0.77560568
v -0.28934901 -1.91065117 0.20214132
v -0.32004922 -0.01328747 -0.20568507
v -0.22517657 0.59521316 -0.90000004
v -0.29672965 1.35066704 -0.25738285
v -0.22609120 1.60551755 -0.89999438
v -0.20728835 -1.72518213 -0.90013290
v -0.22807985 -1.41581448 0.14610059
v -0.23682662 -1.24244418 -0.89999176
v -0.28851753 -0.38580755 -0.24081442
v -0.31095903 0.80513291 -0.90000034
v -0.27141755 1.26650874 -0.89998371
v -0.20724895 -0.45381996 -0.89999998
v -0.26466610 0.36612831 -0.24681026
v -0.21815323 0.74369983 -0.15991030
v -0.26585963 1.80156330 -0.31322972
v -0.23765653 1.94748239 -0.32577211
v -0.20564028 -0.24669644 -0.89999998
v -0.25112965 1.99620776 -0.34330419
v -0.18422630 -1.99982627 -0.42921457
v -0.23681026 -0.90319152 -0.09685463
v -0.18773042 0.88262264 -0.16553914
v -0.16367840 -1.01753433 -0.89999915
v -0.21601185 -0.06542476 -0.22770431
v -0.20563876 -1.47100838 -0.89997489
v -0.14219003 0.00943233 -0.89999998
v -0.08697694 0.27085547 -0.89999992
v -0.14118087 1.94252614 -0.90166438
v -0.19017505 -1.99831315 0.23071989
v -0.22096913 -0.53675030 -0.21572966
v -0.14371990 -1.99878736 -0.89220399
v -0.12121674 -0.75868841 -0.90000040
v -0.12840413 0.93992762 -0.90000082
v -0.07711452 1.43142919 -0.89995236
v -0.09771758 -1.87372573 0.24067081
v -0.15817346 -0.71229844 -0.14677655
v -0.11359345 0.40118973 -0.21687054
v -0.15075525 0.61937956 -0.17087825
v -0.09171485 2.00215225 -0.85202057
v -0.08882102 -1.61205919 0.20530067
v -0.06731447 -0.19914233 -0.23535264
v -0.15096485 0.12817736 -0.24251460
v -0.02404683 1.82024125 -0.90048487
v -0.06936508 -1.99984582 -0.17151309
v -0.03911219 1.63329856 -0.23774182
v -0.10953444 -2.00067003 0.07388052
v -0.06565424 -2.00280388 0.22741393
v -0.01267666 -1.91692527 -0.90079225
v 0.00963574 -1.24187191 0.17678399
v -0.06131198 -0.87478622 0.00456409
v -0.06929597 1.41051666 -0.21349526
v -0.02383070 -1.61331936 -0.89997924
v -0.12880036 -0.37873489 -0.22567946
v -0.02908427 1.84089617 -0.26398177
v -0.04684617 -0.51170810 -0.17610033
v -0.00297932 1.13205127 -0.89999754
v -0.07887384 -1.02104415 0.12118849
v -0.03309963 1.15119771 -0.16879427
v -0.07834276 1.98923640 -0.29691026
v -0.03385731 0.71908478 -0.90000034
v 0.00155572 -1.99996288 -0.54613245
v -0.05931016 -1.99151154 0.26284876
v 0.00287358 -0.61320348 -0.90000016
v -0.01458617 0.48024378 -0.90000004
v 0.04056124 1.99812822 -0.89411218
v -0.02387036 2.00118975 -0.36272243
v -0.01180623 -0.30761689 -0.89999998
v -0.03860287 -0.00170197 -0.23797681
v 0.15168328 0.94014530 -0.09613450
v 0.08814014 2.00003270 -0.58951563
v -0.00965137 -1.28133495 -0.89998323
v 0.02695083 0.19840355 -0.22513082
v 0.01189182 0.61688475 -0.10266913
v 0.10649942 -2.00143667 -0.79698337
v 0.07516768 1.59982030 -0.89998514
v 0.08584022 -2.00067969 0.12266630
v 0.03402599 -0.31920476 -0.20906465
v 0.02740443 0.71259443 -0.09155775
v 0.10733312 -0.95798810 -0.90000058
v 0.02905139 0.45873277 -0.16341079
v 0.04201808 -1.99986919 -0.32907937
v 0.06386674 -1.99896117 0.28620216
v 0.04978666 -1.95429285 0.28718578
v 0.14790539 0.03662885 -0.89999998
v 0.16966637 1.33843438 -0.89997948
v 0.09893624 -1.57624109 0.24337364
v 0.03785980 -0.95942273 0.14118151
v 0.02649180 -0.84860583 0.05044569
v 0.10421015 -0.14657738 -0.89999998
v 0.03370490 -0.64446773 -0.08904439
v 0.18977941 0.10792796 -0.23497768
v 0.18157441 0.51380412 -0.90000004
v 0.22869575 1.40808789 -0.14461122
v 0.11353169 1.94824509 -0.24482826
v 0.05483057 -1.99917443 -0.89218057
v 0.05338163 -0.45949714 -0.17003719
v 0.14286092 0.84558730 -0.90000058
v 0.22236109 -1.85913380 0.31224915
v 0.18912505 -0.44266972 -0.90000004
v 0.20186243 -0.09917274 -0.22785989
v 0.19689790 1.12862102 -0.11231732
v 0.12369094 1.99685006 -0.26132513
v 0.10330055 -0.84639378 0.00401670
v 0.18018031 -0.76127838 -0.09335141
v 0.15994121 -0.55994977 -0.16636427
v 0.17401076 0.65729944 -0.13232610
v 0.16943524 2.00195031 -0.81074185
v 0.18367891 -1.74741574 -0.90027553
v 0.29779638 -1.53246744 -0.89994318
v 0.09618670 -0.97511585 0.12692203
v 0.17115876 -0.24252064 -0.22738553
v 0.24180809 0.49958394 -0.20293686
v 0.09846564 0.69980012 -0.08020344
v 0.21163019 1.66240768 -0.18411272
v 0.17733969 -2.00005980 -0.58314539
v 0.21303846 -1.99999424 -0.06205583
v 0.23375139 -1.96195086 -0.90111012
v 0.18765163 -1.98941155 0.32037082
v 0.18796172 -1.25607671 -0.89998842
v 0.15649237 -1.09696915 0.18928283
v 0.33328945 1.86895446 -0.18405273
v 0.26433904 -1.99781807 -0.89291227
v 0.25600715 -1.01245334 0.01945293
v 0.24824191 -0.73259302 -0.90000064
v 0.25559766 0.22272502 -0.89999998
v 0.27890725 1.69249610 -0.90008814
v 0.27443493 -1.99992307 -0.32264245
v 0.20518479 -0.41186013 -0.21042576
v 0.23201010 0.85273032 -0.06988447
v 0.21735410 2.00107769 -0.29167098
v 0.32477949 0.91221575 -0.90000010
v 0.29585904 -2.00177749 0.30653011
v 0.26596609 -1.15581985 0.14575257
v 0.33669484 -0.32082839 -0.89999998
v 0.29109635 0.34909533 -0.23106260
v 0.31673420 1.92901854 -0.90164215
v 0.27745853 1.99600295 -0.89398337
v 0.27807883 -1.49682792 0.27440914
v 0.39367672 -2.00030907 0.17525622
v 0.37518694 -1.87081190 -0.90102667
v 0.39161491 -0.88015075 -0.90000117
v 0.35235801 1.16055219 -0.89999104
v 0.28162790 1.99174170 -0.21596824
v 0.34872461 -2.00033649 -0.66855980
v 0.32243764 -1.30069681 0.25446638
v 0.38804344 -1.17382486 -0.89999104
v 0.44020868 2.00032811 -0.69287778
v 0.36366666 -2.00181134 -0.82172090
v 0.30703084 -0.80346586 -0.12605374
v 0.36946035 0.04125432 -0.20708781
v 0.40200492 -1.99992557 -0.46205158
v 0.38958196 -1.99998375 -0.07132763
v 0.33769607 -0.58019270 -0.19938394
v 0.35532800 -0.38426854 -0.22295048
v 0.34884459 0.41493521 -0.89999998
v 0.31986691 0.87914054 -0.09712642
v 0.43310311 1.58314971 -0.12212432
v 0.41938201 2.00007538 -0.43747742
v 0.30804571 -1.99102362 0.34933101
v 0.40831328 -0.01088469 -0.89999998
v 0.46106986 -1.91408034 0.37564265
v 0.43168721 0.79521601 -0.17460499
v 0.40155362 1.21135537 -0.07624188
v 0.41050517 2.00257520 -0.84562666
v 0.45016459 -1.57641979 0.32537034
v 0.36081513 1.02532522 -0.06266634
v 0.49961237 1.46419482 -0.89994193
v 0.39935226 -1.33375593 0.21033829
v 0.47651226 -1.13896157 -0.03755516
v 0.51007891 -0.59623616 -0.90000028
v 0.50354335 0.70579444 -0.90000052
v 0.39234257 2.00093130 -0.21926271
v 0.42915177 -1.99455221 0.37588190
v 0.53647701 -0.86879237 -0.17029752
v 0.43387138 -0.26126933 -0.21373740
v 0.45284019 -0.08774032 -0.18086422
v 0.45004395 0.20892925 -0.22080272
v 0.50086213 -1.30889650 0.06824325
v 0.48552186 0.59805987 -0.22551762
v 0.56653941 1.12829713 -0.09350075
v 0.57174114 1.08324139 -0.89999945
v 0.57589523 -1.38398011 -0.89994205
v 0.54569218 -1.04798206 -0.11519833
v 0.56832121 0.48939471 -0.90000004
v 0.59308863 0.49988632 -0.23127424
v 0.46138564 1.99138979 -0.17374215
v 0.55945412 2.00073366 -0.25652186
v 0.61923558 -1.99199362 -0.89761311
v 0.56523139 -1.99992331 -0.63259406
v 0.56118447 -0.27883526 -0.90000004
v 0.52759276 0.23831086 -0.89999998
v 0.45333148 1.11070506 -0.05296199
v 0.51161984 1.36254017 -0.07241642
v 0.53845889 1.74999813 -0.90010369
v 0.59952406 1.91510276 -0.12812070
v 0.55135272 -1.99993237 -0.09536827
v 0.48616142 -1.47314640 0.29747968
v 0.49895609 -0.63409455 -0.20912377
v 0.54270843 -1.99992724 -0.30955050
v 0.63519020 -2.00144203 0.37394371
v 0.56395055 -1.68840154 -0.89997489
v 0.52979884 -0.00001721 -0.15010240
v 0.60762832 -0.95489587 -0.90000004
v 0.60902605 -0.02906266 -0.90000016
v 0.62838266 1.31203858 -0.04081337
v 0.59936280 1.71984557 -0.10264973
v 0.51138235 1.99073319 -0.89737869
v 0.63955552 -2.00001200 0.10021931
v 0.59405143 -0.56616156 -0.21442758
v 0.63518093 0.80616824 -0.21676867
v 0.56463263 -1.99241551 0.40827855
v 0.57451273 -1.57557221 0.34896993
v 0.66408969 -0.44803806 -0.19898810
v 0.61819030 0.15365092 -0.17098496
v 0.72675324 1.54443304 -0.04827634
v 0.54995692 -2.00128432 -0.83461095
v 0.57079843 -1.48943241 0.20307738
v 0.75691587 -0.37028528 -0.16308450
v 0.70968074 1.92029957 -0.90131081
v 0.74766964 -1.88035174 -0.90130538
v 0.67399216 -0.14299727 -0.11788309
v 0.67156783 -0.82252665 -0.20013719
v 0.66238031 1.02335803 -0.17394734
v 0.76629580 1.99335317 -0.10540839
v 0.67866851 2.00166158 -0.79728288
v 0.67312784 1.99999837 -0.49141041
v 0.81027550 -1.84231992 0.44648194
v 0.73912061 -0.53500899 -0.90000100
v 0.69125486 0.01572950 -0.08033515
v 0.69778267 1.31238763 -0.89998437
v 0.73280180 1.99593167 -0.89374841
v 0.74708588 -1.28219100 -0.09078129
v 0.67416692 -0.03650843 -0.07099792
v 0.69140706 0.31787811 -0.19472424
v 0.76162393 0.38921408 -0.90000004
v 0.69416819 -2.00193389 -0.85645646
v 0.72200645 -1.99993630 -0.30210141
v 0.68222380 -1.61181958 0.30592134
v 0.69429923 -1.42143126 0.02161444
v 0.78489292 0.14938877 -0.90000094
v 0.83782531 0.88837008 -0.90000237
v 0.79869188 1.63741164 -0.90002442
v 0.79090387 -1.69051333 0.41662594
v 0.69451342 -1.55174478 0.17027234
v 0.79743791 -1.12968333 -0.16021328
v 0.78397138 0.63263093 -0.90000070
v 0.71635783 -1.99307879 0.44247963
v 0.84637589 -1.58323808 -0.90003157
v 0.76921362 -1.19520320 -0.89999039
v 0.77817757 -0.26613893 -0.90000046
v 0.79135144 1.21838621 -0.14754424
v 0.83817572 -2.00195833 -0.78245181
v 0.79301698 -2.00071283 0.32289314
v 0.77408958 0.24414609 -0.14730357
v 0.80678166 -2.00008484 -0.57060075
v 0.83959819 -0.90703096 -0.90000219
v 0.86460174 0.17630790 -0.07306253
v 0.88811482 0.86029093 -0.22990320
v 0.83348370 1.86126332 -0.06762392
v 0.86325587 2.00014428 -0.31111238
v 0.92046375 0.60937653 -0.20521241
v 0.78134812 2.00076727 -0.17005055
v 0.89004362 -1.99994131 -0.07823868
v 0.84270472 -1.48154112 0.01695529
v 0.84127135 -0.13334638 -0.02160839
v 0.85897327 -1.68656417 0.37224152
v 0.88945491 -1.99744948 -0.89391590
v 0.88608081 -2.00000353 0.13413014
v 0.85299475 -0.31819868 -0.11012700
v 0.80904210 -0.03557183 0.02104503
v 0.85822172 0.05990503 -0.00164307
v 0.87844754 1.05782620 -0.21244862
v 0.86389727 1.16141800 -0.89999462
v 0.79281140 1.44990746 -0.02427629
v 0.95525176 1.99998597 -0.55719489
v 0.88436461 -2.00162883 0.45761608
v 0.79626758 -1.98929794 0.46295741
v 0.87472642 -1.62183698 0.19384021
v 0.91180945 -0.13047716 -0.90000189
v 0.95459593 -0.68690516 -0.17963812
v 0.90660436 0.46259193 -0.17414672
v 0.93059022 -1.99995084 -0.31066147
v 0.86526907 -0.84649857 -0.20391675
v 0.99015040 1.37427346 -0.89995993
v 0.91118187 1.38610725 -0.09293239
v 0.95663036 1.87681155 -0.90115631
v 0.94141347 2.00176124 -0.82631767
v 1.05857474 -0.34919591 -0.90000004
v 0.90116812 -0.01694350 0.10417680
v 0.87997878 -1.99311264 0.48110008
v 0.93382347 -1.31789871 -0.11415180
v 0.99509282 -0.56235545 -0.90000082
v 0.97667707 1.51804189 0.00727190
v 0.99724782 -0.73988600 -0.90000070
v 0.96873230 0.15280877 -0.90000129
v 1.03891415 1.73895411 -0.00395429
v 1.01628459 -2.00010808 -0.65260846
v 1.01443530 -1.91261323 -0.90106965
v 1.01386458 -1.17464514 -0.89999313
v 0.95671422 -1.04749991 -0.19446460
v 1.00609107 0.39692335 -0.11325598
v 1.01730008 0.50873612 -0.89999921
v 1.04192705 -1.45695372 -0.89996952
v 0.97737754 -0.30513516 -0.03984302
v 0.97172523 0.08946357 0.07292536
v 1.10297132 -1.99986680 -0.40132124
v 1.07210977 -2.00040646 0.34341829
v 0.95289982 -1.72674783 0.45968654
v 1.00698144 -1.65208884 0.23821930
v 0.95045162 -0.09082684 0.10671951
v 0.94374097 2.00053791 -0.09538120
v 1.03926904 -1.50877197 0.02986755
v 1.10988862 1.98830609 -0.02298622
v 1.02473951 -1.20617552 -0.16134182
v 1.10867704 -0.56725405 -0.09777421
v 0.98066873 -0.01779776 0.21069611
v 0.98655153 1.21991841 -0.18837992
v 0.96394015 -1.99365647 0.49993190
v 1.20109398 -1.75627871 -0.90020025
v 1.10177679 -1.68994411 0.39545824
v 1.02903075 -0.21957779 0.05981216
v 1.02857280 0.82729868 -0.22101989
v 1.11577935 1.66401033 -0.90001494
v 1.11873651 1.99491815 -0.89807553
v 1.01295883 -1.94715496 0.50825542
v 1.07637281 -0.09328057 0.25703441
v 1.10635126 0.13532267 0.17762549
v 1.16174615 -1.83295448 0.52530640
v 1.11113740 -1.34244688 -0.08922545
v 1.14424653 -0.20221100 0.21627405
v 1.18012125 -2.00168558 -0.77039338
v 1.10888094 -1.99992021 0.01852049
v 1.05086470 -1.99689134 0.51682573
v 1.07666225 -1.09464188 -0.18178689
v 1.12613238 -0.01692818 -0.90000117
v 1.08476496 0.35186873 -0.04654370
v 1.11921335 0.60145293 -0.14795459
v 1.19635213 0.77762417 -0.89999444
v 1.09703845 1.07514481 -0.89999480
v 1.08380485 1.41313056 -0.08254573
v 1.18870617 2.00179486 -0.82126052
v 1.19842447 2.00069265 -0.07188748
v 1.17239130 -1.69301792 0.50127544
v 1.10709626 -0.94170584 -0.18509243
v 1.11526001 0.08601220 0.24368354
v 1.18247689 0.22028874 -0.89999247
v 1.10291821 0.24860768 0.04489209
v 1.21572775 1.89987306 -0.90127290
v 1.16241241 1.99995736 -0.32991964
v 1.21806330 -1.99775906 -0.89332587
v 1.12561686 -0.99826332 -0.89999754
v 1.15125651 0.77776746 -0.19024049
v 1.09858144 1.08296911 -0.21534730
v 1.24195606 -1.99992462 -0.21383325
v 1.16028530 -0.32115302 0.09182955
v 1.18615604 -2.00217100 0.51080727
v 1.15372599 -1.61124130 0.19790492
v 1.15323413 -0.81201502 -0.15820446
v 1.22073609 -0.69920443 -0.89998282
v 1.19066591 -0.11974711 0.29264306
v 1.19259406 1.22416155 -0.16501225
v 1.23179299 1.44843189 -0.89993245
v 1.32034702 1.73869757 0.06088567
v 1.26597614 1.99998407 -0.61967284
v 1.16244126 -1.99337717 0.54584443
v 1.24048240 -1.47020765 0.05664684
v 1.20054860 -1.19636388 -0.13020664
v 1.20861299 -0.52722366 -0.02567874
v 1.17371608 0.97268073 -0.21109032
v 1.23590106 -1.37390395 -0.89994842
v 1.28357298 0.12883641 0.27802485
v 1.32253963 0.43407212 -0.89996625
v 1.30125255 1.21390514 -0.89995850
v 1.30849761 1.38387029 -0.03039250
v 1.18984569 1.54731969 0.05503807
v 1.27661592 -1.99995657 -0.51555795
v 1.21069736 0.51438515 -0.06676489
v 1.35325534 -1.18160279 -0.89996029
v 1.26059169 0.30671189 0.15523105
v 1.33020801 -2.00001975 0.26218208
v 1.30913586 -1.58278187 0.27106138
v 1.24335939 -1.03235020 -0.14730398
v 1.26419289 -0.75842320 -0.10467057
v 1.31810314 -0.42008782 -0.89995659
v 1.29244823 -0.17198605 -0.89997709
v 1.27832026 0.44302796 0.02856581
v 1.29268414 -1.99990686 -0.00526546
v 1.39064164 -1.49305804 -0.89990110
v 1.30508358 -1.29150351 -0.04458026
v 1.32472045 -0.40070917 0.19294307
v 1.25313539 -0.24999970 0.31508037
v 1.32946712 0.30373047 0.25881069
v 1.33686001 -1.94711443 -0.90108312
v 1.30110735 -0.49412160 0.06825460
v 1.29722208 0.78017263 -0.14460417
v 1.33245558 0.96797315 -0.15631720
v 1.32107443 -1.99712034 0.57805210
v 1.42480225 -1.79066666 0.57934158
v 1.33462960 -1.62146814 0.46538859
v 1.40529341 -0.96317686 -0.89995069
v 1.35884542 -0.91225697 -0.08724731
v 1.32514603 -0.33906336 0.29628434
v 1.33987112 0.62134884 -0.05194140
v 1.27119989 1.08484308 -0.17716049
v 1.41769833 1.71604828 -0.90002651
v 1.41181273 -2.00153227 -0.79957963
v 1.40333528 0.11228420 -0.89995957
v 1.40907175 2.00000243 -0.33098260
v 1.36665625 1.99385552 0.03504777
v 1.40450830 -1.94783779 0.59800809
v 1.33683247 -1.15264024 -0.08225435
v 1.38802261 -0.21228523 0.34995865
v 1.44260234 0.00217805 0.33162617
v 1.41438181 0.45576463 0.16284133
v 1.44824237 0.96761577 -0.89991248
v 1.38236792 1.48232643 0.10432593
v 1.37879569 1.99750332 -0.89335442
v 1.55687780 -1.99985583 0.15950737
v 1.39269275 -1.40430577 0.10150334
v 1.36809117 -0.71112244 -0.02678811
v 1.50818808 -0.64706557 -0.89991493
v 1.44717235 0.64543716 -0.89996875
v 1.40847511 1.16133026 -0.09102734
v 1.42122490 -0.63471149 0.06007031
v 1.38293035 -0.35874729 0.36524003
v 1.47899515 0.26463084 0.30335351
v 1.41497082 0.83779828 -0.09673456
v 1.48483045 2.00082163 -0.70455629
v 1.45082862 -1.99982579 -0.46289582
v 1.44595820 -2.00115247 0.48215249
v 1.44792420 -1.55598195 0.54901182
v 1.45083494 0.59047286 0.05331894
v 1.46102602 1.44171314 -0.89995766
v 1.50011165 -1.99985858 -0.16110145
v 1.44509787 -1.53919311 0.43031635
v 1.46943004 -1.44225402 0.23885382
v 1.50739533 2.00083808 -0.01543843
v 1.43888802 -1.23670812 0.02080044
v 1.43487365 -1.08120169 -0.03293031
v 1.57680399 -0.40471433 0.42044579
v 1.47481746 -0.22673615 -0.89989007
v 1.55216951 1.95095209 -0.90190942
v 1.46246583 -0.79312517 0.01368694
v 1.46495039 -0.57297118 0.15906762
v 1.47865087 -0.48829735 0.31024429
v 1.58869917 -2.00132354 0.59788173
v 1.58424277 -1.84431620 -0.90060449
v 1.54471094 1.28044133 0.09258658
v 1.54185636 1.51615862 0.14238871
v 1.53701145 -1.99862452 -0.89360190
v 1.57618386 -1.59840592 -0.89996815
v 1.50705499 -1.29295786 0.12706948
v 1.59265906 -0.44650843 -0.89987159
v 1.49325807 1.01491694 -0.05555642
v 1.53938539 0.74151520 0.04260690
v 1.53381366 -1.98949202 0.63112294
v 1.69695658 -1.49383207 0.60040771
v 1.54973835 -1.01325168 0.07247903
v 1.57797319 -0.75127070 0.17321000
v 1.64821262 -0.15150225 0.40026879
v 1.65250165 0.33178012 -0.89996231
v 1.55359776 0.51540623 0.28331893
v 1.70041723 1.19719474 -0.89992446
v 1.63852233 2.00001077 -0.32450694
v 1.54334945 -1.44353624 0.43861538
v 1.56595976 1.34454171 0.16605201
v 1.65646905 -1.99984296 -0.41780019
v 1.66725475 -1.85267873 0.64357924
v 1.55932338 -1.17049046 0.12601178
v 1.57801015 -0.54869972 0.43745401
v 1.59796948 0.02030317 -0.89990473
v 1.58182055 0.62975423 0.18787212
v 1.62180335 1.85445408 0.11451281
v 1.67099173 -1.96949645 -0.90164799
v 1.57843632 -0.89208819 0.11797588
v 1.56437737 -0.59543921 0.31123673
v 1.73974342 0.47850136 0.33395960
v 1.55233950 0.88968412 0.00451219
v 1.65566916 0.91479472 -0.90006704
v 1.74220497 2.00162773 -0.84160615
v 1.60025651 -1.38213189 0.55619615
v 1.68048174 -1.17218633 -0.89987231
v 1.62014491 1.08878712 0.09868191
v 1.76113028 1.47541313 -0.90034825
v 1.70245797 1.99117498 -0.89881212
v 1.71648175 1.99622754 0.11363098
v 1.58648951 -1.32933863 0.30501854
v 1.68728883 0.63932232 -0.89996273
v 1.66156144 1.79722909 -0.90049750
v 1.71592957 -2.00001367 -0.13392209
v 1.65531511 -0.86146315 -0.90016735
v 1.64078898 -0.71474852 0.35126340
v 1.65621788 -2.00006326 -0.60610766
v 1.78564162 -2.00031229 0.36399853
v 1.78167541 -1.46131738 -0.90002907
v 1.63682861 -1.29806884 0.44287130
v 1.64640374 -1.19446446 0.30666857
v 1.67718167 -0.24233562 -0.90003044
v 1.76002330 0.06666542 0.39553412
v 1.66122336 0.85843806 0.17189706
v 1.72928888 -2.00151725 -0.79061753
v 1.66917462 -1.99290355 0.66093194
v 1.68840415 0.75240461 0.28092998
v 1.84343643 1.58654026 0.20337827
v 1.76472718 2.00017027 -0.60456682
v 1.66273779 -1.04055126 0.26462906
v 1.66701192 -0.89560069 0.28143194
v 1.68213088 -0.75555890 0.48718505
v 1.66387517 1.20285372 0.21027941
v 1.78290171 -2.00042339 0.08109147
v 1.68525369 -1.17911508 0.47605177
v 1.74505550 -0.67746561 0.49688169
v 1.76206452 1.28384332 0.22644947
v 1.68696219 -1.21898647 0.55659788
v 1.79176778 0.14239378 -0.90027226
v 1.83668990 2.00144843 -0.01404541
v 1.69150133 -0.82989128 0.43371027
v 1.77233166 -0.41326994 0.46597087
v 1.85844869 -1.77523883 -0.90135980
v 1.70713849 -1.01241477 0.43786591
v 1.85146505 -0.77504959 -0.90122271
v 1.82216782 0.71324239 0.32090464
v 1.70934600 1.01674692 0.24555173
v 1.88814837 1.89407973 0.17169278
v 1.77417225 -1.92169877 0.67920356
v 1.71819515 -1.02283646 0.53219729
v 1.87797088 -0.08797494 -0.90115220
v 1.80896670 0.28356789 0.37714576
v 1.78754229 1.03593664 0.26696592
v 1.87643523 -2.00144704 -0.25669978
v 1.88337059 -2.00247307 0.56155639
v 1.90321071 -1.10821374 0.59540289
v 1.84625179 -0.87020196 0.54833453
v 1.90011329 1.80751709 -0.90169150
v 1.82715685 -2.00290604 0.67214047
v 1.86423308 -1.22251453 -0.90133197
v 1.86790843 -0.39595510 -0.90138955
v 1.88566608 0.83452169 -0.90153748
v 1.92871327 1.18476621 0.28139221
v 1.90108687 2.00164513 -0.28553120
v 1.83211071 -1.99970086 -0.89328474
v 1.90738935 -2.00217732 -0.56288070
v 1.77435965 -1.98860343 0.68739235
v 1.89151055 0.45704208 -0.90140534
v 1.89119763 -2.00471826 -0.82775886
v 1.91956503 -1.64608868 0.67350971
v 1.90971345 -0.18577484 0.46690112
v 1.92230494 1.10967390 -0.90178741
v 1.86266393 -1.99551721 0.70659518
v 1.91586358 -0.59795778 0.52688985
v 1.95381195 -1.90397127 0.71890389
v 1.95084185 -1.45309635 -0.90150101
v 1.95715231 -0.43732180 0.51348870
v 1.93417186 1.99217848 -0.89981390
v 1.95646770 0.48064886 0.38503509
v 1.94952626 1.99831800 0.15418565
v 1.94847888 2.00168995 -0.59000463
v 1.97059328 -1.99842413 0.72450810
v 1.98223240 -1.41141744 0.65410631
v 1.97974116 0.13793148 0.43678045
v 1.96024961 0.17461402 -0.90205056
v 1.96764976 0.60811154 0.36980351
v 1.96970028 0.93611841 0.32387342
v 1.96827526 1.56296555 -0.90203196
v 1.98314983 -1.99421890 -0.87658090
v 1.98472745 -1.28519245 0.63623869
v 1.98891098 -1.04692145 -0.89906920
v 1.98713202 -0.20037027 -0.89913512
v 1.96238691 0.03234915 0.44903844
v 1.99133653 0.75547509 -0.89850563
v 1.98998804 0.77006881 0.34807631
v 1.97958893 -2.00250502 0.32695001
v 1.98864681 -0.10049956 0.46973782
v 1.98417944 2.00017313 -0.84806300
v 1.99314279 -1.99759694 -0.61466522
v 1.99055631 0.28678582 0.41618385
v 1.99339396 1.55691985 0.23965109
v 1.99768705 1.76231388 -0.88979138
v 1.99828560 1.98861627 -0.69752300
v 1.99342174 -1.99857219 -0.29702128
v 1.98976464 -1.99949415 0.07884336
v 1.99472267 -1.99783905 0.48524552
v 1.99881393 -1.76358731 0.70196467
v 1.99687690 -1.63619943 0.68482261
v 1.99826498 -1.41766866 -0.88171954
v 1.99870438 -1.10154702 0.60410231
v 1.98877484 -0.89618071 0.58430665
v 1.99367423 -0.75464814 -0.89880104
v 1.99245364 -0.46419169 -0.89880282
v 1.99404604 -0.32095521 0.50073918
v 1.99755032 0.04339461 -0.89144737
v 1.99333794 0.32523577 -0.89693958
v 1.99258775 1.06889884 0.30763801
v 1.99497897 1.34337823 -0.89768458
v 1.99214954 1.33855824 0.26702457
v 1.99355728 1.99774985 -0.32758326
v 1.99826974 1.99687485 0.05017780
v 2.00050241 -1.99766489 0.66070878
v 2.00233550 -1.93056555 0.72234248
v 1.99900276 -1.84334882 -0.89579267
v 1.99827058 -1.62400373 -0.89358825
v 1.99542589 -1.52783938 0.67017930
v 1.99956507 -1.27108200 -0.88856018
v 1.99472422 -0.73240035 0.55895525
v 1.99599511 -0.48717834 0.52020895
v 2.00119252 0.08199699 0.42130568
v 1.99971337 0.18626712 -0.88356293
v 1.99950189 0.54891966 0.37421655
v 1.99882633 0.51160638 -0.88471240
v 1.99752492 1.01177136 -0.89511508
v 1.99116559 0.92313210 0.33003246
v 1.99372501 1.20911817 0.28834804
v 1.99841637 1.20838253 -0.89013667
v 1.99882502 1.48313956 -0.88918764
v 2.00005419 1.60785930 -0.88855339
v 1.99280042 1.77556400 0.21024453
v 1.99966032 1.94633726 -0.89524770
v 1.99960131 1.92514519 0.17029574
v 1.99996562 1.99058251 -0.51194013
v 2.00058217 -1.99280544 0.22043195
v 2.00107009 -1.92807873 -0.50635774
v 2.00092144 -1.89554008 -0.18905794
v 2.00151581 -1.92423173 -0.79534716
v 2.00092966 -1.86054106 0.12533892
v 2.00150401 -1.83232792 0.49593958
v 2.00015707 -1.72717555 -0.39470709
v 2.00031883 -1.65790601 -0.60997636
v 2.00235362 -1.70688768 -0.83341933
v 1.99997062 -1.65452333 -0.09300973
v 1.99986047 -1.62373717 0.24790525
v 2.00302298 -1.54867800 0.64677542
v 2.00052566 -1.52530559 0.50281786
v 2.00104446 -1.39340730 -0.75255544
v 1.99993379 -1.34831234 -0.28302929
v 2.00002653 -1.45158263 -0.50145794
v 1.99992687 -1.37265273 0.06743747
v 2.00053853 -1.23484458 0.44200897
v 2.00218172 -1.30765756 0.59094059
v 1.99993617 -1.13654860 -0.50009883
v 1.99993104 -1.09582277 0.01123557
v 1.99999494 -1.10638334 0.23447742
v 2.00130553 -1.07701923 -0.82966060
v 2.00023610 -1.00974228 -0.69061965
v 1.99997050 -1.05740305 -0.21935476
v 2.00017161 -0.88777925 0.36746528
v 2.00224454 -0.86138042 0.53936987
v 1.99995286 -0.78257604 -0.38492713
v 2.00114948 -0.89760478 -0.86126799
v 1.99996955 -0.85243561 -0.17144563
v 1.99995083 -0.83780416 0.08389351
v 2.00000555 -0.80095347 -0.58028222
v 2.00064892 -0.70740806 -0.77979679
v 1.99995989 -0.64834585 -0.10533795
v 2.00217242 -0.59685327 0.45725932
v 2.00006992 -0.62226548 0.22355948
v 2.00012166 -0.52141492 -0.64058483
v 2.00085623 -0.52542214 -0.83496649
v 1.99998445 -0.48416226 -0.33425192
v 1.99989027 -0.44322402 0.06274120
v 2.00052351 -0.40148188 0.32760178
v 1.99999053 -0.30888302 -0.48214994
v 1.99995453 -0.39213392 -0.12934568
v 2.00106782 -0.28591076 -0.83062184
v 2.00230581 -0.29000441 0.43370628
v 2.00039560 -0.12765536 -0.68778051
v 1.99996776 -0.23131427 -0.22482296
v 1.99993939 -0.20458482 0.03896277
v 2.00015850 -0.16344758 0.24333834
v 1.99997336 -0.08470562 -0.42384580
v 1.99995107 -0.05697002 -0.16976242
v 2.00191493 -0.05320384 -0.83382703
v 1.99994499 -0.01669602 0.04395934
v 2.00060088 0.07236193 0.27702268
v 1.99997801 0.11402221 -0.53070665
v 1.99987859 0.14220692 -0.03159118
v 1.99995477 0.10035215 -0.31704730
v 2.00094623 0.19260312 -0.75415528
v 1.99994034 0.26670037 -0.19493741
v 1.99993796 0.33786587 -0.41549227
v 2.00202221 0.32103417 0.34092467
v 2.00009973 0.30056391 0.16254307
v 2.00011653 0.37824051 -0.61121989
v 2.00172944 0.41132812 -0.84392214
v 1.99995191 0.47580729 -0.28660337
v 1.99992032 0.46846847 -0.05181301
v 1.99994106 0.57672481 -0.46175302
v 2.00060207 0.54208718 0.17335614
v 2.00043220 0.60240124 -0.70506824
v 2.00108690 0.69078694 -0.86297393
v 1.99992222 0.75497012 -0.25282971
v 2.00000996 0.79510121 0.07175771
v 2.00180072 0.74777548 0.27640172
v 2.00011820 0.77616183 -0.62466467
v 2.00132520 0.87285296 -0.80471200
v 1.99991519 0.96048514 -0.45369828
v 1.99992604 0.92192165 -0.19755653
v 2.00194151 0.92811350 0.31173661
v 2.00032706 1.00863914 0.11778740
v 2.00007934 1.11365442 -0.61428953
v 2.00198025 1.09061818 -0.84583629
v 1.99993200 1.11683897 -0.27577538
v 1.99999184 1.19848899 -0.09969748
v 2.00105674 1.18201212 0.19885679
v 1.99991841 1.23783652 -0.40217278
v 2.00134451 1.29303758 -0.81987423
v 2.00013942 1.35690693 -0.67445875
v 1.99988372 1.42069499 -0.21652674
v 2.00131602 1.39771287 0.19804265
v 1.99978108 1.46158604 -0.44939435
v 2.00040490 1.57260291 0.04773745
v 2.00174732 1.55605416 -0.82051719
v 2.00003392 1.58542995 -0.61558349
v 2.00000269 1.69314019 -0.16235395
v 2.00193281 1.68776814 0.18917485
v 2.00155646 1.77017383 -0.74016619
v 2.00064427 1.83359365 -0.47897518
v 2.00215156 1.86958246 0.05320251
v 2.00133867 1.90216164 -0.24272687
v 2.00428266 1.91752748 -0.82632733
f 817 757 794
f 951 911 928
f 873 830 818
f 742 673 719
f 40 36 33
f 859 771 826
f 961 936 954
f 663 619 612
f 329 309 304
f 1052 1009 1050
f 950 931 905
f 181 174 199
f 443 466 501
f 797 750 780
f 372 354 398
f 216 186 156
f 772 728 762
f 328 286 324
f 963 874 959
f 1030 1012 1059
f 525 461 484
f 926 881 869
f 156 112 79
f 573 477 566
f 41 37 90
f 87 27 32
f 940 898 936
f 898 853 873
f 372 337 354
f 589 526 587
f 724 721 803
f 438 393 410
f 473 444 412
f 1008 958 970
f 755 733 717
f 1147 1006 1045
f 698 661 693
f 642 578 630
f 148 167 123
f 69 66 65
f 625 645 596
f 112 75 1
f 129 86 87
f 368 364 400
f 397 392 449
f 317 268 293
f 914 865 837
f 1125 999 1120
f 83 147 80
f 1076 1070 995
f 757 740 794
f 368 293 364
f 52 49 51
f 710 665 683
f 300 249 299
f 636 624 691
f 655 639 675
f 543 489 502
f 893 864 863
f 385 338 353
f 948 935 934
f 64 62 66
f 671 666 640
f 1005 932 1023
f 1095 1090 1094
f 1086 1084 1089
f 247 246 185
f 86 23 27
f 788 819 840
f 518 464 478
f 593 526 589
f 531 518 516
f 1014 1065 1074
f 111 73 116
f 823 765 831
f 941 937 957
f 443 394 466
f 732 743 796
f 682 642 685
f 731 747 676
f 397 326 392
f 582 581 626
f 1048 1000 1009
f 653 635 592
f 185 142 158
f 637 582 626
f 564 554 471
f 160 110 140
f 311 229 259
f 520 455 492
f 275 266 265
f 230 226 256
f 960 942 885
f 74 72 71
f 1014 994 1066
f 766 850 800
f 805 814 831
f 755 717 744
f 312 296 311
f 721 702 713
f 987 885 974
f 545 476 536
f 1128 1038 1041
f 890 854 905
f 135 81 161
f 895 857 921
f 614 615 600
f 158 121 106
f 832 797 824
f 995 1031 980
f 1088 1083 1087
f 590 540 607
f 533 532 577
f 469 438 481
f 581 577 602
f 62 60 57
f 1057 1050 1054
f 1007 1147 1002
f 156 186 112
f 38 91 35
f 1143 1139 1043
f 807 775 755
f 882 855 906
f 84 83 18
f 936 920 945
f 571 586 558
f 790 712 751
f 735 681 696
f 771 748 736
f 957 951 931
f 852 796 848
f 726 778 695
f 379 423 345
f 388 322 384
f 376 402 359
f 79 11 16
f 740 719 692
f 998 1037 972
f 375 369 335
f 739 690 652
f 635 647 564
f 499 437 451
f 549 585 634
f 669 674 599
f 999 1036 1120
f 981 978 1033
f 916 889 800
f 530 494 487
f 871 886 903
f 260 226 240
f 152 136 129
f 341 288 262
f 690 615 652
f 1027 986 1026
f 362 321 356
f 128 135 172
f 804 725 759
f 654 653 575
f 1103 1104 1106
f 915 880 864
f 900 883 860
f 1062 1054 1063
f 656 684 631
f 741 770 739
f 407 377 323
f 1128 1122 1038
f 1118 1114 1123
f 419 390 436
f 1030 987 974
f 235 239 268
f 763 723 774
f 356 292 339
f 398 354 397
f 751 712 670
f 818 872 873
f 1119 1118 1124
f 390 289 370
f 346 284 321
f 1141 1135 1137
f 643 702 721
f 109 72 74
f 585 521 621
f 90 34 88
f 525 488 461
f 726 695 648
f 20 15 13
f 200 168 214
f 377 416 376
f 327 305 306
f 203 196 150
f 253 206 216
f 509 448 489
f 1096 1087 1095
f 229 211 259
f 511 463 490
f 378 353 313
f 37 39 33
f 335 369 320
f 516 485 515
f 902 878 821
f 644 576 616
f 208 173 164
f 894 876 937
f 779 727 684
f 87 86 27
f 1142 1136 1138
f 280 232 231
f 1022 976 912
f 399 355 403
f 39 40 33
f 408 360 385
f 127 108 109
f 487 522 530
f 738 693 749
f 679 608 651
f 21 23 18
f 80 79 16
f 953 930 971
f 834 778 878
f 294 248 236
f 99 61 59
f 201 159 221
f 30 31 25
f 576 550 616
f 437 349 361
f 565 471 493
f 227 215 169
f 106 63 67
f 159 146 132
f 400 404 450
f 82 20 81
f 912 976 891
f 97 95 55
f 494 427 447
f 773 744 754
f 321 245 292
f 451 437 361
f 178 192 231
f 668 632 619
f 248 247 185
f 1127 1121 1122
f 219 218 272
f 714 670 647
f 894 844 876
f 515 538 516
f 789 781 832
f 469 481 505
f 758 818 830
f 35 32 31
f 409 374 333
f 795 742 757
f 10 9 5
f 1106 1104 1107
f 255 209 220
f 818 783 822
f 583 553 520
f 650 602 673
f 854 841 927
f 1001 1018 1092
f 265 253 275
f 229 166 211
f 440 380 381
f 838 825 884
f 917 833 870
f 351 350 394
f 37 34 90
f 707 678 632
f 1110 1102 1105
f 447 445 487
f 1016 949 965
f 414 388 413
f 954 948 939
f 716 787 720
f 1024 985 968
f 892 933 856
f 89 32 35
f 377 376 297
f 189 167 148
f 949 964 910
f 220 296 307
f 685 642 657
f 885 859 826
f 782 734 804
f 1009 938 958
f 932 941 967
f 537 480 499
f 190 136 187
f 469 403 438
f 1051 1003 993
f 1068 1064 1062
f 783 732 796
f 566 526 593
f 94 93 50
f 532 518 531
f 689 709 765
f 443 501 506
f 711 728 772
f 702 633 679
f 786 708 772
f 340 293 368
f 592 565 535
f 441 460 423
f 724 643 721
f 1073 1068 1078
f 37 33 34
f 1139 1042 1043
f 365 347 311
f 613 563 605
f 547 537 499
f 17 21 14
f 374 316 333
f 892 836 865
f 282 281 314
f 706 692 672
f 973 929 969
f 464 397 449
f 1133 1128 1041
f 173 143 119
f 1032 961 1015
f 700 686 781
f 61 57 58
f 501 466 508
f 797 780 824
f 473 412 479
f 53 55 50
f 793 761 784
f 518 478 516
f 162 83 136
f 1145 1141 1146
f 641 603 637
f 887 852 871
f 802 789 851
f 205 185 155
f 598 552 527
f 343 359 310
f 556 505 524
f 571 522 549
f 643 621 633
f 46 93 38
f 105 54 92
f 534 508 540
f 360 344 314
f 200 214 245
f 578 604 630
f 484 461 380
f 355 366 403
f 211 144 194
f 553 588 512
f 766 800 730
f 336 266 275
f 898 904 920
f 837 865 770
f 449 421 478
f 1143 1140 1139
f 183 149 153
f 487 445 482
f 376 359 343
f 697 646 743
f 948 934 939
f 926 869 899
f 856 845 769
f 145 94 95
f 756 761 793
f 475 474 504
f 95 94 50
f 567 580 624
f 1094 1090 1086
f 482 473 542
f 1133 1127 1128
f 756 793 825
f 802 768 789
f 633 620 608
f 430 406 457
f 990 905 983
f 1117 1116 1037
f 542 473 521
f 842 820 890
f 1123 1114 1121
f 785 740 737
f 596 606 561
f 276 274 241
f 217 187 152
f 277 255 289
f 491 460 441
f 859 827 771
f 287 219 272
f 773 754 788
f 131 92 139
f 1129 1124 1123
f 535 565 493
f 609 559 570
f 341 340 382
f 889 943 899
f 309 303 246
f 510 504 560
f 432 409 373
f 33 30 29
f 924 915 893
f 120 104 137
f 1019 955 989
f 232 178 231
f 920 935 945
f 49 53 47
f 269 253 216
f 844 803 802
f 1064 1058 1057
f 147 224 195
f 411 368 400
f 895 921 970
f 405 358 327
f 460 451 422
f 121 97 98
f 836 892 856
f 12 7 8
f 96 56 54
f 1053 1048 1052
f 424 417 374
f 135 82 81
f 753 655 746
f 148 123 93
f 1078 1068 1077
f 910 923 816
f 413 388 384
f 265 198 253
f 756 655 753
f 17 14 12
f 352 331 388
f 530 558 494
f 579 572 617
f 555 509 543
f 176 133 165
f 110 109 74
f 395 434 381
f 897 880 915
f 105 92 131
f 578 528 604
f 688 654 615
f 314 308 338
f 679 633 608
f 1109 1101 1103
f 175 168 200
f 1113 1112 1118
f 327 287 342
f 669 599 609
f 575 653 592
f 183 163 193
f 919 910 828
f 287 272 318
f 513 484 462
f 986 977 963
f 1112 1106 1107
f 442 425 470
f 1024 1146 1144
f 705 675 704
f 549 482 542
f 194 144 176
f 28 34 29
f 345 278 291
f 1056 1028 1029
f 887 935 920
f 194 198 265
f 19 17 15
f 1133 1041 1022
f 605 519 578
f 849 828 787
f 614 549 623
f 901 791 877
f 846 862 918
f 383 330 359
f 245 214 264
f 576 502 550
f 71 68 66
f 390 378 289
f 1027 1026 1053
f 146 115 132
f 1108 1101 1109
f 357 333 285
f 355 339 301
f 434 462 381
f 1126 1119 1124
f 8 7 3
f 1025 1145 1146
f 693 697 732
f 180 140 149
f 649 646 697
f 485 419 477
f 579 555 543
f 706 666 694
f 92 48 42
f 824 851 832
f 569 507 552
f 237 202 229
f 664 616 695
f 350 324 346
f 956 854 927
f 300 301 242
f 53 50 47
f 683 617 680
f 617 576 644
f 1073 1069 1068
f 1011 1053 1059
f 147 141 80
f 150 113 123
f 1010 1000 1048
f 367 379 348
f 672 692 667
f 509 489 543
f 370 307 347
f 404 394 443
f 736 671 655
f 218 163 201
f 279 250 301
f 391 363 425
f 121 98 100
f 1047 1144 1007
f 982 962 913
f 394 442 465
f 1027 979 986
f 56 58 52
f 975 946 981
f 1112 1107 1114
f 251 235 262
f 249 230 256
f 516 478 485
f 632 618 588
f 417 379 367
f 995 964 949
f 65 62 61
f 267 277 325
f 938 846 918
f 133 76 117
f 273 208 228
f 888 840 868
f 657 642 630
f 305 375 335
f 405 427 358
f 619 632 588
f 824 823 855
f 916 972 889
f 418 370 430
f 536 476 480
f 801 767 712
f 936 945 948
f 1086 1075 1084
f 1060 1053 1058
f 209 157 151
f 132 126 170
f 405 342 445
f 598 631 569
f 643 585 621
f 729 682 685
f 891 907 843
f 574 537 547
f 976 966 907
f 1091 1085 1017
f 399 339 355
f 513 570 484
f 928 883 900
f 138 152 129
f 614 571 549
f 783 796 822
f 949 910 919
f 987 1059 1066
f 655 589 639
f 350 391 394
f 624 580 555
f 412 433 479
f 61 62 57
f 384 336 396
f 937 876 911
f 286 239 234
f 712 701 658
f 1086 1081 1075
f 351 394 404
f 121 142 95
f 812 787 716
f 836 792 777
f 997 975 1001
f 169 215 148
f 4 8 3
f 108 70 72
f 202 166 229
f 275 253 269
f 135 85 82
f 831 765 805
f 938 922 846
f 1063 1055 1061
f 113 129 87
f 637 650 711
f 739 688 690
f 609 599 559
f 54 51 92
f 1140 1134 1139
f 834 759 778
f 1135 1132 1137
f 984 952 1046
f 13 15 9
f 936 948 954
f 1105 1093 1099
f 666 706 672
f 447 427 405
f 890 820 854
f 997 927 975
f 625 573 593
f 335 320 273
f 261 302 233
f 47 43 40
f 841 840 888
f 177 169 130
f 335 273 305
f 298 297 224
f 85 24 82
f 463 430 457
f 973 969 993
f 164 119 127
f 577 551 597
f 751 833 790
f 1084 1079 1080
f 765 729 805
f 911 851 882
f 829 839 867
f 907 916 843
f 552 507 491
f 327 306 287
f 184 205 143
f 96 54 105
f 323 298 290
f 875 947 902
f 1023 932 967
f 1046 1142 1145
f 99 59 96
f 149 122 153
f 1136 1131 1138
f 920 904 887
f 203 150 167
f 585 542 521
f 349 371 290
f 452 399 403
f 703 715 653
f 373 409 357
f 1000 938 1009
f 1061 1055 1056
f 500 470 496
f 839 817 866
f 1021 1125 1131
f 837 770 741
f 189 203 167
f 439 432 373
f 805 729 764
f 412 411 433
f 25 27 23
f 233 244 203
f 1034 997 1001
f 843 850 766
f 720 722 656
f 170 105 178
f 106 100 63
f 744 738 754
f 482 444 473
f 1117 1037 998
f 888 868 946
f 845 870 776
f 1011 974 979
f 1074 1073 1082
f 633 591 620
f 298 224 254
f 403 366 393
f 311 259 331
f 755 775 733
f 611 577 597
f 254 224 207
f 395 381 334
f 138 129 113
f 295 252 208
f 137 104 128
f 564 622 554
f 663 730 668
f 526 463 511
f 436 418 468
f 687 643 724
f 768 713 745
f 890 900 842
f 1026 986 959
f 734 683 725
f 548 515 477
f 330 310 359
f 1085 1080 1016
f 436 468 514
f 1006 992 962
f 145 177 130
f 271 310 269
f 159 132 170
f 188 213 242
f 972 943 889
f 600 586 571
f 1102 1097 1093
f 1092 1082 1088
f 869 813 835
f 214 181 199
f 874 922 959
f 613 638 607
f 104 28 24
f 14 11 12
f 843 766 767
f 650 673 711
f 1025 944 984
f 747 821 726
f 438 410 458
f 919 828 849
f 625 593 640
f 432 455 409
f 215 189 148
f 167 150 123
f 389 370 365
f 1029 947 980
f 653 659 635
f 865 836 770
f 572 502 576
f 91 89 35
f 937 911 951
f 471 434 395
f 199 174 188
f 295 236 252
f 362 356 387
f 740 692 706
f 258 211 194
f 499 480 453
f 769 752 715
f 966 916 907
f 524 483 518
f 1104 1098 1097
f 252 236 184
f 970 929 973
f 145 130 94
f 807 814 775
f 1066 1060 1065
f 42 39 37
f 676 747 648
f 1002 1147 1045
f 517 527 495
f 350 346 363
f 15 17 12
f 675 639 628
f 935 887 903
f 144 133 176
f 25 31 27
f 364 328 351
f 441 423 379
f 170 126 105
f 1119 1113 1118
f 1069 1065 1064
f 588 562 517
f 700 638 686
f 1058 1052 1057
f 720 787 722
f 483 464 518
f 210 170 234
f 113 32 89
f 122 116 102
f 962 917 913
f 829 786 810
f 1113 1106 1112
f 1120 1115 1119
f 51 49 45
f 29 25 26
f 690 688 615
f 109 108 72
f 292 279 339
f 979 953 977
f 130 93 94
f 278 276 217
f 360 338 385
f 155 158 106
f 295 319 236
f 1101 1096 1100
f 498 467 420
f 120 88 104
f 9 8 4
f 217 241 190
f 28 26 24
f 519 528 578
f 1000 922 938
f 450 404 443
f 76 75 117
f 1054 1049 1055
f 912 891 861
f 854 799 841
f 157 134 151
f 727 731 677
f 974 896 953
f 496 452 469
f 258 194 266
f 960 885 994
f 694 666 671
f 186 165 112
f 111 74 73
f 999 950 990
f 643 633 702
f 116 69 102
f 615 586 600
f 599 583 520
f 435 377 407
f 733 685 699
f 81 13 78
f 934 886 897
f 1063 1054 1055
f 559 525 484
f 140 110 111
f 350 363 391
f 1020 989 972
f 896 838 884
f 889 835 800
f 554 513 503
f 279 199 250
f 696 636 691
f 497 506 541
f 1045 962 982
f 906 855 883
f 355 300 366
f 179 177 145
f 311 331 352
f 924 893 909
f 36 35 31
f 721 713 768
f 927 841 888
f 567 504 544
f 379 291 348
f 1105 1019 1035
f 24 22 19
f 1028 993 947
f 1079 1071 1080
f 1053 1026 1010
f 858 784 808
f 1030 974 1012
f 1014 960 994
f 656 598 618
f 419 385 378
f 467 493 426
f 222 223 180
f 170 178 204
f 1141 1137 1144
f 285 227 243
f 256 260 282
f 1018 975 981
f 736 694 671
f 230 212 226
f 1114 1110 1116
f 1031 1013 980
f 826 838 896
f 1090 1087 1081
f 497 450 443
f 654 575 586
f 212 172 161
f 862 857 895
f 946 940 978
f 293 328 364
f 834 804 759
f 294 304 248
f 96 59 56
f 1133 1022 1042
f 1040 1131 1136
f 957 950 991
f 10 5 6
f 103 6 118
f 1004 988 1034
f 423 422 345
f 1065 1060 1058
f 244 196 203
f 809 794 785
f 293 286 328
f 800 835 774
f 1139 1133 1042
f 88 34 28
f 201 163 182
f 318 272 288
f 165 133 117
f 579 543 572
f 414 413 472
f 1139 1134 1133
f 635 564 565
f 47 50 46
f 978 961 1032
f 763 716 707
f 388 331 322
f 713 679 745
f 1004 1034 1108
f 195 216 156
f 1007 1143 1147
f 1065 1058 1064
f 242 249 300
f 853 819 830
f 226 212 225
f 980 947 923
f 746 718 704
f 736 655 756
f 117 75 112
f 456 471 395
f 114 41 124
f 646 603 641
f 119 70 108
f 92 114 139
f 848 811 829
f 462 484 440
f 1100 1095 1098
f 848 829 871
f 378 385 353
f 272 218 251
f 835 763 774
f 115 101 99
f 748 737 694
f 862 782 857
f 782 760 691
f 52 57 53
f 661 630 649
f 417 367 374
f 681 628 636
f 480 476 435
f 1003 973 993
f 1077 1072 1075
f 81 134 157
f 815 760 782
f 797 781 750
f 192 175 200
f 1095 1087 1090
f 437 453 407
f 493 456 426
f 521 486 529
f 766 730 669
f 947 969 902
f 199 188 250
f 796 743 811
f 599 674 612
f 1094 1086 1089
f 1050 1049 1054
f 605 578 642
f 59 58 56
f 820 773 799
f 178 131 175
f 1036 1115 1120
f 400 351 404
f 339 279 301
f 1036 1004 1108
f 800 774 730
f 74 71 73
f 608 590 651
f 124 90 120
f 968 933 892
f 1004 956 988
f 197 179 142
f 995 980 964
f 334 294 319
f 1125 1039 999
f 275 269 310
f 923 947 879
f 220 151 202
f 238 207 190
f 54 52 51
f 479 486 521
f 457 406 414
f 1127 1122 1128
f 411 400 428
f 234 232 280
f 544 472 555
f 975 888 946
f 662 642 682
f 1024 968 944
f 147 195 141
f 1096 1095 1100
f 174 137 188
f 842 814 807
f 150 138 113
f 68 67 64
f 442 391 425
f 406 365 352
f 909 859 885
f 528 582 603
f 1142 1138 1145
f 563 540 500
f 534 501 508
f 923 879 816
f 152 187 136
f 900 860 842
f 764 685 775
f 531 516 538
f 444 401 412
f 921 929 970
f 454 446 417
f 115 99 96
f 1110 1105 1111
f 473 479 521
f 844 802 876
f 19 15 20
f 528 469 539
f 671 640 655
f 411 340 368
f 861 801 790
f 141 79 80
f 877 791 844
f 1015 961 960
f 43 46 38
f 144 76 133
f 500 496 519
f 407 323 371
f 716 720 656
f 885 826 896
f 258 266 259
f 849 949 919
f 875 821 747
f 1029 1028 947
f 505 483 524
f 717 693 738
f 1006 1043 992
f 284 231 245
f 494 447 487
f 645 606 596
f 414 406 352
f 992 912 962
f 92 42 41
f 620 594 608
f 891 976 907
f 974 953 979
f 315 290 274
f 79 1 11
f 410 372 398
f 659 647 635
f 209 151 220
f 955 965 926
f 461 439 380
f 282 260 281
f 113 87 32
f 615 654 586
f 604 603 646
f 727 677 684
f 1072 1067 1075
f 58 57 52
f 129 84 86
f 587 526 546
f 1015 960 1014
f 177 227 169
f 351 324 350
f 367 348 302
f 673 611 660
f 777 792 703
f 1073 1065 1069
f 874 858 922
f 80 16 18
f 48 44 42
f 382 340 411
f 19 21 17
f 750 686 689
f 591 521 529
f 612 619 583
f 1116 1111 1037
f 533 518 532
f 206 198 165
f 1025 1046 1145
f 569 574 507
f 207 147 162
f 939 925 924
f 840 819 853
f 651 638 700
f 603 582 637
f 183 153 163
f 942 939 909
f 1044 932 1005
f 1097 1089 1093
f 233 203 189
f 827 809 748
f 562 598 527
f 446 441 379
f 220 270 296
f 180 160 140
f 86 84 23
f 292 245 264
f 313 277 289
f 1124 1118 1123
f 681 636 696
f 856 792 836
f 1036 990 983
f 815 782 862
f 29 30 25
f 1001 1092 1034
f 613 605 662
f 574 610 537
f 208 164 160
f 2 1 75
f 342 318 341
f 723 668 730
f 988 997 1034
f 175 139 168
f 854 820 799
f 172 135 161
f 184 143 173
f 1075 1067 1079
f 345 332 278
f 28 29 26
f 161 81 157
f 1107 1102 1110
f 1021 991 1125
f 455 512 454
f 911 906 928
f 371 323 290
f 517 495 454
f 1137 1134 1140
f 804 734 725
f 537 629 568
f 729 685 764
f 944 865 914
f 263 223 257
f 686 613 689
f 416 402 376
f 571 558 530
f 363 346 362
f 735 696 760
f 899 869 835
f 257 222 219
f 1025 1146 1024
f 128 85 135
f 154 103 118
f 612 583 599
f 1119 1115 1113
f 876 802 851
f 114 92 41
f 761 746 704
f 747 726 648
f 677 610 631
f 902 969 878
f 996 1017 965
f 728 673 742
f 825 793 784
f 741 724 791
f 502 429 459
f 717 698 693
f 463 457 490
f 1017 1016 965
f 165 117 112
f 72 70 68
f 1023 1040 1136
f 180 149 183
f 795 757 817
f 582 556 581
f 596 561 573
f 418 390 370
f 833 912 861
f 111 110 74
f 655 718 746
f 198 206 253
f 598 569 552
f 1002 982 908
f 1073 1078 1083
f 418 430 463
f 144 118 76
f 188 137 213
f 475 457 414
f 466 394 465
f 745 700 781
f 324 284 346
f 191 128 172
f 429 402 459
f 840 853 868
f 684 677 631
f 741 687 724
f 717 699 698
f 921 857 834
f 121 95 97
f 425 386 431
f 1011 1027 1053
f 101 65 61
f 49 40 45
f 510 490 475
f 588 517 512
f 555 472 509
f 358 375 305
f 179 145 142
f 97 55 60
f 645 667 606
f 985 908 933
f 386 362 387
f 949 849 881
f 285 316 227
f 119 106 70
f 77 6 103
f 683 680 725
f 455 454 424
f 1072 1062 1067
f 914 952 984
f 1022 1041 976
f 302 291 244
f 863 827 859
f 540 508 500
f 709 689 662
f 389 365 406
f 107 65 101
f 163 107 146
f 284 245 321
f 1123 1121 1127
f 278 332 276
f 303 285 243
f 461 432 439
f 259 211 258
f 9 15 12
f 366 300 299
f 708 711 772
f 296 270 229
f 934 897 925
f 758 830 819
f 685 657 699
f 548 477 573
f 658 609 595
f 340 262 317
f 737 740 706
f 413 384 448
f 1143 1043 1006
f 913 917 870
f 65 66 62
f 748 694 736
f 716 678 707
f 489 429 502
f 234 204 232
f 322 266 336
f 1041 1038 976
f 627 579 617
f 262 268 317
f 762 742 795
f 395 334 319
f 537 536 480
f 792 856 769
f 617 644 664
f 230 213 212
f 500 519 563
f 349 290 315
f 873 904 898
f 780 689 765
f 485 478 421
f 79 112 1
f 393 366 372
f 54 56 52
f 537 568 536
f 222 183 219
f 590 534 540
f 993 969 947
f 451 361 422
f 1068 1062 1072
f 106 121 100
f 561 548 573
f 640 645 625
f 665 627 617
f 879 875 747
f 553 512 455
f 1145 1138 1141
f 78 77 125
f 278 217 244
f 1111 1105 1020
f 125 103 154
f 122 107 153
f 479 428 486
f 264 199 279
f 926 965 881
f 791 803 844
f 241 238 190
f 1103 1098 1104
f 299 249 283
f 908 845 856
f 1019 1099 996
f 526 511 546
f 151 125 171
f 102 69 65
f 614 600 571
f 613 607 563
f 861 891 801
f 670 658 595
f 333 316 285
f 627 555 579
f 758 738 749
f 522 487 482
f 64 67 63
f 1084 1080 1085
f 164 173 119
f 981 946 978
f 363 362 386
f 293 239 286
f 210 159 170
f 1062 1063 1067
f 1101 1100 1103
f 647 670 622
f 1059 1053 1060
f 535 467 498
f 1032 1015 1074
f 219 193 218
f 927 888 975
f 677 676 610
f 1055 1051 1056
f 841 799 788
f 215 233 189
f 1018 1033 1092
f 943 955 899
f 448 396 429
f 839 810 795
f 415 395 369
f 205 155 143
f 469 505 539
f 656 631 598
f 495 441 446
f 904 873 872
f 608 594 584
f 337 299 283
f 427 420 358
f 691 624 665
f 636 567 624
f 938 918 958
f 788 754 819
f 373 357 303
f 428 400 450
f 984 944 914
f 670 712 658
f 799 773 788
f 567 544 580
f 903 886 934
f 507 451 460
f 597 551 606
f 301 250 242
f 660 597 667
f 1047 1007 985
f 70 67 68
f 105 131 178
f 1049 1008 1003
f 664 644 616
f 531 538 551
f 386 387 431
f 669 730 674
f 110 127 109
f 486 428 450
f 136 84 129
f 344 282 314
f 1102 1093 1105
f 380 329 381
f 1012 1011 1059
f 369 319 320
f 470 431 452
f 1107 1104 1102
f 514 463 526
f 595 609 570
f 408 385 421
f 239 221 210
f 84 18 23
f 422 361 345
f 568 550 545
f 908 982 913
f 1043 1042 992
f 166 144 211
f 618 598 562
f 318 288 341
f 914 901 952
f 12 11 7
f 340 317 293
f 206 186 216
f 107 115 146
f 14 18 16
f 280 231 284
f 1138 1131 1130
f 393 372 410
f 251 218 235
f 1042 1022 992
f 348 291 302
f 238 254 207
f 538 515 548
f 693 732 749
f 1056 1051 1028
f 274 290 254
f 481 458 483
f 985 933 968
f 414 352 388
f 346 321 362
f 1010 959 922
f 41 42 37
f 618 562 588
f 499 453 437
f 972 989 943
f 467 426 420
f 850 916 800
f 249 256 283
f 431 387 399
f 225 161 209
f 667 597 606
f 503 462 434
f 104 24 85
f 680 664 695
f 476 523 459
f 798 816 731
f 852 822 796
f 826 771 756
f 725 680 759
f 1007 1002 985
f 1147 1143 1006
f 369 395 319
f 1125 1120 1126
f 527 552 491
f 881 812 869
f 942 909 885
f 637 626 650
f 257 306 263
f 235 221 239
f 289 307 370
f 1055 1049 1051
f 1033 978 1032
f 925 897 915
f 883 831 860
f 303 243 246
f 1071 1061 1070
f 503 513 462
f 190 162 136
f 817 794 847
f 541 506 501
f 115 96 132
f 591 529 594
f 191 212 213
f 76 5 4
f 380 373 303
f 493 471 456
f 657 661 698
f 51 48 92
f 998 972 966
f 195 156 141
f 784 704 735
f 405 327 342
f 582 539 556
f 807 755 820
f 539 505 556
f 647 622 564
f 686 638 613
f 304 247 248
f 559 599 525
f 267 255 277
f 445 444 482
f 228 208 160
f 947 875 879
f 557 541 534
f 134 125 151
f 742 719 757
f 158 142 121
f 361 349 315
f 329 303 309
f 824 780 823
f 366 299 372
f 220 202 237
f 483 458 464
f 494 498 427
f 826 756 838
f 944 968 892
f 988 927 997
f 522 482 549
f 354 337 283
f 1093 1084 1091
f 864 847 809
f 549 542 585
f 989 955 943
f 236 248 205
f 14 16 11
f 956 927 988
f 858 825 784
f 676 648 629
f 474 414 472
f 639 601 628
f 634 585 643
f 901 877 932
f 33 36 31
f 983 905 956
f 655 705 718
f 1070 1061 1031
f 287 257 219
f 910 806 828
f 730 774 723
f 580 544 555
f 193 163 218
f 922 858 846
f 722 779 684
f 498 420 427
f 274 254 238
f 723 707 668
f 139 114 124
f 392 326 344
f 622 595 554
f 431 399 452
f 759 680 695
f 484 380 440
f 329 380 303
f 1120 1119 1126
f 743 646 708
f 1010 922 1000
f 281 260 267
f 1059 1060 1066
f 623 634 687
f 47 46 43
f 708 641 637
f 7 11 2
f 610 629 537
f 154 118 166
f 897 866 880
f 745 679 700
f 1121 1117 1122
f 1067 1063 1061
f 180 183 222
f 708 637 711
f 941 894 937
f 1126 1124 1130
f 130 169 93
f 306 257 287
f 64 60 62
f 160 164 127
f 514 468 463
f 958 918 895
f 341 262 340
f 571 530 522
f 616 550 568
f 378 313 289
f 897 886 867
f 561 606 551
f 236 205 184
f 575 592 535
f 876 851 911
f 472 413 448
f 383 359 402
f 520 492 488
f 375 415 369
f 965 949 881
f 163 146 182
f 733 699 717
f 723 763 707
f 872 822 852
f 786 772 810
f 248 185 205
f 1044 1142 1046
f 743 786 811
f 674 663 612
f 781 686 750
f 1087 1083 1081
f 640 666 645
f 486 450 497
f 289 255 220
f 806 816 798
f 470 452 496
f 783 758 749
f 132 96 126
f 1038 966 976
f 25 23 21
f 141 156 79
f 445 342 444
f 909 893 859
f 267 260 240
f 898 920 936
f 420 375 358
f 330 275 310
f 806 910 816
f 82 24 20
f 488 492 432
f 345 361 332
f 877 894 941
f 771 736 756
f 83 80 18
f 601 560 628
f 752 776 714
f 81 20 13
f 791 724 803
f 780 765 823
f 140 111 116
f 958 895 970
f 43 38 40
f 268 239 293
f 1122 1117 998
f 1137 1132 1127
f 515 485 477
f 1132 1123 1127
f 915 864 893
f 554 595 513
f 924 925 915
f 212 161 225
f 124 41 90
f 510 475 504
f 255 225 209
f 38 35 36
f 1035 1019 989
f 304 309 247
f 168 139 124
f 1013 1061 1029
f 1077 1068 1072
f 98 97 60
f 380 439 373
f 426 415 375
f 789 745 781
f 524 518 533
f 994 885 987
f 478 464 449
f 1024 1047 985
f 72 68 71
f 954 942 960
f 884 825 874
f 1104 1097 1102
f 1091 1017 996
f 125 154 171
f 264 214 199
f 217 152 196
f 1097 1094 1089
f 231 200 245
f 1092 1088 1096
f 183 193 219
f 541 501 534
f 945 935 948
f 953 896 930
f 3 7 2
f 49 47 40
f 401 341 382
f 858 808 846
f 816 747 731
f 122 102 107
f 207 162 190
f 709 662 682
f 485 421 419
f 718 705 704
f 281 267 308
f 252 173 208
f 213 137 191
f 1109 1103 1113
f 630 604 649
f 648 695 616
f 1116 1110 1111
f 174 120 137
f 1121 1114 1116
f 48 45 44
f 271 216 195
f 425 363 386
f 648 616 568
f 220 237 270
f 957 937 951
f 454 417 424
f 939 934 925
f 711 673 728
f 31 32 27
f 479 433 428
f 297 271 224
f 1044 952 932
f 545 523 476
f 173 252 184
f 202 171 166
f 808 735 760
f 679 651 700
f 535 493 467
f 790 801 712
f 396 336 383
f 34 33 29
f 820 755 773
f 780 750 689
f 124 174 181
f 435 476 416
f 752 714 659
f 76 3 75
f 1088 1087 1096
f 168 181 214
f 872 887 904
f 316 261 227
f 387 339 399
f 688 703 654
f 75 3 2
f 607 540 563
f 753 746 761
f 1144 1137 1140
f 996 955 1019
f 507 499 451
f 979 977 986
f 560 504 567
f 610 574 631
f 602 611 673
f 941 957 967
f 495 527 491
f 999 990 1036
f 821 878 778
f 868 940 946
f 357 285 303
f 632 678 618
f 857 782 804
f 272 251 288
f 512 517 454
f 628 567 636
f 100 98 60
f 1138 1135 1141
f 827 748 771
f 842 807 820
f 242 230 249
f 884 874 930
f 349 407 371
f 338 325 353
f 666 672 645
f 316 374 367
f 819 754 758
f 356 321 292
f 131 139 175
f 468 418 463
f 1018 981 1033
f 410 398 397
f 224 271 195
f 1088 1082 1083
f 1134 1127 1133
f 370 347 365
f 611 597 660
f 704 628 681
f 591 594 620
f 626 602 650
f 835 813 763
f 756 753 761
f 966 972 916
f 584 534 590
f 985 1002 908
f 231 192 200
f 843 767 801
f 343 310 271
f 828 806 779
f 990 950 905
f 991 1039 1125
f 447 405 445
f 239 210 234
f 837 741 791
f 197 142 185
f 160 127 110
f 73 71 69
f 198 176 165
f 256 226 260
f 661 649 693
f 719 660 692
f 1130 1124 1129
f 868 853 898
f 471 503 434
f 1037 1020 972
f 838 756 825
f 1052 1048 1009
f 234 170 204
f 316 302 261
f 871 829 886
f 78 13 10
f 267 240 255
f 90 88 120
f 663 668 619
f 573 566 593
f 143 155 106
f 392 360 408
f 931 928 900
f 70 106 67
f 182 146 159
f 594 529 497
f 497 541 557
f 584 557 534
f 1138 1130 1135
f 621 521 591
f 651 590 638
f 879 747 816
f 1007 1144 1143
f 837 791 901
f 66 68 64
f 314 281 308
f 307 312 347
f 309 246 247
f 1125 1126 1131
f 1082 1073 1083
f 803 721 768
f 761 704 784
f 1020 1035 989
f 1115 1109 1113
f 864 809 863
f 882 824 855
f 204 178 232
f 841 788 840
f 814 805 764
f 1135 1129 1132
f 342 401 444
f 76 4 3
f 137 128 191
f 372 299 337
f 458 397 464
f 931 890 905
f 1002 1045 982
f 691 665 710
f 171 154 166
f 504 474 472
f 504 472 544
f 1040 967 1021
f 490 457 475
f 565 564 471
f 595 570 513
f 829 810 839
f 785 737 748
f 777 703 688
f 334 381 304
f 453 435 407
f 57 55 53
f 870 833 776
f 1069 1064 1068
f 496 469 528
f 93 123 91
f 150 152 138
f 1111 1020 1037
f 1067 1061 1071
f 668 707 632
f 767 766 669
f 331 259 322
f 1005 1136 1142
f 1004 983 956
f 24 26 22
f 387 356 339
f 127 119 108
f 437 407 349
f 323 377 297
f 1061 1013 1031
f 710 683 734
f 833 751 776
f 351 328 324
f 448 384 396
f 787 828 779
f 1050 1009 1008
f 64 63 60
f 877 844 894
f 243 227 177
f 810 762 795
f 24 19 20
f 360 314 338
f 619 588 553
f 1038 1122 998
f 51 45 48
f 779 806 727
f 1070 1031 995
f 862 846 815
f 808 760 815
f 546 511 510
f 502 523 550
f 608 584 590
f 905 854 956
f 511 490 510
f 863 809 827
f 847 794 809
f 818 822 872
f 1015 1014 1074
f 912 833 917
f 913 870 845
f 338 308 325
f 563 519 605
f 307 296 312
f 839 795 817
f 1080 1076 1016
f 476 459 416
f 495 491 441
f 274 238 241
f 768 745 789
f 628 560 567
f 935 903 934
f 867 866 897
f 1045 1006 962
f 971 930 963
f 242 213 230
f 702 679 713
f 1142 1044 1005
f 221 159 210
f 896 884 930
f 492 455 432
f 811 786 829
f 508 465 500
f 1039 991 999
f 712 767 701
f 657 630 661
f 59 61 58
f 625 596 573
f 461 488 432
f 933 908 856
f 1144 1140 1143
f 1049 1003 1051
f 88 28 104
f 163 153 107
f 292 264 279
f 899 835 889
f 652 687 741
f 1084 1075 1079
f 825 858 874
f 860 814 842
f 1131 1126 1130
f 849 787 812
f 52 53 49
f 325 277 313
f 191 172 212
f 787 779 722
f 323 297 298
f 507 547 499
f 731 676 677
f 570 559 484
f 704 675 628
f 185 246 197
f 649 604 646
f 529 486 497
f 118 6 76
f 991 950 999
f 124 120 174
f 765 709 729
f 381 329 304
f 319 294 236
f 6 5 76
f 574 547 507
f 471 554 503
f 659 714 647
f 379 345 291
f 703 653 654
f 1025 1024 944
f 992 1022 912
f 1081 1078 1077
f 532 531 551
f 429 383 402
f 875 902 821
f 868 898 940
f 448 429 489
f 409 455 424
f 645 672 667
f 689 613 662
f 1076 995 1016
f 477 514 566
f 546 510 560
f 218 201 235
f 1034 1096 1101
f 867 839 866
f 680 617 664
f 587 546 560
f 575 535 498
f 353 325 313
f 246 243 197
f 881 849 812
f 305 273 263
f 197 243 177
f 1121 1116 1117
f 1091 1084 1085
f 855 823 831
f 857 804 834
f 558 498 494
f 789 832 851
f 866 817 847
f 475 414 474
f 743 708 786
f 1032 1074 1082
f 73 69 116
f 561 551 538
f 1046 952 1044
f 69 71 66
f 104 85 128
f 416 459 402
f 324 286 280
f 1057 1052 1050
f 263 273 228
f 376 343 297
f 1132 1129 1123
f 1005 1023 1136
f 324 280 284
f 691 710 782
f 802 803 768
f 592 635 565
f 757 719 740
f 548 561 538
f 709 682 729
f 26 25 22
f 162 147 83
f 40 38 36
f 769 845 752
f 704 681 735
f 962 912 917
f 1023 967 1040
f 509 472 448
f 409 424 374
f 845 776 752
f 261 233 215
f 621 591 633
f 435 416 377
f 316 367 302
f 545 550 523
f 1014 1066 1065
f 477 436 514
f 986 963 959
f 240 226 225
f 953 971 977
f 821 778 726
f 601 587 560
f 589 601 639
f 415 456 395
f 326 283 282
f 1100 1098 1103
f 599 520 525
f 400 364 351
f 419 378 390
f 19 22 21
f 715 752 659
f 1038 998 966
f 347 312 311
f 358 305 327
f 256 282 283
f 1021 967 991
f 201 221 235
f 589 587 601
f 728 742 762
f 1033 1032 1082
f 562 527 517
f 929 834 878
f 1064 1057 1062
f 602 577 611
f 528 539 582
f 722 684 656
f 566 514 526
f 525 520 488
f 1130 1129 1135
f 1009 958 1008
f 502 459 523
f 462 440 381
f 776 751 714
f 524 533 556
f 206 165 186
f 116 122 149
f 394 391 442
f 830 873 853
f 320 319 295
f 123 113 89
f 581 602 626
f 978 940 961
f 977 971 963
f 1146 1141 1144
f 458 410 397
f 1013 1029 980
f 1089 1084 1093
f 770 836 777
f 852 848 871
f 1018 1001 975
f 928 906 883
f 703 792 715
f 652 614 623
f 568 545 536
f 955 996 965
f 701 669 609
f 142 145 95
f 784 735 808
f 665 617 683
f 384 322 336
f 954 939 942
f 754 738 758
f 813 716 763
f 78 125 134
f 289 220 307
f 330 336 275
f 974 885 896
f 481 438 458
f 586 498 558
f 126 96 105
f 1080 1071 1076
f 869 812 813
f 891 843 801
f 872 852 887
f 396 383 429
f 276 315 274
f 921 834 929
f 21 18 14
f 676 629 610
f 715 659 653
f 107 101 115
f 964 923 910
f 263 228 223
f 1026 959 1010
f 265 266 194
f 831 814 860
f 342 341 401
f 276 241 217
f 426 456 415
f 93 46 50
f 957 931 950
f 44 39 42
f 196 152 150
f 732 697 743
f 678 656 618
f 619 553 583
f 288 251 262
f 590 607 638
f 81 78 134
f 652 615 614
f 749 732 783
f 662 605 642
f 1012 974 1011
f 687 634 643
f 673 660 719
f 556 533 581
f 45 40 44
f 77 10 6
f 470 425 431
f 1074 1065 1073
f 403 393 438
f 798 731 727
f 631 574 569
f 964 980 923
f 1115 1108 1109
f 185 158 155
f 250 188 242
f 25 21 22
f 201 182 159
f 1090 1081 1086
f 629 648 568
f 322 259 266
f 1016 995 949
f 151 171 202
f 355 301 300
f 100 60 63
f 125 77 103
f 1081 1077 1075
f 918 862 895
f 244 217 196
f 861 790 833
f 302 244 233
f 519 496 528
f 843 916 850
f 140 116 149
f 909 939 924
f 785 794 740
f 1098 1095 1094
f 951 928 931
f 240 225 255
f 1024 1144 1047
f 696 691 760
f 466 465 508
f 908 913 845
f 11 1 2
f 194 176 198
f 829 867 886
f 624 555 627
f 392 408 421
f 693 649 697
f 1011 979 1027
f 773 755 744
f 694 737 706
f 1003 970 973
f 967 957 991
f 604 528 603
f 646 641 708
f 143 106 119
f 792 769 715
f 1053 1010 1048
f 652 623 687
f 469 452 403
f 887 871 903
f 357 409 333
f 354 326 397
f 421 385 419
f 95 50 55
f 354 283 326
f 759 695 778
f 617 572 576
f 1099 1019 1105
f 286 234 280
f 1071 1070 1076
f 342 287 318
f 460 422 423
f 911 882 906
f 465 470 500
f 1113 1103 1106
f 497 443 506
f 655 675 705
f 777 688 770
f 665 624 627
f 770 688 739
f 806 798 727
f 412 382 411
f 1036 1108 1115
f 430 370 389
f 430 389 406
f 640 593 655
f 217 190 187
f 1050 1008 1049
f 744 717 738
f 1079 1067 1071
f 223 160 180
f 932 877 941
f 311 296 229
f 197 177 179
f 1034 1092 1096
f 772 762 810
f 224 147 207
f 1114 1107 1110
f 594 497 557
f 796 811 848
f 1098 1094 1097
f 851 824 882
f 477 419 436
f 123 89 91
f 1099 1093 1091
f 433 411 428
f 1036 983 1004
f 297 343 271
f 1040 1021 1131
f 1028 1051 993
f 660 667 692
f 670 595 622
f 1083 1078 1081
f 326 282 344
f 586 575 498
f 294 334 304
f 223 228 160
f 751 670 714
f 161 157 209
f 940 936 961
f 1058 1053 1052
f 306 305 263
f 136 83 84
f 1033 1082 1092
f 623 549 634
f 739 652 741
f 775 685 733
f 336 330 383
f 1118 1112 1114
f 1057 1054 1062
f 1105 1035 1020
f 655 593 589
f 9 4 5
f 813 812 716
f 701 609 658
f 270 237 229
f 832 781 797
f 308 267 325
f 944 892 865
f 809 785 748
f 961 954 960
f 192 178 175
f 227 261 215
f 417 446 379
f 365 311 352
f 1008 970 1003
f 581 533 577
f 291 278 244
f 320 295 208
f 866 847 880
f 223 222 257
f 30 33 31
f 420 426 375
f 465 442 470
f 930 874 963
f 505 481 483
f 674 730 663
f 290 298 254
f 401 382 412
f 855 831 883
f 929 878 969
f 987 1030 1059
f 782 710 734
f 168 124 181
f 491 507 460
f 818 758 783
f 914 837 901
f 572 543 502
f 764 775 814
f 931 900 890
f 1137 1127 1134
f 361 315 332
f 169 148 93
f 594 557 584
f 1085 1016 1017
f 57 60 55
f 984 1046 1025
f 93 91 38
f 332 315 276
f 520 553 455
f 436 390 418
f 44 40 39
f 271 269 216
f 392 344 360
f 166 118 144
f 102 65 107
f 273 320 208
f 994 987 1066
f 701 767 669
f 480 435 453
f 859 893 863
f 880 847 864
f 955 926 899
f 13 9 10
f 808 815 846
f 449 392 421
f 495 446 454
f 262 235 268
f 699 657 698
f 678 716 656
f 1061 1056 1029
f 9 12 8
f 1108 1034 1101
f 1099 1091 996
f 532 551 577
f 78 10 77
f 952 901 932
f 101 61 99

