# https://github.com/mikedh/trimesh
v -1.99566067 -1.99882075 -0.89704040
v -2.00022520 -1.99447378 -0.62036196
v -1.98761405 -2.00110039 -0.13903800
v -2.00555981 -1.92458614 -0.83487603
v -2.00253023 -1.84866377 -0.53380731
v -2.00674308 -1.95713183 -0.26075977
v -1.99838484 -1.82326826 -0.89482788
v -1.99807490 -1.78003642 -0.12293217
v -2.00333227 -1.72415325 -0.21300422
v -2.00313057 -1.47777244 -0.74254254
v -1.99929775 -1.41954013 -0.89831034
v -2.00233401 -1.16245666 -0.42119581
v -2.00060476 -1.12994697 -0.18765977
v -1.99760116 -1.08543822 -0.90258912
v -2.00255598 -0.92445066 -0.87602184
v -2.00259651 -0.70164519 -0.32422510
v -2.00231374 -0.61907315 -0.69663534
v -1.99942339 -0.54789625 -0.89331708
v -1.99705852 -0.57271762 -0.25066828
v -2.00240482 -0.16304512 -0.36131138
v -2.00198473 -0.16800570 -0.64502475
v -1.99146308 -0.18616166 -0.27904338
v -1.99972356 0.04819113 -0.89760527
v -2.00448884 0.36379180 -0.81992713
v -1.99805058 0.22034297 -0.32169405
v -2.00406350 0.61203471 -0.55399397
v -1.99823464 0.62737641 -0.89992634
v -2.00011958 0.62871299 -0.36809713
v -1.99838842 1.07222441 -0.89947889
v -2.00008501 1.03776852 -0.40964526
v -2.00240124 1.19994358 -0.52378002
v -2.00711120 1.26101843 -0.84366724
v -2.00062932 1.42100302 -0.45262298
v -2.00545014 1.58108130 -0.61223385
v -1.99838270 1.60472826 -0.89921376
v -1.99558056 1.83038989 -0.48077339
v -2.00717844 1.93021098 -0.75218591
v -1.97929610 1.99496547 -0.89427087
v -1.99340976 1.98831383 -0.49770424
v -1.99501194 2.00192801 -0.65458075
v -1.81706549 -2.00201878 -0.68543664
v -1.94233967 -1.51227566 -0.13575035
v -1.93267966 -1.68475076 -0.90355191
v -1.69490970 -1.22118094 -0.90214637
v -1.75446571 -1.17776605 -0.14276411
v -1.88242162 -0.60723564 -0.21871339
v -1.80023075 -0.76444500 -0.90554592
v -1.87424708 0.01659096 -0.90279428
v -1.80705834 0.16311702 -0.28499878
v -1.91500140 0.32064978 -0.90507964
v -1.89108015 0.50369326 -0.33110279
v -1.90307344 1.02764252 -0.38608247
v -1.87034167 0.87980381 -0.90212307
v -1.94979323 1.53299216 -0.44291887
v -1.74877823 1.58936707 -0.90262828
v -1.94652153 1.92182652 -0.90887103
v -1.65832044 2.00229255 -0.76175902
v -1.89883877 -1.99892422 -0.89989666
v -1.95786286 -1.99539968 -0.09058193
v -1.95310439 -1.97582945 -0.89299181
v -1.99792088 -1.96522292 -0.71609125
v -1.99528445 -1.97782918 -0.39805180
v -1.98564304 -1.96072909 -0.13648550
v -1.56941296 -1.83893510 -0.04898539
v -1.99911679 -1.77189454 -0.44883520
v -1.99498452 -1.83645090 -0.88286671
v -1.99535931 -1.76278004 -0.13943446
v -1.99768961 -1.51747426 -0.80812005
v -1.92349506 -1.65227744 -0.12578245
v -1.99920047 -1.47535368 -0.38526038
v -1.99574722 -1.40546807 -0.17125899
v -1.97255720 -1.62653872 -0.13771657
v -1.97612775 -1.52922067 -0.89618603
v -1.99490536 -1.25931361 -0.86730275
v -1.99853481 -1.16330322 -0.56810668
v -1.99734844 -1.18676921 -0.23124370
v -1.96880413 -1.15001228 -0.89308283
v -1.97767962 -1.07468959 -0.19347075
v -1.99873031 -0.80641004 -0.38998750
v -1.99656046 -0.97903654 -0.86421934
v -1.99862994 -0.76410105 -0.73571816
v -1.99484719 -0.73663476 -0.24226435
v -1.99428977 -0.83035138 -0.86570314
v -1.99751032 -0.55261530 -0.73742220
v -1.98144806 -0.38603257 -0.89234868
v -1.87694515 -0.46013290 -0.90355668
v -1.99836529 -0.36557637 -0.46978286
v -1.98605264 -0.27968779 -0.27435714
v -1.99629153 -0.16640336 -0.82011620
v -1.80967821 -0.19474372 -0.24936098
v -1.98684753 -0.12267775 -0.89364019
v -1.99878586 -0.00732553 -0.41153205
v -1.99855436 0.01829100 -0.60817269
v -1.98307408 0.15142468 -0.89499471
v -1.97716774 0.15976206 -0.31601489
v -1.99830521 0.23423455 -0.76771865
v -1.99808825 0.42326495 -0.45992291
v -1.99337066 0.37245283 -0.34945289
v -1.99492467 0.55771730 -0.88302908
v -1.99785889 0.60383776 -0.69854412
v -1.59355296 0.55848667 -0.90202931
v -1.87591959 0.71833328 -0.35478843
v -1.98849715 0.72113398 -0.37851218
v -1.99842228 0.80719975 -0.49002040
v -1.99738349 0.95729950 -0.75478384
v -1.99473585 0.89615026 -0.87957493
v -1.99631632 0.98315886 -0.40939203
v -1.99519194 1.23873702 -0.88024345
v -1.99683894 1.27128545 -0.44492343
v -1.99912060 1.49372557 -0.73026100
v -1.99471582 1.63828949 -0.47714487
v -1.93983699 1.44690350 -0.43804893
v -1.99470819 1.66391006 -0.88124362
v -1.88657023 1.65843431 -0.45102850
v -1.99885977 1.84896246 -0.73940263
v -1.99160279 1.95283285 -0.52039281
v -1.97752346 1.95869533 -0.89232186
v -1.99294032 1.97722689 -0.72019539
v -1.82157374 -1.99810823 -0.66680453
v -1.92876352 -1.99529692 -0.17841930
v -1.82425452 -1.90864965 -0.89886621
v -1.91974259 -1.87921950 -0.10560178
v -1.85689391 -1.26806983 -0.15341072
v -1.87876738 -0.69802323 -0.21439119
v -1.80310560 -0.30372867 -0.24114876
v -1.87686873 -0.11875368 -0.89872757
v -1.83777572 0.17466107 -0.29501728
v -1.90846849 0.37548885 -0.89751891
v -1.84467066 0.70489756 -0.89691756
v -1.89177478 0.97783199 -0.89767263
v -1.89879955 1.10196653 -0.39692325
v -1.92586709 1.51775208 -0.89642790
v -1.66852380 1.79830924 -0.89752213
v -1.93427063 1.85135356 -0.47712094
v -1.70096923 1.96667520 -0.44851360
v -1.88735558 1.97807947 -0.89468542
v -1.85428906 -1.99802574 -0.33420557
v -1.80153884 -1.31573870 -0.89726463
v -1.67691577 -0.98467770 -0.15490985
v -1.88043870 -0.86620280 -0.89033446
v -1.84359766 -0.56541125 -0.89764867
v -1.73758412 0.19940904 -0.89867345
v -1.63122130 0.64885226 -0.30746082
v -1.71420659 1.39617589 -0.89861575
v -1.88159324 1.97612539 -0.48658321
v -1.68992067 1.99813095 -0.68617937
v -1.79638101 2.00087539 -0.47816515
v -1.62166430 -2.00285062 -0.14441371
v -1.87854827 -1.98236760 -0.09071140
v -1.74634875 -1.61619135 -0.89895621
v -1.71866382 1.77592770 -0.43299276
v -1.70022882 1.40440753 -0.39358378
v -1.83398534 2.00068298 -0.90096584
v -1.66976417 1.33990541 -0.38646466
v -1.63217259 1.84301153 -0.43040109
v -1.60531736 -1.99615535 -0.04198796
v -1.68390609 -1.73041173 -0.08079956
v -1.66227604 -1.92992743 -0.90494982
v -1.58700217 -0.74840676 -0.16121450
v -1.65147914 -0.22871594 -0.89837352
v -1.57850720 0.61912349 -0.30052534
v -1.45820058 -1.72485396 -0.90222142
v -1.50090076 -1.97650298 -0.89464561
v -1.75935281 -1.99569150 -0.11665380
v -1.63531185 -0.88188228 -0.89797691
v -1.52683509 -1.99870953 -0.21277511
v -1.52312017 -0.65325403 -0.16507580
v -1.62517978 0.43115536 -0.89823279
v -1.60461951 -1.98182079 -0.04683258
v -1.53095139 -0.41667560 -0.90199575
v -1.55553318 1.06240920 -0.89806685
v -1.48634721 1.20529500 -0.90184448
v -1.60925211 -1.36693689 -0.10605675
v -1.50264836 -0.25526944 -0.20154356
v -1.53133739 -1.99974987 -0.89493540
v -1.40747119 -0.89860001 -0.90182957
v -1.52611710 0.22390464 -0.25326731
v -1.54439272 1.98440591 -0.89592663
v -1.47030140 1.97653547 -0.42076055
v -1.44860209 1.99812094 -0.89999584
v -1.51299919 -1.99827763 -0.61526952
v -1.48778809 0.01128784 -0.22224959
v -1.41160465 1.02984968 -0.31268779
v -1.36237861 -0.35902937 -0.16611168
v -1.43525673 -1.79433593 -0.89852181
v -1.45942033 0.10957837 -0.90187201
v -1.52780856 -0.50870365 -0.89819160
v -1.40990115 0.65444258 -0.89815334
v -1.19529904 2.00219885 -0.49994204
v -1.43291927 0.33999816 -0.24708031
v -1.49889649 0.96841112 -0.32349387
v -1.24173869 -1.67501387 -0.01578029
v -1.40921117 -1.45307991 -0.89802364
v -1.45813657 0.00796819 -0.89800719
v -1.36565925 1.99771229 -0.53403518
v -1.38326074 1.56857351 -0.89812592
v -1.35218550 1.49348167 -0.35037813
v -1.36287058 -1.69308313 -0.03615259
v -1.26952196 -1.45813748 -0.90182159
v -1.42305542 -1.17034045 -0.89825437
v -1.34880746 0.84313658 -0.90188465
v -1.29084648 -2.00184807 -0.69862590
v -1.32728697 -0.72000196 -0.89813933
v -1.23818887 1.08384434 -0.29606283
v -1.33626903 1.99589005 -0.40014574
v -1.31498993 -1.93754360 -0.90436909
v -1.42138160 -1.09729322 -0.10206914
v -1.28404869 -0.31058216 -0.89798960
v -1.20564092 1.50731543 -0.33375562
v -1.30423904 1.82968250 -0.37954474
v -1.24776889 -0.10560542 -0.90185079
v -1.28581060 0.19203708 -0.89806846
v -1.31399752 1.84762088 -0.37878827
v -1.30591525 1.93944779 -0.90527073
v -1.43883146 -1.01814386 -0.11819478
v -1.22502543 1.64281181 -0.90188608
v -1.35691298 1.99763099 -0.80047700
v -1.26642359 -1.99762889 -0.73548648
v -1.37120749 -1.99137994 -0.02318857
v -1.21424128 -2.00231441 -0.29704985
v -1.28786207 -1.99832257 -0.42101187
v -1.36551870 -1.31022104 -0.07722024
v -1.35472430 -0.80660116 -0.12227592
v -1.38178505 -0.82397818 -0.12837496
v -1.26620925 0.18024919 -0.20963118
v -1.21385253 -1.15780875 -0.90199533
v -1.32086624 -1.34795740 -0.06260790
v -1.26689352 -0.92668405 -0.18292764
v -1.20324660 -1.00863620 -0.89803121
v -1.27649702 -1.14849099 -0.17730813
v -1.22441352 -0.41006700 -0.14512277
v -1.11008955 0.92182401 -0.89804849
v -1.29361023 -0.90593144 -0.17838392
v -1.00231589 1.68646947 -0.89797309
v -1.19968236 -1.17915186 -0.18423538
v -1.14514006 0.34923497 -0.90197894
v -1.12798406 0.64852950 -0.23616946
v -0.97468842 1.23589555 -0.90192977
v -1.22560919 1.88187185 -0.89861474
v -1.27124835 -1.99366817 0.00874838
v -1.16789115 -1.99892804 -0.11118201
v -1.03612424 -1.53374323 -0.89808342
v -1.17457582 -1.32943794 -0.14485519
v -1.18815220 -0.59956571 -0.12212776
v -1.15045072 -2.00445601 -0.01090592
v -1.13384594 -1.92392608 0.01839028
v -1.09277905 0.01322931 -0.16303313
v -1.12961544 -0.13836975 -0.89799121
v -1.07550109 0.50923518 -0.89813576
v -1.10621632 0.65861753 -0.23001704
v -1.18360020 1.98321334 -0.38064927
v -1.12211669 -1.97544106 -0.89578310
v -1.17531372 -0.78158894 -0.19013566
v -1.21232141 1.99421850 -0.87450090
v -1.03254772 2.00263325 -0.77451548
v -1.03535904 1.30401317 -0.89806381
v -1.19188620 -1.49932322 -0.03319672
v -1.14014114 -1.24608662 -0.89808998
v -1.09464897 -0.51343929 -0.11287716
v -1.07234491 -0.18819905 -0.14357837
v -1.04024364 0.30508170 -0.18370535
v -0.79282219 -1.82303831 -0.90236470
v -1.07849277 -1.40182384 -0.10582890
v -0.95510841 0.97351066 -0.23893917
v -1.09053398 -0.98020544 -0.24483908
v -1.08665467 1.62876311 -0.32406417
v -1.12198163 -1.99491843 0.03277027
v -0.96082206 -1.99801847 -0.55797699
v -0.93279995 -1.99628815 0.03813087
v -1.09192313 -1.51426491 -0.01083487
v -1.04132367 -0.82752159 -0.90191695
v -1.00062896 -0.35254566 -0.90179256
v -1.04001797 1.99868408 -0.73829595
v -0.95399244 -2.00018069 -0.89653138
v -0.99429275 -1.67497894 0.01506808
v -1.05736066 -0.72664484 -0.89801976
v -0.89524026 0.85272006 -0.90186397
v -0.95407237 1.99919287 -0.34547222
v -0.97328509 0.21933648 -0.16947176
v -1.04030574 1.97979847 -0.89589683
v -1.13092698 1.99600783 -0.42288542
v -0.99174417 -1.99735257 -0.82841149
v -0.91160787 -1.85204133 -0.89782593
v -1.05419041 -1.44003233 -0.09285181
v -1.04585398 -1.18419435 -0.22851700
v -1.01670159 1.29422537 -0.28018123
v -1.01442612 -0.56553948 -0.16341982
v -0.84852613 -0.53660233 -0.19318182
v -0.89773060 1.09997204 -0.24685021
v -0.99363519 1.84402195 -0.33540827
v -0.95778323 1.99431745 -0.90063027
v -0.92613787 -0.01206976 -0.89805153
v -0.86262603 1.91277615 -0.90392295
v -0.82412560 1.99859611 -0.51469162
v -0.95314796 -1.25396743 -0.19067921
v -1.00193883 -0.97798016 -0.23804774
v -0.65853704 -2.00273427 -0.77899114
v -0.84485264 -0.54252451 -0.89798597
v -0.91121490 -0.22224618 -0.11128698
v -0.81441529 1.77914063 -0.29730040
v -0.84320475 -1.35674855 -0.90193990
v -0.75438918 -0.26138337 -0.89797452
v -0.52073122 -2.00203856 -0.27817569
v -0.84725238 -1.99870583 -0.17749334
v -0.85658784 -1.30225435 -0.17245734
v -0.86978836 -0.66907060 -0.23180159
v -0.96996147 -1.99684056 0.05209264
v -0.87723405 0.05564055 -0.90192816
v -0.84109820 0.26439056 -0.89810691
v -0.74382711 2.00297442 -0.54181561
v -0.87146551 -1.55033299 0.01711252
v -0.57803477 1.99606386 -0.30425623
v -0.83881469 -1.95184692 0.07104036
v -0.84041859 -1.15166738 -0.89816055
v -0.76980431 -1.00738862 -0.21665854
v -0.86462421 -1.07095006 -0.24130428
v -0.75085295 -0.17185782 -0.10045801
v -0.83721841 -1.45151671 -0.06533083
v -0.63852448 -0.99121323 -0.90199444
v -0.75124295 0.48103205 -0.90195117
v -0.73391284 1.29333750 -0.23739085
v -0.79160697 1.42856053 -0.26339791
v -0.75326521 1.67556897 -0.90163795
v -0.78380347 1.99515930 -0.87989065
v -0.81110794 -2.00220403 0.06445081
v -0.45629571 -1.61812409 0.09617880
v -0.88288350 -1.53593441 0.01753922
v -0.73050411 -1.34908792 -0.07303661
v -0.73341377 -0.52864590 -0.90184364
v -0.83010084 -0.26425467 -0.09938760
v -0.70969410 1.07470432 -0.89812127
v -0.65703810 -0.65909785 -0.23754235
v -0.82523365 0.65021173 -0.19652453
v -0.68763031 0.84161047 -0.19785120
v -0.74388231 1.91739455 -0.89520124
v -0.82301796 0.43395362 -0.17266944
v -0.78275091 0.66387108 -0.18858588
v -0.71938516 0.63027963 -0.89809278
v -0.71448905 1.50717977 -0.89798406
v -0.69212330 1.82679716 -0.28906280
v -0.59735281 -1.99883040 -0.67590467
v -0.70220114 -1.64485928 -0.89842710
v -0.76213552 -1.99558994 -0.88238302
v -0.72221906 -0.91267773 -0.89811638
v -0.63572533 -0.60909551 -0.22438112
v -0.48433680 1.99916259 -0.55551622
v -0.66734977 -1.72853538 0.07101661
v -0.65243317 -0.21642699 -0.15029605
v -0.60901911 -0.23729513 -0.90185115
v -0.71912361 0.05007226 -0.10784971
v -0.62295837 -1.44401738 0.05243024
v -0.55496360 0.16009114 -0.90185848
v -0.70209987 0.31131354 -0.13955447
v -0.58257742 -1.27891102 -0.04679846
v -0.59600181 0.06424010 -0.89801357
v -0.67093302 -1.48415014 0.04225867
v -0.64581020 -1.28038868 -0.89811656
v -0.55154110 -0.94462064 -0.18427270
v -0.58140046 0.41515807 -0.18977248
v -0.50667478 1.07655755 -0.18541174
v -0.41502349 -1.98809775 0.13875979
v -0.62734712 -1.99817451 -0.35481111
v -0.67493970 0.20097474 -0.12708446
v -0.70706422 -1.99822232 0.02574579
v -0.39814041 0.32016912 -0.18836514
v -0.50224633 0.91823629 -0.16005984
v -0.43351827 1.48088041 -0.21511676
v -0.61017425 2.00172463 -0.87982068
v -0.48991365 -1.99800834 -0.07599950
v -0.69687171 -1.99726256 0.07067822
v -0.40859921 -0.24491790 -0.20713604
v -0.60313780 -1.98101720 0.10274474
v -0.48565365 -0.73245638 -0.89814327
v -0.36099453 -0.46312846 -0.89809171
v -0.58421619 0.63493953 -0.19918250
v -0.46395845 1.44564155 -0.90181384
v -0.52869059 1.99966041 -0.27910868
v -0.46446864 -1.99813208 -0.89912901
v -0.47344525 -1.99518296 -0.88029251
v -0.39860062 -1.53129872 -0.90192876
v -0.31944762 -0.98831257 -0.04256336
v -0.54193623 -0.09255400 -0.13322758
v -0.57873989 0.00555891 -0.09008923
v -0.57581914 0.68240944 -0.18642135
v -0.40043114 1.05411330 -0.90198192
v -0.33780153 -2.00205406 0.07045417
v -0.63302762 -1.99514636 0.07853596
v -0.49538840 -1.85612103 -0.89773402
v -0.26879413 -0.67298507 -0.15650191
v -0.46183152 0.41443578 -0.89807883
v -0.53360684 0.17635391 -0.14159918
v -0.41291601 0.85631982 -0.89807532
v -0.49313624 1.80399314 -0.25236197
v -0.52905197 1.99751082 -0.87563900
v -0.37576858 2.00383941 -0.80639199
v -0.47036959 -1.30187139 0.05520778
v -0.40312616 0.67548409 -0.17435015
v -0.40281708 1.37491897 -0.19601238
v -0.38831619 -1.80280992 0.12075764
v -0.40599890 -1.46720263 -0.89803526
v -0.37700913 -0.47250771 -0.90197406
v -0.41390182 0.14632497 -0.17655847
v -0.25785289 1.46945909 -0.89801547
v -0.33348868 1.83045951 -0.89786563
v -0.37549383 1.87438193 -0.90231201
v -0.56976057 -1.99430307 0.08773754
v -0.35379128 -1.52261552 0.09794885
v -0.53333945 0.02701816 -0.11098501
v -0.31792806 2.00244943 -0.45073298
v -0.33732838 0.69661525 -0.90185824
v -0.36887376 0.75088433 -0.13792026
v -0.35961185 -1.99824783 -0.35829094
v -0.43122188 -1.96721705 0.12788686
v -0.33957134 -0.79426399 -0.90193978
v -0.30796830 0.82325367 -0.13738934
v -0.51076956 -1.98985979 0.11010761
v -0.28427399 -1.10221251 0.06815143
v -0.29631580 -1.00141737 -0.89806649
v -0.26807536 -0.15975046 -0.89805231
v -0.31428359 -0.00664392 -0.17812467
v -0.32901777 0.44069192 -0.19853644
v -0.34868322 -0.17480546 -0.19611711
v -0.29073594 1.84151474 -0.22934586
v -0.28962324 -1.99810072 0.03765674
v -0.26862408 -0.12212222 -0.90190420
v -0.23293672 0.54584876 -0.89807359
v -0.13214316 0.15701053 -0.89811024
v -0.19157084 0.38103268 -0.90194050
v -0.22614006 1.59843877 -0.19176071
v -0.15565457 1.99686185 -0.89992556
v -0.22032542 -1.18275240 0.08261872
v -0.16084614 -1.18199154 -0.90186856
v -0.15292696 -0.79597893 -0.05545165
v -0.28596465 -0.42464477 -0.21227824
v -0.22254602 1.10479752 -0.89814565
v -0.32674370 0.02408362 -0.16312912
v -0.18835774 -1.86718496 -0.90237853
v -0.32989771 0.53166125 -0.17768231
v -0.14440634 1.99448029 -0.87637708
v -0.20553664 -1.99825224 -0.74159459
v -0.23561401 -1.84191009 -0.89845822
v -0.18735055 -0.56966011 -0.16699516
v 0.00161469 1.99857775 -0.72965393
v -0.21953436 0.19779775 -0.20561049
v -0.15938003 -1.98115417 0.16849273
v -0.23045401 -1.03548190 0.05704644
v -0.23752082 -0.35453687 -0.20466549
v -0.11308774 1.21252516 -0.13620882
v -0.01744851 1.78090278 -0.90224180
v -0.08872713 -1.99824878 -0.21808705
v -0.10849677 -0.76538264 -0.89809701
v -0.03331331 1.16851643 -0.12369625
v -0.00214600 1.85443393 -0.18255575
v -0.08266211 -2.00078031 -0.89594528
v 0.00513919 -2.00222000 -0.62894842
v -0.12814988 -1.40867981 -0.89806602
v -0.13190932 0.50726924 -0.14072123
v -0.12575715 0.67656055 -0.09281133
v -0.03134899 0.94329265 -0.09695319
v -0.08613660 1.31889394 -0.90183834
v -0.05234786 -1.85288593 0.18006512
v -0.08433298 0.22049806 -0.18642311
v -0.12619516 0.53033647 -0.13924152
v -0.04544605 -1.99693104 -0.87315467
v -0.08809085 -1.81375548 0.16694775
v 0.01750074 -1.99837467 -0.48397127
v 0.14436179 -1.30570390 0.15481397
v -0.08671581 0.66604665 -0.08034972
v -0.03217049 1.97991220 -0.20774378
v -0.15364329 -1.99400553 0.17394489
v 0.11079679 -1.50070724 -0.90189985
v 0.18754423 0.89658001 -0.90196416
v 0.15227756 1.77697674 -0.15651481
v 0.00624776 -1.99805399 0.07759424
v 0.05967134 -0.65709731 -0.90193722
v 0.01439870 -0.23830168 -0.89807806
v -0.09927651 -0.12482704 -0.19317547
v -0.05363579 -1.41666707 0.13231967
v 0.09425086 0.85068468 -0.89809981
v -0.05459307 1.99908224 -0.21001739
v 0.04292276 -1.67765483 -0.89825043
v -0.03753930 0.23787263 -0.18845885
v 0.04932197 1.99776546 -0.34666705
v 0.26417465 -2.00201437 -0.14642422
v 0.13143342 -1.91828760 -0.89648423
v 0.04242465 -0.97812798 -0.90185669
v 0.02178534 -0.30128493 -0.90191910
v 0.09563192 0.80171457 -0.06849305
v 0.01946860 2.00257746 -0.78568694
v -0.02414134 -0.12937368 -0.20557094
v 0.16002855 -1.32058516 0.15475723
v 0.04299109 -1.05213818 -0.89797995
v 0.01362010 -0.97531375 0.09552146
v -0.00062884 -0.31884607 -0.16240628
v 0.16952685 0.22069124 -0.90201012
v 0.11890468 1.50273565 -0.13037514
v 0.13343762 -1.99806317 -0.70567951
v 0.19170964 -0.17532085 -0.19088750
v 0.05148807 0.43717274 -0.89822200
v 0.08376346 1.70171085 -0.89845196
v 0.15484496 -2.00172945 0.18965844
v 0.01194798 -1.98977372 0.20214475
v 0.18058336 -1.68447360 0.19449253
v -0.02954716 -0.85424366 0.07438258
v 0.00370163 0.37399879 -0.14393433
v 0.14313403 2.00289002 -0.30533201
v 0.19500138 -1.34634784 -0.89793888
v -0.00019290 -0.80534276 0.07847047
v 0.18463360 -0.63762131 -0.89806614
v 0.00366161 -0.42544454 -0.14570977
v 0.02739658 0.58696321 -0.06068023
v 0.20841204 1.24037794 -0.89807818
v 0.18164829 2.00198260 -0.56558666
v 0.02293856 -0.72681266 0.00012873
v 0.01032139 0.38577637 -0.14602259
v 0.01631463 -0.59801541 -0.05674843
v 0.03556921 0.56531170 -0.07991299
v 0.24666042 -1.99817869 -0.17611847
v 0.28589206 1.31951383 -0.90196965
v 0.29724153 1.97005144 -0.89664832
v 0.27708105 -1.13934442 0.15550270
v 0.06378428 -0.88813212 0.09210758
v 0.29795181 -0.45124837 -0.19569452
v 0.30603968 0.65820495 -0.12218617
v 0.21370513 -0.92246469 0.02360955
v 0.28426351 -0.88554719 -0.05755043
v 0.21530849 -0.63476041 -0.13866389
v 0.22698996 -0.45879341 -0.17537119
v 0.30212571 0.41465494 -0.17849052
v 0.41029655 0.69484309 -0.14470522
v 0.30848991 1.98949042 -0.90030524
v 0.48144641 -0.92289784 -0.12030361
v 0.16324637 0.33062157 -0.17238714
v 0.26695943 -1.04725328 0.06845274
v 0.26459583 -0.05253687 -0.19187057
v 0.25620115 0.06505686 -0.16797941
v 0.20597753 0.76196185 -0.05802812
v 0.29569643 0.87384859 -0.04086423
v 0.13252185 -1.98611709 0.22102944
v 0.19989293 -1.98253271 0.22480195
v 0.51918795 -1.87446233 -0.90249309
v 0.27271204 -1.26875147 -0.90180716
v 0.42068477 -0.36709414 -0.90185747
v 0.33521291 1.50822679 -0.89824859
v 0.36353843 0.26611880 -0.89811930
v 0.28579341 -1.17306694 0.15660679
v 0.24880323 -0.01121091 -0.89815638
v 0.38887217 0.58436612 -0.89807561
v 0.30592885 1.21856812 -0.07780334
v 0.44479250 2.00090328 -0.13422140
v 0.34880244 -2.00119909 -0.89439759
v 0.44229030 -1.99572977 -0.87469533
v 0.39763235 -0.93812796 -0.90192649
v 0.41212167 -1.99828300 -0.50053025
v 0.46108135 -1.88009461 0.25432601
v 0.40533592 0.29430339 -0.18032985
v 0.28687384 -1.98607513 0.24667492
v 0.40109919 -0.01835793 -0.90194783
v 0.48811050 1.38623539 -0.06322933
v 0.36307835 1.80311671 -0.90225706
v 0.50450744 -1.99789390 -0.74556050
v 0.32692434 -1.99736794 0.15804825
v 0.32188602 -0.95820441 -0.89802561
v 0.45723318 -0.27910802 -0.89800218
v 0.54723131 1.99780527 -0.22547990
v 0.50944417 0.58587739 -0.90186105
v 0.31266834 1.98522535 -0.15611343
v 0.42308037 -1.67607602 -0.89844647
v 0.50233014 0.48376540 -0.17134160
v 0.56279146 1.48329786 -0.06556129
v 0.46948837 1.99814430 -0.49690351
v 0.41608315 -2.00087770 0.26099914
v 0.36549466 1.67813889 -0.11082398
v 0.52604186 -0.57497394 -0.89809659
v 0.63556193 -0.57439699 -0.19970468
v 0.51511314 1.05585388 -0.04255282
v 0.53647756 0.98944953 -0.89806667
v 0.58006792 0.98255197 -0.10375508
v 0.66982554 1.76278368 -0.89866856
v 0.57689022 2.00210229 -0.82283208
v 0.51911907 2.00193015 -0.38595373
v 0.52703555 -1.67517396 0.24541741
v 0.48283871 0.17227516 -0.14068973
v 0.68460809 -2.00204357 -0.59582040
v 0.53823422 -1.27009788 -0.89798126
v 0.54799216 -0.44003979 -0.18867562
v 0.49235343 -0.01124557 -0.12332872
v 0.66646712 1.85680715 -0.08168874
v 0.57380419 1.99811641 -0.76807025
v 0.54630857 0.02572149 -0.89808843
v 0.60686063 1.01426593 -0.90189782
v 0.55458151 1.91963545 -0.11054412
v 0.55802487 -1.99824926 -0.09831793
v 0.52472957 -1.71555146 0.25425017
v 0.66241692 -1.30118206 -0.90186814
v 0.53995465 -0.16470202 -0.13787294
v 0.49738022 -1.88976869 -0.89741210
v 0.51879375 1.06953076 -0.04653806
v 0.58516454 -1.28935662 0.01836818
v 0.61407857 -0.99902805 -0.14706311
v 0.50843283 1.98565141 -0.13063541
v 0.71659743 -0.62926119 -0.90194378
v 0.49862092 0.01157028 -0.09511223
v 0.75766676 1.83045712 -0.90262464
v 0.57267039 -1.33752396 0.05379631
v 0.66711300 -0.87878480 -0.17735744
v 0.62120753 -1.97821137 0.28319382
v 0.55050223 -1.48536595 0.22641351
v 0.59781980 -0.88321975 -0.89813409
v 0.71290492 0.78543035 -0.16575383
v 0.71348845 -0.34217508 -0.14956092
v 0.71421265 0.29387060 -0.11677676
v 0.61653696 1.46993390 -0.90200916
v 0.62876510 -1.99567565 0.16394616
v 0.67930238 -1.98250791 0.29949623
v 0.74918782 -1.60279330 -0.89830628
v 0.74138640 1.33076087 -0.89804176
v 0.82610946 1.97642485 -0.89498058
v 0.88525497 -2.00050684 -0.89666239
v 0.80002235 -2.00395569 0.19122509
v 0.78915065 -1.99826607 -0.38953242
v 0.83014821 -0.17054392 -0.90190390
v 0.68292873 0.19122771 -0.07407024
v 0.73078852 0.76880089 -0.89803788
v 0.70445274 -1.48642715 0.08698354
v 0.68652504 -1.57381245 0.25811156
v 0.86489426 -0.28231524 -0.06069554
v 0.66545658 1.97635141 -0.90124658
v 0.89432042 -0.94968673 -0.90196106
v 0.79023479 0.32598469 -0.89799926
v 0.72918098 0.22148815 -0.90188012
v 0.71042698 -1.27142700 -0.08019157
v 0.79296415 -0.29973621 -0.89804635
v 0.66118663 -0.00833338 -0.02825559
v 0.69084321 0.01482866 0.01342276
v 0.83633273 0.62102148 -0.14195564
v 0.89682566 -1.85949155 0.32379308
v 0.77985000 -1.49314937 0.07333894
v 0.72216319 0.09948820 -0.02768054
v 0.92488729 1.76473466 -0.03963811
v 0.86210655 2.00248900 -0.22925543
v 0.67122798 -1.87230023 -0.89861766
v 0.73078572 0.96344141 -0.12787614
v 0.80067210 -0.91272947 -0.19935957
v 0.84258782 -0.25148635 -0.06200341
v 0.74881094 1.32651058 -0.01767306
v 0.91201477 -1.85686037 0.32000968
v 0.89028083 -0.60397195 -0.89807305
v 0.92942672 -0.84678551 -0.19234819
v 0.83946799 0.58914790 -0.14392905
v 0.80516194 1.99462238 -0.09233396
v 0.84076755 -1.99824556 -0.07752278
v 0.74491387 -1.63442251 0.26941129
v 0.95372467 -1.99754223 -0.71070412
v 0.77064322 1.32473031 -0.02903644
v 0.88145869 -1.98015996 -0.89371410
v 0.85807215 -0.97866633 -0.89808718
v 0.99482935 0.27102694 0.06373908
v 0.94541775 1.12523070 -0.90185073
v 0.98014777 1.99828163 -0.05574985
v 0.84692441 -1.99700662 -0.83096114
v 1.02517425 -1.40802070 -0.89801100
v 0.89693933 -0.53598459 -0.14689128
v 0.93734377 0.82656554 -0.15627939
v 0.89595114 0.91112271 -0.14831804
v 0.90663778 1.59607688 -0.02168764
v 0.94220673 -1.85587880 -0.90272817
v 0.86228274 -1.58809849 0.14158041
v 0.92171972 -1.51538035 -0.90198925
v 0.91180932 -1.99770471 0.22628943
v 0.86241584 -1.38686821 -0.07363527
v 0.91358911 -1.20524361 -0.16667071
v 1.01370018 -0.24056344 0.06635715
v 0.98611217 0.40101686 -0.90183369
v 1.01461916 1.51552049 -0.90199408
v 0.99229818 2.00198475 -0.55802015
v 1.00562685 -1.85869667 -0.89884255
v 0.92568110 -1.29158488 -0.12080087
v 0.81901603 0.02666900 0.09740074
v 0.88514285 1.07747320 -0.89800856
v 0.84196269 1.21833066 -0.08618021
v 0.93257826 1.99818316 -0.69257966
v 1.21885239 -2.00224742 -0.65719757
v 0.98014455 -1.61467680 0.19497971
v 1.02135562 0.28925667 0.05876170
v 0.92394655 1.25616518 -0.09960479
v 0.98231511 -2.00203153 -0.12124361
v 0.92099576 -1.98854538 0.32026755
v 1.00238245 0.04726780 -0.89804796
v 0.83175211 0.02633867 0.11969819
v 1.09483980 -0.33741618 0.06174939
v 0.89756130 -0.06122487 0.12904834
v 0.98590272 0.74596146 -0.90183410
v 0.94158607 1.41567555 -0.00642555
v 0.99984096 -0.01982355 0.15403644
v 1.10495781 0.28660658 0.13654738
v 1.10523366 0.50436888 -0.00836547
v 1.04955911 0.58517954 -0.89797888
v 1.14811467 1.99835435 -0.26572475
v 1.23767983 -2.00015017 0.37882539
v 0.97324156 -0.11548391 0.14447963
v 0.94679688 1.99570266 -0.89843378
v 1.08362209 2.00262204 -0.81255386
v 0.96654551 -1.67750558 0.30010321
v 1.02382319 -1.53122434 0.04152574
v 1.06031989 0.04011137 0.15241457
v 1.18758904 0.86946014 -0.89800844
v 1.06119727 -1.39904639 -0.07871656
v 0.99486046 0.18762043 0.11992749
v 1.03992449 0.49224332 -0.04631202
v 1.03867625 1.21667973 -0.10440950
v 0.97642474 1.44659844 -0.00672899
v 1.14505063 -1.99833950 0.00102904
v 1.21901070 -1.27160504 -0.90184096
v 1.22856103 -0.55246906 -0.90190164
v 1.20440494 -1.18508306 -0.89803180
v 1.02454941 -0.71611336 -0.16793466
v 1.18754577 -0.59334853 -0.06427906
v 1.12243306 -1.99827918 -0.43352482
v 1.03223573 -1.67617640 0.32347583
v 1.15693854 -0.45533111 -0.89800498
v 1.17219995 -0.17864509 -0.90177414
v 1.26683842 1.73833195 0.01990910
v 1.19277178 1.93155924 -0.90240607
v 1.06058239 -1.44309875 -0.03092816
v 1.10612892 -0.97306117 -0.19345576
v 1.37278675 -0.43547076 0.25080785
v 1.10641753 1.30389634 -0.89801649
v 1.06722342 1.35820237 -0.05026285
v 1.20486831 1.65493265 -0.89832780
v 1.09947788 -1.63919529 0.23033271
v 1.12560235 -0.84436413 -0.89814195
v 1.27367019 0.14881564 -0.90191833
v 1.31984364 0.62391982 -0.90195689
v 1.26709055 1.91828767 -0.89836035
v 1.08821141 1.98615161 -0.04122565
v 1.10160696 -1.13276848 -0.17318178
v 1.12444781 0.73065642 -0.10171309
v 1.32398211 -2.00289759 0.22861418
v 1.12353109 -1.99856469 0.26906237
v 1.20705306 -1.79220387 0.35832062
v 1.12260269 1.44247559 0.02499428
v 1.32082020 1.54213837 0.04119551
v 1.13724839 -1.15032455 -0.17532441
v 1.10636817 1.14302150 -0.13385280
v 1.45893656 -1.99539372 0.39488220
v 1.39524054 0.19676438 0.19221887
v 1.22178053 -1.66261252 0.34419283
v 1.25970398 -1.36539027 -0.02274846
v 1.20761584 -1.32939401 -0.08982255
v 1.10476088 0.99802843 -0.13122218
v 1.11884569 1.99521366 -0.87426117
v 1.33129512 1.99854008 -0.74833784
v 1.25905966 2.00288359 -0.09769901
v 1.24365865 0.84359637 -0.07285093
v 1.16246807 1.98991838 -0.01927920
v 1.48382746 -2.00189313 -0.18937646
v 1.24163042 -0.90428069 -0.13621284
v 1.25569569 0.30564991 -0.89808807
v 1.30937599 1.21292475 -0.90172521
v 1.25119256 1.40615705 0.02882067
v 1.37769996 2.00009647 -0.89556185
v 1.38088738 -1.61228093 -0.90190319
v 1.45153009 -0.87902382 -0.90191022
v 1.35154020 -0.08122083 0.20903735
v 1.28360831 2.00211159 -0.46052704
v 1.34833478 -1.99840244 -0.70537517
v 1.20093905 -1.51446411 0.06573443
v 1.31623744 0.48469136 0.14441029
v 1.22461330 0.98880306 -0.11932160
v 1.30065655 -1.61139723 0.35393270
v 1.31399201 -0.39785394 0.21930219
v 1.23388301 1.12666431 -0.08289836
v 1.27520024 1.93064610 -0.00552902
v 1.26097213 -1.57597682 0.21298204
v 1.32462822 -0.06978735 -0.89798120
v 1.36679124 -1.99566909 -0.88368044
v 1.35719906 -1.99808368 -0.27034054
v 1.29812073 -1.91579839 -0.90287212
v 1.37656557 -1.68192717 -0.89815733
v 1.30038797 -0.81485921 -0.10937073
v 1.30259668 0.58044282 0.06381648
v 1.32968604 1.22954384 -0.02683823
v 1.61198186 1.45904807 -0.90232417
v 1.24024176 -1.60698720 0.23679456
v 1.33097516 1.99673453 -0.86024937
v 1.54300808 1.99652949 0.01292372
v 1.39385437 -1.99902233 0.20618902
v 1.32876288 -1.01192405 -0.12230650
v 1.41412913 0.38573054 0.17140206
v 1.37408649 0.79743746 -0.00867844
v 1.31319283 1.28555826 0.01121485
v 1.65982162 2.00313154 -0.71735618
v 1.57088434 -1.82431599 0.42092216
v 1.38859152 -0.71273800 0.00596996
v 1.48893594 0.51560256 -0.89829985
v 1.43320619 1.21908668 -0.89795724
v 1.36543964 1.34443716 0.07557686
v 1.33902179 -1.47754106 0.11515024
v 1.39145779 -1.17964527 -0.05796556
v 1.34938799 -1.10967400 -0.08784733
v 1.40194212 1.94056741 0.02248737
v 1.41319286 2.00181952 -0.00169159
v 1.37575733 -1.54706320 0.27990460
v 1.41778575 -1.31021633 0.02584962
v 1.45440792 -1.01373735 -0.89803204
v 1.38821303 -0.54086719 0.13058075
v 1.69330059 -2.00110945 -0.89331577
v 1.49482702 -1.76808855 0.39848345
v 1.46679150 -0.61960557 0.16812217
v 1.46204792 0.66711441 0.15292512
v 1.38959836 0.96673194 -0.01824718
v 1.52647208 -1.92332300 -0.89683447
v 1.56954586 -0.22078049 -0.90200225
v 1.38258814 1.04909328 -0.04136411
v 1.43247174 -1.53280410 0.35710215
v 1.50985252 -1.40566691 0.25739315
v 1.43264328 -0.72210240 0.02260385
v 1.50492369 -1.37866315 -0.89811901
v 1.54029535 -0.60242629 -0.89833585
v 1.44404386 0.75262323 0.08271326
v 1.59399759 2.00205699 -0.29835201
v 1.55232953 -1.17629483 0.13075994
v 1.70549618 1.49707249 0.10932816
v 1.49226843 -0.95905444 0.01261390
v 1.61324130 0.08410704 -0.89845977
v 1.51495694 1.12598434 0.10196635
v 1.63500308 1.67724672 -0.89825669
v 1.67750465 1.89104548 0.05874859
v 1.79001438 1.99810925 -0.30535272
v 1.73604428 0.21981100 -0.90249130
v 1.47895812 1.21979753 0.08116120
v 1.58396529 -1.99812528 -0.11799731
v 1.60036336 -1.99858746 -0.46593005
v 1.77680539 -0.64745521 -0.90239516
v 1.59334039 0.86419753 -0.89824918
v 1.78170036 1.37885765 0.12557290
v 1.57768809 -1.36906811 0.37336909
v 1.68637513 -1.43559643 -0.90209756
v 1.55004798 -0.66453051 0.21473014
v 1.64986299 -0.42064933 0.28772428
v 1.73065781 -0.28658717 -0.89841780
v 1.52903663 0.97351388 0.08872657
v 1.65484535 1.99673930 -0.87713305
v 1.50970613 -1.41141733 0.25003430
v 1.54238414 0.93358055 0.11845038
v 1.74170493 0.77436164 -0.90244487
v 1.59769057 1.94234577 -0.90165910
v 1.65182888 -1.99857899 -0.76621595
v 1.58283042 -1.20577684 0.16704328
v 1.50872587 -0.94327935 0.01777572
v 1.54813181 -0.80997374 0.10606009
v 1.57386254 -0.62316066 0.29939052
v 1.80890809 0.02016560 0.27368852
v 1.75032829 0.52288285 0.20909962
v 1.80364703 -2.00298234 -0.69770989
v 1.59030627 -1.49050459 0.38468966
v 1.56361126 -0.59647996 0.28987562
v 1.71888064 0.91624061 0.17040082
v 1.65328144 1.99975863 0.04551583
v 1.77291082 -1.86653384 -0.90285895
v 1.61965417 -0.87684628 0.21727290
v 1.57718669 0.81097046 0.14994539
v 1.76380264 1.99935595 -0.71889308
v 1.81539821 -1.49289509 -0.89784667
v 1.61843740 -1.03342160 0.16883227
v 1.82885574 1.32910768 -0.89963016
v 1.67356097 -1.99864182 0.35078802
v 1.84820436 0.64538572 -0.89769331
v 1.72461735 2.00040570 -0.89039311
v 1.66297327 -2.00236746 0.44108283
v 1.80919956 -1.74913069 0.44509819
v 1.63042103 -1.31483611 0.37245175
v 1.71300100 0.95585910 0.15682652
v 1.83574652 -2.00204298 -0.08005315
v 1.81055044 -1.99820897 0.09002412
v 1.85324584 -1.23313203 0.40491911
v 1.67975770 -0.97133371 0.34881076
v 1.78739106 -1.03154286 -0.89870003
v 1.65107225 -0.79730862 0.32007116
v 1.64148032 -0.86897298 0.24902531
v 1.84208464 -0.70091369 0.34905859
v 1.86092900 2.00331751 -0.13988681
v 1.80670165 -1.99378273 -0.87873671
v 1.89838277 -1.18760499 -0.90291688
v 1.83408557 -0.64309027 0.33560052
v 1.85725652 -1.32597050 0.41047650
v 1.84901403 1.90037528 0.09140285
v 1.83400356 -1.98673960 0.46810603
v 1.69062268 -1.13332566 0.36358684
v 1.84591364 -0.02969694 0.27697378
v 1.69906150 -0.97402325 0.34847986
v 1.83585202 0.54661945 0.22328253
v 1.90053176 -0.27710304 -0.90364293
v 1.84296559 -1.99809655 -0.24642766
v 1.88157391 -0.95652553 0.37559029
v 1.85485505 -1.86200544 -0.89705626
v 1.90347575 0.11529303 -0.89852426
v 1.88654446 -1.99758705 -0.57451555
v 1.92325818 1.27215222 -0.90422276
v 1.89719104 -2.00357183 0.42715495
v 1.86062645 -1.99466678 0.48050129
v 1.89957093 -1.99888751 0.41011560
v 1.91380118 1.83470264 0.09863245
v 1.91979002 1.86702839 -0.90468046
v 1.93367003 -1.99752530 -0.82368574
v 1.96624457 1.52747384 0.14537498
v 1.97254037 -0.56131342 -0.89645079
v 1.92156397 0.98158339 0.18692493
v 1.93255376 1.99272028 0.06139339
v 1.95374786 -1.52659198 -0.89513412
v 1.95121669 1.67717353 -0.90431843
v 1.98950945 -1.64944920 -0.90079645
v 1.99735366 -0.41330998 0.34159517
v 1.95678555 1.86744991 -0.89515987
v 2.00243889 -0.21450296 0.30719360
v 1.97817635 1.17495969 -0.89396248
v 1.95016419 2.00781241 0.02684340
v 1.99539613 -1.81479296 0.48262992
v 1.97474312 -1.07365265 -0.89434436
v 1.97898745 0.70511440 0.22073950
v 1.99510728 -1.98263368 -0.42039618
v 1.99509214 -1.98208865 -0.02486567
v 1.97699164 -1.82983085 0.47550821
v 1.98983966 -1.67920503 -0.87018684
v 1.99380421 -0.52108401 0.32527956
v 1.99146878 0.86373857 -0.90076074
v 1.98723983 1.06277255 0.18372619
v 1.97385668 1.57482413 -0.89376751
v 1.98314892 -1.98044964 -0.89299217
v 1.99565445 -1.98078498 -0.77180419
v 1.99648868 -1.98461148 0.16316764
v 1.98341428 -1.52640304 0.44409880
v 1.99993609 -1.26773378 0.41806998
v 1.99618803 -1.26914903 -0.86677394
v 1.99663400 -0.99591204 0.34298437
v 2.00030385 -0.70091921 -0.89981029
v 1.97801398 -0.18983942 -0.89524380
v 1.98752283 0.06051425 0.28219089
v 1.98294853 0.21942506 -0.89328805
v 1.99565481 0.43987486 0.23747107
v 1.99931323 0.22525290 0.27469167
v 2.00029527 0.72964695 0.22720313
v 1.99672877 1.37414828 0.14238168
v 1.99611627 1.71412936 0.10690092
v 1.97119199 1.98928562 -0.87715564
v 1.99572085 1.98680798 -0.09851418
v 1.99316691 2.00204865 -0.49656177
v 1.99386262 -2.00203761 -0.81342927
v 1.99794673 -1.97540745 -0.14521903
v 1.99164640 -1.99231168 0.35186267
v 1.99150895 -1.95687279 0.48010561
v 2.00042414 -1.89602467 -0.89689914
v 1.99605190 -1.19332066 0.40029961
v 1.99274217 0.69601515 -0.89086101
v 1.99938320 0.50396642 -0.90109501
v 1.99467527 0.88071576 0.19389988
v 2.00043677 1.23980824 0.17384782
v 1.99182450 1.98051921 0.07784180
v 1.99434184 1.98443738 0.09976975
v 1.98099839 1.99463573 -0.73711983
v 1.98682403 1.99640194 -0.53657321
v 1.98135983 1.99813858 -0.44041047
v 1.98191129 1.99637476 -0.37334925
v 1.98755537 1.99417153 -0.31826023
v 1.99799608 -1.98199352 -0.89960626
v 1.99852621 -1.99962827 -0.59049836
v 2.00166415 -1.98759517 -0.16717410
v 1.99994539 -1.99706682 0.31420308
v 2.00471841 -1.98786100 0.48926010
v 1.99885451 -1.74183091 -0.48561395
v 1.99414109 -1.78747782 0.40203344
v 1.99869322 -1.81765636 0.04514943
v 1.99869989 -1.31948575 -0.68605528
v 1.99864589 -1.30017003 0.20403210
v 1.99770414 -1.19454828 -0.24135383
v 2.00428294 -1.49271628 -0.89249066
v 1.99823903 -0.95592776 -0.74136249
v 1.99841486 -0.88245150 0.00069352
v 1.99809419 -0.70481100 -0.53438691
v 1.99690043 -0.65094867 -0.82469455
v 1.99649083 -0.53765417 0.17722964
v 1.99821638 -0.75039461 0.37527173
v 1.99857282 -0.42109368 -0.29501796
v 1.99724387 -0.64822098 0.36695400
v 2.00637423 -0.54134570 0.35575398
v 1.99825238 -0.10640625 -0.13127646
v 1.99670719 -0.24946557 -0.84639469
v 1.99796151 -0.12392716 -0.76626417
v 1.99703680 -0.01566997 0.21971669
v 1.99815844 0.08945078 -0.47470424
v 1.99565529 0.24654642 -0.73754886
v 1.99827539 0.25357488 0.10378260
v 1.99675678 0.19257692 -0.90161351
v 1.99854921 0.33387635 -0.19415012
v 1.99813138 0.51325867 -0.49613828
v 1.99771499 0.64528159 0.13545167
v 1.99810575 0.57905963 -0.78830234
v 1.99836039 0.68577281 -0.07454196
v 1.99810671 0.85482577 -0.44927255
v 1.99805473 1.07595829 -0.69666997
v 1.99837672 1.07507578 -0.02915556
v 1.99831544 1.24979285 -0.30431202
v 1.99810635 1.59748653 -0.53520939
v 2.00023841 1.23101655 -0.89454428
v 1.99836682 1.67011276 -0.05844792
v 1.99906682 1.51584271 -0.89632270
v 1.99640011 1.78625813 -0.73439268
v 2.00097441 1.73232881 -0.89216563
v 2.00307082 1.84437552 0.10428431
v 1.99589526 1.97716728 -0.39765483
v 1.99400889 2.00773159 -0.81690029
v 2.00132500 1.99572626 -0.10572265
v 1.99827908 -1.18952694 -0.89469710
v 2.00026976 -0.84928622 0.38056531
v 2.00051116 -0.21974885 -0.89752248
v 1.99447285 1.98622743 -0.89846895
v 2.00571333 -1.95824942 -0.72841689
v 2.00285636 -1.71673509 0.22465336
v 2.00269269 -1.82338783 -0.42215491
v 2.00601100 -1.72771105 -0.76690558
v 2.00170134 -1.36387488 -0.13202559
v 2.00421845 -1.40516588 -0.81380901
v 2.00293385 -1.23702761 0.26812917
v 2.00192999 -1.22242561 -0.51067824
v 2.00243234 -1.12383183 -0.82475534
v 2.00174116 -0.94750431 -0.17721872
v 2.00187563 -0.72794947 -0.62186674
v 2.00284802 -0.61711317 -0.00743257
v 2.00698101 -0.68237173 0.34485715
v 2.00200771 -0.32704110 -0.67089096
v 2.00197064 -0.13264003 -0.21678017
v 2.00271105 0.12369734 0.06344688
v 2.00303017 0.08904630 -0.84019599
v 2.00204348 0.32240299 -0.57777533
v 2.00189029 0.66441670 -0.37417183
v 2.00466834 0.61884359 -0.83248869
v 2.00236892 0.79841224 0.01217687
v 2.00190495 1.13472739 -0.70458010
v 2.00222551 1.24980763 -0.04679876
v 2.00189017 1.61300651 -0.53257183
v 2.00239073 1.70342294 -0.12465257
v 2.00306510 1.94489637 -0.71895537
v 2.00431334 1.95363251 -0.37246165
f 17 15 12
f 751 636 755
f 996 991 995
f 993 987 990
f 341 282 268
f 568 597 642
f 812 773 755
f 1013 1044 948
f 6 5 2
f 968 875 967
f 803 754 756
f 819 662 780
f 105 106 108
f 492 456 507
f 527 526 514
f 586 528 606
f 359 363 336
f 1023 977 1014
f 651 601 565
f 939 993 990
f 409 310 377
f 507 481 568
f 131 102 107
f 627 663 758
f 633 574 648
f 696 697 658
f 661 656 561
f 626 594 637
f 202 41 175
f 770 664 745
f 533 462 536
f 406 387 372
f 418 344 357
f 560 519 449
f 236 186 101
f 417 328 351
f 257 198 222
f 948 1043 1012
f 178 146 136
f 1014 977 885
f 643 524 569
f 972 932 951
f 849 884 777
f 1012 1043 1017
f 261 182 247
f 64 156 240
f 741 647 704
f 540 562 474
f 729 745 686
f 952 972 951
f 542 471 432
f 130 106 129
f 375 359 333
f 959 910 947
f 919 970 1019
f 398 300 321
f 217 146 178
f 896 890 892
f 510 514 433
f 81 80 83
f 350 299 330
f 695 692 727
f 227 192 270
f 43 58 7
f 243 284 257
f 123 69 71
f 311 275 257
f 244 233 224
f 73 68 66
f 679 673 634
f 921 941 855
f 627 603 596
f 594 615 637
f 385 472 410
f 852 881 866
f 259 228 288
f 322 289 209
f 924 972 952
f 874 843 832
f 98 95 97
f 649 606 737
f 666 646 694
f 794 902 919
f 387 364 370
f 1039 1037 927
f 888 824 907
f 215 173 139
f 1041 1039 1007
f 924 872 933
f 506 409 480
f 412 440 341
f 484 303 455
f 683 619 808
f 411 438 457
f 720 684 626
f 326 313 361
f 636 583 623
f 652 593 614
f 51 25 49
f 313 325 361
f 769 782 791
f 147 135 205
f 190 49 182
f 590 545 547
f 779 619 667
f 170 47 86
f 986 1030 1029
f 131 107 109
f 532 525 599
f 229 200 258
f 134 111 116
f 546 605 608
f 420 348 408
f 150 73 121
f 154 102 131
f 608 653 582
f 371 332 306
f 707 728 680
f 840 818 807
f 129 99 128
f 27 50 23
f 285 243 230
f 792 742 711
f 714 669 595
f 569 583 636
f 981 920 978
f 945 1006 944
f 377 393 453
f 405 323 293
f 931 906 899
f 275 246 198
f 809 746 741
f 405 376 323
f 325 307 245
f 220 148 41
f 579 544 617
f 948 1044 1041
f 127 98 102
f 433 446 354
f 355 309 292
f 195 146 217
f 823 801 749
f 751 665 636
f 365 337 353
f 62 61 65
f 321 264 366
f 180 214 55
f 1033 1032 1035
f 1027 1022 1025
f 513 489 409
f 54 33 52
f 381 328 417
f 147 39 135
f 483 346 443
f 149 63 122
f 354 318 305
f 926 936 896
f 890 850 866
f 424 369 416
f 162 158 43
f 82 78 79
f 106 100 99
f 870 848 762
f 954 936 975
f 686 610 578
f 366 264 337
f 285 230 265
f 157 169 149
f 926 886 841
f 308 211 236
f 63 65 67
f 109 105 110
f 762 724 702
f 267 240 245
f 300 213 266
f 951 932 876
f 133 132 144
f 845 799 805
f 605 632 625
f 253 265 233
f 131 109 112
f 759 689 776
f 1013 1010 1042
f 20 17 16
f 609 563 585
f 173 69 123
f 631 558 495
f 626 638 599
f 384 337 365
f 188 168 212
f 133 113 132
f 1041 1007 1009
f 9 6 8
f 892 866 881
f 686 745 610
f 530 529 515
f 1025 1026 1028
f 973 971 950
f 252 185 163
f 317 279 363
f 290 322 209
f 647 555 582
f 1020 1018 1021
f 838 771 794
f 12 10 9
f 1015 934 1029
f 296 228 235
f 771 720 637
f 985 983 1030
f 153 56 38
f 660 641 550
f 118 116 115
f 526 605 534
f 439 394 404
f 863 769 791
f 960 1010 1013
f 528 532 606
f 916 914 1029
f 79 75 81
f 733 814 722
f 683 584 619
f 75 74 80
f 675 659 613
f 863 791 843
f 827 773 812
f 353 350 383
f 138 77 74
f 76 70 75
f 336 279 237
f 836 796 869
f 1035 1034 994
f 1015 877 934
f 148 3 41
f 634 645 587
f 129 128 168
f 993 995 987
f 978 920 935
f 871 739 875
f 567 592 473
f 503 540 445
f 635 692 690
f 986 914 882
f 275 198 257
f 78 76 79
f 952 951 903
f 1028 1026 937
f 754 641 660
f 945 944 837
f 519 472 460
f 310 278 377
f 323 238 216
f 289 334 237
f 711 681 643
f 572 484 620
f 183 52 143
f 57 153 38
f 748 731 785
f 576 524 643
f 1013 948 883
f 861 966 808
f 90 22 46
f 416 369 406
f 673 645 634
f 145 116 146
f 793 948 1012
f 908 842 820
f 998 955 940
f 870 762 793
f 666 694 742
f 564 509 574
f 1009 912 905
f 957 921 909
f 942 893 854
f 315 295 328
f 824 723 798
f 310 255 189
f 623 603 635
f 71 76 78
f 462 477 498
f 282 343 252
f 535 490 482
f 438 462 457
f 841 772 765
f 166 181 137
f 622 543 558
f 5 10 4
f 1032 1029 1031
f 89 85 91
f 965 830 964
f 703 580 676
f 367 322 340
f 545 499 427
f 26 27 24
f 455 297 454
f 327 328 263
f 169 166 164
f 81 83 85
f 472 495 428
f 768 705 708
f 807 718 673
f 985 882 983
f 449 376 405
f 474 450 424
f 869 826 898
f 429 393 398
f 725 638 684
f 525 516 508
f 688 607 647
f 706 679 709
f 696 695 747
f 280 239 234
f 368 293 291
f 427 355 419
f 615 572 620
f 541 454 437
f 79 76 75
f 116 118 146
f 937 1014 885
f 589 571 443
f 24 27 23
f 589 443 520
f 388 283 379
f 935 865 911
f 409 395 310
f 794 637 700
f 977 1021 913
f 73 66 121
f 316 265 306
f 461 361 470
f 251 290 210
f 925 911 865
f 705 668 671
f 979 980 976
f 477 422 447
f 44 162 43
f 685 679 639
f 784 675 724
f 915 929 1008
f 118 115 117
f 86 47 18
f 118 117 136
f 233 230 215
f 980 981 978
f 138 73 150
f 238 277 201
f 928 909 837
f 707 624 698
f 714 763 669
f 318 311 284
f 213 151 197
f 625 632 671
f 490 434 371
f 896 887 890
f 788 740 746
f 472 385 460
f 278 213 300
f 764 839 714
f 383 350 330
f 31 32 26
f 327 326 351
f 925 930 931
f 830 699 753
f 178 133 239
f 459 468 538
f 399 445 413
f 165 141 140
f 659 734 693
f 254 217 178
f 777 677 656
f 154 112 114
f 66 60 121
f 138 74 73
f 940 869 898
f 674 631 566
f 443 346 439
f 177 174 127
f 946 864 844
f 773 711 751
f 774 743 640
f 239 196 234
f 536 498 596
f 749 725 684
f 1017 905 870
f 651 592 601
f 947 1006 959
f 797 728 707
f 144 132 108
f 805 799 750
f 518 466 450
f 445 474 424
f 919 902 970
f 891 841 765
f 753 682 752
f 407 356 396
f 306 265 253
f 971 925 931
f 52 30 28
f 737 678 749
f 990 982 926
f 39 36 135
f 501 386 484
f 527 600 526
f 242 185 283
f 101 186 48
f 564 476 509
f 261 250 190
f 982 984 979
f 475 553 486
f 105 107 104
f 890 873 850
f 723 742 798
f 249 188 212
f 49 25 22
f 365 353 391
f 696 658 690
f 651 565 699
f 509 451 492
f 269 241 219
f 813 780 777
f 973 950 923
f 436 383 382
f 251 179 195
f 263 270 327
f 724 604 702
f 834 849 767
f 423 367 340
f 613 519 604
f 59 8 3
f 427 419 476
f 771 775 684
f 986 1029 914
f 662 677 780
f 368 291 255
f 945 837 904
f 565 589 682
f 735 579 730
f 197 151 152
f 925 897 930
f 445 399 465
f 578 530 537
f 183 152 52
f 566 631 495
f 408 317 363
f 179 146 195
f 518 554 466
f 1042 1041 1044
f 196 133 144
f 920 879 865
f 222 243 257
f 711 643 665
f 600 632 526
f 521 599 525
f 392 338 390
f 556 535 482
f 229 165 200
f 286 183 264
f 809 748 816
f 913 1021 953
f 991 989 984
f 226 301 199
f 446 431 396
f 913 861 839
f 894 835 814
f 1040 1036 1039
f 795 758 825
f 866 800 851
f 758 737 801
f 573 496 559
f 168 142 194
f 339 234 256
f 951 876 903
f 579 500 544
f 397 421 375
f 342 242 283
f 950 922 895
f 758 801 825
f 674 733 631
f 963 962 1011
f 1004 1001 1003
f 903 876 868
f 352 308 320
f 127 102 161
f 1018 967 949
f 660 550 588
f 321 300 266
f 283 252 343
f 864 830 753
f 698 630 689
f 897 884 930
f 934 1024 1029
f 179 145 146
f 331 232 338
f 485 441 464
f 171 129 188
f 946 844 915
f 456 418 400
f 693 734 674
f 205 189 147
f 957 1002 997
f 266 213 197
f 924 889 872
f 151 54 152
f 912 900 784
f 296 288 228
f 12 15 10
f 775 749 684
f 824 798 827
f 496 448 459
f 199 262 162
f 39 40 37
f 757 687 683
f 396 356 354
f 868 876 788
f 914 916 854
f 855 765 790
f 292 212 248
f 581 513 506
f 52 28 51
f 647 607 555
f 263 227 270
f 670 713 652
f 770 738 664
f 640 655 570
f 826 759 776
f 710 685 612
f 371 306 348
f 770 791 738
f 125 167 124
f 40 38 37
f 577 479 548
f 663 586 649
f 49 22 90
f 1029 1028 1031
f 366 337 384
f 877 878 838
f 917 869 955
f 437 454 378
f 241 221 166
f 567 469 565
f 78 123 71
f 355 302 419
f 304 268 241
f 959 904 910
f 541 551 454
f 585 507 568
f 716 657 662
f 860 822 803
f 668 653 625
f 486 542 432
f 537 517 488
f 610 529 530
f 806 819 879
f 260 174 225
f 156 59 148
f 1011 962 1004
f 289 237 204
f 208 187 203
f 926 982 936
f 55 29 35
f 934 877 919
f 124 82 88
f 125 124 88
f 56 55 35
f 128 94 142
f 629 714 595
f 1025 1021 1023
f 237 177 161
f 179 155 145
f 175 41 58
f 298 276 344
f 748 804 816
f 75 68 74
f 439 404 520
f 941 993 939
f 41 1 58
f 452 360 367
f 494 389 516
f 958 1040 1042
f 152 54 52
f 299 184 259
f 962 864 961
f 873 845 850
f 261 247 350
f 858 807 772
f 312 294 346
f 925 865 897
f 445 424 413
f 748 785 804
f 680 617 577
f 398 321 366
f 761 783 729
f 395 430 368
f 921 997 941
f 558 487 495
f 218 282 252
f 616 642 677
f 949 856 808
f 141 85 83
f 44 11 14
f 874 855 863
f 10 14 11
f 559 459 538
f 119 60 61
f 776 721 820
f 438 365 462
f 86 18 23
f 168 128 142
f 323 376 238
f 614 593 562
f 870 905 848
f 9 10 5
f 259 223 228
f 22 20 19
f 488 517 458
f 107 105 109
f 681 576 643
f 893 747 854
f 559 538 576
f 191 102 154
f 128 99 94
f 828 730 797
f 789 800 744
f 432 471 380
f 567 473 469
f 635 603 627
f 575 644 523
f 832 815 783
f 989 940 938
f 199 162 44
f 334 375 333
f 482 444 421
f 218 163 181
f 584 551 619
f 896 892 886
f 165 138 200
f 624 548 630
f 1022 1020 1025
f 520 404 500
f 10 7 4
f 473 452 367
f 728 617 680
f 855 790 769
f 119 163 60
f 953 966 861
f 1004 917 1001
f 146 118 136
f 787 699 830
f 967 875 856
f 969 901 875
f 374 302 298
f 290 209 210
f 34 35 32
f 789 726 781
f 24 23 21
f 590 547 564
f 726 644 575
f 170 86 48
f 96 89 94
f 909 855 874
f 655 578 598
f 997 995 993
f 714 629 764
f 345 315 389
f 209 204 154
f 362 341 268
f 652 621 593
f 556 482 529
f 276 229 258
f 795 627 758
f 444 402 359
f 973 923 932
f 554 497 466
f 678 725 749
f 232 188 249
f 525 508 521
f 19 13 46
f 13 9 8
f 440 379 341
f 804 785 799
f 734 831 733
f 225 279 260
f 1010 907 958
f 434 358 332
f 103 98 97
f 644 672 600
f 844 828 915
f 565 483 571
f 122 63 67
f 295 235 263
f 380 262 301
f 914 854 882
f 185 121 163
f 245 220 303
f 815 791 770
f 796 759 826
f 631 622 558
f 745 664 610
f 602 553 475
f 526 534 514
f 201 53 172
f 839 861 763
f 711 665 751
f 39 37 36
f 575 523 535
f 167 224 139
f 531 560 449
f 1004 1003 1006
f 49 90 182
f 852 851 781
f 304 241 269
f 428 425 352
f 460 385 376
f 843 791 815
f 653 608 625
f 430 449 405
f 829 837 743
f 41 2 1
f 381 417 508
f 549 537 488
f 226 44 176
f 364 304 269
f 187 141 165
f 788 833 713
f 489 430 395
f 335 234 339
f 650 612 556
f 905 784 848
f 842 776 820
f 358 316 332
f 209 154 155
f 783 770 745
f 413 416 372
f 276 203 229
f 248 208 302
f 872 857 887
f 915 828 867
f 789 744 726
f 360 289 322
f 390 309 355
f 839 763 714
f 867 797 836
f 516 389 381
f 776 689 721
f 630 633 689
f 281 251 195
f 895 834 833
f 334 333 237
f 847 734 760
f 178 136 133
f 752 618 735
f 675 613 604
f 996 998 992
f 443 439 520
f 256 171 232
f 221 181 166
f 258 200 193
f 574 563 609
f 496 429 448
f 448 398 366
f 876 895 833
f 317 260 279
f 204 191 154
f 327 192 326
f 677 642 656
f 700 620 739
f 576 538 524
f 817 749 775
f 129 106 99
f 243 222 230
f 846 827 812
f 68 73 74
f 43 7 11
f 72 69 67
f 1008 929 1004
f 1019 1020 1022
f 437 378 262
f 803 822 754
f 713 719 652
f 997 993 941
f 958 859 943
f 922 899 895
f 409 489 395
f 700 615 620
f 126 85 141
f 979 976 975
f 273 254 280
f 784 760 675
f 99 96 94
f 394 335 404
f 113 110 108
f 130 108 106
f 67 65 70
f 10 11 7
f 725 678 638
f 216 55 214
f 1024 1022 1027
f 821 697 811
f 500 403 512
f 271 226 176
f 107 103 104
f 976 971 973
f 986 882 985
f 87 82 79
f 580 628 531
f 838 817 771
f 208 160 187
f 512 479 577
f 648 574 609
f 601 567 565
f 684 720 771
f 374 298 373
f 907 824 859
f 378 297 274
f 854 747 727
f 531 449 430
f 786 752 735
f 491 478 431
f 127 125 88
f 372 370 269
f 547 545 427
f 400 388 441
f 238 385 277
f 46 22 19
f 1002 1000 999
f 939 926 891
f 835 885 764
f 482 490 444
f 871 700 739
f 1005 1039 927
f 143 52 51
f 468 457 511
f 736 651 699
f 778 719 713
f 215 222 173
f 144 108 130
f 844 786 735
f 617 512 577
f 1020 967 1018
f 933 975 972
f 961 864 946
f 569 536 583
f 887 873 890
f 1016 894 994
f 582 503 491
f 629 595 553
f 669 541 595
f 19 20 16
f 732 648 657
f 767 777 656
f 974 978 935
f 222 198 173
f 704 647 653
f 959 1006 945
f 154 131 112
f 569 524 533
f 886 858 841
f 31 26 30
f 169 164 149
f 796 707 698
f 584 455 551
f 325 245 303
f 415 458 397
f 421 359 375
f 531 628 560
f 887 857 873
f 30 26 28
f 248 194 208
f 319 271 329
f 569 533 536
f 357 344 314
f 948 793 822
f 853 810 862
f 766 703 676
f 731 668 705
f 521 467 594
f 499 426 427
f 488 458 415
f 434 332 371
f 346 273 324
f 1003 1000 1002
f 790 706 769
f 48 86 23
f 667 541 669
f 182 90 184
f 615 594 572
f 897 813 884
f 807 818 718
f 277 236 201
f 780 677 777
f 896 936 954
f 566 495 472
f 111 110 115
f 774 640 736
f 990 987 982
f 534 546 522
f 457 462 505
f 704 668 731
f 982 979 936
f 554 561 497
f 645 718 611
f 444 420 402
f 338 249 309
f 244 231 260
f 387 369 364
f 596 586 663
f 197 152 183
f 1043 1009 1017
f 754 822 766
f 354 305 358
f 312 251 294
f 116 111 115
f 377 300 393
f 715 602 622
f 303 202 297
f 756 754 660
f 154 114 155
f 424 412 369
f 469 473 423
f 446 396 354
f 415 334 360
f 341 343 282
f 383 330 382
f 875 739 757
f 168 194 212
f 65 66 68
f 430 405 368
f 872 809 857
f 737 749 801
f 588 573 559
f 201 101 53
f 356 311 318
f 186 211 170
f 809 741 748
f 651 736 640
f 277 320 236
f 203 165 229
f 158 58 43
f 712 655 640
f 532 516 525
f 90 46 184
f 390 338 309
f 147 189 57
f 598 578 537
f 387 370 372
f 486 432 414
f 539 502 501
f 636 623 697
f 65 63 62
f 1035 994 956
f 603 536 596
f 983 1015 1030
f 236 101 201
f 55 53 29
f 517 515 463
f 810 795 862
f 685 769 709
f 45 13 42
f 943 942 1033
f 421 444 359
f 294 281 195
f 765 701 706
f 642 597 552
f 967 856 949
f 860 802 723
f 448 366 459
f 644 600 523
f 739 687 757
f 523 600 527
f 329 271 272
f 833 778 713
f 752 682 618
f 521 508 467
f 45 42 64
f 591 566 472
f 733 674 734
f 506 480 550
f 750 768 708
f 947 830 965
f 665 643 569
f 262 206 162
f 187 160 141
f 546 491 493
f 324 280 335
f 256 234 196
f 678 599 638
f 319 301 226
f 673 718 645
f 184 159 223
f 866 850 800
f 255 180 57
f 1037 956 927
f 239 133 196
f 738 710 650
f 143 49 190
f 1007 912 1009
f 820 721 806
f 506 513 409
f 65 61 66
f 916 1029 1033
f 81 75 80
f 167 139 124
f 719 654 621
f 9 5 6
f 193 138 150
f 553 595 542
f 944 1006 1002
f 513 580 489
f 665 569 636
f 573 453 496
f 790 765 706
f 198 169 157
f 1024 934 1019
f 588 550 453
f 225 174 177
f 102 103 107
f 1004 929 917
f 976 978 974
f 436 382 422
f 919 1019 934
f 768 731 705
f 376 385 238
f 706 701 679
f 504 446 433
f 781 717 718
f 630 545 590
f 588 453 573
f 3 6 2
f 418 357 400
f 549 452 473
f 317 287 244
f 748 704 731
f 344 276 314
f 461 539 557
f 719 767 654
f 708 705 671
f 853 878 882
f 58 1 7
f 771 637 794
f 455 303 297
f 242 193 185
f 862 825 823
f 869 796 826
f 1041 1040 1039
f 47 44 14
f 534 522 514
f 717 781 726
f 524 505 533
f 980 978 976
f 928 1002 957
f 889 868 746
f 899 884 849
f 127 88 95
f 833 834 778
f 198 219 169
f 89 87 84
f 438 384 365
f 508 516 381
f 755 697 821
f 585 563 507
f 1025 1023 1026
f 158 175 58
f 385 410 320
f 293 216 214
f 1019 968 1020
f 958 1038 1040
f 36 54 151
f 478 407 431
f 271 176 170
f 135 36 151
f 324 273 280
f 209 155 210
f 477 436 422
f 885 913 839
f 806 732 716
f 779 808 619
f 192 64 240
f 71 70 76
f 1018 949 966
f 97 96 100
f 57 180 153
f 844 735 828
f 297 378 454
f 205 135 213
f 458 463 397
f 170 176 47
f 406 369 387
f 884 813 777
f 1026 1023 1014
f 419 302 374
f 602 629 553
f 586 606 649
f 595 471 542
f 363 279 336
f 691 795 810
f 137 119 62
f 880 892 881
f 956 831 847
f 394 324 335
f 832 783 761
f 47 15 18
f 546 493 522
f 1023 1021 977
f 435 392 479
f 304 362 268
f 64 59 156
f 100 96 99
f 544 500 512
f 295 263 328
f 653 647 582
f 787 829 774
f 796 698 759
f 467 461 594
f 756 723 802
f 912 1007 900
f 354 358 433
f 635 627 692
f 943 859 893
f 733 622 631
f 471 437 380
f 426 392 390
f 321 266 286
f 319 226 271
f 105 100 106
f 933 872 887
f 719 621 652
f 386 303 484
f 460 376 449
f 407 347 356
f 25 20 22
f 670 607 688
f 995 991 987
f 46 45 159
f 612 587 556
f 976 974 971
f 548 479 499
f 710 612 650
f 962 830 864
f 869 917 867
f 811 697 696
f 490 420 444
f 469 423 312
f 441 379 464
f 623 583 603
f 523 527 510
f 493 431 446
f 556 587 535
f 696 690 695
f 401 475 414
f 395 368 310
f 860 918 883
f 639 587 612
f 464 379 440
f 989 938 988
f 264 183 250
f 70 65 68
f 283 185 252
f 1003 1001 1000
f 955 869 940
f 294 195 273
f 3 2 41
f 685 782 769
f 618 579 735
f 772 673 701
f 948 1041 1043
f 5 4 2
f 69 122 67
f 735 730 828
f 943 1033 1038
f 75 70 68
f 921 957 997
f 942 916 1033
f 244 224 167
f 699 565 682
f 115 113 117
f 273 195 217
f 235 227 263
f 960 918 860
f 87 79 84
f 613 659 591
f 962 1008 1004
f 538 511 524
f 647 746 688
f 139 123 78
f 305 318 284
f 933 972 924
f 541 619 551
f 93 92 87
f 449 519 460
f 493 491 431
f 785 768 799
f 469 312 483
f 599 521 626
f 26 29 27
f 581 676 580
f 495 487 425
f 501 470 386
f 760 659 675
f 1036 1037 1039
f 1040 1038 1036
f 481 441 485
f 147 40 39
f 171 130 129
f 996 1000 998
f 1042 1040 1041
f 353 261 350
f 292 248 302
f 220 41 202
f 829 743 774
f 850 845 805
f 849 777 767
f 803 756 802
f 103 97 104
f 561 552 497
f 1037 1035 956
f 724 848 784
f 858 880 840
f 1032 1031 1035
f 183 143 250
f 490 510 434
f 886 926 896
f 999 996 995
f 451 418 492
f 654 656 661
f 903 868 889
f 485 464 552
f 311 257 284
f 783 745 729
f 196 171 256
f 769 706 709
f 403 339 331
f 859 811 747
f 330 288 382
f 413 424 416
f 550 581 506
f 898 826 842
f 996 992 991
f 999 995 997
f 651 640 592
f 851 800 789
f 407 396 431
f 860 723 888
f 111 109 110
f 882 854 853
f 235 207 227
f 237 225 177
f 390 355 427
f 159 45 207
f 54 36 33
f 238 201 172
f 939 891 855
f 330 259 288
f 358 305 316
f 1043 1041 1009
f 597 485 552
f 645 611 587
f 882 878 877
f 447 345 389
f 391 353 383
f 480 377 453
f 693 566 591
f 369 362 304
f 251 281 294
f 104 97 100
f 157 122 69
f 875 757 856
f 235 228 207
f 840 852 818
f 1039 1005 1007
f 419 374 476
f 487 401 425
f 287 253 244
f 897 865 813
f 630 590 633
f 420 371 348
f 494 447 389
f 492 418 456
f 682 589 618
f 495 425 428
f 246 269 219
f 264 250 337
f 173 198 157
f 944 928 837
f 592 640 570
f 496 459 559
f 432 380 319
f 730 579 617
f 887 954 933
f 960 888 1010
f 468 411 457
f 117 113 133
f 721 633 648
f 1001 955 998
f 881 852 840
f 975 976 973
f 755 636 697
f 1000 1001 998
f 616 568 642
f 135 151 213
f 359 336 333
f 427 476 547
f 611 575 535
f 119 61 62
f 900 927 847
f 529 482 515
f 689 633 721
f 451 373 418
f 879 820 806
f 746 740 688
f 342 283 388
f 102 98 103
f 278 189 205
f 1010 888 907
f 830 910 787
f 761 712 743
f 610 556 529
f 798 742 792
f 617 544 512
f 867 836 869
f 136 117 133
f 262 378 274
f 247 182 184
f 622 602 543
f 188 129 168
f 59 3 148
f 490 371 420
f 320 308 236
f 497 464 440
f 360 334 289
f 717 726 575
f 462 365 477
f 949 808 966
f 895 899 834
f 959 945 904
f 694 681 711
f 236 211 186
f 605 546 534
f 861 808 779
f 247 184 299
f 794 871 902
f 51 49 143
f 331 256 232
f 1021 1018 953
f 577 624 680
f 286 197 183
f 641 676 581
f 568 481 485
f 793 703 766
f 74 77 80
f 171 144 130
f 965 964 1011
f 221 218 181
f 298 208 276
f 1010 958 1042
f 926 841 891
f 608 582 491
f 800 750 744
f 8 6 3
f 480 453 550
f 1005 927 900
f 530 517 537
f 364 369 304
f 368 405 293
f 224 233 215
f 365 436 477
f 352 349 308
f 28 25 51
f 13 16 12
f 859 747 893
f 33 31 30
f 759 698 689
f 346 324 394
f 305 284 243
f 594 461 557
f 567 601 592
f 685 639 612
f 164 137 120
f 278 310 189
f 564 547 476
f 653 668 704
f 307 267 245
f 350 247 299
f 514 504 433
f 974 935 925
f 812 821 846
f 1024 1019 1022
f 193 200 138
f 244 167 231
f 1027 1025 1028
f 588 559 666
f 366 411 459
f 646 576 681
f 265 230 233
f 219 166 169
f 747 695 727
f 657 585 662
f 834 767 778
f 885 839 764
f 355 292 302
f 919 877 794
f 730 617 728
f 46 13 45
f 763 779 667
f 553 542 486
f 760 734 659
f 455 454 551
f 853 862 878
f 241 166 219
f 32 35 29
f 165 140 138
f 55 216 172
f 558 543 487
f 50 48 23
f 1017 1009 905
f 687 620 484
f 1020 968 967
f 498 494 528
f 172 53 55
f 180 55 153
f 15 14 10
f 478 465 407
f 607 562 540
f 540 474 445
f 192 267 307
f 988 938 908
f 140 83 80
f 114 112 111
f 132 113 108
f 1015 1029 1030
f 937 885 835
f 453 429 496
f 743 712 640
f 1029 1027 1028
f 845 804 799
f 88 82 87
f 389 315 381
f 435 331 392
f 743 832 761
f 329 401 319
f 404 339 403
f 984 981 980
f 403 331 435
f 971 931 922
f 181 119 137
f 115 110 113
f 312 290 251
f 473 367 423
f 1016 937 894
f 707 680 624
f 445 465 503
f 932 923 876
f 692 691 727
f 511 505 524
f 923 950 895
f 961 946 915
f 21 18 17
f 202 175 274
f 283 343 379
f 142 126 160
f 632 605 526
f 561 656 552
f 314 258 242
f 335 280 234
f 905 912 784
f 548 499 545
f 778 767 719
f 319 380 301
f 196 144 171
f 715 835 764
f 590 564 633
f 662 585 616
f 947 1011 1006
f 57 38 40
f 483 312 346
f 245 148 220
f 321 286 264
f 658 635 690
f 627 596 663
f 517 463 458
f 1035 1031 1034
f 557 539 501
f 806 716 819
f 296 235 295
f 37 38 35
f 310 368 255
f 20 21 17
f 987 984 982
f 847 831 734
f 772 807 673
f 740 713 670
f 252 163 218
f 992 940 989
f 901 871 875
f 254 178 239
f 386 325 303
f 412 341 362
f 190 182 261
f 594 557 572
f 101 50 27
f 699 682 753
f 610 530 578
f 53 101 27
f 900 847 784
f 701 673 679
f 687 584 683
f 986 985 1030
f 840 807 858
f 64 8 59
f 902 871 901
f 26 21 20
f 565 571 589
f 987 991 984
f 179 210 155
f 428 352 320
f 346 394 439
f 194 142 160
f 415 397 334
f 186 170 48
f 538 468 511
f 587 611 535
f 349 401 329
f 224 215 139
f 1029 1024 1027
f 262 274 206
f 684 638 626
f 411 384 438
f 859 827 846
f 931 930 906
f 315 328 381
f 511 457 505
f 555 607 540
f 994 894 831
f 523 510 490
f 494 477 447
f 624 577 548
f 894 814 831
f 727 691 810
f 909 921 855
f 938 842 908
f 399 413 347
f 666 559 646
f 34 32 31
f 904 837 829
f 494 516 528
f 416 406 372
f 349 272 308
f 226 199 44
f 149 120 63
f 392 331 338
f 702 628 580
f 306 253 287
f 120 62 63
f 481 456 400
f 726 672 644
f 927 956 847
f 209 289 204
f 722 622 733
f 52 33 30
f 53 27 29
f 994 1034 1016
f 817 775 771
f 294 273 346
f 593 554 518
f 1036 1033 1035
f 230 222 215
f 515 482 463
f 846 811 859
f 479 426 499
f 726 744 672
f 347 269 275
f 223 159 207
f 581 580 513
f 823 817 838
f 878 823 838
f 491 503 478
f 942 854 916
f 37 35 34
f 478 503 465
f 876 833 788
f 549 488 452
f 193 150 185
f 297 202 274
f 173 157 69
f 370 364 269
f 1031 1028 937
f 593 621 554
f 761 729 712
f 463 421 397
f 251 210 179
f 42 13 8
f 657 609 585
f 155 134 145
f 908 820 879
f 285 305 243
f 348 287 317
f 655 598 570
f 928 957 909
f 1015 882 877
f 764 629 715
f 373 344 418
f 795 825 862
f 872 746 809
f 105 108 110
f 276 258 314
f 592 570 473
f 442 358 434
f 732 657 716
f 345 296 315
f 572 557 501
f 323 216 293
f 92 93 96
f 954 975 933
f 124 78 82
f 797 707 836
f 276 208 203
f 687 484 584
f 402 408 363
f 240 148 245
f 621 561 554
f 498 477 494
f 422 345 447
f 176 44 47
f 93 89 96
f 216 238 172
f 535 523 490
f 498 586 596
f 837 909 874
f 38 56 35
f 971 922 950
f 512 435 479
f 724 675 604
f 32 29 26
f 361 325 386
f 33 34 31
f 336 237 333
f 954 887 896
f 555 540 503
f 861 779 763
f 194 160 208
f 767 656 654
f 127 95 98
f 938 898 842
f 791 710 738
f 340 322 290
f 736 699 787
f 393 429 453
f 452 488 415
f 723 588 666
f 349 329 272
f 562 518 474
f 509 374 451
f 402 420 408
f 1026 1014 937
f 798 792 827
f 500 404 403
f 204 237 161
f 607 670 614
f 816 804 845
f 782 710 791
f 326 192 313
f 660 588 723
f 414 319 401
f 604 519 560
f 672 671 632
f 762 848 724
f 648 609 657
f 266 197 286
f 886 892 880
f 157 149 122
f 1006 1003 1002
f 21 23 18
f 126 94 91
f 952 903 889
f 104 100 105
f 543 602 475
f 425 401 349
f 126 91 85
f 66 61 60
f 400 357 342
f 510 433 442
f 677 662 616
f 922 931 899
f 1011 1004 1006
f 812 755 821
f 303 220 202
f 956 994 831
f 963 830 962
f 326 417 351
f 879 819 865
f 112 109 111
f 799 768 750
f 800 805 750
f 498 528 586
f 702 604 628
f 191 161 102
f 441 388 379
f 937 835 894
f 613 591 519
f 637 615 700
f 692 627 691
f 502 470 501
f 422 288 345
f 582 555 503
f 327 270 192
f 470 361 386
f 357 314 242
f 25 26 20
f 730 728 797
f 253 233 244
f 939 855 941
f 669 763 667
f 312 340 290
f 961 915 1008
f 753 786 844
f 729 686 712
f 773 751 755
f 397 375 334
f 7 1 4
f 313 307 325
f 164 120 149
f 47 14 15
f 89 91 94
f 709 679 685
f 738 650 664
f 913 953 861
f 404 335 339
f 121 60 163
f 508 417 467
f 315 296 295
f 89 84 85
f 365 391 436
f 171 188 232
f 723 666 742
f 846 821 811
f 958 943 1038
f 550 641 581
f 206 175 158
f 564 574 633
f 26 24 21
f 998 940 992
f 476 374 509
f 873 816 845
f 299 259 330
f 382 288 422
f 207 45 227
f 715 629 602
f 502 461 470
f 788 713 740
f 883 822 860
f 260 231 174
f 703 702 580
f 722 715 622
f 753 752 786
f 44 43 11
f 595 541 471
f 935 920 865
f 1002 999 997
f 174 125 127
f 366 384 411
f 584 484 455
f 4 1 2
f 223 207 228
f 400 342 388
f 150 121 185
f 414 432 319
f 161 177 127
f 192 240 267
f 579 520 500
f 147 57 40
f 162 206 158
f 805 800 850
f 1031 937 1016
f 750 708 672
f 819 716 662
f 672 708 671
f 664 650 610
f 1038 1033 1036
f 742 694 711
f 793 762 703
f 944 1002 928
f 737 606 678
f 880 881 840
f 580 531 489
f 479 392 426
f 563 492 507
f 433 358 442
f 593 518 562
f 935 911 925
f 288 296 345
f 255 291 180
f 639 634 587
f 309 249 212
f 412 362 369
f 936 979 975
f 886 880 858
f 686 578 655
f 377 278 300
f 758 649 737
f 999 1000 996
f 1013 883 918
f 867 828 797
f 528 516 532
f 410 428 320
f 298 344 373
f 929 867 917
f 141 83 140
f 16 17 12
f 860 803 802
f 514 522 504
f 1013 1042 1044
f 940 898 938
f 17 18 15
f 851 789 781
f 302 208 298
f 618 589 520
f 814 715 722
f 572 501 484
f 275 269 246
f 317 244 260
f 134 114 111
f 206 274 175
f 95 92 97
f 481 400 441
f 977 913 885
f 407 465 399
f 250 143 190
f 910 829 787
f 888 723 824
f 794 700 871
f 671 668 625
f 145 134 116
f 787 774 736
f 142 94 126
f 654 561 621
f 811 696 747
f 1025 1020 1021
f 841 858 772
f 487 475 401
f 860 888 960
f 883 948 822
f 521 594 626
f 855 891 765
f 291 293 214
f 989 981 984
f 908 879 920
f 962 961 1008
f 856 683 808
f 493 446 504
f 837 832 743
f 975 973 972
f 341 379 343
f 744 750 672
f 510 442 434
f 415 360 452
f 756 660 723
f 546 608 491
f 583 536 603
f 474 518 450
f 663 649 758
f 814 835 715
f 969 875 968
f 984 980 979
f 291 214 180
f 174 167 125
f 837 874 832
f 659 693 591
f 989 988 981
f 831 814 733
f 964 830 963
f 426 390 427
f 964 963 1011
f 826 776 842
f 36 34 33
f 356 347 311
f 641 766 676
f 825 801 823
f 456 481 507
f 97 92 96
f 351 328 327
f 1013 918 960
f 772 701 765
f 187 165 203
f 970 902 901
f 906 930 884
f 899 849 834
f 670 652 614
f 530 515 517
f 138 140 77
f 654 661 561
f 459 411 468
f 646 681 694
f 1029 1032 1033
f 782 685 710
f 1019 970 969
f 981 908 920
f 84 81 85
f 124 139 78
f 865 819 780
f 204 161 191
f 280 254 239
f 1019 969 968
f 608 605 625
f 646 559 576
f 748 741 704
f 273 217 254
f 155 114 134
f 924 952 889
f 852 781 818
f 739 620 687
f 164 166 137
f 250 261 337
f 467 417 326
f 153 55 56
f 71 67 70
f 1001 917 955
f 923 895 876
f 356 318 354
f 874 863 843
f 757 683 856
f 531 430 489
f 815 770 783
f 1034 1031 1016
f 974 925 971
f 268 221 241
f 466 497 440
f 678 606 532
f 717 575 611
f 69 72 71
f 1007 1005 900
f 703 762 702
f 536 462 498
f 822 793 766
f 721 648 732
f 691 627 795
f 393 300 398
f 877 838 794
f 616 585 568
f 939 990 926
f 618 520 579
f 766 641 754
f 184 46 159
f 231 167 174
f 672 632 600
f 626 637 720
f 437 262 380
f 806 721 732
f 232 249 338
f 857 816 873
f 28 26 25
f 332 316 306
f 1012 870 793
f 413 372 347
f 471 541 437
f 988 908 981
f 650 556 610
f 246 219 198
f 337 261 353
f 450 466 412
f 854 727 853
f 568 485 597
f 278 205 213
f 385 320 277
f 565 469 483
f 688 740 670
f 543 475 487
f 992 989 991
f 598 537 549
f 160 126 141
f 313 192 307
f 1012 1017 870
f 628 604 560
f 872 889 746
f 591 472 519
f 698 624 630
f 19 16 13
f 101 48 50
f 347 372 269
f 695 690 692
f 972 973 932
f 272 170 211
f 731 768 785
f 965 1011 947
f 548 545 630
f 563 509 492
f 865 780 813
f 855 769 863
f 866 851 852
f 36 37 34
f 1018 966 953
f 461 326 361
f 259 184 223
f 823 749 817
f 712 686 655
f 552 464 497
f 139 173 123
f 463 482 421
f 505 462 533
f 367 360 322
f 832 843 815
f 189 255 57
f 403 435 512
f 741 746 647
f 642 552 656
f 522 493 504
f 461 502 539
f 792 711 773
f 352 425 349
f 527 514 510
f 472 428 410
f 910 904 829
f 424 450 412
f 429 398 448
f 308 272 211
f 857 809 816
f 227 45 192
f 72 67 71
f 792 773 827
f 13 12 9
f 140 80 77
f 93 87 89
f 658 623 635
f 570 549 473
f 679 634 639
f 1036 1035 1037
f 574 509 563
f 326 461 467
f 347 275 311
f 292 309 212
f 120 137 62
f 42 8 64
f 906 884 899
f 240 156 148
f 272 271 170
f 301 262 199
f 316 285 265
f 436 391 383
f 268 218 221
f 192 45 64
f 357 242 342
f 181 163 119
f 929 915 867
f 88 92 95
f 475 486 414
f 408 348 317
f 423 340 312
f 339 256 331
f 836 707 796
f 614 562 607
f 864 753 844
f 983 882 1015
f 212 194 248
f 784 847 760
f 667 619 541
f 480 409 377
f 718 818 781
f 359 402 363
f 824 827 859
f 970 901 969
f 943 893 942
f 483 443 571
f 374 373 451
f 92 88 87
f 907 859 958
f 258 193 242
f 407 399 347
f 878 862 823
f 947 910 830
f 316 305 285
f 348 306 287
f 678 532 599
f 697 623 658
f 727 810 853
f 892 890 866
f 693 674 566
f 570 598 549
f 718 717 611
f 268 282 218
f 79 81 84
f 868 788 746
f 237 279 225
f 466 440 412

