v -2 -2 -0.099999999999999978
v -2 -1.8999999999999999 -0.10999999999999999
v -2 -1.8 -0.11999999999999997
v -2 -1.7 -0.12999999999999998
v -2 -1.6000000000000001 -0.13999999999999996
v -2 -1.5 -0.14999999999999997
v -2 -1.3999999999999999 -0.16
v -2 -1.2999999999999998 -0.17000000000000001
v -2 -1.1000000000000001 -0.18999999999999997
v -2 -0.79999999999999982 -0.22
v -2 -0.69999999999999996 -0.22999999999999998
v -2 -0.59999999999999987 -0.23999999999999999
v -2 -0.5 -0.25
v -2 -0.29999999999999982 -0.27000000000000002
v -2 -0.19999999999999996 -0.27999999999999997
v -2 -0.099999999999999867 -0.28999999999999998
v -2 0 -0.29999999999999999
v -2 0.40000000000000036 -0.34000000000000002
v -2 0.5 -0.34999999999999998
v -2 0.90000000000000036 -0.39000000000000001
v -2 1 -0.40000000000000002
v -2 1.4000000000000004 -0.44000000000000006
v -2 1.5 -0.45000000000000001
v -2 1.9000000000000004 -0.49000000000000005
v -2 2 -0.5
v -1.8999999999999999 -2 -0.084999999999999964
v -1.8999999999999999 -1.8999999999999999 -0.094999999999999973
v -1.8999999999999999 -1.8 -0.10499999999999995
v -1.8999999999999999 -1.7 -0.11499999999999996
v -1.8999999999999999 -1.6000000000000001 -0.12499999999999994
v -1.8999999999999999 -1.5 -0.13499999999999995
v -1.8999999999999999 -1.3999999999999999 -0.14499999999999999
v -1.8999999999999999 -1.2999999999999998 -0.155
v -1.8999999999999999 -1.1000000000000001 -0.17499999999999996
v -1.8999999999999999 -0.79999999999999982 -0.20499999999999999
v -1.8999999999999999 -0.69999999999999996 -0.21499999999999997
v -1.8999999999999999 -0.59999999999999987 -0.22499999999999998
v -1.8999999999999999 -0.5 -0.23499999999999999
v -1.8999999999999999 -0.29999999999999982 -0.255
v -1.8999999999999999 -0.19999999999999996 -0.26499999999999996
v -1.8999999999999999 -0.099999999999999867 -0.27499999999999997
v -1.8999999999999999 0 -0.28499999999999998
v -1.8999999999999999 0.40000000000000036 -0.32500000000000001
v -1.8999999999999999 0.5 -0.33499999999999996
v -1.8999999999999999 0.90000000000000036 -0.375
v -1.8999999999999999 1 -0.38500000000000001
v -1.8999999999999999 1.4000000000000004 -0.42500000000000004
v -1.8999999999999999 1.5 -0.435
v -1.8999999999999999 1.9000000000000004 -0.47500000000000003
v -1.8999999999999999 2 -0.48499999999999999
v -1.8 -2 -0.070000000000000007
v -1.8 -1.8999999999999999 -0.080000000000000016
v -1.8 -1.8 -0.089999999999999997
v -1.8 -1.7 -0.10000000000000001
v -1.8 -1.6000000000000001 -0.10999999999999999
v -1.8 -1.5 -0.12
v -1.8 -1.3999999999999999 -0.13000000000000003
v -1.8 -1.2999999999999998 -0.14000000000000004
v -1.8 -1.1000000000000001 -0.16
v -1.8 -0.79999999999999982 -0.19000000000000003
v -1.8 -0.69999999999999996 -0.20000000000000001
v -1.8 -0.59999999999999987 -0.21000000000000002
v -1.8 -0.5 -0.22000000000000003
v -1.8 -0.29999999999999982 -0.24000000000000005
v -1.8 -0.19999999999999996 -0.25
v -1.8 -0.099999999999999867 -0.26000000000000001
v -1.8 0 -0.27000000000000002
v -1.8 0.40000000000000036 -0.31000000000000005
v -1.8 0.5 -0.32000000000000001
v -1.8 0.90000000000000036 -0.36000000000000004
v -1.8 1 -0.37
v -1.8 1.4000000000000004 -0.41000000000000003
v -1.8 1.5 -0.42000000000000004
v -1.8 1.9000000000000004 -0.46000000000000008
v -1.8 2 -0.47000000000000003
v -1.7 -2 -0.054999999999999993
v -1.7 -1.8999999999999999 -0.065000000000000002
v -1.7 -1.8 -0.074999999999999983
v -1.7 -1.7 -0.084999999999999992
v -1.7 -1.6000000000000001 -0.094999999999999973
v -1.7 -1.5 -0.10499999999999998
v -1.7 -1.3999999999999999 -0.11500000000000002
v -1.7 -1.2999999999999998 -0.12500000000000003
v -1.7 -1.1000000000000001 -0.14499999999999999
v -1.7 -0.79999999999999982 -0.17500000000000002
v -1.7 -0.69999999999999996 -0.185
v -1.7 -0.59999999999999987 -0.19500000000000001
v -1.7 -0.5 -0.20500000000000002
v -1.7 -0.29999999999999982 -0.22500000000000003
v -1.7 -0.19999999999999996 -0.23500000000000001
v -1.7 -0.099999999999999867 -0.24500000000000002
v -1.7 0 -0.255
v -1.7 0.40000000000000036 -0.29500000000000004
v -1.7 0.5 -0.30499999999999999
v -1.7 0.90000000000000036 -0.34500000000000003
v -1.7 1 -0.35499999999999998
v -1.7 1.4000000000000004 -0.39500000000000002
v -1.7 1.5 -0.40500000000000003
v -1.7 1.9000000000000004 -0.44500000000000006
v -1.7 2 -0.45500000000000002
v -1.6000000000000001 -2 -0.03999999999999998
v -1.6000000000000001 -1.8999999999999999 -0.049999999999999989
v -1.6000000000000001 -1.8 -0.05999999999999997
v -1.6000000000000001 -1.7 -0.069999999999999979
v -1.6000000000000001 -1.6000000000000001 -0.07999999999999996
v -1.6000000000000001 -1.5 -0.089999999999999969
v -1.6000000000000001 -1.3999999999999999 -0.10000000000000001
v -1.6000000000000001 -1.2999999999999998 -0.11000000000000001
v -1.6000000000000001 -1.1000000000000001 -0.12999999999999998
v -1.6000000000000001 -0.79999999999999982 -0.16
v -1.6000000000000001 -0.69999999999999996 -0.16999999999999998
v -1.6000000000000001 -0.59999999999999987 -0.17999999999999999
v -1.6000000000000001 -0.5 -0.19
v -1.6000000000000001 -0.29999999999999982 -0.21000000000000002
v -1.6000000000000001 -0.19999999999999996 -0.22
v -1.6000000000000001 -0.099999999999999867 -0.23000000000000001
v -1.6000000000000001 0 -0.23999999999999999
v -1.6000000000000001 0.40000000000000036 -0.28000000000000003
v -1.6000000000000001 0.5 -0.28999999999999998
v -1.6000000000000001 0.90000000000000036 -0.33000000000000002
v -1.6000000000000001 1 -0.33999999999999997
v -1.6000000000000001 1.4000000000000004 -0.38
v -1.6000000000000001 1.5 -0.39000000000000001
v -1.6000000000000001 1.9000000000000004 -0.43000000000000005
v -1.6000000000000001 2 -0.44
v -1.5 -2 -0.024999999999999967
v -1.5 -1.8999999999999999 -0.034999999999999976
v -1.5 -1.8 -0.044999999999999957
v -1.5 -1.7 -0.054999999999999966
v -1.5 -1.6000000000000001 -0.064999999999999947
v -1.5 -1.5 -0.074999999999999956
v -1.5 -1.3999999999999999 -0.084999999999999992
v -1.5 -1.2999999999999998 -0.095000000000000001
v -1.5 -1.1000000000000001 -0.11499999999999996
v -1.5 -0.79999999999999982 -0.14499999999999999
v -1.5 -0.69999999999999996 -0.15499999999999997
v -1.5 -0.59999999999999987 -0.16499999999999998
v -1.5 -0.29999999999999982 -0.19500000000000001
v -1.5 -0.19999999999999996 -0.20499999999999999
v -1.5 -0.099999999999999867 -0.215
v -1.5 0 -0.22499999999999998
v -1.5 0.30000000000000027 -0.255
v -1.5 0.40000000000000036 -0.26500000000000001
v -1.5 0.5 -0.27499999999999997
v -1.5 0.90000000000000036 -0.315
v -1.5 1 -0.32499999999999996
v -1.5 1.4000000000000004 -0.36499999999999999
v -1.5 1.9000000000000004 -0.41500000000000004
v -1.5 2 -0.42499999999999999
v -1.3999999999999999 -2 -0.0099999999999999811
v -1.3999999999999999 -1.8999999999999999 -0.01999999999999999
v -1.3999999999999999 -1.8 -0.029999999999999971
v -1.3999999999999999 -1.7 -0.03999999999999998
v -1.3999999999999999 -1.6000000000000001 -0.049999999999999961
v -1.3999999999999999 -1.5 -0.05999999999999997
v -1.3999999999999999 -1.3999999999999999 -0.070000000000000007
v -1.3999999999999999 -1.2999999999999998 -0.080000000000000016
v -1.3999999999999999 -1.1000000000000001 -0.099999999999999978
v -1.3999999999999999 -0.79999999999999982 -0.13
v -1.3999999999999999 -0.69999999999999996 -0.14000000000000001
v -1.3999999999999999 -0.59999999999999987 -0.14999999999999999
v -1.3999999999999999 -0.5 -0.15999999999999998
v -1.3999999999999999 -0.19999999999999996 -0.19
v -1.3999999999999999 -0.099999999999999867 -0.20000000000000001
v -1.3999999999999999 0 -0.20999999999999999
v -1.3999999999999999 0.30000000000000027 -0.24000000000000002
v -1.3999999999999999 0.40000000000000036 -0.25
v -1.3999999999999999 0.5 -0.26000000000000001
v -1.3999999999999999 0.90000000000000036 -0.30000000000000004
v -1.3999999999999999 1 -0.31
v -1.3999999999999999 1.4000000000000004 -0.35000000000000003
v -1.3999999999999999 1.5 -0.35999999999999999
v -1.3999999999999999 2 -0.41000000000000003
v -1.2999999999999998 -2 0.0050000000000000322
v -1.2999999999999998 -1.8999999999999999 -0.0049999999999999767
v -1.2999999999999998 -1.8 -0.014999999999999958
v -1.2999999999999998 -1.7 -0.024999999999999967
v -1.2999999999999998 -1.6000000000000001 -0.034999999999999948
v -1.2999999999999998 -1.5 -0.044999999999999957
v -1.2999999999999998 -1.3999999999999999 -0.054999999999999993
v -1.2999999999999998 -0.69999999999999996 -0.12499999999999999
v -1.2999999999999998 -0.59999999999999987 -0.13499999999999998
v -1.2999999999999998 -0.5 -0.14499999999999996
v -1.2999999999999998 -0.29999999999999982 -0.16499999999999998
v -1.2999999999999998 -0.19999999999999996 -0.17499999999999999
v -1.2999999999999998 -0.099999999999999867 -0.185
v -1.2999999999999998 0 -0.19499999999999998
v -1.2999999999999998 0.40000000000000036 -0.23500000000000001
v -1.2999999999999998 0.5 -0.245
v -1.2999999999999998 0.90000000000000036 -0.28500000000000003
v -1.2999999999999998 1 -0.29499999999999998
v -1.2999999999999998 1.4000000000000004 -0.33500000000000002
v -1.2999999999999998 1.5 -0.34499999999999997
v -1.2999999999999998 1.9000000000000004 -0.38500000000000001
v -1.2999999999999998 2 -0.39500000000000002
v -1.2 -0.59999999999999987 -0.12
v -1.2 -0.5 -0.13
v -1.2 -0.29999999999999982 -0.15000000000000002
v -1.2 -0.19999999999999996 -0.16
v -1.2 0.40000000000000036 -0.22000000000000003
v -1.2 0.5 -0.22999999999999998
v -1.2 0.90000000000000036 -0.27000000000000002
v -1.2 1 -0.28000000000000003
v -1.2 1.4000000000000004 -0.32000000000000006
v -1.2 1.9000000000000004 -0.37000000000000005
v -1.2 2 -0.38
v -1.1000000000000001 -2 0.035000000000000003
v -1.1000000000000001 -1.8999999999999999 0.024999999999999994
v -1.1000000000000001 -1.8 0.015000000000000013
v -1.1000000000000001 -1.7 0.0050000000000000044
v -1.1000000000000001 -1.6000000000000001 -0.0049999999999999767
v -1.1000000000000001 -1.5 -0.014999999999999986
v -1.1000000000000001 -0.5 -0.115
v -1.1000000000000001 -0.39999999999999991 -0.125
v -1.1000000000000001 -0.29999999999999982 -0.13500000000000001
v -1.1000000000000001 -0.19999999999999996 -0.14500000000000002
v -1.1000000000000001 -0.099999999999999867 -0.15500000000000003
v -1.1000000000000001 0 -0.16500000000000001
v -1.1000000000000001 0.40000000000000036 -0.20500000000000004
v -1.1000000000000001 0.5 -0.21500000000000002
v -1.1000000000000001 0.90000000000000036 -0.25500000000000006
v -1.1000000000000001 1 -0.26500000000000001
v -1.1000000000000001 1.4000000000000004 -0.30500000000000005
v -1.1000000000000001 1.5 -0.31500000000000006
v -1.1000000000000001 1.9000000000000004 -0.35500000000000009
v -1.1000000000000001 2 -0.36499999999999999
v -1 -0.39999999999999991 -0.11
v -1 -0.29999999999999982 -0.12000000000000001
v -1 -0.19999999999999996 -0.13
v -0.79999999999999982 -2 0.080000000000000043
v -0.79999999999999982 -1.8999999999999999 0.070000000000000034
v -0.79999999999999982 -1.8 0.060000000000000053
v -0.79999999999999982 -1.7 0.050000000000000044
v -0.79999999999999982 -1.6000000000000001 0.040000000000000063
v -0.79999999999999982 -1.5 0.030000000000000054
v -0.79999999999999982 -0.19999999999999996 -0.099999999999999978
v -0.79999999999999982 -0.099999999999999867 -0.10999999999999999
v -0.79999999999999982 0 -0.11999999999999997
v -0.79999999999999982 0.10000000000000009 -0.12999999999999998
v -0.79999999999999982 0.40000000000000036 -0.16
v -0.79999999999999982 0.5 -0.16999999999999998
v -0.79999999999999982 0.90000000000000036 -0.21000000000000002
v -0.79999999999999982 1 -0.21999999999999997
v -0.79999999999999982 1.4000000000000004 -0.26000000000000001
v -0.79999999999999982 1.5 -0.27000000000000002
v -0.79999999999999982 1.9000000000000004 -0.31000000000000005
v -0.79999999999999982 2 -0.31999999999999995
v -0.69999999999999996 -2 0.095000000000000015
v -0.69999999999999996 -1.8999999999999999 0.085000000000000006
v -0.69999999999999996 -1.8 0.075000000000000025
v -0.69999999999999996 -1.7 0.065000000000000016
v -0.69999999999999996 -1.6000000000000001 0.055000000000000035
v -0.69999999999999996 -1.5 0.045000000000000026
v -0.69999999999999996 -0.099999999999999867 -0.095000000000000001
v -0.69999999999999996 0 -0.105
v -0.69999999999999996 0.10000000000000009 -0.115
v -0.69999999999999996 0.20000000000000018 -0.125
v -0.69999999999999996 0.30000000000000027 -0.13500000000000001
v -0.69999999999999996 0.40000000000000036 -0.14500000000000002
v -0.69999999999999996 0.5 -0.155
v -0.69999999999999996 0.90000000000000036 -0.19500000000000003
v -0.69999999999999996 1 -0.20500000000000002
v -0.69999999999999996 1.4000000000000004 -0.24500000000000005
v -0.69999999999999996 1.5 -0.255
v -0.69999999999999996 1.9000000000000004 -0.29500000000000004
v -0.69999999999999996 2 -0.30499999999999999
v -0.59999999999999987 -2 0.11000000000000003
v -0.59999999999999987 -1.8999999999999999 0.10000000000000002
v -0.59999999999999987 -1.8 0.090000000000000038
v -0.59999999999999987 -1.7 0.080000000000000029
v -0.59999999999999987 -1.6000000000000001 0.070000000000000048
v -0.59999999999999987 -1.5 0.060000000000000039
v -0.59999999999999987 -1.3999999999999999 0.050000000000000003
v -0.59999999999999987 0 -0.089999999999999983
v -0.59999999999999987 0.20000000000000018 -0.11
v -0.59999999999999987 0.30000000000000027 -0.12000000000000001
v -0.59999999999999987 0.40000000000000036 -0.13
v -0.59999999999999987 0.5 -0.13999999999999999
v -0.59999999999999987 0.90000000000000036 -0.18000000000000002
v -0.59999999999999987 1 -0.19
v -0.59999999999999987 1.4000000000000004 -0.23000000000000004
v -0.59999999999999987 1.5 -0.23999999999999999
v -0.59999999999999987 1.9000000000000004 -0.28000000000000003
v -0.59999999999999987 2 -0.28999999999999998
v -0.5 -2 0.125
v -0.5 -1.8999999999999999 0.115
v -0.5 -1.8 0.10500000000000002
v -0.5 -1.7 0.095000000000000015
v -0.5 -1.6000000000000001 0.085000000000000034
v -0.5 -1.5 0.075000000000000025
v -0.5 -1.3999999999999999 0.064999999999999988
v -0.5 -1.2999999999999998 0.054999999999999979
v -0.5 0.40000000000000036 -0.11500000000000003
v -0.5 0.5 -0.125
v -0.5 0.90000000000000036 -0.16500000000000004
v -0.5 1 -0.17499999999999999
v -0.5 1.4000000000000004 -0.21500000000000002
v -0.5 1.5 -0.22500000000000003
v -0.5 1.9000000000000004 -0.26500000000000007
v -0.5 2 -0.27500000000000002
v -0.39999999999999991 -1.8999999999999999 0.13
v -0.39999999999999991 -1.8 0.12000000000000004
v -0.39999999999999991 -1.7 0.11000000000000003
v -0.29999999999999982 -2 0.15500000000000003
v -0.29999999999999982 -1.8999999999999999 0.14500000000000002
v -0.29999999999999982 -1.8 0.13500000000000006
v -0.29999999999999982 -1.7 0.12500000000000006
v -0.29999999999999982 -1.6000000000000001 0.11500000000000006
v -0.29999999999999982 -1.5 0.10500000000000005
v -0.29999999999999982 -1.3999999999999999 0.095000000000000015
v -0.29999999999999982 -1.2999999999999998 0.085000000000000006
v -0.29999999999999982 -1.1000000000000001 0.065000000000000044
v -0.29999999999999982 0.30000000000000027 -0.074999999999999997
v -0.29999999999999982 0.40000000000000036 -0.085000000000000006
v -0.29999999999999982 0.5 -0.094999999999999973
v -0.29999999999999982 0.90000000000000036 -0.13500000000000001
v -0.29999999999999982 1 -0.14499999999999996
v -0.29999999999999982 1.4000000000000004 -0.185
v -0.29999999999999982 1.5 -0.19500000000000001
v -0.29999999999999982 1.9000000000000004 -0.23500000000000004
v -0.29999999999999982 2 -0.245
v -0.19999999999999996 -2 0.17000000000000001
v -0.19999999999999996 -1.8999999999999999 0.16
v -0.19999999999999996 -1.8 0.15000000000000002
v -0.19999999999999996 -1.7 0.14000000000000001
v -0.19999999999999996 -1.6000000000000001 0.13000000000000003
v -0.19999999999999996 -1.5 0.12000000000000002
v -0.19999999999999996 -1.3999999999999999 0.10999999999999999
v -0.19999999999999996 -1.2999999999999998 0.099999999999999978
v -0.19999999999999996 -1.1000000000000001 0.080000000000000016
v -0.19999999999999996 -1 0.070000000000000007
v -0.19999999999999996 0.40000000000000036 -0.070000000000000034
v -0.19999999999999996 0.5 -0.079999999999999988
v -0.19999999999999996 0.90000000000000036 -0.12000000000000002
v -0.19999999999999996 1 -0.13
v -0.19999999999999996 1.4000000000000004 -0.17000000000000004
v -0.19999999999999996 1.5 -0.18000000000000002
v -0.19999999999999996 1.9000000000000004 -0.22000000000000006
v -0.19999999999999996 2 -0.23000000000000001
v -0.099999999999999867 -2 0.18500000000000003
v -0.099999999999999867 -1.8999999999999999 0.17500000000000002
v -0.099999999999999867 -1.8 0.16500000000000004
v -0.099999999999999867 -1.7 0.15500000000000003
v -0.099999999999999867 -1.6000000000000001 0.14500000000000005
v -0.099999999999999867 -1.5 0.13500000000000004
v -0.099999999999999867 -1.3999999999999999 0.125
v -0.099999999999999867 -1.2999999999999998 0.11499999999999999
v -0.099999999999999867 -1.1000000000000001 0.095000000000000029
v -0.099999999999999867 -0.89999999999999991 0.075000000000000011
v -0.099999999999999867 0.5 -0.064999999999999974
v -0.099999999999999867 0.90000000000000036 -0.10500000000000001
v -0.099999999999999867 1 -0.11499999999999999
v -0.099999999999999867 1.4000000000000004 -0.15500000000000003
v -0.099999999999999867 1.5 -0.16500000000000001
v -0.099999999999999867 1.9000000000000004 -0.20500000000000004
v -0.099999999999999867 2 -0.215
v 0 -2 0.20000000000000001
v 0 -1.8999999999999999 0.19
v 0 -1.8 0.18000000000000002
v 0 -1.7 0.17000000000000001
v 0 -1.6000000000000001 0.16000000000000003
v 0 -1.5 0.15000000000000002
v 0 -1.3999999999999999 0.13999999999999999
v 0 -1.2999999999999998 0.12999999999999998
v 0 -1.1000000000000001 0.11000000000000001
v 0 -0.79999999999999982 0.079999999999999988
v 0 0.90000000000000036 -0.090000000000000038
v 0 1 -0.10000000000000001
v 0 1.4000000000000004 -0.14000000000000004
v 0 1.5 -0.15000000000000002
v 0 1.9000000000000004 -0.19000000000000006
v 0 2 -0.20000000000000001
v 0.30000000000000027 -0.79999999999999982 0.12500000000000003
v 0.30000000000000027 -0.69999999999999996 0.11500000000000003
v 0.40000000000000036 -2 0.26000000000000006
v 0.40000000000000036 -1.8999999999999999 0.25000000000000006
v 0.40000000000000036 -1.8 0.24000000000000007
v 0.40000000000000036 -1.7 0.23000000000000007
v 0.40000000000000036 -1.6000000000000001 0.22000000000000008
v 0.40000000000000036 -1.5 0.21000000000000008
v 0.40000000000000036 -1.3999999999999999 0.20000000000000004
v 0.40000000000000036 -1.2999999999999998 0.19000000000000003
v 0.40000000000000036 -1.2 0.18000000000000005
v 0.40000000000000036 -1.1000000000000001 0.17000000000000007
v 0.40000000000000036 -0.79999999999999982 0.14000000000000004
v 0.40000000000000036 -0.69999999999999996 0.13000000000000006
v 0.40000000000000036 -0.59999999999999987 0.12000000000000005
v 0.40000000000000036 -0.5 0.11000000000000006
v 0.40000000000000036 1 -0.039999999999999952
v 0.40000000000000036 1.4000000000000004 -0.079999999999999988
v 0.40000000000000036 1.5 -0.089999999999999969
v 0.40000000000000036 1.9000000000000004 -0.13
v 0.40000000000000036 2 -0.13999999999999996
v 0.5 -2 0.27500000000000002
v 0.5 -1.8999999999999999 0.26500000000000001
v 0.5 -1.8 0.255
v 0.5 -1.7 0.245
v 0.5 -1.6000000000000001 0.23500000000000004
v 0.5 -1.5 0.22500000000000003
v 0.5 -1.3999999999999999 0.21499999999999997
v 0.5 -1.2999999999999998 0.20499999999999996
v 0.5 -1.2 0.19500000000000001
v 0.5 -1.1000000000000001 0.185
v 0.5 -0.79999999999999982 0.15499999999999997
v 0.5 -0.69999999999999996 0.14499999999999999
v 0.5 -0.59999999999999987 0.13499999999999998
v 0.5 -0.5 0.125
v 0.5 -0.29999999999999982 0.10499999999999998
v 0.5 1.4000000000000004 -0.065000000000000044
v 0.5 1.5 -0.075000000000000025
v 0.5 1.9000000000000004 -0.11500000000000006
v 0.5 2 -0.125
v 0.60000000000000009 2 -0.11
v 0.80000000000000027 -1.7 0.29000000000000004
v 0.80000000000000027 -1.6000000000000001 0.28000000000000008
v 0.80000000000000027 -1.5 0.27000000000000007
v 0.80000000000000027 -1.2999999999999998 0.25
v 0.80000000000000027 -1.2 0.24000000000000005
v 0.80000000000000027 -0.79999999999999982 0.20000000000000001
v 0.80000000000000027 -0.69999999999999996 0.19000000000000003
v 0.80000000000000027 -0.29999999999999982 0.15000000000000002
v 0.80000000000000027 -0.19999999999999996 0.14000000000000004
v 0.80000000000000027 -0.099999999999999867 0.13000000000000003
v 0.80000000000000027 0 0.12000000000000004
v 0.80000000000000027 1.4000000000000004 -0.020000000000000004
v 0.80000000000000027 1.5 -0.029999999999999985
v 0.80000000000000027 1.9000000000000004 -0.070000000000000021
v 0.80000000000000027 2 -0.079999999999999974
v 0.90000000000000036 -2 0.33500000000000008
v 0.90000000000000036 -1.8999999999999999 0.32500000000000007
v 0.90000000000000036 -1.8 0.31500000000000006
v 0.90000000000000036 -1.7 0.30500000000000005
v 0.90000000000000036 -1.6000000000000001 0.29500000000000004
v 0.90000000000000036 -1.5 0.28500000000000003
v 0.90000000000000036 -1.3999999999999999 0.27500000000000002
v 0.90000000000000036 -1.2999999999999998 0.26500000000000001
v 0.90000000000000036 -1.2 0.255
v 0.90000000000000036 -1.1000000000000001 0.24500000000000005
v 0.90000000000000036 -0.79999999999999982 0.21500000000000002
v 0.90000000000000036 -0.69999999999999996 0.20500000000000002
v 0.90000000000000036 -0.59999999999999987 0.19500000000000003
v 0.90000000000000036 -0.5 0.18500000000000005
v 0.90000000000000036 -0.29999999999999982 0.16500000000000004
v 0.90000000000000036 -0.19999999999999996 0.15500000000000003
v 0.90000000000000036 -0.099999999999999867 0.14500000000000002
v 0.90000000000000036 0 0.13500000000000004
v 0.90000000000000036 1.4000000000000004 -0.0050000000000000044
v 0.90000000000000036 1.5 -0.014999999999999986
v 0.90000000000000036 1.9000000000000004 -0.055000000000000021
v 0.90000000000000036 2 -0.064999999999999974
v 1 -2 0.34999999999999998
v 1 -1.8999999999999999 0.33999999999999997
v 1 -1.8 0.33000000000000002
v 1 -1.7 0.32000000000000001
v 1 -1.6000000000000001 0.31000000000000005
v 1 -1.5 0.30000000000000004
v 1 -1.3999999999999999 0.28999999999999998
v 1 -1.2999999999999998 0.27999999999999997
v 1 -1.2 0.27000000000000002
v 1 -1.1000000000000001 0.26000000000000001
v 1 -0.79999999999999982 0.22999999999999998
v 1 -0.69999999999999996 0.21999999999999997
v 1 -0.59999999999999987 0.20999999999999999
v 1 -0.5 0.20000000000000001
v 1 -0.29999999999999982 0.17999999999999999
v 1 -0.19999999999999996 0.16999999999999998
v 1 -0.099999999999999867 0.15999999999999998
v 1 0 0.14999999999999999
v 1 1.5 -2.7755575615628914e-17
v 1 1.9000000000000004 -0.040000000000000063
v 1 2 -0.050000000000000017
v 1.2000000000000002 -0.69999999999999996 0.25
v 1.2000000000000002 -0.59999999999999987 0.24000000000000002
v 1.3000000000000003 -0.59999999999999987 0.255
v 1.3000000000000003 -0.5 0.24500000000000005
v 1.4000000000000004 -2 0.41000000000000003
v 1.4000000000000004 -1.8999999999999999 0.40000000000000002
v 1.4000000000000004 -1.8 0.39000000000000007
v 1.4000000000000004 -1.7 0.38000000000000006
v 1.4000000000000004 -1.6000000000000001 0.37000000000000011
v 1.4000000000000004 -1.5 0.3600000000000001
v 1.4000000000000004 -1.3999999999999999 0.35000000000000003
v 1.4000000000000004 -1.2999999999999998 0.34000000000000002
v 1.4000000000000004 -1.2 0.33000000000000007
v 1.4000000000000004 -1.1000000000000001 0.32000000000000006
v 1.4000000000000004 -0.79999999999999982 0.29000000000000004
v 1.4000000000000004 -0.69999999999999996 0.28000000000000003
v 1.4000000000000004 -0.59999999999999987 0.27000000000000002
v 1.4000000000000004 -0.5 0.26000000000000006
v 1.4000000000000004 -0.29999999999999982 0.24000000000000005
v 1.4000000000000004 -0.19999999999999996 0.23000000000000004
v 1.4000000000000004 -0.099999999999999867 0.22000000000000003
v 1.4000000000000004 0 0.21000000000000005
v 1.4000000000000004 0.40000000000000036 0.17000000000000001
v 1.4000000000000004 0.5 0.16000000000000003
v 1.4000000000000004 1.4000000000000004 0.070000000000000007
v 1.4000000000000004 1.5 0.060000000000000026
v 1.4000000000000004 1.9000000000000004 0.01999999999999999
v 1.4000000000000004 2 0.010000000000000037
v 1.5 -2 0.42499999999999999
v 1.5 -1.8999999999999999 0.41499999999999998
v 1.5 -1.8 0.40500000000000003
v 1.5 -1.7 0.39500000000000002
v 1.5 -1.6000000000000001 0.38500000000000001
v 1.5 -1.3999999999999999 0.36499999999999999
v 1.5 -1.2999999999999998 0.35499999999999998
v 1.5 -1.2 0.34499999999999997
v 1.5 -1.1000000000000001 0.33499999999999996
v 1.5 -0.79999999999999982 0.30499999999999994
v 1.5 -0.69999999999999996 0.29499999999999998
v 1.5 -0.59999999999999987 0.28499999999999998
v 1.5 -0.5 0.27499999999999997
v 1.5 -0.29999999999999982 0.25499999999999995
v 1.5 -0.19999999999999996 0.24499999999999997
v 1.5 -0.099999999999999867 0.23499999999999996
v 1.5 0 0.22499999999999998
v 1.5 0.40000000000000036 0.18499999999999994
v 1.5 0.5 0.17499999999999999
v 1.5 1.4000000000000004 0.084999999999999937
v 1.5 1.5 0.074999999999999956
v 1.5 1.9000000000000004 0.03499999999999992
v 1.5 2 0.024999999999999967
v 1.6000000000000001 -0.19999999999999996 0.26000000000000001
v 1.6000000000000001 -0.099999999999999867 0.24999999999999997
v 1.7000000000000002 -0.099999999999999867 0.26500000000000001
v 1.7000000000000002 0 0.255
v 1.9000000000000004 -2 0.48500000000000004
v 1.9000000000000004 -1.8999999999999999 0.47500000000000003
v 1.9000000000000004 -1.8 0.46500000000000008
v 1.9000000000000004 -1.7 0.45500000000000007
v 1.9000000000000004 -1.6000000000000001 0.44500000000000006
v 1.9000000000000004 -1.5 0.43500000000000005
v 1.9000000000000004 -1.2999999999999998 0.41500000000000004
v 1.9000000000000004 -1.2 0.40500000000000003
v 1.9000000000000004 -1.1000000000000001 0.39500000000000002
v 1.9000000000000004 -0.79999999999999982 0.36499999999999999
v 1.9000000000000004 -0.69999999999999996 0.35500000000000004
v 1.9000000000000004 -0.59999999999999987 0.34500000000000003
v 1.9000000000000004 -0.5 0.33500000000000002
v 1.9000000000000004 -0.29999999999999982 0.315
v 1.9000000000000004 -0.19999999999999996 0.30500000000000005
v 1.9000000000000004 -0.099999999999999867 0.29500000000000004
v 1.9000000000000004 0 0.28500000000000003
v 1.9000000000000004 0.40000000000000036 0.245
v 1.9000000000000004 0.5 0.23500000000000004
v 1.9000000000000004 0.90000000000000036 0.19500000000000001
v 1.9000000000000004 1 0.18500000000000003
v 1.9000000000000004 1.4000000000000004 0.14499999999999999
v 1.9000000000000004 1.5 0.13500000000000001
v 1.9000000000000004 1.9000000000000004 0.094999999999999973
v 1.9000000000000004 2 0.08500000000000002
v 2 -2 0.5
v 2 -1.8999999999999999 0.48999999999999999
v 2 -1.8 0.47999999999999998
v 2 -1.7 0.46999999999999997
v 2 -1.6000000000000001 0.46000000000000002
v 2 -1.5 0.45000000000000001
v 2 -1.3999999999999999 0.43999999999999995
v 2 -1.2999999999999998 0.42999999999999994
v 2 -1.2 0.41999999999999998
v 2 -1.1000000000000001 0.41000000000000003
v 2 -0.79999999999999982 0.38
v 2 -0.69999999999999996 0.37
v 2 -0.59999999999999987 0.35999999999999999
v 2 -0.5 0.34999999999999998
v 2 -0.29999999999999982 0.32999999999999996
v 2 -0.19999999999999996 0.32000000000000001
v 2 -0.099999999999999867 0.31
v 2 0 0.29999999999999999
v 2 0.40000000000000036 0.25999999999999995
v 2 0.5 0.25
v 2 0.90000000000000036 0.20999999999999996
v 2 1 0.19999999999999998
v 2 1.4000000000000004 0.15999999999999995
v 2 1.5 0.14999999999999997
v 2 1.9000000000000004 0.10999999999999993
v 2 2 0.099999999999999978
v -2 -2 -0.90000000000000002
v -2 2 -0.90000000000000002
v 2 -2 -0.90000000000000002
v 2 2 -0.90000000000000002
v -1 -1.3680117784833934 -0.14545556584642799
v -1 -1 -0.24999999999999994
v -0.64999999999999991 -1.2163118960624633 -0.11631189606246312
v -1.3500000000000001 -1.2163118960624633 -0.11631189606246312
v 1 1.3680117784833934 -0.045455565846427959
v 1 1 -0.14999999999999991
v 1.3500000000000001 0.78368810393753674 -0.016311896062463083
v 1.3500000000000001 1.2163118960624633 -0.016311896062463083
v -1.2999999999999998 -1.310575989756088 -0.063942401024391179
v -0.67926612691185129 -1.4000000000000001 0.038110080963222298
v -0.69999999999999996 -1.4195819912499181 0.036958199124991813
v -1.3125762934494942 -1.2999999999999998 -0.066886444017424149
v -0.59999999999999987 -1.3251375468054736 0.042513754680547369
v 0.40000000000000036 -0.32790821442807327 0.092790821442807384
v -0.64500415857024651 -0.099999999999999881 -0.086750623785536995
v -0.69999999999999984 -0.15499584142975331 -0.089500415857024646
v -1.3206166582358148 -1.293238483504155 -0.068768650384956678
v 1.4000000000000006 0.67209178557192684 0.14279082144280736
v 0.35499584142975382 0.90000000000000047 -0.036750623785536972
v -0.59999999999999987 -0.054995841429753244 -0.084500415857024655
v 1.4000000000000004 1.2660216292044781 0.083397837079552214
v -1.3707727407297909 -1.2291501558729632 -0.082700895522172316
v 0.40000000000000036 0.94500415857024689 -0.034500415857024638
v -0.57338377397067453 -1.2999999999999998 0.043992433904398782
v 0.42790821442807375 -0.29999999999999982 0.094186232164211042
v -1.3838839913398835 -1.1864510518497062 -0.088937493516011906
v -0.5 -1.2279082144280735 0.047790821442807364
v -0.55012798279320396 -1.2780361972212775 0.045284422303147151
v -1.3748587993023695 -1.1000000000000001 -0.096228819895355408
v 1.3021238957126868 1.3416531643355842 0.061153267923344565
v -0.54500415857024664 -0 -0.081750623785536991
v 0.5 -0.2279082144280736 0.09779082144280736
v -0.5 0.045004158570246623 -0.079500415857024664
v 0.45499584142975352 1 -0.031750623785536988
v 1.4498720172067963 0.72196380277872252 0.14528442230314714
v 0.5 1.0450041585702465 -0.029500415857024658
v 0.52790821442807367 -0.19999999999999996 0.099186232164211061
v 1.5 0.85106346554159618 0.13989365344584034
v -1.3500000000000003 -0.86188103937536897 -0.11631189606246312
v 1.5000000000000002 1.1024193393530783 0.11475806606469213
v -1.3383674824957426 -0.79999999999999982 -0.12075512237436141
v -1.2999999999999996 -0.75499584142975318 -0.11950041585702466
v -1.3368310940064496 -0.79182693543620308 -0.12134197055734715
v -0.37209178557192651 -1.1000000000000001 0.054186232164211048
v 1.4135235530536305 1.2555716109357642 0.086471371864468155
v 0.62790821442807376 -0.099999999999999881 0.10418623216421105
v -0.29999999999999982 -1.0279082144280733 0.05779082144280738
v 1.5190015194834063 0.90000000000000036 0.13785022792251089
v -1.2450041585702465 -0.69999999999999996 -0.11675062378553699
v -0.29999999999999982 0.24500415857024677 -0.069500415857024656
v 1.5382583010229427 0.94959393664230074 0.1357793514892113
v 1.5305964777531442 1 0.12958947166297161
v -0.27209178557192643 -1 0.059186232164211046
v 0.69117047043047031 1.2341563404153684 -0.019740063476966285
v 0.66316890599355038 1.2081730645637969 -0.021341970557347149
v -1.1108553793954798 -1.4696364933906505 -0.01966465757025692
v -1.1000000000000001 -1.4710675965867301 -0.017893240341326975
v -0.19999999999999996 -0.92790821442807359 0.062790821442807371
v 0.72790821442807363 0 0.10918623216421103
v 1.5205644914656611 1.0659990342512513 0.121484770294724
v -1.1936626622949773 -1.3999999999999997 -0.039049399344246616
v -0.24500415857024635 0.30000000000000027 -0.066750623785536978
v 0.80000000000000027 0.072091785571926706 0.11279082144280737
v -0.19999999999999996 0.34500415857024663 -0.064500415857024651
v 0.80000000000000027 1.3048470391231024 -0.010484703912310198
v -0.17209178557192631 -0.90000000000000002 0.064186232164211043
v -1.1450041585702466 -0.59999999999999987 -0.11175062378553698
v -0.099999999999999867 -0.82790821442807339 0.067790821442807361
v -1.1000000000000001 -0.55499584142975344 -0.10950041585702465
v 0.90000000000000047 0.17209178557192678 0.11779082144280736
v -0.14500415857024623 0.4000000000000003 -0.061750623785536973
v 0.90000000000000047 1.3698024781361604 -0.0019802478136160136
v -0.099999999999999881 0.44500415857024678 -0.059500415857024654
v -0.07209178557192622 -0.79999999999999982 0.069186232164211048
v -1.0450041585702468 -0.5 -0.106750623785537
v 0 -0.72790821442807363 0.072790821442807352
v 1 0.27209178557192643 0.12279082144280735
v -0.045004158570246595 0.5 -0.056750623785536983
v 0.94648959705709856 1.4000000000000006 0.001973439558564737
v -0 0.54500415857024653 -0.054500415857024663
v 1 1.4118557452062916 0.0088144254793708059
v 0.95738574807777888 1.407077642731009 0.0029000979385659137
v 0.027908214428073636 -0.70000000000000007 0.074186232164211052
v -0.85190553266708235 -1.5037747708083606 0.022591647180773739
v -0.84244422912859429 -1.5000000000000002 0.023633365630710893
v -0.88053838693502229 -1.5 0.017919241959746701
v -0.79999999999999971 -1.4830660504182926 0.028306605041829327
v 1.0544910996408834 1.4179655335125654 0.016377111594875971
v -0.74324142439596419 -1.4604211142905508 0.034555897769660483
v -0.84500415857024658 -0.29999999999999988 -0.09675062378553699
v 1.1279082144280739 0.40000000000000036 0.12918623216421105
v 0.12790821442807374 -0.59999999999999987 0.079186232164211057
v -0.79999999999999982 -0.25499584142975318 -0.09450041585702465
v 1.1127890576864596 1.4000000000000001 0.026918358652968905
v -0.7450041585702466 -0.19999999999999996 -0.091750623785536986
v 0.2279082144280736 -0.5 0.084186232164211047
v 1.2279082144280737 0.5 0.13418623216421102
f 70 71 45
f 45 71 46
f 72 73 47
f 47 73 48
f 89 90 64
f 64 90 65
f 91 92 66
f 66 92 67
f 159 160 135
f 135 160 136
f 160 161 136
f 136 161 137
f 161 162 137
f 138 163 139
f 143 168 144
f 171 172 147
f 148 173 149
f 159 181 160
f 181 182 160
f 160 182 161
f 188 189 167
f 196 197 182
f 182 197 183
f 198 199 184
f 184 199 185
f 200 201 188
f 188 201 189
f 190 203 191
f 205 206 194
f 194 206 195
f 196 213 197
f 213 214 197
f 215 216 198
f 198 216 199
f 219 220 200
f 200 220 201
f 221 222 202
f 223 224 204
f 225 226 205
f 205 226 206
f 213 227 214
f 228 229 215
f 215 229 216
f 254 255 237
f 237 255 238
f 256 257 239
f 261 262 242
f 242 262 243
f 263 264 244
f 244 264 245
f 265 266 246
f 246 266 247
f 256 275 257
f 276 277 258
f 258 277 259
f 285 286 267
f 267 286 268
f 276 293 277
f 293 294 277
f 277 294 278
f 295 296 279
f 279 296 280
f 297 298 281
f 281 298 282
f 285 301 286
f 301 302 286
f 286 302 287
f 305 306 301
f 301 306 302
f 307 308 303
f 323 324 305
f 305 324 306
f 325 326 307
f 307 326 308
f 313 332 314
f 332 333 314
f 314 333 315
f 334 335 316
f 316 335 317
f 336 337 318
f 318 337 319
f 332 350 333
f 367 368 351
f 351 368 352
f 385 386 373
f 373 386 374
f 386 387 374
f 395 396 376
f 376 396 377
f 397 398 378
f 378 398 379
f 399 400 380
f 380 400 381
f 401 402 382
f 382 402 383
f 402 403 383
f 383 403 384
f 406 407 387
f 387 407 388
f 411 412 392
f 392 412 393
f 411 413 412
f 432 433 414
f 414 433 415
f 436 437 417
f 439 440 419
f 419 440 420
f 440 441 420
f 443 444 421
f 421 444 422
f 445 446 423
f 423 446 424
f 452 453 430
f 430 453 431
f 454 455 432
f 432 455 433
f 456 457 434
f 458 459 436
f 437 460 438
f 472 474 473
f 474 475 473
f 503 504 479
f 479 504 480
f 481 505 482
f 506 507 483
f 483 507 484
f 509 510 486
f 486 510 487
f 511 512 488
f 488 512 489
f 513 514 490
f 490 514 491
f 517 518 494
f 494 518 495
f 513 523 514
f 514 524 515
f 525 526 524
f 553 554 528
f 528 554 529
f 555 556 530
f 530 556 531
f 557 558 532
f 559 560 533
f 533 560 534
f 560 561 534
f 534 561 535
f 562 563 536
f 536 563 537
f 273 594 591
f 254 597 596
f 601 612 274
f 408 613 606
f 604 615 389
f 312 628 625
f 623 630 181
f 331 639 634
f 631 643 313
f 424 644 640
f 349 649 647
f 645 652 332
f 650 656 213
f 366 657 655
f 654 659 350
f 653 660 447
f 235 668 666
f 674 676 236
f 588 589 587
f 583 585 582
f 582 584 583
f 587 589 586
f 2 1 26
f 2 26 27
f 579 581 580
f 579 580 578
f 316 315 333
f 316 333 334
f 2 27 28
f 3 2 28
f 486 487 472
f 462 461 472
f 486 472 461
f 161 182 183
f 162 161 183
f 4 3 28
f 4 28 29
f 472 473 463
f 472 463 462
f 318 317 335
f 318 335 336
f 164 163 185
f 164 185 186
f 5 4 29
f 5 29 30
f 473 464 463
f 475 464 473
f 6 5 30
f 6 30 31
f 320 319 337
f 320 337 338
f 475 490 465
f 475 465 464
f 489 490 475
f 165 164 186
f 165 186 187
f 7 6 31
f 7 31 32
f 321 320 338
f 321 338 339
f 166 165 187
f 188 166 187
f 490 491 466
f 490 466 465
f 8 7 32
f 8 32 33
f 323 322 340
f 323 340 341
f 9 8 33
f 9 33 34
f 169 168 189
f 169 189 190
f 323 341 342
f 324 323 342
f 35 9 34
f 10 9 35
f 491 492 467
f 491 467 466
f 325 324 342
f 325 342 343
f 170 169 190
f 170 190 191
f 11 10 35
f 11 35 36
f 492 493 468
f 492 468 467
f 326 325 343
f 326 343 344
f 171 170 191
f 171 191 192
f 12 11 36
f 12 36 37
f 326 344 345
f 327 326 345
f 493 672 658
f 493 494 672
f 493 658 468
f 172 171 192
f 172 192 193
f 13 12 37
f 13 37 38
f 328 327 345
f 328 345 346
f 497 498 470
f 497 470 469
f 207 208 175
f 207 175 174
f 14 13 38
f 14 38 39
f 329 328 346
f 329 346 347
f 498 499 471
f 498 471 470
f 176 175 209
f 208 209 175
f 14 39 40
f 15 14 40
f 330 329 347
f 330 347 348
f 487 488 474
f 487 474 472
f 209 210 177
f 209 177 176
f 16 15 40
f 16 40 41
f 331 330 348
f 349 331 348
f 494 495 678
f 494 678 672
f 210 211 178
f 210 178 177
f 334 333 350
f 334 350 351
f 17 16 41
f 17 41 42
f 211 212 179
f 211 179 178
f 469 669 675
f 469 675 497
f 662 669 469
f 496 497 675
f 335 334 351
f 335 351 352
f 18 17 42
f 18 42 43
f 475 474 488
f 475 488 489
f 637 642 179
f 180 179 642
f 212 637 179
f 638 637 212
f 336 335 352
f 336 352 353
f 19 18 43
f 19 43 44
f 336 353 354
f 337 336 354
f 630 196 182
f 648 196 630
f 630 182 181
f 45 19 44
f 20 19 45
f 599 678 495
f 338 337 354
f 338 354 355
f 184 183 197
f 184 197 198
f 21 20 45
f 21 45 46
f 477 476 500
f 477 500 501
f 338 355 356
f 339 338 356
f 186 185 199
f 186 199 217
f 216 217 199
f 22 21 46
f 22 46 47
f 478 477 501
f 478 501 502
f 341 340 357
f 341 357 358
f 217 218 187
f 217 187 186
f 23 22 47
f 23 47 48
f 479 478 502
f 479 502 503
f 342 341 358
f 342 358 359
f 218 219 200
f 188 187 200
f 218 200 187
f 24 23 48
f 24 48 49
f 481 480 504
f 505 481 504
f 342 359 360
f 343 342 360
f 190 189 201
f 190 201 202
f 25 24 49
f 25 49 50
f 483 482 505
f 483 505 506
f 190 202 203
f 222 203 202
f 344 343 360
f 344 360 361
f 26 51 52
f 27 26 52
f 485 484 507
f 485 507 508
f 192 191 203
f 192 203 204
f 345 344 361
f 345 361 362
f 28 27 52
f 28 52 53
f 193 192 204
f 193 204 224
f 486 485 508
f 486 508 509
f 345 362 363
f 346 345 363
f 29 28 53
f 29 53 54
f 224 225 205
f 194 193 205
f 224 205 193
f 488 487 510
f 488 510 511
f 347 346 363
f 347 363 364
f 198 197 214
f 198 214 215
f 30 29 54
f 30 54 55
f 490 489 512
f 490 512 513
f 348 347 364
f 348 364 365
f 202 201 220
f 202 220 221
f 31 30 55
f 31 55 56
f 491 514 515
f 492 491 515
f 204 203 222
f 204 222 223
f 32 31 56
f 32 56 57
f 349 348 365
f 366 349 365
f 649 349 366
f 655 649 366
f 493 492 515
f 493 515 516
f 231 208 207
f 230 231 207
f 33 32 57
f 33 57 58
f 351 350 661
f 351 661 367
f 659 661 350
f 517 493 516
f 494 493 517
f 231 232 209
f 231 209 208
f 59 33 58
f 34 33 59
f 353 352 368
f 353 368 369
f 599 495 518
f 619 616 518
f 616 599 518
f 232 233 210
f 232 210 209
f 35 34 59
f 35 59 60
f 354 353 369
f 354 369 370
f 233 234 211
f 233 211 210
f 602 626 519
f 602 519 496
f 621 519 626
f 35 60 61
f 36 35 61
f 371 354 370
f 355 354 371
f 37 36 61
f 37 61 62
f 497 496 519
f 497 519 520
f 356 355 371
f 356 371 372
f 667 212 211
f 234 665 667
f 234 666 665
f 234 235 666
f 234 667 211
f 37 62 63
f 38 37 63
f 498 497 520
f 498 520 521
f 375 376 358
f 375 358 357
f 215 214 227
f 215 227 228
f 499 498 521
f 499 521 522
f 39 38 63
f 39 63 64
f 376 377 359
f 376 359 358
f 217 216 229
f 237 217 229
f 236 237 229
f 527 528 501
f 527 501 500
f 40 39 64
f 40 64 65
f 377 378 360
f 377 360 359
f 237 238 218
f 237 218 217
f 528 529 502
f 528 502 501
f 40 65 66
f 41 40 66
f 379 361 360
f 378 379 360
f 239 240 219
f 239 219 218
f 238 239 218
f 529 530 503
f 529 503 502
f 379 380 362
f 379 362 361
f 42 41 66
f 42 66 67
f 240 241 220
f 240 220 219
f 380 381 363
f 380 363 362
f 530 531 504
f 530 504 503
f 43 42 67
f 43 67 68
f 241 242 221
f 241 221 220
f 381 382 364
f 381 364 363
f 532 533 505
f 533 506 505
f 532 505 504
f 531 532 504
f 44 43 68
f 44 68 69
f 243 222 221
f 242 243 221
f 383 384 365
f 383 365 364
f 382 383 364
f 45 44 69
f 45 69 70
f 534 535 507
f 535 508 507
f 533 534 507
f 533 507 506
f 243 244 223
f 243 223 222
f 373 366 365
f 384 385 373
f 384 373 365
f 47 46 71
f 47 71 72
f 535 536 509
f 535 509 508
f 244 245 224
f 244 224 223
f 373 374 664
f 657 366 664
f 373 664 366
f 49 48 73
f 49 73 74
f 536 537 510
f 536 510 509
f 245 246 225
f 245 225 224
f 538 511 510
f 537 538 510
f 50 49 74
f 50 74 75
f 246 247 226
f 246 226 225
f 661 600 367
f 538 539 512
f 538 512 511
f 52 51 76
f 52 76 77
f 656 671 227
f 671 228 227
f 656 227 213
f 600 604 389
f 600 389 368
f 600 368 367
f 539 540 513
f 539 513 512
f 53 52 77
f 53 77 78
f 671 674 236
f 671 236 229
f 671 229 228
f 540 541 523
f 540 523 513
f 389 390 369
f 389 369 368
f 54 53 78
f 54 78 79
f 514 523 524
f 525 524 523
f 231 230 248
f 231 248 249
f 391 370 369
f 390 391 369
f 55 54 79
f 55 79 80
f 516 515 524
f 516 524 526
f 231 249 250
f 232 231 250
f 391 392 371
f 391 371 370
f 56 55 80
f 56 80 81
f 526 544 517
f 526 517 516
f 543 544 526
f 233 232 250
f 233 250 251
f 393 372 371
f 392 393 371
f 57 56 81
f 57 81 82
f 233 251 252
f 234 233 252
f 545 518 517
f 544 545 517
f 374 673 664
f 387 673 374
f 58 57 82
f 58 82 83
f 235 234 252
f 235 252 253
f 546 629 619
f 545 546 619
f 545 619 518
f 387 388 677
f 387 677 673
f 59 58 83
f 59 83 84
f 597 254 237
f 676 597 237
f 676 237 236
f 60 59 84
f 60 84 85
f 519 621 548
f 641 548 621
f 547 548 641
f 547 641 633
f 595 677 388
f 61 60 85
f 61 85 86
f 548 549 520
f 548 520 519
f 239 238 255
f 239 255 256
f 376 375 394
f 376 394 395
f 61 86 87
f 62 61 87
f 549 550 521
f 549 521 520
f 377 396 397
f 378 377 397
f 258 239 257
f 240 239 258
f 240 258 259
f 63 62 87
f 63 87 88
f 550 551 522
f 550 522 521
f 380 379 398
f 380 398 399
f 64 63 88
f 64 88 89
f 241 240 259
f 241 259 260
f 541 542 525
f 541 525 523
f 381 400 401
f 382 381 401
f 66 65 90
f 66 90 91
f 261 241 260
f 242 241 261
f 546 547 632
f 547 633 632
f 546 632 629
f 385 384 403
f 385 403 404
f 68 67 92
f 68 92 93
f 244 243 262
f 244 262 263
f 386 385 404
f 386 404 405
f 542 543 526
f 542 526 525
f 68 93 94
f 69 68 94
f 246 245 264
f 246 264 265
f 387 386 405
f 387 405 406
f 70 69 94
f 70 94 95
f 528 527 552
f 528 552 553
f 249 248 267
f 249 267 268
f 70 95 96
f 71 70 96
f 595 388 407
f 595 407 408
f 595 408 606
f 530 529 554
f 530 554 555
f 250 249 268
f 250 268 269
f 72 71 96
f 72 96 97
f 390 389 617
f 390 617 409
f 615 617 389
f 250 269 270
f 251 250 270
f 532 531 556
f 532 556 557
f 73 72 97
f 73 97 98
f 533 532 558
f 533 558 559
f 391 390 409
f 391 409 410
f 252 251 270
f 252 270 271
f 74 73 98
f 74 98 99
f 411 391 410
f 392 391 411
f 536 535 561
f 536 561 562
f 253 252 271
f 253 271 272
f 75 74 99
f 75 99 100
f 537 563 564
f 538 537 564
f 430 395 394
f 429 430 394
f 592 253 272
f 591 272 273
f 592 272 591
f 77 76 101
f 77 101 102
f 539 538 564
f 539 564 565
f 430 431 396
f 430 396 395
f 601 274 255
f 596 255 254
f 601 255 596
f 78 77 102
f 78 102 103
f 540 539 565
f 540 565 566
f 414 397 396
f 431 432 414
f 431 414 396
f 256 255 274
f 275 256 274
f 79 78 103
f 79 103 104
f 541 540 566
f 541 566 567
f 415 398 397
f 414 415 397
f 258 257 275
f 258 275 276
f 80 79 104
f 80 104 105
f 541 567 568
f 542 541 568
f 415 416 399
f 415 399 398
f 435 400 416
f 416 400 399
f 81 80 105
f 81 105 106
f 543 542 568
f 543 568 569
f 260 259 277
f 260 277 278
f 82 81 106
f 82 106 107
f 417 401 400
f 435 436 417
f 435 417 400
f 570 543 569
f 544 543 570
f 261 260 278
f 261 278 279
f 83 82 107
f 83 107 108
f 417 418 402
f 417 402 401
f 545 544 570
f 545 570 571
f 262 261 279
f 262 279 280
f 84 83 108
f 84 108 109
f 281 262 280
f 263 262 281
f 85 84 109
f 85 109 110
f 546 545 571
f 546 571 572
f 264 263 281
f 264 281 282
f 85 110 111
f 86 85 111
f 547 546 572
f 547 572 573
f 418 403 402
f 438 403 418
f 283 264 282
f 265 264 283
f 87 86 111
f 87 111 112
f 548 547 573
f 548 573 574
f 419 404 403
f 438 439 419
f 438 419 403
f 265 283 284
f 266 265 284
f 88 87 112
f 88 112 113
f 549 548 574
f 549 574 575
f 420 405 404
f 419 420 404
f 268 286 287
f 269 268 287
f 89 88 113
f 89 113 114
f 420 406 405
f 441 406 420
f 550 549 575
f 550 575 576
f 441 442 407
f 441 407 406
f 270 269 287
f 270 287 288
f 89 114 115
f 90 89 115
f 551 550 576
f 551 576 577
f 271 270 288
f 271 288 289
f 421 408 407
f 442 443 421
f 442 421 407
f 91 90 115
f 91 115 116
f 271 289 290
f 272 271 290
f 618 613 408
f 421 422 618
f 421 618 408
f 92 91 116
f 92 116 117
f 273 272 290
f 273 290 291
f 118 92 117
f 93 92 118
f 617 636 409
f 635 646 425
f 635 425 409
f 636 635 409
f 594 273 291
f 605 291 292
f 594 291 605
f 94 93 118
f 94 118 119
f 425 426 410
f 425 410 409
f 275 274 614
f 293 276 275
f 293 275 614
f 612 614 274
f 120 94 119
f 95 94 120
f 426 427 411
f 426 411 410
f 279 278 294
f 279 294 295
f 96 95 120
f 96 120 121
f 427 428 413
f 427 413 411
f 281 280 296
f 281 296 297
f 26 1 578
f 51 26 578
f 76 51 578
f 101 76 578
f 126 101 578
f 150 126 578
f 174 150 578
f 207 174 578
f 230 207 578
f 248 230 578
f 267 248 578
f 285 267 578
f 304 285 578
f 580 322 304
f 580 340 322
f 580 357 340
f 580 375 357
f 580 394 375
f 580 429 394
f 580 451 429
f 580 476 451
f 580 500 476
f 580 527 500
f 580 304 578
f 552 527 580
f 97 96 121
f 97 121 122
f 422 423 627
f 422 627 618
f 283 282 298
f 283 298 299
f 98 97 122
f 98 122 123
f 640 423 424
f 627 423 640
f 284 283 299
f 284 299 300
f 99 98 123
f 99 123 124
f 415 433 434
f 416 415 434
f 435 416 434
f 304 305 301
f 304 301 285
f 100 99 124
f 100 124 125
f 418 417 437
f 438 418 437
f 288 287 302
f 288 302 303
f 102 101 126
f 102 126 127
f 289 288 303
f 289 303 308
f 423 422 444
f 423 444 445
f 103 102 127
f 103 127 128
f 308 309 290
f 308 290 289
f 651 644 446
f 644 424 446
f 104 103 128
f 104 128 129
f 309 310 291
f 309 291 290
f 425 447 448
f 426 425 448
f 310 311 292
f 310 292 291
f 105 104 129
f 105 129 130
f 553 552 580
f 554 553 580
f 555 554 580
f 556 555 580
f 557 556 580
f 558 557 580
f 559 558 580
f 560 559 580
f 561 560 580
f 562 561 580
f 563 562 580
f 564 563 580
f 565 564 580
f 566 565 580
f 567 566 580
f 568 567 580
f 569 568 580
f 570 569 580
f 581 571 570
f 581 572 571
f 581 573 572
f 581 574 573
f 581 575 574
f 581 576 575
f 581 570 580
f 577 576 581
f 106 105 130
f 106 130 131
f 427 426 448
f 427 448 449
f 311 625 608
f 311 312 625
f 311 608 292
f 107 106 131
f 107 131 132
f 428 427 449
f 428 449 450
f 108 107 132
f 108 132 133
f 430 429 451
f 430 451 452
f 293 313 314
f 631 313 293
f 614 631 293
f 109 108 133
f 109 133 134
f 431 453 454
f 432 431 454
f 314 315 294
f 314 294 293
f 135 109 134
f 110 109 135
f 295 294 316
f 315 316 294
f 434 433 455
f 434 455 456
f 111 110 135
f 111 135 136
f 316 317 296
f 316 296 295
f 436 435 457
f 435 434 457
f 436 457 458
f 112 111 136
f 112 136 137
f 317 318 297
f 317 297 296
f 460 437 459
f 437 436 459
f 113 112 137
f 113 137 162
f 318 319 298
f 318 298 297
f 461 438 460
f 439 438 461
f 319 320 299
f 319 299 298
f 440 439 461
f 440 461 462
f 162 184 138
f 114 113 138
f 162 138 113
f 183 184 162
f 320 321 300
f 320 300 299
f 441 440 462
f 441 462 463
f 115 114 138
f 115 138 139
f 302 306 307
f 303 302 307
f 441 463 464
f 442 441 464
f 115 139 140
f 116 115 140
f 551 577 581
f 522 551 581
f 499 522 581
f 471 499 581
f 450 471 581
f 428 450 581
f 413 428 581
f 412 413 581
f 393 412 581
f 372 393 581
f 356 372 581
f 339 356 581
f 321 339 581
f 300 321 581
f 579 284 300
f 579 266 284
f 579 247 266
f 579 226 247
f 579 206 226
f 579 195 206
f 579 173 195
f 579 149 173
f 579 125 149
f 579 100 125
f 579 75 100
f 579 50 75
f 579 300 581
f 25 50 579
f 304 322 323
f 305 304 323
f 443 442 464
f 443 464 465
f 117 116 140
f 117 140 141
f 307 306 324
f 307 324 325
f 444 443 465
f 444 465 466
f 142 117 141
f 118 117 142
f 167 143 142
f 118 142 143
f 309 308 326
f 309 326 327
f 445 444 466
f 445 466 467
f 119 118 143
f 119 143 144
f 309 327 328
f 310 309 328
f 446 445 467
f 446 467 468
f 120 119 144
f 120 144 145
f 311 310 328
f 311 328 329
f 651 446 468
f 658 651 468
f 121 120 145
f 121 145 146
f 312 311 329
f 312 329 330
f 122 121 146
f 122 146 147
f 663 469 448
f 663 448 447
f 660 663 447
f 662 469 663
f 628 312 330
f 634 330 331
f 628 330 634
f 123 122 147
f 123 147 172
f 449 448 469
f 449 469 470
f 172 194 148
f 124 123 148
f 172 148 123
f 193 194 172
f 450 449 470
f 450 470 471
f 24 25 579
f 23 24 579
f 22 23 579
f 21 22 579
f 20 21 579
f 19 20 579
f 18 19 579
f 578 17 18
f 578 16 17
f 578 15 16
f 578 14 15
f 578 13 14
f 578 12 13
f 578 11 12
f 578 10 11
f 578 9 10
f 578 8 9
f 578 7 8
f 578 6 7
f 578 5 6
f 578 4 5
f 578 3 4
f 578 2 3
f 578 18 579
f 1 2 578
f 125 124 148
f 125 148 149
f 476 477 452
f 476 452 451
f 127 126 150
f 127 150 151
f 477 478 453
f 477 453 452
f 496 675 611
f 602 496 611
f 128 127 151
f 128 151 152
f 478 479 454
f 478 454 453
f 593 156 180
f 593 180 590
f 157 156 593
f 129 128 152
f 129 152 153
f 479 480 455
f 479 455 454
f 130 129 153
f 130 153 154
f 480 481 456
f 480 456 455
f 157 593 598
f 603 157 598
f 607 157 603
f 610 158 607
f 158 157 607
f 131 130 154
f 131 154 155
f 481 482 457
f 481 457 456
f 131 155 156
f 132 131 156
f 482 483 458
f 482 458 457
f 292 608 609
f 605 292 609
f 133 132 156
f 133 156 157
f 483 484 459
f 483 459 458
f 158 133 157
f 134 133 158
f 620 158 610
f 159 158 620
f 622 159 620
f 484 485 460
f 484 460 459
f 135 134 158
f 135 158 159
f 485 486 461
f 485 461 460
f 623 181 624
f 159 622 624
f 181 159 624
f 184 185 163
f 184 163 138
f 140 139 163
f 140 163 164
f 642 590 180
f 140 164 165
f 141 140 165
f 332 313 645
f 643 645 313
f 166 141 165
f 142 141 166
f 142 166 167
f 188 167 166
f 331 349 647
f 639 331 647
f 143 167 168
f 189 168 167
f 213 196 648
f 650 213 648
f 145 144 168
f 145 168 169
f 146 145 169
f 146 169 170
f 667 638 212
f 147 146 170
f 147 170 171
f 194 195 173
f 194 173 148
f 425 653 447
f 646 653 425
f 151 150 174
f 151 174 175
f 350 332 652
f 654 350 652
f 152 151 175
f 152 175 176
f 153 152 176
f 153 176 177
f 670 235 253
f 668 235 670
f 592 670 253
f 154 153 177
f 154 177 178
f 588 587 584
f 583 584 587
f 607 603 585
f 155 154 178
f 155 178 179
f 603 598 585
f 156 155 179
f 156 179 180
f 633 641 589
f 633 589 588
f 632 633 588
f 629 632 588
f 619 629 588
f 616 619 588
f 592 591 584
f 584 605 609
f 594 605 584
f 591 594 584
f 670 592 584
f 590 582 585
f 642 582 590
f 637 582 642
f 593 590 585
f 598 593 585
f 584 582 670
f 668 670 582
f 666 668 582
f 665 666 582
f 637 638 582
f 665 582 667
f 638 667 582
f 622 620 583
f 585 583 620
f 624 622 583
f 610 607 585
f 620 610 585
f 675 586 589
f 669 586 675
f 611 675 589
f 669 662 586
f 586 662 663
f 626 602 589
f 602 611 589
f 641 621 589
f 621 626 589
f 587 635 636
f 586 635 587
f 646 635 586
f 653 646 586
f 660 653 586
f 663 660 586
f 609 608 584
f 599 616 588
f 678 599 588
f 672 678 588
f 658 672 588
f 651 658 588
f 644 651 588
f 640 644 588
f 627 640 588
f 618 627 588
f 613 618 588
f 584 613 588
f 606 613 584
f 595 606 584
f 677 595 584
f 673 677 584
f 664 673 584
f 657 664 584
f 655 657 584
f 649 655 584
f 647 649 584
f 639 647 584
f 634 639 584
f 628 634 584
f 625 628 584
f 608 625 584
f 636 617 587
f 631 583 587
f 615 587 617
f 604 587 615
f 600 587 604
f 661 587 600
f 659 587 661
f 654 587 659
f 652 587 654
f 645 587 652
f 643 587 645
f 631 587 643
f 614 583 631
f 612 583 614
f 601 583 612
f 596 583 601
f 597 583 596
f 676 583 597
f 674 583 676
f 671 583 674
f 656 583 671
f 650 583 656
f 648 583 650
f 630 583 648
f 623 583 630
f 624 583 623
