v -2 -2 -0.099999999999999978
v -2 -1.8999999999999999 -0.10999999999999999
v -2 -1.8 -0.11999999999999997
v -2 -1.7 -0.12999999999999998
v -2 -1.6000000000000001 -0.13999999999999996
v -2 -1.5 -0.14999999999999997
v -2 -1.3999999999999999 -0.16
v -2 -1.2999999999999998 -0.17000000000000001
v -2 -1.1000000000000001 -0.18999999999999997
v -2 -0.79999999999999982 -0.22
v -2 -0.69999999999999996 -0.22999999999999998
v -2 -0.59999999999999987 -0.23999999999999999
v -2 -0.5 -0.25
v -2 -0.29999999999999982 -0.27000000000000002
v -2 -0.19999999999999996 -0.27999999999999997
v -2 -0.099999999999999867 -0.28999999999999998
v -2 0 -0.29999999999999999
v -2 0.40000000000000036 -0.34000000000000002
v -2 0.5 -0.34999999999999998
v -2 0.90000000000000036 -0.39000000000000001
v -2 1 -0.40000000000000002
v -2 1.4000000000000004 -0.44000000000000006
v -2 1.5 -0.45000000000000001
v -2 1.9000000000000004 -0.49000000000000005
v -2 2 -0.5
v -1.8999999999999999 -2 -0.084999999999999964
v -1.8999999999999999 -1.8999999999999999 -0.094999999999999973
v -1.8999999999999999 -1.8 -0.10499999999999995
v -1.8999999999999999 -1.7 -0.11499999999999996
v -1.8999999999999999 -1.6000000000000001 -0.12499999999999994
v -1.8999999999999999 -1.5 -0.13499999999999995
v -1.8999999999999999 -1.3999999999999999 -0.14499999999999999
v -1.8999999999999999 -1.2999999999999998 -0.155
v -1.8999999999999999 -1.1000000000000001 -0.17499999999999996
v -1.8999999999999999 -0.79999999999999982 -0.20499999999999999
v -1.8999999999999999 -0.69999999999999996 -0.21499999999999997
v -1.8999999999999999 -0.59999999999999987 -0.22499999999999998
v -1.8999999999999999 -0.5 -0.23499999999999999
v -1.8999999999999999 -0.29999999999999982 -0.255
v -1.8999999999999999 -0.19999999999999996 -0.26499999999999996
v -1.8999999999999999 -0.099999999999999867 -0.27499999999999997
v -1.8999999999999999 0 -0.28499999999999998
v -1.8999999999999999 0.40000000000000036 -0.32500000000000001
v -1.8999999999999999 0.5 -0.33499999999999996
v -1.8999999999999999 0.90000000000000036 -0.375
v -1.8999999999999999 1 -0.38500000000000001
v -1.8999999999999999 1.4000000000000004 -0.42500000000000004
v -1.8999999999999999 1.5 -0.435
v -1.8999999999999999 1.9000000000000004 -0.47500000000000003
v -1.8999999999999999 2 -0.48499999999999999
v -1.8 -2 -0.070000000000000007
v -1.8 -1.8999999999999999 -0.080000000000000016
v -1.8 -1.8 -0.089999999999999997
v -1.8 -1.7 -0.10000000000000001
v -1.8 -1.6000000000000001 -0.10999999999999999
v -1.8 -1.5 -0.12
v -1.8 -1.3999999999999999 -0.13000000000000003
v -1.8 -1.2999999999999998 -0.14000000000000004
v -1.8 -1.1000000000000001 -0.16
v -1.8 -0.79999999999999982 -0.19000000000000003
v -1.8 -0.69999999999999996 -0.20000000000000001
v -1.8 -0.59999999999999987 -0.21000000000000002
v -1.8 -0.5 -0.22000000000000003
v -1.8 -0.29999999999999982 -0.24000000000000005
v -1.8 -0.19999999999999996 -0.25
v -1.8 -0.099999999999999867 -0.26000000000000001
v -1.8 0 -0.27000000000000002
v -1.8 0.40000000000000036 -0.31000000000000005
v -1.8 0.5 -0.32000000000000001
v -1.8 0.90000000000000036 -0.36000000000000004
v -1.8 1 -0.37
v -1.8 1.4000000000000004 -0.41000000000000003
v -1.8 1.5 -0.42000000000000004
v -1.8 1.9000000000000004 -0.46000000000000008
v -1.8 2 -0.47000000000000003
v -1.7 -2 -0.054999999999999993
v -1.7 -1.8999999999999999 -0.065000000000000002
v -1.7 -1.8 -0.074999999999999983
v -1.7 -1.7 -0.084999999999999992
v -1.7 -1.6000000000000001 -0.094999999999999973
v -1.7 -1.5 -0.10499999999999998
v -1.7 -1.3999999999999999 -0.11500000000000002
v -1.7 -1.2999999999999998 -0.12500000000000003
v -1.7 -1.1000000000000001 -0.14499999999999999
v -1.7 -0.79999999999999982 -0.17500000000000002
v -1.7 -0.69999999999999996 -0.185
v -1.7 -0.59999999999999987 -0.19500000000000001
v -1.7 -0.5 -0.20500000000000002
v -1.7 -0.29999999999999982 -0.22500000000000003
v -1.7 -0.19999999999999996 -0.23500000000000001
v -1.7 -0.099999999999999867 -0.24500000000000002
v -1.7 0 -0.255
v -1.7 0.40000000000000036 -0.29500000000000004
v -1.7 0.5 -0.30499999999999999
v -1.7 0.90000000000000036 -0.34500000000000003
v -1.7 1 -0.35499999999999998
v -1.7 1.4000000000000004 -0.39500000000000002
v -1.7 1.5 -0.40500000000000003
v -1.7 1.9000000000000004 -0.44500000000000006
v -1.7 2 -0.45500000000000002
v -1.6000000000000001 -2 -0.03999999999999998
v -1.6000000000000001 -1.8999999999999999 -0.049999999999999989
v -1.6000000000000001 -1.8 -0.05999999999999997
v -1.6000000000000001 -1.7 -0.069999999999999979
v -1.6000000000000001 -1.6000000000000001 -0.07999999999999996
v -1.6000000000000001 -1.5 -0.089999999999999969
v -1.6000000000000001 -1.3999999999999999 -0.10000000000000001
v -1.6000000000000001 -1.2999999999999998 -0.11000000000000001
v -1.6000000000000001 -1.1000000000000001 -0.12999999999999998
v -1.6000000000000001 -0.79999999999999982 -0.16
v -1.6000000000000001 -0.69999999999999996 -0.16999999999999998
v -1.6000000000000001 -0.59999999999999987 -0.17999999999999999
v -1.6000000000000001 -0.5 -0.19
v -1.6000000000000001 -0.29999999999999982 -0.21000000000000002
v -1.6000000000000001 -0.19999999999999996 -0.22
v -1.6000000000000001 -0.099999999999999867 -0.23000000000000001
v -1.6000000000000001 0 -0.23999999999999999
v -1.6000000000000001 0.40000000000000036 -0.28000000000000003
v -1.6000000000000001 0.5 -0.28999999999999998
v -1.6000000000000001 0.90000000000000036 -0.33000000000000002
v -1.6000000000000001 1 -0.33999999999999997
v -1.6000000000000001 1.4000000000000004 -0.38
v -1.6000000000000001 1.5 -0.39000000000000001
v -1.6000000000000001 1.9000000000000004 -0.43000000000000005
v -1.6000000000000001 2 -0.44
v -1.5 -2 -0.024999999999999967
v -1.5 -1.8999999999999999 -0.034999999999999976
v -1.5 -1.8 -0.044999999999999957
v -1.5 -1.7 -0.054999999999999966
v -1.5 -1.6000000000000001 -0.064999999999999947
v -1.5 -1.5 -0.074999999999999956
v -1.5 -1.3999999999999999 -0.084999999999999992
v -1.5 -1.2999999999999998 -0.095000000000000001
v -1.5 -1.1000000000000001 -0.11499999999999996
v -1.5 -0.79999999999999982 -0.14499999999999999
v -1.5 -0.69999999999999996 -0.15499999999999997
v -1.5 -0.59999999999999987 -0.16499999999999998
v -1.5 -0.29999999999999982 -0.19500000000000001
v -1.5 -0.19999999999999996 -0.20499999999999999
v -1.5 -0.099999999999999867 -0.215
v -1.5 0 -0.22499999999999998
v -1.5 0.30000000000000027 -0.255
v -1.5 0.40000000000000036 -0.26500000000000001
v -1.5 0.5 -0.27499999999999997
v -1.5 0.90000000000000036 -0.315
v -1.5 1 -0.32499999999999996
v -1.5 1.4000000000000004 -0.36499999999999999
v -1.5 1.9000000000000004 -0.41500000000000004
v -1.5 2 -0.42499999999999999
v -1.3999999999999999 -2 -0.0099999999999999811
v -1.3999999999999999 -1.8999999999999999 -0.01999999999999999
v -1.3999999999999999 -1.8 -0.029999999999999971
v -1.3999999999999999 -1.7 -0.03999999999999998
v -1.3999999999999999 -1.6000000000000001 -0.049999999999999961
v -1.3999999999999999 -1.5 -0.05999999999999997
v -1.3999999999999999 -1.3999999999999999 -0.070000000000000007
v -1.3999999999999999 -1.2999999999999998 -0.080000000000000016
v -1.3999999999999999 -1.1000000000000001 -0.099999999999999978
v -1.3999999999999999 -0.79999999999999982 -0.13
v -1.3999999999999999 -0.69999999999999996 -0.14000000000000001
v -1.3999999999999999 -0.59999999999999987 -0.14999999999999999
v -1.3999999999999999 -0.5 -0.15999999999999998
v -1.3999999999999999 -0.19999999999999996 -0.19
v -1.3999999999999999 -0.099999999999999867 -0.20000000000000001
v -1.3999999999999999 0 -0.20999999999999999
v -1.3999999999999999 0.30000000000000027 -0.24000000000000002
v -1.3999999999999999 0.40000000000000036 -0.25
v -1.3999999999999999 0.5 -0.26000000000000001
v -1.3999999999999999 0.90000000000000036 -0.30000000000000004
v -1.3999999999999999 1 -0.31
v -1.3999999999999999 1.4000000000000004 -0.35000000000000003
v -1.3999999999999999 1.5 -0.35999999999999999
v -1.3999999999999999 2 -0.41000000000000003
v -1.2999999999999998 -2 0.0050000000000000322
v -1.2999999999999998 -1.8999999999999999 -0.0049999999999999767
v -1.2999999999999998 -1.8 -0.014999999999999958
v -1.2999999999999998 -1.7 -0.024999999999999967
v -1.2999999999999998 -1.6000000000000001 -0.034999999999999948
v -1.2999999999999998 -1.5 -0.044999999999999957
v -1.2999999999999998 -1.3999999999999999 -0.054999999999999993
v -1.2999999999999998 -0.69999999999999996 -0.12499999999999999
v -1.2999999999999998 -0.59999999999999987 -0.13499999999999998
v -1.2999999999999998 -0.5 -0.14499999999999996
v -1.2999999999999998 -0.29999999999999982 -0.16499999999999998
v -1.2999999999999998 -0.19999999999999996 -0.17499999999999999
v -1.2999999999999998 -0.099999999999999867 -0.185
v -1.2999999999999998 0 -0.19499999999999998
v -1.2999999999999998 0.40000000000000036 -0.23500000000000001
v -1.2999999999999998 0.5 -0.245
v -1.2999999999999998 0.90000000000000036 -0.28500000000000003
v -1.2999999999999998 1 -0.29499999999999998
v -1.2999999999999998 1.4000000000000004 -0.33500000000000002
v -1.2999999999999998 1.5 -0.34499999999999997
v -1.2999999999999998 1.9000000000000004 -0.38500000000000001
v -1.2999999999999998 2 -0.39500000000000002
v -1.2 -0.59999999999999987 -0.12
v -1.2 -0.5 -0.13
v -1.2 -0.29999999999999982 -0.15000000000000002
v -1.2 -0.19999999999999996 -0.16
v -1.2 0.40000000000000036 -0.22000000000000003
v -1.2 0.5 -0.22999999999999998
v -1.2 0.90000000000000036 -0.27000000000000002
v -1.2 1 -0.28000000000000003
v -1.2 1.4000000000000004 -0.32000000000000006
v -1.2 1.9000000000000004 -0.37000000000000005
v -1.2 2 -0.38
v -1.1000000000000001 -2 0.035000000000000003
v -1.1000000000000001 -1.8999999999999999 0.024999999999999994
v -1.1000000000000001 -1.8 0.015000000000000013
v -1.1000000000000001 -1.7 0.0050000000000000044
v -1.1000000000000001 -1.6000000000000001 -0.0049999999999999767
v -1.1000000000000001 -1.5 -0.014999999999999986
v -1.1000000000000001 -0.5 -0.115
v -1.1000000000000001 -0.39999999999999991 -0.125
v -1.1000000000000001 -0.29999999999999982 -0.13500000000000001
v -1.1000000000000001 -0.19999999999999996 -0.14500000000000002
v -1.1000000000000001 -0.099999999999999867 -0.15500000000000003
v -1.1000000000000001 0 -0.16500000000000001
v -1.1000000000000001 0.40000000000000036 -0.20500000000000004
v -1.1000000000000001 0.5 -0.21500000000000002
v -1.1000000000000001 0.90000000000000036 -0.25500000000000006
v -1.1000000000000001 1 -0.26500000000000001
v -1.1000000000000001 1.4000000000000004 -0.30500000000000005
v -1.1000000000000001 1.5 -0.31500000000000006
v -1.1000000000000001 1.9000000000000004 -0.35500000000000009
v -1.1000000000000001 2 -0.36499999999999999
v -1 -0.39999999999999991 -0.11
v -1 -0.29999999999999982 -0.12000000000000001
v -1 -0.19999999999999996 -0.13
v -0.79999999999999982 -2 0.080000000000000043
v -0.79999999999999982 -1.8999999999999999 0.070000000000000034
v -0.79999999999999982 -1.8 0.060000000000000053
v -0.79999999999999982 -1.7 0.050000000000000044
v -0.79999999999999982 -1.6000000000000001 0.040000000000000063
v -0.79999999999999982 -1.5 0.030000000000000054
v -0.79999999999999982 -0.19999999999999996 -0.099999999999999978
v -0.79999999999999982 -0.099999999999999867 -0.10999999999999999
v -0.79999999999999982 0 -0.11999999999999997
v -0.79999999999999982 0.10000000000000009 -0.12999999999999998
v -0.79999999999999982 0.40000000000000036 -0.16
v -0.79999999999999982 0.5 -0.16999999999999998
v -0.79999999999999982 0.90000000000000036 -0.21000000000000002
v -0.79999999999999982 1 -0.21999999999999997
v -0.79999999999999982 1.4000000000000004 -0.26000000000000001
v -0.79999999999999982 1.5 -0.27000000000000002
v -0.79999999999999982 1.9000000000000004 -0.31000000000000005
v -0.79999999999999982 2 -0.31999999999999995
v -0.69999999999999996 -2 0.095000000000000015
v -0.69999999999999996 -1.8999999999999999 0.085000000000000006
v -0.69999999999999996 -1.8 0.075000000000000025
v -0.69999999999999996 -1.7 0.065000000000000016
v -0.69999999999999996 -1.6000000000000001 0.055000000000000035
v -0.69999999999999996 -1.5 0.045000000000000026
v -0.69999999999999996 -0.099999999999999867 -0.095000000000000001
v -0.69999999999999996 0 -0.105
v -0.69999999999999996 0.10000000000000009 -0.115
v -0.69999999999999996 0.20000000000000018 -0.125
v -0.69999999999999996 0.30000000000000027 -0.13500000000000001
v -0.69999999999999996 0.40000000000000036 -0.14500000000000002
v -0.69999999999999996 0.5 -0.155
v -0.69999999999999996 0.90000000000000036 -0.19500000000000003
v -0.69999999999999996 1 -0.20500000000000002
v -0.69999999999999996 1.4000000000000004 -0.24500000000000005
v -0.69999999999999996 1.5 -0.255
v -0.69999999999999996 1.9000000000000004 -0.29500000000000004
v -0.69999999999999996 2 -0.30499999999999999
v -0.59999999999999987 -2 0.11000000000000003
v -0.59999999999999987 -1.8999999999999999 0.10000000000000002
v -0.59999999999999987 -1.8 0.090000000000000038
v -0.59999999999999987 -1.7 0.080000000000000029
v -0.59999999999999987 -1.6000000000000001 0.070000000000000048
v -0.59999999999999987 -1.5 0.060000000000000039
v -0.59999999999999987 -1.3999999999999999 0.050000000000000003
v -0.59999999999999987 0 -0.089999999999999983
v -0.59999999999999987 0.20000000000000018 -0.11
v -0.59999999999999987 0.90000000000000036 -0.18000000000000002
v -0.59999999999999987 1 -0.19
v -0.59999999999999987 1.4000000000000004 -0.23000000000000004
v -0.59999999999999987 1.5 -0.23999999999999999
v -0.59999999999999987 1.9000000000000004 -0.28000000000000003
v -0.59999999999999987 2 -0.28999999999999998
v -0.5 -2 0.125
v -0.5 -1.8999999999999999 0.115
v -0.5 -1.8 0.10500000000000002
v -0.5 -1.7 0.095000000000000015
v -0.5 -1.6000000000000001 0.085000000000000034
v -0.5 -1.5 0.075000000000000025
v -0.5 -1.3999999999999999 0.064999999999999988
v -0.5 -1.2999999999999998 0.054999999999999979
v -0.5 0.90000000000000036 -0.16500000000000004
v -0.5 1 -0.17499999999999999
v -0.5 1.4000000000000004 -0.21500000000000002
v -0.5 1.5 -0.22500000000000003
v -0.5 1.9000000000000004 -0.26500000000000007
v -0.5 2 -0.27500000000000002
v -0.39999999999999991 -1.8999999999999999 0.13
v -0.39999999999999991 -1.8 0.12000000000000004
v -0.39999999999999991 -1.7 0.11000000000000003
v -0.29999999999999982 -2 0.15500000000000003
v -0.29999999999999982 -1.8999999999999999 0.14500000000000002
v -0.29999999999999982 -1.8 0.13500000000000006
v -0.29999999999999982 -1.7 0.12500000000000006
v -0.29999999999999982 -1.6000000000000001 0.11500000000000006
v -0.29999999999999982 -1.5 0.10500000000000005
v -0.29999999999999982 -1.3999999999999999 0.095000000000000015
v -0.29999999999999982 -1.2999999999999998 0.085000000000000006
v -0.29999999999999982 -1.1000000000000001 0.065000000000000044
v -0.29999999999999982 0.90000000000000036 -0.13500000000000001
v -0.29999999999999982 1 -0.14499999999999996
v -0.29999999999999982 1.4000000000000004 -0.185
v -0.29999999999999982 1.5 -0.19500000000000001
v -0.29999999999999982 1.9000000000000004 -0.23500000000000004
v -0.29999999999999982 2 -0.245
v -0.19999999999999996 -2 0.17000000000000001
v -0.19999999999999996 -1.8999999999999999 0.16
v -0.19999999999999996 -1.8 0.15000000000000002
v -0.19999999999999996 -1.7 0.14000000000000001
v -0.19999999999999996 -1.6000000000000001 0.13000000000000003
v -0.19999999999999996 -1.5 0.12000000000000002
v -0.19999999999999996 -1.3999999999999999 0.10999999999999999
v -0.19999999999999996 -1.2999999999999998 0.099999999999999978
v -0.19999999999999996 -1.1000000000000001 0.080000000000000016
v -0.19999999999999996 -1 0.070000000000000007
v -0.19999999999999996 0.90000000000000036 -0.12000000000000002
v -0.19999999999999996 1 -0.13
v -0.19999999999999996 1.4000000000000004 -0.17000000000000004
v -0.19999999999999996 1.5 -0.18000000000000002
v -0.19999999999999996 1.9000000000000004 -0.22000000000000006
v -0.19999999999999996 2 -0.23000000000000001
v -0.099999999999999867 -2 0.18500000000000003
v -0.099999999999999867 -1.8999999999999999 0.17500000000000002
v -0.099999999999999867 -1.8 0.16500000000000004
v -0.099999999999999867 -1.7 0.15500000000000003
v -0.099999999999999867 -1.6000000000000001 0.14500000000000005
v -0.099999999999999867 -1.5 0.13500000000000004
v -0.099999999999999867 -1.3999999999999999 0.125
v -0.099999999999999867 -1.2999999999999998 0.11499999999999999
v -0.099999999999999867 -1.1000000000000001 0.095000000000000029
v -0.099999999999999867 -0.89999999999999991 0.075000000000000011
v -0.099999999999999867 0.90000000000000036 -0.10500000000000001
v -0.099999999999999867 1 -0.11499999999999999
v -0.099999999999999867 1.4000000000000004 -0.15500000000000003
v -0.099999999999999867 1.5 -0.16500000000000001
v -0.099999999999999867 1.9000000000000004 -0.20500000000000004
v -0.099999999999999867 2 -0.215
v 0 -2 0.20000000000000001
v 0 -1.8999999999999999 0.19
v 0 -1.8 0.18000000000000002
v 0 -1.7 0.17000000000000001
v 0 -1.6000000000000001 0.16000000000000003
v 0 -1.5 0.15000000000000002
v 0 -1.3999999999999999 0.13999999999999999
v 0 -1.2999999999999998 0.12999999999999998
v 0 -1.1000000000000001 0.11000000000000001
v 0 -0.79999999999999982 0.079999999999999988
v 0 0.90000000000000036 -0.090000000000000038
v 0 1 -0.10000000000000001
v 0 1.4000000000000004 -0.14000000000000004
v 0 1.5 -0.15000000000000002
v 0 1.9000000000000004 -0.19000000000000006
v 0 2 -0.20000000000000001
v 0.40000000000000036 -2 0.26000000000000006
v 0.40000000000000036 -1.8999999999999999 0.25000000000000006
v 0.40000000000000036 -1.8 0.24000000000000007
v 0.40000000000000036 -1.7 0.23000000000000007
v 0.40000000000000036 -1.6000000000000001 0.22000000000000008
v 0.40000000000000036 -1.5 0.21000000000000008
v 0.40000000000000036 -1.3999999999999999 0.20000000000000004
v 0.40000000000000036 -1.2999999999999998 0.19000000000000003
v 0.40000000000000036 1 -0.039999999999999952
v 0.40000000000000036 1.4000000000000004 -0.079999999999999988
v 0.40000000000000036 1.5 -0.089999999999999969
v 0.40000000000000036 1.9000000000000004 -0.13
v 0.40000000000000036 2 -0.13999999999999996
v 0.5 -2 0.27500000000000002
v 0.5 -1.8999999999999999 0.26500000000000001
v 0.5 -1.8 0.255
v 0.5 -1.7 0.245
v 0.5 -1.6000000000000001 0.23500000000000004
v 0.5 -1.5 0.22500000000000003
v 0.5 -1.3999999999999999 0.21499999999999997
v 0.5 1.4000000000000004 -0.065000000000000044
v 0.5 1.5 -0.075000000000000025
v 0.5 1.9000000000000004 -0.11500000000000006
v 0.5 2 -0.125
v 0.60000000000000009 2 -0.11
v 0.80000000000000027 -1.7 0.29000000000000004
v 0.80000000000000027 -1.6000000000000001 0.28000000000000008
v 0.80000000000000027 0 0.12000000000000004
v 0.80000000000000027 1.4000000000000004 -0.020000000000000004
v 0.80000000000000027 1.5 -0.029999999999999985
v 0.80000000000000027 1.9000000000000004 -0.070000000000000021
v 0.80000000000000027 2 -0.079999999999999974
v 0.90000000000000036 -2 0.33500000000000008
v 0.90000000000000036 -1.8999999999999999 0.32500000000000007
v 0.90000000000000036 -1.8 0.31500000000000006
v 0.90000000000000036 -1.7 0.30500000000000005
v 0.90000000000000036 -0.099999999999999867 0.14500000000000002
v 0.90000000000000036 0 0.13500000000000004
v 0.90000000000000036 1.4000000000000004 -0.0050000000000000044
v 0.90000000000000036 1.5 -0.014999999999999986
v 0.90000000000000036 1.9000000000000004 -0.055000000000000021
v 0.90000000000000036 2 -0.064999999999999974
v 1 -2 0.34999999999999998
v 1 -1.8999999999999999 0.33999999999999997
v 1 -1.8 0.33000000000000002
v 1 -1.7 0.32000000000000001
v 1 -0.099999999999999867 0.15999999999999998
v 1 0 0.14999999999999999
v 1 1.5 -2.7755575615628914e-17
v 1 1.9000000000000004 -0.040000000000000063
v 1 2 -0.050000000000000017
v 1.4000000000000004 -2 0.41000000000000003
v 1.4000000000000004 -1.8999999999999999 0.40000000000000002
v 1.4000000000000004 -1.8 0.39000000000000007
v 1.4000000000000004 -1.7 0.38000000000000006
v 1.4000000000000004 -1.6000000000000001 0.37000000000000011
v 1.4000000000000004 -0.5 0.26000000000000006
v 1.4000000000000004 -0.29999999999999982 0.24000000000000005
v 1.4000000000000004 -0.19999999999999996 0.23000000000000004
v 1.4000000000000004 -0.099999999999999867 0.22000000000000003
v 1.4000000000000004 0 0.21000000000000005
v 1.4000000000000004 0.40000000000000036 0.17000000000000001
v 1.4000000000000004 0.5 0.16000000000000003
v 1.4000000000000004 1.4000000000000004 0.070000000000000007
v 1.4000000000000004 1.5 0.060000000000000026
v 1.4000000000000004 1.9000000000000004 0.01999999999999999
v 1.4000000000000004 2 0.010000000000000037
v 1.5 -2 0.42499999999999999
v 1.5 -1.8999999999999999 0.41499999999999998
v 1.5 -1.8 0.40500000000000003
v 1.5 -1.7 0.39500000000000002
v 1.5 -1.6000000000000001 0.38500000000000001
v 1.5 -0.5 0.27499999999999997
v 1.5 -0.29999999999999982 0.25499999999999995
v 1.5 -0.19999999999999996 0.24499999999999997
v 1.5 -0.099999999999999867 0.23499999999999996
v 1.5 0 0.22499999999999998
v 1.5 0.40000000000000036 0.18499999999999994
v 1.5 0.5 0.17499999999999999
v 1.5 1.4000000000000004 0.084999999999999937
v 1.5 1.5 0.074999999999999956
v 1.5 1.9000000000000004 0.03499999999999992
v 1.5 2 0.024999999999999967
v 1.6000000000000001 -0.19999999999999996 0.26000000000000001
v 1.6000000000000001 -0.099999999999999867 0.24999999999999997
v 1.7000000000000002 -0.099999999999999867 0.26500000000000001
v 1.7000000000000002 0 0.255
v 1.9000000000000004 -2 0.48500000000000004
v 1.9000000000000004 -1.8999999999999999 0.47500000000000003
v 1.9000000000000004 -1.8 0.46500000000000008
v 1.9000000000000004 -1.7 0.45500000000000007
v 1.9000000000000004 -1.6000000000000001 0.44500000000000006
v 1.9000000000000004 -1.5 0.43500000000000005
v 1.9000000000000004 -1.2999999999999998 0.41500000000000004
v 1.9000000000000004 -1.2 0.40500000000000003
v 1.9000000000000004 -1.1000000000000001 0.39500000000000002
v 1.9000000000000004 -0.79999999999999982 0.36499999999999999
v 1.9000000000000004 -0.69999999999999996 0.35500000000000004
v 1.9000000000000004 -0.59999999999999987 0.34500000000000003
v 1.9000000000000004 -0.5 0.33500000000000002
v 1.9000000000000004 -0.29999999999999982 0.315
v 1.9000000000000004 -0.19999999999999996 0.30500000000000005
v 1.9000000000000004 -0.099999999999999867 0.29500000000000004
v 1.9000000000000004 0 0.28500000000000003
v 1.9000000000000004 0.40000000000000036 0.245
v 1.9000000000000004 0.5 0.23500000000000004
v 1.9000000000000004 0.90000000000000036 0.19500000000000001
v 1.9000000000000004 1 0.18500000000000003
v 1.9000000000000004 1.4000000000000004 0.14499999999999999
v 1.9000000000000004 1.5 0.13500000000000001
v 1.9000000000000004 1.9000000000000004 0.094999999999999973
v 1.9000000000000004 2 0.08500000000000002
v 2 -2 0.5
v 2 -1.8999999999999999 0.48999999999999999
v 2 -1.8 0.47999999999999998
v 2 -1.7 0.46999999999999997
v 2 -1.6000000000000001 0.46000000000000002
v 2 -1.5 0.45000000000000001
v 2 -1.3999999999999999 0.43999999999999995
v 2 -1.2999999999999998 0.42999999999999994
v 2 -1.2 0.41999999999999998
v 2 -1.1000000000000001 0.41000000000000003
v 2 -0.79999999999999982 0.38
v 2 -0.69999999999999996 0.37
v 2 -0.59999999999999987 0.35999999999999999
v 2 -0.5 0.34999999999999998
v 2 -0.29999999999999982 0.32999999999999996
v 2 -0.19999999999999996 0.32000000000000001
v 2 -0.099999999999999867 0.31
v 2 0 0.29999999999999999
v 2 0.40000000000000036 0.25999999999999995
v 2 0.5 0.25
v 2 0.90000000000000036 0.20999999999999996
v 2 1 0.19999999999999998
v 2 1.4000000000000004 0.15999999999999995
v 2 1.5 0.14999999999999997
v 2 1.9000000000000004 0.10999999999999993
v 2 2 0.099999999999999978
v -2 -2 -0.90000000000000002
v -2 2 -0.90000000000000002
v 2 -2 -0.90000000000000002
v 2 2 -0.90000000000000002
v -1 -1.3680117784833934 -0.14545556584642799
v -1 -1 -0.24999999999999994
v -0.64999999999999991 -1.2163118960624633 -0.11631189606246312
v -1.3500000000000001 -1.2163118960624633 -0.11631189606246312
v 1 1.3680117784833934 -0.045455565846427959
v 1 1 -0.14999999999999991
v 1.3500000000000001 0.78368810393753674 -0.016311896062463083
v 1.3500000000000001 1.2163118960624633 -0.016311896062463083
v -1.2999999999999998 -1.310575989756088 -0.063942401024391179
v -0.67926612691185129 -1.4000000000000001 0.038110080963222298
v -0.69999999999999996 -1.4195819912499181 0.036958199124991813
v -1.3125762934494942 -1.2999999999999998 -0.066886444017424149
v -0.59999999999999987 -1.3251375468054736 0.042513754680547369
v -0.64500415857024651 -0.099999999999999881 -0.086750623785536995
v -0.69999999999999984 -0.15499584142975331 -0.089500415857024646
v -1.3206166582358148 -1.293238483504155 -0.068768650384956678
v 1.4000000000000006 0.67209178557192684 0.14279082144280736
v 0.35499584142975382 0.90000000000000047 -0.036750623785536972
v -0.59999999999999987 -0.054995841429753244 -0.084500415857024655
v 1.4000000000000004 1.2660216292044781 0.083397837079552214
v -1.3707727407297909 -1.2291501558729632 -0.082700895522172316
v 0.40000000000000036 0.94500415857024689 -0.034500415857024638
v -0.57338377397067453 -1.2999999999999998 0.043992433904398782
v -1.3838839913398835 -1.1864510518497062 -0.088937493516011906
v -0.5 -1.2279082144280735 0.047790821442807364
v -0.55012798279320396 -1.2780361972212775 0.045284422303147151
v -1.3748587993023695 -1.1000000000000001 -0.096228819895355408
v 1.3021238957126868 1.3416531643355842 0.061153267923344565
v -0.54500415857024664 -0 -0.081750623785536991
v 0.45499584142975352 1 -0.031750623785536988
v 1.4498720172067963 0.72196380277872252 0.14528442230314714
v 0.5 1.0450041585702465 -0.029500415857024658
v 1.5 0.85106346554159618 0.13989365344584034
v -1.3500000000000003 -0.86188103937536897 -0.11631189606246312
v 1.5000000000000002 1.1024193393530783 0.11475806606469213
v -1.3383674824957426 -0.79999999999999982 -0.12075512237436141
v -1.2999999999999996 -0.75499584142975318 -0.11950041585702466
v -1.3368310940064496 -0.79182693543620308 -0.12134197055734715
v -0.37209178557192651 -1.1000000000000001 0.054186232164211048
v 1.4135235530536305 1.2555716109357642 0.086471371864468155
v -0.29999999999999982 -1.0279082144280733 0.05779082144280738
v 1.5190015194834063 0.90000000000000036 0.13785022792251089
v -1.2450041585702465 -0.69999999999999996 -0.11675062378553699
v 1.5382583010229427 0.94959393664230074 0.1357793514892113
v 1.5305964777531442 1 0.12958947166297161
v -0.27209178557192643 -1 0.059186232164211046
v 0.69117047043047031 1.2341563404153684 -0.019740063476966285
v 0.66316890599355038 1.2081730645637969 -0.021341970557347149
v -1.1108553793954798 -1.4696364933906505 -0.01966465757025692
v -1.1000000000000001 -1.4710675965867301 -0.017893240341326975
v -0.19999999999999996 -0.92790821442807359 0.062790821442807371
v 1.5205644914656611 1.0659990342512513 0.121484770294724
v -1.1936626622949773 -1.3999999999999997 -0.039049399344246616
v 0.80000000000000027 0.072091785571926706 0.11279082144280737
v 0.80000000000000027 1.3048470391231024 -0.010484703912310198
v -0.17209178557192631 -0.90000000000000002 0.064186232164211043
v -1.1450041585702466 -0.59999999999999987 -0.11175062378553698
v -0.099999999999999867 -0.82790821442807339 0.067790821442807361
v -1.1000000000000001 -0.55499584142975344 -0.10950041585702465
v 0.90000000000000047 0.17209178557192678 0.11779082144280736
v 0.90000000000000047 1.3698024781361604 -0.0019802478136160136
v -0.07209178557192622 -0.79999999999999982 0.069186232164211048
v -1.0450041585702468 -0.5 -0.106750623785537
v 0 -0.72790821442807363 0.072790821442807352
v 1 0.27209178557192643 0.12279082144280735
v 0.94648959705709856 1.4000000000000006 0.001973439558564737
v 1 1.4118557452062916 0.0088144254793708059
v 0.95738574807777888 1.407077642731009 0.0029000979385659137
v -0.85190553266708235 -1.5037747708083606 0.022591647180773739
v -0.84244422912859429 -1.5000000000000002 0.023633365630710893
v -0.88053838693502229 -1.5 0.017919241959746701
v -0.79999999999999971 -1.4830660504182926 0.028306605041829327
v 1.0544910996408834 1.4179655335125654 0.016377111594875971
v -0.74324142439596419 -1.4604211142905508 0.034555897769660483
v -0.84500415857024658 -0.29999999999999988 -0.09675062378553699
v 1.1279082144280739 0.40000000000000036 0.12918623216421105
v -0.79999999999999982 -0.25499584142975318 -0.09450041585702465
v 1.1127890576864596 1.4000000000000001 0.026918358652968905
v -0.7450041585702466 -0.19999999999999996 -0.091750623785536986
v 1.2279082144280737 0.5 0.13418623216421102
v 1 -1.3680117784833934 -0.095455565846428003
v 1.595455565846428 -1 0.1319882215166065
v 0.78368810393753685 -1.5663118960624631 0.15000000000000002
v 1.2163118960624633 -1.5663118960624631 0.15000000000000002
v 1 -1 -0.19999999999999996
v 1.5663118960624631 -0.64999999999999991 0.2836881039375368
v 1.5663118960624631 -1.3500000000000001 0.2836881039375368
v 1.3500000000000001 -1.2163118960624633 -0.066311896062463127
v 1.3500000000000001 -0.78368810393753674 -0.066311896062463127
v 0.64999999999999991 -1.2163118960624633 -0.066311896062463127
v -0.64364074965888995 0.35635925034111032 -0.13218203748294452
v -0.62377717729792315 0.30000000000000027 -0.1235665765946885
v -0.59999999999999987 0.74877942365107142 -0.16487794236510714
v 0.010911414242444911 -0.71294518925138051 0.069409982884009125
v 0.010972488224556022 -0.71693572620351764 0.073339445854035165
v -0.6590217418383385 0.40000000000000036 -0.13885326127575079
v 0.40000000000000041 -1.2140264356943633 0.18140264356943639
v -0.57472606780758639 0.16082645613598356 -0.10229155578473632
v -0.52926338569852782 0.031834418067458251 -0.082572949661525008
v 0.43774449164637746 -1.2622555083536229 0.19188722458231888
v 0.46728365902180302 -1.2999999999999998 0.20009254885327041
v -0.59999999999999987 0.23253661207628892 -0.11325366120762888
v -0.59327383082762097 0.21345233834475807 -0.11033630845861897
v 1.6383842154405599 -1.1000000000000001 0.35575763231608398
v 0.87870964196314327 -1.6212903580368569 0.29393548209815717
v 0.90000000000000036 -1.6225586307129993 0.29725586307129997
v -0.42860380078680516 0.016272348873800774 -0.10266174808734521
v 0.029775477231687913 0.43652655388981337 -0.089921022609103174
v 6.575032353180286e-17 6.575032353180286e-17 -0.19999999999999993
v -5.3157755848572568e-17 -5.3157755848572568e-17 -0.19999999999999993
v -0.5250694018684251 0.019934756701821484 -0.080753885950445914
v 1.6161770921143694 -1.2194512218804316 0.36437168600519854
v 0.021360409809285021 0.55472305620470652 -0.056540326110934916
v 0.016984214203925777 0.56198837277417235 -0.053651205146828376
v 0.87199823322289383 -1.6208905575117112 0.29288879073460522
v 0.80705571272332677 -1.6000000000000001 0.28105835690849906
v -0.5 0.72316913547660733 -0.14731691354766074
v 1.5854101966249685 -1.2999999999999998 0.36781152949374524
v 0.032100701340234121 0.53689213065715169 -0.063630960127540687
v 0.83211476519227001 -0.067885234807730149 0.13160573825961353
v 0.87367504955873665 -0.099999999999999853 0.14105125743381047
v 0.80000000000000027 -0.043069279886430757 0.12430692798864311
v 0.74426328485285465 0 0.11163949272792818
v 0.075979311195715993 -0.79999999999999982 0.091396896679357381
v 0.036161555905486087 0.53015034015697726 -0.066311896062463127
v 0.034999721562449647 0.51311714408055054 -0.070607160094132967
v 0.31076191989136837 -1.0999999999999999 0.15661428798370525
v 0.97308752468006132 -1.6269124753199387 0.3086543762340031
v 1 -1.6285156591196914 0.31285156591196922
v 0.033670383432970616 0.49362824091031759 -0.075521680212858572
v 1.6079243416871254 -0.79999999999999982 0.32118865125306872
v 0.80000000000000027 -1.5977303348977077 0.27977303348977084
v 0.032176926721912413 0.4717332598025743 -0.0810429414256226
v 0.90000000000000036 -0.1203420071591581 0.14703420071591583
v 1.6569751707917069 -1 0.34854627561875601
v 0.031049916616828661 0.45521060817408487 -0.085209461374622653
v 1.4795631188605303 -0.56818623536956747 0.27875309136603627
v 1.4526275857050903 -0.54737241429490957 0.27263137928525449
v 1.5 -0.5839783707955214 0.28339783707955213
v -0.29999999999999988 0.67194855912767881 -0.11219485591276786
v 0.019972357575218182 -0.7284355592626971 0.075839409562552432
v 1.4000000000000004 -0.50670564352279435 0.26067056435227948
v -0.51222814856376087 0.019447226368756884 -0.083670204346944152
v 0.73503734769015761 0.007129133262083997 0.10954268882731524
v 1 -0.1976147344318851 0.16976147344318848
v 1.5833989271348348 -0.69999999999999996 0.30750983907022517
v 1.2401427050100033 -1.6000000000000001 0.34602140575150053
v -0.19999999999999996 0.64633827095321461 -0.094633827095321463
v 1.1054957056028383 -1.6348000682702932 0.32930436266745511
v 1.1324985789705013 -0.29999999999999982 0.19987478684557522
v 1.4000000000000004 -1.5121420103673215 0.36121420103673224
v 1.3913221083822664 -0.5 0.25869831625733997
v 1.5199307065760868 -0.60262389368497338 0.28825199535491036
v 1.5543973771526336 -0.63525222770160927 0.29668482934305596
v 1.5663118960624631 -0.64999999999999991 0.29994678440936945
v 1.5171589781997084 -0.59999999999999987 0.28757384672995623
v 1.0030868142646192 -0.19999999999999996 0.17046302213969286
v 1.3047497491248348 -1.5833020449335142 0.35404266686207675
v 1.5797908117924304 -0.68528825951255012 0.30549744772011955
v 0 0.57511253829538767 -0.057511253829538776
v 0.5718583549358599 0.0055464588733965042 -0.05521897831567011
v 0.54281671924034891 0.023495176822114518 -0.066311896062463127
v 0.033516174920407621 -0.53279572114205576 -0.08213608731644273
v 1.5012771741751325 -0.58496527811266941 0.2836881039375368
v -0.099999999999999881 0.62072798277875041 -0.077072798277875013
v 0.73275059495875272 -1.5760977041831066 0.26752235966212362
v 0.48270544593293391 -1.3197056166086671 0.20437637855080676
v 0.5 -1.3418042134721404 0.20918042134721401
v 0.73355591629473815 0.0071147648468330273 0.10804688901664469
v 1.5663118960624631 -1.3500000000000001 0.36994678440936951
v 0.71529059394166106 0.0069376093355665502 0.089604411152301278
v 1.489091898394695 -1.4455827886216164 0.36792206362136587
v 1.5000000000000002 -1.4320807580402535 0.36820807580402537
v -0.69999999999999996 0.51626830603814466 -0.15662683060381447
v -0.70000000000000007 0.77438971182553562 -0.18243897118255356
v 0.70073294723570034 0.0067964146008020381 0.074905569711576026
v -0.038722825824867156 0.60503472188733054 -0.066311896062463127
v -0.010841150120518101 0.58348979066124262 -0.059975151584201976
v 0.69718307126910817 0.0067619843246953483 0.071321263468877183
v -0.79999999999999982 0.79999999999999982 -0.19999999999999996
v 0.63287526721566068 0.0061382624058980055 0.0063897374966321958
v 0.0088019464423677723 -0.57511384250483111 -0.066311896062463127
v 0.0099344429276655138 -0.64911047603894634 0.0065522409863542786
v 0.64616505126036117 -1.5 0.2469247576890542
v 0.010028145058833515 -0.65523291646275195 0.012580979278992037
v 0.010067881785070662 -0.65782929005630142 0.015137616146304369
v 0.57454225863251551 -1.4370526550581324 0.22988660430069058
v 0.54554452858702052 -1.3999999999999999 0.22183167928805303
v 0.01036888906027569 -0.67749692286894903 0.034504241683746772
v 0.010605171344902188 -0.69293546405039375 0.049706500580565048
v -0.69426630637875375 0.5 -0.15413994595681305
f 70 71 45
f 45 71 46
f 72 73 47
f 47 73 48
f 89 90 64
f 64 90 65
f 91 92 66
f 66 92 67
f 159 160 135
f 135 160 136
f 160 161 136
f 136 161 137
f 161 162 137
f 138 163 139
f 143 168 144
f 171 172 147
f 148 173 149
f 159 181 160
f 181 182 160
f 160 182 161
f 188 189 167
f 196 197 182
f 182 197 183
f 198 199 184
f 184 199 185
f 200 201 188
f 188 201 189
f 190 203 191
f 205 206 194
f 194 206 195
f 196 213 197
f 213 214 197
f 215 216 198
f 198 216 199
f 219 220 200
f 200 220 201
f 221 222 202
f 223 224 204
f 225 226 205
f 205 226 206
f 213 227 214
f 228 229 215
f 215 229 216
f 254 255 237
f 237 255 238
f 256 257 239
f 261 262 242
f 242 262 243
f 263 264 244
f 244 264 245
f 265 266 246
f 246 266 247
f 256 275 257
f 282 283 267
f 267 283 268
f 290 291 276
f 276 291 277
f 292 293 278
f 278 293 279
f 282 296 283
f 296 297 283
f 283 297 284
f 300 301 296
f 296 301 297
f 302 303 298
f 315 316 300
f 300 316 301
f 317 318 302
f 302 318 303
f 324 325 308
f 308 325 309
f 326 327 310
f 310 327 311
f 356 357 340
f 340 357 341
f 376 377 363
f 363 377 364
f 378 379 365
f 365 379 366
f 380 381 367
f 367 381 368
f 384 385 373
f 373 385 374
f 384 386 385
f 405 406 395
f 395 406 396
f 432 433 416
f 416 433 417
f 435 436 419
f 419 436 420
f 439 440 423
f 423 440 424
f 435 445 436
f 436 446 437
f 447 448 446
f 475 476 450
f 450 476 451
f 477 478 452
f 452 478 453
f 479 480 454
f 481 482 455
f 455 482 456
f 482 483 456
f 456 483 457
f 484 485 458
f 458 485 459
f 273 516 513
f 254 518 517
f 522 532 274
f 525 533 370
f 307 544 542
f 540 546 181
f 323 554 549
f 339 561 559
f 562 566 213
f 355 567 565
f 564 569 400
f 235 575 573
f 580 582 236
f 510 511 509
f 505 507 504
f 504 506 505
f 509 511 508
f 422 579 568
f 423 579 422
f 422 568 409
f 424 583 423
f 423 583 579
f 576 581 410
f 570 576 410
f 426 581 425
f 552 556 179
f 179 556 180
f 212 552 179
f 212 553 552
f 182 546 196
f 546 560 196
f 181 546 182
f 520 583 424
f 355 561 339
f 355 565 561
f 440 520 424
f 440 536 534
f 440 534 520
f 523 543 441
f 425 523 441
f 441 543 538
f 211 574 212
f 572 574 234
f 234 573 572
f 235 573 234
f 234 574 211
f 566 578 227
f 227 578 228
f 213 566 227
f 521 525 370
f 357 521 370
f 356 521 357
f 578 580 236
f 229 578 236
f 228 578 229
f 468 545 536
f 468 536 467
f 467 536 440
f 237 518 254
f 237 582 518
f 236 582 237
f 441 538 470
f 538 555 470
f 470 555 469
f 469 555 548
f 469 547 468
f 469 548 547
f 468 547 545
f 370 535 371
f 371 535 382
f 533 535 370
f 272 514 253
f 273 513 272
f 513 514 272
f 255 522 274
f 254 517 255
f 517 522 255
f 535 551 382
f 550 558 390
f 382 550 390
f 382 551 550
f 288 516 273
f 289 526 288
f 288 526 516
f 399 563 557
f 399 557 389
f 306 542 528
f 307 542 306
f 306 528 289
f 409 563 399
f 409 568 563
f 401 571 410
f 400 571 401
f 569 571 400
f 410 571 570
f 322 544 307
f 323 549 322
f 322 549 544
f 425 581 531
f 425 531 523
f 180 515 156
f 512 515 180
f 156 515 157
f 515 519 157
f 519 524 157
f 524 527 157
f 527 530 158
f 157 527 158
f 528 529 289
f 289 529 526
f 530 537 158
f 158 537 159
f 537 539 159
f 181 541 540
f 539 541 159
f 159 541 181
f 180 556 512
f 339 559 323
f 323 559 554
f 196 560 213
f 560 562 213
f 212 574 553
f 390 564 400
f 558 564 390
f 253 577 235
f 235 577 575
f 514 577 253
f 507 527 524
f 507 524 519
f 548 555 511
f 510 548 511
f 547 548 510
f 545 547 510
f 536 545 510
f 534 536 510
f 506 514 513
f 526 529 506
f 516 526 506
f 513 516 506
f 506 577 514
f 507 512 504
f 512 556 504
f 504 556 552
f 507 515 512
f 507 519 515
f 504 577 506
f 575 577 504
f 573 575 504
f 572 573 504
f 552 553 504
f 504 574 572
f 553 574 504
f 505 539 537
f 505 537 507
f 505 541 539
f 507 530 527
f 507 537 530
f 511 581 508
f 508 581 576
f 531 581 511
f 508 576 570
f 570 571 508
f 511 543 523
f 523 531 511
f 511 555 538
f 538 543 511
f 550 551 509
f 508 550 509
f 508 558 550
f 508 564 558
f 508 569 564
f 508 571 569
f 506 529 528
f 520 534 510
f 510 583 520
f 579 583 510
f 568 579 510
f 563 568 510
f 557 563 510
f 565 567 506
f 561 565 506
f 559 561 506
f 554 559 506
f 549 554 506
f 544 549 506
f 542 544 506
f 528 542 506
f 509 551 535
f 509 535 533
f 509 533 525
f 509 525 521
f 505 532 522
f 505 522 517
f 517 518 505
f 518 582 505
f 505 582 580
f 505 580 578
f 505 578 566
f 505 566 562
f 505 562 560
f 505 560 546
f 505 546 540
f 540 541 505
f 258 595 594
f 369 604 603
f 275 606 605
f 369 603 600
f 616 622 509
f 389 626 625
f 629 633 509
f 397 631 609
f 633 636 509
f 624 637 398
f 636 639 509
f 509 639 611
f 610 646 505
f 627 644 355
f 418 655 645
f 510 674 672
f 510 679 674
f 510 682 679
f 506 688 686
f 506 689 688
f 506 692 689
f 506 693 692
f 597 693 506
f 260 694 677
f 591 592 588
f 585 592 591
f 590 591 587
f 585 591 590
f 589 592 585
f 588 593 584
f 584 593 586
f 586 587 584
f 584 591 588
f 587 591 584
f 589 658 657
f 589 657 656
f 328 327 343
f 344 328 343
f 2 1 26
f 27 2 26
f 173 194 195
f 148 194 173
f 458 457 483
f 484 458 483
f 184 183 197
f 198 184 197
f 151 150 174
f 175 151 174
f 253 252 271
f 272 253 271
f 502 501 503
f 500 501 502
f 21 20 45
f 46 21 45
f 75 74 99
f 100 75 99
f 152 151 175
f 176 152 175
f 2 27 28
f 3 2 28
f 414 413 429
f 430 414 429
f 459 485 486
f 460 459 486
f 153 152 176
f 177 153 176
f 161 182 183
f 162 161 183
f 328 344 345
f 329 328 345
f 376 375 395
f 394 395 375
f 154 153 177
f 178 154 177
f 4 3 28
f 29 4 28
f 186 185 199
f 217 186 199
f 216 217 199
f 77 76 101
f 102 77 101
f 155 154 178
f 179 155 178
f 310 309 325
f 326 310 325
f 22 21 46
f 47 22 46
f 461 460 486
f 487 461 486
f 156 155 179
f 180 156 179
f 164 163 185
f 186 164 185
f 415 414 430
f 431 415 430
f 377 395 396
f 376 395 377
f 5 4 29
f 30 5 29
f 331 330 346
f 347 331 346
f 78 77 102
f 103 78 102
f 630 354 353
f 630 353 369
f 600 630 369
f 6 5 30
f 31 6 30
f 187 217 218
f 186 217 187
f 462 461 487
f 488 462 487
f 678 276 261
f 596 276 678
f 312 311 327
f 328 312 327
f 23 22 47
f 48 23 47
f 378 377 387
f 396 387 377
f 397 387 396
f 506 567 597
f 597 567 598
f 165 164 186
f 187 165 186
f 416 415 431
f 432 416 431
f 259 258 594
f 599 259 594
f 256 255 274
f 275 256 274
f 7 6 31
f 32 7 31
f 332 331 347
f 348 332 347
f 601 274 602
f 275 274 601
f 79 78 103
f 104 79 103
f 313 312 328
f 329 313 328
f 200 218 219
f 187 218 200
f 188 187 200
f 463 462 488
f 489 463 488
f 166 165 187
f 188 166 187
f 607 456 457
f 615 456 607
f 455 456 615
f 621 455 615
f 24 23 48
f 49 24 48
f 379 378 388
f 387 388 378
f 8 7 32
f 33 8 32
f 608 397 609
f 387 397 608
f 332 348 349
f 333 332 349
f 315 314 330
f 331 315 330
f 606 275 601
f 595 258 257
f 605 257 275
f 595 257 605
f 190 189 201
f 202 190 201
f 610 505 613
f 9 8 33
f 34 9 33
f 80 79 104
f 105 80 104
f 612 509 611
f 25 24 49
f 50 25 49
f 169 168 189
f 190 169 189
f 463 489 490
f 464 463 490
f 274 532 602
f 602 532 614
f 190 202 203
f 222 203 202
f 315 331 332
f 316 315 332
f 290 276 596
f 620 290 596
f 334 333 349
f 350 334 349
f 687 380 379
f 669 379 388
f 635 669 388
f 687 379 669
f 509 521 616
f 616 521 617
f 9 34 35
f 10 9 35
f 26 51 52
f 27 26 52
f 81 80 105
f 106 81 105
f 618 619 387
f 388 387 619
f 608 618 387
f 192 191 203
f 204 192 203
f 660 420 421
f 660 421 408
f 648 660 408
f 465 464 490
f 491 465 490
f 623 624 399
f 398 399 624
f 317 316 332
f 333 317 332
f 335 334 350
f 351 335 350
f 82 81 106
f 107 82 106
f 627 355 354
f 627 354 630
f 28 27 52
f 53 28 52
f 170 169 190
f 191 170 190
f 465 491 492
f 466 465 492
f 193 192 204
f 224 193 204
f 399 389 623
f 625 623 389
f 11 10 35
f 36 11 35
f 83 82 107
f 108 83 107
f 335 351 352
f 336 335 352
f 509 622 628
f 629 509 628
f 409 421 422
f 408 421 409
f 467 466 492
f 493 467 492
f 29 28 53
f 54 29 53
f 635 388 619
f 318 317 333
f 334 318 333
f 262 261 276
f 277 262 276
f 205 224 225
f 193 224 205
f 194 193 205
f 631 407 632
f 397 407 631
f 171 170 191
f 192 171 191
f 84 83 108
f 109 84 108
f 337 336 352
f 353 337 352
f 12 11 36
f 37 12 36
f 638 457 458
f 638 458 634
f 607 457 638
f 262 277 278
f 263 262 278
f 198 197 214
f 215 198 214
f 318 334 335
f 319 318 335
f 620 308 290
f 643 308 620
f 85 84 109
f 110 85 109
f 30 29 54
f 55 30 54
f 172 171 192
f 193 172 192
f 468 467 493
f 494 468 493
f 640 434 641
f 642 434 640
f 419 418 434
f 435 419 434
f 13 12 37
f 38 13 37
f 598 567 644
f 567 355 644
f 264 263 278
f 279 264 278
f 338 337 353
f 354 338 353
f 320 319 335
f 336 320 335
f 434 418 641
f 645 641 418
f 85 110 111
f 86 85 111
f 202 201 220
f 221 202 220
f 411 426 427
f 410 426 411
f 581 426 410
f 408 398 637
f 648 408 637
f 31 30 55
f 56 31 55
f 469 468 494
f 495 469 494
f 175 207 208
f 174 207 175
f 647 626 557
f 389 557 626
f 420 436 437
f 421 420 437
f 264 279 280
f 265 264 280
f 14 13 38
f 39 14 38
f 532 505 646
f 614 532 646
f 204 203 222
f 223 204 222
f 87 86 111
f 112 87 111
f 321 320 336
f 337 321 336
f 634 458 459
f 634 459 649
f 32 31 56
f 57 32 56
f 470 469 495
f 496 470 495
f 412 427 428
f 411 427 412
f 339 338 354
f 355 339 354
f 324 308 643
f 651 324 643
f 265 280 281
f 266 265 281
f 176 175 209
f 208 209 175
f 422 421 437
f 438 422 437
f 416 417 650
f 652 407 416
f 652 416 650
f 632 407 652
f 88 87 112
f 113 88 112
f 14 39 40
f 15 14 40
f 208 207 231
f 230 231 207
f 655 418 419
f 655 419 653
f 471 470 496
f 497 471 496
f 322 321 337
f 338 322 337
f 33 32 57
f 58 33 57
f 177 209 210
f 176 209 177
f 268 283 284
f 269 268 284
f 422 438 439
f 423 422 439
f 661 417 654
f 650 417 661
f 16 15 40
f 41 16 40
f 89 88 113
f 114 89 113
f 209 231 232
f 208 231 209
f 323 322 338
f 339 323 338
f 472 471 497
f 498 472 497
f 33 58 59
f 34 33 59
f 178 210 211
f 177 210 178
f 270 269 284
f 285 270 284
f 656 460 659
f 657 460 656
f 658 460 657
f 662 460 658
f 459 460 662
f 649 459 662
f 342 341 357
f 358 342 357
f 17 16 41
f 42 17 41
f 89 114 115
f 90 89 115
f 210 232 233
f 209 232 210
f 653 419 420
f 653 420 660
f 179 211 212
f 178 211 179
f 473 472 498
f 499 473 498
f 35 34 59
f 60 35 59
f 617 356 663
f 521 356 617
f 325 324 340
f 341 325 340
f 271 270 285
f 286 271 285
f 343 342 358
f 359 343 358
f 612 665 509
f 510 509 664
f 664 509 665
f 18 17 42
f 43 18 42
f 91 90 115
f 116 91 115
f 211 233 234
f 210 233 211
f 505 506 666
f 613 505 666
f 326 325 341
f 342 326 341
f 271 286 287
f 272 271 287
f 340 324 651
f 668 340 651
f 35 60 61
f 36 35 61
f 19 18 43
f 44 19 43
f 92 91 116
f 117 92 116
f 343 359 360
f 344 343 360
f 326 342 343
f 327 326 343
f 368 381 671
f 670 368 671
f 369 368 670
f 604 369 670
f 273 272 287
f 288 273 287
f 37 36 61
f 62 37 61
f 19 44 45
f 20 19 45
f 92 117 118
f 93 92 118
f 426 425 441
f 442 426 441
f 654 417 433
f 676 675 433
f 654 433 675
f 557 510 672
f 647 557 672
f 94 93 118
f 119 94 118
f 345 344 360
f 361 345 360
f 383 390 391
f 382 390 383
f 37 62 63
f 38 37 63
f 94 119 120
f 95 94 120
f 241 260 677
f 261 242 683
f 683 242 241
f 678 261 683
f 241 677 683
f 427 426 442
f 443 427 442
f 384 391 392
f 383 391 384
f 340 668 680
f 681 340 680
f 347 362 363
f 346 362 347
f 96 95 120
f 121 96 120
f 356 340 681
f 663 356 681
f 215 214 227
f 228 215 227
f 386 392 393
f 384 392 386
f 685 506 686
f 666 506 685
f 428 427 443
f 444 428 443
f 510 664 684
f 682 510 684
f 278 277 291
f 292 278 291
f 39 38 63
f 64 39 63
f 348 363 364
f 347 363 348
f 690 691 381
f 690 381 380
f 687 690 380
f 217 216 229
f 237 217 229
f 236 237 229
f 694 260 259
f 694 259 599
f 430 449 450
f 429 449 430
f 691 671 381
f 40 39 64
f 65 40 64
f 349 364 365
f 348 364 349
f 218 237 238
f 217 237 218
f 631 632 587
f 587 632 652
f 586 631 587
f 609 631 586
f 608 609 586
f 618 608 586
f 431 450 451
f 430 450 431
f 26 1 500
f 51 26 500
f 76 51 500
f 101 76 500
f 126 101 500
f 150 126 500
f 174 150 500
f 207 174 500
f 230 207 500
f 248 230 500
f 267 248 500
f 282 267 500
f 299 282 500
f 502 299 500
f 314 299 502
f 330 314 502
f 346 330 502
f 362 346 502
f 375 362 502
f 394 375 502
f 404 394 502
f 413 404 502
f 429 413 502
f 449 429 502
f 474 449 502
f 40 65 66
f 41 40 66
f 618 586 619
f 635 619 586
f 669 635 586
f 97 96 121
f 122 97 121
f 350 349 366
f 365 366 349
f 621 615 590
f 673 621 590
f 280 279 293
f 294 280 293
f 219 239 240
f 218 239 219
f 238 239 218
f 615 607 585
f 638 585 607
f 615 585 590
f 98 97 122
f 123 98 122
f 432 451 452
f 431 451 432
f 690 687 586
f 669 586 687
f 281 280 294
f 295 281 294
f 351 366 367
f 350 366 351
f 99 98 123
f 124 99 123
f 42 41 66
f 67 42 66
f 282 299 296
f 296 299 300
f 649 589 585
f 638 634 585
f 649 585 634
f 662 589 649
f 220 240 241
f 219 240 220
f 100 99 124
f 125 100 124
f 587 650 661
f 652 650 587
f 352 367 368
f 351 367 352
f 285 284 297
f 298 285 297
f 433 452 453
f 432 452 433
f 675 676 590
f 676 673 590
f 102 101 126
f 127 102 126
f 43 42 67
f 68 43 67
f 286 285 298
f 303 286 298
f 590 587 654
f 675 590 654
f 661 654 587
f 221 241 242
f 220 241 221
f 662 658 589
f 103 102 127
f 128 103 127
f 353 368 369
f 352 368 353
f 287 303 304
f 286 303 287
f 104 103 128
f 129 104 128
f 433 453 454
f 673 676 433
f 673 433 454
f 673 454 455
f 621 673 455
f 288 304 305
f 287 304 288
f 44 43 68
f 69 44 68
f 390 400 401
f 391 390 401
f 222 221 243
f 242 243 221
f 289 305 306
f 288 305 289
f 45 44 69
f 70 45 69
f 105 104 129
f 130 105 129
f 223 243 244
f 222 243 223
f 613 666 588
f 593 588 666
f 613 588 683
f 677 613 683
f 694 613 677
f 599 613 694
f 594 613 599
f 595 613 594
f 605 613 595
f 610 613 605
f 610 605 606
f 610 606 601
f 602 610 601
f 646 610 602
f 614 646 602
f 685 593 666
f 47 46 71
f 72 47 71
f 224 244 245
f 223 244 224
f 49 48 73
f 74 49 73
f 225 245 246
f 224 245 225
f 50 49 74
f 75 50 74
f 226 246 247
f 225 246 226
f 630 600 593
f 604 670 593
f 603 604 593
f 600 603 593
f 627 630 593
f 686 627 593
f 685 686 593
f 688 627 686
f 689 627 688
f 692 627 689
f 693 627 692
f 644 627 693
f 597 644 693
f 598 644 597
f 475 474 502
f 476 475 502
f 477 476 502
f 478 477 502
f 479 478 502
f 480 479 502
f 481 480 502
f 482 481 502
f 483 482 502
f 484 483 502
f 485 484 502
f 486 485 502
f 487 486 502
f 488 487 502
f 489 488 502
f 490 489 502
f 491 490 502
f 492 491 502
f 503 492 502
f 493 492 503
f 494 493 503
f 495 494 503
f 496 495 503
f 497 496 503
f 498 497 503
f 499 498 503
f 659 460 461
f 659 461 434
f 667 659 434
f 642 667 434
f 691 690 593
f 586 593 690
f 671 691 593
f 670 671 593
f 106 105 130
f 131 106 130
f 52 51 76
f 77 52 76
f 392 391 401
f 402 392 401
f 435 461 462
f 434 461 435
f 107 106 131
f 132 107 131
f 53 52 77
f 78 53 77
f 445 462 463
f 435 462 445
f 393 392 402
f 403 393 402
f 108 107 132
f 133 108 132
f 358 370 371
f 357 370 358
f 395 394 404
f 405 395 404
f 54 53 78
f 79 54 78
f 436 445 446
f 447 446 445
f 109 108 133
f 134 109 133
f 231 230 248
f 249 231 248
f 396 406 407
f 397 396 407
f 620 596 612
f 612 683 588
f 678 683 612
f 596 678 612
f 643 620 612
f 611 651 643
f 611 643 612
f 668 651 611
f 639 668 611
f 636 668 639
f 633 680 636
f 680 668 636
f 629 680 633
f 628 680 629
f 665 612 588
f 592 665 588
f 359 358 372
f 371 372 358
f 109 134 135
f 110 109 135
f 640 589 642
f 667 642 589
f 55 54 79
f 80 55 79
f 111 110 135
f 136 111 135
f 438 437 446
f 448 438 446
f 291 308 309
f 290 308 291
f 231 249 250
f 232 231 250
f 112 111 136
f 137 112 136
f 360 372 373
f 359 372 360
f 292 309 310
f 291 309 292
f 56 55 80
f 81 56 80
f 113 112 137
f 162 113 137
f 293 310 311
f 292 310 293
f 439 448 466
f 465 466 448
f 438 448 439
f 294 311 312
f 293 311 294
f 233 232 250
f 251 233 250
f 361 360 374
f 373 374 360
f 138 162 184
f 183 184 162
f 113 162 138
f 114 113 138
f 57 56 81
f 82 57 81
f 295 312 313
f 294 312 295
f 233 251 252
f 234 233 252
f 115 114 138
f 139 115 138
f 440 439 467
f 466 467 439
f 297 301 302
f 298 297 302
f 58 57 82
f 83 58 82
f 115 139 140
f 116 115 140
f 645 655 592
f 592 624 684
f 623 684 624
f 637 624 592
f 648 637 592
f 660 648 592
f 653 660 592
f 655 653 592
f 641 645 592
f 640 641 592
f 589 640 592
f 682 684 623
f 625 682 623
f 679 682 625
f 674 679 625
f 626 674 625
f 672 674 626
f 647 672 626
f 235 234 252
f 253 235 252
f 592 664 665
f 684 664 592
f 59 58 83
f 84 59 83
f 60 59 84
f 85 60 84
f 61 60 85
f 86 61 85
f 680 628 681
f 622 681 628
f 663 681 622
f 616 663 622
f 617 663 616
f 442 470 471
f 441 470 442
f 589 659 667
f 656 659 589
f 239 238 255
f 256 239 255
f 363 362 375
f 376 363 375
f 61 86 87
f 62 61 87
f 443 471 472
f 442 471 443
f 473 499 503
f 444 473 503
f 428 444 503
f 412 428 503
f 403 412 503
f 393 403 503
f 386 393 503
f 385 386 503
f 374 385 503
f 361 374 503
f 345 361 503
f 329 345 503
f 313 329 503
f 295 313 503
f 501 295 503
f 281 295 501
f 266 281 501
f 247 266 501
f 226 247 501
f 206 226 501
f 195 206 501
f 173 195 501
f 149 173 501
f 125 149 501
f 100 125 501
f 75 100 501
f 50 75 501
f 25 50 501
f 364 377 378
f 365 364 378
f 299 314 315
f 300 299 315
f 239 257 258
f 240 239 258
f 259 240 258
f 117 116 140
f 141 117 140
f 63 62 87
f 88 63 87
f 302 301 316
f 317 302 316
f 444 472 473
f 443 472 444
f 167 143 142
f 117 141 142
f 118 117 142
f 143 118 142
f 367 366 379
f 380 367 379
f 304 303 318
f 319 304 318
f 64 63 88
f 89 64 88
f 119 118 143
f 144 119 143
f 241 240 259
f 260 241 259
f 447 463 464
f 445 463 447
f 304 319 320
f 305 304 320
f 66 65 90
f 91 66 90
f 399 398 408
f 409 399 408
f 68 67 92
f 93 68 92
f 120 119 144
f 145 120 144
f 244 243 262
f 263 244 262
f 306 305 320
f 321 306 320
f 448 464 465
f 447 464 448
f 121 120 145
f 146 121 145
f 68 93 94
f 69 68 94
f 307 306 321
f 322 307 321
f 246 245 264
f 265 246 264
f 122 121 146
f 147 122 146
f 70 69 94
f 95 70 94
f 123 122 147
f 172 123 147
f 450 449 474
f 475 450 474
f 402 401 410
f 411 402 410
f 249 248 267
f 268 249 267
f 148 172 194
f 193 194 172
f 123 172 148
f 124 123 148
f 70 95 96
f 71 70 96
f 403 402 411
f 412 403 411
f 452 451 476
f 477 452 476
f 250 249 268
f 269 250 268
f 72 71 96
f 97 72 96
f 250 269 270
f 251 250 270
f 454 453 478
f 479 454 478
f 73 72 97
f 98 73 97
f 455 454 480
f 481 455 480
f 24 25 501
f 23 24 501
f 22 23 501
f 21 22 501
f 20 21 501
f 19 20 501
f 18 19 501
f 500 18 501
f 17 18 500
f 16 17 500
f 15 16 500
f 14 15 500
f 13 14 500
f 12 13 500
f 11 12 500
f 10 11 500
f 9 10 500
f 8 9 500
f 7 8 500
f 6 7 500
f 5 6 500
f 4 5 500
f 3 4 500
f 2 3 500
f 1 2 500
f 372 371 382
f 383 372 382
f 252 251 270
f 271 252 270
f 125 124 148
f 149 125 148
f 74 73 98
f 99 74 98
f 405 413 414
f 404 413 405
f 372 383 384
f 373 372 384
f 127 126 150
f 151 127 150
f 406 414 415
f 405 414 406
f 128 127 151
f 152 128 151
f 407 415 416
f 406 415 407
f 129 128 152
f 153 129 152
f 130 129 153
f 154 130 153
f 131 130 154
f 155 131 154
f 131 155 156
f 132 131 156
f 133 132 156
f 157 133 156
f 133 157 158
f 134 133 158
f 135 134 158
f 159 135 158
f 163 184 185
f 138 184 163
f 140 139 163
f 164 140 163
f 140 164 165
f 141 140 165
f 141 165 166
f 142 141 166
f 142 166 167
f 188 167 166
f 143 167 168
f 189 168 167
f 145 144 168
f 169 145 168
f 146 145 169
f 170 146 169
f 147 146 170
f 171 147 170
