v -1.3680117784833934 1.595455565846428 0.5
v -0.6319882215166065 1.595455565846428 0.5
v -1.3680117784833934 0.404544434153572 0.5
v -1 1.3680117784833934 1.095455565846428
v -1 1.3680117784833934 -0.095455565846428003
v -1.595455565846428 1 0.1319882215166065
v -1.595455565846428 1 0.8680117784833935
v -1 1.7 0.5
v -1.2163118960624633 1.5663118960624631 0.84999999999999998
v -0.78368810393753685 1.5663118960624631 0.84999999999999998
v -1 1 1.2
v -1.2163118960624633 1.5663118960624631 0.15000000000000002
v -0.78368810393753685 1.5663118960624631 0.15000000000000002
v -1 1 -0.19999999999999996
v -0.43368810393753687 1.3500000000000001 0.2836881039375368
v -0.64999999999999991 1.2163118960624633 -0.066311896062463127
v -0.43368810393753687 1.3500000000000001 0.71631189606246326
v -0.64999999999999991 1.2163118960624633 1.0663118960624631
v -1.5663118960624631 1.3500000000000001 0.2836881039375368
v -1.5663118960624631 0.64999999999999991 0.2836881039375368
v -1.3500000000000001 0.78368810393753674 -0.066311896062463127
v -1.3500000000000001 1.2163118960624633 -0.066311896062463127
v -1.5663118960624631 1.3500000000000001 0.71631189606246326
v -1.5663118960624631 0.64999999999999991 0.71631189606246326
v -1.3500000000000001 0.78368810393753674 1.0663118960624631
v -1.3500000000000001 1.2163118960624633 1.0663118960624631
v -1.7 1 0.5
v 1.3680117784833934 -0.404544434153572 0.5
v 0.6319882215166065 -1.595455565846428 0.5
v 1.3680117784833934 -1.595455565846428 0.5
v 1 -1.3680117784833934 1.095455565846428
v 1 -1.3680117784833934 -0.095455565846428003
v 1.595455565846428 -1 0.1319882215166065
v 1.595455565846428 -1 0.8680117784833935
v 1 -1.7 0.5
v 0.78368810393753685 -1.5663118960624631 0.84999999999999998
v 1.2163118960624633 -1.5663118960624631 0.84999999999999998
v 1 -1 1.2
v 0.78368810393753685 -1.5663118960624631 0.15000000000000002
v 1.2163118960624633 -1.5663118960624631 0.15000000000000002
v 1 -1 -0.19999999999999996
v 1.5663118960624631 -0.64999999999999991 0.2836881039375368
v 1.5663118960624631 -1.3500000000000001 0.2836881039375368
v 1.3500000000000001 -1.2163118960624633 -0.066311896062463127
v 1.3500000000000001 -0.78368810393753674 -0.066311896062463127
v 1.5663118960624631 -0.64999999999999991 0.71631189606246326
v 1.5663118960624631 -1.3500000000000001 0.71631189606246326
v 1.3500000000000001 -1.2163118960624633 1.0663118960624631
v 1.3500000000000001 -0.78368810393753674 1.0663118960624631
v 1.7 -1 0.5
v 0.43368810393753687 -1.3500000000000001 0.2836881039375368
v 0.64999999999999991 -1.2163118960624633 -0.066311896062463127
v 0.43368810393753687 -1.3500000000000001 0.71631189606246326
v 0.64999999999999991 -1.2163118960624633 1.0663118960624631
f 20 24 27
f 39 40 35
f 35 29 39
f 27 24 7
f 24 25 7
f 35 37 36
f 36 29 35
f 14 21 22
f 34 47 50
f 24 20 3
f 50 47 43
f 43 33 50
f 44 41 45
f 45 33 44
f 44 43 40
f 33 43 44
f 51 39 29
f 26 25 11
f 26 7 25
f 29 36 53
f 19 1 12
f 12 22 19
f 14 22 5
f 5 22 12
f 8 1 9
f 12 1 8
f 50 33 42
f 42 33 45
f 48 49 38
f 48 34 49
f 48 37 47
f 47 34 48
f 30 37 35
f 35 40 30
f 47 37 30
f 30 43 47
f 40 43 30
f 52 41 32
f 32 39 52
f 40 39 32
f 41 44 32
f 32 44 40
f 9 1 23
f 7 26 23
f 23 26 9
f 23 19 27
f 27 7 23
f 1 19 23
f 21 20 6
f 6 20 27
f 6 22 21
f 6 19 22
f 27 19 6
f 14 5 16
f 10 8 9
f 13 16 5
f 13 5 12
f 12 8 13
f 38 54 31
f 31 54 36
f 31 36 37
f 37 48 31
f 31 48 38
f 9 26 4
f 4 26 11
f 4 10 9
f 4 18 10
f 11 18 4
f 8 10 2
f 15 13 2
f 2 13 8
f 10 17 2
f 49 34 46
f 50 42 46
f 46 34 50
f 42 28 46
f 52 21 41
f 41 21 14
f 51 21 52
f 52 39 51
f 51 20 21
f 29 3 51
f 51 3 20
f 53 3 29
f 24 3 53
f 24 53 54
f 54 25 24
f 54 53 36
f 54 38 11
f 11 25 54
f 16 41 14
f 45 41 16
f 15 42 13
f 13 42 45
f 45 16 13
f 11 38 18
f 38 49 18
f 2 42 15
f 2 28 42
f 10 18 46
f 46 18 49
f 46 17 10
f 28 2 46
f 46 2 17
