# vorpaline algo:delaunay=NN
# vorpaline algo:hole_filling=loop_split
# vorpaline algo:nn_search=BNN
# vorpaline algo:parallel=true
# vorpaline algo:predicates=fast
# vorpaline algo:random_seed=-1
# vorpaline algo:reconstruct=Co3Ne
# vorpaline biblio=false
# vorpaline biblio:command_line=false
# vorpaline clear_cache=false
# vorpaline coplanar_angle_tolerance=0
# vorpaline debug=false
# vorpaline delaunay=true
# vorpaline detailed_verbose=false
# vorpaline detect_intersecting_neighbors=true
# vorpaline fast_union=true
# vorpaline ignore_cache_time=false
# vorpaline log:features=*
# vorpaline log:features_exclude=
# vorpaline log:file_name=
# vorpaline log:pretty=true
# vorpaline log:quiet=false
# vorpaline nl:CUDA=false
# vorpaline nl:CUDA:matrix_format=fp64
# vorpaline nl:MKL=false
# vorpaline noop=false
# vorpaline profile=scan
# vorpaline simplify_coplanar_facets=true
# vorpaline sys:FPE=false
# vorpaline sys:ascii=false
# vorpaline sys:assert=throw
# vorpaline sys:cancel=false
# vorpaline sys:compression_level=3
# vorpaline sys:lowmem=false
# vorpaline sys:max_threads=96
# vorpaline sys:multithread=true
# vorpaline sys:stats=false
# vorpaline sys:use_doubles=false
# vorpaline verbose=false
v -15 -15 -15 
v 15 -15 -15 
v -15 15 -15 
v 15 15 -15 
v -15 -15 15 
v 15 -15 15 
v -15 15 15 
v 15 15 15 
v 13.3826 0 -14.8629 
v 13.0902 2.7824 -14.8629 
v 12.2256 5.4432 -14.8629 
v 10.8268 7.8661 -14.8629 
v 8.95472 9.94522 -14.8629 
v 6.69131 11.5897 -14.8629 
v 4.13545 12.7276 -14.8629 
v 1.39886 13.3093 -14.8629 
v -1.39886 13.3093 -14.8629 
v -4.13545 12.7276 -14.8629 
v -6.69131 11.5897 -14.8629 
v -8.95472 9.94522 -14.8629 
v -10.8268 7.8661 -14.8629 
v -12.2256 5.4432 -14.8629 
v -13.0902 2.7824 -14.8629 
v -13.3826 7.58197e-15 -14.8629 
v -13.0902 -2.7824 -14.8629 
v -12.2256 -5.4432 -14.8629 
v -10.8268 -7.8661 -14.8629 
v -8.95472 -9.94522 -14.8629 
v -6.69131 -11.5897 -14.8629 
v -4.13545 -12.7276 -14.8629 
v -1.39886 -13.3093 -14.8629 
v 1.39886 -13.3093 -14.8629 
v 4.13545 -12.7276 -14.8629 
v 6.69131 -11.5897 -14.8629 
v 8.95472 -9.94522 -14.8629 
v 10.8268 -7.8661 -14.8629 
v 12.2256 -5.4432 -14.8629 
v 13.0902 -2.7824 -14.8629 
v 14.7815 6.58114 -11.7557 
v 13.0902 9.51057 -11.7557 
v 10.8268 12.0243 -11.7557 
v 8.09017 14.0126 -11.7557 
v -8.09017 14.0126 -11.7557 
v -10.8268 12.0243 -11.7557 
v -13.0902 9.51057 -11.7557 
v -14.7815 6.58114 -11.7557 
v -14.7815 -6.58114 -11.7557 
v -13.0902 -9.51057 -11.7557 
v -10.8268 -12.0243 -11.7557 
v -8.09017 -14.0126 -11.7557 
v 8.09017 -14.0126 -11.7557 
v 10.8268 -12.0243 -11.7557 
v 13.0902 -9.51057 -11.7557 
v 14.7815 -6.58114 -11.7557 
v 14.7815 10.7394 -8.13473 
v 12.2256 13.5779 -8.13473 
v -12.2256 13.5779 -8.13473 
v -14.7815 10.7394 -8.13473 
v -14.7815 -10.7394 -8.13473 
v -12.2256 -13.5779 -8.13473 
v 12.2256 -13.5779 -8.13473 
v 14.7815 -10.7394 -8.13473 
v 13.0902 14.5381 -4.15823 
v -13.0902 14.5381 -4.15823 
v -13.0902 -14.5381 -4.15823 
v 13.0902 -14.5381 -4.15823 
v 13.3826 14.8629 -4.44089e-15 
v -13.3826 14.8629 -4.44089e-15 
v -13.3826 -14.8629 -4.44089e-15 
v 13.3826 -14.8629 -4.44089e-15 
v 13.0902 14.5381 4.15823 
v -13.0902 14.5381 4.15823 
v -13.0902 -14.5381 4.15823 
v 13.0902 -14.5381 4.15823 
v 14.7815 10.7394 8.13473 
v 12.2256 13.5779 8.13473 
v -12.2256 13.5779 8.13473 
v -14.7815 10.7394 8.13473 
v -14.7815 -10.7394 8.13473 
v -12.2256 -13.5779 8.13473 
v 12.2256 -13.5779 8.13473 
v 14.7815 -10.7394 8.13473 
v 14.7815 6.58114 11.7557 
v 13.0902 9.51057 11.7557 
v 10.8268 12.0243 11.7557 
v 8.09017 14.0126 11.7557 
v -8.09017 14.0126 11.7557 
v -10.8268 12.0243 11.7557 
v -13.0902 9.51057 11.7557 
v -14.7815 6.58114 11.7557 
v -14.7815 -6.58114 11.7557 
v -13.0902 -9.51057 11.7557 
v -10.8268 -12.0243 11.7557 
v -8.09017 -14.0126 11.7557 
v 8.09017 -14.0126 11.7557 
v 10.8268 -12.0243 11.7557 
v 13.0902 -9.51057 11.7557 
v 14.7815 -6.58114 11.7557 
v 13.3826 0 14.8629 
v 13.0902 2.7824 14.8629 
v 12.2256 5.4432 14.8629 
v 10.8268 7.8661 14.8629 
v 8.95472 9.94522 14.8629 
v 6.69131 11.5897 14.8629 
v 4.13545 12.7276 14.8629 
v 1.39886 13.3093 14.8629 
v -1.39886 13.3093 14.8629 
v -4.13545 12.7276 14.8629 
v -6.69131 11.5897 14.8629 
v -8.95472 9.94522 14.8629 
v -10.8268 7.8661 14.8629 
v -12.2256 5.4432 14.8629 
v -13.0902 2.7824 14.8629 
v -13.3826 7.58197e-15 14.8629 
v -13.0902 -2.7824 14.8629 
v -12.2256 -5.4432 14.8629 
v -10.8268 -7.8661 14.8629 
v -8.95472 -9.94522 14.8629 
v -6.69131 -11.5897 14.8629 
v -4.13545 -12.7276 14.8629 
v -1.39886 -13.3093 14.8629 
v 1.39886 -13.3093 14.8629 
v 4.13545 -12.7276 14.8629 
v 6.69131 -11.5897 14.8629 
v 8.95472 -9.94522 14.8629 
v 10.8268 -7.8661 14.8629 
v 12.2256 -5.4432 14.8629 
v 13.0902 -2.7824 14.8629 
v 13.1939 -0 -15 
v 13.1817 0.115988 -15 
v 12.8695 2.85409 -15 
v 12.0532 5.36644 -15 
v 12.9056 2.74317 -15 
v 11.9949 5.46745 -15 
v 8.73409 9.87353 -15 
v 6.59695 11.4263 -15 
v 10.6741 7.75518 -15 
v 10.5961 7.84185 -15 
v 4.07714 12.5481 -15 
v 3.96306 12.5724 -15 
v 6.49041 11.4737 -15 
v 8.82845 9.80498 -15 
v -4.07714 12.5481 -15 
v -4.18369 12.5007 -15 
v 1.37914 13.1216 -15 
v -1.37914 13.1216 -15 
v -6.69131 11.3577 -15 
v -8.82845 9.80498 -15 
v -1.49322 13.0974 -15 
v -6.59695 11.4263 -15 
v -12.0893 5.25553 -15 
v -12.9056 2.74317 -15 
v -8.90648 9.71831 -15 
v -10.6741 7.75518 -15 
v -10.7324 7.65418 -15 
v -10.6741 -7.75518 -15 
v -10.5961 -7.84185 -15 
v -12.9178 2.62718 -15 
v -12.0532 5.36644 -15 
v -13.1939 7.47506e-15 -15 
v -13.1817 -0.115988 -15 
v 1.37914 -13.1216 -15 
v -8.73409 -9.87353 -15 
v -6.59695 -11.4263 -15 
v -12.9056 -2.74317 -15 
v -8.82845 -9.80498 -15 
v -12.8695 -2.85409 -15 
v -12.0532 -5.36644 -15 
v 1.49322 -13.0974 -15 
v 4.07714 -12.5481 -15 
v 4.18369 -12.5007 -15 
v 10.6741 -7.75518 -15 
v 10.7324 -7.65418 -15 
v 6.69131 -11.3577 -15 
v 8.82845 -9.80498 -15 
v 15 0 -13.0666 
v 15 1.06278 -12.9425 
v -6.49041 -11.4737 -15 
v -11.9949 -5.46745 -15 
v 15 5.90859 -11.7557 
v 15 3.84141 -12.4691 
v 15 3.18835 -12.6944 
v 8.90648 -9.71831 -15 
v 4.32724 15 -12.3362 
v 1.57656 15 -12.9748 
v 5.8724 15 -11.7557 
v 4.8738 15 -12.2093 
v -15 2.22614 -12.8067 
v -15 8.49831e-15 -13.0666 
v -1.57656 15 -12.9748 
v -2.48447 15 -12.764 
v -4.8738 -15 -12.2093 
v -4.32724 -15 -12.3362 
v -15 -1.06278 -12.9425 
v -4.8738 15 -12.2093 
v 15 -3.18835 -12.6944 
v 15 -2.22614 -12.8067 
v 15 6.38438 -11.4996 
v 15 6.67843 -11.3414 
v -1.57656 -15 -12.9748 
v -4.07714 -12.5481 -15 
v -5.17293 15 -12.0734 
v -15 -3.18835 -12.6944 
v -15 -3.84141 -12.4691 
v -5.8724 15 -11.7557 
v 4.8738 -15 -12.2093 
v 5.17293 -15 -12.0734 
v -15 -5.90859 -11.7557 
v 8.66025 15 -9.78088 
v 10.2683 15 -8.13473 
v 15 -10.3609 -8.13473 
v 15 -6.67843 -11.3414 
v -15 10.3609 -8.13473 
v -15 6.67843 -11.3414 
v 5.8724 -15 -11.7557 
v 12.0893 -5.25553 -15 
v 12.9056 -2.74317 -15 
v 12.4544 15 -4.15823 
v 11.6686 15 -5.58763 
v -5.8724 15 11.7557 
v -8.66025 15 9.78088 
v 13.1939 15 -4.44089e-15 
v 12.5772 15 3.46794 
v 12.4544 15 4.15823 
v 10.2683 15 8.13473 
v 9.50191 15 8.91929 
v -1.57656 15 12.9748 
v -4.32724 15 12.3362 
v -4.8738 15 12.2093 
v 5.8724 15 11.7557 
v 5.17293 15 12.0734 
v 13.1451 15 -0.274207 
v 8.66025 15 9.78088 
v 7.37277 15 10.6929 
v 11.1924 15 6.45378 
v 1.57656 15 12.9748 
v 4.8738 15 12.2093 
v 2.48447 15 12.764 
v -13.1939 15 -4.44089e-15 
v -12.5772 15 -3.46794 
v 15 -10.8981 -7.30342 
v 12.0532 -5.36644 -15 
v -15 -6.38438 -11.4996 
v -15 -6.67843 -11.3414 
v 15 10.5426 -7.85353 
v 15 10.8981 -7.30342 
v -15 -12.417 -4.15823 
v -15 -12.8185 -1.5883 
v -15 5.90859 -11.7557 
v -7.37277 15 -10.6929 
v -8.66025 15 -9.78088 
v 15 8.40792 -9.83536 
v 12.4544 -15 4.15823 
v 13.1451 -15 0.274207 
v -15 1.06278 12.9425 
v -15 8.49831e-15 13.0666 
v -15 5.90859 11.7557 
v -15 6.38438 11.4996 
v -15 3.84141 12.4691 
v -15 6.67843 11.3414 
v -15 8.40792 9.83536 
v -15 3.18835 12.6944 
v -15 -10.5426 -7.85353 
v -15 -10.8981 -7.30342 
v -15 -13.0666 -4.44089e-15 
v -15 -11.9761 -5.07117 
v -15 -10.3609 -8.13473 
v -15 -2.22614 12.8067 
v -15 -5.90859 11.7557 
v -15 -6.67843 11.3414 
v -15 -3.18835 12.6944 
v -15 -12.417 4.15823 
v -15 -12.6368 2.75166 
v -15 -10.3609 8.13473 
v -15 -10.8981 7.30342 
v 15 12.417 4.15823 
v 15 12.6368 2.75166 
v 6.59695 -11.4263 -15 
v -3.96306 -12.5724 -15 
v -15 3.18835 -12.6944 
v -5.8724 -15 -11.7557 
v -12.4544 -15 -4.15823 
v -13.1451 -15 -0.274207 
v 15 -5.90859 -11.7557 
v -12.4544 15 -4.15823 
v -11.1924 15 -6.45378 
v -13.1451 15 0.274207 
v -15 -8.40792 -9.83536 
v 15 10.3609 -8.13473 
v 10.2683 -15 -8.13473 
v 11.1924 -15 -6.45378 
v -15 12.417 4.15823 
v -15 11.9761 5.07117 
v -15 10.8981 7.30342 
v 15 -10.8981 7.30342 
v 15 -10.5426 7.85353 
v -8.66025 -15 -9.78088 
v 1.57656 -15 -12.9748 
v 2.48447 -15 -12.764 
v 7.37277 -15 -10.6929 
v 8.66025 -15 -9.78088 
v 12.4544 -15 -4.15823 
v 12.5772 -15 -3.46794 
v 13.1939 -15 -4.44089e-15 
v 10.2683 -15 8.13473 
v 11.6686 -15 5.58763 
v 9.50191 -15 -8.91929 
v -12.4544 -15 4.15823 
v -11.1924 -15 6.45378 
v -9.50191 15 -8.91929 
v 15 11.9761 -5.07117 
v 15 6.67843 11.3414 
v 15 10.3609 8.13473 
v 15 -13.0666 -4.44089e-15 
v 15 -12.6368 -2.75166 
v 15 -12.417 -4.15823 
v 15 -12.8185 1.5883 
v 15 -12.417 4.15823 
v 15 -11.9761 5.07117 
v 15 -10.3609 8.13473 
v -12.4544 15 4.15823 
v -15 12.417 -4.15823 
v -15 10.8981 -7.30342 
v -8.66025 -15 9.78088 
v -7.37277 -15 10.6929 
v -15 10.5426 7.85353 
v -10.2683 -15 8.13473 
v -5.8724 -15 11.7557 
v -10.2683 -15 -8.13473 
v -11.6686 -15 -5.58763 
v -10.2683 15 8.13473 
v -11.6686 15 5.58763 
v -10.2683 15 -8.13473 
v -15 13.0666 -4.44089e-15 
v -15 12.8185 1.5883 
v -15 12.6368 -2.75166 
v 12.9178 -2.62718 -15 
v 5.8724 -15 11.7557 
v 8.66025 -15 9.78088 
v 15 -6.67843 11.3414 
v 15 -6.38438 11.4996 
v -15 10.3609 8.13473 
v 15 2.22614 12.8067 
v 15 3.18835 12.6944 
v 15 5.90859 11.7557 
v -1.37914 13.1216 15 
v -3.96306 12.5724 15 
v 1.49322 13.0974 15 
v 1.37914 13.1216 15 
v -12.8695 2.85409 15 
v -12.9056 2.74317 15 
v -12.9178 -2.62718 15 
v -12.9056 -2.74317 15 
v -10.5961 7.84185 15 
v -10.6741 7.75518 15 
v -6.49041 11.4737 15 
v -6.59695 11.4263 15 
v -10.7324 -7.65418 15 
v -10.6741 -7.75518 15 
v -4.07714 12.5481 15 
v 4.07714 12.5481 15 
v -11.9949 5.46745 15 
v -12.0532 5.36644 15 
v -8.73409 9.87353 15 
v -12.0893 -5.25553 15 
v -12.0532 -5.36644 15 
v -8.82845 9.80498 15 
v 8.90648 9.71831 15 
v 8.82845 9.80498 15 
v 4.18369 12.5007 15 
v 6.69131 11.3577 15 
v 6.59695 11.4263 15 
v -13.1939 7.47506e-15 15 
v -13.1817 0.115988 15 
v -13.1939 -15 -4.44089e-15 
v -12.5772 -15 3.46794 
v 15 -1.06278 12.9425 
v 15 0 13.0666 
v 15 12.417 -4.15823 
v 15 12.8185 -1.5883 
v 15 10.8981 7.30342 
v 15 13.0666 -4.44089e-15 
v 1.57656 -15 12.9748 
v 4.32724 -15 12.3362 
v -1.57656 -15 12.9748 
v -5.17293 -15 12.0734 
v -4.8738 -15 12.2093 
v -2.48447 -15 12.764 
v 4.8738 -15 12.2093 
v -9.50191 -15 8.91929 
v 15 -8.40792 9.83536 
v 12.9056 2.74317 15 
v 12.0893 5.25553 15 
v 15 -5.90859 11.7557 
v 15 -3.18835 12.6944 
v 15 -3.84141 12.4691 
v 12.0532 5.36644 15 
v 10.7324 7.65418 15 
v 13.1939 0 15 
v 12.9178 2.62718 15 
v 10.6741 7.75518 15 
v -8.82845 -9.80498 15 
v -6.69131 -11.3577 15 
v 1.37914 -13.1216 15 
v 3.96306 -12.5724 15 
v 12.0532 -5.36644 15 
v 12.8695 -2.85409 15 
v -6.59695 -11.4263 15 
v 6.59695 -11.4263 15 
v 8.73409 -9.87353 15 
v -8.90648 -9.71831 15 
v 12.9056 -2.74317 15 
v 13.1817 -0.115988 15 
v -1.37914 -13.1216 15 
v 10.5961 -7.84185 15 
v 10.6741 -7.75518 15 
v -4.18369 -12.5007 15 
v -4.07714 -12.5481 15 
v -1.49322 -13.0974 15 
v 8.82845 -9.80498 15 
v 11.9949 -5.46745 15 
v 4.07714 -12.5481 15 
v 6.49041 -11.4737 15 
v -1.37914 -13.1216 -15 
usemtl Material_0
f 11 39 12 
f 39 40 12 
f 12 40 13 
f 40 41 13 
f 13 41 14 
f 41 42 14 
f 14 42 15 
f 19 43 20 
f 43 44 20 
f 20 44 21 
f 44 45 21 
f 21 45 22 
f 45 46 22 
f 22 46 23 
f 26 47 27 
f 47 48 27 
f 27 48 28 
f 48 49 28 
f 28 49 29 
f 49 50 29 
f 29 50 30 
f 34 51 35 
f 51 52 35 
f 35 52 36 
f 52 53 36 
f 36 53 37 
f 53 54 37 
f 37 54 38 
f 40 55 41 
f 55 56 41 
f 41 56 42 
f 44 57 45 
f 57 58 45 
f 45 58 46 
f 48 59 49 
f 59 60 49 
f 49 60 50 
f 52 61 53 
f 61 62 53 
f 53 62 54 
f 57 64 58 
f 61 66 62 
f 75 76 71 
f 79 80 73 
f 83 84 75 
f 75 84 76 
f 84 85 76 
f 87 88 77 
f 77 88 78 
f 88 89 78 
f 91 92 79 
f 79 92 80 
f 92 93 80 
f 95 96 81 
f 81 96 82 
f 96 97 82 
f 100 101 83 
f 83 101 84 
f 101 102 84 
f 84 102 85 
f 102 103 85 
f 85 103 86 
f 103 104 86 
f 108 109 87 
f 87 109 88 
f 109 110 88 
f 88 110 89 
f 110 111 89 
f 89 111 90 
f 111 112 90 
f 115 116 91 
f 91 116 92 
f 116 117 92 
f 92 117 93 
f 117 118 93 
f 93 118 94 
f 118 119 94 
f 123 124 95 
f 95 124 96 
f 124 125 96 
f 96 125 97 
f 125 126 97 
f 97 126 98 
f 126 127 98 
f 9 130 129 
f 11 134 132 
f 12 138 137 
f 15 140 139 
f 131 133 10 
f 14 141 136 
f 18 144 143 
f 135 142 13 
f 17 149 146 
f 20 153 148 
f 21 155 154 
f 147 150 19 
f 27 157 156 
f 23 158 152 
f 24 161 160 
f 151 159 22 
f 32 169 162 
f 163 166 28 
f 25 167 165 
f 33 171 170 
f 36 173 172 
f 29 178 164 
f 26 179 168 
f 177 182 10 
f 35 183 175 
f 184 185 16 
f 188 189 24 
f 191 195 18 
f 198 199 39 
f 193 200 31 
f 9 197 176 
f 62 241 211 
f 194 203 25 
f 243 244 47 
f 245 246 55 
f 247 248 65 
f 214 249 46 
f 250 251 43 
f 225 235 76 
f 30 279 201 
f 180 198 39 
f 216 242 37 
f 42 209 186 
f 212 284 54 
f 239 287 68 
f 222 232 67 
f 55 289 245 
f 290 291 61 
f 208 243 47 
f 82 296 295 
f 64 285 240 
f 86 234 233 
f 218 219 63 
f 59 267 263 
f 94 325 324 
f 78 326 294 
f 80 327 309 
f 94 328 325 
f 300 301 51 
f 71 224 223 
f 263 264 59 
f 33 299 206 
f 38 337 217 
f 95 339 338 
f 58 323 213 
f 98 341 340 
f 78 342 326 
f 174 278 34 
f 334 336 68 
f 50 297 281 
f 282 330 65 
f 258 260 90 
f 79 275 274 
f 292 335 72 
f 379 380 63 
f 75 381 313 
f 205 250 43 
f 257 258 90 
f 105 370 361 
f 230 234 86 
f 253 306 74 
f 114 268 256 
f 57 333 286 
f 91 270 269 
f 308 376 73 
f 105 238 237 
f 393 397 101 
f 215 300 51 
f 364 367 110 
f 98 394 341 
f 354 355 111 
f 265 273 69 
f 87 221 220 
f 255 262 113 
f 122 384 383 
f 74 318 317 
f 82 320 296 
f 343 378 99 
f 114 374 373 
f 70 304 254 
f 321 332 72 
f 120 388 387 
f 350 351 113 
f 69 375 283 
f 314 315 70 
f 377 395 128 
f 100 400 392 
f 302 303 66 
f 67 382 277 
f 371 372 104 
f 312 345 83 
f 107 228 227 
f 352 353 115 
f 362 363 112 
f 398 401 102 
f 348 349 106 
f 347 360 108 
f 365 366 116 
f 368 369 103 
f 358 359 117 
f 356 357 109 
f 118 411 402 
f 403 408 119 
f 417 418 120 
f 121 419 414 
f 405 422 123 
f 124 423 409 
f 410 420 125 
f 415 416 126 
f 127 421 406 
f 407 412 128 
f 99 413 399 
f 10 11 131 
f 132 131 11 
f 9 10 130 
f 133 130 10 
f 11 12 134 
f 137 134 12 
f 12 13 138 
f 142 138 13 
f 14 15 141 
f 139 141 15 
f 13 14 135 
f 136 135 14 
f 15 16 140 
f 145 140 16 
f 19 20 147 
f 148 147 20 
f 18 19 144 
f 150 144 19 
f 21 22 155 
f 159 155 22 
f 27 28 157 
f 166 157 28 
f 17 18 149 
f 143 149 18 
f 145 16 17 
f 145 17 146 
f 32 33 169 
f 170 169 33 
f 424 31 32 
f 424 32 162 
f 22 23 151 
f 152 151 23 
f 25 26 167 
f 168 167 26 
f 153 20 21 
f 153 21 154 
f 34 35 174 
f 175 174 35 
f 39 11 180 
f 181 180 11 
f 8 4 222 
f 223 8 222 
f 232 222 4 
f 224 8 223 
f 235 8 224 
f 225 8 235 
f 226 8 225 
f 233 8 226 
f 234 8 233 
f 230 8 234 
f 231 8 230 
f 237 8 231 
f 238 8 237 
f 236 8 238 
f 7 8 236 
f 331 7 221 
f 227 7 236 
f 228 7 227 
f 229 7 228 
f 220 7 229 
f 221 7 220 
f 332 7 331 
f 321 7 332 
f 287 7 321 
f 239 7 287 
f 3 7 239 
f 190 4 3 
f 240 3 239 
f 285 3 240 
f 286 3 285 
f 333 3 286 
f 310 3 333 
f 251 3 310 
f 250 3 251 
f 205 3 250 
f 202 3 205 
f 195 3 202 
f 191 3 195 
f 190 3 191 
f 218 232 4 
f 185 4 190 
f 184 4 185 
f 187 4 184 
f 186 4 187 
f 209 4 186 
f 210 4 209 
f 219 4 210 
f 218 4 219 
f 42 186 15 
f 15 186 187 
f 29 30 178 
f 201 178 30 
f 9 38 197 
f 196 197 38 
f 28 29 163 
f 164 163 29 
f 23 24 158 
f 160 158 24 
f 10 9 177 
f 176 177 9 
f 207 215 34 
f 51 34 215 
f 26 25 204 
f 203 204 25 
f 187 184 15 
f 16 15 184 
f 47 26 208 
f 204 208 26 
f 24 25 161 
f 165 161 25 
f 19 195 202 
f 18 195 19 
f 36 37 173 
f 242 173 37 
f 11 10 181 
f 182 181 10 
f 218 63 232 
f 63 67 232 
f 36 183 35 
f 172 183 36 
f 37 38 216 
f 217 216 38 
f 46 249 23 
f 23 249 280 
f 33 34 171 
f 278 171 34 
f 200 32 31 
f 298 32 200 
f 209 42 56 
f 209 56 210 
f 18 17 191 
f 190 191 17 
f 40 199 252 
f 39 199 40 
f 24 23 188 
f 280 188 23 
f 68 64 240 
f 239 68 240 
f 202 205 19 
f 43 19 205 
f 50 281 30 
f 192 30 281 
f 289 55 40 
f 289 40 252 
f 185 17 16 
f 190 17 185 
f 54 62 212 
f 211 212 62 
f 69 65 248 
f 265 69 248 
f 72 77 293 
f 292 72 293 
f 64 57 286 
f 285 64 286 
f 282 65 283 
f 65 69 283 
f 65 60 266 
f 247 65 266 
f 253 74 254 
f 74 70 254 
f 73 80 309 
f 308 73 309 
f 67 71 223 
f 222 67 223 
f 58 64 323 
f 322 323 64 
f 192 193 30 
f 31 30 193 
f 71 67 277 
f 276 71 277 
f 44 251 310 
f 43 251 44 
f 56 63 219 
f 210 56 219 
f 46 58 214 
f 213 214 58 
f 91 79 270 
f 274 270 79 
f 267 59 48 
f 267 48 288 
f 56 246 311 
f 55 246 56 
f 33 32 299 
f 298 299 32 
f 25 24 194 
f 189 194 24 
f 68 72 335 
f 334 68 335 
f 48 244 288 
f 47 244 48 
f 60 65 330 
f 329 60 330 
f 77 78 294 
f 293 77 294 
f 221 87 77 
f 221 77 331 
f 70 74 317 
f 314 70 317 
f 34 206 207 
f 33 206 34 
f 310 333 44 
f 57 44 333 
f 83 75 312 
f 313 312 75 
f 81 74 306 
f 305 81 306 
f 81 339 95 
f 305 339 81 
f 81 82 295 
f 319 81 295 
f 99 100 343 
f 344 343 100 
f 346 8 7 
f 349 8 346 
f 348 8 349 
f 361 8 348 
f 370 8 361 
f 372 8 370 
f 371 8 372 
f 369 8 371 
f 368 8 369 
f 401 8 368 
f 398 8 401 
f 397 8 398 
f 393 8 397 
f 392 8 393 
f 400 8 392 
f 399 8 400 
f 6 8 399 
f 420 6 415 
f 413 6 399 
f 412 6 413 
f 407 6 412 
f 406 6 407 
f 421 6 406 
f 416 6 421 
f 415 6 416 
f 410 6 420 
f 409 6 410 
f 423 6 409 
f 422 6 423 
f 405 6 422 
f 404 6 405 
f 5 6 404 
f 373 7 5 
f 414 5 404 
f 419 5 414 
f 418 5 419 
f 417 5 418 
f 408 5 417 
f 403 5 408 
f 402 5 403 
f 411 5 402 
f 359 5 411 
f 358 5 359 
f 366 5 358 
f 365 5 366 
f 353 5 365 
f 347 346 7 
f 352 5 353 
f 373 5 352 
f 374 7 373 
f 351 7 374 
f 350 7 351 
f 363 7 350 
f 362 7 363 
f 355 7 362 
f 354 7 355 
f 367 7 354 
f 364 7 367 
f 357 7 364 
f 356 7 357 
f 360 7 356 
f 347 7 360 
f 66 61 291 
f 302 66 291 
f 60 264 266 
f 59 264 60 
f 100 83 345 
f 344 100 345 
f 112 113 259 
f 262 259 113 
f 52 301 307 
f 51 301 52 
f 128 99 377 
f 378 377 99 
f 390 327 93 
f 80 93 327 
f 297 50 60 
f 297 60 329 
f 342 78 89 
f 342 89 261 
f 226 225 85 
f 76 85 225 
f 114 115 268 
f 271 268 115 
f 67 63 380 
f 382 67 380 
f 119 120 387 
f 386 119 387 
f 64 68 336 
f 322 64 336 
f 69 73 376 
f 375 69 376 
f 97 320 82 
f 391 320 97 
f 54 284 38 
f 196 38 284 
f 75 71 381 
f 276 381 71 
f 104 105 237 
f 231 104 237 
f 26 27 179 
f 156 179 27 
f 349 107 106 
f 346 107 349 
f 108 87 220 
f 229 108 220 
f 107 236 106 
f 227 236 107 
f 113 114 255 
f 256 255 114 
f 386 328 119 
f 94 119 328 
f 74 81 319 
f 318 74 319 
f 38 9 337 
f 129 337 9 
f 93 94 324 
f 390 93 324 
f 321 72 287 
f 72 68 287 
f 101 100 393 
f 392 393 100 
f 79 73 275 
f 272 275 73 
f 307 290 52 
f 61 52 290 
f 85 86 233 
f 226 85 233 
f 90 112 257 
f 259 257 112 
f 127 128 396 
f 395 396 128 
f 89 90 260 
f 261 89 260 
f 123 95 338 
f 389 123 338 
f 116 115 365 
f 353 365 115 
f 102 101 398 
f 397 398 101 
f 229 228 108 
f 107 108 228 
f 106 105 348 
f 361 348 105 
f 389 384 123 
f 122 123 384 
f 77 72 332 
f 331 77 332 
f 63 56 311 
f 379 63 311 
f 70 66 303 
f 304 70 303 
f 97 98 340 
f 391 97 340 
f 231 230 104 
f 86 104 230 
f 127 126 421 
f 416 421 126 
f 66 70 315 
f 316 66 315 
f 104 103 371 
f 369 371 103 
f 105 106 238 
f 236 238 106 
f 110 109 364 
f 357 364 109 
f 123 122 405 
f 404 405 122 
f 105 104 370 
f 372 370 104 
f 128 127 407 
f 406 407 127 
f 100 99 400 
f 399 400 99 
f 115 91 269 
f 271 115 269 
f 113 112 350 
f 363 350 112 
f 122 385 121 
f 383 385 122 
f 121 120 419 
f 418 419 120 
f 342 261 7 
f 260 7 261 
f 258 7 260 
f 257 7 258 
f 259 7 257 
f 262 7 259 
f 255 7 262 
f 256 7 255 
f 5 7 256 
f 269 5 271 
f 268 5 256 
f 271 5 268 
f 270 5 269 
f 274 5 270 
f 275 5 274 
f 272 5 275 
f 273 5 272 
f 265 5 273 
f 1 5 265 
f 288 1 267 
f 248 1 265 
f 247 1 248 
f 266 1 247 
f 264 1 266 
f 263 1 264 
f 267 1 263 
f 244 1 288 
f 243 1 244 
f 208 1 243 
f 204 1 208 
f 203 1 204 
f 194 1 203 
f 189 1 194 
f 3 1 189 
f 334 7 3 
f 188 3 189 
f 280 3 188 
f 249 3 280 
f 214 3 249 
f 213 3 214 
f 323 3 213 
f 322 3 323 
f 336 3 322 
f 334 3 336 
f 326 342 7 
f 335 7 334 
f 292 7 335 
f 293 7 292 
f 294 7 293 
f 326 7 294 
f 404 122 121 
f 404 121 414 
f 99 128 413 
f 412 413 128 
f 98 127 394 
f 396 394 127 
f 119 118 403 
f 402 403 118 
f 124 123 423 
f 422 423 123 
f 30 31 279 
f 424 279 31 
f 411 118 117 
f 411 117 359 
f 120 121 388 
f 385 388 121 
f 112 111 362 
f 355 362 111 
f 108 107 347 
f 346 347 107 
f 62 66 241 
f 316 241 66 
f 73 69 273 
f 272 73 273 
f 125 124 410 
f 409 410 124 
f 368 103 102 
f 368 102 401 
f 120 119 417 
f 408 417 119 
f 71 76 235 
f 224 71 235 
f 115 114 352 
f 373 352 114 
f 117 116 358 
f 366 358 116 
f 126 125 415 
f 420 415 125 
f 111 110 354 
f 367 354 110 
f 114 113 374 
f 351 374 113 
f 109 108 356 
f 360 356 108 
f 2 129 4 
f 4 129 130 
f 133 4 130 
f 337 129 2 
f 174 175 2 
f 217 337 2 
f 216 217 2 
f 242 216 2 
f 173 242 2 
f 172 173 2 
f 183 172 2 
f 175 183 2 
f 278 174 2 
f 171 278 2 
f 170 171 2 
f 169 170 2 
f 162 169 2 
f 1 162 2 
f 424 162 1 
f 145 146 3 
f 279 424 1 
f 201 279 1 
f 178 201 1 
f 164 178 1 
f 163 164 1 
f 166 163 1 
f 157 166 1 
f 156 157 1 
f 179 156 1 
f 168 179 1 
f 167 168 1 
f 165 167 1 
f 161 165 1 
f 160 161 1 
f 3 160 1 
f 158 160 3 
f 131 132 4 
f 152 158 3 
f 151 152 3 
f 159 151 3 
f 155 159 3 
f 154 155 3 
f 153 154 3 
f 148 153 3 
f 147 148 3 
f 150 147 3 
f 144 150 3 
f 143 144 3 
f 149 143 3 
f 146 149 3 
f 145 3 4 
f 140 145 4 
f 139 140 4 
f 141 139 4 
f 136 141 4 
f 135 136 4 
f 142 135 4 
f 138 142 4 
f 137 138 4 
f 134 137 4 
f 132 134 4 
f 131 4 133 
f 298 200 1 
f 193 1 200 
f 192 1 193 
f 281 1 192 
f 297 1 281 
f 329 1 297 
f 330 1 329 
f 282 1 330 
f 283 1 282 
f 375 1 283 
f 5 1 375 
f 376 5 375 
f 308 5 376 
f 309 5 308 
f 327 5 309 
f 390 5 327 
f 324 5 390 
f 325 5 324 
f 328 5 325 
f 386 5 328 
f 387 5 386 
f 388 5 387 
f 385 5 388 
f 383 6 5 
f 304 2 6 
f 383 5 385 
f 384 6 383 
f 389 6 384 
f 338 6 389 
f 339 6 338 
f 305 6 339 
f 306 6 305 
f 253 6 306 
f 254 6 253 
f 304 6 254 
f 298 1 2 
f 303 2 304 
f 302 2 303 
f 291 2 302 
f 290 2 291 
f 307 2 290 
f 301 2 307 
f 300 2 301 
f 215 2 300 
f 207 2 215 
f 206 2 207 
f 299 2 206 
f 298 2 299 
f 2 4 176 
f 177 176 4 
f 197 2 176 
f 196 2 197 
f 284 2 196 
f 212 2 284 
f 211 2 212 
f 241 2 211 
f 316 2 241 
f 315 2 316 
f 314 2 315 
f 6 2 314 
f 391 6 320 
f 317 6 314 
f 318 6 317 
f 319 6 318 
f 295 6 319 
f 296 6 295 
f 320 6 296 
f 340 6 391 
f 341 6 340 
f 394 6 341 
f 396 6 394 
f 395 6 396 
f 377 6 395 
f 378 6 377 
f 8 6 378 
f 382 4 8 
f 343 8 378 
f 344 8 343 
f 345 8 344 
f 312 8 345 
f 313 8 312 
f 381 8 313 
f 276 8 381 
f 277 8 276 
f 382 8 277 
f 182 177 4 
f 380 4 382 
f 379 4 380 
f 311 4 379 
f 246 4 311 
f 245 4 246 
f 289 4 245 
f 252 4 289 
f 199 4 252 
f 198 4 199 
f 180 4 198 
f 181 4 180 
f 182 4 181 
