# https://github.com/mikedh/trimesh
v -1.99841084 -1.99060491 -0.88609343
v -2.00156822 -1.98263291 -0.68204641
v -2.00173463 -1.98873201 -0.32660603
v -2.00043072 -1.99254147 -0.12255514
v -1.99529566 -1.92855695 -0.90535205
v -2.00207939 -1.81118539 -0.56855350
v -2.00256647 -1.64498082 -0.26012262
v -1.99900498 -1.79415229 -0.12093048
v -2.00262107 -1.83636716 -0.83673947
v -1.99753346 -1.74238804 -0.89931136
v -2.00135483 -1.41496066 -0.75156122
v -2.00187482 -1.50171295 -0.53438138
v -1.99401154 -1.35894028 -0.89913624
v -1.99957361 -1.44866887 -0.15514288
v -2.00277199 -1.22729090 -0.36755117
v -2.00035037 -1.05077705 -0.19822531
v -2.00158228 -0.97932634 -0.62418263
v -2.00593676 -0.99458763 -0.84485757
v -1.98549332 -0.82830483 -0.90060817
v -2.00245513 -0.68798426 -0.42388271
v -2.00542821 -0.61482487 -0.77192961
v -1.99907865 -0.59854657 -0.24286582
v -1.99300589 -0.61386714 -0.90206855
v -2.00204648 -0.40988123 -0.89468454
v -2.00491609 -0.39259765 -0.30742197
v -2.00202503 -0.32894288 -0.59628414
v -1.98974194 -0.50917908 -0.90382247
v -1.99808683 -0.25760567 -0.27570497
v -2.00433673 -0.07506785 -0.47111579
v -2.00478663 -0.07861293 -0.82115262
v -1.97665896 -0.16875323 -0.90195876
v -1.99841370 0.01367476 -0.31228774
v -2.00428118 0.22185382 -0.73760825
v -2.00067272 0.19383332 -0.89171898
v -2.00449862 0.14044863 -0.37044629
v -2.00146260 0.36625394 -0.49638929
v -1.99381151 0.44379964 -0.34418511
v -1.99283399 0.57462474 -0.89933544
v -2.00536289 0.66379985 -0.79329466
v -2.00290598 0.92467948 -0.63197064
v -2.00342097 0.76277408 -0.43367370
v -2.00071682 1.04958137 -0.88982897
v -1.99908389 1.01307746 -0.40117883
v -2.00513400 1.23431798 -0.49043574
v -2.00303521 1.30244895 -0.80016696
v -2.00445928 1.46173366 -0.56020003
v -1.99675907 1.42962381 -0.44058525
v -1.99862065 1.50868210 -0.89475661
v -2.00327005 1.64671799 -0.80337243
v -2.00053467 1.68437656 -0.47790854
v -1.99971332 1.82797154 -0.89926653
v -1.99403633 1.81008920 -0.47109093
v -2.00635876 1.94540652 -0.71687364
v -1.99979319 1.96357092 -0.50087278
v -1.97231807 1.98754820 -0.90062290
v -1.97836699 2.00256022 -0.76763814
v -1.98733391 2.00271448 -0.55393224
v -1.91678180 -1.99993745 -0.89919876
v -1.95137908 -2.00287048 -0.56025945
v -1.96722307 -2.00373522 -0.24217527
v -1.85528912 -1.99305645 -0.07685321
v -1.84025325 -1.87357918 -0.90509807
v -1.90560760 -1.70824913 -0.11135131
v -1.85359146 -1.22056637 -0.15333123
v -1.92625870 -1.22718201 -0.90701192
v -1.87429203 -0.92475251 -0.90243941
v -1.93844487 -0.79667095 -0.20794704
v -1.86165990 -0.53294507 -0.22285604
v -1.99047722 -0.43370726 -0.90603315
v -1.88005008 -0.38506112 -0.90482854
v -1.89877381 0.08988353 -0.90190875
v -1.92806818 0.20161363 -0.30551927
v -1.94541993 0.43507340 -0.90449791
v -1.98324384 0.74866268 -0.90355831
v -1.84796359 0.95374450 -0.37055426
v -1.79916634 1.31622967 -0.39973216
v -1.88196387 1.06488880 -0.90148561
v -1.97214426 1.35216054 -0.90132915
v -1.91666831 1.58398219 -0.90219080
v -1.74346413 -2.00186423 -0.26360660
v -1.98154654 -1.96186629 -0.89410698
v -1.99776806 -1.97544268 -0.61056232
v -1.96310987 -1.99649838 -0.46516436
v -1.99786176 -1.98414866 -0.32046383
v -1.99615945 -1.96352187 -0.12498335
v -1.99789895 -1.83840672 -0.78480457
v -1.99859371 -1.67446474 -0.29071625
v -1.98854174 -1.67975858 -0.13405177
v -1.97476544 -1.54678157 -0.89593445
v -1.99774827 -1.54627374 -0.66806822
v -1.79573049 -1.59756473 -0.90253781
v -1.99834027 -1.26656381 -0.52953433
v -1.99539484 -1.34577922 -0.19607169
v -1.97752656 -1.04152897 -0.89567899
v -1.99605932 -0.98981587 -0.77886104
v -1.99746479 -0.86370704 -0.30130970
v -1.98866214 -1.12929431 -0.19212409
v -1.99813761 -0.86024324 -0.53495824
v -1.98123302 -0.80379385 -0.22233795
v -1.98995437 -0.65815741 -0.85968911
v -1.99843015 -0.47993348 -0.53442942
v -1.63896872 -0.54086435 -0.90203851
v -1.96329536 -0.54271889 -0.89405321
v -1.99491419 -0.37597798 -0.27580004
v -1.99494209 -0.31761422 -0.84116202
v -1.99798931 -0.22064226 -0.37946098
v -1.97501554 -0.00382904 -0.89442258
v -1.91746713 -0.16952408 -0.26826235
v -1.99762763 -0.02934695 -0.71630024
v -1.99897470 0.14712569 -0.44767892
v -1.91086473 -0.18420990 -0.26981395
v -1.99426426 0.12379461 -0.32601105
v -1.99333896 0.32630732 -0.87044185
v -1.99807610 0.44916507 -0.62831985
v -1.84256102 0.54566332 -0.32830041
v -1.98849763 0.57424643 -0.35990291
v -1.99436511 0.59997132 -0.79939901
v -1.97810807 0.71689054 -0.89558660
v -1.99859251 0.98094293 -0.59083693
v -1.99561633 0.95752283 -0.40697982
v -1.99712147 1.02281817 -0.87008946
v -1.79349436 0.69987866 -0.34039052
v -1.99996270 1.56600877 -0.70008152
v -1.99574150 1.42004451 -0.88263970
v -1.92171826 1.15952643 -0.40740513
v -1.99527230 1.39200887 -0.45614418
v -1.81622865 1.63500592 -0.43217757
v -1.98148670 1.78033885 -0.48494925
v -1.96344473 1.77003845 -0.89682346
v -1.89917781 1.83910807 -0.46391299
v -1.84307601 1.89268669 -0.90518825
v -1.99072494 1.96248325 -0.76911323
v -1.97089400 1.97074946 -0.89679091
v -1.96752168 1.99451431 -0.53461235
v -1.88716783 2.00175103 -0.48377802
v -1.81508471 -1.97845141 -0.89581405
v -1.88976456 -1.99578432 -0.81838190
v -1.65144696 -1.99829999 -0.63741695
v -1.96168520 -1.99479846 -0.19841769
v -1.71562495 -1.63783435 -0.89864462
v -1.67898835 -1.52418045 -0.10128129
v -1.82812418 -0.96438668 -0.17899036
v -1.91079344 -0.77977744 -0.89729511
v -1.90328326 -0.44158720 -0.24378437
v -1.86379458 0.17888888 -0.29947289
v -1.76761844 0.39241883 -0.89783888
v -1.74770512 0.48371943 -0.90196686
v -1.69832541 0.77978786 -0.90243732
v -1.87940957 1.00941571 -0.89760368
v -1.62514998 1.45620045 -0.39139431
v -1.71183469 1.67143449 -0.89825260
v -1.73429670 1.84008798 -0.44611251
v -1.87985505 1.99864992 -0.63253187
v -1.64882399 2.00401982 -0.66934561
v -1.80963959 -1.89853111 -0.08247923
v -1.93665947 -1.41907624 -0.15085348
v -1.78537728 -1.06270007 -0.89842933
v -1.83167734 -1.29222903 -0.14687028
v -1.64294984 -0.48411948 -0.89814483
v -1.79794421 -0.13371955 -0.89826112
v -1.70086910 1.24017497 -0.90183019
v -1.73604836 1.97630915 -0.89619546
v -1.76958861 1.97750338 -0.45932399
v -1.73489203 -2.00203386 -0.60349070
v -1.66345491 -1.99807266 -0.27437826
v -1.85037555 1.99756273 -0.49629842
v -1.70648529 -1.98026661 -0.06283538
v -1.58663489 -0.70129952 -0.16592292
v -1.70808615 -0.17417951 -0.90209918
v -1.67670597 -1.26449565 -0.90208953
v -1.57096733 -0.46765078 -0.19065779
v -1.54065456 -0.06357342 -0.22280922
v -1.72338178 0.11213263 -0.26789861
v -1.59838023 0.68927881 -0.89837789
v -1.61492206 1.99689874 -0.72153514
v -1.70153441 2.00028452 -0.89976542
v -1.57280518 -1.99995557 -0.89695596
v -1.64786650 -0.42307247 -0.20273622
v -1.62160351 1.73638281 -0.90197866
v -1.59308364 1.79840049 -0.41587808
v -1.57441654 -0.01350463 -0.23682212
v -1.61145868 -1.99774495 -0.04481658
v -1.59707763 -1.91873995 -0.04413282
v -1.58939447 0.85834023 -0.32200771
v -1.63585975 2.00457939 -0.47490441
v -1.60440173 -1.99664334 -0.82436459
v -1.60517301 -1.57236103 -0.08160946
v -1.54213549 -0.98366932 -0.13032565
v -1.46767344 -1.00806305 -0.90197640
v -1.45730151 1.06475278 -0.89812236
v -1.62961616 1.10873302 -0.35359269
v -1.59813096 1.46367451 -0.90200930
v -1.54291608 0.40520849 -0.26991954
v -1.53393509 -1.84266320 -0.04643093
v -1.44972612 0.34517207 -0.25392965
v -1.62698175 1.99737224 -0.48284026
v -1.48951306 0.09780493 -0.90188783
v -1.35910727 -1.97903541 -0.89334416
v -1.49561455 1.11971244 -0.33828597
v -1.46647217 -2.00243798 -0.09548879
v -1.44178035 -1.87544945 -0.90367561
v -1.39258839 1.51309749 -0.35832842
v -1.52125730 -1.18018631 -0.89811682
v -1.28189172 1.40177819 -0.89809822
v -1.52681579 1.99988636 -0.43285655
v -1.46387710 -1.29771796 -0.08348558
v -1.30316986 -1.51044909 -0.90193980
v -1.34728135 0.76545569 -0.28051799
v -1.45539691 -1.97836951 -0.02613025
v -1.36986758 1.07483920 -0.90195047
v -1.27293863 -2.00207416 -0.40998297
v -1.42118193 -1.24125126 -0.09591148
v -1.40155413 -0.10778596 -0.89816009
v -1.49885656 1.96985492 -0.42843427
v -1.40591766 -0.82685468 -0.89814543
v -1.32078971 -0.41060190 -0.15461747
v -1.41163685 0.23148581 -0.89799219
v -1.44647683 0.43894931 -0.90194463
v -1.35402216 1.23866400 -0.32503708
v -1.28017940 1.89594063 -0.89746004
v -1.45596160 1.98991069 -0.90084576
v -1.29797222 1.93534669 -0.38515874
v -1.26925470 -1.83145836 -0.89922731
v -1.20371212 -0.10511022 -0.90198081
v -1.31416191 0.70224031 -0.26533849
v -1.31898035 1.38623341 -0.90197133
v -1.34229793 1.81729850 -0.38486930
v -1.25895788 1.70918044 -0.90210330
v -1.37669935 1.99250802 -0.86103057
v -1.34532775 2.00269016 -0.56790333
v -1.15951492 -1.12271205 -0.89799040
v -1.11047878 1.99901208 -0.58323090
v -1.22438230 -1.99828712 -0.35946860
v -1.40201046 -0.92981157 -0.11530125
v -1.24404718 1.99522337 -0.40112554
v -1.28655960 -2.00283435 -0.80726825
v -1.31851603 -1.99510769 -0.00027767
v -1.24878635 -1.51862041 -0.04059025
v -1.29642858 1.73907336 -0.36645418
v -1.31030251 -1.53685847 -0.89815121
v -1.40956797 -1.00977836 -0.12226057
v -1.23816480 -0.41604796 -0.89813089
v -1.24524440 -1.90961174 0.00817996
v -1.09710194 -1.74926368 0.00788369
v -1.38799574 -1.21346471 -0.08371433
v -1.29534890 0.02663373 -0.19499122
v -1.13199534 -0.12628150 -0.15899683
v -1.10517587 -1.99840776 -0.71935122
v -1.22310068 -1.96419076 0.00978688
v -1.30228986 1.99978980 -0.40401389
v -1.16919150 -1.22086695 -0.19804115
v -1.28888645 -1.03484920 -0.18718732
v -1.33679201 -0.75000683 -0.12929664
v -1.23412062 -0.43352424 -0.14396059
v -1.17105712 1.23274526 -0.30094122
v -1.24825122 2.00531205 -0.80573594
v -1.25990094 -1.09138719 -0.17676143
v -1.14380707 -0.50369172 -0.90191822
v -1.22740342 0.58612826 -0.90202539
v -1.11748804 0.68331405 -0.89816301
v -1.29576625 -1.99479381 -0.05388156
v -1.26045539 -1.55016700 -0.03103170
v -1.19711592 -0.85277793 -0.20632616
v -1.20196571 0.26205536 -0.90188854
v -1.23505630 0.28409460 -0.21173351
v -1.04273285 0.30323001 -0.89802586
v -1.28403558 -1.36537365 -0.06628108
v -1.22057070 -0.79305256 -0.17124028
v -1.29400231 -0.71704481 -0.12226280
v -1.21288003 1.06501314 -0.28650712
v -1.14883293 -1.99844435 -0.89686476
v -1.18442001 -1.38401440 -0.10999680
v -1.06859888 0.14798691 -0.17694861
v -1.10754337 2.00238618 -0.45475575
v -1.12485041 -0.99803791 -0.90179842
v -0.85059597 -0.82384229 -0.89800560
v -1.11010577 1.16488680 -0.90186267
v -0.95513948 -1.35539034 -0.90178322
v -1.16247536 -0.57551544 -0.12143111
v -1.11441018 1.63613387 -0.33274978
v -1.04783954 -0.24455168 -0.13061715
v -1.01226177 1.99689087 -0.90031796
v -1.11364807 -1.99459675 -0.02728544
v -0.94716610 -0.59341290 -0.19197679
v -1.05154099 -0.06341625 -0.89807861
v -1.05394353 0.57296022 -0.21338556
v -1.05059137 0.56064358 -0.21558908
v -0.97529139 -2.00460294 -0.05753135
v -0.77572181 1.65720209 -0.89831268
v -0.93391229 1.83666476 -0.90231316
v -0.88957341 -1.82441298 0.05307420
v -1.10113038 -1.51084605 -0.01270414
v -0.88640668 0.96010479 -0.89801329
v -1.06244089 1.91116794 -0.35182046
v -1.08207096 -1.40047363 -0.10380473
v -1.11296715 -1.25130782 -0.18196232
v -1.05067684 -1.02341769 -0.25384179
v -1.02682437 0.88724622 -0.90190887
v -1.01222159 0.88224253 -0.23781184
v -1.08826675 1.99398693 -0.36197429
v -0.98859717 -1.98181299 0.05053441
v -1.02093055 -1.52763907 -0.01316234
v -1.06536903 -0.48574067 -0.11138271
v -1.00576903 1.21775254 -0.27069121
v -0.98743464 1.59221717 -0.30533852
v -0.81651141 2.00290235 -0.77675717
v -0.87146576 -2.00214318 -0.69233339
v -1.05153455 -1.93540827 -0.89842348
v -0.79704578 -1.59976271 -0.89790928
v -1.05861487 -0.91710619 -0.23110672
v -0.94698794 -0.58735502 -0.18534677
v -0.95300956 1.83429107 -0.32235678
v -1.02653338 -1.07860885 -0.23602685
v -1.09782411 1.99452242 -0.87904822
v -0.93427052 0.17179915 -0.15529770
v -0.97186889 1.48997339 -0.90196329
v -0.92127510 1.36366578 -0.27657162
v -0.88462229 -1.69900242 -0.90193825
v -0.82676198 0.14664116 -0.90186023
v -0.68934657 -2.00186339 -0.22700287
v -0.84875663 -1.94885901 -0.90477162
v -0.90809424 0.96644184 -0.23464591
v -0.83560546 -1.99806658 -0.27598425
v -0.86064239 -1.97585932 0.06266116
v -0.90690477 0.55849847 -0.90196877
v -0.82207634 1.70715770 -0.29584866
v -0.95706864 -1.41454843 -0.11545209
v -0.89872654 -1.17134199 -0.21406638
v -0.81294097 1.28893491 -0.89807766
v -0.82904955 -1.99458388 -0.87697904
v -0.84926249 1.97648772 -0.89640819
v -0.70851805 -1.99667016 -0.04226215
v -0.93282528 -1.21643338 -0.21701387
v -0.81399544 -0.41443439 -0.89811098
v -0.80561765 1.37832388 -0.25678859
v -0.86493446 1.99626907 -0.33009466
v -0.80595090 -1.14796797 -0.89805417
v -0.80493768 -0.21513029 -0.10266159
v -0.73925449 0.52926006 -0.89810251
v -0.91122027 1.99780425 -0.80148827
v -0.75540103 -1.49247531 0.01268439
v -0.77041801 -0.88787392 -0.90189593
v -0.79853036 -0.77444873 -0.24095073
v -0.74274995 -0.12343234 -0.90188842
v -0.67937793 -1.87633852 0.08401745
v -0.82020708 -1.35550252 -0.11046743
v -0.67633756 -0.65268305 -0.23015257
v -0.74646922 0.30123886 -0.14447851
v -0.83213564 0.57266679 -0.18056757
v -0.82148256 1.98133310 -0.32641815
v -0.71155037 -1.99823204 -0.65003394
v -0.88330795 -1.93683103 -0.89770304
v -0.79978712 -0.51813923 -0.90193175
v -0.80980064 -0.23690529 -0.09724486
v -0.69302912 2.00219640 -0.44864087
v -0.80966570 -1.51779321 0.02770329
v -0.66633196 -0.83792958 -0.22954316
v -0.77428492 0.00702026 -0.11954781
v -0.83665861 0.58637556 -0.18655666
v -0.69146742 1.06945022 -0.20860157
v -0.78434702 1.18520078 -0.90191840
v -0.69667508 -2.00011603 -0.88815682
v -0.69482942 -1.99940971 0.09270085
v -0.72152545 -1.34785524 -0.09463362
v -0.60306545 -1.20972077 -0.90188002
v -0.68179645 -0.86211917 -0.22458757
v -0.66359617 -0.21564173 -0.15196400
v -0.67993237 0.82347795 -0.90184902
v -0.57353880 -1.58894912 0.06975241
v -0.65202470 1.34354385 -0.23421743
v -0.54011460 1.99838766 -0.52347927
v -0.69909872 -0.24839773 -0.13759337
v -0.62459977 1.45691248 -0.90190046
v -0.54083218 1.86037954 -0.26876911
v -0.68579383 1.90383395 -0.90358060
v -0.54248835 0.26444265 -0.89806198
v -0.65364535 1.93699082 -0.28927746
v -0.30414109 -1.63367406 -0.90202074
v -0.57593031 0.46809330 -0.19838604
v -0.74689140 -1.92975572 -0.89756697
v -0.65611567 -1.35767690 -0.02597930
v -0.58379187 -1.04033944 -0.15471601
v -0.59583749 -0.19534153 -0.89805996
v -0.67461957 0.17827871 -0.11751214
v -0.68214079 0.86015793 -0.19099078
v -0.67099788 0.85267028 -0.18483021
v -0.60983272 1.61875614 -0.25132847
v -0.62734379 1.99778255 -0.78988498
v -0.54451169 -0.95432386 -0.17746729
v -0.63790770 0.51456049 -0.18945249
v -0.38201361 1.99456056 -0.26996621
v -0.65590073 1.99953469 -0.30184960
v -0.39174219 -1.92696754 -0.90491491
v -0.42281746 0.49311992 -0.90188777
v -0.58651205 -1.84316519 0.09962374
v -0.45931976 -1.57764009 0.09057514
v -0.37652742 -1.99827710 -0.39120280
v -0.47798552 -1.82015053 -0.89837747
v -0.52867867 -0.36783426 -0.90191167
v -0.52219166 0.71093317 -0.17964398
v -0.54381790 -2.00413111 0.07215528
v -0.53706344 -0.26828959 -0.18094689
v -0.31860216 -0.00777328 -0.90193533
v -0.46225052 0.14561295 -0.16486915
v -0.40806885 -2.00196532 -0.64019065
v -0.48417785 -1.96461431 -0.89334338
v -0.45240437 -1.24150470 -0.89807188
v -0.59782626 -0.02284980 -0.08219040
v -0.48665460 0.25608322 -0.17348578
v -0.28744026 0.53043684 -0.18128998
v -0.42172937 1.11068710 -0.89812183
v -0.49683817 1.26669511 -0.19922025
v -0.41824045 -0.81811032 -0.90189110
v -0.24246981 1.21964010 -0.90194588
v -0.47959604 1.99346742 -0.89778494
v -0.39659389 -1.21940694 0.06291246
v -0.42319529 -0.34829259 -0.22051478
v -0.33240433 -0.99243632 -0.05525812
v -0.37459164 -1.07070396 -0.02673412
v -0.44404058 0.81003400 -0.89798515
v -0.35350888 -1.18994663 0.06255566
v -0.43203993 -0.58467933 -0.89807516
v -0.55899443 0.03010231 -0.10544666
v -0.30750649 1.87110814 -0.89930516
v -0.25031241 -1.48082570 -0.89809572
v -0.25782468 1.46097549 -0.89808433
v -0.27989064 1.61480590 -0.90226214
v -0.24103312 1.82365831 -0.21565490
v -0.33163236 1.98568329 -0.89419370
v -0.21811444 -1.99765888 -0.70576440
v -0.47180088 0.01483863 -0.11395237
v -0.34945889 1.06338760 -0.16038337
v -0.33196591 2.00206455 -0.51573514
v -0.18611679 -2.00240866 -0.14642756
v -0.48391612 -1.98657147 0.12738352
v -0.32268580 -0.29433069 -0.20973276
v -0.38801207 0.08058494 -0.15517027
v -0.29701685 0.78068515 -0.90182447
v -0.28373011 0.72328719 -0.13045192
v -0.35266041 1.92118892 -0.90431260
v -0.17122010 2.00236615 -0.77616703
v -0.25447540 -0.95591745 -0.89807611
v -0.39916961 -0.03336740 -0.16590220
v -0.36260881 0.77839192 -0.13278669
v -0.26085596 0.98183533 -0.13502484
v -0.29333331 1.99763497 -0.24394656
v -0.12200424 -1.99251298 0.16621571
v -0.17472357 -1.88804511 0.16420316
v -0.17708493 2.00549253 -0.27292218
v -0.25488721 -0.47747826 -0.19385438
v -0.25739451 0.04957422 -0.89808964
v -0.38026108 0.44771453 -0.18703095
v -0.29935356 1.44085595 -0.19078232
v 0.01964303 -1.45554522 0.14686210
v -0.17459145 -0.63819468 -0.13025549
v -0.16539943 -1.85954181 0.15850549
v -0.23410560 -0.47752540 -0.90191220
v -0.17057364 0.54332223 -0.13838179
v -0.23523514 -2.00197950 0.15595544
v -0.09683670 -1.48831907 0.13623078
v -0.23128455 -0.41783155 -0.20771644
v -0.20226667 0.26976105 -0.20051331
v -0.24756633 1.38688859 -0.17370929
v -0.20657842 1.99840745 -0.74502217
v -0.11574653 -1.31612251 -0.90190463
v -0.14300402 0.50416395 -0.89810430
v -0.18998598 -1.99979082 -0.89383786
v -0.32606839 -0.06805802 -0.17749116
v -0.14759195 -0.55595966 -0.15770552
v -0.07277596 1.82686170 -0.19478349
v 0.15014606 1.99805101 -0.38158511
v -0.05464980 -1.99890975 0.00777262
v 0.00838814 -0.59899900 -0.89806091
v -0.18304746 -0.27354254 -0.89812850
v -0.25134023 0.24067714 -0.18959010
v -0.12373840 1.01366481 -0.89805757
v -0.01678811 -0.73597393 -0.90190201
v -0.18408077 -0.02879802 -0.19175702
v 0.01808149 -1.73999289 -0.89847486
v -0.18447291 0.03273132 -0.19697075
v -0.10657436 1.99256166 -0.89965873
v -0.07372476 0.30805155 -0.16728037
v -0.05463305 1.87580618 -0.90287255
v 0.04064319 -1.09421382 0.11854652
v -0.09367991 -0.76751623 -0.02571551
v -0.09709195 0.67384240 -0.07830527
v 0.07833172 1.02060911 -0.09210233
v 0.11035391 -2.00162223 -0.57344007
v 0.02341636 -1.93982521 -0.90436482
v -0.08479414 -0.89003018 0.07396825
v 0.02116323 0.75712963 -0.90193897
v 0.09385628 0.26643946 -0.90193032
v 0.08929850 2.00209340 -0.47545912
v 0.11588119 -1.98074583 -0.89545493
v 0.02064076 0.17682883 -0.18318757
v 0.06404364 0.84337899 -0.07247905
v 0.03523495 1.66725406 -0.15920222
v 0.10402731 1.71424469 -0.89816492
v 0.09936503 1.98091039 -0.18859515
v 0.02492671 -0.23681684 -0.18129332
v 0.07218834 -0.11575759 -0.19869112
v 0.07149652 1.99316009 -0.88365780
v -0.05174722 -0.88197628 0.07396004
v 0.06743892 -0.26490521 -0.90195154
v -0.00415431 0.73214003 -0.89805423
v 0.10805947 -1.26210806 -0.89807128
v 0.01422050 -0.99180374 0.09849342
v 0.00833584 -0.06715367 -0.19330963
v -0.00258808 0.62991681 -0.07410273
v 0.05544208 1.26355704 -0.11610836
v 0.18334135 1.48287507 -0.12278211
v 0.06569937 1.37374684 -0.89813017
v 0.05955869 -2.00216523 -0.82967805
v 0.15661803 1.15358206 -0.90190559
v 0.11431162 1.63459083 -0.90194958
v 0.15302665 -1.99798826 -0.44188716
v 0.01561258 -0.46859713 -0.11549345
v 0.01202880 -0.28614066 -0.17984452
v 0.03222511 0.21364066 -0.18574373
v 0.03321028 2.00046810 -0.19813927
v 0.10803865 1.94191059 -0.89521437
v 0.14722089 -0.98356739 -0.90183394
v 0.01917415 -0.71012810 0.00851617
v 0.01073541 -0.53440509 -0.10386597
v 0.11750753 0.19747254 -0.89810812
v 0.01246864 0.54183432 -0.07373288
v 0.03803319 0.42941877 -0.14226881
v 0.24969758 1.07622334 -0.89806228
v 0.19203008 1.89013013 -0.15689326
v 0.14814123 -2.00450233 0.06220564
v 0.03493398 -1.99401263 0.20382618
v 0.29595412 -1.65718106 -0.90221929
v 0.01229848 -0.80989445 0.08114562
v 0.02000050 -0.78187448 0.04521258
v 0.12444895 -0.17629569 -0.89811616
v 0.19828886 1.99844822 -0.76749074
v 0.18214243 -1.00721536 0.11066528
v 0.17548696 0.74706980 -0.04667327
v 0.12036799 -2.00301293 0.21847152
v 0.34663807 -1.84543375 -0.89831322
v 0.27996598 -0.90955505 -0.89800172
v 0.11443905 -0.93511281 0.11086577
v 0.17657043 -0.85291973 0.00288392
v 0.33950348 -0.98859397 -0.03649367
v 0.23470704 -0.70701397 -0.11812182
v 0.27571098 -0.78390643 -0.08780012
v 0.22194078 -0.48205442 -0.17536316
v 0.16224304 0.05969199 -0.19242280
v 0.26495012 0.58289900 -0.14399656
v 0.26211299 -2.00198129 -0.23467912
v 0.21041603 -0.52169019 -0.15759923
v 0.13728127 0.49946418 -0.12168527
v 0.19687006 2.00039467 -0.89517283
v 0.33149861 2.00206646 -0.26876562
v 0.33045758 -1.99736909 -0.79567294
v 0.35870383 -1.86174492 0.23759390
v 0.40201197 -1.21400860 -0.90190446
v 0.47265620 0.51864966 -0.17790198
v 0.39869745 0.68104192 -0.90201604
v 0.45290343 2.00244197 -0.71410643
v 0.34595991 -1.99033741 -0.90165710
v 0.40511168 -1.99825922 -0.14831602
v 0.21807840 -1.77835563 0.21296694
v 0.37593032 -1.53329793 0.21232946
v 0.31718181 0.83716365 -0.06935063
v 0.51756738 1.75166973 -0.09915224
v 0.28522385 1.99502477 -0.15815385
v 0.30562974 0.03081947 -0.16072317
v 0.39678167 0.83049294 -0.89817195
v 0.18773684 -2.01023379 0.20972612
v 0.29156212 -0.28605850 -0.19339009
v 0.37581806 0.51086840 -0.89814823
v 0.25944042 1.48091611 -0.10725103
v 0.39183213 -1.99032322 0.23454572
v 0.50193615 -0.29364689 -0.18619860
v 0.32853530 1.10855576 -0.05942592
v 0.28397189 -2.00110618 -0.83335041
v 0.29649509 -1.08978305 0.09309486
v 0.36256705 0.78652116 -0.09617957
v 0.37153600 1.92329749 -0.90224885
v 0.45476155 -1.53408102 -0.89822935
v 0.37667750 -0.02481324 -0.90193652
v 0.27998453 0.31988653 -0.17984723
v 0.47543727 -2.00913182 0.16607567
v 0.42843108 -0.49672348 -0.90187078
v 0.46180562 1.25464352 -0.05805030
v 0.49161972 1.35551676 -0.89809316
v 0.58794938 1.57788988 -0.90201550
v 0.39614178 -1.28016958 0.18671707
v 0.49182962 -0.02016020 -0.89808344
v 0.22625670 -2.00105146 0.23475573
v 0.39556639 -1.18378547 0.07550150
v 0.51234062 -0.44756213 -0.89802753
v 0.34871123 0.54835888 -0.15540763
v 0.66907160 1.89613541 -0.89529382
v 0.44724418 0.13585692 -0.15402775
v 0.56173978 -1.91120747 -0.90333711
v 0.51424323 -0.79412950 -0.90183114
v 0.35606642 -0.00331709 -0.15907685
v 0.52833916 1.99409231 -0.87821423
v 0.33688713 -2.00192121 0.25071467
v 0.52488826 -1.18773124 -0.89803999
v 0.50958703 -0.57381933 -0.20252833
v 0.51806904 1.17640468 -0.90191429
v 0.56942533 1.61462184 -0.89813160
v 0.42312692 -1.30670038 0.18122564
v 0.51454158 -0.67305229 -0.18485885
v 0.48260338 -0.19400980 -0.16264612
v 0.53669415 1.12367627 -0.03597816
v 0.54520873 -1.16406689 -0.03916407
v 0.47367106 -1.98598817 0.27085454
v 0.57682655 -0.82315135 -0.18728419
v 0.43808220 1.00514230 -0.03696788
v 0.55059354 1.44654259 -0.05997273
v 0.50499849 1.91889223 -0.11360793
v 0.68419467 -1.99785534 -0.59672653
v 0.56428973 0.30836877 -0.14765047
v 0.53515105 2.00235018 -0.89152216
v 0.78753976 -2.00217727 0.04671761
v 0.60153816 0.01513016 -0.04066283
v 0.55923889 0.13388046 -0.10293972
v 0.77959774 0.50964209 -0.14583868
v 0.60265325 1.99360951 -0.12373555
v 0.73293589 -2.00192264 -0.53548502
v 0.53774945 -1.97700063 -0.89610838
v 0.83383809 -1.78339676 0.30228026
v 0.61143367 0.78503689 -0.14801159
v 0.57811473 1.99836835 -0.73134189
v 0.48002852 -2.00187079 -0.85741156
v 0.54530440 -1.50140980 0.22773152
v 0.58838080 0.54753735 -0.16437750
v 0.72551940 -0.22097020 -0.10525297
v 0.68885146 0.05157798 -0.02201038
v 0.69661282 0.20289245 -0.90182715
v 0.67880784 -1.38475338 -0.90187775
v 0.64813606 -1.38073352 0.04571264
v 0.81028650 -0.83064676 -0.89802729
v 0.66666428 -1.99565045 0.17450560
v 0.67303692 -1.02254692 -0.14339974
v 0.74847279 0.33168700 -0.89798432
v 0.72752993 1.01545593 -0.12876842
v 0.64599339 -0.49049739 -0.18718667
v 0.69769285 1.02883610 -0.89811187
v 0.67939834 1.09824582 -0.08244309
v 0.64753262 1.99509486 -0.10254898
v 0.80135308 -1.99811736 0.31817982
v 0.62578122 -1.42229978 0.08358053
v 0.78753607 -0.13746398 -0.90189212
v 1.01726751 1.99871405 -0.16524915
v 0.78067516 2.00395020 -0.14452401
v 0.77640812 -2.00053052 -0.89540409
v 0.90321503 -1.99830738 -0.16384482
v 0.84208391 -1.83729092 -0.89749252
v 0.81654297 -1.84688572 0.31216327
v 0.64134262 1.21822437 -0.02484446
v 0.75482325 1.63882145 -0.04869584
v 0.66138045 -1.56215135 0.25496373
v 0.85758756 0.46507677 -0.90181177
v 0.83652775 0.77269634 -0.89805972
v 0.63887749 -1.97936109 0.28892777
v 0.78236811 -1.10003517 -0.16718372
v 0.74603395 -0.27119479 -0.10849941
v 0.77020661 1.98676881 -0.90103476
v 0.85405187 2.00222787 -0.46818443
v 0.80061535 -1.32837287 -0.09011716
v 0.86146526 -0.47619498 -0.90185743
v 0.88817171 1.71826872 -0.90242576
v 0.93233059 -1.79376808 -0.90224724
v 0.86557404 0.18956044 0.02661770
v 0.98667960 0.38858673 -0.02757335
v 0.72823356 -1.60391859 0.25849856
v 0.88228671 1.19058570 -0.90196978
v 0.78142975 -1.57150785 0.18414448
v 0.91567938 -0.17615058 -0.89804863
v 0.90333776 1.91987833 -0.05248370
v 0.77888505 2.00783500 -0.83679324
v 0.93426554 -1.99315730 -0.88150459
v 0.85110472 -1.53899792 0.06716434
v 0.83143203 -1.15068529 -0.89807110
v 0.88121240 -0.73623679 -0.19719183
v 0.92347060 -0.18869977 0.04216148
v 0.89615200 0.62509223 -0.13036934
v 0.85895781 0.78251859 -0.90193390
v 0.95166628 -1.04655275 -0.90189695
v 0.99662791 1.16814681 -0.89811736
v 0.80207281 1.41431495 -0.02418736
v 0.91663633 1.64341911 -0.89852142
v 0.96780847 1.75982603 -0.03204362
v 0.88737271 -1.99703637 0.19885301
v 0.91567491 -0.48869169 -0.89802306
v 0.88081906 -0.83869765 -0.19219250
v 0.88609700 -0.16222226 0.02300794
v 1.02676497 -1.50419370 -0.89816718
v 0.92897634 -0.97404048 -0.20362762
v 0.90500073 0.45422145 -0.07648036
v 0.86114351 -1.31908867 -0.09640349
v 0.86295245 0.80010756 -0.15256207
v 0.86748145 1.22576627 -0.08767118
v 0.82377176 1.99144372 -0.87424283
v 1.06930445 1.99842175 -0.61777645
v 1.00054578 -0.69923383 -0.16196825
v 0.81246029 0.01628881 0.10711914
v 0.97630898 1.04104611 -0.13861354
v 1.04077194 -2.00545899 -0.83306252
v 1.07739030 -1.99942390 -0.79158275
v 0.94244675 -1.15922902 -0.16450313
v 1.08546935 -0.68549836 -0.90184330
v 0.96253972 0.95735177 -0.15637841
v 0.89737235 1.41296049 -0.00594534
v 0.87085543 -1.47964398 0.02380697
v 1.08874605 -0.68686846 -0.14567687
v 0.86910765 -0.03099728 0.11622211
v 0.95354531 1.98551496 -0.06226274
v 0.95540903 1.99717602 -0.06017467
v 0.99973075 -1.69356695 0.31335727
v 0.95201514 -0.09172550 0.15142842
v 1.12406061 -1.98474446 0.35994015
v 0.95653008 -1.66801814 0.30852706
v 0.95392571 0.15423592 0.11118826
v 0.99530403 1.24708566 -0.10773024
v 0.97072129 -1.60360924 0.17235548
v 1.12232254 -0.52991467 -0.04725096
v 1.03446434 1.65494379 -0.00833007
v 1.10697828 1.99942335 -0.89696812
v 0.98566673 0.17548093 0.13029748
v 1.02091698 0.26321807 -0.89808207
v 1.22290168 -2.00197295 -0.51414784
v 1.18179284 -1.42277864 -0.90202778
v 1.18806539 0.54096332 -0.89804440
v 1.16459368 -0.06410471 0.18406112
v 1.01091467 1.42305073 -0.01185386
v 1.10692666 2.00269755 -0.79626923
v 1.09018574 -2.00077859 0.35965321
v 1.22669027 0.11457222 0.17114746
v 1.03862105 1.32068583 -0.05784794
v 1.07889400 -1.63707892 0.21373754
v 1.17804764 -1.12389240 -0.89810907
v 1.31208883 0.62668314 -0.90190159
v 1.08685635 1.99630460 -0.87896120
v 1.15186678 -1.99413601 -0.89996248
v 1.24029527 -2.00192109 -0.14160357
v 1.22009884 -1.99807290 -0.47235333
v 1.09187089 -1.51004103 0.02281950
v 1.10989235 -1.45875314 -0.00618936
v 1.04084085 -1.26204643 -0.15487841
v 1.19009195 0.16876527 -0.90192913
v 1.14783333 0.92194935 -0.12432589
v 1.30466257 2.00229224 -0.55039071
v 1.23457859 -0.30630496 0.21204292
v 1.20400606 1.54734763 0.02318820
v 1.33096300 1.88339909 -0.90300815
v 1.32378493 1.81542357 -0.89727282
v 1.17924963 -1.31472829 -0.08812016
v 1.19593344 0.50892689 0.04761346
v 1.28606091 1.00711056 -0.90193652
v 1.09039853 2.00256809 -0.14629190
v 1.16787205 -1.15821484 -0.16708846
v 1.14417551 -1.06055233 -0.17045077
v 1.20728884 -0.96460072 -0.16981950
v 1.27511726 0.09925061 -0.89809173
v 1.20248733 -1.80136815 0.36510748
v 1.26025806 -1.57646111 0.22253846
v 1.22202562 -0.71271441 -0.89801066
v 1.27737926 -0.22888557 -0.90194010
v 1.21755562 -0.48150065 0.02214540
v 1.16267858 1.29705688 -0.06626322
v 1.24572037 1.47757419 -0.90188532
v 1.18972300 0.67825743 -0.05665173
v 1.20271466 0.72023078 -0.05783961
v 1.26744316 -0.29819587 -0.89807128
v 1.16054903 0.91055128 -0.12674936
v 1.23060034 0.93216487 -0.89811002
v 1.34236942 -1.99692241 0.31396932
v 1.25224970 0.43610826 0.14397924
v 1.15276550 1.22986659 -0.08468316
v 1.31062589 -0.48310429 0.13936070
v 1.37037883 1.31309029 -0.89808451
v 1.21236811 1.42930218 0.04232298
v 1.30333648 1.91239389 0.00786596
v 1.23911629 -1.64191118 0.34109429
v 1.22831510 -1.39522842 -0.04134312
v 1.25462340 -0.35044995 0.22278098
v 1.20537220 1.13499996 -0.10920279
v 1.22972212 1.98942789 -0.01962929
v 1.31257389 0.48312798 0.14418357
v 1.22490166 1.09126052 -0.09933932
v 1.26772581 1.62437602 0.02929975
v 1.33551572 1.99704369 -0.00049163
v 1.33994542 -1.99603180 -0.87338173
v 1.37905083 -1.76497010 -0.89809453
v 1.31159483 -1.61208371 0.35784362
v 1.34918175 0.26568368 0.17843362
v 1.24283479 1.35516831 0.01396690
v 1.37719582 1.99518379 -0.88439106
v 1.30380986 -0.81967456 -0.08989979
v 1.28883050 1.39670869 0.03825770
v 1.39235674 2.00281700 -0.10542330
v 1.53711472 -1.99830345 0.07959315
v 1.26100658 -1.59614256 0.23661444
v 1.46889971 -0.27999473 0.24702463
v 1.35563551 1.21060714 0.00188772
v 1.54684876 0.16259446 -0.90206068
v 1.32638918 0.95952340 -0.07161887
v 1.54303632 -2.00248054 -0.77663486
v 1.37713204 -1.20191297 -0.04497666
v 1.38914440 -0.77981219 -0.04900471
v 1.36652170 0.67107161 0.05365635
v 1.32640551 0.92408904 -0.05474929
v 1.54524873 1.86736759 0.04367352
v 1.41402434 -1.99928013 0.40760876
v 1.57296823 -1.80293707 -0.90190356
v 1.38378714 -1.48520175 0.16179081
v 1.52877150 -1.39849845 -0.89859735
v 1.35224662 -1.20640997 -0.07208916
v 1.42048131 -1.04031846 -0.90203761
v 1.45026491 1.99940595 -0.73616367
v 1.58525143 1.99844297 -0.35284670
v 1.44834743 -2.00213948 0.17864987
v 1.34907911 -1.41574148 0.08022544
v 1.52710627 0.81645414 -0.89810037
v 1.34253667 1.23268970 -0.01828992
v 1.61750363 -1.99855903 -0.70137560
v 1.47110603 -1.80775205 0.40044645
v 1.45570181 2.00490316 -0.82296275
v 1.59539996 -2.00047103 -0.89538120
v 1.71540700 1.30572435 -0.90210342
v 1.38142381 1.33544334 0.07657280
v 1.61863266 1.57983967 0.08674931
v 1.70324193 -1.52051190 0.41112388
v 1.49492715 -0.62323761 -0.90181982
v 1.49110995 0.53657326 0.16817387
v 1.43718622 0.82019481 0.04899088
v 1.38929187 -1.58310763 0.36204440
v 1.67724345 -0.61349917 -0.89818763
v 1.43429075 1.05808946 0.02393895
v 1.48222325 -1.27913890 0.07138544
v 1.42692123 -1.00775871 -0.06105442
v 1.48219834 -0.70966262 0.10729798
v 1.53977500 -1.99827520 -0.29743653
v 1.56157313 -0.96420870 -0.89832156
v 1.42905198 -0.93730942 -0.03390434
v 1.68248568 0.20794031 -0.89831226
v 1.62889062 0.69103261 0.17730863
v 1.45995031 0.88153180 0.03454831
v 1.63535462 1.31249126 0.11163985
v 1.63184677 -0.11129939 -0.89845543
v 1.71083508 1.99487146 -0.90003972
v 1.61262355 -1.98085586 0.44289924
v 1.49613200 -1.41456691 0.26139928
v 1.48362110 0.71093735 0.14923028
v 1.48138354 1.16698297 0.06190667
v 1.61839209 1.88630518 0.05688713
v 1.54727898 1.99473127 0.01204309
v 1.63355635 1.70311483 -0.90192377
v 1.68704544 2.00220045 -0.30139884
v 1.69720958 -1.99659184 -0.88241481
v 1.50142275 -0.56907642 0.28309626
v 1.55396805 -0.04802850 0.24003262
v 1.49723492 1.20124051 0.10550767
v 1.72089635 -2.00222067 -0.17439657
v 1.58140610 -1.25564853 0.23269188
v 1.70200692 -1.31883988 -0.90271746
v 1.53601001 -0.67876593 0.18071587
v 1.68456684 -1.44061342 0.39492775
v 1.56039093 -1.40522627 0.36452330
v 1.73401640 1.73765096 -0.89817171
v 1.56924198 -1.38188497 0.37242494
v 1.59700118 -1.09143749 0.15790325
v 1.58906291 -0.86531255 0.18086705
v 1.69613956 -0.43479269 0.30042449
v 1.67914913 -1.97657076 0.44265733
v 1.56907545 -1.34420071 0.25927541
v 1.56857703 -0.63751504 0.28254158
v 1.52928196 0.77554342 0.14222001
v 1.70973454 0.68246647 -0.90183686
v 1.63902901 1.98235520 -0.89599150
v 1.62598453 1.99746093 0.04339989
v 1.61474453 -1.05918059 0.15982644
v 1.78535770 0.25670066 0.24007089
v 1.68035970 1.13284000 0.14025398
v 1.70602451 -1.84085051 -0.89728414
v 1.76240335 -0.20729703 -0.90261625
v 1.55530451 0.96844086 0.12048768
v 1.56414066 0.96099731 0.13822525
v 1.61583267 -0.86123917 0.18605604
v 1.60460852 -0.69647930 0.31185383
v 1.71097110 2.00341638 0.00607597
v 1.81833802 0.90790340 0.17951080
v 1.77291022 1.23849675 -0.89835083
v 1.87550007 -2.00425318 -0.69007038
v 1.83778833 -2.00590912 0.36354727
v 1.82333468 -1.99791757 -0.37430989
v 1.86883877 -1.85205022 0.46487231
v 1.88145099 -0.91065053 -0.90390294
v 1.86312018 -0.53549120 -0.90301638
v 1.66668449 1.99823817 -0.74273466
v 1.80518661 -1.26464108 -0.89774393
v 1.67207621 -1.12461034 0.36155788
v 1.67284606 -0.89980558 0.34035213
v 1.88860689 -0.69700909 0.34882096
v 1.82946227 0.58178511 -0.89667987
v 1.84635435 2.00355514 -0.68194132
v 1.69242833 -1.14441124 0.36397926
v 1.88104950 -0.25239520 -0.89825963
v 1.81483660 0.14999696 0.25907344
v 1.71174155 -0.91536549 0.34358115
v 1.87882541 -0.84569675 0.37018944
v 1.90932618 1.54152831 0.12983712
v 1.72201322 1.99136003 -0.89104318
v 1.82861207 1.99650630 -0.74770807
v 1.83543060 -1.99256173 0.40721739
v 1.87329016 -1.17348794 0.39741463
v 1.87307511 0.28805813 -0.90252333
v 1.89956198 0.88508364 0.19793346
v 1.91920875 2.00864633 -0.29748043
v 1.89847730 -0.27237735 0.30906586
v 1.92041670 0.85012063 -0.90565371
v 1.86183892 1.98858246 0.07620642
v 1.91988824 1.81634840 0.11007182
v 1.90543328 -0.84967757 -0.89855354
v 1.93678127 1.31053647 0.16096250
v 1.87975429 1.99906668 0.08273554
v 1.94614206 1.69063529 -0.90335851
v 1.87811754 1.97303327 -0.89326178
v 1.96506808 -1.99924937 -0.89518916
v 1.90452896 -1.99765674 -0.03180072
v 1.93801974 1.83622011 -0.89844876
v 1.93405686 -1.99763993 0.22426658
v 1.93659888 -1.67281846 -0.89739757
v 1.96600543 -1.54290846 0.44541404
v 1.96027098 0.38625809 0.25741253
v 1.95336984 -1.98143581 0.49537570
v 1.99065064 -0.23361432 0.32246430
v 1.96732317 1.39370986 -0.89595442
v 1.96144317 -1.96851293 0.48167161
v 1.97508429 -1.12014911 -0.89624750
v 1.97560809 -0.06517530 -0.89552831
v 1.96729563 1.99571761 -0.02741606
v 1.97928188 2.00112614 -0.00458971
v 1.96276460 -1.78236524 -0.90500116
v 1.98223494 -0.76383716 -0.89331680
v 2.00032674 -0.52698789 0.35145129
v 1.99474035 0.69957682 -0.87758904
v 1.97191094 1.98610982 -0.90093689
v 1.99325107 -1.97939089 -0.15274545
v 1.98418484 -1.99403659 0.12458698
v 1.97800527 -1.89326767 -0.89268481
v 1.97887943 -1.26761333 0.42070253
v 1.97312103 -0.42722448 -0.89678948
v 1.99712716 0.50674149 0.21669369
v 1.99789653 1.05280742 0.14783643
v 1.97241448 1.97708568 -0.89242469
v 1.99567722 1.98241671 -0.70614546
v 2.00025056 1.99390634 -0.32117783
v 1.97676073 -1.99653998 -0.61580699
v 1.98743282 -1.99450532 -0.43517058
v 1.99522613 -0.82634748 0.35629476
v 1.99182807 -0.45868822 0.31781484
v 1.98963223 -0.11836836 0.28749514
v 1.98851751 0.18503704 -0.90007275
v 1.98221646 0.27032825 -0.89609312
v 1.98539971 1.44965752 -0.90245580
v 1.99750088 1.24323353 0.14936935
v 1.99633191 1.52837929 0.12228278
v 1.97077869 1.95293840 0.09656762
v 1.99586008 -2.00029722 -0.47612732
v 1.97219859 -1.99529985 -0.87331813
v 1.97874842 -1.99589494 -0.77390634
v 1.99309467 -1.97641281 0.33608217
v 1.98063467 -1.83568815 0.47790063
v 1.99446569 -1.87753883 0.48820347
v 1.99290894 -1.55506483 -0.88464408
v 2.00074957 -1.46658877 -0.89908599
v 1.99661933 -1.18976489 -0.90069651
v 1.99869381 -0.78545976 -0.89640277
v 1.99606727 0.11913821 0.28638206
v 2.00012551 1.49548336 0.14613984
v 1.99727331 1.86735162 -0.85822456
v 1.99107180 1.78784427 0.09935650
v 1.98020993 1.99389943 -0.32342731
v 1.99569057 -2.00095538 0.02896990
v 2.00161110 -1.99223045 0.40480027
v 1.99325810 -1.97325472 -0.67437582
v 1.99319909 -1.95351235 -0.79554342
v 1.99545835 -1.94633738 -0.56621110
v 1.99883590 -1.86717836 -0.31847405
v 1.99850629 -1.81365708 0.09759747
v 1.99459074 -1.81516627 0.38331051
v 1.99794005 -1.47835902 -0.71148067
v 1.99844788 -1.50302557 -0.27905875
v 2.00239835 -1.82716778 -0.89336895
v 1.99095998 -1.52192823 0.45142282
v 1.99782513 -1.11634562 0.18608656
v 1.99817644 -1.09605375 -0.49500807
v 1.99387942 -1.25273023 0.42531694
v 1.99802921 -0.84654668 -0.09208898
v 1.99170993 -1.03096787 0.40383218
v 1.99718331 -0.66109229 -0.82428300
v 1.99598156 -0.82646275 0.38133190
v 1.99829374 -0.47303737 -0.60051232
v 1.99817930 -0.52200103 -0.24749388
v 1.99833403 -0.47305797 0.15700523
v 1.99805556 0.01117959 -0.35370313
v 1.99826787 -0.08435995 0.04418424
v 1.99620877 0.03848135 -0.77896767
v 1.99962555 0.18833723 0.21398110
v 1.99851261 0.48081681 -0.79797631
v 1.99800943 0.55899664 -0.05781938
v 1.99755893 0.24020120 0.27381361
v 1.99824093 0.58685103 -0.51127800
v 1.99610303 0.53185597 0.24378381
v 1.99993537 0.66933009 -0.89680152
v 1.99784611 1.03785535 -0.75428545
v 1.99831067 1.16513940 -0.20459662
v 2.00166987 1.12299415 0.16983653
v 1.99775456 1.66011890 -0.67876541
v 1.99435316 1.26957270 -0.90179651
v 1.99803672 1.62808963 -0.24004383
v 1.99393438 1.88195022 -0.11816946
v 2.00136934 1.83889469 0.11149959
v 2.00255964 1.87678489 -0.87405353
v 2.00311778 -1.99843207 -0.81530820
v 1.99566875 -0.27352238 -0.90120279
v 2.00849865 -0.06007520 0.29771245
v 2.00061105 0.36438515 0.25683368
v 1.99640093 0.68143233 0.22882705
v 2.00146268 0.82945331 0.20445872
v 2.00140212 1.01247283 -0.88361507
v 2.00065718 1.67486009 -0.89592557
v 1.99848447 2.00183424 -0.80504798
v 2.00090323 1.98744472 -0.63768571
v 2.00369630 1.99155220 0.10008320
v 2.00345264 -1.86172358 -0.59348261
v 2.00290809 -1.86613468 0.06311774
v 2.00279949 -1.80261198 0.37771378
v 2.00193391 -1.49151722 0.00761560
v 2.00225518 -1.41913119 -0.48017513
v 2.00162171 -1.38241438 0.36707217
v 2.00293015 -1.29529307 -0.76612281
v 2.00180612 -1.14508668 -0.14065580
v 2.00173817 -0.88828966 0.08387707
v 2.00164591 -0.97598294 -0.70036893
v 2.00424681 -0.84517622 0.30954198
v 2.00198517 -0.75626132 -0.38144337
v 2.00221763 -0.50304935 -0.80533265
v 2.00703083 -0.31097315 0.19376246
v 2.00207637 -0.31020149 -0.06511904
v 2.00192784 -0.20227206 -0.43759458
v 2.00255690 0.00837269 -0.75051325
v 2.00184463 0.07775080 -0.26497424
v 2.00235675 0.14923065 0.09015918
v 2.00257908 0.36246368 -0.83052163
v 2.00413857 0.20735380 0.24319742
v 2.00178323 0.39873781 -0.31661453
v 2.00352762 0.52627643 0.19795527
v 2.00291596 0.62003067 -0.71995091
v 2.00193535 0.73623427 -0.04593469
v 2.00193773 0.71854838 -0.31212511
v 2.00186930 1.04082450 -0.55039733
v 2.00217436 1.13990125 -0.04951689
v 2.00320397 1.16979381 -0.83347487
v 2.00189481 1.42524942 -0.53647619
v 2.00179241 1.51272031 -0.17252717
v 2.00197230 1.40234646 -0.86861318
v 2.00657390 1.70120963 0.03520383
v 2.00286768 1.51434299 -0.85793208
v 2.00191055 1.83964881 -0.37895583
f 431 372 402
f 32 28 108
f 747 682 769
f 280 150 227
f 369 456 345
f 971 982 1035
f 922 877 919
f 704 740 825
f 847 923 854
f 615 614 656
f 546 610 639
f 570 530 584
f 336 355 274
f 940 811 862
f 1030 1021 944
f 417 284 367
f 888 874 883
f 354 281 303
f 586 487 511
f 290 316 228
f 552 482 495
f 421 364 418
f 9 10 5
f 340 232 314
f 752 777 866
f 921 880 914
f 369 341 421
f 72 37 32
f 295 292 356
f 392 355 336
f 1009 931 905
f 1026 1011 1055
f 824 724 732
f 702 620 681
f 476 420 466
f 835 832 884
f 784 713 649
f 409 390 384
f 674 590 593
f 622 596 558
f 209 165 167
f 894 815 830
f 880 859 884
f 785 807 874
f 82 81 86
f 1015 921 914
f 646 611 584
f 156 141 88
f 845 883 851
f 324 249 244
f 234 168 188
f 761 654 733
f 686 641 609
f 384 315 354
f 855 797 887
f 287 348 273
f 959 1004 958
f 227 152 214
f 164 58 177
f 104 101 106
f 272 238 212
f 180 130 127
f 998 941 936
f 494 479 406
f 341 302 327
f 226 161 192
f 517 485 523
f 315 281 354
f 179 192 79
f 16 15 14
f 1041 1036 1040
f 454 369 421
f 431 402 468
f 705 677 616
f 621 568 620
f 66 65 19
f 418 364 389
f 361 298 277
f 794 739 752
f 245 188 206
f 1049 1045 1023
f 6 11 9
f 453 432 370
f 105 101 103
f 756 650 714
f 77 148 74
f 655 613 644
f 1060 1062 1063
f 792 730 858
f 807 768 803
f 757 745 694
f 817 700 816
f 458 452 482
f 270 184 225
f 229 162 220
f 359 348 287
f 43 41 37
f 370 322 317
f 1024 1046 1051
f 614 573 576
f 455 382 419
f 236 211 164
f 744 696 710
f 896 816 876
f 806 759 711
f 1056 1052 1012
f 606 537 592
f 628 536 600
f 910 896 909
f 379 348 359
f 696 610 636
f 1058 1056 1059
f 1046 1041 1047
f 350 235 232
f 805 753 819
f 311 268 310
f 791 762 718
f 853 649 817
f 140 89 81
f 122 145 116
f 1047 1041 1044
f 640 590 674
f 821 803 783
f 707 684 598
f 80 4 60
f 575 501 548
f 1029 962 923
f 758 706 753
f 144 142 99
f 463 387 412
f 774 730 792
f 1003 1005 1000
f 795 758 805
f 363 288 320
f 940 925 811
f 884 850 843
f 564 460 563
f 318 201 207
f 643 569 659
f 342 278 275
f 706 639 696
f 801 835 859
f 972 929 947
f 982 981 1035
f 473 422 442
f 376 266 285
f 1025 931 1009
f 873 885 863
f 979 1019 1018
f 395 291 363
f 482 475 495
f 637 679 737
f 957 996 993
f 967 856 822
f 950 1008 1006
f 36 33 29
f 853 809 784
f 274 306 256
f 336 274 300
f 266 174 217
f 958 1004 1002
f 575 603 501
f 434 320 405
f 203 157 140
f 519 501 462
f 764 707 666
f 444 386 400
f 1039 973 974
f 1006 1004 959
f 733 619 818
f 299 270 225
f 292 267 262
f 932 848 891
f 200 80 211
f 668 651 597
f 83 138 82
f 902 944 847
f 274 256 230
f 933 942 1046
f 513 405 467
f 95 90 94
f 664 560 554
f 844 874 807
f 574 562 472
f 1027 914 1026
f 61 8 4
f 588 514 515
f 420 339 376
f 487 565 509
f 396 291 395
f 939 954 915
f 969 928 911
f 146 160 217
f 877 887 797
f 1024 933 1046
f 26 21 20
f 697 631 682
f 253 142 171
f 248 330 198
f 702 681 716
f 514 491 414
f 607 546 639
f 808 786 747
f 564 611 654
f 935 969 911
f 818 619 741
f 584 530 619
f 360 304 299
f 858 730 870
f 276 231 337
f 312 222 239
f 395 363 435
f 53 51 49
f 851 803 821
f 780 736 799
f 556 447 456
f 1015 1027 1060
f 465 378 365
f 108 28 68
f 842 760 846
f 277 298 210
f 899 898 829
f 461 524 469
f 986 985 956
f 1032 939 922
f 294 280 227
f 206 187 262
f 442 407 425
f 435 363 401
f 38 34 33
f 492 504 403
f 71 169 31
f 39 42 38
f 291 262 243
f 908 845 809
f 417 343 284
f 790 789 856
f 917 875 826
f 712 749 692
f 410 462 379
f 929 897 881
f 1057 1054 1058
f 531 459 530
f 826 755 767
f 59 2 1
f 831 734 785
f 79 48 51
f 533 490 484
f 115 72 173
f 558 596 548
f 1054 1050 1049
f 715 671 678
f 278 378 318
f 796 766 731
f 317 255 280
f 630 626 454
f 821 783 766
f 656 614 709
f 346 295 356
f 362 307 271
f 801 786 835
f 171 142 144
f 916 900 800
f 366 328 382
f 1051 1050 1054
f 121 119 118
f 475 409 437
f 568 571 608
f 822 789 705
f 617 583 568
f 471 391 371
f 210 259 148
f 816 794 876
f 64 16 14
f 234 188 245
f 829 898 867
f 1042 974 975
f 298 325 259
f 835 786 808
f 366 313 328
f 98 96 92
f 140 136 198
f 405 307 362
f 40 41 43
f 617 568 621
f 320 307 405
f 217 160 213
f 68 28 22
f 842 729 760
f 143 100 94
f 606 454 537
f 1044 1045 1048
f 798 742 652
f 523 533 543
f 168 234 269
f 406 380 330
f 529 573 614
f 653 677 789
f 142 241 212
f 87 84 82
f 779 787 852
f 552 495 583
f 583 495 568
f 341 369 302
f 98 95 100
f 524 418 469
f 306 282 256
f 1058 1054 1056
f 30 24 26
f 929 881 947
f 730 725 716
f 971 829 932
f 681 662 722
f 934 889 943
f 45 48 42
f 594 552 583
f 775 703 786
f 520 446 428
f 906 912 903
f 499 391 471
f 102 23 27
f 787 778 828
f 1041 1040 1044
f 788 756 714
f 237 200 288
f 65 91 13
f 602 506 581
f 311 310 347
f 957 948 912
f 776 838 857
f 995 1038 1043
f 322 359 287
f 449 493 433
f 87 90 92
f 966 890 1022
f 708 622 558
f 78 77 42
f 199 208 122
f 197 224 169
f 993 994 990
f 501 461 417
f 59 3 2
f 266 213 285
f 201 271 177
f 834 763 840
f 977 1015 1060
f 809 688 784
f 509 410 439
f 783 771 708
f 283 233 261
f 519 548 501
f 437 431 468
f 1021 923 944
f 938 1019 979
f 706 696 753
f 277 210 226
f 37 35 32
f 30 34 31
f 1032 922 919
f 720 641 686
f 899 868 898
f 497 463 510
f 860 890 966
f 699 600 595
f 371 388 429
f 399 413 353
f 450 366 382
f 21 23 19
f 799 736 743
f 1036 1033 1037
f 671 626 630
f 500 436 450
f 724 667 663
f 528 476 505
f 251 252 297
f 824 847 724
f 26 20 25
f 147 71 73
f 793 735 775
f 181 111 145
f 563 460 448
f 534 503 418
f 122 116 120
f 323 248 233
f 448 435 459
f 904 834 949
f 423 358 348
f 149 118 146
f 403 457 399
f 233 138 165
f 70 27 69
f 542 578 543
f 278 318 207
f 998 936 994
f 459 435 401
f 194 167 155
f 99 96 104
f 879 734 831
f 247 254 171
f 601 570 584
f 918 817 938
f 358 247 273
f 425 309 398
f 741 624 727
f 193 172 246
f 684 728 635
f 447 345 456
f 255 208 199
f 650 664 554
f 542 533 484
f 977 1065 1020
f 492 582 504
f 983 984 968
f 423 338 358
f 341 364 421
f 585 598 477
f 563 591 601
f 1067 1063 1062
f 890 825 925
f 178 68 168
f 892 822 839
f 611 563 601
f 259 325 264
f 187 183 243
f 433 441 355
f 839 822 742
f 464 371 429
f 838 795 841
f 447 332 324
f 506 425 479
f 644 579 627
f 888 831 874
f 803 771 783
f 616 677 625
f 725 669 702
f 253 263 241
f 126 119 123
f 305 239 202
f 954 1067 1031
f 424 289 426
f 510 463 445
f 878 836 837
f 877 852 919
f 511 487 453
f 893 935 871
f 500 450 517
f 493 449 520
f 618 663 580
f 890 804 825
f 517 523 546
f 457 413 399
f 44 40 43
f 730 716 782
f 536 464 502
f 811 740 668
f 830 707 764
f 183 182 237
f 822 705 742
f 348 358 273
f 46 44 47
f 216 178 168
f 231 240 309
f 109 107 113
f 520 554 493
f 41 40 36
f 231 215 203
f 285 334 383
f 632 575 599
f 917 913 875
f 440 375 415
f 353 258 224
f 332 233 283
f 245 206 267
f 842 846 904
f 924 910 909
f 593 637 690
f 377 312 387
f 86 81 89
f 125 120 126
f 506 479 581
f 834 770 763
f 802 764 746
f 700 699 739
f 569 572 659
f 946 926 928
f 658 634 559
f 237 182 200
f 733 646 619
f 1051 1047 1050
f 1021 1062 1029
f 190 149 174
f 340 314 331
f 469 389 461
f 951 1014 1008
f 321 271 201
f 1042 1039 974
f 486 444 458
f 199 122 125
f 989 972 947
f 196 153 175
f 461 389 357
f 534 544 537
f 806 837 759
f 135 185 154
f 609 565 487
f 1044 1040 1037
f 428 387 463
f 520 449 446
f 537 454 507
f 587 528 643
f 691 639 706
f 762 721 718
f 332 323 233
f 333 327 272
f 675 656 723
f 176 131 55
f 70 69 24
f 686 609 586
f 730 782 857
f 882 764 802
f 1032 919 1020
f 151 124 149
f 547 524 518
f 165 83 84
f 1031 1030 902
f 870 886 907
f 466 451 525
f 989 984 983
f 257 234 245
f 840 763 737
f 992 829 971
f 243 183 237
f 501 518 461
f 930 987 988
f 213 160 159
f 780 799 833
f 161 78 79
f 372 311 402
f 838 869 886
f 539 531 570
f 547 545 524
f 663 588 580
f 679 602 693
f 157 94 89
f 875 802 738
f 333 272 251
f 994 989 990
f 695 617 621
f 595 605 687
f 722 662 701
f 873 765 749
f 481 440 415
f 975 974 894
f 349 286 315
f 369 244 302
f 52 50 127
f 442 276 407
f 530 550 619
f 422 383 334
f 937 842 904
f 970 893 930
f 928 926 798
f 933 870 942
f 388 232 340
f 64 14 63
f 379 404 348
f 997 995 1043
f 965 918 938
f 716 681 782
f 713 688 623
f 701 662 642
f 281 216 303
f 457 477 413
f 604 514 588
f 687 587 685
f 173 108 172
f 657 564 654
f 502 521 600
f 969 987 946
f 223 140 198
f 314 229 220
f 755 875 738
f 782 681 776
f 500 478 436
f 425 398 479
f 833 799 812
f 1061 1017 1064
f 995 829 992
f 137 136 81
f 1009 905 976
f 942 1043 1046
f 766 720 731
f 7 12 6
f 926 945 892
f 865 833 812
f 853 784 649
f 110 106 109
f 529 428 497
f 845 750 809
f 357 333 297
f 665 647 544
f 1031 902 915
f 1007 961 1005
f 430 494 406
f 860 727 804
f 218 147 148
f 551 517 546
f 869 841 868
f 364 341 327
f 726 640 674
f 635 532 557
f 146 113 107
f 169 102 70
f 738 658 683
f 282 290 228
f 828 827 859
f 777 685 772
f 644 613 579
f 1000 937 998
f 369 345 244
f 729 726 760
f 787 723 778
f 229 232 175
f 495 508 568
f 300 250 222
f 528 569 643
f 301 237 288
f 811 925 825
f 186 136 137
f 767 755 672
f 647 592 544
f 305 304 335
f 212 141 142
f 404 443 423
f 1036 1035 1034
f 80 164 211
f 37 36 35
f 261 233 209
f 456 369 454
f 948 993 930
f 250 230 205
f 156 88 93
f 493 560 441
f 723 656 709
f 1025 1009 1053
f 260 174 266
f 1060 1027 1057
f 604 683 559
f 316 277 226
f 153 132 133
f 351 406 330
f 240 203 140
f 852 828 919
f 669 620 702
f 219 76 191
f 365 378 278
f 102 189 66
f 448 459 531
f 486 526 538
f 215 157 203
f 414 438 368
f 696 639 610
f 750 686 688
f 499 471 623
f 301 288 363
f 572 505 466
f 246 172 216
f 756 664 650
f 696 744 753
f 543 533 542
f 493 441 433
f 12 11 6
f 817 816 896
f 626 660 556
f 658 746 634
f 570 531 530
f 1065 977 1060
f 793 775 801
f 530 459 434
f 971 1035 992
f 676 724 663
f 664 676 560
f 202 127 76
f 350 374 294
f 126 120 119
f 551 546 607
f 452 409 475
f 92 90 95
f 791 761 829
f 961 901 842
f 1002 1001 996
f 957 900 958
f 871 911 773
f 815 728 684
f 214 196 235
f 850 754 774
f 913 882 802
f 448 531 563
f 877 788 852
f 847 854 751
f 20 15 16
f 1062 1064 1066
f 729 640 726
f 845 796 750
f 563 539 591
f 382 328 346
f 827 801 859
f 388 340 331
f 350 294 235
f 721 673 718
f 379 359 385
f 345 447 324
f 161 77 78
f 836 781 814
f 412 335 360
f 377 336 312
f 93 87 96
f 134 128 123
f 936 897 972
f 956 955 892
f 248 198 186
f 560 618 553
f 188 168 64
f 939 915 887
f 149 124 121
f 661 544 612
f 857 838 886
f 276 215 231
f 1045 975 1023
f 90 86 89
f 855 748 797
f 311 269 268
f 242 215 276
f 635 668 532
f 165 84 139
f 225 193 265
f 399 353 344
f 212 238 141
f 538 526 552
f 272 302 238
f 381 346 356
f 295 267 292
f 950 879 888
f 527 410 509
f 325 319 264
f 921 828 880
f 909 866 924
f 430 406 351
f 322 208 255
f 289 204 329
f 275 278 189
f 616 555 516
f 1010 1007 1003
f 527 462 410
f 718 657 654
f 224 258 102
f 695 669 754
f 721 744 710
f 413 342 353
f 263 297 252
f 894 862 815
f 665 678 647
f 650 645 714
f 167 85 155
f 659 572 640
f 62 5 10
f 1021 1029 923
f 184 115 193
f 725 702 716
f 962 826 923
f 1011 931 1025
f 20 17 15
f 76 47 43
f 162 151 220
f 694 745 661
f 521 498 595
f 577 513 561
f 752 739 595
f 819 744 762
f 489 561 467
f 166 134 153
f 114 109 113
f 515 514 414
f 624 577 629
f 50 47 127
f 752 687 777
f 1008 1003 1004
f 918 809 853
f 870 857 886
f 1035 981 1034
f 255 199 150
f 471 371 464
f 772 659 729
f 739 699 595
f 516 555 430
f 28 25 22
f 900 912 906
f 749 712 734
f 152 126 128
f 466 420 376
f 986 989 985
f 256 221 154
f 454 556 456
f 808 747 769
f 500 517 551
f 1057 1058 1060
f 1003 1007 1005
f 476 426 411
f 556 660 574
f 839 742 798
f 27 23 24
f 891 848 810
f 608 571 642
f 880 843 914
f 813 693 790
f 9 1 2
f 636 589 657
f 309 352 380
f 553 483 481
f 991 925 940
f 331 289 424
f 481 483 440
f 65 170 91
f 996 1000 994
f 168 67 64
f 79 192 161
f 571 508 500
f 1065 1060 1063
f 91 10 13
f 801 775 786
f 35 29 32
f 439 410 385
f 1006 1008 1004
f 247 181 273
f 923 826 854
f 980 817 910
f 313 257 296
f 292 262 291
f 306 415 282
f 148 147 38
f 566 511 470
f 304 270 299
f 60 3 59
f 778 735 793
f 462 501 480
f 174 146 217
f 427 373 375
f 162 129 151
f 693 581 653
f 373 361 316
f 831 785 874
f 224 197 264
f 615 529 614
f 178 108 68
f 876 794 866
f 496 486 538
f 458 400 452
f 701 642 691
f 154 221 176
f 185 230 154
f 932 829 848
f 553 580 483
f 708 558 641
f 868 805 861
f 609 487 586
f 705 789 677
f 137 81 82
f 1005 961 937
f 1062 1060 1059
f 619 550 624
f 823 626 780
f 869 838 841
f 307 236 271
f 343 297 284
f 63 14 8
f 97 96 99
f 986 956 945
f 466 376 451
f 867 791 829
f 193 173 172
f 1044 1037 1042
f 1005 937 1000
f 585 477 504
f 11 10 9
f 944 923 847
f 717 773 689
f 1065 1063 1067
f 649 623 471
f 999 907 997
f 761 733 810
f 187 63 183
f 718 673 657
f 223 308 309
f 67 16 64
f 484 416 460
f 361 277 316
f 451 474 535
f 571 500 551
f 130 54 52
f 618 580 553
f 410 379 385
f 324 283 249
f 347 310 313
f 429 331 424
f 487 432 453
f 182 80 200
f 965 908 809
f 102 66 19
f 31 70 24
f 479 398 406
f 458 482 526
f 404 423 348
f 278 207 189
f 670 719 633
f 760 726 674
f 711 759 680
f 987 990 986
f 459 401 434
f 865 812 872
f 846 770 834
f 863 806 765
f 983 968 955
f 396 395 448
f 396 356 291
f 834 840 897
f 920 834 897
f 563 531 539
f 405 362 467
f 166 152 134
f 1002 1004 1001
f 557 465 522
f 845 851 796
f 745 743 665
f 700 739 794
f 600 521 595
f 672 683 604
f 765 711 632
f 694 661 612
f 447 472 332
f 545 612 544
f 1006 959 950
f 524 534 418
f 363 291 301
f 951 1008 950
f 866 794 752
f 707 598 666
f 413 465 365
f 687 605 587
f 182 61 80
f 253 241 142
f 183 63 61
f 861 819 849
f 29 26 25
f 87 82 86
f 662 620 608
f 888 845 908
f 774 754 669
f 105 103 107
f 387 305 335
f 490 419 416
f 15 12 7
f 453 370 374
f 737 679 693
f 922 887 877
f 668 597 532
f 242 159 215
f 980 1016 1019
f 809 750 688
f 989 947 984
f 909 876 866
f 1034 981 1033
f 953 910 924
f 985 955 956
f 291 243 301
f 209 233 165
f 123 124 129
f 87 86 90
f 130 52 127
f 357 297 343
f 413 365 342
f 841 805 868
f 450 436 347
f 1034 1033 1036
f 507 454 421
f 138 137 82
f 376 285 383
f 974 862 894
f 698 644 703
f 664 732 676
f 986 945 987
f 36 39 33
f 911 928 798
f 503 421 418
f 755 738 683
f 231 309 337
f 646 584 619
f 394 403 319
f 382 346 381
f 51 48 49
f 543 578 610
f 912 864 903
f 703 697 747
f 236 177 271
f 763 690 637
f 106 101 109
f 683 658 559
f 222 180 239
f 991 940 973
f 163 54 130
f 368 438 394
f 649 471 628
f 541 473 442
f 15 11 12
f 448 395 435
f 759 814 757
f 218 197 147
f 297 333 251
f 246 216 281
f 532 378 465
f 841 795 805
f 545 544 534
f 210 148 161
f 1032 1020 1065
f 521 424 498
f 201 177 62
f 564 563 611
f 194 249 209
f 386 299 349
f 438 491 394
f 970 935 893
f 865 864 833
f 939 1065 954
f 247 171 181
f 758 753 805
f 1062 1066 1029
f 248 186 138
f 883 844 851
f 319 224 264
f 73 34 38
f 710 636 673
f 515 427 483
f 823 717 626
f 488 577 624
f 59 1 58
f 1062 1059 1061
f 167 139 85
f 451 383 474
f 338 284 279
f 736 715 678
f 158 156 93
f 208 195 122
f 665 743 678
f 850 774 843
f 58 1 5
f 559 634 582
f 641 565 609
f 738 746 658
f 444 400 458
f 623 566 499
f 298 259 210
f 39 38 33
f 304 202 219
f 52 54 50
f 859 835 884
f 910 817 896
f 424 426 498
f 20 21 17
f 249 261 209
f 854 767 751
f 624 629 651
f 110 109 114
f 952 924 927
f 977 921 1015
f 428 463 497
f 331 220 289
f 471 464 536
f 598 557 522
f 914 843 931
f 885 878 806
f 756 748 664
f 412 360 445
f 445 386 444
f 117 113 118
f 131 51 55
f 408 372 431
f 994 936 989
f 562 616 516
f 354 311 372
f 386 349 390
f 527 519 462
f 41 36 37
f 1026 1055 1027
f 1017 1028 917
f 360 335 304
f 408 384 354
f 158 93 97
f 651 629 561
f 782 776 857
f 930 988 970
f 1033 1022 991
f 934 866 889
f 954 1031 915
f 788 714 779
f 578 636 610
f 308 198 330
f 226 210 161
f 318 393 321
f 310 257 313
f 704 624 651
f 205 163 180
f 593 473 541
f 636 578 589
f 218 264 197
f 183 61 182
f 1013 943 1007
f 293 190 260
f 414 368 361
f 1038 1036 1041
f 964 1014 963
f 965 979 908
f 666 598 585
f 422 334 276
f 604 559 514
f 645 650 567
f 525 451 535
f 1059 1056 1028
f 402 311 347
f 699 628 600
f 761 810 848
f 189 207 170
f 309 240 223
f 517 455 485
f 1030 944 902
f 734 712 719
f 134 132 153
f 1049 1023 960
f 69 27 24
f 554 560 493
f 242 213 159
f 791 718 761
f 310 268 257
f 88 85 87
f 172 108 178
f 247 338 254
f 417 357 343
f 926 892 798
f 641 558 549
f 441 415 306
f 980 910 953
f 446 355 392
f 576 496 538
f 499 470 391
f 708 641 720
f 688 713 784
f 300 222 312
f 572 466 525
f 567 529 615
f 254 279 253
f 169 70 31
f 1007 943 961
f 293 260 339
f 245 267 257
f 555 625 494
f 34 71 31
f 851 844 803
f 754 832 769
f 398 309 380
f 508 478 500
f 299 225 286
f 965 938 979
f 109 101 105
f 891 860 981
f 455 419 485
f 329 293 411
f 723 709 778
f 770 690 763
f 251 212 241
f 660 689 638
f 630 606 647
f 282 375 290
f 565 549 509
f 946 987 945
f 873 906 885
f 76 43 75
f 785 670 807
f 1050 1048 1049
f 679 637 602
f 978 927 934
f 403 399 344
f 545 534 524
f 155 88 141
f 680 612 603
f 1011 1025 1055
f 375 373 290
f 33 30 29
f 976 1024 1053
f 1038 1035 1036
f 1047 1044 1048
f 566 470 499
f 334 285 242
f 795 701 758
f 974 973 862
f 846 834 904
f 946 945 926
f 432 439 385
f 778 709 735
f 308 223 198
f 70 102 27
f 638 652 562
f 1028 1056 1012
f 336 300 312
f 116 145 112
f 398 380 406
f 221 228 179
f 829 761 848
f 530 434 550
f 641 549 565
f 328 296 295
f 312 305 387
f 1000 998 994
f 489 393 378
f 593 541 637
f 810 733 818
f 103 100 143
f 496 445 486
f 1018 1014 964
f 249 283 261
f 973 940 862
f 32 29 28
f 549 527 509
f 571 551 607
f 589 484 564
f 694 612 680
f 284 263 253
f 288 200 211
f 317 322 255
f 961 842 937
f 1026 914 1011
f 513 467 561
f 943 901 961
f 54 53 50
f 871 717 823
f 1001 1000 996
f 932 891 982
f 420 293 339
f 880 828 859
f 785 734 719
f 638 574 660
f 614 576 655
f 893 871 823
f 269 234 268
f 289 220 204
f 443 367 423
f 599 575 548
f 958 1002 957
f 411 293 420
f 982 891 981
f 765 806 711
f 68 67 168
f 712 692 633
f 354 303 311
f 867 849 791
f 902 748 855
f 948 930 912
f 119 114 117
f 631 583 617
f 906 903 878
f 1067 1062 1031
f 980 953 1016
f 422 276 442
f 288 211 320
f 463 412 445
f 360 386 445
f 878 837 806
f 141 158 142
f 826 875 755
f 864 823 833
f 981 860 966
f 417 461 357
f 43 37 115
f 934 927 866
f 1062 1061 1064
f 367 284 338
f 35 36 29
f 650 554 567
f 951 950 888
f 988 987 969
f 80 59 164
f 742 705 616
f 873 863 765
f 546 543 610
f 745 665 661
f 844 807 803
f 881 790 856
f 558 548 519
f 157 89 140
f 559 582 492
f 879 916 800
f 676 663 618
f 521 502 424
f 969 946 928
f 1015 914 1027
f 549 519 527
f 374 370 326
f 767 667 751
f 746 764 648
f 937 904 949
f 714 675 779
f 1004 1003 1001
f 232 196 175
f 776 722 838
f 710 673 721
f 164 59 58
f 300 274 250
f 441 553 481
f 219 270 304
f 1037 1033 991
f 339 260 266
f 654 611 646
f 84 83 82
f 1022 925 991
f 505 476 466
f 1018 1016 1014
f 722 701 795
f 1061 1028 1017
f 263 252 241
f 145 111 112
f 635 557 684
f 167 165 139
f 700 628 699
f 900 906 873
f 612 545 547
f 24 23 21
f 804 727 704
f 707 815 684
f 227 150 152
f 627 594 631
f 746 648 634
f 1031 1062 1021
f 953 978 1016
f 676 618 560
f 832 835 808
f 589 542 484
f 7 6 3
f 302 244 238
f 596 599 548
f 303 216 269
f 988 969 935
f 653 540 625
f 371 232 388
f 189 170 66
f 150 199 125
f 50 46 47
f 174 149 146
f 62 177 58
f 437 384 431
f 75 43 115
f 797 748 756
f 680 603 575
f 30 31 24
f 239 180 202
f 871 773 717
f 358 338 247
f 216 168 269
f 230 256 154
f 918 965 809
f 822 856 789
f 193 115 173
f 1010 1013 1007
f 197 169 71
f 475 437 478
f 947 881 856
f 555 494 430
f 691 706 758
f 812 743 781
f 567 615 645
f 993 990 987
f 46 45 44
f 1053 1024 1051
f 180 127 202
f 480 501 417
f 709 614 655
f 508 571 568
f 752 595 687
f 1052 1049 960
f 33 34 30
f 391 350 371
f 626 715 780
f 763 637 737
f 195 145 122
f 536 502 600
f 803 768 771
f 685 643 659
f 790 653 789
f 772 729 820
f 759 757 694
f 820 729 842
f 582 585 504
f 250 205 222
f 44 45 40
f 468 402 436
f 231 203 240
f 827 793 801
f 513 488 405
f 538 552 579
f 709 655 698
f 735 698 703
f 504 457 403
f 581 540 653
f 326 370 317
f 533 523 490
f 149 121 118
f 769 695 754
f 901 820 842
f 400 386 390
f 511 453 470
f 148 38 74
f 520 428 529
f 305 202 304
f 472 516 397
f 186 198 136
f 540 494 625
f 945 956 892
f 385 322 370
f 76 127 47
f 796 821 766
f 474 422 473
f 1012 913 917
f 837 814 759
f 955 822 892
f 426 329 411
f 970 988 935
f 1014 1010 1008
f 140 81 136
f 861 805 819
f 973 1037 991
f 984 967 968
f 941 920 936
f 116 114 120
f 324 332 283
f 863 885 806
f 528 505 569
f 741 619 624
f 328 295 346
f 431 384 408
f 1013 934 943
f 691 642 607
f 1043 1038 1041
f 860 741 727
f 47 44 43
f 1036 1037 1040
f 75 115 184
f 880 884 843
f 139 84 85
f 391 470 374
f 14 7 8
f 840 737 813
f 97 93 96
f 131 179 79
f 345 324 244
f 150 125 126
f 874 844 883
f 394 492 403
f 233 248 138
f 918 853 817
f 1064 1017 962
f 450 382 455
f 191 76 75
f 7 3 4
f 268 234 257
f 326 280 294
f 142 158 97
f 870 730 857
f 320 211 307
f 356 292 291
f 303 269 311
f 273 181 195
f 640 572 590
f 319 344 224
f 775 735 703
f 77 74 42
f 93 88 87
f 550 434 488
f 715 626 671
f 770 760 674
f 605 498 587
f 675 615 656
f 963 1014 951
f 161 148 77
f 688 566 623
f 165 138 83
f 957 1002 996
f 916 959 958
f 11 13 10
f 700 649 628
f 329 204 293
f 1025 1053 1055
f 495 475 478
f 206 64 187
f 737 693 813
f 703 644 627
f 355 441 306
f 688 686 566
f 495 478 508
f 771 622 708
f 1032 1065 939
f 882 895 830
f 57 53 54
f 353 342 258
f 393 362 321
f 331 314 220
f 850 832 754
f 196 152 166
f 1009 976 1053
f 713 623 649
f 693 653 790
f 989 936 972
f 393 467 362
f 243 237 301
f 845 888 883
f 774 725 730
f 984 947 967
f 443 417 367
f 771 768 622
f 581 479 540
f 637 541 602
f 1042 1037 1039
f 535 474 473
f 407 337 309
f 897 840 813
f 259 218 148
f 1057 1051 1054
f 361 368 298
f 490 416 484
f 556 574 447
f 344 353 224
f 765 692 749
f 334 242 276
f 843 774 792
f 478 437 468
f 1037 973 1039
f 862 811 728
f 387 335 412
f 537 507 503
f 875 913 802
f 833 823 780
f 729 659 640
f 202 76 219
f 173 72 108
f 349 315 384
f 284 297 263
f 232 229 314
f 407 309 425
f 781 743 745
f 279 284 253
f 502 429 424
f 274 230 250
f 518 524 461
f 512 426 476
f 981 966 1033
f 104 96 101
f 736 678 743
f 915 902 855
f 9 5 1
f 100 95 94
f 811 825 740
f 236 164 177
f 62 58 5
f 538 579 613
f 757 781 745
f 403 344 319
f 1016 934 1013
f 696 636 710
f 674 690 770
f 808 769 832
f 490 523 485
f 339 266 376
f 992 1035 1038
f 352 308 330
f 985 989 983
f 653 625 677
f 98 92 95
f 627 579 594
f 26 24 21
f 48 78 42
f 287 273 195
f 252 251 241
f 432 385 370
f 905 843 858
f 843 905 931
f 652 616 562
f 892 839 798
f 491 438 414
f 128 126 123
f 953 924 952
f 275 189 258
f 380 352 330
f 591 539 570
f 141 156 158
f 611 601 584
f 764 666 648
f 259 264 218
f 254 253 171
f 889 820 901
f 748 824 732
f 452 390 409
f 471 536 628
f 154 176 55
f 669 621 620
f 800 900 873
f 814 781 757
f 560 553 441
f 222 205 180
f 667 767 672
f 3 6 2
f 552 526 482
f 111 144 104
f 154 56 57
f 796 731 750
f 780 715 736
f 56 55 53
f 979 964 908
f 374 326 294
f 219 184 270
f 1056 1054 1052
f 838 722 795
f 112 106 110
f 943 889 901
f 357 389 333
f 663 667 588
f 738 802 746
f 18 13 11
f 49 48 45
f 717 689 660
f 724 751 667
f 1017 826 962
f 718 654 761
f 512 476 528
f 670 596 622
f 949 834 941
f 626 556 454
f 74 38 42
f 440 427 375
f 503 507 421
f 776 681 722
f 510 445 496
f 120 114 119
f 172 178 216
f 975 894 895
f 40 45 42
f 1044 1042 1045
f 224 102 169
f 996 994 993
f 891 810 818
f 302 272 327
f 181 145 195
f 632 711 575
f 601 591 570
f 852 787 828
f 661 665 544
f 491 492 394
f 655 644 698
f 579 552 594
f 160 103 159
f 407 276 337
f 719 670 785
f 597 651 561
f 294 227 235
f 773 652 689
f 633 632 599
f 979 1018 964
f 778 793 827
f 942 907 999
f 947 856 967
f 299 286 349
f 416 356 396
f 266 217 213
f 280 255 150
f 674 593 690
f 854 826 767
f 315 246 281
f 498 426 512
f 711 680 575
f 229 175 162
f 629 577 561
f 72 32 108
f 470 453 374
f 567 520 529
f 205 230 185
f 916 958 900
f 514 559 491
f 573 510 576
f 626 717 660
f 1031 1021 1030
f 385 359 322
f 588 515 580
f 166 153 196
f 766 783 720
f 322 287 208
f 671 647 678
f 540 479 494
f 777 687 685
f 755 683 672
f 955 968 822
f 662 608 642
f 504 477 457
f 235 196 232
f 152 150 126
f 906 878 885
f 418 389 469
f 401 363 320
f 462 404 379
f 389 364 333
f 355 306 274
f 977 919 921
f 397 351 323
f 828 778 827
f 449 433 355
f 732 724 676
f 879 800 734
f 648 666 585
f 135 54 163
f 572 525 590
f 460 396 448
f 1023 895 882
f 668 740 651
f 760 770 846
f 990 989 986
f 360 299 386
f 959 916 879
f 1033 966 1022
f 893 823 864
f 960 882 913
f 427 414 373
f 104 106 112
f 307 211 236
f 779 723 787
f 907 899 829
f 79 78 48
f 712 633 719
f 293 204 190
f 667 672 588
f 592 537 544
f 296 267 295
f 332 397 323
f 57 56 53
f 282 228 221
f 864 865 903
f 779 675 723
f 131 79 51
f 151 190 204
f 388 331 429
f 483 427 440
f 593 535 473
f 123 121 124
f 482 452 475
f 950 959 879
f 488 513 577
f 1014 1016 1013
f 909 896 876
f 1020 919 977
f 596 633 599
f 773 798 652
f 397 430 351
f 286 265 315
f 728 668 635
f 50 49 46
f 487 439 432
f 481 415 441
f 554 520 567
f 942 870 907
f 143 94 157
f 786 703 747
f 138 186 137
f 446 377 428
f 995 992 1038
f 419 381 416
f 17 18 11
f 759 694 680
f 160 107 103
f 546 523 543
f 935 911 871
f 123 119 121
f 886 899 907
f 682 617 695
f 598 522 477
f 747 697 682
f 714 645 675
f 159 143 157
f 1008 1010 1003
f 235 227 214
f 436 402 347
f 562 516 472
f 40 42 39
f 142 97 99
f 898 868 861
f 772 685 659
f 67 22 16
f 897 813 881
f 90 89 94
f 214 152 196
f 920 897 936
f 480 417 443
f 836 814 837
f 697 627 631
f 905 870 933
f 111 171 144
f 321 362 271
f 728 811 668
f 244 249 194
f 17 21 18
f 162 153 133
f 783 708 720
f 937 949 998
f 60 4 3
f 891 818 860
f 1019 1016 1018
f 815 862 728
f 279 254 338
f 392 377 446
f 800 749 734
f 682 631 617
f 228 192 179
f 147 73 38
f 878 872 836
f 101 98 100
f 1045 1042 975
f 860 804 890
f 415 375 282
f 328 313 296
f 930 893 864
f 971 932 982
f 208 287 195
f 606 592 647
f 777 772 820
f 673 636 657
f 487 509 439
f 155 85 88
f 903 872 878
f 750 731 686
f 175 153 162
f 903 865 872
f 85 84 87
f 119 117 118
f 681 620 662
f 434 401 320
f 768 670 622
f 769 682 695
f 1046 1047 1051
f 238 244 194
f 836 812 781
f 91 201 62
f 109 105 107
f 886 869 899
f 905 858 870
f 534 537 503
f 586 511 566
f 171 111 181
f 285 213 242
f 686 586 566
f 296 257 267
f 877 797 788
f 133 129 162
f 774 669 725
f 1017 917 826
f 902 847 824
f 188 64 206
f 884 832 850
f 118 113 146
f 872 812 836
f 532 561 489
f 184 193 225
f 633 692 632
f 6 9 2
f 762 744 721
f 111 104 112
f 882 830 764
f 830 815 707
f 550 488 624
f 569 505 572
f 902 824 748
f 684 557 598
f 390 349 384
f 517 450 455
f 347 313 366
f 964 963 908
f 963 888 908
f 800 873 749
f 132 123 129
f 163 130 180
f 103 143 159
f 318 321 201
f 265 193 246
f 589 564 657
f 163 185 135
f 258 189 102
f 905 933 976
f 220 151 204
f 132 129 133
f 15 17 11
f 895 894 830
f 587 512 528
f 1054 1049 1052
f 889 777 820
f 265 246 315
f 46 49 45
f 333 364 327
f 701 691 758
f 847 751 724
f 616 625 555
f 998 949 941
f 368 394 325
f 858 843 792
f 742 616 652
f 620 568 608
f 963 951 888
f 807 670 768
f 464 429 502
f 532 489 378
f 442 506 541
f 960 1023 882
f 942 999 1043
f 510 496 576
f 267 206 262
f 122 120 125
f 480 443 404
f 21 19 18
f 727 624 704
f 478 468 436
f 849 762 791
f 258 342 275
f 1065 1067 954
f 61 4 80
f 160 146 107
f 262 187 243
f 22 20 16
f 813 790 881
f 529 497 573
f 634 648 582
f 972 897 929
f 63 8 61
f 607 639 691
f 804 704 825
f 1052 960 1012
f 101 100 103
f 190 174 260
f 159 157 215
f 867 861 849
f 486 458 526
f 919 828 921
f 207 91 170
f 462 480 404
f 228 226 192
f 391 374 350
f 1014 1013 1010
f 930 993 987
f 498 512 587
f 818 741 860
f 414 361 373
f 144 99 104
f 80 60 59
f 675 645 615
f 400 390 452
f 590 525 535
f 1048 1045 1049
f 256 282 221
f 1024 976 933
f 547 518 501
f 952 927 978
f 66 170 65
f 489 467 393
f 1011 914 931
f 96 87 92
f 65 13 19
f 924 866 927
f 22 25 20
f 1003 1000 1001
f 911 798 773
f 460 416 396
f 578 542 589
f 557 532 465
f 960 913 1012
f 205 185 163
f 597 561 532
f 326 317 280
f 851 821 796
f 999 997 1043
f 912 930 864
f 941 834 920
f 1055 1053 1051
f 472 447 574
f 765 632 692
f 350 232 371
f 238 194 141
f 129 124 151
f 219 191 184
f 655 576 613
f 642 571 607
f 191 75 184
f 953 952 978
f 117 114 113
f 695 621 669
f 207 201 91
f 709 698 735
f 194 155 141
f 1016 978 934
f 938 980 1019
f 516 430 397
f 898 861 867
f 869 868 899
f 477 465 413
f 53 49 50
f 1047 1048 1050
f 382 381 419
f 957 993 948
f 450 347 366
f 476 411 420
f 298 368 325
f 748 732 664
f 29 30 26
f 590 535 593
f 587 643 685
f 704 651 740
f 472 397 332
f 91 62 10
f 799 743 812
f 631 594 583
f 968 967 822
f 209 167 194
f 689 652 638
f 1028 1012 917
f 392 336 377
f 377 387 428
f 1060 1058 1059
f 997 829 995
f 613 576 538
f 888 879 831
f 1046 1043 1041
f 985 983 955
f 731 720 686
f 938 817 980
f 671 630 647
f 446 449 355
f 522 465 477
f 797 756 788
f 416 381 356
f 654 646 733
f 134 123 132
f 15 7 14
f 670 633 596
f 351 330 248
f 1023 975 895
f 434 405 488
f 445 444 486
f 849 819 762
f 73 71 34
f 1066 962 1029
f 603 612 547
f 176 221 179
f 997 907 829
f 408 354 372
f 18 19 13
f 112 110 114
f 342 365 278
f 451 376 383
f 154 55 56
f 573 497 510
f 152 128 134
f 648 585 582
f 1055 1051 1057
f 558 519 549
f 559 492 491
f 151 149 190
f 426 289 329
f 753 744 819
f 649 700 817
f 588 672 604
f 1066 1064 962
f 323 351 248
f 638 562 574
f 580 515 483
f 115 37 72
f 1061 1059 1028
f 29 25 28
f 490 485 419
f 922 939 887
f 1022 890 925
f 240 140 223
f 423 367 338
f 135 57 54
f 506 442 425
f 154 57 135
f 290 373 316
f 187 64 63
f 102 19 23
f 866 777 889
f 1027 1055 1057
f 147 197 71
f 316 226 228
f 603 547 501
f 378 393 318
f 40 39 36
f 116 112 114
f 484 460 564
f 606 630 454
f 602 581 693
f 101 96 98
f 8 7 4
f 176 179 131
f 602 541 506
f 394 319 325
f 816 700 794
f 900 957 912
f 703 627 697
f 68 22 67
f 788 779 852
f 225 265 286
f 53 55 51
f 887 915 855
f 251 272 212
f 515 414 427
f 409 384 437
f 595 498 605
f 474 383 422
f 309 308 352
f 312 239 305

