v -1.3680117784833934 -1.595455565846428 0.45000000000000001
v -0.6319882215166065 -1.595455565846428 0.45000000000000001
v -1 -1.3680117784833934 1.045455565846428
v -1 -1.3680117784833934 -0.14545556584642799
v -1.595455565846428 -1 0.081988221516606508
v -1.595455565846428 -1 0.81801177848339357
v -1 -1.7 0.45000000000000001
v -1.2163118960624633 -1.5663118960624631 0.80000000000000004
v -0.78368810393753674 -1.5663118960624631 0.80000000000000004
v -1 -1 1.1499999999999999
v -1.2163118960624633 -1.5663118960624631 0.099999999999999978
v -0.78368810393753674 -1.5663118960624631 0.099999999999999978
v -1 -1 -0.24999999999999994
v -1.5663118960624631 -0.64999999999999991 0.23368810393753681
v -1.5663118960624631 -1.3500000000000001 0.23368810393753681
v -1.3500000000000001 -1.2163118960624633 -0.11631189606246312
v -1.3500000000000001 -0.78368810393753674 -0.11631189606246312
v -1.5663118960624631 -0.64999999999999991 0.66631189606246322
v -1.5663118960624631 -1.3500000000000001 0.66631189606246322
v -1.3500000000000001 -1.2163118960624633 1.0163118960624631
v -1.3500000000000001 -0.78368810393753674 1.0163118960624631
v -1.7 -1 0.45000000000000001
v -1.1912865702388702 -1.6733568504487422 0.45000000000000001
v -0.80871342976112981 -1.6733568504487422 0.45000000000000001
v -1.3037219951868864 -1.6038679362913304 0.63192433910542811
v -1.1124354249480162 -1.4856463342923145 0.94143251134331418
v -1.1137218936815172 -1.6657395614066075 0.63400588924169676
v -0.69627800481311364 -1.6038679362913304 0.63192433910542811
v -0.88756457505198383 -1.4856463342923145 0.94143251134331418
v -0.88627810631848281 -1.6657395614066075 0.63400588924169676
v -1 -1.595455565846428 0.81801177848339357
v -1 -1.1912865702388702 1.1233568504487423
v -1.3037219951868864 -1.6038679362913304 0.26807566089457197
v -1.1124354249480162 -1.4856463342923145 -0.041432511343314105
v -1.1137218936815172 -1.6657395614066075 0.26599411075830326
v -0.69627800481311364 -1.6038679362913304 0.26807566089457197
v -0.88756457505198383 -1.4856463342923145 -0.041432511343314105
v -0.88627810631848281 -1.6657395614066075 0.26599411075830326
v -1 -1.595455565846428 0.081988221516606452
v -1 -1.1912865702388702 -0.22335685044874226
v -0.51435366570768548 -1.4914325113433142 0.33756457505198378
v -0.58855032339526869 -1.4817336721649106 0.15227221707678601
v -0.81807566089457184 -1.3037219951868864 -0.15386793629133028
v -0.702272217076786 -1.4114496766047311 -0.031733672164910687
v -0.81599411075830319 -1.1137218936815172 -0.21573956140660749
v -0.51435366570768548 -1.4914325113433142 0.56243542494801624
v -0.58855032339526869 -1.4817336721649106 0.74772778292321407
v -0.81807566089457184 -1.3037219951868864 1.0538679362913304
v -0.702272217076786 -1.4114496766047311 0.93173367216491076
v -1.4856463342923145 -0.50856748865668577 0.33756457505198378
v -1.6038679362913304 -0.81807566089457184 0.14627800481311365
v -1.4114496766047313 -0.5182663278350893 0.15227221707678601
v -1.4856463342923145 -1.4914325113433142 0.33756457505198378
v -1.6038679362913304 -1.1819243391054282 0.14627800481311365
v -1.4114496766047313 -1.4817336721649106 0.15227221707678601
v -1.1819243391054282 -1.3037219951868864 -0.15386793629133028
v -1.491432511343314 -1.1124354249480162 -0.035646334292314341
v -1.2977277829232139 -1.4114496766047311 -0.031733672164910687
v -1.1840058892416967 -1.1137218936815172 -0.21573956140660749
v -1.4817336721649106 -1.2977277829232139 0.038550323395268815
v -1.491432511343314 -0.88756457505198383 -0.035646334292314341
v -1.2977277829232139 -0.5885503233952688 -0.031733672164910687
v -1.1840058892416967 -0.88627810631848281 -0.21573956140660749
v -1.4817336721649106 -0.702272217076786 0.038550323395268815
v -1.3680117784833936 -1 -0.14545556584642788
v -1.4856463342923145 -0.50856748865668577 0.56243542494801624
v -1.6038679362913304 -0.81807566089457184 0.75372199518688632
v -1.4114496766047313 -0.5182663278350893 0.74772778292321407
v -1.5954555658464278 -0.63198822151660639 0.45000000000000001
v -1.4856463342923145 -1.4914325113433142 0.56243542494801624
v -1.6038679362913304 -1.1819243391054282 0.75372199518688632
v -1.4114496766047313 -1.4817336721649106 0.74772778292321407
v -1.5954555658464278 -1.3680117784833936 0.45000000000000001
v -1.1819243391054282 -1.3037219951868864 1.0538679362913304
v -1.491432511343314 -1.1124354249480162 0.93564633429231436
v -1.2977277829232139 -1.4114496766047311 0.93173367216491076
v -1.1840058892416967 -1.1137218936815172 1.1157395614066075
v -1.4817336721649106 -1.2977277829232139 0.86144967660473126
v -1.491432511343314 -0.88756457505198383 0.93564633429231436
v -1.1840058892416967 -0.88627810631848281 1.1157395614066075
v -1.4817336721649106 -0.702272217076786 0.86144967660473126
v -1.3680117784833936 -1 1.045455565846428
v -1.6733568504487422 -1 0.25871342976112982
v -1.6733568504487422 -1 0.64128657023887015
v -1.6657395614066075 -0.81599411075830319 0.33627810631848276
v -1.6657395614066075 -1.1840058892416967 0.33627810631848276
v -1.6657395614066075 -0.81599411075830319 0.56372189368151726
v -1.6657395614066075 -1.1840058892416967 0.56372189368151726
v -1.282348744032155 -1.6405303948630889 0.45000000000000001
v -1.0965665694893436 -1.6933072173698034 0.45000000000000001
v -0.71765125596784496 -1.6405303948630889 0.45000000000000001
v -0.90343343051065639 -1.6933072173698034 0.45000000000000001
v -1.3391091494424674 -1.6054505351042923 0.54184026516910899
v -1.2625269972347468 -1.5907380322356732 0.71852961287953343
v -1.2507601554406054 -1.6470132204279422 0.54215875994644525
v -1.0567604054103124 -1.4309494146115764 0.99869012969397986
v -1.1659604277454032 -1.53105661011428 0.87477760449026998
v -1.0575697256955536 -1.6913818384165964 0.54314977289841393
v -1.1670738512237153 -1.6237045669318575 0.72033116991131441
v -1.1540819192313048 -1.6764748181817073 0.54295473377953174
v -1.2108812153652624 -1.6413709226338509 0.63485792546134578
v -0.66089085055753249 -1.6054505351042923 0.54184026516910899
v -0.73747300276525318 -1.5907380322356732 0.71852961287953343
v -0.74923984455939474 -1.6470132204279422 0.54215875994644525
v -0.94323959458968754 -1.4309494146115764 0.99869012969397986
v -0.83403957225459679 -1.53105661011428 0.87477760449026998
v -1 -1.4920349213414412 0.94789721447355135
v -0.94243027430444637 -1.6913818384165964 0.54314977289841393
v -0.83292614877628479 -1.6237045669318575 0.72033116991131441
v -0.84591808076869535 -1.6764748181817073 0.54295473377953174
v -1 -1.6747028844273357 0.63648329079419719
v -0.78911878463473761 -1.6413709226338509 0.63485792546134578
v -1.1095041255281617 -1.5881245197289973 0.81348094280972838
v -0.89049587447183842 -1.5881245197289973 0.81348094280972838
v -1.0567992961339576 -1.5461430594970886 0.8841677078294129
v -1.0576265060223722 -1.6390877450526093 0.72972493619129586
v -0.94320070386604227 -1.5461430594970886 0.8841677078294129
v -0.94237349397762793 -1.6390877450526093 0.72972493619129586
v -1 -1.282348744032155 1.0905303948630889
v -1 -1.0965665694893436 1.1433072173698033
v -1.3391091494424674 -1.6054505351042923 0.35815973483089103
v -1.2625269972347468 -1.5907380322356732 0.18147038712046659
v -1.2507601554406054 -1.6470132204279422 0.35784124005355478
v -1.0567604054103124 -1.4309494146115764 -0.098690129693979889
v -1.1659604277454032 -1.53105661011428 0.0252223955097301
v -1.0575697256955536 -1.6913818384165964 0.35685022710158609
v -1.1670738512237153 -1.6237045669318575 0.17966883008868556
v -1.1540819192313048 -1.6764748181817073 0.35704526622046828
v -1.2108812153652624 -1.6413709226338509 0.26514207453865418
v -0.66089085055753249 -1.6054505351042923 0.35815973483089103
v -0.73747300276525318 -1.5907380322356732 0.18147038712046659
v -0.74923984455939474 -1.6470132204279422 0.35784124005355478
v -0.94323959458968754 -1.4309494146115764 -0.098690129693979889
v -0.83403957225459679 -1.53105661011428 0.0252223955097301
v -1 -1.4920349213414412 -0.047897214473551331
v -0.94243027430444637 -1.6913818384165964 0.35685022710158609
v -0.83292614877628479 -1.6237045669318575 0.17966883008868556
v -0.84591808076869535 -1.6764748181817073 0.35704526622046828
v -1 -1.6747028844273357 0.26351670920580283
v -0.78911878463473761 -1.6413709226338509 0.26514207453865418
v -1.1095041255281617 -1.5881245197289973 0.086519057190271642
v -0.89049587447183842 -1.5881245197289973 0.086519057190271642
v -1.0567992961339576 -1.5461430594970886 0.015832292170587126
v -1.0576265060223722 -1.6390877450526093 0.17027506380870422
v -0.94320070386604227 -1.5461430594970886 0.015832292170587126
v -0.94237349397762793 -1.6390877450526093 0.17027506380870422
v -1 -1.282348744032155 -0.19053039486308881
v -1 -1.0965665694893436 -0.24330721736980326
v -1 -0.90343343051065639 -0.24330721736980326
v -0.56905058538842357 -1.5486901296939799 0.39323959458968755
v -0.60012383860500396 -1.5548544604814971 0.30088399404560917
v -0.68220665018231719 -1.5305547940334434 0.12209910439313199
v -0.50502525316941682 -1.4210506685052819 0.18977637587787088
v -0.63871486596425731 -1.5484161888543193 0.20769288964770558
v -0.54681167428244315 -1.4916168927203617 0.24279678519556194
v -0.90815973483089096 -1.3391091494424674 -0.15545053510429235
v -0.73147038712046653 -1.2625269972347468 -0.14073803223567299
v -0.85088399404560922 -1.3998761613949959 -0.10485446048149688
v -0.90784124005355471 -1.2507601554406054 -0.19701322042794217
v -0.73977637587787082 -1.4949747468305832 0.028949331494718011
v -0.67209910439313192 -1.3177933498176828 -0.080554794033443511
v -0.79279678519556196 -1.4531883257175569 -0.041616892720361454
v -0.64063719113868645 -1.4526044542584122 0.055022051763959967
v -0.75769288964770554 -1.3612851340357428 -0.098416188854319187
v -0.90685022710158603 -1.0575697256955536 -0.24138183841659638
v -0.72966883008868555 -1.1670738512237153 -0.17370456693185748
v -0.90704526622046833 -1.1540819192313048 -0.22647481818170728
v -0.81514207453865406 -1.2108812153652624 -0.19137092263385097
v -0.54739554574158789 -1.39497794823604 0.090637191138686513
v -0.60502205176395996 -1.3593628088613134 -0.0026044542584121033
v -0.56905058538842357 -1.5486901296939799 0.50676040541031253
v -0.60012383860500396 -1.5548544604814971 0.59911600595439085
v -0.50796507865855878 -1.4978972144735514 0.45000000000000001
v -0.68220665018231719 -1.5305547940334434 0.77790089560686804
v -0.63871486596425731 -1.5484161888543193 0.69230711035229442
v -0.54681167428244315 -1.4916168927203617 0.65720321480443811
v -0.90815973483089096 -1.3391091494424674 1.0554505351042924
v -0.73147038712046653 -1.2625269972347468 1.040738032235673
v -0.85088399404560922 -1.3998761613949959 1.0048544604814968
v -0.90784124005355471 -1.2507601554406054 1.0970132204279421
v -0.73977637587787082 -1.4949747468305832 0.87105066850528201
v -0.67209910439313192 -1.3177933498176828 0.98055479403344359
v -0.79279678519556196 -1.4531883257175569 0.94161689272036142
v -0.64063719113868645 -1.4526044542584122 0.84497794823604
v -0.75769288964770554 -1.3612851340357428 0.99841618885431926
v -0.90685022710158603 -1.0575697256955536 1.1413818384165964
v -0.90704526622046833 -1.1540819192313048 1.1264748181817072
v -0.81514207453865406 -1.2108812153652624 1.091370922633851
v -0.54739554574158789 -1.39497794823604 0.80936280886131351
v -0.60502205176395996 -1.3593628088613134 0.90260445425841218
v -1.53105661011428 -0.57522239550973009 0.28403957225459686
v -1.6054505351042923 -0.90815973483089096 0.11089085055753251
v -1.590738032235673 -0.73147038712046653 0.18747300276525325
v -1.4949747468305832 -0.57894933149471806 0.18977637587787088
v -1.4531883257175569 -0.50838310727963842 0.24279678519556194
v -1.4309494146115764 -1.5486901296939799 0.39323959458968755
v -1.53105661011428 -1.42477760449027 0.28403957225459686
v -1.3998761613949959 -1.5548544604814971 0.30088399404560917
v -1.6054505351042923 -1.091840265169109 0.11089085055753251
v -1.590738032235673 -1.2685296128795334 0.18747300276525325
v -1.3177933498176828 -1.5305547940334434 0.12209910439313199
v -1.4949747468305832 -1.4210506685052819 0.18977637587787088
v -1.3612851340357426 -1.5484161888543193 0.20769288964770558
v -1.4531883257175569 -1.4916168927203617 0.24279678519556194
v -1.091840265169109 -1.3391091494424674 -0.15545053510429235
v -1.2685296128795334 -1.2625269972347468 -0.14073803223567299
v -1.1491160059543908 -1.3998761613949959 -0.10485446048149688
v -1.0921587599464453 -1.2507601554406054 -0.19701322042794217
v -1.5486901296939799 -1.0567604054103126 0.019050585388423635
v -1.42477760449027 -1.1659604277454032 -0.081056610114280059
v -1.5548544604814971 -1.1491160059543908 0.050123838605003967
v -1.2602236241221292 -1.4949747468305832 0.028949331494718011
v -1.3279008956068681 -1.3177933498176828 -0.080554794033443511
v -1.207203214804438 -1.4531883257175569 -0.041616892720361454
v -1.3593628088613134 -1.4526044542584122 0.055022051763959967
v -1.2423071103522945 -1.3612851340357428 -0.098416188854319187
v -1.0931497728984139 -1.0575697256955536 -0.24138183841659638
v -1.2703311699113145 -1.1670738512237153 -0.17370456693185748
v -1.0929547337795318 -1.1540819192313048 -0.22647481818170728
v -1.1848579254613458 -1.2108812153652624 -0.19137092263385097
v -1.5305547940334434 -1.3279008956068681 0.13220665018231725
v -1.4210506685052819 -1.2602236241221292 -0.044974746830583168
v -1.5484161888543193 -1.2423071103522945 0.088714865964257261
v -1.4526044542584122 -1.39497794823604 0.090637191138686513
v -1.4916168927203615 -1.207203214804438 -0.0031883257175567281
v -1.39497794823604 -1.3593628088613134 -0.0026044542584121033
v -1.2685296128795334 -0.73747300276525318 -0.14073803223567299
v -1.5486901296939799 -0.94323959458968754 0.019050585388423635
v -1.42477760449027 -0.83403957225459679 -0.081056610114280059
v -1.5548544604814971 -0.85088399404560922 0.050123838605003967
v -1.4978972144735514 -1 -0.042034921341441212
v -1.3279008956068681 -0.68220665018231719 -0.080554794033443511
v -1.3593628088613134 -0.54739554574158789 0.055022051763959967
v -1.0931497728984139 -0.94243027430444637 -0.24138183841659638
v -1.2703311699113145 -0.83292614877628479 -0.17370456693185748
v -1.0929547337795318 -0.84591808076869535 -0.22647481818170728
v -1.1864832907941971 -1 -0.22470288442733571
v -1.1848579254613458 -0.7891187846347375 -0.19137092263385097
v -1.5305547940334434 -0.67209910439313192 0.13220665018231725
v -1.4210506685052819 -0.73977637587787082 -0.044974746830583168
v -1.5484161888543193 -0.75769288964770554 0.088714865964257261
v -1.4526044542584122 -0.60502205176395996 0.090637191138686513
v -1.4916168927203615 -0.79279678519556196 -0.0031883257175567281
v -1.39497794823604 -0.64063719113868656 -0.0026044542584121033
v -1.3634809428097285 -1.1095041255281617 -0.13812451972899714
v -1.3634809428097285 -0.89049587447183842 -0.13812451972899714
v -1.4341677078294128 -1.0567992961339578 -0.096143059497088623
v -1.2797249361912959 -1.0576265060223722 -0.18908774505260934
v -1.4341677078294128 -0.94320070386604227 -0.096143059497088623
v -1.2797249361912959 -0.94237349397762793 -0.18908774505260934
v -1.53105661011428 -0.57522239550973009 0.61596042774540316
v -1.4920349213414412 -0.5021027855264486 0.45000000000000001
v -1.6054505351042923 -0.90815973483089096 0.78910914944246757
v -1.590738032235673 -0.73147038712046653 0.71252699723474677
v -1.4949747468305832 -0.57894933149471806 0.71022362412212914
v -1.4531883257175569 -0.50838310727963842 0.65720321480443811
v -1.5881245197289973 -0.63651905719027146 0.34049587447183838
v -1.5881245197289973 -0.63651905719027146 0.55950412552816164
v -1.5461430594970886 -0.56583229217058717 0.39320070386604228
v -1.5461430594970886 -0.56583229217058717 0.5067992961339578
v -1.4309494146115764 -1.5486901296939799 0.50676040541031253
v -1.53105661011428 -1.42477760449027 0.61596042774540316
v -1.3998761613949959 -1.5548544604814971 0.59911600595439085
v -1.4920349213414412 -1.4978972144735514 0.45000000000000001
v -1.6054505351042923 -1.091840265169109 0.78910914944246757
v -1.590738032235673 -1.2685296128795334 0.71252699723474677
v -1.3177933498176828 -1.5305547940334434 0.77790089560686804
v -1.4949747468305832 -1.4210506685052819 0.71022362412212914
v -1.3612851340357426 -1.5484161888543193 0.69230711035229442
v -1.4531883257175569 -1.4916168927203617 0.65720321480443811
v -1.5881245197289973 -1.3634809428097285 0.34049587447183838
v -1.5881245197289973 -1.3634809428097285 0.55950412552816164
v -1.5461430594970886 -1.4341677078294128 0.39320070386604228
v -1.5461430594970886 -1.4341677078294128 0.5067992961339578
v -1.091840265169109 -1.3391091494424674 1.0554505351042924
v -1.2685296128795334 -1.2625269972347468 1.040738032235673
v -1.1491160059543908 -1.3998761613949959 1.0048544604814968
v -1.0921587599464453 -1.2507601554406054 1.0970132204279421
v -1.5486901296939799 -1.0567604054103126 0.88094941461157639
v -1.42477760449027 -1.1659604277454032 0.98105661011428014
v -1.5548544604814971 -1.1491160059543908 0.84987616139499611
v -1.2602236241221292 -1.4949747468305832 0.87105066850528201
v -1.3279008956068681 -1.3177933498176828 0.98055479403344359
v -1.207203214804438 -1.4531883257175569 0.94161689272036142
v -1.3593628088613134 -1.4526044542584122 0.84497794823604
v -1.2423071103522945 -1.3612851340357428 0.99841618885431926
v -1.0931497728984139 -1.0575697256955536 1.1413818384165964
v -1.2703311699113145 -1.1670738512237153 1.0737045669318575
v -1.0929547337795318 -1.1540819192313048 1.1264748181817072
v -1.1848579254613458 -1.2108812153652624 1.091370922633851
v -1.5305547940334434 -1.3279008956068681 0.76779334981768277
v -1.4210506685052819 -1.2602236241221292 0.94497474683058313
v -1.5484161888543193 -1.2423071103522945 0.81128513403574276
v -1.4526044542584122 -1.39497794823604 0.80936280886131351
v -1.4916168927203615 -1.207203214804438 0.90318832571755681
v -1.39497794823604 -1.3593628088613134 0.90260445425841218
v -1.2685296128795334 -0.73747300276525318 1.040738032235673
v -1.5486901296939799 -0.94323959458968754 0.88094941461157639
v -1.42477760449027 -0.83403957225459679 0.98105661011428014
v -1.5548544604814971 -0.85088399404560922 0.84987616139499611
v -1.4978972144735514 -1 0.94203492134144118
v -1.3279008956068681 -0.68220665018231719 0.98055479403344359
v -1.0931497728984139 -0.94243027430444637 1.1413818384165964
v -1.2703311699113145 -0.83292614877628479 1.0737045669318575
v -1.1864832907941971 -1 1.1247028844273357
v -1.1848579254613458 -0.7891187846347375 1.091370922633851
v -1.5305547940334434 -0.67209910439313192 0.76779334981768277
v -1.4210506685052819 -0.73977637587787082 0.94497474683058313
v -1.5484161888543193 -0.75769288964770554 0.81128513403574276
v -1.4526044542584122 -0.60502205176395996 0.80936280886131351
v -1.4916168927203615 -0.79279678519556196 0.90318832571755681
v -1.39497794823604 -0.64063719113868656 0.90260445425841218
v -1.3634809428097285 -1.1095041255281617 1.0381245197289972
v -1.3634809428097285 -0.89049587447183842 1.0381245197289972
v -1.4341677078294128 -1.0567992961339578 0.99614305949708859
v -1.2797249361912959 -1.0576265060223722 1.0890877450526093
v -1.4341677078294128 -0.94320070386604227 0.99614305949708859
v -1.2797249361912959 -0.94237349397762793 1.0890877450526093
v -1.6405303948630889 -1 0.16765125596784497
v -1.6933072173698034 -1 0.3534334305106564
v -1.6470132204279422 -0.90784124005355471 0.19923984455939475
v -1.6470132204279422 -1.0921587599464453 0.19923984455939475
v -1.6405303948630889 -1 0.732348744032155
v -1.6933072173698034 -1 0.54656656948934357
v -1.6470132204279422 -0.90784124005355471 0.70076015544060533
v -1.6470132204279422 -1.0921587599464453 0.70076015544060533
v -1.6237045669318575 -0.72966883008868555 0.28292614877628475
v -1.6913818384165964 -0.90685022710158603 0.39243027430444638
v -1.6413709226338509 -0.81514207453865406 0.23911878463473754
v -1.6390877450526093 -0.72027506380870421 0.39237349397762789
v -1.6764748181817073 -0.90704526622046833 0.2959180807686953
v -1.6237045669318575 -1.2703311699113145 0.28292614877628475
v -1.6913818384165964 -1.0931497728984139 0.39243027430444638
v -1.6413709226338509 -1.1848579254613458 0.23911878463473754
v -1.6390877450526093 -1.2797249361912959 0.39237349397762789
v -1.6764748181817073 -1.0929547337795318 0.2959180807686953
v -1.6237045669318575 -0.72966883008868555 0.61707385122371528
v -1.6913818384165964 -0.90685022710158603 0.50756972569555359
v -1.6413709226338509 -0.81514207453865406 0.66088121536526245
v -1.6390877450526093 -0.72027506380870421 0.50762650602237214
v -1.6764748181817073 -0.90704526622046833 0.60408191923130472
v -1.6747028844273357 -0.81351670920580277 0.45000000000000001
v -1.6237045669318575 -1.2703311699113145 0.61707385122371528
v -1.6913818384165964 -1.0931497728984139 0.50756972569555359
v -1.6413709226338509 -1.1848579254613458 0.66088121536526245
v -1.6390877450526093 -1.2797249361912959 0.50762650602237214
v -1.6764748181817073 -1.0929547337795318 0.60408191923130472
v -1.6747028844273357 -1.1864832907941971 0.45000000000000001
v 0.6319882215166065 1.595455565846428 0.55000000000000004
v 1.3680117784833934 1.595455565846428 0.55000000000000004
v 1 1.3680117784833934 1.145455565846428
v 1 1.3680117784833934 -0.045455565846427959
v 1.595455565846428 1 0.18198822151660654
v 1.595455565846428 1 0.91801177848339355
v 1 1.7 0.55000000000000004
v 0.78368810393753674 1.5663118960624631 0.90000000000000013
v 1.2163118960624633 1.5663118960624631 0.90000000000000013
v 1 1 1.25
v 0.78368810393753674 1.5663118960624631 0.20000000000000001
v 1.2163118960624633 1.5663118960624631 0.20000000000000001
v 1 1 -0.14999999999999991
v 1.5663118960624631 1.3500000000000001 0.33368810393753684
v 1.5663118960624631 0.64999999999999991 0.33368810393753684
v 1.3500000000000001 0.78368810393753674 -0.016311896062463083
v 1.3500000000000001 1.2163118960624633 -0.016311896062463083
v 1.5663118960624631 1.3500000000000001 0.7663118960624633
v 1.5663118960624631 0.64999999999999991 0.7663118960624633
v 1.3500000000000001 0.78368810393753674 1.1163118960624632
v 1.3500000000000001 1.2163118960624633 1.1163118960624632
v 1.7 1 0.55000000000000004
v 0.80871342976112981 1.6733568504487422 0.55000000000000004
v 1.1912865702388702 1.6733568504487422 0.55000000000000004
v 0.69627800481311364 1.6038679362913304 0.73192433910542809
v 0.88756457505198383 1.4856463342923145 1.0414325113433143
v 0.88627810631848281 1.6657395614066075 0.73400588924169674
v 1.3037219951868864 1.6038679362913304 0.73192433910542809
v 1.1124354249480162 1.4856463342923145 1.0414325113433143
v 1.1137218936815172 1.6657395614066075 0.73400588924169674
v 1 1.595455565846428 0.91801177848339366
v 1 1.1912865702388702 1.2233568504487424
v 0.69627800481311364 1.6038679362913304 0.368075660894572
v 0.88756457505198383 1.4856463342923145 0.058567488656685929
v 0.88627810631848281 1.6657395614066075 0.36599411075830329
v 1.3037219951868864 1.6038679362913304 0.368075660894572
v 1.1124354249480162 1.4856463342923145 0.058567488656685929
v 1.1137218936815172 1.6657395614066075 0.36599411075830329
v 1 1.595455565846428 0.18198822151660649
v 1 1.1912865702388702 -0.12335685044874223
v 1.4856463342923145 1.4914325113433142 0.43756457505198382
v 1.6038679362913304 1.1819243391054282 0.24627800481311368
v 1.4114496766047313 1.4817336721649106 0.25227221707678604
v 1.4856463342923145 0.50856748865668577 0.43756457505198382
v 1.6038679362913304 0.81807566089457184 0.24627800481311368
v 1.4114496766047313 0.5182663278350893 0.25227221707678604
v 1.491432511343314 0.88756457505198383 0.064353665707685692
v 1.1840058892416967 0.88627810631848281 -0.11573956140660746
v 1.4817336721649106 0.702272217076786 0.13855032339526885
v 1.1819243391054282 1.3037219951868864 -0.053867936291330243
v 1.491432511343314 1.1124354249480162 0.064353665707685692
v 1.2977277829232139 1.4114496766047311 0.068266327835089347
v 1.1840058892416967 1.1137218936815172 -0.11573956140660746
v 1.4817336721649106 1.2977277829232139 0.13855032339526885
v 1.3680117784833936 1 -0.045455565846427848
v 1.4856463342923145 1.4914325113433142 0.66243542494801622
v 1.6038679362913304 1.1819243391054282 0.85372199518688641
v 1.4114496766047313 1.4817336721649106 0.84772778292321405
v 1.5954555658464278 1.3680117784833936 0.55000000000000004
v 1.4856463342923145 0.50856748865668577 0.66243542494801622
v 1.6038679362913304 0.81807566089457184 0.85372199518688641
v 1.4114496766047313 0.5182663278350893 0.84772778292321405
v 1.5954555658464278 0.63198822151660639 0.55000000000000004
v 1.491432511343314 0.88756457505198383 1.0356463342923143
v 1.2977277829232139 0.5885503233952688 1.0317336721649109
v 1.1840058892416967 0.88627810631848281 1.2157395614066075
v 1.4817336721649106 0.702272217076786 0.96144967660473124
v 1.1819243391054282 1.3037219951868864 1.1538679362913302
v 1.491432511343314 1.1124354249480162 1.0356463342923143
v 1.2977277829232139 1.4114496766047311 1.0317336721649109
v 1.1840058892416967 1.1137218936815172 1.2157395614066075
v 1.4817336721649106 1.2977277829232139 0.96144967660473124
v 1.3680117784833936 1 1.145455565846428
v 1.6733568504487422 1 0.35871342976112985
v 1.6733568504487422 1 0.74128657023887023
v 1.6657395614066075 1.1840058892416967 0.43627810631848279
v 1.6657395614066075 0.81599411075830319 0.43627810631848279
v 1.6657395614066075 1.1840058892416967 0.66372189368151724
v 1.6657395614066075 0.81599411075830319 0.66372189368151724
v 0.51435366570768548 1.4914325113433142 0.43756457505198382
v 0.58855032339526869 1.4817336721649106 0.25227221707678604
v 0.81807566089457184 1.3037219951868864 -0.053867936291330243
v 0.702272217076786 1.4114496766047311 0.068266327835089347
v 0.51435366570768548 1.4914325113433142 0.66243542494801622
v 0.58855032339526869 1.4817336721649106 0.84772778292321405
v 0.81807566089457184 1.3037219951868864 1.1538679362913302
v 0.702272217076786 1.4114496766047311 1.0317336721649109
v 0.81599411075830319 1.1137218936815172 1.2157395614066075
v 0.71765125596784496 1.6405303948630889 0.55000000000000004
v 0.90343343051065639 1.6933072173698034 0.55000000000000004
v 1.282348744032155 1.6405303948630889 0.55000000000000004
v 1.0965665694893436 1.6933072173698034 0.55000000000000004
v 0.66089085055753249 1.6054505351042923 0.64184026516910908
v 0.73747300276525318 1.5907380322356732 0.81852961287953341
v 0.74923984455939474 1.6470132204279422 0.64215875994644522
v 0.94323959458968754 1.4309494146115764 1.0986901296939799
v 0.83403957225459679 1.53105661011428 0.97477760449026996
v 0.94243027430444637 1.6913818384165964 0.64314977289841391
v 0.83292614877628479 1.6237045669318575 0.8203311699113145
v 0.84591808076869535 1.6764748181817073 0.64295473377953172
v 0.78911878463473761 1.6413709226338509 0.73485792546134587
v 1.3391091494424674 1.6054505351042923 0.64184026516910908
v 1.2625269972347468 1.5907380322356732 0.81852961287953341
v 1.2507601554406054 1.6470132204279422 0.64215875994644522
v 1.0567604054103124 1.4309494146115764 1.0986901296939799
v 1.1659604277454032 1.53105661011428 0.97477760449026996
v 1 1.4920349213414412 1.0478972144735514
v 1.0575697256955536 1.6913818384165964 0.64314977289841391
v 1.1670738512237153 1.6237045669318575 0.8203311699113145
v 1.1540819192313048 1.6764748181817073 0.64295473377953172
v 1 1.6747028844273357 0.73648329079419717
v 1.2108812153652624 1.6413709226338509 0.73485792546134587
v 0.89049587447183842 1.5881245197289973 0.91348094280972836
v 1.1095041255281617 1.5881245197289973 0.91348094280972836
v 0.94320070386604227 1.5461430594970886 0.98416770782941287
v 0.94237349397762793 1.6390877450526093 0.82972493619129584
v 1.0567992961339576 1.5461430594970886 0.98416770782941287
v 1.0576265060223722 1.6390877450526093 0.82972493619129584
v 1 0.90343343051065639 1.2433072173698032
v 1 1.282348744032155 1.1905303948630888
v 1 1.0965665694893436 1.2433072173698032
v 0.66089085055753249 1.6054505351042923 0.45815973483089106
v 0.73747300276525318 1.5907380322356732 0.28147038712046663
v 0.74923984455939474 1.6470132204279422 0.45784124005355487
v 0.94323959458968754 1.4309494146115764 0.0013098703060201444
v 0.83403957225459679 1.53105661011428 0.12522239550973013
v 0.94243027430444637 1.6913818384165964 0.45685022710158613
v 0.83292614877628479 1.6237045669318575 0.27966883008868559
v 0.84591808076869535 1.6764748181817073 0.45704526622046837
v 0.78911878463473761 1.6413709226338509 0.36514207453865422
v 1.3391091494424674 1.6054505351042923 0.45815973483089106
v 1.2625269972347468 1.5907380322356732 0.28147038712046663
v 1.2507601554406054 1.6470132204279422 0.45784124005355487
v 1.0567604054103124 1.4309494146115764 0.0013098703060201444
v 1.1659604277454032 1.53105661011428 0.12522239550973013
v 1 1.4920349213414412 0.052102785526448703
v 1.0575697256955536 1.6913818384165964 0.45685022710158613
v 1.1670738512237153 1.6237045669318575 0.27966883008868559
v 1.1540819192313048 1.6764748181817073 0.45704526622046837
v 1 1.6747028844273357 0.36351670920580292
v 1.2108812153652624 1.6413709226338509 0.36514207453865422
v 0.89049587447183842 1.5881245197289973 0.18651905719027168
v 1.1095041255281617 1.5881245197289973 0.18651905719027168
v 0.94320070386604227 1.5461430594970886 0.11583229217058716
v 0.94237349397762793 1.6390877450526093 0.27027506380870425
v 1.0567992961339576 1.5461430594970886 0.11583229217058716
v 1.0576265060223722 1.6390877450526093 0.27027506380870425
v 1 1.282348744032155 -0.090530394863088781
v 1 1.0965665694893436 -0.14330721736980323
v 1.4309494146115764 1.5486901296939799 0.49323959458968758
v 1.53105661011428 1.42477760449027 0.38403957225459684
v 1.3998761613949959 1.5548544604814971 0.40088399404560926
v 1.6054505351042923 1.091840265169109 0.21089085055753254
v 1.590738032235673 1.2685296128795334 0.28747300276525328
v 1.3177933498176828 1.5305547940334434 0.22209910439313202
v 1.4949747468305832 1.4210506685052819 0.28977637587787092
v 1.3612851340357426 1.5484161888543193 0.30769288964770558
v 1.4531883257175569 1.4916168927203617 0.342796785195562
v 1.53105661011428 0.57522239550973009 0.38403957225459684
v 1.6054505351042923 0.90815973483089096 0.21089085055753254
v 1.590738032235673 0.73147038712046653 0.28747300276525328
v 1.4949747468305832 0.57894933149471806 0.28977637587787092
v 1.4531883257175569 0.50838310727963842 0.342796785195562
v 1.2685296128795334 0.73747300276525318 -0.040738032235672961
v 1.5486901296939799 0.94323959458968754 0.11905058538842367
v 1.42477760449027 0.83403957225459679 0.018943389885719975
v 1.5548544604814971 0.85088399404560922 0.150123838605004
v 1.3279008956068681 0.68220665018231719 0.019445205966556522
v 1.0931497728984139 0.94243027430444637 -0.14138183841659635
v 1.2703311699113145 0.83292614877628479 -0.073704566931857451
v 1.1848579254613458 0.7891187846347375 -0.091370922633850937
v 1.5305547940334434 0.67209910439313192 0.23220665018231729
v 1.4210506685052819 0.73977637587787082 0.055025253169416866
v 1.5484161888543193 0.75769288964770554 0.18871486596425729
v 1.4526044542584122 0.60502205176395996 0.19063719113868655
v 1.4916168927203615 0.79279678519556196 0.096811674282443305
v 1.39497794823604 0.64063719113868656 0.09739554574158793
v 1.091840265169109 1.3391091494424674 -0.05545053510429232
v 1.2685296128795334 1.2625269972347468 -0.040738032235672961
v 1.1491160059543908 1.3998761613949959 -0.0048544604814968473
v 1.0921587599464453 1.2507601554406054 -0.097013220427942137
v 1.5486901296939799 1.0567604054103126 0.11905058538842367
v 1.42477760449027 1.1659604277454032 0.018943389885719975
v 1.5548544604814971 1.1491160059543908 0.150123838605004
v 1.4978972144735514 1 0.057965078658558822
v 1.2602236241221292 1.4949747468305832 0.12894933149471804
v 1.3279008956068681 1.3177933498176828 0.019445205966556522
v 1.207203214804438 1.4531883257175569 0.05838310727963858
v 1.3593628088613134 1.4526044542584122 0.15502205176396
v 1.2423071103522945 1.3612851340357428 0.0015838111456808468
v 1.0931497728984139 1.0575697256955536 -0.14138183841659635
v 1.2703311699113145 1.1670738512237153 -0.073704566931857451
v 1.0929547337795318 1.1540819192313048 -0.12647481818170725
v 1.1864832907941971 1 -0.12470288442733568
v 1.1848579254613458 1.2108812153652624 -0.091370922633850937
v 1.5305547940334434 1.3279008956068681 0.23220665018231729
v 1.4210506685052819 1.2602236241221292 0.055025253169416866
v 1.5484161888543193 1.2423071103522945 0.18871486596425729
v 1.4526044542584122 1.39497794823604 0.19063719113868655
v 1.4916168927203615 1.207203214804438 0.096811674282443305
v 1.39497794823604 1.3593628088613134 0.09739554574158793
v 1.3634809428097285 0.89049587447183842 -0.038124519728997108
v 1.3634809428097285 1.1095041255281617 -0.038124519728997108
v 1.4341677078294128 0.94320070386604227 0.0038569405029114101
v 1.2797249361912959 0.94237349397762793 -0.089087745052609302
v 1.4341677078294128 1.0567992961339578 0.0038569405029114101
v 1.2797249361912959 1.0576265060223722 -0.089087745052609302
v 1.4309494146115764 1.5486901296939799 0.60676040541031251
v 1.53105661011428 1.42477760449027 0.71596042774540325
v 1.3998761613949959 1.5548544604814971 0.69911600595439083
v 1.4920349213414412 1.4978972144735514 0.55000000000000004
v 1.6054505351042923 1.091840265169109 0.88910914944246755
v 1.590738032235673 1.2685296128795334 0.81252699723474686
v 1.3177933498176828 1.5305547940334434 0.87790089560686813
v 1.4949747468305832 1.4210506685052819 0.81022362412212923
v 1.3612851340357426 1.5484161888543193 0.79230711035229451
v 1.4531883257175569 1.4916168927203617 0.75720321480443809
v 1.5881245197289973 1.3634809428097285 0.44049587447183847
v 1.5881245197289973 1.3634809428097285 0.65950412552816162
v 1.5461430594970886 1.4341677078294128 0.49320070386604231
v 1.5461430594970886 1.4341677078294128 0.60679929613395778
v 1.53105661011428 0.57522239550973009 0.71596042774540325
v 1.4920349213414412 0.5021027855264486 0.55000000000000004
v 1.6054505351042923 0.90815973483089096 0.88910914944246755
v 1.590738032235673 0.73147038712046653 0.81252699723474686
v 1.4949747468305832 0.57894933149471806 0.81022362412212923
v 1.4531883257175569 0.50838310727963842 0.75720321480443809
v 1.5881245197289973 0.63651905719027146 0.44049587447183847
v 1.5881245197289973 0.63651905719027146 0.65950412552816162
v 1.5461430594970886 0.56583229217058717 0.49320070386604231
v 1.5461430594970886 0.56583229217058717 0.60679929613395778
v 1.2685296128795334 0.73747300276525318 1.140738032235673
v 1.5486901296939799 0.94323959458968754 0.98094941461157648
v 1.42477760449027 0.83403957225459679 1.0810566101142802
v 1.5548544604814971 0.85088399404560922 0.94987616139499609
v 1.3279008956068681 0.68220665018231719 1.0805547940334437
v 1.3593628088613134 0.54739554574158789 0.94497794823604009
v 1.0931497728984139 0.94243027430444637 1.2413818384165964
v 1.2703311699113145 0.83292614877628479 1.1737045669318575
v 1.0929547337795318 0.84591808076869535 1.2264748181817073
v 1.1848579254613458 0.7891187846347375 1.1913709226338511
v 1.5305547940334434 0.67209910439313192 0.86779334981768286
v 1.4210506685052819 0.73977637587787082 1.0449747468305832
v 1.5484161888543193 0.75769288964770554 0.91128513403574285
v 1.4526044542584122 0.60502205176395996 0.90936280886131349
v 1.4916168927203615 0.79279678519556196 1.0031883257175567
v 1.39497794823604 0.64063719113868656 1.002604454258412
v 1.091840265169109 1.3391091494424674 1.1554505351042925
v 1.2685296128795334 1.2625269972347468 1.140738032235673
v 1.1491160059543908 1.3998761613949959 1.1048544604814969
v 1.0921587599464453 1.2507601554406054 1.1970132204279422
v 1.5486901296939799 1.0567604054103126 0.98094941461157648
v 1.42477760449027 1.1659604277454032 1.0810566101142802
v 1.5548544604814971 1.1491160059543908 0.94987616139499609
v 1.4978972144735514 1 1.0420349213414413
v 1.2602236241221292 1.4949747468305832 0.97105066850528199
v 1.3279008956068681 1.3177933498176828 1.0805547940334437
v 1.207203214804438 1.4531883257175569 1.0416168927203615
v 1.3593628088613134 1.4526044542584122 0.94497794823604009
v 1.2423071103522945 1.3612851340357428 1.0984161888543191
v 1.0931497728984139 1.0575697256955536 1.2413818384165964
v 1.2703311699113145 1.1670738512237153 1.1737045669318575
v 1.0929547337795318 1.1540819192313048 1.2264748181817073
v 1.1864832907941971 1 1.2247028844273358
v 1.1848579254613458 1.2108812153652624 1.1913709226338511
v 1.5305547940334434 1.3279008956068681 0.86779334981768286
v 1.4210506685052819 1.2602236241221292 1.0449747468305832
v 1.5484161888543193 1.2423071103522945 0.91128513403574285
v 1.4526044542584122 1.39497794823604 0.90936280886131349
v 1.4916168927203615 1.207203214804438 1.0031883257175567
v 1.39497794823604 1.3593628088613134 1.002604454258412
v 1.3634809428097285 0.89049587447183842 1.1381245197289971
v 1.3634809428097285 1.1095041255281617 1.1381245197289971
v 1.4341677078294128 0.94320070386604227 1.0961430594970887
v 1.2797249361912959 0.94237349397762793 1.1890877450526094
v 1.4341677078294128 1.0567992961339578 1.0961430594970887
v 1.2797249361912959 1.0576265060223722 1.1890877450526094
v 1.6405303948630889 1 0.267651255967845
v 1.6933072173698034 1 0.45343343051065643
v 1.6470132204279422 1.0921587599464453 0.29923984455939479
v 1.6470132204279422 0.90784124005355471 0.29923984455939479
v 1.6405303948630889 1 0.83234874403215509
v 1.6933072173698034 1 0.64656656948934366
v 1.6470132204279422 1.0921587599464453 0.8007601554406053
v 1.6470132204279422 0.90784124005355471 0.8007601554406053
v 1.6237045669318575 1.2703311699113145 0.38292614877628484
v 1.6913818384165964 1.0931497728984139 0.49243027430444641
v 1.6413709226338509 1.1848579254613458 0.33911878463473755
v 1.6390877450526093 1.2797249361912959 0.49237349397762792
v 1.6764748181817073 1.0929547337795318 0.39591808076869539
v 1.6237045669318575 0.72966883008868555 0.38292614877628484
v 1.6913818384165964 0.90685022710158603 0.49243027430444641
v 1.6413709226338509 0.81514207453865406 0.33911878463473755
v 1.6390877450526093 0.72027506380870421 0.49237349397762792
v 1.6764748181817073 0.90704526622046833 0.39591808076869539
v 1.6237045669318575 1.2703311699113145 0.71707385122371525
v 1.6913818384165964 1.0931497728984139 0.60756972569555368
v 1.6413709226338509 1.1848579254613458 0.76088121536526254
v 1.6390877450526093 1.2797249361912959 0.60762650602237211
v 1.6764748181817073 1.0929547337795318 0.7040819192313047
v 1.6747028844273357 1.1864832907941971 0.55000000000000004
v 1.6237045669318575 0.72966883008868555 0.71707385122371525
v 1.6913818384165964 0.90685022710158603 0.60756972569555368
v 1.6413709226338509 0.81514207453865406 0.76088121536526254
v 1.6390877450526093 0.72027506380870421 0.60762650602237211
v 1.6764748181817073 0.90704526622046833 0.7040819192313047
v 1.6747028844273357 0.81351670920580277 0.55000000000000004
v 0.56905058538842357 1.5486901296939799 0.49323959458968758
v 0.60012383860500396 1.5548544604814971 0.40088399404560926
v 0.68220665018231719 1.5305547940334434 0.22209910439313202
v 0.63871486596425731 1.5484161888543193 0.30769288964770558
v 0.54681167428244315 1.4916168927203617 0.342796785195562
v 0.90815973483089096 1.3391091494424674 -0.05545053510429232
v 0.73147038712046653 1.2625269972347468 -0.040738032235672961
v 0.85088399404560922 1.3998761613949959 -0.0048544604814968473
v 0.90784124005355471 1.2507601554406054 -0.097013220427942137
v 0.73977637587787082 1.4949747468305832 0.12894933149471804
v 0.67209910439313192 1.3177933498176828 0.019445205966556522
v 0.79279678519556196 1.4531883257175569 0.05838310727963858
v 0.64063719113868645 1.4526044542584122 0.15502205176396
v 0.75769288964770554 1.3612851340357428 0.0015838111456808468
v 0.90685022710158603 1.0575697256955536 -0.14138183841659635
v 0.90704526622046833 1.1540819192313048 -0.12647481818170725
v 0.81514207453865406 1.2108812153652624 -0.091370922633850937
v 0.54739554574158789 1.39497794823604 0.19063719113868655
v 0.60502205176395996 1.3593628088613134 0.09739554574158793
v 0.56905058538842357 1.5486901296939799 0.60676040541031251
v 0.60012383860500396 1.5548544604814971 0.69911600595439083
v 0.50796507865855878 1.4978972144735514 0.55000000000000004
v 0.68220665018231719 1.5305547940334434 0.87790089560686813
v 0.50502525316941682 1.4210506685052819 0.81022362412212923
v 0.63871486596425731 1.5484161888543193 0.79230711035229451
v 0.54681167428244315 1.4916168927203617 0.75720321480443809
v 0.90815973483089096 1.3391091494424674 1.1554505351042925
v 0.73147038712046653 1.2625269972347468 1.140738032235673
v 0.85088399404560922 1.3998761613949959 1.1048544604814969
v 0.90784124005355471 1.2507601554406054 1.1970132204279422
v 0.73977637587787082 1.4949747468305832 0.97105066850528199
v 0.67209910439313192 1.3177933498176828 1.0805547940334437
v 0.79279678519556196 1.4531883257175569 1.0416168927203615
v 0.64063719113868645 1.4526044542584122 0.94497794823604009
v 0.75769288964770554 1.3612851340357428 1.0984161888543191
v 0.90685022710158603 1.0575697256955536 1.2413818384165964
v 0.72966883008868555 1.1670738512237153 1.1737045669318575
v 0.90704526622046833 1.1540819192313048 1.2264748181817073
v 0.81514207453865406 1.2108812153652624 1.1913709226338511
v 0.54739554574158789 1.39497794823604 0.90936280886131349
v 0.60502205176395996 1.3593628088613134 1.002604454258412
f 251 255 256
f 120 287 289
f 286 276 283
f 276 20 283
f 25 263 93
f 286 283 76
f 76 283 296
f 320 333 22
f 333 320 336
f 33 122 129
f 129 122 127
f 271 15 197
f 307 310 255
f 87 338 341
f 342 338 87
f 308 311 299
f 414 588 589
f 225 210 222
f 222 60 225
f 222 213 226
f 224 60 226
f 226 60 222
f 147 40 159
f 159 40 167
f 146 139 144
f 287 120 10
f 303 287 10
f 1 196 121
f 27 116 99
f 23 128 90
f 90 100 23
f 266 293 71
f 95 25 93
f 95 23 100
f 263 25 269
f 269 267 72
f 269 94 267
f 25 94 269
f 72 270 269
f 269 270 263
f 285 76 296
f 296 294 285
f 72 267 285
f 285 294 72
f 343 19 266
f 7 90 126
f 90 128 126
f 35 128 129
f 144 139 35
f 129 127 35
f 35 127 144
f 35 126 128
f 139 126 35
f 121 196 198
f 198 33 121
f 223 54 211
f 211 225 223
f 223 225 60
f 334 336 322
f 322 54 334
f 335 271 73
f 255 251 18
f 18 307 255
f 317 314 299
f 312 310 81
f 309 311 81
f 81 307 309
f 310 307 81
f 81 308 312
f 311 308 81
f 433 695 689
f 66 251 256
f 340 87 337
f 342 87 340
f 339 87 341
f 337 87 339
f 312 308 302
f 299 314 21
f 21 308 299
f 21 302 308
f 297 302 21
f 304 314 318
f 297 21 304
f 304 21 314
f 304 80 306
f 318 80 304
f 288 20 276
f 305 287 303
f 318 316 305
f 303 80 305
f 305 80 318
f 590 574 367
f 370 631 651
f 602 560 405
f 646 561 405
f 689 695 696
f 451 562 564
f 588 414 586
f 358 467 586
f 586 609 358
f 26 107 96
f 31 116 118
f 99 116 113
f 116 31 113
f 282 285 267
f 76 285 282
f 187 120 32
f 32 120 289
f 278 32 289
f 119 32 278
f 161 164 157
f 523 525 397
f 397 520 523
f 642 639 425
f 118 109 114
f 109 9 114
f 117 31 114
f 114 31 118
f 7 126 136
f 136 126 139
f 118 116 111
f 116 27 111
f 163 170 169
f 163 152 160
f 169 42 163
f 163 42 152
f 41 151 155
f 135 145 143
f 143 34 135
f 135 34 124
f 16 213 222
f 222 210 16
f 16 206 213
f 218 206 16
f 218 16 245
f 245 16 210
f 666 669 662
f 219 59 217
f 167 165 45
f 645 631 370
f 160 152 12
f 12 134 160
f 137 146 142
f 142 12 137
f 134 12 142
f 145 134 142
f 38 146 137
f 139 146 38
f 38 136 139
f 138 136 38
f 143 145 39
f 39 146 144
f 145 142 39
f 39 142 146
f 89 1 121
f 23 95 89
f 93 1 89
f 89 95 93
f 296 283 292
f 292 283 20
f 293 295 281
f 265 71 281
f 281 71 293
f 281 295 75
f 326 71 265
f 266 19 291
f 291 293 266
f 78 295 293
f 78 294 296
f 296 292 78
f 78 292 295
f 293 291 78
f 78 291 294
f 72 294 268
f 268 270 72
f 268 291 19
f 294 291 268
f 263 270 70
f 100 27 101
f 101 95 100
f 101 27 99
f 25 95 101
f 99 94 101
f 101 94 25
f 342 85 328
f 328 338 342
f 328 320 22
f 22 338 328
f 320 328 331
f 331 328 85
f 344 348 88
f 22 333 344
f 333 348 344
f 266 71 345
f 345 343 266
f 71 326 345
f 88 343 345
f 224 55 202
f 197 15 202
f 53 198 196
f 54 223 200
f 200 334 54
f 335 348 86
f 336 334 86
f 333 336 86
f 86 348 333
f 335 73 346
f 346 348 335
f 88 348 346
f 346 343 88
f 307 18 254
f 309 307 254
f 254 67 309
f 254 18 337
f 337 339 254
f 254 339 67
f 309 67 300
f 67 253 300
f 300 311 309
f 253 298 300
f 255 310 68
f 356 461 447
f 260 66 252
f 251 66 260
f 680 373 676
f 316 288 77
f 77 305 316
f 289 287 77
f 287 305 77
f 20 288 313
f 313 288 316
f 82 316 318
f 317 315 82
f 318 314 82
f 314 317 82
f 82 313 316
f 315 313 82
f 354 581 572
f 368 580 584
f 582 594 412
f 581 603 412
f 591 594 582
f 582 368 591
f 591 368 584
f 572 581 583
f 583 594 592
f 581 412 583
f 583 412 594
f 367 577 650
f 574 590 593
f 593 410 574
f 370 651 640
f 631 423 654
f 654 651 631
f 423 633 654
f 654 633 652
f 366 561 644
f 561 646 644
f 689 696 435
f 416 613 597
f 610 613 419
f 369 597 610
f 610 597 613
f 611 609 419
f 419 613 611
f 406 563 565
f 565 564 406
f 406 564 562
f 463 465 379
f 379 461 463
f 377 465 455
f 455 465 463
f 463 374 455
f 455 374 444
f 186 120 187
f 115 107 26
f 115 113 31
f 117 107 115
f 115 31 117
f 76 282 284
f 286 76 284
f 97 115 26
f 113 115 97
f 26 284 97
f 97 284 282
f 74 276 286
f 140 38 137
f 138 38 140
f 98 27 100
f 98 111 27
f 98 100 90
f 108 111 98
f 98 90 7
f 7 108 98
f 30 109 118
f 30 111 108
f 118 111 30
f 110 24 104
f 110 30 108
f 92 108 7
f 7 136 92
f 92 110 108
f 24 110 92
f 92 136 138
f 138 24 92
f 103 9 109
f 175 28 172
f 175 103 28
f 579 408 571
f 411 577 579
f 367 574 570
f 570 577 367
f 570 579 577
f 408 579 570
f 523 520 510
f 520 363 510
f 152 42 154
f 155 151 154
f 154 42 155
f 162 158 164
f 160 134 162
f 639 642 576
f 576 363 639
f 576 642 411
f 147 205 208
f 208 40 147
f 219 40 208
f 322 319 199
f 211 54 199
f 199 54 322
f 57 225 211
f 210 225 57
f 250 65 246
f 148 40 219
f 219 217 148
f 148 217 13
f 13 165 148
f 148 165 167
f 167 40 148
f 396 553 518
f 518 519 396
f 168 166 157
f 168 159 167
f 167 45 168
f 635 645 370
f 648 423 631
f 631 645 648
f 565 563 557
f 557 563 366
f 500 506 505
f 497 670 671
f 543 527 540
f 551 555 540
f 401 541 543
f 543 540 401
f 401 540 555
f 137 12 131
f 131 12 152
f 131 140 137
f 152 154 131
f 129 128 123
f 123 89 121
f 121 33 123
f 123 33 129
f 128 23 123
f 23 89 123
f 280 292 20
f 20 313 280
f 75 295 280
f 295 292 280
f 280 315 75
f 280 313 315
f 84 326 323
f 323 326 265
f 196 1 261
f 263 70 261
f 93 263 261
f 261 1 93
f 272 346 73
f 19 343 272
f 343 346 272
f 330 85 342
f 330 340 69
f 342 340 330
f 259 260 252
f 69 260 259
f 320 331 83
f 83 336 320
f 322 336 83
f 83 319 322
f 319 83 321
f 321 83 331
f 22 344 324
f 324 338 22
f 324 84 341
f 341 338 324
f 347 326 84
f 84 324 347
f 347 324 344
f 347 344 88
f 88 345 347
f 347 345 326
f 204 202 55
f 198 53 204
f 197 202 204
f 204 53 197
f 55 201 203
f 203 204 55
f 198 204 203
f 33 198 203
f 122 33 203
f 203 201 122
f 274 272 73
f 221 200 223
f 221 60 224
f 221 223 60
f 224 202 221
f 221 202 15
f 15 200 221
f 334 200 332
f 335 86 332
f 332 86 334
f 332 271 335
f 15 271 332
f 332 200 15
f 299 311 79
f 79 317 299
f 311 300 79
f 79 300 298
f 301 315 317
f 317 79 301
f 301 79 298
f 75 315 301
f 378 459 466
f 466 459 464
f 447 461 464
f 464 379 466
f 461 379 464
f 678 433 689
f 680 433 678
f 689 435 686
f 686 435 688
f 686 678 689
f 356 678 686
f 69 340 258
f 258 260 69
f 251 260 258
f 258 340 337
f 337 18 258
f 258 18 251
f 679 433 681
f 681 676 432
f 681 433 680
f 680 676 681
f 624 603 417
f 560 602 600
f 600 354 560
f 600 602 417
f 417 603 600
f 600 603 581
f 581 354 600
f 560 354 630
f 630 633 423
f 572 633 630
f 630 354 572
f 187 32 180
f 180 32 119
f 174 175 47
f 9 103 174
f 103 175 174
f 622 412 603
f 603 624 622
f 622 624 421
f 582 412 622
f 653 650 577
f 653 577 411
f 411 642 653
f 592 590 573
f 573 650 652
f 573 590 367
f 367 650 573
f 592 594 415
f 415 590 592
f 415 593 590
f 594 591 415
f 595 591 584
f 585 593 595
f 595 584 413
f 595 415 591
f 593 415 595
f 407 568 569
f 645 635 649
f 358 609 469
f 609 611 469
f 418 604 606
f 454 465 377
f 377 606 454
f 454 606 604
f 605 619 418
f 605 615 619
f 605 597 369
f 369 615 605
f 607 406 562
f 562 604 607
f 607 604 418
f 418 619 607
f 558 564 565
f 463 461 445
f 445 374 463
f 461 356 445
f 356 686 445
f 688 374 445
f 445 686 688
f 684 374 688
f 444 374 684
f 694 434 683
f 377 455 453
f 453 455 444
f 267 94 8
f 8 282 267
f 8 97 282
f 99 113 8
f 8 94 99
f 113 97 8
f 290 288 276
f 276 74 290
f 290 74 278
f 290 77 288
f 290 278 289
f 289 77 290
f 277 74 286
f 286 284 277
f 26 96 277
f 277 284 26
f 4 205 147
f 124 205 4
f 518 553 550
f 550 552 514
f 516 512 364
f 364 512 518
f 364 550 514
f 518 550 364
f 525 516 521
f 521 397 525
f 516 364 521
f 521 364 514
f 102 28 104
f 172 28 102
f 104 24 91
f 91 102 104
f 2 102 91
f 91 130 2
f 151 41 150
f 150 130 151
f 2 130 150
f 150 41 173
f 109 30 112
f 104 28 112
f 112 110 104
f 30 110 112
f 112 103 109
f 28 103 112
f 171 46 172
f 172 102 171
f 171 102 2
f 173 46 171
f 171 150 173
f 2 150 171
f 172 46 176
f 47 175 176
f 176 175 172
f 523 510 394
f 155 42 153
f 170 163 44
f 44 162 164
f 44 161 170
f 164 161 44
f 44 163 160
f 160 162 44
f 145 135 37
f 158 162 37
f 37 134 145
f 37 162 134
f 571 392 578
f 578 576 411
f 578 579 571
f 411 579 578
f 507 392 511
f 511 510 507
f 507 510 363
f 363 576 507
f 576 578 507
f 507 578 392
f 58 226 213
f 125 34 143
f 224 226 215
f 215 212 201
f 215 55 224
f 215 201 55
f 226 58 215
f 215 58 212
f 56 208 205
f 493 490 476
f 229 17 246
f 211 199 209
f 209 57 211
f 237 217 59
f 164 158 43
f 159 168 43
f 157 164 43
f 43 168 157
f 370 640 627
f 627 635 370
f 565 557 404
f 404 557 569
f 404 558 565
f 569 557 567
f 567 407 569
f 366 644 567
f 567 557 366
f 537 547 549
f 549 547 402
f 425 639 641
f 509 641 639
f 639 363 509
f 509 363 520
f 643 640 425
f 425 641 643
f 643 641 629
f 643 627 640
f 534 503 537
f 360 503 534
f 517 361 539
f 361 497 539
f 539 497 541
f 541 401 539
f 341 84 325
f 84 323 325
f 325 339 341
f 325 323 253
f 325 253 67
f 67 339 325
f 253 323 6
f 6 298 253
f 6 323 265
f 19 272 262
f 262 268 19
f 262 274 70
f 272 274 262
f 270 268 262
f 262 70 270
f 14 193 327
f 85 330 327
f 239 193 14
f 273 274 73
f 273 73 271
f 273 271 197
f 197 53 273
f 457 378 466
f 459 378 456
f 456 446 459
f 460 457 451
f 378 457 460
f 448 449 375
f 375 464 459
f 375 446 448
f 459 446 375
f 375 449 447
f 447 464 375
f 442 678 356
f 442 356 447
f 442 373 680
f 680 678 442
f 442 449 373
f 447 449 442
f 429 660 659
f 658 429 659
f 658 665 668
f 668 429 658
f 668 673 429
f 419 609 612
f 609 586 612
f 612 586 414
f 414 623 612
f 587 414 589
f 587 623 414
f 589 580 587
f 580 368 587
f 601 624 417
f 601 615 369
f 421 624 621
f 624 601 621
f 369 610 621
f 621 601 369
f 423 648 632
f 632 630 423
f 632 648 646
f 560 630 632
f 405 560 632
f 632 646 405
f 187 180 188
f 188 180 48
f 48 178 188
f 177 119 3
f 177 180 119
f 48 180 177
f 177 179 48
f 182 178 185
f 185 178 48
f 48 179 185
f 29 107 117
f 582 622 620
f 623 587 620
f 421 623 620
f 620 622 421
f 620 368 582
f 620 587 368
f 652 650 427
f 650 653 427
f 427 654 652
f 651 654 427
f 655 640 651
f 655 653 642
f 655 642 425
f 425 640 655
f 651 427 655
f 655 427 653
f 592 573 409
f 572 583 409
f 409 583 592
f 409 573 652
f 409 633 572
f 652 633 409
f 646 648 426
f 426 644 646
f 426 648 645
f 645 649 426
f 358 469 691
f 417 602 618
f 618 601 417
f 615 601 618
f 608 605 418
f 418 606 608
f 416 597 608
f 597 605 608
f 688 435 690
f 690 684 688
f 434 684 690
f 690 683 434
f 694 683 692
f 682 684 434
f 444 684 682
f 693 691 469
f 599 611 613
f 596 468 599
f 599 613 416
f 416 596 599
f 598 606 377
f 377 453 598
f 598 453 596
f 598 608 606
f 598 596 416
f 416 608 598
f 275 96 3
f 275 277 96
f 74 277 275
f 278 74 275
f 3 119 275
f 119 278 275
f 403 555 551
f 553 555 403
f 403 550 553
f 552 550 403
f 36 154 151
f 151 130 36
f 36 131 154
f 140 131 36
f 138 140 132
f 130 91 132
f 140 36 132
f 132 36 130
f 132 24 138
f 132 91 24
f 574 410 575
f 575 570 574
f 408 570 575
f 133 37 135
f 133 135 124
f 124 4 133
f 158 37 133
f 212 58 214
f 214 125 212
f 34 125 214
f 141 125 143
f 143 39 141
f 141 39 144
f 144 127 141
f 201 212 11
f 122 201 11
f 212 125 11
f 11 127 122
f 125 141 11
f 11 141 127
f 220 206 218
f 220 56 206
f 208 56 220
f 218 59 220
f 220 59 219
f 219 208 220
f 359 665 658
f 359 474 665
f 490 474 359
f 359 476 490
f 240 229 243
f 244 232 240
f 17 229 240
f 240 232 17
f 246 65 249
f 249 229 246
f 62 232 244
f 246 17 235
f 235 250 246
f 192 321 51
f 51 230 192
f 319 321 192
f 192 230 228
f 217 237 234
f 234 149 13
f 13 217 234
f 248 59 218
f 248 237 59
f 218 245 248
f 250 237 248
f 245 65 248
f 65 250 248
f 156 43 158
f 158 133 156
f 156 133 4
f 159 43 156
f 147 159 156
f 156 4 147
f 637 649 424
f 424 649 635
f 566 407 637
f 568 407 566
f 558 404 556
f 647 649 637
f 647 567 644
f 644 426 647
f 647 426 649
f 637 407 647
f 407 567 647
f 399 531 548
f 391 505 506
f 391 547 537
f 537 503 391
f 391 503 505
f 538 536 400
f 537 549 400
f 400 534 537
f 536 534 400
f 472 371 477
f 355 456 440
f 446 456 355
f 441 676 373
f 437 371 472
f 349 441 437
f 675 677 432
f 432 676 675
f 676 441 675
f 675 441 349
f 386 495 488
f 488 495 493
f 480 503 360
f 505 503 480
f 486 495 386
f 386 489 486
f 489 480 486
f 486 491 495
f 360 491 486
f 486 480 360
f 528 536 538
f 542 401 555
f 542 539 401
f 542 555 553
f 517 539 542
f 542 396 517
f 553 396 542
f 75 301 279
f 279 281 75
f 279 301 298
f 298 6 279
f 265 281 279
f 279 6 265
f 85 327 329
f 329 331 85
f 329 321 331
f 51 321 329
f 329 193 51
f 329 327 193
f 244 240 64
f 64 240 243
f 195 52 194
f 194 191 195
f 194 239 14
f 14 191 194
f 50 191 259
f 50 259 252
f 195 191 50
f 259 191 257
f 257 330 69
f 69 259 257
f 257 327 330
f 14 327 257
f 257 191 14
f 196 261 264
f 274 273 264
f 264 261 70
f 70 274 264
f 264 53 196
f 264 273 53
f 451 457 357
f 357 604 562
f 357 562 451
f 357 454 604
f 462 457 466
f 465 454 462
f 454 357 462
f 462 357 457
f 466 379 462
f 462 379 465
f 658 659 471
f 471 359 658
f 476 359 471
f 470 437 472
f 349 437 470
f 431 669 666
f 431 668 665
f 625 623 421
f 421 621 625
f 625 612 623
f 625 621 610
f 625 610 419
f 419 612 625
f 182 185 49
f 107 29 105
f 3 96 105
f 105 96 107
f 105 29 179
f 105 177 3
f 179 177 105
f 117 114 106
f 106 29 117
f 106 114 9
f 616 618 602
f 405 561 616
f 616 602 405
f 687 435 696
f 687 690 435
f 683 690 687
f 351 468 596
f 351 453 444
f 596 453 351
f 351 682 468
f 444 682 351
f 380 693 469
f 380 469 611
f 611 599 380
f 380 599 468
f 691 693 436
f 436 693 694
f 468 682 685
f 694 693 685
f 685 434 694
f 685 682 434
f 685 380 468
f 693 380 685
f 514 552 395
f 520 397 522
f 522 509 520
f 216 214 58
f 216 58 213
f 213 206 216
f 206 56 216
f 229 249 61
f 243 229 61
f 61 230 243
f 228 230 61
f 247 249 65
f 247 65 245
f 247 245 210
f 210 57 247
f 227 235 17
f 17 232 227
f 250 235 63
f 63 237 250
f 236 234 63
f 63 234 237
f 5 209 199
f 5 199 319
f 228 209 5
f 5 192 228
f 319 192 5
f 532 390 501
f 532 399 548
f 636 390 502
f 638 424 635
f 636 424 638
f 635 627 638
f 508 626 629
f 627 643 422
f 422 638 627
f 422 643 629
f 629 626 422
f 350 556 498
f 500 479 498
f 498 479 350
f 559 404 569
f 559 556 404
f 569 568 559
f 559 498 556
f 535 527 538
f 538 400 535
f 535 400 549
f 365 540 527
f 551 540 365
f 365 531 551
f 527 535 365
f 551 531 554
f 531 399 554
f 554 403 551
f 552 403 554
f 446 355 438
f 438 371 448
f 448 446 438
f 438 355 475
f 438 477 371
f 475 477 438
f 448 371 443
f 371 437 443
f 443 449 448
f 443 437 441
f 373 449 443
f 443 441 373
f 386 488 485
f 485 488 475
f 485 355 440
f 475 355 485
f 383 477 475
f 475 488 383
f 383 488 493
f 493 476 383
f 536 528 385
f 493 495 387
f 387 490 493
f 495 491 387
f 384 480 489
f 505 480 384
f 500 505 384
f 384 479 500
f 487 485 440
f 487 489 386
f 386 485 487
f 388 497 671
f 541 497 388
f 671 672 664
f 664 388 671
f 496 388 664
f 543 541 529
f 541 388 529
f 529 388 496
f 244 64 242
f 242 64 239
f 242 233 244
f 239 194 242
f 242 194 52
f 243 230 241
f 241 64 243
f 239 64 241
f 241 230 51
f 51 193 241
f 193 239 241
f 350 479 439
f 440 456 458
f 458 456 378
f 460 452 458
f 378 460 458
f 564 558 376
f 376 452 460
f 451 564 376
f 376 460 451
f 381 470 472
f 381 471 659
f 349 470 656
f 428 677 656
f 677 675 656
f 656 675 349
f 668 431 674
f 667 431 665
f 665 474 667
f 667 663 669
f 669 431 667
f 190 49 184
f 47 189 184
f 184 174 47
f 29 106 183
f 179 29 183
f 183 185 179
f 183 49 185
f 618 616 420
f 619 615 420
f 615 618 420
f 614 616 561
f 614 561 366
f 366 563 614
f 614 420 616
f 524 521 514
f 514 395 524
f 524 395 515
f 397 521 524
f 524 522 397
f 515 522 524
f 207 56 205
f 207 216 56
f 207 205 124
f 214 216 207
f 124 34 207
f 34 214 207
f 57 209 231
f 231 247 57
f 231 209 228
f 249 247 231
f 228 61 231
f 231 61 249
f 238 63 235
f 235 227 238
f 236 63 238
f 390 532 546
f 546 502 390
f 546 548 402
f 546 532 548
f 634 566 637
f 636 502 634
f 634 362 566
f 502 362 634
f 637 424 634
f 634 424 636
f 628 626 501
f 636 638 628
f 501 390 628
f 628 390 636
f 628 422 626
f 638 422 628
f 501 626 353
f 626 508 353
f 509 522 393
f 641 509 393
f 393 522 515
f 515 508 393
f 629 641 393
f 393 508 629
f 389 506 500
f 500 498 389
f 389 559 568
f 498 559 389
f 545 535 549
f 548 531 545
f 531 365 545
f 545 365 535
f 402 548 545
f 545 549 402
f 533 395 552
f 533 554 399
f 552 554 533
f 483 534 536
f 536 385 483
f 360 534 483
f 483 491 360
f 482 385 528
f 494 387 491
f 491 483 494
f 494 483 385
f 669 663 430
f 430 664 672
f 672 662 430
f 430 662 669
f 398 528 538
f 543 529 398
f 538 527 398
f 398 527 543
f 489 487 481
f 481 439 479
f 481 384 489
f 479 384 481
f 452 439 372
f 372 458 452
f 440 458 372
f 372 487 440
f 372 481 487
f 439 481 372
f 450 376 558
f 450 556 350
f 558 556 450
f 452 376 450
f 350 439 450
f 450 439 452
f 478 381 472
f 478 383 476
f 476 471 478
f 471 381 478
f 472 477 478
f 477 383 478
f 657 660 428
f 428 656 657
f 657 659 660
f 657 656 470
f 657 381 659
f 470 381 657
f 181 184 49
f 49 183 181
f 181 183 106
f 174 184 181
f 9 174 181
f 181 106 9
f 619 420 617
f 420 614 617
f 617 607 619
f 617 614 563
f 563 406 617
f 406 607 617
f 504 391 506
f 547 391 504
f 530 533 399
f 399 532 530
f 530 532 501
f 501 353 530
f 395 533 513
f 515 395 513
f 513 530 353
f 533 530 513
f 513 508 515
f 513 353 508
f 473 482 352
f 490 387 492
f 387 494 492
f 492 474 490
f 661 430 663
f 661 473 352
f 663 473 661
f 664 430 661
f 352 496 661
f 496 664 661
f 528 398 526
f 352 482 526
f 526 482 528
f 526 398 529
f 526 496 352
f 526 529 496
f 506 389 499
f 499 504 506
f 362 504 499
f 566 362 499
f 568 566 499
f 499 389 568
f 544 362 502
f 544 504 362
f 547 504 544
f 502 546 544
f 402 547 544
f 544 546 402
f 382 667 474
f 474 492 382
f 663 667 382
f 382 473 663
f 482 473 484
f 484 492 494
f 385 482 484
f 484 494 385
f 473 382 484
f 484 382 492
f 170 525 523
f 170 523 169
f 13 361 165
f 165 361 517
f 467 10 120
f 358 10 467
f 696 695 310
f 696 310 312
f 512 166 518
f 157 166 512
f 157 512 161
f 161 512 516
f 525 170 161
f 161 516 525
f 68 433 679
f 68 679 255
f 310 695 68
f 695 433 68
f 588 586 186
f 187 588 186
f 186 467 120
f 186 586 467
f 571 408 46
f 46 173 571
f 571 173 392
f 173 41 392
f 155 511 392
f 392 41 155
f 396 165 517
f 396 45 165
f 518 166 168
f 168 519 518
f 45 396 168
f 168 396 519
f 497 361 13
f 13 149 497
f 255 679 681
f 256 255 681
f 681 66 256
f 681 432 66
f 66 432 677
f 252 66 677
f 429 52 660
f 660 52 195
f 178 182 584
f 584 580 178
f 47 410 189
f 410 593 189
f 169 523 394
f 394 42 169
f 153 511 155
f 153 510 511
f 42 394 153
f 153 394 510
f 188 588 187
f 589 588 188
f 188 178 580
f 188 580 589
f 691 10 358
f 303 10 691
f 306 694 692
f 692 304 306
f 297 304 692
f 692 683 297
f 575 410 47
f 47 176 575
f 575 46 408
f 575 176 46
f 671 670 234
f 234 236 671
f 234 497 149
f 670 497 234
f 252 677 50
f 50 677 428
f 50 660 195
f 428 660 50
f 232 62 431
f 666 232 431
f 584 182 49
f 413 584 49
f 49 595 413
f 190 595 49
f 687 696 312
f 312 302 687
f 297 683 687
f 687 302 297
f 303 691 436
f 436 80 303
f 436 694 306
f 306 80 436
f 227 232 666
f 666 662 227
f 673 668 242
f 242 668 233
f 242 52 429
f 429 673 242
f 233 668 674
f 244 233 674
f 674 431 62
f 674 62 244
f 184 595 190
f 585 595 184
f 184 189 593
f 184 593 585
f 671 236 238
f 238 672 671
f 238 227 662
f 238 662 672
