v -2 -2 -0.019999999999999962
v -2 -1.8999999999999999 -0.033999999999999975
v -2 -1.8 -0.047999999999999932
v -2 -1.7 -0.061999999999999972
v -2 -1.6000000000000001 -0.075999999999999956
v -2 -1.2999999999999998 -0.11799999999999999
v -2 -1.1000000000000001 -0.14599999999999996
v -2 -0.79999999999999982 -0.188
v -2 -0.69999999999999996 -0.20199999999999999
v -2 -0.59999999999999987 -0.216
v -2 -0.5 -0.22999999999999998
v -2 -0.29999999999999982 -0.25800000000000001
v -2 -0.19999999999999996 -0.27200000000000002
v -2 -0.099999999999999867 -0.28600000000000003
v -2 0 -0.29999999999999999
v -2 0.40000000000000036 -0.35600000000000004
v -2 0.5 -0.37
v -2 0.90000000000000036 -0.42600000000000005
v -2 1 -0.44
v -2 1.4000000000000004 -0.49600000000000005
v -2 1.5 -0.51000000000000001
v -2 1.9000000000000004 -0.56600000000000006
v -2 2 -0.58000000000000007
v -1.8999999999999999 -2 -0.0049999999999999489
v -1.8999999999999999 -1.8999999999999999 -0.018999999999999961
v -1.8999999999999999 -1.8 -0.032999999999999918
v -1.8999999999999999 -1.7 -0.046999999999999958
v -1.8999999999999999 -1.6000000000000001 -0.060999999999999943
v -1.8999999999999999 -1.2999999999999998 -0.10299999999999998
v -1.8999999999999999 -1.1000000000000001 -0.13099999999999995
v -1.8999999999999999 -0.79999999999999982 -0.17299999999999999
v -1.8999999999999999 -0.69999999999999996 -0.18699999999999997
v -1.8999999999999999 -0.59999999999999987 -0.20099999999999998
v -1.8999999999999999 -0.5 -0.21499999999999997
v -1.8999999999999999 -0.29999999999999982 -0.24299999999999999
v -1.8999999999999999 -0.19999999999999996 -0.25700000000000001
v -1.8999999999999999 -0.099999999999999867 -0.27100000000000002
v -1.8999999999999999 0 -0.28499999999999998
v -1.8999999999999999 0.40000000000000036 -0.34100000000000003
v -1.8999999999999999 0.5 -0.35499999999999998
v -1.8999999999999999 0.90000000000000036 -0.41100000000000003
v -1.8999999999999999 1 -0.42499999999999999
v -1.8999999999999999 1.4000000000000004 -0.48100000000000004
v -1.8999999999999999 1.5 -0.495
v -1.8999999999999999 1.6000000000000001 -0.50900000000000001
v -1.8999999999999999 1.9000000000000004 -0.55100000000000005
v -1.8999999999999999 2 -0.56499999999999995
v -1.8 -2 0.010000000000000009
v -1.8 -1.8999999999999999 -0.0040000000000000036
v -1.8 -1.8 -0.01799999999999996
v -1.8 -1.7 -0.032000000000000001
v -1.8 -1.6000000000000001 -0.045999999999999985
v -1.8 -1.2999999999999998 -0.088000000000000023
v -1.8 -1.1000000000000001 -0.11599999999999999
v -1.8 -0.79999999999999982 -0.15800000000000003
v -1.8 -0.69999999999999996 -0.17200000000000001
v -1.8 -0.59999999999999987 -0.18600000000000003
v -1.8 -0.5 -0.20000000000000001
v -1.8 -0.29999999999999982 -0.22800000000000004
v -1.8 -0.19999999999999996 -0.24200000000000002
v -1.8 -0.099999999999999867 -0.25600000000000006
v -1.8 0 -0.27000000000000002
v -1.8 0.40000000000000036 -0.32600000000000007
v -1.8 0.5 -0.34000000000000002
v -1.8 0.90000000000000036 -0.39600000000000007
v -1.8 1 -0.41000000000000003
v -1.8 1.4000000000000004 -0.46600000000000008
v -1.8 1.5 -0.48000000000000004
v -1.8 1.6000000000000001 -0.49400000000000005
v -1.8 1.7000000000000002 -0.50800000000000001
v -1.8 1.9000000000000004 -0.53600000000000003
v -1.8 2 -0.55000000000000004
v -1.7 -2 0.025000000000000022
v -1.7 -1.8999999999999999 0.01100000000000001
v -1.7 -1.8 -0.0029999999999999472
v -1.7 -1.7 -0.016999999999999987
v -1.7 -1.6000000000000001 -0.030999999999999972
v -1.7 -1.2999999999999998 -0.073000000000000009
v -1.7 -1.1000000000000001 -0.10099999999999998
v -1.7 -0.79999999999999982 -0.14300000000000002
v -1.7 -0.69999999999999996 -0.157
v -1.7 -0.59999999999999987 -0.17100000000000001
v -1.7 -0.5 -0.185
v -1.7 -0.29999999999999982 -0.21300000000000002
v -1.7 -0.19999999999999996 -0.22700000000000001
v -1.7 -0.099999999999999867 -0.24100000000000002
v -1.7 0 -0.255
v -1.7 0.40000000000000036 -0.31100000000000005
v -1.7 0.5 -0.32500000000000001
v -1.7 0.90000000000000036 -0.38100000000000006
v -1.7 1 -0.39500000000000002
v -1.7 1.4000000000000004 -0.45100000000000007
v -1.7 1.5 -0.46500000000000002
v -1.7 1.7000000000000002 -0.49300000000000005
v -1.7 1.8000000000000003 -0.50700000000000012
v -1.7 1.9000000000000004 -0.52100000000000013
v -1.7 2 -0.53500000000000003
v -1.6000000000000001 -2 0.040000000000000036
v -1.6000000000000001 -1.8999999999999999 0.026000000000000023
v -1.6000000000000001 -1.8 0.012000000000000066
v -1.6000000000000001 -1.7 -0.001999999999999974
v -1.6000000000000001 -1.6000000000000001 -0.015999999999999959
v -1.6000000000000001 -1.2999999999999998 -0.057999999999999996
v -1.6000000000000001 -1.1000000000000001 -0.085999999999999965
v -1.6000000000000001 -0.79999999999999982 -0.128
v -1.6000000000000001 -0.69999999999999996 -0.14199999999999999
v -1.6000000000000001 -0.59999999999999987 -0.156
v -1.6000000000000001 -0.5 -0.16999999999999998
v -1.6000000000000001 -0.29999999999999982 -0.19800000000000001
v -1.6000000000000001 -0.19999999999999996 -0.21199999999999999
v -1.6000000000000001 -0.099999999999999867 -0.22600000000000001
v -1.6000000000000001 0 -0.23999999999999999
v -1.6000000000000001 0.40000000000000036 -0.29600000000000004
v -1.6000000000000001 0.5 -0.31
v -1.6000000000000001 0.90000000000000036 -0.36600000000000005
v -1.6000000000000001 1 -0.38
v -1.6000000000000001 1.4000000000000004 -0.43600000000000005
v -1.6000000000000001 1.5 -0.45000000000000001
v -1.6000000000000001 1.8000000000000003 -0.49200000000000005
v -1.6000000000000001 1.9000000000000004 -0.50600000000000001
v -1.6000000000000001 2 -0.52000000000000002
v -1.5 -2 0.055000000000000049
v -1.5 -1.8999999999999999 0.041000000000000036
v -1.5 -1.8 0.027000000000000079
v -1.5 -1.7 0.013000000000000039
v -1.5 -1.6000000000000001 -0.00099999999999994538
v -1.5 -1.2999999999999998 -0.042999999999999983
v -1.5 -0.79999999999999982 -0.11299999999999999
v -1.5 -0.69999999999999996 -0.12699999999999997
v -1.5 -0.59999999999999987 -0.14099999999999999
v -1.5 -0.5 -0.15499999999999997
v -1.5 -0.29999999999999982 -0.183
v -1.5 -0.19999999999999996 -0.19699999999999998
v -1.5 -0.099999999999999867 -0.21099999999999999
v -1.5 0 -0.22499999999999998
v -1.5 0.20000000000000018 -0.253
v -1.5 0.40000000000000036 -0.28100000000000003
v -1.5 0.5 -0.29499999999999998
v -1.5 0.90000000000000036 -0.35100000000000003
v -1.5 1.4000000000000004 -0.42100000000000004
v -1.5 1.5 -0.435
v -1.5 1.9000000000000004 -0.49100000000000005
v -1.5 2 -0.505
v -1.3999999999999999 -2 0.070000000000000034
v -1.3999999999999999 -1.8999999999999999 0.056000000000000022
v -1.3999999999999999 -1.8 0.042000000000000065
v -1.3999999999999999 -1.7 0.028000000000000025
v -1.3999999999999999 -1.6000000000000001 0.01400000000000004
v -1.3999999999999999 -0.69999999999999996 -0.11199999999999999
v -1.3999999999999999 -0.59999999999999987 -0.126
v -1.3999999999999999 -0.5 -0.13999999999999999
v -1.3999999999999999 -0.29999999999999982 -0.16800000000000001
v -1.3999999999999999 -0.19999999999999996 -0.182
v -1.3999999999999999 -0.099999999999999867 -0.19600000000000001
v -1.3999999999999999 0 -0.20999999999999999
v -1.3999999999999999 0.20000000000000018 -0.23800000000000002
v -1.3999999999999999 0.30000000000000027 -0.25200000000000006
v -1.3999999999999999 0.40000000000000036 -0.26600000000000007
v -1.3999999999999999 0.5 -0.28000000000000003
v -1.3999999999999999 0.90000000000000036 -0.33600000000000008
v -1.3999999999999999 1 -0.34999999999999998
v -1.3999999999999999 1.5 -0.42000000000000004
v -1.3999999999999999 1.9000000000000004 -0.47600000000000009
v -1.3999999999999999 2 -0.48999999999999999
v -1.2999999999999998 -2 0.085000000000000048
v -1.2999999999999998 -1.8999999999999999 0.071000000000000035
v -1.2999999999999998 -1.8 0.057000000000000078
v -1.2999999999999998 -1.7 0.043000000000000038
v -1.2999999999999998 -1.6000000000000001 0.029000000000000054
v -1.2999999999999998 -0.59999999999999987 -0.11099999999999999
v -1.2999999999999998 -0.5 -0.12499999999999997
v -1.2999999999999998 -0.29999999999999982 -0.153
v -1.2999999999999998 -0.19999999999999996 -0.16699999999999998
v -1.2999999999999998 -0.099999999999999867 -0.18099999999999999
v -1.2999999999999998 0 -0.19499999999999998
v -1.2999999999999998 0.30000000000000027 -0.23700000000000002
v -1.2999999999999998 0.40000000000000036 -0.25100000000000006
v -1.2999999999999998 0.5 -0.26500000000000001
v -1.2999999999999998 0.90000000000000036 -0.32100000000000006
v -1.2999999999999998 1 -0.33499999999999996
v -1.2999999999999998 1.4000000000000004 -0.39100000000000001
v -1.2999999999999998 1.5 -0.40500000000000003
v -1.2999999999999998 1.9000000000000004 -0.46100000000000008
v -1.2999999999999998 2 -0.47499999999999998
v -1.2 0.40000000000000036 -0.23600000000000004
v -1.2 0.5 -0.25
v -1.2 0.60000000000000009 -0.26400000000000001
v -1.2 0.90000000000000036 -0.30600000000000005
v -1.2 1 -0.32000000000000001
v -1.2 1.4000000000000004 -0.37600000000000006
v -1.2 1.5 -0.39000000000000001
v -1.2 1.9000000000000004 -0.44600000000000006
v -1.2 2 -0.46000000000000002
v -1.1000000000000001 -2 0.11500000000000002
v -1.1000000000000001 -1.8999999999999999 0.10100000000000001
v -1.1000000000000001 -1.8 0.08700000000000005
v -1.1000000000000001 -1.7 0.073000000000000009
v -1.1000000000000001 -0.29999999999999982 -0.12300000000000003
v -1.1000000000000001 -0.19999999999999996 -0.13700000000000001
v -1.1000000000000001 -0.099999999999999867 -0.15100000000000002
v -1.1000000000000001 0 -0.16500000000000001
v -1.1000000000000001 0.40000000000000036 -0.22100000000000006
v -1.1000000000000001 0.5 -0.23500000000000001
v -1.1000000000000001 0.60000000000000009 -0.24900000000000003
v -1.1000000000000001 0.70000000000000018 -0.26300000000000001
v -1.1000000000000001 0.90000000000000036 -0.29100000000000004
v -1.1000000000000001 1 -0.30500000000000005
v -1.1000000000000001 1.4000000000000004 -0.3610000000000001
v -1.1000000000000001 1.5 -0.375
v -1.1000000000000001 1.9000000000000004 -0.43100000000000005
v -1.1000000000000001 2 -0.44500000000000006
v -0.89999999999999991 0.90000000000000036 -0.26100000000000001
v -0.79999999999999982 -2 0.16000000000000006
v -0.79999999999999982 -1.8999999999999999 0.14600000000000005
v -0.79999999999999982 -1.8 0.13200000000000009
v -0.79999999999999982 -1.7 0.11800000000000005
v -0.79999999999999982 -0.099999999999999867 -0.10599999999999998
v -0.79999999999999982 0 -0.11999999999999997
v -0.79999999999999982 0.10000000000000009 -0.13399999999999998
v -0.79999999999999982 0.40000000000000036 -0.17600000000000002
v -0.79999999999999982 0.5 -0.18999999999999997
v -0.79999999999999982 0.90000000000000036 -0.24600000000000002
v -0.79999999999999982 1 -0.26000000000000001
v -0.79999999999999982 1.4000000000000004 -0.31600000000000006
v -0.79999999999999982 1.5 -0.32999999999999996
v -0.79999999999999982 1.9000000000000004 -0.38600000000000001
v -0.79999999999999982 2 -0.40000000000000002
v -0.69999999999999996 -2 0.17500000000000004
v -0.69999999999999996 -1.8999999999999999 0.16100000000000003
v -0.69999999999999996 -1.8 0.14700000000000008
v -0.69999999999999996 -1.7 0.13300000000000001
v -0.69999999999999996 0 -0.105
v -0.69999999999999996 0.10000000000000009 -0.11900000000000001
v -0.69999999999999996 0.20000000000000018 -0.13300000000000003
v -0.69999999999999996 0.40000000000000036 -0.16100000000000006
v -0.69999999999999996 0.5 -0.17499999999999999
v -0.69999999999999996 0.90000000000000036 -0.23100000000000004
v -0.69999999999999996 1 -0.245
v -0.69999999999999996 1.4000000000000004 -0.30100000000000005
v -0.69999999999999996 1.5 -0.315
v -0.69999999999999996 1.9000000000000004 -0.37100000000000005
v -0.69999999999999996 2 -0.38500000000000001
v -0.59999999999999987 -2 0.19000000000000006
v -0.59999999999999987 -1.8999999999999999 0.17600000000000005
v -0.59999999999999987 -1.8 0.16200000000000009
v -0.59999999999999987 -1.7 0.14800000000000002
v -0.59999999999999987 -1.6000000000000001 0.13400000000000006
v -0.59999999999999987 0.20000000000000018 -0.11800000000000001
v -0.59999999999999987 0.30000000000000027 -0.13200000000000003
v -0.59999999999999987 0.40000000000000036 -0.14600000000000005
v -0.59999999999999987 0.5 -0.15999999999999998
v -0.59999999999999987 0.90000000000000036 -0.21600000000000003
v -0.59999999999999987 1 -0.22999999999999998
v -0.59999999999999987 1.4000000000000004 -0.28600000000000003
v -0.59999999999999987 1.5 -0.29999999999999999
v -0.59999999999999987 1.9000000000000004 -0.35600000000000004
v -0.59999999999999987 2 -0.37
v -0.5 -2 0.20500000000000002
v -0.5 -1.8999999999999999 0.191
v -0.5 -1.8 0.17700000000000005
v -0.5 -1.7 0.16300000000000003
v -0.5 -1.6000000000000001 0.14900000000000002
v -0.5 0.20000000000000018 -0.10300000000000002
v -0.5 0.30000000000000027 -0.11700000000000005
v -0.5 0.40000000000000036 -0.13100000000000006
v -0.5 0.5 -0.14500000000000002
v -0.5 0.90000000000000036 -0.20100000000000007
v -0.5 1 -0.21500000000000002
v -0.5 1.4000000000000004 -0.27100000000000007
v -0.5 1.5 -0.28500000000000003
v -0.5 1.9000000000000004 -0.34100000000000008
v -0.5 2 -0.35500000000000004
v -0.39999999999999991 0.40000000000000036 -0.11600000000000005
v -0.39999999999999991 0.5 -0.13
v -0.29999999999999982 -2 0.23500000000000004
v -0.29999999999999982 -1.8999999999999999 0.22100000000000003
v -0.29999999999999982 -1.8 0.20700000000000007
v -0.29999999999999982 -1.7 0.19300000000000006
v -0.29999999999999982 -1.6000000000000001 0.17900000000000005
v -0.29999999999999982 -1.2999999999999998 0.13700000000000001
v -0.29999999999999982 0.30000000000000027 -0.087000000000000022
v -0.29999999999999982 0.40000000000000036 -0.10100000000000003
v -0.29999999999999982 0.5 -0.11499999999999998
v -0.29999999999999982 0.60000000000000009 -0.129
v -0.29999999999999982 0.90000000000000036 -0.17100000000000004
v -0.29999999999999982 1 -0.185
v -0.29999999999999982 1.4000000000000004 -0.24100000000000005
v -0.29999999999999982 1.5 -0.255
v -0.29999999999999982 1.9000000000000004 -0.31100000000000005
v -0.29999999999999982 2 -0.32500000000000001
v -0.19999999999999996 -2 0.25000000000000006
v -0.19999999999999996 -1.8999999999999999 0.23600000000000002
v -0.19999999999999996 -1.8 0.22200000000000006
v -0.19999999999999996 -1.7 0.20800000000000002
v -0.19999999999999996 -1.6000000000000001 0.19400000000000003
v -0.19999999999999996 -1.2999999999999998 0.152
v -0.19999999999999996 -1.2 0.13800000000000001
v -0.19999999999999996 0.40000000000000036 -0.086000000000000049
v -0.19999999999999996 0.5 -0.10000000000000001
v -0.19999999999999996 0.60000000000000009 -0.11400000000000002
v -0.19999999999999996 0.90000000000000036 -0.15600000000000006
v -0.19999999999999996 1 -0.17000000000000001
v -0.19999999999999996 1.4000000000000004 -0.22600000000000006
v -0.19999999999999996 1.5 -0.24000000000000002
v -0.19999999999999996 1.6000000000000001 -0.254
v -0.19999999999999996 1.9000000000000004 -0.29600000000000004
v -0.19999999999999996 2 -0.31
v -0.099999999999999867 -2 0.26500000000000007
v -0.099999999999999867 -1.8999999999999999 0.25100000000000006
v -0.099999999999999867 -1.8 0.23700000000000007
v -0.099999999999999867 -1.7 0.22300000000000003
v -0.099999999999999867 -1.6000000000000001 0.20900000000000005
v -0.099999999999999867 -1.2999999999999998 0.16700000000000001
v -0.099999999999999867 -1.1000000000000001 0.13900000000000004
v -0.099999999999999867 0.5 -0.084999999999999992
v -0.099999999999999867 0.90000000000000036 -0.14100000000000004
v -0.099999999999999867 1 -0.155
v -0.099999999999999867 1.4000000000000004 -0.21100000000000005
v -0.099999999999999867 1.5 -0.22500000000000001
v -0.099999999999999867 1.6000000000000001 -0.23900000000000002
v -0.099999999999999867 1.7000000000000002 -0.253
v -0.099999999999999867 1.9000000000000004 -0.28100000000000003
v -0.099999999999999867 2 -0.29499999999999998
v 0 -2 0.28000000000000003
v 0 -1.8999999999999999 0.26600000000000001
v 0 -1.8 0.25200000000000006
v 0 -1.7 0.23800000000000002
v 0 -1.6000000000000001 0.22400000000000003
v 0 -1.2999999999999998 0.182
v 0 -1.1000000000000001 0.15400000000000003
v 0 0.90000000000000036 -0.12600000000000006
v 0 1 -0.14000000000000001
v 0 1.4000000000000004 -0.19600000000000006
v 0 1.5 -0.21000000000000002
v 0 1.7000000000000002 -0.23800000000000004
v 0 1.9000000000000004 -0.26600000000000007
v 0 2 -0.28000000000000003
v 0.10000000000000009 -1.7 0.253
v 0.10000000000000009 -1.6000000000000001 0.23900000000000005
v 0.40000000000000036 -2 0.34000000000000008
v 0.40000000000000036 -1.8999999999999999 0.32600000000000007
v 0.40000000000000036 -1.8 0.31200000000000011
v 0.40000000000000036 -1.7 0.29800000000000004
v 0.40000000000000036 -1.6000000000000001 0.28400000000000009
v 0.40000000000000036 -1.2999999999999998 0.24200000000000005
v 0.40000000000000036 -1.2 0.22800000000000006
v 0.40000000000000036 -1.1000000000000001 0.21400000000000008
v 0.40000000000000036 -0.79999999999999982 0.17200000000000004
v 0.40000000000000036 -0.69999999999999996 0.15800000000000006
v 0.40000000000000036 -0.59999999999999987 0.14400000000000004
v 0.40000000000000036 1 -0.07999999999999996
v 0.40000000000000036 1.4000000000000004 -0.13600000000000001
v 0.40000000000000036 1.5 -0.14999999999999997
v 0.40000000000000036 1.9000000000000004 -0.20600000000000002
v 0.40000000000000036 2 -0.21999999999999997
v 0.5 -2 0.35500000000000004
v 0.5 -1.8999999999999999 0.34100000000000003
v 0.5 -1.8 0.32700000000000007
v 0.5 -1.7 0.313
v 0.5 -1.6000000000000001 0.29900000000000004
v 0.5 -1.2999999999999998 0.25700000000000001
v 0.5 -1.2 0.24299999999999999
v 0.5 -1.1000000000000001 0.22900000000000004
v 0.5 -0.79999999999999982 0.187
v 0.5 -0.69999999999999996 0.17299999999999999
v 0.5 -0.59999999999999987 0.15899999999999997
v 0.5 -0.5 0.14500000000000002
v 0.5 1.4000000000000004 -0.12100000000000007
v 0.5 1.5 -0.13500000000000001
v 0.5 1.9000000000000004 -0.19100000000000006
v 0.5 2 -0.20500000000000002
v 0.60000000000000009 1.5 -0.12000000000000001
v 0.80000000000000027 -2 0.40000000000000008
v 0.80000000000000027 -1.8999999999999999 0.38600000000000007
v 0.80000000000000027 -1.2 0.28800000000000003
v 0.80000000000000027 -1.1000000000000001 0.27400000000000008
v 0.80000000000000027 -0.89999999999999991 0.24600000000000005
v 0.80000000000000027 -0.79999999999999982 0.23200000000000004
v 0.80000000000000027 -0.59999999999999987 0.20400000000000001
v 0.80000000000000027 -0.5 0.19000000000000006
v 0.80000000000000027 -0.29999999999999982 0.16200000000000003
v 0.80000000000000027 1.4000000000000004 -0.076000000000000026
v 0.80000000000000027 1.5 -0.089999999999999983
v 0.80000000000000027 1.7000000000000002 -0.11800000000000001
v 0.80000000000000027 1.8000000000000003 -0.13200000000000001
v 0.80000000000000027 1.9000000000000004 -0.14600000000000002
v 0.80000000000000027 2 -0.15999999999999998
v 0.90000000000000036 -2 0.41500000000000004
v 0.90000000000000036 -1.8999999999999999 0.40100000000000002
v 0.90000000000000036 -1.8 0.38700000000000012
v 0.90000000000000036 -1.7 0.37300000000000005
v 0.90000000000000036 -1.6000000000000001 0.3590000000000001
v 0.90000000000000036 -1.2999999999999998 0.31700000000000006
v 0.90000000000000036 -1.2 0.30300000000000005
v 0.90000000000000036 -1.1000000000000001 0.28900000000000003
v 0.90000000000000036 -0.89999999999999991 0.26100000000000001
v 0.90000000000000036 -0.79999999999999982 0.24700000000000003
v 0.90000000000000036 -0.69999999999999996 0.23300000000000004
v 0.90000000000000036 -0.59999999999999987 0.21900000000000003
v 0.90000000000000036 -0.5 0.20500000000000004
v 0.90000000000000036 -0.29999999999999982 0.17700000000000002
v 0.90000000000000036 -0.19999999999999996 0.16300000000000003
v 0.90000000000000036 -0.099999999999999867 0.14900000000000002
v 0.90000000000000036 1.4000000000000004 -0.061000000000000026
v 0.90000000000000036 1.5 -0.074999999999999983
v 0.90000000000000036 1.8000000000000003 -0.11700000000000002
v 0.90000000000000036 1.9000000000000004 -0.13100000000000003
v 0.90000000000000036 2 -0.14499999999999999
v 1 -2 0.43000000000000005
v 1 -1.8999999999999999 0.41600000000000004
v 1 -1.8 0.40200000000000002
v 1 -1.7 0.38800000000000001
v 1 -1.6000000000000001 0.374
v 1 -1.2999999999999998 0.33199999999999996
v 1 -1.2 0.318
v 1 -1.1000000000000001 0.30400000000000005
v 1 -0.79999999999999982 0.26200000000000001
v 1 -0.69999999999999996 0.248
v 1 -0.59999999999999987 0.23399999999999999
v 1 -0.5 0.22
v 1 -0.29999999999999982 0.19199999999999998
v 1 -0.19999999999999996 0.17799999999999999
v 1 -0.099999999999999867 0.16399999999999998
v 1 0 0.14999999999999999
v 1 1.4000000000000004 -0.046000000000000069
v 1 1.5 -0.060000000000000026
v 1 1.9000000000000004 -0.11600000000000008
v 1 2 -0.13000000000000003
v 1.1000000000000001 -0.59999999999999987 0.249
v 1.1000000000000001 -0.5 0.23500000000000001
v 1.2000000000000002 -0.5 0.25
v 1.3000000000000003 -0.29999999999999982 0.23700000000000002
v 1.4000000000000004 -2 0.4900000000000001
v 1.4000000000000004 -1.8999999999999999 0.47600000000000009
v 1.4000000000000004 -1.8 0.46200000000000008
v 1.4000000000000004 -1.7 0.44800000000000006
v 1.4000000000000004 -1.6000000000000001 0.43400000000000005
v 1.4000000000000004 -1.2999999999999998 0.39200000000000002
v 1.4000000000000004 -1.2 0.37800000000000006
v 1.4000000000000004 -1.1000000000000001 0.3640000000000001
v 1.4000000000000004 -0.79999999999999982 0.32200000000000006
v 1.4000000000000004 -0.69999999999999996 0.30800000000000005
v 1.4000000000000004 -0.59999999999999987 0.29400000000000004
v 1.4000000000000004 -0.5 0.28000000000000003
v 1.4000000000000004 -0.29999999999999982 0.252
v 1.4000000000000004 -0.19999999999999996 0.23800000000000004
v 1.4000000000000004 -0.099999999999999867 0.22400000000000003
v 1.4000000000000004 0 0.21000000000000005
v 1.4000000000000004 0.40000000000000036 0.154
v 1.4000000000000004 0.5 0.14000000000000004
v 1.4000000000000004 1.4000000000000004 0.013999999999999985
v 1.4000000000000004 1.5 2.7755575615628914e-17
v 1.4000000000000004 1.9000000000000004 -0.056000000000000022
v 1.4000000000000004 2 -0.069999999999999979
v 1.5 -2 0.505
v 1.5 -1.8999999999999999 0.49099999999999999
v 1.5 -1.8 0.47700000000000004
v 1.5 -1.7 0.46299999999999997
v 1.5 -1.6000000000000001 0.44900000000000001
v 1.5 -1.2999999999999998 0.40699999999999997
v 1.5 -1.2 0.39300000000000002
v 1.5 -1.1000000000000001 0.379
v 1.5 -0.79999999999999982 0.33699999999999997
v 1.5 -0.69999999999999996 0.32299999999999995
v 1.5 -0.59999999999999987 0.30899999999999994
v 1.5 -0.5 0.29499999999999998
v 1.5 -0.29999999999999982 0.26699999999999996
v 1.5 -0.19999999999999996 0.253
v 1.5 -0.099999999999999867 0.23899999999999996
v 1.5 0 0.22499999999999998
v 1.5 0.40000000000000036 0.16899999999999993
v 1.5 0.5 0.15499999999999997
v 1.5 1.4000000000000004 0.028999999999999915
v 1.5 1.5 0.014999999999999958
v 1.5 1.9000000000000004 -0.041000000000000092
v 1.5 2 -0.055000000000000049
v 1.6000000000000001 -1.8999999999999999 0.50600000000000001
v 1.6000000000000001 -1.8 0.49200000000000005
v 1.6000000000000001 -0.099999999999999867 0.25399999999999995
v 1.6000000000000001 0 0.23999999999999999
v 1.7000000000000002 -1.8999999999999999 0.52100000000000002
v 1.7000000000000002 -1.8 0.50700000000000012
v 1.7000000000000002 -1.7 0.49299999999999999
v 1.8000000000000003 -1.8999999999999999 0.53600000000000003
v 1.8000000000000003 -1.8 0.52200000000000002
v 1.8000000000000003 -1.7 0.50800000000000001
v 1.8000000000000003 -1.6000000000000001 0.49400000000000005
v 1.9000000000000004 -2 0.56500000000000006
v 1.9000000000000004 -1.8999999999999999 0.55100000000000005
v 1.9000000000000004 -1.8 0.53700000000000014
v 1.9000000000000004 -1.7 0.52300000000000002
v 1.9000000000000004 -1.6000000000000001 0.50900000000000012
v 1.9000000000000004 -1.5 0.49500000000000005
v 1.9000000000000004 -1.2999999999999998 0.46700000000000003
v 1.9000000000000004 -1.2 0.45300000000000007
v 1.9000000000000004 -1.1000000000000001 0.43900000000000006
v 1.9000000000000004 -0.79999999999999982 0.39700000000000002
v 1.9000000000000004 -0.69999999999999996 0.38300000000000001
v 1.9000000000000004 -0.59999999999999987 0.36899999999999999
v 1.9000000000000004 -0.5 0.35500000000000004
v 1.9000000000000004 -0.29999999999999982 0.32700000000000001
v 1.9000000000000004 -0.19999999999999996 0.31300000000000006
v 1.9000000000000004 -0.099999999999999867 0.29899999999999999
v 1.9000000000000004 0 0.28500000000000003
v 1.9000000000000004 0.40000000000000036 0.22899999999999998
v 1.9000000000000004 0.5 0.21500000000000002
v 1.9000000000000004 0.90000000000000036 0.15899999999999997
v 1.9000000000000004 1 0.14500000000000002
v 1.9000000000000004 1.4000000000000004 0.088999999999999968
v 1.9000000000000004 1.5 0.075000000000000011
v 1.9000000000000004 1.9000000000000004 0.018999999999999961
v 1.9000000000000004 2 0.0050000000000000044
v 2 -2 0.58000000000000007
v 2 -1.8999999999999999 0.56600000000000006
v 2 -1.8 0.55200000000000005
v 2 -1.7 0.53800000000000003
v 2 -1.6000000000000001 0.52400000000000002
v 2 -1.5 0.51000000000000001
v 2 -1.2999999999999998 0.48199999999999998
v 2 -1.2 0.46799999999999997
v 2 -1.1000000000000001 0.45400000000000001
v 2 -0.79999999999999982 0.41199999999999998
v 2 -0.69999999999999996 0.39800000000000002
v 2 -0.59999999999999987 0.38400000000000001
v 2 -0.5 0.37
v 2 -0.29999999999999982 0.34199999999999997
v 2 -0.19999999999999996 0.32799999999999996
v 2 -0.099999999999999867 0.31399999999999995
v 2 0 0.29999999999999999
v 2 0.40000000000000036 0.24399999999999994
v 2 0.5 0.22999999999999998
v 2 0.90000000000000036 0.17399999999999993
v 2 1 0.15999999999999998
v 2 1.4000000000000004 0.10399999999999993
v 2 1.5 0.089999999999999969
v 2 1.9000000000000004 0.033999999999999919
v 2 2 0.019999999999999962
v -2 -2 -0.90000000000000002
v -2 2 -0.90000000000000002
v 2 -2 -0.90000000000000002
v 2 2 -0.90000000000000002
v -0.97999999999999998 -1.4090410229681589 -0.21948159818050966
v -1.208672575837461 -1.6186725758374612 0.039999999999999925
v -0.75132742416253884 -1.6186725758374612 0.039999999999999925
v -0.97999999999999998 -1.02 -0.33000000000000002
v -1.3500000000000001 -1.2486725758374611 -0.18867257583746117
v -1.3500000000000001 -0.79132742416253887 -0.18867257583746117
v -1.0988603063736171 -1.5333975533947326 -0.10951436913436069
v -0.86113969362638287 -1.5333975533947326 -0.10951436913436069
v -0.97999999999999998 -1.6494815981805098 0.02095897703184102
v -0.97999999999999998 -1.2222172313953772 -0.30183438476009899
v -0.54503891330356979 -1.5292613105743342 0.095259200909745156
v -0.78767998437426168 -1.3410775377689941 -0.2283746755079778
v -0.66525920090974511 -1.4549610866964302 -0.099261310574334238
v -0.78547948851592053 -1.1402202876061753 -0.29378182205841369
v -1.1723200156257383 -1.3410775377689941 -0.2283746755079778
v -1.4995143691343606 -1.1388603063736171 -0.10339755339473239
v -1.2947407990902549 -1.4549610866964302 -0.099261310574334238
v -1.1745205114840795 -1.1402202876061753 -0.29378182205841369
v -1.1723200156257383 -0.69892246223100585 -0.2283746755079778
v -1.4995143691343606 -0.90113969362638291 -0.10339755339473239
v -1.1745205114840795 -0.8997797123938247 -0.29378182205841369
v -1.3690410229681589 -1.02 -0.21948159818050955
v -1.0400038571480446 -1.4755750954465237 -0.17004385139077888
v -1.1554438807594263 -1.5814027021208106 -0.039050610461142499
v -0.91999614285195541 -1.4755750954465237 -0.17004385139077888
v -0.8045561192405738 -1.5814027021208106 -0.039050610461142499
v -0.97999999999999998 -1.5401512025609523 -0.11634848387204005
v -1.0957615041297708 -1.6417316351420828 0.025748717601144222
v -0.86423849587022916 -1.6417316351420828 0.025748717601144222
v -1.0400449701987553 -1.5973512343254939 -0.048977291133950829
v -0.91995502980124466 -1.5973512343254939 -0.048977291133950829
v -0.97999999999999998 -1.3184829579768498 -0.26713213171240829
v -0.97999999999999998 -1.1220846591744489 -0.32292477264807778
v -0.97999999999999998 -0.91791534082555104 -0.32292477264807778
v -0.64404703019273535 -1.5808722108353546 0.063361910358453732
v -0.45674098192195489 -1.4651107067055837 0.13490645449946348
v -0.88291171967837045 -1.3784868151248943 -0.23004770853882334
v -0.69612583781306459 -1.2975285399338752 -0.21449449122056868
v -0.82236307941964393 -1.4427262277604245 -0.17656042965186819
v -0.88257502519947217 -1.2850893071800684 -0.27398540445239611
v -0.70490645449946343 -1.5432590180780452 -0.035110706705583861
v -0.63336191035845368 -1.3559529698072645 -0.15087221083535457
v -0.76095660149245115 -1.4990848014728457 -0.10970928659009643
v -0.60010217348946848 -1.4984675659303215 -0.0075481167066709376
v -0.72384676905614587 -1.4019299988377854 -0.16975425678885175
v -0.88152738293596244 -1.0808594243067282 -0.32088937204040197
v -0.69422133466518177 -1.196620928436499 -0.24934482789939222
v -0.88173356714735218 -1.1828866003302365 -0.30513052207780494
v -0.78457876451229147 -1.2429315705289918 -0.26802068964149967
v -0.50153243406967851 -1.437548116706671 0.030102173489468531
v -0.56245188329332907 -1.3998978265105315 -0.068467565930321439
v -1.0770882803216295 -1.3784868151248943 -0.23004770853882334
v -1.2638741621869354 -1.2975285399338752 -0.21449449122056868
v -1.137636920580356 -1.4427262277604245 -0.17656042965186819
v -1.0774249748005278 -1.2850893071800684 -0.27398540445239611
v -1.4290506104611425 -1.1954438807594263 -0.15140270212081047
v -1.2550935455005365 -1.5432590180780452 -0.035110706705583861
v -1.3266380896415462 -1.3559529698072645 -0.15087221083535457
v -1.1990433985075488 -1.4990848014728457 -0.10970928659009643
v -1.3598978265105315 -1.4984675659303215 -0.0075481167066709376
v -1.2361532309438541 -1.4019299988377854 -0.16975425678885175
v -1.0784726170640375 -1.0808594243067282 -0.32088937204040197
v -1.2657786653348182 -1.196620928436499 -0.24934482789939222
v -1.0782664328526479 -1.1828866003302365 -0.30513052207780494
v -1.1754212354877085 -1.2429315705289918 -0.26802068964149967
v -1.4251107067055839 -1.2950935455005366 -0.11325901807804512
v -1.4997092865900963 -1.2390433985075489 -0.069084801472845736
v -1.397548116706671 -1.3998978265105315 -0.068467565930321439
v -1.2638741621869354 -0.74247146006612486 -0.21449449122056868
v -1.4290506104611425 -0.84455611924057383 -0.15140270212081047
v -1.5063484838720402 -1.02 -0.11015120256095218
v -1.3266380896415462 -0.68404703019273538 -0.15087221083535457
v -1.2361532309438541 -0.63807000116221479 -0.16975425678885175
v -1.0784726170640375 -0.95914057569327194 -0.32088937204040197
v -1.2657786653348182 -0.843379071563501 -0.24934482789939222
v -1.0782664328526479 -0.85711339966976363 -0.30513052207780494
v -1.1771394788395799 -1.02 -0.30325733496604074
v -1.1754212354877085 -0.7970684294710082 -0.26802068964149967
v -1.4251107067055839 -0.74490645449946347 -0.11325901807804512
v -1.3642512823988557 -1.1357615041297708 -0.21173163514208276
v -1.3642512823988557 -0.9042384958702292 -0.21173163514208276
v -1.4389772911339507 -1.0800449701987553 -0.16735123432549376
v -1.2757092182593699 -1.0809194492236505 -0.26560704476990132
v -1.4389772911339507 -0.9599550298012447 -0.16735123432549376
v -1.2757092182593699 -0.95908055077634946 -0.26560704476990132
v 1.02 1.3690410229681589 -0.039481598180509669
v 1.02 0.97999999999999998 -0.15000000000000002
v 1.3900000000000001 0.75132742416253884 -0.0086725758374611717
v 1.3900000000000001 1.208672575837461 -0.0086725758374611717
v 1.02 1.1822172313953772 -0.121834384760099
v 1.5395143691343607 0.86113969362638287 0.076602446605267605
v 1.2145205114840796 0.85977971239382467 -0.1137818220584137
v 1.2123200156257383 1.301077537768994 -0.048374675507977805
v 1.5395143691343607 1.0988603063736171 0.076602446605267605
v 1.2145205114840796 1.1002202876061753 -0.1137818220584137
v 1.4090410229681589 0.97999999999999998 -0.039481598180509558
v 1.02 1.2784829579768497 -0.087132131712408301
v 1.02 1.0820846591744488 -0.14292477264807779
v 1.3038741621869354 0.70247146006612482 -0.03449449122056869
v 1.4690506104611425 0.8045561192405738 0.02859729787918952
v 1.3666380896415462 0.64404703019273535 0.029127789164645423
v 1.1184726170640376 0.9191405756932719 -0.14088937204040197
v 1.3057786653348182 0.80337907156350097 -0.069344827899392225
v 1.465110706705584 0.70490645449946343 0.066740981921954878
v 1.5397092865900963 0.76095660149245115 0.11091519852715426
v 1.437548116706671 0.60010217348946848 0.11153243406967855
v 1.1170882803216295 1.3384868151248943 -0.050047708538823343
v 1.3038741621869354 1.2575285399338751 -0.03449449122056869
v 1.1174249748005278 1.2450893071800684 -0.093985404452396115
v 1.4690506104611425 1.1554438807594263 0.02859729787918952
v 1.5463484838720403 0.97999999999999998 0.069848797439047816
v 1.1184726170640376 1.0408594243067282 -0.14088937204040197
v 1.3057786653348182 1.156620928436499 -0.069344827899392225
v 1.1182664328526479 1.1428866003302365 -0.12513052207780495
v 1.21713947883958 0.97999999999999998 -0.12325733496604074
v 1.2154212354877085 1.2029315705289918 -0.088020689641499672
v 1.4042512823988558 0.86423849587022916 -0.03173163514208277
v 1.4042512823988558 1.0957615041297708 -0.03173163514208277
v 1.4789772911339507 0.91995502980124466 0.012648765674506235
v 1.3157092182593699 0.91908055077634943 -0.08560704476990133
v 1.4789772911339507 1.0400449701987553 0.012648765674506235
v 1.3157092182593699 1.0409194492236504 -0.08560704476990133
v 0.92291171967837049 1.3384868151248943 -0.050047708538823343
v 0.92257502519947221 1.2450893071800684 -0.093985404452396115
v 0.92173356714735222 1.1428866003302365 -0.12513052207780495
v 0.82457876451229151 1.2029315705289918 -0.088020689641499672
v -0.48000629926372868 0.13570154009059032 -0.090999160502241938
v -0.5 0.11784845848369177 -0.091498784187716856
v -0.40799832923713492 0.20000000000000018 -0.089199749385570265
v 1.2656265504324513 1.3518948719401127 0.00057870049325188196
v 1.1889187879909273 1.3696615015172502 -0.01341479201377596
v -1.5153956288248656 -1.2246346242655333 -0.055860496926555127
v -1.5 -1.2766192480518104 -0.046273305272746514
v -1.5101727939905216 -1.2455102017225479 -0.05215449085742152
v 0.91317301501714054 1.3346612216649436 -0.049876618780521062
v 0.90000000000000036 1.3270601766208778 -0.050788424726922868
v 0.92350930881242355 1.3400513237891527 -0.049080789008617891
v 0.9219841434517142 1.3394709322201828 -0.049228308993068487
v 1 0.094067100387719302 0.1368306059457193
v -0.30444977712791182 -1.3044497771279118 0.13695550222872088
v 0.84117351455867462 1.293116332706497 -0.054860259395108392
v -1.526185781909124 -1.1542859268430796 -0.067327837528337431
v -0.30026709806172175 -1.2999999999999998 0.13695993529074174
v -0.29999999999999982 -1.299715845555647 0.1369602183777906
v -1.5300529520045716 -1.1091658089961689 -0.07422472954122207
v -1.5298904440726731 -1.1000000000000001 -0.075483566610900929
v 1.1513579547488317 1.3748454145419478 -0.019774664823547953
v -0.31538982706905788 0.28269340271258148 -0.086885550440120099
v -0.29999999999999982 0.29630129523998905 -0.086482181333598446
v -1.5289192506711007 -1.0452225309056693 -0.083006733273871369
v -0.5 -1.5081074246017381 0.13613503944424335
v -0.52636454818835587 -1.5336831803063369 0.13576096301463378
v -0.458176932865964 -1.4675356484349249 0.13672845085099489
v -1.5242393937992709 -1.0000071467404064 -0.088634908526233708
v -0.20626960232303582 -1.1999999999999997 0.13705955965154462
v 1 1.3638455042943645 -0.040938370601211069
v 1.0192774581824826 1.3698421989581746 -0.038886289126772042
v 1.0209839706025678 1.3701320790185441 -0.038670895472211024
v -0.19999999999999993 -1.193330032599522 0.13706620456393312
v -1.504291718952274 -0.90578499764203046 -0.098833858172956771
v -0.29581695501184846 0.30000000000000027 -0.086372543251777317
v -1.1193887819244965 -1.6563340958808588 0.063978456134645798
v -1.2046006260984368 -1.6234189070927718 0.046588553078222579
v -0.19999999999999996 0.38472264309754123 -0.083861170033655771
v -0.11227210658434995 -1.1000000000000001 0.1371591840123475
v -1.5 -0.89281922580991946 -0.10000530838661126
v -1.5024385320902531 -0.89944848107872433 -0.099442992462516533
v -0.099999999999999881 -1.0869442196433972 0.13717219075007564
v -1.3999999999999999 -1.4603645455203769 -0.0055489636271472192
v -1.1000000000000001 -1.6616945984004867 0.067637243776068168
v -1.065821269546773 -1.671144143576955 0.074086989668757777
v -0.18272209452510141 0.40000000000000036 -0.083408314178765278
v -0.099999999999999867 0.47314399095509369 -0.081240158733713097
v 1.1029294774732268 1.3755550422220215 -0.027138284290098989
v -1.2115620187400225 -1.620199737393152 0.045093660424037944
v -1.2214113657198038 -1.6141840491885635 0.042774062028428331
v 1.2782584648390702 0.40000000000000041 0.13573876972586049
v -1.4301504022886553 -1.4200471471111287 -0.015715959747740274
v 0 -0.98055840668727234 0.13727817693621816
v -0.069627234038354829 0.5 -0.080444085105753224
v 1.2802964316713921 1.3463260425098513 0.0035588187993295965
v -0 0.56156533881264581 -0.078619147433770409
v -1.4732847976084165 -1.3460912062617989 -0.032539950764610602
v -1.4812298732306051 -1.329777097833315 -0.036015687287926611
v -1.4922192908705336 -1.2999999999999998 -0.041832893630580001
v -1.4934049725949603 -1.2967872582638817 -0.042460529732300557
v 1.3692125482971473 0.5 0.13538188224457207
v 1.4000000000000006 0.53384944417261226 0.13526107781583432
v 0.16972038063170833 -0.79999999999999982 0.13745805709475623
v 1.4000000000000001 1.2747862657349889 0.031529922797101581
v -1.4684991687914921 -0.82021461989061428 -0.1054448285340378
v -1.4995330274646455 -0.8915497407156856 -0.10011299041950078
v -1.457812639456409 -0.79999999999999971 -0.10667189591846138
v 0.1500856344711885 0.69427307975262975 -0.074685385994689893
v -1.4274538276032898 -0.74345832614493101 -0.11003390848020311
v -1.4310439871131755 -0.74936446481964603 -0.10974557299222586
v -1.4232280325025166 -0.73774775438324425 -0.11019951926172331
v -1.3999999999999997 -0.70995961383829365 -0.11060565406263885
v 1.549486470814367 0.75491396932758259 0.12673501491629346
v 1.5353392239312023 0.72092936212965097 0.12937077289152918
v 1.3701079104287963 1.3000191812022541 0.023513501196003841
v 1.3582220708695112 1.3081188345244545 0.020596673797003019
v -1.3 -1.5601080951000987 0.023415133314013847
v 0.26371787637039423 -0.69999999999999996 0.13755768145555913
v 1.466807307272016 1.2121824268200341 0.050315556335997609
v 1.4962871437310612 1.1722500223510397 0.060328068430513596
v 1.45208691145875 0.59111670417722506 0.13505669813400098
v -1.3487838199762985 -1.5193083612049505 0.010385597572248316
v -1.3667830249875954 -1.5023180652107899 0.0053070753813712988
v 1.4849377003757271 0.63376978741005263 0.13401288481895166
v 1.5 0.656314712504664 0.133115940249347
v -1.3814808518600428 -1.485128522684273 0.00069586539679180931
v 0.35771537210908028 -0.59999999999999976 0.13765730581636204
v 1.5000000000000002 1.1660330000860606 0.061755379987951511
v 0.4000000000000003 -0.5550151548627722 0.13770212168078819
v -1.3916747853792455 -0.69999999999999996 -0.11075121780688681
v 0.34686797908538786 0.86827068120619844 -0.069527698506059596
v 0.38347137258101766 0.90000000000000024 -0.068479294112847394
v -0.55983390648146603 -1.5598339064814661 0.13440166093518538
v -0.57973739595645069 -1.5753851667904228 0.13359331395719162
v 0.40000000000000036 0.91432769037284767 -0.068005876652198621
v 1.4409893864571173 1.240185749733463 0.042522403005882732
v 0.45171286784776621 -0.5 0.13775693017716495
v -1.3606965171424126 -0.6629401038804722 -0.11129286302809577
v -1.3015969091127209 -0.60632004818296503 -0.110354729621293
v -1.2999999999999998 -0.60487061466854264 -0.11031811394640401
v 0.5 -0.44862934190664777 0.13780810786693071
v -0.59999999999999987 -1.5890025267564925 0.132460353745909
v -0.60919816173400754 -1.5951840954773195 0.13194604910672364
v 0.40871636702367342 0.92188339386386198 -0.067756220087389685
v 0.49883279503544448 1 -0.065175080744683339
v 1.512780789790827 0.67544472290625157 0.13235485726174881
v 0.5 1.0010117810093895 -0.065141649341314542
v -0.61843337924194297 -1.6000000000000003 0.13123499311370862
v -0.69999999999999984 -1.6425346839390593 0.12495485575146831
v -0.7012890525285278 -1.6432068883453741 0.12485560648907322
v -1.2425043572108947 -1.6000000000000001 0.037624346418365845
v 0.82711600118390294 1.2832288594461054 -0.055584640144869323
v 1.5561486179557322 0.77605703796081393 0.12477430737884583
v -1.29250216406594 -1.5663788158236447 0.025417709605419302
v 1.539891716102858 1.0990785479482383 0.077112760702675281
v 1.5395163230473823 1.0998645727566867 0.076946408271171177
v 0.63970785932513841 -0.29999999999999982 0.13795617889877074
v -1.2946338146100838 -0.59999999999999987 -0.11019507219151257
v 1.5402380751929927 1.098156603528222 0.077293786784997806
v 1.5696240932626693 0.84372549885665615 0.11732204414946849
v 0.69752628766799185 -0.23848939496900062 0.13801745844585889
v 1.5753810197822866 0.89601499115178296 0.11086505420609334
v 1.5752873364739319 0.90000000000000036 0.11029310047108969
v 1.5741366422670242 0.94894710356237022 0.10326790184132176
v 0.73253396409060578 -0.19999999999999996 0.13788009461359085
v 1.567346650587585 1 0.095101997588137699
v 1.5669454187529654 1.0030168000591728 0.094619460804660577
v -1.1844591086417795 -0.5 -0.1076688662962669
v -1.1000000000000001 -0.42334074513792952 -0.10573229568068986
v 0.70737770782998521 1.1807752612247175 -0.05920188039696269
v 0.80000000000000027 1.260027160032746 -0.056403802404584411
v -1.0199533049713494 -1.6797324303533359 0.082169544503764638
v 0.82348804754868321 -0.099999999999999867 0.13752320713230243
v 0.90000000000000047 -0.015878485558503481 0.13722298797819055
v 0.91444213100676042 0 0.13716631965101406
v -0.91000357254117858 -1.6866900572237609 0.099636072130149772
v -0.93065366028062579 -1.6868444106503298 0.096560168448952322
v 0.95761888465312106 0.047470934789048638 0.13699690182750135
v -0.8103424122945142 -1.6750412466523794 0.11295441268715602
v -0.96410969670517022 -0.29999999999999982 -0.10261645450577554
v -0.79738478343989838 -1.6723577875629831 0.1145223727428329
v -0.79999999999999982 -1.6728993856229124 0.11420591398720779
v -0.85393499073686574 -0.19999999999999996 -0.10009024861052988
v -0.79999999999999982 -0.15104594084200934 -0.098853568282118665
v -0.70329501124783356 -1.644059218489367 0.12467403890133635
v -0.7615930023339772 -1.6615930023339773 0.11838406997666026
v -0.74376028476856126 -0.099999999999999867 -0.097564042715284197
v -0.69999999999999996 -0.060738605936158895 -0.096496595168937757
v -0.73109956944022625 -0.088508509991415393 -0.097273744017235778
v -0.63197871734610633 -0 -0.094796807601915944
v -0.59999999999999987 0.028554926273766525 -0.093997689678327292
v -0.43551726753414216 -1.4438869923177711 0.13681658879436662
v -0.40626840262316077 -1.4127703496017847 0.13684758855077578
v -0.4410940316901707 -1.4497071567306663 0.13679489718876769
f 46 47 22
f 22 47 23
f 59 60 35
f 35 60 36
f 60 61 36
f 36 61 37
f 69 70 45
f 71 72 46
f 46 72 47
f 85 86 60
f 60 86 61
f 86 87 61
f 61 87 62
f 69 94 70
f 94 95 70
f 96 97 71
f 71 97 72
f 94 119 95
f 119 120 95
f 95 120 96
f 120 121 96
f 96 121 97
f 119 142 120
f 142 143 120
f 120 143 121
f 156 157 136
f 160 161 139
f 140 162 141
f 163 164 142
f 142 164 143
f 157 177 158
f 176 185 177
f 188 189 179
f 179 189 180
f 190 191 181
f 181 191 182
f 192 193 183
f 183 193 184
f 204 205 187
f 206 207 188
f 188 207 189
f 208 209 190
f 190 209 191
f 210 211 192
f 192 211 193
f 222 223 212
f 230 231 215
f 215 231 216
f 233 234 219
f 235 236 220
f 220 236 221
f 237 238 222
f 222 238 223
f 239 240 224
f 224 240 225
f 241 242 226
f 226 242 227
f 246 247 231
f 260 261 245
f 245 261 246
f 261 262 246
f 246 262 247
f 265 266 250
f 250 266 251
f 282 283 273
f 273 283 274
f 283 284 274
f 291 292 275
f 275 292 276
f 293 294 277
f 277 294 278
f 294 295 278
f 278 295 279
f 296 297 280
f 298 299 282
f 282 299 283
f 299 300 283
f 283 300 284
f 304 305 288
f 308 309 291
f 291 309 292
f 309 310 292
f 292 310 293
f 319 320 304
f 325 326 309
f 309 326 310
f 320 335 321
f 326 338 327
f 338 339 327
f 327 339 328
f 361 362 345
f 345 362 346
f 362 363 346
f 346 363 347
f 364 365 348
f 348 365 349
f 366 367 350
f 368 369 352
f 352 369 353
f 368 372 369
f 389 390 374
f 375 395 376
f 396 397 377
f 377 397 378
f 397 398 378
f 399 400 379
f 379 400 380
f 401 402 381
f 384 406 385
f 410 411 389
f 389 411 390
f 411 412 390
f 390 412 391
f 412 413 391
f 391 413 392
f 414 415 393
f 393 415 394
f 415 416 394
f 394 416 395
f 396 417 397
f 417 418 397
f 397 418 398
f 429 431 430
f 445 446 432
f 456 457 434
f 434 457 435
f 457 458 435
f 435 458 436
f 458 459 436
f 436 459 437
f 461 462 439
f 439 462 440
f 465 466 443
f 443 466 444
f 468 469 446
f 446 469 447
f 468 479 469
f 479 480 469
f 469 480 470
f 481 482 477
f 477 482 478
f 482 483 478
f 484 485 481
f 481 485 482
f 485 486 482
f 482 486 483
f 489 490 484
f 484 490 485
f 490 491 485
f 485 491 486
f 491 492 486
f 486 492 487
f 492 493 487
f 514 515 489
f 489 515 490
f 515 516 490
f 490 516 491
f 516 517 491
f 491 517 492
f 517 518 492
f 492 518 493
f 519 520 494
f 495 521 496
f 522 523 497
f 497 523 498
f 524 525 499
f 499 525 500
f 526 527 501
f 501 527 502
f 527 528 502
f 502 528 503
f 280 684 681
f 280 685 684
f 297 700 696
f 690 702 281
f 314 709 706
f 705 713 298
f 714 721 315
f 450 729 728
f 350 756 754
f 739 757 149
f 367 768 764
f 767 785 170
f 403 801 800
f 811 814 217
f 815 817 232
f 549 572 567
f 567 584 549
f 607 609 599
f 597 608 607
f 597 607 546
f 546 607 599
f 568 572 549
f 567 572 570
f 567 570 544
f 628 653 639
f 643 653 628
f 643 656 653
f 579 586 583
f 604 621 546
f 546 621 597
f 563 623 621
f 621 623 597
f 570 572 550
f 543 569 565
f 558 609 601
f 599 609 558
f 556 602 595
f 558 602 599
f 596 606 556
f 604 606 559
f 605 606 596
f 559 606 605
f 546 599 594
f 599 602 594
f 594 602 556
f 594 604 546
f 594 606 604
f 556 606 594
f 591 592 585
f 653 655 639
f 642 647 645
f 559 624 604
f 621 624 563
f 604 624 621
f 557 608 597
f 597 623 557
f 575 615 545
f 575 617 615
f 615 617 562
f 548 571 568
f 550 571 569
f 569 571 565
f 565 571 548
f 571 572 568
f 550 572 571
f 593 596 556
f 556 595 593
f 564 595 548
f 593 595 564
f 542 593 564
f 548 568 564
f 566 568 549
f 564 568 566
f 564 566 542
f 573 596 593
f 573 593 542
f 565 598 543
f 558 601 598
f 574 589 587
f 574 587 545
f 633 656 643
f 554 586 584
f 585 592 554
f 554 592 583
f 583 586 554
f 655 657 650
f 650 657 634
f 664 665 638
f 627 664 638
f 648 650 634
f 638 650 648
f 638 648 627
f 640 642 629
f 642 645 629
f 629 644 640
f 644 661 633
f 633 661 656
f 563 625 623
f 577 591 552
f 552 591 585
f 552 585 576
f 624 626 563
f 616 626 562
f 557 623 612
f 623 625 612
f 617 619 562
f 610 619 560
f 616 619 610
f 562 619 616
f 584 586 580
f 549 584 580
f 549 580 566
f 598 600 558
f 595 602 600
f 600 602 558
f 595 600 548
f 548 600 565
f 565 600 598
f 551 589 574
f 581 589 551
f 573 581 551
f 574 605 551
f 551 605 596
f 551 596 573
f 545 615 603
f 545 603 574
f 603 605 574
f 559 605 603
f 587 589 555
f 544 582 567
f 576 582 544
f 576 585 582
f 582 584 567
f 554 584 582
f 582 585 554
f 631 655 650
f 631 650 638
f 639 655 631
f 631 666 639
f 665 666 631
f 638 665 631
f 661 663 656
f 634 657 649
f 629 658 644
f 658 661 644
f 659 662 651
f 622 625 563
f 563 626 622
f 622 626 616
f 610 614 613
f 665 667 666
f 553 586 579
f 580 586 553
f 618 624 559
f 603 618 559
f 618 626 624
f 615 618 603
f 562 618 615
f 562 626 618
f 555 590 588
f 553 590 581
f 581 590 589
f 589 590 555
f 588 590 579
f 579 590 553
f 637 662 659
f 659 663 637
f 660 662 637
f 637 663 661
f 658 660 637
f 637 661 658
f 636 657 655
f 656 663 636
f 653 656 636
f 636 655 653
f 649 657 654
f 654 657 636
f 636 663 654
f 654 663 659
f 632 660 641
f 641 660 658
f 641 658 629
f 629 645 641
f 641 646 632
f 645 646 641
f 630 659 651
f 649 654 630
f 654 659 630
f 652 662 660
f 652 660 632
f 651 662 635
f 635 662 652
f 578 580 553
f 566 578 542
f 566 580 578
f 553 581 578
f 542 578 573
f 578 581 573
f 612 625 561
f 611 625 622
f 561 625 611
f 610 613 547
f 547 622 616
f 547 616 610
f 611 622 547
f 613 620 547
f 547 620 611
f 583 640 579
f 583 642 640
f 592 647 583
f 583 647 642
f 628 639 575
f 545 628 575
f 639 666 575
f 575 666 617
f 587 628 545
f 587 643 628
f 555 643 587
f 633 643 555
f 588 644 555
f 555 644 633
f 666 667 617
f 617 667 619
f 619 667 560
f 664 679 676
f 543 716 704
f 688 715 648
f 627 699 698
f 678 679 664
f 613 766 765
f 782 783 635
f 635 786 782
f 673 675 608
f 740 780 646
f 620 738 736
f 736 737 620
f 601 750 749
f 819 820 577
f 694 821 577
f 577 821 819
f 2 1 24
f 2 24 25
f 220 219 234
f 220 234 235
f 420 419 429
f 420 429 430
f 588 579 640
f 644 588 640
f 237 221 236
f 222 221 237
f 421 420 430
f 432 421 430
f 671 672 634
f 224 223 238
f 224 238 239
f 432 422 421
f 446 422 432
f 226 225 240
f 226 240 241
f 446 447 423
f 446 423 422
f 677 682 665
f 676 677 665
f 664 676 665
f 539 541 540
f 539 540 538
f 229 228 243
f 229 243 244
f 672 648 634
f 688 648 672
f 447 448 424
f 447 424 423
f 2 25 26
f 3 2 26
f 230 229 244
f 230 244 245
f 577 552 692
f 693 692 552
f 694 577 692
f 4 3 26
f 4 26 27
f 448 449 718
f 448 718 680
f 448 680 424
f 704 703 569
f 704 569 543
f 230 245 246
f 231 230 246
f 5 4 27
f 5 27 28
f 452 426 425
f 451 452 425
f 703 711 569
f 711 712 569
f 817 233 232
f 818 248 233
f 818 233 817
f 6 5 28
f 6 28 29
f 452 453 427
f 452 427 426
f 717 716 543
f 234 233 248
f 249 234 248
f 671 634 722
f 649 722 634
f 7 6 29
f 7 29 30
f 453 454 428
f 453 428 427
f 235 234 249
f 235 249 250
f 699 627 648
f 715 699 648
f 443 444 431
f 443 431 429
f 31 7 30
f 8 7 31
f 236 235 250
f 236 250 251
f 445 432 431
f 432 430 431
f 697 678 664
f 697 664 627
f 698 697 627
f 9 8 31
f 9 31 32
f 237 236 251
f 237 251 252
f 445 431 444
f 741 740 646
f 10 9 32
f 10 32 33
f 238 237 252
f 238 252 253
f 747 746 651
f 728 449 450
f 718 449 728
f 686 683 557
f 11 10 33
f 11 33 34
f 254 238 253
f 239 238 254
f 434 433 455
f 434 455 456
f 12 11 34
f 12 34 35
f 557 612 687
f 691 687 612
f 686 557 687
f 240 239 254
f 240 254 255
f 438 437 459
f 438 459 460
f 695 691 612
f 12 35 36
f 13 12 36
f 256 240 255
f 241 240 256
f 439 438 460
f 439 460 461
f 761 760 552
f 693 552 760
f 14 13 36
f 14 36 37
f 241 256 257
f 242 241 257
f 441 440 462
f 441 462 463
f 552 576 769
f 770 769 576
f 761 552 769
f 15 14 37
f 15 37 38
f 244 243 258
f 244 258 259
f 441 463 464
f 442 441 464
f 244 259 260
f 245 244 260
f 16 15 38
f 16 38 39
f 777 776 576
f 770 576 775
f 776 775 576
f 443 442 464
f 443 464 465
f 667 665 779
f 682 779 665
f 669 263 248
f 669 248 818
f 445 444 466
f 445 466 467
f 17 16 39
f 17 39 40
f 630 746 763
f 651 746 630
f 248 263 264
f 249 248 264
f 41 17 40
f 18 17 41
f 446 445 467
f 446 467 468
f 250 249 264
f 250 264 265
f 448 447 469
f 448 469 470
f 783 755 651
f 747 651 755
f 783 651 635
f 471 448 470
f 449 448 471
f 786 635 652
f 786 652 794
f 252 251 266
f 252 266 267
f 19 18 41
f 19 41 42
f 743 722 649
f 20 19 42
f 20 42 43
f 450 449 471
f 450 471 472
f 763 731 630
f 731 742 630
f 21 20 43
f 21 43 44
f 252 267 268
f 253 252 268
f 649 742 743
f 630 742 649
f 21 44 45
f 22 21 45
f 22 45 46
f 254 253 268
f 254 268 269
f 787 632 646
f 787 646 780
f 24 48 49
f 25 24 49
f 729 450 472
f 751 748 472
f 729 472 748
f 752 751 472
f 255 254 269
f 255 269 270
f 803 806 570
f 26 25 49
f 26 49 50
f 256 255 270
f 256 270 271
f 652 632 791
f 790 791 632
f 789 790 632
f 27 26 50
f 27 50 51
f 257 256 271
f 257 271 272
f 731 473 451
f 763 473 731
f 746 473 763
f 747 473 746
f 755 473 747
f 544 570 806
f 809 544 806
f 808 544 809
f 28 27 51
f 28 51 52
f 452 451 473
f 452 473 474
f 787 789 632
f 275 276 259
f 275 259 258
f 29 28 52
f 29 52 53
f 453 452 474
f 453 474 475
f 674 727 608
f 675 674 608
f 276 277 260
f 276 260 259
f 54 29 53
f 30 29 54
f 454 453 475
f 454 475 476
f 652 793 794
f 791 793 652
f 277 278 261
f 277 261 260
f 31 30 54
f 31 54 55
f 609 607 724
f 725 724 607
f 481 477 455
f 488 484 481
f 456 455 477
f 488 489 484
f 488 481 455
f 31 55 56
f 32 31 56
f 278 279 262
f 278 262 261
f 725 607 726
f 727 726 607
f 608 727 607
f 457 456 477
f 457 477 478
f 33 32 56
f 33 56 57
f 708 701 561
f 458 457 478
f 458 478 483
f 33 57 58
f 34 33 58
f 803 570 804
f 550 804 570
f 483 459 458
f 487 459 483
f 486 487 483
f 733 707 561
f 561 707 708
f 493 494 460
f 487 460 459
f 493 460 487
f 35 34 58
f 35 58 59
f 494 495 461
f 494 461 460
f 719 710 609
f 601 609 710
f 753 601 710
f 279 821 694
f 279 819 821
f 692 262 694
f 279 820 819
f 279 681 820
f 279 280 681
f 279 694 262
f 38 37 61
f 38 61 62
f 701 695 612
f 561 701 612
f 496 462 461
f 495 496 461
f 39 38 62
f 39 62 63
f 561 611 733
f 732 733 611
f 670 264 263
f 689 281 264
f 689 264 670
f 690 281 689
f 496 497 463
f 496 463 462
f 724 719 609
f 40 39 63
f 40 63 64
f 497 498 464
f 497 464 463
f 281 282 273
f 265 264 273
f 281 273 264
f 41 40 64
f 41 64 65
f 499 465 464
f 498 499 464
f 620 613 739
f 757 739 613
f 738 620 739
f 765 757 613
f 266 265 273
f 266 273 274
f 42 41 65
f 42 65 66
f 753 750 601
f 499 500 466
f 499 466 465
f 284 266 274
f 267 266 284
f 267 284 285
f 43 42 66
f 43 66 67
f 500 501 467
f 500 467 466
f 737 734 611
f 732 611 734
f 620 737 611
f 285 286 268
f 285 268 267
f 44 43 67
f 44 67 68
f 501 502 468
f 501 468 467
f 808 813 544
f 812 544 813
f 286 287 269
f 286 269 268
f 45 44 68
f 45 68 69
f 748 751 647
f 502 503 479
f 502 479 468
f 287 288 270
f 287 270 269
f 46 45 70
f 46 70 71
f 471 470 480
f 505 471 480
f 504 505 480
f 751 752 645
f 645 752 773
f 647 751 645
f 288 289 271
f 288 271 270
f 49 48 73
f 49 73 74
f 506 472 471
f 505 506 471
f 646 645 741
f 773 741 645
f 289 290 272
f 289 272 271
f 50 49 74
f 50 74 75
f 683 673 608
f 683 608 557
f 51 50 75
f 51 75 76
f 277 276 292
f 277 292 293
f 799 804 550
f 52 51 76
f 52 76 77
f 550 712 799
f 569 712 550
f 280 279 295
f 280 295 296
f 53 52 77
f 53 77 78
f 506 741 773
f 506 780 740
f 752 472 773
f 506 507 780
f 506 740 741
f 507 789 787
f 507 787 780
f 507 790 789
f 506 773 472
f 705 298 282
f 702 282 281
f 705 282 702
f 54 53 78
f 54 78 79
f 285 284 300
f 285 300 301
f 55 54 79
f 55 79 80
f 728 729 647
f 647 729 748
f 718 728 647
f 680 718 647
f 592 680 647
f 805 680 592
f 473 755 509
f 783 509 755
f 508 782 786
f 508 786 794
f 508 509 782
f 783 782 509
f 508 794 793
f 286 285 301
f 286 301 302
f 56 55 80
f 56 80 81
f 509 510 474
f 509 474 473
f 744 598 601
f 744 601 749
f 781 598 744
f 287 286 302
f 287 302 303
f 56 81 82
f 57 56 82
f 510 511 475
f 510 475 474
f 543 598 778
f 717 543 778
f 781 778 598
f 58 57 82
f 58 82 83
f 288 287 303
f 288 303 304
f 511 512 476
f 511 476 475
f 576 544 812
f 777 576 812
f 289 288 305
f 289 305 306
f 59 58 83
f 59 83 84
f 504 480 479
f 503 504 479
f 290 289 306
f 290 306 307
f 60 59 84
f 60 84 85
f 508 793 791
f 507 508 791
f 507 791 790
f 294 293 310
f 294 310 311
f 63 62 87
f 63 87 88
f 592 591 788
f 792 592 788
f 800 592 792
f 801 592 800
f 802 592 801
f 805 592 802
f 63 88 89
f 64 63 89
f 295 294 311
f 295 311 312
f 489 488 513
f 489 513 514
f 65 64 89
f 65 89 90
f 313 295 312
f 296 295 313
f 494 493 518
f 494 518 519
f 65 90 91
f 66 65 91
f 495 494 520
f 521 495 520
f 297 296 313
f 314 297 313
f 700 297 314
f 706 700 314
f 497 496 521
f 497 521 522
f 67 66 91
f 67 91 92
f 714 315 299
f 713 299 298
f 714 299 713
f 498 523 524
f 499 498 524
f 316 300 315
f 300 299 315
f 301 300 316
f 501 500 525
f 501 525 526
f 68 67 92
f 68 92 93
f 302 301 316
f 302 316 317
f 504 503 528
f 504 528 529
f 69 68 93
f 94 69 93
f 303 302 317
f 303 317 318
f 530 504 529
f 505 504 530
f 71 70 95
f 71 95 96
f 303 318 319
f 304 303 319
f 506 505 530
f 506 530 531
f 74 73 98
f 74 98 99
f 305 304 320
f 321 305 320
f 507 506 531
f 507 531 532
f 75 74 99
f 75 99 100
f 306 305 321
f 306 321 322
f 508 507 532
f 508 532 533
f 306 322 323
f 307 306 323
f 76 75 100
f 76 100 101
f 509 508 533
f 509 533 534
f 77 76 101
f 77 101 102
f 309 308 324
f 309 324 325
f 510 509 534
f 510 534 535
f 310 326 327
f 311 310 327
f 78 77 102
f 78 102 103
f 511 510 535
f 511 535 536
f 312 311 327
f 312 327 328
f 79 78 103
f 79 103 104
f 512 511 536
f 512 536 537
f 591 577 820
f 681 591 820
f 684 591 681
f 685 591 684
f 696 591 685
f 700 591 696
f 706 591 700
f 709 591 706
f 720 591 709
f 730 591 720
f 745 591 730
f 754 591 745
f 756 591 754
f 764 591 756
f 768 591 764
f 784 591 768
f 788 591 784
f 329 312 328
f 313 312 329
f 80 79 104
f 80 104 105
f 314 313 329
f 314 329 330
f 80 105 106
f 81 80 106
f 771 560 772
f 774 560 797
f 772 560 774
f 720 709 330
f 709 314 330
f 82 81 106
f 82 106 107
f 83 82 107
f 83 107 108
f 723 316 315
f 723 331 316
f 723 315 721
f 84 83 108
f 84 108 109
f 317 316 331
f 317 331 332
f 762 560 771
f 610 560 758
f 758 560 759
f 759 560 762
f 84 109 110
f 85 84 110
f 318 317 332
f 318 332 333
f 735 610 758
f 614 610 735
f 86 85 110
f 86 110 111
f 319 318 333
f 319 333 334
f 87 86 111
f 87 111 112
f 24 1 538
f 48 24 538
f 73 48 538
f 98 73 538
f 122 98 538
f 144 122 538
f 165 144 538
f 194 165 538
f 213 194 538
f 228 213 538
f 243 228 538
f 258 243 538
f 275 258 538
f 540 291 275
f 540 308 291
f 540 324 308
f 540 340 324
f 540 356 340
f 540 373 356
f 540 388 373
f 540 409 388
f 540 433 409
f 540 455 433
f 540 488 455
f 540 275 538
f 513 488 540
f 320 319 334
f 335 320 334
f 113 87 112
f 88 87 113
f 322 321 335
f 322 335 336
f 89 88 113
f 89 113 114
f 323 322 336
f 323 336 337
f 115 89 114
f 90 89 115
f 91 90 115
f 91 115 116
f 340 341 325
f 340 325 324
f 92 91 116
f 92 116 117
f 341 342 326
f 341 326 325
f 689 614 690
f 690 614 702
f 714 614 721
f 702 614 705
f 705 614 713
f 713 614 714
f 723 614 735
f 721 614 723
f 93 92 117
f 93 117 118
f 342 343 338
f 342 338 326
f 670 614 689
f 668 614 670
f 94 93 118
f 119 94 118
f 329 328 339
f 345 329 339
f 344 345 339
f 99 98 122
f 99 122 123
f 515 514 540
f 514 513 540
f 516 515 540
f 517 516 540
f 518 517 540
f 519 518 540
f 520 519 540
f 521 520 540
f 522 521 540
f 523 522 540
f 524 523 540
f 525 524 540
f 526 525 540
f 527 526 540
f 528 527 540
f 529 528 540
f 530 529 540
f 541 531 530
f 541 532 531
f 541 533 532
f 541 534 533
f 541 535 534
f 541 536 535
f 541 530 540
f 537 536 541
f 346 347 330
f 346 330 329
f 345 346 329
f 100 99 123
f 100 123 124
f 669 614 668
f 613 614 816
f 818 614 669
f 817 614 818
f 815 614 817
f 816 614 815
f 347 730 720
f 347 348 730
f 347 720 330
f 101 100 124
f 101 124 125
f 102 101 125
f 102 125 126
f 759 331 758
f 735 758 331
f 723 735 331
f 103 102 126
f 103 126 127
f 759 351 332
f 759 332 331
f 762 351 759
f 351 352 333
f 351 333 332
f 707 128 105
f 708 707 105
f 701 708 105
f 695 701 105
f 104 695 105
f 691 695 104
f 687 691 104
f 353 334 333
f 352 353 333
f 106 105 128
f 106 128 129
f 353 354 335
f 354 336 335
f 353 335 334
f 785 767 613
f 766 613 767
f 795 785 613
f 796 795 613
f 807 796 613
f 810 807 613
f 814 613 816
f 811 613 814
f 810 613 811
f 107 106 129
f 107 129 130
f 355 337 336
f 354 355 336
f 107 130 131
f 108 107 131
f 512 537 541
f 476 512 541
f 454 476 541
f 428 454 541
f 408 428 541
f 387 408 541
f 371 387 541
f 355 371 541
f 337 355 541
f 323 337 541
f 307 323 541
f 290 307 541
f 272 290 541
f 257 272 541
f 539 242 257
f 539 227 242
f 539 211 227
f 539 193 211
f 539 184 193
f 539 164 184
f 539 143 164
f 539 121 143
f 539 97 121
f 539 72 97
f 539 47 72
f 539 257 541
f 23 47 539
f 560 667 797
f 798 797 667
f 779 798 667
f 343 344 339
f 343 339 338
f 109 108 131
f 109 131 132
f 348 349 745
f 348 745 730
f 110 109 132
f 110 132 133
f 754 349 350
f 745 349 754
f 110 133 134
f 111 110 134
f 112 111 134
f 112 134 135
f 341 340 356
f 341 356 357
f 136 112 135
f 113 112 136
f 113 136 137
f 342 341 357
f 342 357 358
f 342 358 359
f 343 342 359
f 114 113 137
f 114 137 138
f 344 343 359
f 344 359 360
f 115 114 138
f 115 138 139
f 116 115 139
f 116 139 161
f 361 344 360
f 345 344 361
f 22 23 539
f 21 22 539
f 20 21 539
f 19 20 539
f 18 19 539
f 17 18 539
f 538 16 17
f 538 15 16
f 538 14 15
f 538 13 14
f 538 12 13
f 538 11 12
f 538 10 11
f 538 9 10
f 538 8 9
f 538 7 8
f 538 6 7
f 538 5 6
f 538 4 5
f 538 3 4
f 538 2 3
f 538 17 539
f 1 2 538
f 348 347 363
f 348 363 364
f 161 181 140
f 117 116 140
f 161 140 116
f 180 181 161
f 350 349 365
f 350 365 366
f 118 117 140
f 118 140 141
f 668 263 669
f 670 263 668
f 119 118 141
f 142 119 141
f 774 352 351
f 774 368 352
f 774 351 772
f 123 122 144
f 123 144 145
f 370 353 369
f 354 353 370
f 103 127 674
f 675 103 674
f 673 103 675
f 683 103 673
f 104 103 683
f 686 104 683
f 687 104 686
f 124 123 145
f 124 145 146
f 355 354 370
f 355 370 371
f 125 124 146
f 125 146 147
f 374 357 356
f 373 374 356
f 678 425 404
f 697 425 678
f 679 678 404
f 676 679 404
f 677 676 404
f 126 125 147
f 126 147 148
f 374 358 357
f 390 358 374
f 390 391 359
f 390 359 358
f 392 360 359
f 391 392 359
f 710 126 148
f 719 126 710
f 724 126 719
f 127 126 724
f 127 724 725
f 726 127 725
f 392 393 361
f 392 361 360
f 375 362 361
f 393 394 375
f 393 375 361
f 395 375 394
f 738 149 129
f 736 738 129
f 737 736 129
f 739 149 738
f 737 129 128
f 734 737 128
f 699 715 425
f 698 699 425
f 697 698 425
f 688 425 715
f 451 425 688
f 451 688 672
f 451 672 671
f 451 671 722
f 743 451 722
f 742 451 743
f 731 451 742
f 376 363 362
f 375 376 362
f 129 149 150
f 130 129 150
f 280 297 685
f 696 685 297
f 377 378 364
f 377 364 363
f 376 377 363
f 131 130 150
f 131 150 151
f 378 365 364
f 398 365 378
f 127 726 727
f 674 127 727
f 132 131 151
f 132 151 152
f 379 366 365
f 398 399 379
f 398 379 365
f 132 152 153
f 133 132 153
f 128 707 733
f 732 128 733
f 734 128 732
f 379 380 367
f 379 367 366
f 134 133 153
f 134 153 154
f 134 154 155
f 135 134 155
f 380 784 768
f 380 381 784
f 380 768 367
f 148 169 744
f 749 148 744
f 750 148 749
f 753 148 750
f 710 148 753
f 136 135 155
f 136 155 156
f 368 774 797
f 382 797 798
f 368 797 382
f 350 367 756
f 764 756 367
f 137 136 157
f 137 157 158
f 382 383 372
f 382 372 368
f 138 137 158
f 138 158 159
f 385 369 372
f 385 372 384
f 351 762 771
f 772 351 771
f 139 138 159
f 139 159 160
f 385 386 370
f 385 370 369
f 181 182 162
f 181 162 140
f 386 387 371
f 386 371 370
f 384 372 383
f 142 141 162
f 142 162 163
f 197 703 704
f 168 197 704
f 711 703 197
f 168 704 716
f 717 168 716
f 778 168 717
f 169 168 778
f 145 144 165
f 145 165 166
f 792 381 402
f 788 381 792
f 784 381 788
f 781 169 778
f 744 169 781
f 146 145 166
f 146 166 167
f 374 373 388
f 374 388 389
f 147 146 167
f 147 167 168
f 377 376 395
f 377 395 396
f 148 147 168
f 148 168 169
f 804 799 197
f 712 197 799
f 711 197 712
f 216 803 804
f 216 804 197
f 806 803 216
f 809 806 216
f 381 380 400
f 381 400 401
f 766 170 150
f 765 150 149
f 757 765 149
f 766 150 765
f 767 170 766
f 800 402 403
f 792 402 800
f 424 680 805
f 802 424 805
f 150 170 171
f 151 150 171
f 152 151 171
f 152 171 172
f 677 404 382
f 677 382 682
f 779 682 382
f 798 779 382
f 216 231 813
f 812 813 231
f 777 812 231
f 776 777 231
f 153 152 172
f 153 172 173
f 808 216 813
f 809 216 808
f 382 404 405
f 383 382 405
f 154 153 173
f 154 173 174
f 384 383 405
f 406 384 405
f 231 247 775
f 776 231 775
f 155 154 174
f 155 174 175
f 385 406 407
f 386 385 407
f 247 769 770
f 775 247 770
f 156 155 175
f 176 156 175
f 387 386 407
f 387 407 408
f 157 156 176
f 177 157 176
f 247 262 760
f 693 760 262
f 692 693 262
f 389 388 409
f 389 409 410
f 158 177 178
f 159 158 178
f 247 760 761
f 769 247 761
f 393 392 413
f 393 413 414
f 160 159 178
f 160 178 179
f 396 395 416
f 417 396 416
f 161 160 179
f 161 179 180
f 399 398 418
f 399 418 419
f 163 162 182
f 163 182 183
f 399 419 420
f 400 399 420
f 164 163 183
f 164 183 184
f 401 400 420
f 401 420 421
f 194 195 166
f 194 166 165
f 402 401 421
f 402 421 422
f 167 166 196
f 195 196 166
f 403 402 422
f 403 422 423
f 196 197 168
f 196 168 167
f 801 403 423
f 802 801 423
f 802 423 424
f 785 171 170
f 795 171 785
f 405 404 425
f 405 425 426
f 796 198 172
f 795 172 171
f 796 172 795
f 406 405 426
f 427 406 426
f 407 406 427
f 198 199 173
f 198 173 172
f 408 407 427
f 408 427 428
f 199 200 174
f 199 174 173
f 433 434 410
f 433 410 409
f 200 201 175
f 200 175 174
f 434 435 411
f 434 411 410
f 202 185 176
f 201 202 176
f 201 176 175
f 435 436 412
f 435 412 411
f 178 177 185
f 178 185 186
f 436 437 413
f 436 413 412
f 178 186 187
f 179 178 187
f 179 187 205
f 206 188 205
f 179 205 188
f 437 438 414
f 437 414 413
f 207 208 190
f 181 180 189
f 181 189 190
f 207 190 189
f 439 416 415
f 439 440 416
f 438 439 415
f 438 415 414
f 183 182 191
f 210 192 191
f 183 191 192
f 209 210 191
f 440 441 417
f 440 417 416
f 185 202 203
f 186 185 203
f 441 442 418
f 441 418 417
f 187 186 203
f 187 203 204
f 442 443 429
f 419 418 429
f 442 429 418
f 214 195 194
f 213 214 194
f 214 215 196
f 214 196 195
f 215 216 197
f 215 197 196
f 807 198 796
f 807 199 198
f 810 199 807
f 810 217 200
f 810 200 199
f 811 217 810
f 217 218 201
f 217 201 200
f 219 220 202
f 219 202 201
f 218 219 201
f 220 221 203
f 220 203 202
f 221 222 204
f 221 204 203
f 222 212 205
f 222 205 204
f 206 205 212
f 212 207 206
f 223 207 212
f 223 224 208
f 223 208 207
f 224 225 209
f 224 209 208
f 225 226 210
f 225 210 209
f 226 227 211
f 226 211 210
f 214 213 228
f 214 228 229
f 214 229 230
f 215 214 230
f 815 232 218
f 816 218 217
f 814 816 217
f 815 218 816
f 219 218 232
f 219 232 233
