v -2 -2 -0.019999999999999962
v -2 -1.8999999999999999 -0.033999999999999975
v -2 -1.8 -0.047999999999999932
v -2 -1.7 -0.061999999999999972
v -2 -1.6000000000000001 -0.075999999999999956
v -2 -1.2999999999999998 -0.11799999999999999
v -2 -1.1000000000000001 -0.14599999999999996
v -2 -0.79999999999999982 -0.188
v -2 -0.69999999999999996 -0.20199999999999999
v -2 -0.59999999999999987 -0.216
v -2 -0.5 -0.22999999999999998
v -2 -0.29999999999999982 -0.25800000000000001
v -2 -0.19999999999999996 -0.27200000000000002
v -2 -0.099999999999999867 -0.28600000000000003
v -2 0 -0.29999999999999999
v -2 0.40000000000000036 -0.35600000000000004
v -2 0.5 -0.37
v -2 0.90000000000000036 -0.42600000000000005
v -2 1 -0.44
v -2 1.4000000000000004 -0.49600000000000005
v -2 1.5 -0.51000000000000001
v -2 1.9000000000000004 -0.56600000000000006
v -2 2 -0.58000000000000007
v -1.8999999999999999 -2 -0.0049999999999999489
v -1.8999999999999999 -1.8999999999999999 -0.018999999999999961
v -1.8999999999999999 -1.8 -0.032999999999999918
v -1.8999999999999999 -1.7 -0.046999999999999958
v -1.8999999999999999 -1.6000000000000001 -0.060999999999999943
v -1.8999999999999999 -1.2999999999999998 -0.10299999999999998
v -1.8999999999999999 -1.1000000000000001 -0.13099999999999995
v -1.8999999999999999 -0.79999999999999982 -0.17299999999999999
v -1.8999999999999999 -0.69999999999999996 -0.18699999999999997
v -1.8999999999999999 -0.59999999999999987 -0.20099999999999998
v -1.8999999999999999 -0.5 -0.21499999999999997
v -1.8999999999999999 -0.29999999999999982 -0.24299999999999999
v -1.8999999999999999 -0.19999999999999996 -0.25700000000000001
v -1.8999999999999999 -0.099999999999999867 -0.27100000000000002
v -1.8999999999999999 0 -0.28499999999999998
v -1.8999999999999999 0.40000000000000036 -0.34100000000000003
v -1.8999999999999999 0.5 -0.35499999999999998
v -1.8999999999999999 0.90000000000000036 -0.41100000000000003
v -1.8999999999999999 1 -0.42499999999999999
v -1.8999999999999999 1.4000000000000004 -0.48100000000000004
v -1.8999999999999999 1.5 -0.495
v -1.8999999999999999 1.6000000000000001 -0.50900000000000001
v -1.8999999999999999 1.9000000000000004 -0.55100000000000005
v -1.8999999999999999 2 -0.56499999999999995
v -1.8 -2 0.010000000000000009
v -1.8 -1.8999999999999999 -0.0040000000000000036
v -1.8 -1.8 -0.01799999999999996
v -1.8 -1.7 -0.032000000000000001
v -1.8 -1.6000000000000001 -0.045999999999999985
v -1.8 -1.2999999999999998 -0.088000000000000023
v -1.8 -1.1000000000000001 -0.11599999999999999
v -1.8 -0.79999999999999982 -0.15800000000000003
v -1.8 -0.69999999999999996 -0.17200000000000001
v -1.8 -0.59999999999999987 -0.18600000000000003
v -1.8 -0.5 -0.20000000000000001
v -1.8 -0.29999999999999982 -0.22800000000000004
v -1.8 -0.19999999999999996 -0.24200000000000002
v -1.8 -0.099999999999999867 -0.25600000000000006
v -1.8 0 -0.27000000000000002
v -1.8 0.40000000000000036 -0.32600000000000007
v -1.8 0.5 -0.34000000000000002
v -1.8 0.90000000000000036 -0.39600000000000007
v -1.8 1 -0.41000000000000003
v -1.8 1.4000000000000004 -0.46600000000000008
v -1.8 1.5 -0.48000000000000004
v -1.8 1.6000000000000001 -0.49400000000000005
v -1.8 1.7000000000000002 -0.50800000000000001
v -1.8 1.9000000000000004 -0.53600000000000003
v -1.8 2 -0.55000000000000004
v -1.7 -2 0.025000000000000022
v -1.7 -1.8999999999999999 0.01100000000000001
v -1.7 -1.8 -0.0029999999999999472
v -1.7 -1.7 -0.016999999999999987
v -1.7 -1.6000000000000001 -0.030999999999999972
v -1.7 -1.2999999999999998 -0.073000000000000009
v -1.7 -1.1000000000000001 -0.10099999999999998
v -1.7 -0.79999999999999982 -0.14300000000000002
v -1.7 -0.69999999999999996 -0.157
v -1.7 -0.59999999999999987 -0.17100000000000001
v -1.7 -0.5 -0.185
v -1.7 -0.29999999999999982 -0.21300000000000002
v -1.7 -0.19999999999999996 -0.22700000000000001
v -1.7 -0.099999999999999867 -0.24100000000000002
v -1.7 0 -0.255
v -1.7 0.40000000000000036 -0.31100000000000005
v -1.7 0.5 -0.32500000000000001
v -1.7 0.90000000000000036 -0.38100000000000006
v -1.7 1 -0.39500000000000002
v -1.7 1.4000000000000004 -0.45100000000000007
v -1.7 1.5 -0.46500000000000002
v -1.7 1.7000000000000002 -0.49300000000000005
v -1.7 1.8000000000000003 -0.50700000000000012
v -1.7 1.9000000000000004 -0.52100000000000013
v -1.7 2 -0.53500000000000003
v -1.6000000000000001 -2 0.040000000000000036
v -1.6000000000000001 -1.8999999999999999 0.026000000000000023
v -1.6000000000000001 -1.8 0.012000000000000066
v -1.6000000000000001 -1.7 -0.001999999999999974
v -1.6000000000000001 -1.6000000000000001 -0.015999999999999959
v -1.6000000000000001 -1.2999999999999998 -0.057999999999999996
v -1.6000000000000001 -1.1000000000000001 -0.085999999999999965
v -1.6000000000000001 -0.79999999999999982 -0.128
v -1.6000000000000001 -0.69999999999999996 -0.14199999999999999
v -1.6000000000000001 -0.59999999999999987 -0.156
v -1.6000000000000001 -0.5 -0.16999999999999998
v -1.6000000000000001 -0.29999999999999982 -0.19800000000000001
v -1.6000000000000001 -0.19999999999999996 -0.21199999999999999
v -1.6000000000000001 -0.099999999999999867 -0.22600000000000001
v -1.6000000000000001 0 -0.23999999999999999
v -1.6000000000000001 0.40000000000000036 -0.29600000000000004
v -1.6000000000000001 0.5 -0.31
v -1.6000000000000001 0.90000000000000036 -0.36600000000000005
v -1.6000000000000001 1 -0.38
v -1.6000000000000001 1.4000000000000004 -0.43600000000000005
v -1.6000000000000001 1.5 -0.45000000000000001
v -1.6000000000000001 1.8000000000000003 -0.49200000000000005
v -1.6000000000000001 1.9000000000000004 -0.50600000000000001
v -1.6000000000000001 2 -0.52000000000000002
v -1.5 -2 0.055000000000000049
v -1.5 -1.8999999999999999 0.041000000000000036
v -1.5 -1.8 0.027000000000000079
v -1.5 -1.7 0.013000000000000039
v -1.5 -1.6000000000000001 -0.00099999999999994538
v -1.5 -1.2999999999999998 -0.042999999999999983
v -1.5 -0.79999999999999982 -0.11299999999999999
v -1.5 -0.69999999999999996 -0.12699999999999997
v -1.5 -0.59999999999999987 -0.14099999999999999
v -1.5 -0.5 -0.15499999999999997
v -1.5 -0.29999999999999982 -0.183
v -1.5 -0.19999999999999996 -0.19699999999999998
v -1.5 -0.099999999999999867 -0.21099999999999999
v -1.5 0 -0.22499999999999998
v -1.5 0.20000000000000018 -0.253
v -1.5 0.40000000000000036 -0.28100000000000003
v -1.5 0.5 -0.29499999999999998
v -1.5 0.90000000000000036 -0.35100000000000003
v -1.5 1.4000000000000004 -0.42100000000000004
v -1.5 1.5 -0.435
v -1.5 1.9000000000000004 -0.49100000000000005
v -1.5 2 -0.505
v -1.3999999999999999 -2 0.070000000000000034
v -1.3999999999999999 -1.8999999999999999 0.056000000000000022
v -1.3999999999999999 -1.8 0.042000000000000065
v -1.3999999999999999 -1.7 0.028000000000000025
v -1.3999999999999999 -1.6000000000000001 0.01400000000000004
v -1.3999999999999999 -0.69999999999999996 -0.11199999999999999
v -1.3999999999999999 -0.59999999999999987 -0.126
v -1.3999999999999999 -0.5 -0.13999999999999999
v -1.3999999999999999 -0.29999999999999982 -0.16800000000000001
v -1.3999999999999999 -0.19999999999999996 -0.182
v -1.3999999999999999 -0.099999999999999867 -0.19600000000000001
v -1.3999999999999999 0 -0.20999999999999999
v -1.3999999999999999 0.20000000000000018 -0.23800000000000002
v -1.3999999999999999 0.30000000000000027 -0.25200000000000006
v -1.3999999999999999 0.40000000000000036 -0.26600000000000007
v -1.3999999999999999 0.5 -0.28000000000000003
v -1.3999999999999999 0.90000000000000036 -0.33600000000000008
v -1.3999999999999999 1 -0.34999999999999998
v -1.3999999999999999 1.5 -0.42000000000000004
v -1.3999999999999999 1.9000000000000004 -0.47600000000000009
v -1.3999999999999999 2 -0.48999999999999999
v -1.2999999999999998 -2 0.085000000000000048
v -1.2999999999999998 -1.8999999999999999 0.071000000000000035
v -1.2999999999999998 -1.8 0.057000000000000078
v -1.2999999999999998 -1.7 0.043000000000000038
v -1.2999999999999998 -1.6000000000000001 0.029000000000000054
v -1.2999999999999998 -0.59999999999999987 -0.11099999999999999
v -1.2999999999999998 -0.5 -0.12499999999999997
v -1.2999999999999998 -0.29999999999999982 -0.153
v -1.2999999999999998 -0.19999999999999996 -0.16699999999999998
v -1.2999999999999998 -0.099999999999999867 -0.18099999999999999
v -1.2999999999999998 0 -0.19499999999999998
v -1.2999999999999998 0.30000000000000027 -0.23700000000000002
v -1.2999999999999998 0.40000000000000036 -0.25100000000000006
v -1.2999999999999998 0.5 -0.26500000000000001
v -1.2999999999999998 0.90000000000000036 -0.32100000000000006
v -1.2999999999999998 1 -0.33499999999999996
v -1.2999999999999998 1.4000000000000004 -0.39100000000000001
v -1.2999999999999998 1.5 -0.40500000000000003
v -1.2999999999999998 1.9000000000000004 -0.46100000000000008
v -1.2999999999999998 2 -0.47499999999999998
v -1.2 0.40000000000000036 -0.23600000000000004
v -1.2 0.5 -0.25
v -1.2 0.60000000000000009 -0.26400000000000001
v -1.2 0.90000000000000036 -0.30600000000000005
v -1.2 1 -0.32000000000000001
v -1.2 1.4000000000000004 -0.37600000000000006
v -1.2 1.5 -0.39000000000000001
v -1.2 1.9000000000000004 -0.44600000000000006
v -1.2 2 -0.46000000000000002
v -1.1000000000000001 -2 0.11500000000000002
v -1.1000000000000001 -1.8999999999999999 0.10100000000000001
v -1.1000000000000001 -1.8 0.08700000000000005
v -1.1000000000000001 -1.7 0.073000000000000009
v -1.1000000000000001 -0.29999999999999982 -0.12300000000000003
v -1.1000000000000001 -0.19999999999999996 -0.13700000000000001
v -1.1000000000000001 -0.099999999999999867 -0.15100000000000002
v -1.1000000000000001 0 -0.16500000000000001
v -1.1000000000000001 0.40000000000000036 -0.22100000000000006
v -1.1000000000000001 0.5 -0.23500000000000001
v -1.1000000000000001 0.60000000000000009 -0.24900000000000003
v -1.1000000000000001 0.70000000000000018 -0.26300000000000001
v -1.1000000000000001 0.90000000000000036 -0.29100000000000004
v -1.1000000000000001 1 -0.30500000000000005
v -1.1000000000000001 1.4000000000000004 -0.3610000000000001
v -1.1000000000000001 1.5 -0.375
v -1.1000000000000001 1.9000000000000004 -0.43100000000000005
v -1.1000000000000001 2 -0.44500000000000006
v -0.89999999999999991 0.90000000000000036 -0.26100000000000001
v -0.79999999999999982 -2 0.16000000000000006
v -0.79999999999999982 -1.8999999999999999 0.14600000000000005
v -0.79999999999999982 -1.8 0.13200000000000009
v -0.79999999999999982 -1.7 0.11800000000000005
v -0.79999999999999982 -0.099999999999999867 -0.10599999999999998
v -0.79999999999999982 0 -0.11999999999999997
v -0.79999999999999982 0.10000000000000009 -0.13399999999999998
v -0.79999999999999982 0.40000000000000036 -0.17600000000000002
v -0.79999999999999982 0.5 -0.18999999999999997
v -0.79999999999999982 0.90000000000000036 -0.24600000000000002
v -0.79999999999999982 1 -0.26000000000000001
v -0.79999999999999982 1.4000000000000004 -0.31600000000000006
v -0.79999999999999982 1.5 -0.32999999999999996
v -0.79999999999999982 1.9000000000000004 -0.38600000000000001
v -0.79999999999999982 2 -0.40000000000000002
v -0.69999999999999996 -2 0.17500000000000004
v -0.69999999999999996 -1.8999999999999999 0.16100000000000003
v -0.69999999999999996 -1.8 0.14700000000000008
v -0.69999999999999996 -1.7 0.13300000000000001
v -0.69999999999999996 0 -0.105
v -0.69999999999999996 0.10000000000000009 -0.11900000000000001
v -0.69999999999999996 0.20000000000000018 -0.13300000000000003
v -0.69999999999999996 0.90000000000000036 -0.23100000000000004
v -0.69999999999999996 1 -0.245
v -0.69999999999999996 1.4000000000000004 -0.30100000000000005
v -0.69999999999999996 1.5 -0.315
v -0.69999999999999996 1.9000000000000004 -0.37100000000000005
v -0.69999999999999996 2 -0.38500000000000001
v -0.59999999999999987 -2 0.19000000000000006
v -0.59999999999999987 -1.8999999999999999 0.17600000000000005
v -0.59999999999999987 -1.8 0.16200000000000009
v -0.59999999999999987 -1.7 0.14800000000000002
v -0.59999999999999987 -1.6000000000000001 0.13400000000000006
v -0.59999999999999987 0.90000000000000036 -0.21600000000000003
v -0.59999999999999987 1 -0.22999999999999998
v -0.59999999999999987 1.4000000000000004 -0.28600000000000003
v -0.59999999999999987 1.5 -0.29999999999999999
v -0.59999999999999987 1.9000000000000004 -0.35600000000000004
v -0.59999999999999987 2 -0.37
v -0.5 -2 0.20500000000000002
v -0.5 -1.8999999999999999 0.191
v -0.5 -1.8 0.17700000000000005
v -0.5 -1.7 0.16300000000000003
v -0.5 -1.6000000000000001 0.14900000000000002
v -0.5 0.90000000000000036 -0.20100000000000007
v -0.5 1 -0.21500000000000002
v -0.5 1.4000000000000004 -0.27100000000000007
v -0.5 1.5 -0.28500000000000003
v -0.5 1.9000000000000004 -0.34100000000000008
v -0.5 2 -0.35500000000000004
v -0.29999999999999982 -2 0.23500000000000004
v -0.29999999999999982 -1.8999999999999999 0.22100000000000003
v -0.29999999999999982 -1.8 0.20700000000000007
v -0.29999999999999982 -1.7 0.19300000000000006
v -0.29999999999999982 -1.6000000000000001 0.17900000000000005
v -0.29999999999999982 -1.2999999999999998 0.13700000000000001
v -0.29999999999999982 0.90000000000000036 -0.17100000000000004
v -0.29999999999999982 1 -0.185
v -0.29999999999999982 1.4000000000000004 -0.24100000000000005
v -0.29999999999999982 1.5 -0.255
v -0.29999999999999982 1.9000000000000004 -0.31100000000000005
v -0.29999999999999982 2 -0.32500000000000001
v -0.19999999999999996 -2 0.25000000000000006
v -0.19999999999999996 -1.8999999999999999 0.23600000000000002
v -0.19999999999999996 -1.8 0.22200000000000006
v -0.19999999999999996 -1.7 0.20800000000000002
v -0.19999999999999996 -1.6000000000000001 0.19400000000000003
v -0.19999999999999996 -1.2999999999999998 0.152
v -0.19999999999999996 -1.2 0.13800000000000001
v -0.19999999999999996 0.90000000000000036 -0.15600000000000006
v -0.19999999999999996 1 -0.17000000000000001
v -0.19999999999999996 1.4000000000000004 -0.22600000000000006
v -0.19999999999999996 1.5 -0.24000000000000002
v -0.19999999999999996 1.6000000000000001 -0.254
v -0.19999999999999996 1.9000000000000004 -0.29600000000000004
v -0.19999999999999996 2 -0.31
v -0.099999999999999867 -2 0.26500000000000007
v -0.099999999999999867 -1.8999999999999999 0.25100000000000006
v -0.099999999999999867 -1.8 0.23700000000000007
v -0.099999999999999867 -1.7 0.22300000000000003
v -0.099999999999999867 -1.6000000000000001 0.20900000000000005
v -0.099999999999999867 -1.2999999999999998 0.16700000000000001
v -0.099999999999999867 -1.1000000000000001 0.13900000000000004
v -0.099999999999999867 0.90000000000000036 -0.14100000000000004
v -0.099999999999999867 1 -0.155
v -0.099999999999999867 1.4000000000000004 -0.21100000000000005
v -0.099999999999999867 1.5 -0.22500000000000001
v -0.099999999999999867 1.6000000000000001 -0.23900000000000002
v -0.099999999999999867 1.7000000000000002 -0.253
v -0.099999999999999867 1.9000000000000004 -0.28100000000000003
v -0.099999999999999867 2 -0.29499999999999998
v 0 -2 0.28000000000000003
v 0 -1.8999999999999999 0.26600000000000001
v 0 -1.8 0.25200000000000006
v 0 -1.7 0.23800000000000002
v 0 -1.6000000000000001 0.22400000000000003
v 0 -1.2999999999999998 0.182
v 0 -1.1000000000000001 0.15400000000000003
v 0 0.90000000000000036 -0.12600000000000006
v 0 1 -0.14000000000000001
v 0 1.4000000000000004 -0.19600000000000006
v 0 1.5 -0.21000000000000002
v 0 1.7000000000000002 -0.23800000000000004
v 0 1.9000000000000004 -0.26600000000000007
v 0 2 -0.28000000000000003
v 0.10000000000000009 -1.7 0.253
v 0.10000000000000009 -1.6000000000000001 0.23900000000000005
v 0.40000000000000036 -2 0.34000000000000008
v 0.40000000000000036 -1.8999999999999999 0.32600000000000007
v 0.40000000000000036 -1.8 0.31200000000000011
v 0.40000000000000036 -1.7 0.29800000000000004
v 0.40000000000000036 -1.6000000000000001 0.28400000000000009
v 0.40000000000000036 1 -0.07999999999999996
v 0.40000000000000036 1.4000000000000004 -0.13600000000000001
v 0.40000000000000036 1.5 -0.14999999999999997
v 0.40000000000000036 1.9000000000000004 -0.20600000000000002
v 0.40000000000000036 2 -0.21999999999999997
v 0.5 -2 0.35500000000000004
v 0.5 -1.8999999999999999 0.34100000000000003
v 0.5 -1.8 0.32700000000000007
v 0.5 -1.7 0.313
v 0.5 -1.6000000000000001 0.29900000000000004
v 0.5 1.4000000000000004 -0.12100000000000007
v 0.5 1.5 -0.13500000000000001
v 0.5 1.9000000000000004 -0.19100000000000006
v 0.5 2 -0.20500000000000002
v 0.60000000000000009 1.5 -0.12000000000000001
v 0.80000000000000027 -2 0.40000000000000008
v 0.80000000000000027 -1.8999999999999999 0.38600000000000007
v 0.80000000000000027 1.4000000000000004 -0.076000000000000026
v 0.80000000000000027 1.5 -0.089999999999999983
v 0.80000000000000027 1.7000000000000002 -0.11800000000000001
v 0.80000000000000027 1.8000000000000003 -0.13200000000000001
v 0.80000000000000027 1.9000000000000004 -0.14600000000000002
v 0.80000000000000027 2 -0.15999999999999998
v 0.90000000000000036 -2 0.41500000000000004
v 0.90000000000000036 -1.8999999999999999 0.40100000000000002
v 0.90000000000000036 -1.8 0.38700000000000012
v 0.90000000000000036 1.4000000000000004 -0.061000000000000026
v 0.90000000000000036 1.5 -0.074999999999999983
v 0.90000000000000036 1.8000000000000003 -0.11700000000000002
v 0.90000000000000036 1.9000000000000004 -0.13100000000000003
v 0.90000000000000036 2 -0.14499999999999999
v 1 -2 0.43000000000000005
v 1 -1.8999999999999999 0.41600000000000004
v 1 -1.8 0.40200000000000002
v 1 0 0.14999999999999999
v 1 1.4000000000000004 -0.046000000000000069
v 1 1.5 -0.060000000000000026
v 1 1.9000000000000004 -0.11600000000000008
v 1 2 -0.13000000000000003
v 1.3000000000000003 -0.29999999999999982 0.23700000000000002
v 1.4000000000000004 -2 0.4900000000000001
v 1.4000000000000004 -1.8999999999999999 0.47600000000000009
v 1.4000000000000004 -1.8 0.46200000000000008
v 1.4000000000000004 -1.7 0.44800000000000006
v 1.4000000000000004 -1.6000000000000001 0.43400000000000005
v 1.4000000000000004 -0.29999999999999982 0.252
v 1.4000000000000004 -0.19999999999999996 0.23800000000000004
v 1.4000000000000004 -0.099999999999999867 0.22400000000000003
v 1.4000000000000004 0 0.21000000000000005
v 1.4000000000000004 0.40000000000000036 0.154
v 1.4000000000000004 0.5 0.14000000000000004
v 1.4000000000000004 1.4000000000000004 0.013999999999999985
v 1.4000000000000004 1.5 2.7755575615628914e-17
v 1.4000000000000004 1.9000000000000004 -0.056000000000000022
v 1.4000000000000004 2 -0.069999999999999979
v 1.5 -2 0.505
v 1.5 -1.8999999999999999 0.49099999999999999
v 1.5 -1.8 0.47700000000000004
v 1.5 -1.7 0.46299999999999997
v 1.5 -1.6000000000000001 0.44900000000000001
v 1.5 -0.29999999999999982 0.26699999999999996
v 1.5 -0.19999999999999996 0.253
v 1.5 -0.099999999999999867 0.23899999999999996
v 1.5 0 0.22499999999999998
v 1.5 0.40000000000000036 0.16899999999999993
v 1.5 0.5 0.15499999999999997
v 1.5 1.4000000000000004 0.028999999999999915
v 1.5 1.5 0.014999999999999958
v 1.5 1.9000000000000004 -0.041000000000000092
v 1.5 2 -0.055000000000000049
v 1.6000000000000001 -1.8999999999999999 0.50600000000000001
v 1.6000000000000001 -1.8 0.49200000000000005
v 1.6000000000000001 -0.099999999999999867 0.25399999999999995
v 1.6000000000000001 0 0.23999999999999999
v 1.7000000000000002 -1.8999999999999999 0.52100000000000002
v 1.7000000000000002 -1.8 0.50700000000000012
v 1.7000000000000002 -1.7 0.49299999999999999
v 1.8000000000000003 -1.8999999999999999 0.53600000000000003
v 1.8000000000000003 -1.8 0.52200000000000002
v 1.8000000000000003 -1.7 0.50800000000000001
v 1.8000000000000003 -1.6000000000000001 0.49400000000000005
v 1.9000000000000004 -2 0.56500000000000006
v 1.9000000000000004 -1.8999999999999999 0.55100000000000005
v 1.9000000000000004 -1.8 0.53700000000000014
v 1.9000000000000004 -1.7 0.52300000000000002
v 1.9000000000000004 -1.6000000000000001 0.50900000000000012
v 1.9000000000000004 -1.5 0.49500000000000005
v 1.9000000000000004 -1.2999999999999998 0.46700000000000003
v 1.9000000000000004 -1.2 0.45300000000000007
v 1.9000000000000004 -1.1000000000000001 0.43900000000000006
v 1.9000000000000004 -0.79999999999999982 0.39700000000000002
v 1.9000000000000004 -0.69999999999999996 0.38300000000000001
v 1.9000000000000004 -0.59999999999999987 0.36899999999999999
v 1.9000000000000004 -0.5 0.35500000000000004
v 1.9000000000000004 -0.29999999999999982 0.32700000000000001
v 1.9000000000000004 -0.19999999999999996 0.31300000000000006
v 1.9000000000000004 -0.099999999999999867 0.29899999999999999
v 1.9000000000000004 0 0.28500000000000003
v 1.9000000000000004 0.40000000000000036 0.22899999999999998
v 1.9000000000000004 0.5 0.21500000000000002
v 1.9000000000000004 0.90000000000000036 0.15899999999999997
v 1.9000000000000004 1 0.14500000000000002
v 1.9000000000000004 1.4000000000000004 0.088999999999999968
v 1.9000000000000004 1.5 0.075000000000000011
v 1.9000000000000004 1.9000000000000004 0.018999999999999961
v 1.9000000000000004 2 0.0050000000000000044
v 2 -2 0.58000000000000007
v 2 -1.8999999999999999 0.56600000000000006
v 2 -1.8 0.55200000000000005
v 2 -1.7 0.53800000000000003
v 2 -1.6000000000000001 0.52400000000000002
v 2 -1.5 0.51000000000000001
v 2 -1.2999999999999998 0.48199999999999998
v 2 -1.2 0.46799999999999997
v 2 -1.1000000000000001 0.45400000000000001
v 2 -0.79999999999999982 0.41199999999999998
v 2 -0.69999999999999996 0.39800000000000002
v 2 -0.59999999999999987 0.38400000000000001
v 2 -0.5 0.37
v 2 -0.29999999999999982 0.34199999999999997
v 2 -0.19999999999999996 0.32799999999999996
v 2 -0.099999999999999867 0.31399999999999995
v 2 0 0.29999999999999999
v 2 0.40000000000000036 0.24399999999999994
v 2 0.5 0.22999999999999998
v 2 0.90000000000000036 0.17399999999999993
v 2 1 0.15999999999999998
v 2 1.4000000000000004 0.10399999999999993
v 2 1.5 0.089999999999999969
v 2 1.9000000000000004 0.033999999999999919
v 2 2 0.019999999999999962
v -2 -2 -0.90000000000000002
v -2 2 -0.90000000000000002
v 2 -2 -0.90000000000000002
v 2 2 -0.90000000000000002
v -0.97999999999999998 -1.4090410229681589 -0.21948159818050966
v -1.208672575837461 -1.6186725758374612 0.039999999999999925
v -0.75132742416253884 -1.6186725758374612 0.039999999999999925
v -0.97999999999999998 -1.02 -0.33000000000000002
v -1.3500000000000001 -1.2486725758374611 -0.18867257583746117
v -1.3500000000000001 -0.79132742416253887 -0.18867257583746117
v -1.0988603063736171 -1.5333975533947326 -0.10951436913436069
v -0.86113969362638287 -1.5333975533947326 -0.10951436913436069
v -0.97999999999999998 -1.6494815981805098 0.02095897703184102
v -0.97999999999999998 -1.2222172313953772 -0.30183438476009899
v -0.54503891330356979 -1.5292613105743342 0.095259200909745156
v -0.78767998437426168 -1.3410775377689941 -0.2283746755079778
v -0.66525920090974511 -1.4549610866964302 -0.099261310574334238
v -0.78547948851592053 -1.1402202876061753 -0.29378182205841369
v -1.1723200156257383 -1.3410775377689941 -0.2283746755079778
v -1.4995143691343606 -1.1388603063736171 -0.10339755339473239
v -1.2947407990902549 -1.4549610866964302 -0.099261310574334238
v -1.1745205114840795 -1.1402202876061753 -0.29378182205841369
v -1.1723200156257383 -0.69892246223100585 -0.2283746755079778
v -1.4995143691343606 -0.90113969362638291 -0.10339755339473239
v -1.1745205114840795 -0.8997797123938247 -0.29378182205841369
v -1.3690410229681589 -1.02 -0.21948159818050955
v -1.0400038571480446 -1.4755750954465237 -0.17004385139077888
v -1.1554438807594263 -1.5814027021208106 -0.039050610461142499
v -0.91999614285195541 -1.4755750954465237 -0.17004385139077888
v -0.8045561192405738 -1.5814027021208106 -0.039050610461142499
v -0.97999999999999998 -1.5401512025609523 -0.11634848387204005
v -1.0957615041297708 -1.6417316351420828 0.025748717601144222
v -0.86423849587022916 -1.6417316351420828 0.025748717601144222
v -1.0400449701987553 -1.5973512343254939 -0.048977291133950829
v -0.91995502980124466 -1.5973512343254939 -0.048977291133950829
v -0.97999999999999998 -1.3184829579768498 -0.26713213171240829
v -0.97999999999999998 -1.1220846591744489 -0.32292477264807778
v -0.97999999999999998 -0.91791534082555104 -0.32292477264807778
v -0.64404703019273535 -1.5808722108353546 0.063361910358453732
v -0.45674098192195489 -1.4651107067055837 0.13490645449946348
v -0.88291171967837045 -1.3784868151248943 -0.23004770853882334
v -0.69612583781306459 -1.2975285399338752 -0.21449449122056868
v -0.82236307941964393 -1.4427262277604245 -0.17656042965186819
v -0.88257502519947217 -1.2850893071800684 -0.27398540445239611
v -0.70490645449946343 -1.5432590180780452 -0.035110706705583861
v -0.63336191035845368 -1.3559529698072645 -0.15087221083535457
v -0.76095660149245115 -1.4990848014728457 -0.10970928659009643
v -0.60010217348946848 -1.4984675659303215 -0.0075481167066709376
v -0.72384676905614587 -1.4019299988377854 -0.16975425678885175
v -0.88152738293596244 -1.0808594243067282 -0.32088937204040197
v -0.69422133466518177 -1.196620928436499 -0.24934482789939222
v -0.88173356714735218 -1.1828866003302365 -0.30513052207780494
v -0.78457876451229147 -1.2429315705289918 -0.26802068964149967
v -0.50153243406967851 -1.437548116706671 0.030102173489468531
v -0.56245188329332907 -1.3998978265105315 -0.068467565930321439
v -1.0770882803216295 -1.3784868151248943 -0.23004770853882334
v -1.2638741621869354 -1.2975285399338752 -0.21449449122056868
v -1.137636920580356 -1.4427262277604245 -0.17656042965186819
v -1.0774249748005278 -1.2850893071800684 -0.27398540445239611
v -1.4290506104611425 -1.1954438807594263 -0.15140270212081047
v -1.2550935455005365 -1.5432590180780452 -0.035110706705583861
v -1.3266380896415462 -1.3559529698072645 -0.15087221083535457
v -1.1990433985075488 -1.4990848014728457 -0.10970928659009643
v -1.3598978265105315 -1.4984675659303215 -0.0075481167066709376
v -1.2361532309438541 -1.4019299988377854 -0.16975425678885175
v -1.0784726170640375 -1.0808594243067282 -0.32088937204040197
v -1.2657786653348182 -1.196620928436499 -0.24934482789939222
v -1.0782664328526479 -1.1828866003302365 -0.30513052207780494
v -1.1754212354877085 -1.2429315705289918 -0.26802068964149967
v -1.4251107067055839 -1.2950935455005366 -0.11325901807804512
v -1.4997092865900963 -1.2390433985075489 -0.069084801472845736
v -1.397548116706671 -1.3998978265105315 -0.068467565930321439
v -1.2638741621869354 -0.74247146006612486 -0.21449449122056868
v -1.4290506104611425 -0.84455611924057383 -0.15140270212081047
v -1.5063484838720402 -1.02 -0.11015120256095218
v -1.3266380896415462 -0.68404703019273538 -0.15087221083535457
v -1.2361532309438541 -0.63807000116221479 -0.16975425678885175
v -1.0784726170640375 -0.95914057569327194 -0.32088937204040197
v -1.2657786653348182 -0.843379071563501 -0.24934482789939222
v -1.0782664328526479 -0.85711339966976363 -0.30513052207780494
v -1.1771394788395799 -1.02 -0.30325733496604074
v -1.1754212354877085 -0.7970684294710082 -0.26802068964149967
v -1.4251107067055839 -0.74490645449946347 -0.11325901807804512
v -1.3642512823988557 -1.1357615041297708 -0.21173163514208276
v -1.3642512823988557 -0.9042384958702292 -0.21173163514208276
v -1.4389772911339507 -1.0800449701987553 -0.16735123432549376
v -1.2757092182593699 -1.0809194492236505 -0.26560704476990132
v -1.4389772911339507 -0.9599550298012447 -0.16735123432549376
v -1.2757092182593699 -0.95908055077634946 -0.26560704476990132
v 1.02 1.3690410229681589 -0.039481598180509669
v 1.02 0.97999999999999998 -0.15000000000000002
v 1.3900000000000001 0.75132742416253884 -0.0086725758374611717
v 1.3900000000000001 1.208672575837461 -0.0086725758374611717
v 1.02 1.1822172313953772 -0.121834384760099
v 1.5395143691343607 0.86113969362638287 0.076602446605267605
v 1.2145205114840796 0.85977971239382467 -0.1137818220584137
v 1.2123200156257383 1.301077537768994 -0.048374675507977805
v 1.5395143691343607 1.0988603063736171 0.076602446605267605
v 1.2145205114840796 1.1002202876061753 -0.1137818220584137
v 1.4090410229681589 0.97999999999999998 -0.039481598180509558
v 1.02 1.2784829579768497 -0.087132131712408301
v 1.02 1.0820846591744488 -0.14292477264807779
v 1.3038741621869354 0.70247146006612482 -0.03449449122056869
v 1.4690506104611425 0.8045561192405738 0.02859729787918952
v 1.3666380896415462 0.64404703019273535 0.029127789164645423
v 1.1184726170640376 0.9191405756932719 -0.14088937204040197
v 1.3057786653348182 0.80337907156350097 -0.069344827899392225
v 1.465110706705584 0.70490645449946343 0.066740981921954878
v 1.5397092865900963 0.76095660149245115 0.11091519852715426
v 1.437548116706671 0.60010217348946848 0.11153243406967855
v 1.1170882803216295 1.3384868151248943 -0.050047708538823343
v 1.3038741621869354 1.2575285399338751 -0.03449449122056869
v 1.1174249748005278 1.2450893071800684 -0.093985404452396115
v 1.4690506104611425 1.1554438807594263 0.02859729787918952
v 1.5463484838720403 0.97999999999999998 0.069848797439047816
v 1.1184726170640376 1.0408594243067282 -0.14088937204040197
v 1.3057786653348182 1.156620928436499 -0.069344827899392225
v 1.1182664328526479 1.1428866003302365 -0.12513052207780495
v 1.21713947883958 0.97999999999999998 -0.12325733496604074
v 1.2154212354877085 1.2029315705289918 -0.088020689641499672
v 1.4042512823988558 0.86423849587022916 -0.03173163514208277
v 1.4042512823988558 1.0957615041297708 -0.03173163514208277
v 1.4789772911339507 0.91995502980124466 0.012648765674506235
v 1.3157092182593699 0.91908055077634943 -0.08560704476990133
v 1.4789772911339507 1.0400449701987553 0.012648765674506235
v 1.3157092182593699 1.0409194492236504 -0.08560704476990133
v 0.92291171967837049 1.3384868151248943 -0.050047708538823343
v 0.92257502519947221 1.2450893071800684 -0.093985404452396115
v 0.92173356714735222 1.1428866003302365 -0.12513052207780495
v 0.82457876451229151 1.2029315705289918 -0.088020689641499672
v 1.2656265504324513 1.3518948719401127 0.00057870049325188196
v 1.1889187879909273 1.3696615015172502 -0.01341479201377596
v -1.5153956288248656 -1.2246346242655333 -0.055860496926555127
v -1.5 -1.2766192480518104 -0.046273305272746514
v -1.5101727939905216 -1.2455102017225479 -0.05215449085742152
v 0.91317301501714054 1.3346612216649436 -0.049876618780521062
v 0.90000000000000036 1.3270601766208778 -0.050788424726922868
v 0.92350930881242355 1.3400513237891527 -0.049080789008617891
v 0.9219841434517142 1.3394709322201828 -0.049228308993068487
v 1 0.094067100387719302 0.1368306059457193
v -0.30444977712791182 -1.3044497771279118 0.13695550222872088
v 0.84117351455867462 1.293116332706497 -0.054860259395108392
v -1.526185781909124 -1.1542859268430796 -0.067327837528337431
v -0.30026709806172175 -1.2999999999999998 0.13695993529074174
v -0.29999999999999982 -1.299715845555647 0.1369602183777906
v -1.5300529520045716 -1.1091658089961689 -0.07422472954122207
v -1.5298904440726731 -1.1000000000000001 -0.075483566610900929
v 1.1513579547488317 1.3748454145419478 -0.019774664823547953
v -1.5289192506711007 -1.0452225309056693 -0.083006733273871369
v -0.5 -1.5081074246017381 0.13613503944424335
v -0.52636454818835587 -1.5336831803063369 0.13576096301463378
v -0.458176932865964 -1.4675356484349249 0.13672845085099489
v -1.5242393937992709 -1.0000071467404064 -0.088634908526233708
v -0.20626960232303582 -1.1999999999999997 0.13705955965154462
v 1 1.3638455042943645 -0.040938370601211069
v 1.0192774581824826 1.3698421989581746 -0.038886289126772042
v 1.0209839706025678 1.3701320790185441 -0.038670895472211024
v -0.19999999999999993 -1.193330032599522 0.13706620456393312
v -1.504291718952274 -0.90578499764203046 -0.098833858172956771
v -1.1193887819244965 -1.6563340958808588 0.063978456134645798
v -1.2046006260984368 -1.6234189070927718 0.046588553078222579
v -0.11227210658434995 -1.1000000000000001 0.1371591840123475
v -1.5 -0.89281922580991946 -0.10000530838661126
v -1.5024385320902531 -0.89944848107872433 -0.099442992462516533
v -0.099999999999999881 -1.0869442196433972 0.13717219075007564
v -1.3999999999999999 -1.4603645455203769 -0.0055489636271472192
v -1.1000000000000001 -1.6616945984004867 0.067637243776068168
v -1.065821269546773 -1.671144143576955 0.074086989668757777
v 1.1029294774732268 1.3755550422220215 -0.027138284290098989
v -1.2115620187400225 -1.620199737393152 0.045093660424037944
v -1.2214113657198038 -1.6141840491885635 0.042774062028428331
v 1.2782584648390702 0.40000000000000041 0.13573876972586049
v -1.4301504022886553 -1.4200471471111287 -0.015715959747740274
v 0 -0.98055840668727234 0.13727817693621816
v 1.2802964316713921 1.3463260425098513 0.0035588187993295965
v -1.4732847976084165 -1.3460912062617989 -0.032539950764610602
v -1.4812298732306051 -1.329777097833315 -0.036015687287926611
v -1.4922192908705336 -1.2999999999999998 -0.041832893630580001
v -1.4934049725949603 -1.2967872582638817 -0.042460529732300557
v 1.3692125482971473 0.5 0.13538188224457207
v 1.4000000000000006 0.53384944417261226 0.13526107781583432
v 1.4000000000000001 1.2747862657349889 0.031529922797101581
v -1.4684991687914921 -0.82021461989061428 -0.1054448285340378
v -1.4995330274646455 -0.8915497407156856 -0.10011299041950078
v -1.457812639456409 -0.79999999999999971 -0.10667189591846138
v 0.1500856344711885 0.69427307975262975 -0.074685385994689893
v -1.4274538276032898 -0.74345832614493101 -0.11003390848020311
v -1.4310439871131755 -0.74936446481964603 -0.10974557299222586
v -1.4232280325025166 -0.73774775438324425 -0.11019951926172331
v -1.3999999999999997 -0.70995961383829365 -0.11060565406263885
v 1.549486470814367 0.75491396932758259 0.12673501491629346
v 1.5353392239312023 0.72092936212965097 0.12937077289152918
v 1.3701079104287963 1.3000191812022541 0.023513501196003841
v 1.3582220708695112 1.3081188345244545 0.020596673797003019
v -1.3 -1.5601080951000987 0.023415133314013847
v 1.466807307272016 1.2121824268200341 0.050315556335997609
v 1.4962871437310612 1.1722500223510397 0.060328068430513596
v 1.45208691145875 0.59111670417722506 0.13505669813400098
v -1.3487838199762985 -1.5193083612049505 0.010385597572248316
v -1.3667830249875954 -1.5023180652107899 0.0053070753813712988
v 1.4849377003757271 0.63376978741005263 0.13401288481895166
v 1.5 0.656314712504664 0.133115940249347
v -1.3814808518600428 -1.485128522684273 0.00069586539679180931
v 1.5000000000000002 1.1660330000860606 0.061755379987951511
v -1.3916747853792455 -0.69999999999999996 -0.11075121780688681
v 0.34686797908538786 0.86827068120619844 -0.069527698506059596
v 0.38347137258101766 0.90000000000000024 -0.068479294112847394
v -0.55983390648146603 -1.5598339064814661 0.13440166093518538
v -0.57973739595645069 -1.5753851667904228 0.13359331395719162
v 0.40000000000000036 0.91432769037284767 -0.068005876652198621
v 1.4409893864571173 1.240185749733463 0.042522403005882732
v -1.3606965171424126 -0.6629401038804722 -0.11129286302809577
v -1.3015969091127209 -0.60632004818296503 -0.110354729621293
v -1.2999999999999998 -0.60487061466854264 -0.11031811394640401
v -0.59999999999999987 -1.5890025267564925 0.132460353745909
v -0.60919816173400754 -1.5951840954773195 0.13194604910672364
v 0.40871636702367342 0.92188339386386198 -0.067756220087389685
v 0.49883279503544448 1 -0.065175080744683339
v 1.512780789790827 0.67544472290625157 0.13235485726174881
v 0.5 1.0010117810093895 -0.065141649341314542
v -0.61843337924194297 -1.6000000000000003 0.13123499311370862
v -0.69999999999999984 -1.6425346839390593 0.12495485575146831
v -0.7012890525285278 -1.6432068883453741 0.12485560648907322
v -1.2425043572108947 -1.6000000000000001 0.037624346418365845
v 0.82711600118390294 1.2832288594461054 -0.055584640144869323
v 1.5561486179557322 0.77605703796081393 0.12477430737884583
v -1.29250216406594 -1.5663788158236447 0.025417709605419302
v 1.539891716102858 1.0990785479482383 0.077112760702675281
v 1.5395163230473823 1.0998645727566867 0.076946408271171177
v -1.2946338146100838 -0.59999999999999987 -0.11019507219151257
v 1.5402380751929927 1.098156603528222 0.077293786784997806
v 1.5696240932626693 0.84372549885665615 0.11732204414946849
v 1.5753810197822866 0.89601499115178296 0.11086505420609334
v 1.5752873364739319 0.90000000000000036 0.11029310047108969
v 1.5741366422670242 0.94894710356237022 0.10326790184132176
v 1.567346650587585 1 0.095101997588137699
v 1.5669454187529654 1.0030168000591728 0.094619460804660577
v -1.1844591086417795 -0.5 -0.1076688662962669
v -1.1000000000000001 -0.42334074513792952 -0.10573229568068986
v 0.70737770782998521 1.1807752612247175 -0.05920188039696269
v 0.80000000000000027 1.260027160032746 -0.056403802404584411
v -1.0199533049713494 -1.6797324303533359 0.082169544503764638
v -0.91000357254117858 -1.6866900572237609 0.099636072130149772
v -0.93065366028062579 -1.6868444106503298 0.096560168448952322
v 0.95761888465312106 0.047470934789048638 0.13699690182750135
v -0.8103424122945142 -1.6750412466523794 0.11295441268715602
v -0.96410969670517022 -0.29999999999999982 -0.10261645450577554
v -0.79738478343989838 -1.6723577875629831 0.1145223727428329
v -0.79999999999999982 -1.6728993856229124 0.11420591398720779
v -0.85393499073686574 -0.19999999999999996 -0.10009024861052988
v -0.79999999999999982 -0.15104594084200934 -0.098853568282118665
v -0.70329501124783356 -1.644059218489367 0.12467403890133635
v -0.7615930023339772 -1.6615930023339773 0.11838406997666026
v -0.74376028476856126 -0.099999999999999867 -0.097564042715284197
v -0.69999999999999996 -0.060738605936158895 -0.096496595168937757
v -0.73109956944022625 -0.088508509991415393 -0.097273744017235778
v -0.63197871734610633 -0 -0.094796807601915944
v -0.43551726753414216 -1.4438869923177711 0.13681658879436662
v -0.40626840262316077 -1.4127703496017847 0.13684758855077578
v -0.4410940316901707 -1.4497071567306663 0.13679489718876769
v 0.97999999999999998 -1.3690410229681589 -0.16948159818050962
v 1.6094815981805097 -0.97999999999999998 0.070958977031841175
v 0.75132742416253884 -1.5786725758374611 0.089999999999999969
v 1.208672575837461 -1.5786725758374611 0.089999999999999969
v 0.97999999999999998 -0.97999999999999998 -0.27999999999999997
v 1.5786725758374611 -0.60999999999999988 0.2313274241625389
v 1.5786725758374611 -1.3500000000000001 0.2313274241625389
v 1.3500000000000001 -1.208672575837461 -0.13867257583746112
v 1.3500000000000001 -0.75132742416253884 -0.13867257583746112
v 0.65892246223100592 -1.6183746755079778 0.26767998437426177
v 0.86113969362638287 -1.4933975533947326 -0.059514369134360645
v 0.85977971239382467 -1.6837818220584135 0.26547948851592063
v 1.301077537768994 -1.6183746755079778 0.26767998437426177
v 1.0988603063736171 -1.4933975533947326 -0.059514369134360645
v 1.1002202876061753 -1.6837818220584135 0.26547948851592063
v 0.97999999999999998 -1.6094815981805097 0.070958977031841064
v 0.97999999999999998 -1.1822172313953772 -0.25183438476009895
v 1.6183746755079778 -0.78767998437426168 0.13892246223100585
v 1.4149610866964302 -0.47073868942566577 0.1452592009097452
v 1.4933975533947326 -1.4995143691343609 0.34113969362638286
v 1.6183746755079778 -1.1723200156257383 0.13892246223100585
v 1.4149610866964302 -1.4892613105743342 0.1452592009097452
v 1.1723200156257383 -1.301077537768994 -0.17837467550797775
v 1.4995143691343606 -1.0988603063736171 -0.053397553394732344
v 1.2947407990902549 -1.4149610866964302 -0.049261310574334194
v 1.1745205114840795 -1.1002202876061753 -0.24378182205841364
v 1.4892613105743342 -1.2947407990902549 0.025038913303569887
v 1.4995143691343606 -0.86113969362638287 -0.053397553394732344
v 1.1745205114840795 -0.85977971239382467 -0.24378182205841364
v 1.4892613105743342 -0.66525920090974511 0.025038913303569887
v 1.3690410229681589 -0.97999999999999998 -0.16948159818050951
v 1.691834384760099 -0.97999999999999998 0.25778276860462296
v 1.6837818220584135 -0.78547948851592053 0.33977971239382465
v 1.6837818220584135 -1.1745205114840795 0.33977971239382465
v 0.54503891330356979 -1.4892613105743342 0.1452592009097452
v 0.78767998437426168 -1.301077537768994 -0.17837467550797775
v 0.66525920090974511 -1.4149610866964302 -0.049261310574334194
v 0.78547948851592053 -1.1002202876061753 -0.24378182205841364
v 0.70247146006612482 -1.6044944912205688 0.17612583781306468
v 0.91999614285195541 -1.4355750954465236 -0.12004385139077883
v 0.8045561192405738 -1.5414027021208105 0.010949389538857546
v 0.9191405756932719 -1.7108893720404019 0.36152738293596243
v 0.80337907156350108 -1.6393448278993921 0.17422133466518186
v 0.75706842947100828 -1.6580206896414995 0.26457876451229156
v 1.3384868151248943 -1.6200477085388232 0.36291171967837055
v 1.2575285399338751 -1.6044944912205688 0.17612583781306468
v 1.2450893071800684 -1.6639854044523961 0.36257502519947221
v 1.0400038571480446 -1.4355750954465236 -0.12004385139077883
v 1.1554438807594263 -1.5414027021208105 0.010949389538857546
v 0.97999999999999998 -1.5001512025609522 -0.066348483872040009
v 1.0408594243067282 -1.7108893720404019 0.36152738293596243
v 1.156620928436499 -1.6393448278993921 0.17422133466518186
v 1.1428866003302365 -1.6951305220778048 0.36173356714735222
v 0.97999999999999998 -1.6932573349660407 0.26286052116042014
v 1.2029315705289916 -1.6580206896414995 0.26457876451229156
v 0.86423849587022916 -1.6017316351420827 0.075748717601144266
v 1.0957615041297708 -1.6017316351420827 0.075748717601144266
v 0.91995502980124466 -1.5573512343254938 0.0010227088660492156
v 0.91908055077634943 -1.6556070447699014 0.16429078174063017
v 1.0400449701987553 -1.5573512343254938 0.0010227088660492156
v 1.0409194492236504 -1.6556070447699014 0.16429078174063017
v 0.97999999999999998 -1.2784829579768497 -0.21713213171240825
v 0.97999999999999998 -1.0820846591744488 -0.27292477264807774
v 0.97999999999999998 -0.877915340825551 -0.27292477264807774
v 1.5414027021208105 -0.53094938953885751 0.28455611924057378
v 1.6200477085388232 -0.88291171967837045 0.1015131848751058
v 1.6044944912205685 -0.69612583781306459 0.18247146006612486
v 1.5032590180780452 -0.53488929329441626 0.18490645449946352
v 1.4590848014728457 -0.46029071340990346 0.24095660149245121
v 1.4355750954465236 -1.5600438513907786 0.39999614285195539
v 1.5414027021208105 -1.4290506104611425 0.28455611924057378
v 1.4027262277604244 -1.5665604296518683 0.30236307941964402
v 1.6200477085388232 -1.0770882803216295 0.1015131848751058
v 1.6044944912205685 -1.2638741621869354 0.18247146006612486
v 1.3159529698072645 -1.5408722108353545 0.11336191035845378
v 1.5032590180780452 -1.4251107067055837 0.18490645449946352
v 1.3619299988377851 -1.5597542567888518 0.2038467690561459
v 1.4590848014728457 -1.4997092865900965 0.24095660149245121
v 1.0770882803216295 -1.3384868151248943 -0.18004770853882329
v 1.2638741621869354 -1.2575285399338751 -0.16449449122056864
v 1.137636920580356 -1.4027262277604244 -0.12656042965186814
v 1.0774249748005278 -1.2450893071800684 -0.22398540445239606
v 1.5600438513907786 -1.0400038571480446 0.0044249045534763831
v 1.4290506104611425 -1.1554438807594263 -0.10140270212081043
v 1.5665604296518683 -1.137636920580356 0.03727377223957562
v 1.2550935455005365 -1.5032590180780452 0.014889293294416184
v 1.3266380896415462 -1.3159529698072645 -0.10087221083535453
v 1.1990433985075488 -1.4590848014728457 -0.059709286590096389
v 1.3598978265105315 -1.4584675659303215 0.042451883293329107
v 1.2361532309438541 -1.3619299988377853 -0.11975425678885171
v 1.0784726170640375 -1.0408594243067282 -0.27088937204040192
v 1.2657786653348182 -1.156620928436499 -0.19934482789939217
v 1.0782664328526479 -1.1428866003302365 -0.2551305220778049
v 1.1754212354877085 -1.2029315705289918 -0.21802068964149962
v 1.5408722108353545 -1.3266380896415462 0.12404703019273539
v 1.4251107067055839 -1.2550935455005365 -0.063259018078045071
v 1.5597542567888518 -1.2361532309438541 0.078070001162214797
v 1.4584675659303215 -1.397548116706671 0.080102173489468576
v 1.4997092865900963 -1.1990433985075488 -0.019084801472845692
v 1.397548116706671 -1.3598978265105315 -0.018467565930321395
v 1.2638741621869354 -0.70247146006612482 -0.16449449122056864
v 1.5600438513907786 -0.91999614285195541 0.0044249045534763831
v 1.4290506104611425 -0.8045561192405738 -0.10140270212081043
v 1.5665604296518683 -0.82236307941964393 0.03727377223957562
v 1.5063484838720402 -0.97999999999999998 -0.060151202560952133
v 1.3266380896415462 -0.64404703019273535 -0.10087221083535453
v 1.3598978265105315 -0.50153243406967851 0.042451883293329107
v 1.0784726170640375 -0.9191405756932719 -0.27088937204040192
v 1.2657786653348182 -0.80337907156350097 -0.19934482789939217
v 1.0782664328526479 -0.8171133996697636 -0.2551305220778049
v 1.1771394788395799 -0.97999999999999998 -0.25325733496604069
v 1.1754212354877085 -0.75706842947100816 -0.21802068964149962
v 1.5408722108353545 -0.63336191035845368 0.12404703019273539
v 1.4251107067055839 -0.70490645449946343 -0.063259018078045071
v 1.5597542567888518 -0.72384676905614587 0.078070001162214797
v 1.4584675659303215 -0.56245188329332907 0.080102173489468576
v 1.4997092865900963 -0.76095660149245115 -0.019084801472845692
v 1.397548116706671 -0.60010217348946848 -0.018467565930321395
v 1.3642512823988557 -1.0957615041297708 -0.16173163514208272
v 1.3642512823988557 -0.86423849587022916 -0.16173163514208272
v 1.4389772911339507 -1.0400449701987553 -0.11735123432549371
v 1.2757092182593699 -1.0409194492236504 -0.21560704476990128
v 1.4389772911339507 -0.91995502980124466 -0.11735123432549371
v 1.2757092182593699 -0.91908055077634943 -0.21560704476990128
v 1.6017316351420827 -1.3642512823988557 0.34423849587022914
v 1.5573512343254938 -1.4389772911339507 0.3999550298012447
v 1.6571321317124084 -0.97999999999999998 0.16151704202315037
v 1.7129247726480776 -0.97999999999999998 0.3579153408255511
v 1.6639854044523961 -0.88257502519947217 0.19491069281993162
v 1.6639854044523961 -1.0774249748005278 0.19491069281993162
v 1.6393448278993921 -0.69422133466518177 0.28337907156350106
v 1.6580206896414995 -0.78457876451229147 0.23706842947100826
v 1.6951305220778048 -0.88173356714735218 0.29711339966976363
v 1.6393448278993921 -1.2657786653348182 0.28337907156350106
v 1.7108893720404019 -1.0784726170640375 0.39914057569327188
v 1.6580206896414995 -1.1754212354877085 0.23706842947100826
v 1.6556070447699014 -1.2757092182593699 0.39908055077634952
v 1.6951305220778048 -1.0782664328526479 0.29711339966976363
v 0.55727377223957553 -1.5665604296518683 0.30236307941964402
v 0.64404703019273535 -1.5408722108353545 0.11336191035845378
v 0.45674098192195489 -1.4251107067055837 0.18490645449946352
v 0.59807000116221487 -1.5597542567888518 0.2038467690561459
v 0.50091519852715416 -1.4997092865900965 0.24095660149245121
v 0.88291171967837045 -1.3384868151248943 -0.18004770853882329
v 0.69612583781306459 -1.2575285399338751 -0.16449449122056864
v 0.82236307941964393 -1.4027262277604244 -0.12656042965186814
v 0.88257502519947217 -1.2450893071800684 -0.22398540445239606
v 0.70490645449946343 -1.5032590180780452 0.014889293294416184
v 0.63336191035845368 -1.3159529698072645 -0.10087221083535453
v 0.76095660149245115 -1.4590848014728457 -0.059709286590096389
v 0.60010217348946848 -1.4584675659303215 0.042451883293329107
v 0.72384676905614587 -1.3619299988377853 -0.11975425678885171
v 0.88152738293596244 -1.0408594243067282 -0.27088937204040192
v 0.69422133466518177 -1.156620928436499 -0.19934482789939217
v 0.88173356714735218 -1.1428866003302365 -0.2551305220778049
v 0.78457876451229147 -1.2029315705289918 -0.21802068964149962
v 0.50153243406967851 -1.397548116706671 0.080102173489468576
v 0.56245188329332907 -1.3598978265105315 -0.018467565930321395
v -0.76925207847938692 0.4307479215206132 -0.17569252078479386
v -0.76165543891719512 0.40000000000000036 -0.17024831583757932
v -0.59889025082865643 0.016303069645893384 -0.10201113812294194
v -0.59673640700500863 0.016250634990858312 -0.10315697069699363
v 1.6707931468984649 -1.2359514867301631 0.42365218017699263
v 1.682330997273253 -1.2 0.42034964959098803
v 1.6899600620548156 -1.1762281350209542 0.41816594821115588
v -0.61140116714756609 0.016607643995320318 -0.095355402320722302
v -0.61332727193622028 0.016654534414693195 -0.094330725608490096
v -0.77800149287385356 0.49562583132828075 -0.18608784031703735
v -0.77812647145618596 0.5 -0.18671897071842791
v -0.77704955875882575 0.46230875966857088 -0.18128066016742378
v 0.027608817025444501 -0.95118654224718402 0.13730743846842247
v 0.066553618681875565 -1.0004315823274996 0.15004346432813132
v 1.7154616965422176 -0.97999999999999998 0.39451925448133263
v 1.7078807311568527 -1.0953086271596064 0.40952531747587279
v 1.7068417661096231 -1.1000000000000003 0.41002626491644351
v 1.7108893720404019 -1.0784726170640375 0.40761957219502554
v 1.7119435483567542 -1.0670785066713753 0.40618252318750564
v 0.98667372656357211 -1.7133262734364278 0.38786673726563575
v 1 -1.7135136411916734 0.3898919097668343
v 1.652358439928215 -0.69999999999999996 0.34585376598923218
v 0.10566552067873018 -1.0498879179494947 0.16283413661473881
v 0.12558974591875544 -1.0746623019085577 0.1692911841550114
v 0.1459670035196643 -1.1000000000000003 0.17589505052794968
v 1.6556070447699012 -1.2757092182593699 0.42694034727179692
v 0 0.61294564684652342 -0.08581239055851328
v 0.036622906858323243 0.59394780668139113 -0.077659256906646282
v 0.93010628511302207 -1.7125309337208556 0.37927027348787312
v 0.9128728565533043 -1.7111988261741908 0.37649876414738237
v 0.90000000000000036 -1.7090173018966042 0.37426242226552464
v 1.6892747705195679 -0.79999999999999982 0.36539121557793508
v 1.6855911724339323 -0.7849793963716386 0.36273579135711931
v 1.6755300568699627 -0.75584356843455225 0.35714760811133173
v 0.72402806249935925 -1.6626954274687311 0.34138156922052626
v 0.69926942186022434 -1.6512432662818333 0.33606447055849037
v 1.6113701284194342 -0.62098262060158738 0.32864308614713728
v 1.598470930946017 -0.59999999999999987 0.3237706396419025
v 0.63745647921148707 -1.6193346859965405 0.3223253279212388
v -0.43755902585793233 0.019206219841231942 -0.16913517802669067
v -0.41714090620707173 0.0203130087850657 -0.17529617242897813
v -0.4530111516773459 0.020386401717386461 -0.16363687775262248
v 0.037883835864297492 0.4536803127874216 -0.1433143129312382
v 0.039201885836514003 0.5125994392312464 -0.11933770437637509
v 0.81577552651957097 -1.6943036709983499 0.35956884291770463
v 1.6478145673135847 -0.68904927256691229 0.34363908325640535
v 0.48653969512719647 -1.4996276249223288 0.28292882175820555
v 0.5 -1.512396502685545 0.28673551037597639
v 1.5162391191686628 -0.5 0.29743586787529946
v 0.62191612968806798 0.019272180971589375 -0.095276932329227737
v 0.6609311982842323 0.021659861164578478 -0.074243935181061968
v 0.031588405080008604 -0.59299110720081916 -0.1379129939112464
v 0.035072103906874347 -0.56633059821393616 -0.14868667646577416
v 0.032869673206403174 -0.6480437030955255 -0.11084894597391158
v 0.032517398276012667 -0.63290741039682452 -0.11829000019730682
v 0.66293787978273599 0.021439901553205156 -0.072998163551309628
v 0.6205939682349586 0.019191266114148037 -0.095989708676246607
v 0.40000000000000036 -1.4027263624408961 0.25638169074172551
v 0.84679021681975808 -1.6999999999999997 0.36501853252296368
v 1.5000000000000002 -0.48462916218757102 0.29284808270625995
v 1.4743784847030312 -0.46037759090171304 0.28560963543169449
v 1.527723087279049 -0.5108699375523077 0.30068025434918039
v 0.60800076084875576 -1.6000000000000001 0.31520011412731341
v 0.73602014931308457 0.013429089864273746 -0.027627825464916121
v 0.70265566812681435 0.017086291229252072 -0.048340890360493598
v 0.033817598365204107 -0.68877346108360682 -0.090826055050225382
v 1.5443286258760434 -0.52912823694510047 0.30572724705372056
v 1.5974747793726285 -0.59837959915187278 0.32339436078715644
v 1.571867114356603 -0.56367122537831749 0.31469403870645485
v -0.5 0.78719773835127183 -0.18520768336917809
v -0.49256049437329652 0.78588373714762438 -0.18390779735666191
v 0.81789368271267104 -1.694922976648664 0.3599732691377136
v 0.82775744403396601 -1.696774573247976 0.36171205685981156
v 0.031529929611940094 -0.74749923403197394 -0.053675419160079778
v 0.031131019800448953 -0.72831352785445225 -0.066674428651952902
v 0.84545204771129634 0.0080061044940938405 0.058243787860094834
v 0.83254195832012479 0.0094521273783480797 0.047579532238846915
v 0.81437126465223619 0.011487375785265269 0.032569804868386891
v 0.032719793459184986 -0.80472614975801759 -0.01490211502259518
v -0.34071044660500971 0.75906325262171004 -0.1573754223577909
v -0.29999999999999982 0.74328164076661085 -0.14905942970732552
v 0.55808214997571326 -1.5672335043834837 0.30312501311004475
v 0.55710029509562897 -1.5665260151510143 0.30287868638548637
v 0.55647156988910973 -1.5659672486548952 0.30270615029505182
v 0.91850069712922933 0.0044622143043634085 0.1371503945667735
v 0.9242712260091015 -0 0.13864068390136519
v -0.19999999999999998 0.7045161317359212 -0.128632258443029
v 0.030821191988454094 -0.71341225143726494 -0.076770582100554541
v 0.78237472479118253 0.015071218426020107 0.0061393697462981539
v 1.1156331300081741 -1.7031065022949121 0.40577987982251379
v 1.1308265379057989 -1.7000000000000002 0.40762398068586986
v 1.0561506728319516 -1.7116443420639864 0.39805280881375082
v -0.041506879616611134 0.020577779557837753 -0.23846039181357279
v -0.015812100894002919 -0.0029418382497358327 -0.23955878602661165
v 0.040325487539801426 0.10241014671425031 -0.23109547876949565
v 0.064054935281782563 0.072848598342410434 -0.23265329149022487
v 1.021326191772119 -1.7138134880092655 0.39313281708711506
v 0.0335874881820412 -0.45194029419874154 -0.1879810385882896
v 0.033278860730088664 -0.3869706261133023 -0.20402293285167508
v -0.74305130879801806 0.32469850278131784 -0.1569154867090872
v -0.75094347005370754 0.35664256869774069 -0.16257148012573985
v -0.39737661731379653 0.021384356039556452 -0.18125987894646489
v 0.085781807777542143 0.045781807777542108 -0.23407963730002124
v 0.083264646708109263 0.048917623643248337 -0.23391438838328601
v 0.011791401240123591 -0.028208598759876441 -0.24073877388838888
v 1.3791838215006027 -1.6000000000000001 0.4308775732250904
v 1.3595102919963589 -1.6127774700865993 0.42971538961157774
v 1.3000285178883673 -1.6438162433804431 0.42513855175651716
v 1.2655264330610605 -1.6597911581108908 0.42219972709468384
v 0.8601624148947965 0.0080982567254666155 0.073372826026163185
v 0.8883346187542509 0.0076810638827415987 0.10290749137651141
v 0.90300334326271281 0.0061158482417661237 0.11955863532117889
v 0.85011839718136362 0.0082469952594894265 0.062843060466495834
v 0.90751353190334905 0.0056345918244135804 0.12467835791393168
v 0.029549160998267102 -0.82699510421546962 0.0028485429614810874
v 0.029650980430312768 -0.83374860874734513 0.0093317165850629775
v 1.1628076341753628 -1.6934610227261302 0.41150568830796269
v 1.2101921101583539 -1.6794430037207881 0.41665083704466344
v -0.35465253951362941 0.023700266503070864 -0.19415150700383257
v -0.33534481632385482 0.020604017233599996 -0.19894884986482264
v 0.033242452959775216 -0.37930636702672182 -0.20591534260990915
v 0.033092947584238981 -0.34783374667449379 -0.21368636042114636
v -0.096574430314624662 0.019199114874905839 -0.23442551464074871
v 0.045436106612226537 0.11389593475853912 -0.22956791162232948
v 0.048703921169783823 0.16304875102428082 -0.22158972142203565
v -0.1156601128636698 0.018721287985086175 -0.23302707973909101
v 0.051124395228807053 0.19945629943427817 -0.21568026662353595
v 1.3999712164313893 -1.5864991019100487 0.43210555673211526
v 1.4000000000000004 -1.5864777144506061 0.43210688002308489
v 0.91305957093169909 0.0050428057405161259 0.13097392193045729
v 0.029686138860415212 -0.83608060581568511 0.011570367912292242
v 0.029953840356901493 -0.85383677704338079 0.028615790835437718
v 0.03069162815376365 -0.90277294894655413 0.075593133846653407
v 0.030729518721474215 -0.9052861639155183 0.078005749240672287
v -0.17652941276637335 0.017197371395607678 -0.22856710021230847
v 0.036633494297434961 0.25778652748031922 -0.2047895286342975
v 0.051783457151180344 0.20936957603170395 -0.21407120304974619
v -0.19678684170449395 0.024366191478390333 -0.22579735887447111
v 0.029911529662097102 -0.85103038278869514 0.02592173160685873
v 0.029811616337803805 -0.84440330704438304 0.01955992604883806
v 0.029737214081086188 -0.83946833571495361 0.014822492942059104
v 0.0863408337789974 0.045925356493698472 -0.23402867802933022
v 0.10787664219347164 0.05145539917729406 -0.23206553304557928
v 0.02500895596764241 -0.098362945806671404 -0.23941937740490576
v 0.15658996570854475 0.044243448620132471 -0.22759425391268095
v 0.029724037007945778 -0.83859432354082752 0.0139834659380437
v -0.63130681366380492 0.050922102377206617 -0.10182511638237966
v -0.6522601091059379 0.090857406985127384 -0.11055905334380853
v -0.589742040077328 0.016080359313014315 -0.10687793382933132
v -0.58218680041790882 0.015896429363730421 -0.11089727804151669
v -0.58103108204133647 0.015805145916731086 -0.11148026999630926
v -0.58072280099898343 0.015780796597068991 -0.11163577965259748
v -0.57687997644214839 0.015477274321337857 -0.11357425865036011
v 0.1626012116912901 0.043353490684885421 -0.22704249606111385
v 0.22739169823269106 0.033761334950193234 -0.22109553269300658
v 0.028372928658995208 -0.11621778450491874 -0.23908358051728149
v 0.037051470062425831 -0.16228057130833989 -0.23821727527054701
v 0.23121165806562563 0.031879616694859926 -0.22074285835025906
v -0.10710044374599309 0.66850314586680359 -0.10965550698325149
v -0.099999999999999867 0.66481984743531297 -0.10807477864094381
v 0.29626934832803103 0.029825540745980341 -0.20691449515219049
v 0.029041218283464145 -0.18837325965422985 -0.236789925454302
v 0.034109410776889407 -0.25373301817764138 -0.22796663981029031
v 0.027636386016779525 -0.93532855585502428 0.11526167742416057
v 0.027637045699552613 -0.93494909908377299 0.114734156899249
v 0.034321532535292298 -0.25646855494439996 -0.22759735413928892
v 0.038923604750290816 -0.31581719433996402 -0.21958554366445468
v 0.32577003658852277 0.028894111210334993 -0.2006439646397537
v 0.38186385207806123 0.02712305298780638 -0.18872092140495533
v -0.53163163672150049 0.79278466990438479 -0.19073459929483896
v 0.039275914204743835 0.29391303734233265 -0.19478470193791858
v 0.027649957274351308 -0.92752221955195668 0.10440931442467798
v 1.7115919190160296 -0.91551658341059206 0.38491110952988727
v 0.46926590542913282 0.02593050018736736 -0.15912064494196826
v 0.52624361814404474 0.023844024372727479 -0.13950298214656184
v 0.035590489357395158 -0.46680910441392209 -0.18366176373736032
v 1.7078711922987047 -0.88156687192223682 0.37960004091391886
v 0.027656650273628177 -0.92367233291062067 0.099057204841310573
v 0.028045779217613746 -0.92134402284904937 0.09639137946470587
v 0.028488074079715642 -0.91869760038798665 0.093361327638551428
v 1.4355750954465236 -1.5600438513907786 0.43374240351168752
v 0.028976506361826655 -0.91577511976964099 0.090015199851016178
v 0.029387741335521661 -0.91331454072065732 0.08719793157640518
v 0.38950139675296896 0.028851409263731361 -0.18658389609211004
v 0.043949740499596213 0.35781243170705479 -0.17708849023453366
v 0.045080527996578808 0.37327227802012153 -0.17280706134185445
v 0.030384196830718586 -0.90735235931206781 0.080371463417687056
v 1.6985214392594732 -0.83770513036329786 0.37205693413978264
v -0.2657820078449839 0.022492810766945415 -0.21242810066444026
v -0.69999999999999984 0.74682107601676551 -0.20955495064234717
v -0.66494824352622683 0.7670329027006757 -0.20712684290702862
v -0.71998414755866669 0.7352976555803693 -0.21093929391505173
v -0.72969696969696962 0.72969696969696962 -0.21161212121212117
v 0.037978848099732787 0.54182032362694477 -0.10541967192790863
v 0.038890129290590367 0.53241443799314769 -0.11009165341538454
v -0.4646099671096488 0.020547648760746089 -0.15926190952337516
v -0.47042458474609111 0.020628483731145869 -0.15706868836444465
v -0.26694528568810311 0.022461225042970007 -0.21220269122310342
v 0.037027035394219115 0.41537984141091944 -0.15890034526212621
v 1.4732548734419557 -1.5287129208361692 0.43500803993335702
v -0.46453816886958821 0.02054665061968626 -0.15928899116986003
v 0.039952378102527018 0.52145032401828351 -0.11553761985719231
v 0.038901296609484118 0.5322991733246738 -0.1101489063332102
v 1.4987594254964787 -1.5049401246407881 0.43550553127418212
v -0.019633267666547494 0.62313024749800228 -0.090183224799702436
v -0.017930006088961042 0.62224669417069323 -0.089804038097241218
v 1.6321452407527195 -1.3231826341839994 0.43006735489866793
v 1.6436023143429273 -1.2999999999999998 0.42854034715143907
v -0.71609672012354331 0.25369712635222608 -0.14293210570784315
v -0.69999999999999984 0.21263627826106352 -0.13476907895654888
v 1.6076509128265231 -1.3679095971966886 0.43265498053151491
v -0.47101693462861793 0.02063671859510674 -0.15684525934863017
v 0.037885243174004497 0.54278647681324199 -0.10493977561870549
v 0.53641253802294209 0.024990164097868504 -0.1353960262540089
v 0.036427723090792057 0.55783042521160264 -0.097467321545573207
v 0.03729176704374474 0.54891210374773214 -0.10189712586180337
v -0.47475153307048407 0.020688637082852419 -0.15543660260885159
v -0.48320576176837177 0.020806167997054547 -0.15224774404205002
v -0.500138707587369 0.021263994533441532 -0.14575830030660772
v 0.035151187155759468 -0.49755078092707677 -0.17298202199901527
v -0.4721556041748477 0.020652548409691211 -0.15641576349903741
v 0.037704903129107133 0.54464787574752971 -0.10401520331362107
v -0.73741334278869664 0.71373495174281065 -0.21053489466229797
v 0.036495107529087897 0.5702994409183948 -0.090628867065961155
v 0.036541582806012822 0.57889936358021499 -0.085912361687031605
v -0.51322133386193458 0.020277491456020556 -0.14027165934696303
v -0.78162049246930487 0.62228845109853925 -0.20436345702419123
v 1.2921841615512821 -0.29999999999999982 0.23582762423269227
v 1.2964582504096573 -0.30354174959034302 0.2369645825040966
v 1.5 -1.503632213817915 0.43550850993450813
v 1.5234286948756532 -1.4789318483770009 0.43556476300412811
v -0.55440548221485964 0.017171976688690704 -0.12299969647812034
v 0.036575503373674434 0.58517612571777811 -0.082469960685507701
v 1.17150683105822 -0.19999999999999998 0.20372602465873299
v 1.5868596605361132 -1.3993898212602338 0.43394352405684966
v 1.0508295005651573 -0.099999999999999881 0.1716244250847736
v 1.5573512343254938 -1.4389772911339507 0.43505950590757719
v -0.5671912591109991 0.016207857712076661 -0.11763754932609019
v -0.56537565485330166 0.016344764411848296 -0.11839898426107368
v 1.0122690302894224 -0.068046633018658112 0.16136688316602552
v -0.5738362537777516 0.015706788007063238 -0.11485074649689785
v -0.57260800713793314 0.015799404662510209 -0.11536585318733932
v -0.66827935995955468 0.13172064004044542 -0.11868279359959556
v -0.56151777835055328 0.016635669843402996 -0.12001691500318941
v -0.69644137004206519 0.20355862995793492 -0.13296441370042067
v 0.31161757774801219 -1.2999999999999998 0.22874263666220185
v 1.3307611087278091 -0.33196702066486677 0.24608954920225268
v 1.3488336477006158 -0.34812596396380391 0.25106268211002492
v 1.3070769812728984 -0.31234102516252832 0.23978929071368874
v 1.350438823201082 -0.34956117679891813 0.25150438823201082
v 0.36715768819613764 -1.36595177625908 0.24630690190569185
v 0.22416127364982116 -1.1961489533637637 0.20108504451840015
v 0.20486161305040504 -1.1732313378340338 0.19498162925432552
v -0.65762805801664481 0.76959840494858589 -0.20638798539529876
v -0.62255751989676733 0.78188956126753306 -0.20284816656196972
v -0.59999999999999987 0.78459249492372296 -0.19984294928932117
v 1.4000000000000004 -0.39387460984379047 0.2651424453781307
v -0.54859391428662596 0.79075218091063759 -0.19299439247048317
f 46 47 22
f 22 47 23
f 59 60 35
f 35 60 36
f 60 61 36
f 36 61 37
f 69 70 45
f 71 72 46
f 46 72 47
f 85 86 60
f 60 86 61
f 86 87 61
f 61 87 62
f 69 94 70
f 94 95 70
f 96 97 71
f 71 97 72
f 94 119 95
f 119 120 95
f 95 120 96
f 120 121 96
f 96 121 97
f 119 142 120
f 142 143 120
f 120 143 121
f 156 157 136
f 160 161 139
f 140 162 141
f 163 164 142
f 142 164 143
f 157 177 158
f 176 185 177
f 188 189 179
f 179 189 180
f 190 191 181
f 181 191 182
f 192 193 183
f 183 193 184
f 204 205 187
f 206 207 188
f 188 207 189
f 208 209 190
f 190 209 191
f 210 211 192
f 192 211 193
f 222 223 212
f 230 231 215
f 215 231 216
f 233 234 219
f 235 236 222
f 222 236 223
f 237 238 224
f 224 238 225
f 239 240 226
f 226 240 227
f 244 245 231
f 254 255 243
f 243 255 244
f 255 256 244
f 244 256 245
f 275 276 263
f 263 276 264
f 277 278 265
f 265 278 266
f 278 279 266
f 266 279 267
f 280 281 268
f 285 286 272
f 289 290 275
f 275 290 276
f 290 291 276
f 276 291 277
f 299 300 285
f 305 306 290
f 290 306 291
f 300 315 301
f 306 318 307
f 318 319 307
f 307 319 308
f 335 336 326
f 326 336 327
f 335 339 336
f 349 350 341
f 344 353 345
f 357 358 349
f 349 358 350
f 370 371 364
f 381 382 366
f 366 382 367
f 382 383 367
f 367 383 368
f 383 384 368
f 368 384 369
f 386 387 371
f 371 387 372
f 386 397 387
f 397 398 387
f 387 398 388
f 399 400 395
f 395 400 396
f 400 401 396
f 402 403 399
f 399 403 400
f 403 404 400
f 400 404 401
f 407 408 402
f 402 408 403
f 408 409 403
f 403 409 404
f 409 410 404
f 404 410 405
f 410 411 405
f 432 433 407
f 407 433 408
f 433 434 408
f 408 434 409
f 434 435 409
f 409 435 410
f 435 436 410
f 410 436 411
f 437 438 412
f 413 439 414
f 440 441 415
f 415 441 416
f 442 443 417
f 417 443 418
f 444 445 419
f 419 445 420
f 445 446 420
f 420 446 421
f 268 599 596
f 268 600 599
f 281 613 609
f 295 620 617
f 375 636 635
f 645 660 149
f 669 685 170
f 706 709 217
f 710 712 232
f 467 490 485
f 485 502 467
f 525 527 517
f 515 526 525
f 515 525 464
f 464 525 517
f 486 490 467
f 485 490 488
f 485 488 462
f 546 571 557
f 561 571 546
f 561 574 571
f 497 504 501
f 522 539 464
f 464 539 515
f 481 541 539
f 539 541 515
f 488 490 468
f 461 487 483
f 476 527 519
f 517 527 476
f 474 520 513
f 476 520 517
f 514 524 474
f 522 524 477
f 523 524 514
f 477 524 523
f 464 517 512
f 517 520 512
f 512 520 474
f 512 522 464
f 512 524 522
f 474 524 512
f 509 510 503
f 571 573 557
f 560 565 563
f 477 542 522
f 539 542 481
f 522 542 539
f 475 526 515
f 515 541 475
f 493 533 463
f 493 535 533
f 533 535 480
f 466 489 486
f 468 489 487
f 487 489 483
f 483 489 466
f 489 490 486
f 468 490 489
f 511 514 474
f 474 513 511
f 482 513 466
f 511 513 482
f 460 511 482
f 466 486 482
f 484 486 467
f 482 486 484
f 482 484 460
f 491 514 511
f 491 511 460
f 483 516 461
f 476 519 516
f 492 507 505
f 492 505 463
f 551 574 561
f 472 504 502
f 503 510 472
f 472 510 501
f 501 504 472
f 573 575 568
f 568 575 552
f 582 583 556
f 545 582 556
f 566 568 552
f 556 568 566
f 556 566 545
f 558 560 547
f 560 563 547
f 547 562 558
f 562 579 551
f 551 579 574
f 481 543 541
f 495 509 470
f 470 509 503
f 470 503 494
f 542 544 481
f 534 544 480
f 475 541 530
f 541 543 530
f 535 537 480
f 528 537 478
f 534 537 528
f 480 537 534
f 502 504 498
f 467 502 498
f 467 498 484
f 516 518 476
f 513 520 518
f 518 520 476
f 513 518 466
f 466 518 483
f 483 518 516
f 469 507 492
f 499 507 469
f 491 499 469
f 492 523 469
f 469 523 514
f 469 514 491
f 463 533 521
f 463 521 492
f 521 523 492
f 477 523 521
f 505 507 473
f 462 500 485
f 494 500 462
f 494 503 500
f 500 502 485
f 472 502 500
f 500 503 472
f 549 573 568
f 549 568 556
f 557 573 549
f 549 584 557
f 583 584 549
f 556 583 549
f 579 581 574
f 552 575 567
f 547 576 562
f 576 579 562
f 577 580 569
f 540 543 481
f 481 544 540
f 540 544 534
f 528 532 531
f 583 585 584
f 471 504 497
f 498 504 471
f 536 542 477
f 521 536 477
f 536 544 542
f 533 536 521
f 480 536 533
f 480 544 536
f 473 508 506
f 471 508 499
f 499 508 507
f 507 508 473
f 506 508 497
f 497 508 471
f 555 580 577
f 577 581 555
f 578 580 555
f 555 581 579
f 576 578 555
f 555 579 576
f 554 575 573
f 574 581 554
f 571 574 554
f 554 573 571
f 567 575 572
f 572 575 554
f 554 581 572
f 572 581 577
f 550 578 559
f 559 578 576
f 559 576 547
f 547 563 559
f 559 564 550
f 563 564 559
f 548 577 569
f 567 572 548
f 572 577 548
f 570 580 578
f 570 578 550
f 569 580 553
f 553 580 570
f 496 498 471
f 484 496 460
f 484 498 496
f 471 499 496
f 460 496 491
f 496 499 491
f 530 543 479
f 529 543 540
f 479 543 529
f 528 531 465
f 465 540 534
f 465 534 528
f 529 540 465
f 531 538 465
f 465 538 529
f 582 594 591
f 461 625 616
f 603 624 566
f 545 612 611
f 593 594 582
f 531 668 667
f 683 684 553
f 553 686 683
f 588 590 526
f 646 681 564
f 538 644 642
f 642 643 538
f 519 655 654
f 713 714 495
f 607 715 495
f 495 715 713
f 586 587 552
f 592 597 583
f 591 592 583
f 582 591 583
f 552 587 566
f 587 603 566
f 470 605 495
f 470 606 605
f 605 607 495
f 374 627 373
f 373 627 595
f 373 595 359
f 487 616 615
f 461 616 487
f 615 622 487
f 622 623 487
f 232 712 233
f 461 626 625
f 552 630 586
f 567 630 552
f 566 612 545
f 566 624 612
f 582 610 593
f 545 610 582
f 545 611 610
f 564 647 646
f 569 652 651
f 375 635 374
f 374 635 627
f 475 601 598
f 530 602 475
f 530 604 602
f 475 602 601
f 530 608 604
f 470 664 663
f 470 663 606
f 494 670 470
f 494 671 670
f 470 670 664
f 494 678 677
f 494 676 671
f 494 677 676
f 583 680 585
f 597 680 583
f 651 666 548
f 569 651 548
f 569 684 659
f 569 659 652
f 553 684 569
f 570 686 553
f 570 692 686
f 567 649 630
f 548 666 637
f 637 648 548
f 648 649 567
f 548 648 567
f 564 687 550
f 681 687 564
f 390 636 375
f 390 656 653
f 390 653 636
f 390 657 656
f 698 701 488
f 550 690 570
f 689 690 550
f 688 689 550
f 376 637 391
f 637 666 391
f 391 666 651
f 651 652 391
f 652 659 391
f 488 701 462
f 701 704 462
f 462 704 703
f 687 688 550
f 589 634 526
f 526 590 589
f 691 692 570
f 690 691 570
f 525 631 527
f 525 632 631
f 525 633 632
f 525 634 633
f 526 634 525
f 479 619 614
f 488 699 698
f 468 699 488
f 479 639 618
f 618 619 479
f 527 628 621
f 527 621 519
f 621 658 519
f 267 715 607
f 713 715 267
f 256 607 605
f 267 714 713
f 596 714 267
f 268 596 267
f 267 607 256
f 530 614 608
f 479 614 530
f 529 639 479
f 638 639 529
f 527 631 628
f 531 645 538
f 531 660 645
f 538 645 644
f 531 667 660
f 519 658 655
f 529 643 640
f 529 640 638
f 538 643 529
f 703 708 462
f 462 708 707
f 653 656 565
f 656 657 563
f 657 674 563
f 565 656 563
f 563 647 564
f 563 674 647
f 526 598 588
f 475 598 526
f 697 699 468
f 623 697 468
f 487 623 468
f 647 674 424
f 424 681 646
f 390 674 657
f 425 681 424
f 646 647 424
f 425 688 687
f 425 687 681
f 425 689 688
f 424 674 390
f 635 636 565
f 636 653 565
f 627 635 565
f 595 627 565
f 391 659 427
f 659 684 427
f 683 686 426
f 686 692 426
f 427 683 426
f 427 684 683
f 426 692 691
f 519 650 516
f 519 654 650
f 650 682 516
f 516 679 461
f 461 679 626
f 516 682 679
f 462 707 494
f 494 707 678
f 426 691 690
f 426 690 425
f 425 690 689
f 295 613 281
f 295 617 613
f 495 714 509
f 509 714 596
f 596 599 509
f 599 600 509
f 600 609 509
f 609 613 509
f 613 617 509
f 617 620 509
f 620 629 509
f 310 629 620
f 310 620 295
f 532 711 531
f 532 712 710
f 710 711 532
f 661 662 311
f 641 661 311
f 312 662 325
f 311 662 312
f 662 665 325
f 105 618 128
f 105 619 618
f 614 619 105
f 608 614 105
f 104 608 105
f 604 608 104
f 602 604 104
f 531 685 669
f 531 669 668
f 531 693 685
f 531 694 693
f 531 702 694
f 531 705 702
f 531 711 709
f 531 709 706
f 531 706 705
f 585 696 695
f 680 696 585
f 325 675 326
f 326 675 335
f 673 675 325
f 127 589 103
f 589 590 103
f 103 590 588
f 588 598 103
f 103 598 104
f 598 601 104
f 601 602 104
f 351 593 360
f 593 610 360
f 351 594 593
f 591 594 351
f 351 592 591
f 148 621 126
f 621 628 126
f 628 631 126
f 126 631 127
f 631 632 127
f 632 633 127
f 129 644 149
f 642 644 129
f 129 643 642
f 644 645 149
f 128 643 129
f 640 643 128
f 612 624 360
f 611 612 360
f 610 611 360
f 360 624 603
f 360 603 376
f 376 603 587
f 376 587 586
f 586 630 376
f 630 649 376
f 376 649 648
f 376 648 637
f 281 600 268
f 281 609 600
f 633 634 127
f 127 634 589
f 618 639 128
f 128 639 638
f 638 640 128
f 169 650 148
f 650 654 148
f 654 655 148
f 655 658 148
f 148 658 621
f 675 695 335
f 695 696 342
f 335 695 342
f 665 672 325
f 672 673 325
f 343 344 339
f 615 616 197
f 197 616 168
f 197 622 615
f 616 625 168
f 625 626 168
f 626 679 168
f 168 679 169
f 679 682 169
f 169 682 650
f 197 699 697
f 197 697 623
f 197 623 622
f 698 699 216
f 216 699 197
f 216 701 698
f 216 704 701
f 150 668 170
f 149 667 150
f 660 667 149
f 667 668 150
f 668 669 170
f 595 700 359
f 342 592 351
f 342 597 592
f 342 680 597
f 342 696 680
f 231 708 216
f 707 708 231
f 678 707 231
f 677 678 231
f 216 708 703
f 703 704 216
f 245 676 231
f 676 677 231
f 670 671 245
f 671 676 245
f 256 663 245
f 606 663 256
f 605 606 256
f 663 664 245
f 664 670 245
f 170 685 171
f 685 693 171
f 172 694 198
f 171 693 172
f 693 694 172
f 694 702 198
f 198 702 199
f 702 705 199
f 200 705 217
f 199 705 200
f 705 706 217
f 205 212 206
f 218 710 232
f 217 711 218
f 709 711 217
f 218 711 710
f 220 875 874
f 532 877 876
f 876 881 532
f 629 887 886
f 501 939 927
f 493 967 966
f 510 1004 989
f 1005 1012 510
f 1012 1013 510
f 1013 1014 510
f 1014 1019 510
f 700 1003 958
f 510 1019 1004
f 1031 1034 561
f 1038 1045 509
f 1047 1048 562
f 1052 1053 509
f 1053 1055 509
f 1055 1056 509
f 1056 1060 509
f 1011 1062 535
f 509 1060 1007
f 915 1074 478
f 916 1072 585
f 478 1074 1069
f 1070 1085 478
f 1088 1089 661
f 478 1094 1090
f 1085 1094 478
f 1092 1099 528
f 1101 1102 364
f 641 1106 1098
f 532 1024 1023
f 532 1025 1024
f 532 1112 1111
f 532 1115 1114
f 1111 1115 532
f 1105 1117 532
f 901 1106 641
f 532 1117 1112
f 532 1023 1022
f 532 1022 877
f 1123 1130 370
f 866 873 872
f 840 852 849
f 840 849 722
f 722 849 789
f 864 873 752
f 752 873 866
f 866 872 750
f 856 858 750
f 798 820 739
f 717 842 781
f 788 842 717
f 717 798 788
f 762 770 768
f 789 810 722
f 789 812 810
f 736 812 789
f 798 800 788
f 788 800 736
f 800 812 736
f 739 800 798
f 860 871 869
f 864 867 860
f 752 867 864
f 816 827 824
f 740 815 802
f 723 834 807
f 802 805 740
f 740 805 803
f 723 807 795
f 807 809 795
f 795 809 738
f 795 802 723
f 738 805 795
f 795 805 802
f 764 803 729
f 772 775 731
f 764 775 772
f 729 775 764
f 731 775 773
f 731 776 772
f 743 838 820
f 746 838 835
f 725 759 754
f 756 773 726
f 731 773 771
f 771 773 756
f 718 771 756
f 843 848 747
f 817 820 798
f 717 817 798
f 743 820 817
f 817 819 743
f 781 819 817
f 781 817 717
f 786 840 722
f 728 770 762
f 728 762 760
f 761 770 728
f 728 792 761
f 849 852 749
f 749 851 849
f 849 851 789
f 789 851 736
f 739 814 800
f 800 814 812
f 744 827 825
f 824 827 744
f 744 825 823
f 823 826 744
f 806 826 823
f 720 823 779
f 806 823 720
f 746 837 834
f 834 837 807
f 799 834 723
f 799 814 739
f 834 836 746
f 836 838 746
f 820 838 836
f 820 836 739
f 739 836 799
f 799 836 834
f 729 803 796
f 796 805 738
f 803 805 796
f 797 809 808
f 738 809 797
f 764 772 719
f 772 776 767
f 719 772 767
f 719 767 761
f 767 770 761
f 768 770 730
f 730 770 767
f 767 776 730
f 766 768 730
f 753 871 870
f 753 870 868
f 754 857 725
f 750 858 857
f 726 865 756
f 865 867 752
f 754 758 718
f 758 771 718
f 754 759 758
f 758 759 727
f 774 776 731
f 771 774 731
f 758 774 771
f 727 774 758
f 828 830 782
f 818 838 743
f 835 838 818
f 782 847 846
f 847 848 748
f 846 847 748
f 747 844 842
f 747 848 844
f 844 848 847
f 842 844 781
f 735 787 785
f 785 787 760
f 787 792 728
f 760 787 728
f 786 793 735
f 735 793 787
f 792 793 737
f 787 793 792
f 749 853 851
f 850 853 749
f 747 853 843
f 843 853 850
f 742 815 813
f 812 814 742
f 742 813 810
f 810 812 742
f 835 839 746
f 746 839 837
f 824 839 835
f 837 839 826
f 744 839 824
f 826 839 744
f 741 837 826
f 808 809 741
f 806 808 741
f 741 826 806
f 741 809 807
f 807 837 741
f 811 814 799
f 811 815 742
f 742 814 811
f 802 815 811
f 802 811 723
f 723 811 799
f 751 871 860
f 860 867 751
f 777 859 716
f 801 803 764
f 719 801 764
f 740 803 801
f 730 769 766
f 730 776 769
f 766 769 757
f 769 776 774
f 757 769 727
f 769 774 727
f 778 808 806
f 868 870 778
f 720 868 778
f 778 806 720
f 777 862 859
f 870 871 862
f 862 871 751
f 859 862 751
f 855 866 750
f 750 857 855
f 855 857 754
f 718 855 754
f 857 858 854
f 725 857 854
f 752 866 863
f 863 865 752
f 756 865 863
f 863 866 855
f 756 863 718
f 718 863 855
f 716 859 755
f 783 784 734
f 830 832 819
f 819 832 743
f 818 832 829
f 743 832 818
f 829 833 821
f 724 821 816
f 818 829 724
f 724 829 821
f 824 835 724
f 816 824 724
f 724 835 818
f 733 847 782
f 782 830 733
f 781 844 733
f 844 847 733
f 733 819 781
f 733 830 819
f 786 841 840
f 735 841 786
f 791 813 737
f 737 793 791
f 791 793 786
f 810 813 791
f 722 810 791
f 722 791 786
f 842 845 747
f 845 853 747
f 788 845 842
f 851 853 845
f 736 845 788
f 736 851 845
f 794 797 777
f 716 794 777
f 738 797 794
f 794 796 738
f 737 813 804
f 813 815 804
f 804 815 740
f 801 804 740
f 778 870 732
f 732 862 777
f 732 870 862
f 732 808 778
f 797 808 732
f 777 797 732
f 755 763 716
f 729 796 763
f 763 796 794
f 763 794 716
f 861 867 865
f 859 861 755
f 751 867 861
f 751 861 859
f 861 865 726
f 755 861 726
f 780 784 783
f 745 830 828
f 745 832 830
f 829 832 745
f 745 833 829
f 790 792 737
f 737 804 790
f 761 792 790
f 790 804 801
f 761 790 719
f 790 801 719
f 765 775 729
f 763 765 729
f 773 775 765
f 755 765 763
f 726 773 765
f 726 765 755
f 782 846 721
f 721 828 782
f 783 828 721
f 780 783 721
f 734 831 783
f 783 831 828
f 828 831 745
f 831 833 745
f 822 833 831
f 889 891 850
f 908 918 759
f 780 940 935
f 780 942 940
f 757 903 902
f 925 928 860
f 760 981 980
f 906 907 748
f 1054 1073 785
f 891 892 850
f 854 957 956
f 854 956 955
f 1104 1110 841
f 841 1110 1108
f 823 1016 1015
f 821 924 923
f 896 897 750
f 1120 1122 784
f 784 1121 1120
f 856 1126 1125
f 831 985 984
f 983 986 822
f 4 3 26
f 27 4 26
f 107 106 129
f 130 107 129
f 230 243 244
f 231 230 244
f 317 316 329
f 328 329 316
f 5 4 27
f 28 5 27
f 107 130 131
f 108 107 131
f 878 879 749
f 749 879 880
f 852 878 749
f 2 1 24
f 25 2 24
f 361 360 377
f 376 377 360
f 850 749 890
f 889 850 890
f 880 890 749
f 6 5 28
f 29 6 28
f 899 878 852
f 973 220 219
f 1082 219 234
f 1083 1082 234
f 973 219 1082
f 974 220 973
f 875 220 974
f 362 377 378
f 361 377 362
f 759 725 909
f 908 759 909
f 7 6 29
f 30 7 29
f 224 223 236
f 237 224 236
f 912 909 725
f 363 378 379
f 362 378 363
f 226 225 238
f 239 226 238
f 933 934 784
f 780 933 784
f 922 933 780
f 935 922 780
f 7 30 31
f 8 7 31
f 458 457 459
f 456 457 458
f 9 8 31
f 32 9 31
f 721 846 910
f 911 721 910
f 941 721 911
f 229 228 241
f 242 229 241
f 780 721 942
f 941 942 721
f 10 9 32
f 33 10 32
f 430 455 459
f 394 430 459
f 379 394 459
f 363 379 459
f 355 363 459
f 347 355 459
f 338 347 459
f 329 338 459
f 317 329 459
f 303 317 459
f 288 303 459
f 274 288 459
f 262 274 459
f 251 262 459
f 457 251 459
f 240 251 457
f 227 240 457
f 211 227 457
f 193 211 457
f 184 193 457
f 164 184 457
f 143 164 457
f 121 143 457
f 97 121 457
f 72 97 457
f 47 72 457
f 23 47 457
f 1109 372 373
f 1109 373 359
f 1113 1109 359
f 959 1113 359
f 972 971 753
f 871 753 971
f 236 235 246
f 247 236 246
f 2 25 26
f 3 2 26
f 319 323 324
f 318 323 319
f 974 973 975
f 913 914 973
f 975 973 914
f 11 10 33
f 34 11 33
f 230 229 242
f 243 230 242
f 109 108 131
f 132 109 131
f 236 247 248
f 237 236 248
f 110 109 132
f 133 110 132
f 366 365 380
f 381 366 380
f 874 875 993
f 875 992 993
f 885 874 993
f 974 992 875
f 975 992 974
f 110 133 134
f 111 110 134
f 12 11 34
f 35 12 34
f 995 994 753
f 972 753 994
f 112 111 134
f 135 112 134
f 238 237 248
f 249 238 248
f 321 320 330
f 331 321 330
f 12 35 36
f 13 12 36
f 893 894 766
f 766 894 970
f 757 893 766
f 902 893 757
f 970 965 766
f 112 135 136
f 113 112 136
f 137 113 136
f 238 249 250
f 239 238 250
f 727 759 918
f 945 727 918
f 322 321 331
f 332 322 331
f 14 13 36
f 37 14 36
f 945 946 727
f 757 727 946
f 322 332 333
f 323 322 333
f 239 250 251
f 240 239 251
f 15 14 37
f 38 15 37
f 114 113 137
f 138 114 137
f 242 241 252
f 253 242 252
f 324 323 333
f 334 324 333
f 242 253 254
f 243 242 254
f 115 114 138
f 139 115 138
f 116 115 139
f 161 116 139
f 16 15 38
f 39 16 38
f 1021 1020 1026
f 881 876 1020
f 877 1020 876
f 882 881 1020
f 1022 1020 877
f 1023 1020 1022
f 1024 1020 1023
f 1025 1020 1024
f 1026 1020 1025
f 17 16 39
f 40 17 39
f 17 40 41
f 18 17 41
f 932 904 757
f 903 757 904
f 946 932 757
f 991 982 762
f 371 370 385
f 386 371 385
f 373 372 387
f 388 373 387
f 939 961 860
f 864 860 961
f 927 939 860
f 928 927 860
f 373 388 389
f 374 373 389
f 760 762 981
f 982 981 762
f 22 23 457
f 21 22 457
f 20 21 457
f 19 20 457
f 18 19 457
f 17 18 457
f 456 17 457
f 16 17 456
f 15 16 456
f 14 15 456
f 13 14 456
f 12 13 456
f 11 12 456
f 10 11 456
f 9 10 456
f 8 9 456
f 7 8 456
f 6 7 456
f 5 6 456
f 4 5 456
f 3 4 456
f 2 3 456
f 1 2 456
f 762 768 991
f 990 991 768
f 19 18 41
f 42 19 41
f 20 19 42
f 43 20 42
f 768 964 990
f 963 964 768
f 140 161 181
f 180 181 161
f 116 161 140
f 117 116 140
f 768 766 963
f 965 963 766
f 375 374 389
f 390 375 389
f 118 117 140
f 141 118 140
f 21 20 43
f 44 21 43
f 119 118 141
f 142 119 141
f 1010 1009 1043
f 943 1043 1009
f 944 943 1009
f 1044 944 1009
f 246 257 258
f 247 246 258
f 123 122 144
f 145 123 144
f 21 44 45
f 22 21 45
f 46 22 45
f 825 827 1041
f 1034 825 1041
f 1031 825 1034
f 1028 825 1031
f 327 336 337
f 328 327 337
f 248 247 258
f 259 248 258
f 888 1046 843
f 124 123 145
f 146 124 145
f 848 843 1046
f 1050 848 1046
f 24 48 49
f 25 24 49
f 329 328 337
f 338 329 337
f 249 248 259
f 260 249 259
f 1001 1002 785
f 785 1002 1054
f 125 124 146
f 147 125 146
f 26 25 49
f 50 26 49
f 331 330 341
f 340 341 330
f 979 1001 785
f 760 979 785
f 980 979 760
f 250 249 260
f 261 250 260
f 1041 827 1042
f 1057 1042 827
f 126 125 147
f 148 126 147
f 27 26 50
f 51 27 50
f 332 331 341
f 350 332 341
f 1044 1058 953
f 953 1058 1059
f 944 1044 953
f 251 250 261
f 262 251 261
f 932 333 332
f 932 332 350
f 904 932 350
f 1061 905 748
f 748 905 906
f 28 27 51
f 52 28 51
f 748 848 1061
f 1050 1061 848
f 129 149 150
f 130 129 150
f 377 376 391
f 392 377 391
f 779 1063 1065
f 1064 1063 779
f 131 130 150
f 151 131 150
f 253 263 264
f 252 263 253
f 720 779 1066
f 1065 1066 779
f 132 131 151
f 152 132 151
f 29 28 52
f 53 29 52
f 907 846 748
f 895 846 907
f 919 846 895
f 132 152 153
f 133 132 153
f 378 377 392
f 393 378 392
f 1073 1077 735
f 1073 735 785
f 134 133 153
f 154 134 153
f 254 264 265
f 253 264 254
f 134 154 155
f 135 134 155
f 29 53 54
f 30 29 54
f 136 135 155
f 156 136 155
f 379 378 393
f 394 379 393
f 137 136 157
f 158 137 157
f 1059 1072 960
f 1032 960 1072
f 1032 1072 916
f 917 1032 916
f 1075 1032 917
f 954 1059 960
f 953 1059 954
f 255 265 266
f 254 265 255
f 339 342 343
f 335 342 339
f 31 30 54
f 55 31 54
f 1047 1057 827
f 1048 1047 827
f 1087 1048 827
f 816 1087 827
f 138 137 158
f 159 138 158
f 406 399 380
f 395 380 399
f 381 380 395
f 402 399 406
f 407 402 406
f 336 339 345
f 344 345 339
f 1080 1081 852
f 899 852 1081
f 31 55 56
f 32 31 56
f 139 138 159
f 160 139 159
f 852 840 1080
f 1084 1080 840
f 337 345 346
f 336 345 337
f 256 266 267
f 255 266 256
f 843 850 892
f 888 843 892
f 162 181 182
f 140 181 162
f 382 381 395
f 396 382 395
f 920 921 858
f 854 858 957
f 921 957 858
f 338 346 347
f 337 346 338
f 33 32 56
f 57 33 56
f 854 936 725
f 912 725 936
f 955 936 854
f 142 141 162
f 163 142 162
f 401 383 396
f 383 382 396
f 145 144 165
f 166 145 165
f 33 57 58
f 34 33 58
f 146 145 166
f 167 146 166
f 384 383 401
f 405 384 401
f 404 405 401
f 1017 1029 720
f 868 720 1029
f 978 1017 720
f 978 720 1066
f 967 978 1066
f 966 967 1066
f 996 966 1066
f 1096 996 1066
f 341 340 348
f 349 341 348
f 35 34 58
f 59 35 58
f 919 910 846
f 147 146 167
f 168 147 167
f 38 37 61
f 62 38 61
f 1077 1103 735
f 841 735 1104
f 1103 1104 735
f 148 147 168
f 169 148 168
f 39 38 62
f 63 39 62
f 150 170 171
f 151 150 171
f 1096 1100 1008
f 999 1096 1008
f 996 1096 999
f 40 39 63
f 64 40 63
f 152 151 171
f 172 152 171
f 1029 1030 868
f 868 1030 1035
f 41 40 64
f 65 41 64
f 1108 840 841
f 1084 840 1108
f 153 152 172
f 173 153 172
f 42 41 65
f 66 42 65
f 1040 995 868
f 753 868 995
f 1039 1040 868
f 342 351 352
f 343 342 352
f 43 42 66
f 67 43 66
f 883 885 1071
f 885 993 1071
f 154 153 173
f 174 154 173
f 922 418 419
f 922 419 385
f 933 922 385
f 344 343 352
f 353 344 352
f 258 269 270
f 257 269 258
f 155 154 174
f 175 155 174
f 1100 884 1011
f 1011 884 1062
f 1071 1062 884
f 883 1071 884
f 1008 1100 1011
f 44 43 67
f 68 44 67
f 345 353 354
f 346 345 354
f 1035 1036 868
f 868 1036 1039
f 386 419 420
f 385 419 386
f 156 155 175
f 176 156 175
f 259 270 271
f 258 270 259
f 347 346 354
f 355 347 354
f 157 156 176
f 177 157 176
f 45 44 68
f 69 45 68
f 397 420 421
f 386 420 397
f 349 348 356
f 357 349 356
f 260 271 272
f 259 271 260
f 158 177 178
f 159 158 178
f 46 45 70
f 71 46 70
f 160 159 178
f 179 160 178
f 389 388 398
f 423 389 398
f 422 423 398
f 161 160 179
f 180 161 179
f 261 272 273
f 260 272 261
f 1091 1118 1116
f 1099 1116 1021
f 1117 1105 1021
f 1112 1117 1021
f 1111 1112 1021
f 1115 1111 1021
f 1114 1115 1021
f 1026 1114 1021
f 1083 1118 1091
f 1099 1021 1105
f 1092 1116 1099
f 1091 1116 1092
f 1082 1083 1091
f 163 162 182
f 183 163 182
f 49 48 73
f 74 49 73
f 164 163 183
f 184 164 183
f 869 926 925
f 1093 926 869
f 869 925 860
f 390 389 424
f 423 424 389
f 166 194 195
f 165 194 166
f 262 273 274
f 261 273 262
f 167 166 196
f 195 196 166
f 50 49 74
f 75 50 74
f 168 196 197
f 167 196 168
f 51 50 75
f 76 51 75
f 352 351 360
f 361 352 360
f 265 264 276
f 277 265 276
f 1082 1074 915
f 1082 1069 1074
f 1082 915 913
f 973 1082 913
f 1070 1069 1082
f 1085 1070 1082
f 1094 1085 1082
f 1090 1094 1082
f 1091 1090 1082
f 353 352 361
f 362 353 361
f 354 353 362
f 52 51 76
f 77 52 76
f 971 869 871
f 971 1049 869
f 1093 869 1049
f 173 198 199
f 172 198 173
f 268 267 279
f 280 268 279
f 961 948 864
f 947 864 948
f 355 354 362
f 363 355 362
f 53 52 77
f 78 53 77
f 174 199 200
f 173 199 174
f 952 988 864
f 873 864 988
f 947 952 864
f 54 53 78
f 79 54 78
f 357 365 366
f 356 365 357
f 55 54 79
f 80 55 79
f 175 200 201
f 174 200 175
f 270 269 282
f 283 270 282
f 358 366 367
f 357 366 358
f 56 55 80
f 81 56 80
f 185 176 202
f 201 202 176
f 175 201 176
f 392 427 428
f 391 427 392
f 178 177 185
f 186 178 185
f 271 270 283
f 284 271 283
f 1014 1013 873
f 1012 873 1013
f 1019 1014 873
f 1005 873 1012
f 1006 873 1005
f 872 873 1006
f 1004 1019 873
f 989 1004 873
f 988 989 873
f 178 186 187
f 179 178 187
f 205 179 187
f 188 179 205
f 206 188 205
f 56 81 82
f 57 56 82
f 393 428 429
f 392 428 393
f 190 207 208
f 189 207 190
f 181 189 190
f 180 189 181
f 58 57 82
f 83 58 82
f 183 182 191
f 192 183 191
f 210 192 191
f 209 210 191
f 272 271 284
f 285 272 284
f 1006 1007 872
f 1051 872 1052
f 1053 1052 872
f 1055 1053 872
f 1056 1055 872
f 1060 1056 872
f 1007 1060 872
f 185 202 203
f 186 185 203
f 394 429 430
f 393 429 394
f 823 825 1028
f 1027 823 1028
f 187 186 203
f 204 187 203
f 273 272 286
f 287 273 286
f 195 194 214
f 213 214 194
f 59 58 83
f 84 59 83
f 998 1000 1131
f 1010 1131 1000
f 1043 1131 1010
f 196 214 215
f 195 214 196
f 398 397 422
f 421 422 397
f 997 998 1128
f 1131 1129 998
f 1128 998 1129
f 197 215 216
f 196 215 197
f 274 273 287
f 288 274 287
f 1016 823 1018
f 1027 1018 823
f 201 217 218
f 200 217 201
f 60 59 84
f 85 60 84
f 202 219 220
f 201 219 202
f 218 219 201
f 278 277 291
f 292 278 291
f 779 823 1015
f 976 779 1015
f 977 1064 976
f 976 1064 779
f 1127 1064 977
f 203 220 221
f 202 220 203
f 63 62 87
f 88 63 87
f 204 221 222
f 203 221 204
f 63 88 89
f 64 63 89
f 969 968 1127
f 1127 968 1128
f 997 1128 968
f 977 969 1127
f 212 205 222
f 204 222 205
f 279 278 292
f 293 279 292
f 207 206 212
f 223 207 212
f 1037 872 1038
f 1045 1038 872
f 1051 1045 872
f 407 406 431
f 432 407 431
f 208 223 224
f 207 223 208
f 65 64 89
f 90 65 89
f 887 896 1037
f 872 1037 896
f 750 872 896
f 886 887 1037
f 209 224 225
f 208 224 209
f 279 293 294
f 280 279 294
f 210 225 226
f 209 225 210
f 930 1087 816
f 923 930 816
f 821 923 816
f 412 411 436
f 437 412 436
f 211 226 227
f 210 226 211
f 65 90 91
f 66 65 91
f 214 213 228
f 229 214 228
f 413 412 438
f 439 413 438
f 214 229 230
f 215 214 230
f 281 280 294
f 295 281 294
f 219 218 232
f 233 219 232
f 415 414 439
f 440 415 439
f 712 532 881
f 882 712 881
f 67 66 91
f 92 67 91
f 1089 1088 1078
f 1078 1088 1097
f 1095 1089 1078
f 1086 1095 1078
f 1067 1086 1078
f 1068 1067 1078
f 1076 1068 1078
f 1075 1076 1078
f 1033 1075 1078
f 1032 1075 1033
f 416 441 442
f 417 416 442
f 220 885 221
f 883 221 885
f 884 221 883
f 874 885 220
f 419 418 443
f 444 419 443
f 68 67 92
f 93 68 92
f 900 1097 1098
f 1106 900 1098
f 1079 1097 900
f 1078 1097 1079
f 901 900 1106
f 283 282 296
f 297 283 296
f 898 1126 750
f 856 750 1126
f 897 898 750
f 422 421 446
f 447 422 446
f 892 414 888
f 415 888 414
f 1046 888 415
f 1050 1046 415
f 1061 1050 415
f 905 1061 415
f 891 414 892
f 889 414 891
f 890 414 889
f 69 68 93
f 94 69 93
f 284 283 297
f 298 284 297
f 893 358 894
f 350 358 893
f 422 447 448
f 423 422 448
f 734 784 1122
f 1102 734 1122
f 1101 734 1102
f 1107 734 1101
f 1109 734 1107
f 1113 734 1109
f 71 70 95
f 96 71 95
f 906 415 416
f 907 416 895
f 906 416 907
f 905 415 906
f 284 298 299
f 285 284 299
f 1121 784 1123
f 1130 1123 784
f 934 1130 784
f 424 423 448
f 449 424 448
f 924 821 929
f 938 929 821
f 897 310 898
f 896 310 897
f 887 310 896
f 629 310 887
f 74 73 98
f 99 74 98
f 821 833 962
f 937 821 962
f 938 821 937
f 641 311 900
f 901 641 900
f 286 285 300
f 301 286 300
f 425 424 449
f 450 425 449
f 1119 1124 856
f 858 856 1124
f 1125 1119 856
f 350 893 902
f 903 350 902
f 904 350 903
f 75 74 99
f 100 75 99
f 931 920 858
f 1124 931 858
f 287 286 301
f 302 287 301
f 426 425 450
f 451 426 450
f 910 417 911
f 919 417 910
f 895 417 919
f 416 417 895
f 287 302 303
f 288 287 303
f 585 695 916
f 916 695 917
f 985 831 1113
f 734 1113 831
f 959 985 1113
f 987 985 959
f 1003 987 959
f 958 1003 959
f 76 75 100
f 101 76 100
f 913 478 914
f 915 478 913
f 833 822 962
f 951 962 822
f 950 951 822
f 427 426 451
f 452 427 451
f 822 949 950
f 986 949 822
f 324 334 921
f 920 324 921
f 931 324 920
f 77 76 101
f 102 77 101
f 822 831 984
f 983 822 984
f 290 289 304
f 305 290 304
f 428 427 452
f 453 428 452
f 911 417 418
f 935 418 922
f 940 418 935
f 942 418 940
f 941 418 942
f 911 418 941
f 291 306 307
f 292 291 307
f 923 558 930
f 924 558 923
f 929 558 924
f 78 77 102
f 103 78 102
f 429 428 453
f 454 429 453
f 925 497 928
f 927 928 497
f 926 497 925
f 501 927 497
f 293 292 307
f 308 293 307
f 79 78 103
f 104 79 103
f 430 429 454
f 455 430 454
f 293 308 309
f 294 293 309
f 909 912 333
f 936 333 912
f 908 909 333
f 918 908 333
f 945 918 333
f 946 945 333
f 932 946 333
f 334 333 936
f 80 79 104
f 105 80 104
f 558 929 938
f 560 558 937
f 937 558 938
f 295 294 309
f 310 295 309
f 80 105 106
f 81 80 106
f 82 81 106
f 107 82 106
f 257 943 944
f 953 269 257
f 953 257 944
f 954 269 953
f 83 82 107
f 108 83 107
f 950 565 951
f 949 565 950
f 84 83 108
f 109 84 108
f 947 501 952
f 510 952 501
f 948 501 947
f 297 296 311
f 312 297 311
f 84 109 110
f 85 84 110
f 334 936 955
f 956 334 955
f 957 334 956
f 921 334 957
f 298 297 312
f 313 298 312
f 86 85 110
f 111 86 110
f 282 269 954
f 960 282 954
f 299 298 313
f 314 299 313
f 958 959 700
f 359 700 959
f 87 86 111
f 112 87 111
f 962 951 560
f 565 560 951
f 937 962 560
f 501 948 961
f 939 501 961
f 367 368 964
f 358 367 964
f 358 964 963
f 358 963 965
f 970 358 965
f 894 358 970
f 546 557 968
f 969 546 968
f 967 493 978
f 463 978 493
f 546 969 977
f 976 546 977
f 24 1 456
f 48 24 456
f 73 48 456
f 98 73 456
f 122 98 456
f 144 122 456
f 165 144 456
f 194 165 456
f 213 194 456
f 228 213 456
f 241 228 456
f 252 241 456
f 263 252 456
f 458 263 456
f 275 263 458
f 289 275 458
f 304 289 458
f 320 304 458
f 330 320 458
f 340 330 458
f 348 340 458
f 356 348 458
f 365 356 458
f 380 365 458
f 406 380 458
f 431 406 458
f 300 299 314
f 315 300 314
f 368 369 980
f 979 980 369
f 981 368 980
f 982 368 981
f 991 368 982
f 990 368 991
f 964 368 990
f 87 112 113
f 88 87 113
f 302 301 315
f 316 302 315
f 89 88 113
f 114 89 113
f 949 986 595
f 983 595 986
f 984 595 983
f 985 595 984
f 987 595 985
f 565 949 595
f 303 302 316
f 317 303 316
f 988 510 989
f 952 510 988
f 89 114 115
f 90 89 115
f 557 584 1000
f 998 557 1000
f 997 557 998
f 968 557 997
f 91 90 115
f 116 91 115
f 305 320 321
f 304 320 305
f 493 966 996
f 999 493 996
f 92 91 116
f 117 92 116
f 306 321 322
f 305 321 306
f 1001 369 1002
f 979 369 1001
f 700 595 987
f 1003 700 987
f 93 92 117
f 118 93 117
f 318 322 323
f 306 322 318
f 510 509 1007
f 1006 510 1007
f 1005 510 1006
f 94 93 118
f 119 94 118
f 1008 1011 493
f 535 493 1011
f 999 1008 493
f 309 308 319
f 1119 309 319
f 1124 1119 319
f 324 1124 319
f 931 1124 324
f 584 1009 1010
f 1000 584 1010
f 99 98 122
f 123 99 122
f 546 976 1015
f 1016 546 1015
f 1018 546 1016
f 463 505 1017
f 978 463 1017
f 1028 1031 546
f 561 546 1031
f 1027 1028 546
f 1018 1027 546
f 1029 505 1030
f 1017 505 1029
f 960 1032 296
f 1033 296 1032
f 282 960 296
f 505 473 1036
f 1035 505 1036
f 1030 505 1035
f 433 432 458
f 434 433 458
f 431 458 432
f 435 434 458
f 436 435 458
f 437 436 458
f 438 437 458
f 439 438 458
f 440 439 458
f 441 440 458
f 442 441 458
f 443 442 458
f 444 443 458
f 445 444 458
f 446 445 458
f 447 446 458
f 448 447 458
f 459 448 458
f 449 448 459
f 450 449 459
f 451 450 459
f 452 451 459
f 453 452 459
f 454 453 459
f 455 454 459
f 509 629 1038
f 1037 1038 629
f 886 1037 629
f 100 99 123
f 124 100 123
f 101 100 124
f 125 101 124
f 1041 1042 561
f 551 561 1042
f 1034 1041 561
f 102 101 125
f 126 102 125
f 1039 473 1040
f 1036 473 1039
f 103 102 126
f 127 103 126
f 473 506 1049
f 971 473 1049
f 972 473 971
f 994 473 972
f 313 325 326
f 312 325 313
f 509 1045 1051
f 1052 509 1051
f 314 313 327
f 326 327 313
f 473 994 995
f 1040 473 995
f 106 105 128
f 129 106 128
f 1057 1047 551
f 562 551 1047
f 1042 1057 551
f 315 327 328
f 316 315 328
f 314 327 315
f 584 585 1058
f 1044 584 1058
f 1009 584 1044
f 673 672 1068
f 1067 1068 672
f 1070 478 1069
f 1058 585 1059
f 1072 1059 585
f 993 992 535
f 537 535 992
f 1071 993 535
f 1062 1071 535
f 695 675 917
f 1075 675 1076
f 917 675 1075
f 975 914 537
f 478 537 914
f 992 975 537
f 673 1076 675
f 1068 1076 673
f 296 1033 1078
f 1079 296 1078
f 311 296 1079
f 900 311 1079
f 665 1067 672
f 1086 1067 665
f 506 497 926
f 1093 506 926
f 1049 506 1093
f 1087 930 558
f 1048 1087 562
f 562 1087 558
f 1091 1092 478
f 528 478 1092
f 1090 1091 478
f 662 661 1095
f 1089 1095 661
f 662 1086 665
f 1095 1086 662
f 1100 1096 222
f 1063 235 222
f 1066 222 1096
f 1065 222 1066
f 1063 222 1065
f 221 1100 222
f 884 1100 221
f 661 641 1088
f 1097 641 1098
f 1088 641 1097
f 1107 1101 371
f 371 1101 364
f 532 528 1099
f 1105 532 1099
f 1107 371 372
f 1107 372 1109
f 1026 532 1114
f 1025 532 1026
f 1116 233 1021
f 233 1020 1021
f 712 882 1020
f 233 712 1020
f 234 233 1116
f 1118 234 1116
f 1083 234 1118
f 1120 370 1122
f 364 1122 370
f 1121 370 1120
f 1123 370 1121
f 1102 1122 364
f 309 898 310
f 1126 898 309
f 1125 1126 309
f 1119 1125 309
f 1064 235 1063
f 1127 235 1064
f 1128 235 1127
f 246 235 1128
f 1129 246 1128
f 1103 1077 384
f 1077 1073 384
f 1054 384 1073
f 369 384 1054
f 1002 369 1054
f 385 370 1130
f 385 1130 934
f 933 385 934
f 1131 246 1129
f 257 246 1131
f 1043 257 1131
f 943 257 1043
f 1080 412 1081
f 411 412 1080
f 405 411 1084
f 1084 411 1080
f 1108 405 1084
f 1110 405 1108
f 1104 405 1110
f 384 405 1104
f 1103 384 1104
f 412 413 879
f 878 412 879
f 899 412 878
f 1081 412 899
f 413 414 890
f 880 413 890
f 879 413 880
