v -2 -2 -0.099999999999999978
v -2 -1.8999999999999999 -0.10999999999999999
v -2 -1.8 -0.11999999999999997
v -2 -1.7 -0.12999999999999998
v -2 -1.6000000000000001 -0.13999999999999996
v -2 -1.5 -0.14999999999999997
v -2 -1.3999999999999999 -0.16
v -2 -1.2999999999999998 -0.17000000000000001
v -2 -1.1000000000000001 -0.18999999999999997
v -2 -0.79999999999999982 -0.22
v -2 -0.69999999999999996 -0.22999999999999998
v -2 -0.59999999999999987 -0.23999999999999999
v -2 -0.5 -0.25
v -2 -0.29999999999999982 -0.27000000000000002
v -2 -0.19999999999999996 -0.27999999999999997
v -2 -0.099999999999999867 -0.28999999999999998
v -2 0 -0.29999999999999999
v -2 0.40000000000000036 -0.34000000000000002
v -2 0.5 -0.34999999999999998
v -2 0.90000000000000036 -0.39000000000000001
v -2 1 -0.40000000000000002
v -2 1.4000000000000004 -0.44000000000000006
v -2 1.5 -0.45000000000000001
v -2 1.9000000000000004 -0.49000000000000005
v -2 2 -0.5
v -1.8999999999999999 -2 -0.084999999999999964
v -1.8999999999999999 -1.8999999999999999 -0.094999999999999973
v -1.8999999999999999 -1.8 -0.10499999999999995
v -1.8999999999999999 -1.7 -0.11499999999999996
v -1.8999999999999999 -1.6000000000000001 -0.12499999999999994
v -1.8999999999999999 -1.5 -0.13499999999999995
v -1.8999999999999999 -1.3999999999999999 -0.14499999999999999
v -1.8999999999999999 -1.2999999999999998 -0.155
v -1.8999999999999999 -1.1000000000000001 -0.17499999999999996
v -1.8999999999999999 -0.79999999999999982 -0.20499999999999999
v -1.8999999999999999 -0.69999999999999996 -0.21499999999999997
v -1.8999999999999999 -0.59999999999999987 -0.22499999999999998
v -1.8999999999999999 -0.5 -0.23499999999999999
v -1.8999999999999999 -0.29999999999999982 -0.255
v -1.8999999999999999 -0.19999999999999996 -0.26499999999999996
v -1.8999999999999999 -0.099999999999999867 -0.27499999999999997
v -1.8999999999999999 0 -0.28499999999999998
v -1.8999999999999999 0.40000000000000036 -0.32500000000000001
v -1.8999999999999999 0.5 -0.33499999999999996
v -1.8999999999999999 0.90000000000000036 -0.375
v -1.8999999999999999 1 -0.38500000000000001
v -1.8999999999999999 1.4000000000000004 -0.42500000000000004
v -1.8999999999999999 1.5 -0.435
v -1.8999999999999999 1.9000000000000004 -0.47500000000000003
v -1.8999999999999999 2 -0.48499999999999999
v -1.8 -2 -0.070000000000000007
v -1.8 -1.8999999999999999 -0.080000000000000016
v -1.8 -1.8 -0.089999999999999997
v -1.8 -1.7 -0.10000000000000001
v -1.8 -1.6000000000000001 -0.10999999999999999
v -1.8 -1.5 -0.12
v -1.8 -1.3999999999999999 -0.13000000000000003
v -1.8 -1.2999999999999998 -0.14000000000000004
v -1.8 -1.1000000000000001 -0.16
v -1.8 -0.79999999999999982 -0.19000000000000003
v -1.8 -0.69999999999999996 -0.20000000000000001
v -1.8 -0.59999999999999987 -0.21000000000000002
v -1.8 -0.5 -0.22000000000000003
v -1.8 -0.29999999999999982 -0.24000000000000005
v -1.8 -0.19999999999999996 -0.25
v -1.8 -0.099999999999999867 -0.26000000000000001
v -1.8 0 -0.27000000000000002
v -1.8 0.40000000000000036 -0.31000000000000005
v -1.8 0.5 -0.32000000000000001
v -1.8 0.90000000000000036 -0.36000000000000004
v -1.8 1 -0.37
v -1.8 1.4000000000000004 -0.41000000000000003
v -1.8 1.5 -0.42000000000000004
v -1.8 1.9000000000000004 -0.46000000000000008
v -1.8 2 -0.47000000000000003
v -1.7 -2 -0.054999999999999993
v -1.7 -1.8999999999999999 -0.065000000000000002
v -1.7 -1.8 -0.074999999999999983
v -1.7 -1.7 -0.084999999999999992
v -1.7 -1.6000000000000001 -0.094999999999999973
v -1.7 -1.5 -0.10499999999999998
v -1.7 -1.3999999999999999 -0.11500000000000002
v -1.7 -1.2999999999999998 -0.12500000000000003
v -1.7 -1.1000000000000001 -0.14499999999999999
v -1.7 -0.79999999999999982 -0.17500000000000002
v -1.7 -0.69999999999999996 -0.185
v -1.7 -0.59999999999999987 -0.19500000000000001
v -1.7 -0.5 -0.20500000000000002
v -1.7 -0.29999999999999982 -0.22500000000000003
v -1.7 -0.19999999999999996 -0.23500000000000001
v -1.7 -0.099999999999999867 -0.24500000000000002
v -1.7 0 -0.255
v -1.7 0.40000000000000036 -0.29500000000000004
v -1.7 0.5 -0.30499999999999999
v -1.7 0.90000000000000036 -0.34500000000000003
v -1.7 1 -0.35499999999999998
v -1.7 1.4000000000000004 -0.39500000000000002
v -1.7 1.5 -0.40500000000000003
v -1.7 1.9000000000000004 -0.44500000000000006
v -1.7 2 -0.45500000000000002
v -1.6000000000000001 -2 -0.03999999999999998
v -1.6000000000000001 -1.8999999999999999 -0.049999999999999989
v -1.6000000000000001 -1.8 -0.05999999999999997
v -1.6000000000000001 -1.7 -0.069999999999999979
v -1.6000000000000001 -1.6000000000000001 -0.07999999999999996
v -1.6000000000000001 -1.5 -0.089999999999999969
v -1.6000000000000001 -1.3999999999999999 -0.10000000000000001
v -1.6000000000000001 -1.2999999999999998 -0.11000000000000001
v -1.6000000000000001 -1.1000000000000001 -0.12999999999999998
v -1.6000000000000001 -0.79999999999999982 -0.16
v -1.6000000000000001 -0.69999999999999996 -0.16999999999999998
v -1.6000000000000001 -0.59999999999999987 -0.17999999999999999
v -1.6000000000000001 -0.5 -0.19
v -1.6000000000000001 -0.29999999999999982 -0.21000000000000002
v -1.6000000000000001 -0.19999999999999996 -0.22
v -1.6000000000000001 -0.099999999999999867 -0.23000000000000001
v -1.6000000000000001 0 -0.23999999999999999
v -1.6000000000000001 0.40000000000000036 -0.28000000000000003
v -1.6000000000000001 0.5 -0.28999999999999998
v -1.6000000000000001 0.90000000000000036 -0.33000000000000002
v -1.6000000000000001 1 -0.33999999999999997
v -1.6000000000000001 1.4000000000000004 -0.38
v -1.6000000000000001 1.5 -0.39000000000000001
v -1.6000000000000001 1.9000000000000004 -0.43000000000000005
v -1.6000000000000001 2 -0.44
v -1.5 -2 -0.024999999999999967
v -1.5 -1.8999999999999999 -0.034999999999999976
v -1.5 -1.8 -0.044999999999999957
v -1.5 -1.7 -0.054999999999999966
v -1.5 -1.6000000000000001 -0.064999999999999947
v -1.5 -1.5 -0.074999999999999956
v -1.5 -1.3999999999999999 -0.084999999999999992
v -1.5 -1.2999999999999998 -0.095000000000000001
v -1.5 -1.1000000000000001 -0.11499999999999996
v -1.5 -0.79999999999999982 -0.14499999999999999
v -1.5 -0.69999999999999996 -0.15499999999999997
v -1.5 -0.59999999999999987 -0.16499999999999998
v -1.5 -0.29999999999999982 -0.19500000000000001
v -1.5 -0.19999999999999996 -0.20499999999999999
v -1.5 -0.099999999999999867 -0.215
v -1.5 0 -0.22499999999999998
v -1.5 0.30000000000000027 -0.255
v -1.5 0.40000000000000036 -0.26500000000000001
v -1.5 0.5 -0.27499999999999997
v -1.5 0.90000000000000036 -0.315
v -1.5 1 -0.32499999999999996
v -1.5 1.4000000000000004 -0.36499999999999999
v -1.5 1.9000000000000004 -0.41500000000000004
v -1.5 2 -0.42499999999999999
v -1.3999999999999999 -2 -0.0099999999999999811
v -1.3999999999999999 -1.8999999999999999 -0.01999999999999999
v -1.3999999999999999 -1.8 -0.029999999999999971
v -1.3999999999999999 -1.7 -0.03999999999999998
v -1.3999999999999999 -1.6000000000000001 -0.049999999999999961
v -1.3999999999999999 -1.5 -0.05999999999999997
v -1.3999999999999999 -1.3999999999999999 -0.070000000000000007
v -1.3999999999999999 -1.2999999999999998 -0.080000000000000016
v -1.3999999999999999 -0.79999999999999982 -0.13
v -1.3999999999999999 -0.69999999999999996 -0.14000000000000001
v -1.3999999999999999 -0.59999999999999987 -0.14999999999999999
v -1.3999999999999999 -0.5 -0.15999999999999998
v -1.3999999999999999 -0.19999999999999996 -0.19
v -1.3999999999999999 -0.099999999999999867 -0.20000000000000001
v -1.3999999999999999 0 -0.20999999999999999
v -1.3999999999999999 0.30000000000000027 -0.24000000000000002
v -1.3999999999999999 0.40000000000000036 -0.25
v -1.3999999999999999 0.5 -0.26000000000000001
v -1.3999999999999999 0.90000000000000036 -0.30000000000000004
v -1.3999999999999999 1 -0.31
v -1.3999999999999999 1.4000000000000004 -0.35000000000000003
v -1.3999999999999999 1.5 -0.35999999999999999
v -1.3999999999999999 2 -0.41000000000000003
v -1.2999999999999998 -2 0.0050000000000000322
v -1.2999999999999998 -1.8999999999999999 -0.0049999999999999767
v -1.2999999999999998 -1.8 -0.014999999999999958
v -1.2999999999999998 -1.7 -0.024999999999999967
v -1.2999999999999998 -1.6000000000000001 -0.034999999999999948
v -1.2999999999999998 -1.5 -0.044999999999999957
v -1.2999999999999998 -1.3999999999999999 -0.054999999999999993
v -1.2999999999999998 -0.69999999999999996 -0.12499999999999999
v -1.2999999999999998 -0.59999999999999987 -0.13499999999999998
v -1.2999999999999998 -0.5 -0.14499999999999996
v -1.2999999999999998 -0.29999999999999982 -0.16499999999999998
v -1.2999999999999998 -0.19999999999999996 -0.17499999999999999
v -1.2999999999999998 -0.099999999999999867 -0.185
v -1.2999999999999998 0 -0.19499999999999998
v -1.2999999999999998 0.40000000000000036 -0.23500000000000001
v -1.2999999999999998 0.5 -0.245
v -1.2999999999999998 0.90000000000000036 -0.28500000000000003
v -1.2999999999999998 1 -0.29499999999999998
v -1.2999999999999998 1.4000000000000004 -0.33500000000000002
v -1.2999999999999998 1.5 -0.34499999999999997
v -1.2999999999999998 1.9000000000000004 -0.38500000000000001
v -1.2999999999999998 2 -0.39500000000000002
v -1.2 -0.59999999999999987 -0.12
v -1.2 -0.5 -0.13
v -1.2 -0.29999999999999982 -0.15000000000000002
v -1.2 -0.19999999999999996 -0.16
v -1.2 0.40000000000000036 -0.22000000000000003
v -1.2 0.5 -0.22999999999999998
v -1.2 0.90000000000000036 -0.27000000000000002
v -1.2 1 -0.28000000000000003
v -1.2 1.4000000000000004 -0.32000000000000006
v -1.2 1.9000000000000004 -0.37000000000000005
v -1.2 2 -0.38
v -1.1000000000000001 -2 0.035000000000000003
v -1.1000000000000001 -1.8999999999999999 0.024999999999999994
v -1.1000000000000001 -1.8 0.015000000000000013
v -1.1000000000000001 -1.7 0.0050000000000000044
v -1.1000000000000001 -1.6000000000000001 -0.0049999999999999767
v -1.1000000000000001 -0.5 -0.115
v -1.1000000000000001 -0.39999999999999991 -0.125
v -1.1000000000000001 -0.29999999999999982 -0.13500000000000001
v -1.1000000000000001 -0.19999999999999996 -0.14500000000000002
v -1.1000000000000001 -0.099999999999999867 -0.15500000000000003
v -1.1000000000000001 0 -0.16500000000000001
v -1.1000000000000001 0.40000000000000036 -0.20500000000000004
v -1.1000000000000001 0.5 -0.21500000000000002
v -1.1000000000000001 0.90000000000000036 -0.25500000000000006
v -1.1000000000000001 1 -0.26500000000000001
v -1.1000000000000001 1.4000000000000004 -0.30500000000000005
v -1.1000000000000001 1.5 -0.31500000000000006
v -1.1000000000000001 1.9000000000000004 -0.35500000000000009
v -1.1000000000000001 2 -0.36499999999999999
v -1 -0.39999999999999991 -0.11
v -1 -0.29999999999999982 -0.12000000000000001
v -1 -0.19999999999999996 -0.13
v -0.79999999999999982 -2 0.080000000000000043
v -0.79999999999999982 -1.8999999999999999 0.070000000000000034
v -0.79999999999999982 -1.8 0.060000000000000053
v -0.79999999999999982 -1.7 0.050000000000000044
v -0.79999999999999982 -1.6000000000000001 0.040000000000000063
v -0.79999999999999982 -0.19999999999999996 -0.099999999999999978
v -0.79999999999999982 -0.099999999999999867 -0.10999999999999999
v -0.79999999999999982 0 -0.11999999999999997
v -0.79999999999999982 0.10000000000000009 -0.12999999999999998
v -0.79999999999999982 0.40000000000000036 -0.16
v -0.79999999999999982 0.5 -0.16999999999999998
v -0.79999999999999982 0.90000000000000036 -0.21000000000000002
v -0.79999999999999982 1 -0.21999999999999997
v -0.79999999999999982 1.4000000000000004 -0.26000000000000001
v -0.79999999999999982 1.5 -0.27000000000000002
v -0.79999999999999982 1.9000000000000004 -0.31000000000000005
v -0.79999999999999982 2 -0.31999999999999995
v -0.69999999999999996 -2 0.095000000000000015
v -0.69999999999999996 -1.8999999999999999 0.085000000000000006
v -0.69999999999999996 -1.8 0.075000000000000025
v -0.69999999999999996 -1.7 0.065000000000000016
v -0.69999999999999996 -1.6000000000000001 0.055000000000000035
v -0.69999999999999996 -1.5 0.045000000000000026
v -0.69999999999999996 -0.099999999999999867 -0.095000000000000001
v -0.69999999999999996 0 -0.105
v -0.69999999999999996 0.10000000000000009 -0.115
v -0.69999999999999996 0.20000000000000018 -0.125
v -0.69999999999999996 0.30000000000000027 -0.13500000000000001
v -0.69999999999999996 0.40000000000000036 -0.14500000000000002
v -0.69999999999999996 0.5 -0.155
v -0.69999999999999996 0.90000000000000036 -0.19500000000000003
v -0.69999999999999996 1 -0.20500000000000002
v -0.69999999999999996 1.4000000000000004 -0.24500000000000005
v -0.69999999999999996 1.5 -0.255
v -0.69999999999999996 1.9000000000000004 -0.29500000000000004
v -0.69999999999999996 2 -0.30499999999999999
v -0.59999999999999987 -2 0.11000000000000003
v -0.59999999999999987 -1.8999999999999999 0.10000000000000002
v -0.59999999999999987 -1.8 0.090000000000000038
v -0.59999999999999987 -1.7 0.080000000000000029
v -0.59999999999999987 -1.6000000000000001 0.070000000000000048
v -0.59999999999999987 -1.5 0.060000000000000039
v -0.59999999999999987 0 -0.089999999999999983
v -0.59999999999999987 0.20000000000000018 -0.11
v -0.59999999999999987 0.30000000000000027 -0.12000000000000001
v -0.59999999999999987 0.40000000000000036 -0.13
v -0.59999999999999987 0.5 -0.13999999999999999
v -0.59999999999999987 0.90000000000000036 -0.18000000000000002
v -0.59999999999999987 1 -0.19
v -0.59999999999999987 1.4000000000000004 -0.23000000000000004
v -0.59999999999999987 1.5 -0.23999999999999999
v -0.59999999999999987 1.9000000000000004 -0.28000000000000003
v -0.59999999999999987 2 -0.28999999999999998
v -0.5 -2 0.125
v -0.5 -1.8999999999999999 0.115
v -0.5 -1.8 0.10500000000000002
v -0.5 -1.7 0.095000000000000015
v -0.5 -1.6000000000000001 0.085000000000000034
v -0.5 -1.5 0.075000000000000025
v -0.5 -1.3999999999999999 0.064999999999999988
v -0.5 0.40000000000000036 -0.11500000000000003
v -0.5 0.5 -0.125
v -0.5 0.90000000000000036 -0.16500000000000004
v -0.5 1 -0.17499999999999999
v -0.5 1.4000000000000004 -0.21500000000000002
v -0.5 1.5 -0.22500000000000003
v -0.5 1.9000000000000004 -0.26500000000000007
v -0.5 2 -0.27500000000000002
v -0.39999999999999991 -1.8999999999999999 0.13
v -0.39999999999999991 -1.8 0.12000000000000004
v -0.39999999999999991 -1.7 0.11000000000000003
v -0.29999999999999982 -2 0.15500000000000003
v -0.29999999999999982 -1.8999999999999999 0.14500000000000002
v -0.29999999999999982 -1.8 0.13500000000000006
v -0.29999999999999982 -1.7 0.12500000000000006
v -0.29999999999999982 -1.6000000000000001 0.11500000000000006
v -0.29999999999999982 -1.5 0.10500000000000005
v -0.29999999999999982 -1.3999999999999999 0.095000000000000015
v -0.29999999999999982 -1.2999999999999998 0.085000000000000006
v -0.29999999999999982 0.30000000000000027 -0.074999999999999997
v -0.29999999999999982 0.40000000000000036 -0.085000000000000006
v -0.29999999999999982 0.5 -0.094999999999999973
v -0.29999999999999982 0.90000000000000036 -0.13500000000000001
v -0.29999999999999982 1 -0.14499999999999996
v -0.29999999999999982 1.4000000000000004 -0.185
v -0.29999999999999982 1.5 -0.19500000000000001
v -0.29999999999999982 1.9000000000000004 -0.23500000000000004
v -0.29999999999999982 2 -0.245
v -0.19999999999999996 -2 0.17000000000000001
v -0.19999999999999996 -1.8999999999999999 0.16
v -0.19999999999999996 -1.8 0.15000000000000002
v -0.19999999999999996 -1.7 0.14000000000000001
v -0.19999999999999996 -1.6000000000000001 0.13000000000000003
v -0.19999999999999996 -1.5 0.12000000000000002
v -0.19999999999999996 -1.3999999999999999 0.10999999999999999
v -0.19999999999999996 -1.2999999999999998 0.099999999999999978
v -0.19999999999999996 -1.1000000000000001 0.080000000000000016
v -0.19999999999999996 0.40000000000000036 -0.070000000000000034
v -0.19999999999999996 0.5 -0.079999999999999988
v -0.19999999999999996 0.90000000000000036 -0.12000000000000002
v -0.19999999999999996 1 -0.13
v -0.19999999999999996 1.4000000000000004 -0.17000000000000004
v -0.19999999999999996 1.5 -0.18000000000000002
v -0.19999999999999996 1.9000000000000004 -0.22000000000000006
v -0.19999999999999996 2 -0.23000000000000001
v -0.099999999999999867 -2 0.18500000000000003
v -0.099999999999999867 -1.8999999999999999 0.17500000000000002
v -0.099999999999999867 -1.8 0.16500000000000004
v -0.099999999999999867 -1.7 0.15500000000000003
v -0.099999999999999867 -1.6000000000000001 0.14500000000000005
v -0.099999999999999867 -1.5 0.13500000000000004
v -0.099999999999999867 -1.3999999999999999 0.125
v -0.099999999999999867 -1.2999999999999998 0.11499999999999999
v -0.099999999999999867 -1.1000000000000001 0.095000000000000029
v -0.099999999999999867 0.5 -0.064999999999999974
v -0.099999999999999867 0.90000000000000036 -0.10500000000000001
v -0.099999999999999867 1 -0.11499999999999999
v -0.099999999999999867 1.4000000000000004 -0.15500000000000003
v -0.099999999999999867 1.5 -0.16500000000000001
v -0.099999999999999867 1.9000000000000004 -0.20500000000000004
v -0.099999999999999867 2 -0.215
v 0 -2 0.20000000000000001
v 0 -1.8999999999999999 0.19
v 0 -1.8 0.18000000000000002
v 0 -1.7 0.17000000000000001
v 0 -1.6000000000000001 0.16000000000000003
v 0 -1.5 0.15000000000000002
v 0 -1.3999999999999999 0.13999999999999999
v 0 -1.2999999999999998 0.12999999999999998
v 0 -1.1000000000000001 0.11000000000000001
v 0 0.90000000000000036 -0.090000000000000038
v 0 1 -0.10000000000000001
v 0 1.4000000000000004 -0.14000000000000004
v 0 1.5 -0.15000000000000002
v 0 1.9000000000000004 -0.19000000000000006
v 0 2 -0.20000000000000001
v 0.30000000000000027 -0.79999999999999982 0.12500000000000003
v 0.30000000000000027 -0.69999999999999996 0.11500000000000003
v 0.40000000000000036 -2 0.26000000000000006
v 0.40000000000000036 -1.8999999999999999 0.25000000000000006
v 0.40000000000000036 -1.8 0.24000000000000007
v 0.40000000000000036 -1.7 0.23000000000000007
v 0.40000000000000036 -1.6000000000000001 0.22000000000000008
v 0.40000000000000036 -1.5 0.21000000000000008
v 0.40000000000000036 -1.3999999999999999 0.20000000000000004
v 0.40000000000000036 -1.2999999999999998 0.19000000000000003
v 0.40000000000000036 -1.2 0.18000000000000005
v 0.40000000000000036 -1.1000000000000001 0.17000000000000007
v 0.40000000000000036 -0.79999999999999982 0.14000000000000004
v 0.40000000000000036 -0.69999999999999996 0.13000000000000006
v 0.40000000000000036 -0.59999999999999987 0.12000000000000005
v 0.40000000000000036 -0.5 0.11000000000000006
v 0.40000000000000036 1 -0.039999999999999952
v 0.40000000000000036 1.4000000000000004 -0.079999999999999988
v 0.40000000000000036 1.5 -0.089999999999999969
v 0.40000000000000036 1.9000000000000004 -0.13
v 0.40000000000000036 2 -0.13999999999999996
v 0.5 -2 0.27500000000000002
v 0.5 -1.8999999999999999 0.26500000000000001
v 0.5 -1.8 0.255
v 0.5 -1.7 0.245
v 0.5 -1.6000000000000001 0.23500000000000004
v 0.5 -1.5 0.22500000000000003
v 0.5 -1.3999999999999999 0.21499999999999997
v 0.5 -1.2999999999999998 0.20499999999999996
v 0.5 -1.2 0.19500000000000001
v 0.5 -1.1000000000000001 0.185
v 0.5 -0.79999999999999982 0.15499999999999997
v 0.5 -0.69999999999999996 0.14499999999999999
v 0.5 -0.59999999999999987 0.13499999999999998
v 0.5 -0.5 0.125
v 0.5 1.4000000000000004 -0.065000000000000044
v 0.5 1.5 -0.075000000000000025
v 0.5 1.9000000000000004 -0.11500000000000006
v 0.5 2 -0.125
v 0.60000000000000009 2 -0.11
v 0.80000000000000027 -1.7 0.29000000000000004
v 0.80000000000000027 -1.6000000000000001 0.28000000000000008
v 0.80000000000000027 -1.5 0.27000000000000007
v 0.80000000000000027 -1.2999999999999998 0.25
v 0.80000000000000027 -1.2 0.24000000000000005
v 0.80000000000000027 -0.79999999999999982 0.20000000000000001
v 0.80000000000000027 -0.69999999999999996 0.19000000000000003
v 0.80000000000000027 -0.29999999999999982 0.15000000000000002
v 0.80000000000000027 -0.19999999999999996 0.14000000000000004
v 0.80000000000000027 -0.099999999999999867 0.13000000000000003
v 0.80000000000000027 1.4000000000000004 -0.020000000000000004
v 0.80000000000000027 1.5 -0.029999999999999985
v 0.80000000000000027 1.9000000000000004 -0.070000000000000021
v 0.80000000000000027 2 -0.079999999999999974
v 0.90000000000000036 -2 0.33500000000000008
v 0.90000000000000036 -1.8999999999999999 0.32500000000000007
v 0.90000000000000036 -1.8 0.31500000000000006
v 0.90000000000000036 -1.7 0.30500000000000005
v 0.90000000000000036 -1.6000000000000001 0.29500000000000004
v 0.90000000000000036 -1.5 0.28500000000000003
v 0.90000000000000036 -1.3999999999999999 0.27500000000000002
v 0.90000000000000036 -1.2999999999999998 0.26500000000000001
v 0.90000000000000036 -1.2 0.255
v 0.90000000000000036 -1.1000000000000001 0.24500000000000005
v 0.90000000000000036 -0.79999999999999982 0.21500000000000002
v 0.90000000000000036 -0.69999999999999996 0.20500000000000002
v 0.90000000000000036 -0.59999999999999987 0.19500000000000003
v 0.90000000000000036 -0.5 0.18500000000000005
v 0.90000000000000036 -0.29999999999999982 0.16500000000000004
v 0.90000000000000036 -0.19999999999999996 0.15500000000000003
v 0.90000000000000036 -0.099999999999999867 0.14500000000000002
v 0.90000000000000036 0 0.13500000000000004
v 0.90000000000000036 1.5 -0.014999999999999986
v 0.90000000000000036 1.9000000000000004 -0.055000000000000021
v 0.90000000000000036 2 -0.064999999999999974
v 1 -2 0.34999999999999998
v 1 -1.8999999999999999 0.33999999999999997
v 1 -1.8 0.33000000000000002
v 1 -1.7 0.32000000000000001
v 1 -1.6000000000000001 0.31000000000000005
v 1 -1.5 0.30000000000000004
v 1 -1.3999999999999999 0.28999999999999998
v 1 -1.2999999999999998 0.27999999999999997
v 1 -1.2 0.27000000000000002
v 1 -1.1000000000000001 0.26000000000000001
v 1 -0.79999999999999982 0.22999999999999998
v 1 -0.69999999999999996 0.21999999999999997
v 1 -0.59999999999999987 0.20999999999999999
v 1 -0.5 0.20000000000000001
v 1 -0.29999999999999982 0.17999999999999999
v 1 -0.19999999999999996 0.16999999999999998
v 1 -0.099999999999999867 0.15999999999999998
v 1 0 0.14999999999999999
v 1 1.5 -2.7755575615628914e-17
v 1 1.9000000000000004 -0.040000000000000063
v 1 2 -0.050000000000000017
v 1.2000000000000002 -0.69999999999999996 0.25
v 1.2000000000000002 -0.59999999999999987 0.24000000000000002
v 1.3000000000000003 -0.59999999999999987 0.255
v 1.3000000000000003 -0.5 0.24500000000000005
v 1.4000000000000004 -2 0.41000000000000003
v 1.4000000000000004 -1.8999999999999999 0.40000000000000002
v 1.4000000000000004 -1.8 0.39000000000000007
v 1.4000000000000004 -1.7 0.38000000000000006
v 1.4000000000000004 -1.6000000000000001 0.37000000000000011
v 1.4000000000000004 -1.5 0.3600000000000001
v 1.4000000000000004 -1.3999999999999999 0.35000000000000003
v 1.4000000000000004 -1.2999999999999998 0.34000000000000002
v 1.4000000000000004 -1.2 0.33000000000000007
v 1.4000000000000004 -1.1000000000000001 0.32000000000000006
v 1.4000000000000004 -0.79999999999999982 0.29000000000000004
v 1.4000000000000004 -0.69999999999999996 0.28000000000000003
v 1.4000000000000004 -0.59999999999999987 0.27000000000000002
v 1.4000000000000004 -0.5 0.26000000000000006
v 1.4000000000000004 -0.29999999999999982 0.24000000000000005
v 1.4000000000000004 -0.19999999999999996 0.23000000000000004
v 1.4000000000000004 -0.099999999999999867 0.22000000000000003
v 1.4000000000000004 0 0.21000000000000005
v 1.4000000000000004 0.40000000000000036 0.17000000000000001
v 1.4000000000000004 0.5 0.16000000000000003
v 1.4000000000000004 1.4000000000000004 0.070000000000000007
v 1.4000000000000004 1.5 0.060000000000000026
v 1.4000000000000004 1.9000000000000004 0.01999999999999999
v 1.4000000000000004 2 0.010000000000000037
v 1.5 -2 0.42499999999999999
v 1.5 -1.8999999999999999 0.41499999999999998
v 1.5 -1.8 0.40500000000000003
v 1.5 -1.7 0.39500000000000002
v 1.5 -1.6000000000000001 0.38500000000000001
v 1.5 -1.3999999999999999 0.36499999999999999
v 1.5 -1.2999999999999998 0.35499999999999998
v 1.5 -1.2 0.34499999999999997
v 1.5 -1.1000000000000001 0.33499999999999996
v 1.5 -0.79999999999999982 0.30499999999999994
v 1.5 -0.69999999999999996 0.29499999999999998
v 1.5 -0.59999999999999987 0.28499999999999998
v 1.5 -0.5 0.27499999999999997
v 1.5 -0.29999999999999982 0.25499999999999995
v 1.5 -0.19999999999999996 0.24499999999999997
v 1.5 -0.099999999999999867 0.23499999999999996
v 1.5 0 0.22499999999999998
v 1.5 0.40000000000000036 0.18499999999999994
v 1.5 0.5 0.17499999999999999
v 1.5 1.4000000000000004 0.084999999999999937
v 1.5 1.5 0.074999999999999956
v 1.5 1.9000000000000004 0.03499999999999992
v 1.5 2 0.024999999999999967
v 1.6000000000000001 -0.19999999999999996 0.26000000000000001
v 1.6000000000000001 -0.099999999999999867 0.24999999999999997
v 1.7000000000000002 -0.099999999999999867 0.26500000000000001
v 1.7000000000000002 0 0.255
v 1.9000000000000004 -2 0.48500000000000004
v 1.9000000000000004 -1.8999999999999999 0.47500000000000003
v 1.9000000000000004 -1.8 0.46500000000000008
v 1.9000000000000004 -1.7 0.45500000000000007
v 1.9000000000000004 -1.6000000000000001 0.44500000000000006
v 1.9000000000000004 -1.5 0.43500000000000005
v 1.9000000000000004 -1.2999999999999998 0.41500000000000004
v 1.9000000000000004 -1.2 0.40500000000000003
v 1.9000000000000004 -1.1000000000000001 0.39500000000000002
v 1.9000000000000004 -0.79999999999999982 0.36499999999999999
v 1.9000000000000004 -0.69999999999999996 0.35500000000000004
v 1.9000000000000004 -0.59999999999999987 0.34500000000000003
v 1.9000000000000004 -0.5 0.33500000000000002
v 1.9000000000000004 -0.29999999999999982 0.315
v 1.9000000000000004 -0.19999999999999996 0.30500000000000005
v 1.9000000000000004 -0.099999999999999867 0.29500000000000004
v 1.9000000000000004 0 0.28500000000000003
v 1.9000000000000004 0.40000000000000036 0.245
v 1.9000000000000004 0.5 0.23500000000000004
v 1.9000000000000004 0.90000000000000036 0.19500000000000001
v 1.9000000000000004 1 0.18500000000000003
v 1.9000000000000004 1.4000000000000004 0.14499999999999999
v 1.9000000000000004 1.5 0.13500000000000001
v 1.9000000000000004 1.9000000000000004 0.094999999999999973
v 1.9000000000000004 2 0.08500000000000002
v 2 -2 0.5
v 2 -1.8999999999999999 0.48999999999999999
v 2 -1.8 0.47999999999999998
v 2 -1.7 0.46999999999999997
v 2 -1.6000000000000001 0.46000000000000002
v 2 -1.5 0.45000000000000001
v 2 -1.3999999999999999 0.43999999999999995
v 2 -1.2999999999999998 0.42999999999999994
v 2 -1.2 0.41999999999999998
v 2 -1.1000000000000001 0.41000000000000003
v 2 -0.79999999999999982 0.38
v 2 -0.69999999999999996 0.37
v 2 -0.59999999999999987 0.35999999999999999
v 2 -0.5 0.34999999999999998
v 2 -0.29999999999999982 0.32999999999999996
v 2 -0.19999999999999996 0.32000000000000001
v 2 -0.099999999999999867 0.31
v 2 0 0.29999999999999999
v 2 0.40000000000000036 0.25999999999999995
v 2 0.5 0.25
v 2 0.90000000000000036 0.20999999999999996
v 2 1 0.19999999999999998
v 2 1.4000000000000004 0.15999999999999995
v 2 1.5 0.14999999999999997
v 2 1.9000000000000004 0.10999999999999993
v 2 2 0.099999999999999978
v -2 -2 -0.90000000000000002
v -2 2 -0.90000000000000002
v 2 -2 -0.90000000000000002
v 2 2 -0.90000000000000002
v -1 -1.3680117784833934 -0.14545556584642799
v -1 -1 -0.24999999999999994
v -1.3500000000000001 -1.2163118960624633 -0.11631189606246312
v -1.1124354249480162 -1.4856463342923145 -0.041432511343314105
v -0.88756457505198383 -1.4856463342923145 -0.041432511343314105
v -1 -1.1912865702388702 -0.22335685044874226
v -0.81807566089457184 -1.3037219951868864 -0.15386793629133028
v -0.702272217076786 -1.4114496766047311 -0.031733672164910687
v -0.81599411075830319 -1.1137218936815172 -0.21573956140660749
v -1.1819243391054282 -1.3037219951868864 -0.15386793629133028
v -1.1840058892416967 -1.1137218936815172 -0.21573956140660749
v -1.1840058892416967 -0.88627810631848281 -0.21573956140660749
v -1.3680117784833936 -1 -0.14545556584642788
v -1.0567604054103124 -1.4309494146115764 -0.098690129693979889
v -0.94323959458968754 -1.4309494146115764 -0.098690129693979889
v -0.83403957225459679 -1.53105661011428 0.0252223955097301
v -1 -1.4920349213414412 -0.047897214473551331
v -1 -1.282348744032155 -0.19053039486308881
v -1 -1.0965665694893436 -0.24330721736980326
v -1 -0.90343343051065639 -0.24330721736980326
v -0.90815973483089096 -1.3391091494424674 -0.15545053510429235
v -0.73147038712046653 -1.2625269972347468 -0.14073803223567299
v -0.85088399404560922 -1.3998761613949959 -0.10485446048149688
v -0.90784124005355471 -1.2507601554406054 -0.19701322042794217
v -0.73977637587787082 -1.4949747468305832 0.028949331494718011
v -0.67209910439313192 -1.3177933498176828 -0.080554794033443511
v -0.79279678519556196 -1.4531883257175569 -0.041616892720361454
v -0.75769288964770554 -1.3612851340357428 -0.098416188854319187
v -0.90685022710158603 -1.0575697256955536 -0.24138183841659638
v -0.72966883008868555 -1.1670738512237153 -0.17370456693185748
v -0.90704526622046833 -1.1540819192313048 -0.22647481818170728
v -0.81514207453865406 -1.2108812153652624 -0.19137092263385097
v -0.60502205176395996 -1.3593628088613134 -0.0026044542584121033
v -1.091840265169109 -1.3391091494424674 -0.15545053510429235
v -1.2685296128795334 -1.2625269972347468 -0.14073803223567299
v -1.1491160059543908 -1.3998761613949959 -0.10485446048149688
v -1.0921587599464453 -1.2507601554406054 -0.19701322042794217
v -1.3279008956068681 -1.3177933498176828 -0.080554794033443511
v -1.207203214804438 -1.4531883257175569 -0.041616892720361454
v -1.2423071103522945 -1.3612851340357428 -0.098416188854319187
v -1.0931497728984139 -1.0575697256955536 -0.24138183841659638
v -1.2703311699113145 -1.1670738512237153 -0.17370456693185748
v -1.0929547337795318 -1.1540819192313048 -0.22647481818170728
v -1.1848579254613458 -1.2108812153652624 -0.19137092263385097
v -1.2685296128795334 -0.73747300276525318 -0.14073803223567299
v -1.0931497728984139 -0.94243027430444637 -0.24138183841659638
v -1.2703311699113145 -0.83292614877628479 -0.17370456693185748
v -1.0929547337795318 -0.84591808076869535 -0.22647481818170728
v -1.1864832907941971 -1 -0.22470288442733571
v -1.1848579254613458 -0.7891187846347375 -0.19137092263385097
v -1.3634809428097285 -1.1095041255281617 -0.13812451972899714
v -1.3634809428097285 -0.89049587447183842 -0.13812451972899714
v -1.2797249361912959 -1.0576265060223722 -0.18908774505260934
v -1.2797249361912959 -0.94237349397762793 -0.18908774505260934
v 1 1.3680117784833934 -0.045455565846427959
v 1 1 -0.14999999999999991
v 1.3500000000000001 0.78368810393753674 -0.016311896062463083
v 1.3500000000000001 1.2163118960624633 -0.016311896062463083
v 1 1.1912865702388702 -0.12335685044874223
v 1.491432511343314 0.88756457505198383 0.064353665707685692
v 1.1840058892416967 0.88627810631848281 -0.11573956140660746
v 1.4817336721649106 0.702272217076786 0.13855032339526885
v 1.1819243391054282 1.3037219951868864 -0.053867936291330243
v 1.491432511343314 1.1124354249480162 0.064353665707685692
v 1.1840058892416967 1.1137218936815172 -0.11573956140660746
v 1.3680117784833936 1 -0.045455565846427848
v 0.81807566089457184 1.3037219951868864 -0.053867936291330243
v 1.0567604054103124 1.4309494146115764 0.0013098703060201444
v 1 1.282348744032155 -0.090530394863088781
v 1 1.0965665694893436 -0.14330721736980323
v 1.2685296128795334 0.73747300276525318 -0.040738032235672961
v 1.5486901296939799 0.94323959458968754 0.11905058538842367
v 1.42477760449027 0.83403957225459679 0.018943389885719975
v 1.3279008956068681 0.68220665018231719 0.019445205966556522
v 1.0931497728984139 0.94243027430444637 -0.14138183841659635
v 1.2703311699113145 0.83292614877628479 -0.073704566931857451
v 1.1848579254613458 0.7891187846347375 -0.091370922633850937
v 1.4210506685052819 0.73977637587787082 0.055025253169416866
v 1.4916168927203615 0.79279678519556196 0.096811674282443305
v 1.39497794823604 0.64063719113868656 0.09739554574158793
v 1.091840265169109 1.3391091494424674 -0.05545053510429232
v 1.2685296128795334 1.2625269972347468 -0.040738032235672961
v 1.1491160059543908 1.3998761613949959 -0.0048544604814968473
v 1.0921587599464453 1.2507601554406054 -0.097013220427942137
v 1.5486901296939799 1.0567604054103126 0.11905058538842367
v 1.42477760449027 1.1659604277454032 0.018943389885719975
v 1.4978972144735514 1 0.057965078658558822
v 1.3279008956068681 1.3177933498176828 0.019445205966556522
v 1.2423071103522945 1.3612851340357428 0.0015838111456808468
v 1.0931497728984139 1.0575697256955536 -0.14138183841659635
v 1.2703311699113145 1.1670738512237153 -0.073704566931857451
v 1.0929547337795318 1.1540819192313048 -0.12647481818170725
v 1.1864832907941971 1 -0.12470288442733568
v 1.1848579254613458 1.2108812153652624 -0.091370922633850937
v 1.4210506685052819 1.2602236241221292 0.055025253169416866
v 1.4916168927203615 1.207203214804438 0.096811674282443305
v 1.3634809428097285 0.89049587447183842 -0.038124519728997108
v 1.3634809428097285 1.1095041255281617 -0.038124519728997108
v 1.4341677078294128 0.94320070386604227 0.0038569405029114101
v 1.2797249361912959 0.94237349397762793 -0.089087745052609302
v 1.4341677078294128 1.0567992961339578 0.0038569405029114101
v 1.2797249361912959 1.0576265060223722 -0.089087745052609302
v 0.90815973483089096 1.3391091494424674 -0.05545053510429232
v 0.73147038712046653 1.2625269972347468 -0.040738032235672961
v 0.90784124005355471 1.2507601554406054 -0.097013220427942137
v 0.90685022710158603 1.0575697256955536 -0.14138183841659635
v 0.90704526622046833 1.1540819192313048 -0.12647481818170725
v 0.81514207453865406 1.2108812153652624 -0.091370922633850937
v -0.88941000371886414 -1.5387089969964836 0.020459399141818789
v -0.8364873069517359 -1.5335308618270407 0.027879990139943703
v 1 0.19067417694518218 0.13093258230548177
v -0.63674855347039416 -1.4424238686728899 0.048730103846729864
v -0.64555588843355605 -1.4493201546181489 0.048098632196781475
v -1.4085334416282709 -1.1509990033764439 -0.096180115906596239
v -1.4014560207821909 -1.181664006259125 -0.092052002491416138
v -1.3999999999999997 -1.1858547876125389 -0.091414521238746091
v -1.4143625286660095 -1.1000000000000001 -0.10215437929990143
v -0.67824852398653301 -1.4686788569376861 0.045130607095788651
v -0.29999999999999988 -1.1093258230548178 0.06593258230548181
v 0.94155222640143699 1.4265318273432013 -0.0014203487741045896
v 0.94593031438197084 1.4279658639835382 -0.00090703924105820833
v 0.96269874511451869 1.4309494146115764 0.0013098703060201444
v 1 1.4369560245131761 0.0063043975486823762
v 0.90000000000000036 1.4099084241491502 -0.0059908424149149727
v -0.94627808163592975 -1.5432114882829402 0.012379436582904598
v -0.9406803882849174 -1.5434025589915594 0.013238197656418347
v -1.4179152172696403 -1.0689173318361884 -0.10579554940682717
v -1.4177359769151561 -1.0426915546296274 -0.10839124107431065
v -0.29999999999999982 0.26824598239016367 -0.071824598239016324
v -0.29067417694518233 -1.1000000000000001 0.066398873458222665
v -1.3999999999999997 -0.92694117482367333 -0.11730588251763263
v -1.4090345564036399 -0.96477919765675779 -0.11487726369487022
v -0.19999999999999998 -1.0093258230548179 0.070932582305481787
v -1.3165424208267726 -1.3530496734512518 -0.062176395778890711
v -1.3384190080047151 -1.3243117078164428 -0.068331680419062998
v 1.071206703173337 1.4451419195265154 0.016166813523348991
v 1.0445179495877759 1.4441247366011152 0.012265218778054849
v -0.26824598239016323 0.30000000000000021 -0.070236897358524508
v -1.2999999999999998 -1.3726757776613259 -0.057732422233867424
v -0.19999999999999996 0.36824598239016354 -0.066824598239016347
v -1.1000000000000001 -1.5117723222105588 -0.013822767778944098
v -1.0824150333770055 -1.518289428233679 -0.010533312183182902
v -1.1300870488758867 -1.5006218610438857 -0.019450871226994376
v -1.3500458469128158 -1.3041070172313958 -0.072096175313782818
v -1.3520105039754051 -1.2999999999999998 -0.0728015755963108
v -1.3827901869341175 -0.87271140641133615 -0.12014738739898402
v -1.3534593729141151 -0.81109626919855449 -0.12190927901726183
v -0.099999999999999867 -0.90932582305481768 0.075932582305481791
v -1.2113792263330034 -1.4564795220427285 -0.03605893174567764
v -1.2263828264868408 -1.4443450790855299 -0.039522916064473147
v -0.16824598239016317 0.40000000000000036 -0.065236897358524504
v 1.185250129785407 1.4330398885815421 0.034483530609656816
v -1.2026353195116346 -1.4618127227362483 -0.034214025653120338
v -1.3824502431161327 -1.2363672492514304 -0.083730811542276851
v -0.099999999999999867 0.46824598239016363 -0.061824598239016343
v 1.1314933584484514 1.4410831838036713 0.025615685386900584
v 1.2093258230548183 0.40000000000000036 0.14139887345822269
v 0 -0.80932582305481782 0.080932582305481782
v -1.1312495313549369 -1.5 -0.019687429703240476
v -1.397322817302165 -0.91572874827794959 -0.11802554776752981
v -0.068245982390163509 0.5 -0.06023689735852452
v -0 0.56824598239016355 -0.056824598239016345
v 0.0093258230548179995 -0.79999999999999982 0.081398873458222692
v -1.3475440617601113 -0.79999999999999982 -0.12213160926401671
v 1.2848294373141187 1.3997746178701227 0.052746953810105503
v 1.2842112201186828 1.4000000000000004 0.052631683017802369
v -1.3416119454470583 -0.7888722067507431 -0.12235457114198442
v -1.3301081277299462 -0.77240418935262956 -0.122275800224229
v -1.2999999999999998 -0.73479567729817075 -0.1215204322701829
v 1.218347682715337 1.4240117299402908 0.040350979413271468
v 0.10932582305481786 -0.69999999999999996 0.086398873458222669
v 1.3093258230548179 0.5 0.14639887345822264
v 1.4000000000000006 0.59067417694518254 0.15093258230548176
v -1.275835252438809 -1.3999999999999999 -0.051375287865821337
v 1.372553859023774 1.3454659958445976 0.071336479269106357
v 1.4000000000000001 1.322108116061562 0.077789188393843842
v -1.2804784842458408 -1.3958363118142012 -0.052488141455456008
v 1.3048255074661741 1.3894185783813096 0.056781968281795173
v 0.20932582305481798 -0.59999999999999987 0.091398873458222701
v 1.5000000000000002 0.71608731785417845 0.15339126821458215
v 1.5014046603233162 0.71862102105116565 0.15334859694338088
v 1.4896341025962687 0.69738948254445277 0.15370616713499502
v -1.2877901352190564 -0.71954415282889295 -0.12121410499996918
v -1.2682459823901637 -0.70000000000000007 -0.12023689735852454
v 1.4289605878714078 0.61963476481658997 0.15238061169905215
v 1.473329553241967 0.67421441074678568 0.15357799191161647
v 0.30932582305481782 -0.5 0.096398873458222678
v 0.40000000000000041 -0.40932582305481746 0.10093258230548181
v 1.4904426837283729 1.2179582881415714 0.10177057374509878
v 1.4956764994441905 1.2097121897407219 0.10338025594255634
v 1.4999999999999998 1.2014399626358823 0.10485600373641174
v 0.33175401760983686 0.90000000000000024 -0.040236897358524516
v -1.1682459823901634 -0.59999999999999987 -0.11523689735852451
v 1.445976530790434 1.2756286542132522 0.089333614197239869
v 0.40000000000000036 0.9682459823901638 -0.036824598239016335
v -1.1000000000000001 -0.53175401760983654 -0.11182459823901635
v 0.5 -0.30932582305481787 0.10593258230548179
v 1.4061526726937204 1.3168719194957585 0.079235708954482148
v -1.0400260851231935 -1.530164565387869 -0.0029874562296920717
v 0.4317540176098365 1 -0.035236897358524533
v -1.0682459823901636 -0.5 -0.11023689735852452
v 1.5255026447791997 0.77185423868884817 0.15163997284799513
v 0.5 1.0682459823901636 -0.031824598239016358
v 0.50932582305481811 -0.29999999999999982 0.10639887345822269
v 1.5019472969341956 1.1977141663112862 0.1055206779090007
v 1.5296147905743989 1.1345184451858887 0.11599037406757093
v 1.5523266663481317 0.84856207511429693 0.14799279244079006
v 1.5531209495217484 0.8518865836860815 0.14777948405965408
v 1.5584947313155266 0.90000000000000036 0.14377420969732893
v 1.5542696361249062 0.85964598403730974 0.14717584701500491
v 1.5630608783651438 0.96068173963813652 0.13839095779095792
v 1.5621509196547421 0.93492036887851326 0.14083060106035997
v 0.60837061915717539 -0.20095520389764254 0.11135111326334056
v 0.60932582305481786 -0.19999999999999996 0.11139887345822268
v 1.5597728904357306 1 0.13396593356535957
v -0.83184421839056133 -1.5325937614788967 0.028482743389305502
v -0.79999999999999982 -1.5222660155038956 0.032226601550389603
v 1.5557420587768389 1.0482012988008278 0.12854117893644304
v 1.5536428740744825 1.0598213697750534 0.12706429413366704
v 1.5498760499648625 1.0745281700858491 0.12502859048614443
v 0.70932582305481795 -0.099999999999999867 0.1163988734582227
v -0.86824598239016326 -0.29999999999999977 -0.10023689735852451
v 0.80000000000000027 -0.0093258230548175693 0.1209325823054818
v -0.79999999999999982 -0.23175401760983633 -0.096824598239016332
v 0.7122098647809435 1.2804558471711069 -0.021214104999969185
v -0.7457441243658679 -1.5046697003948817 0.038605351384608029
v -0.73486018158712996 -1.5 0.03977097276193052
v -0.69999999999999984 -1.4808068524976838 0.043080685249768394
v -0.73296263787810789 -1.4991858685048733 0.039974191168771184
v 0.77836751377786206 1.341575931644442 -0.017402466097764909
v 0.74462170740929712 1.3120569719901654 -0.019512441087621971
v 0.80000000000000038 1.3558644986489399 -0.015586449864893954
v -0.76824598239016351 -0.19999999999999996 -0.09523689735852453
v 0.80932582305481771 0 0.12139887345822269
v -0.69999999999999996 -0.13175401760983646 -0.091824598239016342
v 0.90000000000000036 0.090674176945182539 0.12593258230548179
v -0.59999999999999998 -1.4077169015064062 0.050771690150640633
v 0.84630213666206855 1.3864477231268699 -0.011699451813376706
v 0.857466474913961 1.3928924421428266 -0.010669272977188525
v 0.87523268378196706 1.4000000000000006 -0.0087150974327049966
v -0.57103941212859222 -1.3803652351834099 0.052380611699052157
v -0.59182916311086375 -1.3999999999999997 0.051225625533370407
v -0.66824598239016331 -0.099999999999999853 -0.090236897358524498
v -0.63897402565383377 -0.070728043263670215 -0.088773299521708052
v -0.59999999999999987 -0.031754017609836364 -0.086824598239016337
v -0.5 -1.3093258230548179 0.05593258230548178
v -0.56824598239016355 -0 -0.085236897358524535
v -0.5 0.068245982390163495 -0.081824598239016347
v -0.49067417694518206 -1.2999999999999998 0.056398873458222677
f 70 71 45
f 45 71 46
f 72 73 47
f 47 73 48
f 89 90 64
f 64 90 65
f 91 92 66
f 66 92 67
f 158 159 135
f 135 159 136
f 159 160 136
f 136 160 137
f 160 161 137
f 138 162 139
f 143 167 144
f 170 171 147
f 148 172 149
f 158 180 159
f 180 181 159
f 159 181 160
f 187 188 166
f 195 196 181
f 181 196 182
f 197 198 183
f 183 198 184
f 199 200 187
f 187 200 188
f 189 202 190
f 204 205 193
f 193 205 194
f 195 211 196
f 211 212 196
f 213 214 197
f 197 214 198
f 217 218 199
f 199 218 200
f 219 220 201
f 221 222 203
f 223 224 204
f 204 224 205
f 211 225 212
f 226 227 213
f 213 227 214
f 251 252 234
f 234 252 235
f 253 254 236
f 258 259 239
f 239 259 240
f 260 261 241
f 241 261 242
f 262 263 243
f 243 263 244
f 253 271 254
f 272 273 255
f 255 273 256
f 281 282 264
f 264 282 265
f 272 288 273
f 288 289 273
f 273 289 274
f 290 291 275
f 275 291 276
f 292 293 277
f 277 293 278
f 281 296 282
f 296 297 282
f 282 297 283
f 300 301 296
f 296 301 297
f 302 303 298
f 317 318 300
f 300 318 301
f 319 320 302
f 302 320 303
f 307 325 308
f 325 326 308
f 308 326 309
f 327 328 310
f 310 328 311
f 329 330 312
f 312 330 313
f 325 342 326
f 358 359 343
f 343 359 344
f 376 377 364
f 364 377 365
f 377 378 365
f 386 387 367
f 367 387 368
f 388 389 369
f 369 389 370
f 390 391 371
f 371 391 372
f 392 393 373
f 373 393 374
f 393 394 374
f 374 394 375
f 397 398 378
f 378 398 379
f 401 402 383
f 383 402 384
f 401 403 402
f 421 422 404
f 404 422 405
f 425 426 407
f 428 429 409
f 409 429 410
f 429 430 410
f 432 433 411
f 411 433 412
f 434 435 413
f 440 441 419
f 419 441 420
f 442 443 421
f 421 443 422
f 444 445 423
f 446 447 425
f 426 448 427
f 460 462 461
f 462 463 461
f 491 492 467
f 467 492 468
f 469 493 470
f 494 495 471
f 471 495 472
f 497 498 474
f 474 498 475
f 499 500 476
f 476 500 477
f 501 502 478
f 478 502 479
f 505 506 482
f 482 506 483
f 501 511 502
f 502 512 503
f 513 514 512
f 541 542 516
f 516 542 517
f 543 544 518
f 518 544 519
f 545 546 520
f 547 548 521
f 521 548 522
f 548 549 522
f 522 549 523
f 550 551 524
f 524 551 525
f 324 702 699
f 698 707 307
f 709 720 325
f 724 730 342
f 483 742 741
f 379 757 756
f 764 769 380
f 765 770 211
f 413 792 790
f 793 802 233
f 435 805 803
f 804 812 251
f 814 816 270
f 587 593 575
f 593 600 575
f 591 597 595
f 573 586 583
f 572 607 604
f 604 611 572
f 611 620 572
f 580 612 610
f 598 600 578
f 596 597 592
f 594 596 585
f 587 606 603
f 575 606 587
f 575 612 606
f 582 623 621
f 588 612 575
f 610 612 588
f 571 610 588
f 588 598 571
f 588 600 598
f 575 600 588
f 645 669 630
f 630 646 645
f 599 601 591
f 593 601 600
f 600 601 578
f 639 676 675
f 651 663 660
f 660 671 667
f 634 663 661
f 660 663 634
f 634 671 660
f 587 603 570
f 570 603 583
f 666 669 645
f 642 668 666
f 640 643 626
f 626 645 640
f 642 666 626
f 626 666 645
f 643 649 647
f 647 649 631
f 643 647 626
f 626 647 642
f 577 597 596
f 577 602 595
f 595 597 577
f 577 596 594
f 574 596 592
f 585 596 574
f 603 606 579
f 610 618 580
f 592 597 576
f 576 601 593
f 576 597 591
f 591 601 576
f 644 659 625
f 625 659 639
f 659 661 639
f 634 661 659
f 667 671 635
f 635 671 669
f 635 669 666
f 666 668 635
f 584 586 574
f 583 586 584
f 583 584 570
f 574 592 584
f 604 613 611
f 579 613 604
f 606 613 579
f 611 613 580
f 580 613 612
f 612 613 606
f 621 623 616
f 615 618 610
f 589 615 571
f 571 615 610
f 580 622 611
f 618 622 580
f 611 622 620
f 618 623 622
f 620 622 582
f 622 623 582
f 590 592 576
f 584 592 590
f 584 590 570
f 576 593 590
f 590 593 587
f 570 590 587
f 633 665 655
f 662 671 634
f 659 662 634
f 669 671 662
f 644 662 659
f 630 662 644
f 630 669 662
f 629 668 642
f 607 609 604
f 604 609 579
f 616 623 581
f 581 623 618
f 615 617 581
f 581 618 615
f 657 658 651
f 651 660 627
f 660 667 627
f 627 667 655
f 627 657 651
f 667 670 655
f 655 670 633
f 635 670 667
f 668 670 635
f 628 676 639
f 639 661 628
f 674 677 676
f 674 676 628
f 638 674 628
f 661 663 653
f 628 661 653
f 628 653 638
f 647 648 642
f 642 648 629
f 631 648 647
f 579 605 603
f 579 609 605
f 603 605 583
f 605 609 608
f 583 605 573
f 605 608 573
f 581 619 616
f 616 619 614
f 617 619 581
f 655 665 664
f 655 664 627
f 627 664 657
f 656 668 629
f 633 670 656
f 656 670 668
f 636 677 674
f 673 677 636
f 632 658 652
f 653 663 632
f 651 658 632
f 632 663 651
f 633 656 654
f 641 656 629
f 654 656 641
f 636 674 672
f 624 672 638
f 672 674 638
f 632 652 650
f 624 650 637
f 650 652 637
f 650 653 632
f 638 650 624
f 638 653 650
f 598 625 571
f 598 644 625
f 640 645 599
f 591 640 599
f 595 640 591
f 595 643 640
f 599 645 601
f 645 646 601
f 601 630 578
f 601 646 630
f 675 676 615
f 615 676 617
f 589 639 615
f 639 675 615
f 617 676 619
f 676 677 619
f 619 673 614
f 619 677 673
f 678 679 585
f 621 716 715
f 608 719 718
f 718 722 608
f 665 759 758
f 607 713 704
f 631 755 751
f 788 789 654
f 641 781 780
f 705 706 637
f 2 1 26
f 2 26 27
f 215 214 227
f 234 215 227
f 233 234 227
f 405 422 423
f 406 405 423
f 424 406 423
f 643 595 602
f 643 602 649
f 408 407 426
f 427 408 426
f 234 235 216
f 234 216 215
f 578 630 644
f 578 644 598
f 413 412 433
f 413 433 434
f 589 571 625
f 589 625 639
f 236 237 217
f 236 217 216
f 235 236 216
f 567 569 568
f 567 568 566
f 809 436 415
f 809 415 414
f 693 436 809
f 602 577 681
f 682 681 577
f 237 238 218
f 237 218 217
f 2 27 28
f 3 2 28
f 687 682 577
f 594 687 577
f 416 415 436
f 416 436 437
f 238 239 219
f 238 219 218
f 4 3 28
f 4 28 29
f 694 695 574
f 586 694 574
f 417 416 437
f 417 437 438
f 240 220 219
f 239 240 219
f 695 678 574
f 585 574 678
f 5 4 29
f 5 29 30
f 704 703 607
f 419 418 439
f 419 439 440
f 240 241 221
f 240 221 220
f 6 5 30
f 6 30 31
f 573 710 711
f 712 710 573
f 420 441 442
f 421 420 442
f 241 242 222
f 241 222 221
f 7 6 31
f 7 31 32
f 722 573 608
f 728 573 722
f 712 573 728
f 242 243 223
f 242 223 222
f 423 422 443
f 423 443 444
f 8 7 32
f 8 32 33
f 243 244 224
f 243 224 223
f 582 700 701
f 621 700 582
f 729 700 621
f 425 424 445
f 424 423 445
f 425 445 446
f 9 8 33
f 9 33 34
f 729 621 715
f 448 426 447
f 426 425 447
f 791 226 225
f 770 791 225
f 770 225 211
f 35 9 34
f 10 9 35
f 733 716 616
f 621 616 716
f 736 733 616
f 449 427 448
f 428 427 449
f 791 793 233
f 791 233 227
f 791 227 226
f 11 10 35
f 11 35 36
f 735 739 658
f 734 735 658
f 429 428 449
f 429 449 450
f 12 11 36
f 12 36 37
f 229 228 245
f 229 245 246
f 739 721 652
f 739 652 658
f 430 429 450
f 430 450 451
f 13 12 37
f 13 37 38
f 631 749 750
f 751 749 631
f 229 246 247
f 230 229 247
f 430 451 452
f 431 430 452
f 14 13 38
f 14 38 39
f 231 230 247
f 231 247 248
f 746 743 609
f 719 608 609
f 719 609 743
f 432 431 452
f 432 452 453
f 14 39 40
f 15 14 40
f 231 248 249
f 232 231 249
f 609 607 703
f 708 609 703
f 746 609 708
f 433 432 453
f 433 453 454
f 701 697 582
f 16 15 40
f 16 40 41
f 434 433 454
f 434 454 455
f 795 232 249
f 796 795 249
f 796 249 250
f 786 232 795
f 696 620 697
f 582 697 620
f 17 16 41
f 17 41 42
f 435 434 455
f 435 455 456
f 696 686 620
f 686 683 620
f 804 251 234
f 802 804 234
f 802 234 233
f 18 17 42
f 18 42 43
f 616 614 737
f 736 616 737
f 805 435 456
f 805 456 680
f 236 235 252
f 236 252 253
f 19 18 43
f 19 43 44
f 752 738 614
f 737 614 738
f 437 436 457
f 437 457 458
f 255 236 254
f 237 236 255
f 237 255 256
f 45 19 44
f 20 19 45
f 665 633 774
f 775 774 633
f 438 437 458
f 438 458 459
f 747 734 658
f 657 747 658
f 238 237 256
f 238 256 257
f 21 20 45
f 21 45 46
f 744 747 657
f 464 465 440
f 464 440 439
f 721 725 652
f 258 238 257
f 239 238 258
f 22 21 46
f 22 46 47
f 629 648 776
f 777 629 776
f 465 466 441
f 465 441 440
f 241 240 259
f 241 259 260
f 23 22 47
f 23 47 48
f 648 631 750
f 771 648 750
f 466 467 442
f 466 442 441
f 243 242 261
f 243 261 262
f 24 23 48
f 24 48 49
f 771 776 648
f 467 468 443
f 467 443 442
f 246 245 264
f 246 264 265
f 774 760 665
f 759 665 760
f 25 24 49
f 25 49 50
f 468 469 444
f 468 444 443
f 247 246 265
f 247 265 266
f 26 51 52
f 27 26 52
f 657 664 767
f 745 657 767
f 744 657 745
f 469 470 445
f 469 445 444
f 247 266 267
f 248 247 267
f 664 665 758
f 763 664 758
f 28 27 52
f 28 52 53
f 470 471 446
f 470 446 445
f 755 631 649
f 755 649 754
f 249 248 267
f 249 267 268
f 29 28 53
f 29 53 54
f 763 767 664
f 471 472 447
f 471 447 446
f 250 249 268
f 250 268 269
f 725 705 637
f 725 637 652
f 30 29 54
f 30 54 55
f 472 473 448
f 472 448 447
f 31 30 55
f 31 55 56
f 814 270 252
f 813 252 251
f 812 813 251
f 814 252 813
f 473 474 449
f 473 449 448
f 806 811 602
f 810 602 811
f 681 806 602
f 32 31 56
f 32 56 57
f 253 252 270
f 271 253 270
f 474 475 460
f 450 449 460
f 474 460 449
f 799 636 801
f 807 801 636
f 33 32 57
f 33 57 58
f 460 461 451
f 460 451 450
f 255 254 271
f 255 271 272
f 687 594 797
f 798 797 594
f 673 636 800
f 799 800 636
f 461 452 451
f 463 452 461
f 59 33 58
f 34 33 59
f 257 256 273
f 257 273 274
f 768 694 586
f 463 478 453
f 463 453 452
f 477 478 463
f 35 34 59
f 35 59 60
f 586 711 768
f 573 711 586
f 258 257 274
f 258 274 275
f 633 654 789
f 775 633 789
f 35 60 61
f 36 35 61
f 478 479 454
f 478 454 453
f 259 258 275
f 259 275 276
f 723 714 572
f 607 572 714
f 713 607 714
f 479 480 455
f 479 455 454
f 37 36 61
f 37 61 62
f 277 259 276
f 260 259 277
f 787 788 654
f 480 481 456
f 480 456 455
f 37 62 63
f 38 37 63
f 777 779 629
f 641 629 779
f 261 260 277
f 261 277 278
f 39 38 63
f 39 63 64
f 279 261 278
f 262 261 279
f 684 685 572
f 685 723 572
f 481 726 680
f 481 482 726
f 481 680 456
f 572 620 684
f 683 684 620
f 40 39 64
f 40 64 65
f 262 279 280
f 263 262 280
f 485 486 458
f 485 458 457
f 40 65 66
f 41 40 66
f 265 282 283
f 266 265 283
f 654 641 784
f 787 654 784
f 780 784 641
f 486 487 459
f 486 459 458
f 800 794 673
f 42 41 66
f 42 66 67
f 267 266 283
f 267 283 284
f 475 476 462
f 475 462 460
f 779 778 641
f 641 778 781
f 43 42 67
f 43 67 68
f 268 267 284
f 268 284 285
f 463 462 476
f 463 476 477
f 594 796 798
f 795 796 594
f 44 43 68
f 44 68 69
f 268 285 286
f 269 268 286
f 624 637 691
f 690 624 691
f 741 482 483
f 726 482 741
f 45 44 69
f 45 69 70
f 806 269 286
f 811 286 287
f 806 286 811
f 585 786 594
f 594 786 795
f 785 786 585
f 47 46 71
f 47 71 72
f 636 672 807
f 808 807 672
f 271 270 817
f 288 272 271
f 288 271 817
f 816 817 270
f 672 624 689
f 690 689 624
f 49 48 73
f 49 73 74
f 735 484 485
f 739 735 485
f 721 739 485
f 725 721 485
f 457 705 725
f 457 706 705
f 457 725 485
f 692 706 457
f 679 785 585
f 275 274 289
f 275 289 290
f 50 49 74
f 50 74 75
f 465 464 488
f 465 488 489
f 277 276 291
f 277 291 292
f 808 672 809
f 693 809 672
f 689 693 672
f 52 51 76
f 52 76 77
f 466 465 489
f 466 489 490
f 279 278 293
f 279 293 294
f 691 637 692
f 706 692 637
f 53 52 77
f 53 77 78
f 467 466 490
f 467 490 491
f 280 279 294
f 280 294 295
f 54 53 78
f 54 78 79
f 299 300 296
f 299 296 281
f 469 468 492
f 493 469 492
f 55 54 79
f 55 79 80
f 284 283 297
f 284 297 298
f 471 470 493
f 471 493 494
f 56 55 80
f 56 80 81
f 285 284 298
f 285 298 303
f 473 472 495
f 473 495 496
f 57 56 81
f 57 81 82
f 303 304 286
f 303 286 285
f 474 473 496
f 474 496 497
f 58 57 82
f 58 82 83
f 304 305 287
f 304 287 286
f 783 790 649
f 742 754 649
f 741 742 649
f 726 741 649
f 680 726 649
f 805 680 649
f 803 805 649
f 792 803 649
f 790 792 649
f 782 783 649
f 602 782 649
f 476 475 498
f 476 498 499
f 59 58 83
f 59 83 84
f 818 815 287
f 305 306 818
f 305 818 287
f 478 477 500
f 478 500 501
f 60 59 84
f 60 84 85
f 479 502 503
f 480 479 503
f 288 307 308
f 698 307 288
f 817 698 288
f 61 60 85
f 61 85 86
f 308 309 289
f 308 289 288
f 481 480 503
f 481 503 504
f 61 86 87
f 62 61 87
f 290 289 310
f 309 310 289
f 505 481 504
f 482 481 505
f 63 62 87
f 63 87 88
f 310 311 291
f 310 291 290
f 64 63 88
f 64 88 89
f 311 312 292
f 311 292 291
f 742 483 506
f 755 754 506
f 754 742 506
f 751 755 506
f 749 751 506
f 66 65 90
f 66 90 91
f 312 313 293
f 312 293 292
f 485 484 507
f 485 507 508
f 68 67 92
f 68 92 93
f 313 314 294
f 313 294 293
f 486 485 508
f 486 508 509
f 68 93 94
f 69 68 94
f 314 315 295
f 314 295 294
f 487 486 509
f 487 509 510
f 773 782 602
f 766 773 602
f 757 766 602
f 756 757 602
f 748 756 602
f 740 748 602
f 732 740 602
f 727 732 602
f 717 727 602
f 702 717 602
f 699 702 602
f 688 699 602
f 818 688 602
f 815 818 602
f 810 815 602
f 70 69 94
f 70 94 95
f 297 301 302
f 298 297 302
f 515 516 489
f 515 489 488
f 70 95 96
f 71 70 96
f 516 517 490
f 516 490 489
f 818 306 688
f 72 71 96
f 72 96 97
f 517 518 491
f 517 491 490
f 299 316 317
f 300 299 317
f 73 72 97
f 73 97 98
f 518 519 492
f 518 492 491
f 74 73 98
f 74 98 99
f 302 301 318
f 302 318 319
f 520 521 493
f 521 494 493
f 520 493 492
f 519 520 492
f 75 74 99
f 75 99 100
f 304 303 320
f 304 320 321
f 304 321 322
f 305 304 322
f 77 76 101
f 77 101 102
f 522 523 495
f 523 496 495
f 521 522 495
f 521 495 494
f 306 305 322
f 306 322 323
f 78 77 102
f 78 102 103
f 523 524 497
f 523 497 496
f 524 525 498
f 524 498 497
f 688 306 323
f 688 323 324
f 688 324 699
f 79 78 103
f 79 103 104
f 762 753 614
f 765 762 614
f 752 614 753
f 770 765 614
f 791 770 614
f 791 614 793
f 793 614 802
f 812 614 813
f 802 614 804
f 804 614 812
f 526 499 498
f 525 526 498
f 310 309 326
f 310 326 327
f 80 79 104
f 80 104 105
f 526 527 500
f 526 500 499
f 312 311 328
f 312 328 329
f 81 80 105
f 81 105 106
f 527 528 501
f 527 501 500
f 314 313 330
f 314 330 331
f 82 81 106
f 82 106 107
f 528 529 511
f 528 511 501
f 315 314 331
f 315 331 332
f 83 82 107
f 83 107 108
f 502 511 512
f 513 512 511
f 504 503 512
f 504 512 514
f 317 316 333
f 317 333 334
f 84 83 108
f 84 108 109
f 85 84 109
f 85 109 110
f 317 334 335
f 318 317 335
f 514 532 505
f 514 505 504
f 531 532 514
f 319 318 335
f 319 335 336
f 85 110 111
f 86 85 111
f 533 506 505
f 532 533 505
f 87 86 111
f 87 111 112
f 320 319 336
f 320 336 337
f 88 87 112
f 88 112 113
f 320 337 338
f 321 320 338
f 89 88 113
f 89 113 114
f 322 321 338
f 322 338 339
f 533 534 771
f 534 776 771
f 534 777 776
f 749 506 750
f 533 771 750
f 534 779 777
f 533 750 506
f 778 779 534
f 89 114 115
f 90 89 115
f 323 322 339
f 323 339 340
f 769 673 772
f 764 673 769
f 761 673 764
f 731 673 761
f 731 730 673
f 730 724 673
f 724 720 673
f 720 709 673
f 709 707 673
f 707 698 673
f 698 614 673
f 817 614 698
f 816 614 817
f 814 614 816
f 813 614 814
f 794 772 673
f 91 90 115
f 91 115 116
f 324 323 340
f 324 340 341
f 92 91 116
f 92 116 117
f 774 536 507
f 774 507 760
f 535 788 787
f 535 789 788
f 535 775 789
f 535 536 775
f 774 775 536
f 535 787 784
f 702 324 341
f 717 702 341
f 118 92 117
f 93 92 118
f 536 537 508
f 536 508 507
f 327 326 342
f 327 342 343
f 94 93 118
f 94 118 119
f 537 538 509
f 537 509 508
f 328 327 343
f 328 343 344
f 120 94 119
f 95 94 120
f 538 539 510
f 538 510 509
f 329 328 344
f 329 344 345
f 96 95 120
f 96 120 121
f 529 530 513
f 529 513 511
f 329 345 346
f 330 329 346
f 97 96 121
f 97 121 122
f 331 330 346
f 331 346 347
f 534 535 780
f 534 780 781
f 535 784 780
f 534 781 778
f 98 97 122
f 98 122 123
f 331 347 348
f 332 331 348
f 530 531 514
f 530 514 513
f 99 98 123
f 99 123 124
f 334 333 349
f 334 349 350
f 516 515 540
f 516 540 541
f 100 99 124
f 100 124 125
f 335 334 350
f 335 350 351
f 518 517 542
f 518 542 543
f 102 101 126
f 102 126 127
f 335 351 352
f 336 335 352
f 103 102 127
f 103 127 128
f 520 519 544
f 520 544 545
f 337 336 352
f 337 352 353
f 521 520 546
f 521 546 547
f 104 103 128
f 104 128 129
f 524 523 549
f 524 549 550
f 338 337 353
f 338 353 354
f 105 104 129
f 105 129 130
f 525 551 552
f 526 525 552
f 338 354 355
f 339 338 355
f 106 105 130
f 106 130 131
f 527 526 552
f 527 552 553
f 107 106 131
f 107 131 132
f 340 339 355
f 340 355 356
f 528 527 553
f 528 553 554
f 108 107 132
f 108 132 133
f 341 340 356
f 341 356 357
f 529 528 554
f 529 554 555
f 109 108 133
f 109 133 134
f 717 341 357
f 717 357 727
f 529 555 556
f 530 529 556
f 135 109 134
f 110 109 135
f 731 343 342
f 731 358 343
f 731 342 730
f 531 530 556
f 531 556 557
f 111 110 135
f 111 135 136
f 345 344 359
f 345 359 360
f 558 531 557
f 532 531 558
f 112 111 136
f 112 136 137
f 346 345 360
f 346 360 361
f 113 112 137
f 113 137 161
f 533 532 558
f 533 558 559
f 362 346 361
f 347 346 362
f 534 533 559
f 534 559 560
f 161 183 138
f 114 113 138
f 161 138 113
f 182 183 161
f 348 347 362
f 348 362 363
f 535 534 560
f 535 560 561
f 115 114 138
f 115 138 139
f 366 367 350
f 366 350 349
f 115 139 140
f 116 115 140
f 536 535 561
f 536 561 562
f 367 368 351
f 367 351 350
f 117 116 140
f 117 140 141
f 537 536 562
f 537 562 563
f 368 369 352
f 368 352 351
f 538 537 563
f 538 563 564
f 142 117 141
f 118 117 142
f 166 143 142
f 118 142 143
f 370 353 352
f 369 370 352
f 539 538 564
f 539 564 565
f 119 118 143
f 119 143 144
f 370 371 354
f 370 354 353
f 120 119 144
f 120 144 145
f 371 372 355
f 371 355 354
f 121 120 145
f 121 145 146
f 372 373 356
f 372 356 355
f 122 121 146
f 122 146 147
f 374 375 357
f 374 357 356
f 373 374 356
f 123 122 147
f 123 147 171
f 171 193 148
f 124 123 148
f 171 148 123
f 192 193 171
f 364 732 357
f 727 357 732
f 375 376 364
f 375 364 357
f 125 124 148
f 125 148 149
f 731 761 358
f 127 126 150
f 127 150 151
f 26 1 566
f 51 26 566
f 76 51 566
f 101 76 566
f 126 101 566
f 150 126 566
f 173 150 566
f 206 173 566
f 228 206 566
f 245 228 566
f 264 245 566
f 281 264 566
f 299 281 566
f 568 316 299
f 568 333 316
f 568 349 333
f 568 366 349
f 568 385 366
f 568 418 385
f 568 439 418
f 568 464 439
f 568 488 464
f 568 515 488
f 568 299 566
f 540 515 568
f 128 127 151
f 128 151 152
f 761 764 380
f 761 380 359
f 761 359 358
f 129 128 152
f 129 152 153
f 380 381 360
f 380 360 359
f 130 129 153
f 130 153 154
f 382 361 360
f 381 382 360
f 131 130 154
f 131 154 155
f 382 383 362
f 382 362 361
f 131 155 156
f 132 131 156
f 384 363 362
f 383 384 362
f 133 132 156
f 133 156 157
f 364 365 740
f 364 740 732
f 748 365 378
f 740 365 748
f 685 684 133
f 685 133 157
f 134 133 684
f 134 684 683
f 686 134 683
f 756 378 379
f 748 378 756
f 541 540 568
f 542 541 568
f 543 542 568
f 544 543 568
f 545 544 568
f 546 545 568
f 547 546 568
f 548 547 568
f 549 548 568
f 550 549 568
f 551 550 568
f 552 551 568
f 553 552 568
f 554 553 568
f 555 554 568
f 556 555 568
f 557 556 568
f 558 557 568
f 569 559 558
f 569 560 559
f 569 561 560
f 569 562 561
f 569 563 562
f 569 564 563
f 569 558 568
f 565 564 569
f 367 366 385
f 367 385 386
f 701 700 135
f 135 700 158
f 134 701 135
f 697 701 134
f 696 697 134
f 686 696 134
f 368 387 388
f 369 368 388
f 183 184 162
f 183 162 138
f 371 370 389
f 371 389 390
f 140 139 162
f 140 162 163
f 372 391 392
f 373 372 392
f 140 163 164
f 141 140 164
f 376 375 394
f 376 394 395
f 165 141 164
f 142 141 165
f 142 165 166
f 187 166 165
f 377 376 395
f 377 395 396
f 143 166 167
f 188 167 166
f 378 377 396
f 378 396 397
f 145 144 167
f 145 167 168
f 757 379 398
f 757 398 766
f 146 145 168
f 146 168 169
f 772 381 380
f 772 399 381
f 772 380 769
f 147 146 169
f 147 169 170
f 539 565 569
f 510 539 569
f 487 510 569
f 459 487 569
f 438 459 569
f 417 438 569
f 403 417 569
f 402 403 569
f 384 402 569
f 363 384 569
f 348 363 569
f 332 348 569
f 315 332 569
f 295 315 569
f 567 280 295
f 567 263 280
f 567 244 263
f 567 224 244
f 567 205 224
f 567 194 205
f 567 172 194
f 567 149 172
f 567 125 149
f 567 100 125
f 567 75 100
f 567 50 75
f 567 295 569
f 25 50 567
f 193 194 172
f 193 172 148
f 382 381 399
f 382 399 400
f 151 150 173
f 151 173 174
f 401 382 400
f 383 382 401
f 152 151 174
f 152 174 175
f 419 386 385
f 418 419 385
f 153 152 175
f 153 175 176
f 419 420 387
f 419 387 386
f 154 153 176
f 154 176 177
f 404 388 387
f 420 421 404
f 420 404 387
f 155 154 177
f 155 177 178
f 405 389 388
f 404 405 388
f 156 155 178
f 156 178 179
f 405 406 390
f 405 390 389
f 160 181 182
f 161 160 182
f 406 391 390
f 424 391 406
f 24 25 567
f 23 24 567
f 22 23 567
f 21 22 567
f 20 21 567
f 19 20 567
f 18 19 567
f 566 17 18
f 566 16 17
f 566 15 16
f 566 14 15
f 566 13 14
f 566 12 13
f 566 11 12
f 566 10 11
f 566 9 10
f 566 8 9
f 566 7 8
f 566 6 7
f 566 5 6
f 566 4 5
f 566 3 4
f 566 2 3
f 566 18 567
f 1 2 566
f 163 162 184
f 163 184 185
f 407 392 391
f 424 425 407
f 424 407 391
f 407 408 393
f 407 393 392
f 164 163 185
f 164 185 186
f 408 394 393
f 427 394 408
f 165 164 186
f 187 165 186
f 691 457 436
f 690 436 689
f 691 436 690
f 692 457 691
f 693 689 436
f 409 395 394
f 427 428 409
f 427 409 394
f 168 167 188
f 168 188 189
f 410 396 395
f 409 410 395
f 169 168 189
f 169 189 190
f 703 179 708
f 156 179 703
f 704 156 703
f 157 156 704
f 713 157 704
f 714 157 713
f 410 397 396
f 430 397 410
f 170 169 190
f 170 190 191
f 430 431 398
f 430 398 397
f 325 307 707
f 709 325 707
f 171 170 191
f 171 191 192
f 411 773 398
f 766 398 773
f 431 432 411
f 431 411 398
f 206 207 174
f 206 174 173
f 723 157 714
f 685 157 723
f 175 174 208
f 207 208 174
f 342 325 720
f 724 342 720
f 208 209 176
f 208 176 175
f 772 794 399
f 800 799 414
f 800 414 399
f 801 414 799
f 794 800 399
f 209 210 177
f 209 177 176
f 414 415 400
f 414 400 399
f 158 700 729
f 158 729 715
f 716 158 715
f 733 158 716
f 415 416 401
f 415 401 400
f 210 712 728
f 178 177 728
f 210 728 177
f 710 712 210
f 416 417 403
f 416 403 401
f 753 195 181
f 762 195 753
f 753 181 180
f 484 735 734
f 484 734 747
f 744 484 747
f 745 484 744
f 183 182 196
f 183 196 197
f 411 412 783
f 411 783 782
f 411 782 773
f 180 158 737
f 736 737 158
f 738 180 737
f 733 736 158
f 185 184 198
f 185 198 215
f 214 215 198
f 790 412 413
f 783 412 790
f 215 216 186
f 215 186 185
f 216 217 199
f 187 186 199
f 216 199 186
f 728 722 178
f 178 722 718
f 719 178 718
f 743 178 719
f 179 178 743
f 189 188 200
f 189 200 201
f 179 743 746
f 708 179 746
f 189 201 202
f 220 202 201
f 191 190 202
f 191 202 203
f 180 738 752
f 753 180 752
f 192 191 203
f 192 203 222
f 222 223 204
f 193 192 204
f 222 204 192
f 507 763 758
f 507 758 759
f 507 759 760
f 767 763 507
f 484 767 507
f 745 767 484
f 197 196 212
f 197 212 213
f 201 200 218
f 201 218 219
f 211 195 762
f 765 211 762
f 203 202 220
f 203 220 221
f 229 207 206
f 228 229 206
f 229 230 208
f 229 208 207
f 230 231 209
f 230 209 208
f 695 694 210
f 768 210 694
f 711 210 768
f 710 210 711
f 232 678 695
f 232 679 678
f 232 695 210
f 785 679 232
f 786 785 232
f 231 232 210
f 231 210 209
f 213 212 225
f 213 225 226
f 250 797 798
f 796 250 798
f 413 435 803
f 792 413 803
f 687 250 269
f 687 269 682
f 797 250 687
f 681 682 269
f 806 681 269
f 414 801 807
f 808 414 807
f 809 414 808
f 810 287 815
f 811 287 810
