# https://github.com/mikedh/trimesh
v -1.99093544 -2.00373983 -0.89514321
v -2.00911093 -2.00039291 -0.81947428
v -2.00282097 -2.01160669 -0.73701841
v -2.01239491 -1.99752676 -0.71103227
v -2.00817442 -2.00533581 -0.65856034
v -2.00128293 -2.01047397 -0.58659869
v -2.00837231 -2.00597334 -0.38882941
v -1.99960268 -2.01003742 -0.21160755
v -2.01412487 -1.89823568 -0.81697565
v -2.01331615 -1.99493396 -0.75700766
v -2.01413512 -1.94489825 -0.45993203
v -2.01412487 -1.95358109 -0.24690525
v -2.00526166 -1.98391175 -0.17141493
v -2.01429892 -1.96445024 -0.64406806
v -2.00232172 -1.88699174 -0.91039789
v -2.01429892 -1.80338013 -0.60163754
v -2.00696063 -1.84138703 -0.19737183
v -2.01418543 -1.72201729 -0.32297784
v -2.01424766 -1.64551127 -0.84842759
v -1.99279964 -1.54023945 -0.91022819
v -2.01429892 -1.57771945 -0.67589480
v -1.91154706 -1.67717421 -0.91401619
v -2.00999069 -1.61374581 -0.22908397
v -2.01429892 -1.52852714 -0.47109795
v -2.01429462 -1.41055882 -0.34466553
v -2.00636816 -1.32437313 -0.26772469
v -2.01417613 -1.32154381 -0.85458058
v -2.01429892 -1.31489122 -0.63500255
v -2.01429892 -1.10052133 -0.40347785
v -2.00927949 -1.12225962 -0.89749229
v -2.01429892 -1.12221289 -0.71919978
v -2.01245427 -1.16417325 -0.30827564
v -2.01429892 -0.89460790 -0.66915613
v -2.00919247 -0.92061818 -0.33056200
v -2.01426888 -0.79070246 -0.40044820
v -2.00981212 -0.78607994 -0.90119523
v -2.01421690 -0.65902287 -0.82895362
v -2.01429892 -0.61640501 -0.61241311
v -2.00571871 -0.67620116 -0.35724062
v -1.98695576 -0.64415580 -0.91142720
v -2.01429510 -0.58768600 -0.42818338
v -2.00792122 -0.44675282 -0.39437133
v -2.01111674 -0.43670416 -0.89424980
v -2.01429892 -0.35146844 -0.75072980
v -2.01429892 -0.38612178 -0.51341909
v -2.01311302 -0.25770122 -0.44248891
v -1.99750483 -0.24768016 -0.90973192
v -2.01429892 -0.11331445 -0.67622274
v -2.01429892 -0.17503148 -0.55374128
v -2.01407385 -0.15554190 -0.85058266
v -2.00795412 -0.13694662 -0.43936020
v -2.00512075 -0.07146180 -0.90755373
v -2.01425505 0.01611638 -0.51757306
v -1.99456966 -0.02593330 -0.44286346
v -2.01429892 0.06402826 -0.77488095
v -2.00444651 0.08857763 -0.90601790
v -2.00812674 0.12124476 -0.46845353
v -2.01425457 0.19548923 -0.56560999
v -2.01429892 0.40198052 -0.73458213
v -2.01181626 0.31027162 -0.89553601
v -2.00731206 0.42029041 -0.51015604
v -2.01428604 0.48570925 -0.57557333
v -1.99764931 0.53621352 -0.91151184
v -2.01414537 0.60743332 -0.85239422
v -2.01429248 0.74054182 -0.65924740
v -2.00804496 0.65651846 -0.54527825
v -2.00781703 0.85023320 -0.90414065
v -2.00564718 0.90499437 -0.58252853
v -2.01427150 1.02471805 -0.74674755
v -2.00319791 1.11684084 -0.90478623
v -2.00726914 1.24915922 -0.62659162
v -2.01424789 1.34626496 -0.75203574
v -2.00910091 1.40175092 -0.90208668
v -2.01135039 1.66216469 -0.69574195
v -2.01410866 1.76718080 -0.83220184
v -2.00426292 1.71258485 -0.91039616
v -1.91501224 1.52858400 -0.63960689
v -2.01008081 1.92272675 -0.72675228
v -1.99939644 1.93821442 -0.90948302
v -2.00468159 2.00464582 -0.88918155
v -2.00679588 2.00679588 -0.78849083
v -1.98619878 2.00743103 -0.73094255
v -1.94453919 -2.01415586 -0.41202796
v -1.94550145 -1.88519800 -0.16873045
v -1.89425337 -1.91448486 -0.91420680
v -1.82260001 -1.67505300 -0.16979216
v -1.95151746 -1.47779906 -0.22719397
v -1.83806479 -1.30133593 -0.91428357
v -1.94136918 -1.10762691 -0.91410452
v -1.95799410 -1.03587103 -0.29046732
v -1.95782912 -0.91925883 -0.91407377
v -1.96944773 -0.79007781 -0.91421705
v -1.95215952 -0.76549196 -0.32700318
v -1.96381342 -0.50025439 -0.36690164
v -1.90217125 -0.51369429 -0.91425800
v -1.94791186 -0.29264063 -0.39219630
v -1.89732921 0.13067538 -0.43980277
v -1.94294631 0.15226233 -0.91411471
v -1.91278684 0.35580468 -0.47492820
v -1.92628324 0.34465957 -0.91413516
v -1.95175064 0.57603657 -0.51480931
v -1.94522631 0.75280082 -0.91409427
v -1.91902244 0.79992616 -0.53849369
v -1.92246306 1.11708593 -0.58370429
v -1.94580424 1.26410580 -0.91424775
v -1.93365443 1.47708571 -0.91403282
v -1.96945894 1.88182533 -0.70168567
v -1.77242804 1.71655536 -0.91428870
v -1.87666905 2.01407862 -0.84257132
v -1.81174290 -2.01427841 -0.77638012
v -1.88559949 -2.00171328 -0.15015598
v -1.85264361 -1.27568042 -0.23263632
v -1.84721863 -0.52493721 -0.33648032
v -1.82742989 -0.30677360 -0.91429895
v -1.94754660 -0.12076356 -0.41612518
v -1.78327382 -0.06607404 -0.91429895
v -1.82190144 0.57974494 -0.91429895
v -1.89569032 1.00040293 -0.91429895
v -1.91722572 1.99332631 -0.91205698
v -1.77106154 -0.78053600 -0.91429895
v -1.85533345 -0.02939707 -0.40772402
v -1.85536230 2.00762463 -0.70256025
v -1.70533884 -2.00615382 -0.90720993
v -1.81316531 -0.80063432 -0.29004735
v -1.75809193 0.22605103 -0.91429895
v -1.70285583 1.24587333 -0.91429895
v -1.82027638 1.86056507 -0.66424602
v -1.71728563 -1.09275985 -0.91429895
v -1.83036649 -0.18922313 -0.37958783
v -1.81144249 0.24730802 -0.43636686
v -1.73829758 1.68285465 -0.62053972
v -1.71265519 -2.01429892 -0.48727679
v -1.84077179 -1.01419950 -0.26648647
v -1.73657215 0.68092257 -0.47984225
v -1.74728787 0.89129627 -0.51176518
v -1.71883166 2.00748348 -0.90692592
v -1.76146519 -2.01429892 -0.22622879
v -1.70827615 -0.30472511 -0.33534795
v -1.76751566 0.51738459 -0.46406674
v -1.71936262 0.89372551 -0.91429895
v -1.69942915 1.27267635 -0.55417424
v -1.71597064 -1.89269447 -0.11481495
v -1.60975707 -1.51320708 -0.91429895
v -1.58871377 -0.40952334 -0.91429895
v -1.66675007 -1.41077268 -0.17096816
v -1.65586054 -0.92212176 -0.23684429
v -1.61593950 1.04542029 -0.50314468
v -1.74806607 2.01425219 -0.71677917
v -1.56638968 -1.92461622 -0.91418636
v -1.71161151 -1.16294420 -0.21597727
v -1.68136799 0.04534972 -0.37817448
v -1.66257548 -1.99925411 -0.09551574
v -1.61115253 -1.68428373 -0.11986738
v -1.67889488 -0.12368940 -0.35394508
v -1.66067648 0.40904427 -0.42433780
v -1.69977152 -0.48443127 -0.30823052
v -1.72359121 1.99924099 -0.66384572
v -1.67817533 -0.63791883 -0.28178281
v -1.53631985 0.71033132 -0.91429895
v -1.61554027 1.44374633 -0.55880499
v -1.58896351 1.92918789 -0.91427845
v -1.61759281 0.24955821 -0.39211398
v -1.58416927 2.01427650 -0.76447242
v -1.58724582 0.47771358 -0.91429895
v -1.58633769 0.57711679 -0.43076366
v -1.43585789 -0.87420475 -0.91429895
v -1.47386098 -2.01429892 -0.24393806
v -1.49192774 1.86160457 -0.58889598
v -1.48690474 -2.01429391 -0.68161827
v -1.55341113 -0.73035693 -0.24015789
v -1.55935657 -0.48429161 -0.27596837
v -1.53849053 0.08754694 -0.91429895
v -1.43859088 0.30980319 -0.91429895
v -1.55935502 0.75006652 -0.44878769
v -1.52847564 1.66896927 -0.57032108
v -1.43498325 2.01094532 -0.88763887
v -1.63134491 1.98928797 -0.63915515
v -1.63912427 2.01139784 -0.65350586
v -1.56595969 -1.16992378 -0.18149297
v -1.52679360 -0.67286700 -0.91429895
v -1.54067397 -0.11272727 -0.32369179
v -1.52602518 -1.50780034 -0.12498809
v -1.47115147 1.04639399 -0.91429895
v -1.57732856 2.00749445 -0.63400036
v -1.52021933 -2.00963688 -0.08044217
v -1.55685365 -1.94850504 -0.07046387
v -1.43976200 -1.09197903 -0.91429895
v -1.50561988 -0.27299446 -0.29317576
v -1.51570022 0.16794252 -0.35725111
v -1.47577941 0.35778832 -0.37461960
v -1.41082442 1.46157837 -0.91429895
v -1.40954125 -1.78867805 -0.05889368
v -1.44794071 1.28029525 -0.49739605
v -1.41050458 1.53313792 -0.52417308
v -1.43734705 -1.35612571 -0.12584688
v -1.41398132 -1.06450176 -0.16130549
v -1.34415686 1.74965107 -0.91429895
v -1.43007970 -2.01429892 -0.43193138
v -1.43785822 -0.00697136 -0.31481653
v -1.34882629 0.54914415 -0.91429895
v -1.33408749 2.00514364 -0.57963872
v -1.40752935 -0.56455863 -0.22979949
v -1.30438125 -1.72236872 -0.91429895
v -1.37870872 -1.44410336 -0.91429895
v -1.27132070 -0.11872953 -0.91429895
v -1.42779005 0.57774460 -0.39440268
v -1.32060635 0.84061241 -0.40652680
v -1.36568511 0.98871791 -0.43763524
v -1.41611838 -2.01024580 -0.90328485
v -1.38847911 -1.95957994 -0.03040766
v -1.31336892 -1.52538502 -0.07364988
v -1.39736831 -0.35032314 -0.25745410
v -1.35584629 -0.10923058 -0.28167403
v -1.39667022 0.14397258 -0.32649404
v -1.24242222 -2.01429558 -0.06174637
v -1.37725031 -0.77150559 -0.19386096
v -1.33294404 -0.58542156 -0.91429895
v -1.30119550 0.84768760 -0.91429895
v -1.36533201 -2.00689793 -0.02605859
v -1.35502601 1.92931283 -0.91413516
v -1.28226817 -0.36769414 -0.91429895
v -1.32104790 0.34394413 -0.33710152
v -1.24712670 2.01422644 -0.75377113
v -1.12938881 -2.01429892 -0.67580110
v -1.26098263 1.16784465 -0.91429895
v -1.21358955 1.50042546 -0.47430778
v -1.29092896 1.21437955 -0.45205331
v -1.28456378 -1.98025441 -0.91384858
v -1.28816938 -1.31282830 -0.10352148
v -1.33136892 -1.08083510 -0.14323395
v -1.31221926 -0.22630093 -0.25522396
v -1.19128549 0.18668142 -0.91429895
v -1.20076549 1.75492823 -0.50696653
v -1.24071217 -2.01413536 -0.86351329
v -1.18531990 -0.79361498 -0.91429895
v -1.29130280 0.05168521 -0.28934121
v -1.27623165 0.51584828 -0.35087192
v -1.18430483 -2.01429892 -0.32357520
v -1.17656064 0.74698794 -0.36030102
v -1.15500021 -1.14999104 -0.91429895
v -1.29120851 -0.91406083 -0.15716380
v -1.17563426 -0.64488482 -0.16526558
v -1.23531878 -0.48930493 -0.20072983
v -1.23917806 -0.34562337 -0.22174753
v -1.19507909 0.15312722 -0.28141361
v -1.15115058 1.99932158 -0.91060680
v -1.23550308 -1.19982147 -0.15959476
v -1.26268411 -1.07845402 -0.17016564
v -1.06105816 0.34867311 -0.91429895
v -1.09809303 1.51134074 -0.91429895
v -1.16844738 1.92000186 -0.52269787
v -1.09461439 -1.87456322 0.02557038
v -1.13269889 -1.64292133 -0.01562411
v -1.20480192 -0.97875959 -0.19262825
v -1.16069281 1.08254945 -0.40364116
v -1.20002580 -2.00182366 0.01510033
v -1.10134923 -2.00849581 -0.88697374
v -0.99140787 -1.88175225 -0.91425288
v -1.18891227 -0.21198428 -0.22888388
v -1.11692631 -1.32211673 -0.14652039
v -1.17795265 -0.74058968 -0.15547641
v -1.15328133 0.38192308 -0.30382824
v -1.07252073 0.67739582 -0.91429895
v -1.06215906 -0.46759391 -0.91429895
v -1.10641861 0.55447292 -0.31723922
v -1.07727611 0.92995608 -0.91429895
v -1.07131827 1.24967611 -0.91429895
v -1.06343913 -0.85263789 -0.20958041
v -1.09630430 -0.03493153 -0.23237567
v -1.05381191 -2.01429892 -0.13640179
v -1.01122534 -1.37263381 -0.91429895
v -1.16530192 -1.46071470 -0.05497727
v -1.06952739 -0.43047875 -0.17082892
v -1.12442601 0.26211536 -0.28043658
v -1.09381175 1.25842583 -0.41283000
v -1.11049509 -0.73313248 -0.16955785
v -1.07182801 -1.44314075 -0.08714153
v -1.12529576 -1.15079927 -0.20445390
v -1.02395296 0.02182427 -0.91429895
v -1.03481567 1.45418370 -0.42671913
v -0.93249404 1.88343108 -0.91423756
v -0.96321976 2.01426411 -0.59983778
v -1.12514567 -2.01164150 0.02386855
v -1.03397596 -0.23590410 -0.18992992
v -1.04194486 2.00910139 -0.51342076
v -1.00137126 2.01407385 -0.86195153
v -0.99827909 -1.61341906 -0.91429895
v -1.06203938 -2.00313449 0.04700454
v -1.03649652 -0.97679031 -0.22755739
v -1.03953028 0.89602077 -0.34966105
v -0.97930133 -1.52404249 -0.02371793
v -0.99978006 -1.17273426 -0.21340354
v -1.00238085 0.71022296 -0.31508529
v -0.98709536 1.70410013 -0.45072204
v -0.94332421 -2.01429892 -0.49521005
v -1.03610289 0.10425600 -0.23801243
v -1.03369772 -2.01307988 0.03828380
v -0.93930686 -0.81212074 -0.91429895
v -0.91449583 1.05979311 -0.91429895
v -0.94999254 -2.01415586 -0.86907274
v -0.93761885 -0.63929361 -0.18837921
v -1.01845586 -0.56469828 -0.14445204
v -0.97726893 0.25869006 -0.24608912
v -0.87063074 1.19301486 -0.35238838
v -0.87179983 -2.01429892 -0.28183973
v -0.97473097 0.38714910 -0.26348764
v -0.86547518 0.55086195 -0.91429895
v -0.85182595 1.93307745 -0.45174849
v -1.00746179 -1.99093616 0.06097843
v -0.93035102 -0.44189024 -0.13861346
v -0.87845266 1.60539210 -0.91429895
v -0.89824402 -1.69433415 0.04550225
v -0.90247118 -1.40082014 -0.11615819
v -0.79740214 -1.12418056 -0.91429895
v -0.82093632 -0.48005596 -0.91429895
v -0.91361332 -0.29343435 -0.15415718
v -0.89756453 -0.07323983 -0.18129961
v -0.88659203 0.13514125 -0.20793943
v -0.90914214 0.55773139 -0.27230734
v -0.82598341 1.48840308 -0.38345528
v -0.87908936 -1.56857765 0.02767569
v -0.85210729 -0.26824731 -0.91429895
v -0.90223324 -2.00783157 0.08013865
v -0.77695215 -1.74575460 -0.91429895
v -0.91088843 -0.98865926 -0.23174527
v -0.92658532 -0.49703532 -0.14976050
v -0.72333235 -2.01429892 -0.09905260
v -0.88870823 -0.84237003 -0.22861661
v -0.80640912 0.92829251 -0.30054587
v -0.81926548 0.78397167 -0.91429895
v -0.78340960 1.31031549 -0.91429895
v -0.83118093 -2.00754833 -0.90533513
v -0.78981960 -1.93048084 0.10332561
v -0.89554036 -1.25842130 -0.18667395
v -0.81996763 -1.15009975 -0.20126419
v -0.70460021 -2.01429892 -0.59257990
v -0.78629863 0.00904986 -0.91429895
v -0.74297810 0.35912061 -0.91429895
v -0.79349256 1.76220930 -0.41432726
v -0.83093107 1.99223292 -0.90997869
v -0.71154445 2.00518084 -0.43932641
v -0.74408299 2.01429367 -0.74735659
v -0.80958772 0.41407043 -0.22929986
v -0.68302578 -1.55384159 -0.91429895
v -0.79271674 -0.17193116 -0.14336120
v -0.76639432 0.06718940 -0.17079835
v -0.79542744 0.26331294 -0.20492680
v -0.78102201 0.70344418 -0.26430285
v -0.71341580 -2.01429892 -0.79881346
v -0.78311658 -1.47899806 -0.02845968
v -0.79073560 -1.32109952 -0.13711251
v -0.71813673 -0.37670109 -0.17540582
v -0.82484186 -0.36677283 -0.13902394
v -0.77590227 -0.93006432 -0.22728266
v -0.79319918 -0.70824242 -0.22527677
v -0.75178146 -0.24026814 -0.12770939
v -0.69445717 1.10049009 -0.91429895
v -0.66028154 -1.72206914 0.10412309
v -0.71930325 -0.84039468 -0.91429895
v -0.75822735 -0.56445038 -0.21078278
v -0.57510686 1.63870251 -0.91429895
v -0.67526436 -2.01422691 0.06923835
v -0.69075602 -0.77115041 -0.22990756
v -0.68561536 -0.04069591 -0.13714503
v -0.73116708 -1.99862397 0.12101603
v -0.58487511 2.00866032 -0.90475756
v -0.65177685 -1.94870877 -0.91429895
v -0.61888754 -1.16878021 -0.13579218
v -0.59730595 -0.67119604 -0.91429895
v -0.73402601 0.55609220 -0.23934636
v -0.65749252 0.87069094 -0.91429895
v -0.65203124 1.37988257 -0.32826203
v -0.65297490 -1.00235832 -0.19628541
v -0.63854957 -0.32629439 -0.91429895
v -0.71804392 0.39423937 -0.20966859
v -0.55894363 1.88001502 -0.91427338
v -0.57870650 2.01420259 -0.45648074
v -0.61325836 -2.01429892 -0.37513357
v -0.67884094 -1.52806842 0.06897848
v -0.55860788 -1.32474530 -0.91429895
v -0.68803644 0.79677594 -0.25638545
v -0.65791875 -1.47923398 0.03661921
v -0.64051342 -0.59441936 -0.22633995
v -0.56002116 0.48417097 -0.91429895
v -0.57556844 1.64124310 -0.34727395
v -0.67726362 -1.39826655 -0.04528659
v -0.48510808 -1.01744068 -0.91429895
v -0.54781795 0.41369128 -0.23436250
v -0.63360035 0.63242757 -0.24793997
v -0.59345150 1.15925467 -0.28392357
v -0.50924265 -2.00523901 0.16844432
v -0.59563053 -0.41891587 -0.21209741
v -0.46004337 -0.10886371 -0.91429895
v -0.66409862 0.18456858 -0.16494618
v -0.52931881 0.70685673 -0.91429895
v -0.56273544 0.71035039 -0.24026690
v -0.48883206 1.84042132 -0.35521764
v -0.58247340 -1.56464207 0.09994800
v -0.54834974 -0.16285750 -0.16045162
v -0.61393863 -0.09669074 -0.11845608
v -0.52846777 0.18344879 -0.91429895
v -0.60860282 0.24683326 -0.19221771
v -0.43470538 -2.00653362 -0.90568215
v -0.46779704 -0.44196695 -0.91429895
v -0.40287858 1.03167915 -0.91429895
v -0.52405608 1.37491369 -0.91429895
v -0.49333256 -1.88711774 0.16555433
v -0.58118659 -1.31958818 -0.03480808
v -0.55266780 -0.79867995 -0.21450263
v -0.46306515 -1.79321373 -0.91429895
v -0.59339321 0.04649654 -0.12978439
v -0.48105663 0.83422458 -0.21616723
v -0.52914351 0.94611526 -0.23928280
v -0.53107357 -0.97217268 -0.17307843
v -0.51068908 -1.41275275 0.08784659
v -0.48375750 0.10235375 -0.18057378
v -0.40242374 2.01422215 -0.77133399
v -0.50023282 -0.62366676 -0.22636147
v -0.48118049 0.53702557 -0.24152014
v -0.41902620 -2.01423764 -0.75229144
v -0.44351310 -2.01429892 -0.02449283
v -0.46505523 -1.14923191 -0.07020785
v -0.49625611 -0.26582760 -0.20119569
v -0.55570322 -0.02598611 -0.11398502
v -0.43657106 1.46858060 -0.29112798
v -0.45942307 -0.02668896 -0.15280110
v -0.37250417 1.49674702 -0.91429895
v -0.25908041 -1.95572054 -0.91409427
v -0.45345402 -1.65035284 0.14164034
v -0.38928306 -0.98881900 -0.11123507
v -0.47249758 -0.48374152 -0.22801812
v -0.44635564 0.26169169 -0.22469783
v -0.37596387 1.29527962 -0.25293550
v -0.31798649 2.01427650 -0.47901165
v -0.42577243 2.00869989 -0.36991602
v -0.34177059 -1.50689793 -0.91429895
v -0.38723779 -0.81637967 -0.17364210
v -0.44492072 -1.25379276 0.01598580
v -0.30974710 1.03490472 -0.20122756
v -0.32214832 -2.01429892 -0.31635255
v -0.39278924 -0.66676515 -0.20886904
v -0.41602576 -0.32708526 -0.22102286
v -0.25025702 0.32588834 -0.91429895
v -0.36580932 0.57367074 -0.22607701
v -0.32252795 -1.94588220 0.21305409
v -0.33856291 -1.38720691 0.13121735
v -0.33902109 0.70878899 -0.19438396
v -0.34257972 -0.51377928 -0.22083713
v -0.37191200 -0.08827272 -0.18794368
v -0.30338967 -1.08987617 0.00159683
v -0.33173692 -0.90838957 -0.91429895
v -0.29809082 -0.64863777 -0.91429895
v -0.31576836 -0.19361554 -0.21568017
v -0.33329076 0.09527719 -0.91429895
v -0.23156385 -2.01429510 0.15809707
v -0.24764977 -1.64407957 0.18809737
v -0.29718941 -1.21447968 0.10937183
v -0.29555970 0.18279392 -0.22666526
v -0.33749169 0.34804893 -0.23575537
v -0.18009920 1.88610947 -0.91429895
v -0.22517668 0.59521323 -0.91429895
v -0.31623286 0.82710993 -0.17381005
v -0.21246628 1.61148834 -0.25958031
v -0.19898264 1.81678355 -0.28523165
v -0.20866986 1.99999106 -0.90494138
v -0.18706034 -2.01425791 -0.75393510
v -0.22272484 -1.73446381 -0.91429895
v -0.23682667 -1.24244547 -0.91429895
v -0.31095898 0.80513227 -0.91429895
v -0.20557778 1.32552612 -0.91429895
v -0.14723395 1.66975617 -0.91429895
v -0.31820512 -0.35284269 -0.22619861
v -0.20644449 -0.35025817 -0.91429895
v -0.20986329 1.96281683 -0.30825734
v -0.18875079 -2.01429892 0.00108725
v -0.26486319 -2.00557804 0.22333448
v -0.24410526 -0.65604204 -0.17708685
v -0.25661218 0.01203436 -0.20758535
v -0.27001268 2.01120996 -0.34770715
v -0.16367827 -1.01753438 -0.91429895
v -0.14218973 0.00943246 -0.91429895
v -0.19466536 1.36679149 -0.22123715
v -0.19635956 0.31877148 -0.22688118
v -0.23081191 0.45475411 -0.21783625
v -0.13583390 0.71081603 -0.11882433
v -0.16077058 -1.41667879 0.17623721
v -0.11691444 -1.24681258 0.16254464
v -0.18791620 -0.79927605 -0.10521913
v -0.12121658 -0.75868833 -0.91429895
v -0.16298546 -0.42708445 -0.20781404
v -0.10864039 -0.28469574 -0.21736583
v -0.12840413 0.93992746 -0.91429895
v -0.06507714 -1.85992587 0.26029629
v -0.18784164 -0.90227222 -0.05035250
v -0.15756182 0.55480200 -0.18028879
v -0.15280555 -0.09938464 -0.22078443
v -0.12273233 0.87439501 -0.13577427
v -0.07364823 -2.01429892 -0.48993164
v 0.00489181 -2.01429892 -0.25612688
v -0.11988057 -0.97259682 0.05850828
v -0.08920495 0.62260115 -0.13023074
v -0.15113522 2.00820017 -0.30687422
v -0.10257028 2.01429892 -0.83046842
v -0.08511086 2.01426411 -0.37190098
v 0.01018195 2.01429892 -0.54235673
v -0.08652087 -2.00079441 0.26644284
v -0.05909352 -1.59110296 -0.91429895
v -0.08927648 -1.02821147 0.13471627
v -0.11816393 0.14795524 -0.22662704
v -0.09687530 -0.59634793 -0.14868085
v 0.00227505 1.13689649 -0.14374644
v 0.03222875 1.15582001 -0.91429895
v -0.00009961 -1.10574377 0.16965547
v 0.00359173 0.25517607 -0.91429895
v -0.05692713 0.00654814 -0.22393863
v -0.07154976 0.38968205 -0.19595201
v -0.03385700 0.71908450 -0.91429895
v 0.04310183 -2.00988483 -0.90354049
v 0.00143662 -1.91494548 -0.91413516
v -0.01164563 -0.80372483 0.00593016
v -0.07054041 -0.74178576 -0.07294737
v 0.00287336 -0.61320359 -0.91429895
v -0.01458605 0.48024344 -0.91429895
v 0.01575783 -1.64207947 0.24838598
v -0.01180629 -0.30761689 -0.91429895
v 0.12081030 2.00808001 -0.90069777
v -0.00965120 -1.28133869 -0.91429895
v 0.01775603 1.54962504 -0.91429895
v 0.12125979 1.54750204 -0.17387159
v -0.02877977 2.00295973 -0.27652937
v 0.18674773 -2.01429391 -0.75457150
v 0.10123483 -2.01429892 0.08084150
v -0.01198195 -0.41150069 -0.17879829
v -0.00125583 -0.17325130 -0.21760821
v 0.00020902 0.19484195 -0.21401508
v 0.08086646 0.83450556 -0.08334057
v 0.03720456 1.34913039 -0.16542785
v 0.05815031 1.82435477 -0.22714104
v 0.08054595 -1.38652861 0.22753201
v 0.10733313 -0.95798808 -0.91429895
v 0.02928580 -0.50716120 -0.13803683
v 0.02639584 0.50476933 -0.13396429
v 0.20212625 -2.01427317 0.25809056
v 0.09704177 -2.00255680 0.31126451
v 0.15778767 -1.76582444 0.29837871
v 0.01998731 -0.66824412 -0.06531766
v 0.12605749 -0.05497453 -0.91429895
v 0.14040920 1.86896241 -0.91427845
v 0.05510162 -0.31688350 -0.19390233
v 0.19264300 2.01428890 -0.71441716
v 0.12348077 0.01780820 -0.22011356
v 0.06934817 0.29392469 -0.19718271
v 0.26520970 0.46436912 -0.91429895
v 0.03003956 -0.92998779 0.15061027
v 0.02908997 -0.86874449 0.09536383
v 0.04881759 -0.74630904 -0.01359483
v 0.14286101 0.84558713 -0.91429895
v 0.25263825 -1.92334723 -0.91425800
v 0.18912533 -0.44266969 -0.91429895
v 0.03758420 0.62972301 -0.07195546
v 0.20123604 1.49959707 -0.91429895
v 0.12018387 -1.03671336 0.18356885
v 0.10688917 -0.91420865 0.08112650
v 0.20702097 -0.79387975 -0.07017649
v 0.11518940 -0.62718505 -0.11002836
v 0.14341255 0.64985251 -0.10679646
v 0.11672629 2.00455713 -0.24343969
v 0.25098291 2.01428890 -0.30529201
v 0.09694806 2.01426506 -0.27776372
v 0.23028302 -1.72176743 -0.91429895
v 0.22323212 -1.46983957 -0.91429895
v 0.19113594 -1.20494294 0.22746684
v 0.12992947 -0.44160861 -0.17642088
v 0.11544529 -0.20062821 -0.21343063
v 0.15487091 0.49401522 -0.16676779
v 0.13197890 0.74610293 -0.06338161
v 0.24234691 -2.01429892 -0.47995651
v 0.17312270 0.26214266 -0.21509311
v 0.29138324 -2.01429892 -0.10355996
v 0.18796189 -1.25607884 -0.91429895
v 0.28574508 1.30958593 -0.10272285
v 0.23593241 1.92953146 -0.20103927
v 0.24694397 -1.58232355 0.29321271
v 0.24824218 -0.73259288 -0.91429895
v 0.22557192 -0.07746208 -0.20879865
v 0.25559765 0.22272468 -0.91429895
v 0.24674369 -0.30137214 -0.20948705
v 0.25627553 -1.91949451 0.34254265
v 0.23540765 -1.37048781 0.26089460
v 0.32477945 0.91221559 -0.91429895
v 0.22704841 -1.10164475 0.15460826
v 0.28882250 -0.92395699 -0.04047465
v 0.21991941 -0.59319061 -0.15680100
v 0.33669499 -0.32082856 -0.91429895
v 0.26783478 0.17605281 -0.21975102
v 0.36299342 1.28018701 -0.91429895
v 0.27627015 -2.00602388 0.35055947
v 0.31981346 1.09446764 -0.06480855
v 0.29469323 1.73760521 -0.16060154
v 0.39161491 -0.88015079 -0.91429895
v 0.28939557 -1.04677427 0.04212858
v 0.30228642 -0.43812552 -0.20104131
v 0.28741801 -0.17751858 -0.20785144
v 0.25857875 0.61966330 -0.16076306
v 0.31280047 0.78944623 -0.11732573
v 0.29456919 0.38960230 -0.21171853
v 0.29167828 0.91703916 -0.05224504
v 0.24962729 -1.18597007 0.22810026
v 0.38804257 -1.17382586 -0.91429895
v 0.35160893 1.66377509 -0.91429895
v 0.31055266 2.01401234 -0.86399740
v 0.40340936 -2.00416183 -0.90775198
v 0.36269099 -0.73939610 -0.14941694
v 0.37248239 -0.59544146 -0.18530209
v 0.38694334 0.09318551 -0.19702195
v 0.34314579 2.00894976 -0.19350693
v 0.39576256 -1.27155817 0.16594648
v 0.38962966 0.54990125 -0.20328112
v 0.39210987 1.51057160 -0.10639401
v 0.48811412 1.99409974 -0.90886515
v 0.39366424 -1.68737876 0.34165919
v 0.53367180 -1.58063197 -0.91429895
v 0.40831304 -0.01088482 -0.91429895
v 0.38901561 -1.47858191 0.31134981
v 0.37325531 -1.34712183 0.28277522
v 0.52585179 -1.85913157 -0.91429895
v 0.43221557 -0.91237223 -0.11096215
v 0.51007897 -0.59623611 -0.91429895
v 0.38287032 -0.04454914 -0.17512627
v 0.45127779 0.28249067 -0.21386842
v 0.50354338 0.70579469 -0.91429895
v 0.41479415 -1.04968894 -0.03674367
v 0.48665208 0.97612333 -0.10910064
v 0.52848709 2.01429892 -0.51546097
v 0.52291584 -2.01429892 0.02754186
v 0.40989906 -0.37291104 -0.20640375
v 0.48438674 1.92936981 -0.14385888
v 0.55215269 2.01418781 -0.22108558
v 0.47274995 -1.91248095 0.39133406
v 0.50068086 -0.10718320 -0.15385149
v 0.49900138 0.79020894 -0.17756043
v 0.48215508 1.13370204 -0.03706989
v 0.49664766 1.68639636 -0.10698403
v 0.54258502 -2.01406550 -0.83673364
v 0.44795159 -0.25024658 -0.19486469
v 0.58380127 1.09245527 -0.91429895
v 0.47801280 -1.23430407 0.05015175
v 0.56832123 0.48939478 -0.91429895
v 0.53383327 1.33249080 -0.04895121
v 0.64652163 2.01424503 -0.76916528
v 0.57984632 -2.01429892 -0.63989836
v 0.53687352 -1.99160135 0.41437262
v 0.56118441 -0.27883542 -0.91429895
v 0.52759302 0.23831010 -0.91429895
v 0.52902973 1.53346181 -0.91429895
v 0.53868085 1.78449976 -0.91429895
v 0.61367202 -2.01427507 0.35733443
v 0.47414517 -0.50283837 -0.20336899
v 0.63598818 -2.01429892 -0.34587580
v 0.55872858 -1.75239575 0.38873821
v 0.60639304 -1.07152021 -0.10815395
v 0.52075911 -0.02458715 -0.12985145
v 0.55973935 0.15131792 -0.16899695
v 0.54211468 0.64262557 -0.20871568
v 0.51995242 -1.52294660 0.33640051
v 0.60762835 -0.95489597 -0.91429895
v 0.55159634 -0.87798226 -0.15545292
v 0.52973449 -0.73574817 -0.18296735
v 0.60902601 -0.02906260 -0.91429895
v 0.59035355 0.47463787 -0.21575622
v 0.58506227 -1.97919238 -0.91399187
v 0.55756724 -0.44376373 -0.19842710
v 0.58245432 2.00539780 -0.13747267
v 0.56810689 -1.48197997 0.23005407
v 0.70353019 -1.26047492 -0.91429895
v 0.60541725 -1.20669198 -0.04697384
v 0.56827778 -0.63035166 -0.19677845
v 0.67298645 1.48597252 -0.03836367
v 0.62752986 -0.20820561 -0.13993265
v 0.65185332 -1.61080825 0.37716496
v 0.61819470 -1.38191652 0.06346919
v 0.63649100 -0.40128320 -0.18237360
v 0.62675506 0.36783636 -0.20129620
v 0.65271819 1.12327838 -0.11550942
v 0.73780715 -2.00633144 0.45429689
v 0.73912054 -0.53501099 -0.91429895
v 0.63175809 -0.03278592 -0.08055821
v 0.71931028 0.13608909 -0.10796044
v 0.70081186 0.78820217 -0.20883860
v 0.70576334 1.46690357 -0.91429895
v 0.85487121 -2.01429892 0.21241182
v 0.66188556 -0.82282674 -0.18432678
v 0.76162410 0.38921392 -0.91429895
v 0.70895660 0.97588634 -0.18113221
v 0.80994904 1.85108435 -0.05797241
v 0.67406034 -1.53866911 0.20183255
v 0.74541402 0.62622786 -0.21370323
v 0.66789299 -2.01141930 -0.90175503
v 0.70425594 -1.93056285 0.44701999
v 0.70677024 -0.66304886 -0.19310836
v 0.78489292 0.14938885 -0.91429895
v 0.83782554 0.88836896 -0.91429895
v 0.67182916 1.33460522 -0.02412123
v 0.77407062 2.01429319 -0.20654400
v 0.79495001 -1.81248462 -0.91429895
v 0.69997674 -0.97228253 -0.16273409
v 0.75227642 -0.38342053 -0.15041374
v 0.78397155 0.63263071 -0.91429895
v 0.81437719 1.92820609 -0.91393167
v 0.79520261 -1.74937212 0.44266510
v 0.84509510 -1.58533263 -0.91429895
v 0.74451095 -1.25223410 -0.08368474
v 0.77817774 -0.26613906 -0.91429895
v 0.73071486 0.27481121 -0.15516861
v 0.77207494 1.32447994 -0.07119468
v 0.88524556 1.73631442 -0.91429895
v 0.93930262 -2.01429892 -0.65161091
v 0.78882599 -0.21230179 -0.07661569
v 0.72140610 -0.02619535 -0.03038495
v 0.77667904 0.47358692 -0.19141980
v 0.89245653 -2.01429892 -0.02719451
v 0.77788478 -1.63801336 0.32611102
v 0.72410065 -1.48634744 0.09412357
v 0.79262793 -1.39164388 -0.01974870
v 0.83959806 -0.90703094 -0.91429895
v 0.84824967 1.18410957 -0.91429895
v 0.81081659 -1.97219622 -0.91405332
v 0.79658413 0.05638903 -0.02220242
v 0.80560017 1.44529450 -0.00852209
v 0.91352928 2.01429892 -0.49260211
v 0.80840403 -0.84994948 -0.18849054
v 0.95455229 -2.00980425 -0.89736688
v 0.80268842 -1.57490623 0.17300199
v 0.82244396 -1.12197542 -0.15142764
v 0.83568543 -0.59486961 -0.17255731
v 0.80943429 1.18202472 -0.15018125
v 0.91769695 2.00141573 -0.90603143
v 0.90185970 -1.69523156 0.45186591
v 0.88503891 -1.50062406 0.05095137
v 0.86593920 -0.98886806 -0.17884281
v 0.88178003 -0.14004302 0.02437121
v 0.87819433 -0.02618828 0.11212654
v 0.83804113 1.59369910 -0.01549864
v 0.92648596 2.00584316 -0.05969426
v 1.00453341 -0.10912137 -0.91429895
v 0.87881148 2.01409435 -0.84368014
v 0.84698510 -1.97598314 0.48603040
v 0.86628592 0.30326819 -0.11504762
v 0.93173397 0.88137519 -0.21380743
v 0.85115695 0.95431948 -0.20690130
v 0.99168479 -2.01429892 -0.36167204
v 0.91021669 -0.81957698 -0.18546228
v 0.95050621 0.58170390 -0.17614152
v 0.99500728 1.50289226 -0.91429895
v 1.00343251 -2.01429892 0.41574067
v 0.99091512 -1.82685769 0.49851036
v 0.90700656 -1.67190564 0.36181349
v 0.94158036 -1.29308164 -0.10576631
v 1.05857491 -0.34919620 -0.91429895
v 0.99617070 -0.65112084 -0.91429895
v 0.94953060 -0.46473709 -0.10703119
v 0.90825438 0.68289590 -0.20318718
v 0.97471881 1.12181175 -0.19368424
v 0.97704899 1.46201062 -0.02168266
v 0.92976594 0.03284311 0.11282126
v 0.96873224 0.15280893 -0.91429895
v 1.00912631 0.20051602 0.03087052
v 0.93224496 0.23231566 -0.04761516
v 1.01934588 -1.27040315 -0.91429895
v 0.97149336 -0.31876862 -0.02916187
v 1.01730001 0.50873601 -0.91429895
v 0.94855404 0.45381707 -0.14004719
v 0.91942406 1.23256552 -0.15869403
v 1.04673159 2.01425791 -0.17642337
v 1.02854407 -1.89364445 -0.91429895
v 0.96662474 -1.59653568 0.16915841
v 1.01870489 -2.00792217 0.51790732
v 1.00026643 -0.10652719 0.17469457
v 0.97483820 1.52554858 0.02206550
v 0.99727929 -1.40456271 -0.04205708
v 0.98847544 -1.13524365 -0.16321805
v 0.98405349 -0.61968857 -0.14274774
v 1.00693321 1.32894719 -0.11955410
v 1.12554085 1.66667151 0.04041260
v 1.05153847 -0.85053211 -0.16944171
v 1.02620149 1.30152333 -0.91429895
v 1.07736182 -1.62916851 -0.91429895
v 1.05108464 -1.49368131 0.03887733
v 1.05107331 -1.01763177 -0.17668475
v 0.99838752 -0.03782746 0.24401014
v 1.00042069 0.01527482 0.22463970
v 1.07051337 1.89176691 -0.00376236
v 1.17543435 2.01425791 -0.78335291
v 1.08115542 0.40833378 -0.06091666
v 1.03655040 0.78284979 -0.19792412
v 1.19635296 0.77762353 -0.91429895
v 1.15750647 1.12863123 -0.91429895
v 1.21121216 -2.01429892 -0.83874524
v 1.05355287 -1.70632470 0.49168438
v 1.18498242 -0.00978109 0.28877670
v 1.20669115 0.14473510 -0.91429895
v 1.18975484 1.89403498 -0.91429895
v 1.15762579 -1.17593205 -0.12888330
v 1.12561727 -0.99826348 -0.91429895
v 1.15277624 -0.51248103 -0.02990237
v 1.10842061 -0.31850031 0.07154246
v 1.12796688 0.59313118 -0.12285800
v 1.10654509 0.98905742 -0.20484461
v 1.12227523 2.01116943 -0.88762492
v 1.24420226 -2.01429892 0.11393319
v 1.11782908 -1.66199207 0.36342555
v 1.10397017 -1.57135355 0.14712378
v 1.22859001 -0.23143566 0.32377464
v 1.12058353 0.11971781 0.24995099
v 1.17958844 -2.01429892 -0.16726030
v 1.14472950 -0.67221349 -0.10374460
v 1.12040770 0.17122859 0.17841829
v 1.16249347 1.31960714 -0.10745355
v 1.21164155 1.66600811 -0.91429895
v 1.12585425 -1.96479154 0.54891247
v 1.22073829 -0.69920450 -0.91429895
v 1.12954295 1.17133057 -0.17725898
v 1.32561576 -2.01429892 -0.60934836
v 1.34863079 -2.01424503 0.48201388
v 1.18011928 -1.98754787 -0.91070360
v 1.13945079 -1.33693802 -0.06723548
v 1.14447951 -0.21497984 0.22822325
v 1.17572379 0.81461465 -0.17504652
v 1.14901888 1.53655136 0.05758343
v 1.28811419 -1.73149180 0.55352771
v 1.20923436 -1.46066678 0.05928645
v 1.22615826 -1.02280784 -0.13332587
v 1.25689089 2.01429892 -0.51017082
v 1.24943411 -1.65110600 0.52049607
v 1.34093964 -1.37786531 -0.91429895
v 1.17641568 -0.87555915 -0.14641148
v 1.23700774 0.43415684 0.02714235
v 1.23793209 0.47137320 -0.91429895
v 1.21403897 1.45078468 0.00145018
v 1.24254549 -1.58115566 0.24642579
v 1.21665931 0.31554544 0.11904526
v 1.33758199 1.44502461 -0.91429895
v 1.29789913 -1.92632294 0.58304042
v 1.43825877 -1.89699411 -0.91425800
v 1.38128531 -1.13377702 -0.91429895
v 1.24181664 0.97654283 -0.17568581
v 1.28561795 1.90797722 0.04347375
v 1.30129278 2.00800657 0.02650836
v 1.32971990 -2.00580406 0.59316570
v 1.31335974 -1.22381413 -0.04711749
v 1.31810808 -0.42008799 -0.91429895
v 1.29159629 -0.38533735 0.20471458
v 1.36176431 -0.13538077 -0.91429895
v 1.26098788 0.29206932 0.20631020
v 1.24528313 1.09520018 -0.16516463
v 1.30494320 -1.63543856 -0.91429895
v 1.32175398 -0.53436756 0.07868961
v 1.26460469 1.19193089 -0.13543111
v 1.28814566 -0.83991951 -0.09487936
v 1.27255964 0.56651741 -0.03928230
v 1.55203974 -2.01429892 -0.17240404
v 1.37020922 -1.55948055 0.38681149
v 1.26167703 0.23451322 0.27021772
v 1.30272138 0.73280251 -0.10569143
v 1.38015664 1.57809412 0.11135574
v 1.33861268 2.01423502 -0.06823508
v 1.35577548 -0.91583878 -0.91429895
v 1.30792272 -0.68421978 -0.03140353
v 1.41391933 -0.17584839 0.36470127
v 1.38454127 1.24569380 -0.91429895
v 1.33339596 1.48998058 0.10044126
v 1.38045275 0.86019385 -0.10057476
v 1.32935417 1.31251609 -0.04891002
v 1.36668122 -1.44861948 0.15564775
v 1.47207463 0.19657859 0.32594568
v 1.44825721 0.96761572 -0.91429895
v 1.40798187 2.00155592 -0.90884084
v 1.38216448 0.44572413 0.16620626
v 1.53443384 2.01429892 -0.40662652
v 1.50824082 -0.64706832 -0.91429895
v 1.38746202 -0.40081275 0.34638309
v 1.52275646 0.25550407 -0.91429895
v 1.53353012 0.54149199 -0.91429895
v 1.40202987 -1.29442608 0.04980166
v 1.39024913 0.37901342 0.27247304
v 1.54904711 -2.01429892 0.26548505
v 1.39776909 -0.97448337 -0.04709964
v 1.44346941 0.33727747 0.29966724
v 1.41381693 0.59810627 0.04174275
v 1.36297667 1.02332425 -0.12306368
v 1.40307581 1.14965153 -0.07569805
v 1.38468003 1.39383399 0.04520215
v 1.50548339 1.83467329 0.10427506
v 1.75886667 2.01428127 -0.74425083
v 1.43898094 -2.00794601 -0.90441501
v 1.43818820 -1.54516160 0.55226868
v 1.39193928 -0.81036735 -0.02772045
v 1.44106615 -0.72251540 0.04980122
v 1.46707928 -0.43950236 0.41045898
v 1.48750985 -1.93625462 0.62796688
v 1.46018708 -1.12466228 0.02459060
v 1.59063423 -0.39812320 -0.91429895
v 1.51605833 0.02049476 0.36071718
v 1.42306745 0.71373194 -0.02678868
v 1.48298824 1.31595147 0.07678192
v 1.54963267 1.87449825 -0.91424519
v 1.60205007 -1.54833674 -0.91429895
v 1.57201922 2.01426888 -0.00526091
v 1.47818935 -1.38273466 0.21432389
v 1.59336722 1.62341368 -0.91429895
v 1.60030091 -0.86097741 -0.91429895
v 1.49651217 -0.67298865 0.14240797
v 1.47282195 -0.57824540 0.19820774
v 1.53533041 -0.58139402 0.31864882
v 1.48758233 0.93623507 -0.03679384
v 1.58321631 1.36445832 -0.91429895
v 1.51789773 -1.44955122 0.44635594
v 1.49634135 -0.89704740 0.04498404
v 1.50447547 0.56690753 0.17460346
v 1.47977149 1.42480147 0.15228187
v 1.69941986 -2.01429653 -0.54106063
v 1.58735907 -1.58809686 0.60231644
v 1.57093132 -0.36826822 0.42773139
v 1.51963651 0.49556613 0.29011351
v 1.51891935 0.75387621 0.04293366
v 1.56148255 1.16094327 0.07780740
v 1.54298031 -1.04794598 0.09309220
v 1.57120955 -0.83845615 0.15379785
v 1.68911290 0.07985574 -0.91429895
v 1.72269833 0.40530008 0.35435182
v 1.77635145 -2.01429558 0.52528369
v 1.63744271 -1.88539636 0.65537411
v 1.72929847 0.80753326 -0.91429895
v 1.60325491 2.00738764 0.09435970
v 1.71319389 -1.80619109 -0.91429895
v 1.59583509 -1.36651027 0.56529361
v 1.59352481 -1.27175283 0.30554056
v 1.70328891 -1.17160833 -0.91429895
v 1.58094609 -1.16801214 0.19056924
v 1.70812190 -0.10600676 0.42258418
v 1.72898698 1.43722856 0.21134393
v 1.80060029 2.00569487 -0.90529221
v 1.76093400 -2.00151467 -0.90881366
v 1.60881197 -2.01427078 -0.83143669
v 1.60023320 -1.33649695 0.46505648
v 1.61260712 -0.62167907 0.46897537
v 1.60855782 0.69123751 0.21518809
v 1.60297799 0.85312974 0.10477802
v 1.79279578 1.17565310 -0.91429895
v 1.61440325 1.26391757 0.20546277
v 1.63027787 1.63279855 0.16124171
v 1.58265018 -2.01052856 0.64927715
v 1.83504379 2.01429892 -0.25375316
v 1.62917054 -1.00790334 0.22931829
v 1.59768379 -0.73982650 0.25527644
v 1.64560485 0.96754420 0.15500511
v 1.74861634 -0.20006499 -0.91429895
v 1.63986671 -0.73393047 0.40003312
v 1.64809263 0.67719787 0.29424626
v 1.71368051 1.95886266 0.13470222
v 1.71945155 -1.41497004 0.60842162
v 1.63744521 -0.87661731 0.26111192
v 1.66418374 1.09832513 0.20581193
v 1.77366078 -2.00356150 0.69724578
v 1.66292560 -1.19812489 0.46487796
v 1.67189980 -1.09859562 0.38643610
v 1.68260980 0.82431233 0.26236719
v 1.81150019 -1.73832452 0.67489499
v 1.68732727 -0.81381953 0.51022857
v 1.75085771 -0.62247705 0.50472116
v 1.73198950 0.13475811 0.39435548
v 1.84969878 0.60601097 0.35535973
v 1.70717955 -1.19065142 0.57268023
v 1.68653977 -0.93024379 0.41362625
v 1.81326210 2.01318121 0.10006242
v 1.69051611 -1.12507880 0.54326421
v 1.84088337 -0.75166476 -0.91429895
v 1.79185331 -0.33628094 0.47411329
v 1.90044475 0.81451046 0.33795428
v 1.73419893 1.09740770 0.26009881
v 1.84624779 1.72491419 -0.91429383
v 1.72137439 -1.01372540 0.54251164
v 1.70813096 0.96717656 0.26780581
v 1.82880402 -2.01427341 -0.82067674
v 1.90688717 -2.01422739 -0.23136665
v 1.88670266 1.45594072 -0.91426826
v 1.86585724 1.77882993 0.19495286
v 1.87340367 -1.94500649 0.71795660
v 1.81732571 -1.00137699 0.57306981
v 1.91711605 0.56084490 -0.91423756
v 1.89736760 -1.28271616 0.63068455
v 1.91795552 0.16770223 0.43235964
v 1.88790894 1.13626611 0.28999424
v 1.90651238 -1.37457800 -0.91423756
v 1.94246185 -1.05812204 -0.91417611
v 1.90897524 -0.21136573 0.48354238
v 1.90869093 0.13174206 -0.91428870
v 1.93429828 -2.01419663 0.27983671
v 1.91232169 -1.79497838 -0.91429895
v 1.92556465 -0.39528877 -0.91417611
v 1.92097712 1.99449122 0.17423312
v 1.92815077 -0.83503771 0.57525849
v 1.95166576 -1.60359895 0.68776393
v 1.90837371 -0.50561893 0.52457339
v 1.93881094 -1.07541895 0.61137074
v 1.93159270 1.96070230 -0.91405332
v 1.93670869 1.33397472 0.27354187
v 1.96082711 -2.01405334 0.02979067
v 1.95554864 0.93176770 -0.91428870
v 1.94922626 1.53529322 0.24827354
v 1.93919480 -0.70034951 0.55892688
v 1.95555365 0.39880568 0.40884340
v 1.97057188 -2.01393795 0.66460770
v 1.99448967 -1.84622395 0.72632450
v 1.96732366 -0.73292083 -0.91413516
v 1.97191739 -1.99854267 -0.90816206
v 2.00175571 -0.17359474 -0.90875596
v 2.00538111 -0.44084340 0.52091873
v 1.98973274 2.00347328 -0.90580034
v 1.98244059 2.01380777 -0.01690314
v 2.00526953 -2.00679159 0.18967396
v 1.98787796 -1.99815810 0.74178308
v 2.00378966 -1.76593137 -0.90801018
v 2.00641632 -1.15407085 -0.90503138
v 2.00295830 -0.68119866 0.56547916
v 2.01154280 1.16900051 -0.88113356
v 2.00592613 2.00670862 -0.74951166
v 2.00622129 -2.00554562 -0.50645405
v 2.00649142 -2.00691414 -0.10910387
v 2.00699806 -2.00662661 0.42561042
v 2.00506163 -1.46259201 0.67402053
v 2.00618434 -1.07873249 0.61840606
v 2.00276661 -0.84005117 -0.91107935
v 2.00752068 -0.81605178 0.56988287
v 2.00308847 -0.18772902 0.49235100
v 2.00659895 0.00243104 0.45843935
v 2.00759959 0.05796900 -0.90041733
v 2.00804234 0.48374152 -0.90394944
v 2.00850439 0.52777624 0.39067388
v 2.00263190 0.80096197 0.35712677
v 2.00178528 1.20966899 0.29977530
v 2.00847769 1.33178842 -0.90236151
v 2.00733876 1.32230079 0.27638233
v 2.00297594 1.49207342 0.25957948
v 2.00757098 1.63231528 -0.90425956
v 1.99393427 2.01339817 -0.38270772
v 2.00734258 2.00639677 -0.25727469
v 2.00391841 2.00783825 -0.16282517
v 2.00280952 2.00935888 0.11427677
v 2.00809240 -2.00633526 -0.83796442
v 2.01070952 -1.95495546 -0.90098590
v 2.01200294 -1.72395051 0.69451326
v 2.01006866 -1.52687156 -0.89806145
v 2.01067376 -0.96498442 -0.89798003
v 2.00600052 -0.56419849 -0.90863615
v 2.01012850 -0.36130694 -0.90225512
v 2.00643516 0.25221074 0.43374658
v 2.00726056 0.81600142 -0.90748036
v 2.00422430 0.96536815 0.33529168
v 2.01003289 0.99971581 -0.90366346
v 2.00749969 1.08564508 0.31683952
v 2.00592089 1.76618969 0.21939859
v 2.00898075 1.87730944 -0.89753908
v 2.00874805 1.99954545 0.17472138
v 2.00610495 2.00874043 -0.48665214
v 2.00871682 2.00303984 0.02757311
v 2.01160526 -1.99947143 0.69321746
v 2.01425791 -1.79411161 -0.73469931
v 2.01427841 -1.84707546 0.17302661
v 2.01427841 -1.86662757 0.55180854
v 2.01429892 -1.95092630 -0.34856969
v 2.01429892 -1.86237204 -0.08300845
v 2.01429892 -1.75362551 -0.35227084
v 2.01429892 -1.72068989 0.35748273
v 2.01429892 -1.53027606 -0.45586389
v 2.01429892 -1.46528733 0.08180974
v 2.01429892 -1.56613195 -0.14711481
v 2.01426768 -1.39311886 0.56238490
v 2.01429892 -1.52221787 0.31682479
v 2.01425791 -1.35625577 -0.80670768
v 2.01429892 -1.32811058 -0.25659537
v 2.01429892 -1.17879987 0.29708922
v 2.01429892 -1.17156923 -0.55343682
v 2.01429892 -1.17534065 -0.01059401
v 2.01427245 -1.01826835 0.49966449
v 2.01429892 -0.93855315 -0.22957076
v 2.01421690 -1.01678479 -0.79846990
v 2.01429892 -0.94613504 0.02647993
v 2.01429892 -0.84125358 -0.43107247
v 2.01429892 -0.84739089 -0.68026745
v 2.01368332 -0.86016536 -0.85279840
v 2.01429892 -0.84358048 0.23964728
v 2.01418233 -0.71870971 0.46688521
v 2.01429892 -0.66001058 -0.11663111
v 2.01429892 -0.63281810 -0.45921367
v 2.01200056 -0.70643502 -0.89680070
v 2.01421690 -0.53700209 -0.81396943
v 2.01429892 -0.52086228 0.12299867
v 2.01429892 -0.44604290 0.40844768
v 2.01429892 -0.49317396 -0.62657738
v 2.01429892 -0.41065556 -0.21079956
v 2.01429892 -0.30888185 -0.48218578
v 2.01429892 -0.28628454 0.25390530
v 2.01429248 -0.10375705 -0.73066634
v 2.01429892 -0.15146594 -0.22116120
v 2.01429892 -0.20457819 0.03900450
v 2.01429892 -0.12827522 0.37616807
v 2.01429892 0.00671905 -0.53216690
v 2.01429892 -0.10969135 -0.85920304
v 2.01429892 0.01939589 0.19820066
v 2.01429892 0.05626681 -0.01905824
v 2.01429892 0.13136727 -0.31939775
v 2.01421690 0.28313774 -0.80978417
v 2.01426029 0.26594377 0.34291238
v 2.01429892 0.30241650 -0.02546887
v 2.01429892 0.39553475 -0.45364630
v 2.01429892 0.50398076 -0.17688015
v 2.01429367 0.66700298 -0.78097147
v 2.01429892 0.65792972 0.02817824
v 2.01429892 0.70393640 -0.51982975
v 2.01426625 0.65883547 0.30111444
v 2.01429892 0.83685756 -0.19946964
v 2.01429892 0.90148699 0.14644706
v 2.01424551 1.03332281 0.28353012
v 2.01429892 0.96667099 -0.41557288
v 2.01428223 0.98709762 -0.73599547
v 2.01429892 1.19383085 0.12352182
v 2.01429892 1.09491503 -0.09145705
v 2.01429892 1.24641216 -0.39306933
v 2.01427841 1.31905687 -0.70592952
v 2.01429892 1.42128742 -0.12303783
v 2.01429892 1.48970401 0.17571265
v 2.01429892 1.49196827 -0.53017575
v 2.01429796 1.61261475 -0.78997833
v 2.01429892 1.65681779 -0.42523181
v 2.01429892 1.72361028 0.00788831
v 2.01429892 1.83654988 -0.22964883
v 2.01428866 1.88357174 -0.68494856
v 2.01427174 1.85207283 0.14822735
v 2.01427841 1.92878211 -0.38951653
v 2.01130962 2.00211859 -0.41319138
v 2.01022434 2.00671053 -0.33923090
v 2.01137614 2.00346947 -0.06787591
f 639 597 652
f 176 161 136
f 660 621 639
f 402 394 411
f 185 152 167
f 896 834 830
f 742 719 741
f 865 871 920
f 521 488 520
f 972 959 930
f 576 560 566
f 560 485 501
f 693 654 648
f 897 859 887
f 211 192 253
f 357 299 331
f 1094 1089 1095
f 464 385 463
f 18 12 17
f 171 156 158
f 647 632 601
f 823 798 895
f 191 126 108
f 328 325 354
f 863 800 875
f 501 447 495
f 557 492 512
f 202 216 242
f 626 612 558
f 178 148 157
f 445 407 391
f 233 226 294
f 1062 987 1010
f 834 811 799
f 850 831 884
f 297 215 270
f 423 392 442
f 343 347 375
f 820 777 849
f 1138 1134 1045
f 802 819 716
f 605 566 604
f 720 714 748
f 899 869 813
f 718 687 679
f 934 908 848
f 178 157 177
f 217 180 144
f 1068 1050 1051
f 744 673 695
f 66 65 62
f 975 934 960
f 124 90 133
f 961 922 968
f 1043 1007 1041
f 1140 1138 1027
f 751 659 717
f 496 478 453
f 286 246 223
f 592 563 601
f 133 112 150
f 1123 1122 1128
f 225 183 126
f 158 146 170
f 506 476 455
f 535 483 509
f 129 96 138
f 843 830 820
f 284 273 316
f 253 192 252
f 673 637 695
f 645 603 587
f 1021 1008 1029
f 1106 1101 1105
f 267 266 225
f 955 928 962
f 805 770 761
f 241 230 248
f 49 48 45
f 186 185 210
f 514 481 443
f 447 444 495
f 382 350 379
f 554 508 513
f 813 881 899
f 1095 1090 1097
f 886 810 861
f 303 274 296
f 997 1017 957
f 104 68 103
f 813 852 881
f 117 125 100
f 553 514 523
f 150 145 179
f 545 493 588
f 453 472 491
f 328 289 325
f 83 6 110
f 80 79 75
f 27 30 20
f 796 883 838
f 216 146 196
f 199 151 181
f 1118 1113 1038
f 587 549 573
f 826 780 831
f 965 937 945
f 86 17 84
f 953 894 879
f 1118 1038 1058
f 664 641 618
f 274 245 296
f 450 457 508
f 841 837 767
f 847 792 784
f 134 103 101
f 593 565 613
f 878 854 885
f 458 416 478
f 90 26 112
f 276 261 268
f 632 592 601
f 968 922 932
f 999 943 935
f 455 421 475
f 313 277 291
f 503 526 465
f 799 757 738
f 960 893 987
f 314 240 298
f 1088 1082 1084
f 463 425 482
f 1070 1069 1074
f 404 452 369
f 527 468 480
f 688 663 687
f 702 708 631
f 989 973 991
f 246 220 176
f 1040 1039 1121
f 1004 1025 1018
f 634 611 550
f 378 305 336
f 988 964 1022
f 119 79 80
f 1119 1117 1122
f 911 845 867
f 290 239 293
f 597 544 543
f 247 229 260
f 954 939 966
f 1042 949 986
f 142 111 152
f 282 286 223
f 327 270 305
f 104 71 68
f 717 798 823
f 686 725 666
f 710 699 756
f 141 104 147
f 831 788 812
f 145 112 87
f 114 95 47
f 1001 975 960
f 1122 1120 1125
f 891 890 915
f 1006 981 942
f 39 35 34
f 196 195 229
f 364 345 356
f 1127 1123 1128
f 776 739 733
f 531 518 612
f 743 678 729
f 761 707 735
f 619 581 649
f 557 517 492
f 229 195 211
f 467 410 436
f 907 856 835
f 412 329 381
f 936 965 945
f 1114 1115 1119
f 221 217 144
f 183 140 126
f 1044 1007 1043
f 352 326 301
f 1076 1072 1077
f 42 41 39
f 923 946 970
f 167 198 238
f 1103 1098 1106
f 652 597 543
f 200 173 164
f 456 429 407
f 1020 1048 953
f 814 791 800
f 103 66 101
f 804 769 725
f 45 38 41
f 961 968 1003
f 31 27 28
f 278 247 260
f 530 538 567
f 367 403 332
f 302 261 301
f 846 828 872
f 678 703 729
f 57 53 54
f 379 350 321
f 90 34 32
f 591 601 563
f 468 380 387
f 249 232 173
f 488 430 494
f 106 73 76
f 124 133 146
f 697 720 753
f 118 102 67
f 724 712 681
f 791 790 800
f 979 959 972
f 829 779 764
f 1022 1013 1067
f 839 764 818
f 416 402 411
f 48 44 45
f 480 468 387
f 701 669 654
f 989 982 973
f 250 267 225
f 624 583 621
f 231 188 212
f 440 466 498
f 277 272 291
f 323 297 327
f 583 524 545
f 110 5 3
f 491 490 533
f 570 558 519
f 718 707 761
f 94 39 113
f 443 401 384
f 13 12 8
f 64 60 59
f 454 393 401
f 990 997 882
f 1142 1141 1046
f 811 812 776
f 470 405 406
f 588 544 597
f 630 595 615
f 783 715 773
f 383 363 418
f 254 241 248
f 11 16 14
f 54 53 51
f 745 713 669
f 1014 968 988
f 539 524 583
f 763 694 750
f 475 421 440
f 77 71 104
f 759 821 760
f 396 389 419
f 70 118 67
f 205 144 116
f 642 607 633
f 216 170 146
f 922 896 830
f 931 886 998
f 571 507 527
f 932 952 964
f 246 197 220
f 1084 1076 1081
f 583 545 621
f 513 508 487
f 644 531 612
f 117 100 63
f 194 160 193
f 285 201 251
f 237 222 262
f 350 291 321
f 1007 993 1041
f 1002 970 989
f 582 538 599
f 903 800 869
f 473 489 452
f 458 478 509
f 814 765 791
f 887 832 850
f 580 571 527
f 761 782 816
f 716 754 690
f 579 499 577
f 401 337 338
f 412 447 462
f 830 843 900
f 320 294 280
f 1033 977 1015
f 545 588 621
f 445 476 506
f 375 394 402
f 312 252 333
f 757 776 733
f 75 76 73
f 367 332 258
f 143 88 128
f 873 858 891
f 136 108 119
f 265 237 262
f 628 584 559
f 556 520 555
f 950 905 926
f 720 683 714
f 1017 1000 957
f 538 463 529
f 935 844 907
f 294 226 280
f 233 194 226
f 487 457 446
f 621 588 639
f 1140 1135 1138
f 615 629 662
f 321 312 358
f 512 492 405
f 751 717 823
f 490 477 510
f 586 623 547
f 796 838 771
f 115 51 96
f 946 914 958
f 181 138 188
f 304 290 329
f 304 255 290
f 1020 953 975
f 234 169 209
f 957 853 929
f 894 877 793
f 1062 1010 1044
f 33 31 28
f 978 923 970
f 362 323 327
f 152 111 137
f 365 323 362
f 926 891 915
f 306 262 303
f 679 682 707
f 163 136 109
f 670 683 720
f 1123 1124 1121
f 50 47 44
f 457 438 415
f 289 254 278
f 1032 991 1031
f 1049 975 1001
f 663 615 662
f 1138 1135 1134
f 235 187 166
f 522 489 473
f 754 786 726
f 1126 1118 1058
f 1045 1042 986
f 646 590 596
f 617 674 681
f 296 269 318
f 1141 1140 1065
f 127 77 131
f 299 330 266
f 461 384 395
f 62 59 58
f 563 556 555
f 363 354 373
f 642 633 684
f 213 181 188
f 848 774 744
f 1058 1038 990
f 875 903 971
f 975 953 908
f 1066 1139 1136
f 435 377 341
f 489 480 451
f 353 326 352
f 668 613 667
f 629 585 603
f 58 55 53
f 149 123 85
f 935 943 844
f 756 747 777
f 1114 1107 1110
f 938 907 835
f 245 236 269
f 159 117 140
f 440 327 378
f 672 658 677
f 577 531 651
f 898 918 928
f 25 28 24
f 1143 1048 1020
f 88 20 30
f 1061 1059 1124
f 13 8 111
f 300 257 332
f 715 703 684
f 95 120 40
f 748 688 768
f 702 631 646
f 472 442 431
f 1099 1098 1103
f 1013 964 931
f 206 165 190
f 667 661 706
f 1064 1001 1062
f 254 248 278
f 345 316 356
f 369 298 315
f 678 619 649
f 143 22 88
f 283 256 215
f 904 864 860
f 26 29 25
f 625 617 608
f 1021 998 1008
f 923 899 946
f 351 350 386
f 341 377 282
f 880 867 821
f 1135 1131 1133
f 77 74 71
f 446 429 456
f 675 622 609
f 45 41 42
f 852 857 913
f 825 732 775
f 987 893 951
f 857 912 913
f 9 10 4
f 1101 1094 1095
f 463 385 425
f 970 969 989
f 728 742 765
f 890 846 872
f 919 947 925
f 201 282 223
f 830 799 756
f 502 479 474
f 151 121 154
f 54 51 115
f 147 104 135
f 471 470 427
f 1055 977 1000
f 1043 1124 1127
f 11 14 6
f 977 938 911
f 215 185 167
f 802 716 709
f 722 680 738
f 272 253 291
f 99 61 57
f 1025 1034 1093
f 890 855 846
f 323 309 297
f 600 540 584
f 717 698 732
f 326 310 302
f 798 732 825
f 948 925 947
f 166 187 128
f 877 802 809
f 1092 1082 1088
f 101 66 61
f 859 832 887
f 396 419 444
f 986 916 910
f 1047 1046 953
f 143 149 22
f 574 549 587
f 93 39 34
f 393 404 374
f 996 1004 1018
f 499 498 577
f 780 788 831
f 229 211 272
f 967 959 979
f 420 336 349
f 1143 1137 1048
f 662 629 640
f 980 963 983
f 809 802 737
f 22 15 20
f 64 63 60
f 410 428 367
f 860 807 794
f 390 329 413
f 147 135 174
f 822 808 855
f 168 131 175
f 554 513 562
f 1065 894 953
f 697 664 670
f 1142 1140 1141
f 822 763 808
f 245 269 296
f 167 137 132
f 421 362 327
f 189 151 199
f 252 309 323
f 1041 1061 1124
f 808 795 828
f 456 493 524
f 444 459 484
f 303 296 318
f 669 653 623
f 211 182 192
f 781 740 734
f 1033 1054 995
f 828 795 807
f 260 272 277
f 299 371 330
f 425 372 433
f 904 860 889
f 419 388 459
f 212 202 243
f 573 565 593
f 654 669 623
f 1031 1052 1078
f 490 472 448
f 84 17 13
f 1127 1128 1131
f 852 806 857
f 53 48 49
f 554 500 508
f 456 407 445
f 570 519 507
f 526 548 465
f 855 808 846
f 476 445 391
f 931 824 886
f 189 162 151
f 901 918 887
f 637 582 599
f 486 456 524
f 116 47 52
f 511 482 439
f 1025 1011 1002
f 208 147 207
f 628 666 600
f 949 933 876
f 609 571 580
f 618 575 606
f 438 408 415
f 585 574 603
f 895 825 844
f 1041 993 1061
f 568 550 505
f 950 926 963
f 851 821 759
f 385 372 425
f 1113 1104 1037
f 173 232 172
f 471 427 361
f 907 999 935
f 354 325 335
f 27 20 19
f 703 649 642
f 646 631 590
f 909 874 862
f 190 165 155
f 130 99 97
f 599 529 619
f 1022 964 1013
f 922 830 932
f 689 641 664
f 871 839 892
f 840 831 812
f 1001 987 1062
f 637 643 695
f 969 974 982
f 957 902 853
f 700 668 692
f 1063 1006 1019
f 349 300 332
f 155 130 162
f 722 733 696
f 479 434 435
f 924 885 888
f 537 482 511
f 738 710 756
f 279 322 205
f 203 228 149
f 297 283 215
f 493 544 588
f 843 820 849
f 1030 1013 931
f 659 577 651
f 991 961 1003
f 350 313 291
f 193 141 147
f 1104 1056 1017
f 1073 1071 1068
f 1027 1019 894
f 790 778 813
f 753 772 807
f 896 862 834
f 81 75 78
f 534 549 574
f 569 568 504
f 18 16 11
f 434 377 435
f 1031 991 1003
f 546 521 520
f 584 540 522
f 1009 990 933
f 344 287 271
f 1035 1018 1107
f 1132 1127 1131
f 939 901 884
f 165 134 139
f 55 50 48
f 116 52 56
f 976 965 973
f 722 757 733
f 781 734 758
f 21 9 16
f 244 212 243
f 142 152 186
f 963 926 956
f 813 827 852
f 996 978 1004
f 548 561 528
f 767 728 765
f 690 726 646
f 482 425 433
f 205 221 144
f 511 497 536
f 129 115 96
f 898 897 918
f 469 461 395
f 515 478 496
f 417 342 377
f 154 129 138
f 205 264 221
f 876 883 796
f 37 40 36
f 125 116 98
f 677 614 668
f 974 962 954
f 98 56 60
f 252 323 333
f 709 656 620
f 1035 996 1018
f 930 924 888
f 877 906 802
f 220 197 161
f 841 817 854
f 842 786 754
f 510 488 521
f 548 656 610
f 667 627 661
f 673 704 638
f 608 589 625
f 668 667 692
f 693 771 701
f 811 757 799
f 231 212 244
f 924 947 919
f 494 430 450
f 616 568 567
f 486 446 456
f 113 124 158
f 635 543 579
f 159 200 164
f 774 704 744
f 699 652 685
f 997 929 882
f 36 30 33
f 316 273 310
f 1004 978 970
f 850 826 831
f 769 787 711
f 876 796 797
f 625 624 665
f 232 205 172
f 144 114 116
f 954 918 927
f 962 928 954
f 273 244 243
f 238 198 224
f 135 103 134
f 970 946 969
f 912 898 928
f 1129 1125 1130
f 495 484 516
f 98 116 56
f 527 507 436
f 616 582 637
f 920 871 892
f 159 164 117
f 476 391 455
f 29 28 25
f 705 626 622
f 998 886 861
f 750 689 749
f 533 490 510
f 614 613 668
f 1125 1120 1126
f 1047 1140 1142
f 711 787 705
f 547 559 525
f 595 578 551
f 973 936 961
f 473 452 404
f 187 143 128
f 840 812 811
f 623 594 547
f 412 396 447
f 1107 1018 1099
f 1028 984 1050
f 439 412 462
f 655 690 596
f 1076 1069 1072
f 38 44 37
f 853 745 801
f 120 91 92
f 859 836 832
f 535 515 551
f 1117 1115 1116
f 710 660 699
f 166 180 217
f 987 951 941
f 737 709 620
f 81 80 75
f 698 644 612
f 1093 1085 1092
f 1135 1133 1130
f 891 855 890
f 1119 1115 1117
f 83 7 6
f 112 26 87
f 421 327 440
f 674 696 681
f 561 512 528
f 996 940 978
f 840 874 831
f 236 199 213
f 505 503 417
f 252 192 210
f 435 397 474
f 930 971 992
f 353 316 310
f 164 173 125
f 235 240 187
f 1086 1083 1089
f 549 533 541
f 144 120 95
f 1057 1114 1039
f 605 604 641
f 784 743 779
f 980 950 963
f 524 493 545
f 1068 1023 1053
f 1142 1046 1047
f 844 825 775
f 241 196 230
f 564 563 592
f 789 740 781
f 225 218 183
f 680 665 660
f 55 56 52
f 981 986 910
f 106 126 105
f 259 231 244
f 543 455 532
f 910 916 842
f 9 15 1
f 1010 941 1007
f 1102 1100 1104
f 836 785 832
f 625 589 624
f 590 557 512
f 1005 989 991
f 873 818 858
f 234 209 257
f 484 483 516
f 449 399 453
f 543 532 579
f 268 254 289
f 203 258 228
f 573 541 565
f 437 414 430
f 320 304 372
f 214 190 189
f 168 177 127
f 71 69 68
f 551 534 574
f 599 619 643
f 404 315 374
f 255 239 290
f 158 124 146
f 619 529 581
f 805 761 816
f 1008 998 861
f 686 628 653
f 1075 1073 1068
f 347 303 318
f 63 100 60
f 528 470 471
f 86 84 142
f 307 249 263
f 46 49 45
f 636 602 658
f 885 863 888
f 363 328 354
f 1032 1031 1078
f 633 641 694
f 532 455 475
f 219 210 185
f 65 64 59
f 538 529 599
f 860 837 889
f 1101 1098 1094
f 884 831 874
f 338 249 307
f 899 881 914
f 560 542 566
f 446 457 415
f 942 981 906
f 165 139 155
f 304 329 390
f 166 128 120
f 311 331 250
f 554 563 555
f 774 730 704
f 964 952 931
f 679 645 682
f 680 660 710
f 1072 1029 1071
f 453 442 472
f 601 591 617
f 1129 1128 1125
f 51 46 96
f 770 718 761
f 439 413 412
f 452 451 369
f 238 215 167
f 120 92 40
f 963 956 983
f 264 217 221
f 411 346 364
f 940 923 978
f 105 70 73
f 552 516 535
f 620 656 548
f 1068 1051 1023
f 226 194 193
f 482 433 439
f 761 735 782
f 448 418 441
f 568 505 504
f 661 632 676
f 169 132 110
f 783 773 763
f 397 385 464
f 423 399 352
f 857 805 868
f 1009 933 949
f 441 437 477
f 1135 1130 1134
f 460 471 376
f 1019 1006 942
f 602 573 614
f 737 620 650
f 28 19 21
f 1082 1079 1076
f 174 134 165
f 175 131 160
f 924 919 878
f 995 994 938
f 38 37 33
f 763 750 749
f 190 162 189
f 302 242 261
f 1111 1106 1105
f 754 726 690
f 391 421 455
f 881 852 914
f 515 496 534
f 946 958 969
f 1058 990 1009
f 918 901 927
f 1109 1104 1017
f 507 519 467
f 997 957 929
f 1121 1114 1119
f 982 966 976
f 835 787 769
f 1052 1014 1070
f 810 721 815
f 1106 1098 1101
f 487 446 486
f 345 317 316
f 796 771 702
f 680 696 674
f 974 954 966
f 198 132 169
f 631 708 648
f 1104 1109 1037
f 513 487 539
f 1105 1101 1102
f 424 400 399
f 1104 1100 1097
f 485 447 501
f 800 790 813
f 824 755 810
f 1131 1128 1129
f 326 302 301
f 788 739 776
f 567 568 569
f 1121 1119 1123
f 838 801 771
f 111 8 83
f 744 704 673
f 139 101 99
f 407 333 391
f 281 250 197
f 1062 1139 1064
f 218 159 183
f 1024 994 995
f 1139 1062 1136
f 361 311 281
f 430 414 368
f 58 59 55
f 712 724 758
f 318 269 317
f 868 859 897
f 866 879 774
f 299 266 267
f 1121 1039 1114
f 905 873 891
f 415 379 398
f 493 445 506
f 717 659 651
f 657 543 635
f 171 170 202
f 990 882 883
f 677 668 700
f 830 756 820
f 426 399 449
f 9 2 10
f 114 144 95
f 499 440 498
f 1057 1036 1114
f 936 896 922
f 113 39 93
f 37 36 33
f 1105 1102 1108
f 1061 993 1059
f 222 214 245
f 344 324 287
f 729 715 764
f 349 332 403
f 481 473 393
f 1023 1051 999
f 920 892 905
f 591 608 617
f 426 424 399
f 120 128 91
f 916 870 842
f 373 335 368
f 1007 941 993
f 68 65 66
f 665 621 660
f 134 101 139
f 1010 1007 1044
f 91 89 30
f 914 912 955
f 213 231 259
f 477 437 488
f 436 344 380
f 551 515 534
f 759 760 686
f 880 977 911
f 1115 1112 1116
f 206 190 222
f 1011 970 1002
f 1032 1085 1034
f 85 1 15
f 195 179 145
f 394 347 346
f 462 447 485
f 873 839 818
f 1043 1127 1132
f 327 305 378
f 685 657 755
f 111 83 137
f 203 149 143
f 59 60 55
f 1140 1137 1135
f 534 496 491
f 956 948 967
f 613 564 627
f 492 469 405
f 975 908 934
f 640 645 679
f 769 675 725
f 1040 1121 1124
f 200 249 173
f 393 374 322
f 1115 1111 1112
f 741 718 770
f 61 58 57
f 900 843 849
f 256 283 288
f 723 739 724
f 723 681 696
f 645 636 672
f 509 515 535
f 1044 1043 1132
f 648 654 553
f 1051 1016 999
f 819 754 716
f 427 470 406
f 903 869 940
f 600 609 540
f 1136 1131 1137
f 587 573 602
f 28 21 24
f 40 92 36
f 762 697 753
f 210 219 256
f 282 342 286
f 466 403 518
f 1026 1009 949
f 371 395 330
f 427 406 361
f 1108 1102 1104
f 650 620 611
f 594 628 559
f 247 230 229
f 72 69 71
f 1070 1067 1030
f 541 510 546
f 971 940 992
f 317 269 284
f 398 358 429
f 1052 1070 1078
f 477 488 510
f 196 146 179
f 1095 1089 1090
f 14 9 4
f 72 73 70
f 503 465 417
f 280 226 275
f 14 5 6
f 604 575 618
f 886 824 810
f 914 955 958
f 399 423 453
f 411 400 424
f 911 938 845
f 737 802 709
f 609 622 571
f 783 763 822
f 48 50 44
f 1097 1090 1091
f 767 765 817
f 766 701 771
f 197 108 161
f 346 318 317
f 369 359 298
f 848 847 893
f 1055 1096 1015
f 776 757 811
f 422 408 438
f 844 943 895
f 1085 1078 1082
f 741 770 806
f 440 378 336
f 514 547 481
f 380 344 271
f 795 762 753
f 547 525 481
f 792 695 784
f 207 206 239
f 284 244 273
f 790 791 742
f 731 706 740
f 391 362 421
f 169 110 123
f 519 518 428
f 715 736 773
f 417 465 366
f 643 619 678
f 648 553 631
f 453 423 442
f 163 109 148
f 1052 1003 1014
f 1060 1058 1009
f 65 59 62
f 376 471 361
f 581 511 598
f 1117 1116 1120
f 1039 972 1012
f 787 775 705
f 335 334 351
f 382 408 386
f 716 655 656
f 490 448 477
f 364 317 345
f 558 612 518
f 261 276 301
f 772 748 794
f 162 130 151
f 224 257 300
f 803 758 826
f 536 576 607
f 415 408 382
f 1057 992 1036
f 319 265 306
f 888 863 875
f 789 781 803
f 82 109 81
f 116 114 47
f 798 825 895
f 546 520 556
f 627 564 592
f 628 600 584
f 456 445 493
f 126 118 105
f 923 869 899
f 682 672 700
f 495 444 484
f 807 795 753
f 1137 1131 1135
f 348 319 370
f 1056 1055 1000
f 447 396 444
f 725 675 666
f 1123 1119 1122
f 531 498 466
f 906 910 819
f 1107 1103 1110
f 872 828 864
f 983 967 979
f 488 494 520
f 544 506 543
f 934 893 960
f 704 730 634
f 913 912 914
f 242 216 261
f 99 57 97
f 977 995 938
f 1090 1087 1091
f 140 102 118
f 977 880 902
f 338 337 249
f 121 129 154
f 505 417 434
f 201 223 163
f 548 460 465
f 251 168 233
f 898 868 897
f 930 875 971
f 335 351 368
f 443 481 454
f 1078 1070 1074
f 245 214 236
f 1086 1081 1083
f 808 749 795
f 131 77 160
f 1042 1026 949
f 271 203 204
f 322 315 264
f 1030 931 998
f 178 163 148
f 768 728 767
f 570 626 558
f 552 535 578
f 228 257 209
f 1070 1030 1069
f 532 475 499
f 330 307 263
f 284 259 244
f 286 340 246
f 492 461 469
f 113 96 94
f 392 352 360
f 474 464 538
f 562 572 608
f 973 965 936
f 199 181 213
f 649 598 642
f 1143 1136 1137
f 671 698 612
f 491 496 453
f 74 75 72
f 68 69 65
f 759 713 745
f 197 191 108
f 736 684 694
f 23 18 17
f 219 185 215
f 305 295 336
f 682 645 672
f 1076 1074 1069
f 613 565 564
f 465 376 366
f 1082 1078 1079
f 1096 1097 1091
f 1069 1021 1072
f 571 570 507
f 1008 861 985
f 833 894 793
f 380 271 314
f 794 768 767
f 967 948 947
f 793 746 730
f 622 626 570
f 201 168 251
f 195 182 211
f 1016 943 999
f 480 387 451
f 417 366 342
f 61 62 58
f 384 338 307
f 900 849 952
f 973 961 991
f 1084 1081 1086
f 749 689 697
f 714 683 663
f 94 42 39
f 680 674 665
f 1038 997 990
f 634 650 611
f 85 123 1
f 586 547 514
f 298 235 264
f 172 205 116
f 829 764 839
f 341 282 285
f 119 108 79
f 415 398 429
f 780 739 788
f 418 409 441
f 868 816 859
f 683 630 663
f 888 875 930
f 459 432 458
f 778 741 806
f 700 752 735
f 1111 1105 1112
f 919 889 878
f 814 854 817
f 530 474 538
f 1124 1123 1127
f 875 800 903
f 107 78 74
f 1107 1099 1103
f 186 152 185
f 107 74 77
f 25 18 23
f 25 24 18
f 248 247 278
f 659 579 577
f 1002 989 1005
f 925 872 904
f 1133 1131 1129
f 952 824 931
f 160 77 141
f 585 551 574
f 1141 1065 1046
f 928 918 954
f 87 23 86
f 182 145 153
f 1034 1002 1032
f 591 563 562
f 709 716 656
f 31 30 27
f 730 746 650
f 89 88 30
f 884 874 909
f 354 335 373
f 958 962 974
f 414 409 373
f 936 922 961
f 1130 1026 1042
f 651 644 717
f 78 75 74
f 990 883 933
f 719 687 718
f 1065 1140 1027
f 971 903 940
f 35 38 33
f 907 844 856
f 550 503 505
f 484 459 483
f 555 520 500
f 1087 1083 1080
f 1080 1068 1053
f 138 113 156
f 686 666 628
f 673 638 616
f 289 278 292
f 102 117 63
f 41 35 39
f 201 163 184
f 243 202 242
f 721 635 659
f 1032 1005 991
f 1133 1129 1130
f 395 384 330
f 675 711 622
f 540 480 489
f 236 213 269
f 226 227 275
f 53 49 51
f 533 510 541
f 772 720 748
f 237 206 222
f 563 554 562
f 1054 1024 995
f 719 718 741
f 917 862 896
f 702 771 708
f 121 54 115
f 109 136 119
f 511 439 497
f 1130 1042 1045
f 798 717 732
f 1110 1106 1111
f 405 357 406
f 1116 1112 1108
f 1097 1096 1055
f 566 575 604
f 422 438 450
f 180 120 144
f 984 944 943
f 534 491 549
f 33 28 29
f 618 606 670
f 451 387 369
f 562 513 572
f 558 518 519
f 100 98 60
f 95 43 47
f 1062 1044 1132
f 43 40 37
f 915 890 872
f 653 628 594
f 878 837 841
f 791 765 742
f 255 227 208
f 966 939 937
f 196 179 195
f 437 430 488
f 389 388 419
f 860 794 837
f 945 937 917
f 1054 1087 1024
f 688 687 719
f 411 364 400
f 722 696 680
f 374 315 322
f 252 288 309
f 206 174 165
f 240 271 204
f 989 969 982
f 14 4 5
f 607 576 605
f 1025 1002 1034
f 145 87 86
f 733 739 723
f 331 299 267
f 653 594 623
f 527 436 468
f 1096 1033 1015
f 265 239 237
f 531 466 518
f 714 663 688
f 108 126 106
f 982 976 973
f 93 34 90
f 1057 1012 992
f 446 415 429
f 835 856 787
f 1110 1111 1115
f 1027 1138 1063
f 819 842 754
f 948 915 925
f 260 229 272
f 105 118 70
f 1003 968 1014
f 559 584 522
f 252 210 256
f 1078 1074 1079
f 292 278 260
f 22 149 85
f 543 506 455
f 560 501 542
f 209 169 123
f 944 823 895
f 536 485 560
f 773 736 763
f 1045 986 981
f 273 242 302
f 926 915 956
f 803 781 758
f 758 724 780
f 735 682 700
f 676 632 647
f 330 263 266
f 770 805 806
f 683 670 630
f 461 443 384
f 878 889 837
f 472 431 448
f 356 316 353
f 204 143 187
f 576 536 560
f 606 575 578
f 405 395 371
f 4 10 3
f 908 879 866
f 239 206 237
f 310 273 302
f 578 535 551
f 1049 1139 1066
f 372 304 390
f 885 854 863
f 640 629 603
f 285 308 341
f 260 277 313
f 435 341 397
f 716 690 655
f 10 2 3
f 901 850 884
f 746 737 650
f 622 570 571
f 96 42 94
f 590 631 557
f 690 646 596
f 1036 996 1035
f 774 833 730
f 248 230 247
f 1138 1045 1063
f 462 485 497
f 882 853 801
f 174 135 134
f 637 599 643
f 288 283 297
f 33 30 31
f 861 815 823
f 387 380 314
f 357 371 299
f 157 148 122
f 82 78 107
f 688 719 728
f 914 852 913
f 704 634 638
f 856 844 787
f 639 588 597
f 939 909 937
f 504 505 434
f 184 163 178
f 893 784 865
f 422 368 408
f 293 319 348
f 1064 1139 1049
f 711 705 622
f 1055 1015 977
f 936 945 917
f 542 516 552
f 910 842 819
f 281 311 250
f 1090 1083 1087
f 863 814 800
f 771 801 766
f 1047 1137 1140
f 450 430 422
f 96 113 138
f 760 804 725
f 766 745 701
f 82 81 78
f 656 655 610
f 512 405 470
f 1092 1085 1082
f 1008 985 1029
f 357 405 371
f 122 148 109
f 1071 1029 1028
f 60 56 55
f 75 79 76
f 846 808 828
f 827 806 852
f 878 841 854
f 658 602 614
f 366 376 340
f 69 67 64
f 51 49 46
f 339 320 385
f 892 873 905
f 800 813 869
f 12 7 8
f 352 301 360
f 501 495 542
f 432 402 416
f 93 90 124
f 572 539 589
f 727 698 671
f 915 872 925
f 328 268 289
f 188 138 171
f 1050 1016 1051
f 383 355 363
f 28 27 19
f 848 744 792
f 1109 1017 1037
f 694 689 750
f 478 449 453
f 398 379 358
f 1033 995 977
f 984 943 1016
f 416 411 424
f 854 814 863
f 539 486 524
f 17 12 13
f 906 819 802
f 695 678 743
f 553 523 517
f 1053 1023 999
f 184 168 201
f 308 251 294
f 576 566 605
f 564 556 563
f 250 225 191
f 256 219 215
f 708 693 648
f 566 542 575
f 806 805 857
f 658 614 677
f 671 612 626
f 784 829 865
f 109 80 81
f 941 950 980
f 160 141 193
f 312 253 252
f 642 684 703
f 850 803 826
f 736 694 763
f 130 97 151
f 193 147 208
f 222 190 214
f 936 917 896
f 139 99 155
f 90 32 26
f 1062 1132 1136
f 184 177 168
f 845 938 835
f 517 523 461
f 370 343 375
f 1094 1092 1088
f 369 387 359
f 285 251 308
f 431 383 418
f 941 980 993
f 652 543 657
f 657 635 691
f 192 186 210
f 865 829 871
f 828 807 864
f 1068 1028 1050
f 944 895 943
f 1102 1095 1100
f 941 920 950
f 778 827 813
f 442 392 431
f 413 329 412
f 569 504 530
f 516 483 535
f 280 275 304
f 342 340 286
f 136 161 108
f 662 640 687
f 52 47 50
f 497 439 462
f 598 536 607
f 420 349 403
f 1075 1068 1080
f 965 966 937
f 818 783 822
f 405 469 395
f 879 833 774
f 321 253 312
f 36 91 30
f 356 352 399
f 466 440 420
f 135 104 103
f 226 193 227
f 1130 1126 1026
f 284 269 259
f 235 166 217
f 651 531 644
f 35 33 29
f 102 63 67
f 5 4 3
f 1091 1087 1054
f 899 914 946
f 665 624 621
f 550 526 503
f 1077 1072 1073
f 389 370 388
f 664 618 670
f 882 929 853
f 181 154 138
f 987 941 1010
f 752 740 789
f 448 431 418
f 603 574 587
f 1026 1126 1060
f 684 633 694
f 251 233 294
f 84 111 142
f 733 723 696
f 640 603 645
f 695 743 784
f 481 393 454
f 491 472 490
f 575 542 552
f 106 105 73
f 415 382 379
f 368 351 386
f 1036 992 996
f 969 958 974
f 700 692 731
f 1100 1095 1097
f 1056 1097 1055
f 611 526 550
f 77 104 141
f 269 213 259
f 103 68 66
f 1113 1037 1038
f 270 215 238
f 1050 984 1016
f 994 907 938
f 842 797 786
f 213 188 231
f 615 585 629
f 97 57 54
f 19 20 15
f 384 401 338
f 337 279 249
f 499 475 440
f 168 175 233
f 388 402 432
f 697 670 720
f 681 647 617
f 1034 1085 1093
f 334 292 260
f 740 706 734
f 540 527 480
f 645 587 636
f 156 113 158
f 862 874 840
f 1134 1130 1045
f 382 386 350
f 675 609 666
f 549 491 533
f 567 538 582
f 525 559 522
f 384 307 330
f 113 93 124
f 669 713 653
f 293 239 265
f 857 898 912
f 46 45 42
f 293 265 319
f 862 811 834
f 801 745 766
f 197 250 191
f 758 780 826
f 1087 1080 1024
f 261 254 268
f 1132 1131 1136
f 626 727 671
f 494 450 500
f 610 561 548
f 376 361 281
f 433 390 439
f 214 199 236
f 164 125 117
f 642 598 607
f 412 381 396
f 333 365 391
f 428 518 403
f 1101 1095 1102
f 894 1019 942
f 820 756 777
f 408 368 386
f 790 742 778
f 6 5 110
f 627 592 632
f 121 115 129
f 364 356 400
f 715 684 736
f 423 352 392
f 426 416 424
f 502 504 479
f 692 667 706
f 748 714 688
f 880 911 867
f 633 607 605
f 125 98 100
f 47 43 44
f 152 137 167
f 122 109 82
f 479 435 474
f 1063 981 1006
f 255 208 207
f 755 691 810
f 32 29 26
f 523 514 443
f 872 864 904
f 1114 1036 1107
f 810 815 861
f 1126 1058 1060
f 1128 1122 1125
f 458 432 416
f 1071 1028 1068
f 1072 1021 1029
f 478 426 449
f 409 414 437
f 555 500 554
f 69 70 67
f 337 322 279
f 355 301 328
f 394 346 411
f 988 932 964
f 693 701 654
f 155 99 130
f 691 721 810
f 430 368 422
f 834 799 830
f 956 915 948
f 694 641 689
f 34 35 29
f 734 712 758
f 436 410 344
f 132 83 110
f 122 107 127
f 1024 1053 994
f 695 643 678
f 1120 1116 1118
f 1030 998 1021
f 921 861 823
f 573 593 614
f 986 949 916
f 832 803 850
f 575 552 578
f 1048 1137 1047
f 448 441 477
f 441 409 437
f 195 145 182
f 258 257 228
f 110 1 123
f 638 634 568
f 109 119 80
f 959 924 930
f 891 858 855
f 375 347 394
f 1027 1063 1019
f 721 659 751
f 775 727 705
f 212 171 202
f 532 499 579
f 1018 1093 1099
f 339 294 320
f 1049 1020 975
f 341 308 397
f 807 772 794
f 409 363 373
f 937 909 917
f 1063 1045 981
f 363 355 328
f 634 550 568
f 173 172 125
f 262 274 303
f 333 323 365
f 1060 1009 1026
f 361 406 331
f 1067 1013 1030
f 793 809 746
f 530 504 502
f 1082 1076 1084
f 184 178 177
f 549 541 573
f 735 752 785
f 1014 988 1022
f 176 220 161
f 483 459 458
f 383 360 355
f 940 869 923
f 701 745 669
f 841 767 817
f 310 326 353
f 797 796 702
f 823 815 751
f 892 839 873
f 565 541 546
f 87 26 23
f 281 197 246
f 633 605 641
f 41 38 35
f 440 336 420
f 468 436 380
f 794 748 768
f 495 516 542
f 764 783 818
f 381 329 348
f 204 203 143
f 858 822 855
f 821 867 804
f 72 70 69
f 500 450 508
f 636 587 602
f 263 249 200
f 324 367 258
f 329 293 348
f 654 623 586
f 804 845 769
f 817 765 814
f 233 175 194
f 364 346 317
f 615 551 585
f 493 506 544
f 18 21 16
f 1088 1084 1086
f 177 157 127
f 967 947 959
f 942 906 877
f 795 749 762
f 464 463 538
f 351 313 350
f 305 270 238
f 272 211 253
f 301 268 328
f 525 522 473
f 86 23 17
f 1028 921 984
f 641 604 618
f 816 782 785
f 145 86 153
f 97 54 121
f 261 241 254
f 1039 1012 1057
f 523 443 461
f 153 86 142
f 1037 1017 997
f 252 256 288
f 951 865 941
f 786 797 726
f 707 682 735
f 862 840 811
f 492 517 461
f 687 640 679
f 717 644 698
f 520 494 500
f 192 142 186
f 908 953 879
f 193 208 227
f 336 295 224
f 1046 1065 953
f 319 306 343
f 126 140 118
f 466 420 403
f 864 807 860
f 660 639 652
f 847 784 893
f 317 284 316
f 1038 1037 997
f 1059 1040 1124
f 1089 1083 1090
f 11 6 7
f 228 209 149
f 202 170 216
f 951 893 865
f 685 652 657
f 734 661 712
f 880 821 851
f 738 680 710
f 712 676 681
f 474 397 464
f 809 737 746
f 108 106 76
f 782 735 785
f 519 428 467
f 883 882 838
f 821 804 760
f 775 732 727
f 540 580 527
f 769 711 675
f 867 845 804
f 167 132 198
f 410 367 324
f 596 590 512
f 1079 1074 1076
f 225 266 218
f 1014 1022 1067
f 772 753 720
f 1059 979 1040
f 879 894 833
f 581 537 511
f 138 156 171
f 849 755 824
f 88 22 20
f 731 692 706
f 606 578 595
f 397 308 339
f 406 357 331
f 609 580 540
f 672 636 658
f 812 788 776
f 404 369 315
f 459 388 432
f 1094 1088 1086
f 171 158 170
f 334 313 351
f 665 674 625
f 334 260 313
f 285 282 201
f 529 537 581
f 275 227 255
f 381 348 396
f 108 76 79
f 676 647 681
f 589 539 583
f 261 216 241
f 627 632 661
f 266 263 218
f 230 196 229
f 902 880 851
f 727 732 698
f 137 83 132
f 22 85 15
f 1014 1067 1070
f 966 965 976
f 218 263 200
f 1130 1125 1126
f 335 292 334
f 84 13 111
f 660 652 699
f 611 620 526
f 434 417 377
f 832 785 789
f 529 482 537
f 55 48 53
f 82 107 122
f 250 331 267
f 577 498 531
f 1075 1080 1083
f 1040 979 972
f 567 569 530
f 274 262 245
f 779 743 729
f 958 955 962
f 401 393 337
f 95 40 43
f 190 155 162
f 44 43 37
f 827 778 806
f 721 751 815
f 980 983 979
f 744 695 792
f 747 685 777
f 816 836 859
f 21 19 9
f 487 486 539
f 379 321 358
f 55 52 50
f 180 166 120
f 793 877 809
f 187 240 204
f 343 306 347
f 255 207 239
f 273 243 242
f 968 932 988
f 718 679 707
f 443 454 401
f 842 870 797
f 279 205 232
f 508 457 487
f 467 428 410
f 337 393 322
f 1032 1078 1085
f 509 478 515
f 377 342 282
f 866 774 848
f 340 376 281
f 848 792 847
f 151 154 181
f 565 546 556
f 528 512 470
f 223 246 176
f 188 171 212
f 548 528 471
f 1116 1113 1118
f 918 897 887
f 984 921 944
f 858 818 822
f 631 553 557
f 925 889 919
f 172 116 125
f 697 689 664
f 982 974 966
f 752 731 740
f 865 920 941
f 289 292 325
f 110 3 2
f 146 133 150
f 358 333 407
f 1120 1118 1126
f 150 112 145
f 1096 1091 1033
f 594 559 547
f 397 339 385
f 1076 1077 1081
f 146 150 179
f 663 662 687
f 760 725 686
f 738 756 799
f 730 833 793
f 557 553 517
f 887 850 901
f 389 348 370
f 216 196 241
f 19 15 9
f 921 823 944
f 305 238 295
f 133 90 112
f 663 630 615
f 265 262 306
f 1001 960 987
f 504 434 479
f 755 657 691
f 24 21 18
f 1004 970 1011
f 1081 1077 1075
f 388 375 402
f 275 255 304
f 939 884 909
f 779 729 764
f 1116 1108 1113
f 74 72 71
f 848 908 866
f 649 581 598
f 730 650 634
f 428 403 367
f 335 325 292
f 849 777 755
f 463 482 529
f 1049 1066 1020
f 271 287 203
f 764 715 783
f 726 702 646
f 34 29 32
f 882 801 838
f 993 980 979
f 1002 1005 1032
f 853 759 745
f 565 556 564
f 183 159 140
f 324 258 287
f 848 893 934
f 902 851 853
f 949 876 870
f 610 596 561
f 738 757 722
f 224 198 169
f 127 131 168
f 16 9 14
f 992 940 996
f 673 616 637
f 207 147 174
f 153 142 192
f 176 136 163
f 483 458 509
f 342 366 340
f 670 606 630
f 1083 1081 1075
f 96 46 42
f 439 390 413
f 295 238 224
f 932 830 900
f 392 360 383
f 1036 1035 1107
f 370 375 388
f 816 785 836
f 950 920 905
f 344 410 324
f 784 779 829
f 298 240 235
f 1012 930 992
f 925 904 889
f 396 348 389
f 1028 985 921
f 713 686 653
f 654 586 553
f 705 727 626
f 780 724 739
f 224 300 349
f 932 900 952
f 912 928 955
f 1017 1056 1000
f 832 789 803
f 431 392 383
f 140 117 102
f 1025 1093 1018
f 400 356 399
f 465 460 376
f 1093 1092 1098
f 214 189 199
f 418 363 409
f 207 174 206
f 703 715 729
f 666 609 600
f 954 927 939
f 548 471 460
f 589 583 624
f 110 2 1
f 327 297 270
f 225 126 191
f 572 513 539
f 1099 1093 1098
f 122 127 157
f 672 677 700
f 1094 1086 1089
f 924 878 885
f 2 9 1
f 264 235 217
f 224 169 234
f 336 224 349
f 322 264 205
f 844 775 787
f 876 933 883
f 905 891 926
f 128 89 91
f 356 353 352
f 290 293 329
f 983 956 967
f 26 25 23
f 610 655 596
f 1040 972 1039
f 894 942 877
f 223 176 163
f 635 579 659
f 66 62 61
f 224 234 257
f 347 318 346
f 8 7 83
f 638 568 616
f 606 595 630
f 301 276 268
f 372 390 433
f 182 153 192
f 489 451 452
f 1091 1054 1033
f 497 485 536
f 699 685 747
f 1077 1073 1075
f 861 921 985
f 385 320 372
f 845 835 769
f 1029 985 1028
f 450 438 457
f 829 839 871
f 1031 1003 1052
f 994 999 907
f 218 200 159
f 12 11 7
f 661 676 712
f 1069 1030 1021
f 625 674 617
f 127 107 77
f 1048 1047 953
f 596 512 561
f 370 319 343
f 1064 1049 1001
f 149 209 123
f 92 91 36
f 320 280 304
f 870 876 797
f 444 419 459
f 1098 1092 1094
f 723 724 681
f 311 361 331
f 287 258 203
f 763 749 808
f 321 291 253
f 706 661 734
f 1066 1136 1143
f 1104 1097 1056
f 128 88 89
f 749 697 762
f 1110 1103 1106
f 57 58 53
f 916 949 870
f 1122 1117 1120
f 906 981 910
f 546 510 521
f 1065 1027 894
f 853 851 759
f 308 294 339
f 530 502 474
f 1012 972 930
f 868 805 816
f 608 572 589
f 1043 1041 1124
f 591 562 608
f 309 288 297
f 249 279 232
f 393 473 404
f 837 794 767
f 391 365 362
f 777 685 755
f 616 567 582
f 1105 1108 1112
f 614 593 613
f 315 298 264
f 340 281 246
f 1053 999 994
f 306 303 347
f 620 548 526
f 598 511 536
f 708 771 693
f 756 699 747
f 262 222 245
f 64 67 63
f 613 627 667
f 857 868 898
f 1000 977 902
f 522 540 489
f 1072 1071 1073
f 785 752 789
f 959 947 924
f 1066 1143 1020
f 387 314 359
f 478 416 426
f 358 312 333
f 927 901 939
f 45 44 38
f 69 64 65
f 768 688 728
f 359 314 298
f 553 586 514
f 1108 1104 1113
f 75 73 72
f 678 649 703
f 414 373 368
f 1080 1053 1024
f 101 61 99
f 691 635 721
f 1025 1004 1011
f 1000 902 957
f 601 617 647
f 194 175 160
f 726 797 702
f 507 467 436
f 360 301 355
f 314 271 240
f 952 849 824
f 18 11 12
f 993 979 1059
f 525 473 481
f 917 909 862
f 728 719 742
f 1114 1110 1115
f 713 759 686
f 429 358 407
f 595 551 615
f 742 741 778
f 700 731 752
f 258 332 257
f 97 121 151

