# https://github.com/mikedh/trimesh
v -2.00573087 -2.00527906 -0.89775324
v -2.00478745 -2.00802302 -0.68223512
v -2.01156616 -1.98120427 -0.29598835
v -2.00673723 -2.00476527 -0.13202620
v -2.01423383 -1.83491015 -0.79237938
v -2.01399183 -1.95692301 -0.55519366
v -2.00763178 -1.93796444 -0.90763175
v -2.01429892 -1.87216377 -0.31525931
v -2.00872087 -1.92488766 -0.10925475
v -2.00053048 -1.71171021 -0.90923762
v -2.01429892 -1.63863230 -0.50972962
v -2.00835967 -1.73032951 -0.14025691
v -2.01408792 -1.55260777 -0.22938767
v -2.01425815 -1.55217052 -0.84958327
v -2.01429892 -1.36731625 -0.60632259
v -1.99910700 -1.46384287 -0.91020143
v -2.00433993 -1.44851875 -0.17422447
v -2.01421714 -1.22687554 -0.84307110
v -2.01429892 -1.24272656 -0.34183106
v -2.01429892 -1.11617684 -0.65726411
v -2.01197696 -1.05531478 -0.24767175
v -1.99843061 -1.16540837 -0.90973198
v -2.01425815 -0.91302770 -0.79764223
v -2.01429343 -0.84142137 -0.49520615
v -2.00815368 -0.83155560 -0.90546072
v -2.00485158 -0.86379623 -0.25245264
v -2.01426291 -0.65146434 -0.80709028
v -2.01429892 -0.55165046 -0.60109103
v -2.01008272 -0.57412767 -0.29466802
v -2.00637197 -0.48823905 -0.90511107
v -2.01419759 -0.56526041 -0.40432110
v -2.01420689 -0.38594994 -0.81720990
v -2.01422310 -0.26481158 -0.43382099
v -2.00485253 -0.33395350 -0.32830694
v -2.00536990 -0.20807625 -0.90805626
v -2.01429892 -0.23217277 -0.66308916
v -2.01429892 -0.08878061 -0.80618453
v -2.01039720 -0.11471829 -0.35890755
v -2.01429629 0.09511325 -0.49425745
v -2.00798869 0.19333422 -0.89936292
v -1.93942392 -0.11012706 -0.33836934
v -2.01429892 0.18636137 -0.66582203
v -2.00037932 0.15604949 -0.39244041
v -2.01420665 0.54627079 -0.78623426
v -2.01429892 0.39909929 -0.57513613
v -2.01176834 0.38336974 -0.44824043
v -2.00670314 0.62755078 -0.46153772
v -2.00701666 0.59843028 -0.90688992
v -2.01427722 0.66377050 -0.53306484
v -2.01429892 0.82803410 -0.66191792
v -2.01423764 0.87070662 -0.82790732
v -2.00593829 0.83523732 -0.48754117
v -2.00391841 0.90376717 -0.90756798
v -2.01414037 1.04081893 -0.56229925
v -2.01427674 1.18218088 -0.65179044
v -2.00679111 1.02271390 -0.51500565
v -2.01405311 1.16256642 -0.85970283
v -2.00677347 1.23599577 -0.90690863
v -2.00781083 1.21891761 -0.54249239
v -2.01429534 1.39906478 -0.73330164
v -2.01184964 1.48829842 -0.88234043
v -1.94376218 1.30193782 -0.53691113
v -2.00930452 1.44349861 -0.57783186
v -2.01429892 1.60170674 -0.67239666
v -2.00005317 1.58415341 -0.91120410
v -2.01003814 1.66080809 -0.61294657
v -2.01429343 1.86521411 -0.75545382
v -2.01090956 1.73344874 -0.88912272
v -1.98783004 1.81696010 -0.62094653
v -2.01152444 1.94396114 -0.88558203
v -1.99727046 1.94074655 -0.64797300
v -1.98471797 2.00168395 -0.65038598
v -2.00423408 2.00591969 -0.89913440
v -2.00179076 2.00881934 -0.78249401
v -1.90690315 -2.01426840 -0.68260992
v -1.84753430 -2.00624490 -0.06261463
v -1.97283685 -1.88209152 -0.09671875
v -1.89127076 -1.84601355 -0.91421705
v -1.81236374 -1.53442216 -0.91427851
v -1.93391740 -1.36872435 -0.16110200
v -1.97074378 -0.98951834 -0.22124685
v -1.95451820 -0.75287890 -0.91408402
v -1.92959583 -0.71538985 -0.25174218
v -1.88321722 -0.40618548 -0.28618157
v -1.92903197 -0.52087784 -0.91429389
v -1.96270144 -0.14317343 -0.91409421
v -1.93746483 0.09413722 -0.91419148
v -1.94485939 0.55087763 -0.91411221
v -1.93169153 0.52657956 -0.42598978
v -1.94722688 0.96782905 -0.49077225
v -1.94033825 0.96551532 -0.91415566
v -1.91054952 1.20453215 -0.91428876
v -1.87398291 1.63153148 -0.56970716
v -1.92472160 1.77611327 -0.91425800
v -1.96657431 1.89173913 -0.91417617
v -1.93721473 2.01401210 -0.85704803
v -1.84924638 -2.00852513 -0.89921248
v -1.93996346 -2.01429892 -0.30321887
v -1.89442337 -1.65568280 -0.11338690
v -1.87899601 -1.25183105 -0.91429895
v -1.79248857 -1.19739890 -0.15815940
v -1.86898577 -0.93090874 -0.91429895
v -1.73758757 -0.95637399 -0.18147814
v -1.82423246 -0.23907532 -0.91429895
v -1.86063087 0.30508697 -0.91429895
v -1.86070907 0.71549278 -0.91429895
v -1.82458103 0.81436068 -0.44590631
v -1.96070254 1.40150118 -0.91429895
v -1.90020359 1.58640218 -0.91429895
v -1.86825192 2.00824046 -0.90791094
v -1.68349898 2.01425147 -0.71413606
v -1.84999001 0.26417929 -0.37371185
v -1.70070851 1.36053085 -0.91429895
v -1.75640261 1.91742325 -0.58738327
v -1.82280743 -2.01421547 -0.10741726
v -1.62031424 -1.80032182 -0.04104306
v -1.76178658 2.00697541 -0.60691798
v -1.75958061 1.04001212 -0.46516940
v -1.75033820 1.88034678 -0.91417611
v -1.66243601 -2.01429892 -0.38521415
v -1.76759589 0.00538665 -0.32182956
v -1.76544738 0.60432678 -0.40527135
v -1.67774808 -0.72067487 -0.20310305
v -1.70922744 -0.64811456 -0.91429895
v -1.64786565 0.06789345 -0.91429895
v -1.61902559 -1.13900065 -0.91429895
v -1.72109759 -0.24193370 -0.27835900
v -1.75503087 1.32161760 -0.50371045
v -1.73045027 -0.49207076 -0.24513039
v -1.60137093 1.53566766 -0.91429895
v -1.67996919 -1.44456983 -0.10219857
v -1.69978714 0.89673954 -0.91429895
v -1.63390052 -2.01429892 -0.64539546
v -1.58862007 -1.83700275 -0.91429895
v -1.67671728 1.59357119 -0.52687514
v -1.61986887 0.42219645 -0.91429895
v -1.60522640 1.74907804 -0.53507054
v -1.49811363 -2.01429892 -0.15342003
v -1.58261538 -1.35379219 -0.91429895
v -1.65819418 0.17267376 -0.32448053
v -1.64821327 0.62966365 -0.91429895
v -1.55452096 -2.01333761 -0.85057700
v -1.54311860 1.14474964 -0.43868241
v -1.65426004 -2.00522065 -0.02959289
v -1.63712537 -0.40378416 -0.91429895
v -1.58023655 0.61146122 -0.37106982
v -1.48691666 -0.82865870 -0.91429895
v -1.46820593 1.37748098 -0.45701870
v -1.61481881 0.36793059 -0.34353545
v -1.58685172 0.86768728 -0.40819743
v -1.60108209 1.07923579 -0.91429895
v -1.52215540 -1.55824542 -0.91429895
v -1.53564811 -1.18593097 -0.11103296
v -1.53296220 1.69778037 -0.91429895
v -1.58090532 2.00825858 -0.90825844
v -1.52755892 -1.99589705 -0.91056740
v -1.54733217 -0.52281398 -0.20602107
v -1.44411910 0.27600878 -0.91429895
v -1.32723629 2.01410747 -0.84409398
v -1.50678873 -0.57745701 -0.91429895
v -1.56391442 -0.19492702 -0.91429895
v -1.51274335 -0.00106683 -0.27248201
v -1.50987542 -1.02108622 -0.12912497
v -1.43618500 -0.77103406 -0.15019354
v -1.47451794 -2.00062084 0.00837020
v -1.45016301 0.23682564 -0.29389745
v -1.46977460 1.89782715 -0.53018069
v -1.39775836 -1.52721477 -0.03700474
v -1.47140706 -0.26973581 -0.22703937
v -1.39970529 -0.31897011 -0.91429895
v -1.45480072 2.00786924 -0.55992371
v -1.46830916 0.57725412 -0.91429895
v -1.43381202 0.87265867 -0.91429895
v -1.35449517 1.90081239 -0.91427594
v -1.36205876 0.50660408 -0.31493968
v -1.43117130 0.78866440 -0.36756876
v -1.38529420 1.00303817 -0.38886818
v -1.43310928 1.26538658 -0.91429895
v -1.40351582 -1.02662325 -0.91429895
v -1.19075453 -1.94510126 -0.91416079
v -1.30411041 -0.49165195 -0.16416585
v -1.36195207 0.01746726 -0.91429895
v -1.35611093 1.67246461 -0.47704262
v -1.31555498 2.01427674 -0.64074171
v -1.32368338 -2.01429892 -0.42448223
v -1.33266306 1.03538418 -0.91429895
v -1.38176179 2.00357866 -0.90993142
v -1.32800925 -2.01429892 -0.68111074
v -1.32744706 -2.01428032 -0.01134360
v -1.42496073 -1.20578086 -0.09494855
v -1.41485512 -0.95291072 -0.12530336
v -1.22814071 -1.74967432 -0.91429895
v -1.22642291 -0.58430493 -0.91429895
v -1.31559408 1.51274633 -0.91429895
v -1.25820291 -2.00892806 -0.90717101
v -1.30511928 -1.87506747 0.02930115
v -1.29168499 -1.21178985 -0.91429895
v -1.34215105 -1.09910107 -0.16724107
v -1.33769023 0.08703971 -0.25158677
v -1.22792220 0.65194851 -0.91429895
v -1.20533264 1.71655154 -0.91429895
v -1.32196724 -1.29452896 -0.11820407
v -1.29635191 -0.96544343 -0.19274117
v -1.23341811 -0.10032240 -0.20552166
v -1.26763809 0.26391524 -0.26300436
v -1.28136742 1.21975088 -0.39945605
v -1.20841694 -1.44860077 -0.91429895
v -1.31040299 -1.42820358 -0.04758161
v -1.21944392 -0.29354101 -0.17582881
v -1.22108209 1.32816529 -0.91429895
v -1.25985420 1.51306129 -0.43641737
v -1.30778170 -2.00049520 0.04194637
v -1.22487688 -0.91179395 -0.91429895
v -1.30381060 -0.78820258 -0.15198441
v -1.17135715 1.88517594 -0.47174117
v -1.29057801 -0.70019782 -0.13353473
v -1.25655520 0.74110276 -0.32773671
v -1.16856384 1.02933216 -0.35136992
v -1.21928608 -0.14470385 -0.91429895
v -1.18530428 0.43848461 -0.91429895
v -1.17240489 0.83808333 -0.91429895
v -1.19826615 -0.36491433 -0.91429895
v -1.15021360 0.21066868 -0.91429895
v -1.19928706 2.00953341 -0.50392878
v -1.15912294 -2.01418638 -0.78820193
v -1.08316159 -2.01429892 -0.22732976
v -1.17364609 -2.00684094 0.05997495
v -1.17063344 -1.20452309 -0.21932572
v -1.17364132 -1.33410668 -0.16990487
v -1.12304723 0.58798748 -0.28091222
v -1.13960993 1.09052682 -0.91429895
v -1.09777892 1.66283965 -0.42660889
v -1.09261942 -2.01429892 -0.48615238
v -1.12624991 -1.82108331 0.05572339
v -1.04277337 -0.63989383 -0.19119075
v -1.11261213 1.29854846 -0.37840965
v -1.02029085 2.01429868 -0.63321835
v -1.02432775 -1.11338162 -0.91429895
v -1.13750613 -1.01442623 -0.25244296
v -1.17963159 -0.83352029 -0.21702969
v -1.13208282 2.00320792 -0.90884393
v -1.00194132 -0.69768178 -0.91429895
v -1.12549078 -0.55115306 -0.12600809
v -1.01656628 0.01881814 -0.91429895
v -1.04609513 0.09638661 -0.19749156
v -1.10460603 0.35271442 -0.24446438
v -1.10083401 0.79141146 -0.30517131
v -0.99011070 1.51954031 -0.38607547
v -1.10584843 -1.59337544 0.02084619
v -1.10786903 -1.50986838 -0.06188656
v -1.01000726 1.88413405 -0.91423237
v -0.97782129 -2.01429892 0.00308620
v -1.02207899 -0.90195549 -0.91429895
v -1.01678109 -0.35759908 -0.12845513
v -1.00652480 1.43476462 -0.91429895
v -0.97041899 -2.00684476 -0.90312922
v -1.01982296 -1.40562940 -0.15593298
v -0.99978930 -1.29325533 -0.21634801
v -1.00668299 2.00878716 -0.46835726
v -0.85957974 -1.76199198 -0.91429895
v -1.01395857 -1.13626742 -0.25996983
v -0.94023865 -2.00109816 0.10751478
v -0.95601517 -0.79011053 -0.25215349
v -0.92891783 -0.41594952 -0.91429895
v -0.99188977 -0.10038838 -0.15961725
v -0.88218492 0.61743969 -0.91429895
v -0.93796760 1.12836599 -0.91429895
v -0.97998089 -1.55206108 -0.03551193
v -0.91773814 -1.00168419 -0.26764783
v -0.93815500 -0.22509843 -0.91429895
v -0.94254953 0.42664260 -0.22404572
v -0.94842893 1.96349859 -0.44035605
v -0.94080979 2.01429892 -0.84115028
v -0.99092442 -1.64231133 0.05402490
v -0.91161305 0.75511426 -0.26414454
v -0.88046318 1.06744099 -0.30194882
v -0.89129120 1.81260467 -0.40831193
v -0.92116362 -1.92894197 0.10980693
v -0.88854867 0.87250251 -0.91429895
v -0.88209122 1.59912992 -0.91429895
v -0.87992054 -1.43420219 -0.91429895
v -0.90417212 0.22376758 -0.18833494
v -0.94112211 0.29096955 -0.91429895
v -0.95061713 -0.38669521 -0.12138053
v -0.92363149 -2.01425815 -0.84677219
v -0.86736470 -2.01429892 -0.64637929
v -0.89516824 1.32578516 -0.34092829
v -0.78576213 1.62800193 -0.36244491
v -0.75600237 2.00589919 -0.90590775
v -0.84644473 -0.41208562 -0.17177634
v -0.81347460 -1.76078868 0.10670210
v -0.87526596 -1.18304372 -0.24466726
v -0.77479488 2.00819707 -0.42269734
v -0.80869287 -1.95470548 -0.91429895
v -0.81769156 -1.56022716 0.00529860
v -0.78296494 -1.31217253 -0.17596671
v -0.75759131 0.34120053 -0.91429895
v -0.83617824 2.01414657 -0.48028052
v -0.85581094 -1.47031999 -0.10025524
v -0.77396744 -0.51135272 -0.22264382
v -0.84149760 -0.23239243 -0.11466843
v -0.75073165 1.28757763 -0.91429895
v -0.71888155 -2.01429892 -0.43805310
v -0.72093904 -2.01429892 -0.18375146
v -0.77165020 -0.82188106 -0.91429895
v -0.75356615 -0.06866637 -0.91429895
v -0.78319269 0.05775994 -0.14213996
v -0.79202390 0.50106919 -0.20841561
v -0.73167163 0.99788076 -0.91429895
v -0.75269157 -1.11449814 -0.91429895
v -0.75521135 -1.61123443 0.09067684
v -0.75525045 -0.68902910 -0.25505826
v -0.72826713 1.69604683 -0.91429895
v -0.61250871 2.01428390 -0.51784641
v -0.76165551 -2.01421714 -0.83793318
v -0.64726168 -0.98782527 -0.23256195
v -0.69644004 0.87312251 -0.23978345
v -0.68130791 2.01429892 -0.79676771
v -0.59949225 -2.01429892 -0.63787603
v -0.76310939 -2.00768828 0.14041726
v -0.68128508 -0.84525305 -0.25555751
v -0.63189679 -0.58086926 -0.91429895
v -0.73242956 1.35842061 -0.31456855
v -0.64815372 -2.00734830 -0.90413815
v -0.73285562 -0.16230321 -0.10693450
v -0.68628961 1.89462829 -0.91429895
v -0.63630849 -1.68429518 -0.91429895
v -0.66409832 -1.46015716 -0.91429895
v -0.64616573 -0.15376461 -0.13783583
v -0.66308326 -0.28178689 -0.91429895
v -0.71499985 0.68125826 -0.22234693
v -0.66858035 -2.01429105 0.06517804
v -0.58962250 0.08415818 -0.91429895
v -0.56685627 1.09481597 -0.24620193
v -0.63032979 -1.88650322 0.15913278
v -0.71805090 -1.39612818 -0.10622704
v -0.73448926 0.32024783 -0.17020780
v -0.63763589 0.64837235 -0.91429895
v -0.58540720 1.86067152 -0.35695133
v -0.53541279 -1.04843664 -0.18016593
v -0.60999805 0.61217719 -0.22053722
v -0.54577088 1.43695092 -0.91429895
v -0.57713068 0.42205435 -0.21280111
v -0.40948439 -1.90272546 -0.91415566
v -0.64258742 -1.47301245 0.00435172
v -0.54033631 -0.88558924 -0.91429895
v -0.56923610 -0.41643617 -0.23423542
v -0.62213153 0.12450153 -0.13707490
v -0.52186733 0.21408671 -0.18839248
v -0.60051447 0.79059201 -0.21558130
v -0.62288862 1.69927907 -0.34147891
v -0.64155930 -0.30095604 -0.19461340
v -0.57599515 1.40811300 -0.29181039
v -0.49260402 -2.01416588 -0.81899798
v -0.64916295 -2.00190282 0.16805902
v -0.52740574 -1.35686862 -0.91429895
v -0.48711479 -2.01420712 0.16524950
v -0.53325015 -1.46668506 0.10143873
v -0.53984427 -0.60220599 -0.25165081
v -0.45972317 -0.47512105 -0.91429895
v -0.60585058 -0.03040683 -0.10106881
v -0.56569785 0.88002974 -0.91429895
v -0.55616158 -1.30683708 -0.06389970
v -0.52531314 -1.11759019 -0.91429895
v -0.47329408 0.39024466 -0.91429895
v -0.56332046 -2.00126219 0.18320975
v -0.54516047 -1.57230544 0.13131198
v -0.47744805 -0.21374512 -0.91429895
v -0.48530322 1.98503900 -0.91280007
v -0.58407611 2.00888515 -0.38302577
v -0.42783397 -2.01429892 0.02711242
v -0.39931393 -0.16711548 -0.20924935
v -0.51072717 1.25351787 -0.91429895
v -0.46843040 1.62887287 -0.30227074
v -0.41256863 1.60928845 -0.91429895
v -0.46031559 0.88615137 -0.19674177
v -0.48283577 1.05765367 -0.91429895
v -0.33772588 -2.01429892 -0.51078767
v -0.42887247 -2.01429892 -0.22620535
v -0.41496021 -1.09449613 -0.10300004
v -0.40380770 0.76634055 -0.91429895
v -0.39578855 2.01429892 -0.63439351
v -0.41482753 -0.72376674 -0.22438656
v -0.45335168 -0.00929666 -0.15343687
v -0.43172312 0.48741084 -0.22183838
v -0.46854395 1.96640873 -0.34960541
v -0.47167248 -2.00319982 0.19966093
v -0.39808422 -0.73651266 -0.91429895
v -0.40971792 0.65347975 -0.20213521
v -0.38323337 1.20473599 -0.22670642
v -0.39953655 2.01417613 -0.87057203
v -0.30614895 -2.00946569 -0.90336645
v -0.36043543 -1.21608758 0.02914269
v -0.40025598 -0.38571092 -0.24202618
v -0.36261410 0.77389532 -0.16819558
v -0.39479238 1.44283247 -0.26224282
v -0.39622581 1.82324457 -0.91429895
v -0.44182450 2.01115727 -0.36852005
v -0.35356247 -1.93767977 0.21873954
v -0.36958382 -1.61042070 -0.91429895
v -0.39648002 -1.37701678 0.13071781
v -0.28534758 -1.22846079 -0.91429895
v -0.33726853 -1.61525655 0.17682849
v -0.33763215 -1.03782034 -0.91429895
v -0.32437932 0.28785610 -0.22073810
v -0.25953329 -0.09772897 -0.91429895
v -0.27028877 0.99887449 -0.17642689
v -0.28540254 2.00569463 -0.32533136
v -0.28756747 -0.45270187 -0.23514715
v -0.26175857 0.01590490 -0.20814061
v -0.30869448 0.15885264 -0.91429895
v -0.29031369 1.24922323 -0.91429895
v -0.27911335 1.65956426 -0.27058959
v -0.36636513 -2.00419426 0.21947053
v -0.26585802 -0.40859407 -0.91429895
v -0.18713444 0.98195964 -0.91429895
v -0.23788857 0.34069306 -0.91429895
v -0.23899007 0.43247944 -0.20962253
v -0.18961784 1.88696766 -0.28544194
v -0.23537433 2.01410413 -0.35990736
v -0.18080968 1.94814658 -0.91421711
v -0.20012596 -0.83213449 -0.11349158
v -0.17193943 -0.81864846 -0.91429895
v -0.23147014 0.54570854 -0.91429895
v -0.22603390 1.40776610 -0.22527482
v -0.07033358 -1.75719380 -0.91429895
v -0.15664893 -1.31966543 0.16976573
v -0.19932356 -0.22946751 -0.23318812
v -0.17968613 0.57755786 -0.16543430
v -0.17890444 0.78189474 -0.91429895
v -0.15309012 1.79146457 -0.91429895
v -0.19691047 -2.01429892 -0.13170116
v -0.24915799 -2.00800920 0.23376346
v -0.18115458 -1.86195064 0.24103120
v -0.24399471 -1.41718006 -0.91429895
v -0.06094406 -2.01426840 -0.71966434
v -0.19107860 -1.01238608 0.00793985
v -0.14133245 -0.56040829 -0.18791449
v -0.23412499 2.00519109 -0.90777612
v -0.05437725 -2.01429892 0.06207030
v -0.14140630 -1.09767056 0.13820335
v -0.13299149 2.01425290 -0.80479467
v -0.18107519 2.01429892 -0.55415517
v -0.10894185 -2.01429892 -0.39142174
v -0.15116927 -1.96619940 -0.91429895
v -0.12907699 -1.66700554 0.22363429
v -0.14968568 -0.51542765 -0.91429895
v -0.06674775 0.62893796 -0.10652445
v -0.14381385 1.57462740 -0.91429895
v -0.04521028 -0.96569484 -0.91429895
v 0.03138940 0.18416721 -0.91429895
v -0.01569480 -0.20581186 -0.91429895
v -0.05219952 -0.04898238 -0.22548468
v -0.07039916 0.80787832 -0.11171010
v -0.08389983 1.22380376 -0.17249888
v -0.05915593 -1.51837611 -0.91429895
v -0.07651132 0.22131544 -0.21463022
v -0.04410150 1.12446165 -0.91429895
v -0.05291642 1.70271468 -0.23364373
v -0.12133300 -2.00416064 0.26633239
v -0.08016641 1.01347232 -0.14232919
v -0.02948452 2.00769901 -0.27805486
v -0.04122802 -2.01418304 0.23458749
v -0.01624138 -1.29880595 -0.91429895
v -0.02979664 -0.64334369 -0.91429895
v 0.02225366 -0.01702210 -0.91429895
v 0.06938471 2.01429820 -0.36068818
v 0.04711518 -1.50422668 0.23432812
v -0.03428558 -0.30216506 -0.21344681
v 0.03446588 0.43475991 -0.91429895
v -0.00340450 0.74745220 -0.91429895
v -0.04178188 1.44607568 -0.19561893
v -0.04978753 -0.94112855 0.07673666
v -0.02373669 -0.80365914 -0.01948826
v 0.01591330 1.31648397 -0.91429895
v -0.02898457 2.01068521 -0.90541387
v 0.10104746 -2.01429892 -0.22519806
v 0.04714521 -1.86507797 0.28484842
v 0.00346473 -0.57464468 -0.12985022
v 0.01424232 1.97032189 -0.91390997
v 0.00774579 -2.00584316 -0.90749896
v 0.05491167 -1.16733551 0.18863007
v 0.04072816 2.01429892 -0.63349557
v 0.14714001 -0.38165537 -0.91429895
v 0.02891091 0.44644934 -0.14588442
v 0.07841113 1.75118160 -0.91429895
v 0.02310998 -1.99551940 0.29602823
v 0.08214352 -1.15447676 -0.91429895
v 0.08163747 0.12887287 -0.21623653
v 0.02324596 -0.93120372 0.14133389
v 0.03423190 -0.66616011 -0.07502728
v 0.15177687 0.93747026 -0.08763967
v 0.12984851 1.89323044 -0.22561407
v 0.15074745 -2.01429892 -0.44851625
v 0.04124679 -0.82266772 0.03074078
v 0.04743012 -0.35233009 -0.19143663
v 0.10799438 -0.11771110 -0.22224247
v 0.11434531 0.32617098 -0.18995103
v 0.04078049 0.60486287 -0.07402343
v 0.11214875 1.22983479 -0.13608292
v 0.23229489 1.40582800 -0.13788970
v 0.17617136 1.44441557 -0.91429895
v 0.11672953 1.65499687 -0.19472925
v 0.26178974 -2.01427937 0.22350748
v 0.16254601 -2.00791287 0.31820896
v 0.18811813 2.01412892 -0.84761554
v 0.11614787 -1.04818606 0.17948912
v 0.24446709 -1.02152491 0.03588991
v 0.14298208 -0.81987917 -0.04115100
v 0.15864947 -0.76865172 -0.91429895
v 0.14503671 -0.65544242 -0.12612295
v 0.20158270 -0.53317308 -0.18332459
v 0.23441976 -0.36231202 -0.21551695
v 0.16126889 0.61081314 -0.11523283
v 0.17343844 -2.01421714 -0.83677757
v 0.21880484 -1.92359710 -0.91425800
v 0.11739173 -1.97013021 0.31269819
v 0.20013511 -1.65622425 -0.91429895
v 0.19730067 -1.35583019 -0.91429895
v 0.16858166 -0.58481246 -0.91429895
v 0.14475408 0.71336514 -0.06395566
v 0.30920970 -2.00542021 -0.90635920
v 0.23169664 0.04491681 -0.21049869
v 0.21582204 1.06529021 -0.91429895
v 0.23848963 2.01429892 -0.64842510
v 0.23902828 2.00831819 -0.22818536
v 0.23590505 -2.01429892 -0.06278486
v 0.26412436 -0.99645966 -0.91429895
v 0.22800303 0.80716246 -0.91429895
v 0.36044797 1.89027905 -0.91424525
v 0.15779057 2.00695157 -0.90771174
v 0.23173541 -0.11268970 -0.91429895
v 0.23837247 0.07867673 -0.91429895
v 0.27012116 0.58217341 -0.91429895
v 0.41630095 -2.01429892 -0.62989587
v 0.24718186 -1.34595001 0.25015768
v 0.21188664 0.36380565 -0.91429895
v 0.37548804 1.13856745 -0.07328427
v 0.27100605 -1.64307714 0.29628488
v 0.33911142 -1.19980717 0.11740291
v 0.34596956 -0.92208713 -0.09620167
v 0.25908229 -1.95905089 0.33815622
v 0.32579836 -0.26245743 -0.22148874
v 0.31387576 0.20586699 -0.20755248
v 0.29555055 1.73527646 -0.17201608
v 0.37862578 2.01429868 -0.40659335
v 0.37649772 0.41372770 -0.20037779
v 0.28272378 1.70730639 -0.91429895
v 0.29417115 1.95822358 -0.20362565
v 0.28628913 0.55487376 -0.16825503
v 0.32673740 0.89865643 -0.05615173
v 0.32851258 0.77330095 -0.10827770
v 0.39522627 1.45887661 -0.91429895
v 0.33207098 -1.30464995 0.25367287
v 0.43546027 -0.19693610 -0.20233768
v 0.38251436 0.33065152 -0.91429895
v 0.42601451 1.26794744 -0.91429895
v 0.38883910 -1.48007631 -0.91429895
v 0.44879141 -2.01429892 -0.35751799
v 0.42396805 -2.00209379 0.36728075
v 0.42700183 -1.85562015 0.35569230
v 0.43853128 -1.21097779 -0.91429895
v 0.36795959 -0.73698109 -0.91429895
v 0.38841739 2.00595069 -0.90780926
v 0.39179063 -2.01417613 -0.85139477
v 0.41987360 -1.54531503 0.31086931
v 0.39625636 -0.78311336 -0.16960245
v 0.47997791 -0.57695729 -0.91429895
v 0.46306506 -0.28993878 -0.91429895
v 0.48461604 0.64385921 -0.91429895
v 0.46528262 -1.80032706 -0.91429895
v 0.53754932 -0.70338511 -0.21126732
v 0.42370296 0.03205937 -0.16984923
v 0.46907356 0.94190675 -0.91429895
v 0.44760266 1.43401837 -0.10094599
v 0.46169078 -0.11645333 -0.91429895
v 0.46790132 1.92545962 -0.16589524
v 0.51301491 -2.01429892 -0.16954032
v 0.45797405 0.12081045 -0.91429895
v 0.51708663 0.75031358 -0.16433586
v 0.49439207 -2.01429892 0.02593336
v 0.52870625 1.77227378 -0.13287362
v 0.59166777 1.02089334 -0.10058806
v 0.60717553 2.01429892 -0.69930410
v 0.57274079 -1.95233178 -0.91415560
v 0.49278760 -1.41992068 0.20402837
v 0.51269478 -0.88182563 -0.91429895
v 0.61889583 1.61615205 -0.91429895
v 0.48087433 2.00966907 -0.19578701
v 0.57139844 -1.22456217 -0.05554646
v 0.54982024 0.30406553 -0.18547338
v 0.54739499 2.01429892 -0.28279230
v 0.63812774 2.01419663 -0.85036409
v 0.60714430 -2.01418638 -0.80510700
v 0.63377064 -1.10098577 -0.91429895
v 0.63345355 -1.04729640 -0.15845028
v 0.66882485 -0.56980228 -0.21853170
v 0.58931482 -0.17799385 -0.16137893
v 0.57559866 0.41207677 -0.91429895
v 0.50069487 1.06920552 -0.04485442
v 0.49874711 -1.49940062 0.31305179
v 0.60904950 -1.47525859 -0.91429895
v 0.57369161 -1.35607052 0.03648746
v 0.64878768 -0.01403761 -0.06815143
v 0.61780238 0.55653518 -0.19195023
v 0.67387420 -2.00863719 -0.90150672
v 0.60653526 -2.01429892 0.20685230
v 0.67987937 -2.01166034 0.39537078
v 0.66422516 -1.71535373 0.38112721
v 0.64226615 1.16339421 -0.91429895
v 0.70254642 2.01429892 -0.49258256
v 0.58018285 -1.54175138 0.28864369
v 0.71188515 1.44527459 -0.91429895
v 0.65942693 -1.62028146 0.35771987
v 0.63448906 0.03327915 -0.91429895
v 0.64643937 0.11584789 -0.11401867
v 0.64434439 1.45031548 -0.06583813
v 0.68994373 1.85681272 -0.91429895
v 0.69967496 -1.89031529 0.41237447
v 0.69055349 1.27153111 -0.03460152
v 0.64331245 -0.45191470 -0.91429895
v 0.67001694 -0.16085148 -0.91429895
v 0.76632482 0.72991854 -0.91429895
v 0.70437354 1.99841905 -0.91102326
v 0.74015087 1.95717120 -0.11871112
v 0.75508672 -2.01429892 -0.51993513
v 0.75695044 1.71243095 -0.08114896
v 0.68786007 2.01076221 -0.14847359
v 0.67642409 -1.52615952 0.14292976
v 0.74264997 -0.69598740 -0.91429895
v 0.80844289 -1.73187923 -0.91429895
v 0.69194269 0.26760697 -0.91429895
v 0.74746525 0.38798159 -0.15628475
v 0.72583306 0.73431402 -0.18492940
v 0.77052176 -0.42157555 -0.17815648
v 0.79377109 0.43182409 -0.91429895
v 0.74791282 -2.01429892 -0.17569327
v 0.71006709 -1.38617110 -0.03056809
v 0.85690135 -0.94911778 -0.91429895
v 0.77437884 -0.16087133 -0.07700103
v 0.87123746 -2.01429892 0.09234319
v 0.70195895 -1.61614490 0.30085114
v 0.81033254 -0.41104591 -0.91429895
v 0.76709002 0.99001783 -0.91429895
v 0.85649532 2.01429629 -0.30034152
v 0.77482200 -1.99749660 0.43779185
v 0.80095106 -1.24945140 -0.14184111
v 0.89345998 -2.01429892 0.31374833
v 0.80077511 -1.59578657 0.17347766
v 0.79699594 -1.43819237 -0.91429895
v 0.81656355 -0.05312777 -0.91429895
v 0.80497730 0.97769934 -0.16301855
v 0.86373001 0.10043901 0.01634219
v 0.93610907 -2.01428890 -0.80139410
v 0.84070474 -1.51346636 0.03791025
v 0.86665052 -0.92936760 -0.22065052
v 0.83322555 0.25482172 -0.08840275
v 0.87688285 1.23191214 -0.91429895
v 0.85920352 -1.69355226 0.40964499
v 0.93567961 -0.28702626 -0.91429895
v 0.91135663 0.15054458 -0.91429895
v 0.91457361 1.57105947 -0.03140453
v 0.87995458 -1.65646029 0.28005859
v 0.84032553 1.23827100 -0.09612244
v 0.91854030 1.59798980 -0.91429895
v 0.90857691 2.01423764 -0.82038009
v 0.94470316 -0.74335164 -0.20618837
v 0.89265627 0.67671031 -0.17267224
v 0.93699920 -1.96226406 -0.91415560
v 0.91236192 -1.40621042 -0.07416205
v 0.92982471 -1.10616565 -0.20734975
v 0.90432310 -0.37952203 -0.12117995
v 1.00899374 -0.16658495 0.09617229
v 0.87971228 -0.01198596 0.10841395
v 0.99774802 0.54583347 -0.91429895
v 0.92660195 0.90905148 -0.17693007
v 0.85666084 1.39600968 -0.02615564
v 0.94833690 1.99855828 -0.90989304
v 1.05708349 2.01429892 -0.64299834
v 0.93556249 -2.01429892 -0.12431449
v 0.84826714 2.00980973 -0.11228129
v 0.93502492 0.52509207 -0.13786118
v 1.00542355 -2.01429892 -0.57433963
v 0.98198605 -1.89957690 0.46729955
v 0.90895170 -1.20282602 -0.91429895
v 0.97688419 0.97624403 -0.91429895
v 0.98560929 -2.00252795 0.47325048
v 0.98490328 -1.39483285 -0.91429895
v 0.99136758 1.31532669 -0.08523643
v 1.06461859 1.84230447 -0.91429895
v 1.01688445 1.84703851 -0.05058653
v 1.01105273 2.00969052 -0.09335049
v 0.94827229 1.09048486 -0.16015448
v 1.05869985 -2.01429892 -0.36233571
v 1.08060217 -1.74314284 -0.91429895
v 1.05331993 -0.56671274 -0.91429895
v 1.02245355 0.74418050 -0.91429895
v 1.08554494 -2.00843501 -0.90497983
v 1.10042131 -1.77760863 0.47272372
v 1.01296675 -1.59800386 0.13270533
v 0.99640495 -0.81131637 -0.91429895
v 1.09875464 -0.38504413 -0.01467252
v 1.04806495 1.33775401 -0.91429895
v 1.05791152 -1.31215239 -0.13084266
v 1.01496923 1.45466042 -0.00037306
v 1.08908021 -0.62552422 -0.14363381
v 1.06318963 -0.09120119 -0.91429895
v 1.04792714 -0.09934166 0.22011156
v 0.97918111 0.02520266 0.19238767
v 1.07903194 0.21587950 0.10712220
v 1.17748189 0.62792814 -0.08007922
v 1.06776738 0.81258279 -0.15910113
v 1.08974576 2.01429892 -0.38184097
v 1.05192697 -1.70485330 0.44404525
v 1.01618469 -1.68008161 0.33419177
v 1.06298721 -1.48732114 -0.00488683
v 1.09257245 0.34273881 -0.91429895
v 1.08789730 0.43157375 -0.03848029
v 1.06755090 -0.92353892 -0.21084711
v 1.13795078 -0.03738531 0.23619643
v 1.08716416 1.15953946 -0.14479166
v 1.18215740 -2.01429892 0.12612981
v 1.10672116 -1.15703797 -0.91429895
v 1.06782627 1.03804064 -0.16813900
v 1.13764203 1.08963656 -0.91429895
v 1.23327839 2.01426101 -0.18329078
v 1.14632452 -1.15364981 -0.17524284
v 1.14621556 1.52934670 -0.91429895
v 1.20452821 -2.01429892 -0.16588601
v 1.19812536 -2.01429892 0.37613687
v 1.17884874 -1.63443065 0.28320912
v 1.23069382 -1.53333688 -0.91429895
v 1.20149851 -0.99731076 -0.91429895
v 1.21010339 -0.71717918 -0.91429895
v 1.21916091 -0.31525338 -0.91429895
v 1.15059984 1.39498115 -0.02325859
v 1.24313104 1.94615388 -0.02160468
v 1.09091711 2.01364374 -0.88119137
v 1.26651061 -1.95333123 -0.91423750
v 1.14313912 0.09744793 -0.91429895
v 1.18269765 0.22712034 0.20147343
v 1.19506037 1.46319103 0.03312302
v 1.22507966 -2.01423764 -0.78483653
v 1.29378617 -2.00344729 0.53502446
v 1.22589171 -1.95002937 0.52068716
v 1.17271399 -1.53581214 0.08609418
v 1.22963977 0.92016464 -0.91429895
v 1.20396924 1.24808407 -0.09189135
v 1.20816684 1.99924970 -0.91055924
v 1.22811425 -1.34390235 -0.06850189
v 1.32559264 0.51024717 0.07971525
v 1.21728694 0.68703920 -0.91429895
v 1.27338195 1.34268880 -0.91429895
v 1.28385007 1.54449606 0.04246415
v 1.27506864 2.01425815 -0.86129576
v 1.20614684 2.00879669 -0.04506411
v 1.32194197 -1.32341766 -0.91429895
v 1.28420305 -0.29111806 0.29435420
v 1.27663934 0.88878328 -0.11313394
v 1.19982660 1.05382633 -0.14326371
v 1.30500567 1.78868484 -0.91429895
v 1.34528887 -2.01429892 -0.59043264
v 1.23989451 -1.66177607 0.47134686
v 1.26332557 -1.03560686 -0.15938796
v 1.30026138 -0.68213195 -0.06798289
v 1.35854864 -0.43506461 0.19758086
v 1.38235700 0.19189358 0.25052550
v 1.29176283 0.24096501 -0.91429895
v 1.32723987 0.55352849 -0.91429895
v 1.32502615 2.01429892 -0.53133142
v 1.41436851 -0.10941094 0.29883638
v 1.30397713 1.74895906 0.01765747
v 1.25662124 -0.86187184 -0.15531465
v 1.32832134 -0.86358535 -0.91429895
v 1.38338578 -2.00736713 -0.90706724
v 1.31470358 -2.01429892 -0.36368659
v 1.36131942 -0.07375741 -0.91429895
v 1.37420309 1.18211842 -0.91429895
v 1.38543141 1.58632421 -0.91429895
v 1.37439239 -1.50592661 0.21452297
v 1.38116801 -0.50049031 -0.91429895
v 1.32624042 1.30041385 -0.01705161
v 1.36664462 -2.01424170 0.47522452
v 1.35708821 -1.38738346 0.04710862
v 1.38340533 -1.15390515 -0.06747591
v 1.35132277 -1.58187723 0.36380228
v 1.54897678 0.80389851 -0.91429895
v 1.39014053 -1.59208655 0.49621484
v 1.38021672 -0.56994176 0.06321464
v 1.35612273 1.07113743 -0.07876003
v 1.39056933 2.01429892 -0.78535187
v 1.50511742 -2.01429892 0.26310351
v 1.54329717 -1.72799253 0.54993218
v 1.45736957 -2.01429892 -0.09599368
v 1.52841747 -1.20836210 -0.91429895
v 1.39433515 -0.93604630 -0.08680108
v 1.42667711 0.45091951 0.21966112
v 1.41005421 1.37457848 0.07643884
v 1.49591935 1.91615582 -0.91423750
v 1.41049075 2.01038957 -0.01147506
v 1.44925678 0.36065114 -0.91429895
v 1.42012584 0.80097049 -0.01851524
v 1.53061938 -2.01407385 -0.84761554
v 1.49776208 -1.75440621 -0.91429895
v 1.47689819 -0.67901206 -0.91429895
v 1.45071065 -0.36077261 0.34081882
v 1.47055590 1.16115117 0.01978618
v 1.52199900 1.39822173 -0.91429895
v 1.40712297 2.00951171 -0.90362579
v 1.47920930 -0.25395021 -0.91429895
v 1.46001661 2.01429892 -0.30894241
v 1.49385786 -1.54823518 -0.91429895
v 1.55039012 0.05517370 -0.91429895
v 1.50154126 0.99290687 -0.91429895
v 1.49258125 1.93086028 0.02801088
v 1.50277483 -0.98450512 -0.91429895
v 1.47409272 -1.49966931 0.42848212
v 1.47380340 -1.34737635 0.12530375
v 1.48959184 -0.77833116 0.03876112
v 1.50876224 0.67821914 0.12357149
v 1.54434240 1.57987452 0.08702411
v 1.64423072 2.01427102 -0.09912482
v 1.58857286 -2.01429892 -0.31621194
v 1.49130070 -1.98902011 0.57291764
v 1.65939057 2.01429892 -0.64308417
v 1.61223209 -1.90955782 -0.91421711
v 1.49963069 -1.18069267 0.04507683
v 1.51515532 -0.49880558 0.36621454
v 1.54771888 1.02650738 0.06573063
v 1.58073556 1.17319679 0.14025328
v 1.55403662 -1.44346333 0.50710100
v 1.52948177 -1.39986014 0.30064461
v 1.64846265 -1.44543076 -0.91429895
v 1.55345356 -0.59684229 0.29485700
v 1.66643751 1.22368217 -0.91429895
v 1.71889460 1.71597767 0.10113710
v 1.53980196 2.00625515 -0.90679598
v 1.75832605 -2.01427865 -0.67608219
v 1.52423823 -0.99937761 0.02600873
v 1.55851400 -0.70141852 0.17717658
v 1.59367192 1.33546829 0.13061565
v 1.70723605 -2.01429033 0.52643931
v 1.57556534 -1.24934638 0.19720608
v 1.67849362 -0.00080836 0.33381405
v 1.63916004 2.00642276 0.03917166
v 1.58301377 -1.10520577 0.12601030
v 1.70271885 0.45534760 0.27455214
v 1.60870802 0.73030049 0.21159557
v 1.58305681 0.89054376 0.10931551
v 1.74642611 1.51469064 -0.91429895
v 1.65599000 2.01429892 -0.85995269
v 1.62338233 -2.01429892 -0.50370556
v 1.57500708 -1.38864040 0.46397111
v 1.63976419 -0.79142857 -0.91429895
v 1.68650424 -0.43864745 0.39659986
v 1.68344402 2.01429892 -0.36526388
v 1.78677952 -2.01429892 -0.02208785
v 1.67072093 -1.93720555 0.60328019
v 1.65505302 0.52457136 -0.91429895
v 1.64309728 -1.22793233 0.38046205
v 1.61047530 -0.90947694 0.16069947
v 1.62297630 -0.51859784 -0.91429895
v 1.61861670 -2.00711393 0.59503400
v 1.72829521 -2.01429892 0.28165609
v 1.65706909 -1.23005509 0.48520604
v 1.70843065 -1.23359084 -0.91429895
v 1.64718401 -0.69335526 0.41934133
v 1.69434440 1.99790740 -0.90980208
v 1.73807108 -2.00670528 -0.90885103
v 1.66786289 -1.04921329 0.31235874
v 1.68784797 -0.99690479 -0.91429895
v 1.66011107 -0.80840969 0.34996125
v 1.82764828 -0.34565118 -0.91429895
v 1.77984583 0.29666960 -0.91429895
v 1.76068532 0.78098041 0.23995951
v 1.76187885 0.04808372 -0.91429895
v 1.66344094 0.96335012 0.19181082
v 1.74469268 1.00724316 -0.91429895
v 1.75223672 -1.39466977 0.54296541
v 1.77983010 -0.13342863 -0.91429895
v 1.84281623 1.10705972 0.20990896
v 1.79382265 1.78272700 -0.91429895
v 1.73910666 -2.00753856 0.61838263
v 1.80814314 -1.77475476 -0.91429389
v 1.70451176 -1.07243109 0.48446849
v 1.79694593 0.78311282 -0.91429895
v 1.79458702 1.37954807 0.16261089
v 1.69547021 -0.83880341 0.44870296
v 1.82058775 -0.72668409 0.46239957
v 1.90887058 -2.01420689 -0.33702895
v 1.82112062 -0.57741016 -0.91429895
v 1.79054320 2.01297927 0.05010162
v 1.81543648 -1.91285825 0.62740254
v 1.88704133 -1.00565839 0.51404357
v 1.88525045 -0.86559987 -0.91426313
v 1.88412130 -0.14181022 0.39258137
v 1.86703348 -1.18563199 -0.91429895
v 1.81596708 0.54252273 -0.91429895
v 1.79566061 1.97511339 0.07928020
v 1.94691265 -1.44989705 -0.91397142
v 1.89016223 0.18371838 0.34812108
v 1.88099480 2.00710130 -0.90575081
v 1.89586186 1.95151973 -0.91409421
v 1.91174400 2.01420426 -0.75785100
v 1.90446663 1.15333676 -0.91426313
v 1.87914431 2.01429892 -0.09329980
v 1.93754268 -2.01425815 0.23566505
v 1.91719711 1.80786729 0.12592891
v 1.94873703 -1.69851255 0.62264282
v 1.94322979 1.40646172 0.18698020
v 1.89722645 -2.00527072 0.64362937
v 1.94332087 0.55268914 -0.91421711
v 1.91248989 2.00827336 0.08831252
v 1.93696487 2.01424789 -0.45273274
v 1.95513737 0.77039081 0.27800485
v 1.94427347 1.69459438 -0.91429895
v 1.94033802 -2.01407385 -0.80404508
v 1.93309200 -1.66917062 -0.91429895
v 1.96460342 -1.31373668 0.57182539
v 1.94496059 0.79088992 -0.91429895
v 1.93808925 1.42311454 -0.91429895
v 1.96251488 0.49496669 0.31810316
v 1.95620453 -2.01413536 0.52080953
v 1.97265148 -0.28926525 0.42970091
v 1.96282601 -0.06234160 -0.91421711
v 1.96245110 0.33307207 -0.91421711
v 1.98834264 0.97048861 0.25335798
v 1.99901116 -2.00679684 -0.70772147
v 2.00123191 -1.87495899 0.65070117
v 2.00382853 -0.59811783 -0.90383595
v 1.99719417 2.00783134 -0.09785987
v 1.98806727 -2.00656176 -0.90399760
v 1.98898637 -1.95720410 -0.91022336
v 1.98458791 -1.81353092 -0.91349542
v 2.00771594 -1.17757392 -0.90269613
v 1.98882282 -0.55138206 0.46389017
v 1.97813737 -0.38122115 0.44351146
v 1.99439585 0.18477625 -0.90929532
v 2.00226879 -2.00958419 0.07317372
v 2.00124693 -1.48194003 0.59684968
v 2.00418925 -1.17323661 0.55194592
v 2.00464559 -0.70132029 0.48061404
v 2.00632715 -1.99732137 0.64848846
v 2.00588107 -1.67780042 0.62188959
v 1.99956930 -1.58681941 0.61347455
v 2.00704551 -1.49601293 -0.90687525
v 1.99433208 -0.46652195 0.45728150
v 2.00751448 -0.17154415 0.40914300
v 2.00621963 0.03399664 0.37793693
v 2.00822139 0.26132792 0.34447673
v 2.00589705 0.47358084 0.32175311
v 2.00244236 0.64556640 0.29890454
v 2.00678825 0.77770942 -0.90716004
v 2.00463295 1.12290025 -0.90912712
v 2.00615287 1.30898809 -0.90437406
v 2.00665426 1.18322968 0.21562426
v 2.00900578 1.39153481 0.18404137
v 2.00680614 1.55832148 0.17137244
v 2.01122737 1.68003964 -0.89416873
v 2.00658321 1.88339996 -0.90415758
v 2.00516558 1.87153745 0.12716882
v 2.00738072 2.00560689 -0.76100552
v 2.00675488 2.00648475 -0.54512095
v 2.00356913 2.00707722 0.08995575
v 2.00793433 -2.00837374 -0.43967724
v 2.00795579 -2.00751662 -0.19805633
v 2.00763631 -2.00643682 0.41274229
v 2.00710821 -1.86450362 -0.90514839
v 2.01028633 -1.70508885 -0.90021682
v 2.01025343 -0.88127905 -0.89238924
v 2.00745893 -0.94437635 0.51934314
v 2.00671029 -0.80257106 -0.91022450
v 2.00152469 -0.28584722 -0.91206735
v 2.01087213 -0.41266102 0.44053718
v 2.00411749 -0.17590594 -0.91114593
v 2.00832272 -0.02798498 -0.90568709
v 2.00936508 0.08495465 -0.90280962
v 2.01072645 0.33069831 -0.89844340
v 2.00861979 0.53996164 -0.90371156
v 2.00986600 0.77237374 0.27729580
v 2.00949597 0.97123104 -0.90599877
v 2.00950146 1.52168679 -0.90162838
v 2.00327635 1.68813777 0.15376079
v 2.00823307 2.00170684 -0.89081669
v 2.00878811 2.00453782 -0.29056939
v 2.01417613 -1.95820355 -0.84546041
v 2.01425791 -1.90932345 -0.55461586
v 2.01402259 -1.94425797 -0.29583219
v 2.01410437 -1.95073891 0.01429896
v 2.01416588 -1.94318032 0.32772520
v 2.01424956 -1.85157299 0.58308876
v 2.01429892 -1.85161209 -0.78072941
v 2.01429892 -1.82611799 0.22387446
v 2.01429892 -1.77330232 -0.14041525
v 2.01429892 -1.74353695 -0.43836543
v 2.01153994 -1.79204226 -0.90147030
v 2.01429892 -1.65838718 0.41669333
v 2.01429892 -1.63557911 0.08309032
v 2.01413894 -1.66506338 -0.74316162
v 2.01425290 -1.60814071 0.58227664
v 2.01425791 -1.44358015 -0.74656403
v 2.01429892 -1.50978708 -0.22476082
v 2.01429892 -1.40636182 -0.41542456
v 2.01429892 -1.32271504 0.02219318
v 2.01429796 -1.28382182 0.49182501
v 2.01429892 -1.30511510 0.26425132
v 2.01429892 -1.23555851 -0.51725298
v 2.01429892 -1.20826054 -0.17138308
v 2.01429892 -1.19490838 -0.78230667
v 2.01429892 -1.04631591 -0.00309799
v 2.01429892 -0.91510469 -0.70030355
v 2.01429653 -0.95358413 0.38341424
v 2.01429892 -0.90380603 -0.14511587
v 2.01429892 -0.98078835 -0.41821995
v 2.01429892 -0.91302770 0.16926304
v 2.01424766 -0.97871131 -0.85654825
v 2.01429892 -0.73193693 -0.42506787
v 2.01429892 -0.70409244 0.08566707
v 2.01429892 -0.67148489 0.29486778
v 2.01429892 -0.56834471 -0.78077626
v 2.01429892 -0.65564960 -0.12543888
v 2.01429892 -0.52844417 -0.29311490
v 2.01429892 -0.46290883 0.25492820
v 2.01429892 -0.43232360 -0.04596572
v 2.01429892 -0.42962974 -0.48260742
v 2.01320863 -0.39303991 -0.89408302
v 2.01429892 -0.30196360 -0.72433770
v 2.01429892 -0.19944805 0.01760187
v 2.01429892 -0.18654087 -0.24812722
v 2.01429892 -0.18169972 -0.45921364
v 2.01429892 -0.18814941 0.30414411
v 2.01364374 -0.30783546 -0.89093614
v 2.01429892 -0.23393747 -0.82484645
v 2.01114583 -0.26385897 -0.90411747
v 2.01114583 -0.23187608 -0.90411747
v 2.01301932 -0.17790490 -0.89423144
v 2.01429892 -0.02340543 -0.71856725
v 2.01397133 -0.12393367 -0.87494469
v 2.01429892 -0.02420574 0.13857630
v 2.01429892 0.13236678 -0.02648395
v 2.01429892 0.03120214 -0.33592018
v 2.01429868 0.14510995 0.27965716
v 2.01429892 0.19543463 -0.64741778
v 2.01429892 0.18615049 -0.84789670
v 2.01429892 0.26912183 -0.45245948
v 2.01429892 0.38614923 -0.17825441
v 2.01429033 0.43515432 0.18452831
v 2.01429892 0.44701123 -0.74126607
v 2.01429892 0.54335040 -0.43853718
v 2.01429892 0.66964227 -0.18058127
v 2.01429892 0.60142088 0.07629707
v 2.01427317 0.71861607 -0.75161213
v 2.01397133 0.63078803 -0.86320096
v 2.01421022 0.71012062 0.24689344
v 2.01429892 0.72620577 -0.54409027
v 2.01429892 0.80247742 -0.35938421
v 2.01429892 0.81595463 -0.05624148
v 2.01429892 0.93774110 0.08240318
v 2.01429892 0.92132014 -0.65456241
v 2.01429892 1.09009719 -0.56372035
v 2.01419640 1.01436424 -0.82815719
v 2.01429892 1.10387897 -0.22262132
v 2.01428604 0.99496835 0.20397881
v 2.01429892 1.20936942 0.00870819
v 2.01424360 1.31810045 -0.82386410
v 2.01429892 1.31354809 -0.53081608
v 2.01429892 1.37167335 -0.28084022
v 2.01429892 1.40543652 0.02451225
v 2.01429892 1.48689294 -0.61163998
v 2.01429892 1.57418227 -0.21446162
v 2.01417589 1.65029001 0.11102070
v 2.01429892 1.68538857 -0.67345858
v 2.01429892 1.72682738 -0.42780858
v 2.01429892 1.78220391 -0.15745303
v 2.01425791 1.86188006 -0.81225944
v 2.01419640 1.91370416 -0.58438903
v 2.01413512 1.93612933 -0.22301954
v 2.01422262 1.91294646 0.07055017
f 266 220 200
f 855 867 889
f 755 749 738
f 974 936 1023
f 432 379 444
f 886 859 787
f 170 161 182
f 284 235 290
f 67 68 61
f 872 861 870
f 120 98 75
f 858 824 863
f 936 855 889
f 873 880 925
f 794 776 823
f 705 662 677
f 502 449 486
f 858 863 883
f 495 473 490
f 318 289 273
f 709 653 674
f 406 368 333
f 433 357 440
f 272 215 277
f 586 603 540
f 1062 1060 1067
f 704 670 716
f 561 542 560
f 793 699 745
f 1048 978 979
f 1074 1071 1070
f 526 467 462
f 1034 1032 973
f 263 240 239
f 107 47 89
f 960 916 882
f 57 53 51
f 1020 930 1026
f 961 908 983
f 20 18 15
f 666 678 593
f 540 508 507
f 456 400 435
f 702 765 789
f 94 109 65
f 1044 1037 977
f 789 765 819
f 1006 1004 1015
f 558 518 519
f 749 690 678
f 363 296 336
f 734 701 696
f 100 22 102
f 505 487 463
f 348 307 361
f 166 199 205
f 824 783 842
f 552 514 550
f 253 238 213
f 568 484 569
f 938 876 874
f 512 541 567
f 604 640 673
f 322 346 305
f 259 215 272
f 760 724 712
f 301 254 284
f 357 320 332
f 399 335 387
f 818 784 780
f 669 698 606
f 348 361 384
f 224 184 171
f 544 523 573
f 229 202 208
f 332 252 304
f 678 624 593
f 15 18 14
f 542 478 517
f 595 562 528
f 587 528 563
f 652 580 634
f 168 196 234
f 422 380 437
f 115 98 120
f 1037 976 977
f 707 660 651
f 493 503 545
f 203 198 239
f 715 663 659
f 583 552 580
f 225 195 256
f 948 924 974
f 452 415 406
f 682 633 657
f 1078 1074 1077
f 963 1077 1076
f 589 546 526
f 711 682 718
f 54 55 50
f 83 29 26
f 540 590 508
f 962 984 904
f 836 772 821
f 204 169 209
f 964 906 913
f 724 676 712
f 800 726 756
f 60 57 55
f 1002 995 1003
f 383 321 316
f 651 622 615
f 160 147 124
f 631 585 571
f 247 230 275
f 859 769 787
f 890 838 928
f 742 705 736
f 565 515 522
f 629 603 586
f 547 498 544
f 661 651 615
f 398 314 370
f 844 771 855
f 607 504 581
f 164 163 191
f 668 605 633
f 446 403 434
f 59 54 56
f 963 904 914
f 121 127 162
f 711 751 802
f 714 731 715
f 209 169 181
f 789 819 840
f 636 599 570
f 840 819 861
f 893 858 883
f 954 905 955
f 868 882 799
f 510 528 450
f 419 386 339
f 949 1031 1042
f 1054 1047 1051
f 1005 1000 997
f 671 596 647
f 286 233 225
f 72 111 74
f 534 537 470
f 590 540 603
f 493 419 459
f 790 759 802
f 28 32 27
f 344 294 260
f 624 618 530
f 822 811 726
f 894 879 919
f 107 52 47
f 742 782 798
f 896 924 948
f 950 949 1042
f 567 541 596
f 110 95 73
f 501 472 500
f 681 692 645
f 469 409 438
f 265 209 254
f 527 477 559
f 354 324 392
f 159 241 187
f 64 61 60
f 683 626 654
f 531 530 480
f 618 588 530
f 836 821 887
f 656 596 671
f 834 872 867
f 286 285 315
f 677 620 664
f 563 510 520
f 1051 1050 1057
f 923 842 907
f 465 423 447
f 834 766 840
f 77 9 76
f 866 833 795
f 597 656 667
f 309 279 267
f 852 762 838
f 867 872 888
f 312 263 269
f 758 708 673
f 799 779 761
f 726 713 645
f 793 745 824
f 1029 1025 1030
f 271 246 282
f 672 640 635
f 975 1035 973
f 454 407 395
f 829 802 849
f 263 239 269
f 826 739 804
f 546 525 467
f 427 401 403
f 679 666 584
f 340 383 316
f 449 475 412
f 41 38 34
f 102 22 25
f 350 341 389
f 336 299 295
f 485 457 498
f 533 532 466
f 206 177 218
f 480 431 421
f 517 505 542
f 768 777 740
f 1024 1022 1029
f 307 301 325
f 51 53 48
f 665 613 588
f 166 162 199
f 419 413 459
f 63 66 60
f 660 643 622
f 335 291 278
f 828 834 867
f 692 726 645
f 335 320 355
f 1020 970 930
f 916 850 882
f 567 596 572
f 474 437 473
f 717 740 661
f 349 384 410
f 453 428 469
f 1070 1067 1069
f 270 222 219
f 166 140 162
f 552 550 580
f 528 519 488
f 237 159 184
f 33 36 28
f 958 908 910
f 258 257 296
f 622 643 569
f 101 21 80
f 526 462 493
f 971 941 1005
f 935 900 897
f 706 719 773
f 612 601 614
f 901 847 844
f 170 193 160
f 455 390 407
f 391 369 289
f 1065 1061 954
f 172 158 136
f 1068 1064 1067
f 329 352 372
f 528 488 450
f 536 482 468
f 462 419 493
f 438 383 422
f 958 910 957
f 644 574 610
f 561 560 619
f 700 655 649
f 450 464 402
f 529 570 534
f 1037 1038 976
f 524 471 458
f 947 855 936
f 209 181 254
f 45 42 39
f 721 693 724
f 795 833 757
f 109 113 108
f 604 573 598
f 831 788 793
f 773 719 764
f 330 360 322
f 175 146 149
f 349 348 384
f 185 133 188
f 896 844 855
f 67 61 64
f 771 806 855
f 521 454 499
f 476 480 421
f 133 142 188
f 236 218 276
f 562 558 519
f 444 378 436
f 351 353 374
f 433 414 357
f 235 214 240
f 783 730 792
f 924 937 974
f 827 785 784
f 711 718 751
f 727 671 704
f 604 598 640
f 330 322 264
f 555 523 543
f 736 689 748
f 879 793 909
f 949 896 948
f 932 917 869
f 138 115 120
f 792 794 857
f 483 443 467
f 315 285 256
f 900 833 866
f 940 879 909
f 1050 1049 1056
f 434 399 433
f 782 790 807
f 260 180 192
f 486 431 480
f 673 640 702
f 371 304 379
f 536 539 566
f 142 133 97
f 1072 1069 1065
f 961 983 1071
f 1008 1003 1007
f 788 763 793
f 695 739 669
f 296 257 299
f 259 224 215
f 859 874 801
f 384 372 410
f 1033 1034 1035
f 354 315 324
f 260 294 180
f 796 785 839
f 512 479 511
f 975 873 925
f 891 854 862
f 295 299 268
f 600 551 583
f 62 59 56
f 104 86 87
f 315 256 324
f 526 549 577
f 86 104 35
f 617 538 620
f 686 623 644
f 6 5 2
f 343 308 337
f 641 637 680
f 544 489 523
f 634 580 605
f 696 630 643
f 848 877 849
f 83 26 103
f 831 793 879
f 77 12 9
f 385 341 343
f 994 988 995
f 85 82 30
f 805 774 734
f 621 630 568
f 686 644 658
f 949 901 896
f 989 939 966
f 678 618 624
f 1011 1007 1009
f 972 970 895
f 507 482 536
f 123 83 103
f 942 894 971
f 475 458 412
f 126 139 100
f 80 17 99
f 633 616 657
f 423 404 346
f 815 772 836
f 396 390 425
f 591 544 573
f 685 688 650
f 545 501 575
f 1025 1022 1017
f 342 412 373
f 24 20 19
f 931 985 914
f 314 318 237
f 914 825 856
f 595 650 602
f 472 455 500
f 927 875 915
f 1060 1055 1059
f 927 1063 956
f 18 22 16
f 732 804 695
f 304 303 378
f 776 694 762
f 665 703 613
f 72 71 114
f 970 972 930
f 141 106 132
f 917 838 869
f 503 472 501
f 623 675 636
f 1030 1037 1043
f 506 476 442
f 742 736 782
f 553 557 502
f 940 945 1000
f 966 890 965
f 950 901 949
f 811 770 726
f 358 311 367
f 310 281 238
f 62 118 128
f 409 394 359
f 737 691 772
f 167 137 183
f 38 39 33
f 194 210 178
f 114 69 93
f 441 427 482
f 1062 1057 1056
f 240 203 239
f 808 778 753
f 845 822 800
f 51 44 50
f 123 103 164
f 905 920 886
f 759 712 711
f 678 690 618
f 664 652 693
f 128 118 143
f 373 377 302
f 981 920 905
f 378 354 436
f 346 404 364
f 387 366 357
f 579 615 576
f 74 70 67
f 494 444 436
f 620 583 664
f 625 582 627
f 778 725 703
f 939 857 890
f 127 157 169
f 833 812 757
f 858 793 824
f 145 160 124
f 842 864 907
f 794 722 729
f 862 781 810
f 582 575 617
f 470 417 424
f 1017 1014 1011
f 991 967 990
f 849 802 820
f 719 656 671
f 399 387 414
f 132 106 91
f 769 717 675
f 962 1075 984
f 309 338 279
f 151 132 92
f 326 313 251
f 418 385 405
f 125 104 87
f 33 28 31
f 1048 1045 1043
f 1059 1055 1052
f 793 858 893
f 393 363 358
f 245 199 204
f 135 128 148
f 705 689 736
f 782 736 748
f 375 342 313
f 286 225 285
f 1024 1019 1018
f 891 895 854
f 523 497 543
f 997 993 998
f 755 809 749
f 335 366 387
f 829 790 802
f 339 374 413
f 898 874 859
f 714 659 699
f 234 227 262
f 850 835 808
f 733 639 701
f 19 20 15
f 318 273 237
f 283 223 220
f 946 918 900
f 728 779 753
f 815 800 737
f 335 278 320
f 381 424 365
f 880 810 813
f 66 67 64
f 504 463 440
f 937 924 855
f 957 1068 1071
f 274 249 234
f 341 308 343
f 879 865 831
f 420 408 462
f 924 896 855
f 157 123 164
f 9 8 3
f 911 842 923
f 215 183 232
f 372 347 394
f 750 704 716
f 283 297 244
f 193 147 160
f 320 252 332
f 738 749 678
f 300 263 312
f 537 451 470
f 847 922 952
f 301 265 254
f 1037 1033 1038
f 841 830 881
f 654 626 594
f 906 856 822
f 973 930 873
f 823 776 762
f 456 426 400
f 61 58 60
f 612 629 586
f 535 565 594
f 625 577 582
f 370 314 293
f 1062 1056 1060
f 889 888 885
f 303 286 319
f 624 530 564
f 429 389 418
f 1023 1019 1024
f 657 616 653
f 171 184 111
f 525 506 483
f 344 392 324
f 169 157 181
f 237 273 159
f 227 212 189
f 719 727 764
f 353 288 323
f 191 153 190
f 579 532 533
f 218 177 217
f 916 921 850
f 113 151 92
f 791 755 679
f 941 919 940
f 1002 994 995
f 857 823 890
f 702 672 706
f 643 621 569
f 810 781 735
f 592 611 546
f 955 905 921
f 500 492 538
f 490 473 441
f 692 625 691
f 462 408 419
f 928 917 932
f 816 795 733
f 74 67 71
f 676 634 668
f 162 127 169
f 423 450 404
f 808 753 779
f 809 799 749
f 593 624 564
f 172 141 132
f 228 229 258
f 222 193 170
f 674 673 708
f 342 373 302
f 892 845 899
f 172 136 141
f 646 608 687
f 21 19 17
f 327 260 281
f 847 797 767
f 346 310 305
f 942 889 894
f 720 709 708
f 964 961 1078
f 41 34 84
f 266 200 221
f 575 501 538
f 294 256 180
f 33 39 36
f 491 474 495
f 382 318 314
f 156 97 78
f 8 6 3
f 983 908 958
f 197 207 139
f 109 61 65
f 210 186 178
f 200 220 172
f 240 214 203
f 785 727 750
f 1012 1005 1006
f 252 189 226
f 158 182 125
f 534 556 537
f 803 775 869
f 183 135 148
f 749 799 690
f 1025 1017 1020
f 471 430 416
f 218 247 275
f 337 271 282
f 843 818 832
f 224 237 184
f 233 185 188
f 956 881 927
f 937 947 974
f 848 820 797
f 748 689 721
f 1068 957 1064
f 579 576 532
f 564 530 531
f 117 111 72
f 242 253 213
f 959 982 921
f 495 474 473
f 258 229 257
f 830 807 829
f 679 738 666
f 514 485 498
f 451 406 411
f 353 323 334
f 881 830 877
f 889 867 888
f 352 300 347
f 835 814 778
f 685 595 639
f 1023 1024 1028
f 367 311 335
f 248 236 287
f 95 70 73
f 413 396 425
f 395 429 448
f 516 522 481
f 193 213 147
f 673 702 766
f 234 196 227
f 358 345 311
f 1059 1061 1060
f 805 816 774
f 523 453 497
f 425 455 472
f 119 154 130
f 469 428 409
f 239 198 228
f 889 885 894
f 81 21 101
f 791 809 755
f 204 209 265
f 52 49 47
f 442 391 382
f 813 810 777
f 542 505 560
f 557 610 574
f 454 395 448
f 91 106 53
f 530 588 548
f 855 828 867
f 819 765 796
f 238 207 197
f 566 539 561
f 1042 1031 1039
f 918 934 884
f 885 865 879
f 426 445 344
f 841 798 830
f 850 905 835
f 645 592 628
f 266 283 220
f 211 148 236
f 331 275 308
f 910 836 887
f 478 434 460
f 743 683 654
f 264 242 193
f 92 132 91
f 931 1078 1077
f 163 164 103
f 333 368 306
f 328 327 281
f 140 112 121
f 139 152 79
f 745 744 824
f 226 185 233
f 401 358 367
f 659 614 609
f 727 704 750
f 298 259 293
f 191 163 153
f 839 827 846
f 953 979 912
f 375 313 326
f 204 162 169
f 825 851 791
f 904 902 851
f 913 899 908
f 198 191 190
f 279 231 267
f 940 1000 1005
f 908 836 910
f 55 51 50
f 563 528 510
f 1033 1032 1034
f 235 263 300
f 377 309 302
f 658 644 610
f 526 546 467
f 632 579 599
f 138 144 115
f 454 448 499
f 54 50 49
f 189 138 226
f 517 478 487
f 98 2 75
f 641 607 581
f 484 447 452
f 180 195 156
f 106 88 48
f 905 886 878
f 854 816 805
f 823 762 852
f 412 377 373
f 536 468 539
f 838 762 803
f 1001 946 935
f 667 719 706
f 347 300 312
f 275 230 271
f 535 515 565
f 894 885 879
f 688 695 631
f 57 58 53
f 398 420 314
f 997 991 990
f 817 780 786
f 17 12 99
f 12 8 9
f 811 825 770
f 833 804 812
f 943 911 923
f 635 598 555
f 333 306 297
f 744 730 783
f 1075 960 984
f 69 66 93
f 929 893 911
f 351 288 353
f 441 401 427
f 168 131 116
f 652 634 676
f 515 481 522
f 614 566 609
f 179 126 147
f 213 197 179
f 928 838 917
f 712 676 668
f 585 606 522
f 1042 1039 1040
f 17 13 12
f 958 957 1071
f 1032 1026 973
f 72 74 71
f 993 989 994
f 719 671 727
f 95 94 68
f 654 594 606
f 442 439 391
f 854 895 871
f 236 148 206
f 545 503 501
f 820 802 751
f 1073 1069 1072
f 778 747 725
f 296 299 336
f 478 446 434
f 865 853 831
f 345 336 295
f 541 509 508
f 1033 1035 1036
f 634 605 668
f 555 597 635
f 990 939 989
f 155 187 174
f 870 843 860
f 51 48 44
f 1021 1013 1017
f 927 881 875
f 225 142 195
f 242 213 193
f 900 884 833
f 799 882 850
f 907 857 939
f 1012 1006 1015
f 936 889 942
f 124 82 85
f 246 175 205
f 1056 1049 1055
f 831 817 788
f 605 547 591
f 216 164 214
f 288 248 323
f 892 822 845
f 687 648 730
f 618 665 588
f 568 563 520
f 862 854 805
f 695 669 631
f 918 884 900
f 663 642 614
f 1038 1036 975
f 111 155 110
f 143 150 177
f 982 955 921
f 406 415 368
f 731 714 763
f 575 538 617
f 959 921 916
f 602 571 558
f 663 649 642
f 135 93 128
f 691 627 662
f 471 534 470
f 421 431 397
f 206 143 177
f 944 991 1000
f 948 974 1031
f 298 314 237
f 48 88 40
f 535 436 515
f 690 728 665
f 754 798 841
f 208 168 249
f 888 872 885
f 445 481 392
f 278 262 320
f 899 836 908
f 192 134 152
f 980 915 952
f 950 1042 1047
f 613 557 553
f 15 14 11
f 27 32 30
f 405 349 410
f 70 68 67
f 619 608 646
f 543 497 513
f 341 385 389
f 701 639 630
f 310 328 281
f 878 886 787
f 732 695 688
f 731 700 715
f 978 938 926
f 956 1063 1064
f 215 171 167
f 431 449 375
f 943 923 967
f 533 466 451
f 662 617 677
f 648 608 607
f 250 268 257
f 798 782 807
f 463 433 440
f 259 272 293
f 274 268 249
f 89 46 43
f 173 172 132
f 317 350 376
f 340 296 363
f 361 307 325
f 647 590 638
f 220 158 172
f 1058 1057 1062
f 403 399 434
f 1030 1025 1027
f 350 317 331
f 207 260 192
f 826 775 739
f 278 234 262
f 581 504 527
f 476 439 442
f 971 894 941
f 1013 1014 1017
f 934 933 884
f 141 136 106
f 411 406 333
f 150 118 107
f 524 529 471
f 412 416 377
f 625 589 577
f 289 369 326
f 112 43 41
f 790 748 760
f 37 35 32
f 1018 1015 1013
f 1006 997 998
f 1000 991 997
f 320 262 252
f 687 608 648
f 799 761 690
f 550 498 547
f 714 715 659
f 217 175 230
f 726 770 713
f 679 584 611
f 453 410 428
f 812 804 732
f 663 614 659
f 283 244 223
f 399 414 433
f 577 493 545
f 120 75 133
f 568 520 484
f 133 75 97
f 178 151 113
f 601 612 586
f 130 113 109
f 507 508 490
f 279 266 221
f 979 978 912
f 5 10 7
f 276 275 317
f 108 92 58
f 96 73 74
f 529 534 471
f 238 281 207
f 500 455 461
f 847 767 844
f 250 229 208
f 792 730 722
f 763 714 699
f 521 499 514
f 447 423 388
f 871 795 816
f 123 129 83
f 87 86 40
f 1077 1074 1073
f 28 27 24
f 1023 942 1019
f 173 132 151
f 873 891 862
f 981 1052 953
f 961 1071 1078
f 513 496 512
f 440 357 371
f 261 228 258
f 740 777 707
f 801 813 768
f 1073 1072 1076
f 636 661 632
f 997 990 993
f 893 883 911
f 211 183 148
f 602 631 571
f 574 570 529
f 124 147 102
f 290 235 300
f 19 15 11
f 1031 1023 1028
f 721 724 760
f 79 134 78
f 492 454 521
f 897 900 866
f 519 518 456
f 372 394 428
f 301 284 290
f 255 231 210
f 548 553 502
f 201 194 154
f 294 324 256
f 640 598 635
f 747 752 697
f 116 77 76
f 374 396 413
f 492 500 461
f 778 814 747
f 246 245 282
f 756 726 692
f 370 293 339
f 321 269 316
f 616 573 604
f 416 430 381
f 502 475 449
f 264 193 222
f 43 39 38
f 161 104 125
f 1004 1002 1008
f 1033 1027 1032
f 328 400 327
f 103 26 81
f 177 150 176
f 538 492 551
f 813 777 768
f 1003 995 999
f 802 759 711
f 829 849 877
f 675 717 636
f 1058 1051 1057
f 983 958 1071
f 874 813 801
f 661 707 651
f 401 393 358
f 273 289 241
f 635 667 706
f 362 381 338
f 555 543 597
f 353 334 390
f 942 971 1012
f 226 138 185
f 970 935 895
f 764 727 785
f 712 668 682
f 358 363 345
f 207 152 139
f 753 703 728
f 306 270 244
f 347 312 359
f 984 902 904
f 974 1023 1031
f 467 420 462
f 766 702 789
f 100 79 16
f 402 356 364
f 199 162 204
f 909 945 940
f 942 1012 1019
f 302 309 267
f 964 913 961
f 395 389 429
f 157 129 123
f 96 110 73
f 913 892 899
f 1049 1046 1045
f 901 844 896
f 385 343 405
f 167 114 137
f 338 365 297
f 397 326 369
f 310 238 305
f 753 778 703
f 124 102 82
f 570 556 534
f 755 738 679
f 14 16 10
f 884 869 826
f 966 939 890
f 807 790 829
f 571 585 516
f 418 405 457
f 843 846 827
f 174 154 119
f 988 966 965
f 109 108 61
f 977 925 938
f 859 801 769
f 1003 999 1001
f 38 33 34
f 642 629 612
f 468 478 539
f 37 40 35
f 255 210 194
f 322 242 264
f 741 710 709
f 766 834 828
f 13 8 12
f 763 699 793
f 235 240 263
f 78 97 7
f 722 648 641
f 111 96 74
f 620 600 583
f 1029 1030 1041
f 357 332 371
f 666 593 584
f 716 670 655
f 80 21 17
f 691 754 772
f 60 55 63
f 963 962 904
f 339 351 374
f 161 145 104
f 608 560 504
f 747 697 686
f 1016 1011 1009
f 713 770 679
f 915 847 952
f 90 56 52
f 196 165 212
f 244 270 219
f 628 589 625
f 873 862 810
f 989 966 988
f 605 580 547
f 115 76 98
f 581 527 578
f 58 91 53
f 590 603 638
f 121 41 127
f 461 407 454
f 439 421 369
f 554 507 536
f 572 596 656
f 421 397 369
f 343 349 405
f 967 907 939
f 119 130 109
f 699 684 745
f 1075 959 960
f 1001 999 946
f 66 64 60
f 1010 1008 1013
f 1072 1065 982
f 337 307 348
f 465 450 423
f 969 934 918
f 835 878 814
f 779 728 761
f 669 585 631
f 551 521 552
f 76 4 98
f 883 863 842
f 951 1047 1054
f 629 655 638
f 848 797 847
f 838 803 869
f 657 653 718
f 23 25 22
f 382 391 318
f 344 324 294
f 47 49 45
f 685 650 595
f 13 19 11
f 262 227 252
f 458 471 416
f 582 545 575
f 471 424 430
f 704 647 670
f 644 623 574
f 82 25 30
f 5 7 1
f 271 230 246
f 1078 1071 1074
f 428 394 409
f 313 280 251
f 458 416 412
f 1046 1041 1045
f 761 728 690
f 938 925 876
f 880 873 810
f 103 81 101
f 89 43 112
f 232 211 248
f 1043 1037 1044
f 633 591 616
f 741 709 720
f 697 675 623
f 440 477 527
f 658 610 613
f 830 829 877
f 510 450 465
f 441 393 401
f 485 418 457
f 212 165 189
f 845 815 836
f 374 353 396
f 85 30 35
f 740 707 661
f 639 595 587
f 821 841 887
f 233 188 225
f 44 48 40
f 787 769 752
f 990 967 939
f 467 443 420
f 339 277 351
f 725 747 686
f 642 649 629
f 988 965 987
f 776 729 694
f 410 372 428
f 496 479 512
f 457 453 489
f 952 951 1054
f 854 871 816
f 147 126 102
f 198 190 202
f 735 696 660
f 408 398 386
f 1040 1039 1028
f 944 909 929
f 338 266 279
f 327 344 260
f 561 478 542
f 650 631 602
f 317 275 331
f 329 301 290
f 363 336 345
f 530 486 480
f 507 490 482
f 497 453 469
f 549 493 577
f 466 452 406
f 599 579 556
f 842 783 792
f 774 733 734
f 995 992 999
f 137 93 135
f 1022 1021 1017
f 323 287 276
f 953 1053 979
f 185 120 133
f 118 90 107
f 699 609 684
f 832 780 817
f 346 364 310
f 1068 1067 1070
f 851 837 791
f 630 639 587
f 871 866 795
f 574 529 524
f 436 354 392
f 1043 1041 1030
f 9 3 4
f 117 72 114
f 860 832 853
f 784 746 780
f 511 479 491
f 420 382 314
f 174 201 154
f 796 773 764
f 37 32 36
f 609 619 684
f 986 932 933
f 591 573 616
f 408 420 398
f 922 847 901
f 232 183 211
f 709 674 708
f 388 346 322
f 186 173 151
f 409 359 383
f 482 427 468
f 435 356 402
f 257 268 299
f 395 350 389
f 921 905 850
f 641 581 637
f 370 339 386
f 1004 998 1002
f 41 84 127
f 528 562 519
f 744 687 730
f 684 687 745
f 251 280 201
f 1015 1004 1010
f 694 680 637
f 752 675 697
f 356 328 310
f 231 186 210
f 913 908 961
f 213 179 147
f 293 272 339
f 935 897 895
f 777 810 735
f 400 426 344
f 677 617 620
f 626 535 594
f 46 39 43
f 175 149 166
f 824 744 783
f 214 191 203
f 1015 1010 1013
f 945 944 1000
f 228 202 229
f 207 192 152
f 259 298 237
f 415 360 368
f 848 849 820
f 570 599 556
f 850 808 779
f 476 421 439
f 1027 1020 1026
f 1069 1067 1066
f 752 769 675
f 303 226 286
f 1016 935 970
f 637 581 578
f 468 427 446
f 1065 954 955
f 1061 1059 1052
f 330 264 270
f 424 417 365
f 155 119 110
f 1064 1063 1058
f 996 968 934
f 413 472 459
f 784 785 750
f 670 638 655
f 280 255 201
f 735 781 696
f 803 743 775
f 277 215 232
f 770 825 791
f 23 22 18
f 694 626 683
f 987 928 992
f 960 959 916
f 660 696 643
f 241 174 187
f 101 80 131
f 467 525 483
f 952 922 951
f 215 167 183
f 861 819 839
f 490 441 482
f 1049 1048 1052
f 9 4 76
f 136 88 106
f 416 381 377
f 929 911 943
f 1048 1043 1044
f 351 277 288
f 84 29 83
f 999 996 969
f 334 317 376
f 365 333 297
f 104 85 35
f 116 76 144
f 126 100 102
f 913 906 892
f 758 673 766
f 239 228 261
f 538 600 620
f 254 181 243
f 723 757 688
f 422 340 380
f 576 569 532
f 733 757 723
f 502 524 475
f 88 105 40
f 951 922 950
f 573 523 555
f 139 79 100
f 1074 1070 1073
f 973 1026 930
f 579 533 556
f 1025 1020 1027
f 335 355 366
f 677 664 689
f 786 780 731
f 931 914 906
f 182 161 125
f 757 812 732
f 839 785 827
f 876 880 813
f 506 564 531
f 716 655 700
f 93 66 63
f 992 933 968
f 376 350 395
f 665 728 703
f 907 864 857
f 434 433 460
f 460 433 463
f 609 566 561
f 92 91 58
f 483 506 442
f 106 48 53
f 176 146 175
f 1049 1045 1048
f 325 301 329
f 690 665 618
f 280 302 255
f 721 664 693
f 304 252 226
f 396 353 390
f 153 103 101
f 707 735 660
f 1040 1028 1029
f 27 25 23
f 82 102 25
f 754 742 798
f 174 251 201
f 1050 1046 1049
f 506 531 476
f 383 359 321
f 236 206 218
f 995 988 987
f 24 23 20
f 288 232 248
f 165 138 189
f 478 460 487
f 104 124 85
f 269 239 261
f 1024 1018 1021
f 669 606 585
f 595 602 562
f 667 656 719
f 243 235 284
f 1047 1042 1040
f 70 95 68
f 762 683 743
f 739 698 669
f 270 264 222
f 194 178 130
f 936 942 1023
f 589 526 577
f 941 894 919
f 758 766 828
f 830 798 807
f 671 647 704
f 218 217 247
f 662 742 754
f 730 648 722
f 509 495 508
f 1054 1051 1058
f 771 758 806
f 379 378 444
f 765 773 796
f 956 910 881
f 786 731 763
f 306 330 270
f 1038 975 976
f 158 125 136
f 587 595 528
f 902 868 851
f 437 393 441
f 520 465 484
f 313 342 280
f 760 712 759
f 255 194 201
f 720 758 771
f 11 14 5
f 639 723 685
f 107 89 122
f 155 174 119
f 937 855 947
f 885 870 865
f 345 295 311
f 419 339 413
f 340 292 296
f 733 723 639
f 429 418 485
f 980 1054 1058
f 842 792 864
f 951 950 1047
f 173 200 172
f 349 337 348
f 274 295 268
f 702 706 765
f 1051 1047 1046
f 794 729 776
f 407 334 376
f 622 569 576
f 526 493 549
f 509 491 495
f 443 442 382
f 94 65 68
f 590 596 541
f 461 454 492
f 580 550 547
f 729 680 694
f 985 1077 963
f 1021 1018 1013
f 487 460 463
f 684 646 687
f 470 451 417
f 284 254 243
f 84 83 129
f 334 276 317
f 1040 1029 1041
f 494 436 535
f 257 229 250
f 170 145 161
f 628 592 589
f 751 710 741
f 492 521 551
f 171 111 117
f 837 799 809
f 984 903 902
f 79 10 16
f 615 622 576
f 145 124 104
f 857 794 823
f 390 334 407
f 319 315 354
f 757 732 688
f 623 636 570
f 451 466 406
f 63 55 59
f 772 754 821
f 822 856 811
f 1005 997 1006
f 745 687 744
f 497 496 513
f 1073 1070 1069
f 588 613 553
f 78 7 10
f 146 122 149
f 501 500 538
f 767 771 844
f 248 287 323
f 1055 1049 1052
f 149 112 140
f 417 411 365
f 524 458 475
f 244 219 182
f 496 438 479
f 912 898 886
f 42 37 39
f 864 792 857
f 710 718 653
f 559 494 535
f 992 986 933
f 929 943 991
f 337 282 307
f 543 572 597
f 691 662 754
f 116 144 165
f 93 62 128
f 1056 1055 1060
f 660 622 651
f 148 143 206
f 276 218 275
f 377 362 309
f 819 796 839
f 559 477 494
f 904 851 825
f 601 554 566
f 220 223 158
f 425 390 455
f 619 560 608
f 379 304 378
f 980 1058 1063
f 105 87 40
f 530 548 486
f 550 514 498
f 68 65 61
f 722 680 729
f 241 251 174
f 435 400 356
f 80 99 131
f 768 740 717
f 361 325 329
f 688 631 650
f 645 679 611
f 306 368 330
f 702 640 672
f 1071 1068 1070
f 797 741 767
f 511 509 541
f 551 552 583
f 1052 1053 953
f 890 823 852
f 452 447 415
f 176 175 217
f 827 784 818
f 878 787 814
f 352 290 300
f 89 47 46
f 933 869 884
f 636 632 599
f 221 200 173
f 165 144 138
f 1053 1048 979
f 945 909 944
f 34 31 29
f 1047 1040 1046
f 338 297 266
f 521 514 552
f 285 225 256
f 311 295 274
f 1016 1009 935
f 596 590 647
f 780 746 731
f 219 222 170
f 311 291 335
f 800 756 737
f 431 375 397
f 203 191 198
f 134 156 78
f 871 897 866
f 806 828 855
f 999 992 996
f 1061 981 954
f 398 370 386
f 1067 1064 1062
f 55 57 51
f 112 122 89
f 343 337 349
f 1008 1002 1003
f 245 205 199
f 375 412 342
f 769 768 717
f 1003 1001 1007
f 925 880 876
f 164 191 214
f 223 182 158
f 403 401 367
f 968 933 934
f 293 314 298
f 17 19 13
f 148 128 143
f 503 459 472
f 42 40 37
f 184 159 111
f 1066 1060 1065
f 432 371 379
f 960 882 903
f 629 638 603
f 62 63 59
f 287 236 276
f 223 244 182
f 273 241 159
f 578 559 626
f 554 586 540
f 1051 1046 1050
f 224 171 215
f 709 710 653
f 654 606 698
f 806 758 828
f 414 387 357
f 1067 1060 1066
f 962 1076 1075
f 1046 1040 1041
f 903 882 868
f 411 333 365
f 380 340 363
f 181 157 164
f 840 861 872
f 738 678 666
f 743 698 775
f 987 965 928
f 18 16 14
f 62 56 90
f 720 708 758
f 796 764 785
f 339 272 277
f 202 190 208
f 594 565 606
f 186 231 221
f 253 305 238
f 751 718 710
f 1044 977 938
f 554 536 566
f 940 919 879
f 614 601 566
f 649 655 629
f 269 261 292
f 868 837 851
f 1028 1024 1029
f 912 874 898
f 119 109 94
f 277 232 288
f 26 24 21
f 845 836 899
f 931 1077 985
f 635 597 667
f 198 202 228
f 885 872 870
f 743 654 698
f 512 511 541
f 630 587 568
f 662 705 742
f 74 73 70
f 29 24 26
f 1035 1034 973
f 449 412 375
f 471 470 424
f 355 320 357
f 731 746 700
f 741 720 767
f 765 706 773
f 538 551 600
f 1045 1041 1043
f 311 274 291
f 906 822 892
f 909 893 929
f 748 721 760
f 766 789 840
f 1037 1027 1033
f 178 186 151
f 422 383 340
f 499 448 485
f 153 101 131
f 153 131 168
f 887 841 881
f 430 424 381
f 1052 1048 1053
f 975 973 873
f 820 751 797
f 873 930 891
f 643 630 621
f 359 312 321
f 316 269 292
f 886 898 859
f 1004 1006 998
f 493 459 503
f 927 915 980
f 52 54 49
f 1013 1007 1014
f 877 848 875
f 804 739 695
f 1075 1072 959
f 192 180 134
f 637 578 626
f 681 645 628
f 307 265 301
f 60 58 57
f 1024 1021 1022
f 394 347 359
f 559 535 626
f 34 33 31
f 274 234 291
f 791 837 809
f 69 67 66
f 292 261 258
f 366 355 357
f 517 487 505
f 865 860 853
f 31 28 24
f 205 175 166
f 734 733 701
f 792 722 794
f 322 305 242
f 750 746 784
f 289 251 241
f 906 914 856
f 49 50 44
f 473 437 441
f 477 432 444
f 423 346 388
f 782 748 790
f 483 442 443
f 1038 1033 1036
f 246 230 175
f 24 19 21
f 663 700 649
f 548 502 486
f 297 306 244
f 356 400 328
f 381 362 377
f 427 403 446
f 305 253 242
f 1020 1011 970
f 539 478 561
f 831 853 817
f 49 44 45
f 197 126 179
f 770 791 679
f 1077 1073 1076
f 227 189 252
f 557 574 524
f 583 580 652
f 27 30 25
f 611 584 546
f 1076 1072 1075
f 808 835 778
f 99 12 77
f 186 221 173
f 577 545 582
f 159 155 111
f 801 768 769
f 804 884 826
f 520 510 465
f 150 122 146
f 777 735 707
f 964 1078 931
f 196 116 165
f 384 329 372
f 1007 1001 1009
f 426 481 445
f 45 44 42
f 474 422 437
f 136 105 88
f 546 584 525
f 47 45 46
f 247 217 230
f 703 725 658
f 781 734 696
f 5 14 10
f 110 119 95
f 190 168 208
f 505 463 504
f 3 6 2
f 940 1005 941
f 407 376 395
f 378 319 354
f 154 194 130
f 627 617 662
f 479 422 474
f 24 27 23
f 653 616 604
f 450 402 404
f 920 912 886
f 712 682 711
f 834 840 872
f 350 331 341
f 993 990 989
f 558 571 518
f 957 956 1064
f 902 903 868
f 497 469 496
f 98 3 2
f 213 238 197
f 668 633 682
f 954 981 905
f 725 686 658
f 584 506 525
f 833 884 804
f 670 647 638
f 518 426 456
f 613 610 557
f 516 481 426
f 143 118 150
f 114 71 69
f 404 402 364
f 723 688 685
f 868 799 837
f 408 386 419
f 245 204 265
f 969 996 934
f 568 587 563
f 1019 1012 1015
f 715 700 663
f 243 181 216
f 1065 1060 1061
f 100 16 22
f 308 271 337
f 152 134 79
f 797 751 741
f 1014 1007 1011
f 409 383 438
f 111 110 96
f 986 928 932
f 472 413 425
f 750 716 746
f 1017 1011 1020
f 513 512 572
f 420 443 382
f 486 449 431
f 1029 1022 1025
f 890 852 838
f 469 438 496
f 246 205 245
f 905 878 835
f 103 153 163
f 381 365 338
f 180 256 195
f 168 116 196
f 964 931 906
f 304 226 303
f 957 910 956
f 81 26 21
f 946 969 918
f 131 99 116
f 378 303 319
f 371 332 304
f 965 890 928
f 46 45 39
f 845 800 815
f 29 31 24
f 391 439 369
f 1011 1016 970
f 76 115 144
f 368 360 330
f 121 112 41
f 511 491 509
f 498 489 544
f 762 743 803
f 593 564 506
f 1037 1030 1027
f 59 55 54
f 466 532 452
f 312 269 321
f 681 628 625
f 722 641 680
f 488 519 464
f 788 786 763
f 994 989 988
f 488 464 450
f 933 932 869
f 1009 1001 935
f 1032 1027 1026
f 484 465 447
f 171 117 167
f 71 67 69
f 686 697 623
f 372 352 347
f 249 168 234
f 181 164 216
f 946 900 935
f 455 407 461
f 910 887 881
f 705 677 689
f 977 976 925
f 843 827 818
f 946 999 969
f 159 187 155
f 137 135 183
f 156 142 97
f 150 107 122
f 367 335 403
f 693 652 676
f 297 283 266
f 627 582 617
f 1036 1035 975
f 504 440 527
f 275 271 308
f 44 40 42
f 661 615 632
f 39 37 36
f 1057 1050 1056
f 331 308 341
f 821 754 841
f 319 286 315
f 1013 1008 1007
f 1064 1058 1062
f 648 607 641
f 689 664 721
f 703 658 613
f 2 1 97
f 90 52 107
f 127 129 157
f 307 245 265
f 862 805 781
f 440 371 432
f 1044 938 978
f 814 787 747
f 985 963 914
f 361 329 384
f 362 338 309
f 664 583 652
f 190 153 168
f 787 752 747
f 856 825 811
f 815 737 772
f 978 926 912
f 508 495 490
f 674 604 673
f 289 326 251
f 130 178 113
f 693 676 724
f 992 928 986
f 400 344 327
f 876 813 874
f 149 122 112
f 457 405 410
f 608 504 607
f 922 901 950
f 574 623 570
f 645 611 592
f 307 282 245
f 605 591 633
f 684 619 646
f 756 692 737
f 1019 1015 1018
f 861 839 846
f 537 556 451
f 136 125 105
f 391 289 318
f 602 558 562
f 875 848 847
f 519 456 464
f 930 895 891
f 5 1 2
f 557 524 502
f 515 436 481
f 127 84 129
f 402 464 435
f 119 94 95
f 591 547 544
f 870 861 846
f 713 679 645
f 118 62 90
f 243 216 235
f 108 113 92
f 578 527 559
f 457 410 453
f 86 35 40
f 447 388 360
f 393 380 363
f 364 356 310
f 696 701 630
f 255 267 231
f 415 447 360
f 914 904 825
f 800 822 726
f 35 30 32
f 380 393 437
f 543 513 572
f 739 775 698
f 259 237 224
f 860 843 832
f 117 114 167
f 43 38 41
f 974 947 936
f 114 93 137
f 105 125 87
f 149 140 166
f 180 156 134
f 1061 1052 981
f 632 615 579
f 280 342 302
f 219 170 182
f 448 429 485
f 992 968 996
f 870 860 865
f 440 432 477
f 499 485 514
f 774 816 733
f 13 11 8
f 489 453 523
f 895 897 871
f 926 938 874
f 853 832 817
f 692 691 737
f 767 720 771
f 817 786 788
f 464 456 435
f 234 278 291
f 255 302 267
f 360 388 322
f 781 805 734
f 196 212 227
f 877 875 881
f 625 627 691
f 694 637 626
f 477 444 494
f 597 572 656
f 532 484 452
f 799 850 779
f 976 975 925
f 706 672 635
f 75 2 97
f 609 561 619
f 601 586 554
f 959 1072 982
f 694 683 762
f 870 846 843
f 389 385 418
f 614 642 612
f 281 260 207
f 498 457 489
f 138 120 185
f 981 953 920
f 98 4 3
f 56 54 52
f 170 160 145
f 540 507 554
f 162 140 121
f 589 592 546
f 268 250 249
f 653 604 674
f 1066 1065 1069
f 991 943 967
f 541 508 590
f 225 188 142
f 560 505 504
f 569 484 532
f 572 512 567
f 1031 1028 1039
f 949 948 1031
f 1010 1004 1008
f 984 960 903
f 585 522 516
f 930 972 895
f 795 757 733
f 177 176 217
f 953 912 920
f 971 1005 1012
f 531 480 476
f 248 211 236
f 621 568 569
f 403 335 399
f 963 1076 962
f 176 150 146
f 479 438 422
f 93 63 62
f 292 258 296
f 516 426 518
f 584 593 506
f 11 6 8
f 790 760 759
f 316 292 340
f 226 233 286
f 746 716 700
f 944 929 991
f 915 875 847
f 468 446 478
f 108 58 61
f 699 659 609
f 491 479 474
f 36 32 28
f 1048 1044 978
f 573 555 598
f 717 661 636
f 718 682 657
f 927 980 1063
f 556 533 451
f 518 571 516
f 588 553 548
f 216 214 235
f 998 994 1002
f 832 818 780
f 417 451 411
f 826 869 775
f 323 276 334
f 1065 955 982
f 911 883 842
f 863 824 842
f 436 392 481
f 99 77 116
f 397 375 326
f 606 565 522
f 279 221 231
f 11 5 6
f 20 23 18
f 445 392 344
f 84 34 29
f 97 1 7
f 250 208 249
f 912 926 874
f 998 993 994
f 329 290 352
f 197 139 126
f 793 893 909
f 79 78 10
f 967 923 907
f 142 156 195
f 995 987 992
f 692 681 625
f 980 952 1054

