v -1.3680117784833934 -1.595455565846428 0.45000000000000001
v -0.6319882215166065 -1.595455565846428 0.45000000000000001
v -1 -1.3680117784833934 1.045455565846428
v -1 -1.3680117784833934 -0.14545556584642799
v -1.595455565846428 -1 0.081988221516606508
v -1.595455565846428 -1 0.81801177848339357
v -1 -1.7 0.45000000000000001
v -1.2163118960624633 -1.5663118960624631 0.80000000000000004
v -0.78368810393753674 -1.5663118960624631 0.80000000000000004
v -1 -1 1.1499999999999999
v -1.2163118960624633 -1.5663118960624631 0.099999999999999978
v -0.78368810393753674 -1.5663118960624631 0.099999999999999978
v -1 -1 -0.24999999999999994
v -0.64999999999999991 -1.2163118960624633 -0.11631189606246312
v -0.64999999999999991 -1.2163118960624633 1.0163118960624631
v -1.5663118960624631 -0.64999999999999991 0.23368810393753681
v -1.5663118960624631 -1.3500000000000001 0.23368810393753681
v -1.3500000000000001 -1.2163118960624633 -0.11631189606246312
v -1.3500000000000001 -0.78368810393753674 -0.11631189606246312
v -1.5663118960624631 -0.64999999999999991 0.66631189606246322
v -1.5663118960624631 -1.3500000000000001 0.66631189606246322
v -1.3500000000000001 -1.2163118960624633 1.0163118960624631
v -1.3500000000000001 -0.78368810393753674 1.0163118960624631
v -1.7 -1 0.45000000000000001
v -1.1912865702388702 -1.6733568504487422 0.45000000000000001
v -0.80871342976112981 -1.6733568504487422 0.45000000000000001
v -1.3037219951868864 -1.6038679362913304 0.63192433910542811
v -1.1124354249480162 -1.4856463342923143 0.94143251134331407
v -1.1137218936815172 -1.6657395614066075 0.63400588924169676
v -0.69627800481311364 -1.6038679362913304 0.63192433910542811
v -0.88756457505198383 -1.4856463342923143 0.94143251134331407
v -0.88627810631848281 -1.6657395614066075 0.63400588924169676
v -1 -1.5954555658464278 0.81801177848339357
v -1 -1.1912865702388702 1.1233568504487423
v -1.3037219951868864 -1.6038679362913304 0.26807566089457197
v -1.1124354249480162 -1.4856463342923143 -0.041432511343314049
v -1.1137218936815172 -1.6657395614066075 0.26599411075830326
v -0.69627800481311364 -1.6038679362913304 0.26807566089457197
v -0.88756457505198383 -1.4856463342923143 -0.041432511343314049
v -0.88627810631848281 -1.6657395614066075 0.26599411075830326
v -1 -1.5954555658464278 0.081988221516606508
v -1 -1.1912865702388702 -0.22335685044874226
v -1 -0.80871342976112981 -0.22335685044874226
v -0.5143536657076857 -1.491432511343314 0.33756457505198384
v -0.5885503233952688 -1.4817336721649106 0.15227221707678606
v -0.81807566089457184 -1.3037219951868864 -0.15386793629133028
v -0.702272217076786 -1.4114496766047311 -0.031733672164910687
v -0.81599411075830319 -1.1137218936815172 -0.21573956140660749
v -0.5182663278350893 -1.2977277829232139 0.038550323395268815
v -0.5143536657076857 -1.491432511343314 0.56243542494801624
v -0.5885503233952688 -1.4817336721649106 0.74772778292321396
v -0.81807566089457184 -1.3037219951868864 1.0538679362913304
v -0.702272217076786 -1.4114496766047311 0.93173367216491076
v -0.81599411075830319 -1.1137218936815172 1.1157395614066075
v -1.4856463342923143 -0.50856748865668588 0.33756457505198384
v -1.6038679362913304 -0.81807566089457184 0.14627800481311365
v -1.4114496766047311 -0.51826632783508941 0.15227221707678606
v -1.4856463342923143 -1.491432511343314 0.33756457505198384
v -1.6038679362913304 -1.1819243391054282 0.14627800481311365
v -1.4114496766047311 -1.4817336721649106 0.15227221707678606
v -1.1819243391054282 -1.3037219951868864 -0.15386793629133028
v -1.491432511343314 -1.1124354249480162 -0.035646334292314341
v -1.2977277829232139 -1.4114496766047311 -0.031733672164910687
v -1.1840058892416967 -1.1137218936815172 -0.21573956140660749
v -1.4817336721649106 -1.2977277829232139 0.038550323395268815
v -1.1819243391054282 -0.69627800481311364 -0.15386793629133028
v -1.491432511343314 -0.88756457505198383 -0.035646334292314341
v -1.2977277829232139 -0.5885503233952688 -0.031733672164910687
v -1.1840058892416967 -0.88627810631848281 -0.21573956140660749
v -1.4817336721649106 -0.702272217076786 0.038550323395268815
v -1.3680117784833936 -1 -0.14545556584642788
v -1.4856463342923143 -0.50856748865668588 0.56243542494801624
v -1.6038679362913304 -0.81807566089457184 0.75372199518688632
v -1.4114496766047311 -0.51826632783508941 0.74772778292321396
v -1.5954555658464278 -0.63198822151660639 0.45000000000000001
v -1.4856463342923143 -1.491432511343314 0.56243542494801624
v -1.6038679362913304 -1.1819243391054282 0.75372199518688632
v -1.4114496766047311 -1.4817336721649106 0.74772778292321396
v -1.5954555658464278 -1.3680117784833936 0.45000000000000001
v -1.1819243391054282 -1.3037219951868864 1.0538679362913304
v -1.491432511343314 -1.1124354249480162 0.93564633429231436
v -1.2977277829232139 -1.4114496766047311 0.93173367216491076
v -1.1840058892416967 -1.1137218936815172 1.1157395614066075
v -1.4817336721649106 -1.2977277829232139 0.86144967660473126
v -1.1819243391054282 -0.69627800481311364 1.0538679362913304
v -1.491432511343314 -0.88756457505198383 0.93564633429231436
v -1.2977277829232139 -0.5885503233952688 0.93173367216491076
v -1.1840058892416967 -0.88627810631848281 1.1157395614066075
v -1.4817336721649106 -0.702272217076786 0.86144967660473126
v -1.3680117784833936 -1 1.045455565846428
v -1.6733568504487422 -1 0.25871342976112982
v -1.6733568504487422 -1 0.64128657023887015
v -1.6657395614066075 -0.81599411075830319 0.33627810631848276
v -1.6657395614066075 -1.1840058892416967 0.33627810631848276
v -1.6657395614066075 -0.81599411075830319 0.56372189368151726
v -1.6657395614066075 -1.1840058892416967 0.56372189368151726
v 0.6319882215166065 1.595455565846428 0.55000000000000004
v 1.3680117784833934 1.595455565846428 0.55000000000000004
v 1 1.3680117784833934 1.145455565846428
v 1 1.3680117784833934 -0.045455565846427959
v 1.595455565846428 1 0.18198822151660654
v 1.595455565846428 1 0.91801177848339355
v 1 1.7 0.55000000000000004
v 0.78368810393753674 1.5663118960624631 0.90000000000000013
v 1.2163118960624633 1.5663118960624631 0.90000000000000013
v 1 1 1.25
v 0.78368810393753674 1.5663118960624631 0.20000000000000001
v 1.2163118960624633 1.5663118960624631 0.20000000000000001
v 1 1 -0.14999999999999991
v 1.5663118960624631 1.3500000000000001 0.33368810393753684
v 1.5663118960624631 0.64999999999999991 0.33368810393753684
v 1.3500000000000001 0.78368810393753674 -0.016311896062463083
v 1.3500000000000001 1.2163118960624633 -0.016311896062463083
v 1.5663118960624631 1.3500000000000001 0.7663118960624633
v 1.5663118960624631 0.64999999999999991 0.7663118960624633
v 1.3500000000000001 0.78368810393753674 1.1163118960624632
v 1.3500000000000001 1.2163118960624633 1.1163118960624632
v 1.7 1 0.55000000000000004
v 0.64999999999999991 1.2163118960624633 -0.016311896062463083
v 0.64999999999999991 1.2163118960624633 1.1163118960624632
v 0.80871342976112981 1.6733568504487422 0.55000000000000004
v 1.1912865702388702 1.6733568504487422 0.55000000000000004
v 0.69627800481311364 1.6038679362913304 0.73192433910542809
v 0.88756457505198383 1.4856463342923143 1.041432511343314
v 0.88627810631848281 1.6657395614066075 0.73400588924169674
v 1.3037219951868864 1.6038679362913304 0.73192433910542809
v 1.1124354249480162 1.4856463342923143 1.041432511343314
v 1.1137218936815172 1.6657395614066075 0.73400588924169674
v 1 1.5954555658464278 0.91801177848339355
v 1 0.80871342976112981 1.2233568504487424
v 1 1.1912865702388702 1.2233568504487424
v 0.69627800481311364 1.6038679362913304 0.368075660894572
v 0.88756457505198383 1.4856463342923143 0.058567488656685984
v 0.88627810631848281 1.6657395614066075 0.36599411075830329
v 1.3037219951868864 1.6038679362913304 0.368075660894572
v 1.1124354249480162 1.4856463342923143 0.058567488656685984
v 1.1137218936815172 1.6657395614066075 0.36599411075830329
v 1 1.5954555658464278 0.18198822151660654
v 1 1.1912865702388702 -0.12335685044874223
v 1.4856463342923143 1.491432511343314 0.43756457505198387
v 1.6038679362913304 1.1819243391054282 0.24627800481311368
v 1.4114496766047311 1.4817336721649106 0.2522722170767861
v 1.4856463342923143 0.50856748865668588 0.43756457505198387
v 1.6038679362913304 0.81807566089457184 0.24627800481311368
v 1.4114496766047311 0.51826632783508941 0.2522722170767861
v 1.1819243391054282 0.69627800481311364 -0.053867936291330243
v 1.491432511343314 0.88756457505198383 0.064353665707685692
v 1.2977277829232139 0.5885503233952688 0.068266327835089347
v 1.1840058892416967 0.88627810631848281 -0.11573956140660746
v 1.4817336721649106 0.702272217076786 0.13855032339526885
v 1.1819243391054282 1.3037219951868864 -0.053867936291330243
v 1.491432511343314 1.1124354249480162 0.064353665707685692
v 1.2977277829232139 1.4114496766047311 0.068266327835089347
v 1.1840058892416967 1.1137218936815172 -0.11573956140660746
v 1.4817336721649106 1.2977277829232139 0.13855032339526885
v 1.3680117784833936 1 -0.045455565846427848
v 1.4856463342923143 1.491432511343314 0.66243542494801622
v 1.6038679362913304 1.1819243391054282 0.85372199518688641
v 1.4114496766047311 1.4817336721649106 0.84772778292321394
v 1.5954555658464278 1.3680117784833936 0.55000000000000004
v 1.4856463342923143 0.50856748865668588 0.66243542494801622
v 1.6038679362913304 0.81807566089457184 0.85372199518688641
v 1.4114496766047311 0.51826632783508941 0.84772778292321394
v 1.5954555658464278 0.63198822151660639 0.55000000000000004
v 1.1819243391054282 0.69627800481311364 1.1538679362913302
v 1.491432511343314 0.88756457505198383 1.0356463342923143
v 1.2977277829232139 0.5885503233952688 1.0317336721649109
v 1.1840058892416967 0.88627810631848281 1.2157395614066075
v 1.4817336721649106 0.702272217076786 0.96144967660473124
v 1.1819243391054282 1.3037219951868864 1.1538679362913302
v 1.491432511343314 1.1124354249480162 1.0356463342923143
v 1.2977277829232139 1.4114496766047311 1.0317336721649109
v 1.1840058892416967 1.1137218936815172 1.2157395614066075
v 1.4817336721649106 1.2977277829232139 0.96144967660473124
v 1.3680117784833936 1 1.145455565846428
v 1.6733568504487422 1 0.35871342976112985
v 1.6733568504487422 1 0.74128657023887023
v 1.6657395614066075 1.1840058892416967 0.43627810631848279
v 1.6657395614066075 0.81599411075830319 0.43627810631848279
v 1.6657395614066075 1.1840058892416967 0.66372189368151724
v 1.6657395614066075 0.81599411075830319 0.66372189368151724
v 0.5143536657076857 1.491432511343314 0.43756457505198387
v 0.5885503233952688 1.4817336721649106 0.2522722170767861
v 0.81807566089457184 1.3037219951868864 -0.053867936291330243
v 0.702272217076786 1.4114496766047311 0.068266327835089347
v 0.81599411075830319 1.1137218936815172 -0.11573956140660746
v 0.5143536657076857 1.491432511343314 0.66243542494801622
v 0.5885503233952688 1.4817336721649106 0.84772778292321394
v 0.81807566089457184 1.3037219951868864 1.1538679362913302
v 0.702272217076786 1.4114496766047311 1.0317336721649109
v 0.81599411075830319 1.1137218936815172 1.2157395614066075
v 0.5182663278350893 1.2977277829232139 0.96144967660473124
f 74 20 89
f 74 72 20
f 89 20 73
f 25 37 7
f 95 73 20
f 150 148 112
f 35 25 1
f 37 25 35
f 63 18 61
f 88 90 83
f 85 23 88
f 88 23 90
f 94 96 24
f 21 76 78
f 1 76 58
f 58 35 1
f 162 177 102
f 169 167 163
f 169 115 162
f 163 115 169
f 116 167 169
f 10 88 83
f 52 31 53
f 53 15 52
f 53 31 9
f 29 25 7
f 7 32 29
f 83 90 22
f 119 185 184
f 184 185 133
f 107 138 133
f 133 185 107
f 12 41 39
f 11 41 37
f 37 35 11
f 4 61 42
f 13 48 42
f 149 112 146
f 39 4 46
f 4 42 46
f 46 42 48
f 89 23 87
f 62 71 18
f 24 96 92
f 92 95 24
f 73 95 92
f 92 6 73
f 86 23 89
f 89 73 86
f 73 6 86
f 90 23 86
f 96 21 77
f 77 92 96
f 6 92 77
f 79 94 17
f 17 58 79
f 96 94 79
f 79 58 76
f 79 21 96
f 76 21 79
f 60 58 17
f 35 58 60
f 63 11 60
f 60 11 35
f 158 102 177
f 171 102 158
f 162 102 166
f 166 169 162
f 116 169 166
f 166 175 116
f 171 175 166
f 166 102 171
f 34 10 83
f 34 52 54
f 106 130 168
f 168 173 106
f 175 173 168
f 168 165 116
f 116 175 168
f 176 178 118
f 141 178 176
f 53 9 51
f 78 76 27
f 27 76 1
f 1 25 27
f 25 29 27
f 33 29 32
f 33 9 31
f 32 9 33
f 81 22 90
f 90 86 81
f 81 86 6
f 6 77 81
f 72 55 75
f 20 72 75
f 75 95 20
f 107 185 183
f 156 112 149
f 136 133 138
f 162 115 181
f 115 164 181
f 181 177 162
f 118 177 181
f 36 11 63
f 63 61 36
f 36 61 4
f 41 11 36
f 39 41 36
f 36 4 39
f 64 69 13
f 13 42 64
f 71 69 64
f 64 42 61
f 18 71 64
f 64 61 18
f 39 46 47
f 47 12 39
f 65 60 17
f 63 60 65
f 65 18 63
f 65 62 18
f 62 65 59
f 17 94 59
f 59 65 17
f 31 52 3
f 52 34 3
f 160 178 110
f 110 178 141
f 173 170 131
f 131 191 106
f 106 173 131
f 134 138 107
f 180 158 177
f 180 178 160
f 180 177 118
f 118 178 180
f 176 144 101
f 141 176 101
f 143 145 111
f 111 145 150
f 150 144 111
f 111 164 143
f 161 115 163
f 161 164 115
f 143 164 161
f 8 27 29
f 29 33 8
f 8 82 78
f 78 27 8
f 82 22 84
f 22 81 84
f 78 82 84
f 84 81 77
f 84 21 78
f 84 77 21
f 188 123 187
f 13 69 43
f 184 139 186
f 149 109 154
f 109 139 154
f 154 139 151
f 154 156 149
f 19 66 69
f 19 69 71
f 155 110 141
f 100 139 184
f 184 133 100
f 151 139 100
f 133 136 100
f 100 136 151
f 179 144 176
f 179 181 164
f 164 111 179
f 179 111 144
f 179 176 118
f 118 181 179
f 14 47 46
f 62 59 5
f 56 5 91
f 91 94 24
f 91 59 94
f 91 5 59
f 114 180 160
f 158 180 114
f 172 127 170
f 28 33 31
f 31 3 28
f 28 8 33
f 82 8 28
f 80 22 82
f 82 28 80
f 80 28 3
f 83 22 80
f 80 34 83
f 80 3 34
f 191 131 189
f 107 183 132
f 132 134 107
f 132 183 182
f 121 134 132
f 103 134 121
f 121 123 125
f 128 103 125
f 125 103 121
f 147 144 150
f 147 101 144
f 150 112 147
f 112 156 147
f 26 32 7
f 45 47 49
f 12 47 45
f 45 38 12
f 67 5 56
f 67 19 71
f 71 62 67
f 62 5 67
f 113 154 151
f 156 154 113
f 151 136 153
f 153 113 151
f 155 113 153
f 55 57 16
f 16 75 55
f 95 75 93
f 56 91 93
f 75 16 93
f 93 16 56
f 24 95 93
f 93 91 24
f 135 98 140
f 160 110 140
f 159 114 157
f 157 114 160
f 160 140 157
f 157 140 98
f 159 157 126
f 126 157 98
f 117 172 170
f 117 173 175
f 117 175 171
f 117 170 173
f 171 158 174
f 159 172 174
f 158 114 174
f 174 114 159
f 174 117 171
f 172 117 174
f 170 127 99
f 99 131 170
f 99 189 131
f 182 187 97
f 97 123 121
f 97 187 123
f 121 132 97
f 97 132 182
f 134 103 137
f 138 134 137
f 128 125 129
f 7 37 40
f 40 26 7
f 37 41 40
f 38 26 40
f 41 12 40
f 12 38 40
f 30 50 51
f 32 26 30
f 30 9 32
f 30 51 9
f 70 57 68
f 70 67 56
f 56 16 70
f 70 16 57
f 68 19 70
f 19 67 70
f 156 113 152
f 152 147 156
f 101 147 152
f 152 113 155
f 141 101 152
f 152 155 141
f 108 153 136
f 108 136 138
f 108 137 135
f 138 137 108
f 155 153 142
f 135 140 142
f 142 108 135
f 153 108 142
f 110 155 142
f 142 140 110
f 105 172 159
f 127 172 105
f 159 126 105
f 105 126 128
f 105 129 127
f 128 129 105
f 122 98 135
f 135 137 122
f 122 137 103
f 122 103 128
f 128 126 122
f 122 126 98
f 124 99 127
f 127 129 124
f 189 99 124
f 38 45 44
f 190 188 192
f 189 124 190
f 120 189 190
f 104 129 125
f 104 125 123
f 104 124 129
f 104 123 188
f 104 190 124
f 188 190 104
f 2 30 26
f 2 26 38
f 50 30 2
f 2 44 50
f 38 44 2
f 48 109 149
f 13 109 48
f 15 167 116
f 53 167 15
f 46 48 149
f 149 146 46
f 88 10 191
f 191 10 106
f 106 10 34
f 34 130 106
f 165 15 116
f 165 52 15
f 130 34 168
f 168 34 54
f 52 165 168
f 54 52 168
f 188 74 89
f 89 192 188
f 51 167 53
f 163 167 51
f 47 148 150
f 47 150 49
f 74 188 187
f 72 74 187
f 187 55 72
f 182 55 187
f 43 109 13
f 43 139 109
f 69 66 186
f 186 66 184
f 139 43 186
f 186 43 69
f 185 119 19
f 68 185 19
f 184 66 19
f 19 119 184
f 14 46 146
f 14 146 112
f 148 47 14
f 14 112 148
f 57 185 68
f 57 183 185
f 182 183 57
f 57 55 182
f 120 23 189
f 189 23 85
f 88 191 189
f 85 88 189
f 163 51 50
f 50 161 163
f 49 150 45
f 150 145 45
f 161 50 44
f 143 161 44
f 44 45 145
f 44 145 143
f 190 192 89
f 89 87 190
f 190 23 120
f 190 87 23
