v -2 -2 -0.099999999999999978
v -2 -1.8999999999999999 -0.10999999999999999
v -2 -1.8 -0.11999999999999997
v -2 -1.7 -0.12999999999999998
v -2 -1.6000000000000001 -0.13999999999999996
v -2 -1.5 -0.14999999999999997
v -2 -1.3999999999999999 -0.16
v -2 -1.2999999999999998 -0.17000000000000001
v -2 -1.1000000000000001 -0.18999999999999997
v -2 -0.79999999999999982 -0.22
v -2 -0.69999999999999996 -0.22999999999999998
v -2 -0.59999999999999987 -0.23999999999999999
v -2 -0.5 -0.25
v -2 -0.29999999999999982 -0.27000000000000002
v -2 -0.19999999999999996 -0.27999999999999997
v -2 -0.099999999999999867 -0.28999999999999998
v -2 0 -0.29999999999999999
v -2 0.40000000000000036 -0.34000000000000002
v -2 0.5 -0.34999999999999998
v -2 0.90000000000000036 -0.39000000000000001
v -2 1 -0.40000000000000002
v -2 1.4000000000000004 -0.44000000000000006
v -2 1.5 -0.45000000000000001
v -2 1.9000000000000004 -0.49000000000000005
v -2 2 -0.5
v -1.8999999999999999 -2 -0.084999999999999964
v -1.8999999999999999 -1.8999999999999999 -0.094999999999999973
v -1.8999999999999999 -1.8 -0.10499999999999995
v -1.8999999999999999 -1.7 -0.11499999999999996
v -1.8999999999999999 -1.6000000000000001 -0.12499999999999994
v -1.8999999999999999 -1.5 -0.13499999999999995
v -1.8999999999999999 -1.3999999999999999 -0.14499999999999999
v -1.8999999999999999 -1.2999999999999998 -0.155
v -1.8999999999999999 -1.1000000000000001 -0.17499999999999996
v -1.8999999999999999 -0.79999999999999982 -0.20499999999999999
v -1.8999999999999999 -0.69999999999999996 -0.21499999999999997
v -1.8999999999999999 -0.59999999999999987 -0.22499999999999998
v -1.8999999999999999 -0.5 -0.23499999999999999
v -1.8999999999999999 -0.29999999999999982 -0.255
v -1.8999999999999999 -0.19999999999999996 -0.26499999999999996
v -1.8999999999999999 -0.099999999999999867 -0.27499999999999997
v -1.8999999999999999 0 -0.28499999999999998
v -1.8999999999999999 0.40000000000000036 -0.32500000000000001
v -1.8999999999999999 0.5 -0.33499999999999996
v -1.8999999999999999 0.90000000000000036 -0.375
v -1.8999999999999999 1 -0.38500000000000001
v -1.8999999999999999 1.4000000000000004 -0.42500000000000004
v -1.8999999999999999 1.5 -0.435
v -1.8999999999999999 1.9000000000000004 -0.47500000000000003
v -1.8999999999999999 2 -0.48499999999999999
v -1.8 -2 -0.070000000000000007
v -1.8 -1.8999999999999999 -0.080000000000000016
v -1.8 -1.8 -0.089999999999999997
v -1.8 -1.7 -0.10000000000000001
v -1.8 -1.6000000000000001 -0.10999999999999999
v -1.8 -1.5 -0.12
v -1.8 -1.3999999999999999 -0.13000000000000003
v -1.8 -1.2999999999999998 -0.14000000000000004
v -1.8 -1.1000000000000001 -0.16
v -1.8 -0.79999999999999982 -0.19000000000000003
v -1.8 -0.69999999999999996 -0.20000000000000001
v -1.8 -0.59999999999999987 -0.21000000000000002
v -1.8 -0.5 -0.22000000000000003
v -1.8 -0.29999999999999982 -0.24000000000000005
v -1.8 -0.19999999999999996 -0.25
v -1.8 -0.099999999999999867 -0.26000000000000001
v -1.8 0 -0.27000000000000002
v -1.8 0.40000000000000036 -0.31000000000000005
v -1.8 0.5 -0.32000000000000001
v -1.8 0.90000000000000036 -0.36000000000000004
v -1.8 1 -0.37
v -1.8 1.4000000000000004 -0.41000000000000003
v -1.8 1.5 -0.42000000000000004
v -1.8 1.9000000000000004 -0.46000000000000008
v -1.8 2 -0.47000000000000003
v -1.7 -2 -0.054999999999999993
v -1.7 -1.8999999999999999 -0.065000000000000002
v -1.7 -1.8 -0.074999999999999983
v -1.7 -1.7 -0.084999999999999992
v -1.7 -1.6000000000000001 -0.094999999999999973
v -1.7 -1.5 -0.10499999999999998
v -1.7 -1.3999999999999999 -0.11500000000000002
v -1.7 -1.2999999999999998 -0.12500000000000003
v -1.7 -1.1000000000000001 -0.14499999999999999
v -1.7 -0.79999999999999982 -0.17500000000000002
v -1.7 -0.69999999999999996 -0.185
v -1.7 -0.59999999999999987 -0.19500000000000001
v -1.7 -0.5 -0.20500000000000002
v -1.7 -0.29999999999999982 -0.22500000000000003
v -1.7 -0.19999999999999996 -0.23500000000000001
v -1.7 -0.099999999999999867 -0.24500000000000002
v -1.7 0 -0.255
v -1.7 0.40000000000000036 -0.29500000000000004
v -1.7 0.5 -0.30499999999999999
v -1.7 0.90000000000000036 -0.34500000000000003
v -1.7 1 -0.35499999999999998
v -1.7 1.4000000000000004 -0.39500000000000002
v -1.7 1.5 -0.40500000000000003
v -1.7 1.9000000000000004 -0.44500000000000006
v -1.7 2 -0.45500000000000002
v -1.6000000000000001 -2 -0.03999999999999998
v -1.6000000000000001 -1.8999999999999999 -0.049999999999999989
v -1.6000000000000001 -1.8 -0.05999999999999997
v -1.6000000000000001 -1.7 -0.069999999999999979
v -1.6000000000000001 -1.6000000000000001 -0.07999999999999996
v -1.6000000000000001 -1.5 -0.089999999999999969
v -1.6000000000000001 -1.3999999999999999 -0.10000000000000001
v -1.6000000000000001 -1.2999999999999998 -0.11000000000000001
v -1.6000000000000001 -1.1000000000000001 -0.12999999999999998
v -1.6000000000000001 -0.79999999999999982 -0.16
v -1.6000000000000001 -0.69999999999999996 -0.16999999999999998
v -1.6000000000000001 -0.59999999999999987 -0.17999999999999999
v -1.6000000000000001 -0.5 -0.19
v -1.6000000000000001 -0.29999999999999982 -0.21000000000000002
v -1.6000000000000001 -0.19999999999999996 -0.22
v -1.6000000000000001 -0.099999999999999867 -0.23000000000000001
v -1.6000000000000001 0 -0.23999999999999999
v -1.6000000000000001 0.40000000000000036 -0.28000000000000003
v -1.6000000000000001 0.5 -0.28999999999999998
v -1.6000000000000001 0.90000000000000036 -0.33000000000000002
v -1.6000000000000001 1 -0.33999999999999997
v -1.6000000000000001 1.4000000000000004 -0.38
v -1.6000000000000001 1.5 -0.39000000000000001
v -1.6000000000000001 1.9000000000000004 -0.43000000000000005
v -1.6000000000000001 2 -0.44
v -1.5 -2 -0.024999999999999967
v -1.5 -1.8999999999999999 -0.034999999999999976
v -1.5 -1.8 -0.044999999999999957
v -1.5 -1.7 -0.054999999999999966
v -1.5 -1.6000000000000001 -0.064999999999999947
v -1.5 -1.5 -0.074999999999999956
v -1.5 -1.3999999999999999 -0.084999999999999992
v -1.5 -1.2999999999999998 -0.095000000000000001
v -1.5 -1.1000000000000001 -0.11499999999999996
v -1.5 -0.79999999999999982 -0.14499999999999999
v -1.5 -0.69999999999999996 -0.15499999999999997
v -1.5 -0.59999999999999987 -0.16499999999999998
v -1.5 -0.29999999999999982 -0.19500000000000001
v -1.5 -0.19999999999999996 -0.20499999999999999
v -1.5 -0.099999999999999867 -0.215
v -1.5 0 -0.22499999999999998
v -1.5 0.30000000000000027 -0.255
v -1.5 0.40000000000000036 -0.26500000000000001
v -1.5 0.5 -0.27499999999999997
v -1.5 0.90000000000000036 -0.315
v -1.5 1 -0.32499999999999996
v -1.5 1.4000000000000004 -0.36499999999999999
v -1.5 1.9000000000000004 -0.41500000000000004
v -1.5 2 -0.42499999999999999
v -1.3999999999999999 -2 -0.0099999999999999811
v -1.3999999999999999 -1.8999999999999999 -0.01999999999999999
v -1.3999999999999999 -1.8 -0.029999999999999971
v -1.3999999999999999 -1.7 -0.03999999999999998
v -1.3999999999999999 -1.6000000000000001 -0.049999999999999961
v -1.3999999999999999 -1.5 -0.05999999999999997
v -1.3999999999999999 -1.3999999999999999 -0.070000000000000007
v -1.3999999999999999 -1.2999999999999998 -0.080000000000000016
v -1.3999999999999999 -0.79999999999999982 -0.13
v -1.3999999999999999 -0.69999999999999996 -0.14000000000000001
v -1.3999999999999999 -0.59999999999999987 -0.14999999999999999
v -1.3999999999999999 -0.5 -0.15999999999999998
v -1.3999999999999999 -0.19999999999999996 -0.19
v -1.3999999999999999 -0.099999999999999867 -0.20000000000000001
v -1.3999999999999999 0 -0.20999999999999999
v -1.3999999999999999 0.30000000000000027 -0.24000000000000002
v -1.3999999999999999 0.40000000000000036 -0.25
v -1.3999999999999999 0.5 -0.26000000000000001
v -1.3999999999999999 0.90000000000000036 -0.30000000000000004
v -1.3999999999999999 1 -0.31
v -1.3999999999999999 1.4000000000000004 -0.35000000000000003
v -1.3999999999999999 1.5 -0.35999999999999999
v -1.3999999999999999 2 -0.41000000000000003
v -1.2999999999999998 -2 0.0050000000000000322
v -1.2999999999999998 -1.8999999999999999 -0.0049999999999999767
v -1.2999999999999998 -1.8 -0.014999999999999958
v -1.2999999999999998 -1.7 -0.024999999999999967
v -1.2999999999999998 -1.6000000000000001 -0.034999999999999948
v -1.2999999999999998 -1.5 -0.044999999999999957
v -1.2999999999999998 -1.3999999999999999 -0.054999999999999993
v -1.2999999999999998 -0.69999999999999996 -0.12499999999999999
v -1.2999999999999998 -0.59999999999999987 -0.13499999999999998
v -1.2999999999999998 -0.5 -0.14499999999999996
v -1.2999999999999998 -0.29999999999999982 -0.16499999999999998
v -1.2999999999999998 -0.19999999999999996 -0.17499999999999999
v -1.2999999999999998 -0.099999999999999867 -0.185
v -1.2999999999999998 0 -0.19499999999999998
v -1.2999999999999998 0.40000000000000036 -0.23500000000000001
v -1.2999999999999998 0.5 -0.245
v -1.2999999999999998 0.90000000000000036 -0.28500000000000003
v -1.2999999999999998 1 -0.29499999999999998
v -1.2999999999999998 1.4000000000000004 -0.33500000000000002
v -1.2999999999999998 1.5 -0.34499999999999997
v -1.2999999999999998 1.9000000000000004 -0.38500000000000001
v -1.2999999999999998 2 -0.39500000000000002
v -1.2 -0.59999999999999987 -0.12
v -1.2 -0.5 -0.13
v -1.2 -0.29999999999999982 -0.15000000000000002
v -1.2 -0.19999999999999996 -0.16
v -1.2 0.40000000000000036 -0.22000000000000003
v -1.2 0.5 -0.22999999999999998
v -1.2 0.90000000000000036 -0.27000000000000002
v -1.2 1 -0.28000000000000003
v -1.2 1.4000000000000004 -0.32000000000000006
v -1.2 1.9000000000000004 -0.37000000000000005
v -1.2 2 -0.38
v -1.1000000000000001 -2 0.035000000000000003
v -1.1000000000000001 -1.8999999999999999 0.024999999999999994
v -1.1000000000000001 -1.8 0.015000000000000013
v -1.1000000000000001 -1.7 0.0050000000000000044
v -1.1000000000000001 -1.6000000000000001 -0.0049999999999999767
v -1.1000000000000001 -0.5 -0.115
v -1.1000000000000001 -0.39999999999999991 -0.125
v -1.1000000000000001 -0.29999999999999982 -0.13500000000000001
v -1.1000000000000001 -0.19999999999999996 -0.14500000000000002
v -1.1000000000000001 -0.099999999999999867 -0.15500000000000003
v -1.1000000000000001 0 -0.16500000000000001
v -1.1000000000000001 0.40000000000000036 -0.20500000000000004
v -1.1000000000000001 0.5 -0.21500000000000002
v -1.1000000000000001 0.90000000000000036 -0.25500000000000006
v -1.1000000000000001 1 -0.26500000000000001
v -1.1000000000000001 1.4000000000000004 -0.30500000000000005
v -1.1000000000000001 1.5 -0.31500000000000006
v -1.1000000000000001 1.9000000000000004 -0.35500000000000009
v -1.1000000000000001 2 -0.36499999999999999
v -1 -0.39999999999999991 -0.11
v -1 -0.29999999999999982 -0.12000000000000001
v -1 -0.19999999999999996 -0.13
v -0.79999999999999982 -2 0.080000000000000043
v -0.79999999999999982 -1.8999999999999999 0.070000000000000034
v -0.79999999999999982 -1.8 0.060000000000000053
v -0.79999999999999982 -1.7 0.050000000000000044
v -0.79999999999999982 -1.6000000000000001 0.040000000000000063
v -0.79999999999999982 -0.19999999999999996 -0.099999999999999978
v -0.79999999999999982 -0.099999999999999867 -0.10999999999999999
v -0.79999999999999982 0 -0.11999999999999997
v -0.79999999999999982 0.10000000000000009 -0.12999999999999998
v -0.79999999999999982 0.40000000000000036 -0.16
v -0.79999999999999982 0.5 -0.16999999999999998
v -0.79999999999999982 0.90000000000000036 -0.21000000000000002
v -0.79999999999999982 1 -0.21999999999999997
v -0.79999999999999982 1.4000000000000004 -0.26000000000000001
v -0.79999999999999982 1.5 -0.27000000000000002
v -0.79999999999999982 1.9000000000000004 -0.31000000000000005
v -0.79999999999999982 2 -0.31999999999999995
v -0.69999999999999996 -2 0.095000000000000015
v -0.69999999999999996 -1.8999999999999999 0.085000000000000006
v -0.69999999999999996 -1.8 0.075000000000000025
v -0.69999999999999996 -1.7 0.065000000000000016
v -0.69999999999999996 -1.6000000000000001 0.055000000000000035
v -0.69999999999999996 -1.5 0.045000000000000026
v -0.69999999999999996 -0.099999999999999867 -0.095000000000000001
v -0.69999999999999996 0 -0.105
v -0.69999999999999996 0.10000000000000009 -0.115
v -0.69999999999999996 0.20000000000000018 -0.125
v -0.69999999999999996 0.30000000000000027 -0.13500000000000001
v -0.69999999999999996 0.90000000000000036 -0.19500000000000003
v -0.69999999999999996 1 -0.20500000000000002
v -0.69999999999999996 1.4000000000000004 -0.24500000000000005
v -0.69999999999999996 1.5 -0.255
v -0.69999999999999996 1.9000000000000004 -0.29500000000000004
v -0.69999999999999996 2 -0.30499999999999999
v -0.59999999999999987 -2 0.11000000000000003
v -0.59999999999999987 -1.8999999999999999 0.10000000000000002
v -0.59999999999999987 -1.8 0.090000000000000038
v -0.59999999999999987 -1.7 0.080000000000000029
v -0.59999999999999987 -1.6000000000000001 0.070000000000000048
v -0.59999999999999987 -1.5 0.060000000000000039
v -0.59999999999999987 -1.3999999999999999 0.050000000000000003
v -0.59999999999999987 0 -0.089999999999999983
v -0.59999999999999987 0.90000000000000036 -0.18000000000000002
v -0.59999999999999987 1 -0.19
v -0.59999999999999987 1.4000000000000004 -0.23000000000000004
v -0.59999999999999987 1.5 -0.23999999999999999
v -0.59999999999999987 1.9000000000000004 -0.28000000000000003
v -0.59999999999999987 2 -0.28999999999999998
v -0.5 -2 0.125
v -0.5 -1.8999999999999999 0.115
v -0.5 -1.8 0.10500000000000002
v -0.5 -1.7 0.095000000000000015
v -0.5 -1.6000000000000001 0.085000000000000034
v -0.5 -1.5 0.075000000000000025
v -0.5 -1.3999999999999999 0.064999999999999988
v -0.5 -1.2999999999999998 0.054999999999999979
v -0.5 0.90000000000000036 -0.16500000000000004
v -0.5 1 -0.17499999999999999
v -0.5 1.4000000000000004 -0.21500000000000002
v -0.5 1.5 -0.22500000000000003
v -0.5 1.9000000000000004 -0.26500000000000007
v -0.5 2 -0.27500000000000002
v -0.39999999999999991 -1.8999999999999999 0.13
v -0.39999999999999991 -1.8 0.12000000000000004
v -0.39999999999999991 -1.7 0.11000000000000003
v -0.29999999999999982 -2 0.15500000000000003
v -0.29999999999999982 -1.8999999999999999 0.14500000000000002
v -0.29999999999999982 -1.8 0.13500000000000006
v -0.29999999999999982 -1.7 0.12500000000000006
v -0.29999999999999982 -1.6000000000000001 0.11500000000000006
v -0.29999999999999982 -1.5 0.10500000000000005
v -0.29999999999999982 -1.3999999999999999 0.095000000000000015
v -0.29999999999999982 -1.2999999999999998 0.085000000000000006
v -0.29999999999999982 -1.1000000000000001 0.065000000000000044
v -0.29999999999999982 0.90000000000000036 -0.13500000000000001
v -0.29999999999999982 1 -0.14499999999999996
v -0.29999999999999982 1.4000000000000004 -0.185
v -0.29999999999999982 1.5 -0.19500000000000001
v -0.29999999999999982 1.9000000000000004 -0.23500000000000004
v -0.29999999999999982 2 -0.245
v -0.19999999999999996 -2 0.17000000000000001
v -0.19999999999999996 -1.8999999999999999 0.16
v -0.19999999999999996 -1.8 0.15000000000000002
v -0.19999999999999996 -1.7 0.14000000000000001
v -0.19999999999999996 -1.6000000000000001 0.13000000000000003
v -0.19999999999999996 -1.5 0.12000000000000002
v -0.19999999999999996 -1.3999999999999999 0.10999999999999999
v -0.19999999999999996 -1.2999999999999998 0.099999999999999978
v -0.19999999999999996 -1.1000000000000001 0.080000000000000016
v -0.19999999999999996 -1 0.070000000000000007
v -0.19999999999999996 0.90000000000000036 -0.12000000000000002
v -0.19999999999999996 1 -0.13
v -0.19999999999999996 1.4000000000000004 -0.17000000000000004
v -0.19999999999999996 1.5 -0.18000000000000002
v -0.19999999999999996 1.9000000000000004 -0.22000000000000006
v -0.19999999999999996 2 -0.23000000000000001
v -0.099999999999999867 -2 0.18500000000000003
v -0.099999999999999867 -1.8999999999999999 0.17500000000000002
v -0.099999999999999867 -1.8 0.16500000000000004
v -0.099999999999999867 -1.7 0.15500000000000003
v -0.099999999999999867 -1.6000000000000001 0.14500000000000005
v -0.099999999999999867 -1.5 0.13500000000000004
v -0.099999999999999867 -1.3999999999999999 0.125
v -0.099999999999999867 -1.2999999999999998 0.11499999999999999
v -0.099999999999999867 -1.1000000000000001 0.095000000000000029
v -0.099999999999999867 -0.89999999999999991 0.075000000000000011
v -0.099999999999999867 0.90000000000000036 -0.10500000000000001
v -0.099999999999999867 1 -0.11499999999999999
v -0.099999999999999867 1.4000000000000004 -0.15500000000000003
v -0.099999999999999867 1.5 -0.16500000000000001
v -0.099999999999999867 1.9000000000000004 -0.20500000000000004
v -0.099999999999999867 2 -0.215
v 0 -2 0.20000000000000001
v 0 -1.8999999999999999 0.19
v 0 -1.8 0.18000000000000002
v 0 -1.7 0.17000000000000001
v 0 -1.6000000000000001 0.16000000000000003
v 0 -1.5 0.15000000000000002
v 0 -1.3999999999999999 0.13999999999999999
v 0 -1.2999999999999998 0.12999999999999998
v 0 -1.1000000000000001 0.11000000000000001
v 0 -0.79999999999999982 0.079999999999999988
v 0 0.90000000000000036 -0.090000000000000038
v 0 1 -0.10000000000000001
v 0 1.4000000000000004 -0.14000000000000004
v 0 1.5 -0.15000000000000002
v 0 1.9000000000000004 -0.19000000000000006
v 0 2 -0.20000000000000001
v 0.40000000000000036 -2 0.26000000000000006
v 0.40000000000000036 -1.8999999999999999 0.25000000000000006
v 0.40000000000000036 -1.8 0.24000000000000007
v 0.40000000000000036 -1.7 0.23000000000000007
v 0.40000000000000036 -1.6000000000000001 0.22000000000000008
v 0.40000000000000036 -1.5 0.21000000000000008
v 0.40000000000000036 -1.3999999999999999 0.20000000000000004
v 0.40000000000000036 -1.2999999999999998 0.19000000000000003
v 0.40000000000000036 1 -0.039999999999999952
v 0.40000000000000036 1.4000000000000004 -0.079999999999999988
v 0.40000000000000036 1.5 -0.089999999999999969
v 0.40000000000000036 1.9000000000000004 -0.13
v 0.40000000000000036 2 -0.13999999999999996
v 0.5 -2 0.27500000000000002
v 0.5 -1.8999999999999999 0.26500000000000001
v 0.5 -1.8 0.255
v 0.5 -1.7 0.245
v 0.5 -1.6000000000000001 0.23500000000000004
v 0.5 -1.5 0.22500000000000003
v 0.5 -1.3999999999999999 0.21499999999999997
v 0.5 1.4000000000000004 -0.065000000000000044
v 0.5 1.5 -0.075000000000000025
v 0.5 1.9000000000000004 -0.11500000000000006
v 0.5 2 -0.125
v 0.60000000000000009 2 -0.11
v 0.80000000000000027 -1.7 0.29000000000000004
v 0.80000000000000027 1.4000000000000004 -0.020000000000000004
v 0.80000000000000027 1.5 -0.029999999999999985
v 0.80000000000000027 1.9000000000000004 -0.070000000000000021
v 0.80000000000000027 2 -0.079999999999999974
v 0.90000000000000036 -2 0.33500000000000008
v 0.90000000000000036 -1.8999999999999999 0.32500000000000007
v 0.90000000000000036 -1.8 0.31500000000000006
v 0.90000000000000036 -1.7 0.30500000000000005
v 0.90000000000000036 0 0.13500000000000004
v 0.90000000000000036 1.4000000000000004 -0.0050000000000000044
v 0.90000000000000036 1.5 -0.014999999999999986
v 0.90000000000000036 1.9000000000000004 -0.055000000000000021
v 0.90000000000000036 2 -0.064999999999999974
v 1 -2 0.34999999999999998
v 1 -1.8999999999999999 0.33999999999999997
v 1 -1.8 0.33000000000000002
v 1 -1.7 0.32000000000000001
v 1 -0.099999999999999867 0.15999999999999998
v 1 0 0.14999999999999999
v 1 1.5 -2.7755575615628914e-17
v 1 1.9000000000000004 -0.040000000000000063
v 1 2 -0.050000000000000017
v 1.4000000000000004 -2 0.41000000000000003
v 1.4000000000000004 -1.8999999999999999 0.40000000000000002
v 1.4000000000000004 -1.8 0.39000000000000007
v 1.4000000000000004 -1.7 0.38000000000000006
v 1.4000000000000004 -1.6000000000000001 0.37000000000000011
v 1.4000000000000004 -0.29999999999999982 0.24000000000000005
v 1.4000000000000004 -0.19999999999999996 0.23000000000000004
v 1.4000000000000004 -0.099999999999999867 0.22000000000000003
v 1.4000000000000004 0 0.21000000000000005
v 1.4000000000000004 0.40000000000000036 0.17000000000000001
v 1.4000000000000004 0.5 0.16000000000000003
v 1.4000000000000004 1.4000000000000004 0.070000000000000007
v 1.4000000000000004 1.5 0.060000000000000026
v 1.4000000000000004 1.9000000000000004 0.01999999999999999
v 1.4000000000000004 2 0.010000000000000037
v 1.5 -2 0.42499999999999999
v 1.5 -1.8999999999999999 0.41499999999999998
v 1.5 -1.8 0.40500000000000003
v 1.5 -1.7 0.39500000000000002
v 1.5 -1.6000000000000001 0.38500000000000001
v 1.5 -0.5 0.27499999999999997
v 1.5 -0.29999999999999982 0.25499999999999995
v 1.5 -0.19999999999999996 0.24499999999999997
v 1.5 -0.099999999999999867 0.23499999999999996
v 1.5 0 0.22499999999999998
v 1.5 0.40000000000000036 0.18499999999999994
v 1.5 0.5 0.17499999999999999
v 1.5 1.4000000000000004 0.084999999999999937
v 1.5 1.5 0.074999999999999956
v 1.5 1.9000000000000004 0.03499999999999992
v 1.5 2 0.024999999999999967
v 1.6000000000000001 -0.19999999999999996 0.26000000000000001
v 1.6000000000000001 -0.099999999999999867 0.24999999999999997
v 1.7000000000000002 -0.099999999999999867 0.26500000000000001
v 1.7000000000000002 0 0.255
v 1.9000000000000004 -2 0.48500000000000004
v 1.9000000000000004 -1.8999999999999999 0.47500000000000003
v 1.9000000000000004 -1.8 0.46500000000000008
v 1.9000000000000004 -1.7 0.45500000000000007
v 1.9000000000000004 -1.6000000000000001 0.44500000000000006
v 1.9000000000000004 -1.5 0.43500000000000005
v 1.9000000000000004 -1.2999999999999998 0.41500000000000004
v 1.9000000000000004 -1.2 0.40500000000000003
v 1.9000000000000004 -1.1000000000000001 0.39500000000000002
v 1.9000000000000004 -0.79999999999999982 0.36499999999999999
v 1.9000000000000004 -0.69999999999999996 0.35500000000000004
v 1.9000000000000004 -0.59999999999999987 0.34500000000000003
v 1.9000000000000004 -0.5 0.33500000000000002
v 1.9000000000000004 -0.29999999999999982 0.315
v 1.9000000000000004 -0.19999999999999996 0.30500000000000005
v 1.9000000000000004 -0.099999999999999867 0.29500000000000004
v 1.9000000000000004 0 0.28500000000000003
v 1.9000000000000004 0.40000000000000036 0.245
v 1.9000000000000004 0.5 0.23500000000000004
v 1.9000000000000004 0.90000000000000036 0.19500000000000001
v 1.9000000000000004 1 0.18500000000000003
v 1.9000000000000004 1.4000000000000004 0.14499999999999999
v 1.9000000000000004 1.5 0.13500000000000001
v 1.9000000000000004 1.9000000000000004 0.094999999999999973
v 1.9000000000000004 2 0.08500000000000002
v 2 -2 0.5
v 2 -1.8999999999999999 0.48999999999999999
v 2 -1.8 0.47999999999999998
v 2 -1.7 0.46999999999999997
v 2 -1.6000000000000001 0.46000000000000002
v 2 -1.5 0.45000000000000001
v 2 -1.3999999999999999 0.43999999999999995
v 2 -1.2999999999999998 0.42999999999999994
v 2 -1.2 0.41999999999999998
v 2 -1.1000000000000001 0.41000000000000003
v 2 -0.79999999999999982 0.38
v 2 -0.69999999999999996 0.37
v 2 -0.59999999999999987 0.35999999999999999
v 2 -0.5 0.34999999999999998
v 2 -0.29999999999999982 0.32999999999999996
v 2 -0.19999999999999996 0.32000000000000001
v 2 -0.099999999999999867 0.31
v 2 0 0.29999999999999999
v 2 0.40000000000000036 0.25999999999999995
v 2 0.5 0.25
v 2 0.90000000000000036 0.20999999999999996
v 2 1 0.19999999999999998
v 2 1.4000000000000004 0.15999999999999995
v 2 1.5 0.14999999999999997
v 2 1.9000000000000004 0.10999999999999993
v 2 2 0.099999999999999978
v -2 -2 -0.90000000000000002
v -2 2 -0.90000000000000002
v 2 -2 -0.90000000000000002
v 2 2 -0.90000000000000002
v -1 -1.3680117784833934 -0.14545556584642799
v -1 -1 -0.24999999999999994
v -0.64999999999999991 -1.2163118960624633 -0.11631189606246312
v -1.3500000000000001 -1.2163118960624633 -0.11631189606246312
v -1.1124354249480162 -1.4856463342923143 -0.041432511343314049
v -0.88756457505198383 -1.4856463342923143 -0.041432511343314049
v -1 -1.1912865702388702 -0.22335685044874226
v -1 -0.80871342976112981 -0.22335685044874226
v -0.81807566089457184 -1.3037219951868864 -0.15386793629133028
v -0.702272217076786 -1.4114496766047311 -0.031733672164910687
v -0.81599411075830319 -1.1137218936815172 -0.21573956140660749
v -0.5182663278350893 -1.2977277829232139 0.038550323395268815
v -1.1819243391054282 -1.3037219951868864 -0.15386793629133028
v -1.1840058892416967 -1.1137218936815172 -0.21573956140660749
v -1.1819243391054282 -0.69627800481311364 -0.15386793629133028
v -1.1840058892416967 -0.88627810631848281 -0.21573956140660749
v -1.3680117784833936 -1 -0.14545556584642788
v 1 1.3680117784833934 -0.045455565846427959
v 1 1 -0.14999999999999991
v 1.3500000000000001 0.78368810393753674 -0.016311896062463083
v 1.3500000000000001 1.2163118960624633 -0.016311896062463083
v 1 1.1912865702388702 -0.12335685044874223
v 1.1819243391054282 0.69627800481311364 -0.053867936291330243
v 1.491432511343314 0.88756457505198383 0.064353665707685692
v 1.2977277829232139 0.5885503233952688 0.068266327835089347
v 1.1840058892416967 0.88627810631848281 -0.11573956140660746
v 1.4817336721649106 0.702272217076786 0.13855032339526885
v 1.1819243391054282 1.3037219951868864 -0.053867936291330243
v 1.491432511343314 1.1124354249480162 0.064353665707685692
v 1.1840058892416967 1.1137218936815172 -0.11573956140660746
v 1.3680117784833936 1 -0.045455565846427848
v 0.81807566089457184 1.3037219951868864 -0.053867936291330243
v 0.81599411075830319 1.1137218936815172 -0.11573956140660746
v -1.3999999999999999 -1.1344567044269893 -0.096554329557301075
v 0.445362913776156 1 -0.033195562933576596
v 0.5 1.0546370862238439 -0.0304637086223844
v -0.65463708622384387 -0.099999999999999881 -0.088195562933576596
v -0.69999999999999996 -0.14536291377615596 -0.090463708622384384
v 1.4000000000000001 1.3049086508420686 0.079509134915793173
v -1.4037571893025997 -1.1000000000000001 -0.10056357839538996
v -0.59999999999999987 -0.045362913776155887 -0.085463708622384379
v 1.5 0.72397421279654417 0.15260257872034558
v -1.4104460486077015 -1.0386573234757936 -0.10770117494357585
v -0.52721748432628024 -1.3211622148557711 0.053033598836635061
v -0.59999999999999987 -1.3899012574365062 0.048990125743650637
v -0.50605526947050905 -1.2999999999999998 0.054091709579423636
v 1.5416410290622282 0.85653400457694362 0.14559275390163984
v 1.5479300114198908 0.90000000000000047 0.14218950171298356
v -0.5 -1.2939447305294909 0.054394473052949074
v -1.4036089691470206 -0.9675712081230059 -0.1137842245597525
v -1.3999999999999999 -0.95698206150642862 -0.11430179384935714
v -0.554637086223844 -0 -0.083195562933576592
v -1.3176237035431158 -1.3371760756608566 -0.063925947965381716
v -1.2999999999999998 -1.3621894327278583 -0.058781056727214162
v 1.5562706967660094 0.95764624075274241 0.13767598043962717
v 1.5519526334414171 1 0.13279289501621253
v -1.3393200762456696 -1.2999999999999998 -0.070898011436850469
v 1.5465650330329994 1.0528443224347752 0.12670032271147239
v 0.67432576351523732 1.2289628497390812 -0.021747420446622541
v -1.3780455833266829 -1.2336450197926705 -0.083342335519735383
v 1.5228853107638549 1.1318743240312434 0.11524536421145387
v 1.4999999999999998 1.17916132666427 0.10708386733357297
v -1.3946503081427517 -1.1835180468973083 -0.090845741531681914
v -0.30605526947050926 -1.1000000000000001 0.064091709579423631
v -0.29999999999999982 -1.0939447305294907 0.064394473052949097
v -1.2781346758501586 -1.3932229302562116 -0.052397908351902646
v 0.80000000000000027 1.3472007955338539 -0.01472007955338534
v 0.78246861434591564 1.3368459200060794 -0.016314299848720626
v -1.3529296925897252 -0.8188721563923167 -0.1210522382492271
v -1.3448097608055012 -0.79999999999999982 -0.1217214641208252
v 0.90000000000000047 0.10605526947050957 0.12439447305294908
v -1.3403559153323616 -0.78964847605251909 -0.12208853969460233
v -1.3256742364847627 -0.77103715026091879 -0.12174742044662254
v -1.2999999999999998 -0.74536291377615582 -0.12046370862238438
v -0.2060552694705092 -1 0.069091709579423621
v 0.90000000000000047 1.3979232459086059 -0.0047923245908605624
v 0.84478746989892628 1.3736544190612816 -0.010647321421289239
v -1.2078691016765937 -1.447431807144651 -0.036437184537023944
v -0.19999999999999996 -0.99394473052949073 0.069394473052949074
v -1.2693502345539185 -1.3999999999999999 -0.050402535183087779
v -0.83741644599643583 -1.5245890030082241 0.026846433401357062
v -0.93700851444336763 -1.5339353943646741 0.012842262269962254
v 1 0.2060552694705092 0.12939447305294907
v 0.90472469676861589 1.4000000000000001 -0.0042912954847076704
v -0.10605526947050907 -0.8999999999999998 0.074091709579423626
v -1.2546370862238438 -0.69999999999999996 -0.11819556293357661
v 0.95028465610641721 1.4200260115288348 0.00054009726307907579
v 1 1.4276023376374198 0.0072397662362579888
v -0.099999999999999867 -0.89394473052949075 0.074394473052949092
v -1.1000000000000003 -1.5074335882569267 -0.014256641174307328
v -1.1285676472029631 -1.4981738562309681 -0.019467761457347615
v -1.1229337227233627 -1.4999999999999998 -0.018440058408504365
v 1.0666675220631554 1.4377620760289098 0.016223920706582299
v -0.0060552694705089914 -0.79999999999999993 0.079091709579423644
v 1.1939447305294912 0.40000000000000036 0.13909170957942363
v 0 -0.79394473052949088 0.079394473052949083
v -1.154637086223844 -0.59999999999999987 -0.11319556293357659
v -1.1000000000000001 -0.54536291377615609 -0.11046370862238439
v -1.0852227546060449 -1.5122233888119987 -0.011561074309706832
v 1.1322728801989668 1.4337112021950207 0.026469811810342924
v 1.2180685820150488 0.42412385148555792 0.1402979021537015
v 1.2939447305294909 0.5 0.1440917095794236
v -1.0546370862238441 -0.5 -0.1081955629335766
v -0.79999999999999982 -1.5117357508491038 0.031173575084910431
v -0.76583665500084852 -1.5000000000000002 0.035124501749872736
v -0.74507665124098021 -1.4928685486810989 0.037525357181962864
v 1.2829415724998985 1.3976946092824976 0.052671774946735007
v 1.2732974008401161 1.4000000000000004 0.05099461012601738
v 1.4881680575305869 0.69829554822408302 0.1533956538071797
v 1.4727825156737198 0.67883778514422899 0.15303359883663506
v 1.4000000000000004 0.60605526947050958 0.14939447305294906
v -0.85463708622384382 -0.29999999999999982 -0.098195562933576577
v 1.4980393497782152 0.71773269112892213 0.15293263335384008
v -0.79999999999999982 -0.24536291377615579 -0.095463708622384374
v 1.3046169718149028 1.3857315971881681 0.057119386053418604
v 0.34536291377615647 0.90000000000000047 -0.03819556293357658
v -0.69999999999999996 -1.4671937229086125 0.041719372290861277
v 0.40000000000000041 0.95463708622384436 -0.035463708622384384
v -0.75463708622384396 -0.19999999999999996 -0.093195562933576601
v -0.65424466899886091 -1.4411323337132083 0.045976533021491704
v -0.61069278624369894 -1.3999999999999997 0.048396082063445124
v 1.4864772983063599 1.2071027445104605 0.10226132029490791
v 1.4393719319058471 1.271546787620518 0.088751111023825283
v 1 -1.3680117784833934 -0.095455565846428003
v 1.595455565846428 -1 0.1319882215166065
v 0.78368810393753674 -1.5663118960624631 0.14999999999999997
v 1.2163118960624633 -1.5663118960624631 0.14999999999999997
v 1 -1 -0.19999999999999996
v 1.5663118960624631 -0.64999999999999991 0.2836881039375368
v 1.5663118960624631 -1.3500000000000001 0.2836881039375368
v 1.3500000000000001 -1.2163118960624633 -0.066311896062463127
v 1.3500000000000001 -0.78368810393753674 -0.066311896062463127
v 0.64999999999999991 -1.2163118960624633 -0.066311896062463127
v 0.88756457505198383 -1.4856463342923143 0.0085674886566859398
v 1.3037219951868864 -1.6038679362913304 0.31807566089457195
v 1.1124354249480162 -1.4856463342923143 0.0085674886566859398
v 1.1137218936815172 -1.6657395614066075 0.31599411075830325
v 1 -1.5954555658464278 0.1319882215166065
v 1 -1.1912865702388702 -0.17335685044874227
v 1.6038679362913304 -0.81807566089457184 0.19627800481311364
v 1.4114496766047311 -0.51826632783508941 0.20227221707678605
v 1.6038679362913304 -1.1819243391054282 0.19627800481311364
v 1.4114496766047311 -1.4817336721649106 0.20227221707678605
v 1.1819243391054282 -1.3037219951868864 -0.10386793629133029
v 1.491432511343314 -1.1124354249480162 0.014353665707685648
v 1.2977277829232139 -1.4114496766047311 0.018266327835089302
v 1.1840058892416967 -1.1137218936815172 -0.16573956140660751
v 1.4817336721649106 -1.2977277829232139 0.088550323395268804
v 1.1819243391054282 -0.69627800481311364 -0.10386793629133029
v 1.491432511343314 -0.88756457505198383 0.014353665707685648
v 1.2977277829232139 -0.5885503233952688 0.018266327835089302
v 1.1840058892416967 -0.88627810631848281 -0.16573956140660751
v 1.4817336721649106 -0.702272217076786 0.088550323395268804
v 1.3680117784833936 -1 -0.095455565846427892
v 1.6733568504487422 -1 0.30871342976112981
v 0.5885503233952688 -1.4817336721649106 0.20227221707678605
v 0.81807566089457184 -1.3037219951868864 -0.10386793629133029
v 0.702272217076786 -1.4114496766047311 0.018266327835089302
v 0.81599411075830319 -1.1137218936815172 -0.16573956140660751
v -0.6460445994387839 0.20000000000000015 -0.1169066899158176
v -0.63114597391502303 0.16885402608497713 -0.11155729869575116
v 0.02529466809316875 -0.79999999999999971 0.083794200213975295
v -0.69585986308054204 0.30414013691945818 -0.13479299315402712
v -0.69387943537748187 0.30000000000000027 -0.13408191530662231
v 0.26007727678882114 -1.1000000000000001 0.14901159151832319
v -0.69999999999999996 0.31279520354237633 -0.1362795203542376
v 1.6705708287539582 -1.1000000000000001 0.36058562431309371
v 1.6793728727242681 -1 0.3519059309086402
v 1.66801522173822 -1.1290342450498836 0.36310570776572132
v 0.011531280870090749 -0.78241344965940018 0.079971037096453632
v 0.013799207322751134 -0.78531135568224408 0.080601016666637076
v 0.4093116430766558 -1.2906883569233443 0.1904655821538328
v 0.41659901591925574 -1.3 0.19248985238788835
v 0.40000000000000036 -1.2787901463253957 0.18787901463253961
v 0.012063276682087017 -0.69711418284585813 0.0039831025230329777
v 0.0083248056375877146 -0.71750226516553284 0.018266327835089306
v 0.71972745123575865 0.010549991707813634 0.03936631125071658
v 0.0099557431551560039 -0.7414127982734966 0.040545923425484742
v 0.5953962256648816 -1.4999999999999998 0.23930943384973224
v 0.57557365116228087 -1.4834299568896019 0.23467904336330236
v 0.63066966637141331 -1.5294856973841926 0.24754901969413129
v 0 0.58030110009646385 -0.058030110009646377
v 0.015660869407225185 0.570297955631069 -0.054680665152023133
v 0.90000000000000036 -1.660012810027528 0.30100128100275286
v 0.8959359091779886 -1.6597707109827871 0.30036745747497701
v 0.87425984324413664 -1.6540917613165285 0.29654815261827333
v 0.85408413362538038 -1.6459158663746198 0.29270420668126906
v -9.90753726277529e-17 -9.90753726277529e-17 -0.19999999999999996
v 1.5407261807998878e-16 1.5407261807998878e-16 -0.19999999999999993
v 0.72250975184667221 -1.5925973788073091 0.2676362006577318
v 0.80000000000000027 -1.6239991059284746 0.28239991059284753
v 0.5 -1.3988961751963622 0.21488961751963617
v 0.8620057085604389 -0.037994291439561297 0.13310028542802196
v 0.90000000000000036 -0.067353516642858755 0.14173535166428591
v -0.17367752566751049 0.017609044571359696 -0.18204072673211777
v 0.017069615821728484 0.14407941121286907 -0.18145609290844147
v 0.02570816097906526 0.21699473121793544 -0.17207144239978897
v 0.81283662552100666 0 0.121925493828151
v 0.45181552879928766 -1.3449988775689294 0.20227221707678605
v 0.41811117408762655 -1.3019322021040292 0.19290989632354688
v 1 -1.6658495723387461 0.31658495723387459
v 0.99613436411761647 -1.6657395614066075 0.31599411075830325
v 0.93773906325401113 -1.6622609367459893 0.30688695316270065
v 0.57584924447289976 0.0095373484104364047 -0.055019433838818112
v 0.55231643686687093 0.013995459195592379 -0.066311896062463127
v 0.017836135395770922 -0.54847576066669246 -0.082920089292674568
v -0.74171427131617995 0.40000000000000036 -0.15125714069742702
v 0.74077724875833284 -1.6000000000000001 0.27111658731374999
v -0.74419483908681172 0.40518569306647351 -0.15214779516966909
v 1.4614058227144913 -0.53859417728550885 0.27307029113572456
v 1.4999999999999998 -0.57674342826242875 0.28267434282624282
v 0.50288066052394764 0.017234326231633131 -0.087820120220404266
v 0.011770571618954735 -0.49741690591126925 -0.10386793629133029
v 0.012838804786327641 -0.47280752950598687 -0.11232221300728529
v 1.2815272037927343 -1.6175850717461298 0.35398758774352324
v 1.1216940405189197 -1.6665224712238351 0.3349063532002215
v 1.4374080877631719 -0.51487309607776832 0.2670985227722526
v 1.4207287847584757 -0.5 0.26310931771377138
v -0.78204935879571547 0.48432157587250158 -0.16573956140660748
v -0.78294089190235461 0.5 -0.16744113378535319
v 1.1964405408382648 -0.29999999999999982 0.20946608112573969
v 1.2366728377977751 -0.33587552896782452 0.21908847856644872
v 1.1035728324348886 -1.6687971194401949 0.33241563680925285
v 1.4000000000000004 -0.48151594181115487 0.25815159418111555
v -0.69999999999999984 0.81623958525096285 -0.18662395852509631
v -0.78532616165625757 0.54194714765127061 -0.17199363901356571
v -0.19999999999999996 0.69502313303481844 -0.099502313303481832
v 0.018928233904666962 -0.15266977885514418 -0.1846099549623052
v 0.032841062809838992 -0.264886720113375 -0.17329780272820039
v 0.017763110135154799 -0.14327222020671504 -0.18555728620184891
v 0.3070723189482209 0.0093445360250069814 -0.15958623992128126
v 0.2716857141502475 0.026042068772966449 -0.16573956140660753
v 0.15349544614583729 0.014713099573047377 -0.18064373269130882
v -0.099999999999999867 0.63922576951593113 -0.078922576951593076
v -0.79999999999999982 0.79999999999999982 -0.19999999999999996
v 1.5 -1.4669784690903662 0.37169784690903657
v 1.497983346267344 -1.4698017863125652 0.37167768057135814
v 1.5782748943298963 -1.3573935395366299 0.37248058810314749
v 1.0716601549327713 -0.19999999999999996 0.18074902323991568
v 0.13013763456862854 0.012474167955379532 -0.18358922753162432
v 1.1663622078150009 -0.27317885904535921 0.20227221707678608
v 1.6485605417560756 -1.2126861974911085 0.36855270101252213
v 1.6061514486732353 -1.3 0.37092271730098531
v 1 -0.14462624391558576 0.16446262439155857
v 0.012965433736221684 -0.31069321665943561 -0.16573956140660751
v 0.012899776315673824 -0.3947498847775765 -0.13804253547896464
v 0.38799453961631414 0.01555186823873975 -0.13089909331925356
v 1.6595642367522241 -1.1837981324896818 0.3673144487618018
v 1.4000000000000004 -1.5463114810415675 0.36463114810415692
v 1.478974201794466 -1.4905603434844044 0.37090216461761033
v -0.60973027888224696 0.12408394458993242 -0.10386793629133029
v -0.59999999999999987 0.10769961225903427 -0.10076996122590341
v 0.5009868252547498 -1.3999999999999999 0.21514802378821243
v 1.4326306926461223 -1.5241979798160452 0.36731440187852288
v 0.39555077653625487 0.016131487439257297 -0.12822038684663867
v 0.46424545729290434 0.021400876999410141 -0.10386793629133027
v 0.012877751348050246 -0.42294693209379136 -0.12875148971085831
v -0.54296905082799318 0.011668035395850858 -0.082612161163784045
v -0.53882427051766923 0.011884937695953203 -0.084642860807945461
v 1.6700395504643222 -0.91986614527317467 0.34249254709696575
v 1.646993579059167 -0.81662478276727513 0.32871151513560254
v -0.52444196405933874 0.012637584427028073 -0.091689348780879545
v 0.015051208447084553 0.38811341252345072 -0.13102479551747068
v 0.015076073368563961 0.3608198175161258 -0.14000294393841753
v 0.015119776897559107 0.31284755982077306 -0.15578327809964468
v -0.39552314219149454 0.016156522575808806 -0.1388602168081981
v -0.38802028395265176 0.015580028979339279 -0.1411407018025875
v -0.30708936053056018 0.0093615776073462005 -0.16573956140660751
v -0.27743088988006337 0.020296893043150577 -0.17041081143852582
v -0.59999999999999987 0.8324791705019261 -0.1732479170501926
v -0.46421199832224624 0.021434335970068302 -0.11798231925217116
v 0.014975997708675548 0.47067033658363894 -0.10386793629133029
v 0.010323069976173323 0.49596940426848785 -0.094255565837250171
v -0.5517089975301428 0.026384796657814499 -0.085394829295302871
v -0.49958473326895347 0.013938398976638896 -0.1038679362913303
v -0.51929622198827097 0.012906868492137197 -0.094210461074005505
v 0.015948056429069959 0.5559512413001374 -0.063004083474794859
v 0.016062187523896033 0.55024970853856736 -0.066311896062463127
v 1.5890558968409949 -0.68797102316795888 0.30715548684294514
v 1.5944730027170697 -0.69999999999999984 0.30917095040756043
v 1.6395068069359395 -0.79999999999999982 0.32592602104039087
v -0.52198017962708643 0.012766413138258369 -0.092895478996786268
v 0.028116206459844854 0.27966394998540423 -0.16242984726959037
v 0.034587886141980204 0.26313989678123373 -0.16573956140660751
v -0.17836787415526345 0.017730553363972404 -0.18151497649718329
v -0.21833638718664763 0.018765982985811721 -0.17703482855698197
v 1.5685287681384217 -0.648629897708347 0.30014230499159794
v 1.5562325841662719 -0.63232774479209763 0.29666766210415052
v -0.57750438732517984 0.83613236469998009 -0.170238894568775
v -0.54386713245714446 0.84159491538035847 -0.16573956140660751
v -0.5 0.82327666811354616 -0.15732766681135463
v 0.015898239124266206 0.5584399144865706 -0.061560249888822652
v 0.80217965911553624 0.0082349285860453952 0.11950345600872589
v 0.80542555333846666 0.0057267375955990961 0.12024115924121008
v 0.015831691677848474 0.56176435859645879 -0.059631533781496542
v 0.015770099230093988 0.56484127080230895 -0.057846426275974076
v 0.015686831357932574 0.56900100046965585 -0.055433109238195985
v 0.69298647779262601 0.016190981735319038 0.018266327835089302
v 0.67921886988731317 0.015408953577690692 0.0096527589196055315
v 0.013459787315494381 -0.60151679237604339 -0.053438515991686739
v -0.49145580573900299 0.81970874255284243 -0.15568924511613469
v -0.29999999999999982 0.73975971024214615 -0.11897597102421459
v 0.011635308801173841 -0.77540827186917238 0.072861831375142808
v 0.01162361865344573 -0.77619547932756139 0.073660728981259874
v 0.94224839022688867 -0.099999999999999853 0.15133725853403329
v 0.79754351476172802 0.0080502461087179535 0.11468262917759019
v 0.78709550080410451 0.0076340457159798387 0.10381841482722853
v 0.011749601760119768 -0.76771185332800485 0.06505111987502929
v 0.013772871701162218 -0.58008476776362561 -0.066311896062463127
v 0.01160717270421221 -0.77730293957511598 0.074784635178048051
v 0.79760698226603099 0.0080527743595725371 0.11474862493274776
v -0.22121321144839534 0.70685954574070986 -0.10386793629133029
v 0.79870071104526319 0.0080963434387593958 0.11588592279116681
v 0.80014617113626951 0.0081539238612210012 0.11738896330463487
v 1.3177850030635812 -1.6020277802702296 0.35787052848656015
v 1.3207771965691197 -1.6000000000000003 0.35811657948536801
v 0.80200293167144332 0.0082278885847649839 0.11931968856335262
v 0.80213247558818423 0.0082330490132677993 0.1194543929085962
v -0.0091172214869899067 0.58612458800673817 -0.059980042023722299
v -0.038722825824867163 0.60503472188733054 -0.066311896062463127
v 0.011587180679731615 -0.77864919037925129 0.076150878006663952
v 0.01156065989449665 -0.78043508397314765 0.077963292385795177
v 0.75319508345761388 0.0091013850068807252 0.071385336771638899
v 1.5235278080095465 -0.59999999999999987 0.2885291712014319
f 70 71 45
f 45 71 46
f 72 73 47
f 47 73 48
f 89 90 64
f 64 90 65
f 91 92 66
f 66 92 67
f 158 159 135
f 135 159 136
f 159 160 136
f 136 160 137
f 160 161 137
f 138 162 139
f 143 167 144
f 170 171 147
f 148 172 149
f 158 180 159
f 180 181 159
f 159 181 160
f 187 188 166
f 195 196 181
f 181 196 182
f 197 198 183
f 183 198 184
f 199 200 187
f 187 200 188
f 189 202 190
f 204 205 193
f 193 205 194
f 195 211 196
f 211 212 196
f 213 214 197
f 197 214 198
f 217 218 199
f 199 218 200
f 219 220 201
f 221 222 203
f 223 224 204
f 204 224 205
f 211 225 212
f 226 227 213
f 213 227 214
f 251 252 234
f 234 252 235
f 253 254 236
f 256 257 239
f 239 257 240
f 258 259 241
f 241 259 242
f 260 261 243
f 243 261 244
f 276 277 262
f 262 277 263
f 284 285 270
f 270 285 271
f 286 287 272
f 272 287 273
f 276 290 277
f 290 291 277
f 277 291 278
f 294 295 290
f 290 295 291
f 296 297 292
f 309 310 294
f 294 310 295
f 311 312 296
f 296 312 297
f 318 319 302
f 302 319 303
f 320 321 304
f 304 321 305
f 350 351 334
f 334 351 335
f 370 371 357
f 357 371 358
f 372 373 359
f 359 373 360
f 374 375 361
f 361 375 362
f 378 379 367
f 367 379 368
f 378 380 379
f 396 397 387
f 387 397 388
f 422 423 407
f 407 423 408
f 425 426 409
f 409 426 410
f 429 430 413
f 413 430 414
f 425 435 426
f 426 436 427
f 437 438 436
f 465 466 440
f 440 466 441
f 467 468 442
f 442 468 443
f 469 470 444
f 471 472 445
f 445 472 446
f 472 473 446
f 446 473 447
f 474 475 448
f 448 475 449
f 251 531 530
f 283 542 539
f 534 545 269
f 301 558 557
f 317 572 568
f 569 577 391
f 567 579 180
f 333 582 578
f 349 589 587
f 591 596 211
f 607 612 233
f 364 611 528
f 538 614 268
f 518 520 513
f 500 506 494
f 500 504 495
f 513 519 516
f 499 502 494
f 494 502 500
f 502 504 500
f 513 524 519
f 494 506 498
f 498 499 494
f 495 509 507
f 495 507 500
f 509 510 507
f 500 507 506
f 507 510 497
f 506 507 497
f 499 503 502
f 501 509 495
f 525 526 515
f 519 523 512
f 512 523 515
f 515 523 521
f 519 524 523
f 511 525 515
f 515 521 511
f 502 503 496
f 513 520 517
f 517 524 513
f 521 523 514
f 523 524 514
f 514 524 522
f 522 524 517
f 520 603 602
f 181 579 195
f 579 590 195
f 180 579 181
f 349 582 333
f 349 587 582
f 458 540 535
f 458 535 457
f 457 535 430
f 458 541 540
f 460 555 554
f 431 555 460
f 460 554 459
f 459 554 551
f 459 551 549
f 459 548 458
f 459 549 548
f 458 548 541
f 609 611 364
f 351 609 364
f 350 609 351
f 225 605 226
f 596 605 225
f 211 596 225
f 605 607 233
f 227 605 233
f 226 605 227
f 249 598 232
f 250 598 249
f 232 598 597
f 234 531 251
f 233 612 234
f 234 612 531
f 364 529 365
f 365 529 376
f 528 529 364
f 267 613 250
f 268 613 267
f 268 614 613
f 250 613 610
f 252 534 269
f 530 534 252
f 251 530 252
f 529 552 376
f 376 561 382
f 382 561 560
f 552 561 376
f 282 538 268
f 283 537 282
f 283 539 537
f 537 538 282
f 300 557 542
f 301 557 300
f 300 542 283
f 431 616 615
f 431 615 555
f 532 616 431
f 415 532 431
f 156 547 546
f 179 547 156
f 156 546 157
f 546 550 157
f 550 553 157
f 553 556 157
f 157 556 527
f 544 562 158
f 562 563 158
f 158 566 180
f 565 566 158
f 566 567 180
f 563 565 158
f 391 570 569
f 382 570 391
f 560 570 382
f 178 584 571
f 571 573 178
f 178 573 179
f 178 585 584
f 400 564 390
f 400 576 564
f 392 580 401
f 577 580 392
f 391 577 392
f 580 581 401
f 179 573 559
f 179 559 547
f 333 578 317
f 317 578 572
f 316 558 301
f 317 568 316
f 316 568 558
f 195 590 211
f 590 591 211
f 574 575 232
f 575 592 210
f 210 592 583
f 232 575 210
f 232 597 574
f 415 601 600
f 600 608 415
f 415 608 532
f 250 610 599
f 250 599 598
f 547 559 506
f 546 547 506
f 497 546 506
f 525 561 552
f 560 561 525
f 525 570 560
f 499 575 574
f 510 536 533
f 510 533 497
f 497 533 527
f 527 556 497
f 571 584 498
f 506 573 571
f 506 571 498
f 559 573 506
f 584 585 498
f 583 592 498
f 498 585 583
f 412 588 576
f 413 588 412
f 412 576 400
f 498 592 499
f 499 592 575
f 598 599 503
f 597 598 503
f 499 597 503
f 574 597 499
f 497 550 546
f 497 553 550
f 497 556 553
f 602 606 520
f 414 595 413
f 413 595 594
f 413 594 588
f 508 566 509
f 509 566 565
f 157 527 133
f 133 527 134
f 527 533 134
f 509 563 562
f 509 562 510
f 509 565 563
f 414 604 595
f 543 544 135
f 135 544 158
f 134 543 135
f 536 543 134
f 533 536 134
f 569 570 525
f 511 569 525
f 511 577 569
f 511 580 577
f 416 601 415
f 593 601 416
f 586 593 401
f 401 593 416
f 581 586 401
f 511 586 581
f 511 581 580
f 521 593 511
f 511 593 586
f 520 535 517
f 535 540 517
f 520 606 535
f 541 548 517
f 540 541 517
f 503 538 505
f 505 538 537
f 503 614 538
f 613 614 503
f 610 613 503
f 599 610 503
f 510 562 544
f 510 544 543
f 510 543 536
f 600 601 521
f 521 601 593
f 521 608 600
f 514 608 521
f 514 616 532
f 532 608 514
f 517 549 522
f 548 549 517
f 549 551 522
f 522 615 514
f 615 616 514
f 551 554 522
f 430 604 414
f 602 603 430
f 430 606 602
f 603 604 430
f 535 606 430
f 555 615 522
f 554 555 522
f 177 585 178
f 210 585 177
f 583 585 210
f 508 534 530
f 508 590 579
f 508 605 596
f 508 596 591
f 508 591 590
f 508 579 567
f 508 567 566
f 508 607 605
f 508 612 607
f 531 612 508
f 530 531 508
f 508 545 534
f 525 611 609
f 528 611 525
f 525 529 528
f 525 552 529
f 537 539 505
f 564 576 520
f 576 588 520
f 588 594 520
f 587 589 505
f 582 587 505
f 578 582 505
f 572 578 505
f 568 572 505
f 558 568 505
f 557 558 505
f 542 557 505
f 539 542 505
f 595 604 520
f 520 604 603
f 594 595 520
f 255 657 656
f 656 659 255
f 363 666 665
f 655 664 349
f 665 667 363
f 680 684 381
f 686 687 390
f 390 691 686
f 389 696 677
f 703 704 424
f 724 740 519
f 759 764 508
f 508 775 755
f 769 775 508
f 525 785 770
f 758 776 526
f 525 788 785
f 390 787 691
f 525 789 788
f 525 790 789
f 505 797 796
f 399 798 737
f 520 800 799
f 796 801 505
f 505 803 797
f 799 804 520
f 804 806 520
f 806 807 520
f 807 810 520
f 810 811 520
f 505 814 803
f 505 815 814
f 632 640 621
f 621 652 632
f 632 652 650
f 650 651 627
f 624 647 640
f 635 648 618
f 640 647 645
f 642 645 625
f 645 647 625
f 640 645 621
f 619 651 649
f 627 651 619
f 628 636 620
f 632 650 617
f 617 650 627
f 626 651 650
f 634 646 622
f 638 647 624
f 624 641 638
f 638 641 635
f 618 638 635
f 625 647 643
f 643 647 638
f 618 643 638
f 643 646 625
f 620 630 628
f 624 640 637
f 637 640 632
f 617 637 632
f 622 646 633
f 633 646 643
f 633 643 618
f 618 648 633
f 635 641 623
f 623 641 636
f 620 631 630
f 619 631 627
f 629 637 617
f 629 631 620
f 627 629 617
f 627 631 629
f 639 641 624
f 637 639 624
f 636 641 639
f 629 639 637
f 636 639 620
f 620 639 629
f 625 646 644
f 644 646 634
f 630 716 709
f 780 781 622
f 708 808 628
f 669 671 651
f 649 693 692
f 642 749 748
f 254 253 654
f 653 254 654
f 217 236 237
f 216 236 217
f 235 236 216
f 293 308 309
f 294 293 309
f 2 1 26
f 27 2 26
f 655 349 348
f 655 348 658
f 21 20 45
f 46 21 45
f 100 99 124
f 125 100 124
f 589 349 664
f 663 589 664
f 417 416 432
f 433 417 432
f 432 460 461
f 431 460 432
f 798 399 400
f 687 798 400
f 687 400 390
f 329 328 344
f 345 329 344
f 218 237 238
f 217 237 218
f 503 505 668
f 669 668 505
f 671 669 505
f 801 671 505
f 296 295 310
f 311 296 310
f 183 182 196
f 197 183 196
f 22 21 46
f 47 22 46
f 520 518 800
f 816 518 670
f 800 518 816
f 102 101 126
f 127 102 126
f 418 417 433
f 434 418 433
f 609 350 676
f 675 676 350
f 433 461 462
f 432 461 433
f 298 297 312
f 313 298 312
f 329 345 346
f 330 329 346
f 219 238 239
f 218 238 219
f 381 389 679
f 678 679 389
f 680 381 679
f 677 678 389
f 103 102 127
f 128 103 127
f 23 22 47
f 48 23 47
f 185 184 198
f 215 185 198
f 214 215 198
f 501 495 681
f 688 501 681
f 298 313 314
f 299 298 314
f 434 462 463
f 433 462 434
f 689 682 512
f 690 689 512
f 515 690 512
f 420 439 440
f 419 439 420
f 104 103 128
f 129 104 128
f 220 219 240
f 239 240 219
f 492 491 493
f 490 491 492
f 300 299 314
f 315 300 314
f 362 375 685
f 692 362 685
f 363 362 692
f 693 363 692
f 666 363 693
f 24 23 48
f 49 24 48
f 105 104 129
f 130 105 129
f 331 330 346
f 347 331 346
f 389 398 696
f 695 696 398
f 694 695 398
f 437 453 454
f 435 453 437
f 393 392 401
f 402 393 401
f 186 215 216
f 185 215 186
f 705 698 516
f 513 516 697
f 697 516 698
f 221 240 241
f 220 240 221
f 106 105 130
f 131 106 130
f 421 440 441
f 420 440 421
f 502 496 707
f 706 496 699
f 707 496 706
f 25 24 49
f 50 25 49
f 301 300 315
f 316 301 315
f 2 27 28
f 3 2 28
f 222 241 242
f 221 241 222
f 237 700 702
f 712 238 237
f 712 237 702
f 713 238 712
f 394 393 402
f 403 394 402
f 332 331 347
f 348 332 347
f 26 51 52
f 27 26 52
f 710 424 711
f 703 424 710
f 107 106 131
f 132 107 131
f 199 216 217
f 186 216 199
f 187 186 199
f 438 454 455
f 437 454 438
f 396 404 405
f 395 404 396
f 409 714 715
f 717 409 715
f 422 441 442
f 421 441 422
f 223 242 243
f 222 242 223
f 108 107 132
f 133 108 132
f 4 3 28
f 29 4 28
f 28 27 52
f 53 28 52
f 728 239 238
f 239 718 256
f 728 718 239
f 719 728 238
f 713 719 238
f 397 405 406
f 396 405 397
f 423 442 443
f 422 442 423
f 352 364 365
f 351 364 352
f 334 318 720
f 727 334 720
f 109 108 133
f 134 109 133
f 189 188 200
f 201 189 200
f 224 243 244
f 223 243 224
f 519 512 724
f 725 512 726
f 724 512 725
f 398 406 407
f 397 406 398
f 333 332 348
f 349 333 348
f 440 439 464
f 465 440 464
f 721 504 722
f 723 504 721
f 5 4 29
f 30 5 29
f 304 303 319
f 320 304 319
f 29 28 53
f 54 29 53
f 381 701 372
f 373 372 701
f 684 701 381
f 189 201 202
f 220 202 201
f 109 134 135
f 110 109 135
f 353 352 366
f 365 366 352
f 306 305 321
f 322 306 321
f 714 409 410
f 734 410 732
f 714 410 734
f 423 443 444
f 729 423 444
f 731 729 444
f 736 731 444
f 736 444 445
f 442 441 466
f 467 442 466
f 111 110 135
f 136 111 135
f 512 682 733
f 726 512 733
f 6 5 30
f 31 6 30
f 30 29 54
f 55 30 54
f 495 504 723
f 681 495 723
f 112 111 136
f 137 112 136
f 191 190 202
f 203 191 202
f 354 366 367
f 353 366 354
f 307 306 322
f 323 307 322
f 7 6 31
f 32 7 31
f 683 674 373
f 672 374 373
f 672 373 674
f 701 683 373
f 444 443 468
f 469 444 468
f 113 112 137
f 161 113 137
f 192 191 203
f 222 192 203
f 504 502 739
f 738 504 739
f 722 504 738
f 31 30 55
f 56 31 55
f 309 308 324
f 325 309 324
f 336 335 351
f 352 336 351
f 355 354 368
f 367 368 354
f 138 161 183
f 182 183 161
f 113 161 138
f 114 113 138
f 747 408 423
f 730 743 423
f 742 408 747
f 743 747 423
f 729 730 423
f 8 7 32
f 33 8 32
f 445 444 470
f 471 445 470
f 309 325 326
f 310 309 326
f 204 222 223
f 192 222 204
f 193 192 204
f 374 746 375
f 673 746 374
f 672 673 374
f 32 31 56
f 57 32 56
f 115 114 138
f 139 115 138
f 337 336 352
f 353 337 352
f 229 228 245
f 246 229 245
f 519 740 748
f 749 519 748
f 516 519 749
f 705 516 749
f 311 310 326
f 327 311 326
f 9 8 33
f 34 9 33
f 448 447 473
f 474 448 473
f 502 707 750
f 739 502 750
f 115 139 140
f 116 115 140
f 197 196 212
f 213 197 212
f 33 32 57
f 58 33 57
f 657 255 254
f 657 254 653
f 337 353 354
f 338 337 354
f 312 311 327
f 328 312 327
f 545 508 752
f 751 545 752
f 229 246 247
f 230 229 247
f 9 34 35
f 10 9 35
f 117 116 140
f 141 117 140
f 746 685 375
f 449 475 476
f 450 449 476
f 752 508 755
f 201 200 218
f 219 201 218
f 312 328 329
f 313 312 329
f 33 58 59
f 34 33 59
f 11 10 35
f 36 11 35
f 761 760 508
f 759 508 760
f 762 761 509
f 509 761 508
f 166 143 142
f 117 141 142
f 118 117 142
f 143 118 142
f 231 230 247
f 248 231 247
f 339 338 354
f 355 339 354
f 526 756 757
f 758 526 757
f 314 313 329
f 330 314 329
f 451 450 476
f 477 451 476
f 763 270 256
f 763 256 718
f 817 450 451
f 817 451 424
f 704 817 424
f 119 118 143
f 144 119 143
f 35 34 59
f 60 35 59
f 765 526 766
f 525 766 526
f 756 526 765
f 203 202 220
f 221 203 220
f 315 314 330
f 331 315 330
f 231 248 249
f 232 231 249
f 745 269 767
f 12 11 36
f 37 12 36
f 120 119 144
f 145 120 144
f 508 764 768
f 769 508 768
f 452 451 477
f 478 452 477
f 425 451 452
f 424 451 425
f 525 770 771
f 766 525 771
f 316 315 331
f 332 316 331
f 35 60 61
f 36 35 61
f 269 545 767
f 545 751 767
f 341 356 357
f 340 356 341
f 121 120 145
f 146 121 145
f 357 356 369
f 370 357 369
f 207 206 229
f 228 229 206
f 317 316 332
f 333 317 332
f 782 270 763
f 783 270 782
f 284 270 783
f 784 284 783
f 453 452 478
f 479 453 478
f 122 121 146
f 147 122 146
f 13 12 37
f 38 13 37
f 515 526 690
f 777 690 526
f 776 777 526
f 37 36 61
f 62 37 61
f 435 452 453
f 425 452 435
f 123 122 147
f 171 123 147
f 501 688 778
f 779 501 778
f 358 371 372
f 359 358 372
f 342 357 358
f 341 357 342
f 319 318 334
f 335 319 334
f 509 501 762
f 762 501 779
f 453 479 480
f 454 453 480
f 148 171 193
f 192 193 171
f 123 171 148
f 124 123 148
f 208 229 230
f 207 229 208
f 786 787 564
f 390 564 787
f 37 62 63
f 38 37 63
f 496 503 668
f 793 496 668
f 14 13 38
f 39 14 38
f 732 410 411
f 732 411 399
f 737 732 399
f 791 518 792
f 670 518 791
f 361 360 373
f 374 361 373
f 426 435 436
f 437 436 435
f 320 319 335
f 336 320 335
f 209 230 231
f 208 230 209
f 455 454 480
f 481 455 480
f 284 784 794
f 302 284 794
f 795 302 794
f 125 124 148
f 149 125 148
f 428 427 436
f 438 428 436
f 609 790 525
f 676 790 609
f 39 38 63
f 64 39 63
f 400 411 412
f 399 411 400
f 792 518 697
f 513 697 518
f 343 358 359
f 342 358 343
f 236 235 252
f 253 236 252
f 496 793 802
f 699 496 802
f 127 126 150
f 151 127 150
f 14 39 40
f 15 14 40
f 455 481 482
f 456 455 482
f 320 336 337
f 321 320 337
f 318 302 795
f 805 318 795
f 720 318 805
f 210 231 232
f 209 231 210
f 40 39 64
f 65 40 64
f 322 321 337
f 338 322 337
f 16 15 40
f 41 16 40
f 236 254 255
f 237 236 255
f 659 237 255
f 700 237 659
f 128 127 151
f 152 128 151
f 344 343 360
f 359 360 343
f 407 408 809
f 808 407 809
f 708 407 808
f 709 407 708
f 398 407 709
f 716 398 709
f 694 398 716
f 457 456 482
f 483 457 482
f 813 334 727
f 812 334 813
f 402 416 417
f 401 416 402
f 429 438 456
f 455 456 438
f 428 438 429
f 564 520 811
f 786 564 811
f 40 65 66
f 41 40 66
f 129 128 152
f 153 129 152
f 17 16 41
f 42 17 41
f 350 334 812
f 675 350 812
f 458 457 483
f 484 458 483
f 430 429 457
f 456 457 429
f 322 338 339
f 323 322 339
f 809 408 742
f 42 41 66
f 67 42 66
f 213 212 225
f 226 213 225
f 130 129 153
f 154 130 153
f 459 458 484
f 485 459 484
f 345 360 361
f 344 360 345
f 403 417 418
f 402 417 403
f 662 446 447
f 735 445 446
f 741 446 662
f 735 446 741
f 736 445 735
f 660 662 447
f 43 42 67
f 68 43 67
f 18 17 42
f 43 18 42
f 325 324 340
f 341 325 340
f 589 663 815
f 505 589 815
f 241 240 257
f 258 241 257
f 346 361 362
f 345 361 346
f 131 130 154
f 155 131 154
f 460 459 485
f 486 460 485
f 215 214 227
f 234 215 227
f 233 234 227
f 326 325 341
f 342 326 341
f 754 448 774
f 753 448 754
f 661 447 448
f 661 448 753
f 660 447 661
f 44 43 68
f 69 44 68
f 19 18 43
f 44 19 43
f 131 155 156
f 132 131 156
f 774 448 449
f 774 449 773
f 243 242 259
f 260 243 259
f 347 362 363
f 346 362 347
f 326 342 343
f 327 326 343
f 461 460 486
f 487 461 486
f 216 234 235
f 215 234 216
f 781 450 817
f 780 450 781
f 772 450 780
f 773 450 772
f 449 450 773
f 133 132 156
f 157 133 156
f 45 44 69
f 70 45 69
f 19 44 45
f 20 19 45
f 347 658 348
f 363 658 347
f 667 658 363
f 328 327 343
f 344 328 343
f 246 245 262
f 263 246 262
f 162 183 184
f 138 183 162
f 462 461 487
f 488 462 487
f 662 660 648
f 648 660 661
f 140 139 162
f 163 140 162
f 47 46 71
f 72 47 71
f 649 672 674
f 673 672 649
f 405 404 419
f 420 405 419
f 674 683 619
f 674 619 649
f 247 246 263
f 264 247 263
f 140 163 164
f 141 140 164
f 366 365 376
f 377 366 376
f 406 405 420
f 421 406 420
f 463 462 488
f 489 463 488
f 683 701 619
f 701 684 619
f 680 619 684
f 679 619 680
f 141 164 165
f 142 141 165
f 708 628 630
f 708 630 709
f 49 48 73
f 74 49 73
f 142 165 166
f 187 166 165
f 247 264 265
f 248 247 265
f 695 694 630
f 630 694 716
f 407 406 421
f 422 407 421
f 366 377 378
f 367 366 378
f 729 731 623
f 730 729 623
f 143 166 167
f 188 167 166
f 50 49 74
f 75 50 74
f 736 735 623
f 731 736 623
f 145 144 167
f 168 145 167
f 735 741 635
f 623 735 635
f 249 248 265
f 266 249 265
f 146 145 168
f 169 146 168
f 623 636 730
f 743 730 636
f 370 369 387
f 386 387 369
f 147 146 169
f 170 147 169
f 52 51 76
f 77 52 76
f 172 193 194
f 148 193 172
f 631 677 696
f 678 677 631
f 695 631 696
f 630 631 695
f 250 249 266
f 267 250 266
f 631 619 679
f 678 631 679
f 151 150 173
f 174 151 173
f 371 387 388
f 370 387 371
f 648 753 633
f 633 753 754
f 717 424 425
f 717 425 409
f 711 424 717
f 661 753 648
f 53 52 77
f 78 53 77
f 152 151 174
f 175 152 174
f 54 53 78
f 79 54 78
f 622 633 773
f 772 622 773
f 774 773 633
f 754 774 633
f 410 426 427
f 411 410 427
f 772 780 622
f 372 371 381
f 388 381 371
f 389 381 388
f 153 152 175
f 176 153 175
f 55 54 79
f 80 55 79
f 746 673 649
f 685 746 649
f 692 685 649
f 412 411 427
f 428 412 427
f 56 55 80
f 81 56 80
f 154 153 176
f 177 154 176
f 253 252 269
f 745 253 269
f 744 253 745
f 654 253 744
f 704 703 634
f 634 703 710
f 817 704 634
f 622 817 634
f 781 817 622
f 412 428 429
f 413 412 429
f 636 628 747
f 743 636 747
f 57 56 81
f 82 57 81
f 155 154 177
f 178 155 177
f 58 57 82
f 83 58 82
f 156 155 178
f 179 156 178
f 160 181 182
f 161 160 182
f 163 162 184
f 185 163 184
f 416 415 431
f 432 416 431
f 164 163 185
f 186 164 185
f 165 164 186
f 187 165 186
f 168 167 188
f 189 168 188
f 671 658 651
f 655 658 671
f 801 655 671
f 796 655 801
f 797 655 796
f 664 655 797
f 803 664 797
f 814 664 803
f 815 664 814
f 663 664 815
f 667 651 658
f 665 651 667
f 666 651 665
f 693 651 666
f 649 651 693
f 169 168 189
f 190 169 189
f 26 1 490
f 51 26 490
f 76 51 490
f 101 76 490
f 126 101 490
f 150 126 490
f 173 150 490
f 206 173 490
f 228 206 490
f 245 228 490
f 262 245 490
f 276 262 490
f 293 276 490
f 492 293 490
f 308 293 492
f 324 308 492
f 340 324 492
f 356 340 492
f 369 356 492
f 386 369 492
f 395 386 492
f 404 395 492
f 419 404 492
f 439 419 492
f 464 439 492
f 170 169 190
f 191 170 190
f 742 747 628
f 809 742 628
f 808 809 628
f 171 170 191
f 192 171 191
f 59 58 83
f 84 59 83
f 648 635 662
f 741 662 635
f 174 206 207
f 173 206 174
f 60 59 84
f 85 60 84
f 668 669 626
f 651 626 669
f 793 668 626
f 802 793 626
f 175 174 208
f 207 208 174
f 61 60 85
f 86 61 85
f 626 650 706
f 699 626 706
f 802 626 699
f 176 208 209
f 175 208 176
f 257 256 270
f 271 257 270
f 177 209 210
f 176 209 177
f 61 86 87
f 62 61 87
f 257 271 272
f 258 257 272
f 744 745 768
f 767 769 768
f 767 775 769
f 767 755 775
f 767 768 745
f 752 755 767
f 751 752 767
f 63 62 87
f 88 63 87
f 259 258 272
f 273 259 272
f 64 63 88
f 89 64 88
f 259 273 274
f 260 259 274
f 66 65 90
f 91 66 90
f 657 653 760
f 759 760 653
f 656 657 760
f 659 656 760
f 700 659 760
f 702 700 760
f 654 759 653
f 764 759 654
f 744 764 654
f 768 764 744
f 260 274 275
f 261 260 275
f 750 707 650
f 706 650 707
f 68 67 92
f 93 68 92
f 650 652 750
f 738 739 652
f 652 739 750
f 263 277 278
f 264 263 278
f 702 760 761
f 712 702 761
f 68 93 94
f 69 68 94
f 719 778 688
f 719 688 728
f 681 728 688
f 681 621 728
f 723 621 681
f 721 621 723
f 722 738 621
f 652 621 738
f 721 722 621
f 719 713 762
f 712 762 713
f 779 719 762
f 778 719 779
f 761 762 712
f 465 464 492
f 466 465 492
f 467 466 492
f 468 467 492
f 469 468 492
f 470 469 492
f 471 470 492
f 472 471 492
f 473 472 492
f 474 473 492
f 475 474 492
f 476 475 492
f 477 476 492
f 478 477 492
f 479 478 492
f 480 479 492
f 481 480 492
f 482 481 492
f 493 482 492
f 483 482 493
f 484 483 493
f 485 484 493
f 486 485 493
f 487 486 493
f 488 487 493
f 489 488 493
f 682 728 621
f 689 718 728
f 733 682 621
f 689 728 682
f 763 718 689
f 782 763 689
f 265 264 278
f 279 265 278
f 70 69 94
f 95 70 94
f 621 726 733
f 725 726 621
f 645 725 621
f 266 265 279
f 280 266 279
f 689 690 782
f 783 782 690
f 777 783 690
f 70 95 96
f 71 70 96
f 266 280 281
f 267 266 281
f 756 805 757
f 795 757 805
f 794 757 795
f 765 805 756
f 72 71 96
f 97 72 96
f 377 382 383
f 376 382 377
f 783 777 784
f 776 784 777
f 794 784 776
f 758 794 776
f 757 794 758
f 268 267 281
f 282 268 281
f 73 72 97
f 98 73 97
f 645 642 724
f 740 724 642
f 725 645 724
f 748 740 642
f 378 383 384
f 377 383 378
f 705 749 642
f 698 705 642
f 625 698 642
f 74 73 98
f 99 74 98
f 380 384 385
f 378 384 380
f 765 766 727
f 727 766 813
f 720 765 727
f 805 765 720
f 771 813 766
f 75 74 99
f 100 75 99
f 77 76 101
f 102 77 101
f 78 77 102
f 103 78 102
f 272 271 285
f 286 272 285
f 79 78 103
f 104 79 103
f 274 273 287
f 288 274 287
f 80 79 104
f 105 80 104
f 644 737 816
f 798 816 737
f 732 737 644
f 734 732 644
f 634 734 644
f 687 816 798
f 686 816 687
f 800 816 686
f 691 800 686
f 799 800 691
f 804 799 691
f 787 804 691
f 806 804 787
f 807 806 787
f 810 807 787
f 811 810 787
f 786 811 787
f 644 670 791
f 816 670 644
f 625 644 697
f 698 625 697
f 792 697 644
f 791 792 644
f 463 489 493
f 434 463 493
f 418 434 493
f 403 418 493
f 394 403 493
f 385 394 493
f 380 385 493
f 379 380 493
f 368 379 493
f 355 368 493
f 339 355 493
f 323 339 493
f 307 323 493
f 289 307 493
f 491 289 493
f 275 289 491
f 261 275 491
f 244 261 491
f 224 244 491
f 205 224 491
f 194 205 491
f 172 194 491
f 149 172 491
f 125 149 491
f 100 125 491
f 75 100 491
f 50 75 491
f 25 50 491
f 789 790 675
f 676 675 790
f 788 789 675
f 785 788 675
f 770 785 675
f 771 770 675
f 812 771 675
f 813 771 812
f 275 274 288
f 289 275 288
f 634 714 734
f 715 714 634
f 81 80 105
f 106 81 105
f 276 293 290
f 290 293 294
f 710 711 634
f 717 715 634
f 711 717 634
f 82 81 106
f 107 82 106
f 279 278 291
f 292 279 291
f 83 82 107
f 108 83 107
f 382 391 392
f 383 382 392
f 280 279 292
f 297 280 292
f 84 83 108
f 109 84 108
f 384 383 392
f 393 384 392
f 281 297 298
f 280 297 281
f 85 84 109
f 110 85 109
f 385 384 393
f 394 385 393
f 282 298 299
f 281 298 282
f 85 110 111
f 86 85 111
f 387 386 395
f 396 387 395
f 283 299 300
f 282 299 283
f 87 86 111
f 112 87 111
f 388 397 398
f 389 388 398
f 88 87 112
f 113 88 112
f 24 25 491
f 23 24 491
f 22 23 491
f 21 22 491
f 20 21 491
f 19 20 491
f 18 19 491
f 490 18 491
f 17 18 490
f 16 17 490
f 15 16 490
f 14 15 490
f 13 14 490
f 12 13 490
f 11 12 490
f 10 11 490
f 9 10 490
f 8 9 490
f 7 8 490
f 6 7 490
f 5 6 490
f 4 5 490
f 3 4 490
f 2 3 490
f 1 2 490
f 89 88 113
f 114 89 113
f 89 114 115
f 90 89 115
f 91 90 115
f 116 91 115
f 92 91 116
f 117 92 116
f 92 117 118
f 93 92 118
f 285 302 303
f 284 302 285
f 94 93 118
f 119 94 118
f 286 303 304
f 285 303 286
f 94 119 120
f 95 94 120
f 287 304 305
f 286 304 287
f 96 95 120
f 121 96 120
f 288 305 306
f 287 305 288
f 97 96 121
f 122 97 121
f 289 306 307
f 288 306 289
f 98 97 122
f 123 98 122
f 291 295 296
f 292 291 296
f 99 98 123
f 124 99 123
