v -2 -2 -0.099999999999999978
v -2 -1.8999999999999999 -0.10999999999999999
v -2 -1.8 -0.11999999999999997
v -2 -1.7 -0.12999999999999998
v -2 -1.6000000000000001 -0.13999999999999996
v -2 -1.5 -0.14999999999999997
v -2 -1.3999999999999999 -0.16
v -2 -1.2999999999999998 -0.17000000000000001
v -2 -1.1000000000000001 -0.18999999999999997
v -2 -0.79999999999999982 -0.22
v -2 -0.69999999999999996 -0.22999999999999998
v -2 -0.59999999999999987 -0.23999999999999999
v -2 -0.5 -0.25
v -2 -0.29999999999999982 -0.27000000000000002
v -2 -0.19999999999999996 -0.27999999999999997
v -2 -0.099999999999999867 -0.28999999999999998
v -2 0 -0.29999999999999999
v -2 0.40000000000000036 -0.34000000000000002
v -2 0.5 -0.34999999999999998
v -2 0.90000000000000036 -0.39000000000000001
v -2 1 -0.40000000000000002
v -2 1.4000000000000004 -0.44000000000000006
v -2 1.5 -0.45000000000000001
v -2 1.9000000000000004 -0.49000000000000005
v -2 2 -0.5
v -1.8999999999999999 -2 -0.084999999999999964
v -1.8999999999999999 -1.8999999999999999 -0.094999999999999973
v -1.8999999999999999 -1.8 -0.10499999999999995
v -1.8999999999999999 -1.7 -0.11499999999999996
v -1.8999999999999999 -1.6000000000000001 -0.12499999999999994
v -1.8999999999999999 -1.5 -0.13499999999999995
v -1.8999999999999999 -1.3999999999999999 -0.14499999999999999
v -1.8999999999999999 -1.2999999999999998 -0.155
v -1.8999999999999999 -1.1000000000000001 -0.17499999999999996
v -1.8999999999999999 -0.79999999999999982 -0.20499999999999999
v -1.8999999999999999 -0.69999999999999996 -0.21499999999999997
v -1.8999999999999999 -0.59999999999999987 -0.22499999999999998
v -1.8999999999999999 -0.5 -0.23499999999999999
v -1.8999999999999999 -0.29999999999999982 -0.255
v -1.8999999999999999 -0.19999999999999996 -0.26499999999999996
v -1.8999999999999999 -0.099999999999999867 -0.27499999999999997
v -1.8999999999999999 0 -0.28499999999999998
v -1.8999999999999999 0.40000000000000036 -0.32500000000000001
v -1.8999999999999999 0.5 -0.33499999999999996
v -1.8999999999999999 0.90000000000000036 -0.375
v -1.8999999999999999 1 -0.38500000000000001
v -1.8999999999999999 1.4000000000000004 -0.42500000000000004
v -1.8999999999999999 1.5 -0.435
v -1.8999999999999999 1.9000000000000004 -0.47500000000000003
v -1.8999999999999999 2 -0.48499999999999999
v -1.8 -2 -0.070000000000000007
v -1.8 -1.8999999999999999 -0.080000000000000016
v -1.8 -1.8 -0.089999999999999997
v -1.8 -1.7 -0.10000000000000001
v -1.8 -1.6000000000000001 -0.10999999999999999
v -1.8 -1.5 -0.12
v -1.8 -1.3999999999999999 -0.13000000000000003
v -1.8 -1.2999999999999998 -0.14000000000000004
v -1.8 -1.1000000000000001 -0.16
v -1.8 -0.79999999999999982 -0.19000000000000003
v -1.8 -0.69999999999999996 -0.20000000000000001
v -1.8 -0.59999999999999987 -0.21000000000000002
v -1.8 -0.5 -0.22000000000000003
v -1.8 -0.29999999999999982 -0.24000000000000005
v -1.8 -0.19999999999999996 -0.25
v -1.8 -0.099999999999999867 -0.26000000000000001
v -1.8 0 -0.27000000000000002
v -1.8 0.40000000000000036 -0.31000000000000005
v -1.8 0.5 -0.32000000000000001
v -1.8 0.90000000000000036 -0.36000000000000004
v -1.8 1 -0.37
v -1.8 1.4000000000000004 -0.41000000000000003
v -1.8 1.5 -0.42000000000000004
v -1.8 1.9000000000000004 -0.46000000000000008
v -1.8 2 -0.47000000000000003
v -1.7 -2 -0.054999999999999993
v -1.7 -1.8999999999999999 -0.065000000000000002
v -1.7 -1.8 -0.074999999999999983
v -1.7 -1.7 -0.084999999999999992
v -1.7 -1.6000000000000001 -0.094999999999999973
v -1.7 -1.5 -0.10499999999999998
v -1.7 -1.3999999999999999 -0.11500000000000002
v -1.7 -1.2999999999999998 -0.12500000000000003
v -1.7 -1.1000000000000001 -0.14499999999999999
v -1.7 -0.79999999999999982 -0.17500000000000002
v -1.7 -0.69999999999999996 -0.185
v -1.7 -0.59999999999999987 -0.19500000000000001
v -1.7 -0.5 -0.20500000000000002
v -1.7 -0.29999999999999982 -0.22500000000000003
v -1.7 -0.19999999999999996 -0.23500000000000001
v -1.7 -0.099999999999999867 -0.24500000000000002
v -1.7 0 -0.255
v -1.7 0.40000000000000036 -0.29500000000000004
v -1.7 0.5 -0.30499999999999999
v -1.7 0.90000000000000036 -0.34500000000000003
v -1.7 1 -0.35499999999999998
v -1.7 1.4000000000000004 -0.39500000000000002
v -1.7 1.5 -0.40500000000000003
v -1.7 1.9000000000000004 -0.44500000000000006
v -1.7 2 -0.45500000000000002
v -1.6000000000000001 -2 -0.03999999999999998
v -1.6000000000000001 -1.8999999999999999 -0.049999999999999989
v -1.6000000000000001 -1.8 -0.05999999999999997
v -1.6000000000000001 -1.7 -0.069999999999999979
v -1.6000000000000001 -1.6000000000000001 -0.07999999999999996
v -1.6000000000000001 -1.5 -0.089999999999999969
v -1.6000000000000001 -1.3999999999999999 -0.10000000000000001
v -1.6000000000000001 -1.2999999999999998 -0.11000000000000001
v -1.6000000000000001 -1.1000000000000001 -0.12999999999999998
v -1.6000000000000001 -0.79999999999999982 -0.16
v -1.6000000000000001 -0.69999999999999996 -0.16999999999999998
v -1.6000000000000001 -0.59999999999999987 -0.17999999999999999
v -1.6000000000000001 -0.5 -0.19
v -1.6000000000000001 -0.29999999999999982 -0.21000000000000002
v -1.6000000000000001 -0.19999999999999996 -0.22
v -1.6000000000000001 -0.099999999999999867 -0.23000000000000001
v -1.6000000000000001 0 -0.23999999999999999
v -1.6000000000000001 0.40000000000000036 -0.28000000000000003
v -1.6000000000000001 0.5 -0.28999999999999998
v -1.6000000000000001 0.90000000000000036 -0.33000000000000002
v -1.6000000000000001 1 -0.33999999999999997
v -1.6000000000000001 1.4000000000000004 -0.38
v -1.6000000000000001 1.5 -0.39000000000000001
v -1.6000000000000001 1.9000000000000004 -0.43000000000000005
v -1.6000000000000001 2 -0.44
v -1.5 -2 -0.024999999999999967
v -1.5 -1.8999999999999999 -0.034999999999999976
v -1.5 -1.8 -0.044999999999999957
v -1.5 -1.7 -0.054999999999999966
v -1.5 -1.6000000000000001 -0.064999999999999947
v -1.5 -1.5 -0.074999999999999956
v -1.5 -1.3999999999999999 -0.084999999999999992
v -1.5 -1.2999999999999998 -0.095000000000000001
v -1.5 -1.1000000000000001 -0.11499999999999996
v -1.5 -0.79999999999999982 -0.14499999999999999
v -1.5 -0.69999999999999996 -0.15499999999999997
v -1.5 -0.59999999999999987 -0.16499999999999998
v -1.5 -0.29999999999999982 -0.19500000000000001
v -1.5 -0.19999999999999996 -0.20499999999999999
v -1.5 -0.099999999999999867 -0.215
v -1.5 0 -0.22499999999999998
v -1.5 0.30000000000000027 -0.255
v -1.5 0.40000000000000036 -0.26500000000000001
v -1.5 0.5 -0.27499999999999997
v -1.5 0.90000000000000036 -0.315
v -1.5 1 -0.32499999999999996
v -1.5 1.4000000000000004 -0.36499999999999999
v -1.5 1.9000000000000004 -0.41500000000000004
v -1.5 2 -0.42499999999999999
v -1.3999999999999999 -2 -0.0099999999999999811
v -1.3999999999999999 -1.8999999999999999 -0.01999999999999999
v -1.3999999999999999 -1.8 -0.029999999999999971
v -1.3999999999999999 -1.7 -0.03999999999999998
v -1.3999999999999999 -1.6000000000000001 -0.049999999999999961
v -1.3999999999999999 -1.5 -0.05999999999999997
v -1.3999999999999999 -1.3999999999999999 -0.070000000000000007
v -1.3999999999999999 -1.2999999999999998 -0.080000000000000016
v -1.3999999999999999 -0.79999999999999982 -0.13
v -1.3999999999999999 -0.69999999999999996 -0.14000000000000001
v -1.3999999999999999 -0.59999999999999987 -0.14999999999999999
v -1.3999999999999999 -0.5 -0.15999999999999998
v -1.3999999999999999 -0.19999999999999996 -0.19
v -1.3999999999999999 -0.099999999999999867 -0.20000000000000001
v -1.3999999999999999 0 -0.20999999999999999
v -1.3999999999999999 0.30000000000000027 -0.24000000000000002
v -1.3999999999999999 0.40000000000000036 -0.25
v -1.3999999999999999 0.5 -0.26000000000000001
v -1.3999999999999999 0.90000000000000036 -0.30000000000000004
v -1.3999999999999999 1 -0.31
v -1.3999999999999999 1.4000000000000004 -0.35000000000000003
v -1.3999999999999999 1.5 -0.35999999999999999
v -1.3999999999999999 2 -0.41000000000000003
v -1.2999999999999998 -2 0.0050000000000000322
v -1.2999999999999998 -1.8999999999999999 -0.0049999999999999767
v -1.2999999999999998 -1.8 -0.014999999999999958
v -1.2999999999999998 -1.7 -0.024999999999999967
v -1.2999999999999998 -1.6000000000000001 -0.034999999999999948
v -1.2999999999999998 -1.5 -0.044999999999999957
v -1.2999999999999998 -1.3999999999999999 -0.054999999999999993
v -1.2999999999999998 -0.69999999999999996 -0.12499999999999999
v -1.2999999999999998 -0.59999999999999987 -0.13499999999999998
v -1.2999999999999998 -0.5 -0.14499999999999996
v -1.2999999999999998 -0.29999999999999982 -0.16499999999999998
v -1.2999999999999998 -0.19999999999999996 -0.17499999999999999
v -1.2999999999999998 -0.099999999999999867 -0.185
v -1.2999999999999998 0 -0.19499999999999998
v -1.2999999999999998 0.40000000000000036 -0.23500000000000001
v -1.2999999999999998 0.5 -0.245
v -1.2999999999999998 0.90000000000000036 -0.28500000000000003
v -1.2999999999999998 1 -0.29499999999999998
v -1.2999999999999998 1.4000000000000004 -0.33500000000000002
v -1.2999999999999998 1.5 -0.34499999999999997
v -1.2999999999999998 1.9000000000000004 -0.38500000000000001
v -1.2999999999999998 2 -0.39500000000000002
v -1.2 -0.59999999999999987 -0.12
v -1.2 -0.5 -0.13
v -1.2 -0.29999999999999982 -0.15000000000000002
v -1.2 -0.19999999999999996 -0.16
v -1.2 0.40000000000000036 -0.22000000000000003
v -1.2 0.5 -0.22999999999999998
v -1.2 0.90000000000000036 -0.27000000000000002
v -1.2 1 -0.28000000000000003
v -1.2 1.4000000000000004 -0.32000000000000006
v -1.2 1.9000000000000004 -0.37000000000000005
v -1.2 2 -0.38
v -1.1000000000000001 -2 0.035000000000000003
v -1.1000000000000001 -1.8999999999999999 0.024999999999999994
v -1.1000000000000001 -1.8 0.015000000000000013
v -1.1000000000000001 -1.7 0.0050000000000000044
v -1.1000000000000001 -1.6000000000000001 -0.0049999999999999767
v -1.1000000000000001 -0.5 -0.115
v -1.1000000000000001 -0.39999999999999991 -0.125
v -1.1000000000000001 -0.29999999999999982 -0.13500000000000001
v -1.1000000000000001 -0.19999999999999996 -0.14500000000000002
v -1.1000000000000001 -0.099999999999999867 -0.15500000000000003
v -1.1000000000000001 0 -0.16500000000000001
v -1.1000000000000001 0.40000000000000036 -0.20500000000000004
v -1.1000000000000001 0.5 -0.21500000000000002
v -1.1000000000000001 0.90000000000000036 -0.25500000000000006
v -1.1000000000000001 1 -0.26500000000000001
v -1.1000000000000001 1.4000000000000004 -0.30500000000000005
v -1.1000000000000001 1.5 -0.31500000000000006
v -1.1000000000000001 1.9000000000000004 -0.35500000000000009
v -1.1000000000000001 2 -0.36499999999999999
v -1 -0.39999999999999991 -0.11
v -1 -0.29999999999999982 -0.12000000000000001
v -1 -0.19999999999999996 -0.13
v -0.79999999999999982 -2 0.080000000000000043
v -0.79999999999999982 -1.8999999999999999 0.070000000000000034
v -0.79999999999999982 -1.8 0.060000000000000053
v -0.79999999999999982 -1.7 0.050000000000000044
v -0.79999999999999982 -1.6000000000000001 0.040000000000000063
v -0.79999999999999982 -0.19999999999999996 -0.099999999999999978
v -0.79999999999999982 -0.099999999999999867 -0.10999999999999999
v -0.79999999999999982 0 -0.11999999999999997
v -0.79999999999999982 0.10000000000000009 -0.12999999999999998
v -0.79999999999999982 0.40000000000000036 -0.16
v -0.79999999999999982 0.5 -0.16999999999999998
v -0.79999999999999982 0.90000000000000036 -0.21000000000000002
v -0.79999999999999982 1 -0.21999999999999997
v -0.79999999999999982 1.4000000000000004 -0.26000000000000001
v -0.79999999999999982 1.5 -0.27000000000000002
v -0.79999999999999982 1.9000000000000004 -0.31000000000000005
v -0.79999999999999982 2 -0.31999999999999995
v -0.69999999999999996 -2 0.095000000000000015
v -0.69999999999999996 -1.8999999999999999 0.085000000000000006
v -0.69999999999999996 -1.8 0.075000000000000025
v -0.69999999999999996 -1.7 0.065000000000000016
v -0.69999999999999996 -1.6000000000000001 0.055000000000000035
v -0.69999999999999996 -1.5 0.045000000000000026
v -0.69999999999999996 -0.099999999999999867 -0.095000000000000001
v -0.69999999999999996 0 -0.105
v -0.69999999999999996 0.10000000000000009 -0.115
v -0.69999999999999996 0.20000000000000018 -0.125
v -0.69999999999999996 0.30000000000000027 -0.13500000000000001
v -0.69999999999999996 0.40000000000000036 -0.14500000000000002
v -0.69999999999999996 0.5 -0.155
v -0.69999999999999996 0.90000000000000036 -0.19500000000000003
v -0.69999999999999996 1 -0.20500000000000002
v -0.69999999999999996 1.4000000000000004 -0.24500000000000005
v -0.69999999999999996 1.5 -0.255
v -0.69999999999999996 1.9000000000000004 -0.29500000000000004
v -0.69999999999999996 2 -0.30499999999999999
v -0.59999999999999987 -2 0.11000000000000003
v -0.59999999999999987 -1.8999999999999999 0.10000000000000002
v -0.59999999999999987 -1.8 0.090000000000000038
v -0.59999999999999987 -1.7 0.080000000000000029
v -0.59999999999999987 -1.6000000000000001 0.070000000000000048
v -0.59999999999999987 -1.5 0.060000000000000039
v -0.59999999999999987 -1.3999999999999999 0.050000000000000003
v -0.59999999999999987 0 -0.089999999999999983
v -0.59999999999999987 0.20000000000000018 -0.11
v -0.59999999999999987 0.30000000000000027 -0.12000000000000001
v -0.59999999999999987 0.40000000000000036 -0.13
v -0.59999999999999987 0.5 -0.13999999999999999
v -0.59999999999999987 0.90000000000000036 -0.18000000000000002
v -0.59999999999999987 1 -0.19
v -0.59999999999999987 1.4000000000000004 -0.23000000000000004
v -0.59999999999999987 1.5 -0.23999999999999999
v -0.59999999999999987 1.9000000000000004 -0.28000000000000003
v -0.59999999999999987 2 -0.28999999999999998
v -0.5 -2 0.125
v -0.5 -1.8999999999999999 0.115
v -0.5 -1.8 0.10500000000000002
v -0.5 -1.7 0.095000000000000015
v -0.5 -1.6000000000000001 0.085000000000000034
v -0.5 -1.5 0.075000000000000025
v -0.5 -1.3999999999999999 0.064999999999999988
v -0.5 -1.2999999999999998 0.054999999999999979
v -0.5 0.40000000000000036 -0.11500000000000003
v -0.5 0.5 -0.125
v -0.5 0.90000000000000036 -0.16500000000000004
v -0.5 1 -0.17499999999999999
v -0.5 1.4000000000000004 -0.21500000000000002
v -0.5 1.5 -0.22500000000000003
v -0.5 1.9000000000000004 -0.26500000000000007
v -0.5 2 -0.27500000000000002
v -0.39999999999999991 -1.8999999999999999 0.13
v -0.39999999999999991 -1.8 0.12000000000000004
v -0.39999999999999991 -1.7 0.11000000000000003
v -0.29999999999999982 -2 0.15500000000000003
v -0.29999999999999982 -1.8999999999999999 0.14500000000000002
v -0.29999999999999982 -1.8 0.13500000000000006
v -0.29999999999999982 -1.7 0.12500000000000006
v -0.29999999999999982 -1.6000000000000001 0.11500000000000006
v -0.29999999999999982 -1.5 0.10500000000000005
v -0.29999999999999982 -1.3999999999999999 0.095000000000000015
v -0.29999999999999982 -1.2999999999999998 0.085000000000000006
v -0.29999999999999982 -1.1000000000000001 0.065000000000000044
v -0.29999999999999982 0.30000000000000027 -0.074999999999999997
v -0.29999999999999982 0.40000000000000036 -0.085000000000000006
v -0.29999999999999982 0.5 -0.094999999999999973
v -0.29999999999999982 0.90000000000000036 -0.13500000000000001
v -0.29999999999999982 1 -0.14499999999999996
v -0.29999999999999982 1.4000000000000004 -0.185
v -0.29999999999999982 1.5 -0.19500000000000001
v -0.29999999999999982 1.9000000000000004 -0.23500000000000004
v -0.29999999999999982 2 -0.245
v -0.19999999999999996 -2 0.17000000000000001
v -0.19999999999999996 -1.8999999999999999 0.16
v -0.19999999999999996 -1.8 0.15000000000000002
v -0.19999999999999996 -1.7 0.14000000000000001
v -0.19999999999999996 -1.6000000000000001 0.13000000000000003
v -0.19999999999999996 -1.5 0.12000000000000002
v -0.19999999999999996 -1.3999999999999999 0.10999999999999999
v -0.19999999999999996 -1.2999999999999998 0.099999999999999978
v -0.19999999999999996 -1.1000000000000001 0.080000000000000016
v -0.19999999999999996 -1 0.070000000000000007
v -0.19999999999999996 0.40000000000000036 -0.070000000000000034
v -0.19999999999999996 0.5 -0.079999999999999988
v -0.19999999999999996 0.90000000000000036 -0.12000000000000002
v -0.19999999999999996 1 -0.13
v -0.19999999999999996 1.4000000000000004 -0.17000000000000004
v -0.19999999999999996 1.5 -0.18000000000000002
v -0.19999999999999996 1.9000000000000004 -0.22000000000000006
v -0.19999999999999996 2 -0.23000000000000001
v -0.099999999999999867 -2 0.18500000000000003
v -0.099999999999999867 -1.8999999999999999 0.17500000000000002
v -0.099999999999999867 -1.8 0.16500000000000004
v -0.099999999999999867 -1.7 0.15500000000000003
v -0.099999999999999867 -1.6000000000000001 0.14500000000000005
v -0.099999999999999867 -1.5 0.13500000000000004
v -0.099999999999999867 -1.3999999999999999 0.125
v -0.099999999999999867 -1.2999999999999998 0.11499999999999999
v -0.099999999999999867 -1.1000000000000001 0.095000000000000029
v -0.099999999999999867 -0.89999999999999991 0.075000000000000011
v -0.099999999999999867 0.5 -0.064999999999999974
v -0.099999999999999867 0.90000000000000036 -0.10500000000000001
v -0.099999999999999867 1 -0.11499999999999999
v -0.099999999999999867 1.4000000000000004 -0.15500000000000003
v -0.099999999999999867 1.5 -0.16500000000000001
v -0.099999999999999867 1.9000000000000004 -0.20500000000000004
v -0.099999999999999867 2 -0.215
v 0 -2 0.20000000000000001
v 0 -1.8999999999999999 0.19
v 0 -1.8 0.18000000000000002
v 0 -1.7 0.17000000000000001
v 0 -1.6000000000000001 0.16000000000000003
v 0 -1.5 0.15000000000000002
v 0 -1.3999999999999999 0.13999999999999999
v 0 -1.2999999999999998 0.12999999999999998
v 0 -1.1000000000000001 0.11000000000000001
v 0 -0.79999999999999982 0.079999999999999988
v 0 0.90000000000000036 -0.090000000000000038
v 0 1 -0.10000000000000001
v 0 1.4000000000000004 -0.14000000000000004
v 0 1.5 -0.15000000000000002
v 0 1.9000000000000004 -0.19000000000000006
v 0 2 -0.20000000000000001
v 0.30000000000000027 -0.79999999999999982 0.12500000000000003
v 0.30000000000000027 -0.69999999999999996 0.11500000000000003
v 0.40000000000000036 -2 0.26000000000000006
v 0.40000000000000036 -1.8999999999999999 0.25000000000000006
v 0.40000000000000036 -1.8 0.24000000000000007
v 0.40000000000000036 -1.7 0.23000000000000007
v 0.40000000000000036 -1.6000000000000001 0.22000000000000008
v 0.40000000000000036 -1.5 0.21000000000000008
v 0.40000000000000036 -1.3999999999999999 0.20000000000000004
v 0.40000000000000036 -1.2999999999999998 0.19000000000000003
v 0.40000000000000036 -1.2 0.18000000000000005
v 0.40000000000000036 -1.1000000000000001 0.17000000000000007
v 0.40000000000000036 -0.79999999999999982 0.14000000000000004
v 0.40000000000000036 -0.69999999999999996 0.13000000000000006
v 0.40000000000000036 -0.59999999999999987 0.12000000000000005
v 0.40000000000000036 -0.5 0.11000000000000006
v 0.40000000000000036 1 -0.039999999999999952
v 0.40000000000000036 1.4000000000000004 -0.079999999999999988
v 0.40000000000000036 1.5 -0.089999999999999969
v 0.40000000000000036 1.9000000000000004 -0.13
v 0.40000000000000036 2 -0.13999999999999996
v 0.5 -2 0.27500000000000002
v 0.5 -1.8999999999999999 0.26500000000000001
v 0.5 -1.8 0.255
v 0.5 -1.7 0.245
v 0.5 -1.6000000000000001 0.23500000000000004
v 0.5 -1.5 0.22500000000000003
v 0.5 -1.3999999999999999 0.21499999999999997
v 0.5 -1.2999999999999998 0.20499999999999996
v 0.5 -1.2 0.19500000000000001
v 0.5 -1.1000000000000001 0.185
v 0.5 -0.79999999999999982 0.15499999999999997
v 0.5 -0.69999999999999996 0.14499999999999999
v 0.5 -0.59999999999999987 0.13499999999999998
v 0.5 -0.5 0.125
v 0.5 -0.29999999999999982 0.10499999999999998
v 0.5 1.4000000000000004 -0.065000000000000044
v 0.5 1.5 -0.075000000000000025
v 0.5 1.9000000000000004 -0.11500000000000006
v 0.5 2 -0.125
v 0.60000000000000009 2 -0.11
v 0.80000000000000027 -1.7 0.29000000000000004
v 0.80000000000000027 -1.6000000000000001 0.28000000000000008
v 0.80000000000000027 -1.5 0.27000000000000007
v 0.80000000000000027 -1.2999999999999998 0.25
v 0.80000000000000027 -1.2 0.24000000000000005
v 0.80000000000000027 -0.79999999999999982 0.20000000000000001
v 0.80000000000000027 -0.69999999999999996 0.19000000000000003
v 0.80000000000000027 -0.29999999999999982 0.15000000000000002
v 0.80000000000000027 -0.19999999999999996 0.14000000000000004
v 0.80000000000000027 -0.099999999999999867 0.13000000000000003
v 0.80000000000000027 0 0.12000000000000004
v 0.80000000000000027 1.4000000000000004 -0.020000000000000004
v 0.80000000000000027 1.5 -0.029999999999999985
v 0.80000000000000027 1.9000000000000004 -0.070000000000000021
v 0.80000000000000027 2 -0.079999999999999974
v 0.90000000000000036 -2 0.33500000000000008
v 0.90000000000000036 -1.8999999999999999 0.32500000000000007
v 0.90000000000000036 -1.8 0.31500000000000006
v 0.90000000000000036 -1.7 0.30500000000000005
v 0.90000000000000036 -1.6000000000000001 0.29500000000000004
v 0.90000000000000036 -1.5 0.28500000000000003
v 0.90000000000000036 -1.3999999999999999 0.27500000000000002
v 0.90000000000000036 -1.2999999999999998 0.26500000000000001
v 0.90000000000000036 -1.2 0.255
v 0.90000000000000036 -1.1000000000000001 0.24500000000000005
v 0.90000000000000036 -0.79999999999999982 0.21500000000000002
v 0.90000000000000036 -0.69999999999999996 0.20500000000000002
v 0.90000000000000036 -0.59999999999999987 0.19500000000000003
v 0.90000000000000036 -0.5 0.18500000000000005
v 0.90000000000000036 -0.29999999999999982 0.16500000000000004
v 0.90000000000000036 -0.19999999999999996 0.15500000000000003
v 0.90000000000000036 -0.099999999999999867 0.14500000000000002
v 0.90000000000000036 0 0.13500000000000004
v 0.90000000000000036 1.4000000000000004 -0.0050000000000000044
v 0.90000000000000036 1.5 -0.014999999999999986
v 0.90000000000000036 1.9000000000000004 -0.055000000000000021
v 0.90000000000000036 2 -0.064999999999999974
v 1 -2 0.34999999999999998
v 1 -1.8999999999999999 0.33999999999999997
v 1 -1.8 0.33000000000000002
v 1 -1.7 0.32000000000000001
v 1 -1.6000000000000001 0.31000000000000005
v 1 -1.5 0.30000000000000004
v 1 -1.3999999999999999 0.28999999999999998
v 1 -1.2999999999999998 0.27999999999999997
v 1 -1.2 0.27000000000000002
v 1 -1.1000000000000001 0.26000000000000001
v 1 -0.79999999999999982 0.22999999999999998
v 1 -0.69999999999999996 0.21999999999999997
v 1 -0.59999999999999987 0.20999999999999999
v 1 -0.5 0.20000000000000001
v 1 -0.29999999999999982 0.17999999999999999
v 1 -0.19999999999999996 0.16999999999999998
v 1 -0.099999999999999867 0.15999999999999998
v 1 0 0.14999999999999999
v 1 1.5 -2.7755575615628914e-17
v 1 1.9000000000000004 -0.040000000000000063
v 1 2 -0.050000000000000017
v 1.2000000000000002 -0.69999999999999996 0.25
v 1.2000000000000002 -0.59999999999999987 0.24000000000000002
v 1.3000000000000003 -0.59999999999999987 0.255
v 1.3000000000000003 -0.5 0.24500000000000005
v 1.4000000000000004 -2 0.41000000000000003
v 1.4000000000000004 -1.8999999999999999 0.40000000000000002
v 1.4000000000000004 -1.8 0.39000000000000007
v 1.4000000000000004 -1.7 0.38000000000000006
v 1.4000000000000004 -1.6000000000000001 0.37000000000000011
v 1.4000000000000004 -1.5 0.3600000000000001
v 1.4000000000000004 -1.3999999999999999 0.35000000000000003
v 1.4000000000000004 -1.2999999999999998 0.34000000000000002
v 1.4000000000000004 -1.2 0.33000000000000007
v 1.4000000000000004 -1.1000000000000001 0.32000000000000006
v 1.4000000000000004 -0.79999999999999982 0.29000000000000004
v 1.4000000000000004 -0.69999999999999996 0.28000000000000003
v 1.4000000000000004 -0.59999999999999987 0.27000000000000002
v 1.4000000000000004 -0.5 0.26000000000000006
v 1.4000000000000004 -0.29999999999999982 0.24000000000000005
v 1.4000000000000004 -0.19999999999999996 0.23000000000000004
v 1.4000000000000004 -0.099999999999999867 0.22000000000000003
v 1.4000000000000004 0 0.21000000000000005
v 1.4000000000000004 0.40000000000000036 0.17000000000000001
v 1.4000000000000004 0.5 0.16000000000000003
v 1.4000000000000004 1.4000000000000004 0.070000000000000007
v 1.4000000000000004 1.5 0.060000000000000026
v 1.4000000000000004 1.9000000000000004 0.01999999999999999
v 1.4000000000000004 2 0.010000000000000037
v 1.5 -2 0.42499999999999999
v 1.5 -1.8999999999999999 0.41499999999999998
v 1.5 -1.8 0.40500000000000003
v 1.5 -1.7 0.39500000000000002
v 1.5 -1.6000000000000001 0.38500000000000001
v 1.5 -1.3999999999999999 0.36499999999999999
v 1.5 -1.2999999999999998 0.35499999999999998
v 1.5 -1.2 0.34499999999999997
v 1.5 -1.1000000000000001 0.33499999999999996
v 1.5 -0.79999999999999982 0.30499999999999994
v 1.5 -0.69999999999999996 0.29499999999999998
v 1.5 -0.59999999999999987 0.28499999999999998
v 1.5 -0.5 0.27499999999999997
v 1.5 -0.29999999999999982 0.25499999999999995
v 1.5 -0.19999999999999996 0.24499999999999997
v 1.5 -0.099999999999999867 0.23499999999999996
v 1.5 0 0.22499999999999998
v 1.5 0.40000000000000036 0.18499999999999994
v 1.5 0.5 0.17499999999999999
v 1.5 1.4000000000000004 0.084999999999999937
v 1.5 1.5 0.074999999999999956
v 1.5 1.9000000000000004 0.03499999999999992
v 1.5 2 0.024999999999999967
v 1.6000000000000001 -0.19999999999999996 0.26000000000000001
v 1.6000000000000001 -0.099999999999999867 0.24999999999999997
v 1.7000000000000002 -0.099999999999999867 0.26500000000000001
v 1.7000000000000002 0 0.255
v 1.9000000000000004 -2 0.48500000000000004
v 1.9000000000000004 -1.8999999999999999 0.47500000000000003
v 1.9000000000000004 -1.8 0.46500000000000008
v 1.9000000000000004 -1.7 0.45500000000000007
v 1.9000000000000004 -1.6000000000000001 0.44500000000000006
v 1.9000000000000004 -1.5 0.43500000000000005
v 1.9000000000000004 -1.2999999999999998 0.41500000000000004
v 1.9000000000000004 -1.2 0.40500000000000003
v 1.9000000000000004 -1.1000000000000001 0.39500000000000002
v 1.9000000000000004 -0.79999999999999982 0.36499999999999999
v 1.9000000000000004 -0.69999999999999996 0.35500000000000004
v 1.9000000000000004 -0.59999999999999987 0.34500000000000003
v 1.9000000000000004 -0.5 0.33500000000000002
v 1.9000000000000004 -0.29999999999999982 0.315
v 1.9000000000000004 -0.19999999999999996 0.30500000000000005
v 1.9000000000000004 -0.099999999999999867 0.29500000000000004
v 1.9000000000000004 0 0.28500000000000003
v 1.9000000000000004 0.40000000000000036 0.245
v 1.9000000000000004 0.5 0.23500000000000004
v 1.9000000000000004 0.90000000000000036 0.19500000000000001
v 1.9000000000000004 1 0.18500000000000003
v 1.9000000000000004 1.4000000000000004 0.14499999999999999
v 1.9000000000000004 1.5 0.13500000000000001
v 1.9000000000000004 1.9000000000000004 0.094999999999999973
v 1.9000000000000004 2 0.08500000000000002
v 2 -2 0.5
v 2 -1.8999999999999999 0.48999999999999999
v 2 -1.8 0.47999999999999998
v 2 -1.7 0.46999999999999997
v 2 -1.6000000000000001 0.46000000000000002
v 2 -1.5 0.45000000000000001
v 2 -1.3999999999999999 0.43999999999999995
v 2 -1.2999999999999998 0.42999999999999994
v 2 -1.2 0.41999999999999998
v 2 -1.1000000000000001 0.41000000000000003
v 2 -0.79999999999999982 0.38
v 2 -0.69999999999999996 0.37
v 2 -0.59999999999999987 0.35999999999999999
v 2 -0.5 0.34999999999999998
v 2 -0.29999999999999982 0.32999999999999996
v 2 -0.19999999999999996 0.32000000000000001
v 2 -0.099999999999999867 0.31
v 2 0 0.29999999999999999
v 2 0.40000000000000036 0.25999999999999995
v 2 0.5 0.25
v 2 0.90000000000000036 0.20999999999999996
v 2 1 0.19999999999999998
v 2 1.4000000000000004 0.15999999999999995
v 2 1.5 0.14999999999999997
v 2 1.9000000000000004 0.10999999999999993
v 2 2 0.099999999999999978
v -2 -2 -0.90000000000000002
v -2 2 -0.90000000000000002
v 2 -2 -0.90000000000000002
v 2 2 -0.90000000000000002
v -1 -1.3680117784833934 -0.14545556584642799
v -1 -1 -0.24999999999999994
v -0.64999999999999991 -1.2163118960624633 -0.11631189606246312
v -1.3500000000000001 -1.2163118960624633 -0.11631189606246312
v -1.1124354249480162 -1.4856463342923143 -0.041432511343314049
v -0.88756457505198383 -1.4856463342923143 -0.041432511343314049
v -1 -1.1912865702388702 -0.22335685044874226
v -1 -0.80871342976112981 -0.22335685044874226
v -0.81807566089457184 -1.3037219951868864 -0.15386793629133028
v -0.702272217076786 -1.4114496766047311 -0.031733672164910687
v -0.81599411075830319 -1.1137218936815172 -0.21573956140660749
v -0.5182663278350893 -1.2977277829232139 0.038550323395268815
v -1.1819243391054282 -1.3037219951868864 -0.15386793629133028
v -1.1840058892416967 -1.1137218936815172 -0.21573956140660749
v -1.1819243391054282 -0.69627800481311364 -0.15386793629133028
v -1.1840058892416967 -0.88627810631848281 -0.21573956140660749
v -1.3680117784833936 -1 -0.14545556584642788
v 1 1.3680117784833934 -0.045455565846427959
v 1 1 -0.14999999999999991
v 1.3500000000000001 0.78368810393753674 -0.016311896062463083
v 1.3500000000000001 1.2163118960624633 -0.016311896062463083
v 1 1.1912865702388702 -0.12335685044874223
v 1.1819243391054282 0.69627800481311364 -0.053867936291330243
v 1.491432511343314 0.88756457505198383 0.064353665707685692
v 1.2977277829232139 0.5885503233952688 0.068266327835089347
v 1.1840058892416967 0.88627810631848281 -0.11573956140660746
v 1.4817336721649106 0.702272217076786 0.13855032339526885
v 1.1819243391054282 1.3037219951868864 -0.053867936291330243
v 1.491432511343314 1.1124354249480162 0.064353665707685692
v 1.1840058892416967 1.1137218936815172 -0.11573956140660746
v 1.3680117784833936 1 -0.045455565846427848
v 0.81807566089457184 1.3037219951868864 -0.053867936291330243
v 0.81599411075830319 1.1137218936815172 -0.11573956140660746
v -1.3999999999999999 -1.1344567044269893 -0.096554329557301075
v 0.445362913776156 1 -0.033195562933576596
v 0.5 1.0546370862238439 -0.0304637086223844
v -0.65463708622384387 -0.099999999999999881 -0.088195562933576596
v -0.69999999999999996 -0.14536291377615596 -0.090463708622384384
v 1.4000000000000001 1.3049086508420686 0.079509134915793173
v -1.4037571893025997 -1.1000000000000001 -0.10056357839538996
v 0.59394473052949093 -0.19999999999999998 0.10909170957942364
v 0.5 -0.29394473052949083 0.10439447305294909
v -0.59999999999999987 -0.045362913776155887 -0.085463708622384379
v 1.5 0.72397421279654417 0.15260257872034558
v -1.4104460486077015 -1.0386573234757936 -0.10770117494357585
v -0.52721748432628024 -1.3211622148557711 0.053033598836635061
v -0.59999999999999987 -1.3899012574365062 0.048990125743650637
v -0.50605526947050905 -1.2999999999999998 0.054091709579423636
v 1.5416410290622282 0.85653400457694362 0.14559275390163984
v 1.5479300114198908 0.90000000000000047 0.14218950171298356
v -0.5 -1.2939447305294909 0.054394473052949074
v -1.4036089691470206 -0.9675712081230059 -0.1137842245597525
v -1.3999999999999999 -0.95698206150642862 -0.11430179384935714
v -0.554637086223844 -0 -0.083195562933576592
v 0.69394473052949091 -0.099999999999999867 0.11409170957942363
v -1.3176237035431158 -1.3371760756608566 -0.063925947965381716
v -1.2999999999999998 -1.3621894327278583 -0.058781056727214162
v -0.5 0.054637086223843979 -0.080463708622384389
v 1.5562706967660094 0.95764624075274241 0.13767598043962717
v 1.5519526334414171 1 0.13279289501621253
v -1.3393200762456696 -1.2999999999999998 -0.070898011436850469
v 1.5465650330329994 1.0528443224347752 0.12670032271147239
v 0.67432576351523732 1.2289628497390812 -0.021747420446622541
v -1.3780455833266829 -1.2336450197926705 -0.083342335519735383
v 0.79394473052949088 0 0.11909170957942361
v 1.5228853107638549 1.1318743240312434 0.11524536421145387
v 1.4999999999999998 1.17916132666427 0.10708386733357297
v 0.80000000000000027 0.0060552694705094615 0.11939447305294908
v -1.3946503081427517 -1.1835180468973083 -0.090845741531681914
v -0.30605526947050926 -1.1000000000000001 0.064091709579423631
v -0.29999999999999982 -1.0939447305294907 0.064394473052949097
v -1.2781346758501586 -1.3932229302562116 -0.052397908351902646
v 0.80000000000000027 1.3472007955338539 -0.01472007955338534
v 0.78246861434591564 1.3368459200060794 -0.016314299848720626
v -1.3529296925897252 -0.8188721563923167 -0.1210522382492271
v -1.3448097608055012 -0.79999999999999982 -0.1217214641208252
v -0.29999999999999982 0.25463708622384412 -0.07046370862238438
v 0.90000000000000047 0.10605526947050957 0.12439447305294908
v -1.3403559153323616 -0.78964847605251909 -0.12208853969460233
v -1.3256742364847627 -0.77103715026091879 -0.12174742044662254
v -1.2999999999999998 -0.74536291377615582 -0.12046370862238438
v -0.2060552694705092 -1 0.069091709579423621
v 0.90000000000000047 1.3979232459086059 -0.0047923245908605624
v 0.84478746989892628 1.3736544190612816 -0.010647321421289239
v -1.2078691016765937 -1.447431807144651 -0.036437184537023944
v -0.19999999999999996 -0.99394473052949073 0.069394473052949074
v -1.2693502345539185 -1.3999999999999999 -0.050402535183087779
v -0.25463708622384368 0.30000000000000027 -0.068195562933576578
v -0.83741644599643583 -1.5245890030082241 0.026846433401357062
v -0.93700851444336763 -1.5339353943646741 0.012842262269962254
v 1 0.2060552694705092 0.12939447305294907
v -0.19999999999999998 0.35463708622384404 -0.065463708622384403
v 0.90472469676861589 1.4000000000000001 -0.0042912954847076704
v -0.10605526947050907 -0.8999999999999998 0.074091709579423626
v -1.2546370862238438 -0.69999999999999996 -0.11819556293357661
v 0.95028465610641721 1.4200260115288348 0.00054009726307907579
v 1 1.4276023376374198 0.0072397662362579888
v -0.099999999999999867 -0.89394473052949075 0.074394473052949092
v -1.1000000000000003 -1.5074335882569267 -0.014256641174307328
v -0.15463708622384362 0.40000000000000036 -0.063195562933576574
v -1.1285676472029631 -1.4981738562309681 -0.019467761457347615
v -1.1229337227233627 -1.4999999999999998 -0.018440058408504365
v -0.099999999999999853 0.45463708622384408 -0.060463708622384385
v 1.0666675220631554 1.4377620760289098 0.016223920706582299
v -0.0060552694705089914 -0.79999999999999993 0.079091709579423644
v 1.1939447305294912 0.40000000000000036 0.13909170957942363
v 0 -0.79394473052949088 0.079394473052949083
v -1.154637086223844 -0.59999999999999987 -0.11319556293357659
v -0.054637086223843966 0.5 -0.058195562933576597
v -1.1000000000000001 -0.54536291377615609 -0.11046370862238439
v -1.0852227546060449 -1.5122233888119987 -0.011561074309706832
v -0 0.55463708622384389 -0.055463708622384394
v 1.1322728801989668 1.4337112021950207 0.026469811810342924
v 0.093944730529490858 -0.70000000000000007 0.084091709579423621
v 1.2180685820150488 0.42412385148555792 0.1402979021537015
v 1.2939447305294909 0.5 0.1440917095794236
v -1.0546370862238441 -0.5 -0.1081955629335766
v -0.79999999999999982 -1.5117357508491038 0.031173575084910431
v -0.76583665500084852 -1.5000000000000002 0.035124501749872736
v -0.74507665124098021 -1.4928685486810989 0.037525357181962864
v 0.19394473052949099 -0.59999999999999987 0.089091709579423639
v 1.2829415724998985 1.3976946092824976 0.052671774946735007
v 1.2732974008401161 1.4000000000000004 0.05099461012601738
v 0.29394473052949083 -0.5 0.094091709579423616
v 1.4881680575305869 0.69829554822408302 0.1533956538071797
v 1.4727825156737198 0.67883778514422899 0.15303359883663506
v 1.4000000000000004 0.60605526947050958 0.14939447305294906
v -0.85463708622384382 -0.29999999999999982 -0.098195562933576577
v 1.4980393497782152 0.71773269112892213 0.15293263335384008
v -0.79999999999999982 -0.24536291377615579 -0.095463708622384374
v 0.40000000000000036 -0.39394473052949047 0.099394473052949114
v 1.3046169718149028 1.3857315971881681 0.057119386053418604
v 0.34536291377615647 0.90000000000000047 -0.03819556293357658
v -0.69999999999999996 -1.4671937229086125 0.041719372290861277
v 0.40000000000000041 0.95463708622384436 -0.035463708622384384
v -0.75463708622384396 -0.19999999999999996 -0.093195562933576601
v 0.49394473052949101 -0.29999999999999982 0.10409170957942362
v -0.65424466899886091 -1.4411323337132083 0.045976533021491704
v -0.61069278624369894 -1.3999999999999997 0.048396082063445124
v 1.4864772983063599 1.2071027445104605 0.10226132029490791
v 1.4393719319058471 1.271546787620518 0.088751111023825283
f 70 71 45
f 45 71 46
f 72 73 47
f 47 73 48
f 89 90 64
f 64 90 65
f 91 92 66
f 66 92 67
f 158 159 135
f 135 159 136
f 159 160 136
f 136 160 137
f 160 161 137
f 138 162 139
f 143 167 144
f 170 171 147
f 148 172 149
f 158 180 159
f 180 181 159
f 159 181 160
f 187 188 166
f 195 196 181
f 181 196 182
f 197 198 183
f 183 198 184
f 199 200 187
f 187 200 188
f 189 202 190
f 204 205 193
f 193 205 194
f 195 211 196
f 211 212 196
f 213 214 197
f 197 214 198
f 217 218 199
f 199 218 200
f 219 220 201
f 221 222 203
f 223 224 204
f 204 224 205
f 211 225 212
f 226 227 213
f 213 227 214
f 251 252 234
f 234 252 235
f 253 254 236
f 258 259 239
f 239 259 240
f 260 261 241
f 241 261 242
f 262 263 243
f 243 263 244
f 253 272 254
f 273 274 255
f 255 274 256
f 282 283 264
f 264 283 265
f 273 290 274
f 290 291 274
f 274 291 275
f 292 293 276
f 276 293 277
f 294 295 278
f 278 295 279
f 282 298 283
f 298 299 283
f 283 299 284
f 302 303 298
f 298 303 299
f 304 305 300
f 320 321 302
f 302 321 303
f 322 323 304
f 304 323 305
f 310 329 311
f 329 330 311
f 311 330 312
f 331 332 313
f 313 332 314
f 333 334 315
f 315 334 316
f 329 347 330
f 364 365 348
f 348 365 349
f 382 383 370
f 370 383 371
f 383 384 371
f 392 393 373
f 373 393 374
f 394 395 375
f 375 395 376
f 396 397 377
f 377 397 378
f 398 399 379
f 379 399 380
f 399 400 380
f 380 400 381
f 403 404 384
f 384 404 385
f 408 409 389
f 389 409 390
f 408 410 409
f 429 430 411
f 411 430 412
f 433 434 414
f 436 437 416
f 416 437 417
f 437 438 417
f 440 441 418
f 418 441 419
f 442 443 420
f 420 443 421
f 449 450 427
f 427 450 428
f 451 452 429
f 429 452 430
f 453 454 431
f 455 456 433
f 434 457 435
f 469 471 470
f 471 472 470
f 500 501 476
f 476 501 477
f 478 502 479
f 503 504 480
f 480 504 481
f 506 507 483
f 483 507 484
f 508 509 485
f 485 509 486
f 510 511 487
f 487 511 488
f 514 515 491
f 491 515 492
f 510 520 511
f 511 521 512
f 522 523 521
f 550 551 525
f 525 551 526
f 552 553 527
f 527 553 528
f 554 555 529
f 556 557 530
f 530 557 531
f 557 558 531
f 531 558 532
f 559 560 533
f 533 560 534
f 251 616 615
f 289 629 626
f 621 632 271
f 421 646 643
f 309 649 648
f 328 664 660
f 655 666 310
f 661 671 444
f 659 673 180
f 346 676 672
f 670 678 329
f 363 685 683
f 681 687 347
f 688 695 211
f 708 714 233
f 620 715 405
f 386 713 613
f 625 717 270
f 603 605 598
f 585 591 579
f 585 589 580
f 598 604 601
f 584 587 579
f 579 587 585
f 587 589 585
f 598 609 604
f 579 591 583
f 583 584 579
f 580 594 592
f 580 592 585
f 594 595 592
f 585 592 591
f 592 595 582
f 591 592 582
f 584 588 587
f 586 594 580
f 610 611 600
f 604 608 597
f 597 608 600
f 600 608 606
f 604 609 608
f 596 610 600
f 600 606 596
f 587 588 581
f 598 605 602
f 602 609 598
f 606 608 599
f 608 609 599
f 599 609 607
f 607 609 602
f 589 604 597
f 589 597 580
f 587 604 589
f 601 604 587
f 594 611 593
f 593 611 610
f 600 611 586
f 586 611 594
f 588 603 581
f 581 603 598
f 605 704 703
f 2 1 26
f 2 26 27
f 673 195 181
f 686 195 673
f 673 181 180
f 495 494 517
f 495 517 518
f 342 341 358
f 342 358 359
f 183 182 196
f 183 196 197
f 496 495 518
f 496 518 519
f 342 359 360
f 343 342 360
f 185 184 198
f 185 198 215
f 214 215 198
f 524 525 498
f 524 498 497
f 576 578 577
f 576 577 575
f 344 343 360
f 344 360 361
f 215 216 186
f 215 186 185
f 525 526 499
f 525 499 498
f 2 27 28
f 3 2 28
f 345 344 361
f 345 361 362
f 216 217 199
f 187 186 199
f 216 199 186
f 526 527 500
f 526 500 499
f 4 3 28
f 4 28 29
f 527 528 501
f 527 501 500
f 189 188 200
f 189 200 201
f 346 345 362
f 363 346 362
f 676 346 363
f 683 676 363
f 5 4 29
f 5 29 30
f 189 201 202
f 220 202 201
f 529 530 502
f 530 503 502
f 529 502 501
f 528 529 501
f 6 5 30
f 6 30 31
f 690 348 347
f 690 364 348
f 690 347 687
f 191 190 202
f 191 202 203
f 7 6 31
f 7 31 32
f 531 532 504
f 532 505 504
f 530 531 504
f 530 504 503
f 192 191 203
f 192 203 222
f 350 349 365
f 350 365 366
f 8 7 32
f 8 32 33
f 532 533 506
f 532 506 505
f 222 223 204
f 193 192 204
f 222 204 192
f 351 350 366
f 351 366 367
f 9 8 33
f 9 33 34
f 533 534 507
f 533 507 506
f 197 196 212
f 197 212 213
f 368 351 367
f 352 351 368
f 35 9 34
f 10 9 35
f 535 508 507
f 534 535 507
f 201 200 218
f 201 218 219
f 11 10 35
f 11 35 36
f 353 352 368
f 353 368 369
f 535 536 509
f 535 509 508
f 203 202 220
f 203 220 221
f 12 11 36
f 12 36 37
f 536 537 510
f 536 510 509
f 372 373 355
f 372 355 354
f 229 207 206
f 228 229 206
f 13 12 37
f 13 37 38
f 537 538 520
f 537 520 510
f 373 374 356
f 373 356 355
f 229 230 208
f 229 208 207
f 14 13 38
f 14 38 39
f 511 520 521
f 522 521 520
f 230 231 209
f 230 209 208
f 513 512 521
f 513 521 523
f 374 375 357
f 374 357 356
f 14 39 40
f 15 14 40
f 231 232 210
f 231 210 209
f 16 15 40
f 16 40 41
f 376 358 357
f 375 376 357
f 523 541 514
f 523 514 513
f 540 541 523
f 17 16 41
f 17 41 42
f 542 515 514
f 541 542 514
f 213 212 225
f 213 225 226
f 376 377 359
f 376 359 358
f 18 17 42
f 18 42 43
f 377 378 360
f 377 360 359
f 215 214 227
f 234 215 227
f 233 234 227
f 543 627 622
f 542 543 622
f 542 622 515
f 628 627 543
f 19 18 43
f 19 43 44
f 378 379 361
f 378 361 360
f 234 235 216
f 234 216 215
f 45 19 44
f 20 19 45
f 380 381 362
f 380 362 361
f 379 380 361
f 545 645 644
f 516 645 545
f 544 545 644
f 544 644 640
f 544 640 638
f 236 237 217
f 236 217 216
f 235 236 216
f 21 20 45
f 21 45 46
f 545 546 517
f 545 517 516
f 237 238 218
f 237 218 217
f 370 363 362
f 381 382 370
f 381 370 362
f 22 21 46
f 22 46 47
f 546 547 518
f 546 518 517
f 238 239 219
f 238 219 218
f 370 371 692
f 685 363 692
f 370 692 363
f 23 22 47
f 23 47 48
f 547 548 519
f 547 519 518
f 240 220 219
f 239 240 219
f 24 23 48
f 24 48 49
f 538 539 522
f 538 522 520
f 690 711 364
f 240 241 221
f 240 221 220
f 25 24 49
f 25 49 50
f 543 544 637
f 544 638 637
f 543 637 628
f 241 242 222
f 241 222 221
f 711 713 386
f 711 386 365
f 711 365 364
f 26 51 52
f 27 26 52
f 539 540 523
f 539 523 522
f 242 243 223
f 242 223 222
f 28 27 52
f 28 52 53
f 386 387 366
f 386 366 365
f 243 244 224
f 243 224 223
f 525 524 549
f 525 549 550
f 29 28 53
f 29 53 54
f 388 367 366
f 387 388 366
f 706 226 225
f 695 706 225
f 695 225 211
f 527 526 551
f 527 551 552
f 30 29 54
f 30 54 55
f 388 389 368
f 388 368 367
f 529 528 553
f 529 553 554
f 31 30 55
f 31 55 56
f 706 708 233
f 706 233 227
f 706 227 226
f 390 369 368
f 389 390 368
f 530 529 555
f 530 555 556
f 32 31 56
f 32 56 57
f 371 699 692
f 384 699 371
f 229 228 245
f 229 245 246
f 533 532 558
f 533 558 559
f 33 32 57
f 33 57 58
f 229 246 247
f 230 229 247
f 384 385 702
f 384 702 699
f 534 560 561
f 535 534 561
f 59 33 58
f 34 33 59
f 231 230 247
f 231 247 248
f 536 535 561
f 536 561 562
f 702 385 709
f 35 34 59
f 35 59 60
f 231 248 249
f 232 231 249
f 537 536 562
f 537 562 563
f 35 60 61
f 36 35 61
f 373 372 391
f 373 391 392
f 697 232 249
f 697 249 250
f 696 232 697
f 538 537 563
f 538 563 564
f 37 36 61
f 37 61 62
f 374 393 394
f 375 374 394
f 616 251 234
f 714 234 233
f 616 234 714
f 538 564 565
f 539 538 565
f 37 62 63
f 38 37 63
f 377 376 395
f 377 395 396
f 540 539 565
f 540 565 566
f 39 38 63
f 39 63 64
f 236 235 252
f 236 252 253
f 378 397 398
f 379 378 398
f 567 540 566
f 541 540 567
f 40 39 64
f 40 64 65
f 255 236 254
f 237 236 255
f 237 255 256
f 382 381 400
f 382 400 401
f 542 541 567
f 542 567 568
f 40 65 66
f 41 40 66
f 238 237 256
f 238 256 257
f 543 542 568
f 543 568 569
f 383 382 401
f 383 401 402
f 42 41 66
f 42 66 67
f 258 238 257
f 239 238 258
f 544 543 569
f 544 569 570
f 43 42 67
f 43 67 68
f 384 383 402
f 384 402 403
f 241 240 259
f 241 259 260
f 545 544 570
f 545 570 571
f 44 43 68
f 44 68 69
f 709 385 404
f 709 404 405
f 709 405 715
f 243 242 261
f 243 261 262
f 546 545 571
f 546 571 572
f 45 44 69
f 45 69 70
f 246 245 264
f 246 264 265
f 614 387 386
f 614 406 387
f 614 386 613
f 547 546 572
f 547 572 573
f 47 46 71
f 47 71 72
f 247 246 265
f 247 265 266
f 388 387 406
f 388 406 407
f 548 547 573
f 548 573 574
f 49 48 73
f 49 73 74
f 247 266 267
f 248 247 267
f 408 388 407
f 389 388 408
f 50 49 74
f 50 74 75
f 249 248 267
f 249 267 268
f 427 392 391
f 426 427 391
f 52 51 76
f 52 76 77
f 250 249 268
f 250 268 269
f 427 428 393
f 427 393 392
f 53 52 77
f 53 77 78
f 54 53 78
f 54 78 79
f 411 394 393
f 428 429 411
f 428 411 393
f 716 250 269
f 716 269 270
f 717 716 270
f 712 250 716
f 55 54 79
f 55 79 80
f 412 395 394
f 411 412 394
f 621 271 252
f 615 621 252
f 615 252 251
f 56 55 80
f 56 80 81
f 412 413 396
f 412 396 395
f 272 253 271
f 253 252 271
f 57 56 81
f 57 81 82
f 432 397 413
f 413 397 396
f 255 254 272
f 255 272 273
f 58 57 82
f 58 82 83
f 26 1 575
f 51 26 575
f 76 51 575
f 101 76 575
f 126 101 575
f 150 126 575
f 173 150 575
f 206 173 575
f 228 206 575
f 245 228 575
f 264 245 575
f 282 264 575
f 301 282 575
f 577 319 301
f 577 337 319
f 577 354 337
f 577 372 354
f 577 391 372
f 577 426 391
f 577 448 426
f 577 473 448
f 577 497 473
f 577 524 497
f 577 301 575
f 549 524 577
f 414 398 397
f 432 433 414
f 432 414 397
f 257 256 274
f 257 274 275
f 59 58 83
f 59 83 84
f 414 415 399
f 414 399 398
f 258 257 275
f 258 275 276
f 60 59 84
f 60 84 85
f 415 400 399
f 435 400 415
f 61 60 85
f 61 85 86
f 259 258 276
f 259 276 277
f 416 401 400
f 435 436 416
f 435 416 400
f 61 86 87
f 62 61 87
f 278 259 277
f 260 259 278
f 417 402 401
f 416 417 401
f 63 62 87
f 63 87 88
f 261 260 278
f 261 278 279
f 417 403 402
f 438 403 417
f 64 63 88
f 64 88 89
f 280 261 279
f 262 261 280
f 438 439 404
f 438 404 403
f 66 65 90
f 66 90 91
f 262 280 281
f 263 262 281
f 68 67 92
f 68 92 93
f 418 405 404
f 439 440 418
f 439 418 404
f 265 283 284
f 266 265 284
f 68 93 94
f 69 68 94
f 418 419 619
f 620 405 619
f 418 619 405
f 550 549 577
f 551 550 577
f 552 551 577
f 553 552 577
f 554 553 577
f 555 554 577
f 556 555 577
f 557 556 577
f 558 557 577
f 559 558 577
f 560 559 577
f 561 560 577
f 562 561 577
f 563 562 577
f 564 563 577
f 565 564 577
f 566 565 577
f 567 566 577
f 578 568 567
f 578 569 568
f 578 570 569
f 578 571 570
f 578 572 571
f 578 573 572
f 578 567 577
f 574 573 578
f 267 266 284
f 267 284 285
f 70 69 94
f 70 94 95
f 268 267 285
f 268 285 286
f 614 641 406
f 652 422 406
f 651 422 652
f 641 652 406
f 70 95 96
f 71 70 96
f 268 286 287
f 269 268 287
f 72 71 96
f 72 96 97
f 422 423 407
f 422 407 406
f 270 269 287
f 270 287 288
f 73 72 97
f 73 97 98
f 423 424 408
f 423 408 407
f 74 73 98
f 74 98 99
f 424 425 410
f 424 410 408
f 625 270 288
f 624 288 289
f 626 624 289
f 625 288 624
f 75 74 99
f 75 99 100
f 419 420 633
f 419 633 619
f 636 272 271
f 290 273 272
f 636 290 272
f 636 271 632
f 77 76 101
f 77 101 102
f 643 420 421
f 633 420 643
f 276 275 291
f 276 291 292
f 78 77 102
f 78 102 103
f 412 430 431
f 413 412 431
f 432 413 431
f 278 277 293
f 278 293 294
f 79 78 103
f 79 103 104
f 415 414 434
f 435 415 434
f 280 279 295
f 280 295 296
f 80 79 104
f 80 104 105
f 548 574 578
f 519 548 578
f 496 519 578
f 468 496 578
f 447 468 578
f 425 447 578
f 410 425 578
f 409 410 578
f 390 409 578
f 369 390 578
f 353 369 578
f 336 353 578
f 318 336 578
f 297 318 578
f 576 281 297
f 576 263 281
f 576 244 263
f 576 224 244
f 576 205 224
f 576 194 205
f 576 172 194
f 576 149 172
f 576 125 149
f 576 100 125
f 576 75 100
f 576 50 75
f 576 297 578
f 25 50 576
f 420 419 441
f 420 441 442
f 281 280 296
f 281 296 297
f 81 80 105
f 81 105 106
f 301 302 298
f 301 298 282
f 656 646 443
f 646 421 443
f 82 81 106
f 82 106 107
f 285 284 299
f 285 299 300
f 83 82 107
f 83 107 108
f 422 444 445
f 423 422 445
f 286 285 300
f 286 300 305
f 84 83 108
f 84 108 109
f 424 423 445
f 424 445 446
f 305 306 287
f 305 287 286
f 85 84 109
f 85 109 110
f 425 424 446
f 425 446 447
f 306 307 288
f 306 288 287
f 85 110 111
f 86 85 111
f 427 426 448
f 427 448 449
f 307 308 289
f 307 289 288
f 87 86 111
f 87 111 112
f 428 450 451
f 429 428 451
f 88 87 112
f 88 112 113
f 308 648 629
f 308 309 648
f 308 629 289
f 431 430 452
f 431 452 453
f 24 25 576
f 23 24 576
f 22 23 576
f 21 22 576
f 20 21 576
f 19 20 576
f 18 19 576
f 575 17 18
f 575 16 17
f 575 15 16
f 575 14 15
f 575 13 14
f 575 12 13
f 575 11 12
f 575 10 11
f 575 9 10
f 575 8 9
f 575 7 8
f 575 6 7
f 575 5 6
f 575 4 5
f 575 3 4
f 575 2 3
f 575 18 576
f 1 2 575
f 89 88 113
f 89 113 114
f 89 114 115
f 90 89 115
f 433 432 454
f 432 431 454
f 433 454 455
f 290 310 311
f 655 310 290
f 636 655 290
f 457 434 456
f 434 433 456
f 91 90 115
f 91 115 116
f 311 312 291
f 311 291 290
f 718 516 719
f 645 516 718
f 617 719 516
f 617 516 493
f 458 435 457
f 436 435 458
f 92 91 116
f 92 116 117
f 292 291 313
f 312 313 291
f 634 156 635
f 179 635 156
f 157 156 634
f 639 157 634
f 118 92 117
f 93 92 118
f 437 436 458
f 437 458 459
f 313 314 293
f 313 293 292
f 94 93 118
f 94 118 119
f 314 315 294
f 314 294 293
f 438 437 459
f 438 459 460
f 642 157 639
f 647 157 642
f 612 157 647
f 120 94 119
f 95 94 120
f 315 316 295
f 315 295 294
f 438 460 461
f 439 438 461
f 96 95 120
f 96 120 121
f 653 158 631
f 654 158 653
f 316 317 296
f 316 296 295
f 440 439 461
f 440 461 462
f 97 96 121
f 97 121 122
f 317 318 297
f 317 297 296
f 180 158 658
f 657 658 158
f 659 180 658
f 654 657 158
f 441 440 462
f 441 462 463
f 98 97 122
f 98 122 123
f 299 303 304
f 300 299 304
f 442 441 463
f 442 463 464
f 99 98 123
f 99 123 124
f 662 661 444
f 662 444 422
f 651 662 422
f 301 319 320
f 302 301 320
f 100 99 124
f 100 124 125
f 443 442 464
f 443 464 465
f 304 303 321
f 304 321 322
f 102 101 126
f 102 126 127
f 679 663 178
f 665 178 663
f 179 178 665
f 680 679 178
f 656 443 465
f 669 656 465
f 306 305 323
f 306 323 324
f 103 102 127
f 103 127 128
f 306 324 325
f 307 306 325
f 674 466 445
f 671 674 445
f 671 445 444
f 675 466 674
f 650 179 665
f 635 179 650
f 104 103 128
f 104 128 129
f 308 307 325
f 308 325 326
f 105 104 129
f 105 129 130
f 446 445 466
f 446 466 467
f 329 310 670
f 666 670 310
f 106 105 130
f 106 130 131
f 309 308 326
f 309 326 327
f 447 446 467
f 447 467 468
f 328 346 672
f 664 328 672
f 107 106 131
f 107 131 132
f 473 474 449
f 473 449 448
f 649 309 327
f 660 327 328
f 649 327 660
f 108 107 132
f 108 132 133
f 347 329 681
f 678 681 329
f 313 312 330
f 313 330 331
f 474 475 450
f 474 450 449
f 109 108 133
f 109 133 134
f 211 195 686
f 688 211 686
f 475 476 451
f 475 451 450
f 315 314 332
f 315 332 333
f 135 109 134
f 110 109 135
f 476 477 452
f 476 452 451
f 317 316 334
f 317 334 335
f 111 110 135
f 111 135 136
f 232 667 668
f 689 210 668
f 677 210 689
f 232 668 210
f 696 667 232
f 112 111 136
f 112 136 137
f 318 317 335
f 318 335 336
f 477 478 453
f 477 453 452
f 113 112 137
f 113 137 161
f 320 319 337
f 320 337 338
f 478 479 454
f 478 454 453
f 493 701 700
f 493 700 710
f 617 493 710
f 161 183 138
f 114 113 138
f 161 138 113
f 182 183 161
f 320 338 339
f 321 320 339
f 479 480 455
f 479 455 454
f 115 114 138
f 115 138 139
f 698 250 712
f 697 250 698
f 322 321 339
f 322 339 340
f 480 481 456
f 480 456 455
f 115 139 140
f 116 115 140
f 590 605 603
f 590 603 588
f 323 322 340
f 323 340 341
f 481 482 457
f 481 457 456
f 117 116 140
f 117 140 141
f 586 580 597
f 600 586 597
f 323 341 342
f 324 323 342
f 598 601 581
f 587 581 601
f 482 483 458
f 482 458 457
f 142 117 141
f 118 117 142
f 166 143 142
f 118 142 143
f 325 324 342
f 325 342 343
f 483 484 469
f 459 458 469
f 483 469 458
f 635 650 591
f 634 635 591
f 582 634 591
f 119 118 143
f 119 143 144
f 652 641 610
f 326 325 343
f 326 343 344
f 469 470 460
f 469 460 459
f 120 119 144
f 120 144 145
f 610 651 652
f 662 651 610
f 327 326 344
f 327 344 345
f 470 461 460
f 472 461 470
f 121 120 145
f 121 145 146
f 668 667 584
f 328 327 345
f 346 328 345
f 472 487 462
f 472 462 461
f 486 487 472
f 122 121 146
f 122 146 147
f 623 618 595
f 582 595 618
f 612 582 618
f 647 582 612
f 123 122 147
f 123 147 171
f 331 330 347
f 331 347 348
f 487 488 463
f 487 463 462
f 663 679 583
f 332 331 348
f 332 348 349
f 171 193 148
f 124 123 148
f 171 148 123
f 192 193 171
f 488 489 464
f 488 464 463
f 665 663 591
f 583 591 663
f 650 665 591
f 333 332 349
f 333 349 350
f 125 124 148
f 125 148 149
f 489 490 465
f 489 465 464
f 127 126 150
f 127 150 151
f 333 350 351
f 334 333 351
f 679 680 583
f 583 677 689
f 680 677 583
f 490 684 669
f 490 491 684
f 490 669 465
f 335 334 351
f 335 351 352
f 128 127 151
f 128 151 152
f 689 584 583
f 668 584 689
f 494 495 467
f 494 467 466
f 129 128 152
f 129 152 153
f 335 352 353
f 336 335 353
f 130 129 153
f 130 153 154
f 588 697 698
f 696 697 588
f 584 696 588
f 667 696 584
f 495 496 468
f 495 468 467
f 338 337 354
f 338 354 355
f 131 130 154
f 131 154 155
f 484 485 471
f 484 471 469
f 634 582 639
f 642 639 582
f 339 338 355
f 339 355 356
f 647 642 582
f 131 155 156
f 132 131 156
f 339 356 357
f 340 339 357
f 703 707 605
f 133 132 156
f 133 156 157
f 491 492 694
f 491 694 693
f 491 693 684
f 594 593 658
f 657 594 658
f 341 340 357
f 341 357 358
f 612 133 157
f 134 133 612
f 618 134 612
f 472 471 485
f 472 485 486
f 654 653 594
f 595 594 653
f 657 654 594
f 694 492 705
f 630 631 135
f 135 631 158
f 134 630 135
f 623 630 134
f 618 623 134
f 661 662 610
f 661 610 596
f 671 661 596
f 674 671 596
f 183 184 162
f 183 162 138
f 701 493 494
f 691 701 494
f 466 682 691
f 466 691 494
f 675 682 466
f 682 675 596
f 674 596 675
f 140 139 162
f 140 162 163
f 691 596 606
f 682 596 691
f 474 473 497
f 474 497 498
f 140 163 164
f 141 140 164
f 622 602 605
f 627 602 622
f 707 622 605
f 475 474 498
f 475 498 499
f 165 141 164
f 142 141 165
f 142 165 166
f 187 166 165
f 476 475 499
f 476 499 500
f 628 637 602
f 627 628 602
f 143 166 167
f 188 167 166
f 478 477 501
f 502 478 501
f 145 144 167
f 145 167 168
f 588 625 590
f 624 590 625
f 717 625 588
f 716 717 588
f 480 479 502
f 480 502 503
f 146 145 168
f 146 168 169
f 588 712 716
f 698 712 588
f 482 481 504
f 482 504 505
f 147 146 169
f 147 169 170
f 483 482 505
f 483 505 506
f 653 631 595
f 630 595 631
f 193 194 172
f 193 172 148
f 630 623 595
f 485 484 507
f 485 507 508
f 151 150 173
f 151 173 174
f 700 701 606
f 701 691 606
f 487 486 509
f 487 509 510
f 152 151 174
f 152 174 175
f 710 700 606
f 599 710 606
f 488 511 512
f 489 488 512
f 153 152 175
f 153 175 176
f 719 617 599
f 617 710 599
f 490 489 512
f 490 512 513
f 154 153 176
f 154 176 177
f 607 602 638
f 637 638 602
f 640 607 638
f 514 490 513
f 491 490 514
f 155 154 177
f 155 177 178
f 607 718 599
f 718 719 599
f 156 155 178
f 156 178 179
f 640 644 607
f 160 181 182
f 161 160 182
f 705 492 515
f 703 704 515
f 707 703 515
f 705 515 704
f 622 707 515
f 645 718 607
f 644 645 607
f 163 162 184
f 163 184 185
f 494 493 516
f 494 516 517
f 164 163 185
f 164 185 186
f 165 164 186
f 187 165 186
f 168 167 188
f 168 188 189
f 169 168 189
f 169 189 190
f 170 169 190
f 170 190 191
f 171 170 191
f 171 191 192
f 206 207 174
f 206 174 173
f 175 174 208
f 207 208 174
f 208 209 176
f 208 176 175
f 209 210 177
f 209 177 176
f 178 177 680
f 210 680 177
f 677 680 210
f 621 615 593
f 673 593 686
f 706 695 593
f 688 593 695
f 686 593 688
f 659 593 673
f 658 593 659
f 708 706 593
f 714 708 593
f 616 714 593
f 615 616 593
f 632 621 593
f 636 632 593
f 655 636 593
f 670 593 610
f 655 593 666
f 666 593 670
f 678 670 610
f 681 678 610
f 687 681 610
f 690 687 610
f 711 690 610
f 713 711 610
f 613 713 610
f 614 613 610
f 641 614 610
f 624 626 590
f 709 715 590
f 715 605 590
f 702 709 590
f 620 605 715
f 619 605 620
f 633 605 619
f 643 605 633
f 646 605 643
f 656 605 646
f 669 605 656
f 684 605 669
f 693 605 684
f 699 702 590
f 692 699 590
f 685 692 590
f 683 685 590
f 676 683 590
f 672 676 590
f 664 672 590
f 660 664 590
f 649 660 590
f 648 649 590
f 629 648 590
f 626 629 590
f 694 705 605
f 704 605 705
f 693 694 605
