# https://github.com/mikedh/trimesh
v -2.00000000 -2.00000000 -0.10000000
v -2.00000000 -1.90000000 -0.11000000
v -2.00000000 -1.80000000 -0.12000000
v -2.00000000 -1.70000000 -0.13000000
v -2.00000000 -1.60000000 -0.14000000
v -2.00000000 -1.50000000 -0.15000000
v -2.00000000 -1.40000000 -0.16000000
v -2.00000000 -1.30000000 -0.17000000
v -2.00000000 -1.10000000 -0.19000000
v -2.00000000 -0.80000000 -0.22000000
v -2.00000000 -0.70000000 -0.23000000
v -2.00000000 -0.60000000 -0.24000000
v -2.00000000 -0.50000000 -0.25000000
v -2.00000000 -0.30000000 -0.27000000
v -2.00000000 -0.20000000 -0.28000000
v -2.00000000 -0.10000000 -0.29000000
v -2.00000000 0.00000000 -0.30000000
v -2.00000000 0.40000000 -0.34000000
v -2.00000000 0.50000000 -0.35000000
v -2.00000000 0.90000000 -0.39000000
v -2.00000000 1.00000000 -0.40000000
v -2.00000000 1.40000000 -0.44000000
v -2.00000000 1.50000000 -0.45000000
v -2.00000000 1.90000000 -0.49000000
v -2.00000000 2.00000000 -0.50000000
v -1.90000000 -2.00000000 -0.08500000
v -1.90000000 -1.90000000 -0.09500000
v -1.90000000 -1.80000000 -0.10500000
v -1.90000000 -1.70000000 -0.11500000
v -1.90000000 -1.60000000 -0.12500000
v -1.90000000 -1.50000000 -0.13500000
v -1.90000000 -1.40000000 -0.14500000
v -1.90000000 -1.30000000 -0.15500000
v -1.90000000 -1.10000000 -0.17500000
v -1.90000000 -0.80000000 -0.20500000
v -1.90000000 -0.70000000 -0.21500000
v -1.90000000 -0.60000000 -0.22500000
v -1.90000000 -0.50000000 -0.23500000
v -1.90000000 -0.30000000 -0.25500000
v -1.90000000 -0.20000000 -0.26500000
v -1.90000000 -0.10000000 -0.27500000
v -1.90000000 0.00000000 -0.28500000
v -1.90000000 0.40000000 -0.32500000
v -1.90000000 0.50000000 -0.33500000
v -1.90000000 0.90000000 -0.37500000
v -1.90000000 1.00000000 -0.38500000
v -1.90000000 1.40000000 -0.42500000
v -1.90000000 1.50000000 -0.43500000
v -1.90000000 1.90000000 -0.47500000
v -1.90000000 2.00000000 -0.48500000
v -1.80000000 -2.00000000 -0.07000000
v -1.80000000 -1.90000000 -0.08000000
v -1.80000000 -1.80000000 -0.09000000
v -1.80000000 -1.70000000 -0.10000000
v -1.80000000 -1.60000000 -0.11000000
v -1.80000000 -1.50000000 -0.12000000
v -1.80000000 -1.40000000 -0.13000000
v -1.80000000 -1.30000000 -0.14000000
v -1.80000000 -1.10000000 -0.16000000
v -1.80000000 -0.80000000 -0.19000000
v -1.80000000 -0.70000000 -0.20000000
v -1.80000000 -0.60000000 -0.21000000
v -1.80000000 -0.50000000 -0.22000000
v -1.80000000 -0.30000000 -0.24000000
v -1.80000000 -0.20000000 -0.25000000
v -1.80000000 -0.10000000 -0.26000000
v -1.80000000 0.00000000 -0.27000000
v -1.80000000 0.40000000 -0.31000000
v -1.80000000 0.50000000 -0.32000000
v -1.80000000 0.90000000 -0.36000000
v -1.80000000 1.00000000 -0.37000000
v -1.80000000 1.40000000 -0.41000000
v -1.80000000 1.50000000 -0.42000000
v -1.80000000 1.90000000 -0.46000000
v -1.80000000 2.00000000 -0.47000000
v -1.70000000 -2.00000000 -0.05500000
v -1.70000000 -1.90000000 -0.06500000
v -1.70000000 -1.80000000 -0.07500000
v -1.70000000 -1.70000000 -0.08500000
v -1.70000000 -1.60000000 -0.09500000
v -1.70000000 -1.50000000 -0.10500000
v -1.70000000 -1.40000000 -0.11500000
v -1.70000000 -1.30000000 -0.12500000
v -1.70000000 -1.10000000 -0.14500000
v -1.70000000 -0.80000000 -0.17500000
v -1.70000000 -0.70000000 -0.18500000
v -1.70000000 -0.60000000 -0.19500000
v -1.70000000 -0.50000000 -0.20500000
v -1.70000000 -0.30000000 -0.22500000
v -1.70000000 -0.20000000 -0.23500000
v -1.70000000 -0.10000000 -0.24500000
v -1.70000000 0.00000000 -0.25500000
v -1.70000000 0.40000000 -0.29500000
v -1.70000000 0.50000000 -0.30500000
v -1.70000000 0.90000000 -0.34500000
v -1.70000000 1.00000000 -0.35500000
v -1.70000000 1.40000000 -0.39500000
v -1.70000000 1.50000000 -0.40500000
v -1.70000000 1.90000000 -0.44500000
v -1.70000000 2.00000000 -0.45500000
v -1.60000000 -2.00000000 -0.04000000
v -1.60000000 -1.90000000 -0.05000000
v -1.60000000 -1.80000000 -0.06000000
v -1.60000000 -1.70000000 -0.07000000
v -1.60000000 -1.60000000 -0.08000000
v -1.60000000 -1.50000000 -0.09000000
v -1.60000000 -1.40000000 -0.10000000
v -1.60000000 -1.30000000 -0.11000000
v -1.60000000 -1.10000000 -0.13000000
v -1.60000000 -0.80000000 -0.16000000
v -1.60000000 -0.70000000 -0.17000000
v -1.60000000 -0.60000000 -0.18000000
v -1.60000000 -0.50000000 -0.19000000
v -1.60000000 -0.30000000 -0.21000000
v -1.60000000 -0.20000000 -0.22000000
v -1.60000000 -0.10000000 -0.23000000
v -1.60000000 0.00000000 -0.24000000
v -1.60000000 0.40000000 -0.28000000
v -1.60000000 0.50000000 -0.29000000
v -1.60000000 0.90000000 -0.33000000
v -1.60000000 1.00000000 -0.34000000
v -1.60000000 1.40000000 -0.38000000
v -1.60000000 1.50000000 -0.39000000
v -1.60000000 1.90000000 -0.43000000
v -1.60000000 2.00000000 -0.44000000
v -1.50000000 -2.00000000 -0.02500000
v -1.50000000 -1.90000000 -0.03500000
v -1.50000000 -1.80000000 -0.04500000
v -1.50000000 -1.70000000 -0.05500000
v -1.50000000 -1.60000000 -0.06500000
v -1.50000000 -1.50000000 -0.07500000
v -1.50000000 -1.40000000 -0.08500000
v -1.50000000 -1.30000000 -0.09500000
v -1.50000000 -1.10000000 -0.11500000
v -1.50000000 -0.80000000 -0.14500000
v -1.50000000 -0.70000000 -0.15500000
v -1.50000000 -0.60000000 -0.16500000
v -1.50000000 -0.30000000 -0.19500000
v -1.50000000 -0.20000000 -0.20500000
v -1.50000000 -0.10000000 -0.21500000
v -1.50000000 0.00000000 -0.22500000
v -1.50000000 0.30000000 -0.25500000
v -1.50000000 0.40000000 -0.26500000
v -1.50000000 0.50000000 -0.27500000
v -1.50000000 0.90000000 -0.31500000
v -1.50000000 1.00000000 -0.32500000
v -1.50000000 1.40000000 -0.36500000
v -1.50000000 1.90000000 -0.41500000
v -1.50000000 2.00000000 -0.42500000
v -1.40000000 -2.00000000 -0.01000000
v -1.40000000 -1.90000000 -0.02000000
v -1.40000000 -1.80000000 -0.03000000
v -1.40000000 -1.70000000 -0.04000000
v -1.40000000 -1.60000000 -0.05000000
v -1.40000000 -1.50000000 -0.06000000
v -1.40000000 -1.40000000 -0.07000000
v -1.40000000 -1.30000000 -0.08000000
v -1.40000000 -0.80000000 -0.13000000
v -1.40000000 -0.70000000 -0.14000000
v -1.40000000 -0.60000000 -0.15000000
v -1.40000000 -0.50000000 -0.16000000
v -1.40000000 -0.20000000 -0.19000000
v -1.40000000 -0.10000000 -0.20000000
v -1.40000000 0.00000000 -0.21000000
v -1.40000000 0.30000000 -0.24000000
v -1.40000000 0.40000000 -0.25000000
v -1.40000000 0.50000000 -0.26000000
v -1.40000000 0.90000000 -0.30000000
v -1.40000000 1.00000000 -0.31000000
v -1.40000000 1.40000000 -0.35000000
v -1.40000000 1.50000000 -0.36000000
v -1.40000000 2.00000000 -0.41000000
v -1.30000000 -2.00000000 0.00500000
v -1.30000000 -1.90000000 -0.00500000
v -1.30000000 -1.80000000 -0.01500000
v -1.30000000 -1.70000000 -0.02500000
v -1.30000000 -1.60000000 -0.03500000
v -1.30000000 -1.50000000 -0.04500000
v -1.30000000 -1.40000000 -0.05500000
v -1.30000000 -0.70000000 -0.12500000
v -1.30000000 -0.60000000 -0.13500000
v -1.30000000 -0.50000000 -0.14500000
v -1.30000000 -0.30000000 -0.16500000
v -1.30000000 -0.20000000 -0.17500000
v -1.30000000 -0.10000000 -0.18500000
v -1.30000000 0.00000000 -0.19500000
v -1.30000000 0.40000000 -0.23500000
v -1.30000000 0.50000000 -0.24500000
v -1.30000000 0.90000000 -0.28500000
v -1.30000000 1.00000000 -0.29500000
v -1.30000000 1.40000000 -0.33500000
v -1.30000000 1.50000000 -0.34500000
v -1.30000000 1.90000000 -0.38500000
v -1.30000000 2.00000000 -0.39500000
v -1.20000000 -0.60000000 -0.12000000
v -1.20000000 -0.50000000 -0.13000000
v -1.20000000 -0.30000000 -0.15000000
v -1.20000000 -0.20000000 -0.16000000
v -1.20000000 0.40000000 -0.22000000
v -1.20000000 0.50000000 -0.23000000
v -1.20000000 0.90000000 -0.27000000
v -1.20000000 1.00000000 -0.28000000
v -1.20000000 1.40000000 -0.32000000
v -1.20000000 1.90000000 -0.37000000
v -1.20000000 2.00000000 -0.38000000
v -1.10000000 -2.00000000 0.03500000
v -1.10000000 -1.90000000 0.02500000
v -1.10000000 -1.80000000 0.01500000
v -1.10000000 -1.70000000 0.00500000
v -1.10000000 -1.60000000 -0.00500000
v -1.10000000 -0.50000000 -0.11500000
v -1.10000000 -0.40000000 -0.12500000
v -1.10000000 -0.30000000 -0.13500000
v -1.10000000 -0.20000000 -0.14500000
v -1.10000000 -0.10000000 -0.15500000
v -1.10000000 0.00000000 -0.16500000
v -1.10000000 0.40000000 -0.20500000
v -1.10000000 0.50000000 -0.21500000
v -1.10000000 0.90000000 -0.25500000
v -1.10000000 1.00000000 -0.26500000
v -1.10000000 1.40000000 -0.30500000
v -1.10000000 1.50000000 -0.31500000
v -1.10000000 1.90000000 -0.35500000
v -1.10000000 2.00000000 -0.36500000
v -1.00000000 -0.40000000 -0.11000000
v -1.00000000 -0.30000000 -0.12000000
v -1.00000000 -0.20000000 -0.13000000
v -0.80000000 -2.00000000 0.08000000
v -0.80000000 -1.90000000 0.07000000
v -0.80000000 -1.80000000 0.06000000
v -0.80000000 -1.70000000 0.05000000
v -0.80000000 -1.60000000 0.04000000
v -0.80000000 -0.20000000 -0.10000000
v -0.80000000 -0.10000000 -0.11000000
v -0.80000000 0.00000000 -0.12000000
v -0.80000000 0.10000000 -0.13000000
v -0.80000000 0.40000000 -0.16000000
v -0.80000000 0.50000000 -0.17000000
v -0.80000000 0.90000000 -0.21000000
v -0.80000000 1.00000000 -0.22000000
v -0.80000000 1.40000000 -0.26000000
v -0.80000000 1.50000000 -0.27000000
v -0.80000000 1.90000000 -0.31000000
v -0.80000000 2.00000000 -0.32000000
v -0.70000000 -2.00000000 0.09500000
v -0.70000000 -1.90000000 0.08500000
v -0.70000000 -1.80000000 0.07500000
v -0.70000000 -1.70000000 0.06500000
v -0.70000000 -1.60000000 0.05500000
v -0.70000000 -1.50000000 0.04500000
v -0.70000000 -0.10000000 -0.09500000
v -0.70000000 0.00000000 -0.10500000
v -0.70000000 0.10000000 -0.11500000
v -0.70000000 0.20000000 -0.12500000
v -0.70000000 0.90000000 -0.19500000
v -0.70000000 1.00000000 -0.20500000
v -0.70000000 1.40000000 -0.24500000
v -0.70000000 1.50000000 -0.25500000
v -0.70000000 1.90000000 -0.29500000
v -0.70000000 2.00000000 -0.30500000
v -0.60000000 -2.00000000 0.11000000
v -0.60000000 -1.90000000 0.10000000
v -0.60000000 -1.80000000 0.09000000
v -0.60000000 -1.70000000 0.08000000
v -0.60000000 -1.60000000 0.07000000
v -0.60000000 -1.50000000 0.06000000
v -0.60000000 0.00000000 -0.09000000
v -0.60000000 0.90000000 -0.18000000
v -0.60000000 1.00000000 -0.19000000
v -0.60000000 1.40000000 -0.23000000
v -0.60000000 1.50000000 -0.24000000
v -0.60000000 1.90000000 -0.28000000
v -0.60000000 2.00000000 -0.29000000
v -0.50000000 -2.00000000 0.12500000
v -0.50000000 -1.90000000 0.11500000
v -0.50000000 -1.80000000 0.10500000
v -0.50000000 -1.70000000 0.09500000
v -0.50000000 -1.60000000 0.08500000
v -0.50000000 -1.50000000 0.07500000
v -0.50000000 -1.40000000 0.06500000
v -0.50000000 0.90000000 -0.16500000
v -0.50000000 1.00000000 -0.17500000
v -0.50000000 1.40000000 -0.21500000
v -0.50000000 1.50000000 -0.22500000
v -0.50000000 1.90000000 -0.26500000
v -0.50000000 2.00000000 -0.27500000
v -0.40000000 -1.90000000 0.13000000
v -0.40000000 -1.80000000 0.12000000
v -0.40000000 -1.70000000 0.11000000
v -0.30000000 -2.00000000 0.15500000
v -0.30000000 -1.90000000 0.14500000
v -0.30000000 -1.80000000 0.13500000
v -0.30000000 -1.70000000 0.12500000
v -0.30000000 -1.60000000 0.11500000
v -0.30000000 -1.50000000 0.10500000
v -0.30000000 -1.40000000 0.09500000
v -0.30000000 -1.30000000 0.08500000
v -0.30000000 0.90000000 -0.13500000
v -0.30000000 1.00000000 -0.14500000
v -0.30000000 1.40000000 -0.18500000
v -0.30000000 1.50000000 -0.19500000
v -0.30000000 1.90000000 -0.23500000
v -0.30000000 2.00000000 -0.24500000
v -0.20000000 -2.00000000 0.17000000
v -0.20000000 -1.90000000 0.16000000
v -0.20000000 -1.80000000 0.15000000
v -0.20000000 -1.70000000 0.14000000
v -0.20000000 -1.60000000 0.13000000
v -0.20000000 -1.50000000 0.12000000
v -0.20000000 -1.40000000 0.11000000
v -0.20000000 -1.30000000 0.10000000
v -0.20000000 -1.10000000 0.08000000
v -0.20000000 0.90000000 -0.12000000
v -0.20000000 1.00000000 -0.13000000
v -0.20000000 1.40000000 -0.17000000
v -0.20000000 1.50000000 -0.18000000
v -0.20000000 1.90000000 -0.22000000
v -0.20000000 2.00000000 -0.23000000
v -0.10000000 -2.00000000 0.18500000
v -0.10000000 -1.90000000 0.17500000
v -0.10000000 -1.80000000 0.16500000
v -0.10000000 -1.70000000 0.15500000
v -0.10000000 -1.60000000 0.14500000
v -0.10000000 -1.50000000 0.13500000
v -0.10000000 -1.40000000 0.12500000
v -0.10000000 -1.30000000 0.11500000
v -0.10000000 -1.10000000 0.09500000
v -0.10000000 0.90000000 -0.10500000
v -0.10000000 1.00000000 -0.11500000
v -0.10000000 1.40000000 -0.15500000
v -0.10000000 1.50000000 -0.16500000
v -0.10000000 1.90000000 -0.20500000
v -0.10000000 2.00000000 -0.21500000
v 0.00000000 -2.00000000 0.20000000
v 0.00000000 -1.90000000 0.19000000
v 0.00000000 -1.80000000 0.18000000
v 0.00000000 -1.70000000 0.17000000
v 0.00000000 -1.60000000 0.16000000
v 0.00000000 -1.50000000 0.15000000
v 0.00000000 -1.40000000 0.14000000
v 0.00000000 -1.30000000 0.13000000
v 0.00000000 -1.10000000 0.11000000
v 0.00000000 0.90000000 -0.09000000
v 0.00000000 1.00000000 -0.10000000
v 0.00000000 1.40000000 -0.14000000
v 0.00000000 1.50000000 -0.15000000
v 0.00000000 1.90000000 -0.19000000
v 0.00000000 2.00000000 -0.20000000
v 0.40000000 -2.00000000 0.26000000
v 0.40000000 -1.90000000 0.25000000
v 0.40000000 -1.80000000 0.24000000
v 0.40000000 -1.70000000 0.23000000
v 0.40000000 -1.60000000 0.22000000
v 0.40000000 -1.50000000 0.21000000
v 0.40000000 -1.40000000 0.20000000
v 0.40000000 -1.30000000 0.19000000
v 0.40000000 1.00000000 -0.04000000
v 0.40000000 1.40000000 -0.08000000
v 0.40000000 1.50000000 -0.09000000
v 0.40000000 1.90000000 -0.13000000
v 0.40000000 2.00000000 -0.14000000
v 0.50000000 -2.00000000 0.27500000
v 0.50000000 -1.90000000 0.26500000
v 0.50000000 -1.80000000 0.25500000
v 0.50000000 -1.70000000 0.24500000
v 0.50000000 -1.60000000 0.23500000
v 0.50000000 -1.50000000 0.22500000
v 0.50000000 1.40000000 -0.06500000
v 0.50000000 1.50000000 -0.07500000
v 0.50000000 1.90000000 -0.11500000
v 0.50000000 2.00000000 -0.12500000
v 0.60000000 2.00000000 -0.11000000
v 0.80000000 -1.70000000 0.29000000
v 0.80000000 1.40000000 -0.02000000
v 0.80000000 1.50000000 -0.03000000
v 0.80000000 1.90000000 -0.07000000
v 0.80000000 2.00000000 -0.08000000
v 0.90000000 -2.00000000 0.33500000
v 0.90000000 -1.90000000 0.32500000
v 0.90000000 -1.80000000 0.31500000
v 0.90000000 -1.70000000 0.30500000
v 0.90000000 0.00000000 0.13500000
v 0.90000000 1.50000000 -0.01500000
v 0.90000000 1.90000000 -0.05500000
v 0.90000000 2.00000000 -0.06500000
v 1.00000000 -2.00000000 0.35000000
v 1.00000000 -1.90000000 0.34000000
v 1.00000000 -1.80000000 0.33000000
v 1.00000000 -1.70000000 0.32000000
v 1.00000000 -0.10000000 0.16000000
v 1.00000000 0.00000000 0.15000000
v 1.00000000 1.50000000 -0.00000000
v 1.00000000 1.90000000 -0.04000000
v 1.00000000 2.00000000 -0.05000000
v 1.40000000 -2.00000000 0.41000000
v 1.40000000 -1.90000000 0.40000000
v 1.40000000 -1.80000000 0.39000000
v 1.40000000 -1.70000000 0.38000000
v 1.40000000 -1.60000000 0.37000000
v 1.40000000 -0.30000000 0.24000000
v 1.40000000 -0.20000000 0.23000000
v 1.40000000 -0.10000000 0.22000000
v 1.40000000 0.00000000 0.21000000
v 1.40000000 0.40000000 0.17000000
v 1.40000000 0.50000000 0.16000000
v 1.40000000 1.40000000 0.07000000
v 1.40000000 1.50000000 0.06000000
v 1.40000000 1.90000000 0.02000000
v 1.40000000 2.00000000 0.01000000
v 1.50000000 -2.00000000 0.42500000
v 1.50000000 -1.90000000 0.41500000
v 1.50000000 -1.80000000 0.40500000
v 1.50000000 -1.70000000 0.39500000
v 1.50000000 -1.60000000 0.38500000
v 1.50000000 -0.50000000 0.27500000
v 1.50000000 -0.30000000 0.25500000
v 1.50000000 -0.20000000 0.24500000
v 1.50000000 -0.10000000 0.23500000
v 1.50000000 0.00000000 0.22500000
v 1.50000000 0.40000000 0.18500000
v 1.50000000 0.50000000 0.17500000
v 1.50000000 1.40000000 0.08500000
v 1.50000000 1.50000000 0.07500000
v 1.50000000 1.90000000 0.03500000
v 1.50000000 2.00000000 0.02500000
v 1.60000000 -0.20000000 0.26000000
v 1.60000000 -0.10000000 0.25000000
v 1.70000000 -0.10000000 0.26500000
v 1.70000000 0.00000000 0.25500000
v 1.90000000 -2.00000000 0.48500000
v 1.90000000 -1.90000000 0.47500000
v 1.90000000 -1.80000000 0.46500000
v 1.90000000 -1.70000000 0.45500000
v 1.90000000 -1.60000000 0.44500000
v 1.90000000 -1.50000000 0.43500000
v 1.90000000 -1.30000000 0.41500000
v 1.90000000 -1.20000000 0.40500000
v 1.90000000 -1.10000000 0.39500000
v 1.90000000 -0.80000000 0.36500000
v 1.90000000 -0.70000000 0.35500000
v 1.90000000 -0.60000000 0.34500000
v 1.90000000 -0.50000000 0.33500000
v 1.90000000 -0.30000000 0.31500000
v 1.90000000 -0.20000000 0.30500000
v 1.90000000 -0.10000000 0.29500000
v 1.90000000 0.00000000 0.28500000
v 1.90000000 0.40000000 0.24500000
v 1.90000000 0.50000000 0.23500000
v 1.90000000 0.90000000 0.19500000
v 1.90000000 1.00000000 0.18500000
v 1.90000000 1.40000000 0.14500000
v 1.90000000 1.50000000 0.13500000
v 1.90000000 1.90000000 0.09500000
v 1.90000000 2.00000000 0.08500000
v 2.00000000 -2.00000000 0.50000000
v 2.00000000 -1.90000000 0.49000000
v 2.00000000 -1.80000000 0.48000000
v 2.00000000 -1.70000000 0.47000000
v 2.00000000 -1.60000000 0.46000000
v 2.00000000 -1.50000000 0.45000000
v 2.00000000 -1.40000000 0.44000000
v 2.00000000 -1.30000000 0.43000000
v 2.00000000 -1.20000000 0.42000000
v 2.00000000 -1.10000000 0.41000000
v 2.00000000 -0.80000000 0.38000000
v 2.00000000 -0.70000000 0.37000000
v 2.00000000 -0.60000000 0.36000000
v 2.00000000 -0.50000000 0.35000000
v 2.00000000 -0.30000000 0.33000000
v 2.00000000 -0.20000000 0.32000000
v 2.00000000 -0.10000000 0.31000000
v 2.00000000 0.00000000 0.30000000
v 2.00000000 0.40000000 0.26000000
v 2.00000000 0.50000000 0.25000000
v 2.00000000 0.90000000 0.21000000
v 2.00000000 1.00000000 0.20000000
v 2.00000000 1.40000000 0.16000000
v 2.00000000 1.50000000 0.15000000
v 2.00000000 1.90000000 0.11000000
v 2.00000000 2.00000000 0.10000000
v -2.00000000 -2.00000000 -0.90000000
v -2.00000000 2.00000000 -0.90000000
v 2.00000000 -2.00000000 -0.90000000
v 2.00000000 2.00000000 -0.90000000
v -1.00000000 -1.36801178 -0.14545557
v -1.00000000 -1.00000000 -0.25000000
v -1.35000000 -1.21631190 -0.11631190
v -1.11243542 -1.48564633 -0.04143251
v -0.88756458 -1.48564633 -0.04143251
v -1.00000000 -1.19128657 -0.22335685
v -0.81807566 -1.30372200 -0.15386794
v -0.70227222 -1.41144968 -0.03173367
v -0.81599411 -1.11372189 -0.21573956
v -1.18192434 -1.30372200 -0.15386794
v -1.18400589 -1.11372189 -0.21573956
v -1.18400589 -0.88627811 -0.21573956
v -1.36801178 -1.00000000 -0.14545557
v -1.05676041 -1.43094941 -0.09869013
v -0.94323959 -1.43094941 -0.09869013
v -0.83403957 -1.53105661 0.02522240
v -1.00000000 -1.49203492 -0.04789721
v -1.00000000 -1.28234874 -0.19053039
v -1.00000000 -1.09656657 -0.24330722
v -1.00000000 -0.90343343 -0.24330722
v -0.90815973 -1.33910915 -0.15545054
v -0.73147039 -1.26252700 -0.14073803
v -0.85088399 -1.39987616 -0.10485446
v -0.90784124 -1.25076016 -0.19701322
v -0.73977638 -1.49497475 0.02894933
v -0.67209910 -1.31779335 -0.08055479
v -0.79279679 -1.45318833 -0.04161689
v -0.75769289 -1.36128513 -0.09841619
v -0.90685023 -1.05756973 -0.24138184
v -0.72966883 -1.16707385 -0.17370457
v -0.90704527 -1.15408192 -0.22647482
v -0.81514207 -1.21088122 -0.19137092
v -0.60502205 -1.35936281 -0.00260445
v -1.09184027 -1.33910915 -0.15545054
v -1.26852961 -1.26252700 -0.14073803
v -1.14911601 -1.39987616 -0.10485446
v -1.09215876 -1.25076016 -0.19701322
v -1.32790090 -1.31779335 -0.08055479
v -1.20720321 -1.45318833 -0.04161689
v -1.24230711 -1.36128513 -0.09841619
v -1.09314977 -1.05756973 -0.24138184
v -1.27033117 -1.16707385 -0.17370457
v -1.09295473 -1.15408192 -0.22647482
v -1.18485793 -1.21088122 -0.19137092
v -1.26852961 -0.73747300 -0.14073803
v -1.09314977 -0.94243027 -0.24138184
v -1.27033117 -0.83292615 -0.17370457
v -1.09295473 -0.84591808 -0.22647482
v -1.18648329 -1.00000000 -0.22470288
v -1.18485793 -0.78911878 -0.19137092
v -1.36348094 -1.10950413 -0.13812452
v -1.36348094 -0.89049587 -0.13812452
v -1.27972494 -1.05762651 -0.18908775
v -1.27972494 -0.94237349 -0.18908775
v 1.00000000 1.36801178 -0.04545557
v 1.00000000 1.00000000 -0.15000000
v 1.35000000 0.78368810 -0.01631190
v 1.35000000 1.21631190 -0.01631190
v 1.00000000 1.19128657 -0.12335685
v 1.49143251 0.88756458 0.06435367
v 1.18400589 0.88627811 -0.11573956
v 1.48173367 0.70227222 0.13855032
v 1.18192434 1.30372200 -0.05386794
v 1.49143251 1.11243542 0.06435367
v 1.18400589 1.11372189 -0.11573956
v 1.36801178 1.00000000 -0.04545557
v 0.81807566 1.30372200 -0.05386794
v 1.05676041 1.43094941 0.00130987
v 1.00000000 1.28234874 -0.09053039
v 1.00000000 1.09656657 -0.14330722
v 1.26852961 0.73747300 -0.04073803
v 1.54869013 0.94323959 0.11905059
v 1.42477760 0.83403957 0.01894339
v 1.32790090 0.68220665 0.01944521
v 1.09314977 0.94243027 -0.14138184
v 1.27033117 0.83292615 -0.07370457
v 1.18485793 0.78911878 -0.09137092
v 1.42105067 0.73977638 0.05502525
v 1.49161689 0.79279679 0.09681167
v 1.39497795 0.64063719 0.09739555
v 1.09184027 1.33910915 -0.05545054
v 1.26852961 1.26252700 -0.04073803
v 1.14911601 1.39987616 -0.00485446
v 1.09215876 1.25076016 -0.09701322
v 1.54869013 1.05676041 0.11905059
v 1.42477760 1.16596043 0.01894339
v 1.49789721 1.00000000 0.05796508
v 1.32790090 1.31779335 0.01944521
v 1.24230711 1.36128513 0.00158381
v 1.09314977 1.05756973 -0.14138184
v 1.27033117 1.16707385 -0.07370457
v 1.09295473 1.15408192 -0.12647482
v 1.18648329 1.00000000 -0.12470288
v 1.18485793 1.21088122 -0.09137092
v 1.42105067 1.26022362 0.05502525
v 1.49161689 1.20720321 0.09681167
v 1.36348094 0.89049587 -0.03812452
v 1.36348094 1.10950413 -0.03812452
v 1.43416771 0.94320070 0.00385694
v 1.27972494 0.94237349 -0.08908775
v 1.43416771 1.05679930 0.00385694
v 1.27972494 1.05762651 -0.08908775
v 0.90815973 1.33910915 -0.05545054
v 0.73147039 1.26252700 -0.04073803
v 0.90784124 1.25076016 -0.09701322
v 0.90685023 1.05756973 -0.14138184
v 0.90704527 1.15408192 -0.12647482
v 0.81514207 1.21088122 -0.09137092
v -0.88941000 -1.53870900 0.02045940
v -0.83648731 -1.53353086 0.02787999
v 1.00000000 0.19067418 0.13093258
v -0.63674855 -1.44242387 0.04873010
v -0.64555589 -1.44932015 0.04809863
v -1.40853344 -1.15099900 -0.09618012
v -1.40145602 -1.18166401 -0.09205200
v -1.40000000 -1.18585479 -0.09141452
v -1.41436253 -1.10000000 -0.10215438
v -0.67824852 -1.46867886 0.04513061
v -0.30000000 -1.10932582 0.06593258
v 0.94155223 1.42653183 -0.00142035
v 0.94593031 1.42796586 -0.00090704
v 0.96269875 1.43094941 0.00130987
v 1.00000000 1.43695602 0.00630440
v 0.90000000 1.40990842 -0.00599084
v -0.94627808 -1.54321149 0.01237944
v -0.94068039 -1.54340256 0.01323820
v -1.41791522 -1.06891733 -0.10579555
v -1.41773598 -1.04269155 -0.10839124
v -0.29067418 -1.10000000 0.06639887
v -1.40000000 -0.92694117 -0.11730588
v -1.40903456 -0.96477920 -0.11487726
v -0.20000000 -1.00932582 0.07093258
v -1.31654242 -1.35304967 -0.06217640
v -1.33841901 -1.32431171 -0.06833168
v 1.07120670 1.44514192 0.01616681
v 1.04451795 1.44412474 0.01226522
v -1.30000000 -1.37267578 -0.05773242
v -1.10000000 -1.51177232 -0.01382277
v -1.08241503 -1.51828943 -0.01053331
v -1.13008705 -1.50062186 -0.01945087
v -1.38279019 -0.87271141 -0.12014739
v -1.35345937 -0.81109627 -0.12190928
v -1.35004585 -1.30410702 -0.07209618
v -1.35201050 -1.30000000 -0.07280158
v -0.10000000 -0.90932582 0.07593258
v -1.21137923 -1.45647952 -0.03605893
v -1.22638283 -1.44434508 -0.03952292
v -1.20263532 -1.46181272 -0.03421403
v 1.18525013 1.43303989 0.03448353
v -1.38245024 -1.23636725 -0.08373081
v 1.13149336 1.44108318 0.02561569
v -1.13124953 -1.50000000 -0.01968743
v 0.00000000 -0.80932582 0.08093258
v 1.20932582 0.40000000 0.14139887
v -1.39732282 -0.91572875 -0.11802555
v 0.00932582 -0.80000000 0.08139887
v 1.28482944 1.39977462 0.05274695
v 1.28421122 1.40000000 0.05263168
v -1.34754406 -0.80000000 -0.12213161
v -1.34161195 -0.78887221 -0.12235457
v 1.21834768 1.42401173 0.04035098
v -1.33010813 -0.77240419 -0.12227580
v -1.30000000 -0.73479568 -0.12152043
v 1.30932582 0.50000000 0.14639887
v 1.40000000 0.59067418 0.15093258
v 1.37255386 1.34546600 0.07133648
v 1.40000000 1.32210812 0.07778919
v 1.30482551 1.38941858 0.05678197
v 1.50000000 0.71608732 0.15339127
v 1.50140466 0.71862102 0.15334860
v 1.48963410 0.69738948 0.15370617
v -1.27583525 -1.40000000 -0.05137529
v -1.28047848 -1.39583631 -0.05248814
v 1.42896059 0.61963476 0.15238061
v -1.28779014 -0.71954415 -0.12121410
v -1.26824598 -0.70000000 -0.12023690
v 1.47332955 0.67421441 0.15357799
v 1.49044268 1.21795829 0.10177057
v 1.49567650 1.20971219 0.10338026
v 1.50000000 1.20143996 0.10485600
v 1.44597653 1.27562865 0.08933361
v 0.33175402 0.90000000 -0.04023690
v 0.40000000 0.96824598 -0.03682460
v 1.40615267 1.31687192 0.07923571
v -1.16824598 -0.60000000 -0.11523690
v -1.10000000 -0.53175402 -0.11182460
v 1.50194730 1.19771417 0.10552068
v 1.52961479 1.13451845 0.11599037
v 0.43175402 1.00000000 -0.03523690
v 1.52550264 0.77185424 0.15163997
v 0.50000000 1.06824598 -0.03182460
v 1.55232667 0.84856208 0.14799279
v 1.55312095 0.85188658 0.14777948
v -1.04002609 -1.53016457 -0.00298746
v 1.55849473 0.90000000 0.14377421
v 1.55426964 0.85964598 0.14717585
v -1.06824598 -0.50000000 -0.11023690
v 1.56306088 0.96068174 0.13839096
v 1.56215092 0.93492037 0.14083060
v 1.55977289 1.00000000 0.13396593
v 1.55574206 1.04820130 0.12854118
v 1.55364287 1.05982137 0.12706429
v 1.54987605 1.07452817 0.12502859
v -0.83184422 -1.53259376 0.02848274
v -0.80000000 -1.52226602 0.03222660
v 0.71220986 1.28045585 -0.02121410
v -0.86824598 -0.30000000 -0.10023690
v -0.80000000 -0.23175402 -0.09682460
v 0.77836751 1.34157593 -0.01740247
v 0.74462171 1.31205697 -0.01951244
v 0.80000000 1.35586450 -0.01558645
v -0.74574412 -1.50466970 0.03860535
v -0.73486018 -1.50000000 0.03977097
v -0.70000000 -1.48080685 0.04308069
v -0.73296264 -1.49918587 0.03997419
v 0.90000000 0.09067418 0.12593258
v -0.76824598 -0.20000000 -0.09523690
v 0.84630214 1.38644772 -0.01169945
v 0.85746647 1.39289244 -0.01066927
v 0.87523268 1.40000000 -0.00871510
v -0.70000000 -0.13175402 -0.09182460
v -0.57103941 -1.38036524 0.05238061
v -0.59182916 -1.40000000 0.05122563
v -0.60000000 -1.40771690 0.05077169
v -0.66824598 -0.10000000 -0.09023690
v -0.63897403 -0.07072804 -0.08877330
v -0.60000000 -0.03175402 -0.08682460
v -0.50000000 -1.30932582 0.05593258
v -0.56824598 -0.00000000 -0.08523690
v -0.49067418 -1.30000000 0.05639887
v 1.00000000 -1.36801178 -0.09545557
v 1.59545557 -1.00000000 0.13198822
v 0.78368810 -1.56631190 0.15000000
v 1.21631190 -1.56631190 0.15000000
v 1.00000000 -1.00000000 -0.20000000
v 1.56631190 -0.65000000 0.28368810
v 1.56631190 -1.35000000 0.28368810
v 1.35000000 -1.21631190 -0.06631190
v 1.35000000 -0.78368810 -0.06631190
v 0.88756458 -1.48564633 0.00856749
v 1.30372200 -1.60386794 0.31807566
v 1.11243542 -1.48564633 0.00856749
v 1.11372189 -1.66573956 0.31599411
v 1.00000000 -1.59545557 0.13198822
v 1.00000000 -1.19128657 -0.17335685
v 1.60386794 -0.81807566 0.19627800
v 1.41144968 -0.51826633 0.20227222
v 1.60386794 -1.18192434 0.19627800
v 1.41144968 -1.48173367 0.20227222
v 1.18192434 -1.30372200 -0.10386794
v 1.49143251 -1.11243542 0.01435367
v 1.29772778 -1.41144968 0.01826633
v 1.18400589 -1.11372189 -0.16573956
v 1.48173367 -1.29772778 0.08855032
v 1.49143251 -0.88756458 0.01435367
v 1.18400589 -0.88627811 -0.16573956
v 1.48173367 -0.70227222 0.08855032
v 1.36801178 -1.00000000 -0.09545557
v 1.67335685 -1.00000000 0.30871343
v 0.58855032 -1.48173367 0.20227222
v 0.81807566 -1.30372200 -0.10386794
v 0.70227222 -1.41144968 0.01826633
v 0.81599411 -1.11372189 -0.16573956
v 0.73747300 -1.59073803 0.23147039
v 0.94323959 -1.43094941 -0.04869013
v 0.83403957 -1.53105661 0.07522240
v 0.83292615 -1.62370457 0.22966883
v 1.26252700 -1.59073803 0.23147039
v 1.05676041 -1.43094941 -0.04869013
v 1.16596043 -1.53105661 0.07522240
v 1.00000000 -1.49203492 0.00210279
v 1.16707385 -1.62370457 0.22966883
v 1.00000000 -1.67470288 0.31351671
v 1.21088122 -1.64137092 0.31514207
v 0.89049587 -1.58812452 0.13651906
v 1.10950413 -1.58812452 0.13651906
v 0.94320070 -1.54614306 0.06583229
v 0.94237349 -1.63908775 0.22027506
v 1.05679930 -1.54614306 0.06583229
v 1.05762651 -1.63908775 0.22027506
v 1.00000000 -1.28234874 -0.14053039
v 1.00000000 -1.09656657 -0.19330722
v 1.60545054 -0.90815973 0.16089085
v 1.59073803 -0.73147039 0.23747300
v 1.49497475 -0.57894933 0.23977638
v 1.53105661 -1.42477760 0.33403957
v 1.39987616 -1.55485446 0.35088399
v 1.60545054 -1.09184027 0.16089085
v 1.59073803 -1.26852961 0.23747300
v 1.31779335 -1.53055479 0.17209910
v 1.49497475 -1.42105067 0.23977638
v 1.36128513 -1.54841619 0.25769289
v 1.45318833 -1.49161689 0.29279679
v 1.09184027 -1.33910915 -0.10545054
v 1.26852961 -1.26252700 -0.09073803
v 1.14911601 -1.39987616 -0.05485446
v 1.09215876 -1.25076016 -0.14701322
v 1.54869013 -1.05676041 0.06905059
v 1.42477760 -1.16596043 -0.03105661
v 1.55485446 -1.14911601 0.10012384
v 1.26022362 -1.49497475 0.07894933
v 1.32790090 -1.31779335 -0.03055479
v 1.20720321 -1.45318833 0.00838311
v 1.35936281 -1.45260445 0.10502205
v 1.24230711 -1.36128513 -0.04841619
v 1.09314977 -1.05756973 -0.19138184
v 1.27033117 -1.16707385 -0.12370457
v 1.09295473 -1.15408192 -0.17647482
v 1.18485793 -1.21088122 -0.14137092
v 1.53055479 -1.32790090 0.18220665
v 1.42105067 -1.26022362 0.00502525
v 1.54841619 -1.24230711 0.13871487
v 1.45260445 -1.39497795 0.14063719
v 1.49161689 -1.20720321 0.04681167
v 1.39497795 -1.35936281 0.04739555
v 1.26852961 -0.73747300 -0.09073803
v 1.54869013 -0.94323959 0.06905059
v 1.42477760 -0.83403957 -0.03105661
v 1.55485446 -0.85088399 0.10012384
v 1.49789721 -1.00000000 0.00796508
v 1.32790090 -0.68220665 -0.03055479
v 1.09314977 -0.94243027 -0.19138184
v 1.27033117 -0.83292615 -0.12370457
v 1.09295473 -0.84591808 -0.17647482
v 1.18648329 -1.00000000 -0.17470288
v 1.18485793 -0.78911878 -0.14137092
v 1.53055479 -0.67209910 0.18220665
v 1.42105067 -0.73977638 0.00502525
v 1.54841619 -0.75769289 0.13871487
v 1.45260445 -0.60502205 0.14063719
v 1.49161689 -0.79279679 0.04681167
v 1.39497795 -0.64063719 0.04739555
v 1.36348094 -1.10950413 -0.08812452
v 1.36348094 -0.89049587 -0.08812452
v 1.43416771 -1.05679930 -0.04614306
v 1.27972494 -1.05762651 -0.13908775
v 1.43416771 -0.94320070 -0.04614306
v 1.27972494 -0.94237349 -0.13908775
v 1.64053039 -1.00000000 0.21765126
v 1.64701322 -0.90784124 0.24923984
v 1.64701322 -1.09215876 0.24923984
v 1.64137092 -0.81514207 0.28911878
v 1.62370457 -1.27033117 0.33292615
v 1.64137092 -1.18485793 0.28911878
v 1.67647482 -1.09295473 0.34591808
v 0.68220665 -1.53055479 0.17209910
v 0.90815973 -1.33910915 -0.10545054
v 0.73147039 -1.26252700 -0.09073803
v 0.85088399 -1.39987616 -0.05485446
v 0.90784124 -1.25076016 -0.14701322
v 0.73977638 -1.49497475 0.07894933
v 0.67209910 -1.31779335 -0.03055479
v 0.79279679 -1.45318833 0.00838311
v 0.64063719 -1.45260445 0.10502205
v 0.75769289 -1.36128513 -0.04841619
v 0.90685023 -1.05756973 -0.19138184
v 0.90704527 -1.15408192 -0.17647482
v 0.81514207 -1.21088122 -0.14137092
v 0.54739555 -1.39497795 0.14063719
v 0.60502205 -1.35936281 0.04739555
v 0.01409663 0.57101794 -0.06235832
v 0.01411788 0.57185995 -0.06190512
v 1.49882358 -1.47209046 0.37203258
v 1.48002437 -1.49146445 0.37115010
v -0.65680622 0.20000000 -0.11852093
v -0.63729735 0.16270265 -0.11186487
v -0.70000000 0.85586095 -0.19058610
v 0.49953938 -1.40046062 0.21497697
v 0.50000000 -1.40099592 0.21509959
v 1.28224731 -1.62136225 0.35447332
v 1.31955900 -1.60457621 0.35839147
v 0.49914303 -1.40000000 0.21487145
v 1.22505807 -1.64337674 0.34809639
v 0.40780381 -1.29219619 0.19039019
v 0.41430839 -1.30000000 0.19214626
v 0.01342684 0.54448345 -0.07664021
v -0.54624946 0.01254109 -0.08934590
v -0.54353693 0.01248032 -0.09073803
v -0.51461491 0.01644170 -0.10304230
v -0.62111593 0.85438398 -0.17860579
v -0.60000000 0.85271747 -0.17527175
v -0.60708461 0.85412126 -0.17647482
v 0.40000000 -1.28283363 0.18828336
v -0.55298969 0.01269211 -0.08588665
v 1.32551567 -0.40949025 0.23977638
v 1.19767784 -0.30000000 0.20965168
v 1.32755625 -1.60000000 0.35913344
v 1.38542743 -1.56688482 0.36450260
v 1.40000000 -0.47438735 0.25743873
v -0.55549768 0.01274830 -0.08459948
v 0.90000000 -1.66205655 0.30120565
v 0.89538800 -1.66141130 0.30044933
v 0.85086516 -1.64913484 0.29254326
v 0.87441668 -1.65639417 0.29680192
v 1.56969320 -0.64791024 0.30024500
v 1.55723035 -0.63073775 0.29665833
v -0.00847223 0.59635295 -0.06090613
v -0.10000000 0.65126883 -0.08012688
v 1.07795827 -0.20000000 0.18169374
v -0.00000000 0.59126968 -0.05912697
v 0.80495601 -1.63498419 0.28424182
v 0.80000000 -1.63286621 0.28328662
v 0.24760582 -1.10000000 0.14714087
v 1.53133338 -0.60000000 0.28970001
v 1.51210698 -0.57717972 0.28453402
v 0.87022831 -0.02977169 0.13351142
v 0.90000000 -0.05277708 0.14027771
v 1.16636221 -0.27317886 0.20227222
v 1.18515484 -0.28927433 0.20670066
v 1.50000000 -0.56521765 0.28152177
v 1.46829192 -0.53388909 0.27363270
v 1.00000000 -0.13546783 0.16354678
v 1.00000000 -1.67542226 0.31754223
v 0.99773077 -1.67536032 0.31719565
v 0.97799490 -1.67296849 0.31399608
v 0.93328648 -1.66671352 0.30666432
v 0.13807551 -0.96192449 0.11690378
v 0.01135199 -0.80000000 0.08170280
v -0.60000000 0.09139703 -0.09913970
v -0.57537477 0.04431816 -0.09073803
v -0.56325857 0.02507455 -0.08699624
v 1.60074235 -0.70000000 0.31011135
v 1.59488093 -0.68965770 0.30819791
v 1.61774162 -0.72999469 0.31566071
v 0.22351580 -1.07109821 0.14063719
v 0.15585137 -0.98463810 0.12184151
v 1.46712641 -0.53287359 0.27335632
v 1.67622133 -0.91460227 0.34289343
v 1.67528079 -0.90707753 0.34199987
v -0.59773337 0.85226835 -0.17488684
v 1.42939640 -0.50000000 0.26440946
v 1.62897306 -0.75515881 0.31986184
v 0.01438989 0.58263587 -0.05610510
v 0.81907878 0.00975295 0.12188652
v 0.83170025 -0.00000000 0.12475504
v 0.01046245 -0.79886337 0.08145570
v 1.64567059 -0.80000000 0.32685059
v 1.65144015 -0.81549414 0.32926544
v -0.54386713 0.84159492 -0.16573956
v -0.50000000 0.82918451 -0.15791845
v -0.52391508 0.83595030 -0.16218229
v 0.46047545 -1.35506291 0.20457761
v 1.67337232 -0.89892281 0.34089813
v 0.00000000 0.00000000 -0.20000000
v 0.06043465 0.01382961 -0.19575356
v 0.09296704 0.02127418 -0.19346767
v 0.01464306 -0.06324061 -0.19722119
v 1.40500731 -1.55383654 0.36613475
v 1.40000000 -1.55717348 0.36571735
v 0.45181553 -1.34499888 0.20227222
v 0.43459600 -1.32433989 0.19762339
v 0.72805471 -1.60000000 0.26920821
v 1.50000000 -1.47071786 0.37207179
v 1.44135129 -1.52418607 0.36862130
v 0.02123562 -0.09171260 -0.19597012
v 0.12265228 0.02806722 -0.19138184
v 0.16181021 0.01109071 -0.18794882
v 0.02833707 -0.12238243 -0.19462247
v 0.76533194 -1.61805060 0.27660485
v 0.81085687 0.00967321 0.11358487
v 0.80523359 0.00961867 0.10790705
v 0.81823421 0.00974476 0.12103376
v 0.01433028 -0.42307474 -0.13650461
v 0.01525757 -0.45706068 -0.12413477
v 0.45233946 0.01493444 -0.11460415
v 0.51298149 0.01733591 -0.09101463
v 0.81745031 0.00973716 0.12024226
v 0.58974156 -1.50000000 0.23846123
v 0.63014391 -1.53702303 0.24822389
v 0.64210635 -1.54702336 0.25101829
v 0.80518631 0.00961821 0.10785931
v 0.01009113 -0.77460105 0.05756471
v 0.01009499 -0.77485353 0.05781333
v 0.01019129 -0.78114583 0.06400933
v 0.01025984 -0.78562497 0.06841992
v 0.01014094 -0.77785558 0.06076943
v 0.01005375 -0.77215925 0.05516029
v 0.01034761 -0.79135962 0.07406680
v 0.00993307 -0.76427383 0.04739555
v 0.72025833 -1.59622479 0.26766123
v 0.65408224 -1.55500173 0.25361251
v 0.51369254 0.01736407 -0.09073803
v 0.54418331 0.01312670 -0.07695535
v 0.01542225 -0.46309667 -0.12193786
v 0.01681764 -0.51423897 -0.10332363
v 0.76355519 0.00921443 0.06582441
v 0.01329950 -0.74104125 0.02831162
v 0.57365653 -1.48526035 0.23457451
v 0.53765667 -1.44475819 0.22512432
v 0.85699234 -0.01954389 0.13050324
v 0.01280929 -0.54386590 -0.09073803
v 0.58550390 0.01409930 -0.05475198
v 0.55945703 0.01348621 -0.06874811
v 0.01395088 -0.59121673 -0.06647879
v -0.40718803 0.80292718 -0.14137092
v -0.30000000 0.75225163 -0.12022516
v 0.01468198 -0.62154100 -0.05094277
v 0.01490495 -0.63078930 -0.04620459
v 0.63053500 0.01515925 -0.03055479
v 0.65716747 0.01147322 -0.01409147
v 0.01151988 -0.65721412 -0.03055479
v 0.01334018 -0.40907932 -0.14137092
v 0.01468390 -0.39763442 -0.14455057
v 0.43573050 0.01500005 -0.12079432
v 0.01688936 -0.37884978 -0.14976935
v 0.43376797 0.01500780 -0.12152576
v 0.41083752 0.01509838 -0.13007194
v 1.00274125 -1.67549707 0.31796089
v 1.57129847 -1.38155381 0.37385015
v 1.58472435 -1.36137952 0.37384661
v 1.59869999 -1.33579399 0.37338440
v 1.61624805 -1.30000000 0.37243721
v 1.10348127 -1.67041601 0.33256379
v 1.53648081 -1.42815373 0.37328749
v 0.01942812 -0.27829967 -0.17396845
v 0.01825020 -0.29479431 -0.17022579
v 0.35555792 0.01721418 -0.14708124
v 0.33875509 0.01553786 -0.15167572
v 0.01683826 -0.31456604 -0.16573956
v 0.01685696 -0.33809212 -0.15989490
v 0.31044091 0.01271313 -0.15941781
v 1.66104843 -1.18416991 0.36757426
v 1.67162459 -1.13409197 0.36415289
v 1.67759479 -1.10000000 0.36163922
v 0.01686940 -0.35374216 -0.15600692
v 0.37644154 0.01929760 -0.14137092
v 1.65213796 -1.21193886 0.36901458
v 1.62916002 -1.27366255 0.37174026
v 1.68036272 -1.07148428 0.35920284
v 1.67882318 -1.09298546 0.36112202
v 0.01793894 0.18455613 -0.18336853
v 0.01794515 0.16866465 -0.18582709
v -0.13320623 0.01751327 -0.19338466
v -0.16181887 0.01109937 -0.19138184
v 0.01792427 0.22214630 -0.17755296
v -0.18053562 0.01412980 -0.18895406
v -0.62146072 0.13242595 -0.10646170
v -0.49695871 0.01600933 -0.10948708
v 0.01244189 0.25947854 -0.17120499
v 0.01301000 0.25633058 -0.17175134
v -0.22560902 0.02142763 -0.18310753
v 0.01792156 0.22911510 -0.17647482
v 1.68255478 -1.00000000 0.35238322
v 0.01819590 0.11476247 -0.19239742
v 0.02411690 0.12660260 -0.19138184
v -0.07431523 0.02225134 -0.19702298
v -0.09939665 0.02023341 -0.19547344
v 0.02163552 0.14351384 -0.18914853
v -0.10541624 0.01974911 -0.19510154
v -0.21914631 0.71402623 -0.10427457
v -0.20000000 0.70497439 -0.10049744
v 1.12220431 -1.66799578 0.33513022
v -0.72377935 0.32804021 -0.14137092
v -0.70000000 0.28257850 -0.13325785
v -0.40960943 0.01387028 -0.14137092
v -0.43426647 0.01447410 -0.13237072
v 0.01538514 0.28234264 -0.16573956
v -0.22659240 0.02128260 -0.18293289
v 0.01693128 0.32159719 -0.15559525
v -0.31310350 0.01537572 -0.16573956
v -0.28420181 0.01568915 -0.17192668
v -0.31844666 0.01570382 -0.16449266
v -0.26295620 0.01591955 -0.17647482
v 0.01716204 0.32745585 -0.15408124
v 1.19293100 -1.65246476 0.34418613
v 0.01703158 -0.26406823 -0.17647482
v 0.01525094 -0.20891278 -0.18473565
v -0.80471393 0.55767728 -0.17647482
v -0.80772359 0.57442460 -0.17860100
v -0.37527535 0.01919346 -0.15123093
v -0.37647219 0.01926695 -0.15095164
v 0.01909929 0.37663985 -0.14137092
v 0.01323520 0.40897434 -0.13146627
v -0.15052948 0.68158610 -0.09073803
v 0.01437097 0.58188630 -0.05650855
v 0.01429049 0.57869827 -0.05822447
v 0.01381833 -0.16453783 -0.19138184
v -0.82581515 0.67509565 -0.19138184
v 0.01766199 0.51339462 -0.09073803
v 0.01699229 0.49759754 -0.09689955
v 0.01425755 0.57739311 -0.05892696
v 0.01419460 0.57489949 -0.06026912
v 0.01416846 0.57386367 -0.06082664
v 0.01551678 0.46279291 -0.11047480
v -0.71478423 0.85032262 -0.19224990
v 0.01070134 0.06749389 -0.19552879
v -0.70523955 0.85595905 -0.19138184
v -0.80000000 0.80000000 -0.20000000
v 0.74171555 0.01262520 0.04739555
v 0.76292016 0.00931361 0.06528856
v -0.82247690 0.69124749 -0.19249628
v 0.25717274 0.01808681 -0.17049783
v 0.28085767 0.01687011 -0.16573956
v 0.18105020 0.01359043 -0.18458416
v 0.22742151 0.01961515 -0.17647482
v -0.80125059 0.54646789 -0.17483438
v -0.80000000 0.54242026 -0.17424203
v -0.78204936 0.48432158 -0.16573956
v -0.78689349 0.50000000 -0.16803402
v 0.96485326 -0.10637413 0.15536540
v 0.95715298 -0.10000000 0.15357295
v 0.90158173 -0.05399932 0.14063719
v -0.73682717 0.36303473 -0.14682755
v -0.75060979 0.40000000 -0.15259147
f 70 71 45
f 45 71 46
f 72 73 47
f 47 73 48
f 89 90 64
f 64 90 65
f 91 92 66
f 66 92 67
f 158 159 135
f 135 159 136
f 159 160 136
f 136 160 137
f 160 161 137
f 138 162 139
f 143 167 144
f 170 171 147
f 148 172 149
f 158 180 159
f 180 181 159
f 159 181 160
f 187 188 166
f 195 196 181
f 181 196 182
f 197 198 183
f 183 198 184
f 199 200 187
f 187 200 188
f 189 202 190
f 204 205 193
f 193 205 194
f 195 211 196
f 211 212 196
f 213 214 197
f 197 214 198
f 217 218 199
f 199 218 200
f 219 220 201
f 221 222 203
f 223 224 204
f 204 224 205
f 211 225 212
f 226 227 213
f 213 227 214
f 251 252 234
f 234 252 235
f 253 254 236
f 255 256 239
f 239 256 240
f 257 258 241
f 241 258 242
f 259 260 243
f 243 260 244
f 274 275 261
f 261 275 262
f 281 282 268
f 268 282 269
f 283 284 270
f 270 284 271
f 274 287 275
f 287 288 275
f 275 288 276
f 291 292 287
f 287 292 288
f 293 294 289
f 305 306 291
f 291 306 292
f 307 308 293
f 293 308 294
f 313 314 298
f 298 314 299
f 315 316 300
f 300 316 301
f 343 344 328
f 328 344 329
f 363 364 350
f 350 364 351
f 365 366 352
f 352 366 353
f 370 371 360
f 360 371 361
f 370 372 371
f 387 388 379
f 379 388 380
f 413 414 398
f 398 414 399
f 416 417 400
f 400 417 401
f 420 421 404
f 404 421 405
f 416 426 417
f 417 427 418
f 428 429 427
f 456 457 431
f 431 457 432
f 458 459 433
f 433 459 434
f 460 461 435
f 462 463 436
f 436 463 437
f 463 464 437
f 437 464 438
f 465 466 439
f 439 466 440
f 312 616 613
f 405 649 648
f 667 673 357
f 670 681 211
f 692 701 233
f 705 709 251
f 502 508 490
f 508 515 490
f 506 512 510
f 488 501 498
f 487 522 519
f 519 526 487
f 526 535 487
f 495 527 525
f 513 515 493
f 511 512 507
f 509 511 500
f 502 521 518
f 490 521 502
f 490 527 521
f 497 538 536
f 503 527 490
f 525 527 503
f 486 525 503
f 503 513 486
f 503 515 513
f 490 515 503
f 560 584 545
f 545 561 560
f 514 516 506
f 508 516 515
f 515 516 493
f 554 591 590
f 566 578 575
f 575 586 582
f 549 578 576
f 575 578 549
f 549 586 575
f 502 518 485
f 485 518 498
f 581 584 560
f 557 583 581
f 555 558 541
f 541 560 555
f 557 581 541
f 541 581 560
f 558 564 562
f 562 564 546
f 558 562 541
f 541 562 557
f 492 512 511
f 492 517 510
f 510 512 492
f 492 511 509
f 489 511 507
f 500 511 489
f 518 521 494
f 525 533 495
f 507 512 491
f 491 516 508
f 491 512 506
f 506 516 491
f 559 574 540
f 540 574 554
f 574 576 554
f 549 576 574
f 582 586 550
f 550 586 584
f 550 584 581
f 581 583 550
f 499 501 489
f 498 501 499
f 498 499 485
f 489 507 499
f 519 528 526
f 494 528 519
f 521 528 494
f 526 528 495
f 495 528 527
f 527 528 521
f 536 538 531
f 530 533 525
f 504 530 486
f 486 530 525
f 495 537 526
f 533 537 495
f 526 537 535
f 533 538 537
f 535 537 497
f 537 538 497
f 505 507 491
f 499 507 505
f 499 505 485
f 491 508 505
f 505 508 502
f 485 505 502
f 548 580 570
f 577 586 549
f 574 577 549
f 584 586 577
f 559 577 574
f 545 577 559
f 545 584 577
f 544 583 557
f 522 524 519
f 519 524 494
f 531 538 496
f 496 538 533
f 530 532 496
f 496 533 530
f 572 573 566
f 566 575 542
f 575 582 542
f 542 582 570
f 542 572 566
f 582 585 570
f 570 585 548
f 550 585 582
f 583 585 550
f 543 591 554
f 554 576 543
f 589 592 591
f 589 591 543
f 553 589 543
f 576 578 568
f 543 576 568
f 543 568 553
f 562 563 557
f 557 563 544
f 546 563 562
f 494 520 518
f 494 524 520
f 518 520 498
f 520 524 523
f 498 520 488
f 520 523 488
f 496 534 531
f 531 534 529
f 532 534 496
f 570 580 579
f 570 579 542
f 542 579 572
f 571 583 544
f 548 585 571
f 571 585 583
f 551 592 589
f 588 592 551
f 547 573 567
f 568 578 547
f 566 573 547
f 547 578 566
f 548 571 569
f 556 571 544
f 569 571 556
f 551 589 587
f 539 587 553
f 587 589 553
f 547 567 565
f 539 565 552
f 565 567 552
f 565 568 547
f 553 565 539
f 553 568 565
f 593 594 500
f 536 626 625
f 523 631 630
f 630 632 523
f 580 663 662
f 522 627 618
f 546 661 655
f 686 687 569
f 556 683 682
f 619 620 552
f 492 596 517
f 492 597 596
f 375 704 383
f 374 704 375
f 383 704 608
f 492 602 597
f 509 602 492
f 609 610 489
f 501 609 489
f 489 610 593
f 489 593 500
f 522 618 617
f 622 623 488
f 488 624 622
f 523 632 488
f 632 636 488
f 488 636 624
f 614 615 497
f 536 614 497
f 536 639 614
f 225 691 226
f 681 691 225
f 211 681 225
f 625 639 536
f 691 692 233
f 227 691 233
f 226 691 227
f 531 643 626
f 531 626 536
f 531 644 643
f 642 645 573
f 641 642 573
f 567 645 633
f 573 645 567
f 653 654 546
f 546 655 653
f 524 657 656
f 524 631 523
f 524 656 631
f 522 617 524
f 617 621 524
f 621 657 524
f 249 696 232
f 249 697 696
f 250 697 249
f 232 696 689
f 497 615 612
f 535 612 611
f 497 612 535
f 234 705 251
f 701 705 234
f 535 611 601
f 535 601 598
f 529 646 531
f 531 646 644
f 391 700 382
f 595 700 391
f 529 659 647
f 529 647 646
f 548 671 580
f 548 672 671
f 573 652 641
f 572 652 573
f 650 652 572
f 633 635 567
f 563 676 544
f 676 677 544
f 546 654 563
f 654 674 563
f 674 676 563
f 580 671 664
f 580 664 663
f 579 668 572
f 572 668 651
f 572 651 650
f 580 662 579
f 662 665 579
f 665 668 579
f 564 661 546
f 658 661 564
f 251 710 252
f 709 710 251
f 710 711 252
f 552 635 619
f 567 635 552
f 551 695 693
f 551 702 695
f 517 708 707
f 517 707 706
f 596 708 517
f 551 694 588
f 693 694 551
f 509 698 602
f 509 699 698
f 569 687 548
f 548 687 672
f 501 678 609
f 623 678 501
f 488 623 501
f 685 686 569
f 487 634 628
f 487 628 522
f 522 628 627
f 677 680 544
f 544 680 556
f 403 638 595
f 404 638 403
f 403 595 391
f 599 600 487
f 600 634 487
f 556 684 569
f 684 685 569
f 682 684 556
f 535 599 487
f 598 599 535
f 556 680 679
f 679 683 556
f 588 694 690
f 279 708 266
f 280 707 279
f 707 708 279
f 552 606 539
f 539 606 605
f 405 648 404
f 404 648 638
f 697 699 509
f 696 697 509
f 587 702 551
f 587 703 702
f 539 604 587
f 539 605 604
f 407 642 406
f 407 645 642
f 633 645 407
f 407 635 633
f 619 635 392
f 392 620 619
f 392 635 407
f 607 620 392
f 500 689 509
f 689 696 509
f 688 689 500
f 594 688 500
f 587 704 703
f 608 704 587
f 604 608 587
f 552 607 606
f 552 620 607
f 280 714 712
f 297 714 296
f 296 714 280
f 649 658 564
f 648 649 564
f 638 648 564
f 595 638 564
f 564 700 595
f 421 649 405
f 421 661 658
f 421 658 649
f 655 661 421
f 653 655 421
f 603 714 297
f 637 640 517
f 629 637 517
f 616 629 517
f 613 616 517
f 603 613 517
f 517 714 603
f 712 714 517
f 706 712 517
f 311 603 297
f 312 603 311
f 312 613 603
f 529 669 660
f 529 670 669
f 529 660 659
f 529 681 670
f 529 691 681
f 529 692 691
f 529 701 692
f 529 710 709
f 529 705 701
f 529 709 705
f 449 674 448
f 449 676 674
f 449 677 676
f 421 654 653
f 448 674 654
f 449 680 677
f 448 654 421
f 679 680 449
f 327 616 312
f 327 629 616
f 588 675 673
f 588 673 667
f 588 667 666
f 529 713 711
f 529 711 710
f 588 690 675
f 422 671 451
f 664 671 422
f 450 686 685
f 450 687 686
f 672 687 450
f 451 672 450
f 671 672 451
f 450 685 684
f 450 682 449
f 682 683 449
f 450 684 682
f 449 683 679
f 342 629 327
f 342 637 629
f 342 640 637
f 666 667 357
f 344 666 357
f 343 666 344
f 133 600 599
f 157 600 133
f 133 599 134
f 134 599 598
f 598 601 134
f 135 615 614
f 135 614 158
f 134 615 135
f 612 615 134
f 611 612 134
f 601 611 134
f 357 675 358
f 358 675 368
f 673 675 357
f 383 606 392
f 604 605 383
f 605 606 383
f 606 607 392
f 383 608 604
f 179 621 617
f 179 617 156
f 617 618 156
f 156 618 157
f 618 627 157
f 627 628 157
f 628 634 157
f 157 634 600
f 675 690 368
f 374 694 693
f 368 694 374
f 693 695 374
f 690 694 368
f 624 636 210
f 177 636 178
f 210 636 177
f 622 624 210
f 181 660 195
f 660 669 195
f 180 660 181
f 614 639 158
f 158 639 625
f 625 626 158
f 626 643 158
f 406 642 641
f 641 652 406
f 406 652 650
f 650 651 406
f 158 646 180
f 644 646 158
f 646 647 180
f 643 644 158
f 178 636 632
f 178 632 630
f 630 631 178
f 631 656 178
f 178 656 179
f 656 657 179
f 179 657 621
f 647 659 180
f 659 660 180
f 422 665 662
f 662 663 422
f 663 664 422
f 422 668 665
f 406 668 422
f 651 668 406
f 195 669 211
f 669 670 211
f 210 610 609
f 609 678 210
f 210 678 623
f 210 623 622
f 593 610 232
f 232 594 593
f 232 610 210
f 232 688 594
f 232 689 688
f 698 699 250
f 250 699 697
f 695 702 374
f 702 703 374
f 703 704 374
f 266 602 250
f 597 602 266
f 602 698 250
f 596 597 266
f 266 708 596
f 280 712 706
f 706 707 280
f 588 846 845
f 356 859 858
f 845 860 588
f 858 867 356
f 861 868 529
f 328 882 881
f 890 891 382
f 381 900 875
f 415 915 911
f 902 920 640
f 564 945 944
f 514 948 947
f 564 951 946
f 944 951 564
f 564 955 945
f 564 970 955
f 956 961 517
f 517 957 956
f 517 960 957
f 958 960 517
f 517 959 958
f 517 962 959
f 560 988 949
f 987 989 516
f 530 1033 1017
f 1059 1060 588
f 1060 1065 588
f 1065 1066 588
f 1066 1067 588
f 588 1067 846
f 849 1038 254
f 750 835 717
f 835 838 830
f 717 835 830
f 832 839 745
f 750 761 724
f 748 751 717
f 717 830 748
f 757 764 762
f 727 764 757
f 828 829 825
f 732 825 772
f 732 828 825
f 740 808 806
f 724 837 750
f 750 837 835
f 836 839 832
f 761 763 755
f 755 763 726
f 753 755 726
f 724 761 755
f 759 761 750
f 751 762 759
f 717 759 750
f 751 759 717
f 762 764 728
f 728 763 761
f 759 762 728
f 728 761 759
f 830 838 744
f 838 843 744
f 760 763 728
f 728 764 760
f 756 764 727
f 760 764 756
f 718 760 756
f 745 842 832
f 722 817 791
f 801 804 782
f 772 825 823
f 721 827 773
f 773 794 721
f 773 828 732
f 827 828 773
f 773 796 794
f 732 796 773
f 812 816 805
f 731 814 769
f 817 820 791
f 790 806 719
f 746 838 835
f 835 837 746
f 746 844 838
f 837 839 746
f 836 844 746
f 746 839 836
f 749 755 753
f 724 755 749
f 754 760 718
f 718 785 754
f 726 763 754
f 754 763 760
f 754 787 726
f 785 787 754
f 774 785 718
f 727 758 756
f 747 842 841
f 765 834 831
f 841 842 834
f 729 841 834
f 729 834 765
f 831 834 745
f 834 842 745
f 786 795 722
f 786 799 795
f 736 789 787
f 736 787 785
f 736 799 786
f 786 789 736
f 782 784 772
f 784 798 796
f 772 784 732
f 784 796 732
f 796 798 738
f 738 799 797
f 795 799 738
f 738 798 795
f 738 797 794
f 794 796 738
f 783 817 722
f 722 795 783
f 795 798 783
f 825 829 743
f 823 825 743
f 716 782 772
f 716 801 782
f 772 823 716
f 794 797 775
f 721 794 775
f 775 797 733
f 733 777 775
f 721 775 770
f 775 777 770
f 814 816 741
f 741 816 812
f 723 805 800
f 802 812 723
f 723 812 805
f 800 807 723
f 790 809 806
f 806 809 740
f 833 837 724
f 749 833 724
f 831 833 749
f 833 839 837
f 745 839 833
f 745 833 831
f 733 797 788
f 733 788 774
f 797 799 788
f 774 788 785
f 788 799 736
f 785 788 736
f 718 756 752
f 752 774 718
f 756 758 752
f 752 758 725
f 840 841 766
f 766 841 729
f 719 840 766
f 766 790 719
f 765 831 715
f 749 753 715
f 715 831 749
f 715 778 765
f 753 778 715
f 753 780 778
f 787 789 780
f 726 787 780
f 726 780 753
f 804 821 819
f 783 819 817
f 818 821 802
f 807 818 723
f 723 818 802
f 811 814 741
f 769 814 811
f 769 811 720
f 802 821 739
f 739 804 801
f 739 821 804
f 740 822 807
f 809 822 740
f 820 822 809
f 807 822 818
f 800 810 807
f 807 810 740
f 752 776 774
f 725 776 752
f 771 776 725
f 774 776 733
f 776 777 733
f 771 777 776
f 766 792 790
f 729 792 766
f 780 789 734
f 778 780 734
f 782 804 735
f 804 819 735
f 735 819 783
f 783 798 735
f 735 798 784
f 735 784 782
f 720 811 768
f 742 821 818
f 818 822 742
f 819 821 742
f 742 822 820
f 742 820 817
f 817 819 742
f 737 809 790
f 790 792 737
f 737 820 809
f 792 793 737
f 791 820 737
f 737 793 791
f 765 781 729
f 781 792 729
f 781 793 792
f 778 781 765
f 734 781 778
f 734 793 781
f 779 789 786
f 734 789 779
f 779 786 722
f 722 791 779
f 791 793 779
f 779 793 734
f 767 801 716
f 716 823 767
f 741 813 811
f 811 813 768
f 823 824 767
f 743 824 823
f 768 813 730
f 767 824 730
f 741 815 813
f 812 815 741
f 802 815 812
f 739 815 802
f 730 826 768
f 824 826 730
f 801 803 739
f 803 815 739
f 767 803 801
f 813 815 803
f 730 803 767
f 730 813 803
f 838 844 843
f 854 855 725
f 879 880 720
f 826 927 922
f 843 910 909
f 748 965 964
f 744 935 934
f 757 899 898
f 829 1014 1013
f 744 973 972
f 997 1036 727
f 840 1061 1051
f 1000 1003 747
f 740 1077 1076
f 816 1074 1073
f 731 893 892
f 229 246 247
f 230 229 247
f 267 711 713
f 252 711 267
f 592 588 1064
f 1068 592 1064
f 1057 592 1068
f 97 96 121
f 122 97 121
f 1039 534 1055
f 1040 534 1039
f 13 12 37
f 38 13 37
f 317 316 331
f 332 317 331
f 971 985 510
f 982 510 985
f 971 510 517
f 231 230 247
f 248 231 247
f 425 453 454
f 424 453 425
f 2 1 26
f 27 2 26
f 14 13 38
f 39 14 38
f 564 558 970
f 1073 558 984
f 1074 558 1073
f 970 558 1074
f 98 97 122
f 123 98 122
f 215 214 227
f 234 215 227
f 233 234 227
f 701 234 233
f 231 248 249
f 232 231 249
f 428 444 445
f 426 444 428
f 216 234 235
f 215 234 216
f 14 39 40
f 15 14 40
f 317 332 333
f 318 317 333
f 1079 1076 559
f 545 559 1005
f 1078 1079 559
f 1077 559 1076
f 1005 559 1077
f 941 1078 559
f 217 236 237
f 216 236 217
f 235 236 216
f 16 15 40
f 41 16 40
f 99 98 123
f 124 99 123
f 483 482 484
f 481 482 483
f 100 99 124
f 125 100 124
f 17 16 41
f 42 17 41
f 513 999 1050
f 513 493 999
f 1051 513 1050
f 1061 513 1051
f 942 513 1061
f 218 237 238
f 217 237 218
f 320 319 334
f 335 320 334
f 504 486 928
f 1030 504 928
f 1085 390 391
f 1086 1085 391
f 1086 391 382
f 891 1086 382
f 2 27 28
f 3 2 28
f 102 101 126
f 127 102 126
f 1070 928 540
f 1028 1070 540
f 554 1028 540
f 18 17 42
f 43 18 42
f 429 445 446
f 428 445 429
f 236 235 252
f 253 236 252
f 321 320 335
f 336 321 335
f 1084 390 1085
f 896 390 1084
f 19 18 43
f 44 19 43
f 103 102 127
f 128 103 127
f 1062 219 218
f 1080 1052 238
f 1052 1053 218
f 1052 218 238
f 1062 218 1053
f 1075 219 1062
f 1072 219 1075
f 239 219 1072
f 1081 1080 238
f 19 44 45
f 20 19 45
f 1037 236 254
f 1037 237 236
f 1037 254 1038
f 1087 237 1037
f 1088 237 1087
f 431 430 455
f 456 431 455
f 376 375 383
f 384 376 383
f 384 383 392
f 393 384 392
f 321 336 337
f 322 321 337
f 1082 238 237
f 1082 237 1088
f 1083 238 1082
f 220 219 240
f 239 240 219
f 21 20 45
f 46 21 45
f 104 103 128
f 129 104 128
f 1081 238 1083
f 4 3 28
f 29 4 28
f 385 384 393
f 394 385 393
f 323 322 337
f 338 323 337
f 377 376 384
f 385 377 384
f 22 21 46
f 47 22 46
f 433 432 457
f 458 433 457
f 221 240 241
f 220 240 221
f 387 395 396
f 386 395 387
f 105 104 129
f 130 105 129
f 1069 1071 255
f 851 255 1071
f 239 1069 255
f 1072 1069 239
f 5 4 29
f 30 5 29
f 241 240 256
f 257 241 256
f 435 434 459
f 460 435 459
f 23 22 47
f 48 23 47
f 379 378 386
f 387 379 386
f 324 323 338
f 339 324 338
f 388 396 397
f 387 396 388
f 222 241 242
f 221 241 222
f 106 105 130
f 131 106 130
f 243 242 258
f 259 243 258
f 6 5 30
f 31 6 30
f 398 399 871
f 855 398 871
f 854 398 855
f 857 398 854
f 1049 398 857
f 1036 398 1049
f 389 398 1036
f 997 389 1036
f 992 389 997
f 897 389 992
f 436 435 461
f 462 436 461
f 24 23 48
f 49 24 48
f 380 388 389
f 381 380 389
f 324 339 340
f 325 324 340
f 389 397 398
f 388 397 389
f 872 399 933
f 871 399 872
f 223 242 243
f 222 242 223
f 107 106 131
f 132 107 131
f 246 245 261
f 262 246 261
f 7 6 31
f 32 7 31
f 439 438 464
f 465 439 464
f 25 24 49
f 50 25 49
f 224 243 244
f 223 243 224
f 326 325 340
f 341 326 340
f 770 777 847
f 848 847 777
f 247 246 262
f 263 247 262
f 8 7 32
f 33 8 32
f 108 107 132
f 133 108 132
f 725 758 857
f 854 725 857
f 26 51 52
f 27 26 52
f 9 8 33
f 34 9 33
f 440 466 467
f 441 440 467
f 871 872 771
f 871 771 725
f 855 871 725
f 247 263 264
f 248 247 264
f 9 34 35
f 10 9 35
f 327 326 341
f 342 327 341
f 720 888 769
f 769 888 889
f 880 888 720
f 28 27 52
f 53 28 52
f 11 10 35
f 36 11 35
f 109 108 133
f 134 109 133
f 769 894 895
f 889 894 769
f 249 248 264
f 265 249 264
f 229 228 245
f 246 229 245
f 442 441 467
f 468 442 467
f 29 28 53
f 54 29 53
f 768 906 907
f 720 768 907
f 908 906 768
f 12 11 36
f 37 12 36
f 109 134 135
f 110 109 135
f 743 912 824
f 824 912 913
f 250 249 265
f 266 250 265
f 443 442 468
f 469 443 468
f 768 826 916
f 908 768 916
f 30 29 54
f 55 30 54
f 111 110 135
f 136 111 135
f 916 826 921
f 922 921 826
f 31 30 55
f 56 31 55
f 444 443 469
f 470 444 469
f 826 824 927
f 913 927 824
f 112 111 136
f 137 112 136
f 903 253 252
f 903 252 267
f 1021 253 903
f 850 253 1021
f 444 470 471
f 445 444 471
f 32 31 56
f 57 32 56
f 330 329 344
f 345 330 344
f 33 32 57
f 58 33 57
f 113 112 137
f 161 113 137
f 33 58 59
f 34 33 59
f 446 445 471
f 472 446 471
f 961 901 963
f 844 963 901
f 956 901 961
f 957 901 956
f 960 901 957
f 958 901 960
f 902 901 958
f 959 902 958
f 962 902 959
f 920 902 962
f 910 844 901
f 843 844 910
f 35 34 59
f 60 35 59
f 331 330 345
f 346 331 345
f 762 751 878
f 876 762 878
f 256 255 268
f 269 256 268
f 138 161 183
f 182 183 161
f 113 161 138
f 114 113 138
f 978 981 832
f 836 832 981
f 975 978 832
f 35 60 61
f 36 35 61
f 446 472 473
f 447 446 473
f 256 269 270
f 257 256 270
f 331 346 347
f 332 331 347
f 37 36 61
f 62 37 61
f 904 905 862
f 874 868 905
f 861 905 868
f 862 905 861
f 115 114 138
f 139 115 138
f 37 62 63
f 38 37 63
f 954 965 830
f 748 830 965
f 448 447 473
f 474 448 473
f 981 982 836
f 836 982 985
f 258 257 270
f 271 258 270
f 333 332 347
f 348 333 347
f 751 877 878
f 885 877 751
f 883 401 402
f 883 402 390
f 896 883 390
f 115 139 140
f 116 115 140
f 971 963 836
f 844 836 963
f 985 971 836
f 258 271 272
f 259 258 272
f 449 448 474
f 475 449 474
f 964 936 748
f 936 943 748
f 39 38 63
f 64 39 63
f 117 116 140
f 141 117 140
f 391 402 403
f 390 402 391
f 751 748 943
f 886 751 943
f 885 751 886
f 335 349 350
f 334 349 335
f 40 39 64
f 65 40 64
f 757 897 992
f 898 897 757
f 450 449 475
f 476 450 475
f 259 272 273
f 260 259 273
f 727 757 992
f 997 727 992
f 336 350 351
f 335 350 336
f 40 65 66
f 41 40 66
f 166 143 142
f 117 141 142
f 118 117 142
f 143 118 142
f 262 275 276
f 263 262 276
f 909 887 843
f 867 843 887
f 858 843 867
f 859 843 858
f 935 843 859
f 744 843 935
f 451 450 476
f 477 451 476
f 42 41 66
f 67 42 66
f 337 351 352
f 336 351 337
f 264 263 276
f 277 264 276
f 762 875 900
f 876 875 762
f 899 762 900
f 757 762 899
f 119 118 143
f 144 119 143
f 393 407 408
f 392 407 393
f 932 771 933
f 872 933 771
f 452 451 477
f 478 452 477
f 265 264 277
f 278 265 277
f 338 337 353
f 352 353 337
f 43 42 67
f 68 43 67
f 852 853 744
f 744 853 973
f 856 852 744
f 926 856 744
f 120 119 144
f 145 120 144
f 934 926 744
f 394 408 409
f 393 408 394
f 453 452 478
f 479 453 478
f 265 278 279
f 266 265 279
f 995 996 827
f 827 996 1012
f 339 353 354
f 338 353 339
f 827 721 995
f 994 995 721
f 44 43 68
f 69 44 68
f 121 120 145
f 146 121 145
f 829 828 1007
f 1006 1007 828
f 45 44 69
f 70 45 69
f 1012 1011 827
f 454 453 479
f 480 454 479
f 47 46 71
f 72 47 71
f 340 354 355
f 339 354 340
f 969 975 842
f 832 842 975
f 968 969 842
f 49 48 73
f 74 49 73
f 122 121 146
f 147 122 146
f 50 49 74
f 75 50 74
f 1021 903 1022
f 863 1022 903
f 904 863 903
f 862 863 904
f 341 355 356
f 340 355 341
f 270 269 282
f 283 270 282
f 827 1011 828
f 1011 1006 828
f 123 122 147
f 171 123 147
f 52 51 76
f 77 52 76
f 1007 1008 829
f 829 1008 1014
f 148 171 193
f 192 193 171
f 123 171 148
f 124 123 148
f 272 271 284
f 285 272 284
f 830 953 954
f 744 953 830
f 125 124 148
f 149 125 148
f 53 52 77
f 78 53 77
f 744 952 953
f 972 952 744
f 127 126 150
f 151 127 150
f 932 938 771
f 396 395 410
f 411 396 410
f 128 127 151
f 152 128 151
f 777 771 938
f 848 777 938
f 273 272 285
f 286 273 285
f 129 128 152
f 153 129 152
f 54 53 78
f 79 54 78
f 947 948 842
f 842 948 968
f 986 947 842
f 130 129 153
f 154 130 153
f 274 290 287
f 287 290 291
f 345 357 358
f 344 357 345
f 397 396 411
f 412 397 411
f 55 54 79
f 80 55 79
f 1037 1038 1039
f 849 1039 1038
f 850 1039 849
f 1021 1039 850
f 1040 1039 1021
f 1022 1040 1021
f 277 276 288
f 289 277 288
f 1049 857 758
f 758 727 1049
f 1036 1049 727
f 398 397 412
f 413 398 412
f 1051 1050 840
f 841 840 1050
f 56 55 80
f 81 56 80
f 1052 1042 1053
f 1047 1042 1052
f 278 277 289
f 294 278 289
f 907 879 720
f 57 56 81
f 82 57 81
f 743 829 1013
f 1027 743 1013
f 26 1 481
f 51 26 481
f 76 51 481
f 101 76 481
f 126 101 481
f 150 126 481
f 173 150 481
f 206 173 481
f 228 206 481
f 245 228 481
f 261 245 481
f 274 261 481
f 290 274 481
f 483 290 481
f 304 290 483
f 319 304 483
f 334 319 483
f 349 334 483
f 362 349 483
f 378 362 483
f 386 378 483
f 395 386 483
f 410 395 483
f 430 410 483
f 455 430 483
f 279 294 295
f 278 294 279
f 58 57 82
f 83 58 82
f 131 130 154
f 155 131 154
f 1062 1053 1020
f 1042 1025 1053
f 1020 1053 1025
f 1018 1062 1020
f 280 295 296
f 279 295 280
f 346 345 359
f 358 359 345
f 1027 912 743
f 59 58 83
f 84 59 83
f 721 993 994
f 770 993 721
f 131 155 156
f 132 131 156
f 998 993 770
f 60 59 84
f 85 60 84
f 347 359 360
f 346 359 347
f 61 60 85
f 86 61 85
f 719 806 940
f 930 719 940
f 929 719 930
f 133 132 156
f 157 133 156
f 348 347 361
f 360 361 347
f 873 415 416
f 873 416 400
f 915 415 873
f 1028 1029 1069
f 1069 1029 1071
f 1070 1028 1069
f 350 349 362
f 363 350 362
f 61 86 87
f 62 61 87
f 847 937 770
f 770 937 998
f 162 183 184
f 138 183 162
f 401 417 418
f 402 401 418
f 928 719 929
f 1070 1072 928
f 1069 1072 1070
f 63 62 87
f 88 63 87
f 942 1061 719
f 840 719 1061
f 939 942 719
f 403 402 418
f 419 403 418
f 282 298 299
f 281 298 282
f 1062 1017 1075
f 1033 1075 1017
f 1018 1017 1062
f 1031 1075 1033
f 64 63 88
f 89 64 88
f 283 299 300
f 282 299 283
f 403 419 420
f 404 403 420
f 66 65 90
f 91 66 90
f 456 455 483
f 457 456 483
f 458 457 483
f 459 458 483
f 460 459 483
f 461 460 483
f 462 461 483
f 463 462 483
f 464 463 483
f 465 464 483
f 466 465 483
f 467 466 483
f 468 467 483
f 469 468 483
f 470 469 483
f 471 470 483
f 472 471 483
f 473 472 483
f 484 473 483
f 474 473 484
f 475 474 484
f 476 475 484
f 477 476 484
f 478 477 484
f 479 478 484
f 480 479 484
f 284 300 301
f 283 300 284
f 928 931 719
f 719 931 939
f 1030 928 1072
f 1031 1030 1072
f 1075 1031 1072
f 68 67 92
f 93 68 92
f 351 364 365
f 352 351 365
f 1050 999 747
f 747 999 1000
f 841 1050 747
f 285 301 302
f 284 301 285
f 140 139 162
f 163 140 162
f 1052 1080 1047
f 1045 1047 1080
f 68 93 94
f 69 68 94
f 354 353 366
f 367 354 366
f 286 302 303
f 285 302 286
f 1081 1083 1045
f 1082 1045 1083
f 1044 1045 1082
f 1080 1081 1045
f 140 163 164
f 141 140 164
f 70 69 94
f 95 70 94
f 141 164 165
f 142 141 165
f 407 406 422
f 423 407 422
f 842 747 986
f 989 747 1009
f 987 747 989
f 986 747 987
f 142 165 166
f 187 166 165
f 288 292 293
f 289 288 293
f 143 166 167
f 188 167 166
f 1087 1037 1054
f 1037 1039 1055
f 1054 1037 1055
f 408 407 423
f 424 408 423
f 145 144 167
f 168 145 167
f 1003 1004 747
f 747 1004 1009
f 70 95 96
f 71 70 96
f 146 145 168
f 169 146 168
f 409 408 424
f 425 409 424
f 147 146 169
f 170 147 169
f 1082 1088 1044
f 1087 1044 1088
f 1046 1044 1087
f 1054 1046 1087
f 72 71 96
f 97 72 96
f 172 193 194
f 148 193 172
f 805 816 1073
f 984 805 1073
f 983 805 984
f 359 358 368
f 369 359 368
f 411 430 431
f 410 430 411
f 800 976 977
f 983 976 800
f 805 983 800
f 151 150 173
f 174 151 173
f 73 72 97
f 98 73 97
f 966 800 967
f 977 967 800
f 290 304 305
f 291 290 305
f 412 431 432
f 411 431 412
f 74 73 98
f 99 74 98
f 293 292 306
f 307 293 306
f 413 432 433
f 412 432 413
f 75 74 99
f 100 75 99
f 295 294 308
f 309 295 308
f 845 846 884
f 860 845 884
f 1067 884 846
f 1063 860 882
f 881 860 884
f 882 860 881
f 1058 1063 882
f 1066 884 1067
f 1065 884 1066
f 1060 884 1065
f 1059 884 1060
f 917 884 1059
f 414 433 434
f 413 433 414
f 454 480 484
f 425 454 484
f 409 425 484
f 394 409 484
f 385 394 484
f 377 385 484
f 372 377 484
f 371 372 484
f 361 371 484
f 348 361 484
f 333 348 484
f 318 333 484
f 303 318 484
f 286 303 484
f 482 286 484
f 273 286 482
f 260 273 482
f 244 260 482
f 224 244 482
f 205 224 482
f 194 205 482
f 172 194 482
f 149 172 482
f 125 149 482
f 100 125 482
f 75 100 482
f 50 75 482
f 25 50 482
f 295 309 310
f 296 295 310
f 77 76 101
f 102 77 101
f 1032 1016 1071
f 1029 1032 1071
f 851 1071 1016
f 864 851 1016
f 1015 864 1016
f 359 369 370
f 360 359 370
f 152 151 174
f 175 152 174
f 940 806 941
f 1078 941 806
f 806 808 1078
f 1079 1078 808
f 153 152 175
f 176 153 175
f 998 414 434
f 998 434 435
f 937 414 998
f 993 998 435
f 994 993 435
f 995 994 435
f 995 435 436
f 996 995 436
f 363 362 379
f 378 379 362
f 1015 1019 864
f 866 864 1019
f 1026 866 1019
f 297 296 310
f 311 297 310
f 154 153 176
f 177 154 176
f 78 77 102
f 103 78 102
f 865 866 1026
f 914 865 1026
f 1024 914 1026
f 364 379 380
f 363 379 364
f 79 78 103
f 104 79 103
f 1076 1079 808
f 740 1076 808
f 155 154 177
f 178 155 177
f 80 79 104
f 105 80 104
f 1024 1023 923
f 923 1023 1041
f 914 1024 923
f 365 364 373
f 380 373 364
f 381 373 380
f 81 80 105
f 106 81 105
f 814 1085 1086
f 1084 1085 814
f 156 155 178
f 179 156 178
f 300 299 314
f 315 300 314
f 160 181 182
f 161 160 182
f 82 81 106
f 107 82 106
f 814 896 1084
f 883 896 814
f 892 883 814
f 731 892 814
f 163 162 184
f 185 163 184
f 302 301 316
f 317 302 316
f 164 163 185
f 186 164 185
f 888 441 442
f 888 442 415
f 889 888 415
f 894 889 415
f 165 164 186
f 187 165 186
f 83 82 107
f 108 83 107
f 816 974 1074
f 970 1074 974
f 814 974 816
f 955 970 974
f 919 955 974
f 945 955 919
f 944 945 919
f 951 944 919
f 946 951 919
f 918 946 919
f 303 302 317
f 318 303 317
f 416 442 443
f 415 442 416
f 890 814 891
f 1086 891 814
f 974 814 890
f 84 83 108
f 109 84 108
f 305 304 319
f 320 305 319
f 810 800 966
f 950 810 966
f 949 810 950
f 988 810 949
f 990 810 988
f 426 443 444
f 416 443 426
f 85 84 109
f 110 85 109
f 1064 1058 1068
f 1035 1068 1058
f 1063 1058 1064
f 1034 1068 1035
f 24 25 482
f 23 24 482
f 22 23 482
f 21 22 482
f 20 21 482
f 19 20 482
f 18 19 482
f 481 18 482
f 17 18 481
f 16 17 481
f 15 16 481
f 14 15 481
f 13 14 481
f 12 13 481
f 11 12 481
f 10 11 481
f 9 10 481
f 8 9 481
f 7 8 481
f 6 7 481
f 5 6 481
f 4 5 481
f 3 4 481
f 2 3 481
f 1 2 481
f 305 320 321
f 306 305 321
f 417 426 427
f 428 427 426
f 168 167 188
f 189 168 188
f 1034 1056 1057
f 1068 1034 1057
f 980 1056 1034
f 979 1056 980
f 85 110 111
f 86 85 111
f 169 168 189
f 190 169 189
f 810 991 1010
f 990 991 810
f 307 306 321
f 322 307 321
f 740 810 1005
f 1002 1005 810
f 1077 740 1005
f 170 169 190
f 191 170 190
f 419 418 427
f 429 419 427
f 925 1041 1043
f 923 1041 925
f 171 170 191
f 192 171 191
f 87 86 111
f 112 87 111
f 810 1001 1002
f 1010 1001 810
f 174 206 207
f 173 206 174
f 308 307 322
f 323 308 322
f 175 174 208
f 207 208 174
f 420 429 447
f 446 447 429
f 419 429 420
f 979 1043 1048
f 1056 979 1048
f 924 1043 979
f 925 1043 924
f 176 208 209
f 175 208 176
f 88 87 112
f 113 88 112
f 177 209 210
f 176 209 177
f 308 323 324
f 309 308 324
f 873 869 769
f 915 873 769
f 911 915 769
f 895 911 769
f 421 420 448
f 447 448 420
f 369 374 375
f 368 374 369
f 89 88 113
f 114 89 113
f 731 769 869
f 870 731 869
f 893 731 870
f 370 375 376
f 369 375 370
f 310 309 324
f 325 310 324
f 183 182 196
f 197 183 196
f 89 114 115
f 90 89 115
f 372 376 377
f 370 376 372
f 311 310 325
f 326 311 325
f 185 184 198
f 215 185 198
f 214 215 198
f 91 90 115
f 116 91 115
f 186 215 216
f 185 215 186
f 312 311 326
f 327 312 326
f 199 216 217
f 186 216 199
f 187 186 199
f 92 91 116
f 117 92 116
f 189 188 200
f 201 189 200
f 92 117 118
f 93 92 118
f 189 201 202
f 220 202 201
f 94 93 118
f 119 94 118
f 191 190 202
f 203 191 202
f 314 313 328
f 329 314 328
f 192 191 203
f 222 192 203
f 94 119 120
f 95 94 120
f 204 222 223
f 192 222 204
f 193 192 204
f 197 196 212
f 213 197 212
f 315 314 329
f 330 315 329
f 201 200 218
f 219 201 218
f 423 451 452
f 422 451 423
f 203 202 220
f 221 203 220
f 96 95 120
f 121 96 120
f 207 206 229
f 228 229 206
f 315 330 331
f 316 315 331
f 208 229 230
f 207 229 208
f 424 452 453
f 423 452 424
f 209 230 231
f 208 230 209
f 210 231 232
f 209 231 210
f 213 212 225
f 226 213 225
f 254 253 850
f 849 254 850
f 864 255 851
f 268 255 864
f 866 268 864
f 865 268 866
f 354 367 853
f 852 354 853
f 355 354 852
f 856 355 852
f 862 529 863
f 861 529 862
f 869 400 870
f 873 400 869
f 713 529 868
f 874 713 868
f 877 373 878
f 381 878 373
f 876 878 381
f 875 876 381
f 870 400 401
f 892 401 883
f 893 401 892
f 870 401 893
f 343 328 881
f 884 343 881
f 373 877 885
f 886 373 885
f 341 887 342
f 356 887 341
f 867 887 356
f 381 389 899
f 898 899 389
f 900 381 899
f 897 898 389
f 640 342 901
f 902 640 901
f 904 267 905
f 903 267 904
f 267 713 905
f 713 874 905
f 342 887 909
f 910 342 909
f 901 342 910
f 895 415 911
f 894 415 895
f 268 865 914
f 923 268 914
f 281 268 923
f 925 281 923
f 924 281 925
f 666 343 917
f 884 917 343
f 918 919 700
f 382 700 919
f 355 856 926
f 934 355 926
f 935 355 934
f 356 355 935
f 859 356 935
f 486 513 931
f 928 486 931
f 540 928 929
f 930 540 929
f 847 848 414
f 399 414 932
f 933 399 932
f 938 932 414
f 848 938 414
f 937 847 414
f 373 936 365
f 366 365 936
f 943 936 373
f 886 943 373
f 559 540 941
f 540 940 941
f 930 940 540
f 939 513 942
f 931 513 939
f 700 564 946
f 918 700 946
f 949 950 560
f 555 560 950
f 965 954 366
f 952 367 366
f 953 366 954
f 952 366 953
f 964 965 366
f 936 964 366
f 968 514 969
f 506 969 514
f 948 514 968
f 555 950 966
f 967 555 966
f 517 961 963
f 971 517 963
f 367 952 972
f 973 367 972
f 853 367 973
f 382 919 974
f 890 382 974
f 555 967 977
f 976 555 977
f 975 506 978
f 510 978 506
f 969 506 975
f 281 924 979
f 298 281 979
f 980 298 979
f 983 984 555
f 558 555 984
f 976 983 555
f 981 510 982
f 978 510 981
f 640 920 962
f 517 640 962
f 516 514 987
f 986 987 514
f 947 986 514
f 560 561 988
f 990 561 991
f 988 561 990
f 1003 493 1004
f 516 1004 493
f 1000 493 1003
f 999 493 1000
f 1002 545 1005
f 1001 545 1002
f 1007 437 438
f 1006 437 1007
f 1011 437 1006
f 436 437 1011
f 1012 436 1011
f 996 436 1012
f 1008 1007 438
f 1001 1010 545
f 561 545 1010
f 991 561 1010
f 516 989 1009
f 1004 516 1009
f 590 591 1019
f 1015 590 1019
f 1016 590 1015
f 530 1017 1018
f 1020 530 1018
f 912 439 913
f 927 913 439
f 1027 438 439
f 1027 439 912
f 1013 438 1027
f 1014 438 1013
f 1008 438 1014
f 922 927 439
f 921 922 439
f 532 530 1020
f 1025 532 1020
f 591 1023 1024
f 1026 591 1024
f 1019 591 1026
f 313 298 980
f 1034 313 980
f 1035 313 1034
f 1031 1033 504
f 530 504 1033
f 1030 1031 504
f 1029 554 1032
f 1028 554 1029
f 921 439 440
f 908 440 906
f 916 440 908
f 921 440 916
f 554 590 1032
f 1016 1032 590
f 880 441 888
f 879 441 880
f 907 441 879
f 906 441 907
f 440 441 906
f 1044 1046 532
f 534 532 1046
f 1045 1044 532
f 1047 1045 532
f 1042 1047 532
f 1025 1042 532
f 1023 591 1041
f 1043 1041 591
f 1048 1043 591
f 591 592 1057
f 1056 591 1057
f 1048 591 1056
f 534 1046 1054
f 1055 534 1054
f 328 313 1035
f 328 1035 1058
f 882 328 1058
f 666 1059 588
f 917 1059 666
f 1022 863 534
f 529 534 863
f 1040 1022 534
f 588 860 1063
f 1064 588 1063

