v -2.3271933363574009 2.58895242505612 1.8
v -2.3271933363574009 -2.5149524250561202 1.8
v -0.75 -1.540193336357401 4.3519524250561199
v -0.75 1.6141933363574008 4.3519524250561199
v -0.75 -1.540193336357401 -0.75195242505612003
v -0.75 1.6141933363574008 -0.75195242505612003
v -3.3019524250561201 0.036999999999999998 0.22280666364259916
v -3.3019524250561201 0.036999999999999998 3.3771933363574007
v -0.75 3.0369999999999999 1.8
v -0.75 -2.9630000000000001 1.8
v -1.6770509831248421 -2.3900509831248424 3.2999999999999998
v -1.6770509831248421 2.4640509831248423 3.2999999999999998
v -0.75 0.036999999999999998 4.7999999999999998
v -1.6770509831248421 -2.3900509831248424 0.30000000000000004
v -1.6770509831248421 2.4640509831248423 0.30000000000000004
v -0.75 0.036999999999999998 -1.2
v -3.1770509831248424 1.5370000000000001 0.87294901687515769
v -3.1770509831248424 -1.4630000000000003 0.87294901687515769
v -2.25 -0.89005098312484232 -0.62705098312484231
v -2.25 0.96405098312484239 -0.62705098312484231
v -3.1770509831248424 1.5370000000000001 2.7270509831248422
v -3.1770509831248424 -1.4630000000000003 2.7270509831248422
v -2.25 -0.89005098312484232 4.2270509831248422
v -2.25 0.96405098312484239 4.2270509831248422
v -3.75 0.036999999999999998 1.8
v -1.569799586738015 2.9228150733517522 1.8
v -1.569799586738015 -2.8488150733517523 1.8
v -2.0516656936580846 -2.551005441248559 2.5796757390232634
v -1.2318661069200694 -2.0443414326813478 3.9061393343284898
v -1.2373795443493594 -2.816169548885461 2.5885966681787007
v -0.75 -2.5149524250561202 3.3771933363574007
v -2.0516656936580846 2.6250054412485588 2.5796757390232634
v -1.2318661069200694 2.1183414326813477 3.9061393343284898
v -1.2373795443493594 2.8901695488854608 2.5885966681787007
v -0.75 2.58895242505612 3.3771933363574007
v -0.75 -0.78279958673801497 4.6858150733517521
v -0.75 0.85679958673801504 4.6858150733517521
v -2.0516656936580846 -2.551005441248559 1.0203242609767367
v -1.2318661069200694 -2.0443414326813478 -0.3061393343284895
v -1.2373795443493594 -2.816169548885461 1.0114033318212996
v -0.75 -2.5149524250561202 0.22280666364259916
v -2.0516656936580846 2.6250054412485588 1.0203242609767367
v -1.2318661069200694 2.1183414326813477 -0.3061393343284895
v -1.2373795443493594 2.8901695488854608 1.0114033318212996
v -0.75 2.58895242505612 0.22280666364259916
v -0.75 -0.78279958673801497 -1.0858150733517522
v -0.75 0.85679958673801504 -1.0858150733517522
v -2.8313414326813473 2.143139334328489 1.3181338930799307
v -3.3380054412485585 0.81667573902326329 0.49833430634191567
v -2.5133557568774192 2.10157288070676 0.52402378747194023
v -2.8313414326813473 -2.0691393343284892 1.3181338930799307
v -3.3380054412485585 -0.74267573902326323 0.49833430634191567
v -2.5133557568774192 -2.0275728807067601 0.52402378747194023
v -1.5296757390232631 -1.2646656936580845 -0.78800544124855842
v -2.8561393343284891 -0.44486610692006945 -0.28134143268134726
v -2.02597621252806 -1.7263557568774197 -0.26457288070676044
v -1.5385966681787004 -0.45037954434935956 -1.0531695488854604
v -2.8145728807067605 -1.2389762125280601 0.036644243122580411
v -1.5296757390232631 1.3386656936580843 -0.78800544124855842
v -2.8561393343284891 0.5188661069200694 -0.28134143268134726
v -2.02597621252806 1.8003557568774196 -0.26457288070676044
v -1.5385966681787004 0.52437954434935952 -1.0531695488854604
v -2.8145728807067605 1.31297621252806 0.036644243122580411
v -2.3271933363574009 0.036999999999999998 -0.75195242505611959
v -2.8313414326813473 2.143139334328489 2.2818661069200696
v -3.3380054412485585 0.81667573902326329 3.1016656936580844
v -2.5133557568774192 2.10157288070676 3.0759762125280599
v -3.3019524250561196 1.6141933363574008 1.8
v -2.8313414326813473 -2.0691393343284892 2.2818661069200696
v -3.3380054412485585 -0.74267573902326323 3.1016656936580844
v -2.5133557568774192 -2.0275728807067601 3.0759762125280599
v -3.3019524250561196 -1.540193336357401 1.8
v -1.5296757390232631 -1.2646656936580845 4.3880054412485583
v -2.8561393343284891 -0.44486610692006945 3.8813414326813476
v -2.02597621252806 -1.7263557568774197 3.8645728807067607
v -1.5385966681787004 -0.45037954434935956 4.6531695488854607
v -2.8145728807067605 -1.2389762125280601 3.5633557568774199
v -1.5296757390232631 1.3386656936580843 4.3880054412485583
v -2.8561393343284891 0.5188661069200694 3.8813414326813476
v -2.02597621252806 1.8003557568774196 3.8645728807067607
v -1.5385966681787004 0.52437954434935952 4.6531695488854607
v -2.8145728807067605 1.31297621252806 3.5633557568774199
v -2.3271933363574009 0.036999999999999998 4.3519524250561199
v -3.6358150733517522 0.036999999999999998 0.98020041326198504
v -3.6358150733517522 0.036999999999999998 2.6197995867380151
v -3.6031695488854605 0.82559666817870048 1.3126204556506404
v -3.6031695488854605 -0.75159666817870041 1.3126204556506404
v -3.6031695488854605 0.82559666817870048 2.2873795443493594
v -3.6031695488854605 -0.75159666817870041 2.2873795443493594
v -1.9600660458520929 2.782130263698952 1.8
v -1.1638567263829012 3.0083166458705857 1.8
v -1.9600660458520929 -2.7081302636989522 1.8
v -1.1638567263829012 -2.9343166458705858 1.8
v -2.2033249261820034 -2.5577880075898243 2.1936011364390384
v -1.875115702434629 -2.4947344238671705 2.9508411980551434
v -1.8246863804597366 -2.7359138018340379 2.1949661140561938
v -0.9932588803299105 -1.8099260626210421 4.1515291272599137
v -1.4612589760517278 -2.238956900489772 3.6204754478154424
v -0.99672739583808689 -2.9260650217854134 2.1992133124217741
v -1.4660307909587793 -2.6360195725651039 2.9585621567627762
v -1.4103510824198771 -2.8621777922073175 2.1983774304837076
v -1.6537766372796963 -2.7117325255736473 2.5922482519771965
v -0.75 -2.0717210914633202 3.9338452048866497
v -0.75 -2.8545837904028679 2.5992141034037024
v -1.2193033951206926 -2.4835336559814167 3.3577754691845501
v -0.99342555485981898 -2.3036131121303796 3.6607187478403409
v -0.99697074009588049 -2.7019474787968973 2.9988211551055532
v -2.2033249261820034 2.6317880075898241 2.1936011364390384
v -1.875115702434629 2.5687344238671703 2.9508411980551434
v -1.8246863804597366 2.8099138018340377 2.1949661140561938
v -0.9932588803299105 1.8839260626210419 4.1515291272599137
v -1.4612589760517278 2.3129569004897719 3.6204754478154424
v -0.99672739583808689 3.0000650217854132 2.1992133124217741
v -1.4660307909587793 2.7100195725651037 2.9585621567627762
v -1.4103510824198771 2.9361777922073173 2.1983774304837076
v -1.6537766372796963 2.7857325255736471 2.5922482519771965
v -0.75 2.14572109146332 3.9338452048866497
v -0.75 2.9285837904028678 2.5992141034037024
v -1.2193033951206926 2.5575336559814166 3.3577754691845501
v -0.99342555485981898 2.3776131121303794 3.6607187478403409
v -0.99697074009588049 2.7759474787968972 2.9988211551055532
v -0.75 -1.173066045852093 4.5451302636989519
v -0.75 -0.37685672638290113 4.771316645870586
v -0.75 1.2470660458520928 4.5451302636989519
v -0.75 0.45085672638290109 4.771316645870586
v -2.2033249261820034 -2.5577880075898243 1.4063988635609617
v -1.875115702434629 -2.4947344238671705 0.64915880194485687
v -1.8246863804597366 -2.7359138018340379 1.4050338859438063
v -0.9932588803299105 -1.8099260626210421 -0.55152912725991388
v -1.4612589760517278 -2.238956900489772 -0.020475447815442527
v -0.99672739583808689 -2.9260650217854134 1.400786687578226
v -1.4660307909587793 -2.6360195725651039 0.64143784323722386
v -1.4103510824198771 -2.8621777922073175 1.4016225695162925
v -1.6537766372796963 -2.7117325255736473 1.0077517480228035
v -0.75 -2.0717210914633202 -0.33384520488664937
v -0.75 -2.8545837904028679 1.0007858965962977
v -1.2193033951206926 -2.4835336559814167 0.24222453081544981
v -0.99342555485981898 -2.3036131121303796 -0.060718747840341036
v -0.99697074009588049 -2.7019474787968973 0.60117884489444684
v -2.2033249261820034 2.6317880075898241 1.4063988635609617
v -1.875115702434629 2.5687344238671703 0.64915880194485687
v -1.8246863804597366 2.8099138018340377 1.4050338859438063
v -0.9932588803299105 1.8839260626210419 -0.55152912725991388
v -1.4612589760517278 2.3129569004897719 -0.020475447815442527
v -0.99672739583808689 3.0000650217854132 1.400786687578226
v -1.4660307909587793 2.7100195725651037 0.64143784323722386
v -1.4103510824198771 2.9361777922073173 1.4016225695162925
v -1.6537766372796963 2.7857325255736471 1.0077517480228035
v -0.75 2.14572109146332 -0.33384520488664937
v -0.75 2.9285837904028678 1.0007858965962977
v -1.2193033951206926 2.5575336559814166 0.24222453081544981
v -0.99342555485981898 2.3776131121303794 -0.060718747840341036
v -0.99697074009588049 2.7759474787968972 0.60117884489444684
v -0.75 -1.173066045852093 -0.94513026369895203
v -0.75 -0.37685672638290113 -1.1713166458705857
v -0.75 1.2470660458520928 -0.94513026369895203
v -0.75 0.45085672638290109 -1.1713166458705857
v -2.596926062621042 2.3885291272599138 1.5567411196700895
v -3.025956900489772 1.8574754478154425 1.0887410239482722
v -2.4637549774071261 2.4149476877778442 1.160931403052611
v -3.3447880075898242 0.43060113643903847 0.34667507381799667
v -3.2817344238671704 1.1878411980551433 0.67488429756537083
v -2.1119714992186402 2.3108062601433299 0.39471044739913674
v -2.8713203435596428 1.841502865022637 0.68475589661944647
v -2.2983648601531832 2.3873550950899394 0.76154095563302371
v -2.6922356816466726 2.1439295402301211 0.91198622226669401
v -2.596926062621042 -2.314529127259914 1.5567411196700895
v -3.025956900489772 -1.7834754478154426 1.0887410239482722
v -2.4637549774071261 -2.3409476877778443 1.160931403052611
v -3.3447880075898242 -0.35660113643903851 0.34667507381799667
v -3.2817344238671704 -1.1138411980551435 0.67488429756537083
v -2.1119714992186402 -2.2368062601433301 0.39471044739913674
v -2.8713203435596428 -1.7675028650226372 0.68475589661944647
v -2.2983648601531832 -2.3133550950899395 0.76154095563302371
v -2.6922356816466726 -2.0699295402301212 0.91198622226669401
v -1.1436011364390386 -1.4163249261820035 -0.79478800758982415
v -1.9008411980551434 -1.0881157024346293 -0.73173442386717036
v -1.3890685969473893 -1.6767549774071262 -0.57794768777784422
v -1.144966114056194 -1.0376863804597369 -0.97291380183403819
v -3.1015291272599139 -0.20625888032991058 -0.046926062621041931
v -2.5704754478154426 -0.6742589760517278 -0.47595690048977191
v -3.1279476877778443 -0.60206859694738923 0.086245022592873921
v -1.8652441033805536 -2.0843203435596429 -0.0045028650226370814
v -2.1552895526008631 -1.3249714992186403 -0.47380626014332949
v -1.6380137777333059 -1.9052356816466725 -0.30692954023012109
v -2.2901263236913438 -1.9027333753931948 0.10723736470268563
v -1.7884590443669763 -1.5113648601531833 -0.55035509508993941
v -1.149213312421774 -0.20972739583808694 -1.1630650217854133
v -1.9085621567627764 -0.67903079095877961 -0.87301957256510332
v -1.1483774304837076 -0.62335108241987724 -1.0991777922073174
v -1.5422482519771967 -0.86677663727969623 -0.94873252557364718
v -3.0238062601433295 -1.3682895526008632 0.4380285007813598
v -2.5545028650226369 -1.0782441033805534 -0.32132034355964234
v -3.1003550950899395 -1.0014590443669764 0.25163513984681685
v -2.6897333753931947 -1.6557626352973145 0.25987367630865621
v -2.8569295402301211 -0.851013777733306 -0.14223568164667233
v -2.4427626352973144 -1.5031263236913439 -0.13973337539319464
v -1.1436011364390386 1.4903249261820033 -0.79478800758982415
v -1.9008411980551434 1.1621157024346291 -0.73173442386717036
v -1.3890685969473893 1.750754977407126 -0.57794768777784422
v -1.144966114056194 1.1116863804597368 -0.97291380183403819
v -3.1015291272599139 0.28025888032991059 -0.046926062621041931
v -2.5704754478154426 0.74825897605172786 -0.47595690048977191
v -3.1279476877778443 0.6760685969473893 0.086245022592873921
v -2.8838452048866494 0.036999999999999998 -0.30872109146332005
v -1.8652441033805536 2.1583203435596428 -0.0045028650226370814
v -2.1552895526008631 1.3989714992186402 -0.47380626014332949
v -1.6380137777333059 1.9792356816466723 -0.30692954023012109
v -2.2901263236913438 1.9767333753931946 0.10723736470268563
v -1.7884590443669763 1.5853648601531831 -0.55035509508993941
v -1.149213312421774 0.28372739583808693 -1.1630650217854133
v -1.9085621567627764 0.75303079095877967 -0.87301957256510332
v -1.1483774304837076 0.69735108241987731 -1.0991777922073174
v -1.5492141034037021 0.036999999999999998 -1.0915837904028673
v -1.5422482519771967 0.94077663727969629 -0.94873252557364718
v -3.0238062601433295 1.442289552600863 0.4380285007813598
v -2.5545028650226369 1.1522441033805533 -0.32132034355964234
v -3.1003550950899395 1.0754590443669763 0.25163513984681685
v -2.6897333753931947 1.7297626352973143 0.25987367630865621
v -2.8569295402301211 0.92501377773330606 -0.14223568164667233
v -2.4427626352973144 1.5771263236913438 -0.13973337539319464
v -2.3077754691845502 -0.43230339512069266 -0.72053365598141661
v -2.3077754691845502 0.50630339512069267 -0.72053365598141661
v -2.6107187478403415 -0.20642555485981898 -0.54061311213037944
v -1.9488211551055532 -0.20997074009588051 -0.93894747879689677
v -2.6107187478403415 0.28042555485981896 -0.54061311213037944
v -1.9488211551055532 0.28397074009588053 -0.93894747879689677
v -2.596926062621042 2.3885291272599138 2.0432588803299105
v -3.025956900489772 1.8574754478154425 2.5112589760517281
v -2.4637549774071261 2.4149476877778442 2.4390685969473891
v -2.8587210914633201 2.1708452048866493 1.8
v -3.3447880075898242 0.43060113643903847 3.2533249261820032
v -3.2817344238671704 1.1878411980551433 2.9251157024346295
v -2.1119714992186402 2.3108062601433299 3.2052895526008633
v -2.8713203435596428 1.841502865022637 2.9152441033805534
v -2.2983648601531832 2.3873550950899394 2.8384590443669762
v -2.6922356816466726 2.1439295402301211 2.688013777733306
v -3.2705336559814167 1.5947754691845502 1.3306966048793074
v -3.2705336559814167 1.5947754691845502 2.2693033951206925
v -3.0906131121303795 1.8977187478403414 1.5565744451401811
v -3.0906131121303795 1.8977187478403414 2.043425554859819
v -2.596926062621042 -2.314529127259914 2.0432588803299105
v -3.025956900489772 -1.7834754478154426 2.5112589760517281
v -2.4637549774071261 -2.3409476877778443 2.4390685969473891
v -2.8587210914633201 -2.0968452048866495 1.8
v -3.3447880075898242 -0.35660113643903851 3.2533249261820032
v -3.2817344238671704 -1.1138411980551435 2.9251157024346295
v -2.1119714992186402 -2.2368062601433301 3.2052895526008633
v -2.8713203435596428 -1.7675028650226372 2.9152441033805534
v -2.2983648601531832 -2.3133550950899395 2.8384590443669762
v -2.6922356816466726 -2.0699295402301212 2.688013777733306
v -3.2705336559814167 -1.5207754691845503 1.3306966048793074
v -3.2705336559814167 -1.5207754691845503 2.2693033951206925
v -3.0906131121303795 -1.8237187478403416 1.5565744451401811
v -3.0906131121303795 -1.8237187478403416 2.043425554859819
v -1.1436011364390386 -1.4163249261820035 4.394788007589824
v -1.9008411980551434 -1.0881157024346293 4.3317344238671707
v -1.3890685969473893 -1.6767549774071262 4.1779476877778441
v -1.144966114056194 -1.0376863804597369 4.5729138018340381
v -3.1015291272599139 -0.20625888032991058 3.6469260626210422
v -2.5704754478154426 -0.6742589760517278 4.0759569004897722
v -3.1279476877778443 -0.60206859694738923 3.5137549774071264
v -1.8652441033805536 -2.0843203435596429 3.6045028650226372
v -2.1552895526008631 -1.3249714992186403 4.0738062601433294
v -1.6380137777333059 -1.9052356816466725 3.906929540230121
v -2.2901263236913438 -1.9027333753931948 3.4927626352973142
v -1.7884590443669763 -1.5113648601531833 4.1503550950899397
v -1.149213312421774 -0.20972739583808694 4.7630650217854136
v -1.9085621567627764 -0.67903079095877961 4.4730195725651036
v -1.1483774304837076 -0.62335108241987724 4.6991777922073172
v -1.5422482519771967 -0.86677663727969623 4.548732525573647
v -3.0238062601433295 -1.3682895526008632 3.1619714992186401
v -2.5545028650226369 -1.0782441033805534 3.9213203435596427
v -3.1003550950899395 -1.0014590443669764 3.3483648601531835
v -2.6897333753931947 -1.6557626352973145 3.3401263236913437
v -2.8569295402301211 -0.851013777733306 3.7422356816466724
v -2.4427626352973144 -1.5031263236913439 3.7397333753931949
v -1.1436011364390386 1.4903249261820033 4.394788007589824
v -1.9008411980551434 1.1621157024346291 4.3317344238671707
v -1.3890685969473893 1.750754977407126 4.1779476877778441
v -1.144966114056194 1.1116863804597368 4.5729138018340381
v -3.1015291272599139 0.28025888032991059 3.6469260626210422
v -2.5704754478154426 0.74825897605172786 4.0759569004897722
v -3.1279476877778443 0.6760685969473893 3.5137549774071264
v -2.8838452048866494 0.036999999999999998 3.9087210914633204
v -1.8652441033805536 2.1583203435596428 3.6045028650226372
v -2.1552895526008631 1.3989714992186402 4.0738062601433294
v -1.6380137777333059 1.9792356816466723 3.906929540230121
v -2.2901263236913438 1.9767333753931946 3.4927626352973142
v -1.7884590443669763 1.5853648601531831 4.1503550950899397
v -1.149213312421774 0.28372739583808693 4.7630650217854136
v -1.9085621567627764 0.75303079095877967 4.4730195725651036
v -1.1483774304837076 0.69735108241987731 4.6991777922073172
v -1.5492141034037021 0.036999999999999998 4.6915837904028672
v -1.5422482519771967 0.94077663727969629 4.548732525573647
v -3.0238062601433295 1.442289552600863 3.1619714992186401
v -2.5545028650226369 1.1522441033805533 3.9213203435596427
v -3.1003550950899395 1.0754590443669763 3.3483648601531835
v -2.6897333753931947 1.7297626352973143 3.3401263236913437
v -2.8569295402301211 0.92501377773330606 3.7422356816466724
v -2.4427626352973144 1.5771263236913438 3.7397333753931949
v -2.3077754691845502 -0.43230339512069266 4.3205336559814169
v -2.3077754691845502 0.50630339512069267 4.3205336559814169
v -2.6107187478403415 -0.20642555485981898 4.1406131121303797
v -1.9488211551055532 -0.20997074009588051 4.5389474787968966
v -2.6107187478403415 0.28042555485981896 4.1406131121303797
v -1.9488211551055532 0.28397074009588053 4.5389474787968966
v -3.4951302636989521 0.036999999999999998 0.58993395414790717
v -3.7213166458705857 0.036999999999999998 1.3861432736170989
v -3.5229138018340382 0.4319661140561939 0.72531361954026319
v -3.5229138018340382 -0.35796611405619394 0.72531361954026319
v -3.4951302636989521 0.036999999999999998 3.0100660458520929
v -3.7213166458705857 0.036999999999999998 2.2138567263829012
v -3.5229138018340382 0.4319661140561939 2.8746863804597371
v -3.5229138018340382 -0.35796611405619394 2.8746863804597371
v -3.4230195725651034 1.1955621567627763 1.0839692090412205
v -3.7130650217854133 0.43621331242177397 1.5532726041619132
v -3.4987325255736472 0.82924825197719676 0.89622336272030378
v -3.4889474787968973 1.2358211551055533 1.5530292599041196
v -3.6491777922073174 0.43537743048370747 1.1396489175801228
v -3.4230195725651034 -1.1215621567627765 1.0839692090412205
v -3.7130650217854133 -0.36221331242177401 1.5532726041619132
v -3.4987325255736472 -0.75524825197719669 0.89622336272030378
v -3.4889474787968973 -1.1618211551055535 1.5530292599041196
v -3.6491777922073174 -0.36137743048370752 1.1396489175801228
v -3.4230195725651034 1.1955621567627763 2.5160307909587796
v -3.7130650217854133 0.43621331242177397 2.0467273958380869
v -3.4987325255736472 0.82924825197719676 2.7037766372796961
v -3.4889474787968973 1.2358211551055533 2.0469707400958805
v -3.6491777922073174 0.43537743048370747 2.4603510824198773
v -3.6415837904028674 0.83621410340370228 1.8
v -3.4230195725651034 -1.1215621567627765 2.5160307909587796
v -3.7130650217854133 -0.36221331242177401 2.0467273958380869
v -3.4987325255736472 -0.75524825197719669 2.7037766372796961
v -3.4889474787968973 -1.1618211551055535 2.0469707400958805
v -3.6491777922073174 -0.36137743048370752 2.4603510824198773
v -3.6415837904028674 -0.76221410340370221 1.8
v 1.0771933363574009 2.58895242505612 1.8
v 1.0771933363574009 -2.5149524250561202 1.8
v -0.5 -1.540193336357401 4.3519524250561199
v -0.5 1.6141933363574008 4.3519524250561199
v -0.5 -1.540193336357401 -0.75195242505612003
v -0.5 1.6141933363574008 -0.75195242505612003
v 2.0519524250561201 0.036999999999999998 0.22280666364259916
v 2.0519524250561201 0.036999999999999998 3.3771933363574007
v -0.5 3.0369999999999999 1.8
v -0.5 -2.9630000000000001 1.8
v 0.42705098312484213 -2.3900509831248424 3.2999999999999998
v 0.42705098312484213 2.4640509831248423 3.2999999999999998
v -0.5 0.036999999999999998 4.7999999999999998
v 0.42705098312484213 -2.3900509831248424 0.30000000000000004
v 0.42705098312484213 2.4640509831248423 0.30000000000000004
v -0.5 0.036999999999999998 -1.2
v 1.9270509831248424 1.5370000000000001 0.87294901687515769
v 1.9270509831248424 -1.4630000000000003 0.87294901687515769
v 1.0000000000000002 -0.89005098312484232 -0.62705098312484231
v 1.0000000000000002 0.96405098312484239 -0.62705098312484231
v 1.9270509831248424 1.5370000000000001 2.7270509831248422
v 1.9270509831248424 -1.4630000000000003 2.7270509831248422
v 1.0000000000000002 -0.89005098312484232 4.2270509831248422
v 1.0000000000000002 0.96405098312484239 4.2270509831248422
v 2.5 0.036999999999999998 1.8
v 0.31979958673801501 2.9228150733517522 1.8
v 0.31979958673801501 -2.8488150733517523 1.8
v 0.8016656936580846 -2.551005441248559 2.5796757390232634
v -0.01813389307993063 -2.0443414326813478 3.9061393343284898
v -0.012620455650640572 -2.816169548885461 2.5885966681787007
v -0.5 -2.5149524250561202 3.3771933363574007
v 0.8016656936580846 2.6250054412485588 2.5796757390232634
v -0.01813389307993063 2.1183414326813477 3.9061393343284898
v -0.012620455650640572 2.8901695488854608 2.5885966681787007
v -0.5 2.58895242505612 3.3771933363574007
v -0.5 -0.78279958673801497 4.6858150733517521
v -0.5 0.85679958673801504 4.6858150733517521
v 0.8016656936580846 -2.551005441248559 1.0203242609767367
v -0.01813389307993063 -2.0443414326813478 -0.3061393343284895
v -0.012620455650640572 -2.816169548885461 1.0114033318212996
v -0.5 -2.5149524250561202 0.22280666364259916
v 0.8016656936580846 2.6250054412485588 1.0203242609767367
v -0.01813389307993063 2.1183414326813477 -0.3061393343284895
v -0.012620455650640572 2.8901695488854608 1.0114033318212996
v -0.5 2.58895242505612 0.22280666364259916
v -0.5 -0.78279958673801497 -1.0858150733517522
v -0.5 0.85679958673801504 -1.0858150733517522
v 1.5813414326813473 2.143139334328489 1.3181338930799307
v 2.0880054412485585 0.81667573902326329 0.49833430634191567
v 1.2633557568774194 2.10157288070676 0.52402378747194023
v 1.5813414326813473 -2.0691393343284892 1.3181338930799307
v 2.0880054412485585 -0.74267573902326323 0.49833430634191567
v 1.2633557568774194 -2.0275728807067601 0.52402378747194023
v 0.27967573902326326 -1.2646656936580845 -0.78800544124855842
v 1.6061393343284891 -0.44486610692006945 -0.28134143268134726
v 0.77597621252806004 -1.7263557568774197 -0.26457288070676044
v 0.28859666817870044 -0.45037954434935956 -1.0531695488854604
v 1.5645728807067605 -1.2389762125280601 0.036644243122580411
v 0.27967573902326326 1.3386656936580843 -0.78800544124855842
v 1.6061393343284891 0.5188661069200694 -0.28134143268134726
v 0.77597621252806004 1.8003557568774196 -0.26457288070676044
v 0.28859666817870044 0.52437954434935952 -1.0531695488854604
v 1.5645728807067605 1.31297621252806 0.036644243122580411
v 1.0771933363574009 0.036999999999999998 -0.75195242505611959
v 1.5813414326813473 2.143139334328489 2.2818661069200696
v 2.0880054412485585 0.81667573902326329 3.1016656936580844
v 1.2633557568774194 2.10157288070676 3.0759762125280599
v 2.0519524250561196 1.6141933363574008 1.8
v 1.5813414326813473 -2.0691393343284892 2.2818661069200696
v 2.0880054412485585 -0.74267573902326323 3.1016656936580844
v 1.2633557568774194 -2.0275728807067601 3.0759762125280599
v 2.0519524250561196 -1.540193336357401 1.8
v 0.27967573902326326 -1.2646656936580845 4.3880054412485583
v 1.6061393343284891 -0.44486610692006945 3.8813414326813476
v 0.77597621252806004 -1.7263557568774197 3.8645728807067607
v 0.28859666817870044 -0.45037954434935956 4.6531695488854607
v 1.5645728807067605 -1.2389762125280601 3.5633557568774199
v 0.27967573902326326 1.3386656936580843 4.3880054412485583
v 1.6061393343284891 0.5188661069200694 3.8813414326813476
v 0.77597621252806004 1.8003557568774196 3.8645728807067607
v 0.28859666817870044 0.52437954434935952 4.6531695488854607
v 1.5645728807067605 1.31297621252806 3.5633557568774199
v 1.0771933363574009 0.036999999999999998 4.3519524250561199
v 2.3858150733517522 0.036999999999999998 0.98020041326198504
v 2.3858150733517522 0.036999999999999998 2.6197995867380151
v 2.3531695488854605 0.82559666817870048 1.3126204556506404
v 2.3531695488854605 -0.75159666817870041 1.3126204556506404
v 2.3531695488854605 0.82559666817870048 2.2873795443493594
v 2.3531695488854605 -0.75159666817870041 2.2873795443493594
v 0.71006604585209288 2.782130263698952 1.8
v -0.086143273617098892 3.0083166458705857 1.8
v 0.71006604585209288 -2.7081302636989522 1.8
v -0.086143273617098892 -2.9343166458705858 1.8
v 0.95332492618200337 -2.5577880075898243 2.1936011364390384
v 0.62511570243462899 -2.4947344238671705 2.9508411980551434
v 0.57468638045973663 -2.7359138018340379 2.1949661140561938
v -0.2567411196700895 -1.8099260626210421 4.1515291272599137
v 0.21125897605172772 -2.238956900489772 3.6204754478154424
v -0.5 -2.0717210914633202 3.9338452048866497
v -0.25327260416191311 -2.9260650217854134 2.1992133124217741
v 0.21603079095877931 -2.6360195725651039 2.9585621567627762
v 0.16035108241987717 -2.8621777922073175 2.1983774304837076
v -0.5 -2.8545837904028679 2.5992141034037024
v 0.40377663727969615 -2.7117325255736473 2.5922482519771965
v -0.030696604879307421 -2.4835336559814167 3.3577754691845501
v -0.25657444514018107 -2.3036131121303796 3.6607187478403409
v -0.25302925990411951 -2.7019474787968973 2.9988211551055532
v 0.95332492618200337 2.6317880075898241 2.1936011364390384
v 0.62511570243462899 2.5687344238671703 2.9508411980551434
v 0.57468638045973663 2.8099138018340377 2.1949661140561938
v -0.2567411196700895 1.8839260626210419 4.1515291272599137
v 0.21125897605172772 2.3129569004897719 3.6204754478154424
v -0.5 2.14572109146332 3.9338452048866497
v -0.25327260416191311 3.0000650217854132 2.1992133124217741
v 0.21603079095877931 2.7100195725651037 2.9585621567627762
v 0.16035108241987717 2.9361777922073173 2.1983774304837076
v -0.5 2.9285837904028678 2.5992141034037024
v 0.40377663727969615 2.7857325255736471 2.5922482519771965
v -0.030696604879307421 2.5575336559814166 3.3577754691845501
v -0.25657444514018107 2.3776131121303794 3.6607187478403409
v -0.25302925990411951 2.7759474787968972 2.9988211551055532
v -0.5 -1.173066045852093 4.5451302636989519
v -0.5 -0.37685672638290113 4.771316645870586
v -0.5 1.2470660458520928 4.5451302636989519
v -0.5 0.45085672638290109 4.771316645870586
v 0.95332492618200337 -2.5577880075898243 1.4063988635609617
v 0.62511570243462899 -2.4947344238671705 0.64915880194485687
v 0.57468638045973663 -2.7359138018340379 1.4050338859438063
v -0.2567411196700895 -1.8099260626210421 -0.55152912725991388
v 0.21125897605172772 -2.238956900489772 -0.020475447815442527
v -0.5 -2.0717210914633202 -0.33384520488664937
v -0.25327260416191311 -2.9260650217854134 1.400786687578226
v 0.21603079095877931 -2.6360195725651039 0.64143784323722386
v 0.16035108241987717 -2.8621777922073175 1.4016225695162925
v -0.5 -2.8545837904028679 1.0007858965962977
v 0.40377663727969615 -2.7117325255736473 1.0077517480228035
v -0.030696604879307421 -2.4835336559814167 0.24222453081544981
v -0.25657444514018107 -2.3036131121303796 -0.060718747840341036
v -0.25302925990411951 -2.7019474787968973 0.60117884489444684
v 0.95332492618200337 2.6317880075898241 1.4063988635609617
v 0.62511570243462899 2.5687344238671703 0.64915880194485687
v 0.57468638045973663 2.8099138018340377 1.4050338859438063
v -0.2567411196700895 1.8839260626210419 -0.55152912725991388
v 0.21125897605172772 2.3129569004897719 -0.020475447815442527
v -0.5 2.14572109146332 -0.33384520488664937
v -0.25327260416191311 3.0000650217854132 1.400786687578226
v 0.21603079095877931 2.7100195725651037 0.64143784323722386
v 0.16035108241987717 2.9361777922073173 1.4016225695162925
v -0.5 2.9285837904028678 1.0007858965962977
v 0.40377663727969615 2.7857325255736471 1.0077517480228035
v -0.030696604879307421 2.5575336559814166 0.24222453081544981
v -0.25657444514018107 2.3776131121303794 -0.060718747840341036
v -0.25302925990411951 2.7759474787968972 0.60117884489444684
v -0.5 -1.173066045852093 -0.94513026369895203
v -0.5 -0.37685672638290113 -1.1713166458705857
v -0.5 1.2470660458520928 -0.94513026369895203
v -0.5 0.45085672638290109 -1.1713166458705857
v 1.346926062621042 2.3885291272599138 1.5567411196700895
v 1.775956900489772 1.8574754478154425 1.0887410239482722
v 1.2137549774071261 2.4149476877778442 1.160931403052611
v 2.0947880075898242 0.43060113643903847 0.34667507381799667
v 2.0317344238671704 1.1878411980551433 0.67488429756537083
v 0.86197149921864047 2.3108062601433299 0.39471044739913674
v 1.6213203435596428 1.841502865022637 0.68475589661944647
v 1.0483648601531832 2.3873550950899394 0.76154095563302371
v 1.4422356816466724 2.1439295402301211 0.91198622226669401
v 1.346926062621042 -2.314529127259914 1.5567411196700895
v 1.775956900489772 -1.7834754478154426 1.0887410239482722
v 1.2137549774071261 -2.3409476877778443 1.160931403052611
v 2.0947880075898242 -0.35660113643903851 0.34667507381799667
v 2.0317344238671704 -1.1138411980551435 0.67488429756537083
v 0.86197149921864047 -2.2368062601433301 0.39471044739913674
v 1.6213203435596428 -1.7675028650226372 0.68475589661944647
v 1.0483648601531832 -2.3133550950899395 0.76154095563302371
v 1.4422356816466724 -2.0699295402301212 0.91198622226669401
v -0.10639886356096151 -1.4163249261820035 -0.79478800758982415
v 0.6508411980551434 -1.0881157024346293 -0.73173442386717036
v 0.13906859694738916 -1.6767549774071262 -0.57794768777784422
v -0.10503388594380608 -1.0376863804597369 -0.97291380183403819
v 1.8515291272599139 -0.20625888032991058 -0.046926062621041931
v 1.3204754478154426 -0.6742589760517278 -0.47595690048977191
v 1.8779476877778443 -0.60206859694738923 0.086245022592873921
v 0.61524410338055358 -2.0843203435596429 -0.0045028650226370814
v 0.90528955260086308 -1.3249714992186403 -0.47380626014332949
v 0.38801377773330592 -1.9052356816466725 -0.30692954023012109
v 1.0401263236913438 -1.9027333753931948 0.10723736470268563
v 0.53845904436697634 -1.5113648601531833 -0.55035509508993941
v -0.10078668757822601 -0.20972739583808694 -1.1630650217854133
v 0.65856215676277641 -0.67903079095877961 -0.87301957256510332
v -0.1016225695162925 -0.62335108241987724 -1.0991777922073174
v 0.29224825197719673 -0.86677663727969623 -0.94873252557364718
v 1.7738062601433295 -1.3682895526008632 0.4380285007813598
v 1.3045028650226369 -1.0782441033805534 -0.32132034355964234
v 1.8503550950899395 -1.0014590443669764 0.25163513984681685
v 1.4397333753931947 -1.6557626352973145 0.25987367630865621
v 1.6069295402301211 -0.851013777733306 -0.14223568164667233
v 1.1927626352973144 -1.5031263236913439 -0.13973337539319464
v -0.10639886356096151 1.4903249261820033 -0.79478800758982415
v 0.6508411980551434 1.1621157024346291 -0.73173442386717036
v 0.13906859694738916 1.750754977407126 -0.57794768777784422
v -0.10503388594380608 1.1116863804597368 -0.97291380183403819
v 1.8515291272599139 0.28025888032991059 -0.046926062621041931
v 1.3204754478154426 0.74825897605172786 -0.47595690048977191
v 1.8779476877778443 0.6760685969473893 0.086245022592873921
v 1.6338452048866494 0.036999999999999998 -0.30872109146332005
v 0.61524410338055358 2.1583203435596428 -0.0045028650226370814
v 0.90528955260086308 1.3989714992186402 -0.47380626014332949
v 0.38801377773330592 1.9792356816466723 -0.30692954023012109
v 1.0401263236913438 1.9767333753931946 0.10723736470268563
v 0.53845904436697634 1.5853648601531831 -0.55035509508993941
v -0.10078668757822601 0.28372739583808693 -1.1630650217854133
v 0.65856215676277641 0.75303079095877967 -0.87301957256510332
v -0.1016225695162925 0.69735108241987731 -1.0991777922073174
v 0.29921410340370225 0.036999999999999998 -1.0915837904028673
v 0.29224825197719673 0.94077663727969629 -0.94873252557364718
v 1.7738062601433295 1.442289552600863 0.4380285007813598
v 1.3045028650226369 1.1522441033805533 -0.32132034355964234
v 1.8503550950899395 1.0754590443669763 0.25163513984681685
v 1.4397333753931947 1.7297626352973143 0.25987367630865621
v 1.6069295402301211 0.92501377773330606 -0.14223568164667233
v 1.1927626352973144 1.5771263236913438 -0.13973337539319464
v 1.0577754691845502 -0.43230339512069266 -0.72053365598141661
v 1.0577754691845502 0.50630339512069267 -0.72053365598141661
v 1.3607187478403415 -0.20642555485981898 -0.54061311213037944
v 0.6988211551055532 -0.20997074009588051 -0.93894747879689677
v 1.3607187478403415 0.28042555485981896 -0.54061311213037944
v 0.6988211551055532 0.28397074009588053 -0.93894747879689677
v 1.346926062621042 2.3885291272599138 2.0432588803299105
v 1.775956900489772 1.8574754478154425 2.5112589760517281
v 1.2137549774071261 2.4149476877778442 2.4390685969473891
v 1.6087210914633201 2.1708452048866493 1.8
v 2.0947880075898242 0.43060113643903847 3.2533249261820032
v 2.0317344238671704 1.1878411980551433 2.9251157024346295
v 0.86197149921864047 2.3108062601433299 3.2052895526008633
v 1.6213203435596428 1.841502865022637 2.9152441033805534
v 1.0483648601531832 2.3873550950899394 2.8384590443669762
v 1.4422356816466724 2.1439295402301211 2.688013777733306
v 2.0205336559814167 1.5947754691845502 1.3306966048793074
v 2.0205336559814167 1.5947754691845502 2.2693033951206925
v 1.8406131121303795 1.8977187478403414 1.5565744451401811
v 1.8406131121303795 1.8977187478403414 2.043425554859819
v 1.346926062621042 -2.314529127259914 2.0432588803299105
v 1.775956900489772 -1.7834754478154426 2.5112589760517281
v 1.2137549774071261 -2.3409476877778443 2.4390685969473891
v 1.6087210914633201 -2.0968452048866495 1.8
v 2.0947880075898242 -0.35660113643903851 3.2533249261820032
v 2.0317344238671704 -1.1138411980551435 2.9251157024346295
v 0.86197149921864047 -2.2368062601433301 3.2052895526008633
v 1.6213203435596428 -1.7675028650226372 2.9152441033805534
v 1.0483648601531832 -2.3133550950899395 2.8384590443669762
v 1.4422356816466724 -2.0699295402301212 2.688013777733306
v 2.0205336559814167 -1.5207754691845503 1.3306966048793074
v 2.0205336559814167 -1.5207754691845503 2.2693033951206925
v 1.8406131121303795 -1.8237187478403416 1.5565744451401811
v 1.8406131121303795 -1.8237187478403416 2.043425554859819
v -0.10639886356096151 -1.4163249261820035 4.394788007589824
v 0.6508411980551434 -1.0881157024346293 4.3317344238671707
v 0.13906859694738916 -1.6767549774071262 4.1779476877778441
v -0.10503388594380608 -1.0376863804597369 4.5729138018340381
v 1.8515291272599139 -0.20625888032991058 3.6469260626210422
v 1.3204754478154426 -0.6742589760517278 4.0759569004897722
v 1.8779476877778443 -0.60206859694738923 3.5137549774071264
v 0.61524410338055358 -2.0843203435596429 3.6045028650226372
v 0.90528955260086308 -1.3249714992186403 4.0738062601433294
v 0.38801377773330592 -1.9052356816466725 3.906929540230121
v 1.0401263236913438 -1.9027333753931948 3.4927626352973142
v 0.53845904436697634 -1.5113648601531833 4.1503550950899397
v -0.10078668757822601 -0.20972739583808694 4.7630650217854136
v 0.65856215676277641 -0.67903079095877961 4.4730195725651036
v -0.1016225695162925 -0.62335108241987724 4.6991777922073172
v 0.29224825197719673 -0.86677663727969623 4.548732525573647
v 1.7738062601433295 -1.3682895526008632 3.1619714992186401
v 1.3045028650226369 -1.0782441033805534 3.9213203435596427
v 1.8503550950899395 -1.0014590443669764 3.3483648601531835
v 1.4397333753931947 -1.6557626352973145 3.3401263236913437
v 1.6069295402301211 -0.851013777733306 3.7422356816466724
v 1.1927626352973144 -1.5031263236913439 3.7397333753931949
v -0.10639886356096151 1.4903249261820033 4.394788007589824
v 0.6508411980551434 1.1621157024346291 4.3317344238671707
v 0.13906859694738916 1.750754977407126 4.1779476877778441
v -0.10503388594380608 1.1116863804597368 4.5729138018340381
v 1.8515291272599139 0.28025888032991059 3.6469260626210422
v 1.3204754478154426 0.74825897605172786 4.0759569004897722
v 1.8779476877778443 0.6760685969473893 3.5137549774071264
v 1.6338452048866494 0.036999999999999998 3.9087210914633204
v 0.61524410338055358 2.1583203435596428 3.6045028650226372
v 0.90528955260086308 1.3989714992186402 4.0738062601433294
v 0.38801377773330592 1.9792356816466723 3.906929540230121
v 1.0401263236913438 1.9767333753931946 3.4927626352973142
v 0.53845904436697634 1.5853648601531831 4.1503550950899397
v -0.10078668757822601 0.28372739583808693 4.7630650217854136
v 0.65856215676277641 0.75303079095877967 4.4730195725651036
v -0.1016225695162925 0.69735108241987731 4.6991777922073172
v 0.29921410340370225 0.036999999999999998 4.6915837904028672
v 0.29224825197719673 0.94077663727969629 4.548732525573647
v 1.7738062601433295 1.442289552600863 3.1619714992186401
v 1.3045028650226369 1.1522441033805533 3.9213203435596427
v 1.8503550950899395 1.0754590443669763 3.3483648601531835
v 1.4397333753931947 1.7297626352973143 3.3401263236913437
v 1.6069295402301211 0.92501377773330606 3.7422356816466724
v 1.1927626352973144 1.5771263236913438 3.7397333753931949
v 1.0577754691845502 -0.43230339512069266 4.3205336559814169
v 1.0577754691845502 0.50630339512069267 4.3205336559814169
v 1.3607187478403415 -0.20642555485981898 4.1406131121303797
v 0.6988211551055532 -0.20997074009588051 4.5389474787968966
v 1.3607187478403415 0.28042555485981896 4.1406131121303797
v 0.6988211551055532 0.28397074009588053 4.5389474787968966
v 2.2451302636989521 0.036999999999999998 0.58993395414790717
v 2.4713166458705857 0.036999999999999998 1.3861432736170989
v 2.2729138018340382 0.4319661140561939 0.72531361954026319
v 2.2729138018340382 -0.35796611405619394 0.72531361954026319
v 2.2451302636989521 0.036999999999999998 3.0100660458520929
v 2.4713166458705857 0.036999999999999998 2.2138567263829012
v 2.2729138018340382 0.4319661140561939 2.8746863804597371
v 2.2729138018340382 -0.35796611405619394 2.8746863804597371
v 2.1730195725651034 1.1955621567627763 1.0839692090412205
v 2.4630650217854133 0.43621331242177397 1.5532726041619132
v 2.2487325255736472 0.82924825197719676 0.89622336272030378
v 2.2389474787968973 1.2358211551055533 1.5530292599041196
v 2.3991777922073174 0.43537743048370747 1.1396489175801228
v 2.1730195725651034 -1.1215621567627765 1.0839692090412205
v 2.4630650217854133 -0.36221331242177401 1.5532726041619132
v 2.2487325255736472 -0.75524825197719669 0.89622336272030378
v 2.2389474787968973 -1.1618211551055535 1.5530292599041196
v 2.3991777922073174 -0.36137743048370752 1.1396489175801228
v 2.1730195725651034 1.1955621567627763 2.5160307909587796
v 2.4630650217854133 0.43621331242177397 2.0467273958380869
v 2.2487325255736472 0.82924825197719676 2.7037766372796961
v 2.2389474787968973 1.2358211551055533 2.0469707400958805
v 2.3991777922073174 0.43537743048370747 2.4603510824198773
v 2.3915837904028674 0.83621410340370228 1.8
v 2.1730195725651034 -1.1215621567627765 2.5160307909587796
v 2.4630650217854133 -0.36221331242177401 2.0467273958380869
v 2.2487325255736472 -0.75524825197719669 2.7037766372796961
v 2.2389474787968973 -1.1618211551055535 2.0469707400958805
v 2.3991777922073174 -0.36137743048370752 2.4603510824198773
v 2.3915837904028674 -0.76221410340370221 1.8
f 171 194 192
f 134 40 133
f 137 138 41
f 662 659 424
f 529 531 508
f 171 192 18
f 18 192 173
f 134 133 128
f 325 309 84
f 52 194 171
f 171 18 321
f 321 18 252
f 194 52 182
f 197 56 186
f 131 133 40
f 92 128 27
f 27 128 133
f 132 40 134
f 138 137 130
f 265 267 75
f 275 277 77
f 274 272 77
f 77 272 275
f 277 273 77
f 423 654 657
f 508 531 389
f 670 650 673
f 670 659 362
f 362 650 670
f 674 424 659
f 659 670 674
f 519 389 531
f 473 471 377
f 377 470 473
f 476 470 377
f 142 147 148
f 61 221 209
f 209 206 61
f 143 200 43
f 43 200 208
f 208 61 206
f 499 553 354
f 354 553 501
f 499 354 653
f 653 354 575
f 501 553 556
f 148 147 44
f 226 224 205
f 64 224 226
f 6 156 198
f 198 156 201
f 198 201 59
f 59 200 198
f 198 143 6
f 200 143 198
f 213 201 47
f 201 156 47
f 47 157 213
f 396 535 537
f 537 535 480
f 134 128 38
f 186 172 53
f 254 51 245
f 169 51 175
f 173 53 175
f 252 18 168
f 168 254 252
f 51 254 168
f 168 18 173
f 173 175 168
f 168 175 51
f 167 51 169
f 245 51 167
f 88 327 330
f 317 309 25
f 25 327 317
f 60 226 205
f 202 60 205
f 308 7 170
f 170 182 52
f 89 333 337
f 337 335 89
f 89 332 334
f 335 332 89
f 336 89 334
f 333 89 336
f 337 333 322
f 322 309 325
f 25 309 322
f 322 333 25
f 87 322 325
f 337 322 87
f 194 182 196
f 180 202 205
f 7 202 180
f 180 170 7
f 182 170 180
f 56 197 184
f 173 192 195
f 195 197 186
f 186 53 195
f 195 53 173
f 30 104 107
f 101 99 30
f 30 99 104
f 92 27 96
f 96 27 101
f 265 75 263
f 183 172 186
f 185 130 183
f 186 56 183
f 183 56 185
f 137 132 14
f 14 130 137
f 172 183 14
f 14 183 130
f 652 649 583
f 426 669 672
f 672 674 426
f 426 670 673
f 426 674 670
f 590 409 672
f 672 669 590
f 253 332 335
f 22 253 243
f 332 253 22
f 23 273 264
f 264 273 277
f 277 75 264
f 264 75 267
f 23 264 257
f 257 264 267
f 510 529 355
f 355 529 508
f 591 589 409
f 673 650 422
f 422 652 673
f 649 652 422
f 422 650 667
f 506 375 511
f 668 654 423
f 397 540 557
f 542 397 539
f 507 344 645
f 389 519 507
f 508 389 660
f 662 424 660
f 424 674 661
f 661 674 672
f 672 409 661
f 409 589 661
f 185 56 187
f 187 178 185
f 56 184 187
f 533 519 531
f 518 392 533
f 533 392 519
f 514 391 528
f 532 529 510
f 523 534 532
f 532 390 523
f 510 390 532
f 474 470 476
f 474 475 467
f 467 520 351
f 351 474 467
f 470 474 351
f 40 132 139
f 139 132 137
f 139 137 41
f 476 377 472
f 164 216 17
f 17 216 162
f 240 238 68
f 329 68 319
f 68 238 319
f 231 240 241
f 241 240 68
f 42 142 148
f 63 217 220
f 221 217 63
f 221 61 207
f 207 217 221
f 20 217 207
f 452 446 455
f 651 422 667
f 649 422 651
f 565 402 568
f 546 398 543
f 543 500 546
f 577 385 568
f 577 405 575
f 497 385 503
f 503 502 497
f 575 354 496
f 496 577 575
f 385 577 496
f 496 354 501
f 501 503 496
f 496 503 385
f 495 385 497
f 568 385 495
f 495 565 568
f 338 565 495
f 557 540 554
f 563 397 542
f 563 560 540
f 540 397 563
f 518 356 559
f 400 556 553
f 557 554 400
f 148 44 146
f 146 44 153
f 151 146 153
f 15 146 151
f 209 50 163
f 163 206 209
f 163 15 206
f 188 190 57
f 57 214 188
f 57 190 191
f 57 225 214
f 57 191 189
f 189 225 57
f 59 201 215
f 215 201 213
f 222 224 64
f 64 225 222
f 181 224 222
f 222 225 189
f 189 19 222
f 222 19 181
f 64 226 223
f 20 212 223
f 549 560 564
f 564 399 549
f 188 214 211
f 16 188 211
f 211 157 16
f 213 157 211
f 343 480 535
f 343 535 493
f 149 143 43
f 275 272 249
f 249 22 243
f 272 22 249
f 174 38 169
f 174 53 172
f 169 175 174
f 174 175 53
f 126 38 128
f 92 2 126
f 126 128 92
f 169 38 126
f 126 167 169
f 2 167 126
f 252 254 72
f 72 253 335
f 331 88 329
f 327 88 331
f 331 317 327
f 329 319 331
f 86 317 331
f 331 319 86
f 220 217 203
f 203 60 220
f 203 217 20
f 20 223 203
f 226 60 203
f 203 223 226
f 161 7 308
f 161 202 7
f 320 317 86
f 320 84 309
f 309 317 320
f 312 246 8
f 330 327 313
f 333 336 313
f 313 327 25
f 25 333 313
f 337 87 324
f 324 87 321
f 324 321 252
f 324 335 337
f 252 72 324
f 324 72 335
f 311 170 52
f 308 170 311
f 325 84 311
f 311 84 308
f 193 196 181
f 193 184 197
f 181 19 193
f 19 184 193
f 55 196 182
f 182 180 55
f 181 196 55
f 55 224 181
f 205 224 55
f 55 180 205
f 194 196 58
f 197 195 58
f 58 193 197
f 196 193 58
f 58 192 194
f 58 195 192
f 258 267 265
f 101 27 93
f 93 99 101
f 10 99 93
f 93 131 10
f 133 131 93
f 93 27 133
f 94 2 92
f 92 96 94
f 101 30 102
f 102 96 101
f 106 105 31
f 31 105 107
f 263 248 11
f 11 248 95
f 127 14 132
f 127 132 134
f 134 38 127
f 172 14 127
f 127 174 172
f 38 174 127
f 409 590 592
f 582 591 592
f 592 591 409
f 592 406 582
f 359 590 669
f 622 597 619
f 414 611 613
f 407 652 583
f 583 597 599
f 613 611 599
f 599 407 583
f 611 407 599
f 291 268 13
f 294 268 291
f 332 22 247
f 247 22 272
f 334 332 247
f 247 272 274
f 510 355 505
f 505 355 589
f 589 591 505
f 463 375 506
f 506 504 463
f 523 390 509
f 390 511 509
f 509 520 523
f 509 351 520
f 667 650 664
f 654 668 664
f 664 650 362
f 362 654 664
f 645 344 498
f 344 539 498
f 646 657 654
f 646 421 657
f 646 654 362
f 362 659 646
f 646 659 662
f 662 421 646
f 389 507 648
f 648 660 389
f 648 507 645
f 662 660 648
f 648 421 662
f 645 421 648
f 658 660 424
f 424 661 658
f 508 660 658
f 658 661 589
f 658 355 508
f 589 355 658
f 189 191 177
f 177 187 184
f 177 19 189
f 177 184 19
f 519 392 517
f 344 507 517
f 517 507 519
f 517 392 542
f 542 539 517
f 517 539 344
f 518 533 530
f 530 356 518
f 391 514 524
f 395 533 531
f 395 532 534
f 534 530 395
f 395 530 533
f 531 529 395
f 529 532 395
f 475 474 378
f 378 474 476
f 40 139 136
f 136 131 40
f 469 377 471
f 469 472 377
f 467 475 376
f 164 17 159
f 159 17 238
f 238 240 159
f 86 319 316
f 316 319 238
f 316 17 162
f 238 17 316
f 239 68 329
f 239 241 68
f 229 241 239
f 228 158 231
f 1 158 228
f 142 42 140
f 140 1 90
f 90 142 140
f 140 42 160
f 160 158 140
f 140 158 1
f 221 63 219
f 219 63 216
f 209 221 219
f 219 216 164
f 219 50 209
f 164 50 219
f 115 91 26
f 90 110 26
f 26 110 115
f 26 91 147
f 26 142 90
f 147 142 26
f 121 118 34
f 20 207 199
f 199 212 20
f 59 215 199
f 199 215 212
f 210 207 61
f 210 208 200
f 61 208 210
f 210 200 59
f 59 199 210
f 210 199 207
f 428 483 346
f 447 427 363
f 477 427 338
f 477 495 497
f 338 495 477
f 452 455 371
f 576 405 578
f 568 402 578
f 578 577 568
f 405 577 578
f 578 566 576
f 402 566 578
f 666 405 576
f 644 642 420
f 613 599 411
f 411 599 597
f 411 597 622
f 622 641 411
f 445 565 338
f 445 427 447
f 338 427 445
f 478 502 500
f 545 543 398
f 501 556 387
f 387 503 501
f 387 556 546
f 502 503 387
f 546 500 387
f 500 502 387
f 357 554 540
f 357 560 549
f 540 560 357
f 558 398 546
f 546 556 558
f 556 400 558
f 558 400 554
f 356 514 526
f 526 559 356
f 526 514 528
f 561 563 542
f 542 392 561
f 561 392 518
f 518 559 561
f 15 151 144
f 206 15 144
f 43 208 144
f 144 208 206
f 15 163 141
f 141 146 15
f 141 42 148
f 148 146 141
f 160 42 165
f 165 163 50
f 42 141 165
f 165 141 163
f 155 190 188
f 155 188 16
f 212 215 62
f 62 215 213
f 213 211 62
f 62 211 214
f 527 492 525
f 549 399 552
f 152 149 43
f 43 144 152
f 152 144 151
f 255 254 245
f 255 72 254
f 253 72 255
f 245 69 255
f 255 69 243
f 243 253 255
f 232 312 8
f 202 161 204
f 220 60 204
f 60 202 204
f 204 161 49
f 318 320 86
f 86 316 318
f 162 49 318
f 318 316 162
f 315 336 334
f 246 312 315
f 85 313 336
f 336 315 85
f 85 315 312
f 330 313 85
f 321 87 323
f 323 311 52
f 323 87 325
f 325 311 323
f 323 52 171
f 171 321 323
f 432 438 441
f 585 348 432
f 432 348 438
f 29 258 265
f 3 122 256
f 442 443 368
f 435 443 442
f 442 348 435
f 438 348 442
f 441 439 433
f 612 603 408
f 408 603 585
f 2 94 242
f 242 69 245
f 245 167 242
f 242 167 2
f 95 102 100
f 107 105 100
f 100 30 107
f 100 102 30
f 100 11 95
f 105 11 100
f 275 249 71
f 266 277 275
f 266 248 263
f 266 75 277
f 266 263 75
f 275 71 266
f 266 71 248
f 609 414 612
f 611 414 609
f 612 408 586
f 586 408 588
f 586 609 612
f 359 609 586
f 643 641 622
f 643 420 641
f 416 619 621
f 620 643 416
f 622 619 416
f 416 643 622
f 649 651 569
f 621 619 569
f 614 603 612
f 612 414 614
f 652 407 671
f 669 426 671
f 673 652 671
f 671 426 673
f 584 359 669
f 669 671 584
f 584 671 407
f 584 609 359
f 584 407 611
f 611 609 584
f 123 268 270
f 270 36 123
f 13 268 123
f 125 291 13
f 334 247 70
f 70 315 334
f 246 315 70
f 70 247 274
f 73 271 257
f 73 257 267
f 267 258 73
f 73 258 256
f 76 271 270
f 270 268 76
f 76 268 294
f 257 271 269
f 269 302 23
f 23 257 269
f 271 76 269
f 256 122 259
f 270 271 259
f 259 36 270
f 122 36 259
f 259 73 256
f 271 73 259
f 388 504 506
f 388 505 591
f 388 591 582
f 582 504 388
f 429 463 339
f 339 463 504
f 473 375 465
f 375 463 465
f 465 471 473
f 465 463 429
f 351 509 464
f 470 351 464
f 464 511 375
f 464 509 511
f 464 375 473
f 473 470 464
f 645 498 647
f 647 421 645
f 657 421 647
f 647 498 386
f 541 498 539
f 541 397 557
f 541 539 397
f 386 498 541
f 521 514 356
f 356 530 521
f 521 530 534
f 521 524 514
f 523 520 393
f 393 534 523
f 393 521 534
f 524 521 393
f 515 376 466
f 391 524 515
f 468 376 475
f 466 376 468
f 185 178 39
f 39 135 138
f 138 130 39
f 39 130 185
f 391 515 513
f 513 515 466
f 191 190 179
f 178 176 129
f 129 39 178
f 135 39 129
f 187 177 54
f 178 187 54
f 54 176 178
f 54 177 191
f 191 179 54
f 54 179 176
f 48 158 160
f 48 159 240
f 48 240 231
f 231 158 48
f 326 239 329
f 329 88 326
f 80 290 288
f 279 290 287
f 301 297 287
f 287 80 301
f 290 80 287
f 617 370 448
f 615 617 448
f 262 70 274
f 246 70 262
f 261 273 23
f 23 302 261
f 282 232 8
f 303 83 307
f 231 241 65
f 65 228 231
f 65 241 229
f 230 228 65
f 1 228 108
f 108 228 230
f 90 1 108
f 108 110 90
f 113 91 115
f 115 34 113
f 9 91 113
f 113 34 118
f 449 456 457
f 457 370 449
f 457 456 372
f 349 446 452
f 452 456 349
f 349 456 449
f 449 623 349
f 458 456 452
f 452 371 458
f 372 456 458
f 486 483 381
f 145 91 9
f 147 91 145
f 145 44 147
f 487 381 485
f 381 483 485
f 485 483 428
f 428 363 485
f 449 370 625
f 625 623 449
f 625 370 617
f 574 566 402
f 636 404 626
f 428 346 451
f 575 405 656
f 405 666 656
f 656 653 575
f 656 666 668
f 423 653 656
f 656 668 423
f 576 566 358
f 663 666 576
f 576 358 663
f 663 358 570
f 500 543 352
f 352 478 500
f 502 478 379
f 497 502 379
f 379 477 497
f 379 478 487
f 537 480 380
f 380 545 537
f 398 558 544
f 554 357 544
f 544 558 554
f 401 561 559
f 563 561 401
f 560 563 401
f 401 564 560
f 227 62 214
f 212 62 227
f 214 225 227
f 227 223 212
f 227 225 64
f 64 223 227
f 551 525 548
f 551 548 399
f 399 564 551
f 353 525 492
f 548 525 353
f 353 494 548
f 548 494 550
f 399 548 550
f 550 552 399
f 45 151 153
f 45 152 151
f 298 296 233
f 233 326 328
f 328 88 330
f 328 326 88
f 218 63 220
f 220 204 218
f 216 63 218
f 218 204 49
f 162 216 218
f 218 49 162
f 310 161 308
f 320 318 310
f 308 84 310
f 84 320 310
f 49 161 310
f 310 318 49
f 585 432 587
f 587 408 585
f 588 408 587
f 103 29 106
f 98 11 105
f 98 105 106
f 106 29 98
f 263 11 98
f 265 263 98
f 98 29 265
f 373 607 460
f 434 593 340
f 340 593 459
f 459 593 596
f 596 373 459
f 607 373 596
f 596 593 410
f 435 602 366
f 366 443 435
f 600 602 435
f 585 603 600
f 435 348 600
f 600 348 585
f 410 593 595
f 595 593 434
f 434 366 595
f 595 366 602
f 444 442 368
f 438 442 444
f 347 469 430
f 430 437 347
f 439 437 430
f 430 469 471
f 69 242 244
f 244 242 94
f 359 586 580
f 590 359 580
f 580 588 406
f 580 586 588
f 406 592 580
f 580 592 590
f 637 416 621
f 637 419 634
f 637 634 620
f 620 416 637
f 635 637 621
f 419 637 635
f 403 569 651
f 570 635 403
f 621 569 403
f 403 635 621
f 345 597 583
f 345 619 597
f 583 649 345
f 345 569 619
f 649 569 345
f 603 614 412
f 412 600 603
f 602 600 412
f 79 282 285
f 350 628 462
f 413 642 631
f 631 642 644
f 644 418 631
f 418 628 631
f 630 628 418
f 462 628 630
f 305 76 294
f 305 269 76
f 294 307 305
f 302 269 305
f 305 83 302
f 307 83 305
f 512 388 506
f 512 390 510
f 510 505 512
f 505 388 512
f 506 511 512
f 512 511 390
f 582 406 579
f 579 504 582
f 579 339 504
f 423 657 655
f 657 647 655
f 655 653 423
f 655 647 386
f 499 653 655
f 655 386 499
f 557 400 555
f 555 541 557
f 555 400 553
f 386 541 555
f 555 553 499
f 499 386 555
f 524 393 522
f 522 515 524
f 522 393 520
f 376 515 522
f 522 520 467
f 467 376 522
f 516 527 528
f 528 391 516
f 391 513 516
f 5 129 176
f 166 48 160
f 166 50 164
f 164 159 166
f 159 48 166
f 160 165 166
f 166 165 50
f 229 239 21
f 239 326 21
f 21 326 233
f 233 296 21
f 299 301 289
f 289 67 299
f 301 80 289
f 274 77 276
f 276 262 274
f 276 77 273
f 74 262 276
f 273 261 276
f 276 261 74
f 8 246 260
f 246 262 260
f 260 262 74
f 74 285 260
f 260 282 8
f 260 285 282
f 292 303 307
f 279 287 24
f 24 287 297
f 24 292 279
f 303 292 24
f 230 65 237
f 237 65 229
f 119 35 121
f 120 35 119
f 121 34 114
f 114 119 121
f 12 119 114
f 120 33 117
f 454 458 371
f 371 451 454
f 153 44 150
f 44 145 150
f 427 477 479
f 487 485 479
f 479 379 487
f 477 379 479
f 479 363 427
f 479 485 363
f 402 565 567
f 567 574 402
f 565 445 567
f 636 626 638
f 638 419 636
f 634 419 638
f 623 626 571
f 446 349 571
f 571 349 623
f 571 626 404
f 623 625 417
f 417 626 623
f 417 638 626
f 453 363 428
f 428 451 453
f 447 363 453
f 453 451 371
f 453 455 447
f 453 371 455
f 572 358 566
f 566 574 572
f 572 404 636
f 572 574 404
f 666 663 425
f 668 666 425
f 667 664 425
f 425 664 668
f 620 634 361
f 618 630 632
f 632 630 418
f 627 625 617
f 627 417 625
f 641 420 639
f 639 420 642
f 606 642 413
f 606 639 642
f 360 639 606
f 610 414 613
f 610 614 414
f 487 478 484
f 478 352 484
f 484 381 487
f 482 380 480
f 536 544 357
f 536 357 549
f 549 552 536
f 536 552 396
f 398 544 547
f 537 545 547
f 547 545 398
f 547 396 537
f 547 536 396
f 544 536 547
f 562 401 559
f 564 401 562
f 559 526 562
f 562 551 564
f 527 525 394
f 525 551 394
f 528 527 394
f 551 562 394
f 394 526 528
f 394 562 526
f 384 550 494
f 380 482 489
f 66 298 233
f 233 328 66
f 312 232 314
f 314 328 330
f 330 85 314
f 314 85 312
f 232 66 314
f 314 66 328
f 29 103 97
f 258 29 97
f 256 258 97
f 97 3 256
f 443 366 436
f 436 366 434
f 364 430 471
f 471 465 364
f 364 465 429
f 439 430 364
f 429 433 364
f 364 433 439
f 251 71 249
f 69 244 251
f 243 69 251
f 251 249 243
f 28 244 94
f 28 102 95
f 28 94 96
f 96 102 28
f 633 635 570
f 633 572 636
f 636 419 633
f 419 635 633
f 570 358 633
f 358 572 633
f 665 403 651
f 665 425 663
f 665 663 570
f 570 403 665
f 665 651 667
f 667 425 665
f 601 412 614
f 614 610 601
f 601 610 360
f 79 285 306
f 83 303 306
f 304 285 74
f 304 261 302
f 74 261 304
f 302 83 304
f 83 306 304
f 304 306 285
f 78 290 279
f 461 618 615
f 605 350 460
f 628 350 605
f 605 631 628
f 460 607 605
f 605 607 413
f 413 631 605
f 339 579 431
f 431 433 429
f 429 339 431
f 46 179 190
f 190 155 46
f 491 516 513
f 67 289 234
f 286 80 288
f 286 289 80
f 12 234 286
f 286 234 289
f 294 291 81
f 81 307 294
f 81 292 307
f 283 24 297
f 283 300 79
f 297 300 283
f 303 24 283
f 79 306 283
f 283 306 303
f 235 237 229
f 235 296 299
f 299 67 235
f 67 237 235
f 229 21 235
f 235 21 296
f 112 33 120
f 120 119 112
f 112 119 12
f 12 286 112
f 288 33 112
f 112 286 288
f 116 114 34
f 115 110 116
f 116 34 115
f 450 448 370
f 370 457 450
f 369 567 445
f 369 455 446
f 447 455 369
f 369 445 447
f 629 361 616
f 616 632 629
f 629 418 644
f 629 632 418
f 615 618 415
f 618 632 415
f 415 632 616
f 616 627 415
f 415 617 615
f 415 627 617
f 624 627 616
f 634 638 624
f 638 417 624
f 417 627 624
f 624 361 634
f 616 361 624
f 598 411 641
f 641 639 598
f 598 639 360
f 360 610 598
f 613 411 598
f 598 610 613
f 360 606 594
f 594 601 360
f 608 596 410
f 410 594 608
f 608 594 606
f 608 606 413
f 413 607 608
f 607 596 608
f 538 384 493
f 550 384 538
f 493 535 538
f 552 550 538
f 535 396 538
f 396 552 538
f 380 489 481
f 481 352 543
f 543 545 481
f 545 380 481
f 284 282 79
f 79 300 284
f 232 282 284
f 284 300 298
f 284 66 232
f 298 66 284
f 82 297 301
f 82 300 297
f 298 300 82
f 82 301 299
f 299 296 82
f 296 298 82
f 444 440 367
f 367 439 441
f 441 438 367
f 438 444 367
f 367 440 437
f 367 437 439
f 95 248 250
f 250 28 95
f 244 28 250
f 248 71 250
f 71 251 250
f 250 251 244
f 410 595 604
f 604 594 410
f 601 594 604
f 412 601 604
f 604 595 602
f 602 412 604
f 279 292 295
f 295 78 279
f 281 78 295
f 292 81 295
f 280 33 288
f 288 290 280
f 290 78 280
f 374 630 618
f 618 461 374
f 462 630 374
f 441 433 365
f 433 431 365
f 365 432 441
f 365 587 432
f 588 587 581
f 581 431 579
f 406 588 581
f 581 579 406
f 587 365 581
f 581 365 431
f 527 516 383
f 383 492 527
f 516 491 383
f 342 491 513
f 342 513 466
f 179 46 154
f 176 179 154
f 154 5 176
f 114 116 109
f 12 114 109
f 109 234 12
f 567 369 573
f 573 571 404
f 446 571 573
f 573 369 446
f 404 574 573
f 574 567 573
f 640 629 644
f 640 643 620
f 620 361 640
f 361 629 640
f 644 420 640
f 420 643 640
f 488 484 352
f 352 481 488
f 488 481 489
f 489 382 488
f 33 280 111
f 111 117 33
f 278 78 281
f 278 280 78
f 278 111 280
f 234 109 236
f 67 234 236
f 230 237 236
f 236 237 67
f 490 488 382
f 484 488 490
f 381 484 490
f 490 486 381
f 124 278 281
f 281 37 124
f 125 37 293
f 291 125 293
f 293 37 281
f 293 81 291
f 281 295 293
f 293 295 81
f 32 108 230
f 230 236 32
f 32 236 109
f 32 109 116
f 110 108 32
f 32 116 110
f 615 448 341
f 341 461 615
f 111 278 4
f 278 124 4
f 143 480 343
f 6 143 343
f 343 156 6
f 493 156 343
f 368 443 31
f 31 443 106
f 138 475 378
f 41 138 378
f 476 139 378
f 378 139 41
f 136 139 476
f 476 472 136
f 469 347 10
f 10 131 469
f 469 136 472
f 131 136 469
f 10 347 437
f 437 99 10
f 468 475 138
f 138 135 468
f 129 468 135
f 466 468 129
f 372 35 457
f 457 35 120
f 458 35 372
f 121 35 458
f 145 346 483
f 9 346 145
f 451 346 9
f 9 113 451
f 492 155 353
f 353 155 16
f 16 157 353
f 157 494 353
f 373 36 122
f 373 122 459
f 460 123 373
f 373 123 36
f 459 122 340
f 122 3 340
f 368 31 444
f 444 31 107
f 462 125 350
f 350 125 13
f 350 123 460
f 13 123 350
f 121 458 454
f 454 118 121
f 454 451 113
f 454 113 118
f 150 145 483
f 483 486 150
f 482 480 143
f 143 149 482
f 384 494 157
f 157 47 384
f 384 156 493
f 384 47 156
f 489 482 149
f 149 152 489
f 97 340 3
f 434 340 97
f 106 443 436
f 436 103 106
f 434 97 436
f 436 97 103
f 440 444 107
f 107 104 440
f 99 437 440
f 104 99 440
f 450 457 120
f 120 117 450
f 383 155 492
f 383 46 155
f 466 129 342
f 129 5 342
f 46 383 154
f 154 383 491
f 154 342 5
f 491 342 154
f 382 489 152
f 152 45 382
f 448 450 111
f 111 450 117
f 37 125 462
f 462 374 37
f 490 382 45
f 490 45 153
f 490 150 486
f 153 150 490
f 124 37 374
f 124 374 461
f 448 111 4
f 4 341 448
f 4 124 461
f 461 341 4
