v -11.709690560635334 -3.2980475749438796 3.7000000000000002
v -11.709690560635334 -8.4019524250561197 3.7000000000000002
v -10.132497224277932 -7.4271933363574005 6.2519524250561203
v -10.132497224277932 -4.2728066636425988 6.2519524250561203
v -10.132497224277932 -7.4271933363574005 1.1480475749438801
v -10.132497224277932 -4.2728066636425988 1.1480475749438801
v -12.684449649334052 -5.8499999999999996 2.1228066636425993
v -12.684449649334052 -5.8499999999999996 5.2771933363574011
v -10.132497224277932 -2.8499999999999996 3.7000000000000002
v -10.132497224277932 -8.8499999999999996 3.7000000000000002
v -11.059548207402774 -8.2770509831248411 5.2000000000000011
v -11.059548207402774 -3.4229490168751573 5.2000000000000011
v -10.132497224277932 -5.8499999999999996 6.7000000000000002
v -11.059548207402774 -8.2770509831248411 2.1999999999999997
v -11.059548207402774 -3.4229490168751573 2.1999999999999997
v -10.132497224277932 -5.8499999999999996 0.70000000000000018
v -12.559548207402774 -4.3499999999999996 2.7729490168751578
v -12.559548207402774 -7.3499999999999996 2.7729490168751578
v -11.632497224277932 -6.777050983124842 1.2729490168751578
v -11.632497224277932 -4.9229490168751573 1.2729490168751578
v -12.559548207402774 -4.3499999999999996 4.6270509831248425
v -12.559548207402774 -7.3499999999999996 4.6270509831248425
v -11.632497224277932 -6.777050983124842 6.1270509831248425
v -11.632497224277932 -4.9229490168751573 6.1270509831248425
v -13.132497224277932 -5.8499999999999996 3.7000000000000002
v -10.952296811015948 -2.964184926648247 3.7000000000000002
v -10.952296811015948 -8.7358150733517519 3.7000000000000002
v -11.434162917936016 -8.4380054412485581 4.4796757390232633
v -10.614363331198001 -7.9313414326813474 5.8061393343284893
v -10.619876768627291 -8.7031695488854606 4.4885966681787011
v -10.132497224277932 -8.4019524250561197 5.2771933363574011
v -11.434162917936016 -3.2619945587514412 4.4796757390232633
v -10.614363331198001 -3.7686585673186519 5.8061393343284893
v -10.619876768627291 -2.9968304511145387 4.4885966681787011
v -10.132497224277932 -3.2980475749438796 5.2771933363574011
v -10.132497224277932 -6.6697995867380149 6.5858150733517533
v -10.132497224277932 -5.0302004132619844 6.5858150733517533
v -11.434162917936016 -8.4380054412485581 2.920324260976737
v -10.614363331198001 -7.9313414326813474 1.5938606656715111
v -10.619876768627291 -8.7031695488854606 2.9114033318212997
v -10.132497224277932 -8.4019524250561197 2.1228066636425993
v -11.434162917936016 -3.2619945587514412 2.920324260976737
v -10.614363331198001 -3.7686585673186519 1.5938606656715111
v -10.619876768627291 -2.9968304511145387 2.9114033318212997
v -10.132497224277932 -3.2980475749438796 2.1228066636425993
v -10.132497224277932 -6.6697995867380149 0.81418492664824749
v -10.132497224277932 -5.0302004132619844 0.81418492664824749
v -12.213838656959279 -3.7438606656715101 3.2181338930799308
v -12.720502665526491 -5.0703242609767365 2.3983343063419156
v -11.895852981155352 -3.7854271192932392 2.4240237874719401
v -12.213838656959279 -7.9561393343284887 3.2181338930799308
v -12.720502665526491 -6.6296757390232628 2.3983343063419156
v -11.895852981155352 -7.9145728807067606 2.4240237874719401
v -10.912172963301195 -7.1516656936580842 1.1119945587514417
v -12.238636558606421 -6.331866106920069 1.6186585673186529
v -11.408473436805991 -7.6133557568774188 1.6354271192932397
v -10.921093892456632 -6.3373795443493588 0.84683045111453925
v -12.197070104984693 -7.1259762125280597 1.9366442431225808
v -10.912172963301195 -4.548334306341915 1.1119945587514417
v -12.238636558606421 -5.3681338930799303 1.6186585673186529
v -11.408473436805991 -4.0866442431225805 1.6354271192932397
v -10.921093892456632 -5.3626204556506405 0.84683045111453925
v -12.197070104984693 -4.5740237874719396 1.9366442431225808
v -11.709690560635334 -5.8499999999999996 1.1480475749438805
v -12.213838656959279 -3.7438606656715101 4.1818661069200695
v -12.720502665526491 -5.0703242609767365 5.0016656936580848
v -11.895852981155352 -3.7854271192932392 4.9759762125280602
v -12.684449649334052 -4.2728066636425988 3.7000000000000002
v -12.213838656959279 -7.9561393343284887 4.1818661069200695
v -12.720502665526491 -6.6296757390232628 5.0016656936580848
v -11.895852981155352 -7.9145728807067606 4.9759762125280602
v -12.684449649334052 -7.4271933363574005 3.7000000000000002
v -10.912172963301195 -7.1516656936580842 6.2880054412485586
v -12.238636558606421 -6.331866106920069 5.7813414326813479
v -11.408473436805991 -7.6133557568774188 5.7645728807067602
v -10.921093892456632 -6.3373795443493588 6.5531695488854611
v -12.197070104984693 -7.1259762125280597 5.4633557568774194
v -10.912172963301195 -4.548334306341915 6.2880054412485586
v -12.238636558606421 -5.3681338930799303 5.7813414326813479
v -11.408473436805991 -4.0866442431225805 5.7645728807067602
v -10.921093892456632 -5.3626204556506405 6.5531695488854611
v -12.197070104984693 -4.5740237874719396 5.4633557568774194
v -11.709690560635334 -5.8499999999999996 6.2519524250561194
v -13.018312297629684 -5.8499999999999996 2.8802004132619849
v -13.018312297629684 -5.8499999999999996 4.5197995867380154
v -12.985666773163393 -5.0614033318212988 3.2126204556506406
v -12.985666773163393 -6.6385966681787005 3.2126204556506406
v -12.985666773163393 -5.0614033318212988 4.1873795443493602
v -12.985666773163393 -6.6385966681787005 4.1873795443493602
v -11.342563270130025 -3.1048697363010476 3.7000000000000002
v -10.546353950660833 -2.8786833541294139 3.7000000000000002
v -11.342563270130025 -8.5951302636989517 3.7000000000000002
v -10.546353950660833 -8.8213166458705849 3.7000000000000002
v -11.585822150459936 -8.4447880075898247 4.0936011364390383
v -11.257612926712561 -8.3817344238671705 4.8508411980551438
v -11.207183604737669 -8.6229138018340379 4.0949661140561942
v -10.375756104607843 -7.6969260626210421 6.0515291272599141
v -10.843756200329659 -8.125956900489772 5.5204754478154427
v -10.37922462011602 -8.8130650217854125 4.0992133124217744
v -10.848528015236711 -8.5230195725651043 4.8585621567627761
v -10.79284830669781 -8.7491777922073162 4.0983774304837075
v -11.036273861557628 -8.5987325255736469 4.4922482519771965
v -10.132497224277932 -7.9587210914633193 5.8338452048866491
v -10.132497224277932 -8.741583790402867 4.4992141034037019
v -10.601800619398624 -8.370533655981415 5.2577754691845504
v -10.375922779137751 -8.1906131121303787 5.5607187478403413
v -10.379467964373813 -8.5889474787968965 4.8988211551055532
v -11.585822150459936 -3.2552119924101754 4.0936011364390383
v -11.257612926712561 -3.3182655761328288 4.8508411980551438
v -11.207183604737669 -3.0770861981659614 4.0949661140561942
v -10.375756104607843 -4.0030739373789572 6.0515291272599141
v -10.843756200329659 -3.5740430995102277 5.5204754478154427
v -10.37922462011602 -2.8869349782145863 4.0992133124217744
v -10.848528015236711 -3.1769804274348958 4.8585621567627761
v -10.79284830669781 -2.9508222077926822 4.0983774304837075
v -11.036273861557628 -3.1012674744263524 4.4922482519771965
v -10.132497224277932 -3.74127890853668 5.8338452048866491
v -10.132497224277932 -2.9584162095971318 4.4992141034037019
v -10.601800619398624 -3.3294663440185834 5.2577754691845504
v -10.375922779137751 -3.5093868878696197 5.5607187478403413
v -10.379467964373813 -3.1110525212031024 4.8988211551055532
v -10.132497224277932 -7.0600660458520927 6.4451302636989523
v -10.132497224277932 -6.263856726382901 6.6713166458705864
v -10.132497224277932 -4.6399339541479065 6.4451302636989523
v -10.132497224277932 -5.4361432736170983 6.6713166458705864
v -11.585822150459936 -8.4447880075898247 3.3063988635609616
v -11.257612926712561 -8.3817344238671705 2.5491588019448566
v -11.207183604737669 -8.6229138018340379 3.3050338859438062
v -10.375756104607843 -7.6969260626210421 1.3484708727400863
v -10.843756200329659 -8.125956900489772 1.8795245521845576
v -10.37922462011602 -8.8130650217854125 3.3007866875782264
v -10.848528015236711 -8.5230195725651043 2.5414378432372238
v -10.79284830669781 -8.7491777922073162 3.3016225695162928
v -11.036273861557628 -8.5987325255736469 2.9077517480228039
v -10.132497224277932 -7.9587210914633193 1.5661547951133512
v -10.132497224277932 -8.741583790402867 2.900785896596298
v -10.601800619398624 -8.370533655981415 2.1422245308154499
v -10.375922779137751 -8.1906131121303787 1.8392812521596591
v -10.379467964373813 -8.5889474787968965 2.5011788448944468
v -11.585822150459936 -3.2552119924101754 3.3063988635609616
v -11.257612926712561 -3.3182655761328288 2.5491588019448566
v -11.207183604737669 -3.0770861981659614 3.3050338859438062
v -10.375756104607843 -4.0030739373789572 1.3484708727400863
v -10.843756200329659 -3.5740430995102277 1.8795245521845576
v -10.37922462011602 -2.8869349782145863 3.3007866875782264
v -10.848528015236711 -3.1769804274348958 2.5414378432372238
v -10.79284830669781 -2.9508222077926822 3.3016225695162928
v -11.036273861557628 -3.1012674744263524 2.9077517480228039
v -10.132497224277932 -3.74127890853668 1.5661547951133512
v -10.132497224277932 -2.9584162095971318 2.900785896596298
v -10.601800619398624 -3.3294663440185834 2.1422245308154499
v -10.375922779137751 -3.5093868878696197 1.8392812521596591
v -10.379467964373813 -3.1110525212031024 2.5011788448944468
v -10.132497224277932 -7.0600660458520927 0.9548697363010481
v -10.132497224277932 -6.263856726382901 0.72868335412941443
v -10.132497224277932 -4.6399339541479065 0.9548697363010481
v -10.132497224277932 -5.4361432736170983 0.72868335412941443
v -11.979423286898975 -3.4984708727400857 3.4567411196700895
v -12.408454124767704 -4.0295245521845571 2.9887410239482723
v -11.846252201685058 -3.4720523122221554 3.0609314030526109
v -12.727285231867757 -5.4563988635609615 2.2466750738179968
v -12.664231648145103 -4.699158801944856 2.5748842975653714
v -11.494468723496572 -3.5761937398566701 2.2947104473991371
v -12.253817567837574 -4.0454971349773627 2.5847558966194466
v -11.680862084431116 -3.4996449049100598 2.6615409556330238
v -12.074732905924604 -3.7430704597698785 2.811986222266694
v -11.979423286898975 -8.2015291272599136 3.4567411196700895
v -12.408454124767704 -7.6704754478154422 2.9887410239482723
v -11.846252201685058 -8.2279476877778439 3.0609314030526109
v -12.727285231867757 -6.2436011364390378 2.2466750738179968
v -12.664231648145103 -7.0008411980551433 2.5748842975653714
v -11.494468723496572 -8.1238062601433292 2.2947104473991371
v -12.253817567837574 -7.6545028650226365 2.5847558966194466
v -11.680862084431116 -8.2003550950899395 2.6615409556330238
v -12.074732905924604 -7.9569295402301208 2.811986222266694
v -10.52609836071697 -7.303324926182003 1.105211992410176
v -11.283338422333076 -6.9751157024346284 1.1682655761328298
v -10.771565821225321 -7.5637549774071253 1.3220523122221559
v -10.527463338334126 -6.9246863804597361 0.92708619816596194
v -12.484026351537846 -6.0932588803299099 1.8530739373789584
v -11.952972672093374 -6.5612589760517279 1.4240430995102282
v -12.510444912055776 -6.4890685969473889 1.9862450225928743
v -11.247741327658485 -7.9713203435596416 1.8954971349773628
v -11.537786776878795 -7.2119714992186399 1.4261937398566706
v -11.020511002011238 -7.7922356816466714 1.5930704597698795
v -11.672623547969277 -7.7897333753931948 2.0072373647026858
v -11.170956268644908 -7.3983648601531833 1.3496449049100607
v -10.531710536699705 -6.0967273958380863 0.73693497821458687
v -11.291059381040709 -6.566030790958779 1.0269804274348964
v -10.530874654761639 -6.5103510824198771 0.80082220779268276
v -10.924745476255129 -6.7537766372796959 0.95126747442635295
v -12.406303484421262 -7.2552895526008632 2.3380285007813599
v -11.93700008930057 -6.9652441033805532 1.5786796564403578
v -12.482852319367872 -6.888459044366976 2.151635139846817
v -12.072230599671126 -7.5427626352973141 2.1598736763086563
v -12.239426764508053 -6.7380137777333058 1.7577643183533282
v -11.825259859575247 -7.3901263236913435 1.7602666246068051
v -10.52609836071697 -4.3966750738179963 1.105211992410176
v -11.283338422333076 -4.7248842975653709 1.1682655761328298
v -10.771565821225321 -4.136245022592874 1.3220523122221559
v -10.527463338334126 -4.7753136195402632 0.92708619816596194
v -12.484026351537846 -5.6067411196700894 1.8530739373789584
v -11.952972672093374 -5.1387410239482714 1.4240430995102282
v -12.510444912055776 -5.2109314030526104 1.9862450225928743
v -12.266342429164581 -5.8499999999999996 1.5912789085366805
v -11.247741327658485 -3.7286796564403573 1.8954971349773628
v -11.537786776878795 -4.4880285007813594 1.4261937398566706
v -11.020511002011238 -3.9077643183533279 1.5930704597698795
v -11.672623547969277 -3.9102666246068045 2.0072373647026858
v -11.170956268644908 -4.301635139846816 1.3496449049100607
v -10.531710536699705 -5.603272604161913 0.73693497821458687
v -11.291059381040709 -5.1339692090412203 1.0269804274348964
v -10.530874654761639 -5.1896489175801221 0.80082220779268276
v -10.931711327681635 -5.8499999999999996 0.80841620959713234
v -10.924745476255129 -4.9462233627203034 0.95126747442635295
v -12.406303484421262 -4.4447104473991361 2.3380285007813599
v -11.93700008930057 -4.7347558966194461 1.5786796564403578
v -12.482852319367872 -4.8115409556330233 2.151635139846817
v -12.072230599671126 -4.1572373647026852 2.1598736763086563
v -12.239426764508053 -4.9619862222666935 1.7577643183533282
v -11.825259859575247 -4.3098736763086558 1.7602666246068051
v -11.690272693462482 -6.3193033951206923 1.179466344018584
v -11.690272693462482 -5.380696604879307 1.179466344018584
v -11.993215972118273 -6.0934255548598184 1.3593868878696203
v -11.331318379383486 -6.0969707400958804 0.96105252120310292
v -11.993215972118273 -5.6065744451401809 1.3593868878696203
v -11.331318379383486 -5.6030292599041189 0.96105252120310292
v -11.979423286898975 -3.4984708727400857 3.9432588803299109
v -12.408454124767704 -4.0295245521845571 4.4112589760517285
v -11.846252201685058 -3.4720523122221554 4.3390685969473894
v -12.241218315741252 -3.7161547951133507 3.7000000000000002
v -12.727285231867757 -5.4563988635609615 5.1533249261820036
v -12.664231648145103 -4.699158801944856 4.825115702434629
v -11.494468723496572 -3.5761937398566701 5.1052895526008637
v -12.253817567837574 -4.0454971349773627 4.8152441033805538
v -11.680862084431116 -3.4996449049100598 4.7384590443669765
v -12.074732905924604 -3.7430704597698785 4.5880137777333063
v -12.653030880259347 -4.2922245308154494 3.2306966048793075
v -12.653030880259347 -4.2922245308154494 4.1693033951206928
v -12.473110336408311 -3.9892812521596586 3.4565744451401814
v -12.473110336408311 -3.9892812521596586 3.9434255548598189
v -11.979423286898975 -8.2015291272599136 3.9432588803299109
v -12.408454124767704 -7.6704754478154422 4.4112589760517285
v -11.846252201685058 -8.2279476877778439 4.3390685969473894
v -12.241218315741252 -7.9838452048866486 3.7000000000000002
v -12.727285231867757 -6.2436011364390378 5.1533249261820036
v -12.664231648145103 -7.0008411980551433 4.825115702434629
v -11.494468723496572 -8.1238062601433292 5.1052895526008637
v -12.253817567837574 -7.6545028650226365 4.8152441033805538
v -11.680862084431116 -8.2003550950899395 4.7384590443669765
v -12.074732905924604 -7.9569295402301208 4.5880137777333063
v -12.653030880259347 -7.4077754691845499 3.2306966048793075
v -12.653030880259347 -7.4077754691845499 4.1693033951206928
v -12.473110336408311 -7.7107187478403407 3.4565744451401814
v -12.473110336408311 -7.7107187478403407 3.9434255548598189
v -10.52609836071697 -7.303324926182003 6.2947880075898244
v -11.283338422333076 -6.9751157024346284 6.2317344238671701
v -10.771565821225321 -7.5637549774071253 6.0779476877778444
v -10.527463338334126 -6.9246863804597361 6.4729138018340384
v -12.484026351537846 -6.0932588803299099 5.5469260626210417
v -11.952972672093374 -6.5612589760517279 5.9759569004897717
v -12.510444912055776 -6.4890685969473889 5.4137549774071259
v -11.247741327658485 -7.9713203435596416 5.5045028650226371
v -11.537786776878795 -7.2119714992186399 5.9738062601433297
v -11.020511002011238 -7.7922356816466714 5.8069295402301204
v -11.672623547969277 -7.7897333753931948 5.3927626352973146
v -11.170956268644908 -7.3983648601531833 6.0503550950899392
v -10.531710536699705 -6.0967273958380863 6.6630650217854139
v -11.291059381040709 -6.566030790958779 6.373019572565104
v -10.530874654761639 -6.5103510824198771 6.5991777922073176
v -10.924745476255129 -6.7537766372796959 6.4487325255736474
v -12.406303484421262 -7.2552895526008632 5.0619714992186404
v -11.93700008930057 -6.9652441033805532 5.821320343559643
v -12.482852319367872 -6.888459044366976 5.2483648601531829
v -12.072230599671126 -7.5427626352973141 5.240126323691344
v -12.239426764508053 -6.7380137777333058 5.6422356816466719
v -11.825259859575247 -7.3901263236913435 5.6397333753931953
v -10.52609836071697 -4.3966750738179963 6.2947880075898244
v -11.283338422333076 -4.7248842975653709 6.2317344238671701
v -10.771565821225321 -4.136245022592874 6.0779476877778444
v -10.527463338334126 -4.7753136195402632 6.4729138018340384
v -12.484026351537846 -5.6067411196700894 5.5469260626210417
v -11.952972672093374 -5.1387410239482714 5.9759569004897717
v -12.510444912055776 -5.2109314030526104 5.4137549774071259
v -12.266342429164581 -5.8499999999999996 5.8087210914633198
v -11.247741327658485 -3.7286796564403573 5.5045028650226371
v -11.537786776878795 -4.4880285007813594 5.9738062601433297
v -11.020511002011238 -3.9077643183533279 5.8069295402301204
v -11.672623547969277 -3.9102666246068045 5.3927626352973146
v -11.170956268644908 -4.301635139846816 6.0503550950899392
v -10.531710536699705 -5.603272604161913 6.6630650217854139
v -11.291059381040709 -5.1339692090412203 6.373019572565104
v -10.530874654761639 -5.1896489175801221 6.5991777922073176
v -10.931711327681635 -5.8499999999999996 6.5915837904028685
v -10.924745476255129 -4.9462233627203034 6.4487325255736474
v -12.406303484421262 -4.4447104473991361 5.0619714992186404
v -11.93700008930057 -4.7347558966194461 5.821320343559643
v -12.482852319367872 -4.8115409556330233 5.2483648601531829
v -12.072230599671126 -4.1572373647026852 5.240126323691344
v -12.239426764508053 -4.9619862222666935 5.6422356816466719
v -11.825259859575247 -4.3098736763086558 5.6397333753931953
v -11.690272693462482 -6.3193033951206923 6.2205336559814164
v -11.690272693462482 -5.380696604879307 6.2205336559814164
v -11.993215972118273 -6.0934255548598184 6.0406131121303801
v -11.331318379383486 -6.0969707400958804 6.4389474787968979
v -11.993215972118273 -5.6065744451401809 6.0406131121303801
v -11.331318379383486 -5.6030292599041189 6.4389474787968979
v -12.877627487976884 -5.8499999999999996 2.4899339541479071
v -13.103813870148517 -5.8499999999999996 3.2861432736170988
v -12.90541102611197 -5.4550338859438057 2.6253136195402633
v -12.90541102611197 -6.2449661140561936 2.6253136195402633
v -12.877627487976884 -5.8499999999999996 4.9100660458520933
v -13.103813870148517 -5.8499999999999996 4.1138567263829016
v -12.90541102611197 -5.4550338859438057 4.7746863804597375
v -12.90541102611197 -6.2449661140561936 4.7746863804597375
v -12.805516796843037 -4.6914378432372228 2.9839692090412209
v -13.095562246063345 -5.4507866875782254 3.4532726041619131
v -12.881229749851579 -5.0577517480228025 2.7962233627203039
v -12.871444703074829 -4.6511788448944458 3.4530292599041195
v -13.031675016485249 -5.4516225695162923 3.0396489175801227
v -12.805516796843037 -7.0085621567627765 2.9839692090412209
v -13.095562246063345 -6.2492133124217739 3.4532726041619131
v -12.881229749851579 -6.6422482519771968 2.7962233627203039
v -12.871444703074829 -7.0488211551055535 3.4530292599041195
v -13.031675016485249 -6.248377430483707 3.0396489175801227
v -12.805516796843037 -4.6914378432372228 4.4160307909587795
v -13.095562246063345 -5.4507866875782254 3.9467273958380873
v -12.881229749851579 -5.0577517480228025 4.6037766372796964
v -12.871444703074829 -4.6511788448944458 3.9469707400958809
v -13.031675016485249 -5.4516225695162923 4.3603510824198777
v -13.024081014680799 -5.0507858965962971 3.7000000000000002
v -12.805516796843037 -7.0085621567627765 4.4160307909587795
v -13.095562246063345 -6.2492133124217739 3.9467273958380873
v -12.881229749851579 -6.6422482519771968 4.6037766372796964
v -12.871444703074829 -7.0488211551055535 3.9469707400958809
v -13.031675016485249 -6.248377430483707 4.3603510824198777
v -13.024081014680799 -6.6492141034037022 3.7000000000000002
v -3.4890552757815652 -3.2980475749438796 3.7000000000000002
v -3.4890552757815652 -8.4019524250561197 3.7000000000000002
v -5.066248612138966 -7.4271933363574005 6.2519524250561203
v -5.066248612138966 -4.2728066636425988 6.2519524250561203
v -5.066248612138966 -7.4271933363574005 1.1480475749438801
v -5.066248612138966 -4.2728066636425988 1.1480475749438801
v -2.514296187082846 -5.8499999999999996 2.1228066636425993
v -2.514296187082846 -5.8499999999999996 5.2771933363574011
v -5.066248612138966 -2.8499999999999996 3.7000000000000002
v -5.066248612138966 -8.8499999999999996 3.7000000000000002
v -4.1391976290141237 -8.2770509831248411 5.2000000000000011
v -4.1391976290141237 -3.4229490168751573 5.2000000000000011
v -5.066248612138966 -5.8499999999999996 6.7000000000000002
v -4.1391976290141237 -8.2770509831248411 2.1999999999999997
v -4.1391976290141237 -3.4229490168751573 2.1999999999999997
v -5.066248612138966 -5.8499999999999996 0.70000000000000018
v -2.6391976290141237 -4.3499999999999996 2.7729490168751578
v -2.6391976290141237 -7.3499999999999996 2.7729490168751578
v -3.5662486121389656 -6.777050983124842 1.2729490168751578
v -3.5662486121389656 -4.9229490168751573 1.2729490168751578
v -2.6391976290141237 -4.3499999999999996 4.6270509831248425
v -2.6391976290141237 -7.3499999999999996 4.6270509831248425
v -3.5662486121389656 -6.777050983124842 6.1270509831248425
v -3.5662486121389656 -4.9229490168751573 6.1270509831248425
v -2.066248612138966 -5.8499999999999996 3.7000000000000002
v -4.2464490254009508 -2.964184926648247 3.7000000000000002
v -4.2464490254009508 -8.7358150733517519 3.7000000000000002
v -3.7645829184808819 -8.4380054412485581 4.4796757390232633
v -4.5843825052188967 -7.9313414326813474 5.8061393343284893
v -4.5788690677896069 -8.7031695488854606 4.4885966681787011
v -5.066248612138966 -8.4019524250561197 5.2771933363574011
v -3.7645829184808819 -3.2619945587514412 4.4796757390232633
v -4.5843825052188967 -3.7686585673186519 5.8061393343284893
v -4.5788690677896069 -2.9968304511145387 4.4885966681787011
v -5.066248612138966 -3.2980475749438796 5.2771933363574011
v -5.066248612138966 -6.6697995867380149 6.5858150733517533
v -5.066248612138966 -5.0302004132619844 6.5858150733517533
v -3.7645829184808819 -8.4380054412485581 2.920324260976737
v -4.5843825052188967 -7.9313414326813474 1.5938606656715111
v -4.5788690677896069 -8.7031695488854606 2.9114033318212997
v -5.066248612138966 -8.4019524250561197 2.1228066636425993
v -3.7645829184808819 -3.2619945587514412 2.920324260976737
v -4.5843825052188967 -3.7686585673186519 1.5938606656715111
v -4.5788690677896069 -2.9968304511145387 2.9114033318212997
v -5.066248612138966 -3.2980475749438796 2.1228066636425993
v -5.066248612138966 -6.6697995867380149 0.81418492664824749
v -5.066248612138966 -5.0302004132619844 0.81418492664824749
v -2.9849071794576183 -3.7438606656715101 3.2181338930799308
v -2.4782431708904076 -5.0703242609767365 2.3983343063419156
v -3.3028928552615464 -3.7854271192932392 2.4240237874719401
v -2.9849071794576183 -7.9561393343284887 3.2181338930799308
v -2.4782431708904076 -6.6296757390232628 2.3983343063419156
v -3.3028928552615464 -7.9145728807067606 2.4240237874719401
v -4.2865728731157029 -7.1516656936580842 1.1119945587514417
v -2.9601092778104769 -6.331866106920069 1.6186585673186529
v -3.790272399610906 -7.6133557568774188 1.6354271192932397
v -4.2776519439602652 -6.3373795443493588 0.84683045111453925
v -3.0016757314322056 -7.1259762125280597 1.9366442431225808
v -4.2865728731157029 -4.548334306341915 1.1119945587514417
v -2.9601092778104769 -5.3681338930799303 1.6186585673186529
v -3.790272399610906 -4.0866442431225805 1.6354271192932397
v -4.2776519439602652 -5.3626204556506405 0.84683045111453925
v -3.0016757314322056 -4.5740237874719396 1.9366442431225808
v -3.4890552757815652 -5.8499999999999996 1.1480475749438805
v -2.9849071794576183 -3.7438606656715101 4.1818661069200695
v -2.4782431708904076 -5.0703242609767365 5.0016656936580848
v -3.3028928552615464 -3.7854271192932392 4.9759762125280602
v -2.5142961870828464 -4.2728066636425988 3.7000000000000002
v -2.9849071794576183 -7.9561393343284887 4.1818661069200695
v -2.4782431708904076 -6.6296757390232628 5.0016656936580848
v -3.3028928552615464 -7.9145728807067606 4.9759762125280602
v -2.5142961870828464 -7.4271933363574005 3.7000000000000002
v -4.2865728731157029 -7.1516656936580842 6.2880054412485586
v -2.9601092778104769 -6.331866106920069 5.7813414326813479
v -3.790272399610906 -7.6133557568774188 5.7645728807067602
v -4.2776519439602652 -6.3373795443493588 6.5531695488854611
v -3.0016757314322056 -7.1259762125280597 5.4633557568774194
v -4.2865728731157029 -4.548334306341915 6.2880054412485586
v -2.9601092778104769 -5.3681338930799303 5.7813414326813479
v -3.790272399610906 -4.0866442431225805 5.7645728807067602
v -4.2776519439602652 -5.3626204556506405 6.5531695488854611
v -3.0016757314322056 -4.5740237874719396 5.4633557568774194
v -3.4890552757815652 -5.8499999999999996 6.2519524250561194
v -2.1804335387872134 -5.8499999999999996 2.8802004132619849
v -2.1804335387872134 -5.8499999999999996 4.5197995867380154
v -2.2130790632535051 -5.0614033318212988 3.2126204556506406
v -2.2130790632535051 -6.6385966681787005 3.2126204556506406
v -2.2130790632535051 -5.0614033318212988 4.1873795443493602
v -2.2130790632535051 -6.6385966681787005 4.1873795443493602
v -3.8561825662868729 -3.1048697363010476 3.7000000000000002
v -4.6523918857560647 -2.8786833541294139 3.7000000000000002
v -3.8561825662868729 -8.5951302636989517 3.7000000000000002
v -4.6523918857560647 -8.8213166458705849 3.7000000000000002
v -3.6129236859569627 -8.4447880075898247 4.0936011364390383
v -3.9411329097043373 -8.3817344238671705 4.8508411980551438
v -3.9915622316792292 -8.6229138018340379 4.0949661140561942
v -4.8229897318090558 -7.6969260626210421 6.0515291272599141
v -4.3549896360872378 -8.125956900489772 5.5204754478154427
v -5.066248612138966 -7.9587210914633193 5.8338452048866491
v -4.8195212163008794 -8.8130650217854125 4.0992133124217744
v -4.3502178211801867 -8.5230195725651043 4.8585621567627761
v -4.4058975297190885 -8.7491777922073162 4.0983774304837075
v -5.066248612138966 -8.741583790402867 4.4992141034037019
v -4.1624719748592698 -8.5987325255736469 4.4922482519771965
v -4.5969452170182734 -8.370533655981415 5.2577754691845504
v -4.8228230572791473 -8.1906131121303787 5.5607187478403413
v -4.8192778720430853 -8.5889474787968965 4.8988211551055532
v -3.6129236859569627 -3.2552119924101754 4.0936011364390383
v -3.9411329097043373 -3.3182655761328288 4.8508411980551438
v -3.9915622316792292 -3.0770861981659614 4.0949661140561942
v -4.8229897318090558 -4.0030739373789572 6.0515291272599141
v -4.3549896360872378 -3.5740430995102277 5.5204754478154427
v -5.066248612138966 -3.74127890853668 5.8338452048866491
v -4.8195212163008794 -2.8869349782145863 4.0992133124217744
v -4.3502178211801867 -3.1769804274348958 4.8585621567627761
v -4.4058975297190885 -2.9508222077926822 4.0983774304837075
v -5.066248612138966 -2.9584162095971318 4.4992141034037019
v -4.1624719748592698 -3.1012674744263524 4.4922482519771965
v -4.5969452170182734 -3.3294663440185834 5.2577754691845504
v -4.8228230572791473 -3.5093868878696197 5.5607187478403413
v -4.8192778720430853 -3.1110525212031024 4.8988211551055532
v -5.066248612138966 -7.0600660458520927 6.4451302636989523
v -5.066248612138966 -6.263856726382901 6.6713166458705864
v -5.066248612138966 -4.6399339541479065 6.4451302636989523
v -5.066248612138966 -5.4361432736170983 6.6713166458705864
v -3.6129236859569627 -8.4447880075898247 3.3063988635609616
v -3.9411329097043373 -8.3817344238671705 2.5491588019448566
v -3.9915622316792292 -8.6229138018340379 3.3050338859438062
v -4.8229897318090558 -7.6969260626210421 1.3484708727400863
v -4.3549896360872378 -8.125956900489772 1.8795245521845576
v -5.066248612138966 -7.9587210914633193 1.5661547951133512
v -4.8195212163008794 -8.8130650217854125 3.3007866875782264
v -4.3502178211801867 -8.5230195725651043 2.5414378432372238
v -4.4058975297190885 -8.7491777922073162 3.3016225695162928
v -5.066248612138966 -8.741583790402867 2.900785896596298
v -4.1624719748592698 -8.5987325255736469 2.9077517480228039
v -4.5969452170182734 -8.370533655981415 2.1422245308154499
v -4.8228230572791473 -8.1906131121303787 1.8392812521596591
v -4.8192778720430853 -8.5889474787968965 2.5011788448944468
v -3.6129236859569627 -3.2552119924101754 3.3063988635609616
v -3.9411329097043373 -3.3182655761328288 2.5491588019448566
v -3.9915622316792292 -3.0770861981659614 3.3050338859438062
v -4.8229897318090558 -4.0030739373789572 1.3484708727400863
v -4.3549896360872378 -3.5740430995102277 1.8795245521845576
v -5.066248612138966 -3.74127890853668 1.5661547951133512
v -4.8195212163008794 -2.8869349782145863 3.3007866875782264
v -4.3502178211801867 -3.1769804274348958 2.5414378432372238
v -4.4058975297190885 -2.9508222077926822 3.3016225695162928
v -5.066248612138966 -2.9584162095971318 2.900785896596298
v -4.1624719748592698 -3.1012674744263524 2.9077517480228039
v -4.5969452170182734 -3.3294663440185834 2.1422245308154499
v -4.8228230572791473 -3.5093868878696197 1.8392812521596591
v -4.8192778720430853 -3.1110525212031024 2.5011788448944468
v -5.066248612138966 -7.0600660458520927 0.9548697363010481
v -5.066248612138966 -6.263856726382901 0.72868335412941443
v -5.066248612138966 -4.6399339541479065 0.9548697363010481
v -5.066248612138966 -5.4361432736170983 0.72868335412941443
v -3.2193225495179245 -3.4984708727400857 3.4567411196700895
v -2.7902917116491941 -4.0295245521845571 2.9887410239482723
v -3.3524936347318404 -3.4720523122221554 3.0609314030526109
v -2.4714606045491418 -5.4563988635609615 2.2466750738179968
v -2.5345141882717956 -4.699158801944856 2.5748842975653714
v -3.7042771129203258 -3.5761937398566701 2.2947104473991371
v -2.9449282685793237 -4.0454971349773627 2.5847558966194466
v -3.5178837519857833 -3.4996449049100598 2.6615409556330238
v -3.1240129304922939 -3.7430704597698785 2.811986222266694
v -3.2193225495179245 -8.2015291272599136 3.4567411196700895
v -2.7902917116491941 -7.6704754478154422 2.9887410239482723
v -3.3524936347318404 -8.2279476877778439 3.0609314030526109
v -2.4714606045491418 -6.2436011364390378 2.2466750738179968
v -2.5345141882717956 -7.0008411980551433 2.5748842975653714
v -3.7042771129203258 -8.1238062601433292 2.2947104473991371
v -2.9449282685793237 -7.6545028650226365 2.5847558966194466
v -3.5178837519857833 -8.2003550950899395 2.6615409556330238
v -3.1240129304922939 -7.9569295402301208 2.811986222266694
v -4.672647475699927 -7.303324926182003 1.105211992410176
v -3.9154074140838224 -6.9751157024346284 1.1682655761328298
v -4.4271800151915768 -7.5637549774071253 1.3220523122221559
v -4.6712824980827721 -6.9246863804597361 0.92708619816596194
v -2.7147194848790521 -6.0932588803299099 1.8530739373789584
v -3.2457731643235235 -6.5612589760517279 1.4240430995102282
v -2.6883009243611218 -6.4890685969473889 1.9862450225928743
v -3.9510045087584125 -7.9713203435596416 1.8954971349773628
v -3.6609590595381025 -7.2119714992186399 1.4261937398566706
v -4.1782348344056599 -7.7922356816466714 1.5930704597698795
v -3.5261222884476222 -7.7897333753931948 2.0072373647026858
v -4.0277895677719897 -7.3983648601531833 1.3496449049100607
v -4.6670352997171918 -6.0967273958380863 0.73693497821458687
v -3.9076864553761896 -6.566030790958779 1.0269804274348964
v -4.6678711816552587 -6.5103510824198771 0.80082220779268276
v -4.2740003601617689 -6.7537766372796959 0.95126747442635295
v -2.7924423519956365 -7.2552895526008632 2.3380285007813599
v -3.2617457471163287 -6.9652441033805532 1.5786796564403578
v -2.7158935170490266 -6.888459044366976 2.151635139846817
v -3.1265152367457709 -7.5427626352973141 2.1598736763086563
v -2.9593190719088454 -6.7380137777333058 1.7577643183533282
v -3.3734859768416516 -7.3901263236913435 1.7602666246068051
v -4.672647475699927 -4.3966750738179963 1.105211992410176
v -3.9154074140838224 -4.7248842975653709 1.1682655761328298
v -4.4271800151915768 -4.136245022592874 1.3220523122221559
v -4.6712824980827721 -4.7753136195402632 0.92708619816596194
v -2.7147194848790521 -5.6067411196700894 1.8530739373789584
v -3.2457731643235235 -5.1387410239482714 1.4240430995102282
v -2.6883009243611218 -5.2109314030526104 1.9862450225928743
v -2.9324034072523171 -5.8499999999999996 1.5912789085366805
v -3.9510045087584125 -3.7286796564403573 1.8954971349773628
v -3.6609590595381025 -4.4880285007813594 1.4261937398566706
v -4.1782348344056599 -3.9077643183533279 1.5930704597698795
v -3.5261222884476222 -3.9102666246068045 2.0072373647026858
v -4.0277895677719897 -4.301635139846816 1.3496449049100607
v -4.6670352997171918 -5.603272604161913 0.73693497821458687
v -3.9076864553761896 -5.1339692090412203 1.0269804274348964
v -4.6678711816552587 -5.1896489175801221 0.80082220779268276
v -4.2670345087352635 -5.8499999999999996 0.80841620959713234
v -4.2740003601617689 -4.9462233627203034 0.95126747442635295
v -2.7924423519956365 -4.4447104473991361 2.3380285007813599
v -3.2617457471163287 -4.7347558966194461 1.5786796564403578
v -2.7158935170490266 -4.8115409556330233 2.151635139846817
v -3.1265152367457709 -4.1572373647026852 2.1598736763086563
v -2.9593190719088454 -4.9619862222666935 1.7577643183533282
v -3.3734859768416516 -4.3098736763086558 1.7602666246068051
v -3.5084731429544154 -6.3193033951206923 1.179466344018584
v -3.5084731429544154 -5.380696604879307 1.179466344018584
v -3.205529864298625 -6.0934255548598184 1.3593868878696203
v -3.8674274570334126 -6.0969707400958804 0.96105252120310292
v -3.205529864298625 -5.6065744451401809 1.3593868878696203
v -3.8674274570334126 -5.6030292599041189 0.96105252120310292
v -3.2193225495179245 -3.4984708727400857 3.9432588803299109
v -2.7902917116491941 -4.0295245521845571 4.4112589760517285
v -3.3524936347318404 -3.4720523122221554 4.3390685969473894
v -2.9575275206756464 -3.7161547951133507 3.7000000000000002
v -2.4714606045491418 -5.4563988635609615 5.1533249261820036
v -2.5345141882717956 -4.699158801944856 4.825115702434629
v -3.7042771129203258 -3.5761937398566701 5.1052895526008637
v -2.9449282685793237 -4.0454971349773627 4.8152441033805538
v -3.5178837519857833 -3.4996449049100598 4.7384590443669765
v -3.1240129304922939 -3.7430704597698785 4.5880137777333063
v -2.5457149561575498 -4.2922245308154494 3.2306966048793075
v -2.5457149561575498 -4.2922245308154494 4.1693033951206928
v -2.7256355000085861 -3.9892812521596586 3.4565744451401814
v -2.7256355000085861 -3.9892812521596586 3.9434255548598189
v -3.2193225495179245 -8.2015291272599136 3.9432588803299109
v -2.7902917116491941 -7.6704754478154422 4.4112589760517285
v -3.3524936347318404 -8.2279476877778439 4.3390685969473894
v -2.9575275206756464 -7.9838452048866486 3.7000000000000002
v -2.4714606045491418 -6.2436011364390378 5.1533249261820036
v -2.5345141882717956 -7.0008411980551433 4.825115702434629
v -3.7042771129203258 -8.1238062601433292 5.1052895526008637
v -2.9449282685793237 -7.6545028650226365 4.8152441033805538
v -3.5178837519857833 -8.2003550950899395 4.7384590443669765
v -3.1240129304922939 -7.9569295402301208 4.5880137777333063
v -2.5457149561575498 -7.4077754691845499 3.2306966048793075
v -2.5457149561575498 -7.4077754691845499 4.1693033951206928
v -2.7256355000085861 -7.7107187478403407 3.4565744451401814
v -2.7256355000085861 -7.7107187478403407 3.9434255548598189
v -4.672647475699927 -7.303324926182003 6.2947880075898244
v -3.9154074140838224 -6.9751157024346284 6.2317344238671701
v -4.4271800151915768 -7.5637549774071253 6.0779476877778444
v -4.6712824980827721 -6.9246863804597361 6.4729138018340384
v -2.7147194848790521 -6.0932588803299099 5.5469260626210417
v -3.2457731643235235 -6.5612589760517279 5.9759569004897717
v -2.6883009243611218 -6.4890685969473889 5.4137549774071259
v -3.9510045087584125 -7.9713203435596416 5.5045028650226371
v -3.6609590595381025 -7.2119714992186399 5.9738062601433297
v -4.1782348344056599 -7.7922356816466714 5.8069295402301204
v -3.5261222884476222 -7.7897333753931948 5.3927626352973146
v -4.0277895677719897 -7.3983648601531833 6.0503550950899392
v -4.6670352997171918 -6.0967273958380863 6.6630650217854139
v -3.9076864553761896 -6.566030790958779 6.373019572565104
v -4.6678711816552587 -6.5103510824198771 6.5991777922073176
v -4.2740003601617689 -6.7537766372796959 6.4487325255736474
v -2.7924423519956365 -7.2552895526008632 5.0619714992186404
v -3.2617457471163287 -6.9652441033805532 5.821320343559643
v -2.7158935170490266 -6.888459044366976 5.2483648601531829
v -3.1265152367457709 -7.5427626352973141 5.240126323691344
v -2.9593190719088454 -6.7380137777333058 5.6422356816466719
v -3.3734859768416516 -7.3901263236913435 5.6397333753931953
v -4.672647475699927 -4.3966750738179963 6.2947880075898244
v -3.9154074140838224 -4.7248842975653709 6.2317344238671701
v -4.4271800151915768 -4.136245022592874 6.0779476877778444
v -4.6712824980827721 -4.7753136195402632 6.4729138018340384
v -2.7147194848790521 -5.6067411196700894 5.5469260626210417
v -3.2457731643235235 -5.1387410239482714 5.9759569004897717
v -2.6883009243611218 -5.2109314030526104 5.4137549774071259
v -2.9324034072523171 -5.8499999999999996 5.8087210914633198
v -3.9510045087584125 -3.7286796564403573 5.5045028650226371
v -3.6609590595381025 -4.4880285007813594 5.9738062601433297
v -4.1782348344056599 -3.9077643183533279 5.8069295402301204
v -3.5261222884476222 -3.9102666246068045 5.3927626352973146
v -4.0277895677719897 -4.301635139846816 6.0503550950899392
v -4.6670352997171918 -5.603272604161913 6.6630650217854139
v -3.9076864553761896 -5.1339692090412203 6.373019572565104
v -4.6678711816552587 -5.1896489175801221 6.5991777922073176
v -4.2670345087352635 -5.8499999999999996 6.5915837904028685
v -4.2740003601617689 -4.9462233627203034 6.4487325255736474
v -2.7924423519956365 -4.4447104473991361 5.0619714992186404
v -3.2617457471163287 -4.7347558966194461 5.821320343559643
v -2.7158935170490266 -4.8115409556330233 5.2483648601531829
v -3.1265152367457709 -4.1572373647026852 5.240126323691344
v -2.9593190719088454 -4.9619862222666935 5.6422356816466719
v -3.3734859768416516 -4.3098736763086558 5.6397333753931953
v -3.5084731429544154 -6.3193033951206923 6.2205336559814164
v -3.5084731429544154 -5.380696604879307 6.2205336559814164
v -3.205529864298625 -6.0934255548598184 6.0406131121303801
v -3.8674274570334126 -6.0969707400958804 6.4389474787968979
v -3.205529864298625 -5.6065744451401809 6.0406131121303801
v -3.8674274570334126 -5.6030292599041189 6.4389474787968979
v -2.321118348440014 -5.8499999999999996 2.4899339541479071
v -2.0949319662683803 -5.8499999999999996 3.2861432736170988
v -2.2933348103049278 -5.4550338859438057 2.6253136195402633
v -2.2933348103049278 -6.2449661140561936 2.6253136195402633
v -2.321118348440014 -5.8499999999999996 4.9100660458520933
v -2.0949319662683803 -5.8499999999999996 4.1138567263829016
v -2.2933348103049278 -5.4550338859438057 4.7746863804597375
v -2.2933348103049278 -6.2449661140561936 4.7746863804597375
v -2.3932290395738622 -4.6914378432372228 2.9839692090412209
v -2.1031835903535527 -5.4507866875782254 3.4532726041619131
v -2.3175160865653188 -5.0577517480228025 2.7962233627203039
v -2.3273011333420688 -4.6511788448944458 3.4530292599041195
v -2.1670708199316486 -5.4516225695162923 3.0396489175801227
v -2.3932290395738622 -7.0085621567627765 2.9839692090412209
v -2.1031835903535527 -6.2492133124217739 3.4532726041619131
v -2.3175160865653188 -6.6422482519771968 2.7962233627203039
v -2.3273011333420688 -7.0488211551055535 3.4530292599041195
v -2.1670708199316486 -6.248377430483707 3.0396489175801227
v -2.3932290395738622 -4.6914378432372228 4.4160307909587795
v -2.1031835903535527 -5.4507866875782254 3.9467273958380873
v -2.3175160865653188 -5.0577517480228025 4.6037766372796964
v -2.3273011333420688 -4.6511788448944458 3.9469707400958809
v -2.1670708199316486 -5.4516225695162923 4.3603510824198777
v -2.1746648217360982 -5.0507858965962971 3.7000000000000002
v -2.3932290395738622 -7.0085621567627765 4.4160307909587795
v -2.1031835903535527 -6.2492133124217739 3.9467273958380873
v -2.3175160865653188 -6.6422482519771968 4.6037766372796964
v -2.3273011333420688 -7.0488211551055535 3.9469707400958809
v -2.1670708199316486 -6.248377430483707 4.3603510824198777
v -2.1746648217360982 -6.6492141034037022 3.7000000000000002
f 197 186 195
f 192 195 173
f 332 335 253
f 87 325 323
f 89 335 332
f 137 139 132
f 197 184 56
f 56 186 197
f 132 139 40
f 14 137 132
f 52 170 182
f 323 52 171
f 197 195 58
f 195 192 58
f 189 225 57
f 57 225 214
f 309 320 84
f 84 325 309
f 323 325 311
f 311 52 323
f 170 52 311
f 311 325 84
f 182 170 180
f 7 180 170
f 388 591 582
f 41 137 138
f 139 137 41
f 269 23 257
f 273 23 261
f 243 253 255
f 325 87 322
f 25 309 322
f 322 309 325
f 277 275 266
f 266 75 277
f 263 75 266
f 136 40 139
f 601 412 614
f 411 599 597
f 613 599 411
f 640 644 420
f 102 96 101
f 265 29 258
f 265 75 263
f 258 29 97
f 263 11 98
f 98 265 263
f 29 265 98
f 106 29 98
f 55 180 205
f 182 180 55
f 193 184 197
f 197 58 193
f 193 19 184
f 181 19 193
f 186 56 183
f 173 195 53
f 53 195 186
f 173 53 175
f 175 53 174
f 186 183 172
f 172 183 14
f 172 53 186
f 174 53 172
f 93 101 27
f 27 101 96
f 2 167 126
f 194 52 182
f 194 58 192
f 192 171 194
f 194 171 52
f 321 87 323
f 323 171 321
f 64 225 222
f 222 225 189
f 189 19 222
f 222 19 181
f 188 57 214
f 188 190 57
f 190 188 155
f 155 188 16
f 179 190 46
f 190 155 46
f 187 54 178
f 187 56 184
f 179 54 191
f 189 57 191
f 191 190 179
f 57 190 191
f 320 309 317
f 317 309 25
f 170 311 308
f 308 7 170
f 308 311 84
f 540 563 560
f 214 62 211
f 16 188 211
f 211 188 214
f 198 6 156
f 145 91 9
f 7 308 161
f 394 526 528
f 528 527 394
f 562 394 551
f 526 394 562
f 528 526 514
f 514 526 356
f 525 527 492
f 492 353 525
f 551 394 525
f 525 394 527
f 515 524 522
f 466 513 515
f 516 513 491
f 516 527 528
f 660 662 424
f 648 662 660
f 530 533 395
f 395 534 530
f 522 524 393
f 532 529 510
f 532 534 395
f 395 529 532
f 581 431 579
f 474 351 470
f 176 54 179
f 178 54 176
f 176 129 178
f 176 5 129
f 179 46 154
f 154 176 179
f 5 176 154
f 491 513 342
f 342 513 466
f 302 305 83
f 269 305 302
f 302 23 269
f 261 23 302
f 278 124 4
f 4 111 278
f 260 74 285
f 262 74 260
f 285 282 260
f 334 89 332
f 336 89 334
f 22 243 249
f 332 253 22
f 253 243 22
f 85 313 336
f 262 70 274
f 276 74 262
f 262 274 276
f 261 74 276
f 276 273 261
f 264 257 23
f 23 273 264
f 264 273 277
f 277 75 264
f 76 305 269
f 294 305 76
f 76 268 294
f 270 268 76
f 82 301 299
f 163 165 141
f 163 206 209
f 314 66 328
f 232 66 314
f 249 243 251
f 335 89 337
f 337 322 87
f 10 93 131
f 40 136 131
f 650 670 362
f 673 650 422
f 670 650 673
f 582 591 592
f 602 412 604
f 604 595 602
f 604 412 601
f 434 595 593
f 611 599 613
f 360 601 610
f 601 614 610
f 624 361 634
f 624 417 627
f 623 417 626
f 634 419 638
f 638 624 634
f 626 417 638
f 417 624 638
f 622 411 597
f 641 411 622
f 620 361 640
f 634 361 620
f 637 419 634
f 634 620 637
f 637 620 416
f 637 635 419
f 641 420 639
f 639 606 360
f 422 650 667
f 362 646 654
f 288 33 112
f 112 33 120
f 612 614 603
f 603 614 412
f 99 101 93
f 99 93 10
f 102 101 30
f 104 107 30
f 30 99 104
f 101 99 30
f 102 95 28
f 28 96 102
f 100 95 102
f 102 30 100
f 100 30 107
f 11 95 100
f 103 29 106
f 103 97 29
f 184 19 177
f 177 187 184
f 54 187 177
f 177 19 189
f 189 191 177
f 177 191 54
f 196 55 181
f 181 193 196
f 182 55 196
f 196 193 58
f 196 194 182
f 58 194 196
f 185 183 56
f 185 187 178
f 56 187 185
f 126 167 169
f 169 175 174
f 169 38 126
f 174 38 169
f 174 172 127
f 127 38 174
f 127 172 14
f 127 14 132
f 132 40 134
f 134 127 132
f 38 127 134
f 242 245 167
f 167 2 242
f 126 38 128
f 38 134 128
f 92 27 96
f 92 128 27
f 92 2 126
f 126 128 92
f 64 222 224
f 224 55 205
f 181 55 224
f 224 222 181
f 383 516 491
f 527 516 383
f 492 527 383
f 86 316 318
f 318 320 86
f 320 317 86
f 86 317 331
f 162 49 318
f 318 316 162
f 319 86 331
f 316 86 319
f 16 211 157
f 6 198 143
f 43 149 143
f 397 563 540
f 44 145 150
f 15 146 151
f 141 146 15
f 15 163 141
f 206 163 15
f 318 49 310
f 49 161 310
f 310 320 318
f 310 161 308
f 84 320 310
f 310 308 84
f 226 224 205
f 64 224 226
f 204 161 49
f 528 514 391
f 391 516 528
f 513 516 391
f 391 514 524
f 524 515 391
f 391 515 513
f 524 514 521
f 521 393 524
f 534 393 521
f 521 530 534
f 521 514 356
f 356 530 521
f 648 660 389
f 389 660 508
f 591 589 409
f 409 592 591
f 508 660 658
f 658 660 424
f 510 529 355
f 355 529 508
f 355 658 589
f 508 658 355
f 464 473 470
f 470 351 464
f 441 439 433
f 429 431 433
f 433 364 429
f 439 364 433
f 563 561 401
f 401 560 563
f 542 561 563
f 563 397 542
f 542 397 539
f 356 526 559
f 526 562 559
f 562 401 559
f 559 401 561
f 523 393 534
f 534 532 523
f 506 512 388
f 511 512 506
f 304 302 83
f 285 74 304
f 304 74 261
f 261 302 304
f 307 305 294
f 83 305 307
f 81 307 294
f 292 307 81
f 67 299 289
f 289 299 301
f 271 73 259
f 271 76 269
f 269 257 271
f 257 73 271
f 259 270 271
f 270 76 271
f 330 85 314
f 313 85 330
f 314 328 330
f 247 274 70
f 332 22 247
f 70 334 247
f 247 334 332
f 277 273 77
f 273 276 77
f 77 275 277
f 77 276 274
f 258 73 267
f 267 264 75
f 267 73 257
f 257 264 267
f 267 265 258
f 75 265 267
f 36 270 259
f 350 460 605
f 235 299 67
f 66 298 233
f 233 328 66
f 82 299 296
f 296 298 82
f 296 233 298
f 299 235 296
f 296 235 21
f 21 233 296
f 329 319 331
f 68 319 329
f 8 260 282
f 282 232 8
f 284 298 66
f 66 232 284
f 284 232 282
f 263 266 248
f 248 11 263
f 248 95 11
f 333 89 336
f 333 337 89
f 336 313 333
f 322 337 333
f 333 313 25
f 25 322 333
f 87 321 324
f 324 337 87
f 335 337 324
f 321 252 324
f 470 473 377
f 469 472 377
f 422 667 651
f 403 635 621
f 635 637 621
f 621 637 416
f 597 599 583
f 583 345 597
f 659 662 646
f 670 674 659
f 424 662 659
f 659 674 424
f 659 646 362
f 362 670 659
f 426 673 671
f 672 674 426
f 670 673 426
f 426 674 670
f 596 373 459
f 459 593 596
f 414 614 612
f 414 611 613
f 613 610 414
f 414 610 614
f 613 411 598
f 598 610 613
f 360 610 598
f 598 639 360
f 598 411 641
f 641 639 598
f 446 455 452
f 627 417 625
f 417 623 625
f 625 623 449
f 626 638 636
f 636 638 419
f 643 622 416
f 643 620 640
f 416 620 643
f 640 420 643
f 643 420 641
f 641 622 643
f 570 635 403
f 642 420 644
f 642 639 420
f 606 639 642
f 644 631 642
f 507 645 648
f 507 389 519
f 648 389 507
f 664 667 650
f 664 654 668
f 664 650 362
f 362 654 664
f 461 615 341
f 452 455 371
f 113 91 115
f 9 91 113
f 366 443 435
f 366 435 602
f 602 595 366
f 366 595 434
f 435 443 442
f 348 435 442
f 442 438 348
f 441 433 365
f 365 433 431
f 365 431 581
f 581 587 365
f 585 603 600
f 600 435 348
f 348 585 600
f 602 435 600
f 600 412 602
f 600 603 412
f 368 442 443
f 96 28 94
f 94 92 96
f 2 92 94
f 94 28 244
f 244 242 94
f 94 242 2
f 105 100 107
f 106 98 105
f 105 98 11
f 11 100 105
f 436 366 434
f 443 366 436
f 259 73 256
f 256 73 258
f 258 97 256
f 97 3 256
f 122 36 259
f 259 256 122
f 122 256 3
f 434 593 340
f 340 593 459
f 138 137 130
f 183 185 130
f 137 14 130
f 14 183 130
f 69 251 243
f 69 243 255
f 244 251 69
f 69 242 244
f 255 245 69
f 245 242 69
f 133 134 40
f 133 128 134
f 40 131 133
f 27 128 133
f 93 27 133
f 133 131 93
f 173 175 168
f 166 159 48
f 216 162 17
f 17 162 316
f 238 319 68
f 316 319 238
f 238 17 316
f 159 17 238
f 213 211 62
f 213 157 211
f 535 343 480
f 564 562 551
f 560 401 564
f 564 401 562
f 540 560 357
f 151 146 153
f 153 146 44
f 44 150 153
f 144 15 151
f 206 15 144
f 43 208 144
f 144 208 206
f 381 490 486
f 484 490 381
f 205 180 202
f 180 7 202
f 7 161 202
f 161 204 202
f 218 204 49
f 49 162 218
f 218 162 216
f 227 225 64
f 214 225 227
f 227 62 214
f 227 212 62
f 62 212 215
f 215 213 62
f 20 203 217
f 209 221 219
f 508 529 531
f 531 389 508
f 519 389 531
f 531 529 395
f 531 533 519
f 395 533 531
f 672 409 661
f 661 409 589
f 661 674 672
f 589 658 661
f 424 674 661
f 661 658 424
f 510 355 505
f 505 512 510
f 388 512 505
f 505 355 589
f 591 388 505
f 505 589 591
f 429 364 465
f 465 463 429
f 439 437 430
f 430 364 439
f 437 347 430
f 430 347 469
f 473 464 375
f 375 465 473
f 463 465 375
f 375 464 511
f 375 506 463
f 511 506 375
f 533 530 518
f 518 559 561
f 518 530 356
f 356 559 518
f 511 464 509
f 509 464 351
f 390 512 511
f 390 523 532
f 390 532 510
f 510 512 390
f 511 509 390
f 390 509 523
f 504 388 582
f 504 506 388
f 582 579 504
f 463 506 504
f 474 475 467
f 351 474 467
f 291 81 294
f 294 268 291
f 13 125 291
f 291 268 13
f 293 291 125
f 81 291 293
f 24 292 279
f 297 301 82
f 283 24 297
f 79 282 285
f 79 284 282
f 303 307 292
f 292 24 303
f 303 24 283
f 83 307 303
f 288 112 286
f 280 278 111
f 288 290 280
f 280 33 288
f 111 33 280
f 80 290 288
f 80 289 301
f 288 286 80
f 80 286 289
f 313 330 327
f 331 317 327
f 25 313 327
f 327 317 25
f 274 247 272
f 275 77 272
f 272 77 274
f 249 275 272
f 272 22 249
f 272 247 22
f 13 268 123
f 123 268 270
f 270 36 123
f 616 624 627
f 627 415 616
f 361 624 616
f 618 615 461
f 618 415 615
f 141 165 42
f 115 91 26
f 240 238 68
f 48 159 240
f 159 238 240
f 21 235 229
f 121 118 34
f 115 116 34
f 118 113 34
f 34 113 115
f 34 114 121
f 116 114 34
f 326 233 21
f 328 233 326
f 88 330 328
f 88 329 331
f 331 327 88
f 88 327 330
f 328 326 88
f 88 326 329
f 315 334 70
f 336 334 315
f 315 85 336
f 312 232 314
f 312 8 232
f 314 85 312
f 85 315 312
f 71 248 266
f 71 266 275
f 71 275 249
f 249 251 71
f 250 28 95
f 95 248 250
f 244 28 250
f 248 71 250
f 250 251 244
f 250 71 251
f 72 324 252
f 335 324 72
f 255 253 72
f 72 253 335
f 470 377 476
f 476 377 472
f 476 474 470
f 422 651 649
f 345 583 649
f 403 621 569
f 569 651 403
f 345 649 569
f 569 649 651
f 619 621 416
f 416 622 619
f 345 569 619
f 619 569 621
f 597 345 619
f 619 622 597
f 599 611 407
f 407 583 599
f 581 579 406
f 406 579 582
f 582 592 406
f 408 586 612
f 612 603 408
f 585 587 408
f 408 603 585
f 612 586 609
f 609 414 612
f 611 414 609
f 359 609 586
f 413 631 605
f 413 642 631
f 606 642 413
f 410 596 593
f 595 604 410
f 410 593 595
f 449 623 349
f 452 456 349
f 349 456 449
f 349 446 452
f 455 446 369
f 571 623 626
f 571 349 623
f 446 349 571
f 449 456 457
f 457 456 372
f 635 570 633
f 419 635 633
f 633 636 419
f 633 570 358
f 358 570 663
f 663 576 358
f 557 397 540
f 517 542 539
f 517 507 519
f 657 654 646
f 354 653 499
f 575 653 354
f 387 501 556
f 575 405 656
f 656 653 575
f 577 405 575
f 577 385 568
f 458 456 452
f 372 456 458
f 452 371 458
f 427 363 447
f 455 369 447
f 479 363 427
f 485 363 479
f 497 379 477
f 379 479 477
f 427 338 477
f 477 479 427
f 567 402 565
f 565 402 568
f 574 402 567
f 432 587 585
f 432 365 587
f 432 585 348
f 348 438 432
f 432 438 441
f 441 365 432
f 106 105 31
f 31 105 107
f 138 130 39
f 129 135 39
f 39 135 138
f 39 130 185
f 178 129 39
f 39 185 178
f 167 245 51
f 51 168 175
f 51 169 167
f 175 169 51
f 18 321 171
f 18 252 321
f 18 168 252
f 18 171 192
f 18 192 173
f 173 168 18
f 157 213 47
f 198 59 200
f 200 143 198
f 43 143 200
f 200 208 43
f 488 490 484
f 493 343 535
f 535 538 493
f 493 538 384
f 396 538 535
f 551 525 548
f 353 494 548
f 548 525 353
f 560 564 549
f 549 357 560
f 536 357 549
f 553 400 556
f 556 501 553
f 553 354 499
f 501 354 553
f 428 363 485
f 428 346 451
f 60 202 204
f 203 226 60
f 60 226 205
f 205 202 60
f 63 221 217
f 63 219 221
f 63 218 216
f 216 219 63
f 64 226 223
f 223 227 64
f 223 226 203
f 212 227 223
f 203 20 223
f 223 20 212
f 201 59 198
f 201 215 59
f 201 198 156
f 213 215 201
f 156 47 201
f 201 47 213
f 212 20 199
f 59 215 199
f 199 215 212
f 164 219 216
f 216 17 164
f 164 17 159
f 159 166 164
f 50 166 165
f 209 219 50
f 50 163 209
f 165 163 50
f 50 164 166
f 219 164 50
f 471 377 473
f 473 465 471
f 469 377 471
f 471 465 364
f 471 430 469
f 364 430 471
f 339 431 429
f 339 579 431
f 429 463 339
f 463 504 339
f 339 504 579
f 522 467 376
f 376 515 522
f 466 515 376
f 376 467 475
f 376 468 466
f 376 475 468
f 523 509 520
f 520 467 522
f 520 509 351
f 351 467 520
f 522 393 520
f 393 523 520
f 37 293 125
f 124 278 281
f 281 37 124
f 293 37 281
f 300 297 82
f 82 298 300
f 298 284 300
f 284 79 300
f 283 297 300
f 300 79 283
f 301 297 287
f 279 290 287
f 287 24 279
f 287 297 24
f 287 80 301
f 290 80 287
f 306 79 285
f 83 303 306
f 283 79 306
f 306 303 283
f 285 304 306
f 306 304 83
f 374 618 461
f 418 631 644
f 142 42 140
f 241 240 68
f 241 229 65
f 237 235 67
f 67 236 237
f 237 236 230
f 237 230 65
f 237 229 235
f 65 229 237
f 140 158 1
f 165 166 160
f 160 158 140
f 160 42 165
f 140 42 160
f 160 166 48
f 48 158 160
f 121 114 119
f 119 112 120
f 120 35 119
f 119 35 121
f 12 286 112
f 112 119 12
f 12 119 114
f 246 315 70
f 246 70 262
f 8 312 246
f 246 312 315
f 262 260 246
f 260 8 246
f 254 245 255
f 255 72 254
f 254 72 252
f 254 51 245
f 252 168 254
f 168 51 254
f 378 475 474
f 474 476 378
f 652 673 422
f 422 649 652
f 671 673 652
f 652 649 583
f 652 407 671
f 583 407 652
f 581 406 588
f 586 408 588
f 588 587 581
f 588 408 587
f 590 409 672
f 592 409 590
f 669 426 671
f 672 426 669
f 669 590 672
f 359 590 669
f 609 359 584
f 584 407 611
f 611 609 584
f 359 669 584
f 671 407 584
f 584 669 671
f 607 413 605
f 373 596 607
f 460 373 607
f 605 460 607
f 606 413 608
f 596 410 608
f 608 607 596
f 413 607 608
f 594 601 360
f 360 606 594
f 594 604 601
f 594 410 604
f 606 608 594
f 594 608 410
f 445 369 567
f 567 565 445
f 445 565 338
f 445 447 369
f 445 338 427
f 427 447 445
f 448 341 615
f 358 576 566
f 402 574 566
f 578 576 405
f 578 577 568
f 405 577 578
f 568 402 578
f 402 566 578
f 578 566 576
f 425 664 668
f 667 664 425
f 541 498 539
f 539 397 541
f 397 557 541
f 392 518 561
f 561 542 392
f 542 517 392
f 533 518 392
f 519 533 392
f 392 517 519
f 645 507 344
f 539 498 344
f 344 498 645
f 507 517 344
f 344 517 539
f 546 387 556
f 500 387 546
f 536 396 547
f 556 400 558
f 398 546 558
f 558 546 556
f 645 498 647
f 421 657 646
f 646 662 421
f 645 647 421
f 421 647 657
f 421 662 648
f 648 645 421
f 668 654 423
f 654 657 423
f 423 656 668
f 653 656 423
f 501 387 503
f 497 385 503
f 502 387 500
f 502 379 497
f 497 503 502
f 502 503 387
f 500 478 502
f 502 478 379
f 495 385 497
f 497 477 495
f 495 477 338
f 568 385 495
f 495 565 568
f 338 565 495
f 496 354 501
f 501 503 496
f 496 503 385
f 575 354 496
f 496 577 575
f 385 577 496
f 454 458 371
f 454 371 451
f 453 371 455
f 455 447 453
f 451 371 453
f 453 447 363
f 453 428 451
f 363 428 453
f 487 381 485
f 485 479 487
f 484 381 487
f 487 479 379
f 487 478 484
f 379 478 487
f 573 574 567
f 567 369 573
f 573 369 446
f 446 571 573
f 484 478 352
f 352 488 484
f 352 478 500
f 151 153 45
f 538 396 552
f 552 396 536
f 536 549 552
f 483 428 485
f 483 381 486
f 485 381 483
f 346 428 483
f 217 203 220
f 203 60 220
f 220 60 204
f 220 63 217
f 204 218 220
f 218 63 220
f 208 200 210
f 210 200 59
f 59 199 210
f 207 20 217
f 207 199 20
f 217 221 207
f 207 210 199
f 78 281 278
f 78 290 279
f 278 280 78
f 78 280 290
f 631 418 628
f 605 631 628
f 462 350 628
f 628 350 605
f 629 418 644
f 629 644 640
f 640 361 629
f 361 616 629
f 44 146 148
f 42 142 148
f 148 146 141
f 141 42 148
f 147 145 44
f 44 148 147
f 147 148 142
f 147 142 26
f 91 145 147
f 147 26 91
f 229 241 239
f 329 326 239
f 68 329 239
f 239 241 68
f 21 229 239
f 239 326 21
f 108 230 32
f 230 236 32
f 90 142 140
f 140 1 90
f 26 142 90
f 90 1 108
f 228 230 108
f 108 1 228
f 65 230 228
f 228 1 158
f 580 406 592
f 592 590 580
f 580 590 359
f 580 359 586
f 586 588 580
f 580 588 406
f 370 625 449
f 449 457 370
f 120 33 117
f 117 33 111
f 627 625 617
f 617 448 615
f 617 415 627
f 615 415 617
f 625 370 617
f 617 370 448
f 572 566 574
f 636 633 572
f 572 633 358
f 358 566 572
f 666 425 668
f 663 425 666
f 576 663 666
f 668 656 666
f 405 576 666
f 666 656 405
f 665 651 667
f 667 425 665
f 665 425 663
f 403 651 665
f 665 570 403
f 665 663 570
f 498 541 386
f 386 647 498
f 400 557 554
f 554 558 400
f 554 557 540
f 540 357 554
f 544 547 398
f 398 558 544
f 536 547 544
f 558 554 544
f 544 357 536
f 544 554 357
f 404 571 626
f 404 573 571
f 626 636 404
f 574 573 404
f 636 572 404
f 404 572 574
f 367 439 441
f 441 438 367
f 367 440 437
f 367 437 439
f 500 546 543
f 543 352 500
f 543 546 398
f 490 488 382
f 151 45 152
f 152 149 43
f 43 144 152
f 152 144 151
f 538 552 550
f 384 538 550
f 550 494 384
f 550 548 494
f 399 549 564
f 399 552 549
f 399 564 551
f 399 550 552
f 551 548 399
f 548 550 399
f 61 221 209
f 208 210 61
f 209 206 61
f 206 208 61
f 61 207 221
f 210 207 61
f 279 292 295
f 295 78 279
f 281 78 295
f 292 81 295
f 81 293 295
f 293 281 295
f 630 374 462
f 462 628 630
f 618 374 630
f 630 628 418
f 632 616 415
f 632 629 616
f 415 618 632
f 418 629 632
f 618 630 632
f 632 630 418
f 109 32 236
f 109 12 114
f 109 114 116
f 116 32 109
f 115 26 110
f 26 90 110
f 110 116 115
f 110 90 108
f 108 32 110
f 110 32 116
f 231 241 65
f 65 228 231
f 240 241 231
f 231 228 158
f 48 240 231
f 231 158 48
f 450 370 457
f 448 370 450
f 555 553 499
f 499 386 555
f 555 386 541
f 400 553 555
f 555 557 400
f 555 541 557
f 499 653 655
f 655 386 499
f 647 386 655
f 653 423 655
f 657 647 655
f 655 423 657
f 444 367 438
f 440 367 444
f 438 442 444
f 442 368 444
f 398 547 545
f 545 543 398
f 489 382 488
f 234 109 236
f 67 289 234
f 234 236 67
f 289 286 234
f 286 12 234
f 12 109 234
f 535 480 537
f 537 545 547
f 537 396 535
f 537 547 396
f 543 545 481
f 481 489 488
f 488 352 481
f 352 543 481
f 380 481 545
f 380 537 480
f 545 537 380
f 489 481 380
f 480 482 380
f 482 489 380
f 135 129 466
f 466 468 135
f 155 353 492
f 16 353 155
f 5 154 342
f 342 154 491
f 466 129 342
f 129 5 342
f 472 131 136
f 469 131 472
f 491 154 383
f 383 154 46
f 383 155 492
f 383 46 155
f 475 135 468
f 138 135 475
f 350 462 125
f 350 125 13
f 124 461 341
f 4 124 341
f 97 103 436
f 434 97 436
f 106 443 436
f 436 103 106
f 373 36 122
f 459 373 122
f 340 97 434
f 340 3 97
f 459 122 340
f 340 122 3
f 480 343 6
f 6 143 480
f 494 353 16
f 16 157 494
f 486 490 153
f 153 150 486
f 346 113 451
f 9 113 346
f 347 437 99
f 347 99 10
f 347 131 469
f 10 131 347
f 123 350 13
f 460 350 123
f 123 36 373
f 123 373 460
f 476 472 136
f 476 136 139
f 457 35 120
f 372 35 457
f 458 35 372
f 121 35 458
f 31 443 106
f 31 368 443
f 47 494 157
f 384 494 47
f 6 343 493
f 156 6 493
f 384 47 493
f 493 47 156
f 374 461 124
f 124 37 374
f 125 462 374
f 374 37 125
f 138 475 378
f 378 41 138
f 378 476 139
f 139 41 378
f 448 111 4
f 4 341 448
f 121 458 454
f 454 118 121
f 454 113 118
f 451 113 454
f 99 437 440
f 104 99 440
f 482 480 143
f 482 143 149
f 483 150 145
f 486 150 483
f 9 346 483
f 483 145 9
f 382 153 490
f 382 45 153
f 450 457 120
f 120 117 450
f 111 448 450
f 450 117 111
f 444 107 104
f 104 440 444
f 368 31 444
f 444 31 107
f 489 482 149
f 149 152 489
f 45 382 489
f 489 152 45
