v -1.5781933363574008 -9.1480475749438792 3.7000000000000002
v -1.5781933363574008 -14.251952425056119 3.7000000000000002
v -0.001 -13.277193336357399 6.2519524250561203
v -0.001 -10.122806663642599 6.2519524250561203
v -0.001 -13.277193336357399 1.1480475749438801
v -0.001 -10.122806663642599 1.1480475749438801
v -2.55295242505612 -11.699999999999999 2.1228066636425993
v -2.55295242505612 -11.699999999999999 5.2771933363574011
v -0.001 -8.6999999999999993 3.7000000000000002
v -0.001 -14.699999999999999 3.7000000000000002
v -0.92805098312484235 -14.127050983124843 5.2000000000000011
v -0.92805098312484235 -9.272949016875156 5.2000000000000011
v -0.001 -11.699999999999999 6.7000000000000002
v -0.92805098312484235 -14.127050983124843 2.1999999999999997
v -0.92805098312484235 -9.272949016875156 2.1999999999999997
v -0.001 -11.699999999999999 0.70000000000000018
v -2.4280509831248422 -10.199999999999999 2.7729490168751578
v -2.4280509831248422 -13.199999999999999 2.7729490168751578
v -1.5010000000000003 -12.627050983124843 1.2729490168751578
v -1.5010000000000003 -10.772949016875156 1.2729490168751578
v -2.4280509831248422 -10.199999999999999 4.6270509831248425
v -2.4280509831248422 -13.199999999999999 4.6270509831248425
v -1.5010000000000003 -12.627050983124843 6.1270509831248425
v -1.5010000000000003 -10.772949016875156 6.1270509831248425
v -3.0009999999999999 -11.699999999999999 3.7000000000000002
v -0.82079958673801523 -8.814184926648247 3.7000000000000002
v -0.82079958673801523 -14.585815073351752 3.7000000000000002
v -1.302665693658084 -14.288005441248558 4.4796757390232633
v -0.48286610692006943 -13.781341432681348 5.8061393343284893
v -0.48837954434935943 -14.55316954888546 4.4885966681787011
v -0.001 -14.251952425056119 5.2771933363574011
v -1.302665693658084 -9.1119945587514408 4.4796757390232633
v -0.48286610692006943 -9.6186585673186507 5.8061393343284893
v -0.48837954434935943 -8.8468304511145384 4.4885966681787011
v -0.001 -9.1480475749438792 5.2771933363574011
v -0.001 -12.519799586738014 6.5858150733517533
v -0.001 -10.880200413261985 6.5858150733517533
v -1.302665693658084 -14.288005441248558 2.920324260976737
v -0.48286610692006943 -13.781341432681348 1.5938606656715111
v -0.48837954434935943 -14.55316954888546 2.9114033318212997
v -0.001 -14.251952425056119 2.1228066636425993
v -1.302665693658084 -9.1119945587514408 2.920324260976737
v -0.48286610692006943 -9.6186585673186507 1.5938606656715111
v -0.48837954434935943 -8.8468304511145384 2.9114033318212997
v -0.001 -9.1480475749438792 2.1228066636425993
v -0.001 -12.519799586738014 0.81418492664824749
v -0.001 -10.880200413261985 0.81418492664824749
v -2.0823414326813476 -9.5938606656715102 3.2181338930799308
v -2.5890054412485584 -10.920324260976736 2.3983343063419156
v -1.7643557568774195 -9.6354271192932384 2.4240237874719401
v -2.0823414326813476 -13.806139334328488 3.2181338930799308
v -2.5890054412485584 -12.479675739023262 2.3983343063419156
v -1.7643557568774195 -13.76457288070676 2.4240237874719401
v -0.78067573902326337 -13.001665693658083 1.1119945587514417
v -2.107139334328489 -12.181866106920069 1.6186585673186529
v -1.2769762125280599 -13.463355756877419 1.6354271192932397
v -0.78959666817870056 -12.187379544349358 0.84683045111453925
v -2.0655728807067604 -12.97597621252806 1.9366442431225808
v -0.78067573902326337 -10.398334306341916 1.1119945587514417
v -2.107139334328489 -11.21813389307993 1.6186585673186529
v -1.2769762125280599 -9.9366442431225792 1.6354271192932397
v -0.78959666817870056 -11.21262045565064 0.84683045111453925
v -2.0655728807067604 -10.424023787471938 1.9366442431225808
v -1.578193336357401 -11.699999999999999 1.1480475749438805
v -2.0823414326813476 -9.5938606656715102 4.1818661069200695
v -2.5890054412485584 -10.920324260976736 5.0016656936580848
v -1.7643557568774195 -9.6354271192932384 4.9759762125280602
v -2.5529524250561195 -10.122806663642598 3.7000000000000002
v -2.0823414326813476 -13.806139334328488 4.1818661069200695
v -2.5890054412485584 -12.479675739023262 5.0016656936580848
v -1.7643557568774195 -13.76457288070676 4.9759762125280602
v -2.5529524250561195 -13.277193336357401 3.7000000000000002
v -0.78067573902326337 -13.001665693658083 6.2880054412485586
v -2.107139334328489 -12.181866106920069 5.7813414326813479
v -1.2769762125280599 -13.463355756877419 5.7645728807067602
v -0.78959666817870056 -12.187379544349358 6.5531695488854611
v -2.0655728807067604 -12.97597621252806 5.4633557568774194
v -0.78067573902326337 -10.398334306341916 6.2880054412485586
v -2.107139334328489 -11.21813389307993 5.7813414326813479
v -1.2769762125280599 -9.9366442431225792 5.7645728807067602
v -0.78959666817870056 -11.21262045565064 6.5531695488854611
v -2.0655728807067604 -10.424023787471938 5.4633557568774194
v -1.578193336357401 -11.699999999999999 6.2519524250561194
v -2.8868150733517526 -11.699999999999999 2.8802004132619849
v -2.8868150733517526 -11.699999999999999 4.5197995867380154
v -2.8541695488854608 -10.911403331821299 3.2126204556506406
v -2.8541695488854608 -12.488596668178699 3.2126204556506406
v -2.8541695488854608 -10.911403331821299 4.1873795443493602
v -2.8541695488854608 -12.488596668178699 4.1873795443493602
v -1.211066045852093 -8.9548697363010472 3.7000000000000002
v -0.41485672638290116 -8.728683354129414 3.7000000000000002
v -1.211066045852093 -14.445130263698951 3.7000000000000002
v -0.41485672638290116 -14.671316645870585 3.7000000000000002
v -1.4543249261820035 -14.294788007589823 4.0936011364390383
v -1.1261157024346289 -14.23173442386717 4.8508411980551438
v -1.0756863804597367 -14.472913801834038 4.0949661140561942
v -0.24425888032991053 -13.546926062621042 6.0515291272599141
v -0.71225897605172783 -13.975956900489772 5.5204754478154427
v -0.24772739583808684 -14.663065021785412 4.0992133124217744
v -0.71703079095877953 -14.373019572565102 4.8585621567627761
v -0.66135108241987717 -14.599177792207318 4.0983774304837075
v -0.90477663727969604 -14.448732525573647 4.4922482519771965
v -0.001 -13.808721091463319 5.8338452048866491
v -0.001 -14.591583790402867 4.4992141034037019
v -0.47030339512069264 -14.220533655981416 5.2577754691845504
v -0.24442555485981887 -14.04061311213038 5.5607187478403413
v -0.24797074009588049 -14.438947478796896 4.8988211551055532
v -1.4543249261820035 -9.105211992410176 4.0936011364390383
v -1.1261157024346289 -9.1682655761328284 4.8508411980551438
v -1.0756863804597367 -8.9270861981659611 4.0949661140561942
v -0.24425888032991053 -9.8530739373789569 6.0515291272599141
v -0.71225897605172783 -9.4240430995102269 5.5204754478154427
v -0.24772739583808684 -8.7369349782145864 4.0992133124217744
v -0.71703079095877953 -9.0269804274348964 4.8585621567627761
v -0.66135108241987717 -8.800822207792681 4.0983774304837075
v -0.90477663727969604 -8.9512674744263521 4.4922482519771965
v -0.001 -9.5912789085366796 5.8338452048866491
v -0.001 -8.8084162095971319 4.4992141034037019
v -0.47030339512069264 -9.1794663440185822 5.2577754691845504
v -0.24442555485981887 -9.3593868878696185 5.5607187478403413
v -0.24797074009588049 -8.9610525212031025 4.8988211551055532
v -0.001 -12.910066045852092 6.4451302636989523
v -0.001 -12.113856726382901 6.6713166458705864
v -0.001 -10.489933954147906 6.4451302636989523
v -0.001 -11.286143273617098 6.6713166458705864
v -1.4543249261820035 -14.294788007589823 3.3063988635609616
v -1.1261157024346289 -14.23173442386717 2.5491588019448566
v -1.0756863804597367 -14.472913801834038 3.3050338859438062
v -0.24425888032991053 -13.546926062621042 1.3484708727400863
v -0.71225897605172783 -13.975956900489772 1.8795245521845576
v -0.24772739583808684 -14.663065021785412 3.3007866875782264
v -0.71703079095877953 -14.373019572565102 2.5414378432372238
v -0.66135108241987717 -14.599177792207318 3.3016225695162928
v -0.90477663727969604 -14.448732525573647 2.9077517480228039
v -0.001 -13.808721091463319 1.5661547951133512
v -0.001 -14.591583790402867 2.900785896596298
v -0.47030339512069264 -14.220533655981416 2.1422245308154499
v -0.24442555485981887 -14.04061311213038 1.8392812521596591
v -0.24797074009588049 -14.438947478796896 2.5011788448944468
v -1.4543249261820035 -9.105211992410176 3.3063988635609616
v -1.1261157024346289 -9.1682655761328284 2.5491588019448566
v -1.0756863804597367 -8.9270861981659611 3.3050338859438062
v -0.24425888032991053 -9.8530739373789569 1.3484708727400863
v -0.71225897605172783 -9.4240430995102269 1.8795245521845576
v -0.24772739583808684 -8.7369349782145864 3.3007866875782264
v -0.71703079095877953 -9.0269804274348964 2.5414378432372238
v -0.66135108241987717 -8.800822207792681 3.3016225695162928
v -0.90477663727969604 -8.9512674744263521 2.9077517480228039
v -0.001 -9.5912789085366796 1.5661547951133512
v -0.001 -8.8084162095971319 2.900785896596298
v -0.47030339512069264 -9.1794663440185822 2.1422245308154499
v -0.24442555485981887 -9.3593868878696185 1.8392812521596591
v -0.24797074009588049 -8.9610525212031025 2.5011788448944468
v -0.001 -12.910066045852092 0.9548697363010481
v -0.001 -12.113856726382901 0.72868335412941443
v -0.001 -10.489933954147906 0.9548697363010481
v -0.001 -11.286143273617098 0.72868335412941443
v -1.8479260626210416 -9.3484708727400854 3.4567411196700895
v -2.2769569004897718 -9.8795245521845558 2.9887410239482723
v -1.7147549774071258 -9.322052312222155 3.0609314030526109
v -2.5957880075898241 -11.306398863560961 2.2466750738179968
v -2.5327344238671703 -10.549158801944856 2.5748842975653714
v -1.3629714992186404 -9.4261937398566698 2.2947104473991371
v -2.1223203435596423 -9.8954971349773615 2.5847558966194466
v -1.5493648601531829 -9.3496449049100594 2.6615409556330238
v -1.943235681646672 -9.5930704597698782 2.811986222266694
v -1.8479260626210416 -14.051529127259913 3.4567411196700895
v -2.2769569004897718 -13.520475447815443 2.9887410239482723
v -1.7147549774071258 -14.077947687777844 3.0609314030526109
v -2.5957880075898241 -12.093601136439037 2.2466750738179968
v -2.5327344238671703 -12.850841198055143 2.5748842975653714
v -1.3629714992186404 -13.973806260143329 2.2947104473991371
v -2.1223203435596423 -13.504502865022637 2.5847558966194466
v -1.5493648601531829 -14.050355095089939 2.6615409556330238
v -1.943235681646672 -13.80692954023012 2.811986222266694
v -0.3946011364390386 -13.153324926182004 1.105211992410176
v -1.1518411980551435 -12.825115702434628 1.1682655761328298
v -0.64006859694738938 -13.413754977407125 1.3220523122221559
v -0.39596611405619386 -12.774686380459736 0.92708619816596194
v -2.3525291272599138 -11.94325888032991 1.8530739373789584
v -1.8214754478154425 -12.411258976051727 1.4240430995102282
v -2.3789476877778442 -12.339068596947389 1.9862450225928743
v -1.1162441033805532 -13.821320343559641 1.8954971349773628
v -1.4062895526008632 -13.06197149921864 1.4261937398566706
v -0.88901377773330603 -13.642235681646671 1.5930704597698795
v -1.5411263236913437 -13.639733375393195 2.0072373647026858
v -1.0394590443669762 -13.248364860153183 1.3496449049100607
v -0.40021331242177405 -11.946727395838087 0.73693497821458687
v -1.1595621567627763 -12.416030790958779 1.0269804274348964
v -0.39937743048370739 -12.360351082419877 0.80082220779268276
v -0.79324825197719684 -12.603776637279696 0.95126747442635295
v -2.2748062601433294 -13.105289552600862 2.3380285007813599
v -1.8055028650226372 -12.815244103380554 1.5786796564403578
v -2.3513550950899393 -12.738459044366977 2.151635139846817
v -1.940733375393195 -13.392762635297313 2.1598736763086563
v -2.1079295402301206 -12.588013777733305 1.7577643183533282
v -1.6937626352973143 -13.240126323691342 1.7602666246068051
v -0.3946011364390386 -10.246675073817995 1.105211992410176
v -1.1518411980551435 -10.574884297565371 1.1682655761328298
v -0.64006859694738938 -9.9862450225928736 1.3220523122221559
v -0.39596611405619386 -10.625313619540263 0.92708619816596194
v -2.3525291272599138 -11.456741119670088 1.8530739373789584
v -1.8214754478154425 -10.988741023948272 1.4240430995102282
v -2.3789476877778442 -11.06093140305261 1.9862450225928743
v -2.1348452048866489 -11.699999999999999 1.5912789085366805
v -1.1162441033805532 -9.5786796564403573 1.8954971349773628
v -1.4062895526008632 -10.338028500781359 1.4261937398566706
v -0.88901377773330603 -9.7577643183533276 1.5930704597698795
v -1.5411263236913437 -9.7602666246068033 2.0072373647026858
v -1.0394590443669762 -10.151635139846816 1.3496449049100607
v -0.40021331242177405 -11.453272604161912 0.73693497821458687
v -1.1595621567627763 -10.98396920904122 1.0269804274348964
v -0.39937743048370739 -11.039648917580122 0.80082220779268276
v -0.80021410340370236 -11.699999999999999 0.80841620959713234
v -0.79324825197719684 -10.796223362720303 0.95126747442635295
v -2.2748062601433294 -10.294710447399137 2.3380285007813599
v -1.8055028650226372 -10.584755896619445 1.5786796564403578
v -2.3513550950899393 -10.661540955633022 2.151635139846817
v -1.940733375393195 -10.007237364702686 2.1598736763086563
v -2.1079295402301206 -10.811986222266693 1.7577643183533282
v -1.6937626352973143 -10.159873676308656 1.7602666246068051
v -1.5587754691845506 -12.169303395120693 1.179466344018584
v -1.5587754691845506 -11.230696604879306 1.179466344018584
v -1.861718747840341 -11.943425554859818 1.3593868878696203
v -1.1998211551055533 -11.94697074009588 0.96105252120310292
v -1.861718747840341 -11.456574445140181 1.3593868878696203
v -1.1998211551055533 -11.453029259904119 0.96105252120310292
v -1.8479260626210416 -9.3484708727400854 3.9432588803299109
v -2.2769569004897718 -9.8795245521845558 4.4112589760517285
v -1.7147549774071258 -9.322052312222155 4.3390685969473894
v -2.1097210914633195 -9.5661547951133503 3.7000000000000002
v -2.5957880075898241 -11.306398863560961 5.1533249261820036
v -2.5327344238671703 -10.549158801944856 4.825115702434629
v -1.3629714992186404 -9.4261937398566698 5.1052895526008637
v -2.1223203435596423 -9.8954971349773615 4.8152441033805538
v -1.5493648601531829 -9.3496449049100594 4.7384590443669765
v -1.943235681646672 -9.5930704597698782 4.5880137777333063
v -2.5215336559814161 -10.142224530815449 3.2306966048793075
v -2.5215336559814161 -10.142224530815449 4.1693033951206928
v -2.3416131121303798 -9.8392812521596582 3.4565744451401814
v -2.3416131121303798 -9.8392812521596582 3.9434255548598189
v -1.8479260626210416 -14.051529127259913 3.9432588803299109
v -2.2769569004897718 -13.520475447815443 4.4112589760517285
v -1.7147549774071258 -14.077947687777844 4.3390685969473894
v -2.1097210914633195 -13.833845204886648 3.7000000000000002
v -2.5957880075898241 -12.093601136439037 5.1533249261820036
v -2.5327344238671703 -12.850841198055143 4.825115702434629
v -1.3629714992186404 -13.973806260143329 5.1052895526008637
v -2.1223203435596423 -13.504502865022637 4.8152441033805538
v -1.5493648601531829 -14.050355095089939 4.7384590443669765
v -1.943235681646672 -13.80692954023012 4.5880137777333063
v -2.5215336559814161 -13.25777546918455 3.2306966048793075
v -2.5215336559814161 -13.25777546918455 4.1693033951206928
v -2.3416131121303798 -13.56071874784034 3.4565744451401814
v -2.3416131121303798 -13.56071874784034 3.9434255548598189
v -0.3946011364390386 -13.153324926182004 6.2947880075898244
v -1.1518411980551435 -12.825115702434628 6.2317344238671701
v -0.64006859694738938 -13.413754977407125 6.0779476877778444
v -0.39596611405619386 -12.774686380459736 6.4729138018340384
v -2.3525291272599138 -11.94325888032991 5.5469260626210417
v -1.8214754478154425 -12.411258976051727 5.9759569004897717
v -2.3789476877778442 -12.339068596947389 5.4137549774071259
v -1.1162441033805532 -13.821320343559641 5.5045028650226371
v -1.4062895526008632 -13.06197149921864 5.9738062601433297
v -0.88901377773330603 -13.642235681646671 5.8069295402301204
v -1.5411263236913437 -13.639733375393195 5.3927626352973146
v -1.0394590443669762 -13.248364860153183 6.0503550950899392
v -0.40021331242177405 -11.946727395838087 6.6630650217854139
v -1.1595621567627763 -12.416030790958779 6.373019572565104
v -0.39937743048370739 -12.360351082419877 6.5991777922073176
v -0.79324825197719684 -12.603776637279696 6.4487325255736474
v -2.2748062601433294 -13.105289552600862 5.0619714992186404
v -1.8055028650226372 -12.815244103380554 5.821320343559643
v -2.3513550950899393 -12.738459044366977 5.2483648601531829
v -1.940733375393195 -13.392762635297313 5.240126323691344
v -2.1079295402301206 -12.588013777733305 5.6422356816466719
v -1.6937626352973143 -13.240126323691342 5.6397333753931953
v -0.3946011364390386 -10.246675073817995 6.2947880075898244
v -1.1518411980551435 -10.574884297565371 6.2317344238671701
v -0.64006859694738938 -9.9862450225928736 6.0779476877778444
v -0.39596611405619386 -10.625313619540263 6.4729138018340384
v -2.3525291272599138 -11.456741119670088 5.5469260626210417
v -1.8214754478154425 -10.988741023948272 5.9759569004897717
v -2.3789476877778442 -11.06093140305261 5.4137549774071259
v -2.1348452048866489 -11.699999999999999 5.8087210914633198
v -1.1162441033805532 -9.5786796564403573 5.5045028650226371
v -1.4062895526008632 -10.338028500781359 5.9738062601433297
v -0.88901377773330603 -9.7577643183533276 5.8069295402301204
v -1.5411263236913437 -9.7602666246068033 5.3927626352973146
v -1.0394590443669762 -10.151635139846816 6.0503550950899392
v -0.40021331242177405 -11.453272604161912 6.6630650217854139
v -1.1595621567627763 -10.98396920904122 6.373019572565104
v -0.39937743048370739 -11.039648917580122 6.5991777922073176
v -0.80021410340370236 -11.699999999999999 6.5915837904028685
v -0.79324825197719684 -10.796223362720303 6.4487325255736474
v -2.2748062601433294 -10.294710447399137 5.0619714992186404
v -1.8055028650226372 -10.584755896619445 5.821320343559643
v -2.3513550950899393 -10.661540955633022 5.2483648601531829
v -1.940733375393195 -10.007237364702686 5.240126323691344
v -2.1079295402301206 -10.811986222266693 5.6422356816466719
v -1.6937626352973143 -10.159873676308656 5.6397333753931953
v -1.5587754691845506 -12.169303395120693 6.2205336559814164
v -1.5587754691845506 -11.230696604879306 6.2205336559814164
v -1.861718747840341 -11.943425554859818 6.0406131121303801
v -1.1998211551055533 -11.94697074009588 6.4389474787968979
v -1.861718747840341 -11.456574445140181 6.0406131121303801
v -1.1998211551055533 -11.453029259904119 6.4389474787968979
v -2.746130263698952 -11.699999999999999 2.4899339541479071
v -2.9723166458705856 -11.699999999999999 3.2861432736170988
v -2.7739138018340381 -11.305033885943805 2.6253136195402633
v -2.7739138018340381 -12.094966114056193 2.6253136195402633
v -2.746130263698952 -11.699999999999999 4.9100660458520933
v -2.9723166458705856 -11.699999999999999 4.1138567263829016
v -2.7739138018340381 -11.305033885943805 4.7746863804597375
v -2.7739138018340381 -12.094966114056193 4.7746863804597375
v -2.6740195725651037 -10.541437843237222 2.9839692090412209
v -2.9640650217854132 -11.300786687578226 3.4532726041619131
v -2.7497325255736471 -10.907751748022802 2.7962233627203039
v -2.7399474787968972 -10.501178844894445 3.4530292599041195
v -2.9001777922073173 -11.301622569516292 3.0396489175801227
v -2.6740195725651037 -12.858562156762776 2.9839692090412209
v -2.9640650217854132 -12.099213312421773 3.4532726041619131
v -2.7497325255736471 -12.492248251977196 2.7962233627203039
v -2.7399474787968972 -12.898821155105553 3.4530292599041195
v -2.9001777922073173 -12.098377430483707 3.0396489175801227
v -2.6740195725651037 -10.541437843237222 4.4160307909587795
v -2.9640650217854132 -11.300786687578226 3.9467273958380873
v -2.7497325255736471 -10.907751748022802 4.6037766372796964
v -2.7399474787968972 -10.501178844894445 3.9469707400958809
v -2.9001777922073173 -11.301622569516292 4.3603510824198777
v -2.8925837904028677 -10.900785896596297 3.7000000000000002
v -2.6740195725651037 -12.858562156762776 4.4160307909587795
v -2.9640650217854132 -12.099213312421773 3.9467273958380873
v -2.7497325255736471 -12.492248251977196 4.6037766372796964
v -2.7399474787968972 -12.898821155105553 3.9469707400958809
v -2.9001777922073173 -12.098377430483707 4.3603510824198777
v -2.8925837904028677 -12.499214103403702 3.7000000000000002
v 1.5781933363574008 -9.1480475749438792 3.7000000000000002
v 1.5781933363574008 -14.251952425056119 3.7000000000000002
v 0.001 -13.277193336357399 6.2519524250561203
v 0.001 -10.122806663642599 6.2519524250561203
v 0.001 -13.277193336357399 1.1480475749438801
v 0.001 -10.122806663642599 1.1480475749438801
v 2.55295242505612 -11.699999999999999 2.1228066636425993
v 2.55295242505612 -11.699999999999999 5.2771933363574011
v 0.001 -8.6999999999999993 3.7000000000000002
v 0.001 -14.699999999999999 3.7000000000000002
v 0.92805098312484235 -14.127050983124843 5.2000000000000011
v 0.92805098312484235 -9.272949016875156 5.2000000000000011
v 0.001 -11.699999999999999 6.7000000000000002
v 0.92805098312484235 -14.127050983124843 2.1999999999999997
v 0.92805098312484235 -9.272949016875156 2.1999999999999997
v 0.001 -11.699999999999999 0.70000000000000018
v 2.4280509831248422 -10.199999999999999 2.7729490168751578
v 2.4280509831248422 -13.199999999999999 2.7729490168751578
v 1.5010000000000003 -12.627050983124843 1.2729490168751578
v 1.5010000000000003 -10.772949016875156 1.2729490168751578
v 2.4280509831248422 -10.199999999999999 4.6270509831248425
v 2.4280509831248422 -13.199999999999999 4.6270509831248425
v 1.5010000000000003 -12.627050983124843 6.1270509831248425
v 1.5010000000000003 -10.772949016875156 6.1270509831248425
v 3.0009999999999999 -11.699999999999999 3.7000000000000002
v 0.82079958673801523 -8.814184926648247 3.7000000000000002
v 0.82079958673801523 -14.585815073351752 3.7000000000000002
v 1.302665693658084 -14.288005441248558 4.4796757390232633
v 0.48286610692006943 -13.781341432681348 5.8061393343284893
v 0.48837954434935943 -14.55316954888546 4.4885966681787011
v 0.001 -14.251952425056119 5.2771933363574011
v 1.302665693658084 -9.1119945587514408 4.4796757390232633
v 0.48286610692006943 -9.6186585673186507 5.8061393343284893
v 0.48837954434935943 -8.8468304511145384 4.4885966681787011
v 0.001 -9.1480475749438792 5.2771933363574011
v 0.001 -12.519799586738014 6.5858150733517533
v 0.001 -10.880200413261985 6.5858150733517533
v 1.302665693658084 -14.288005441248558 2.920324260976737
v 0.48286610692006943 -13.781341432681348 1.5938606656715111
v 0.48837954434935943 -14.55316954888546 2.9114033318212997
v 0.001 -14.251952425056119 2.1228066636425993
v 1.302665693658084 -9.1119945587514408 2.920324260976737
v 0.48286610692006943 -9.6186585673186507 1.5938606656715111
v 0.48837954434935943 -8.8468304511145384 2.9114033318212997
v 0.001 -9.1480475749438792 2.1228066636425993
v 0.001 -12.519799586738014 0.81418492664824749
v 0.001 -10.880200413261985 0.81418492664824749
v 2.0823414326813476 -9.5938606656715102 3.2181338930799308
v 2.5890054412485584 -10.920324260976736 2.3983343063419156
v 1.7643557568774195 -9.6354271192932384 2.4240237874719401
v 2.0823414326813476 -13.806139334328488 3.2181338930799308
v 2.5890054412485584 -12.479675739023262 2.3983343063419156
v 1.7643557568774195 -13.76457288070676 2.4240237874719401
v 0.78067573902326337 -13.001665693658083 1.1119945587514417
v 2.107139334328489 -12.181866106920069 1.6186585673186529
v 1.2769762125280599 -13.463355756877419 1.6354271192932397
v 0.78959666817870056 -12.187379544349358 0.84683045111453925
v 2.0655728807067604 -12.97597621252806 1.9366442431225808
v 0.78067573902326337 -10.398334306341916 1.1119945587514417
v 2.107139334328489 -11.21813389307993 1.6186585673186529
v 1.2769762125280599 -9.9366442431225792 1.6354271192932397
v 0.78959666817870056 -11.21262045565064 0.84683045111453925
v 2.0655728807067604 -10.424023787471938 1.9366442431225808
v 1.578193336357401 -11.699999999999999 1.1480475749438805
v 2.0823414326813476 -9.5938606656715102 4.1818661069200695
v 2.5890054412485584 -10.920324260976736 5.0016656936580848
v 1.7643557568774195 -9.6354271192932384 4.9759762125280602
v 2.5529524250561195 -10.122806663642598 3.7000000000000002
v 2.0823414326813476 -13.806139334328488 4.1818661069200695
v 2.5890054412485584 -12.479675739023262 5.0016656936580848
v 1.7643557568774195 -13.76457288070676 4.9759762125280602
v 2.5529524250561195 -13.277193336357401 3.7000000000000002
v 0.78067573902326337 -13.001665693658083 6.2880054412485586
v 2.107139334328489 -12.181866106920069 5.7813414326813479
v 1.2769762125280599 -13.463355756877419 5.7645728807067602
v 0.78959666817870056 -12.187379544349358 6.5531695488854611
v 2.0655728807067604 -12.97597621252806 5.4633557568774194
v 0.78067573902326337 -10.398334306341916 6.2880054412485586
v 2.107139334328489 -11.21813389307993 5.7813414326813479
v 1.2769762125280599 -9.9366442431225792 5.7645728807067602
v 0.78959666817870056 -11.21262045565064 6.5531695488854611
v 2.0655728807067604 -10.424023787471938 5.4633557568774194
v 1.578193336357401 -11.699999999999999 6.2519524250561194
v 2.8868150733517526 -11.699999999999999 2.8802004132619849
v 2.8868150733517526 -11.699999999999999 4.5197995867380154
v 2.8541695488854608 -10.911403331821299 3.2126204556506406
v 2.8541695488854608 -12.488596668178699 3.2126204556506406
v 2.8541695488854608 -10.911403331821299 4.1873795443493602
v 2.8541695488854608 -12.488596668178699 4.1873795443493602
v 1.211066045852093 -8.9548697363010472 3.7000000000000002
v 0.41485672638290116 -8.728683354129414 3.7000000000000002
v 1.211066045852093 -14.445130263698951 3.7000000000000002
v 0.41485672638290116 -14.671316645870585 3.7000000000000002
v 1.4543249261820035 -14.294788007589823 4.0936011364390383
v 1.1261157024346289 -14.23173442386717 4.8508411980551438
v 1.0756863804597367 -14.472913801834038 4.0949661140561942
v 0.24425888032991053 -13.546926062621042 6.0515291272599141
v 0.71225897605172783 -13.975956900489772 5.5204754478154427
v 0.001 -13.808721091463319 5.8338452048866491
v 0.24772739583808684 -14.663065021785412 4.0992133124217744
v 0.71703079095877953 -14.373019572565102 4.8585621567627761
v 0.66135108241987717 -14.599177792207318 4.0983774304837075
v 0.001 -14.591583790402867 4.4992141034037019
v 0.90477663727969604 -14.448732525573647 4.4922482519771965
v 0.47030339512069264 -14.220533655981416 5.2577754691845504
v 0.24442555485981887 -14.04061311213038 5.5607187478403413
v 0.24797074009588049 -14.438947478796896 4.8988211551055532
v 1.4543249261820035 -9.105211992410176 4.0936011364390383
v 1.1261157024346289 -9.1682655761328284 4.8508411980551438
v 1.0756863804597367 -8.9270861981659611 4.0949661140561942
v 0.24425888032991053 -9.8530739373789569 6.0515291272599141
v 0.71225897605172783 -9.4240430995102269 5.5204754478154427
v 0.001 -9.5912789085366796 5.8338452048866491
v 0.24772739583808684 -8.7369349782145864 4.0992133124217744
v 0.71703079095877953 -9.0269804274348964 4.8585621567627761
v 0.66135108241987717 -8.800822207792681 4.0983774304837075
v 0.001 -8.8084162095971319 4.4992141034037019
v 0.90477663727969604 -8.9512674744263521 4.4922482519771965
v 0.47030339512069264 -9.1794663440185822 5.2577754691845504
v 0.24442555485981887 -9.3593868878696185 5.5607187478403413
v 0.24797074009588049 -8.9610525212031025 4.8988211551055532
v 0.001 -12.910066045852092 6.4451302636989523
v 0.001 -12.113856726382901 6.6713166458705864
v 0.001 -10.489933954147906 6.4451302636989523
v 0.001 -11.286143273617098 6.6713166458705864
v 1.4543249261820035 -14.294788007589823 3.3063988635609616
v 1.1261157024346289 -14.23173442386717 2.5491588019448566
v 1.0756863804597367 -14.472913801834038 3.3050338859438062
v 0.24425888032991053 -13.546926062621042 1.3484708727400863
v 0.71225897605172783 -13.975956900489772 1.8795245521845576
v 0.001 -13.808721091463319 1.5661547951133512
v 0.24772739583808684 -14.663065021785412 3.3007866875782264
v 0.71703079095877953 -14.373019572565102 2.5414378432372238
v 0.66135108241987717 -14.599177792207318 3.3016225695162928
v 0.001 -14.591583790402867 2.900785896596298
v 0.90477663727969604 -14.448732525573647 2.9077517480228039
v 0.47030339512069264 -14.220533655981416 2.1422245308154499
v 0.24442555485981887 -14.04061311213038 1.8392812521596591
v 0.24797074009588049 -14.438947478796896 2.5011788448944468
v 1.4543249261820035 -9.105211992410176 3.3063988635609616
v 1.1261157024346289 -9.1682655761328284 2.5491588019448566
v 1.0756863804597367 -8.9270861981659611 3.3050338859438062
v 0.24425888032991053 -9.8530739373789569 1.3484708727400863
v 0.71225897605172783 -9.4240430995102269 1.8795245521845576
v 0.001 -9.5912789085366796 1.5661547951133512
v 0.24772739583808684 -8.7369349782145864 3.3007866875782264
v 0.71703079095877953 -9.0269804274348964 2.5414378432372238
v 0.66135108241987717 -8.800822207792681 3.3016225695162928
v 0.001 -8.8084162095971319 2.900785896596298
v 0.90477663727969604 -8.9512674744263521 2.9077517480228039
v 0.47030339512069264 -9.1794663440185822 2.1422245308154499
v 0.24442555485981887 -9.3593868878696185 1.8392812521596591
v 0.24797074009588049 -8.9610525212031025 2.5011788448944468
v 0.001 -12.910066045852092 0.9548697363010481
v 0.001 -12.113856726382901 0.72868335412941443
v 0.001 -10.489933954147906 0.9548697363010481
v 0.001 -11.286143273617098 0.72868335412941443
v 1.8479260626210416 -9.3484708727400854 3.4567411196700895
v 2.2769569004897718 -9.8795245521845558 2.9887410239482723
v 1.7147549774071258 -9.322052312222155 3.0609314030526109
v 2.5957880075898241 -11.306398863560961 2.2466750738179968
v 2.5327344238671703 -10.549158801944856 2.5748842975653714
v 1.3629714992186404 -9.4261937398566698 2.2947104473991371
v 2.1223203435596423 -9.8954971349773615 2.5847558966194466
v 1.5493648601531829 -9.3496449049100594 2.6615409556330238
v 1.943235681646672 -9.5930704597698782 2.811986222266694
v 1.8479260626210416 -14.051529127259913 3.4567411196700895
v 2.2769569004897718 -13.520475447815443 2.9887410239482723
v 1.7147549774071258 -14.077947687777844 3.0609314030526109
v 2.5957880075898241 -12.093601136439037 2.2466750738179968
v 2.5327344238671703 -12.850841198055143 2.5748842975653714
v 1.3629714992186404 -13.973806260143329 2.2947104473991371
v 2.1223203435596423 -13.504502865022637 2.5847558966194466
v 1.5493648601531829 -14.050355095089939 2.6615409556330238
v 1.943235681646672 -13.80692954023012 2.811986222266694
v 0.3946011364390386 -13.153324926182004 1.105211992410176
v 1.1518411980551435 -12.825115702434628 1.1682655761328298
v 0.64006859694738938 -13.413754977407125 1.3220523122221559
v 0.39596611405619386 -12.774686380459736 0.92708619816596194
v 2.3525291272599138 -11.94325888032991 1.8530739373789584
v 1.8214754478154425 -12.411258976051727 1.4240430995102282
v 2.3789476877778442 -12.339068596947389 1.9862450225928743
v 1.1162441033805532 -13.821320343559641 1.8954971349773628
v 1.4062895526008632 -13.06197149921864 1.4261937398566706
v 0.88901377773330603 -13.642235681646671 1.5930704597698795
v 1.5411263236913437 -13.639733375393195 2.0072373647026858
v 1.0394590443669762 -13.248364860153183 1.3496449049100607
v 0.40021331242177405 -11.946727395838087 0.73693497821458687
v 1.1595621567627763 -12.416030790958779 1.0269804274348964
v 0.39937743048370739 -12.360351082419877 0.80082220779268276
v 0.79324825197719684 -12.603776637279696 0.95126747442635295
v 2.2748062601433294 -13.105289552600862 2.3380285007813599
v 1.8055028650226372 -12.815244103380554 1.5786796564403578
v 2.3513550950899393 -12.738459044366977 2.151635139846817
v 1.940733375393195 -13.392762635297313 2.1598736763086563
v 2.1079295402301206 -12.588013777733305 1.7577643183533282
v 1.6937626352973143 -13.240126323691342 1.7602666246068051
v 0.3946011364390386 -10.246675073817995 1.105211992410176
v 1.1518411980551435 -10.574884297565371 1.1682655761328298
v 0.64006859694738938 -9.9862450225928736 1.3220523122221559
v 0.39596611405619386 -10.625313619540263 0.92708619816596194
v 2.3525291272599138 -11.456741119670088 1.8530739373789584
v 1.8214754478154425 -10.988741023948272 1.4240430995102282
v 2.3789476877778442 -11.06093140305261 1.9862450225928743
v 2.1348452048866489 -11.699999999999999 1.5912789085366805
v 1.1162441033805532 -9.5786796564403573 1.8954971349773628
v 1.4062895526008632 -10.338028500781359 1.4261937398566706
v 0.88901377773330603 -9.7577643183533276 1.5930704597698795
v 1.5411263236913437 -9.7602666246068033 2.0072373647026858
v 1.0394590443669762 -10.151635139846816 1.3496449049100607
v 0.40021331242177405 -11.453272604161912 0.73693497821458687
v 1.1595621567627763 -10.98396920904122 1.0269804274348964
v 0.39937743048370739 -11.039648917580122 0.80082220779268276
v 0.80021410340370236 -11.699999999999999 0.80841620959713234
v 0.79324825197719684 -10.796223362720303 0.95126747442635295
v 2.2748062601433294 -10.294710447399137 2.3380285007813599
v 1.8055028650226372 -10.584755896619445 1.5786796564403578
v 2.3513550950899393 -10.661540955633022 2.151635139846817
v 1.940733375393195 -10.007237364702686 2.1598736763086563
v 2.1079295402301206 -10.811986222266693 1.7577643183533282
v 1.6937626352973143 -10.159873676308656 1.7602666246068051
v 1.5587754691845506 -12.169303395120693 1.179466344018584
v 1.5587754691845506 -11.230696604879306 1.179466344018584
v 1.861718747840341 -11.943425554859818 1.3593868878696203
v 1.1998211551055533 -11.94697074009588 0.96105252120310292
v 1.861718747840341 -11.456574445140181 1.3593868878696203
v 1.1998211551055533 -11.453029259904119 0.96105252120310292
v 1.8479260626210416 -9.3484708727400854 3.9432588803299109
v 2.2769569004897718 -9.8795245521845558 4.4112589760517285
v 1.7147549774071258 -9.322052312222155 4.3390685969473894
v 2.1097210914633195 -9.5661547951133503 3.7000000000000002
v 2.5957880075898241 -11.306398863560961 5.1533249261820036
v 2.5327344238671703 -10.549158801944856 4.825115702434629
v 1.3629714992186404 -9.4261937398566698 5.1052895526008637
v 2.1223203435596423 -9.8954971349773615 4.8152441033805538
v 1.5493648601531829 -9.3496449049100594 4.7384590443669765
v 1.943235681646672 -9.5930704597698782 4.5880137777333063
v 2.5215336559814161 -10.142224530815449 3.2306966048793075
v 2.5215336559814161 -10.142224530815449 4.1693033951206928
v 2.3416131121303798 -9.8392812521596582 3.4565744451401814
v 2.3416131121303798 -9.8392812521596582 3.9434255548598189
v 1.8479260626210416 -14.051529127259913 3.9432588803299109
v 2.2769569004897718 -13.520475447815443 4.4112589760517285
v 1.7147549774071258 -14.077947687777844 4.3390685969473894
v 2.1097210914633195 -13.833845204886648 3.7000000000000002
v 2.5957880075898241 -12.093601136439037 5.1533249261820036
v 2.5327344238671703 -12.850841198055143 4.825115702434629
v 1.3629714992186404 -13.973806260143329 5.1052895526008637
v 2.1223203435596423 -13.504502865022637 4.8152441033805538
v 1.5493648601531829 -14.050355095089939 4.7384590443669765
v 1.943235681646672 -13.80692954023012 4.5880137777333063
v 2.5215336559814161 -13.25777546918455 3.2306966048793075
v 2.5215336559814161 -13.25777546918455 4.1693033951206928
v 2.3416131121303798 -13.56071874784034 3.4565744451401814
v 2.3416131121303798 -13.56071874784034 3.9434255548598189
v 0.3946011364390386 -13.153324926182004 6.2947880075898244
v 1.1518411980551435 -12.825115702434628 6.2317344238671701
v 0.64006859694738938 -13.413754977407125 6.0779476877778444
v 0.39596611405619386 -12.774686380459736 6.4729138018340384
v 2.3525291272599138 -11.94325888032991 5.5469260626210417
v 1.8214754478154425 -12.411258976051727 5.9759569004897717
v 2.3789476877778442 -12.339068596947389 5.4137549774071259
v 1.1162441033805532 -13.821320343559641 5.5045028650226371
v 1.4062895526008632 -13.06197149921864 5.9738062601433297
v 0.88901377773330603 -13.642235681646671 5.8069295402301204
v 1.5411263236913437 -13.639733375393195 5.3927626352973146
v 1.0394590443669762 -13.248364860153183 6.0503550950899392
v 0.40021331242177405 -11.946727395838087 6.6630650217854139
v 1.1595621567627763 -12.416030790958779 6.373019572565104
v 0.39937743048370739 -12.360351082419877 6.5991777922073176
v 0.79324825197719684 -12.603776637279696 6.4487325255736474
v 2.2748062601433294 -13.105289552600862 5.0619714992186404
v 1.8055028650226372 -12.815244103380554 5.821320343559643
v 2.3513550950899393 -12.738459044366977 5.2483648601531829
v 1.940733375393195 -13.392762635297313 5.240126323691344
v 2.1079295402301206 -12.588013777733305 5.6422356816466719
v 1.6937626352973143 -13.240126323691342 5.6397333753931953
v 0.3946011364390386 -10.246675073817995 6.2947880075898244
v 1.1518411980551435 -10.574884297565371 6.2317344238671701
v 0.64006859694738938 -9.9862450225928736 6.0779476877778444
v 0.39596611405619386 -10.625313619540263 6.4729138018340384
v 2.3525291272599138 -11.456741119670088 5.5469260626210417
v 1.8214754478154425 -10.988741023948272 5.9759569004897717
v 2.3789476877778442 -11.06093140305261 5.4137549774071259
v 2.1348452048866489 -11.699999999999999 5.8087210914633198
v 1.1162441033805532 -9.5786796564403573 5.5045028650226371
v 1.4062895526008632 -10.338028500781359 5.9738062601433297
v 0.88901377773330603 -9.7577643183533276 5.8069295402301204
v 1.5411263236913437 -9.7602666246068033 5.3927626352973146
v 1.0394590443669762 -10.151635139846816 6.0503550950899392
v 0.40021331242177405 -11.453272604161912 6.6630650217854139
v 1.1595621567627763 -10.98396920904122 6.373019572565104
v 0.39937743048370739 -11.039648917580122 6.5991777922073176
v 0.80021410340370236 -11.699999999999999 6.5915837904028685
v 0.79324825197719684 -10.796223362720303 6.4487325255736474
v 2.2748062601433294 -10.294710447399137 5.0619714992186404
v 1.8055028650226372 -10.584755896619445 5.821320343559643
v 2.3513550950899393 -10.661540955633022 5.2483648601531829
v 1.940733375393195 -10.007237364702686 5.240126323691344
v 2.1079295402301206 -10.811986222266693 5.6422356816466719
v 1.6937626352973143 -10.159873676308656 5.6397333753931953
v 1.5587754691845506 -12.169303395120693 6.2205336559814164
v 1.5587754691845506 -11.230696604879306 6.2205336559814164
v 1.861718747840341 -11.943425554859818 6.0406131121303801
v 1.1998211551055533 -11.94697074009588 6.4389474787968979
v 1.861718747840341 -11.456574445140181 6.0406131121303801
v 1.1998211551055533 -11.453029259904119 6.4389474787968979
v 2.746130263698952 -11.699999999999999 2.4899339541479071
v 2.9723166458705856 -11.699999999999999 3.2861432736170988
v 2.7739138018340381 -11.305033885943805 2.6253136195402633
v 2.7739138018340381 -12.094966114056193 2.6253136195402633
v 2.746130263698952 -11.699999999999999 4.9100660458520933
v 2.9723166458705856 -11.699999999999999 4.1138567263829016
v 2.7739138018340381 -11.305033885943805 4.7746863804597375
v 2.7739138018340381 -12.094966114056193 4.7746863804597375
v 2.6740195725651037 -10.541437843237222 2.9839692090412209
v 2.9640650217854132 -11.300786687578226 3.4532726041619131
v 2.7497325255736471 -10.907751748022802 2.7962233627203039
v 2.7399474787968972 -10.501178844894445 3.4530292599041195
v 2.9001777922073173 -11.301622569516292 3.0396489175801227
v 2.6740195725651037 -12.858562156762776 2.9839692090412209
v 2.9640650217854132 -12.099213312421773 3.4532726041619131
v 2.7497325255736471 -12.492248251977196 2.7962233627203039
v 2.7399474787968972 -12.898821155105553 3.4530292599041195
v 2.9001777922073173 -12.098377430483707 3.0396489175801227
v 2.6740195725651037 -10.541437843237222 4.4160307909587795
v 2.9640650217854132 -11.300786687578226 3.9467273958380873
v 2.7497325255736471 -10.907751748022802 4.6037766372796964
v 2.7399474787968972 -10.501178844894445 3.9469707400958809
v 2.9001777922073173 -11.301622569516292 4.3603510824198777
v 2.8925837904028677 -10.900785896596297 3.7000000000000002
v 2.6740195725651037 -12.858562156762776 4.4160307909587795
v 2.9640650217854132 -12.099213312421773 3.9467273958380873
v 2.7497325255736471 -12.492248251977196 4.6037766372796964
v 2.7399474787968972 -12.898821155105553 3.9469707400958809
v 2.9001777922073173 -12.098377430483707 4.3603510824198777
v 2.8925837904028677 -12.499214103403702 3.7000000000000002
f 266 75 277
f 10 99 93
f 592 590 580
f 471 430 469
f 186 183 172
f 172 183 14
f 181 19 193
f 53 174 175
f 53 195 186
f 186 172 53
f 53 172 174
f 309 320 84
f 309 322 25
f 165 163 50
f 50 163 209
f 659 424 662
f 523 520 393
f 508 531 389
f 389 507 648
f 531 519 389
f 389 519 507
f 509 520 523
f 351 520 509
f 530 356 518
f 512 511 390
f 523 532 390
f 390 509 523
f 511 509 390
f 41 139 137
f 137 138 41
f 467 520 351
f 467 475 376
f 269 305 302
f 302 305 83
f 269 257 271
f 324 335 337
f 322 87 337
f 337 87 324
f 324 87 321
f 175 168 173
f 173 53 175
f 195 53 173
f 272 22 249
f 247 22 272
f 267 257 264
f 264 75 267
f 264 277 75
f 273 277 264
f 347 469 430
f 364 430 471
f 437 347 430
f 105 98 11
f 11 98 263
f 263 75 266
f 99 30 101
f 101 93 99
f 96 101 102
f 102 101 30
f 644 631 642
f 613 599 411
f 411 598 613
f 641 598 411
f 609 612 586
f 674 672 661
f 674 424 659
f 661 424 674
f 658 424 661
f 510 505 512
f 512 390 510
f 510 390 532
f 603 612 614
f 614 412 603
f 601 412 614
f 177 19 189
f 175 174 169
f 174 38 169
f 243 253 255
f 255 69 243
f 243 22 253
f 249 22 243
f 96 102 28
f 244 69 242
f 244 28 250
f 248 263 266
f 11 263 248
f 64 225 222
f 222 225 189
f 189 19 222
f 222 19 181
f 317 309 25
f 320 309 317
f 209 163 206
f 165 50 166
f 219 50 209
f 362 654 664
f 657 654 646
f 659 662 646
f 362 659 646
f 646 654 362
f 648 507 645
f 394 525 551
f 189 225 57
f 57 225 214
f 562 551 564
f 526 394 562
f 562 394 551
f 526 356 514
f 518 561 392
f 392 561 542
f 356 530 521
f 521 514 356
f 506 511 512
f 506 375 511
f 433 364 429
f 433 429 431
f 588 580 586
f 130 183 185
f 138 137 130
f 14 183 130
f 130 137 14
f 416 620 643
f 668 664 654
f 23 257 269
f 269 302 23
f 273 264 23
f 23 264 257
f 304 302 83
f 76 305 269
f 269 271 76
f 294 305 76
f 270 76 271
f 606 642 413
f 413 642 631
f 82 301 299
f 89 337 335
f 18 321 171
f 18 173 168
f 324 321 252
f 168 254 252
f 252 18 168
f 321 18 252
f 195 173 192
f 171 194 192
f 192 18 171
f 173 18 192
f 194 58 192
f 192 58 195
f 255 254 245
f 245 69 255
f 242 69 245
f 72 335 324
f 72 254 255
f 255 253 72
f 253 335 72
f 324 252 72
f 72 252 254
f 273 276 77
f 77 277 273
f 266 277 275
f 275 272 249
f 277 77 275
f 275 77 272
f 104 30 99
f 438 444 367
f 367 441 438
f 430 364 439
f 439 437 430
f 439 364 433
f 367 437 439
f 433 441 439
f 439 441 367
f 100 102 30
f 100 105 11
f 595 366 602
f 639 598 641
f 639 642 606
f 606 360 639
f 639 360 598
f 508 658 355
f 505 510 355
f 589 658 661
f 589 591 505
f 505 355 589
f 589 355 658
f 660 389 648
f 424 658 660
f 508 389 660
f 660 658 508
f 648 662 660
f 660 662 424
f 529 510 532
f 529 531 508
f 508 355 529
f 529 355 510
f 529 395 531
f 532 395 529
f 661 672 409
f 592 591 409
f 409 590 592
f 409 672 590
f 409 589 661
f 591 589 409
f 582 591 592
f 579 504 582
f 414 614 612
f 612 609 414
f 601 614 610
f 610 360 601
f 598 360 610
f 613 598 610
f 610 414 613
f 614 414 610
f 366 443 435
f 435 602 366
f 265 263 98
f 267 75 265
f 75 263 265
f 475 467 474
f 470 476 474
f 351 470 474
f 474 467 351
f 377 476 470
f 471 469 377
f 136 40 139
f 184 193 19
f 19 177 184
f 127 38 174
f 174 172 127
f 127 172 14
f 195 58 197
f 197 58 193
f 186 195 197
f 193 184 197
f 251 244 250
f 69 244 251
f 249 243 251
f 251 243 69
f 64 222 224
f 224 222 181
f 16 211 157
f 157 211 213
f 63 219 221
f 221 219 209
f 214 225 227
f 227 225 64
f 55 224 181
f 205 224 55
f 196 58 194
f 194 182 196
f 193 58 196
f 182 55 196
f 181 193 196
f 196 55 181
f 84 311 325
f 325 309 84
f 322 309 325
f 325 87 322
f 52 311 170
f 52 194 171
f 52 182 194
f 170 182 52
f 323 321 87
f 87 325 323
f 323 325 311
f 311 52 323
f 171 321 323
f 323 52 171
f 308 311 84
f 170 311 308
f 202 161 204
f 564 551 399
f 399 549 564
f 400 556 553
f 488 490 484
f 357 554 540
f 398 546 558
f 546 556 558
f 400 554 558
f 558 556 400
f 502 497 503
f 379 497 502
f 380 480 482
f 162 316 17
f 318 316 162
f 320 317 86
f 86 316 318
f 318 320 86
f 331 86 317
f 17 316 238
f 44 146 148
f 141 163 165
f 141 148 146
f 153 146 44
f 146 153 151
f 158 140 160
f 165 166 160
f 63 218 216
f 216 219 63
f 218 162 216
f 216 162 17
f 164 166 50
f 50 219 164
f 164 216 17
f 219 216 164
f 557 554 400
f 540 554 557
f 498 541 386
f 421 662 648
f 648 645 421
f 421 646 662
f 657 646 421
f 564 549 560
f 560 357 540
f 549 357 560
f 559 561 518
f 526 562 559
f 559 356 526
f 518 356 559
f 533 392 519
f 533 395 530
f 533 530 518
f 518 392 533
f 533 519 531
f 531 395 533
f 517 392 542
f 519 392 517
f 507 519 517
f 534 395 532
f 530 395 534
f 534 532 523
f 534 521 530
f 523 393 534
f 393 521 534
f 463 506 504
f 375 506 463
f 365 441 433
f 433 431 365
f 580 588 406
f 592 580 406
f 406 582 592
f 579 582 406
f 581 431 579
f 581 588 587
f 587 365 581
f 581 365 431
f 579 406 581
f 581 406 588
f 587 588 408
f 408 612 603
f 603 585 408
f 408 585 587
f 586 612 408
f 408 588 586
f 403 665 570
f 403 621 569
f 570 665 663
f 666 576 663
f 640 629 644
f 640 643 620
f 644 642 420
f 641 643 420
f 420 639 641
f 642 639 420
f 420 640 644
f 643 640 420
f 622 643 641
f 641 411 622
f 416 643 622
f 423 654 657
f 423 668 654
f 657 655 423
f 423 655 653
f 425 665 667
f 425 668 666
f 666 663 425
f 425 663 665
f 667 664 425
f 664 668 425
f 576 578 566
f 39 130 185
f 138 130 39
f 178 39 185
f 129 39 178
f 376 466 515
f 376 475 468
f 468 466 376
f 273 23 261
f 261 23 302
f 261 276 273
f 302 304 261
f 307 305 294
f 83 305 307
f 281 37 124
f 124 278 281
f 294 76 268
f 76 270 268
f 604 410 595
f 604 412 601
f 595 602 604
f 604 602 412
f 606 413 608
f 596 410 608
f 596 608 607
f 607 608 413
f 289 299 301
f 289 286 234
f 230 236 32
f 1 140 158
f 158 228 1
f 231 228 158
f 82 299 296
f 296 298 82
f 284 298 66
f 74 304 285
f 285 260 74
f 74 261 304
f 276 261 74
f 74 260 262
f 262 276 74
f 315 312 85
f 330 313 85
f 85 314 330
f 312 314 85
f 262 260 246
f 246 312 315
f 315 70 246
f 246 70 262
f 332 89 335
f 332 335 253
f 253 22 332
f 332 22 247
f 337 89 333
f 322 337 333
f 25 322 333
f 333 313 25
f 242 245 167
f 167 2 242
f 51 245 254
f 51 254 168
f 51 167 245
f 51 168 175
f 169 167 51
f 175 169 51
f 272 77 274
f 262 70 274
f 274 276 262
f 274 77 276
f 247 272 274
f 274 70 247
f 440 437 367
f 367 444 440
f 30 104 107
f 107 100 30
f 105 100 107
f 31 105 107
f 95 28 102
f 102 100 95
f 95 100 11
f 11 248 95
f 250 28 95
f 95 248 250
f 603 412 600
f 412 602 600
f 602 435 600
f 600 585 603
f 348 585 600
f 600 435 348
f 601 360 594
f 594 604 601
f 410 604 594
f 594 360 606
f 606 608 594
f 594 608 410
f 359 580 590
f 586 580 359
f 359 609 586
f 672 674 426
f 345 583 649
f 569 345 649
f 609 359 584
f 591 582 388
f 505 591 388
f 388 582 504
f 512 505 388
f 504 506 388
f 388 506 512
f 442 435 443
f 443 368 442
f 442 368 444
f 444 438 442
f 442 438 348
f 348 435 442
f 106 105 31
f 98 105 106
f 29 265 98
f 98 106 29
f 73 257 267
f 73 271 257
f 259 270 271
f 271 73 259
f 259 73 256
f 267 265 258
f 97 256 258
f 258 29 97
f 265 29 258
f 258 73 267
f 256 73 258
f 378 474 476
f 475 474 378
f 473 377 470
f 471 377 473
f 476 377 472
f 472 377 469
f 40 136 131
f 10 93 131
f 351 509 464
f 464 470 351
f 464 509 511
f 464 473 470
f 511 375 464
f 375 473 464
f 139 40 132
f 132 137 139
f 14 137 132
f 132 127 14
f 94 244 242
f 242 2 94
f 28 244 94
f 96 28 94
f 94 92 96
f 94 2 92
f 126 128 92
f 92 2 126
f 38 128 126
f 126 169 38
f 126 167 169
f 2 167 126
f 56 197 184
f 186 197 56
f 56 183 186
f 185 183 56
f 71 275 249
f 249 251 71
f 266 275 71
f 71 251 250
f 71 248 266
f 250 248 71
f 47 157 213
f 226 224 205
f 64 224 226
f 63 221 217
f 214 227 62
f 62 211 214
f 213 211 62
f 223 226 203
f 223 227 64
f 64 226 223
f 201 198 156
f 156 47 201
f 201 47 213
f 205 55 180
f 180 55 182
f 180 182 170
f 180 202 205
f 84 320 310
f 310 308 84
f 310 320 318
f 161 308 310
f 220 217 203
f 63 217 220
f 220 218 63
f 204 218 220
f 480 380 537
f 480 537 535
f 396 538 535
f 535 537 396
f 549 399 552
f 552 538 396
f 550 538 552
f 552 399 550
f 354 553 501
f 501 553 556
f 499 553 354
f 499 354 653
f 653 655 499
f 499 655 386
f 386 541 555
f 555 499 386
f 553 499 555
f 400 553 555
f 555 557 400
f 541 557 555
f 477 497 379
f 490 486 381
f 381 484 490
f 536 357 549
f 536 552 396
f 549 552 536
f 379 502 478
f 387 556 546
f 387 502 503
f 503 501 387
f 387 501 556
f 49 162 218
f 49 218 204
f 204 161 49
f 318 162 49
f 49 310 318
f 161 310 49
f 21 326 233
f 233 296 21
f 66 298 233
f 298 296 233
f 241 68 239
f 239 229 241
f 239 326 21
f 21 229 239
f 327 313 330
f 330 88 327
f 327 88 331
f 327 331 317
f 25 313 327
f 327 317 25
f 319 68 238
f 86 331 319
f 319 238 316
f 316 86 319
f 32 116 110
f 42 141 165
f 165 160 42
f 42 160 140
f 148 141 42
f 140 142 42
f 42 142 148
f 149 143 43
f 15 206 163
f 163 141 15
f 15 141 146
f 146 151 15
f 382 490 488
f 166 164 159
f 17 238 159
f 159 164 17
f 397 557 541
f 540 557 397
f 386 655 647
f 647 498 386
f 647 655 657
f 645 498 647
f 657 421 647
f 647 421 645
f 564 560 401
f 401 562 564
f 401 559 562
f 561 559 401
f 541 498 539
f 539 517 542
f 542 397 539
f 539 397 541
f 339 504 579
f 579 431 339
f 339 431 429
f 429 463 339
f 339 463 504
f 432 438 441
f 441 365 432
f 348 438 432
f 432 585 348
f 587 585 432
f 432 365 587
f 665 403 651
f 667 665 651
f 651 403 569
f 569 649 651
f 637 620 416
f 416 621 637
f 635 403 570
f 621 403 635
f 635 637 621
f 419 637 635
f 415 632 616
f 616 632 629
f 416 622 619
f 619 621 416
f 569 621 619
f 619 345 569
f 597 622 411
f 597 411 599
f 345 619 597
f 597 619 622
f 599 583 597
f 597 583 345
f 503 497 385
f 405 576 666
f 405 578 576
f 633 635 570
f 419 635 633
f 358 663 576
f 570 663 358
f 576 566 358
f 358 633 570
f 528 394 526
f 526 514 528
f 376 515 522
f 520 467 522
f 522 467 376
f 522 393 520
f 524 521 393
f 393 522 524
f 524 522 515
f 514 521 524
f 138 39 135
f 135 39 129
f 24 292 279
f 297 301 82
f 283 24 297
f 285 304 306
f 306 304 83
f 303 307 292
f 292 24 303
f 303 24 283
f 283 306 303
f 83 307 303
f 303 306 83
f 288 290 280
f 280 33 288
f 4 278 124
f 293 125 37
f 37 281 293
f 279 292 295
f 295 293 281
f 350 628 462
f 418 628 631
f 418 631 644
f 644 629 418
f 629 632 418
f 605 628 350
f 631 628 605
f 605 413 631
f 605 607 413
f 452 446 455
f 452 458 456
f 455 453 371
f 454 458 371
f 371 451 454
f 453 451 371
f 371 452 455
f 458 452 371
f 415 616 627
f 627 616 624
f 34 118 113
f 288 286 80
f 286 289 80
f 80 290 288
f 80 289 301
f 282 260 285
f 232 284 66
f 66 314 232
f 232 314 312
f 232 282 284
f 247 70 334
f 334 332 247
f 334 70 315
f 89 332 334
f 336 85 313
f 313 333 336
f 315 85 336
f 336 333 89
f 336 334 315
f 89 334 336
f 667 651 422
f 422 651 649
f 670 426 674
f 670 659 362
f 670 674 659
f 609 584 611
f 611 414 609
f 613 414 611
f 611 599 613
f 407 584 671
f 407 611 584
f 407 583 599
f 599 611 407
f 671 584 669
f 672 426 669
f 669 426 671
f 590 672 669
f 669 359 590
f 669 584 359
f 97 29 103
f 103 29 106
f 596 607 373
f 3 256 97
f 595 410 593
f 593 410 596
f 434 366 595
f 595 593 434
f 434 593 340
f 375 463 465
f 465 473 375
f 465 463 429
f 471 473 465
f 465 364 471
f 465 429 364
f 92 128 27
f 93 101 27
f 27 101 96
f 96 92 27
f 40 131 133
f 133 27 128
f 133 131 93
f 93 27 133
f 134 132 40
f 40 133 134
f 134 133 128
f 134 128 38
f 38 127 134
f 127 132 134
f 187 56 184
f 187 54 178
f 187 178 185
f 185 56 187
f 187 184 177
f 177 54 187
f 548 494 550
f 548 399 551
f 550 399 548
f 551 525 548
f 353 494 548
f 548 525 353
f 550 494 384
f 384 538 550
f 205 202 60
f 60 226 205
f 203 226 60
f 60 220 203
f 60 202 204
f 204 220 60
f 207 217 221
f 207 210 199
f 199 210 59
f 198 201 59
f 61 221 209
f 208 210 61
f 61 206 208
f 209 206 61
f 61 207 221
f 210 207 61
f 199 59 215
f 215 59 201
f 213 62 215
f 215 201 213
f 20 223 203
f 203 217 20
f 217 207 20
f 20 207 199
f 227 223 212
f 199 215 212
f 212 20 199
f 223 20 212
f 212 62 227
f 212 215 62
f 200 210 208
f 200 143 198
f 198 59 200
f 200 59 210
f 208 43 200
f 200 43 143
f 7 308 161
f 161 202 7
f 170 308 7
f 202 180 7
f 7 180 170
f 493 535 538
f 538 384 493
f 455 446 369
f 447 453 455
f 447 445 427
f 455 369 447
f 447 369 445
f 427 445 338
f 338 445 565
f 338 477 427
f 44 145 150
f 150 153 44
f 9 145 91
f 91 113 9
f 380 481 545
f 545 537 380
f 483 381 486
f 479 477 379
f 427 477 479
f 547 536 396
f 396 537 547
f 547 545 398
f 537 545 547
f 544 558 554
f 554 357 544
f 357 536 544
f 536 547 544
f 398 558 544
f 544 547 398
f 500 478 502
f 500 387 546
f 502 387 500
f 241 229 65
f 65 231 241
f 228 231 65
f 65 230 228
f 235 296 299
f 21 296 235
f 235 229 21
f 326 239 329
f 329 88 326
f 329 239 68
f 331 88 329
f 68 319 329
f 329 319 331
f 32 110 108
f 108 230 32
f 228 230 108
f 108 1 228
f 90 110 26
f 26 142 90
f 1 108 90
f 90 108 110
f 140 1 90
f 90 142 140
f 26 110 115
f 115 91 26
f 113 91 115
f 115 34 113
f 115 110 116
f 116 34 115
f 44 148 147
f 148 142 147
f 147 145 44
f 147 142 26
f 26 91 147
f 147 91 145
f 149 43 152
f 208 206 144
f 144 43 208
f 206 15 144
f 144 15 151
f 151 152 144
f 144 152 43
f 240 159 238
f 238 68 240
f 240 68 241
f 241 231 240
f 563 397 542
f 563 401 560
f 563 560 540
f 540 397 563
f 542 561 563
f 561 401 563
f 344 498 645
f 507 517 344
f 344 645 507
f 517 539 344
f 344 539 498
f 634 637 419
f 620 637 634
f 656 405 666
f 666 668 656
f 656 423 653
f 668 423 656
f 419 633 636
f 636 404 626
f 565 445 567
f 445 369 567
f 129 178 176
f 178 54 176
f 391 524 515
f 391 528 514
f 514 524 391
f 300 297 82
f 82 298 300
f 298 284 300
f 283 297 300
f 301 297 287
f 279 290 287
f 287 24 279
f 287 297 24
f 287 80 301
f 290 80 287
f 341 461 615
f 615 448 341
f 125 293 291
f 294 268 291
f 13 125 291
f 291 268 13
f 279 295 78
f 78 290 279
f 78 281 278
f 78 295 281
f 278 280 78
f 78 280 290
f 292 307 81
f 81 295 292
f 81 307 294
f 293 295 81
f 294 291 81
f 81 291 293
f 630 418 632
f 628 418 630
f 630 462 628
f 571 623 626
f 626 404 571
f 349 452 456
f 446 452 349
f 349 571 446
f 623 571 349
f 417 627 624
f 625 627 417
f 626 623 417
f 417 623 625
f 450 448 370
f 117 33 111
f 33 280 111
f 111 280 278
f 278 4 111
f 617 627 625
f 617 448 615
f 617 615 415
f 415 627 617
f 625 370 617
f 617 370 448
f 114 34 116
f 288 33 112
f 112 286 288
f 79 306 283
f 283 300 79
f 285 306 79
f 79 282 285
f 284 282 79
f 79 300 284
f 328 88 330
f 330 314 328
f 326 88 328
f 328 314 66
f 328 233 326
f 66 233 328
f 312 246 8
f 8 246 260
f 260 282 8
f 282 232 8
f 8 232 312
f 652 422 649
f 652 649 583
f 652 407 671
f 583 407 652
f 650 670 362
f 362 664 650
f 650 664 667
f 667 422 650
f 436 443 366
f 366 434 436
f 270 259 36
f 607 605 460
f 460 373 607
f 460 605 350
f 198 143 6
f 156 198 6
f 428 451 453
f 487 479 379
f 487 478 484
f 379 478 487
f 484 381 487
f 478 500 352
f 352 481 488
f 488 484 352
f 484 478 352
f 543 500 546
f 543 545 481
f 481 352 543
f 543 352 500
f 543 546 398
f 398 545 543
f 67 235 299
f 299 289 67
f 67 234 236
f 67 289 234
f 45 152 151
f 45 151 153
f 489 382 488
f 489 380 482
f 488 481 489
f 489 481 380
f 48 231 158
f 48 240 231
f 159 240 48
f 166 159 48
f 158 160 48
f 48 160 166
f 624 616 361
f 361 634 624
f 620 634 361
f 629 640 361
f 361 640 620
f 361 616 629
f 495 338 565
f 565 568 495
f 495 568 385
f 495 385 497
f 497 477 495
f 477 338 495
f 653 354 575
f 575 656 653
f 405 656 575
f 638 634 419
f 419 636 638
f 624 634 638
f 638 636 626
f 626 417 638
f 638 417 624
f 572 636 633
f 572 358 566
f 633 358 572
f 404 636 572
f 188 57 214
f 188 211 16
f 214 211 188
f 462 630 374
f 615 461 618
f 618 630 632
f 415 615 618
f 618 632 415
f 461 374 618
f 618 374 630
f 573 567 369
f 573 369 446
f 446 571 573
f 573 571 404
f 449 349 456
f 623 349 449
f 625 623 449
f 449 370 625
f 119 35 121
f 121 114 119
f 118 34 121
f 34 114 121
f 456 458 372
f 120 35 119
f 120 33 117
f 120 112 33
f 119 112 120
f 234 286 12
f 286 112 12
f 119 114 12
f 12 112 119
f 422 652 673
f 673 650 422
f 670 650 673
f 426 670 673
f 671 426 673
f 673 652 671
f 596 373 459
f 459 593 596
f 340 593 459
f 13 268 123
f 123 268 270
f 270 36 123
f 480 535 343
f 535 493 343
f 346 428 483
f 451 428 346
f 483 428 485
f 381 483 485
f 485 487 381
f 479 487 485
f 235 67 237
f 230 65 237
f 236 230 237
f 237 67 236
f 237 65 229
f 229 235 237
f 496 575 354
f 354 501 496
f 496 501 503
f 503 385 496
f 385 568 577
f 577 496 385
f 575 496 577
f 405 575 577
f 578 405 577
f 577 568 578
f 574 572 566
f 404 572 574
f 574 573 404
f 567 573 574
f 129 176 5
f 466 342 513
f 513 515 466
f 513 391 515
f 189 57 191
f 191 177 189
f 191 54 177
f 370 449 457
f 450 370 457
f 457 449 456
f 456 372 457
f 234 12 109
f 32 236 109
f 236 234 109
f 109 12 114
f 109 116 32
f 109 114 116
f 122 36 259
f 122 259 256
f 256 3 122
f 427 479 363
f 479 485 363
f 363 485 428
f 363 428 453
f 363 447 427
f 453 447 363
f 402 574 566
f 402 566 578
f 565 567 402
f 567 574 402
f 402 568 565
f 578 568 402
f 528 391 516
f 391 513 516
f 525 394 527
f 394 528 527
f 528 516 527
f 179 176 54
f 54 191 179
f 525 527 492
f 353 525 492
f 491 513 342
f 491 516 513
f 155 188 16
f 154 5 176
f 176 179 154
f 188 155 190
f 57 188 190
f 190 191 57
f 190 179 191
f 46 190 155
f 46 154 179
f 179 190 46
f 383 492 527
f 383 527 516
f 516 491 383
f 10 347 437
f 437 99 10
f 99 437 440
f 440 104 99
f 107 440 444
f 104 440 107
f 107 368 31
f 444 368 107
f 106 368 443
f 31 368 106
f 378 476 139
f 378 139 41
f 41 138 378
f 138 475 378
f 139 476 472
f 472 136 139
f 136 472 131
f 131 472 469
f 131 347 10
f 469 347 131
f 16 157 494
f 494 353 16
f 143 149 482
f 482 480 143
f 135 475 138
f 135 468 475
f 129 466 135
f 466 468 135
f 462 125 13
f 13 350 462
f 118 451 113
f 454 451 118
f 340 3 434
f 434 3 97
f 384 494 157
f 157 47 384
f 493 384 47
f 493 47 156
f 150 486 490
f 490 153 150
f 486 150 483
f 483 150 145
f 341 4 124
f 124 461 341
f 111 448 450
f 450 117 111
f 4 341 111
f 111 341 448
f 436 106 443
f 436 103 106
f 436 434 97
f 97 103 436
f 45 153 490
f 490 382 45
f 482 149 489
f 149 152 489
f 489 45 382
f 152 45 489
f 125 462 374
f 37 125 374
f 374 461 124
f 124 37 374
f 454 118 121
f 121 458 454
f 458 121 372
f 372 121 35
f 123 350 13
f 123 460 350
f 123 36 373
f 373 460 123
f 343 143 480
f 343 6 143
f 343 493 156
f 156 6 343
f 346 483 145
f 346 145 9
f 113 451 346
f 9 113 346
f 5 466 129
f 5 342 466
f 457 117 450
f 457 120 117
f 457 372 35
f 35 120 457
f 373 36 122
f 122 459 373
f 122 3 340
f 340 459 122
f 16 353 155
f 353 492 155
f 342 5 154
f 154 491 342
f 383 155 492
f 383 46 155
f 491 154 383
f 154 46 383
