v -11.709690560635334 -3.2980475749438796 3.7000000000000002
v -10.132497224277932 -4.2728066636425988 6.2519524250561203
v -10.132497224277932 -4.2728066636425988 1.1480475749438801
v -10.132497224277932 -2.8499999999999996 3.7000000000000002
v -11.059548207402774 -3.4229490168751573 5.2000000000000011
v -10.132497224277932 -5.8499999999999996 6.7000000000000002
v -11.059548207402774 -3.4229490168751573 2.1999999999999997
v -10.132497224277932 -5.8499999999999996 0.70000000000000018
v -10.952296811015948 -2.964184926648247 3.7000000000000002
v -11.434162917936016 -3.2619945587514412 4.4796757390232633
v -10.614363331198001 -3.7686585673186519 5.8061393343284893
v -10.619876768627291 -2.9968304511145387 4.4885966681787011
v -10.132497224277932 -3.2980475749438796 5.2771933363574011
v -10.132497224277932 -6.6697995867380149 6.5858150733517533
v -10.132497224277932 -5.0302004132619844 6.5858150733517533
v -11.434162917936016 -3.2619945587514412 2.920324260976737
v -10.614363331198001 -3.7686585673186519 1.5938606656715111
v -10.619876768627291 -2.9968304511145387 2.9114033318212997
v -10.132497224277932 -3.2980475749438796 2.1228066636425993
v -10.132497224277932 -6.6697995867380149 0.81418492664824749
v -10.132497224277932 -5.0302004132619844 0.81418492664824749
v -11.895852981155352 -3.7854271192932392 2.4240237874719401
v -10.912172963301195 -4.548334306341915 1.1119945587514417
v -11.408473436805991 -4.0866442431225805 1.6354271192932397
v -10.921093892456632 -5.3626204556506405 0.84683045111453925
v -11.895852981155352 -3.7854271192932392 4.9759762125280602
v -10.912172963301195 -4.548334306341915 6.2880054412485586
v -11.408473436805991 -4.0866442431225805 5.7645728807067602
v -10.921093892456632 -5.3626204556506405 6.5531695488854611
v -11.342563270130025 -3.1048697363010476 3.7000000000000002
v -10.546353950660833 -2.8786833541294139 3.7000000000000002
v -11.585822150459936 -3.2552119924101754 4.0936011364390383
v -11.257612926712561 -3.3182655761328288 4.8508411980551438
v -11.207183604737669 -3.0770861981659614 4.0949661140561942
v -10.375756104607843 -4.0030739373789572 6.0515291272599141
v -10.843756200329659 -3.5740430995102277 5.5204754478154427
v -10.37922462011602 -2.8869349782145863 4.0992133124217744
v -10.848528015236711 -3.1769804274348958 4.8585621567627761
v -10.79284830669781 -2.9508222077926822 4.0983774304837075
v -11.036273861557628 -3.1012674744263524 4.4922482519771965
v -10.132497224277932 -3.74127890853668 5.8338452048866491
v -10.132497224277932 -2.9584162095971318 4.4992141034037019
v -10.601800619398624 -3.3294663440185834 5.2577754691845504
v -10.375922779137751 -3.5093868878696197 5.5607187478403413
v -10.379467964373813 -3.1110525212031024 4.8988211551055532
v -10.132497224277932 -7.0600660458520927 6.4451302636989523
v -10.132497224277932 -6.263856726382901 6.6713166458705864
v -10.132497224277932 -4.6399339541479065 6.4451302636989523
v -10.132497224277932 -5.4361432736170983 6.6713166458705864
v -11.585822150459936 -3.2552119924101754 3.3063988635609616
v -11.257612926712561 -3.3182655761328288 2.5491588019448566
v -11.207183604737669 -3.0770861981659614 3.3050338859438062
v -10.375756104607843 -4.0030739373789572 1.3484708727400863
v -10.843756200329659 -3.5740430995102277 1.8795245521845576
v -10.37922462011602 -2.8869349782145863 3.3007866875782264
v -10.848528015236711 -3.1769804274348958 2.5414378432372238
v -10.79284830669781 -2.9508222077926822 3.3016225695162928
v -11.036273861557628 -3.1012674744263524 2.9077517480228039
v -10.132497224277932 -3.74127890853668 1.5661547951133512
v -10.132497224277932 -2.9584162095971318 2.900785896596298
v -10.601800619398624 -3.3294663440185834 2.1422245308154499
v -10.375922779137751 -3.5093868878696197 1.8392812521596591
v -10.379467964373813 -3.1110525212031024 2.5011788448944468
v -10.132497224277932 -7.0600660458520927 0.9548697363010481
v -10.132497224277932 -6.263856726382901 0.72868335412941443
v -10.132497224277932 -4.6399339541479065 0.9548697363010481
v -10.132497224277932 -5.4361432736170983 0.72868335412941443
v -11.979423286898975 -3.4984708727400857 3.4567411196700895
v -11.846252201685058 -3.4720523122221554 3.0609314030526109
v -11.494468723496572 -3.5761937398566701 2.2947104473991371
v -11.680862084431116 -3.4996449049100598 2.6615409556330238
v -10.531710536699705 -6.0967273958380863 0.73693497821458687
v -10.530874654761639 -6.5103510824198771 0.80082220779268276
v -10.52609836071697 -4.3966750738179963 1.105211992410176
v -11.283338422333076 -4.7248842975653709 1.1682655761328298
v -10.771565821225321 -4.136245022592874 1.3220523122221559
v -10.527463338334126 -4.7753136195402632 0.92708619816596194
v -11.247741327658485 -3.7286796564403573 1.8954971349773628
v -11.537786776878795 -4.4880285007813594 1.4261937398566706
v -11.020511002011238 -3.9077643183533279 1.5930704597698795
v -11.672623547969277 -3.9102666246068045 2.0072373647026858
v -11.170956268644908 -4.301635139846816 1.3496449049100607
v -10.531710536699705 -5.603272604161913 0.73693497821458687
v -11.291059381040709 -5.1339692090412203 1.0269804274348964
v -10.530874654761639 -5.1896489175801221 0.80082220779268276
v -10.931711327681635 -5.8499999999999996 0.80841620959713234
v -10.924745476255129 -4.9462233627203034 0.95126747442635295
v -11.979423286898975 -3.4984708727400857 3.9432588803299109
v -11.846252201685058 -3.4720523122221554 4.3390685969473894
v -11.494468723496572 -3.5761937398566701 5.1052895526008637
v -11.680862084431116 -3.4996449049100598 4.7384590443669765
v -10.531710536699705 -6.0967273958380863 6.6630650217854139
v -10.530874654761639 -6.5103510824198771 6.5991777922073176
v -10.52609836071697 -4.3966750738179963 6.2947880075898244
v -11.283338422333076 -4.7248842975653709 6.2317344238671701
v -10.771565821225321 -4.136245022592874 6.0779476877778444
v -10.527463338334126 -4.7753136195402632 6.4729138018340384
v -11.247741327658485 -3.7286796564403573 5.5045028650226371
v -11.537786776878795 -4.4880285007813594 5.9738062601433297
v -11.020511002011238 -3.9077643183533279 5.8069295402301204
v -11.672623547969277 -3.9102666246068045 5.3927626352973146
v -11.170956268644908 -4.301635139846816 6.0503550950899392
v -10.531710536699705 -5.603272604161913 6.6630650217854139
v -11.291059381040709 -5.1339692090412203 6.373019572565104
v -10.530874654761639 -5.1896489175801221 6.5991777922073176
v -10.931711327681635 -5.8499999999999996 6.5915837904028685
v -10.924745476255129 -4.9462233627203034 6.4487325255736474
v -3.4890552757815652 -3.2980475749438796 3.7000000000000002
v -3.4890552757815652 -8.4019524250561197 3.7000000000000002
v -5.066248612138966 -7.4271933363574005 6.2519524250561203
v -5.066248612138966 -4.2728066636425988 6.2519524250561203
v -5.066248612138966 -7.4271933363574005 1.1480475749438801
v -5.066248612138966 -4.2728066636425988 1.1480475749438801
v -2.514296187082846 -5.8499999999999996 2.1228066636425993
v -2.514296187082846 -5.8499999999999996 5.2771933363574011
v -5.066248612138966 -2.8499999999999996 3.7000000000000002
v -5.066248612138966 -8.8499999999999996 3.7000000000000002
v -4.1391976290141237 -8.2770509831248411 5.2000000000000011
v -4.1391976290141237 -3.4229490168751573 5.2000000000000011
v -5.066248612138966 -5.8499999999999996 6.7000000000000002
v -4.1391976290141237 -8.2770509831248411 2.1999999999999997
v -4.1391976290141237 -3.4229490168751573 2.1999999999999997
v -5.066248612138966 -5.8499999999999996 0.70000000000000018
v -2.6391976290141237 -4.3499999999999996 2.7729490168751578
v -2.6391976290141237 -7.3499999999999996 2.7729490168751578
v -3.5662486121389656 -6.777050983124842 1.2729490168751578
v -3.5662486121389656 -4.9229490168751573 1.2729490168751578
v -2.6391976290141237 -4.3499999999999996 4.6270509831248425
v -2.6391976290141237 -7.3499999999999996 4.6270509831248425
v -3.5662486121389656 -6.777050983124842 6.1270509831248425
v -3.5662486121389656 -4.9229490168751573 6.1270509831248425
v -2.066248612138966 -5.8499999999999996 3.7000000000000002
v -4.2464490254009508 -2.964184926648247 3.7000000000000002
v -4.2464490254009508 -8.7358150733517519 3.7000000000000002
v -3.7645829184808819 -8.4380054412485581 4.4796757390232633
v -4.5843825052188967 -7.9313414326813474 5.8061393343284893
v -4.5788690677896069 -8.7031695488854606 4.4885966681787011
v -5.066248612138966 -8.4019524250561197 5.2771933363574011
v -3.7645829184808819 -3.2619945587514412 4.4796757390232633
v -4.5843825052188967 -3.7686585673186519 5.8061393343284893
v -4.5788690677896069 -2.9968304511145387 4.4885966681787011
v -5.066248612138966 -3.2980475749438796 5.2771933363574011
v -5.066248612138966 -6.6697995867380149 6.5858150733517533
v -5.066248612138966 -5.0302004132619844 6.5858150733517533
v -3.7645829184808819 -8.4380054412485581 2.920324260976737
v -4.5843825052188967 -7.9313414326813474 1.5938606656715111
v -4.5788690677896069 -8.7031695488854606 2.9114033318212997
v -5.066248612138966 -8.4019524250561197 2.1228066636425993
v -3.7645829184808819 -3.2619945587514412 2.920324260976737
v -4.5843825052188967 -3.7686585673186519 1.5938606656715111
v -4.5788690677896069 -2.9968304511145387 2.9114033318212997
v -5.066248612138966 -3.2980475749438796 2.1228066636425993
v -5.066248612138966 -6.6697995867380149 0.81418492664824749
v -5.066248612138966 -5.0302004132619844 0.81418492664824749
v -2.9849071794576183 -3.7438606656715101 3.2181338930799308
v -2.4782431708904076 -5.0703242609767365 2.3983343063419156
v -3.3028928552615464 -3.7854271192932392 2.4240237874719401
v -2.9849071794576183 -7.9561393343284887 3.2181338930799308
v -2.4782431708904076 -6.6296757390232628 2.3983343063419156
v -3.3028928552615464 -7.9145728807067606 2.4240237874719401
v -4.2865728731157029 -7.1516656936580842 1.1119945587514417
v -2.9601092778104769 -6.331866106920069 1.6186585673186529
v -3.790272399610906 -7.6133557568774188 1.6354271192932397
v -4.2776519439602652 -6.3373795443493588 0.84683045111453925
v -3.0016757314322056 -7.1259762125280597 1.9366442431225808
v -4.2865728731157029 -4.548334306341915 1.1119945587514417
v -2.9601092778104769 -5.3681338930799303 1.6186585673186529
v -3.790272399610906 -4.0866442431225805 1.6354271192932397
v -4.2776519439602652 -5.3626204556506405 0.84683045111453925
v -3.0016757314322056 -4.5740237874719396 1.9366442431225808
v -3.4890552757815652 -5.8499999999999996 1.1480475749438805
v -2.9849071794576183 -3.7438606656715101 4.1818661069200695
v -2.4782431708904076 -5.0703242609767365 5.0016656936580848
v -3.3028928552615464 -3.7854271192932392 4.9759762125280602
v -2.5142961870828464 -4.2728066636425988 3.7000000000000002
v -2.9849071794576183 -7.9561393343284887 4.1818661069200695
v -2.4782431708904076 -6.6296757390232628 5.0016656936580848
v -3.3028928552615464 -7.9145728807067606 4.9759762125280602
v -2.5142961870828464 -7.4271933363574005 3.7000000000000002
v -4.2865728731157029 -7.1516656936580842 6.2880054412485586
v -2.9601092778104769 -6.331866106920069 5.7813414326813479
v -3.790272399610906 -7.6133557568774188 5.7645728807067602
v -4.2776519439602652 -6.3373795443493588 6.5531695488854611
v -3.0016757314322056 -7.1259762125280597 5.4633557568774194
v -4.2865728731157029 -4.548334306341915 6.2880054412485586
v -2.9601092778104769 -5.3681338930799303 5.7813414326813479
v -3.790272399610906 -4.0866442431225805 5.7645728807067602
v -4.2776519439602652 -5.3626204556506405 6.5531695488854611
v -3.0016757314322056 -4.5740237874719396 5.4633557568774194
v -3.4890552757815652 -5.8499999999999996 6.2519524250561194
v -2.1804335387872134 -5.8499999999999996 2.8802004132619849
v -2.1804335387872134 -5.8499999999999996 4.5197995867380154
v -2.2130790632535051 -5.0614033318212988 3.2126204556506406
v -2.2130790632535051 -6.6385966681787005 3.2126204556506406
v -2.2130790632535051 -5.0614033318212988 4.1873795443493602
v -2.2130790632535051 -6.6385966681787005 4.1873795443493602
v -3.8561825662868729 -3.1048697363010476 3.7000000000000002
v -4.6523918857560647 -2.8786833541294139 3.7000000000000002
v -3.8561825662868729 -8.5951302636989517 3.7000000000000002
v -4.6523918857560647 -8.8213166458705849 3.7000000000000002
v -3.6129236859569627 -8.4447880075898247 4.0936011364390383
v -3.9411329097043373 -8.3817344238671705 4.8508411980551438
v -3.9915622316792292 -8.6229138018340379 4.0949661140561942
v -4.8229897318090558 -7.6969260626210421 6.0515291272599141
v -4.3549896360872378 -8.125956900489772 5.5204754478154427
v -5.066248612138966 -7.9587210914633193 5.8338452048866491
v -4.8195212163008794 -8.8130650217854125 4.0992133124217744
v -4.3502178211801867 -8.5230195725651043 4.8585621567627761
v -4.4058975297190885 -8.7491777922073162 4.0983774304837075
v -5.066248612138966 -8.741583790402867 4.4992141034037019
v -4.1624719748592698 -8.5987325255736469 4.4922482519771965
v -4.5969452170182734 -8.370533655981415 5.2577754691845504
v -4.8228230572791473 -8.1906131121303787 5.5607187478403413
v -4.8192778720430853 -8.5889474787968965 4.8988211551055532
v -3.6129236859569627 -3.2552119924101754 4.0936011364390383
v -3.9411329097043373 -3.3182655761328288 4.8508411980551438
v -3.9915622316792292 -3.0770861981659614 4.0949661140561942
v -4.8229897318090558 -4.0030739373789572 6.0515291272599141
v -4.3549896360872378 -3.5740430995102277 5.5204754478154427
v -5.066248612138966 -3.74127890853668 5.8338452048866491
v -4.8195212163008794 -2.8869349782145863 4.0992133124217744
v -4.3502178211801867 -3.1769804274348958 4.8585621567627761
v -4.4058975297190885 -2.9508222077926822 4.0983774304837075
v -5.066248612138966 -2.9584162095971318 4.4992141034037019
v -4.1624719748592698 -3.1012674744263524 4.4922482519771965
v -4.5969452170182734 -3.3294663440185834 5.2577754691845504
v -4.8228230572791473 -3.5093868878696197 5.5607187478403413
v -4.8192778720430853 -3.1110525212031024 4.8988211551055532
v -5.066248612138966 -7.0600660458520927 6.4451302636989523
v -5.066248612138966 -6.263856726382901 6.6713166458705864
v -5.066248612138966 -4.6399339541479065 6.4451302636989523
v -5.066248612138966 -5.4361432736170983 6.6713166458705864
v -3.6129236859569627 -8.4447880075898247 3.3063988635609616
v -3.9411329097043373 -8.3817344238671705 2.5491588019448566
v -3.9915622316792292 -8.6229138018340379 3.3050338859438062
v -4.8229897318090558 -7.6969260626210421 1.3484708727400863
v -4.3549896360872378 -8.125956900489772 1.8795245521845576
v -5.066248612138966 -7.9587210914633193 1.5661547951133512
v -4.8195212163008794 -8.8130650217854125 3.3007866875782264
v -4.3502178211801867 -8.5230195725651043 2.5414378432372238
v -4.4058975297190885 -8.7491777922073162 3.3016225695162928
v -5.066248612138966 -8.741583790402867 2.900785896596298
v -4.1624719748592698 -8.5987325255736469 2.9077517480228039
v -4.5969452170182734 -8.370533655981415 2.1422245308154499
v -4.8228230572791473 -8.1906131121303787 1.8392812521596591
v -4.8192778720430853 -8.5889474787968965 2.5011788448944468
v -3.6129236859569627 -3.2552119924101754 3.3063988635609616
v -3.9411329097043373 -3.3182655761328288 2.5491588019448566
v -3.9915622316792292 -3.0770861981659614 3.3050338859438062
v -4.8229897318090558 -4.0030739373789572 1.3484708727400863
v -4.3549896360872378 -3.5740430995102277 1.8795245521845576
v -5.066248612138966 -3.74127890853668 1.5661547951133512
v -4.8195212163008794 -2.8869349782145863 3.3007866875782264
v -4.3502178211801867 -3.1769804274348958 2.5414378432372238
v -4.4058975297190885 -2.9508222077926822 3.3016225695162928
v -5.066248612138966 -2.9584162095971318 2.900785896596298
v -4.1624719748592698 -3.1012674744263524 2.9077517480228039
v -4.5969452170182734 -3.3294663440185834 2.1422245308154499
v -4.8228230572791473 -3.5093868878696197 1.8392812521596591
v -4.8192778720430853 -3.1110525212031024 2.5011788448944468
v -5.066248612138966 -7.0600660458520927 0.9548697363010481
v -5.066248612138966 -6.263856726382901 0.72868335412941443
v -5.066248612138966 -4.6399339541479065 0.9548697363010481
v -5.066248612138966 -5.4361432736170983 0.72868335412941443
v -3.2193225495179245 -3.4984708727400857 3.4567411196700895
v -2.7902917116491941 -4.0295245521845571 2.9887410239482723
v -3.3524936347318404 -3.4720523122221554 3.0609314030526109
v -2.4714606045491418 -5.4563988635609615 2.2466750738179968
v -2.5345141882717956 -4.699158801944856 2.5748842975653714
v -3.7042771129203258 -3.5761937398566701 2.2947104473991371
v -2.9449282685793237 -4.0454971349773627 2.5847558966194466
v -3.5178837519857833 -3.4996449049100598 2.6615409556330238
v -3.1240129304922939 -3.7430704597698785 2.811986222266694
v -3.2193225495179245 -8.2015291272599136 3.4567411196700895
v -2.7902917116491941 -7.6704754478154422 2.9887410239482723
v -3.3524936347318404 -8.2279476877778439 3.0609314030526109
v -2.4714606045491418 -6.2436011364390378 2.2466750738179968
v -2.5345141882717956 -7.0008411980551433 2.5748842975653714
v -3.7042771129203258 -8.1238062601433292 2.2947104473991371
v -2.9449282685793237 -7.6545028650226365 2.5847558966194466
v -3.5178837519857833 -8.2003550950899395 2.6615409556330238
v -3.1240129304922939 -7.9569295402301208 2.811986222266694
v -4.672647475699927 -7.303324926182003 1.105211992410176
v -3.9154074140838224 -6.9751157024346284 1.1682655761328298
v -4.4271800151915768 -7.5637549774071253 1.3220523122221559
v -4.6712824980827721 -6.9246863804597361 0.92708619816596194
v -2.7147194848790521 -6.0932588803299099 1.8530739373789584
v -3.2457731643235235 -6.5612589760517279 1.4240430995102282
v -2.6883009243611218 -6.4890685969473889 1.9862450225928743
v -3.9510045087584125 -7.9713203435596416 1.8954971349773628
v -3.6609590595381025 -7.2119714992186399 1.4261937398566706
v -4.1782348344056599 -7.7922356816466714 1.5930704597698795
v -3.5261222884476222 -7.7897333753931948 2.0072373647026858
v -4.0277895677719897 -7.3983648601531833 1.3496449049100607
v -4.6670352997171918 -6.0967273958380863 0.73693497821458687
v -3.9076864553761896 -6.566030790958779 1.0269804274348964
v -4.6678711816552587 -6.5103510824198771 0.80082220779268276
v -4.2740003601617689 -6.7537766372796959 0.95126747442635295
v -2.7924423519956365 -7.2552895526008632 2.3380285007813599
v -3.2617457471163287 -6.9652441033805532 1.5786796564403578
v -2.7158935170490266 -6.888459044366976 2.151635139846817
v -3.1265152367457709 -7.5427626352973141 2.1598736763086563
v -2.9593190719088454 -6.7380137777333058 1.7577643183533282
v -3.3734859768416516 -7.3901263236913435 1.7602666246068051
v -4.672647475699927 -4.3966750738179963 1.105211992410176
v -3.9154074140838224 -4.7248842975653709 1.1682655761328298
v -4.4271800151915768 -4.136245022592874 1.3220523122221559
v -4.6712824980827721 -4.7753136195402632 0.92708619816596194
v -2.7147194848790521 -5.6067411196700894 1.8530739373789584
v -3.2457731643235235 -5.1387410239482714 1.4240430995102282
v -2.6883009243611218 -5.2109314030526104 1.9862450225928743
v -2.9324034072523171 -5.8499999999999996 1.5912789085366805
v -3.9510045087584125 -3.7286796564403573 1.8954971349773628
v -3.6609590595381025 -4.4880285007813594 1.4261937398566706
v -4.1782348344056599 -3.9077643183533279 1.5930704597698795
v -3.5261222884476222 -3.9102666246068045 2.0072373647026858
v -4.0277895677719897 -4.301635139846816 1.3496449049100607
v -4.6670352997171918 -5.603272604161913 0.73693497821458687
v -3.9076864553761896 -5.1339692090412203 1.0269804274348964
v -4.6678711816552587 -5.1896489175801221 0.80082220779268276
v -4.2670345087352635 -5.8499999999999996 0.80841620959713234
v -4.2740003601617689 -4.9462233627203034 0.95126747442635295
v -2.7924423519956365 -4.4447104473991361 2.3380285007813599
v -3.2617457471163287 -4.7347558966194461 1.5786796564403578
v -2.7158935170490266 -4.8115409556330233 2.151635139846817
v -3.1265152367457709 -4.1572373647026852 2.1598736763086563
v -2.9593190719088454 -4.9619862222666935 1.7577643183533282
v -3.3734859768416516 -4.3098736763086558 1.7602666246068051
v -3.5084731429544154 -6.3193033951206923 1.179466344018584
v -3.5084731429544154 -5.380696604879307 1.179466344018584
v -3.205529864298625 -6.0934255548598184 1.3593868878696203
v -3.8674274570334126 -6.0969707400958804 0.96105252120310292
v -3.205529864298625 -5.6065744451401809 1.3593868878696203
v -3.8674274570334126 -5.6030292599041189 0.96105252120310292
v -3.2193225495179245 -3.4984708727400857 3.9432588803299109
v -2.7902917116491941 -4.0295245521845571 4.4112589760517285
v -3.3524936347318404 -3.4720523122221554 4.3390685969473894
v -2.9575275206756464 -3.7161547951133507 3.7000000000000002
v -2.4714606045491418 -5.4563988635609615 5.1533249261820036
v -2.5345141882717956 -4.699158801944856 4.825115702434629
v -3.7042771129203258 -3.5761937398566701 5.1052895526008637
v -2.9449282685793237 -4.0454971349773627 4.8152441033805538
v -3.5178837519857833 -3.4996449049100598 4.7384590443669765
v -3.1240129304922939 -3.7430704597698785 4.5880137777333063
v -2.5457149561575498 -4.2922245308154494 3.2306966048793075
v -2.5457149561575498 -4.2922245308154494 4.1693033951206928
v -2.7256355000085861 -3.9892812521596586 3.4565744451401814
v -2.7256355000085861 -3.9892812521596586 3.9434255548598189
v -3.2193225495179245 -8.2015291272599136 3.9432588803299109
v -2.7902917116491941 -7.6704754478154422 4.4112589760517285
v -3.3524936347318404 -8.2279476877778439 4.3390685969473894
v -2.9575275206756464 -7.9838452048866486 3.7000000000000002
v -2.4714606045491418 -6.2436011364390378 5.1533249261820036
v -2.5345141882717956 -7.0008411980551433 4.825115702434629
v -3.7042771129203258 -8.1238062601433292 5.1052895526008637
v -2.9449282685793237 -7.6545028650226365 4.8152441033805538
v -3.5178837519857833 -8.2003550950899395 4.7384590443669765
v -3.1240129304922939 -7.9569295402301208 4.5880137777333063
v -2.5457149561575498 -7.4077754691845499 3.2306966048793075
v -2.5457149561575498 -7.4077754691845499 4.1693033951206928
v -2.7256355000085861 -7.7107187478403407 3.4565744451401814
v -2.7256355000085861 -7.7107187478403407 3.9434255548598189
v -4.672647475699927 -7.303324926182003 6.2947880075898244
v -3.9154074140838224 -6.9751157024346284 6.2317344238671701
v -4.4271800151915768 -7.5637549774071253 6.0779476877778444
v -4.6712824980827721 -6.9246863804597361 6.4729138018340384
v -2.7147194848790521 -6.0932588803299099 5.5469260626210417
v -3.2457731643235235 -6.5612589760517279 5.9759569004897717
v -2.6883009243611218 -6.4890685969473889 5.4137549774071259
v -3.9510045087584125 -7.9713203435596416 5.5045028650226371
v -3.6609590595381025 -7.2119714992186399 5.9738062601433297
v -4.1782348344056599 -7.7922356816466714 5.8069295402301204
v -3.5261222884476222 -7.7897333753931948 5.3927626352973146
v -4.0277895677719897 -7.3983648601531833 6.0503550950899392
v -4.6670352997171918 -6.0967273958380863 6.6630650217854139
v -3.9076864553761896 -6.566030790958779 6.373019572565104
v -4.6678711816552587 -6.5103510824198771 6.5991777922073176
v -4.2740003601617689 -6.7537766372796959 6.4487325255736474
v -2.7924423519956365 -7.2552895526008632 5.0619714992186404
v -3.2617457471163287 -6.9652441033805532 5.821320343559643
v -2.7158935170490266 -6.888459044366976 5.2483648601531829
v -3.1265152367457709 -7.5427626352973141 5.240126323691344
v -2.9593190719088454 -6.7380137777333058 5.6422356816466719
v -3.3734859768416516 -7.3901263236913435 5.6397333753931953
v -4.672647475699927 -4.3966750738179963 6.2947880075898244
v -3.9154074140838224 -4.7248842975653709 6.2317344238671701
v -4.4271800151915768 -4.136245022592874 6.0779476877778444
v -4.6712824980827721 -4.7753136195402632 6.4729138018340384
v -2.7147194848790521 -5.6067411196700894 5.5469260626210417
v -3.2457731643235235 -5.1387410239482714 5.9759569004897717
v -2.6883009243611218 -5.2109314030526104 5.4137549774071259
v -2.9324034072523171 -5.8499999999999996 5.8087210914633198
v -3.9510045087584125 -3.7286796564403573 5.5045028650226371
v -3.6609590595381025 -4.4880285007813594 5.9738062601433297
v -4.1782348344056599 -3.9077643183533279 5.8069295402301204
v -3.5261222884476222 -3.9102666246068045 5.3927626352973146
v -4.0277895677719897 -4.301635139846816 6.0503550950899392
v -4.6670352997171918 -5.603272604161913 6.6630650217854139
v -3.9076864553761896 -5.1339692090412203 6.373019572565104
v -4.6678711816552587 -5.1896489175801221 6.5991777922073176
v -4.2670345087352635 -5.8499999999999996 6.5915837904028685
v -4.2740003601617689 -4.9462233627203034 6.4487325255736474
v -2.7924423519956365 -4.4447104473991361 5.0619714992186404
v -3.2617457471163287 -4.7347558966194461 5.821320343559643
v -2.7158935170490266 -4.8115409556330233 5.2483648601531829
v -3.1265152367457709 -4.1572373647026852 5.240126323691344
v -2.9593190719088454 -4.9619862222666935 5.6422356816466719
v -3.3734859768416516 -4.3098736763086558 5.6397333753931953
v -3.5084731429544154 -6.3193033951206923 6.2205336559814164
v -3.5084731429544154 -5.380696604879307 6.2205336559814164
v -3.205529864298625 -6.0934255548598184 6.0406131121303801
v -3.8674274570334126 -6.0969707400958804 6.4389474787968979
v -3.205529864298625 -5.6065744451401809 6.0406131121303801
v -3.8674274570334126 -5.6030292599041189 6.4389474787968979
v -2.321118348440014 -5.8499999999999996 2.4899339541479071
v -2.0949319662683803 -5.8499999999999996 3.2861432736170988
v -2.2933348103049278 -5.4550338859438057 2.6253136195402633
v -2.2933348103049278 -6.2449661140561936 2.6253136195402633
v -2.321118348440014 -5.8499999999999996 4.9100660458520933
v -2.0949319662683803 -5.8499999999999996 4.1138567263829016
v -2.2933348103049278 -5.4550338859438057 4.7746863804597375
v -2.2933348103049278 -6.2449661140561936 4.7746863804597375
v -2.3932290395738622 -4.6914378432372228 2.9839692090412209
v -2.1031835903535527 -5.4507866875782254 3.4532726041619131
v -2.3175160865653188 -5.0577517480228025 2.7962233627203039
v -2.3273011333420688 -4.6511788448944458 3.4530292599041195
v -2.1670708199316486 -5.4516225695162923 3.0396489175801227
v -2.3932290395738622 -7.0085621567627765 2.9839692090412209
v -2.1031835903535527 -6.2492133124217739 3.4532726041619131
v -2.3175160865653188 -6.6422482519771968 2.7962233627203039
v -2.3273011333420688 -7.0488211551055535 3.4530292599041195
v -2.1670708199316486 -6.248377430483707 3.0396489175801227
v -2.3932290395738622 -4.6914378432372228 4.4160307909587795
v -2.1031835903535527 -5.4507866875782254 3.9467273958380873
v -2.3175160865653188 -5.0577517480228025 4.6037766372796964
v -2.3273011333420688 -4.6511788448944458 3.9469707400958809
v -2.1670708199316486 -5.4516225695162923 4.3603510824198777
v -2.1746648217360982 -5.0507858965962971 3.7000000000000002
v -2.3932290395738622 -7.0085621567627765 4.4160307909587795
v -2.1031835903535527 -6.2492133124217739 3.9467273958380873
v -2.3175160865653188 -6.6422482519771968 4.6037766372796964
v -2.3273011333420688 -7.0488211551055535 3.9469707400958809
v -2.1670708199316486 -6.248377430483707 4.3603510824198777
v -2.1746648217360982 -6.6492141034037022 3.7000000000000002
v -11.01789479116438 -5.9032643097005222 0.8413353633793561
v -10.927057802427617 -6.0636140197568755 0.82525282213367068
v -11.993636742752461 -3.513349747738042 3.9577265036798197
v -11.99432522075241 -3.5108619079194323 3.929412063757542
v -11.462910637301423 -4.9766162299507917 6.2310726509250571
v -11.515994348572628 -4.8568612961967066 6.1619804244486023
v -11.431686429927444 -5.047056913091625 6.2717131780428526
v -11.99432522075241 -3.5108619079194323 3.4705879362424579
v -9.4043953795794746 -8.2292825156857443 1.8911587680039894
v -9.2618890669369893 -8.3944869355877323 2.1127912247536202
v -9.2547813300942199 -8.4019524250561197 2.1228066636425993
v -10.879020861891258 -6.1484110786875856 0.82129355438242446
v -10.810642054518256 -6.2691165543835474 0.81565768324080423
v -11.993636742752461 -3.513349747738042 3.4422734963201802
v -11.307622035036415 -5.3269417032772539 6.4001424803503744
v -11.371204619733001 -5.1835016905895301 6.3424068154211222
v -10.721969932180922 -6.4256447408041373 0.82335302424626855
v -9.0768137819159804 -8.5888775864724973 2.5010374223770784
v -9.1189832607471271 -8.5445855977473286 2.4114154989589531
v -9.0767472388914072 -8.5889474787968947 2.5011788448944463
v -10.441235510975581 -6.8690402537090165 0.90243792834602321
v -10.529063396067546 -6.7303448668698262 0.86786282251553792
v -9.6626306670342128 -7.9299160520455647 1.5422032556501981
v -9.6579661989882801 -7.9353234668006793 1.5466995490252011
v -9.8444578394038018 -7.6969260626210412 1.3484708727400863
v -11.76930081478776 -4.2111231674027509 5.5931611880043768
v -11.747312628636555 -4.2681253965416301 5.6630808100008148
v -11.777759897045192 -4.1855171599406251 5.5628768215552196
v -9.6377832691535712 -7.9587210914633184 1.5661547951133512
v -8.8825411480250036 -8.792928514973724 4.2118949002526094
v -8.8633695998021942 -8.8130650217854125 4.0992133124217744
v -10.564525808168199 -6.6743435984867725 0.85753996938864374
v -10.629697177270343 -6.5714267601842575 0.83856905253700564
v -10.053509237407981 -7.4271933363573996 1.1480475749438799
v -10.132497224277934 -7.3150390123154478 1.0890333570603445
v -8.931425389582019 -8.741583790402867 4.4992141034037019
v -11.371204619733001 -5.1835016905895301 1.0575931845788789
v -11.307622035036415 -5.3269417032772539 0.99985751964962644
v -9.0767472388914072 -8.5889474787968947 4.8988211551055523
v -8.9634013285237373 -8.70799841144302 4.5871417670456269
v -10.721607625003401 -6.4262843024152696 0.82342947761164453
v -9.8639125711596503 -7.6719971277045458 1.3299475759354276
v -9.864718508287611 -7.6709644147141143 1.3291802246907847
v -11.431189643161838 -5.0481776460769474 1.1277061570704798
v -11.431686429927444 -5.047056913091625 1.1282868219571482
v -10.393370153781818 -6.9446279127450241 0.92713884849176176
v -10.369212755321531 -6.9789287830708684 0.93821819392852623
v -9.2547813300942199 -8.4019524250561197 5.2771933363574002
v -9.2243513955130769 -8.433913984855625 5.2125212241510805
v -11.515994348572628 -4.8568612961967066 1.2380195755513981
v -10.257611239732448 -7.1373907598719635 1.0026590377356932
v -10.040094143508064 -7.4462413061554162 1.1622010555990574
v -11.949494562799341 -3.6656689070237447 2.7641494318875655
v -11.911126557656686 -3.7818105162540467 2.4571497737173238
v -9.1027582685052248 -8.5616272400289866 4.9541018597452906
v -8.8825411480250036 -8.792928514973724 3.1881050997473914
v -8.931425389582019 -8.741583790402867 2.900785896596298
v -10.22578160596882 -7.1825853673144842 1.0246330982811773
v -11.835446658398761 -4.010896841006204 2.0694302587327718
v -11.876467126321137 -3.8867261123438435 2.2737185483458346
v -11.904152206358031 -3.802922178957171 2.4115945389181603
v -8.8633695998021942 -8.8130650217854125 3.3007866875782268
v -10.927057802427617 -6.0636140197568755 6.5747471778663309
v -11.01789479116438 -5.9032643097005222 6.5586646366206436
v -11.907206758978987 -3.7936759162036671 2.4291218243288797
v -9.6184162906091153 -7.9811728018217067 1.5925988102509854
v -10.810642054518256 -6.2691165543835474 6.5843423167591961
v -10.92252097476978 -6.0716226405800322 6.575121109162497
v -9.4377518364831641 -8.1906131121303787 1.8392812521596593
v -9.4801073775114517 -8.1415112691631286 1.7814482471019122
v -10.721969932180922 -6.4256447408041373 6.5766469757537322
v -11.638480947511043 -4.5502609207010707 5.9353445094307924
v -11.690964674259378 -4.4142019753384059 5.8090981318777839
v -11.701661795700709 -4.386470730781352 5.7833668639994915
v -9.6626306670342164 -7.9299160520455665 5.8577967443498027
v -9.6377832691535712 -7.9587210914633184 5.8338452048866491
v -9.8231956246080152 -7.7241710730111484 6.0288747600129655
v -11.096721277732728 -5.7480182423865003 6.5285555979652719
v -11.024015804354438 -5.8924592103249704 6.5563266176276294
v -11.548494156391087 -4.783542904563622 6.1085152592633092
v -11.582782505114722 -4.6946537030033859 6.0466108777776109
v -9.8444578394038018 -7.6969260626210412 6.0515291272599141
v -11.206517467683046 -5.5298906762559019 6.4736967903022986
v -9.4718124000385391 -8.1511274532893054 5.6072256439050649
v -9.4377518364831641 -8.1906131121303787 5.5607187478403413
v -11.965817055989648 -3.6138771784982593 4.4693425925986432
v -11.961754196652612 -3.6285584656807761 4.5154239010743833
v -11.978087685011474 -3.5695368226958091 4.2826876668138052
v -11.978087685011474 -3.5695368226958091 3.1173123331861952
v -11.965817055989648 -3.6138771784982593 2.9306574074013558
v -11.961754196652612 -3.6285584656807761 2.8845760989256166
v -9.5190827152898549 -8.0963280211457693 5.6717693686372019
v -11.907206758978987 -3.7936759162036671 4.9708781756711202
v -11.911126557656686 -3.7818105162540467 4.942850226282677
v -11.299866164043044 -5.3444386678785216 6.4061188690357795
v -11.206584937066996 -5.5297566376110661 6.4736479471915302
v -11.949494562799341 -3.6656689070237447 4.6358505681124349
v -9.864718508287611 -7.6709644147141143 6.070819775309217
v -11.8898705976159 -3.846153225646757 5.0595300866802972
v -11.904152206358031 -3.802922178957171 4.9884054610818405
v -11.835446658398761 -4.010896841006204 5.3305697412672295
v -9.909048519596837 -7.6141607547796557 6.1130273969377109
v -10.040094143508064 -7.4462413061554162 6.237798944400943
v -10.053509237407981 -7.4271933363573996 6.2519524250561203
v -10.132497224277934 -7.3150390123154478 6.3109666429396567
v -10.611287602184515 -6.6004986561476029 6.5560720525519507
v -10.629697177270343 -6.5714267601842575 6.5614309474629948
v -10.529063396067546 -6.7303448668698262 6.5321371774844632
v -8.8532697542209888 -8.8236732213413021 3.9845541278695689
v -8.8388347648318479 -8.8388347648318426 3.8206799281036994
v -8.8271075515987381 -8.8499999999999996 3.7000000000000006
v -11.638480947511043 -4.5502609207010707 1.4646554905692082
v -11.582782505114722 -4.6946537030033859 1.3533891222223886
v -10.721607625003401 -6.4262843024152696 6.5765705223883559
v -8.8532697542209888 -8.8236732213413021 3.4154458721304315
v -10.441235510975581 -6.8690402537090165 6.4975620716539773
v -11.548494156391087 -4.783542904563622 1.2914847407366925
v -8.8388347648318479 -8.8388347648318426 3.5793200718963019
v -11.667366177954102 -4.4753787765750399 1.5341371362935314
v -11.701661795700709 -4.386470730781352 1.616633136000508
v -10.393370153781818 -6.9446279127450241 6.4728611515082388
v -10.369212755321531 -6.9789287830708684 6.4617818060714729
v -11.777759897045192 -4.1855171599406251 1.8371231784447803
v -11.76930081478776 -4.2111231674027509 1.8068388119956231
v -8.9634013285237373 -8.70799841144302 2.8128582329543734
v -10.273312899808996 -7.1150961155595143 6.4064074002886047
v -10.257611239732448 -7.1373907598719635 6.397340962264308
v -11.747312628636555 -4.2681253965416301 1.7369191899991863
v -9.2845623191601376 -8.3682023351980366 5.3224712734441058
v -11.096721277732728 -5.7480182423865003 0.87144440203472806
v -11.024015804354438 -5.8924592103249704 0.84367338237237133
v -9.2618890669369893 -8.3944869355877323 5.2872087752463806
v -11.168196971565662 -5.606020426794462 0.90715667349271611
v -11.206517467683046 -5.5298906762559019 0.92630320969770275
v -11.299866164043044 -5.3444386678785216 0.99388113096422082
f 158 361 352
f 182 384 371
f 181 369 367
f 181 383 369
f 410 414 190
f 65 73 72
f 65 72 8
f 20 73 65
f 310 333 330
f 83 86 25
f 72 83 8
f 72 86 83
f 66 74 3
f 4 55 31
f 296 298 164
f 164 298 297
f 321 332 164
f 164 332 296
f 284 298 296
f 284 296 126
f 295 297 262
f 123 295 262
f 295 321 164
f 164 297 295
f 285 294 292
f 283 285 236
f 261 286 283
f 297 298 286
f 430 432 194
f 418 432 430
f 300 303 165
f 165 304 300
f 292 294 163
f 280 302 299
f 302 304 165
f 299 302 165
f 349 351 201
f 240 244 121
f 261 283 112
f 112 283 236
f 2 94 48
f 35 94 2
f 70 71 51
f 78 81 70
f 420 440 132
f 192 443 420
f 420 443 440
f 361 362 352
f 182 374 372
f 372 374 365
f 371 374 182
f 204 365 363
f 369 383 381
f 371 380 130
f 371 384 380
f 131 404 394
f 187 397 394
f 187 396 393
f 189 408 404
f 404 408 394
f 187 408 396
f 394 408 187
f 367 392 181
f 392 411 181
f 131 410 390
f 390 404 131
f 404 407 189
f 390 407 404
f 186 407 390
f 189 407 405
f 409 411 190
f 130 409 376
f 420 437 192
f 416 424 132
f 36 100 11
f 11 44 36
f 382 384 373
f 373 384 182
f 153 286 261
f 153 297 286
f 262 297 153
f 8 83 67
f 3 74 53
f 17 59 53
f 167 333 310
f 55 60 18
f 56 61 7
f 51 56 7
f 7 70 51
f 7 78 70
f 161 298 284
f 286 298 161
f 283 286 161
f 284 294 161
f 161 294 285
f 161 285 283
f 291 294 284
f 163 294 291
f 291 304 163
f 300 304 291
f 126 291 284
f 126 300 291
f 418 430 159
f 159 430 278
f 179 361 359
f 179 362 361
f 278 430 428
f 428 430 194
f 280 299 125
f 125 299 278
f 125 428 359
f 278 428 125
f 234 243 240
f 234 240 121
f 203 211 209
f 201 203 199
f 199 203 134
f 203 209 134
f 171 333 331
f 330 333 171
f 331 333 312
f 312 333 167
f 309 312 167
f 296 329 126
f 296 332 329
f 329 332 171
f 171 331 329
f 163 304 293
f 293 304 302
f 276 282 158
f 281 282 276
f 230 375 120
f 240 243 147
f 239 242 147
f 192 437 421
f 173 405 391
f 405 407 391
f 391 407 186
f 367 369 353
f 115 367 353
f 429 432 416
f 440 444 429
f 194 432 429
f 429 444 194
f 132 429 416
f 132 440 429
f 196 443 441
f 442 444 196
f 440 443 196
f 196 444 440
f 229 366 143
f 363 366 229
f 184 384 382
f 381 383 184
f 184 383 380
f 380 384 184
f 368 383 181
f 380 383 368
f 130 380 368
f 368 409 130
f 181 411 368
f 368 411 409
f 216 225 222
f 395 397 187
f 393 395 187
f 219 395 393
f 396 408 406
f 406 408 189
f 186 413 392
f 410 413 390
f 390 413 186
f 190 413 410
f 411 413 190
f 392 413 411
f 340 405 173
f 190 414 412
f 190 412 409
f 409 412 376
f 412 414 401
f 415 418 277
f 159 289 277
f 277 418 159
f 434 437 420
f 424 438 434
f 132 434 420
f 424 434 132
f 231 385 111
f 222 225 141
f 31 39 37
f 31 37 4
f 136 213 205
f 205 372 136
f 136 372 365
f 136 365 204
f 205 213 212
f 205 212 118
f 118 212 208
f 135 211 203
f 135 203 201
f 201 351 135
f 351 357 135
f 355 373 370
f 118 370 205
f 355 370 118
f 370 372 205
f 182 372 370
f 370 373 182
f 212 213 138
f 204 206 136
f 206 213 136
f 204 363 110
f 110 363 229
f 25 85 83
f 83 85 67
f 250 305 113
f 321 334 332
f 171 334 330
f 332 334 171
f 310 330 127
f 56 63 61
f 18 63 56
f 60 63 18
f 7 61 54
f 54 78 7
f 17 80 54
f 54 80 78
f 151 260 256
f 254 260 151
f 84 87 25
f 25 87 85
f 299 301 278
f 278 301 159
f 159 301 289
f 165 301 299
f 301 303 289
f 165 303 301
f 431 442 179
f 359 431 179
f 431 444 442
f 428 431 359
f 194 444 431
f 194 431 428
f 275 280 125
f 275 282 280
f 158 282 275
f 125 359 275
f 275 361 158
f 359 361 275
f 134 235 199
f 199 235 233
f 200 209 207
f 134 209 200
f 200 207 117
f 117 239 200
f 145 243 234
f 235 243 145
f 233 235 145
f 234 281 145
f 145 276 233
f 145 281 276
f 288 303 300
f 329 331 288
f 288 300 126
f 126 329 288
f 279 281 234
f 121 279 234
f 160 282 281
f 293 302 160
f 160 302 280
f 280 282 160
f 160 281 279
f 279 293 160
f 158 352 274
f 274 276 158
f 274 352 349
f 233 276 274
f 244 245 237
f 121 244 237
f 29 106 103
f 103 106 92
f 49 103 6
f 6 103 92
f 49 105 103
f 103 105 29
f 98 100 36
f 35 96 94
f 100 102 96
f 11 100 96
f 11 96 35
f 28 102 100
f 28 100 98
f 98 101 28
f 6 92 47
f 92 93 47
f 47 93 14
f 394 397 386
f 386 397 185
f 131 394 386
f 231 388 385
f 385 388 185
f 51 71 16
f 9 39 31
f 12 45 42
f 39 40 12
f 12 42 37
f 37 39 12
f 38 45 12
f 12 40 38
f 147 246 240
f 242 246 147
f 240 246 244
f 192 421 419
f 353 419 115
f 173 391 339
f 339 421 173
f 115 419 339
f 419 421 339
f 389 391 186
f 186 392 389
f 339 389 115
f 339 391 389
f 115 389 367
f 389 392 367
f 369 381 177
f 353 369 177
f 176 351 349
f 349 352 176
f 352 362 176
f 356 382 178
f 178 382 373
f 355 357 178
f 178 373 355
f 379 382 356
f 184 382 379
f 379 381 184
f 129 379 356
f 183 401 375
f 183 412 401
f 376 412 183
f 180 366 363
f 365 374 180
f 363 365 180
f 219 393 119
f 222 226 119
f 119 226 219
f 216 222 119
f 139 225 216
f 393 396 341
f 119 393 341
f 119 341 216
f 226 227 219
f 142 227 226
f 403 405 340
f 189 405 403
f 403 406 189
f 128 403 340
f 340 433 128
f 128 433 346
f 310 327 167
f 287 312 309
f 277 289 287
f 416 427 424
f 124 423 269
f 345 423 124
f 271 326 157
f 175 426 345
f 345 426 423
f 345 347 175
f 338 347 155
f 222 228 226
f 226 228 142
f 141 228 222
f 133 217 197
f 217 225 139
f 197 249 133
f 249 255 133
f 247 267 149
f 149 249 247
f 108 247 197
f 247 249 197
f 335 337 172
f 172 338 335
f 337 344 172
f 202 357 355
f 135 357 202
f 202 355 118
f 118 208 202
f 208 211 202
f 202 211 135
f 67 85 21
f 23 76 74
f 74 76 53
f 53 76 17
f 76 80 17
f 258 260 254
f 113 305 263
f 305 308 263
f 263 308 154
f 166 308 305
f 318 321 295
f 264 318 123
f 123 318 295
f 330 334 319
f 127 330 319
f 127 319 306
f 170 326 323
f 323 326 271
f 269 323 124
f 124 323 271
f 133 255 198
f 116 221 198
f 74 77 23
f 77 87 23
f 66 77 74
f 85 87 77
f 21 77 66
f 21 85 77
f 23 87 75
f 75 87 84
f 70 81 22
f 22 71 70
f 147 243 241
f 241 243 235
f 147 241 239
f 134 241 235
f 239 241 200
f 200 241 134
f 109 201 199
f 109 349 201
f 199 233 109
f 233 274 109
f 274 349 109
f 146 292 237
f 285 292 146
f 236 285 146
f 237 245 146
f 146 238 236
f 146 245 238
f 290 293 279
f 237 292 290
f 121 290 279
f 237 290 121
f 290 292 163
f 163 293 290
f 15 105 49
f 94 97 48
f 48 97 15
f 97 105 15
f 95 102 99
f 99 102 28
f 144 388 231
f 401 414 188
f 50 52 16
f 50 68 1
f 50 69 68
f 16 71 69
f 16 69 50
f 43 45 38
f 36 44 43
f 43 44 13
f 13 45 43
f 5 98 36
f 36 43 5
f 5 43 38
f 148 245 244
f 244 246 148
f 422 443 192
f 419 422 192
f 441 443 422
f 353 422 419
f 177 441 422
f 177 422 353
f 176 358 351
f 178 358 356
f 351 358 357
f 357 358 178
f 179 442 360
f 360 362 179
f 196 441 439
f 439 442 196
f 360 442 439
f 360 439 129
f 354 379 129
f 177 381 354
f 354 381 379
f 129 439 354
f 354 441 177
f 439 441 354
f 375 377 183
f 366 377 143
f 143 377 230
f 230 377 375
f 183 378 376
f 180 378 366
f 366 378 377
f 377 378 183
f 364 371 130
f 130 376 364
f 364 374 371
f 180 374 364
f 376 378 364
f 364 378 180
f 139 337 215
f 215 337 335
f 215 335 108
f 215 217 139
f 197 215 108
f 197 217 215
f 111 385 218
f 128 346 336
f 172 344 336
f 175 348 346
f 338 348 347
f 347 348 175
f 172 348 338
f 336 348 172
f 346 348 336
f 434 438 195
f 195 437 434
f 309 311 268
f 167 311 309
f 167 327 311
f 288 331 162
f 162 331 312
f 162 312 287
f 162 303 288
f 289 303 162
f 287 289 162
f 114 415 277
f 114 309 268
f 268 415 114
f 277 287 114
f 287 309 114
f 157 326 316
f 157 316 270
f 166 317 306
f 170 328 326
f 316 328 168
f 326 328 316
f 268 417 415
f 191 427 416
f 416 432 191
f 415 417 191
f 417 427 191
f 191 432 418
f 191 418 415
f 193 438 424
f 424 427 193
f 426 438 193
f 423 426 193
f 157 273 271
f 155 273 267
f 270 272 157
f 267 272 149
f 267 273 272
f 272 273 157
f 248 272 270
f 149 272 248
f 155 267 265
f 265 267 247
f 108 265 247
f 265 338 155
f 335 338 265
f 108 335 265
f 124 271 266
f 271 273 266
f 266 273 155
f 266 345 124
f 266 347 345
f 155 347 266
f 224 228 141
f 221 224 141
f 141 225 223
f 223 225 217
f 141 223 221
f 133 223 217
f 221 223 198
f 198 223 133
f 255 257 151
f 249 257 255
f 151 257 254
f 149 257 249
f 254 257 248
f 248 257 149
f 343 344 337
f 139 343 337
f 216 343 139
f 341 343 216
f 122 254 248
f 122 258 254
f 248 270 122
f 61 63 19
f 166 322 308
f 306 322 166
f 319 322 306
f 198 255 253
f 151 256 253
f 253 255 151
f 198 253 116
f 76 82 80
f 23 82 76
f 75 82 23
f 79 82 75
f 27 97 94
f 27 102 95
f 94 96 27
f 96 102 27
f 398 401 188
f 375 401 398
f 120 398 232
f 375 398 120
f 188 414 399
f 399 414 410
f 399 410 131
f 386 399 131
f 56 58 18
f 52 58 16
f 51 58 56
f 16 58 51
f 18 57 55
f 18 58 57
f 57 58 52
f 9 57 52
f 55 57 31
f 31 57 9
f 32 89 10
f 89 91 10
f 30 52 50
f 30 50 1
f 9 52 30
f 1 32 30
f 88 89 32
f 1 88 32
f 68 88 1
f 176 362 350
f 350 362 360
f 350 360 129
f 129 356 350
f 356 358 350
f 350 358 176
f 140 395 219
f 219 227 140
f 41 44 11
f 35 41 11
f 387 397 395
f 385 387 218
f 185 397 387
f 185 387 385
f 387 395 140
f 218 387 140
f 336 344 342
f 342 406 403
f 342 403 128
f 336 342 128
f 195 438 436
f 195 436 433
f 433 436 346
f 436 438 426
f 346 436 175
f 175 436 426
f 421 437 435
f 435 437 195
f 433 435 195
f 421 435 173
f 173 435 340
f 340 435 433
f 268 311 156
f 156 417 268
f 170 327 324
f 324 328 170
f 324 327 310
f 127 324 310
f 314 317 168
f 168 328 314
f 306 317 314
f 314 328 324
f 306 314 127
f 314 324 127
f 341 396 174
f 174 343 341
f 396 406 174
f 174 344 343
f 174 406 342
f 342 344 174
f 209 211 137
f 137 211 208
f 137 210 207
f 207 209 137
f 270 316 313
f 270 313 122
f 313 316 168
f 152 260 258
f 19 62 61
f 17 62 59
f 54 62 17
f 61 62 54
f 308 322 320
f 308 320 154
f 154 320 264
f 264 320 318
f 319 334 169
f 169 322 319
f 169 334 321
f 320 322 169
f 169 321 318
f 318 320 169
f 80 82 24
f 24 81 78
f 78 80 24
f 24 82 79
f 104 107 95
f 95 107 27
f 27 107 97
f 29 107 104
f 105 107 29
f 97 107 105
f 232 400 144
f 398 400 232
f 144 400 388
f 188 400 398
f 185 402 386
f 386 402 399
f 388 402 185
f 399 402 188
f 400 402 388
f 188 402 400
f 10 91 33
f 5 38 33
f 38 40 33
f 33 40 10
f 34 39 9
f 30 34 9
f 34 40 39
f 32 34 30
f 10 34 32
f 10 40 34
f 140 227 220
f 140 220 218
f 269 325 323
f 156 325 269
f 311 325 156
f 323 325 170
f 325 327 170
f 311 327 325
f 423 425 269
f 269 425 156
f 156 425 417
f 193 425 423
f 425 427 417
f 193 427 425
f 208 214 137
f 137 214 210
f 212 214 208
f 138 214 212
f 168 317 315
f 168 315 313
f 258 259 152
f 33 91 90
f 26 101 90
f 90 91 26
f 90 101 98
f 90 98 5
f 33 90 5
f 250 307 305
f 315 317 307
f 305 307 166
f 307 317 166
f 313 315 251
f 251 259 258
f 251 258 122
f 122 313 251
f 251 315 150
f 150 307 250
f 150 315 307
f 150 259 251
f 250 252 150
f 252 259 150
f 123 262 65
f 8 123 65
f 64 261 112
f 153 261 64
f 20 153 64
f 65 262 153
f 65 153 20
f 120 232 49
f 6 120 49
f 48 231 111
f 48 111 2
f 46 143 14
f 46 229 143
f 110 229 46
f 3 250 113
f 53 250 3
f 8 264 123
f 67 264 8
f 256 260 63
f 60 256 63
f 37 221 116
f 37 116 4
f 47 120 6
f 47 230 120
f 14 143 47
f 143 230 47
f 44 227 13
f 13 227 142
f 142 228 13
f 13 228 45
f 21 264 67
f 154 264 21
f 113 263 3
f 3 263 66
f 21 263 154
f 66 263 21
f 144 231 48
f 15 144 48
f 49 232 144
f 49 144 15
f 2 218 35
f 111 218 2
f 45 228 224
f 45 224 42
f 42 224 37
f 37 224 221
f 53 252 250
f 59 252 53
f 55 253 60
f 253 256 60
f 116 253 4
f 4 253 55
f 63 260 152
f 63 152 19
f 220 227 44
f 41 220 44
f 218 220 35
f 35 220 41
f 59 259 252
f 62 259 59
f 152 259 19
f 19 259 62
f 86 446 445
f 88 448 447
f 95 451 104
f 95 450 449
f 449 451 95
f 68 452 88
f 88 452 448
f 148 455 454
f 148 454 453
f 72 457 456
f 72 446 86
f 72 456 446
f 68 458 452
f 104 460 459
f 73 461 72
f 72 461 457
f 451 460 104
f 246 464 148
f 148 464 462
f 462 463 148
f 20 466 73
f 465 466 20
f 236 468 467
f 467 469 236
f 148 463 455
f 28 472 470
f 101 472 28
f 470 471 28
f 238 468 236
f 238 473 468
f 210 475 207
f 474 475 210
f 466 476 73
f 476 477 73
f 112 478 64
f 478 479 64
f 210 480 474
f 84 482 481
f 483 484 214
f 477 485 73
f 73 485 461
f 214 484 210
f 210 484 480
f 236 469 112
f 469 486 112
f 486 487 112
f 481 488 84
f 488 489 84
f 20 491 490
f 64 491 20
f 20 490 465
f 138 493 214
f 492 493 138
f 84 489 75
f 489 494 75
f 64 495 491
f 487 496 112
f 112 496 478
f 22 498 71
f 71 498 497
f 493 499 214
f 214 499 483
f 500 501 242
f 479 502 64
f 64 502 495
f 81 504 22
f 503 504 81
f 504 505 22
f 239 506 242
f 242 506 500
f 106 508 507
f 22 509 498
f 245 510 238
f 238 510 473
f 505 509 22
f 507 512 106
f 92 512 511
f 106 512 92
f 513 514 245
f 245 514 510
f 92 515 93
f 511 515 92
f 99 518 517
f 99 517 516
f 206 521 519
f 519 520 206
f 522 523 106
f 106 523 508
f 99 525 95
f 95 525 524
f 95 524 450
f 204 526 206
f 206 526 521
f 29 527 522
f 29 522 106
f 516 525 99
f 206 529 213
f 528 529 206
f 532 533 531
f 530 532 531
f 448 532 447
f 452 532 448
f 452 533 532
f 458 533 452
f 533 535 531
f 534 535 533
f 471 518 28
f 28 518 99
f 520 536 206
f 206 536 528
f 26 538 537
f 104 459 29
f 459 539 29
f 539 540 29
f 29 540 527
f 91 541 538
f 91 538 26
f 110 526 204
f 110 542 526
f 26 543 101
f 26 544 543
f 543 545 101
f 89 531 91
f 530 531 89
f 531 541 91
f 101 545 472
f 89 532 530
f 110 548 546
f 546 548 547
f 110 546 542
f 497 535 71
f 69 535 534
f 71 535 69
f 46 548 110
f 46 549 548
f 93 551 550
f 550 552 93
f 69 534 533
f 207 475 117
f 475 553 117
f 69 458 68
f 69 533 458
f 531 535 504
f 541 543 538
f 504 543 531
f 543 544 538
f 531 543 541
f 504 535 497
f 538 544 537
f 498 504 497
f 498 505 504
f 498 509 505
f 553 554 117
f 554 555 117
f 79 557 556
f 515 558 93
f 93 558 551
f 117 506 239
f 117 559 506
f 93 552 14
f 552 560 14
f 75 557 79
f 494 561 75
f 75 561 557
f 537 544 26
f 555 562 117
f 117 562 559
f 556 563 79
f 563 564 79
f 14 566 46
f 560 565 14
f 565 566 14
f 472 545 470
f 504 568 470
f 470 545 504
f 503 567 504
f 567 568 504
f 504 545 543
f 88 447 89
f 447 532 89
f 242 569 246
f 501 569 242
f 566 570 46
f 570 571 46
f 246 569 464
f 24 567 81
f 24 572 568
f 24 568 567
f 46 571 549
f 529 573 213
f 79 564 24
f 564 572 24
f 445 575 86
f 86 575 574
f 213 573 138
f 138 573 492
f 573 576 492
f 148 513 245
f 453 513 148
f 574 577 25
f 86 574 25
f 577 578 25
f 470 568 563
f 563 568 564
f 470 563 517
f 568 572 564
f 517 518 470
f 470 518 471
f 25 482 84
f 578 579 25
f 25 579 482
f 81 567 503
f 524 563 561
f 517 563 524
f 557 563 556
f 561 563 557
f 524 525 517
f 517 525 516
f 449 561 488
f 524 561 449
f 450 524 449
f 489 561 494
f 488 561 489
f 488 579 449
f 482 488 481
f 451 539 459
f 449 539 451
f 449 579 539
f 459 460 451
f 482 579 488
f 539 579 577
f 539 577 540
f 577 579 578
f 523 577 575
f 527 540 522
f 522 577 523
f 540 577 522
f 575 577 574
f 512 523 456
f 446 575 445
f 456 575 446
f 523 575 456
f 507 523 512
f 508 523 507
f 456 558 512
f 511 558 515
f 512 558 511
f 485 558 456
f 457 485 456
f 461 485 457
f 551 558 550
f 476 485 477
f 476 558 485
f 550 558 476
f 552 565 560
f 550 565 552
f 466 490 476
f 490 550 476
f 490 565 550
f 465 490 466
f 502 570 565
f 565 570 566
f 502 565 490
f 491 495 490
f 495 502 490
f 496 547 502
f 548 549 547
f 496 502 479
f 478 496 479
f 547 570 502
f 549 570 547
f 549 571 570
f 486 546 487
f 546 547 496
f 487 546 496
f 542 546 521
f 521 546 486
f 469 521 486
f 467 521 469
f 519 521 467
f 526 542 521
f 514 536 467
f 468 510 467
f 473 510 468
f 510 514 467
f 467 536 519
f 519 536 520
f 528 573 529
f 454 576 573
f 453 573 528
f 454 573 453
f 453 528 514
f 453 514 513
f 528 536 514
f 492 576 493
f 463 499 493
f 493 576 454
f 463 493 454
f 455 463 454
f 462 499 463
f 553 559 554
f 483 499 484
f 484 499 474
f 499 500 474
f 462 500 499
f 500 569 501
f 480 484 474
f 500 559 553
f 506 559 500
f 500 553 474
f 474 553 475
f 464 569 462
f 462 569 500
f 559 562 554
f 554 562 555
