v -4.1568008646453771 -6.2230475749438785 3.7000000000000002
v -4.1568008646453771 -11.326952425056119 3.7000000000000002
v -2.5796075282879762 -10.352193336357399 6.2519524250561203
v -2.5796075282879762 -7.1978066636425977 6.2519524250561203
v -2.5796075282879762 -10.352193336357399 1.1480475749438801
v -2.5796075282879762 -7.1978066636425977 1.1480475749438801
v -5.1315599533440963 -8.7749999999999986 2.1228066636425993
v -5.1315599533440963 -8.7749999999999986 5.2771933363574011
v -2.5796075282879762 -5.7749999999999986 3.7000000000000002
v -2.5796075282879762 -11.774999999999999 3.7000000000000002
v -3.5066585114128186 -11.202050983124842 5.2000000000000011
v -3.5066585114128186 -6.3479490168751562 5.2000000000000011
v -2.5796075282879762 -8.7749999999999986 6.7000000000000002
v -3.5066585114128186 -11.202050983124842 2.1999999999999997
v -3.5066585114128186 -6.3479490168751562 2.1999999999999997
v -2.5796075282879762 -8.7749999999999986 0.70000000000000018
v -5.0066585114128186 -7.2749999999999986 2.7729490168751578
v -5.0066585114128186 -10.274999999999999 2.7729490168751578
v -4.0796075282879762 -9.7020509831248418 1.2729490168751578
v -4.0796075282879762 -7.8479490168751562 1.2729490168751578
v -5.0066585114128186 -7.2749999999999986 4.6270509831248425
v -5.0066585114128186 -10.274999999999999 4.6270509831248425
v -4.0796075282879762 -9.7020509831248418 6.1270509831248425
v -4.0796075282879762 -7.8479490168751562 6.1270509831248425
v -5.5796075282879762 -8.7749999999999986 3.7000000000000002
v -3.3994071150259915 -5.8891849266482463 3.7000000000000002
v -3.3994071150259915 -11.660815073351751 3.7000000000000002
v -3.8812732219460604 -11.363005441248557 4.4796757390232633
v -3.0614736352080456 -10.856341432681347 5.8061393343284893
v -3.0669870726373358 -11.62816954888546 4.4885966681787011
v -2.5796075282879762 -11.326952425056119 5.2771933363574011
v -3.8812732219460604 -6.1869945587514401 4.4796757390232633
v -3.0614736352080456 -6.6936585673186508 5.8061393343284893
v -3.0669870726373358 -5.9218304511145377 4.4885966681787011
v -2.5796075282879762 -6.2230475749438785 5.2771933363574011
v -2.5796075282879762 -9.5947995867380129 6.5858150733517533
v -2.5796075282879762 -7.9552004132619833 6.5858150733517533
v -3.8812732219460604 -11.363005441248557 2.920324260976737
v -3.0614736352080456 -10.856341432681347 1.5938606656715111
v -3.0669870726373358 -11.62816954888546 2.9114033318212997
v -2.5796075282879762 -11.326952425056119 2.1228066636425993
v -3.8812732219460604 -6.1869945587514401 2.920324260976737
v -3.0614736352080456 -6.6936585673186508 1.5938606656715111
v -3.0669870726373358 -5.9218304511145377 2.9114033318212997
v -2.5796075282879762 -6.2230475749438785 2.1228066636425993
v -2.5796075282879762 -9.5947995867380129 0.81418492664824749
v -2.5796075282879762 -7.9552004132619833 0.81418492664824749
v -4.660948960969324 -6.6688606656715095 3.2181338930799308
v -5.1676129695365347 -7.9953242609767354 2.3983343063419156
v -4.3429632851653963 -6.7104271192932377 2.4240237874719401
v -4.660948960969324 -10.881139334328488 3.2181338930799308
v -5.1676129695365347 -9.5546757390232617 2.3983343063419156
v -4.3429632851653963 -10.83957288070676 2.4240237874719401
v -3.3592832673112394 -10.076665693658082 1.1119945587514417
v -4.6857468626164653 -9.2568661069200679 1.6186585673186529
v -3.8555837408160363 -10.538355756877419 1.6354271192932397
v -3.3682041964666767 -9.2623795443493577 0.84683045111453925
v -4.6441804089947372 -10.05097621252806 1.9366442431225808
v -3.3592832673112394 -7.473334306341914 1.1119945587514417
v -4.6857468626164653 -8.2931338930799292 1.6186585673186529
v -3.8555837408160363 -7.0116442431225794 1.6354271192932397
v -3.3682041964666767 -8.2876204556506394 0.84683045111453925
v -4.6441804089947372 -7.4990237874719385 1.9366442431225808
v -4.1568008646453771 -8.7749999999999986 1.1480475749438805
v -4.660948960969324 -6.6688606656715095 4.1818661069200695
v -5.1676129695365347 -7.9953242609767354 5.0016656936580848
v -4.3429632851653963 -6.7104271192932377 4.9759762125280602
v -5.1315599533440963 -7.1978066636425977 3.7000000000000002
v -4.660948960969324 -10.881139334328488 4.1818661069200695
v -5.1676129695365347 -9.5546757390232617 5.0016656936580848
v -4.3429632851653963 -10.83957288070676 4.9759762125280602
v -5.1315599533440963 -10.3521933363574 3.7000000000000002
v -3.3592832673112394 -10.076665693658082 6.2880054412485586
v -4.6857468626164653 -9.2568661069200679 5.7813414326813479
v -3.8555837408160363 -10.538355756877419 5.7645728807067602
v -3.3682041964666767 -9.2623795443493577 6.5531695488854611
v -4.6441804089947372 -10.05097621252806 5.4633557568774194
v -3.3592832673112394 -7.473334306341914 6.2880054412485586
v -4.6857468626164653 -8.2931338930799292 5.7813414326813479
v -3.8555837408160363 -7.0116442431225794 5.7645728807067602
v -3.3682041964666767 -8.2876204556506394 6.5531695488854611
v -4.6441804089947372 -7.4990237874719385 5.4633557568774194
v -4.1568008646453771 -8.7749999999999986 6.2519524250561194
v -5.4654226016397285 -8.7749999999999986 2.8802004132619849
v -5.4654226016397285 -8.7749999999999986 4.5197995867380154
v -5.4327770771734372 -7.9864033318212977 3.2126204556506406
v -5.4327770771734372 -9.5635966681786986 3.2126204556506406
v -5.4327770771734372 -7.9864033318212977 4.1873795443493602
v -5.4327770771734372 -9.5635966681786986 4.1873795443493602
v -3.7896735741400693 -6.0298697363010465 3.7000000000000002
v -2.9934642546708776 -5.8036833541294133 3.7000000000000002
v -3.7896735741400693 -11.520130263698951 3.7000000000000002
v -2.9934642546708776 -11.746316645870584 3.7000000000000002
v -4.0329324544699796 -11.369788007589822 4.0936011364390383
v -3.704723230722605 -11.306734423867169 4.8508411980551438
v -3.6542939087477131 -11.547913801834037 4.0949661140561942
v -2.822866408617887 -10.621926062621041 6.0515291272599141
v -3.2908665043397041 -11.050956900489771 5.5204754478154427
v -2.8263349241260629 -11.738065021785411 4.0992133124217744
v -3.2956383192467555 -11.448019572565101 4.8585621567627761
v -3.2399586107078533 -11.674177792207317 4.0983774304837075
v -3.4833841655676725 -11.523732525573646 4.4922482519771965
v -2.5796075282879762 -10.883721091463318 5.8338452048866491
v -2.5796075282879762 -11.666583790402866 4.4992141034037019
v -3.0489109234086689 -11.295533655981416 5.2577754691845504
v -2.823033083147795 -11.115613112130379 5.5607187478403413
v -2.826578268383857 -11.513947478796895 4.8988211551055532
v -4.0329324544699796 -6.1802119924101744 4.0936011364390383
v -3.704723230722605 -6.2432655761328277 4.8508411980551438
v -3.6542939087477131 -6.0020861981659603 4.0949661140561942
v -2.822866408617887 -6.9280739373789562 6.0515291272599141
v -3.2908665043397041 -6.4990430995102262 5.5204754478154427
v -2.8263349241260629 -5.8119349782145857 4.0992133124217744
v -3.2956383192467555 -6.1019804274348948 4.8585621567627761
v -3.2399586107078533 -5.8758222077926812 4.0983774304837075
v -3.4833841655676725 -6.0262674744263514 4.4922482519771965
v -2.5796075282879762 -6.6662789085366789 5.8338452048866491
v -2.5796075282879762 -5.8834162095971312 4.4992141034037019
v -3.0489109234086689 -6.2544663440185824 5.2577754691845504
v -2.823033083147795 -6.4343868878696187 5.5607187478403413
v -2.826578268383857 -6.0360525212031018 4.8988211551055532
v -2.5796075282879762 -9.9850660458520917 6.4451302636989523
v -2.5796075282879762 -9.1888567263829 6.6713166458705864
v -2.5796075282879762 -7.5649339541479055 6.4451302636989523
v -2.5796075282879762 -8.3611432736170972 6.6713166458705864
v -4.0329324544699796 -11.369788007589822 3.3063988635609616
v -3.704723230722605 -11.306734423867169 2.5491588019448566
v -3.6542939087477131 -11.547913801834037 3.3050338859438062
v -2.822866408617887 -10.621926062621041 1.3484708727400863
v -3.2908665043397041 -11.050956900489771 1.8795245521845576
v -2.8263349241260629 -11.738065021785411 3.3007866875782264
v -3.2956383192467555 -11.448019572565101 2.5414378432372238
v -3.2399586107078533 -11.674177792207317 3.3016225695162928
v -3.4833841655676725 -11.523732525573646 2.9077517480228039
v -2.5796075282879762 -10.883721091463318 1.5661547951133512
v -2.5796075282879762 -11.666583790402866 2.900785896596298
v -3.0489109234086689 -11.295533655981416 2.1422245308154499
v -2.823033083147795 -11.115613112130379 1.8392812521596591
v -2.826578268383857 -11.513947478796895 2.5011788448944468
v -4.0329324544699796 -6.1802119924101744 3.3063988635609616
v -3.704723230722605 -6.2432655761328277 2.5491588019448566
v -3.6542939087477131 -6.0020861981659603 3.3050338859438062
v -2.822866408617887 -6.9280739373789562 1.3484708727400863
v -3.2908665043397041 -6.4990430995102262 1.8795245521845576
v -2.8263349241260629 -5.8119349782145857 3.3007866875782264
v -3.2956383192467555 -6.1019804274348948 2.5414378432372238
v -3.2399586107078533 -5.8758222077926812 3.3016225695162928
v -3.4833841655676725 -6.0262674744263514 2.9077517480228039
v -2.5796075282879762 -6.6662789085366789 1.5661547951133512
v -2.5796075282879762 -5.8834162095971312 2.900785896596298
v -3.0489109234086689 -6.2544663440185824 2.1422245308154499
v -2.823033083147795 -6.4343868878696187 1.8392812521596591
v -2.826578268383857 -6.0360525212031018 2.5011788448944468
v -2.5796075282879762 -9.9850660458520917 0.9548697363010481
v -2.5796075282879762 -9.1888567263829 0.72868335412941443
v -2.5796075282879762 -7.5649339541479055 0.9548697363010481
v -2.5796075282879762 -8.3611432736170972 0.72868335412941443
v -4.4265335909090178 -6.4234708727400847 3.4567411196700895
v -4.8555644287777486 -6.954524552184556 2.9887410239482723
v -4.2933625056951019 -6.3970523122221543 3.0609314030526109
v -5.1743955358778004 -8.3813988635609604 2.2466750738179968
v -5.1113419521551471 -7.624158801944855 2.5748842975653714
v -3.9415790275066165 -6.501193739856669 2.2947104473991371
v -4.7009278718476182 -6.9704971349773617 2.5847558966194466
v -4.127972388441159 -6.4246449049100587 2.6615409556330238
v -4.5218432099346479 -6.6680704597698774 2.811986222266694
v -4.4265335909090178 -11.126529127259912 3.4567411196700895
v -4.8555644287777486 -10.595475447815442 2.9887410239482723
v -4.2933625056951019 -11.152947687777843 3.0609314030526109
v -5.1743955358778004 -9.1686011364390367 2.2466750738179968
v -5.1113419521551471 -9.9258411980551422 2.5748842975653714
v -3.9415790275066165 -11.048806260143328 2.2947104473991371
v -4.7009278718476182 -10.579502865022636 2.5847558966194466
v -4.127972388441159 -11.125355095089938 2.6615409556330238
v -4.5218432099346479 -10.88192954023012 2.811986222266694
v -2.9732086647270148 -10.228324926182003 1.105211992410176
v -3.7304487263431199 -9.9001157024346274 1.1682655761328298
v -3.2186761252353655 -10.488754977407124 1.3220523122221559
v -2.9745736423441702 -9.849686380459735 0.92708619816596194
v -4.9311366555478902 -9.0182588803299097 1.8530739373789584
v -4.4000829761034188 -9.486258976051726 1.4240430995102282
v -4.9575552160658205 -9.4140685969473878 1.9862450225928743
v -3.6948516316685298 -10.896320343559641 1.8954971349773628
v -3.9848970808888398 -10.136971499218639 1.4261937398566706
v -3.4676213060212824 -10.71723568164667 1.5930704597698795
v -4.1197338519793201 -10.714733375393195 2.0072373647026858
v -3.6180665726549526 -10.323364860153182 1.3496449049100607
v -2.9788208407097505 -9.0217273958380861 0.73693497821458687
v -3.7381696850507526 -9.4910307909587779 1.0269804274348964
v -2.9779849587716836 -9.4353510824198761 0.80082220779268276
v -3.371855780265173 -9.6787766372796948 0.95126747442635295
v -4.8534137884313058 -10.180289552600861 2.3380285007813599
v -4.384110393310614 -9.890244103380553 1.5786796564403578
v -4.9299626233779161 -9.8134590443669758 2.151635139846817
v -4.5193409036811714 -10.467762635297312 2.1598736763086563
v -4.6865370685180974 -9.6630137777333047 1.7577643183533282
v -4.2723701635852906 -10.315126323691342 1.7602666246068051
v -2.9732086647270148 -7.3216750738179952 1.105211992410176
v -3.7304487263431199 -7.6498842975653698 1.1682655761328298
v -3.2186761252353655 -7.0612450225928729 1.3220523122221559
v -2.9745736423441702 -7.7003136195402622 0.92708619816596194
v -4.9311366555478902 -8.5317411196700874 1.8530739373789584
v -4.4000829761034188 -8.0637410239482712 1.4240430995102282
v -4.9575552160658205 -8.1359314030526093 1.9862450225928743
v -4.7134527331746252 -8.7749999999999986 1.5912789085366805
v -3.6948516316685298 -6.6536796564403566 1.8954971349773628
v -3.9848970808888398 -7.4130285007813583 1.4261937398566706
v -3.4676213060212824 -6.8327643183533269 1.5930704597698795
v -4.1197338519793201 -6.8352666246068035 2.0072373647026858
v -3.6180665726549526 -7.2266351398468149 1.3496449049100607
v -2.9788208407097505 -8.528272604161911 0.73693497821458687
v -3.7381696850507526 -8.0589692090412193 1.0269804274348964
v -2.9779849587716836 -8.1146489175801211 0.80082220779268276
v -3.3788216316916788 -8.7749999999999986 0.80841620959713234
v -3.371855780265173 -7.8712233627203023 0.95126747442635295
v -4.8534137884313058 -7.3697104473991351 2.3380285007813599
v -4.384110393310614 -7.659755896619445 1.5786796564403578
v -4.9299626233779161 -7.7365409556330222 2.151635139846817
v -4.5193409036811714 -7.0822373647026842 2.1598736763086563
v -4.6865370685180974 -7.8869862222666924 1.7577643183533282
v -4.2723701635852906 -7.2348736763086547 1.7602666246068051
v -4.1373829974725265 -9.2443033951206921 1.179466344018584
v -4.1373829974725265 -8.3056966048793051 1.179466344018584
v -4.4403262761283173 -9.0184255548598173 1.3593868878696203
v -3.7784286833935297 -9.0219707400958793 0.96105252120310292
v -4.4403262761283173 -8.5315744451401798 1.3593868878696203
v -3.7784286833935297 -8.5280292599041179 0.96105252120310292
v -4.4265335909090178 -6.4234708727400847 3.9432588803299109
v -4.8555644287777486 -6.954524552184556 4.4112589760517285
v -4.2933625056951019 -6.3970523122221543 4.3390685969473894
v -4.6883286197512959 -6.6411547951133496 3.7000000000000002
v -5.1743955358778004 -8.3813988635609604 5.1533249261820036
v -5.1113419521551471 -7.624158801944855 4.825115702434629
v -3.9415790275066165 -6.501193739856669 5.1052895526008637
v -4.7009278718476182 -6.9704971349773617 4.8152441033805538
v -4.127972388441159 -6.4246449049100587 4.7384590443669765
v -4.5218432099346479 -6.6680704597698774 4.5880137777333063
v -5.1001411842693924 -7.2172245308154483 3.2306966048793075
v -5.1001411842693924 -7.2172245308154483 4.1693033951206928
v -4.9202206404183562 -6.9142812521596575 3.4565744451401814
v -4.9202206404183562 -6.9142812521596575 3.9434255548598189
v -4.4265335909090178 -11.126529127259912 3.9432588803299109
v -4.8555644287777486 -10.595475447815442 4.4112589760517285
v -4.2933625056951019 -11.152947687777843 4.3390685969473894
v -4.6883286197512959 -10.908845204886648 3.7000000000000002
v -5.1743955358778004 -9.1686011364390367 5.1533249261820036
v -5.1113419521551471 -9.9258411980551422 4.825115702434629
v -3.9415790275066165 -11.048806260143328 5.1052895526008637
v -4.7009278718476182 -10.579502865022636 4.8152441033805538
v -4.127972388441159 -11.125355095089938 4.7384590443669765
v -4.5218432099346479 -10.88192954023012 4.5880137777333063
v -5.1001411842693924 -10.332775469184549 3.2306966048793075
v -5.1001411842693924 -10.332775469184549 4.1693033951206928
v -4.9202206404183562 -10.63571874784034 3.4565744451401814
v -4.9202206404183562 -10.63571874784034 3.9434255548598189
v -2.9732086647270148 -10.228324926182003 6.2947880075898244
v -3.7304487263431199 -9.9001157024346274 6.2317344238671701
v -3.2186761252353655 -10.488754977407124 6.0779476877778444
v -2.9745736423441702 -9.849686380459735 6.4729138018340384
v -4.9311366555478902 -9.0182588803299097 5.5469260626210417
v -4.4000829761034188 -9.486258976051726 5.9759569004897717
v -4.9575552160658205 -9.4140685969473878 5.4137549774071259
v -3.6948516316685298 -10.896320343559641 5.5045028650226371
v -3.9848970808888398 -10.136971499218639 5.9738062601433297
v -3.4676213060212824 -10.71723568164667 5.8069295402301204
v -4.1197338519793201 -10.714733375393195 5.3927626352973146
v -3.6180665726549526 -10.323364860153182 6.0503550950899392
v -2.9788208407097505 -9.0217273958380861 6.6630650217854139
v -3.7381696850507526 -9.4910307909587779 6.373019572565104
v -2.9779849587716836 -9.4353510824198761 6.5991777922073176
v -3.371855780265173 -9.6787766372796948 6.4487325255736474
v -4.8534137884313058 -10.180289552600861 5.0619714992186404
v -4.384110393310614 -9.890244103380553 5.821320343559643
v -4.9299626233779161 -9.8134590443669758 5.2483648601531829
v -4.5193409036811714 -10.467762635297312 5.240126323691344
v -4.6865370685180974 -9.6630137777333047 5.6422356816466719
v -4.2723701635852906 -10.315126323691342 5.6397333753931953
v -2.9732086647270148 -7.3216750738179952 6.2947880075898244
v -3.7304487263431199 -7.6498842975653698 6.2317344238671701
v -3.2186761252353655 -7.0612450225928729 6.0779476877778444
v -2.9745736423441702 -7.7003136195402622 6.4729138018340384
v -4.9311366555478902 -8.5317411196700874 5.5469260626210417
v -4.4000829761034188 -8.0637410239482712 5.9759569004897717
v -4.9575552160658205 -8.1359314030526093 5.4137549774071259
v -4.7134527331746252 -8.7749999999999986 5.8087210914633198
v -3.6948516316685298 -6.6536796564403566 5.5045028650226371
v -3.9848970808888398 -7.4130285007813583 5.9738062601433297
v -3.4676213060212824 -6.8327643183533269 5.8069295402301204
v -4.1197338519793201 -6.8352666246068035 5.3927626352973146
v -3.6180665726549526 -7.2266351398468149 6.0503550950899392
v -2.9788208407097505 -8.528272604161911 6.6630650217854139
v -3.7381696850507526 -8.0589692090412193 6.373019572565104
v -2.9779849587716836 -8.1146489175801211 6.5991777922073176
v -3.3788216316916788 -8.7749999999999986 6.5915837904028685
v -3.371855780265173 -7.8712233627203023 6.4487325255736474
v -4.8534137884313058 -7.3697104473991351 5.0619714992186404
v -4.384110393310614 -7.659755896619445 5.821320343559643
v -4.9299626233779161 -7.7365409556330222 5.2483648601531829
v -4.5193409036811714 -7.0822373647026842 5.240126323691344
v -4.6865370685180974 -7.8869862222666924 5.6422356816466719
v -4.2723701635852906 -7.2348736763086547 5.6397333753931953
v -4.1373829974725265 -9.2443033951206921 6.2205336559814164
v -4.1373829974725265 -8.3056966048793051 6.2205336559814164
v -4.4403262761283173 -9.0184255548598173 6.0406131121303801
v -3.7784286833935297 -9.0219707400958793 6.4389474787968979
v -4.4403262761283173 -8.5315744451401798 6.0406131121303801
v -3.7784286833935297 -8.5280292599041179 6.4389474787968979
v -5.3247377919869283 -8.7749999999999986 2.4899339541479071
v -5.5509241741585615 -8.7749999999999986 3.2861432736170988
v -5.3525213301220145 -8.3800338859438046 2.6253136195402633
v -5.3525213301220145 -9.1699661140561926 2.6253136195402633
v -5.3247377919869283 -8.7749999999999986 4.9100660458520933
v -5.5509241741585615 -8.7749999999999986 4.1138567263829016
v -5.3525213301220145 -8.3800338859438046 4.7746863804597375
v -5.3525213301220145 -9.1699661140561926 4.7746863804597375
v -5.25262710085308 -7.6164378432372217 2.9839692090412209
v -5.5426725500733891 -8.3757866875782252 3.4532726041619131
v -5.3283400538616235 -7.9827517480228014 2.7962233627203039
v -5.3185550070848731 -7.5761788448944447 3.4530292599041195
v -5.4787853204952937 -8.3766225695162913 3.0396489175801227
v -5.25262710085308 -9.9335621567627754 2.9839692090412209
v -5.5426725500733891 -9.174213312421772 3.4532726041619131
v -5.3283400538616235 -9.5672482519771957 2.7962233627203039
v -5.3185550070848731 -9.9738211551055524 3.4530292599041195
v -5.4787853204952937 -9.1733774304837059 3.0396489175801227
v -5.25262710085308 -7.6164378432372217 4.4160307909587795
v -5.5426725500733891 -8.3757866875782252 3.9467273958380873
v -5.3283400538616235 -7.9827517480228014 4.6037766372796964
v -5.3185550070848731 -7.5761788448944447 3.9469707400958809
v -5.4787853204952937 -8.3766225695162913 4.3603510824198777
v -5.4711913186908436 -7.975785896596296 3.7000000000000002
v -5.25262710085308 -9.9335621567627754 4.4160307909587795
v -5.5426725500733891 -9.174213312421772 3.9467273958380873
v -5.3283400538616235 -9.5672482519771957 4.6037766372796964
v -5.3185550070848731 -9.9738211551055524 3.9469707400958809
v -5.4787853204952937 -9.1733774304837059 4.3603510824198777
v -5.4711913186908436 -9.5742141034037012 3.7000000000000002
v 4.1568008646453771 -6.2230475749438785 3.7000000000000002
v 4.1568008646453771 -11.326952425056119 3.7000000000000002
v 2.5796075282879762 -10.352193336357399 6.2519524250561203
v 2.5796075282879762 -7.1978066636425977 6.2519524250561203
v 2.5796075282879762 -10.352193336357399 1.1480475749438801
v 2.5796075282879762 -7.1978066636425977 1.1480475749438801
v 5.1315599533440963 -8.7749999999999986 2.1228066636425993
v 5.1315599533440963 -8.7749999999999986 5.2771933363574011
v 2.5796075282879762 -5.7749999999999986 3.7000000000000002
v 2.5796075282879762 -11.774999999999999 3.7000000000000002
v 3.5066585114128186 -11.202050983124842 5.2000000000000011
v 3.5066585114128186 -6.3479490168751562 5.2000000000000011
v 2.5796075282879762 -8.7749999999999986 6.7000000000000002
v 3.5066585114128186 -11.202050983124842 2.1999999999999997
v 3.5066585114128186 -6.3479490168751562 2.1999999999999997
v 2.5796075282879762 -8.7749999999999986 0.70000000000000018
v 5.0066585114128186 -7.2749999999999986 2.7729490168751578
v 5.0066585114128186 -10.274999999999999 2.7729490168751578
v 4.0796075282879762 -9.7020509831248418 1.2729490168751578
v 4.0796075282879762 -7.8479490168751562 1.2729490168751578
v 5.0066585114128186 -7.2749999999999986 4.6270509831248425
v 5.0066585114128186 -10.274999999999999 4.6270509831248425
v 4.0796075282879762 -9.7020509831248418 6.1270509831248425
v 4.0796075282879762 -7.8479490168751562 6.1270509831248425
v 5.5796075282879762 -8.7749999999999986 3.7000000000000002
v 3.3994071150259915 -5.8891849266482463 3.7000000000000002
v 3.3994071150259915 -11.660815073351751 3.7000000000000002
v 3.8812732219460604 -11.363005441248557 4.4796757390232633
v 3.0614736352080456 -10.856341432681347 5.8061393343284893
v 3.0669870726373358 -11.62816954888546 4.4885966681787011
v 2.5796075282879762 -11.326952425056119 5.2771933363574011
v 3.8812732219460604 -6.1869945587514401 4.4796757390232633
v 3.0614736352080456 -6.6936585673186508 5.8061393343284893
v 3.0669870726373358 -5.9218304511145377 4.4885966681787011
v 2.5796075282879762 -6.2230475749438785 5.2771933363574011
v 2.5796075282879762 -9.5947995867380129 6.5858150733517533
v 2.5796075282879762 -7.9552004132619833 6.5858150733517533
v 3.8812732219460604 -11.363005441248557 2.920324260976737
v 3.0614736352080456 -10.856341432681347 1.5938606656715111
v 3.0669870726373358 -11.62816954888546 2.9114033318212997
v 2.5796075282879762 -11.326952425056119 2.1228066636425993
v 3.8812732219460604 -6.1869945587514401 2.920324260976737
v 3.0614736352080456 -6.6936585673186508 1.5938606656715111
v 3.0669870726373358 -5.9218304511145377 2.9114033318212997
v 2.5796075282879762 -6.2230475749438785 2.1228066636425993
v 2.5796075282879762 -9.5947995867380129 0.81418492664824749
v 2.5796075282879762 -7.9552004132619833 0.81418492664824749
v 4.660948960969324 -6.6688606656715095 3.2181338930799308
v 5.1676129695365347 -7.9953242609767354 2.3983343063419156
v 4.3429632851653963 -6.7104271192932377 2.4240237874719401
v 4.660948960969324 -10.881139334328488 3.2181338930799308
v 5.1676129695365347 -9.5546757390232617 2.3983343063419156
v 4.3429632851653963 -10.83957288070676 2.4240237874719401
v 3.3592832673112394 -10.076665693658082 1.1119945587514417
v 4.6857468626164653 -9.2568661069200679 1.6186585673186529
v 3.8555837408160363 -10.538355756877419 1.6354271192932397
v 3.3682041964666767 -9.2623795443493577 0.84683045111453925
v 4.6441804089947372 -10.05097621252806 1.9366442431225808
v 3.3592832673112394 -7.473334306341914 1.1119945587514417
v 4.6857468626164653 -8.2931338930799292 1.6186585673186529
v 3.8555837408160363 -7.0116442431225794 1.6354271192932397
v 3.3682041964666767 -8.2876204556506394 0.84683045111453925
v 4.6441804089947372 -7.4990237874719385 1.9366442431225808
v 4.1568008646453771 -8.7749999999999986 1.1480475749438805
v 4.660948960969324 -6.6688606656715095 4.1818661069200695
v 5.1676129695365347 -7.9953242609767354 5.0016656936580848
v 4.3429632851653963 -6.7104271192932377 4.9759762125280602
v 5.1315599533440963 -7.1978066636425977 3.7000000000000002
v 4.660948960969324 -10.881139334328488 4.1818661069200695
v 5.1676129695365347 -9.5546757390232617 5.0016656936580848
v 4.3429632851653963 -10.83957288070676 4.9759762125280602
v 5.1315599533440963 -10.3521933363574 3.7000000000000002
v 3.3592832673112394 -10.076665693658082 6.2880054412485586
v 4.6857468626164653 -9.2568661069200679 5.7813414326813479
v 3.8555837408160363 -10.538355756877419 5.7645728807067602
v 3.3682041964666767 -9.2623795443493577 6.5531695488854611
v 4.6441804089947372 -10.05097621252806 5.4633557568774194
v 3.3592832673112394 -7.473334306341914 6.2880054412485586
v 4.6857468626164653 -8.2931338930799292 5.7813414326813479
v 3.8555837408160363 -7.0116442431225794 5.7645728807067602
v 3.3682041964666767 -8.2876204556506394 6.5531695488854611
v 4.6441804089947372 -7.4990237874719385 5.4633557568774194
v 4.1568008646453771 -8.7749999999999986 6.2519524250561194
v 5.4654226016397285 -8.7749999999999986 2.8802004132619849
v 5.4654226016397285 -8.7749999999999986 4.5197995867380154
v 5.4327770771734372 -7.9864033318212977 3.2126204556506406
v 5.4327770771734372 -9.5635966681786986 3.2126204556506406
v 5.4327770771734372 -7.9864033318212977 4.1873795443493602
v 5.4327770771734372 -9.5635966681786986 4.1873795443493602
v 3.7896735741400693 -6.0298697363010465 3.7000000000000002
v 2.9934642546708776 -5.8036833541294133 3.7000000000000002
v 3.7896735741400693 -11.520130263698951 3.7000000000000002
v 2.9934642546708776 -11.746316645870584 3.7000000000000002
v 4.0329324544699796 -11.369788007589822 4.0936011364390383
v 3.704723230722605 -11.306734423867169 4.8508411980551438
v 3.6542939087477131 -11.547913801834037 4.0949661140561942
v 2.822866408617887 -10.621926062621041 6.0515291272599141
v 3.2908665043397041 -11.050956900489771 5.5204754478154427
v 2.5796075282879762 -10.883721091463318 5.8338452048866491
v 2.8263349241260629 -11.738065021785411 4.0992133124217744
v 3.2956383192467555 -11.448019572565101 4.8585621567627761
v 3.2399586107078533 -11.674177792207317 4.0983774304837075
v 2.5796075282879762 -11.666583790402866 4.4992141034037019
v 3.4833841655676725 -11.523732525573646 4.4922482519771965
v 3.0489109234086689 -11.295533655981416 5.2577754691845504
v 2.823033083147795 -11.115613112130379 5.5607187478403413
v 2.826578268383857 -11.513947478796895 4.8988211551055532
v 4.0329324544699796 -6.1802119924101744 4.0936011364390383
v 3.704723230722605 -6.2432655761328277 4.8508411980551438
v 3.6542939087477131 -6.0020861981659603 4.0949661140561942
v 2.822866408617887 -6.9280739373789562 6.0515291272599141
v 3.2908665043397041 -6.4990430995102262 5.5204754478154427
v 2.5796075282879762 -6.6662789085366789 5.8338452048866491
v 2.8263349241260629 -5.8119349782145857 4.0992133124217744
v 3.2956383192467555 -6.1019804274348948 4.8585621567627761
v 3.2399586107078533 -5.8758222077926812 4.0983774304837075
v 2.5796075282879762 -5.8834162095971312 4.4992141034037019
v 3.4833841655676725 -6.0262674744263514 4.4922482519771965
v 3.0489109234086689 -6.2544663440185824 5.2577754691845504
v 2.823033083147795 -6.4343868878696187 5.5607187478403413
v 2.826578268383857 -6.0360525212031018 4.8988211551055532
v 2.5796075282879762 -9.9850660458520917 6.4451302636989523
v 2.5796075282879762 -9.1888567263829 6.6713166458705864
v 2.5796075282879762 -7.5649339541479055 6.4451302636989523
v 2.5796075282879762 -8.3611432736170972 6.6713166458705864
v 4.0329324544699796 -11.369788007589822 3.3063988635609616
v 3.704723230722605 -11.306734423867169 2.5491588019448566
v 3.6542939087477131 -11.547913801834037 3.3050338859438062
v 2.822866408617887 -10.621926062621041 1.3484708727400863
v 3.2908665043397041 -11.050956900489771 1.8795245521845576
v 2.5796075282879762 -10.883721091463318 1.5661547951133512
v 2.8263349241260629 -11.738065021785411 3.3007866875782264
v 3.2956383192467555 -11.448019572565101 2.5414378432372238
v 3.2399586107078533 -11.674177792207317 3.3016225695162928
v 2.5796075282879762 -11.666583790402866 2.900785896596298
v 3.4833841655676725 -11.523732525573646 2.9077517480228039
v 3.0489109234086689 -11.295533655981416 2.1422245308154499
v 2.823033083147795 -11.115613112130379 1.8392812521596591
v 2.826578268383857 -11.513947478796895 2.5011788448944468
v 4.0329324544699796 -6.1802119924101744 3.3063988635609616
v 3.704723230722605 -6.2432655761328277 2.5491588019448566
v 3.6542939087477131 -6.0020861981659603 3.3050338859438062
v 2.822866408617887 -6.9280739373789562 1.3484708727400863
v 3.2908665043397041 -6.4990430995102262 1.8795245521845576
v 2.5796075282879762 -6.6662789085366789 1.5661547951133512
v 2.8263349241260629 -5.8119349782145857 3.3007866875782264
v 3.2956383192467555 -6.1019804274348948 2.5414378432372238
v 3.2399586107078533 -5.8758222077926812 3.3016225695162928
v 2.5796075282879762 -5.8834162095971312 2.900785896596298
v 3.4833841655676725 -6.0262674744263514 2.9077517480228039
v 3.0489109234086689 -6.2544663440185824 2.1422245308154499
v 2.823033083147795 -6.4343868878696187 1.8392812521596591
v 2.826578268383857 -6.0360525212031018 2.5011788448944468
v 2.5796075282879762 -9.9850660458520917 0.9548697363010481
v 2.5796075282879762 -9.1888567263829 0.72868335412941443
v 2.5796075282879762 -7.5649339541479055 0.9548697363010481
v 2.5796075282879762 -8.3611432736170972 0.72868335412941443
v 4.4265335909090178 -6.4234708727400847 3.4567411196700895
v 4.8555644287777486 -6.954524552184556 2.9887410239482723
v 4.2933625056951019 -6.3970523122221543 3.0609314030526109
v 5.1743955358778004 -8.3813988635609604 2.2466750738179968
v 5.1113419521551471 -7.624158801944855 2.5748842975653714
v 3.9415790275066165 -6.501193739856669 2.2947104473991371
v 4.7009278718476182 -6.9704971349773617 2.5847558966194466
v 4.127972388441159 -6.4246449049100587 2.6615409556330238
v 4.5218432099346479 -6.6680704597698774 2.811986222266694
v 4.4265335909090178 -11.126529127259912 3.4567411196700895
v 4.8555644287777486 -10.595475447815442 2.9887410239482723
v 4.2933625056951019 -11.152947687777843 3.0609314030526109
v 5.1743955358778004 -9.1686011364390367 2.2466750738179968
v 5.1113419521551471 -9.9258411980551422 2.5748842975653714
v 3.9415790275066165 -11.048806260143328 2.2947104473991371
v 4.7009278718476182 -10.579502865022636 2.5847558966194466
v 4.127972388441159 -11.125355095089938 2.6615409556330238
v 4.5218432099346479 -10.88192954023012 2.811986222266694
v 2.9732086647270148 -10.228324926182003 1.105211992410176
v 3.7304487263431199 -9.9001157024346274 1.1682655761328298
v 3.2186761252353655 -10.488754977407124 1.3220523122221559
v 2.9745736423441702 -9.849686380459735 0.92708619816596194
v 4.9311366555478902 -9.0182588803299097 1.8530739373789584
v 4.4000829761034188 -9.486258976051726 1.4240430995102282
v 4.9575552160658205 -9.4140685969473878 1.9862450225928743
v 3.6948516316685298 -10.896320343559641 1.8954971349773628
v 3.9848970808888398 -10.136971499218639 1.4261937398566706
v 3.4676213060212824 -10.71723568164667 1.5930704597698795
v 4.1197338519793201 -10.714733375393195 2.0072373647026858
v 3.6180665726549526 -10.323364860153182 1.3496449049100607
v 2.9788208407097505 -9.0217273958380861 0.73693497821458687
v 3.7381696850507526 -9.4910307909587779 1.0269804274348964
v 2.9779849587716836 -9.4353510824198761 0.80082220779268276
v 3.371855780265173 -9.6787766372796948 0.95126747442635295
v 4.8534137884313058 -10.180289552600861 2.3380285007813599
v 4.384110393310614 -9.890244103380553 1.5786796564403578
v 4.9299626233779161 -9.8134590443669758 2.151635139846817
v 4.5193409036811714 -10.467762635297312 2.1598736763086563
v 4.6865370685180974 -9.6630137777333047 1.7577643183533282
v 4.2723701635852906 -10.315126323691342 1.7602666246068051
v 2.9732086647270148 -7.3216750738179952 1.105211992410176
v 3.7304487263431199 -7.6498842975653698 1.1682655761328298
v 3.2186761252353655 -7.0612450225928729 1.3220523122221559
v 2.9745736423441702 -7.7003136195402622 0.92708619816596194
v 4.9311366555478902 -8.5317411196700874 1.8530739373789584
v 4.4000829761034188 -8.0637410239482712 1.4240430995102282
v 4.9575552160658205 -8.1359314030526093 1.9862450225928743
v 4.7134527331746252 -8.7749999999999986 1.5912789085366805
v 3.6948516316685298 -6.6536796564403566 1.8954971349773628
v 3.9848970808888398 -7.4130285007813583 1.4261937398566706
v 3.4676213060212824 -6.8327643183533269 1.5930704597698795
v 4.1197338519793201 -6.8352666246068035 2.0072373647026858
v 3.6180665726549526 -7.2266351398468149 1.3496449049100607
v 2.9788208407097505 -8.528272604161911 0.73693497821458687
v 3.7381696850507526 -8.0589692090412193 1.0269804274348964
v 2.9779849587716836 -8.1146489175801211 0.80082220779268276
v 3.3788216316916788 -8.7749999999999986 0.80841620959713234
v 3.371855780265173 -7.8712233627203023 0.95126747442635295
v 4.8534137884313058 -7.3697104473991351 2.3380285007813599
v 4.384110393310614 -7.659755896619445 1.5786796564403578
v 4.9299626233779161 -7.7365409556330222 2.151635139846817
v 4.5193409036811714 -7.0822373647026842 2.1598736763086563
v 4.6865370685180974 -7.8869862222666924 1.7577643183533282
v 4.2723701635852906 -7.2348736763086547 1.7602666246068051
v 4.1373829974725265 -9.2443033951206921 1.179466344018584
v 4.1373829974725265 -8.3056966048793051 1.179466344018584
v 4.4403262761283173 -9.0184255548598173 1.3593868878696203
v 3.7784286833935297 -9.0219707400958793 0.96105252120310292
v 4.4403262761283173 -8.5315744451401798 1.3593868878696203
v 3.7784286833935297 -8.5280292599041179 0.96105252120310292
v 4.4265335909090178 -6.4234708727400847 3.9432588803299109
v 4.8555644287777486 -6.954524552184556 4.4112589760517285
v 4.2933625056951019 -6.3970523122221543 4.3390685969473894
v 4.6883286197512959 -6.6411547951133496 3.7000000000000002
v 5.1743955358778004 -8.3813988635609604 5.1533249261820036
v 5.1113419521551471 -7.624158801944855 4.825115702434629
v 3.9415790275066165 -6.501193739856669 5.1052895526008637
v 4.7009278718476182 -6.9704971349773617 4.8152441033805538
v 4.127972388441159 -6.4246449049100587 4.7384590443669765
v 4.5218432099346479 -6.6680704597698774 4.5880137777333063
v 5.1001411842693924 -7.2172245308154483 3.2306966048793075
v 5.1001411842693924 -7.2172245308154483 4.1693033951206928
v 4.9202206404183562 -6.9142812521596575 3.4565744451401814
v 4.9202206404183562 -6.9142812521596575 3.9434255548598189
v 4.4265335909090178 -11.126529127259912 3.9432588803299109
v 4.8555644287777486 -10.595475447815442 4.4112589760517285
v 4.2933625056951019 -11.152947687777843 4.3390685969473894
v 4.6883286197512959 -10.908845204886648 3.7000000000000002
v 5.1743955358778004 -9.1686011364390367 5.1533249261820036
v 5.1113419521551471 -9.9258411980551422 4.825115702434629
v 3.9415790275066165 -11.048806260143328 5.1052895526008637
v 4.7009278718476182 -10.579502865022636 4.8152441033805538
v 4.127972388441159 -11.125355095089938 4.7384590443669765
v 4.5218432099346479 -10.88192954023012 4.5880137777333063
v 5.1001411842693924 -10.332775469184549 3.2306966048793075
v 5.1001411842693924 -10.332775469184549 4.1693033951206928
v 4.9202206404183562 -10.63571874784034 3.4565744451401814
v 4.9202206404183562 -10.63571874784034 3.9434255548598189
v 2.9732086647270148 -10.228324926182003 6.2947880075898244
v 3.7304487263431199 -9.9001157024346274 6.2317344238671701
v 3.2186761252353655 -10.488754977407124 6.0779476877778444
v 2.9745736423441702 -9.849686380459735 6.4729138018340384
v 4.9311366555478902 -9.0182588803299097 5.5469260626210417
v 4.4000829761034188 -9.486258976051726 5.9759569004897717
v 4.9575552160658205 -9.4140685969473878 5.4137549774071259
v 3.6948516316685298 -10.896320343559641 5.5045028650226371
v 3.9848970808888398 -10.136971499218639 5.9738062601433297
v 3.4676213060212824 -10.71723568164667 5.8069295402301204
v 4.1197338519793201 -10.714733375393195 5.3927626352973146
v 3.6180665726549526 -10.323364860153182 6.0503550950899392
v 2.9788208407097505 -9.0217273958380861 6.6630650217854139
v 3.7381696850507526 -9.4910307909587779 6.373019572565104
v 2.9779849587716836 -9.4353510824198761 6.5991777922073176
v 3.371855780265173 -9.6787766372796948 6.4487325255736474
v 4.8534137884313058 -10.180289552600861 5.0619714992186404
v 4.384110393310614 -9.890244103380553 5.821320343559643
v 4.9299626233779161 -9.8134590443669758 5.2483648601531829
v 4.5193409036811714 -10.467762635297312 5.240126323691344
v 4.6865370685180974 -9.6630137777333047 5.6422356816466719
v 4.2723701635852906 -10.315126323691342 5.6397333753931953
v 2.9732086647270148 -7.3216750738179952 6.2947880075898244
v 3.7304487263431199 -7.6498842975653698 6.2317344238671701
v 3.2186761252353655 -7.0612450225928729 6.0779476877778444
v 2.9745736423441702 -7.7003136195402622 6.4729138018340384
v 4.9311366555478902 -8.5317411196700874 5.5469260626210417
v 4.4000829761034188 -8.0637410239482712 5.9759569004897717
v 4.9575552160658205 -8.1359314030526093 5.4137549774071259
v 4.7134527331746252 -8.7749999999999986 5.8087210914633198
v 3.6948516316685298 -6.6536796564403566 5.5045028650226371
v 3.9848970808888398 -7.4130285007813583 5.9738062601433297
v 3.4676213060212824 -6.8327643183533269 5.8069295402301204
v 4.1197338519793201 -6.8352666246068035 5.3927626352973146
v 3.6180665726549526 -7.2266351398468149 6.0503550950899392
v 2.9788208407097505 -8.528272604161911 6.6630650217854139
v 3.7381696850507526 -8.0589692090412193 6.373019572565104
v 2.9779849587716836 -8.1146489175801211 6.5991777922073176
v 3.3788216316916788 -8.7749999999999986 6.5915837904028685
v 3.371855780265173 -7.8712233627203023 6.4487325255736474
v 4.8534137884313058 -7.3697104473991351 5.0619714992186404
v 4.384110393310614 -7.659755896619445 5.821320343559643
v 4.9299626233779161 -7.7365409556330222 5.2483648601531829
v 4.5193409036811714 -7.0822373647026842 5.240126323691344
v 4.6865370685180974 -7.8869862222666924 5.6422356816466719
v 4.2723701635852906 -7.2348736763086547 5.6397333753931953
v 4.1373829974725265 -9.2443033951206921 6.2205336559814164
v 4.1373829974725265 -8.3056966048793051 6.2205336559814164
v 4.4403262761283173 -9.0184255548598173 6.0406131121303801
v 3.7784286833935297 -9.0219707400958793 6.4389474787968979
v 4.4403262761283173 -8.5315744451401798 6.0406131121303801
v 3.7784286833935297 -8.5280292599041179 6.4389474787968979
v 5.3247377919869283 -8.7749999999999986 2.4899339541479071
v 5.5509241741585615 -8.7749999999999986 3.2861432736170988
v 5.3525213301220145 -8.3800338859438046 2.6253136195402633
v 5.3525213301220145 -9.1699661140561926 2.6253136195402633
v 5.3247377919869283 -8.7749999999999986 4.9100660458520933
v 5.5509241741585615 -8.7749999999999986 4.1138567263829016
v 5.3525213301220145 -8.3800338859438046 4.7746863804597375
v 5.3525213301220145 -9.1699661140561926 4.7746863804597375
v 5.25262710085308 -7.6164378432372217 2.9839692090412209
v 5.5426725500733891 -8.3757866875782252 3.4532726041619131
v 5.3283400538616235 -7.9827517480228014 2.7962233627203039
v 5.3185550070848731 -7.5761788448944447 3.4530292599041195
v 5.4787853204952937 -8.3766225695162913 3.0396489175801227
v 5.25262710085308 -9.9335621567627754 2.9839692090412209
v 5.5426725500733891 -9.174213312421772 3.4532726041619131
v 5.3283400538616235 -9.5672482519771957 2.7962233627203039
v 5.3185550070848731 -9.9738211551055524 3.4530292599041195
v 5.4787853204952937 -9.1733774304837059 3.0396489175801227
v 5.25262710085308 -7.6164378432372217 4.4160307909587795
v 5.5426725500733891 -8.3757866875782252 3.9467273958380873
v 5.3283400538616235 -7.9827517480228014 4.6037766372796964
v 5.3185550070848731 -7.5761788448944447 3.9469707400958809
v 5.4787853204952937 -8.3766225695162913 4.3603510824198777
v 5.4711913186908436 -7.975785896596296 3.7000000000000002
v 5.25262710085308 -9.9335621567627754 4.4160307909587795
v 5.5426725500733891 -9.174213312421772 3.9467273958380873
v 5.3283400538616235 -9.5672482519771957 4.6037766372796964
v 5.3185550070848731 -9.9738211551055524 3.9469707400958809
v 5.4787853204952937 -9.1733774304837059 4.3603510824198777
v 5.4711913186908436 -9.5742141034037012 3.7000000000000002
f 184 197 193
f 222 225 189
f 64 225 222
f 189 225 57
f 57 225 214
f 310 320 318
f 309 322 25
f 310 318 49
f 275 277 77
f 272 275 77
f 260 262 74
f 261 304 74
f 74 285 260
f 74 304 285
f 51 254 168
f 94 242 2
f 612 614 603
f 411 599 597
f 411 613 599
f 640 644 420
f 11 263 248
f 11 248 95
f 650 673 670
f 650 670 362
f 597 622 411
f 622 641 411
f 362 664 650
f 664 667 650
f 184 193 19
f 19 222 189
f 188 214 211
f 57 214 188
f 188 211 16
f 155 188 16
f 225 227 214
f 64 227 225
f 515 522 376
f 309 320 84
f 84 310 308
f 84 320 310
f 170 308 7
f 322 333 25
f 480 537 535
f 380 545 537
f 380 537 480
f 343 535 493
f 480 535 343
f 526 528 394
f 394 528 527
f 206 209 163
f 15 206 163
f 161 310 49
f 7 308 161
f 308 310 161
f 376 522 467
f 467 522 520
f 99 104 30
f 104 107 30
f 70 274 262
f 77 274 272
f 246 262 260
f 70 262 246
f 77 277 273
f 261 273 23
f 257 267 73
f 257 269 23
f 25 333 313
f 333 336 313
f 245 255 254
f 245 254 51
f 243 255 69
f 69 251 243
f 69 245 242
f 69 255 245
f 332 335 253
f 253 255 243
f 22 253 243
f 22 332 253
f 168 254 252
f 254 255 72
f 72 335 324
f 253 335 72
f 72 255 253
f 252 254 72
f 72 324 252
f 243 251 249
f 249 275 272
f 71 275 249
f 249 251 71
f 243 249 22
f 249 272 22
f 94 244 242
f 242 244 69
f 244 251 69
f 83 304 302
f 302 305 83
f 302 304 261
f 269 305 302
f 269 302 23
f 23 302 261
f 4 278 124
f 111 278 4
f 259 271 73
f 270 271 259
f 257 271 269
f 73 271 257
f 602 604 595
f 256 259 73
f 122 259 256
f 122 256 3
f 82 301 299
f 111 117 33
f 112 288 33
f 370 450 448
f 448 617 370
f 29 106 103
f 75 277 266
f 75 266 263
f 266 277 275
f 263 266 248
f 266 275 71
f 248 266 71
f 263 265 75
f 265 267 75
f 40 136 131
f 40 139 136
f 51 169 167
f 167 169 126
f 2 167 126
f 167 245 51
f 2 242 167
f 242 245 167
f 92 128 27
f 126 128 92
f 2 126 92
f 92 94 2
f 463 465 375
f 429 465 463
f 408 612 603
f 587 588 408
f 652 673 422
f 422 673 650
f 650 667 422
f 670 673 426
f 407 652 583
f 583 599 407
f 597 599 583
f 414 612 609
f 414 614 612
f 609 612 586
f 586 612 408
f 408 588 586
f 601 610 360
f 601 614 610
f 414 613 610
f 610 614 414
f 601 604 412
f 412 614 601
f 412 604 602
f 603 614 412
f 412 602 600
f 600 603 412
f 361 640 620
f 639 641 420
f 360 639 606
f 30 102 101
f 30 101 99
f 98 263 11
f 98 265 263
f 29 265 98
f 98 106 29
f 619 622 597
f 535 538 493
f 493 538 384
f 542 563 397
f 561 563 542
f 654 664 362
f 646 654 362
f 205 224 55
f 222 224 64
f 19 189 177
f 177 184 19
f 181 222 19
f 181 224 222
f 55 224 181
f 19 193 181
f 205 226 224
f 224 226 64
f 212 227 223
f 223 226 203
f 223 227 64
f 64 226 223
f 53 186 172
f 172 186 183
f 41 139 137
f 155 190 188
f 46 190 155
f 188 190 57
f 56 197 184
f 186 197 56
f 183 186 56
f 376 468 466
f 466 515 376
f 520 522 393
f 391 524 515
f 393 524 521
f 515 524 522
f 522 524 393
f 391 528 514
f 514 528 526
f 514 524 391
f 521 524 514
f 392 542 517
f 392 561 542
f 517 519 392
f 519 533 392
f 530 533 395
f 308 311 84
f 52 311 170
f 170 311 308
f 7 180 170
f 180 205 55
f 53 175 173
f 51 175 169
f 168 175 51
f 173 175 168
f 195 197 186
f 192 195 173
f 53 195 186
f 173 195 53
f 89 336 333
f 334 336 89
f 332 334 89
f 89 335 332
f 335 337 324
f 322 337 333
f 87 337 322
f 324 337 87
f 89 337 335
f 333 337 89
f 535 537 396
f 396 538 535
f 396 552 538
f 151 153 45
f 543 545 481
f 481 545 380
f 380 489 481
f 480 482 380
f 482 489 380
f 492 527 383
f 150 153 44
f 15 163 141
f 144 206 15
f 15 151 144
f 43 208 144
f 144 208 206
f 545 547 537
f 537 547 396
f 398 545 543
f 544 547 398
f 398 547 545
f 544 558 554
f 398 558 544
f 474 476 378
f 470 476 474
f 10 99 93
f 93 131 10
f 93 101 27
f 99 101 93
f 100 102 30
f 30 107 100
f 95 102 100
f 95 100 11
f 31 106 105
f 105 107 31
f 105 106 98
f 100 107 105
f 11 105 98
f 100 105 11
f 246 260 8
f 8 312 246
f 315 334 70
f 246 315 70
f 315 336 334
f 312 315 246
f 262 276 74
f 273 276 77
f 74 276 261
f 261 276 273
f 274 276 262
f 77 276 274
f 23 273 264
f 23 264 257
f 273 277 264
f 264 267 257
f 75 267 264
f 264 277 75
f 66 328 314
f 247 332 22
f 70 334 247
f 247 334 332
f 22 272 247
f 272 274 247
f 247 274 70
f 168 252 18
f 18 173 168
f 18 192 173
f 28 244 94
f 28 102 95
f 294 307 305
f 305 307 83
f 81 307 294
f 292 307 81
f 294 305 76
f 76 271 270
f 268 294 76
f 76 270 268
f 76 305 269
f 269 271 76
f 36 270 259
f 36 259 122
f 595 604 410
f 258 265 29
f 258 267 265
f 73 267 258
f 73 258 256
f 299 301 289
f 34 121 118
f 446 573 369
f 566 572 358
f 572 633 358
f 358 663 576
f 358 576 566
f 114 121 34
f 35 121 119
f 119 121 114
f 119 120 35
f 117 120 33
f 112 120 119
f 33 120 112
f 163 209 50
f 164 166 50
f 159 166 164
f 159 164 17
f 319 331 329
f 25 317 309
f 317 320 309
f 29 103 97
f 97 258 29
f 3 256 97
f 256 258 97
f 131 133 40
f 128 133 27
f 93 133 131
f 27 133 93
f 132 139 40
f 137 139 132
f 127 174 172
f 172 174 53
f 169 175 174
f 174 175 53
f 132 134 127
f 40 134 132
f 128 134 133
f 133 134 40
f 585 603 600
f 585 587 408
f 408 603 585
f 434 436 366
f 366 602 595
f 366 595 434
f 472 476 377
f 377 476 470
f 465 473 375
f 470 473 377
f 581 588 587
f 406 588 581
f 649 652 422
f 583 652 649
f 426 671 669
f 407 671 652
f 671 673 652
f 426 673 671
f 584 671 407
f 669 671 584
f 609 611 414
f 599 611 407
f 599 613 611
f 611 613 414
f 407 611 584
f 584 611 609
f 590 669 359
f 359 669 584
f 584 609 359
f 359 609 586
f 598 613 411
f 610 613 598
f 360 610 598
f 598 639 360
f 411 641 598
f 598 641 639
f 572 636 633
f 420 644 642
f 420 642 639
f 639 642 606
f 606 642 413
f 27 96 92
f 27 101 96
f 92 96 94
f 101 102 96
f 94 96 28
f 96 102 28
f 416 622 619
f 416 637 620
f 544 554 357
f 401 563 561
f 538 550 384
f 538 552 550
f 421 657 646
f 646 657 654
f 177 187 184
f 184 187 56
f 16 211 157
f 211 213 157
f 157 213 47
f 47 201 156
f 47 213 201
f 213 215 201
f 214 227 62
f 62 215 213
f 62 227 212
f 212 215 62
f 211 214 62
f 62 213 211
f 209 219 50
f 50 219 164
f 49 204 161
f 14 183 130
f 127 172 14
f 172 183 14
f 130 137 14
f 14 137 132
f 14 132 127
f 5 176 154
f 137 138 41
f 135 138 39
f 130 138 137
f 39 138 130
f 56 185 183
f 39 185 178
f 185 187 178
f 56 187 185
f 183 185 130
f 130 185 39
f 39 178 129
f 129 176 5
f 129 178 176
f 129 135 39
f 582 592 406
f 375 473 464
f 464 473 470
f 520 523 509
f 393 523 520
f 507 519 517
f 395 533 531
f 531 533 519
f 518 561 392
f 392 533 518
f 518 533 530
f 52 323 311
f 322 325 87
f 87 325 323
f 323 325 311
f 311 325 84
f 309 325 322
f 84 325 309
f 170 182 52
f 182 194 52
f 180 182 170
f 55 182 180
f 192 194 58
f 58 195 192
f 58 197 195
f 193 197 58
f 45 152 151
f 43 152 149
f 144 152 43
f 151 152 144
f 481 489 488
f 382 490 488
f 488 489 382
f 381 490 486
f 381 486 483
f 43 149 143
f 353 525 492
f 353 548 525
f 548 551 525
f 525 527 492
f 394 527 525
f 525 551 394
f 394 562 526
f 551 562 394
f 551 564 562
f 562 564 401
f 145 150 44
f 42 148 141
f 141 148 146
f 44 153 146
f 146 148 44
f 146 153 151
f 146 151 15
f 141 146 15
f 199 215 212
f 61 209 206
f 206 208 61
f 485 487 381
f 479 487 485
f 483 485 381
f 499 555 553
f 653 655 499
f 553 556 501
f 501 503 496
f 496 503 385
f 500 502 387
f 502 503 387
f 387 503 501
f 501 556 387
f 379 487 479
f 379 479 477
f 495 497 477
f 497 503 502
f 385 497 495
f 385 503 497
f 477 497 379
f 497 502 379
f 349 456 449
f 449 623 349
f 446 452 349
f 452 456 349
f 370 457 450
f 372 457 456
f 449 457 370
f 456 457 449
f 474 475 467
f 467 475 376
f 376 475 468
f 378 475 474
f 312 314 85
f 313 336 85
f 85 336 315
f 85 315 312
f 66 298 233
f 233 328 66
f 82 299 296
f 296 298 82
f 233 298 296
f 233 296 21
f 66 314 232
f 232 314 312
f 232 312 8
f 329 331 88
f 171 192 18
f 52 194 171
f 171 194 192
f 171 323 52
f 248 250 95
f 95 250 28
f 28 250 244
f 71 250 248
f 71 251 250
f 250 251 244
f 81 294 291
f 291 294 268
f 125 291 13
f 13 291 268
f 125 293 291
f 291 293 81
f 24 292 279
f 297 301 82
f 24 297 283
f 304 306 285
f 83 306 304
f 303 307 292
f 24 303 292
f 283 303 24
f 283 306 303
f 83 307 303
f 303 306 83
f 111 280 278
f 288 290 280
f 33 288 280
f 33 280 111
f 13 268 123
f 268 270 123
f 123 270 36
f 594 604 601
f 410 604 594
f 594 601 360
f 360 606 594
f 413 608 606
f 606 608 594
f 594 608 410
f 340 593 459
f 593 595 410
f 434 593 340
f 434 595 593
f 286 288 112
f 109 236 234
f 234 289 286
f 80 290 288
f 289 301 80
f 80 288 286
f 286 289 80
f 21 296 235
f 296 299 235
f 67 299 289
f 236 237 67
f 234 236 67
f 67 289 234
f 235 299 67
f 67 237 235
f 34 118 113
f 230 237 236
f 65 237 230
f 32 110 108
f 32 236 109
f 230 236 32
f 108 230 32
f 566 574 572
f 402 574 566
f 575 656 653
f 369 573 567
f 573 574 567
f 565 567 402
f 567 574 402
f 445 567 565
f 369 567 445
f 417 627 624
f 624 638 417
f 617 625 370
f 623 625 417
f 370 625 449
f 449 625 623
f 617 627 625
f 625 627 417
f 569 621 619
f 635 637 621
f 621 637 416
f 619 621 416
f 570 665 663
f 633 635 570
f 570 663 358
f 358 633 570
f 642 644 631
f 413 631 605
f 413 642 631
f 68 241 240
f 319 329 68
f 68 329 239
f 239 241 68
f 318 320 86
f 86 331 319
f 86 320 317
f 317 331 86
f 316 318 86
f 86 319 316
f 17 238 159
f 17 316 238
f 316 319 238
f 238 240 159
f 68 240 238
f 238 319 68
f 126 169 38
f 169 174 38
f 38 174 127
f 127 134 38
f 38 128 126
f 38 134 128
f 375 506 463
f 591 592 582
f 469 472 377
f 585 600 348
f 581 587 365
f 579 582 406
f 406 581 579
f 422 667 651
f 422 651 649
f 651 667 665
f 649 651 569
f 345 619 597
f 345 597 583
f 569 619 345
f 583 649 345
f 345 649 569
f 580 590 359
f 580 592 590
f 406 592 580
f 359 586 580
f 580 588 406
f 586 588 580
f 634 638 624
f 620 637 634
f 620 634 361
f 361 634 624
f 419 635 633
f 633 636 419
f 419 637 635
f 636 638 419
f 634 637 419
f 419 638 634
f 626 638 636
f 417 638 626
f 417 626 623
f 416 643 622
f 420 643 640
f 640 643 620
f 620 643 416
f 641 643 420
f 622 643 641
f 560 563 401
f 401 564 560
f 560 564 549
f 357 560 549
f 399 564 551
f 550 552 399
f 399 552 549
f 549 564 399
f 399 551 548
f 548 550 399
f 400 558 556
f 555 557 400
f 400 556 553
f 553 555 400
f 554 558 400
f 400 557 554
f 517 542 539
f 539 542 397
f 647 657 421
f 655 657 647
f 494 548 353
f 494 550 548
f 384 550 494
f 156 198 6
f 156 201 198
f 6 198 143
f 164 216 17
f 164 219 216
f 216 219 63
f 202 205 180
f 7 202 180
f 161 202 7
f 161 204 202
f 178 187 54
f 176 178 54
f 54 187 177
f 383 516 491
f 383 527 516
f 527 528 516
f 516 528 391
f 590 672 669
f 669 672 426
f 362 670 659
f 362 659 646
f 467 520 351
f 351 520 509
f 351 509 464
f 351 474 467
f 470 474 351
f 464 470 351
f 509 523 390
f 523 532 390
f 510 512 390
f 390 532 510
f 356 530 521
f 356 521 514
f 518 530 356
f 514 526 356
f 55 196 182
f 193 196 181
f 181 196 55
f 58 196 193
f 182 196 194
f 194 196 58
f 488 490 484
f 381 487 484
f 484 490 381
f 401 561 559
f 559 562 401
f 559 561 518
f 526 562 559
f 526 559 356
f 356 559 518
f 142 148 42
f 163 165 141
f 141 165 42
f 50 165 163
f 50 166 165
f 61 221 209
f 207 221 61
f 217 221 207
f 209 221 219
f 219 221 63
f 63 221 217
f 202 204 60
f 203 226 60
f 60 226 205
f 60 205 202
f 217 220 63
f 204 220 60
f 203 220 217
f 60 220 203
f 20 207 199
f 20 217 207
f 203 217 20
f 20 223 203
f 212 223 20
f 199 212 20
f 499 655 386
f 386 655 647
f 386 647 498
f 386 555 499
f 575 653 354
f 496 575 354
f 354 653 499
f 499 553 354
f 354 501 496
f 354 553 501
f 496 577 575
f 385 577 496
f 387 556 546
f 387 546 500
f 500 546 543
f 556 558 546
f 543 546 398
f 546 558 398
f 452 455 371
f 369 455 446
f 446 455 452
f 452 458 456
f 456 458 372
f 371 458 452
f 454 458 371
f 326 328 233
f 326 329 88
f 88 328 326
f 239 329 326
f 21 326 233
f 239 326 21
f 285 306 79
f 79 306 283
f 88 331 327
f 327 331 317
f 313 327 25
f 25 327 317
f 252 321 18
f 18 321 171
f 252 324 321
f 321 323 171
f 321 324 87
f 87 323 321
f 37 293 125
f 278 281 124
f 124 281 37
f 281 293 37
f 287 301 297
f 279 290 287
f 279 287 24
f 287 297 24
f 80 301 287
f 287 290 80
f 459 596 373
f 593 596 459
f 410 608 596
f 410 596 593
f 12 286 112
f 234 286 12
f 109 234 12
f 12 114 109
f 12 119 114
f 112 119 12
f 21 235 229
f 229 239 21
f 229 237 65
f 235 237 229
f 65 241 229
f 229 241 239
f 113 115 34
f 9 145 91
f 91 113 9
f 91 115 113
f 114 116 109
f 109 116 32
f 32 116 110
f 34 116 114
f 110 116 115
f 115 116 34
f 240 241 231
f 231 241 65
f 165 166 160
f 42 165 160
f 404 636 572
f 572 574 404
f 404 574 573
f 626 636 404
f 425 667 664
f 665 667 425
f 663 665 425
f 663 666 576
f 425 666 663
f 423 655 653
f 653 656 423
f 423 657 655
f 654 657 423
f 338 565 495
f 338 495 477
f 445 565 338
f 403 665 570
f 569 651 403
f 651 665 403
f 570 635 403
f 403 621 569
f 403 635 621
f 628 630 462
f 605 631 628
f 460 605 350
f 350 628 462
f 605 628 350
f 624 627 616
f 361 624 616
f 461 615 341
f 341 615 448
f 615 617 448
f 631 644 418
f 418 632 630
f 418 630 628
f 628 631 418
f 375 511 506
f 464 511 375
f 509 511 464
f 390 511 509
f 511 512 506
f 390 512 511
f 506 512 388
f 388 591 582
f 364 465 429
f 377 471 469
f 471 473 465
f 377 473 471
f 364 471 465
f 436 443 366
f 431 581 365
f 579 581 431
f 432 587 585
f 365 587 432
f 432 585 348
f 463 506 504
f 504 582 579
f 388 582 504
f 504 506 388
f 571 573 446
f 623 626 571
f 404 573 571
f 571 626 404
f 349 571 446
f 349 623 571
f 536 552 396
f 549 552 536
f 357 549 536
f 536 544 357
f 536 547 544
f 396 547 536
f 397 563 540
f 540 563 560
f 540 560 357
f 357 554 540
f 554 557 540
f 540 557 397
f 539 541 498
f 541 557 555
f 541 555 386
f 498 541 386
f 397 557 541
f 397 541 539
f 498 647 645
f 645 647 421
f 201 215 59
f 198 201 59
f 59 215 199
f 198 200 143
f 200 208 43
f 143 200 43
f 59 200 198
f 17 216 162
f 162 316 17
f 49 318 162
f 162 318 316
f 49 218 204
f 162 218 49
f 216 218 162
f 63 218 216
f 63 220 218
f 218 220 204
f 54 179 176
f 176 179 154
f 154 179 46
f 179 190 46
f 342 513 466
f 513 515 466
f 391 515 513
f 513 516 391
f 491 513 342
f 491 516 513
f 426 674 670
f 672 674 426
f 661 674 672
f 670 674 659
f 409 592 591
f 661 672 409
f 589 661 409
f 409 591 589
f 590 592 409
f 409 672 590
f 646 662 421
f 659 662 646
f 530 534 521
f 523 534 532
f 521 534 393
f 393 534 523
f 395 534 530
f 532 534 395
f 510 532 529
f 510 529 355
f 395 531 529
f 529 532 395
f 478 487 379
f 484 487 478
f 478 502 500
f 379 502 478
f 566 578 402
f 576 578 566
f 451 454 371
f 479 485 363
f 8 282 232
f 282 285 79
f 260 285 282
f 260 282 8
f 79 284 282
f 282 284 232
f 284 298 66
f 232 284 66
f 85 330 313
f 313 330 327
f 314 330 85
f 327 330 88
f 328 330 314
f 88 330 328
f 462 630 374
f 78 281 278
f 78 290 279
f 278 280 78
f 280 290 78
f 607 608 413
f 596 608 607
f 605 607 413
f 596 607 373
f 373 607 460
f 460 607 605
f 108 110 90
f 1 108 90
f 145 147 91
f 44 147 145
f 44 148 147
f 147 148 142
f 228 231 65
f 65 230 228
f 228 230 108
f 1 228 108
f 42 160 140
f 140 142 42
f 90 140 1
f 90 142 140
f 158 228 1
f 158 231 228
f 140 158 1
f 140 160 158
f 423 668 654
f 656 668 423
f 654 668 664
f 666 668 656
f 664 668 425
f 425 668 666
f 616 632 629
f 418 644 629
f 629 632 418
f 629 644 640
f 629 640 361
f 616 629 361
f 415 632 616
f 616 627 415
f 415 627 617
f 415 617 615
f 630 632 618
f 461 618 615
f 374 618 461
f 374 630 618
f 618 632 415
f 615 618 415
f 589 591 505
f 505 591 388
f 355 589 505
f 505 510 355
f 505 512 510
f 388 512 505
f 347 469 430
f 469 471 430
f 430 471 364
f 430 437 347
f 430 439 437
f 364 439 430
f 368 444 442
f 442 443 368
f 431 433 429
f 429 433 364
f 433 439 364
f 365 433 431
f 339 431 429
f 429 463 339
f 339 579 431
f 504 579 339
f 463 504 339
f 517 539 344
f 507 517 344
f 344 539 498
f 344 645 507
f 498 645 344
f 208 210 61
f 200 210 208
f 61 210 207
f 59 210 200
f 207 210 199
f 199 210 59
f 190 191 57
f 179 191 190
f 57 191 189
f 54 191 179
f 189 191 177
f 177 191 54
f 645 648 507
f 421 648 645
f 421 662 648
f 648 662 660
f 352 543 481
f 500 543 352
f 478 500 352
f 481 488 352
f 352 488 484
f 352 484 478
f 402 568 565
f 402 578 568
f 565 568 495
f 568 578 577
f 495 568 385
f 568 577 385
f 405 666 656
f 577 578 405
f 405 656 575
f 575 577 405
f 576 666 405
f 405 578 576
f 445 447 369
f 447 455 369
f 428 485 483
f 363 485 428
f 428 483 346
f 346 451 428
f 79 300 284
f 297 300 283
f 283 300 79
f 82 300 297
f 298 300 82
f 284 300 298
f 292 295 279
f 279 295 78
f 78 295 281
f 81 295 292
f 293 295 81
f 281 295 293
f 26 142 90
f 26 147 142
f 91 147 26
f 26 115 91
f 110 115 26
f 90 110 26
f 48 240 231
f 48 231 158
f 159 240 48
f 48 166 159
f 160 166 48
f 158 160 48
f 435 442 348
f 348 600 435
f 366 443 435
f 435 443 442
f 600 602 435
f 435 602 366
f 433 441 439
f 432 441 365
f 365 441 433
f 658 661 589
f 355 658 589
f 424 674 661
f 660 662 424
f 659 674 424
f 424 662 659
f 658 660 424
f 424 661 658
f 427 445 338
f 427 447 445
f 363 447 427
f 427 479 363
f 477 479 427
f 338 477 427
f 371 455 453
f 453 455 447
f 371 453 451
f 363 453 447
f 451 453 428
f 428 453 363
f 438 441 432
f 442 444 438
f 348 438 432
f 348 442 438
f 367 444 440
f 439 441 367
f 367 440 437
f 437 439 367
f 438 444 367
f 367 441 438
f 355 529 508
f 508 658 355
f 529 531 508
f 508 660 658
f 508 531 389
f 389 519 507
f 389 531 519
f 389 660 508
f 507 648 389
f 648 660 389
f 341 448 111
f 4 341 111
f 448 450 111
f 111 450 117
f 136 476 472
f 139 476 136
f 378 476 41
f 41 476 139
f 3 340 122
f 340 459 122
f 4 461 341
f 124 461 4
f 47 493 384
f 156 493 47
f 153 382 45
f 153 490 382
f 6 493 156
f 343 493 6
f 155 492 46
f 46 492 383
f 353 492 16
f 16 492 155
f 122 459 36
f 36 459 373
f 97 340 3
f 97 434 340
f 103 436 97
f 97 436 434
f 466 468 129
f 129 468 135
f 383 491 46
f 46 491 154
f 45 382 152
f 382 489 152
f 152 482 149
f 152 489 482
f 486 490 153
f 150 486 153
f 143 482 480
f 149 482 143
f 143 343 6
f 143 480 343
f 9 346 145
f 346 483 145
f 145 486 150
f 483 486 145
f 450 457 117
f 117 457 120
f 35 457 372
f 120 457 35
f 41 475 378
f 138 475 41
f 468 475 135
f 135 475 138
f 36 373 123
f 373 460 123
f 136 469 131
f 136 472 469
f 104 440 107
f 440 444 107
f 99 440 104
f 437 440 99
f 107 444 368
f 107 368 31
f 16 494 353
f 157 494 16
f 384 494 47
f 47 494 157
f 342 466 129
f 5 342 129
f 154 491 342
f 154 342 5
f 121 458 118
f 118 458 454
f 35 458 121
f 372 458 35
f 123 460 350
f 123 350 13
f 13 350 125
f 350 462 125
f 347 437 99
f 10 347 99
f 131 469 347
f 131 347 10
f 103 443 436
f 106 443 103
f 368 443 31
f 31 443 106
f 9 451 346
f 113 451 9
f 118 454 451
f 118 451 113
f 125 462 374
f 125 374 37
f 374 461 124
f 37 374 124
