v -2 -2 -0.099999999999999978
v -2 -1.8999999999999999 -0.10999999999999999
v -2 -1.8 -0.11999999999999997
v -2 -1.7 -0.12999999999999998
v -2 -1.6000000000000001 -0.13999999999999996
v -2 -1.5 -0.14999999999999997
v -2 -1.3999999999999999 -0.16
v -2 -1.2999999999999998 -0.17000000000000001
v -2 -1.1000000000000001 -0.18999999999999997
v -2 -0.79999999999999982 -0.22
v -2 -0.69999999999999996 -0.22999999999999998
v -2 -0.59999999999999987 -0.23999999999999999
v -2 -0.5 -0.25
v -2 -0.29999999999999982 -0.27000000000000002
v -2 -0.19999999999999996 -0.27999999999999997
v -2 -0.099999999999999867 -0.28999999999999998
v -2 0 -0.29999999999999999
v -2 0.40000000000000036 -0.34000000000000002
v -2 0.5 -0.34999999999999998
v -2 0.90000000000000036 -0.39000000000000001
v -2 1 -0.40000000000000002
v -2 1.4000000000000004 -0.44000000000000006
v -2 1.5 -0.45000000000000001
v -2 1.9000000000000004 -0.49000000000000005
v -2 2 -0.5
v -1.8999999999999999 -2 -0.084999999999999964
v -1.8999999999999999 -1.8999999999999999 -0.094999999999999973
v -1.8999999999999999 -1.8 -0.10499999999999995
v -1.8999999999999999 -1.7 -0.11499999999999996
v -1.8999999999999999 -1.6000000000000001 -0.12499999999999994
v -1.8999999999999999 -1.5 -0.13499999999999995
v -1.8999999999999999 -1.3999999999999999 -0.14499999999999999
v -1.8999999999999999 -1.2999999999999998 -0.155
v -1.8999999999999999 -1.1000000000000001 -0.17499999999999996
v -1.8999999999999999 -0.79999999999999982 -0.20499999999999999
v -1.8999999999999999 -0.69999999999999996 -0.21499999999999997
v -1.8999999999999999 -0.59999999999999987 -0.22499999999999998
v -1.8999999999999999 -0.5 -0.23499999999999999
v -1.8999999999999999 -0.29999999999999982 -0.255
v -1.8999999999999999 -0.19999999999999996 -0.26499999999999996
v -1.8999999999999999 -0.099999999999999867 -0.27499999999999997
v -1.8999999999999999 0 -0.28499999999999998
v -1.8999999999999999 0.40000000000000036 -0.32500000000000001
v -1.8999999999999999 0.5 -0.33499999999999996
v -1.8999999999999999 0.90000000000000036 -0.375
v -1.8999999999999999 1 -0.38500000000000001
v -1.8999999999999999 1.4000000000000004 -0.42500000000000004
v -1.8999999999999999 1.5 -0.435
v -1.8999999999999999 1.9000000000000004 -0.47500000000000003
v -1.8999999999999999 2 -0.48499999999999999
v -1.8 -2 -0.070000000000000007
v -1.8 -1.8999999999999999 -0.080000000000000016
v -1.8 -1.8 -0.089999999999999997
v -1.8 -1.7 -0.10000000000000001
v -1.8 -1.6000000000000001 -0.10999999999999999
v -1.8 -1.5 -0.12
v -1.8 -1.3999999999999999 -0.13000000000000003
v -1.8 -1.2999999999999998 -0.14000000000000004
v -1.8 -1.1000000000000001 -0.16
v -1.8 -0.79999999999999982 -0.19000000000000003
v -1.8 -0.69999999999999996 -0.20000000000000001
v -1.8 -0.59999999999999987 -0.21000000000000002
v -1.8 -0.5 -0.22000000000000003
v -1.8 -0.29999999999999982 -0.24000000000000005
v -1.8 -0.19999999999999996 -0.25
v -1.8 -0.099999999999999867 -0.26000000000000001
v -1.8 0 -0.27000000000000002
v -1.8 0.40000000000000036 -0.31000000000000005
v -1.8 0.5 -0.32000000000000001
v -1.8 0.90000000000000036 -0.36000000000000004
v -1.8 1 -0.37
v -1.8 1.4000000000000004 -0.41000000000000003
v -1.8 1.5 -0.42000000000000004
v -1.8 1.9000000000000004 -0.46000000000000008
v -1.8 2 -0.47000000000000003
v -1.7 -2 -0.054999999999999993
v -1.7 -1.8999999999999999 -0.065000000000000002
v -1.7 -1.8 -0.074999999999999983
v -1.7 -1.7 -0.084999999999999992
v -1.7 -1.6000000000000001 -0.094999999999999973
v -1.7 -1.5 -0.10499999999999998
v -1.7 -1.3999999999999999 -0.11500000000000002
v -1.7 -1.2999999999999998 -0.12500000000000003
v -1.7 -1.1000000000000001 -0.14499999999999999
v -1.7 -0.79999999999999982 -0.17500000000000002
v -1.7 -0.69999999999999996 -0.185
v -1.7 -0.59999999999999987 -0.19500000000000001
v -1.7 -0.5 -0.20500000000000002
v -1.7 -0.29999999999999982 -0.22500000000000003
v -1.7 -0.19999999999999996 -0.23500000000000001
v -1.7 -0.099999999999999867 -0.24500000000000002
v -1.7 0 -0.255
v -1.7 0.40000000000000036 -0.29500000000000004
v -1.7 0.5 -0.30499999999999999
v -1.7 0.90000000000000036 -0.34500000000000003
v -1.7 1 -0.35499999999999998
v -1.7 1.4000000000000004 -0.39500000000000002
v -1.7 1.5 -0.40500000000000003
v -1.7 1.9000000000000004 -0.44500000000000006
v -1.7 2 -0.45500000000000002
v -1.6000000000000001 -2 -0.03999999999999998
v -1.6000000000000001 -1.8999999999999999 -0.049999999999999989
v -1.6000000000000001 -1.8 -0.05999999999999997
v -1.6000000000000001 -1.7 -0.069999999999999979
v -1.6000000000000001 -1.6000000000000001 -0.07999999999999996
v -1.6000000000000001 -1.5 -0.089999999999999969
v -1.6000000000000001 -1.3999999999999999 -0.10000000000000001
v -1.6000000000000001 -1.2999999999999998 -0.11000000000000001
v -1.6000000000000001 -1.1000000000000001 -0.12999999999999998
v -1.6000000000000001 -0.79999999999999982 -0.16
v -1.6000000000000001 -0.69999999999999996 -0.16999999999999998
v -1.6000000000000001 -0.59999999999999987 -0.17999999999999999
v -1.6000000000000001 -0.5 -0.19
v -1.6000000000000001 -0.29999999999999982 -0.21000000000000002
v -1.6000000000000001 -0.19999999999999996 -0.22
v -1.6000000000000001 -0.099999999999999867 -0.23000000000000001
v -1.6000000000000001 0 -0.23999999999999999
v -1.6000000000000001 0.40000000000000036 -0.28000000000000003
v -1.6000000000000001 0.5 -0.28999999999999998
v -1.6000000000000001 0.90000000000000036 -0.33000000000000002
v -1.6000000000000001 1 -0.33999999999999997
v -1.6000000000000001 1.4000000000000004 -0.38
v -1.6000000000000001 1.5 -0.39000000000000001
v -1.6000000000000001 1.9000000000000004 -0.43000000000000005
v -1.6000000000000001 2 -0.44
v -1.5 -2 -0.024999999999999967
v -1.5 -1.8999999999999999 -0.034999999999999976
v -1.5 -1.8 -0.044999999999999957
v -1.5 -1.7 -0.054999999999999966
v -1.5 -1.6000000000000001 -0.064999999999999947
v -1.5 -1.5 -0.074999999999999956
v -1.5 -1.3999999999999999 -0.084999999999999992
v -1.5 -1.2999999999999998 -0.095000000000000001
v -1.5 -1.1000000000000001 -0.11499999999999996
v -1.5 -0.79999999999999982 -0.14499999999999999
v -1.5 -0.69999999999999996 -0.15499999999999997
v -1.5 -0.59999999999999987 -0.16499999999999998
v -1.5 -0.29999999999999982 -0.19500000000000001
v -1.5 -0.19999999999999996 -0.20499999999999999
v -1.5 -0.099999999999999867 -0.215
v -1.5 0 -0.22499999999999998
v -1.5 0.30000000000000027 -0.255
v -1.5 0.40000000000000036 -0.26500000000000001
v -1.5 0.5 -0.27499999999999997
v -1.5 0.90000000000000036 -0.315
v -1.5 1 -0.32499999999999996
v -1.5 1.4000000000000004 -0.36499999999999999
v -1.5 1.9000000000000004 -0.41500000000000004
v -1.5 2 -0.42499999999999999
v -1.3999999999999999 -2 -0.0099999999999999811
v -1.3999999999999999 -1.8999999999999999 -0.01999999999999999
v -1.3999999999999999 -1.8 -0.029999999999999971
v -1.3999999999999999 -1.7 -0.03999999999999998
v -1.3999999999999999 -1.6000000000000001 -0.049999999999999961
v -1.3999999999999999 -1.5 -0.05999999999999997
v -1.3999999999999999 -1.3999999999999999 -0.070000000000000007
v -1.3999999999999999 -1.2999999999999998 -0.080000000000000016
v -1.3999999999999999 -0.79999999999999982 -0.13
v -1.3999999999999999 -0.69999999999999996 -0.14000000000000001
v -1.3999999999999999 -0.59999999999999987 -0.14999999999999999
v -1.3999999999999999 -0.5 -0.15999999999999998
v -1.3999999999999999 -0.19999999999999996 -0.19
v -1.3999999999999999 -0.099999999999999867 -0.20000000000000001
v -1.3999999999999999 0 -0.20999999999999999
v -1.3999999999999999 0.30000000000000027 -0.24000000000000002
v -1.3999999999999999 0.40000000000000036 -0.25
v -1.3999999999999999 0.5 -0.26000000000000001
v -1.3999999999999999 0.90000000000000036 -0.30000000000000004
v -1.3999999999999999 1 -0.31
v -1.3999999999999999 1.4000000000000004 -0.35000000000000003
v -1.3999999999999999 1.5 -0.35999999999999999
v -1.3999999999999999 2 -0.41000000000000003
v -1.2999999999999998 -2 0.0050000000000000322
v -1.2999999999999998 -1.8999999999999999 -0.0049999999999999767
v -1.2999999999999998 -1.8 -0.014999999999999958
v -1.2999999999999998 -1.7 -0.024999999999999967
v -1.2999999999999998 -1.6000000000000001 -0.034999999999999948
v -1.2999999999999998 -1.5 -0.044999999999999957
v -1.2999999999999998 -1.3999999999999999 -0.054999999999999993
v -1.2999999999999998 -0.69999999999999996 -0.12499999999999999
v -1.2999999999999998 -0.59999999999999987 -0.13499999999999998
v -1.2999999999999998 -0.5 -0.14499999999999996
v -1.2999999999999998 -0.29999999999999982 -0.16499999999999998
v -1.2999999999999998 -0.19999999999999996 -0.17499999999999999
v -1.2999999999999998 -0.099999999999999867 -0.185
v -1.2999999999999998 0 -0.19499999999999998
v -1.2999999999999998 0.40000000000000036 -0.23500000000000001
v -1.2999999999999998 0.5 -0.245
v -1.2999999999999998 0.90000000000000036 -0.28500000000000003
v -1.2999999999999998 1 -0.29499999999999998
v -1.2999999999999998 1.4000000000000004 -0.33500000000000002
v -1.2999999999999998 1.5 -0.34499999999999997
v -1.2999999999999998 1.9000000000000004 -0.38500000000000001
v -1.2999999999999998 2 -0.39500000000000002
v -1.2 -0.59999999999999987 -0.12
v -1.2 -0.5 -0.13
v -1.2 -0.29999999999999982 -0.15000000000000002
v -1.2 -0.19999999999999996 -0.16
v -1.2 0.40000000000000036 -0.22000000000000003
v -1.2 0.5 -0.22999999999999998
v -1.2 0.90000000000000036 -0.27000000000000002
v -1.2 1 -0.28000000000000003
v -1.2 1.4000000000000004 -0.32000000000000006
v -1.2 1.9000000000000004 -0.37000000000000005
v -1.2 2 -0.38
v -1.1000000000000001 -2 0.035000000000000003
v -1.1000000000000001 -1.8999999999999999 0.024999999999999994
v -1.1000000000000001 -1.8 0.015000000000000013
v -1.1000000000000001 -1.7 0.0050000000000000044
v -1.1000000000000001 -1.6000000000000001 -0.0049999999999999767
v -1.1000000000000001 -0.5 -0.115
v -1.1000000000000001 -0.39999999999999991 -0.125
v -1.1000000000000001 -0.29999999999999982 -0.13500000000000001
v -1.1000000000000001 -0.19999999999999996 -0.14500000000000002
v -1.1000000000000001 -0.099999999999999867 -0.15500000000000003
v -1.1000000000000001 0 -0.16500000000000001
v -1.1000000000000001 0.40000000000000036 -0.20500000000000004
v -1.1000000000000001 0.5 -0.21500000000000002
v -1.1000000000000001 0.90000000000000036 -0.25500000000000006
v -1.1000000000000001 1 -0.26500000000000001
v -1.1000000000000001 1.4000000000000004 -0.30500000000000005
v -1.1000000000000001 1.5 -0.31500000000000006
v -1.1000000000000001 1.9000000000000004 -0.35500000000000009
v -1.1000000000000001 2 -0.36499999999999999
v -1 -0.39999999999999991 -0.11
v -1 -0.29999999999999982 -0.12000000000000001
v -1 -0.19999999999999996 -0.13
v -0.79999999999999982 -2 0.080000000000000043
v -0.79999999999999982 -1.8999999999999999 0.070000000000000034
v -0.79999999999999982 -1.8 0.060000000000000053
v -0.79999999999999982 -1.7 0.050000000000000044
v -0.79999999999999982 -1.6000000000000001 0.040000000000000063
v -0.79999999999999982 -0.19999999999999996 -0.099999999999999978
v -0.79999999999999982 -0.099999999999999867 -0.10999999999999999
v -0.79999999999999982 0 -0.11999999999999997
v -0.79999999999999982 0.10000000000000009 -0.12999999999999998
v -0.79999999999999982 0.40000000000000036 -0.16
v -0.79999999999999982 0.5 -0.16999999999999998
v -0.79999999999999982 0.90000000000000036 -0.21000000000000002
v -0.79999999999999982 1 -0.21999999999999997
v -0.79999999999999982 1.4000000000000004 -0.26000000000000001
v -0.79999999999999982 1.5 -0.27000000000000002
v -0.79999999999999982 1.9000000000000004 -0.31000000000000005
v -0.79999999999999982 2 -0.31999999999999995
v -0.69999999999999996 -2 0.095000000000000015
v -0.69999999999999996 -1.8999999999999999 0.085000000000000006
v -0.69999999999999996 -1.8 0.075000000000000025
v -0.69999999999999996 -1.7 0.065000000000000016
v -0.69999999999999996 -1.6000000000000001 0.055000000000000035
v -0.69999999999999996 -1.5 0.045000000000000026
v -0.69999999999999996 -0.099999999999999867 -0.095000000000000001
v -0.69999999999999996 0 -0.105
v -0.69999999999999996 0.10000000000000009 -0.115
v -0.69999999999999996 0.20000000000000018 -0.125
v -0.69999999999999996 0.30000000000000027 -0.13500000000000001
v -0.69999999999999996 0.40000000000000036 -0.14500000000000002
v -0.69999999999999996 0.5 -0.155
v -0.69999999999999996 0.90000000000000036 -0.19500000000000003
v -0.69999999999999996 1 -0.20500000000000002
v -0.69999999999999996 1.4000000000000004 -0.24500000000000005
v -0.69999999999999996 1.5 -0.255
v -0.69999999999999996 1.9000000000000004 -0.29500000000000004
v -0.69999999999999996 2 -0.30499999999999999
v -0.59999999999999987 -2 0.11000000000000003
v -0.59999999999999987 -1.8999999999999999 0.10000000000000002
v -0.59999999999999987 -1.8 0.090000000000000038
v -0.59999999999999987 -1.7 0.080000000000000029
v -0.59999999999999987 -1.6000000000000001 0.070000000000000048
v -0.59999999999999987 -1.5 0.060000000000000039
v -0.59999999999999987 0 -0.089999999999999983
v -0.59999999999999987 0.20000000000000018 -0.11
v -0.59999999999999987 0.30000000000000027 -0.12000000000000001
v -0.59999999999999987 0.40000000000000036 -0.13
v -0.59999999999999987 0.5 -0.13999999999999999
v -0.59999999999999987 0.90000000000000036 -0.18000000000000002
v -0.59999999999999987 1 -0.19
v -0.59999999999999987 1.4000000000000004 -0.23000000000000004
v -0.59999999999999987 1.5 -0.23999999999999999
v -0.59999999999999987 1.9000000000000004 -0.28000000000000003
v -0.59999999999999987 2 -0.28999999999999998
v -0.5 -2 0.125
v -0.5 -1.8999999999999999 0.115
v -0.5 -1.8 0.10500000000000002
v -0.5 -1.7 0.095000000000000015
v -0.5 -1.6000000000000001 0.085000000000000034
v -0.5 -1.5 0.075000000000000025
v -0.5 -1.3999999999999999 0.064999999999999988
v -0.5 0.40000000000000036 -0.11500000000000003
v -0.5 0.5 -0.125
v -0.5 0.90000000000000036 -0.16500000000000004
v -0.5 1 -0.17499999999999999
v -0.5 1.4000000000000004 -0.21500000000000002
v -0.5 1.5 -0.22500000000000003
v -0.5 1.9000000000000004 -0.26500000000000007
v -0.5 2 -0.27500000000000002
v -0.39999999999999991 -1.8999999999999999 0.13
v -0.39999999999999991 -1.8 0.12000000000000004
v -0.39999999999999991 -1.7 0.11000000000000003
v -0.29999999999999982 -2 0.15500000000000003
v -0.29999999999999982 -1.8999999999999999 0.14500000000000002
v -0.29999999999999982 -1.8 0.13500000000000006
v -0.29999999999999982 -1.7 0.12500000000000006
v -0.29999999999999982 -1.6000000000000001 0.11500000000000006
v -0.29999999999999982 -1.5 0.10500000000000005
v -0.29999999999999982 -1.3999999999999999 0.095000000000000015
v -0.29999999999999982 -1.2999999999999998 0.085000000000000006
v -0.29999999999999982 0.30000000000000027 -0.074999999999999997
v -0.29999999999999982 0.40000000000000036 -0.085000000000000006
v -0.29999999999999982 0.5 -0.094999999999999973
v -0.29999999999999982 0.90000000000000036 -0.13500000000000001
v -0.29999999999999982 1 -0.14499999999999996
v -0.29999999999999982 1.4000000000000004 -0.185
v -0.29999999999999982 1.5 -0.19500000000000001
v -0.29999999999999982 1.9000000000000004 -0.23500000000000004
v -0.29999999999999982 2 -0.245
v -0.19999999999999996 -2 0.17000000000000001
v -0.19999999999999996 -1.8999999999999999 0.16
v -0.19999999999999996 -1.8 0.15000000000000002
v -0.19999999999999996 -1.7 0.14000000000000001
v -0.19999999999999996 -1.6000000000000001 0.13000000000000003
v -0.19999999999999996 -1.5 0.12000000000000002
v -0.19999999999999996 -1.3999999999999999 0.10999999999999999
v -0.19999999999999996 -1.2999999999999998 0.099999999999999978
v -0.19999999999999996 -1.1000000000000001 0.080000000000000016
v -0.19999999999999996 0.40000000000000036 -0.070000000000000034
v -0.19999999999999996 0.5 -0.079999999999999988
v -0.19999999999999996 0.90000000000000036 -0.12000000000000002
v -0.19999999999999996 1 -0.13
v -0.19999999999999996 1.4000000000000004 -0.17000000000000004
v -0.19999999999999996 1.5 -0.18000000000000002
v -0.19999999999999996 1.9000000000000004 -0.22000000000000006
v -0.19999999999999996 2 -0.23000000000000001
v -0.099999999999999867 -2 0.18500000000000003
v -0.099999999999999867 -1.8999999999999999 0.17500000000000002
v -0.099999999999999867 -1.8 0.16500000000000004
v -0.099999999999999867 -1.7 0.15500000000000003
v -0.099999999999999867 -1.6000000000000001 0.14500000000000005
v -0.099999999999999867 -1.5 0.13500000000000004
v -0.099999999999999867 -1.3999999999999999 0.125
v -0.099999999999999867 -1.2999999999999998 0.11499999999999999
v -0.099999999999999867 -1.1000000000000001 0.095000000000000029
v -0.099999999999999867 0.5 -0.064999999999999974
v -0.099999999999999867 0.90000000000000036 -0.10500000000000001
v -0.099999999999999867 1 -0.11499999999999999
v -0.099999999999999867 1.4000000000000004 -0.15500000000000003
v -0.099999999999999867 1.5 -0.16500000000000001
v -0.099999999999999867 1.9000000000000004 -0.20500000000000004
v -0.099999999999999867 2 -0.215
v 0 -2 0.20000000000000001
v 0 -1.8999999999999999 0.19
v 0 -1.8 0.18000000000000002
v 0 -1.7 0.17000000000000001
v 0 -1.6000000000000001 0.16000000000000003
v 0 -1.5 0.15000000000000002
v 0 -1.3999999999999999 0.13999999999999999
v 0 -1.2999999999999998 0.12999999999999998
v 0 -1.1000000000000001 0.11000000000000001
v 0 0.90000000000000036 -0.090000000000000038
v 0 1 -0.10000000000000001
v 0 1.4000000000000004 -0.14000000000000004
v 0 1.5 -0.15000000000000002
v 0 1.9000000000000004 -0.19000000000000006
v 0 2 -0.20000000000000001
v 0.30000000000000027 -0.79999999999999982 0.12500000000000003
v 0.30000000000000027 -0.69999999999999996 0.11500000000000003
v 0.40000000000000036 -2 0.26000000000000006
v 0.40000000000000036 -1.8999999999999999 0.25000000000000006
v 0.40000000000000036 -1.8 0.24000000000000007
v 0.40000000000000036 -1.7 0.23000000000000007
v 0.40000000000000036 -1.6000000000000001 0.22000000000000008
v 0.40000000000000036 -1.5 0.21000000000000008
v 0.40000000000000036 -1.3999999999999999 0.20000000000000004
v 0.40000000000000036 -1.2999999999999998 0.19000000000000003
v 0.40000000000000036 -1.2 0.18000000000000005
v 0.40000000000000036 -1.1000000000000001 0.17000000000000007
v 0.40000000000000036 -0.79999999999999982 0.14000000000000004
v 0.40000000000000036 -0.69999999999999996 0.13000000000000006
v 0.40000000000000036 -0.59999999999999987 0.12000000000000005
v 0.40000000000000036 -0.5 0.11000000000000006
v 0.40000000000000036 1 -0.039999999999999952
v 0.40000000000000036 1.4000000000000004 -0.079999999999999988
v 0.40000000000000036 1.5 -0.089999999999999969
v 0.40000000000000036 1.9000000000000004 -0.13
v 0.40000000000000036 2 -0.13999999999999996
v 0.5 -2 0.27500000000000002
v 0.5 -1.8999999999999999 0.26500000000000001
v 0.5 -1.8 0.255
v 0.5 -1.7 0.245
v 0.5 -1.6000000000000001 0.23500000000000004
v 0.5 -1.5 0.22500000000000003
v 0.5 -1.3999999999999999 0.21499999999999997
v 0.5 -1.2999999999999998 0.20499999999999996
v 0.5 -1.2 0.19500000000000001
v 0.5 -1.1000000000000001 0.185
v 0.5 -0.79999999999999982 0.15499999999999997
v 0.5 -0.69999999999999996 0.14499999999999999
v 0.5 -0.59999999999999987 0.13499999999999998
v 0.5 -0.5 0.125
v 0.5 1.4000000000000004 -0.065000000000000044
v 0.5 1.5 -0.075000000000000025
v 0.5 1.9000000000000004 -0.11500000000000006
v 0.5 2 -0.125
v 0.60000000000000009 2 -0.11
v 0.80000000000000027 -1.7 0.29000000000000004
v 0.80000000000000027 -1.6000000000000001 0.28000000000000008
v 0.80000000000000027 -1.5 0.27000000000000007
v 0.80000000000000027 -1.2999999999999998 0.25
v 0.80000000000000027 -1.2 0.24000000000000005
v 0.80000000000000027 -0.79999999999999982 0.20000000000000001
v 0.80000000000000027 -0.69999999999999996 0.19000000000000003
v 0.80000000000000027 -0.29999999999999982 0.15000000000000002
v 0.80000000000000027 -0.19999999999999996 0.14000000000000004
v 0.80000000000000027 -0.099999999999999867 0.13000000000000003
v 0.80000000000000027 1.4000000000000004 -0.020000000000000004
v 0.80000000000000027 1.5 -0.029999999999999985
v 0.80000000000000027 1.9000000000000004 -0.070000000000000021
v 0.80000000000000027 2 -0.079999999999999974
v 0.90000000000000036 -2 0.33500000000000008
v 0.90000000000000036 -1.8999999999999999 0.32500000000000007
v 0.90000000000000036 -1.8 0.31500000000000006
v 0.90000000000000036 -1.7 0.30500000000000005
v 0.90000000000000036 -1.6000000000000001 0.29500000000000004
v 0.90000000000000036 -1.5 0.28500000000000003
v 0.90000000000000036 -1.3999999999999999 0.27500000000000002
v 0.90000000000000036 -1.2999999999999998 0.26500000000000001
v 0.90000000000000036 -1.2 0.255
v 0.90000000000000036 -1.1000000000000001 0.24500000000000005
v 0.90000000000000036 -0.79999999999999982 0.21500000000000002
v 0.90000000000000036 -0.69999999999999996 0.20500000000000002
v 0.90000000000000036 -0.59999999999999987 0.19500000000000003
v 0.90000000000000036 -0.5 0.18500000000000005
v 0.90000000000000036 -0.29999999999999982 0.16500000000000004
v 0.90000000000000036 -0.19999999999999996 0.15500000000000003
v 0.90000000000000036 -0.099999999999999867 0.14500000000000002
v 0.90000000000000036 0 0.13500000000000004
v 0.90000000000000036 1.5 -0.014999999999999986
v 0.90000000000000036 1.9000000000000004 -0.055000000000000021
v 0.90000000000000036 2 -0.064999999999999974
v 1 -2 0.34999999999999998
v 1 -1.8999999999999999 0.33999999999999997
v 1 -1.8 0.33000000000000002
v 1 -1.7 0.32000000000000001
v 1 -1.6000000000000001 0.31000000000000005
v 1 -1.5 0.30000000000000004
v 1 -1.3999999999999999 0.28999999999999998
v 1 -1.2999999999999998 0.27999999999999997
v 1 -1.2 0.27000000000000002
v 1 -1.1000000000000001 0.26000000000000001
v 1 -0.79999999999999982 0.22999999999999998
v 1 -0.69999999999999996 0.21999999999999997
v 1 -0.59999999999999987 0.20999999999999999
v 1 -0.5 0.20000000000000001
v 1 -0.29999999999999982 0.17999999999999999
v 1 -0.19999999999999996 0.16999999999999998
v 1 -0.099999999999999867 0.15999999999999998
v 1 0 0.14999999999999999
v 1 1.5 -2.7755575615628914e-17
v 1 1.9000000000000004 -0.040000000000000063
v 1 2 -0.050000000000000017
v 1.2000000000000002 -0.69999999999999996 0.25
v 1.2000000000000002 -0.59999999999999987 0.24000000000000002
v 1.3000000000000003 -0.59999999999999987 0.255
v 1.3000000000000003 -0.5 0.24500000000000005
v 1.4000000000000004 -2 0.41000000000000003
v 1.4000000000000004 -1.8999999999999999 0.40000000000000002
v 1.4000000000000004 -1.8 0.39000000000000007
v 1.4000000000000004 -1.7 0.38000000000000006
v 1.4000000000000004 -1.6000000000000001 0.37000000000000011
v 1.4000000000000004 -1.5 0.3600000000000001
v 1.4000000000000004 -1.3999999999999999 0.35000000000000003
v 1.4000000000000004 -1.2999999999999998 0.34000000000000002
v 1.4000000000000004 -1.2 0.33000000000000007
v 1.4000000000000004 -1.1000000000000001 0.32000000000000006
v 1.4000000000000004 -0.79999999999999982 0.29000000000000004
v 1.4000000000000004 -0.69999999999999996 0.28000000000000003
v 1.4000000000000004 -0.59999999999999987 0.27000000000000002
v 1.4000000000000004 -0.5 0.26000000000000006
v 1.4000000000000004 -0.29999999999999982 0.24000000000000005
v 1.4000000000000004 -0.19999999999999996 0.23000000000000004
v 1.4000000000000004 -0.099999999999999867 0.22000000000000003
v 1.4000000000000004 0 0.21000000000000005
v 1.4000000000000004 0.40000000000000036 0.17000000000000001
v 1.4000000000000004 0.5 0.16000000000000003
v 1.4000000000000004 1.4000000000000004 0.070000000000000007
v 1.4000000000000004 1.5 0.060000000000000026
v 1.4000000000000004 1.9000000000000004 0.01999999999999999
v 1.4000000000000004 2 0.010000000000000037
v 1.5 -2 0.42499999999999999
v 1.5 -1.8999999999999999 0.41499999999999998
v 1.5 -1.8 0.40500000000000003
v 1.5 -1.7 0.39500000000000002
v 1.5 -1.6000000000000001 0.38500000000000001
v 1.5 -1.3999999999999999 0.36499999999999999
v 1.5 -1.2999999999999998 0.35499999999999998
v 1.5 -1.2 0.34499999999999997
v 1.5 -1.1000000000000001 0.33499999999999996
v 1.5 -0.79999999999999982 0.30499999999999994
v 1.5 -0.69999999999999996 0.29499999999999998
v 1.5 -0.59999999999999987 0.28499999999999998
v 1.5 -0.5 0.27499999999999997
v 1.5 -0.29999999999999982 0.25499999999999995
v 1.5 -0.19999999999999996 0.24499999999999997
v 1.5 -0.099999999999999867 0.23499999999999996
v 1.5 0 0.22499999999999998
v 1.5 0.40000000000000036 0.18499999999999994
v 1.5 0.5 0.17499999999999999
v 1.5 1.4000000000000004 0.084999999999999937
v 1.5 1.5 0.074999999999999956
v 1.5 1.9000000000000004 0.03499999999999992
v 1.5 2 0.024999999999999967
v 1.6000000000000001 -0.19999999999999996 0.26000000000000001
v 1.6000000000000001 -0.099999999999999867 0.24999999999999997
v 1.7000000000000002 -0.099999999999999867 0.26500000000000001
v 1.7000000000000002 0 0.255
v 1.9000000000000004 -2 0.48500000000000004
v 1.9000000000000004 -1.8999999999999999 0.47500000000000003
v 1.9000000000000004 -1.8 0.46500000000000008
v 1.9000000000000004 -1.7 0.45500000000000007
v 1.9000000000000004 -1.6000000000000001 0.44500000000000006
v 1.9000000000000004 -1.5 0.43500000000000005
v 1.9000000000000004 -1.2999999999999998 0.41500000000000004
v 1.9000000000000004 -1.2 0.40500000000000003
v 1.9000000000000004 -1.1000000000000001 0.39500000000000002
v 1.9000000000000004 -0.79999999999999982 0.36499999999999999
v 1.9000000000000004 -0.69999999999999996 0.35500000000000004
v 1.9000000000000004 -0.59999999999999987 0.34500000000000003
v 1.9000000000000004 -0.5 0.33500000000000002
v 1.9000000000000004 -0.29999999999999982 0.315
v 1.9000000000000004 -0.19999999999999996 0.30500000000000005
v 1.9000000000000004 -0.099999999999999867 0.29500000000000004
v 1.9000000000000004 0 0.28500000000000003
v 1.9000000000000004 0.40000000000000036 0.245
v 1.9000000000000004 0.5 0.23500000000000004
v 1.9000000000000004 0.90000000000000036 0.19500000000000001
v 1.9000000000000004 1 0.18500000000000003
v 1.9000000000000004 1.4000000000000004 0.14499999999999999
v 1.9000000000000004 1.5 0.13500000000000001
v 1.9000000000000004 1.9000000000000004 0.094999999999999973
v 1.9000000000000004 2 0.08500000000000002
v 2 -2 0.5
v 2 -1.8999999999999999 0.48999999999999999
v 2 -1.8 0.47999999999999998
v 2 -1.7 0.46999999999999997
v 2 -1.6000000000000001 0.46000000000000002
v 2 -1.5 0.45000000000000001
v 2 -1.3999999999999999 0.43999999999999995
v 2 -1.2999999999999998 0.42999999999999994
v 2 -1.2 0.41999999999999998
v 2 -1.1000000000000001 0.41000000000000003
v 2 -0.79999999999999982 0.38
v 2 -0.69999999999999996 0.37
v 2 -0.59999999999999987 0.35999999999999999
v 2 -0.5 0.34999999999999998
v 2 -0.29999999999999982 0.32999999999999996
v 2 -0.19999999999999996 0.32000000000000001
v 2 -0.099999999999999867 0.31
v 2 0 0.29999999999999999
v 2 0.40000000000000036 0.25999999999999995
v 2 0.5 0.25
v 2 0.90000000000000036 0.20999999999999996
v 2 1 0.19999999999999998
v 2 1.4000000000000004 0.15999999999999995
v 2 1.5 0.14999999999999997
v 2 1.9000000000000004 0.10999999999999993
v 2 2 0.099999999999999978
v -2 -2 -0.90000000000000002
v -2 2 -0.90000000000000002
v 2 -2 -0.90000000000000002
v 2 2 -0.90000000000000002
v -1 -1.3680117784833934 -0.14545556584642799
v -1 -1 -0.24999999999999994
v -1.3500000000000001 -1.2163118960624633 -0.11631189606246312
v -1.1124354249480162 -1.4856463342923145 -0.041432511343314105
v -0.88756457505198383 -1.4856463342923145 -0.041432511343314105
v -1 -1.1912865702388702 -0.22335685044874226
v -0.81807566089457184 -1.3037219951868864 -0.15386793629133028
v -0.702272217076786 -1.4114496766047311 -0.031733672164910687
v -0.81599411075830319 -1.1137218936815172 -0.21573956140660749
v -1.1819243391054282 -1.3037219951868864 -0.15386793629133028
v -1.1840058892416967 -1.1137218936815172 -0.21573956140660749
v -1.1840058892416967 -0.88627810631848281 -0.21573956140660749
v -1.3680117784833936 -1 -0.14545556584642788
v -1.0567604054103124 -1.4309494146115764 -0.098690129693979889
v -0.94323959458968754 -1.4309494146115764 -0.098690129693979889
v -0.83403957225459679 -1.5310566101142802 0.025222395509730045
v -1 -1.4920349213414412 -0.047897214473551386
v -1 -1.282348744032155 -0.19053039486308881
v -1 -1.0965665694893436 -0.24330721736980326
v -0.90815973483089096 -1.3391091494424674 -0.15545053510429235
v -0.73147038712046653 -1.2625269972347468 -0.14073803223567299
v -0.8508839940456091 -1.3998761613949962 -0.10485446048149699
v -0.90784124005355471 -1.2507601554406054 -0.19701322042794228
v -0.73977637587787082 -1.4949747468305832 0.028949331494718011
v -0.67209910439313192 -1.3177933498176828 -0.080554794033443511
v -0.79279678519556196 -1.4531883257175569 -0.041616892720361565
v -0.75769288964770554 -1.3612851340357428 -0.098416188854319187
v -0.90685022710158603 -1.0575697256955536 -0.24138183841659638
v -0.90704526622046833 -1.1540819192313048 -0.22647481818170728
v -0.81514207453865406 -1.2108812153652624 -0.19137092263385097
v -0.60502205176395996 -1.3593628088613134 -0.0026044542584121033
v -1.091840265169109 -1.3391091494424674 -0.15545053510429235
v -1.2685296128795334 -1.2625269972347468 -0.14073803223567299
v -1.1491160059543908 -1.3998761613949962 -0.10485446048149699
v -1.0921587599464453 -1.2507601554406054 -0.19701322042794228
v -1.3279008956068681 -1.3177933498176828 -0.080554794033443511
v -1.207203214804438 -1.4531883257175569 -0.041616892720361565
v -1.2423071103522945 -1.3612851340357428 -0.098416188854319187
v -1.0931497728984139 -1.0575697256955536 -0.24138183841659638
v -1.2703311699113145 -1.1670738512237153 -0.17370456693185748
v -1.0929547337795318 -1.1540819192313048 -0.22647481818170728
v -1.1848579254613458 -1.2108812153652624 -0.19137092263385097
v -1.2685296128795334 -0.73747300276525318 -0.14073803223567299
v -1.0931497728984139 -0.94243027430444637 -0.24138183841659638
v -1.2703311699113145 -0.83292614877628479 -0.17370456693185748
v -1.0929547337795318 -0.84591808076869535 -0.22647481818170728
v -1.1864832907941971 -1 -0.22470288442733571
v -1.1848579254613458 -0.7891187846347375 -0.19137092263385097
v -1.3634809428097285 -1.1095041255281617 -0.13812451972899714
v -1.3634809428097285 -0.89049587447183842 -0.13812451972899714
v -1.2797249361912959 -1.0576265060223722 -0.18908774505260934
v -1.2797249361912959 -0.94237349397762793 -0.18908774505260934
v -1.0284482835179289 -1.4004389041389587 -0.12344518414306466
v -1.0848008557601079 -1.4593972778673787 -0.071308887273558608
v -0.97155171648207095 -1.4004389041389587 -0.12344518414306466
v -0.91519914423989202 -1.4593972778673787 -0.071308887273558608
v -1 -1.4323731828101876 -0.10050288899022869
v -0.86046815398187615 -1.5095709483910258 -0.0092039987877336471
v -1.0564010886736404 -1.4904351739591872 -0.046278407086233986
v -0.94359891132635965 -1.4904351739591872 -0.046278407086233986
v -1.0284494737126169 -1.462618587958179 -0.07457093850217783
v -0.97155052628738314 -1.462618587958179 -0.07457093850217783
v -1.0848348009337681 -1.5172203863845337 -0.013989362441383657
v -1.0284739465137216 -1.5204470180123708 -0.017251683583873856
v -0.91516519906623184 -1.5172203863845337 -0.013989362441383657
v -0.88827095424857916 -1.5402883837053234 0.019180916429453077
v -0.9715260534862783 -1.5204470180123708 -0.017251683583873856
v -1 -1.325960330967427 -0.16947547379666722
v -1 -1.2373857552123388 -0.2085195541684905
v -1 -1.0483991107415087 -0.24832479984562422
v -1 -1.1442718330025612 -0.23497126815807473
v -1 -0.95160088925849129 -0.24832479984562422
v -0.95396971034639744 -1.3544086144853562 -0.1518934676609936
v -0.862789333105068 -1.3221866109724467 -0.15610974303366648
v -0.92545419168968668 -1.3863013395555797 -0.12897685404593401
v -0.953928156745392 -1.3117555312452662 -0.17504869730054201
v -0.77423273062965892 -1.2838036790206848 -0.1487358448058575
v -0.86879770807230405 -1.4442054879487918 -0.074849924329894069
v -0.83393991826949754 -1.352946609472345 -0.13125101300353431
v -0.89681054053740272 -1.4164267364460081 -0.10311907273998761
v -0.87922779882095881 -1.3703945210169475 -0.13156854645260446
v -0.95377031398960443 -1.221744317544649 -0.21233848881673639
v -0.86251143551315756 -1.2781454062182893 -0.17748069901392999
v -0.95380814848782935 -1.2672050615543502 -0.19534313968121902
v -0.90777593305876847 -1.2956545352669671 -0.17776039796477522
v -0.7201616482301505 -1.4546136338311286 -0.0027879645193658598
v -0.78635125286691943 -1.5143559759450134 0.025980964038030685
v -0.68621837670967756 -1.3657489953011641 -0.057709331528857211
v -0.70100563282064576 -1.2909182418729348 -0.11211114998777422
v -0.83976999400137753 -1.4706235870656852 -0.04278776818738983
v -0.7468857430458048 -1.433429927013927 -0.037925887092729871
v -0.81283323140677932 -1.4936653069551968 -0.0096337296622202029
v -0.82137429291782782 -1.4276481265104322 -0.074604552650385736
v -0.76571590212186513 -1.4752391424579701 -0.0074480505557341647
v -0.67035806953499621 -1.4334691065206855 0.010181024316294141
v -0.68922984138454091 -1.4752837101438057 0.040699006370542523
v -0.78733920359547749 -1.3333579957260171 -0.12762256912115794
v -0.72928869220563064 -1.3873602498125912 -0.066398513453891528
v -0.74378088360180916 -1.3128839133988059 -0.12136277541364099
v -0.8037764261785012 -1.3815763132573839 -0.10307849916410744
v -0.7141998337412121 -1.3403683244706572 -0.090802800162394337
v -0.77450126965806798 -1.4085840097388893 -0.071736935245979849
v -0.95328109475757705 -1.0288738713570031 -0.24784213361318957
v -0.86099365877095657 -1.0859106435313146 -0.23065894427837358
v -0.95330343266419804 -1.077269494739854 -0.24415333736984984
v -0.72986569859211947 -1.2153616087656591 -0.15880771732357629
v -0.95340320068115181 -1.1731279897273947 -0.22665015884590617
v -0.86116383700530708 -1.1342459928583961 -0.22283172728875872
v -0.95337692324987344 -1.1257171448055854 -0.23703819996873771
v -0.90720110849806135 -1.2029506061752118 -0.21347525740537271
v -0.90672053286835841 -1.1060842265925221 -0.23559833567468885
v -0.81613760934148361 -1.2579627906611628 -0.17421936844000613
v -0.81509415980397126 -1.1627186192195578 -0.20523467644858445
v -0.77259552969348233 -1.2374461905570062 -0.16798585216376755
v -0.86112929524501314 -1.2314245526889336 -0.19587739066604598
v -0.77184971488104526 -1.1894389761991824 -0.18408226729403593
v -0.86063412022873886 -1.1830852793969573 -0.21110281501724099
v -0.65249106086975139 -1.3866926705577856 -0.018728402981360914
v -0.6374207681096471 -1.3396457953845 -0.043129835113869364
v -0.62154501401497719 -1.4073663742719056 0.024765405104855309
v -0.5747654051048553 -1.3784549859850228 0.042633625728094371
v -0.95328109475757705 -0.97112612864299697 -0.24784213361318957
v -1.0460302896536027 -1.3544086144853562 -0.1518934676609936
v -1.137210666894932 -1.3221866109724467 -0.15610974303366648
v -1.0745458083103134 -1.3863013395555797 -0.12897685404593401
v -1.0460718432546081 -1.3117555312452662 -0.17504869730054201
v -1.3100066968202966 -1.239993786116536 -0.12991277840035481
v -1.225767269370341 -1.2838036790206848 -0.1487358448058575
v -1.1312022919276961 -1.4442054879487918 -0.074849924329894069
v -1.1660600817305025 -1.352946609472345 -0.13125101300353431
v -1.1031894594625973 -1.4164267364460081 -0.10311907273998761
v -1.1207722011790413 -1.3703945210169475 -0.13156854645260446
v -1.0462296860103957 -1.221744317544649 -0.21233848881673639
v -1.1374885644868424 -1.2781454062182893 -0.17748069901392999
v -1.0461918515121706 -1.2672050615543502 -0.19534313968121902
v -1.0922240669412315 -1.2956545352669671 -0.17776039796477522
v -1.3883181030253278 -1.1915946753750273 -0.10000048293683245
v -1.3399985498638849 -1.2678784026555627 -0.10012920980544143
v -1.2989943671793542 -1.2909182418729348 -0.11211114998777422
v -1.1602300059986226 -1.4706235870656852 -0.04278776818738983
v -1.1786257070821722 -1.4276481265104322 -0.074604552650385736
v -1.2126607964045226 -1.3333579957260171 -0.12762256912115794
v -1.2707113077943695 -1.3873602498125912 -0.066398513453891528
v -1.2562191163981908 -1.3128839133988059 -0.12136277541364099
v -1.1962235738214988 -1.3815763132573839 -0.10307849916410744
v -1.2858001662587879 -1.3403683244706572 -0.090802800162394337
v -1.225498730341932 -1.4085840097388893 -0.071736935245979849
v -1.0467189052424231 -1.0288738713570031 -0.24784213361318957
v -1.1390063412290434 -1.0859106435313146 -0.23065894427837358
v -1.046696567335802 -1.077269494739854 -0.24415333736984984
v -1.3111246785068817 -1.1922856260561367 -0.14684811504786449
v -1.2278709797590077 -1.1408320105408061 -0.19671567275790064
v -1.2701343014078805 -1.2153616087656591 -0.15880771732357629
v -1.0465967993188481 -1.1731279897273947 -0.22665015884590617
v -1.1388361629946928 -1.1342459928583961 -0.22283172728875872
v -1.0466230767501266 -1.1257171448055854 -0.23703819996873771
v -1.0927988915019387 -1.2029506061752118 -0.21347525740537271
v -1.0932794671316415 -1.1060842265925221 -0.23559833567468885
v -1.1838623906585164 -1.2579627906611628 -0.17421936844000613
v -1.1849058401960288 -1.1627186192195578 -0.20523467644858445
v -1.2274044703065177 -1.2374461905570062 -0.16798585216376755
v -1.1388707047549869 -1.2314245526889336 -0.19587739066604598
v -1.2281502851189547 -1.1894389761991824 -0.18408226729403593
v -1.1393658797712611 -1.1830852793969573 -0.21110281501724099
v -1.3100066968202966 -0.76000621388346412 -0.12991277840035481
v -1.225767269370341 -0.71619632097931507 -0.1487358448058575
v -1.2562191163981908 -0.68711608660119405 -0.12136277541364099
v -1.0467189052424231 -0.97112612864299697 -0.24784213361318957
v -1.1390063412290434 -0.91408935646868539 -0.23065894427837358
v -1.046696567335802 -0.92273050526014588 -0.24415333736984984
v -1.0934664043287012 -1 -0.24373195923343743
v -1.3111246785068817 -0.80771437394386314 -0.14684811504786449
v -1.2278709797590077 -0.85916798945919381 -0.19671567275790064
v -1.2701343014078805 -0.78463839123434087 -0.15880771732357629
v -1.1388361629946928 -0.86575400714160389 -0.22283172728875872
v -1.0932794671316415 -0.89391577340747785 -0.23559833567468885
v -1.1858629084792569 -1.0570507400927818 -0.2224583201258627
v -1.1858629084792569 -0.94294925990721823 -0.2224583201258627
v -1.140257447438656 -1.028875636769041 -0.23519635582741899
v -1.140257447438656 -0.97112436323095896 -0.23519635582741899
v -1.1849058401960288 -0.83728138078044223 -0.20523467644858445
v -1.2274044703065177 -0.76255380944299378 -0.16798585216376755
v -1.2281502851189547 -0.81056102380081763 -0.18408226729403593
v -1.1393658797712611 -0.8169147206030426 -0.21110281501724099
v -1.3578435837493048 -1.1634117546991338 -0.12900308116244458
v -1.3668773209880511 -1.0549213670094915 -0.14361997506017193
v -1.3951589701904956 -1.1380921140258051 -0.11105254328081521
v -1.3179832722760298 -1.1387590554391209 -0.15797414672522964
v -1.3578435837493048 -0.83658824530086617 -0.12900308116244458
v -1.3668773209880511 -0.94507863299050854 -0.14361997506017193
v -1.3179832722760298 -0.86124094456087907 -0.15797414672522964
v -1.4021204194943895 -1.0284726263611617 -0.12226609000862004
v -1.399798169415901 -1.0833547496066602 -0.11851860958961175
v -1.2326393444421568 -1.0859601673904369 -0.20459131146061788
v -1.3249493809956141 -1.0289094272976551 -0.16933201499994227
v -1.2758953621979616 -1.112704478253453 -0.18338728255252518
v -1.2338980445506094 -1.0289113882868828 -0.20913263944575394
v -1.3226171239370661 -1.0838288414844119 -0.16554115758246163
v -1.4021204194943895 -0.97152737363883834 -0.12226609000862004
v -1.399798169415901 -0.91664525039333977 -0.11851860958961175
v -1.2326393444421568 -0.91403983260956312 -0.20459131146061788
v -1.3249493809956141 -0.971090572702345 -0.16933201499994227
v -1.2758953621979616 -0.88729552174654702 -0.18338728255252518
v -1.2338980445506094 -0.97108861171311722 -0.20913263944575394
v -1.3226171239370661 -0.91617115851558806 -0.16554115758246163
v -1.2806776534607311 -1 -0.19126441882251483
v 1 1.3680117784833934 -0.045455565846427959
v 1 1 -0.14999999999999991
v 1.3500000000000001 0.78368810393753674 -0.016311896062463083
v 1.3500000000000001 1.2163118960624633 -0.016311896062463083
v 1 1.1912865702388702 -0.12335685044874223
v 1.491432511343314 0.88756457505198383 0.064353665707685692
v 1.1840058892416967 0.88627810631848281 -0.11573956140660746
v 1.4817336721649106 0.702272217076786 0.13855032339526885
v 1.1819243391054282 1.3037219951868864 -0.053867936291330243
v 1.491432511343314 1.1124354249480162 0.064353665707685692
v 1.1840058892416967 1.1137218936815172 -0.11573956140660746
v 1.3680117784833936 1 -0.045455565846427848
v 0.81807566089457184 1.3037219951868864 -0.053867936291330243
v 1.0567604054103124 1.4309494146115764 0.0013098703060201444
v 1 1.282348744032155 -0.090530394863088781
v 1 1.0965665694893436 -0.14330721736980323
v 1.2685296128795334 0.73747300276525318 -0.040738032235672961
v 1.5486901296939799 0.94323959458968754 0.11905058538842356
v 1.42477760449027 0.83403957225459679 0.018943389885719863
v 1.3279008956068681 0.68220665018231719 0.019445205966556522
v 1.0931497728984139 0.94243027430444637 -0.14138183841659635
v 1.2703311699113145 0.83292614877628479 -0.073704566931857451
v 1.4210506685052819 0.73977637587787082 0.055025253169416866
v 1.4916168927203617 0.79279678519556196 0.096811674282443194
v 1.39497794823604 0.64063719113868656 0.09739554574158793
v 1.091840265169109 1.3391091494424674 -0.05545053510429232
v 1.2685296128795334 1.2625269972347468 -0.040738032235672961
v 1.1491160059543908 1.3998761613949962 -0.0048544604814969583
v 1.0921587599464453 1.2507601554406054 -0.097013220427942248
v 1.5486901296939799 1.0567604054103126 0.11905058538842356
v 1.42477760449027 1.1659604277454032 0.018943389885719863
v 1.4978972144735514 1 0.057965078658558822
v 1.3279008956068681 1.3177933498176828 0.019445205966556522
v 1.2423071103522945 1.3612851340357428 0.0015838111456808468
v 1.0931497728984139 1.0575697256955536 -0.14138183841659635
v 1.2703311699113145 1.1670738512237153 -0.073704566931857451
v 1.0929547337795318 1.1540819192313048 -0.12647481818170725
v 1.1864832907941971 1 -0.12470288442733568
v 1.1848579254613458 1.2108812153652624 -0.091370922633850937
v 1.4210506685052819 1.2602236241221292 0.055025253169416866
v 1.4916168927203617 1.207203214804438 0.096811674282443194
v 1.3634809428097285 0.89049587447183842 -0.038124519728997108
v 1.3634809428097285 1.1095041255281617 -0.038124519728997108
v 1.4341677078294131 0.94320070386604227 0.0038569405029114101
v 1.2797249361912959 0.94237349397762793 -0.089087745052609302
v 1.4341677078294131 1.0567992961339578 0.0038569405029114101
v 1.2797249361912959 1.0576265060223722 -0.089087745052609302
v 0.90815973483089096 1.3391091494424674 -0.05545053510429232
v 0.73147038712046653 1.2625269972347468 -0.040738032235672961
v 0.90784124005355471 1.2507601554406054 -0.097013220427942248
v 0.90704526622046833 1.1540819192313048 -0.12647481818170725
v 0.81514207453865406 1.2108812153652624 -0.091370922633850937
v 0.97155171648207095 1.4004389041389587 -0.023445184143064624
v 1.0284482835179289 1.4004389041389587 -0.023445184143064624
v 1 1.4323731828101876 -0.00050288899022865596
v 1 1.325960330967427 -0.069475473796667186
v 1 1.2373857552123388 -0.10851955416849046
v 1 1.0483991107415087 -0.14832479984562419
v 1 1.1442718330025612 -0.1349712681580747
v 1.3100066968202966 0.76000621388346412 -0.029912778400354778
v 1.5213088872735587 0.91519914423989202 0.090602722132621438
v 1.3883181030253278 0.80840532462497283 -4.8293683241329433e-07
v 1.4592039987877337 0.86046815398187615 0.040429051608974143
v 1.5248499243298941 0.86879770807230405 0.10579451205120838
v 1.5531190727399875 0.89681054053740272 0.13357326355399179
v 1.3399985498638849 0.73212159734443716 -0.00012920980544139926
v 1.2989943671793542 0.7090817581270652 -0.012111149987774184
v 1.0467189052424231 0.97112612864299697 -0.14784213361318954
v 1.1390063412290434 0.91408935646868539 -0.13065894427837355
v 1.3111246785068817 0.80771437394386314 -0.046848115047864458
v 1.2278709797590077 0.85916798945919381 -0.096715672757900606
v 1.2701343014078805 0.78463839123434087 -0.058807717323576258
v 1.1388361629946928 0.86575400714160389 -0.12283172728875869
v 1.1849058401960288 0.83728138078044223 -0.10523467644858442
v 1.2281502851189547 0.81056102380081763 -0.084082267294035895
v 1.3867174551063077 0.76099546870144019 0.017715824079978515
v 1.452787964519366 0.72016164823015039 0.095386366168871528
v 1.4240190359619693 0.78635125286691931 0.035644024054986678
v 1.3757486869574076 0.71000912555080009 0.035492257603471633
v 1.4927877681873898 0.83976999400137753 0.079376412934314799
v 1.4879258870927301 0.74688574304580468 0.11657007298607291
v 1.4596337296622202 0.81283323140677932 0.056334693044803152
v 1.5246045526503857 0.82137429291782782 0.12235187348956789
v 1.4574480505557341 0.76571590212186502 0.074760857542029879
v 1.52173693524598 0.77450126965806798 0.14141599026111074
v 1.4398189756837059 0.67035806953499621 0.11653089347931461
v 1.3625792318903529 0.66035420461549987 0.05687016488613067
v 1.4093009936294574 0.68922984138454091 0.074716289856194273
v 1.4252345948951448 0.62154501401497719 0.1426336257280944
v 1.0460302896536027 1.3544086144853562 -0.051893467660993564
v 1.137210666894932 1.3221866109724467 -0.056109743033666448
v 1.0745458083103134 1.3863013395555797 -0.028976854045933975
v 1.0460718432546081 1.3117555312452662 -0.075048697300541978
v 1.3100066968202966 1.239993786116536 -0.029912778400354778
v 1.225767269370341 1.2838036790206848 -0.048735844805857464
v 1.1312022919276961 1.4442054879487918 0.025150075670105965
v 1.1660600817305025 1.352946609472345 -0.031251013003534278
v 1.1031894594625973 1.4164267364460081 -0.0031190727399875717
v 1.1207722011790413 1.3703945210169475 -0.031568546452604429
v 1.0462296860103957 1.221744317544649 -0.11233848881673636
v 1.1374885644868424 1.2781454062182893 -0.077480699013929955
v 1.0461918515121706 1.2672050615543502 -0.095343139681218991
v 1.0922240669412315 1.2956545352669671 -0.077760397964775185
v 1.5213088872735587 1.0848008557601079 0.090602722132621438
v 1.5505028889902288 1 0.11762681718981238
v 1.3883181030253278 1.1915946753750273 -4.8293683241329433e-07
v 1.4592039987877337 1.1395318460181239 0.040429051608974143
v 1.5248499243298941 1.1312022919276961 0.10579451205120838
v 1.4962784070862341 0.94359891132635965 0.059564826040812813
v 1.4962784070862341 1.0564010886736404 0.059564826040812813
v 1.524570938502178 0.97155052628738314 0.087381412041821205
v 1.524570938502178 1.0284494737126169 0.087381412041821205
v 1.3399985498638849 1.2678784026555627 -0.00012920980544139926
v 1.3137816232903226 1.3657489953011641 0.042290668471142823
v 1.2989943671793542 1.2909182418729348 -0.012111149987774184
v 1.1786257070821722 1.4276481265104322 0.025395447349614297
v 1.2126607964045226 1.3333579957260171 -0.027622569121157903
v 1.2707113077943695 1.3873602498125912 0.033601486546108505
v 1.2562191163981908 1.3128839133988059 -0.021362775413640955
v 1.1962235738214988 1.3815763132573839 -0.0030784991641074066
v 1.2858001662587879 1.3403683244706572 0.0091971998376056963
v 1.225498730341932 1.4085840097388893 0.028263064754020184
v 1.0467189052424231 1.0288738713570031 -0.14784213361318954
v 1.1390063412290434 1.0859106435313146 -0.13065894427837355
v 1.046696567335802 1.077269494739854 -0.14415333736984981
v 1.0934664043287012 1 -0.1437319592334374
v 1.3111246785068817 1.1922856260561367 -0.046848115047864458
v 1.2278709797590077 1.1408320105408061 -0.096715672757900606
v 1.2701343014078805 1.2153616087656591 -0.058807717323576258
v 1.0465967993188481 1.1731279897273947 -0.12665015884590614
v 1.1388361629946928 1.1342459928583961 -0.12283172728875869
v 1.0466230767501266 1.1257171448055854 -0.13703819996873767
v 1.0927988915019387 1.2029506061752118 -0.11347525740537268
v 1.0932794671316415 1.1060842265925221 -0.13559833567468882
v 1.1858629084792569 0.94294925990721823 -0.12245832012586266
v 1.1858629084792569 1.0570507400927818 -0.12245832012586266
v 1.140257447438656 0.97112436323095896 -0.13519635582741896
v 1.140257447438656 1.028875636769041 -0.13519635582741896
v 1.1838623906585164 1.2579627906611628 -0.074219368440006095
v 1.1849058401960288 1.1627186192195578 -0.10523467644858442
v 1.2274044703065177 1.2374461905570062 -0.067985852163767513
v 1.1388707047549869 1.2314245526889336 -0.095877390666045947
v 1.2281502851189547 1.1894389761991824 -0.084082267294035895
v 1.1393658797712611 1.1830852793969573 -0.11110281501724095
v 1.3867174551063077 1.2390045312985598 0.017715824079978515
v 1.4240190359619693 1.2136487471330806 0.035644024054986678
v 1.3757486869574076 1.2899908744491999 0.035492257603471633
v 1.4927877681873898 1.1602300059986226 0.079376412934314799
v 1.4596337296622202 1.1871667685932206 0.056334693044803152
v 1.4574480505557341 1.2342840978781349 0.074760857542029879
v 1.3625792318903529 1.3396457953845 0.05687016488613067
v 1.4093009936294574 1.3107701586154592 0.074716289856194273
v 1.3578435837493048 0.83658824530086617 -0.029003081162444544
v 1.3668773209880511 0.94507863299050854 -0.043619975060171901
v 1.3951589701904956 0.86190788597419499 -0.011052543280815175
v 1.3179832722760298 0.86124094456087907 -0.057974146725229603
v 1.3578435837493048 1.1634117546991338 -0.029003081162444544
v 1.3668773209880511 1.0549213670094915 -0.043619975060171901
v 1.3951589701904956 1.1380921140258051 -0.011052543280815175
v 1.3179832722760298 1.1387590554391209 -0.057974146725229603
v 1.4639893624413838 0.91516519906623184 0.032779613615466441
v 1.4021204194943895 0.97152737363883834 -0.02226609000862001
v 1.430819083570547 0.88827095424857905 0.0097116162946764284
v 1.467251683583874 0.9715260534862783 0.029552981987629234
v 1.399798169415901 0.91664525039333977 -0.018518609589611712
v 1.2326393444421568 0.91403983260956312 -0.10459131146061784
v 1.3249493809956141 0.971090572702345 -0.069332014999942237
v 1.2758953621979616 0.88729552174654702 -0.083387282552525144
v 1.2338980445506094 0.97108861171311722 -0.10913263944575391
v 1.3226171239370661 0.91617115851558806 -0.065541157582461596
v 1.4639893624413838 1.0848348009337681 0.032779613615466441
v 1.4021204194943895 1.0284726263611617 -0.02226609000862001
v 1.430819083570547 1.1117290457514208 0.0097116162946764284
v 1.467251683583874 1.0284739465137216 0.029552981987629234
v 1.399798169415901 1.0833547496066602 -0.018518609589611712
v 1.4356040846753091 1 0.0020501104898494882
v 1.2326393444421568 1.0859601673904369 -0.10459131146061784
v 1.3249493809956141 1.0289094272976551 -0.069332014999942237
v 1.2758953621979616 1.112704478253453 -0.083387282552525144
v 1.2338980445506094 1.0289113882868828 -0.10913263944575391
v 1.3226171239370661 1.0838288414844119 -0.065541157582461596
v 1.2806776534607311 1 -0.091264418822514792
v 0.95396971034639744 1.3544086144853562 -0.051893467660993564
v 0.862789333105068 1.3221866109724467 -0.056109743033666448
v 0.92545419168968668 1.3863013395555797 -0.028976854045933975
v 0.953928156745392 1.3117555312452662 -0.075048697300541978
v 0.77423273062965892 1.2838036790206848 -0.048735844805857464
v 0.83393991826949754 1.352946609472345 -0.031251013003534278
v 0.87922779882095881 1.3703945210169475 -0.031568546452604429
v 0.95377031398960443 1.221744317544649 -0.11233848881673636
v 0.86251143551315756 1.2781454062182893 -0.077480699013929955
v 0.95380814848782935 1.2672050615543502 -0.095343139681218991
v 0.90777593305876847 1.2956545352669671 -0.077760397964775185
v 0.78733920359547749 1.3333579957260171 -0.027622569121157903
v 0.74378088360180916 1.3128839133988059 -0.021362775413640955
v 0.95330343266419804 1.077269494739854 -0.14415333736984981
v 0.95340320068115181 1.1731279897273947 -0.12665015884590614
v 0.86116383700530708 1.1342459928583961 -0.12283172728875869
v 0.95337692324987344 1.1257171448055854 -0.13703819996873767
v 0.90720110849806135 1.2029506061752118 -0.11347525740537268
v 0.90672053286835841 1.1060842265925221 -0.13559833567468882
v 0.81613760934148361 1.2579627906611628 -0.074219368440006095
v 0.77259552969348233 1.2374461905570062 -0.067985852163767513
v 0.86112929524501314 1.2314245526889336 -0.095877390666045947
v 0.86063412022873886 1.1830852793969573 -0.11110281501724095
v -1.4107587700560866 -0.96389191627393478 -0.11522462388101948
v -1.4000930296310814 -0.9168730726768678 -0.11832664717697541
v 0.013354470427706632 -0.79999999999999971 0.082003170564155986
v -0 -0.81335447042770648 0.081335447042770653
v -1.4136232446216788 -0.98130872941866265 -0.11391261375138555
v 1.5565164710857764 1.0478094927022965 0.12869652139263679
v 1.5614467322624737 1.0135702881560269 0.13285998102376834
v 1.5625394015952723 1 0.1343809102392908
v -1.4144938083123773 -1.1237981141147875 -0.09979425983537786
v -1.4097455392557443 -1.151816686154576 -0.096280162272904063
v -1.4030664483214494 -1.1812252868683986 -0.092337438561377549
v -1.3999999999999999 -1.1920237487748255 -0.090797625122517434
v 0 0.57163872818647832 -0.057163872818647828
v -1.4175122149496782 -1.0153843088589432 -0.11108840135655741
v -1.417152196230784 -1.1000000000000003 -0.10257282943461758
v 0.11335447042770649 -0.69999999999999996 0.087003170564155977
v 1.5505039338526263 1.0757746962799943 0.12499812044989446
v 1.5444396519752863 1.0981721222019365 0.12184873557609928
v 1.5541691059269935 1.0599778480974542 0.12712758107930353
v -1.417230420513637 -1.0992997295853661 -0.10265459011850891
v -1.4190222307105838 -1.0685013739480969 -0.10600319721177787
v -1.418995573687599 -1.0433886128620742 -0.10851047476693243
v 1.5382268220781186 1.1179466823108895 0.11893935508062879
v -1.3869465805493217 -1.2322180268383123 -0.084820184398567047
v -1.3849213033809853 -1.2378944484833587 -0.083948750658811938
v -1.3983602374530724 -1.1977981534092439 -0.089974220277036471
v 0.21335447042770661 -0.59999999999999987 0.092003170564155981
v -1.3999999999999999 -0.9165355894876106 -0.11834644105123891
v 1.5319240908421135 1.1354258065068523 0.11624603297563176
v 1.5247370768933857 1.1530125140420704 0.11340931012980081
v 1.5154480586624628 1.1733316420401485 0.10998404459535453
v 1.5031691460781014 1.1971953933875603 0.10575583257295915
v 1.5 1.2028808911648812 0.10471191088351184
v -1.3068573422158387 -1.3692233696791132 -0.059106264364464492
v -1.2999999999999998 -1.3767409835537443 -0.057325901644625553
v -1.3115408500012724 -1.3637164946636497 -0.060359478033825888
v -1.3162479861381333 -1.3573720747551496 -0.061699990445205036
v 1.5645055897608156 0.96132758684667607 0.13854307977945471
v 1.5638744636171398 0.98341934215677196 0.13623923532689378
v 0.31335447042770648 -0.5 0.097003170564155972
v -0.59999999999999987 -1.4122843946134145 0.051228439461341459
v -0.60537449377184149 -1.4173603053979316 0.050929856474016932
v -0.58699299393873738 -1.3999999999999999 0.051951050909189382
v -0.58073863534274783 -1.3940931057704544 0.052298515275633242
v 1.5106321459404317 0.73285250332057195 0.15330957155900757
v 1.5033797925741699 0.7191423901953522 0.15359272986659026
v 0.40000000000000036 -0.41335447042770612 0.10133544704277067
v -0.63672672071351166 -1.4433387653465257 0.048824868427625831
v -1.3520948286122005 -1.30373520402952 -0.072440703888878105
v -1.3391760870791602 -1.3248983765954825 -0.068386575402325775
v -1.3541861949488696 -1.2999999999999998 -0.073127929242330469
v 1.4736643582267988 0.67138475354432436 0.1539111783795874
v 1.462863664195726 0.65611566877441341 0.15381798275191752
v 0.74466947780654702 1.3159754189673289 -0.019897120225750874
v 0.74249443383115021 1.3140791824810969 -0.020033753173437176
v 0.32836127181352209 0.90000000000000036 -0.040745809227971719
v -1.3638953869333981 -1.2826592728456381 -0.076318380755445933
v 0.77726271376037948 1.3428501547106748 -0.017695608407010587
v 0.40000000000000036 0.97163872818647856 -0.03716387281864781
v 1.5000000000000002 0.71332705242978545 0.15366729475702148
v 1.490445765149174 0.69688784749936161 0.15387808002243991
v 1.4310635383910466 0.6180261280730438 0.15285691795135259
v 1.4192613646572523 0.60590689422954591 0.15229851527563323
v -1.3836472578462558 -1.2409020175574386 -0.083456886921194517
v 0.5 -0.31335447042770648 0.10633544704277065
v -0.64516236855928344 -1.4496909857409814 0.048194743290205642
v -0.67123425578714657 -1.466884775562014 0.046003339188129447
v 0.42836127181352174 1 -0.035745809227971742
v -0.99175793124615197 -1.5399889081371008 0.0052352011267873255
v -0.9461103835722221 -1.5435034715859184 0.012433789622758549
v 1.186519683542794 1.4347031060173943 0.034507641929679665
v 1.2182915853634244 1.4261549697518288 0.040128240829330745
v 0.5 1.0716387281864783 -0.032163872818647833
v -0.94077118522615755 -1.5436366600602316 0.01324798822209957
v 1.1313072316713355 1.4443009935246698 0.025265985398233316
v 1.1745401399525297 1.4371927004425882 0.032461750948620631
v -1.3999834998215499 -0.91647573186179998 -0.11834995178705252
v -1.3997173090672264 -0.91569118867764077 -0.11838847749231987
v 0.51335447042770666 -0.29999999999999982 0.10700317056415598
v -0.83172203288095592 -1.5327692865224138 0.02851862372009804
v -0.83655260094091621 -1.5337614971511808 0.027893259573980679
v 1.5617470779758964 0.90636811120417216 0.14362525057596723
v 1.5609546698798216 0.90000000000000036 0.14414320048197318
v 1.5600265766537873 0.89254146834125148 0.14474983966394295
v -0.79101905783127358 -1.5219002339175856 0.033537164717067532
v -0.79999999999999993 -1.5242984451725039 0.032429844517250429
v 1.5636483503917045 0.9344556145631715 0.1411016911024385
v -0.7803517147843898 -1.5185980422837742 0.034807047010718961
v -1.384170628314207 -0.87182436806418251 -0.12044315744071281
v -1.3488238915999728 -0.79999999999999982 -0.12232358373999593
v -1.353649658943521 -0.80830280561103052 -0.12221716828042513
v -1.3653678819808579 -0.82962975324785249 -0.12184220697234341
v -1.3737978267163484 -0.84741369125402977 -0.12132830488204929
v 1 1.4399621593097849 0.0060037840690214854
v 0.99377852726893989 1.4389873987801878 0.0051680392123221938
v 1.0083721931750076 1.4412738878676259 0.0071284401894885045
v 1.5545601158886564 0.85867374056989321 0.14731664332630909
v 0.61335447042770652 -0.19999999999999993 0.11200317056415597
v 0.95950718882389896 1.4313574681335897 0.0007903315102258438
v 1.5525624278964387 0.84864804685073392 0.14801955949939241
v 1.5418146605021572 0.8107378613153815 0.15019841294378541
v 1.0440927501066954 1.4451197067089543 0.012101941845108859
v -1.305127151404941 -0.73744167007506123 -0.12202490570323501
v -1.3176217230164335 -0.7529262216900735 -0.1223506362834577
v -1.3318520760904002 -0.77294187633023748 -0.12248362378053629
v -1.2999999999999998 -0.73139107103948275 -0.12186089289605172
v -1.3421594939467567 -0.78853380316744048 -0.12247054377526946
v 1.5277595057471851 0.77070694860585498 0.15209323100149225
v 1.5188716760215719 0.75023459316636798 0.15280729208659899
v 1.5334051675043916 0.78540019373773695 0.15147075575188504
v 0.71335447042770661 -0.099999999999999867 0.11700317056415598
v -1.2024973073734764 -1.4626950478568583 -0.034105091320335575
v -1.2286171848101932 -1.4439725524005158 -0.039895322481477404
v -1.2116046366706192 -1.4567722172289337 -0.036063473777699515
v 0.80000000000000027 -0.013354470427706213 0.12133544704277066
v 0.75067433925149762 -0.062680131176208978 0.11886916400534554
v -1.1724402986750069 -1.4810682773891848 -0.027759217062332545
v -1.1479161875843975 -1.4937942812493861 -0.022808000012720996
v -1.2586673069309011 -1.4188918534336841 -0.046910910696266746
v -1.2783885022266381 -1.3999999999999999 -0.051758275333995706
v -1.2478990813973998 -1.428737790511218 -0.044311083158488189
v -1.1350206245730807 -1.5 -0.020253093685962061
v -1.1309245200708491 -1.5019711642284765 -0.019441561587779696
v -1.2815212419930688 -1.3969990023613792 -0.052528286062822414
v 1.3308265553028873 1.3763333988314255 0.061990643412290561
v 1.3049144589179502 1.3909912702821947 0.056638041809473044
v -1.0111010242931828 -1.5372274543716984 0.0020575917931924593
v 0.79490857728586184 1.3555626268474252 -0.016319976091863274
v 0.73856861413759711 1.3102073423240754 -0.020235442111767983
v 0.80000000000000027 1.3590075539132436 -0.015900755391324333
v 1.4136706028016328 1.3134722464278967 0.080703365777455224
v 1.4065982780814379 1.3199394454348181 0.078995797168733839
v -1.2889933780566651 -0.71840205416529035 -0.12150880129197072
v -1.2712650322856995 -0.69999999999999996 -0.12068975484285495
v 0.81335447042770637 0 0.12200317056415597
v 1.4313392154069771 1.2950946124623666 0.085191421064809883
v -1.2614313858624033 -0.68979265767592479 -0.12023544211176798
v 1.4481813943345365 1.2769913348240629 0.089528075667774154
v 0.90000000000000047 0.086645529572293906 0.12633544704277064
v -1.1000000000000001 -1.5142528785422218 -0.013574712145777816
v 1.0719652588825717 1.4463751865591548 0.016157270176470239
v 1.0904362186279635 1.4462285458931907 0.018942578204875427
v 1.1307787518719097 1.4443441545953666 0.025182397321249796
v 0.84643217745579236 1.3875460844664882 -0.011789781828279973
v 0.81608668080871849 1.3698920247632567 -0.014576200355017893
v 0.87173603037500069 1.4000000000000001 -0.0092395954437499272
v 0.85715265696964604 1.3933558488454831 -0.010762686339101431
v 1.4479271900087924 0.63769090103989179 0.15341998839732968
v -0.90877730094122344 -1.5424740483477999 0.017930809693596488
v 0.89449701681972094 1.4103698527193382 -0.006862432748975706
v 0.90000000000000036 1.4126797315764661 -0.006267973157646589
v -0.8868408532783445 -1.5414147641571718 0.021115348423965528
v 1.2381269969626434 1.419945765471115 0.043724472997284984
v -1.1716387281864782 -0.59999999999999987 -0.11574580922797172
v -0.74579425046342362 -1.5055559468369011 0.038686457114176599
v -1.1000000000000001 -0.52836127181352177 -0.11216387281864783
v 1 0.18664552957229355 0.13133544704277064
v 0.94162153650525682 1.4268874780220702 -0.0014455173264185217
v 0.90026677455488902 1.4127917102767038 -0.006239154844437044
v -0.68678010912799592 -1.4767977279416875 0.044662756424969384
v -1.0407166919065771 -1.5315533272978492 -0.0029521710562016041
v -1.0811506404339999 -1.5210211301410614 -0.010070483050993808
v 0.94581781418687227 1.4281710006050383 -0.00094442793247302703
v -1.0871361352593847 -1.5191943095944065 -0.011150989329467016
v -1.096709529097704 -1.5155596934414377 -0.012950460020511811
v -1.0716387281864783 -0.5 -0.11074580922797174
v 1.453769682921672 1.2702416514085686 0.091041287297393927
v 1.4960796824112148 1.2099140024157149 0.10342055212011074
v 1.4906964016266304 1.2186528601494362 0.10173917422905089
v 1.4733629426110935 1.2441168151288156 0.096592759878782436
v -0.88967618485789279 -1.54168647926752 0.020717220198068109
v -0.87163872818647803 -0.29999999999999982 -0.10074580922797172
v 1.1311512947746294 1.4443180994564286 0.025240884270551531
v 1.2133544704277068 0.4000000000000003 0.14200317056415598
v -0.79999999999999982 -0.22836127181352153 -0.097163872818647815
v 1.2870242349420309 1.4000000000000004 0.053053635241304568
v -0.73293178705552475 -1.5 0.040060231941671305
v 1.5532893886254611 0.85181839441489315 0.14781156885232982
v -0.73244113658683085 -1.4997880633100276 0.040112635842978132
v -0.69999999999999984 -1.4836739363312255 0.043367393633122565
v 1.2617109884815183 1.410923391683238 0.048164309103903929
v 1.2856582899752458 1.400687829790825 0.052779960517204343
v -0.77163872818647827 -0.19999999999999993 -0.095745809227971726
v -0.69999999999999996 -0.12836127181352167 -0.092163872818647838
v 1.3133544704277065 0.5 0.14700317056415593
v 1.4000000000000004 0.58664552957229399 0.15133544704277063
v 1.4000000000000004 1.3254063845148401 0.077459361548516029
v 1.3742451124374635 1.3467453459195289 0.071462232273666618
v -0.69141577479858229 -1.4794099890881924 0.044228632689031912
v -0.67163872818647807 -0.099999999999999881 -0.090745809227971735
v 1.3560680286085636 1.3599726578351872 0.067412938507765821
v -0.59999999999999987 -0.028361271813521584 -0.087163872818647833
v -0.5 -1.3133544704277065 0.056335447042770638
v -0.57163872818647832 -0 -0.085745809227971745
v -0.5 0.07163872818647829 -0.082163872818647829
v -0.48664552957229334 -1.2999999999999998 0.057003170564155971
v -0.29999999999999982 -1.1133544704277063 0.066335447042770654
v -0.29999999999999982 0.27163872818647844 -0.07216387281864782
v -0.28664552957229361 -1.1000000000000001 0.067003170564155959
v -0.19999999999999998 -1.0133544704277064 0.071335447042770644
v -0.27163872818647805 0.30000000000000027 -0.070745809227971732
v -0.19999999999999996 0.37163872818647825 -0.06716387281864783
v -0.099999999999999867 -0.91335447042770623 0.076335447042770649
v -0.17163872818647791 0.4000000000000003 -0.065745809227971727
v -0.099999999999999867 0.47163872818647845 -0.062163872818647818
v -0.071638728186478276 0.5 -0.060745809227971743
f 70 71 45
f 45 71 46
f 72 73 47
f 47 73 48
f 89 90 64
f 64 90 65
f 91 92 66
f 66 92 67
f 158 159 135
f 135 159 136
f 159 160 136
f 136 160 137
f 160 161 137
f 138 162 139
f 143 167 144
f 170 171 147
f 148 172 149
f 158 180 159
f 180 181 159
f 159 181 160
f 187 188 166
f 195 196 181
f 181 196 182
f 197 198 183
f 183 198 184
f 199 200 187
f 187 200 188
f 189 202 190
f 204 205 193
f 193 205 194
f 195 211 196
f 211 212 196
f 213 214 197
f 197 214 198
f 217 218 199
f 199 218 200
f 219 220 201
f 221 222 203
f 223 224 204
f 204 224 205
f 211 225 212
f 226 227 213
f 213 227 214
f 251 252 234
f 234 252 235
f 253 254 236
f 258 259 239
f 239 259 240
f 260 261 241
f 241 261 242
f 262 263 243
f 243 263 244
f 253 271 254
f 272 273 255
f 255 273 256
f 281 282 264
f 264 282 265
f 272 288 273
f 288 289 273
f 273 289 274
f 290 291 275
f 275 291 276
f 292 293 277
f 277 293 278
f 281 296 282
f 296 297 282
f 282 297 283
f 300 301 296
f 296 301 297
f 302 303 298
f 317 318 300
f 300 318 301
f 319 320 302
f 302 320 303
f 307 325 308
f 325 326 308
f 308 326 309
f 327 328 310
f 310 328 311
f 329 330 312
f 312 330 313
f 325 342 326
f 358 359 343
f 343 359 344
f 376 377 364
f 364 377 365
f 377 378 365
f 386 387 367
f 367 387 368
f 388 389 369
f 369 389 370
f 390 391 371
f 371 391 372
f 392 393 373
f 373 393 374
f 393 394 374
f 374 394 375
f 397 398 378
f 378 398 379
f 401 402 383
f 383 402 384
f 401 403 402
f 421 422 404
f 404 422 405
f 425 426 407
f 428 429 409
f 409 429 410
f 429 430 410
f 432 433 411
f 411 433 412
f 434 435 413
f 440 441 419
f 419 441 420
f 442 443 421
f 421 443 422
f 444 445 423
f 446 447 425
f 426 448 427
f 460 462 461
f 462 463 461
f 491 492 467
f 467 492 468
f 469 493 470
f 494 495 471
f 471 495 472
f 497 498 474
f 474 498 475
f 499 500 476
f 476 500 477
f 501 502 478
f 478 502 479
f 505 506 482
f 482 506 483
f 501 511 502
f 502 512 503
f 513 514 512
f 541 542 516
f 516 542 517
f 543 544 518
f 518 544 519
f 545 546 520
f 547 548 521
f 521 548 522
f 548 549 522
f 522 549 523
f 550 551 524
f 524 551 525
f 379 1027 1020
f 1039 1048 380
f 435 1119 1115
f 1136 1146 211
f 1155 1163 233
f 483 1166 1165
f 1164 1170 251
f 1172 1174 270
f 324 1180 1179
f 1178 1181 307
f 1182 1184 325
f 1185 1186 342
f 675 683 590
f 675 685 683
f 797 850 847
f 689 690 600
f 590 683 646
f 719 725 588
f 719 727 725
f 608 727 719
f 608 719 717
f 608 748 718
f 718 727 608
f 610 733 726
f 725 727 610
f 975 980 826
f 641 737 571
f 571 737 717
f 657 688 594
f 845 931 797
f 797 847 845
f 837 928 778
f 928 931 845
f 778 928 845
f 646 683 681
f 849 850 846
f 846 850 797
f 586 636 629
f 625 629 574
f 629 634 574
f 629 636 634
f 656 661 585
f 656 663 661
f 590 668 658
f 646 668 590
f 643 654 589
f 652 654 643
f 742 772 770
f 728 730 697
f 579 728 697
f 607 716 714
f 633 636 586
f 639 672 571
f 571 717 639
f 588 674 639
f 639 674 672
f 639 719 588
f 717 719 639
f 610 726 723
f 723 725 610
f 724 733 610
f 729 733 724
f 724 727 718
f 610 727 724
f 721 765 609
f 718 748 746
f 763 765 721
f 746 766 763
f 977 978 827
f 825 979 975
f 979 980 975
f 966 979 825
f 827 980 979
f 827 979 977
f 977 979 966
f 826 980 973
f 737 740 717
f 740 748 608
f 717 740 608
f 613 740 737
f 772 774 621
f 770 772 621
f 771 775 621
f 621 774 771
f 766 775 620
f 620 767 765
f 620 765 763
f 763 766 620
f 765 767 757
f 720 757 754
f 609 765 757
f 609 757 720
f 820 945 942
f 910 944 813
f 942 945 929
f 687 688 657
f 600 688 687
f 687 689 600
f 664 689 687
f 577 687 657
f 664 687 577
f 835 847 792
f 845 847 835
f 778 845 835
f 835 841 778
f 792 842 835
f 835 842 841
f 841 842 795
f 941 944 910
f 820 944 941
f 574 647 625
f 625 631 629
f 629 631 586
f 586 631 630
f 593 663 656
f 585 661 627
f 627 635 585
f 574 634 627
f 634 635 627
f 661 663 595
f 595 663 660
f 658 670 594
f 668 670 658
f 594 670 657
f 646 681 576
f 576 681 652
f 576 652 643
f 789 830 829
f 829 867 789
f 799 859 856
f 856 860 799
f 760 774 772
f 613 745 738
f 773 775 766
f 770 773 747
f 621 775 773
f 621 773 770
f 750 753 617
f 614 772 742
f 760 772 614
f 741 760 614
f 619 774 760
f 720 754 572
f 697 730 602
f 602 713 697
f 611 730 728
f 611 733 729
f 710 716 606
f 714 716 710
f 704 705 695
f 712 716 607
f 607 714 711
f 711 713 607
f 697 713 711
f 697 711 579
f 605 708 707
f 708 713 602
f 607 715 712
f 713 715 607
f 708 715 713
f 605 715 708
f 589 654 645
f 589 645 642
f 642 645 637
f 702 704 638
f 723 726 702
f 599 685 682
f 683 685 599
f 681 683 599
f 588 678 674
f 598 678 676
f 720 722 609
f 602 730 722
f 721 729 580
f 580 763 721
f 580 729 724
f 746 763 580
f 580 724 718
f 718 746 580
f 612 751 735
f 969 970 962
f 962 978 977
f 962 970 824
f 959 964 963
f 823 964 959
f 958 960 823
f 960 964 823
f 641 739 737
f 737 739 613
f 739 745 613
f 740 749 748
f 613 749 740
f 738 749 613
f 747 749 738
f 764 775 771
f 620 775 764
f 764 767 620
f 764 771 582
f 582 771 759
f 771 774 759
f 759 774 619
f 619 769 759
f 754 757 618
f 757 767 618
f 826 976 974
f 972 975 826
f 826 974 972
f 672 691 571
f 777 898 833
f 942 957 820
f 820 957 944
f 813 912 910
f 910 912 844
f 844 912 796
f 929 945 817
f 817 945 931
f 817 931 928
f 857 859 799
f 804 877 875
f 804 878 877
f 876 878 804
f 804 917 876
f 660 663 655
f 655 665 664
f 655 664 577
f 577 660 655
f 593 665 655
f 655 663 593
f 795 862 854
f 795 854 841
f 797 943 846
f 846 943 941
f 931 943 797
f 941 943 820
f 931 945 943
f 943 945 820
f 574 659 647
f 627 659 574
f 627 661 659
f 659 661 595
f 659 662 647
f 595 662 659
f 647 662 591
f 630 631 626
f 657 670 667
f 657 667 577
f 577 667 660
f 666 668 646
f 576 666 646
f 828 960 958
f 829 830 828
f 799 860 858
f 758 760 741
f 619 760 758
f 581 747 738
f 581 770 747
f 742 770 581
f 581 750 742
f 614 743 741
f 743 751 612
f 751 752 617
f 742 752 614
f 743 752 751
f 614 752 743
f 617 752 750
f 750 752 742
f 696 720 572
f 696 722 720
f 602 722 696
f 572 707 696
f 707 708 696
f 696 708 602
f 609 732 721
f 721 732 729
f 729 732 611
f 611 732 730
f 730 732 722
f 722 732 609
f 703 728 579
f 579 711 699
f 711 714 699
f 638 704 587
f 637 645 587
f 587 704 695
f 587 695 637
f 681 684 652
f 599 684 681
f 782 910 844
f 782 941 910
f 782 849 846
f 846 941 782
f 598 680 678
f 677 680 598
f 673 680 677
f 678 680 674
f 640 725 723
f 676 678 640
f 588 725 640
f 640 678 588
f 741 743 734
f 734 743 612
f 962 977 788
f 788 977 966
f 788 966 959
f 788 969 962
f 963 969 788
f 959 963 788
f 823 961 958
f 958 961 831
f 974 976 971
f 747 773 616
f 616 749 747
f 616 773 766
f 748 749 616
f 746 748 616
f 616 766 746
f 759 769 768
f 759 768 582
f 582 768 761
f 761 762 755
f 755 767 764
f 755 764 582
f 582 761 755
f 618 767 755
f 755 762 618
f 618 762 756
f 618 756 754
f 572 754 706
f 754 756 706
f 965 975 972
f 825 975 965
f 965 967 825
f 906 919 812
f 915 919 906
f 814 919 915
f 917 919 814
f 796 901 843
f 796 912 901
f 843 901 898
f 898 901 810
f 810 913 899
f 899 913 911
f 901 913 810
f 911 913 813
f 813 913 912
f 912 913 901
f 944 955 813
f 813 955 911
f 911 955 952
f 944 957 955
f 786 915 906
f 911 952 786
f 903 915 786
f 786 952 903
f 786 906 899
f 899 911 786
f 932 935 818
f 817 940 929
f 937 940 819
f 929 940 937
f 798 859 853
f 853 859 857
f 961 967 790
f 831 961 790
f 877 878 868
f 790 877 868
f 790 868 831
f 876 914 784
f 814 916 914
f 914 917 814
f 876 917 914
f 952 955 822
f 955 957 822
f 915 918 814
f 903 918 915
f 814 918 916
f 916 918 904
f 811 918 903
f 904 918 811
f 800 864 861
f 854 863 798
f 861 863 800
f 800 863 862
f 862 863 854
f 856 859 852
f 852 863 861
f 852 859 798
f 798 863 852
f 783 856 852
f 852 861 783
f 589 650 643
f 584 631 625
f 626 631 584
f 667 671 660
f 595 671 662
f 660 671 595
f 643 648 576
f 648 666 576
f 643 650 648
f 648 650 591
f 667 670 596
f 596 670 668
f 596 668 666
f 596 671 667
f 803 891 871
f 776 958 831
f 776 829 828
f 828 958 776
f 855 857 799
f 799 858 855
f 738 744 581
f 744 753 750
f 744 750 581
f 744 745 615
f 738 745 744
f 709 710 606
f 586 630 628
f 628 633 586
f 703 705 604
f 604 705 704
f 702 726 604
f 604 704 702
f 645 653 587
f 645 654 653
f 638 653 651
f 587 653 638
f 651 653 592
f 653 654 592
f 592 654 652
f 652 684 592
f 598 686 677
f 677 686 682
f 682 686 599
f 599 686 684
f 677 682 578
f 844 848 782
f 597 680 673
f 674 680 597
f 672 674 597
f 575 676 640
f 638 651 575
f 651 676 575
f 640 723 575
f 575 702 638
f 575 723 702
f 967 968 825
f 961 968 967
f 825 968 966
f 823 968 961
f 966 968 959
f 959 968 823
f 875 877 832
f 832 877 790
f 832 967 965
f 790 967 832
f 907 909 812
f 899 909 810
f 906 909 899
f 812 909 906
f 810 900 898
f 810 909 900
f 900 909 907
f 898 900 833
f 780 875 832
f 965 972 780
f 832 965 780
f 908 917 804
f 908 919 917
f 875 908 804
f 812 919 908
f 787 942 929
f 929 937 787
f 937 947 787
f 884 939 936
f 936 939 819
f 805 887 880
f 837 853 794
f 853 857 794
f 851 854 798
f 798 853 851
f 851 853 837
f 778 851 837
f 841 851 778
f 841 854 851
f 868 878 801
f 816 924 923
f 818 934 932
f 932 934 881
f 881 934 806
f 869 904 902
f 902 904 811
f 811 935 902
f 902 935 932
f 836 840 793
f 880 886 793
f 880 887 886
f 836 886 884
f 793 886 836
f 871 873 803
f 867 873 789
f 822 954 952
f 811 954 935
f 952 954 903
f 903 954 811
f 935 956 818
f 954 956 935
f 822 956 954
f 914 916 870
f 784 914 870
f 624 626 584
f 647 649 625
f 625 649 584
f 591 649 647
f 591 650 649
f 591 669 648
f 662 669 591
f 662 671 669
f 669 671 596
f 648 669 666
f 666 669 596
f 884 936 781
f 836 884 781
f 583 630 626
f 603 714 710
f 699 714 603
f 693 705 703
f 693 703 579
f 579 699 693
f 698 709 573
f 698 710 709
f 603 710 698
f 698 700 603
f 632 633 628
f 573 632 628
f 726 733 731
f 726 731 604
f 604 731 703
f 731 733 611
f 728 731 611
f 703 731 728
f 592 684 679
f 684 686 679
f 592 679 651
f 679 686 598
f 676 679 598
f 651 679 676
f 791 971 833
f 833 900 791
f 791 974 971
f 900 907 791
f 780 905 875
f 905 907 812
f 905 908 875
f 812 908 905
f 937 951 947
f 949 951 939
f 819 951 937
f 939 951 819
f 879 887 805
f 781 936 838
f 794 857 838
f 838 857 855
f 838 855 781
f 930 940 817
f 928 930 817
f 837 930 928
f 794 930 837
f 865 868 801
f 831 868 865
f 831 865 776
f 801 867 865
f 865 867 829
f 776 865 829
f 801 874 867
f 867 874 873
f 873 874 803
f 806 924 921
f 881 921 920
f 806 921 881
f 920 921 815
f 818 950 934
f 816 925 924
f 921 925 815
f 924 925 921
f 920 922 888
f 815 922 920
f 815 927 922
f 888 890 869
f 881 920 779
f 779 888 869
f 779 920 888
f 779 932 881
f 869 902 779
f 902 932 779
f 855 858 839
f 839 840 836
f 781 855 839
f 781 839 836
f 807 949 939
f 886 887 807
f 807 939 884
f 884 886 807
f 787 953 942
f 953 957 942
f 822 957 953
f 953 956 822
f 893 897 809
f 894 896 809
f 890 896 894
f 893 896 889
f 809 896 893
f 809 897 895
f 895 897 891
f 803 895 891
f 803 874 872
f 872 895 803
f 802 916 904
f 870 916 802
f 802 904 869
f 869 890 802
f 802 894 870
f 890 894 802
f 584 644 624
f 584 649 644
f 624 644 642
f 649 650 644
f 642 644 589
f 644 650 589
f 622 626 624
f 583 626 622
f 603 701 699
f 700 701 603
f 699 701 693
f 623 698 573
f 573 628 623
f 583 700 623
f 623 700 698
f 628 630 623
f 623 630 583
f 834 974 791
f 972 974 834
f 780 972 834
f 791 907 834
f 834 907 905
f 834 905 780
f 885 887 879
f 885 949 807
f 807 887 885
f 883 923 785
f 879 883 785
f 785 885 879
f 838 938 794
f 794 938 930
f 936 938 838
f 938 940 930
f 819 938 936
f 819 940 938
f 821 950 947
f 947 951 821
f 821 951 949
f 922 927 926
f 787 947 933
f 933 953 787
f 947 950 933
f 933 956 953
f 818 956 933
f 933 950 818
f 809 895 892
f 892 895 872
f 892 894 809
f 784 892 872
f 870 892 784
f 870 894 892
f 866 874 801
f 872 874 866
f 784 872 866
f 866 876 784
f 866 878 876
f 801 878 866
f 694 700 583
f 622 694 583
f 694 701 700
f 624 642 570
f 570 642 637
f 622 624 570
f 934 948 806
f 934 950 948
f 948 950 821
f 889 896 808
f 808 926 889
f 808 896 890
f 922 926 808
f 888 922 808
f 808 890 888
f 695 705 601
f 601 701 694
f 601 705 693
f 693 701 601
f 806 948 882
f 882 924 806
f 923 924 882
f 785 923 882
f 785 946 885
f 946 948 821
f 882 946 785
f 882 948 946
f 946 949 885
f 821 949 946
f 692 695 601
f 637 695 692
f 637 692 570
f 601 694 692
f 692 694 622
f 570 692 622
f 658 792 590
f 658 842 792
f 792 847 675
f 590 792 675
f 827 978 751
f 617 827 751
f 617 980 827
f 753 980 617
f 685 850 682
f 682 850 849
f 688 795 594
f 688 862 795
f 824 970 612
f 612 970 736
f 751 978 962
f 751 962 735
f 612 962 824
f 735 962 612
f 745 976 615
f 615 976 826
f 691 777 571
f 691 898 777
f 833 971 641
f 641 971 739
f 971 976 745
f 739 971 745
f 690 864 800
f 690 800 600
f 800 862 688
f 600 800 688
f 615 826 744
f 826 973 744
f 744 980 753
f 973 980 744
f 682 849 578
f 578 849 782
f 673 848 844
f 677 848 673
f 673 844 597
f 597 844 796
f 597 843 672
f 796 843 597
f 981 985 768
f 989 990 756
f 689 1028 1022
f 1034 1035 970
f 864 1043 1042
f 1049 1050 636
f 1051 1056 891
f 793 1067 1018
f 1065 1068 656
f 840 1077 1064
f 1075 1079 830
f 858 1081 1080
f 769 1058 1057
f 860 1089 1088
f 1088 1090 860
f 1097 1098 709
f 1029 1030 605
f 1105 1106 889
f 606 1094 1092
f 969 1108 1038
f 1035 1109 970
f 1042 1128 864
f 1083 1084 734
f 1084 1085 734
f 805 999 997
f 665 1140 1047
f 632 1144 1142
f 632 1145 1144
f 1148 1149 816
f 1093 1094 606
f 1124 1125 963
f 762 1001 1000
f 893 1162 1161
f 871 1153 1123
f 635 1151 1132
f 1055 1153 871
f 665 1169 1140
f 1071 1072 758
f 1072 1073 758
f 1009 1010 883
f 2 1 26
f 2 26 27
f 382 383 362
f 382 362 361
f 384 363 362
f 383 384 362
f 850 685 675
f 850 675 847
f 364 365 996
f 364 996 983
f 594 795 842
f 594 842 658
f 1007 365 378
f 996 365 1007
f 567 569 568
f 567 568 566
f 641 777 833
f 571 777 641
f 1020 378 379
f 1007 378 1020
f 691 843 898
f 672 843 691
f 2 27 28
f 3 2 28
f 677 578 848
f 578 782 848
f 367 366 385
f 367 385 386
f 4 3 28
f 4 28 29
f 981 768 982
f 768 769 982
f 368 387 388
f 369 368 388
f 5 4 29
f 5 29 30
f 985 761 768
f 994 761 985
f 371 370 389
f 371 389 390
f 6 5 30
f 6 30 31
f 989 756 762
f 989 762 995
f 1000 995 762
f 372 391 392
f 373 372 392
f 7 6 31
f 7 31 32
f 572 1004 1005
f 706 1004 572
f 1006 1004 706
f 376 375 394
f 376 394 395
f 8 7 32
f 8 32 33
f 706 992 1006
f 991 992 706
f 377 376 395
f 377 395 396
f 706 756 991
f 990 991 756
f 9 8 33
f 9 33 34
f 880 793 1019
f 1018 1019 793
f 35 9 34
f 10 9 35
f 378 377 396
f 378 396 397
f 11 10 35
f 11 35 36
f 1027 379 398
f 1045 1027 398
f 689 1023 690
f 690 1023 1024
f 1021 1023 689
f 1022 1021 689
f 12 11 36
f 12 36 37
f 856 783 1025
f 1026 1025 783
f 1053 399 381
f 1053 381 380
f 1053 380 1048
f 13 12 37
f 13 37 38
f 783 861 1032
f 1033 1032 861
f 382 381 399
f 382 399 400
f 970 969 1034
f 1038 1034 969
f 14 13 38
f 14 38 39
f 401 382 400
f 383 382 401
f 1026 783 1040
f 1041 1040 783
f 14 39 40
f 15 14 40
f 419 386 385
f 418 419 385
f 664 665 1047
f 1046 664 1047
f 16 15 40
f 16 40 41
f 1032 1041 783
f 419 420 387
f 419 387 386
f 689 664 1046
f 1028 689 1046
f 17 16 41
f 17 41 42
f 1052 891 897
f 1051 891 1052
f 404 388 387
f 420 421 404
f 420 404 387
f 18 17 42
f 18 42 43
f 634 636 1050
f 1054 634 1050
f 405 389 388
f 404 405 388
f 1056 871 891
f 1055 871 1056
f 19 18 43
f 19 43 44
f 1061 1060 585
f 405 406 390
f 405 390 389
f 45 19 44
f 20 19 45
f 1062 840 1063
f 1064 1063 840
f 424 391 406
f 406 391 390
f 21 20 45
f 21 45 46
f 656 585 1066
f 1060 1066 585
f 1065 656 1066
f 407 392 391
f 424 425 407
f 424 407 391
f 22 21 46
f 22 46 47
f 793 840 1067
f 1062 1067 840
f 407 408 393
f 407 393 392
f 23 22 47
f 23 47 48
f 1076 1074 830
f 830 1074 1075
f 408 394 393
f 427 394 408
f 830 789 1076
f 1082 1076 789
f 24 23 48
f 24 48 49
f 409 395 394
f 427 428 409
f 427 409 394
f 1057 1008 769
f 982 769 1008
f 25 24 49
f 25 49 50
f 1044 1037 707
f 410 396 395
f 409 410 395
f 26 51 52
f 27 26 52
f 1092 709 606
f 1097 709 1092
f 410 397 396
f 430 397 410
f 1030 1017 605
f 28 27 52
f 28 52 53
f 430 431 398
f 430 398 397
f 1029 707 1031
f 1037 1031 707
f 605 707 1029
f 29 28 53
f 29 53 54
f 411 1059 398
f 1045 398 1059
f 431 432 411
f 431 411 398
f 709 1102 573
f 573 1102 1103
f 1098 1102 709
f 30 29 54
f 30 54 55
f 1107 636 633
f 1049 636 1107
f 31 30 55
f 31 55 56
f 1111 1112 927
f 32 31 56
f 32 56 57
f 1116 1111 927
f 1034 414 399
f 1035 1034 399
f 1038 414 1034
f 1108 414 1038
f 1110 414 1108
f 1109 1035 399
f 1053 1109 399
f 927 815 1116
f 1118 1116 815
f 33 32 57
f 33 57 58
f 414 415 400
f 414 400 399
f 789 873 1121
f 1122 1121 873
f 59 33 58
f 34 33 59
f 871 1123 873
f 1123 1122 873
f 415 416 401
f 415 401 400
f 35 34 59
f 35 59 60
f 635 634 1129
f 1054 1129 634
f 416 417 403
f 416 403 401
f 1061 585 1132
f 585 635 1132
f 35 60 61
f 36 35 61
f 1133 1052 897
f 411 412 1078
f 411 1078 1059
f 37 36 61
f 37 61 62
f 593 656 1068
f 1135 593 1068
f 1091 412 413
f 1078 412 1091
f 986 999 805
f 37 62 63
f 38 37 63
f 1138 1139 960
f 405 422 423
f 406 405 423
f 424 406 423
f 39 38 63
f 39 63 64
f 408 407 426
f 427 408 426
f 964 960 1130
f 1131 1130 960
f 1139 1131 960
f 40 39 64
f 40 64 65
f 633 632 1142
f 1141 633 1142
f 413 412 433
f 413 433 434
f 40 65 66
f 41 40 66
f 964 1126 1127
f 1130 1126 964
f 1126 436 415
f 1126 415 414
f 1130 436 1126
f 1131 436 1130
f 42 41 66
f 42 66 67
f 860 856 1089
f 1025 1089 856
f 769 619 1058
f 1069 1058 619
f 43 42 67
f 43 67 68
f 416 415 436
f 416 436 437
f 632 573 1145
f 1120 1145 573
f 1103 1120 573
f 44 43 68
f 44 68 69
f 417 416 437
f 417 437 438
f 707 572 1044
f 1005 1044 572
f 45 44 69
f 45 69 70
f 805 997 879
f 879 997 998
f 419 418 439
f 419 439 440
f 883 879 1003
f 998 1003 879
f 47 46 71
f 47 71 72
f 420 441 442
f 421 420 442
f 1014 1015 712
f 1015 1104 712
f 49 48 73
f 49 73 74
f 423 422 443
f 423 443 444
f 715 605 1017
f 1016 715 1017
f 50 49 74
f 50 74 75
f 815 925 1147
f 1118 815 1147
f 425 424 445
f 424 423 445
f 425 445 446
f 712 715 1014
f 1016 1014 715
f 52 51 76
f 52 76 77
f 448 426 447
f 426 425 447
f 925 816 1149
f 1150 925 1149
f 53 52 77
f 53 77 78
f 449 427 448
f 428 427 449
f 1101 1093 716
f 606 716 1093
f 54 53 78
f 54 78 79
f 429 428 449
f 429 449 450
f 716 712 1099
f 1101 716 1099
f 55 54 79
f 55 79 80
f 1150 1147 925
f 430 429 450
f 430 450 451
f 56 55 80
f 56 80 81
f 1104 1100 712
f 1099 712 1100
f 430 451 452
f 431 430 452
f 57 56 81
f 57 81 82
f 963 964 1124
f 1127 1124 964
f 432 431 452
f 432 452 453
f 58 57 82
f 58 82 83
f 1012 1013 816
f 816 1013 1148
f 433 432 453
f 433 453 454
f 59 58 83
f 59 83 84
f 816 923 1012
f 1011 1012 923
f 60 59 84
f 60 84 85
f 434 433 454
f 434 454 455
f 963 1110 969
f 1108 969 1110
f 1125 1110 963
f 61 60 85
f 61 85 86
f 883 1010 923
f 923 1010 1011
f 435 434 455
f 435 455 456
f 61 86 87
f 62 61 87
f 762 761 1002
f 1001 762 1002
f 1119 435 456
f 1119 456 1137
f 1158 1077 839
f 840 839 1077
f 63 62 87
f 63 87 88
f 994 1002 761
f 437 436 457
f 437 457 458
f 64 63 88
f 64 88 89
f 839 858 1080
f 1158 839 1080
f 438 437 458
f 438 458 459
f 66 65 90
f 66 90 91
f 1019 988 880
f 987 880 988
f 464 465 440
f 464 440 439
f 68 67 92
f 68 92 93
f 805 880 986
f 987 986 880
f 465 466 441
f 465 441 440
f 68 93 94
f 69 68 94
f 1162 893 1156
f 1106 1156 893
f 1106 893 889
f 70 69 94
f 70 94 95
f 466 467 442
f 466 442 441
f 861 864 1128
f 1033 861 1128
f 70 95 96
f 71 70 96
f 467 468 443
f 467 443 442
f 897 893 1161
f 1133 897 1161
f 1129 1151 635
f 72 71 96
f 72 96 97
f 468 469 444
f 468 444 443
f 1121 1082 789
f 73 72 97
f 73 97 98
f 469 470 445
f 469 445 444
f 828 830 1079
f 1143 828 1079
f 74 73 98
f 74 98 99
f 470 471 446
f 470 446 445
f 960 828 1138
f 1143 1138 828
f 75 74 99
f 75 99 100
f 471 472 447
f 471 447 446
f 665 593 1160
f 1159 1160 593
f 1169 665 1160
f 77 76 101
f 77 101 102
f 472 473 448
f 472 448 447
f 1090 858 860
f 1081 858 1090
f 78 77 102
f 78 102 103
f 473 474 449
f 473 449 448
f 593 1157 1159
f 1135 1157 593
f 79 78 103
f 79 103 104
f 889 926 1171
f 1105 889 1171
f 474 475 460
f 450 449 460
f 474 460 449
f 80 79 104
f 80 104 105
f 460 461 451
f 460 451 450
f 1087 1070 741
f 758 741 1071
f 1070 1071 741
f 81 80 105
f 81 105 106
f 1168 1171 926
f 461 452 451
f 463 452 461
f 82 81 106
f 82 106 107
f 463 478 453
f 463 453 452
f 477 478 463
f 927 1167 926
f 926 1167 1168
f 1112 1167 927
f 83 82 107
f 83 107 108
f 1069 619 1073
f 758 1073 619
f 478 479 454
f 478 454 453
f 1003 1009 883
f 84 83 108
f 84 108 109
f 479 480 455
f 479 455 454
f 1141 1107 633
f 85 84 109
f 85 109 110
f 741 734 1085
f 1087 741 1085
f 480 481 456
f 480 456 455
f 85 110 111
f 86 85 111
f 612 736 1114
f 1117 1114 736
f 1113 612 1114
f 87 86 111
f 87 111 112
f 481 1154 1137
f 481 482 1154
f 481 1137 456
f 1086 1083 612
f 734 612 1083
f 1113 1086 612
f 88 87 112
f 88 112 113
f 485 486 458
f 485 458 457
f 89 88 113
f 89 113 114
f 486 487 459
f 486 459 458
f 89 114 115
f 90 89 115
f 475 476 462
f 475 462 460
f 91 90 115
f 91 115 116
f 463 462 476
f 463 476 477
f 92 91 116
f 92 116 117
f 118 92 117
f 93 92 118
f 1165 482 483
f 1154 482 1165
f 1154 1165 864
f 1166 1043 864
f 1165 1166 864
f 1137 1154 864
f 1137 864 1119
f 1095 864 1096
f 1119 864 1115
f 1115 864 1095
f 94 93 118
f 94 118 119
f 120 94 119
f 95 94 120
f 96 95 120
f 96 120 121
f 97 96 121
f 97 121 122
f 98 97 122
f 98 122 123
f 99 98 123
f 99 123 124
f 100 99 124
f 100 124 125
f 1156 484 485
f 1161 1162 485
f 1133 1161 485
f 1156 485 1162
f 1052 1133 485
f 1051 1052 485
f 1056 1051 485
f 1055 1056 485
f 457 1153 1055
f 457 1123 1153
f 457 1122 1123
f 457 1121 1122
f 457 1055 485
f 1082 1121 457
f 1076 1082 457
f 1074 1076 457
f 102 101 126
f 102 126 127
f 465 464 488
f 465 488 489
f 103 102 127
f 103 127 128
f 466 465 489
f 466 489 490
f 104 103 128
f 104 128 129
f 467 466 490
f 467 490 491
f 105 104 129
f 105 129 130
f 469 468 492
f 493 469 492
f 106 105 130
f 106 130 131
f 471 470 493
f 471 493 494
f 107 106 131
f 107 131 132
f 473 472 495
f 473 495 496
f 108 107 132
f 108 132 133
f 1091 864 1078
f 1027 864 690
f 1096 864 1091
f 1078 864 1059
f 1059 864 1045
f 1045 864 1027
f 1020 1027 690
f 1007 1020 690
f 996 1007 690
f 983 996 690
f 984 983 690
f 1183 984 690
f 1180 1183 690
f 1179 1180 690
f 1177 1179 690
f 1176 1177 690
f 1173 1176 690
f 1024 1173 690
f 109 108 133
f 109 133 134
f 474 473 496
f 474 496 497
f 135 109 134
f 110 109 135
f 476 475 498
f 476 498 499
f 111 110 135
f 111 135 136
f 478 477 500
f 478 500 501
f 112 111 136
f 112 136 137
f 479 502 503
f 480 479 503
f 113 112 137
f 113 137 161
f 481 480 503
f 481 503 504
f 161 183 138
f 114 113 138
f 161 138 113
f 182 183 161
f 505 481 504
f 482 481 505
f 115 114 138
f 115 138 139
f 115 139 140
f 116 115 140
f 117 116 140
f 117 140 141
f 1166 483 506
f 1042 1043 506
f 1166 506 1043
f 1128 1042 506
f 1033 1128 506
f 1032 1033 506
f 1041 1032 506
f 1040 1041 506
f 142 117 141
f 118 117 142
f 166 143 142
f 118 142 143
f 485 484 507
f 485 507 508
f 119 118 143
f 119 143 144
f 486 485 508
f 486 508 509
f 120 119 144
f 120 144 145
f 487 486 509
f 487 509 510
f 121 120 145
f 121 145 146
f 515 516 489
f 515 489 488
f 122 121 146
f 122 146 147
f 123 122 147
f 123 147 171
f 516 517 490
f 516 490 489
f 517 518 491
f 517 491 490
f 171 193 148
f 124 123 148
f 171 148 123
f 192 193 171
f 518 519 492
f 518 492 491
f 125 124 148
f 125 148 149
f 127 126 150
f 127 150 151
f 520 521 493
f 521 494 493
f 520 493 492
f 519 520 492
f 128 127 151
f 128 151 152
f 522 523 495
f 523 496 495
f 521 522 495
f 521 495 494
f 129 128 152
f 129 152 153
f 523 524 497
f 523 497 496
f 130 129 153
f 130 153 154
f 524 525 498
f 524 498 497
f 131 130 154
f 131 154 155
f 526 499 498
f 525 526 498
f 131 155 156
f 132 131 156
f 526 527 500
f 526 500 499
f 133 132 156
f 133 156 157
f 527 528 501
f 527 501 500
f 528 529 511
f 528 511 501
f 1036 993 970
f 993 1186 970
f 1186 1185 970
f 1185 1184 970
f 1184 1182 970
f 1182 1181 970
f 1181 736 970
f 1117 736 1134
f 1178 736 1181
f 1175 736 1178
f 1174 736 1175
f 1172 736 1174
f 1170 736 1172
f 1164 736 1170
f 1163 736 1164
f 1155 736 1163
f 1152 736 1155
f 1146 736 1152
f 1136 736 1146
f 1134 736 1136
f 1039 1036 970
f 1048 1039 970
f 1053 1048 970
f 1109 1053 970
f 502 511 512
f 513 512 511
f 992 991 133
f 992 133 157
f 134 133 991
f 134 991 990
f 134 990 989
f 995 134 989
f 504 503 512
f 504 512 514
f 514 532 505
f 514 505 504
f 531 532 514
f 533 506 505
f 532 533 505
f 981 982 135
f 1008 158 135
f 985 981 135
f 1008 135 982
f 134 994 985
f 134 985 135
f 1002 994 134
f 1001 1002 134
f 1000 1001 134
f 995 1000 134
f 183 184 162
f 183 162 138
f 140 139 162
f 140 162 163
f 140 163 164
f 141 140 164
f 533 1088 1089
f 533 1090 1088
f 533 534 1090
f 533 1025 1026
f 1040 506 1026
f 534 1081 1090
f 534 1080 1081
f 534 1158 1080
f 533 1089 1025
f 534 1077 1158
f 533 1026 506
f 1064 1077 534
f 1063 1064 534
f 165 141 164
f 142 141 165
f 142 165 166
f 187 166 165
f 143 166 167
f 188 167 166
f 145 144 167
f 145 167 168
f 146 145 168
f 146 168 169
f 147 146 169
f 147 169 170
f 1012 536 507
f 1012 507 1013
f 535 999 986
f 535 986 987
f 535 997 999
f 535 998 997
f 535 1003 998
f 535 536 1003
f 1009 1003 536
f 1010 1009 536
f 1011 1010 536
f 1012 1011 536
f 535 987 988
f 193 194 172
f 193 172 148
f 536 537 508
f 536 508 507
f 151 150 173
f 151 173 174
f 537 538 509
f 537 509 508
f 152 151 174
f 152 174 175
f 538 539 510
f 538 510 509
f 153 152 175
f 153 175 176
f 529 530 513
f 529 513 511
f 154 153 176
f 154 176 177
f 155 154 177
f 155 177 178
f 156 155 178
f 156 178 179
f 534 535 1018
f 534 1018 1067
f 534 1067 1062
f 535 988 1019
f 535 1019 1018
f 534 1062 1063
f 160 181 182
f 161 160 182
f 530 531 514
f 530 514 513
f 163 162 184
f 163 184 185
f 516 515 540
f 516 540 541
f 164 163 185
f 164 185 186
f 518 517 542
f 518 542 543
f 165 164 186
f 187 165 186
f 520 519 544
f 520 544 545
f 168 167 188
f 168 188 189
f 521 520 546
f 521 546 547
f 169 168 189
f 169 189 190
f 524 523 549
f 524 549 550
f 170 169 190
f 170 190 191
f 525 551 552
f 526 525 552
f 171 170 191
f 171 191 192
f 527 526 552
f 527 552 553
f 206 207 174
f 206 174 173
f 528 527 553
f 528 553 554
f 175 174 208
f 207 208 174
f 529 528 554
f 529 554 555
f 208 209 176
f 208 176 175
f 529 555 556
f 530 529 556
f 209 210 177
f 209 177 176
f 531 530 556
f 531 556 557
f 210 1103 1102
f 178 177 1102
f 210 1102 177
f 1120 1103 210
f 558 531 557
f 532 531 558
f 1117 195 181
f 1134 195 1117
f 1117 181 180
f 1114 1117 180
f 533 532 558
f 533 558 559
f 183 182 196
f 183 196 197
f 534 533 559
f 534 559 560
f 185 184 198
f 185 198 215
f 214 215 198
f 535 534 560
f 535 560 561
f 215 216 186
f 215 186 185
f 536 535 561
f 536 561 562
f 537 536 562
f 537 562 563
f 216 217 199
f 187 186 199
f 216 199 186
f 538 537 563
f 538 563 564
f 189 188 200
f 189 200 201
f 189 201 202
f 220 202 201
f 539 538 564
f 539 564 565
f 191 190 202
f 191 202 203
f 192 191 203
f 192 203 222
f 222 223 204
f 193 192 204
f 222 204 192
f 197 196 212
f 197 212 213
f 201 200 218
f 201 218 219
f 203 202 220
f 203 220 221
f 229 207 206
f 228 229 206
f 229 230 208
f 229 208 207
f 26 1 566
f 51 26 566
f 76 51 566
f 101 76 566
f 126 101 566
f 150 126 566
f 173 150 566
f 206 173 566
f 228 206 566
f 245 228 566
f 264 245 566
f 281 264 566
f 299 281 566
f 568 316 299
f 568 333 316
f 568 349 333
f 568 366 349
f 568 385 366
f 568 418 385
f 568 439 418
f 568 464 439
f 568 488 464
f 568 515 488
f 568 299 566
f 540 515 568
f 230 231 209
f 230 209 208
f 231 232 210
f 231 210 209
f 213 212 225
f 213 225 226
f 215 214 227
f 234 215 227
f 233 234 227
f 234 235 216
f 234 216 215
f 236 237 217
f 236 217 216
f 235 236 216
f 237 238 218
f 237 218 217
f 541 540 568
f 542 541 568
f 543 542 568
f 544 543 568
f 545 544 568
f 546 545 568
f 547 546 568
f 548 547 568
f 549 548 568
f 550 549 568
f 551 550 568
f 552 551 568
f 553 552 568
f 554 553 568
f 555 554 568
f 556 555 568
f 557 556 568
f 558 557 568
f 569 559 558
f 569 560 559
f 569 561 560
f 569 562 561
f 569 563 562
f 569 564 563
f 569 558 568
f 565 564 569
f 238 239 219
f 238 219 218
f 240 220 219
f 239 240 219
f 240 241 221
f 240 221 220
f 241 242 222
f 241 222 221
f 242 243 223
f 242 223 222
f 243 244 224
f 243 224 223
f 211 1146 225
f 1152 226 225
f 1146 1152 225
f 1152 1155 233
f 1152 233 227
f 1152 227 226
f 229 228 245
f 229 245 246
f 539 565 569
f 510 539 569
f 487 510 569
f 459 487 569
f 438 459 569
f 417 438 569
f 403 417 569
f 402 403 569
f 384 402 569
f 363 384 569
f 348 363 569
f 332 348 569
f 315 332 569
f 295 315 569
f 567 280 295
f 567 263 280
f 567 244 263
f 567 224 244
f 567 205 224
f 567 194 205
f 567 172 194
f 567 149 172
f 567 125 149
f 567 100 125
f 567 75 100
f 567 50 75
f 567 295 569
f 25 50 567
f 229 246 247
f 230 229 247
f 231 230 247
f 231 247 248
f 231 248 249
f 232 231 249
f 1068 232 249
f 1157 1135 249
f 1157 249 250
f 1068 249 1135
f 1065 232 1068
f 1066 232 1065
f 1164 251 234
f 1163 1164 234
f 1163 234 233
f 236 235 252
f 236 252 253
f 255 236 254
f 237 236 255
f 237 255 256
f 238 237 256
f 238 256 257
f 24 25 567
f 23 24 567
f 22 23 567
f 21 22 567
f 20 21 567
f 19 20 567
f 18 19 567
f 566 17 18
f 566 16 17
f 566 15 16
f 566 14 15
f 566 13 14
f 566 12 13
f 566 11 12
f 566 10 11
f 566 9 10
f 566 8 9
f 566 7 8
f 566 6 7
f 566 5 6
f 566 4 5
f 566 3 4
f 566 2 3
f 566 18 567
f 1 2 566
f 258 238 257
f 239 238 258
f 241 240 259
f 241 259 260
f 243 242 261
f 243 261 262
f 246 245 264
f 246 264 265
f 156 179 1016
f 1014 1016 179
f 1017 156 1016
f 1030 156 1017
f 157 156 1030
f 1029 157 1030
f 1031 157 1029
f 1015 1014 179
f 247 246 265
f 247 265 266
f 247 266 267
f 248 247 267
f 249 248 267
f 249 267 268
f 157 1031 1037
f 1044 157 1037
f 1005 157 1044
f 1004 157 1005
f 1006 157 1004
f 992 157 1006
f 250 249 268
f 250 268 269
f 1172 270 252
f 1170 252 251
f 1172 252 1170
f 271 253 270
f 253 252 270
f 255 254 271
f 255 271 272
f 158 1008 1057
f 158 1057 1058
f 158 1058 1069
f 1073 158 1069
f 1072 158 1073
f 1071 158 1072
f 1070 158 1071
f 257 256 273
f 257 273 274
f 258 257 274
f 258 274 275
f 158 1084 180
f 1083 180 1084
f 1086 180 1083
f 1085 1084 158
f 1087 1085 158
f 1070 1087 158
f 259 258 275
f 259 275 276
f 277 259 276
f 260 259 277
f 261 260 277
f 261 277 278
f 279 261 278
f 262 261 279
f 262 279 280
f 263 262 280
f 1092 1094 178
f 1093 178 1094
f 1101 178 1093
f 1099 178 1101
f 179 178 1099
f 1100 179 1099
f 1097 1092 178
f 1098 1097 178
f 1102 1098 178
f 265 282 283
f 266 265 283
f 267 266 283
f 267 283 284
f 413 1095 1096
f 1091 413 1096
f 268 267 284
f 268 284 285
f 179 1100 1104
f 1015 179 1104
f 268 285 286
f 269 268 286
f 1021 269 286
f 1023 286 287
f 1021 286 1023
f 180 1086 1113
f 1114 180 1113
f 271 270 1175
f 288 272 271
f 288 271 1175
f 1174 1175 270
f 413 435 1115
f 1095 413 1115
f 275 274 289
f 275 289 290
f 277 276 291
f 277 291 292
f 414 1110 1125
f 1124 414 1125
f 1127 414 1124
f 1126 414 1127
f 279 278 293
f 279 293 294
f 211 195 1136
f 1134 1136 195
f 280 279 294
f 280 294 295
f 299 300 296
f 299 296 281
f 284 283 297
f 284 297 298
f 285 284 298
f 285 298 303
f 303 304 286
f 303 286 285
f 304 305 287
f 304 287 286
f 1176 1173 287
f 305 306 1176
f 305 1176 287
f 210 1050 1049
f 210 232 1050
f 232 1054 1050
f 232 1129 1054
f 232 1151 1129
f 232 1132 1151
f 232 1061 1132
f 1060 1061 232
f 1066 1060 232
f 210 1049 1107
f 1141 210 1107
f 1142 210 1141
f 1144 210 1142
f 1145 210 1144
f 1120 210 1145
f 288 307 308
f 1178 307 288
f 1175 1178 288
f 308 309 289
f 308 289 288
f 290 289 310
f 309 310 289
f 310 311 291
f 310 291 290
f 1079 457 436
f 1143 436 1138
f 1079 436 1143
f 1075 457 1079
f 1074 457 1075
f 1139 1138 436
f 1131 1139 436
f 311 312 292
f 311 292 291
f 312 313 293
f 312 293 292
f 313 314 294
f 313 294 293
f 484 1156 1106
f 484 1106 1105
f 1171 484 1105
f 1168 484 1171
f 1167 484 1168
f 314 315 295
f 314 295 294
f 297 301 302
f 298 297 302
f 1159 250 1160
f 1157 250 1159
f 1177 1176 306
f 299 316 317
f 300 299 317
f 1047 250 269
f 1047 269 1046
f 1140 250 1047
f 1169 250 1140
f 1160 250 1169
f 1028 1046 269
f 1022 1028 269
f 1021 1022 269
f 302 301 318
f 302 318 319
f 304 303 320
f 304 320 321
f 1024 287 1173
f 1023 287 1024
f 304 321 322
f 305 304 322
f 306 305 322
f 306 322 323
f 1177 306 323
f 1177 323 324
f 1179 1177 324
f 310 309 326
f 310 326 327
f 507 1147 1150
f 507 1150 1149
f 507 1149 1148
f 507 1148 1013
f 507 1118 1147
f 507 1116 1118
f 507 1111 1116
f 1112 1111 507
f 484 1112 507
f 1167 1112 484
f 312 311 328
f 312 328 329
f 314 313 330
f 314 330 331
f 325 307 1181
f 1182 325 1181
f 315 314 331
f 315 331 332
f 317 316 333
f 317 333 334
f 342 325 1184
f 1185 342 1184
f 317 334 335
f 318 317 335
f 319 318 335
f 319 335 336
f 320 319 336
f 320 336 337
f 320 337 338
f 321 320 338
f 322 321 338
f 322 338 339
f 323 322 339
f 323 339 340
f 324 323 340
f 324 340 341
f 1180 324 341
f 1180 341 1183
f 327 326 342
f 327 342 343
f 328 327 343
f 328 343 344
f 329 328 344
f 329 344 345
f 329 345 346
f 330 329 346
f 331 330 346
f 331 346 347
f 331 347 348
f 332 331 348
f 334 333 349
f 334 349 350
f 335 334 350
f 335 350 351
f 335 351 352
f 336 335 352
f 337 336 352
f 337 352 353
f 338 337 353
f 338 353 354
f 338 354 355
f 339 338 355
f 340 339 355
f 340 355 356
f 341 340 356
f 341 356 357
f 1183 341 357
f 984 1183 357
f 343 342 993
f 343 993 358
f 1186 993 342
f 345 344 359
f 345 359 360
f 346 345 360
f 346 360 361
f 362 346 361
f 347 346 362
f 348 347 362
f 348 362 363
f 366 367 350
f 366 350 349
f 367 368 351
f 367 351 350
f 368 369 352
f 368 352 351
f 370 353 352
f 369 370 352
f 370 371 354
f 370 354 353
f 371 372 355
f 371 355 354
f 372 373 356
f 372 356 355
f 374 375 357
f 374 357 356
f 373 374 356
f 364 983 984
f 364 984 357
f 375 376 364
f 375 364 357
f 993 1036 358
f 1036 380 359
f 1036 359 358
f 1039 380 1036
f 380 381 360
f 380 360 359
f 382 361 360
f 381 382 360
