v -2 -2 0.060000000000000026
v -2 -1.8999999999999999 0.046000000000000013
v -2 -1.8 0.032000000000000056
v -2 -1.7 0.018000000000000016
v -2 -1.6000000000000001 0.0040000000000000313
v -2 -1.2999999999999998 -0.038000000000000006
v -2 -1.1000000000000001 -0.065999999999999975
v -2 -0.79999999999999982 -0.10800000000000001
v -2 -0.69999999999999996 -0.122
v -2 -0.59999999999999987 -0.13600000000000001
v -2 -0.5 -0.14999999999999999
v -2 -0.29999999999999982 -0.17800000000000002
v -2 -0.19999999999999996 -0.192
v -2 -0.099999999999999867 -0.20600000000000002
v -2 0 -0.22
v -2 0.20000000000000018 -0.24800000000000003
v -2 0.30000000000000027 -0.26200000000000007
v -2 0.40000000000000036 -0.27600000000000008
v -2 0.5 -0.29000000000000004
v -2 0.90000000000000036 -0.34600000000000009
v -2 1 -0.35999999999999999
v -2 1.4000000000000004 -0.41600000000000004
v -2 1.5 -0.43000000000000005
v -2 1.9000000000000004 -0.4860000000000001
v -2 2 -0.5
v -1.8999999999999999 -2 0.071000000000000035
v -1.8999999999999999 -1.8999999999999999 0.057000000000000023
v -1.8999999999999999 -1.8 0.043000000000000066
v -1.8999999999999999 -1.7 0.029000000000000026
v -1.8999999999999999 -1.6000000000000001 0.015000000000000041
v -1.8999999999999999 -1.2999999999999998 -0.026999999999999996
v -1.8999999999999999 -1.1000000000000001 -0.054999999999999966
v -1.8999999999999999 -0.79999999999999982 -0.097000000000000003
v -1.8999999999999999 -0.69999999999999996 -0.11099999999999999
v -1.8999999999999999 -0.59999999999999987 -0.125
v -1.8999999999999999 -0.5 -0.13899999999999998
v -1.8999999999999999 -0.29999999999999982 -0.16700000000000001
v -1.8999999999999999 -0.19999999999999996 -0.18099999999999999
v -1.8999999999999999 -0.099999999999999867 -0.19500000000000001
v -1.8999999999999999 0 -0.20899999999999999
v -1.8999999999999999 0.20000000000000018 -0.23700000000000002
v -1.8999999999999999 0.30000000000000027 -0.25100000000000006
v -1.8999999999999999 0.40000000000000036 -0.26500000000000007
v -1.8999999999999999 0.5 -0.27900000000000003
v -1.8999999999999999 0.90000000000000036 -0.33500000000000008
v -1.8999999999999999 1 -0.34899999999999998
v -1.8999999999999999 1.4000000000000004 -0.40500000000000003
v -1.8999999999999999 1.5 -0.41900000000000004
v -1.8999999999999999 1.9000000000000004 -0.47500000000000009
v -1.8999999999999999 2 -0.48899999999999999
v -1.8 -2 0.082000000000000017
v -1.8 -1.8999999999999999 0.068000000000000005
v -1.8 -1.8 0.054000000000000048
v -1.8 -1.7 0.040000000000000008
v -1.8 -1.6000000000000001 0.026000000000000023
v -1.8 -1.2999999999999998 -0.016000000000000014
v -1.8 -1.1000000000000001 -0.043999999999999984
v -1.8 -0.79999999999999982 -0.086000000000000021
v -1.8 -0.69999999999999996 -0.10000000000000001
v -1.8 -0.59999999999999987 -0.11400000000000002
v -1.8 -0.5 -0.128
v -1.8 -0.29999999999999982 -0.15600000000000003
v -1.8 -0.19999999999999996 -0.17000000000000001
v -1.8 -0.099999999999999867 -0.18400000000000002
v -1.8 0 -0.19800000000000001
v -1.8 0.30000000000000027 -0.24000000000000005
v -1.8 0.40000000000000036 -0.25400000000000006
v -1.8 0.5 -0.26800000000000002
v -1.8 0.90000000000000036 -0.32400000000000007
v -1.8 1 -0.33800000000000002
v -1.8 1.4000000000000004 -0.39400000000000007
v -1.8 1.5 -0.40800000000000003
v -1.8 1.9000000000000004 -0.46400000000000008
v -1.8 2 -0.47800000000000004
v -1.7 -2 0.093000000000000027
v -1.7 -1.8999999999999999 0.079000000000000015
v -1.7 -1.8 0.065000000000000058
v -1.7 -1.7 0.051000000000000018
v -1.7 -1.6000000000000001 0.037000000000000033
v -1.7 -1.2999999999999998 -0.0050000000000000044
v -1.7 -1.1000000000000001 -0.032999999999999974
v -1.7 -0.79999999999999982 -0.075000000000000011
v -1.7 -0.69999999999999996 -0.088999999999999996
v -1.7 -0.59999999999999987 -0.10300000000000001
v -1.7 -0.5 -0.11699999999999999
v -1.7 -0.29999999999999982 -0.14500000000000002
v -1.7 -0.19999999999999996 -0.159
v -1.7 -0.099999999999999867 -0.17300000000000001
v -1.7 0 -0.187
v -1.7 0.40000000000000036 -0.24300000000000005
v -1.7 0.5 -0.25700000000000001
v -1.7 0.90000000000000036 -0.31300000000000006
v -1.7 1 -0.32700000000000001
v -1.7 1.4000000000000004 -0.38300000000000006
v -1.7 1.5 -0.39700000000000002
v -1.7 1.9000000000000004 -0.45300000000000007
v -1.7 2 -0.46700000000000003
v -1.6000000000000001 -2 0.10400000000000001
v -1.6000000000000001 -1.8999999999999999 0.089999999999999997
v -1.6000000000000001 -1.8 0.07600000000000004
v -1.6000000000000001 -1.7 0.062
v -1.6000000000000001 -1.6000000000000001 0.048000000000000015
v -1.6000000000000001 -1.2999999999999998 0.0059999999999999776
v -1.6000000000000001 -1.1000000000000001 -0.021999999999999992
v -1.6000000000000001 -0.79999999999999982 -0.064000000000000029
v -1.6000000000000001 -0.69999999999999996 -0.078000000000000014
v -1.6000000000000001 -0.59999999999999987 -0.092000000000000026
v -1.6000000000000001 -0.5 -0.10600000000000001
v -1.6000000000000001 -0.29999999999999982 -0.13400000000000004
v -1.6000000000000001 -0.19999999999999996 -0.14800000000000002
v -1.6000000000000001 -0.099999999999999867 -0.16200000000000003
v -1.6000000000000001 0 -0.17600000000000002
v -1.6000000000000001 0.40000000000000036 -0.23200000000000007
v -1.6000000000000001 0.5 -0.24600000000000002
v -1.6000000000000001 0.60000000000000009 -0.26000000000000001
v -1.6000000000000001 0.90000000000000036 -0.30200000000000005
v -1.6000000000000001 1 -0.31600000000000006
v -1.6000000000000001 1.4000000000000004 -0.37200000000000011
v -1.6000000000000001 1.5 -0.38600000000000001
v -1.6000000000000001 1.9000000000000004 -0.44200000000000006
v -1.6000000000000001 2 -0.45600000000000007
v -1.5 0.60000000000000009 -0.24900000000000003
v -1.5 0.70000000000000018 -0.26300000000000001
v -1.3999999999999999 0.60000000000000009 -0.23800000000000002
v -1.3999999999999999 0.70000000000000018 -0.252
v -1.2999999999999998 -2 0.13700000000000004
v -1.2999999999999998 -1.8999999999999999 0.12300000000000003
v -1.2999999999999998 -1.8 0.10900000000000007
v -1.2999999999999998 -1.7 0.095000000000000029
v -1.2999999999999998 -1.6000000000000001 0.081000000000000044
v -1.2999999999999998 -0.5 -0.072999999999999982
v -1.2999999999999998 -0.29999999999999982 -0.10100000000000001
v -1.2999999999999998 -0.19999999999999996 -0.11499999999999999
v -1.2999999999999998 -0.099999999999999867 -0.129
v -1.2999999999999998 0 -0.14299999999999999
v -1.2999999999999998 0.40000000000000036 -0.19900000000000004
v -1.2999999999999998 0.5 -0.21299999999999999
v -1.2999999999999998 0.70000000000000018 -0.24100000000000002
v -1.2999999999999998 0.80000000000000027 -0.255
v -1.2999999999999998 0.90000000000000036 -0.26900000000000002
v -1.2999999999999998 1 -0.28300000000000003
v -1.2999999999999998 1.4000000000000004 -0.33900000000000008
v -1.2999999999999998 1.5 -0.35299999999999998
v -1.2999999999999998 1.9000000000000004 -0.40900000000000003
v -1.2999999999999998 2 -0.42300000000000004
v -1.2 -2 0.14800000000000002
v -1.2 -1.8999999999999999 0.13400000000000001
v -1.2 -1.8 0.12000000000000005
v -1.2 -1.7 0.10600000000000001
v -1.2 -0.29999999999999982 -0.090000000000000024
v -1.2 -0.19999999999999996 -0.10400000000000001
v -1.2 -0.099999999999999867 -0.11800000000000002
v -1.2 0 -0.13200000000000001
v -1.2 0.40000000000000036 -0.18800000000000006
v -1.2 0.5 -0.20200000000000001
v -1.2 0.80000000000000027 -0.24400000000000005
v -1.2 0.90000000000000036 -0.25800000000000006
v -1.2 1 -0.27200000000000002
v -1.2 1.5 -0.34200000000000003
v -1.2 1.9000000000000004 -0.39800000000000008
v -1.2 2 -0.41200000000000003
v -1.1000000000000001 -2 0.15900000000000003
v -1.1000000000000001 -1.8999999999999999 0.14500000000000002
v -1.1000000000000001 -1.8 0.13100000000000006
v -1.1000000000000001 -1.7 0.11700000000000001
v -1.1000000000000001 -0.29999999999999982 -0.079000000000000029
v -1.1000000000000001 -0.19999999999999996 -0.093000000000000013
v -1.1000000000000001 -0.099999999999999867 -0.10700000000000003
v -1.1000000000000001 0 -0.12100000000000001
v -1.1000000000000001 0.10000000000000009 -0.13500000000000004
v -1.1000000000000001 0.40000000000000036 -0.17700000000000007
v -1.1000000000000001 0.5 -0.191
v -1.1000000000000001 0.90000000000000036 -0.24700000000000005
v -1.1000000000000001 1 -0.26100000000000001
v -1.1000000000000001 1.4000000000000004 -0.31700000000000006
v -1.1000000000000001 1.5 -0.33100000000000002
v -1.1000000000000001 1.9000000000000004 -0.38700000000000007
v -1.1000000000000001 2 -0.40100000000000002
v -1 0.10000000000000009 -0.12400000000000001
v -1 0.20000000000000018 -0.13800000000000004
v -0.89999999999999991 0.10000000000000009 -0.113
v -0.89999999999999991 0.20000000000000018 -0.12700000000000003
v -0.79999999999999982 -2 0.19200000000000006
v -0.79999999999999982 -1.8999999999999999 0.17800000000000005
v -0.79999999999999982 -1.8 0.16400000000000009
v -0.79999999999999982 -1.7 0.15000000000000002
v -0.79999999999999982 -0.099999999999999867 -0.073999999999999996
v -0.79999999999999982 0 -0.087999999999999981
v -0.79999999999999982 0.20000000000000018 -0.11600000000000001
v -0.79999999999999982 0.30000000000000027 -0.13000000000000003
v -0.79999999999999982 0.40000000000000036 -0.14400000000000004
v -0.79999999999999982 0.5 -0.15799999999999997
v -0.79999999999999982 0.90000000000000036 -0.21400000000000002
v -0.79999999999999982 1 -0.22799999999999998
v -0.79999999999999982 1.4000000000000004 -0.28400000000000003
v -0.79999999999999982 1.5 -0.29799999999999999
v -0.79999999999999982 1.9000000000000004 -0.35400000000000004
v -0.79999999999999982 2 -0.36799999999999999
v -0.69999999999999996 -2 0.20300000000000001
v -0.69999999999999996 -1.8999999999999999 0.189
v -0.69999999999999996 -1.8 0.17500000000000004
v -0.69999999999999996 -1.7 0.16100000000000003
v -0.69999999999999996 0 -0.076999999999999999
v -0.69999999999999996 0.20000000000000018 -0.10500000000000002
v -0.69999999999999996 0.30000000000000027 -0.11900000000000005
v -0.69999999999999996 0.40000000000000036 -0.13300000000000006
v -0.69999999999999996 0.5 -0.14700000000000002
v -0.69999999999999996 0.90000000000000036 -0.20300000000000007
v -0.69999999999999996 1 -0.21700000000000003
v -0.69999999999999996 1.4000000000000004 -0.27300000000000008
v -0.69999999999999996 1.5 -0.28700000000000003
v -0.69999999999999996 1.9000000000000004 -0.34300000000000008
v -0.69999999999999996 2 -0.35700000000000004
v -0.59999999999999987 -2 0.21400000000000002
v -0.59999999999999987 -1.8999999999999999 0.20000000000000001
v -0.59999999999999987 -1.8 0.18600000000000005
v -0.59999999999999987 -1.7 0.17200000000000004
v -0.59999999999999987 0.20000000000000018 -0.094000000000000014
v -0.59999999999999987 0.30000000000000027 -0.10800000000000004
v -0.59999999999999987 0.40000000000000036 -0.12200000000000005
v -0.59999999999999987 0.5 -0.13600000000000001
v -0.59999999999999987 0.90000000000000036 -0.19200000000000006
v -0.59999999999999987 1 -0.20600000000000002
v -0.59999999999999987 1.4000000000000004 -0.26200000000000007
v -0.59999999999999987 1.5 -0.27600000000000002
v -0.59999999999999987 1.9000000000000004 -0.33200000000000007
v -0.59999999999999987 2 -0.34600000000000003
v -0.5 -2 0.22500000000000003
v -0.5 -1.8999999999999999 0.21100000000000002
v -0.5 -1.8 0.19700000000000006
v -0.5 -1.7 0.18300000000000002
v -0.5 -1.6000000000000001 0.16900000000000004
v -0.5 0.30000000000000027 -0.097000000000000045
v -0.5 0.40000000000000036 -0.11100000000000006
v -0.5 0.5 -0.125
v -0.5 0.90000000000000036 -0.18100000000000005
v -0.5 1 -0.19500000000000001
v -0.5 1.4000000000000004 -0.25100000000000006
v -0.5 1.5 -0.26500000000000001
v -0.5 1.9000000000000004 -0.32100000000000006
v -0.5 2 -0.33500000000000002
v -0.29999999999999982 -2 0.24700000000000005
v -0.29999999999999982 -1.8999999999999999 0.23300000000000004
v -0.29999999999999982 -1.8 0.21900000000000008
v -0.29999999999999982 -1.7 0.20500000000000004
v -0.29999999999999982 -1.6000000000000001 0.19100000000000006
v -0.29999999999999982 0.40000000000000036 -0.089000000000000037
v -0.29999999999999982 0.5 -0.10299999999999998
v -0.29999999999999982 0.90000000000000036 -0.15900000000000003
v -0.29999999999999982 1 -0.17299999999999999
v -0.29999999999999982 1.4000000000000004 -0.22900000000000004
v -0.29999999999999982 1.5 -0.24299999999999999
v -0.29999999999999982 1.6000000000000001 -0.25700000000000001
v -0.29999999999999982 1.9000000000000004 -0.29900000000000004
v -0.29999999999999982 2 -0.313
v -0.19999999999999996 -2 0.25800000000000001
v -0.19999999999999996 -1.8999999999999999 0.24400000000000002
v -0.19999999999999996 -1.8 0.23000000000000007
v -0.19999999999999996 -1.7 0.21600000000000003
v -0.19999999999999996 -1.6000000000000001 0.20200000000000004
v -0.19999999999999996 -1.2999999999999998 0.16
v -0.19999999999999996 0.40000000000000036 -0.078000000000000055
v -0.19999999999999996 0.5 -0.091999999999999998
v -0.19999999999999996 0.90000000000000036 -0.14800000000000005
v -0.19999999999999996 1 -0.16200000000000001
v -0.19999999999999996 1.4000000000000004 -0.21800000000000005
v -0.19999999999999996 1.5 -0.23200000000000001
v -0.19999999999999996 1.6000000000000001 -0.24600000000000002
v -0.19999999999999996 1.7000000000000002 -0.26000000000000006
v -0.19999999999999996 1.9000000000000004 -0.28800000000000009
v -0.19999999999999996 2 -0.30200000000000005
v -0.099999999999999867 -2 0.26900000000000002
v -0.099999999999999867 -1.8999999999999999 0.255
v -0.099999999999999867 -1.8 0.24100000000000008
v -0.099999999999999867 -1.7 0.22700000000000004
v -0.099999999999999867 -1.6000000000000001 0.21300000000000005
v -0.099999999999999867 -1.2999999999999998 0.17100000000000001
v -0.099999999999999867 -1.1000000000000001 0.14300000000000004
v -0.099999999999999867 0.5 -0.080999999999999989
v -0.099999999999999867 0.90000000000000036 -0.13700000000000004
v -0.099999999999999867 1 -0.151
v -0.099999999999999867 1.4000000000000004 -0.20700000000000005
v -0.099999999999999867 1.5 -0.221
v -0.099999999999999867 1.7000000000000002 -0.24900000000000003
v -0.099999999999999867 1.8000000000000003 -0.26300000000000007
v -0.099999999999999867 1.9000000000000004 -0.27700000000000008
v -0.099999999999999867 2 -0.29100000000000004
v 0 -2 0.28000000000000003
v 0 -1.8999999999999999 0.26600000000000001
v 0 -1.8 0.25200000000000006
v 0 -1.7 0.23800000000000002
v 0 -1.6000000000000001 0.22400000000000003
v 0 -1.2999999999999998 0.182
v 0 -1.1000000000000001 0.15400000000000003
v 0 0.90000000000000036 -0.12600000000000006
v 0 1 -0.14000000000000001
v 0 1.4000000000000004 -0.19600000000000006
v 0 1.5 -0.21000000000000002
v 0 1.8000000000000003 -0.25200000000000006
v 0 1.9000000000000004 -0.26600000000000007
v 0 2 -0.28000000000000003
v 0.10000000000000009 -1.8 0.26300000000000007
v 0.10000000000000009 -1.7 0.24900000000000003
v 0.20000000000000018 -1.7 0.26000000000000001
v 0.20000000000000018 -1.6000000000000001 0.24600000000000005
v 0.40000000000000036 -2 0.32400000000000007
v 0.40000000000000036 -1.8999999999999999 0.31000000000000005
v 0.40000000000000036 -1.8 0.2960000000000001
v 0.40000000000000036 -1.7 0.28200000000000003
v 0.40000000000000036 -1.6000000000000001 0.26800000000000007
v 0.40000000000000036 -1.2999999999999998 0.22600000000000003
v 0.40000000000000036 -1.1000000000000001 0.19800000000000006
v 0.40000000000000036 -0.79999999999999982 0.15600000000000003
v 0.40000000000000036 -0.69999999999999996 0.14200000000000004
v 0.40000000000000036 -0.59999999999999987 0.12800000000000003
v 0.40000000000000036 0.90000000000000036 -0.082000000000000017
v 0.40000000000000036 1 -0.095999999999999974
v 0.40000000000000036 1.4000000000000004 -0.15200000000000002
v 0.40000000000000036 1.5 -0.16599999999999998
v 0.40000000000000036 1.9000000000000004 -0.22200000000000003
v 0.40000000000000036 2 -0.23599999999999999
v 0.5 -2 0.33500000000000002
v 0.5 -1.8999999999999999 0.32100000000000001
v 0.5 -1.8 0.30700000000000005
v 0.5 -1.7 0.29300000000000004
v 0.5 -1.6000000000000001 0.27900000000000003
v 0.5 -1.2999999999999998 0.23699999999999999
v 0.5 -1.2 0.223
v 0.5 -1.1000000000000001 0.20900000000000002
v 0.5 -0.79999999999999982 0.16699999999999998
v 0.5 -0.69999999999999996 0.153
v 0.5 -0.59999999999999987 0.13899999999999998
v 0.5 -0.5 0.125
v 0.5 1 -0.08500000000000002
v 0.5 1.3000000000000003 -0.12700000000000006
v 0.5 1.4000000000000004 -0.14100000000000007
v 0.5 1.5 -0.15500000000000003
v 0.5 1.9000000000000004 -0.21100000000000008
v 0.5 2 -0.22500000000000003
v 0.60000000000000009 -1.2 0.23400000000000004
v 0.60000000000000009 -1.1000000000000001 0.22000000000000003
v 0.60000000000000009 -0.69999999999999996 0.16400000000000003
v 0.60000000000000009 -0.59999999999999987 0.15000000000000002
v 0.60000000000000009 -0.5 0.13600000000000001
v 0.60000000000000009 -0.39999999999999991 0.12200000000000001
v 0.60000000000000009 1.3000000000000003 -0.11600000000000003
v 0.60000000000000009 1.4000000000000004 -0.13000000000000006
v 0.70000000000000018 -0.29999999999999982 0.11900000000000001
v 0.70000000000000018 1.4000000000000004 -0.11900000000000004
v 0.70000000000000018 1.5 -0.13300000000000001
v 0.80000000000000027 -0.29999999999999982 0.13
v 0.80000000000000027 -0.19999999999999996 0.11600000000000003
v 0.80000000000000027 1.5 -0.12199999999999998
v 0.90000000000000036 -2 0.37900000000000006
v 0.90000000000000036 -1.8999999999999999 0.36500000000000005
v 0.90000000000000036 -1.8 0.35100000000000009
v 0.90000000000000036 -1.7 0.33700000000000008
v 0.90000000000000036 -1.6000000000000001 0.32300000000000006
v 0.90000000000000036 -1.2999999999999998 0.28100000000000003
v 0.90000000000000036 -1.2 0.26700000000000007
v 0.90000000000000036 -1.1000000000000001 0.25300000000000006
v 0.90000000000000036 -0.79999999999999982 0.21100000000000002
v 0.90000000000000036 -0.69999999999999996 0.19700000000000006
v 0.90000000000000036 -0.59999999999999987 0.18300000000000005
v 0.90000000000000036 -0.5 0.16900000000000004
v 0.90000000000000036 -0.29999999999999982 0.14100000000000001
v 0.90000000000000036 -0.19999999999999996 0.12700000000000006
v 0.90000000000000036 -0.099999999999999867 0.11300000000000003
v 0.90000000000000036 0 0.099000000000000046
v 0.90000000000000036 1.4000000000000004 -0.097000000000000017
v 0.90000000000000036 1.5 -0.11099999999999997
v 0.90000000000000036 1.6000000000000001 -0.12499999999999999
v 0.90000000000000036 1.7000000000000002 -0.13900000000000001
v 0.90000000000000036 1.9000000000000004 -0.16700000000000004
v 0.90000000000000036 2 -0.18099999999999999
v 1 -2 0.39000000000000001
v 1 -1.8999999999999999 0.376
v 1 -1.8 0.36200000000000004
v 1 -1.7 0.34800000000000003
v 1 -1.6000000000000001 0.33400000000000002
v 1 -1.2999999999999998 0.29199999999999998
v 1 -1.2 0.27800000000000002
v 1 -1.1000000000000001 0.26400000000000001
v 1 -0.79999999999999982 0.22199999999999998
v 1 -0.69999999999999996 0.20800000000000002
v 1 -0.59999999999999987 0.19400000000000001
v 1 -0.5 0.17999999999999999
v 1 -0.29999999999999982 0.15199999999999997
v 1 -0.19999999999999996 0.13800000000000001
v 1 -0.099999999999999867 0.12399999999999999
v 1 0 0.11
v 1 1.4000000000000004 -0.086000000000000063
v 1 1.5 -0.10000000000000002
v 1 1.6000000000000001 -0.11400000000000003
v 1 1.7000000000000002 -0.12800000000000006
v 1 1.9000000000000004 -0.15600000000000008
v 1 2 -0.17000000000000004
v 1.1000000000000001 -1.8999999999999999 0.38700000000000001
v 1.1000000000000001 -1.8 0.37300000000000005
v 1.1000000000000001 -1.7 0.35900000000000004
v 1.1000000000000001 -1.6000000000000001 0.34500000000000003
v 1.1000000000000001 -1.2999999999999998 0.30299999999999999
v 1.1000000000000001 -0.89999999999999991 0.247
v 1.1000000000000001 -0.79999999999999982 0.23299999999999998
v 1.1000000000000001 -0.59999999999999987 0.20500000000000002
v 1.1000000000000001 -0.5 0.191
v 1.1000000000000001 -0.29999999999999982 0.16299999999999998
v 1.1000000000000001 -0.19999999999999996 0.14900000000000002
v 1.1000000000000001 -0.099999999999999867 0.13499999999999998
v 1.1000000000000001 0 0.12100000000000001
v 1.1000000000000001 0.20000000000000018 0.092999999999999985
v 1.1000000000000001 1.4000000000000004 -0.075000000000000053
v 1.1000000000000001 1.5 -0.08900000000000001
v 1.1000000000000001 1.7000000000000002 -0.11700000000000003
v 1.1000000000000001 1.8000000000000003 -0.13100000000000006
v 1.1000000000000001 1.9000000000000004 -0.14500000000000007
v 1.1000000000000001 2 -0.15900000000000003
v 1.2000000000000002 -1.8 0.38400000000000012
v 1.2000000000000002 -1.7 0.37000000000000005
v 1.2000000000000002 -1.6000000000000001 0.35600000000000009
v 1.2000000000000002 -1.2999999999999998 0.31400000000000006
v 1.2000000000000002 -1.2 0.30000000000000004
v 1.2000000000000002 -0.89999999999999991 0.25800000000000001
v 1.2000000000000002 -0.79999999999999982 0.24400000000000002
v 1.2000000000000002 -0.69999999999999996 0.23000000000000004
v 1.2000000000000002 -0.5 0.20200000000000004
v 1.2000000000000002 -0.29999999999999982 0.17400000000000002
v 1.2000000000000002 -0.19999999999999996 0.16000000000000003
v 1.2000000000000002 -0.099999999999999867 0.14600000000000002
v 1.2000000000000002 0 0.13200000000000003
v 1.2000000000000002 0.30000000000000027 0.089999999999999997
v 1.2000000000000002 1.4000000000000004 -0.064000000000000029
v 1.2000000000000002 1.5 -0.077999999999999986
v 1.2000000000000002 1.8000000000000003 -0.12000000000000002
v 1.2000000000000002 1.9000000000000004 -0.13400000000000004
v 1.2000000000000002 2 -0.14799999999999999
v 1.3000000000000003 -0.79999999999999982 0.255
v 1.3000000000000003 -0.69999999999999996 0.24100000000000005
v 1.4000000000000004 -2 0.43400000000000005
v 1.4000000000000004 -1.8999999999999999 0.42000000000000004
v 1.4000000000000004 -1.8 0.40600000000000014
v 1.4000000000000004 -1.7 0.39200000000000007
v 1.4000000000000004 -1.6000000000000001 0.37800000000000011
v 1.4000000000000004 -1.2999999999999998 0.33600000000000008
v 1.4000000000000004 -1.2 0.32200000000000006
v 1.4000000000000004 -1.1000000000000001 0.30800000000000005
v 1.4000000000000004 -0.79999999999999982 0.26600000000000001
v 1.4000000000000004 -0.69999999999999996 0.25200000000000006
v 1.4000000000000004 -0.59999999999999987 0.23800000000000004
v 1.4000000000000004 -0.5 0.22400000000000006
v 1.4000000000000004 -0.29999999999999982 0.19600000000000004
v 1.4000000000000004 -0.19999999999999996 0.18200000000000005
v 1.4000000000000004 -0.099999999999999867 0.16800000000000004
v 1.4000000000000004 0 0.15400000000000005
v 1.4000000000000004 0.40000000000000036 0.098000000000000004
v 1.4000000000000004 0.5 0.084000000000000047
v 1.4000000000000004 1.4000000000000004 -0.04200000000000001
v 1.4000000000000004 1.5 -0.055999999999999966
v 1.4000000000000004 1.9000000000000004 -0.11200000000000002
v 1.4000000000000004 2 -0.12599999999999997
v 1.5 -2 0.44500000000000006
v 1.5 -1.8999999999999999 0.43100000000000005
v 1.5 -1.8 0.41700000000000004
v 1.5 -1.7 0.40300000000000002
v 1.5 -1.6000000000000001 0.38900000000000001
v 1.5 -1.2999999999999998 0.34699999999999998
v 1.5 -1.2 0.33300000000000002
v 1.5 -1.1000000000000001 0.31900000000000006
v 1.5 -0.79999999999999982 0.27700000000000002
v 1.5 -0.69999999999999996 0.26300000000000001
v 1.5 -0.59999999999999987 0.249
v 1.5 -0.5 0.23500000000000001
v 1.5 -0.29999999999999982 0.20699999999999999
v 1.5 -0.19999999999999996 0.193
v 1.5 -0.099999999999999867 0.17899999999999999
v 1.5 0 0.16500000000000001
v 1.5 0.40000000000000036 0.10899999999999996
v 1.5 0.5 0.095000000000000001
v 1.5 1 0.024999999999999994
v 1.5 1.4000000000000004 -0.031000000000000055
v 1.5 1.5 -0.045000000000000012
v 1.5 1.9000000000000004 -0.10100000000000006
v 1.5 2 -0.11500000000000002
v 1.6000000000000001 -0.59999999999999987 0.26000000000000001
v 1.6000000000000001 -0.5 0.24600000000000002
v 1.7000000000000002 -0.5 0.25700000000000001
v 1.8000000000000003 -0.29999999999999982 0.24000000000000002
v 1.9000000000000004 -2 0.4890000000000001
v 1.9000000000000004 -1.8999999999999999 0.47500000000000009
v 1.9000000000000004 -1.8 0.46100000000000008
v 1.9000000000000004 -1.7 0.44700000000000006
v 1.9000000000000004 -1.6000000000000001 0.43300000000000005
v 1.9000000000000004 -1.2999999999999998 0.39100000000000001
v 1.9000000000000004 -1.2 0.37700000000000006
v 1.9000000000000004 -1.1000000000000001 0.3630000000000001
v 1.9000000000000004 -0.79999999999999982 0.32100000000000006
v 1.9000000000000004 -0.69999999999999996 0.30700000000000005
v 1.9000000000000004 -0.59999999999999987 0.29300000000000004
v 1.9000000000000004 -0.5 0.27900000000000003
v 1.9000000000000004 -0.29999999999999982 0.251
v 1.9000000000000004 -0.19999999999999996 0.23700000000000004
v 1.9000000000000004 -0.099999999999999867 0.22300000000000003
v 1.9000000000000004 0 0.20900000000000005
v 1.9000000000000004 0.40000000000000036 0.153
v 1.9000000000000004 0.5 0.13900000000000004
v 1.9000000000000004 0.90000000000000036 0.08299999999999999
v 1.9000000000000004 1 0.069000000000000034
v 1.9000000000000004 1.4000000000000004 0.012999999999999984
v 1.9000000000000004 1.5 -0.00099999999999997313
v 1.9000000000000004 1.9000000000000004 -0.057000000000000023
v 1.9000000000000004 2 -0.07099999999999998
v 2 -2 0.5
v 2 -1.8999999999999999 0.48599999999999999
v 2 -1.8 0.47200000000000009
v 2 -1.7 0.45800000000000002
v 2 -1.6000000000000001 0.44400000000000006
v 2 -1.2999999999999998 0.40200000000000002
v 2 -1.2 0.38800000000000001
v 2 -1.1000000000000001 0.374
v 2 -0.79999999999999982 0.33199999999999996
v 2 -0.69999999999999996 0.318
v 2 -0.59999999999999987 0.30399999999999999
v 2 -0.5 0.29000000000000004
v 2 -0.29999999999999982 0.26200000000000001
v 2 -0.19999999999999996 0.248
v 2 -0.099999999999999867 0.23399999999999999
v 2 0 0.22
v 2 0.40000000000000036 0.16399999999999995
v 2 0.5 0.14999999999999999
v 2 0.90000000000000036 0.093999999999999945
v 2 1 0.079999999999999988
v 2 1.4000000000000004 0.023999999999999938
v 2 1.5 0.0099999999999999811
v 2 1.9000000000000004 -0.046000000000000069
v 2 2 -0.060000000000000026
v -2 -2 -0.90000000000000002
v -2 2 -0.90000000000000002
v 2 -2 -0.90000000000000002
v 2 2 -0.90000000000000002
v -0.97999999999999998 -1.4090410229681589 -0.21948159818050966
v -1.208672575837461 -1.6186725758374612 0.039999999999999925
v -0.75132742416253884 -1.6186725758374612 0.039999999999999925
v -0.97999999999999998 -1.02 -0.33000000000000002
v -1.3500000000000001 -1.2486725758374611 -0.18867257583746117
v -1.3500000000000001 -0.79132742416253887 -0.18867257583746117
v -1.0988603063736171 -1.5333975533947326 -0.10951436913436069
v -0.86113969362638287 -1.5333975533947326 -0.10951436913436069
v -0.97999999999999998 -1.6494815981805098 0.02095897703184102
v -0.97999999999999998 -1.2222172313953772 -0.30183438476009899
v -0.54503891330356979 -1.5292613105743342 0.095259200909745156
v -0.78767998437426168 -1.3410775377689941 -0.2283746755079778
v -0.66525920090974511 -1.4549610866964302 -0.099261310574334238
v -0.78547948851592053 -1.1402202876061753 -0.29378182205841369
v -1.1723200156257383 -1.3410775377689941 -0.2283746755079778
v -1.4995143691343606 -1.1388603063736171 -0.10339755339473239
v -1.2947407990902549 -1.4549610866964302 -0.099261310574334238
v -1.1745205114840795 -1.1402202876061753 -0.29378182205841369
v -1.4892613105743342 -1.3347407990902549 -0.024961086696430157
v -1.1723200156257383 -0.69892246223100585 -0.2283746755079778
v -1.4995143691343606 -0.90113969362638291 -0.10339755339473239
v -1.2947407990902549 -0.58503891330356983 -0.099261310574334238
v -1.1745205114840795 -0.8997797123938247 -0.29378182205841369
v -1.3690410229681589 -1.02 -0.21948159818050955
v -1.0400038571480446 -1.4755750954465237 -0.17004385139077888
v -1.1554438807594263 -1.5814027021208106 -0.039050610461142499
v -0.70247146006612482 -1.6444944912205688 0.12612583781306463
v -0.91999614285195541 -1.4755750954465237 -0.17004385139077888
v -0.8045561192405738 -1.5814027021208106 -0.039050610461142499
v -0.97999999999999998 -1.5401512025609523 -0.11634848387204005
v -0.80337907156350108 -1.6793448278993921 0.12422133466518182
v -1.0957615041297708 -1.6417316351420828 0.025748717601144222
v -0.86423849587022916 -1.6417316351420828 0.025748717601144222
v -1.0400449701987553 -1.5973512343254939 -0.048977291133950829
v -1.0409194492236504 -1.6956070447699014 0.11429078174063012
v -0.91995502980124466 -1.5973512343254939 -0.048977291133950829
v -0.91908055077634943 -1.6956070447699014 0.11429078174063012
v -0.97999999999999998 -1.3184829579768498 -0.26713213171240829
v -0.97999999999999998 -1.1220846591744489 -0.32292477264807778
v -0.97999999999999998 -0.91791534082555104 -0.32292477264807778
v -0.64404703019273535 -1.5808722108353546 0.063361910358453732
v -0.45674098192195489 -1.4651107067055837 0.13490645449946348
v -0.59807000116221487 -1.5997542567888519 0.15384676905614586
v -0.88291171967837045 -1.3784868151248943 -0.23004770853882334
v -0.69612583781306459 -1.2975285399338752 -0.21449449122056868
v -0.82236307941964393 -1.4427262277604245 -0.17656042965186819
v -0.88257502519947217 -1.2850893071800684 -0.27398540445239611
v -0.70490645449946343 -1.5432590180780452 -0.035110706705583861
v -0.63336191035845368 -1.3559529698072645 -0.15087221083535457
v -0.76095660149245115 -1.4990848014728457 -0.10970928659009643
v -0.60010217348946848 -1.4984675659303215 -0.0075481167066709376
v -0.72384676905614587 -1.4019299988377854 -0.16975425678885175
v -0.88152738293596244 -1.0808594243067282 -0.32088937204040197
v -0.69422133466518177 -1.196620928436499 -0.24934482789939222
v -0.88173356714735218 -1.1828866003302365 -0.30513052207780494
v -0.78457876451229147 -1.2429315705289918 -0.26802068964149967
v -0.50153243406967851 -1.437548116706671 0.030102173489468531
v -0.56245188329332907 -1.3998978265105315 -0.068467565930321439
v -1.3159529698072645 -1.5808722108353546 0.063361910358453732
v -1.0770882803216295 -1.3784868151248943 -0.23004770853882334
v -1.2638741621869354 -1.2975285399338752 -0.21449449122056868
v -1.137636920580356 -1.4427262277604245 -0.17656042965186819
v -1.0774249748005278 -1.2850893071800684 -0.27398540445239611
v -1.5600438513907786 -1.0800038571480446 -0.045575095446523661
v -1.4290506104611425 -1.1954438807594263 -0.15140270212081047
v -1.5665604296518683 -1.1776369205803561 -0.012726227760424424
v -1.2550935455005365 -1.5432590180780452 -0.035110706705583861
v -1.3266380896415462 -1.3559529698072645 -0.15087221083535457
v -1.1990433985075488 -1.4990848014728457 -0.10970928659009643
v -1.3598978265105315 -1.4984675659303215 -0.0075481167066709376
v -1.2361532309438541 -1.4019299988377854 -0.16975425678885175
v -1.0784726170640375 -1.0808594243067282 -0.32088937204040197
v -1.2657786653348182 -1.196620928436499 -0.24934482789939222
v -1.0782664328526479 -1.1828866003302365 -0.30513052207780494
v -1.1754212354877085 -1.2429315705289918 -0.26802068964149967
v -1.4251107067055839 -1.2950935455005366 -0.11325901807804512
v -1.4584675659303215 -1.437548116706671 0.030102173489468531
v -1.4997092865900963 -1.2390433985075489 -0.069084801472845736
v -1.397548116706671 -1.3998978265105315 -0.068467565930321439
v -1.2638741621869354 -0.74247146006612486 -0.21449449122056868
v -1.5600438513907786 -0.95999614285195545 -0.045575095446523661
v -1.4290506104611425 -0.84455611924057383 -0.15140270212081047
v -1.5063484838720402 -1.02 -0.11015120256095218
v -1.3266380896415462 -0.68404703019273538 -0.15087221083535457
v -1.2361532309438541 -0.63807000116221479 -0.16975425678885175
v -1.0784726170640375 -0.95914057569327194 -0.32088937204040197
v -1.2657786653348182 -0.843379071563501 -0.24934482789939222
v -1.0782664328526479 -0.85711339966976363 -0.30513052207780494
v -1.1771394788395799 -1.02 -0.30325733496604074
v -1.1754212354877085 -0.7970684294710082 -0.26802068964149967
v -1.4251107067055839 -0.74490645449946347 -0.11325901807804512
v -1.4997092865900963 -0.80095660149245118 -0.069084801472845736
v -1.397548116706671 -0.64010217348946852 -0.068467565930321439
v -1.3642512823988557 -1.1357615041297708 -0.21173163514208276
v -1.3642512823988557 -0.9042384958702292 -0.21173163514208276
v -1.4389772911339507 -1.0800449701987553 -0.16735123432549376
v -1.2757092182593699 -1.0809194492236505 -0.26560704476990132
v -1.4389772911339507 -0.9599550298012447 -0.16735123432549376
v -1.2757092182593699 -0.95908055077634946 -0.26560704476990132
v 1.02 0.97999999999999998 -0.15000000000000002
v 1.3900000000000001 0.75132742416253884 -0.0086725758374611717
v 1.02 1.1822172313953772 -0.121834384760099
v 1.2145205114840796 0.85977971239382467 -0.1137818220584137
v 1.2145205114840796 1.1002202876061753 -0.1137818220584137
v 1.4090410229681589 0.97999999999999998 -0.039481598180509558
v 1.02 1.2784829579768497 -0.087132131712408301
v 1.02 1.0820846591744488 -0.14292477264807779
v 1.3038741621869354 0.70247146006612482 -0.03449449122056869
v 1.4690506104611425 0.8045561192405738 0.02859729787918952
v 1.3666380896415462 0.64404703019273535 0.029127789164645423
v 1.1184726170640376 0.9191405756932719 -0.14088937204040197
v 1.3057786653348182 0.80337907156350097 -0.069344827899392225
v 1.3038741621869354 1.2575285399338751 -0.03449449122056869
v 1.1174249748005278 1.2450893071800684 -0.093985404452396115
v 1.1184726170640376 1.0408594243067282 -0.14088937204040197
v 1.3057786653348182 1.156620928436499 -0.069344827899392225
v 1.1182664328526479 1.1428866003302365 -0.12513052207780495
v 1.21713947883958 0.97999999999999998 -0.12325733496604074
v 1.2154212354877085 1.2029315705289918 -0.088020689641499672
v 1.4042512823988558 0.86423849587022916 -0.03173163514208277
v 1.4042512823988558 1.0957615041297708 -0.03173163514208277
v 1.4789772911339507 0.91995502980124466 0.012648765674506235
v 1.3157092182593699 0.91908055077634943 -0.08560704476990133
v 1.4789772911339507 1.0400449701987553 0.012648765674506235
v 1.3157092182593699 1.0409194492236504 -0.08560704476990133
v 0.92257502519947221 1.2450893071800684 -0.093985404452396115
v 0.92173356714735222 1.1428866003302365 -0.12513052207780495
v 0.82457876451229151 1.2029315705289918 -0.088020689641499672
v -0.4742192613568651 -1.4946269024611758 0.15708364759530949
v 1 1.3040151555288277 -0.072562121774035884
v 0.98483173343098318 1.3002181420419188 -0.073699049208460501
v -1.5139833542795853 -1.3500198623714605 0.022464611761250086
v -0.51597077786916701 -1.5361443027108872 0.15830341681391585
v -0.5 -1.5202630789259242 0.15783683104962939
v 1.0489085996597789 0.20000000000000021 0.087379945962575659
v 1 0.14379503011883507 0.089868695783363109
v -1.5356979236337926 -1.2999999999999998 0.013073228400282803
v -0.48739971296015089 0.15519134648865993 -0.075340756934028988
v -0.5 0.1443365265406438 -0.075207113715690138
v 1.0999999999999999 0.25871340903816992 0.08478012273465621
v -1.1466658452816834 -1.6731922481488846 0.10811367175985868
v -1.1687720150738135 -1.6651813224562988 0.10456046348576237
v -1.5383149029602077 -1.293971745715929 0.011941405074607244
v -1.5469724114667296 -1.2682536160958386 0.0073885409920771868
v 1.076750464214429 1.3135566737387014 -0.065455383259831024
v 1.02 1.3090216781524013 -0.071063034941336187
v 1.1000000000000003 1.3142792913458861 -0.062999100788424051
v -1.0807932503892121 -1.6900026531370766 0.11771311389637744
v -1.0881302756215727 -1.6881302756215726 0.11664390826864718
v -1.1000000000000001 -1.6851011726353413 0.11491416416894781
v -0.29999999999999982 -1.3090018298366122 0.15026025617712577
v -0.32229120636841541 -1.3327524000594451 0.15113330330779665
v -1.0458302045122467 -1.6979402231928116 0.1226703087506465
v -1.5701492227722826 -1.1735743369505136 -0.0084160073318791748
v -1.569226527337874 -1.1794215363345022 -0.0074959029203358323
v -1.5651933115548065 -1.197425344040115 -0.0045317161054126229
v 1.1257444040360849 0.28829846081888238 0.083470099929325803
v 1.1352584076431418 0.30000000000000021 0.082878424840745563
v -1.2999999999999998 -1.5983791837505046 0.080773085725070679
v -1.2996865900571253 -1.598585762778582 0.080836481882717692
v -1.3224885062917866 -1.5835562533416589 0.076224139775735736
v -0.34028309812951618 0.27868147184825948 -0.076446546853003117
v -1.5747237552508473 -1.1000000000000001 -0.019219613077593171
v 1.1863387668198553 0.36282516267373888 0.079701741575860657
v 1.2000000000000002 0.37962749552142461 0.078852150627000586
v -0.29999999999999988 0.31249522458865459 -0.076749331442411625
v -1.5753777961102255 -1.0894807561662747 -0.020764251708846333
v -0.29155129141327357 -1.2999999999999998 0.1499293579445399
v -1.2972731642461068 -1.6000000000000001 0.081299951932928258
v -1.2385027164808105 -1.6344387444476782 0.092586125409785794
v 1.1171736232984357 1.3148130638344664 -0.061184730373997388
v 1.2000000000000002 1.3022564615829662 -0.050315904621615261
v -1.5755265615571883 -1.0612120960056701 -0.024738228330496867
v -0.29034484502276126 -1.2987145698063902 0.14988210682039091
v 1.2165639817201757 0.40000000000000036 0.077822037989219287
v -1.5665527347641708 -0.96789614100096955 -0.036815341083923044
v -1.2 -1.6514136599593747 0.099197912394312485
v -0.19999999999999996 -1.1997158455556471 0.14596021837779061
v -1.5611985628812737 -0.94269595620788893 -0.03975440804783565
v -1.5646563952424688 -0.95714543397701168 -0.038111842719889905
v -0.21025988471270526 0.38782334506893407 -0.077423855628048349
v -0.19999999999999996 0.39630129523998892 -0.077482181333598452
v 1.2978695557972089 0.5 0.072765651137692997
v 1.3030449857108166 1.2606513511062885 -0.033156240726690545
v 1.2291681341080203 1.2930634968667583 -0.045820394809463892
v -1.5413783608802458 -0.87692732612031021 -0.046781794039983622
v 1.2123443149787538 1.3003085231195526 -0.048685318589074454
v -0.18559026674128332 -1.183925844376863 0.1453346888712197
v -0.10900072014846274 -1.1000000000000001 0.14200992078366914
v -1.5107479356040483 -0.79999999999999993 -0.054182272916445333
v -1.5194202977884712 -0.81906225711238934 -0.052467516760997326
v -0.099999999999999881 -1.0901371261214596 0.14161919765700437
v 1.4776518602162716 1.0554532712175053 0.014778246653339119
v 1.4387714602662283 1.1275557575334922 0.00040705457459619279
v -1.5086650198680513 -0.79542165393249653 -0.054594120634936127
v -0.1955238844699024 0.40000000000000036 -0.077507627291689321
v 1.2113912049270241 1.3005295379249469 -0.0488211027675199
v -0.099999999999999867 0.47893331702631747 -0.078050664383684437
v 0 -0.98055840668727234 0.13727817693621816
v -1.4486524753689529 -1.4582386740520294 0.044801642076699323
v -0.074505424751487623 0.5 -0.078195596722663643
v 1.4000000000000006 0.62575765639630787 0.066393928104516942
v 1.3987882410294039 0.62412271406703168 0.066489526543850014
v -0 0.56156533881264581 -0.078619147433770409
v -1.4630041947668366 -1.4403397484712703 0.040717103361625824
v -1.4725076215134458 -1.4254665074412884 0.037589472675301376
v 1.3926933201821172 1.1873337475338965 -0.013030459434712644
v 1.4000000000000004 1.1778546619568253 -0.010899652673955486
v -0.59607876756365563 -1.6000000000000001 0.15843133556799791
v -0.58598844388704374 -1.5922874437557675 0.15846151329823263
v -0.59617161808851149 -1.6000709704582539 0.1584310578744193
v 1.3790351311159312 1.2018959141849204 -0.01657156356313641
v 0.085627876160483174 0.63232138409674665 -0.079105927395891396
v -1.4966973880250811 -0.77336935750798097 -0.056365002631641604
v -1.4637540792087447 -0.72102353685258702 -0.060069653553599701
v -1.4476134216729324 -0.70000000000000007 -0.06123747638402257
v 0.16477506546854226 -0.79999999999999982 0.13012525720153964
v -0.59999999999999987 -1.602418472715772 0.1583385861802081
v -0.60229912799284979 -1.6038282610488908 0.15828305246763125
v 1.3207823516762984 1.24793715691104 -0.029425143283152794
v 1.3056794428021039 1.2592090034577517 -0.032664521775853793
v -1.4065220455648695 -0.64647764144585607 -0.064210555209715775
v -0.6886954763109524 -1.6488852511178711 0.15508743276229719
v 1.4532116337723211 0.69755242299209297 0.062195940496062294
v 0.82518175417000161 1.2220147074317973 -0.08031206608175144
v 0.89115083430249431 1.2636296316344418 -0.078881556655547497
v 0.25603366067421041 -0.69999999999999996 0.12616370267416316
v -1.3420945833073745 -1.567245123992296 0.071783913195110266
v 1.4657931722328343 0.72216765304826491 0.060133777518854709
v 1.4598281441907386 0.70817125768133393 0.061437119785594498
v -1.3999462630262036 -0.63862003755400187 -0.064587283675322141
v -1.3955758553872504 -1.5184202550177857 0.059065491609892502
v 1.4900705984559275 0.79158586010394083 0.053085745415600329
v 0.28771576874399191 0.79783914008518164 -0.080048745050086328
v 0.23124531939025855 0.75264802151106913 -0.07993373787862125
v 1.4988305027648892 0.8284698698422841 0.04888557352621805
v 1.4999999999999998 0.84060597040852536 0.047315164142806447
v 1.5051921348931547 0.89448576535378299 0.040343127688717409
v 0.34729225587987872 -0.59999999999999987 0.12220214814678665
v 1.4999999999999998 0.96073117863187041 0.030497634991538135
v -1.3952267291333706 -0.63402470192150651 -0.064711481935659843
v -1.3612849718640607 -0.60383902864685834 -0.065203882894486517
v -1.356909499131687 -0.59999999999999976 -0.065260044904485587
v 1.492560992696653 1 0.024181709196631828
v 0.4000000000000003 -0.5422435289505223 0.11991409405307317
v 0.40000000000000036 0.88769587164593189 -0.080277422030430451
v -1.2999999999999998 -0.55006775020481291 -0.065990514971326172
v 0.43855085108554687 -0.5 0.11824059361941015
v 1.4861932854350599 1.0336136730054737 0.018775347177090247
v 1.4830720892192417 1.0440233076724097 0.016974666739979223
v 0.46501752511199462 -0.4709981575249978 0.1170916698158191
v 0.5 -0.43079686447783866 0.11531156102689741
v 0.4153751373938836 0.90000000000000036 -0.080308734886672867
v 0.47158513855332346 0.94498269194805573 -0.080423211631862251
v 0.5 0.96724485733257304 -0.080414280026560245
v -1.2429360664000966 -0.5 -0.06672296730401063
v 1.5050036198741832 0.90000000000000047 0.039550398186160095
v -1.2 -0.46232800454364514 -0.067274079363889697
v 0.60000000000000009 -0.31587848555850384 0.11022298797819055
v 0.54180783066180782 1 -0.080401138627201135
v 1.5035720320735881 0.9418752367435167 0.033530390384002323
v 0.60000000000000009 1.0455917654330913 -0.080382847160632778
v 0.61381718547356967 -0.29999999999999982 0.10951989040209265
v -1.1000000000000001 -0.37458825888247727 -0.068557643756453179
v -1.0008532778802421 -1.7008532778802421 0.12802559833640725
v -1.0200755650537754 -1.7 0.12579168784408473
v 0.70083546831081134 -0.19999999999999996 0.10509190151418925
v 0.78785375114805334 -0.099999999999999867 0.10066391262628586
v 0.71590545751229884 -0.18268181270633169 0.10432505410523932
v -1.0348744198075626 -1.6993430784120365 0.12407184479885326
v -1.014989200936915 -0.29999999999999988 -0.069648812103060675
v -1.0268511005546002 -0.31040760055513972 -0.069496556983286426
v 0.87487203398529501 0 0.096235923738382467
v 0.90000000000000047 0.028876651199500745 0.094957268832069952
v -0.78134479025275339 -1.6813447902527534 0.14944034370758263
v -0.7907630697118313 -1.6844325290340336 0.14883661639646326
v -0.71931641488312204 -1.661009078087831 0.15341646529515293
v 0.90000000000000036 1.2681565808379485 -0.078541921317312774
v -0.90470306109936083 -1.7024380201939588 0.13882398610622457
v -0.93248001483991971 -1.7038883689922206 0.13597157002651974
v -0.69999999999999984 -1.653361080258797 0.1544705512362316
v -0.97186354461603841 -0.26216165882935327 -0.070202357671654753
v -0.88713176815109696 -1.7000000000000002 0.14041550550337936
v -0.81729686647941702 -1.6903103942880013 0.14674079988758432
v -0.79999999999999982 -1.6864787281539604 0.14810702194155448
v 0.92270004488293633 1.2797691953617489 -0.077670682413521874
v -0.89970622207415907 -0.19999999999999996 -0.070967684428157499
v -0.86643199102274193 -0.17133511436449428 -0.071320603001472402
v -0.79999999999999982 -0.11410567990323599 -0.072025204813546947
v -0.7836261111170717 -0.099999999999999853 -0.072198872222877908
v -0.69999999999999996 -0.02795827775527612 -0.073085841114261335
v -0.66754600015998478 -0 -0.073430060017598331
v -0.59999999999999987 0.058189124392683943 -0.074146477414975737
f 41 66 42
f 69 70 45
f 45 70 46
f 71 72 47
f 47 72 48
f 73 74 49
f 49 74 50
f 114 115 91
f 116 117 92
f 92 117 93
f 118 119 94
f 94 119 95
f 120 121 96
f 96 121 97
f 138 156 139
f 157 158 140
f 140 158 141
f 142 159 143
f 160 161 144
f 144 161 145
f 164 165 148
f 148 165 149
f 169 170 153
f 171 172 154
f 154 172 155
f 201 202 185
f 185 202 186
f 206 207 191
f 191 207 192
f 230 231 216
f 216 231 217
f 231 232 217
f 218 233 219
f 234 235 220
f 220 235 221
f 256 257 242
f 242 257 243
f 268 269 253
f 272 273 256
f 256 273 257
f 273 274 257
f 257 274 258
f 289 290 273
f 273 290 274
f 284 299 285
f 302 304 303
f 304 305 303
f 324 325 308
f 308 325 309
f 325 326 309
f 309 326 310
f 327 340 328
f 340 341 328
f 328 341 329
f 330 342 331
f 343 344 332
f 332 344 333
f 344 345 333
f 335 347 336
f 351 352 348
f 366 367 351
f 351 367 352
f 367 368 352
f 371 372 353
f 408 409 389
f 389 409 390
f 409 410 390
f 390 410 391
f 398 418 399
f 418 419 399
f 400 420 401
f 421 422 402
f 423 424 403
f 403 424 404
f 424 425 404
f 405 426 406
f 427 428 407
f 408 429 409
f 429 430 409
f 409 430 410
f 414 434 415
f 423 437 424
f 437 438 424
f 424 438 425
f 462 463 440
f 440 463 441
f 463 464 441
f 441 464 442
f 464 465 442
f 442 465 443
f 466 467 444
f 444 467 445
f 467 468 445
f 445 468 446
f 469 470 447
f 447 470 448
f 484 486 485
f 500 501 487
f 513 514 489
f 489 514 490
f 514 515 490
f 490 515 491
f 515 516 491
f 491 516 492
f 517 518 493
f 493 518 494
f 518 519 494
f 494 519 495
f 520 521 496
f 496 521 497
f 522 523 498
f 498 523 499
f 524 525 500
f 500 525 501
f 411 679 674
f 278 731 728
f 721 735 262
f 737 740 279
f 315 784 778
f 785 792 316
f 786 795 131
f 794 799 334
f 688 689 165
f 369 813 812
f 828 829 187
f 830 831 203
f 547 575 568
f 568 589 547
f 615 618 607
f 604 617 615
f 604 615 544
f 544 615 607
f 569 575 547
f 568 575 572
f 572 576 570
f 542 572 570
f 568 572 542
f 639 654 646
f 650 654 639
f 650 657 654
f 584 591 588
f 558 618 615
f 615 617 558
f 612 633 544
f 544 633 604
f 563 635 633
f 633 635 604
f 572 575 548
f 548 576 572
f 541 571 565
f 556 618 609
f 607 618 556
f 609 618 616
f 616 618 558
f 554 610 601
f 556 610 607
f 602 614 554
f 612 614 557
f 613 614 602
f 557 614 613
f 544 607 600
f 607 610 600
f 600 610 554
f 600 612 544
f 600 614 612
f 554 614 600
f 542 570 566
f 596 597 590
f 654 656 646
f 557 636 612
f 633 636 563
f 612 636 633
f 605 617 555
f 555 617 604
f 604 635 555
f 579 625 543
f 579 627 625
f 625 627 562
f 546 573 569
f 548 573 571
f 571 573 565
f 565 573 546
f 573 575 569
f 548 575 573
f 599 602 554
f 554 601 599
f 564 601 546
f 599 601 564
f 540 599 564
f 546 569 564
f 567 569 547
f 564 569 567
f 564 567 540
f 577 602 599
f 577 599 540
f 574 576 548
f 571 574 548
f 565 606 541
f 556 609 606
f 606 609 598
f 541 606 598
f 578 594 592
f 578 592 543
f 642 657 650
f 566 580 542
f 552 591 589
f 590 597 552
f 552 597 588
f 588 591 552
f 656 658 653
f 647 649 640
f 640 651 647
f 651 662 642
f 642 662 657
f 563 637 635
f 581 596 550
f 550 596 590
f 550 590 580
f 636 638 563
f 626 638 562
f 555 635 622
f 635 637 622
f 627 629 562
f 619 629 559
f 626 629 619
f 562 629 626
f 589 591 585
f 547 589 585
f 547 585 567
f 606 608 556
f 601 610 608
f 608 610 556
f 601 608 546
f 546 608 565
f 565 608 606
f 549 594 578
f 586 594 549
f 577 586 549
f 578 613 549
f 549 613 602
f 549 602 577
f 543 625 611
f 543 611 578
f 611 613 578
f 557 613 611
f 592 594 553
f 542 587 568
f 580 587 542
f 580 590 587
f 587 589 568
f 552 589 587
f 587 590 552
f 641 656 653
f 641 653 645
f 646 656 641
f 641 666 646
f 665 666 641
f 645 665 641
f 662 664 657
f 640 659 651
f 659 662 651
f 603 605 555
f 555 622 603
f 603 622 620
f 580 582 550
f 566 582 580
f 634 637 563
f 563 638 634
f 634 638 626
f 619 624 623
f 561 632 623
f 665 667 666
f 551 591 584
f 585 591 551
f 628 636 557
f 611 628 557
f 628 638 636
f 625 628 611
f 562 628 625
f 562 638 628
f 553 595 593
f 551 595 586
f 586 595 594
f 594 595 553
f 593 595 584
f 584 595 551
f 644 663 660
f 660 664 644
f 661 663 644
f 644 664 662
f 659 661 644
f 644 662 659
f 643 658 656
f 657 664 643
f 654 657 643
f 643 656 654
f 652 658 655
f 655 658 643
f 643 664 655
f 655 664 660
f 648 661 659
f 648 659 640
f 583 585 551
f 567 583 540
f 567 585 583
f 551 586 583
f 540 583 577
f 583 586 577
f 620 622 560
f 622 637 560
f 621 631 560
f 621 637 634
f 560 637 621
f 619 623 545
f 545 634 626
f 545 626 619
f 621 634 545
f 623 632 630
f 630 631 621
f 623 630 545
f 545 630 621
f 588 647 584
f 588 649 647
f 639 646 579
f 543 639 579
f 646 666 579
f 579 666 627
f 592 639 543
f 592 650 639
f 553 650 592
f 642 650 553
f 593 651 553
f 553 651 642
f 666 667 627
f 627 667 629
f 629 667 559
f 687 692 574
f 693 694 605
f 663 789 732
f 616 745 744
f 788 789 663
f 718 719 620
f 632 780 770
f 652 760 723
f 759 760 652
f 694 695 605
f 576 819 818
f 692 809 574
f 598 767 700
f 684 685 645
f 632 781 780
f 2 1 26
f 2 26 27
f 222 236 237
f 223 222 237
f 593 584 647
f 651 593 647
f 454 455 431
f 714 704 431
f 714 431 455
f 454 431 430
f 224 223 237
f 224 237 238
f 433 432 458
f 457 458 432
f 225 224 238
f 225 238 239
f 673 668 581
f 550 673 581
f 672 673 550
f 458 459 434
f 435 434 459
f 458 434 433
f 681 571 541
f 680 571 681
f 226 225 239
f 226 239 240
f 537 539 538
f 537 538 536
f 459 460 436
f 459 436 435
f 227 226 240
f 227 240 241
f 2 27 28
f 3 2 28
f 680 689 571
f 574 571 687
f 688 687 571
f 689 688 571
f 438 437 447
f 438 447 448
f 242 243 229
f 242 229 228
f 4 3 28
f 4 28 29
f 598 698 699
f 700 698 598
f 243 244 230
f 243 230 229
f 722 455 456
f 714 455 722
f 5 4 29
f 5 29 30
f 541 598 708
f 699 708 598
f 709 541 708
f 244 245 231
f 244 231 230
f 6 5 30
f 6 30 31
f 742 722 456
f 741 742 456
f 245 246 232
f 245 232 231
f 681 541 716
f 709 716 541
f 7 6 31
f 7 31 32
f 723 724 652
f 33 7 32
f 8 7 33
f 658 652 724
f 726 658 724
f 246 691 668
f 246 690 691
f 673 232 668
f 246 668 232
f 9 8 33
f 9 33 34
f 732 660 663
f 733 660 732
f 10 9 34
f 10 34 35
f 701 247 234
f 701 234 233
f 705 247 701
f 677 701 233
f 678 677 233
f 603 702 605
f 702 693 605
f 706 702 603
f 760 759 457
f 723 760 457
f 751 457 759
f 746 457 751
f 747 457 746
f 724 723 457
f 432 726 724
f 432 736 726
f 432 724 457
f 711 736 432
f 11 10 35
f 11 35 36
f 712 706 603
f 247 248 235
f 247 235 234
f 12 11 36
f 12 36 37
f 440 439 461
f 440 461 462
f 715 603 620
f 712 603 715
f 236 235 249
f 248 249 235
f 12 37 38
f 13 12 38
f 582 748 749
f 750 748 582
f 444 443 465
f 444 465 466
f 249 250 237
f 249 237 236
f 14 13 38
f 14 38 39
f 582 749 550
f 672 550 749
f 447 446 468
f 447 468 469
f 250 251 238
f 250 238 237
f 15 14 39
f 15 39 40
f 758 757 582
f 750 582 757
f 449 448 470
f 449 470 471
f 251 252 239
f 251 239 238
f 566 758 582
f 762 758 566
f 16 15 40
f 16 40 41
f 450 449 471
f 450 471 472
f 240 239 253
f 240 253 254
f 252 253 239
f 667 665 765
f 764 667 765
f 17 16 41
f 17 41 42
f 770 761 632
f 451 450 472
f 451 472 473
f 254 255 241
f 254 241 240
f 18 17 42
f 18 42 43
f 452 451 473
f 452 473 474
f 244 243 257
f 244 257 258
f 648 776 661
f 661 776 777
f 775 776 648
f 19 18 43
f 19 43 44
f 452 474 475
f 453 452 475
f 769 768 640
f 648 640 768
f 245 244 258
f 245 258 259
f 45 19 44
f 20 19 45
f 772 775 648
f 454 453 475
f 454 475 476
f 768 772 648
f 245 259 260
f 246 245 260
f 21 20 45
f 21 45 46
f 477 454 476
f 455 454 477
f 746 660 747
f 733 747 660
f 690 246 260
f 690 260 261
f 707 690 261
f 22 21 46
f 22 46 47
f 456 455 477
f 456 477 478
f 751 759 655
f 652 655 759
f 247 262 263
f 248 247 263
f 23 22 47
f 23 47 48
f 746 751 655
f 660 746 655
f 249 248 263
f 249 263 264
f 24 23 48
f 24 48 49
f 661 783 663
f 663 783 788
f 779 783 661
f 800 779 661
f 250 249 264
f 250 264 265
f 25 24 49
f 25 49 50
f 741 456 478
f 763 741 478
f 769 763 478
f 768 769 478
f 772 768 478
f 775 772 478
f 776 775 478
f 605 695 617
f 695 683 617
f 26 51 52
f 27 26 52
f 251 250 265
f 251 265 266
f 558 617 683
f 682 558 683
f 28 27 52
f 28 52 53
f 252 251 266
f 252 266 267
f 777 796 661
f 800 661 796
f 480 747 733
f 480 733 732
f 480 732 789
f 480 789 479
f 783 479 788
f 479 789 788
f 457 747 480
f 29 28 53
f 29 53 54
f 252 267 268
f 253 252 268
f 682 676 558
f 676 671 558
f 458 457 480
f 458 480 481
f 254 253 269
f 254 269 270
f 30 29 54
f 30 54 55
f 558 745 616
f 671 745 558
f 459 458 481
f 459 481 482
f 255 254 270
f 255 270 271
f 31 30 55
f 31 55 56
f 753 734 631
f 460 459 482
f 460 482 483
f 259 258 274
f 259 274 275
f 631 729 730
f 734 729 631
f 57 31 56
f 32 31 57
f 744 739 616
f 488 489 462
f 488 462 461
f 260 259 275
f 260 275 276
f 33 32 57
f 33 57 58
f 719 715 620
f 277 260 276
f 261 260 277
f 771 609 616
f 771 616 739
f 33 58 59
f 34 33 59
f 489 490 463
f 489 463 462
f 35 34 59
f 35 59 60
f 490 491 464
f 490 464 463
f 566 570 814
f 815 814 570
f 816 566 814
f 717 261 277
f 727 277 278
f 728 727 278
f 717 277 727
f 35 60 61
f 36 35 61
f 491 492 465
f 491 465 464
f 762 566 820
f 816 820 566
f 737 279 263
f 735 263 262
f 737 263 735
f 37 36 61
f 37 61 62
f 492 493 466
f 492 466 465
f 620 560 718
f 725 718 560
f 264 263 279
f 264 279 280
f 38 37 62
f 38 62 63
f 649 741 763
f 742 741 649
f 494 495 467
f 495 468 467
f 493 494 467
f 493 467 466
f 265 264 280
f 265 280 281
f 730 560 631
f 725 560 730
f 38 63 64
f 39 38 64
f 495 496 469
f 495 469 468
f 266 265 281
f 266 281 282
f 40 39 64
f 40 64 65
f 630 632 761
f 755 630 761
f 754 630 755
f 496 497 470
f 496 470 469
f 41 40 65
f 66 41 65
f 266 282 283
f 267 266 283
f 631 630 753
f 754 753 630
f 497 498 484
f 471 470 484
f 497 484 470
f 268 267 283
f 284 268 283
f 42 66 67
f 43 42 67
f 570 576 822
f 823 570 822
f 818 822 576
f 472 471 484
f 472 484 485
f 269 268 284
f 285 269 284
f 44 43 67
f 44 67 68
f 815 570 824
f 823 824 570
f 473 472 485
f 487 473 485
f 270 269 285
f 270 285 286
f 45 44 68
f 45 68 69
f 487 474 473
f 501 474 487
f 270 286 287
f 271 270 287
f 804 819 576
f 804 576 574
f 805 804 574
f 809 805 574
f 47 46 70
f 47 70 71
f 501 502 475
f 501 475 474
f 273 272 288
f 273 288 289
f 49 48 72
f 49 72 73
f 503 476 475
f 502 503 475
f 274 290 291
f 275 274 291
f 52 51 75
f 52 75 76
f 503 504 477
f 503 477 476
f 276 275 291
f 276 291 292
f 53 52 76
f 53 76 77
f 505 478 477
f 504 505 477
f 293 276 292
f 277 276 293
f 597 679 696
f 674 679 597
f 675 674 597
f 813 675 597
f 812 813 597
f 807 812 597
f 808 807 597
f 54 53 77
f 54 77 78
f 278 277 293
f 278 293 294
f 767 598 609
f 767 609 771
f 506 777 776
f 505 506 776
f 506 796 777
f 505 776 478
f 55 54 78
f 55 78 79
f 653 658 736
f 726 736 658
f 507 508 480
f 507 480 479
f 738 731 294
f 731 278 294
f 56 55 79
f 56 79 80
f 765 665 817
f 825 817 665
f 508 509 481
f 508 481 480
f 57 56 80
f 57 80 81
f 743 280 279
f 743 295 280
f 743 279 740
f 670 825 665
f 670 665 645
f 509 510 482
f 509 482 481
f 58 57 81
f 58 81 82
f 281 280 295
f 281 295 296
f 510 511 483
f 510 483 482
f 59 58 82
f 59 82 83
f 282 281 296
f 282 296 297
f 498 499 486
f 498 486 484
f 59 83 84
f 60 59 84
f 500 487 486
f 487 485 486
f 283 282 297
f 283 297 298
f 597 596 790
f 791 597 790
f 798 597 791
f 802 597 798
f 806 597 802
f 808 597 806
f 61 60 84
f 61 84 85
f 284 283 298
f 299 284 298
f 507 479 800
f 479 779 800
f 506 507 800
f 506 800 796
f 645 669 670
f 685 669 645
f 62 61 85
f 62 85 86
f 285 299 300
f 286 285 300
f 500 486 499
f 63 62 86
f 63 86 87
f 588 697 703
f 696 697 588
f 597 696 588
f 287 286 300
f 287 300 301
f 489 488 512
f 489 512 513
f 64 63 87
f 64 87 88
f 736 711 653
f 710 653 711
f 306 307 289
f 306 289 288
f 493 492 516
f 493 516 517
f 64 88 89
f 65 64 89
f 645 653 684
f 686 684 653
f 710 686 653
f 496 495 519
f 496 519 520
f 307 308 302
f 290 289 302
f 307 302 289
f 66 65 89
f 90 66 89
f 67 66 90
f 497 521 522
f 498 497 522
f 291 290 302
f 291 302 303
f 67 90 91
f 68 67 91
f 500 499 523
f 500 523 524
f 649 588 703
f 742 649 722
f 704 649 703
f 714 649 704
f 722 649 714
f 292 291 303
f 292 303 305
f 69 68 91
f 69 91 92
f 640 649 763
f 769 640 763
f 501 525 526
f 502 501 526
f 305 311 293
f 305 293 292
f 310 311 305
f 69 92 93
f 70 69 93
f 503 502 526
f 503 526 527
f 311 312 294
f 311 294 293
f 71 70 93
f 71 93 94
f 528 503 527
f 504 503 528
f 72 71 94
f 72 94 95
f 312 756 738
f 312 313 756
f 312 738 294
f 505 504 528
f 505 528 529
f 73 72 95
f 73 95 96
f 506 505 529
f 506 529 530
f 74 73 96
f 74 96 97
f 596 581 727
f 728 596 727
f 731 596 728
f 738 596 731
f 756 596 738
f 766 596 756
f 778 596 766
f 784 596 778
f 787 596 784
f 790 596 787
f 507 506 530
f 507 530 531
f 774 295 752
f 316 295 773
f 785 316 773
f 774 773 295
f 743 752 295
f 76 75 98
f 76 98 99
f 508 507 531
f 508 531 532
f 581 717 727
f 713 717 581
f 316 317 296
f 316 296 295
f 77 76 99
f 77 99 100
f 668 691 581
f 509 508 532
f 509 532 533
f 317 318 297
f 317 297 296
f 78 77 100
f 78 100 101
f 510 509 533
f 510 533 534
f 581 707 713
f 690 707 581
f 691 690 581
f 319 298 297
f 318 319 297
f 79 78 101
f 79 101 102
f 511 510 534
f 511 534 535
f 319 320 299
f 320 300 299
f 319 299 298
f 80 79 102
f 80 102 103
f 785 773 559
f 792 785 559
f 793 792 559
f 321 301 300
f 320 321 300
f 81 80 103
f 81 103 104
f 773 774 559
f 619 559 774
f 308 309 304
f 308 304 302
f 82 81 104
f 82 104 105
f 774 752 619
f 624 619 752
f 305 304 310
f 309 310 304
f 82 105 106
f 83 82 106
f 313 314 766
f 313 766 756
f 84 83 106
f 84 106 107
f 778 314 315
f 766 314 778
f 85 84 107
f 85 107 108
f 735 721 624
f 720 624 721
f 737 735 624
f 740 737 624
f 740 624 743
f 743 624 752
f 307 306 322
f 307 322 323
f 86 85 108
f 86 108 109
f 705 701 624
f 705 624 720
f 86 109 110
f 87 86 110
f 308 307 323
f 308 323 324
f 26 1 536
f 51 26 536
f 75 51 536
f 98 75 536
f 126 98 536
f 146 126 536
f 162 146 536
f 183 162 536
f 199 183 536
f 214 199 536
f 228 214 536
f 242 228 536
f 538 256 242
f 538 272 256
f 538 288 272
f 538 306 288
f 538 322 306
f 538 354 322
f 538 376 354
f 538 439 376
f 538 461 439
f 538 488 461
f 538 242 536
f 512 488 538
f 701 677 624
f 623 624 677
f 88 87 110
f 88 110 111
f 327 310 326
f 311 310 327
f 89 88 111
f 89 111 112
f 311 327 328
f 312 311 328
f 312 328 329
f 113 89 112
f 90 89 113
f 313 312 329
f 313 329 330
f 91 90 113
f 91 113 114
f 314 313 330
f 314 330 331
f 832 831 623
f 830 623 831
f 832 623 678
f 829 623 830
f 828 623 829
f 827 623 828
f 561 623 827
f 678 623 677
f 92 91 115
f 92 115 116
f 315 314 331
f 315 331 332
f 821 561 826
f 826 561 827
f 94 93 117
f 94 117 118
f 784 315 332
f 787 784 332
f 787 332 333
f 96 95 119
f 96 119 120
f 513 512 538
f 514 513 538
f 515 514 538
f 516 515 538
f 517 516 538
f 518 517 538
f 519 518 538
f 520 519 538
f 521 520 538
f 522 521 538
f 523 522 538
f 524 523 538
f 525 524 538
f 526 525 538
f 527 526 538
f 528 527 538
f 539 529 528
f 539 530 529
f 539 531 530
f 539 532 531
f 539 533 532
f 539 534 533
f 539 528 538
f 535 534 539
f 793 334 317
f 792 793 317
f 792 317 316
f 794 334 793
f 126 127 99
f 126 99 98
f 559 667 793
f 794 793 667
f 799 794 667
f 801 799 667
f 764 801 667
f 127 128 100
f 127 100 99
f 335 317 334
f 318 317 335
f 318 335 336
f 811 561 810
f 810 561 821
f 128 129 101
f 128 101 100
f 319 318 336
f 319 336 337
f 129 130 102
f 129 102 101
f 338 319 337
f 320 319 338
f 321 320 338
f 321 338 339
f 803 797 561
f 811 803 561
f 795 561 797
f 786 561 795
f 782 561 786
f 781 561 782
f 632 561 781
f 355 323 322
f 354 355 322
f 355 356 324
f 355 324 323
f 767 771 102
f 671 102 745
f 103 102 671
f 676 103 671
f 744 745 102
f 739 744 102
f 771 739 102
f 700 767 102
f 130 700 102
f 698 700 130
f 356 357 325
f 356 325 324
f 358 326 325
f 357 358 325
f 483 511 539
f 511 535 539
f 460 483 539
f 436 460 539
f 417 436 539
f 397 417 539
f 375 397 539
f 339 375 539
f 321 339 539
f 301 321 539
f 287 301 539
f 271 287 539
f 255 271 539
f 537 241 255
f 537 227 241
f 537 213 227
f 537 198 213
f 537 178 198
f 537 161 178
f 537 145 161
f 537 121 145
f 537 97 121
f 537 74 97
f 537 50 74
f 537 255 539
f 25 50 537
f 358 359 327
f 358 327 326
f 753 106 105
f 753 105 734
f 754 106 753
f 755 106 754
f 729 734 105
f 359 360 340
f 359 340 327
f 330 329 341
f 362 330 341
f 361 362 341
f 755 761 107
f 755 107 106
f 770 107 761
f 780 107 770
f 781 107 780
f 782 107 781
f 362 363 342
f 362 342 330
f 332 331 342
f 332 342 343
f 782 131 108
f 782 108 107
f 786 131 782
f 801 335 334
f 801 346 335
f 801 334 799
f 131 132 109
f 131 109 108
f 335 346 347
f 349 347 346
f 132 133 110
f 132 110 109
f 337 336 347
f 337 347 350
f 134 111 110
f 133 134 110
f 373 374 338
f 350 373 338
f 350 338 337
f 135 112 111
f 134 135 111
f 374 375 339
f 374 339 338
f 135 136 113
f 135 113 112
f 24 25 537
f 23 24 537
f 22 23 537
f 21 22 537
f 20 21 537
f 19 20 537
f 536 18 19
f 536 17 18
f 536 16 17
f 536 15 16
f 536 14 15
f 536 13 14
f 536 12 13
f 536 11 12
f 536 10 11
f 536 9 10
f 536 8 9
f 536 7 8
f 536 6 7
f 536 5 6
f 536 4 5
f 536 3 4
f 536 2 3
f 536 19 537
f 1 2 536
f 360 361 341
f 360 341 340
f 137 114 113
f 136 137 113
f 363 364 343
f 363 343 342
f 124 122 114
f 137 124 114
f 138 124 137
f 364 365 344
f 364 344 343
f 115 114 122
f 123 115 122
f 365 366 351
f 365 351 344
f 103 676 682
f 683 103 682
f 695 103 683
f 694 103 695
f 693 103 694
f 104 103 693
f 702 104 693
f 351 348 345
f 351 345 344
f 125 140 123
f 116 115 123
f 140 116 123
f 125 139 140
f 140 141 117
f 140 117 116
f 684 412 392
f 684 392 685
f 686 412 684
f 669 685 392
f 765 370 349
f 764 349 346
f 765 349 764
f 817 370 765
f 801 764 346
f 141 142 118
f 141 118 117
f 347 349 350
f 353 350 349
f 696 431 697
f 411 431 696
f 679 411 696
f 370 371 353
f 370 353 349
f 142 143 119
f 142 119 118
f 373 350 353
f 373 353 372
f 143 144 120
f 143 120 119
f 703 431 704
f 697 431 703
f 144 145 121
f 144 121 120
f 807 808 352
f 806 352 808
f 807 352 368
f 123 122 124
f 123 124 125
f 812 368 369
f 807 368 812
f 125 124 138
f 139 125 138
f 355 354 376
f 355 376 377
f 127 126 146
f 127 146 147
f 104 702 706
f 712 104 706
f 715 104 712
f 105 104 715
f 105 715 719
f 105 719 718
f 105 718 725
f 730 105 725
f 729 105 730
f 356 355 377
f 356 377 378
f 127 147 148
f 128 127 148
f 356 378 379
f 357 356 379
f 412 710 432
f 711 432 710
f 686 710 412
f 129 128 148
f 129 148 149
f 358 357 379
f 358 379 380
f 797 132 131
f 797 150 132
f 797 131 795
f 717 713 261
f 707 261 713
f 359 358 380
f 359 380 381
f 133 132 150
f 133 150 151
f 360 359 381
f 360 381 382
f 247 720 262
f 721 262 720
f 705 720 247
f 134 133 151
f 134 151 152
f 361 360 382
f 361 382 383
f 783 779 479
f 135 134 152
f 135 152 153
f 384 361 383
f 362 361 384
f 170 135 153
f 136 135 170
f 171 154 170
f 136 170 154
f 363 362 384
f 363 384 385
f 709 129 149
f 709 149 716
f 708 129 709
f 130 129 708
f 137 136 154
f 137 154 155
f 364 363 385
f 364 385 386
f 790 333 791
f 787 333 790
f 138 137 155
f 156 138 155
f 140 139 156
f 140 156 157
f 364 386 387
f 365 364 387
f 699 130 708
f 698 130 699
f 142 141 158
f 142 158 175
f 174 175 158
f 333 345 791
f 798 791 345
f 175 176 159
f 175 159 142
f 144 143 159
f 144 159 160
f 147 146 162
f 147 162 163
f 366 365 387
f 366 387 388
f 148 147 163
f 148 163 164
f 367 366 388
f 367 388 389
f 149 165 680
f 689 680 165
f 681 149 680
f 716 149 681
f 803 166 150
f 803 150 797
f 368 367 389
f 368 389 390
f 345 348 798
f 802 798 348
f 806 802 348
f 806 348 352
f 369 368 390
f 369 390 391
f 151 150 166
f 151 166 167
f 164 804 805
f 165 164 805
f 813 369 391
f 675 813 391
f 152 151 167
f 152 167 168
f 165 805 809
f 692 165 809
f 687 165 692
f 688 165 687
f 153 152 168
f 153 168 169
f 670 392 370
f 670 370 825
f 669 392 670
f 817 825 370
f 156 155 172
f 173 156 172
f 157 156 173
f 166 803 811
f 810 166 811
f 371 370 392
f 371 392 393
f 158 157 173
f 158 173 174
f 372 371 393
f 372 393 394
f 177 159 176
f 160 159 177
f 823 186 824
f 822 186 823
f 373 372 394
f 373 394 395
f 161 160 177
f 161 177 178
f 374 373 395
f 374 395 396
f 186 202 814
f 816 814 202
f 820 816 202
f 184 163 162
f 183 184 162
f 375 374 396
f 375 396 397
f 184 185 164
f 184 164 163
f 186 814 815
f 824 186 815
f 439 440 398
f 377 376 398
f 439 398 376
f 810 167 166
f 821 167 810
f 826 167 821
f 377 398 399
f 378 377 399
f 217 757 758
f 762 202 217
f 762 217 758
f 820 202 762
f 419 400 399
f 379 378 399
f 379 399 400
f 217 232 748
f 750 217 748
f 757 217 750
f 827 187 168
f 826 827 168
f 826 168 167
f 828 187 827
f 380 379 400
f 380 400 401
f 187 188 169
f 187 169 168
f 381 380 401
f 381 401 402
f 672 232 673
f 749 232 672
f 748 232 749
f 189 181 188
f 188 181 179
f 188 179 169
f 382 381 402
f 382 402 422
f 170 169 179
f 180 170 179
f 422 383 382
f 446 383 422
f 445 446 422
f 444 445 422
f 444 422 421
f 182 191 180
f 171 170 180
f 191 171 180
f 182 190 191
f 191 192 172
f 191 172 171
f 423 403 383
f 447 437 423
f 384 383 403
f 446 447 423
f 384 403 404
f 446 423 383
f 192 193 173
f 192 173 172
f 385 384 404
f 385 404 425
f 194 174 173
f 193 194 173
f 386 385 405
f 425 405 385
f 449 405 425
f 449 425 438
f 448 449 438
f 194 195 175
f 194 175 174
f 387 386 405
f 387 405 406
f 195 196 176
f 195 176 175
f 388 387 406
f 388 406 407
f 196 197 177
f 196 177 176
f 389 388 407
f 428 408 407
f 389 407 408
f 197 198 178
f 197 178 177
f 180 179 181
f 180 181 182
f 675 391 410
f 675 410 411
f 674 675 411
f 393 392 412
f 393 412 413
f 822 185 186
f 818 185 822
f 819 185 818
f 164 185 819
f 164 819 804
f 394 393 413
f 414 394 413
f 190 182 189
f 182 181 189
f 395 394 414
f 415 395 414
f 396 395 415
f 396 415 416
f 184 183 199
f 184 199 200
f 397 396 416
f 397 416 417
f 184 200 201
f 185 184 201
f 440 441 418
f 440 418 398
f 830 203 188
f 829 188 187
f 830 188 829
f 400 419 420
f 442 443 420
f 442 420 419
f 204 188 203
f 189 188 204
f 421 401 420
f 402 401 421
f 190 189 204
f 190 204 205
f 449 450 426
f 449 426 405
f 191 190 205
f 191 205 206
f 407 406 426
f 407 426 427
f 208 192 207
f 193 192 208
f 452 453 429
f 408 428 429
f 452 429 428
f 194 193 208
f 194 208 209
f 411 410 430
f 431 411 430
f 195 194 209
f 195 209 210
f 413 412 432
f 413 432 433
f 414 413 433
f 434 414 433
f 195 210 211
f 196 195 211
f 416 415 434
f 416 434 435
f 197 196 211
f 197 211 212
f 417 416 435
f 417 435 436
f 198 197 212
f 198 212 213
f 441 442 419
f 441 419 418
f 200 199 214
f 200 214 215
f 443 444 421
f 443 421 420
f 201 200 215
f 201 215 216
f 450 451 427
f 450 427 426
f 201 216 217
f 202 201 217
f 451 452 428
f 451 428 427
f 832 204 203
f 832 218 204
f 832 203 831
f 453 454 430
f 453 430 429
f 205 204 218
f 205 218 219
f 205 219 220
f 206 205 220
f 207 206 220
f 207 220 221
f 208 207 221
f 208 221 222
f 209 208 222
f 209 222 223
f 224 209 223
f 210 209 224
f 211 210 224
f 211 224 225
f 226 211 225
f 212 211 226
f 212 226 227
f 213 212 227
f 215 214 228
f 215 228 229
f 215 229 230
f 216 215 230
f 678 233 218
f 678 218 832
f 220 219 233
f 220 233 234
f 222 221 235
f 222 235 236
