v -1.3690410229681589 -1.6494815981805098 0.40999999999999998
v -0.59095897703184108 -1.6494815981805098 0.40999999999999998
v -0.97999999999999998 -1.4090410229681589 1.0394815981805097
v -0.97999999999999998 -1.4090410229681589 -0.21948159818050966
v -1.6094815981805097 -1.02 0.020958977031841131
v -1.6094815981805097 -1.02 0.79904102296815882
v -0.97999999999999998 -1.76 0.40999999999999998
v -1.208672575837461 -1.6186725758374612 0.78000000000000003
v -0.75132742416253884 -1.6186725758374612 0.78000000000000003
v -0.97999999999999998 -1.02 1.1499999999999999
v -1.208672575837461 -1.6186725758374612 0.039999999999999925
v -0.75132742416253884 -1.6186725758374612 0.039999999999999925
v -0.97999999999999998 -1.02 -0.33000000000000002
v -1.5786725758374611 -0.64999999999999991 0.18132742416253886
v -1.5786725758374611 -1.3900000000000001 0.18132742416253886
v -1.3500000000000001 -1.2486725758374611 -0.18867257583746117
v -1.3500000000000001 -0.79132742416253887 -0.18867257583746117
v -1.5786725758374611 -0.64999999999999991 0.63867257583746107
v -1.5786725758374611 -1.3900000000000001 0.63867257583746107
v -1.3500000000000001 -1.2486725758374611 1.0086725758374611
v -1.3500000000000001 -0.79132742416253887 1.0086725758374611
v -1.72 -1.02 0.40999999999999998
v -1.1822172313953772 -1.731834384760099 0.40999999999999998
v -0.77778276860462292 -1.731834384760099 0.40999999999999998
v -1.301077537768994 -1.6583746755079778 0.60232001562573823
v -1.0988603063736171 -1.5333975533947326 0.92951436913436059
v -1.1002202876061753 -1.7237818220584136 0.60452051148407937
v -0.65892246223100592 -1.6583746755079778 0.60232001562573823
v -0.86113969362638287 -1.5333975533947326 0.92951436913436059
v -0.85977971239382467 -1.7237818220584136 0.60452051148407937
v -0.97999999999999998 -1.6494815981805098 0.79904102296815893
v -0.97999999999999998 -1.2222172313953772 1.1218343847600989
v -1.301077537768994 -1.6583746755079778 0.21767998437426173
v -1.0988603063736171 -1.5333975533947326 -0.10951436913436069
v -1.1002202876061753 -1.7237818220584136 0.21547948851592055
v -0.65892246223100592 -1.6583746755079778 0.21767998437426173
v -0.86113969362638287 -1.5333975533947326 -0.10951436913436069
v -0.85977971239382467 -1.7237818220584136 0.21547948851592055
v -0.97999999999999998 -1.6494815981805098 0.02095897703184102
v -0.97999999999999998 -1.2222172313953772 -0.30183438476009899
v -0.46660244660526751 -1.5395143691343609 0.29113969362638281
v -0.54503891330356979 -1.5292613105743342 0.095259200909745156
v -0.78767998437426168 -1.3410775377689941 -0.2283746755079778
v -0.66525920090974511 -1.4549610866964302 -0.099261310574334238
v -0.78547948851592053 -1.1402202876061753 -0.29378182205841369
v -0.46660244660526751 -1.5395143691343609 0.52886030637361714
v -0.54503891330356979 -1.5292613105743342 0.72474079909025479
v -0.78767998437426168 -1.3410775377689941 1.0483746755079777
v -0.66525920090974511 -1.4549610866964302 0.91926131057433413
v -1.4933975533947326 -0.50048563086563924 0.29113969362638281
v -1.6183746755079778 -0.82767998437426171 0.088922462231005805
v -1.4149610866964302 -0.5107386894256658 0.095259200909745156
v -1.4933975533947326 -1.5395143691343609 0.29113969362638281
v -1.6183746755079778 -1.2123200156257383 0.088922462231005805
v -1.4149610866964302 -1.5292613105743342 0.095259200909745156
v -1.1723200156257383 -1.3410775377689941 -0.2283746755079778
v -1.4995143691343606 -1.1388603063736171 -0.10339755339473239
v -1.2947407990902549 -1.4549610866964302 -0.099261310574334238
v -1.1745205114840795 -1.1402202876061753 -0.29378182205841369
v -1.4892613105743342 -1.3347407990902549 -0.024961086696430157
v -1.1723200156257383 -0.69892246223100585 -0.2283746755079778
v -1.4995143691343606 -0.90113969362638291 -0.10339755339473239
v -1.2947407990902549 -0.58503891330356983 -0.099261310574334238
v -1.1745205114840795 -0.8997797123938247 -0.29378182205841369
v -1.4892613105743342 -0.70525920090974514 -0.024961086696430157
v -1.3690410229681589 -1.02 -0.21948159818050955
v -1.4933975533947326 -0.50048563086563924 0.52886030637361714
v -1.6183746755079778 -0.82767998437426171 0.7310775377689942
v -1.6094815981805095 -0.63095897703184112 0.40999999999999998
v -1.4933975533947326 -1.5395143691343609 0.52886030637361714
v -1.6183746755079778 -1.2123200156257383 0.7310775377689942
v -1.4149610866964302 -1.5292613105743342 0.72474079909025479
v -1.6094815981805095 -1.4090410229681589 0.40999999999999998
v -1.1723200156257383 -1.3410775377689941 1.0483746755079777
v -1.4995143691343606 -1.1388603063736171 0.92339755339473228
v -1.2947407990902549 -1.4549610866964302 0.91926131057433413
v -1.1745205114840795 -1.1402202876061753 1.1137818220584137
v -1.4892613105743342 -1.3347407990902549 0.84496108669643011
v -1.4995143691343606 -0.90113969362638291 0.92339755339473228
v -1.1745205114840795 -0.8997797123938247 1.1137818220584137
v -1.4892613105743342 -0.70525920090974514 0.84496108669643011
v -1.3690410229681589 -1.02 1.0394815981805094
v -1.691834384760099 -1.02 0.20778276860462291
v -1.691834384760099 -1.02 0.61221723139537709
v -1.6837818220584135 -0.82547948851592057 0.28977971239382461
v -1.6837818220584135 -1.2145205114840796 0.28977971239382461
v -1.6837818220584135 -0.82547948851592057 0.53022028760617534
v -1.6837818220584135 -1.2145205114840796 0.53022028760617534
v -1.2784829579768497 -1.6971321317124084 0.40999999999999998
v -1.0820846591744488 -1.7529247726480777 0.40999999999999998
v -0.68151704202315033 -1.6971321317124084 0.40999999999999998
v -0.877915340825551 -1.7529247726480777 0.40999999999999998
v -1.3384868151248943 -1.6600477085388232 0.50708828032162945
v -1.2575285399338751 -1.6444944912205688 0.69387416218693532
v -1.2450893071800684 -1.7039854044523961 0.50742497480052773
v -1.0400038571480446 -1.4755750954465237 0.99004385139077877
v -1.1554438807594263 -1.5814027021208106 0.85905061046114239
v -1.0408594243067282 -1.750889372040402 0.50847261706403757
v -1.156620928436499 -1.6793448278993921 0.69577866533481814
v -1.1428866003302365 -1.7351305220778048 0.50826643285264783
v -1.2029315705289916 -1.6980206896414995 0.60542123548770843
v -0.62151318487510576 -1.6600477085388232 0.50708828032162945
v -0.70247146006612482 -1.6444944912205688 0.69387416218693532
v -0.71491069281993158 -1.7039854044523961 0.50742497480052773
v -0.91999614285195541 -1.4755750954465237 0.99004385139077877
v -0.8045561192405738 -1.5814027021208106 0.85905061046114239
v -0.97999999999999998 -1.5401512025609523 0.93634848387203995
v -0.9191405756932719 -1.750889372040402 0.50847261706403757
v -0.80337907156350108 -1.6793448278993921 0.69577866533481814
v -0.8171133996697636 -1.7351305220778048 0.50826643285264783
v -0.97999999999999998 -1.7332573349660407 0.60713947883957986
v -0.75706842947100828 -1.6980206896414995 0.60542123548770843
v -1.0957615041297708 -1.6417316351420828 0.79425128239885567
v -0.86423849587022916 -1.6417316351420828 0.79425128239885567
v -1.0400449701987553 -1.5973512343254939 0.86897729113395084
v -1.0409194492236504 -1.6956070447699014 0.70570921825936983
v -0.91995502980124466 -1.5973512343254939 0.86897729113395084
v -0.91908055077634943 -1.6956070447699014 0.70570921825936983
v -0.97999999999999998 -1.3184829579768498 1.0871321317124083
v -0.97999999999999998 -1.1220846591744489 1.1429247726480778
v -1.3384868151248943 -1.6600477085388232 0.3129117196783705
v -1.2575285399338751 -1.6444944912205688 0.12612583781306463
v -1.2450893071800684 -1.7039854044523961 0.31257502519947217
v -1.0400038571480446 -1.4755750954465237 -0.17004385139077888
v -1.1554438807594263 -1.5814027021208106 -0.039050610461142499
v -1.0408594243067282 -1.750889372040402 0.31152738293596238
v -1.156620928436499 -1.6793448278993921 0.12422133466518182
v -1.1428866003302365 -1.7351305220778048 0.31173356714735218
v -1.2029315705289916 -1.6980206896414995 0.21457876451229152
v -0.62151318487510576 -1.6600477085388232 0.3129117196783705
v -0.70247146006612482 -1.6444944912205688 0.12612583781306463
v -0.71491069281993158 -1.7039854044523961 0.31257502519947217
v -0.91999614285195541 -1.4755750954465237 -0.17004385139077888
v -0.8045561192405738 -1.5814027021208106 -0.039050610461142499
v -0.97999999999999998 -1.5401512025609523 -0.11634848387204005
v -0.9191405756932719 -1.750889372040402 0.31152738293596238
v -0.80337907156350108 -1.6793448278993921 0.12422133466518182
v -0.8171133996697636 -1.7351305220778048 0.31173356714735218
v -0.97999999999999998 -1.7332573349660407 0.21286052116042012
v -0.75706842947100828 -1.6980206896414995 0.21457876451229152
v -1.0957615041297708 -1.6417316351420828 0.025748717601144222
v -0.86423849587022916 -1.6417316351420828 0.025748717601144222
v -1.0400449701987553 -1.5973512343254939 -0.048977291133950829
v -1.0409194492236504 -1.6956070447699014 0.11429078174063012
v -0.91995502980124466 -1.5973512343254939 -0.048977291133950829
v -0.91908055077634943 -1.6956070447699014 0.11429078174063012
v -0.97999999999999998 -1.3184829579768498 -0.26713213171240829
v -0.97999999999999998 -1.1220846591744489 -0.32292477264807778
v -0.97999999999999998 -0.91791534082555104 -0.32292477264807778
v -0.52442490455347635 -1.6000438513907786 0.34999614285195535
v -0.55727377223957553 -1.6065604296518683 0.25236307941964398
v -0.64404703019273535 -1.5808722108353546 0.063361910358453732
v -0.45674098192195489 -1.4651107067055837 0.13490645449946348
v -0.59807000116221487 -1.5997542567888519 0.15384676905614586
v -0.50091519852715416 -1.5397092865900965 0.19095660149245117
v -0.88291171967837045 -1.3784868151248943 -0.23004770853882334
v -0.69612583781306459 -1.2975285399338752 -0.21449449122056868
v -0.82236307941964393 -1.4427262277604245 -0.17656042965186819
v -0.88257502519947217 -1.2850893071800684 -0.27398540445239611
v -0.70490645449946343 -1.5432590180780452 -0.035110706705583861
v -0.63336191035845368 -1.3559529698072645 -0.15087221083535457
v -0.76095660149245115 -1.4990848014728457 -0.10970928659009643
v -0.60010217348946848 -1.4984675659303215 -0.0075481167066709376
v -0.72384676905614587 -1.4019299988377854 -0.16975425678885175
v -0.88152738293596244 -1.0808594243067282 -0.32088937204040197
v -0.69422133466518177 -1.196620928436499 -0.24934482789939222
v -0.88173356714735218 -1.1828866003302365 -0.30513052207780494
v -0.78457876451229147 -1.2429315705289918 -0.26802068964149967
v -0.50153243406967851 -1.437548116706671 0.030102173489468531
v -0.56245188329332907 -1.3998978265105315 -0.068467565930321439
v -0.52442490455347635 -1.6000438513907786 0.4700038571480446
v -0.55727377223957553 -1.6065604296518683 0.56763692058035597
v -0.45984879743904783 -1.5463484838720403 0.40999999999999998
v -0.64404703019273535 -1.5808722108353546 0.75663808964154622
v -0.59807000116221487 -1.5997542567888519 0.66615323094385404
v -0.50091519852715416 -1.5397092865900965 0.62904339850754876
v -0.88291171967837045 -1.3784868151248943 1.0500477085388233
v -0.69612583781306459 -1.2975285399338752 1.0344944912205687
v -0.82236307941964393 -1.4427262277604245 0.9965604296518682
v -0.88257502519947217 -1.2850893071800684 1.093985404452396
v -0.70490645449946343 -1.5432590180780452 0.85511070670558387
v -0.63336191035845368 -1.3559529698072645 0.97087221083535447
v -0.76095660149245115 -1.4990848014728457 0.92970928659009644
v -0.60010217348946848 -1.4984675659303215 0.82754811670667094
v -0.72384676905614587 -1.4019299988377854 0.98975425678885176
v -0.88173356714735218 -1.1828866003302365 1.125130522077805
v -0.78457876451229147 -1.2429315705289918 1.0880206896414997
v -0.50153243406967851 -1.437548116706671 0.78989782651053142
v -0.56245188329332907 -1.3998978265105315 0.88846756593032139
v -1.5414027021208105 -0.57094938953885754 0.23455611924057376
v -1.6200477085388232 -0.92291171967837049 0.051513184875105755
v -1.6044944912205685 -0.73612583781306462 0.13247146006612481
v -1.5032590180780452 -0.57488929329441629 0.13490645449946348
v -1.4590848014728457 -0.5002907134099035 0.19095660149245117
v -1.4355750954465236 -1.6000438513907786 0.34999614285195535
v -1.5414027021208105 -1.4690506104611425 0.23455611924057376
v -1.4027262277604244 -1.6065604296518683 0.25236307941964398
v -1.6200477085388232 -1.1170882803216295 0.051513184875105755
v -1.6044944912205685 -1.3038741621869354 0.13247146006612481
v -1.3159529698072645 -1.5808722108353546 0.063361910358453732
v -1.5032590180780452 -1.4651107067055837 0.13490645449946348
v -1.3619299988377851 -1.5997542567888519 0.15384676905614586
v -1.4590848014728457 -1.5397092865900965 0.19095660149245117
v -1.0770882803216295 -1.3784868151248943 -0.23004770853882334
v -1.2638741621869354 -1.2975285399338752 -0.21449449122056868
v -1.137636920580356 -1.4427262277604245 -0.17656042965186819
v -1.0774249748005278 -1.2850893071800684 -0.27398540445239611
v -1.5600438513907786 -1.0800038571480446 -0.045575095446523661
v -1.4290506104611425 -1.1954438807594263 -0.15140270212081047
v -1.5665604296518683 -1.1776369205803561 -0.012726227760424424
v -1.2550935455005365 -1.5432590180780452 -0.035110706705583861
v -1.3266380896415462 -1.3559529698072645 -0.15087221083535457
v -1.1990433985075488 -1.4990848014728457 -0.10970928659009643
v -1.3598978265105315 -1.4984675659303215 -0.0075481167066709376
v -1.2361532309438541 -1.4019299988377854 -0.16975425678885175
v -1.0784726170640375 -1.0808594243067282 -0.32088937204040197
v -1.2657786653348182 -1.196620928436499 -0.24934482789939222
v -1.0782664328526479 -1.1828866003302365 -0.30513052207780494
v -1.1754212354877085 -1.2429315705289918 -0.26802068964149967
v -1.5408722108353545 -1.3666380896415462 0.074047030192735341
v -1.4251107067055839 -1.2950935455005366 -0.11325901807804512
v -1.5597542567888518 -1.2761532309438541 0.028070001162214753
v -1.4584675659303215 -1.437548116706671 0.030102173489468531
v -1.4997092865900963 -1.2390433985075489 -0.069084801472845736
v -1.397548116706671 -1.3998978265105315 -0.068467565930321439
v -1.2638741621869354 -0.74247146006612486 -0.21449449122056868
v -1.5600438513907786 -0.95999614285195545 -0.045575095446523661
v -1.4290506104611425 -0.84455611924057383 -0.15140270212081047
v -1.5665604296518683 -0.86236307941964396 -0.012726227760424424
v -1.5063484838720402 -1.02 -0.11015120256095218
v -1.3266380896415462 -0.68404703019273538 -0.15087221083535457
v -1.3598978265105315 -0.54153243406967855 -0.0075481167066709376
v -1.2361532309438541 -0.63807000116221479 -0.16975425678885175
v -1.0784726170640375 -0.95914057569327194 -0.32088937204040197
v -1.2657786653348182 -0.843379071563501 -0.24934482789939222
v -1.0782664328526479 -0.85711339966976363 -0.30513052207780494
v -1.1771394788395799 -1.02 -0.30325733496604074
v -1.1754212354877085 -0.7970684294710082 -0.26802068964149967
v -1.5408722108353545 -0.67336191035845372 0.074047030192735341
v -1.4251107067055839 -0.74490645449946347 -0.11325901807804512
v -1.5597542567888518 -0.7638467690561459 0.028070001162214753
v -1.4584675659303215 -0.6024518832933291 0.030102173489468531
v -1.4997092865900963 -0.80095660149245118 -0.069084801472845736
v -1.397548116706671 -0.64010217348946852 -0.068467565930321439
v -1.3642512823988557 -1.1357615041297708 -0.21173163514208276
v -1.3642512823988557 -0.9042384958702292 -0.21173163514208276
v -1.4389772911339507 -1.0800449701987553 -0.16735123432549376
v -1.2757092182593699 -1.0809194492236505 -0.26560704476990132
v -1.4389772911339507 -0.9599550298012447 -0.16735123432549376
v -1.2757092182593699 -0.95908055077634946 -0.26560704476990132
v -1.5414027021208105 -0.57094938953885754 0.58544388075942622
v -1.5001512025609522 -0.49365151612795988 0.40999999999999998
v -1.6200477085388232 -0.92291171967837049 0.76848681512489425
v -1.6044944912205685 -0.73612583781306462 0.68752853993387508
v -1.5032590180780452 -0.57488929329441629 0.68509354550053647
v -1.4590848014728457 -0.5002907134099035 0.62904339850754876
v -1.6017316351420827 -0.63574871760114426 0.2942384958702291
v -1.6017316351420827 -0.63574871760114426 0.52576150412977085
v -1.5573512343254938 -0.56102270886604921 0.34995502980124465
v -1.5573512343254938 -0.56102270886604921 0.4700449701987553
v -1.4355750954465236 -1.6000438513907786 0.4700038571480446
v -1.5414027021208105 -1.4690506104611425 0.58544388075942622
v -1.4027262277604244 -1.6065604296518683 0.56763692058035597
v -1.5001512025609522 -1.5463484838720403 0.40999999999999998
v -1.6200477085388232 -1.1170882803216295 0.76848681512489425
v -1.6044944912205685 -1.3038741621869354 0.68752853993387508
v -1.3159529698072645 -1.5808722108353546 0.75663808964154622
v -1.5032590180780452 -1.4651107067055837 0.68509354550053647
v -1.3619299988377851 -1.5997542567888519 0.66615323094385404
v -1.4590848014728457 -1.5397092865900965 0.62904339850754876
v -1.6017316351420827 -1.4042512823988558 0.2942384958702291
v -1.6017316351420827 -1.4042512823988558 0.52576150412977085
v -1.5573512343254938 -1.4789772911339507 0.34995502980124465
v -1.5573512343254938 -1.4789772911339507 0.4700449701987553
v -1.0770882803216295 -1.3784868151248943 1.0500477085388233
v -1.2638741621869354 -1.2975285399338752 1.0344944912205687
v -1.137636920580356 -1.4427262277604245 0.9965604296518682
v -1.0774249748005278 -1.2850893071800684 1.093985404452396
v -1.5600438513907786 -1.0800038571480446 0.86557509544652356
v -1.4290506104611425 -1.1954438807594263 0.97140270212081048
v -1.5665604296518683 -1.1776369205803561 0.83272622776042438
v -1.2550935455005365 -1.5432590180780452 0.85511070670558387
v -1.3266380896415462 -1.3559529698072645 0.97087221083535447
v -1.1990433985075488 -1.4990848014728457 0.92970928659009644
v -1.3598978265105315 -1.4984675659303215 0.82754811670667094
v -1.2361532309438541 -1.4019299988377854 0.98975425678885176
v -1.0784726170640375 -1.0808594243067282 1.1408893720404019
v -1.2657786653348182 -1.196620928436499 1.0693448278993922
v -1.0782664328526479 -1.1828866003302365 1.125130522077805
v -1.1754212354877085 -1.2429315705289918 1.0880206896414997
v -1.5408722108353545 -1.3666380896415462 0.74595296980726467
v -1.4251107067055839 -1.2950935455005366 0.93325901807804512
v -1.5597542567888518 -1.2761532309438541 0.79192999883778525
v -1.4584675659303215 -1.437548116706671 0.78989782651053142
v -1.4997092865900963 -1.2390433985075489 0.88908480147284563
v -1.397548116706671 -1.3998978265105315 0.88846756593032139
v -1.2638741621869354 -0.74247146006612486 1.0344944912205687
v -1.5600438513907786 -0.95999614285195545 0.86557509544652356
v -1.4290506104611425 -0.84455611924057383 0.97140270212081048
v -1.5665604296518683 -0.86236307941964396 0.83272622776042438
v -1.5063484838720402 -1.02 0.93015120256095218
v -1.3266380896415462 -0.68404703019273538 0.97087221083535447
v -1.0784726170640375 -0.95914057569327194 1.1408893720404019
v -1.2657786653348182 -0.843379071563501 1.0693448278993922
v -1.1771394788395799 -1.02 1.1232573349660406
v -1.5408722108353545 -0.67336191035845372 0.74595296980726467
v -1.4251107067055839 -0.74490645449946347 0.93325901807804512
v -1.5597542567888518 -0.7638467690561459 0.79192999883778525
v -1.4584675659303215 -0.6024518832933291 0.78989782651053142
v -1.4997092865900963 -0.80095660149245118 0.88908480147284563
v -1.397548116706671 -0.64010217348946852 0.88846756593032139
v -1.3642512823988557 -1.1357615041297708 1.0317316351420827
v -1.3642512823988557 -0.9042384958702292 1.0317316351420827
v -1.4389772911339507 -1.0800449701987553 0.98735123432549377
v -1.2757092182593699 -1.0809194492236505 1.0856070447699013
v -1.4389772911339507 -0.9599550298012447 0.98735123432549377
v -1.2757092182593699 -0.95908055077634946 1.0856070447699013
v -1.6571321317124084 -1.02 0.11151704202315033
v -1.7129247726480776 -1.02 0.30791534082555105
v -1.6639854044523961 -0.92257502519947221 0.14491069281993157
v -1.6639854044523961 -1.1174249748005278 0.14491069281993157
v -1.6571321317124084 -1.02 0.70848295797684968
v -1.7129247726480776 -1.02 0.5120846591744489
v -1.6639854044523961 -0.92257502519947221 0.67508930718006832
v -1.6639854044523961 -1.1174249748005278 0.67508930718006832
v -1.6393448278993921 -0.7342213346651818 0.23337907156350102
v -1.7108893720404019 -0.92152738293596248 0.34914057569327184
v -1.6580206896414995 -0.82457876451229151 0.18706842947100821
v -1.6556070447699014 -0.72429078174063011 0.34908055077634947
v -1.6951305220778048 -0.92173356714735222 0.24711339966976359
v -1.6393448278993921 -1.3057786653348182 0.23337907156350102
v -1.7108893720404019 -1.1184726170640376 0.34914057569327184
v -1.6580206896414995 -1.2154212354877085 0.18706842947100821
v -1.6556070447699014 -1.3157092182593699 0.34908055077634947
v -1.6951305220778048 -1.1182664328526479 0.24711339966976359
v -1.6393448278993921 -0.7342213346651818 0.58662092843649893
v -1.7108893720404019 -0.92152738293596248 0.47085942430672811
v -1.6580206896414995 -0.82457876451229151 0.63293157052899174
v -1.6556070447699014 -0.72429078174063011 0.47091944922365048
v -1.6951305220778048 -0.92173356714735222 0.57288660033023642
v -1.6932573349660407 -0.82286052116042008 0.40999999999999998
v -1.6393448278993921 -1.3057786653348182 0.58662092843649893
v -1.7108893720404019 -1.1184726170640376 0.47085942430672811
v -1.6580206896414995 -1.2154212354877085 0.63293157052899174
v -1.6556070447699014 -1.3157092182593699 0.47091944922365048
v -1.6951305220778048 -1.1182664328526479 0.57288660033023642
v -1.6932573349660407 -1.21713947883958 0.40999999999999998
v 0.63095897703184112 1.6094815981805097 0.58999999999999997
v 1.4090410229681589 1.6094815981805097 0.58999999999999997
v 1.02 1.3690410229681589 1.2194815981805096
v 1.02 1.3690410229681589 -0.039481598180509669
v 1.6494815981805098 0.97999999999999998 0.20095897703184112
v 1.6494815981805098 0.97999999999999998 0.97904102296815876
v 1.02 1.72 0.58999999999999997
v 0.79132742416253887 1.5786725758374611 0.95999999999999996
v 1.2486725758374611 1.5786725758374611 0.95999999999999996
v 1.02 0.97999999999999998 1.3300000000000001
v 0.79132742416253887 1.5786725758374611 0.21999999999999992
v 1.2486725758374611 1.5786725758374611 0.21999999999999992
v 1.02 0.97999999999999998 -0.15000000000000002
v 1.6186725758374612 1.3500000000000001 0.36132742416253882
v 1.6186725758374612 0.60999999999999988 0.36132742416253882
v 1.3900000000000001 0.75132742416253884 -0.0086725758374611717
v 1.3900000000000001 1.208672575837461 -0.0086725758374611717
v 1.6186725758374612 1.3500000000000001 0.81867257583746111
v 1.6186725758374612 0.60999999999999988 0.81867257583746111
v 1.3900000000000001 0.75132742416253884 1.1886725758374612
v 1.3900000000000001 1.208672575837461 1.1886725758374612
v 1.76 0.97999999999999998 0.58999999999999997
v 0.81778276860462296 1.691834384760099 0.58999999999999997
v 1.2222172313953772 1.691834384760099 0.58999999999999997
v 0.69892246223100596 1.6183746755079778 0.78232001562573816
v 0.90113969362638291 1.4933975533947326 1.1095143691343607
v 0.8997797123938247 1.6837818220584135 0.78452051148407942
v 1.3410775377689941 1.6183746755079778 0.78232001562573816
v 1.1388603063736171 1.4933975533947326 1.1095143691343607
v 1.1402202876061753 1.6837818220584135 0.78452051148407942
v 1.02 1.6094815981805097 0.97904102296815898
v 1.02 1.1822172313953772 1.3018343847600988
v 0.69892246223100596 1.6183746755079778 0.39767998437426172
v 0.90113969362638291 1.4933975533947326 0.070485630865639304
v 0.8997797123938247 1.6837818220584135 0.39547948851592052
v 1.3410775377689941 1.6183746755079778 0.39767998437426172
v 1.1388603063736171 1.4933975533947326 0.070485630865639304
v 1.1402202876061753 1.6837818220584135 0.39547948851592052
v 1.02 1.6094815981805097 0.20095897703184101
v 1.02 1.1822172313953772 -0.121834384760099
v 1.5333975533947326 1.4995143691343609 0.47113969362638281
v 1.6583746755079778 1.1723200156257383 0.2689224622310058
v 1.4549610866964302 1.4892613105743342 0.27525920090974515
v 1.5333975533947326 0.46048563086563921 0.47113969362638281
v 1.6583746755079778 0.78767998437426168 0.2689224622310058
v 1.5395143691343607 0.86113969362638287 0.076602446605267605
v 1.2145205114840796 0.85977971239382467 -0.1137818220584137
v 1.5292613105743342 0.66525920090974511 0.15503891330356984
v 1.2123200156257383 1.301077537768994 -0.048374675507977805
v 1.5395143691343607 1.0988603063736171 0.076602446605267605
v 1.3347407990902549 1.4149610866964302 0.080738689425665755
v 1.2145205114840796 1.1002202876061753 -0.1137818220584137
v 1.5292613105743342 1.2947407990902549 0.15503891330356984
v 1.4090410229681589 0.97999999999999998 -0.039481598180509558
v 1.5333975533947326 1.4995143691343609 0.70886030637361708
v 1.6583746755079778 1.1723200156257383 0.91107753776899414
v 1.4549610866964302 1.4892613105743342 0.90474079909025473
v 1.6494815981805095 1.3690410229681589 0.58999999999999997
v 1.5333975533947326 0.46048563086563921 0.70886030637361708
v 1.6583746755079778 0.78767998437426168 0.91107753776899414
v 1.4549610866964302 0.47073868942566577 0.90474079909025473
v 1.6494815981805095 0.59095897703184108 0.58999999999999997
v 1.2123200156257383 0.65892246223100581 1.2283746755079776
v 1.5395143691343607 0.86113969362638287 1.1033975533947324
v 1.3347407990902549 0.54503891330356979 1.0992613105743341
v 1.2145205114840796 0.85977971239382467 1.2937818220584136
v 1.5292613105743342 0.66525920090974511 1.02496108669643
v 1.2123200156257383 1.301077537768994 1.2283746755079776
v 1.5395143691343607 1.0988603063736171 1.1033975533947324
v 1.3347407990902549 1.4149610866964302 1.0992613105743341
v 1.2145205114840796 1.1002202876061753 1.2937818220584136
v 1.5292613105743342 1.2947407990902549 1.02496108669643
v 1.4090410229681589 0.97999999999999998 1.2194815981805096
v 1.731834384760099 0.97999999999999998 0.38778276860462291
v 1.731834384760099 0.97999999999999998 0.79221723139537703
v 1.7237818220584136 1.1745205114840795 0.4697797123938246
v 1.7237818220584136 0.78547948851592053 0.4697797123938246
v 1.7237818220584136 1.1745205114840795 0.71022028760617539
v 1.7237818220584136 0.78547948851592053 0.71022028760617539
v 0.50660244660526754 1.4995143691343609 0.47113969362638281
v 0.58503891330356983 1.4892613105743342 0.27525920090974515
v 0.82767998437426171 1.301077537768994 -0.048374675507977805
v 0.70525920090974514 1.4149610866964302 0.080738689425665755
v 0.50660244660526754 1.4995143691343609 0.70886030637361708
v 0.58503891330356983 1.4892613105743342 0.90474079909025473
v 0.82767998437426171 1.301077537768994 1.2283746755079776
v 0.70525920090974514 1.4149610866964302 1.0992613105743341
v 0.82547948851592057 1.1002202876061753 1.2937818220584136
v 0.72151704202315037 1.6571321317124084 0.58999999999999997
v 0.91791534082555104 1.7129247726480776 0.58999999999999997
v 1.3184829579768498 1.6571321317124084 0.58999999999999997
v 1.1220846591744489 1.7129247726480776 0.58999999999999997
v 0.6615131848751058 1.6200477085388232 0.6870882803216295
v 0.74247146006612486 1.6044944912205688 0.87387416218693525
v 0.75491069281993162 1.6639854044523961 0.68742497480052778
v 0.95999614285195545 1.4355750954465236 1.1700438513907789
v 0.84455611924057383 1.5414027021208105 1.0390506104611426
v 0.95914057569327194 1.7108893720404019 0.68847261706403751
v 0.84337907156350111 1.6393448278993921 0.87577866533481807
v 0.85711339966976363 1.6951305220778048 0.68826643285264777
v 0.79706842947100831 1.6580206896414995 0.78542123548770837
v 1.3784868151248943 1.6200477085388232 0.6870882803216295
v 1.2975285399338752 1.6044944912205688 0.87387416218693525
v 1.2850893071800684 1.6639854044523961 0.68742497480052778
v 1.0800038571480446 1.4355750954465236 1.1700438513907789
v 1.1954438807594263 1.5414027021208105 1.0390506104611426
v 1.02 1.5001512025609522 1.1163484838720401
v 1.0808594243067282 1.7108893720404019 0.68847261706403751
v 1.196620928436499 1.6393448278993921 0.87577866533481807
v 1.1828866003302365 1.6951305220778048 0.68826643285264777
v 1.02 1.6932573349660407 0.7871394788395798
v 1.2429315705289916 1.6580206896414995 0.78542123548770837
v 0.9042384958702292 1.6017316351420827 0.97425128239885572
v 1.1357615041297708 1.6017316351420827 0.97425128239885572
v 0.9599550298012447 1.5573512343254938 1.0489772911339508
v 0.95908055077634946 1.6556070447699014 0.88570921825936977
v 1.0800449701987553 1.5573512343254938 1.0489772911339508
v 1.0809194492236505 1.6556070447699014 0.88570921825936977
v 1.02 0.877915340825551 1.3229247726480777
v 1.02 1.2784829579768497 1.2671321317124082
v 1.02 1.0820846591744488 1.3229247726480777
v 0.6615131848751058 1.6200477085388232 0.49291171967837044
v 0.74247146006612486 1.6044944912205688 0.30612583781306463
v 0.75491069281993162 1.6639854044523961 0.49257502519947216
v 0.95999614285195545 1.4355750954465236 0.009956148609221116
v 0.84455611924057383 1.5414027021208105 0.14094938953885749
v 0.95914057569327194 1.7108893720404019 0.49152738293596243
v 0.84337907156350111 1.6393448278993921 0.30422133466518181
v 0.85711339966976363 1.6951305220778048 0.49173356714735217
v 0.79706842947100831 1.6580206896414995 0.39457876451229151
v 1.3784868151248943 1.6200477085388232 0.49291171967837044
v 1.2975285399338752 1.6044944912205688 0.30612583781306463
v 1.2850893071800684 1.6639854044523961 0.49257502519947216
v 1.0800038571480446 1.4355750954465236 0.009956148609221116
v 1.1954438807594263 1.5414027021208105 0.14094938953885749
v 1.02 1.5001512025609522 0.06365151612795994
v 1.0808594243067282 1.7108893720404019 0.49152738293596243
v 1.196620928436499 1.6393448278993921 0.30422133466518181
v 1.1828866003302365 1.6951305220778048 0.49173356714735217
v 1.02 1.6932573349660407 0.39286052116042014
v 1.2429315705289916 1.6580206896414995 0.39457876451229151
v 0.9042384958702292 1.6017316351420827 0.20574871760114422
v 1.1357615041297708 1.6017316351420827 0.20574871760114422
v 0.9599550298012447 1.5573512343254938 0.13102270886604916
v 0.95908055077634946 1.6556070447699014 0.29429078174063011
v 1.0800449701987553 1.5573512343254938 0.13102270886604916
v 1.0809194492236505 1.6556070447699014 0.29429078174063011
v 1.02 1.2784829579768497 -0.087132131712408301
v 1.02 1.0820846591744488 -0.14292477264807779
v 1.4755750954465237 1.5600438513907786 0.5299961428519554
v 1.5814027021208106 1.4290506104611425 0.41455611924057378
v 1.4427262277604245 1.5665604296518683 0.43236307941964391
v 1.6600477085388232 1.0770882803216295 0.23151318487510575
v 1.6444944912205686 1.2638741621869354 0.31247146006612481
v 1.3559529698072645 1.5408722108353545 0.24336191035845373
v 1.5432590180780452 1.4251107067055837 0.31490645449946347
v 1.4019299988377851 1.5597542567888518 0.33384676905614585
v 1.4990848014728457 1.4997092865900965 0.37095660149245113
v 1.5814027021208106 0.53094938953885751 0.41455611924057378
v 1.6600477085388232 0.88291171967837045 0.23151318487510575
v 1.6444944912205686 0.69612583781306459 0.31247146006612481
v 1.5432590180780452 0.53488929329441626 0.31490645449946347
v 1.4990848014728457 0.46029071340990346 0.37095660149245113
v 1.3038741621869354 0.70247146006612482 -0.03449449122056869
v 1.6000438513907786 0.91999614285195541 0.13442490455347633
v 1.4690506104611425 0.8045561192405738 0.02859729787918952
v 1.6065604296518683 0.82236307941964393 0.16727377223957557
v 1.3666380896415462 0.64404703019273535 0.029127789164645423
v 1.1184726170640376 0.9191405756932719 -0.14088937204040197
v 1.3057786653348182 0.80337907156350097 -0.069344827899392225
v 1.5808722108353546 0.63336191035845368 0.25404703019273533
v 1.465110706705584 0.70490645449946343 0.066740981921954878
v 1.5997542567888519 0.72384676905614587 0.20807000116221475
v 1.4984675659303215 0.56245188329332907 0.21010217348946852
v 1.5397092865900963 0.76095660149245115 0.11091519852715426
v 1.437548116706671 0.60010217348946848 0.11153243406967855
v 1.1170882803216295 1.3384868151248943 -0.050047708538823343
v 1.3038741621869354 1.2575285399338751 -0.03449449122056869
v 1.1776369205803561 1.4027262277604244 0.0034395703481318041
v 1.1174249748005278 1.2450893071800684 -0.093985404452396115
v 1.6000438513907786 1.0400038571480446 0.13442490455347633
v 1.4690506104611425 1.1554438807594263 0.02859729787918952
v 1.6065604296518683 1.137636920580356 0.16727377223957557
v 1.5463484838720403 0.97999999999999998 0.069848797439047816
v 1.2950935455005366 1.5032590180780452 0.14488929329441613
v 1.3666380896415462 1.3159529698072645 0.029127789164645423
v 1.2390433985075489 1.4590848014728457 0.07029071340990356
v 1.3998978265105315 1.4584675659303215 0.17245188329332906
v 1.2761532309438541 1.3619299988377853 0.010245743211148239
v 1.1184726170640376 1.0408594243067282 -0.14088937204040197
v 1.3057786653348182 1.156620928436499 -0.069344827899392225
v 1.1182664328526479 1.1428866003302365 -0.12513052207780495
v 1.21713947883958 0.97999999999999998 -0.12325733496604074
v 1.2154212354877085 1.2029315705289918 -0.088020689641499672
v 1.5808722108353546 1.3266380896415462 0.25404703019273533
v 1.465110706705584 1.2550935455005365 0.066740981921954878
v 1.5997542567888519 1.2361532309438541 0.20807000116221475
v 1.4984675659303215 1.397548116706671 0.21010217348946852
v 1.5397092865900963 1.1990433985075488 0.11091519852715426
v 1.437548116706671 1.3598978265105315 0.11153243406967855
v 1.4042512823988558 0.86423849587022916 -0.03173163514208277
v 1.4042512823988558 1.0957615041297708 -0.03173163514208277
v 1.4789772911339507 0.91995502980124466 0.012648765674506235
v 1.3157092182593699 0.91908055077634943 -0.08560704476990133
v 1.4789772911339507 1.0400449701987553 0.012648765674506235
v 1.3157092182593699 1.0409194492236504 -0.08560704476990133
v 1.4755750954465237 1.5600438513907786 0.65000385714804454
v 1.5814027021208106 1.4290506104611425 0.76544388075942615
v 1.4427262277604245 1.5665604296518683 0.74763692058035602
v 1.5401512025609523 1.5063484838720402 0.58999999999999997
v 1.6600477085388232 1.0770882803216295 0.94848681512489419
v 1.6444944912205686 1.2638741621869354 0.86752853993387513
v 1.3559529698072645 1.5408722108353545 0.93663808964154627
v 1.5432590180780452 1.4251107067055837 0.86509354550053641
v 1.4019299988377851 1.5597542567888518 0.84615323094385408
v 1.4990848014728457 1.4997092865900965 0.80904339850754881
v 1.6417316351420828 1.3642512823988557 0.47423849587022915
v 1.6417316351420828 1.3642512823988557 0.70576150412977079
v 1.5973512343254939 1.4389772911339507 0.52995502980124465
v 1.5973512343254939 1.4389772911339507 0.65004497019875529
v 1.5814027021208106 0.53094938953885751 0.76544388075942615
v 1.5401512025609523 0.45365151612795984 0.58999999999999997
v 1.6600477085388232 0.88291171967837045 0.94848681512489419
v 1.6444944912205686 0.69612583781306459 0.86752853993387513
v 1.5432590180780452 0.53488929329441626 0.86509354550053641
v 1.4990848014728457 0.46029071340990346 0.80904339850754881
v 1.6417316351420828 0.59574871760114423 0.47423849587022915
v 1.6417316351420828 0.59574871760114423 0.70576150412977079
v 1.5973512343254939 0.52102270886604918 0.52995502980124465
v 1.5973512343254939 0.52102270886604918 0.65004497019875529
v 1.3038741621869354 0.70247146006612482 1.2144944912205686
v 1.6000438513907786 0.91999614285195541 1.0455750954465235
v 1.4690506104611425 0.8045561192405738 1.1514027021208104
v 1.6065604296518683 0.82236307941964393 1.0127262277604243
v 1.3666380896415462 0.64404703019273535 1.1508722108353546
v 1.3998978265105315 0.50153243406967851 1.0075481167066709
v 1.2761532309438541 0.59807000116221476 1.1697542567888517
v 1.1184726170640376 0.9191405756932719 1.3208893720404018
v 1.3057786653348182 0.80337907156350097 1.2493448278993922
v 1.1182664328526479 0.8171133996697636 1.3051305220778049
v 1.2154212354877085 0.75706842947100816 1.2680206896414996
v 1.5808722108353546 0.63336191035845368 0.9259529698072646
v 1.465110706705584 0.70490645449946343 1.1132590180780451
v 1.5997542567888519 0.72384676905614587 0.97192999883778519
v 1.4984675659303215 0.56245188329332907 0.96989782651053136
v 1.5397092865900963 0.76095660149245115 1.0690848014728456
v 1.437548116706671 0.60010217348946848 1.0684675659303213
v 1.1170882803216295 1.3384868151248943 1.2300477085388233
v 1.3038741621869354 1.2575285399338751 1.2144944912205686
v 1.1776369205803561 1.4027262277604244 1.1765604296518681
v 1.1174249748005278 1.2450893071800684 1.2739854044523962
v 1.6000438513907786 1.0400038571480446 1.0455750954465235
v 1.4690506104611425 1.1554438807594263 1.1514027021208104
v 1.6065604296518683 1.137636920580356 1.0127262277604243
v 1.5463484838720403 0.97999999999999998 1.1101512025609521
v 1.2950935455005366 1.5032590180780452 1.0351107067055838
v 1.3666380896415462 1.3159529698072645 1.1508722108353546
v 1.2390433985075489 1.4590848014728457 1.1097092865900964
v 1.3998978265105315 1.4584675659303215 1.0075481167066709
v 1.2761532309438541 1.3619299988377853 1.1697542567888517
v 1.1184726170640376 1.0408594243067282 1.3208893720404018
v 1.3057786653348182 1.156620928436499 1.2493448278993922
v 1.1182664328526479 1.1428866003302365 1.3051305220778049
v 1.21713947883958 0.97999999999999998 1.3032573349660406
v 1.2154212354877085 1.2029315705289918 1.2680206896414996
v 1.5808722108353546 1.3266380896415462 0.9259529698072646
v 1.465110706705584 1.2550935455005365 1.1132590180780451
v 1.5997542567888519 1.2361532309438541 0.97192999883778519
v 1.4984675659303215 1.397548116706671 0.96989782651053136
v 1.5397092865900963 1.1990433985075488 1.0690848014728456
v 1.437548116706671 1.3598978265105315 1.0684675659303213
v 1.4042512823988558 0.86423849587022916 1.2117316351420828
v 1.4042512823988558 1.0957615041297708 1.2117316351420828
v 1.4789772911339507 0.91995502980124466 1.1673512343254937
v 1.3157092182593699 0.91908055077634943 1.2656070447699013
v 1.4789772911339507 1.0400449701987553 1.1673512343254937
v 1.3157092182593699 1.0409194492236504 1.2656070447699013
v 1.6971321317124084 0.97999999999999998 0.29151704202315032
v 1.7529247726480777 0.97999999999999998 0.48791534082555099
v 1.7039854044523961 1.0774249748005278 0.32491069281993157
v 1.7039854044523961 0.88257502519947217 0.32491069281993157
v 1.6971321317124084 0.97999999999999998 0.88848295797684962
v 1.7529247726480777 0.97999999999999998 0.69208465917444895
v 1.7039854044523961 1.0774249748005278 0.85508930718006837
v 1.7039854044523961 0.88257502519947217 0.85508930718006837
v 1.6793448278993921 1.2657786653348182 0.41337907156350101
v 1.750889372040402 1.0784726170640375 0.52914057569327189
v 1.6980206896414995 1.1754212354877085 0.36706842947100821
v 1.6956070447699014 1.2757092182593699 0.52908055077634941
v 1.7351305220778048 1.0782664328526479 0.42711339966976358
v 1.6793448278993921 0.69422133466518177 0.41337907156350101
v 1.750889372040402 0.88152738293596244 0.52914057569327189
v 1.6980206896414995 0.78457876451229147 0.36706842947100821
v 1.6956070447699014 0.68429078174063007 0.52908055077634941
v 1.7351305220778048 0.88173356714735218 0.42711339966976358
v 1.6793448278993921 1.2657786653348182 0.76662092843649887
v 1.750889372040402 1.0784726170640375 0.65085942430672805
v 1.6980206896414995 1.1754212354877085 0.81293157052899168
v 1.6956070447699014 1.2757092182593699 0.65091944922365053
v 1.7351305220778048 1.0782664328526479 0.75288660033023636
v 1.7332573349660407 1.1771394788395799 0.58999999999999997
v 1.6793448278993921 0.69422133466518177 0.76662092843649887
v 1.750889372040402 0.88152738293596244 0.65085942430672805
v 1.6980206896414995 0.78457876451229147 0.81293157052899168
v 1.6956070447699014 0.68429078174063007 0.65091944922365053
v 1.7351305220778048 0.88173356714735218 0.75288660033023636
v 1.7332573349660407 0.78286052116042004 0.58999999999999997
v 0.56442490455347638 1.5600438513907786 0.5299961428519554
v 0.59727377223957556 1.5665604296518683 0.43236307941964391
v 0.68404703019273538 1.5408722108353545 0.24336191035845373
v 0.63807000116221491 1.5597542567888518 0.33384676905614585
v 0.5409151985271542 1.4997092865900965 0.37095660149245113
v 0.92291171967837049 1.3384868151248943 -0.050047708538823343
v 0.73612583781306462 1.2575285399338751 -0.03449449122056869
v 0.86236307941964396 1.4027262277604244 0.0034395703481318041
v 0.92257502519947221 1.2450893071800684 -0.093985404452396115
v 0.74490645449946347 1.5032590180780452 0.14488929329441613
v 0.67336191035845372 1.3159529698072645 0.029127789164645423
v 0.80095660149245118 1.4590848014728457 0.07029071340990356
v 0.64010217348946852 1.4584675659303215 0.17245188329332906
v 0.7638467690561459 1.3619299988377853 0.010245743211148239
v 0.92173356714735222 1.1428866003302365 -0.12513052207780495
v 0.82457876451229151 1.2029315705289918 -0.088020689641499672
v 0.54153243406967855 1.397548116706671 0.21010217348946852
v 0.6024518832933291 1.3598978265105315 0.11153243406967855
v 0.56442490455347638 1.5600438513907786 0.65000385714804454
v 0.59727377223957556 1.5665604296518683 0.74763692058035602
v 0.49984879743904786 1.5063484838720402 0.58999999999999997
v 0.68404703019273538 1.5408722108353545 0.93663808964154627
v 0.49674098192195493 1.4251107067055837 0.86509354550053641
v 0.63807000116221491 1.5597542567888518 0.84615323094385408
v 0.5409151985271542 1.4997092865900965 0.80904339850754881
v 0.92291171967837049 1.3384868151248943 1.2300477085388233
v 0.73612583781306462 1.2575285399338751 1.2144944912205686
v 0.86236307941964396 1.4027262277604244 1.1765604296518681
v 0.92257502519947221 1.2450893071800684 1.2739854044523962
v 0.74490645449946347 1.5032590180780452 1.0351107067055838
v 0.67336191035845372 1.3159529698072645 1.1508722108353546
v 0.80095660149245118 1.4590848014728457 1.1097092865900964
v 0.64010217348946852 1.4584675659303215 1.0075481167066709
v 0.7638467690561459 1.3619299988377853 1.1697542567888517
v 0.92152738293596248 1.0408594243067282 1.3208893720404018
v 0.7342213346651818 1.156620928436499 1.2493448278993922
v 0.92173356714735222 1.1428866003302365 1.3051305220778049
v 0.82457876451229151 1.2029315705289918 1.2680206896414996
v 0.54153243406967855 1.397548116706671 0.96989782651053136
v 0.6024518832933291 1.3598978265105315 1.0684675659303213
f 287 10 303
f 336 258 339
f 339 258 69
f 37 134 145
f 162 134 37
f 120 287 289
f 10 287 120
f 25 263 93
f 319 83 335
f 210 224 222
f 220 199 222
f 221 212 225
f 221 224 209
f 16 221 209
f 212 221 16
f 135 37 145
f 145 134 142
f 137 146 142
f 137 142 12
f 12 142 134
f 360 496 537
f 537 516 360
f 540 516 537
f 82 316 314
f 312 82 314
f 315 82 312
f 305 303 80
f 305 287 303
f 77 305 315
f 289 287 77
f 287 305 77
f 314 316 301
f 118 116 111
f 27 116 99
f 27 111 116
f 23 128 90
f 90 100 23
f 95 25 93
f 95 23 100
f 263 25 269
f 269 267 72
f 269 94 267
f 25 94 269
f 99 116 113
f 113 115 97
f 97 115 26
f 335 83 321
f 220 201 15
f 15 201 196
f 15 199 220
f 18 258 336
f 336 254 18
f 338 254 336
f 306 254 308
f 306 309 255
f 255 18 306
f 306 18 254
f 311 309 81
f 308 310 81
f 81 306 308
f 309 306 81
f 432 693 687
f 677 693 432
f 69 258 260
f 369 630 650
f 592 408 572
f 601 558 403
f 570 407 632
f 632 407 651
f 647 422 630
f 687 693 694
f 413 587 588
f 450 560 562
f 186 120 32
f 32 120 289
f 278 32 289
f 119 32 278
f 161 164 157
f 60 222 224
f 60 221 225
f 224 221 60
f 220 222 60
f 217 16 245
f 245 16 209
f 66 245 247
f 247 245 209
f 145 142 39
f 39 142 146
f 125 141 11
f 58 214 225
f 225 212 58
f 223 201 220
f 225 214 223
f 223 60 225
f 220 60 223
f 55 201 223
f 223 214 55
f 215 56 206
f 215 58 212
f 207 56 219
f 217 59 219
f 219 218 207
f 59 218 219
f 212 16 205
f 205 215 212
f 56 215 205
f 205 16 217
f 217 219 205
f 205 219 56
f 137 12 131
f 131 140 137
f 36 140 131
f 163 170 169
f 537 496 539
f 523 515 519
f 521 523 395
f 523 519 395
f 395 519 522
f 297 21 304
f 317 82 315
f 315 305 317
f 80 304 317
f 317 305 80
f 315 312 288
f 288 77 315
f 276 288 20
f 20 288 312
f 196 53 273
f 273 53 264
f 98 90 7
f 98 100 90
f 98 27 100
f 111 27 98
f 35 128 129
f 90 128 126
f 126 139 136
f 128 35 126
f 126 35 139
f 7 90 126
f 126 136 7
f 197 33 121
f 202 33 197
f 196 201 203
f 203 53 196
f 203 197 53
f 203 201 55
f 55 202 203
f 202 197 203
f 89 1 121
f 23 95 89
f 93 1 89
f 89 95 93
f 19 291 266
f 283 76 286
f 286 276 283
f 276 20 283
f 283 20 292
f 72 294 268
f 268 291 19
f 268 294 291
f 263 70 261
f 93 263 261
f 261 1 93
f 261 70 264
f 100 27 101
f 101 95 100
f 101 27 99
f 25 95 101
f 99 94 101
f 101 94 25
f 31 116 118
f 117 115 31
f 31 113 116
f 115 113 31
f 54 222 199
f 210 222 54
f 199 15 331
f 334 86 331
f 300 310 308
f 308 254 68
f 68 300 308
f 253 300 68
f 254 338 68
f 324 68 338
f 253 68 324
f 355 460 446
f 677 432 679
f 679 432 678
f 341 337 87
f 339 341 87
f 336 339 87
f 87 338 336
f 654 650 426
f 426 652 654
f 630 422 653
f 653 650 630
f 422 632 653
f 653 426 650
f 653 632 651
f 651 426 653
f 409 652 575
f 366 575 649
f 649 575 652
f 649 426 651
f 652 426 649
f 353 579 570
f 30 109 118
f 118 111 30
f 589 572 366
f 589 592 572
f 580 593 411
f 579 602 411
f 590 593 580
f 580 367 590
f 590 367 582
f 570 579 581
f 581 593 591
f 581 407 570
f 591 407 581
f 579 411 581
f 581 411 593
f 591 593 414
f 414 589 591
f 592 589 414
f 593 590 414
f 687 694 434
f 21 297 302
f 415 612 596
f 609 612 418
f 368 596 609
f 609 596 612
f 587 413 585
f 585 466 587
f 357 466 585
f 585 608 357
f 404 561 563
f 563 562 404
f 404 562 560
f 462 464 378
f 378 460 462
f 376 464 454
f 454 464 462
f 462 373 454
f 454 373 443
f 275 96 3
f 3 119 275
f 119 278 275
f 38 146 137
f 137 140 38
f 38 139 146
f 136 139 38
f 41 151 155
f 569 391 576
f 576 574 409
f 506 391 510
f 510 509 506
f 574 576 506
f 506 576 391
f 248 59 217
f 248 245 66
f 217 245 248
f 57 224 210
f 209 224 57
f 57 247 209
f 234 149 13
f 236 149 234
f 234 64 236
f 329 339 69
f 329 341 339
f 327 337 341
f 327 319 22
f 22 337 327
f 143 34 135
f 143 39 141
f 143 141 125
f 125 34 143
f 143 135 145
f 145 39 143
f 204 56 207
f 206 56 204
f 124 34 206
f 206 204 124
f 124 204 4
f 135 34 124
f 37 135 133
f 135 124 133
f 133 124 4
f 147 204 207
f 4 204 147
f 144 39 146
f 141 39 144
f 146 139 144
f 139 35 144
f 125 11 211
f 214 58 211
f 200 202 55
f 55 214 200
f 214 211 200
f 200 211 11
f 148 165 167
f 13 165 148
f 516 540 394
f 152 131 12
f 162 164 44
f 170 163 44
f 44 161 170
f 164 161 44
f 541 539 527
f 527 396 541
f 430 666 668
f 430 664 666
f 536 396 526
f 526 534 536
f 662 429 668
f 668 666 662
f 666 381 662
f 663 429 660
f 660 495 663
f 351 495 660
f 429 662 660
f 524 396 527
f 527 495 524
f 524 495 351
f 524 526 396
f 515 511 363
f 363 519 515
f 363 511 517
f 517 394 551
f 551 394 540
f 518 509 521
f 521 395 518
f 365 559 643
f 555 561 365
f 563 561 555
f 500 530 389
f 503 361 542
f 542 361 501
f 313 317 304
f 304 21 313
f 21 299 313
f 313 299 316
f 316 82 313
f 82 317 313
f 74 275 278
f 74 276 286
f 292 20 280
f 280 20 312
f 280 312 314
f 280 295 292
f 71 265 325
f 346 325 84
f 347 86 334
f 281 265 71
f 53 197 195
f 264 53 195
f 121 1 195
f 195 197 121
f 195 261 264
f 1 261 195
f 129 128 123
f 123 89 121
f 121 33 123
f 123 33 129
f 128 23 123
f 23 89 123
f 284 282 97
f 97 26 284
f 76 282 284
f 286 76 284
f 267 94 8
f 97 282 8
f 8 282 267
f 8 94 99
f 8 113 97
f 99 113 8
f 292 295 78
f 291 294 78
f 285 282 76
f 267 282 285
f 72 267 285
f 285 294 72
f 270 70 263
f 72 268 270
f 270 269 72
f 263 269 270
f 66 247 249
f 271 15 196
f 271 331 15
f 334 331 271
f 196 273 271
f 321 54 333
f 333 331 86
f 333 54 199
f 199 331 333
f 335 321 333
f 333 86 335
f 79 301 316
f 310 300 79
f 316 299 79
f 79 299 310
f 322 324 84
f 84 325 322
f 6 253 322
f 253 324 322
f 322 265 6
f 322 325 265
f 447 374 445
f 445 374 458
f 377 458 465
f 465 458 463
f 446 460 463
f 463 374 446
f 458 374 463
f 463 378 465
f 460 378 463
f 676 432 687
f 678 432 676
f 687 434 684
f 684 434 686
f 684 676 687
f 355 676 684
f 674 679 678
f 251 255 256
f 256 67 251
f 251 18 255
f 258 18 251
f 251 260 258
f 251 67 260
f 679 674 431
f 372 442 440
f 372 674 678
f 440 674 372
f 340 324 338
f 338 87 340
f 340 87 337
f 84 324 340
f 651 407 571
f 571 649 651
f 366 649 571
f 571 589 366
f 571 407 591
f 591 589 571
f 623 602 416
f 558 601 599
f 599 353 558
f 599 601 416
f 416 602 599
f 599 602 579
f 579 353 599
f 558 353 629
f 629 632 422
f 570 632 629
f 629 353 570
f 117 29 107
f 107 115 117
f 107 26 115
f 107 96 26
f 49 183 181
f 117 31 114
f 114 31 118
f 118 109 114
f 109 9 114
f 180 187 186
f 186 32 180
f 180 32 119
f 582 367 578
f 588 410 578
f 187 180 48
f 577 406 569
f 409 575 577
f 569 576 577
f 577 576 409
f 366 572 568
f 568 575 366
f 568 577 575
f 406 577 568
f 573 568 572
f 406 568 573
f 572 408 573
f 621 411 602
f 602 623 621
f 621 623 420
f 580 411 621
f 592 414 594
f 594 414 590
f 583 592 594
f 594 590 582
f 594 582 412
f 358 664 657
f 307 302 311
f 310 299 307
f 307 299 21
f 21 302 307
f 311 81 307
f 307 81 310
f 417 603 605
f 453 464 376
f 376 605 453
f 453 605 603
f 604 618 417
f 604 614 618
f 604 596 368
f 368 614 604
f 606 404 560
f 560 603 606
f 606 603 417
f 417 618 606
f 610 608 418
f 418 612 610
f 357 608 468
f 608 610 468
f 468 610 379
f 462 460 444
f 444 373 462
f 460 355 444
f 355 684 444
f 686 373 444
f 444 684 686
f 680 433 683
f 686 434 688
f 683 433 692
f 379 610 598
f 598 610 612
f 598 612 415
f 415 595 598
f 376 454 452
f 452 454 443
f 169 153 42
f 42 153 155
f 42 163 169
f 42 152 163
f 250 248 66
f 235 64 250
f 247 57 230
f 230 249 247
f 668 429 661
f 236 64 238
f 238 226 61
f 235 226 238
f 238 64 235
f 326 329 257
f 257 329 69
f 85 329 326
f 341 329 85
f 85 327 341
f 158 164 162
f 162 37 158
f 37 133 158
f 127 11 141
f 141 144 127
f 127 35 129
f 127 144 35
f 213 211 58
f 213 215 206
f 58 215 213
f 206 34 213
f 213 34 125
f 125 211 213
f 122 33 202
f 202 200 122
f 122 200 11
f 11 127 122
f 129 33 122
f 122 127 129
f 40 148 167
f 167 159 40
f 40 159 147
f 218 148 40
f 207 218 40
f 40 147 207
f 216 234 13
f 13 148 216
f 216 148 218
f 216 218 59
f 167 165 45
f 160 12 134
f 160 152 12
f 163 152 160
f 160 134 162
f 162 44 160
f 160 44 163
f 527 539 387
f 387 495 527
f 387 539 496
f 496 669 387
f 387 669 663
f 663 495 387
f 553 551 540
f 525 396 536
f 525 541 396
f 667 428 657
f 657 664 667
f 664 430 667
f 536 534 398
f 545 542 400
f 503 542 545
f 503 545 390
f 390 545 535
f 481 524 351
f 526 524 481
f 472 662 381
f 472 481 351
f 351 660 472
f 472 660 662
f 548 363 517
f 517 551 548
f 529 552 549
f 520 518 395
f 520 395 522
f 508 520 392
f 518 520 508
f 641 424 654
f 654 652 641
f 409 574 641
f 641 652 409
f 546 543 400
f 546 529 543
f 528 530 500
f 646 643 425
f 564 405 636
f 636 405 646
f 637 423 634
f 556 562 563
f 646 405 565
f 565 643 646
f 365 643 565
f 565 555 365
f 566 388 557
f 566 405 564
f 499 388 505
f 503 390 505
f 635 389 501
f 635 423 637
f 498 361 503
f 503 505 498
f 498 505 388
f 564 361 498
f 498 566 564
f 388 566 498
f 501 389 544
f 544 542 501
f 544 389 530
f 400 542 544
f 544 546 400
f 530 546 544
f 290 288 276
f 276 74 290
f 290 74 278
f 77 288 290
f 289 77 290
f 290 278 289
f 19 272 262
f 262 268 19
f 70 270 262
f 262 270 268
f 334 271 73
f 73 271 273
f 71 325 344
f 344 266 71
f 344 346 88
f 325 346 344
f 323 346 84
f 323 337 22
f 84 340 323
f 323 340 337
f 342 344 88
f 266 344 342
f 19 266 342
f 342 272 19
f 335 86 332
f 86 347 332
f 332 319 335
f 22 319 332
f 293 281 71
f 71 266 293
f 293 266 291
f 291 78 293
f 295 281 293
f 293 78 295
f 314 301 75
f 75 281 295
f 75 280 314
f 295 280 75
f 96 275 277
f 286 284 277
f 277 74 286
f 275 74 277
f 26 96 277
f 277 284 26
f 292 78 296
f 296 78 294
f 296 283 292
f 294 285 296
f 76 283 296
f 296 285 76
f 210 54 198
f 198 54 321
f 208 57 210
f 210 198 208
f 208 198 5
f 208 230 57
f 208 5 227
f 227 230 208
f 318 321 83
f 318 198 321
f 5 198 318
f 301 79 298
f 298 79 300
f 298 253 6
f 298 300 253
f 447 445 437
f 456 377 465
f 458 377 455
f 455 445 458
f 459 456 450
f 377 456 459
f 675 431 673
f 673 431 674
f 673 674 440
f 442 372 448
f 446 374 448
f 447 442 448
f 448 374 447
f 678 676 441
f 441 372 678
f 441 676 355
f 441 355 446
f 446 448 441
f 441 448 372
f 418 608 611
f 608 585 611
f 611 585 413
f 413 622 611
f 600 623 416
f 600 614 368
f 420 623 620
f 623 600 620
f 368 609 620
f 620 600 368
f 422 647 631
f 631 629 422
f 558 629 631
f 403 558 631
f 174 181 9
f 9 181 106
f 106 114 9
f 106 183 29
f 106 181 183
f 106 29 117
f 117 114 106
f 177 119 3
f 177 180 119
f 177 48 180
f 586 578 367
f 588 578 586
f 586 413 588
f 586 622 413
f 582 578 584
f 48 177 179
f 29 183 179
f 136 38 138
f 138 38 140
f 580 621 619
f 622 586 619
f 420 622 619
f 619 621 420
f 619 367 580
f 619 586 367
f 440 442 436
f 659 427 656
f 470 358 657
f 416 601 617
f 617 600 416
f 614 600 617
f 607 604 417
f 417 605 607
f 415 596 607
f 596 604 607
f 357 468 689
f 433 688 681
f 681 692 433
f 682 680 443
f 686 688 682
f 682 373 686
f 443 373 682
f 433 680 682
f 682 688 433
f 467 680 683
f 467 598 595
f 683 379 467
f 379 598 467
f 155 151 154
f 154 42 155
f 152 42 154
f 154 151 36
f 36 131 154
f 131 152 154
f 66 249 246
f 246 250 66
f 235 250 246
f 226 231 233
f 665 430 668
f 63 231 244
f 663 669 670
f 670 429 663
f 69 260 259
f 259 257 69
f 190 257 259
f 326 257 14
f 14 257 190
f 242 244 65
f 65 239 242
f 327 85 330
f 83 319 330
f 319 327 330
f 328 85 326
f 328 330 85
f 157 164 43
f 164 158 43
f 59 248 237
f 237 216 59
f 248 250 237
f 234 216 237
f 64 234 237
f 237 250 64
f 168 45 166
f 168 43 159
f 168 159 167
f 167 45 168
f 168 166 157
f 157 43 168
f 549 552 401
f 401 553 549
f 401 552 550
f 551 553 401
f 550 548 401
f 401 548 551
f 539 541 399
f 399 553 540
f 399 540 537
f 537 539 399
f 541 525 538
f 538 399 541
f 553 399 538
f 549 553 538
f 672 667 430
f 547 398 535
f 535 545 547
f 400 543 547
f 547 545 400
f 550 393 513
f 513 548 550
f 363 548 513
f 519 363 513
f 513 393 522
f 522 519 513
f 543 529 364
f 364 529 549
f 364 538 525
f 549 538 364
f 574 506 362
f 509 518 362
f 362 506 509
f 518 508 362
f 424 641 638
f 638 641 574
f 574 362 638
f 638 362 508
f 628 625 421
f 421 642 628
f 500 625 352
f 352 528 500
f 550 552 531
f 531 393 550
f 397 546 530
f 530 528 397
f 529 546 397
f 552 529 397
f 397 531 552
f 528 531 397
f 564 636 633
f 633 361 564
f 501 361 633
f 633 635 501
f 633 636 423
f 423 635 633
f 648 636 646
f 646 425 648
f 423 636 648
f 648 634 423
f 644 630 369
f 369 634 644
f 634 648 644
f 644 647 630
f 644 425 647
f 644 648 425
f 402 556 563
f 563 555 402
f 557 388 497
f 497 388 499
f 449 349 438
f 567 565 405
f 567 566 557
f 405 566 567
f 557 402 567
f 555 565 567
f 567 402 555
f 627 625 500
f 627 635 637
f 637 421 627
f 627 421 625
f 500 389 627
f 389 635 627
f 334 73 345
f 345 73 272
f 345 347 334
f 272 342 345
f 88 347 345
f 345 342 88
f 274 273 264
f 274 73 273
f 272 73 274
f 264 70 274
f 70 262 274
f 274 262 272
f 346 323 343
f 88 346 343
f 343 347 88
f 343 332 347
f 343 323 22
f 22 332 343
f 279 75 301
f 279 298 6
f 301 298 279
f 281 75 279
f 6 265 279
f 265 281 279
f 241 239 65
f 65 243 241
f 241 243 229
f 241 229 51
f 51 229 191
f 5 318 191
f 227 5 191
f 191 229 227
f 450 456 356
f 356 603 560
f 356 560 450
f 356 453 603
f 461 456 465
f 464 453 461
f 453 356 461
f 461 356 456
f 465 378 461
f 461 378 464
f 375 459 450
f 450 562 375
f 562 556 375
f 375 556 449
f 624 622 420
f 420 620 624
f 624 611 622
f 624 620 609
f 624 609 418
f 418 611 624
f 647 425 645
f 645 631 647
f 645 425 643
f 403 631 645
f 645 559 403
f 645 643 559
f 47 188 184
f 184 174 47
f 181 174 184
f 184 189 49
f 49 181 184
f 109 30 112
f 30 110 112
f 178 48 185
f 48 179 185
f 49 182 185
f 185 183 49
f 185 179 183
f 29 179 105
f 105 107 29
f 105 177 3
f 105 179 177
f 3 96 105
f 96 107 105
f 150 41 173
f 151 41 150
f 173 46 171
f 171 150 173
f 2 150 171
f 36 151 130
f 130 2 91
f 151 150 130
f 130 150 2
f 108 98 7
f 111 98 108
f 108 30 111
f 108 110 30
f 348 673 440
f 440 436 348
f 471 436 370
f 447 437 370
f 370 442 447
f 370 436 442
f 358 489 473
f 664 358 473
f 666 664 473
f 473 381 666
f 358 470 475
f 475 489 358
f 492 475 382
f 489 475 492
f 615 617 601
f 403 559 615
f 615 601 403
f 597 452 595
f 597 607 605
f 597 605 376
f 376 452 597
f 597 595 415
f 415 607 597
f 683 692 691
f 691 379 683
f 691 468 379
f 691 689 468
f 685 681 688
f 685 434 694
f 685 688 434
f 692 681 690
f 443 680 350
f 350 452 443
f 595 452 350
f 680 467 350
f 350 467 595
f 190 259 50
f 50 194 190
f 252 259 260
f 260 67 252
f 252 50 259
f 326 14 192
f 192 328 326
f 51 328 192
f 192 14 239
f 192 241 51
f 239 241 192
f 244 242 232
f 193 242 239
f 193 14 190
f 239 14 193
f 190 194 193
f 193 194 52
f 52 242 193
f 428 667 671
f 156 43 158
f 156 133 4
f 156 158 133
f 159 43 156
f 4 147 156
f 147 159 156
f 536 398 533
f 398 547 533
f 533 525 536
f 533 547 543
f 543 364 533
f 533 364 525
f 502 390 535
f 381 473 491
f 491 473 489
f 482 493 490
f 640 508 392
f 640 638 508
f 392 628 640
f 424 638 640
f 628 642 640
f 640 642 424
f 637 634 626
f 626 421 637
f 626 634 369
f 642 421 626
f 522 393 514
f 392 520 514
f 514 520 522
f 507 628 392
f 392 514 507
f 507 625 628
f 507 352 625
f 393 531 512
f 512 514 393
f 528 352 512
f 512 531 528
f 352 507 512
f 512 507 514
f 556 402 554
f 449 556 554
f 554 349 449
f 554 402 557
f 557 497 554
f 554 497 349
f 439 455 457
f 457 455 377
f 377 459 457
f 227 229 62
f 229 243 62
f 62 230 227
f 249 230 62
f 228 62 243
f 228 246 249
f 249 62 228
f 330 328 320
f 320 191 318
f 320 318 83
f 83 330 320
f 320 328 51
f 51 191 320
f 354 474 437
f 354 437 445
f 445 455 354
f 354 455 439
f 109 112 103
f 103 9 109
f 103 174 9
f 46 176 172
f 172 171 46
f 132 140 36
f 36 130 132
f 132 138 140
f 132 130 91
f 136 138 92
f 110 108 92
f 7 136 92
f 92 108 7
f 675 673 655
f 673 348 655
f 655 427 675
f 655 656 427
f 471 370 476
f 476 474 382
f 437 474 476
f 476 370 437
f 656 380 658
f 657 428 658
f 658 470 657
f 658 380 470
f 658 428 659
f 659 656 658
f 471 380 469
f 469 436 471
f 469 348 436
f 469 380 656
f 656 655 469
f 469 655 348
f 470 380 477
f 477 475 470
f 477 380 471
f 382 475 477
f 477 476 382
f 471 476 477
f 617 615 419
f 618 614 419
f 614 617 419
f 613 615 559
f 613 559 365
f 365 561 613
f 613 419 615
f 435 691 692
f 692 690 435
f 689 691 435
f 390 502 504
f 499 505 504
f 504 505 390
f 504 502 479
f 385 485 494
f 494 485 490
f 483 472 381
f 381 491 483
f 481 472 483
f 483 491 493
f 493 482 384
f 481 483 384
f 384 483 493
f 384 482 534
f 534 526 384
f 526 481 384
f 534 482 532
f 532 398 534
f 535 398 532
f 532 502 535
f 642 626 639
f 654 424 639
f 424 642 639
f 639 650 654
f 369 650 639
f 639 626 369
f 449 438 451
f 451 457 459
f 451 375 449
f 459 375 451
f 371 486 439
f 439 457 371
f 371 451 438
f 457 451 371
f 484 486 385
f 439 486 484
f 484 354 439
f 474 354 484
f 480 371 438
f 486 371 480
f 17 231 226
f 235 246 17
f 17 226 235
f 246 228 17
f 244 231 240
f 240 228 243
f 231 17 240
f 240 17 228
f 65 244 240
f 240 243 65
f 174 103 175
f 47 174 175
f 175 176 47
f 175 172 176
f 104 112 110
f 110 92 24
f 91 104 24
f 24 104 110
f 24 92 138
f 24 132 91
f 138 132 24
f 618 419 616
f 419 613 616
f 616 606 618
f 616 613 561
f 561 404 616
f 404 606 616
f 493 491 386
f 492 494 386
f 489 492 386
f 386 491 489
f 490 493 386
f 386 494 490
f 479 502 359
f 359 532 482
f 502 532 359
f 359 485 479
f 490 485 359
f 359 482 490
f 487 494 492
f 474 484 487
f 382 474 487
f 487 492 382
f 385 494 487
f 487 484 385
f 479 485 488
f 488 485 385
f 385 486 488
f 486 480 488
f 28 103 112
f 28 175 103
f 172 175 28
f 112 104 28
f 383 504 479
f 479 488 383
f 499 504 383
f 383 488 480
f 172 28 102
f 2 171 102
f 171 172 102
f 102 28 104
f 91 2 102
f 102 104 91
f 499 383 478
f 478 497 499
f 349 497 478
f 478 383 480
f 478 438 349
f 478 480 438
f 693 677 255
f 255 309 693
f 170 523 521
f 170 521 169
f 10 120 466
f 357 10 466
f 186 587 466
f 466 120 186
f 694 693 309
f 694 309 311
f 157 166 511
f 511 166 517
f 157 511 161
f 161 511 515
f 523 170 161
f 161 515 523
f 496 360 149
f 149 360 13
f 496 149 669
f 669 149 236
f 13 360 165
f 165 360 516
f 255 677 679
f 256 255 679
f 187 587 186
f 588 587 187
f 406 46 173
f 406 173 569
f 569 173 41
f 41 391 569
f 41 155 510
f 510 391 41
f 169 521 153
f 521 509 153
f 510 155 153
f 153 509 510
f 256 679 431
f 431 67 256
f 47 408 188
f 408 592 188
f 182 49 412
f 412 582 182
f 588 187 48
f 48 410 588
f 178 578 48
f 48 578 410
f 46 406 573
f 573 176 46
f 573 408 47
f 47 176 573
f 412 49 594
f 49 189 594
f 429 61 661
f 61 226 661
f 45 165 516
f 516 394 45
f 517 166 45
f 45 394 517
f 689 10 357
f 303 10 689
f 233 661 226
f 668 661 233
f 668 233 665
f 665 233 231
f 63 665 231
f 430 665 63
f 670 669 236
f 236 238 670
f 670 61 429
f 670 238 61
f 428 52 194
f 659 428 194
f 430 63 672
f 672 63 244
f 184 594 189
f 583 594 184
f 184 188 592
f 184 592 583
f 185 578 178
f 185 584 578
f 185 182 582
f 582 584 185
f 685 694 311
f 311 302 685
f 685 302 297
f 297 681 685
f 690 681 297
f 690 297 304
f 659 194 50
f 50 427 659
f 67 431 252
f 252 431 675
f 427 50 252
f 675 427 252
f 232 672 244
f 667 672 232
f 671 52 428
f 671 242 52
f 667 232 671
f 671 232 242
f 435 690 304
f 435 304 80
f 303 689 435
f 80 303 435
