# https://github.com/mikedh/trimesh
v -1.97793080 -1.99911220 -0.88390228
v -1.99843098 -1.99314256 -0.72368196
v -1.99516227 -1.99856110 -0.42449641
v -1.99999382 -1.98708863 -0.14893222
v -1.95568969 -1.98498876 -0.09330007
v -1.99872925 -1.93528802 -0.89429930
v -2.00276353 -1.93049474 -0.75951782
v -2.00053121 -1.80934126 -0.48441172
v -2.00213911 -1.91115911 -0.22283615
v -1.99570586 -1.89520485 -0.11450345
v -2.00064279 -1.68885751 -0.26270354
v -1.98450662 -1.64532430 -0.89911732
v -2.00094153 -1.58568890 -0.77385864
v -1.99105002 -1.65509064 -0.15016746
v -1.99997403 -1.42008181 -0.51649925
v -1.99178268 -1.40829236 -0.89830097
v -2.00083138 -1.40376480 -0.22452688
v -1.99271180 -1.31693144 -0.19633955
v -2.00140621 -1.25206984 -0.81256541
v -1.99754717 -1.11888010 -0.88617250
v -2.00002767 -1.07530291 -0.57579681
v -2.00040485 -1.17679871 -0.34837708
v -1.99209596 -1.01574452 -0.23738634
v -1.99772455 -0.88769669 -0.89454606
v -2.00080230 -1.04324211 -0.27047863
v -2.00178482 -0.92043520 -0.84572336
v -2.00001623 -0.83239545 -0.59497622
v -2.00043966 -0.96293397 -0.35328632
v -2.00089123 -0.73920457 -0.35238433
v -1.99224259 -0.79751579 -0.26785594
v -2.00162532 -0.73026834 -0.84482881
v -2.00017120 -0.55438228 -0.71978995
v -2.00082065 -0.51626014 -0.47249573
v -1.99061658 -0.54754667 -0.89915147
v -2.00152065 -0.52083107 -0.85467633
v -1.99937131 -0.57627640 -0.30629828
v -1.99845912 -0.29241301 -0.34364018
v -1.97476079 -0.37279540 -0.90114024
v -1.99769403 -0.27023378 -0.89262053
v -2.00139930 -0.24492221 -0.77643368
v -2.00072982 -0.22390385 -0.54474977
v -2.00009944 -0.03504283 -0.88009861
v -1.95511772 -0.04731054 -0.90106031
v -2.00106479 -0.04328097 -0.42282060
v -1.99470283 0.01877730 -0.38287485
v -2.00027634 -0.02551688 -0.68076816
v -2.00108268 0.14331685 -0.83835837
v -2.00084831 0.25764870 -0.53676966
v -1.99386956 0.27303689 -0.89827946
v -2.00099780 0.17191749 -0.44224137
v -2.00092913 0.36580645 -0.67525318
v -1.99743535 0.28064286 -0.42140293
v -2.00125720 0.50967633 -0.78657493
v -1.99767162 0.43982678 -0.45586270
v -1.99725892 0.60245239 -0.89354113
v -2.00047209 0.58442609 -0.47965085
v -2.00105526 0.73161726 -0.58265939
v -2.00205018 0.75104337 -0.83785513
v -1.93505265 0.62492191 -0.45390096
v -1.99720051 0.81269853 -0.89344373
v -1.99276044 0.78474825 -0.49063218
v -2.00094582 0.89321308 -0.70944026
v -2.00199582 0.99830930 -0.84593955
v -1.99779011 0.97215991 -0.52236721
v -2.00134112 1.04550331 -0.62709281
v -1.99859955 1.10515778 -0.88989285
v -2.00165941 1.20984714 -0.79650673
v -1.99449064 1.20205670 -0.54900768
v -2.00107600 1.23790019 -0.59891549
v -1.99938370 1.40779166 -0.89139727
v -2.00163676 1.42185562 -0.72590962
v -1.98655059 1.38988118 -0.57375422
v -2.00239708 1.60832625 -0.65118274
v -1.99730183 1.71097140 -0.62731132
v -1.99908664 1.79213481 -0.89591822
v -2.00390031 1.86590605 -0.78243694
v -2.00077440 1.90637617 -0.65423974
v -1.99926163 1.99920468 -0.76364931
v -1.99606420 1.99726658 -0.66498151
v -1.99343516 1.98930316 -0.89560500
v -1.92592789 -2.00205572 -0.68731299
v -1.91406895 -1.78186388 -0.11200168
v -1.84170903 -1.72868771 -0.90094486
v -1.91758801 -1.52760656 -0.14869369
v -1.85304655 -1.45719130 -0.90120694
v -1.91089036 -1.25077869 -0.90150031
v -1.92697098 -1.24711515 -0.18987521
v -1.95329596 -1.00735415 -0.90106764
v -1.82282259 -1.05055774 -0.19869177
v -1.76466562 -0.87734241 -0.90021190
v -1.94886948 -0.69444595 -0.90173456
v -1.94980551 -0.52603997 -0.29548240
v -1.72302093 -0.45281524 -0.90027150
v -1.84722163 -0.14773826 -0.32959539
v -1.91452028 0.12490587 -0.37942961
v -1.84007146 0.17177819 -0.90106943
v -1.86701669 0.36197000 -0.40397051
v -1.93903400 0.49829226 -0.90178022
v -1.94449450 0.72554605 -0.90108934
v -1.96058203 0.88804500 -0.90093693
v -1.94858433 0.89189344 -0.49379983
v -1.95368411 1.06216400 -0.90071735
v -1.94383384 1.14985125 -0.52833304
v -1.93712832 1.35237293 -0.90071180
v -1.91462447 1.54967039 -0.57951984
v -1.94676186 1.57581322 -0.90120241
v -1.94111587 1.85752230 -0.90317586
v -1.94408371 1.89100223 -0.63166097
v -1.92256119 1.99876456 -0.89006635
v -1.84964670 2.00398402 -0.78145245
v -1.80135752 -2.00082035 -0.33954832
v -1.96032812 -2.00310726 -0.20075987
v -1.92909624 -1.91349490 -0.90295604
v -1.85259356 -0.83341010 -0.23435771
v -1.79507162 -0.23468206 -0.90038314
v -1.95664336 1.18492489 -0.90096494
v -1.76609613 1.37762373 -0.52808723
v -1.95417096 1.70088105 -0.60835859
v -1.79989566 1.68610458 -0.90032801
v -1.75553490 1.99396043 -0.61455986
v -1.71762897 -1.88171859 -0.06166513
v -1.77526225 0.72369020 -0.90023288
v -1.72177126 0.78231471 -0.43665355
v -1.81572797 0.93861549 -0.90023568
v -1.81755199 -1.99639363 -0.89703736
v -1.79475381 -2.00301022 -0.16343900
v -1.78888168 -1.99721486 -0.06578277
v -1.81403913 -0.59954886 -0.26043692
v -1.79439069 -0.34228911 -0.29287711
v -1.82876183 1.06954639 -0.49672735
v -1.63508870 1.85660772 -0.56951454
v -1.74548711 1.17789655 -0.90009078
v -1.78899624 -2.00156636 -0.81223020
v -1.78353049 0.43445032 -0.90021059
v -1.71919193 0.51256489 -0.39833167
v -1.69663097 1.60645633 -0.54690567
v -1.66492237 -1.88898678 -0.90147331
v -1.66942562 -1.63996215 -0.08755706
v -1.64125051 -1.32445998 -0.12627648
v -1.71061863 -1.11355383 -0.90015146
v -1.67615749 -0.67942859 -0.90010807
v -1.76110579 -0.05870215 -0.90019020
v -1.75264301 1.42293470 -0.90009525
v -1.69812204 -1.99993975 -0.57331779
v -1.62498702 0.31673669 -0.35320502
v -1.70822884 1.92570477 -0.90170786
v -1.63287582 -0.50865180 -0.23909682
v -1.69156732 0.06131675 -0.32986531
v -1.63980796 1.99735789 -0.89480004
v -1.60773851 0.28903275 -0.90002397
v -1.58978011 -1.47669966 -0.89993378
v -1.60254242 -1.28949602 -0.89992872
v -1.65626647 -0.90125395 -0.18827745
v -1.61526825 1.26289086 -0.48376822
v -1.60661914 0.80263453 -0.89999756
v -1.59873678 1.01335840 -0.44566396
v -1.55841579 1.79264288 -0.90026137
v -1.60615505 2.00166278 -0.68697414
v -1.54507925 -0.10856801 -0.27842986
v -1.58788206 -1.99885602 -0.03283349
v -1.54075970 0.08285018 -0.89995208
v -1.46624340 1.58510082 -0.89986154
v -1.60691191 -0.70068581 -0.20712091
v -1.58410110 1.05475144 -0.89997324
v -1.50333108 -1.99711783 -0.89279494
v -1.56586589 -1.99981208 -0.42964908
v -1.54564454 -1.05891646 -0.14536042
v -1.49612810 0.56416659 -0.89991668
v -1.48970331 2.00230126 -0.85787007
v -1.52782931 -2.00214989 -0.82394937
v -1.47233786 -0.32758374 -0.23392199
v -1.52616348 -2.00109227 -0.19852254
v -1.49802567 -0.99349214 -0.89995697
v -1.45950689 -1.64603908 -0.89996651
v -1.47277440 -0.70087464 -0.89990595
v -1.45934381 -0.22853577 -0.89992902
v -1.44319941 1.19553619 -0.44162616
v -1.50959207 0.16232919 -0.30966923
v -1.48987092 1.28677981 -0.89995572
v -1.49328067 0.58189755 -0.36527327
v -1.41106762 0.78227263 -0.37765056
v -1.45266594 -1.90310092 -0.00850600
v -1.40355994 1.59739225 -0.49041861
v -1.47030176 -0.85924060 -0.15841508
v -1.41240253 -0.43467359 -0.89998194
v -1.39008404 -2.00000102 -0.59048262
v -1.40086605 -0.65123166 -0.17449303
v -1.43380608 0.87265878 -0.89997414
v -1.49431051 1.96934753 -0.90175357
v -1.46550478 -1.47895248 -0.07094953
v -1.42187299 1.98724322 -0.54924741
v -1.35698201 -1.99983604 -0.34047371
v -1.44227018 -1.25377018 -0.10007415
v -1.34257128 2.00144963 -0.57098779
v -1.31744601 -1.88049049 -0.90093711
v -1.36151292 -1.72480614 -0.01672352
v -1.36194720 0.01746692 -0.89996800
v -1.29251148 1.01800602 -0.38810262
v -1.33900644 1.41060345 -0.45199880
v -1.31184401 2.00137644 -0.80125627
v -1.28431501 -2.00261803 -0.05932889
v -1.36379184 0.33538662 -0.30610925
v -1.22564890 -1.09901382 -0.89997783
v -1.37326051 0.32257794 -0.89995918
v -1.33266045 1.03538411 -0.89998844
v -1.31149151 1.91848259 -0.90152427
v -1.43457867 -1.03656037 -0.13192184
v -1.24717273 1.88432102 -0.49987146
v -1.34360637 1.99619727 -0.89665261
v -1.35642995 -1.99806542 0.01232793
v -1.28565408 -0.59048138 -0.89997151
v -1.28348400 0.12205185 -0.26098755
v -1.32597365 -1.31605745 -0.89991900
v -1.31473412 -1.12590117 -0.19662085
v -1.36474528 -0.80206252 -0.15047444
v -1.22792126 0.65194874 -0.89998862
v -1.27467026 1.38865702 -0.89995834
v -1.26933135 -2.00110669 -0.83230260
v -1.38100244 -1.34596838 -0.07825247
v -1.30799367 -0.95166803 -0.20434485
v -1.30920924 -0.09084002 -0.23603903
v -1.31365945 -1.31708647 -0.13407673
v -1.23096349 0.56141995 -0.31246981
v -1.21868350 1.68622642 -0.90003386
v -1.19324710 -1.99988897 -0.22931465
v -1.14585151 -1.56342430 -0.89986256
v -1.18308534 -0.88235665 -0.89998701
v -1.18294086 -0.47869966 -0.15707488
v -1.21322073 1.99732952 -0.51635131
v -1.21121897 -1.99510975 -0.89821604
v -1.29818823 -1.49329228 -0.03967422
v -1.22699525 -0.78279490 -0.20157081
v -1.21928467 -0.14470340 -0.89998802
v -1.18530394 0.43848466 -0.89999112
v -1.17240466 0.83808272 -0.90000024
v -1.19826450 -0.36491437 -0.89999106
v -1.15021362 0.21066861 -0.89999458
v -1.11922504 1.31030099 -0.39611563
v -1.20131125 -1.39924498 -0.13995677
v -1.20433523 -0.62214614 -0.14340280
v -1.18613531 -1.75151594 0.02049207
v -1.19429697 -1.54010911 -0.02724495
v -1.18851449 -1.22488547 -0.22784631
v -1.09129669 -0.26448315 -0.16980068
v -0.98901762 2.00171428 -0.62320849
v -1.13280071 -1.36326630 -0.89993623
v -1.05124380 -0.60216559 -0.19216281
v -1.13960995 1.09052675 -0.89999816
v -1.16015710 -1.99983437 -0.48918772
v -1.19166447 -1.96853144 0.05028997
v -1.09702243 0.84658270 -0.32695910
v -1.14456834 1.54891138 -0.43439799
v -1.12177743 -1.99941893 0.05928796
v -1.16492595 -1.10530985 -0.26024854
v -1.07862152 0.36344587 -0.25580808
v -1.10615577 1.99829822 -0.89018252
v -1.11555340 -1.76977820 -0.90041432
v -1.08570112 -0.70334284 -0.89999851
v -1.01656629 0.01881825 -0.90000155
v -1.08058228 -2.00085862 -0.85779849
v -1.03567685 -2.00001736 -0.59241333
v -1.10828580 -0.92874761 -0.27010679
v -1.05739261 -0.03184832 -0.19642968
v -0.99852969 1.90122800 -0.90118304
v -1.08522310 -1.48533912 -0.11360366
v -1.05534233 -0.47315332 -0.89999828
v -1.02666368 1.77818375 -0.44384518
v -1.08058657 -1.94909937 -0.90246251
v -0.94024183 -1.76712556 0.06955833
v -0.94846811 0.20098399 -0.20831369
v -1.04614820 -1.93996806 0.07451438
v -1.04367520 -1.63541419 0.02863843
v -0.97960188 1.48893612 -0.89994368
v -0.96601381 -1.99992342 -0.32815471
v -1.01270010 1.10353642 -0.34691629
v -0.94289138 -2.00125320 -0.08182299
v -1.01610102 -1.14963699 -0.27629366
v -0.95011725 -2.00060065 -0.79680231
v -0.97189428 -1.53518088 -0.07647369
v -0.99133457 -1.34497113 -0.21189305
v -0.92250647 -0.65529610 -0.24532501
v -0.96542157 0.63769822 -0.90000108
v -0.94910242 1.21858304 -0.89999345
v -0.93879475 1.57889562 -0.39950418
v -0.93367149 1.99785738 -0.46255833
v -0.89026024 -1.44364126 -0.89993134
v -0.96542384 -0.38154725 -0.13190627
v -0.93815448 -0.22509808 -0.90000185
v -0.98620238 0.54907506 -0.26421720
v -0.87665637 1.35913305 -0.35687983
v -0.99525513 1.72006683 -0.90029994
v -0.88205631 -1.77038033 -0.90040746
v -0.90988936 -1.11110051 -0.89999863
v -0.94918038 -0.82712046 -0.90000096
v -0.91911151 1.94025903 -0.44516382
v -0.87593360 2.00236755 -0.82926080
v -0.96464612 -1.00847019 -0.28876996
v -0.83016588 -0.68071435 -0.90000161
v -0.88854863 0.87250249 -0.90000263
v -0.91464044 -1.99798818 0.09706978
v -0.94112207 0.29096936 -0.90000096
v -0.90855326 -1.99297864 -0.89963546
v -0.82712044 -0.35134269 -0.16970625
v -0.87698062 0.69675796 -0.26424861
v -0.84939219 -1.63460321 0.05820972
v -0.84812500 -0.42617841 -0.90000066
v -0.78149827 1.17300360 -0.31271353
v -0.80022045 0.03576114 -0.15672569
v -0.81442692 0.95721655 -0.28870910
v -0.78779419 -1.20910342 -0.23678777
v -0.76372691 -0.70764531 -0.27233517
v -0.80787547 -1.56197555 -0.01603775
v -0.82691862 -1.38392193 -0.17311838
v -0.85530408 -1.06482829 -0.27822608
v -0.73163249 0.25650357 -0.90000054
v -0.72327478 1.99349098 -0.89857390
v -0.73413570 -1.89360256 0.12724421
v -0.75073184 1.28757553 -0.89996847
v -0.77391233 -1.99988885 -0.42633495
v -0.70342143 -1.99999912 -0.20163055
v -0.76421668 -0.97698558 -0.90000149
v -0.76248320 -0.15697316 -0.12417821
v -0.75356628 -0.06866638 -0.90000078
v -0.79124905 0.51153927 -0.90000090
v -0.78751613 0.36659973 -0.20154251
v -0.73167159 0.99788075 -0.90000000
v -0.74557693 1.57692545 -0.89984932
v -0.71046426 -2.00007589 -0.65025899
v -0.79897060 -2.00085099 -0.86780605
v -0.77993663 -1.99033136 0.13065443
v -0.61292716 1.84432988 -0.37383005
v -0.61958964 2.00113587 -0.79573956
v -0.63189681 -0.58086913 -0.90000036
v -0.70414646 0.53729414 -0.22911151
v -0.67712344 1.83413510 -0.90101471
v -0.69144131 -2.00300212 0.11953655
v -0.60586198 -0.98002477 -0.23955728
v -0.65750934 -0.82267458 -0.27099842
v -0.60132154 -1.68829222 0.12257166
v -0.71031733 -1.54211481 -0.89987257
v -0.71087040 -1.20710249 -0.89997932
v -0.66308327 -0.28178686 -0.90000024
v -0.71635093 0.81156890 -0.24984828
v -0.70120187 1.57348912 -0.35346451
v -0.63681890 2.00068336 -0.51423260
v -0.69175156 -1.99579270 -0.90002563
v -0.58962251 0.08415820 -0.90000012
v -0.69193871 -2.00096567 -0.86648366
v -0.53337296 -1.84694524 -0.90089622
v -0.70659270 -1.43572779 -0.09555241
v -0.63763596 0.64837222 -0.90000066
v -0.56797816 1.99256616 -0.38804617
v -0.68823268 -1.31749166 -0.15996130
v -0.54713781 -0.36121464 -0.24374665
v -0.68520512 -1.99337156 0.14814182
v -0.55980100 -2.00080175 -0.00120459
v -0.61297245 -1.55465777 0.09460536
v -0.56422265 -1.45184381 0.02744484
v -0.54033639 -0.88558931 -0.90000138
v -0.67026688 0.26888125 -0.18124384
v -0.56564666 -1.99984045 -0.44809550
v -0.62838151 1.30869262 -0.30265012
v -0.57998504 1.04027515 -0.25563291
v -0.52740558 -1.35686142 -0.89995620
v -0.54911335 -1.15171028 -0.16602895
v -0.58209057 -0.07674996 -0.14439782
v -0.59916271 0.67379074 -0.23598580
v -0.50003214 -1.58432062 -0.89997467
v -0.45972295 -0.47512101 -0.90000000
v -0.61939968 -0.02661670 -0.11456746
v -0.48461642 0.84669345 -0.21092406
v -0.56569787 0.88002973 -0.90000030
v -0.52229919 1.32821589 -0.89994988
v -0.51228322 -1.27412189 -0.07863043
v -0.52531310 -1.11758972 -0.89999708
v -0.46962752 0.13352652 -0.19745695
v -0.51465930 0.30476378 -0.22434296
v -0.48733337 0.47683911 -0.90000006
v -0.47735878 -2.00103779 -0.74222466
v -0.56383915 -1.99300523 0.17156123
v -0.47744800 -0.21374510 -0.90000000
v -0.52351488 0.02437888 -0.14954431
v -0.45925482 0.30365043 -0.90000006
v -0.54029764 1.97765045 -0.90193829
v -0.41535808 -1.99843354 -0.88795808
v -0.56705924 -2.00171847 -0.87254587
v -0.45201744 -1.83181472 0.17137069
v -0.39848609 -0.46262008 -0.26005790
v -0.48017605 -0.17374721 -0.21247943
v -0.36990778 0.37838696 -0.23902881
v -0.36223222 1.20814006 -0.23801091
v -0.48222257 1.49588578 -0.30114218
v -0.50197055 1.65093236 -0.89995095
v -0.48283602 1.05765383 -0.89999750
v -0.40299387 2.00096517 -0.42546797
v -0.40699275 -1.99978931 -0.25608259
v -0.44643517 -1.99859269 0.17933001
v -0.43762632 -1.41145379 0.11180675
v -0.40380766 0.76634078 -0.90000024
v -0.31225212 1.78659539 -0.30882063
v -0.39862301 -2.00003440 -0.58521041
v -0.29258754 -1.55524702 0.16257259
v -0.35242154 -0.62256445 -0.24492030
v -0.39692135 -0.96826477 -0.17087081
v -0.39808418 -0.73651261 -0.90000042
v -0.39080061 1.99789338 -0.89204404
v -0.34416171 0.59902852 -0.21475942
v -0.37590279 1.83189278 -0.90071490
v -0.28414105 2.00064521 -0.66161278
v -0.23710112 -2.00035937 -0.00676463
v -0.34834995 -1.21512808 0.01237619
v -0.28534775 -1.22845907 -0.89999285
v -0.33763217 -1.03782023 -0.90000084
v -0.36992739 -0.04966093 -0.89999995
v -0.14710988 1.03190332 -0.17229128
v -0.37607823 -1.96306128 0.20535122
v -0.26639737 -0.73155887 -0.19952623
v -0.25744711 1.50733857 -0.26000911
v -0.26081260 1.60236566 -0.89994249
v -0.28896345 1.99418836 -0.33497518
v -0.20187320 -1.77270694 -0.90018651
v -0.26367276 -1.49082632 -0.89995304
v -0.24198492 -1.00165630 -0.06530772
v -0.30869438 0.15885263 -0.90000000
v -0.30548065 0.78609984 -0.16878509
v -0.28156792 1.34558814 -0.89998308
v -0.27794825 -1.99988515 -0.42315963
v -0.24301027 -1.97711725 -0.90108725
v -0.25927003 -1.86406488 0.21256016
v -0.26585801 -0.40859409 -0.89999995
v -0.29300846 0.14583706 -0.23182875
v -0.18713470 0.98195987 -0.90000155
v -0.29905914 1.15285282 -0.89999911
v -0.13067086 -0.13472692 -0.24451297
v -0.23788856 0.34069305 -0.89999995
v -0.22926693 -0.02199007 -0.22513698
v -0.21246003 1.89415364 -0.90163019
v -0.22438906 -1.99315185 0.23482210
v -0.28410874 -1.25431014 0.12034103
v -0.17193942 -0.81864853 -0.90000066
v -0.23147036 0.54570876 -0.90000000
v -0.19520210 -2.00027139 -0.72001538
v -0.23924731 -0.17375089 -0.90000000
v -0.17890458 0.78189473 -0.90000066
v -0.12665807 2.00089841 -0.40877235
v -0.23619329 -1.32069118 0.14070532
v -0.16095205 -0.80851094 -0.12449444
v -0.23321034 -1.15561254 0.07285845
v -0.10396144 0.69141512 -0.11972349
v -0.18971111 0.00624665 -0.90000000
v -0.24130933 -2.00193639 -0.86238584
v -0.20679511 -2.00240214 0.20438780
v -0.03043263 0.14892649 -0.23355630
v -0.10292585 0.48570495 -0.18470114
v -0.13073115 -1.99990291 -0.26215404
v -0.14968591 -0.51542753 -0.90000000
v -0.14756812 2.00178104 -0.82937404
v -0.12367883 -0.38827106 -0.23319562
v -0.10428824 1.30400782 -0.20243795
v -0.07889012 1.74751239 -0.25957012
v -0.05245266 1.93549137 -0.27915144
v -0.04521042 -0.96569486 -0.90000036
v 0.03138881 0.18416743 -0.90000000
v -0.02130543 0.83138828 -0.11888750
v -0.10699658 1.99395256 -0.89714709
v -0.18710266 -2.00141449 -0.88088879
v -0.03098931 -2.00116820 0.14656554
v 0.00949301 -1.90049119 -0.90126923
v -0.09207404 -1.91854889 0.25296676
v -0.03079243 -1.14492137 0.15558632
v -0.01569504 -0.20581188 -0.90000000
v -0.03166831 -1.99998219 -0.48283395
v -0.05915059 -1.51834185 -0.89994159
v -0.04410125 1.12446134 -0.90000102
v -0.09350760 1.99731116 -0.30258855
v 0.03449134 -1.75536151 0.25247771
v 0.00709285 -1.41715748 0.19979543
v -0.08559440 -1.05625565 0.12914027
v -0.08295834 -0.99761094 0.07242291
v -0.03688647 -0.58417289 -0.15931488
v 0.03295115 -1.22664035 -0.89998838
v -0.02979660 -0.64334364 -0.90000018
v 0.02225385 -0.01702205 -0.90000000
v -0.11629196 -1.99964590 -0.89198223
v 0.03446581 0.43476014 -0.89999995
v -0.03963518 0.66149025 -0.90000024
v -0.01547066 1.51784699 -0.21557073
v 0.02349201 1.76088338 -0.90012595
v -0.06264940 -1.99510677 -0.89639947
v -0.02651616 1.37676053 -0.89997062
v 0.02324539 2.00011473 -0.61430040
v 0.08307839 -1.99989946 -0.13565701
v 0.00273512 -1.99854321 0.26684269
v 0.05418494 1.56733935 -0.89994118
v -0.05843114 -2.00130124 -0.86241379
v 0.12228104 -2.00032146 -0.66834703
v 0.03282594 0.83341460 -0.90000114
v 0.00665437 -0.87241460 0.04110385
v 0.14714002 -0.38165538 -0.90000000
v 0.18448642 1.72650604 -0.20663723
v 0.07794773 1.93047695 -0.90163687
v 0.09668094 1.99910288 -0.88011721
v 0.06788207 -2.00185246 -0.84736511
v 0.17048901 -1.99991937 -0.36701277
v 0.03226302 -0.69028522 -0.07918233
v 0.03530984 -0.41857296 -0.18972635
v 0.11778809 1.22315853 -0.89999077
v 0.18224735 2.00112681 -0.28461847
v 0.04240430 0.38965397 -0.17540839
v 0.24804804 -1.99682195 -0.89293268
v 0.12641281 -1.95927031 0.30057970
v 0.14152056 -1.64278443 -0.90004095
v 0.04694397 -0.96099694 0.13595225
v 0.05634672 -0.22856018 -0.22942412
v 0.03283063 0.60682427 -0.08640709
v 0.14044241 1.25542288 -0.14912999
v 0.22013921 -2.00275774 0.27391169
v 0.05902811 -0.88600225 0.05265222
v 0.17906938 -0.07531638 -0.23423822
v 0.20402095 -1.49603195 0.24858028
v 0.15209980 -1.13653560 0.18792163
v 0.18213104 -1.07143415 0.11793622
v 0.10332068 -0.78710813 -0.05699889
v 0.16361568 -0.67673204 -0.90000042
v 0.12044113 -0.64098744 -0.13913315
v 0.23522012 -0.38408448 -0.23019268
v 0.21389394 0.34420954 -0.21452835
v 0.23968848 0.64872937 -0.14291562
v 0.21982861 0.96834009 -0.09283196
v 0.22203711 2.00069647 -0.74746248
v 0.20758134 -1.95011325 -0.90118894
v 0.19730039 -1.35582424 -0.89998600
v 0.10970854 0.67780464 -0.08117261
v 0.23743395 1.52883093 -0.16909179
v 0.14829309 1.99500494 -0.25332348
v 0.14987361 -1.99688871 0.30531603
v 0.29527271 -2.00020559 0.10003118
v 0.26412435 -0.99645961 -0.90000149
v 0.22800301 0.80716233 -0.90000102
v 0.25305119 1.47524302 -0.89989737
v 0.35858360 2.00002914 -0.46259209
v 0.36803059 -1.07453377 -0.04353813
v 0.24810166 0.98300605 -0.90000072
v 0.31604737 1.89126878 -0.20293963
v 0.23173546 -0.11268970 -0.89999995
v 0.23742977 0.15389525 -0.22844416
v 0.23837238 0.07867675 -0.89999995
v 0.27012110 0.58217334 -0.90000012
v 0.32207762 -1.84577019 0.32081685
v 0.21188660 0.36380552 -0.89999995
v 0.28950399 0.87757282 -0.06968805
v 0.32739053 1.75471215 -0.90013727
v 0.30808787 -0.84302531 -0.13486096
v 0.37857319 1.23989003 -0.10114943
v 0.26133431 -2.00225015 -0.83935276
v 0.39631618 -1.74164362 -0.90004113
v 0.25088671 -1.23342646 0.21769105
v 0.41224815 -1.99983556 -0.06335768
v 0.27818344 -1.99672313 0.32925379
v 0.34578521 1.99351626 -0.89809838
v 0.35229999 -1.99999554 -0.56570348
v 0.31062868 -1.24921472 0.18037751
v 0.35970087 -0.73185236 -0.18985695
v 0.38251443 0.33065133 -0.89999995
v 0.35996388 1.22265809 -0.89998457
v 0.45121525 1.92643457 -0.90204546
v 0.45914106 -2.00125379 -0.79913762
v 0.35757057 -1.46494062 -0.89996466
v 0.36996563 -1.42863626 0.27076006
v 0.46468989 -1.99991817 -0.32174837
v 0.45015754 -1.64059503 0.31617454
v 0.37558041 -1.16849942 -0.89999440
v 0.36795975 -0.73698107 -0.90000036
v 0.35838221 0.03044014 -0.20025656
v 0.44446923 0.34866123 -0.21743132
v 0.33235247 1.99297910 -0.21779418
v 0.43273090 -1.26734943 0.05754475
v 0.47997804 -0.57695718 -0.90000006
v 0.46306537 -0.28993867 -0.90000000
v 0.44485195 -0.12328386 -0.20112327
v 0.48461623 0.64385896 -0.90000036
v 0.35639322 -1.33515103 0.24202071
v 0.40870578 -0.30582629 -0.23481329
v 0.50128172 0.15370970 -0.18840746
v 0.44722198 1.03709428 -0.89999965
v 0.46475063 -1.95781274 -0.90163270
v 0.46169092 -0.11645354 -0.90000000
v 0.51294733 0.95999782 -0.11385397
v 0.42359288 -1.99742634 0.35333595
v 0.45797394 0.12081053 -0.90000000
v 0.46953545 0.55583154 -0.20754583
v 0.46068238 0.74681919 -0.17112969
v 0.44702853 2.00121384 -0.86564830
v 0.56260292 -0.77212537 -0.22334739
v 0.49092521 0.84671919 -0.90000132
v 0.57825281 1.73268252 -0.13280597
v 0.45662989 1.36738937 -0.89995476
v 0.58743860 -1.92398233 0.38268268
v 0.45955576 -1.46337862 0.28454012
v 0.55637698 2.00012450 -0.69372359
v 0.52425162 -1.44594951 0.15952526
v 0.56690062 -1.13926579 -0.89998826
v 0.51269479 -0.88182564 -0.89999923
v 0.57603477 1.42409639 -0.08915290
v 0.49843819 1.54736202 -0.89994755
v 0.54370598 1.99278169 -0.17752953
v 0.52080373 2.00093393 -0.23718449
v 0.58707197 -1.99999638 -0.53296742
v 0.60570417 -0.56615047 -0.23780286
v 0.46710156 1.04204087 -0.05991414
v 0.61520348 -2.00134797 0.22667971
v 0.60965277 -1.08562328 -0.15630059
v 0.57559870 0.41207694 -0.90000018
v 0.63648783 1.17405944 -0.89999166
v 0.69464485 1.94686346 -0.13891618
v 0.57094745 -1.39593036 -0.89994433
v 0.60111229 -0.02568842 -0.12012410
v 0.63258712 1.98948817 -0.89962181
v 0.69924150 -1.99173350 -0.89783689
v 0.60495834 -2.00055606 0.37733856
v 0.66506009 -1.58027918 0.21410774
v 0.66845260 1.80895357 -0.90068582
v 0.67197667 1.48622840 -0.89996776
v 0.63448922 0.03327983 -0.90000024
v 0.73204659 -2.00089128 -0.80932704
v 0.65720080 0.57187562 -0.20750601
v 0.65507625 1.24001412 -0.05178559
v 0.81500850 -1.90765948 -0.90189436
v 0.88681809 -1.82438381 0.42660031
v 0.64331244 -0.45191471 -0.90000048
v 0.67001723 -0.16085141 -0.90000030
v 0.65730242 0.80996924 -0.18891714
v 0.68844460 0.71895175 -0.90000102
v 0.66511385 -1.62128634 -0.90003273
v 0.69160960 -1.65282078 0.35898128
v 0.66090308 -1.40758283 -0.00891229
v 0.70619546 -0.36662201 -0.19733110
v 0.70987360 -1.99993272 -0.18001494
v 0.74265002 -0.69598718 -0.90000132
v 0.71401356 0.40244054 -0.18509421
v 0.68347625 2.00191789 -0.84013387
v 0.77565734 -0.18954448 -0.11082157
v 0.69194268 0.26760684 -0.90000036
v 0.78177182 1.20010595 -0.11125857
v 0.70828359 -1.99333317 0.41164509
v 0.69259254 -1.31089104 -0.09585377
v 0.79377125 0.43182426 -0.90000090
v 0.76534740 2.00006681 -0.42641479
v 0.70686243 1.99775629 -0.15457587
v 0.70642190 -2.00025267 0.06723471
v 0.78504912 -0.88905616 -0.90000281
v 0.80820243 -0.77299811 -0.23686567
v 0.79608504 0.22335838 -0.10971609
v 0.90087460 2.00081401 -0.19081738
v 0.81575142 -1.05445982 -0.89999840
v 0.81033228 -0.41104576 -0.90000084
v 0.83253740 -0.00844360 0.04551617
v 0.76709007 0.99001830 -0.90000042
v 0.79443316 -2.00013323 -0.63669887
v 0.87928615 -1.99993129 -0.36324894
v 0.78203116 -1.66227312 0.30321595
v 0.80006437 -1.41901309 -0.89992759
v 0.80565040 -1.05800093 -0.21663733
v 0.81656359 -0.05312769 -0.90000090
v 0.83380548 0.96813970 -0.18321513
v 0.90351216 1.57714467 -0.04859105
v 0.83627771 1.69524984 -0.90009090
v 0.83788566 -1.42043133 -0.07519126
v 0.83243112 1.36948137 -0.89994588
v 0.83206026 1.39860540 -0.03985415
v 0.95477007 1.84209995 -0.07546940
v 0.95501385 -0.64962633 -0.20712733
v 0.93567936 -0.28702592 -0.90000108
v 0.83309595 -0.08955501 -0.01690358
v 0.92140136 1.99770026 -0.89134845
v 0.98773555 2.00138431 -0.74835995
v 0.90102790 -1.99991507 0.06206609
v 0.85415111 -1.58422596 0.09499200
v 0.86651306 -1.25079096 -0.17679015
v 0.89942185 0.08472489 0.03063070
v 0.91135667 0.15054511 -0.90000090
v 0.84256796 0.71066885 -0.19645150
v 0.84420489 0.74088578 -0.90000149
v 0.90010367 0.48006533 -0.15351152
v 0.86307977 -1.99523241 0.42591184
v 0.91946171 1.15833395 -0.89999065
v 0.94409977 -1.68844886 -0.90001091
v 0.99774782 0.54583364 -0.90000084
v 0.88051872 1.99974208 -0.13338871
v 0.98002307 -2.00203318 0.35976622
v 0.87487797 -1.71174390 0.40411061
v 1.05439810 -0.50498329 -0.12842639
v 1.08343796 -1.99495919 -0.89799538
v 1.01158427 -1.23718179 -0.89998546
v 0.97688435 0.97624402 -0.90000114
v 0.97676818 1.86939697 -0.90100804
v 0.94853608 -0.97420062 -0.23865732
v 1.07522337 -0.16838300 0.14138490
v 0.97803019 1.14164286 -0.16804154
v 0.94823365 1.30704730 -0.10551426
v 1.03118913 -2.00100965 -0.82597050
v 0.97116177 -1.99382682 0.46205247
v 0.98031799 -1.70376058 0.36570886
v 0.97049652 -1.65872176 0.21157363
v 1.03472178 1.99331217 -0.08428693
v 1.06244294 -1.53747291 0.02494220
v 1.04605876 -1.42485971 -0.08581976
v 1.05331980 -0.56671260 -0.90000042
v 1.02245353 0.74418049 -0.90000155
v 0.99550359 1.60937708 -0.89995822
v 1.08829878 -2.00001366 -0.54242036
v 1.05096225 -1.99990435 -0.16396662
v 1.06674228 -0.97560353 -0.90000304
v 0.99640511 -0.81131644 -0.90000239
v 1.10949562 -0.32373889 0.01273625
v 1.00611679 0.05944609 0.16093840
v 1.04806481 1.33775144 -0.89996889
v 1.14015733 2.00005870 -0.30192214
v 1.02626596 -1.40742297 -0.89993575
v 1.02027361 -1.29581995 -0.16645299
v 1.06666438 -1.09828747 -0.22267443
v 1.06127409 0.46504419 -0.08791791
v 1.03112547 0.67897503 -0.16324013
v 1.06832550 0.91218786 -0.18470375
v 1.06318943 -0.09120120 -0.90000018
v 0.99145923 -0.04178784 0.18793696
v 1.11714195 0.34578906 0.00995048
v 1.11563621 -1.70885296 0.44972128
v 1.12856792 0.21747177 0.12933362
v 1.09257220 0.34273915 -0.89999887
v 1.05980132 1.41051440 -0.04581589
v 1.11630259 0.01067536 0.21135156
v 1.13465951 -1.68286164 0.35426977
v 1.20897196 -1.99988432 0.10003742
v 1.13764177 1.08963649 -0.89999685
v 1.11935018 1.26862769 -0.12168543
v 1.05526410 1.47114091 -0.00708365
v 1.29135249 -1.88561888 -0.90173057
v 1.07975720 -0.89932979 -0.22823171
v 1.22847567 1.53840189 -0.89990345
v 1.17435251 1.62743776 -0.00477256
v 1.20530461 1.78489356 -0.90017030
v 1.26400898 -1.99910934 0.50966558
v 1.21333812 -1.92600377 0.50197145
v 1.15350149 -1.59607584 -0.89993504
v 1.17171500 -1.60041125 0.15030453
v 1.21010326 -0.71717925 -0.89998951
v 1.20268391 -0.78556458 -0.17476427
v 1.21916042 -0.31525327 -0.89998755
v 1.20833586 -0.20890313 0.25754628
v 1.19551812 0.21453654 0.19586004
v 1.23490964 1.94525533 -0.90172014
v 1.16910098 1.99838953 -0.89466795
v 1.19508181 2.00000362 -0.61768207
v 1.15992711 2.00080161 -0.09932952
v 1.31303738 -2.00081904 0.33301479
v 1.17846750 -1.25380678 -0.15504004
v 1.20969699 0.12190395 -0.89999279
v 1.16987048 1.13657324 -0.15542230
v 1.27216492 0.75150340 -0.10370104
v 1.16737579 0.87378316 -0.89999869
v 1.22988449 0.54992168 -0.04109827
v 1.21728633 0.68703895 -0.89999065
v 1.36142312 1.38373976 -0.89995327
v 1.43725739 1.86603789 0.01254967
v 1.24490641 -2.00058217 -0.68821517
v 1.25845013 -1.38793070 -0.04937360
v 1.24495826 -1.29196454 -0.89994326
v 1.26447938 -1.05318643 -0.89998421
v 1.27520321 1.98926740 -0.03682996
v 1.31943355 0.34284781 -0.89997598
v 1.32723544 0.55352877 -0.89997277
v 1.23389004 1.37524848 -0.03459773
v 1.28020201 1.44221406 0.03620301
v 1.24583255 -1.99993606 -0.15170923
v 1.40965150 -1.73079677 0.51119915
v 1.26646827 -1.64057214 0.34164819
v 1.34322999 -1.46841795 -0.89981875
v 1.25852392 -1.04082132 -0.18069325
v 1.32831989 -0.86358530 -0.89997765
v 1.36737464 0.97101240 -0.89998045
v 1.30061124 0.98909395 -0.12982716
v 1.30754314 -1.99993498 -0.38299200
v 1.30277107 -0.10578720 -0.89997956
v 1.37419854 1.18211787 -0.89997420
v 1.31156145 -1.49598808 0.09158082
v 1.46638320 -0.13503161 0.29788149
v 1.42770658 0.23580788 0.23834179
v 1.49889968 2.00095945 -0.80936131
v 1.30042039 -1.99932439 -0.88171354
v 1.40422962 -0.55660951 -0.89994964
v 1.28817831 1.22635524 -0.09259295
v 1.45773814 1.47999959 0.06958109
v 1.36595164 2.00074225 -0.08765563
v 1.34558247 -1.63197727 0.48152316
v 1.35835026 -1.23129774 -0.08123264
v 1.36080430 -0.72195647 -0.07814677
v 1.38228582 0.43895011 0.17372792
v 1.59434448 1.99981146 -0.45917877
v 1.42283736 -1.68601508 -0.90000078
v 1.36028598 -1.57261712 0.28069365
v 1.43801366 -0.64314983 0.03123552
v 1.47121130 0.76983981 -0.89995268
v 1.38796888 -1.04754479 -0.11198988
v 1.39315758 -0.46065464 0.17231909
v 1.40830909 0.58098321 0.06592520
v 1.37273727 1.33684509 0.01219695
v 1.49825273 -2.00048108 -0.72862127
v 1.48552225 -1.99989004 -0.15005644
v 1.46041153 -1.34373892 0.07758058
v 1.50278805 -1.19418718 -0.89989599
v 1.43410228 1.83723812 -0.90097460
v 1.43540476 -1.54901702 0.41346637
v 1.47061895 -0.86729492 -0.03858539
v 1.45695804 -0.35821674 -0.89995375
v 1.43278621 0.13230412 -0.89993986
v 1.38914905 1.15014021 -0.06631999
v 1.50870560 -1.99988527 0.05145573
v 1.50183342 -2.00146348 0.46528503
v 1.48256908 -0.76152981 -0.89993140
v 1.46551607 -0.14132964 -0.89994213
v 1.50541805 1.99452024 -0.89757720
v 1.45074628 -1.95313306 0.55099812
v 1.43558870 -1.46087332 0.17207618
v 1.43171297 -0.41552216 0.32360938
v 1.44178317 0.73516708 -0.00374956
v 1.46354388 1.62567358 -0.89987847
v 1.53488110 -1.99457283 -0.89794990
v 1.41273628 1.00316041 -0.07591116
v 1.50230799 1.20006006 0.03843464
v 1.49676321 -0.96697862 -0.89994475
v 1.44546042 0.87332540 -0.04519961
v 1.52866159 -1.47563727 0.49249688
v 1.51435707 -1.12268741 0.01223813
v 1.68440638 2.00114160 -0.08457243
v 1.60427473 -1.99988587 -0.35560378
v 1.59391151 -0.34377023 0.35176993
v 1.53039644 1.27487116 0.10482888
v 1.58129476 1.99804454 0.01223130
v 1.53102909 -1.42532833 0.29428342
v 1.52881537 -0.56741677 0.23658809
v 1.54832206 1.04239099 0.04305957
v 1.57967256 -1.98747487 0.57716546
v 1.53864537 0.33847671 -0.89993289
v 1.65341388 1.58881967 0.09178027
v 1.63446830 -1.86025686 -0.90179250
v 1.58449255 -1.41699989 -0.89990672
v 1.63288008 0.99830132 -0.89995947
v 1.60472368 1.26318925 -0.89995476
v 1.55757807 -0.51975292 0.36565733
v 1.56244658 0.58334278 0.21276038
v 1.57850371 0.73763888 0.13799010
v 1.57849584 0.88053935 0.08038056
v 1.60705481 -0.98649562 0.11022433
v 1.60317193 -0.79175381 0.15022473
v 1.64739309 -0.06649495 -0.89996967
v 1.65808509 0.19756483 -0.90009436
v 1.66303454 1.92621641 -0.90310338
v 1.66200064 -1.99989958 0.28851867
v 1.70963369 -1.61779530 -0.89990297
v 1.67232369 -1.54101820 0.53415856
v 1.60620092 -1.35838230 0.42494542
v 1.67526696 0.61100398 0.23298633
v 1.61262201 -1.28220905 0.27013052
v 1.61238132 -1.17203433 0.16898604
v 1.68119810 1.14335280 0.15892555
v 1.65393565 1.68928866 -0.90026727
v 1.73255859 -2.00171049 0.57634720
v 1.75347660 -1.79310365 0.58493683
v 1.61117075 -0.61929498 -0.89997455
v 1.64707182 -0.71583421 0.33870021
v 1.71341227 0.06740876 0.31627318
v 1.62825464 0.53840648 -0.89992317
v 1.75758944 1.49848716 -0.89993527
v 1.65520118 -0.44713450 -0.89997843
v 1.77734791 -0.27853464 -0.90025964
v 1.65616332 -0.67272858 0.40769699
v 1.77708672 -2.00025983 -0.02285758
v 1.68423949 -1.23052539 0.48947793
v 1.67056773 -0.90327949 -0.90003696
v 1.73173998 -0.51223096 0.40164790
v 1.79054104 0.34167658 0.29260850
v 1.71795975 0.75761216 -0.90012172
v 1.77386354 -2.00189979 -0.81112745
v 1.67561827 -1.18665702 0.37902796
v 1.66515075 -1.04568912 0.22827135
v 1.74139415 0.38659971 -0.90021971
v 1.64948760 0.85185413 0.18800475
v 1.64207648 1.05907970 0.15844810
v 1.73350273 -2.00034327 -0.56554529
v 1.77028714 -1.07201649 -0.90020361
v 1.69210635 -0.92220868 0.32363719
v 1.80118285 -0.79358787 -0.90029719
v 1.70689832 1.96664410 0.05053131
v 1.80573498 2.00178294 -0.75353160
v 1.80485879 -1.36729271 -0.90038440
v 1.84328328 -0.22199285 0.38213939
v 1.81976829 1.23520570 -0.90047052
v 1.86579273 1.78915911 0.10554139
v 1.70881413 -1.98886235 0.60212740
v 1.78369723 -0.76414884 0.44693983
v 1.71178911 -0.88517834 0.44473985
v 1.86422096 -2.00067325 -0.35260862
v 1.85370408 -1.18873919 0.52191571
v 1.72413276 -1.02619870 0.46949935
v 1.80256353 -0.56147064 -0.90048644
v 1.81635032 0.92213910 -0.90048489
v 1.82771908 -0.12261521 -0.90063748
v 1.90420638 0.12653818 -0.90139291
v 1.81734119 -1.94560928 0.62074122
v 1.82401715 1.83523803 -0.90178314
v 1.89280532 -1.99598677 -0.89936802
v 1.89088498 -2.00139291 0.22508778
v 1.81399415 -1.99573560 0.62242624
v 1.90365182 0.46224700 -0.90122816
v 1.87822698 0.66741972 0.26528990
v 1.90680419 1.47341340 0.15720919
v 1.88075732 -1.85439832 -0.90229955
v 1.91866420 -1.60867948 -0.90188143
v 1.89607452 1.06172054 0.21406825
v 1.87713085 2.00027161 0.07130554
v 1.92082654 2.00124006 -0.52946380
v 1.88674019 -2.00239832 0.51036033
v 1.88260840 -1.20361067 -0.90161964
v 1.88873683 1.98840242 -0.89869037
v 1.94327281 -2.00205953 -0.64387867
v 1.93380736 -1.46232362 0.57363966
v 1.93577371 -0.44418335 -0.90111139
v 1.91214107 1.95465117 0.09232700
v 1.90244554 2.00086837 -0.21858975
v 1.93072532 -0.44054142 0.43018144
v 1.93995415 -0.93848349 -0.90133688
v 1.93940423 0.06328769 0.36267865
v 1.94323085 0.39452695 0.31616363
v 1.94331084 1.09995513 -0.90123495
v 1.93810199 1.67378597 -0.90163210
v 1.93691526 0.75213103 -0.90186950
v 1.96268175 -2.00180931 -0.10949665
v 1.92307375 -1.99971099 0.63953993
v 1.95119200 -1.89273198 0.63861063
v 1.95460902 -0.89086194 0.49862918
v 1.98163257 2.00022154 -0.05491233
v 1.94368480 -0.70589299 0.46976230
v 1.95987032 -0.69423033 -0.90192249
v 1.95637654 -0.19389894 -0.90219161
v 1.95639382 1.45302122 -0.90135828
v 1.99697934 -1.98998756 -0.53814867
v 1.98970245 -1.86416347 -0.89741662
v 1.98487912 -1.66970117 0.61104742
v 1.99128602 0.16151683 0.35271978
v 1.98879348 1.70021968 0.13873395
v 1.99852525 1.97888379 0.06862535
v 1.99195956 -1.99840004 0.04003042
v 1.99722408 -1.99465163 0.35011351
v 1.99345182 -1.99872477 0.55350348
v 1.99269973 -1.49449916 -0.89992353
v 1.98092399 -1.37903733 -0.90328660
v 1.99802385 -1.16493888 -0.88219222
v 1.99738203 1.51971190 0.14738727
v 1.99377332 -1.99844952 -0.80610004
v 1.99754511 -1.99113245 -0.24130390
v 1.99142967 -1.99814422 0.65334413
v 1.99373518 -1.65510399 -0.89708283
v 1.99666653 -1.52783329 0.58723363
v 1.99470006 -1.27219642 -0.89721116
v 1.99299870 -1.10061927 0.52965948
v 1.99764500 -0.82965843 0.48790988
v 1.99874447 -0.43064317 -0.88792798
v 1.99751709 -0.62945835 0.45651871
v 1.99807904 -0.33210305 -0.89569202
v 1.99249373 -0.10437311 0.39112169
v 1.99577091 -0.05062349 -0.89614174
v 1.99857329 0.10327591 -0.89100888
v 1.99774204 0.44091897 0.30876187
v 1.99801157 0.45781069 -0.89178118
v 1.99063180 0.69926982 0.27828223
v 1.99907909 0.86650424 -0.89213088
v 1.99315451 0.85135954 0.25756231
v 1.99747525 1.10449140 -0.89117774
v 1.99208365 1.03827410 0.23151314
v 1.99168287 1.27351098 0.19897191
v 1.98953806 1.31091170 -0.89885542
v 1.99951802 1.76276999 -0.89134297
v 1.99528859 1.92174535 0.10742150
v 1.99940823 1.95062690 -0.89276615
v 1.99980400 1.98247986 -0.73093036
v 1.99939249 1.98784976 -0.20719913
v 1.99402354 -1.99315126 -0.90195605
v 1.99932967 -1.86071308 0.63463786
v 1.99823497 -1.34696801 0.56251815
v 2.00007056 -0.92188097 -0.87398454
v 1.99608157 -0.75965385 -0.89767161
v 1.99933873 -0.61220334 -0.89378056
v 1.99909435 -0.18004590 -0.89237663
v 1.99825321 0.22011935 -0.89370891
v 1.99130426 0.33134483 -0.90036240
v 1.99544416 0.63811706 -0.89625957
v 1.99919437 1.44184284 -0.88963947
v 2.00081430 1.56798511 -0.88003680
v 1.99822114 1.99407988 -0.45980433
v 2.00207279 -1.89051492 -0.84728995
v 2.00295387 -1.95706661 -0.33968469
v 2.00088845 -1.88160462 -0.02821028
v 2.00243805 -1.97015185 0.21747178
v 2.00358151 -1.92978723 0.51199225
v 2.00182019 -1.89191360 -0.62647065
v 2.00035928 -1.77790291 0.32787106
v 2.00060652 -1.81556339 -0.36976817
v 1.99983285 -1.65315432 -0.23953262
v 2.00017987 -1.60152085 -0.68516531
v 1.99993287 -1.68009622 0.02517024
v 2.00108753 -1.67462904 -0.84386912
v 1.99990724 -1.57883210 -0.43037394
v 2.00239287 -1.61030919 0.55474797
v 2.00084494 -1.57195969 -0.87996629
v 1.99985717 -1.36723323 0.01528818
v 2.00014995 -1.50343151 0.20697856
v 2.00122319 -1.33197666 0.39578378
v 2.00113068 -1.46828301 -0.87482598
v 1.99993084 -1.34140534 -0.26482773
v 1.99999152 -1.31256236 -0.55936548
v 1.99802707 -1.42497475 -0.89721081
v 2.00113688 -1.34682907 -0.83714267
v 1.99854539 -1.35430355 -0.89626643
v 2.00025581 -1.16064263 0.27824783
v 2.00104795 -1.08991201 -0.78830847
v 1.99993907 -1.08621747 -0.48050904
v 1.99991475 -1.08085997 -0.08636866
v 1.99983905 -1.03351487 0.10252567
v 1.99995147 -0.94184167 -0.26886991
v 2.00251506 -0.97831787 0.42093235
v 2.00013767 -0.85440851 0.22900215
v 1.99999951 -0.84494014 -0.47743702
v 1.99988006 -0.86229170 -0.04306117
v 2.00092326 -0.73515401 -0.75777486
v 1.99993263 -0.72987680 -0.21529475
v 1.99990116 -0.63217018 -0.49643460
v 2.00207268 -0.58537472 0.36015207
v 1.99991630 -0.57864180 0.01958933
v 1.99994562 -0.52666345 -0.23333259
v 2.00126205 -0.40620674 -0.75779334
v 2.00008021 -0.41283797 -0.50826445
v 2.00031291 -0.37692108 0.22277898
v 2.00138043 -0.27590005 0.39225084
v 1.99992870 -0.27421510 -0.11774246
v 1.99994181 -0.28291027 -0.31785506
v 1.99999986 -0.20069402 0.10484858
v 1.99991821 -0.14248067 -0.52508065
v 2.00122474 -0.06527794 -0.78093943
v 1.99989663 -0.00240470 -0.34616798
v 2.00125252 0.00195398 0.27989909
v 1.99998222 -0.03210358 0.01917520
v 1.99993215 0.05929219 -0.15088034
v 1.99995087 0.24602770 -0.55529114
v 2.00006853 0.20325862 0.02778791
v 2.00133501 0.18313234 -0.76549730
v 1.99989413 0.28862720 -0.28952110
v 2.00162993 0.33194577 0.19695555
v 2.00118075 0.27389197 -0.89061132
v 2.00225578 0.32327275 -0.86278120
v 2.00089119 0.45901774 -0.77533927
v 2.00023530 0.31251698 -0.89299580
v 2.00001202 0.45108293 -0.04407893
v 1.99990271 0.52340548 -0.24267062
v 1.99987136 0.59871935 -0.45889839
v 2.00170491 0.56513344 0.18199031
v 2.00017856 0.71265750 -0.63584283
v 2.00173746 0.70216267 -0.82813737
v 2.00019584 0.70956950 0.02960047
v 2.00150929 0.81324546 0.20972481
v 1.99992572 0.85329537 -0.23244740
v 1.99992893 0.90607076 -0.45183638
v 2.00121961 0.95607834 -0.75917330
v 2.00009106 0.99895315 -0.02636597
v 2.00219033 1.25872533 0.14445981
v 1.99981485 1.16464453 -0.23794928
v 1.99988936 1.22120850 -0.54076674
v 2.00166140 1.31455140 -0.82934651
v 2.00016139 1.28961640 -0.02752913
v 1.99986957 1.38755958 -0.28318328
v 2.00025450 1.50430172 -0.66613248
v 2.00095926 1.55935161 -0.05054270
v 1.99984144 1.65722184 -0.45603210
v 2.00080536 1.81533890 -0.19278976
v 2.00147556 1.79617863 -0.72208109
v 2.00298963 1.81426268 0.05588754
v 2.00158499 1.90361981 -0.48464331
f 282 234 216
f 894 839 765
f 22 17 18
f 455 396 427
f 320 276 274
f 774 773 807
f 487 459 516
f 893 820 870
f 1085 1081 983
f 807 817 830
f 809 783 836
f 845 765 793
f 518 498 513
f 414 381 347
f 32 31 27
f 596 604 666
f 1076 1077 1080
f 11 9 14
f 610 551 588
f 84 18 14
f 954 955 923
f 650 611 558
f 779 757 796
f 972 945 909
f 852 826 806
f 594 612 663
f 1084 1086 1082
f 391 362 307
f 607 541 508
f 822 752 753
f 999 946 936
f 261 218 260
f 501 437 465
f 947 926 960
f 726 698 750
f 969 943 967
f 591 575 626
f 865 810 864
f 534 500 487
f 917 899 845
f 36 33 29
f 191 120 131
f 568 512 532
f 716 680 657
f 1039 1034 1036
f 747 714 708
f 990 927 964
f 308 322 370
f 949 869 940
f 967 941 966
f 23 29 28
f 578 499 579
f 576 508 535
f 244 221 171
f 333 359 298
f 87 18 84
f 95 52 45
f 976 916 974
f 167 139 193
f 594 563 612
f 470 446 477
f 317 269 300
f 815 791 749
f 164 155 124
f 866 863 916
f 476 469 511
f 896 860 847
f 232 262 281
f 628 586 556
f 839 835 794
f 527 509 453
f 455 427 472
f 762 727 806
f 943 931 901
f 297 262 277
f 33 32 27
f 724 723 760
f 602 572 538
f 950 934 933
f 425 371 407
f 808 766 790
f 796 767 810
f 603 538 573
f 863 882 916
f 832 760 826
f 447 423 505
f 72 68 117
f 207 167 193
f 337 314 310
f 861 833 776
f 1049 972 973
f 725 673 664
f 220 214 254
f 583 526 609
f 298 294 258
f 766 693 790
f 459 418 391
f 123 59 135
f 471 430 443
f 104 116 70
f 966 1031 967
f 43 42 49
f 1004 953 1003
f 974 934 950
f 535 508 475
f 65 62 57
f 534 554 604
f 26 19 21
f 365 310 353
f 672 652 739
f 530 502 457
f 304 251 289
f 203 246 213
f 383 315 378
f 15 19 13
f 876 815 821
f 475 445 420
f 864 840 862
f 588 528 592
f 1028 1020 1030
f 103 64 101
f 798 751 788
f 736 759 792
f 576 535 544
f 751 729 716
f 514 526 519
f 664 631 624
f 873 772 803
f 309 251 304
f 1048 1041 1049
f 511 469 493
f 932 891 893
f 777 733 728
f 271 250 253
f 678 636 621
f 681 664 624
f 84 82 138
f 989 955 1005
f 1026 1023 965
f 1064 1057 1065
f 985 936 925
f 136 117 183
f 61 57 56
f 1045 1039 1040
f 43 115 39
f 120 79 108
f 45 44 37
f 647 613 581
f 910 900 914
f 311 297 314
f 834 796 810
f 524 538 462
f 584 574 617
f 821 784 758
f 663 612 679
f 969 967 1038
f 591 527 575
f 365 353 374
f 548 550 485
f 1085 983 985
f 904 861 927
f 829 782 832
f 1060 1062 996
f 832 826 853
f 840 801 813
f 1081 1078 998
f 242 231 241
f 542 522 577
f 253 210 201
f 114 30 23
f 106 70 75
f 898 848 849
f 429 416 438
f 727 798 806
f 558 504 570
f 200 256 209
f 996 909 915
f 867 874 827
f 830 817 842
f 703 691 728
f 801 746 777
f 270 212 263
f 332 316 296
f 952 1086 1084
f 421 428 349
f 482 440 456
f 896 847 811
f 281 262 297
f 331 284 344
f 326 299 283
f 446 439 402
f 877 871 902
f 797 748 814
f 561 496 567
f 520 476 549
f 905 885 879
f 308 263 244
f 593 618 560
f 987 930 942
f 1046 1042 1048
f 915 887 873
f 317 355 380
f 704 678 661
f 966 904 990
f 464 415 425
f 199 177 238
f 122 134 98
f 1010 1012 1015
f 645 620 685
f 420 395 352
f 495 484 489
f 64 57 61
f 341 286 293
f 419 490 426
f 153 89 167
f 517 493 467
f 371 367 407
f 108 74 118
f 914 900 868
f 1059 995 996
f 350 313 312
f 547 545 483
f 514 458 506
f 869 843 900
f 980 920 978
f 155 122 124
f 40 35 32
f 999 1081 998
f 491 530 457
f 673 656 631
f 711 659 701
f 96 43 49
f 551 528 588
f 589 517 611
f 744 743 823
f 774 737 731
f 123 101 59
f 779 721 757
f 450 443 414
f 472 442 496
f 256 200 245
f 557 522 521
f 67 66 63
f 730 758 681
f 729 680 716
f 376 382 436
f 598 549 589
f 558 492 504
f 557 562 522
f 288 236 233
f 813 777 795
f 479 448 478
f 713 769 694
f 380 336 397
f 538 532 481
f 742 740 710
f 866 889 888
f 546 527 453
f 142 115 43
f 631 656 579
f 112 4 3
f 635 571 629
f 785 848 781
f 768 719 694
f 1016 1009 1020
f 1041 968 970
f 404 365 423
f 1077 1072 1073
f 5 112 127
f 993 992 944
f 99 55 60
f 345 245 285
f 249 192 186
f 628 693 619
f 345 332 245
f 459 391 415
f 881 850 877
f 168 204 150
f 366 303 389
f 538 481 462
f 526 525 563
f 682 626 640
f 10 9 4
f 860 846 800
f 658 595 614
f 641 618 593
f 160 126 172
f 442 385 451
f 1082 1079 1080
f 462 481 412
f 908 945 876
f 539 581 548
f 543 497 474
f 119 106 75
f 191 194 120
f 598 589 620
f 783 766 808
f 47 42 40
f 279 265 242
f 129 94 92
f 342 369 333
f 90 140 88
f 186 144 170
f 892 886 885
f 1006 947 960
f 1076 1072 1077
f 575 546 584
f 533 449 515
f 611 537 558
f 572 568 532
f 487 418 459
f 925 858 822
f 331 344 392
f 1069 1066 1063
f 971 931 969
f 319 261 328
f 387 416 429
f 187 163 184
f 591 528 527
f 447 417 404
f 342 333 306
f 262 220 254
f 804 796 834
f 799 718 794
f 530 560 502
f 122 98 99
f 403 338 337
f 407 367 390
f 539 486 497
f 128 92 114
f 853 826 852
f 652 697 739
f 368 349 340
f 141 175 90
f 300 276 336
f 63 66 60
f 130 101 123
f 25 22 18
f 1074 1069 1071
f 887 857 844
f 382 389 436
f 1078 982 998
f 896 919 860
f 566 552 501
f 906 893 870
f 105 72 117
f 143 104 106
f 695 683 658
f 428 385 349
f 360 334 325
f 890 808 884
f 151 83 85
f 708 639 656
f 799 789 754
f 705 654 689
f 585 595 539
f 795 777 728
f 820 780 747
f 252 199 238
f 630 639 578
f 695 658 686
f 449 454 515
f 490 474 426
f 140 152 86
f 291 273 224
f 588 592 632
f 143 132 104
f 704 706 678
f 529 464 551
f 109 80 78
f 440 413 359
f 986 1085 985
f 4 9 3
f 1015 963 956
f 1042 1040 1037
f 689 654 649
f 28 21 22
f 602 662 616
f 850 871 877
f 97 52 95
f 295 267 331
f 261 260 278
f 1072 1067 1073
f 953 878 938
f 54 52 97
f 44 46 41
f 657 674 698
f 628 619 586
f 212 178 159
f 958 1026 965
f 748 739 779
f 727 680 729
f 202 178 212
f 710 717 669
f 904 905 879
f 284 238 290
f 683 688 647
f 519 526 583
f 841 855 871
f 904 879 861
f 121 82 5
f 1032 1025 1029
f 599 582 569
f 376 360 382
f 793 741 774
f 241 182 250
f 131 136 183
f 1031 1032 1038
f 518 513 522
f 858 867 812
f 942 1084 987
f 379 328 348
f 941 904 966
f 755 718 654
f 1081 999 983
f 116 66 70
f 181 180 223
f 287 303 322
f 1037 1033 1035
f 149 146 107
f 373 394 318
f 692 748 797
f 181 156 123
f 359 413 375
f 931 881 901
f 621 601 599
f 667 669 623
f 751 798 729
f 635 629 691
f 274 249 261
f 590 624 587
f 698 805 750
f 1045 1040 1046
f 785 735 717
f 942 835 921
f 989 940 962
f 859 819 756
f 1054 1048 1049
f 820 880 831
f 937 915 883
f 869 823 843
f 809 734 775
f 875 791 815
f 485 435 441
f 156 130 123
f 501 488 437
f 649 654 607
f 540 565 507
f 675 696 622
f 772 730 688
f 326 351 299
f 164 124 132
f 231 190 196
f 908 876 856
f 762 722 727
f 403 388 338
f 891 896 811
f 971 1044 1051
f 827 764 740
f 966 1018 1031
f 870 791 875
f 519 434 514
f 976 1066 1070
f 731 700 736
f 378 315 324
f 31 24 26
f 1020 1009 1013
f 721 663 679
f 789 822 753
f 575 527 546
f 359 321 298
f 488 419 437
f 642 580 637
f 728 691 629
f 618 622 566
f 1025 1018 1016
f 294 293 227
f 434 389 354
f 22 21 15
f 989 1005 1014
f 301 237 234
f 872 787 897
f 679 668 720
f 582 562 557
f 295 208 267
f 760 806 826
f 460 418 487
f 399 441 378
f 1055 1052 1053
f 644 588 665
f 1034 1028 1030
f 805 715 802
f 606 649 607
f 174 137 83
f 540 507 490
f 671 666 741
f 301 315 259
f 835 930 799
f 550 463 485
f 1051 1047 1052
f 431 376 436
f 911 874 867
f 970 968 928
f 836 783 808
f 473 421 422
f 475 420 461
f 655 662 602
f 171 147 187
f 982 898 946
f 162 143 119
f 1043 1039 1047
f 546 453 519
f 652 594 663
f 179 132 143
f 88 86 20
f 218 170 165
f 390 431 453
f 923 859 913
f 1003 1002 1008
f 766 711 701
f 402 429 476
f 927 869 949
f 139 87 84
f 53 49 47
f 554 529 551
f 1044 971 969
f 29 33 27
f 1000 1087 986
f 522 513 521
f 493 438 467
f 163 114 153
f 939 914 868
f 604 554 627
f 590 545 547
f 367 343 334
f 480 458 417
f 571 549 598
f 885 864 862
f 115 38 39
f 37 33 36
f 152 151 85
f 238 177 198
f 878 836 903
f 172 111 166
f 656 630 579
f 821 815 749
f 671 596 666
f 807 792 817
f 411 374 358
f 513 479 478
f 261 186 218
f 742 710 696
f 858 812 822
f 335 393 327
f 948 988 918
f 848 803 781
f 222 231 239
f 831 811 769
f 827 849 764
f 58 55 53
f 440 462 413
f 983 999 936
f 753 752 675
f 932 924 891
f 243 239 280
f 236 211 185
f 657 698 726
f 423 411 448
f 735 781 761
f 699 665 724
f 520 477 476
f 371 343 367
f 340 292 286
f 46 48 47
f 1025 1016 1029
f 649 606 615
f 282 216 235
f 1008 1006 1010
f 357 312 305
f 612 542 646
f 29 27 28
f 703 661 691
f 760 722 762
f 262 254 277
f 217 205 179
f 216 234 168
f 991 958 932
f 144 81 133
f 968 993 928
f 844 857 816
f 548 564 550
f 640 575 584
f 530 593 560
f 956 919 896
f 305 279 272
f 888 853 852
f 497 444 432
f 305 272 269
f 348 329 346
f 183 154 199
f 120 110 79
f 306 298 266
f 775 712 783
f 242 241 272
f 714 713 651
f 599 569 571
f 590 587 545
f 864 810 840
f 847 860 778
f 354 281 311
f 796 757 767
f 300 253 276
f 512 468 421
f 776 744 823
f 860 800 778
f 743 690 756
f 463 450 424
f 744 702 743
f 638 558 570
f 901 877 902
f 117 103 130
f 361 319 328
f 855 814 854
f 849 848 785
f 23 25 18
f 817 782 829
f 502 501 465
f 299 324 282
f 1036 1030 1033
f 211 227 175
f 373 318 327
f 660 659 711
f 876 875 815
f 1051 1052 1055
f 508 445 475
f 376 377 360
f 436 389 434
f 771 758 730
f 739 721 779
f 516 529 554
f 820 831 780
f 74 76 73
f 157 162 119
f 316 264 256
f 87 23 18
f 802 715 692
f 576 607 508
f 163 153 184
f 774 807 838
f 737 666 670
f 863 788 882
f 422 368 364
f 451 385 428
f 112 3 111
f 102 100 66
f 551 533 528
f 1020 1013 1021
f 1044 1038 1043
f 298 258 266
f 379 386 385
f 289 255 325
f 641 675 618
f 909 908 856
f 453 436 434
f 629 571 598
f 103 68 64
f 574 519 580
f 496 495 503
f 68 69 65
f 282 301 234
f 159 129 171
f 683 647 633
f 684 653 722
f 552 540 488
f 494 419 488
f 177 154 156
f 347 381 323
f 793 774 838
f 549 559 589
f 536 493 517
f 8 7 2
f 225 192 249
f 307 309 363
f 36 29 30
f 950 933 971
f 679 612 646
f 1056 1054 1049
f 299 248 283
f 139 138 190
f 573 538 524
f 1067 1061 1068
f 178 148 159
f 56 51 54
f 842 817 829
f 930 922 799
f 936 946 874
f 876 928 875
f 699 724 759
f 837 787 750
f 629 685 702
f 251 198 181
f 1010 1006 1001
f 394 326 318
f 686 658 614
f 643 590 613
f 387 317 380
f 268 302 230
f 499 456 471
f 191 131 208
f 600 641 593
f 96 161 142
f 672 739 748
f 449 407 454
f 426 394 373
f 745 687 719
f 1023 1024 965
f 713 655 651
f 811 778 768
f 212 221 263
f 1056 1049 973
f 414 443 381
f 752 696 675
f 134 96 98
f 965 896 924
f 409 406 332
f 489 484 428
f 90 88 24
f 347 323 315
f 28 25 23
f 186 166 144
f 672 609 652
f 1033 1027 1035
f 986 925 895
f 382 370 366
f 284 252 238
f 358 374 350
f 611 650 677
f 397 336 356
f 586 619 510
f 355 330 336
f 765 671 741
f 79 76 77
f 1008 1002 1006
f 901 902 905
f 1035 1027 1026
f 1073 1067 1068
f 11 8 9
f 785 781 735
f 71 67 69
f 75 70 71
f 879 862 833
f 257 195 226
f 495 489 503
f 460 400 418
f 300 271 253
f 1068 1061 997
f 292 268 257
f 68 65 64
f 953 938 961
f 884 828 912
f 843 743 819
f 97 95 145
f 190 138 196
f 145 95 148
f 232 220 262
f 92 36 30
f 892 854 886
f 706 668 678
f 258 227 211
f 1019 956 1022
f 712 677 660
f 330 300 336
f 240 228 187
f 455 410 396
f 578 573 524
f 852 806 798
f 223 180 202
f 204 161 150
f 331 267 284
f 95 45 94
f 899 917 951
f 599 571 635
f 94 37 92
f 196 138 182
f 198 156 181
f 998 982 946
f 443 430 381
f 480 417 447
f 194 200 158
f 800 738 745
f 1087 1085 986
f 553 523 542
f 74 72 105
f 10 4 5
f 50 48 44
f 1007 954 1004
f 486 548 485
f 478 439 470
f 1003 953 961
f 615 544 596
f 928 944 906
f 507 543 474
f 52 50 45
f 410 356 396
f 55 98 49
f 81 1 125
f 302 260 230
f 574 580 617
f 1007 1003 1011
f 503 489 510
f 678 668 636
f 757 707 767
f 1000 986 922
f 266 258 211
f 454 390 453
f 40 39 35
f 8 13 7
f 696 667 622
f 494 540 490
f 329 278 302
f 12 6 7
f 494 490 419
f 974 1058 1066
f 426 433 394
f 981 917 920
f 129 92 128
f 106 104 70
f 854 834 865
f 714 651 639
f 893 891 880
f 341 340 286
f 909 856 857
f 89 23 87
f 277 243 280
f 606 607 576
f 434 458 514
f 817 792 782
f 811 847 778
f 839 794 770
f 104 132 116
f 547 483 463
f 224 217 162
f 297 277 314
f 344 290 362
f 286 226 246
f 969 1038 1044
f 188 168 155
f 234 204 168
f 146 119 107
f 1068 997 977
f 1034 1030 1036
f 107 119 75
f 1079 1074 1076
f 260 218 230
f 881 877 901
f 389 303 354
f 303 287 247
f 424 414 347
f 543 539 497
f 433 432 394
f 1076 1071 1072
f 736 699 759
f 987 1000 922
f 464 449 533
f 560 566 501
f 792 759 782
f 1032 1029 1034
f 448 411 439
f 497 486 444
f 910 914 939
f 356 276 320
f 365 337 310
f 586 510 531
f 1071 1065 1072
f 437 419 408
f 292 346 302
f 541 530 491
f 609 526 594
f 925 936 911
f 981 920 980
f 149 107 109
f 301 259 237
f 1035 992 993
f 386 348 346
f 691 661 635
f 1038 1032 1039
f 610 554 551
f 578 524 499
f 1023 1019 1022
f 180 123 135
f 495 442 484
f 277 254 243
f 179 164 132
f 155 168 122
f 951 917 959
f 384 335 316
f 902 892 905
f 299 282 235
f 733 746 704
f 562 582 577
f 975 996 915
f 716 657 726
f 958 965 924
f 973 972 909
f 539 548 486
f 293 286 246
f 898 907 848
f 478 448 439
f 1024 1022 957
f 516 459 415
f 940 910 939
f 939 868 923
f 363 309 371
f 859 818 878
f 182 121 160
f 531 510 468
f 456 440 405
f 891 811 831
f 318 283 273
f 483 443 450
f 605 597 540
f 14 9 10
f 838 830 842
f 945 970 928
f 609 594 652
f 232 215 220
f 754 676 718
f 835 799 794
f 1061 1060 975
f 516 415 529
f 875 906 870
f 107 75 80
f 1047 1045 1052
f 252 183 199
f 758 784 725
f 136 131 105
f 120 108 131
f 647 681 643
f 329 302 346
f 595 581 539
f 458 434 388
f 202 145 178
f 854 814 834
f 1010 1015 1019
f 722 653 727
f 532 512 473
f 954 913 953
f 404 417 337
f 283 248 217
f 617 580 642
f 62 58 57
f 898 849 874
f 236 266 211
f 585 543 507
f 409 332 345
f 761 763 709
f 903 836 890
f 964 927 949
f 1033 1030 1027
f 623 614 597
f 115 176 93
f 622 623 605
f 676 753 675
f 31 26 27
f 960 884 912
f 582 557 569
f 476 429 469
f 608 567 625
f 612 563 553
f 124 122 100
f 432 444 399
f 923 868 859
f 648 676 600
f 943 941 967
f 387 380 397
f 313 280 279
f 814 804 834
f 1075 1070 1074
f 114 23 89
f 816 821 758
f 150 161 96
f 63 60 58
f 990 1018 966
f 688 730 647
f 824 786 801
f 113 6 12
f 388 311 338
f 999 998 946
f 681 725 664
f 825 805 841
f 506 480 505
f 498 518 523
f 372 399 351
f 950 1051 1058
f 193 219 222
f 944 932 893
f 616 556 568
f 1010 1001 1012
f 1058 1051 1055
f 222 219 231
f 798 727 729
f 215 184 207
f 410 397 356
f 666 604 670
f 213 174 151
f 764 717 740
f 323 288 259
f 356 336 276
f 715 642 692
f 915 909 887
f 452 438 397
f 412 364 375
f 212 159 221
f 15 8 11
f 556 586 531
f 711 766 783
f 985 983 936
f 517 537 611
f 318 326 283
f 984 899 951
f 469 438 493
f 1078 979 982
f 522 542 518
f 851 788 863
f 1036 1033 1037
f 72 71 69
f 952 1084 942
f 838 807 830
f 1065 1057 1054
f 26 24 20
f 466 451 428
f 882 872 933
f 434 354 388
f 246 226 213
f 390 334 377
f 111 81 144
f 351 378 324
f 909 857 887
f 764 785 717
f 581 564 548
f 321 341 293
f 648 600 541
f 732 787 788
f 879 885 862
f 827 740 742
f 1084 1087 987
f 251 223 289
f 268 230 195
f 977 997 937
f 265 239 242
f 765 741 793
f 229 245 194
f 91 90 24
f 897 787 837
f 888 851 863
f 873 844 772
f 947 903 926
f 757 720 707
f 132 102 116
f 782 724 760
f 251 181 223
f 153 114 89
f 442 451 466
f 736 700 699
f 273 217 224
f 844 816 771
f 933 872 897
f 333 298 306
f 17 15 11
f 454 407 390
f 498 479 513
f 269 241 271
f 421 468 428
f 670 604 627
f 113 1 6
f 228 171 187
f 1040 1036 1037
f 734 690 677
f 707 706 767
f 386 346 385
f 1084 1083 1087
f 782 760 832
f 627 610 588
f 859 756 818
f 886 865 885
f 1028 1016 1020
f 996 995 909
f 620 589 611
f 761 709 695
f 597 614 565
f 259 288 233
f 54 51 48
f 920 866 916
f 1080 1079 1076
f 939 923 955
f 662 634 616
f 305 312 279
f 330 317 300
f 981 980 1075
f 1045 1046 1050
f 1026 958 991
f 437 408 406
f 969 931 943
f 703 704 661
f 285 295 352
f 534 487 516
f 35 38 34
f 977 937 935
f 100 60 66
f 705 755 654
f 188 155 164
f 984 1086 952
f 482 462 440
f 934 882 933
f 1082 1080 1083
f 253 201 276
f 769 713 780
f 984 929 899
f 837 750 825
f 424 450 414
f 402 357 339
f 871 892 902
f 1082 1075 1079
f 995 973 909
f 5 4 112
f 921 835 839
f 900 843 868
f 250 210 253
f 227 203 173
f 352 395 345
f 770 794 755
f 718 648 654
f 41 40 32
f 63 58 62
f 406 384 316
f 517 467 537
f 694 662 655
f 289 223 255
f 474 497 432
f 35 31 32
f 486 441 444
f 395 409 345
f 513 470 521
f 658 633 595
f 91 24 34
f 327 291 264
f 719 687 662
f 911 936 874
f 856 876 821
f 474 432 433
f 1041 993 968
f 1020 1021 1027
f 360 308 370
f 709 688 683
f 225 172 192
f 467 492 537
f 878 818 809
f 200 209 169
f 669 614 623
f 886 854 865
f 524 462 482
f 231 196 241
f 878 809 836
f 758 725 681
f 651 602 603
f 243 214 222
f 566 622 552
f 249 186 261
f 365 374 423
f 470 439 446
f 53 55 49
f 423 374 411
f 803 772 763
f 1004 954 953
f 625 619 693
f 1032 1034 1039
f 735 761 695
f 1052 1045 1053
f 187 147 163
f 774 731 773
f 783 712 711
f 728 629 776
f 734 712 775
f 402 339 387
f 100 99 60
f 535 475 461
f 660 570 608
f 1022 956 957
f 660 608 659
f 39 38 35
f 629 598 645
f 749 708 673
f 229 191 208
f 420 352 331
f 629 744 776
f 311 314 338
f 351 324 299
f 668 646 636
f 741 737 774
f 343 304 334
f 786 746 801
f 597 565 540
f 862 840 813
f 398 358 357
f 644 670 627
f 960 912 988
f 483 471 443
f 613 590 564
f 209 189 149
f 780 713 747
f 26 20 19
f 93 91 34
f 290 238 307
f 952 942 921
f 359 375 321
f 639 651 603
f 585 539 543
f 1031 1018 1025
f 110 109 78
f 406 408 384
f 230 165 195
f 1018 1007 1017
f 391 363 415
f 567 510 619
f 1015 1012 963
f 311 281 297
f 525 506 505
f 981 1075 959
f 928 906 875
f 1070 1066 1069
f 767 786 810
f 1001 988 948
f 833 795 776
f 292 302 268
f 405 359 333
f 205 188 164
f 118 74 105
f 422 364 412
f 712 660 711
f 296 256 245
f 778 800 745
f 469 429 438
f 951 959 1086
f 957 956 896
f 461 400 460
f 108 79 77
f 538 572 532
f 600 593 530
f 307 238 275
f 1021 1023 1026
f 51 47 48
f 763 688 709
f 364 340 341
f 204 197 161
f 305 269 339
f 480 447 505
f 651 655 602
f 248 205 217
f 218 165 230
f 952 929 984
f 227 173 175
f 526 563 594
f 856 821 816
f 126 112 111
f 158 200 169
f 109 107 80
f 173 152 140
f 784 821 749
f 65 63 62
f 460 487 500
f 120 158 110
f 979 977 935
f 122 99 100
f 169 149 110
f 744 629 702
f 956 963 919
f 770 705 671
f 622 605 552
f 243 222 239
f 812 827 742
f 340 349 292
f 85 83 12
f 990 904 927
f 703 733 704
f 430 369 381
f 59 97 135
f 581 613 564
f 874 849 827
f 792 773 736
f 1081 1080 1077
f 47 40 46
f 975 915 937
f 763 772 688
f 1032 1031 1025
f 427 401 442
f 319 274 261
f 1062 1059 996
f 342 306 288
f 400 331 392
f 441 435 378
f 313 279 312
f 871 855 892
f 194 158 120
f 710 669 667
f 781 803 761
f 967 1031 1038
f 1023 1022 1024
f 211 175 185
f 752 742 696
f 897 881 931
f 445 395 420
f 749 791 708
f 850 841 871
f 274 225 249
f 509 454 453
f 883 873 803
f 682 640 684
f 325 308 360
f 934 916 882
f 146 157 119
f 307 275 309
f 692 637 672
f 327 273 291
f 325 270 308
f 673 708 656
f 390 377 431
f 989 949 940
f 214 193 222
f 291 224 264
f 256 206 209
f 888 852 851
f 544 535 461
f 396 356 320
f 987 922 930
f 353 313 350
f 814 748 779
f 989 962 955
f 513 478 470
f 1065 1061 1067
f 889 853 888
f 108 118 131
f 432 399 394
f 974 916 934
f 933 897 971
f 804 779 796
f 1063 1058 1055
f 48 46 44
f 404 337 365
f 445 491 409
f 192 166 186
f 1001 948 963
f 383 347 315
f 720 668 707
f 140 86 88
f 554 610 627
f 183 117 154
f 447 404 423
f 587 579 545
f 769 768 694
f 652 663 697
f 71 70 67
f 1050 1046 1048
f 360 370 382
f 635 661 621
f 786 767 706
f 152 85 86
f 592 528 591
f 700 644 699
f 818 734 809
f 938 903 961
f 590 547 564
f 674 642 715
f 670 644 700
f 894 765 899
f 197 176 161
f 453 434 519
f 400 392 418
f 851 852 798
f 219 193 190
f 760 762 806
f 710 740 717
f 913 859 878
f 959 917 981
f 41 32 33
f 1048 1042 1041
f 438 452 467
f 782 759 724
f 1083 1080 1081
f 339 317 387
f 1065 1054 1061
f 327 318 273
f 7 6 1
f 632 626 682
f 705 689 615
f 725 749 673
f 1053 1045 1050
f 159 94 129
f 180 145 202
f 206 264 224
f 132 124 102
f 606 544 615
f 492 455 504
f 59 54 97
f 743 702 690
f 240 187 215
f 903 890 926
f 1003 961 1002
f 718 676 648
f 88 20 24
f 857 856 816
f 986 985 925
f 1009 1003 1008
f 846 828 738
f 186 170 218
f 1005 955 954
f 59 61 56
f 158 169 110
f 116 102 66
f 429 402 387
f 825 750 805
f 83 137 113
f 294 227 258
f 411 358 398
f 35 34 31
f 288 266 236
f 217 179 162
f 46 40 41
f 986 895 922
f 839 894 921
f 103 101 130
f 606 576 544
f 328 261 278
f 31 34 24
f 940 869 910
f 756 690 734
f 201 172 225
f 521 470 477
f 317 330 355
f 846 912 828
f 929 894 899
f 180 135 145
f 177 156 198
f 577 522 562
f 1047 1039 1045
f 938 878 903
f 882 788 872
f 323 342 288
f 56 57 51
f 525 523 553
f 777 746 733
f 1054 1056 1061
f 603 602 538
f 524 482 499
f 416 387 397
f 275 198 251
f 419 373 393
f 556 531 468
f 572 602 568
f 732 750 787
f 954 923 913
f 310 277 280
f 868 819 859
f 716 726 732
f 149 189 146
f 324 315 301
f 861 879 833
f 73 76 71
f 134 150 96
f 881 837 850
f 86 16 20
f 119 143 106
f 98 96 49
f 825 841 850
f 131 183 208
f 126 111 172
f 717 686 669
f 206 157 189
f 738 828 790
f 188 216 168
f 961 903 947
f 937 883 907
f 209 206 189
f 809 775 783
f 1073 1068 977
f 415 363 371
f 694 719 662
f 631 579 587
f 921 894 929
f 992 991 932
f 1042 1037 1041
f 15 13 8
f 669 686 614
f 891 924 896
f 290 307 362
f 1043 1038 1039
f 76 75 71
f 679 646 668
f 907 883 848
f 899 765 845
f 485 463 435
f 139 84 138
f 285 245 229
f 252 208 183
f 276 225 274
f 226 195 174
f 640 584 653
f 571 520 549
f 185 93 176
f 228 240 287
f 935 907 898
f 665 682 724
f 442 401 379
f 624 631 587
f 526 514 506
f 468 489 428
f 846 738 800
f 768 778 719
f 990 1014 1018
f 633 647 581
f 463 483 450
f 72 69 68
f 210 160 201
f 101 61 59
f 605 623 597
f 65 57 64
f 901 905 904
f 861 776 869
f 82 10 5
f 496 442 495
f 580 583 637
f 690 611 677
f 154 130 156
f 435 424 383
f 940 939 962
f 259 233 197
f 445 409 395
f 502 560 501
f 676 675 641
f 570 504 561
f 982 935 898
f 866 838 889
f 612 553 542
f 557 520 569
f 599 601 582
f 1017 1011 1016
f 823 743 843
f 442 466 484
f 673 631 664
f 701 625 693
f 37 44 41
f 926 890 884
f 895 789 799
f 738 693 628
f 505 423 498
f 394 372 326
f 59 56 54
f 574 546 519
f 646 542 636
f 941 901 904
f 181 123 180
f 234 237 204
f 567 555 510
f 57 53 51
f 670 700 731
f 396 320 361
f 697 663 721
f 687 628 634
f 165 125 137
f 993 944 928
f 245 200 194
f 79 78 76
f 615 596 671
f 263 221 244
f 275 238 198
f 138 82 121
f 370 322 366
f 439 411 398
f 323 381 342
f 608 561 567
f 303 281 354
f 534 516 554
f 526 506 525
f 702 685 690
f 170 144 133
f 866 888 863
f 680 653 657
f 242 239 231
f 471 456 430
f 506 458 480
f 292 257 226
f 511 536 559
f 45 50 44
f 442 379 385
f 911 867 858
f 1019 1015 956
f 642 637 692
f 1076 1074 1071
f 1077 1073 1078
f 647 643 613
f 192 172 166
f 540 494 488
f 138 121 182
f 918 912 846
f 926 884 960
f 235 216 188
f 1072 1065 1067
f 946 898 874
f 872 788 787
f 201 160 172
f 165 133 125
f 819 743 756
f 867 827 812
f 844 771 772
f 92 30 114
f 135 97 145
f 133 81 125
f 477 446 402
f 980 1070 1075
f 240 215 232
f 13 12 7
f 738 790 693
f 752 812 742
f 233 236 176
f 855 854 892
f 638 570 660
f 21 19 15
f 220 207 214
f 427 361 401
f 994 970 945
f 661 678 621
f 13 16 12
f 1016 1011 1009
f 950 971 1051
f 65 67 63
f 40 42 39
f 665 632 682
f 22 15 17
f 419 426 373
f 549 511 559
f 1071 1064 1065
f 1069 1064 1071
f 772 771 730
f 237 197 204
f 310 313 353
f 884 808 828
f 219 190 231
f 849 785 764
f 840 824 801
f 193 139 190
f 895 822 789
f 541 491 445
f 422 421 368
f 418 392 391
f 1044 1043 1051
f 237 259 197
f 757 721 720
f 943 901 941
f 247 232 281
f 371 309 343
f 698 674 715
f 1066 1058 1063
f 199 154 177
f 596 500 534
f 1063 1057 1064
f 892 885 905
f 1057 1053 1050
f 424 347 383
f 523 505 498
f 625 567 619
f 910 869 900
f 25 28 22
f 18 17 14
f 895 925 822
f 637 583 609
f 1007 1005 954
f 974 950 1058
f 525 505 523
f 635 621 599
f 205 248 235
f 294 321 293
f 374 353 350
f 203 293 246
f 978 916 976
f 634 556 616
f 963 948 919
f 935 937 907
f 30 29 23
f 632 591 626
f 614 585 565
f 367 334 390
f 793 838 866
f 7 1 2
f 1014 1005 1007
f 913 878 953
f 751 716 732
f 984 951 1086
f 808 790 828
f 589 559 517
f 975 1060 996
f 699 644 665
f 396 361 427
f 607 648 541
f 658 683 633
f 639 603 578
f 332 296 245
f 54 48 52
f 994 1041 970
f 577 582 601
f 78 80 76
f 865 834 810
f 1061 1056 1060
f 486 485 441
f 653 584 617
f 1057 1050 1054
f 684 640 653
f 1077 1078 1081
f 1034 1029 1028
f 203 152 173
f 147 128 163
f 458 403 417
f 277 310 314
f 965 957 896
f 1037 1035 1041
f 179 205 164
f 839 770 765
f 567 496 555
f 1069 1063 1064
f 917 866 920
f 824 810 786
f 444 441 399
f 272 241 269
f 293 203 227
f 425 407 449
f 922 895 799
f 656 639 630
f 921 929 952
f 868 843 819
f 408 419 393
f 1018 1017 1016
f 883 915 873
f 502 465 457
f 1049 1041 994
f 334 304 325
f 473 512 421
f 117 130 154
f 696 710 667
f 148 94 159
f 484 466 428
f 214 243 254
f 685 620 690
f 601 636 577
f 1009 1008 1013
f 802 814 855
f 841 805 802
f 701 659 625
f 273 283 217
f 81 2 1
f 1070 1069 1074
f 713 694 655
f 990 964 1014
f 384 408 335
f 380 355 336
f 461 460 500
f 69 67 65
f 1018 1014 1007
f 747 713 714
f 1002 947 1006
f 364 368 340
f 440 359 405
f 773 731 736
f 546 574 584
f 416 397 438
f 229 208 285
f 845 866 917
f 315 323 259
f 378 435 383
f 511 493 536
f 399 372 394
f 523 518 542
f 771 816 758
f 468 510 489
f 723 684 722
f 379 348 386
f 942 930 835
f 90 173 140
f 1006 960 1001
f 833 862 813
f 213 152 203
f 361 328 401
f 978 976 1070
f 893 880 820
f 565 585 507
f 93 141 91
f 82 14 10
f 205 235 188
f 255 202 212
f 168 134 122
f 81 3 2
f 632 592 591
f 741 666 737
f 350 312 358
f 784 749 725
f 382 366 389
f 978 920 916
f 842 832 853
f 836 808 890
f 949 989 1014
f 674 617 642
f 176 115 142
f 557 521 520
f 507 474 490
f 464 425 449
f 637 609 672
f 717 735 686
f 479 423 448
f 791 747 708
f 53 47 51
f 276 201 225
f 598 620 645
f 420 400 461
f 1027 1021 1026
f 147 129 128
f 415 371 425
f 870 820 791
f 176 236 185
f 175 141 93
f 802 797 814
f 987 1087 1000
f 544 500 596
f 675 622 618
f 462 412 413
f 309 304 343
f 492 410 455
f 477 402 476
f 1007 1004 1003
f 131 118 105
f 802 692 797
f 345 285 352
f 735 695 686
f 880 891 831
f 161 176 142
f 600 530 541
f 927 861 869
f 322 303 366
f 375 341 321
f 676 641 600
f 58 60 55
f 413 412 375
f 208 252 267
f 1060 1056 1059
f 20 16 19
f 349 346 292
f 508 541 445
f 385 346 349
f 909 945 908
f 887 844 873
f 578 603 573
f 813 801 777
f 559 536 517
f 634 628 556
f 334 360 377
f 151 174 83
f 409 457 406
f 1012 1001 963
f 85 12 16
f 596 534 604
f 287 240 247
f 84 14 82
f 9 8 3
f 1063 1055 1057
f 533 515 528
f 358 312 357
f 175 173 90
f 99 98 55
f 786 706 746
f 682 684 723
f 885 865 864
f 945 928 876
f 452 397 410
f 1046 1040 1042
f 284 290 344
f 255 212 270
f 1002 961 947
f 27 26 21
f 399 378 351
f 74 73 72
f 320 274 319
f 421 349 368
f 724 682 723
f 657 617 674
f 845 793 866
f 168 150 134
f 111 144 166
f 328 278 329
f 187 184 215
f 185 175 93
f 795 728 776
f 255 223 202
f 1085 1083 1081
f 551 464 533
f 381 369 342
f 1056 973 995
f 822 812 752
f 997 975 937
f 476 511 549
f 93 34 38
f 392 344 362
f 483 545 471
f 689 649 615
f 1075 1074 1079
f 734 677 712
f 814 779 804
f 115 93 38
f 1029 1016 1028
f 499 482 456
f 229 194 191
f 529 415 464
f 77 76 74
f 695 709 683
f 504 455 472
f 982 979 935
f 320 319 361
f 1001 960 988
f 662 687 634
f 67 70 66
f 169 209 149
f 210 182 160
f 241 196 182
f 746 706 704
f 972 1049 994
f 458 388 403
f 324 301 282
f 794 718 755
f 504 472 496
f 1017 1007 1011
f 352 295 331
f 542 577 636
f 167 89 139
f 8 2 3
f 304 289 325
f 974 1066 976
f 92 37 36
f 681 624 643
f 653 617 657
f 393 373 327
f 842 829 832
f 1021 1013 1010
f 1030 1020 1027
f 338 314 337
f 770 671 765
f 37 41 33
f 838 842 889
f 420 331 400
f 1086 959 1082
f 504 496 561
f 569 520 571
f 129 147 171
f 127 112 126
f 621 636 601
f 108 77 74
f 1056 995 1059
f 136 105 117
f 807 773 792
f 372 351 326
f 275 251 309
f 264 335 327
f 803 763 761
f 354 311 388
f 184 153 167
f 739 697 721
f 392 362 391
f 316 335 264
f 244 228 287
f 215 207 220
f 80 75 76
f 687 738 628
f 288 306 266
f 401 328 379
f 244 171 228
f 498 423 479
f 629 645 685
f 595 633 581
f 837 825 850
f 833 813 795
f 491 457 409
f 206 224 157
f 89 87 139
f 550 564 463
f 616 568 602
f 148 95 94
f 532 473 481
f 944 893 906
f 279 280 265
f 608 625 659
f 152 213 151
f 1055 1053 1057
f 721 679 720
f 528 515 509
f 412 481 422
f 766 701 693
f 860 918 846
f 272 279 242
f 160 127 126
f 614 595 585
f 552 488 501
f 692 672 748
f 563 525 553
f 537 492 558
f 992 932 944
f 417 403 337
f 456 405 369
f 997 1061 975
f 528 509 527
f 618 566 560
f 375 364 341
f 1060 1059 1062
f 1078 1073 979
f 708 714 639
f 430 456 369
f 157 224 162
f 754 789 676
f 650 558 638
f 521 477 520
f 472 427 442
f 110 78 79
f 457 465 406
f 111 3 81
f 677 650 638
f 128 114 163
f 737 670 731
f 226 174 213
f 883 803 848
f 1010 1013 1008
f 48 50 52
f 889 842 853
f 195 165 137
f 1023 1010 1019
f 770 755 705
f 643 624 590
f 42 43 39
f 308 244 322
f 233 176 197
f 707 668 706
f 467 410 492
f 296 316 256
f 778 745 719
f 515 454 509
f 780 831 769
f 1087 1083 1085
f 308 270 263
f 988 912 918
f 124 100 102
f 170 133 165
f 481 473 422
f 369 405 333
f 398 357 402
f 17 11 14
f 1035 1026 991
f 791 820 747
f 840 810 824
f 733 703 728
f 182 210 250
f 137 125 113
f 980 978 1070
f 654 648 607
f 1050 1048 1054
f 117 68 103
f 1021 1010 1023
f 221 159 171
f 545 499 471
f 788 751 732
f 280 239 265
f 972 994 945
f 962 939 955
f 47 49 42
f 391 307 363
f 303 247 281
f 339 269 317
f 851 798 788
f 805 698 715
f 295 285 208
f 932 958 924
f 544 461 500
f 286 292 226
f 145 148 178
f 267 252 284
f 110 149 109
f 1035 991 992
f 1051 1043 1047
f 278 260 302
f 298 321 294
f 919 948 918
f 94 45 37
f 579 499 545
f 57 58 53
f 690 620 611
f 925 911 858
f 96 142 43
f 732 726 750
f 83 113 12
f 979 1073 977
f 328 329 348
f 776 823 869
f 214 207 193
f 811 768 769
f 322 244 287
f 496 503 555
f 630 578 579
f 310 280 313
f 971 897 931
f 332 406 316
f 357 305 339
f 257 268 195
f 1084 1082 1083
f 964 949 1014
f 256 264 206
f 727 653 680
f 174 195 137
f 580 519 583
f 841 802 855
f 86 85 16
f 453 431 436
f 269 271 300
f 439 398 402
f 1041 1035 993
f 241 250 271
f 730 681 647
f 959 1075 1082
f 184 167 207
f 564 547 463
f 760 723 722
f 113 125 1
f 162 179 143
f 141 90 91
f 121 5 127
f 965 1024 957
f 667 623 622
f 605 540 552
f 240 232 247
f 377 376 431
f 745 738 687
f 435 463 424
f 556 468 512
f 608 570 561
f 1011 1003 1009
f 27 21 28
f 426 474 433
f 789 753 676
f 677 638 660
f 189 157 146
f 919 918 860
f 408 393 335
f 299 235 248
f 64 61 101
f 626 575 640
f 73 71 72
f 465 437 406
f 568 556 512
f 897 837 881
f 325 255 270
f 555 503 510
f 627 588 644
f 452 410 467
f 705 615 671
f 665 588 632
f 799 754 718
f 19 16 13
f 121 127 160
f 1039 1036 1040
f 756 734 818

