# https://github.com/mikedh/trimesh
v -1.99463851 -1.96237625 -0.89731648
v -1.99873693 -1.99470187 -0.81515326
v -1.98685343 -1.99988223 -0.51795783
v -2.00007922 -1.98555625 -0.30010935
v -1.99800307 -1.99574114 -0.05767401
v -1.99290735 -1.99271000 0.05879473
v -2.00139863 -1.94870032 -0.63949283
v -2.00072987 -1.95147956 -0.45086478
v -2.00301654 -1.91554023 -0.00381936
v -2.00166113 -1.88206590 -0.76137628
v -2.00092442 -1.84969486 -0.21639816
v -1.99625380 -1.82851172 0.03494285
v -1.99990065 -1.84188498 -0.88030245
v -1.99991877 -1.63851441 -0.47137873
v -2.00121791 -1.62911905 -0.09358756
v -1.98001201 -1.69260658 -0.90028544
v -2.00160176 -1.56651283 -0.81367125
v -1.99773295 -1.58968473 -0.00380656
v -1.99659807 -1.50565518 -0.89479860
v -2.00003345 -1.39537776 -0.63949671
v -2.00008161 -1.34971065 -0.23427942
v -2.00141508 -1.38059498 -0.06480128
v -1.98621828 -1.28598125 -0.03908022
v -2.00152857 -1.29965098 -0.86193719
v -1.99177653 -1.23447616 -0.89888771
v -1.99993164 -1.14141495 -0.50973906
v -2.00085027 -1.11343444 -0.74312093
v -2.00152356 -1.10389990 -0.14421854
v -2.00014836 -1.03565676 -0.29557188
v -1.99790914 -0.98871280 -0.09124952
v -1.99788839 -1.01247562 -0.89269169
v -2.00234372 -0.92016501 -0.85289206
v -2.00008280 -0.88257236 -0.60623910
v -2.00110228 -0.77314616 -0.17714514
v -2.00004251 -0.68081374 -0.45289226
v -1.99780089 -0.79758046 -0.89531316
v -2.00121171 -0.66187129 -0.80250754
v -1.99581391 -0.66360713 -0.12871818
v -1.99296982 -0.49938177 -0.89851387
v -2.00008971 -0.39919313 -0.58349951
v -1.99994642 -0.44788735 -0.18746411
v -2.00089247 -0.41476122 -0.80343183
v -2.00069267 -0.28289103 -0.33883678
v -1.99280555 -0.16691160 -0.19836915
v -2.00082166 -0.17123526 -0.77773204
v -1.99003775 -0.15223729 -0.89712419
v -2.00007302 -0.08698491 -0.59140309
v -2.00032432 0.12775879 -0.67799952
v -2.00077803 0.03984158 -0.34885888
v -1.99931652 0.03979745 -0.88715698
v -1.98707349 0.21407836 -0.24864405
v -2.00027544 0.36086141 -0.47588470
v -2.00084192 0.29302864 -0.30975705
v -2.00127179 0.29922926 -0.85492303
v -2.00045974 0.40677880 -0.73180332
v -1.99190576 0.38134210 -0.89865597
v -1.99044664 0.38838612 -0.27507084
v -2.00144512 0.47235226 -0.32944771
v -2.00101502 0.57986068 -0.85439267
v -2.00055511 0.59861600 -0.49438598
v -1.99808294 0.68728780 -0.32176905
v -1.99430139 0.79456889 -0.89779808
v -2.00040347 0.70987331 -0.75426295
v -2.00033600 0.96953892 -0.57923885
v -2.00162108 0.81000876 -0.40151494
v -2.00051028 0.91556334 -0.86270072
v -1.98548491 0.90224575 -0.34446504
v -2.00100572 0.96030926 -0.38542261
v -1.99190433 1.12122714 -0.89770820
v -2.00092108 1.21574771 -0.77760138
v -1.99300439 1.11825275 -0.37669157
v -2.00086577 1.27964794 -0.45864095
v -1.99246604 1.39955806 -0.41647049
v -2.00081117 1.58920812 -0.59352478
v -1.99694354 1.41273450 -0.89000072
v -2.00171191 1.58064472 -0.85520186
v -1.99087770 1.69870090 -0.89918031
v -1.99325616 1.77888679 -0.46878444
v -2.00234420 1.88934611 -0.80622693
v -2.00215203 1.91956567 -0.57798680
v -2.00017984 1.94272184 -0.89432492
v -1.98875863 1.99531483 -0.52050056
v -1.99738700 1.99694800 -0.73415359
v -1.96832950 1.99952125 -0.88466223
v -1.84919388 -2.00175691 -0.75990667
v -1.95390732 -2.00235058 -0.12650006
v -1.89594121 -1.84605766 -0.90243664
v -1.90115470 -1.86218894 0.05408077
v -1.94506652 -1.65846217 0.01991548
v -1.89975185 -1.45057810 -0.90089913
v -1.95619220 -1.05167425 -0.06691187
v -1.92020340 -1.13175506 -0.90132900
v -1.91396529 -0.88489039 -0.90101530
v -1.95364256 -0.80056880 -0.10136129
v -1.93109185 -0.56516995 -0.13212436
v -1.91282243 -0.25841496 -0.17210609
v -1.89622790 0.08418079 -0.90152284
v -1.87439711 0.02724966 -0.20888982
v -1.90050406 0.47791540 -0.90174951
v -1.84758443 0.47475170 -0.26874750
v -1.90623993 0.80843388 -0.32171266
v -1.85030849 0.77435016 -0.90155294
v -1.85342581 1.09159004 -0.90113994
v -1.95854051 1.21378183 -0.90281769
v -1.83096106 1.43131577 -0.40052005
v -1.78349526 1.67399143 -0.90056892
v -1.94855899 1.92974137 -0.90274348
v -1.89593608 1.91102432 -0.47367244
v -1.87358064 2.00242614 -0.72595598
v -1.94750137 -2.00026906 -0.89589139
v -1.76408012 -2.00049020 -0.55281397
v -1.91447265 -1.99653734 0.06845737
v -1.87464089 -0.59141292 -0.90140750
v -1.88239057 -0.28066963 -0.90211358
v -1.83953447 1.11829900 -0.35793980
v -1.93610150 1.43310415 -0.90149703
v -1.84304804 1.66452741 -0.43474417
v -1.87902374 2.00037121 -0.49149971
v -1.75069136 -1.52803517 0.02148534
v -1.83820505 0.21274262 -0.23119434
v -1.79082341 -2.00038970 -0.19544913
v -1.84909851 -1.35803790 -0.01228050
v -1.79131038 1.99558758 -0.89690425
v -1.73815627 -0.69349510 -0.09375105
v -1.81680877 -1.12981094 -0.04123068
v -1.75240476 -1.97975374 -0.90033724
v -1.75135893 -1.62351013 -0.90021678
v -1.72959132 -0.37628501 -0.90020200
v -1.71705420 -1.80992699 0.06491403
v -1.75914950 -1.20935363 -0.90035006
v -1.75170095 -0.83703096 -0.90019616
v -1.71064634 -0.38261326 -0.13448011
v -1.83397383 -1.97975040 0.07793392
v -1.68366367 1.92571520 -0.90189995
v -1.72793240 1.35264944 -0.90006675
v -1.69479401 1.81091141 -0.43879422
v -1.59804518 -1.08810026 -0.89991196
v -1.70219714 0.47098928 -0.90000930
v -1.76645631 -2.00055791 0.08063001
v -1.76880426 -1.98456479 0.08531307
v -1.65066273 -0.61127243 -0.90004202
v -1.66969974 -0.07316084 -0.89988776
v -1.64964206 0.19898944 -0.89982679
v -1.73036487 0.64727091 -0.28085440
v -1.66230375 0.91724335 -0.31130429
v -1.68389411 0.99794315 -0.90004416
v -1.62294573 -2.00028826 -0.88474657
v -1.56694145 2.00170230 -0.80338731
v -1.62280268 -2.00143791 0.00363560
v -1.63299281 -0.96838183 -0.04344653
v -1.67965788 2.00173139 -0.53028842
v -1.57473201 -1.99982036 -0.42731821
v -1.58560700 0.45558952 -0.23819137
v -1.70459647 -1.99306751 0.09131885
v -1.62910635 -1.86504818 -0.90074488
v -1.60140915 -1.28845245 0.00426514
v -1.52959950 -1.34201676 -0.89988758
v -1.57044549 -0.08656014 -0.16069805
v -1.62127502 1.26794445 -0.35594790
v -1.63790948 1.56613421 -0.39950304
v -1.58370192 1.99573015 -0.45622706
v -1.66703970 -1.99876273 0.08709747
v -1.55380125 0.20184182 -0.19933183
v -1.55319078 0.78147160 -0.89999588
v -1.56873769 -1.70894099 0.06681794
v -1.58485360 1.54989826 -0.89992823
v -1.53758354 -1.63432229 -0.89993223
v -1.48151917 1.32549929 -0.89982905
v -1.40372665 1.91803693 -0.42135640
v -1.64990098 -1.97355545 0.09742360
v -1.46988136 -0.88149823 -0.89992031
v -1.53819401 0.76027953 -0.27572580
v -1.46336586 -1.99993170 -0.16409970
v -1.44848532 -1.54712273 0.05726328
v -1.41570265 2.00131320 -0.55105867
v -1.45553596 -2.00049508 -0.64691230
v -1.52140231 -1.99140836 0.10721795
v -1.50535745 1.05946409 -0.89983948
v -1.46358330 1.63928055 -0.39068069
v -1.45198018 1.99792122 -0.89361562
v -1.48679978 -1.91800214 0.10741349
v -1.40426261 -0.36856069 -0.89992197
v -1.46308965 1.18870055 -0.32745807
v -1.48457200 -1.97274555 -0.90097137
v -1.53452797 -0.71503035 -0.06779630
v -1.40005881 0.65389430 -0.89993592
v -1.41219253 -0.43588013 -0.09379406
v -1.40104217 1.43101417 -0.35462960
v -1.56509358 -1.01010788 -0.03317509
v -1.37988073 -0.07578728 -0.89993288
v -1.42241509 0.37436091 -0.89992311
v -1.37400622 -1.77929009 -0.90020849
v -1.52395267 -1.23433573 -0.00091713
v -1.43419487 -1.00138278 -0.14682218
v -1.52559692 -0.82604829 -0.05537786
v -1.40664262 -0.63992427 -0.89996346
v -1.37954659 1.70907616 -0.90004470
v -1.30027289 1.92677759 -0.90203758
v -1.47209305 -1.14599413 -0.09463522
v -1.36601204 -2.00155426 0.05928189
v -1.36235959 -1.50773526 -0.89991762
v -1.41870803 -1.27151121 -0.07927134
v -1.36675019 0.43431597 -0.21119109
v -1.39485151 0.94465768 -0.28569632
v -1.41138179 -0.83781681 -0.14905190
v -1.41119344 -0.65308041 -0.06971244
v -1.30425269 0.71122717 -0.24307755
v -1.29122681 -1.99979866 -0.39120265
v -1.36352033 -1.99245549 0.12785462
v -1.43672890 -1.39424921 0.03154306
v -1.34397966 0.11779632 -0.89996346
v -1.34137232 0.96892094 -0.89995905
v -1.36735577 1.99760007 -0.43775254
v -1.36010522 -1.99921597 -0.89315393
v -1.30069501 -1.81871677 0.11235871
v -1.33325440 1.23380994 -0.89990970
v -1.31383807 -0.71864194 -0.16383282
v -1.26325316 -0.20991787 -0.10916073
v -1.28629644 0.11693721 -0.15793066
v -1.26529867 2.00085949 -0.77601393
v -1.32527775 -1.40870047 -0.04349256
v -1.28013987 -1.28887183 -0.89996018
v -1.29955227 -1.02448321 -0.89997586
v -1.20895321 1.04776060 -0.27967962
v -1.31347043 -1.19460077 -0.18729678
v -1.13686711 -2.00124575 -0.75728275
v -1.30606706 -1.51667393 0.06182237
v -1.26267261 1.59069156 -0.36166593
v -1.23257143 -1.94834352 -0.90115311
v -1.20605821 -0.76148350 -0.89999279
v -1.10964079 -0.37280841 -0.07196364
v -1.25798268 0.53746318 -0.89997347
v -1.13664682 1.86434316 -0.38508349
v -1.19512970 -1.59773911 0.09128693
v -1.22850210 -1.06948800 -0.24925599
v -1.22721798 -0.90741886 -0.25180674
v -1.13344724 1.35480010 -0.89994760
v -1.15822954 1.99381994 -0.89818313
v -1.21379466 -1.47185267 -0.04228771
v -1.11424799 0.19395893 -0.90000083
v -1.12421150 0.40526848 -0.89999618
v -1.12801714 1.29279040 -0.30510404
v -1.03014226 2.00120138 -0.51667984
v -0.95603491 -1.99985970 -0.23993855
v -1.16355009 -2.00030089 -0.03612849
v -1.03798980 -1.78627826 -0.90027895
v -1.20509417 -1.31806547 -0.17243793
v -1.00772781 -0.41241413 -0.14006369
v -1.15798921 0.37944191 -0.18046807
v -1.11586625 0.57971828 -0.20392433
v -1.13052828 0.73347508 -0.89999398
v -1.08215208 -1.99882782 -0.89130457
v -1.05933995 -1.12274367 -0.89999797
v -1.06216974 -0.68771476 -0.23631511
v -1.15625698 -0.28628441 -0.89998581
v -1.07270832 1.13923501 -0.89999475
v -1.13285298 1.99796533 -0.41015743
v -1.07381458 0.04015075 -0.12367841
v -1.05473156 0.82399427 -0.23141760
v -1.02350742 1.50970983 -0.32407524
v -1.09016676 -1.71590222 0.12095650
v -1.06639201 -1.55759598 0.02745556
v -1.08624656 -1.38302315 -0.89997973
v -1.09866292 -0.96685828 -0.89999946
v -1.04586250 -0.47665169 -0.89999791
v -1.00198788 -0.02530677 -0.90000184
v -1.11950988 1.58558439 -0.89999797
v -1.15342135 -1.92737354 0.14476224
v -1.12352795 -1.19627149 -0.24467247
v -1.09066672 0.95617615 -0.89999898
v -0.98773367 1.77442669 -0.90060719
v -1.14832658 -1.99817587 0.14810909
v -0.97580523 -1.53809918 -0.90001645
v -1.09846825 -1.43461431 -0.11533712
v -0.90050728 2.00185465 -0.78343459
v -0.97907669 -1.99999762 -0.54952713
v -1.01222343 -2.00201965 0.09725911
v -1.08234531 -1.32717485 -0.19354252
v -0.98844261 -1.98877407 0.16765862
v -0.99583943 -1.96007884 -0.90116396
v -1.04905767 -1.00505597 -0.28716352
v -0.98391265 1.10937881 -0.26354908
v -0.98302300 -1.85148824 0.15225870
v -1.03951938 -0.85009388 -0.27753385
v -0.93559171 -0.13560207 -0.08321693
v -0.99491162 -1.61202312 0.11239614
v -0.82402868 -0.75105948 -0.90000190
v -0.91427732 -0.29246852 -0.90000238
v -0.90742929 0.91959047 -0.90000405
v -0.91849346 0.35409235 -0.90000143
v -0.82990379 0.68762254 -0.18770770
v -0.90041984 1.78977775 -0.34850144
v -0.88675261 -1.29243285 -0.89999243
v -0.91952289 -1.24411977 -0.22703805
v -0.93769813 -1.09143467 -0.27476170
v -0.93702621 0.35980432 -0.15318131
v -0.87324602 1.48792302 -0.89996000
v -0.97107787 -1.40837456 -0.14051000
v -0.88434035 1.99343943 -0.37823262
v -0.79309727 -0.67588694 -0.26399397
v -0.84126163 -2.00078715 0.01831957
v -0.91541375 -1.48314107 -0.06256219
v -0.86659832 -0.93865294 -0.27576619
v -0.89199210 0.61279767 -0.90000143
v -0.82932235 1.28357672 -0.89998343
v -0.80536974 -2.00055993 -0.88620492
v -0.90739013 -0.90451671 -0.90000143
v -0.79916806 1.30341124 -0.27044278
v -0.80148143 1.99682378 -0.89146557
v -0.85679562 -1.54802097 0.04237813
v -0.66757972 -2.00093973 -0.76529863
v -0.90583146 -1.94947291 0.17511699
v -0.83125354 -0.14685068 -0.07528967
v -0.80004067 -0.11286131 -0.90000149
v -0.78277326 0.97662019 -0.22279154
v -0.84453446 -1.61002446 0.13101161
v -0.82617313 -1.33172572 -0.16051841
v -0.79135466 -0.41769664 -0.21222664
v -0.86333776 -1.99970139 0.17265285
v -0.71699793 1.91036605 -0.90144005
v -0.72447259 -1.56603254 -0.89995583
v -0.74164427 -1.10760707 -0.22047243
v -0.74007333 0.13733291 -0.90000131
v -0.78061874 1.58830010 -0.30832221
v -0.68841393 1.69191336 -0.90001555
v -0.70662124 -1.96854485 -0.90096154
v -0.68060464 -1.08019609 -0.90000006
v -0.82930655 -0.49610993 -0.90000107
v -0.75575102 0.17958783 -0.10772661
v -0.73307861 -1.99986316 -0.44058578
v -0.74836303 -1.96716452 0.19506785
v -0.75723768 -1.80077029 0.17007331
v -0.73285831 -1.79639448 -0.90025975
v -0.72797579 -1.99814475 0.19222476
v -0.69938875 -1.48648501 0.05843295
v -0.77862556 -1.43817640 -0.05828944
v -0.68276001 0.37298839 -0.90000053
v -0.71087010 0.77443766 -0.90000173
v -0.74944312 1.10495602 -0.89999422
v -0.66351546 1.82717442 -0.32791006
v -0.75465179 2.00149893 -0.47403719
v -0.59737582 -0.31714292 -0.90000024
v -0.61432762 2.00054454 -0.69103428
v -0.71431858 -1.55563236 0.13439430
v -0.66931040 -0.10979704 -0.12859857
v -0.71862090 0.35408049 -0.13093217
v -0.59282369 0.55699944 -0.90000030
v -0.66823519 0.51110672 -0.16468539
v -0.54611398 -1.99997974 -0.07798370
v -0.65933532 -1.33437861 -0.89998313
v -0.62942780 -0.91914386 -0.22990966
v -0.59059102 -0.57171010 -0.90000024
v -0.67010308 -1.37333465 -0.04696302
v -0.57147945 -2.00006820 -0.58175423
v -0.46482203 -0.02552552 -0.90000012
v -0.58611090 1.30487787 -0.24720774
v -0.66585732 1.99710249 -0.36897778
v -0.60282863 0.79080521 -0.17708307
v -0.61829097 -0.38986193 -0.23275728
v -0.58198620 1.27901589 -0.89995982
v -0.52541608 -1.51082075 0.15482970
v -0.59638900 -1.24643809 -0.08219869
v -0.51478875 -0.14877074 -0.18939537
v -0.63706929 0.02812131 -0.07518453
v -0.51370198 0.23025959 -0.90000006
v -0.62233479 0.14881562 -0.09678760
v -0.52829421 1.06498300 -0.20716298
v -0.56354261 1.01811229 -0.89999553
v -0.45665772 1.86374616 -0.90104296
v -0.60787798 -2.00193835 0.17284403
v -0.60802353 -1.91532791 0.20297269
v -0.50641657 -0.97171498 -0.90000089
v -0.52896256 -0.69594223 -0.23877510
v -0.55544592 -0.51435135 -0.24782153
v -0.57744122 -0.79188920 -0.90000077
v -0.50250167 0.21492427 -0.15190368
v -0.54728205 -1.99949742 -0.89088162
v -0.59715141 -1.99306262 0.21146488
v -0.47224904 -1.75965799 0.19467842
v -0.51636226 -1.32835013 0.06589226
v -0.57836712 1.64751028 -0.29424035
v -0.58553232 2.00218248 -0.86297550
v -0.48846752 -1.79845787 -0.90020301
v -0.56275404 -1.43094529 0.13493086
v -0.50095356 0.48697501 -0.17750998
v -0.42881791 1.99269985 -0.89858677
v -0.51541180 -1.46379352 -0.89997502
v -0.53523392 -1.06241394 -0.14437101
v -0.49170948 1.52020287 -0.89996716
v -0.51941700 1.97760343 -0.33229192
v -0.54300887 2.00126313 -0.46127158
v -0.56844927 1.99933337 -0.35319062
v -0.39000744 -1.99988461 -0.40435105
v -0.35915128 -2.00100566 0.11177731
v -0.43742246 -1.18386716 -0.89999642
v -0.49631710 0.05950981 -0.11855074
v -0.39105264 0.70644330 -0.14443631
v -0.32278708 2.00009202 -0.59999873
v -0.39168916 1.81324267 -0.29645716
v -0.47461147 -1.99363602 0.22462037
v -0.46881802 -1.93153990 0.22093433
v -0.42763067 -0.87994630 -0.16513692
v -0.42478708 -1.28138781 0.12600870
v -0.40981222 0.88427757 -0.90000035
v -0.39810992 0.86024474 -0.16336205
v -0.27527232 2.00171637 -0.83505877
v -0.45678405 1.99998473 -0.34517618
v -0.39652208 -1.95731676 -0.90120717
v -0.37809948 -1.03980745 -0.05549069
v -0.37784488 -0.72590856 -0.90000030
v -0.35908458 -2.00104082 -0.74475761
v -0.31274829 -0.24150927 -0.22361436
v -0.29287485 0.66894721 -0.90000053
v -0.37581868 1.50717377 -0.25241970
v -0.35958368 -1.59583498 0.18395845
v -0.37011618 -1.15788604 0.05157389
v -0.36742843 -0.23478074 -0.90000000
v -0.36364929 -1.36848486 -0.89997890
v -0.31567181 1.21231496 -0.20450023
v -0.32042278 2.00109052 -0.35888793
v -0.33650798 -1.99919225 -0.89103653
v -0.26448444 -1.60851324 -0.89993598
v -0.28916086 -1.36103512 0.15915062
v -0.28431708 -0.50782249 -0.89999994
v -0.31293947 0.49375742 -0.16862772
v -0.33104426 -0.07529823 -0.20030867
v -0.31340311 0.22315126 -0.18348613
v -0.31811506 1.16504120 -0.89999052
v -0.22803742 1.67001485 -0.90002026
v -0.30375964 0.48611497 -0.90000006
v -0.26118926 1.43875097 -0.89996203
v -0.32133181 1.99281620 -0.31601732
v -0.27144788 -1.80465318 -0.90024211
v -0.31252248 -0.42002471 -0.22591240
v -0.32227013 0.06870177 -0.16903715
v -0.23719058 -1.99330307 0.25113691
v -0.28800447 -0.78426970 -0.13555278
v -0.21868346 0.99145662 -0.16279248
v -0.26878775 -1.99996961 -0.15688705
v -0.26695899 -1.07363714 -0.90000137
v -0.23880986 -0.00021077 -0.90000000
v -0.20248581 0.25683164 -0.90000000
v -0.21513178 1.66488003 -0.25677980
v -0.24180076 -1.91514123 0.24395881
v -0.20743050 -1.74669374 0.22186505
v -0.21173068 -0.84692232 -0.90000053
v -0.23633520 -0.54077973 -0.19085484
v -0.12539389 0.90734338 -0.90000071
v -0.18262539 1.90741324 -0.90109541
v -0.22844059 -1.07337380 0.12303085
v -0.19856697 1.95336675 -0.29349317
v -0.11641633 -2.00049234 -0.70666512
v -0.17301407 0.49079119 -0.14454675
v -0.15180909 0.62457143 -0.10511831
v -0.15052462 2.00053357 -0.43792348
v -0.06957129 -1.57835449 0.21313126
v -0.18064018 -0.94903130 0.05134470
v -0.12347687 -0.65279494 -0.10583452
v -0.18379236 -0.32692653 -0.89999994
v -0.08101197 0.78195476 -0.11743520
v -0.14161182 -1.34492011 -0.89998671
v -0.09235371 1.25766169 -0.18629932
v -0.04584725 2.00054931 -0.71008780
v -0.10289694 -2.00117589 0.13936266
v -0.13763984 -1.13702668 0.14500285
v -0.04599053 -0.10132045 -0.90000000
v -0.07749415 -1.99990691 -0.39429813
v -0.10982321 0.03517719 -0.19840930
v -0.07764650 0.19287556 -0.18779424
v -0.17265741 1.99901365 -0.31407585
v -0.06387065 -1.89085925 -0.90091928
v -0.09312453 1.51538586 -0.22246582
v -0.15372451 -1.97380555 -0.90123512
v -0.06270604 1.99833297 -0.89534827
v -0.01947690 -1.99991585 -0.21192478
v -0.09922449 -0.24596619 -0.20252644
v -0.02879480 -2.00000251 -0.88309308
v -0.07058144 -1.30402733 0.17500316
v -0.01930214 -0.90673418 -0.90000119
v 0.05045748 0.68010520 -0.90000030
v -0.06640188 1.14076542 -0.89999475
v 0.01288005 -1.91378547 0.27092884
v 0.03598604 -1.73373140 -0.90001722
v -0.03546525 -0.61512450 -0.90000006
v -0.06289828 -0.44340340 -0.15469950
v -0.00109334 0.42404693 -0.90000000
v -0.06404664 -0.74454121 -0.01260891
v -0.02341097 1.89061283 -0.26640465
v 0.00393980 -1.49390996 -0.89995178
v -0.02715646 1.40711688 -0.89996894
v -0.05820762 -1.79952682 0.24587319
v -0.05710404 -0.87301961 0.10480878
v -0.01299307 0.17709272 -0.90000000
v 0.02288529 1.73462104 -0.24024608
v 0.01496329 1.97205447 -0.90091171
v -0.00516463 -0.94039071 0.13203030
v -0.01589821 0.36185151 -0.14756998
v -0.03910996 1.99990725 -0.31064071
v 0.01503898 -0.37077056 -0.89999994
v -0.01480664 -0.29118733 -0.17950306
v 0.12710418 -1.13982803 -0.89999845
v 0.05379451 0.99376189 -0.13316496
v 0.11169086 2.00014829 -0.46812161
v 0.02045527 0.57617073 -0.08170326
v 0.07643073 -1.99991358 -0.55065986
v 0.05472093 -1.30223949 -0.89997836
v 0.10687911 -1.19258470 0.17932385
v 0.01120767 -0.84827433 0.10884325
v -0.01212371 -0.70352892 -0.00304270
v 0.00592826 -0.59972192 -0.07219615
v 0.15263706 -0.56772805 -0.90000006
v 0.12719644 1.50208699 -0.89994778
v 0.14370504 -1.45298184 0.21924531
v 0.03530649 -0.45857352 -0.14017432
v 0.14621139 1.42449474 -0.18341190
v 0.16307566 1.76273059 -0.90018346
v 0.15386830 -2.00001729 -0.02902167
v 0.14371234 -1.67221821 0.24985654
v 0.15841531 -0.12026358 -0.90000000
v 0.12798103 -0.10979397 -0.20196839
v 0.07661870 -1.99766935 0.27380226
v 0.09492928 -0.87460179 0.05628234
v 0.08014573 -0.67108119 -0.07225957
v 0.15055153 -0.36169639 -0.19133935
v 0.09334678 0.52818047 -0.11089713
v 0.15488575 1.17252921 -0.89999553
v 0.13752197 0.07678600 -0.18715507
v 0.23972470 -1.99369038 -0.89713474
v 0.24401843 -2.00083686 -0.78122064
v 0.20690466 -1.09756655 0.16828271
v 0.15248749 0.29213571 -0.17534263
v 0.11502676 1.19710850 -0.15499841
v 0.22565357 -1.47468210 -0.89991160
v 0.22819044 0.15884488 -0.90000000
v 0.16872209 0.50438689 -0.90000006
v 0.13162620 1.99993848 -0.88987561
v 0.15875908 -0.78058288 -0.90000083
v 0.25608899 2.00044345 -0.72768970
v 0.15838715 2.00100111 -0.30875777
v 0.14338406 1.99368452 -0.26475706
v 0.27519891 -0.89642734 -0.06571491
v 0.24196447 0.43991249 -0.15943804
v 0.19300603 0.87831210 -0.90000077
v 0.25447812 0.92652821 -0.10141677
v 0.22086521 -2.00197388 0.20864620
v 0.18159456 -1.98517121 0.29810427
v 0.18417238 -1.92689396 -0.90269681
v 0.23972384 1.92992543 -0.24242733
v 0.32694214 -1.99990893 -0.35552835
v 0.28550386 -0.92620827 -0.90000208
v 0.22442909 -0.66208351 -0.14231848
v 0.20802657 1.77528834 -0.22554896
v 0.14871555 1.96738314 -0.90129831
v 0.28560694 -1.81086434 0.28574271
v 0.32582589 -0.44182636 -0.90000000
v 0.21463198 0.71309125 -0.07912797
v 0.29729073 1.90856814 -0.90175434
v 0.28700071 -0.28265344 -0.20976417
v 0.28868928 0.63708209 -0.12131815
v 0.31937572 1.20395719 -0.13330352
v 0.33548137 -2.00005902 -0.58610978
v 0.31882434 -1.35413743 0.22526021
v 0.25483067 1.98931908 -0.89738925
v 0.29814424 -1.99908043 0.29950551
v 0.33497219 -1.18695248 0.12263852
v 0.38492574 -0.12993660 -0.18468674
v 0.38294362 0.36007356 -0.90000000
v 0.33565747 1.54599833 -0.89994695
v 0.31055888 2.00059079 -0.39430996
v 0.29384427 0.04139113 -0.16259169
v 0.45720913 -0.69494105 -0.90000065
v 0.34549849 -0.57437170 -0.19720509
v 0.35996806 -1.99998785 -0.00935939
v 0.31034999 -1.74551392 -0.90030547
v 0.38530733 -1.11573357 0.00023593
v 0.29165318 0.17798858 -0.17016027
v 0.43121480 0.63483285 -0.90000024
v 0.40629118 1.61628865 -0.18169435
v 0.33013304 1.99960636 -0.25142968
v 0.37498369 -1.93600381 -0.90245589
v 0.41892784 -1.62825025 0.27449686
v 0.37978124 1.07231020 -0.89999881
v 0.35006275 1.31916796 -0.89997151
v 0.39949485 1.41315400 -0.15390243
v 0.40428429 -1.22534437 -0.89997884
v 0.45468014 -2.00147284 0.20753633
v 0.44771188 -1.60660172 -0.90003648
v 0.43803590 -0.84817857 -0.16081501
v 0.44412222 -0.15425014 -0.89999994
v 0.40550040 0.33394455 -0.16190147
v 0.48085257 0.86655187 -0.90000089
v 0.44580530 1.76183819 -0.90037992
v 0.41450294 1.97048306 -0.22887961
v 0.43186342 0.90708958 -0.08063839
v 0.44955706 1.86510967 -0.21121324
v 0.45187395 -1.84222306 0.30868728
v 0.53491729 -1.39065636 -0.89993968
v 0.51255443 -0.91566712 -0.90000143
v 0.45212977 0.17678123 -0.13474249
v 0.42721977 2.00165199 -0.84481063
v 0.63712840 2.00067591 -0.72379758
v 0.49421429 2.00029277 -0.46068533
v 0.53786897 -1.11417020 -0.89999535
v 0.42763584 0.05188810 -0.11803451
v 0.49871888 0.60065006 -0.14907715
v 0.45601093 -1.98540057 0.32663725
v 0.56729870 -1.84354366 -0.90106126
v 0.50389426 -0.05769519 -0.13363369
v 0.46198033 0.77695321 -0.11515449
v 0.48526093 1.98808169 -0.89922222
v 0.47759404 -2.00117017 -0.86463948
v 0.53234773 -0.52131812 -0.21907828
v 0.45753717 0.14504766 -0.90000000
v 0.44496142 -1.37863685 0.23065560
v 0.52590343 1.10650705 -0.09578881
v 0.53809576 -1.36431850 0.08213638
v 0.53194215 -0.70905001 -0.21115056
v 0.54816746 1.52793216 -0.89994892
v 0.51791366 1.99942254 -0.23664897
v 0.57712471 -1.99287618 -0.89774641
v 0.57268893 -2.00008083 -0.64085176
v 0.58050411 -1.99988783 -0.17611837
v 0.51849764 -1.52755547 0.27123854
v 0.55608892 -1.16125197 -0.08547565
v 0.52669071 -0.36110607 -0.20579738
v 0.61100202 -0.48441362 -0.90000047
v 0.58306359 1.18033754 -0.89999743
v 0.59903728 1.35137998 -0.12308601
v 0.67324894 -1.99992562 -0.34347810
v 0.61296587 -1.99994493 0.04382509
v 0.57153504 -1.51976121 0.26683558
v 0.62196772 -1.94915319 0.34292064
v 0.63964235 -1.53957439 0.19695559
v 0.59378432 0.18058496 -0.08597480
v 0.63312089 0.39234679 -0.12588114
v 0.59898328 0.50361501 -0.14423487
v 0.66718852 1.94842624 -0.90131470
v 0.72368764 -1.50041903 -0.89993068
v 0.62088703 -0.21616580 -0.90000035
v 0.61784380 -0.00418545 -0.05755809
v 0.57261800 0.06256410 -0.05369379
v 0.66102170 0.44816732 -0.90000035
v 0.65604376 0.87915444 -0.11587599
v 0.71670031 1.82082605 -0.17576570
v 0.67661046 1.95270156 -0.19755805
v 0.79378032 -1.81525756 0.34274358
v 0.72724026 -0.99477930 -0.20574387
v 0.69382381 -0.29392809 -0.15886072
v 0.61574285 1.99996900 -0.88341799
v 0.64667129 -1.99911512 0.34111527
v 0.71961545 -0.02885962 -0.90000030
v 0.73314016 1.31435775 -0.89998784
v 0.72640222 -1.65838838 0.30965764
v 0.69334834 0.24379157 -0.90000041
v 0.68533330 -1.49131430 0.06931364
v 0.69373684 -1.14836551 -0.15572981
v 0.76158630 -0.18988776 -0.08781655
v 0.70728629 0.16334801 -0.02343901
v 0.75023775 1.11563050 -0.07958070
v 0.78717100 1.78632116 -0.90014811
v 0.76565169 2.00137543 -0.24092863
v 0.78281241 -2.00230003 0.28790326
v 0.73459684 0.03860234 0.04985606
v 0.73661559 0.72204529 -0.13240959
v 0.72658067 0.76335763 -0.90000071
v 0.67849027 1.99780201 -0.20887361
v 0.71184229 -2.00107122 -0.76051273
v 0.71608596 -0.94758750 -0.90000244
v 0.74210422 1.52666318 -0.89996942
v 0.71206736 -1.38818909 -0.04694184
v 0.76642119 -0.73748718 -0.22813538
v 0.82248264 0.98491096 -0.89999970
v 0.83058190 1.99987697 -0.47102516
v 0.86142921 -1.99978519 -0.05866007
v 0.83859109 -0.58171360 -0.20235435
v 0.86659955 0.14633518 -0.90000083
v 0.76297694 0.37727987 -0.08045924
v 0.73774867 1.52566241 -0.13241811
v 0.80364942 -1.19053448 -0.89999523
v 0.81770378 -0.73497871 -0.90000184
v 0.82409101 -0.29279664 -0.90000113
v 0.90849268 -1.93838633 -0.90132590
v 0.82070141 -2.00002743 -0.54991820
v 0.88109284 -2.00026191 0.13165297
v 0.78449856 0.10980841 0.05748785
v 0.82063340 0.60817694 -0.11244730
v 0.83398872 -1.79117990 -0.90009650
v 0.84441566 -1.59488500 0.10354460
v 0.93869387 -0.54171895 -0.90000035
v 0.83227050 -0.06198973 0.04916269
v 0.93931811 1.23284411 -0.89999225
v 0.80626433 1.33102333 -0.09697399
v 0.89234119 -1.66368032 0.23678530
v 0.84547036 0.53068536 -0.90000030
v 0.86569475 1.99392699 -0.18534920
v 0.80660938 -1.96935273 0.36600623
v 0.87583362 -1.35040719 -0.13612331
v 0.85957735 1.99904894 -0.89522018
v 0.83747988 -1.99811996 -0.89650681
v 0.94260567 -2.00199581 -0.79170956
v 0.90189420 -1.99989344 -0.28946983
v 0.92038368 -1.99719120 0.37459491
v 0.91163783 -0.97810245 -0.90000292
v 0.90957462 0.13949769 0.08042387
v 0.91118532 0.31297015 0.02176923
v 0.86932283 0.93278240 -0.11741981
v 0.89195370 1.64351820 -0.13207474
v 0.88833105 -1.49333943 -0.03602761
v 0.90158360 -0.43532663 -0.14188441
v 1.01581668 0.32279634 -0.90000125
v 0.96953177 0.52139115 -0.03996889
v 0.95859378 -1.70784987 0.34032063
v 0.89094501 -1.22778989 -0.19371905
v 0.87705486 -0.01065550 0.09831970
v 0.98704063 2.00070285 -0.67934658
v 0.97036027 2.00070094 -0.28157883
v 0.91442608 -0.94425250 -0.23576993
v 1.05142539 1.44367253 -0.08648231
v 1.03982215 1.95743488 -0.90119030
v 0.99399190 -1.93733860 0.38233952
v 0.97708731 -1.56934775 -0.89988281
v 0.94237202 -1.38650442 -0.89996125
v 0.95224439 -1.08975697 -0.23078006
v 0.95929687 -0.21229138 0.02231736
v 1.02710723 -0.04258592 -0.89999845
v 1.01152985 0.79859673 -0.90000137
v 1.03478544 1.94926476 -0.15722310
v 1.04872876 -1.17559034 -0.89999755
v 0.97737317 0.84271037 -0.10773489
v 1.00057291 1.15125214 -0.09244761
v 0.96867477 1.55313813 -0.89995470
v 1.11001676 -1.99993695 -0.54792251
v 1.01201951 -0.35491744 -0.04806757
v 1.08948021 -0.89734120 -0.89999857
v 1.02218603 -0.84225474 -0.22300700
v 1.07473832 0.03739320 0.11350640
v 1.14867144 0.50658082 -0.89999189
v 0.95506643 1.27707671 -0.07466368
v 1.04819470 -1.99797417 -0.89623728
v 1.03121059 -1.56527258 0.02504849
v 1.01204073 -0.57366904 -0.15723371
v 1.03153538 -0.15964257 0.13317163
v 1.03165554 1.81104254 -0.13968792
v 1.10351830 -1.80881573 0.37571586
v 1.11035006 1.77203035 -0.90017237
v 1.11138289 2.00012969 -0.88686778
v 1.08419245 -2.00320006 0.32473818
v 1.04108637 0.73906755 -0.07685625
v 1.16562586 1.99996089 -0.45931750
v 1.09491473 -0.32713793 -0.89999666
v 1.06611638 -1.40828884 -0.11788937
v 1.17238121 1.63400125 -0.09987987
v 1.09853654 -1.67289782 0.23139279
v 1.12933236 -0.53883674 -0.09282406
v 1.14427977 -1.99991203 -0.18759901
v 1.13580959 -1.81745709 -0.90040263
v 1.07001179 -1.23550118 -0.20136774
v 1.06522208 0.40384679 0.05983564
v 1.13822012 1.04814290 -0.89999451
v 1.12507813 1.24250459 -0.05704329
v 1.16442733 1.99702262 -0.15620267
v 1.14377146 -2.00006057 0.11954975
v 1.12105911 -1.05408681 -0.22996179
v 1.16221660 -0.76202569 -0.17725808
v 1.12391656 -0.30169944 0.08883120
v 1.24708062 -0.48494424 -0.89997776
v 1.20740145 2.00079679 -0.75300332
v 1.14332657 -0.70031316 -0.89999100
v 1.28866427 0.32464611 0.09637045
v 1.19673031 1.05714130 -0.06849085
v 1.17241602 2.00146579 -0.21592634
v 1.23038536 -1.99687458 0.40738211
v 1.15558522 -1.70842017 0.36436436
v 1.22609442 -1.31780828 -0.89994635
v 1.17042797 0.64038943 0.01101676
v 1.23051362 0.77925562 -0.89999374
v 1.25011223 -0.27045078 0.17629736
v 1.23177808 0.17459404 -0.89998647
v 1.21596890 1.45712232 -0.89995064
v 1.20510631 -1.57188059 0.07372392
v 1.21754938 0.50139885 0.06372229
v 1.21809297 0.84229492 -0.04007723
v 1.27442794 -2.00092221 -0.75729176
v 1.24008840 -1.97107375 -0.90224870
v 1.29504292 -1.57944013 -0.89987560
v 1.30309003 -1.62128092 0.25754670
v 1.22869699 -1.29885770 -0.14600117
v 1.27684276 -1.14563132 -0.17524635
v 1.24044257 -0.98506207 -0.19983422
v 1.29916995 -0.10988645 -0.89996626
v 1.46426683 -1.99091757 -0.89719429
v 1.24878769 -1.44097627 -0.04680662
v 1.25823408 -0.51401679 0.00681498
v 1.29700892 1.12021350 -0.89997991
v 1.33827835 -0.99308623 -0.89996388
v 1.29544502 -0.43394595 0.12946864
v 1.27775829 -0.37075512 0.18757176
v 1.36390787 1.80079173 -0.10170600
v 1.32404106 -1.99991012 -0.48558151
v 1.24951606 -0.70688731 -0.12323947
v 1.29546147 1.33651148 -0.04436935
v 1.31880777 -1.99999238 0.06069875
v 1.32388680 -2.00160099 0.28213716
v 1.42952292 -1.75372029 0.40307538
v 1.33274036 -0.08885423 0.15901864
v 1.28827589 0.68548273 0.04465842
v 1.33518689 1.75641035 -0.90023687
v 1.34755032 1.94605946 -0.12218046
v 1.39352136 -1.99985994 -0.19838732
v 1.28759222 -1.95471860 0.41686530
v 1.33749872 -0.72856367 -0.89995553
v 1.35534149 0.13679796 0.12993886
v 1.26732510 1.96462726 -0.90176793
v 1.36643093 -1.29509331 -0.07819430
v 1.49169879 -1.87404347 -0.90161195
v 1.36567121 1.51518463 -0.06192236
v 1.40439301 -1.59699775 0.37327243
v 1.33354192 -0.86739583 -0.14467779
v 1.41805725 0.63814317 -0.89995976
v 1.31775813 1.12678587 -0.01622059
v 1.48100620 0.58696788 0.08072690
v 1.40198951 1.44499849 -0.89989867
v 1.42077582 2.00107693 -0.84218141
v 1.35994714 2.00127362 -0.17558180
v 1.38155823 -1.44527686 0.04112001
v 1.43874972 -1.31245238 -0.89988228
v 1.41090982 -0.72562067 -0.03648522
v 1.42023390 1.99371289 -0.12488489
v 1.42353182 1.99547147 -0.89833631
v 1.54548865 1.99993443 -0.63466211
v 1.50769287 -2.00150848 0.34876017
v 1.57346635 -0.34028633 -0.89990046
v 1.46270340 0.36660843 -0.89991703
v 1.47321134 0.86147153 -0.89997562
v 1.45403045 -0.54998679 -0.89995672
v 1.36864214 0.89308261 0.02208949
v 1.46487492 2.00005554 -0.35588439
v 1.55511194 -2.00122155 -0.80351963
v 1.39534717 -1.00325967 -0.12952655
v 1.47850304 -0.39814342 0.21923702
v 1.45792048 -0.20006155 0.18851430
v 1.47762614 1.09656488 0.00932558
v 1.44892435 -1.13420690 -0.07667032
v 1.53674333 0.07502650 -0.89995964
v 1.47710483 1.14982342 -0.89993896
v 1.56648605 1.41658782 -0.02618610
v 1.45029681 -1.98275829 0.43589420
v 1.46284693 -0.84716068 -0.05098164
v 1.45337110 -0.60808847 0.10176483
v 1.45728069 0.83155262 0.04410157
v 1.51225703 -1.99984778 -0.41434633
v 1.54741292 -1.64325059 -0.89990087
v 1.54313593 1.86693143 -0.90153893
v 1.48721116 -1.48519183 0.23620839
v 1.57739346 0.09370949 0.16027785
v 1.59059923 -1.99983955 0.14468073
v 1.49929219 -1.26371086 0.01409760
v 1.66812401 -1.10135306 -0.90007862
v 1.53037291 -0.97739399 -0.01304690
v 1.54497557 -0.60114010 0.25030030
v 1.59187322 0.30053496 0.13291945
v 1.62440997 2.00078439 -0.17627708
v 1.49646919 -1.37805653 0.09312266
v 1.58985811 -0.85582221 -0.89992847
v 1.56210368 1.58203386 -0.89990391
v 1.53544181 -0.76307572 0.06457707
v 1.57262867 -0.68917728 0.20120240
v 1.67593472 0.77450132 0.07590204
v 1.57030349 1.59272527 -0.05025471
v 1.59570854 -1.36045707 0.26569764
v 1.64189642 -2.00011898 -0.57619878
v 1.53933757 -1.96425713 0.44664825
v 1.61877244 -1.48490239 0.38621963
v 1.56675702 -1.25975157 0.09698180
v 1.54877358 -1.14132244 0.01853452
v 1.73402136 0.19694542 -0.90011766
v 1.62897020 1.30676579 -0.89993771
v 1.66445773 1.81490516 -0.07012713
v 1.67677789 1.98895239 -0.09502909
v 1.65105598 -1.99988771 -0.14087657
v 1.59808700 -1.40183009 0.36466120
v 1.58083539 -0.88745797 0.06415089
v 1.61007719 -2.00272120 0.41677163
v 1.72246807 -1.41052068 -0.90008023
v 1.68066507 -0.67347989 0.28009016
v 1.67083757 -0.29886172 0.22572736
v 1.64693563 -0.06418387 0.19014939
v 1.75354903 0.79257869 -0.90012332
v 1.65100186 1.99349498 -0.89871903
v 1.69946878 -0.48272532 0.25485195
v 1.64033227 0.98730480 -0.90001323
v 1.59929662 -1.99484731 0.45268617
v 1.64499276 -1.92735482 0.45255948
v 1.62345772 -1.07474304 0.11391285
v 1.76140886 0.59145688 -0.90012046
v 1.76425701 1.71260332 -0.90036597
v 1.65738790 -1.21707863 0.25977389
v 1.65226322 -0.87156151 0.21201637
v 1.77461653 -0.57677812 -0.90056165
v 1.71869116 1.17561626 0.02481472
v 1.82424777 2.00101542 -0.36604898
v 1.84197967 2.00187921 -0.79180863
v 1.88333302 -2.00213230 -0.68725123
v 1.81356078 -2.00057722 -0.36000927
v 1.80982011 -1.87042809 0.46249212
v 1.65322547 -0.77532620 0.28372304
v 1.78132039 -0.12371466 -0.90059759
v 1.79893296 0.49252628 0.12929752
v 1.75471406 -1.99714542 0.46683256
v 1.68135767 -1.04353971 0.24581493
v 1.76836508 -2.00159574 0.35535816
v 1.80725186 -1.86619163 -0.90179213
v 1.84624224 -1.54581726 0.42072944
v 1.68352156 -1.24409486 0.35687278
v 1.85598426 1.65145587 -0.02589548
v 1.69197004 -0.90047754 0.30698053
v 1.86677366 -0.10945050 0.22212242
v 1.86926775 0.07653748 0.19623456
v 1.79764228 1.46349537 -0.90019610
v 1.87308460 -1.19961662 0.37590198
v 1.70544689 -1.06575847 0.33001892
v 1.88331621 -0.85952235 -0.90107497
v 1.82710116 -0.96812023 0.33723966
v 1.87264829 0.33363139 0.16074772
v 1.82254427 1.08586668 -0.90064903
v 1.85444980 -1.99972845 -0.89558758
v 1.85403257 -2.00116373 -0.13896622
v 1.88619571 -2.00066794 0.09200438
v 1.92836028 -0.33908915 -0.90131494
v 1.89737897 1.90171885 -0.90273931
v 1.91819959 1.31529342 0.02844849
v 1.92272346 0.41980492 -0.90184923
v 1.91615086 -1.54087222 -0.90117254
v 1.87555986 0.93109213 0.07784759
v 1.93075149 -1.19828302 -0.90196796
v 1.91806989 -0.59099682 0.29574741
v 1.91403358 1.99395107 -0.06826139
v 1.86631709 2.00206589 -0.11220518
v 1.93215185 -0.79840774 0.32522751
v 1.92400473 0.68741273 0.11719696
v 1.89449566 1.98992013 -0.89887985
v 1.89261847 -1.99584044 0.48592342
v 1.92542189 -0.32179612 0.25950778
v 1.93615787 -2.00265718 0.38780616
v 1.94195431 1.90016078 -0.04981232
v 1.94759362 0.10446044 -0.90169164
v 1.93447893 1.29298305 -0.90138294
v 1.95614391 0.81811558 -0.90175774
v 1.95200091 1.61959254 -0.90132179
v 1.95293634 -1.90740455 0.48697067
v 1.97891395 1.08782779 0.06454394
v 1.98985856 -1.99953938 -0.24216742
v 1.99034768 -0.11199502 -0.89797553
v 1.98465519 -1.98376180 0.49145989
v 1.97985440 -1.01629896 0.36106903
v 1.98849850 -0.61859693 -0.89907523
v 1.98885959 0.35844164 0.16768723
v 1.99749725 1.70976209 -0.02708984
v 1.99095934 -1.78450836 -0.89987673
v 1.98827880 -1.39685632 0.41442187
v 1.99241119 -1.24058617 0.39156962
v 1.99193817 -0.39837962 0.27099107
v 1.99201196 -0.02427600 0.22079180
v 1.99459820 1.51143943 0.00578496
v 1.99852579 1.99408983 -0.45499902
v 1.99582785 -1.99854613 -0.68376233
v 1.99718087 -1.99605966 0.12600631
v 2.00123887 -1.91725195 0.47852395
v 1.99914854 -1.75684286 0.45220805
v 1.98848408 -1.58807755 0.43985770
v 1.99508768 -1.26156486 -0.89700623
v 1.99651831 -0.76549403 0.32144163
v 1.99658614 0.25084018 -0.89368024
v 1.99551683 0.55285608 -0.89647289
v 1.99245315 0.86067151 0.09647502
v 1.99844675 1.02629613 -0.89411457
v 1.99833732 1.77172946 -0.89399149
v 2.00228327 1.91917466 -0.07356909
v 1.99710887 1.96464347 -0.89293142
v 1.99478560 1.99910664 -0.82140859
v 1.99987333 1.99838447 -0.17702144
v 1.99353867 -1.99547518 -0.89792385
v 1.99852627 -1.99370790 0.35088483
v 1.99866741 -1.50217820 -0.88951673
v 2.00168341 -1.13593436 0.34827284
v 1.99771648 -1.04337073 -0.89447721
v 1.99895780 -0.86454717 -0.89461913
v 1.99870031 -0.31836785 -0.89181443
v 2.00068801 0.05809890 -0.88592984
v 1.99755257 0.63001763 0.12299567
v 2.00098448 0.79187774 -0.86531295
v 1.99814194 1.32940840 0.02261584
v 1.99888032 1.28087961 -0.89273038
v 1.99887138 1.45870017 -0.89156946
v 1.99735039 1.61748706 -0.89422997
v 1.99938493 1.99502443 -0.07140835
v 2.00153082 -1.94542576 -0.76583662
v 2.00095683 -1.89222945 -0.49962249
v 2.00129121 -1.91782964 -0.15727187
v 2.00354152 -1.92146862 0.30992694
v 2.00031310 -1.75150967 0.15030629
v 2.00166827 -1.70131005 -0.83892592
v 2.00002771 -1.71845258 -0.23406038
v 2.00006633 -1.59371770 -0.61903819
v 2.00105935 -1.55663277 0.30680458
v 1.99991196 -1.42478932 -0.40131964
v 1.99985140 -1.52975036 0.01503083
v 1.99989312 -1.31618173 -0.17801868
v 2.00073569 -1.26431853 -0.75342347
v 2.00144380 -1.35709871 0.36765940
v 1.99996679 -1.32230384 0.12710730
v 1.99990194 -1.09947527 -0.40191176
v 2.00001364 -1.07792521 0.01584172
v 2.00099068 -1.06575818 0.22974504
v 2.00264531 -1.08772624 -0.83302136
v 2.00047725 -0.93340308 -0.66348936
v 1.99984651 -0.90218998 -0.09611022
v 1.99994927 -0.81788818 -0.38347032
v 2.00221150 -0.70179371 0.20194013
v 2.00215726 -0.71811042 -0.85698845
v 1.99990409 -0.56445793 -0.17370104
v 2.00041132 -0.56898611 0.04251051
v 1.99993437 -0.58190001 -0.45334374
v 2.00073426 -0.53467489 -0.75237670
v 1.99990409 -0.31216393 -0.38732236
v 2.00158899 -0.28889709 0.20696885
v 1.99994593 -0.23642298 -0.58484229
v 2.00007074 -0.29307506 -0.02522663
v 2.00118654 -0.17851777 -0.79482921
v 1.99987309 -0.05282150 -0.33009430
v 2.00041418 -0.09671525 0.09298175
v 2.00002115 0.11494701 -0.56343933
v 2.00004487 0.05531450 -0.16954855
v 2.00101667 0.16408157 0.13974854
v 2.00156050 0.16907131 -0.80064150
v 1.99988621 0.28006452 -0.33230286
v 2.00023144 0.23557448 -0.09587411
v 2.00134366 0.41354083 0.08155647
v 2.00170582 0.40529161 -0.84103199
v 2.00007766 0.37659436 -0.58519866
v 2.00013559 0.48948609 -0.08041864
v 2.00052219 0.57818919 -0.78887000
v 1.99985259 0.54782759 -0.36155518
v 2.00001555 0.76156413 -0.51981141
v 2.00175839 0.74778842 0.04409050
v 2.00004535 0.80135047 -0.19879491
v 2.00097530 0.97674381 -0.73353919
v 1.99986046 1.00580465 -0.36529430
v 2.00097685 1.04781794 -0.02312451
v 1.99988275 1.22525632 -0.53757366
v 1.99984401 1.26937853 -0.27422973
v 2.00180834 1.28773855 -0.80733617
v 2.00204044 1.39836191 -0.06786635
v 1.99989491 1.47228467 -0.62439676
v 2.00167935 1.65676259 -0.79432388
v 2.00101118 1.65137695 -0.24027612
v 2.00082128 1.80439448 -0.50798067
v 2.00311523 1.94026565 -0.74596389
f 635 599 634
f 135 116 106
f 143 97 99
f 189 199 194
f 311 377 421
f 194 195 189
f 243 175 213
f 645 595 644
f 83 79 80
f 405 358 397
f 299 233 292
f 811 795 734
f 1010 1005 1011
f 790 766 750
f 436 394 464
f 457 437 409
f 978 945 958
f 424 342 417
f 544 460 556
f 584 515 560
f 315 282 259
f 797 796 849
f 590 576 599
f 181 177 209
f 490 481 431
f 108 82 78
f 1000 983 967
f 533 489 506
f 706 664 729
f 388 351 322
f 700 683 667
f 403 384 361
f 649 600 601
f 378 334 370
f 956 987 922
f 626 680 571
f 1029 988 953
f 529 477 528
f 613 534 567
f 964 1053 958
f 981 978 1057
f 172 203 207
f 248 254 318
f 384 344 361
f 139 112 86
f 331 312 319
f 134 106 107
f 743 707 752
f 457 416 450
f 959 982 926
f 864 811 835
f 648 625 675
f 304 290 241
f 1058 1057 1055
f 132 96 95
f 625 612 675
f 340 381 399
f 280 306 252
f 401 371 378
f 878 869 915
f 508 496 530
f 73 72 71
f 226 214 252
f 160 105 159
f 624 616 670
f 518 482 554
f 735 717 723
f 723 757 763
f 1002 959 984
f 410 440 372
f 220 238 180
f 700 699 739
f 911 856 928
f 217 205 236
f 440 395 372
f 849 866 867
f 912 815 852
f 89 88 129
f 534 589 519
f 395 387 350
f 1030 1025 1027
f 702 650 662
f 323 240 290
f 228 179 188
f 526 448 481
f 570 566 608
f 85 126 147
f 395 350 327
f 916 898 910
f 909 883 911
f 64 63 60
f 1020 987 956
f 689 626 681
f 978 1056 1057
f 770 729 782
f 533 574 483
f 737 710 694
f 488 399 443
f 169 136 179
f 673 715 601
f 848 818 839
f 906 867 898
f 429 389 369
f 997 966 982
f 605 542 590
f 1015 971 986
f 990 940 957
f 736 704 714
f 326 377 306
f 1007 1001 1003
f 86 5 4
f 618 627 583
f 872 847 892
f 14 10 7
f 400 370 394
f 623 562 581
f 373 303 351
f 951 934 975
f 468 435 426
f 1048 1046 1044
f 126 110 87
f 747 702 662
f 1016 1015 986
f 445 401 444
f 785 756 721
f 339 338 289
f 736 714 742
f 678 578 628
f 442 441 365
f 129 140 154
f 432 407 390
f 137 157 130
f 352 410 375
f 69 103 62
f 1046 1043 1044
f 588 624 656
f 165 119 129
f 865 822 807
f 1016 1009 1015
f 438 405 460
f 747 662 684
f 291 259 250
f 173 152 208
f 540 539 498
f 133 88 112
f 540 488 548
f 764 741 735
f 419 367 438
f 808 798 878
f 1006 1003 1004
f 949 896 930
f 882 894 898
f 387 422 383
f 571 598 550
f 53 52 49
f 245 173 244
f 719 660 637
f 230 223 171
f 959 926 912
f 221 210 227
f 114 113 39
f 753 712 773
f 323 266 240
f 897 874 870
f 1042 1040 1039
f 271 297 267
f 599 604 641
f 233 228 260
f 965 902 901
f 638 687 607
f 635 634 677
f 492 487 457
f 100 120 163
f 1028 1021 1025
f 987 986 922
f 536 495 474
f 1043 1036 1040
f 972 936 939
f 181 170 177
f 248 318 345
f 88 6 112
f 409 388 362
f 578 552 515
f 297 237 267
f 449 429 369
f 28 21 22
f 496 492 465
f 874 857 863
f 862 837 824
f 450 423 465
f 218 158 187
f 933 959 912
f 180 198 134
f 981 901 938
f 954 942 944
f 674 629 701
f 713 697 757
f 149 121 173
f 461 422 418
f 385 376 427
f 1034 957 963
f 929 956 899
f 951 900 934
f 203 153 163
f 828 808 878
f 104 69 75
f 424 410 352
f 122 23 119
f 372 395 327
f 543 480 448
f 908 821 861
f 635 590 599
f 373 351 402
f 563 557 553
f 265 287 230
f 286 234 261
f 709 648 675
f 514 500 485
f 486 534 493
f 418 387 395
f 276 226 311
f 870 874 863
f 433 408 383
f 885 916 923
f 177 149 200
f 894 875 874
f 155 184 147
f 539 503 498
f 90 19 25
f 902 941 889
f 190 182 142
f 488 494 552
f 1024 1016 1020
f 800 764 818
f 773 712 744
f 111 85 176
f 812 736 805
f 1036 1032 1040
f 725 681 651
f 685 658 663
f 334 301 370
f 1047 991 976
f 917 943 963
f 920 873 913
f 529 452 477
f 914 881 873
f 129 88 140
f 1025 1023 1027
f 609 559 605
f 924 918 957
f 618 652 627
f 798 752 816
f 938 901 862
f 743 644 707
f 970 969 1005
f 846 900 931
f 397 385 425
f 716 673 661
f 880 856 809
f 610 557 563
f 222 157 137
f 735 723 763
f 11 4 5
f 845 794 822
f 688 708 655
f 6 9 5
f 702 747 772
f 788 757 787
f 235 194 225
f 210 174 227
f 292 233 260
f 943 890 936
f 644 595 578
f 145 172 204
f 241 240 191
f 682 699 620
f 56 97 50
f 765 724 733
f 773 744 804
f 744 720 772
f 86 3 121
f 111 3 85
f 815 784 756
f 849 867 860
f 426 363 412
f 90 16 19
f 546 521 545
f 628 659 692
f 577 480 543
f 508 530 522
f 466 499 459
f 888 895 819
f 902 889 823
f 796 793 849
f 753 693 712
f 486 442 430
f 275 309 238
f 346 296 329
f 231 206 217
f 206 185 195
f 553 495 536
f 192 214 184
f 48 50 45
f 875 843 857
f 297 360 305
f 815 912 791
f 296 250 249
f 693 688 633
f 266 190 211
f 617 588 647
f 960 970 1010
f 925 888 891
f 55 59 54
f 538 563 536
f 251 186 212
f 516 512 429
f 848 839 859
f 629 549 621
f 775 711 758
f 318 254 300
f 768 680 689
f 172 144 153
f 103 104 116
f 889 829 823
f 963 1026 1031
f 99 56 62
f 54 50 48
f 114 46 97
f 456 491 518
f 132 124 187
f 893 804 872
f 55 48 52
f 555 511 499
f 256 270 212
f 639 626 589
f 801 718 760
f 1001 1000 999
f 755 701 732
f 708 670 655
f 1038 1034 1037
f 189 193 199
f 691 726 672
f 197 237 168
f 703 728 679
f 451 432 399
f 260 188 242
f 855 812 805
f 842 850 868
f 724 657 733
f 166 168 135
f 445 379 401
f 542 497 531
f 961 960 1010
f 663 640 690
f 1054 1050 1052
f 52 48 49
f 470 455 420
f 969 1001 1005
f 790 750 725
f 183 224 242
f 873 804 913
f 631 633 616
f 877 891 845
f 458 437 457
f 701 683 732
f 26 27 20
f 124 125 150
f 179 136 160
f 498 451 488
f 970 1005 1010
f 723 713 757
f 153 100 163
f 531 469 527
f 986 935 922
f 310 336 302
f 1026 1019 1022
f 726 737 694
f 975 1045 1049
f 332 316 283
f 687 756 682
f 301 244 349
f 1047 1042 991
f 571 668 598
f 585 533 501
f 1024 956 988
f 87 1 13
f 268 215 209
f 731 691 669
f 462 419 438
f 980 1058 979
f 613 651 589
f 1057 1054 1055
f 488 443 494
f 466 459 417
f 358 291 348
f 338 347 304
f 435 363 426
f 762 684 674
f 192 155 167
f 119 89 129
f 244 276 330
f 197 168 166
f 868 821 908
f 860 797 849
f 403 380 384
f 1040 1032 1035
f 831 803 856
f 795 774 728
f 215 174 165
f 937 878 945
f 649 637 610
f 242 224 282
f 433 383 422
f 1002 997 959
f 648 566 625
f 974 932 948
f 594 556 559
f 63 59 55
f 187 158 132
f 945 878 915
f 683 621 667
f 532 515 462
f 973 989 946
f 924 861 918
f 836 782 806
f 330 276 311
f 194 199 225
f 507 513 562
f 431 428 389
f 302 298 262
f 665 694 642
f 880 851 904
f 154 140 139
f 456 445 491
f 1039 973 974
f 460 397 454
f 324 292 260
f 156 119 174
f 819 833 737
f 821 806 781
f 30 34 28
f 510 509 523
f 801 760 820
f 686 664 636
f 511 537 484
f 834 776 794
f 93 92 31
f 95 41 38
f 1032 1027 1029
f 49 43 44
f 828 824 761
f 355 314 323
f 572 524 551
f 886 840 890
f 547 528 471
f 601 600 538
f 376 366 396
f 342 352 328
f 172 153 203
f 231 217 248
f 485 447 458
f 871 799 838
f 963 918 917
f 173 208 244
f 100 61 57
f 102 99 62
f 1021 1018 1023
f 516 449 495
f 388 322 362
f 308 282 315
f 398 463 406
f 2 1 110
f 799 755 732
f 749 673 716
f 1030 1027 1032
f 534 466 493
f 564 546 545
f 704 663 714
f 821 781 769
f 774 785 721
f 258 219 218
f 828 862 824
f 1048 1047 1050
f 966 926 982
f 881 817 873
f 317 302 336
f 195 124 150
f 371 331 334
f 957 918 963
f 618 568 592
f 468 426 412
f 439 393 467
f 1036 1030 1032
f 167 155 127
f 545 464 517
f 1028 1025 1030
f 175 148 151
f 840 797 860
f 668 679 603
f 944 911 928
f 483 547 471
f 734 703 680
f 814 787 792
f 368 338 339
f 996 978 981
f 193 210 202
f 250 203 249
f 630 573 622
f 1051 1049 1046
f 742 724 765
f 177 162 149
f 850 821 868
f 1027 1023 1024
f 942 911 944
f 94 38 30
f 559 542 605
f 334 319 301
f 714 663 690
f 560 515 532
f 865 919 877
f 970 913 905
f 921 897 914
f 665 642 577
f 131 137 93
f 677 634 658
f 734 795 728
f 298 278 274
f 27 31 25
f 664 605 636
f 597 533 585
f 307 327 253
f 748 711 775
f 467 393 452
f 482 521 546
f 78 74 73
f 571 537 511
f 725 651 676
f 401 378 400
f 976 948 925
f 355 342 314
f 771 716 761
f 232 191 186
f 463 474 406
f 344 332 361
f 376 396 435
f 356 315 367
f 744 646 720
f 332 371 379
f 450 416 403
f 805 736 777
f 464 475 517
f 974 973 932
f 127 87 16
f 157 167 127
f 912 926 791
f 914 897 870
f 965 980 902
f 235 225 269
f 430 442 365
f 169 179 233
f 680 703 668
f 279 272 277
f 290 240 241
f 514 523 551
f 447 437 458
f 525 497 542
f 367 315 358
f 850 836 806
f 14 20 17
f 67 65 61
f 1044 1042 1047
f 558 524 572
f 350 387 321
f 100 57 120
f 427 435 468
f 640 604 608
f 837 830 749
f 583 582 526
f 159 145 183
f 607 620 580
f 26 20 21
f 87 110 1
f 631 614 623
f 479 440 446
f 115 71 67
f 475 467 505
f 758 705 704
f 621 549 561
f 591 665 577
f 848 859 882
f 414 356 419
f 1019 1014 1017
f 751 697 708
f 731 779 691
f 1026 1022 1028
f 521 436 464
f 724 690 657
f 745 660 719
f 967 944 928
f 858 826 795
f 572 551 588
f 333 326 246
f 346 329 366
f 364 313 345
f 893 892 909
f 120 98 163
f 365 337 347
f 130 157 90
f 1031 1030 1033
f 794 759 691
f 871 904 851
f 399 381 414
f 1009 1004 1002
f 316 261 283
f 424 446 410
f 936 890 885
f 294 278 298
f 930 853 889
f 911 883 831
f 767 746 715
f 263 201 222
f 209 177 200
f 45 42 40
f 898 894 910
f 459 484 424
f 866 882 898
f 624 575 616
f 487 458 457
f 864 858 795
f 106 166 135
f 917 886 943
f 841 805 777
f 86 4 3
f 553 516 495
f 626 571 555
f 329 285 313
f 675 612 671
f 408 377 326
f 530 507 562
f 21 15 22
f 554 482 546
f 352 287 328
f 423 415 456
f 33 32 27
f 337 323 290
f 246 326 280
f 972 1014 1019
f 37 36 32
f 742 765 797
f 316 310 286
f 474 495 449
f 637 592 610
f 134 107 123
f 259 207 250
f 332 312 331
f 234 174 215
f 729 664 686
f 833 778 737
f 273 246 201
f 858 884 826
f 979 977 930
f 998 966 997
f 877 845 822
f 896 919 865
f 343 382 309
f 565 616 575
f 59 62 56
f 193 156 210
f 262 227 234
f 831 772 803
f 627 672 591
f 80 79 74
f 640 608 657
f 268 209 272
f 1035 1029 989
f 666 661 619
f 482 436 521
f 439 349 393
f 257 169 233
f 772 831 847
f 168 178 146
f 956 922 899
f 543 448 526
f 500 476 485
f 224 207 259
f 1004 997 1002
f 392 391 357
f 615 560 544
f 362 317 353
f 606 564 586
f 493 441 442
f 402 351 388
f 666 619 645
f 21 20 14
f 142 182 128
f 861 812 855
f 559 525 542
f 107 77 81
f 295 269 294
f 845 834 794
f 759 776 726
f 989 1029 953
f 32 36 31
f 981 1057 965
f 152 111 176
f 901 830 837
f 280 252 229
f 119 23 18
f 201 192 167
f 607 682 620
f 104 103 69
f 87 13 16
f 452 411 421
f 181 129 170
f 1034 1031 1033
f 840 860 885
f 705 677 658
f 594 559 609
f 171 223 137
f 513 456 518
f 843 814 857
f 133 112 139
f 728 722 679
f 940 908 957
f 551 523 541
f 188 160 159
f 433 471 408
f 215 181 209
f 257 213 169
f 1016 986 987
f 713 656 697
f 723 647 713
f 625 558 612
f 1052 1047 976
f 992 951 1049
f 735 671 717
f 597 587 533
f 11 8 4
f 71 64 68
f 155 147 126
f 651 681 639
f 895 833 819
f 957 1038 990
f 905 909 942
f 578 584 628
f 215 165 181
f 473 421 408
f 582 591 543
f 242 188 183
f 212 164 178
f 95 94 124
f 613 589 534
f 588 541 624
f 760 730 770
f 369 325 320
f 811 734 768
f 501 506 461
f 484 537 479
f 440 418 395
f 659 628 615
f 95 38 94
f 491 444 482
f 529 528 611
f 143 190 142
f 315 259 291
f 163 98 158
f 272 209 200
f 342 328 288
f 782 775 806
f 563 553 536
f 600 563 538
f 832 899 835
f 411 354 311
f 1026 1028 1031
f 654 651 613
f 694 710 642
f 420 391 407
f 49 48 47
f 994 1052 993
f 954 944 983
f 842 836 850
f 312 283 279
f 1046 1048 1051
f 383 326 333
f 844 790 778
f 98 51 44
f 275 238 220
f 189 150 193
f 963 943 962
f 4 8 3
f 12 18 15
f 229 252 214
f 554 546 564
f 901 837 862
f 572 588 617
f 770 730 729
f 975 990 1045
f 339 289 305
f 893 872 892
f 253 222 223
f 866 848 882
f 497 425 469
f 804 744 810
f 468 412 476
f 746 813 719
f 340 324 381
f 643 609 605
f 164 186 138
f 779 731 745
f 125 91 122
f 220 180 148
f 796 765 793
f 178 164 146
f 958 1056 978
f 82 80 78
f 256 212 216
f 863 825 854
f 961 920 960
f 186 191 138
f 53 49 51
f 766 811 768
f 629 621 683
f 329 296 258
f 344 335 310
f 306 226 252
f 361 379 415
f 761 808 828
f 190 255 182
f 195 150 189
f 138 143 99
f 934 900 868
f 626 555 589
f 103 102 62
f 695 727 761
f 687 682 607
f 288 255 266
f 714 690 742
f 990 1038 1045
f 379 371 401
f 260 242 308
f 993 976 947
f 356 308 315
f 736 742 777
f 1055 977 979
f 277 200 245
f 262 298 274
f 800 754 764
f 74 79 76
f 741 709 675
f 686 635 677
f 173 121 152
f 810 744 772
f 793 754 800
f 287 372 327
f 1038 1037 1041
f 910 894 897
f 538 536 463
f 794 776 759
f 176 85 147
f 671 617 647
f 1056 1053 1051
f 271 267 197
f 476 434 447
f 675 735 741
f 357 341 299
f 504 525 556
f 363 345 318
f 300 284 303
f 12 9 6
f 473 477 421
f 284 281 303
f 237 216 168
f 40 42 37
f 570 527 566
f 801 820 842
f 646 632 696
f 170 154 162
f 663 641 640
f 686 636 635
f 885 906 916
f 718 738 760
f 467 452 505
f 329 313 364
f 621 561 529
f 471 473 408
f 1017 1012 1018
f 1037 1033 1036
f 57 58 53
f 727 644 743
f 629 622 549
f 586 564 545
f 514 510 523
f 295 281 269
f 700 667 699
f 85 3 2
f 18 22 15
f 721 687 638
f 948 888 925
f 196 230 171
f 135 103 116
f 903 838 926
f 532 462 502
f 212 186 164
f 479 501 440
f 349 244 330
f 480 486 413
f 1003 998 1004
f 204 172 207
f 512 583 526
f 523 509 522
f 943 886 890
f 27 25 24
f 553 557 516
f 225 199 202
f 907 832 844
f 548 552 595
f 70 66 64
f 284 236 281
f 317 336 353
f 149 86 121
f 602 538 569
f 825 792 780
f 594 544 556
f 689 680 626
f 827 818 848
f 420 398 391
f 710 725 676
f 247 221 239
f 389 428 360
f 248 217 254
f 833 844 778
f 118 109 82
f 970 905 969
f 896 865 853
f 931 900 951
f 30 28 23
f 662 586 630
f 70 69 66
f 141 171 131
f 922 858 864
f 854 825 786
f 1027 1024 1029
f 294 298 317
f 423 361 415
f 590 531 576
f 324 308 356
f 829 807 813
f 412 359 374
f 253 293 263
f 772 747 803
f 11 14 8
f 416 409 362
f 915 846 931
f 710 654 642
f 390 340 399
f 328 287 265
f 948 932 895
f 294 317 322
f 655 670 616
f 638 607 587
f 708 697 670
f 969 905 950
f 305 289 256
f 499 484 459
f 859 839 843
f 481 448 428
f 885 860 906
f 973 946 932
f 579 540 548
f 337 365 323
f 232 241 191
f 799 783 838
f 148 180 123
f 822 794 779
f 751 740 792
f 968 983 1000
f 654 613 567
f 428 448 404
f 338 304 289
f 754 709 741
f 482 444 436
f 619 602 569
f 274 247 239
f 38 41 34
f 838 791 926
f 803 747 762
f 577 535 480
f 817 773 804
f 403 416 380
f 456 415 445
f 696 632 650
f 450 403 423
f 348 346 376
f 696 650 702
f 1028 1022 1021
f 51 98 120
f 380 362 353
f 615 544 594
f 913 804 905
f 667 620 699
f 392 357 390
f 299 257 233
f 646 596 632
f 571 550 537
f 216 212 178
f 778 725 710
f 240 266 211
f 417 459 424
f 1044 1043 1042
f 1055 994 995
f 343 309 275
f 238 198 180
f 172 145 144
f 754 741 764
f 524 514 551
f 895 932 876
f 347 337 304
f 179 160 188
f 291 296 346
f 234 215 261
f 94 30 91
f 389 360 325
f 112 6 86
f 288 328 265
f 416 362 380
f 161 169 213
f 224 183 204
f 592 568 516
f 888 819 834
f 568 583 512
f 310 262 286
f 63 66 62
f 170 129 154
f 428 368 360
f 114 128 113
f 45 50 46
f 837 771 824
f 460 454 504
f 726 694 665
f 630 674 684
f 410 372 375
f 157 127 90
f 476 447 485
f 894 874 897
f 72 74 70
f 287 264 230
f 808 743 798
f 882 859 894
f 653 581 646
f 475 439 467
f 965 1057 1058
f 957 908 924
f 581 554 596
f 581 518 554
f 679 722 638
f 170 162 177
f 890 840 885
f 596 606 632
f 768 734 680
f 353 336 335
f 520 468 476
f 15 14 11
f 138 191 143
f 405 367 358
f 363 318 359
f 550 501 479
f 850 806 821
f 976 925 947
f 463 536 474
f 962 943 936
f 332 331 371
f 953 929 907
f 393 354 411
f 165 129 181
f 519 499 466
f 958 945 915
f 91 30 23
f 243 275 220
f 519 555 499
f 211 190 143
f 1031 1028 1030
f 515 494 472
f 243 220 175
f 855 805 841
f 733 657 648
f 102 138 99
f 832 835 766
f 484 446 424
f 696 702 720
f 909 892 883
f 41 35 34
f 981 938 937
f 891 888 834
f 855 841 887
f 988 956 929
f 674 701 755
f 675 671 735
f 620 611 528
f 267 237 197
f 631 623 653
f 653 693 633
f 962 1026 963
f 42 46 39
f 930 977 949
f 968 950 954
f 427 376 435
f 720 646 696
f 7 10 2
f 28 29 21
f 341 343 243
f 143 142 97
f 10 1 2
f 1024 1020 956
f 738 692 659
f 122 91 23
f 159 115 145
f 761 727 808
f 1042 1039 974
f 413 347 338
f 860 867 906
f 1049 1045 1046
f 658 641 663
f 1014 1011 1013
f 979 930 941
f 155 126 87
f 464 439 475
f 457 409 416
f 504 453 497
f 77 116 75
f 247 202 221
f 541 575 624
f 425 385 427
f 451 399 488
f 512 490 429
f 892 847 883
f 65 64 60
f 847 810 772
f 658 634 641
f 652 691 627
f 385 348 376
f 803 802 856
f 552 494 515
f 520 524 558
f 876 844 833
f 19 16 13
f 249 203 219
f 513 518 581
f 829 813 746
f 955 923 920
f 432 390 399
f 493 466 441
f 807 822 779
f 307 264 287
f 47 40 43
f 922 935 858
f 705 685 704
f 885 923 939
f 986 971 935
f 680 668 571
f 317 298 302
f 820 770 836
f 354 330 311
f 17 19 13
f 595 552 578
f 82 83 80
f 187 206 231
f 578 515 584
f 154 139 162
f 901 902 830
f 826 774 795
f 319 279 277
f 35 33 29
f 549 505 561
f 579 539 540
f 835 811 766
f 830 767 749
f 955 985 972
f 325 360 297
f 516 568 512
f 905 804 893
f 919 925 877
f 1048 1044 1047
f 371 334 378
f 145 101 144
f 1003 999 998
f 205 195 194
f 861 769 812
f 667 611 620
f 1053 1049 1051
f 927 904 952
f 874 875 857
f 82 109 83
f 225 202 247
f 85 110 126
f 113 36 39
f 816 801 846
f 192 184 155
f 764 789 818
f 732 700 783
f 777 742 797
f 396 363 435
f 142 128 114
f 859 875 894
f 262 274 239
f 434 373 447
f 63 62 59
f 934 940 975
f 760 770 820
f 690 640 657
f 496 465 507
f 431 481 428
f 695 645 644
f 604 570 608
f 329 258 285
f 1055 995 977
f 115 67 101
f 522 565 575
f 17 10 14
f 73 74 72
f 579 569 539
f 254 284 300
f 236 194 235
f 64 66 63
f 566 558 625
f 201 167 157
f 876 907 844
f 448 413 404
f 90 127 16
f 747 684 762
f 672 726 665
f 213 175 161
f 733 709 754
f 131 93 113
f 530 496 507
f 246 229 192
f 506 489 461
f 847 831 883
f 508 492 496
f 438 460 502
f 918 887 917
f 443 399 414
f 969 968 1000
f 569 538 503
f 769 704 736
f 121 111 152
f 738 659 730
f 952 928 927
f 775 758 781
f 565 530 614
f 1021 1017 1018
f 264 253 223
f 643 594 609
f 718 678 692
f 818 789 839
f 197 106 134
f 34 29 28
f 454 453 504
f 509 492 508
f 130 90 92
f 285 231 313
f 580 547 483
f 1025 1021 1023
f 412 374 434
f 1008 1006 1012
f 381 324 356
f 29 33 26
f 445 444 491
f 308 242 282
f 327 350 293
f 991 1042 974
f 556 525 559
f 406 474 386
f 348 291 346
f 357 340 390
f 750 689 681
f 222 201 157
f 867 866 898
f 853 865 807
f 27 24 20
f 725 750 681
f 313 231 248
f 631 616 614
f 289 304 251
f 662 650 586
f 17 13 10
f 610 563 600
f 830 902 823
f 949 947 919
f 83 84 81
f 969 950 968
f 310 302 262
f 928 880 927
f 573 517 549
f 24 25 19
f 644 678 707
f 778 790 725
f 85 2 110
f 531 497 469
f 619 593 645
f 952 904 903
f 601 698 649
f 353 335 380
f 789 763 788
f 424 352 342
f 881 854 817
f 266 255 190
f 307 253 264
f 116 104 75
f 952 903 966
f 856 802 809
f 123 107 84
f 175 220 148
f 937 938 879
f 207 203 250
f 891 834 845
f 137 130 92
f 938 862 879
f 920 921 914
f 88 12 6
f 962 972 1019
f 490 526 481
f 244 208 276
f 827 800 818
f 621 529 611
f 216 178 168
f 471 477 473
f 975 940 990
f 229 214 192
f 93 31 36
f 718 692 738
f 507 478 513
f 985 1010 1014
f 577 567 535
f 1006 1004 1012
f 41 43 35
f 839 788 843
f 370 301 349
f 1014 1013 1017
f 864 795 811
f 916 906 898
f 672 665 591
f 753 740 693
f 264 223 230
f 340 299 292
f 187 124 185
f 962 936 972
f 73 71 115
f 380 335 384
f 551 541 588
f 383 321 387
f 40 37 35
f 830 823 767
f 562 513 581
f 841 777 840
f 386 449 369
f 636 590 635
f 14 7 8
f 542 531 590
f 814 788 787
f 105 115 159
f 1013 1011 1008
f 1012 1009 1016
f 55 54 48
f 771 749 716
f 884 852 826
f 763 757 788
f 849 793 827
f 453 425 497
f 35 37 33
f 498 455 470
f 37 32 33
f 522 530 565
f 549 475 505
f 904 871 903
f 697 656 670
f 940 934 868
f 469 427 468
f 1017 1008 1012
f 852 815 785
f 139 86 149
f 101 67 61
f 540 498 488
f 804 847 872
f 168 146 103
f 722 721 638
f 705 658 685
f 607 580 574
f 596 564 606
f 37 39 36
f 779 794 691
f 404 413 338
f 391 343 341
f 695 661 666
f 520 500 524
f 162 139 149
f 311 226 306
f 908 861 924
f 66 69 62
f 288 265 255
f 314 288 266
f 622 573 549
f 783 739 791
f 534 519 466
f 343 406 382
f 344 316 332
f 682 739 699
f 218 187 231
f 1052 976 993
f 124 91 125
f 915 869 846
f 593 579 548
f 984 959 933
f 814 792 825
f 813 745 719
f 760 738 730
f 471 528 477
f 1011 1005 1007
f 461 489 422
f 61 60 58
f 191 211 143
f 836 770 782
f 284 254 236
f 998 952 966
f 437 402 409
f 928 856 880
f 414 462 472
f 294 269 278
f 869 798 816
f 455 463 398
f 436 400 394
f 88 133 140
f 54 56 50
f 1043 1040 1042
f 511 484 499
f 787 751 792
f 776 737 726
f 930 896 853
f 929 899 832
f 480 535 486
f 320 325 271
f 712 646 744
f 780 740 753
f 251 232 186
f 628 560 615
f 824 771 761
f 65 60 61
f 161 118 108
f 97 46 50
f 530 562 614
f 647 656 713
f 647 588 656
f 58 60 52
f 527 468 520
f 1002 984 1009
f 923 921 920
f 706 643 664
f 798 743 752
f 397 358 385
f 492 450 465
f 182 230 196
f 1008 1003 1006
f 224 204 207
f 108 78 117
f 1023 1018 1016
f 888 948 895
f 784 791 739
f 1034 1033 1037
f 1000 967 999
f 661 602 619
f 384 335 344
f 650 606 586
f 160 117 105
f 315 291 358
f 365 355 323
f 407 392 390
f 503 538 463
f 543 591 577
f 418 422 387
f 520 476 500
f 3 7 2
f 565 614 616
f 846 842 900
f 444 401 436
f 415 379 445
f 460 405 397
f 441 466 417
f 807 779 745
f 734 728 703
f 941 930 889
f 32 31 27
f 865 877 822
f 1039 1035 973
f 119 18 89
f 695 644 727
f 980 941 902
f 649 610 600
f 182 141 128
f 396 364 345
f 711 686 677
f 394 370 349
f 325 297 271
f 746 719 698
f 742 690 724
f 173 200 149
f 96 41 95
f 271 198 238
f 403 361 423
f 1056 1051 1054
f 517 475 549
f 827 793 800
f 374 300 373
f 425 427 469
f 461 418 440
f 150 156 193
f 478 456 513
f 555 571 511
f 814 825 857
f 291 250 296
f 1051 1050 1054
f 309 320 271
f 580 620 528
f 269 225 247
f 75 69 70
f 505 452 529
f 977 995 949
f 691 652 669
f 844 832 790
f 483 471 433
f 412 363 359
f 193 202 199
f 674 622 629
f 331 319 334
f 509 487 492
f 402 388 409
f 289 270 256
f 1051 1048 1050
f 305 256 237
f 171 137 131
f 219 163 158
f 470 420 432
f 335 336 310
f 532 502 544
f 737 778 710
f 462 438 502
f 287 327 307
f 182 265 230
f 968 954 983
f 958 1053 1056
f 176 147 214
f 857 825 863
f 109 123 84
f 99 97 56
f 142 114 97
f 299 341 243
f 750 766 689
f 414 419 462
f 653 633 631
f 23 22 18
f 995 994 949
f 29 26 21
f 393 330 354
f 964 931 992
f 957 1034 1038
f 72 70 64
f 429 431 389
f 447 373 437
f 961 1010 985
f 619 569 579
f 1045 1041 1046
f 1029 1024 988
f 627 582 583
f 774 722 728
f 1018 1012 1016
f 156 122 119
f 501 461 440
f 296 249 258
f 203 163 219
f 360 339 305
f 21 14 15
f 455 398 420
f 633 655 616
f 887 841 886
f 914 870 881
f 783 700 739
f 843 788 814
f 417 342 355
f 792 740 780
f 161 151 118
f 643 605 664
f 806 775 781
f 633 688 655
f 678 644 578
f 254 217 236
f 639 681 626
f 983 944 967
f 971 984 933
f 523 522 541
f 797 765 796
f 59 56 54
f 769 758 704
f 344 310 316
f 324 260 308
f 281 235 269
f 826 785 774
f 206 205 217
f 972 939 955
f 376 346 366
f 587 574 533
f 720 702 772
f 332 283 312
f 448 480 413
f 732 683 700
f 408 421 377
f 746 698 715
f 183 145 204
f 651 639 589
f 98 96 132
f 206 187 185
f 808 727 743
f 84 107 81
f 141 131 113
f 279 268 272
f 967 928 952
f 838 783 791
f 918 861 855
f 992 931 951
f 270 251 212
f 852 785 826
f 774 721 722
f 362 322 317
f 434 374 373
f 584 560 628
f 118 82 108
f 276 208 226
f 527 520 566
f 574 580 483
f 999 967 952
f 304 337 290
f 940 868 908
f 20 24 17
f 358 348 385
f 873 817 804
f 393 411 452
f 150 125 156
f 851 799 871
f 802 762 755
f 76 77 75
f 870 854 881
f 965 1058 980
f 921 910 897
f 1013 1008 1017
f 825 780 786
f 917 887 886
f 366 364 396
f 1056 1054 1057
f 989 953 946
f 880 809 851
f 492 457 450
f 766 768 689
f 509 458 487
f 809 755 799
f 1012 1004 1009
f 516 429 449
f 478 423 456
f 441 417 355
f 660 618 592
f 125 122 156
f 161 136 169
f 949 919 896
f 1050 1047 1052
f 781 758 769
f 920 914 873
f 603 585 550
f 674 630 622
f 128 141 113
f 406 343 398
f 164 138 102
f 937 879 878
f 587 607 574
f 201 246 192
f 314 342 288
f 749 715 673
f 72 64 71
f 950 905 942
f 208 176 226
f 804 810 847
f 411 311 421
f 698 637 649
f 749 767 715
f 359 300 374
f 304 241 251
f 671 647 717
f 299 243 257
f 884 933 852
f 524 500 514
f 802 755 809
f 158 98 132
f 579 593 619
f 270 289 251
f 866 827 848
f 6 5 86
f 905 893 909
f 715 698 601
f 548 488 552
f 309 271 238
f 49 47 43
f 576 527 570
f 712 693 653
f 486 493 442
f 870 863 854
f 518 491 482
f 602 601 538
f 854 786 817
f 782 729 748
f 135 168 103
f 853 807 829
f 815 791 784
f 729 686 748
f 285 218 231
f 899 864 835
f 955 920 961
f 923 916 921
f 669 652 618
f 996 937 945
f 261 215 268
f 889 853 829
f 351 303 322
f 785 815 756
f 1009 984 971
f 692 678 628
f 42 39 37
f 566 520 558
f 878 798 869
f 996 945 978
f 257 243 213
f 858 935 884
f 210 221 202
f 57 53 51
f 916 910 921
f 206 195 205
f 115 101 145
f 160 136 117
f 71 68 67
f 1010 1011 1014
f 474 449 386
f 196 171 141
f 1055 1052 994
f 454 397 425
f 918 855 887
f 515 472 462
f 107 106 77
f 582 543 526
f 947 925 919
f 44 43 41
f 46 114 39
f 263 273 201
f 1011 1007 1008
f 292 324 340
f 717 647 723
f 691 672 627
f 205 194 236
f 711 705 758
f 208 152 176
f 960 913 970
f 293 273 263
f 352 375 287
f 375 372 287
f 350 321 293
f 799 732 783
f 980 979 941
f 676 651 654
f 740 688 693
f 9 11 5
f 454 425 453
f 389 325 369
f 946 876 932
f 710 676 654
f 996 981 937
f 610 592 557
f 623 581 653
f 9 15 11
f 92 25 31
f 413 430 347
f 121 3 111
f 469 468 527
f 240 211 191
f 1054 1052 1055
f 1007 1005 1001
f 278 247 274
f 43 40 35
f 615 594 659
f 964 992 1053
f 503 463 455
f 879 862 828
f 886 841 840
f 816 718 801
f 74 76 70
f 13 1 10
f 1035 989 973
f 58 52 53
f 576 531 527
f 283 268 279
f 685 663 704
f 360 368 339
f 60 55 52
f 668 603 598
f 1015 1009 971
f 465 478 507
f 303 281 295
f 446 440 410
f 777 797 840
f 759 726 691
f 673 601 602
f 151 148 109
f 586 545 573
f 659 594 643
f 707 678 718
f 373 402 437
f 782 748 775
f 89 18 12
f 817 786 773
f 386 320 309
f 198 271 197
f 92 90 25
f 316 286 261
f 180 134 123
f 45 46 42
f 752 707 718
f 525 504 497
f 430 365 347
f 567 534 486
f 556 460 504
f 23 28 22
f 953 907 946
f 545 517 573
f 227 174 234
f 297 305 237
f 960 920 913
f 278 269 247
f 933 884 935
f 120 57 51
f 484 479 446
f 89 12 88
f 514 485 510
f 368 404 338
f 34 35 29
f 533 483 489
f 735 763 789
f 101 61 100
f 137 92 93
f 81 77 79
f 146 102 103
f 258 218 285
f 764 735 789
f 706 659 643
f 197 166 106
f 105 73 115
f 108 117 136
f 407 391 392
f 132 95 124
f 312 279 319
f 765 733 793
f 618 583 568
f 733 648 709
f 255 265 182
f 1023 1016 1024
f 182 196 141
f 394 349 439
f 879 828 878
f 512 526 490
f 972 985 1014
f 109 84 83
f 593 548 595
f 148 123 109
f 712 653 646
f 226 176 214
f 249 219 258
f 429 490 431
f 539 569 503
f 246 280 229
f 503 455 498
f 228 188 260
f 12 15 9
f 969 1000 1001
f 641 604 640
f 925 891 877
f 63 55 60
f 383 408 326
f 761 716 695
f 784 739 682
f 237 256 216
f 963 1031 1034
f 151 109 118
f 94 91 124
f 68 65 67
f 951 975 1049
f 614 562 623
f 236 235 281
f 382 386 309
f 612 617 671
f 98 44 96
f 51 49 44
f 366 329 364
f 971 933 935
f 859 843 875
f 599 570 604
f 946 907 876
f 349 330 393
f 494 443 472
f 321 246 273
f 272 200 277
f 589 555 519
f 642 654 567
f 472 443 414
f 321 273 293
f 322 303 295
f 485 458 510
f 223 222 137
f 703 679 668
f 510 458 509
f 608 566 648
f 895 876 833
f 953 988 929
f 227 239 221
f 786 780 753
f 581 596 646
f 803 762 802
f 161 175 151
f 711 677 705
f 106 116 77
f 311 306 377
f 1041 1036 1043
f 498 470 451
f 452 421 477
f 400 378 370
f 521 464 545
f 359 318 300
f 842 820 836
f 751 708 740
f 422 483 433
f 964 958 915
f 927 880 904
f 900 842 868
f 821 769 861
f 323 314 266
f 333 246 321
f 373 300 303
f 200 173 245
f 964 915 931
f 386 369 320
f 1041 1037 1036
f 155 87 127
f 301 245 244
f 994 993 947
f 776 819 737
f 994 947 949
f 343 275 243
f 26 33 27
f 478 465 423
f 907 929 832
f 83 81 79
f 752 718 816
f 1058 1055 979
f 762 674 755
f 1040 1035 1039
f 933 912 852
f 438 367 405
f 210 156 174
f 68 64 65
f 603 597 585
f 1001 999 1003
f 441 355 365
f 561 505 529
f 233 179 228
f 976 991 948
f 999 952 998
f 660 669 618
f 936 885 939
f 807 745 813
f 638 587 597
f 313 248 345
f 301 277 245
f 24 19 17
f 286 262 234
f 419 356 367
f 787 757 751
f 144 101 100
f 326 306 280
f 1022 1017 1021
f 401 400 436
f 673 602 661
f 966 903 926
f 560 532 544
f 667 621 611
f 198 197 134
f 599 576 570
f 812 769 736
f 786 753 773
f 78 80 74
f 679 597 603
f 1046 1041 1043
f 219 158 218
f 899 922 864
f 637 660 592
f 253 263 222
f 634 599 641
f 656 624 670
f 731 669 660
f 357 391 341
f 790 832 766
f 185 124 195
f 730 706 729
f 612 572 617
f 406 386 382
f 645 593 595
f 321 383 333
f 586 573 630
f 262 239 227
f 596 554 564
f 657 608 648
f 282 224 259
f 470 432 451
f 605 590 636
f 632 606 650
f 580 528 547
f 1033 1030 1036
f 997 982 959
f 839 789 788
f 414 381 356
f 396 345 363
f 577 642 567
f 716 661 695
f 748 686 711
f 38 34 30
f 161 108 136
f 816 846 869
f 361 332 379
f 428 404 368
f 992 1049 1053
f 357 299 340
f 939 923 955
f 793 733 754
f 1020 1016 987
f 522 575 541
f 849 827 866
f 47 45 40
f 837 749 771
f 834 819 776
f 557 592 516
f 1004 998 997
f 942 909 911
f 464 394 439
f 117 78 105
f 113 93 36
f 184 214 147
f 688 740 708
f 140 133 139
f 745 731 660
f 757 697 751
f 985 955 961
f 501 533 506
f 327 293 253
f 871 838 903
f 61 58 57
f 8 7 3
f 701 629 683
f 730 659 706
f 695 666 645
f 1032 1029 1035
f 981 965 901
f 1022 1019 1017
f 662 630 684
f 1007 1003 1008
f 558 572 612
f 756 784 682
f 251 241 232
f 627 591 582
f 991 974 948
f 962 1019 1026
f 823 746 767
f 537 550 479
f 721 756 687
f 1038 1041 1045
f 48 45 47
f 432 420 407
f 502 460 544
f 146 164 102
f 598 603 550
f 96 44 41
f 911 831 856
f 391 398 343
f 188 159 183
f 489 483 422
f 283 261 268
f 486 430 413
f 535 567 486
f 76 75 70
f 319 277 301
f 509 508 522
f 550 585 501
f 412 434 476
f 79 77 76
f 174 119 165
f 322 295 294
f 954 950 942
f 698 719 637
f 679 638 597
f 846 801 842
f 823 829 746
f 78 73 105
f 851 809 799
f 144 100 153

