# https://github.com/mikedh/trimesh
v -1.97800853 -1.99956562 -0.88376100
v -1.99368074 -1.99918010 -0.73978366
v -1.99933102 -1.98806932 -0.46432362
v -1.99585106 -1.99765136 -0.20849447
v -2.00143792 -1.92858328 -0.26516178
v -1.99252727 -1.99990585 -0.04592722
v -2.00085213 -1.80753889 -0.70883532
v -1.99951222 -1.93621959 -0.89033206
v -2.00295236 -1.95173349 -0.79541339
v -1.99901702 -1.87459960 -0.04422324
v -1.99420883 -1.61098971 -0.89831997
v -2.00117400 -1.71095838 -0.23198174
v -2.00208523 -1.46152689 -0.83676941
v -1.99980523 -1.52116146 -0.43793858
v -1.99148705 -1.49606731 -0.09264600
v -2.00133517 -1.40962090 -0.19032424
v -1.99993899 -1.35006632 -0.63016845
v -1.99735787 -1.18327375 -0.14232288
v -1.99671032 -1.15869262 -0.89057155
v -2.00003745 -1.05534699 -0.47684492
v -2.00142743 -1.12728586 -0.23258453
v -2.00137522 -0.96231379 -0.77920778
v -2.00085189 -0.89474525 -0.29010547
v -1.99191286 -0.84072669 -0.18381956
v -1.99151065 -0.78266253 -0.89637251
v -2.00054624 -0.62548113 -0.71413411
v -2.00008299 -0.76215517 -0.45906074
v -2.00221660 -0.71533751 -0.86214621
v -2.00079109 -0.55508859 -0.39984913
v -1.99842646 -0.45600619 -0.24191081
v -1.99803951 -0.57165416 -0.89266397
v -2.00231507 -0.36389316 -0.82323499
v -1.99999502 -0.28336774 -0.58546747
v -1.99710920 -0.25707981 -0.89056565
v -2.00095489 -0.26010513 -0.34900360
v -1.99215104 -0.19903540 -0.27388508
v -2.00146391 -0.06637721 -0.80117668
v -2.00050642 -0.03467309 -0.33288587
v -2.00002935 0.01612053 -0.58211507
v -1.99089267 0.12905083 -0.31818412
v -1.98826196 -0.05238174 -0.89918567
v -2.00193646 0.21844069 -0.83213015
v -2.00054457 0.15381400 -0.39191656
v -1.99658134 0.18414168 -0.89383091
v -2.00034334 0.21624110 -0.63830490
v -2.00040295 0.40068237 -0.69906349
v -2.00071385 0.39864264 -0.43191443
v -1.99109175 0.38247351 -0.89802982
v -2.00194099 0.47445313 -0.84050651
v -1.99399712 0.53068993 -0.37500854
v -1.99810960 0.64250038 -0.89693613
v -2.00038578 0.65039955 -0.59621556
v -2.00098493 0.76045034 -0.77778233
v -2.00064900 0.66626165 -0.45405285
v -1.99617626 0.73145650 -0.40366612
v -1.99202015 0.78716467 -0.89769716
v -2.00125744 0.86850117 -0.49035077
v -2.00107362 1.07364784 -0.69510258
v -1.99849417 0.91017411 -0.43133111
v -1.99821808 0.86943696 -0.89155896
v -1.93895461 0.96593581 -0.42391099
v -2.00195243 0.95199070 -0.87111731
v -1.98399284 0.98690007 -0.90037127
v -2.00024869 1.05559025 -0.89218826
v -1.99831559 1.04113577 -0.45533980
v -1.99499323 1.18961809 -0.46955742
v -2.00157859 1.36022971 -0.61933751
v -2.00016763 1.18192206 -0.89458884
v -1.98724582 1.25520168 -0.90082027
v -1.99976899 1.32536195 -0.89267750
v -1.99820568 1.39065228 -0.49917687
v -1.99052002 1.53841243 -0.89648349
v -2.00201156 1.68763528 -0.85691507
v -1.99693205 1.65594492 -0.53374929
v -2.00125315 1.68761192 -0.62946810
v -1.98305108 1.86992417 -0.90138884
v -2.00265648 1.90750728 -0.74734588
v -2.00015833 1.88841472 -0.57591213
v -1.99796679 1.98158989 -0.87438704
v -1.99515202 1.99832211 -0.68994607
v -1.98760989 1.98928318 -0.57805790
v -1.86969926 -2.00140621 -0.67174913
v -1.95606723 -2.00256552 -0.34821339
v -1.95172705 -1.91772475 -0.90219719
v -1.96639850 -1.63966181 -0.06257432
v -1.83457389 -1.67851045 -0.90118868
v -1.91633322 -1.23280521 -0.11340986
v -1.90028121 -1.05947348 -0.90093411
v -1.83099475 -0.96445461 -0.13818027
v -1.91393032 -0.65778255 -0.19276623
v -1.95821025 -0.47502680 -0.90113277
v -1.96069267 -0.35464829 -0.24290557
v -1.85144105 -0.20989393 -0.90067030
v -1.91088476 -0.06195151 -0.27666671
v -1.94855430 0.03151376 -0.90172840
v -1.90999176 0.30685262 -0.90194745
v -1.89883544 0.20271454 -0.31175582
v -1.86284580 0.62961076 -0.90085233
v -1.89467575 0.68942771 -0.37916155
v -1.96039858 0.77447365 -0.90156097
v -1.96773007 1.08700452 -0.90150822
v -1.98340657 1.13956259 -0.90144904
v -1.98313286 1.19143222 -0.90160902
v -1.89237668 1.28443287 -0.46165211
v -1.91071787 1.39609430 -0.90208901
v -1.94366028 1.53590451 -0.50455989
v -1.96043207 1.85680685 -0.55159016
v -1.92838194 2.00287328 -0.62171937
v -1.78864124 -2.00077405 -0.19691585
v -1.81291964 -1.99307456 0.00719346
v -1.89292016 -1.87153270 -0.01951975
v -1.94833627 -1.27966531 -0.90179486
v -1.91857328 -0.85025047 -0.90171678
v -1.93958475 -0.67639410 -0.90154578
v -1.78950002 0.11849193 -0.90031881
v -1.88644912 0.43474779 -0.34230776
v -1.86599185 0.94440434 -0.90064986
v -1.87396612 1.67305432 -0.90165545
v -1.88399174 1.88839255 -0.90202547
v -1.92377164 1.99605379 -0.89829202
v -1.80711880 2.00221501 -0.80496616
v -1.87873747 -1.42993977 -0.08023483
v -1.81014242 1.12843535 -0.90023084
v -1.81071451 -1.99971058 -0.89209123
v -1.82604232 1.76325188 -0.51984133
v -1.77713253 -2.00042274 -0.43660806
v -1.78388192 -1.32055130 -0.90007587
v -1.83833411 -0.35841488 -0.22521659
v -1.83699896 1.99461637 -0.55335928
v -1.70036199 -2.00211062 -0.01412658
v -1.80574360 -1.62606206 -0.04259183
v -1.70780792 -0.51475403 -0.90006967
v -1.80968787 1.06409643 -0.42012600
v -1.75792756 -0.72653209 -0.90030493
v -1.72633078 0.10539744 -0.27365483
v -1.72271814 -1.95421853 -0.90124441
v -1.74286916 -1.24129971 -0.08721522
v -1.73001113 -0.10865503 -0.24423855
v -1.73863640 0.39156757 -0.90020938
v -1.68454888 0.54038928 -0.32836587
v -1.70554712 0.86003039 -0.37628482
v -1.73384633 1.52520130 -0.47352688
v -1.69132139 2.00085411 -0.62228186
v -1.64577403 -1.85608461 0.01427604
v -1.69414642 1.35413668 -0.90000708
v -1.67312362 1.99287830 -0.89888902
v -1.75934233 -0.55088135 -0.18623173
v -1.69520619 1.34000001 -0.44177739
v -1.66854002 -1.01023438 -0.89995886
v -1.65515330 -0.75448509 -0.14228896
v -1.57476225 -1.50210693 -0.02580062
v -1.65224709 0.29464970 -0.28919206
v -1.63137545 1.80704007 -0.90056242
v -1.60840752 1.71792255 -0.48172731
v -1.70475688 1.99113069 -0.53783156
v -1.60288098 -1.55170204 -0.90009035
v -1.62967040 -0.14404594 -0.89998914
v -1.54793467 -1.99982192 -0.50864111
v -1.67302277 -1.00308516 -0.10971093
v -1.55368426 -0.50848346 -0.16114297
v -1.59816840 -0.23102211 -0.20736813
v -1.51000240 0.51919476 -0.89992566
v -1.59238496 0.74949084 -0.90000774
v -1.53861549 0.22531841 -0.89991660
v -1.59796121 0.98179934 -0.89998693
v -1.60002162 -2.00197258 -0.83555402
v -1.65675523 -1.98778000 0.02951823
v -1.45845785 -1.85325541 -0.90095843
v -1.55048289 -1.30682864 -0.89990158
v -1.60464003 1.14349935 -0.40097339
v -1.54381540 1.55224560 -0.90002723
v -1.56252994 1.93732128 -0.50252054
v -1.49230268 -1.99807253 -0.87985863
v -1.59088173 -1.14387121 -0.07940191
v -1.56788542 0.80321858 -0.34775732
v -1.49168815 -1.10227235 -0.89996518
v -1.46480372 -2.00092687 -0.07645754
v -1.48789170 1.03390239 -0.36801819
v -1.32808997 -2.00076844 -0.75863005
v -1.48728790 -1.69558634 0.01454763
v -1.59647610 -0.99118163 -0.10433931
v -1.47190084 0.60785673 -0.30595447
v -1.49422993 1.17025576 -0.89992423
v -1.45009830 1.27782188 -0.39647768
v -1.47864380 1.99366818 -0.50234760
v -1.47551503 -1.99156382 0.05560024
v -1.53475728 -1.31268444 -0.04853269
v -1.48178103 -0.66217794 -0.89996071
v -1.42315092 -0.31878160 -0.89996744
v -1.48304298 0.38516448 -0.27648534
v -1.47032227 1.38361416 -0.89993240
v -1.30789282 2.00211511 -0.82045866
v -1.51635029 -1.04750641 -0.15611364
v -1.55176678 -0.81969543 -0.12751829
v -1.48604193 -0.07309695 -0.21272704
v -1.45478692 0.09256346 -0.23129141
v -1.44604780 1.55873225 -0.43530015
v -1.40283646 -1.99997582 -0.26775333
v -1.49343457 -0.83737265 -0.17593944
v -1.32029822 -0.86606815 -0.89997752
v -1.49189021 -1.23984613 -0.10482139
v -1.34654441 -0.33341841 -0.15473330
v -1.41151788 0.93058191 -0.89996196
v -1.41593983 1.93863211 -0.90157462
v -1.34236791 -1.50282576 -0.89992644
v -1.48296108 -0.66007241 -0.13298728
v -1.41125622 1.82214389 -0.46601410
v -1.33024885 0.27620266 -0.23830616
v -1.30603626 1.21003983 -0.89993138
v -1.30462029 2.00168262 -0.60223491
v -1.32674112 -0.53844712 -0.89996911
v -1.43734517 -0.12418314 -0.89996643
v -1.41221990 0.81691704 -0.32628394
v -1.36284234 -0.63490172 -0.18550047
v -1.34021833 -1.91010608 0.06898024
v -1.40798714 -1.42884030 -0.02173995
v -1.35717609 -1.35768016 -0.11897389
v -1.36092129 -1.14736994 -0.23036726
v -1.30941393 -1.99990000 -0.49195103
v -1.28968301 0.28781460 -0.89997519
v -1.28974571 0.71141634 -0.89997662
v -1.23501243 1.48786471 -0.89987834
v -1.34083905 1.76567660 -0.90033389
v -1.39663079 -0.88563969 -0.24530899
v -1.23031785 1.99791417 -0.89355929
v -1.31260612 -1.53690626 0.01691579
v -1.31338026 -0.47581648 -0.13237005
v -1.28670456 -1.99381818 -0.89813049
v -1.32635155 -1.25857492 -0.89997042
v -1.36267998 -0.77727606 -0.24328160
v -1.23339417 0.06454355 -0.89999254
v -1.19884159 -1.69887521 0.05843169
v -1.27969839 -0.07404633 -0.18152307
v -1.23545577 0.53913532 -0.26082703
v -1.22101631 0.71827898 -0.28373523
v -1.25675442 1.37745903 -0.38142119
v -1.22849729 1.99577294 -0.47328014
v -1.29073717 -1.00268891 -0.28731237
v -1.21824362 0.94176624 -0.31463648
v -1.21769824 1.12245653 -0.33983977
v -1.17391589 1.65484987 -0.40782870
v -1.22524228 -0.17317294 -0.89999379
v -1.19304111 0.46072678 -0.89999212
v -1.25340559 -1.48412337 -0.04691590
v -1.14755859 -1.04736205 -0.89999850
v -1.16783728 -1.99985506 -0.24210602
v -1.12552275 -2.00196829 0.05453719
v -1.25573089 -1.25608321 -0.22843583
v -1.20417561 -0.88363036 -0.30971299
v -1.11024251 -0.43790843 -0.19583145
v -1.21335115 0.94274590 -0.89998747
v -1.23418453 -1.38776877 -0.14980228
v -1.24945071 -1.99433341 0.08874702
v -1.21769013 -0.67749884 -0.26353602
v -1.07798614 -0.36361838 -0.89999731
v -1.16784587 0.14140419 -0.19496336
v -1.20650782 1.90155778 -0.44585107
v -1.16162791 1.90751872 -0.90075995
v -1.12029185 -1.37218048 -0.89994700
v -1.16673424 -0.24867872 -0.13973559
v -1.04727676 -1.92297270 0.11421454
v -1.05906298 -1.64508512 -0.89984472
v -1.19139924 -1.15946396 -0.28266968
v -1.11058190 0.36065946 -0.21706938
v -1.06199302 1.68817745 -0.89997787
v -1.06242730 -2.00121679 -0.85478873
v -1.05880751 -2.00007262 -0.58497108
v -1.01723435 -2.00035216 -0.09010191
v -1.05246451 -1.87122502 -0.90145273
v -1.07197299 -1.00714554 -0.32284163
v -1.14268043 -0.32974350 -0.12656371
v -1.04964843 -1.99336519 0.11983152
v -1.08726182 -1.58191707 0.04611396
v -1.07428529 -0.62013724 -0.89999635
v -0.98313894 -0.02569257 -0.14347174
v -1.08009472 0.20628808 -0.89999981
v -1.08282735 1.19526623 -0.89998062
v -1.10119142 1.99484930 -0.44631816
v -1.07882371 -1.51991322 -0.04420552
v -1.12831631 -1.28795107 -0.23845601
v -1.06625845 -0.77673759 -0.31323401
v -1.03755500 0.90370450 -0.90000112
v -1.02568068 1.27082239 -0.33182506
v -0.98817243 -0.53687479 -0.26992935
v -0.96353140 0.71713255 -0.90000094
v -0.94504633 1.46226988 -0.34653513
v -0.98399057 -0.11268990 -0.90000112
v -1.00293317 2.00199018 -0.49771972
v -0.90883490 -1.98346855 -0.89962496
v -1.07139315 -1.17856594 -0.28944011
v -0.98511448 -0.83655282 -0.90000136
v -0.99850132 0.83414433 -0.26612211
v -0.98736169 1.88746748 -0.41072692
v -0.99054506 2.00092683 -0.71931423
v -0.99096801 -1.38354005 -0.17537792
v -0.95937880 0.57892607 -0.22421342
v -0.99089505 1.68755756 -0.38465307
v -0.92006346 0.23949752 -0.17078553
v -0.96211698 -1.25303747 -0.25112922
v -0.88950451 -1.24608978 -0.89997644
v -0.95774069 -0.17483369 -0.12474099
v -0.89667692 0.45341394 -0.90000124
v -0.93353000 1.03587435 -0.28504516
v -0.87249239 -1.99987676 -0.44233800
v -0.91139623 -1.76261868 0.11067523
v -0.92975631 -1.50017991 -0.04843927
v -0.97114303 -1.11267324 -0.30267305
v -0.89036944 -0.20821685 -0.17136675
v -0.81828906 1.12118194 -0.89999915
v -0.85004582 -0.64132919 -0.90000118
v -0.91632649 1.92133794 -0.90068032
v -0.90385463 1.98885832 -0.41632823
v -0.85357138 -0.78572895 -0.31129925
v -0.90657803 0.22901825 -0.90000064
v -0.86436602 1.36651860 -0.89996548
v -0.92682775 1.99790583 -0.89333380
v -0.73372962 -2.00151791 0.06316235
v -0.86893108 -1.58232178 0.08907471
v -0.90082034 -0.63225078 -0.30083240
v -0.80635019 0.05701647 -0.90000070
v -0.86560347 -2.00122490 -0.75190384
v -0.87092020 -0.96774819 -0.30683632
v -0.85419347 -1.99812081 0.14302448
v -0.86962118 -1.94949450 0.14427895
v -0.88733848 -1.03282299 -0.89999832
v -0.82694092 1.71694384 -0.90007557
v -0.83084836 1.67359958 -0.35896001
v -0.82640686 -1.99996378 -0.21112323
v -0.76635774 -1.51446356 -0.89993347
v -0.80853631 -0.32217166 -0.90000023
v -0.79366990 1.21366141 -0.28903715
v -0.72102155 -1.86092772 -0.90076448
v -0.87570139 -1.16882696 -0.26805204
v -0.75444981 -1.01540740 -0.26794028
v -0.76240548 0.70424400 -0.21420234
v -0.82595845 -1.40298071 -0.11639214
v -0.83206763 -1.27642723 -0.20661689
v -0.71372791 0.67506895 -0.90000064
v -0.65200808 2.00059114 -0.55967153
v -0.68187024 -1.01417293 -0.90000035
v -0.78189614 -0.26388471 -0.23105956
v -0.69043591 0.92990933 -0.90000184
v -0.76261201 -1.47156932 -0.00328135
v -0.67610719 -0.16597370 -0.90000023
v -0.75883552 0.09061874 -0.12547251
v -0.74728753 1.93332444 -0.38140438
v -0.71737417 1.99876938 -0.39268593
v -0.77151122 -0.00789534 -0.11964421
v -0.76517268 0.52741597 -0.19123040
v -0.73514154 2.00159107 -0.80550159
v -0.65478977 -1.99780872 -0.89072199
v -0.66292032 -1.99995842 -0.62156702
v -0.64494153 -1.55699398 0.12168776
v -0.66751321 -1.16104349 -0.18010810
v -0.60454055 -1.76363184 0.15653885
v -0.61268737 -0.44651145 -0.90000017
v -0.68495526 -0.35672025 -0.27128203
v -0.75044229 0.37290941 -0.16698681
v -0.73304554 0.31476937 -0.90000035
v -0.69445243 0.95283900 -0.23687388
v -0.66681483 1.47124336 -0.30607484
v -0.63581683 1.53147838 -0.89994217
v -0.67428895 1.93841586 -0.90224458
v -0.59773722 -1.99979486 -0.25751157
v -0.65250536 -1.91672649 0.17197745
v -0.58052333 1.99500189 -0.89733125
v -0.71601053 -1.99272444 0.16953863
v -0.67376115 -1.31431451 -0.09336611
v -0.68980619 -0.84301670 -0.28289179
v -0.65682968 -0.51872980 -0.29220287
v -0.67059150 -0.00554936 -0.15917633
v -0.65686776 1.30370818 -0.89998121
v -0.68415918 1.74923454 -0.34732090
v -0.65486052 -1.47509231 0.09885731
v -0.60634335 1.27229855 -0.26914388
v -0.56021502 -0.80428903 -0.90000058
v -0.69241407 0.20187209 -0.13417853
v -0.64053269 0.47384057 -0.90000017
v -0.63205972 0.77650140 -0.20484005
v -0.62975373 1.70930276 -0.90022893
v -0.63941618 -1.39937641 0.01836947
v -0.56335499 -1.35086860 -0.89997913
v -0.56279310 -0.03109260 -0.90000005
v -0.51767644 0.21463541 -0.89999999
v -0.56732734 0.25320623 -0.18442033
v -0.60381707 -0.65157594 -0.28732533
v -0.48159524 -2.00178268 -0.77671076
v -0.57061704 -1.61651232 -0.89999254
v -0.53336843 -0.06086650 -0.22201882
v -0.61653765 0.46908979 -0.20669885
v -0.38239219 -1.59776427 0.16648774
v -0.56621834 -0.92923005 -0.22298524
v -0.53850903 -0.63419222 -0.90000029
v -0.61977126 0.11173273 -0.12884880
v -0.50216719 1.91205464 -0.34201731
v -0.47924527 -1.99824824 0.19819320
v -0.56830188 0.60511211 -0.21125681
v -0.46556380 1.08049307 -0.89999951
v -0.45669775 1.03021584 -0.21260406
v -0.52007648 -1.99995055 -0.50375940
v -0.43588477 2.00166569 -0.42458139
v -0.39986452 -2.00102915 0.03376233
v -0.48535057 -0.72669326 -0.24811370
v -0.42913010 0.76793347 -0.90000035
v -0.50357487 1.34374879 -0.89997424
v -0.34618949 -1.08102377 -0.89999808
v -0.50207659 1.73153935 -0.31762875
v -0.40416452 1.87121497 -0.90100087
v -0.26011320 -1.76762774 -0.90027870
v -0.51817914 -1.34518834 0.10298386
v -0.47065421 -1.14798256 -0.05161250
v -0.49785896 0.59468226 -0.90000005
v -0.39102512 2.00159583 -0.81095130
v -0.49962892 -1.99848714 -0.89105810
v -0.39868312 -1.37561997 0.13343169
v -0.46118092 -1.24599971 0.05508480
v -0.38073217 1.55597899 -0.27499629
v -0.45624226 -0.98317101 -0.14534220
v -0.40383106 -0.17362591 -0.89999999
v -0.48263790 0.09836001 -0.18235430
v -0.39055677 0.43429957 -0.89999993
v -0.48889317 1.99666939 -0.35750849
v -0.43202221 -0.36897727 -0.27366326
v -0.39838072 0.08153457 -0.89999999
v -0.42194390 0.41263078 -0.21972058
v -0.39134609 0.62048648 -0.19716124
v -0.44375940 0.77293060 -0.17561032
v -0.40743192 1.67034898 -0.90009291
v -0.45374235 -1.95030596 -0.90171720
v -0.42654567 -0.12865399 -0.25329575
v -0.39406880 1.29788933 -0.24085839
v -0.34117236 -0.74576437 -0.18868223
v -0.37799456 -0.51916092 -0.25649208
v -0.35224130 0.22403393 -0.21842713
v -0.35127296 -1.99997213 -0.22956806
v -0.34624340 -1.92556932 0.21906673
v -0.28892317 -0.31627614 -0.89999999
v -0.30130809 1.52039383 -0.89994831
v -0.31480812 -1.34912684 -0.89998634
v -0.37364732 -1.19705125 0.10922383
v -0.33797606 1.30789337 -0.89998717
v -0.37186404 -0.53096606 -0.90000005
v -0.25279691 1.78421126 -0.28731088
v -0.25499221 2.00004754 -0.58011712
v -0.31304058 -1.03270747 0.00252567
v -0.23738100 -0.85879107 -0.90000058
v -0.33723512 -1.98921992 -0.89830740
v -0.23568218 -1.99999811 -0.53298075
v -0.17674563 -1.68752792 0.20972286
v -0.20451570 0.62006698 -0.90000005
v -0.27936157 -1.99254837 0.23382010
v -0.26073738 -1.54833951 -0.89999677
v -0.30009805 0.08176620 -0.22792747
v -0.21441557 1.93405233 -0.90097721
v -0.32468840 1.99725733 -0.89409168
v -0.23876562 1.98686777 -0.31457467
v -0.13131195 -0.70198103 -0.09119748
v -0.14473470 -0.64389797 -0.90000011
v -0.21122292 0.19795684 -0.89999999
v -0.26517104 0.82652758 -0.90000070
v -0.13838199 -2.00167098 -0.80418099
v -0.23835339 0.83977363 -0.15251067
v -0.29036050 1.05312476 -0.90000029
v -0.16340414 -2.00139620 0.16706071
v -0.20303886 -0.12853523 -0.25271962
v -0.16848800 -0.07185217 -0.89999999
v -0.20887665 0.71022473 -0.13246337
v -0.21174743 1.30951546 -0.21512355
v -0.12355293 -1.05346527 0.12995820
v -0.17700095 -0.92725660 0.04442839
v -0.19684837 -0.52406516 -0.19993689
v -0.17569981 0.28017048 -0.22348894
v -0.09794375 1.72850166 -0.90012116
v -0.12476910 -1.94973542 -0.90157975
v -0.16485625 -0.33672812 -0.23186481
v -0.15801742 1.29643081 -0.89999218
v -0.14760578 -1.99988665 -0.33707104
v -0.16140186 -0.97086664 0.10681945
v -0.10975414 0.40618954 -0.89999999
v -0.10622457 0.94394861 -0.90000112
v -0.08355886 1.87021218 -0.27360497
v -0.01675583 -1.99847283 -0.89036263
v -0.16714057 -1.93819132 0.24871646
v -0.13413846 1.07966075 -0.17122189
v -0.09919531 2.00108967 -0.40625591
v -0.14132995 -1.28246929 -0.89998312
v -0.13578855 0.49463163 -0.17634298
v -0.14621935 1.99819026 -0.89398791
v -0.00123275 -1.99991467 -0.14447576
v -0.07964323 -1.31936117 0.17284809
v -0.05429894 -0.35685608 -0.89999999
v -0.09926365 1.63988123 -0.24448548
v 0.03911964 -1.09666379 -0.89999993
v 0.08019155 0.75854776 -0.90000035
v -0.01254318 0.86356054 -0.12211822
v -0.12733185 1.99972353 -0.31359605
v -0.03468993 -1.99996807 -0.57571794
v 0.01197600 -1.53914954 -0.89991720
v -0.01495849 2.00151668 -0.76426209
v 0.05067581 0.06801079 -0.89999999
v -0.03754236 0.20985655 -0.89999999
v 0.03382440 1.95136724 -0.26710675
v -0.00389897 1.39822958 -0.19639724
v -0.06177832 1.51812837 -0.89998539
v 0.01103854 2.00018726 -0.58612390
v 0.02557354 -1.98514940 0.28077035
v 0.09388442 -1.73627045 0.25753521
v -0.07756002 -0.84441989 0.07191756
v -0.03571440 0.09623132 -0.23693411
v -0.04828016 0.40822540 -0.18386051
v 0.08997025 -1.76271464 -0.90032680
v -0.04738436 -0.73222180 -0.01055592
v -0.04420730 -0.55525828 -0.11724774
v -0.03351410 -0.13239922 -0.23125784
v 0.05982729 0.52567295 -0.89999999
v 0.02781314 1.12607000 -0.89999856
v 0.08191678 -0.11246341 -0.89999999
v 0.04928225 1.99899135 -0.27748359
v 0.15860245 -1.34093626 -0.89998062
v 0.08798432 -0.86369469 -0.90000058
v -0.04100605 -0.87272515 0.11316656
v -0.01862241 -0.34288414 -0.19790971
v -0.05410059 0.63386486 -0.10117606
v 0.08046109 1.16677616 -0.15125145
v 0.04002567 1.93343840 -0.90111454
v 0.14654879 -1.48368253 0.22983004
v 0.05264992 -0.79462584 -0.03284134
v 0.15602692 -0.59073204 -0.18329371
v 0.23145985 0.36785153 -0.21243892
v 0.12069580 0.44442860 -0.20028978
v 0.06664814 0.57754956 -0.15512711
v 0.07304854 0.73758433 -0.09643417
v 0.14615917 1.80102764 -0.90033580
v 0.16743455 -2.00103190 -0.77894892
v 0.13916824 -1.99991324 -0.32222439
v 0.18894903 -2.00003066 0.04112484
v 0.13505780 -1.25108459 0.19671424
v 0.04598470 -0.97326769 0.13750536
v 0.01756237 -0.88837131 0.08193347
v 0.12450011 -0.71037908 -0.12620695
v 0.22818708 -0.38280443 -0.24069635
v 0.10175808 1.35655449 -0.89998717
v 0.11817136 -2.00146618 0.25770797
v 0.10978500 -0.61824789 -0.90000005
v 0.13125443 -0.11492454 -0.24173526
v 0.17475028 0.33947478 -0.89999993
v 0.18922965 1.56638906 -0.19096544
v 0.17959263 1.99887333 -0.89181287
v 0.12518238 2.00076852 -0.43667404
v 0.15819663 0.94472132 -0.90000052
v 0.25640925 1.54321859 -0.89996035
v 0.20546375 1.80018864 -0.22094267
v 0.21735924 -1.99995114 -0.52590592
v 0.15928981 -0.31723686 -0.89999993
v 0.14915784 -1.94671502 -0.90214212
v 0.17306998 -1.06749322 0.09962433
v 0.29165582 0.88927386 -0.10485638
v 0.22384169 -1.90064492 0.30094959
v 0.19555277 -1.17355462 0.19101267
v 0.19786852 0.00527529 -0.22527741
v 0.20511454 0.98373745 -0.10652367
v 0.31918747 -1.52105298 -0.90000690
v 0.24149037 1.99998722 -0.67129440
v 0.33424694 -0.99266853 -0.09765017
v 0.23549134 0.18607287 -0.21135711
v 0.27062371 1.94277535 -0.90111424
v 0.35532568 -0.46893689 -0.89999999
v 0.32505322 1.21091483 -0.89999820
v 0.34071408 -1.99655821 0.32022600
v 0.39818979 1.27289353 -0.11833361
v 0.31912411 -1.77189197 -0.90029902
v 0.27997533 -0.93268909 -0.90000047
v 0.35983900 -0.71321254 -0.90000035
v 0.32799668 0.17017464 -0.89999999
v 0.36305616 0.62123070 -0.90000005
v 0.39459962 2.00165425 -0.80771537
v 0.37136660 2.00093828 -0.37108375
v 0.30584861 1.99926172 -0.24787698
v 0.37318284 -2.00177040 0.24076613
v 0.34327555 -1.27400704 0.14000771
v 0.40817568 0.79079185 -0.16314473
v 0.39699382 1.94367109 -0.21147589
v 0.33960123 -1.98989274 -0.89727850
v 0.35474283 -1.53690602 0.26916631
v 0.30569596 -1.15472682 -0.89999242
v 0.42316604 -0.24050175 -0.23808019
v 0.47512103 -0.00424694 -0.90000011
v 0.42125259 -1.90892687 0.33167954
v 0.53133718 -0.96817102 -0.19810576
v 0.44323183 -0.23675986 -0.90000005
v 0.44432057 -0.04423787 -0.18828667
v 0.38068558 -2.00114836 -0.83107091
v 0.33380864 0.08875666 -0.18072526
v 0.41966186 0.34680150 -0.19290337
v 0.42044709 0.87917433 -0.90000058
v 0.42171777 -1.99996438 -0.45597554
v 0.43897436 -1.21305325 -0.02632959
v 0.51833237 -0.93863907 -0.90000148
v 0.51431576 0.28774963 -0.16109791
v 0.37631742 -1.37542232 0.24299105
v 0.50452829 -1.29611745 -0.89997621
v 0.46706138 -0.76577814 -0.23053211
v 0.44083218 -0.50389539 -0.25374654
v 0.45338304 0.43209753 -0.89999999
v 0.47648571 1.99785242 -0.89250327
v 0.61947171 -2.00043370 -0.63968248
v 0.48180658 -1.93602147 -0.90239699
v 0.52805129 0.68879674 -0.18402329
v 0.46515141 1.80635081 -0.18290226
v 0.51778493 1.99998126 -0.57707621
v 0.49044321 -1.99990430 -0.16200950
v 0.62447850 -1.99999787 0.06913752
v 0.47224797 1.33896969 -0.89998360
v 0.47191966 1.68693719 -0.90000899
v 0.41919378 1.05189846 -0.08506394
v 0.57805053 1.64547572 -0.14363087
v 0.53775192 1.90612898 -0.90079571
v 0.59133927 -1.74689736 0.33486615
v 0.48764113 0.11663694 -0.12900261
v 0.55569140 -1.76009812 -0.90024246
v 0.63714299 -1.47303941 -0.89990844
v 0.55938039 1.08957432 -0.10555733
v 0.51196844 1.99894486 -0.21439647
v 0.53926072 -1.56664517 0.29717650
v 0.57592038 -1.53581288 0.17805271
v 0.58777974 1.07180224 -0.89999975
v 0.67434309 0.29562382 -0.90000047
v 0.62482474 1.24990569 -0.08280177
v 0.64003173 1.45021460 -0.89996053
v 0.63190476 -1.99836840 -0.89237518
v 0.58886883 -0.06996497 -0.15136093
v 0.66272865 2.00086294 -0.28846748
v 0.60917697 -2.00197866 0.32971974
v 0.54255680 -1.98565926 0.35916423
v 0.66852567 -0.64891907 -0.90000106
v 0.70787195 -0.56836890 -0.25439632
v 0.62408564 0.56815813 -0.17636972
v 0.69926099 -1.99993577 -0.29051505
v 0.63020948 -1.46467712 0.01862319
v 0.65499053 -1.25446483 -0.14028203
v 0.62173108 -0.74491828 -0.25839965
v 0.61587695 0.08861611 -0.05460746
v 0.73720024 1.99060760 -0.16918523
v 0.66092817 -1.11106237 -0.89999725
v 0.62878881 -0.42133754 -0.90000052
v 0.68307255 0.59527592 -0.90000058
v 0.71638898 1.49969218 -0.10243503
v 0.72541139 1.90428529 -0.15666716
v 0.68337927 1.71516261 -0.90006359
v 0.66588894 -1.98085990 0.37731634
v 0.67290614 0.25755540 -0.09284812
v 0.76677427 2.00020967 -0.70728500
v 0.77386389 -0.31161786 -0.18120695
v 0.71282015 0.03061579 -0.02605457
v 0.68189208 -0.38701814 -0.22818340
v 0.75929711 -0.20451567 -0.90000112
v 0.73429487 0.77772532 -0.90000100
v 0.68922661 2.00138293 -0.86659361
v 0.77599601 -0.99209412 -0.25525361
v 0.72193412 0.16935263 -0.02243817
v 0.71601073 1.03748892 -0.14726130
v 0.78723571 1.23745463 -0.89998908
v 0.82419870 -1.86243143 -0.90102251
v 0.81483261 0.51749227 -0.11747080
v 0.81446783 0.75623880 -0.15817810
v 0.72514341 -1.69276740 0.28529530
v 0.82368467 -0.85559746 -0.90000464
v 0.81330112 1.25443278 -0.10787587
v 0.78375218 1.99995218 -0.52375592
v 0.84656493 -1.62578919 -0.89991934
v 0.76801840 -0.12014913 -0.09414343
v 0.75332908 1.92793999 -0.90130026
v 0.84292821 -2.00052931 0.16491100
v 0.92568234 -1.90319349 0.40759199
v 0.90344665 -0.50327778 -0.90000190
v 0.78867243 0.05019192 -0.90000106
v 0.82527576 0.94639871 -0.16087815
v 0.88577328 -2.00009002 -0.61866034
v 0.78552464 -1.40400352 -0.13312319
v 0.80387143 0.09179313 0.08846480
v 0.91488979 -1.99992814 -0.10072395
v 0.84857843 -1.30748375 -0.89997996
v 0.82548169 0.04131470 0.08089374
v 0.89299152 0.91360555 -0.90000142
v 0.91733698 1.83629809 -0.11866960
v 0.85671959 -1.77685310 0.37569724
v 0.77581856 -1.64303591 0.10536978
v 0.86495576 -1.55188265 -0.05260225
v 0.84433035 1.49361418 -0.89995290
v 0.83300207 1.98886619 -0.89859743
v 0.84728823 -1.99792113 0.39810683
v 0.90156422 -1.75247183 0.27356498
v 0.85662691 -1.22852292 -0.22966346
v 0.89915434 -0.91601141 -0.27322773
v 1.00219897 0.19747279 -0.90000201
v 0.91751907 0.27405534 0.05249235
v 0.86622474 0.40674357 -0.90000148
v 0.94168357 2.00014649 -0.33809228
v 0.93223736 -1.99381592 -0.89833881
v 0.82939015 -2.00186338 -0.84188266
v 0.91441820 -1.99994554 -0.32792113
v 0.91381571 -0.53392858 -0.21462708
v 0.99021743 -0.16747051 0.02857971
v 0.85711990 0.38541559 -0.05357907
v 0.97247622 -0.32274280 -0.10134408
v 0.91984651 1.40704594 -0.06180526
v 0.89815477 1.73326884 -0.90019722
v 0.92692141 2.00108276 -0.85062648
v 0.91028170 -1.67318859 0.07480421
v 0.86381660 0.13939027 0.10800275
v 0.97003994 1.67254672 -0.08854063
v 0.95332775 2.00116835 -0.18260137
v 0.99136398 -2.00288989 0.37423985
v 1.04338775 -0.10354607 -0.89999915
v 1.00985096 1.11516974 -0.89999957
v 0.97291753 0.63369224 -0.90000130
v 1.01579491 1.49545811 -0.05719304
v 0.95878581 1.93694601 -0.90177704
v 1.04540930 1.99025402 -0.12279645
v 1.02810142 -1.38525500 -0.19941982
v 0.91988347 -1.00571217 -0.89999892
v 1.01544616 -0.79378982 -0.25454935
v 0.95387165 -0.02529120 0.14039560
v 1.08398161 0.08345098 0.15216600
v 1.04616211 0.33510307 0.10810788
v 1.04223321 0.51369909 -0.00797430
v 0.95764414 -2.00066938 -0.85045255
v 1.03964708 -1.25243892 -0.89998807
v 1.14063189 -0.35708226 -0.89999290
v 1.06826434 2.00002942 -0.64666463
v 1.09269319 -1.99993481 0.12282422
v 1.01331643 1.12203095 -0.14132112
v 1.07967541 1.67617641 -0.90008081
v 1.11252556 1.99410615 -0.89763470
v 1.08171878 1.36207781 -0.89997335
v 1.00120197 1.35167513 -0.08422012
v 1.04786632 0.74455700 -0.09619102
v 1.03727529 -1.99642172 0.43295120
v 1.14620433 -1.79247226 0.41926433
v 1.14399848 -1.70700218 -0.89995165
v 1.06870399 -1.69200637 0.07724545
v 1.16148756 -1.47650137 -0.89990832
v 1.02852169 -1.14017089 -0.27291523
v 1.08545075 -0.79176446 -0.90000017
v 1.14967463 0.84757815 -0.89999892
v 1.16501556 -1.99998428 -0.56841953
v 1.09971771 -1.91227772 -0.90202523
v 1.16311178 -1.01309850 -0.89999778
v 1.13659141 -0.52921245 -0.13088596
v 1.13761816 1.99994479 -0.40405164
v 1.12875769 0.98265360 -0.11847308
v 1.20007847 -1.99992516 -0.25450071
v 1.08405063 -1.77087893 0.26219313
v 1.13862548 -0.16758955 0.19171195
v 1.12501667 1.93369637 -0.90156306
v 1.11290918 -1.56800284 -0.07276145
v 1.11087308 -0.99764510 -0.27392910
v 1.13065288 -2.00060072 -0.86178769
v 1.17789815 -1.28738978 -0.23107451
v 1.16739080 -0.60530985 -0.89998705
v 1.11786220 0.29847197 0.12676086
v 1.15635846 0.51689587 -0.89999379
v 1.15090702 1.38832472 -0.03614151
v 1.18437669 1.28424774 -0.06759608
v 1.17098162 -1.95625176 0.45211084
v 1.26971970 -0.12701850 0.21015744
v 1.20867310 1.87147150 -0.07981611
v 1.18448613 -0.71763738 -0.19726154
v 1.25010214 -0.31436849 0.14774037
v 1.23128042 0.69507692 0.01313517
v 1.28325365 2.00228510 -0.82766403
v 1.31640206 -2.00122931 0.30049579
v 1.24453006 -0.46554798 -0.02343212
v 1.18783353 0.13586471 -0.89998711
v 1.26810346 1.45739827 -0.89992381
v 1.30582771 2.00086985 -0.18879644
v 1.21959708 2.00083194 -0.14118051
v 1.28294490 -1.68915655 0.14964085
v 1.20050392 0.52165244 0.09833955
v 1.22014926 0.88561378 -0.07151539
v 1.19198570 -1.99991812 0.45221345
v 1.24928997 -1.76100781 0.34172358
v 1.29972611 -1.13167544 -0.23211641
v 1.26910017 1.44931934 -0.01262959
v 1.29285321 1.58804391 -0.02831242
v 1.25892875 -1.58626022 -0.01671913
v 1.24514458 -1.24814471 -0.89996989
v 1.34529302 -0.91936561 -0.20504921
v 1.26886473 0.49802820 0.12065017
v 1.26813350 1.16847740 -0.89998539
v 1.27869640 1.17295752 -0.05311134
v 1.36227832 -1.99020245 -0.89871259
v 1.27054856 -1.43555786 -0.14037240
v 1.28468702 0.39741288 -0.89997561
v 1.34901200 1.66023264 -0.90006782
v 1.22774420 1.99165402 -0.09600495
v 1.33003292 -2.00067951 -0.84327616
v 1.35027502 -1.99988498 0.07415794
v 1.38053701 -1.80195059 -0.90050210
v 1.33546767 -1.81243875 0.45561584
v 1.33321283 -0.84190931 -0.89994450
v 1.38877866 0.33951203 0.16062987
v 1.27462659 1.99995504 -0.62269903
v 1.33482752 -0.22748760 -0.89996303
v 1.42025159 -1.99843027 0.47506230
v 1.31622193 -1.97367396 0.47422101
v 1.35089944 0.12270180 0.18555691
v 1.39319000 0.82681666 -0.89995332
v 1.34345875 1.89339052 -0.90124042
v 1.42952726 1.99990831 -0.36660467
v 1.38209686 0.02334721 -0.89993776
v 1.36799905 0.70552192 0.10263952
v 1.36938355 1.04579661 -0.00633835
v 1.30718479 1.32659660 0.00494553
v 1.40294407 -0.70542728 -0.08813560
v 1.42150722 -0.55479038 0.05178489
v 1.33069847 -0.32691311 0.24275096
v 1.40709851 -1.99990227 -0.14008010
v 1.46440754 -1.43884077 -0.89985849
v 1.44101832 -0.54916089 -0.89987512
v 1.46251295 0.28499655 -0.89993877
v 1.34944580 0.83007501 0.02191983
v 1.43881378 -1.29681786 -0.12732961
v 1.51541290 -1.16376629 -0.89989854
v 1.55050955 1.99710284 -0.89348317
v 1.49104593 -1.99985339 -0.35407878
v 1.44289479 -1.67731323 0.33822720
v 1.40681670 -1.72207226 0.44985466
v 1.33485303 1.99976788 -0.08659851
v 1.50459454 -2.00112023 -0.82563926
v 1.44852481 -1.48192432 -0.00274027
v 1.48912976 -0.53371376 0.17057018
v 1.48569963 0.58025245 -0.89990289
v 1.54461584 -0.38979756 0.28691925
v 1.46981321 0.57207857 0.14046097
v 1.50724123 1.40618072 0.02928707
v 1.40758858 1.97407565 -0.06405243
v 1.45595370 1.18969224 -0.89994086
v 1.54105470 -2.00027325 -0.66237445
v 1.46780429 -1.07078673 -0.15595592
v 1.55012880 -0.29832832 -0.89998252
v 1.42300341 1.19902668 0.04377287
v 1.53430221 1.46428666 -0.89981086
v 1.49211905 1.76314268 -0.02291323
v 1.56691752 2.00105653 -0.70664437
v 1.43479357 1.99860106 -0.06981943
v 1.44867537 -1.92567815 0.48907434
v 1.46994171 -1.59535660 0.15508578
v 1.47195301 -0.16676586 0.24423386
v 1.57486651 -2.00077333 0.32699015
v 1.72219024 -1.84662594 0.51854717
v 1.45919166 2.00000272 -0.53436132
v 1.52638207 -0.90563615 -0.09028035
v 1.53948162 -0.83104279 -0.89988352
v 1.51945052 -0.49993584 0.29083489
v 1.60064302 0.90467534 0.11342302
v 1.46421085 0.96363125 0.07782832
v 1.53691874 2.00160132 -0.13059859
v 1.65009628 -1.74737157 -0.90009887
v 1.53790317 -0.77484529 -0.02549861
v 1.54190121 -1.61921444 0.45312368
v 1.58400355 -1.36640259 0.03874852
v 1.62718139 1.22554598 0.07269094
v 1.59600947 1.89638744 -0.90068252
v 1.63096533 -1.99992814 -0.06880316
v 1.54016969 -1.97381534 0.50852864
v 1.59385727 -1.52934613 0.27055307
v 1.61110816 0.11604072 0.22523192
v 1.61495195 0.03876723 -0.89993997
v 1.66726873 0.76169632 -0.90000237
v 1.64751563 1.99983058 -0.36163686
v 1.66440747 -1.99995758 -0.46025262
v 1.72032759 -0.23041207 0.29038199
v 1.61281262 1.99793301 -0.04469015
v 1.65553782 -1.93859555 -0.90260841
v 1.62850247 -1.14338829 -0.00475288
v 1.59709988 0.39834336 0.18366266
v 1.62466929 0.98668490 -0.89997436
v 1.70854614 1.67799030 0.02152496
v 1.66722295 0.33687876 -0.90004946
v 1.74765763 1.20414696 -0.90013976
v 1.61210761 -0.73758533 0.09127639
v 1.68223331 -0.59267216 0.33589669
v 1.66362498 1.91416822 -0.01702219
v 1.69793365 -0.68524917 -0.90004976
v 1.85909651 -0.44788799 -0.90112866
v 1.64674745 -0.94348135 0.02657708
v 1.63686929 -0.65430751 0.25306161
v 1.74364696 0.57708071 0.18122196
v 1.75532601 1.79127775 -0.90091063
v 1.80154679 2.00163017 -0.79743804
v 1.63303516 -1.99673273 0.52209841
v 1.72521970 -1.43058731 -0.89999838
v 1.68129633 -0.67131238 0.34061136
v 1.78301618 0.54134873 -0.90031655
v 1.86903403 -2.00222196 -0.79753317
v 1.73146818 -1.42852952 0.45891200
v 1.77637086 -1.04750468 -0.90045131
v 1.76899455 -2.00023701 0.18636808
v 1.78544233 -2.00172546 0.50022315
v 1.74367926 -1.24333193 0.25921952
v 1.71447263 1.44565151 -0.90007408
v 1.83034024 2.00210557 -0.12353004
v 1.75775812 -1.99276342 -0.89825912
v 1.79688320 -1.99032499 0.55102967
v 1.70231376 -1.40939238 0.36608975
v 1.74924085 -1.01991316 0.20527712
v 1.70903025 -0.79507100 0.23832505
v 1.86851797 0.30013434 0.23984035
v 1.77858553 1.99541436 -0.89914103
v 1.81542788 0.85259269 0.15347314
v 1.83565161 1.14139579 0.11608558
v 1.84539709 -0.15957395 -0.90111799
v 1.80821464 2.00080166 -0.56982077
v 1.89471886 -2.00093271 -0.35167400
v 1.80206690 -0.47858121 0.33813371
v 1.79946277 1.44425032 0.06785918
v 1.78154860 -1.24129637 0.43795170
v 1.87364016 0.06694684 -0.90101684
v 1.91028927 -2.00180211 -0.00601655
v 1.76185558 -0.80037736 0.37411224
v 1.86759100 1.99385081 -0.00034338
v 1.90188310 0.36795543 -0.90178592
v 1.87278459 1.00231526 -0.90096004
v 1.90435419 1.63674126 -0.90149285
v 1.90636144 -1.69630851 -0.90158398
v 1.79446016 -1.01697071 0.40376486
v 1.90216015 1.81584297 0.03360981
v 1.88175760 -0.82396956 0.39993455
v 1.87899933 -0.07449563 0.29344361
v 1.88949142 -1.57799401 0.50662427
v 1.92484746 0.68807528 -0.90189917
v 1.93036685 -2.00194695 0.38678740
v 1.92676947 -1.13862767 0.45162197
v 1.91488848 1.27968846 -0.90135748
v 1.93104861 -1.33191802 0.47871055
v 1.92085777 -1.37949409 -0.90246589
v 1.93697069 -0.40648373 0.34941800
v 1.91895483 -1.92732587 -0.90331824
v 1.92791162 -0.82107823 -0.90208663
v 1.94590864 2.00213943 -0.48660965
v 1.95089338 0.80398140 0.18236193
v 1.95329807 1.30171678 0.11237195
v 1.93483410 1.97854410 -0.90454186
v 1.94109283 -2.00000181 -0.89316793
v 1.96489034 -1.99889590 0.57003199
v 1.98802993 -1.88074805 0.55879478
v 1.95446227 0.04261387 0.28999402
v 1.96171270 1.49045549 0.08739662
v 1.95243523 2.00301967 -0.87907953
v 1.98785804 -1.99851658 -0.66127683
v 1.98455558 -1.71564080 0.53982549
v 1.99169181 1.89548979 -0.89747883
v 1.99425433 -1.89392938 -0.89643348
v 1.98929260 -0.81561743 0.41240146
v 1.98734806 0.18403755 0.26995202
v 1.99522350 0.44031022 -0.89774216
v 1.98378942 1.10393272 0.14356838
v 1.99768398 1.57187734 0.06991589
v 1.99053297 1.99911318 -0.75221009
v 1.99780963 -1.99544420 -0.30109592
v 1.99298344 -1.99766900 0.07811230
v 1.99972556 -1.98510553 0.46013616
v 1.99507532 -1.50216403 -0.89683945
v 1.99868713 -1.22777232 -0.89069767
v 1.99295483 -1.26527282 0.47527083
v 1.99850462 -1.04951223 0.44193213
v 1.99113319 -0.94383891 -0.89904190
v 1.99376629 -0.58274304 -0.89752759
v 1.99662063 -0.39453602 -0.89241166
v 1.99334107 -0.41294186 0.35494493
v 1.99519060 -0.18318005 -0.89824410
v 1.99643991 -0.26331870 0.32891871
v 1.99695680 0.12098096 -0.89428909
v 1.99284146 0.38221357 0.24547275
v 1.99266098 0.47965203 0.23265089
v 1.99484096 0.70724461 -0.89788265
v 1.99262939 0.90662096 -0.89941187
v 1.99762926 1.16055439 -0.89305015
v 1.99570296 1.24446271 0.12073572
v 1.99168883 1.38640759 0.10265871
v 1.99415264 1.88206373 0.03400626
v 1.98506675 1.99871288 0.00917493
v 1.99839196 1.98347650 -0.88958890
v 1.99398790 1.99796234 -0.31169547
v 1.99357233 -1.99734594 -0.89352388
v 1.99956272 -1.69396784 -0.88708122
v 1.99686251 -1.52755263 0.51078217
v 1.99850426 -1.45732095 0.48718356
v 1.99962661 -0.70974036 -0.88021029
v 1.99733899 -0.58765889 0.37230651
v 2.00065575 -0.14804483 0.30380075
v 1.99484811 0.03977201 0.29139094
v 1.99522815 0.28051750 0.25759842
v 1.99521492 0.65123496 0.20668978
v 1.99587295 0.80493448 0.18208747
v 1.99678765 0.95747993 0.16095630
v 1.99883602 1.45401392 -0.89234276
v 1.99912629 1.67799411 -0.89361168
v 1.99879072 1.98991309 -0.60165037
v 2.00285707 -1.92497744 -0.81101323
v 2.00145946 -1.88097372 -0.49561842
v 2.00109492 -1.88724782 -0.10456495
v 2.00218246 -1.94165697 0.27209644
v 2.00120769 -1.75329401 0.37266206
v 2.00075171 -1.69747736 -0.71147813
v 2.00007568 -1.65666499 0.14992851
v 1.99998794 -1.62447574 -0.11904238
v 1.99984286 -1.60554089 -0.42571647
v 2.00254045 -1.64002516 0.48202108
v 2.00064800 -1.44021370 0.33159398
v 2.00043521 -1.47288539 -0.73219712
v 1.99987028 -1.44884207 0.01850062
v 1.99993215 -1.35698011 -0.41350855
v 1.99990258 -1.38621773 -0.21198685
v 2.00183854 -1.36049422 -0.85993893
v 2.00234780 -1.22793212 0.42559769
v 2.00003896 -1.19302925 -0.54931386
v 2.00087295 -1.16561725 -0.75520684
v 1.99992917 -1.20451619 0.15989897
v 1.99991427 -1.15739699 -0.17960280
v 1.99994121 -0.98256536 -0.06207353
v 2.00073204 -0.99080392 0.23450603
v 2.00090537 -0.95020290 -0.83034421
v 1.99993060 -0.96643766 -0.40137060
v 1.99994705 -0.84983446 -0.54327936
v 2.00228999 -0.82299997 0.36150603
v 1.99993596 -0.83811634 -0.24980773
v 2.00010369 -0.73263376 0.14511185
v 2.00094388 -0.79887017 -0.77399261
v 1.99991307 -0.66619157 -0.17895293
v 1.99993239 -0.55026974 -0.42750771
v 2.00000344 -0.53308286 -0.00900211
v 2.00007770 -0.54270429 -0.59075542
v 2.00196693 -0.47418196 0.26758538
v 2.00141440 -0.49641575 -0.76286007
v 2.00274918 -0.52262965 -0.86348487
v 1.99989782 -0.37270943 -0.22989329
v 1.99987028 -0.29336800 -0.42979781
v 2.00004468 -0.31978645 0.01947958
v 2.00020859 -0.33264392 -0.67508854
v 2.00191508 -0.22593543 -0.84402336
v 1.99994860 -0.18042927 -0.17237358
v 1.99995790 -0.13821516 -0.52959330
v 2.00055466 -0.13422196 0.09581988
v 2.00122569 -0.05992668 -0.75156833
v 1.99990628 -0.04132183 -0.35296832
v 1.99997685 0.06228609 -0.11584241
v 2.00168572 0.06139911 0.23481597
v 2.00032721 0.09432198 -0.65966488
v 1.99988768 0.19125597 -0.50790126
v 2.00032518 0.18040232 0.08895423
v 1.99989317 0.24900530 -0.25333436
v 2.00284908 0.20894144 -0.84525664
v 2.00045917 0.33167944 -0.68128402
v 2.00156985 0.33989702 0.22164925
v 1.99988601 0.52536104 -0.46034874
v 2.00024245 0.43961970 0.02769307
v 2.00082669 0.53113935 -0.80587573
v 1.99995349 0.50989173 -0.23008486
v 2.00215993 0.72521935 0.14696938
v 2.00019703 0.62665341 -0.62110437
v 2.00057051 0.67873011 0.00885560
v 2.00073848 0.76997671 -0.83112158
v 1.99986587 0.79011462 -0.26753323
v 1.99990127 0.88668785 -0.52261568
v 1.99999175 0.92419896 -0.10857366
v 2.00049184 0.95472954 -0.72529043
v 1.99981961 0.99190460 -0.29949473
v 2.00134967 0.95467947 -0.85987259
v 2.00164352 1.08493100 0.02926618
v 2.00001762 1.07518099 -0.57441003
v 1.99983487 1.23627160 -0.37804459
v 2.00001023 1.21823070 -0.17532654
v 2.00182722 1.18884251 -0.81235696
v 2.00176618 1.08571539 0.13636701
v 2.00268243 1.18087194 0.09835248
v 1.99988029 1.33918307 -0.54752405
v 2.00223205 1.33196054 0.07825447
v 2.00145600 1.44530485 -0.01620572
v 1.99998067 1.47147117 -0.21347689
v 2.00105033 1.51280437 -0.71231271
v 1.99994443 1.61294637 -0.31137357
v 2.00174878 1.69462858 -0.03802543
v 2.00006650 1.69577942 -0.51115353
v 2.00144825 1.75757680 -0.76847364
v 2.00074516 1.86034356 -0.26316437
v 2.00187240 1.91127048 -0.02467282
v 2.00136457 1.91352711 -0.52828474
v 2.00248096 1.93757067 -0.77540441
f 508 470 478
f 968 898 940
f 769 816 832
f 432 392 418
f 658 690 605
f 708 734 690
f 443 407 417
f 967 1017 1023
f 861 851 897
f 60 56 53
f 1078 1072 1075
f 341 250 284
f 523 467 487
f 763 736 764
f 469 490 537
f 854 824 801
f 257 241 293
f 1005 1004 1007
f 193 174 201
f 468 484 503
f 884 844 879
f 613 568 551
f 124 82 1
f 224 193 238
f 1085 1078 1082
f 908 907 921
f 130 110 6
f 383 344 320
f 158 166 179
f 389 357 430
f 298 256 275
f 557 532 531
f 360 379 399
f 1052 1048 1053
f 831 786 778
f 961 915 951
f 184 178 240
f 449 436 483
f 855 817 832
f 192 121 143
f 119 118 76
f 1086 1082 999
f 621 670 620
f 778 741 753
f 777 776 712
f 287 242 231
f 690 672 605
f 917 863 912
f 734 718 690
f 507 449 483
f 622 557 581
f 683 680 654
f 1032 1034 1039
f 975 994 1056
f 635 598 573
f 345 275 348
f 527 512 539
f 348 275 301
f 518 502 582
f 148 142 104
f 307 270 290
f 815 788 853
f 436 365 396
f 589 564 640
f 62 60 53
f 161 138 128
f 799 792 747
f 262 168 205
f 430 423 465
f 350 366 316
f 725 710 724
f 713 673 731
f 61 55 99
f 571 555 511
f 995 889 976
f 217 201 187
f 238 193 218
f 278 288 237
f 199 194 181
f 484 399 462
f 128 92 90
f 820 801 760
f 813 780 822
f 930 973 992
f 840 823 876
f 420 371 389
f 471 432 457
f 1051 1044 1050
f 570 561 615
f 992 973 1035
f 660 642 680
f 17 7 14
f 875 904 792
f 684 716 657
f 467 426 487
f 418 354 411
f 966 1017 967
f 509 545 560
f 374 381 343
f 809 755 734
f 1076 997 1071
f 786 756 741
f 1017 989 1011
f 816 769 773
f 541 528 602
f 703 671 705
f 349 296 358
f 717 647 706
f 561 524 495
f 397 349 390
f 485 444 401
f 830 797 792
f 411 354 368
f 532 523 531
f 526 490 449
f 540 513 527
f 559 537 600
f 137 151 187
f 1054 974 957
f 197 142 148
f 624 584 618
f 308 341 371
f 347 339 312
f 755 718 734
f 825 809 734
f 920 915 961
f 273 226 232
f 282 251 277
f 551 542 504
f 102 101 64
f 203 163 165
f 598 585 572
f 393 446 376
f 292 235 296
f 210 143 185
f 772 731 798
f 767 719 685
f 310 291 274
f 476 441 438
f 519 498 486
f 952 851 947
f 373 327 361
f 166 82 124
f 740 663 670
f 564 556 597
f 999 1082 998
f 606 592 630
f 893 819 824
f 620 663 607
f 892 805 900
f 189 211 132
f 447 414 429
f 1016 1012 964
f 135 94 138
f 495 484 462
f 1083 1078 1085
f 580 639 597
f 947 946 963
f 107 78 74
f 550 494 480
f 505 563 499
f 424 466 419
f 117 98 100
f 707 649 672
f 913 886 841
f 222 209 191
f 662 613 629
f 335 349 397
f 843 775 795
f 960 950 891
f 318 273 305
f 239 213 235
f 686 618 674
f 628 570 615
f 53 49 46
f 1032 1026 1034
f 223 222 153
f 144 167 186
f 948 930 992
f 543 506 464
f 291 200 274
f 883 855 894
f 874 858 846
f 577 610 563
f 342 285 282
f 206 160 150
f 307 290 299
f 629 551 614
f 492 417 468
f 144 110 167
f 187 151 216
f 1025 1018 1026
f 383 419 344
f 995 976 1061
f 200 149 188
f 120 119 76
f 972 970 886
f 850 798 865
f 275 260 301
f 842 813 857
f 650 633 691
f 417 361 375
f 1036 1037 970
f 1039 1041 1044
f 50 47 40
f 518 485 496
f 295 252 279
f 55 57 54
f 214 206 199
f 988 1010 989
f 236 184 240
f 403 369 392
f 466 437 419
f 758 699 792
f 938 873 916
f 653 586 655
f 121 120 79
f 425 390 385
f 325 300 245
f 951 896 986
f 261 253 272
f 195 138 161
f 395 347 346
f 671 653 705
f 1022 1020 1021
f 183 203 165
f 624 625 600
f 1084 1080 1081
f 1006 1002 1001
f 551 568 542
f 851 905 946
f 618 588 650
f 1004 963 962
f 100 51 56
f 887 853 876
f 535 497 553
f 704 660 696
f 722 694 757
f 114 113 25
f 378 384 359
f 251 203 209
f 65 59 61
f 132 114 91
f 170 148 133
f 912 856 911
f 118 105 72
f 464 402 489
f 968 965 898
f 309 342 282
f 504 476 438
f 591 586 653
f 98 96 48
f 695 714 676
f 719 643 648
f 237 210 185
f 22 25 19
f 223 153 204
f 958 1076 1077
f 692 686 739
f 294 316 225
f 354 337 368
f 418 392 354
f 1061 1058 1063
f 84 8 11
f 233 195 202
f 935 924 881
f 466 491 437
f 136 173 124
f 405 372 362
f 128 90 147
f 605 617 566
f 91 31 34
f 14 7 5
f 139 115 96
f 542 476 504
f 342 404 338
f 526 449 507
f 318 305 353
f 232 180 215
f 353 355 391
f 109 126 158
f 296 235 234
f 9 8 1
f 992 1035 1045
f 104 71 66
f 666 625 624
f 107 81 78
f 977 957 932
f 235 182 234
f 698 669 632
f 754 723 703
f 431 399 468
f 115 95 44
f 746 701 678
f 468 399 484
f 780 737 770
f 137 89 87
f 70 69 68
f 762 695 697
f 680 642 654
f 739 674 800
f 971 1035 973
f 689 662 629
f 713 731 772
f 446 406 376
f 1033 1029 1031
f 559 580 556
f 946 933 963
f 1023 1022 1029
f 584 558 588
f 871 845 852
f 185 155 172
f 718 707 672
f 513 512 527
f 396 367 317
f 218 201 217
f 859 875 799
f 123 103 69
f 1079 1071 1074
f 1006 1001 987
f 328 268 246
f 765 738 781
f 605 566 548
f 479 459 421
f 619 593 591
f 1046 1042 972
f 248 217 252
f 57 52 54
f 424 383 384
f 201 174 187
f 837 767 844
f 325 245 291
f 852 803 810
f 299 280 295
f 1027 1023 1029
f 516 480 476
f 779 726 725
f 422 401 347
f 403 386 369
f 1029 1022 1031
f 835 812 789
f 1070 1064 978
f 682 601 644
f 502 456 481
f 1024 965 968
f 908 887 907
f 584 507 558
f 94 36 92
f 820 760 729
f 115 93 95
f 878 870 808
f 286 283 331
f 143 155 185
f 806 781 805
f 106 71 104
f 534 497 461
f 243 220 162
f 481 456 443
f 760 744 675
f 800 674 765
f 623 578 582
f 1024 1019 965
f 880 821 833
f 493 519 486
f 994 956 1056
f 628 622 668
f 423 370 386
f 104 66 61
f 672 617 605
f 631 642 591
f 666 624 686
f 531 510 530
f 85 15 10
f 415 449 490
f 905 892 900
f 45 46 42
f 458 442 437
f 560 545 586
f 379 335 397
f 39 37 33
f 767 685 711
f 966 934 936
f 294 350 316
f 717 706 763
f 854 801 820
f 188 149 134
f 191 209 145
f 444 499 413
f 627 587 574
f 664 637 599
f 625 687 639
f 1084 1083 1087
f 858 810 776
f 622 628 615
f 97 40 94
f 303 240 239
f 1009 1006 1012
f 134 113 114
f 821 774 794
f 933 900 899
f 966 936 989
f 1015 1009 1014
f 656 729 675
f 1008 1003 1009
f 433 403 432
f 815 773 749
f 526 507 584
f 633 569 579
f 645 567 590
f 104 61 133
f 17 13 7
f 571 511 498
f 86 84 11
f 316 363 311
f 726 696 725
f 283 236 240
f 485 505 444
f 80 121 79
f 53 56 51
f 174 137 187
f 423 357 370
f 1047 1043 1039
f 1016 964 965
f 656 645 590
f 637 594 599
f 706 628 668
f 889 877 909
f 573 598 572
f 664 599 651
f 525 473 454
f 919 869 880
f 294 225 192
f 406 340 376
f 928 922 884
f 405 398 372
f 364 328 304
f 388 332 329
f 579 536 612
f 674 650 691
f 1048 1043 1047
f 702 636 722
f 833 821 794
f 974 919 923
f 870 895 833
f 1035 991 1027
f 517 491 466
f 653 655 702
f 247 177 246
f 26 28 22
f 747 792 699
f 75 67 74
f 1087 1083 1085
f 78 77 75
f 636 586 603
f 749 653 702
f 419 356 344
f 865 872 915
f 277 251 209
f 865 826 872
f 599 565 593
f 409 429 332
f 956 1049 1056
f 306 273 318
f 677 608 665
f 285 302 243
f 788 757 783
f 800 765 806
f 843 838 775
f 295 306 336
f 222 171 153
f 624 618 686
f 1013 1007 1008
f 411 368 381
f 702 655 636
f 315 277 222
f 312 339 288
f 54 52 47
f 646 604 575
f 256 208 196
f 105 123 69
f 213 182 235
f 316 311 258
f 789 725 761
f 408 380 363
f 824 819 787
f 907 901 927
f 809 795 755
f 241 197 236
f 662 626 613
f 226 151 180
f 305 232 261
f 765 674 738
f 358 296 298
f 322 307 334
f 471 433 432
f 897 867 861
f 1000 1090 960
f 568 550 516
f 18 16 15
f 202 160 227
f 63 60 62
f 570 524 561
f 544 458 491
f 652 576 610
f 846 829 837
f 888 832 882
f 290 263 280
f 372 398 309
f 475 433 471
f 92 30 90
f 654 671 703
f 977 1059 957
f 804 841 820
f 183 165 123
f 1001 954 987
f 822 770 812
f 546 500 501
f 161 128 160
f 506 451 464
f 133 61 141
f 7 8 9
f 692 687 666
f 990 969 1037
f 93 132 91
f 1066 1064 1068
f 540 527 564
f 1009 1003 1002
f 207 154 197
f 93 34 41
f 679 640 639
f 108 121 80
f 434 453 472
f 797 758 792
f 876 823 862
f 841 804 811
f 927 918 934
f 202 161 160
f 939 875 859
f 348 301 308
f 29 27 23
f 964 987 926
f 172 125 154
f 67 75 73
f 779 725 789
f 43 39 38
f 732 677 751
f 542 568 516
f 288 294 210
f 193 181 174
f 802 724 807
f 450 479 421
f 454 473 408
f 137 122 151
f 739 686 674
f 357 284 319
f 985 1088 1087
f 907 876 901
f 885 898 854
f 292 296 335
f 473 504 438
f 953 999 925
f 495 462 467
f 136 124 84
f 1042 970 972
f 928 884 879
f 960 1090 984
f 509 514 545
f 1061 1067 1071
f 803 771 730
f 29 23 24
f 868 849 873
f 55 54 50
f 661 608 677
f 668 622 661
f 348 308 371
f 565 560 593
f 523 487 510
f 74 67 71
f 956 993 1049
f 618 650 674
f 954 986 945
f 162 164 139
f 301 260 271
f 1010 947 1005
f 515 479 450
f 997 996 1061
f 959 1080 1084
f 801 748 744
f 21 20 14
f 574 517 500
f 373 346 327
f 878 808 838
f 979 924 935
f 283 303 331
f 211 200 188
f 1026 1018 1019
f 1041 1034 1036
f 196 138 195
f 912 911 942
f 323 272 247
f 603 602 641
f 472 453 465
f 59 57 55
f 689 629 649
f 853 840 876
f 754 703 769
f 1022 1021 1028
f 81 108 80
f 387 321 351
f 953 1086 999
f 1073 1069 1066
f 169 156 127
f 932 923 895
f 538 559 556
f 406 382 340
f 661 581 608
f 5 3 4
f 711 647 717
f 264 256 298
f 944 890 910
f 374 343 318
f 158 126 82
f 590 554 517
f 1002 951 1001
f 1084 1081 1083
f 646 627 604
f 3 7 2
f 783 759 823
f 965 964 937
f 337 299 295
f 631 591 653
f 145 105 118
f 419 437 356
f 488 455 413
f 851 847 866
f 846 776 829
f 251 221 203
f 84 124 1
f 596 535 553
f 52 53 46
f 634 569 633
f 192 225 146
f 439 388 382
f 1089 1000 985
f 823 793 831
f 982 928 959
f 233 196 195
f 938 916 929
f 237 207 257
f 704 664 651
f 258 265 223
f 898 893 824
f 767 711 785
f 952 931 851
f 1016 965 1019
f 745 716 684
f 398 404 342
f 892 866 805
f 15 16 12
f 291 245 200
f 985 1087 1089
f 718 755 707
f 234 264 296
f 404 450 412
f 810 803 750
f 73 76 72
f 804 729 714
f 565 509 560
f 1076 1071 1077
f 510 487 472
f 190 140 152
f 257 207 241
f 214 199 230
f 656 675 645
f 58 68 64
f 246 219 267
f 774 714 695
f 456 401 422
f 500 517 466
f 938 929 955
f 508 457 470
f 816 860 882
f 1081 1073 1078
f 977 932 978
f 840 788 783
f 794 774 695
f 186 167 130
f 300 262 259
f 214 230 254
f 810 871 852
f 1065 1060 1057
f 403 392 432
f 752 701 746
f 220 276 231
f 607 583 571
f 334 307 333
f 692 709 687
f 465 453 430
f 996 942 995
f 58 64 62
f 980 943 958
f 990 968 940
f 27 26 22
f 746 678 727
f 292 239 235
f 49 48 42
f 93 91 34
f 896 830 904
f 1010 1005 1011
f 285 243 221
f 879 844 836
f 768 722 788
f 46 49 42
f 845 771 803
f 36 35 30
f 510 472 529
f 740 747 663
f 470 457 445
f 394 371 420
f 452 409 388
f 997 942 996
f 937 964 926
f 449 415 391
f 127 86 112
f 805 781 772
f 1057 1053 1051
f 1052 1053 1058
f 1024 968 990
f 384 383 320
f 645 635 567
f 626 595 568
f 10 6 110
f 647 616 570
f 47 45 43
f 853 788 840
f 305 261 324
f 309 282 277
f 848 778 827
f 281 270 313
f 952 947 1010
f 300 329 262
f 208 152 196
f 949 928 917
f 637 608 594
f 426 397 425
f 764 732 791
f 207 197 241
f 692 741 709
f 620 607 571
f 682 670 621
f 747 699 663
f 382 388 329
f 1000 1089 1090
f 817 754 769
f 927 901 918
f 844 767 785
f 273 244 226
f 79 76 73
f 750 730 698
f 868 807 849
f 720 688 756
f 318 343 306
f 651 619 642
f 1069 1065 1066
f 926 939 859
f 836 842 863
f 572 585 493
f 32 31 26
f 864 795 809
f 916 883 929
f 649 629 614
f 1057 1055 1059
f 1041 1036 1042
f 172 155 125
f 416 381 410
f 160 147 150
f 112 11 19
f 157 189 132
f 855 888 894
f 993 992 1049
f 665 608 637
f 221 243 162
f 184 148 170
f 1035 1033 1040
f 231 242 212
f 492 468 503
f 928 879 917
f 785 784 836
f 269 332 289
f 643 582 648
f 963 933 962
f 359 314 302
f 231 212 164
f 675 744 667
f 421 459 384
f 306 295 279
f 109 83 126
f 1050 1046 1054
f 351 321 289
f 253 186 247
f 436 355 365
f 10 5 6
f 255 211 189
f 1035 1027 1029
f 937 926 893
f 401 444 339
f 796 719 767
f 1003 962 961
f 13 19 11
f 681 612 638
f 530 510 529
f 605 548 576
f 330 356 310
f 511 555 474
f 333 299 337
f 456 422 395
f 576 548 499
f 334 333 354
f 200 245 176
f 700 630 699
f 958 912 942
f 981 1079 959
f 737 726 770
f 959 928 949
f 32 34 31
f 793 756 786
f 385 377 394
f 773 705 749
f 1071 1067 1074
f 488 454 455
f 673 612 681
f 181 159 174
f 151 144 180
f 721 682 667
f 935 881 902
f 748 787 728
f 830 746 797
f 578 577 549
f 498 511 409
f 753 692 739
f 812 779 789
f 332 351 289
f 496 485 456
f 380 362 326
f 529 472 509
f 129 125 155
f 646 575 595
f 571 583 555
f 485 401 456
f 366 363 316
f 265 315 222
f 744 748 667
f 632 610 577
f 475 471 513
f 590 567 554
f 592 553 534
f 304 267 321
f 444 413 339
f 364 352 400
f 895 923 880
f 237 185 207
f 635 573 567
f 464 489 536
f 988 936 931
f 739 782 753
f 942 911 889
f 87 15 122
f 331 303 360
f 761 725 724
f 390 358 385
f 947 963 1005
f 326 315 265
f 585 519 493
f 464 396 402
f 393 310 356
f 241 236 286
f 238 218 263
f 741 756 688
f 695 676 627
f 358 298 377
f 869 811 821
f 847 805 866
f 663 699 630
f 726 704 696
f 546 479 515
f 500 466 459
f 205 168 156
f 77 73 75
f 112 86 11
f 114 31 91
f 548 566 525
f 1044 1046 1050
f 399 379 427
f 895 880 833
f 252 244 279
f 267 179 266
f 547 492 503
f 607 630 583
f 440 415 469
f 345 298 275
f 210 192 143
f 233 202 260
f 353 305 355
f 368 343 381
f 890 843 864
f 122 85 131
f 694 659 743
f 117 163 98
f 274 200 211
f 462 399 427
f 458 393 442
f 798 731 752
f 833 794 762
f 869 841 811
f 651 642 660
f 680 683 723
f 397 390 425
f 150 89 159
f 66 65 61
f 799 747 740
f 913 972 886
f 81 80 77
f 284 250 254
f 24 21 18
f 139 164 115
f 578 549 518
f 404 412 338
f 152 116 97
f 162 139 98
f 615 557 622
f 369 313 322
f 554 544 491
f 157 93 115
f 1082 1075 998
f 982 1084 1088
f 592 534 583
f 872 826 839
f 564 597 640
f 967 1023 1027
f 962 933 920
f 617 649 614
f 361 286 331
f 497 448 461
f 652 658 576
f 867 827 861
f 433 386 403
f 1051 1050 1055
f 45 42 39
f 612 611 638
f 616 547 570
f 183 123 145
f 830 792 904
f 171 191 145
f 1056 1052 1058
f 902 881 843
f 278 237 257
f 401 339 347
f 955 967 1027
f 743 759 783
f 152 135 196
f 778 786 741
f 542 516 476
f 548 525 488
f 1054 1046 974
f 422 347 395
f 498 452 486
f 50 54 47
f 441 398 405
f 42 37 39
f 89 24 18
f 769 832 817
f 402 317 364
f 145 123 105
f 994 909 956
f 980 958 1077
f 142 106 104
f 905 851 892
f 861 827 828
f 901 876 862
f 769 703 773
f 30 35 29
f 682 621 601
f 547 524 570
f 1014 1012 1018
f 912 863 856
f 423 430 357
f 457 512 513
f 869 913 841
f 598 667 644
f 499 488 413
f 589 540 564
f 880 869 821
f 857 813 822
f 346 312 293
f 431 375 399
f 679 688 720
f 247 268 317
f 648 616 685
f 218 193 201
f 84 1 8
f 824 787 748
f 987 954 926
f 480 460 463
f 932 895 870
f 834 855 883
f 855 832 888
f 436 396 451
f 83 3 82
f 993 956 948
f 730 652 669
f 33 26 29
f 674 691 738
f 103 102 68
f 459 424 384
f 848 831 778
f 730 771 708
f 406 486 439
f 901 862 867
f 596 536 535
f 463 460 398
f 896 945 986
f 815 768 788
f 266 179 228
f 1038 1032 1039
f 367 324 323
f 573 520 544
f 426 379 397
f 776 810 750
f 626 657 595
f 99 50 116
f 1062 1059 1064
f 576 499 563
f 1074 1067 1069
f 1009 1002 1006
f 989 1010 1011
f 285 221 282
f 465 475 514
f 796 777 719
f 1081 1074 1073
f 988 952 1010
f 242 255 189
f 153 118 119
f 1001 951 986
f 775 838 790
f 102 64 68
f 149 88 113
f 719 777 712
f 413 455 366
f 147 90 150
f 476 480 463
f 20 22 17
f 661 677 732
f 697 695 627
f 671 654 631
f 644 601 598
f 1076 958 997
f 541 514 522
f 1046 972 974
f 303 292 335
f 301 250 308
f 615 561 557
f 94 40 36
f 704 651 660
f 395 346 373
f 284 254 281
f 709 688 687
f 300 382 329
f 50 40 97
f 521 469 538
f 113 19 25
f 250 214 254
f 656 590 587
f 562 571 498
f 714 729 656
f 971 991 1035
f 117 63 101
f 1048 1047 1053
f 143 108 129
f 151 131 144
f 121 146 120
f 270 263 290
f 337 295 336
f 609 582 552
f 35 33 29
f 128 147 160
f 309 398 342
f 347 312 346
f 525 533 473
f 569 543 579
f 558 507 506
f 12 14 5
f 260 202 271
f 794 695 762
f 210 294 192
f 546 501 479
f 417 431 468
f 213 175 182
f 234 190 208
f 536 489 535
f 800 806 847
f 15 12 10
f 387 414 447
f 558 506 569
f 105 69 70
f 474 482 447
f 625 639 580
f 843 881 838
f 844 785 836
f 638 596 606
f 925 902 890
f 537 526 584
f 245 229 176
f 1023 1020 1022
f 668 661 732
f 934 918 897
f 768 749 702
f 17 22 13
f 162 220 164
f 104 133 148
f 160 206 227
f 1052 1045 1048
f 480 494 460
f 981 949 943
f 900 805 850
f 559 469 537
f 573 544 567
f 438 405 362
f 988 931 952
f 762 697 716
f 410 374 415
f 491 458 437
f 130 109 177
f 909 948 956
f 385 394 420
f 455 454 408
f 602 589 659
f 600 580 559
f 1035 1040 1045
f 378 359 302
f 775 735 733
f 198 109 158
f 28 25 22
f 372 309 315
f 638 606 678
f 177 109 198
f 323 247 317
f 943 912 958
f 572 493 520
f 789 761 802
f 243 276 220
f 423 386 433
f 226 180 232
f 1020 1011 1013
f 435 400 448
f 751 665 737
f 1064 977 978
f 757 694 743
f 665 637 664
f 443 417 492
f 957 974 923
f 685 616 647
f 93 157 132
f 149 127 88
f 829 796 837
f 460 450 404
f 150 159 194
f 950 910 891
f 826 752 746
f 1062 1057 1059
f 324 272 323
f 166 124 173
f 820 885 854
f 566 533 525
f 95 41 44
f 591 560 586
f 132 134 114
f 582 502 552
f 742 670 682
f 339 294 288
f 259 205 229
f 409 332 388
f 926 954 939
f 886 940 885
f 580 597 556
f 934 897 936
f 1031 1028 1026
f 600 625 580
f 930 868 873
f 1089 1085 1086
f 152 97 135
f 906 901 867
f 593 560 591
f 975 909 994
f 58 53 57
f 338 412 378
f 741 688 709
f 528 540 589
f 522 513 528
f 724 723 754
f 483 436 451
f 1089 1086 1090
f 435 402 364
f 10 12 5
f 561 532 557
f 819 740 742
f 565 529 509
f 209 183 145
f 215 186 253
f 543 464 536
f 449 355 436
f 424 419 383
f 203 221 163
f 230 224 249
f 601 519 585
f 377 298 345
f 254 249 281
f 457 418 445
f 495 467 523
f 655 586 636
f 959 1084 982
f 275 233 260
f 939 945 904
f 217 187 216
f 1057 1062 1066
f 312 288 278
f 654 642 631
f 863 842 857
f 88 127 112
f 737 664 726
f 88 112 19
f 696 660 680
f 360 335 379
f 781 713 772
f 130 6 109
f 534 482 583
f 1008 1009 1015
f 712 698 632
f 509 465 514
f 1021 1018 1025
f 544 520 458
f 950 984 944
f 1088 1084 1087
f 62 64 63
f 881 878 838
f 752 681 701
f 44 41 42
f 225 204 146
f 439 382 406
f 1043 1038 1039
f 369 322 334
f 82 2 1
f 440 410 415
f 399 331 360
f 159 89 137
f 588 558 569
f 706 736 763
f 7 11 8
f 1068 1064 1070
f 947 851 946
f 688 639 687
f 918 906 897
f 602 528 589
f 1080 1074 1081
f 533 551 473
f 391 355 449
f 96 44 48
f 184 170 178
f 742 740 670
f 814 764 791
f 308 250 341
f 621 620 571
f 594 565 599
f 955 929 967
f 271 227 250
f 367 323 317
f 355 305 365
f 949 917 943
f 438 441 405
f 819 742 787
f 455 408 366
f 860 815 853
f 513 471 457
f 575 515 494
f 546 574 500
f 764 736 732
f 366 408 363
f 787 742 728
f 735 790 715
f 604 574 546
f 24 23 21
f 469 415 490
f 125 106 142
f 771 825 734
f 1020 1013 1021
f 973 930 938
f 985 941 903
f 635 667 598
f 984 953 944
f 640 597 639
f 898 937 893
f 1021 1013 1015
f 871 810 858
f 391 415 353
f 849 807 766
f 816 773 815
f 951 915 896
f 811 804 714
f 953 925 890
f 113 88 19
f 293 297 327
f 409 474 447
f 339 350 294
f 712 632 643
f 95 93 41
f 287 330 255
f 535 489 477
f 425 434 472
f 731 673 681
f 1068 1070 1075
f 370 313 386
f 959 949 981
f 776 777 829
f 1034 1026 1030
f 715 684 662
f 280 252 295
f 307 299 333
f 143 121 108
f 98 48 51
f 494 515 450
f 194 159 181
f 613 626 568
f 1055 1050 1054
f 489 402 435
f 939 904 875
f 141 99 140
f 720 756 793
f 1030 1026 1024
f 416 411 381
f 296 264 298
f 835 789 802
f 518 496 502
f 973 938 971
f 369 334 392
f 733 735 689
f 493 486 406
f 69 103 68
f 595 575 494
f 389 341 357
f 116 50 97
f 375 331 399
f 179 173 228
f 344 330 287
f 891 845 914
f 623 577 578
f 140 99 116
f 387 352 321
f 1036 1030 990
f 426 425 472
f 783 757 743
f 18 15 87
f 435 364 400
f 577 563 549
f 716 697 646
f 1030 1024 990
f 662 684 626
f 265 222 223
f 972 913 919
f 850 772 798
f 461 387 447
f 178 141 175
f 834 817 855
f 872 839 896
f 446 493 406
f 442 393 356
f 1067 1065 1069
f 798 818 865
f 1060 1053 1057
f 965 937 898
f 586 545 541
f 49 51 48
f 336 343 368
f 608 581 529
f 722 757 788
f 685 647 711
f 384 320 359
f 847 806 805
f 1059 1054 957
f 828 800 851
f 782 778 753
f 997 1061 1071
f 352 304 321
f 359 320 314
f 123 102 103
f 933 899 920
f 940 898 885
f 910 890 864
f 58 62 53
f 1021 1015 1014
f 664 704 726
f 215 144 186
f 845 825 771
f 516 550 480
f 766 817 834
f 879 836 917
f 409 447 429
f 242 189 212
f 123 101 102
f 141 61 99
f 601 621 562
f 427 426 467
f 683 654 703
f 502 481 552
f 1058 1053 1060
f 617 614 533
f 627 676 587
f 168 136 86
f 127 156 86
f 429 351 332
f 488 525 454
f 232 215 261
f 849 766 834
f 57 53 52
f 194 199 206
f 270 307 322
f 5 7 3
f 137 87 122
f 865 818 826
f 804 820 729
f 710 696 680
f 936 897 931
f 427 379 426
f 268 247 246
f 283 240 303
f 85 10 111
f 315 309 277
f 584 588 618
f 670 663 620
f 489 435 477
f 175 141 140
f 1014 1009 1012
f 33 32 26
f 650 634 633
f 338 302 285
f 675 667 635
f 604 546 575
f 861 828 851
f 864 843 795
f 641 602 659
f 682 644 667
f 27 22 20
f 1059 1055 1054
f 974 972 919
f 601 562 519
f 636 641 694
f 244 217 216
f 42 48 44
f 176 169 149
f 476 463 441
f 776 750 698
f 229 205 169
f 860 853 887
f 1026 1019 1024
f 638 611 596
f 983 1088 985
f 1072 1066 1068
f 478 470 445
f 66 58 65
f 129 81 107
f 1075 1070 979
f 1018 1012 1019
f 857 822 812
f 671 631 653
f 414 387 351
f 960 891 941
f 462 427 467
f 497 477 448
f 894 888 908
f 950 944 910
f 478 445 440
f 679 639 688
f 361 331 375
f 1066 1062 1064
f 1085 1082 1086
f 40 38 36
f 494 450 460
f 287 255 242
f 909 877 868
f 100 98 51
f 286 236 283
f 903 941 871
f 822 780 770
f 696 710 725
f 520 446 458
f 888 882 908
f 875 792 799
f 434 420 453
f 1033 1031 1038
f 271 202 227
f 487 426 472
f 724 680 723
f 114 25 31
f 448 387 461
f 42 41 37
f 673 633 612
f 1070 978 979
f 659 589 693
f 901 906 918
f 713 691 673
f 825 864 809
f 763 764 814
f 512 508 521
f 896 904 945
f 304 246 267
f 729 760 675
f 144 111 110
f 333 337 354
f 65 57 59
f 140 116 152
f 924 870 878
f 998 979 935
f 65 58 57
f 139 96 98
f 867 848 827
f 362 372 315
f 785 717 784
f 922 903 874
f 344 356 330
f 551 504 473
f 335 296 349
f 120 76 79
f 376 340 310
f 1045 1043 1048
f 642 619 591
f 408 473 428
f 393 376 310
f 118 72 76
f 1049 1045 1052
f 211 188 132
f 636 603 641
f 66 67 58
f 182 140 190
f 509 472 465
f 630 592 583
f 123 165 117
f 246 198 219
f 248 218 217
f 200 176 149
f 566 617 533
f 72 70 67
f 842 814 791
f 836 814 842
f 378 302 338
f 842 791 813
f 209 203 183
f 773 703 705
f 40 43 38
f 917 836 863
f 23 20 21
f 803 730 750
f 730 708 652
f 599 619 651
f 796 767 837
f 23 27 20
f 1037 969 970
f 857 812 856
f 269 289 228
f 731 681 752
f 360 303 335
f 633 579 612
f 1067 1061 1063
f 889 835 877
f 481 443 492
f 1078 1075 1082
f 923 919 880
f 634 588 569
f 443 395 407
f 657 646 595
f 293 241 297
f 983 903 922
f 910 864 825
f 955 1027 991
f 320 287 276
f 445 411 416
f 219 179 267
f 981 980 1079
f 269 228 168
f 327 286 361
f 1040 1033 1038
f 946 900 933
f 776 698 712
f 477 435 448
f 535 477 497
f 365 367 396
f 675 635 645
f 681 638 701
f 900 850 899
f 856 835 889
f 146 153 119
f 766 724 754
f 63 117 60
f 337 336 368
f 808 833 762
f 496 456 502
f 736 668 732
f 400 352 387
f 190 152 208
f 176 229 169
f 9 1 2
f 67 70 58
f 212 189 157
f 94 92 128
f 486 452 439
f 541 522 528
f 1044 1041 1046
f 192 146 121
f 262 269 168
f 883 894 921
f 678 606 700
f 451 396 464
f 862 831 867
f 171 145 118
f 702 722 768
f 753 741 692
f 707 689 649
f 246 177 198
f 919 913 869
f 340 382 300
f 244 216 226
f 600 584 624
f 306 279 273
f 239 178 213
f 519 562 498
f 428 362 380
f 61 59 55
f 1023 1017 1020
f 227 214 250
f 841 886 820
f 1031 1022 1028
f 867 831 848
f 377 345 394
f 979 978 924
f 13 11 7
f 164 212 157
f 155 143 129
f 581 530 529
f 969 990 940
f 374 318 353
f 30 29 24
f 983 928 982
f 1042 1036 970
f 539 512 521
f 167 110 130
f 300 259 245
f 312 278 293
f 966 989 1017
f 197 184 236
f 386 313 369
f 1083 1081 1078
f 684 657 626
f 676 656 587
f 129 107 125
f 39 33 35
f 417 375 431
f 320 344 287
f 248 252 280
f 1001 986 954
f 929 934 967
f 604 627 574
f 812 770 779
f 983 985 903
f 165 163 117
f 321 266 289
f 982 1088 983
f 82 3 2
f 370 319 313
f 37 34 32
f 759 793 823
f 259 262 205
f 532 495 523
f 954 945 939
f 730 669 698
f 595 494 550
f 123 117 101
f 851 866 892
f 305 324 365
f 791 751 813
f 846 858 776
f 539 521 538
f 96 115 44
f 47 43 40
f 840 783 823
f 851 800 847
f 827 778 782
f 758 727 699
f 394 348 371
f 164 157 115
f 978 932 924
f 929 883 921
f 911 856 889
f 586 541 603
f 818 798 752
f 521 508 478
f 826 746 839
f 364 304 352
f 924 932 870
f 340 325 291
f 1019 1012 1016
f 746 758 797
f 929 927 934
f 881 924 878
f 846 837 874
f 195 161 202
f 774 811 714
f 594 529 565
f 863 857 856
f 514 475 522
f 99 55 50
f 823 831 862
f 1049 992 1045
f 891 825 845
f 514 541 545
f 129 108 81
f 1011 1007 1013
f 420 389 453
f 856 812 835
f 549 563 505
f 706 668 736
f 872 896 915
f 507 483 506
f 775 790 735
f 479 501 459
f 6 4 109
f 1087 1085 1089
f 505 499 444
f 261 215 253
f 1063 1060 1065
f 107 74 106
f 578 518 582
f 254 230 249
f 981 943 980
f 448 400 387
f 249 224 238
f 281 249 270
f 158 82 166
f 735 662 689
f 501 500 459
f 589 640 693
f 969 940 886
f 998 935 925
f 838 808 790
f 290 280 299
f 282 221 251
f 521 478 469
f 790 745 715
f 989 936 988
f 326 362 315
f 960 984 950
f 327 297 286
f 329 332 262
f 245 259 229
f 678 700 727
f 412 421 378
f 759 720 793
f 719 648 685
f 524 484 495
f 575 546 515
f 319 281 313
f 1079 1077 1071
f 745 808 762
f 20 17 14
f 784 814 836
f 596 553 606
f 735 715 662
f 1090 953 984
f 728 742 682
f 708 658 652
f 983 922 928
f 168 173 136
f 743 693 720
f 659 693 743
f 503 484 524
f 893 859 819
f 539 556 527
f 311 265 258
f 693 640 679
f 991 938 955
f 723 683 703
f 100 56 60
f 90 30 24
f 324 261 272
f 874 903 858
f 125 107 106
f 37 41 34
f 126 83 82
f 1039 1034 1041
f 579 543 536
f 771 734 708
f 643 632 623
f 751 737 780
f 807 724 766
f 301 271 250
f 302 314 276
f 770 726 779
f 1047 1039 1044
f 946 905 900
f 101 63 64
f 538 556 539
f 663 630 607
f 440 416 410
f 357 319 370
f 83 4 3
f 854 898 824
f 153 171 118
f 1012 1006 987
f 759 743 720
f 870 833 808
f 795 775 733
f 1073 1066 1072
f 738 691 713
f 293 278 257
f 852 845 803
f 270 238 263
f 1045 1040 1043
f 415 374 353
f 648 609 616
f 33 37 32
f 608 529 594
f 716 646 657
f 522 475 513
f 1061 1056 1058
f 785 711 717
f 178 175 213
f 1040 1038 1043
f 132 188 134
f 225 258 204
f 909 868 930
f 784 763 814
f 760 801 744
f 914 845 871
f 891 910 825
f 175 140 182
f 432 418 457
f 89 18 87
f 317 328 364
f 606 553 592
f 453 389 430
f 342 338 285
f 629 613 551
f 598 601 585
f 547 503 524
f 873 834 916
f 538 469 559
f 52 46 47
f 1011 1005 1007
f 976 975 1056
f 795 733 755
f 392 334 354
f 186 177 247
f 715 745 684
f 425 385 434
f 264 234 208
f 859 799 819
f 275 256 233
f 317 268 328
f 805 772 850
f 1004 962 1003
f 537 490 526
f 461 482 534
f 691 633 673
f 887 876 907
f 877 802 868
f 16 14 12
f 1065 1057 1066
f 647 628 706
f 264 208 256
f 311 326 265
f 252 217 244
f 555 583 482
f 429 414 351
f 882 860 887
f 197 154 142
f 332 269 262
f 806 765 781
f 111 10 110
f 802 807 868
f 86 136 84
f 219 158 179
f 751 677 665
f 197 148 184
f 1075 979 998
f 995 1061 996
f 527 556 564
f 581 557 531
f 976 1056 1061
f 458 446 393
f 882 887 908
f 1005 963 1004
f 146 204 153
f 43 45 39
f 1056 1049 1052
f 636 694 722
f 555 482 474
f 561 495 532
f 456 395 443
f 371 341 389
f 255 310 274
f 953 890 944
f 478 440 469
f 666 687 625
f 728 682 721
f 1013 1008 1015
f 1021 1014 1018
f 993 948 992
f 26 31 28
f 801 824 748
f 380 326 363
f 921 907 927
f 573 572 520
f 131 85 111
f 445 418 411
f 874 837 844
f 297 241 286
f 1053 1047 1051
f 28 31 25
f 273 279 244
f 813 751 780
f 970 969 886
f 628 647 570
f 473 438 428
f 396 317 402
f 697 627 646
f 199 181 193
f 705 653 749
f 216 151 226
f 531 523 510
f 1064 1059 977
f 528 513 540
f 363 326 311
f 549 485 518
f 319 284 281
f 428 438 362
f 600 537 584
f 144 131 111
f 7 9 2
f 902 843 890
f 839 746 830
f 828 782 739
f 314 320 276
f 410 381 374
f 288 210 237
f 700 699 727
f 832 816 882
f 1034 1030 1036
f 899 850 865
f 385 358 377
f 5 4 6
f 999 998 925
f 434 385 420
f 173 179 166
f 720 693 679
f 701 638 678
f 206 150 194
f 932 957 923
f 77 79 73
f 707 733 689
f 328 246 304
f 349 358 390
f 450 421 412
f 221 162 163
f 394 345 348
f 170 141 178
f 38 35 36
f 746 727 758
f 58 70 68
f 1038 1031 1032
f 632 669 610
f 222 191 171
f 997 958 942
f 1000 941 985
f 437 442 356
f 220 231 164
f 47 46 45
f 258 223 204
f 109 4 83
f 1007 1003 1008
f 163 162 98
f 745 762 716
f 22 19 13
f 791 732 751
f 1067 1063 1065
f 658 605 576
f 234 182 190
f 1035 1029 1033
f 1058 1060 1063
f 156 168 86
f 700 606 630
f 310 340 291
f 1007 1004 1003
f 240 178 239
f 313 270 322
f 135 97 94
f 829 777 796
f 1074 1069 1073
f 18 21 16
f 398 460 404
f 975 889 909
f 669 652 610
f 929 921 927
f 623 632 577
f 574 587 517
f 1028 1025 1026
f 457 508 512
f 1031 1026 1032
f 150 90 89
f 263 218 248
f 321 267 266
f 1000 960 941
f 263 248 280
f 1017 1011 1020
f 73 72 67
f 439 452 388
f 790 808 745
f 287 231 276
f 227 206 214
f 459 466 424
f 463 398 441
f 672 649 617
f 661 622 581
f 541 602 603
f 1003 961 1002
f 440 445 416
f 694 641 659
f 330 310 255
f 755 733 707
f 766 754 817
f 873 849 834
f 122 15 85
f 819 799 740
f 738 713 781
f 599 593 619
f 215 180 144
f 249 238 270
f 877 835 802
f 737 665 664
f 995 942 889
f 185 172 207
f 610 576 563
f 465 423 475
f 718 672 690
f 609 547 616
f 971 938 991
f 170 133 141
f 196 135 138
f 256 196 233
f 549 505 485
f 92 36 30
f 16 21 14
f 483 451 506
f 154 125 142
f 886 885 820
f 207 172 154
f 568 595 550
f 305 273 232
f 53 51 49
f 931 897 851
f 553 497 534
f 834 883 916
f 802 761 724
f 914 941 891
f 138 94 128
f 407 373 361
f 643 623 582
f 303 239 292
f 839 830 896
f 1036 990 1037
f 943 917 912
f 1002 961 951
f 498 409 452
f 831 793 786
f 316 258 225
f 828 827 782
f 562 621 571
f 614 551 533
f 346 293 327
f 72 105 70
f 724 710 680
f 395 373 407
f 169 205 156
f 520 493 446
f 748 728 721
f 29 26 27
f 302 276 243
f 134 149 113
f 365 324 367
f 938 930 873
f 903 871 858
f 343 336 306
f 967 934 966
f 413 366 350
f 408 428 380
f 272 253 247
f 80 79 77
f 1073 1072 1078
f 899 865 920
f 1057 1051 1055
f 71 67 66
f 230 199 224
f 174 159 137
f 1072 1068 1075
f 531 530 581
f 74 78 75
f 948 909 930
f 511 474 409
f 552 481 492
f 149 169 127
f 90 24 89
f 920 865 915
f 1046 1041 1042
f 1090 1086 953
f 222 277 209
f 186 130 177
f 588 634 650
f 168 228 173
f 609 552 547
f 407 361 417
f 897 906 867
f 554 567 544
f 980 1077 1079
f 341 284 357
f 1047 1044 1051
f 611 536 596
f 941 914 871
f 38 39 35
f 146 119 120
f 517 554 491
f 274 211 255
f 117 100 60
f 959 1079 1080
f 506 543 569
f 666 686 692
f 587 590 517
f 266 228 289
f 81 77 78
f 219 198 158
f 482 461 447
f 340 300 325
f 1028 1021 1025
f 612 536 611
f 499 548 488
f 925 935 902
f 962 920 961
f 224 199 193
f 784 717 763
f 719 712 643
f 894 908 921
f 339 413 350
f 676 714 656
f 826 818 752
f 552 492 547
f 884 874 844
f 151 122 131
f 874 884 922
f 821 811 774
f 1012 987 964
f 475 423 433
f 800 828 739
f 893 926 859
f 648 582 609
f 708 690 658
f 816 815 860
f 1080 1079 1074
f 421 384 378
f 748 721 667
f 815 749 768
f 976 889 975
f 106 74 71

