v -2 -2 -0.099999999999999978
v -2 -1.8999999999999999 -0.10999999999999999
v -2 -1.8 -0.11999999999999997
v -2 -1.7 -0.12999999999999998
v -2 -1.6000000000000001 -0.13999999999999996
v -2 -1.5 -0.14999999999999997
v -2 -1.3999999999999999 -0.16
v -2 -1.2999999999999998 -0.17000000000000001
v -2 -1.1000000000000001 -0.18999999999999997
v -2 -0.79999999999999982 -0.22
v -2 -0.69999999999999996 -0.22999999999999998
v -2 -0.59999999999999987 -0.23999999999999999
v -2 -0.5 -0.25
v -2 -0.29999999999999982 -0.27000000000000002
v -2 -0.19999999999999996 -0.27999999999999997
v -2 -0.099999999999999867 -0.28999999999999998
v -2 0 -0.29999999999999999
v -2 0.40000000000000036 -0.34000000000000002
v -2 0.5 -0.34999999999999998
v -2 0.90000000000000036 -0.39000000000000001
v -2 1 -0.40000000000000002
v -2 1.4000000000000004 -0.44000000000000006
v -2 1.5 -0.45000000000000001
v -2 1.9000000000000004 -0.49000000000000005
v -2 2 -0.5
v -1.8999999999999999 -2 -0.084999999999999964
v -1.8999999999999999 -1.8999999999999999 -0.094999999999999973
v -1.8999999999999999 -1.8 -0.10499999999999995
v -1.8999999999999999 -1.7 -0.11499999999999996
v -1.8999999999999999 -1.6000000000000001 -0.12499999999999994
v -1.8999999999999999 -1.5 -0.13499999999999995
v -1.8999999999999999 -1.3999999999999999 -0.14499999999999999
v -1.8999999999999999 -1.2999999999999998 -0.155
v -1.8999999999999999 -1.1000000000000001 -0.17499999999999996
v -1.8999999999999999 -0.79999999999999982 -0.20499999999999999
v -1.8999999999999999 -0.69999999999999996 -0.21499999999999997
v -1.8999999999999999 -0.59999999999999987 -0.22499999999999998
v -1.8999999999999999 -0.5 -0.23499999999999999
v -1.8999999999999999 -0.29999999999999982 -0.255
v -1.8999999999999999 -0.19999999999999996 -0.26499999999999996
v -1.8999999999999999 -0.099999999999999867 -0.27499999999999997
v -1.8999999999999999 0 -0.28499999999999998
v -1.8999999999999999 0.40000000000000036 -0.32500000000000001
v -1.8999999999999999 0.5 -0.33499999999999996
v -1.8999999999999999 0.90000000000000036 -0.375
v -1.8999999999999999 1 -0.38500000000000001
v -1.8999999999999999 1.4000000000000004 -0.42500000000000004
v -1.8999999999999999 1.5 -0.435
v -1.8999999999999999 1.9000000000000004 -0.47500000000000003
v -1.8999999999999999 2 -0.48499999999999999
v -1.8 -2 -0.070000000000000007
v -1.8 -1.8999999999999999 -0.080000000000000016
v -1.8 -1.8 -0.089999999999999997
v -1.8 -1.7 -0.10000000000000001
v -1.8 -1.6000000000000001 -0.10999999999999999
v -1.8 -1.5 -0.12
v -1.8 -1.3999999999999999 -0.13000000000000003
v -1.8 -1.2999999999999998 -0.14000000000000004
v -1.8 -1.1000000000000001 -0.16
v -1.8 -0.79999999999999982 -0.19000000000000003
v -1.8 -0.69999999999999996 -0.20000000000000001
v -1.8 -0.59999999999999987 -0.21000000000000002
v -1.8 -0.5 -0.22000000000000003
v -1.8 -0.29999999999999982 -0.24000000000000005
v -1.8 -0.19999999999999996 -0.25
v -1.8 -0.099999999999999867 -0.26000000000000001
v -1.8 0 -0.27000000000000002
v -1.8 0.40000000000000036 -0.31000000000000005
v -1.8 0.5 -0.32000000000000001
v -1.8 0.90000000000000036 -0.36000000000000004
v -1.8 1 -0.37
v -1.8 1.4000000000000004 -0.41000000000000003
v -1.8 1.5 -0.42000000000000004
v -1.8 1.9000000000000004 -0.46000000000000008
v -1.8 2 -0.47000000000000003
v -1.7 -2 -0.054999999999999993
v -1.7 -1.8999999999999999 -0.065000000000000002
v -1.7 -1.8 -0.074999999999999983
v -1.7 -1.7 -0.084999999999999992
v -1.7 -1.6000000000000001 -0.094999999999999973
v -1.7 -1.5 -0.10499999999999998
v -1.7 -1.3999999999999999 -0.11500000000000002
v -1.7 -1.2999999999999998 -0.12500000000000003
v -1.7 -1.1000000000000001 -0.14499999999999999
v -1.7 -0.79999999999999982 -0.17500000000000002
v -1.7 -0.69999999999999996 -0.185
v -1.7 -0.59999999999999987 -0.19500000000000001
v -1.7 -0.5 -0.20500000000000002
v -1.7 -0.29999999999999982 -0.22500000000000003
v -1.7 -0.19999999999999996 -0.23500000000000001
v -1.7 -0.099999999999999867 -0.24500000000000002
v -1.7 0 -0.255
v -1.7 0.40000000000000036 -0.29500000000000004
v -1.7 0.5 -0.30499999999999999
v -1.7 0.90000000000000036 -0.34500000000000003
v -1.7 1 -0.35499999999999998
v -1.7 1.4000000000000004 -0.39500000000000002
v -1.7 1.5 -0.40500000000000003
v -1.7 1.9000000000000004 -0.44500000000000006
v -1.7 2 -0.45500000000000002
v -1.6000000000000001 -2 -0.03999999999999998
v -1.6000000000000001 -1.8999999999999999 -0.049999999999999989
v -1.6000000000000001 -1.8 -0.05999999999999997
v -1.6000000000000001 -1.7 -0.069999999999999979
v -1.6000000000000001 -1.6000000000000001 -0.07999999999999996
v -1.6000000000000001 -1.5 -0.089999999999999969
v -1.6000000000000001 -1.3999999999999999 -0.10000000000000001
v -1.6000000000000001 -1.2999999999999998 -0.11000000000000001
v -1.6000000000000001 -1.1000000000000001 -0.12999999999999998
v -1.6000000000000001 -0.79999999999999982 -0.16
v -1.6000000000000001 -0.69999999999999996 -0.16999999999999998
v -1.6000000000000001 -0.59999999999999987 -0.17999999999999999
v -1.6000000000000001 -0.5 -0.19
v -1.6000000000000001 -0.29999999999999982 -0.21000000000000002
v -1.6000000000000001 -0.19999999999999996 -0.22
v -1.6000000000000001 -0.099999999999999867 -0.23000000000000001
v -1.6000000000000001 0 -0.23999999999999999
v -1.6000000000000001 0.40000000000000036 -0.28000000000000003
v -1.6000000000000001 0.5 -0.28999999999999998
v -1.6000000000000001 0.90000000000000036 -0.33000000000000002
v -1.6000000000000001 1 -0.33999999999999997
v -1.6000000000000001 1.4000000000000004 -0.38
v -1.6000000000000001 1.5 -0.39000000000000001
v -1.6000000000000001 1.9000000000000004 -0.43000000000000005
v -1.6000000000000001 2 -0.44
v -1.5 -2 -0.024999999999999967
v -1.5 -1.8999999999999999 -0.034999999999999976
v -1.5 -1.8 -0.044999999999999957
v -1.5 -1.7 -0.054999999999999966
v -1.5 -1.6000000000000001 -0.064999999999999947
v -1.5 -1.5 -0.074999999999999956
v -1.5 -1.3999999999999999 -0.084999999999999992
v -1.5 -1.2999999999999998 -0.095000000000000001
v -1.5 -1.1000000000000001 -0.11499999999999996
v -1.5 -0.79999999999999982 -0.14499999999999999
v -1.5 -0.69999999999999996 -0.15499999999999997
v -1.5 -0.59999999999999987 -0.16499999999999998
v -1.5 -0.29999999999999982 -0.19500000000000001
v -1.5 -0.19999999999999996 -0.20499999999999999
v -1.5 -0.099999999999999867 -0.215
v -1.5 0 -0.22499999999999998
v -1.5 0.30000000000000027 -0.255
v -1.5 0.40000000000000036 -0.26500000000000001
v -1.5 0.5 -0.27499999999999997
v -1.5 0.90000000000000036 -0.315
v -1.5 1 -0.32499999999999996
v -1.5 1.4000000000000004 -0.36499999999999999
v -1.5 1.9000000000000004 -0.41500000000000004
v -1.5 2 -0.42499999999999999
v -1.3999999999999999 -2 -0.0099999999999999811
v -1.3999999999999999 -1.8999999999999999 -0.01999999999999999
v -1.3999999999999999 -1.8 -0.029999999999999971
v -1.3999999999999999 -1.7 -0.03999999999999998
v -1.3999999999999999 -1.6000000000000001 -0.049999999999999961
v -1.3999999999999999 -1.5 -0.05999999999999997
v -1.3999999999999999 -1.3999999999999999 -0.070000000000000007
v -1.3999999999999999 -1.2999999999999998 -0.080000000000000016
v -1.3999999999999999 -1.1000000000000001 -0.099999999999999978
v -1.3999999999999999 -0.79999999999999982 -0.13
v -1.3999999999999999 -0.69999999999999996 -0.14000000000000001
v -1.3999999999999999 -0.59999999999999987 -0.14999999999999999
v -1.3999999999999999 -0.5 -0.15999999999999998
v -1.3999999999999999 -0.19999999999999996 -0.19
v -1.3999999999999999 -0.099999999999999867 -0.20000000000000001
v -1.3999999999999999 0 -0.20999999999999999
v -1.3999999999999999 0.30000000000000027 -0.24000000000000002
v -1.3999999999999999 0.40000000000000036 -0.25
v -1.3999999999999999 0.5 -0.26000000000000001
v -1.3999999999999999 0.90000000000000036 -0.30000000000000004
v -1.3999999999999999 1 -0.31
v -1.3999999999999999 1.4000000000000004 -0.35000000000000003
v -1.3999999999999999 1.5 -0.35999999999999999
v -1.3999999999999999 2 -0.41000000000000003
v -1.2999999999999998 -2 0.0050000000000000322
v -1.2999999999999998 -1.8999999999999999 -0.0049999999999999767
v -1.2999999999999998 -1.8 -0.014999999999999958
v -1.2999999999999998 -1.7 -0.024999999999999967
v -1.2999999999999998 -1.6000000000000001 -0.034999999999999948
v -1.2999999999999998 -1.5 -0.044999999999999957
v -1.2999999999999998 -1.3999999999999999 -0.054999999999999993
v -1.2999999999999998 -1.2999999999999998 -0.065000000000000002
v -1.2999999999999998 -1.1000000000000001 -0.084999999999999964
v -1.2999999999999998 -0.79999999999999982 -0.11499999999999999
v -1.2999999999999998 -0.69999999999999996 -0.12499999999999999
v -1.2999999999999998 -0.59999999999999987 -0.13499999999999998
v -1.2999999999999998 -0.5 -0.14499999999999996
v -1.2999999999999998 -0.29999999999999982 -0.16499999999999998
v -1.2999999999999998 -0.19999999999999996 -0.17499999999999999
v -1.2999999999999998 -0.099999999999999867 -0.185
v -1.2999999999999998 0 -0.19499999999999998
v -1.2999999999999998 0.40000000000000036 -0.23500000000000001
v -1.2999999999999998 0.5 -0.245
v -1.2999999999999998 0.90000000000000036 -0.28500000000000003
v -1.2999999999999998 1 -0.29499999999999998
v -1.2999999999999998 1.4000000000000004 -0.33500000000000002
v -1.2999999999999998 1.5 -0.34499999999999997
v -1.2999999999999998 1.9000000000000004 -0.38500000000000001
v -1.2999999999999998 2 -0.39500000000000002
v -1.2 -0.59999999999999987 -0.12
v -1.2 -0.5 -0.13
v -1.2 -0.29999999999999982 -0.15000000000000002
v -1.2 -0.19999999999999996 -0.16
v -1.2 0.40000000000000036 -0.22000000000000003
v -1.2 0.5 -0.22999999999999998
v -1.2 0.90000000000000036 -0.27000000000000002
v -1.2 1 -0.28000000000000003
v -1.2 1.4000000000000004 -0.32000000000000006
v -1.2 1.9000000000000004 -0.37000000000000005
v -1.2 2 -0.38
v -1.1000000000000001 -2 0.035000000000000003
v -1.1000000000000001 -1.8999999999999999 0.024999999999999994
v -1.1000000000000001 -1.8 0.015000000000000013
v -1.1000000000000001 -1.7 0.0050000000000000044
v -1.1000000000000001 -1.6000000000000001 -0.0049999999999999767
v -1.1000000000000001 -1.5 -0.014999999999999986
v -1.1000000000000001 -1.3999999999999999 -0.025000000000000022
v -1.1000000000000001 -1.2999999999999998 -0.035000000000000031
v -1.1000000000000001 -1.1000000000000001 -0.054999999999999993
v -1.1000000000000001 -0.79999999999999982 -0.08500000000000002
v -1.1000000000000001 -0.69999999999999996 -0.095000000000000015
v -1.1000000000000001 -0.59999999999999987 -0.10500000000000001
v -1.1000000000000001 -0.5 -0.115
v -1.1000000000000001 -0.39999999999999991 -0.125
v -1.1000000000000001 -0.29999999999999982 -0.13500000000000001
v -1.1000000000000001 -0.19999999999999996 -0.14500000000000002
v -1.1000000000000001 -0.099999999999999867 -0.15500000000000003
v -1.1000000000000001 0 -0.16500000000000001
v -1.1000000000000001 0.40000000000000036 -0.20500000000000004
v -1.1000000000000001 0.5 -0.21500000000000002
v -1.1000000000000001 0.90000000000000036 -0.25500000000000006
v -1.1000000000000001 1 -0.26500000000000001
v -1.1000000000000001 1.4000000000000004 -0.30500000000000005
v -1.1000000000000001 1.5 -0.31500000000000006
v -1.1000000000000001 1.9000000000000004 -0.35500000000000009
v -1.1000000000000001 2 -0.36499999999999999
v -1 -0.39999999999999991 -0.11
v -1 -0.29999999999999982 -0.12000000000000001
v -1 -0.19999999999999996 -0.13
v -0.89999999999999991 -0.69999999999999996 -0.064999999999999988
v -0.89999999999999991 -0.59999999999999987 -0.074999999999999983
v -0.79999999999999982 -2 0.080000000000000043
v -0.79999999999999982 -1.8999999999999999 0.070000000000000034
v -0.79999999999999982 -1.8 0.060000000000000053
v -0.79999999999999982 -1.7 0.050000000000000044
v -0.79999999999999982 -1.6000000000000001 0.040000000000000063
v -0.79999999999999982 -1.5 0.030000000000000054
v -0.79999999999999982 -1.3999999999999999 0.020000000000000018
v -0.79999999999999982 -1.2999999999999998 0.010000000000000009
v -0.79999999999999982 -1.1000000000000001 -0.0099999999999999534
v -0.79999999999999982 -0.79999999999999982 -0.03999999999999998
v -0.79999999999999982 -0.69999999999999996 -0.049999999999999975
v -0.79999999999999982 -0.59999999999999987 -0.059999999999999977
v -0.79999999999999982 -0.5 -0.069999999999999965
v -0.79999999999999982 -0.29999999999999982 -0.089999999999999983
v -0.79999999999999982 -0.19999999999999996 -0.099999999999999978
v -0.79999999999999982 -0.099999999999999867 -0.10999999999999999
v -0.79999999999999982 0 -0.11999999999999997
v -0.79999999999999982 0.10000000000000009 -0.12999999999999998
v -0.79999999999999982 0.40000000000000036 -0.16
v -0.79999999999999982 0.5 -0.16999999999999998
v -0.79999999999999982 0.90000000000000036 -0.21000000000000002
v -0.79999999999999982 1 -0.21999999999999997
v -0.79999999999999982 1.4000000000000004 -0.26000000000000001
v -0.79999999999999982 1.5 -0.27000000000000002
v -0.79999999999999982 1.9000000000000004 -0.31000000000000005
v -0.79999999999999982 2 -0.31999999999999995
v -0.69999999999999996 -2 0.095000000000000015
v -0.69999999999999996 -1.8999999999999999 0.085000000000000006
v -0.69999999999999996 -1.8 0.075000000000000025
v -0.69999999999999996 -1.7 0.065000000000000016
v -0.69999999999999996 -1.6000000000000001 0.055000000000000035
v -0.69999999999999996 -1.5 0.045000000000000026
v -0.69999999999999996 -1.3999999999999999 0.034999999999999989
v -0.69999999999999996 -1.2999999999999998 0.024999999999999981
v -0.69999999999999996 -1.1000000000000001 0.0050000000000000183
v -0.69999999999999996 -0.79999999999999982 -0.025000000000000008
v -0.69999999999999996 -0.69999999999999996 -0.035000000000000003
v -0.69999999999999996 -0.59999999999999987 -0.045000000000000005
v -0.69999999999999996 -0.5 -0.054999999999999993
v -0.69999999999999996 -0.29999999999999982 -0.075000000000000011
v -0.69999999999999996 -0.19999999999999996 -0.084999999999999992
v -0.69999999999999996 -0.099999999999999867 -0.095000000000000001
v -0.69999999999999996 0 -0.105
v -0.69999999999999996 0.10000000000000009 -0.115
v -0.69999999999999996 0.20000000000000018 -0.125
v -0.69999999999999996 0.90000000000000036 -0.19500000000000003
v -0.69999999999999996 1 -0.20500000000000002
v -0.69999999999999996 1.4000000000000004 -0.24500000000000005
v -0.69999999999999996 1.5 -0.255
v -0.69999999999999996 1.9000000000000004 -0.29500000000000004
v -0.69999999999999996 2 -0.30499999999999999
v -0.59999999999999987 -2 0.11000000000000003
v -0.59999999999999987 -1.8999999999999999 0.10000000000000002
v -0.59999999999999987 -1.8 0.090000000000000038
v -0.59999999999999987 -1.7 0.080000000000000029
v -0.59999999999999987 -1.6000000000000001 0.070000000000000048
v -0.59999999999999987 -1.5 0.060000000000000039
v -0.59999999999999987 -1.3999999999999999 0.050000000000000003
v -0.59999999999999987 -1.2999999999999998 0.039999999999999994
v -0.59999999999999987 -1.1000000000000001 0.020000000000000032
v -0.59999999999999987 -0.79999999999999982 -0.009999999999999995
v -0.59999999999999987 -0.69999999999999996 -0.01999999999999999
v -0.59999999999999987 -0.59999999999999987 -0.029999999999999992
v -0.59999999999999987 -0.5 -0.03999999999999998
v -0.59999999999999987 -0.29999999999999982 -0.059999999999999998
v -0.59999999999999987 -0.19999999999999996 -0.069999999999999979
v -0.59999999999999987 -0.099999999999999867 -0.079999999999999988
v -0.59999999999999987 0 -0.089999999999999983
v -0.59999999999999987 0.90000000000000036 -0.18000000000000002
v -0.59999999999999987 1 -0.19
v -0.59999999999999987 1.4000000000000004 -0.23000000000000004
v -0.59999999999999987 1.5 -0.23999999999999999
v -0.59999999999999987 1.9000000000000004 -0.28000000000000003
v -0.59999999999999987 2 -0.28999999999999998
v -0.5 -2 0.125
v -0.5 -1.8999999999999999 0.115
v -0.5 -1.8 0.10500000000000002
v -0.5 -1.7 0.095000000000000015
v -0.5 -1.6000000000000001 0.085000000000000034
v -0.5 -1.5 0.075000000000000025
v -0.5 -1.3999999999999999 0.064999999999999988
v -0.5 -1.2999999999999998 0.054999999999999979
v -0.5 -1.1000000000000001 0.035000000000000017
v -0.5 -0.79999999999999982 0.0049999999999999906
v -0.5 -0.69999999999999996 -0.0050000000000000044
v -0.5 -0.59999999999999987 -0.015000000000000006
v -0.5 -0.5 -0.024999999999999994
v -0.5 -0.29999999999999982 -0.045000000000000012
v -0.5 -0.19999999999999996 -0.055
v -0.5 -0.099999999999999867 -0.065000000000000002
v -0.5 0.90000000000000036 -0.16500000000000004
v -0.5 1 -0.17499999999999999
v -0.5 1.4000000000000004 -0.21500000000000002
v -0.5 1.5 -0.22500000000000003
v -0.5 1.9000000000000004 -0.26500000000000007
v -0.5 2 -0.27500000000000002
v -0.39999999999999991 -1.8999999999999999 0.13
v -0.39999999999999991 -1.8 0.12000000000000004
v -0.39999999999999991 -1.7 0.11000000000000003
v -0.29999999999999982 -2 0.15500000000000003
v -0.29999999999999982 -1.8999999999999999 0.14500000000000002
v -0.29999999999999982 -1.8 0.13500000000000006
v -0.29999999999999982 -1.7 0.12500000000000006
v -0.29999999999999982 -1.6000000000000001 0.11500000000000006
v -0.29999999999999982 -1.5 0.10500000000000005
v -0.29999999999999982 -1.3999999999999999 0.095000000000000015
v -0.29999999999999982 -1.2999999999999998 0.085000000000000006
v -0.29999999999999982 -1.1000000000000001 0.065000000000000044
v -0.29999999999999982 -1 0.055000000000000035
v -0.29999999999999982 -0.79999999999999982 0.035000000000000017
v -0.29999999999999982 -0.69999999999999996 0.025000000000000022
v -0.29999999999999982 -0.59999999999999987 0.01500000000000002
v -0.29999999999999982 -0.5 0.0050000000000000322
v -0.29999999999999982 0.90000000000000036 -0.13500000000000001
v -0.29999999999999982 1 -0.14499999999999996
v -0.29999999999999982 1.4000000000000004 -0.185
v -0.29999999999999982 1.5 -0.19500000000000001
v -0.29999999999999982 1.9000000000000004 -0.23500000000000004
v -0.29999999999999982 2 -0.245
v -0.19999999999999996 -2 0.17000000000000001
v -0.19999999999999996 -1.8999999999999999 0.16
v -0.19999999999999996 -1.8 0.15000000000000002
v -0.19999999999999996 -1.7 0.14000000000000001
v -0.19999999999999996 -1.6000000000000001 0.13000000000000003
v -0.19999999999999996 -1.5 0.12000000000000002
v -0.19999999999999996 -1.3999999999999999 0.10999999999999999
v -0.19999999999999996 -1.2999999999999998 0.099999999999999978
v -0.19999999999999996 -1.1000000000000001 0.080000000000000016
v -0.19999999999999996 -1 0.070000000000000007
v -0.19999999999999996 -0.89999999999999991 0.060000000000000005
v -0.19999999999999996 -0.79999999999999982 0.049999999999999996
v -0.19999999999999996 -0.69999999999999996 0.040000000000000001
v -0.19999999999999996 -0.59999999999999987 0.029999999999999999
v -0.19999999999999996 0.90000000000000036 -0.12000000000000002
v -0.19999999999999996 1 -0.13
v -0.19999999999999996 1.4000000000000004 -0.17000000000000004
v -0.19999999999999996 1.5 -0.18000000000000002
v -0.19999999999999996 1.9000000000000004 -0.22000000000000006
v -0.19999999999999996 2 -0.23000000000000001
v -0.099999999999999867 -2 0.18500000000000003
v -0.099999999999999867 -1.8999999999999999 0.17500000000000002
v -0.099999999999999867 -1.8 0.16500000000000004
v -0.099999999999999867 -1.7 0.15500000000000003
v -0.099999999999999867 -1.6000000000000001 0.14500000000000005
v -0.099999999999999867 -1.5 0.13500000000000004
v -0.099999999999999867 -1.3999999999999999 0.125
v -0.099999999999999867 -1.2999999999999998 0.11499999999999999
v -0.099999999999999867 -1.1000000000000001 0.095000000000000029
v -0.099999999999999867 -0.89999999999999991 0.075000000000000011
v -0.099999999999999867 -0.79999999999999982 0.065000000000000002
v -0.099999999999999867 -0.69999999999999996 0.055000000000000014
v -0.099999999999999867 0.90000000000000036 -0.10500000000000001
v -0.099999999999999867 1 -0.11499999999999999
v -0.099999999999999867 1.4000000000000004 -0.15500000000000003
v -0.099999999999999867 1.5 -0.16500000000000001
v -0.099999999999999867 1.9000000000000004 -0.20500000000000004
v -0.099999999999999867 2 -0.215
v 0 -2 0.20000000000000001
v 0 -1.8999999999999999 0.19
v 0 -1.8 0.18000000000000002
v 0 -1.7 0.17000000000000001
v 0 -1.6000000000000001 0.16000000000000003
v 0 -1.5 0.15000000000000002
v 0 -1.3999999999999999 0.13999999999999999
v 0 -1.2999999999999998 0.12999999999999998
v 0 -1.1000000000000001 0.11000000000000001
v 0 -0.79999999999999982 0.079999999999999988
v 0 0.90000000000000036 -0.090000000000000038
v 0 1 -0.10000000000000001
v 0 1.4000000000000004 -0.14000000000000004
v 0 1.5 -0.15000000000000002
v 0 1.9000000000000004 -0.19000000000000006
v 0 2 -0.20000000000000001
v 0.40000000000000036 -2 0.26000000000000006
v 0.40000000000000036 -1.8999999999999999 0.25000000000000006
v 0.40000000000000036 -1.8 0.24000000000000007
v 0.40000000000000036 -1.7 0.23000000000000007
v 0.40000000000000036 -1.6000000000000001 0.22000000000000008
v 0.40000000000000036 -1.5 0.21000000000000008
v 0.40000000000000036 -1.3999999999999999 0.20000000000000004
v 0.40000000000000036 -1.2999999999999998 0.19000000000000003
v 0.40000000000000036 0.40000000000000036 0.020000000000000018
v 0.40000000000000036 0.5 0.010000000000000051
v 0.40000000000000036 0.90000000000000036 -0.029999999999999985
v 0.40000000000000036 1 -0.039999999999999952
v 0.40000000000000036 1.4000000000000004 -0.079999999999999988
v 0.40000000000000036 1.5 -0.089999999999999969
v 0.40000000000000036 1.9000000000000004 -0.13
v 0.40000000000000036 2 -0.13999999999999996
v 0.5 -2 0.27500000000000002
v 0.5 -1.8999999999999999 0.26500000000000001
v 0.5 -1.8 0.255
v 0.5 -1.7 0.245
v 0.5 -1.6000000000000001 0.23500000000000004
v 0.5 -1.5 0.22500000000000003
v 0.5 0.40000000000000036 0.034999999999999962
v 0.5 0.5 0.024999999999999994
v 0.5 0.90000000000000036 -0.015000000000000041
v 0.5 1 -0.025000000000000008
v 0.5 1.4000000000000004 -0.065000000000000044
v 0.5 1.5 -0.075000000000000025
v 0.5 1.9000000000000004 -0.11500000000000006
v 0.5 2 -0.125
v 0.60000000000000009 2 -0.11
v 0.80000000000000027 -1.7 0.29000000000000004
v 0.80000000000000027 0.40000000000000036 0.080000000000000002
v 0.80000000000000027 0.5 0.070000000000000034
v 0.80000000000000027 0.90000000000000036 0.029999999999999999
v 0.80000000000000027 1 0.020000000000000032
v 0.80000000000000027 1.4000000000000004 -0.020000000000000004
v 0.80000000000000027 1.5 -0.029999999999999985
v 0.80000000000000027 1.9000000000000004 -0.070000000000000021
v 0.80000000000000027 2 -0.079999999999999974
v 0.90000000000000036 -2 0.33500000000000008
v 0.90000000000000036 -1.8999999999999999 0.32500000000000007
v 0.90000000000000036 -1.8 0.31500000000000006
v 0.90000000000000036 -1.7 0.30500000000000005
v 0.90000000000000036 0 0.13500000000000004
v 0.90000000000000036 0.40000000000000036 0.095000000000000001
v 0.90000000000000036 0.5 0.085000000000000034
v 0.90000000000000036 0.90000000000000036 0.044999999999999998
v 0.90000000000000036 1 0.035000000000000031
v 0.90000000000000036 1.4000000000000004 -0.0050000000000000044
v 0.90000000000000036 1.5 -0.014999999999999986
v 0.90000000000000036 1.9000000000000004 -0.055000000000000021
v 0.90000000000000036 2 -0.064999999999999974
v 1 -2 0.34999999999999998
v 1 -1.8999999999999999 0.33999999999999997
v 1 -1.8 0.33000000000000002
v 1 -1.7 0.32000000000000001
v 1 -0.099999999999999867 0.15999999999999998
v 1 0 0.14999999999999999
v 1 0.40000000000000036 0.10999999999999996
v 1 0.5 0.099999999999999992
v 1 0.90000000000000036 0.059999999999999956
v 1 1 0.049999999999999989
v 1 1.4000000000000004 0.0099999999999999534
v 1 1.5 -2.7755575615628914e-17
v 1 1.9000000000000004 -0.040000000000000063
v 1 2 -0.050000000000000017
v 1.1000000000000001 0.40000000000000036 0.12499999999999997
v 1.1000000000000001 0.5 0.115
v 1.2000000000000002 0.5 0.13
v 1.2000000000000002 0.60000000000000009 0.12000000000000001
v 1.2000000000000002 0.70000000000000018 0.11
v 1.3000000000000003 0.60000000000000009 0.13500000000000001
v 1.3000000000000003 0.70000000000000018 0.125
v 1.4000000000000004 -2 0.41000000000000003
v 1.4000000000000004 -1.8999999999999999 0.40000000000000002
v 1.4000000000000004 -1.8 0.39000000000000007
v 1.4000000000000004 -1.7 0.38000000000000006
v 1.4000000000000004 -1.6000000000000001 0.37000000000000011
v 1.4000000000000004 -0.29999999999999982 0.24000000000000005
v 1.4000000000000004 -0.19999999999999996 0.23000000000000004
v 1.4000000000000004 -0.099999999999999867 0.22000000000000003
v 1.4000000000000004 0 0.21000000000000005
v 1.4000000000000004 0.40000000000000036 0.17000000000000001
v 1.4000000000000004 0.5 0.16000000000000003
v 1.4000000000000004 0.80000000000000027 0.13
v 1.4000000000000004 0.90000000000000036 0.12000000000000001
v 1.4000000000000004 1 0.11000000000000004
v 1.4000000000000004 1.4000000000000004 0.070000000000000007
v 1.4000000000000004 1.5 0.060000000000000026
v 1.4000000000000004 1.9000000000000004 0.01999999999999999
v 1.4000000000000004 2 0.010000000000000037
v 1.5 -2 0.42499999999999999
v 1.5 -1.8999999999999999 0.41499999999999998
v 1.5 -1.8 0.40500000000000003
v 1.5 -1.7 0.39500000000000002
v 1.5 -1.6000000000000001 0.38500000000000001
v 1.5 -0.5 0.27499999999999997
v 1.5 -0.29999999999999982 0.25499999999999995
v 1.5 -0.19999999999999996 0.24499999999999997
v 1.5 -0.099999999999999867 0.23499999999999996
v 1.5 0 0.22499999999999998
v 1.5 0.40000000000000036 0.18499999999999994
v 1.5 0.5 0.17499999999999999
v 1.5 0.90000000000000036 0.13499999999999995
v 1.5 1 0.12499999999999997
v 1.5 1.4000000000000004 0.084999999999999937
v 1.5 1.5 0.074999999999999956
v 1.5 1.9000000000000004 0.03499999999999992
v 1.5 2 0.024999999999999967
v 1.6000000000000001 -0.19999999999999996 0.26000000000000001
v 1.6000000000000001 -0.099999999999999867 0.24999999999999997
v 1.7000000000000002 -0.099999999999999867 0.26500000000000001
v 1.7000000000000002 0 0.255
v 1.9000000000000004 -2 0.48500000000000004
v 1.9000000000000004 -1.8999999999999999 0.47500000000000003
v 1.9000000000000004 -1.8 0.46500000000000008
v 1.9000000000000004 -1.7 0.45500000000000007
v 1.9000000000000004 -1.6000000000000001 0.44500000000000006
v 1.9000000000000004 -1.5 0.43500000000000005
v 1.9000000000000004 -1.2999999999999998 0.41500000000000004
v 1.9000000000000004 -1.2 0.40500000000000003
v 1.9000000000000004 -1.1000000000000001 0.39500000000000002
v 1.9000000000000004 -0.79999999999999982 0.36499999999999999
v 1.9000000000000004 -0.69999999999999996 0.35500000000000004
v 1.9000000000000004 -0.59999999999999987 0.34500000000000003
v 1.9000000000000004 -0.5 0.33500000000000002
v 1.9000000000000004 -0.29999999999999982 0.315
v 1.9000000000000004 -0.19999999999999996 0.30500000000000005
v 1.9000000000000004 -0.099999999999999867 0.29500000000000004
v 1.9000000000000004 0 0.28500000000000003
v 1.9000000000000004 0.40000000000000036 0.245
v 1.9000000000000004 0.5 0.23500000000000004
v 1.9000000000000004 0.90000000000000036 0.19500000000000001
v 1.9000000000000004 1 0.18500000000000003
v 1.9000000000000004 1.4000000000000004 0.14499999999999999
v 1.9000000000000004 1.5 0.13500000000000001
v 1.9000000000000004 1.9000000000000004 0.094999999999999973
v 1.9000000000000004 2 0.08500000000000002
v 2 -2 0.5
v 2 -1.8999999999999999 0.48999999999999999
v 2 -1.8 0.47999999999999998
v 2 -1.7 0.46999999999999997
v 2 -1.6000000000000001 0.46000000000000002
v 2 -1.5 0.45000000000000001
v 2 -1.3999999999999999 0.43999999999999995
v 2 -1.2999999999999998 0.42999999999999994
v 2 -1.2 0.41999999999999998
v 2 -1.1000000000000001 0.41000000000000003
v 2 -0.79999999999999982 0.38
v 2 -0.69999999999999996 0.37
v 2 -0.59999999999999987 0.35999999999999999
v 2 -0.5 0.34999999999999998
v 2 -0.29999999999999982 0.32999999999999996
v 2 -0.19999999999999996 0.32000000000000001
v 2 -0.099999999999999867 0.31
v 2 0 0.29999999999999999
v 2 0.40000000000000036 0.25999999999999995
v 2 0.5 0.25
v 2 0.90000000000000036 0.20999999999999996
v 2 1 0.19999999999999998
v 2 1.4000000000000004 0.15999999999999995
v 2 1.5 0.14999999999999997
v 2 1.9000000000000004 0.10999999999999993
v 2 2 0.099999999999999978
v -2 -2 -0.90000000000000002
v -2 2 -0.90000000000000002
v 2 -2 -0.90000000000000002
v 2 2 -0.90000000000000002
v 1 -1.3680117784833934 -0.095455565846428003
v 1.595455565846428 -1 0.1319882215166065
v 0.78368810393753674 -1.5663118960624631 0.14999999999999997
v 1.2163118960624633 -1.5663118960624631 0.14999999999999997
v 1 -1 -0.19999999999999996
v 1.5663118960624631 -0.64999999999999991 0.2836881039375368
v 1.5663118960624631 -1.3500000000000001 0.2836881039375368
v 1.3500000000000001 -1.2163118960624633 -0.066311896062463127
v 1.3500000000000001 -0.78368810393753674 -0.066311896062463127
v 0.88756457505198383 -1.4856463342923145 0.0085674886566858843
v 1.3037219951868864 -1.6038679362913304 0.31807566089457195
v 1.1124354249480162 -1.4856463342923145 0.0085674886566858843
v 1.1137218936815172 -1.6657395614066075 0.31599411075830325
v 1 -1.595455565846428 0.13198822151660644
v 1 -1.1912865702388702 -0.17335685044874227
v 1.6038679362913304 -0.81807566089457184 0.19627800481311364
v 1.4114496766047313 -0.5182663278350893 0.202272217076786
v 1.6038679362913304 -1.1819243391054282 0.19627800481311364
v 1.4114496766047313 -1.4817336721649106 0.202272217076786
v 1.1819243391054282 -1.3037219951868864 -0.10386793629133029
v 1.491432511343314 -1.1124354249480162 0.014353665707685648
v 1.2977277829232139 -1.4114496766047311 0.018266327835089302
v 1.1840058892416967 -1.1137218936815172 -0.16573956140660751
v 1.4817336721649106 -1.2977277829232139 0.088550323395268804
v 1.491432511343314 -0.88756457505198383 0.014353665707685648
v 1.1840058892416967 -0.88627810631848281 -0.16573956140660751
v 1.4817336721649106 -0.702272217076786 0.088550323395268804
v 1.3680117784833936 -1 -0.095455565846427892
v 1.6733568504487422 -1 0.30871342976112981
v 0.58855032339526869 -1.4817336721649106 0.202272217076786
v 0.81807566089457184 -1.3037219951868864 -0.10386793629133029
v 0.702272217076786 -1.4114496766047311 0.018266327835089302
v 0.81599411075830319 -1.1137218936815172 -0.16573956140660751
v 0.73747300276525318 -1.5907380322356732 0.23147038712046658
v 0.94323959458968754 -1.4309494146115764 -0.0486901296939799
v 0.83403957225459679 -1.53105661011428 0.075222395509730089
v 0.83292614877628479 -1.6237045669318575 0.22966883008868555
v 1.2625269972347468 -1.5907380322356732 0.23147038712046658
v 1.0567604054103124 -1.4309494146115764 -0.0486901296939799
v 1.1659604277454032 -1.53105661011428 0.075222395509730089
v 1 -1.4920349213414412 0.0021027855264486583
v 1.1670738512237153 -1.6237045669318575 0.22966883008868555
v 1 -1.6747028844273357 0.31351670920580288
v 1.2108812153652624 -1.6413709226338509 0.31514207453865417
v 0.89049587447183842 -1.5881245197289973 0.13651905719027163
v 1.1095041255281617 -1.5881245197289973 0.13651905719027163
v 0.94320070386604227 -1.5461430594970886 0.065832292170587114
v 0.94237349397762793 -1.6390877450526093 0.22027506380870421
v 1.0567992961339576 -1.5461430594970886 0.065832292170587114
v 1.0576265060223722 -1.6390877450526093 0.22027506380870421
v 1 -1.282348744032155 -0.14053039486308883
v 1 -1.0965665694893436 -0.19330721736980327
v 1.6054505351042923 -0.90815973483089096 0.16089085055753249
v 1.590738032235673 -0.73147038712046653 0.23747300276525324
v 1.4949747468305832 -0.57894933149471806 0.23977637587787087
v 1.53105661011428 -1.42477760449027 0.33403957225459679
v 1.3998761613949959 -1.5548544604814971 0.35088399404560922
v 1.6054505351042923 -1.091840265169109 0.16089085055753249
v 1.590738032235673 -1.2685296128795334 0.23747300276525324
v 1.3177933498176828 -1.5305547940334434 0.17209910439313197
v 1.4949747468305832 -1.4210506685052819 0.23977637587787087
v 1.3612851340357426 -1.5484161888543193 0.25769288964770554
v 1.4531883257175569 -1.4916168927203617 0.29279678519556196
v 1.091840265169109 -1.3391091494424674 -0.10545053510429236
v 1.2685296128795334 -1.2625269972347468 -0.090738032235673005
v 1.1491160059543908 -1.3998761613949959 -0.054854460481496892
v 1.0921587599464453 -1.2507601554406054 -0.14701322042794218
v 1.5486901296939799 -1.0567604054103126 0.069050585388423624
v 1.42477760449027 -1.1659604277454032 -0.03105661011428007
v 1.5548544604814971 -1.1491160059543908 0.10012383860500396
v 1.2602236241221292 -1.4949747468305832 0.078949331494718
v 1.3279008956068681 -1.3177933498176828 -0.030554794033443522
v 1.207203214804438 -1.4531883257175569 0.0083831072796385353
v 1.3593628088613134 -1.4526044542584122 0.10502205176395996
v 1.2423071103522945 -1.3612851340357428 -0.048416188854319198
v 1.0931497728984139 -1.0575697256955536 -0.19138183841659639
v 1.2703311699113145 -1.1670738512237153 -0.1237045669318575
v 1.0929547337795318 -1.1540819192313048 -0.17647481818170729
v 1.1848579254613458 -1.2108812153652624 -0.14137092263385098
v 1.5305547940334434 -1.3279008956068681 0.18220665018231724
v 1.4210506685052819 -1.2602236241221292 0.0050252531694168212
v 1.5484161888543193 -1.2423071103522945 0.13871486596425725
v 1.4526044542584122 -1.39497794823604 0.1406371911386865
v 1.4916168927203615 -1.207203214804438 0.046811674282443261
v 1.39497794823604 -1.3593628088613134 0.047395545741587886
v 1.2685296128795334 -0.73747300276525318 -0.090738032235673005
v 1.5486901296939799 -0.94323959458968754 0.069050585388423624
v 1.42477760449027 -0.83403957225459679 -0.03105661011428007
v 1.5548544604814971 -0.85088399404560922 0.10012383860500396
v 1.4978972144735514 -1 0.0079650786585587774
v 1.3279008956068681 -0.68220665018231719 -0.030554794033443522
v 1.0931497728984139 -0.94243027430444637 -0.19138183841659639
v 1.2703311699113145 -0.83292614877628479 -0.1237045669318575
v 1.0929547337795318 -0.84591808076869535 -0.17647481818170729
v 1.1864832907941971 -1 -0.17470288442733573
v 1.1848579254613458 -0.7891187846347375 -0.14137092263385098
v 1.5305547940334434 -0.67209910439313192 0.18220665018231724
v 1.4210506685052819 -0.73977637587787082 0.0050252531694168212
v 1.5484161888543193 -0.75769288964770554 0.13871486596425725
v 1.4526044542584122 -0.60502205176395996 0.1406371911386865
v 1.4916168927203615 -0.79279678519556196 0.046811674282443261
v 1.39497794823604 -0.64063719113868656 0.047395545741587886
v 1.3634809428097285 -1.1095041255281617 -0.088124519728997153
v 1.3634809428097285 -0.89049587447183842 -0.088124519728997153
v 1.4341677078294128 -1.0567992961339578 -0.046143059497088634
v 1.2797249361912959 -1.0576265060223722 -0.13908774505260935
v 1.4341677078294128 -0.94320070386604227 -0.046143059497088634
v 1.2797249361912959 -0.94237349397762793 -0.13908774505260935
v 1.6405303948630889 -1 0.21765125596784496
v 1.6470132204279422 -0.90784124005355471 0.24923984455939474
v 1.6470132204279422 -1.0921587599464453 0.24923984455939474
v 1.6413709226338509 -0.81514207453865406 0.2891187846347375
v 1.6237045669318575 -1.2703311699113145 0.33292614877628479
v 1.6413709226338509 -1.1848579254613458 0.2891187846347375
v 1.6764748181817073 -1.0929547337795318 0.34591808076869535
v 0.68220665018231719 -1.5305547940334434 0.17209910439313197
v 0.90815973483089096 -1.3391091494424674 -0.10545053510429236
v 0.73147038712046653 -1.2625269972347468 -0.090738032235673005
v 0.85088399404560922 -1.3998761613949959 -0.054854460481496892
v 0.90784124005355471 -1.2507601554406054 -0.14701322042794218
v 0.73977637587787082 -1.4949747468305832 0.078949331494718
v 0.67209910439313192 -1.3177933498176828 -0.030554794033443522
v 0.79279678519556196 -1.4531883257175569 0.0083831072796385353
v 0.64063719113868645 -1.4526044542584122 0.10502205176395996
v 0.75769288964770554 -1.3612851340357428 -0.048416188854319198
v 0.90685022710158603 -1.0575697256955536 -0.19138183841659639
v 0.90704526622046833 -1.1540819192313048 -0.17647481818170729
v 0.81514207453865406 -1.2108812153652624 -0.14137092263385098
v 0.54739554574158789 -1.39497794823604 0.1406371911386865
v 0.60502205176395996 -1.3593628088613134 0.047395545741587886
v 0.96485326069945621 -0.1063741265035949 0.15536540175527791
v 0.95715297845357261 -0.099999999999999867 0.15357294676803587
v 1.6775947900779158 -1.1000000000000001 0.36163921851168729
v 1.6788231791809178 -1.092985459052114 0.36112202278234901
v 1.6716245904158247 -1.1340919745172324 0.3641528860140969
v 0.011351990125421055 -0.79999999999999982 0.081702798518813138
v -0.80125058783257452 0.54646788505173682 -0.17483437668005988
v -0.80471393393116375 0.55767728092032731 -0.17647481818170729
v -0.79999999999999982 0.54242025779049308 -0.17424202577904929
v -0.80772358987272941 0.57442460261909123 -0.17860099874281854
v 0.63014391125984937 -1.5370230254593804 0.24822388923491548
v 0.64210635397368498 -1.5470233578298911 0.25101828887904187
v -0 -0.78549467928418393 0.078549467928418409
v 0.90000000000000036 -0.052777080585667803 0.14027770805856679
v 0.90158172555252702 -0.053999323058074748 0.1406371911386865
v 0.032068514719329727 0.57202884511931451 -0.052392607304031988
v 0 0.59126968175581474 -0.059126968175581468
v -0.82581515310397258 0.67509565451000497 -0.19138183841659639
v -0.82247690100201143 0.69124749340077996 -0.19249628449037973
v 0.58974156282789558 -1.5 0.23846123442418435
v 0.57365652968096426 -1.4852603471128221 0.23457451416342684
v 1 -1.6754222551618543 0.31754222551618549
v 1.0027412504347899 -1.6754970725066167 0.31796089481588019
v -0.79999999999999993 0.7999999999999996 -0.19999999999999993
v 0.53765667356986946 -1.4447581924645574 0.22512432028193616
v 1.0779582721913217 -0.19999999999999996 0.18169374082869827
v -0.69999999999999996 0.28257850158055731 -0.13325785015805569
v 1.1034812677452646 -1.6704160142744418 0.33256379158923388
v 1.1222043126255685 -1.6679957776551833 0.33513022465935366
v 0.15585136921304235 -0.98463809550084924 0.12184151493204128
v 1.4413512897512906 -1.5241860661871125 0.36862130008140481
v 1.405007313470813 -1.5538365394258571 0.36613475096320769
v 1 -0.13546783441414578 0.16354678344141457
v -0.7368271670763209 0.36303472806319104 -0.14682754786776722
v -0.72377934686604728 0.32804020603943895 -0.14137092263385098
v 0.14993930069102376 0.5 -0.027509104896346441
v 1.1929310038221872 -1.6524647634727221 0.34418612692060035
v -0.75060978773700582 0.40000000000000036 -0.15259146816055091
v 1.4800243696319793 -1.4914644475473915 0.37115010019953604
v 0.13605852203604629 0.50963572338850471 -0.030554794033443525
v 1.2250580743459283 -1.6433767447545649 0.34809638562734568
v -0.78204935879571547 0.48432157587250158 -0.16573956140660748
v -0.78689349220580873 0.5 -0.16803402383087132
v 0.24760581976946575 -1.1000000000000003 0.14714087296541989
v 1.594880925358747 -0.68965769681609401 0.30819790848542145
v 1.569693198983855 -0.64791023986832053 0.30024500383441027
v 1.1976778393870895 -0.29999999999999982 0.20965167590806338
v 0.2235158035569651 -1.0710982060514174 0.1406371911386865
v 1.6803627247810842 -1.0714842755955125 0.35920283627671379
v 1.6825547841949375 -1 0.35238321762924057
v 1.1663622078150009 -0.27317885904535882 0.20227221707678603
v 1.1851548391294524 -0.28927432920163554 0.20670065878958144
v 0.29399468807934537 0.40000000000000041 0.0040992032119017679
v -0.79999999999999982 0.79999999999999982 -0.19999999999999996
v 1.6762213345222952 -0.91460227389216298 0.34289342756756058
v 1.2822473148121383 -1.6213622527831684 0.35447332250013758
v -0.71478422617353654 0.85032262090030364 -0.19224989601606085
v -0.70523955422879858 0.85595905282276608 -0.19138183841659639
v -0.69999999999999996 0.85586095087152381 -0.19058609508715238
v 1.571298468653062 -1.3815538101564437 0.37385015131360366
v 1.5847243528682438 -1.3613795241223619 0.37384660534247272
v 0.4000000000000003 -1.282833633532408 0.18828336335324083
v -0.59999999999999998 0.091397033414192835 -0.099139703341419277
v 1.5364808099981924 -1.4281537333692191 0.37328749483665075
v 1.5 -1.470717863201968 0.37207178632019683
v 1.4988235790619848 -1.4720904569998066 0.3720325825592784
v 1.3195589983694735 -1.6045762052370787 0.35839147027912893
v 1.3275562495095539 -1.6000000000000001 0.35913343742643311
v -0.62146072015292864 0.13242595328163678 -0.10646170335110297
v -0.63729734837512297 0.16270265162487699 -0.11186486741875615
v 0.40000000000000036 0.32641350397059304 0.027358649602940752
v -0.65680622061721061 0.20000000000000018 -0.1185209330925816
v 1.3854274301110701 -1.5668848214085298 0.36450259665751356
v 1.4000000000000004 -1.557173476472026 0.36571734764720265
v 1.4000000000000006 -0.47438734800109755 0.25743873480010987
v 0.4995393841017694 -1.4004606158982307 0.21497696920508844
v 0.5 -1.4009959154513798 0.21509959154513794
v 0.49914303218170042 -1.3999999999999999 0.21487145482725503
v 1.3255156696458295 -0.40949025430996439 0.23977637587787087
v 0.46047545032354392 -1.3550629073604541 0.20457760828457699
v -0.62111593190805547 0.85438397770476082 -0.17860578755668444
v -0.6070846115224946 0.85412126453333115 -0.17647481818170729
v -0.59999999999999987 0.85271747053749314 -0.17527174705374932
v 0.43459599655052555 -1.3243398888594722 0.19762338836852603
v 0.41430838678213949 -1.2999999999999996 0.19214625801732088
v 0.45181552879928727 -1.344998877568929 0.20227221707678597
v 1.5572303539785133 -0.63073775481176186 0.29665832857795316
v 0.40780381053708042 -1.2921961894629197 0.19039019052685402
v -0.5 -0.075396095483087927 -0.067460390451691193
v 1.5313333756694743 -0.59999999999999987 0.28970000635042115
v 1.5121069812864767 -0.57717972385015481 0.28453401957798696
v 0.49131848580529297 0.26302227129206052 0.047395545741587886
v 0.5 0.25631382850524148 0.049368617149475852
v 1.5000000000000002 -0.56521765140629143 0.28152176514062915
v 1.4682919187940322 -0.53388908522891121 0.27363269634199594
v 1.467126407498238 -0.53287359250176214 0.27335632037491192
v -0.54747106701603221 -0 -0.082120660052404829
v 1.429396404742133 -0.5 0.26440946071131993
v -0.57537477298840412 0.044318162874123886 -0.090738032235673005
v 1.6177416247999865 -0.72999469328379463 0.31566071304837745
v 1.6007423504851015 -0.69999999999999996 0.31011135257276518
v -0.54386713245714446 0.84159491538035847 -0.16573956140660751
v -0.5 0.8291845109410827 -0.15791845109410826
v -0.52391508334902603 0.83595030209121901 -0.1621822927114758
v 1.6752807880557608 -0.9070775257314464 0.34199987078150873
v 1.5986999935897683 -1.3357939927950935 0.3733843983179746
v 1.6289730584934825 -0.7551588108592282 0.31986183985994515
v -0.59773337299168372 0.85226834536316631 -0.17488684048506922
v -0.42154659649307152 -0.19999999999999996 -0.04323198947396073
v 0.59141095078025485 0.18567809381140815 0.070143833235897415
v -0.45185792378151513 -0.15185792378151511 -0.052592896189075762
v -0.48450883175455189 -0.099999999999999867 -0.062676324763182786
v 1.6456705904296289 -0.79999999999999982 0.32685058856444427
v 1.6514401495236777 -0.81549413958808104 0.32926543638735972
v -0.49049401340096266 -0.090494013400962511 -0.064524700670048132
v 1.6733723173408188 -0.89892281356889692 0.34089812895801241
v -0.49799800350737589 -0.078575773720860026 -0.066842123154020355
v 1.6162480456366153 -1.2999999999999998 0.37243720684549225
v 1.6291600153332246 -1.2736625496062428 0.37174025726060794
v 0.65408223565573365 -1.5550017263536404 0.25361250798372414
v -0.40718803420476063 0.8029271750313689 -0.14137092263385095
v 1.6521379565173444 -1.2119388620966873 0.36901457968727036
v -0.29999999999999977 -0.37828578907250254 -0.0071714210927497097
v -0.3557241973747215 -0.29999999999999982 -0.023358629606208239
v 1.6610484275025557 -1.1841699121908138 0.3675742553444647
v 0.80000000000000027 -1.6328662080732956 0.28328662080732958
v -0.38049687430359447 -0.26519737112095643 -0.030554794033443518
v -0.29999999999999982 0.75225163014608598 -0.12022516301460856
v 0.72805470950799922 -1.6000000000000001 0.26920820642619991
v 0.76533194491192236 -1.6180505970427312 0.27660485144106151
v -0.066908879439796218 -0.69999999999999996 0.059963668084030565
v -0.037534249441836899 -0.73753424944183688 0.068123287527908152
v -0.099999999999999867 -0.65771690150640649 0.050771690150640668
v -0.11215411987258986 -0.64218663722476355 0.047395545741587879
v 0.72025832790712052 -1.5962247913198517 0.26766122831805328
v -0.19999999999999998 -0.51877375078519228 0.021877375078519241
v 0.80000000000000027 0.024495646687059579 0.1175504353312941
v -0.21336324518935376 -0.5 0.017995513221596936
v 0.8953880013097455 -1.6614113045134267 0.30044933064780449
v 0.87441667932314715 -1.6563941682630245 0.29680191872477452
v 0.85086515698258514 -1.6491348430174151 0.29254325784912927
v 0.90000000000000047 -1.6620565498371682 0.30120565498371688
v -0.21914630528059492 0.71402623431442913 -0.10427456922353215
v -0.19999999999999996 0.70497438949021429 -0.10049743894902143
v 0.8049560062242096 -1.6349841884531118 0.28424181977894264
v 0.87022831351577756 -0.029771686484222817 0.13351141567578889
v 0.85699234079824327 -0.019543889384309968 0.13050324005816746
v 0.83170024865384218 0 0.12475503729807631
v -0.14218276909667008 -0.59999999999999987 0.038672584635499475
v -0.099999999999999853 0.65126883296347104 -0.080126883296347082
v 0.97799490389571186 -1.6729684885419023 0.31399608443854704
v 0.93328647899714023 -1.6667135210028596 0.30666432394985704
v 0.99773076751397305 -1.6753603206712657 0.31719564719422255
v -0.15052948489697993 0.68158609501126011 -0.090738032235673005
f 70 71 45
f 45 71 46
f 72 73 47
f 47 73 48
f 89 90 64
f 64 90 65
f 91 92 66
f 66 92 67
f 159 160 135
f 135 160 136
f 160 161 136
f 136 161 137
f 161 162 137
f 138 163 139
f 143 168 144
f 171 172 147
f 148 173 149
f 183 184 159
f 159 184 160
f 184 185 160
f 160 185 161
f 191 192 167
f 199 200 185
f 185 200 186
f 201 202 187
f 187 202 188
f 203 204 191
f 191 204 192
f 193 206 194
f 208 209 197
f 197 209 198
f 221 222 199
f 199 222 200
f 222 223 200
f 224 225 201
f 201 225 202
f 228 229 203
f 203 229 204
f 230 231 205
f 232 233 207
f 234 235 208
f 208 235 209
f 222 236 223
f 237 238 224
f 224 238 225
f 251 252 239
f 239 252 240
f 252 253 240
f 280 281 254
f 254 281 255
f 282 283 256
f 256 283 257
f 284 285 258
f 286 287 261
f 261 287 262
f 288 289 263
f 263 289 264
f 290 291 265
f 265 291 266
f 315 316 292
f 292 316 293
f 328 329 305
f 305 329 306
f 329 330 306
f 306 330 307
f 331 332 309
f 309 332 310
f 333 334 311
f 311 334 312
f 315 337 316
f 337 338 316
f 316 338 317
f 341 342 337
f 337 342 338
f 343 344 339
f 361 362 341
f 341 362 342
f 363 364 343
f 343 364 344
f 369 370 349
f 374 375 354
f 354 375 355
f 376 377 356
f 356 377 357
f 369 389 370
f 390 391 371
f 371 391 372
f 408 409 392
f 392 409 393
f 431 432 415
f 415 432 416
f 433 434 417
f 417 434 418
f 442 443 428
f 428 443 429
f 442 444 443
f 468 469 455
f 455 469 456
f 481 483 482
f 509 510 491
f 491 510 492
f 512 513 493
f 493 513 494
f 516 517 497
f 497 517 498
f 499 518 500
f 518 519 500
f 500 519 501
f 512 524 513
f 513 525 514
f 526 527 525
f 554 555 529
f 529 555 530
f 556 557 531
f 531 557 532
f 558 559 533
f 560 561 534
f 534 561 535
f 561 562 535
f 535 562 536
f 563 564 537
f 537 564 538
f 797 800 421
f 421 800 774
f 511 810 808
f 821 823 329
f 824 827 330
f 458 858 726
f 457 864 854
f 618 703 585
f 703 706 698
f 585 703 698
f 700 707 613
f 618 629 592
f 616 619 585
f 585 698 616
f 625 632 630
f 595 632 625
f 696 697 693
f 600 693 640
f 600 696 693
f 608 676 674
f 592 705 618
f 618 705 703
f 704 707 700
f 629 631 623
f 623 631 594
f 621 623 594
f 592 629 623
f 627 629 618
f 619 630 627
f 585 627 618
f 619 627 585
f 630 632 596
f 596 631 629
f 627 630 596
f 596 629 627
f 698 706 612
f 706 711 612
f 628 631 596
f 596 632 628
f 624 632 595
f 628 632 624
f 586 628 624
f 613 710 700
f 590 685 659
f 669 672 650
f 640 693 691
f 589 695 641
f 641 662 589
f 641 696 600
f 695 696 641
f 641 664 662
f 600 664 641
f 680 684 673
f 599 682 637
f 685 688 659
f 658 674 587
f 614 706 703
f 703 705 614
f 614 712 706
f 705 707 614
f 704 712 614
f 614 707 704
f 617 623 621
f 592 623 617
f 622 628 586
f 586 653 622
f 594 631 622
f 622 631 628
f 622 655 594
f 653 655 622
f 642 653 586
f 595 626 624
f 615 710 709
f 633 702 699
f 709 710 702
f 597 709 702
f 597 702 633
f 699 702 613
f 702 710 613
f 654 663 590
f 654 667 663
f 604 657 655
f 604 655 653
f 604 667 654
f 654 657 604
f 650 652 640
f 652 666 664
f 640 652 600
f 652 664 600
f 664 666 606
f 606 667 665
f 663 667 606
f 606 666 663
f 606 665 662
f 662 664 606
f 651 685 590
f 590 663 651
f 663 666 651
f 693 697 611
f 691 693 611
f 584 650 640
f 584 669 650
f 640 691 584
f 662 665 643
f 589 662 643
f 643 665 601
f 601 645 643
f 589 643 638
f 643 645 638
f 682 684 609
f 609 684 680
f 591 673 668
f 670 680 591
f 591 680 673
f 668 675 591
f 658 677 674
f 674 677 608
f 701 705 592
f 617 701 592
f 699 701 617
f 701 707 705
f 613 707 701
f 613 701 699
f 601 665 656
f 601 656 642
f 665 667 656
f 642 656 653
f 656 667 604
f 653 656 604
f 586 624 620
f 620 642 586
f 624 626 620
f 620 626 593
f 708 709 634
f 634 709 597
f 587 708 634
f 634 658 587
f 633 699 583
f 617 621 583
f 583 699 617
f 583 646 633
f 621 646 583
f 621 648 646
f 655 657 648
f 594 655 648
f 594 648 621
f 672 689 687
f 651 687 685
f 686 689 670
f 675 686 591
f 591 686 670
f 679 682 609
f 637 682 679
f 637 679 588
f 670 689 607
f 607 672 669
f 607 689 672
f 608 690 675
f 677 690 608
f 688 690 677
f 675 690 686
f 668 678 675
f 675 678 608
f 620 644 642
f 593 644 620
f 639 644 593
f 642 644 601
f 644 645 601
f 639 645 644
f 634 660 658
f 597 660 634
f 648 657 602
f 646 648 602
f 650 672 603
f 672 687 603
f 603 687 651
f 651 666 603
f 603 666 652
f 603 652 650
f 588 679 636
f 610 689 686
f 686 690 610
f 687 689 610
f 610 690 688
f 610 688 685
f 685 687 610
f 605 677 658
f 658 660 605
f 605 688 677
f 660 661 605
f 659 688 605
f 605 661 659
f 633 649 597
f 649 660 597
f 649 661 660
f 646 649 633
f 602 649 646
f 602 661 649
f 647 657 654
f 602 657 647
f 647 654 590
f 590 659 647
f 659 661 647
f 647 661 602
f 635 669 584
f 584 691 635
f 609 681 679
f 679 681 636
f 691 692 635
f 611 692 691
f 636 681 598
f 635 692 598
f 609 683 681
f 680 683 609
f 670 683 680
f 607 683 670
f 598 694 636
f 692 694 598
f 669 671 607
f 671 683 607
f 635 671 669
f 681 683 671
f 598 671 635
f 598 681 671
f 706 712 711
f 740 741 595
f 639 744 743
f 757 758 588
f 863 865 625
f 796 798 612
f 716 761 697
f 599 764 763
f 2 1 26
f 2 26 27
f 253 254 236
f 237 236 254
f 253 236 222
f 455 454 467
f 455 467 468
f 456 469 470
f 457 456 470
f 224 223 236
f 224 236 237
f 717 715 697
f 697 715 716
f 698 723 724
f 612 723 698
f 226 225 238
f 256 226 238
f 255 256 238
f 459 458 472
f 459 472 473
f 732 723 612
f 733 732 612
f 256 257 227
f 256 227 226
f 459 473 474
f 460 459 474
f 580 582 581
f 580 581 579
f 737 733 612
f 461 460 474
f 461 474 475
f 2 27 28
f 3 2 28
f 645 639 743
f 751 645 743
f 258 259 228
f 258 228 227
f 257 258 227
f 749 753 626
f 461 475 476
f 462 461 476
f 4 3 28
f 4 28 29
f 259 260 229
f 259 229 228
f 595 749 626
f 741 749 595
f 477 462 476
f 463 462 477
f 5 4 29
f 5 29 30
f 611 697 761
f 762 611 761
f 464 463 477
f 464 477 478
f 6 5 30
f 6 30 31
f 762 767 611
f 465 464 478
f 465 478 479
f 7 6 31
f 7 31 32
f 589 772 773
f 638 772 589
f 466 465 479
f 466 479 480
f 776 772 638
f 736 261 230
f 731 736 230
f 730 731 230
f 730 230 229
f 722 730 229
f 720 722 229
f 260 719 720
f 260 721 719
f 260 720 229
f 8 7 32
f 8 32 33
f 778 777 638
f 776 638 777
f 488 489 468
f 488 468 467
f 9 8 33
f 9 33 34
f 262 231 230
f 261 262 230
f 638 645 778
f 751 778 645
f 489 490 469
f 489 469 468
f 35 9 34
f 10 9 35
f 768 779 593
f 262 263 232
f 262 232 231
f 753 593 626
f 768 593 753
f 490 491 470
f 490 470 469
f 11 10 35
f 11 35 36
f 263 264 233
f 263 233 232
f 495 496 472
f 495 472 471
f 12 11 36
f 12 36 37
f 639 780 785
f 593 780 639
f 779 780 593
f 264 265 234
f 264 234 233
f 758 799 588
f 13 12 37
f 13 37 38
f 496 497 481
f 473 472 481
f 496 481 472
f 265 266 235
f 265 235 234
f 588 802 637
f 802 803 637
f 799 802 588
f 14 13 38
f 14 38 39
f 238 237 255
f 254 255 237
f 474 473 481
f 474 481 482
f 637 806 807
f 803 806 637
f 14 39 40
f 15 14 40
f 242 241 267
f 242 267 268
f 475 474 485
f 485 474 482
f 485 482 484
f 500 475 485
f 16 15 40
f 16 40 41
f 588 636 757
f 813 757 636
f 812 813 636
f 242 268 269
f 243 242 269
f 501 476 475
f 500 501 475
f 611 767 692
f 692 767 817
f 17 16 41
f 17 41 42
f 244 243 269
f 244 269 270
f 636 694 819
f 812 636 819
f 501 502 477
f 501 477 476
f 18 17 42
f 18 42 43
f 244 270 271
f 245 244 271
f 503 478 477
f 502 503 477
f 825 819 694
f 826 825 694
f 19 18 43
f 19 43 44
f 246 245 271
f 246 271 272
f 828 826 694
f 503 504 479
f 503 479 478
f 694 692 828
f 817 828 692
f 45 19 44
f 20 19 45
f 247 246 272
f 247 272 273
f 504 505 480
f 504 480 479
f 21 20 45
f 21 45 46
f 248 247 273
f 248 273 274
f 745 738 471
f 495 471 738
f 494 495 738
f 22 21 46
f 22 46 47
f 249 248 274
f 249 274 275
f 725 718 712
f 742 712 718
f 711 712 742
f 844 725 712
f 843 844 712
f 845 843 712
f 846 845 712
f 497 498 483
f 497 483 481
f 250 249 275
f 250 275 276
f 23 22 47
f 23 47 48
f 742 760 711
f 486 484 483
f 482 483 484
f 250 276 277
f 251 250 277
f 24 23 48
f 24 48 49
f 801 829 700
f 704 700 829
f 809 801 700
f 811 809 700
f 25 24 49
f 25 49 50
f 252 251 277
f 252 277 278
f 763 764 494
f 738 763 494
f 759 494 764
f 493 494 759
f 253 252 278
f 253 278 279
f 26 51 52
f 27 26 52
f 499 487 486
f 498 486 483
f 499 486 498
f 821 839 704
f 823 821 704
f 824 823 704
f 827 824 704
f 829 827 704
f 280 253 279
f 254 253 280
f 28 27 52
f 28 52 53
f 485 484 486
f 485 486 487
f 499 485 487
f 500 485 499
f 630 619 852
f 851 630 852
f 256 255 281
f 256 281 282
f 29 28 53
f 29 53 54
f 832 847 616
f 258 257 283
f 258 283 284
f 30 29 54
f 30 54 55
f 724 832 698
f 616 698 832
f 31 30 55
f 31 55 56
f 32 31 56
f 32 56 57
f 747 258 285
f 747 285 739
f 259 258 747
f 259 747 746
f 750 259 746
f 780 491 492
f 779 491 780
f 768 491 779
f 753 491 768
f 749 491 753
f 741 491 749
f 470 491 741
f 470 741 740
f 735 470 740
f 734 470 735
f 861 846 704
f 712 704 846
f 848 861 704
f 850 848 704
f 835 850 704
f 836 835 704
f 839 836 704
f 33 32 57
f 33 57 58
f 489 488 506
f 489 506 507
f 852 619 853
f 857 853 619
f 59 33 58
f 34 33 59
f 490 489 507
f 490 507 508
f 616 841 842
f 847 841 616
f 35 34 59
f 35 59 60
f 766 261 736
f 769 286 261
f 769 261 766
f 770 286 769
f 771 286 770
f 491 490 508
f 491 508 509
f 35 60 61
f 36 35 61
f 842 838 619
f 857 619 838
f 842 619 616
f 263 262 287
f 263 287 288
f 37 36 61
f 37 61 62
f 625 734 735
f 865 734 625
f 265 264 289
f 265 289 290
f 37 62 63
f 38 37 63
f 735 595 625
f 740 595 735
f 744 492 510
f 778 751 510
f 744 510 743
f 786 492 744
f 751 743 510
f 777 778 510
f 39 38 63
f 39 63 64
f 268 267 292
f 268 292 293
f 787 512 493
f 511 512 787
f 511 787 810
f 854 864 630
f 625 630 863
f 864 863 630
f 851 854 630
f 40 39 64
f 40 64 65
f 269 268 293
f 269 293 294
f 494 513 514
f 495 494 514
f 744 639 786
f 785 786 639
f 40 65 66
f 41 40 66
f 269 294 295
f 270 269 295
f 496 495 514
f 496 514 515
f 42 41 66
f 42 66 67
f 271 270 295
f 271 295 296
f 516 496 515
f 497 496 516
f 760 756 711
f 774 711 756
f 800 711 774
f 797 711 800
f 796 711 797
f 612 711 796
f 272 271 296
f 272 296 297
f 43 42 67
f 43 67 68
f 499 498 517
f 518 499 517
f 272 297 298
f 273 272 298
f 818 830 695
f 695 830 831
f 44 43 68
f 44 68 69
f 520 501 519
f 502 501 520
f 695 589 818
f 773 818 589
f 274 273 298
f 274 298 299
f 45 44 69
f 45 69 70
f 503 502 520
f 503 520 521
f 697 696 717
f 837 717 696
f 300 274 299
f 275 274 300
f 47 46 71
f 47 71 72
f 504 503 521
f 504 521 522
f 276 275 300
f 276 300 301
f 788 789 612
f 737 612 789
f 790 788 612
f 792 790 612
f 49 48 73
f 49 73 74
f 505 504 522
f 505 522 523
f 831 834 695
f 277 276 301
f 277 301 302
f 50 49 74
f 50 74 75
f 528 529 507
f 528 507 506
f 798 792 612
f 278 277 302
f 278 302 303
f 52 51 76
f 52 76 77
f 696 695 834
f 837 696 834
f 529 530 508
f 529 508 507
f 279 278 303
f 279 303 304
f 53 52 77
f 53 77 78
f 530 531 509
f 530 509 508
f 781 775 710
f 710 775 811
f 700 710 811
f 280 279 304
f 280 304 305
f 54 53 78
f 54 78 79
f 531 532 510
f 531 510 509
f 281 280 305
f 281 305 306
f 55 54 79
f 55 79 80
f 282 281 306
f 282 306 307
f 739 784 710
f 782 710 784
f 781 710 782
f 747 739 710
f 56 55 80
f 56 80 81
f 722 720 708
f 709 708 720
f 282 307 308
f 283 282 308
f 57 56 81
f 57 81 82
f 730 722 708
f 533 772 776
f 533 818 773
f 777 510 776
f 533 534 818
f 534 830 818
f 533 773 772
f 532 533 776
f 532 776 510
f 287 286 309
f 287 309 310
f 58 57 82
f 58 82 83
f 587 674 770
f 769 587 770
f 540 541 512
f 540 512 511
f 311 287 310
f 288 287 311
f 769 766 587
f 59 58 83
f 59 83 84
f 541 542 524
f 541 524 512
f 731 730 587
f 708 587 730
f 289 288 311
f 289 311 312
f 60 59 84
f 60 84 85
f 513 524 525
f 526 525 524
f 313 289 312
f 290 289 313
f 515 514 525
f 515 525 527
f 61 60 85
f 61 85 86
f 736 731 587
f 766 736 587
f 290 313 314
f 291 290 314
f 61 86 87
f 62 61 87
f 615 709 720
f 719 615 720
f 527 545 516
f 527 516 515
f 544 545 527
f 293 316 317
f 294 293 317
f 63 62 87
f 63 87 88
f 546 517 516
f 545 546 516
f 721 755 615
f 754 615 755
f 719 721 615
f 295 294 317
f 295 317 318
f 64 63 88
f 64 88 89
f 546 547 518
f 546 518 517
f 746 747 615
f 710 615 747
f 296 295 318
f 296 318 319
f 66 65 90
f 66 90 91
f 547 548 519
f 547 519 518
f 750 746 615
f 754 750 615
f 296 319 320
f 297 296 320
f 68 67 92
f 68 92 93
f 548 549 520
f 548 520 519
f 298 297 320
f 298 320 321
f 68 93 94
f 69 68 94
f 804 783 673
f 804 673 684
f 765 673 783
f 748 673 765
f 752 673 748
f 549 550 521
f 549 521 520
f 298 321 322
f 299 298 322
f 70 69 94
f 70 94 95
f 668 673 752
f 728 668 752
f 550 551 522
f 550 522 521
f 300 299 322
f 300 322 323
f 70 95 96
f 71 70 96
f 551 552 523
f 551 523 522
f 862 866 668
f 729 862 668
f 728 729 668
f 301 300 323
f 301 323 324
f 72 71 96
f 72 96 97
f 511 803 802
f 806 803 511
f 540 511 802
f 539 540 802
f 302 301 324
f 302 324 325
f 770 674 771
f 793 771 674
f 73 72 97
f 73 97 98
f 674 676 793
f 794 793 676
f 542 543 526
f 542 526 524
f 303 302 325
f 303 325 326
f 74 73 98
f 74 98 99
f 794 676 795
f 820 795 676
f 608 820 676
f 303 326 327
f 304 303 327
f 75 74 99
f 75 99 100
f 814 820 608
f 305 304 327
f 305 327 328
f 77 76 101
f 77 101 102
f 717 837 535
f 534 535 834
f 534 834 831
f 837 834 535
f 536 715 717
f 536 717 535
f 534 831 830
f 714 727 682
f 713 714 682
f 311 310 332
f 311 332 333
f 78 77 102
f 78 102 103
f 313 312 334
f 313 334 335
f 79 78 103
f 79 103 104
f 745 713 682
f 738 745 682
f 763 738 682
f 599 763 682
f 314 313 335
f 314 335 336
f 80 79 104
f 80 104 105
f 536 537 762
f 536 762 761
f 536 761 716
f 537 767 762
f 817 767 537
f 828 537 826
f 817 537 828
f 825 826 537
f 536 716 715
f 340 341 337
f 340 337 315
f 81 80 105
f 81 105 106
f 849 822 684
f 860 849 684
f 859 860 684
f 682 859 684
f 318 317 338
f 318 338 339
f 82 81 106
f 82 106 107
f 682 858 859
f 726 858 682
f 727 726 682
f 825 538 819
f 812 819 538
f 813 812 538
f 537 538 825
f 319 318 339
f 319 339 344
f 83 82 107
f 83 107 108
f 804 684 805
f 822 805 684
f 344 345 320
f 344 320 319
f 84 83 108
f 84 108 109
f 345 346 321
f 345 321 320
f 757 813 539
f 758 757 539
f 799 758 539
f 802 799 539
f 538 539 813
f 855 678 856
f 866 856 678
f 668 866 678
f 85 84 109
f 85 109 110
f 346 347 322
f 346 322 321
f 543 544 527
f 543 527 526
f 840 833 678
f 855 840 678
f 85 110 111
f 86 85 111
f 347 348 323
f 347 323 322
f 608 678 816
f 814 608 816
f 529 528 553
f 529 553 554
f 87 86 111
f 87 111 112
f 324 323 349
f 324 349 350
f 348 349 323
f 678 815 816
f 833 815 678
f 531 530 555
f 531 555 556
f 88 87 112
f 88 112 113
f 325 324 351
f 350 351 324
f 533 532 557
f 533 557 558
f 89 88 113
f 89 113 114
f 351 352 326
f 351 326 325
f 787 791 637
f 810 787 637
f 808 810 637
f 807 808 637
f 534 533 559
f 534 559 560
f 89 114 115
f 90 89 115
f 352 353 327
f 352 327 326
f 599 637 791
f 759 599 791
f 764 599 759
f 537 536 562
f 537 562 563
f 91 90 115
f 91 115 116
f 836 328 327
f 836 327 835
f 353 835 327
f 538 564 565
f 539 538 565
f 92 91 116
f 92 116 117
f 354 355 332
f 354 332 331
f 540 539 565
f 540 565 566
f 118 92 117
f 93 92 118
f 355 356 333
f 355 333 332
f 94 93 118
f 94 118 119
f 541 540 566
f 541 566 567
f 356 357 334
f 356 334 333
f 120 94 119
f 95 94 120
f 542 541 567
f 542 567 568
f 357 358 335
f 357 335 334
f 96 95 120
f 96 120 121
f 542 568 569
f 543 542 569
f 358 359 336
f 358 336 335
f 97 96 121
f 97 121 122
f 544 543 569
f 544 569 570
f 338 342 343
f 339 338 343
f 98 97 122
f 98 122 123
f 571 544 570
f 545 544 571
f 99 98 123
f 99 123 124
f 546 545 571
f 546 571 572
f 833 840 354
f 331 833 354
f 815 833 331
f 100 99 124
f 100 124 125
f 340 360 361
f 341 340 361
f 547 546 572
f 547 572 573
f 102 101 126
f 102 126 127
f 343 342 362
f 343 362 363
f 548 547 573
f 548 573 574
f 103 102 127
f 103 127 128
f 549 548 574
f 549 574 575
f 345 344 364
f 345 364 365
f 104 103 128
f 104 128 129
f 345 365 366
f 346 345 366
f 550 549 575
f 550 575 576
f 105 104 129
f 105 129 130
f 347 346 366
f 347 366 367
f 551 550 576
f 551 576 577
f 106 105 130
f 106 130 131
f 348 347 367
f 348 367 368
f 552 551 577
f 552 577 578
f 107 106 131
f 107 131 132
f 349 348 368
f 349 368 369
f 108 107 132
f 108 132 133
f 350 349 370
f 350 370 371
f 109 108 133
f 109 133 134
f 351 350 371
f 351 371 372
f 135 109 134
f 110 109 135
f 352 351 372
f 352 372 373
f 111 110 135
f 111 135 136
f 112 111 136
f 112 136 137
f 840 374 354
f 855 374 840
f 856 374 855
f 113 112 137
f 113 137 162
f 356 355 375
f 356 375 376
f 162 187 138
f 114 113 138
f 162 138 113
f 186 187 162
f 358 357 377
f 358 377 378
f 115 114 138
f 115 138 139
f 26 1 579
f 51 26 579
f 76 51 579
f 101 76 579
f 126 101 579
f 150 126 579
f 174 150 579
f 210 174 579
f 241 210 579
f 267 241 579
f 292 267 579
f 315 292 579
f 340 315 579
f 581 360 340
f 581 380 360
f 581 398 380
f 581 414 398
f 581 430 414
f 581 454 430
f 581 467 454
f 581 488 467
f 581 506 488
f 581 528 506
f 581 340 579
f 553 528 581
f 359 358 378
f 359 378 379
f 115 139 140
f 116 115 140
f 361 360 380
f 361 380 381
f 117 116 140
f 117 140 141
f 361 381 382
f 362 361 382
f 142 117 141
f 118 117 142
f 167 143 142
f 118 142 143
f 363 362 382
f 363 382 383
f 119 118 143
f 119 143 144
f 364 363 383
f 364 383 384
f 120 119 144
f 120 144 145
f 364 384 385
f 365 364 385
f 121 120 145
f 121 145 146
f 366 365 385
f 366 385 386
f 122 121 146
f 122 146 147
f 367 366 386
f 367 386 387
f 123 122 147
f 123 147 172
f 368 367 387
f 368 387 388
f 554 553 581
f 555 554 581
f 556 555 581
f 557 556 581
f 558 557 581
f 559 558 581
f 560 559 581
f 561 560 581
f 562 561 581
f 563 562 581
f 564 563 581
f 565 564 581
f 566 565 581
f 567 566 581
f 568 567 581
f 569 568 581
f 570 569 581
f 571 570 581
f 582 572 571
f 582 573 572
f 582 574 573
f 582 575 574
f 582 576 575
f 582 577 576
f 582 571 581
f 578 577 582
f 369 368 388
f 389 369 388
f 172 197 148
f 124 123 148
f 172 148 123
f 196 197 172
f 371 370 389
f 371 389 390
f 125 124 148
f 125 148 149
f 127 126 150
f 127 150 151
f 856 392 374
f 866 392 856
f 862 392 866
f 128 127 151
f 128 151 152
f 375 374 392
f 375 392 393
f 129 128 152
f 129 152 153
f 376 375 393
f 376 393 394
f 130 129 153
f 130 153 154
f 376 394 395
f 377 376 395
f 131 130 154
f 131 154 155
f 378 377 395
f 378 395 396
f 131 155 156
f 132 131 156
f 378 396 397
f 379 378 397
f 133 132 156
f 133 156 157
f 381 380 398
f 381 398 399
f 158 133 157
f 134 133 158
f 382 381 399
f 382 399 400
f 135 134 158
f 135 158 159
f 552 578 582
f 523 552 582
f 505 523 582
f 480 505 582
f 466 480 582
f 453 466 582
f 444 453 582
f 443 444 582
f 429 443 582
f 413 429 582
f 397 413 582
f 379 397 582
f 359 379 582
f 336 359 582
f 580 314 336
f 580 291 314
f 580 266 291
f 580 235 266
f 580 209 235
f 580 198 209
f 580 173 198
f 580 149 173
f 580 125 149
f 580 100 125
f 580 75 100
f 580 50 75
f 580 336 582
f 25 50 580
f 382 400 401
f 383 382 401
f 187 188 163
f 187 163 138
f 384 383 401
f 384 401 402
f 140 139 163
f 140 163 164
f 385 384 402
f 385 402 403
f 140 164 165
f 141 140 165
f 385 403 404
f 386 385 404
f 166 141 165
f 142 141 166
f 387 386 404
f 387 404 405
f 142 166 167
f 191 167 166
f 143 167 168
f 192 168 167
f 388 387 405
f 388 405 406
f 145 144 168
f 145 168 169
f 389 388 406
f 407 389 406
f 390 389 407
f 146 145 169
f 146 169 170
f 408 862 729
f 392 862 408
f 147 146 170
f 147 170 171
f 394 393 409
f 394 409 410
f 197 198 173
f 197 173 148
f 24 25 580
f 23 24 580
f 22 23 580
f 21 22 580
f 20 21 580
f 19 20 580
f 18 19 580
f 579 17 18
f 579 16 17
f 579 15 16
f 579 14 15
f 579 13 14
f 579 12 13
f 579 11 12
f 579 10 11
f 579 9 10
f 579 8 9
f 579 7 8
f 579 6 7
f 579 5 6
f 579 4 5
f 579 3 4
f 579 2 3
f 579 18 580
f 1 2 579
f 395 394 410
f 395 410 411
f 151 150 174
f 151 174 175
f 412 395 411
f 396 395 412
f 152 151 175
f 152 175 176
f 397 396 412
f 397 412 413
f 713 471 714
f 745 471 713
f 153 152 176
f 153 176 177
f 414 415 399
f 414 399 398
f 154 153 177
f 154 177 178
f 471 472 714
f 727 714 472
f 727 472 458
f 726 727 458
f 155 154 178
f 155 178 179
f 415 416 400
f 415 400 399
f 725 407 718
f 156 155 179
f 156 179 180
f 416 417 401
f 416 401 400
f 754 259 750
f 260 259 754
f 755 260 754
f 156 180 181
f 157 156 181
f 418 402 401
f 417 418 401
f 158 157 181
f 158 181 182
f 418 419 403
f 418 403 402
f 791 493 759
f 787 493 791
f 183 158 182
f 159 158 183
f 419 420 404
f 419 404 403
f 721 260 755
f 161 185 186
f 162 161 186
f 420 421 405
f 420 405 404
f 783 422 765
f 164 163 188
f 164 188 189
f 756 406 405
f 421 774 756
f 421 756 405
f 165 164 189
f 165 189 190
f 283 308 775
f 284 283 775
f 781 284 775
f 782 284 781
f 166 165 190
f 191 166 190
f 285 284 782
f 784 285 782
f 718 407 406
f 742 718 406
f 760 742 406
f 756 760 406
f 169 168 192
f 169 192 193
f 170 169 193
f 170 193 194
f 785 492 786
f 780 492 785
f 408 729 728
f 424 408 728
f 424 728 752
f 423 424 752
f 748 423 752
f 171 170 194
f 171 194 195
f 419 435 789
f 788 419 789
f 424 425 409
f 424 409 408
f 172 171 195
f 172 195 196
f 739 285 784
f 210 211 175
f 210 175 174
f 425 426 410
f 425 410 409
f 420 419 788
f 790 420 788
f 176 175 212
f 211 212 175
f 427 411 410
f 426 427 410
f 212 213 177
f 212 177 176
f 427 428 412
f 427 412 411
f 420 790 792
f 798 420 792
f 796 420 798
f 421 420 796
f 797 421 796
f 213 214 178
f 213 178 177
f 429 413 412
f 428 429 412
f 214 215 179
f 214 179 178
f 765 422 423
f 748 765 423
f 286 793 309
f 794 309 793
f 795 309 794
f 771 793 286
f 180 179 216
f 215 216 179
f 415 414 430
f 415 430 431
f 216 217 181
f 216 181 180
f 307 330 801
f 809 308 307
f 809 307 801
f 182 181 218
f 217 218 181
f 416 432 433
f 417 416 433
f 436 804 805
f 783 804 436
f 783 436 422
f 218 219 183
f 218 183 182
f 419 418 434
f 419 434 435
f 807 511 808
f 806 511 807
f 219 220 184
f 219 184 183
f 422 436 437
f 423 422 437
f 220 221 199
f 185 184 199
f 220 199 184
f 424 423 437
f 424 437 438
f 811 308 809
f 775 308 811
f 187 186 200
f 187 200 201
f 424 438 439
f 425 424 439
f 189 188 202
f 189 202 226
f 225 226 202
f 440 425 439
f 426 425 440
f 724 723 434
f 832 724 434
f 847 832 434
f 841 847 434
f 732 434 723
f 435 434 732
f 226 227 190
f 226 190 189
f 427 426 440
f 427 440 441
f 227 228 203
f 191 190 203
f 227 203 190
f 442 427 441
f 428 427 442
f 193 192 204
f 193 204 205
f 455 431 430
f 454 455 430
f 309 814 331
f 816 331 814
f 815 331 816
f 820 814 309
f 795 820 309
f 193 205 206
f 231 206 205
f 455 456 432
f 455 432 431
f 435 732 733
f 737 435 733
f 789 435 737
f 195 194 206
f 195 206 207
f 445 433 432
f 456 457 445
f 456 445 432
f 196 195 207
f 196 207 233
f 821 329 328
f 821 328 839
f 836 839 328
f 233 234 208
f 197 196 208
f 233 208 196
f 841 434 433
f 445 842 841
f 445 841 433
f 838 842 445
f 330 329 823
f 824 330 823
f 201 200 223
f 201 223 224
f 205 204 229
f 205 229 230
f 330 827 829
f 801 330 829
f 822 446 436
f 822 436 805
f 822 849 446
f 207 206 231
f 207 231 232
f 446 447 437
f 446 437 436
f 352 373 848
f 353 352 848
f 850 353 848
f 242 211 210
f 241 242 210
f 448 438 437
f 447 448 437
f 835 353 850
f 242 243 212
f 242 212 211
f 448 449 439
f 448 439 438
f 243 244 213
f 243 213 212
f 445 457 852
f 851 852 457
f 853 445 852
f 854 851 457
f 449 450 440
f 449 440 439
f 244 245 214
f 244 214 213
f 450 451 441
f 450 441 440
f 445 853 857
f 838 445 857
f 246 215 214
f 245 246 214
f 451 452 442
f 451 442 441
f 372 391 846
f 845 846 391
f 861 373 372
f 861 372 846
f 246 247 216
f 246 216 215
f 452 453 444
f 452 444 442
f 248 217 216
f 247 248 216
f 859 458 860
f 858 458 859
f 459 849 458
f 458 849 860
f 446 849 459
f 248 249 218
f 248 218 217
f 848 373 861
f 249 250 219
f 249 219 218
f 447 446 459
f 447 459 460
f 250 251 239
f 220 219 239
f 250 239 219
f 461 447 460
f 448 447 461
f 457 470 863
f 865 863 470
f 864 457 863
f 734 865 470
f 239 240 221
f 239 221 220
f 449 448 461
f 449 461 462
f 390 407 725
f 844 390 725
f 240 222 221
f 253 222 240
f 450 449 462
f 450 462 463
f 391 390 844
f 843 391 844
f 845 391 843
f 450 463 464
f 451 450 464
f 452 451 464
f 452 464 465
f 453 452 465
f 453 465 466
