v -2 -2 -0.099999999999999978
v -2 -1.8999999999999999 -0.10999999999999999
v -2 -1.8 -0.11999999999999997
v -2 -1.7 -0.12999999999999998
v -2 -1.6000000000000001 -0.13999999999999996
v -2 -1.5 -0.14999999999999997
v -2 -1.3999999999999999 -0.16
v -2 -1.2999999999999998 -0.17000000000000001
v -2 -1.1000000000000001 -0.18999999999999997
v -2 -0.79999999999999982 -0.22
v -2 -0.69999999999999996 -0.22999999999999998
v -2 -0.59999999999999987 -0.23999999999999999
v -2 -0.5 -0.25
v -2 -0.29999999999999982 -0.27000000000000002
v -2 -0.19999999999999996 -0.27999999999999997
v -2 -0.099999999999999867 -0.28999999999999998
v -2 0 -0.29999999999999999
v -2 0.40000000000000036 -0.34000000000000002
v -2 0.5 -0.34999999999999998
v -2 0.90000000000000036 -0.39000000000000001
v -2 1 -0.40000000000000002
v -2 1.4000000000000004 -0.44000000000000006
v -2 1.5 -0.45000000000000001
v -2 1.9000000000000004 -0.49000000000000005
v -2 2 -0.5
v -1.8999999999999999 -2 -0.084999999999999964
v -1.8999999999999999 -1.8999999999999999 -0.094999999999999973
v -1.8999999999999999 -1.8 -0.10499999999999995
v -1.8999999999999999 -1.7 -0.11499999999999996
v -1.8999999999999999 -1.6000000000000001 -0.12499999999999994
v -1.8999999999999999 -1.5 -0.13499999999999995
v -1.8999999999999999 -1.3999999999999999 -0.14499999999999999
v -1.8999999999999999 -1.2999999999999998 -0.155
v -1.8999999999999999 -1.1000000000000001 -0.17499999999999996
v -1.8999999999999999 -0.79999999999999982 -0.20499999999999999
v -1.8999999999999999 -0.69999999999999996 -0.21499999999999997
v -1.8999999999999999 -0.59999999999999987 -0.22499999999999998
v -1.8999999999999999 -0.5 -0.23499999999999999
v -1.8999999999999999 -0.29999999999999982 -0.255
v -1.8999999999999999 -0.19999999999999996 -0.26499999999999996
v -1.8999999999999999 -0.099999999999999867 -0.27499999999999997
v -1.8999999999999999 0 -0.28499999999999998
v -1.8999999999999999 0.40000000000000036 -0.32500000000000001
v -1.8999999999999999 0.5 -0.33499999999999996
v -1.8999999999999999 0.90000000000000036 -0.375
v -1.8999999999999999 1 -0.38500000000000001
v -1.8999999999999999 1.4000000000000004 -0.42500000000000004
v -1.8999999999999999 1.5 -0.435
v -1.8999999999999999 1.9000000000000004 -0.47500000000000003
v -1.8999999999999999 2 -0.48499999999999999
v -1.8 -2 -0.070000000000000007
v -1.8 -1.8999999999999999 -0.080000000000000016
v -1.8 -1.8 -0.089999999999999997
v -1.8 -1.7 -0.10000000000000001
v -1.8 -1.6000000000000001 -0.10999999999999999
v -1.8 -1.5 -0.12
v -1.8 -1.3999999999999999 -0.13000000000000003
v -1.8 -1.2999999999999998 -0.14000000000000004
v -1.8 -1.1000000000000001 -0.16
v -1.8 -0.79999999999999982 -0.19000000000000003
v -1.8 -0.69999999999999996 -0.20000000000000001
v -1.8 -0.59999999999999987 -0.21000000000000002
v -1.8 -0.5 -0.22000000000000003
v -1.8 -0.29999999999999982 -0.24000000000000005
v -1.8 -0.19999999999999996 -0.25
v -1.8 -0.099999999999999867 -0.26000000000000001
v -1.8 0 -0.27000000000000002
v -1.8 0.40000000000000036 -0.31000000000000005
v -1.8 0.5 -0.32000000000000001
v -1.8 0.90000000000000036 -0.36000000000000004
v -1.8 1 -0.37
v -1.8 1.4000000000000004 -0.41000000000000003
v -1.8 1.5 -0.42000000000000004
v -1.8 1.9000000000000004 -0.46000000000000008
v -1.8 2 -0.47000000000000003
v -1.7 -2 -0.054999999999999993
v -1.7 -1.8999999999999999 -0.065000000000000002
v -1.7 -1.8 -0.074999999999999983
v -1.7 -1.7 -0.084999999999999992
v -1.7 -1.6000000000000001 -0.094999999999999973
v -1.7 -1.5 -0.10499999999999998
v -1.7 -1.3999999999999999 -0.11500000000000002
v -1.7 -1.2999999999999998 -0.12500000000000003
v -1.7 -1.1000000000000001 -0.14499999999999999
v -1.7 -0.79999999999999982 -0.17500000000000002
v -1.7 -0.69999999999999996 -0.185
v -1.7 -0.59999999999999987 -0.19500000000000001
v -1.7 -0.5 -0.20500000000000002
v -1.7 -0.29999999999999982 -0.22500000000000003
v -1.7 -0.19999999999999996 -0.23500000000000001
v -1.7 -0.099999999999999867 -0.24500000000000002
v -1.7 0 -0.255
v -1.7 0.40000000000000036 -0.29500000000000004
v -1.7 0.5 -0.30499999999999999
v -1.7 0.90000000000000036 -0.34500000000000003
v -1.7 1 -0.35499999999999998
v -1.7 1.4000000000000004 -0.39500000000000002
v -1.7 1.5 -0.40500000000000003
v -1.7 1.9000000000000004 -0.44500000000000006
v -1.7 2 -0.45500000000000002
v -1.6000000000000001 -2 -0.03999999999999998
v -1.6000000000000001 -1.8999999999999999 -0.049999999999999989
v -1.6000000000000001 -1.8 -0.05999999999999997
v -1.6000000000000001 -1.7 -0.069999999999999979
v -1.6000000000000001 -1.6000000000000001 -0.07999999999999996
v -1.6000000000000001 -1.5 -0.089999999999999969
v -1.6000000000000001 -1.3999999999999999 -0.10000000000000001
v -1.6000000000000001 -1.2999999999999998 -0.11000000000000001
v -1.6000000000000001 -1.1000000000000001 -0.12999999999999998
v -1.6000000000000001 -0.79999999999999982 -0.16
v -1.6000000000000001 -0.69999999999999996 -0.16999999999999998
v -1.6000000000000001 -0.59999999999999987 -0.17999999999999999
v -1.6000000000000001 -0.5 -0.19
v -1.6000000000000001 -0.29999999999999982 -0.21000000000000002
v -1.6000000000000001 -0.19999999999999996 -0.22
v -1.6000000000000001 -0.099999999999999867 -0.23000000000000001
v -1.6000000000000001 0 -0.23999999999999999
v -1.6000000000000001 0.40000000000000036 -0.28000000000000003
v -1.6000000000000001 0.5 -0.28999999999999998
v -1.6000000000000001 0.90000000000000036 -0.33000000000000002
v -1.6000000000000001 1 -0.33999999999999997
v -1.6000000000000001 1.4000000000000004 -0.38
v -1.6000000000000001 1.5 -0.39000000000000001
v -1.6000000000000001 1.9000000000000004 -0.43000000000000005
v -1.6000000000000001 2 -0.44
v -1.5 -2 -0.024999999999999967
v -1.5 -1.8999999999999999 -0.034999999999999976
v -1.5 -1.8 -0.044999999999999957
v -1.5 -1.7 -0.054999999999999966
v -1.5 -1.6000000000000001 -0.064999999999999947
v -1.5 -1.5 -0.074999999999999956
v -1.5 -1.3999999999999999 -0.084999999999999992
v -1.5 -1.2999999999999998 -0.095000000000000001
v -1.5 -1.1000000000000001 -0.11499999999999996
v -1.5 -0.79999999999999982 -0.14499999999999999
v -1.5 -0.69999999999999996 -0.15499999999999997
v -1.5 -0.59999999999999987 -0.16499999999999998
v -1.5 -0.29999999999999982 -0.19500000000000001
v -1.5 -0.19999999999999996 -0.20499999999999999
v -1.5 -0.099999999999999867 -0.215
v -1.5 0 -0.22499999999999998
v -1.5 0.30000000000000027 -0.255
v -1.5 0.40000000000000036 -0.26500000000000001
v -1.5 0.5 -0.27499999999999997
v -1.5 0.90000000000000036 -0.315
v -1.5 1 -0.32499999999999996
v -1.5 1.4000000000000004 -0.36499999999999999
v -1.5 1.9000000000000004 -0.41500000000000004
v -1.5 2 -0.42499999999999999
v -1.3999999999999999 -2 -0.0099999999999999811
v -1.3999999999999999 -1.8999999999999999 -0.01999999999999999
v -1.3999999999999999 -1.8 -0.029999999999999971
v -1.3999999999999999 -1.7 -0.03999999999999998
v -1.3999999999999999 -1.6000000000000001 -0.049999999999999961
v -1.3999999999999999 -1.5 -0.05999999999999997
v -1.3999999999999999 -1.3999999999999999 -0.070000000000000007
v -1.3999999999999999 -1.2999999999999998 -0.080000000000000016
v -1.3999999999999999 -0.79999999999999982 -0.13
v -1.3999999999999999 -0.69999999999999996 -0.14000000000000001
v -1.3999999999999999 -0.59999999999999987 -0.14999999999999999
v -1.3999999999999999 -0.5 -0.15999999999999998
v -1.3999999999999999 -0.19999999999999996 -0.19
v -1.3999999999999999 -0.099999999999999867 -0.20000000000000001
v -1.3999999999999999 0 -0.20999999999999999
v -1.3999999999999999 0.30000000000000027 -0.24000000000000002
v -1.3999999999999999 0.40000000000000036 -0.25
v -1.3999999999999999 0.5 -0.26000000000000001
v -1.3999999999999999 0.90000000000000036 -0.30000000000000004
v -1.3999999999999999 1 -0.31
v -1.3999999999999999 1.4000000000000004 -0.35000000000000003
v -1.3999999999999999 1.5 -0.35999999999999999
v -1.3999999999999999 2 -0.41000000000000003
v -1.2999999999999998 -2 0.0050000000000000322
v -1.2999999999999998 -1.8999999999999999 -0.0049999999999999767
v -1.2999999999999998 -1.8 -0.014999999999999958
v -1.2999999999999998 -1.7 -0.024999999999999967
v -1.2999999999999998 -1.6000000000000001 -0.034999999999999948
v -1.2999999999999998 -1.5 -0.044999999999999957
v -1.2999999999999998 -1.3999999999999999 -0.054999999999999993
v -1.2999999999999998 -0.69999999999999996 -0.12499999999999999
v -1.2999999999999998 -0.59999999999999987 -0.13499999999999998
v -1.2999999999999998 -0.5 -0.14499999999999996
v -1.2999999999999998 -0.29999999999999982 -0.16499999999999998
v -1.2999999999999998 -0.19999999999999996 -0.17499999999999999
v -1.2999999999999998 -0.099999999999999867 -0.185
v -1.2999999999999998 0 -0.19499999999999998
v -1.2999999999999998 0.40000000000000036 -0.23500000000000001
v -1.2999999999999998 0.5 -0.245
v -1.2999999999999998 0.90000000000000036 -0.28500000000000003
v -1.2999999999999998 1 -0.29499999999999998
v -1.2999999999999998 1.4000000000000004 -0.33500000000000002
v -1.2999999999999998 1.5 -0.34499999999999997
v -1.2999999999999998 1.9000000000000004 -0.38500000000000001
v -1.2999999999999998 2 -0.39500000000000002
v -1.2 -0.59999999999999987 -0.12
v -1.2 -0.5 -0.13
v -1.2 -0.29999999999999982 -0.15000000000000002
v -1.2 -0.19999999999999996 -0.16
v -1.2 0.40000000000000036 -0.22000000000000003
v -1.2 0.5 -0.22999999999999998
v -1.2 0.90000000000000036 -0.27000000000000002
v -1.2 1 -0.28000000000000003
v -1.2 1.4000000000000004 -0.32000000000000006
v -1.2 1.9000000000000004 -0.37000000000000005
v -1.2 2 -0.38
v -1.1000000000000001 -2 0.035000000000000003
v -1.1000000000000001 -1.8999999999999999 0.024999999999999994
v -1.1000000000000001 -1.8 0.015000000000000013
v -1.1000000000000001 -1.7 0.0050000000000000044
v -1.1000000000000001 -1.6000000000000001 -0.0049999999999999767
v -1.1000000000000001 -0.5 -0.115
v -1.1000000000000001 -0.39999999999999991 -0.125
v -1.1000000000000001 -0.29999999999999982 -0.13500000000000001
v -1.1000000000000001 -0.19999999999999996 -0.14500000000000002
v -1.1000000000000001 -0.099999999999999867 -0.15500000000000003
v -1.1000000000000001 0 -0.16500000000000001
v -1.1000000000000001 0.40000000000000036 -0.20500000000000004
v -1.1000000000000001 0.5 -0.21500000000000002
v -1.1000000000000001 0.90000000000000036 -0.25500000000000006
v -1.1000000000000001 1 -0.26500000000000001
v -1.1000000000000001 1.4000000000000004 -0.30500000000000005
v -1.1000000000000001 1.5 -0.31500000000000006
v -1.1000000000000001 1.9000000000000004 -0.35500000000000009
v -1.1000000000000001 2 -0.36499999999999999
v -1 -0.39999999999999991 -0.11
v -1 -0.29999999999999982 -0.12000000000000001
v -1 -0.19999999999999996 -0.13
v -0.79999999999999982 -2 0.080000000000000043
v -0.79999999999999982 -1.8999999999999999 0.070000000000000034
v -0.79999999999999982 -1.8 0.060000000000000053
v -0.79999999999999982 -1.7 0.050000000000000044
v -0.79999999999999982 -1.6000000000000001 0.040000000000000063
v -0.79999999999999982 -0.19999999999999996 -0.099999999999999978
v -0.79999999999999982 -0.099999999999999867 -0.10999999999999999
v -0.79999999999999982 0 -0.11999999999999997
v -0.79999999999999982 0.10000000000000009 -0.12999999999999998
v -0.79999999999999982 0.40000000000000036 -0.16
v -0.79999999999999982 0.5 -0.16999999999999998
v -0.79999999999999982 0.90000000000000036 -0.21000000000000002
v -0.79999999999999982 1 -0.21999999999999997
v -0.79999999999999982 1.4000000000000004 -0.26000000000000001
v -0.79999999999999982 1.5 -0.27000000000000002
v -0.79999999999999982 1.9000000000000004 -0.31000000000000005
v -0.79999999999999982 2 -0.31999999999999995
v -0.69999999999999996 -2 0.095000000000000015
v -0.69999999999999996 -1.8999999999999999 0.085000000000000006
v -0.69999999999999996 -1.8 0.075000000000000025
v -0.69999999999999996 -1.7 0.065000000000000016
v -0.69999999999999996 -1.6000000000000001 0.055000000000000035
v -0.69999999999999996 -1.5 0.045000000000000026
v -0.69999999999999996 -0.099999999999999867 -0.095000000000000001
v -0.69999999999999996 0 -0.105
v -0.69999999999999996 0.10000000000000009 -0.115
v -0.69999999999999996 0.20000000000000018 -0.125
v -0.69999999999999996 0.90000000000000036 -0.19500000000000003
v -0.69999999999999996 1 -0.20500000000000002
v -0.69999999999999996 1.4000000000000004 -0.24500000000000005
v -0.69999999999999996 1.5 -0.255
v -0.69999999999999996 1.9000000000000004 -0.29500000000000004
v -0.69999999999999996 2 -0.30499999999999999
v -0.59999999999999987 -2 0.11000000000000003
v -0.59999999999999987 -1.8999999999999999 0.10000000000000002
v -0.59999999999999987 -1.8 0.090000000000000038
v -0.59999999999999987 -1.7 0.080000000000000029
v -0.59999999999999987 -1.6000000000000001 0.070000000000000048
v -0.59999999999999987 -1.5 0.060000000000000039
v -0.59999999999999987 0 -0.089999999999999983
v -0.59999999999999987 0.90000000000000036 -0.18000000000000002
v -0.59999999999999987 1 -0.19
v -0.59999999999999987 1.4000000000000004 -0.23000000000000004
v -0.59999999999999987 1.5 -0.23999999999999999
v -0.59999999999999987 1.9000000000000004 -0.28000000000000003
v -0.59999999999999987 2 -0.28999999999999998
v -0.5 -2 0.125
v -0.5 -1.8999999999999999 0.115
v -0.5 -1.8 0.10500000000000002
v -0.5 -1.7 0.095000000000000015
v -0.5 -1.6000000000000001 0.085000000000000034
v -0.5 -1.5 0.075000000000000025
v -0.5 -1.3999999999999999 0.064999999999999988
v -0.5 0.90000000000000036 -0.16500000000000004
v -0.5 1 -0.17499999999999999
v -0.5 1.4000000000000004 -0.21500000000000002
v -0.5 1.5 -0.22500000000000003
v -0.5 1.9000000000000004 -0.26500000000000007
v -0.5 2 -0.27500000000000002
v -0.39999999999999991 -1.8999999999999999 0.13
v -0.39999999999999991 -1.8 0.12000000000000004
v -0.39999999999999991 -1.7 0.11000000000000003
v -0.29999999999999982 -2 0.15500000000000003
v -0.29999999999999982 -1.8999999999999999 0.14500000000000002
v -0.29999999999999982 -1.8 0.13500000000000006
v -0.29999999999999982 -1.7 0.12500000000000006
v -0.29999999999999982 -1.6000000000000001 0.11500000000000006
v -0.29999999999999982 -1.5 0.10500000000000005
v -0.29999999999999982 -1.3999999999999999 0.095000000000000015
v -0.29999999999999982 -1.2999999999999998 0.085000000000000006
v -0.29999999999999982 0.90000000000000036 -0.13500000000000001
v -0.29999999999999982 1 -0.14499999999999996
v -0.29999999999999982 1.4000000000000004 -0.185
v -0.29999999999999982 1.5 -0.19500000000000001
v -0.29999999999999982 1.9000000000000004 -0.23500000000000004
v -0.29999999999999982 2 -0.245
v -0.19999999999999996 -2 0.17000000000000001
v -0.19999999999999996 -1.8999999999999999 0.16
v -0.19999999999999996 -1.8 0.15000000000000002
v -0.19999999999999996 -1.7 0.14000000000000001
v -0.19999999999999996 -1.6000000000000001 0.13000000000000003
v -0.19999999999999996 -1.5 0.12000000000000002
v -0.19999999999999996 -1.3999999999999999 0.10999999999999999
v -0.19999999999999996 -1.2999999999999998 0.099999999999999978
v -0.19999999999999996 -1.1000000000000001 0.080000000000000016
v -0.19999999999999996 0.90000000000000036 -0.12000000000000002
v -0.19999999999999996 1 -0.13
v -0.19999999999999996 1.4000000000000004 -0.17000000000000004
v -0.19999999999999996 1.5 -0.18000000000000002
v -0.19999999999999996 1.9000000000000004 -0.22000000000000006
v -0.19999999999999996 2 -0.23000000000000001
v -0.099999999999999867 -2 0.18500000000000003
v -0.099999999999999867 -1.8999999999999999 0.17500000000000002
v -0.099999999999999867 -1.8 0.16500000000000004
v -0.099999999999999867 -1.7 0.15500000000000003
v -0.099999999999999867 -1.6000000000000001 0.14500000000000005
v -0.099999999999999867 -1.5 0.13500000000000004
v -0.099999999999999867 -1.3999999999999999 0.125
v -0.099999999999999867 -1.2999999999999998 0.11499999999999999
v -0.099999999999999867 -1.1000000000000001 0.095000000000000029
v -0.099999999999999867 0.90000000000000036 -0.10500000000000001
v -0.099999999999999867 1 -0.11499999999999999
v -0.099999999999999867 1.4000000000000004 -0.15500000000000003
v -0.099999999999999867 1.5 -0.16500000000000001
v -0.099999999999999867 1.9000000000000004 -0.20500000000000004
v -0.099999999999999867 2 -0.215
v 0 -2 0.20000000000000001
v 0 -1.8999999999999999 0.19
v 0 -1.8 0.18000000000000002
v 0 -1.7 0.17000000000000001
v 0 -1.6000000000000001 0.16000000000000003
v 0 -1.5 0.15000000000000002
v 0 -1.3999999999999999 0.13999999999999999
v 0 -1.2999999999999998 0.12999999999999998
v 0 -1.1000000000000001 0.11000000000000001
v 0 0.90000000000000036 -0.090000000000000038
v 0 1 -0.10000000000000001
v 0 1.4000000000000004 -0.14000000000000004
v 0 1.5 -0.15000000000000002
v 0 1.9000000000000004 -0.19000000000000006
v 0 2 -0.20000000000000001
v 0.40000000000000036 -2 0.26000000000000006
v 0.40000000000000036 -1.8999999999999999 0.25000000000000006
v 0.40000000000000036 -1.8 0.24000000000000007
v 0.40000000000000036 -1.7 0.23000000000000007
v 0.40000000000000036 -1.6000000000000001 0.22000000000000008
v 0.40000000000000036 -1.5 0.21000000000000008
v 0.40000000000000036 -1.3999999999999999 0.20000000000000004
v 0.40000000000000036 -1.2999999999999998 0.19000000000000003
v 0.40000000000000036 1 -0.039999999999999952
v 0.40000000000000036 1.4000000000000004 -0.079999999999999988
v 0.40000000000000036 1.5 -0.089999999999999969
v 0.40000000000000036 1.9000000000000004 -0.13
v 0.40000000000000036 2 -0.13999999999999996
v 0.5 -2 0.27500000000000002
v 0.5 -1.8999999999999999 0.26500000000000001
v 0.5 -1.8 0.255
v 0.5 -1.7 0.245
v 0.5 -1.6000000000000001 0.23500000000000004
v 0.5 -1.5 0.22500000000000003
v 0.5 1.4000000000000004 -0.065000000000000044
v 0.5 1.5 -0.075000000000000025
v 0.5 1.9000000000000004 -0.11500000000000006
v 0.5 2 -0.125
v 0.60000000000000009 2 -0.11
v 0.80000000000000027 -1.7 0.29000000000000004
v 0.80000000000000027 1.4000000000000004 -0.020000000000000004
v 0.80000000000000027 1.5 -0.029999999999999985
v 0.80000000000000027 1.9000000000000004 -0.070000000000000021
v 0.80000000000000027 2 -0.079999999999999974
v 0.90000000000000036 -2 0.33500000000000008
v 0.90000000000000036 -1.8999999999999999 0.32500000000000007
v 0.90000000000000036 -1.8 0.31500000000000006
v 0.90000000000000036 -1.7 0.30500000000000005
v 0.90000000000000036 0 0.13500000000000004
v 0.90000000000000036 1.5 -0.014999999999999986
v 0.90000000000000036 1.9000000000000004 -0.055000000000000021
v 0.90000000000000036 2 -0.064999999999999974
v 1 -2 0.34999999999999998
v 1 -1.8999999999999999 0.33999999999999997
v 1 -1.8 0.33000000000000002
v 1 -1.7 0.32000000000000001
v 1 -0.099999999999999867 0.15999999999999998
v 1 0 0.14999999999999999
v 1 1.5 -2.7755575615628914e-17
v 1 1.9000000000000004 -0.040000000000000063
v 1 2 -0.050000000000000017
v 1.4000000000000004 -2 0.41000000000000003
v 1.4000000000000004 -1.8999999999999999 0.40000000000000002
v 1.4000000000000004 -1.8 0.39000000000000007
v 1.4000000000000004 -1.7 0.38000000000000006
v 1.4000000000000004 -1.6000000000000001 0.37000000000000011
v 1.4000000000000004 -0.29999999999999982 0.24000000000000005
v 1.4000000000000004 -0.19999999999999996 0.23000000000000004
v 1.4000000000000004 -0.099999999999999867 0.22000000000000003
v 1.4000000000000004 0 0.21000000000000005
v 1.4000000000000004 0.40000000000000036 0.17000000000000001
v 1.4000000000000004 0.5 0.16000000000000003
v 1.4000000000000004 1.4000000000000004 0.070000000000000007
v 1.4000000000000004 1.5 0.060000000000000026
v 1.4000000000000004 1.9000000000000004 0.01999999999999999
v 1.4000000000000004 2 0.010000000000000037
v 1.5 -2 0.42499999999999999
v 1.5 -1.8999999999999999 0.41499999999999998
v 1.5 -1.8 0.40500000000000003
v 1.5 -1.7 0.39500000000000002
v 1.5 -1.6000000000000001 0.38500000000000001
v 1.5 -0.5 0.27499999999999997
v 1.5 -0.29999999999999982 0.25499999999999995
v 1.5 -0.19999999999999996 0.24499999999999997
v 1.5 -0.099999999999999867 0.23499999999999996
v 1.5 0 0.22499999999999998
v 1.5 0.40000000000000036 0.18499999999999994
v 1.5 0.5 0.17499999999999999
v 1.5 1.4000000000000004 0.084999999999999937
v 1.5 1.5 0.074999999999999956
v 1.5 1.9000000000000004 0.03499999999999992
v 1.5 2 0.024999999999999967
v 1.6000000000000001 -0.19999999999999996 0.26000000000000001
v 1.6000000000000001 -0.099999999999999867 0.24999999999999997
v 1.7000000000000002 -0.099999999999999867 0.26500000000000001
v 1.7000000000000002 0 0.255
v 1.9000000000000004 -2 0.48500000000000004
v 1.9000000000000004 -1.8999999999999999 0.47500000000000003
v 1.9000000000000004 -1.8 0.46500000000000008
v 1.9000000000000004 -1.7 0.45500000000000007
v 1.9000000000000004 -1.6000000000000001 0.44500000000000006
v 1.9000000000000004 -1.5 0.43500000000000005
v 1.9000000000000004 -1.2999999999999998 0.41500000000000004
v 1.9000000000000004 -1.2 0.40500000000000003
v 1.9000000000000004 -1.1000000000000001 0.39500000000000002
v 1.9000000000000004 -0.79999999999999982 0.36499999999999999
v 1.9000000000000004 -0.69999999999999996 0.35500000000000004
v 1.9000000000000004 -0.59999999999999987 0.34500000000000003
v 1.9000000000000004 -0.5 0.33500000000000002
v 1.9000000000000004 -0.29999999999999982 0.315
v 1.9000000000000004 -0.19999999999999996 0.30500000000000005
v 1.9000000000000004 -0.099999999999999867 0.29500000000000004
v 1.9000000000000004 0 0.28500000000000003
v 1.9000000000000004 0.40000000000000036 0.245
v 1.9000000000000004 0.5 0.23500000000000004
v 1.9000000000000004 0.90000000000000036 0.19500000000000001
v 1.9000000000000004 1 0.18500000000000003
v 1.9000000000000004 1.4000000000000004 0.14499999999999999
v 1.9000000000000004 1.5 0.13500000000000001
v 1.9000000000000004 1.9000000000000004 0.094999999999999973
v 1.9000000000000004 2 0.08500000000000002
v 2 -2 0.5
v 2 -1.8999999999999999 0.48999999999999999
v 2 -1.8 0.47999999999999998
v 2 -1.7 0.46999999999999997
v 2 -1.6000000000000001 0.46000000000000002
v 2 -1.5 0.45000000000000001
v 2 -1.3999999999999999 0.43999999999999995
v 2 -1.2999999999999998 0.42999999999999994
v 2 -1.2 0.41999999999999998
v 2 -1.1000000000000001 0.41000000000000003
v 2 -0.79999999999999982 0.38
v 2 -0.69999999999999996 0.37
v 2 -0.59999999999999987 0.35999999999999999
v 2 -0.5 0.34999999999999998
v 2 -0.29999999999999982 0.32999999999999996
v 2 -0.19999999999999996 0.32000000000000001
v 2 -0.099999999999999867 0.31
v 2 0 0.29999999999999999
v 2 0.40000000000000036 0.25999999999999995
v 2 0.5 0.25
v 2 0.90000000000000036 0.20999999999999996
v 2 1 0.19999999999999998
v 2 1.4000000000000004 0.15999999999999995
v 2 1.5 0.14999999999999997
v 2 1.9000000000000004 0.10999999999999993
v 2 2 0.099999999999999978
v -2 -2 -0.90000000000000002
v -2 2 -0.90000000000000002
v 2 -2 -0.90000000000000002
v 2 2 -0.90000000000000002
v -1 -1.3680117784833934 -0.14545556584642799
v -1 -1 -0.24999999999999994
v -1.3500000000000001 -1.2163118960624633 -0.11631189606246312
v -1.1124354249480162 -1.4856463342923145 -0.041432511343314105
v -0.88756457505198383 -1.4856463342923145 -0.041432511343314105
v -1 -1.1912865702388702 -0.22335685044874226
v -0.81807566089457184 -1.3037219951868864 -0.15386793629133028
v -0.702272217076786 -1.4114496766047311 -0.031733672164910687
v -0.81599411075830319 -1.1137218936815172 -0.21573956140660749
v -1.1819243391054282 -1.3037219951868864 -0.15386793629133028
v -1.1840058892416967 -1.1137218936815172 -0.21573956140660749
v -1.1840058892416967 -0.88627810631848281 -0.21573956140660749
v -1.3680117784833936 -1 -0.14545556584642788
v -1.0567604054103124 -1.4309494146115764 -0.098690129693979889
v -0.94323959458968754 -1.4309494146115764 -0.098690129693979889
v -0.83403957225459679 -1.53105661011428 0.0252223955097301
v -1 -1.4920349213414412 -0.047897214473551331
v -1 -1.282348744032155 -0.19053039486308881
v -1 -1.0965665694893436 -0.24330721736980326
v -1 -0.90343343051065639 -0.24330721736980326
v -0.90815973483089096 -1.3391091494424674 -0.15545053510429235
v -0.73147038712046653 -1.2625269972347468 -0.14073803223567299
v -0.85088399404560922 -1.3998761613949959 -0.10485446048149688
v -0.90784124005355471 -1.2507601554406054 -0.19701322042794217
v -0.73977637587787082 -1.4949747468305832 0.028949331494718011
v -0.67209910439313192 -1.3177933498176828 -0.080554794033443511
v -0.79279678519556196 -1.4531883257175569 -0.041616892720361454
v -0.75769288964770554 -1.3612851340357428 -0.098416188854319187
v -0.90685022710158603 -1.0575697256955536 -0.24138183841659638
v -0.72966883008868555 -1.1670738512237153 -0.17370456693185748
v -0.90704526622046833 -1.1540819192313048 -0.22647481818170728
v -0.81514207453865406 -1.2108812153652624 -0.19137092263385097
v -0.60502205176395996 -1.3593628088613134 -0.0026044542584121033
v -1.091840265169109 -1.3391091494424674 -0.15545053510429235
v -1.2685296128795334 -1.2625269972347468 -0.14073803223567299
v -1.1491160059543908 -1.3998761613949959 -0.10485446048149688
v -1.0921587599464453 -1.2507601554406054 -0.19701322042794217
v -1.3279008956068681 -1.3177933498176828 -0.080554794033443511
v -1.207203214804438 -1.4531883257175569 -0.041616892720361454
v -1.2423071103522945 -1.3612851340357428 -0.098416188854319187
v -1.0931497728984139 -1.0575697256955536 -0.24138183841659638
v -1.2703311699113145 -1.1670738512237153 -0.17370456693185748
v -1.0929547337795318 -1.1540819192313048 -0.22647481818170728
v -1.1848579254613458 -1.2108812153652624 -0.19137092263385097
v -1.2685296128795334 -0.73747300276525318 -0.14073803223567299
v -1.0931497728984139 -0.94243027430444637 -0.24138183841659638
v -1.2703311699113145 -0.83292614877628479 -0.17370456693185748
v -1.0929547337795318 -0.84591808076869535 -0.22647481818170728
v -1.1864832907941971 -1 -0.22470288442733571
v -1.1848579254613458 -0.7891187846347375 -0.19137092263385097
v -1.3634809428097285 -1.1095041255281617 -0.13812451972899714
v -1.3634809428097285 -0.89049587447183842 -0.13812451972899714
v -1.2797249361912959 -1.0576265060223722 -0.18908774505260934
v -1.2797249361912959 -0.94237349397762793 -0.18908774505260934
v 1 1.3680117784833934 -0.045455565846427959
v 1 1 -0.14999999999999991
v 1.3500000000000001 0.78368810393753674 -0.016311896062463083
v 1.3500000000000001 1.2163118960624633 -0.016311896062463083
v 1 1.1912865702388702 -0.12335685044874223
v 1.491432511343314 0.88756457505198383 0.064353665707685692
v 1.1840058892416967 0.88627810631848281 -0.11573956140660746
v 1.4817336721649106 0.702272217076786 0.13855032339526885
v 1.1819243391054282 1.3037219951868864 -0.053867936291330243
v 1.491432511343314 1.1124354249480162 0.064353665707685692
v 1.1840058892416967 1.1137218936815172 -0.11573956140660746
v 1.3680117784833936 1 -0.045455565846427848
v 0.81807566089457184 1.3037219951868864 -0.053867936291330243
v 1.0567604054103124 1.4309494146115764 0.0013098703060201444
v 1 1.282348744032155 -0.090530394863088781
v 1 1.0965665694893436 -0.14330721736980323
v 1.2685296128795334 0.73747300276525318 -0.040738032235672961
v 1.5486901296939799 0.94323959458968754 0.11905058538842367
v 1.42477760449027 0.83403957225459679 0.018943389885719975
v 1.3279008956068681 0.68220665018231719 0.019445205966556522
v 1.0931497728984139 0.94243027430444637 -0.14138183841659635
v 1.2703311699113145 0.83292614877628479 -0.073704566931857451
v 1.1848579254613458 0.7891187846347375 -0.091370922633850937
v 1.4210506685052819 0.73977637587787082 0.055025253169416866
v 1.4916168927203615 0.79279678519556196 0.096811674282443305
v 1.39497794823604 0.64063719113868656 0.09739554574158793
v 1.091840265169109 1.3391091494424674 -0.05545053510429232
v 1.2685296128795334 1.2625269972347468 -0.040738032235672961
v 1.1491160059543908 1.3998761613949959 -0.0048544604814968473
v 1.0921587599464453 1.2507601554406054 -0.097013220427942137
v 1.5486901296939799 1.0567604054103126 0.11905058538842367
v 1.42477760449027 1.1659604277454032 0.018943389885719975
v 1.4978972144735514 1 0.057965078658558822
v 1.3279008956068681 1.3177933498176828 0.019445205966556522
v 1.2423071103522945 1.3612851340357428 0.0015838111456808468
v 1.0931497728984139 1.0575697256955536 -0.14138183841659635
v 1.2703311699113145 1.1670738512237153 -0.073704566931857451
v 1.0929547337795318 1.1540819192313048 -0.12647481818170725
v 1.1864832907941971 1 -0.12470288442733568
v 1.1848579254613458 1.2108812153652624 -0.091370922633850937
v 1.4210506685052819 1.2602236241221292 0.055025253169416866
v 1.4916168927203615 1.207203214804438 0.096811674282443305
v 1.3634809428097285 0.89049587447183842 -0.038124519728997108
v 1.3634809428097285 1.1095041255281617 -0.038124519728997108
v 1.4341677078294128 0.94320070386604227 0.0038569405029114101
v 1.2797249361912959 0.94237349397762793 -0.089087745052609302
v 1.4341677078294128 1.0567992961339578 0.0038569405029114101
v 1.2797249361912959 1.0576265060223722 -0.089087745052609302
v 0.90815973483089096 1.3391091494424674 -0.05545053510429232
v 0.73147038712046653 1.2625269972347468 -0.040738032235672961
v 0.90784124005355471 1.2507601554406054 -0.097013220427942137
v 0.90685022710158603 1.0575697256955536 -0.14138183841659635
v 0.90704526622046833 1.1540819192313048 -0.12647481818170725
v 0.81514207453865406 1.2108812153652624 -0.091370922633850937
v -0.88941000371886414 -1.5387089969964836 0.020459399141818789
v -0.8364873069517359 -1.5335308618270407 0.027879990139943703
v 1 0.19067417694518218 0.13093258230548177
v -0.63674855347039416 -1.4424238686728899 0.048730103846729864
v -0.64555588843355605 -1.4493201546181489 0.048098632196781475
v -1.4085334416282709 -1.1509990033764439 -0.096180115906596239
v -1.4014560207821909 -1.181664006259125 -0.092052002491416138
v -1.3999999999999997 -1.1858547876125389 -0.091414521238746091
v -0.29999999999999988 -1.1093258230548178 0.06593258230548181
v -0.67824852398653301 -1.4686788569376861 0.045130607095788651
v -1.4143625286660095 -1.1000000000000001 -0.10215437929990143
v 0.94155222640143699 1.4265318273432013 -0.0014203487741045896
v 0.94593031438197084 1.4279658639835382 -0.00090703924105820833
v 0.96269874511451869 1.4309494146115764 0.0013098703060201444
v 1 1.4369560245131761 0.0063043975486823762
v -0.94627808163592975 -1.5432114882829402 0.012379436582904598
v -0.9406803882849174 -1.5434025589915594 0.013238197656418347
v 0.90000000000000036 1.4099084241491502 -0.0059908424149149727
v -1.4179152172696403 -1.0689173318361884 -0.10579554940682717
v -1.4177359769151561 -1.0426915546296274 -0.10839124107431065
v -0.29067417694518233 -1.1000000000000001 0.066398873458222665
v -1.3999999999999997 -0.92694117482367333 -0.11730588251763263
v -1.4090345564036399 -0.96477919765675779 -0.11487726369487022
v -0.19999999999999998 -1.0093258230548179 0.070932582305481787
v -1.3165424208267726 -1.3530496734512518 -0.062176395778890711
v -1.3384190080047151 -1.3243117078164428 -0.068331680419062998
v 1.071206703173337 1.4451419195265154 0.016166813523348991
v 1.0445179495877759 1.4441247366011152 0.012265218778054849
v -1.2999999999999998 -1.3726757776613259 -0.057732422233867424
v -1.1000000000000001 -1.5117723222105588 -0.013822767778944098
v -1.0824150333770055 -1.518289428233679 -0.010533312183182902
v -1.1300870488758867 -1.5006218610438857 -0.019450871226994376
v -1.3500458469128158 -1.3041070172313958 -0.072096175313782818
v -1.3520105039754051 -1.2999999999999998 -0.0728015755963108
v -1.3827901869341175 -0.87271140641133615 -0.12014738739898402
v -1.3534593729141151 -0.81109626919855449 -0.12190927901726183
v -0.099999999999999867 -0.90932582305481768 0.075932582305481791
v -1.2113792263330034 -1.4564795220427285 -0.03605893174567764
v -1.2263828264868408 -1.4443450790855299 -0.039522916064473147
v -1.2026353195116346 -1.4618127227362483 -0.034214025653120338
v 1.185250129785407 1.4330398885815421 0.034483530609656816
v -1.3824502431161327 -1.2363672492514304 -0.083730811542276851
v 1.1314933584484514 1.4410831838036713 0.025615685386900584
v -1.1312495313549369 -1.5 -0.019687429703240476
v 1.2093258230548183 0.40000000000000036 0.14139887345822269
v 0 -0.80932582305481782 0.080932582305481782
v -1.397322817302165 -0.91572874827794959 -0.11802554776752981
v 0.0093258230548179995 -0.79999999999999982 0.081398873458222692
v 1.2848294373141187 1.3997746178701227 0.052746953810105503
v 1.2842112201186828 1.4000000000000004 0.052631683017802369
v -1.3475440617601113 -0.79999999999999982 -0.12213160926401671
v -1.3416119454470583 -0.7888722067507431 -0.12235457114198442
v -1.3301081277299462 -0.77240418935262956 -0.122275800224229
v -1.2999999999999998 -0.73479567729817075 -0.1215204322701829
v 1.218347682715337 1.4240117299402908 0.040350979413271468
v 1.3093258230548179 0.5 0.14639887345822264
v 1.4000000000000006 0.59067417694518254 0.15093258230548176
v 1.372553859023774 1.3454659958445976 0.071336479269106357
v 1.4000000000000001 1.322108116061562 0.077789188393843842
v -1.275835252438809 -1.3999999999999999 -0.051375287865821337
v 1.3048255074661741 1.3894185783813096 0.056781968281795173
v 1.5014046603233162 0.71862102105116565 0.15334859694338088
v 1.5000000000000002 0.71608731785417845 0.15339126821458215
v 1.4896341025962687 0.69738948254445277 0.15370616713499502
v -1.2804784842458408 -1.3958363118142012 -0.052488141455456008
v 1.4289605878714078 0.61963476481658997 0.15238061169905215
v -1.2877901352190564 -0.71954415282889295 -0.12121410499996918
v -1.2682459823901637 -0.70000000000000007 -0.12023689735852454
v 1.473329553241967 0.67421441074678568 0.15357799191161647
v 0.33175401760983686 0.90000000000000024 -0.040236897358524516
v 0.40000000000000036 0.9682459823901638 -0.036824598239016335
v 1.4904426837283729 1.2179582881415714 0.10177057374509878
v 1.4956764994441905 1.2097121897407219 0.10338025594255634
v 1.4999999999999998 1.2014399626358823 0.10485600373641174
v 1.445976530790434 1.2756286542132522 0.089333614197239869
v 0.4317540176098365 1 -0.035236897358524533
v 0.5 1.0682459823901636 -0.031824598239016358
v 1.4061526726937204 1.3168719194957585 0.079235708954482148
v -1.1682459823901634 -0.59999999999999987 -0.11523689735852451
v -1.1000000000000001 -0.53175401760983654 -0.11182459823901635
v 1.5255026447791997 0.77185423868884817 0.15163997284799513
v 1.5019472969341956 1.1977141663112862 0.1055206779090007
v 1.5296147905743989 1.1345184451858887 0.11599037406757093
v 1.5523266663481317 0.84856207511429693 0.14799279244079006
v 1.5531209495217484 0.8518865836860815 0.14777948405965408
v 1.5584947313155266 0.90000000000000036 0.14377420969732893
v 1.5542696361249062 0.85964598403730974 0.14717584701500491
v -1.0400260851231935 -1.530164565387869 -0.0029874562296920717
v -1.0682459823901636 -0.5 -0.11023689735852452
v 1.5630608783651438 0.96068173963813652 0.13839095779095792
v 1.5621509196547421 0.93492036887851326 0.14083060106035997
v 1.5597728904357306 1 0.13396593356535957
v 1.5557420587768389 1.0482012988008278 0.12854117893644304
v 1.5536428740744825 1.0598213697750534 0.12706429413366704
v 1.5498760499648625 1.0745281700858491 0.12502859048614443
v 0.7122098647809435 1.2804558471711069 -0.021214104999969185
v -0.83184421839056133 -1.5325937614788967 0.028482743389305502
v -0.79999999999999982 -1.5222660155038956 0.032226601550389603
v 0.77836751377786206 1.341575931644442 -0.017402466097764909
v 0.74462170740929712 1.3120569719901654 -0.019512441087621971
v 0.80000000000000038 1.3558644986489399 -0.015586449864893954
v -0.86824598239016326 -0.29999999999999977 -0.10023689735852451
v 0.90000000000000036 0.090674176945182539 0.12593258230548179
v -0.79999999999999982 -0.23175401760983633 -0.096824598239016332
v -0.7457441243658679 -1.5046697003948817 0.038605351384608029
v -0.73486018158712996 -1.5 0.03977097276193052
v 0.84630213666206855 1.3864477231268699 -0.011699451813376706
v 0.857466474913961 1.3928924421428266 -0.010669272977188525
v 0.87523268378196706 1.4000000000000006 -0.0087150974327049966
v -0.69999999999999984 -1.4808068524976838 0.043080685249768394
v -0.73296263787810789 -1.4991858685048733 0.039974191168771184
v -0.76824598239016351 -0.19999999999999996 -0.09523689735852453
v -0.57103941212859222 -1.3803652351834099 0.052380611699052157
v -0.59182916311086375 -1.3999999999999997 0.051225625533370407
v -0.59999999999999998 -1.4077169015064062 0.050771690150640633
v -0.69999999999999996 -0.13175401760983646 -0.091824598239016342
v -0.66824598239016331 -0.099999999999999853 -0.090236897358524498
v -0.63897402565383377 -0.070728043263670215 -0.088773299521708052
v -0.59999999999999987 -0.031754017609836364 -0.086824598239016337
v -0.5 -1.3093258230548179 0.05593258230548178
v -0.56824598239016355 -0 -0.085236897358524535
v -0.49067417694518206 -1.2999999999999998 0.056398873458222677
v 1 -1.3680117784833934 -0.095455565846428003
v 1.595455565846428 -1 0.1319882215166065
v 0.78368810393753674 -1.5663118960624631 0.14999999999999997
v 1.2163118960624633 -1.5663118960624631 0.14999999999999997
v 1 -1 -0.19999999999999996
v 1.5663118960624631 -0.64999999999999991 0.2836881039375368
v 1.5663118960624631 -1.3500000000000001 0.2836881039375368
v 1.3500000000000001 -1.2163118960624633 -0.066311896062463127
v 1.3500000000000001 -0.78368810393753674 -0.066311896062463127
v 0.88756457505198383 -1.4856463342923145 0.0085674886566858843
v 1.3037219951868864 -1.6038679362913304 0.31807566089457195
v 1.1124354249480162 -1.4856463342923145 0.0085674886566858843
v 1.1137218936815172 -1.6657395614066075 0.31599411075830325
v 1 -1.595455565846428 0.13198822151660644
v 1 -1.1912865702388702 -0.17335685044874227
v 1.6038679362913304 -0.81807566089457184 0.19627800481311364
v 1.4114496766047313 -0.5182663278350893 0.202272217076786
v 1.6038679362913304 -1.1819243391054282 0.19627800481311364
v 1.4114496766047313 -1.4817336721649106 0.202272217076786
v 1.1819243391054282 -1.3037219951868864 -0.10386793629133029
v 1.491432511343314 -1.1124354249480162 0.014353665707685648
v 1.2977277829232139 -1.4114496766047311 0.018266327835089302
v 1.1840058892416967 -1.1137218936815172 -0.16573956140660751
v 1.4817336721649106 -1.2977277829232139 0.088550323395268804
v 1.491432511343314 -0.88756457505198383 0.014353665707685648
v 1.1840058892416967 -0.88627810631848281 -0.16573956140660751
v 1.4817336721649106 -0.702272217076786 0.088550323395268804
v 1.3680117784833936 -1 -0.095455565846427892
v 1.6733568504487422 -1 0.30871342976112981
v 0.58855032339526869 -1.4817336721649106 0.202272217076786
v 0.81807566089457184 -1.3037219951868864 -0.10386793629133029
v 0.702272217076786 -1.4114496766047311 0.018266327835089302
v 0.81599411075830319 -1.1137218936815172 -0.16573956140660751
v 0.73747300276525318 -1.5907380322356732 0.23147038712046658
v 0.94323959458968754 -1.4309494146115764 -0.0486901296939799
v 0.83403957225459679 -1.53105661011428 0.075222395509730089
v 0.83292614877628479 -1.6237045669318575 0.22966883008868555
v 1.2625269972347468 -1.5907380322356732 0.23147038712046658
v 1.0567604054103124 -1.4309494146115764 -0.0486901296939799
v 1.1659604277454032 -1.53105661011428 0.075222395509730089
v 1 -1.4920349213414412 0.0021027855264486583
v 1.1670738512237153 -1.6237045669318575 0.22966883008868555
v 1 -1.6747028844273357 0.31351670920580288
v 1.2108812153652624 -1.6413709226338509 0.31514207453865417
v 0.89049587447183842 -1.5881245197289973 0.13651905719027163
v 1.1095041255281617 -1.5881245197289973 0.13651905719027163
v 0.94320070386604227 -1.5461430594970886 0.065832292170587114
v 0.94237349397762793 -1.6390877450526093 0.22027506380870421
v 1.0567992961339576 -1.5461430594970886 0.065832292170587114
v 1.0576265060223722 -1.6390877450526093 0.22027506380870421
v 1 -1.282348744032155 -0.14053039486308883
v 1 -1.0965665694893436 -0.19330721736980327
v 1.6054505351042923 -0.90815973483089096 0.16089085055753249
v 1.590738032235673 -0.73147038712046653 0.23747300276525324
v 1.4949747468305832 -0.57894933149471806 0.23977637587787087
v 1.53105661011428 -1.42477760449027 0.33403957225459679
v 1.3998761613949959 -1.5548544604814971 0.35088399404560922
v 1.6054505351042923 -1.091840265169109 0.16089085055753249
v 1.590738032235673 -1.2685296128795334 0.23747300276525324
v 1.3177933498176828 -1.5305547940334434 0.17209910439313197
v 1.4949747468305832 -1.4210506685052819 0.23977637587787087
v 1.3612851340357426 -1.5484161888543193 0.25769288964770554
v 1.4531883257175569 -1.4916168927203617 0.29279678519556196
v 1.091840265169109 -1.3391091494424674 -0.10545053510429236
v 1.2685296128795334 -1.2625269972347468 -0.090738032235673005
v 1.1491160059543908 -1.3998761613949959 -0.054854460481496892
v 1.0921587599464453 -1.2507601554406054 -0.14701322042794218
v 1.5486901296939799 -1.0567604054103126 0.069050585388423624
v 1.42477760449027 -1.1659604277454032 -0.03105661011428007
v 1.5548544604814971 -1.1491160059543908 0.10012383860500396
v 1.2602236241221292 -1.4949747468305832 0.078949331494718
v 1.3279008956068681 -1.3177933498176828 -0.030554794033443522
v 1.207203214804438 -1.4531883257175569 0.0083831072796385353
v 1.3593628088613134 -1.4526044542584122 0.10502205176395996
v 1.2423071103522945 -1.3612851340357428 -0.048416188854319198
v 1.0931497728984139 -1.0575697256955536 -0.19138183841659639
v 1.2703311699113145 -1.1670738512237153 -0.1237045669318575
v 1.0929547337795318 -1.1540819192313048 -0.17647481818170729
v 1.1848579254613458 -1.2108812153652624 -0.14137092263385098
v 1.5305547940334434 -1.3279008956068681 0.18220665018231724
v 1.4210506685052819 -1.2602236241221292 0.0050252531694168212
v 1.5484161888543193 -1.2423071103522945 0.13871486596425725
v 1.4526044542584122 -1.39497794823604 0.1406371911386865
v 1.4916168927203615 -1.207203214804438 0.046811674282443261
v 1.39497794823604 -1.3593628088613134 0.047395545741587886
v 1.2685296128795334 -0.73747300276525318 -0.090738032235673005
v 1.5486901296939799 -0.94323959458968754 0.069050585388423624
v 1.42477760449027 -0.83403957225459679 -0.03105661011428007
v 1.5548544604814971 -0.85088399404560922 0.10012383860500396
v 1.4978972144735514 -1 0.0079650786585587774
v 1.3279008956068681 -0.68220665018231719 -0.030554794033443522
v 1.0931497728984139 -0.94243027430444637 -0.19138183841659639
v 1.2703311699113145 -0.83292614877628479 -0.1237045669318575
v 1.0929547337795318 -0.84591808076869535 -0.17647481818170729
v 1.1864832907941971 -1 -0.17470288442733573
v 1.1848579254613458 -0.7891187846347375 -0.14137092263385098
v 1.5305547940334434 -0.67209910439313192 0.18220665018231724
v 1.4210506685052819 -0.73977637587787082 0.0050252531694168212
v 1.5484161888543193 -0.75769288964770554 0.13871486596425725
v 1.4526044542584122 -0.60502205176395996 0.1406371911386865
v 1.4916168927203615 -0.79279678519556196 0.046811674282443261
v 1.39497794823604 -0.64063719113868656 0.047395545741587886
v 1.3634809428097285 -1.1095041255281617 -0.088124519728997153
v 1.3634809428097285 -0.89049587447183842 -0.088124519728997153
v 1.4341677078294128 -1.0567992961339578 -0.046143059497088634
v 1.2797249361912959 -1.0576265060223722 -0.13908774505260935
v 1.4341677078294128 -0.94320070386604227 -0.046143059497088634
v 1.2797249361912959 -0.94237349397762793 -0.13908774505260935
v 1.6405303948630889 -1 0.21765125596784496
v 1.6470132204279422 -0.90784124005355471 0.24923984455939474
v 1.6470132204279422 -1.0921587599464453 0.24923984455939474
v 1.6413709226338509 -0.81514207453865406 0.2891187846347375
v 1.6237045669318575 -1.2703311699113145 0.33292614877628479
v 1.6413709226338509 -1.1848579254613458 0.2891187846347375
v 1.6764748181817073 -1.0929547337795318 0.34591808076869535
v 0.68220665018231719 -1.5305547940334434 0.17209910439313197
v 0.90815973483089096 -1.3391091494424674 -0.10545053510429236
v 0.73147038712046653 -1.2625269972347468 -0.090738032235673005
v 0.85088399404560922 -1.3998761613949959 -0.054854460481496892
v 0.90784124005355471 -1.2507601554406054 -0.14701322042794218
v 0.73977637587787082 -1.4949747468305832 0.078949331494718
v 0.67209910439313192 -1.3177933498176828 -0.030554794033443522
v 0.79279678519556196 -1.4531883257175569 0.0083831072796385353
v 0.64063719113868645 -1.4526044542584122 0.10502205176395996
v 0.75769288964770554 -1.3612851340357428 -0.048416188854319198
v 0.90685022710158603 -1.0575697256955536 -0.19138183841659639
v 0.90704526622046833 -1.1540819192313048 -0.17647481818170729
v 0.81514207453865406 -1.2108812153652624 -0.14137092263385098
v 0.54739554574158789 -1.39497794823604 0.1406371911386865
v 0.60502205176395996 -1.3593628088613134 0.047395545741587886
v 1.4988235790619848 -1.4720904569998066 0.3720325825592784
v 1.4800243696319793 -1.4914644475473915 0.37115010019953604
v -0.65680622061721061 0.20000000000000018 -0.1185209330925816
v -0.63729734837512297 0.16270265162487699 -0.11186486741875615
v -0.55298968706037266 0.012692108906983891 -0.085886646569773503
v -0.5462494592529209 0.012541094319052308 -0.089345896123223925
v 0.4995393841017694 -1.4004606158982307 0.21497696920508844
v 0.5 -1.4009959154513798 0.21509959154513794
v 1.2822473148121383 -1.6213622527831684 0.35447332250013758
v 1.3195589983694735 -1.6045762052370787 0.35839147027912893
v -0.55549768193834603 0.012748300451817603 -0.08459948233593366
v -0.62146072015292864 0.13242595328163678 -0.10646170335110297
v -0.59999999999999998 0.091397033414192835 -0.099139703341419277
v 0.49914303218170042 -1.3999999999999999 0.21487145482725503
v 1.2250580743459283 -1.6433767447545649 0.34809638562734568
v 0.40780381053708042 -1.2921961894629197 0.19039019052685402
v 0.41430838678213949 -1.2999999999999996 0.19214625801732088
v 1.0779582721913217 -0.19999999999999996 0.18169374082869827
v -0.15052948489697993 0.68158609501126011 -0.090738032235673005
v -0.19999999999999996 0.70497438949021429 -0.10049743894902143
v 0.4000000000000003 -1.282833633532408 0.18828336335324083
v -0.099999999999999853 0.65126883296347104 -0.080126883296347082
v 1.3275562495095539 -1.6000000000000001 0.35913343742643311
v 1.3854274301110701 -1.5668848214085298 0.36450259665751356
v -0.0084722307535709286 0.59635294829631136 -0.060906129442666768
v 1.1851548391294524 -0.28927432920163554 0.20670065878958144
v 1.1976778393870895 -0.29999999999999982 0.20965167590806338
v 1.1663622078150009 -0.27317885904535882 0.20227221707678603
v 0.8953880013097455 -1.6614113045134267 0.30044933064780449
v 0.87441667932314715 -1.6563941682630245 0.29680191872477452
v 0.85086515698258514 -1.6491348430174151 0.29254325784912927
v 0.90000000000000047 -1.6620565498371682 0.30120565498371688
v -0 0.59126968175581474 -0.059126968175581468
v -0.69999999999999996 0.28257850158055731 -0.13325785015805569
v 1.569693198983855 -0.64791023986832053 0.30024500383441027
v 1.5572303539785133 -0.63073775481176186 0.29665832857795316
v 0.24760581976946575 -1.1000000000000003 0.14714087296541989
v 1 -0.13546783441414578 0.16354678344141457
v 0.8049560062242096 -1.6349841884531118 0.28424181977894264
v 0.80000000000000027 -1.6328662080732956 0.28328662080732958
v -0.69999999999999996 0.85586095087152381 -0.19058609508715238
v 1.5313333756694743 -0.59999999999999987 0.28970000635042115
v 1.5121069812864767 -0.57717972385015481 0.28453401957798696
v 0.87022831351577756 -0.029771686484222817 0.13351141567578889
v 0.90000000000000036 -0.052777080585667803 0.14027770805856679
v 0.13807550665572413 -0.96192449334427599 0.11690377533278622
v 0.01135199012542105 -0.79999999999999982 0.081702798518813152
v 1.5000000000000002 -0.56521765140629143 0.28152176514062915
v 1.4682919187940322 -0.53388908522891121 0.27363269634199594
v -0.62111593190805547 0.85438397770476082 -0.17860578755668444
v -0.6070846115224946 0.85412126453333115 -0.17647481818170729
v -0.59999999999999987 0.85271747053749314 -0.17527174705374932
v 0.99773076751397305 -1.6753603206712657 0.31719564719422255
v 0.97799490389571186 -1.6729684885419023 0.31399608443854704
v 1 -1.6754222551618543 0.31754222551618549
v 0.93328647899714023 -1.6667135210028596 0.30666432394985704
v 0.15585136921304235 -0.98463809550084935 0.12184151493204129
v 0.22351580355696513 -1.0710982060514171 0.1406371911386865
v -0.57537477298840412 0.044318162874123886 -0.090738032235673005
v -0.5632585658605731 0.025074552672686788 -0.086996240146354639
v 1.6007423504851015 -0.69999999999999996 0.31011135257276518
v 1.6177416247999865 -0.72999469328379463 0.31566071304837745
v 1.594880925358747 -0.68965769681609401 0.30819790848542145
v 1.467126407498238 -0.53287359250176214 0.27335632037491192
v 0.014389888441201544 0.58263587083136503 -0.056105103816956263
v 1.6762213345222952 -0.91460227389216298 0.34289342756756053
v 1.675280788055761 -0.90707752573144651 0.34199987078150873
v 1.429396404742133 -0.5 0.26440946071131993
v 0.010462453362717271 -0.79886336969210059 0.081455704973617649
v 1.6289730584934825 -0.7551588108592282 0.31986183985994515
v 0.81907877780311034 0.0097529547482926859 0.1218865211956373
v 0.83170024865384207 -0 0.12475503729807633
v -0.59773337299168372 0.85226834536316631 -0.17488684048506922
v 0.46047545032354392 -1.3550629073604541 0.20457760828457699
v 1.6456705904296289 -0.79999999999999982 0.32685058856444427
v 1.6514401495236777 -0.81549413958808092 0.32926543638735967
v 1.6733723173408186 -0.89892281356889692 0.34089812895801247
v 4.3125322284526659e-16 4.3125322284526659e-16 -0.19999999999999993
v 0.06043465288130747 0.013829605528355366 -0.19575355952735543
v 0.092967040288626193 0.02127417686762419 -0.19346767154799521
v -1.688703415273635e-16 -1.688703415273635e-16 -0.19999999999999993
v 0.014643063419527017 -0.063240611609967023 -0.19722118553492041
v -0.5 0.8291845109410827 -0.15791845109410826
v -0.52391508334902603 0.83595030209121901 -0.1621822927114758
v -0.54386713245714446 0.84159491538035847 -0.16573956140660751
v 0.43459599655052555 -1.3243398888594722 0.19762338836852603
v 0.45181552879928727 -1.344998877568929 0.20227221707678597
v 1.405007313470813 -1.5538365394258571 0.36613475096320769
v 1.4000000000000004 -1.557173476472026 0.36571734764720265
v 0.72805470950799922 -1.5999999999999999 0.26920820642619991
v 0.021235616673651307 -0.091712597827422068 -0.19597011655983573
v 0.028337070324878932 -0.12238242826908863 -0.19462247354527312
v 0.12265227950873864 0.028067219085228912 -0.19138183841659639
v 0.16181020909729754 0.011090710503330008 -0.18794881660665216
v 0.76533194491192236 -1.6180505970427312 0.27660485144106145
v 1.5 -1.470717863201968 0.37207178632019683
v 1.4413512897512906 -1.5241860661871125 0.36862130008140481
v 0.45233946044361845 0.014934439308588749 -0.11460415240524226
v 0.51298148613760364 0.017335914836150376 -0.091014628417900034
v 0.014330280375347892 -0.42307474075968182 -0.1365046114086558
v 0.015257565270600007 -0.4570606752413563 -0.12413477483077362
v 0.58974156282789569 -1.4999999999999998 0.2384612344241844
v 0.63014391125984937 -1.5370230254593806 0.24822388923491548
v 0.64210635397368498 -1.5470233578298909 0.25101828887904187
v 1.4000000000000006 -0.47438734800109755 0.25743873480010987
v 0.81085687049233324 0.0096732104018710137 0.11358486953843853
v 0.80523358851198135 0.0096186701438362512 0.10790704730005186
v 0.65408223565573365 -1.55500172635364 0.25361250798372409
v 0.72025832790712041 -1.5962247913198517 0.26766122831805328
v 0.01005375478141593 -0.7721592522497237 0.055160286112542103
v 0.010091125766818438 -0.7746010497718685 0.05756471264928445
v 0.010094989877834743 -0.77485352844224142 0.057813327208641123
v 0.01034761074005802 -0.79135962237514579 0.074066800279322165
v 0.0099330707036855582 -0.76427382780103903 0.047395545741587886
v 0.01014093535736049 -0.7778555782103006 0.060769431497174391
v 0.010191291665558728 -0.78114582884882444 0.064009325827500074
v 0.010259843617199164 -0.78562497179490764 0.068419916821942844
v 0.81823420579995809 0.0097447632375091669 0.12103375768170151
v 0.015422253586643394 -0.46309666951626149 -0.12193785825618687
v 0.016817639187471929 -0.51423897092680837 -0.10332363092027606
v 0.51369253705997364 0.017364073054306518 -0.090738032235673005
v 0.54418330815115401 0.01312669803687381 -0.076955347472091942
v 0.53765667356986935 -1.4447581924645574 0.22512432028193616
v 0.57365652968096426 -1.4852603471128218 0.23457451416342687
v 0.81745030781633532 0.0097371602045384781 0.1202422566651081
v 0.85699234079824316 -0.019543889384309933 0.13050324005816749
v 0.80518631394975038 0.0096182116274695119 0.10785931422145412
v 0.58550389634658273 0.014099304002356372 -0.054751981434139306
v 0.55945703199069063 0.013486211673301418 -0.068748105126753001
v 0.012809289592665597 -0.54386589970694588 -0.090738032235673005
v 0.013950881520124631 -0.59121673076242587 -0.066478794524963622
v 0.013299503169845142 -0.74104125392750841 0.028311623488278162
v 0.76355518809379752 0.0092144309964439872 0.065824407734475801
v 0.63053499723294015 0.015159248191610748 -0.030554794033443522
v 0.014681976223455906 -0.62154100071416563 -0.050942769987167465
v 0.014904945565517445 -0.63078929985903343 -0.046204591535511028
v 0.65716746819211402 0.011473222767563067 -0.014091465404181193
v -0.54353693030931582 0.012480320195035591 -0.090738032235673005
v -0.40718803420476063 0.8029271750313689 -0.14137092263385095
v 0.43573049851902085 0.015000048382254402 -0.12079431969206084
v 0.013340180320608842 -0.40907932114721712 -0.14137092263385095
v 0.014683899180188559 -0.39763441847825082 -0.14455056737194152
v -0.29999999999999982 0.75225163014608598 -0.12022516301460856
v 0.011519876925653375 -0.65721412235020427 -0.030554794033443525
v 0.43376796821471975 0.01500780081108713 -0.12152575558457637
v 0.41083752197278817 0.015098381146179868 -0.13007194280827883
v 0.016889358758553713 -0.37884978206805459 -0.14976935096899055
v 1.0027412504347899 -1.6754970725066167 0.31796089481588019
v 1.1034812677452646 -1.6704160142744418 0.33256379158923388
v 0.35555791684625754 0.017214175425780454 -0.14708123745730578
v 0.33875509212789068 0.015537861714495478 -0.15167571975871214
v 0.31044091457927986 0.012713131656065928 -0.15941781013972831
v 0.019428117515154185 -0.27829966540805978 -0.17396844999293462
v 0.018250200692443774 -0.29479431476163626 -0.17022579252790426
v 0.016838260872217799 -0.31456604379543179 -0.16573956140660751
v 0.016856961293736632 -0.3380921245926426 -0.15989490346978297
v 1.5986999935897683 -1.3357939927950935 0.3733843983179746
v 1.6162480456366153 -1.2999999999999998 0.37243720684549225
v 1.571298468653062 -1.3815538101564437 0.37385015131360366
v 1.5847243528682438 -1.3613795241223619 0.37384660534247272
v 0.3764415361031721 0.019297604723436265 -0.14137092263385098
v 0.016869401198117261 -0.35374215661321584 -0.15600691699855376
v 1.5364808099981924 -1.4281537333692191 0.37328749483665075
v 1.6291600153332246 -1.2736625496062428 0.37174025726060794
v 1.6610484275025557 -1.1841699121908138 0.3675742553444647
v 0.017938944762004989 0.18455612838289451 -0.18336852508548146
v 0.017945146553773335 0.16866464514774088 -0.18582709244398701
v -0.16181886897245912 0.011099370378491569 -0.19138183841659639
v -0.18053561528549567 0.01412979709323242 -0.18895406441228282
v 0.017924274864860715 0.22214630122938653 -0.17755295893640552
v -0.1332062259915964 0.017513272602371146 -0.19338466107125549
v 1.6775947900779158 -1.1000000000000001 0.36163921851168729
v 1.6716245904158247 -1.1340919745172324 0.3641528860140969
v 1.6803627247810837 -1.0714842755955123 0.35920283627671373
v 1.6788231791809178 -1.0929854590521138 0.36112202278234901
v 1.6521379565173444 -1.2119388620966873 0.36901457968727036
v 0.017921555230422201 0.22911509778041422 -0.17647481818170729
v -0.22560902431011426 0.021427628700722193 -0.1831075327082364
v 0.013009996668699422 0.25633057785828628 -0.17175134239844073
v 0.012441886281234681 0.25947853929207115 -0.17120498717866894
v -0.074315234479415904 0.022251335009927709 -0.19702297909377406
v -0.099396652092399881 0.020233414800590981 -0.19547343524354427
v 0.01819589755884278 0.11476246704818639 -0.19239742249186112
v 0.024116897326048926 0.12660260126791861 -0.19138183841659639
v -0.10541623791813289 0.019749110281722982 -0.19510154190238135
v 0.021635515833374169 0.14351384429741995 -0.18914852661229284
v -0.51461490646334962 0.016441703650930627 -0.1030422969148638
v -0.49695870852935198 0.01600933113465362 -0.10948708241967409
v 1.6825547841949375 -1 0.35238321762924063
v 0.015385139543951891 0.28234264337926207 -0.16573956140660748
v 0.016931284436883891 0.32159719116000857 -0.15559525402518012
v -0.31844666205329963 0.015703820726087208 -0.16449266360531622
v -0.31310350014153127 0.015375717218317349 -0.16573956140660748
v -0.28420180718681537 0.015689146693519434 -0.17192667622419547
v -0.26295620140028614 0.015919548389449714 -0.17647481818170729
v 0.017162043461486622 0.32745585369449381 -0.15408123649208244
v -0.22659240347088394 0.021282596818369394 -0.18293288836419469
v 1.1222043126255685 -1.6679957776551833 0.33513022465935366
v -0.40960942540778261 0.013870284581174301 -0.14137092263385098
v -0.43426647142119462 0.014474096855404022 -0.13237071923033725
v -0.72377934686604728 0.32804020603943895 -0.14137092263385098
v 0.01323520168296255 0.40897434250957082 -0.13146626627663552
v 0.019099286303264747 0.37663985452334364 -0.14137092263385101
v -0.37527534864938344 0.019193456960591323 -0.15123093477563954
v -0.37647219031391049 0.019266950512697903 -0.1509516358764792
v 1.1929310038221872 -1.6524647634727221 0.34418612692060035
v 0.015250936277588448 -0.20891277587586504 -0.18473564594797184
v -0.80471393393116375 0.5576772809203272 -0.17647481818170729
v -0.80772358987272941 0.57442460261909123 -0.17860099874281854
v 0.017031580570222693 -0.26406823358105913 -0.17647481818170729
v 0.01342683678005256 0.54448344689433281 -0.076640209752693658
v 0.01766199110082161 0.51339461901345862 -0.090738032235673005
v 0.016992290362592935 0.49759754134390094 -0.096899547010679918
v -0.82581515310397258 0.67509565451000508 -0.19138183841659639
v 0.013818331092992488 -0.16453782968696004 -0.19138183841659637
v -0.21914630528059492 0.71402623431442913 -0.10427456922353215
v 0.015516783976823221 0.46279290750165197 -0.11047479618926584
v 0.014370967669383559 0.58188630220827142 -0.056508550557502514
v 0.014290494588218341 0.57869826647561673 -0.058224474337470654
v 0.014257549485376836 0.5773931074888613 -0.058926961238440156
v -0.70523955422879858 0.85595905282276608 -0.19138183841659639
v 0.01070133840451748 0.06749389482153223 -0.1955287858486745
v -0.71478422617353654 0.85032262090030364 -0.19224989601606085
v 0.014194604997775358 0.57489948760080134 -0.060269123630252788
v 0.014168458653712782 0.57386366943722622 -0.060826640912884158
v -0.79999999999999982 0.79999999999999982 -0.19999999999999996
v 0.014117880304384196 0.57185994865726508 -0.061905120711442947
v 0.014096626238585342 0.57101794384957338 -0.062358320171400909
v 0.74171555422293745 0.012625202874416094 0.047395545741587893
v 0.76292016171391386 0.0093136052834803494 0.065288555641628471
v -0.82247690100201143 0.69124749340077996 -0.1924962844903797
v 0.28085767438170323 0.016870108541510671 -0.16573956140660751
v 0.25717273904753168 0.018086813243989929 -0.1704978342154857
v 0.18105019978014175 0.013590433357931286 -0.18458415792704905
v 0.22742150694726204 0.01961514606357443 -0.17647481818170729
v -0.79999999999999993 0.7999999999999996 -0.19999999999999993
v -0.80125058783257452 0.54646788505173682 -0.17483437668005988
v -0.79999999999999982 0.54242025779049308 -0.17424202577904929
v -0.78689349220580873 0.5 -0.16803402383087132
v -0.78204935879571547 0.48432157587250158 -0.16573956140660748
v 0.96485326069945621 -0.1063741265035949 0.15536540175527791
v 0.95715297845357261 -0.099999999999999867 0.15357294676803587
v 0.90158172555252702 -0.053999323058074748 0.1406371911386865
v -0.7368271670763209 0.36303472806319104 -0.14682754786776722
v -0.75060978773700582 0.40000000000000036 -0.15259146816055091
v 1.3255156696458295 -0.40949025430996439 0.23977637587787087
f 70 71 45
f 45 71 46
f 72 73 47
f 47 73 48
f 89 90 64
f 64 90 65
f 91 92 66
f 66 92 67
f 158 159 135
f 135 159 136
f 159 160 136
f 136 160 137
f 160 161 137
f 138 162 139
f 143 167 144
f 170 171 147
f 148 172 149
f 158 180 159
f 180 181 159
f 159 181 160
f 187 188 166
f 195 196 181
f 181 196 182
f 197 198 183
f 183 198 184
f 199 200 187
f 187 200 188
f 189 202 190
f 204 205 193
f 193 205 194
f 195 211 196
f 211 212 196
f 213 214 197
f 197 214 198
f 217 218 199
f 199 218 200
f 219 220 201
f 221 222 203
f 223 224 204
f 204 224 205
f 211 225 212
f 226 227 213
f 213 227 214
f 251 252 234
f 234 252 235
f 253 254 236
f 255 256 239
f 239 256 240
f 257 258 241
f 241 258 242
f 259 260 243
f 243 260 244
f 274 275 261
f 261 275 262
f 281 282 268
f 268 282 269
f 283 284 270
f 270 284 271
f 274 287 275
f 287 288 275
f 275 288 276
f 291 292 287
f 287 292 288
f 293 294 289
f 305 306 291
f 291 306 292
f 307 308 293
f 293 308 294
f 313 314 298
f 298 314 299
f 315 316 300
f 300 316 301
f 343 344 328
f 328 344 329
f 363 364 350
f 350 364 351
f 365 366 352
f 352 366 353
f 370 371 360
f 360 371 361
f 370 372 371
f 387 388 379
f 379 388 380
f 413 414 398
f 398 414 399
f 416 417 400
f 400 417 401
f 420 421 404
f 404 421 405
f 416 426 417
f 417 427 418
f 428 429 427
f 456 457 431
f 431 457 432
f 458 459 433
f 433 459 434
f 460 461 435
f 462 463 436
f 436 463 437
f 463 464 437
f 437 464 438
f 465 466 439
f 439 466 440
f 312 616 613
f 405 649 648
f 663 668 357
f 672 681 211
f 696 704 233
f 708 709 251
f 502 508 490
f 508 515 490
f 506 512 510
f 488 501 498
f 487 522 519
f 519 526 487
f 526 535 487
f 495 527 525
f 513 515 493
f 511 512 507
f 509 511 500
f 502 521 518
f 490 521 502
f 490 527 521
f 497 538 536
f 503 527 490
f 525 527 503
f 486 525 503
f 503 513 486
f 503 515 513
f 490 515 503
f 560 584 545
f 545 561 560
f 514 516 506
f 508 516 515
f 515 516 493
f 554 591 590
f 566 578 575
f 575 586 582
f 549 578 576
f 575 578 549
f 549 586 575
f 502 518 485
f 485 518 498
f 581 584 560
f 557 583 581
f 555 558 541
f 541 560 555
f 557 581 541
f 541 581 560
f 558 564 562
f 562 564 546
f 558 562 541
f 541 562 557
f 492 512 511
f 492 517 510
f 510 512 492
f 492 511 509
f 489 511 507
f 500 511 489
f 518 521 494
f 525 533 495
f 507 512 491
f 491 516 508
f 491 512 506
f 506 516 491
f 559 574 540
f 540 574 554
f 574 576 554
f 549 576 574
f 582 586 550
f 550 586 584
f 550 584 581
f 581 583 550
f 499 501 489
f 498 501 499
f 498 499 485
f 489 507 499
f 519 528 526
f 494 528 519
f 521 528 494
f 526 528 495
f 495 528 527
f 527 528 521
f 536 538 531
f 530 533 525
f 504 530 486
f 486 530 525
f 495 537 526
f 533 537 495
f 526 537 535
f 533 538 537
f 535 537 497
f 537 538 497
f 505 507 491
f 499 507 505
f 499 505 485
f 491 508 505
f 505 508 502
f 485 505 502
f 548 580 570
f 577 586 549
f 574 577 549
f 584 586 577
f 559 577 574
f 545 577 559
f 545 584 577
f 544 583 557
f 522 524 519
f 519 524 494
f 531 538 496
f 496 538 533
f 530 532 496
f 496 533 530
f 572 573 566
f 566 575 542
f 575 582 542
f 542 582 570
f 542 572 566
f 582 585 570
f 570 585 548
f 550 585 582
f 583 585 550
f 543 591 554
f 554 576 543
f 589 592 591
f 589 591 543
f 553 589 543
f 576 578 568
f 543 576 568
f 543 568 553
f 562 563 557
f 557 563 544
f 546 563 562
f 494 520 518
f 494 524 520
f 518 520 498
f 520 524 523
f 498 520 488
f 520 523 488
f 496 534 531
f 531 534 529
f 532 534 496
f 570 580 579
f 570 579 542
f 542 579 572
f 571 583 544
f 548 585 571
f 571 585 583
f 551 592 589
f 588 592 551
f 547 573 567
f 568 578 547
f 566 573 547
f 547 578 566
f 548 571 569
f 556 571 544
f 569 571 556
f 551 589 587
f 539 587 553
f 587 589 553
f 547 567 565
f 539 565 552
f 565 567 552
f 565 568 547
f 553 565 539
f 553 568 565
f 593 594 500
f 536 628 627
f 523 631 630
f 630 632 523
f 580 665 664
f 522 625 618
f 546 661 656
f 686 687 569
f 556 683 682
f 619 620 552
f 492 596 517
f 492 597 596
f 375 701 383
f 374 701 375
f 383 701 610
f 492 602 597
f 509 602 492
f 608 609 489
f 501 608 489
f 489 609 593
f 489 593 500
f 522 618 617
f 622 623 488
f 488 624 622
f 523 632 488
f 632 636 488
f 488 636 624
f 536 614 497
f 536 639 614
f 614 615 497
f 627 639 536
f 531 643 628
f 531 628 536
f 531 644 643
f 225 694 226
f 681 694 225
f 211 681 225
f 642 647 573
f 641 642 573
f 573 647 567
f 567 647 633
f 694 696 233
f 227 694 233
f 226 694 227
f 546 655 654
f 546 656 655
f 524 657 652
f 524 631 523
f 524 652 631
f 522 617 524
f 621 657 524
f 617 621 524
f 497 615 612
f 535 612 611
f 497 612 535
f 535 611 603
f 535 603 598
f 249 697 232
f 249 698 697
f 250 698 249
f 232 697 690
f 529 645 531
f 531 645 644
f 234 708 251
f 704 708 234
f 391 695 382
f 595 695 391
f 529 659 646
f 529 646 645
f 548 674 580
f 548 675 674
f 573 653 641
f 572 653 573
f 650 653 572
f 633 635 567
f 563 676 544
f 676 677 544
f 546 654 563
f 654 673 563
f 673 676 563
f 580 674 666
f 580 666 665
f 579 670 572
f 572 670 651
f 572 651 650
f 564 661 546
f 658 661 564
f 580 664 579
f 664 667 579
f 517 707 706
f 517 706 705
f 596 707 517
f 667 670 579
f 509 702 602
f 509 703 702
f 251 710 252
f 709 710 251
f 710 711 252
f 552 635 619
f 567 635 552
f 501 680 608
f 551 693 691
f 551 699 693
f 623 680 501
f 488 623 501
f 551 692 588
f 691 692 551
f 403 637 595
f 404 637 403
f 403 595 391
f 487 634 626
f 487 626 522
f 522 626 625
f 569 687 548
f 548 687 675
f 599 600 487
f 600 634 487
f 685 686 569
f 535 599 487
f 598 599 535
f 677 679 544
f 544 679 556
f 588 692 688
f 405 648 404
f 404 648 637
f 698 703 509
f 697 698 509
f 556 684 569
f 684 685 569
f 682 684 556
f 500 690 509
f 690 697 509
f 689 690 500
f 407 642 406
f 407 647 642
f 633 647 407
f 407 635 633
f 619 635 392
f 392 620 619
f 392 635 407
f 607 620 392
f 556 679 678
f 678 683 556
f 279 707 266
f 280 706 279
f 706 707 279
f 594 689 500
f 552 606 539
f 539 606 605
f 587 699 551
f 587 700 699
f 539 604 587
f 539 605 604
f 587 701 700
f 610 701 587
f 604 610 587
f 552 607 606
f 552 620 607
f 280 714 712
f 297 714 296
f 296 714 280
f 649 658 564
f 648 649 564
f 637 648 564
f 595 637 564
f 564 695 595
f 421 649 405
f 421 661 658
f 421 658 649
f 656 661 421
f 655 656 421
f 638 640 517
f 629 638 517
f 616 629 517
f 613 616 517
f 601 613 517
f 517 714 601
f 712 714 517
f 705 712 517
f 601 714 297
f 311 601 297
f 312 601 311
f 312 613 601
f 529 671 660
f 529 672 671
f 529 660 659
f 529 681 672
f 529 694 681
f 529 696 694
f 529 704 696
f 529 710 709
f 529 708 704
f 529 709 708
f 449 673 448
f 449 676 673
f 449 677 676
f 654 655 421
f 448 673 654
f 449 679 677
f 448 654 421
f 678 679 449
f 422 674 451
f 666 674 422
f 450 686 685
f 450 687 686
f 675 687 450
f 451 675 450
f 674 675 451
f 450 685 684
f 588 669 668
f 588 668 663
f 588 663 662
f 529 713 711
f 529 711 710
f 588 688 669
f 327 616 312
f 327 629 616
f 450 682 449
f 682 683 449
f 450 684 682
f 449 683 678
f 342 629 327
f 342 638 629
f 342 640 638
f 662 663 357
f 344 662 357
f 343 662 344
f 133 600 599
f 157 600 133
f 133 599 134
f 134 599 598
f 598 603 134
f 135 615 614
f 135 614 158
f 134 615 135
f 612 615 134
f 611 612 134
f 603 611 134
f 357 669 358
f 358 669 368
f 668 669 357
f 383 606 392
f 604 605 383
f 605 606 383
f 606 607 392
f 383 610 604
f 179 621 617
f 179 617 156
f 617 618 156
f 156 618 157
f 618 625 157
f 625 626 157
f 626 634 157
f 157 634 600
f 406 642 641
f 641 653 406
f 406 653 650
f 650 651 406
f 669 688 368
f 374 692 691
f 368 692 374
f 691 693 374
f 688 692 368
f 614 639 158
f 158 639 627
f 627 628 158
f 628 643 158
f 624 636 210
f 177 636 178
f 210 636 177
f 622 624 210
f 158 645 180
f 644 645 158
f 645 646 180
f 643 644 158
f 181 660 195
f 660 671 195
f 180 660 181
f 178 636 632
f 178 632 630
f 630 631 178
f 631 652 178
f 178 652 179
f 652 657 179
f 179 657 621
f 646 659 180
f 659 660 180
f 422 667 664
f 664 665 422
f 665 666 422
f 422 670 667
f 406 670 422
f 651 670 406
f 195 671 211
f 671 672 211
f 210 609 608
f 608 680 210
f 210 680 623
f 210 623 622
f 593 609 232
f 232 594 593
f 232 609 210
f 232 689 594
f 232 690 689
f 693 699 374
f 699 700 374
f 700 701 374
f 702 703 250
f 250 703 698
f 266 602 250
f 597 602 266
f 602 702 250
f 596 597 266
f 266 707 596
f 280 712 705
f 705 706 280
f 529 850 849
f 356 861 860
f 860 865 356
f 866 869 328
f 847 878 254
f 888 889 382
f 381 900 876
f 415 912 908
f 891 913 640
f 514 945 944
f 564 951 950
f 564 969 962
f 950 969 564
f 564 971 951
f 564 977 971
f 560 984 942
f 517 955 954
f 517 956 955
f 517 959 956
f 986 991 516
f 517 960 959
f 517 961 960
f 957 961 517
f 530 1029 1015
f 1062 1063 588
f 1063 1064 588
f 1064 1068 588
f 1068 1069 588
f 1069 1071 588
f 1071 1072 588
f 588 1072 1055
f 750 835 717
f 835 838 830
f 717 835 830
f 832 839 745
f 750 761 724
f 748 751 717
f 717 830 748
f 757 764 762
f 727 764 757
f 828 829 825
f 732 825 772
f 732 828 825
f 740 808 806
f 724 837 750
f 750 837 835
f 836 839 832
f 761 763 755
f 755 763 726
f 753 755 726
f 724 761 755
f 759 761 750
f 751 762 759
f 717 759 750
f 751 759 717
f 762 764 728
f 728 763 761
f 759 762 728
f 728 761 759
f 830 838 744
f 838 843 744
f 760 763 728
f 728 764 760
f 756 764 727
f 760 764 756
f 718 760 756
f 745 842 832
f 722 817 791
f 801 804 782
f 772 825 823
f 721 827 773
f 773 794 721
f 773 828 732
f 827 828 773
f 773 796 794
f 732 796 773
f 812 816 805
f 731 814 769
f 817 820 791
f 790 806 719
f 746 838 835
f 835 837 746
f 746 844 838
f 837 839 746
f 836 844 746
f 746 839 836
f 749 755 753
f 724 755 749
f 754 760 718
f 718 785 754
f 726 763 754
f 754 763 760
f 754 787 726
f 785 787 754
f 774 785 718
f 727 758 756
f 747 842 841
f 765 834 831
f 841 842 834
f 729 841 834
f 729 834 765
f 831 834 745
f 834 842 745
f 786 795 722
f 786 799 795
f 736 789 787
f 736 787 785
f 736 799 786
f 786 789 736
f 782 784 772
f 784 798 796
f 772 784 732
f 784 796 732
f 796 798 738
f 738 799 797
f 795 799 738
f 738 798 795
f 738 797 794
f 794 796 738
f 783 817 722
f 722 795 783
f 795 798 783
f 825 829 743
f 823 825 743
f 716 782 772
f 716 801 782
f 772 823 716
f 794 797 775
f 721 794 775
f 775 797 733
f 733 777 775
f 721 775 770
f 775 777 770
f 814 816 741
f 741 816 812
f 723 805 800
f 802 812 723
f 723 812 805
f 800 807 723
f 790 809 806
f 806 809 740
f 833 837 724
f 749 833 724
f 831 833 749
f 833 839 837
f 745 839 833
f 745 833 831
f 733 797 788
f 733 788 774
f 797 799 788
f 774 788 785
f 788 799 736
f 785 788 736
f 718 756 752
f 752 774 718
f 756 758 752
f 752 758 725
f 840 841 766
f 766 841 729
f 719 840 766
f 766 790 719
f 765 831 715
f 749 753 715
f 715 831 749
f 715 778 765
f 753 778 715
f 753 780 778
f 787 789 780
f 726 787 780
f 726 780 753
f 804 821 819
f 783 819 817
f 818 821 802
f 807 818 723
f 723 818 802
f 811 814 741
f 769 814 811
f 769 811 720
f 802 821 739
f 739 804 801
f 739 821 804
f 740 822 807
f 809 822 740
f 820 822 809
f 807 822 818
f 800 810 807
f 807 810 740
f 752 776 774
f 725 776 752
f 771 776 725
f 774 776 733
f 776 777 733
f 771 777 776
f 766 792 790
f 729 792 766
f 780 789 734
f 778 780 734
f 782 804 735
f 804 819 735
f 735 819 783
f 783 798 735
f 735 798 784
f 735 784 782
f 720 811 768
f 742 821 818
f 818 822 742
f 819 821 742
f 742 822 820
f 742 820 817
f 817 819 742
f 737 809 790
f 790 792 737
f 737 820 809
f 792 793 737
f 791 820 737
f 737 793 791
f 765 781 729
f 781 792 729
f 781 793 792
f 778 781 765
f 734 781 778
f 734 793 781
f 779 789 786
f 734 789 779
f 779 786 722
f 722 791 779
f 791 793 779
f 779 793 734
f 767 801 716
f 716 823 767
f 741 813 811
f 811 813 768
f 823 824 767
f 743 824 823
f 768 813 730
f 767 824 730
f 741 815 813
f 812 815 741
f 802 815 812
f 739 815 802
f 730 826 768
f 824 826 730
f 801 803 739
f 803 815 739
f 767 803 801
f 813 815 803
f 730 803 767
f 730 813 803
f 838 844 843
f 853 854 725
f 879 880 720
f 826 921 920
f 901 902 843
f 952 953 748
f 757 898 897
f 930 931 744
f 829 1019 1018
f 967 968 744
f 993 1042 727
f 840 1059 1051
f 998 999 747
f 1076 1077 740
f 816 1074 1073
f 870 872 731
f 982 529 1031
f 850 529 982
f 14 13 38
f 39 14 38
f 97 96 121
f 122 97 121
f 267 711 713
f 252 711 267
f 315 314 329
f 330 315 329
f 14 39 40
f 15 14 40
f 1076 996 559
f 545 559 996
f 1077 1076 559
f 1079 1077 559
f 1078 1079 559
f 938 1078 559
f 98 97 122
f 123 98 122
f 2 1 26
f 27 2 26
f 229 228 245
f 246 229 245
f 315 330 331
f 316 315 331
f 16 15 40
f 41 16 40
f 215 214 227
f 234 215 227
f 233 234 227
f 704 234 233
f 513 997 1054
f 513 493 997
f 1051 513 1054
f 1059 513 1051
f 936 513 1059
f 99 98 123
f 124 99 123
f 229 246 247
f 230 229 247
f 216 234 235
f 215 234 216
f 504 486 925
f 1025 504 925
f 317 316 331
f 332 317 331
f 17 16 41
f 42 17 41
f 1066 922 540
f 1027 1066 540
f 554 1027 540
f 483 482 484
f 481 482 483
f 429 445 446
f 428 445 429
f 231 230 247
f 248 231 247
f 2 27 28
f 3 2 28
f 100 99 124
f 125 100 124
f 1085 390 1086
f 882 390 1085
f 18 17 42
f 43 18 42
f 217 236 237
f 216 236 217
f 235 236 216
f 317 332 333
f 318 317 333
f 231 248 249
f 232 231 249
f 1045 236 254
f 1045 237 236
f 1045 254 878
f 1088 237 1045
f 1089 237 1088
f 376 375 383
f 384 376 383
f 431 430 455
f 456 431 455
f 19 18 43
f 44 19 43
f 4 3 28
f 29 4 28
f 1084 238 237
f 1084 237 1089
f 1083 238 1084
f 102 101 126
f 127 102 126
f 1086 390 391
f 1087 1086 391
f 1087 391 382
f 889 1087 382
f 218 237 238
f 217 237 218
f 320 319 334
f 335 320 334
f 19 44 45
f 20 19 45
f 377 376 384
f 385 377 384
f 433 432 457
f 458 433 457
f 5 4 29
f 30 5 29
f 21 20 45
f 46 21 45
f 103 102 127
f 128 103 127
f 398 399 867
f 854 398 867
f 853 398 854
f 859 398 853
f 1050 398 859
f 1042 398 1050
f 389 398 1042
f 993 389 1042
f 992 389 993
f 899 389 992
f 384 383 392
f 393 384 392
f 321 320 335
f 336 321 335
f 385 384 393
f 394 385 393
f 435 434 459
f 460 435 459
f 22 21 46
f 47 22 46
f 104 103 128
f 129 104 128
f 1058 219 218
f 1081 1052 238
f 1052 1053 218
f 1052 218 238
f 1058 218 1053
f 1075 219 1058
f 1080 219 1075
f 239 219 1080
f 1082 1081 238
f 1070 239 1080
f 1067 1065 255
f 885 255 1065
f 239 1067 255
f 1070 1067 239
f 236 235 252
f 253 236 252
f 321 336 337
f 322 321 337
f 379 378 386
f 387 379 386
f 387 395 396
f 386 395 387
f 1082 238 1083
f 105 104 129
f 130 105 129
f 6 5 30
f 31 6 30
f 23 22 47
f 48 23 47
f 436 435 461
f 462 436 461
f 220 219 240
f 239 240 219
f 868 399 933
f 867 399 868
f 388 396 397
f 387 396 388
f 323 322 337
f 338 323 337
f 380 388 389
f 381 380 389
f 400 871 1090
f 949 400 1090
f 24 23 48
f 49 24 48
f 106 105 130
f 131 106 130
f 7 6 31
f 32 7 31
f 389 397 398
f 388 397 389
f 439 438 464
f 465 439 464
f 221 240 241
f 220 240 221
f 25 24 49
f 50 25 49
f 324 323 338
f 339 324 338
f 770 777 845
f 846 845 777
f 8 7 32
f 33 8 32
f 26 51 52
f 27 26 52
f 440 466 467
f 441 440 467
f 725 758 859
f 853 725 859
f 222 241 242
f 221 241 222
f 28 27 52
f 53 28 52
f 107 106 131
f 132 107 131
f 867 868 771
f 867 771 725
f 854 867 725
f 9 8 33
f 34 9 33
f 241 240 256
f 257 241 256
f 108 107 132
f 133 108 132
f 223 242 243
f 222 242 223
f 720 886 769
f 769 886 887
f 880 886 720
f 243 242 258
f 259 243 258
f 442 441 467
f 468 442 467
f 9 34 35
f 10 9 35
f 769 892 893
f 887 892 769
f 29 28 53
f 54 29 53
f 324 339 340
f 325 324 340
f 224 243 244
f 223 243 224
f 768 905 907
f 720 768 907
f 906 905 768
f 246 245 261
f 262 246 261
f 109 108 133
f 134 109 133
f 743 910 824
f 824 910 911
f 11 10 35
f 36 11 35
f 30 29 54
f 55 30 54
f 768 826 914
f 906 768 914
f 443 442 468
f 469 443 468
f 12 11 36
f 37 12 36
f 247 246 262
f 263 247 262
f 914 826 919
f 920 919 826
f 326 325 340
f 341 326 340
f 13 12 37
f 38 13 37
f 247 263 264
f 248 247 264
f 826 824 921
f 911 921 824
f 109 134 135
f 110 109 135
f 31 30 55
f 56 31 55
f 444 443 469
f 470 444 469
f 32 31 56
f 57 32 56
f 327 326 341
f 342 327 341
f 249 248 264
f 265 249 264
f 444 470 471
f 445 444 471
f 250 249 265
f 266 250 265
f 111 110 135
f 136 111 135
f 958 954 890
f 890 954 955
f 956 890 955
f 844 958 890
f 901 844 890
f 843 844 901
f 959 890 956
f 960 890 959
f 891 890 960
f 961 891 960
f 957 891 961
f 913 891 957
f 33 32 57
f 58 33 57
f 446 445 471
f 472 446 471
f 762 751 874
f 873 762 874
f 33 58 59
f 34 33 59
f 112 111 136
f 137 112 136
f 948 952 830
f 748 830 952
f 35 34 59
f 60 35 59
f 113 112 137
f 161 113 137
f 975 979 832
f 836 832 979
f 974 975 832
f 446 472 473
f 447 446 473
f 857 253 252
f 857 252 267
f 856 253 857
f 848 253 856
f 448 447 473
f 474 448 473
f 35 60 61
f 36 35 61
f 903 904 982
f 904 850 982
f 849 850 904
f 855 849 904
f 138 161 183
f 182 183 161
f 113 161 138
f 114 113 138
f 862 401 402
f 862 402 390
f 882 862 390
f 874 751 875
f 883 875 751
f 330 329 344
f 345 330 344
f 37 36 61
f 62 37 61
f 979 980 836
f 836 980 988
f 449 448 474
f 475 449 474
f 391 402 403
f 390 402 391
f 953 934 748
f 934 939 748
f 115 114 138
f 139 115 138
f 37 62 63
f 38 37 63
f 976 958 836
f 844 836 958
f 988 976 836
f 331 330 345
f 346 331 345
f 39 38 63
f 64 39 63
f 939 884 751
f 883 751 884
f 748 939 751
f 331 346 347
f 332 331 347
f 40 39 64
f 65 40 64
f 450 449 475
f 476 450 475
f 757 899 992
f 897 899 757
f 256 255 268
f 269 256 268
f 727 757 992
f 993 727 992
f 115 139 140
f 116 115 140
f 393 407 408
f 392 407 393
f 333 332 347
f 348 333 347
f 876 900 762
f 757 762 898
f 900 898 762
f 873 876 762
f 40 65 66
f 41 40 66
f 451 450 476
f 477 451 476
f 256 269 270
f 257 256 270
f 117 116 140
f 141 117 140
f 394 408 409
f 393 408 394
f 335 349 350
f 334 349 335
f 881 865 843
f 860 843 865
f 861 843 860
f 930 843 861
f 744 843 930
f 902 881 843
f 258 257 270
f 271 258 270
f 452 451 477
f 478 452 477
f 42 41 66
f 67 42 66
f 932 771 933
f 868 933 771
f 258 271 272
f 259 258 272
f 117 141 142
f 118 117 142
f 143 118 142
f 166 143 142
f 1001 1002 827
f 827 1002 1008
f 43 42 67
f 68 43 67
f 827 721 1001
f 1004 1001 721
f 336 350 351
f 335 350 336
f 259 272 273
f 260 259 273
f 453 452 478
f 479 453 478
f 851 852 744
f 744 852 967
f 858 851 744
f 918 858 744
f 44 43 68
f 69 44 68
f 119 118 143
f 144 119 143
f 931 918 744
f 337 351 352
f 336 351 337
f 262 275 276
f 263 262 276
f 829 828 1017
f 1009 1017 828
f 454 453 479
f 480 454 479
f 1008 1020 827
f 45 44 69
f 70 45 69
f 120 119 144
f 145 120 144
f 842 963 964
f 974 842 964
f 832 842 974
f 264 263 276
f 277 264 276
f 338 337 353
f 352 353 337
f 47 46 71
f 72 47 71
f 856 857 1032
f 857 1031 1032
f 903 1031 857
f 982 1031 903
f 121 120 145
f 146 121 145
f 265 264 277
f 278 265 277
f 827 1020 828
f 1020 1009 828
f 339 353 354
f 338 353 339
f 49 48 73
f 74 49 73
f 1017 1016 829
f 829 1016 1019
f 122 121 146
f 147 122 146
f 265 278 279
f 266 265 279
f 830 947 948
f 744 947 830
f 340 354 355
f 339 354 340
f 50 49 74
f 75 50 74
f 744 946 947
f 968 946 744
f 123 122 147
f 171 123 147
f 396 395 410
f 411 396 410
f 341 355 356
f 340 355 341
f 52 51 76
f 77 52 76
f 148 171 193
f 192 193 171
f 123 171 148
f 124 123 148
f 848 856 1043
f 847 848 1043
f 1044 1043 856
f 878 847 1043
f 1045 878 1043
f 1032 1044 856
f 397 396 411
f 412 397 411
f 125 124 148
f 149 125 148
f 53 52 77
f 78 53 77
f 127 126 150
f 151 127 150
f 944 945 842
f 842 945 963
f 985 944 842
f 398 397 412
f 413 398 412
f 128 127 151
f 152 128 151
f 932 941 771
f 777 771 941
f 846 777 941
f 54 53 78
f 79 54 78
f 1050 859 758
f 55 54 79
f 80 55 79
f 1051 1054 840
f 841 840 1054
f 270 269 282
f 283 270 282
f 1052 1041 1053
f 1039 1041 1052
f 758 727 1050
f 1042 1050 727
f 56 55 80
f 81 56 80
f 907 879 720
f 272 271 284
f 285 272 284
f 743 829 1018
f 1033 743 1018
f 57 56 81
f 82 57 81
f 273 272 285
f 286 273 285
f 1053 1013 1058
f 1012 1058 1013
f 1022 1013 1053
f 1041 1022 1053
f 26 1 481
f 51 26 481
f 76 51 481
f 101 76 481
f 126 101 481
f 150 126 481
f 173 150 481
f 206 173 481
f 228 206 481
f 245 228 481
f 261 245 481
f 274 261 481
f 290 274 481
f 483 290 481
f 304 290 483
f 319 304 483
f 334 319 483
f 349 334 483
f 362 349 483
f 378 362 483
f 386 378 483
f 395 386 483
f 410 395 483
f 430 410 483
f 455 430 483
f 58 57 82
f 83 58 82
f 1033 910 743
f 721 1003 1004
f 770 1003 721
f 287 290 291
f 274 290 287
f 129 128 152
f 153 129 152
f 1007 1003 770
f 277 276 288
f 289 277 288
f 130 129 153
f 154 130 153
f 1027 1028 1067
f 1067 1028 1065
f 1066 1027 1067
f 59 58 83
f 84 59 83
f 345 357 358
f 344 357 345
f 278 277 289
f 294 278 289
f 719 806 937
f 924 719 937
f 923 719 924
f 131 130 154
f 155 131 154
f 60 59 84
f 85 60 84
f 845 940 770
f 770 940 1007
f 346 345 359
f 358 359 345
f 949 415 416
f 949 416 400
f 912 415 949
f 131 155 156
f 132 131 156
f 922 1070 719
f 1066 1070 922
f 923 922 719
f 1067 1070 1066
f 279 294 295
f 278 294 279
f 347 359 360
f 346 359 347
f 936 1059 719
f 840 719 1059
f 935 936 719
f 61 60 85
f 86 61 85
f 133 132 156
f 157 133 156
f 348 347 361
f 360 361 347
f 401 417 418
f 402 401 418
f 1029 1026 1075
f 1015 1029 1075
f 1058 1015 1075
f 1012 1015 1058
f 280 295 296
f 279 295 280
f 403 402 418
f 419 403 418
f 61 86 87
f 62 61 87
f 403 419 420
f 404 403 420
f 63 62 87
f 88 63 87
f 925 926 719
f 719 926 935
f 925 719 1070
f 1025 925 1070
f 1026 1025 1070
f 1080 1026 1070
f 1075 1026 1080
f 64 63 88
f 89 64 88
f 747 841 1054
f 997 747 1054
f 998 747 997
f 456 455 483
f 457 456 483
f 458 457 483
f 459 458 483
f 460 459 483
f 461 460 483
f 462 461 483
f 463 462 483
f 464 463 483
f 465 464 483
f 466 465 483
f 467 466 483
f 468 467 483
f 469 468 483
f 470 469 483
f 471 470 483
f 472 471 483
f 473 472 483
f 484 473 483
f 474 473 484
f 475 474 484
f 476 475 484
f 477 476 484
f 478 477 484
f 479 478 484
f 480 479 484
f 66 65 90
f 91 66 90
f 1052 1081 1039
f 1038 1039 1081
f 407 406 422
f 423 407 422
f 350 349 362
f 363 350 362
f 68 67 92
f 93 68 92
f 1082 1083 1038
f 1038 1083 1084
f 1037 1038 1084
f 1081 1082 1038
f 162 183 184
f 138 183 162
f 282 298 299
f 281 298 282
f 351 364 365
f 352 351 365
f 986 985 747
f 842 747 985
f 991 986 747
f 1006 991 747
f 408 407 423
f 424 408 423
f 140 139 162
f 163 140 162
f 68 93 94
f 69 68 94
f 1088 1045 1048
f 1045 1043 1049
f 1048 1045 1049
f 354 353 366
f 367 354 366
f 283 299 300
f 282 299 283
f 999 1000 747
f 747 1000 1006
f 140 163 164
f 141 140 164
f 409 408 424
f 425 409 424
f 141 164 165
f 142 141 165
f 1089 1088 1037
f 1036 1037 1088
f 1084 1089 1037
f 1048 1036 1088
f 284 300 301
f 283 300 284
f 142 165 166
f 187 166 165
f 143 166 167
f 188 167 166
f 70 69 94
f 95 70 94
f 805 816 1073
f 981 805 1073
f 978 805 981
f 145 144 167
f 168 145 167
f 411 430 431
f 410 430 411
f 800 972 973
f 978 972 800
f 805 978 800
f 965 800 966
f 973 966 800
f 285 301 302
f 284 301 285
f 70 95 96
f 71 70 96
f 412 431 432
f 411 431 412
f 286 302 303
f 285 302 286
f 72 71 96
f 97 72 96
f 413 432 433
f 412 432 413
f 288 292 293
f 289 288 293
f 73 72 97
f 98 73 97
f 863 1056 866
f 1055 866 1056
f 869 866 1055
f 877 869 1055
f 1072 877 1055
f 1071 877 1072
f 1069 877 1071
f 1068 877 1069
f 1064 877 1068
f 1063 877 1064
f 1062 877 1063
f 909 877 1062
f 414 433 434
f 413 433 414
f 454 480 484
f 425 454 484
f 409 425 484
f 394 409 484
f 385 394 484
f 377 385 484
f 372 377 484
f 371 372 484
f 361 371 484
f 348 361 484
f 333 348 484
f 318 333 484
f 303 318 484
f 286 303 484
f 482 286 484
f 273 286 482
f 260 273 482
f 244 260 482
f 224 244 482
f 205 224 482
f 194 205 482
f 172 194 482
f 149 172 482
f 125 149 482
f 100 125 482
f 75 100 482
f 50 75 482
f 25 50 482
f 74 73 98
f 99 74 98
f 938 806 1078
f 937 806 938
f 146 145 168
f 169 146 168
f 147 146 169
f 170 147 169
f 1030 1011 1065
f 885 1011 894
f 1010 894 1011
f 1065 1011 885
f 1028 1030 1065
f 172 193 194
f 148 193 172
f 1007 414 434
f 1007 434 435
f 940 414 1007
f 1003 1007 435
f 1004 1003 435
f 1001 1004 435
f 1001 435 436
f 1002 1001 436
f 806 808 1078
f 1079 1078 808
f 359 358 368
f 369 359 368
f 75 74 99
f 100 75 99
f 1010 1014 894
f 895 1014 1021
f 894 1014 895
f 151 150 173
f 174 151 173
f 290 304 305
f 291 290 305
f 1077 1079 808
f 740 1077 808
f 359 369 370
f 360 359 370
f 293 292 306
f 307 293 306
f 896 895 1021
f 917 896 1021
f 1023 917 1021
f 152 151 174
f 175 152 174
f 77 76 101
f 102 77 101
f 363 362 379
f 378 379 362
f 1023 1024 929
f 1034 929 1024
f 917 1023 929
f 295 294 308
f 309 295 308
f 153 152 175
f 176 153 175
f 814 1086 1087
f 1085 1086 814
f 78 77 102
f 103 78 102
f 364 379 380
f 363 379 364
f 295 309 310
f 296 295 310
f 814 731 872
f 862 814 872
f 882 814 862
f 1085 814 882
f 154 153 176
f 177 154 176
f 79 78 103
f 104 79 103
f 155 154 177
f 178 155 177
f 297 296 310
f 311 297 310
f 365 364 373
f 380 373 364
f 381 373 380
f 80 79 104
f 105 80 104
f 886 441 442
f 886 442 415
f 887 886 415
f 892 887 415
f 81 80 105
f 106 81 105
f 816 970 1074
f 977 1074 970
f 814 970 816
f 971 977 970
f 916 971 970
f 951 971 916
f 950 951 916
f 969 950 916
f 962 969 916
f 915 962 916
f 416 442 443
f 415 442 416
f 814 888 970
f 889 888 814
f 1087 889 814
f 426 443 444
f 416 443 426
f 82 81 106
f 107 82 106
f 417 426 427
f 428 427 426
f 810 984 989
f 942 984 810
f 943 942 810
f 965 943 810
f 800 965 810
f 24 25 482
f 23 24 482
f 22 23 482
f 21 22 482
f 20 21 482
f 19 20 482
f 18 19 482
f 481 18 482
f 17 18 481
f 16 17 481
f 15 16 481
f 14 15 481
f 13 14 481
f 12 13 481
f 11 12 481
f 10 11 481
f 9 10 481
f 8 9 481
f 7 8 481
f 6 7 481
f 5 6 481
f 4 5 481
f 3 4 481
f 2 3 481
f 1 2 481
f 300 299 314
f 315 300 314
f 156 155 178
f 179 156 178
f 83 82 107
f 108 83 107
f 1061 1057 863
f 1056 863 1057
f 864 1061 863
f 1060 1061 864
f 419 418 427
f 429 419 427
f 160 181 182
f 161 160 182
f 810 989 990
f 1005 810 990
f 163 162 184
f 185 163 184
f 302 301 316
f 317 302 316
f 164 163 185
f 186 164 185
f 165 164 186
f 187 165 186
f 84 83 108
f 109 84 108
f 1047 1046 1060
f 1061 1060 1046
f 987 1047 1060
f 983 1047 987
f 168 167 188
f 189 168 188
f 420 429 447
f 446 447 429
f 419 429 420
f 740 810 996
f 995 996 810
f 1076 740 996
f 169 168 189
f 190 169 189
f 303 302 317
f 318 303 317
f 928 1034 1035
f 929 1034 928
f 170 169 190
f 191 170 190
f 85 84 109
f 110 85 109
f 810 994 995
f 1005 994 810
f 171 170 191
f 192 171 191
f 421 420 448
f 447 448 420
f 174 206 207
f 173 206 174
f 305 304 319
f 320 305 319
f 983 927 1035
f 928 1035 927
f 1040 983 1035
f 1047 983 1040
f 175 174 208
f 207 208 174
f 85 110 111
f 86 85 111
f 176 208 209
f 175 208 176
f 305 320 321
f 306 305 321
f 949 1090 769
f 912 949 769
f 908 912 769
f 893 908 769
f 177 209 210
f 176 209 177
f 87 86 111
f 112 87 111
f 731 769 1090
f 871 731 1090
f 870 731 871
f 369 374 375
f 368 374 369
f 307 306 321
f 322 307 321
f 370 375 376
f 369 375 370
f 88 87 112
f 113 88 112
f 183 182 196
f 197 183 196
f 308 307 322
f 323 308 322
f 372 376 377
f 370 376 372
f 89 88 113
f 114 89 113
f 185 184 198
f 215 185 198
f 214 215 198
f 308 323 324
f 309 308 324
f 186 215 216
f 185 215 186
f 89 114 115
f 90 89 115
f 199 216 217
f 186 216 199
f 187 186 199
f 310 309 324
f 325 310 324
f 189 188 200
f 201 189 200
f 91 90 115
f 116 91 115
f 189 201 202
f 220 202 201
f 311 310 325
f 326 311 325
f 191 190 202
f 203 191 202
f 92 91 116
f 117 92 116
f 192 191 203
f 222 192 203
f 312 311 326
f 327 312 326
f 204 222 223
f 192 222 204
f 193 192 204
f 92 117 118
f 93 92 118
f 197 196 212
f 213 197 212
f 201 200 218
f 219 201 218
f 423 451 452
f 422 451 423
f 203 202 220
f 221 203 220
f 94 93 118
f 119 94 118
f 207 206 229
f 228 229 206
f 424 452 453
f 423 452 424
f 94 119 120
f 95 94 120
f 208 229 230
f 207 229 208
f 425 453 454
f 424 453 425
f 209 230 231
f 208 230 209
f 96 95 120
f 121 96 120
f 210 231 232
f 209 231 210
f 314 313 328
f 329 314 328
f 213 212 225
f 226 213 225
f 428 444 445
f 426 444 428
f 254 253 848
f 847 254 848
f 354 367 852
f 851 354 852
f 713 529 849
f 855 713 849
f 355 354 851
f 858 355 851
f 871 400 401
f 872 401 862
f 870 401 872
f 871 401 870
f 328 313 864
f 328 864 863
f 866 328 863
f 373 381 874
f 873 874 381
f 875 373 874
f 876 873 381
f 343 328 869
f 877 343 869
f 341 881 342
f 356 881 341
f 865 881 356
f 373 875 883
f 884 373 883
f 894 255 885
f 268 255 894
f 895 268 894
f 896 268 895
f 640 342 890
f 891 640 890
f 381 389 898
f 897 898 389
f 900 381 898
f 899 897 389
f 901 342 902
f 881 902 342
f 890 342 901
f 903 267 904
f 857 267 903
f 893 415 908
f 892 415 893
f 662 343 909
f 877 909 343
f 267 713 904
f 713 855 904
f 915 916 695
f 382 695 916
f 268 896 917
f 929 268 917
f 281 268 929
f 928 281 929
f 927 281 928
f 355 858 918
f 931 355 918
f 930 355 931
f 356 355 930
f 861 356 930
f 486 513 926
f 925 486 926
f 540 922 923
f 924 540 923
f 845 846 414
f 399 414 932
f 933 399 932
f 941 932 414
f 846 941 414
f 940 845 414
f 373 934 365
f 366 365 934
f 939 934 373
f 884 939 373
f 540 924 937
f 559 540 938
f 938 540 937
f 935 513 936
f 926 513 935
f 942 943 560
f 555 560 943
f 952 948 366
f 946 367 366
f 947 366 948
f 946 366 947
f 953 952 366
f 934 953 366
f 695 564 962
f 915 695 962
f 963 514 964
f 506 964 514
f 945 514 963
f 555 943 965
f 966 555 965
f 367 946 968
f 967 367 968
f 852 367 967
f 382 916 970
f 888 382 970
f 974 506 975
f 510 975 506
f 964 506 974
f 555 966 973
f 972 555 973
f 517 954 958
f 976 517 958
f 978 981 555
f 558 555 981
f 972 978 555
f 979 510 980
f 975 510 979
f 281 927 983
f 298 281 983
f 987 298 983
f 516 514 986
f 514 944 985
f 986 514 985
f 560 561 984
f 989 561 990
f 984 561 989
f 640 913 957
f 517 640 957
f 995 545 996
f 994 545 995
f 493 516 1000
f 999 493 1000
f 998 493 999
f 997 493 998
f 994 1005 545
f 561 545 1005
f 990 561 1005
f 516 991 1006
f 1000 516 1006
f 1017 437 438
f 1009 437 1017
f 1020 437 1009
f 436 437 1020
f 1008 436 1020
f 1002 436 1008
f 1016 1017 438
f 590 591 1014
f 1010 590 1014
f 1011 590 1010
f 1012 530 1015
f 1013 530 1012
f 532 1013 1022
f 530 1013 532
f 1021 591 1023
f 1024 1023 591
f 1014 591 1021
f 1026 1029 504
f 530 504 1029
f 1025 1026 504
f 1028 554 1030
f 1027 554 1028
f 554 590 1030
f 1011 1030 590
f 1033 438 439
f 1033 439 910
f 1018 438 1033
f 1019 438 1018
f 1016 438 1019
f 911 910 439
f 921 911 439
f 920 921 439
f 919 920 439
f 919 439 440
f 906 440 905
f 914 440 906
f 919 440 914
f 1035 591 1040
f 1034 591 1035
f 1024 591 1034
f 532 1022 1041
f 534 532 1036
f 1039 532 1041
f 1038 532 1039
f 1037 532 1038
f 1036 532 1037
f 880 441 886
f 879 441 880
f 907 441 879
f 905 441 907
f 440 441 905
f 591 592 1046
f 1047 591 1046
f 1040 591 1047
f 534 1036 1048
f 1049 534 1048
f 1032 1031 534
f 529 534 1031
f 1044 1032 534
f 588 1055 1056
f 1057 588 1056
f 313 298 987
f 1060 313 987
f 864 313 1060
f 592 588 1057
f 1061 592 1057
f 1046 592 1061
f 1043 534 1049
f 1044 534 1043
f 662 1062 588
f 909 1062 662
f 976 988 510
f 976 510 517
f 980 510 988
f 564 558 977
f 1073 558 981
f 1074 558 1073
f 977 558 1074
