# https://github.com/mikedh/trimesh
v -2.07719333635740089 2.58895242505612000 1.80000000000000004
v -2.07719333635740089 -2.51495242505612016 1.80000000000000004
v -0.50000000000000000 -1.54019333635740097 4.35195242505611990
v -0.50000000000000000 1.61419333635740081 4.35195242505611990
v -0.50000000000000000 -1.54019333635740097 -0.75195242505612003
v -0.50000000000000000 1.61419333635740081 -0.75195242505612003
v -3.05195242505612008 0.03700000000000000 0.22280666364259916
v -3.05195242505612008 0.03700000000000000 3.37719333635740071
v -0.50000000000000000 3.03699999999999992 1.80000000000000004
v -0.50000000000000000 -2.96300000000000008 1.80000000000000004
v -1.42705098312484213 -2.39005098312484243 3.29999999999999982
v -1.42705098312484213 2.46405098312484228 3.29999999999999982
v -0.50000000000000000 0.03700000000000000 4.79999999999999982
v -1.42705098312484213 -2.39005098312484243 0.30000000000000004
v -1.42705098312484213 2.46405098312484228 0.30000000000000004
v -0.50000000000000000 0.03700000000000000 -1.19999999999999996
v -2.92705098312484235 1.53700000000000014 0.87294901687515769
v -2.92705098312484235 -1.46300000000000030 0.87294901687515769
v -2.00000000000000000 -0.89005098312484232 -0.62705098312484231
v -2.00000000000000000 0.96405098312484239 -0.62705098312484231
v -2.92705098312484235 1.53700000000000014 2.72705098312484218
v -2.92705098312484235 -1.46300000000000030 2.72705098312484218
v -2.00000000000000000 -0.89005098312484232 4.22705098312484218
v -2.00000000000000000 0.96405098312484239 4.22705098312484218
v -3.50000000000000000 0.03700000000000000 1.80000000000000004
v -1.31979958673801501 2.92281507335175217 1.80000000000000004
v -1.31979958673801501 -2.84881507335175232 1.80000000000000004
v -1.80166569365808460 -2.55100544124855899 2.57967573902326341
v -0.98186610692006937 -2.04434143268134783 3.90613933432848981
v -0.98737954434935937 -2.81616954888546100 2.58859666817870071
v -0.50000000000000000 -2.51495242505612016 3.37719333635740071
v -1.80166569365808460 2.62500544124855884 2.57967573902326341
v -0.98186610692006937 2.11834143268134767 3.90613933432848981
v -0.98737954434935937 2.89016954888546085 2.58859666817870071
v -0.50000000000000000 2.58895242505612000 3.37719333635740071
v -0.50000000000000000 -0.78279958673801497 4.68581507335175207
v -0.50000000000000000 0.85679958673801504 4.68581507335175207
v -1.80166569365808460 -2.55100544124855899 1.02032426097673667
v -0.98186610692006937 -2.04434143268134783 -0.30613933432848950
v -0.98737954434935937 -2.81616954888546100 1.01140333182129960
v -0.50000000000000000 -2.51495242505612016 0.22280666364259916
v -1.80166569365808460 2.62500544124855884 1.02032426097673667
v -0.98186610692006937 2.11834143268134767 -0.30613933432848950
v -0.98737954434935937 2.89016954888546085 1.01140333182129960
v -0.50000000000000000 2.58895242505612000 0.22280666364259916
v -0.50000000000000000 -0.78279958673801497 -1.08581507335175220
v -0.50000000000000000 0.85679958673801504 -1.08581507335175220
v -2.58134143268134730 2.14313933432848902 1.31813389307993067
v -3.08800544124855847 0.81667573902326329 0.49833430634191567
v -2.26335575687741919 2.10157288070675996 0.52402378747194023
v -2.58134143268134730 -2.06913933432848918 1.31813389307993067
v -3.08800544124855847 -0.74267573902326323 0.49833430634191567
v -2.26335575687741919 -2.02757288070676012 0.52402378747194023
v -1.27967573902326315 -1.26466569365808446 -0.78800544124855842
v -2.60613933432848910 -0.44486610692006945 -0.28134143268134726
v -1.77597621252806004 -1.72635575687741971 -0.26457288070676044
v -1.28859666817870044 -0.45037954434935956 -1.05316954888546044
v -2.56457288070676048 -1.23897621252806012 0.03664424312258041
v -1.27967573902326315 1.33866569365808430 -0.78800544124855842
v -2.60613933432848910 0.51886610692006940 -0.28134143268134726
v -1.77597621252806004 1.80035575687741956 -0.26457288070676044
v -1.28859666817870044 0.52437954434935952 -1.05316954888546044
v -2.56457288070676048 1.31297621252805996 0.03664424312258041
v -2.07719333635740089 0.03700000000000000 -0.75195242505611959
v -2.58134143268134730 2.14313933432848902 2.28186610692006964
v -3.08800544124855847 0.81667573902326329 3.10166569365808442
v -2.26335575687741919 2.10157288070675996 3.07597621252805986
v -3.05195242505611963 1.61419333635740081 1.80000000000000004
v -2.58134143268134730 -2.06913933432848918 2.28186610692006964
v -3.08800544124855847 -0.74267573902326323 3.10166569365808442
v -2.26335575687741919 -2.02757288070676012 3.07597621252805986
v -3.05195242505611963 -1.54019333635740097 1.80000000000000004
v -1.27967573902326315 -1.26466569365808446 4.38800544124855829
v -2.60613933432848910 -0.44486610692006945 3.88134143268134757
v -1.77597621252806004 -1.72635575687741971 3.86457288070676075
v -1.28859666817870044 -0.45037954434935956 4.65316954888546075
v -2.56457288070676048 -1.23897621252806012 3.56335575687741990
v -1.27967573902326315 1.33866569365808430 4.38800544124855829
v -2.60613933432848910 0.51886610692006940 3.88134143268134757
v -1.77597621252806004 1.80035575687741956 3.86457288070676075
v -1.28859666817870044 0.52437954434935952 4.65316954888546075
v -2.56457288070676048 1.31297621252805996 3.56335575687741990
v -2.07719333635740089 0.03700000000000000 4.35195242505611990
v -3.38581507335175225 0.03700000000000000 0.98020041326198504
v -3.38581507335175225 0.03700000000000000 2.61979958673801505
v -3.35316954888546048 0.82559666817870048 1.31262045565064045
v -3.35316954888546048 -0.75159666817870041 1.31262045565064045
v -3.35316954888546048 0.82559666817870048 2.28737954434935942
v -3.35316954888546048 -0.75159666817870041 2.28737954434935942
v -1.71006604585209288 2.78213026369895200 1.80000000000000004
v -0.91385672638290116 3.00831664587058567 1.80000000000000004
v -1.71006604585209288 -2.70813026369895216 1.80000000000000004
v -0.91385672638290116 -2.93431664587058583 1.80000000000000004
v -1.95332492618200337 -2.55778800758982428 2.19360113643903842
v -1.62511570243462899 -2.49473442386717048 2.95084119805514344
v -1.57468638045973663 -2.73591380183403787 2.19496611405619380
v -0.74325888032991050 -1.80992606262104205 4.15152912725991374
v -1.21125897605172783 -2.23895690048977203 3.62047544781544239
v -0.74672739583808689 -2.92606502178541339 2.19921331242177409
v -1.21603079095877931 -2.63601957256510389 2.95856215676277623
v -1.16035108241987706 -2.86217779220731749 2.19837743048370760
v -1.40377663727969626 -2.71173252557364730 2.59224825197719655
v -0.50000000000000000 -2.07172109146332017 3.93384520488664968
v -0.50000000000000000 -2.85458379040286792 2.59921410340370240
v -0.96930339512069263 -2.48353365598141673 3.35777546918455005
v -0.74342555485981898 -2.30361311213037956 3.66071874784034090
v -0.74697074009588049 -2.70194747879689734 2.99882115510555325
v -1.95332492618200337 2.63178800758982412 2.19360113643903842
v -1.62511570243462899 2.56873442386717032 2.95084119805514344
v -1.57468638045973663 2.80991380183403772 2.19496611405619380
v -0.74325888032991050 1.88392606262104190 4.15152912725991374
v -1.21125897605172783 2.31295690048977187 3.62047544781544239
v -0.74672739583808689 3.00006502178541323 2.19921331242177409
v -1.21603079095877931 2.71001957256510373 2.95856215676277623
v -1.16035108241987706 2.93617779220731734 2.19837743048370760
v -1.40377663727969626 2.78573252557364714 2.59224825197719655
v -0.50000000000000000 2.14572109146332002 3.93384520488664968
v -0.50000000000000000 2.92858379040286776 2.59921410340370240
v -0.96930339512069263 2.55753365598141658 3.35777546918455005
v -0.74342555485981898 2.37761311213037940 3.66071874784034090
v -0.74697074009588049 2.77594747879689718 2.99882115510555325
v -0.50000000000000000 -1.17306604585209295 4.54513026369895190
v -0.50000000000000000 -0.37685672638290113 4.77131664587058602
v -0.50000000000000000 1.24706604585209280 4.54513026369895190
v -0.50000000000000000 0.45085672638290109 4.77131664587058602
v -1.95332492618200337 -2.55778800758982428 1.40639886356096167
v -1.62511570243462899 -2.49473442386717048 0.64915880194485687
v -1.57468638045973663 -2.73591380183403787 1.40503388594380629
v -0.74325888032991050 -1.80992606262104205 -0.55152912725991388
v -1.21125897605172783 -2.23895690048977203 -0.02047544781544253
v -0.74672739583808689 -2.92606502178541339 1.40078668757822600
v -1.21603079095877931 -2.63601957256510389 0.64143784323722386
v -1.16035108241987706 -2.86217779220731749 1.40162256951629249
v -1.40377663727969626 -2.71173252557364730 1.00775174802280354
v -0.50000000000000000 -2.07172109146332017 -0.33384520488664937
v -0.50000000000000000 -2.85458379040286792 1.00078589659629769
v -0.96930339512069263 -2.48353365598141673 0.24222453081544981
v -0.74342555485981898 -2.30361311213037956 -0.06071874784034104
v -0.74697074009588049 -2.70194747879689734 0.60117884489444684
v -1.95332492618200337 2.63178800758982412 1.40639886356096167
v -1.62511570243462899 2.56873442386717032 0.64915880194485687
v -1.57468638045973663 2.80991380183403772 1.40503388594380629
v -0.74325888032991050 1.88392606262104190 -0.55152912725991388
v -1.21125897605172783 2.31295690048977187 -0.02047544781544253
v -0.74672739583808689 3.00006502178541323 1.40078668757822600
v -1.21603079095877931 2.71001957256510373 0.64143784323722386
v -1.16035108241987706 2.93617779220731734 1.40162256951629249
v -1.40377663727969626 2.78573252557364714 1.00775174802280354
v -0.50000000000000000 2.14572109146332002 -0.33384520488664937
v -0.50000000000000000 2.92858379040286776 1.00078589659629769
v -0.96930339512069263 2.55753365598141658 0.24222453081544981
v -0.74342555485981898 2.37761311213037940 -0.06071874784034104
v -0.74697074009588049 2.77594747879689718 0.60117884489444684
v -0.50000000000000000 -1.17306604585209295 -0.94513026369895203
v -0.50000000000000000 -0.37685672638290113 -1.17131664587058570
v -0.50000000000000000 1.24706604585209280 -0.94513026369895203
v -0.50000000000000000 0.45085672638290109 -1.17131664587058570
v -2.34692606262104198 2.38852912725991384 1.55674111967008955
v -2.77595690048977195 1.85747544781544249 1.08874102394827221
v -2.21375497740712612 2.41494768777784419 1.16093140305261100
v -3.09478800758982420 0.43060113643903847 0.34667507381799667
v -3.03173442386717040 1.18784119805514332 0.67488429756537083
v -1.86197149921864047 2.31080626014332990 0.39471044739913674
v -2.62132034355964283 1.84150286502263705 0.68475589661944647
v -2.04836486015318320 2.38735509508993937 0.76154095563302371
v -2.44223568164667260 2.14392954023012106 0.91198622226669401
v -2.34692606262104198 -2.31452912725991400 1.55674111967008955
v -2.77595690048977195 -1.78347544781544265 1.08874102394827221
v -2.21375497740712612 -2.34094768777784434 1.16093140305261100
v -3.09478800758982420 -0.35660113643903851 0.34667507381799667
v -3.03173442386717040 -1.11384119805514348 0.67488429756537083
v -1.86197149921864047 -2.23680626014333006 0.39471044739913674
v -2.62132034355964283 -1.76750286502263720 0.68475589661944647
v -2.04836486015318320 -2.31335509508993953 0.76154095563302371
v -2.44223568164667260 -2.06992954023012121 0.91198622226669401
v -0.89360113643903849 -1.41632492618200345 -0.79478800758982415
v -1.65084119805514340 -1.08811570243462929 -0.73173442386717036
v -1.13906859694738927 -1.67675497740712620 -0.57794768777784422
v -0.89496611405619397 -1.03768638045973693 -0.97291380183403819
v -2.85152912725991392 -0.20625888032991058 -0.04692606262104193
v -2.32047544781544257 -0.67425897605172780 -0.47595690048977191
v -2.87794768777784427 -0.60206859694738923 0.08624502259287392
v -1.61524410338055358 -2.08432034355964291 -0.00450286502263708
v -1.90528955260086308 -1.32497149921864033 -0.47380626014332949
v -1.38801377773330592 -1.90523568164667245 -0.30692954023012109
v -2.04012632369134383 -1.90273337539319476 0.10723736470268563
v -1.53845904436697634 -1.51136486015318328 -0.55035509508993941
v -0.89921331242177405 -0.20972739583808694 -1.16306502178541327
v -1.65856215676277641 -0.67903079095877961 -0.87301957256510332
v -0.89837743048370755 -0.62335108241987724 -1.09917779220731737
v -1.29224825197719673 -0.86677663727969623 -0.94873252557364718
v -2.77380626014332954 -1.36828955260086316 0.43802850078135980
v -2.30450286502263690 -1.07824410338055343 -0.32132034355964234
v -2.85035509508993945 -1.00145904436697641 0.25163513984681685
v -2.43973337539319468 -1.65576263529731449 0.25987367630865621
v -2.60692954023012113 -0.85101377773330600 -0.14223568164667233
v -2.19276263529731441 -1.50312632369134391 -0.13973337539319464
v -0.89360113643903849 1.49032492618200330 -0.79478800758982415
v -1.65084119805514340 1.16211570243462914 -0.73173442386717036
v -1.13906859694738927 1.75075497740712605 -0.57794768777784422
v -0.89496611405619397 1.11168638045973678 -0.97291380183403819
v -2.85152912725991392 0.28025888032991059 -0.04692606262104193
v -2.32047544781544257 0.74825897605172786 -0.47595690048977191
v -2.87794768777784427 0.67606859694738930 0.08624502259287392
v -2.63384520488664942 0.03700000000000000 -0.30872109146332005
v -1.61524410338055358 2.15832034355964275 -0.00450286502263708
v -1.90528955260086308 1.39897149921864017 -0.47380626014332949
v -1.38801377773330592 1.97923568164667230 -0.30692954023012109
v -2.04012632369134383 1.97673337539319460 0.10723736470268563
v -1.53845904436697634 1.58536486015318312 -0.55035509508993941
v -0.89921331242177405 0.28372739583808693 -1.16306502178541327
v -1.65856215676277641 0.75303079095877967 -0.87301957256510332
v -0.89837743048370755 0.69735108241987731 -1.09917779220731737
v -1.29921410340370214 0.03700000000000000 -1.09158379040286735
v -1.29224825197719673 0.94077663727969629 -0.94873252557364718
v -2.77380626014332954 1.44228955260086300 0.43802850078135980
v -2.30450286502263690 1.15224410338055328 -0.32132034355964234
v -2.85035509508993945 1.07545904436697626 0.25163513984681685
v -2.43973337539319468 1.72976263529731433 0.25987367630865621
v -2.60692954023012113 0.92501377773330606 -0.14223568164667233
v -2.19276263529731441 1.57712632369134376 -0.13973337539319464
v -2.05777546918455023 -0.43230339512069266 -0.72053365598141661
v -2.05777546918455023 0.50630339512069267 -0.72053365598141661
v -2.36071874784034152 -0.20642555485981898 -0.54061311213037944
v -1.69882115510555320 -0.20997074009588051 -0.93894747879689677
v -2.36071874784034152 0.28042555485981896 -0.54061311213037944
v -1.69882115510555320 0.28397074009588053 -0.93894747879689677
v -2.34692606262104198 2.38852912725991384 2.04325888032991054
v -2.77595690048977195 1.85747544781544249 2.51125897605172810
v -2.21375497740712612 2.41494768777784419 2.43906859694738909
v -2.60872109146332010 2.17084520488664934 1.80000000000000004
v -3.09478800758982420 0.43060113643903847 3.25332492618200320
v -3.03173442386717040 1.18784119805514332 2.92511570243462948
v -1.86197149921864047 2.31080626014332990 3.20528955260086335
v -2.62132034355964283 1.84150286502263705 2.91524410338055340
v -2.04836486015318320 2.38735509508993937 2.83845904436697616
v -2.44223568164667260 2.14392954023012106 2.68801377773330596
v -3.02053365598141665 1.59477546918455015 1.33069660487930741
v -3.02053365598141665 1.59477546918455015 2.26930339512069246
v -2.84061311213037948 1.89771874784034145 1.55657444514018106
v -2.84061311213037948 1.89771874784034145 2.04342555485981903
v -2.34692606262104198 -2.31452912725991400 2.04325888032991054
v -2.77595690048977195 -1.78347544781544265 2.51125897605172810
v -2.21375497740712612 -2.34094768777784434 2.43906859694738909
v -2.60872109146332010 -2.09684520488664949 1.80000000000000004
v -3.09478800758982420 -0.35660113643903851 3.25332492618200320
v -3.03173442386717040 -1.11384119805514348 2.92511570243462948
v -1.86197149921864047 -2.23680626014333006 3.20528955260086335
v -2.62132034355964283 -1.76750286502263720 2.91524410338055340
v -2.04836486015318320 -2.31335509508993953 2.83845904436697616
v -2.44223568164667260 -2.06992954023012121 2.68801377773330596
v -3.02053365598141665 -1.52077546918455031 1.33069660487930741
v -3.02053365598141665 -1.52077546918455031 2.26930339512069246
v -2.84061311213037948 -1.82371874784034160 1.55657444514018106
v -2.84061311213037948 -1.82371874784034160 2.04342555485981903
v -0.89360113643903849 -1.41632492618200345 4.39478800758982402
v -1.65084119805514340 -1.08811570243462929 4.33173442386717067
v -1.13906859694738927 -1.67675497740712620 4.17794768777784409
v -0.89496611405619397 -1.03768638045973693 4.57291380183403806
v -2.85152912725991392 -0.20625888032991058 3.64692606262104224
v -2.32047544781544257 -0.67425897605172780 4.07595690048977222
v -2.87794768777784427 -0.60206859694738923 3.51375497740712639
v -1.61524410338055358 -2.08432034355964291 3.60450286502263717
v -1.90528955260086308 -1.32497149921864033 4.07380626014332936
v -1.38801377773330592 -1.90523568164667245 3.90692954023012096
v -2.04012632369134383 -1.90273337539319476 3.49276263529731423
v -1.53845904436697634 -1.51136486015318328 4.15035509508993972
v -0.89921331242177405 -0.20972739583808694 4.76306502178541358
v -1.65856215676277641 -0.67903079095877961 4.47301957256510363
v -0.89837743048370755 -0.62335108241987724 4.69917779220731724
v -1.29224825197719673 -0.86677663727969623 4.54873252557364705
v -2.77380626014332954 -1.36828955260086316 3.16197149921864007
v -2.30450286502263690 -1.07824410338055343 3.92132034355964265
v -2.85035509508993945 -1.00145904436697641 3.34836486015318346
v -2.43973337539319468 -1.65576263529731449 3.34012632369134366
v -2.60692954023012113 -0.85101377773330600 3.74223568164667242
v -2.19276263529731441 -1.50312632369134391 3.73973337539319495
v -0.89360113643903849 1.49032492618200330 4.39478800758982402
v -1.65084119805514340 1.16211570243462914 4.33173442386717067
v -1.13906859694738927 1.75075497740712605 4.17794768777784409
v -0.89496611405619397 1.11168638045973678 4.57291380183403806
v -2.85152912725991392 0.28025888032991059 3.64692606262104224
v -2.32047544781544257 0.74825897605172786 4.07595690048977222
v -2.87794768777784427 0.67606859694738930 3.51375497740712639
v -2.63384520488664942 0.03700000000000000 3.90872109146332036
v -1.61524410338055358 2.15832034355964275 3.60450286502263717
v -1.90528955260086308 1.39897149921864017 4.07380626014332936
v -1.38801377773330592 1.97923568164667230 3.90692954023012096
v -2.04012632369134383 1.97673337539319460 3.49276263529731423
v -1.53845904436697634 1.58536486015318312 4.15035509508993972
v -0.89921331242177405 0.28372739583808693 4.76306502178541358
v -1.65856215676277641 0.75303079095877967 4.47301957256510363
v -0.89837743048370755 0.69735108241987731 4.69917779220731724
v -1.29921410340370214 0.03700000000000000 4.69158379040286722
v -1.29224825197719673 0.94077663727969629 4.54873252557364705
v -2.77380626014332954 1.44228955260086300 3.16197149921864007
v -2.30450286502263690 1.15224410338055328 3.92132034355964265
v -2.85035509508993945 1.07545904436697626 3.34836486015318346
v -2.43973337539319468 1.72976263529731433 3.34012632369134366
v -2.60692954023012113 0.92501377773330606 3.74223568164667242
v -2.19276263529731441 1.57712632369134376 3.73973337539319495
v -2.05777546918455023 -0.43230339512069266 4.32053365598141692
v -2.05777546918455023 0.50630339512069267 4.32053365598141692
v -2.36071874784034152 -0.20642555485981898 4.14061311213037975
v -1.69882115510555320 -0.20997074009588051 4.53894747879689664
v -2.36071874784034152 0.28042555485981896 4.14061311213037975
v -1.69882115510555320 0.28397074009588053 4.53894747879689664
v -3.24513026369895208 0.03700000000000000 0.58993395414790717
v -3.47131664587058575 0.03700000000000000 1.38614327361709888
v -3.27291380183403824 0.43196611405619390 0.72531361954026319
v -3.27291380183403824 -0.35796611405619394 0.72531361954026319
v -3.24513026369895208 0.03700000000000000 3.01006604585209292
v -3.47131664587058575 0.03700000000000000 2.21385672638290121
v -3.27291380183403824 0.43196611405619390 2.87468638045973712
v -3.27291380183403824 -0.35796611405619394 2.87468638045973712
v -3.17301957256510336 1.19556215676277633 1.08396920904122052
v -3.46306502178541331 0.43621331242177397 1.55327260416191315
v -3.24873252557364722 0.82924825197719676 0.89622336272030378
v -3.23894747879689726 1.23582115510555335 1.55302925990411955
v -3.39917779220731742 0.43537743048370747 1.13964891758012277
v -3.17301957256510336 -1.12156215676277649 1.08396920904122052
v -3.46306502178541331 -0.36221331242177401 1.55327260416191315
v -3.24873252557364722 -0.75524825197719669 0.89622336272030378
v -3.23894747879689726 -1.16182115510555350 1.55302925990411955
v -3.39917779220731742 -0.36137743048370752 1.13964891758012277
v -3.17301957256510336 1.19556215676277633 2.51603079095877957
v -3.46306502178541331 0.43621331242177397 2.04672739583808694
v -3.24873252557364722 0.82924825197719676 2.70377663727969608
v -3.23894747879689726 1.23582115510555335 2.04697074009588054
v -3.39917779220731742 0.43537743048370747 2.46035108241987732
v -3.39158379040286739 0.83621410340370228 1.80000000000000004
v -3.17301957256510336 -1.12156215676277649 2.51603079095877957
v -3.46306502178541331 -0.36221331242177401 2.04672739583808694
v -3.24873252557364722 -0.75524825197719669 2.70377663727969608
v -3.23894747879689726 -1.16182115510555350 2.04697074009588054
v -3.39917779220731742 -0.36137743048370752 2.46035108241987732
v -3.39158379040286739 -0.76221410340370221 1.80000000000000004
v 1.32719333635740089 2.58895242505612000 1.80000000000000004
v 1.32719333635740089 -2.51495242505612016 1.80000000000000004
v -0.25000000000000000 -1.54019333635740097 4.35195242505611990
v -0.25000000000000000 1.61419333635740081 4.35195242505611990
v -0.25000000000000000 -1.54019333635740097 -0.75195242505612003
v -0.25000000000000000 1.61419333635740081 -0.75195242505612003
v 2.30195242505612008 0.03700000000000000 0.22280666364259916
v 2.30195242505612008 0.03700000000000000 3.37719333635740071
v -0.25000000000000000 3.03699999999999992 1.80000000000000004
v -0.25000000000000000 -2.96300000000000008 1.80000000000000004
v 0.67705098312484213 -2.39005098312484243 3.29999999999999982
v 0.67705098312484213 2.46405098312484228 3.29999999999999982
v -0.25000000000000000 0.03700000000000000 4.79999999999999982
v 0.67705098312484213 -2.39005098312484243 0.30000000000000004
v 0.67705098312484213 2.46405098312484228 0.30000000000000004
v -0.25000000000000000 0.03700000000000000 -1.19999999999999996
v 2.17705098312484235 1.53700000000000014 0.87294901687515769
v 2.17705098312484235 -1.46300000000000030 0.87294901687515769
v 1.25000000000000022 -0.89005098312484232 -0.62705098312484231
v 1.25000000000000022 0.96405098312484239 -0.62705098312484231
v 2.17705098312484235 1.53700000000000014 2.72705098312484218
v 2.17705098312484235 -1.46300000000000030 2.72705098312484218
v 1.25000000000000022 -0.89005098312484232 4.22705098312484218
v 1.25000000000000022 0.96405098312484239 4.22705098312484218
v 2.75000000000000000 0.03700000000000000 1.80000000000000004
v 0.56979958673801501 2.92281507335175217 1.80000000000000004
v 0.56979958673801501 -2.84881507335175232 1.80000000000000004
v 1.05166569365808460 -2.55100544124855899 2.57967573902326341
v 0.23186610692006937 -2.04434143268134783 3.90613933432848981
v 0.23737954434935943 -2.81616954888546100 2.58859666817870071
v -0.25000000000000000 -2.51495242505612016 3.37719333635740071
v 1.05166569365808460 2.62500544124855884 2.57967573902326341
v 0.23186610692006937 2.11834143268134767 3.90613933432848981
v 0.23737954434935943 2.89016954888546085 2.58859666817870071
v -0.25000000000000000 2.58895242505612000 3.37719333635740071
v -0.25000000000000000 -0.78279958673801497 4.68581507335175207
v -0.25000000000000000 0.85679958673801504 4.68581507335175207
v 1.05166569365808460 -2.55100544124855899 1.02032426097673667
v 0.23186610692006937 -2.04434143268134783 -0.30613933432848950
v 0.23737954434935943 -2.81616954888546100 1.01140333182129960
v -0.25000000000000000 -2.51495242505612016 0.22280666364259916
v 1.05166569365808460 2.62500544124855884 1.02032426097673667
v 0.23186610692006937 2.11834143268134767 -0.30613933432848950
v 0.23737954434935943 2.89016954888546085 1.01140333182129960
v -0.25000000000000000 2.58895242505612000 0.22280666364259916
v -0.25000000000000000 -0.78279958673801497 -1.08581507335175220
v -0.25000000000000000 0.85679958673801504 -1.08581507335175220
v 1.83134143268134730 2.14313933432848902 1.31813389307993067
v 2.33800544124855847 0.81667573902326329 0.49833430634191567
v 1.51335575687741941 2.10157288070675996 0.52402378747194023
v 1.83134143268134730 -2.06913933432848918 1.31813389307993067
v 2.33800544124855847 -0.74267573902326323 0.49833430634191567
v 1.51335575687741941 -2.02757288070676012 0.52402378747194023
v 0.52967573902326326 -1.26466569365808446 -0.78800544124855842
v 1.85613933432848910 -0.44486610692006945 -0.28134143268134726
v 1.02597621252806004 -1.72635575687741971 -0.26457288070676044
v 0.53859666817870044 -0.45037954434935956 -1.05316954888546044
v 1.81457288070676048 -1.23897621252806012 0.03664424312258041
v 0.52967573902326326 1.33866569365808430 -0.78800544124855842
v 1.85613933432848910 0.51886610692006940 -0.28134143268134726
v 1.02597621252806004 1.80035575687741956 -0.26457288070676044
v 0.53859666817870044 0.52437954434935952 -1.05316954888546044
v 1.81457288070676048 1.31297621252805996 0.03664424312258041
v 1.32719333635740089 0.03700000000000000 -0.75195242505611959
v 1.83134143268134730 2.14313933432848902 2.28186610692006964
v 2.33800544124855847 0.81667573902326329 3.10166569365808442
v 1.51335575687741941 2.10157288070675996 3.07597621252805986
v 2.30195242505611963 1.61419333635740081 1.80000000000000004
v 1.83134143268134730 -2.06913933432848918 2.28186610692006964
v 2.33800544124855847 -0.74267573902326323 3.10166569365808442
v 1.51335575687741941 -2.02757288070676012 3.07597621252805986
v 2.30195242505611963 -1.54019333635740097 1.80000000000000004
v 0.52967573902326326 -1.26466569365808446 4.38800544124855829
v 1.85613933432848910 -0.44486610692006945 3.88134143268134757
v 1.02597621252806004 -1.72635575687741971 3.86457288070676075
v 0.53859666817870044 -0.45037954434935956 4.65316954888546075
v 1.81457288070676048 -1.23897621252806012 3.56335575687741990
v 0.52967573902326326 1.33866569365808430 4.38800544124855829
v 1.85613933432848910 0.51886610692006940 3.88134143268134757
v 1.02597621252806004 1.80035575687741956 3.86457288070676075
v 0.53859666817870044 0.52437954434935952 4.65316954888546075
v 1.81457288070676048 1.31297621252805996 3.56335575687741990
v 1.32719333635740089 0.03700000000000000 4.35195242505611990
v 2.63581507335175225 0.03700000000000000 0.98020041326198504
v 2.63581507335175225 0.03700000000000000 2.61979958673801505
v 2.60316954888546048 0.82559666817870048 1.31262045565064045
v 2.60316954888546048 -0.75159666817870041 1.31262045565064045
v 2.60316954888546048 0.82559666817870048 2.28737954434935942
v 2.60316954888546048 -0.75159666817870041 2.28737954434935942
v 0.96006604585209288 2.78213026369895200 1.80000000000000004
v 0.16385672638290111 3.00831664587058567 1.80000000000000004
v 0.96006604585209288 -2.70813026369895216 1.80000000000000004
v 0.16385672638290111 -2.93431664587058583 1.80000000000000004
v 1.20332492618200337 -2.55778800758982428 2.19360113643903842
v 0.87511570243462899 -2.49473442386717048 2.95084119805514344
v 0.82468638045973663 -2.73591380183403787 2.19496611405619380
v -0.00674111967008947 -1.80992606262104205 4.15152912725991374
v 0.46125897605172772 -2.23895690048977203 3.62047544781544239
v -0.25000000000000000 -2.07172109146332017 3.93384520488664968
v -0.00327260416191313 -2.92606502178541339 2.19921331242177409
v 0.46603079095877931 -2.63601957256510389 2.95856215676277623
v 0.41035108241987717 -2.86217779220731749 2.19837743048370760
v -0.25000000000000000 -2.85458379040286792 2.59921410340370240
v 0.65377663727969615 -2.71173252557364730 2.59224825197719655
v 0.21930339512069258 -2.48353365598141673 3.35777546918455005
v -0.00657444514018107 -2.30361311213037956 3.66071874784034090
v -0.00302925990411951 -2.70194747879689734 2.99882115510555325
v 1.20332492618200337 2.63178800758982412 2.19360113643903842
v 0.87511570243462899 2.56873442386717032 2.95084119805514344
v 0.82468638045973663 2.80991380183403772 2.19496611405619380
v -0.00674111967008947 1.88392606262104190 4.15152912725991374
v 0.46125897605172772 2.31295690048977187 3.62047544781544239
v -0.25000000000000000 2.14572109146332002 3.93384520488664968
v -0.00327260416191313 3.00006502178541323 2.19921331242177409
v 0.46603079095877931 2.71001957256510373 2.95856215676277623
v 0.41035108241987717 2.93617779220731734 2.19837743048370760
v -0.25000000000000000 2.92858379040286776 2.59921410340370240
v 0.65377663727969615 2.78573252557364714 2.59224825197719655
v 0.21930339512069258 2.55753365598141658 3.35777546918455005
v -0.00657444514018107 2.37761311213037940 3.66071874784034090
v -0.00302925990411951 2.77594747879689718 2.99882115510555325
v -0.25000000000000000 -1.17306604585209295 4.54513026369895190
v -0.25000000000000000 -0.37685672638290113 4.77131664587058602
v -0.25000000000000000 1.24706604585209280 4.54513026369895190
v -0.25000000000000000 0.45085672638290109 4.77131664587058602
v 1.20332492618200337 -2.55778800758982428 1.40639886356096167
v 0.87511570243462899 -2.49473442386717048 0.64915880194485687
v 0.82468638045973663 -2.73591380183403787 1.40503388594380629
v -0.00674111967008947 -1.80992606262104205 -0.55152912725991388
v 0.46125897605172772 -2.23895690048977203 -0.02047544781544253
v -0.25000000000000000 -2.07172109146332017 -0.33384520488664937
v -0.00327260416191313 -2.92606502178541339 1.40078668757822600
v 0.46603079095877931 -2.63601957256510389 0.64143784323722386
v 0.41035108241987717 -2.86217779220731749 1.40162256951629249
v -0.25000000000000000 -2.85458379040286792 1.00078589659629769
v 0.65377663727969615 -2.71173252557364730 1.00775174802280354
v 0.21930339512069258 -2.48353365598141673 0.24222453081544981
v -0.00657444514018107 -2.30361311213037956 -0.06071874784034104
v -0.00302925990411951 -2.70194747879689734 0.60117884489444684
v 1.20332492618200337 2.63178800758982412 1.40639886356096167
v 0.87511570243462899 2.56873442386717032 0.64915880194485687
v 0.82468638045973663 2.80991380183403772 1.40503388594380629
v -0.00674111967008947 1.88392606262104190 -0.55152912725991388
v 0.46125897605172772 2.31295690048977187 -0.02047544781544253
v -0.25000000000000000 2.14572109146332002 -0.33384520488664937
v -0.00327260416191313 3.00006502178541323 1.40078668757822600
v 0.46603079095877931 2.71001957256510373 0.64143784323722386
v 0.41035108241987717 2.93617779220731734 1.40162256951629249
v -0.25000000000000000 2.92858379040286776 1.00078589659629769
v 0.65377663727969615 2.78573252557364714 1.00775174802280354
v 0.21930339512069258 2.55753365598141658 0.24222453081544981
v -0.00657444514018107 2.37761311213037940 -0.06071874784034104
v -0.00302925990411951 2.77594747879689718 0.60117884489444684
v -0.25000000000000000 -1.17306604585209295 -0.94513026369895203
v -0.25000000000000000 -0.37685672638290113 -1.17131664587058570
v -0.25000000000000000 1.24706604585209280 -0.94513026369895203
v -0.25000000000000000 0.45085672638290109 -1.17131664587058570
v 1.59692606262104198 2.38852912725991384 1.55674111967008955
v 2.02595690048977195 1.85747544781544249 1.08874102394827221
v 1.46375497740712612 2.41494768777784419 1.16093140305261100
v 2.34478800758982420 0.43060113643903847 0.34667507381799667
v 2.28173442386717040 1.18784119805514332 0.67488429756537083
v 1.11197149921864047 2.31080626014332990 0.39471044739913674
v 1.87132034355964283 1.84150286502263705 0.68475589661944647
v 1.29836486015318320 2.38735509508993937 0.76154095563302371
v 1.69223568164667237 2.14392954023012106 0.91198622226669401
v 1.59692606262104198 -2.31452912725991400 1.55674111967008955
v 2.02595690048977195 -1.78347544781544265 1.08874102394827221
v 1.46375497740712612 -2.34094768777784434 1.16093140305261100
v 2.34478800758982420 -0.35660113643903851 0.34667507381799667
v 2.28173442386717040 -1.11384119805514348 0.67488429756537083
v 1.11197149921864047 -2.23680626014333006 0.39471044739913674
v 1.87132034355964283 -1.76750286502263720 0.68475589661944647
v 1.29836486015318320 -2.31335509508993953 0.76154095563302371
v 1.69223568164667237 -2.06992954023012121 0.91198622226669401
v 0.14360113643903849 -1.41632492618200345 -0.79478800758982415
v 0.90084119805514340 -1.08811570243462929 -0.73173442386717036
v 0.38906859694738916 -1.67675497740712620 -0.57794768777784422
v 0.14496611405619392 -1.03768638045973693 -0.97291380183403819
v 2.10152912725991392 -0.20625888032991058 -0.04692606262104193
v 1.57047544781544257 -0.67425897605172780 -0.47595690048977191
v 2.12794768777784427 -0.60206859694738923 0.08624502259287392
v 0.86524410338055358 -2.08432034355964291 -0.00450286502263708
v 1.15528955260086308 -1.32497149921864033 -0.47380626014332949
v 0.63801377773330592 -1.90523568164667245 -0.30692954023012109
v 1.29012632369134383 -1.90273337539319476 0.10723736470268563
v 0.78845904436697634 -1.51136486015318328 -0.55035509508993941
v 0.14921331242177399 -0.20972739583808694 -1.16306502178541327
v 0.90856215676277641 -0.67903079095877961 -0.87301957256510332
v 0.14837743048370750 -0.62335108241987724 -1.09917779220731737
v 0.54224825197719673 -0.86677663727969623 -0.94873252557364718
v 2.02380626014332954 -1.36828955260086316 0.43802850078135980
v 1.55450286502263690 -1.07824410338055343 -0.32132034355964234
v 2.10035509508993945 -1.00145904436697641 0.25163513984681685
v 1.68973337539319468 -1.65576263529731449 0.25987367630865621
v 1.85692954023012113 -0.85101377773330600 -0.14223568164667233
v 1.44276263529731441 -1.50312632369134391 -0.13973337539319464
v 0.14360113643903849 1.49032492618200330 -0.79478800758982415
v 0.90084119805514340 1.16211570243462914 -0.73173442386717036
v 0.38906859694738916 1.75075497740712605 -0.57794768777784422
v 0.14496611405619392 1.11168638045973678 -0.97291380183403819
v 2.10152912725991392 0.28025888032991059 -0.04692606262104193
v 1.57047544781544257 0.74825897605172786 -0.47595690048977191
v 2.12794768777784427 0.67606859694738930 0.08624502259287392
v 1.88384520488664942 0.03700000000000000 -0.30872109146332005
v 0.86524410338055358 2.15832034355964275 -0.00450286502263708
v 1.15528955260086308 1.39897149921864017 -0.47380626014332949
v 0.63801377773330592 1.97923568164667230 -0.30692954023012109
v 1.29012632369134383 1.97673337539319460 0.10723736470268563
v 0.78845904436697634 1.58536486015318312 -0.55035509508993941
v 0.14921331242177399 0.28372739583808693 -1.16306502178541327
v 0.90856215676277641 0.75303079095877967 -0.87301957256510332
v 0.14837743048370750 0.69735108241987731 -1.09917779220731737
v 0.54921410340370225 0.03700000000000000 -1.09158379040286735
v 0.54224825197719673 0.94077663727969629 -0.94873252557364718
v 2.02380626014332954 1.44228955260086300 0.43802850078135980
v 1.55450286502263690 1.15224410338055328 -0.32132034355964234
v 2.10035509508993945 1.07545904436697626 0.25163513984681685
v 1.68973337539319468 1.72976263529731433 0.25987367630865621
v 1.85692954023012113 0.92501377773330606 -0.14223568164667233
v 1.44276263529731441 1.57712632369134376 -0.13973337539319464
v 1.30777546918455023 -0.43230339512069266 -0.72053365598141661
v 1.30777546918455023 0.50630339512069267 -0.72053365598141661
v 1.61071874784034152 -0.20642555485981898 -0.54061311213037944
v 0.94882115510555320 -0.20997074009588051 -0.93894747879689677
v 1.61071874784034152 0.28042555485981896 -0.54061311213037944
v 0.94882115510555320 0.28397074009588053 -0.93894747879689677
v 1.59692606262104198 2.38852912725991384 2.04325888032991054
v 2.02595690048977195 1.85747544781544249 2.51125897605172810
v 1.46375497740712612 2.41494768777784419 2.43906859694738909
v 1.85872109146332010 2.17084520488664934 1.80000000000000004
v 2.34478800758982420 0.43060113643903847 3.25332492618200320
v 2.28173442386717040 1.18784119805514332 2.92511570243462948
v 1.11197149921864047 2.31080626014332990 3.20528955260086335
v 1.87132034355964283 1.84150286502263705 2.91524410338055340
v 1.29836486015318320 2.38735509508993937 2.83845904436697616
v 1.69223568164667237 2.14392954023012106 2.68801377773330596
v 2.27053365598141665 1.59477546918455015 1.33069660487930741
v 2.27053365598141665 1.59477546918455015 2.26930339512069246
v 2.09061311213037948 1.89771874784034145 1.55657444514018106
v 2.09061311213037948 1.89771874784034145 2.04342555485981903
v 1.59692606262104198 -2.31452912725991400 2.04325888032991054
v 2.02595690048977195 -1.78347544781544265 2.51125897605172810
v 1.46375497740712612 -2.34094768777784434 2.43906859694738909
v 1.85872109146332010 -2.09684520488664949 1.80000000000000004
v 2.34478800758982420 -0.35660113643903851 3.25332492618200320
v 2.28173442386717040 -1.11384119805514348 2.92511570243462948
v 1.11197149921864047 -2.23680626014333006 3.20528955260086335
v 1.87132034355964283 -1.76750286502263720 2.91524410338055340
v 1.29836486015318320 -2.31335509508993953 2.83845904436697616
v 1.69223568164667237 -2.06992954023012121 2.68801377773330596
v 2.27053365598141665 -1.52077546918455031 1.33069660487930741
v 2.27053365598141665 -1.52077546918455031 2.26930339512069246
v 2.09061311213037948 -1.82371874784034160 1.55657444514018106
v 2.09061311213037948 -1.82371874784034160 2.04342555485981903
v 0.14360113643903849 -1.41632492618200345 4.39478800758982402
v 0.90084119805514340 -1.08811570243462929 4.33173442386717067
v 0.38906859694738916 -1.67675497740712620 4.17794768777784409
v 0.14496611405619392 -1.03768638045973693 4.57291380183403806
v 2.10152912725991392 -0.20625888032991058 3.64692606262104224
v 1.57047544781544257 -0.67425897605172780 4.07595690048977222
v 2.12794768777784427 -0.60206859694738923 3.51375497740712639
v 0.86524410338055358 -2.08432034355964291 3.60450286502263717
v 1.15528955260086308 -1.32497149921864033 4.07380626014332936
v 0.63801377773330592 -1.90523568164667245 3.90692954023012096
v 1.29012632369134383 -1.90273337539319476 3.49276263529731423
v 0.78845904436697634 -1.51136486015318328 4.15035509508993972
v 0.14921331242177399 -0.20972739583808694 4.76306502178541358
v 0.90856215676277641 -0.67903079095877961 4.47301957256510363
v 0.14837743048370750 -0.62335108241987724 4.69917779220731724
v 0.54224825197719673 -0.86677663727969623 4.54873252557364705
v 2.02380626014332954 -1.36828955260086316 3.16197149921864007
v 1.55450286502263690 -1.07824410338055343 3.92132034355964265
v 2.10035509508993945 -1.00145904436697641 3.34836486015318346
v 1.68973337539319468 -1.65576263529731449 3.34012632369134366
v 1.85692954023012113 -0.85101377773330600 3.74223568164667242
v 1.44276263529731441 -1.50312632369134391 3.73973337539319495
v 0.14360113643903849 1.49032492618200330 4.39478800758982402
v 0.90084119805514340 1.16211570243462914 4.33173442386717067
v 0.38906859694738916 1.75075497740712605 4.17794768777784409
v 0.14496611405619392 1.11168638045973678 4.57291380183403806
v 2.10152912725991392 0.28025888032991059 3.64692606262104224
v 1.57047544781544257 0.74825897605172786 4.07595690048977222
v 2.12794768777784427 0.67606859694738930 3.51375497740712639
v 1.88384520488664942 0.03700000000000000 3.90872109146332036
v 0.86524410338055358 2.15832034355964275 3.60450286502263717
v 1.15528955260086308 1.39897149921864017 4.07380626014332936
v 0.63801377773330592 1.97923568164667230 3.90692954023012096
v 1.29012632369134383 1.97673337539319460 3.49276263529731423
v 0.78845904436697634 1.58536486015318312 4.15035509508993972
v 0.14921331242177399 0.28372739583808693 4.76306502178541358
v 0.90856215676277641 0.75303079095877967 4.47301957256510363
v 0.14837743048370750 0.69735108241987731 4.69917779220731724
v 0.54921410340370225 0.03700000000000000 4.69158379040286722
v 0.54224825197719673 0.94077663727969629 4.54873252557364705
v 2.02380626014332954 1.44228955260086300 3.16197149921864007
v 1.55450286502263690 1.15224410338055328 3.92132034355964265
v 2.10035509508993945 1.07545904436697626 3.34836486015318346
v 1.68973337539319468 1.72976263529731433 3.34012632369134366
v 1.85692954023012113 0.92501377773330606 3.74223568164667242
v 1.44276263529731441 1.57712632369134376 3.73973337539319495
v 1.30777546918455023 -0.43230339512069266 4.32053365598141692
v 1.30777546918455023 0.50630339512069267 4.32053365598141692
v 1.61071874784034152 -0.20642555485981898 4.14061311213037975
v 0.94882115510555320 -0.20997074009588051 4.53894747879689664
v 1.61071874784034152 0.28042555485981896 4.14061311213037975
v 0.94882115510555320 0.28397074009588053 4.53894747879689664
v 2.49513026369895208 0.03700000000000000 0.58993395414790717
v 2.72131664587058575 0.03700000000000000 1.38614327361709888
v 2.52291380183403824 0.43196611405619390 0.72531361954026319
v 2.52291380183403824 -0.35796611405619394 0.72531361954026319
v 2.49513026369895208 0.03700000000000000 3.01006604585209292
v 2.72131664587058575 0.03700000000000000 2.21385672638290121
v 2.52291380183403824 0.43196611405619390 2.87468638045973712
v 2.52291380183403824 -0.35796611405619394 2.87468638045973712
v 2.42301957256510336 1.19556215676277633 1.08396920904122052
v 2.71306502178541331 0.43621331242177397 1.55327260416191315
v 2.49873252557364722 0.82924825197719676 0.89622336272030378
v 2.48894747879689726 1.23582115510555335 1.55302925990411955
v 2.64917779220731742 0.43537743048370747 1.13964891758012277
v 2.42301957256510336 -1.12156215676277649 1.08396920904122052
v 2.71306502178541331 -0.36221331242177401 1.55327260416191315
v 2.49873252557364722 -0.75524825197719669 0.89622336272030378
v 2.48894747879689726 -1.16182115510555350 1.55302925990411955
v 2.64917779220731742 -0.36137743048370752 1.13964891758012277
v 2.42301957256510336 1.19556215676277633 2.51603079095877957
v 2.71306502178541331 0.43621331242177397 2.04672739583808694
v 2.49873252557364722 0.82924825197719676 2.70377663727969608
v 2.48894747879689726 1.23582115510555335 2.04697074009588054
v 2.64917779220731742 0.43537743048370747 2.46035108241987732
v 2.64158379040286739 0.83621410340370228 1.80000000000000004
v 2.42301957256510336 -1.12156215676277649 2.51603079095877957
v 2.71306502178541331 -0.36221331242177401 2.04672739583808694
v 2.49873252557364722 -0.75524825197719669 2.70377663727969608
v 2.48894747879689726 -1.16182115510555350 2.04697074009588054
v 2.64917779220731742 -0.36137743048370752 2.46035108241987732
v 2.64158379040286739 -0.76221410340370221 1.80000000000000004
f 171 194 192
f 134 40 133
f 137 138 41
f 662 659 424
f 529 531 508
f 171 192 18
f 18 192 173
f 134 133 128
f 325 309 84
f 52 194 171
f 171 18 321
f 321 18 252
f 194 52 182
f 197 56 186
f 131 133 40
f 92 128 27
f 27 128 133
f 132 40 134
f 138 137 130
f 265 267 75
f 275 277 77
f 274 272 77
f 77 272 275
f 277 273 77
f 423 654 657
f 508 531 389
f 670 650 673
f 670 659 362
f 362 650 670
f 674 424 659
f 659 670 674
f 519 389 531
f 473 471 377
f 377 470 473
f 476 470 377
f 649 345 583
f 142 147 148
f 61 221 209
f 209 206 61
f 143 200 43
f 43 200 208
f 208 61 206
f 499 553 354
f 354 553 501
f 499 354 653
f 653 354 575
f 501 553 556
f 148 147 44
f 226 224 205
f 64 224 226
f 213 157 211
f 16 188 211
f 211 157 16
f 6 156 198
f 198 156 201
f 198 201 59
f 59 200 198
f 198 143 6
f 200 143 198
f 213 201 47
f 201 156 47
f 47 157 213
f 396 535 537
f 537 535 480
f 134 128 38
f 186 172 53
f 254 51 245
f 169 51 175
f 173 53 175
f 252 18 168
f 168 254 252
f 51 254 168
f 168 18 173
f 173 175 168
f 168 175 51
f 167 51 169
f 245 51 167
f 88 327 330
f 317 309 25
f 25 327 317
f 60 226 205
f 202 60 205
f 308 7 170
f 170 182 52
f 89 333 337
f 337 335 89
f 89 332 334
f 335 332 89
f 336 89 334
f 333 89 336
f 337 333 322
f 322 309 325
f 25 309 322
f 322 333 25
f 87 322 325
f 337 322 87
f 194 182 196
f 180 202 205
f 7 202 180
f 180 170 7
f 182 170 180
f 64 225 222
f 222 224 64
f 181 224 222
f 222 225 189
f 189 19 222
f 222 19 181
f 56 197 184
f 173 192 195
f 195 197 186
f 186 53 195
f 195 53 173
f 30 104 107
f 101 99 30
f 30 99 104
f 92 27 96
f 96 27 101
f 265 75 263
f 183 172 186
f 185 130 183
f 186 56 183
f 183 56 185
f 137 132 14
f 14 130 137
f 172 183 14
f 14 183 130
f 652 649 583
f 426 669 672
f 672 674 426
f 426 670 673
f 426 674 670
f 590 409 672
f 672 669 590
f 583 345 597
f 253 332 335
f 22 253 243
f 332 253 22
f 23 273 264
f 264 273 277
f 277 75 264
f 264 75 267
f 23 264 257
f 257 264 267
f 510 529 355
f 355 529 508
f 591 589 409
f 506 375 511
f 668 654 423
f 397 540 557
f 542 397 539
f 507 344 645
f 389 519 507
f 508 389 660
f 662 424 660
f 424 674 661
f 661 674 672
f 672 409 661
f 409 589 661
f 185 56 187
f 187 178 185
f 56 184 187
f 533 519 531
f 518 392 533
f 533 392 519
f 514 391 528
f 532 529 510
f 523 534 532
f 532 390 523
f 510 390 532
f 474 470 476
f 474 475 467
f 467 520 351
f 351 474 467
f 470 474 351
f 40 132 139
f 139 132 137
f 139 137 41
f 476 377 472
f 422 650 667
f 673 650 422
f 422 652 673
f 649 652 422
f 667 665 651
f 651 422 667
f 649 422 651
f 164 216 17
f 17 216 162
f 240 238 68
f 329 68 319
f 68 238 319
f 231 240 241
f 241 240 68
f 42 142 148
f 63 217 220
f 221 217 63
f 221 61 207
f 207 217 221
f 20 217 207
f 546 398 543
f 543 500 546
f 577 385 568
f 497 385 503
f 503 502 497
f 575 354 496
f 496 577 575
f 385 577 496
f 496 354 501
f 501 503 496
f 496 503 385
f 495 385 497
f 568 385 495
f 557 540 554
f 563 397 542
f 563 560 540
f 540 397 563
f 518 356 559
f 400 556 553
f 557 554 400
f 148 44 146
f 146 44 153
f 151 146 153
f 15 146 151
f 209 50 163
f 163 206 209
f 163 15 206
f 188 190 57
f 57 190 191
f 57 191 189
f 189 225 57
f 59 201 215
f 215 201 213
f 20 212 223
f 64 226 223
f 227 223 212
f 227 225 64
f 64 223 227
f 549 560 564
f 564 399 549
f 343 480 535
f 343 535 493
f 149 143 43
f 275 272 249
f 249 22 243
f 272 22 249
f 174 38 169
f 174 53 172
f 169 175 174
f 174 175 53
f 126 38 128
f 92 2 126
f 126 128 92
f 169 38 126
f 126 167 169
f 2 167 126
f 252 254 72
f 72 253 335
f 331 88 329
f 327 88 331
f 331 317 327
f 329 319 331
f 86 317 331
f 331 319 86
f 220 217 203
f 203 60 220
f 203 217 20
f 20 223 203
f 226 60 203
f 203 223 226
f 161 7 308
f 161 202 7
f 320 317 86
f 320 84 309
f 309 317 320
f 312 246 8
f 330 327 313
f 333 336 313
f 313 327 25
f 25 333 313
f 337 87 324
f 324 87 321
f 324 321 252
f 324 335 337
f 252 72 324
f 324 72 335
f 311 170 52
f 308 170 311
f 325 84 311
f 311 84 308
f 193 196 181
f 193 184 197
f 181 19 193
f 19 184 193
f 55 196 182
f 182 180 55
f 181 196 55
f 55 224 181
f 205 224 55
f 55 180 205
f 194 196 58
f 197 195 58
f 58 193 197
f 196 193 58
f 58 192 194
f 58 195 192
f 258 267 265
f 101 27 93
f 93 99 101
f 10 99 93
f 93 131 10
f 133 131 93
f 93 27 133
f 94 2 92
f 92 96 94
f 101 30 102
f 102 96 101
f 106 105 31
f 31 105 107
f 263 248 11
f 11 248 95
f 127 14 132
f 127 132 134
f 134 38 127
f 172 14 127
f 127 174 172
f 38 174 127
f 409 590 592
f 582 591 592
f 592 591 409
f 592 406 582
f 359 590 669
f 414 611 613
f 407 652 583
f 583 597 599
f 613 611 599
f 599 407 583
f 611 407 599
f 291 268 13
f 294 268 291
f 332 22 247
f 247 22 272
f 334 332 247
f 247 272 274
f 510 355 505
f 505 355 589
f 589 591 505
f 463 375 506
f 506 504 463
f 523 390 509
f 390 511 509
f 509 520 523
f 509 351 520
f 425 665 667
f 667 650 664
f 664 425 667
f 668 425 664
f 654 668 664
f 664 650 362
f 362 654 664
f 645 344 498
f 344 539 498
f 646 657 654
f 646 421 657
f 646 654 362
f 362 659 646
f 646 659 662
f 662 421 646
f 389 507 648
f 648 660 389
f 648 507 645
f 662 660 648
f 648 421 662
f 645 421 648
f 658 660 424
f 424 661 658
f 508 660 658
f 658 661 589
f 658 355 508
f 589 355 658
f 189 191 177
f 177 187 184
f 177 19 189
f 177 184 19
f 519 392 517
f 344 507 517
f 517 507 519
f 517 392 542
f 542 539 517
f 517 539 344
f 518 533 530
f 530 356 518
f 391 514 524
f 395 533 531
f 395 532 534
f 534 530 395
f 395 530 533
f 531 529 395
f 529 532 395
f 475 474 378
f 378 474 476
f 40 139 136
f 136 131 40
f 469 377 471
f 469 472 377
f 467 475 376
f 446 455 452
f 164 17 159
f 159 17 238
f 238 240 159
f 86 319 316
f 316 319 238
f 316 17 162
f 238 17 316
f 239 68 329
f 239 241 68
f 229 241 239
f 228 158 231
f 1 158 228
f 142 42 140
f 140 1 90
f 90 142 140
f 140 42 160
f 160 158 140
f 140 158 1
f 221 63 219
f 219 63 216
f 209 221 219
f 219 216 164
f 219 50 209
f 164 50 219
f 115 91 26
f 90 110 26
f 26 110 115
f 26 91 147
f 26 142 90
f 147 142 26
f 121 118 34
f 20 207 199
f 199 212 20
f 59 215 199
f 199 215 212
f 210 207 61
f 210 208 200
f 61 208 210
f 210 200 59
f 59 199 210
f 210 199 207
f 428 483 346
f 447 427 363
f 477 427 338
f 477 495 497
f 338 495 477
f 452 455 371
f 643 641 622
f 613 599 411
f 411 599 597
f 411 597 622
f 622 641 411
f 478 502 500
f 545 543 398
f 501 556 387
f 387 503 501
f 387 556 546
f 502 503 387
f 546 500 387
f 500 502 387
f 357 554 540
f 357 560 549
f 540 560 357
f 558 398 546
f 546 556 558
f 556 400 558
f 558 400 554
f 356 514 526
f 526 559 356
f 526 514 528
f 561 563 542
f 542 392 561
f 561 392 518
f 518 559 561
f 15 151 144
f 206 15 144
f 43 208 144
f 144 208 206
f 15 163 141
f 141 146 15
f 141 42 148
f 148 146 141
f 160 42 165
f 165 163 50
f 42 141 165
f 165 141 163
f 188 57 214
f 214 57 225
f 214 211 188
f 225 227 214
f 155 190 188
f 155 188 16
f 527 492 525
f 549 399 552
f 152 149 43
f 43 144 152
f 152 144 151
f 255 254 245
f 255 72 254
f 253 72 255
f 245 69 255
f 255 69 243
f 243 253 255
f 232 312 8
f 202 161 204
f 220 60 204
f 60 202 204
f 204 161 49
f 318 320 86
f 86 316 318
f 162 49 318
f 318 316 162
f 315 336 334
f 246 312 315
f 85 313 336
f 336 315 85
f 85 315 312
f 330 313 85
f 321 87 323
f 323 311 52
f 323 87 325
f 325 311 323
f 323 52 171
f 171 321 323
f 432 438 441
f 585 348 432
f 432 348 438
f 29 258 265
f 3 122 256
f 442 443 368
f 435 443 442
f 442 348 435
f 438 348 442
f 441 439 433
f 612 603 408
f 408 603 585
f 2 94 242
f 242 69 245
f 245 167 242
f 242 167 2
f 95 102 100
f 107 105 100
f 100 30 107
f 100 102 30
f 100 11 95
f 105 11 100
f 275 249 71
f 266 277 275
f 266 248 263
f 266 75 277
f 266 263 75
f 275 71 266
f 266 71 248
f 609 414 612
f 611 414 609
f 612 408 586
f 586 408 588
f 586 609 612
f 359 609 586
f 614 603 612
f 612 414 614
f 652 407 671
f 669 426 671
f 673 652 671
f 671 426 673
f 584 359 669
f 669 671 584
f 584 671 407
f 584 609 359
f 584 407 611
f 611 609 584
f 123 268 270
f 270 36 123
f 13 268 123
f 125 291 13
f 334 247 70
f 70 315 334
f 246 315 70
f 70 247 274
f 73 271 257
f 73 257 267
f 267 258 73
f 73 258 256
f 76 271 270
f 270 268 76
f 76 268 294
f 257 271 269
f 269 302 23
f 23 257 269
f 271 76 269
f 256 122 259
f 270 271 259
f 259 36 270
f 122 36 259
f 259 73 256
f 271 73 259
f 510 505 512
f 512 390 510
f 506 511 512
f 512 511 390
f 388 505 591
f 388 591 582
f 582 504 388
f 388 512 505
f 388 504 506
f 506 512 388
f 429 463 339
f 339 463 504
f 473 375 465
f 375 463 465
f 465 471 473
f 465 463 429
f 351 509 464
f 470 351 464
f 464 511 375
f 464 509 511
f 464 375 473
f 473 470 464
f 645 498 647
f 647 421 645
f 657 421 647
f 647 498 386
f 541 498 539
f 541 397 557
f 541 539 397
f 386 498 541
f 521 530 534
f 521 524 514
f 521 514 356
f 356 530 521
f 393 534 523
f 523 520 393
f 393 521 534
f 524 521 393
f 515 376 466
f 391 524 515
f 468 376 475
f 466 376 468
f 185 178 39
f 39 135 138
f 138 130 39
f 39 130 185
f 191 190 179
f 178 176 129
f 129 39 178
f 135 39 129
f 187 177 54
f 178 187 54
f 54 176 178
f 54 177 191
f 191 179 54
f 54 179 176
f 445 427 447
f 338 427 445
f 403 651 665
f 416 643 622
f 620 643 416
f 48 158 160
f 48 159 240
f 48 240 231
f 231 158 48
f 326 239 329
f 329 88 326
f 80 290 288
f 279 290 287
f 301 297 287
f 287 80 301
f 290 80 287
f 262 70 274
f 246 70 262
f 261 273 23
f 23 302 261
f 282 232 8
f 303 83 307
f 231 241 65
f 65 228 231
f 65 241 229
f 230 228 65
f 1 228 108
f 108 228 230
f 90 1 108
f 108 110 90
f 113 91 115
f 115 34 113
f 9 91 113
f 113 34 118
f 458 456 452
f 452 371 458
f 372 456 458
f 486 483 381
f 145 91 9
f 147 91 145
f 145 44 147
f 487 381 485
f 381 483 485
f 485 483 428
f 428 363 485
f 428 346 451
f 644 642 420
f 641 643 420
f 500 543 352
f 352 478 500
f 502 478 379
f 497 502 379
f 379 477 497
f 379 478 487
f 537 480 380
f 380 545 537
f 398 558 544
f 554 357 544
f 544 558 554
f 401 561 559
f 563 561 401
f 560 563 401
f 401 564 560
f 62 215 213
f 62 214 227
f 212 215 62
f 62 227 212
f 213 211 62
f 211 214 62
f 551 525 548
f 551 548 399
f 399 564 551
f 353 525 492
f 548 525 353
f 353 494 548
f 548 494 550
f 399 548 550
f 550 552 399
f 45 151 153
f 45 152 151
f 298 296 233
f 233 326 328
f 328 88 330
f 328 326 88
f 218 63 220
f 220 204 218
f 216 63 218
f 218 204 49
f 162 216 218
f 218 49 162
f 310 161 308
f 320 318 310
f 308 84 310
f 84 320 310
f 49 161 310
f 310 318 49
f 585 432 587
f 587 408 585
f 588 408 587
f 103 29 106
f 98 11 105
f 98 105 106
f 106 29 98
f 263 11 98
f 265 263 98
f 98 29 265
f 373 607 460
f 434 593 340
f 340 593 459
f 459 593 596
f 596 373 459
f 607 373 596
f 596 593 410
f 435 602 366
f 366 443 435
f 600 602 435
f 585 603 600
f 435 348 600
f 600 348 585
f 410 593 595
f 595 593 434
f 434 366 595
f 595 366 602
f 444 442 368
f 438 442 444
f 347 469 430
f 430 437 347
f 439 437 430
f 430 469 471
f 69 242 244
f 244 242 94
f 359 586 580
f 590 359 580
f 580 588 406
f 580 586 588
f 406 592 580
f 580 592 590
f 603 614 412
f 412 600 603
f 602 600 412
f 79 282 285
f 350 628 462
f 413 642 631
f 631 642 644
f 644 418 631
f 418 628 631
f 630 628 418
f 462 628 630
f 305 76 294
f 305 269 76
f 294 307 305
f 302 269 305
f 305 83 302
f 307 83 305
f 582 406 579
f 579 504 582
f 579 339 504
f 423 657 655
f 657 647 655
f 655 653 423
f 655 647 386
f 499 653 655
f 655 386 499
f 557 400 555
f 555 541 557
f 555 400 553
f 386 541 555
f 555 553 499
f 499 386 555
f 524 393 522
f 522 515 524
f 522 393 520
f 376 515 522
f 522 520 467
f 467 376 522
f 391 515 513
f 513 515 466
f 466 342 513
f 5 129 176
f 383 492 527
f 666 425 668
f 566 576 578
f 578 577 568
f 419 633 636
f 635 633 419
f 638 419 636
f 634 419 638
f 651 403 569
f 345 649 569
f 649 651 569
f 636 633 572
f 566 574 572
f 572 404 636
f 572 574 404
f 358 576 566
f 566 572 358
f 358 572 633
f 370 625 449
f 370 450 448
f 617 448 615
f 617 370 448
f 625 370 617
f 615 618 415
f 415 617 615
f 620 634 361
f 166 48 160
f 166 50 164
f 164 159 166
f 159 48 166
f 160 165 166
f 166 165 50
f 229 239 21
f 239 326 21
f 21 326 233
f 233 296 21
f 299 301 289
f 289 67 299
f 301 80 289
f 120 33 117
f 274 77 276
f 276 262 274
f 276 77 273
f 74 262 276
f 273 261 276
f 276 261 74
f 8 246 260
f 246 262 260
f 260 262 74
f 74 285 260
f 260 282 8
f 260 285 282
f 292 303 307
f 279 287 24
f 24 287 297
f 24 292 279
f 303 292 24
f 230 65 237
f 237 65 229
f 119 35 121
f 120 35 119
f 121 34 114
f 114 119 121
f 12 119 114
f 454 458 371
f 371 451 454
f 153 44 150
f 44 145 150
f 427 477 479
f 487 485 479
f 479 379 487
f 477 379 479
f 479 363 427
f 479 485 363
f 453 363 428
f 428 451 453
f 447 363 453
f 453 451 371
f 453 455 447
f 453 371 455
f 641 420 639
f 639 420 642
f 606 642 413
f 606 639 642
f 360 639 606
f 610 414 613
f 610 614 414
f 487 478 484
f 478 352 484
f 484 381 487
f 482 380 480
f 536 544 357
f 536 357 549
f 549 552 536
f 536 552 396
f 398 544 547
f 537 545 547
f 547 545 398
f 547 396 537
f 547 536 396
f 544 536 547
f 562 401 559
f 564 401 562
f 559 526 562
f 562 551 564
f 527 525 394
f 525 551 394
f 528 527 394
f 551 562 394
f 394 526 528
f 394 562 526
f 384 550 494
f 380 482 489
f 66 298 233
f 233 328 66
f 312 232 314
f 314 328 330
f 330 85 314
f 314 85 312
f 232 66 314
f 314 66 328
f 29 103 97
f 258 29 97
f 256 258 97
f 97 3 256
f 443 366 436
f 436 366 434
f 364 430 471
f 471 465 364
f 364 465 429
f 439 430 364
f 429 433 364
f 364 433 439
f 251 71 249
f 69 244 251
f 243 69 251
f 251 249 243
f 28 244 94
f 28 102 95
f 28 94 96
f 96 102 28
f 601 412 614
f 614 610 601
f 601 610 360
f 79 285 306
f 83 303 306
f 304 285 74
f 304 261 302
f 74 261 304
f 302 83 304
f 83 306 304
f 304 306 285
f 78 290 279
f 461 618 615
f 605 350 460
f 628 350 605
f 605 631 628
f 460 607 605
f 605 607 413
f 413 631 605
f 339 579 431
f 431 433 429
f 429 339 431
f 46 179 190
f 190 155 46
f 516 383 527
f 516 527 528
f 528 391 516
f 391 513 516
f 575 577 405
f 577 578 405
f 576 666 405
f 405 578 576
f 656 653 575
f 656 666 668
f 423 653 656
f 656 668 423
f 575 405 656
f 656 405 666
f 338 445 565
f 568 495 565
f 565 495 338
f 349 571 446
f 349 446 452
f 452 456 349
f 349 456 449
f 449 625 623
f 623 349 449
f 571 349 623
f 623 625 417
f 404 574 573
f 573 571 404
f 446 571 573
f 635 419 637
f 637 419 634
f 637 634 620
f 620 416 637
f 624 638 417
f 634 638 624
f 624 361 634
f 616 361 624
f 665 425 663
f 425 666 663
f 663 666 576
f 576 358 663
f 449 456 457
f 457 370 449
f 457 456 372
f 450 370 457
f 632 415 618
f 632 630 418
f 618 630 632
f 616 415 632
f 620 361 640
f 640 643 620
f 644 420 640
f 640 420 643
f 67 289 234
f 286 80 288
f 286 289 80
f 12 234 286
f 286 234 289
f 294 291 81
f 81 307 294
f 81 292 307
f 283 24 297
f 283 300 79
f 297 300 283
f 303 24 283
f 79 306 283
f 283 306 303
f 235 237 229
f 235 296 299
f 299 67 235
f 67 237 235
f 229 21 235
f 235 21 296
f 112 33 120
f 120 119 112
f 112 119 12
f 12 286 112
f 288 33 112
f 112 286 288
f 116 114 34
f 115 110 116
f 116 34 115
f 598 411 641
f 641 639 598
f 598 639 360
f 360 610 598
f 613 411 598
f 598 610 613
f 360 606 594
f 594 601 360
f 608 596 410
f 410 594 608
f 608 594 606
f 608 606 413
f 413 607 608
f 607 596 608
f 538 384 493
f 550 384 538
f 493 535 538
f 552 550 538
f 535 396 538
f 396 552 538
f 380 489 481
f 481 352 543
f 543 545 481
f 545 380 481
f 284 282 79
f 79 300 284
f 232 282 284
f 284 300 298
f 284 66 232
f 298 66 284
f 82 297 301
f 82 300 297
f 298 300 82
f 82 301 299
f 299 296 82
f 296 298 82
f 444 440 367
f 367 439 441
f 441 438 367
f 438 444 367
f 367 440 437
f 367 437 439
f 95 248 250
f 250 28 95
f 244 28 250
f 248 71 250
f 71 251 250
f 250 251 244
f 410 595 604
f 604 594 410
f 601 594 604
f 412 601 604
f 604 595 602
f 602 412 604
f 279 292 295
f 295 78 279
f 281 78 295
f 292 81 295
f 280 33 288
f 288 290 280
f 290 78 280
f 374 630 618
f 618 461 374
f 462 630 374
f 441 433 365
f 433 431 365
f 365 432 441
f 365 587 432
f 588 587 581
f 581 431 579
f 406 588 581
f 581 579 406
f 587 365 581
f 581 365 431
f 383 516 491
f 491 513 342
f 491 516 513
f 402 578 568
f 568 565 402
f 566 578 402
f 402 574 566
f 417 638 626
f 626 623 417
f 626 638 636
f 571 623 626
f 636 404 626
f 404 571 626
f 446 573 369
f 455 446 369
f 447 455 369
f 369 445 447
f 567 565 445
f 567 573 574
f 574 402 567
f 567 402 565
f 445 369 567
f 567 369 573
f 621 637 416
f 635 637 621
f 621 403 635
f 621 569 403
f 627 415 616
f 616 624 627
f 617 415 627
f 627 624 417
f 417 625 627
f 625 617 627
f 570 403 665
f 665 663 570
f 570 663 358
f 570 358 633
f 635 403 570
f 570 633 635
f 629 418 644
f 629 632 418
f 616 632 629
f 644 640 629
f 629 361 616
f 629 640 361
f 114 116 109
f 12 114 109
f 109 234 12
f 488 484 352
f 352 481 488
f 488 481 489
f 489 382 488
f 33 280 111
f 111 117 33
f 278 78 281
f 278 280 78
f 278 111 280
f 179 46 154
f 176 179 154
f 154 5 176
f 619 621 416
f 619 416 622
f 345 569 619
f 569 621 619
f 622 597 619
f 619 597 345
f 234 109 236
f 67 234 236
f 230 237 236
f 236 237 67
f 490 488 382
f 484 488 490
f 381 484 490
f 490 486 381
f 124 278 281
f 281 37 124
f 125 37 293
f 291 125 293
f 293 37 281
f 293 81 291
f 281 295 293
f 293 295 81
f 32 108 230
f 230 236 32
f 32 236 109
f 32 109 116
f 110 108 32
f 32 116 110
f 615 448 341
f 341 461 615
f 111 278 4
f 278 124 4
f 143 480 343
f 6 143 343
f 343 156 6
f 493 156 343
f 368 443 31
f 31 443 106
f 138 475 378
f 41 138 378
f 476 139 378
f 378 139 41
f 136 139 476
f 476 472 136
f 469 347 10
f 10 131 469
f 469 136 472
f 131 136 469
f 10 347 437
f 437 99 10
f 468 475 138
f 138 135 468
f 129 468 135
f 466 468 129
f 458 35 372
f 121 35 458
f 145 346 483
f 9 346 145
f 451 346 9
f 9 113 451
f 492 155 353
f 353 155 16
f 16 157 353
f 157 494 353
f 373 36 122
f 373 122 459
f 460 123 373
f 373 123 36
f 459 122 340
f 122 3 340
f 368 31 444
f 444 31 107
f 462 125 350
f 350 125 13
f 350 123 460
f 13 123 350
f 466 129 5
f 5 342 466
f 121 458 454
f 454 118 121
f 454 451 113
f 454 113 118
f 150 145 483
f 483 486 150
f 482 480 143
f 143 149 482
f 384 494 157
f 157 47 384
f 384 156 493
f 384 47 156
f 489 482 149
f 149 152 489
f 97 340 3
f 434 340 97
f 106 443 436
f 436 103 106
f 434 97 436
f 436 97 103
f 440 444 107
f 107 104 440
f 99 437 440
f 104 99 440
f 46 155 492
f 492 383 46
f 372 35 457
f 457 35 120
f 457 117 450
f 120 117 457
f 382 489 152
f 152 45 382
f 448 450 111
f 450 117 111
f 37 125 462
f 462 374 37
f 154 46 383
f 383 491 154
f 342 5 154
f 154 491 342
f 490 382 45
f 490 45 153
f 490 150 486
f 153 150 490
f 124 37 374
f 124 374 461
f 448 111 4
f 4 341 448
f 4 124 461
f 461 341 4

