# https://github.com/mikedh/trimesh
v -1.32719333635740067 2.58895242505611956 1.80000000000000004
v -1.32719333635740067 -2.51495242505611971 1.80000000000000004
v 0.25000000000000000 -1.54019333635740074 4.35195242505611990
v 0.25000000000000000 1.61419333635740059 4.35195242505611990
v 0.25000000000000000 -1.54019333635740074 -0.75195242505611959
v 0.25000000000000000 1.61419333635740059 -0.75195242505611959
v -2.30195242505611963 0.03700000000000000 0.22280666364259938
v -2.30195242505611963 0.03700000000000000 3.37719333635740071
v 0.25000000000000000 3.03699999999999992 1.80000000000000004
v 0.25000000000000000 -2.96300000000000008 1.80000000000000004
v -0.67705098312484213 -2.39005098312484243 3.29999999999999982
v -0.67705098312484213 2.46405098312484228 3.29999999999999982
v 0.25000000000000000 0.03700000000000000 4.79999999999999982
v -0.67705098312484213 -2.39005098312484243 0.30000000000000004
v -0.67705098312484213 2.46405098312484228 0.30000000000000004
v 0.25000000000000000 0.03700000000000000 -1.19999999999999996
v -2.17705098312484191 1.53699999999999992 0.87294901687515780
v -2.17705098312484191 -1.46300000000000008 0.87294901687515780
v -1.25000000000000000 -0.89005098312484221 -0.62705098312484187
v -1.25000000000000000 0.96405098312484228 -0.62705098312484187
v -2.17705098312484191 1.53699999999999992 2.72705098312484218
v -2.17705098312484191 -1.46300000000000008 2.72705098312484218
v -1.25000000000000000 -0.89005098312484221 4.22705098312484218
v -1.25000000000000000 0.96405098312484228 4.22705098312484218
v -2.75000000000000000 0.03700000000000000 1.80000000000000004
v -0.56979958673801501 2.92281507335175217 1.80000000000000004
v -0.56979958673801501 -2.84881507335175232 1.80000000000000004
v -1.05166569365808438 -2.55100544124855855 2.57967573902326297
v -0.23186610692006937 -2.04434143268134783 3.90613933432848981
v -0.23737954434935943 -2.81616954888546100 2.58859666817870071
v 0.25000000000000000 -2.51495242505611971 3.37719333635740071
v -1.05166569365808438 2.62500544124855839 2.57967573902326297
v -0.23186610692006937 2.11834143268134767 3.90613933432848981
v -0.23737954434935943 2.89016954888546085 2.58859666817870071
v 0.25000000000000000 2.58895242505611956 3.37719333635740071
v 0.25000000000000000 -0.78279958673801497 4.68581507335175207
v 0.25000000000000000 0.85679958673801504 4.68581507335175207
v -1.05166569365808438 -2.55100544124855855 1.02032426097673690
v -0.23186610692006937 -2.04434143268134783 -0.30613933432848950
v -0.23737954434935943 -2.81616954888546100 1.01140333182129960
v 0.25000000000000000 -2.51495242505611971 0.22280666364259938
v -1.05166569365808438 2.62500544124855839 1.02032426097673690
v -0.23186610692006937 2.11834143268134767 -0.30613933432848950
v -0.23737954434935943 2.89016954888546085 1.01140333182129960
v 0.25000000000000000 2.58895242505611956 0.22280666364259938
v 0.25000000000000000 -0.78279958673801497 -1.08581507335175220
v 0.25000000000000000 0.85679958673801504 -1.08581507335175220
v -1.83134143268134775 2.14313933432848946 1.31813389307993045
v -2.33800544124855847 0.81667573902326329 0.49833430634191567
v -1.51335575687741941 2.10157288070675996 0.52402378747194023
v -1.83134143268134775 -2.06913933432848962 1.31813389307993045
v -2.33800544124855847 -0.74267573902326323 0.49833430634191567
v -1.51335575687741941 -2.02757288070676012 0.52402378747194023
v -0.52967573902326326 -1.26466569365808446 -0.78800544124855842
v -1.85613933432848954 -0.44486610692006950 -0.28134143268134770
v -1.02597621252805982 -1.72635575687741949 -0.26457288070675999
v -0.53859666817870055 -0.45037954434935962 -1.05316954888546088
v -1.81457288070676004 -1.23897621252805989 0.03664424312258063
v -0.52967573902326326 1.33866569365808430 -0.78800544124855842
v -1.85613933432848954 0.51886610692006951 -0.28134143268134770
v -1.02597621252805982 1.80035575687741933 -0.26457288070675999
v -0.53859666817870055 0.52437954434935963 -1.05316954888546088
v -1.81457288070676004 1.31297621252805974 0.03664424312258063
v -1.32719333635740089 0.03700000000000000 -0.75195242505611959
v -1.83134143268134775 2.14313933432848946 2.28186610692006964
v -2.33800544124855847 0.81667573902326329 3.10166569365808442
v -1.51335575687741941 2.10157288070675996 3.07597621252805986
v -2.30195242505611963 1.61419333635740081 1.80000000000000004
v -1.83134143268134775 -2.06913933432848962 2.28186610692006964
v -2.33800544124855847 -0.74267573902326323 3.10166569365808442
v -1.51335575687741941 -2.02757288070676012 3.07597621252805986
v -2.30195242505611963 -1.54019333635740097 1.80000000000000004
v -0.52967573902326326 -1.26466569365808446 4.38800544124855829
v -1.85613933432848954 -0.44486610692006950 3.88134143268134757
v -1.02597621252805982 -1.72635575687741949 3.86457288070675986
v -0.53859666817870055 -0.45037954434935962 4.65316954888546075
v -1.81457288070676004 -1.23897621252805989 3.56335575687741946
v -0.52967573902326326 1.33866569365808430 4.38800544124855829
v -1.85613933432848954 0.51886610692006951 3.88134143268134757
v -1.02597621252805982 1.80035575687741933 3.86457288070675986
v -0.53859666817870055 0.52437954434935963 4.65316954888546075
v -1.81457288070676004 1.31297621252805974 3.56335575687741946
v -1.32719333635740089 0.03700000000000000 4.35195242505611990
v -2.63581507335175225 0.03700000000000000 0.98020041326198504
v -2.63581507335175225 0.03700000000000000 2.61979958673801505
v -2.60316954888546093 0.82559666817870059 1.31262045565064045
v -2.60316954888546093 -0.75159666817870052 1.31262045565064045
v -2.60316954888546093 0.82559666817870059 2.28737954434935986
v -2.60316954888546093 -0.75159666817870052 2.28737954434935986
v 2.07719333635740089 2.58895242505611956 1.80000000000000004
v 2.07719333635740089 -2.51495242505611971 1.80000000000000004
v 0.50000000000000000 -1.54019333635740074 4.35195242505611990
v 0.50000000000000000 1.61419333635740059 4.35195242505611990
v 0.50000000000000000 -1.54019333635740074 -0.75195242505611959
v 0.50000000000000000 1.61419333635740059 -0.75195242505611959
v 3.05195242505611963 0.03700000000000000 0.22280666364259938
v 3.05195242505611963 0.03700000000000000 3.37719333635740071
v 0.50000000000000000 3.03699999999999992 1.80000000000000004
v 0.50000000000000000 -2.96300000000000008 1.80000000000000004
v 1.42705098312484213 -2.39005098312484243 3.29999999999999982
v 1.42705098312484213 2.46405098312484228 3.29999999999999982
v 0.50000000000000000 0.03700000000000000 4.79999999999999982
v 1.42705098312484213 -2.39005098312484243 0.30000000000000004
v 1.42705098312484213 2.46405098312484228 0.30000000000000004
v 0.50000000000000000 0.03700000000000000 -1.19999999999999996
v 2.92705098312484191 1.53699999999999992 0.87294901687515780
v 2.92705098312484191 -1.46300000000000008 0.87294901687515780
v 2.00000000000000000 -0.89005098312484221 -0.62705098312484187
v 2.00000000000000000 0.96405098312484228 -0.62705098312484187
v 2.92705098312484191 1.53699999999999992 2.72705098312484218
v 2.92705098312484191 -1.46300000000000008 2.72705098312484218
v 2.00000000000000000 -0.89005098312484221 4.22705098312484218
v 2.00000000000000000 0.96405098312484228 4.22705098312484218
v 3.50000000000000000 0.03700000000000000 1.80000000000000004
v 1.31979958673801501 2.92281507335175217 1.80000000000000004
v 1.31979958673801501 -2.84881507335175232 1.80000000000000004
v 1.80166569365808438 -2.55100544124855855 2.57967573902326297
v 0.98186610692006937 -2.04434143268134783 3.90613933432848981
v 0.98737954434935937 -2.81616954888546100 2.58859666817870071
v 0.50000000000000000 -2.51495242505611971 3.37719333635740071
v 1.80166569365808438 2.62500544124855839 2.57967573902326297
v 0.98186610692006937 2.11834143268134767 3.90613933432848981
v 0.98737954434935937 2.89016954888546085 2.58859666817870071
v 0.50000000000000000 2.58895242505611956 3.37719333635740071
v 0.50000000000000000 -0.78279958673801497 4.68581507335175207
v 0.50000000000000000 0.85679958673801504 4.68581507335175207
v 1.80166569365808438 -2.55100544124855855 1.02032426097673690
v 0.98186610692006937 -2.04434143268134783 -0.30613933432848950
v 0.98737954434935937 -2.81616954888546100 1.01140333182129960
v 0.50000000000000000 -2.51495242505611971 0.22280666364259938
v 1.80166569365808438 2.62500544124855839 1.02032426097673690
v 0.98186610692006937 2.11834143268134767 -0.30613933432848950
v 0.98737954434935937 2.89016954888546085 1.01140333182129960
v 0.50000000000000000 2.58895242505611956 0.22280666364259938
v 0.50000000000000000 -0.78279958673801497 -1.08581507335175220
v 0.50000000000000000 0.85679958673801504 -1.08581507335175220
v 2.58134143268134775 2.14313933432848946 1.31813389307993045
v 3.08800544124855847 0.81667573902326329 0.49833430634191567
v 2.26335575687741919 2.10157288070675996 0.52402378747194023
v 2.58134143268134775 -2.06913933432848962 1.31813389307993045
v 3.08800544124855847 -0.74267573902326323 0.49833430634191567
v 2.26335575687741919 -2.02757288070676012 0.52402378747194023
v 1.27967573902326315 -1.26466569365808446 -0.78800544124855842
v 2.60613933432848954 -0.44486610692006950 -0.28134143268134770
v 1.77597621252805982 -1.72635575687741949 -0.26457288070675999
v 1.28859666817870044 -0.45037954434935962 -1.05316954888546088
v 2.56457288070676004 -1.23897621252805989 0.03664424312258063
v 1.27967573902326315 1.33866569365808430 -0.78800544124855842
v 2.60613933432848954 0.51886610692006951 -0.28134143268134770
v 1.77597621252805982 1.80035575687741933 -0.26457288070675999
v 1.28859666817870044 0.52437954434935963 -1.05316954888546088
v 2.56457288070676004 1.31297621252805974 0.03664424312258063
v 2.07719333635740089 0.03700000000000000 -0.75195242505611959
v 2.58134143268134775 2.14313933432848946 2.28186610692006964
v 3.08800544124855847 0.81667573902326329 3.10166569365808442
v 2.26335575687741919 2.10157288070675996 3.07597621252805986
v 3.05195242505611963 1.61419333635740081 1.80000000000000004
v 2.58134143268134775 -2.06913933432848962 2.28186610692006964
v 3.08800544124855847 -0.74267573902326323 3.10166569365808442
v 2.26335575687741919 -2.02757288070676012 3.07597621252805986
v 3.05195242505611963 -1.54019333635740097 1.80000000000000004
v 1.27967573902326315 -1.26466569365808446 4.38800544124855829
v 2.60613933432848954 -0.44486610692006950 3.88134143268134757
v 1.77597621252805982 -1.72635575687741949 3.86457288070675986
v 1.28859666817870044 -0.45037954434935962 4.65316954888546075
v 2.56457288070676004 -1.23897621252805989 3.56335575687741946
v 1.27967573902326315 1.33866569365808430 4.38800544124855829
v 2.60613933432848954 0.51886610692006951 3.88134143268134757
v 1.77597621252805982 1.80035575687741933 3.86457288070675986
v 1.28859666817870044 0.52437954434935963 4.65316954888546075
v 2.56457288070676004 1.31297621252805974 3.56335575687741946
v 2.07719333635740089 0.03700000000000000 4.35195242505611990
v 3.38581507335175225 0.03700000000000000 0.98020041326198504
v 3.38581507335175225 0.03700000000000000 2.61979958673801505
v 3.35316954888546093 0.82559666817870059 1.31262045565064045
v 3.35316954888546093 -0.75159666817870052 1.31262045565064045
v 3.35316954888546093 0.82559666817870059 2.28737954434935986
v 3.35316954888546093 -0.75159666817870052 2.28737954434935986
f 27 40 10
f 10 30 27
f 142 103 145
f 38 51 53
f 2 51 38
f 38 27 2
f 40 27 38
f 88 86 25
f 48 42 50
f 1 42 48
f 84 87 25
f 25 86 84
f 84 52 87
f 86 49 84
f 26 42 1
f 131 115 90
f 133 115 131
f 59 62 20
f 59 20 61
f 87 52 18
f 53 51 18
f 69 51 2
f 103 142 127
f 127 129 103
f 103 129 130
f 14 39 41
f 41 40 14
f 40 38 14
f 14 38 53
f 86 88 68
f 7 49 60
f 7 84 49
f 52 84 7
f 90 115 121
f 133 131 104
f 150 132 104
f 131 139 104
f 104 139 150
f 91 127 140
f 140 127 142
f 143 108 145
f 151 109 153
f 60 49 63
f 50 61 63
f 63 20 60
f 63 61 20
f 56 14 53
f 39 14 56
f 29 73 75
f 77 75 23
f 23 75 73
f 25 87 89
f 125 92 162
f 159 178 174
f 174 178 114
f 114 177 174
f 129 127 116
f 116 99 129
f 116 127 91
f 145 103 128
f 128 143 145
f 103 130 128
f 94 143 128
f 21 68 88
f 17 49 86
f 17 68 48
f 86 68 17
f 17 48 50
f 17 63 49
f 50 63 17
f 60 20 64
f 64 20 62
f 52 7 55
f 55 64 19
f 55 7 60
f 60 64 55
f 123 121 115
f 123 124 101
f 101 121 123
f 32 26 1
f 33 12 80
f 82 24 80
f 90 121 154
f 152 109 150
f 150 139 152
f 137 131 90
f 137 139 131
f 90 154 137
f 44 26 9
f 42 26 44
f 50 42 15
f 15 61 50
f 42 44 15
f 15 44 45
f 133 104 134
f 134 104 132
f 111 178 159
f 111 161 178
f 159 163 166
f 164 160 166
f 166 111 159
f 160 111 166
f 96 141 144
f 144 108 153
f 173 141 96
f 161 140 107
f 107 140 142
f 146 151 153
f 153 108 146
f 108 143 146
f 109 151 148
f 150 109 148
f 148 132 150
f 136 148 151
f 164 162 118
f 118 162 92
f 28 69 2
f 2 27 28
f 28 27 30
f 3 36 73
f 3 73 29
f 51 69 72
f 72 89 87
f 87 18 72
f 72 18 51
f 69 22 72
f 72 22 89
f 125 162 165
f 117 116 91
f 68 21 65
f 1 48 65
f 48 68 65
f 65 32 1
f 57 64 62
f 57 62 16
f 19 64 57
f 16 46 57
f 19 56 58
f 58 55 19
f 58 56 53
f 52 55 58
f 53 18 58
f 58 18 52
f 98 123 115
f 98 115 133
f 24 83 81
f 122 169 101
f 101 124 122
f 122 167 169
f 93 167 122
f 126 167 93
f 109 152 149
f 153 109 149
f 96 144 149
f 149 144 153
f 157 137 154
f 157 110 177
f 157 154 110
f 61 15 43
f 6 59 43
f 59 61 43
f 43 15 45
f 158 111 160
f 160 117 158
f 158 117 91
f 161 111 158
f 91 140 158
f 158 140 161
f 112 162 164
f 112 166 163
f 164 166 112
f 112 165 162
f 145 108 147
f 108 144 147
f 147 142 145
f 147 144 141
f 147 107 142
f 141 107 147
f 114 178 176
f 176 173 114
f 178 161 176
f 141 173 176
f 161 107 176
f 176 107 141
f 151 146 105
f 105 136 151
f 16 62 47
f 47 62 59
f 47 59 6
f 148 136 95
f 132 148 95
f 71 75 77
f 69 28 71
f 77 22 71
f 71 22 69
f 30 31 11
f 11 31 29
f 11 28 30
f 29 75 11
f 11 71 28
f 75 71 11
f 66 21 88
f 82 21 66
f 77 23 74
f 23 83 74
f 85 88 25
f 25 89 85
f 85 66 88
f 8 66 85
f 89 22 70
f 70 85 89
f 8 85 70
f 70 22 77
f 77 74 70
f 70 74 8
f 163 168 172
f 172 112 163
f 165 112 172
f 125 165 102
f 100 160 164
f 164 118 100
f 100 117 160
f 79 83 24
f 79 24 82
f 8 74 79
f 79 74 83
f 82 66 79
f 79 66 8
f 82 80 67
f 32 65 67
f 12 32 67
f 67 80 12
f 67 21 82
f 67 65 21
f 54 56 19
f 19 57 54
f 39 56 54
f 54 57 46
f 35 12 33
f 76 81 83
f 76 83 23
f 13 81 76
f 76 23 73
f 76 36 13
f 73 36 76
f 33 80 78
f 78 80 24
f 24 81 78
f 169 167 113
f 168 171 113
f 113 171 169
f 113 172 168
f 169 171 156
f 156 154 121
f 101 169 156
f 156 121 101
f 110 154 156
f 156 171 110
f 155 171 168
f 155 174 177
f 177 110 155
f 110 171 155
f 138 173 96
f 96 149 138
f 138 149 152
f 135 105 146
f 135 146 143
f 135 143 94
f 167 126 170
f 165 172 170
f 170 102 165
f 126 102 170
f 170 113 167
f 172 113 170
f 120 100 118
f 117 100 119
f 116 117 119
f 100 120 119
f 99 116 119
f 39 54 5
f 5 54 46
f 26 32 34
f 9 26 34
f 34 32 12
f 12 35 34
f 33 78 4
f 97 163 159
f 159 174 97
f 97 168 163
f 97 155 168
f 174 155 97
f 175 157 177
f 173 138 175
f 175 177 114
f 114 173 175
f 139 137 106
f 106 152 139
f 106 138 152
f 137 157 106
f 106 175 138
f 157 175 106
f 37 4 78
f 37 78 81
f 37 81 13
f 130 40 41
f 130 129 40
f 40 129 99
f 10 40 99
f 41 39 128
f 128 130 41
f 45 44 134
f 134 44 133
f 125 36 3
f 3 92 125
f 29 118 3
f 3 118 92
f 133 44 98
f 98 44 9
f 45 134 43
f 43 134 132
f 136 105 47
f 47 105 16
f 136 47 95
f 95 47 6
f 95 43 132
f 6 43 95
f 102 36 125
f 13 36 102
f 33 122 35
f 35 122 124
f 16 105 135
f 135 46 16
f 120 118 29
f 29 31 120
f 119 120 31
f 119 31 30
f 119 30 10
f 10 99 119
f 5 128 39
f 94 128 5
f 46 135 5
f 5 135 94
f 124 123 34
f 34 35 124
f 34 98 9
f 123 98 34
f 4 122 33
f 93 122 4
f 93 4 37
f 37 126 93
f 13 102 37
f 37 102 126

