# https://github.com/mikedh/trimesh
v -1.07719333635740067 2.58895242505611956 1.80000000000000004
v -1.07719333635740067 -2.51495242505611971 1.80000000000000004
v 0.50000000000000000 -1.54019333635740074 4.35195242505611990
v 0.50000000000000000 1.61419333635740059 4.35195242505611990
v 0.50000000000000000 -1.54019333635740074 -0.75195242505611959
v 0.50000000000000000 1.61419333635740059 -0.75195242505611959
v -2.05195242505611963 0.03700000000000000 0.22280666364259938
v -2.05195242505611963 0.03700000000000000 3.37719333635740071
v 0.50000000000000000 3.03699999999999992 1.80000000000000004
v 0.50000000000000000 -2.96300000000000008 1.80000000000000004
v -0.42705098312484213 -2.39005098312484243 3.29999999999999982
v -0.42705098312484213 2.46405098312484228 3.29999999999999982
v 0.50000000000000000 0.03700000000000000 4.79999999999999982
v -0.42705098312484213 -2.39005098312484243 0.30000000000000004
v -0.42705098312484213 2.46405098312484228 0.30000000000000004
v 0.50000000000000000 0.03700000000000000 -1.19999999999999996
v -1.92705098312484191 1.53699999999999992 0.87294901687515780
v -1.92705098312484191 -1.46300000000000008 0.87294901687515780
v -1.00000000000000000 -0.89005098312484221 -0.62705098312484187
v -1.00000000000000000 0.96405098312484228 -0.62705098312484187
v -1.92705098312484191 1.53699999999999992 2.72705098312484218
v -1.92705098312484191 -1.46300000000000008 2.72705098312484218
v -1.00000000000000000 -0.89005098312484221 4.22705098312484218
v -1.00000000000000000 0.96405098312484228 4.22705098312484218
v -2.50000000000000000 0.03700000000000000 1.80000000000000004
v -0.31979958673801501 2.92281507335175217 1.80000000000000004
v -0.31979958673801501 -2.84881507335175232 1.80000000000000004
v -0.80166569365808438 -2.55100544124855855 2.57967573902326297
v 0.01813389307993063 -2.04434143268134783 3.90613933432848981
v 0.01262045565064057 -2.81616954888546100 2.58859666817870071
v 0.50000000000000000 -2.51495242505611971 3.37719333635740071
v -0.80166569365808438 2.62500544124855839 2.57967573902326297
v 0.01813389307993063 2.11834143268134767 3.90613933432848981
v 0.01262045565064057 2.89016954888546085 2.58859666817870071
v 0.50000000000000000 2.58895242505611956 3.37719333635740071
v 0.50000000000000000 -0.78279958673801497 4.68581507335175207
v 0.50000000000000000 0.85679958673801504 4.68581507335175207
v -0.80166569365808438 -2.55100544124855855 1.02032426097673690
v 0.01813389307993063 -2.04434143268134783 -0.30613933432848950
v 0.01262045565064057 -2.81616954888546100 1.01140333182129960
v 0.50000000000000000 -2.51495242505611971 0.22280666364259938
v -0.80166569365808438 2.62500544124855839 1.02032426097673690
v 0.01813389307993063 2.11834143268134767 -0.30613933432848950
v 0.01262045565064057 2.89016954888546085 1.01140333182129960
v 0.50000000000000000 2.58895242505611956 0.22280666364259938
v 0.50000000000000000 -0.78279958673801497 -1.08581507335175220
v 0.50000000000000000 0.85679958673801504 -1.08581507335175220
v -1.58134143268134775 2.14313933432848946 1.31813389307993045
v -2.08800544124855847 0.81667573902326329 0.49833430634191567
v -1.26335575687741941 2.10157288070675996 0.52402378747194023
v -1.58134143268134775 -2.06913933432848962 1.31813389307993045
v -2.08800544124855847 -0.74267573902326323 0.49833430634191567
v -1.26335575687741941 -2.02757288070676012 0.52402378747194023
v -0.27967573902326326 -1.26466569365808446 -0.78800544124855842
v -1.60613933432848954 -0.44486610692006950 -0.28134143268134770
v -0.77597621252805982 -1.72635575687741949 -0.26457288070675999
v -0.28859666817870055 -0.45037954434935962 -1.05316954888546088
v -1.56457288070676004 -1.23897621252805989 0.03664424312258063
v -0.27967573902326326 1.33866569365808430 -0.78800544124855842
v -1.60613933432848954 0.51886610692006951 -0.28134143268134770
v -0.77597621252805982 1.80035575687741933 -0.26457288070675999
v -0.28859666817870055 0.52437954434935963 -1.05316954888546088
v -1.56457288070676004 1.31297621252805974 0.03664424312258063
v -1.07719333635740089 0.03700000000000000 -0.75195242505611959
v -1.58134143268134775 2.14313933432848946 2.28186610692006964
v -2.08800544124855847 0.81667573902326329 3.10166569365808442
v -1.26335575687741941 2.10157288070675996 3.07597621252805986
v -2.05195242505611963 1.61419333635740081 1.80000000000000004
v -1.58134143268134775 -2.06913933432848962 2.28186610692006964
v -2.08800544124855847 -0.74267573902326323 3.10166569365808442
v -1.26335575687741941 -2.02757288070676012 3.07597621252805986
v -2.05195242505611963 -1.54019333635740097 1.80000000000000004
v -0.27967573902326326 -1.26466569365808446 4.38800544124855829
v -1.60613933432848954 -0.44486610692006950 3.88134143268134757
v -0.77597621252805982 -1.72635575687741949 3.86457288070675986
v -0.28859666817870055 -0.45037954434935962 4.65316954888546075
v -1.56457288070676004 -1.23897621252805989 3.56335575687741946
v -0.27967573902326326 1.33866569365808430 4.38800544124855829
v -1.60613933432848954 0.51886610692006951 3.88134143268134757
v -0.77597621252805982 1.80035575687741933 3.86457288070675986
v -0.28859666817870055 0.52437954434935963 4.65316954888546075
v -1.56457288070676004 1.31297621252805974 3.56335575687741946
v -1.07719333635740089 0.03700000000000000 4.35195242505611990
v -2.38581507335175225 0.03700000000000000 0.98020041326198504
v -2.38581507335175225 0.03700000000000000 2.61979958673801505
v -2.35316954888546093 0.82559666817870059 1.31262045565064045
v -2.35316954888546093 -0.75159666817870052 1.31262045565064045
v -2.35316954888546093 0.82559666817870059 2.28737954434935986
v -2.35316954888546093 -0.75159666817870052 2.28737954434935986
v 2.32719333635740089 2.58895242505611956 1.80000000000000004
v 2.32719333635740089 -2.51495242505611971 1.80000000000000004
v 0.75000000000000000 -1.54019333635740074 4.35195242505611990
v 0.75000000000000000 1.61419333635740059 4.35195242505611990
v 0.75000000000000000 -1.54019333635740074 -0.75195242505611959
v 0.75000000000000000 1.61419333635740059 -0.75195242505611959
v 3.30195242505611963 0.03700000000000000 0.22280666364259938
v 3.30195242505611963 0.03700000000000000 3.37719333635740071
v 0.75000000000000000 3.03699999999999992 1.80000000000000004
v 0.75000000000000000 -2.96300000000000008 1.80000000000000004
v 1.67705098312484213 -2.39005098312484243 3.29999999999999982
v 1.67705098312484213 2.46405098312484228 3.29999999999999982
v 0.75000000000000000 0.03700000000000000 4.79999999999999982
v 1.67705098312484213 -2.39005098312484243 0.30000000000000004
v 1.67705098312484213 2.46405098312484228 0.30000000000000004
v 0.75000000000000000 0.03700000000000000 -1.19999999999999996
v 3.17705098312484191 1.53699999999999992 0.87294901687515780
v 3.17705098312484191 -1.46300000000000008 0.87294901687515780
v 2.25000000000000000 -0.89005098312484221 -0.62705098312484187
v 2.25000000000000000 0.96405098312484228 -0.62705098312484187
v 3.17705098312484191 1.53699999999999992 2.72705098312484218
v 3.17705098312484191 -1.46300000000000008 2.72705098312484218
v 2.25000000000000000 -0.89005098312484221 4.22705098312484218
v 2.25000000000000000 0.96405098312484228 4.22705098312484218
v 3.75000000000000000 0.03700000000000000 1.80000000000000004
v 1.56979958673801501 2.92281507335175217 1.80000000000000004
v 1.56979958673801501 -2.84881507335175232 1.80000000000000004
v 2.05166569365808460 -2.55100544124855855 2.57967573902326297
v 1.23186610692006937 -2.04434143268134783 3.90613933432848981
v 1.23737954434935937 -2.81616954888546100 2.58859666817870071
v 0.75000000000000000 -2.51495242505611971 3.37719333635740071
v 2.05166569365808460 2.62500544124855839 2.57967573902326297
v 1.23186610692006937 2.11834143268134767 3.90613933432848981
v 1.23737954434935937 2.89016954888546085 2.58859666817870071
v 0.75000000000000000 2.58895242505611956 3.37719333635740071
v 0.75000000000000000 -0.78279958673801497 4.68581507335175207
v 0.75000000000000000 0.85679958673801504 4.68581507335175207
v 2.05166569365808460 -2.55100544124855855 1.02032426097673690
v 1.23186610692006937 -2.04434143268134783 -0.30613933432848950
v 1.23737954434935937 -2.81616954888546100 1.01140333182129960
v 0.75000000000000000 -2.51495242505611971 0.22280666364259938
v 2.05166569365808460 2.62500544124855839 1.02032426097673690
v 1.23186610692006937 2.11834143268134767 -0.30613933432848950
v 1.23737954434935937 2.89016954888546085 1.01140333182129960
v 0.75000000000000000 2.58895242505611956 0.22280666364259938
v 0.75000000000000000 -0.78279958673801497 -1.08581507335175220
v 0.75000000000000000 0.85679958673801504 -1.08581507335175220
v 2.83134143268134775 2.14313933432848946 1.31813389307993045
v 3.33800544124855847 0.81667573902326329 0.49833430634191567
v 2.51335575687741919 2.10157288070675996 0.52402378747194023
v 2.83134143268134775 -2.06913933432848962 1.31813389307993045
v 3.33800544124855847 -0.74267573902326323 0.49833430634191567
v 2.51335575687741919 -2.02757288070676012 0.52402378747194023
v 1.52967573902326315 -1.26466569365808446 -0.78800544124855842
v 2.85613933432848954 -0.44486610692006950 -0.28134143268134770
v 2.02597621252806004 -1.72635575687741949 -0.26457288070675999
v 1.53859666817870044 -0.45037954434935962 -1.05316954888546088
v 2.81457288070676004 -1.23897621252805989 0.03664424312258063
v 1.52967573902326315 1.33866569365808430 -0.78800544124855842
v 2.85613933432848954 0.51886610692006951 -0.28134143268134770
v 2.02597621252806004 1.80035575687741933 -0.26457288070675999
v 1.53859666817870044 0.52437954434935963 -1.05316954888546088
v 2.81457288070676004 1.31297621252805974 0.03664424312258063
v 2.32719333635740089 0.03700000000000000 -0.75195242505611959
v 2.83134143268134775 2.14313933432848946 2.28186610692006964
v 3.33800544124855847 0.81667573902326329 3.10166569365808442
v 2.51335575687741919 2.10157288070675996 3.07597621252805986
v 3.30195242505611963 1.61419333635740081 1.80000000000000004
v 2.83134143268134775 -2.06913933432848962 2.28186610692006964
v 3.33800544124855847 -0.74267573902326323 3.10166569365808442
v 2.51335575687741919 -2.02757288070676012 3.07597621252805986
v 3.30195242505611963 -1.54019333635740097 1.80000000000000004
v 1.52967573902326315 -1.26466569365808446 4.38800544124855829
v 2.85613933432848954 -0.44486610692006950 3.88134143268134757
v 2.02597621252806004 -1.72635575687741949 3.86457288070675986
v 1.53859666817870044 -0.45037954434935962 4.65316954888546075
v 2.81457288070676004 -1.23897621252805989 3.56335575687741946
v 1.52967573902326315 1.33866569365808430 4.38800544124855829
v 2.85613933432848954 0.51886610692006951 3.88134143268134757
v 2.02597621252806004 1.80035575687741933 3.86457288070675986
v 1.53859666817870044 0.52437954434935963 4.65316954888546075
v 2.81457288070676004 1.31297621252805974 3.56335575687741946
v 2.32719333635740089 0.03700000000000000 4.35195242505611990
v 3.63581507335175225 0.03700000000000000 0.98020041326198504
v 3.63581507335175225 0.03700000000000000 2.61979958673801505
v 3.60316954888546093 0.82559666817870059 1.31262045565064045
v 3.60316954888546093 -0.75159666817870052 1.31262045565064045
v 3.60316954888546093 0.82559666817870059 2.28737954434935986
v 3.60316954888546093 -0.75159666817870052 2.28737954434935986
f 53 18 58
f 58 18 52
f 52 55 58
f 7 55 52
f 18 87 52
f 91 116 127
f 127 116 129
f 2 27 28
f 56 53 58
f 18 53 51
f 25 88 86
f 49 17 63
f 49 86 17
f 60 55 7
f 60 49 63
f 7 49 60
f 131 115 90
f 133 115 131
f 29 3 73
f 103 127 129
f 103 128 145
f 129 116 99
f 2 28 69
f 69 51 2
f 29 73 75
f 30 27 10
f 30 28 27
f 38 27 2
f 2 51 38
f 38 51 53
f 39 56 54
f 17 86 68
f 68 86 88
f 25 86 84
f 84 87 25
f 84 49 7
f 86 49 84
f 7 52 84
f 84 52 87
f 20 60 63
f 133 131 104
f 150 132 104
f 131 139 104
f 104 139 150
f 91 127 140
f 114 178 176
f 178 161 176
f 174 178 114
f 114 177 174
f 159 178 174
f 174 97 159
f 153 108 146
f 63 17 50
f 26 42 1
f 26 34 9
f 111 178 159
f 111 161 178
f 118 120 100
f 77 75 23
f 23 75 73
f 51 69 72
f 72 87 18
f 18 51 72
f 71 69 28
f 71 75 77
f 27 38 40
f 10 27 40
f 130 103 129
f 128 103 130
f 19 56 58
f 58 55 19
f 19 54 56
f 21 68 88
f 98 115 133
f 35 12 33
f 34 12 35
f 152 109 150
f 150 139 152
f 137 131 90
f 137 139 131
f 142 140 127
f 142 103 145
f 127 103 142
f 114 176 173
f 161 140 107
f 107 176 161
f 140 142 107
f 37 81 13
f 159 97 163
f 151 109 153
f 153 146 151
f 143 146 108
f 143 108 145
f 145 128 143
f 143 128 94
f 135 143 94
f 146 143 135
f 48 50 17
f 17 68 48
f 1 42 48
f 42 50 48
f 133 104 134
f 134 104 132
f 6 59 43
f 158 111 160
f 161 111 158
f 91 140 158
f 158 140 161
f 160 100 117
f 91 158 117
f 117 158 160
f 117 116 91
f 25 87 89
f 87 72 89
f 75 71 11
f 29 75 11
f 11 71 28
f 11 31 29
f 28 30 11
f 30 31 11
f 119 100 120
f 119 117 100
f 116 117 119
f 119 99 116
f 14 40 38
f 14 38 53
f 41 40 14
f 53 56 14
f 39 41 14
f 14 56 39
f 60 20 64
f 55 60 64
f 64 19 55
f 77 23 74
f 33 12 80
f 80 12 67
f 76 23 73
f 13 81 76
f 67 12 32
f 32 12 34
f 32 26 1
f 34 26 32
f 66 21 88
f 68 21 65
f 1 48 65
f 65 48 68
f 65 21 67
f 65 32 1
f 67 32 65
f 19 64 57
f 54 19 57
f 109 152 149
f 153 109 149
f 137 157 106
f 106 152 139
f 139 137 106
f 176 107 141
f 96 173 141
f 141 173 176
f 159 163 166
f 166 111 159
f 160 111 166
f 155 174 177
f 97 174 155
f 168 163 97
f 172 163 168
f 97 155 168
f 168 155 171
f 109 151 148
f 150 109 148
f 148 132 150
f 136 148 151
f 146 135 105
f 105 151 146
f 105 136 151
f 39 54 5
f 42 26 44
f 44 26 9
f 61 43 59
f 59 20 61
f 61 20 63
f 63 50 61
f 25 89 85
f 85 88 25
f 85 66 88
f 8 66 85
f 77 74 70
f 70 74 8
f 8 85 70
f 70 85 89
f 83 76 81
f 83 74 23
f 23 76 83
f 67 21 82
f 21 66 82
f 82 80 67
f 46 57 16
f 54 57 46
f 46 5 54
f 62 57 64
f 62 64 20
f 16 57 62
f 62 20 59
f 175 106 157
f 175 157 177
f 175 177 114
f 114 173 175
f 96 141 144
f 144 108 153
f 144 149 96
f 153 149 144
f 13 76 36
f 36 76 73
f 36 73 3
f 160 166 164
f 118 100 164
f 164 100 160
f 171 155 110
f 177 157 110
f 110 155 177
f 115 98 123
f 113 168 171
f 172 168 113
f 167 170 113
f 113 170 172
f 148 136 95
f 132 148 95
f 22 72 69
f 22 89 72
f 22 70 89
f 69 71 22
f 22 71 77
f 77 70 22
f 8 74 79
f 74 83 79
f 79 66 8
f 79 82 66
f 16 62 47
f 47 62 59
f 47 59 6
f 106 175 138
f 152 106 138
f 138 173 96
f 138 175 173
f 96 149 138
f 138 149 152
f 145 108 147
f 108 144 147
f 147 142 145
f 147 144 141
f 147 107 142
f 147 141 107
f 118 164 162
f 162 92 118
f 125 92 162
f 171 110 156
f 101 123 124
f 124 122 101
f 90 115 121
f 115 123 121
f 121 123 101
f 101 156 121
f 126 170 167
f 102 170 126
f 15 61 50
f 15 50 42
f 43 61 15
f 42 44 15
f 45 43 15
f 15 44 45
f 81 37 78
f 33 80 78
f 37 4 78
f 78 4 33
f 172 170 165
f 125 162 165
f 165 170 102
f 165 102 125
f 101 122 169
f 169 156 101
f 169 122 167
f 171 156 169
f 169 113 171
f 167 113 169
f 154 156 110
f 154 110 157
f 90 121 154
f 154 121 156
f 154 137 90
f 154 157 137
f 93 126 167
f 167 122 93
f 80 82 24
f 82 79 24
f 24 78 80
f 24 79 83
f 24 83 81
f 81 78 24
f 112 163 172
f 112 165 162
f 172 165 112
f 112 164 166
f 112 166 163
f 112 162 164
f 31 118 29
f 31 120 118
f 40 99 10
f 129 99 40
f 129 40 130
f 130 40 41
f 39 128 130
f 130 41 39
f 45 134 43
f 43 134 132
f 120 31 119
f 119 31 30
f 10 99 119
f 119 30 10
f 5 128 39
f 94 128 5
f 133 134 44
f 44 134 45
f 9 98 44
f 44 98 133
f 46 105 135
f 16 105 46
f 94 5 46
f 46 135 94
f 125 102 36
f 36 102 13
f 29 118 92
f 92 3 29
f 125 36 92
f 92 36 3
f 9 34 123
f 123 98 9
f 95 43 132
f 6 43 95
f 47 105 16
f 136 105 47
f 6 95 47
f 47 95 136
f 124 123 34
f 34 35 124
f 33 122 124
f 124 35 33
f 13 102 126
f 126 37 13
f 37 126 93
f 93 4 37
f 93 122 33
f 33 4 93

