v -0.3680117784833935 -0.595455565846428 0.5
v 0.3680117784833935 -0.595455565846428 0.5
v 0 -0.3680117784833935 1.095455565846428
v 0 -0.3680117784833935 -0.095455565846428003
v -0.595455565846428 0 0.1319882215166065
v -0.595455565846428 0 0.8680117784833935
v 0 -0.69999999999999996 0.5
v -0.2163118960624632 -0.56631189606246313 0.85000000000000009
v 0.2163118960624632 -0.56631189606246313 0.85000000000000009
v 0 0 1.2
v -0.2163118960624632 -0.56631189606246313 0.14999999999999997
v 0.2163118960624632 -0.56631189606246313 0.14999999999999997
v 0 0 -0.19999999999999996
v -0.56631189606246313 0.35000000000000003 0.2836881039375368
v -0.56631189606246313 -0.35000000000000003 0.2836881039375368
v -0.35000000000000003 -0.2163118960624632 -0.066311896062463127
v -0.35000000000000003 0.2163118960624632 -0.066311896062463127
v -0.56631189606246313 0.35000000000000003 0.71631189606246326
v -0.56631189606246313 -0.35000000000000003 0.71631189606246326
v -0.35000000000000003 -0.2163118960624632 1.0663118960624631
v -0.35000000000000003 0.2163118960624632 1.0663118960624631
v -0.69999999999999996 0 0.5
v -0.19128657023887019 -0.67335685044874227 0.5
v 0.19128657023887019 -0.67335685044874227 0.5
v -0.30372199518688631 -0.60386793629133029 0.68192433910542805
v -0.11243542494801619 -0.48564633429231446 0.99143251134331412
v -0.11372189368151719 -0.66573956140660751 0.6840058892416967
v 0.30372199518688631 -0.60386793629133029 0.68192433910542805
v 0.11243542494801619 -0.48564633429231446 0.99143251134331412
v 0.11372189368151719 -0.66573956140660751 0.6840058892416967
v 0 -0.595455565846428 0.86801177848339361
v 0 -0.19128657023887019 1.1733568504487422
v -0.30372199518688631 -0.60386793629133029 0.31807566089457195
v -0.11243542494801619 -0.48564633429231446 0.0085674886566858843
v -0.11372189368151719 -0.66573956140660751 0.31599411075830325
v 0.30372199518688631 -0.60386793629133029 0.31807566089457195
v 0.11243542494801619 -0.48564633429231446 0.0085674886566858843
v 0.11372189368151719 -0.66573956140660751 0.31599411075830325
v 0 -0.595455565846428 0.13198822151660644
v 0 -0.19128657023887019 -0.17335685044874227
v 0.48564633429231446 -0.49143251134331417 0.38756457505198377
v 0.41144967660473125 -0.4817336721649107 0.202272217076786
v 0.1819243391054281 -0.30372199518688636 -0.10386793629133029
v 0.297727782923214 -0.4114496766047312 0.018266327835089302
v 0.18400588924169678 -0.11372189368151724 -0.16573956140660751
v 0.48564633429231446 -0.49143251134331417 0.61243542494801617
v 0.41144967660473125 -0.4817336721649107 0.797727782923214
v 0.1819243391054281 -0.30372199518688636 1.1038679362913304
v 0.297727782923214 -0.4114496766047312 0.9817336721649107
v -0.48564633429231446 0.49143251134331417 0.38756457505198377
v -0.60386793629133029 0.1819243391054281 0.19627800481311364
v -0.41144967660473125 0.4817336721649107 0.202272217076786
v -0.48564633429231446 -0.49143251134331417 0.38756457505198377
v -0.60386793629133029 -0.1819243391054281 0.19627800481311364
v -0.41144967660473125 -0.4817336721649107 0.202272217076786
v -0.1819243391054281 -0.30372199518688636 -0.10386793629133029
v -0.49143251134331412 -0.11243542494801619 0.014353665707685648
v -0.297727782923214 -0.4114496766047312 0.018266327835089302
v -0.18400588924169678 -0.11372189368151724 -0.16573956140660751
v -0.4817336721649107 -0.297727782923214 0.088550323395268804
v -0.49143251134331412 0.11243542494801619 0.014353665707685648
v -0.297727782923214 0.4114496766047312 0.018266327835089302
v -0.18400588924169678 0.11372189368151724 -0.16573956140660751
v -0.4817336721649107 0.297727782923214 0.088550323395268804
v -0.36801177848339356 0 -0.095455565846427892
v -0.48564633429231446 0.49143251134331417 0.61243542494801617
v -0.60386793629133029 0.1819243391054281 0.80372199518688636
v -0.41144967660473125 0.4817336721649107 0.797727782923214
v -0.59545556584642789 0.36801177848339356 0.5
v -0.48564633429231446 -0.49143251134331417 0.61243542494801617
v -0.60386793629133029 -0.1819243391054281 0.80372199518688636
v -0.41144967660473125 -0.4817336721649107 0.797727782923214
v -0.59545556584642789 -0.36801177848339356 0.5
v -0.1819243391054281 -0.30372199518688636 1.1038679362913304
v -0.49143251134331412 -0.11243542494801619 0.9856463342923143
v -0.297727782923214 -0.4114496766047312 0.9817336721649107
v -0.18400588924169678 -0.11372189368151724 1.1657395614066075
v -0.4817336721649107 -0.297727782923214 0.9114496766047312
v -0.49143251134331412 0.11243542494801619 0.9856463342923143
v -0.18400588924169678 0.11372189368151724 1.1657395614066075
v -0.4817336721649107 0.297727782923214 0.9114496766047312
v -0.36801177848339356 0 1.0954555658464278
v -0.67335685044874227 0 0.30871342976112981
v -0.67335685044874227 0 0.69128657023887019
v -0.66573956140660751 0.18400588924169678 0.38627810631848275
v -0.66573956140660751 -0.18400588924169678 0.38627810631848275
v -0.66573956140660751 0.18400588924169678 0.61372189368151719
v -0.66573956140660751 -0.18400588924169678 0.61372189368151719
v -0.28234874403215504 -0.64053039486308883 0.5
v -0.096566569489343598 -0.69330721736980327 0.5
v 0.28234874403215504 -0.64053039486308883 0.5
v 0.096566569489343598 -0.69330721736980327 0.5
v -0.33910914944246751 -0.60545053510429236 0.59184026516910904
v -0.26252699723474676 -0.59073803223567312 0.76852961287953336
v -0.25076015544060526 -0.64701322042794218 0.59215875994644518
v -0.056760405410312451 -0.43094941461157649 1.0486901296939799
v -0.16596042774540315 -0.53105661011428007 0.92477760449026991
v -0.057569725695553596 -0.69138183841659639 0.59314977289841386
v -0.16707385122371521 -0.6237045669318575 0.77033116991131445
v -0.15408191923130468 -0.67647481818170729 0.59295473377953167
v -0.21088121536526239 -0.64137092263385098 0.68485792546134583
v 0.33910914944246751 -0.60545053510429236 0.59184026516910904
v 0.26252699723474676 -0.59073803223567312 0.76852961287953336
v 0.25076015544060526 -0.64701322042794218 0.59215875994644518
v 0.056760405410312451 -0.43094941461157649 1.0486901296939799
v 0.16596042774540315 -0.53105661011428007 0.92477760449026991
v 0 -0.49203492134144122 0.9978972144735514
v 0.057569725695553596 -0.69138183841659639 0.59314977289841386
v 0.16707385122371521 -0.6237045669318575 0.77033116991131445
v 0.15408191923130468 -0.67647481818170729 0.59295473377953167
v 0 -0.67470288442733573 0.68648329079419712
v 0.21088121536526239 -0.64137092263385098 0.68485792546134583
v -0.10950412552816161 -0.58812451972899715 0.86348094280972831
v 0.10950412552816161 -0.58812451972899715 0.86348094280972831
v -0.056799296133957733 -0.54614305949708863 0.93416770782941283
v -0.057626506022372112 -0.63908774505260935 0.77972493619129579
v 0.056799296133957733 -0.54614305949708863 0.93416770782941283
v 0.057626506022372112 -0.63908774505260935 0.77972493619129579
v 0 -0.28234874403215504 1.1405303948630889
v 0 -0.096566569489343598 1.1933072173698034
v -0.33910914944246751 -0.60545053510429236 0.40815973483089102
v -0.26252699723474676 -0.59073803223567312 0.23147038712046658
v -0.25076015544060526 -0.64701322042794218 0.40784124005355482
v -0.056760405410312451 -0.43094941461157649 -0.0486901296939799
v -0.16596042774540315 -0.53105661011428007 0.075222395509730089
v -0.057569725695553596 -0.69138183841659639 0.40685022710158608
v -0.16707385122371521 -0.6237045669318575 0.22966883008868555
v -0.15408191923130468 -0.67647481818170729 0.40704526622046833
v -0.21088121536526239 -0.64137092263385098 0.31514207453865417
v 0.33910914944246751 -0.60545053510429236 0.40815973483089102
v 0.26252699723474676 -0.59073803223567312 0.23147038712046658
v 0.25076015544060526 -0.64701322042794218 0.40784124005355482
v 0.056760405410312451 -0.43094941461157649 -0.0486901296939799
v 0.16596042774540315 -0.53105661011428007 0.075222395509730089
v 0 -0.49203492134144122 0.0021027855264486583
v 0.057569725695553596 -0.69138183841659639 0.40685022710158608
v 0.16707385122371521 -0.6237045669318575 0.22966883008868555
v 0.15408191923130468 -0.67647481818170729 0.40704526622046833
v 0 -0.67470288442733573 0.31351670920580288
v 0.21088121536526239 -0.64137092263385098 0.31514207453865417
v -0.10950412552816161 -0.58812451972899715 0.13651905719027163
v 0.10950412552816161 -0.58812451972899715 0.13651905719027163
v -0.056799296133957733 -0.54614305949708863 0.065832292170587114
v -0.057626506022372112 -0.63908774505260935 0.22027506380870421
v 0.056799296133957733 -0.54614305949708863 0.065832292170587114
v 0.057626506022372112 -0.63908774505260935 0.22027506380870421
v 0 -0.28234874403215504 -0.14053039486308883
v 0 -0.096566569489343598 -0.19330721736980327
v 0 0.096566569489343598 -0.19330721736980327
v 0.43094941461157638 -0.5486901296939799 0.44323959458968754
v 0.39987616139499604 -0.554854460481497 0.35088399404560922
v 0.31779334981768276 -0.53055479403344352 0.17209910439313197
v 0.49497474683058318 -0.42105066850528194 0.23977637587787087
v 0.36128513403574269 -0.54841618885431931 0.25769288964770554
v 0.45318832571755685 -0.49161689272036158 0.29279678519556196
v 0.091840265169108995 -0.33910914944246751 -0.10545053510429236
v 0.26852961287953347 -0.26252699723474676 -0.090738032235673005
v 0.14911600595439084 -0.39987616139499604 -0.054854460481496892
v 0.092158759946445235 -0.25076015544060526 -0.14701322042794218
v 0.26022362412212913 -0.49497474683058318 0.078949331494718
v 0.32790089560686808 -0.31779334981768276 -0.030554794033443522
v 0.20720321480443807 -0.45318832571755674 0.0083831072796385353
v 0.35936280886131355 -0.45260445425841211 0.10502205176395996
v 0.24230711035229444 -0.36128513403574275 -0.048416188854319198
v 0.093149772898413932 -0.057569725695553617 -0.19138183841659639
v 0.27033116991131445 -0.16707385122371524 -0.1237045669318575
v 0.092954733779531715 -0.15408191923130468 -0.17647481818170729
v 0.18485792546134591 -0.21088121536526247 -0.14137092263385098
v 0.45260445425841211 -0.39497794823604004 0.1406371911386865
v 0.39497794823604004 -0.3593628088613135 0.047395545741587886
v 0.43094941461157638 -0.5486901296939799 0.55676040541031246
v 0.39987616139499604 -0.554854460481497 0.64911600595439078
v 0.49203492134144122 -0.4978972144735514 0.5
v 0.31779334981768276 -0.53055479403344352 0.82790089560686808
v 0.36128513403574269 -0.54841618885431931 0.74230711035229446
v 0.45318832571755685 -0.49161689272036158 0.70720321480443804
v 0.091840265169108995 -0.33910914944246751 1.1054505351042923
v 0.26852961287953347 -0.26252699723474676 1.090738032235673
v 0.14911600595439084 -0.39987616139499604 1.0548544604814969
v 0.092158759946445235 -0.25076015544060526 1.1470132204279422
v 0.26022362412212913 -0.49497474683058318 0.92105066850528194
v 0.32790089560686808 -0.31779334981768276 1.0305547940334434
v 0.20720321480443807 -0.45318832571755674 0.99161689272036146
v 0.35936280886131355 -0.45260445425841211 0.89497794823604004
v 0.24230711035229444 -0.36128513403574275 1.0484161888543193
v 0.093149772898413932 -0.057569725695553617 1.1913818384165964
v 0.092954733779531715 -0.15408191923130468 1.1764748181817073
v 0.18485792546134591 -0.21088121536526247 1.1413709226338509
v 0.45260445425841211 -0.39497794823604004 0.85936280886131344
v 0.39497794823604004 -0.3593628088613135 0.95260445425841211
v -0.53105661011428007 0.42477760449026991 0.33403957225459679
v -0.60545053510429236 0.091840265169108995 0.16089085055753249
v -0.59073803223567301 0.26852961287953347 0.23747300276525324
v -0.49497474683058318 0.42105066850528194 0.23977637587787087
v -0.45318832571755685 0.49161689272036158 0.29279678519556196
v -0.43094941461157638 -0.5486901296939799 0.44323959458968754
v -0.53105661011428007 -0.42477760449026991 0.33403957225459679
v -0.39987616139499604 -0.554854460481497 0.35088399404560922
v -0.60545053510429236 -0.091840265169108995 0.16089085055753249
v -0.59073803223567301 -0.26852961287953347 0.23747300276525324
v -0.31779334981768276 -0.53055479403344352 0.17209910439313197
v -0.49497474683058318 -0.42105066850528194 0.23977637587787087
v -0.36128513403574269 -0.54841618885431931 0.25769288964770554
v -0.45318832571755685 -0.49161689272036158 0.29279678519556196
v -0.091840265169108995 -0.33910914944246751 -0.10545053510429236
v -0.26852961287953347 -0.26252699723474676 -0.090738032235673005
v -0.14911600595439084 -0.39987616139499604 -0.054854460481496892
v -0.092158759946445235 -0.25076015544060526 -0.14701322042794218
v -0.5486901296939799 -0.056760405410312464 0.069050585388423624
v -0.42477760449026991 -0.16596042774540318 -0.03105661011428007
v -0.554854460481497 -0.14911600595439084 0.10012383860500396
v -0.26022362412212913 -0.49497474683058318 0.078949331494718
v -0.32790089560686808 -0.31779334981768276 -0.030554794033443522
v -0.20720321480443807 -0.45318832571755674 0.0083831072796385353
v -0.35936280886131355 -0.45260445425841211 0.10502205176395996
v -0.24230711035229444 -0.36128513403574275 -0.048416188854319198
v -0.093149772898413932 -0.057569725695553617 -0.19138183841659639
v -0.27033116991131445 -0.16707385122371524 -0.1237045669318575
v -0.092954733779531715 -0.15408191923130468 -0.17647481818170729
v -0.18485792546134591 -0.21088121536526247 -0.14137092263385098
v -0.53055479403344352 -0.32790089560686808 0.18220665018231724
v -0.421050668505282 -0.26022362412212913 0.0050252531694168212
v -0.5484161888543192 -0.24230711035229446 0.13871486596425725
v -0.45260445425841211 -0.39497794823604004 0.1406371911386865
v -0.49161689272036146 -0.20720321480443807 0.046811674282443261
v -0.39497794823604004 -0.3593628088613135 0.047395545741587886
v -0.26852961287953347 0.26252699723474676 -0.090738032235673005
v -0.5486901296939799 0.056760405410312464 0.069050585388423624
v -0.42477760449026991 0.16596042774540318 -0.03105661011428007
v -0.554854460481497 0.14911600595439084 0.10012383860500396
v -0.4978972144735514 0 0.0079650786585587774
v -0.32790089560686808 0.31779334981768276 -0.030554794033443522
v -0.35936280886131355 0.45260445425841211 0.10502205176395996
v -0.093149772898413932 0.057569725695553617 -0.19138183841659639
v -0.27033116991131445 0.16707385122371524 -0.1237045669318575
v -0.092954733779531715 0.15408191923130468 -0.17647481818170729
v -0.1864832907941972 0 -0.17470288442733573
v -0.18485792546134591 0.21088121536526247 -0.14137092263385098
v -0.53055479403344352 0.32790089560686808 0.18220665018231724
v -0.421050668505282 0.26022362412212913 0.0050252531694168212
v -0.5484161888543192 0.24230711035229446 0.13871486596425725
v -0.45260445425841211 0.39497794823604004 0.1406371911386865
v -0.49161689272036146 0.20720321480443807 0.046811674282443261
v -0.39497794823604004 0.3593628088613135 0.047395545741587886
v -0.36348094280972848 -0.10950412552816161 -0.088124519728997153
v -0.36348094280972848 0.10950412552816161 -0.088124519728997153
v -0.43416770782941289 -0.056799296133957747 -0.046143059497088634
v -0.27972493619129579 -0.057626506022372119 -0.13908774505260935
v -0.43416770782941289 0.056799296133957747 -0.046143059497088634
v -0.27972493619129579 0.057626506022372119 -0.13908774505260935
v -0.53105661011428007 0.42477760449026991 0.66596042774540321
v -0.49203492134144122 0.4978972144735514 0.5
v -0.60545053510429236 0.091840265169108995 0.83910914944246751
v -0.59073803223567301 0.26852961287953347 0.76252699723474682
v -0.49497474683058318 0.42105066850528194 0.76022362412212918
v -0.45318832571755685 0.49161689272036158 0.70720321480443804
v -0.58812451972899715 0.36348094280972848 0.39049587447183842
v -0.58812451972899715 0.36348094280972848 0.60950412552816158
v -0.54614305949708863 0.43416770782941289 0.44320070386604227
v -0.54614305949708863 0.43416770782941289 0.55679929613395773
v -0.43094941461157638 -0.5486901296939799 0.55676040541031246
v -0.53105661011428007 -0.42477760449026991 0.66596042774540321
v -0.39987616139499604 -0.554854460481497 0.64911600595439078
v -0.49203492134144122 -0.4978972144735514 0.5
v -0.60545053510429236 -0.091840265169108995 0.83910914944246751
v -0.59073803223567301 -0.26852961287953347 0.76252699723474682
v -0.31779334981768276 -0.53055479403344352 0.82790089560686808
v -0.49497474683058318 -0.42105066850528194 0.76022362412212918
v -0.36128513403574269 -0.54841618885431931 0.74230711035229446
v -0.45318832571755685 -0.49161689272036158 0.70720321480443804
v -0.58812451972899715 -0.36348094280972848 0.39049587447183842
v -0.58812451972899715 -0.36348094280972848 0.60950412552816158
v -0.54614305949708863 -0.43416770782941289 0.44320070386604227
v -0.54614305949708863 -0.43416770782941289 0.55679929613395773
v -0.091840265169108995 -0.33910914944246751 1.1054505351042923
v -0.26852961287953347 -0.26252699723474676 1.090738032235673
v -0.14911600595439084 -0.39987616139499604 1.0548544604814969
v -0.092158759946445235 -0.25076015544060526 1.1470132204279422
v -0.5486901296939799 -0.056760405410312464 0.93094941461157643
v -0.42477760449026991 -0.16596042774540318 1.03105661011428
v -0.554854460481497 -0.14911600595439084 0.89987616139499604
v -0.26022362412212913 -0.49497474683058318 0.92105066850528194
v -0.32790089560686808 -0.31779334981768276 1.0305547940334434
v -0.20720321480443807 -0.45318832571755674 0.99161689272036146
v -0.35936280886131355 -0.45260445425841211 0.89497794823604004
v -0.24230711035229444 -0.36128513403574275 1.0484161888543193
v -0.093149772898413932 -0.057569725695553617 1.1913818384165964
v -0.27033116991131445 -0.16707385122371524 1.1237045669318575
v -0.092954733779531715 -0.15408191923130468 1.1764748181817073
v -0.18485792546134591 -0.21088121536526247 1.1413709226338509
v -0.53055479403344352 -0.32790089560686808 0.81779334981768281
v -0.421050668505282 -0.26022362412212913 0.99497474683058318
v -0.5484161888543192 -0.24230711035229446 0.86128513403574281
v -0.45260445425841211 -0.39497794823604004 0.85936280886131344
v -0.49161689272036146 -0.20720321480443807 0.95318832571755674
v -0.39497794823604004 -0.3593628088613135 0.95260445425841211
v -0.26852961287953347 0.26252699723474676 1.090738032235673
v -0.5486901296939799 0.056760405410312464 0.93094941461157643
v -0.42477760449026991 0.16596042774540318 1.03105661011428
v -0.554854460481497 0.14911600595439084 0.89987616139499604
v -0.4978972144735514 0 0.99203492134144122
v -0.32790089560686808 0.31779334981768276 1.0305547940334434
v -0.093149772898413932 0.057569725695553617 1.1913818384165964
v -0.27033116991131445 0.16707385122371524 1.1237045669318575
v -0.1864832907941972 0 1.1747028844273357
v -0.18485792546134591 0.21088121536526247 1.1413709226338509
v -0.53055479403344352 0.32790089560686808 0.81779334981768281
v -0.421050668505282 0.26022362412212913 0.99497474683058318
v -0.5484161888543192 0.24230711035229446 0.86128513403574281
v -0.45260445425841211 0.39497794823604004 0.85936280886131344
v -0.49161689272036146 0.20720321480443807 0.95318832571755674
v -0.39497794823604004 0.3593628088613135 0.95260445425841211
v -0.36348094280972848 -0.10950412552816161 1.0881245197289973
v -0.36348094280972848 0.10950412552816161 1.0881245197289973
v -0.43416770782941289 -0.056799296133957747 1.0461430594970886
v -0.27972493619129579 -0.057626506022372119 1.1390877450526093
v -0.43416770782941289 0.056799296133957747 1.0461430594970886
v -0.27972493619129579 0.057626506022372119 1.1390877450526093
v -0.64053039486308883 0 0.21765125596784496
v -0.69330721736980327 0 0.40343343051065639
v -0.64701322042794218 0.092158759946445235 0.24923984455939474
v -0.64701322042794218 -0.092158759946445235 0.24923984455939474
v -0.64053039486308883 0 0.78234874403215504
v -0.69330721736980327 0 0.59656656948934361
v -0.64701322042794218 0.092158759946445235 0.75076015544060526
v -0.64701322042794218 -0.092158759946445235 0.75076015544060526
v -0.6237045669318575 0.27033116991131445 0.33292614877628479
v -0.69138183841659639 0.093149772898413932 0.44243027430444637
v -0.64137092263385098 0.18485792546134591 0.2891187846347375
v -0.63908774505260935 0.27972493619129579 0.44237349397762787
v -0.67647481818170729 0.092954733779531715 0.34591808076869535
v -0.6237045669318575 -0.27033116991131445 0.33292614877628479
v -0.69138183841659639 -0.093149772898413932 0.44243027430444637
v -0.64137092263385098 -0.18485792546134591 0.2891187846347375
v -0.63908774505260935 -0.27972493619129579 0.44237349397762787
v -0.67647481818170729 -0.092954733779531715 0.34591808076869535
v -0.6237045669318575 0.27033116991131445 0.66707385122371521
v -0.69138183841659639 0.093149772898413932 0.55756972569555363
v -0.64137092263385098 0.18485792546134591 0.7108812153652625
v -0.63908774505260935 0.27972493619129579 0.55762650602237207
v -0.67647481818170729 0.092954733779531715 0.65408191923130465
v -0.67470288442733573 0.1864832907941972 0.5
v -0.6237045669318575 -0.27033116991131445 0.66707385122371521
v -0.69138183841659639 -0.093149772898413932 0.55756972569555363
v -0.64137092263385098 -0.18485792546134591 0.7108812153652625
v -0.63908774505260935 -0.27972493619129579 0.55762650602237207
v -0.67647481818170729 -0.092954733779531715 0.65408191923130465
v -0.67470288442733573 -0.1864832907941972 0.5
v 0.6319882215166065 1.595455565846428 0.55000000000000004
v 1.3680117784833934 1.595455565846428 0.55000000000000004
v 1 1.3680117784833934 1.145455565846428
v 1 1.3680117784833934 -0.045455565846427959
v 1.595455565846428 1 0.18198822151660654
v 1.595455565846428 1 0.91801177848339355
v 1 1.7 0.55000000000000004
v 0.78368810393753674 1.5663118960624631 0.90000000000000013
v 1.2163118960624633 1.5663118960624631 0.90000000000000013
v 1 1 1.25
v 0.78368810393753674 1.5663118960624631 0.20000000000000001
v 1.2163118960624633 1.5663118960624631 0.20000000000000001
v 1 1 -0.14999999999999991
v 1.5663118960624631 1.3500000000000001 0.33368810393753684
v 1.5663118960624631 0.64999999999999991 0.33368810393753684
v 1.3500000000000001 0.78368810393753674 -0.016311896062463083
v 1.3500000000000001 1.2163118960624633 -0.016311896062463083
v 1.5663118960624631 1.3500000000000001 0.7663118960624633
v 1.5663118960624631 0.64999999999999991 0.7663118960624633
v 1.3500000000000001 0.78368810393753674 1.1163118960624632
v 1.3500000000000001 1.2163118960624633 1.1163118960624632
v 1.7 1 0.55000000000000004
v 0.80871342976112981 1.6733568504487422 0.55000000000000004
v 1.1912865702388702 1.6733568504487422 0.55000000000000004
v 0.69627800481311364 1.6038679362913304 0.73192433910542809
v 0.88756457505198383 1.4856463342923145 1.0414325113433143
v 0.88627810631848281 1.6657395614066075 0.73400588924169674
v 1.3037219951868864 1.6038679362913304 0.73192433910542809
v 1.1124354249480162 1.4856463342923145 1.0414325113433143
v 1.1137218936815172 1.6657395614066075 0.73400588924169674
v 1 1.595455565846428 0.91801177848339366
v 1 1.1912865702388702 1.2233568504487424
v 0.69627800481311364 1.6038679362913304 0.368075660894572
v 0.88756457505198383 1.4856463342923145 0.058567488656685929
v 0.88627810631848281 1.6657395614066075 0.36599411075830329
v 1.3037219951868864 1.6038679362913304 0.368075660894572
v 1.1124354249480162 1.4856463342923145 0.058567488656685929
v 1.1137218936815172 1.6657395614066075 0.36599411075830329
v 1 1.595455565846428 0.18198822151660649
v 1 1.1912865702388702 -0.12335685044874223
v 1.4856463342923145 1.4914325113433142 0.43756457505198382
v 1.6038679362913304 1.1819243391054282 0.24627800481311368
v 1.4114496766047313 1.4817336721649106 0.25227221707678604
v 1.4856463342923145 0.50856748865668577 0.43756457505198382
v 1.6038679362913304 0.81807566089457184 0.24627800481311368
v 1.4114496766047313 0.5182663278350893 0.25227221707678604
v 1.491432511343314 0.88756457505198383 0.064353665707685692
v 1.1840058892416967 0.88627810631848281 -0.11573956140660746
v 1.4817336721649106 0.702272217076786 0.13855032339526885
v 1.1819243391054282 1.3037219951868864 -0.053867936291330243
v 1.491432511343314 1.1124354249480162 0.064353665707685692
v 1.2977277829232139 1.4114496766047311 0.068266327835089347
v 1.1840058892416967 1.1137218936815172 -0.11573956140660746
v 1.4817336721649106 1.2977277829232139 0.13855032339526885
v 1.3680117784833936 1 -0.045455565846427848
v 1.4856463342923145 1.4914325113433142 0.66243542494801622
v 1.6038679362913304 1.1819243391054282 0.85372199518688641
v 1.4114496766047313 1.4817336721649106 0.84772778292321405
v 1.5954555658464278 1.3680117784833936 0.55000000000000004
v 1.4856463342923145 0.50856748865668577 0.66243542494801622
v 1.6038679362913304 0.81807566089457184 0.85372199518688641
v 1.4114496766047313 0.5182663278350893 0.84772778292321405
v 1.5954555658464278 0.63198822151660639 0.55000000000000004
v 1.491432511343314 0.88756457505198383 1.0356463342923143
v 1.2977277829232139 0.5885503233952688 1.0317336721649109
v 1.1840058892416967 0.88627810631848281 1.2157395614066075
v 1.4817336721649106 0.702272217076786 0.96144967660473124
v 1.1819243391054282 1.3037219951868864 1.1538679362913302
v 1.491432511343314 1.1124354249480162 1.0356463342923143
v 1.2977277829232139 1.4114496766047311 1.0317336721649109
v 1.1840058892416967 1.1137218936815172 1.2157395614066075
v 1.4817336721649106 1.2977277829232139 0.96144967660473124
v 1.3680117784833936 1 1.145455565846428
v 1.6733568504487422 1 0.35871342976112985
v 1.6733568504487422 1 0.74128657023887023
v 1.6657395614066075 1.1840058892416967 0.43627810631848279
v 1.6657395614066075 0.81599411075830319 0.43627810631848279
v 1.6657395614066075 1.1840058892416967 0.66372189368151724
v 1.6657395614066075 0.81599411075830319 0.66372189368151724
v 0.51435366570768548 1.4914325113433142 0.43756457505198382
v 0.58855032339526869 1.4817336721649106 0.25227221707678604
v 0.81807566089457184 1.3037219951868864 -0.053867936291330243
v 0.702272217076786 1.4114496766047311 0.068266327835089347
v 0.51435366570768548 1.4914325113433142 0.66243542494801622
v 0.58855032339526869 1.4817336721649106 0.84772778292321405
v 0.81807566089457184 1.3037219951868864 1.1538679362913302
v 0.702272217076786 1.4114496766047311 1.0317336721649109
v 0.81599411075830319 1.1137218936815172 1.2157395614066075
v 0.71765125596784496 1.6405303948630889 0.55000000000000004
v 0.90343343051065639 1.6933072173698034 0.55000000000000004
v 1.282348744032155 1.6405303948630889 0.55000000000000004
v 1.0965665694893436 1.6933072173698034 0.55000000000000004
v 0.66089085055753249 1.6054505351042923 0.64184026516910908
v 0.73747300276525318 1.5907380322356732 0.81852961287953341
v 0.74923984455939474 1.6470132204279422 0.64215875994644522
v 0.94323959458968754 1.4309494146115764 1.0986901296939799
v 0.83403957225459679 1.53105661011428 0.97477760449026996
v 0.94243027430444637 1.6913818384165964 0.64314977289841391
v 0.83292614877628479 1.6237045669318575 0.8203311699113145
v 0.84591808076869535 1.6764748181817073 0.64295473377953172
v 0.78911878463473761 1.6413709226338509 0.73485792546134587
v 1.3391091494424674 1.6054505351042923 0.64184026516910908
v 1.2625269972347468 1.5907380322356732 0.81852961287953341
v 1.2507601554406054 1.6470132204279422 0.64215875994644522
v 1.0567604054103124 1.4309494146115764 1.0986901296939799
v 1.1659604277454032 1.53105661011428 0.97477760449026996
v 1 1.4920349213414412 1.0478972144735514
v 1.0575697256955536 1.6913818384165964 0.64314977289841391
v 1.1670738512237153 1.6237045669318575 0.8203311699113145
v 1.1540819192313048 1.6764748181817073 0.64295473377953172
v 1 1.6747028844273357 0.73648329079419717
v 1.2108812153652624 1.6413709226338509 0.73485792546134587
v 0.89049587447183842 1.5881245197289973 0.91348094280972836
v 1.1095041255281617 1.5881245197289973 0.91348094280972836
v 0.94320070386604227 1.5461430594970886 0.98416770782941287
v 0.94237349397762793 1.6390877450526093 0.82972493619129584
v 1.0567992961339576 1.5461430594970886 0.98416770782941287
v 1.0576265060223722 1.6390877450526093 0.82972493619129584
v 1 0.90343343051065639 1.2433072173698032
v 1 1.282348744032155 1.1905303948630888
v 1 1.0965665694893436 1.2433072173698032
v 0.66089085055753249 1.6054505351042923 0.45815973483089106
v 0.73747300276525318 1.5907380322356732 0.28147038712046663
v 0.74923984455939474 1.6470132204279422 0.45784124005355487
v 0.94323959458968754 1.4309494146115764 0.0013098703060201444
v 0.83403957225459679 1.53105661011428 0.12522239550973013
v 0.94243027430444637 1.6913818384165964 0.45685022710158613
v 0.83292614877628479 1.6237045669318575 0.27966883008868559
v 0.84591808076869535 1.6764748181817073 0.45704526622046837
v 0.78911878463473761 1.6413709226338509 0.36514207453865422
v 1.3391091494424674 1.6054505351042923 0.45815973483089106
v 1.2625269972347468 1.5907380322356732 0.28147038712046663
v 1.2507601554406054 1.6470132204279422 0.45784124005355487
v 1.0567604054103124 1.4309494146115764 0.0013098703060201444
v 1.1659604277454032 1.53105661011428 0.12522239550973013
v 1 1.4920349213414412 0.052102785526448703
v 1.0575697256955536 1.6913818384165964 0.45685022710158613
v 1.1670738512237153 1.6237045669318575 0.27966883008868559
v 1.1540819192313048 1.6764748181817073 0.45704526622046837
v 1 1.6747028844273357 0.36351670920580292
v 1.2108812153652624 1.6413709226338509 0.36514207453865422
v 0.89049587447183842 1.5881245197289973 0.18651905719027168
v 1.1095041255281617 1.5881245197289973 0.18651905719027168
v 0.94320070386604227 1.5461430594970886 0.11583229217058716
v 0.94237349397762793 1.6390877450526093 0.27027506380870425
v 1.0567992961339576 1.5461430594970886 0.11583229217058716
v 1.0576265060223722 1.6390877450526093 0.27027506380870425
v 1 1.282348744032155 -0.090530394863088781
v 1 1.0965665694893436 -0.14330721736980323
v 1.4309494146115764 1.5486901296939799 0.49323959458968758
v 1.53105661011428 1.42477760449027 0.38403957225459684
v 1.3998761613949959 1.5548544604814971 0.40088399404560926
v 1.6054505351042923 1.091840265169109 0.21089085055753254
v 1.590738032235673 1.2685296128795334 0.28747300276525328
v 1.3177933498176828 1.5305547940334434 0.22209910439313202
v 1.4949747468305832 1.4210506685052819 0.28977637587787092
v 1.3612851340357426 1.5484161888543193 0.30769288964770558
v 1.4531883257175569 1.4916168927203617 0.342796785195562
v 1.53105661011428 0.57522239550973009 0.38403957225459684
v 1.6054505351042923 0.90815973483089096 0.21089085055753254
v 1.590738032235673 0.73147038712046653 0.28747300276525328
v 1.4949747468305832 0.57894933149471806 0.28977637587787092
v 1.4531883257175569 0.50838310727963842 0.342796785195562
v 1.2685296128795334 0.73747300276525318 -0.040738032235672961
v 1.5486901296939799 0.94323959458968754 0.11905058538842367
v 1.42477760449027 0.83403957225459679 0.018943389885719975
v 1.5548544604814971 0.85088399404560922 0.150123838605004
v 1.3279008956068681 0.68220665018231719 0.019445205966556522
v 1.0931497728984139 0.94243027430444637 -0.14138183841659635
v 1.2703311699113145 0.83292614877628479 -0.073704566931857451
v 1.1848579254613458 0.7891187846347375 -0.091370922633850937
v 1.5305547940334434 0.67209910439313192 0.23220665018231729
v 1.4210506685052819 0.73977637587787082 0.055025253169416866
v 1.5484161888543193 0.75769288964770554 0.18871486596425729
v 1.4526044542584122 0.60502205176395996 0.19063719113868655
v 1.4916168927203615 0.79279678519556196 0.096811674282443305
v 1.39497794823604 0.64063719113868656 0.09739554574158793
v 1.091840265169109 1.3391091494424674 -0.05545053510429232
v 1.2685296128795334 1.2625269972347468 -0.040738032235672961
v 1.1491160059543908 1.3998761613949959 -0.0048544604814968473
v 1.0921587599464453 1.2507601554406054 -0.097013220427942137
v 1.5486901296939799 1.0567604054103126 0.11905058538842367
v 1.42477760449027 1.1659604277454032 0.018943389885719975
v 1.5548544604814971 1.1491160059543908 0.150123838605004
v 1.4978972144735514 1 0.057965078658558822
v 1.2602236241221292 1.4949747468305832 0.12894933149471804
v 1.3279008956068681 1.3177933498176828 0.019445205966556522
v 1.207203214804438 1.4531883257175569 0.05838310727963858
v 1.3593628088613134 1.4526044542584122 0.15502205176396
v 1.2423071103522945 1.3612851340357428 0.0015838111456808468
v 1.0931497728984139 1.0575697256955536 -0.14138183841659635
v 1.2703311699113145 1.1670738512237153 -0.073704566931857451
v 1.0929547337795318 1.1540819192313048 -0.12647481818170725
v 1.1864832907941971 1 -0.12470288442733568
v 1.1848579254613458 1.2108812153652624 -0.091370922633850937
v 1.5305547940334434 1.3279008956068681 0.23220665018231729
v 1.4210506685052819 1.2602236241221292 0.055025253169416866
v 1.5484161888543193 1.2423071103522945 0.18871486596425729
v 1.4526044542584122 1.39497794823604 0.19063719113868655
v 1.4916168927203615 1.207203214804438 0.096811674282443305
v 1.39497794823604 1.3593628088613134 0.09739554574158793
v 1.3634809428097285 0.89049587447183842 -0.038124519728997108
v 1.3634809428097285 1.1095041255281617 -0.038124519728997108
v 1.4341677078294128 0.94320070386604227 0.0038569405029114101
v 1.2797249361912959 0.94237349397762793 -0.089087745052609302
v 1.4341677078294128 1.0567992961339578 0.0038569405029114101
v 1.2797249361912959 1.0576265060223722 -0.089087745052609302
v 1.4309494146115764 1.5486901296939799 0.60676040541031251
v 1.53105661011428 1.42477760449027 0.71596042774540325
v 1.3998761613949959 1.5548544604814971 0.69911600595439083
v 1.4920349213414412 1.4978972144735514 0.55000000000000004
v 1.6054505351042923 1.091840265169109 0.88910914944246755
v 1.590738032235673 1.2685296128795334 0.81252699723474686
v 1.3177933498176828 1.5305547940334434 0.87790089560686813
v 1.4949747468305832 1.4210506685052819 0.81022362412212923
v 1.3612851340357426 1.5484161888543193 0.79230711035229451
v 1.4531883257175569 1.4916168927203617 0.75720321480443809
v 1.5881245197289973 1.3634809428097285 0.44049587447183847
v 1.5881245197289973 1.3634809428097285 0.65950412552816162
v 1.5461430594970886 1.4341677078294128 0.49320070386604231
v 1.5461430594970886 1.4341677078294128 0.60679929613395778
v 1.53105661011428 0.57522239550973009 0.71596042774540325
v 1.4920349213414412 0.5021027855264486 0.55000000000000004
v 1.6054505351042923 0.90815973483089096 0.88910914944246755
v 1.590738032235673 0.73147038712046653 0.81252699723474686
v 1.4949747468305832 0.57894933149471806 0.81022362412212923
v 1.4531883257175569 0.50838310727963842 0.75720321480443809
v 1.5881245197289973 0.63651905719027146 0.44049587447183847
v 1.5881245197289973 0.63651905719027146 0.65950412552816162
v 1.5461430594970886 0.56583229217058717 0.49320070386604231
v 1.5461430594970886 0.56583229217058717 0.60679929613395778
v 1.2685296128795334 0.73747300276525318 1.140738032235673
v 1.5486901296939799 0.94323959458968754 0.98094941461157648
v 1.42477760449027 0.83403957225459679 1.0810566101142802
v 1.5548544604814971 0.85088399404560922 0.94987616139499609
v 1.3279008956068681 0.68220665018231719 1.0805547940334437
v 1.3593628088613134 0.54739554574158789 0.94497794823604009
v 1.0931497728984139 0.94243027430444637 1.2413818384165964
v 1.2703311699113145 0.83292614877628479 1.1737045669318575
v 1.0929547337795318 0.84591808076869535 1.2264748181817073
v 1.1848579254613458 0.7891187846347375 1.1913709226338511
v 1.5305547940334434 0.67209910439313192 0.86779334981768286
v 1.4210506685052819 0.73977637587787082 1.0449747468305832
v 1.5484161888543193 0.75769288964770554 0.91128513403574285
v 1.4526044542584122 0.60502205176395996 0.90936280886131349
v 1.4916168927203615 0.79279678519556196 1.0031883257175567
v 1.39497794823604 0.64063719113868656 1.002604454258412
v 1.091840265169109 1.3391091494424674 1.1554505351042925
v 1.2685296128795334 1.2625269972347468 1.140738032235673
v 1.1491160059543908 1.3998761613949959 1.1048544604814969
v 1.0921587599464453 1.2507601554406054 1.1970132204279422
v 1.5486901296939799 1.0567604054103126 0.98094941461157648
v 1.42477760449027 1.1659604277454032 1.0810566101142802
v 1.5548544604814971 1.1491160059543908 0.94987616139499609
v 1.4978972144735514 1 1.0420349213414413
v 1.2602236241221292 1.4949747468305832 0.97105066850528199
v 1.3279008956068681 1.3177933498176828 1.0805547940334437
v 1.207203214804438 1.4531883257175569 1.0416168927203615
v 1.3593628088613134 1.4526044542584122 0.94497794823604009
v 1.2423071103522945 1.3612851340357428 1.0984161888543191
v 1.0931497728984139 1.0575697256955536 1.2413818384165964
v 1.2703311699113145 1.1670738512237153 1.1737045669318575
v 1.0929547337795318 1.1540819192313048 1.2264748181817073
v 1.1864832907941971 1 1.2247028844273358
v 1.1848579254613458 1.2108812153652624 1.1913709226338511
v 1.5305547940334434 1.3279008956068681 0.86779334981768286
v 1.4210506685052819 1.2602236241221292 1.0449747468305832
v 1.5484161888543193 1.2423071103522945 0.91128513403574285
v 1.4526044542584122 1.39497794823604 0.90936280886131349
v 1.4916168927203615 1.207203214804438 1.0031883257175567
v 1.39497794823604 1.3593628088613134 1.002604454258412
v 1.3634809428097285 0.89049587447183842 1.1381245197289971
v 1.3634809428097285 1.1095041255281617 1.1381245197289971
v 1.4341677078294128 0.94320070386604227 1.0961430594970887
v 1.2797249361912959 0.94237349397762793 1.1890877450526094
v 1.4341677078294128 1.0567992961339578 1.0961430594970887
v 1.2797249361912959 1.0576265060223722 1.1890877450526094
v 1.6405303948630889 1 0.267651255967845
v 1.6933072173698034 1 0.45343343051065643
v 1.6470132204279422 1.0921587599464453 0.29923984455939479
v 1.6470132204279422 0.90784124005355471 0.29923984455939479
v 1.6405303948630889 1 0.83234874403215509
v 1.6933072173698034 1 0.64656656948934366
v 1.6470132204279422 1.0921587599464453 0.8007601554406053
v 1.6470132204279422 0.90784124005355471 0.8007601554406053
v 1.6237045669318575 1.2703311699113145 0.38292614877628484
v 1.6913818384165964 1.0931497728984139 0.49243027430444641
v 1.6413709226338509 1.1848579254613458 0.33911878463473755
v 1.6390877450526093 1.2797249361912959 0.49237349397762792
v 1.6764748181817073 1.0929547337795318 0.39591808076869539
v 1.6237045669318575 0.72966883008868555 0.38292614877628484
v 1.6913818384165964 0.90685022710158603 0.49243027430444641
v 1.6413709226338509 0.81514207453865406 0.33911878463473755
v 1.6390877450526093 0.72027506380870421 0.49237349397762792
v 1.6764748181817073 0.90704526622046833 0.39591808076869539
v 1.6237045669318575 1.2703311699113145 0.71707385122371525
v 1.6913818384165964 1.0931497728984139 0.60756972569555368
v 1.6413709226338509 1.1848579254613458 0.76088121536526254
v 1.6390877450526093 1.2797249361912959 0.60762650602237211
v 1.6764748181817073 1.0929547337795318 0.7040819192313047
v 1.6747028844273357 1.1864832907941971 0.55000000000000004
v 1.6237045669318575 0.72966883008868555 0.71707385122371525
v 1.6913818384165964 0.90685022710158603 0.60756972569555368
v 1.6413709226338509 0.81514207453865406 0.76088121536526254
v 1.6390877450526093 0.72027506380870421 0.60762650602237211
v 1.6764748181817073 0.90704526622046833 0.7040819192313047
v 1.6747028844273357 0.81351670920580277 0.55000000000000004
v 0.56905058538842357 1.5486901296939799 0.49323959458968758
v 0.60012383860500396 1.5548544604814971 0.40088399404560926
v 0.68220665018231719 1.5305547940334434 0.22209910439313202
v 0.63871486596425731 1.5484161888543193 0.30769288964770558
v 0.54681167428244315 1.4916168927203617 0.342796785195562
v 0.90815973483089096 1.3391091494424674 -0.05545053510429232
v 0.73147038712046653 1.2625269972347468 -0.040738032235672961
v 0.85088399404560922 1.3998761613949959 -0.0048544604814968473
v 0.90784124005355471 1.2507601554406054 -0.097013220427942137
v 0.73977637587787082 1.4949747468305832 0.12894933149471804
v 0.67209910439313192 1.3177933498176828 0.019445205966556522
v 0.79279678519556196 1.4531883257175569 0.05838310727963858
v 0.64063719113868645 1.4526044542584122 0.15502205176396
v 0.75769288964770554 1.3612851340357428 0.0015838111456808468
v 0.90685022710158603 1.0575697256955536 -0.14138183841659635
v 0.90704526622046833 1.1540819192313048 -0.12647481818170725
v 0.81514207453865406 1.2108812153652624 -0.091370922633850937
v 0.54739554574158789 1.39497794823604 0.19063719113868655
v 0.60502205176395996 1.3593628088613134 0.09739554574158793
v 0.56905058538842357 1.5486901296939799 0.60676040541031251
v 0.60012383860500396 1.5548544604814971 0.69911600595439083
v 0.50796507865855878 1.4978972144735514 0.55000000000000004
v 0.68220665018231719 1.5305547940334434 0.87790089560686813
v 0.50502525316941682 1.4210506685052819 0.81022362412212923
v 0.63871486596425731 1.5484161888543193 0.79230711035229451
v 0.54681167428244315 1.4916168927203617 0.75720321480443809
v 0.90815973483089096 1.3391091494424674 1.1554505351042925
v 0.73147038712046653 1.2625269972347468 1.140738032235673
v 0.85088399404560922 1.3998761613949959 1.1048544604814969
v 0.90784124005355471 1.2507601554406054 1.1970132204279422
v 0.73977637587787082 1.4949747468305832 0.97105066850528199
v 0.67209910439313192 1.3177933498176828 1.0805547940334437
v 0.79279678519556196 1.4531883257175569 1.0416168927203615
v 0.64063719113868645 1.4526044542584122 0.94497794823604009
v 0.75769288964770554 1.3612851340357428 1.0984161888543191
v 0.90685022710158603 1.0575697256955536 1.2413818384165964
v 0.72966883008868555 1.1670738512237153 1.1737045669318575
v 0.90704526622046833 1.1540819192313048 1.2264748181817073
v 0.81514207453865406 1.2108812153652624 1.1913709226338511
v 0.54739554574158789 1.39497794823604 0.90936280886131349
v 0.60502205176395996 1.3593628088613134 1.002604454258412
f 22 328 320
f 193 51 329
f 237 59 248
f 237 248 250
f 7 98 90
f 287 10 303
f 344 348 88
f 338 328 22
f 217 59 237
f 141 144 127
f 65 250 248
f 65 248 245
f 249 246 65
f 65 246 250
f 209 228 231
f 208 147 205
f 245 248 218
f 218 248 59
f 202 204 197
f 197 15 202
f 198 204 203
f 203 33 198
f 222 60 225
f 225 210 222
f 60 224 221
f 202 15 221
f 221 224 202
f 44 161 170
f 370 635 645
f 392 507 578
f 511 507 392
f 571 392 578
f 108 98 7
f 7 92 108
f 167 165 45
f 4 124 205
f 205 147 4
f 318 314 82
f 347 344 88
f 358 586 609
f 113 116 31
f 127 144 35
f 53 204 198
f 273 197 53
f 53 197 204
f 273 53 264
f 70 261 263
f 70 264 261
f 467 586 358
f 583 592 409
f 625 621 610
f 348 344 333
f 22 320 333
f 333 344 22
f 324 338 22
f 22 344 324
f 324 347 84
f 344 347 324
f 237 250 63
f 13 217 234
f 234 217 237
f 237 63 234
f 234 63 236
f 123 33 129
f 127 35 129
f 127 129 122
f 122 129 33
f 122 203 201
f 33 203 122
f 39 146 144
f 144 141 39
f 212 201 215
f 331 85 329
f 328 85 331
f 331 320 328
f 331 83 320
f 67 325 253
f 67 309 254
f 84 325 341
f 341 324 84
f 338 324 341
f 250 246 235
f 235 63 250
f 17 232 227
f 240 232 17
f 227 235 17
f 17 235 246
f 241 51 193
f 193 239 241
f 249 231 61
f 61 231 228
f 222 210 16
f 16 210 245
f 16 218 206
f 245 218 16
f 245 210 247
f 247 65 245
f 249 65 247
f 247 231 249
f 244 232 240
f 59 217 219
f 58 216 214
f 58 212 215
f 214 212 58
f 206 216 213
f 222 16 213
f 213 16 206
f 216 58 213
f 205 124 207
f 214 216 207
f 220 218 59
f 59 219 220
f 220 219 208
f 206 218 220
f 210 225 57
f 57 247 210
f 209 231 57
f 231 247 57
f 55 203 204
f 55 224 215
f 215 201 55
f 201 203 55
f 55 204 202
f 202 224 55
f 322 199 54
f 54 199 211
f 211 199 209
f 209 57 211
f 211 57 225
f 5 228 209
f 209 199 5
f 15 332 200
f 200 221 15
f 335 332 271
f 271 197 273
f 15 197 271
f 271 332 15
f 12 134 160
f 137 146 142
f 142 12 137
f 134 12 142
f 145 134 142
f 142 39 145
f 146 39 142
f 37 134 145
f 145 135 37
f 161 44 164
f 158 43 164
f 157 161 164
f 164 43 157
f 162 44 160
f 162 37 158
f 158 164 162
f 162 164 44
f 160 134 162
f 134 37 162
f 163 170 169
f 163 44 170
f 160 44 163
f 651 654 427
f 628 422 626
f 353 626 508
f 396 517 542
f 628 636 638
f 638 422 628
f 390 636 628
f 502 636 390
f 625 623 421
f 421 621 625
f 421 624 621
f 470 657 656
f 525 516 521
f 576 507 363
f 578 507 576
f 363 507 510
f 510 507 511
f 394 523 510
f 41 173 150
f 579 571 578
f 408 571 579
f 590 592 415
f 38 146 137
f 98 108 111
f 111 108 30
f 124 135 34
f 214 207 34
f 34 207 124
f 518 519 396
f 156 43 158
f 156 4 147
f 168 166 157
f 157 43 168
f 167 45 168
f 287 303 305
f 305 303 80
f 80 318 305
f 316 318 82
f 316 305 318
f 300 67 253
f 309 67 300
f 21 299 314
f 308 299 21
f 297 302 21
f 21 302 308
f 82 314 317
f 314 299 317
f 354 630 560
f 405 602 560
f 654 423 633
f 633 423 630
f 184 181 174
f 117 31 114
f 106 117 114
f 29 117 106
f 183 29 106
f 106 181 183
f 591 595 415
f 100 90 98
f 123 129 128
f 128 129 35
f 121 33 123
f 198 33 121
f 89 121 123
f 1 121 89
f 196 53 198
f 198 121 196
f 196 121 1
f 196 264 53
f 196 1 261
f 261 264 196
f 263 261 93
f 261 1 93
f 93 89 95
f 1 89 93
f 73 271 273
f 335 271 73
f 270 70 263
f 262 70 270
f 264 70 274
f 272 73 274
f 262 272 274
f 274 70 262
f 273 264 274
f 274 73 273
f 586 588 414
f 414 588 589
f 589 587 414
f 414 587 623
f 572 583 409
f 409 633 572
f 572 630 354
f 572 633 630
f 417 624 603
f 625 610 419
f 368 587 580
f 580 587 589
f 413 595 584
f 595 591 584
f 584 591 368
f 368 580 584
f 86 332 335
f 335 348 86
f 348 333 86
f 236 63 238
f 63 235 238
f 238 235 227
f 13 234 149
f 671 497 670
f 143 39 141
f 143 34 135
f 143 135 145
f 145 39 143
f 11 141 127
f 127 122 11
f 11 122 201
f 201 212 11
f 321 329 51
f 83 331 321
f 321 331 329
f 308 302 312
f 312 81 308
f 18 337 254
f 339 341 325
f 325 67 339
f 339 67 254
f 254 337 339
f 229 246 249
f 249 61 229
f 229 17 246
f 240 17 229
f 240 229 243
f 243 229 61
f 64 241 239
f 64 243 241
f 64 244 240
f 240 243 64
f 232 244 62
f 242 239 194
f 233 244 242
f 194 52 242
f 242 64 239
f 244 64 242
f 147 208 40
f 208 219 40
f 226 58 215
f 226 213 58
f 215 224 226
f 222 213 226
f 226 60 222
f 226 224 60
f 206 220 56
f 56 216 206
f 56 208 205
f 56 220 208
f 205 207 56
f 56 207 216
f 60 221 223
f 223 225 60
f 223 211 225
f 54 211 223
f 223 200 54
f 221 200 223
f 133 37 135
f 133 135 124
f 124 4 133
f 158 37 133
f 133 156 158
f 4 156 133
f 152 12 160
f 160 163 152
f 42 155 154
f 42 163 169
f 154 152 42
f 42 152 163
f 627 635 370
f 643 422 627
f 627 638 635
f 422 638 627
f 629 393 508
f 508 626 629
f 629 422 643
f 629 626 422
f 641 629 643
f 393 629 641
f 655 651 427
f 399 532 530
f 539 542 517
f 517 361 539
f 539 361 497
f 539 497 541
f 541 401 539
f 539 401 542
f 541 497 388
f 388 497 671
f 501 390 628
f 628 626 501
f 626 353 501
f 532 390 501
f 501 530 532
f 353 530 501
f 649 645 635
f 634 636 502
f 443 371 437
f 478 476 471
f 251 18 255
f 675 656 677
f 677 656 428
f 428 656 657
f 686 678 689
f 680 373 676
f 676 681 680
f 680 678 442
f 442 373 680
f 502 390 546
f 546 390 532
f 498 556 559
f 665 474 667
f 471 476 359
f 474 665 359
f 555 401 540
f 542 401 555
f 364 516 512
f 364 521 516
f 512 518 364
f 364 518 550
f 639 576 363
f 642 576 639
f 363 510 520
f 520 510 523
f 30 108 110
f 110 108 92
f 112 109 30
f 30 110 112
f 112 110 104
f 408 579 570
f 575 408 570
f 173 46 171
f 150 173 171
f 367 650 573
f 573 590 367
f 409 592 573
f 592 590 573
f 411 579 578
f 578 576 411
f 411 576 642
f 574 410 575
f 575 570 574
f 367 590 574
f 574 570 367
f 415 595 593
f 593 590 415
f 593 595 585
f 593 574 590
f 410 574 593
f 132 36 130
f 154 155 151
f 150 130 151
f 155 41 151
f 151 41 150
f 151 36 154
f 130 36 151
f 139 35 144
f 144 146 139
f 146 38 139
f 118 109 114
f 116 111 118
f 114 31 118
f 118 31 116
f 30 109 118
f 118 111 30
f 396 542 553
f 553 518 396
f 550 518 553
f 542 555 553
f 43 156 159
f 159 168 43
f 159 156 147
f 167 168 159
f 159 40 167
f 147 40 159
f 305 316 77
f 287 305 77
f 77 288 290
f 77 316 288
f 6 265 279
f 311 81 309
f 309 300 311
f 308 81 311
f 311 299 308
f 298 6 279
f 298 300 253
f 253 6 298
f 265 6 323
f 323 325 84
f 253 325 323
f 323 6 253
f 279 265 281
f 313 316 82
f 288 316 313
f 280 313 315
f 82 317 315
f 315 313 82
f 267 94 8
f 74 278 290
f 262 270 268
f 416 596 599
f 351 682 468
f 599 596 468
f 468 596 351
f 314 318 304
f 304 318 80
f 80 306 304
f 304 21 314
f 297 21 304
f 683 692 694
f 683 690 687
f 435 696 687
f 687 690 435
f 689 696 435
f 435 686 689
f 654 651 631
f 631 423 654
f 631 651 370
f 370 645 631
f 631 645 648
f 648 423 631
f 652 650 427
f 427 654 652
f 654 633 652
f 652 633 409
f 409 573 652
f 652 573 650
f 175 176 47
f 47 174 175
f 47 184 174
f 179 29 183
f 179 105 29
f 278 74 275
f 31 117 115
f 113 31 115
f 175 174 103
f 109 112 103
f 95 100 101
f 269 94 267
f 269 270 263
f 23 128 90
f 90 100 23
f 123 128 23
f 23 89 123
f 23 100 95
f 95 89 23
f 335 73 346
f 346 73 272
f 346 348 335
f 272 343 346
f 88 348 346
f 346 343 88
f 293 281 71
f 71 281 265
f 19 272 262
f 19 343 272
f 262 268 19
f 120 10 287
f 586 414 612
f 612 414 623
f 612 623 625
f 612 609 586
f 625 419 612
f 612 419 609
f 581 572 354
f 583 572 581
f 417 603 600
f 600 602 417
f 600 581 354
f 603 581 600
f 354 560 600
f 600 560 602
f 368 591 582
f 609 419 611
f 613 419 610
f 613 416 599
f 599 611 613
f 613 611 419
f 332 86 334
f 334 322 54
f 54 200 334
f 334 200 332
f 336 86 333
f 83 322 336
f 322 334 336
f 336 334 86
f 320 83 336
f 336 333 320
f 141 11 125
f 125 143 141
f 34 143 125
f 125 11 212
f 125 212 214
f 214 34 125
f 192 321 51
f 228 5 192
f 83 321 319
f 319 322 83
f 319 192 5
f 321 192 319
f 199 322 319
f 319 5 199
f 81 312 310
f 194 239 14
f 14 239 193
f 14 191 194
f 338 341 87
f 87 339 337
f 341 339 87
f 258 18 251
f 337 18 258
f 230 61 228
f 230 243 61
f 241 243 230
f 228 192 230
f 51 241 230
f 230 192 51
f 431 667 669
f 668 665 431
f 431 665 667
f 148 219 217
f 148 40 219
f 148 217 13
f 13 165 148
f 148 165 167
f 167 40 148
f 155 42 153
f 397 523 525
f 525 521 397
f 397 520 523
f 522 520 397
f 508 393 515
f 393 522 515
f 643 627 640
f 651 655 640
f 370 651 640
f 640 627 370
f 425 641 643
f 425 655 642
f 642 639 425
f 425 639 641
f 643 640 425
f 425 640 655
f 543 401 541
f 540 401 543
f 669 667 663
f 528 398 526
f 526 496 352
f 494 385 484
f 424 638 636
f 637 649 424
f 636 634 424
f 424 634 637
f 635 638 424
f 424 649 635
f 387 493 495
f 475 485 488
f 495 493 488
f 381 478 471
f 381 657 470
f 472 437 371
f 470 437 472
f 472 381 470
f 478 381 472
f 668 673 429
f 443 437 441
f 441 675 676
f 441 373 443
f 676 373 441
f 676 675 432
f 432 681 676
f 432 675 677
f 251 255 256
f 660 428 657
f 377 455 453
f 351 596 453
f 684 682 444
f 444 682 351
f 351 453 444
f 444 453 455
f 689 678 433
f 678 680 433
f 433 680 681
f 433 681 679
f 426 646 648
f 648 645 426
f 645 649 426
f 644 646 426
f 632 560 630
f 648 646 632
f 632 423 648
f 630 423 632
f 405 560 632
f 632 646 405
f 569 567 407
f 448 371 443
f 443 373 449
f 449 448 443
f 375 448 449
f 449 373 442
f 481 479 384
f 500 479 498
f 505 384 500
f 500 384 479
f 439 479 481
f 495 486 491
f 494 387 491
f 491 387 495
f 362 634 502
f 564 565 558
f 558 376 564
f 569 559 404
f 404 559 556
f 556 558 404
f 404 558 565
f 568 559 569
f 569 407 568
f 551 555 540
f 514 364 550
f 521 364 514
f 509 639 363
f 363 520 509
f 393 641 509
f 641 639 509
f 509 522 393
f 509 520 522
f 92 138 24
f 24 110 92
f 104 110 24
f 138 132 24
f 577 650 367
f 367 570 577
f 577 570 579
f 579 411 577
f 172 176 175
f 102 171 172
f 172 46 176
f 172 171 46
f 2 130 150
f 2 171 102
f 150 171 2
f 131 152 154
f 154 36 131
f 12 152 131
f 137 12 131
f 138 38 140
f 140 132 138
f 140 38 137
f 36 132 140
f 137 131 140
f 140 131 36
f 126 128 35
f 35 139 126
f 90 128 126
f 7 90 126
f 136 38 138
f 136 139 38
f 136 138 92
f 136 126 139
f 136 92 7
f 7 126 136
f 403 553 555
f 403 551 554
f 555 551 403
f 550 553 403
f 79 311 300
f 300 298 79
f 299 311 79
f 79 317 299
f 295 292 280
f 295 281 293
f 280 315 75
f 75 295 280
f 279 281 75
f 281 295 75
f 301 298 279
f 301 315 317
f 317 79 301
f 301 79 298
f 279 75 301
f 301 75 315
f 97 26 284
f 97 8 113
f 113 115 97
f 97 115 26
f 290 288 276
f 276 74 290
f 606 454 377
f 694 693 685
f 685 468 682
f 436 691 693
f 436 693 694
f 469 691 358
f 358 609 469
f 693 691 469
f 609 611 469
f 434 683 694
f 694 685 434
f 434 685 682
f 690 683 434
f 434 682 684
f 684 690 434
f 688 690 684
f 688 435 690
f 686 435 688
f 688 445 686
f 184 47 189
f 277 275 74
f 96 275 277
f 277 26 96
f 284 26 277
f 96 26 107
f 26 115 107
f 107 105 96
f 107 115 117
f 29 105 107
f 107 117 29
f 175 103 28
f 28 172 175
f 102 172 28
f 28 103 112
f 28 104 102
f 28 112 104
f 181 106 9
f 174 181 9
f 9 103 174
f 114 109 9
f 9 106 114
f 109 103 9
f 25 101 94
f 94 269 25
f 25 93 95
f 95 101 25
f 263 93 25
f 25 269 263
f 94 101 99
f 99 116 113
f 113 8 99
f 99 8 94
f 27 111 116
f 27 101 100
f 98 111 27
f 27 100 98
f 116 99 27
f 27 99 101
f 285 294 72
f 270 269 72
f 294 268 72
f 72 268 270
f 72 267 285
f 72 269 267
f 326 71 265
f 265 323 326
f 84 347 326
f 326 323 84
f 291 268 294
f 291 19 268
f 343 19 266
f 19 291 266
f 293 71 266
f 266 291 293
f 186 120 187
f 289 120 287
f 287 77 289
f 290 278 289
f 289 77 290
f 105 179 177
f 620 421 623
f 623 587 620
f 620 587 368
f 368 582 620
f 622 620 582
f 421 620 622
f 624 421 622
f 622 603 624
f 594 582 591
f 594 591 415
f 415 592 594
f 592 583 594
f 417 602 618
f 369 610 621
f 369 615 605
f 49 184 190
f 183 181 49
f 181 184 49
f 695 696 689
f 689 433 695
f 309 81 307
f 81 310 307
f 254 309 307
f 307 310 255
f 307 18 254
f 307 255 18
f 666 431 669
f 669 662 666
f 668 431 674
f 669 663 430
f 672 662 430
f 430 662 669
f 671 672 664
f 664 388 671
f 664 496 388
f 672 430 664
f 529 543 541
f 496 526 529
f 541 388 529
f 388 496 529
f 398 543 529
f 529 526 398
f 482 484 385
f 482 385 528
f 528 526 482
f 482 526 352
f 382 663 667
f 667 474 382
f 493 387 490
f 476 493 490
f 490 359 476
f 474 359 490
f 477 472 371
f 478 472 477
f 668 429 658
f 658 665 668
f 471 359 658
f 658 359 665
f 656 675 349
f 470 656 349
f 349 437 470
f 675 441 349
f 349 441 437
f 260 258 251
f 69 258 260
f 252 259 260
f 260 259 69
f 251 256 66
f 66 260 251
f 252 260 66
f 191 259 50
f 50 259 252
f 463 445 374
f 374 455 463
f 374 444 455
f 445 688 374
f 684 444 374
f 374 688 684
f 461 445 463
f 678 686 356
f 442 678 356
f 686 445 356
f 445 461 356
f 255 310 68
f 644 426 647
f 647 426 649
f 647 649 637
f 647 567 644
f 637 407 647
f 647 407 567
f 405 646 561
f 561 646 644
f 616 602 405
f 405 561 616
f 616 561 614
f 616 618 602
f 617 614 563
f 460 376 452
f 460 378 457
f 457 357 451
f 451 460 457
f 376 460 451
f 357 562 451
f 564 376 451
f 451 562 564
f 489 487 481
f 481 384 489
f 458 460 452
f 378 460 458
f 406 565 564
f 406 607 617
f 617 563 406
f 406 563 565
f 564 562 406
f 406 562 607
f 605 615 619
f 617 607 619
f 465 455 377
f 377 454 465
f 463 455 465
f 462 357 457
f 462 454 357
f 462 465 454
f 480 384 505
f 486 489 480
f 480 489 384
f 389 500 498
f 389 568 499
f 498 559 389
f 559 568 389
f 452 376 450
f 376 558 450
f 450 439 452
f 450 558 556
f 566 407 637
f 566 568 407
f 499 568 566
f 637 634 566
f 634 362 566
f 566 362 499
f 521 514 524
f 524 397 521
f 522 397 524
f 524 515 522
f 552 514 550
f 550 403 552
f 552 403 554
f 653 411 642
f 653 577 411
f 642 655 653
f 650 577 653
f 427 650 653
f 653 655 427
f 91 24 132
f 91 132 130
f 130 2 91
f 104 24 91
f 102 104 91
f 91 2 102
f 292 295 78
f 78 295 293
f 293 291 78
f 78 291 294
f 282 97 284
f 285 267 282
f 267 8 282
f 8 97 282
f 296 294 285
f 296 78 294
f 292 78 296
f 20 313 280
f 288 313 20
f 20 276 288
f 280 292 20
f 596 416 598
f 598 453 596
f 377 453 598
f 598 606 377
f 454 606 604
f 607 562 604
f 357 454 604
f 604 562 357
f 693 469 380
f 380 685 693
f 468 685 380
f 380 469 611
f 599 468 380
f 380 611 599
f 284 277 286
f 74 276 286
f 286 277 74
f 345 347 88
f 345 326 347
f 88 343 345
f 71 326 345
f 343 266 345
f 345 266 71
f 180 188 187
f 178 188 48
f 48 177 179
f 48 180 177
f 188 180 48
f 3 275 96
f 96 105 3
f 105 177 3
f 582 594 412
f 412 622 582
f 583 581 412
f 412 594 583
f 412 581 603
f 603 622 412
f 610 369 597
f 597 613 610
f 416 613 597
f 597 369 605
f 601 369 621
f 601 624 417
f 621 624 601
f 615 369 601
f 417 618 601
f 601 618 615
f 185 179 183
f 183 49 185
f 185 49 182
f 185 48 179
f 185 182 178
f 178 48 185
f 342 85 328
f 342 330 85
f 328 338 342
f 338 87 342
f 329 85 327
f 85 330 327
f 193 329 327
f 327 14 193
f 69 259 257
f 257 330 69
f 257 259 191
f 257 327 330
f 191 14 257
f 14 327 257
f 483 385 494
f 494 491 483
f 538 398 528
f 540 543 527
f 527 543 398
f 398 538 527
f 527 538 535
f 537 391 547
f 352 496 661
f 496 664 661
f 661 664 430
f 661 430 663
f 663 382 473
f 352 661 473
f 473 661 663
f 473 382 484
f 473 482 352
f 484 482 473
f 492 382 474
f 474 490 492
f 484 382 492
f 492 490 387
f 494 484 492
f 492 387 494
f 475 488 383
f 383 477 475
f 383 488 493
f 478 477 383
f 383 493 476
f 476 478 383
f 659 381 471
f 471 658 659
f 657 381 659
f 659 658 429
f 659 660 657
f 429 660 659
f 191 50 195
f 194 191 195
f 195 52 194
f 447 449 442
f 442 356 447
f 447 356 461
f 375 449 447
f 644 567 366
f 366 561 644
f 614 561 366
f 366 563 614
f 420 614 617
f 420 616 614
f 618 616 420
f 617 619 420
f 615 618 420
f 420 619 615
f 495 488 386
f 487 489 386
f 386 488 485
f 485 487 386
f 386 486 495
f 386 489 486
f 481 487 372
f 372 439 481
f 452 439 372
f 372 458 452
f 446 448 375
f 606 598 608
f 608 598 416
f 608 597 605
f 416 597 608
f 457 378 466
f 466 462 457
f 537 534 503
f 503 480 505
f 505 391 503
f 503 391 537
f 500 389 506
f 505 500 506
f 506 391 505
f 506 389 499
f 498 479 350
f 350 556 498
f 479 439 350
f 439 450 350
f 350 450 556
f 513 530 353
f 513 353 508
f 508 515 513
f 283 286 276
f 292 296 283
f 283 20 292
f 276 20 283
f 76 296 285
f 284 286 76
f 285 282 76
f 76 282 284
f 76 283 296
f 286 283 76
f 32 289 278
f 32 180 187
f 187 120 32
f 120 289 32
f 337 258 340
f 330 342 340
f 340 258 69
f 69 330 340
f 340 87 337
f 340 342 87
f 486 480 360
f 360 491 486
f 360 483 491
f 534 483 360
f 480 503 360
f 360 503 534
f 536 538 528
f 528 385 536
f 385 483 536
f 536 483 534
f 365 551 540
f 540 527 365
f 535 545 365
f 365 527 535
f 548 532 399
f 548 546 532
f 499 362 504
f 504 506 499
f 504 547 391
f 391 506 504
f 549 545 535
f 537 547 549
f 563 366 557
f 557 404 565
f 565 563 557
f 557 366 567
f 557 567 569
f 569 404 557
f 378 458 456
f 418 619 607
f 606 608 418
f 607 604 418
f 418 604 606
f 605 619 418
f 418 608 605
f 375 447 464
f 464 447 461
f 465 462 379
f 462 466 379
f 466 464 379
f 463 465 379
f 379 461 463
f 379 464 461
f 514 552 395
f 395 524 514
f 515 524 395
f 395 513 515
f 533 552 554
f 530 513 533
f 533 554 399
f 399 530 533
f 533 395 552
f 513 395 533
f 119 32 278
f 278 275 119
f 275 3 119
f 180 32 119
f 177 180 119
f 119 3 177
f 400 534 537
f 400 536 534
f 538 536 400
f 537 549 400
f 535 538 400
f 400 549 535
f 531 365 545
f 531 548 399
f 545 548 531
f 551 365 531
f 399 554 531
f 554 551 531
f 544 362 502
f 544 504 362
f 547 504 544
f 502 546 544
f 546 548 402
f 402 549 547
f 402 544 546
f 547 544 402
f 402 548 545
f 545 549 402
f 459 466 378
f 378 456 459
f 459 456 446
f 459 464 466
f 459 446 375
f 375 464 459
f 355 485 475
f 446 456 355
f 438 355 475
f 475 477 438
f 438 477 371
f 446 355 438
f 371 448 438
f 448 446 438
f 485 355 440
f 440 487 485
f 440 372 487
f 440 355 456
f 458 372 440
f 440 456 458
f 170 161 516
f 525 170 516
f 516 161 157
f 157 512 516
f 523 170 525
f 169 170 523
f 45 165 517
f 45 517 396
f 517 165 361
f 361 165 13
f 511 392 41
f 41 155 511
f 392 571 41
f 571 173 41
f 46 408 575
f 575 176 46
f 46 173 571
f 46 571 408
f 518 512 157
f 157 166 518
f 168 518 166
f 519 518 168
f 168 45 396
f 396 519 168
f 184 595 190
f 585 595 184
f 238 672 671
f 671 236 238
f 227 662 238
f 238 662 672
f 149 361 13
f 497 361 149
f 670 236 671
f 670 234 236
f 497 149 670
f 670 149 234
f 687 696 312
f 302 687 312
f 169 523 42
f 42 523 394
f 233 242 673
f 673 668 233
f 694 692 304
f 304 306 694
f 691 303 10
f 691 10 358
f 683 687 302
f 683 302 297
f 683 304 692
f 297 304 683
f 47 176 575
f 575 410 47
f 358 10 120
f 120 467 358
f 178 580 188
f 188 580 589
f 589 588 188
f 588 187 188
f 182 580 178
f 182 584 580
f 511 155 153
f 153 510 511
f 153 42 394
f 394 510 153
f 429 673 242
f 429 242 52
f 679 681 256
f 256 255 679
f 303 691 436
f 80 303 436
f 694 306 436
f 436 306 80
f 585 184 189
f 189 593 585
f 189 47 410
f 410 593 189
f 186 187 588
f 186 588 586
f 467 120 186
f 586 467 186
f 190 595 49
f 49 595 413
f 584 182 49
f 413 584 49
f 695 312 696
f 695 310 312
f 62 431 666
f 232 62 666
f 666 662 227
f 227 232 666
f 233 668 674
f 674 244 233
f 674 431 62
f 674 62 244
f 66 256 681
f 681 432 66
f 677 252 66
f 66 432 677
f 50 252 677
f 677 428 50
f 679 255 68
f 68 433 679
f 310 695 68
f 68 695 433
f 195 50 428
f 428 660 195
f 195 429 52
f 195 660 429
