v -2 -2 -0.099999999999999978
v -2 -1.8999999999999999 -0.10999999999999999
v -2 -1.8 -0.11999999999999997
v -2 -1.7 -0.12999999999999998
v -2 -1.6000000000000001 -0.13999999999999996
v -2 -1.5 -0.14999999999999997
v -2 -1.3999999999999999 -0.16
v -2 -1.2999999999999998 -0.17000000000000001
v -2 -1.1000000000000001 -0.18999999999999997
v -2 -0.79999999999999982 -0.22
v -2 -0.69999999999999996 -0.22999999999999998
v -2 -0.59999999999999987 -0.23999999999999999
v -2 -0.5 -0.25
v -2 -0.29999999999999982 -0.27000000000000002
v -2 -0.19999999999999996 -0.27999999999999997
v -2 -0.099999999999999867 -0.28999999999999998
v -2 0 -0.29999999999999999
v -2 0.40000000000000036 -0.34000000000000002
v -2 0.5 -0.34999999999999998
v -2 0.90000000000000036 -0.39000000000000001
v -2 1 -0.40000000000000002
v -2 1.4000000000000004 -0.44000000000000006
v -2 1.5 -0.45000000000000001
v -2 1.9000000000000004 -0.49000000000000005
v -2 2 -0.5
v -1.8999999999999999 -2 -0.084999999999999964
v -1.8999999999999999 -1.8999999999999999 -0.094999999999999973
v -1.8999999999999999 -1.8 -0.10499999999999995
v -1.8999999999999999 -1.7 -0.11499999999999996
v -1.8999999999999999 -1.6000000000000001 -0.12499999999999994
v -1.8999999999999999 -1.5 -0.13499999999999995
v -1.8999999999999999 -1.3999999999999999 -0.14499999999999999
v -1.8999999999999999 -1.2999999999999998 -0.155
v -1.8999999999999999 -1.1000000000000001 -0.17499999999999996
v -1.8999999999999999 -0.79999999999999982 -0.20499999999999999
v -1.8999999999999999 -0.69999999999999996 -0.21499999999999997
v -1.8999999999999999 -0.59999999999999987 -0.22499999999999998
v -1.8999999999999999 -0.5 -0.23499999999999999
v -1.8999999999999999 -0.29999999999999982 -0.255
v -1.8999999999999999 -0.19999999999999996 -0.26499999999999996
v -1.8999999999999999 -0.099999999999999867 -0.27499999999999997
v -1.8999999999999999 0 -0.28499999999999998
v -1.8999999999999999 0.40000000000000036 -0.32500000000000001
v -1.8999999999999999 0.5 -0.33499999999999996
v -1.8999999999999999 0.90000000000000036 -0.375
v -1.8999999999999999 1 -0.38500000000000001
v -1.8999999999999999 1.4000000000000004 -0.42500000000000004
v -1.8999999999999999 1.5 -0.435
v -1.8999999999999999 1.9000000000000004 -0.47500000000000003
v -1.8999999999999999 2 -0.48499999999999999
v -1.8 -2 -0.070000000000000007
v -1.8 -1.8999999999999999 -0.080000000000000016
v -1.8 -1.8 -0.089999999999999997
v -1.8 -1.7 -0.10000000000000001
v -1.8 -1.6000000000000001 -0.10999999999999999
v -1.8 -1.5 -0.12
v -1.8 -1.3999999999999999 -0.13000000000000003
v -1.8 -1.2999999999999998 -0.14000000000000004
v -1.8 -1.1000000000000001 -0.16
v -1.8 -0.79999999999999982 -0.19000000000000003
v -1.8 -0.69999999999999996 -0.20000000000000001
v -1.8 -0.59999999999999987 -0.21000000000000002
v -1.8 -0.5 -0.22000000000000003
v -1.8 -0.29999999999999982 -0.24000000000000005
v -1.8 -0.19999999999999996 -0.25
v -1.8 -0.099999999999999867 -0.26000000000000001
v -1.8 0 -0.27000000000000002
v -1.8 0.40000000000000036 -0.31000000000000005
v -1.8 0.5 -0.32000000000000001
v -1.8 0.90000000000000036 -0.36000000000000004
v -1.8 1 -0.37
v -1.8 1.4000000000000004 -0.41000000000000003
v -1.8 1.5 -0.42000000000000004
v -1.8 1.9000000000000004 -0.46000000000000008
v -1.8 2 -0.47000000000000003
v -1.7 -2 -0.054999999999999993
v -1.7 -1.8999999999999999 -0.065000000000000002
v -1.7 -1.8 -0.074999999999999983
v -1.7 -1.7 -0.084999999999999992
v -1.7 -1.6000000000000001 -0.094999999999999973
v -1.7 -1.5 -0.10499999999999998
v -1.7 -1.3999999999999999 -0.11500000000000002
v -1.7 -1.2999999999999998 -0.12500000000000003
v -1.7 -1.1000000000000001 -0.14499999999999999
v -1.7 -0.79999999999999982 -0.17500000000000002
v -1.7 -0.69999999999999996 -0.185
v -1.7 -0.59999999999999987 -0.19500000000000001
v -1.7 -0.5 -0.20500000000000002
v -1.7 -0.29999999999999982 -0.22500000000000003
v -1.7 -0.19999999999999996 -0.23500000000000001
v -1.7 -0.099999999999999867 -0.24500000000000002
v -1.7 0 -0.255
v -1.7 0.40000000000000036 -0.29500000000000004
v -1.7 0.5 -0.30499999999999999
v -1.7 0.90000000000000036 -0.34500000000000003
v -1.7 1 -0.35499999999999998
v -1.7 1.4000000000000004 -0.39500000000000002
v -1.7 1.5 -0.40500000000000003
v -1.7 1.9000000000000004 -0.44500000000000006
v -1.7 2 -0.45500000000000002
v -1.6000000000000001 -2 -0.03999999999999998
v -1.6000000000000001 -1.8999999999999999 -0.049999999999999989
v -1.6000000000000001 -1.8 -0.05999999999999997
v -1.6000000000000001 -1.7 -0.069999999999999979
v -1.6000000000000001 -1.6000000000000001 -0.07999999999999996
v -1.6000000000000001 -1.5 -0.089999999999999969
v -1.6000000000000001 -1.3999999999999999 -0.10000000000000001
v -1.6000000000000001 -1.2999999999999998 -0.11000000000000001
v -1.6000000000000001 -1.1000000000000001 -0.12999999999999998
v -1.6000000000000001 -0.79999999999999982 -0.16
v -1.6000000000000001 -0.69999999999999996 -0.16999999999999998
v -1.6000000000000001 -0.59999999999999987 -0.17999999999999999
v -1.6000000000000001 -0.5 -0.19
v -1.6000000000000001 -0.29999999999999982 -0.21000000000000002
v -1.6000000000000001 -0.19999999999999996 -0.22
v -1.6000000000000001 -0.099999999999999867 -0.23000000000000001
v -1.6000000000000001 0 -0.23999999999999999
v -1.6000000000000001 0.40000000000000036 -0.28000000000000003
v -1.6000000000000001 0.5 -0.28999999999999998
v -1.6000000000000001 0.90000000000000036 -0.33000000000000002
v -1.6000000000000001 1 -0.33999999999999997
v -1.6000000000000001 1.4000000000000004 -0.38
v -1.6000000000000001 1.5 -0.39000000000000001
v -1.6000000000000001 1.9000000000000004 -0.43000000000000005
v -1.6000000000000001 2 -0.44
v -1.5 -2 -0.024999999999999967
v -1.5 -1.8999999999999999 -0.034999999999999976
v -1.5 -1.8 -0.044999999999999957
v -1.5 -1.7 -0.054999999999999966
v -1.5 -1.6000000000000001 -0.064999999999999947
v -1.5 -1.5 -0.074999999999999956
v -1.5 -1.3999999999999999 -0.084999999999999992
v -1.5 -1.2999999999999998 -0.095000000000000001
v -1.5 -1.1000000000000001 -0.11499999999999996
v -1.5 -0.79999999999999982 -0.14499999999999999
v -1.5 -0.69999999999999996 -0.15499999999999997
v -1.5 -0.59999999999999987 -0.16499999999999998
v -1.5 -0.29999999999999982 -0.19500000000000001
v -1.5 -0.19999999999999996 -0.20499999999999999
v -1.5 -0.099999999999999867 -0.215
v -1.5 0 -0.22499999999999998
v -1.5 0.30000000000000027 -0.255
v -1.5 0.40000000000000036 -0.26500000000000001
v -1.5 0.5 -0.27499999999999997
v -1.5 0.90000000000000036 -0.315
v -1.5 1 -0.32499999999999996
v -1.5 1.4000000000000004 -0.36499999999999999
v -1.5 1.9000000000000004 -0.41500000000000004
v -1.5 2 -0.42499999999999999
v -1.3999999999999999 -2 -0.0099999999999999811
v -1.3999999999999999 -1.8999999999999999 -0.01999999999999999
v -1.3999999999999999 -1.8 -0.029999999999999971
v -1.3999999999999999 -1.7 -0.03999999999999998
v -1.3999999999999999 -1.6000000000000001 -0.049999999999999961
v -1.3999999999999999 -1.5 -0.05999999999999997
v -1.3999999999999999 -1.3999999999999999 -0.070000000000000007
v -1.3999999999999999 -1.2999999999999998 -0.080000000000000016
v -1.3999999999999999 -0.79999999999999982 -0.13
v -1.3999999999999999 -0.69999999999999996 -0.14000000000000001
v -1.3999999999999999 -0.59999999999999987 -0.14999999999999999
v -1.3999999999999999 -0.5 -0.15999999999999998
v -1.3999999999999999 -0.19999999999999996 -0.19
v -1.3999999999999999 -0.099999999999999867 -0.20000000000000001
v -1.3999999999999999 0 -0.20999999999999999
v -1.3999999999999999 0.30000000000000027 -0.24000000000000002
v -1.3999999999999999 0.40000000000000036 -0.25
v -1.3999999999999999 0.5 -0.26000000000000001
v -1.3999999999999999 0.90000000000000036 -0.30000000000000004
v -1.3999999999999999 1 -0.31
v -1.3999999999999999 1.4000000000000004 -0.35000000000000003
v -1.3999999999999999 1.5 -0.35999999999999999
v -1.3999999999999999 2 -0.41000000000000003
v -1.2999999999999998 -2 0.0050000000000000322
v -1.2999999999999998 -1.8999999999999999 -0.0049999999999999767
v -1.2999999999999998 -1.8 -0.014999999999999958
v -1.2999999999999998 -1.7 -0.024999999999999967
v -1.2999999999999998 -1.6000000000000001 -0.034999999999999948
v -1.2999999999999998 -1.5 -0.044999999999999957
v -1.2999999999999998 -1.3999999999999999 -0.054999999999999993
v -1.2999999999999998 -0.69999999999999996 -0.12499999999999999
v -1.2999999999999998 -0.59999999999999987 -0.13499999999999998
v -1.2999999999999998 -0.5 -0.14499999999999996
v -1.2999999999999998 -0.29999999999999982 -0.16499999999999998
v -1.2999999999999998 -0.19999999999999996 -0.17499999999999999
v -1.2999999999999998 -0.099999999999999867 -0.185
v -1.2999999999999998 0 -0.19499999999999998
v -1.2999999999999998 0.40000000000000036 -0.23500000000000001
v -1.2999999999999998 0.5 -0.245
v -1.2999999999999998 0.90000000000000036 -0.28500000000000003
v -1.2999999999999998 1 -0.29499999999999998
v -1.2999999999999998 1.4000000000000004 -0.33500000000000002
v -1.2999999999999998 1.5 -0.34499999999999997
v -1.2999999999999998 1.9000000000000004 -0.38500000000000001
v -1.2999999999999998 2 -0.39500000000000002
v -1.2 -0.59999999999999987 -0.12
v -1.2 -0.5 -0.13
v -1.2 -0.29999999999999982 -0.15000000000000002
v -1.2 -0.19999999999999996 -0.16
v -1.2 0.40000000000000036 -0.22000000000000003
v -1.2 0.5 -0.22999999999999998
v -1.2 0.90000000000000036 -0.27000000000000002
v -1.2 1 -0.28000000000000003
v -1.2 1.4000000000000004 -0.32000000000000006
v -1.2 1.9000000000000004 -0.37000000000000005
v -1.2 2 -0.38
v -1.1000000000000001 -2 0.035000000000000003
v -1.1000000000000001 -1.8999999999999999 0.024999999999999994
v -1.1000000000000001 -1.8 0.015000000000000013
v -1.1000000000000001 -1.7 0.0050000000000000044
v -1.1000000000000001 -1.6000000000000001 -0.0049999999999999767
v -1.1000000000000001 -0.5 -0.115
v -1.1000000000000001 -0.39999999999999991 -0.125
v -1.1000000000000001 -0.29999999999999982 -0.13500000000000001
v -1.1000000000000001 -0.19999999999999996 -0.14500000000000002
v -1.1000000000000001 -0.099999999999999867 -0.15500000000000003
v -1.1000000000000001 0 -0.16500000000000001
v -1.1000000000000001 0.40000000000000036 -0.20500000000000004
v -1.1000000000000001 0.5 -0.21500000000000002
v -1.1000000000000001 0.90000000000000036 -0.25500000000000006
v -1.1000000000000001 1 -0.26500000000000001
v -1.1000000000000001 1.4000000000000004 -0.30500000000000005
v -1.1000000000000001 1.5 -0.31500000000000006
v -1.1000000000000001 1.9000000000000004 -0.35500000000000009
v -1.1000000000000001 2 -0.36499999999999999
v -1 -0.39999999999999991 -0.11
v -1 -0.29999999999999982 -0.12000000000000001
v -1 -0.19999999999999996 -0.13
v -0.79999999999999982 -2 0.080000000000000043
v -0.79999999999999982 -1.8999999999999999 0.070000000000000034
v -0.79999999999999982 -1.8 0.060000000000000053
v -0.79999999999999982 -1.7 0.050000000000000044
v -0.79999999999999982 -1.6000000000000001 0.040000000000000063
v -0.79999999999999982 -0.19999999999999996 -0.099999999999999978
v -0.79999999999999982 -0.099999999999999867 -0.10999999999999999
v -0.79999999999999982 0 -0.11999999999999997
v -0.79999999999999982 0.10000000000000009 -0.12999999999999998
v -0.79999999999999982 0.40000000000000036 -0.16
v -0.79999999999999982 0.5 -0.16999999999999998
v -0.79999999999999982 0.90000000000000036 -0.21000000000000002
v -0.79999999999999982 1 -0.21999999999999997
v -0.79999999999999982 1.4000000000000004 -0.26000000000000001
v -0.79999999999999982 1.5 -0.27000000000000002
v -0.79999999999999982 1.9000000000000004 -0.31000000000000005
v -0.79999999999999982 2 -0.31999999999999995
v -0.69999999999999996 -2 0.095000000000000015
v -0.69999999999999996 -1.8999999999999999 0.085000000000000006
v -0.69999999999999996 -1.8 0.075000000000000025
v -0.69999999999999996 -1.7 0.065000000000000016
v -0.69999999999999996 -1.6000000000000001 0.055000000000000035
v -0.69999999999999996 -1.5 0.045000000000000026
v -0.69999999999999996 -0.099999999999999867 -0.095000000000000001
v -0.69999999999999996 0 -0.105
v -0.69999999999999996 0.10000000000000009 -0.115
v -0.69999999999999996 0.20000000000000018 -0.125
v -0.69999999999999996 0.30000000000000027 -0.13500000000000001
v -0.69999999999999996 0.40000000000000036 -0.14500000000000002
v -0.69999999999999996 0.5 -0.155
v -0.69999999999999996 0.90000000000000036 -0.19500000000000003
v -0.69999999999999996 1 -0.20500000000000002
v -0.69999999999999996 1.4000000000000004 -0.24500000000000005
v -0.69999999999999996 1.5 -0.255
v -0.69999999999999996 1.9000000000000004 -0.29500000000000004
v -0.69999999999999996 2 -0.30499999999999999
v -0.59999999999999987 -2 0.11000000000000003
v -0.59999999999999987 -1.8999999999999999 0.10000000000000002
v -0.59999999999999987 -1.8 0.090000000000000038
v -0.59999999999999987 -1.7 0.080000000000000029
v -0.59999999999999987 -1.6000000000000001 0.070000000000000048
v -0.59999999999999987 -1.5 0.060000000000000039
v -0.59999999999999987 0 -0.089999999999999983
v -0.59999999999999987 0.20000000000000018 -0.11
v -0.59999999999999987 0.30000000000000027 -0.12000000000000001
v -0.59999999999999987 0.40000000000000036 -0.13
v -0.59999999999999987 0.5 -0.13999999999999999
v -0.59999999999999987 0.90000000000000036 -0.18000000000000002
v -0.59999999999999987 1 -0.19
v -0.59999999999999987 1.4000000000000004 -0.23000000000000004
v -0.59999999999999987 1.5 -0.23999999999999999
v -0.59999999999999987 1.9000000000000004 -0.28000000000000003
v -0.59999999999999987 2 -0.28999999999999998
v -0.5 -2 0.125
v -0.5 -1.8999999999999999 0.115
v -0.5 -1.8 0.10500000000000002
v -0.5 -1.7 0.095000000000000015
v -0.5 -1.6000000000000001 0.085000000000000034
v -0.5 -1.5 0.075000000000000025
v -0.5 -1.3999999999999999 0.064999999999999988
v -0.5 0.40000000000000036 -0.11500000000000003
v -0.5 0.5 -0.125
v -0.5 0.90000000000000036 -0.16500000000000004
v -0.5 1 -0.17499999999999999
v -0.5 1.4000000000000004 -0.21500000000000002
v -0.5 1.5 -0.22500000000000003
v -0.5 1.9000000000000004 -0.26500000000000007
v -0.5 2 -0.27500000000000002
v -0.39999999999999991 -1.8999999999999999 0.13
v -0.39999999999999991 -1.8 0.12000000000000004
v -0.39999999999999991 -1.7 0.11000000000000003
v -0.29999999999999982 -2 0.15500000000000003
v -0.29999999999999982 -1.8999999999999999 0.14500000000000002
v -0.29999999999999982 -1.8 0.13500000000000006
v -0.29999999999999982 -1.7 0.12500000000000006
v -0.29999999999999982 -1.6000000000000001 0.11500000000000006
v -0.29999999999999982 -1.5 0.10500000000000005
v -0.29999999999999982 -1.3999999999999999 0.095000000000000015
v -0.29999999999999982 -1.2999999999999998 0.085000000000000006
v -0.29999999999999982 0.30000000000000027 -0.074999999999999997
v -0.29999999999999982 0.40000000000000036 -0.085000000000000006
v -0.29999999999999982 0.5 -0.094999999999999973
v -0.29999999999999982 0.90000000000000036 -0.13500000000000001
v -0.29999999999999982 1 -0.14499999999999996
v -0.29999999999999982 1.4000000000000004 -0.185
v -0.29999999999999982 1.5 -0.19500000000000001
v -0.29999999999999982 1.9000000000000004 -0.23500000000000004
v -0.29999999999999982 2 -0.245
v -0.19999999999999996 -2 0.17000000000000001
v -0.19999999999999996 -1.8999999999999999 0.16
v -0.19999999999999996 -1.8 0.15000000000000002
v -0.19999999999999996 -1.7 0.14000000000000001
v -0.19999999999999996 -1.6000000000000001 0.13000000000000003
v -0.19999999999999996 -1.5 0.12000000000000002
v -0.19999999999999996 -1.3999999999999999 0.10999999999999999
v -0.19999999999999996 -1.2999999999999998 0.099999999999999978
v -0.19999999999999996 -1.1000000000000001 0.080000000000000016
v -0.19999999999999996 0.40000000000000036 -0.070000000000000034
v -0.19999999999999996 0.5 -0.079999999999999988
v -0.19999999999999996 0.90000000000000036 -0.12000000000000002
v -0.19999999999999996 1 -0.13
v -0.19999999999999996 1.4000000000000004 -0.17000000000000004
v -0.19999999999999996 1.5 -0.18000000000000002
v -0.19999999999999996 1.9000000000000004 -0.22000000000000006
v -0.19999999999999996 2 -0.23000000000000001
v -0.099999999999999867 -2 0.18500000000000003
v -0.099999999999999867 -1.8999999999999999 0.17500000000000002
v -0.099999999999999867 -1.8 0.16500000000000004
v -0.099999999999999867 -1.7 0.15500000000000003
v -0.099999999999999867 -1.6000000000000001 0.14500000000000005
v -0.099999999999999867 -1.5 0.13500000000000004
v -0.099999999999999867 -1.3999999999999999 0.125
v -0.099999999999999867 -1.2999999999999998 0.11499999999999999
v -0.099999999999999867 -1.1000000000000001 0.095000000000000029
v -0.099999999999999867 0.5 -0.064999999999999974
v -0.099999999999999867 0.90000000000000036 -0.10500000000000001
v -0.099999999999999867 1 -0.11499999999999999
v -0.099999999999999867 1.4000000000000004 -0.15500000000000003
v -0.099999999999999867 1.5 -0.16500000000000001
v -0.099999999999999867 1.9000000000000004 -0.20500000000000004
v -0.099999999999999867 2 -0.215
v 0 -2 0.20000000000000001
v 0 -1.8999999999999999 0.19
v 0 -1.8 0.18000000000000002
v 0 -1.7 0.17000000000000001
v 0 -1.6000000000000001 0.16000000000000003
v 0 -1.5 0.15000000000000002
v 0 -1.3999999999999999 0.13999999999999999
v 0 -1.2999999999999998 0.12999999999999998
v 0 -1.1000000000000001 0.11000000000000001
v 0 0.5 -0.050000000000000003
v 0 0.90000000000000036 -0.090000000000000038
v 0 1 -0.10000000000000001
v 0 1.4000000000000004 -0.14000000000000004
v 0 1.5 -0.15000000000000002
v 0 1.9000000000000004 -0.19000000000000006
v 0 2 -0.20000000000000001
v 0.30000000000000027 -0.79999999999999982 0.12500000000000003
v 0.30000000000000027 -0.69999999999999996 0.11500000000000003
v 0.40000000000000036 -2 0.26000000000000006
v 0.40000000000000036 -1.8999999999999999 0.25000000000000006
v 0.40000000000000036 -1.8 0.24000000000000007
v 0.40000000000000036 -1.7 0.23000000000000007
v 0.40000000000000036 -1.6000000000000001 0.22000000000000008
v 0.40000000000000036 -1.5 0.21000000000000008
v 0.40000000000000036 -1.3999999999999999 0.20000000000000004
v 0.40000000000000036 -1.2999999999999998 0.19000000000000003
v 0.40000000000000036 -1.2 0.18000000000000005
v 0.40000000000000036 -1.1000000000000001 0.17000000000000007
v 0.40000000000000036 -0.79999999999999982 0.14000000000000004
v 0.40000000000000036 -0.69999999999999996 0.13000000000000006
v 0.40000000000000036 -0.59999999999999987 0.12000000000000005
v 0.40000000000000036 -0.5 0.11000000000000006
v 0.40000000000000036 0.40000000000000036 0.020000000000000018
v 0.40000000000000036 0.5 0.010000000000000051
v 0.40000000000000036 0.90000000000000036 -0.029999999999999985
v 0.40000000000000036 1 -0.039999999999999952
v 0.40000000000000036 1.4000000000000004 -0.079999999999999988
v 0.40000000000000036 1.5 -0.089999999999999969
v 0.40000000000000036 1.9000000000000004 -0.13
v 0.40000000000000036 2 -0.13999999999999996
v 0.5 -2 0.27500000000000002
v 0.5 -1.8999999999999999 0.26500000000000001
v 0.5 -1.8 0.255
v 0.5 -1.7 0.245
v 0.5 -1.6000000000000001 0.23500000000000004
v 0.5 -1.5 0.22500000000000003
v 0.5 -1.3999999999999999 0.21499999999999997
v 0.5 -1.2999999999999998 0.20499999999999996
v 0.5 -1.2 0.19500000000000001
v 0.5 -1.1000000000000001 0.185
v 0.5 -0.79999999999999982 0.15499999999999997
v 0.5 -0.69999999999999996 0.14499999999999999
v 0.5 -0.59999999999999987 0.13499999999999998
v 0.5 -0.5 0.125
v 0.5 -0.29999999999999982 0.10499999999999998
v 0.5 0.40000000000000036 0.034999999999999962
v 0.5 0.5 0.024999999999999994
v 0.5 0.90000000000000036 -0.015000000000000041
v 0.5 1 -0.025000000000000008
v 0.5 1.4000000000000004 -0.065000000000000044
v 0.5 1.5 -0.075000000000000025
v 0.5 1.9000000000000004 -0.11500000000000006
v 0.5 2 -0.125
v 0.60000000000000009 2 -0.11
v 0.80000000000000027 -1.7 0.29000000000000004
v 0.80000000000000027 -1.6000000000000001 0.28000000000000008
v 0.80000000000000027 -1.5 0.27000000000000007
v 0.80000000000000027 -1.2999999999999998 0.25
v 0.80000000000000027 -1.2 0.24000000000000005
v 0.80000000000000027 -0.79999999999999982 0.20000000000000001
v 0.80000000000000027 -0.69999999999999996 0.19000000000000003
v 0.80000000000000027 -0.29999999999999982 0.15000000000000002
v 0.80000000000000027 -0.19999999999999996 0.14000000000000004
v 0.80000000000000027 -0.099999999999999867 0.13000000000000003
v 0.80000000000000027 0 0.12000000000000004
v 0.80000000000000027 0.40000000000000036 0.080000000000000002
v 0.80000000000000027 0.5 0.070000000000000034
v 0.80000000000000027 0.90000000000000036 0.029999999999999999
v 0.80000000000000027 1 0.020000000000000032
v 0.80000000000000027 1.4000000000000004 -0.020000000000000004
v 0.80000000000000027 1.5 -0.029999999999999985
v 0.80000000000000027 1.9000000000000004 -0.070000000000000021
v 0.80000000000000027 2 -0.079999999999999974
v 0.90000000000000036 -2 0.33500000000000008
v 0.90000000000000036 -1.8999999999999999 0.32500000000000007
v 0.90000000000000036 -1.8 0.31500000000000006
v 0.90000000000000036 -1.7 0.30500000000000005
v 0.90000000000000036 -1.6000000000000001 0.29500000000000004
v 0.90000000000000036 -1.5 0.28500000000000003
v 0.90000000000000036 -1.3999999999999999 0.27500000000000002
v 0.90000000000000036 -1.2999999999999998 0.26500000000000001
v 0.90000000000000036 -1.2 0.255
v 0.90000000000000036 -1.1000000000000001 0.24500000000000005
v 0.90000000000000036 -0.79999999999999982 0.21500000000000002
v 0.90000000000000036 -0.69999999999999996 0.20500000000000002
v 0.90000000000000036 -0.59999999999999987 0.19500000000000003
v 0.90000000000000036 -0.5 0.18500000000000005
v 0.90000000000000036 -0.29999999999999982 0.16500000000000004
v 0.90000000000000036 -0.19999999999999996 0.15500000000000003
v 0.90000000000000036 -0.099999999999999867 0.14500000000000002
v 0.90000000000000036 0 0.13500000000000004
v 0.90000000000000036 0.40000000000000036 0.095000000000000001
v 0.90000000000000036 0.5 0.085000000000000034
v 0.90000000000000036 0.90000000000000036 0.044999999999999998
v 0.90000000000000036 1 0.035000000000000031
v 0.90000000000000036 1.4000000000000004 -0.0050000000000000044
v 0.90000000000000036 1.5 -0.014999999999999986
v 0.90000000000000036 1.9000000000000004 -0.055000000000000021
v 0.90000000000000036 2 -0.064999999999999974
v 1 -2 0.34999999999999998
v 1 -1.8999999999999999 0.33999999999999997
v 1 -1.8 0.33000000000000002
v 1 -1.7 0.32000000000000001
v 1 -1.6000000000000001 0.31000000000000005
v 1 -1.5 0.30000000000000004
v 1 -1.3999999999999999 0.28999999999999998
v 1 -1.2999999999999998 0.27999999999999997
v 1 -1.2 0.27000000000000002
v 1 -1.1000000000000001 0.26000000000000001
v 1 -0.79999999999999982 0.22999999999999998
v 1 -0.69999999999999996 0.21999999999999997
v 1 -0.59999999999999987 0.20999999999999999
v 1 -0.5 0.20000000000000001
v 1 -0.29999999999999982 0.17999999999999999
v 1 -0.19999999999999996 0.16999999999999998
v 1 -0.099999999999999867 0.15999999999999998
v 1 0 0.14999999999999999
v 1 0.40000000000000036 0.10999999999999996
v 1 0.5 0.099999999999999992
v 1 0.90000000000000036 0.059999999999999956
v 1 1 0.049999999999999989
v 1 1.4000000000000004 0.0099999999999999534
v 1 1.5 -2.7755575615628914e-17
v 1 1.9000000000000004 -0.040000000000000063
v 1 2 -0.050000000000000017
v 1.1000000000000001 0.40000000000000036 0.12499999999999997
v 1.1000000000000001 0.5 0.115
v 1.2000000000000002 -0.69999999999999996 0.25
v 1.2000000000000002 -0.59999999999999987 0.24000000000000002
v 1.2000000000000002 0.5 0.13
v 1.2000000000000002 0.60000000000000009 0.12000000000000001
v 1.2000000000000002 0.70000000000000018 0.11
v 1.3000000000000003 -0.59999999999999987 0.255
v 1.3000000000000003 -0.5 0.24500000000000005
v 1.3000000000000003 0.60000000000000009 0.13500000000000001
v 1.3000000000000003 0.70000000000000018 0.125
v 1.4000000000000004 -2 0.41000000000000003
v 1.4000000000000004 -1.8999999999999999 0.40000000000000002
v 1.4000000000000004 -1.8 0.39000000000000007
v 1.4000000000000004 -1.7 0.38000000000000006
v 1.4000000000000004 -1.6000000000000001 0.37000000000000011
v 1.4000000000000004 -1.5 0.3600000000000001
v 1.4000000000000004 -1.3999999999999999 0.35000000000000003
v 1.4000000000000004 -1.2999999999999998 0.34000000000000002
v 1.4000000000000004 -1.2 0.33000000000000007
v 1.4000000000000004 -1.1000000000000001 0.32000000000000006
v 1.4000000000000004 -0.79999999999999982 0.29000000000000004
v 1.4000000000000004 -0.69999999999999996 0.28000000000000003
v 1.4000000000000004 -0.59999999999999987 0.27000000000000002
v 1.4000000000000004 -0.5 0.26000000000000006
v 1.4000000000000004 -0.29999999999999982 0.24000000000000005
v 1.4000000000000004 -0.19999999999999996 0.23000000000000004
v 1.4000000000000004 -0.099999999999999867 0.22000000000000003
v 1.4000000000000004 0 0.21000000000000005
v 1.4000000000000004 0.40000000000000036 0.17000000000000001
v 1.4000000000000004 0.5 0.16000000000000003
v 1.4000000000000004 0.80000000000000027 0.13
v 1.4000000000000004 0.90000000000000036 0.12000000000000001
v 1.4000000000000004 1 0.11000000000000004
v 1.4000000000000004 1.4000000000000004 0.070000000000000007
v 1.4000000000000004 1.5 0.060000000000000026
v 1.4000000000000004 1.9000000000000004 0.01999999999999999
v 1.4000000000000004 2 0.010000000000000037
v 1.5 -2 0.42499999999999999
v 1.5 -1.8999999999999999 0.41499999999999998
v 1.5 -1.8 0.40500000000000003
v 1.5 -1.7 0.39500000000000002
v 1.5 -1.6000000000000001 0.38500000000000001
v 1.5 -1.3999999999999999 0.36499999999999999
v 1.5 -1.2999999999999998 0.35499999999999998
v 1.5 -1.2 0.34499999999999997
v 1.5 -1.1000000000000001 0.33499999999999996
v 1.5 -0.79999999999999982 0.30499999999999994
v 1.5 -0.69999999999999996 0.29499999999999998
v 1.5 -0.59999999999999987 0.28499999999999998
v 1.5 -0.5 0.27499999999999997
v 1.5 -0.29999999999999982 0.25499999999999995
v 1.5 -0.19999999999999996 0.24499999999999997
v 1.5 -0.099999999999999867 0.23499999999999996
v 1.5 0 0.22499999999999998
v 1.5 0.40000000000000036 0.18499999999999994
v 1.5 0.5 0.17499999999999999
v 1.5 0.90000000000000036 0.13499999999999995
v 1.5 1 0.12499999999999997
v 1.5 1.4000000000000004 0.084999999999999937
v 1.5 1.5 0.074999999999999956
v 1.5 1.9000000000000004 0.03499999999999992
v 1.5 2 0.024999999999999967
v 1.6000000000000001 -0.19999999999999996 0.26000000000000001
v 1.6000000000000001 -0.099999999999999867 0.24999999999999997
v 1.7000000000000002 -0.099999999999999867 0.26500000000000001
v 1.7000000000000002 0 0.255
v 1.9000000000000004 -2 0.48500000000000004
v 1.9000000000000004 -1.8999999999999999 0.47500000000000003
v 1.9000000000000004 -1.8 0.46500000000000008
v 1.9000000000000004 -1.7 0.45500000000000007
v 1.9000000000000004 -1.6000000000000001 0.44500000000000006
v 1.9000000000000004 -1.5 0.43500000000000005
v 1.9000000000000004 -1.2999999999999998 0.41500000000000004
v 1.9000000000000004 -1.2 0.40500000000000003
v 1.9000000000000004 -1.1000000000000001 0.39500000000000002
v 1.9000000000000004 -0.79999999999999982 0.36499999999999999
v 1.9000000000000004 -0.69999999999999996 0.35500000000000004
v 1.9000000000000004 -0.59999999999999987 0.34500000000000003
v 1.9000000000000004 -0.5 0.33500000000000002
v 1.9000000000000004 -0.29999999999999982 0.315
v 1.9000000000000004 -0.19999999999999996 0.30500000000000005
v 1.9000000000000004 -0.099999999999999867 0.29500000000000004
v 1.9000000000000004 0 0.28500000000000003
v 1.9000000000000004 0.40000000000000036 0.245
v 1.9000000000000004 0.5 0.23500000000000004
v 1.9000000000000004 0.90000000000000036 0.19500000000000001
v 1.9000000000000004 1 0.18500000000000003
v 1.9000000000000004 1.4000000000000004 0.14499999999999999
v 1.9000000000000004 1.5 0.13500000000000001
v 1.9000000000000004 1.9000000000000004 0.094999999999999973
v 1.9000000000000004 2 0.08500000000000002
v 2 -2 0.5
v 2 -1.8999999999999999 0.48999999999999999
v 2 -1.8 0.47999999999999998
v 2 -1.7 0.46999999999999997
v 2 -1.6000000000000001 0.46000000000000002
v 2 -1.5 0.45000000000000001
v 2 -1.3999999999999999 0.43999999999999995
v 2 -1.2999999999999998 0.42999999999999994
v 2 -1.2 0.41999999999999998
v 2 -1.1000000000000001 0.41000000000000003
v 2 -0.79999999999999982 0.38
v 2 -0.69999999999999996 0.37
v 2 -0.59999999999999987 0.35999999999999999
v 2 -0.5 0.34999999999999998
v 2 -0.29999999999999982 0.32999999999999996
v 2 -0.19999999999999996 0.32000000000000001
v 2 -0.099999999999999867 0.31
v 2 0 0.29999999999999999
v 2 0.40000000000000036 0.25999999999999995
v 2 0.5 0.25
v 2 0.90000000000000036 0.20999999999999996
v 2 1 0.19999999999999998
v 2 1.4000000000000004 0.15999999999999995
v 2 1.5 0.14999999999999997
v 2 1.9000000000000004 0.10999999999999993
v 2 2 0.099999999999999978
v -2 -2 -0.90000000000000002
v -2 2 -0.90000000000000002
v 2 -2 -0.90000000000000002
v 2 2 -0.90000000000000002
v -1 -1.3680117784833934 -0.14545556584642799
v -1 -1 -0.24999999999999994
v -1.3500000000000001 -1.2163118960624633 -0.11631189606246312
v -1.1124354249480162 -1.4856463342923145 -0.041432511343314105
v -0.88756457505198383 -1.4856463342923145 -0.041432511343314105
v -1 -1.1912865702388702 -0.22335685044874226
v -0.81807566089457184 -1.3037219951868864 -0.15386793629133028
v -0.702272217076786 -1.4114496766047311 -0.031733672164910687
v -0.81599411075830319 -1.1137218936815172 -0.21573956140660749
v -1.1819243391054282 -1.3037219951868864 -0.15386793629133028
v -1.1840058892416967 -1.1137218936815172 -0.21573956140660749
v -1.1840058892416967 -0.88627810631848281 -0.21573956140660749
v -1.3680117784833936 -1 -0.14545556584642788
v -1.0567604054103124 -1.4309494146115764 -0.098690129693979889
v -0.94323959458968754 -1.4309494146115764 -0.098690129693979889
v -0.83403957225459679 -1.53105661011428 0.0252223955097301
v -1 -1.4920349213414412 -0.047897214473551331
v -1 -1.282348744032155 -0.19053039486308881
v -1 -1.0965665694893436 -0.24330721736980326
v -1 -0.90343343051065639 -0.24330721736980326
v -0.90815973483089096 -1.3391091494424674 -0.15545053510429235
v -0.73147038712046653 -1.2625269972347468 -0.14073803223567299
v -0.85088399404560922 -1.3998761613949959 -0.10485446048149688
v -0.90784124005355471 -1.2507601554406054 -0.19701322042794217
v -0.73977637587787082 -1.4949747468305832 0.028949331494718011
v -0.67209910439313192 -1.3177933498176828 -0.080554794033443511
v -0.79279678519556196 -1.4531883257175569 -0.041616892720361454
v -0.75769288964770554 -1.3612851340357428 -0.098416188854319187
v -0.90685022710158603 -1.0575697256955536 -0.24138183841659638
v -0.72966883008868555 -1.1670738512237153 -0.17370456693185748
v -0.90704526622046833 -1.1540819192313048 -0.22647481818170728
v -0.81514207453865406 -1.2108812153652624 -0.19137092263385097
v -0.60502205176395996 -1.3593628088613134 -0.0026044542584121033
v -1.091840265169109 -1.3391091494424674 -0.15545053510429235
v -1.2685296128795334 -1.2625269972347468 -0.14073803223567299
v -1.1491160059543908 -1.3998761613949959 -0.10485446048149688
v -1.0921587599464453 -1.2507601554406054 -0.19701322042794217
v -1.3279008956068681 -1.3177933498176828 -0.080554794033443511
v -1.207203214804438 -1.4531883257175569 -0.041616892720361454
v -1.2423071103522945 -1.3612851340357428 -0.098416188854319187
v -1.0931497728984139 -1.0575697256955536 -0.24138183841659638
v -1.2703311699113145 -1.1670738512237153 -0.17370456693185748
v -1.0929547337795318 -1.1540819192313048 -0.22647481818170728
v -1.1848579254613458 -1.2108812153652624 -0.19137092263385097
v -1.2685296128795334 -0.73747300276525318 -0.14073803223567299
v -1.0931497728984139 -0.94243027430444637 -0.24138183841659638
v -1.2703311699113145 -0.83292614877628479 -0.17370456693185748
v -1.0929547337795318 -0.84591808076869535 -0.22647481818170728
v -1.1864832907941971 -1 -0.22470288442733571
v -1.1848579254613458 -0.7891187846347375 -0.19137092263385097
v -1.3634809428097285 -1.1095041255281617 -0.13812451972899714
v -1.3634809428097285 -0.89049587447183842 -0.13812451972899714
v -1.2797249361912959 -1.0576265060223722 -0.18908774505260934
v -1.2797249361912959 -0.94237349397762793 -0.18908774505260934
v 0 0.3680117784833935 -0.095455565846428003
v 0 0 -0.19999999999999996
v 0.35000000000000003 -0.2163118960624632 -0.066311896062463127
v 0.35000000000000003 0.2163118960624632 -0.066311896062463127
v 0 0.19128657023887019 -0.17335685044874227
v 0.49143251134331412 -0.11243542494801619 0.014353665707685648
v 0.18400588924169678 -0.11372189368151724 -0.16573956140660751
v 0.4817336721649107 -0.297727782923214 0.088550323395268804
v 0.1819243391054281 0.30372199518688636 -0.10386793629133029
v 0.49143251134331412 0.11243542494801619 0.014353665707685648
v 0.18400588924169678 0.11372189368151724 -0.16573956140660751
v 0.36801177848339356 0 -0.095455565846427892
v -0.1819243391054281 0.30372199518688636 -0.10386793629133029
v 0.056760405410312451 0.43094941461157649 -0.0486901296939799
v 0 0.28234874403215504 -0.14053039486308883
v 0 0.096566569489343598 -0.19330721736980327
v 0.26852961287953347 -0.26252699723474676 -0.090738032235673005
v 0.5486901296939799 -0.056760405410312464 0.069050585388423624
v 0.42477760449026991 -0.16596042774540318 -0.03105661011428007
v 0.32790089560686808 -0.31779334981768276 -0.030554794033443522
v 0.093149772898413932 -0.057569725695553617 -0.19138183841659639
v 0.27033116991131445 -0.16707385122371524 -0.1237045669318575
v 0.18485792546134591 -0.21088121536526247 -0.14137092263385098
v 0.421050668505282 -0.26022362412212913 0.0050252531694168212
v 0.49161689272036146 -0.20720321480443807 0.046811674282443261
v 0.39497794823604004 -0.3593628088613135 0.047395545741587886
v 0.091840265169108995 0.33910914944246751 -0.10545053510429236
v 0.26852961287953347 0.26252699723474676 -0.090738032235673005
v 0.14911600595439084 0.39987616139499604 -0.054854460481496892
v 0.092158759946445235 0.25076015544060526 -0.14701322042794218
v 0.5486901296939799 0.056760405410312464 0.069050585388423624
v 0.42477760449026991 0.16596042774540318 -0.03105661011428007
v 0.4978972144735514 0 0.0079650786585587774
v 0.32790089560686808 0.31779334981768276 -0.030554794033443522
v 0.24230711035229444 0.36128513403574275 -0.048416188854319198
v 0.093149772898413932 0.057569725695553617 -0.19138183841659639
v 0.27033116991131445 0.16707385122371524 -0.1237045669318575
v 0.092954733779531715 0.15408191923130468 -0.17647481818170729
v 0.1864832907941972 0 -0.17470288442733573
v 0.18485792546134591 0.21088121536526247 -0.14137092263385098
v 0.421050668505282 0.26022362412212913 0.0050252531694168212
v 0.49161689272036146 0.20720321480443807 0.046811674282443261
v 0.36348094280972848 -0.10950412552816161 -0.088124519728997153
v 0.36348094280972848 0.10950412552816161 -0.088124519728997153
v 0.43416770782941289 -0.056799296133957747 -0.046143059497088634
v 0.27972493619129579 -0.057626506022372119 -0.13908774505260935
v 0.43416770782941289 0.056799296133957747 -0.046143059497088634
v 0.27972493619129579 0.057626506022372119 -0.13908774505260935
v -0.091840265169108995 0.33910914944246751 -0.10545053510429236
v -0.26852961287953347 0.26252699723474676 -0.090738032235673005
v -0.092158759946445235 0.25076015544060526 -0.14701322042794218
v -0.093149772898413932 0.057569725695553617 -0.19138183841659639
v -0.092954733779531715 0.15408191923130468 -0.17647481818170729
v -0.18485792546134591 0.21088121536526247 -0.14137092263385098
v 0.30482550746617432 0.38941857838130967 0.0067819682817951768
v 0.5542696361249061 -0.14035401596269043 0.097175847015004951
v 0.55312094952174828 -0.14811341631391856 0.097779484059654115
v -0.69999999999999984 -1.4808068524976838 0.043080685249768394
v -0.67824852398653301 -1.4686788569376861 0.045130607095788651
v -1.4014560207821909 -1.181664006259125 -0.092052002491416138
v -1.4085334416282709 -1.1509990033764439 -0.096180115906596239
v -1.3999999999999997 -1.1858547876125389 -0.091414521238746091
v 0.40000000000000041 -0.40932582305481752 0.10093258230548181
v -1.4143625286660095 -1.1000000000000001 -0.10215437929990143
v -0.66824598239016342 -0.099999999999999881 -0.090236897358524526
v -0.69999999999999996 -0.13175401760983643 -0.091824598239016342
v 0.55849473131552663 -0.099999999999999867 0.093774209697328997
v 0.56215091965474195 -0.065079631121486778 0.090830601060359978
v 0.42896058787140773 -0.38036523518341014 0.10238061169905216
v -0.59999999999999987 -0.031754017609836337 -0.086824598239016337
v -1.0824150333770055 -1.518289428233679 -0.010533312183182902
v -1.0400260851231935 -1.530164565387869 -0.0029874562296920717
v -1.4177359769151561 -1.0426915546296274 -0.10839124107431065
v -1.4179152172696403 -1.0689173318361884 -0.10579554940682717
v -0.59182916311086375 -1.3999999999999997 0.051225625533370407
v -0.59999999999999998 -1.4077169015064062 0.050771690150640633
v 0.47332955324196707 -0.32578558925321455 0.10357799191161651
v 0.48963410259626877 -0.30261051745554729 0.10370616713499503
v 0.49108134799481928 -0.29999999999999982 0.10366220219922288
v -0.5 -1.3093258230548177 0.055932582305481773
v -0.57103941212859222 -1.3803652351834099 0.052380611699052157
v 0.5 -0.28391268214582177 0.10339126821458218
v -1.4090345564036399 -0.96477919765675779 -0.11487726369487022
v -1.3999999999999997 -0.92694117482367333 -0.11730588251763263
v -0.56824598239016355 -0 -0.085236897358524535
v -1.3824502431161327 -1.2363672492514304 -0.083730811542276851
v -0.5 0.068245982390163537 -0.081824598239016347
v -1.2999999999999998 -1.3726757776613259 -0.057732422233867424
v -1.3165424208267726 -1.3530496734512518 -0.062176395778890711
v 0.49567649944419062 0.20971218974072209 0.053380255942556375
v 0.5 0.2014399626358824 0.054856003736411758
v 0.49044268372837296 0.21795828814157159 0.051770573745098789
v -0.49067417694518206 -1.2999999999999998 0.056398873458222677
v -1.3384190080047151 -1.3243117078164428 -0.068331680419062998
v -1.3500458469128158 -1.3041070172313958 -0.072096175313782818
v -1.3520105039754051 -1.2999999999999998 -0.0728015755963108
v 0.4459765307904342 0.27562865421325233 0.039333614197239887
v -0.73486018158712996 -1.5 0.03977097276193052
v -0.73296263787810789 -1.4991858685048733 0.039974191168771184
v -0.7457441243658679 -1.5046697003948817 0.038605351384608029
v 0.40615267269372002 0.3168719194957586 0.029235708954482145
v 0.40000000000000036 0.32210811606156203 0.027789188393843849
v 0.52550264477919961 -0.22814576131115183 0.10163997284799514
v 0.5353449574250283 -0.19999999999999996 0.10030174361375424
v 0.50140466032331654 -0.28137897894883429 0.1033485969433809
v -1.2999999999999998 -0.73479567729817075 -0.1215204322701829
v -1.3301081277299462 -0.77240418935262956 -0.122275800224229
v -1.2877901352190564 -0.71954415282889295 -0.12121410499996918
v -0.29999999999999982 -1.1093258230548178 0.06593258230548181
v -1.397322817302165 -0.91572874827794959 -0.11802554776752981
v 0.55232666634813143 -0.1514379248857031 0.097992792440790039
v -0.22163248622213808 0.34157593164444194 -0.067402466097764915
v -0.25537829259070283 0.31205697199016535 -0.069512441087621973
v -0.29999999999999982 0.26824598239016373 -0.071824598239016338
v -0.142533525086039 0.39289244214282681 -0.060669272977188535
v -0.15369786333793148 0.38644772312686987 -0.061699451813376709
v -0.29067417694518233 -1.1000000000000001 0.066398873458222665
v -0.19999999999999993 0.35586449864893971 -0.065586449864893967
v -1.3827901869341175 -0.87271140641133615 -0.12014738739898402
v -1.3534593729141151 -0.81109626919855449 -0.12190927901726183
v -1.3475440617601113 -0.79999999999999982 -0.12213160926401671
v -0.19999999999999996 -1.0093258230548179 0.070932582305481787
v 0.56306087836514396 -0.039318260361863519 0.088390957790957944
v 0.3725538590237743 0.34546599584459775 0.021336479269106364
v 0.55977289043573086 0 0.083965933565359627
v -0.28779013521905655 0.280455847171107 -0.071214104999969177
v -0.26774458274516022 0.30000000000000027 -0.07016168741177406
v -1.3416119454470583 -0.7888722067507431 -0.12235457114198442
v 0.55574205877683902 0.048201298800827637 0.078541178936443079
v -1.2026353195116346 -1.4618127227362483 -0.034214025653120338
v -1.2113792263330034 -1.4564795220427285 -0.03605893174567764
v 0.55364287407448265 0.059821369775053201 0.077064294133667083
v 0.54987604996486261 0.07452817008584936 0.07502859048614445
v -1.2263828264868408 -1.4443450790855299 -0.039522916064473147
v -0.099999999999999867 -0.90932582305481768 0.075932582305481791
v -1.1312495313549369 -1.5 -0.019687429703240476
v -1.1300870488758867 -1.5006218610438857 -0.019450871226994376
v -1.275835252438809 -1.3999999999999999 -0.051375287865821337
v 0.52961479057439897 0.13451844518588885 0.065990374067570953
v 0.50194729693419571 0.19771416631128613 0.05552067790900074
v -0.12476731621803339 0.40000000000000036 -0.058715097432705046
v -1.2804784842458408 -1.3958363118142012 -0.052488141455456008
v -1.1000000000000001 -1.5117723222105588 -0.013822767778944098
v -0.099999999999999867 0.40990842414915007 -0.05599084241491499
v -1.2682459823901635 -0.70000000000000007 -0.12023689735852454
v 0 -0.80932582305481782 0.080932582305481782
v -0.058447773598562965 0.42653182734320128 -0.051420348774104577
v -0.054069685618029072 0.42796586398353842 -0.050907039241058209
v -0.083484295263285449 0.41651570473671473 -0.054174214763164287
v -0.037301254885481673 0.43094941461157654 -0.0486901296939799
v -0 0.43695602451317617 -0.043695602451317615
v 0.0093258230548179787 -0.79999999999999982 0.081398873458222679
v 0.018665603514291695 -0.79066021954052612 0.081865862481196386
v -1.1682459823901634 -0.59999999999999987 -0.11523689735852451
v 0.071206703173337105 0.44514191952651544 -0.033833186476650984
v 0.044517949587775919 0.44412473660111534 -0.037734781221945145
v -1.1000000000000001 -0.53175401760983654 -0.11182459823901635
v -0.8364873069517359 -1.5335308618270407 0.027879990139943703
v -0.83184421839056133 -1.5325937614788967 0.028482743389305502
v 0.10932582305481785 -0.69999999999999996 0.086398873458222669
v -0.88941000371886414 -1.5387089969964836 0.020459399141818789
v -1.0682459823901636 -0.5 -0.11023689735852452
v -0.63674855347039416 -1.4424238686728899 0.048730103846729864
v 0.185250129785407 0.43303988858154208 -0.015516469390343159
v 0.13149335844845156 0.44108318380367145 -0.024384314613099409
v -0.9406803882849174 -1.5434025589915594 0.013238197656418347
v 0.20932582305481795 -0.59999999999999987 0.091398873458222701
v -0.94627808163592975 -1.5432114882829402 0.012379436582904598
v 0.28482943731411864 0.39977461787012275 0.0027469538101055216
v 0.28421122011868322 0.40000000000000041 0.0026316830178024437
v -0.96338208043644491 -0.3951360980462813 -0.1049937022608386
v -0.79999999999999982 -1.5222660155038956 0.032226601550389603
v 0.218347682715337 0.42401172994029068 -0.0096490205867285211
v 0.30932582305481782 -0.5 0.096398873458222678
v -0.86824598239016337 -0.29999999999999982 -0.10023689735852452
v -0.79999999999999982 -0.2317540176098363 -0.096824598239016346
v -0.76824598239016351 -0.19999999999999998 -0.095236897358524517
v -0.64555588843355605 -1.4493201546181489 0.048098632196781475
f 70 71 45
f 45 71 46
f 72 73 47
f 47 73 48
f 89 90 64
f 64 90 65
f 91 92 66
f 66 92 67
f 158 159 135
f 135 159 136
f 159 160 136
f 136 160 137
f 160 161 137
f 138 162 139
f 143 167 144
f 170 171 147
f 148 172 149
f 158 180 159
f 180 181 159
f 159 181 160
f 187 188 166
f 195 196 181
f 181 196 182
f 197 198 183
f 183 198 184
f 199 200 187
f 187 200 188
f 189 202 190
f 204 205 193
f 193 205 194
f 195 211 196
f 211 212 196
f 213 214 197
f 197 214 198
f 217 218 199
f 199 218 200
f 219 220 201
f 221 222 203
f 223 224 204
f 204 224 205
f 211 225 212
f 226 227 213
f 213 227 214
f 251 252 234
f 234 252 235
f 253 254 236
f 258 259 239
f 239 259 240
f 260 261 241
f 241 261 242
f 262 263 243
f 243 263 244
f 253 271 254
f 272 273 255
f 255 273 256
f 281 282 264
f 264 282 265
f 272 288 273
f 288 289 273
f 273 289 274
f 290 291 275
f 275 291 276
f 292 293 277
f 277 293 278
f 281 296 282
f 296 297 282
f 282 297 283
f 300 301 296
f 296 301 297
f 302 303 298
f 317 318 300
f 300 318 301
f 319 320 302
f 302 320 303
f 307 325 308
f 325 326 308
f 308 326 309
f 327 328 310
f 310 328 311
f 329 330 312
f 312 330 313
f 325 342 326
f 359 360 343
f 343 360 344
f 377 378 365
f 365 378 366
f 378 379 366
f 390 391 368
f 368 391 369
f 392 393 370
f 370 393 371
f 394 395 372
f 372 395 373
f 396 397 374
f 374 397 375
f 397 398 375
f 375 398 376
f 401 402 379
f 379 402 380
f 410 411 387
f 387 411 388
f 410 412 411
f 435 436 413
f 413 436 414
f 439 440 416
f 442 443 418
f 418 443 419
f 443 444 419
f 446 447 420
f 420 447 421
f 448 449 422
f 422 449 423
f 459 460 433
f 433 460 434
f 461 462 435
f 435 462 436
f 463 464 437
f 465 466 439
f 440 467 441
f 484 488 485
f 486 491 487
f 491 492 487
f 525 526 498
f 498 526 499
f 500 527 501
f 528 529 502
f 502 529 503
f 531 532 505
f 505 532 506
f 533 534 507
f 507 534 508
f 535 536 509
f 509 536 510
f 539 540 513
f 513 540 514
f 515 541 516
f 541 542 516
f 516 542 517
f 535 547 536
f 536 548 537
f 549 550 548
f 577 578 552
f 552 578 553
f 579 580 554
f 554 580 555
f 581 582 556
f 583 584 557
f 557 584 558
f 584 585 558
f 558 585 559
f 586 587 560
f 560 587 561
f 251 725 724
f 403 741 738
f 729 744 270
f 324 781 776
f 816 821 211
f 722 833 380
f 835 836 233
f 654 658 616
f 646 654 616
f 623 642 639
f 643 645 640
f 639 641 619
f 641 645 644
f 632 633 628
f 606 639 619
f 623 639 606
f 612 633 627
f 628 633 612
f 607 646 624
f 654 659 658
f 666 682 681
f 627 633 631
f 634 636 614
f 624 636 634
f 624 634 607
f 678 684 665
f 683 684 678
f 683 685 667
f 667 684 683
f 610 632 628
f 621 632 610
f 616 648 646
f 646 648 624
f 608 643 640
f 647 658 656
f 647 656 608
f 640 647 608
f 616 658 647
f 640 645 615
f 615 641 639
f 615 645 641
f 639 642 615
f 630 632 621
f 613 633 632
f 613 632 630
f 613 638 631
f 631 633 613
f 606 626 623
f 626 628 612
f 612 629 626
f 626 629 623
f 651 654 646
f 625 651 607
f 607 651 646
f 653 655 617
f 617 659 654
f 617 654 651
f 651 653 617
f 661 695 675
f 680 695 661
f 662 683 678
f 678 702 662
f 662 681 676
f 662 702 681
f 679 685 683
f 679 683 662
f 676 679 662
f 609 622 619
f 641 644 609
f 619 641 609
f 620 622 610
f 619 622 620
f 619 620 606
f 610 628 620
f 620 628 626
f 620 626 606
f 624 648 611
f 611 636 624
f 611 642 623
f 611 648 642
f 629 636 611
f 623 629 611
f 642 649 615
f 647 649 616
f 640 649 647
f 615 649 640
f 616 649 648
f 648 649 642
f 612 637 629
f 635 637 627
f 627 637 612
f 636 637 614
f 629 637 636
f 656 658 618
f 658 659 618
f 709 713 672
f 666 698 680
f 695 698 670
f 680 698 695
f 670 697 695
f 664 697 689
f 695 697 675
f 675 697 664
f 670 699 697
f 697 699 689
f 677 692 665
f 652 655 650
f 617 655 652
f 652 659 617
f 675 712 711
f 664 712 675
f 664 689 674
f 674 689 686
f 698 707 670
f 686 689 668
f 689 699 668
f 669 706 692
f 692 704 665
f 678 704 702
f 665 704 678
f 702 704 671
f 704 706 671
f 692 706 704
f 669 692 690
f 690 692 677
f 657 659 652
f 618 659 657
f 710 713 712
f 708 710 674
f 672 710 708
f 672 713 710
f 710 712 664
f 674 710 664
f 702 705 681
f 705 707 698
f 681 705 666
f 666 705 698
f 671 705 702
f 671 707 705
f 668 699 687
f 693 694 687
f 687 694 668
f 660 708 674
f 674 686 660
f 660 686 673
f 686 688 673
f 668 688 686
f 668 694 688
f 703 707 671
f 671 706 703
f 696 707 703
f 687 699 696
f 696 699 670
f 670 707 696
f 663 700 693
f 663 693 687
f 687 696 663
f 696 703 663
f 691 700 663
f 669 701 691
f 691 701 700
f 663 703 691
f 691 706 669
f 703 706 691
f 661 675 625
f 607 661 625
f 614 666 634
f 666 680 634
f 634 661 607
f 634 680 661
f 676 681 635
f 627 676 635
f 650 713 709
f 655 713 650
f 638 685 679
f 638 679 631
f 637 666 614
f 637 682 666
f 635 681 637
f 681 682 637
f 675 711 625
f 625 711 651
f 712 713 655
f 653 712 655
f 711 712 651
f 651 712 653
f 727 782 677
f 644 790 789
f 644 793 790
f 621 820 817
f 749 751 701
f 791 792 690
f 643 754 753
f 736 737 667
f 814 815 673
f 657 779 778
f 2 1 26
f 2 26 27
f 241 242 222
f 241 222 221
f 422 421 447
f 422 447 448
f 242 243 223
f 242 223 222
f 631 679 676
f 631 676 627
f 424 423 449
f 424 449 450
f 243 244 224
f 243 224 223
f 716 715 665
f 677 665 715
f 425 424 450
f 425 450 451
f 603 605 604
f 603 604 602
f 715 726 677
f 677 726 727
f 452 425 451
f 426 425 452
f 830 226 225
f 834 226 830
f 821 830 225
f 821 225 211
f 2 27 28
f 3 2 28
f 622 730 731
f 609 730 622
f 427 426 452
f 427 452 453
f 4 3 28
f 4 28 29
f 834 835 233
f 834 233 227
f 834 227 226
f 719 721 608
f 721 745 608
f 428 427 453
f 428 453 454
f 608 656 719
f 720 719 656
f 5 4 29
f 5 29 30
f 428 454 455
f 429 428 455
f 229 228 245
f 229 245 246
f 733 723 656
f 723 720 656
f 6 5 30
f 6 30 31
f 430 429 455
f 430 455 456
f 229 246 247
f 230 229 247
f 7 6 31
f 7 31 32
f 630 757 758
f 759 757 630
f 431 430 456
f 431 456 457
f 231 230 247
f 231 247 248
f 630 717 718
f 758 717 630
f 8 7 32
f 8 32 33
f 231 248 249
f 232 231 249
f 433 432 458
f 433 458 459
f 9 8 33
f 9 33 34
f 650 765 766
f 767 765 650
f 434 460 461
f 435 434 461
f 656 732 733
f 618 732 656
f 759 232 249
f 757 759 249
f 757 249 250
f 831 232 759
f 35 9 34
f 10 9 35
f 437 436 462
f 437 462 463
f 709 672 772
f 771 772 672
f 11 10 35
f 11 35 36
f 725 251 234
f 836 725 234
f 836 234 233
f 672 708 775
f 774 775 708
f 439 438 464
f 438 437 464
f 439 464 465
f 12 11 36
f 12 36 37
f 236 235 252
f 236 252 253
f 771 672 777
f 775 777 672
f 467 440 466
f 440 439 466
f 13 12 37
f 13 37 38
f 468 441 467
f 442 441 468
f 255 236 254
f 237 236 255
f 237 255 256
f 693 700 760
f 761 693 760
f 783 693 761
f 14 13 38
f 14 38 39
f 443 442 468
f 443 468 469
f 238 237 256
f 238 256 257
f 789 609 644
f 795 609 789
f 796 609 795
f 14 39 40
f 15 14 40
f 258 238 257
f 239 238 258
f 444 443 469
f 444 469 470
f 16 15 40
f 16 40 41
f 730 609 802
f 796 802 609
f 444 470 471
f 445 444 471
f 241 240 259
f 241 259 260
f 652 650 766
f 787 652 766
f 17 16 41
f 17 41 42
f 243 242 261
f 243 261 262
f 446 445 471
f 446 471 472
f 685 736 667
f 728 736 685
f 18 17 42
f 18 42 43
f 742 732 618
f 246 245 264
f 246 264 265
f 447 446 472
f 447 472 473
f 19 18 43
f 19 43 44
f 645 643 748
f 747 645 748
f 801 645 747
f 247 246 265
f 247 265 266
f 448 447 473
f 448 473 474
f 756 760 700
f 45 19 44
f 20 19 45
f 247 266 267
f 248 247 267
f 701 669 799
f 798 799 669
f 449 448 474
f 449 474 475
f 21 20 45
f 21 45 46
f 249 248 267
f 249 267 268
f 450 449 475
f 450 475 476
f 645 793 644
f 801 797 645
f 797 793 645
f 22 21 46
f 22 46 47
f 250 249 268
f 250 268 269
f 701 751 700
f 751 756 700
f 450 476 477
f 451 450 477
f 23 22 47
f 23 47 48
f 817 818 621
f 729 270 252
f 724 729 252
f 724 252 251
f 452 451 477
f 452 477 478
f 24 23 48
f 24 48 49
f 799 750 701
f 749 701 750
f 253 252 270
f 271 253 270
f 452 478 479
f 453 452 479
f 25 24 49
f 25 49 50
f 255 254 271
f 255 271 272
f 480 453 479
f 454 453 480
f 638 734 740
f 735 734 638
f 822 735 638
f 26 51 52
f 27 26 52
f 788 791 690
f 257 256 273
f 257 273 274
f 455 454 480
f 455 480 481
f 753 748 643
f 28 27 52
f 28 52 53
f 258 257 274
f 258 274 275
f 456 455 481
f 456 481 482
f 669 690 792
f 798 669 792
f 29 28 53
f 29 53 54
f 259 258 275
f 259 275 276
f 457 456 482
f 457 482 483
f 677 784 690
f 690 784 788
f 782 784 677
f 30 29 54
f 30 54 55
f 277 259 276
f 260 259 277
f 495 496 459
f 495 459 458
f 31 30 55
f 31 55 56
f 261 260 277
f 261 277 278
f 496 497 460
f 496 460 459
f 737 738 667
f 667 741 764
f 738 741 667
f 32 31 56
f 32 56 57
f 279 261 278
f 262 261 279
f 665 684 770
f 716 665 770
f 497 498 461
f 497 461 460
f 33 32 57
f 33 57 58
f 262 279 280
f 263 262 280
f 780 779 652
f 657 652 779
f 787 780 652
f 498 499 462
f 498 462 461
f 59 33 58
f 34 33 59
f 265 282 283
f 266 265 283
f 684 763 770
f 762 763 684
f 499 500 463
f 499 463 462
f 35 34 59
f 35 59 60
f 267 266 283
f 267 283 284
f 500 501 464
f 500 464 463
f 618 657 743
f 769 743 657
f 742 618 743
f 35 60 61
f 36 35 61
f 268 267 284
f 268 284 285
f 684 667 764
f 762 684 764
f 501 502 465
f 501 465 464
f 37 36 61
f 37 61 62
f 268 285 286
f 269 268 286
f 502 503 466
f 502 466 465
f 809 673 810
f 815 810 673
f 37 62 63
f 38 37 63
f 735 269 286
f 734 286 287
f 735 286 734
f 503 504 467
f 503 467 466
f 731 827 622
f 39 38 63
f 39 63 64
f 610 622 827
f 825 610 827
f 504 505 468
f 504 468 467
f 746 271 270
f 288 272 271
f 746 288 271
f 746 270 744
f 40 39 64
f 40 64 65
f 714 828 694
f 693 714 694
f 505 506 486
f 469 468 486
f 505 486 468
f 275 274 289
f 275 289 290
f 40 65 66
f 41 40 66
f 825 820 610
f 621 610 820
f 486 487 470
f 486 470 469
f 277 276 291
f 277 291 292
f 42 41 66
f 42 66 67
f 829 832 694
f 828 829 694
f 487 471 470
f 492 471 487
f 279 278 293
f 279 293 294
f 43 42 67
f 43 67 68
f 643 608 755
f 754 643 755
f 745 755 608
f 492 509 472
f 492 472 471
f 508 509 492
f 778 769 657
f 280 279 294
f 280 294 295
f 44 43 68
f 44 68 69
f 509 510 473
f 509 473 472
f 299 300 296
f 299 296 281
f 45 44 69
f 45 69 70
f 621 831 630
f 759 630 831
f 818 831 621
f 510 511 474
f 510 474 473
f 284 283 297
f 284 297 298
f 638 613 822
f 837 822 613
f 47 46 71
f 47 71 72
f 511 512 475
f 511 475 474
f 285 284 298
f 285 298 303
f 708 660 806
f 807 806 660
f 49 48 73
f 49 73 74
f 718 837 613
f 630 718 613
f 303 304 286
f 303 286 285
f 512 513 484
f 476 475 484
f 512 484 475
f 50 49 74
f 50 74 75
f 660 673 809
f 807 660 809
f 304 305 287
f 304 287 286
f 477 476 484
f 477 484 485
f 52 51 76
f 52 76 77
f 772 786 709
f 785 709 786
f 305 306 752
f 739 287 752
f 305 752 287
f 53 52 77
f 53 77 78
f 824 814 673
f 824 673 688
f 478 477 490
f 490 477 485
f 490 485 489
f 516 478 490
f 823 824 688
f 54 53 78
f 54 78 79
f 517 479 478
f 516 517 478
f 288 307 308
f 773 307 288
f 746 773 288
f 832 688 694
f 823 688 832
f 55 54 79
f 55 79 80
f 308 309 289
f 308 289 288
f 517 518 480
f 517 480 479
f 56 55 80
f 56 80 81
f 290 289 310
f 309 310 289
f 519 481 480
f 518 519 480
f 806 808 708
f 774 708 800
f 803 800 708
f 808 803 708
f 57 56 81
f 57 81 82
f 783 714 693
f 310 311 291
f 310 291 290
f 519 520 482
f 519 482 481
f 58 57 82
f 58 82 83
f 311 312 292
f 311 292 291
f 520 521 483
f 520 483 482
f 59 58 83
f 59 83 84
f 312 313 293
f 312 293 292
f 513 514 488
f 513 488 484
f 826 833 685
f 722 685 833
f 728 685 722
f 819 826 685
f 812 819 685
f 638 812 685
f 60 59 84
f 60 84 85
f 313 314 294
f 313 294 293
f 493 489 488
f 485 488 489
f 506 507 491
f 506 491 486
f 61 60 85
f 61 85 86
f 314 315 295
f 314 295 294
f 515 494 493
f 514 493 488
f 515 493 514
f 61 86 87
f 62 61 87
f 297 301 302
f 298 297 302
f 63 62 87
f 63 87 88
f 490 489 493
f 490 493 494
f 768 752 306
f 515 490 494
f 516 490 515
f 64 63 88
f 64 88 89
f 299 316 317
f 300 299 317
f 638 811 812
f 805 811 638
f 794 805 638
f 781 794 638
f 776 781 638
f 768 776 638
f 752 768 638
f 739 752 638
f 740 739 638
f 492 491 507
f 492 507 508
f 66 65 90
f 66 90 91
f 302 301 318
f 302 318 319
f 68 67 92
f 68 92 93
f 496 495 522
f 496 522 523
f 304 303 320
f 304 320 321
f 68 93 94
f 69 68 94
f 497 496 523
f 497 523 524
f 304 321 322
f 305 304 322
f 70 69 94
f 70 94 95
f 498 497 524
f 498 524 525
f 306 305 322
f 306 322 323
f 813 804 650
f 816 813 650
f 767 650 804
f 821 816 650
f 821 650 830
f 70 95 96
f 71 70 96
f 500 499 526
f 527 500 526
f 768 306 323
f 768 323 324
f 768 324 776
f 72 71 96
f 72 96 97
f 502 501 527
f 502 527 528
f 310 309 326
f 310 326 327
f 73 72 97
f 73 97 98
f 504 503 529
f 504 529 530
f 312 311 328
f 312 328 329
f 74 73 98
f 74 98 99
f 505 504 530
f 505 530 531
f 314 313 330
f 314 330 331
f 75 74 99
f 75 99 100
f 507 506 532
f 507 532 533
f 315 314 331
f 315 331 332
f 785 773 709
f 746 709 773
f 744 709 746
f 729 709 744
f 724 709 729
f 725 709 724
f 725 836 709
f 836 835 709
f 835 650 709
f 834 650 835
f 830 650 834
f 77 76 101
f 77 101 102
f 509 508 534
f 509 534 535
f 317 316 333
f 317 333 334
f 78 77 102
f 78 102 103
f 510 536 537
f 511 510 537
f 317 334 335
f 318 317 335
f 79 78 103
f 79 103 104
f 512 511 537
f 512 537 538
f 319 318 335
f 319 335 336
f 80 79 104
f 80 104 105
f 539 512 538
f 513 512 539
f 320 319 336
f 320 336 337
f 515 514 540
f 541 515 540
f 81 80 105
f 81 105 106
f 320 337 338
f 321 320 338
f 543 517 542
f 518 517 543
f 82 81 106
f 82 106 107
f 322 321 338
f 322 338 339
f 519 518 543
f 519 543 544
f 83 82 107
f 83 107 108
f 323 322 339
f 323 339 340
f 520 519 544
f 520 544 545
f 84 83 108
f 84 108 109
f 324 323 340
f 324 340 341
f 521 520 545
f 521 545 546
f 85 84 109
f 85 109 110
f 551 552 523
f 551 523 522
f 781 324 341
f 794 781 341
f 85 110 111
f 86 85 111
f 552 553 524
f 552 524 523
f 87 86 111
f 87 111 112
f 327 326 342
f 327 342 343
f 553 554 525
f 553 525 524
f 88 87 112
f 88 112 113
f 328 327 343
f 328 343 344
f 554 555 526
f 554 526 525
f 89 88 113
f 89 113 114
f 329 328 344
f 329 344 345
f 89 114 115
f 90 89 115
f 329 345 346
f 330 329 346
f 556 557 527
f 557 528 527
f 556 527 526
f 555 556 526
f 91 90 115
f 91 115 116
f 331 330 346
f 331 346 347
f 558 559 529
f 559 530 529
f 557 558 529
f 557 529 528
f 92 91 116
f 92 116 117
f 331 347 348
f 332 331 348
f 559 560 531
f 559 531 530
f 118 92 117
f 93 92 118
f 334 333 349
f 334 349 350
f 560 561 532
f 560 532 531
f 94 93 118
f 94 118 119
f 335 334 350
f 335 350 351
f 562 533 532
f 561 562 532
f 120 94 119
f 95 94 120
f 335 351 352
f 336 335 352
f 562 563 534
f 562 534 533
f 96 95 120
f 96 120 121
f 337 336 352
f 337 352 353
f 563 564 535
f 563 535 534
f 97 96 121
f 97 121 122
f 564 565 547
f 564 547 535
f 338 337 353
f 338 353 354
f 98 97 122
f 98 122 123
f 536 547 548
f 549 548 547
f 338 354 355
f 339 338 355
f 99 98 123
f 99 123 124
f 538 537 548
f 538 548 550
f 340 339 355
f 340 355 356
f 100 99 124
f 100 124 125
f 550 568 539
f 550 539 538
f 567 568 550
f 341 340 356
f 341 356 357
f 102 101 126
f 102 126 127
f 569 540 539
f 568 569 539
f 794 341 357
f 794 357 805
f 103 102 127
f 103 127 128
f 569 570 541
f 569 541 540
f 359 342 358
f 343 342 359
f 104 103 128
f 104 128 129
f 570 571 542
f 570 542 541
f 345 344 360
f 345 360 361
f 105 104 129
f 105 129 130
f 571 572 543
f 571 543 542
f 106 105 130
f 106 130 131
f 346 345 361
f 346 361 362
f 572 573 544
f 572 544 543
f 107 106 131
f 107 131 132
f 363 346 362
f 347 346 363
f 573 574 545
f 573 545 544
f 108 107 132
f 108 132 133
f 348 347 363
f 348 363 364
f 574 575 546
f 574 546 545
f 109 108 133
f 109 133 134
f 565 566 549
f 565 549 547
f 367 368 350
f 367 350 349
f 135 109 134
f 110 109 135
f 566 567 550
f 566 550 549
f 368 369 351
f 368 351 350
f 111 110 135
f 111 135 136
f 552 551 576
f 552 576 577
f 369 370 352
f 369 352 351
f 112 111 136
f 112 136 137
f 554 553 578
f 554 578 579
f 371 353 352
f 370 371 352
f 113 112 137
f 113 137 161
f 556 555 580
f 556 580 581
f 371 372 354
f 371 354 353
f 161 183 138
f 114 113 138
f 161 138 113
f 182 183 161
f 557 556 582
f 557 582 583
f 372 373 355
f 372 355 354
f 115 114 138
f 115 138 139
f 560 559 585
f 560 585 586
f 373 374 356
f 373 356 355
f 115 139 140
f 116 115 140
f 561 587 588
f 562 561 588
f 375 376 357
f 375 357 356
f 374 375 356
f 117 116 140
f 117 140 141
f 563 562 588
f 563 588 589
f 142 117 141
f 118 117 142
f 166 143 142
f 118 142 143
f 564 563 589
f 564 589 590
f 365 811 805
f 365 805 357
f 376 377 365
f 376 365 357
f 119 118 143
f 119 143 144
f 565 564 590
f 565 590 591
f 382 383 359
f 382 359 358
f 120 119 144
f 120 144 145
f 565 591 592
f 566 565 592
f 383 384 360
f 383 360 359
f 121 120 145
f 121 145 146
f 567 566 592
f 567 592 593
f 384 385 361
f 384 361 360
f 122 121 146
f 122 146 147
f 594 567 593
f 568 567 594
f 386 362 361
f 385 386 361
f 123 122 147
f 123 147 171
f 569 568 594
f 569 594 595
f 386 387 363
f 386 363 362
f 171 193 148
f 124 123 148
f 171 148 123
f 192 193 171
f 570 569 595
f 570 595 596
f 388 364 363
f 387 388 363
f 125 124 148
f 125 148 149
f 571 570 596
f 571 596 597
f 127 126 150
f 127 150 151
f 365 366 819
f 365 819 812
f 365 812 811
f 572 571 597
f 572 597 598
f 128 127 151
f 128 151 152
f 826 366 379
f 819 366 826
f 573 572 598
f 573 598 599
f 129 128 152
f 129 152 153
f 574 573 599
f 574 599 600
f 833 379 380
f 826 379 833
f 130 129 153
f 130 153 154
f 575 574 600
f 575 600 601
f 131 130 154
f 131 154 155
f 131 155 156
f 132 131 156
f 829 381 382
f 832 829 382
f 823 832 382
f 824 823 382
f 358 814 824
f 358 815 814
f 358 824 382
f 810 815 358
f 133 132 156
f 133 156 157
f 368 367 389
f 368 389 390
f 721 719 133
f 721 133 157
f 134 133 719
f 134 719 720
f 723 134 720
f 369 391 392
f 370 369 392
f 372 371 393
f 372 393 394
f 742 743 135
f 135 743 158
f 134 742 135
f 732 742 134
f 733 732 134
f 723 733 134
f 373 395 396
f 374 373 396
f 183 184 162
f 183 162 138
f 377 376 398
f 377 398 399
f 26 1 602
f 51 26 602
f 76 51 602
f 101 76 602
f 126 101 602
f 150 126 602
f 173 150 602
f 206 173 602
f 228 206 602
f 245 228 602
f 264 245 602
f 281 264 602
f 299 281 602
f 604 316 299
f 604 333 316
f 604 349 333
f 604 367 349
f 604 389 367
f 604 432 389
f 604 458 432
f 604 495 458
f 604 522 495
f 604 551 522
f 604 299 602
f 576 551 604
f 140 139 162
f 140 162 163
f 378 377 399
f 378 399 400
f 140 163 164
f 141 140 164
f 379 378 400
f 379 400 401
f 165 141 164
f 142 141 165
f 142 165 166
f 187 166 165
f 143 166 167
f 188 167 166
f 736 728 402
f 722 380 402
f 728 722 402
f 736 402 403
f 737 736 403
f 738 737 403
f 145 144 167
f 145 167 168
f 381 404 405
f 382 381 405
f 146 145 168
f 146 168 169
f 383 382 405
f 383 405 406
f 147 146 169
f 147 169 170
f 383 406 407
f 384 383 407
f 193 194 172
f 193 172 148
f 577 576 604
f 578 577 604
f 579 578 604
f 580 579 604
f 581 580 604
f 582 581 604
f 583 582 604
f 584 583 604
f 585 584 604
f 586 585 604
f 587 586 604
f 588 587 604
f 589 588 604
f 590 589 604
f 591 590 604
f 592 591 604
f 593 592 604
f 594 593 604
f 605 595 594
f 605 596 595
f 605 597 596
f 605 598 597
f 605 599 598
f 605 600 599
f 605 594 604
f 601 600 605
f 408 384 407
f 385 384 408
f 151 150 173
f 151 173 174
f 386 385 408
f 386 408 409
f 152 151 174
f 152 174 175
f 410 386 409
f 387 386 410
f 153 152 175
f 153 175 176
f 433 390 389
f 432 433 389
f 154 153 176
f 154 176 177
f 433 434 391
f 433 391 390
f 155 154 177
f 155 177 178
f 413 392 391
f 434 435 413
f 434 413 391
f 156 155 178
f 156 178 179
f 414 393 392
f 413 414 392
f 160 181 182
f 161 160 182
f 414 415 394
f 414 394 393
f 163 162 184
f 163 184 185
f 438 395 415
f 415 395 394
f 164 163 185
f 164 185 186
f 416 396 395
f 438 439 416
f 438 416 395
f 575 601 605
f 546 575 605
f 521 546 605
f 483 521 605
f 457 483 605
f 431 457 605
f 412 431 605
f 411 412 605
f 388 411 605
f 364 388 605
f 348 364 605
f 332 348 605
f 315 332 605
f 295 315 605
f 603 280 295
f 603 263 280
f 603 244 263
f 603 224 244
f 603 205 224
f 603 194 205
f 603 172 194
f 603 149 172
f 603 125 149
f 603 100 125
f 603 75 100
f 603 50 75
f 603 295 605
f 25 50 603
f 165 164 186
f 187 165 186
f 416 417 397
f 416 397 396
f 168 167 188
f 168 188 189
f 417 398 397
f 441 398 417
f 169 168 189
f 169 189 190
f 418 399 398
f 441 442 418
f 441 418 398
f 170 169 190
f 170 190 191
f 419 400 399
f 418 419 399
f 171 170 191
f 171 191 192
f 419 401 400
f 444 401 419
f 206 207 174
f 206 174 173
f 444 445 402
f 444 402 401
f 175 174 208
f 207 208 174
f 420 403 402
f 445 446 420
f 445 420 402
f 208 209 176
f 208 176 175
f 209 210 177
f 209 177 176
f 762 764 403
f 420 763 762
f 420 421 763
f 741 403 764
f 420 762 403
f 24 25 603
f 23 24 603
f 22 23 603
f 21 22 603
f 20 21 603
f 19 20 603
f 18 19 603
f 602 17 18
f 602 16 17
f 602 15 16
f 602 14 15
f 602 13 14
f 602 12 13
f 602 11 12
f 602 10 11
f 602 9 10
f 602 8 9
f 602 7 8
f 602 6 7
f 602 5 6
f 602 4 5
f 602 3 4
f 602 2 3
f 602 18 603
f 1 2 602
f 210 796 795
f 178 177 795
f 210 795 177
f 802 796 210
f 804 195 181
f 813 195 804
f 804 181 180
f 183 182 196
f 183 196 197
f 424 404 750
f 799 424 750
f 423 791 788
f 423 792 791
f 423 798 792
f 423 424 798
f 799 798 424
f 423 788 784
f 828 714 381
f 783 381 714
f 761 381 783
f 829 828 381
f 185 184 198
f 185 198 215
f 214 215 198
f 424 425 405
f 424 405 404
f 215 216 186
f 215 186 185
f 426 406 405
f 425 426 405
f 269 718 250
f 717 250 718
f 837 718 269
f 822 837 269
f 735 822 269
f 216 217 199
f 187 186 199
f 216 199 186
f 426 427 407
f 426 407 406
f 189 188 200
f 189 200 201
f 287 739 740
f 734 287 740
f 427 428 408
f 427 408 407
f 189 201 202
f 220 202 201
f 428 429 409
f 428 409 408
f 191 190 202
f 191 202 203
f 156 179 748
f 747 748 179
f 753 156 748
f 157 156 753
f 754 157 753
f 755 157 754
f 192 191 203
f 192 203 222
f 429 430 410
f 429 410 409
f 430 431 412
f 430 412 410
f 222 223 204
f 193 192 204
f 222 204 192
f 197 196 212
f 197 212 213
f 404 756 751
f 404 751 749
f 404 749 750
f 760 756 404
f 381 760 404
f 761 760 381
f 201 200 218
f 201 218 219
f 421 422 715
f 421 715 716
f 421 716 770
f 726 715 422
f 421 770 763
f 745 157 755
f 721 157 745
f 203 202 220
f 203 220 221
f 229 207 206
f 228 229 206
f 422 423 782
f 422 782 727
f 784 782 423
f 422 727 726
f 158 743 769
f 158 769 778
f 779 158 778
f 780 158 779
f 229 230 208
f 229 208 207
f 414 436 437
f 415 414 437
f 438 415 437
f 417 416 440
f 441 417 440
f 230 231 209
f 230 209 208
f 307 773 785
f 786 307 785
f 231 232 210
f 231 210 209
f 180 158 766
f 787 766 158
f 765 180 766
f 780 787 158
f 213 212 225
f 213 225 226
f 215 214 227
f 234 215 227
f 233 234 227
f 771 307 772
f 786 772 307
f 325 307 771
f 777 325 771
f 234 235 216
f 234 216 215
f 236 237 217
f 236 217 216
f 235 236 216
f 789 790 178
f 795 789 178
f 793 178 790
f 797 178 793
f 179 178 797
f 237 238 218
f 237 218 217
f 238 239 219
f 238 219 218
f 775 325 777
f 774 325 775
f 800 325 774
f 240 220 219
f 239 240 219
f 240 241 221
f 240 221 220
f 179 797 801
f 747 179 801
f 342 325 800
f 803 342 800
f 180 765 767
f 804 180 767
f 806 358 808
f 807 358 806
f 809 358 807
f 810 358 809
f 358 342 808
f 803 808 342
f 211 195 813
f 816 211 813
f 825 827 210
f 731 210 827
f 730 210 731
f 802 210 730
f 232 820 825
f 232 817 820
f 232 825 210
f 818 817 232
f 831 818 232
f 250 717 758
f 757 250 758
