v -1.3680117784833934 -1.595455565846428 0.45000000000000001
v -0.6319882215166065 -1.595455565846428 0.45000000000000001
v -1 -1.3680117784833934 1.045455565846428
v -1 -1.3680117784833934 -0.14545556584642799
v -1.595455565846428 -1 0.081988221516606508
v -1.595455565846428 -1 0.81801177848339357
v -1 -1.7 0.45000000000000001
v -1.2163118960624633 -1.5663118960624631 0.80000000000000004
v -0.78368810393753674 -1.5663118960624631 0.80000000000000004
v -1 -1 1.1499999999999999
v -1.2163118960624633 -1.5663118960624631 0.099999999999999978
v -0.78368810393753674 -1.5663118960624631 0.099999999999999978
v -1 -1 -0.24999999999999994
v -1.5663118960624631 -0.64999999999999991 0.23368810393753681
v -1.5663118960624631 -1.3500000000000001 0.23368810393753681
v -1.3500000000000001 -1.2163118960624633 -0.11631189606246312
v -1.3500000000000001 -0.78368810393753674 -0.11631189606246312
v -1.5663118960624631 -0.64999999999999991 0.66631189606246322
v -1.5663118960624631 -1.3500000000000001 0.66631189606246322
v -1.3500000000000001 -1.2163118960624633 1.0163118960624631
v -1.3500000000000001 -0.78368810393753674 1.0163118960624631
v -1.7 -1 0.45000000000000001
v -1.1912865702388702 -1.6733568504487422 0.45000000000000001
v -0.80871342976112981 -1.6733568504487422 0.45000000000000001
v -1.3037219951868864 -1.6038679362913304 0.63192433910542811
v -1.1124354249480162 -1.4856463342923145 0.94143251134331418
v -1.1137218936815172 -1.6657395614066075 0.63400588924169676
v -0.69627800481311364 -1.6038679362913304 0.63192433910542811
v -0.88756457505198383 -1.4856463342923145 0.94143251134331418
v -0.88627810631848281 -1.6657395614066075 0.63400588924169676
v -1 -1.595455565846428 0.81801177848339357
v -1 -1.1912865702388702 1.1233568504487423
v -1.3037219951868864 -1.6038679362913304 0.26807566089457197
v -1.1124354249480162 -1.4856463342923145 -0.041432511343314105
v -1.1137218936815172 -1.6657395614066075 0.26599411075830326
v -0.69627800481311364 -1.6038679362913304 0.26807566089457197
v -0.88756457505198383 -1.4856463342923145 -0.041432511343314105
v -0.88627810631848281 -1.6657395614066075 0.26599411075830326
v -1 -1.595455565846428 0.081988221516606452
v -1 -1.1912865702388702 -0.22335685044874226
v -0.51435366570768548 -1.4914325113433142 0.33756457505198378
v -0.58855032339526869 -1.4817336721649106 0.15227221707678601
v -0.81807566089457184 -1.3037219951868864 -0.15386793629133028
v -0.702272217076786 -1.4114496766047311 -0.031733672164910687
v -0.81599411075830319 -1.1137218936815172 -0.21573956140660749
v -0.51435366570768548 -1.4914325113433142 0.56243542494801624
v -0.58855032339526869 -1.4817336721649106 0.74772778292321407
v -0.81807566089457184 -1.3037219951868864 1.0538679362913304
v -0.702272217076786 -1.4114496766047311 0.93173367216491076
v -1.4856463342923145 -0.50856748865668577 0.33756457505198378
v -1.6038679362913304 -0.81807566089457184 0.14627800481311365
v -1.4114496766047313 -0.5182663278350893 0.15227221707678601
v -1.4856463342923145 -1.4914325113433142 0.33756457505198378
v -1.6038679362913304 -1.1819243391054282 0.14627800481311365
v -1.4114496766047313 -1.4817336721649106 0.15227221707678601
v -1.1819243391054282 -1.3037219951868864 -0.15386793629133028
v -1.491432511343314 -1.1124354249480162 -0.035646334292314341
v -1.2977277829232139 -1.4114496766047311 -0.031733672164910687
v -1.1840058892416967 -1.1137218936815172 -0.21573956140660749
v -1.4817336721649106 -1.2977277829232139 0.038550323395268815
v -1.491432511343314 -0.88756457505198383 -0.035646334292314341
v -1.2977277829232139 -0.5885503233952688 -0.031733672164910687
v -1.1840058892416967 -0.88627810631848281 -0.21573956140660749
v -1.4817336721649106 -0.702272217076786 0.038550323395268815
v -1.3680117784833936 -1 -0.14545556584642788
v -1.4856463342923145 -0.50856748865668577 0.56243542494801624
v -1.6038679362913304 -0.81807566089457184 0.75372199518688632
v -1.4114496766047313 -0.5182663278350893 0.74772778292321407
v -1.5954555658464278 -0.63198822151660639 0.45000000000000001
v -1.4856463342923145 -1.4914325113433142 0.56243542494801624
v -1.6038679362913304 -1.1819243391054282 0.75372199518688632
v -1.4114496766047313 -1.4817336721649106 0.74772778292321407
v -1.5954555658464278 -1.3680117784833936 0.45000000000000001
v -1.1819243391054282 -1.3037219951868864 1.0538679362913304
v -1.491432511343314 -1.1124354249480162 0.93564633429231436
v -1.2977277829232139 -1.4114496766047311 0.93173367216491076
v -1.1840058892416967 -1.1137218936815172 1.1157395614066075
v -1.4817336721649106 -1.2977277829232139 0.86144967660473126
v -1.491432511343314 -0.88756457505198383 0.93564633429231436
v -1.1840058892416967 -0.88627810631848281 1.1157395614066075
v -1.4817336721649106 -0.702272217076786 0.86144967660473126
v -1.3680117784833936 -1 1.045455565846428
v -1.6733568504487422 -1 0.25871342976112982
v -1.6733568504487422 -1 0.64128657023887015
v -1.6657395614066075 -0.81599411075830319 0.33627810631848276
v -1.6657395614066075 -1.1840058892416967 0.33627810631848276
v -1.6657395614066075 -0.81599411075830319 0.56372189368151726
v -1.6657395614066075 -1.1840058892416967 0.56372189368151726
v -1.282348744032155 -1.6405303948630889 0.45000000000000001
v -1.0965665694893436 -1.6933072173698034 0.45000000000000001
v -0.71765125596784496 -1.6405303948630889 0.45000000000000001
v -0.90343343051065639 -1.6933072173698034 0.45000000000000001
v -1.3391091494424674 -1.6054505351042923 0.54184026516910899
v -1.2625269972347468 -1.5907380322356732 0.71852961287953343
v -1.2507601554406054 -1.6470132204279422 0.54215875994644525
v -1.0567604054103124 -1.4309494146115764 0.99869012969397986
v -1.1659604277454032 -1.53105661011428 0.87477760449026998
v -1.0575697256955536 -1.6913818384165964 0.54314977289841393
v -1.1670738512237153 -1.6237045669318575 0.72033116991131441
v -1.1540819192313048 -1.6764748181817073 0.54295473377953174
v -1.2108812153652624 -1.6413709226338509 0.63485792546134578
v -0.66089085055753249 -1.6054505351042923 0.54184026516910899
v -0.73747300276525318 -1.5907380322356732 0.71852961287953343
v -0.74923984455939474 -1.6470132204279422 0.54215875994644525
v -0.94323959458968754 -1.4309494146115764 0.99869012969397986
v -0.83403957225459679 -1.53105661011428 0.87477760449026998
v -1 -1.4920349213414412 0.94789721447355135
v -0.94243027430444637 -1.6913818384165964 0.54314977289841393
v -0.83292614877628479 -1.6237045669318575 0.72033116991131441
v -0.84591808076869535 -1.6764748181817073 0.54295473377953174
v -1 -1.6747028844273357 0.63648329079419719
v -0.78911878463473761 -1.6413709226338509 0.63485792546134578
v -1.1095041255281617 -1.5881245197289973 0.81348094280972838
v -0.89049587447183842 -1.5881245197289973 0.81348094280972838
v -1.0567992961339576 -1.5461430594970886 0.8841677078294129
v -1.0576265060223722 -1.6390877450526093 0.72972493619129586
v -0.94320070386604227 -1.5461430594970886 0.8841677078294129
v -0.94237349397762793 -1.6390877450526093 0.72972493619129586
v -1 -1.282348744032155 1.0905303948630889
v -1 -1.0965665694893436 1.1433072173698033
v -1.3391091494424674 -1.6054505351042923 0.35815973483089103
v -1.2625269972347468 -1.5907380322356732 0.18147038712046659
v -1.2507601554406054 -1.6470132204279422 0.35784124005355478
v -1.0567604054103124 -1.4309494146115764 -0.098690129693979889
v -1.1659604277454032 -1.53105661011428 0.0252223955097301
v -1.0575697256955536 -1.6913818384165964 0.35685022710158609
v -1.1670738512237153 -1.6237045669318575 0.17966883008868556
v -1.1540819192313048 -1.6764748181817073 0.35704526622046828
v -1.2108812153652624 -1.6413709226338509 0.26514207453865418
v -0.66089085055753249 -1.6054505351042923 0.35815973483089103
v -0.73747300276525318 -1.5907380322356732 0.18147038712046659
v -0.74923984455939474 -1.6470132204279422 0.35784124005355478
v -0.94323959458968754 -1.4309494146115764 -0.098690129693979889
v -0.83403957225459679 -1.53105661011428 0.0252223955097301
v -1 -1.4920349213414412 -0.047897214473551331
v -0.94243027430444637 -1.6913818384165964 0.35685022710158609
v -0.83292614877628479 -1.6237045669318575 0.17966883008868556
v -0.84591808076869535 -1.6764748181817073 0.35704526622046828
v -1 -1.6747028844273357 0.26351670920580283
v -0.78911878463473761 -1.6413709226338509 0.26514207453865418
v -1.1095041255281617 -1.5881245197289973 0.086519057190271642
v -0.89049587447183842 -1.5881245197289973 0.086519057190271642
v -1.0567992961339576 -1.5461430594970886 0.015832292170587126
v -1.0576265060223722 -1.6390877450526093 0.17027506380870422
v -0.94320070386604227 -1.5461430594970886 0.015832292170587126
v -0.94237349397762793 -1.6390877450526093 0.17027506380870422
v -1 -1.282348744032155 -0.19053039486308881
v -1 -1.0965665694893436 -0.24330721736980326
v -1 -0.90343343051065639 -0.24330721736980326
v -0.56905058538842357 -1.5486901296939799 0.39323959458968755
v -0.60012383860500396 -1.5548544604814971 0.30088399404560917
v -0.68220665018231719 -1.5305547940334434 0.12209910439313199
v -0.50502525316941682 -1.4210506685052819 0.18977637587787088
v -0.63871486596425731 -1.5484161888543193 0.20769288964770558
v -0.54681167428244315 -1.4916168927203617 0.24279678519556194
v -0.90815973483089096 -1.3391091494424674 -0.15545053510429235
v -0.73147038712046653 -1.2625269972347468 -0.14073803223567299
v -0.85088399404560922 -1.3998761613949959 -0.10485446048149688
v -0.90784124005355471 -1.2507601554406054 -0.19701322042794217
v -0.73977637587787082 -1.4949747468305832 0.028949331494718011
v -0.67209910439313192 -1.3177933498176828 -0.080554794033443511
v -0.79279678519556196 -1.4531883257175569 -0.041616892720361454
v -0.64063719113868645 -1.4526044542584122 0.055022051763959967
v -0.75769288964770554 -1.3612851340357428 -0.098416188854319187
v -0.90685022710158603 -1.0575697256955536 -0.24138183841659638
v -0.72966883008868555 -1.1670738512237153 -0.17370456693185748
v -0.90704526622046833 -1.1540819192313048 -0.22647481818170728
v -0.81514207453865406 -1.2108812153652624 -0.19137092263385097
v -0.54739554574158789 -1.39497794823604 0.090637191138686513
v -0.60502205176395996 -1.3593628088613134 -0.0026044542584121033
v -0.56905058538842357 -1.5486901296939799 0.50676040541031253
v -0.60012383860500396 -1.5548544604814971 0.59911600595439085
v -0.50796507865855878 -1.4978972144735514 0.45000000000000001
v -0.68220665018231719 -1.5305547940334434 0.77790089560686804
v -0.63871486596425731 -1.5484161888543193 0.69230711035229442
v -0.54681167428244315 -1.4916168927203617 0.65720321480443811
v -0.90815973483089096 -1.3391091494424674 1.0554505351042924
v -0.73147038712046653 -1.2625269972347468 1.040738032235673
v -0.85088399404560922 -1.3998761613949959 1.0048544604814968
v -0.90784124005355471 -1.2507601554406054 1.0970132204279421
v -0.73977637587787082 -1.4949747468305832 0.87105066850528201
v -0.67209910439313192 -1.3177933498176828 0.98055479403344359
v -0.79279678519556196 -1.4531883257175569 0.94161689272036142
v -0.64063719113868645 -1.4526044542584122 0.84497794823604
v -0.75769288964770554 -1.3612851340357428 0.99841618885431926
v -0.90685022710158603 -1.0575697256955536 1.1413818384165964
v -0.90704526622046833 -1.1540819192313048 1.1264748181817072
v -0.81514207453865406 -1.2108812153652624 1.091370922633851
v -0.54739554574158789 -1.39497794823604 0.80936280886131351
v -0.60502205176395996 -1.3593628088613134 0.90260445425841218
v -1.53105661011428 -0.57522239550973009 0.28403957225459686
v -1.6054505351042923 -0.90815973483089096 0.11089085055753251
v -1.590738032235673 -0.73147038712046653 0.18747300276525325
v -1.4949747468305832 -0.57894933149471806 0.18977637587787088
v -1.4531883257175569 -0.50838310727963842 0.24279678519556194
v -1.4309494146115764 -1.5486901296939799 0.39323959458968755
v -1.53105661011428 -1.42477760449027 0.28403957225459686
v -1.3998761613949959 -1.5548544604814971 0.30088399404560917
v -1.6054505351042923 -1.091840265169109 0.11089085055753251
v -1.590738032235673 -1.2685296128795334 0.18747300276525325
v -1.3177933498176828 -1.5305547940334434 0.12209910439313199
v -1.4949747468305832 -1.4210506685052819 0.18977637587787088
v -1.3612851340357426 -1.5484161888543193 0.20769288964770558
v -1.4531883257175569 -1.4916168927203617 0.24279678519556194
v -1.091840265169109 -1.3391091494424674 -0.15545053510429235
v -1.2685296128795334 -1.2625269972347468 -0.14073803223567299
v -1.1491160059543908 -1.3998761613949959 -0.10485446048149688
v -1.0921587599464453 -1.2507601554406054 -0.19701322042794217
v -1.5486901296939799 -1.0567604054103126 0.019050585388423635
v -1.42477760449027 -1.1659604277454032 -0.081056610114280059
v -1.5548544604814971 -1.1491160059543908 0.050123838605003967
v -1.2602236241221292 -1.4949747468305832 0.028949331494718011
v -1.3279008956068681 -1.3177933498176828 -0.080554794033443511
v -1.207203214804438 -1.4531883257175569 -0.041616892720361454
v -1.3593628088613134 -1.4526044542584122 0.055022051763959967
v -1.2423071103522945 -1.3612851340357428 -0.098416188854319187
v -1.0931497728984139 -1.0575697256955536 -0.24138183841659638
v -1.2703311699113145 -1.1670738512237153 -0.17370456693185748
v -1.0929547337795318 -1.1540819192313048 -0.22647481818170728
v -1.1848579254613458 -1.2108812153652624 -0.19137092263385097
v -1.5305547940334434 -1.3279008956068681 0.13220665018231725
v -1.4210506685052819 -1.2602236241221292 -0.044974746830583168
v -1.5484161888543193 -1.2423071103522945 0.088714865964257261
v -1.4526044542584122 -1.39497794823604 0.090637191138686513
v -1.4916168927203615 -1.207203214804438 -0.0031883257175567281
v -1.39497794823604 -1.3593628088613134 -0.0026044542584121033
v -1.2685296128795334 -0.73747300276525318 -0.14073803223567299
v -1.5486901296939799 -0.94323959458968754 0.019050585388423635
v -1.42477760449027 -0.83403957225459679 -0.081056610114280059
v -1.5548544604814971 -0.85088399404560922 0.050123838605003967
v -1.4978972144735514 -1 -0.042034921341441212
v -1.3279008956068681 -0.68220665018231719 -0.080554794033443511
v -1.3593628088613134 -0.54739554574158789 0.055022051763959967
v -1.0931497728984139 -0.94243027430444637 -0.24138183841659638
v -1.2703311699113145 -0.83292614877628479 -0.17370456693185748
v -1.0929547337795318 -0.84591808076869535 -0.22647481818170728
v -1.1864832907941971 -1 -0.22470288442733571
v -1.1848579254613458 -0.7891187846347375 -0.19137092263385097
v -1.5305547940334434 -0.67209910439313192 0.13220665018231725
v -1.4210506685052819 -0.73977637587787082 -0.044974746830583168
v -1.5484161888543193 -0.75769288964770554 0.088714865964257261
v -1.4526044542584122 -0.60502205176395996 0.090637191138686513
v -1.4916168927203615 -0.79279678519556196 -0.0031883257175567281
v -1.39497794823604 -0.64063719113868656 -0.0026044542584121033
v -1.3634809428097285 -1.1095041255281617 -0.13812451972899714
v -1.3634809428097285 -0.89049587447183842 -0.13812451972899714
v -1.4341677078294128 -1.0567992961339578 -0.096143059497088623
v -1.2797249361912959 -1.0576265060223722 -0.18908774505260934
v -1.4341677078294128 -0.94320070386604227 -0.096143059497088623
v -1.2797249361912959 -0.94237349397762793 -0.18908774505260934
v -1.53105661011428 -0.57522239550973009 0.61596042774540316
v -1.4920349213414412 -0.5021027855264486 0.45000000000000001
v -1.6054505351042923 -0.90815973483089096 0.78910914944246757
v -1.590738032235673 -0.73147038712046653 0.71252699723474677
v -1.4949747468305832 -0.57894933149471806 0.71022362412212914
v -1.4531883257175569 -0.50838310727963842 0.65720321480443811
v -1.5881245197289973 -0.63651905719027146 0.34049587447183838
v -1.5881245197289973 -0.63651905719027146 0.55950412552816164
v -1.5461430594970886 -0.56583229217058717 0.39320070386604228
v -1.5461430594970886 -0.56583229217058717 0.5067992961339578
v -1.4309494146115764 -1.5486901296939799 0.50676040541031253
v -1.53105661011428 -1.42477760449027 0.61596042774540316
v -1.3998761613949959 -1.5548544604814971 0.59911600595439085
v -1.4920349213414412 -1.4978972144735514 0.45000000000000001
v -1.6054505351042923 -1.091840265169109 0.78910914944246757
v -1.590738032235673 -1.2685296128795334 0.71252699723474677
v -1.3177933498176828 -1.5305547940334434 0.77790089560686804
v -1.4949747468305832 -1.4210506685052819 0.71022362412212914
v -1.3612851340357426 -1.5484161888543193 0.69230711035229442
v -1.4531883257175569 -1.4916168927203617 0.65720321480443811
v -1.5881245197289973 -1.3634809428097285 0.34049587447183838
v -1.5881245197289973 -1.3634809428097285 0.55950412552816164
v -1.5461430594970886 -1.4341677078294128 0.39320070386604228
v -1.5461430594970886 -1.4341677078294128 0.5067992961339578
v -1.091840265169109 -1.3391091494424674 1.0554505351042924
v -1.2685296128795334 -1.2625269972347468 1.040738032235673
v -1.1491160059543908 -1.3998761613949959 1.0048544604814968
v -1.0921587599464453 -1.2507601554406054 1.0970132204279421
v -1.5486901296939799 -1.0567604054103126 0.88094941461157639
v -1.42477760449027 -1.1659604277454032 0.98105661011428014
v -1.5548544604814971 -1.1491160059543908 0.84987616139499611
v -1.2602236241221292 -1.4949747468305832 0.87105066850528201
v -1.3279008956068681 -1.3177933498176828 0.98055479403344359
v -1.207203214804438 -1.4531883257175569 0.94161689272036142
v -1.3593628088613134 -1.4526044542584122 0.84497794823604
v -1.2423071103522945 -1.3612851340357428 0.99841618885431926
v -1.0931497728984139 -1.0575697256955536 1.1413818384165964
v -1.2703311699113145 -1.1670738512237153 1.0737045669318575
v -1.0929547337795318 -1.1540819192313048 1.1264748181817072
v -1.1848579254613458 -1.2108812153652624 1.091370922633851
v -1.5305547940334434 -1.3279008956068681 0.76779334981768277
v -1.4210506685052819 -1.2602236241221292 0.94497474683058313
v -1.5484161888543193 -1.2423071103522945 0.81128513403574276
v -1.4526044542584122 -1.39497794823604 0.80936280886131351
v -1.4916168927203615 -1.207203214804438 0.90318832571755681
v -1.39497794823604 -1.3593628088613134 0.90260445425841218
v -1.2685296128795334 -0.73747300276525318 1.040738032235673
v -1.5486901296939799 -0.94323959458968754 0.88094941461157639
v -1.42477760449027 -0.83403957225459679 0.98105661011428014
v -1.5548544604814971 -0.85088399404560922 0.84987616139499611
v -1.4978972144735514 -1 0.94203492134144118
v -1.3279008956068681 -0.68220665018231719 0.98055479403344359
v -1.0931497728984139 -0.94243027430444637 1.1413818384165964
v -1.2703311699113145 -0.83292614877628479 1.0737045669318575
v -1.1864832907941971 -1 1.1247028844273357
v -1.1848579254613458 -0.7891187846347375 1.091370922633851
v -1.5305547940334434 -0.67209910439313192 0.76779334981768277
v -1.4210506685052819 -0.73977637587787082 0.94497474683058313
v -1.5484161888543193 -0.75769288964770554 0.81128513403574276
v -1.4526044542584122 -0.60502205176395996 0.80936280886131351
v -1.4916168927203615 -0.79279678519556196 0.90318832571755681
v -1.39497794823604 -0.64063719113868656 0.90260445425841218
v -1.3634809428097285 -1.1095041255281617 1.0381245197289972
v -1.3634809428097285 -0.89049587447183842 1.0381245197289972
v -1.4341677078294128 -1.0567992961339578 0.99614305949708859
v -1.2797249361912959 -1.0576265060223722 1.0890877450526093
v -1.4341677078294128 -0.94320070386604227 0.99614305949708859
v -1.2797249361912959 -0.94237349397762793 1.0890877450526093
v -1.6405303948630889 -1 0.16765125596784497
v -1.6933072173698034 -1 0.3534334305106564
v -1.6470132204279422 -0.90784124005355471 0.19923984455939475
v -1.6470132204279422 -1.0921587599464453 0.19923984455939475
v -1.6405303948630889 -1 0.732348744032155
v -1.6933072173698034 -1 0.54656656948934357
v -1.6470132204279422 -0.90784124005355471 0.70076015544060533
v -1.6470132204279422 -1.0921587599464453 0.70076015544060533
v -1.6237045669318575 -0.72966883008868555 0.28292614877628475
v -1.6913818384165964 -0.90685022710158603 0.39243027430444638
v -1.6413709226338509 -0.81514207453865406 0.23911878463473754
v -1.6390877450526093 -0.72027506380870421 0.39237349397762789
v -1.6764748181817073 -0.90704526622046833 0.2959180807686953
v -1.6237045669318575 -1.2703311699113145 0.28292614877628475
v -1.6913818384165964 -1.0931497728984139 0.39243027430444638
v -1.6413709226338509 -1.1848579254613458 0.23911878463473754
v -1.6390877450526093 -1.2797249361912959 0.39237349397762789
v -1.6764748181817073 -1.0929547337795318 0.2959180807686953
v -1.6237045669318575 -0.72966883008868555 0.61707385122371528
v -1.6913818384165964 -0.90685022710158603 0.50756972569555359
v -1.6413709226338509 -0.81514207453865406 0.66088121536526245
v -1.6390877450526093 -0.72027506380870421 0.50762650602237214
v -1.6764748181817073 -0.90704526622046833 0.60408191923130472
v -1.6747028844273357 -0.81351670920580277 0.45000000000000001
v -1.6237045669318575 -1.2703311699113145 0.61707385122371528
v -1.6913818384165964 -1.0931497728984139 0.50756972569555359
v -1.6413709226338509 -1.1848579254613458 0.66088121536526245
v -1.6390877450526093 -1.2797249361912959 0.50762650602237214
v -1.6764748181817073 -1.0929547337795318 0.60408191923130472
v -1.6747028844273357 -1.1864832907941971 0.45000000000000001
v -0.3680117784833935 0.595455565846428 0.5
v 0.3680117784833935 0.595455565846428 0.5
v 0 0.3680117784833935 1.095455565846428
v 0 0.3680117784833935 -0.095455565846428003
v 0.595455565846428 0 0.1319882215166065
v 0.595455565846428 0 0.8680117784833935
v 0 0.69999999999999996 0.5
v -0.2163118960624632 0.56631189606246313 0.85000000000000009
v 0.2163118960624632 0.56631189606246313 0.85000000000000009
v 0 0 1.2
v -0.2163118960624632 0.56631189606246313 0.14999999999999997
v 0.2163118960624632 0.56631189606246313 0.14999999999999997
v 0 0 -0.19999999999999996
v 0.56631189606246313 0.35000000000000003 0.2836881039375368
v 0.56631189606246313 -0.35000000000000003 0.2836881039375368
v 0.35000000000000003 -0.2163118960624632 -0.066311896062463127
v 0.35000000000000003 0.2163118960624632 -0.066311896062463127
v 0.56631189606246313 0.35000000000000003 0.71631189606246326
v 0.56631189606246313 -0.35000000000000003 0.71631189606246326
v 0.35000000000000003 -0.2163118960624632 1.0663118960624631
v 0.35000000000000003 0.2163118960624632 1.0663118960624631
v 0.69999999999999996 0 0.5
v -0.19128657023887019 0.67335685044874227 0.5
v 0.19128657023887019 0.67335685044874227 0.5
v -0.30372199518688631 0.60386793629133029 0.68192433910542805
v -0.11243542494801619 0.48564633429231446 0.99143251134331412
v -0.11372189368151719 0.66573956140660751 0.6840058892416967
v 0.30372199518688631 0.60386793629133029 0.68192433910542805
v 0.11243542494801619 0.48564633429231446 0.99143251134331412
v 0.11372189368151719 0.66573956140660751 0.6840058892416967
v 0 0.595455565846428 0.86801177848339361
v 0 0.19128657023887019 1.1733568504487422
v -0.30372199518688631 0.60386793629133029 0.31807566089457195
v -0.11243542494801619 0.48564633429231446 0.0085674886566858843
v -0.11372189368151719 0.66573956140660751 0.31599411075830325
v 0.30372199518688631 0.60386793629133029 0.31807566089457195
v 0.11243542494801619 0.48564633429231446 0.0085674886566858843
v 0.11372189368151719 0.66573956140660751 0.31599411075830325
v 0 0.595455565846428 0.13198822151660644
v 0 0.19128657023887019 -0.17335685044874227
v 0.48564633429231446 0.49143251134331417 0.38756457505198377
v 0.60386793629133029 0.1819243391054281 0.19627800481311364
v 0.41144967660473125 0.4817336721649107 0.202272217076786
v 0.48564633429231446 -0.49143251134331417 0.38756457505198377
v 0.60386793629133029 -0.1819243391054281 0.19627800481311364
v 0.41144967660473125 -0.4817336721649107 0.202272217076786
v 0.49143251134331412 -0.11243542494801619 0.014353665707685648
v 0.18400588924169678 -0.11372189368151724 -0.16573956140660751
v 0.4817336721649107 -0.297727782923214 0.088550323395268804
v 0.1819243391054281 0.30372199518688636 -0.10386793629133029
v 0.49143251134331412 0.11243542494801619 0.014353665707685648
v 0.297727782923214 0.4114496766047312 0.018266327835089302
v 0.18400588924169678 0.11372189368151724 -0.16573956140660751
v 0.4817336721649107 0.297727782923214 0.088550323395268804
v 0.36801177848339356 0 -0.095455565846427892
v 0.48564633429231446 0.49143251134331417 0.61243542494801617
v 0.60386793629133029 0.1819243391054281 0.80372199518688636
v 0.41144967660473125 0.4817336721649107 0.797727782923214
v 0.59545556584642789 0.36801177848339356 0.5
v 0.48564633429231446 -0.49143251134331417 0.61243542494801617
v 0.60386793629133029 -0.1819243391054281 0.80372199518688636
v 0.41144967660473125 -0.4817336721649107 0.797727782923214
v 0.59545556584642789 -0.36801177848339356 0.5
v 0.49143251134331412 -0.11243542494801619 0.9856463342923143
v 0.297727782923214 -0.4114496766047312 0.9817336721649107
v 0.18400588924169678 -0.11372189368151724 1.1657395614066075
v 0.4817336721649107 -0.297727782923214 0.9114496766047312
v 0.1819243391054281 0.30372199518688636 1.1038679362913304
v 0.49143251134331412 0.11243542494801619 0.9856463342923143
v 0.297727782923214 0.4114496766047312 0.9817336721649107
v 0.18400588924169678 0.11372189368151724 1.1657395614066075
v 0.4817336721649107 0.297727782923214 0.9114496766047312
v 0.36801177848339356 0 1.0954555658464278
v 0.67335685044874227 0 0.30871342976112981
v 0.67335685044874227 0 0.69128657023887019
v 0.66573956140660751 0.18400588924169678 0.38627810631848275
v 0.66573956140660751 -0.18400588924169678 0.38627810631848275
v 0.66573956140660751 0.18400588924169678 0.61372189368151719
v 0.66573956140660751 -0.18400588924169678 0.61372189368151719
v -0.48564633429231446 0.49143251134331417 0.38756457505198377
v -0.41144967660473125 0.4817336721649107 0.202272217076786
v -0.1819243391054281 0.30372199518688636 -0.10386793629133029
v -0.297727782923214 0.4114496766047312 0.018266327835089302
v -0.48564633429231446 0.49143251134331417 0.61243542494801617
v -0.41144967660473125 0.4817336721649107 0.797727782923214
v -0.1819243391054281 0.30372199518688636 1.1038679362913304
v -0.297727782923214 0.4114496766047312 0.9817336721649107
v -0.18400588924169678 0.11372189368151724 1.1657395614066075
v -0.28234874403215504 0.64053039486308883 0.5
v -0.096566569489343598 0.69330721736980327 0.5
v 0.28234874403215504 0.64053039486308883 0.5
v 0.096566569489343598 0.69330721736980327 0.5
v -0.33910914944246751 0.60545053510429236 0.59184026516910904
v -0.26252699723474676 0.59073803223567312 0.76852961287953336
v -0.25076015544060526 0.64701322042794218 0.59215875994644518
v -0.056760405410312451 0.43094941461157649 1.0486901296939799
v -0.16596042774540315 0.53105661011428007 0.92477760449026991
v -0.057569725695553596 0.69138183841659639 0.59314977289841386
v -0.16707385122371521 0.6237045669318575 0.77033116991131445
v -0.15408191923130468 0.67647481818170729 0.59295473377953167
v -0.21088121536526239 0.64137092263385098 0.68485792546134583
v 0.33910914944246751 0.60545053510429236 0.59184026516910904
v 0.26252699723474676 0.59073803223567312 0.76852961287953336
v 0.25076015544060526 0.64701322042794218 0.59215875994644518
v 0.056760405410312451 0.43094941461157649 1.0486901296939799
v 0.16596042774540315 0.53105661011428007 0.92477760449026991
v 0 0.49203492134144122 0.9978972144735514
v 0.057569725695553596 0.69138183841659639 0.59314977289841386
v 0.16707385122371521 0.6237045669318575 0.77033116991131445
v 0.15408191923130468 0.67647481818170729 0.59295473377953167
v 0 0.67470288442733573 0.68648329079419712
v 0.21088121536526239 0.64137092263385098 0.68485792546134583
v -0.10950412552816161 0.58812451972899715 0.86348094280972831
v 0.10950412552816161 0.58812451972899715 0.86348094280972831
v -0.056799296133957733 0.54614305949708863 0.93416770782941283
v -0.057626506022372112 0.63908774505260935 0.77972493619129579
v 0.056799296133957733 0.54614305949708863 0.93416770782941283
v 0.057626506022372112 0.63908774505260935 0.77972493619129579
v 0 -0.096566569489343598 1.1933072173698034
v 0 0.28234874403215504 1.1405303948630889
v 0 0.096566569489343598 1.1933072173698034
v -0.33910914944246751 0.60545053510429236 0.40815973483089102
v -0.26252699723474676 0.59073803223567312 0.23147038712046658
v -0.25076015544060526 0.64701322042794218 0.40784124005355482
v -0.056760405410312451 0.43094941461157649 -0.0486901296939799
v -0.16596042774540315 0.53105661011428007 0.075222395509730089
v -0.057569725695553596 0.69138183841659639 0.40685022710158608
v -0.16707385122371521 0.6237045669318575 0.22966883008868555
v -0.15408191923130468 0.67647481818170729 0.40704526622046833
v -0.21088121536526239 0.64137092263385098 0.31514207453865417
v 0.33910914944246751 0.60545053510429236 0.40815973483089102
v 0.26252699723474676 0.59073803223567312 0.23147038712046658
v 0.25076015544060526 0.64701322042794218 0.40784124005355482
v 0.056760405410312451 0.43094941461157649 -0.0486901296939799
v 0.16596042774540315 0.53105661011428007 0.075222395509730089
v 0 0.49203492134144122 0.0021027855264486583
v 0.057569725695553596 0.69138183841659639 0.40685022710158608
v 0.16707385122371521 0.6237045669318575 0.22966883008868555
v 0.15408191923130468 0.67647481818170729 0.40704526622046833
v 0 0.67470288442733573 0.31351670920580288
v 0.21088121536526239 0.64137092263385098 0.31514207453865417
v -0.10950412552816161 0.58812451972899715 0.13651905719027163
v 0.10950412552816161 0.58812451972899715 0.13651905719027163
v -0.056799296133957733 0.54614305949708863 0.065832292170587114
v -0.057626506022372112 0.63908774505260935 0.22027506380870421
v 0.056799296133957733 0.54614305949708863 0.065832292170587114
v 0.057626506022372112 0.63908774505260935 0.22027506380870421
v 0 0.28234874403215504 -0.14053039486308883
v 0 0.096566569489343598 -0.19330721736980327
v 0.43094941461157638 0.5486901296939799 0.44323959458968754
v 0.53105661011428007 0.42477760449026991 0.33403957225459679
v 0.39987616139499604 0.554854460481497 0.35088399404560922
v 0.60545053510429236 0.091840265169108995 0.16089085055753249
v 0.59073803223567301 0.26852961287953347 0.23747300276525324
v 0.31779334981768276 0.53055479403344352 0.17209910439313197
v 0.49497474683058318 0.42105066850528194 0.23977637587787087
v 0.36128513403574269 0.54841618885431931 0.25769288964770554
v 0.45318832571755685 0.49161689272036158 0.29279678519556196
v 0.53105661011428007 -0.42477760449026991 0.33403957225459679
v 0.60545053510429236 -0.091840265169108995 0.16089085055753249
v 0.59073803223567301 -0.26852961287953347 0.23747300276525324
v 0.49497474683058318 -0.42105066850528194 0.23977637587787087
v 0.45318832571755685 -0.49161689272036158 0.29279678519556196
v 0.26852961287953347 -0.26252699723474676 -0.090738032235673005
v 0.5486901296939799 -0.056760405410312464 0.069050585388423624
v 0.42477760449026991 -0.16596042774540318 -0.03105661011428007
v 0.554854460481497 -0.14911600595439084 0.10012383860500396
v 0.32790089560686808 -0.31779334981768276 -0.030554794033443522
v 0.093149772898413932 -0.057569725695553617 -0.19138183841659639
v 0.27033116991131445 -0.16707385122371524 -0.1237045669318575
v 0.18485792546134591 -0.21088121536526247 -0.14137092263385098
v 0.53055479403344352 -0.32790089560686808 0.18220665018231724
v 0.421050668505282 -0.26022362412212913 0.0050252531694168212
v 0.5484161888543192 -0.24230711035229446 0.13871486596425725
v 0.45260445425841211 -0.39497794823604004 0.1406371911386865
v 0.49161689272036146 -0.20720321480443807 0.046811674282443261
v 0.39497794823604004 -0.3593628088613135 0.047395545741587886
v 0.091840265169108995 0.33910914944246751 -0.10545053510429236
v 0.26852961287953347 0.26252699723474676 -0.090738032235673005
v 0.14911600595439084 0.39987616139499604 -0.054854460481496892
v 0.092158759946445235 0.25076015544060526 -0.14701322042794218
v 0.5486901296939799 0.056760405410312464 0.069050585388423624
v 0.42477760449026991 0.16596042774540318 -0.03105661011428007
v 0.554854460481497 0.14911600595439084 0.10012383860500396
v 0.4978972144735514 0 0.0079650786585587774
v 0.26022362412212913 0.49497474683058318 0.078949331494718
v 0.32790089560686808 0.31779334981768276 -0.030554794033443522
v 0.20720321480443807 0.45318832571755674 0.0083831072796385353
v 0.35936280886131355 0.45260445425841211 0.10502205176395996
v 0.24230711035229444 0.36128513403574275 -0.048416188854319198
v 0.093149772898413932 0.057569725695553617 -0.19138183841659639
v 0.27033116991131445 0.16707385122371524 -0.1237045669318575
v 0.092954733779531715 0.15408191923130468 -0.17647481818170729
v 0.1864832907941972 0 -0.17470288442733573
v 0.18485792546134591 0.21088121536526247 -0.14137092263385098
v 0.53055479403344352 0.32790089560686808 0.18220665018231724
v 0.421050668505282 0.26022362412212913 0.0050252531694168212
v 0.5484161888543192 0.24230711035229446 0.13871486596425725
v 0.45260445425841211 0.39497794823604004 0.1406371911386865
v 0.49161689272036146 0.20720321480443807 0.046811674282443261
v 0.39497794823604004 0.3593628088613135 0.047395545741587886
v 0.36348094280972848 -0.10950412552816161 -0.088124519728997153
v 0.36348094280972848 0.10950412552816161 -0.088124519728997153
v 0.43416770782941289 -0.056799296133957747 -0.046143059497088634
v 0.27972493619129579 -0.057626506022372119 -0.13908774505260935
v 0.43416770782941289 0.056799296133957747 -0.046143059497088634
v 0.27972493619129579 0.057626506022372119 -0.13908774505260935
v 0.43094941461157638 0.5486901296939799 0.55676040541031246
v 0.53105661011428007 0.42477760449026991 0.66596042774540321
v 0.39987616139499604 0.554854460481497 0.64911600595439078
v 0.49203492134144122 0.4978972144735514 0.5
v 0.60545053510429236 0.091840265169108995 0.83910914944246751
v 0.59073803223567301 0.26852961287953347 0.76252699723474682
v 0.31779334981768276 0.53055479403344352 0.82790089560686808
v 0.49497474683058318 0.42105066850528194 0.76022362412212918
v 0.36128513403574269 0.54841618885431931 0.74230711035229446
v 0.45318832571755685 0.49161689272036158 0.70720321480443804
v 0.58812451972899715 0.36348094280972848 0.39049587447183842
v 0.58812451972899715 0.36348094280972848 0.60950412552816158
v 0.54614305949708863 0.43416770782941289 0.44320070386604227
v 0.54614305949708863 0.43416770782941289 0.55679929613395773
v 0.53105661011428007 -0.42477760449026991 0.66596042774540321
v 0.49203492134144122 -0.4978972144735514 0.5
v 0.60545053510429236 -0.091840265169108995 0.83910914944246751
v 0.59073803223567301 -0.26852961287953347 0.76252699723474682
v 0.49497474683058318 -0.42105066850528194 0.76022362412212918
v 0.45318832571755685 -0.49161689272036158 0.70720321480443804
v 0.58812451972899715 -0.36348094280972848 0.39049587447183842
v 0.58812451972899715 -0.36348094280972848 0.60950412552816158
v 0.54614305949708863 -0.43416770782941289 0.44320070386604227
v 0.54614305949708863 -0.43416770782941289 0.55679929613395773
v 0.26852961287953347 -0.26252699723474676 1.090738032235673
v 0.5486901296939799 -0.056760405410312464 0.93094941461157643
v 0.42477760449026991 -0.16596042774540318 1.03105661011428
v 0.554854460481497 -0.14911600595439084 0.89987616139499604
v 0.32790089560686808 -0.31779334981768276 1.0305547940334434
v 0.35936280886131355 -0.45260445425841211 0.89497794823604004
v 0.093149772898413932 -0.057569725695553617 1.1913818384165964
v 0.27033116991131445 -0.16707385122371524 1.1237045669318575
v 0.092954733779531715 -0.15408191923130468 1.1764748181817073
v 0.18485792546134591 -0.21088121536526247 1.1413709226338509
v 0.53055479403344352 -0.32790089560686808 0.81779334981768281
v 0.421050668505282 -0.26022362412212913 0.99497474683058318
v 0.5484161888543192 -0.24230711035229446 0.86128513403574281
v 0.45260445425841211 -0.39497794823604004 0.85936280886131344
v 0.49161689272036146 -0.20720321480443807 0.95318832571755674
v 0.39497794823604004 -0.3593628088613135 0.95260445425841211
v 0.091840265169108995 0.33910914944246751 1.1054505351042923
v 0.26852961287953347 0.26252699723474676 1.090738032235673
v 0.14911600595439084 0.39987616139499604 1.0548544604814969
v 0.092158759946445235 0.25076015544060526 1.1470132204279422
v 0.5486901296939799 0.056760405410312464 0.93094941461157643
v 0.42477760449026991 0.16596042774540318 1.03105661011428
v 0.554854460481497 0.14911600595439084 0.89987616139499604
v 0.4978972144735514 0 0.99203492134144122
v 0.26022362412212913 0.49497474683058318 0.92105066850528194
v 0.32790089560686808 0.31779334981768276 1.0305547940334434
v 0.20720321480443807 0.45318832571755674 0.99161689272036146
v 0.35936280886131355 0.45260445425841211 0.89497794823604004
v 0.24230711035229444 0.36128513403574275 1.0484161888543193
v 0.093149772898413932 0.057569725695553617 1.1913818384165964
v 0.27033116991131445 0.16707385122371524 1.1237045669318575
v 0.092954733779531715 0.15408191923130468 1.1764748181817073
v 0.1864832907941972 0 1.1747028844273357
v 0.18485792546134591 0.21088121536526247 1.1413709226338509
v 0.53055479403344352 0.32790089560686808 0.81779334981768281
v 0.421050668505282 0.26022362412212913 0.99497474683058318
v 0.5484161888543192 0.24230711035229446 0.86128513403574281
v 0.45260445425841211 0.39497794823604004 0.85936280886131344
v 0.49161689272036146 0.20720321480443807 0.95318832571755674
v 0.39497794823604004 0.3593628088613135 0.95260445425841211
v 0.36348094280972848 -0.10950412552816161 1.0881245197289973
v 0.36348094280972848 0.10950412552816161 1.0881245197289973
v 0.43416770782941289 -0.056799296133957747 1.0461430594970886
v 0.27972493619129579 -0.057626506022372119 1.1390877450526093
v 0.43416770782941289 0.056799296133957747 1.0461430594970886
v 0.27972493619129579 0.057626506022372119 1.1390877450526093
v 0.64053039486308883 0 0.21765125596784496
v 0.69330721736980327 0 0.40343343051065639
v 0.64701322042794218 0.092158759946445235 0.24923984455939474
v 0.64701322042794218 -0.092158759946445235 0.24923984455939474
v 0.64053039486308883 0 0.78234874403215504
v 0.69330721736980327 0 0.59656656948934361
v 0.64701322042794218 0.092158759946445235 0.75076015544060526
v 0.64701322042794218 -0.092158759946445235 0.75076015544060526
v 0.6237045669318575 0.27033116991131445 0.33292614877628479
v 0.69138183841659639 0.093149772898413932 0.44243027430444637
v 0.64137092263385098 0.18485792546134591 0.2891187846347375
v 0.63908774505260935 0.27972493619129579 0.44237349397762787
v 0.67647481818170729 0.092954733779531715 0.34591808076869535
v 0.6237045669318575 -0.27033116991131445 0.33292614877628479
v 0.69138183841659639 -0.093149772898413932 0.44243027430444637
v 0.64137092263385098 -0.18485792546134591 0.2891187846347375
v 0.63908774505260935 -0.27972493619129579 0.44237349397762787
v 0.67647481818170729 -0.092954733779531715 0.34591808076869535
v 0.6237045669318575 0.27033116991131445 0.66707385122371521
v 0.69138183841659639 0.093149772898413932 0.55756972569555363
v 0.64137092263385098 0.18485792546134591 0.7108812153652625
v 0.63908774505260935 0.27972493619129579 0.55762650602237207
v 0.67647481818170729 0.092954733779531715 0.65408191923130465
v 0.67470288442733573 0.1864832907941972 0.5
v 0.6237045669318575 -0.27033116991131445 0.66707385122371521
v 0.69138183841659639 -0.093149772898413932 0.55756972569555363
v 0.64137092263385098 -0.18485792546134591 0.7108812153652625
v 0.63908774505260935 -0.27972493619129579 0.55762650602237207
v 0.67647481818170729 -0.092954733779531715 0.65408191923130465
v 0.67470288442733573 -0.1864832907941972 0.5
v -0.43094941461157638 0.5486901296939799 0.44323959458968754
v -0.39987616139499604 0.554854460481497 0.35088399404560922
v -0.31779334981768276 0.53055479403344352 0.17209910439313197
v -0.36128513403574269 0.54841618885431931 0.25769288964770554
v -0.45318832571755685 0.49161689272036158 0.29279678519556196
v -0.091840265169108995 0.33910914944246751 -0.10545053510429236
v -0.26852961287953347 0.26252699723474676 -0.090738032235673005
v -0.14911600595439084 0.39987616139499604 -0.054854460481496892
v -0.092158759946445235 0.25076015544060526 -0.14701322042794218
v -0.26022362412212913 0.49497474683058318 0.078949331494718
v -0.32790089560686808 0.31779334981768276 -0.030554794033443522
v -0.20720321480443807 0.45318832571755674 0.0083831072796385353
v -0.35936280886131355 0.45260445425841211 0.10502205176395996
v -0.24230711035229444 0.36128513403574275 -0.048416188854319198
v -0.093149772898413932 0.057569725695553617 -0.19138183841659639
v -0.092954733779531715 0.15408191923130468 -0.17647481818170729
v -0.18485792546134591 0.21088121536526247 -0.14137092263385098
v -0.45260445425841211 0.39497794823604004 0.1406371911386865
v -0.39497794823604004 0.3593628088613135 0.047395545741587886
v -0.43094941461157638 0.5486901296939799 0.55676040541031246
v -0.39987616139499604 0.554854460481497 0.64911600595439078
v -0.49203492134144122 0.4978972144735514 0.5
v -0.31779334981768276 0.53055479403344352 0.82790089560686808
v -0.49497474683058318 0.42105066850528194 0.76022362412212918
v -0.36128513403574269 0.54841618885431931 0.74230711035229446
v -0.45318832571755685 0.49161689272036158 0.70720321480443804
v -0.091840265169108995 0.33910914944246751 1.1054505351042923
v -0.26852961287953347 0.26252699723474676 1.090738032235673
v -0.14911600595439084 0.39987616139499604 1.0548544604814969
v -0.092158759946445235 0.25076015544060526 1.1470132204279422
v -0.26022362412212913 0.49497474683058318 0.92105066850528194
v -0.32790089560686808 0.31779334981768276 1.0305547940334434
v -0.20720321480443807 0.45318832571755674 0.99161689272036146
v -0.35936280886131355 0.45260445425841211 0.89497794823604004
v -0.24230711035229444 0.36128513403574275 1.0484161888543193
v -0.093149772898413932 0.057569725695553617 1.1913818384165964
v -0.27033116991131445 0.16707385122371524 1.1237045669318575
v -0.092954733779531715 0.15408191923130468 1.1764748181817073
v -0.18485792546134591 0.21088121536526247 1.1413709226338509
v -0.45260445425841211 0.39497794823604004 0.85936280886131344
v -0.39497794823604004 0.3593628088613135 0.95260445425841211
f 311 299 308
f 381 478 471
f 523 525 397
f 47 189 184
f 216 58 213
f 214 58 216
f 82 313 316
f 303 287 10
f 358 609 469
f 251 255 256
f 256 66 251
f 89 1 121
f 23 90 100
f 7 90 126
f 264 274 273
f 271 197 273
f 121 198 33
f 196 261 264
f 1 261 196
f 121 1 196
f 196 198 121
f 324 338 22
f 22 344 324
f 333 320 336
f 333 344 22
f 22 320 333
f 88 344 348
f 344 333 348
f 347 344 88
f 88 345 347
f 347 324 344
f 593 595 585
f 413 595 584
f 106 29 117
f 106 9 181
f 117 29 107
f 177 3 105
f 105 107 29
f 237 59 248
f 217 59 237
f 409 573 652
f 652 573 650
f 574 575 570
f 575 408 570
f 523 510 394
f 507 392 511
f 511 510 507
f 215 58 212
f 212 58 214
f 208 147 205
f 206 216 213
f 205 124 207
f 214 216 207
f 12 142 134
f 134 142 145
f 163 170 169
f 164 162 158
f 4 124 205
f 205 147 4
f 157 164 43
f 43 164 158
f 288 316 313
f 278 289 290
f 77 289 287
f 290 289 77
f 77 288 290
f 316 288 77
f 287 303 305
f 305 77 287
f 316 77 305
f 305 303 80
f 10 287 120
f 287 289 120
f 358 469 691
f 691 469 693
f 693 469 380
f 68 255 310
f 299 314 21
f 308 299 21
f 297 302 21
f 21 302 308
f 297 21 304
f 304 21 314
f 80 306 304
f 82 316 318
f 318 314 82
f 316 305 318
f 318 304 314
f 318 305 80
f 80 304 318
f 310 255 307
f 226 222 213
f 226 58 215
f 213 58 226
f 336 320 83
f 83 320 331
f 625 612 623
f 584 595 591
f 630 354 572
f 586 612 609
f 358 467 586
f 586 609 358
f 23 89 123
f 123 89 121
f 121 33 123
f 123 33 129
f 70 274 264
f 264 261 70
f 93 261 1
f 1 89 93
f 98 90 7
f 98 100 90
f 266 345 343
f 343 345 88
f 19 291 266
f 19 343 272
f 266 343 19
f 274 272 73
f 73 273 274
f 73 335 271
f 271 273 73
f 203 33 198
f 203 198 204
f 204 55 203
f 127 129 122
f 129 33 122
f 33 203 122
f 264 273 53
f 53 196 264
f 53 273 197
f 53 197 204
f 204 198 53
f 198 196 53
f 338 324 341
f 325 339 341
f 204 197 202
f 202 55 204
f 271 335 332
f 336 334 86
f 335 348 86
f 334 332 86
f 86 332 335
f 86 333 336
f 86 348 333
f 281 265 71
f 71 345 266
f 424 634 637
f 601 624 417
f 370 635 645
f 574 593 410
f 410 575 574
f 114 106 117
f 9 106 114
f 181 184 49
f 137 142 12
f 136 92 7
f 7 126 136
f 139 136 126
f 38 136 139
f 148 217 13
f 237 248 250
f 518 519 396
f 161 164 157
f 165 45 167
f 167 148 165
f 165 148 13
f 650 573 367
f 574 570 367
f 579 408 571
f 579 570 408
f 427 652 650
f 650 653 427
f 427 653 655
f 427 654 652
f 643 640 425
f 425 640 655
f 638 424 635
f 520 510 523
f 523 397 520
f 397 522 520
f 524 514 395
f 524 395 515
f 515 522 524
f 524 522 397
f 514 524 521
f 521 397 525
f 521 524 397
f 174 47 184
f 181 9 174
f 174 184 181
f 104 28 112
f 112 110 104
f 30 110 112
f 41 173 150
f 172 46 176
f 130 150 2
f 42 153 155
f 155 154 42
f 42 163 169
f 571 392 578
f 392 507 578
f 578 579 571
f 143 135 145
f 158 162 37
f 145 135 37
f 37 134 145
f 162 134 37
f 59 217 219
f 217 148 219
f 213 222 16
f 16 206 213
f 245 248 218
f 218 16 245
f 206 16 218
f 218 248 59
f 216 206 56
f 205 207 56
f 56 207 216
f 56 208 205
f 12 134 160
f 160 134 162
f 170 163 44
f 162 164 44
f 44 160 162
f 163 160 44
f 44 161 170
f 164 161 44
f 156 4 147
f 156 43 158
f 43 156 159
f 159 156 147
f 119 3 177
f 178 188 48
f 589 580 587
f 611 469 609
f 611 380 469
f 308 302 312
f 683 692 694
f 310 307 81
f 81 312 310
f 81 311 308
f 308 312 81
f 18 255 251
f 18 307 255
f 67 339 325
f 325 253 67
f 260 66 252
f 251 66 260
f 85 342 330
f 330 327 85
f 331 320 328
f 328 85 331
f 342 85 328
f 338 342 328
f 22 338 328
f 328 320 22
f 60 221 223
f 222 226 60
f 620 623 587
f 622 624 421
f 625 623 421
f 421 620 622
f 623 620 421
f 560 600 354
f 560 632 405
f 560 354 630
f 630 632 560
f 368 580 584
f 584 591 368
f 587 580 368
f 368 620 587
f 595 593 415
f 415 591 595
f 603 624 622
f 417 624 603
f 603 600 417
f 186 120 187
f 191 50 195
f 252 50 259
f 259 260 252
f 69 260 259
f 50 191 259
f 659 381 471
f 23 123 128
f 128 90 23
f 128 126 90
f 128 123 129
f 95 100 101
f 95 93 89
f 95 89 23
f 23 100 95
f 117 107 115
f 25 95 101
f 93 95 25
f 282 267 8
f 101 100 27
f 100 98 27
f 88 348 346
f 346 343 88
f 346 348 335
f 272 343 346
f 335 73 346
f 346 73 272
f 262 19 272
f 262 272 274
f 274 70 262
f 262 70 270
f 201 55 215
f 201 203 55
f 201 122 203
f 215 212 201
f 11 141 127
f 127 122 11
f 11 201 212
f 122 201 11
f 324 347 84
f 84 341 324
f 325 341 84
f 215 55 224
f 55 202 224
f 224 226 215
f 224 202 221
f 221 60 224
f 224 60 226
f 223 54 211
f 211 54 199
f 336 83 322
f 322 334 336
f 322 54 334
f 199 54 322
f 15 197 271
f 271 332 15
f 15 202 197
f 221 202 15
f 293 295 281
f 281 71 293
f 266 291 293
f 293 71 266
f 323 253 325
f 325 84 323
f 281 295 75
f 82 314 317
f 317 314 299
f 6 323 265
f 253 323 6
f 636 634 424
f 636 638 628
f 424 638 636
f 566 637 634
f 561 616 405
f 417 600 602
f 600 560 602
f 405 616 602
f 602 560 405
f 646 632 648
f 405 632 646
f 644 561 646
f 646 561 405
f 649 645 635
f 635 424 649
f 424 637 649
f 677 656 428
f 3 119 275
f 275 119 278
f 190 49 184
f 127 141 144
f 146 137 38
f 38 139 146
f 142 137 146
f 139 144 146
f 108 110 30
f 92 110 108
f 7 92 108
f 108 98 7
f 234 217 237
f 234 149 13
f 13 217 234
f 238 236 63
f 237 250 63
f 63 234 237
f 236 234 63
f 431 674 668
f 232 240 244
f 662 666 669
f 666 431 669
f 661 663 473
f 471 478 476
f 539 361 497
f 539 517 361
f 535 400 549
f 549 400 537
f 515 395 513
f 513 508 515
f 651 640 370
f 655 640 651
f 651 427 655
f 654 427 651
f 652 654 633
f 630 572 633
f 409 652 633
f 633 572 409
f 570 579 577
f 577 653 650
f 650 367 577
f 577 367 570
f 642 425 655
f 639 425 642
f 655 653 642
f 627 640 643
f 627 638 635
f 627 635 370
f 370 640 627
f 641 425 639
f 641 629 643
f 643 425 641
f 628 638 422
f 643 629 422
f 422 627 643
f 638 627 422
f 501 628 626
f 626 629 508
f 628 422 626
f 626 422 629
f 363 507 510
f 510 520 363
f 514 521 364
f 550 514 364
f 512 518 364
f 364 518 550
f 516 521 525
f 516 364 521
f 512 364 516
f 103 174 9
f 103 112 28
f 102 172 28
f 102 28 104
f 46 172 171
f 173 46 171
f 171 102 2
f 172 102 171
f 171 150 173
f 2 150 171
f 176 47 175
f 175 172 176
f 47 174 175
f 28 172 175
f 175 103 28
f 174 103 175
f 151 154 155
f 150 130 151
f 151 155 41
f 41 150 151
f 124 135 34
f 135 143 34
f 214 207 34
f 34 207 124
f 133 37 135
f 133 135 124
f 124 4 133
f 158 37 133
f 133 156 158
f 4 156 133
f 40 219 148
f 40 148 167
f 147 208 40
f 208 219 40
f 167 159 40
f 40 159 147
f 210 16 222
f 245 16 210
f 210 247 245
f 57 247 210
f 208 56 220
f 220 218 59
f 206 218 220
f 220 56 206
f 59 219 220
f 220 219 208
f 12 160 152
f 152 160 163
f 152 42 154
f 163 42 152
f 43 159 168
f 168 166 157
f 157 43 168
f 167 45 168
f 168 159 167
f 187 120 32
f 32 120 289
f 289 278 32
f 278 119 32
f 180 188 187
f 180 119 177
f 177 48 180
f 180 48 188
f 187 32 180
f 180 32 119
f 185 49 182
f 185 182 178
f 178 48 185
f 588 589 414
f 414 623 612
f 414 586 588
f 612 586 414
f 587 623 414
f 414 589 587
f 609 612 419
f 419 611 609
f 419 612 625
f 613 611 419
f 625 610 419
f 419 610 613
f 693 380 685
f 685 694 693
f 683 694 434
f 434 685 682
f 694 685 434
f 679 433 681
f 695 696 689
f 689 433 695
f 693 694 436
f 436 691 693
f 340 69 330
f 330 342 340
f 300 67 253
f 339 67 254
f 307 18 254
f 331 85 329
f 329 85 327
f 319 192 5
f 319 322 83
f 5 199 319
f 199 322 319
f 5 192 228
f 622 620 582
f 582 368 591
f 620 368 582
f 590 415 593
f 590 593 574
f 574 367 590
f 590 367 573
f 409 572 583
f 330 69 257
f 69 259 257
f 257 259 191
f 257 327 330
f 14 327 257
f 257 191 14
f 657 656 470
f 657 659 660
f 660 428 657
f 657 428 656
f 657 470 381
f 381 659 657
f 660 659 429
f 668 673 429
f 232 227 17
f 17 240 232
f 193 327 14
f 193 329 327
f 96 105 3
f 107 105 96
f 3 275 96
f 96 275 277
f 26 96 277
f 26 115 107
f 107 96 26
f 93 25 263
f 261 93 263
f 270 70 263
f 263 70 261
f 113 8 99
f 101 27 99
f 94 8 267
f 94 99 8
f 94 25 101
f 101 99 94
f 285 267 282
f 296 294 285
f 282 76 285
f 285 76 296
f 285 72 267
f 294 72 285
f 31 114 117
f 31 115 113
f 117 115 31
f 268 294 291
f 291 19 268
f 19 262 268
f 268 262 270
f 270 72 268
f 268 72 294
f 225 60 223
f 223 211 225
f 222 60 225
f 225 211 57
f 225 210 222
f 57 210 225
f 209 199 5
f 209 211 199
f 57 211 209
f 5 228 209
f 221 15 200
f 223 221 200
f 200 54 223
f 200 15 332
f 200 332 334
f 334 54 200
f 291 294 78
f 78 293 291
f 78 294 296
f 295 293 78
f 78 296 292
f 292 295 78
f 326 84 347
f 326 323 84
f 326 347 345
f 265 323 326
f 345 71 326
f 326 71 265
f 301 75 315
f 315 313 82
f 315 317 301
f 82 317 315
f 280 295 292
f 280 75 295
f 313 315 280
f 280 315 75
f 299 311 79
f 79 317 299
f 301 317 79
f 311 300 79
f 279 75 301
f 281 75 279
f 279 265 281
f 279 6 265
f 390 628 501
f 390 636 628
f 569 567 407
f 568 569 407
f 407 566 568
f 637 566 407
f 544 504 362
f 362 566 634
f 648 645 426
f 645 649 426
f 426 646 648
f 644 646 426
f 647 567 644
f 647 649 637
f 637 407 647
f 647 407 567
f 644 426 647
f 647 426 649
f 74 278 290
f 74 275 278
f 277 275 74
f 292 296 283
f 296 76 283
f 35 144 139
f 35 128 129
f 35 139 126
f 126 128 35
f 35 129 127
f 127 144 35
f 39 143 145
f 39 146 144
f 141 143 39
f 39 144 141
f 145 142 39
f 142 146 39
f 111 27 98
f 98 108 111
f 111 108 30
f 65 248 245
f 245 247 65
f 65 250 248
f 430 672 662
f 662 669 430
f 430 663 661
f 430 669 663
f 665 431 668
f 232 244 62
f 233 244 242
f 64 240 243
f 64 244 240
f 243 241 64
f 242 244 64
f 396 517 542
f 542 539 401
f 517 539 542
f 401 539 541
f 541 388 529
f 541 539 497
f 497 388 541
f 401 541 543
f 543 541 529
f 533 513 395
f 535 549 545
f 537 400 534
f 491 495 486
f 547 504 544
f 547 549 537
f 532 390 501
f 546 390 532
f 631 645 648
f 654 651 631
f 370 645 631
f 631 651 370
f 639 642 576
f 576 363 639
f 507 363 576
f 576 578 507
f 579 578 411
f 411 642 653
f 653 577 411
f 411 577 579
f 578 576 411
f 411 576 642
f 508 629 393
f 629 641 393
f 515 508 393
f 393 522 515
f 508 513 353
f 353 626 508
f 501 626 353
f 9 114 109
f 109 103 9
f 112 103 109
f 30 112 109
f 24 110 92
f 104 110 24
f 130 132 36
f 154 151 36
f 36 151 130
f 125 212 214
f 214 34 125
f 125 11 212
f 141 11 125
f 125 143 141
f 125 34 143
f 49 185 183
f 181 49 183
f 183 106 181
f 29 106 183
f 621 610 625
f 624 601 621
f 625 421 621
f 621 421 624
f 601 615 369
f 369 621 601
f 610 621 369
f 417 602 618
f 618 601 417
f 618 615 601
f 618 420 615
f 618 602 616
f 616 420 618
f 380 611 599
f 599 611 613
f 682 685 468
f 468 351 682
f 468 685 380
f 380 599 468
f 696 687 435
f 435 689 696
f 684 434 682
f 251 260 258
f 258 18 251
f 258 260 69
f 69 340 258
f 87 341 339
f 87 340 342
f 87 342 338
f 338 341 87
f 67 300 309
f 307 254 309
f 309 254 67
f 309 81 307
f 311 81 309
f 309 300 311
f 339 254 337
f 337 87 339
f 340 87 337
f 337 258 340
f 337 254 18
f 18 258 337
f 321 83 331
f 321 319 83
f 331 329 321
f 192 319 321
f 231 228 61
f 231 209 228
f 231 247 57
f 57 209 231
f 230 241 243
f 230 228 192
f 243 61 230
f 61 228 230
f 409 583 592
f 592 573 409
f 592 590 573
f 415 590 592
f 591 415 594
f 594 582 591
f 415 592 594
f 594 592 583
f 581 572 354
f 581 583 572
f 354 600 581
f 600 603 581
f 235 17 227
f 235 227 238
f 238 63 235
f 235 63 250
f 241 193 239
f 242 64 239
f 239 64 241
f 239 193 14
f 329 193 51
f 192 321 51
f 51 321 329
f 51 193 241
f 51 230 192
f 241 230 51
f 284 26 277
f 284 76 282
f 113 115 97
f 115 26 97
f 97 8 113
f 282 8 97
f 97 284 282
f 26 284 97
f 270 263 269
f 269 72 270
f 267 72 269
f 269 263 25
f 269 94 267
f 25 94 269
f 301 79 298
f 298 279 301
f 6 279 298
f 298 79 300
f 253 6 298
f 298 300 253
f 499 362 504
f 566 362 499
f 568 566 499
f 502 362 634
f 634 636 502
f 636 390 502
f 544 362 502
f 502 546 544
f 502 390 546
f 290 288 276
f 276 74 290
f 286 283 76
f 286 284 277
f 76 284 286
f 277 74 286
f 286 276 283
f 74 276 286
f 116 31 113
f 113 99 116
f 116 99 27
f 27 111 116
f 249 231 61
f 249 65 247
f 247 231 249
f 497 670 671
f 671 388 497
f 529 388 496
f 496 526 529
f 658 665 668
f 658 659 471
f 668 429 658
f 658 429 659
f 471 476 359
f 359 658 471
f 665 658 359
f 431 665 667
f 663 669 667
f 667 669 431
f 484 494 385
f 555 542 401
f 529 526 398
f 398 543 529
f 399 533 554
f 552 533 395
f 552 514 550
f 395 514 552
f 550 403 552
f 403 554 552
f 552 554 533
f 491 486 360
f 360 486 480
f 480 505 503
f 537 534 503
f 503 360 480
f 534 360 503
f 506 499 504
f 549 547 402
f 402 545 549
f 544 546 402
f 402 547 544
f 548 532 399
f 545 402 548
f 546 532 548
f 548 402 546
f 423 631 648
f 423 632 630
f 648 632 423
f 654 631 423
f 630 633 423
f 423 633 654
f 509 520 522
f 522 393 509
f 509 363 520
f 639 363 509
f 509 641 639
f 509 393 641
f 530 532 501
f 501 353 530
f 399 532 530
f 530 533 399
f 513 533 530
f 530 353 513
f 92 136 138
f 138 24 92
f 132 24 138
f 138 136 38
f 104 24 91
f 91 102 104
f 2 102 91
f 91 24 132
f 91 130 2
f 91 132 130
f 140 36 132
f 38 137 140
f 140 138 38
f 132 138 140
f 131 152 154
f 154 36 131
f 12 152 131
f 131 137 12
f 131 140 137
f 36 140 131
f 179 105 29
f 29 183 179
f 177 105 179
f 179 183 185
f 179 48 177
f 179 185 48
f 616 561 614
f 614 420 616
f 690 435 687
f 434 684 690
f 688 435 690
f 690 684 688
f 690 687 683
f 683 434 690
f 433 689 678
f 432 681 676
f 470 656 349
f 582 594 412
f 622 582 412
f 412 594 583
f 583 581 412
f 412 603 622
f 412 581 603
f 195 52 194
f 194 52 242
f 194 191 195
f 242 239 194
f 14 191 194
f 194 239 14
f 246 235 250
f 17 235 246
f 250 65 246
f 65 249 246
f 313 280 20
f 20 288 313
f 20 276 288
f 20 280 292
f 292 283 20
f 283 276 20
f 118 109 114
f 118 116 111
f 118 111 30
f 30 109 118
f 114 31 118
f 31 116 118
f 664 671 672
f 661 496 664
f 664 430 661
f 672 430 664
f 388 671 664
f 664 496 388
f 490 476 493
f 490 359 476
f 382 473 663
f 663 667 382
f 382 484 473
f 473 484 482
f 482 484 385
f 550 518 553
f 542 555 553
f 553 518 396
f 396 542 553
f 553 403 550
f 553 555 403
f 536 534 400
f 538 400 535
f 538 536 400
f 543 398 527
f 527 538 535
f 398 538 527
f 491 360 483
f 385 494 483
f 483 494 491
f 483 360 534
f 483 536 385
f 534 536 483
f 568 499 389
f 499 506 389
f 391 547 537
f 505 506 391
f 537 503 391
f 391 503 505
f 504 547 391
f 391 506 504
f 366 614 561
f 644 567 366
f 366 561 644
f 605 369 615
f 351 468 596
f 596 468 599
f 688 684 374
f 488 495 493
f 686 678 689
f 686 435 688
f 689 435 686
f 441 676 373
f 677 432 675
f 675 656 677
f 675 349 656
f 432 676 675
f 675 676 441
f 441 349 675
f 478 381 472
f 381 470 472
f 229 249 61
f 229 246 249
f 17 246 229
f 240 17 229
f 229 61 243
f 243 240 229
f 387 490 493
f 493 495 387
f 387 495 491
f 491 494 387
f 474 667 665
f 474 382 667
f 665 359 474
f 359 490 474
f 352 496 661
f 661 473 352
f 526 496 352
f 352 482 526
f 473 482 352
f 528 482 385
f 385 536 528
f 526 482 528
f 536 538 528
f 528 398 526
f 528 538 398
f 403 555 551
f 551 554 403
f 614 366 563
f 615 420 619
f 619 605 615
f 351 596 453
f 444 374 684
f 682 351 444
f 444 684 682
f 455 374 444
f 351 453 444
f 444 453 455
f 455 453 377
f 485 488 475
f 386 486 495
f 386 488 485
f 495 488 386
f 688 374 445
f 445 686 688
f 680 373 676
f 433 678 680
f 680 681 433
f 680 676 681
f 459 456 446
f 441 373 443
f 470 349 437
f 437 472 470
f 371 472 437
f 437 443 371
f 437 349 441
f 441 443 437
f 378 456 459
f 494 484 492
f 492 387 494
f 490 387 492
f 484 382 492
f 492 474 490
f 382 474 492
f 540 551 555
f 543 527 540
f 401 543 540
f 540 555 401
f 535 545 365
f 365 527 535
f 365 540 527
f 551 540 365
f 557 567 569
f 557 366 567
f 557 563 366
f 416 599 613
f 416 596 599
f 598 608 606
f 598 453 596
f 596 416 598
f 598 416 608
f 606 377 598
f 598 377 453
f 454 377 606
f 455 377 465
f 462 379 465
f 465 454 462
f 377 454 465
f 383 475 488
f 383 488 493
f 383 476 478
f 493 476 383
f 487 386 485
f 485 440 487
f 487 440 372
f 500 506 505
f 500 389 506
f 463 445 374
f 463 374 455
f 455 465 463
f 463 465 379
f 678 686 356
f 686 445 356
f 371 443 448
f 371 448 438
f 438 448 446
f 466 378 459
f 459 464 466
f 466 379 462
f 466 464 379
f 456 378 458
f 458 440 456
f 372 440 458
f 562 607 406
f 531 365 545
f 531 548 399
f 545 548 531
f 551 365 531
f 399 554 531
f 554 551 531
f 614 563 617
f 617 607 619
f 420 614 617
f 617 619 420
f 617 563 406
f 406 607 617
f 606 608 418
f 619 607 418
f 605 619 418
f 418 608 605
f 613 610 597
f 597 416 613
f 610 369 597
f 369 605 597
f 605 608 597
f 608 416 597
f 604 454 606
f 606 418 604
f 604 418 607
f 607 562 604
f 478 472 477
f 477 383 478
f 475 383 477
f 477 472 371
f 477 438 475
f 371 438 477
f 372 439 481
f 481 487 372
f 559 569 568
f 568 389 559
f 406 563 565
f 563 557 565
f 461 356 445
f 445 463 461
f 379 464 461
f 461 463 379
f 678 356 442
f 442 680 678
f 373 680 442
f 375 464 459
f 459 446 375
f 446 448 375
f 355 446 456
f 456 440 355
f 355 438 446
f 355 440 485
f 485 475 355
f 475 438 355
f 457 466 462
f 378 466 457
f 384 505 480
f 384 500 505
f 386 487 489
f 487 481 489
f 486 386 489
f 481 384 489
f 480 486 489
f 489 384 480
f 556 559 498
f 498 350 556
f 498 559 389
f 389 500 498
f 404 565 557
f 404 557 569
f 569 559 404
f 404 559 556
f 564 562 406
f 406 565 564
f 356 461 447
f 447 442 356
f 447 461 464
f 464 375 447
f 462 454 357
f 357 457 462
f 454 604 357
f 357 604 562
f 479 384 481
f 479 481 439
f 439 350 479
f 500 384 479
f 479 498 500
f 350 498 479
f 558 564 565
f 558 404 556
f 565 404 558
f 562 564 451
f 451 357 562
f 457 357 451
f 373 442 449
f 442 447 449
f 449 443 373
f 449 447 375
f 449 448 443
f 449 375 448
f 450 350 439
f 556 350 450
f 450 558 556
f 376 451 564
f 564 558 376
f 558 450 376
f 452 450 439
f 452 439 372
f 372 458 452
f 452 376 450
f 460 458 378
f 460 452 458
f 378 457 460
f 376 452 460
f 457 451 460
f 451 376 460
f 361 149 497
f 13 149 361
f 170 525 523
f 170 523 169
f 392 173 41
f 571 173 392
f 392 155 511
f 41 155 392
f 184 189 593
f 585 184 593
f 252 66 432
f 677 252 432
f 182 580 178
f 584 580 182
f 46 408 575
f 46 575 176
f 46 173 571
f 571 408 46
f 511 155 153
f 153 510 511
f 120 467 358
f 358 10 120
f 691 10 358
f 691 303 10
f 304 692 683
f 304 683 297
f 410 593 189
f 189 47 410
f 176 575 410
f 410 47 176
f 584 182 49
f 49 413 584
f 232 666 227
f 227 666 662
f 396 45 165
f 165 517 396
f 13 361 165
f 361 517 165
f 166 518 512
f 166 512 157
f 169 523 42
f 523 394 42
f 510 153 42
f 42 394 510
f 178 580 589
f 589 188 178
f 187 188 589
f 588 187 589
f 297 683 687
f 687 302 297
f 312 696 695
f 312 695 310
f 302 687 312
f 312 687 696
f 255 68 433
f 679 255 433
f 310 695 433
f 433 68 310
f 692 304 694
f 694 304 306
f 186 187 588
f 588 586 186
f 467 120 186
f 186 586 467
f 428 252 677
f 428 50 252
f 428 660 195
f 195 50 428
f 190 184 585
f 585 595 190
f 413 49 190
f 595 413 190
f 672 227 662
f 238 227 672
f 525 170 516
f 170 161 516
f 157 512 516
f 516 161 157
f 168 45 396
f 396 519 168
f 518 166 168
f 519 518 168
f 681 255 679
f 681 256 255
f 681 432 66
f 66 256 681
f 436 694 306
f 436 306 80
f 303 691 436
f 80 303 436
f 497 149 670
f 149 234 670
f 62 666 232
f 62 431 666
f 674 431 62
f 62 244 674
f 242 673 233
f 233 673 668
f 674 244 233
f 668 674 233
f 195 660 52
f 660 429 52
f 52 673 242
f 52 429 673
f 238 672 671
f 671 236 238
f 671 670 234
f 671 234 236
