v -2 -2 -0.099999999999999978
v -2 -1.8999999999999999 -0.10999999999999999
v -2 -1.8 -0.11999999999999997
v -2 -1.7 -0.12999999999999998
v -2 -1.6000000000000001 -0.13999999999999996
v -2 -1.5 -0.14999999999999997
v -2 -1.3999999999999999 -0.16
v -2 -1.2999999999999998 -0.17000000000000001
v -2 -1.1000000000000001 -0.18999999999999997
v -2 -0.79999999999999982 -0.22
v -2 -0.69999999999999996 -0.22999999999999998
v -2 -0.59999999999999987 -0.23999999999999999
v -2 -0.5 -0.25
v -2 -0.29999999999999982 -0.27000000000000002
v -2 -0.19999999999999996 -0.27999999999999997
v -2 -0.099999999999999867 -0.28999999999999998
v -2 0 -0.29999999999999999
v -2 0.40000000000000036 -0.34000000000000002
v -2 0.5 -0.34999999999999998
v -2 0.90000000000000036 -0.39000000000000001
v -2 1 -0.40000000000000002
v -2 1.4000000000000004 -0.44000000000000006
v -2 1.5 -0.45000000000000001
v -2 1.9000000000000004 -0.49000000000000005
v -2 2 -0.5
v -1.8999999999999999 -2 -0.084999999999999964
v -1.8999999999999999 -1.8999999999999999 -0.094999999999999973
v -1.8999999999999999 -1.8 -0.10499999999999995
v -1.8999999999999999 -1.7 -0.11499999999999996
v -1.8999999999999999 -1.6000000000000001 -0.12499999999999994
v -1.8999999999999999 -1.5 -0.13499999999999995
v -1.8999999999999999 -1.3999999999999999 -0.14499999999999999
v -1.8999999999999999 -1.2999999999999998 -0.155
v -1.8999999999999999 -1.1000000000000001 -0.17499999999999996
v -1.8999999999999999 -0.79999999999999982 -0.20499999999999999
v -1.8999999999999999 -0.69999999999999996 -0.21499999999999997
v -1.8999999999999999 -0.59999999999999987 -0.22499999999999998
v -1.8999999999999999 -0.5 -0.23499999999999999
v -1.8999999999999999 -0.29999999999999982 -0.255
v -1.8999999999999999 -0.19999999999999996 -0.26499999999999996
v -1.8999999999999999 -0.099999999999999867 -0.27499999999999997
v -1.8999999999999999 0 -0.28499999999999998
v -1.8999999999999999 0.40000000000000036 -0.32500000000000001
v -1.8999999999999999 0.5 -0.33499999999999996
v -1.8999999999999999 0.90000000000000036 -0.375
v -1.8999999999999999 1 -0.38500000000000001
v -1.8999999999999999 1.4000000000000004 -0.42500000000000004
v -1.8999999999999999 1.5 -0.435
v -1.8999999999999999 1.9000000000000004 -0.47500000000000003
v -1.8999999999999999 2 -0.48499999999999999
v -1.8 -2 -0.070000000000000007
v -1.8 -1.8999999999999999 -0.080000000000000016
v -1.8 -1.8 -0.089999999999999997
v -1.8 -1.7 -0.10000000000000001
v -1.8 -1.6000000000000001 -0.10999999999999999
v -1.8 -1.5 -0.12
v -1.8 -1.3999999999999999 -0.13000000000000003
v -1.8 -1.2999999999999998 -0.14000000000000004
v -1.8 -1.1000000000000001 -0.16
v -1.8 -0.79999999999999982 -0.19000000000000003
v -1.8 -0.69999999999999996 -0.20000000000000001
v -1.8 -0.59999999999999987 -0.21000000000000002
v -1.8 -0.5 -0.22000000000000003
v -1.8 -0.29999999999999982 -0.24000000000000005
v -1.8 -0.19999999999999996 -0.25
v -1.8 -0.099999999999999867 -0.26000000000000001
v -1.8 0 -0.27000000000000002
v -1.8 0.40000000000000036 -0.31000000000000005
v -1.8 0.5 -0.32000000000000001
v -1.8 0.90000000000000036 -0.36000000000000004
v -1.8 1 -0.37
v -1.8 1.4000000000000004 -0.41000000000000003
v -1.8 1.5 -0.42000000000000004
v -1.8 1.9000000000000004 -0.46000000000000008
v -1.8 2 -0.47000000000000003
v -1.7 -2 -0.054999999999999993
v -1.7 -1.8999999999999999 -0.065000000000000002
v -1.7 -1.8 -0.074999999999999983
v -1.7 -1.7 -0.084999999999999992
v -1.7 -1.6000000000000001 -0.094999999999999973
v -1.7 -1.5 -0.10499999999999998
v -1.7 -1.3999999999999999 -0.11500000000000002
v -1.7 -1.2999999999999998 -0.12500000000000003
v -1.7 -1.1000000000000001 -0.14499999999999999
v -1.7 -0.79999999999999982 -0.17500000000000002
v -1.7 -0.69999999999999996 -0.185
v -1.7 -0.59999999999999987 -0.19500000000000001
v -1.7 -0.5 -0.20500000000000002
v -1.7 -0.29999999999999982 -0.22500000000000003
v -1.7 -0.19999999999999996 -0.23500000000000001
v -1.7 -0.099999999999999867 -0.24500000000000002
v -1.7 0 -0.255
v -1.7 0.40000000000000036 -0.29500000000000004
v -1.7 0.5 -0.30499999999999999
v -1.7 0.90000000000000036 -0.34500000000000003
v -1.7 1 -0.35499999999999998
v -1.7 1.4000000000000004 -0.39500000000000002
v -1.7 1.5 -0.40500000000000003
v -1.7 1.9000000000000004 -0.44500000000000006
v -1.7 2 -0.45500000000000002
v -1.6000000000000001 -2 -0.03999999999999998
v -1.6000000000000001 -1.8999999999999999 -0.049999999999999989
v -1.6000000000000001 -1.8 -0.05999999999999997
v -1.6000000000000001 -1.7 -0.069999999999999979
v -1.6000000000000001 -1.6000000000000001 -0.07999999999999996
v -1.6000000000000001 -1.5 -0.089999999999999969
v -1.6000000000000001 -1.3999999999999999 -0.10000000000000001
v -1.6000000000000001 -1.2999999999999998 -0.11000000000000001
v -1.6000000000000001 -1.1000000000000001 -0.12999999999999998
v -1.6000000000000001 -0.79999999999999982 -0.16
v -1.6000000000000001 -0.69999999999999996 -0.16999999999999998
v -1.6000000000000001 -0.59999999999999987 -0.17999999999999999
v -1.6000000000000001 -0.5 -0.19
v -1.6000000000000001 -0.29999999999999982 -0.21000000000000002
v -1.6000000000000001 -0.19999999999999996 -0.22
v -1.6000000000000001 -0.099999999999999867 -0.23000000000000001
v -1.6000000000000001 0 -0.23999999999999999
v -1.6000000000000001 0.40000000000000036 -0.28000000000000003
v -1.6000000000000001 0.5 -0.28999999999999998
v -1.6000000000000001 0.90000000000000036 -0.33000000000000002
v -1.6000000000000001 1 -0.33999999999999997
v -1.6000000000000001 1.4000000000000004 -0.38
v -1.6000000000000001 1.5 -0.39000000000000001
v -1.6000000000000001 1.9000000000000004 -0.43000000000000005
v -1.6000000000000001 2 -0.44
v -1.5 -2 -0.024999999999999967
v -1.5 -1.8999999999999999 -0.034999999999999976
v -1.5 -1.8 -0.044999999999999957
v -1.5 -1.7 -0.054999999999999966
v -1.5 -1.6000000000000001 -0.064999999999999947
v -1.5 -1.5 -0.074999999999999956
v -1.5 -1.3999999999999999 -0.084999999999999992
v -1.5 -1.2999999999999998 -0.095000000000000001
v -1.5 -1.1000000000000001 -0.11499999999999996
v -1.5 -0.79999999999999982 -0.14499999999999999
v -1.5 -0.69999999999999996 -0.15499999999999997
v -1.5 -0.59999999999999987 -0.16499999999999998
v -1.5 -0.29999999999999982 -0.19500000000000001
v -1.5 -0.19999999999999996 -0.20499999999999999
v -1.5 -0.099999999999999867 -0.215
v -1.5 0 -0.22499999999999998
v -1.5 0.30000000000000027 -0.255
v -1.5 0.40000000000000036 -0.26500000000000001
v -1.5 0.5 -0.27499999999999997
v -1.5 0.90000000000000036 -0.315
v -1.5 1 -0.32499999999999996
v -1.5 1.4000000000000004 -0.36499999999999999
v -1.5 1.9000000000000004 -0.41500000000000004
v -1.5 2 -0.42499999999999999
v -1.3999999999999999 -2 -0.0099999999999999811
v -1.3999999999999999 -1.8999999999999999 -0.01999999999999999
v -1.3999999999999999 -1.8 -0.029999999999999971
v -1.3999999999999999 -1.7 -0.03999999999999998
v -1.3999999999999999 -1.6000000000000001 -0.049999999999999961
v -1.3999999999999999 -1.5 -0.05999999999999997
v -1.3999999999999999 -1.3999999999999999 -0.070000000000000007
v -1.3999999999999999 -1.2999999999999998 -0.080000000000000016
v -1.3999999999999999 -0.79999999999999982 -0.13
v -1.3999999999999999 -0.69999999999999996 -0.14000000000000001
v -1.3999999999999999 -0.59999999999999987 -0.14999999999999999
v -1.3999999999999999 -0.5 -0.15999999999999998
v -1.3999999999999999 -0.19999999999999996 -0.19
v -1.3999999999999999 -0.099999999999999867 -0.20000000000000001
v -1.3999999999999999 0 -0.20999999999999999
v -1.3999999999999999 0.30000000000000027 -0.24000000000000002
v -1.3999999999999999 0.40000000000000036 -0.25
v -1.3999999999999999 0.5 -0.26000000000000001
v -1.3999999999999999 0.90000000000000036 -0.30000000000000004
v -1.3999999999999999 1 -0.31
v -1.3999999999999999 1.4000000000000004 -0.35000000000000003
v -1.3999999999999999 1.5 -0.35999999999999999
v -1.3999999999999999 2 -0.41000000000000003
v -1.2999999999999998 -2 0.0050000000000000322
v -1.2999999999999998 -1.8999999999999999 -0.0049999999999999767
v -1.2999999999999998 -1.8 -0.014999999999999958
v -1.2999999999999998 -1.7 -0.024999999999999967
v -1.2999999999999998 -1.6000000000000001 -0.034999999999999948
v -1.2999999999999998 -1.5 -0.044999999999999957
v -1.2999999999999998 -1.3999999999999999 -0.054999999999999993
v -1.2999999999999998 -0.69999999999999996 -0.12499999999999999
v -1.2999999999999998 -0.59999999999999987 -0.13499999999999998
v -1.2999999999999998 -0.5 -0.14499999999999996
v -1.2999999999999998 -0.29999999999999982 -0.16499999999999998
v -1.2999999999999998 -0.19999999999999996 -0.17499999999999999
v -1.2999999999999998 -0.099999999999999867 -0.185
v -1.2999999999999998 0 -0.19499999999999998
v -1.2999999999999998 0.40000000000000036 -0.23500000000000001
v -1.2999999999999998 0.5 -0.245
v -1.2999999999999998 0.90000000000000036 -0.28500000000000003
v -1.2999999999999998 1 -0.29499999999999998
v -1.2999999999999998 1.4000000000000004 -0.33500000000000002
v -1.2999999999999998 1.5 -0.34499999999999997
v -1.2999999999999998 1.9000000000000004 -0.38500000000000001
v -1.2999999999999998 2 -0.39500000000000002
v -1.2 -0.59999999999999987 -0.12
v -1.2 -0.5 -0.13
v -1.2 -0.29999999999999982 -0.15000000000000002
v -1.2 -0.19999999999999996 -0.16
v -1.2 0.40000000000000036 -0.22000000000000003
v -1.2 0.5 -0.22999999999999998
v -1.2 0.90000000000000036 -0.27000000000000002
v -1.2 1 -0.28000000000000003
v -1.2 1.4000000000000004 -0.32000000000000006
v -1.2 1.9000000000000004 -0.37000000000000005
v -1.2 2 -0.38
v -1.1000000000000001 -2 0.035000000000000003
v -1.1000000000000001 -1.8999999999999999 0.024999999999999994
v -1.1000000000000001 -1.8 0.015000000000000013
v -1.1000000000000001 -1.7 0.0050000000000000044
v -1.1000000000000001 -1.6000000000000001 -0.0049999999999999767
v -1.1000000000000001 -0.5 -0.115
v -1.1000000000000001 -0.39999999999999991 -0.125
v -1.1000000000000001 -0.29999999999999982 -0.13500000000000001
v -1.1000000000000001 -0.19999999999999996 -0.14500000000000002
v -1.1000000000000001 -0.099999999999999867 -0.15500000000000003
v -1.1000000000000001 0 -0.16500000000000001
v -1.1000000000000001 0.40000000000000036 -0.20500000000000004
v -1.1000000000000001 0.5 -0.21500000000000002
v -1.1000000000000001 0.90000000000000036 -0.25500000000000006
v -1.1000000000000001 1 -0.26500000000000001
v -1.1000000000000001 1.4000000000000004 -0.30500000000000005
v -1.1000000000000001 1.5 -0.31500000000000006
v -1.1000000000000001 1.9000000000000004 -0.35500000000000009
v -1.1000000000000001 2 -0.36499999999999999
v -1 -0.39999999999999991 -0.11
v -1 -0.29999999999999982 -0.12000000000000001
v -1 -0.19999999999999996 -0.13
v -0.79999999999999982 -2 0.080000000000000043
v -0.79999999999999982 -1.8999999999999999 0.070000000000000034
v -0.79999999999999982 -1.8 0.060000000000000053
v -0.79999999999999982 -1.7 0.050000000000000044
v -0.79999999999999982 -1.6000000000000001 0.040000000000000063
v -0.79999999999999982 -0.19999999999999996 -0.099999999999999978
v -0.79999999999999982 -0.099999999999999867 -0.10999999999999999
v -0.79999999999999982 0 -0.11999999999999997
v -0.79999999999999982 0.10000000000000009 -0.12999999999999998
v -0.79999999999999982 0.40000000000000036 -0.16
v -0.79999999999999982 0.5 -0.16999999999999998
v -0.79999999999999982 0.90000000000000036 -0.21000000000000002
v -0.79999999999999982 1 -0.21999999999999997
v -0.79999999999999982 1.4000000000000004 -0.26000000000000001
v -0.79999999999999982 1.5 -0.27000000000000002
v -0.79999999999999982 1.9000000000000004 -0.31000000000000005
v -0.79999999999999982 2 -0.31999999999999995
v -0.69999999999999996 -2 0.095000000000000015
v -0.69999999999999996 -1.8999999999999999 0.085000000000000006
v -0.69999999999999996 -1.8 0.075000000000000025
v -0.69999999999999996 -1.7 0.065000000000000016
v -0.69999999999999996 -1.6000000000000001 0.055000000000000035
v -0.69999999999999996 -1.5 0.045000000000000026
v -0.69999999999999996 -0.099999999999999867 -0.095000000000000001
v -0.69999999999999996 0 -0.105
v -0.69999999999999996 0.10000000000000009 -0.115
v -0.69999999999999996 0.20000000000000018 -0.125
v -0.69999999999999996 0.90000000000000036 -0.19500000000000003
v -0.69999999999999996 1 -0.20500000000000002
v -0.69999999999999996 1.4000000000000004 -0.24500000000000005
v -0.69999999999999996 1.5 -0.255
v -0.69999999999999996 1.9000000000000004 -0.29500000000000004
v -0.69999999999999996 2 -0.30499999999999999
v -0.59999999999999987 -2 0.11000000000000003
v -0.59999999999999987 -1.8999999999999999 0.10000000000000002
v -0.59999999999999987 -1.8 0.090000000000000038
v -0.59999999999999987 -1.7 0.080000000000000029
v -0.59999999999999987 -1.6000000000000001 0.070000000000000048
v -0.59999999999999987 -1.5 0.060000000000000039
v -0.59999999999999987 0 -0.089999999999999983
v -0.59999999999999987 0.90000000000000036 -0.18000000000000002
v -0.59999999999999987 1 -0.19
v -0.59999999999999987 1.4000000000000004 -0.23000000000000004
v -0.59999999999999987 1.5 -0.23999999999999999
v -0.59999999999999987 1.9000000000000004 -0.28000000000000003
v -0.59999999999999987 2 -0.28999999999999998
v -0.5 -2 0.125
v -0.5 -1.8999999999999999 0.115
v -0.5 -1.8 0.10500000000000002
v -0.5 -1.7 0.095000000000000015
v -0.5 -1.6000000000000001 0.085000000000000034
v -0.5 -1.5 0.075000000000000025
v -0.5 -1.3999999999999999 0.064999999999999988
v -0.5 0.90000000000000036 -0.16500000000000004
v -0.5 1 -0.17499999999999999
v -0.5 1.4000000000000004 -0.21500000000000002
v -0.5 1.5 -0.22500000000000003
v -0.5 1.9000000000000004 -0.26500000000000007
v -0.5 2 -0.27500000000000002
v -0.39999999999999991 -1.8999999999999999 0.13
v -0.39999999999999991 -1.8 0.12000000000000004
v -0.39999999999999991 -1.7 0.11000000000000003
v -0.29999999999999982 -2 0.15500000000000003
v -0.29999999999999982 -1.8999999999999999 0.14500000000000002
v -0.29999999999999982 -1.8 0.13500000000000006
v -0.29999999999999982 -1.7 0.12500000000000006
v -0.29999999999999982 -1.6000000000000001 0.11500000000000006
v -0.29999999999999982 -1.5 0.10500000000000005
v -0.29999999999999982 -1.3999999999999999 0.095000000000000015
v -0.29999999999999982 -1.2999999999999998 0.085000000000000006
v -0.29999999999999982 0.90000000000000036 -0.13500000000000001
v -0.29999999999999982 1 -0.14499999999999996
v -0.29999999999999982 1.4000000000000004 -0.185
v -0.29999999999999982 1.5 -0.19500000000000001
v -0.29999999999999982 1.9000000000000004 -0.23500000000000004
v -0.29999999999999982 2 -0.245
v -0.19999999999999996 -2 0.17000000000000001
v -0.19999999999999996 -1.8999999999999999 0.16
v -0.19999999999999996 -1.8 0.15000000000000002
v -0.19999999999999996 -1.7 0.14000000000000001
v -0.19999999999999996 -1.6000000000000001 0.13000000000000003
v -0.19999999999999996 -1.5 0.12000000000000002
v -0.19999999999999996 -1.3999999999999999 0.10999999999999999
v -0.19999999999999996 -1.2999999999999998 0.099999999999999978
v -0.19999999999999996 -1.1000000000000001 0.080000000000000016
v -0.19999999999999996 0.90000000000000036 -0.12000000000000002
v -0.19999999999999996 1 -0.13
v -0.19999999999999996 1.4000000000000004 -0.17000000000000004
v -0.19999999999999996 1.5 -0.18000000000000002
v -0.19999999999999996 1.9000000000000004 -0.22000000000000006
v -0.19999999999999996 2 -0.23000000000000001
v -0.099999999999999867 -2 0.18500000000000003
v -0.099999999999999867 -1.8999999999999999 0.17500000000000002
v -0.099999999999999867 -1.8 0.16500000000000004
v -0.099999999999999867 -1.7 0.15500000000000003
v -0.099999999999999867 -1.6000000000000001 0.14500000000000005
v -0.099999999999999867 -1.5 0.13500000000000004
v -0.099999999999999867 -1.3999999999999999 0.125
v -0.099999999999999867 -1.2999999999999998 0.11499999999999999
v -0.099999999999999867 -1.1000000000000001 0.095000000000000029
v -0.099999999999999867 0.90000000000000036 -0.10500000000000001
v -0.099999999999999867 1 -0.11499999999999999
v -0.099999999999999867 1.4000000000000004 -0.15500000000000003
v -0.099999999999999867 1.5 -0.16500000000000001
v -0.099999999999999867 1.9000000000000004 -0.20500000000000004
v -0.099999999999999867 2 -0.215
v 0 -2 0.20000000000000001
v 0 -1.8999999999999999 0.19
v 0 -1.8 0.18000000000000002
v 0 -1.7 0.17000000000000001
v 0 -1.6000000000000001 0.16000000000000003
v 0 -1.5 0.15000000000000002
v 0 -1.3999999999999999 0.13999999999999999
v 0 -1.2999999999999998 0.12999999999999998
v 0 -1.1000000000000001 0.11000000000000001
v 0 0.90000000000000036 -0.090000000000000038
v 0 1 -0.10000000000000001
v 0 1.4000000000000004 -0.14000000000000004
v 0 1.5 -0.15000000000000002
v 0 1.9000000000000004 -0.19000000000000006
v 0 2 -0.20000000000000001
v 0.40000000000000036 -2 0.26000000000000006
v 0.40000000000000036 -1.8999999999999999 0.25000000000000006
v 0.40000000000000036 -1.8 0.24000000000000007
v 0.40000000000000036 -1.7 0.23000000000000007
v 0.40000000000000036 -1.6000000000000001 0.22000000000000008
v 0.40000000000000036 -1.5 0.21000000000000008
v 0.40000000000000036 -1.3999999999999999 0.20000000000000004
v 0.40000000000000036 -1.2999999999999998 0.19000000000000003
v 0.40000000000000036 1 -0.039999999999999952
v 0.40000000000000036 1.4000000000000004 -0.079999999999999988
v 0.40000000000000036 1.5 -0.089999999999999969
v 0.40000000000000036 1.9000000000000004 -0.13
v 0.40000000000000036 2 -0.13999999999999996
v 0.5 -2 0.27500000000000002
v 0.5 -1.8999999999999999 0.26500000000000001
v 0.5 -1.8 0.255
v 0.5 -1.7 0.245
v 0.5 -1.6000000000000001 0.23500000000000004
v 0.5 -1.5 0.22500000000000003
v 0.5 1.4000000000000004 -0.065000000000000044
v 0.5 1.5 -0.075000000000000025
v 0.5 1.9000000000000004 -0.11500000000000006
v 0.5 2 -0.125
v 0.60000000000000009 2 -0.11
v 0.80000000000000027 -1.7 0.29000000000000004
v 0.80000000000000027 1.4000000000000004 -0.020000000000000004
v 0.80000000000000027 1.5 -0.029999999999999985
v 0.80000000000000027 1.9000000000000004 -0.070000000000000021
v 0.80000000000000027 2 -0.079999999999999974
v 0.90000000000000036 -2 0.33500000000000008
v 0.90000000000000036 -1.8999999999999999 0.32500000000000007
v 0.90000000000000036 -1.8 0.31500000000000006
v 0.90000000000000036 -1.7 0.30500000000000005
v 0.90000000000000036 0 0.13500000000000004
v 0.90000000000000036 1.5 -0.014999999999999986
v 0.90000000000000036 1.9000000000000004 -0.055000000000000021
v 0.90000000000000036 2 -0.064999999999999974
v 1 -2 0.34999999999999998
v 1 -1.8999999999999999 0.33999999999999997
v 1 -1.8 0.33000000000000002
v 1 -1.7 0.32000000000000001
v 1 -0.099999999999999867 0.15999999999999998
v 1 0 0.14999999999999999
v 1 1.5 -2.7755575615628914e-17
v 1 1.9000000000000004 -0.040000000000000063
v 1 2 -0.050000000000000017
v 1.4000000000000004 -2 0.41000000000000003
v 1.4000000000000004 -1.8999999999999999 0.40000000000000002
v 1.4000000000000004 -1.8 0.39000000000000007
v 1.4000000000000004 -1.7 0.38000000000000006
v 1.4000000000000004 -1.6000000000000001 0.37000000000000011
v 1.4000000000000004 -0.29999999999999982 0.24000000000000005
v 1.4000000000000004 -0.19999999999999996 0.23000000000000004
v 1.4000000000000004 -0.099999999999999867 0.22000000000000003
v 1.4000000000000004 0 0.21000000000000005
v 1.4000000000000004 0.40000000000000036 0.17000000000000001
v 1.4000000000000004 0.5 0.16000000000000003
v 1.4000000000000004 1.4000000000000004 0.070000000000000007
v 1.4000000000000004 1.5 0.060000000000000026
v 1.4000000000000004 1.9000000000000004 0.01999999999999999
v 1.4000000000000004 2 0.010000000000000037
v 1.5 -2 0.42499999999999999
v 1.5 -1.8999999999999999 0.41499999999999998
v 1.5 -1.8 0.40500000000000003
v 1.5 -1.7 0.39500000000000002
v 1.5 -1.6000000000000001 0.38500000000000001
v 1.5 -0.5 0.27499999999999997
v 1.5 -0.29999999999999982 0.25499999999999995
v 1.5 -0.19999999999999996 0.24499999999999997
v 1.5 -0.099999999999999867 0.23499999999999996
v 1.5 0 0.22499999999999998
v 1.5 0.40000000000000036 0.18499999999999994
v 1.5 0.5 0.17499999999999999
v 1.5 1.4000000000000004 0.084999999999999937
v 1.5 1.5 0.074999999999999956
v 1.5 1.9000000000000004 0.03499999999999992
v 1.5 2 0.024999999999999967
v 1.6000000000000001 -0.19999999999999996 0.26000000000000001
v 1.6000000000000001 -0.099999999999999867 0.24999999999999997
v 1.7000000000000002 -0.099999999999999867 0.26500000000000001
v 1.7000000000000002 0 0.255
v 1.9000000000000004 -2 0.48500000000000004
v 1.9000000000000004 -1.8999999999999999 0.47500000000000003
v 1.9000000000000004 -1.8 0.46500000000000008
v 1.9000000000000004 -1.7 0.45500000000000007
v 1.9000000000000004 -1.6000000000000001 0.44500000000000006
v 1.9000000000000004 -1.5 0.43500000000000005
v 1.9000000000000004 -1.2999999999999998 0.41500000000000004
v 1.9000000000000004 -1.2 0.40500000000000003
v 1.9000000000000004 -1.1000000000000001 0.39500000000000002
v 1.9000000000000004 -0.79999999999999982 0.36499999999999999
v 1.9000000000000004 -0.69999999999999996 0.35500000000000004
v 1.9000000000000004 -0.59999999999999987 0.34500000000000003
v 1.9000000000000004 -0.5 0.33500000000000002
v 1.9000000000000004 -0.29999999999999982 0.315
v 1.9000000000000004 -0.19999999999999996 0.30500000000000005
v 1.9000000000000004 -0.099999999999999867 0.29500000000000004
v 1.9000000000000004 0 0.28500000000000003
v 1.9000000000000004 0.40000000000000036 0.245
v 1.9000000000000004 0.5 0.23500000000000004
v 1.9000000000000004 0.90000000000000036 0.19500000000000001
v 1.9000000000000004 1 0.18500000000000003
v 1.9000000000000004 1.4000000000000004 0.14499999999999999
v 1.9000000000000004 1.5 0.13500000000000001
v 1.9000000000000004 1.9000000000000004 0.094999999999999973
v 1.9000000000000004 2 0.08500000000000002
v 2 -2 0.5
v 2 -1.8999999999999999 0.48999999999999999
v 2 -1.8 0.47999999999999998
v 2 -1.7 0.46999999999999997
v 2 -1.6000000000000001 0.46000000000000002
v 2 -1.5 0.45000000000000001
v 2 -1.3999999999999999 0.43999999999999995
v 2 -1.2999999999999998 0.42999999999999994
v 2 -1.2 0.41999999999999998
v 2 -1.1000000000000001 0.41000000000000003
v 2 -0.79999999999999982 0.38
v 2 -0.69999999999999996 0.37
v 2 -0.59999999999999987 0.35999999999999999
v 2 -0.5 0.34999999999999998
v 2 -0.29999999999999982 0.32999999999999996
v 2 -0.19999999999999996 0.32000000000000001
v 2 -0.099999999999999867 0.31
v 2 0 0.29999999999999999
v 2 0.40000000000000036 0.25999999999999995
v 2 0.5 0.25
v 2 0.90000000000000036 0.20999999999999996
v 2 1 0.19999999999999998
v 2 1.4000000000000004 0.15999999999999995
v 2 1.5 0.14999999999999997
v 2 1.9000000000000004 0.10999999999999993
v 2 2 0.099999999999999978
v -2 -2 -0.90000000000000002
v -2 2 -0.90000000000000002
v 2 -2 -0.90000000000000002
v 2 2 -0.90000000000000002
v 1 -1.3680117784833934 -0.095455565846428003
v 1.595455565846428 -1 0.1319882215166065
v 0.78368810393753674 -1.5663118960624631 0.14999999999999997
v 1.2163118960624633 -1.5663118960624631 0.14999999999999997
v 1 -1 -0.19999999999999996
v 1.5663118960624631 -0.64999999999999991 0.2836881039375368
v 1.5663118960624631 -1.3500000000000001 0.2836881039375368
v 1.3500000000000001 -1.2163118960624633 -0.066311896062463127
v 1.3500000000000001 -0.78368810393753674 -0.066311896062463127
v 0.88756457505198383 -1.4856463342923145 0.0085674886566858843
v 1.3037219951868864 -1.6038679362913304 0.31807566089457195
v 1.1124354249480162 -1.4856463342923145 0.0085674886566858843
v 1.1137218936815172 -1.6657395614066075 0.31599411075830325
v 1 -1.595455565846428 0.13198822151660644
v 1 -1.1912865702388702 -0.17335685044874227
v 1.6038679362913304 -0.81807566089457184 0.19627800481311364
v 1.4114496766047313 -0.5182663278350893 0.202272217076786
v 1.6038679362913304 -1.1819243391054282 0.19627800481311364
v 1.4114496766047313 -1.4817336721649106 0.202272217076786
v 1.1819243391054282 -1.3037219951868864 -0.10386793629133029
v 1.491432511343314 -1.1124354249480162 0.014353665707685648
v 1.2977277829232139 -1.4114496766047311 0.018266327835089302
v 1.1840058892416967 -1.1137218936815172 -0.16573956140660751
v 1.4817336721649106 -1.2977277829232139 0.088550323395268804
v 1.491432511343314 -0.88756457505198383 0.014353665707685648
v 1.1840058892416967 -0.88627810631848281 -0.16573956140660751
v 1.4817336721649106 -0.702272217076786 0.088550323395268804
v 1.3680117784833936 -1 -0.095455565846427892
v 1.6733568504487422 -1 0.30871342976112981
v 0.58855032339526869 -1.4817336721649106 0.202272217076786
v 0.81807566089457184 -1.3037219951868864 -0.10386793629133029
v 0.702272217076786 -1.4114496766047311 0.018266327835089302
v 0.81599411075830319 -1.1137218936815172 -0.16573956140660751
v 0.73747300276525318 -1.5907380322356732 0.23147038712046658
v 0.94323959458968754 -1.4309494146115764 -0.0486901296939799
v 0.83403957225459679 -1.53105661011428 0.075222395509730089
v 0.83292614877628479 -1.6237045669318575 0.22966883008868555
v 1.2625269972347468 -1.5907380322356732 0.23147038712046658
v 1.0567604054103124 -1.4309494146115764 -0.0486901296939799
v 1.1659604277454032 -1.53105661011428 0.075222395509730089
v 1 -1.4920349213414412 0.0021027855264486583
v 1.1670738512237153 -1.6237045669318575 0.22966883008868555
v 1 -1.6747028844273357 0.31351670920580288
v 1.2108812153652624 -1.6413709226338509 0.31514207453865417
v 0.89049587447183842 -1.5881245197289973 0.13651905719027163
v 1.1095041255281617 -1.5881245197289973 0.13651905719027163
v 0.94320070386604227 -1.5461430594970886 0.065832292170587114
v 0.94237349397762793 -1.6390877450526093 0.22027506380870421
v 1.0567992961339576 -1.5461430594970886 0.065832292170587114
v 1.0576265060223722 -1.6390877450526093 0.22027506380870421
v 1 -1.282348744032155 -0.14053039486308883
v 1 -1.0965665694893436 -0.19330721736980327
v 1.6054505351042923 -0.90815973483089096 0.16089085055753249
v 1.590738032235673 -0.73147038712046653 0.23747300276525324
v 1.4949747468305832 -0.57894933149471806 0.23977637587787087
v 1.53105661011428 -1.42477760449027 0.33403957225459679
v 1.3998761613949959 -1.5548544604814971 0.35088399404560922
v 1.6054505351042923 -1.091840265169109 0.16089085055753249
v 1.590738032235673 -1.2685296128795334 0.23747300276525324
v 1.3177933498176828 -1.5305547940334434 0.17209910439313197
v 1.4949747468305832 -1.4210506685052819 0.23977637587787087
v 1.3612851340357426 -1.5484161888543193 0.25769288964770554
v 1.4531883257175569 -1.4916168927203617 0.29279678519556196
v 1.091840265169109 -1.3391091494424674 -0.10545053510429236
v 1.2685296128795334 -1.2625269972347468 -0.090738032235673005
v 1.1491160059543908 -1.3998761613949959 -0.054854460481496892
v 1.0921587599464453 -1.2507601554406054 -0.14701322042794218
v 1.5486901296939799 -1.0567604054103126 0.069050585388423624
v 1.42477760449027 -1.1659604277454032 -0.03105661011428007
v 1.5548544604814971 -1.1491160059543908 0.10012383860500396
v 1.2602236241221292 -1.4949747468305832 0.078949331494718
v 1.3279008956068681 -1.3177933498176828 -0.030554794033443522
v 1.207203214804438 -1.4531883257175569 0.0083831072796385353
v 1.3593628088613134 -1.4526044542584122 0.10502205176395996
v 1.2423071103522945 -1.3612851340357428 -0.048416188854319198
v 1.0931497728984139 -1.0575697256955536 -0.19138183841659639
v 1.2703311699113145 -1.1670738512237153 -0.1237045669318575
v 1.0929547337795318 -1.1540819192313048 -0.17647481818170729
v 1.1848579254613458 -1.2108812153652624 -0.14137092263385098
v 1.5305547940334434 -1.3279008956068681 0.18220665018231724
v 1.4210506685052819 -1.2602236241221292 0.0050252531694168212
v 1.5484161888543193 -1.2423071103522945 0.13871486596425725
v 1.4526044542584122 -1.39497794823604 0.1406371911386865
v 1.4916168927203615 -1.207203214804438 0.046811674282443261
v 1.39497794823604 -1.3593628088613134 0.047395545741587886
v 1.2685296128795334 -0.73747300276525318 -0.090738032235673005
v 1.5486901296939799 -0.94323959458968754 0.069050585388423624
v 1.42477760449027 -0.83403957225459679 -0.03105661011428007
v 1.5548544604814971 -0.85088399404560922 0.10012383860500396
v 1.4978972144735514 -1 0.0079650786585587774
v 1.3279008956068681 -0.68220665018231719 -0.030554794033443522
v 1.0931497728984139 -0.94243027430444637 -0.19138183841659639
v 1.2703311699113145 -0.83292614877628479 -0.1237045669318575
v 1.0929547337795318 -0.84591808076869535 -0.17647481818170729
v 1.1864832907941971 -1 -0.17470288442733573
v 1.1848579254613458 -0.7891187846347375 -0.14137092263385098
v 1.5305547940334434 -0.67209910439313192 0.18220665018231724
v 1.4210506685052819 -0.73977637587787082 0.0050252531694168212
v 1.5484161888543193 -0.75769288964770554 0.13871486596425725
v 1.4526044542584122 -0.60502205176395996 0.1406371911386865
v 1.4916168927203615 -0.79279678519556196 0.046811674282443261
v 1.39497794823604 -0.64063719113868656 0.047395545741587886
v 1.3634809428097285 -1.1095041255281617 -0.088124519728997153
v 1.3634809428097285 -0.89049587447183842 -0.088124519728997153
v 1.4341677078294128 -1.0567992961339578 -0.046143059497088634
v 1.2797249361912959 -1.0576265060223722 -0.13908774505260935
v 1.4341677078294128 -0.94320070386604227 -0.046143059497088634
v 1.2797249361912959 -0.94237349397762793 -0.13908774505260935
v 1.6405303948630889 -1 0.21765125596784496
v 1.6470132204279422 -0.90784124005355471 0.24923984455939474
v 1.6470132204279422 -1.0921587599464453 0.24923984455939474
v 1.6413709226338509 -0.81514207453865406 0.2891187846347375
v 1.6237045669318575 -1.2703311699113145 0.33292614877628479
v 1.6413709226338509 -1.1848579254613458 0.2891187846347375
v 1.6764748181817073 -1.0929547337795318 0.34591808076869535
v 0.68220665018231719 -1.5305547940334434 0.17209910439313197
v 0.90815973483089096 -1.3391091494424674 -0.10545053510429236
v 0.73147038712046653 -1.2625269972347468 -0.090738032235673005
v 0.85088399404560922 -1.3998761613949959 -0.054854460481496892
v 0.90784124005355471 -1.2507601554406054 -0.14701322042794218
v 0.73977637587787082 -1.4949747468305832 0.078949331494718
v 0.67209910439313192 -1.3177933498176828 -0.030554794033443522
v 0.79279678519556196 -1.4531883257175569 0.0083831072796385353
v 0.64063719113868645 -1.4526044542584122 0.10502205176395996
v 0.75769288964770554 -1.3612851340357428 -0.048416188854319198
v 0.90685022710158603 -1.0575697256955536 -0.19138183841659639
v 0.90704526622046833 -1.1540819192313048 -0.17647481818170729
v 0.81514207453865406 -1.2108812153652624 -0.14137092263385098
v 0.54739554574158789 -1.39497794823604 0.1406371911386865
v 0.60502205176395996 -1.3593628088613134 0.047395545741587886
v 0.95715297845357261 -0.099999999999999867 0.15357294676803587
v 0.96485326069945621 -0.1063741265035949 0.15536540175527791
v 0.011351990125421055 -0.79999999999999982 0.081702798518813138
v 1.6716245904158247 -1.1340919745172324 0.3641528860140969
v 1.6775947900779158 -1.1000000000000001 0.36163921851168729
v 1.6788231791809178 -1.092985459052114 0.36112202278234901
v -0.80125058783257452 0.54646788505173682 -0.17483437668005988
v -0.79999999999999982 0.54242025779049308 -0.17424202577904929
v -0.80772358987272941 0.57442460261909123 -0.17860099874281854
v -0.80471393393116375 0.55767728092032731 -0.17647481818170729
v 0.90158172555252702 -0.053999323058074748 0.1406371911386865
v 0.90000000000000036 -0.052777080585667803 0.14027770805856679
v 0.63014391125984937 -1.5370230254593804 0.24822388923491548
v 0.64210635397368498 -1.5470233578298911 0.25101828887904187
v 1 -1.6754222551618543 0.31754222551618549
v 1.0027412504347899 -1.6754970725066167 0.31796089481588019
v 0 0.59126968175581474 -0.059126968175581468
v -0.82247690100201143 0.69124749340077996 -0.19249628449037973
v -0.82581515310397258 0.67509565451000497 -0.19138183841659639
v 1.0779582721913217 -0.19999999999999996 0.18169374082869827
v -0.79999999999999993 0.7999999999999996 -0.19999999999999993
v 0.58974156282789558 -1.5 0.23846123442418435
v 0.57365652968096426 -1.4852603471128221 0.23457451416342684
v -0.69999999999999996 0.28257850158055731 -0.13325785015805569
v 0.15585136921304235 -0.98463809550084924 0.12184151493204128
v 1 -0.13546783441414578 0.16354678344141457
v 0.53765667356986946 -1.4447581924645574 0.22512432028193616
v 1.1929310038221872 -1.6524647634727221 0.34418612692060035
v 1.1034812677452646 -1.6704160142744418 0.33256379158923388
v 1.1222043126255685 -1.6679957776551833 0.33513022465935366
v -0.7368271670763209 0.36303472806319104 -0.14682754786776722
v -0.72377934686604728 0.32804020603943895 -0.14137092263385098
v 1.4413512897512906 -1.5241860661871125 0.36862130008140481
v 1.405007313470813 -1.5538365394258571 0.36613475096320769
v -0.75060978773700582 0.40000000000000036 -0.15259146816055091
v 1.4800243696319793 -1.4914644475473915 0.37115010019953604
v -0.78204935879571547 0.48432157587250158 -0.16573956140660748
v -0.78689349220580873 0.5 -0.16803402383087132
v 1.1976778393870895 -0.29999999999999982 0.20965167590806338
v 1.2250580743459283 -1.6433767447545649 0.34809638562734568
v 0.24760581976946575 -1.1000000000000003 0.14714087296541989
v 1.1663622078150009 -0.27317885904535882 0.20227221707678603
v 1.1851548391294524 -0.28927432920163554 0.20670065878958144
v -0.79999999999999982 0.79999999999999982 -0.19999999999999996
v 1.594880925358747 -0.68965769681609401 0.30819790848542145
v 1.569693198983855 -0.64791023986832053 0.30024500383441027
v 0.2235158035569651 -1.0710982060514174 0.1406371911386865
v 1.2822473148121383 -1.6213622527831684 0.35447332250013758
v 1.6825547841949375 -1 0.35238321762924057
v 1.6803627247810842 -1.0714842755955125 0.35920283627671379
v -0.71478422617353654 0.85032262090030364 -0.19224989601606085
v -0.69999999999999996 0.85586095087152381 -0.19058609508715238
v -0.70523955422879858 0.85595905282276608 -0.19138183841659639
v -0.59999999999999998 0.091397033414192835 -0.099139703341419277
v 1.6762213345222952 -0.91460227389216298 0.34289342756756058
v 1.571298468653062 -1.3815538101564437 0.37385015131360366
v 1.5847243528682438 -1.3613795241223619 0.37384660534247272
v 0.4000000000000003 -1.282833633532408 0.18828336335324083
v -0.62146072015292864 0.13242595328163678 -0.10646170335110297
v -0.63729734837512297 0.16270265162487699 -0.11186486741875615
v 1.5364808099981924 -1.4281537333692191 0.37328749483665075
v 1.3195589983694735 -1.6045762052370787 0.35839147027912893
v 1.3275562495095539 -1.6000000000000001 0.35913343742643311
v -0.65680622061721061 0.20000000000000018 -0.1185209330925816
v 1.5 -1.470717863201968 0.37207178632019683
v 1.4988235790619848 -1.4720904569998066 0.3720325825592784
v 1.3854274301110701 -1.5668848214085298 0.36450259665751356
v 1.4000000000000004 -1.557173476472026 0.36571734764720265
v 1.4000000000000006 -0.47438734800109755 0.25743873480010987
v -0.62111593190805547 0.85438397770476082 -0.17860578755668444
v -0.6070846115224946 0.85412126453333115 -0.17647481818170729
v -0.59999999999999987 0.85271747053749314 -0.17527174705374932
v 1.3255156696458295 -0.40949025430996439 0.23977637587787087
v 0.4995393841017694 -1.4004606158982307 0.21497696920508844
v 0.5 -1.4009959154513798 0.21509959154513794
v 0.49914303218170042 -1.3999999999999999 0.21487145482725503
v 0.46047545032354392 -1.3550629073604541 0.20457760828457699
v -0.57537477298840412 0.044318162874123886 -0.090738032235673005
v 1.5572303539785133 -0.63073775481176186 0.29665832857795316
v 0.43459599655052555 -1.3243398888594722 0.19762338836852603
v 0.41430838678213949 -1.2999999999999996 0.19214625801732088
v 0.45181552879928727 -1.344998877568929 0.20227221707678597
v 0.40780381053708042 -1.2921961894629197 0.19039019052685402
v -0.54386713245714446 0.84159491538035847 -0.16573956140660751
v -0.52391508334902603 0.83595030209121901 -0.1621822927114758
v -0.5 0.8291845109410827 -0.15791845109410826
v 1.5121069812864767 -0.57717972385015481 0.28453401957798696
v 1.5313333756694743 -0.59999999999999987 0.28970000635042115
v 1.467126407498238 -0.53287359250176214 0.27335632037491192
v 1.4682919187940322 -0.53388908522891121 0.27363269634199594
v 1.5000000000000002 -0.56521765140629143 0.28152176514062915
v -0.59773337299168372 0.85226834536316631 -0.17488684048506922
v 1.429396404742133 -0.5 0.26440946071131993
v 1.6177416247999865 -0.72999469328379463 0.31566071304837745
v 1.6007423504851015 -0.69999999999999996 0.31011135257276518
v 1.6752807880557608 -0.9070775257314464 0.34199987078150873
v 1.5986999935897683 -1.3357939927950935 0.3733843983179746
v 1.6289730584934825 -0.7551588108592282 0.31986183985994515
v 1.6456705904296289 -0.79999999999999982 0.32685058856444427
v 1.6514401495236777 -0.81549413958808104 0.32926543638735972
v 1.6733723173408188 -0.89892281356889692 0.34089812895801241
v -0.40718803420476063 0.8029271750313689 -0.14137092263385095
v 1.6162480456366153 -1.2999999999999998 0.37243720684549225
v 0.65408223565573365 -1.5550017263536404 0.25361250798372414
v 1.6291600153332246 -1.2736625496062428 0.37174025726060794
v 1.6521379565173444 -1.2119388620966873 0.36901457968727036
v -0.29999999999999982 0.75225163014608598 -0.12022516301460856
v 1.6610484275025557 -1.1841699121908138 0.3675742553444647
v 0.80000000000000027 -1.6328662080732956 0.28328662080732958
v 0.72805470950799922 -1.6000000000000001 0.26920820642619991
v 0.76533194491192236 -1.6180505970427312 0.27660485144106151
v 0.72025832790712052 -1.5962247913198517 0.26766122831805328
v -0.19999999999999996 0.70497438949021429 -0.10049743894902143
v -0.21914630528059492 0.71402623431442913 -0.10427456922353215
v 0.8953880013097455 -1.6614113045134267 0.30044933064780449
v 0.90000000000000047 -1.6620565498371682 0.30120565498371688
v 0.87441667932314715 -1.6563941682630245 0.29680191872477452
v 0.85086515698258514 -1.6491348430174151 0.29254325784912927
v 0.8049560062242096 -1.6349841884531118 0.28424181977894264
v 0.87022831351577756 -0.029771686484222817 0.13351141567578889
v -0.099999999999999853 0.65126883296347104 -0.080126883296347082
v 0.85699234079824327 -0.019543889384309968 0.13050324005816746
v 0.83170024865384218 0 0.12475503729807631
v -0.15052948489697993 0.68158609501126011 -0.090738032235673005
v 0.99773076751397305 -1.6753603206712657 0.31719564719422255
v 0.97799490389571186 -1.6729684885419023 0.31399608443854704
v 0.93328647899714023 -1.6667135210028596 0.30666432394985704
v -1 -1.3680117784833934 -0.14545556584642799
v -1 -1 -0.24999999999999994
v -1.3500000000000001 -1.2163118960624633 -0.11631189606246312
v -1.1124354249480162 -1.4856463342923145 -0.041432511343314105
v -0.88756457505198383 -1.4856463342923145 -0.041432511343314105
v -1 -1.1912865702388702 -0.22335685044874226
v -0.81807566089457184 -1.3037219951868864 -0.15386793629133028
v -0.702272217076786 -1.4114496766047311 -0.031733672164910687
v -0.81599411075830319 -1.1137218936815172 -0.21573956140660749
v -1.1819243391054282 -1.3037219951868864 -0.15386793629133028
v -1.1840058892416967 -1.1137218936815172 -0.21573956140660749
v -1.1840058892416967 -0.88627810631848281 -0.21573956140660749
v -1.3680117784833936 -1 -0.14545556584642788
v -1.0567604054103124 -1.4309494146115764 -0.098690129693979889
v -0.94323959458968754 -1.4309494146115764 -0.098690129693979889
v -0.83403957225459679 -1.53105661011428 0.0252223955097301
v -1 -1.4920349213414412 -0.047897214473551331
v -1 -1.282348744032155 -0.19053039486308881
v -1 -1.0965665694893436 -0.24330721736980326
v -1 -0.90343343051065639 -0.24330721736980326
v -0.90815973483089096 -1.3391091494424674 -0.15545053510429235
v -0.73147038712046653 -1.2625269972347468 -0.14073803223567299
v -0.85088399404560922 -1.3998761613949959 -0.10485446048149688
v -0.90784124005355471 -1.2507601554406054 -0.19701322042794217
v -0.73977637587787082 -1.4949747468305832 0.028949331494718011
v -0.67209910439313192 -1.3177933498176828 -0.080554794033443511
v -0.79279678519556196 -1.4531883257175569 -0.041616892720361454
v -0.75769288964770554 -1.3612851340357428 -0.098416188854319187
v -0.90685022710158603 -1.0575697256955536 -0.24138183841659638
v -0.72966883008868555 -1.1670738512237153 -0.17370456693185748
v -0.90704526622046833 -1.1540819192313048 -0.22647481818170728
v -0.81514207453865406 -1.2108812153652624 -0.19137092263385097
v -0.60502205176395996 -1.3593628088613134 -0.0026044542584121033
v -1.091840265169109 -1.3391091494424674 -0.15545053510429235
v -1.2685296128795334 -1.2625269972347468 -0.14073803223567299
v -1.1491160059543908 -1.3998761613949959 -0.10485446048149688
v -1.0921587599464453 -1.2507601554406054 -0.19701322042794217
v -1.3279008956068681 -1.3177933498176828 -0.080554794033443511
v -1.207203214804438 -1.4531883257175569 -0.041616892720361454
v -1.2423071103522945 -1.3612851340357428 -0.098416188854319187
v -1.0931497728984139 -1.0575697256955536 -0.24138183841659638
v -1.2703311699113145 -1.1670738512237153 -0.17370456693185748
v -1.0929547337795318 -1.1540819192313048 -0.22647481818170728
v -1.1848579254613458 -1.2108812153652624 -0.19137092263385097
v -1.2685296128795334 -0.73747300276525318 -0.14073803223567299
v -1.0931497728984139 -0.94243027430444637 -0.24138183841659638
v -1.2703311699113145 -0.83292614877628479 -0.17370456693185748
v -1.0929547337795318 -0.84591808076869535 -0.22647481818170728
v -1.1864832907941971 -1 -0.22470288442733571
v -1.1848579254613458 -0.7891187846347375 -0.19137092263385097
v -1.3634809428097285 -1.1095041255281617 -0.13812451972899714
v -1.3634809428097285 -0.89049587447183842 -0.13812451972899714
v -1.2797249361912959 -1.0576265060223722 -0.18908774505260934
v -1.2797249361912959 -0.94237349397762793 -0.18908774505260934
v 1 1.3680117784833934 -0.045455565846427959
v 1 1 -0.14999999999999991
v 1.3500000000000001 0.78368810393753674 -0.016311896062463083
v 1.3500000000000001 1.2163118960624633 -0.016311896062463083
v 1 1.1912865702388702 -0.12335685044874223
v 1.491432511343314 0.88756457505198383 0.064353665707685692
v 1.1840058892416967 0.88627810631848281 -0.11573956140660746
v 1.4817336721649106 0.702272217076786 0.13855032339526885
v 1.1819243391054282 1.3037219951868864 -0.053867936291330243
v 1.491432511343314 1.1124354249480162 0.064353665707685692
v 1.1840058892416967 1.1137218936815172 -0.11573956140660746
v 1.3680117784833936 1 -0.045455565846427848
v 0.81807566089457184 1.3037219951868864 -0.053867936291330243
v 1.0567604054103124 1.4309494146115764 0.0013098703060201444
v 1 1.282348744032155 -0.090530394863088781
v 1 1.0965665694893436 -0.14330721736980323
v 1.2685296128795334 0.73747300276525318 -0.040738032235672961
v 1.5486901296939799 0.94323959458968754 0.11905058538842367
v 1.42477760449027 0.83403957225459679 0.018943389885719975
v 1.3279008956068681 0.68220665018231719 0.019445205966556522
v 1.0931497728984139 0.94243027430444637 -0.14138183841659635
v 1.2703311699113145 0.83292614877628479 -0.073704566931857451
v 1.1848579254613458 0.7891187846347375 -0.091370922633850937
v 1.4210506685052819 0.73977637587787082 0.055025253169416866
v 1.4916168927203615 0.79279678519556196 0.096811674282443305
v 1.39497794823604 0.64063719113868656 0.09739554574158793
v 1.091840265169109 1.3391091494424674 -0.05545053510429232
v 1.2685296128795334 1.2625269972347468 -0.040738032235672961
v 1.1491160059543908 1.3998761613949959 -0.0048544604814968473
v 1.0921587599464453 1.2507601554406054 -0.097013220427942137
v 1.5486901296939799 1.0567604054103126 0.11905058538842367
v 1.42477760449027 1.1659604277454032 0.018943389885719975
v 1.4978972144735514 1 0.057965078658558822
v 1.3279008956068681 1.3177933498176828 0.019445205966556522
v 1.2423071103522945 1.3612851340357428 0.0015838111456808468
v 1.0931497728984139 1.0575697256955536 -0.14138183841659635
v 1.2703311699113145 1.1670738512237153 -0.073704566931857451
v 1.0929547337795318 1.1540819192313048 -0.12647481818170725
v 1.1864832907941971 1 -0.12470288442733568
v 1.1848579254613458 1.2108812153652624 -0.091370922633850937
v 1.4210506685052819 1.2602236241221292 0.055025253169416866
v 1.4916168927203615 1.207203214804438 0.096811674282443305
v 1.3634809428097285 0.89049587447183842 -0.038124519728997108
v 1.3634809428097285 1.1095041255281617 -0.038124519728997108
v 1.4341677078294128 0.94320070386604227 0.0038569405029114101
v 1.2797249361912959 0.94237349397762793 -0.089087745052609302
v 1.4341677078294128 1.0567992961339578 0.0038569405029114101
v 1.2797249361912959 1.0576265060223722 -0.089087745052609302
v 0.90815973483089096 1.3391091494424674 -0.05545053510429232
v 0.73147038712046653 1.2625269972347468 -0.040738032235672961
v 0.90784124005355471 1.2507601554406054 -0.097013220427942137
v 0.90685022710158603 1.0575697256955536 -0.14138183841659635
v 0.90704526622046833 1.1540819192313048 -0.12647481818170725
v 0.81514207453865406 1.2108812153652624 -0.091370922633850937
v -1.4143625286660095 -1.1000000000000001 -0.10215437929990143
v 1.2842112201186828 1.4000000000000004 0.052631683017802369
v 1.2848294373141187 1.3997746178701227 0.052746953810105503
v 1.218347682715337 1.4240117299402908 0.040350979413271468
v -1.2999999999999998 -0.73479567729817075 -0.1215204322701829
v -1.3301081277299462 -0.77240418935262956 -0.122275800224229
v -1.3475440617601113 -0.79999999999999982 -0.12213160926401671
v -1.3416119454470583 -0.7888722067507431 -0.12235457114198442
v -1.4179152172696403 -1.0689173318361886 -0.10579554940682719
v 1.185250129785407 1.4330398885815421 0.034483530609656816
v -1.1682459823901634 -0.59999999999999987 -0.11523689735852451
v -1.1000000000000001 -0.53175401760983654 -0.11182459823901635
v 1.5014046603233162 0.71862102105116565 0.15334859694338088
v 1.5000000000000002 0.71608731785417845 0.15339126821458215
v 1.4896341025962687 0.69738948254445277 0.15370616713499502
v -0.76824598239016351 -0.19999999999999996 -0.09523689735852453
v -0.79999999999999982 -0.23175401760983633 -0.096824598239016332
v -1.4090345564036399 -0.96477919765675768 -0.11487726369487021
v -1.4177359769151561 -1.0426915546296276 -0.10839124107431065
v -1.3999999999999999 -0.92694117482367344 -0.11730588251763265
v 0.015250936277588457 -0.20891277587586501 -0.18473564594797184
v -0.22560902431011423 0.02142762870072221 -0.1831075327082364
v -0.22659240347088389 0.021282596818369408 -0.18293288836419469
v 0.013818331092992468 -0.16453782968696007 -0.19138183841659642
v -0.16181886897245915 0.011099370378491543 -0.19138183841659637
v -0.18053561528549569 0.014129797093232406 -0.18895406441228282
v -0.099999999999999867 -0.90932582305481768 0.075932582305481791
v -1.2804784842458408 -1.3958363118142012 -0.052488141455456008
v -1.275835252438809 -1.3999999999999999 -0.051375287865821337
v -1.2263828264868408 -1.4443450790855299 -0.039522916064473147
v -0.86824598239016326 -0.29999999999999977 -0.10023689735852451
v 0 -0.80932582305481793 0.080932582305481782
v -1.0682459823901636 -0.5 -0.11023689735852452
v 0.0093258230548179909 -0.79999999999999982 0.081398873458222679
v 0.010462453362717275 -0.79886336969210059 0.081455704973617649
v -1.2999999999999998 -1.3726757776613259 -0.057732422233867424
v -1.3165424208267726 -1.3530496734512518 -0.062176395778890711
v 0.90000000000000036 0.090674176945182539 0.12593258230548179
v 0.092967040288626152 0.021274176867624141 -0.19346767154799524
v 0.067100403451088336 0.015354967163368372 -0.19528519060901878
v 0.12265227950873862 0.02806721908522887 -0.19138183841659639
v 0.018195897558842725 0.11476246704818634 -0.19239742249186109
v 0.011951437697613589 0.075378335721848863 -0.19500647158866624
v 0.024116897326048891 0.12660260126791859 -0.19138183841659639
v 1 0.19067417694518218 0.13093258230548177
v 0.01070133840451745 0.067493894821532271 -0.1955287858486745
v 0.060434652881307512 0.013829605528355346 -0.19575355952735543
v -1.3520105039754051 -1.2999999999999998 -0.0728015755963108
v -1.3500458469128158 -1.3041070172313958 -0.072096175313782818
v -1.3384190080047151 -1.3243117078164428 -0.068331680419062998
v 4.3125322284526614e-16 4.3125322284526614e-16 -0.1999999999999999
v 0.94155222640143699 1.4265318273432013 -0.0014203487741045896
v 0.90000000000000036 1.4099084241491502 -0.0059908424149149727
v 0.94593031438197084 1.4279658639835382 -0.00090703924105820833
v 0.96269874511451869 1.4309494146115764 0.0013098703060201444
v -1.4085334416282709 -1.1509990033764439 -0.096180115906596239
v -1.3824502431161327 -1.2363672492514304 -0.083730811542276851
v -1.3999999999999997 -1.1858547876125389 -0.091414521238746091
v 1 1.4369560245131761 0.0063043975486823762
v -0.11101200653793199 0.019298903887534968 -0.19475583222257326
v -0.10541623791813291 0.019749110281722947 -0.19510154190238135
v 0.024269460159068043 -0.10481519200800953 -0.1953943840153177
v 0.021235616673651245 -0.091712597827422054 -0.19597011655983576
v -0.099396652092399868 0.020233414800590935 -0.19547343524354424
v 1.2093258230548181 0.40000000000000036 0.14139887345822269
v -1.2877901352190564 -0.71954415282889295 -0.12121410499996918
v -1.3827901869341177 -0.87271140641133615 -0.12014738739898401
v -1.3973228173021652 -0.91572874827794959 -0.11802554776752981
v -1.3534593729141149 -0.81109626919855449 -0.12190927901726181
v 1.5019472969341956 1.1977141663112862 0.1055206779090007
v 1.5296147905743989 1.1345184451858887 0.11599037406757093
v -0.56824598239016344 -0 -0.085236897358524508
v -0.59999999999999987 -0.031754017609836364 -0.086824598239016337
v 1.3048255074661741 1.3894185783813096 0.056781968281795173
v -0.1332062259915964 0.017513272602371125 -0.19338466107125549
v 0.028337070324878911 -0.12238242826908863 -0.19462247354527309
v 1.372553859023774 1.3454659958445976 0.071336479269106357
v 0.014389888441201589 0.58263587083136514 -0.05610510381695627
v 0.029549128874429356 0.59779511126459284 -0.055347141795294881
v 0.33175401760983686 0.90000000000000024 -0.040236897358524516
v 1.1314933584484514 1.4410831838036713 0.025615685386900584
v -0.55549768193834592 0.012748300451817565 -0.084599482335933646
v 1.4000000000000001 1.322108116061562 0.077789188393843842
v 1.5531209495217484 0.8518865836860815 0.14777948405965408
v 1.5523266663481317 0.84856207511429693 0.14799279244079006
v 0.40000000000000036 0.9682459823901638 -0.036824598239016335
v -1.3942701358747523e-16 -1.3942701358747523e-16 -0.19999999999999996
v 0.014643063419526994 -0.063240611609967037 -0.19722118553492043
v -0.074315234479415931 0.022251335009927684 -0.19702297909377406
v 1.5255026447791997 0.77185423868884817 0.15163997284799513
v 1.0445179495877759 1.4441247366011152 0.012265218778054849
v 1.071206703173337 1.4451419195265154 0.016166813523348991
v -1.1312495313549369 -1.5 -0.019687429703240476
v -1.1300870488758867 -1.5006218610438857 -0.019450871226994376
v -1.1000000000000001 -1.5117723222105588 -0.013822767778944098
v 1.5542696361249062 0.85964598403730974 0.14717584701500491
v 1.5584947313155266 0.90000000000000036 0.14377420969732893
v 1.4904426837283729 1.2179582881415714 0.10177057374509878
v 1.4956764994441905 1.2097121897407219 0.10338025594255634
v -0.79999999999999982 -1.5222660155038956 0.032226601550389603
v 1.4999999999999998 1.2014399626358823 0.10485600373641174
v -1.2026353195116346 -1.4618127227362483 -0.034214025653120338
v -1.2113792263330034 -1.4564795220427285 -0.03605893174567764
v -0.7457441243658679 -1.5046697003948817 0.038605351384608029
v -0.73486018158712996 -1.5 0.03977097276193052
v 0.019428117515154185 -0.27829966540805978 -0.17396844999293462
v 0.01703158057022269 -0.26406823358105913 -0.17647481818170727
v -0.27921594941822231 0.015743216702023468 -0.17299402112080006
v -0.26295620140028614 0.015919548389449711 -0.17647481818170729
v 0.018500789935672987 -0.29128525400356586 -0.1710220029934871
v 1.4061526726937204 1.3168719194957585 0.079235708954482148
v -0.73296263787810789 -1.4991858685048733 0.039974191168771184
v -1.2682459823901637 -0.70000000000000007 -0.12023689735852454
v 0.018250200692443746 -0.2947943147616362 -0.17022579252790426
v -0.28420180718681537 0.015689146693519389 -0.1719266762241955
v -0.69999999999999984 -1.4808068524976838 0.043080685249768394
v 1.445976530790434 1.2756286542132522 0.089333614197239869
v 1.5597728904357306 1 0.13396593356535957
v 1.3093258230548179 0.5 0.14639887345822264
v 1.5621509196547421 0.93492036887851326 0.14083060106035997
v 1.5630608783651438 0.96068173963813652 0.13839095779095792
v 0.010408952438717551 -0.795367651764193 0.078013487969709833
v 0.80000000000000038 1.3558644986489399 -0.015586449864893954
v 0.77836751377786206 1.341575931644442 -0.017402466097764909
v 0.84630213666206855 1.3864477231268699 -0.011699451813376706
v 0.010231284724517301 -0.78375895106693694 0.066582454986653911
v 0.74462170740929712 1.3120569719901654 -0.019512441087621971
v 0.01010602225980483 -0.77557437758945513 0.058523143973884681
v 0.4317540176098365 1 -0.035236897358524533
v 1.5498760499648625 1.0745281700858491 0.12502859048614443
v 0.5 1.0682459823901636 -0.031824598239016358
v 1.5557420587768389 1.0482012988008278 0.12854117893644304
v 1.5536428740744825 1.0598213697750534 0.12706429413366704
v 0.010053754781415895 -0.7721592522497237 0.055160286112542103
v 0.0099773592001112157 -0.76716761129823763 0.050245040742360671
v 0.7122098647809435 1.2804558471711069 -0.021214104999969185
v 0.018159412031646109 -0.29606564996652135 -0.16993732491073196
v -0.28601862925152183 0.015669443848181995 -0.17153774099001809
v 0.0099330707036855773 -0.76427382780103903 0.047395545741587886
v 0.017198133066473987 -0.30952666788882099 -0.16688300237656553
v -0.30560369228404549 0.015457050199211257 -0.16734507885490429
v 0.013465989617594614 -0.5711044349370924 -0.076782921283862507
v 0.013447974637920017 -0.57035721148664364 -0.077165746060184046
v -0.31310350014153132 0.015375717218317398 -0.16573956140660751
v 0.016838260872217826 -0.31456604379543174 -0.16573956140660748
v 0.014681976223455897 -0.62154100071416551 -0.050942769987167458
v 0.013950881520124624 -0.59121673076242587 -0.066478794524963636
v -1.0824150333770055 -1.518289428233679 -0.010533312183182902
v -0.9406803882849174 -1.5434025589915592 0.013238197656418345
v -1.0400260851231935 -1.5301645653878693 -0.0029874562296920721
v -0.94627808163592975 -1.5432114882829404 0.012379436582904598
v 0.013037084694120061 -0.55331436119724819 -0.08589730466691789
v 0.016878725563411075 -0.36547268210237599 -0.15309266581093259
v 0.016869401198117258 -0.3537421566132159 -0.15600691699855374
v -0.39141637591826312 0.016833169387117833 -0.14663093873580577
v -0.37647219031391044 0.019266950512697896 -0.1509516358764792
v -0.37527534864938344 0.019193456960591319 -0.15123093477563956
v -0.54353693030931582 0.012480320195035602 -0.090738032235673005
v 0.012809289592665595 -0.54386589970694577 -0.090738032235673005
v -0.88941000371886414 -1.5387089969964836 0.020459399141818786
v -0.8364873069517359 -1.5335308618270407 0.027879990139943703
v -0.83184421839056133 -1.5325937614788967 0.028482743389305502
v 0.82716678907407371 0.017840966019255854 0.12229092175918546
v -0.40960942540778267 0.013870284581174301 -0.14137092263385098
v 0.014683899180188557 -0.39763441847825087 -0.1445505673719415
v 0.013340180320608842 -0.40907932114721718 -0.14137092263385098
v 0.01688935875855371 -0.37884978206805459 -0.14976935096899055
v 0.81907877780311056 0.009752954748292646 0.12188652119563731
v 0.857466474913961 1.3928924421428266 -0.010669272977188525
v 1.4000000000000001 0.59067417694518254 0.15093258230548176
v -0.59999999999999998 -1.4077169015064062 0.050771690150640633
v 0.011519876925653375 -0.65721412235020427 -0.030554794033443518
v 0.013172001017270779 -0.64431716500634084 -0.038192868835713385
v -0.59182916311086375 -1.3999999999999997 0.051225625533370407
v 0.014309658122388796 -0.63543628539742103 -0.043452467743758064
v 0.87523268378196706 1.4000000000000006 -0.0087150974327049966
v 0.016859720179095247 -0.34156294260559761 -0.15903263728012096
v -0.35522554036434206 0.017962273527061742 -0.15590982384539939
v 0.014904945565517446 -0.63078929985903343 -0.046204591535511028
v 0.014782344065574477 -0.62570404761494147 -0.048809917361024004
v 0.014737526929814686 -0.62384512712618612 -0.049762297562528521
v -0.31844666205329958 0.015703820726087243 -0.16449266360531622
v 0.016856961293736622 -0.33809212459264265 -0.15989490346978297
v 1.4289605878714078 0.61963476481658997 0.15238061169905215
v 1.473329553241967 0.67421441074678568 0.15357799191161647
v -0.69999999999999996 -0.13175401760983646 -0.091824598239016342
v -0.5 -1.3093258230548179 0.05593258230548178
v -0.57103941212859222 -1.3803652351834099 0.052380611699052157
v 0.68933262006720564 0.011911477692464669 0.0093004189624039512
v 0.71327734960325451 0.01223772815400022 0.026714058004791281
v 0.013299503169845151 -0.7410412539275083 0.028311623488278165
v 0.013213334976092318 -0.736982405874963 0.025461354850635148
v 0.012111865020945444 -0.74923743528765685 0.035044208896273264
v 0.74171555422293745 0.012625202874416092 0.047395545741587879
v 0.01271835320983737 -0.71366689129225702 0.0090883645033075378
v -0.63674855347039416 -1.4424238686728899 0.048730103846729864
v 0.012613049418703493 -0.70870668417922977 0.0056051292140218145
v 0.66507798375937544 0.011581004705584895 -0.0083385976375984928
v 0.011999905416145191 -0.67982528104975737 -0.014676427642839543
v 0.65716746819211402 0.011473222767563084 -0.014091465404181195
v 0.63343966365394155 0.01475723238569468 -0.028759223584098621
v -0.67824852398653301 -1.4686788569376861 0.045130607095788651
v 0.63053499723294004 0.015159248191610783 -0.030554794033443522
v 0.011659667153476324 -0.6637987711545138 -0.025930817542121728
v 0.58603258197061803 0.014111748229659504 -0.054467895438704325
v 0.58550389634658273 0.014099304002356407 -0.054751981434139313
v 0.55945703199069063 0.013486211673301439 -0.068748105126752987
v -1.4014560207821909 -1.181664006259125 -0.092052002491416138
v 0.51369253705997375 0.017364073054306498 -0.090738032235673005
v 0.52642198850962685 0.015595030894071136 -0.084983962716761119
v 0.017661991100821575 0.51339461901345862 -0.090738032235673005
v 0.01474154263979445 0.53483263818895566 -0.081016553192431423
v -0.64555588843355605 -1.4493201546181489 0.048098632196781475
v 0.81323837776990215 0.0096963086604829711 0.11598947507461944
v 0.76355518809379752 0.0092144309964439473 0.065824407734475787
v 0.54418330815115401 0.01312669803687381 -0.076955347472091942
v 0.5517733972101182 0.013305353913270788 -0.072876859410891393
v 0.013426836780052525 0.54448344689433281 -0.076640209752693672
v 0.014231537654193011 0.57636261821114132 -0.05948161030919244
v -0.51803893238426013 0.01597272265195589 -0.1015856173469445
v -0.51461490646334962 0.016441703650930572 -0.1030422969148638
v -0.49695870852935198 0.016009331134653589 -0.10948708241967409
v 0.015753786029704606 -0.47524767073079727 -0.11751526692321937
v 0.015422253586643375 -0.46309666951626149 -0.12193785825618686
v 0.12753994277959146 0.025948224073620466 -0.1909533312206132
v 0.023589538928465267 0.13019668224720821 -0.1909072013090421
v -0.54055681718875759 0.012888499473060838 -0.092005858470951912
v 0.016146457161518111 -0.48963946706759559 -0.11227709497169183
v 0.016817639187471922 -0.51423897092680837 -0.10332363092027605
v 0.1810501997801417 0.013590433357931279 -0.18458415792704908
v 0.16181020909729751 0.011090710503329958 -0.18794881660665219
v 0.017938944762004989 0.1845561283828944 -0.18336852508548146
v 0.0179451465537733 0.16866464514774085 -0.18582709244398699
v 0.021635515833374083 0.14351384429741984 -0.18914852661229284
v 0.017924926582123565 0.22047633965319355 -0.17781131827017144
v 0.22122432101603526 0.018809987289754738 -0.17755857210738926
v -0.66824598239016331 -0.099999999999999853 -0.090236897358524498
v -0.63897402565383377 -0.070728043263670215 -0.088773299521708052
v 0.22742150694726204 0.019615146063574462 -0.17647481818170729
v 0.017924274864860722 0.2221463012293865 -0.17755295893640552
v 0.017921555230422243 0.22911509778041428 -0.17647481818170729
v -0.48178977817632412 0.015637867889254694 -0.11502397676284573
v -0.46401011309437229 0.015202471856723535 -0.12151382968751794
v 0.015183716408001861 -0.45435403932109214 -0.12511990719568022
v 0.014896734203442187 -0.44383584965628781 -0.12894820526172152
v 0.23047234433383162 0.019458423313760402 -0.17586190890515632
v 0.01712659300620965 0.23352006990969471 -0.17571029816886585
v 0.23144925050824092 0.019408239248677902 -0.17566564972095622
v 0.016870598676484071 0.23493856232776147 -0.17546410686280348
v 0.015257565270600017 -0.4570606752413563 -0.12413477483077359
v 0.25717273904753163 0.018086813243989943 -0.17049783421548573
v 0.013009996668699449 0.25633057785828617 -0.17175134239844073
v -0.19999999999999998 -1.0093258230548179 0.070932582305481787
v -0.29067417694518233 -1.1000000000000001 0.066398873458222665
v -0.49067417694518206 -1.2999999999999998 0.056398873458222677
v -0.29999999999999988 -1.1093258230548178 0.06593258230548181
v 0.012441886281234686 0.2594785392920711 -0.17120498717866894
v 0.015385139543951898 0.28234264337926201 -0.16573956140660751
v 0.28085767438170328 0.016870108541510678 -0.16573956140660751
v -0.42784363122596597 0.014316811601396506 -0.13471515530568373
v -0.43426647142119457 0.014474096855404033 -0.13237071923033725
v 0.014330280375347903 -0.42307474075968177 -0.1365046114086558
v 0.014212760592851682 -0.42141355645721879 -0.13708221751422722
v 0.76292016171391375 0.0093136052834803095 0.065288555641628471
v -0.23501740413108979 0.020040050958828388 -0.18143664075945481
v 0.015491746111998415 -0.21637186059690428 -0.18361847247614915
v 0.74341783734299816 0.012359351375779155 0.048831977363011828
v 0.43573049851902079 0.015000048382254393 -0.12079431969206085
v 0.43376796821471975 0.015007800811087128 -0.12152575558457637
v 0.43954330905064148 0.014984986937223803 -0.11937328355922937
v 0.015516783976823221 0.46279290750165208 -0.11047479618926585
v 0.015908604760739894 0.47203527950866297 -0.10686988818865192
v 0.016971693138095621 0.49711168857924448 -0.09708904971811276
v 0.45233946044361845 0.014934439308588726 -0.11460415240524227
v 0.4546996325847813 0.015027904122353965 -0.11368605416064917
v 0.51298148613760375 0.017335914836150355 -0.091014628417900034
v 0.0169922903625929 0.49759754134390088 -0.096899547010679918
v 0.013971024405735499 0.42633112299246972 -0.12469640278485675
v 0.013235201682962503 0.40897434250957082 -0.13146626627663555
v 0.37644153610317205 0.01929760472343622 -0.14137092263385095
v 0.41003163381057922 0.015196767759786657 -0.13033667469068461
v 0.019099286303264677 0.37663985452334359 -0.14137092263385095
v 0.41083752197278811 0.015098381146179838 -0.13007194280827883
v 0.015756001630046111 0.29175833497789655 -0.16330632308938711
v 0.01693128443688393 0.32159719116000851 -0.15559525402518015
v 0.31044091457927986 0.012713131656065958 -0.15941781013972831
v 0.33875509212789068 0.015537861714495503 -0.15167571975871214
v 0.28957541259337483 0.015645109657100278 -0.16387663590500981
v 0.34632279410847755 0.016292844451362906 -0.14960644430087092
v 0.017162043461486642 0.32745585369449381 -0.15408123649208244
v 0.017351626594712018 0.33226911550174099 -0.15283737533355579
v 0.35555791684625754 0.01721417542578044 -0.14708123745730578
f 70 71 45
f 45 71 46
f 72 73 47
f 47 73 48
f 89 90 64
f 64 90 65
f 91 92 66
f 66 92 67
f 158 159 135
f 135 159 136
f 159 160 136
f 136 160 137
f 160 161 137
f 138 162 139
f 143 167 144
f 170 171 147
f 148 172 149
f 158 180 159
f 180 181 159
f 159 181 160
f 187 188 166
f 195 196 181
f 181 196 182
f 197 198 183
f 183 198 184
f 199 200 187
f 187 200 188
f 189 202 190
f 204 205 193
f 193 205 194
f 195 211 196
f 211 212 196
f 213 214 197
f 197 214 198
f 217 218 199
f 199 218 200
f 219 220 201
f 221 222 203
f 223 224 204
f 204 224 205
f 211 225 212
f 226 227 213
f 213 227 214
f 251 252 234
f 234 252 235
f 253 254 236
f 255 256 239
f 239 256 240
f 257 258 241
f 241 258 242
f 259 260 243
f 243 260 244
f 274 275 261
f 261 275 262
f 281 282 268
f 268 282 269
f 283 284 270
f 270 284 271
f 274 287 275
f 287 288 275
f 275 288 276
f 291 292 287
f 287 292 288
f 293 294 289
f 305 306 291
f 291 306 292
f 307 308 293
f 293 308 294
f 313 314 298
f 298 314 299
f 315 316 300
f 300 316 301
f 343 344 328
f 328 344 329
f 363 364 350
f 350 364 351
f 365 366 352
f 352 366 353
f 370 371 360
f 360 371 361
f 370 372 371
f 387 388 379
f 379 388 380
f 413 414 398
f 398 414 399
f 416 417 400
f 400 417 401
f 420 421 404
f 404 421 405
f 416 426 417
f 417 427 418
f 428 429 427
f 456 457 431
f 431 457 432
f 458 459 433
f 433 459 434
f 460 461 435
f 462 463 436
f 436 463 437
f 463 464 437
f 437 464 438
f 465 466 439
f 439 466 440
f 695 697 356
f 356 697 672
f 415 707 703
f 382 734 626
f 381 741 730
f 520 605 487
f 605 608 600
f 487 605 600
f 602 609 515
f 520 531 494
f 518 521 487
f 487 600 518
f 527 534 532
f 497 534 527
f 598 599 595
f 502 595 542
f 502 598 595
f 510 578 576
f 494 607 520
f 520 607 605
f 606 609 602
f 531 533 525
f 525 533 496
f 523 525 496
f 494 531 525
f 529 531 520
f 521 532 529
f 487 529 520
f 521 529 487
f 532 534 498
f 498 533 531
f 529 532 498
f 498 531 529
f 600 608 514
f 608 613 514
f 530 533 498
f 498 534 530
f 526 534 497
f 530 534 526
f 488 530 526
f 515 612 602
f 492 587 561
f 571 574 552
f 542 595 593
f 491 597 543
f 543 564 491
f 543 598 502
f 597 598 543
f 543 566 564
f 502 566 543
f 582 586 575
f 501 584 539
f 587 590 561
f 560 576 489
f 516 608 605
f 605 607 516
f 516 614 608
f 607 609 516
f 606 614 516
f 516 609 606
f 519 525 523
f 494 525 519
f 524 530 488
f 488 555 524
f 496 533 524
f 524 533 530
f 524 557 496
f 555 557 524
f 544 555 488
f 497 528 526
f 517 612 611
f 535 604 601
f 611 612 604
f 499 611 604
f 499 604 535
f 601 604 515
f 604 612 515
f 556 565 492
f 556 569 565
f 506 559 557
f 506 557 555
f 506 569 556
f 556 559 506
f 552 554 542
f 554 568 566
f 542 554 502
f 554 566 502
f 566 568 508
f 508 569 567
f 565 569 508
f 508 568 565
f 508 567 564
f 564 566 508
f 553 587 492
f 492 565 553
f 565 568 553
f 595 599 513
f 593 595 513
f 486 552 542
f 486 571 552
f 542 593 486
f 564 567 545
f 491 564 545
f 545 567 503
f 503 547 545
f 491 545 540
f 545 547 540
f 584 586 511
f 511 586 582
f 493 575 570
f 572 582 493
f 493 582 575
f 570 577 493
f 560 579 576
f 576 579 510
f 603 607 494
f 519 603 494
f 601 603 519
f 603 609 607
f 515 609 603
f 515 603 601
f 503 567 558
f 503 558 544
f 567 569 558
f 544 558 555
f 558 569 506
f 555 558 506
f 488 526 522
f 522 544 488
f 526 528 522
f 522 528 495
f 610 611 536
f 536 611 499
f 489 610 536
f 536 560 489
f 535 601 485
f 519 523 485
f 485 601 519
f 485 548 535
f 523 548 485
f 523 550 548
f 557 559 550
f 496 557 550
f 496 550 523
f 574 591 589
f 553 589 587
f 588 591 572
f 577 588 493
f 493 588 572
f 581 584 511
f 539 584 581
f 539 581 490
f 572 591 509
f 509 574 571
f 509 591 574
f 510 592 577
f 579 592 510
f 590 592 579
f 577 592 588
f 570 580 577
f 577 580 510
f 522 546 544
f 495 546 522
f 541 546 495
f 544 546 503
f 546 547 503
f 541 547 546
f 536 562 560
f 499 562 536
f 550 559 504
f 548 550 504
f 552 574 505
f 574 589 505
f 505 589 553
f 553 568 505
f 505 568 554
f 505 554 552
f 490 581 538
f 512 591 588
f 588 592 512
f 589 591 512
f 512 592 590
f 512 590 587
f 587 589 512
f 507 579 560
f 560 562 507
f 507 590 579
f 562 563 507
f 561 590 507
f 507 563 561
f 535 551 499
f 551 562 499
f 551 563 562
f 548 551 535
f 504 551 548
f 504 563 551
f 549 559 556
f 504 559 549
f 549 556 492
f 492 561 549
f 561 563 549
f 549 563 504
f 537 571 486
f 486 593 537
f 511 583 581
f 581 583 538
f 593 594 537
f 513 594 593
f 538 583 500
f 537 594 500
f 511 585 583
f 582 585 511
f 572 585 582
f 509 585 572
f 500 596 538
f 594 596 500
f 571 573 509
f 573 585 509
f 537 573 571
f 583 585 573
f 500 573 537
f 500 583 573
f 608 614 613
f 643 644 497
f 541 648 647
f 659 660 490
f 527 740 739
f 694 696 514
f 620 664 599
f 501 657 656
f 618 619 599
f 619 620 599
f 627 628 600
f 514 627 600
f 514 636 627
f 514 637 636
f 514 641 637
f 541 647 547
f 647 650 547
f 642 654 528
f 497 642 528
f 497 644 642
f 599 664 513
f 513 664 663
f 663 669 513
f 670 671 491
f 540 670 491
f 219 635 239
f 632 635 219
f 219 633 632
f 218 633 219
f 623 633 218
f 218 624 623
f 621 624 238
f 238 622 621
f 238 624 218
f 540 675 670
f 540 680 679
f 540 679 675
f 547 680 540
f 650 680 547
f 662 676 495
f 654 662 495
f 528 654 495
f 495 677 541
f 676 677 495
f 677 681 541
f 660 693 490
f 490 702 539
f 693 702 490
f 539 702 701
f 539 705 704
f 701 705 539
f 538 659 490
f 538 709 659
f 708 709 538
f 513 669 594
f 669 710 594
f 596 712 538
f 538 712 708
f 596 713 712
f 596 714 713
f 596 715 714
f 594 715 596
f 710 715 594
f 390 640 634
f 390 634 402
f 402 634 401
f 617 639 614
f 614 639 613
f 639 661 613
f 656 657 401
f 634 656 401
f 401 657 653
f 401 653 400
f 521 731 532
f 532 731 729
f 399 677 398
f 398 677 676
f 398 676 662
f 398 662 654
f 398 654 642
f 642 644 398
f 398 644 389
f 389 644 643
f 389 643 630
f 389 630 629
f 254 646 236
f 638 646 254
f 237 646 645
f 645 649 237
f 718 726 518
f 628 718 600
f 600 718 518
f 521 732 731
f 521 733 732
f 635 658 239
f 239 665 255
f 658 665 239
f 665 667 255
f 255 667 666
f 724 725 518
f 518 726 724
f 518 725 521
f 521 725 723
f 723 733 521
f 414 648 399
f 414 680 650
f 647 648 414
f 648 682 399
f 414 650 647
f 679 680 414
f 629 630 527
f 527 739 629
f 400 683 416
f 416 683 415
f 683 707 415
f 527 630 497
f 630 643 497
f 730 741 532
f 532 740 527
f 532 741 740
f 729 730 532
f 541 682 648
f 681 682 541
f 655 672 613
f 672 697 613
f 613 697 695
f 613 695 694
f 613 694 514
f 613 661 655
f 711 717 597
f 717 719 597
f 491 711 597
f 671 711 491
f 598 618 599
f 598 722 618
f 514 690 688
f 688 689 514
f 514 689 641
f 514 691 690
f 719 720 597
f 514 696 691
f 597 720 598
f 720 722 598
f 670 675 435
f 435 711 671
f 675 679 414
f 436 711 435
f 436 717 711
f 435 671 670
f 435 675 434
f 434 675 414
f 489 658 635
f 701 702 415
f 415 705 701
f 415 702 442
f 442 702 441
f 618 722 437
f 437 720 436
f 436 720 719
f 437 722 720
f 438 619 618
f 438 618 437
f 436 719 717
f 615 625 584
f 584 616 615
f 439 663 438
f 663 664 438
f 438 664 620
f 439 669 663
f 439 710 669
f 714 715 439
f 439 715 710
f 713 714 439
f 438 620 619
f 584 640 616
f 634 640 584
f 584 656 634
f 501 656 584
f 712 713 440
f 708 712 440
f 440 709 708
f 440 713 439
f 736 737 586
f 584 736 586
f 659 709 441
f 441 660 659
f 441 693 660
f 441 702 693
f 441 709 440
f 734 736 584
f 626 734 584
f 625 626 584
f 683 687 539
f 539 707 683
f 703 707 539
f 539 704 703
f 539 687 501
f 501 687 653
f 653 657 501
f 716 721 298
f 281 716 298
f 700 716 281
f 298 721 313
f 721 728 313
f 313 728 727
f 313 727 328
f 727 738 328
f 328 738 735
f 615 616 390
f 616 640 390
f 391 615 390
f 391 625 615
f 382 625 391
f 382 626 625
f 343 735 631
f 328 735 343
f 649 651 237
f 237 651 238
f 651 652 238
f 653 687 400
f 400 687 683
f 238 652 622
f 267 668 252
f 252 668 253
f 668 673 253
f 673 674 253
f 253 674 254
f 674 678 254
f 254 678 638
f 399 682 681
f 399 681 677
f 255 684 268
f 684 685 268
f 685 686 268
f 666 684 255
f 341 655 342
f 356 672 655
f 356 655 341
f 367 689 354
f 354 689 688
f 342 639 617
f 342 661 639
f 655 661 342
f 354 688 355
f 688 690 355
f 267 692 668
f 690 691 355
f 691 696 355
f 355 696 694
f 355 694 356
f 694 695 356
f 268 698 281
f 698 699 281
f 699 700 281
f 268 706 698
f 686 706 268
f 703 704 415
f 704 705 415
f 366 628 627
f 627 636 366
f 366 636 367
f 366 718 628
f 366 726 718
f 724 726 366
f 636 637 367
f 637 641 367
f 641 689 367
f 381 731 373
f 729 731 381
f 731 732 373
f 381 730 729
f 365 724 366
f 373 725 724
f 373 724 365
f 723 725 373
f 732 733 373
f 373 733 723
f 382 737 736
f 382 736 734
f 389 740 381
f 739 740 389
f 740 741 381
f 629 739 389
f 233 866 865
f 617 884 883
f 889 896 489
f 489 912 911
f 267 922 921
f 928 929 343
f 957 958 624
f 959 963 517
f 614 975 971
f 614 977 975
f 935 978 357
f 963 986 517
f 614 988 984
f 986 989 517
f 602 992 991
f 989 994 517
f 602 1001 992
f 517 1003 1002
f 931 1007 692
f 602 1008 1001
f 887 1012 382
f 646 1013 1004
f 606 1022 1021
f 606 1024 1022
f 517 1026 1003
f 606 1030 1029
f 995 1030 606
f 575 1039 1038
f 606 1044 1041
f 606 1046 1044
f 1038 1047 575
f 606 1048 1046
f 1050 1052 575
f 1021 1053 606
f 570 1059 1058
f 1056 1066 570
f 631 1068 927
f 612 1073 1072
f 576 1074 890
f 1072 1077 612
f 1007 1076 692
f 1081 1084 684
f 578 1088 1085
f 612 1094 1093
f 578 1095 1088
f 578 1097 1095
f 1098 1101 706
f 510 1108 1100
f 1015 1112 612
f 870 1115 610
f 586 1116 1043
f 1113 1116 586
f 958 1114 624
f 580 1130 1129
f 1133 1134 699
f 510 1137 1108
f 580 1138 1136
f 759 765 747
f 765 772 747
f 763 769 767
f 745 758 755
f 744 779 776
f 776 783 744
f 783 792 744
f 752 784 782
f 770 772 750
f 768 769 764
f 766 768 757
f 759 778 775
f 747 778 759
f 747 784 778
f 754 795 793
f 760 784 747
f 782 784 760
f 743 782 760
f 760 770 743
f 760 772 770
f 747 772 760
f 817 841 802
f 802 818 817
f 771 773 763
f 765 773 772
f 772 773 750
f 811 848 847
f 823 835 832
f 832 843 839
f 806 835 833
f 832 835 806
f 806 843 832
f 759 775 742
f 742 775 755
f 838 841 817
f 814 840 838
f 812 815 798
f 798 817 812
f 814 838 798
f 798 838 817
f 815 821 819
f 819 821 803
f 815 819 798
f 798 819 814
f 749 769 768
f 749 774 767
f 767 769 749
f 749 768 766
f 746 768 764
f 757 768 746
f 775 778 751
f 782 790 752
f 764 769 748
f 748 773 765
f 748 769 763
f 763 773 748
f 816 831 797
f 797 831 811
f 831 833 811
f 806 833 831
f 839 843 807
f 807 843 841
f 807 841 838
f 838 840 807
f 756 758 746
f 755 758 756
f 755 756 742
f 746 764 756
f 776 785 783
f 751 785 776
f 778 785 751
f 783 785 752
f 752 785 784
f 784 785 778
f 793 795 788
f 787 790 782
f 761 787 743
f 743 787 782
f 752 794 783
f 790 794 752
f 783 794 792
f 790 795 794
f 792 794 754
f 794 795 754
f 762 764 748
f 756 764 762
f 756 762 742
f 748 765 762
f 762 765 759
f 742 762 759
f 805 837 827
f 834 843 806
f 831 834 806
f 841 843 834
f 816 834 831
f 802 834 816
f 802 841 834
f 801 840 814
f 779 781 776
f 776 781 751
f 788 795 753
f 753 795 790
f 787 789 753
f 753 790 787
f 829 830 823
f 823 832 799
f 832 839 799
f 799 839 827
f 799 829 823
f 839 842 827
f 827 842 805
f 807 842 839
f 840 842 807
f 800 848 811
f 811 833 800
f 846 849 848
f 846 848 800
f 810 846 800
f 833 835 825
f 800 833 825
f 800 825 810
f 819 820 814
f 814 820 801
f 803 820 819
f 751 777 775
f 751 781 777
f 775 777 755
f 777 781 780
f 755 777 745
f 777 780 745
f 753 791 788
f 788 791 786
f 789 791 753
f 827 837 836
f 827 836 799
f 799 836 829
f 828 840 801
f 805 842 828
f 828 842 840
f 808 849 846
f 845 849 808
f 804 830 824
f 825 835 804
f 823 830 804
f 804 835 823
f 805 828 826
f 813 828 801
f 826 828 813
f 808 846 844
f 796 844 810
f 844 846 810
f 804 824 822
f 796 822 809
f 822 824 809
f 822 825 804
f 810 822 796
f 810 825 822
f 867 868 754
f 829 926 923
f 837 948 947
f 836 966 960
f 826 982 979
f 981 982 826
f 969 970 813
f 809 941 940
f 898 899 779
f 803 1034 864
f 999 1000 758
f 976 985 845
f 1010 1011 757
f 1009 1010 757
f 793 918 916
f 780 952 951
f 916 917 793
f 1014 1016 773
f 1048 606 1053
f 2 27 28
f 3 2 28
f 282 298 299
f 281 298 282
f 570 575 1052
f 1054 570 1052
f 217 236 237
f 646 237 236
f 216 236 217
f 235 236 216
f 92 91 116
f 117 92 116
f 2 1 26
f 27 2 26
f 1034 1033 421
f 1019 421 1033
f 864 1034 421
f 863 864 421
f 405 421 1019
f 283 299 300
f 282 299 283
f 4 3 28
f 29 4 28
f 379 378 386
f 387 379 386
f 444 443 469
f 470 444 469
f 570 1054 1055
f 1056 570 1055
f 218 237 238
f 217 237 218
f 213 212 225
f 226 213 225
f 735 738 1060
f 1061 735 1060
f 92 117 118
f 93 92 118
f 5 4 29
f 30 5 29
f 380 388 389
f 381 380 389
f 284 300 301
f 283 300 284
f 384 383 392
f 393 384 392
f 215 214 227
f 234 215 227
f 233 234 227
f 1051 250 266
f 1051 266 1062
f 965 250 1051
f 1045 1062 266
f 1020 1045 266
f 444 470 471
f 445 444 471
f 6 5 30
f 31 6 30
f 94 93 118
f 119 94 118
f 385 384 393
f 394 385 393
f 483 482 484
f 481 482 483
f 7 6 31
f 32 7 31
f 285 301 302
f 284 301 285
f 216 234 235
f 215 234 216
f 960 966 422
f 966 947 422
f 948 422 947
f 950 422 948
f 406 960 422
f 932 960 406
f 446 445 471
f 472 446 471
f 387 395 396
f 386 395 387
f 1061 1067 735
f 631 735 1067
f 1068 631 1067
f 94 119 120
f 95 94 120
f 8 7 32
f 33 8 32
f 1065 570 1066
f 1059 570 1065
f 286 302 303
f 285 302 286
f 220 219 240
f 239 240 219
f 673 668 1071
f 1070 1071 668
f 1069 1070 668
f 446 472 473
f 447 446 473
f 388 396 397
f 387 396 388
f 893 1075 667
f 666 667 1075
f 96 95 120
f 121 96 120
f 9 8 33
f 34 9 33
f 668 692 1069
f 1076 1069 692
f 288 292 293
f 289 288 293
f 221 240 241
f 220 240 221
f 1078 1008 612
f 602 612 1008
f 1077 1078 612
f 448 447 473
f 474 448 473
f 389 397 398
f 388 397 389
f 1075 1083 666
f 1082 666 1083
f 684 666 1082
f 1081 684 1082
f 97 96 121
f 122 97 121
f 9 34 35
f 10 9 35
f 576 1079 1080
f 1074 576 1080
f 449 448 474
f 475 449 474
f 222 241 242
f 221 241 222
f 98 97 122
f 123 98 122
f 391 402 403
f 390 402 391
f 1086 251 1035
f 576 578 1079
f 1079 578 1085
f 450 449 475
f 476 450 475
f 223 242 243
f 222 242 223
f 99 98 123
f 124 99 123
f 11 10 35
f 36 11 35
f 685 1084 1089
f 1090 685 1089
f 684 1084 685
f 290 304 305
f 291 290 305
f 678 674 1092
f 1091 1092 674
f 224 243 244
f 223 243 224
f 451 450 476
f 477 451 476
f 686 685 1090
f 1096 686 1090
f 12 11 36
f 37 12 36
f 706 686 1096
f 1098 706 1096
f 100 99 124
f 125 100 124
f 880 233 227
f 880 227 226
f 866 233 880
f 612 1093 1099
f 1073 612 1099
f 293 292 306
f 307 293 306
f 13 12 37
f 38 13 37
f 674 673 1091
f 1071 1091 673
f 452 451 477
f 478 452 477
f 14 13 38
f 39 14 38
f 510 1100 578
f 1097 578 1100
f 102 101 126
f 127 102 126
f 229 228 245
f 246 229 245
f 698 706 1101
f 1106 698 1101
f 1107 698 1106
f 295 294 308
f 309 295 308
f 14 39 40
f 15 14 40
f 638 678 1109
f 1110 1109 678
f 1092 1110 678
f 453 452 478
f 479 453 478
f 229 246 247
f 230 229 247
f 1111 612 1112
f 1094 612 1111
f 103 102 127
f 128 103 127
f 16 15 40
f 41 16 40
f 586 1063 1064
f 1113 586 1064
f 295 309 310
f 296 295 310
f 646 638 1013
f 1109 1013 638
f 231 230 247
f 248 231 247
f 454 453 479
f 480 454 479
f 586 737 1063
f 1017 1063 737
f 17 16 41
f 42 17 41
f 104 103 128
f 129 104 128
f 623 624 872
f 1114 872 624
f 231 248 249
f 232 231 249
f 297 296 310
f 311 297 310
f 611 610 956
f 956 610 1115
f 18 17 42
f 43 18 42
f 105 104 129
f 130 105 129
f 296 297 1104
f 280 296 1104
f 1036 280 1104
f 106 105 130
f 131 106 130
f 727 728 1120
f 1121 727 1120
f 393 407 408
f 392 407 393
f 107 106 131
f 132 107 131
f 1117 580 1119
f 1118 580 1117
f 19 18 43
f 44 19 43
f 738 727 1121
f 1122 738 1121
f 108 107 132
f 133 108 132
f 394 408 409
f 393 408 394
f 1123 580 1124
f 1119 580 1123
f 109 108 133
f 134 109 133
f 19 44 45
f 20 19 45
f 109 134 135
f 110 109 135
f 738 1122 1126
f 1060 738 1126
f 21 20 45
f 46 21 45
f 111 110 135
f 136 111 135
f 580 1058 1125
f 1124 580 1125
f 570 1058 580
f 22 21 46
f 47 22 46
f 23 22 47
f 48 23 47
f 1104 297 1105
f 24 23 48
f 49 24 48
f 721 716 1131
f 1128 721 1131
f 1127 721 1128
f 25 24 49
f 50 25 49
f 728 721 1127
f 1120 728 1127
f 580 1118 1132
f 1130 580 1132
f 26 51 52
f 27 26 52
f 510 580 1135
f 1135 580 1136
f 1137 510 1135
f 28 27 52
f 53 28 52
f 699 698 1107
f 1133 699 1107
f 236 235 252
f 253 236 252
f 26 1 481
f 51 26 481
f 76 51 481
f 101 76 481
f 126 101 481
f 150 126 481
f 173 150 481
f 206 173 481
f 228 206 481
f 245 228 481
f 261 245 481
f 274 261 481
f 290 274 481
f 483 290 481
f 304 290 483
f 319 304 483
f 334 319 483
f 349 334 483
f 362 349 483
f 378 362 483
f 386 378 483
f 395 386 483
f 410 395 483
f 430 410 483
f 455 430 483
f 700 1134 1139
f 1140 700 1139
f 699 1134 700
f 29 28 53
f 54 29 53
f 716 700 1140
f 1131 716 1140
f 30 29 54
f 55 30 54
f 112 111 136
f 137 112 136
f 580 1129 1141
f 1138 580 1141
f 31 30 55
f 56 31 55
f 300 299 314
f 315 300 314
f 297 311 1105
f 312 1105 311
f 1103 1105 312
f 32 31 56
f 57 32 56
f 113 112 137
f 161 113 137
f 1102 1103 312
f 396 395 410
f 411 396 410
f 302 301 316
f 317 302 316
f 33 32 57
f 58 33 57
f 1102 312 327
f 1102 327 876
f 138 161 183
f 182 183 161
f 113 161 138
f 114 113 138
f 397 396 411
f 412 397 411
f 303 302 317
f 318 303 317
f 33 58 59
f 34 33 59
f 115 114 138
f 139 115 138
f 852 851 830
f 830 851 853
f 398 397 412
f 413 398 412
f 305 304 319
f 320 305 319
f 824 830 853
f 859 824 853
f 35 34 59
f 60 35 59
f 115 139 140
f 116 115 140
f 862 803 863
f 864 863 803
f 241 240 256
f 257 241 256
f 305 320 321
f 306 305 321
f 877 878 781
f 780 781 879
f 878 879 781
f 35 60 61
f 36 35 61
f 117 116 140
f 141 117 140
f 243 242 258
f 259 243 258
f 781 779 886
f 885 781 886
f 877 781 885
f 307 306 321
f 322 307 321
f 868 858 792
f 868 792 754
f 37 36 61
f 62 37 61
f 117 141 142
f 118 117 142
f 143 118 142
f 166 143 142
f 246 245 261
f 262 246 261
f 858 850 792
f 850 905 792
f 308 307 322
f 323 308 322
f 788 786 855
f 857 788 855
f 37 62 63
f 38 37 63
f 119 118 143
f 144 119 143
f 786 854 855
f 915 854 786
f 247 246 262
f 263 247 262
f 308 323 324
f 309 308 324
f 837 805 919
f 920 919 805
f 401 417 418
f 402 401 418
f 39 38 63
f 64 39 63
f 830 829 923
f 852 830 923
f 247 263 264
f 248 247 264
f 859 930 824
f 403 402 418
f 419 403 418
f 801 820 934
f 933 801 934
f 40 39 64
f 65 40 64
f 820 803 862
f 939 820 862
f 939 934 820
f 249 248 264
f 265 249 264
f 919 950 837
f 948 837 950
f 403 419 420
f 404 403 420
f 40 65 66
f 41 40 66
f 829 836 960
f 932 829 960
f 926 829 932
f 250 249 265
f 266 250 265
f 836 837 947
f 966 836 947
f 456 455 483
f 457 456 483
f 458 457 483
f 459 458 483
f 460 459 483
f 461 460 483
f 462 461 483
f 463 462 483
f 464 463 483
f 465 464 483
f 466 465 483
f 467 466 483
f 468 467 483
f 469 468 483
f 470 469 483
f 471 470 483
f 472 471 483
f 473 472 483
f 484 473 483
f 474 473 484
f 475 474 484
f 476 475 484
f 477 476 484
f 478 477 484
f 479 478 484
f 480 479 484
f 42 41 66
f 67 42 66
f 809 824 930
f 941 809 930
f 120 119 144
f 145 120 144
f 43 42 67
f 68 43 67
f 808 972 973
f 974 972 808
f 845 808 976
f 973 976 808
f 310 309 324
f 325 310 324
f 407 406 422
f 423 407 422
f 826 979 805
f 920 805 979
f 121 120 145
f 146 121 145
f 44 43 68
f 69 44 68
f 933 945 801
f 813 801 945
f 311 310 325
f 326 311 325
f 408 407 423
f 424 408 423
f 826 813 967
f 981 826 967
f 970 967 813
f 122 121 146
f 147 122 146
f 45 44 69
f 70 45 69
f 945 946 813
f 813 946 969
f 312 311 326
f 327 312 326
f 409 408 424
f 425 409 424
f 796 809 904
f 903 796 904
f 123 122 147
f 171 123 147
f 47 46 71
f 72 47 71
f 808 844 974
f 1018 974 844
f 148 171 193
f 192 193 171
f 123 171 148
f 124 123 148
f 411 430 431
f 410 430 411
f 844 796 901
f 903 901 796
f 49 48 73
f 74 49 73
f 125 124 148
f 149 125 148
f 1018 844 1025
f 902 1025 844
f 901 902 844
f 412 431 432
f 411 431 412
f 127 126 150
f 151 127 150
f 908 904 809
f 940 908 809
f 50 49 74
f 75 50 74
f 314 313 328
f 329 314 328
f 803 821 1034
f 1033 1034 821
f 128 127 151
f 152 128 151
f 413 432 433
f 412 432 413
f 315 314 329
f 330 315 329
f 52 51 76
f 77 52 76
f 774 1023 1037
f 1020 1023 774
f 1045 1020 774
f 129 128 152
f 153 129 152
f 414 433 434
f 413 433 414
f 766 965 1051
f 961 965 766
f 53 52 77
f 78 53 77
f 758 997 999
f 745 997 758
f 54 53 78
f 79 54 78
f 779 744 897
f 906 897 744
f 898 779 897
f 55 54 79
f 80 55 79
f 1057 907 744
f 906 744 907
f 744 792 1057
f 905 1057 792
f 922 267 252
f 1087 252 251
f 1086 1087 251
f 922 252 1087
f 766 954 961
f 953 954 766
f 56 55 80
f 81 56 80
f 256 255 268
f 269 256 268
f 416 442 443
f 415 442 416
f 454 480 484
f 425 454 484
f 409 425 484
f 394 409 484
f 385 394 484
f 377 385 484
f 372 377 484
f 371 372 484
f 361 371 484
f 348 361 484
f 333 348 484
f 318 333 484
f 303 318 484
f 286 303 484
f 482 286 484
f 273 286 482
f 260 273 482
f 244 260 482
f 224 244 482
f 205 224 482
f 194 205 482
f 172 194 482
f 149 172 482
f 125 149 482
f 100 125 482
f 75 100 482
f 50 75 482
f 25 50 482
f 57 56 81
f 82 57 81
f 315 330 331
f 316 315 331
f 256 269 270
f 257 256 270
f 821 1019 1033
f 968 1019 821
f 914 968 821
f 1064 914 821
f 894 914 1064
f 887 894 1064
f 1012 887 1064
f 1063 1012 1064
f 1017 1012 1063
f 130 129 153
f 154 130 153
f 426 443 444
f 416 443 426
f 317 316 331
f 332 317 331
f 58 57 82
f 83 58 82
f 417 426 427
f 428 427 426
f 984 988 774
f 1040 774 1042
f 988 1042 774
f 983 984 774
f 131 130 154
f 155 131 154
f 258 257 270
f 271 258 270
f 317 332 333
f 318 317 333
f 766 757 949
f 1011 949 757
f 953 766 949
f 131 155 156
f 132 131 156
f 774 749 1045
f 1062 1045 749
f 59 58 83
f 84 59 83
f 749 766 1051
f 1062 749 1051
f 419 418 427
f 429 419 427
f 320 319 334
f 335 320 334
f 998 746 1000
f 758 1000 746
f 258 271 272
f 259 258 272
f 133 132 156
f 157 133 156
f 998 1009 746
f 757 746 1009
f 60 59 84
f 85 60 84
f 321 320 335
f 336 321 335
f 899 886 779
f 420 429 447
f 446 447 429
f 419 429 420
f 321 336 337
f 322 321 337
f 745 944 997
f 943 944 745
f 259 272 273
f 260 259 273
f 879 952 780
f 162 183 184
f 138 183 162
f 61 60 85
f 86 61 85
f 323 322 337
f 338 323 337
f 745 780 951
f 942 745 951
f 943 745 942
f 421 420 448
f 447 448 420
f 140 139 162
f 163 140 162
f 867 754 869
f 793 869 754
f 917 869 793
f 262 275 276
f 263 262 276
f 324 323 338
f 339 324 338
f 140 163 164
f 141 140 164
f 61 86 87
f 62 61 87
f 264 263 276
f 277 264 276
f 63 62 87
f 88 63 87
f 265 264 277
f 278 265 277
f 64 63 88
f 89 64 88
f 983 774 1102
f 876 983 1102
f 977 983 876
f 881 977 876
f 975 977 881
f 971 975 881
f 883 971 881
f 884 971 883
f 1103 1102 774
f 1105 1103 774
f 1104 1105 774
f 1036 1104 774
f 1037 1036 774
f 920 450 451
f 919 451 422
f 950 919 422
f 920 451 919
f 979 450 920
f 982 450 979
f 981 450 982
f 967 450 981
f 856 918 788
f 793 788 918
f 857 856 788
f 24 25 482
f 23 24 482
f 22 23 482
f 21 22 482
f 20 21 482
f 19 20 482
f 18 19 482
f 481 18 482
f 17 18 481
f 16 17 481
f 15 16 481
f 14 15 481
f 13 14 481
f 12 13 481
f 11 12 481
f 10 11 481
f 9 10 481
f 8 9 481
f 7 8 481
f 6 7 481
f 5 6 481
f 4 5 481
f 3 4 481
f 2 3 481
f 1 2 481
f 936 743 937
f 770 937 743
f 66 65 90
f 91 66 90
f 324 339 340
f 325 324 340
f 265 278 279
f 266 265 279
f 896 889 797
f 888 797 889
f 900 896 797
f 141 164 165
f 142 141 165
f 423 451 452
f 422 451 423
f 816 797 1080
f 797 1074 1080
f 890 1074 797
f 888 890 797
f 326 325 340
f 341 326 340
f 68 67 92
f 93 68 92
f 142 165 166
f 187 166 165
f 424 452 453
f 423 452 424
f 770 912 937
f 911 912 770
f 925 911 770
f 327 326 341
f 342 327 341
f 68 93 94
f 69 68 94
f 143 166 167
f 188 167 166
f 425 453 454
f 424 453 425
f 1123 1124 817
f 817 1124 1125
f 812 817 1125
f 145 144 167
f 168 145 167
f 70 69 94
f 95 70 94
f 771 1094 1111
f 1093 1094 771
f 1099 1093 771
f 146 145 168
f 169 146 168
f 70 95 96
f 71 70 96
f 330 329 344
f 345 330 344
f 428 444 445
f 426 444 428
f 147 146 169
f 170 147 169
f 771 763 1078
f 1077 771 1078
f 1072 771 1077
f 1073 771 1072
f 1099 771 1073
f 72 71 96
f 97 72 96
f 172 193 194
f 148 193 172
f 73 72 97
f 98 73 97
f 1058 1059 812
f 812 1059 1065
f 1125 1058 812
f 331 330 345
f 346 331 345
f 74 73 98
f 99 74 98
f 151 150 173
f 174 151 173
f 75 74 99
f 100 75 99
f 331 346 347
f 332 331 347
f 270 269 282
f 283 270 282
f 763 767 996
f 991 763 996
f 992 763 991
f 1001 763 992
f 1008 763 1001
f 1078 763 1008
f 152 151 174
f 175 152 174
f 77 76 101
f 102 77 101
f 1066 1056 812
f 1055 812 1056
f 1065 1066 812
f 333 332 347
f 348 333 347
f 272 271 284
f 285 272 284
f 153 152 175
f 176 153 175
f 78 77 102
f 103 78 102
f 1050 1049 812
f 815 812 1049
f 1052 1050 812
f 1054 1052 812
f 1055 1054 812
f 335 349 350
f 334 349 335
f 273 272 285
f 286 273 285
f 154 153 176
f 177 154 176
f 79 78 103
f 104 79 103
f 767 995 996
f 1030 995 767
f 1029 1030 767
f 1028 1029 767
f 287 290 291
f 274 290 287
f 336 350 351
f 335 350 336
f 80 79 104
f 105 80 104
f 155 154 177
f 178 155 177
f 277 276 288
f 289 277 288
f 337 351 352
f 336 351 337
f 81 80 105
f 106 81 105
f 156 155 178
f 179 156 178
f 815 1116 1113
f 815 1113 1064
f 815 1043 1116
f 1039 1043 815
f 815 1064 821
f 1038 1039 815
f 1047 1038 815
f 1049 1047 815
f 278 277 289
f 294 278 289
f 338 337 353
f 352 353 337
f 82 81 106
f 107 82 106
f 339 353 354
f 338 353 339
f 279 294 295
f 278 294 279
f 340 354 355
f 339 354 340
f 83 82 107
f 108 83 107
f 341 355 356
f 340 355 341
f 429 445 446
f 428 445 429
f 160 181 182
f 161 160 182
f 767 774 1040
f 1041 767 1040
f 1044 767 1041
f 1046 767 1044
f 1048 767 1046
f 1053 767 1048
f 1021 767 1053
f 1022 767 1021
f 1024 767 1022
f 1028 767 1024
f 280 295 296
f 279 295 280
f 163 162 184
f 185 163 184
f 84 83 108
f 109 84 108
f 164 163 185
f 186 164 185
f 431 430 455
f 456 431 455
f 165 164 186
f 187 165 186
f 85 84 109
f 110 85 109
f 168 167 188
f 189 168 188
f 433 432 457
f 458 433 457
f 169 168 189
f 190 169 189
f 816 1088 1095
f 1085 1088 816
f 1135 802 816
f 1097 816 1095
f 1079 1085 816
f 1080 1079 816
f 1100 816 1097
f 1108 816 1100
f 1137 816 1108
f 1135 816 1137
f 85 110 111
f 86 85 111
f 170 169 190
f 191 170 190
f 435 434 459
f 460 435 459
f 171 170 191
f 192 171 191
f 87 86 111
f 112 87 111
f 345 357 358
f 344 357 345
f 770 873 925
f 870 873 770
f 1115 870 770
f 956 1115 770
f 955 956 770
f 750 955 770
f 436 435 461
f 462 436 461
f 174 206 207
f 173 206 174
f 88 87 112
f 113 88 112
f 773 771 1014
f 771 1111 1112
f 1015 771 1112
f 1014 771 1015
f 346 345 359
f 358 359 345
f 439 438 464
f 465 439 464
f 175 174 208
f 207 208 174
f 1117 1119 817
f 817 1119 1123
f 89 88 113
f 114 89 113
f 347 359 360
f 346 359 347
f 1118 1117 818
f 817 818 1117
f 1132 1118 818
f 440 466 467
f 441 440 467
f 176 208 209
f 175 208 176
f 89 114 115
f 90 89 115
f 348 347 361
f 360 361 347
f 1135 1136 802
f 802 1136 1138
f 1141 802 1138
f 442 441 467
f 468 442 467
f 177 209 210
f 176 209 177
f 91 90 115
f 116 91 115
f 942 178 177
f 942 177 210
f 943 942 210
f 944 943 210
f 443 442 468
f 469 443 468
f 350 349 362
f 363 350 362
f 750 773 1032
f 994 750 1032
f 989 750 994
f 986 750 989
f 963 750 986
f 959 750 963
f 955 750 959
f 351 364 365
f 352 351 365
f 354 353 366
f 367 354 366
f 1141 1129 802
f 818 802 1129
f 1130 818 1129
f 1132 818 1130
f 962 195 181
f 860 195 962
f 962 181 180
f 183 182 196
f 197 183 196
f 773 1002 1003
f 1026 773 1003
f 1016 1002 773
f 1032 773 1026
f 761 743 936
f 938 761 936
f 980 368 358
f 980 358 357
f 978 980 357
f 185 184 198
f 215 185 198
f 214 215 198
f 895 900 797
f 892 895 797
f 891 892 797
f 891 797 811
f 359 358 368
f 369 359 368
f 186 215 216
f 185 215 186
f 847 848 1089
f 1084 847 1089
f 1081 847 1084
f 1082 847 1081
f 359 369 370
f 360 359 370
f 787 874 875
f 924 874 787
f 199 216 217
f 186 216 199
f 187 186 199
f 363 362 379
f 378 379 362
f 1089 848 1090
f 1096 1090 848
f 1098 1096 848
f 1101 1098 848
f 1106 1101 848
f 189 188 200
f 201 189 200
f 871 789 875
f 787 875 789
f 364 379 380
f 363 379 364
f 189 201 202
f 220 202 201
f 787 761 910
f 913 761 938
f 910 761 913
f 365 364 373
f 380 373 364
f 381 373 380
f 893 811 1075
f 1083 1075 811
f 891 811 893
f 191 190 202
f 203 191 202
f 811 847 1083
f 1082 1083 847
f 192 191 203
f 222 192 203
f 910 909 787
f 787 909 924
f 204 222 223
f 192 222 204
f 193 192 204
f 197 196 212
f 213 197 212
f 201 200 218
f 219 201 218
f 203 202 220
f 221 203 220
f 207 206 229
f 228 229 206
f 208 229 230
f 207 229 208
f 209 230 231
f 208 230 209
f 369 374 375
f 368 374 369
f 210 231 232
f 209 231 210
f 370 375 376
f 369 375 370
f 372 376 377
f 370 376 372
f 1025 383 375
f 1025 375 374
f 902 383 1025
f 376 375 383
f 384 376 383
f 377 376 384
f 385 377 384
f 861 860 786
f 860 962 786
f 962 915 786
f 882 861 786
f 880 882 786
f 880 786 866
f 866 786 865
f 1086 786 1087
f 865 786 1035
f 1035 786 1086
f 1057 905 134
f 850 134 905
f 1057 134 133
f 907 1057 133
f 157 907 133
f 855 158 857
f 856 857 158
f 180 158 855
f 854 180 855
f 929 1067 845
f 935 929 845
f 978 935 845
f 980 978 845
f 985 980 845
f 928 1067 929
f 1068 1067 928
f 927 1068 928
f 867 135 134
f 868 134 858
f 867 134 868
f 869 135 867
f 158 135 869
f 850 858 134
f 211 195 860
f 861 211 860
f 786 1070 1087
f 922 1087 1070
f 1069 922 1070
f 921 922 1069
f 1076 921 1069
f 1007 921 1076
f 931 921 1007
f 633 623 875
f 871 875 623
f 874 633 875
f 872 871 623
f 870 610 873
f 1106 848 1107
f 1133 1107 848
f 1134 1133 848
f 1139 1134 848
f 880 225 882
f 211 882 225
f 880 226 225
f 327 342 876
f 881 876 342
f 382 391 887
f 894 887 391
f 891 667 892
f 893 667 891
f 958 957 789
f 789 957 964
f 791 789 1031
f 987 789 964
f 1114 958 789
f 872 1114 789
f 871 872 789
f 990 789 987
f 993 789 990
f 1031 789 993
f 888 489 890
f 576 890 489
f 889 489 888
f 1139 848 1140
f 1131 1140 848
f 1128 1131 848
f 849 1128 848
f 156 179 886
f 885 886 179
f 899 156 886
f 157 156 899
f 898 157 899
f 897 157 898
f 895 892 665
f 667 665 892
f 1027 1006 791
f 1005 791 1006
f 1031 1027 791
f 900 895 658
f 665 658 895
f 900 658 489
f 896 900 489
f 1092 1091 791
f 786 791 1070
f 1071 791 1091
f 1110 1092 791
f 1070 791 1071
f 845 1060 1126
f 1061 1060 845
f 1067 1061 845
f 901 383 902
f 903 383 901
f 904 383 903
f 392 383 904
f 908 392 904
f 157 897 906
f 907 157 906
f 849 1127 1128
f 1120 1127 849
f 1121 1120 849
f 1122 1121 849
f 1126 1122 849
f 845 1126 849
f 632 633 909
f 910 632 909
f 913 632 910
f 914 403 404
f 894 391 403
f 894 403 914
f 1013 1109 791
f 791 1109 1110
f 1004 1013 791
f 1005 1004 791
f 158 869 917
f 916 158 917
f 918 158 916
f 856 158 918
f 342 617 881
f 883 881 617
f 925 873 489
f 610 489 873
f 911 925 489
f 633 874 924
f 909 633 924
f 343 631 928
f 927 928 631
f 692 267 921
f 931 692 921
f 406 851 852
f 923 406 852
f 926 406 923
f 932 406 926
f 929 357 344
f 935 357 929
f 343 929 344
f 937 489 936
f 938 936 635
f 936 489 635
f 912 489 937
f 913 938 635
f 632 913 635
f 930 407 392
f 859 407 930
f 853 407 859
f 851 407 853
f 406 407 851
f 941 930 392
f 940 941 392
f 908 940 392
f 945 449 946
f 933 449 945
f 934 449 933
f 939 448 449
f 939 449 934
f 862 448 939
f 421 448 862
f 863 421 862
f 879 878 178
f 179 178 878
f 952 879 178
f 951 952 178
f 942 951 178
f 953 232 249
f 949 232 953
f 954 953 249
f 250 954 249
f 955 517 956
f 611 956 517
f 959 517 955
f 877 179 878
f 885 179 877
f 965 961 250
f 954 250 961
f 915 962 180
f 854 915 180
f 624 621 957
f 964 957 621
f 970 449 450
f 970 450 967
f 969 449 970
f 946 449 969
f 404 405 968
f 914 404 968
f 617 614 971
f 884 617 971
f 983 614 984
f 977 614 983
f 368 976 374
f 973 374 976
f 972 374 973
f 985 976 368
f 980 985 368
f 621 622 964
f 987 964 622
f 622 652 987
f 990 987 652
f 652 651 990
f 993 990 651
f 602 991 996
f 606 602 995
f 995 602 996
f 1000 999 210
f 997 210 999
f 998 1000 210
f 944 210 997
f 232 998 210
f 1009 998 232
f 1010 1009 232
f 1011 1010 232
f 949 1011 232
f 645 646 1006
f 1005 1006 646
f 1004 1005 646
f 1019 968 405
f 1002 1016 517
f 612 517 1015
f 1014 517 1016
f 1015 517 1014
f 737 382 1012
f 1017 737 1012
f 974 374 972
f 1018 374 974
f 1025 374 1018
f 1020 266 279
f 1020 279 1023
f 280 1023 279
f 649 645 1027
f 1006 1027 645
f 882 211 861
f 1028 606 1029
f 1024 606 1028
f 651 649 993
f 1031 993 649
f 1027 1031 649
f 517 994 1032
f 1026 517 1032
f 234 233 865
f 1035 234 865
f 251 234 1035
f 280 1036 1037
f 1023 280 1037
f 1040 606 1041
f 1042 606 1040
f 988 606 1042
f 614 606 988
f 586 1043 575
f 1039 575 1043
f 575 1047 1049
f 1050 575 1049
