v -1.3680117784833934 1.595455565846428 0.5
v -0.6319882215166065 1.595455565846428 0.5
v -1 1.3680117784833934 1.095455565846428
v -1 1.3680117784833934 -0.095455565846428003
v -1.595455565846428 1 0.1319882215166065
v -1.595455565846428 1 0.8680117784833935
v -1 1.7 0.5
v -1.2163118960624633 1.5663118960624631 0.85000000000000009
v -0.78368810393753674 1.5663118960624631 0.85000000000000009
v -1 1 1.2
v -1.2163118960624633 1.5663118960624631 0.14999999999999997
v -0.78368810393753674 1.5663118960624631 0.14999999999999997
v -1 1 -0.19999999999999996
v -0.64999999999999991 1.2163118960624633 -0.066311896062463127
v -0.64999999999999991 1.2163118960624633 1.0663118960624631
v -1.5663118960624631 1.3500000000000001 0.2836881039375368
v -1.5663118960624631 0.64999999999999991 0.2836881039375368
v -1.3500000000000001 0.78368810393753674 -0.066311896062463127
v -1.3500000000000001 1.2163118960624633 -0.066311896062463127
v -1.5663118960624631 1.3500000000000001 0.71631189606246326
v -1.5663118960624631 0.64999999999999991 0.71631189606246326
v -1.3500000000000001 0.78368810393753674 1.0663118960624631
v -1.3500000000000001 1.2163118960624633 1.0663118960624631
v -1.7 1 0.5
v -1.1912865702388702 1.6733568504487422 0.5
v -0.80871342976112981 1.6733568504487422 0.5
v -1.3037219951868864 1.6038679362913304 0.68192433910542805
v -1.1124354249480162 1.4856463342923143 0.991432511343314
v -1.1137218936815172 1.6657395614066075 0.6840058892416967
v -0.69627800481311364 1.6038679362913304 0.68192433910542805
v -0.88756457505198383 1.4856463342923143 0.991432511343314
v -0.88627810631848281 1.6657395614066075 0.6840058892416967
v -1 1.5954555658464278 0.8680117784833935
v -1 1.1912865702388702 1.1733568504487422
v -1.3037219951868864 1.6038679362913304 0.31807566089457195
v -1.1124354249480162 1.4856463342923143 0.0085674886566859398
v -1.1137218936815172 1.6657395614066075 0.31599411075830325
v -0.69627800481311364 1.6038679362913304 0.31807566089457195
v -0.88756457505198383 1.4856463342923143 0.0085674886566859398
v -0.88627810631848281 1.6657395614066075 0.31599411075830325
v -1 1.5954555658464278 0.1319882215166065
v -1 1.1912865702388702 -0.17335685044874227
v -0.5143536657076857 1.491432511343314 0.38756457505198383
v -0.5885503233952688 1.4817336721649106 0.20227221707678605
v -0.81807566089457184 1.3037219951868864 -0.10386793629133029
v -0.702272217076786 1.4114496766047311 0.018266327835089302
v -0.81599411075830319 1.1137218936815172 -0.16573956140660751
v -0.5143536657076857 1.491432511343314 0.61243542494801617
v -0.5885503233952688 1.4817336721649106 0.79772778292321389
v -0.81807566089457184 1.3037219951868864 1.1038679362913304
v -0.702272217076786 1.4114496766047311 0.9817336721649107
v -0.81599411075830319 1.1137218936815172 1.1657395614066075
v -1.4856463342923143 1.491432511343314 0.38756457505198383
v -1.6038679362913304 1.1819243391054282 0.19627800481311364
v -1.4114496766047311 1.4817336721649106 0.20227221707678605
v -1.4856463342923143 0.50856748865668588 0.38756457505198383
v -1.6038679362913304 0.81807566089457184 0.19627800481311364
v -1.4114496766047311 0.51826632783508941 0.20227221707678605
v -1.1819243391054282 0.69627800481311364 -0.10386793629133029
v -1.491432511343314 0.88756457505198383 0.014353665707685648
v -1.2977277829232139 0.5885503233952688 0.018266327835089302
v -1.1840058892416967 0.88627810631848281 -0.16573956140660751
v -1.4817336721649106 0.702272217076786 0.088550323395268804
v -1.1819243391054282 1.3037219951868864 -0.10386793629133029
v -1.491432511343314 1.1124354249480162 0.014353665707685648
v -1.2977277829232139 1.4114496766047311 0.018266327835089302
v -1.1840058892416967 1.1137218936815172 -0.16573956140660751
v -1.4817336721649106 1.2977277829232139 0.088550323395268804
v -1.3680117784833936 1 -0.095455565846427892
v -1.4856463342923143 1.491432511343314 0.61243542494801617
v -1.6038679362913304 1.1819243391054282 0.80372199518688636
v -1.4114496766047311 1.4817336721649106 0.79772778292321389
v -1.5954555658464278 1.3680117784833936 0.5
v -1.4856463342923143 0.50856748865668588 0.61243542494801617
v -1.6038679362913304 0.81807566089457184 0.80372199518688636
v -1.4114496766047311 0.51826632783508941 0.79772778292321389
v -1.5954555658464278 0.63198822151660639 0.5
v -1.1819243391054282 0.69627800481311364 1.1038679362913304
v -1.491432511343314 0.88756457505198383 0.9856463342923143
v -1.2977277829232139 0.5885503233952688 0.9817336721649107
v -1.1840058892416967 0.88627810631848281 1.1657395614066075
v -1.4817336721649106 0.702272217076786 0.9114496766047312
v -1.1819243391054282 1.3037219951868864 1.1038679362913304
v -1.491432511343314 1.1124354249480162 0.9856463342923143
v -1.2977277829232139 1.4114496766047311 0.9817336721649107
v -1.1840058892416967 1.1137218936815172 1.1657395614066075
v -1.4817336721649106 1.2977277829232139 0.9114496766047312
v -1.3680117784833936 1 1.0954555658464278
v -1.6733568504487422 1 0.30871342976112981
v -1.6733568504487422 1 0.69128657023887019
v -1.6657395614066075 1.1840058892416967 0.38627810631848275
v -1.6657395614066075 0.81599411075830319 0.38627810631848275
v -1.6657395614066075 1.1840058892416967 0.61372189368151719
v -1.6657395614066075 0.81599411075830319 0.61372189368151719
v 0.6319882215166065 -1.595455565846428 0.5
v 1.3680117784833934 -1.595455565846428 0.5
v 1 -1.3680117784833934 1.095455565846428
v 1 -1.3680117784833934 -0.095455565846428003
v 1.595455565846428 -1 0.1319882215166065
v 1.595455565846428 -1 0.8680117784833935
v 1 -1.7 0.5
v 0.78368810393753674 -1.5663118960624631 0.85000000000000009
v 1.2163118960624633 -1.5663118960624631 0.85000000000000009
v 1 -1 1.2
v 0.78368810393753674 -1.5663118960624631 0.14999999999999997
v 1.2163118960624633 -1.5663118960624631 0.14999999999999997
v 1 -1 -0.19999999999999996
v 1.5663118960624631 -0.64999999999999991 0.2836881039375368
v 1.5663118960624631 -1.3500000000000001 0.2836881039375368
v 1.3500000000000001 -1.2163118960624633 -0.066311896062463127
v 1.3500000000000001 -0.78368810393753674 -0.066311896062463127
v 1.5663118960624631 -0.64999999999999991 0.71631189606246326
v 1.5663118960624631 -1.3500000000000001 0.71631189606246326
v 1.3500000000000001 -1.2163118960624633 1.0663118960624631
v 1.3500000000000001 -0.78368810393753674 1.0663118960624631
v 1.7 -1 0.5
v 0.64999999999999991 -1.2163118960624633 -0.066311896062463127
v 0.64999999999999991 -1.2163118960624633 1.0663118960624631
v 0.80871342976112981 -1.6733568504487422 0.5
v 1.1912865702388702 -1.6733568504487422 0.5
v 0.69627800481311364 -1.6038679362913304 0.68192433910542805
v 0.88756457505198383 -1.4856463342923143 0.991432511343314
v 0.88627810631848281 -1.6657395614066075 0.6840058892416967
v 1.3037219951868864 -1.6038679362913304 0.68192433910542805
v 1.1124354249480162 -1.4856463342923143 0.991432511343314
v 1.1137218936815172 -1.6657395614066075 0.6840058892416967
v 1 -1.5954555658464278 0.8680117784833935
v 1 -1.1912865702388702 1.1733568504487422
v 0.69627800481311364 -1.6038679362913304 0.31807566089457195
v 0.88756457505198383 -1.4856463342923143 0.0085674886566859398
v 0.88627810631848281 -1.6657395614066075 0.31599411075830325
v 1.3037219951868864 -1.6038679362913304 0.31807566089457195
v 1.1124354249480162 -1.4856463342923143 0.0085674886566859398
v 1.1137218936815172 -1.6657395614066075 0.31599411075830325
v 1 -1.5954555658464278 0.1319882215166065
v 1 -1.1912865702388702 -0.17335685044874227
v 1.4856463342923143 -0.50856748865668588 0.38756457505198383
v 1.6038679362913304 -0.81807566089457184 0.19627800481311364
v 1.4114496766047311 -0.51826632783508941 0.20227221707678605
v 1.4856463342923143 -1.491432511343314 0.38756457505198383
v 1.6038679362913304 -1.1819243391054282 0.19627800481311364
v 1.4114496766047311 -1.4817336721649106 0.20227221707678605
v 1.1819243391054282 -1.3037219951868864 -0.10386793629133029
v 1.491432511343314 -1.1124354249480162 0.014353665707685648
v 1.2977277829232139 -1.4114496766047311 0.018266327835089302
v 1.1840058892416967 -1.1137218936815172 -0.16573956140660751
v 1.4817336721649106 -1.2977277829232139 0.088550323395268804
v 1.1819243391054282 -0.69627800481311364 -0.10386793629133029
v 1.491432511343314 -0.88756457505198383 0.014353665707685648
v 1.2977277829232139 -0.5885503233952688 0.018266327835089302
v 1.1840058892416967 -0.88627810631848281 -0.16573956140660751
v 1.4817336721649106 -0.702272217076786 0.088550323395268804
v 1.3680117784833936 -1 -0.095455565846427892
v 1.4856463342923143 -0.50856748865668588 0.61243542494801617
v 1.6038679362913304 -0.81807566089457184 0.80372199518688636
v 1.4114496766047311 -0.51826632783508941 0.79772778292321389
v 1.5954555658464278 -0.63198822151660639 0.5
v 1.4856463342923143 -1.491432511343314 0.61243542494801617
v 1.6038679362913304 -1.1819243391054282 0.80372199518688636
v 1.4114496766047311 -1.4817336721649106 0.79772778292321389
v 1.5954555658464278 -1.3680117784833936 0.5
v 1.1819243391054282 -1.3037219951868864 1.1038679362913304
v 1.491432511343314 -1.1124354249480162 0.9856463342923143
v 1.2977277829232139 -1.4114496766047311 0.9817336721649107
v 1.1840058892416967 -1.1137218936815172 1.1657395614066075
v 1.4817336721649106 -1.2977277829232139 0.9114496766047312
v 1.1819243391054282 -0.69627800481311364 1.1038679362913304
v 1.491432511343314 -0.88756457505198383 0.9856463342923143
v 1.2977277829232139 -0.5885503233952688 0.9817336721649107
v 1.1840058892416967 -0.88627810631848281 1.1657395614066075
v 1.4817336721649106 -0.702272217076786 0.9114496766047312
v 1.3680117784833936 -1 1.0954555658464278
v 1.6733568504487422 -1 0.30871342976112981
v 1.6733568504487422 -1 0.69128657023887019
v 1.6657395614066075 -0.81599411075830319 0.38627810631848275
v 1.6657395614066075 -1.1840058892416967 0.38627810631848275
v 1.6657395614066075 -0.81599411075830319 0.61372189368151719
v 1.6657395614066075 -1.1840058892416967 0.61372189368151719
v 0.5143536657076857 -1.491432511343314 0.38756457505198383
v 0.5885503233952688 -1.4817336721649106 0.20227221707678605
v 0.81807566089457184 -1.3037219951868864 -0.10386793629133029
v 0.702272217076786 -1.4114496766047311 0.018266327835089302
v 0.81599411075830319 -1.1137218936815172 -0.16573956140660751
v 0.5143536657076857 -1.491432511343314 0.61243542494801617
v 0.5885503233952688 -1.4817336721649106 0.79772778292321389
v 0.81807566089457184 -1.3037219951868864 1.1038679362913304
v 0.702272217076786 -1.4114496766047311 0.9817336721649107
v 0.81599411075830319 -1.1137218936815172 1.1657395614066075
f 60 5 65
f 65 69 60
f 19 69 65
f 136 107 146
f 183 107 136
f 183 136 181
f 181 130 182
f 18 60 69
f 93 73 91
f 93 91 24
f 24 90 93
f 91 73 16
f 69 19 67
f 120 132 96
f 160 103 124
f 124 120 96
f 164 103 160
f 146 153 110
f 99 173 141
f 119 131 101
f 63 18 61
f 60 18 63
f 89 92 24
f 24 91 89
f 94 90 24
f 24 92 94
f 151 153 146
f 148 111 151
f 151 111 153
f 146 107 151
f 180 182 105
f 182 130 105
f 142 132 106
f 88 79 22
f 52 34 10
f 166 164 160
f 154 156 112
f 155 177 112
f 98 181 136
f 130 181 98
f 117 181 182
f 91 16 54
f 5 89 54
f 54 89 91
f 65 5 54
f 53 16 73
f 53 55 16
f 53 1 35
f 35 55 53
f 69 67 62
f 59 18 62
f 62 18 69
f 62 67 13
f 35 1 25
f 152 139 108
f 108 139 137
f 140 132 142
f 96 132 140
f 141 173 176
f 176 173 116
f 160 124 158
f 158 124 96
f 158 140 161
f 96 140 158
f 104 188 128
f 165 104 128
f 165 128 162
f 162 128 97
f 103 164 125
f 125 162 97
f 164 162 125
f 144 110 153
f 144 147 110
f 141 147 144
f 144 99 141
f 153 111 149
f 149 144 153
f 99 144 149
f 149 111 152
f 129 179 180
f 131 119 129
f 180 105 129
f 129 105 131
f 101 120 126
f 120 124 126
f 126 124 103
f 5 60 57
f 60 63 57
f 57 89 5
f 92 89 57
f 77 94 92
f 80 22 82
f 82 22 79
f 134 106 132
f 132 120 134
f 101 131 134
f 134 120 101
f 186 128 188
f 97 128 186
f 186 118 187
f 88 22 81
f 88 81 86
f 86 81 10
f 10 34 86
f 170 104 165
f 50 3 34
f 34 52 50
f 50 15 51
f 172 170 165
f 115 170 172
f 159 163 166
f 171 169 115
f 155 112 171
f 171 112 156
f 146 110 143
f 143 136 146
f 143 98 136
f 68 19 65
f 65 54 68
f 68 54 16
f 16 55 68
f 7 25 29
f 35 25 37
f 37 7 40
f 25 7 37
f 152 108 138
f 138 149 152
f 99 149 138
f 173 99 138
f 40 7 26
f 48 30 49
f 64 67 19
f 45 4 39
f 45 39 46
f 161 140 109
f 109 176 161
f 141 176 109
f 109 140 142
f 109 147 141
f 142 147 109
f 122 125 97
f 187 102 122
f 122 186 187
f 97 186 122
f 95 119 121
f 179 129 95
f 95 129 119
f 95 184 179
f 121 184 95
f 123 119 101
f 101 126 123
f 121 119 123
f 123 102 121
f 17 58 56
f 17 63 58
f 17 57 63
f 92 57 17
f 17 77 92
f 56 77 17
f 74 77 56
f 42 47 13
f 13 67 42
f 45 47 42
f 42 4 45
f 67 64 42
f 42 64 4
f 106 134 135
f 135 134 131
f 131 105 135
f 135 105 130
f 78 81 22
f 31 50 51
f 3 50 31
f 167 170 115
f 114 162 164
f 164 166 114
f 166 163 114
f 165 162 114
f 114 172 165
f 114 163 172
f 161 176 178
f 178 176 116
f 163 159 100
f 160 158 113
f 113 166 160
f 113 159 166
f 113 158 161
f 113 178 159
f 161 178 113
f 98 143 133
f 106 135 133
f 130 98 133
f 133 135 130
f 110 147 145
f 145 143 110
f 145 147 142
f 145 133 143
f 142 106 145
f 106 133 145
f 173 138 175
f 116 173 175
f 175 177 116
f 175 138 108
f 32 7 29
f 32 26 7
f 29 33 32
f 30 26 32
f 2 26 30
f 30 48 2
f 4 64 36
f 36 39 4
f 44 46 12
f 12 46 39
f 45 46 14
f 152 111 150
f 125 122 127
f 127 123 126
f 103 125 127
f 127 126 103
f 127 122 102
f 102 123 127
f 94 77 21
f 77 74 21
f 6 79 84
f 84 79 88
f 70 53 73
f 1 53 70
f 8 33 29
f 155 171 168
f 168 100 155
f 168 171 115
f 115 172 168
f 172 163 168
f 163 100 168
f 174 178 116
f 116 177 174
f 159 178 174
f 174 100 159
f 174 177 155
f 155 100 174
f 157 108 137
f 157 175 108
f 157 137 154
f 177 175 157
f 154 112 157
f 157 112 177
f 33 31 9
f 9 32 33
f 30 32 9
f 51 49 9
f 49 30 9
f 9 31 51
f 43 2 48
f 11 55 35
f 35 37 11
f 66 68 55
f 66 36 64
f 19 68 66
f 66 64 19
f 55 11 66
f 66 11 36
f 41 37 40
f 39 36 41
f 40 12 41
f 41 12 39
f 41 11 37
f 36 11 41
f 44 12 38
f 38 43 44
f 2 43 38
f 38 12 40
f 40 26 38
f 26 2 38
f 94 21 75
f 6 90 75
f 90 94 75
f 75 21 82
f 75 79 6
f 75 82 79
f 6 84 71
f 71 90 6
f 71 93 90
f 88 86 23
f 23 84 88
f 1 70 27
f 27 8 29
f 29 25 27
f 27 25 1
f 33 8 28
f 3 31 28
f 28 31 33
f 28 8 85
f 185 184 121
f 185 102 187
f 121 102 185
f 87 71 84
f 87 23 85
f 84 23 87
f 83 23 86
f 34 3 83
f 83 86 34
f 85 23 83
f 3 28 83
f 83 28 85
f 76 21 74
f 82 21 76
f 71 87 20
f 20 70 73
f 73 93 20
f 93 71 20
f 72 27 70
f 72 87 85
f 85 8 72
f 8 27 72
f 70 20 72
f 72 20 87
f 179 58 180
f 56 58 179
f 63 182 180
f 61 182 63
f 180 58 63
f 187 118 22
f 80 187 22
f 117 182 61
f 61 18 117
f 59 181 117
f 117 18 59
f 62 181 59
f 183 181 62
f 13 107 62
f 62 107 183
f 47 107 13
f 47 151 107
f 47 45 148
f 148 151 47
f 81 188 104
f 81 104 10
f 15 169 51
f 115 169 15
f 10 104 170
f 170 52 10
f 156 49 171
f 171 49 51
f 51 169 171
f 48 49 156
f 48 156 154
f 56 179 74
f 179 184 74
f 78 22 118
f 118 186 78
f 188 81 78
f 78 186 188
f 115 15 167
f 15 50 167
f 52 170 167
f 167 50 52
f 148 45 14
f 14 111 148
f 44 139 150
f 150 139 152
f 150 46 44
f 111 14 150
f 150 14 46
f 43 139 44
f 137 139 43
f 43 48 154
f 154 137 43
f 76 74 184
f 184 185 76
f 76 187 80
f 76 185 187
f 80 82 76
