# https://github.com/mikedh/trimesh
v -1.98569621 -1.99933580 -0.88408589
v -1.99956407 -1.99101201 -0.75295227
v -1.98991360 -1.99822680 -0.39378097
v -1.97799696 -1.99686483 -0.11866964
v -2.00222720 -1.97571901 -0.56674128
v -2.00093426 -1.92876998 -0.42060386
v -2.00291957 -1.95834926 -0.17558435
v -1.98934163 -1.89867071 -0.89899086
v -2.00126709 -1.82755343 -0.70856165
v -1.98806848 -1.90009800 -0.10963775
v -2.00040211 -1.69064895 -0.29768538
v -1.99962010 -1.70872930 -0.89041256
v -2.00299563 -1.57173136 -0.81331425
v -1.99307288 -1.50718001 -0.15080089
v -1.99989333 -1.48287085 -0.60574513
v -1.99586119 -1.44316379 -0.89403015
v -2.00258793 -1.35889081 -0.21225192
v -2.00089516 -1.22331217 -0.35823493
v -2.00151767 -1.16247932 -0.81524228
v -1.99810447 -1.09247616 -0.19602150
v -1.99981250 -1.16478715 -0.59799307
v -1.98133888 -1.20542446 -0.90005284
v -2.00084080 -0.99059687 -0.88891613
v -2.00090088 -0.86836550 -0.36996185
v -2.00059666 -0.84540338 -0.67029255
v -1.98811855 -0.79667503 -0.89779019
v -2.00035109 -0.70574141 -0.23714565
v -2.00053253 -0.60536364 -0.41506379
v -2.00100984 -0.49815840 -0.77649026
v -1.96589579 -0.65503511 -0.22849359
v -1.99144401 -0.41570703 -0.89662211
v -1.99864973 -0.46844957 -0.25679628
v -2.00085058 -0.39366622 -0.41058239
v -1.99092783 -0.21478910 -0.27866577
v -2.00020446 -0.18671664 -0.55284970
v -2.00231900 -0.14349823 -0.79737496
v -1.99700059 -0.03777999 -0.89195137
v -2.00150170 -0.05464611 -0.33850142
v -2.00141563 0.09137928 -0.75163268
v -2.00039043 0.14588296 -0.48680433
v -2.00024261 0.22167608 -0.35213374
v -2.00124015 0.35696694 -0.74493038
v -1.99851574 0.37500026 -0.89272397
v -2.00193419 0.49205425 -0.43681040
v -1.99757256 0.45171979 -0.35235505
v -2.00015487 0.60525384 -0.61979746
v -2.00125064 0.68785235 -0.81612139
v -1.99004139 0.74109575 -0.89848816
v -1.99606647 0.67855080 -0.37246200
v -2.00160517 0.79921552 -0.46774857
v -2.00058665 0.87779185 -0.71334540
v -2.00022687 0.90577349 -0.88787626
v -1.99195089 0.91686067 -0.39185607
v -2.00127329 1.12067124 -0.51025846
v -2.00124158 1.14350256 -0.76067059
v -1.98961868 1.25020179 -0.42519968
v -1.99294700 1.13365492 -0.89739316
v -1.99037542 1.40466341 -0.89702951
v -2.00079192 1.38447698 -0.73370867
v -2.00148906 1.52771672 -0.57356530
v -2.00166025 1.53445479 -0.86882263
v -1.99233045 1.64596721 -0.89720010
v -1.99692692 1.60283896 -0.47560539
v -2.00084223 1.72688230 -0.74624073
v -2.00219716 1.73668441 -0.52648424
v -2.00301303 1.88619026 -0.85241478
v -1.98845424 1.80236157 -0.47999462
v -1.99186172 1.85683807 -0.89923071
v -2.00082530 1.90071401 -0.51234700
v -2.00262536 1.92545112 -0.65648704
v -1.98523583 1.99985513 -0.52183288
v -1.99904265 1.99252709 -0.87279224
v -1.98943748 1.99942335 -0.67868107
v -1.83786573 -1.99326161 -0.89881789
v -1.90132262 -2.00203816 -0.73553353
v -1.94097699 -2.00445107 -0.22349531
v -1.95845355 -1.72833232 -0.11769751
v -1.97611656 -1.80418829 -0.90292709
v -1.93708028 -1.66486541 -0.90117168
v -1.87708225 -1.46991852 -0.13310531
v -1.92757000 -1.47450677 -0.90089958
v -1.93574955 -1.19584629 -0.16954445
v -1.82846476 -0.94729582 -0.17901074
v -1.86330845 -0.61616329 -0.90242343
v -1.87889602 -0.41630405 -0.23937768
v -1.96196522 -0.02143699 -0.29080775
v -1.91041304 0.00574791 -0.90105163
v -1.91347565 0.25166967 -0.31149115
v -1.84513821 0.20400068 -0.90065425
v -1.91997518 0.46103075 -0.90126508
v -1.93174519 0.59346315 -0.34795573
v -1.94270195 0.84782668 -0.90226494
v -1.84380235 1.04641839 -0.38006087
v -1.96017076 1.03929552 -0.90279829
v -1.90470256 1.26309642 -0.90279143
v -1.91067328 1.54282733 -0.43982159
v -1.96263100 1.72864446 -0.90435558
v -1.94653310 1.90249952 -0.90426653
v -1.92747249 1.90419587 -0.47733124
v -1.90806832 1.99176773 -0.90046733
v -1.92635609 2.00323018 -0.82201146
v -1.84683718 -2.00108782 -0.53431528
v -1.86752655 -1.03073088 -0.90150659
v -1.89075460 -0.27970197 -0.90262883
v -1.81225242 -0.18345675 -0.25287514
v -1.78587426 0.64611133 -0.90038144
v -1.77821960 0.79965969 -0.34628715
v -1.84189309 1.29720243 -0.40481024
v -1.83135380 1.54070469 -0.90170037
v -1.91995038 1.99877104 -0.49604147
v -1.73947753 -1.85034195 -0.90140974
v -1.75556256 1.77238783 -0.90027373
v -1.74969603 2.00223264 -0.60855143
v -1.83520402 -1.91812614 -0.08020668
v -1.82597102 0.92135700 -0.90045112
v -1.78724136 -1.27087090 -0.90050786
v -1.82283928 -1.99528805 -0.07661917
v -1.76070954 -0.66366390 -0.19771480
v -1.70321204 0.00423109 -0.25594642
v -1.70566632 1.77679643 -0.43321102
v -1.68361236 -2.00100986 -0.20156459
v -1.67025139 -1.57048002 -0.89986377
v -1.72840776 -1.23613522 -0.13564288
v -1.70207729 0.28090843 -0.28338545
v -1.73983778 0.55345299 -0.31612762
v -1.71561910 1.93834528 -0.44994231
v -1.71530904 -1.76665012 -0.08020682
v -1.66739477 -0.09835515 -0.90005820
v -1.65797760 1.43382748 -0.89983939
v -1.74423804 1.99822816 -0.46986385
v -1.63001742 -0.34898690 -0.89989912
v -1.72457887 2.00041517 -0.88205772
v -1.68920233 -1.53488449 -0.09984992
v -1.70206668 1.10826453 -0.90010100
v -1.67041423 -1.99998561 -0.44594451
v -1.59996464 -0.86394451 -0.89987605
v -1.67095258 1.55625948 -0.40642180
v -1.67575290 1.97997030 -0.90169000
v -1.58237602 -2.00112346 -0.04955892
v -1.55460526 -1.26303253 -0.89987826
v -1.65983822 -0.56516919 -0.90032523
v -1.71231665 -2.00179211 -0.87826341
v -1.73293676 -1.98937932 -0.05967445
v -1.62081673 0.40752717 -0.90001302
v -1.55149867 0.69114550 -0.30196302
v -1.69896557 -1.99159340 -0.90212005
v -1.50293984 0.15345039 -0.89996099
v -1.59580745 -2.00019983 -0.74909305
v -1.57069077 -0.45967087 -0.18972021
v -1.57259108 1.32608434 -0.36857106
v -1.49914374 1.85363516 -0.90147727
v -1.61333455 -1.98296062 -0.04204770
v -1.53155400 -0.76687971 -0.15311100
v -1.55795063 0.80842313 -0.89993744
v -1.61502840 -2.00166360 -0.88870066
v -1.43641474 -0.14898696 -0.20054968
v -1.52777244 1.00801035 -0.33006173
v -1.45884563 1.31872639 -0.89985209
v -1.57985284 -1.99321142 -0.90025812
v -1.49229850 -1.30062095 -0.09401487
v -1.53154983 0.39662280 -0.26950201
v -1.50381698 -1.61588267 -0.06405476
v -1.39818909 0.95281872 -0.89995890
v -1.53956832 1.99881014 -0.43866064
v -1.50987734 -1.08905182 -0.11795029
v -1.41450121 0.64873853 -0.89993810
v -1.51945223 2.00105628 -0.86091422
v -1.46993615 -1.83887664 -0.90044074
v -1.38293316 -0.74018246 -0.89992314
v -1.42356660 1.95575413 -0.40772220
v -1.53800716 -2.00178364 -0.87948417
v -1.44111313 -1.99990419 -0.55317896
v -1.40555097 1.62772354 -0.89987992
v -1.45005907 0.16462060 -0.23411342
v -1.33860185 0.37520590 -0.89996611
v -1.43242122 -1.96562651 -0.90218221
v -1.43478622 -1.88893798 -0.02474686
v -1.39524640 -1.58144430 -0.89981567
v -1.39885690 -0.04756839 -0.89991998
v -1.41106953 1.99295672 -0.89699291
v -1.36041929 2.00032362 -0.68215775
v -1.38540282 -2.00024596 -0.22074183
v -1.32147135 -1.30586085 -0.89994537
v -1.32196798 -0.54285066 -0.89995824
v -1.29856600 1.26591703 -0.32138508
v -1.37988605 1.45232018 -0.35231220
v -1.38060071 1.70061859 -0.37717729
v -1.26363458 2.00209364 -0.46316384
v -1.43730738 -2.00054375 -0.88589250
v -1.32963397 -1.48442105 -0.05088570
v -1.36098530 -1.06111995 -0.89990704
v -1.29829170 -0.45548144 -0.14900676
v -1.29191734 0.88253197 -0.28213184
v -1.29793693 -2.00104121 -0.78201102
v -1.39257159 -1.99154547 -0.01206516
v -1.32552029 0.58582249 -0.25731566
v -1.40447511 2.00042995 -0.42420017
v -1.36224617 -0.73098022 -0.13166127
v -1.40557684 -1.00066403 -0.11482628
v -1.38974859 -0.27497760 -0.89993244
v -1.20535518 1.21304604 -0.89997261
v -1.12853147 -1.91110912 -0.90149050
v -1.21266844 -1.99983898 -0.44925483
v -1.25205888 -1.72304753 -0.01500161
v -1.36454071 -1.26982734 -0.08228252
v -1.30270197 -1.05358807 -0.17507658
v -1.28953924 -1.99720136 -0.89793878
v -1.20010795 1.48266491 -0.89988761
v -1.21743955 2.00123009 -0.81090604
v -1.22217562 -1.92138401 0.01133197
v -1.26597514 -0.82186741 -0.16957768
v -1.27521374 0.06707200 -0.19801085
v -1.18328859 0.08210444 -0.89998739
v -1.25764980 0.31411233 -0.21999248
v -1.25643255 1.99145254 -0.39224648
v -1.26144208 -1.40790537 -0.05348597
v -1.27252402 -1.27995459 -0.12780686
v -1.16641499 -0.25036616 -0.89999133
v -1.20205976 1.01491078 -0.89999299
v -1.20131304 1.09557554 -0.28954168
v -1.13040926 1.89138850 -0.35727092
v -1.24770607 -2.00255135 -0.01453711
v -1.17509164 -0.25398613 -0.15088687
v -1.17361833 1.76398882 -0.90004044
v -1.17307963 1.95647129 -0.90262859
v -1.26440539 -1.99179593 0.01015692
v -1.18708886 -1.63056091 -0.90004145
v -1.10618975 -0.88488618 -0.89999168
v -1.25285246 -0.67285726 -0.12299796
v -1.14608206 0.72916516 -0.89999550
v -1.15969183 0.41359147 -0.89999270
v -1.11235775 0.64517340 -0.23120395
v -1.15344335 1.45387885 -0.31853982
v -1.14488735 -1.12958357 -0.89998089
v -1.11630275 -0.03053666 -0.16428702
v -0.97934319 1.99856147 -0.88981443
v -1.16588165 -1.99367658 0.02393983
v -1.10375346 -1.40337483 -0.10781111
v -1.11681213 -1.18826136 -0.21126092
v -1.09639456 -0.65242175 -0.16617145
v -1.08004178 0.32985475 -0.19492479
v -0.99819853 1.62185320 -0.31188749
v -1.11258187 -1.60411957 -0.00683427
v -1.17917873 -1.01684961 -0.22636116
v -1.11686136 -1.99660424 -0.89574831
v -0.94800307 -2.00041047 -0.19876241
v -1.08217289 -1.89318303 0.02800885
v -1.01298870 -1.31107507 -0.89997464
v -1.07831122 -0.49468120 -0.11324253
v -1.13253035 1.99598726 -0.37368654
v -1.05463721 -2.00260738 -0.85024493
v -1.08708085 -1.51199940 -0.01623777
v -0.98483195 -0.82711539 -0.23475324
v -0.99819316 -0.62744612 -0.89999603
v -0.99876453 1.41826257 -0.89995807
v -1.05869915 2.00020727 -0.62905788
v -0.97628643 -2.00014428 -0.62615567
v -1.05142965 -1.99859670 0.03398071
v -1.01842429 -0.43209716 -0.89999890
v -1.03838970 0.85708555 -0.24110535
v -1.01222922 1.13025710 -0.26490409
v -0.94072570 1.38409385 -0.27961340
v -0.97086789 -1.69578162 -0.90007507
v -0.97536733 -1.30005548 -0.18000326
v -1.02041115 -1.02081630 -0.24799111
v -0.93065889 0.04386732 -0.90000080
v -0.97707166 0.43545493 -0.90000140
v -0.94788553 2.00261196 -0.39300697
v -0.89449831 -1.06843672 -0.90000253
v -0.99996557 0.99351605 -0.90000307
v -0.90274526 2.00125965 -0.79135107
v -0.95906462 -1.72110036 0.02813123
v -0.90659751 -0.13161131 -0.12232987
v -0.90151568 1.65164622 -0.89989155
v -0.83089288 1.82427224 -0.30646806
v -0.95006193 1.85131153 -0.90111273
v -0.99643614 1.99175557 -0.34972628
v -0.80245413 -1.99009374 -0.89759879
v -0.88795974 0.19689014 -0.15306996
v -0.91906609 -1.57088593 0.01865987
v -0.91169103 -0.40705642 -0.13215180
v -0.80593659 0.67825481 -0.90000074
v -0.87967052 1.13666591 -0.90000080
v -0.82379528 -1.99991301 -0.45590090
v -0.89731606 -1.49330500 -0.89988881
v -0.89430608 -1.47086087 -0.05133460
v -0.95638486 -0.32014802 -0.11158278
v -0.87650128 0.53719958 -0.18514653
v -0.88829972 -1.90894548 0.05930030
v -0.92025794 -1.14024875 -0.22984766
v -0.83470322 0.74144348 -0.20121074
v -0.80895587 -2.00100735 -0.75079333
v -0.83752342 -1.99158660 0.07165068
v -0.77119865 -0.48403343 -0.19946880
v -0.85088887 -0.31876680 -0.90000188
v -0.77701266 0.95332643 -0.21170070
v -0.78625275 1.98145303 -0.89992302
v -0.76384922 2.00096735 -0.50513231
v -0.76068546 -2.00125424 -0.03230473
v -0.75682988 -0.86004040 -0.90000241
v -0.77702482 1.25595507 -0.24218624
v -0.79467090 -0.91088287 -0.23713172
v -0.75574102 0.01021036 -0.11368403
v -0.77185311 1.39651748 -0.89997851
v -0.83427955 1.99822029 -0.32977595
v -0.76377018 -0.72553769 -0.23595006
v -0.70043798 0.17029961 -0.90000068
v -0.70431461 -1.78730277 0.07356134
v -0.78228380 -1.86598459 -0.90229546
v -0.73295404 -1.07380459 -0.20087277
v -0.71023865 -0.13614022 -0.09445447
v -0.71205051 -1.61246196 -0.89999818
v -0.75370313 -1.36837963 -0.08800235
v -0.69379314 0.86844214 -0.90000158
v -0.71290203 1.60417303 -0.26737549
v -0.64852669 -1.60262517 0.06397194
v -0.70209386 -1.24792466 -0.89998423
v -0.74966182 -1.23106376 -0.15982067
v -0.68305607 -0.66672183 -0.90000056
v -0.69759591 -0.11528214 -0.90000074
v -0.72458144 0.48118039 -0.90000044
v -0.60507758 1.84319505 -0.90054130
v -0.74076624 -1.51936606 0.03625620
v -0.73404409 -0.31485295 -0.15797421
v -0.73892875 0.41061326 -0.15750503
v -0.64637120 -1.95166782 0.10251866
v -0.64956303 0.60548344 -0.19788576
v -0.63430901 1.96072563 -0.29035329
v -0.55690851 -1.99984232 -0.37196141
v -0.57733174 -1.05105535 -0.89999967
v -0.65171047 1.65591320 -0.90000486
v -0.59162922 2.00002464 -0.65923434
v -0.59355779 1.07409772 -0.89999925
v -0.57806756 -0.11997602 -0.13409080
v -0.67055346 2.00108227 -0.86269068
v -0.55442824 -2.00122050 -0.78489297
v -0.59334024 -1.40017406 0.04626359
v -0.64721640 -0.43945211 -0.90000080
v -0.65881284 0.16667410 -0.11635800
v -0.54590298 0.39374569 -0.19015502
v -0.61876865 0.82981726 -0.18183846
v -0.56539114 1.99933776 -0.29118534
v -0.57738461 -0.86011777 -0.20525388
v -0.59692969 -0.72427556 -0.22674238
v -0.56848742 1.77541288 -0.26247332
v -0.55948581 -1.80291430 -0.90023386
v -0.55239024 -1.37460295 -0.89997976
v -0.54674842 -1.25168774 -0.03249524
v -0.57935556 0.19708409 -0.14330410
v -0.55174758 1.18634292 -0.20126250
v -0.51092871 1.50353023 -0.22694837
v -0.41832344 2.00060614 -0.46008461
v -0.45921605 -1.95680658 -0.90156477
v -0.55228277 -0.50855569 -0.22480423
v -0.52347000 -0.24153070 -0.90000015
v -0.48505976 1.41161415 -0.89996879
v -0.56435056 -1.99396304 0.11246605
v -0.53226544 -0.24149604 -0.18646779
v -0.45222707 0.59721210 -0.90000021
v -0.49059530 -1.04302022 -0.11786753
v -0.44319292 -0.52950594 -0.90000009
v -0.43114357 1.99823626 -0.89252233
v -0.44407548 -2.00013450 -0.15575465
v -0.57409437 0.02991428 -0.09088249
v -0.46759378 0.79426297 -0.90000080
v -0.48592331 0.67848905 -0.18401635
v -0.36318286 2.00146707 -0.81101423
v -0.35755493 -2.00038615 -0.69750874
v -0.41127055 -1.36988894 0.07562900
v -0.48352285 -0.78999970 -0.90000050
v -0.45542069 0.32016477 -0.89999997
v -0.38348900 1.36945256 -0.19459823
v -0.48696329 -2.00165204 0.04976669
v -0.42771389 -1.75346295 0.11170190
v -0.42369820 -1.64530543 -0.89986920
v -0.38213311 -0.60883064 -0.20434710
v -0.43276854 0.01930207 -0.90000009
v -0.38907577 0.94439932 -0.15313836
v -0.38301002 -1.98949948 0.13652771
v -0.40896862 -1.25042484 -0.89999514
v -0.38701211 1.13708075 -0.89999740
v -0.48157110 1.96892628 -0.90199792
v -0.44219239 -1.99916032 -0.88843649
v -0.38957538 0.01484945 -0.14992007
v -0.36090689 1.61107501 -0.89992546
v -0.30383422 1.66679248 -0.21217532
v -0.44965036 -1.93616000 0.13112942
v -0.38554375 -0.98422406 -0.90000068
v -0.39501272 -0.33633261 -0.21663324
v -0.37360518 1.93368348 -0.24825946
v -0.41278427 -1.21646801 0.05250311
v -0.32625737 -1.07648364 0.01118384
v -0.37802096 0.16992232 -0.18214918
v -0.34231662 -1.44191102 -0.89994680
v -0.39266993 -0.77852217 -0.17261621
v -0.39182212 0.78333386 -0.14190516
v -0.31508602 0.33834257 -0.19868188
v -0.25216492 1.94011458 -0.90150057
v -0.28781678 -1.99986938 -0.39685189
v -0.22578995 -2.00167564 0.09401256
v -0.29573192 -0.22495775 -0.89999997
v -0.29790585 -0.12457498 -0.19694855
v -0.23349987 0.18729016 -0.89999997
v -0.22550439 0.44769987 -0.18055036
v -0.31985136 -1.59761695 0.11366694
v -0.31472795 -0.83963636 -0.12161367
v -0.21925061 -0.75682995 -0.90000050
v -0.25581639 0.87768754 -0.90000050
v -0.26085355 2.00306591 -0.28229263
v -0.31388174 -1.99959687 -0.88678168
v -0.22848018 -0.35709273 -0.20727136
v -0.22800733 0.63843318 -0.13433877
v -0.22793027 1.21591374 -0.15576539
v -0.22511085 1.77670487 -0.90030783
v -0.16695805 -1.79574946 -0.90034830
v -0.20543555 -1.40103701 0.11051308
v -0.20241687 -0.92210976 -0.00540450
v -0.16211646 0.66501197 -0.90000033
v -0.21438676 1.32257065 -0.89997374
v -0.18391413 1.99656614 -0.23452749
v -0.22659754 -1.92870906 -0.90170627
v -0.14599863 -1.22209332 0.10095962
v -0.21189194 0.07161998 -0.19211625
v -0.13980583 0.82159265 -0.10300444
v -0.13510098 1.04579076 -0.12476736
v -0.12442024 -2.00010315 -0.08331295
v -0.13787093 -1.54555157 -0.89996325
v -0.19931548 -1.29558728 -0.89998715
v -0.26966925 -1.09904930 0.06644792
v -0.14725724 0.44506320 -0.90000009
v -0.17267663 0.69652149 -0.09750694
v -0.19839466 -1.94847444 0.16772828
v -0.14740561 -1.04614392 -0.89999979
v -0.16382642 -0.56103917 -0.15806859
v -0.07615944 -2.00010923 -0.58764344
v -0.16340368 -1.74812463 0.14966043
v -0.11095616 -0.39581200 -0.90000003
v -0.18590063 -0.02080152 -0.90000003
v -0.05797156 1.31340548 -0.14010446
v -0.22660519 -2.00252846 -0.87390637
v -0.15466737 1.06486830 -0.89999735
v -0.04418696 2.00097450 -0.32076668
v -0.20182793 -1.99236885 -0.90022581
v -0.09682492 -0.71338940 -0.06492373
v -0.07793588 1.58565518 -0.17043113
v -0.06499198 -1.05189547 0.09642891
v -0.09668270 1.90068945 -0.20382566
v -0.12249312 1.99907168 -0.88232361
v -0.15085054 -0.96330527 0.07322453
v -0.06963673 0.11082899 -0.19704569
v -0.01419629 1.90530499 -0.90159350
v -0.12808581 -2.00219980 -0.87977760
v -0.06111887 -1.99991182 -0.28852077
v -0.12369479 -1.99245611 0.17725448
v -0.05281569 -0.90311119 -0.90000098
v -0.08396147 -0.14987602 -0.20230753
v -0.05345676 2.00054153 -0.68396311
v -0.00706430 -0.28223376 -0.18140443
v -0.02523861 1.58143267 -0.89996081
v -0.04949399 -1.99817423 -0.88688790
v -0.01005741 -0.16547393 -0.90000003
v 0.03421643 0.07630300 -0.90000003
v -0.00294393 0.89708337 -0.90000092
v 0.03305988 1.30393978 -0.89996933
v 0.04966998 -2.00096885 -0.74726962
v -0.06384091 -1.49484542 0.13887099
v -0.06114365 0.48914286 -0.12665366
v -0.03885846 -1.93670312 -0.90160375
v -0.00978472 -1.93386737 0.19429433
v 0.09381088 -1.73596672 0.18776254
v -0.03067503 -0.81576494 0.05559798
v 0.03374716 -1.28271488 -0.89997976
v -0.02538396 -0.89886752 0.08651333
v 0.20025694 -1.99987737 -0.40211835
v -0.02308600 -1.99323336 0.19458423
v 0.05778168 -0.62441636 -0.90000009
v 0.05865625 0.29577973 -0.89999997
v 0.02418082 0.29883244 -0.16606956
v 0.07986358 0.54845717 -0.90000009
v 0.01951691 1.99039801 -0.89849483
v 0.01130692 -2.00210122 0.17787167
v 0.12027931 -0.81815663 -0.90000044
v -0.00629157 -0.57011943 -0.08916029
v 0.07568110 1.99299845 -0.18920345
v 0.12934907 -1.70877639 -0.90004890
v 0.19256881 1.07576891 -0.89999764
v 0.10883178 -1.99850753 -0.88573378
v 0.12794867 -2.00069312 0.03693804
v 0.07180734 0.72637006 -0.06035576
v 0.10235190 1.65645536 -0.15018382
v 0.18465242 1.88451442 -0.15977857
v 0.15070335 2.00168117 -0.83960067
v 0.16700415 1.99993643 -0.42135879
v 0.16311370 -1.49134544 0.17363786
v 0.11431326 -1.03987697 0.12334656
v 0.01019961 -0.71346373 0.00411828
v 0.01693726 -0.41492682 -0.14105087
v 0.01478812 0.48934301 -0.10267683
v 0.21403439 1.03221806 -0.07037417
v 0.17854596 1.34837862 -0.10800163
v 0.16155399 -1.21953223 0.14642512
v 0.01785388 -0.80717931 0.07657898
v 0.02641498 0.60898622 -0.05855380
v 0.16450882 -1.99995831 -0.20591726
v 0.21793028 -1.02963725 -0.89999901
v 0.08105171 -0.78312475 0.01201064
v 0.20221995 -0.52415744 -0.90000003
v 0.11929764 -0.93686226 0.10702382
v 0.10627053 -0.52668737 -0.13095218
v 0.14504375 -0.29940686 -0.18917283
v 0.14820768 -0.10858325 -0.19748510
v 0.17209179 0.14723658 -0.18969252
v 0.15028792 0.48372104 -0.13956609
v 0.07064166 -1.98966817 0.20708519
v 0.18365361 0.74826499 -0.05375462
v 0.18749337 0.75762662 -0.90000021
v 0.21972714 -1.42463425 -0.89997100
v 0.20217326 -0.27582123 -0.90000003
v 0.17613345 2.00118336 -0.20294609
v 0.18324986 -1.99653355 0.21943119
v 0.17878879 -1.94675127 0.22340114
v 0.19611382 -0.78224692 -0.06123296
v 0.24486926 -0.04844279 -0.90000003
v 0.31156875 0.76035985 -0.09159169
v 0.19560633 1.64017340 -0.89993524
v 0.35145427 1.89697679 -0.90154182
v 0.36759300 1.99819692 -0.88821577
v 0.27696022 2.00124320 -0.71747904
v 0.29305224 -1.90900448 -0.90126591
v 0.24646319 -1.01396057 0.06495433
v 0.29053239 -0.73688743 -0.90000039
v 0.31196220 -0.28777482 -0.19904131
v 0.31781475 1.32800504 -0.89996832
v 0.34230272 -1.99999169 -0.55763423
v 0.32894514 -0.65521485 -0.15915919
v 0.27844487 0.41509112 -0.90000003
v 0.33062888 1.46159479 -0.09657194
v 0.29925568 -0.45604548 -0.18956024
v 0.32726256 0.23912289 -0.89999997
v 0.30475433 -2.00145761 -0.80042022
v 0.29799236 -2.00327638 0.20016926
v 0.25853421 -1.12485967 0.14839300
v 0.31585149 0.03278836 -0.16136400
v 0.36828761 0.66842421 -0.90000074
v 0.37385629 -1.87240425 0.24445848
v 0.31664662 0.43086728 -0.17551527
v 0.37793670 1.63313469 -0.10664001
v 0.34929441 1.97693404 -0.14440859
v 0.38360442 -2.00016693 -0.88019591
v 0.50094451 -2.00108365 0.12821623
v 0.36856891 -0.92335031 -0.90000056
v 0.34590809 -0.11712830 -0.17817265
v 0.36914398 1.67785939 -0.90009742
v 0.32923753 -1.99190942 0.24727247
v 0.36950244 -1.62376336 0.21817996
v 0.34387879 -1.21150813 -0.89998972
v 0.44569383 0.70808860 -0.14484323
v 0.37217046 -1.99996308 -0.15319244
v 0.37007899 -1.18144897 0.10619642
v 0.40820406 -0.43548584 -0.90000003
v 0.41155700 -1.61383537 -0.89999407
v 0.40311248 -1.40360573 0.20230996
v 0.41917072 -0.91230157 -0.10451060
v 0.43848465 -0.11087844 -0.90000003
v 0.40924056 0.33846232 -0.17847920
v 0.45555369 1.03594407 -0.03747553
v 0.42917679 1.07311424 -0.89999961
v 0.45313553 2.00000128 -0.53509282
v 0.48120187 2.00076374 -0.29553463
v 0.49282010 -1.14674327 -0.02511150
v 0.49132143 1.42744097 -0.89993291
v 0.38408096 -1.27796618 0.18191049
v 0.51722957 1.25387200 -0.04712382
v 0.52575002 1.99934181 -0.13775724
v 0.51753594 0.13828501 -0.90000003
v 0.48632787 0.20297715 -0.15184814
v 0.60433148 2.00114497 -0.79642802
v 0.49952720 -1.99786976 0.25761084
v 0.57124136 -1.04394207 -0.89999955
v 0.56415967 -0.70660687 -0.90000044
v 0.47039385 -0.48074270 -0.20089345
v 0.49814801 0.43301108 -0.90000015
v 0.52843998 -1.97996727 -0.90043216
v 0.58293031 -2.00093940 -0.77198218
v 0.53540174 -1.99988476 -0.26644862
v 0.59523843 -1.86456696 -0.90067869
v 0.48365126 -0.29003131 -0.18484224
v 0.57867776 -0.21773017 -0.15018596
v 0.48125551 -0.00510625 -0.11243066
v 0.58663408 1.75311931 -0.08723071
v 0.62158309 1.69774326 -0.89999603
v 0.51600028 -0.66825554 -0.19096180
v 0.57935743 0.51393213 -0.16933570
v 0.62307219 0.97293004 -0.11118654
v 0.57790611 1.53020378 -0.06661815
v 0.55495362 -1.31504217 -0.89997642
v 0.57076387 1.99280270 -0.89715611
v 0.55694322 -1.98388628 0.28169967
v 0.54728864 -1.47397057 0.22740426
v 0.57113759 -2.00000516 -0.55364799
v 0.58568088 -1.70467213 0.25878245
v 0.56105964 -1.36672369 0.10271029
v 0.54497944 -0.88322488 -0.15546975
v 0.55990408 0.86388215 -0.90000128
v 0.61022387 1.94537052 -0.10167300
v 0.63354526 -1.56300667 -0.89995652
v 0.69861911 -0.46521080 -0.17816792
v 0.57394640 0.02619957 -0.06924731
v 0.61656122 -0.44084125 -0.90000027
v 0.66391073 1.18797370 -0.89999144
v 0.66716473 1.87507495 -0.90167027
v 0.66481618 -0.13226484 -0.90000033
v 0.63930039 -1.92809764 0.29020647
v 0.71432183 -0.65162540 -0.19714367
v 0.61862014 -0.10583434 -0.09828905
v 0.62239574 -1.13209913 -0.09891722
v 0.64268081 0.75706872 -0.15982065
v 0.87796162 -1.99948207 -0.88975542
v 0.63887535 0.19612643 -0.10386374
v 0.69110028 1.50376996 -0.89988821
v 0.67558996 0.08682215 -0.04127856
v 0.70512299 0.20295479 -0.90000039
v 0.69979809 0.41205069 -0.14164186
v 0.74316840 1.98130950 -0.90073012
v 0.78115223 -1.99994138 -0.01834231
v 0.69997935 -1.37383393 -0.00616529
v 0.72903298 -1.04536126 -0.16181380
v 0.66923837 -0.81524402 -0.19050287
v 0.76869212 1.99986657 -0.59256601
v 0.78124635 -1.74035708 0.29145346
v 0.81037949 -0.90484462 -0.90000152
v 0.66893963 0.53664305 -0.90000080
v 0.76040850 -1.99989644 -0.30264466
v 0.66477923 -1.99838463 0.29362679
v 0.73367117 -1.55098680 0.17200314
v 0.75700180 -1.11524746 -0.89999806
v 0.83799724 -1.99992100 -0.59527069
v 0.69938372 -1.58426968 0.25528801
v 0.79899488 -1.36692480 -0.89997994
v 0.73145513 -0.09666679 -0.03398810
v 0.72867916 0.01065200 0.03620095
v 0.75929300 -0.25883641 -0.10218688
v 0.86853276 0.77539810 -0.15353338
v 0.72328858 1.16699728 -0.07738703
v 0.71076618 1.26481327 -0.03052274
v 0.77228831 1.43742117 -0.02729772
v 0.79941372 -1.29916832 -0.09786852
v 0.79229556 -0.66981277 -0.90000104
v 0.79872684 0.31549701 -0.08014409
v 0.85462151 0.82348164 -0.90000277
v 0.76446639 0.99047085 -0.90000050
v 0.89729981 2.00048360 -0.23646011
v 0.83580623 -1.69406823 -0.90003049
v 0.83138834 1.84311732 -0.05867416
v 0.84923367 0.53541710 -0.90000199
v 0.75755040 -2.00320939 0.27977619
v 0.79662989 -1.98924044 0.31755207
v 0.85733686 -1.91018644 0.32113279
v 0.81122647 0.07897210 0.05760185
v 0.83237336 -0.91830716 -0.19512390
v 0.93502138 0.59263941 -0.11704156
v 0.99168734 2.00055035 -0.07532629
v 0.85666708 -0.49026821 -0.90000080
v 0.96511869 -0.16551823 0.09748545
v 0.90166996 0.21474739 0.02938264
v 0.99097059 0.37863358 -0.90000182
v 0.91022597 1.14116725 -0.12772616
v 0.93616675 -2.00065318 0.16674718
v 0.91695879 -1.93724409 -0.90156864
v 0.82795958 -1.48303989 0.02701131
v 0.92747812 1.31573769 -0.06493422
v 0.96768479 1.55137655 -0.01010935
v 0.95703034 1.71356353 -0.90003519
v 0.87954394 1.93688687 -0.90229051
v 0.86568092 2.00160178 -0.84609049
v 0.85722045 -1.18393013 -0.15871408
v 0.91622601 -0.41348214 -0.10109390
v 0.96093951 -0.30329841 -0.90000092
v 0.91202830 0.05514249 -0.90000146
v 0.83371012 0.00237920 0.12178279
v 0.89159678 0.94945642 -0.15340484
v 0.89064888 1.28699895 -0.89997756
v 0.89114783 1.40381106 -0.01226802
v 0.93886582 2.00001916 -0.42633095
v 1.03655360 -2.00136558 -0.78750925
v 0.85769711 -1.99803344 0.31470016
v 0.89618294 -1.65672258 0.28588817
v 0.87259064 1.99199327 -0.06960676
v 0.92979417 -0.26989531 -0.01929660
v 0.87058364 0.05166041 0.12751678
v 1.04277085 -1.10678348 -0.89999514
v 0.95583503 -0.78429699 -0.18797862
v 0.97805004 -0.59044919 -0.14222609
v 0.94838600 -1.56803170 0.10054388
v 0.99006705 -1.33365831 -0.89997535
v 0.96999781 -0.10834474 0.15151494
v 1.05493627 1.07868096 -0.90000116
v 0.98818318 -0.03348816 0.15217251
v 1.03452669 1.44562384 -0.89995139
v 1.01242433 0.19152519 0.12872597
v 1.01994072 1.99352750 -0.89858925
v 1.02724908 -1.99992374 -0.31281351
v 0.92045013 -1.97644595 0.33890996
v 0.98698656 -1.83190278 0.33218256
v 0.98468111 -1.40679613 -0.06620434
v 0.97307686 0.43874582 -0.05379504
v 1.18167136 1.76216444 0.00130273
v 0.99468265 -2.00234321 0.33462436
v 0.98722635 -1.14728961 -0.18220735
v 1.08488904 -0.84254185 -0.89999669
v 1.14236568 -0.63616017 -0.89999633
v 1.00413720 -1.25299868 -0.15217959
v 0.98159377 -1.00729505 -0.19881222
v 1.03878878 0.65611800 -0.90000110
v 1.08354185 -1.99993960 -0.07785154
v 0.98278670 -1.99142805 0.34678055
v 1.14245210 -1.76213900 -0.90011495
v 1.10332988 -1.54145411 -0.89990472
v 1.11149667 2.00061282 -0.68443149
v 1.15617321 -2.00192681 0.31539262
v 1.16379903 -1.62322668 0.23652328
v 1.11882363 -0.42043376 0.00674613
v 1.06789647 0.38844278 0.03294039
v 1.11681960 1.87695440 -0.90129696
v 1.05184613 1.94697484 -0.03501470
v 1.08094226 -2.00011352 -0.55359339
v 1.08053826 -1.68653527 0.32933662
v 1.13389383 -0.79007373 -0.15455653
v 1.16993700 -0.16609049 -0.89999580
v 1.19507967 1.41722151 0.02703668
v 1.17042862 -0.58605211 -0.06331692
v 1.13261352 0.13787224 -0.89999651
v 1.16221677 0.60611823 -0.03392062
v 1.10728322 0.85477790 -0.89999764
v 1.15306256 -1.99947873 -0.88477331
v 1.04954217 -1.99458293 0.35447148
v 1.07799040 -1.53138844 0.05356801
v 1.13439320 -1.34708396 -0.08854289
v 1.11659597 -1.05900422 -0.18432703
v 1.30986212 0.24297556 0.17281134
v 1.10068951 1.02855202 -0.14048787
v 1.16150962 1.17966970 -0.10452630
v 1.10074936 -1.96758000 0.36407483
v 1.22434829 -1.75091330 0.35959024
v 1.18504618 -0.08017865 0.18615093
v 1.25855265 1.99969157 -0.44153499
v 1.10703729 -1.18240074 -0.16620595
v 1.17196284 -0.91565034 -0.17030992
v 1.17703055 -0.26556769 0.20109182
v 1.14453207 0.33478269 0.13586018
v 1.21405433 0.56276181 -0.89997797
v 1.15944563 0.80760154 -0.10406066
v 1.21455382 -2.00009409 0.11826222
v 1.27269755 1.67207488 -0.89998089
v 1.11524807 -1.99780396 0.36279623
v 1.21849535 -1.94596115 -0.90213912
v 1.22924278 -0.37931606 0.14739563
v 1.27572916 1.28653952 -0.89995962
v 1.23185895 2.00107440 -0.10455536
v 1.23165343 -0.41396609 -0.89998912
v 1.23459337 0.50860139 0.07328674
v 1.26060317 1.50291737 0.03859126
v 1.24062346 1.98785600 -0.01395927
v 1.20099030 -1.98974982 0.37754051
v 1.23951505 -1.27319339 -0.89997350
v 1.27644430 1.99926528 -0.88800590
v 1.23943089 -1.99991373 -0.33529969
v 1.24544607 -1.91937200 0.38129775
v 1.20652090 -1.49427966 0.05368748
v 1.25278173 -1.19707236 -0.12031585
v 1.29900537 0.95152279 -0.89997321
v 1.31972013 0.33379074 -0.89997589
v 1.27809010 1.01830455 -0.08898105
v 1.22887574 -1.64550129 0.34443594
v 1.30153464 0.01663094 -0.89997189
v 1.37589310 0.67452952 -0.89992624
v 1.40085385 -1.99130133 -0.89736449
v 1.24729691 -1.05873517 -0.14984121
v 1.27540277 1.32535895 -0.00336469
v 1.29962633 -1.32314197 -0.04366708
v 1.44962345 -1.99995271 -0.58808290
v 1.41625963 -2.00103298 0.30608971
v 1.30328522 -0.52702605 0.06941635
v 1.34404371 -0.27068760 0.22905930
v 1.29569576 0.45059528 0.14786808
v 1.30375717 0.80274173 -0.04812095
v 1.41229151 2.00126084 -0.72018569
v 1.32232474 -1.52102188 0.16166683
v 1.37337325 -2.00118807 -0.84350108
v 1.44225536 -1.99985579 -0.14916145
v 1.34461902 -1.57286349 0.30321641
v 1.36963759 -0.91616050 -0.89995324
v 1.31745885 -0.79094360 -0.08786385
v 1.34515880 -0.42741042 0.23531986
v 1.38985704 -0.29301275 -0.89995693
v 1.35584663 -1.41300908 0.06833267
v 1.30448065 -0.91066036 -0.12375215
v 1.37549148 0.67908033 0.06296130
v 1.37069188 1.20239421 -0.00446850
v 1.54353200 1.47512027 -0.89980870
v 1.47281168 2.00141200 -0.11133328
v 1.33048509 -1.98944298 0.39665080
v 1.45508907 -1.89221862 0.40967745
v 1.38564764 -1.65081981 -0.89996856
v 1.44033704 -1.45328323 -0.89986478
v 1.43458102 1.89923295 -0.90182590
v 1.51809118 1.93282017 0.03568395
v 1.37788127 -1.04812226 -0.08243596
v 1.51024733 1.63509330 0.06317461
v 1.44614671 -1.87862972 -0.90148132
v 1.37708352 -1.57692436 0.36111138
v 1.44977890 -0.57456655 0.18682183
v 1.45765386 1.99746903 0.00823199
v 1.38474773 -1.26148615 -0.02000262
v 1.45427964 -0.88747463 -0.01379081
v 1.40176283 -0.75457371 -0.01826408
v 1.46880983 -0.04555750 0.22491513
v 1.40921758 1.31894251 0.07885864
v 1.42138456 -0.65512208 0.07082622
v 1.46246479 -0.54408500 -0.89995336
v 1.43803452 0.63115611 0.14746017
v 1.41734110 0.88593432 0.00259818
v 1.46241651 -1.99987296 -0.33545195
v 1.62001274 -1.99991063 0.04188122
v 1.47626732 -1.43763975 0.24893350
v 1.51487110 -1.15330115 -0.89999413
v 1.48705421 1.01512870 0.05597372
v 1.43252633 -1.99154464 0.41092257
v 1.54575930 -1.62169150 0.39482463
v 1.57215129 0.12943014 -0.89992439
v 1.59748636 1.99986657 -0.38091376
v 1.57176982 0.24105194 0.21164612
v 1.56935166 0.47163370 -0.89991908
v 1.50347815 0.54223194 0.17104984
v 1.50135098 0.79941555 0.11164071
v 1.53923927 0.81206819 -0.89987027
v 1.54709480 1.16125115 -0.89986890
v 1.49676357 -1.29913250 0.10991443
v 1.49072228 -1.16163776 0.03299689
v 1.49504016 -0.43265255 0.26775620
v 1.53485070 1.70789369 -0.90007608
v 1.51798998 -1.45862595 0.37188176
v 1.55441163 -0.14478209 -0.89992588
v 1.48118542 -1.04142675 -0.00537944
v 1.51809488 -0.58245364 0.28062490
v 1.55752216 -0.76061064 0.15709201
v 1.73998449 1.33326575 0.12796233
v 1.58394275 -1.73571292 -0.90007507
v 1.64012955 -0.80328182 -0.89997279
v 1.72899554 -0.21174184 0.28089947
v 1.59798775 -1.05902616 0.14566804
v 1.53379796 1.11751195 0.11534812
v 1.54040836 -1.99170939 0.42924226
v 1.58111952 -1.31166587 0.27178431
v 1.56998120 -1.18457929 0.13953213
v 1.54934357 -0.95249883 0.06998883
v 1.61806153 1.98835405 -0.89831345
v 1.56632565 -2.00064531 -0.87753945
v 1.71721004 -0.47219193 0.30512611
v 1.70874367 0.02381104 0.25414509
v 1.69534968 2.00047192 -0.68153613
v 1.68603860 -1.99998239 -0.40767654
v 1.70871733 -2.00066713 0.25402970
v 1.63312326 -0.71072916 0.31498737
v 1.59123073 0.86502310 0.14971895
v 1.65049742 -1.99220911 -0.90152316
v 1.72615252 -2.00230340 0.41529644
v 1.68369780 -1.99157969 0.45064167
v 1.70483862 -1.85076300 0.44217140
v 1.72897301 -0.42468196 -0.90003657
v 1.70782993 0.89886364 -0.90002852
v 1.65973888 1.88153156 -0.90154164
v 1.64596794 -0.92124853 0.25391094
v 1.72401224 0.58986666 0.19991575
v 1.68953727 0.94198748 0.15923300
v 1.79319857 1.80147227 0.09030830
v 1.67595266 1.99959167 0.04870320
v 1.72174369 -2.00046066 -0.68065517
v 1.71320294 -1.39217964 -0.89998280
v 1.71107195 -1.31304923 0.38929529
v 1.64197908 -1.18219814 0.29673977
v 1.67586671 -2.00176934 -0.87609904
v 1.80971394 -1.80229906 -0.90097248
v 1.64747701 -1.24267343 0.36684335
v 1.79541300 -1.54902736 0.42469723
v 1.66018222 -0.82516134 0.32834808
v 1.74086748 -0.11783492 -0.90038042
v 1.84454475 -2.00068763 -0.25472539
v 1.79507194 0.34150961 -0.90033268
v 1.80601857 1.66146835 -0.90089940
v 1.68017362 -1.02651301 0.34461872
v 1.87684642 -1.14088968 -0.90165203
v 1.74471269 -0.97856984 0.36056394
v 1.88050697 -0.59145980 0.34278212
v 1.82021521 2.00149545 -0.12459320
v 1.83034561 0.69572624 -0.90110206
v 1.85711978 1.05711123 -0.90154081
v 1.87959097 -1.98849681 -0.89924627
v 1.88957427 -2.00305573 -0.82682847
v 1.85122750 -0.82130334 -0.90101211
v 1.92108594 0.14204072 -0.90203529
v 1.78458224 1.33467552 -0.90030693
v 1.84150229 2.00307855 -0.82077067
v 1.84676943 0.33360579 0.24480809
v 1.88363372 -2.00159231 0.19341212
v 1.90134452 -1.05745712 0.39237175
v 1.90586065 -0.20495742 -0.90185719
v 1.88936005 0.97333690 0.18768262
v 1.88799439 1.99608525 -0.89859068
v 1.90647684 -2.00168446 -0.57508974
v 1.92242525 0.04443699 0.28728206
v 1.85441027 -1.99401752 0.47825957
v 1.89563773 -1.45962218 -0.90118044
v 1.93203102 1.26307436 0.16437677
v 1.94824730 1.56275352 0.13742059
v 1.87400554 1.91939625 -0.90462124
v 1.89196084 1.99892172 0.08043068
v 1.89264880 2.00132879 -0.49194815
v 1.94391177 -1.34734193 0.42760331
v 1.93361924 -0.30834579 0.32297257
v 1.93689893 0.53063908 0.23956970
v 1.94240485 1.46262666 -0.90254169
v 1.94129573 -0.83258710 0.37607900
v 1.92656027 -2.00150481 0.48091219
v 1.97838698 -1.92663923 0.49132515
v 1.98314653 -0.05821929 0.30104778
v 1.95337890 0.52420201 -0.90239023
v 1.96703778 0.72994670 0.22252254
v 1.95869301 -1.73979405 0.46947984
v 1.95902835 -0.57415458 -0.90181606
v 1.97853182 -1.59346906 0.45652334
v 1.97880624 -1.99955598 -0.05167449
v 1.99100481 -1.90980927 -0.90168636
v 1.98611234 -1.72231618 -0.90185540
v 1.99617778 -1.49299637 -0.89085632
v 1.98465715 -0.24022440 -0.89795654
v 1.98639093 1.73431929 -0.89710396
v 1.99839578 1.76702985 0.11766075
v 1.99273596 1.99871906 -0.65441977
v 1.97538756 2.00310120 -0.29356065
v 1.98779534 2.00207933 -0.06335814
v 1.99285625 -1.98878626 -0.90142595
v 1.99832283 -1.99247006 -0.67855310
v 1.98441158 -1.99985257 -0.34832995
v 1.99822734 -1.18836001 0.41165609
v 1.98937331 -1.14545146 -0.89755558
v 1.98862229 -0.82175938 -0.90108531
v 1.99671863 -0.68291730 0.35652322
v 1.98622487 1.98691257 0.09792747
v 1.98834990 1.99560222 -0.89705645
v 2.00013779 -1.98891739 -0.86115324
v 1.99429427 -1.99932388 0.35812572
v 1.99348603 -1.99795297 0.48943419
v 1.99855481 -1.77527944 0.46935568
v 1.99838494 -1.44604496 0.43609194
v 1.99976729 -0.95451823 -0.88270967
v 1.99799905 -0.91517869 0.38295854
v 1.99440048 -0.44777617 0.34163783
v 1.99698816 -0.21274578 0.31529234
v 1.99318360 0.16294416 0.28051285
v 1.99003075 0.38278582 0.25929824
v 1.99956833 0.82983276 0.19928109
v 1.99790691 1.10309359 -0.89272796
v 1.99046622 0.96654626 0.20105592
v 1.99111961 1.10320994 0.18696257
v 1.99716292 1.22804185 0.16707965
v 1.99809597 1.51971969 0.13215838
v 1.99987875 1.35321065 -0.89192342
v 1.99739788 -1.99258999 0.16781698
v 1.99696396 -0.66805023 -0.89390402
v 1.99911497 -0.49218409 -0.89160442
v 1.99375961 -0.57064981 0.35433848
v 1.99940882 -0.37873778 0.32341043
v 1.99928687 -0.00938184 -0.88759869
v 1.99380193 0.25705066 -0.89674114
v 2.00001679 0.43365415 -0.88539743
v 1.99907611 0.59615066 -0.88971674
v 1.99706839 0.61623170 0.23163568
v 1.99571727 0.83626231 -0.89794277
v 1.99835358 1.60060319 -0.89027535
v 2.00059341 1.90364012 -0.88538270
v 1.99147604 2.00006017 -0.39580920
v 1.99576889 1.99941095 -0.20584988
v 2.00049279 -1.98810795 -0.19475565
v 2.00085543 -1.92338291 -0.38145506
v 2.00473974 -1.92883388 0.45741005
v 2.00125943 -1.85541872 -0.64858930
v 2.00004445 -1.69704918 -0.13890119
v 2.00122450 -1.89204982 0.05553294
v 2.00256656 -1.92812005 0.32390384
v 2.00356756 -1.82616535 -0.85197901
v 2.00113688 -1.70030049 0.33274681
v 1.99925802 -1.82870713 -0.89976334
v 1.99982427 -1.52358202 -0.36980405
v 2.00168238 -1.72602228 -0.88620745
v 1.99997471 -1.61014167 0.13218687
v 2.00175021 -1.62156943 -0.89234363
v 2.00122641 -1.54249445 -0.72491812
v 2.00358186 -1.56152621 0.41639266
v 2.00229631 -1.28405777 -0.81923180
v 2.00142489 -1.30129418 0.25914583
v 1.99991725 -1.33650259 -0.52115320
v 2.00001739 -1.38816825 -0.04062444
v 1.99982129 -1.18177805 -0.14624572
v 2.00061379 -1.08571253 -0.71235662
v 1.99991582 -1.00445799 -0.43020960
v 1.99993406 -1.01091418 0.09911957
v 1.99982892 -0.90133116 -0.15446693
v 2.00288532 -0.88757095 0.28640727
v 2.00144194 -0.80424780 -0.85775977
v 2.00004814 -0.73604897 -0.60691147
v 1.99990056 -0.60200713 -0.33454999
v 2.00005875 -0.72154066 0.09336426
v 1.99982272 -0.51406143 -0.08812630
v 2.00160287 -0.60284308 -0.80641007
v 2.00063430 -0.50796375 0.15578332
v 1.99997543 -0.45337072 -0.55129462
v 2.00393496 -0.53796958 0.32307027
v 2.00252412 -0.44650013 -0.86521160
v 2.00072776 -0.27014739 -0.71220838
v 2.00142680 -0.31735782 0.14665105
v 1.99985228 -0.22953372 -0.29980894
v 1.99991928 -0.16552657 -0.04434728
v 2.00000511 -0.12297597 -0.52547323
v 2.00191794 -0.03477827 0.19672700
v 2.00136767 -0.02922413 -0.76490550
v 1.99987207 0.09654888 -0.43057623
v 2.00019024 0.12864822 0.05246890
v 1.99985145 0.04380375 -0.19500669
v 2.00094042 0.23329266 -0.75311970
v 1.99987887 0.30565699 -0.20444076
v 2.00240789 0.28184571 0.24149013
v 1.99992786 0.43711754 -0.50238245
v 2.00119005 0.54107776 -0.73142045
v 2.00140284 0.55286434 0.10455353
v 1.99989710 0.57300850 -0.20582827
v 1.99988089 0.75174757 -0.47730692
v 2.00094293 0.85137435 0.06165094
v 2.00159739 0.90921530 -0.78005498
v 1.99987255 0.97009107 -0.16502648
v 1.99983714 1.00821253 -0.46457677
v 2.00300811 1.03027769 0.16147661
v 2.00086353 1.29104623 -0.71910243
v 1.99995444 1.25214037 -0.31720274
v 2.00143920 1.33197388 0.03297276
v 1.99977480 1.58915910 -0.36304846
v 2.00115047 1.56609067 -0.79841196
v 2.00191293 1.71925267 -0.00119346
v 2.00127361 1.85853323 -0.71393721
v 2.00054680 1.85259112 -0.24518718
v 2.00171278 1.97114428 -0.11352599
v 2.00197182 1.95752081 -0.43913721
v 2.00334833 1.96008285 0.04003323
v 1.99969004 1.98769339 -0.30330374
f 850 840 859
f 248 227 183
f 243 190 204
f 687 638 630
f 434 395 406
f 130 99 126
f 448 362 367
f 579 505 551
f 360 318 348
f 262 261 301
f 705 694 737
f 700 659 690
f 392 348 391
f 184 141 131
f 67 63 96
f 543 552 589
f 509 483 506
f 948 923 957
f 629 675 577
f 534 540 584
f 829 803 869
f 542 501 572
f 233 185 262
f 261 193 260
f 993 933 934
f 354 306 344
f 1002 994 998
f 288 232 241
f 364 334 384
f 923 893 906
f 223 192 249
f 532 510 538
f 763 759 662
f 446 449 429
f 53 50 49
f 547 490 537
f 298 271 256
f 128 104 87
f 978 1035 962
f 862 878 910
f 350 296 341
f 895 831 801
f 133 127 162
f 252 243 280
f 393 349 384
f 148 171 189
f 810 777 756
f 393 340 349
f 226 195 222
f 950 909 903
f 138 112 100
f 979 977 927
f 203 172 194
f 341 366 396
f 480 526 451
f 695 653 639
f 1039 977 979
f 302 265 290
f 435 368 465
f 938 876 915
f 448 398 362
f 837 771 758
f 506 508 530
f 322 331 274
f 60 64 59
f 228 191 169
f 439 499 500
f 538 509 535
f 104 84 31
f 69 64 65
f 950 916 909
f 252 190 243
f 265 239 290
f 902 837 800
f 305 268 277
f 488 426 504
f 783 722 731
f 869 853 868
f 561 529 485
f 250 188 215
f 853 782 867
f 1021 1016 1014
f 884 842 880
f 981 916 950
f 545 578 598
f 270 219 201
f 202 278 245
f 32 33 28
f 76 4 3
f 337 323 316
f 609 648 580
f 1051 1050 1054
f 706 649 665
f 867 782 863
f 169 191 136
f 73 72 66
f 691 636 631
f 206 205 217
f 367 362 335
f 408 365 381
f 316 308 374
f 532 538 581
f 869 803 853
f 173 208 158
f 285 312 263
f 321 307 267
f 918 903 861
f 731 677 693
f 688 662 574
f 967 1045 1048
f 318 290 264
f 275 315 345
f 407 388 370
f 368 440 452
f 860 817 850
f 572 501 562
f 202 176 168
f 349 339 364
f 250 215 221
f 862 790 823
f 421 410 353
f 910 878 899
f 985 943 987
f 792 765 691
f 326 289 293
f 877 807 917
f 672 646 683
f 721 687 727
f 116 81 22
f 740 698 745
f 209 167 181
f 215 188 197
f 298 256 268
f 919 885 955
f 733 706 723
f 24 21 18
f 334 324 358
f 805 718 765
f 1006 1002 1005
f 818 779 799
f 1016 1013 1014
f 175 144 166
f 827 835 865
f 884 891 881
f 336 278 383
f 347 312 317
f 958 972 1018
f 173 129 112
f 893 891 884
f 33 35 29
f 198 153 199
f 391 348 337
f 634 578 550
f 653 586 606
f 808 778 770
f 75 1 74
f 107 91 125
f 154 106 115
f 971 1015 970
f 841 800 754
f 824 753 790
f 679 678 612
f 952 905 969
f 4 7 3
f 864 846 886
f 1015 1010 970
f 1005 1000 946
f 61 62 58
f 334 358 402
f 513 478 512
f 679 612 622
f 852 799 827
f 155 142 146
f 119 105 156
f 1019 1015 971
f 469 432 454
f 27 24 20
f 861 787 746
f 365 359 282
f 373 363 400
f 160 123 162
f 470 469 521
f 423 402 450
f 715 767 790
f 935 913 892
f 571 533 525
f 599 601 630
f 483 434 444
f 198 199 211
f 373 299 363
f 164 113 130
f 720 668 753
f 195 182 222
f 904 911 960
f 810 756 717
f 1012 1006 1011
f 530 542 559
f 154 166 106
f 911 904 860
f 221 170 187
f 846 815 856
f 603 535 563
f 590 547 595
f 160 162 190
f 831 746 801
f 257 194 251
f 808 814 839
f 273 287 311
f 469 454 475
f 234 248 183
f 192 149 153
f 917 876 949
f 858 789 777
f 366 340 397
f 394 375 347
f 1013 1007 1008
f 416 405 436
f 812 819 846
f 966 965 1042
f 95 94 57
f 917 941 895
f 557 513 546
f 769 737 721
f 815 808 844
f 63 60 56
f 130 126 164
f 685 735 789
f 396 412 431
f 972 894 948
f 319 300 254
f 584 540 549
f 484 491 548
f 263 309 202
f 600 534 584
f 24 25 21
f 989 969 932
f 283 270 201
f 406 360 417
f 282 267 230
f 366 341 327
f 801 746 759
f 787 857 766
f 431 412 467
f 753 668 715
f 308 326 374
f 994 985 987
f 1036 1031 1033
f 499 489 515
f 941 1053 1051
f 751 772 666
f 823 767 781
f 395 343 360
f 962 1035 1038
f 1000 1002 998
f 697 650 651
f 1041 1037 1039
f 537 500 573
f 502 471 473
f 355 338 295
f 53 49 91
f 837 871 836
f 176 189 159
f 654 605 590
f 473 495 508
f 81 79 16
f 704 658 703
f 375 346 312
f 144 147 89
f 54 55 51
f 914 908 965
f 752 643 661
f 955 931 999
f 157 93 107
f 682 697 610
f 567 544 486
f 608 589 615
f 933 942 898
f 272 289 308
f 766 806 724
f 333 314 283
f 145 161 196
f 89 128 87
f 746 719 684
f 428 427 394
f 293 258 299
f 925 912 924
f 579 556 505
f 467 404 478
f 298 268 305
f 1030 975 976
f 747 739 709
f 163 166 154
f 575 612 564
f 60 59 54
f 850 784 840
f 986 952 990
f 434 411 376
f 579 596 556
f 1011 1005 1010
f 109 129 95
f 916 890 872
f 47 48 43
f 504 453 474
f 693 692 728
f 564 612 560
f 1007 1001 1004
f 97 62 68
f 1035 1031 1036
f 602 570 559
f 273 223 287
f 988 984 985
f 896 833 836
f 193 196 232
f 261 220 193
f 943 899 951
f 732 679 666
f 700 665 659
f 295 259 218
f 671 667 742
f 250 268 188
f 566 515 524
f 176 207 189
f 9 2 5
f 95 115 94
f 757 722 783
f 332 367 335
f 879 883 848
f 79 111 78
f 749 757 794
f 581 538 592
f 997 934 935
f 991 933 993
f 30 27 20
f 612 609 560
f 258 237 222
f 150 93 157
f 830 775 772
f 873 846 856
f 959 973 1021
f 709 712 747
f 723 706 665
f 762 730 818
f 917 895 877
f 39 37 36
f 284 203 257
f 188 181 113
f 645 566 644
f 684 719 629
f 405 369 374
f 395 360 406
f 908 874 928
f 960 1032 961
f 407 361 437
f 813 801 759
f 1010 1005 956
f 1030 974 975
f 980 968 922
f 145 125 161
f 136 140 103
f 413 378 425
f 336 292 278
f 585 600 633
f 193 145 196
f 961 1032 978
f 451 398 448
f 485 415 427
f 568 528 493
f 347 375 312
f 419 441 381
f 305 277 275
f 698 680 696
f 249 229 240
f 223 156 192
f 354 294 306
f 454 379 400
f 963 979 897
f 301 261 296
f 710 631 648
f 348 313 337
f 18 17 20
f 149 85 118
f 427 375 394
f 40 35 38
f 912 869 868
f 1024 1017 1020
f 236 276 225
f 920 850 859
f 76 3 102
f 507 531 476
f 411 354 376
f 224 208 173
f 761 750 785
f 621 641 659
f 283 201 255
f 631 636 579
f 838 796 825
f 920 859 894
f 460 465 452
f 1046 1047 1049
f 107 53 91
f 956 892 900
f 235 223 273
f 463 418 408
f 415 421 353
f 34 33 32
f 34 32 85
f 638 599 630
f 594 524 557
f 1026 1020 974
f 811 825 791
f 352 332 298
f 974 901 975
f 20 17 14
f 681 617 643
f 798 761 821
f 561 606 586
f 545 521 554
f 744 704 743
f 835 821 865
f 318 264 313
f 729 760 678
f 562 494 555
f 190 162 204
f 1015 1011 1010
f 249 192 229
f 86 34 105
f 167 180 138
f 761 723 750
f 580 531 560
f 327 325 340
f 612 663 609
f 808 770 814
f 631 579 580
f 346 353 309
f 665 621 659
f 415 353 346
f 781 685 789
f 811 791 774
f 111 146 74
f 983 1054 940
f 317 248 269
f 1027 1024 1026
f 59 61 58
f 270 282 230
f 241 212 235
f 928 978 962
f 707 762 809
f 772 775 732
f 1040 1036 1037
f 147 179 128
f 868 853 867
f 417 360 392
f 425 424 499
f 817 784 850
f 515 498 513
f 848 810 804
f 123 80 133
f 36 31 29
f 732 729 679
f 893 886 891
f 451 459 414
f 436 469 470
f 548 574 519
f 651 650 604
f 948 957 1009
f 479 477 430
f 359 321 282
f 213 266 218
f 526 525 451
f 109 95 58
f 630 613 658
f 185 157 220
f 380 347 317
f 247 204 210
f 795 820 760
f 972 948 1018
f 175 147 144
f 885 869 929
f 96 56 108
f 253 211 244
f 645 573 566
f 42 43 39
f 66 68 62
f 477 462 403
f 796 788 825
f 975 901 927
f 658 613 657
f 849 826 792
f 671 645 644
f 886 873 891
f 135 148 172
f 806 872 841
f 700 723 665
f 492 480 448
f 953 924 952
f 491 447 490
f 803 768 802
f 516 418 463
f 55 58 57
f 342 298 305
f 996 992 989
f 568 577 528
f 783 731 819
f 979 896 897
f 92 48 52
f 916 872 857
f 279 235 273
f 891 873 881
f 199 160 205
f 386 351 372
f 807 809 876
f 407 370 361
f 990 969 989
f 370 388 330
f 111 74 8
f 374 326 387
f 790 767 823
f 1046 1043 1047
f 493 457 442
f 674 611 624
f 653 669 586
f 137 96 108
f 893 884 880
f 424 396 431
f 444 417 471
f 75 3 2
f 174 119 156
f 1031 1027 1033
f 664 689 722
f 340 325 349
f 99 67 96
f 959 1021 1025
f 206 217 239
f 29 26 25
f 882 866 898
f 934 883 913
f 128 131 104
f 610 651 604
f 580 579 551
f 729 678 679
f 959 926 920
f 450 402 456
f 1022 1012 1017
f 704 716 736
f 982 1052 939
f 1003 988 994
f 680 641 664
f 747 712 738
f 564 523 575
f 847 875 908
f 148 102 75
f 791 788 721
f 704 703 716
f 925 953 986
f 436 405 374
f 430 403 371
f 956 946 892
f 314 282 270
f 426 363 399
f 481 454 400
f 161 124 174
f 108 56 93
f 180 151 138
f 819 731 816
f 692 614 660
f 1047 980 937
f 935 934 913
f 966 914 965
f 127 143 152
f 295 319 254
f 386 372 439
f 748 739 778
f 759 652 662
f 895 918 831
f 11 15 9
f 627 647 676
f 652 684 629
f 756 777 735
f 29 31 26
f 752 661 733
f 381 365 333
f 62 109 58
f 909 916 857
f 797 778 808
f 191 183 140
f 358 294 354
f 519 569 493
f 551 505 482
f 402 389 411
f 611 591 526
f 414 459 385
f 594 566 524
f 638 635 599
f 770 738 780
f 597 611 526
f 154 115 134
f 751 666 714
f 650 632 604
f 130 110 99
f 485 468 415
f 325 339 349
f 177 152 195
f 11 6 7
f 271 236 209
f 124 91 88
f 297 276 236
f 616 563 570
f 191 234 183
f 239 217 238
f 164 126 170
f 156 105 149
f 776 772 751
f 496 444 471
f 303 279 273
f 424 378 396
f 1050 1046 1049
f 242 187 233
f 1029 1023 1022
f 705 737 738
f 1033 1030 1034
f 659 680 690
f 446 429 422
f 1049 1047 981
f 572 602 559
f 73 101 72
f 513 498 478
f 569 629 568
f 709 660 676
f 215 197 170
f 589 552 588
f 129 158 134
f 510 509 538
f 1012 1011 1017
f 260 193 232
f 802 720 782
f 856 844 851
f 292 251 278
f 210 226 237
f 277 250 221
f 335 362 297
f 711 648 663
f 873 856 851
f 441 463 408
f 119 86 105
f 344 306 302
f 176 159 111
f 13 12 9
f 227 202 178
f 520 488 541
f 842 854 825
f 851 844 839
f 826 805 765
f 991 951 933
f 324 281 294
f 572 562 599
f 482 455 407
f 846 816 815
f 465 368 452
f 348 318 313
f 246 284 329
f 497 458 434
f 204 177 210
f 774 727 744
f 734 714 650
f 712 647 705
f 237 226 222
f 437 476 407
f 368 336 383
f 875 847 852
f 327 288 325
f 77 10 114
f 640 608 615
f 140 178 122
f 951 899 898
f 291 260 232
f 256 181 188
f 317 312 285
f 9 8 2
f 548 491 590
f 563 522 530
f 497 434 483
f 17 18 11
f 311 287 281
f 311 281 324
f 421 443 410
f 825 788 791
f 870 900 849
f 192 153 198
f 325 279 339
f 269 248 234
f 767 715 702
f 970 1010 947
f 924 912 867
f 662 688 725
f 172 148 194
f 996 989 988
f 954 929 925
f 214 196 174
f 197 188 164
f 811 774 744
f 353 410 383
f 422 416 466
f 352 298 342
f 113 167 132
f 479 536 477
f 143 117 139
f 643 593 661
f 558 474 585
f 369 391 337
f 25 26 19
f 407 455 433
f 216 190 252
f 590 595 646
f 64 61 59
f 506 496 502
f 148 142 155
f 792 691 710
f 594 617 681
f 712 705 738
f 380 394 347
f 404 397 450
f 781 726 685
f 131 141 84
f 54 59 55
f 187 120 137
f 75 74 142
f 595 537 573
f 129 134 95
f 179 218 200
f 938 967 1048
f 515 503 498
f 194 189 207
f 408 418 365
f 945 906 919
f 5 2 3
f 498 467 478
f 387 357 379
f 291 288 327
f 15 13 9
f 625 585 633
f 978 1032 1035
f 687 635 638
f 574 548 605
f 944 910 943
f 200 184 131
f 296 260 291
f 773 741 752
f 79 78 12
f 717 756 669
f 666 679 622
f 721 737 694
f 768 743 764
f 577 527 528
f 592 538 535
f 694 670 635
f 80 14 77
f 897 896 871
f 721 727 774
f 710 691 631
f 722 677 731
f 582 622 575
f 238 217 216
f 1001 1003 1004
f 883 898 866
f 331 304 274
f 492 527 480
f 1048 1050 1051
f 329 284 336
f 187 137 186
f 26 23 19
f 417 392 449
f 183 227 178
f 570 602 626
f 342 328 390
f 468 460 421
f 47 42 46
f 211 206 244
f 516 479 418
f 920 894 958
f 701 674 624
f 803 744 768
f 748 692 739
f 701 724 674
f 1031 1028 1029
f 948 894 923
f 588 552 587
f 266 320 295
f 470 545 555
f 731 693 728
f 439 425 499
f 1013 1009 1007
f 488 504 558
f 147 128 89
f 390 386 447
f 620 610 571
f 779 730 742
f 881 854 884
f 1047 937 981
f 574 605 654
f 879 848 805
f 802 764 720
f 680 664 696
f 965 964 1042
f 643 617 593
f 857 806 766
f 1011 1006 1005
f 983 941 1051
f 656 550 668
f 233 186 185
f 1054 1052 982
f 646 573 645
f 210 195 226
f 671 644 667
f 489 503 515
f 209 180 167
f 973 1018 1016
f 636 639 596
f 931 885 929
f 169 136 141
f 486 544 516
f 189 171 159
f 806 754 724
f 366 404 412
f 776 714 734
f 1016 1009 1013
f 314 270 283
f 570 530 559
f 628 603 627
f 663 648 609
f 502 473 508
f 83 82 123
f 32 28 27
f 101 132 100
f 824 782 753
f 209 236 180
f 163 154 134
f 562 555 601
f 523 564 518
f 520 514 481
f 531 551 482
f 727 704 744
f 831 861 746
f 892 913 879
f 814 770 780
f 588 587 607
f 833 830 772
f 330 380 317
f 556 472 505
f 837 836 771
f 484 519 442
f 996 988 1003
f 326 308 289
f 54 51 50
f 385 331 322
f 167 138 132
f 854 838 825
f 489 431 503
f 517 485 472
f 918 861 831
f 453 399 435
f 181 167 113
f 535 522 563
f 415 468 421
f 257 203 194
f 371 377 307
f 601 555 545
f 312 309 263
f 429 391 369
f 289 272 247
f 508 495 542
f 330 317 269
f 452 440 443
f 531 482 476
f 512 450 511
f 753 715 790
f 523 518 461
f 178 202 168
f 529 549 487
f 695 765 718
f 922 963 897
f 949 941 917
f 151 173 112
f 315 242 262
f 165 83 123
f 874 832 904
f 292 284 257
f 306 294 253
f 668 550 625
f 419 381 356
f 700 690 698
f 557 546 593
f 100 112 98
f 820 849 792
f 642 588 607
f 279 241 235
f 267 266 213
f 796 780 769
f 533 486 464
f 815 797 808
f 421 460 443
f 390 328 345
f 840 784 794
f 152 139 195
f 864 886 893
f 106 90 48
f 483 496 506
f 54 50 53
f 525 464 459
f 266 295 218
f 302 253 265
f 527 526 480
f 928 874 921
f 105 34 85
f 1044 1040 1041
f 64 62 61
f 201 163 158
f 749 696 664
f 100 98 68
f 899 878 882
f 535 509 522
f 988 985 994
f 228 269 234
f 9 5 6
f 771 776 734
f 840 794 845
f 404 366 397
f 388 433 380
f 30 32 27
f 215 170 221
f 462 438 403
f 114 117 143
f 970 947 900
f 164 188 113
f 1042 962 1038
f 952 924 905
f 573 500 499
f 742 741 773
f 70 64 69
f 1036 1033 1037
f 155 146 159
f 124 88 119
f 637 584 685
f 51 52 47
f 652 569 574
f 754 758 699
f 639 653 606
f 715 668 625
f 661 623 649
f 1054 1050 1052
f 715 625 702
f 714 655 650
f 683 646 645
f 127 152 177
f 281 240 294
f 493 492 457
f 576 608 619
f 598 634 657
f 184 169 141
f 711 710 648
f 441 408 381
f 967 914 966
f 859 864 894
f 608 576 589
f 521 514 520
f 705 670 694
f 982 939 918
f 593 576 623
f 110 113 71
f 639 606 596
f 708 668 720
f 637 600 584
f 852 827 865
f 738 769 780
f 152 143 139
f 168 176 111
f 304 333 283
f 981 937 916
f 968 963 922
f 799 742 773
f 291 232 288
f 927 901 889
f 805 804 718
f 792 826 765
f 848 883 810
f 582 539 536
f 1003 994 1004
f 945 1001 1009
f 816 793 815
f 693 607 692
f 603 616 627
f 1004 1002 1006
f 999 954 992
f 239 244 206
f 478 404 450
f 957 906 945
f 772 732 666
f 91 49 45
f 265 244 239
f 755 736 708
f 648 631 580
f 941 983 895
f 276 224 225
f 339 279 303
f 1039 1037 1034
f 376 354 344
f 281 287 249
f 610 567 533
f 592 535 603
f 978 921 961
f 313 323 337
f 719 701 675
f 247 237 258
f 785 750 740
f 550 488 558
f 973 920 958
f 353 278 309
f 561 485 517
f 246 203 284
f 436 374 432
f 827 822 835
f 793 728 797
f 36 37 31
f 447 445 490
f 871 896 836
f 954 986 992
f 949 1053 941
f 825 811 842
f 1039 979 963
f 658 657 686
f 420 409 342
f 675 597 577
f 990 952 969
f 484 447 491
f 316 272 308
f 566 499 515
f 903 857 861
f 377 401 355
f 494 466 470
f 94 92 52
f 464 486 441
f 182 121 135
f 55 52 51
f 434 406 444
f 168 111 122
f 970 900 930
f 873 851 881
f 514 475 481
f 377 355 320
f 11 9 6
f 627 616 647
f 464 441 419
f 586 583 529
f 1004 994 1002
f 403 438 377
f 607 614 692
f 977 976 927
f 874 834 832
f 607 581 614
f 366 327 340
f 949 876 938
f 150 157 185
f 736 716 708
f 540 487 549
f 1000 998 935
f 863 824 905
f 533 567 486
f 878 858 882
f 955 999 1001
f 142 74 146
f 964 962 1042
f 799 773 827
f 934 933 883
f 960 1025 1032
f 494 470 555
f 472 427 428
f 661 649 706
f 938 915 967
f 767 726 781
f 1007 1004 1008
f 82 80 123
f 544 479 516
f 819 816 846
f 75 2 1
f 107 125 145
f 88 86 119
f 364 303 311
f 352 457 367
f 958 894 972
f 691 695 639
f 659 641 680
f 886 846 873
f 304 255 274
f 332 271 298
f 1030 1027 1026
f 407 433 388
f 542 495 501
f 505 472 433
f 966 1042 1045
f 1002 1000 1005
f 90 43 48
f 731 793 816
f 466 436 470
f 862 781 878
f 564 560 518
f 697 771 734
f 1048 1045 1046
f 162 177 204
f 80 77 127
f 713 660 709
f 901 887 830
f 999 992 1001
f 83 20 82
f 233 187 186
f 40 39 35
f 117 76 121
f 322 274 276
f 888 862 910
f 764 755 720
f 786 752 733
f 743 736 755
f 647 616 626
f 633 600 637
f 89 87 37
f 724 673 674
f 722 689 677
f 944 888 910
f 746 787 719
f 1043 1039 963
f 91 45 88
f 50 46 44
f 149 118 153
f 578 541 550
f 397 423 450
f 678 663 612
f 686 657 656
f 865 821 834
f 685 618 735
f 305 275 328
f 594 557 617
f 371 321 359
f 946 935 892
f 465 487 540
f 732 775 729
f 724 754 673
f 229 198 211
f 852 818 799
f 743 704 736
f 412 404 467
f 702 637 726
f 82 20 14
f 364 339 303
f 673 699 620
f 794 812 845
f 197 164 170
f 945 955 1001
f 192 198 229
f 642 615 588
f 432 374 379
f 90 89 43
f 742 667 741
f 614 592 628
f 733 661 706
f 579 636 596
f 41 38 34
f 807 707 809
f 586 529 561
f 593 546 565
f 133 80 127
f 853 828 782
f 254 300 228
f 31 84 26
f 343 310 360
f 897 871 837
f 1018 1009 1016
f 44 40 41
f 175 213 147
f 88 45 41
f 1032 1025 1028
f 397 393 423
f 761 785 821
f 72 68 66
f 387 326 357
f 613 545 598
f 236 225 180
f 582 536 544
f 235 156 223
f 501 422 466
f 376 344 343
f 484 420 447
f 683 645 671
f 122 111 79
f 456 402 411
f 613 598 657
f 762 818 809
f 28 24 27
f 126 99 120
f 376 343 395
f 1034 976 977
f 882 858 866
f 473 449 446
f 111 8 78
f 1025 1023 1028
f 369 316 374
f 235 212 156
f 1022 1017 1024
f 930 870 907
f 625 550 585
f 351 301 350
f 511 458 510
f 914 847 908
f 86 41 34
f 657 634 656
f 784 749 794
f 52 48 47
f 634 598 578
f 723 700 750
f 689 642 677
f 194 207 245
f 523 461 462
f 833 889 830
f 1034 1030 976
f 778 739 770
f 925 924 953
f 821 785 834
f 855 839 838
f 471 449 473
f 635 626 602
f 803 828 853
f 186 150 185
f 35 39 36
f 915 847 914
f 256 271 209
f 889 901 830
f 1047 1043 968
f 576 512 543
f 392 360 348
f 69 65 67
f 401 461 437
f 726 637 685
f 161 125 124
f 728 692 748
f 438 401 377
f 642 607 677
f 141 136 84
f 1038 1036 1040
f 971 970 930
f 446 422 501
f 105 85 149
f 872 890 841
f 1010 956 947
f 650 655 632
f 113 132 101
f 946 1000 935
f 644 594 667
f 980 1047 968
f 56 54 53
f 640 615 642
f 832 740 817
f 113 110 130
f 445 439 500
f 252 280 286
f 847 818 852
f 138 151 112
f 978 928 921
f 113 73 71
f 94 52 57
f 451 414 398
f 585 474 534
f 687 630 704
f 876 847 915
f 580 551 531
f 178 168 122
f 35 36 29
f 49 44 45
f 251 194 245
f 817 745 784
f 987 951 991
f 512 478 450
f 77 14 10
f 140 122 116
f 730 671 742
f 328 275 345
f 474 435 465
f 361 319 338
f 224 173 151
f 739 713 709
f 50 44 49
f 289 247 258
f 1021 1014 1023
f 465 460 487
f 786 733 798
f 442 352 409
f 98 112 68
f 114 4 117
f 707 672 762
f 382 322 297
f 299 258 246
f 199 205 206
f 577 597 527
f 931 954 999
f 703 686 708
f 604 632 544
f 225 224 151
f 630 601 613
f 341 291 327
f 19 16 13
f 230 267 231
f 444 406 417
f 757 783 812
f 985 944 943
f 803 802 828
f 285 263 227
f 182 135 172
f 329 368 399
f 102 3 75
f 649 619 621
f 422 369 416
f 17 11 14
f 829 744 803
f 820 792 711
f 484 442 420
f 2 8 1
f 93 53 107
f 685 584 618
f 285 227 248
f 793 731 728
f 912 868 867
f 228 234 191
f 1053 1048 1051
f 338 319 295
f 939 1049 981
f 820 711 760
f 511 510 532
f 363 299 329
f 296 261 260
f 486 463 441
f 1020 1019 936
f 828 802 782
f 117 4 76
f 556 517 472
f 930 900 870
f 134 115 95
f 403 377 371
f 1020 1015 1019
f 985 984 944
f 524 513 557
f 350 301 296
f 15 19 13
f 623 576 619
f 863 782 824
f 323 280 316
f 801 813 877
f 396 366 412
f 458 497 510
f 625 633 702
f 127 77 114
f 906 880 919
f 805 848 804
f 212 174 156
f 596 517 556
f 705 647 670
f 415 346 375
f 620 571 591
f 299 246 329
f 964 908 962
f 462 461 438
f 231 267 213
f 919 880 885
f 249 240 281
f 254 169 184
f 887 870 843
f 385 356 331
f 482 505 455
f 809 847 876
f 798 733 761
f 983 940 895
f 518 437 461
f 739 747 770
f 471 417 449
f 851 855 881
f 386 345 351
f 79 12 16
f 95 57 58
f 991 993 995
f 599 562 601
f 377 320 307
f 758 771 697
f 336 284 292
f 573 499 566
f 493 442 519
f 955 885 931
f 186 137 150
f 158 163 134
f 259 254 184
f 933 898 883
f 439 413 425
f 854 842 884
f 492 448 457
f 888 790 862
f 926 850 920
f 153 118 83
f 317 285 248
f 771 836 776
f 242 233 262
f 903 909 857
f 323 286 280
f 365 282 314
f 961 921 904
f 14 11 10
f 926 959 1025
f 116 122 81
f 619 608 621
f 989 984 988
f 11 18 15
f 883 866 810
f 526 553 525
f 71 70 69
f 923 906 957
f 1019 971 936
f 760 711 678
f 315 262 301
f 100 68 72
f 1042 1038 1045
f 488 400 426
f 511 532 552
f 402 358 389
f 904 832 860
f 179 131 128
f 856 815 844
f 369 337 316
f 1033 1027 1030
f 791 721 774
f 139 121 182
f 231 213 175
f 908 928 962
f 43 89 37
f 104 31 37
f 745 696 749
f 18 21 15
f 804 810 717
f 1039 1034 977
f 358 324 294
f 194 148 189
f 543 512 511
f 927 889 896
f 280 243 272
f 368 383 410
f 622 612 575
f 1040 1037 1041
f 309 278 202
f 199 165 160
f 1028 1031 1035
f 788 769 721
f 951 898 942
f 703 658 686
f 378 341 396
f 263 202 227
f 615 589 588
f 593 565 576
f 313 264 286
f 397 340 393
f 943 910 899
f 647 626 670
f 330 269 300
f 960 911 926
f 688 574 654
f 847 809 818
f 101 100 72
f 779 742 799
f 300 269 228
f 1043 963 968
f 960 926 1025
f 614 628 660
f 247 210 237
f 501 466 494
f 1001 992 996
f 401 361 355
f 717 669 653
f 773 786 822
f 272 243 247
f 629 577 568
f 132 138 100
f 1027 1022 1024
f 390 345 386
f 989 932 984
f 719 766 701
f 880 829 885
f 704 630 658
f 664 640 689
f 834 785 740
f 740 750 700
f 922 897 902
f 459 464 419
f 792 710 711
f 652 746 684
f 452 443 460
f 995 993 934
f 510 497 509
f 287 223 249
f 835 822 798
f 692 713 739
f 526 591 553
f 418 430 371
f 815 793 797
f 959 920 973
f 85 30 118
f 166 144 106
f 66 62 64
f 180 225 151
f 440 410 443
f 833 772 776
f 322 414 385
f 447 386 445
f 974 1020 936
f 469 436 432
f 502 508 506
f 807 763 707
f 362 398 382
f 971 930 907
f 939 903 918
f 325 288 279
f 13 16 12
f 221 187 242
f 232 196 241
f 576 543 589
f 894 893 923
f 218 259 184
f 268 256 188
f 528 492 493
f 857 872 806
f 574 569 519
f 475 454 481
f 38 35 33
f 270 230 219
f 211 199 206
f 747 738 770
f 925 869 912
f 575 523 539
f 50 51 46
f 304 283 255
f 1014 1013 1008
f 939 981 950
f 521 520 554
f 230 175 166
f 201 219 163
f 940 982 895
f 262 185 261
f 725 688 654
f 875 852 865
f 355 295 320
f 165 153 83
f 480 451 448
f 428 394 380
f 297 322 276
f 243 204 247
f 1001 1007 1009
f 1031 1029 1027
f 371 307 321
f 420 390 447
f 110 71 69
f 924 867 905
f 457 448 367
f 769 738 737
f 603 563 616
f 368 329 336
f 350 341 378
f 144 90 106
f 39 43 37
f 67 65 63
f 217 205 216
f 824 790 888
f 469 475 514
f 902 897 837
f 681 643 741
f 984 932 944
f 913 883 879
f 41 40 38
f 416 436 466
f 675 701 624
f 382 398 322
f 509 506 522
f 789 735 777
f 543 511 552
f 566 594 644
f 1012 1008 1006
f 219 230 163
f 357 293 299
f 937 980 922
f 967 915 914
f 468 487 460
f 218 184 200
f 362 382 297
f 776 751 714
f 398 414 322
f 92 106 48
f 271 297 236
f 584 549 618
f 937 890 916
f 787 766 719
f 372 350 413
f 917 807 876
f 267 307 266
f 240 211 253
f 899 882 898
f 213 218 179
f 81 16 22
f 1044 1041 1043
f 295 254 259
f 374 387 379
f 811 744 829
f 432 379 454
f 389 354 411
f 140 116 103
f 839 814 838
f 112 129 109
f 40 42 39
f 118 30 83
f 719 675 629
f 755 708 720
f 652 629 569
f 878 781 858
f 687 721 694
f 596 606 561
f 230 231 175
f 251 245 278
f 499 424 489
f 9 12 8
f 842 811 829
f 911 860 850
f 96 63 56
f 741 667 681
f 956 1005 946
f 343 344 302
f 136 103 84
f 1032 1028 1035
f 702 633 637
f 754 699 673
f 583 549 529
f 210 177 195
f 426 453 504
f 867 863 905
f 546 512 565
f 938 1053 949
f 349 364 384
f 203 182 172
f 345 315 351
f 534 465 540
f 907 870 887
f 103 116 22
f 678 711 663
f 560 531 507
f 6 5 3
f 364 311 334
f 474 453 435
f 666 622 632
f 51 47 46
f 254 228 169
f 195 139 182
f 110 69 99
f 563 530 570
f 983 1051 1054
f 459 419 385
f 849 892 826
f 173 158 129
f 191 140 136
f 433 472 428
f 472 485 427
f 286 238 252
f 170 126 120
f 756 735 669
f 310 318 360
f 1017 1015 1020
f 582 575 539
f 501 494 562
f 246 222 182
f 718 717 653
f 220 157 193
f 359 418 371
f 862 823 781
f 947 956 900
f 199 153 165
f 120 96 137
f 177 162 127
f 239 264 290
f 695 718 653
f 171 155 159
f 708 686 668
f 429 369 422
f 581 592 614
f 894 864 893
f 357 299 373
f 1023 1014 1022
f 1004 1006 1008
f 470 521 545
f 998 994 987
f 208 201 158
f 230 166 163
f 797 748 778
f 258 222 246
f 384 334 402
f 782 720 753
f 127 114 143
f 698 696 745
f 875 865 874
f 632 582 544
f 420 442 409
f 400 379 373
f 804 717 718
f 727 687 704
f 135 102 148
f 547 537 595
f 442 457 352
f 520 481 488
f 509 497 483
f 70 66 64
f 845 812 864
f 381 333 356
f 539 462 477
f 21 25 19
f 974 907 901
f 578 554 541
f 28 25 24
f 1022 1014 1012
f 335 297 271
f 702 726 767
f 641 608 640
f 28 29 25
f 672 683 730
f 423 393 384
f 976 975 927
f 960 961 904
f 300 370 330
f 427 415 375
f 379 357 373
f 617 557 593
f 969 905 932
f 356 333 304
f 987 943 951
f 419 356 385
f 660 627 676
f 741 643 752
f 429 392 391
f 670 626 635
f 202 207 176
f 88 41 86
f 728 748 797
f 433 428 380
f 488 481 400
f 224 274 208
f 122 79 81
f 388 380 330
f 951 942 933
f 113 101 73
f 800 758 754
f 148 155 171
f 692 660 713
f 578 545 554
f 796 814 780
f 858 777 866
f 766 724 701
f 974 936 907
f 662 725 763
f 1017 1011 1015
f 261 185 220
f 764 743 755
f 938 1048 1053
f 20 24 18
f 691 639 636
f 416 369 405
f 827 773 822
f 544 536 479
f 240 229 211
f 781 789 858
f 361 370 319
f 1029 1022 1027
f 592 603 628
f 635 602 599
f 730 683 671
f 238 216 252
f 363 329 399
f 315 301 351
f 900 892 849
f 515 513 524
f 157 107 145
f 906 893 880
f 669 618 586
f 1003 1001 996
f 957 945 1009
f 449 392 429
f 656 634 550
f 19 23 22
f 865 834 874
f 82 14 80
f 716 703 708
f 179 200 131
f 925 986 954
f 698 690 680
f 699 758 697
f 115 106 92
f 26 103 23
f 1030 1026 974
f 854 855 838
f 605 548 590
f 424 431 489
f 1052 1049 939
f 275 221 242
f 255 201 208
f 131 84 104
f 768 764 802
f 979 927 896
f 310 290 318
f 572 559 542
f 837 758 800
f 518 507 437
f 63 65 60
f 196 161 174
f 476 482 407
f 997 995 934
f 901 907 887
f 44 42 40
f 430 477 403
f 621 608 641
f 276 274 224
f 319 370 300
f 202 245 207
f 303 273 311
f 205 190 216
f 672 590 646
f 998 995 997
f 496 471 502
f 892 879 826
f 241 214 212
f 165 123 160
f 333 365 314
f 654 672 707
f 859 840 845
f 302 290 310
f 503 431 498
f 65 64 60
f 307 320 266
f 288 241 279
f 205 160 190
f 762 672 730
f 549 583 618
f 534 474 465
f 958 1018 973
f 426 400 363
f 1044 1043 1046
f 1045 1038 1040
f 609 580 560
f 174 124 119
f 256 209 181
f 495 473 446
f 749 664 757
f 610 604 567
f 908 875 874
f 895 801 877
f 33 29 28
f 413 350 378
f 162 123 133
f 277 268 250
f 870 820 795
f 530 508 542
f 1025 1021 1023
f 294 240 253
f 740 745 817
f 137 108 150
f 439 372 413
f 667 594 681
f 597 526 527
f 342 390 420
f 725 654 707
f 714 666 655
f 921 874 904
f 965 908 964
f 120 99 96
f 84 103 26
f 611 673 591
f 491 490 547
f 461 401 438
f 490 445 500
f 794 757 812
f 813 759 763
f 734 650 697
f 334 311 324
f 759 746 652
f 735 618 669
f 686 656 668
f 533 464 525
f 257 251 292
f 529 487 468
f 586 618 583
f 19 22 16
f 275 242 315
f 277 221 275
f 788 796 769
f 280 272 316
f 69 67 99
f 528 527 492
f 353 383 278
f 784 745 749
f 982 918 895
f 880 842 829
f 495 446 501
f 112 109 97
f 12 78 8
f 409 352 342
f 833 776 836
f 691 765 695
f 1024 1020 1026
f 491 547 590
f 7 6 3
f 548 519 484
f 944 932 888
f 456 411 458
f 356 304 331
f 761 733 723
f 140 183 178
f 453 426 399
f 1037 1033 1034
f 813 763 807
f 45 44 41
f 986 953 952
f 170 120 187
f 806 841 754
f 834 740 832
f 114 10 4
f 10 7 4
f 812 783 819
f 485 529 468
f 1048 1046 1050
f 699 697 682
f 1045 1040 1044
f 328 342 305
f 343 302 310
f 835 798 821
f 423 384 402
f 121 76 102
f 1035 1036 1038
f 148 75 142
f 565 512 576
f 1028 1023 1029
f 541 488 550
f 518 560 507
f 744 743 768
f 623 619 649
f 1014 1008 1012
f 998 987 995
f 293 289 258
f 709 676 712
f 507 476 437
f 998 997 935
f 694 635 687
f 604 544 567
f 843 870 795
f 456 458 511
f 306 253 302
f 313 286 323
f 418 359 365
f 30 20 83
f 887 843 830
f 896 889 833
f 351 350 372
f 601 545 613
f 150 108 93
f 546 513 512
f 879 805 826
f 624 611 597
f 213 179 147
f 125 91 124
f 591 571 553
f 296 291 341
f 490 500 537
f 450 456 511
f 936 971 907
f 55 57 52
f 664 722 757
f 822 786 798
f 620 682 610
f 632 622 582
f 451 525 459
f 1043 1041 1039
f 674 673 611
f 11 7 10
f 861 857 787
f 458 411 434
f 773 752 786
f 693 677 607
f 85 32 30
f 662 652 574
f 616 570 626
f 596 561 517
f 550 558 585
f 111 159 146
f 851 839 855
f 115 92 94
f 905 824 888
f 838 814 796
f 355 361 338
f 483 444 496
f 326 293 357
f 843 795 775
f 8 74 1
f 332 335 271
f 56 53 93
f 157 145 193
f 486 516 463
f 931 929 954
f 505 433 455
f 536 539 477
f 973 1016 1021
f 445 386 439
f 689 640 642
f 730 779 818
f 929 869 925
f 103 22 23
f 587 581 607
f 775 795 729
f 697 651 610
f 135 121 102
f 628 627 660
f 44 46 42
f 530 522 506
f 274 255 208
f 1054 982 940
f 246 182 203
f 877 813 807
f 859 845 864
f 661 593 623
f 239 238 264
f 571 610 533
f 389 358 354
f 38 33 34
f 47 43 42
f 939 950 903
f 672 654 590
f 664 641 640
f 71 73 70
f 966 1045 967
f 214 174 212
f 1052 1050 1049
f 699 682 620
f 945 919 955
f 830 843 775
f 881 855 854
f 554 520 541
f 937 922 890
f 986 990 992
f 948 1009 1018
f 763 725 707
f 60 54 56
f 241 196 214
f 264 238 286
f 367 332 352
f 73 66 70
f 539 523 462
f 552 532 587
f 599 602 572
f 521 469 514
f 932 905 888
f 346 309 312
f 112 97 68
f 253 244 265
f 890 902 800
f 569 568 493
f 431 467 498
f 585 534 600
f 890 800 841
f 558 504 474
f 810 866 777
f 844 808 839
f 437 361 401
f 992 990 989
f 87 104 37
f 712 676 647
f 987 991 995
f 144 89 90
f 440 368 410
f 21 19 15
f 890 922 902
f 192 156 149
f 59 58 55
f 532 581 587
f 795 760 729
f 376 395 434
f 282 321 267
f 665 649 621
f 1046 1045 1044
f 864 812 846
f 425 378 424
f 646 595 573
f 860 832 817
f 97 109 62
f 911 850 926
f 849 820 870
f 553 571 525
f 399 368 435
f 885 829 869
f 675 624 597
f 655 666 632
f 139 117 121
f 418 479 430
f 673 620 591
f 740 700 698

